solid JSxCAD
facet normal -0.996188732906608 0.0872238982729294 0
  outer loop
    vertex -2.5 0 -3
    vertex -2.5 0 3
    vertex -2.462 0.434 3
  endloop
endfacet
facet normal -0.996188732906608 -0.0872238982729294 0
  outer loop
    vertex -2.5 0 -3
    vertex -2.462 -0.434 -3
    vertex -2.5 0 3
  endloop
endfacet
facet normal 4.6061611609557094e-15 0 -1
  outer loop
    vertex -2.5 0 -3
    vertex -2.462 0.434 -3
    vertex -1.915 1.607 -3
  endloop
endfacet
facet normal -0.9961887329066085 0.08722389827292672 0
  outer loop
    vertex -2.5 0 -3
    vertex -2.462 0.434 3
    vertex -2.462 0.434 -3
  endloop
endfacet
facet normal 0 0 -1
  outer loop
    vertex -2.5 0 -3
    vertex -2.349 -0.855 -3
    vertex -2.462 -0.434 -3
  endloop
endfacet
facet normal 0 0 -1
  outer loop
    vertex -2.5 0 -3
    vertex -2.165 -1.25 -3
    vertex -2.349 -0.855 -3
  endloop
endfacet
facet normal 2.302113526606684e-15 0 -1
  outer loop
    vertex -2.5 0 -3
    vertex -1.915 -1.607 -3
    vertex -2.165 -1.25 -3
  endloop
endfacet
facet normal -1.0847069875966143e-15 0 -0.9999999999999999
  outer loop
    vertex -2.5 0 -3
    vertex -1.915 1.607 -3
    vertex -1.25 -2.165 -3
  endloop
endfacet
facet normal -5.9832154649878725e-16 0 -0.9999999999999999
  outer loop
    vertex -2.5 0 -3
    vertex -1.25 -2.165 -3
    vertex -1.915 -1.607 -3
  endloop
endfacet
facet normal -0.9961887329066085 -0.08722389827292672 0
  outer loop
    vertex -2.5 0 3
    vertex -2.462 -0.434 -3
    vertex -2.462 -0.434 3
  endloop
endfacet
facet normal 0 0 1
  outer loop
    vertex -2.5 0 3
    vertex -2.462 -0.434 3
    vertex -2.349 -0.855 3
  endloop
endfacet
facet normal 0 0 1
  outer loop
    vertex -2.5 0 3
    vertex -2.349 -0.855 3
    vertex -2.165 -1.25 3
  endloop
endfacet
facet normal 2.302113526606684e-15 0 1
  outer loop
    vertex -2.5 0 3
    vertex -2.165 -1.25 3
    vertex -1.915 -1.607 3
  endloop
endfacet
facet normal -5.9832154649878725e-16 0 0.9999999999999999
  outer loop
    vertex -2.5 0 3
    vertex -1.915 -1.607 3
    vertex -1.25 -2.165 3
  endloop
endfacet
facet normal 4.6061611609557094e-15 0 1
  outer loop
    vertex -2.5 0 3
    vertex -1.915 1.607 3
    vertex -2.462 0.434 3
  endloop
endfacet
facet normal -1.0847069875966143e-15 0 0.9999999999999999
  outer loop
    vertex -2.5 0 3
    vertex -1.25 -2.165 3
    vertex -1.915 1.607 3
  endloop
endfacet
facet normal -0.9658148237499068 -0.2592329574435634 0
  outer loop
    vertex -2.462 -0.434 -3
    vertex -2.349 -0.855 -3
    vertex -2.462 -0.434 3
  endloop
endfacet
facet normal -0.9658148237499076 -0.25923295744356084 0
  outer loop
    vertex -2.462 -0.434 3
    vertex -2.349 -0.855 -3
    vertex -2.349 -0.855 3
  endloop
endfacet
facet normal -0.9658148237499068 0.2592329574435634 0
  outer loop
    vertex -2.462 0.434 -3
    vertex -2.462 0.434 3
    vertex -2.349 0.855 3
  endloop
endfacet
facet normal 0 0 -1
  outer loop
    vertex -2.462 0.434 -3
    vertex -2.349 0.855 -3
    vertex -1.915 1.607 -3
  endloop
endfacet
facet normal -0.9658148237499076 0.25923295744356084 0
  outer loop
    vertex -2.462 0.434 -3
    vertex -2.349 0.855 3
    vertex -2.349 0.855 -3
  endloop
endfacet
facet normal 0 0 1
  outer loop
    vertex -2.462 0.434 3
    vertex -1.915 1.607 3
    vertex -2.349 0.855 3
  endloop
endfacet
facet normal -0.9064760633863703 -0.4222572042103595 0
  outer loop
    vertex -2.349 -0.855 -3
    vertex -2.165 -1.25 -3
    vertex -2.349 -0.855 3
  endloop
endfacet
facet normal -0.9064760633863698 -0.4222572042103606 0
  outer loop
    vertex -2.349 -0.855 3
    vertex -2.165 -1.25 -3
    vertex -2.165 -1.25 3
  endloop
endfacet
facet normal -0.9064760633863703 0.4222572042103595 0
  outer loop
    vertex -2.349 0.855 -3
    vertex -2.349 0.855 3
    vertex -2.165 1.25 3
  endloop
endfacet
facet normal -1.3432012880347851e-14 0 -1
  outer loop
    vertex -2.349 0.855 -3
    vertex -2.165 1.25 -3
    vertex -1.915 1.607 -3
  endloop
endfacet
facet normal -0.9064760633863698 0.4222572042103606 0
  outer loop
    vertex -2.349 0.855 -3
    vertex -2.165 1.25 3
    vertex -2.165 1.25 -3
  endloop
endfacet
facet normal -1.3432012880347851e-14 0 1
  outer loop
    vertex -2.349 0.855 3
    vertex -1.915 1.607 3
    vertex -2.165 1.25 3
  endloop
endfacet
facet normal -1 0 0
  outer loop
    vertex -2.24 -0.20800000000000002 -3.5
    vertex -2.24 -0.20800000000000002 -3
    vertex -2.24 0.20800000000000002 -3
  endloop
endfacet
facet normal 1.8894197151551344e-14 0 -1
  outer loop
    vertex -2.24 -0.20800000000000002 -3.5
    vertex -2.24 0.20800000000000002 -3.5
    vertex -2.0140000000000002 -1.0030000000000001 -3.5
  endloop
endfacet
facet normal -0.9999999999999999 0 0
  outer loop
    vertex -2.24 -0.20800000000000002 -3.5
    vertex -2.24 0.20800000000000002 -3
    vertex -2.24 0.20800000000000002 -3.5
  endloop
endfacet
facet normal -0.9830897197714441 -0.18312455564370145 0
  outer loop
    vertex -2.24 -0.20800000000000002 -3.5
    vertex -2.164 -0.616 -3.5
    vertex -2.24 -0.20800000000000002 -3
  endloop
endfacet
facet normal -1.3970341319053191e-14 0 -1
  outer loop
    vertex -2.24 -0.20800000000000002 -3.5
    vertex -2.0140000000000002 -1.0030000000000001 -3.5
    vertex -2.164 -0.616 -3.5
  endloop
endfacet
facet normal -0.9830897197714445 -0.18312455564369978 0
  outer loop
    vertex -2.24 -0.20800000000000002 -3
    vertex -2.164 -0.616 -3.5
    vertex -2.164 -0.616 -3
  endloop
endfacet
facet normal 1.3970341319053191e-14 0 1
  outer loop
    vertex -2.24 -0.20800000000000002 -3
    vertex -2.164 -0.616 -3
    vertex -2.0140000000000002 -1.0030000000000001 -3
  endloop
endfacet
facet normal -1.8894197151551344e-14 0 1
  outer loop
    vertex -2.24 -0.20800000000000002 -3
    vertex -2.0140000000000002 -1.0030000000000001 -3
    vertex -2.24 0.20800000000000002 -3
  endloop
endfacet
facet normal -0.9999999999999999 0 0
  outer loop
    vertex -2.24 -0.20800000000000002 3
    vertex -2.24 -0.20800000000000002 3.5
    vertex -2.24 0.20800000000000002 3.5
  endloop
endfacet
facet normal -1.8894197151551344e-14 0 -1
  outer loop
    vertex -2.24 -0.20800000000000002 3
    vertex -2.24 0.20800000000000002 3
    vertex -2.0140000000000002 -1.0030000000000001 3
  endloop
endfacet
facet normal -1 0 0
  outer loop
    vertex -2.24 -0.20800000000000002 3
    vertex -2.24 0.20800000000000002 3.5
    vertex -2.24 0.20800000000000002 3
  endloop
endfacet
facet normal -0.9830897197714442 -0.18312455564370186 0
  outer loop
    vertex -2.24 -0.20800000000000002 3
    vertex -2.164 -0.616 3
    vertex -2.24 -0.20800000000000002 3.5
  endloop
endfacet
facet normal 1.3970341319053191e-14 0 -1
  outer loop
    vertex -2.24 -0.20800000000000002 3
    vertex -2.0140000000000002 -1.0030000000000001 3
    vertex -2.164 -0.616 3
  endloop
endfacet
facet normal -0.9830897197714445 -0.18312455564369937 0
  outer loop
    vertex -2.24 -0.20800000000000002 3.5
    vertex -2.164 -0.616 3
    vertex -2.164 -0.616 3.5
  endloop
endfacet
facet normal -1.3970341319053191e-14 0 1
  outer loop
    vertex -2.24 -0.20800000000000002 3.5
    vertex -2.164 -0.616 3.5
    vertex -2.0140000000000002 -1.0030000000000001 3.5
  endloop
endfacet
facet normal 1.8894197151551344e-14 0 1
  outer loop
    vertex -2.24 -0.20800000000000002 3.5
    vertex -2.0140000000000002 -1.0030000000000001 3.5
    vertex -2.24 0.20800000000000002 3.5
  endloop
endfacet
facet normal -0.9830897197714442 0.18312455564370186 0
  outer loop
    vertex -2.24 0.20800000000000002 -3.5
    vertex -2.24 0.20800000000000002 -3
    vertex -2.164 0.616 -3
  endloop
endfacet
facet normal 0 0 -1
  outer loop
    vertex -2.24 0.20800000000000002 -3.5
    vertex -2.164 0.616 -3.5
    vertex -1.516 1.663 -3.5
  endloop
endfacet
facet normal -0.9830897197714445 0.18312455564369937 0
  outer loop
    vertex -2.24 0.20800000000000002 -3.5
    vertex -2.164 0.616 -3
    vertex -2.164 0.616 -3.5
  endloop
endfacet
facet normal 0 0 -0.9999999999999999
  outer loop
    vertex -2.24 0.20800000000000002 -3.5
    vertex -1.796 -1.356 -3.5
    vertex -2.0140000000000002 -1.0030000000000001 -3.5
  endloop
endfacet
facet normal 1.472385746754315e-15 0 -1
  outer loop
    vertex -2.24 0.20800000000000002 -3.5
    vertex -1.516 -1.663 -3.5
    vertex -1.796 -1.356 -3.5
  endloop
endfacet
facet normal 1.2546221982556416e-15 0 -1
  outer loop
    vertex -2.24 0.20800000000000002 -3.5
    vertex -1.516 1.663 -3.5
    vertex -0.8130000000000001 2.098 -3.5
  endloop
endfacet
facet normal -1.7683796786697706e-16 0 -1
  outer loop
    vertex -2.24 0.20800000000000002 -3.5
    vertex -0.8130000000000001 2.098 -3.5
    vertex 1.516 1.663 -3.5
  endloop
endfacet
facet normal -5.330444706846177e-16 0 -1
  outer loop
    vertex -2.24 0.20800000000000002 -3.5
    vertex -0.41300000000000003 -2.212 -3.5
    vertex -1.516 -1.663 -3.5
  endloop
endfacet
facet normal 0 0 -1
  outer loop
    vertex -2.24 0.20800000000000002 -3.5
    vertex 1.516 1.663 -3.5
    vertex -0.41300000000000003 -2.212 -3.5
  endloop
endfacet
facet normal 2.4106460202478677e-15 0 0.9999999999999999
  outer loop
    vertex -2.24 0.20800000000000002 -3
    vertex -2.0140000000000002 -1.0030000000000001 -3
    vertex -1.796 -1.356 -3
  endloop
endfacet
facet normal -2.94477149350863e-15 0 1
  outer loop
    vertex -2.24 0.20800000000000002 -3
    vertex -1.796 -1.356 -3
    vertex -1.516 -1.663 -3
  endloop
endfacet
facet normal 1.8656556473961623e-15 0 1
  outer loop
    vertex -2.24 0.20800000000000002 -3
    vertex -1.516 -1.663 -3
    vertex -0.41300000000000003 -2.212 -3
  endloop
endfacet
facet normal -4.805848211696889e-15 0 1
  outer loop
    vertex -2.24 0.20800000000000002 -3
    vertex -1.516 1.663 -3
    vertex -2.164 0.616 -3
  endloop
endfacet
facet normal 6.273110991278208e-16 0 1
  outer loop
    vertex -2.24 0.20800000000000002 -3
    vertex -0.8130000000000001 2.098 -3
    vertex -1.516 1.663 -3
  endloop
endfacet
facet normal -3.0241510467704403e-16 0 1
  outer loop
    vertex -2.24 0.20800000000000002 -3
    vertex -0.41300000000000003 -2.212 -3
    vertex 1.516 1.663 -3
  endloop
endfacet
facet normal -8.841898393348853e-17 0 1
  outer loop
    vertex -2.24 0.20800000000000002 -3
    vertex 1.516 1.663 -3
    vertex -0.8130000000000001 2.098 -3
  endloop
endfacet
facet normal -0.9830897197714441 0.18312455564370145 0
  outer loop
    vertex -2.24 0.20800000000000002 3
    vertex -2.24 0.20800000000000002 3.5
    vertex -2.164 0.616 3.5
  endloop
endfacet
facet normal -4.805848211696889e-15 0 -1
  outer loop
    vertex -2.24 0.20800000000000002 3
    vertex -2.164 0.616 3
    vertex -1.516 1.663 3
  endloop
endfacet
facet normal -0.9830897197714445 0.18312455564369978 0
  outer loop
    vertex -2.24 0.20800000000000002 3
    vertex -2.164 0.616 3.5
    vertex -2.164 0.616 3
  endloop
endfacet
facet normal 2.4106460202478677e-15 0 -0.9999999999999999
  outer loop
    vertex -2.24 0.20800000000000002 3
    vertex -1.796 -1.356 3
    vertex -2.0140000000000002 -1.0030000000000001 3
  endloop
endfacet
facet normal -2.94477149350863e-15 0 -1
  outer loop
    vertex -2.24 0.20800000000000002 3
    vertex -1.516 -1.663 3
    vertex -1.796 -1.356 3
  endloop
endfacet
facet normal 6.273110991278208e-16 0 -1
  outer loop
    vertex -2.24 0.20800000000000002 3
    vertex -1.516 1.663 3
    vertex -0.8130000000000001 2.098 3
  endloop
endfacet
facet normal -8.841898393348853e-17 0 -1
  outer loop
    vertex -2.24 0.20800000000000002 3
    vertex -0.8130000000000001 2.098 3
    vertex 1.516 1.663 3
  endloop
endfacet
facet normal 1.8656556473961623e-15 0 -1
  outer loop
    vertex -2.24 0.20800000000000002 3
    vertex -0.41300000000000003 -2.212 3
    vertex -1.516 -1.663 3
  endloop
endfacet
facet normal -3.0241510467704403e-16 0 -1
  outer loop
    vertex -2.24 0.20800000000000002 3
    vertex 1.516 1.663 3
    vertex -0.41300000000000003 -2.212 3
  endloop
endfacet
facet normal 0 0 0.9999999999999999
  outer loop
    vertex -2.24 0.20800000000000002 3.5
    vertex -2.0140000000000002 -1.0030000000000001 3.5
    vertex -1.796 -1.356 3.5
  endloop
endfacet
facet normal 1.472385746754315e-15 0 1
  outer loop
    vertex -2.24 0.20800000000000002 3.5
    vertex -1.796 -1.356 3.5
    vertex -1.516 -1.663 3.5
  endloop
endfacet
facet normal -5.330444706846177e-16 0 1
  outer loop
    vertex -2.24 0.20800000000000002 3.5
    vertex -1.516 -1.663 3.5
    vertex -0.41300000000000003 -2.212 3.5
  endloop
endfacet
facet normal 0 0 1
  outer loop
    vertex -2.24 0.20800000000000002 3.5
    vertex -1.516 1.663 3.5
    vertex -2.164 0.616 3.5
  endloop
endfacet
facet normal 1.2546221982556416e-15 0 1
  outer loop
    vertex -2.24 0.20800000000000002 3.5
    vertex -0.8130000000000001 2.098 3.5
    vertex -1.516 1.663 3.5
  endloop
endfacet
facet normal 0 0 1
  outer loop
    vertex -2.24 0.20800000000000002 3.5
    vertex -0.41300000000000003 -2.212 3.5
    vertex 1.516 1.663 3.5
  endloop
endfacet
facet normal -1.7683796786697706e-16 0 1
  outer loop
    vertex -2.24 0.20800000000000002 3.5
    vertex 1.516 1.663 3.5
    vertex -0.8130000000000001 2.098 3.5
  endloop
endfacet
facet normal -0.8191241123743579 -0.5736163251921274 0
  outer loop
    vertex -2.165 -1.25 -3
    vertex -1.915 -1.607 -3
    vertex -2.165 -1.25 3
  endloop
endfacet
facet normal -0.8191241123743579 -0.5736163251921274 0
  outer loop
    vertex -2.165 -1.25 3
    vertex -1.915 -1.607 -3
    vertex -1.915 -1.607 3
  endloop
endfacet
facet normal -0.8191241123743579 0.5736163251921274 0
  outer loop
    vertex -2.165 1.25 -3
    vertex -2.165 1.25 3
    vertex -1.915 1.607 3
  endloop
endfacet
facet normal -0.8191241123743579 0.5736163251921274 0
  outer loop
    vertex -2.165 1.25 -3
    vertex -1.915 1.607 3
    vertex -1.915 1.607 -3
  endloop
endfacet
facet normal -0.9324110220207001 -0.3613996209382542 0
  outer loop
    vertex -2.164 -0.616 -3.5
    vertex -2.0140000000000002 -1.0030000000000001 -3.5
    vertex -2.164 -0.616 -3
  endloop
endfacet
facet normal -0.932411022020699 -0.36139962093825667 0
  outer loop
    vertex -2.164 -0.616 -3
    vertex -2.0140000000000002 -1.0030000000000001 -3.5
    vertex -2.0140000000000002 -1.0030000000000001 -3
  endloop
endfacet
facet normal -0.9324110220206997 -0.36139962093825484 0
  outer loop
    vertex -2.164 -0.616 3
    vertex -2.0140000000000002 -1.0030000000000001 3
    vertex -2.164 -0.616 3.5
  endloop
endfacet
facet normal -0.9324110220206993 -0.36139962093825595 0
  outer loop
    vertex -2.164 -0.616 3.5
    vertex -2.0140000000000002 -1.0030000000000001 3
    vertex -2.0140000000000002 -1.0030000000000001 3.5
  endloop
endfacet
facet normal -0.9324110220206997 0.36139962093825484 0
  outer loop
    vertex -2.164 0.616 -3.5
    vertex -2.164 0.616 -3
    vertex -2.0140000000000002 1.0030000000000001 -3
  endloop
endfacet
facet normal 1.4135765528713428e-14 0 -1
  outer loop
    vertex -2.164 0.616 -3.5
    vertex -2.0140000000000002 1.0030000000000001 -3.5
    vertex -1.796 1.356 -3.5
  endloop
endfacet
facet normal -0.9324110220206993 0.36139962093825595 0
  outer loop
    vertex -2.164 0.616 -3.5
    vertex -2.0140000000000002 1.0030000000000001 -3
    vertex -2.0140000000000002 1.0030000000000001 -3.5
  endloop
endfacet
facet normal -4.7131220267666705e-15 0 -1
  outer loop
    vertex -2.164 0.616 -3.5
    vertex -1.796 1.356 -3.5
    vertex -1.516 1.663 -3.5
  endloop
endfacet
facet normal -1.4135765528713428e-14 0 1
  outer loop
    vertex -2.164 0.616 -3
    vertex -1.796 1.356 -3
    vertex -2.0140000000000002 1.0030000000000001 -3
  endloop
endfacet
facet normal 9.426244053533341e-15 0 1
  outer loop
    vertex -2.164 0.616 -3
    vertex -1.516 1.663 -3
    vertex -1.796 1.356 -3
  endloop
endfacet
facet normal -0.9324110220207001 0.3613996209382542 0
  outer loop
    vertex -2.164 0.616 3
    vertex -2.164 0.616 3.5
    vertex -2.0140000000000002 1.0030000000000001 3.5
  endloop
endfacet
facet normal -1.4135765528713428e-14 0 -1
  outer loop
    vertex -2.164 0.616 3
    vertex -2.0140000000000002 1.0030000000000001 3
    vertex -1.796 1.356 3
  endloop
endfacet
facet normal -0.932411022020699 0.36139962093825667 0
  outer loop
    vertex -2.164 0.616 3
    vertex -2.0140000000000002 1.0030000000000001 3.5
    vertex -2.0140000000000002 1.0030000000000001 3
  endloop
endfacet
facet normal 9.426244053533341e-15 0 -1
  outer loop
    vertex -2.164 0.616 3
    vertex -1.796 1.356 3
    vertex -1.516 1.663 3
  endloop
endfacet
facet normal 1.4135765528713428e-14 0 1
  outer loop
    vertex -2.164 0.616 3.5
    vertex -1.796 1.356 3.5
    vertex -2.0140000000000002 1.0030000000000001 3.5
  endloop
endfacet
facet normal -4.7131220267666705e-15 0 1
  outer loop
    vertex -2.164 0.616 3.5
    vertex -1.516 1.663 3.5
    vertex -1.796 1.356 3.5
  endloop
endfacet
facet normal -0.850829690195385 -0.5254415650498401 0
  outer loop
    vertex -2.0140000000000002 -1.0030000000000001 -3.5
    vertex -1.796 -1.356 -3.5
    vertex -2.0140000000000002 -1.0030000000000001 -3
  endloop
endfacet
facet normal -0.8508296901953838 -0.5254415650498417 0
  outer loop
    vertex -2.0140000000000002 -1.0030000000000001 -3
    vertex -1.796 -1.356 -3.5
    vertex -1.796 -1.356 -3
  endloop
endfacet
facet normal -0.8508296901953845 -0.5254415650498411 0
  outer loop
    vertex -2.0140000000000002 -1.0030000000000001 3
    vertex -1.796 -1.356 3
    vertex -2.0140000000000002 -1.0030000000000001 3.5
  endloop
endfacet
facet normal -0.8508296901953846 -0.5254415650498409 0
  outer loop
    vertex -2.0140000000000002 -1.0030000000000001 3.5
    vertex -1.796 -1.356 3
    vertex -1.796 -1.356 3.5
  endloop
endfacet
facet normal -0.8508296901953845 0.5254415650498411 0
  outer loop
    vertex -2.0140000000000002 1.0030000000000001 -3.5
    vertex -2.0140000000000002 1.0030000000000001 -3
    vertex -1.796 1.356 -3
  endloop
endfacet
facet normal -0.8508296901953846 0.5254415650498409 0
  outer loop
    vertex -2.0140000000000002 1.0030000000000001 -3.5
    vertex -1.796 1.356 -3
    vertex -1.796 1.356 -3.5
  endloop
endfacet
facet normal -0.850829690195385 0.5254415650498401 0
  outer loop
    vertex -2.0140000000000002 1.0030000000000001 3
    vertex -2.0140000000000002 1.0030000000000001 3.5
    vertex -1.796 1.356 3.5
  endloop
endfacet
facet normal -0.8508296901953838 0.5254415650498417 0
  outer loop
    vertex -2.0140000000000002 1.0030000000000001 3
    vertex -1.796 1.356 3.5
    vertex -1.796 1.356 3
  endloop
endfacet
facet normal -0.7071067811865478 -0.7071067811865472 0
  outer loop
    vertex -1.915 -1.607 -3
    vertex -1.607 -1.915 -3
    vertex -1.915 -1.607 3
  endloop
endfacet
facet normal 0 0 -1
  outer loop
    vertex -1.915 -1.607 -3
    vertex -1.25 -2.165 -3
    vertex -1.607 -1.915 -3
  endloop
endfacet
facet normal -0.7071067811865471 -0.707106781186548 0
  outer loop
    vertex -1.915 -1.607 3
    vertex -1.607 -1.915 -3
    vertex -1.607 -1.915 3
  endloop
endfacet
facet normal 0 0 1
  outer loop
    vertex -1.915 -1.607 3
    vertex -1.607 -1.915 3
    vertex -1.25 -2.165 3
  endloop
endfacet
facet normal -0.7071067811865478 0.7071067811865472 0
  outer loop
    vertex -1.915 1.607 -3
    vertex -1.915 1.607 3
    vertex -1.607 1.915 3
  endloop
endfacet
facet normal 0 0 -1
  outer loop
    vertex -1.915 1.607 -3
    vertex -1.607 1.915 -3
    vertex -1.25 2.165 -3
  endloop
endfacet
facet normal -0.7071067811865471 0.707106781186548 0
  outer loop
    vertex -1.915 1.607 -3
    vertex -1.607 1.915 3
    vertex -1.607 1.915 -3
  endloop
endfacet
facet normal -4.52921172718064e-15 0 -1
  outer loop
    vertex -1.915 1.607 -3
    vertex -1.25 2.165 -3
    vertex -0.855 2.349 -3
  endloop
endfacet
facet normal 1.0615788287449917e-15 0 -1
  outer loop
    vertex -1.915 1.607 -3
    vertex -0.855 2.349 -3
    vertex 0.434 2.462 -3
  endloop
endfacet
facet normal -3.7678571942341095e-16 0 -0.9999999999999999
  outer loop
    vertex -1.915 1.607 -3
    vertex 0.434 2.462 -3
    vertex -1.25 -2.165 -3
  endloop
endfacet
facet normal -3.7678571942341095e-16 0 0.9999999999999999
  outer loop
    vertex -1.915 1.607 3
    vertex -1.25 -2.165 3
    vertex 0.434 2.462 3
  endloop
endfacet
facet normal 0 0 1
  outer loop
    vertex -1.915 1.607 3
    vertex -1.25 2.165 3
    vertex -1.607 1.915 3
  endloop
endfacet
facet normal -4.52921172718064e-15 0 1
  outer loop
    vertex -1.915 1.607 3
    vertex -0.855 2.349 3
    vertex -1.25 2.165 3
  endloop
endfacet
facet normal 1.0615788287449917e-15 0 1
  outer loop
    vertex -1.915 1.607 3
    vertex 0.434 2.462 3
    vertex -0.855 2.349 3
  endloop
endfacet
facet normal -0.7388501092400482 -0.6738698064730079 0
  outer loop
    vertex -1.796 -1.356 -3.5
    vertex -1.516 -1.663 -3.5
    vertex -1.796 -1.356 -3
  endloop
endfacet
facet normal -0.7388501092400476 -0.6738698064730083 0
  outer loop
    vertex -1.796 -1.356 -3
    vertex -1.516 -1.663 -3.5
    vertex -1.516 -1.663 -3
  endloop
endfacet
facet normal -0.7388501092400482 -0.6738698064730079 0
  outer loop
    vertex -1.796 -1.356 3
    vertex -1.516 -1.663 3
    vertex -1.796 -1.356 3.5
  endloop
endfacet
facet normal -0.7388501092400476 -0.6738698064730083 0
  outer loop
    vertex -1.796 -1.356 3.5
    vertex -1.516 -1.663 3
    vertex -1.516 -1.663 3.5
  endloop
endfacet
facet normal -0.7388501092400482 0.6738698064730079 0
  outer loop
    vertex -1.796 1.356 -3.5
    vertex -1.796 1.356 -3
    vertex -1.516 1.663 -3
  endloop
endfacet
facet normal -0.7388501092400476 0.6738698064730083 0
  outer loop
    vertex -1.796 1.356 -3.5
    vertex -1.516 1.663 -3
    vertex -1.516 1.663 -3.5
  endloop
endfacet
facet normal -0.7388501092400482 0.6738698064730079 0
  outer loop
    vertex -1.796 1.356 3
    vertex -1.796 1.356 3.5
    vertex -1.516 1.663 3.5
  endloop
endfacet
facet normal -0.7388501092400476 0.6738698064730083 0
  outer loop
    vertex -1.796 1.356 3
    vertex -1.516 1.663 3.5
    vertex -1.516 1.663 3
  endloop
endfacet
facet normal -0.573616325192128 -0.8191241123743573 0
  outer loop
    vertex -1.607 -1.915 -3
    vertex -1.25 -2.165 -3
    vertex -1.607 -1.915 3
  endloop
endfacet
facet normal -0.5736163251921268 -0.8191241123743582 0
  outer loop
    vertex -1.607 -1.915 3
    vertex -1.25 -2.165 -3
    vertex -1.25 -2.165 3
  endloop
endfacet
facet normal -0.573616325192128 0.8191241123743573 0
  outer loop
    vertex -1.607 1.915 -3
    vertex -1.607 1.915 3
    vertex -1.25 2.165 3
  endloop
endfacet
facet normal -0.5736163251921268 0.8191241123743582 0
  outer loop
    vertex -1.607 1.915 -3
    vertex -1.25 2.165 3
    vertex -1.25 2.165 -3
  endloop
endfacet
facet normal -0.6015388277981244 -0.7988435633159089 0
  outer loop
    vertex -1.516 -1.663 -3.5
    vertex -1.184 -1.913 -3.5
    vertex -1.516 -1.663 -3
  endloop
endfacet
facet normal 0 0 -1
  outer loop
    vertex -1.516 -1.663 -3.5
    vertex -0.41300000000000003 -2.212 -3.5
    vertex -1.184 -1.913 -3.5
  endloop
endfacet
facet normal -0.6015388277981238 -0.7988435633159092 0
  outer loop
    vertex -1.516 -1.663 -3
    vertex -1.184 -1.913 -3.5
    vertex -1.184 -1.913 -3
  endloop
endfacet
facet normal 0 0 1
  outer loop
    vertex -1.516 -1.663 -3
    vertex -1.184 -1.913 -3
    vertex -0.41300000000000003 -2.212 -3
  endloop
endfacet
facet normal -0.6015388277981244 -0.7988435633159089 0
  outer loop
    vertex -1.516 -1.663 3
    vertex -1.184 -1.913 3
    vertex -1.516 -1.663 3.5
  endloop
endfacet
facet normal 0 0 -1
  outer loop
    vertex -1.516 -1.663 3
    vertex -0.41300000000000003 -2.212 3
    vertex -1.184 -1.913 3
  endloop
endfacet
facet normal -0.6015388277981238 -0.7988435633159092 0
  outer loop
    vertex -1.516 -1.663 3.5
    vertex -1.184 -1.913 3
    vertex -1.184 -1.913 3.5
  endloop
endfacet
facet normal 0 0 1
  outer loop
    vertex -1.516 -1.663 3.5
    vertex -1.184 -1.913 3.5
    vertex -0.41300000000000003 -2.212 3.5
  endloop
endfacet
facet normal -0.6015388277981244 0.7988435633159089 0
  outer loop
    vertex -1.516 1.663 -3.5
    vertex -1.516 1.663 -3
    vertex -1.184 1.913 -3
  endloop
endfacet
facet normal -7.0872839107894135e-15 0 -1
  outer loop
    vertex -1.516 1.663 -3.5
    vertex -1.184 1.913 -3.5
    vertex -0.8130000000000001 2.098 -3.5
  endloop
endfacet
facet normal -0.6015388277981238 0.7988435633159092 0
  outer loop
    vertex -1.516 1.663 -3.5
    vertex -1.184 1.913 -3
    vertex -1.184 1.913 -3.5
  endloop
endfacet
facet normal 0 0 1
  outer loop
    vertex -1.516 1.663 -3
    vertex -0.8130000000000001 2.098 -3
    vertex -1.184 1.913 -3
  endloop
endfacet
facet normal -0.6015388277981244 0.7988435633159089 0
  outer loop
    vertex -1.516 1.663 3
    vertex -1.516 1.663 3.5
    vertex -1.184 1.913 3.5
  endloop
endfacet
facet normal 0 0 -1
  outer loop
    vertex -1.516 1.663 3
    vertex -1.184 1.913 3
    vertex -0.8130000000000001 2.098 3
  endloop
endfacet
facet normal -0.6015388277981238 0.7988435633159092 0
  outer loop
    vertex -1.516 1.663 3
    vertex -1.184 1.913 3.5
    vertex -1.184 1.913 3
  endloop
endfacet
facet normal -7.0872839107894135e-15 0 1
  outer loop
    vertex -1.516 1.663 3.5
    vertex -0.8130000000000001 2.098 3.5
    vertex -1.184 1.913 3.5
  endloop
endfacet
facet normal -0.42225720421035995 -0.9064760633863701 0
  outer loop
    vertex -1.25 -2.165 -3
    vertex -0.855 -2.349 -3
    vertex -1.25 -2.165 3
  endloop
endfacet
facet normal 2.49131068986783e-16 0 -0.9999999999999999
  outer loop
    vertex -1.25 -2.165 -3
    vertex 0.434 2.462 -3
    vertex 2.462 -0.434 -3
  endloop
endfacet
facet normal 0 0 -1
  outer loop
    vertex -1.25 -2.165 -3
    vertex 1.607 -1.915 -3
    vertex -0.855 -2.349 -3
  endloop
endfacet
facet normal 0 0 -1
  outer loop
    vertex -1.25 -2.165 -3
    vertex 2.462 -0.434 -3
    vertex 1.607 -1.915 -3
  endloop
endfacet
facet normal -0.42225720421036017 -0.90647606338637 0
  outer loop
    vertex -1.25 -2.165 3
    vertex -0.855 -2.349 -3
    vertex -0.855 -2.349 3
  endloop
endfacet
facet normal 0 0 1
  outer loop
    vertex -1.25 -2.165 3
    vertex -0.855 -2.349 3
    vertex 1.607 -1.915 3
  endloop
endfacet
facet normal 0 0 1
  outer loop
    vertex -1.25 -2.165 3
    vertex 1.607 -1.915 3
    vertex 2.462 -0.434 3
  endloop
endfacet
facet normal 2.49131068986783e-16 0 0.9999999999999999
  outer loop
    vertex -1.25 -2.165 3
    vertex 2.462 -0.434 3
    vertex 0.434 2.462 3
  endloop
endfacet
facet normal -0.42225720421035995 0.9064760633863701 0
  outer loop
    vertex -1.25 2.165 -3
    vertex -1.25 2.165 3
    vertex -0.855 2.349 3
  endloop
endfacet
facet normal -0.42225720421036017 0.90647606338637 0
  outer loop
    vertex -1.25 2.165 -3
    vertex -0.855 2.349 3
    vertex -0.855 2.349 -3
  endloop
endfacet
facet normal -0.4462484737244462 -0.8949091013609162 0
  outer loop
    vertex -1.184 -1.913 -3.5
    vertex -0.8130000000000001 -2.098 -3.5
    vertex -1.184 -1.913 -3
  endloop
endfacet
facet normal 7.0032361359058605e-15 0 -1
  outer loop
    vertex -1.184 -1.913 -3.5
    vertex -0.41300000000000003 -2.212 -3.5
    vertex -0.8130000000000001 -2.098 -3.5
  endloop
endfacet
facet normal -0.44624847372444554 -0.8949091013609164 0
  outer loop
    vertex -1.184 -1.913 -3
    vertex -0.8130000000000001 -2.098 -3.5
    vertex -0.8130000000000001 -2.098 -3
  endloop
endfacet
facet normal 0 0 1
  outer loop
    vertex -1.184 -1.913 -3
    vertex -0.8130000000000001 -2.098 -3
    vertex -0.41300000000000003 -2.212 -3
  endloop
endfacet
facet normal -0.44624847372444526 -0.8949091013609165 0
  outer loop
    vertex -1.184 -1.913 3
    vertex -0.8130000000000001 -2.098 3
    vertex -1.184 -1.913 3.5
  endloop
endfacet
facet normal 0 0 -1
  outer loop
    vertex -1.184 -1.913 3
    vertex -0.41300000000000003 -2.212 3
    vertex -0.8130000000000001 -2.098 3
  endloop
endfacet
facet normal -0.44624847372444637 -0.894909101360916 0
  outer loop
    vertex -1.184 -1.913 3.5
    vertex -0.8130000000000001 -2.098 3
    vertex -0.8130000000000001 -2.098 3.5
  endloop
endfacet
facet normal 7.0032361359058605e-15 0 1
  outer loop
    vertex -1.184 -1.913 3.5
    vertex -0.8130000000000001 -2.098 3.5
    vertex -0.41300000000000003 -2.212 3.5
  endloop
endfacet
facet normal -0.44624847372444526 0.8949091013609165 0
  outer loop
    vertex -1.184 1.913 -3.5
    vertex -1.184 1.913 -3
    vertex -0.8130000000000001 2.098 -3
  endloop
endfacet
facet normal -0.44624847372444637 0.894909101360916 0
  outer loop
    vertex -1.184 1.913 -3.5
    vertex -0.8130000000000001 2.098 -3
    vertex -0.8130000000000001 2.098 -3.5
  endloop
endfacet
facet normal -0.4462484737244462 0.8949091013609162 0
  outer loop
    vertex -1.184 1.913 3
    vertex -1.184 1.913 3.5
    vertex -0.8130000000000001 2.098 3.5
  endloop
endfacet
facet normal -0.44624847372444554 0.8949091013609164 0
  outer loop
    vertex -1.184 1.913 3
    vertex -0.8130000000000001 2.098 3.5
    vertex -0.8130000000000001 2.098 3
  endloop
endfacet
facet normal -0.2592329574435618 -0.9658148237499072 0
  outer loop
    vertex -0.855 -2.349 -3
    vertex -0.434 -2.462 -3
    vertex -0.855 -2.349 3
  endloop
endfacet
facet normal 0 0 -0.9999999999999999
  outer loop
    vertex -0.855 -2.349 -3
    vertex 1.607 -1.915 -3
    vertex -0.434 -2.462 -3
  endloop
endfacet
facet normal -0.2592329574435618 -0.9658148237499072 0
  outer loop
    vertex -0.855 -2.349 3
    vertex -0.434 -2.462 -3
    vertex -0.434 -2.462 3
  endloop
endfacet
facet normal 0 0 0.9999999999999999
  outer loop
    vertex -0.855 -2.349 3
    vertex -0.434 -2.462 3
    vertex 1.607 -1.915 3
  endloop
endfacet
facet normal -0.2592329574435618 0.9658148237499072 0
  outer loop
    vertex -0.855 2.349 -3
    vertex -0.855 2.349 3
    vertex -0.434 2.462 3
  endloop
endfacet
facet normal 0 0 -1
  outer loop
    vertex -0.855 2.349 -3
    vertex -0.434 2.462 -3
    vertex 0 2.5 -3
  endloop
endfacet
facet normal -0.2592329574435618 0.9658148237499072 0
  outer loop
    vertex -0.855 2.349 -3
    vertex -0.434 2.462 3
    vertex -0.434 2.462 -3
  endloop
endfacet
facet normal 0 0 -1
  outer loop
    vertex -0.855 2.349 -3
    vertex 0 2.5 -3
    vertex 0.434 2.462 -3
  endloop
endfacet
facet normal 0 0 1
  outer loop
    vertex -0.855 2.349 3
    vertex 0 2.5 3
    vertex -0.434 2.462 3
  endloop
endfacet
facet normal 0 0 1
  outer loop
    vertex -0.855 2.349 3
    vertex 0.434 2.462 3
    vertex 0 2.5 3
  endloop
endfacet
facet normal -0.2740859796379353 -0.9617051917120513 0
  outer loop
    vertex -0.8130000000000001 -2.098 -3.5
    vertex -0.41300000000000003 -2.212 -3.5
    vertex -0.8130000000000001 -2.098 -3
  endloop
endfacet
facet normal -0.27408597963793546 -0.9617051917120513 0
  outer loop
    vertex -0.8130000000000001 -2.098 -3
    vertex -0.41300000000000003 -2.212 -3.5
    vertex -0.41300000000000003 -2.212 -3
  endloop
endfacet
facet normal -0.2740859796379353 -0.9617051917120513 0
  outer loop
    vertex -0.8130000000000001 -2.098 3
    vertex -0.41300000000000003 -2.212 3
    vertex -0.8130000000000001 -2.098 3.5
  endloop
endfacet
facet normal -0.27408597963793546 -0.9617051917120513 0
  outer loop
    vertex -0.8130000000000001 -2.098 3.5
    vertex -0.41300000000000003 -2.212 3
    vertex -0.41300000000000003 -2.212 3.5
  endloop
endfacet
facet normal -0.2740859796379353 0.9617051917120513 0
  outer loop
    vertex -0.8130000000000001 2.098 -3.5
    vertex -0.8130000000000001 2.098 -3
    vertex -0.41300000000000003 2.212 -3
  endloop
endfacet
facet normal 0 0 -1
  outer loop
    vertex -0.8130000000000001 2.098 -3.5
    vertex -0.41300000000000003 2.212 -3.5
    vertex 0 2.25 -3.5
  endloop
endfacet
facet normal -0.27408597963793546 0.9617051917120513 0
  outer loop
    vertex -0.8130000000000001 2.098 -3.5
    vertex -0.41300000000000003 2.212 -3
    vertex -0.41300000000000003 2.212 -3.5
  endloop
endfacet
facet normal 0 0 -1
  outer loop
    vertex -0.8130000000000001 2.098 -3.5
    vertex 0 2.25 -3.5
    vertex 1.516 1.663 -3.5
  endloop
endfacet
facet normal 0 0 1
  outer loop
    vertex -0.8130000000000001 2.098 -3
    vertex 0 2.25 -3
    vertex -0.41300000000000003 2.212 -3
  endloop
endfacet
facet normal 0 0 1
  outer loop
    vertex -0.8130000000000001 2.098 -3
    vertex 1.516 1.663 -3
    vertex 0 2.25 -3
  endloop
endfacet
facet normal -0.2740859796379353 0.9617051917120513 0
  outer loop
    vertex -0.8130000000000001 2.098 3
    vertex -0.8130000000000001 2.098 3.5
    vertex -0.41300000000000003 2.212 3.5
  endloop
endfacet
facet normal 0 0 -1
  outer loop
    vertex -0.8130000000000001 2.098 3
    vertex -0.41300000000000003 2.212 3
    vertex 0 2.25 3
  endloop
endfacet
facet normal -0.27408597963793546 0.9617051917120513 0
  outer loop
    vertex -0.8130000000000001 2.098 3
    vertex -0.41300000000000003 2.212 3.5
    vertex -0.41300000000000003 2.212 3
  endloop
endfacet
facet normal 0 0 -1
  outer loop
    vertex -0.8130000000000001 2.098 3
    vertex 0 2.25 3
    vertex 1.516 1.663 3
  endloop
endfacet
facet normal 0 0 1
  outer loop
    vertex -0.8130000000000001 2.098 3.5
    vertex 0 2.25 3.5
    vertex -0.41300000000000003 2.212 3.5
  endloop
endfacet
facet normal 0 0 1
  outer loop
    vertex -0.8130000000000001 2.098 3.5
    vertex 1.516 1.663 3.5
    vertex 0 2.25 3.5
  endloop
endfacet
facet normal -0.08722389827292841 -0.9961887329066084 0
  outer loop
    vertex -0.434 -2.462 -3
    vertex 0 -2.5 -3
    vertex -0.434 -2.462 3
  endloop
endfacet
facet normal 0 0 -1
  outer loop
    vertex -0.434 -2.462 -3
    vertex 1.607 -1.915 -3
    vertex 0 -2.5 -3
  endloop
endfacet
facet normal -0.08722389827292841 -0.9961887329066084 0
  outer loop
    vertex -0.434 -2.462 3
    vertex 0 -2.5 -3
    vertex 0 -2.5 3
  endloop
endfacet
facet normal 0 0 1
  outer loop
    vertex -0.434 -2.462 3
    vertex 0 -2.5 3
    vertex 1.607 -1.915 3
  endloop
endfacet
facet normal -0.08722389827292841 0.9961887329066084 0
  outer loop
    vertex -0.434 2.462 -3
    vertex -0.434 2.462 3
    vertex 0 2.5 3
  endloop
endfacet
facet normal -0.08722389827292841 0.9961887329066084 0
  outer loop
    vertex -0.434 2.462 -3
    vertex 0 2.5 3
    vertex 0 2.5 -3
  endloop
endfacet
facet normal -0.09162267379303479 -0.9957937967506201 0
  outer loop
    vertex -0.41300000000000003 -2.212 -3.5
    vertex 0 -2.25 -3.5
    vertex -0.41300000000000003 -2.212 -3
  endloop
endfacet
facet normal 0 0 -1
  outer loop
    vertex -0.41300000000000003 -2.212 -3.5
    vertex 0.41300000000000003 -2.212 -3.5
    vertex 0 -2.25 -3.5
  endloop
endfacet
facet normal 0 0 -1
  outer loop
    vertex -0.41300000000000003 -2.212 -3.5
    vertex 0.8130000000000001 -2.098 -3.5
    vertex 0.41300000000000003 -2.212 -3.5
  endloop
endfacet
facet normal 0 0 -1
  outer loop
    vertex -0.41300000000000003 -2.212 -3.5
    vertex 1.516 1.663 -3.5
    vertex 2.164 -0.616 -3.5
  endloop
endfacet
facet normal 0 0 -1
  outer loop
    vertex -0.41300000000000003 -2.212 -3.5
    vertex 2.164 -0.616 -3.5
    vertex 0.8130000000000001 -2.098 -3.5
  endloop
endfacet
facet normal -0.09162267379303479 -0.9957937967506201 0
  outer loop
    vertex -0.41300000000000003 -2.212 -3
    vertex 0 -2.25 -3.5
    vertex 0 -2.25 -3
  endloop
endfacet
facet normal 0 0 1
  outer loop
    vertex -0.41300000000000003 -2.212 -3
    vertex 0 -2.25 -3
    vertex 0.41300000000000003 -2.212 -3
  endloop
endfacet
facet normal 0 0 1
  outer loop
    vertex -0.41300000000000003 -2.212 -3
    vertex 0.41300000000000003 -2.212 -3
    vertex 0.8130000000000001 -2.098 -3
  endloop
endfacet
facet normal 0 0 1
  outer loop
    vertex -0.41300000000000003 -2.212 -3
    vertex 0.8130000000000001 -2.098 -3
    vertex 2.164 -0.616 -3
  endloop
endfacet
facet normal 0 0 1
  outer loop
    vertex -0.41300000000000003 -2.212 -3
    vertex 2.164 -0.616 -3
    vertex 1.516 1.663 -3
  endloop
endfacet
facet normal -0.09162267379303479 -0.9957937967506201 0
  outer loop
    vertex -0.41300000000000003 -2.212 3
    vertex 0 -2.25 3
    vertex -0.41300000000000003 -2.212 3.5
  endloop
endfacet
facet normal 0 0 -1
  outer loop
    vertex -0.41300000000000003 -2.212 3
    vertex 0.41300000000000003 -2.212 3
    vertex 0 -2.25 3
  endloop
endfacet
facet normal 0 0 -1
  outer loop
    vertex -0.41300000000000003 -2.212 3
    vertex 0.8130000000000001 -2.098 3
    vertex 0.41300000000000003 -2.212 3
  endloop
endfacet
facet normal 0 0 -1
  outer loop
    vertex -0.41300000000000003 -2.212 3
    vertex 1.516 1.663 3
    vertex 2.164 -0.616 3
  endloop
endfacet
facet normal 0 0 -1
  outer loop
    vertex -0.41300000000000003 -2.212 3
    vertex 2.164 -0.616 3
    vertex 0.8130000000000001 -2.098 3
  endloop
endfacet
facet normal -0.09162267379303479 -0.9957937967506201 0
  outer loop
    vertex -0.41300000000000003 -2.212 3.5
    vertex 0 -2.25 3
    vertex 0 -2.25 3.5
  endloop
endfacet
facet normal 0 0 1
  outer loop
    vertex -0.41300000000000003 -2.212 3.5
    vertex 0 -2.25 3.5
    vertex 0.41300000000000003 -2.212 3.5
  endloop
endfacet
facet normal 0 0 1
  outer loop
    vertex -0.41300000000000003 -2.212 3.5
    vertex 0.41300000000000003 -2.212 3.5
    vertex 0.8130000000000001 -2.098 3.5
  endloop
endfacet
facet normal 0 0 1
  outer loop
    vertex -0.41300000000000003 -2.212 3.5
    vertex 0.8130000000000001 -2.098 3.5
    vertex 2.164 -0.616 3.5
  endloop
endfacet
facet normal 0 0 1
  outer loop
    vertex -0.41300000000000003 -2.212 3.5
    vertex 2.164 -0.616 3.5
    vertex 1.516 1.663 3.5
  endloop
endfacet
facet normal -0.09162267379303479 0.9957937967506201 0
  outer loop
    vertex -0.41300000000000003 2.212 -3.5
    vertex -0.41300000000000003 2.212 -3
    vertex 0 2.25 -3
  endloop
endfacet
facet normal -0.09162267379303479 0.9957937967506201 0
  outer loop
    vertex -0.41300000000000003 2.212 -3.5
    vertex 0 2.25 -3
    vertex 0 2.25 -3.5
  endloop
endfacet
facet normal -0.09162267379303479 0.9957937967506201 0
  outer loop
    vertex -0.41300000000000003 2.212 3
    vertex -0.41300000000000003 2.212 3.5
    vertex 0 2.25 3.5
  endloop
endfacet
facet normal -0.09162267379303479 0.9957937967506201 0
  outer loop
    vertex -0.41300000000000003 2.212 3
    vertex 0 2.25 3.5
    vertex 0 2.25 3
  endloop
endfacet
facet normal 0.08722389827292841 -0.9961887329066084 0
  outer loop
    vertex 0 -2.5 -3
    vertex 0.434 -2.462 -3
    vertex 0 -2.5 3
  endloop
endfacet
facet normal 0 0 -1
  outer loop
    vertex 0 -2.5 -3
    vertex 1.607 -1.915 -3
    vertex 0.434 -2.462 -3
  endloop
endfacet
facet normal 0.08722389827292841 -0.9961887329066084 0
  outer loop
    vertex 0 -2.5 3
    vertex 0.434 -2.462 -3
    vertex 0.434 -2.462 3
  endloop
endfacet
facet normal 0 0 1
  outer loop
    vertex 0 -2.5 3
    vertex 0.434 -2.462 3
    vertex 1.607 -1.915 3
  endloop
endfacet
facet normal 0.09162267379303479 -0.9957937967506201 0
  outer loop
    vertex 0 -2.25 -3.5
    vertex 0.41300000000000003 -2.212 -3.5
    vertex 0 -2.25 -3
  endloop
endfacet
facet normal 0.09162267379303479 -0.9957937967506201 0
  outer loop
    vertex 0 -2.25 -3
    vertex 0.41300000000000003 -2.212 -3.5
    vertex 0.41300000000000003 -2.212 -3
  endloop
endfacet
facet normal 0.09162267379303479 -0.9957937967506201 0
  outer loop
    vertex 0 -2.25 3
    vertex 0.41300000000000003 -2.212 3
    vertex 0 -2.25 3.5
  endloop
endfacet
facet normal 0.09162267379303479 -0.9957937967506201 0
  outer loop
    vertex 0 -2.25 3.5
    vertex 0.41300000000000003 -2.212 3
    vertex 0.41300000000000003 -2.212 3.5
  endloop
endfacet
facet normal 0.09162267379303479 0.9957937967506201 0
  outer loop
    vertex 0 2.25 -3.5
    vertex 0 2.25 -3
    vertex 0.41300000000000003 2.212 -3
  endloop
endfacet
facet normal 4.714873391267179e-15 0 -1
  outer loop
    vertex 0 2.25 -3.5
    vertex 0.41300000000000003 2.212 -3.5
    vertex 1.184 1.913 -3.5
  endloop
endfacet
facet normal 0.09162267379303479 0.9957937967506201 0
  outer loop
    vertex 0 2.25 -3.5
    vertex 0.41300000000000003 2.212 -3
    vertex 0.41300000000000003 2.212 -3.5
  endloop
endfacet
facet normal 0 0 -0.9999999999999999
  outer loop
    vertex 0 2.25 -3.5
    vertex 1.184 1.913 -3.5
    vertex 1.516 1.663 -3.5
  endloop
endfacet
facet normal 0 0 1
  outer loop
    vertex 0 2.25 -3
    vertex 1.184 1.913 -3
    vertex 0.41300000000000003 2.212 -3
  endloop
endfacet
facet normal 0 0 0.9999999999999999
  outer loop
    vertex 0 2.25 -3
    vertex 1.516 1.663 -3
    vertex 1.184 1.913 -3
  endloop
endfacet
facet normal 0.09162267379303479 0.9957937967506201 0
  outer loop
    vertex 0 2.25 3
    vertex 0 2.25 3.5
    vertex 0.41300000000000003 2.212 3.5
  endloop
endfacet
facet normal 0 0 -1
  outer loop
    vertex 0 2.25 3
    vertex 0.41300000000000003 2.212 3
    vertex 1.184 1.913 3
  endloop
endfacet
facet normal 0.09162267379303479 0.9957937967506201 0
  outer loop
    vertex 0 2.25 3
    vertex 0.41300000000000003 2.212 3.5
    vertex 0.41300000000000003 2.212 3
  endloop
endfacet
facet normal 0 0 -0.9999999999999999
  outer loop
    vertex 0 2.25 3
    vertex 1.184 1.913 3
    vertex 1.516 1.663 3
  endloop
endfacet
facet normal 4.714873391267179e-15 0 1
  outer loop
    vertex 0 2.25 3.5
    vertex 1.184 1.913 3.5
    vertex 0.41300000000000003 2.212 3.5
  endloop
endfacet
facet normal 0 0 0.9999999999999999
  outer loop
    vertex 0 2.25 3.5
    vertex 1.516 1.663 3.5
    vertex 1.184 1.913 3.5
  endloop
endfacet
facet normal 0.08722389827292841 0.9961887329066084 0
  outer loop
    vertex 0 2.5 -3
    vertex 0 2.5 3
    vertex 0.434 2.462 3
  endloop
endfacet
facet normal 0.08722389827292841 0.9961887329066084 0
  outer loop
    vertex 0 2.5 -3
    vertex 0.434 2.462 3
    vertex 0.434 2.462 -3
  endloop
endfacet
facet normal 0.27408597963793546 -0.9617051917120513 0
  outer loop
    vertex 0.41300000000000003 -2.212 -3.5
    vertex 0.8130000000000001 -2.098 -3.5
    vertex 0.41300000000000003 -2.212 -3
  endloop
endfacet
facet normal 0.2740859796379353 -0.9617051917120513 0
  outer loop
    vertex 0.41300000000000003 -2.212 -3
    vertex 0.8130000000000001 -2.098 -3.5
    vertex 0.8130000000000001 -2.098 -3
  endloop
endfacet
facet normal 0.27408597963793546 -0.9617051917120513 0
  outer loop
    vertex 0.41300000000000003 -2.212 3
    vertex 0.8130000000000001 -2.098 3
    vertex 0.41300000000000003 -2.212 3.5
  endloop
endfacet
facet normal 0.2740859796379353 -0.9617051917120513 0
  outer loop
    vertex 0.41300000000000003 -2.212 3.5
    vertex 0.8130000000000001 -2.098 3
    vertex 0.8130000000000001 -2.098 3.5
  endloop
endfacet
facet normal 0.27408597963793546 0.9617051917120513 0
  outer loop
    vertex 0.41300000000000003 2.212 -3.5
    vertex 0.41300000000000003 2.212 -3
    vertex 0.8130000000000001 2.098 -3
  endloop
endfacet
facet normal -7.0032361359058605e-15 0 -1
  outer loop
    vertex 0.41300000000000003 2.212 -3.5
    vertex 0.8130000000000001 2.098 -3.5
    vertex 1.184 1.913 -3.5
  endloop
endfacet
facet normal 0.2740859796379353 0.9617051917120513 0
  outer loop
    vertex 0.41300000000000003 2.212 -3.5
    vertex 0.8130000000000001 2.098 -3
    vertex 0.8130000000000001 2.098 -3.5
  endloop
endfacet
facet normal 0 0 1
  outer loop
    vertex 0.41300000000000003 2.212 -3
    vertex 1.184 1.913 -3
    vertex 0.8130000000000001 2.098 -3
  endloop
endfacet
facet normal 0.27408597963793546 0.9617051917120513 0
  outer loop
    vertex 0.41300000000000003 2.212 3
    vertex 0.41300000000000003 2.212 3.5
    vertex 0.8130000000000001 2.098 3.5
  endloop
endfacet
facet normal 0 0 -1
  outer loop
    vertex 0.41300000000000003 2.212 3
    vertex 0.8130000000000001 2.098 3
    vertex 1.184 1.913 3
  endloop
endfacet
facet normal 0.2740859796379353 0.9617051917120513 0
  outer loop
    vertex 0.41300000000000003 2.212 3
    vertex 0.8130000000000001 2.098 3.5
    vertex 0.8130000000000001 2.098 3
  endloop
endfacet
facet normal -7.0032361359058605e-15 0 1
  outer loop
    vertex 0.41300000000000003 2.212 3.5
    vertex 1.184 1.913 3.5
    vertex 0.8130000000000001 2.098 3.5
  endloop
endfacet
facet normal 0.2592329574435618 -0.9658148237499072 0
  outer loop
    vertex 0.434 -2.462 -3
    vertex 0.855 -2.349 -3
    vertex 0.434 -2.462 3
  endloop
endfacet
facet normal 0 0 -1
  outer loop
    vertex 0.434 -2.462 -3
    vertex 1.25 -2.165 -3
    vertex 0.855 -2.349 -3
  endloop
endfacet
facet normal 0 0 -1
  outer loop
    vertex 0.434 -2.462 -3
    vertex 1.607 -1.915 -3
    vertex 1.25 -2.165 -3
  endloop
endfacet
facet normal 0.2592329574435618 -0.9658148237499072 0
  outer loop
    vertex 0.434 -2.462 3
    vertex 0.855 -2.349 -3
    vertex 0.855 -2.349 3
  endloop
endfacet
facet normal 0 0 1
  outer loop
    vertex 0.434 -2.462 3
    vertex 0.855 -2.349 3
    vertex 1.25 -2.165 3
  endloop
endfacet
facet normal 0 0 1
  outer loop
    vertex 0.434 -2.462 3
    vertex 1.25 -2.165 3
    vertex 1.607 -1.915 3
  endloop
endfacet
facet normal 0.2592329574435618 0.9658148237499072 0
  outer loop
    vertex 0.434 2.462 -3
    vertex 0.434 2.462 3
    vertex 0.855 2.349 3
  endloop
endfacet
facet normal 0 0 -1
  outer loop
    vertex 0.434 2.462 -3
    vertex 0.855 2.349 -3
    vertex 1.607 1.915 -3
  endloop
endfacet
facet normal 0.2592329574435618 0.9658148237499072 0
  outer loop
    vertex 0.434 2.462 -3
    vertex 0.855 2.349 3
    vertex 0.855 2.349 -3
  endloop
endfacet
facet normal -2.303271699566724e-15 0 -1
  outer loop
    vertex 0.434 2.462 -3
    vertex 1.607 1.915 -3
    vertex 1.915 1.607 -3
  endloop
endfacet
facet normal 6.952374993543145e-16 0 -1
  outer loop
    vertex 0.434 2.462 -3
    vertex 1.915 1.607 -3
    vertex 2.462 -0.434 -3
  endloop
endfacet
facet normal 0 0 1
  outer loop
    vertex 0.434 2.462 3
    vertex 1.607 1.915 3
    vertex 0.855 2.349 3
  endloop
endfacet
facet normal -2.303271699566724e-15 0 1
  outer loop
    vertex 0.434 2.462 3
    vertex 1.915 1.607 3
    vertex 1.607 1.915 3
  endloop
endfacet
facet normal 6.952374993543145e-16 0 1
  outer loop
    vertex 0.434 2.462 3
    vertex 2.462 -0.434 3
    vertex 1.915 1.607 3
  endloop
endfacet
facet normal 0.44624847372444637 -0.894909101360916 0
  outer loop
    vertex 0.8130000000000001 -2.098 -3.5
    vertex 1.184 -1.913 -3.5
    vertex 0.8130000000000001 -2.098 -3
  endloop
endfacet
facet normal 7.0872839107894135e-15 0 -1
  outer loop
    vertex 0.8130000000000001 -2.098 -3.5
    vertex 1.516 -1.663 -3.5
    vertex 1.184 -1.913 -3.5
  endloop
endfacet
facet normal -1.9556466092423716e-15 0 -1
  outer loop
    vertex 0.8130000000000001 -2.098 -3.5
    vertex 2.164 -0.616 -3.5
    vertex 1.516 -1.663 -3.5
  endloop
endfacet
facet normal 0.44624847372444526 -0.8949091013609165 0
  outer loop
    vertex 0.8130000000000001 -2.098 -3
    vertex 1.184 -1.913 -3.5
    vertex 1.184 -1.913 -3
  endloop
endfacet
facet normal 0 0 1
  outer loop
    vertex 0.8130000000000001 -2.098 -3
    vertex 1.184 -1.913 -3
    vertex 1.516 -1.663 -3
  endloop
endfacet
facet normal 1.9556466092423716e-15 0 1
  outer loop
    vertex 0.8130000000000001 -2.098 -3
    vertex 1.516 -1.663 -3
    vertex 2.164 -0.616 -3
  endloop
endfacet
facet normal 0.44624847372444554 -0.8949091013609164 0
  outer loop
    vertex 0.8130000000000001 -2.098 3
    vertex 1.184 -1.913 3
    vertex 0.8130000000000001 -2.098 3.5
  endloop
endfacet
facet normal 0 0 -1
  outer loop
    vertex 0.8130000000000001 -2.098 3
    vertex 1.516 -1.663 3
    vertex 1.184 -1.913 3
  endloop
endfacet
facet normal 1.9556466092423716e-15 0 -1
  outer loop
    vertex 0.8130000000000001 -2.098 3
    vertex 2.164 -0.616 3
    vertex 1.516 -1.663 3
  endloop
endfacet
facet normal 0.4462484737244462 -0.8949091013609162 0
  outer loop
    vertex 0.8130000000000001 -2.098 3.5
    vertex 1.184 -1.913 3
    vertex 1.184 -1.913 3.5
  endloop
endfacet
facet normal 7.0872839107894135e-15 0 1
  outer loop
    vertex 0.8130000000000001 -2.098 3.5
    vertex 1.184 -1.913 3.5
    vertex 1.516 -1.663 3.5
  endloop
endfacet
facet normal -1.9556466092423716e-15 0 1
  outer loop
    vertex 0.8130000000000001 -2.098 3.5
    vertex 1.516 -1.663 3.5
    vertex 2.164 -0.616 3.5
  endloop
endfacet
facet normal 0.44624847372444554 0.8949091013609164 0
  outer loop
    vertex 0.8130000000000001 2.098 -3.5
    vertex 0.8130000000000001 2.098 -3
    vertex 1.184 1.913 -3
  endloop
endfacet
facet normal 0.4462484737244462 0.8949091013609162 0
  outer loop
    vertex 0.8130000000000001 2.098 -3.5
    vertex 1.184 1.913 -3
    vertex 1.184 1.913 -3.5
  endloop
endfacet
facet normal 0.44624847372444637 0.894909101360916 0
  outer loop
    vertex 0.8130000000000001 2.098 3
    vertex 0.8130000000000001 2.098 3.5
    vertex 1.184 1.913 3.5
  endloop
endfacet
facet normal 0.44624847372444526 0.8949091013609165 0
  outer loop
    vertex 0.8130000000000001 2.098 3
    vertex 1.184 1.913 3.5
    vertex 1.184 1.913 3
  endloop
endfacet
facet normal 0.42225720421036017 -0.90647606338637 0
  outer loop
    vertex 0.855 -2.349 -3
    vertex 1.25 -2.165 -3
    vertex 0.855 -2.349 3
  endloop
endfacet
facet normal 0.42225720421035995 -0.9064760633863701 0
  outer loop
    vertex 0.855 -2.349 3
    vertex 1.25 -2.165 -3
    vertex 1.25 -2.165 3
  endloop
endfacet
facet normal 0.42225720421036017 0.90647606338637 0
  outer loop
    vertex 0.855 2.349 -3
    vertex 0.855 2.349 3
    vertex 1.25 2.165 3
  endloop
endfacet
facet normal 0 0 -1
  outer loop
    vertex 0.855 2.349 -3
    vertex 1.25 2.165 -3
    vertex 1.607 1.915 -3
  endloop
endfacet
facet normal 0.42225720421035995 0.9064760633863701 0
  outer loop
    vertex 0.855 2.349 -3
    vertex 1.25 2.165 3
    vertex 1.25 2.165 -3
  endloop
endfacet
facet normal 0 0 1
  outer loop
    vertex 0.855 2.349 3
    vertex 1.607 1.915 3
    vertex 1.25 2.165 3
  endloop
endfacet
facet normal 0.6015388277981238 -0.7988435633159092 0
  outer loop
    vertex 1.184 -1.913 -3.5
    vertex 1.516 -1.663 -3.5
    vertex 1.184 -1.913 -3
  endloop
endfacet
facet normal 0.6015388277981244 -0.7988435633159089 0
  outer loop
    vertex 1.184 -1.913 -3
    vertex 1.516 -1.663 -3.5
    vertex 1.516 -1.663 -3
  endloop
endfacet
facet normal 0.6015388277981238 -0.7988435633159092 0
  outer loop
    vertex 1.184 -1.913 3
    vertex 1.516 -1.663 3
    vertex 1.184 -1.913 3.5
  endloop
endfacet
facet normal 0.6015388277981244 -0.7988435633159089 0
  outer loop
    vertex 1.184 -1.913 3.5
    vertex 1.516 -1.663 3
    vertex 1.516 -1.663 3.5
  endloop
endfacet
facet normal 0.6015388277981238 0.7988435633159092 0
  outer loop
    vertex 1.184 1.913 -3.5
    vertex 1.184 1.913 -3
    vertex 1.516 1.663 -3
  endloop
endfacet
facet normal 0.6015388277981244 0.7988435633159089 0
  outer loop
    vertex 1.184 1.913 -3.5
    vertex 1.516 1.663 -3
    vertex 1.516 1.663 -3.5
  endloop
endfacet
facet normal 0.6015388277981238 0.7988435633159092 0
  outer loop
    vertex 1.184 1.913 3
    vertex 1.184 1.913 3.5
    vertex 1.516 1.663 3.5
  endloop
endfacet
facet normal 0.6015388277981244 0.7988435633159089 0
  outer loop
    vertex 1.184 1.913 3
    vertex 1.516 1.663 3.5
    vertex 1.516 1.663 3
  endloop
endfacet
facet normal 0.5736163251921268 -0.8191241123743582 0
  outer loop
    vertex 1.25 -2.165 -3
    vertex 1.607 -1.915 -3
    vertex 1.25 -2.165 3
  endloop
endfacet
facet normal 0.573616325192128 -0.8191241123743573 0
  outer loop
    vertex 1.25 -2.165 3
    vertex 1.607 -1.915 -3
    vertex 1.607 -1.915 3
  endloop
endfacet
facet normal 0.5736163251921268 0.8191241123743582 0
  outer loop
    vertex 1.25 2.165 -3
    vertex 1.25 2.165 3
    vertex 1.607 1.915 3
  endloop
endfacet
facet normal 0.573616325192128 0.8191241123743573 0
  outer loop
    vertex 1.25 2.165 -3
    vertex 1.607 1.915 3
    vertex 1.607 1.915 -3
  endloop
endfacet
facet normal 0.7388501092400476 -0.6738698064730083 0
  outer loop
    vertex 1.516 -1.663 -3.5
    vertex 1.796 -1.356 -3.5
    vertex 1.516 -1.663 -3
  endloop
endfacet
facet normal 9.426244053533341e-15 0 -1
  outer loop
    vertex 1.516 -1.663 -3.5
    vertex 2.164 -0.616 -3.5
    vertex 1.796 -1.356 -3.5
  endloop
endfacet
facet normal 0.7388501092400482 -0.6738698064730079 0
  outer loop
    vertex 1.516 -1.663 -3
    vertex 1.796 -1.356 -3.5
    vertex 1.796 -1.356 -3
  endloop
endfacet
facet normal -9.426244053533341e-15 0 1
  outer loop
    vertex 1.516 -1.663 -3
    vertex 1.796 -1.356 -3
    vertex 2.164 -0.616 -3
  endloop
endfacet
facet normal 0.7388501092400476 -0.6738698064730083 0
  outer loop
    vertex 1.516 -1.663 3
    vertex 1.796 -1.356 3
    vertex 1.516 -1.663 3.5
  endloop
endfacet
facet normal -9.426244053533341e-15 0 -1
  outer loop
    vertex 1.516 -1.663 3
    vertex 2.164 -0.616 3
    vertex 1.796 -1.356 3
  endloop
endfacet
facet normal 0.7388501092400482 -0.6738698064730079 0
  outer loop
    vertex 1.516 -1.663 3.5
    vertex 1.796 -1.356 3
    vertex 1.796 -1.356 3.5
  endloop
endfacet
facet normal 9.426244053533341e-15 0 1
  outer loop
    vertex 1.516 -1.663 3.5
    vertex 1.796 -1.356 3.5
    vertex 2.164 -0.616 3.5
  endloop
endfacet
facet normal 0.7388501092400476 0.6738698064730083 0
  outer loop
    vertex 1.516 1.663 -3.5
    vertex 1.516 1.663 -3
    vertex 1.796 1.356 -3
  endloop
endfacet
facet normal -1.3915184867145006e-14 0 -1
  outer loop
    vertex 1.516 1.663 -3.5
    vertex 1.796 1.356 -3.5
    vertex 2.0140000000000002 1.0030000000000001 -3.5
  endloop
endfacet
facet normal 0.7388501092400482 0.6738698064730079 0
  outer loop
    vertex 1.516 1.663 -3.5
    vertex 1.796 1.356 -3
    vertex 1.796 1.356 -3.5
  endloop
endfacet
facet normal 4.738164541856701e-15 0 -1
  outer loop
    vertex 1.516 1.663 -3.5
    vertex 2.0140000000000002 1.0030000000000001 -3.5
    vertex 2.164 0.616 -3.5
  endloop
endfacet
facet normal -3.909408071218474e-15 0 -1
  outer loop
    vertex 1.516 1.663 -3.5
    vertex 2.164 0.616 -3.5
    vertex 2.24 -0.20800000000000002 -3.5
  endloop
endfacet
facet normal 0 0 -1
  outer loop
    vertex 1.516 1.663 -3.5
    vertex 2.24 -0.20800000000000002 -3.5
    vertex 2.164 -0.616 -3.5
  endloop
endfacet
facet normal 0 0 1
  outer loop
    vertex 1.516 1.663 -3
    vertex 2.0140000000000002 1.0030000000000001 -3
    vertex 1.796 1.356 -3
  endloop
endfacet
facet normal -1.0148569198654044e-15 0 1
  outer loop
    vertex 1.516 1.663 -3
    vertex 2.164 -0.616 -3
    vertex 2.24 -0.20800000000000002 -3
  endloop
endfacet
facet normal -4.738164541856701e-15 0 1
  outer loop
    vertex 1.516 1.663 -3
    vertex 2.164 0.616 -3
    vertex 2.0140000000000002 1.0030000000000001 -3
  endloop
endfacet
facet normal 5.8641121068277104e-15 0 1
  outer loop
    vertex 1.516 1.663 -3
    vertex 2.24 -0.20800000000000002 -3
    vertex 2.164 0.616 -3
  endloop
endfacet
facet normal 0.7388501092400476 0.6738698064730083 0
  outer loop
    vertex 1.516 1.663 3
    vertex 1.516 1.663 3.5
    vertex 1.796 1.356 3.5
  endloop
endfacet
facet normal 0 0 -1
  outer loop
    vertex 1.516 1.663 3
    vertex 1.796 1.356 3
    vertex 2.0140000000000002 1.0030000000000001 3
  endloop
endfacet
facet normal 0.7388501092400482 0.6738698064730079 0
  outer loop
    vertex 1.516 1.663 3
    vertex 1.796 1.356 3.5
    vertex 1.796 1.356 3
  endloop
endfacet
facet normal -4.738164541856701e-15 0 -1
  outer loop
    vertex 1.516 1.663 3
    vertex 2.0140000000000002 1.0030000000000001 3
    vertex 2.164 0.616 3
  endloop
endfacet
facet normal 5.8641121068277104e-15 0 -1
  outer loop
    vertex 1.516 1.663 3
    vertex 2.164 0.616 3
    vertex 2.24 -0.20800000000000002 3
  endloop
endfacet
facet normal -1.0148569198654044e-15 0 -1
  outer loop
    vertex 1.516 1.663 3
    vertex 2.24 -0.20800000000000002 3
    vertex 2.164 -0.616 3
  endloop
endfacet
facet normal -1.3915184867145006e-14 0 1
  outer loop
    vertex 1.516 1.663 3.5
    vertex 2.0140000000000002 1.0030000000000001 3.5
    vertex 1.796 1.356 3.5
  endloop
endfacet
facet normal 0 0 1
  outer loop
    vertex 1.516 1.663 3.5
    vertex 2.164 -0.616 3.5
    vertex 2.24 -0.20800000000000002 3.5
  endloop
endfacet
facet normal 4.738164541856701e-15 0 1
  outer loop
    vertex 1.516 1.663 3.5
    vertex 2.164 0.616 3.5
    vertex 2.0140000000000002 1.0030000000000001 3.5
  endloop
endfacet
facet normal -3.909408071218474e-15 0 1
  outer loop
    vertex 1.516 1.663 3.5
    vertex 2.24 -0.20800000000000002 3.5
    vertex 2.164 0.616 3.5
  endloop
endfacet
facet normal 0.7071067811865471 -0.707106781186548 0
  outer loop
    vertex 1.607 -1.915 -3
    vertex 1.915 -1.607 -3
    vertex 1.607 -1.915 3
  endloop
endfacet
facet normal 0 0 -1
  outer loop
    vertex 1.607 -1.915 -3
    vertex 2.165 -1.25 -3
    vertex 1.915 -1.607 -3
  endloop
endfacet
facet normal 0 0 -1
  outer loop
    vertex 1.607 -1.915 -3
    vertex 2.462 -0.434 -3
    vertex 2.165 -1.25 -3
  endloop
endfacet
facet normal 0.7071067811865478 -0.7071067811865472 0
  outer loop
    vertex 1.607 -1.915 3
    vertex 1.915 -1.607 -3
    vertex 1.915 -1.607 3
  endloop
endfacet
facet normal 0 0 1
  outer loop
    vertex 1.607 -1.915 3
    vertex 1.915 -1.607 3
    vertex 2.165 -1.25 3
  endloop
endfacet
facet normal 0 0 1
  outer loop
    vertex 1.607 -1.915 3
    vertex 2.165 -1.25 3
    vertex 2.462 -0.434 3
  endloop
endfacet
facet normal 0.7071067811865471 0.707106781186548 0
  outer loop
    vertex 1.607 1.915 -3
    vertex 1.607 1.915 3
    vertex 1.915 1.607 3
  endloop
endfacet
facet normal 0.7071067811865478 0.7071067811865472 0
  outer loop
    vertex 1.607 1.915 -3
    vertex 1.915 1.607 3
    vertex 1.915 1.607 -3
  endloop
endfacet
facet normal 0.8508296901953846 -0.5254415650498409 0
  outer loop
    vertex 1.796 -1.356 -3.5
    vertex 2.0140000000000002 -1.0030000000000001 -3.5
    vertex 1.796 -1.356 -3
  endloop
endfacet
facet normal -1.4135765528713428e-14 0 -1
  outer loop
    vertex 1.796 -1.356 -3.5
    vertex 2.164 -0.616 -3.5
    vertex 2.0140000000000002 -1.0030000000000001 -3.5
  endloop
endfacet
facet normal 0.8508296901953845 -0.5254415650498411 0
  outer loop
    vertex 1.796 -1.356 -3
    vertex 2.0140000000000002 -1.0030000000000001 -3.5
    vertex 2.0140000000000002 -1.0030000000000001 -3
  endloop
endfacet
facet normal 1.4135765528713428e-14 0 1
  outer loop
    vertex 1.796 -1.356 -3
    vertex 2.0140000000000002 -1.0030000000000001 -3
    vertex 2.164 -0.616 -3
  endloop
endfacet
facet normal 0.8508296901953838 -0.5254415650498417 0
  outer loop
    vertex 1.796 -1.356 3
    vertex 2.0140000000000002 -1.0030000000000001 3
    vertex 1.796 -1.356 3.5
  endloop
endfacet
facet normal 1.4135765528713428e-14 0 -1
  outer loop
    vertex 1.796 -1.356 3
    vertex 2.164 -0.616 3
    vertex 2.0140000000000002 -1.0030000000000001 3
  endloop
endfacet
facet normal 0.850829690195385 -0.5254415650498401 0
  outer loop
    vertex 1.796 -1.356 3.5
    vertex 2.0140000000000002 -1.0030000000000001 3
    vertex 2.0140000000000002 -1.0030000000000001 3.5
  endloop
endfacet
facet normal -1.4135765528713428e-14 0 1
  outer loop
    vertex 1.796 -1.356 3.5
    vertex 2.0140000000000002 -1.0030000000000001 3.5
    vertex 2.164 -0.616 3.5
  endloop
endfacet
facet normal 0.8508296901953838 0.5254415650498417 0
  outer loop
    vertex 1.796 1.356 -3.5
    vertex 1.796 1.356 -3
    vertex 2.0140000000000002 1.0030000000000001 -3
  endloop
endfacet
facet normal 0.850829690195385 0.5254415650498401 0
  outer loop
    vertex 1.796 1.356 -3.5
    vertex 2.0140000000000002 1.0030000000000001 -3
    vertex 2.0140000000000002 1.0030000000000001 -3.5
  endloop
endfacet
facet normal 0.8508296901953846 0.5254415650498409 0
  outer loop
    vertex 1.796 1.356 3
    vertex 1.796 1.356 3.5
    vertex 2.0140000000000002 1.0030000000000001 3.5
  endloop
endfacet
facet normal 0.8508296901953845 0.5254415650498411 0
  outer loop
    vertex 1.796 1.356 3
    vertex 2.0140000000000002 1.0030000000000001 3.5
    vertex 2.0140000000000002 1.0030000000000001 3
  endloop
endfacet
facet normal 0.8191241123743579 -0.5736163251921274 0
  outer loop
    vertex 1.915 -1.607 -3
    vertex 2.165 -1.25 -3
    vertex 1.915 -1.607 3
  endloop
endfacet
facet normal 0.8191241123743579 -0.5736163251921274 0
  outer loop
    vertex 1.915 -1.607 3
    vertex 2.165 -1.25 -3
    vertex 2.165 -1.25 3
  endloop
endfacet
facet normal 0.8191241123743579 0.5736163251921274 0
  outer loop
    vertex 1.915 1.607 -3
    vertex 1.915 1.607 3
    vertex 2.165 1.25 3
  endloop
endfacet
facet normal 1.3432012880347851e-14 0 -1
  outer loop
    vertex 1.915 1.607 -3
    vertex 2.165 1.25 -3
    vertex 2.349 0.855 -3
  endloop
endfacet
facet normal 0.8191241123743579 0.5736163251921274 0
  outer loop
    vertex 1.915 1.607 -3
    vertex 2.165 1.25 3
    vertex 2.165 1.25 -3
  endloop
endfacet
facet normal -3.744033806302562e-15 0 -1
  outer loop
    vertex 1.915 1.607 -3
    vertex 2.349 0.855 -3
    vertex 2.462 -0.434 -3
  endloop
endfacet
facet normal 1.3432012880347851e-14 0 1
  outer loop
    vertex 1.915 1.607 3
    vertex 2.349 0.855 3
    vertex 2.165 1.25 3
  endloop
endfacet
facet normal -3.744033806302562e-15 0 1
  outer loop
    vertex 1.915 1.607 3
    vertex 2.462 -0.434 3
    vertex 2.349 0.855 3
  endloop
endfacet
facet normal 0.9324110220206993 -0.36139962093825595 0
  outer loop
    vertex 2.0140000000000002 -1.0030000000000001 -3.5
    vertex 2.164 -0.616 -3.5
    vertex 2.0140000000000002 -1.0030000000000001 -3
  endloop
endfacet
facet normal 0.9324110220206997 -0.36139962093825484 0
  outer loop
    vertex 2.0140000000000002 -1.0030000000000001 -3
    vertex 2.164 -0.616 -3.5
    vertex 2.164 -0.616 -3
  endloop
endfacet
facet normal 0.932411022020699 -0.36139962093825667 0
  outer loop
    vertex 2.0140000000000002 -1.0030000000000001 3
    vertex 2.164 -0.616 3
    vertex 2.0140000000000002 -1.0030000000000001 3.5
  endloop
endfacet
facet normal 0.9324110220207001 -0.3613996209382542 0
  outer loop
    vertex 2.0140000000000002 -1.0030000000000001 3.5
    vertex 2.164 -0.616 3
    vertex 2.164 -0.616 3.5
  endloop
endfacet
facet normal 0.932411022020699 0.36139962093825667 0
  outer loop
    vertex 2.0140000000000002 1.0030000000000001 -3.5
    vertex 2.0140000000000002 1.0030000000000001 -3
    vertex 2.164 0.616 -3
  endloop
endfacet
facet normal 0.9324110220207001 0.3613996209382542 0
  outer loop
    vertex 2.0140000000000002 1.0030000000000001 -3.5
    vertex 2.164 0.616 -3
    vertex 2.164 0.616 -3.5
  endloop
endfacet
facet normal 0.9324110220206993 0.36139962093825595 0
  outer loop
    vertex 2.0140000000000002 1.0030000000000001 3
    vertex 2.0140000000000002 1.0030000000000001 3.5
    vertex 2.164 0.616 3.5
  endloop
endfacet
facet normal 0.9324110220206997 0.36139962093825484 0
  outer loop
    vertex 2.0140000000000002 1.0030000000000001 3
    vertex 2.164 0.616 3.5
    vertex 2.164 0.616 3
  endloop
endfacet
facet normal 0.9830897197714445 -0.18312455564369937 0
  outer loop
    vertex 2.164 -0.616 -3.5
    vertex 2.24 -0.20800000000000002 -3.5
    vertex 2.164 -0.616 -3
  endloop
endfacet
facet normal 0.9830897197714442 -0.18312455564370186 0
  outer loop
    vertex 2.164 -0.616 -3
    vertex 2.24 -0.20800000000000002 -3.5
    vertex 2.24 -0.20800000000000002 -3
  endloop
endfacet
facet normal 0.9830897197714445 -0.18312455564369978 0
  outer loop
    vertex 2.164 -0.616 3
    vertex 2.24 -0.20800000000000002 3
    vertex 2.164 -0.616 3.5
  endloop
endfacet
facet normal 0.9830897197714441 -0.18312455564370145 0
  outer loop
    vertex 2.164 -0.616 3.5
    vertex 2.24 -0.20800000000000002 3
    vertex 2.24 -0.20800000000000002 3.5
  endloop
endfacet
facet normal 0.9830897197714445 0.18312455564369978 0
  outer loop
    vertex 2.164 0.616 -3.5
    vertex 2.164 0.616 -3
    vertex 2.24 0.20800000000000002 -3
  endloop
endfacet
facet normal 1.404634393503486e-14 0 -1
  outer loop
    vertex 2.164 0.616 -3.5
    vertex 2.24 0.20800000000000002 -3.5
    vertex 2.24 -0.20800000000000002 -3.5
  endloop
endfacet
facet normal 0.9830897197714441 0.18312455564370145 0
  outer loop
    vertex 2.164 0.616 -3.5
    vertex 2.24 0.20800000000000002 -3
    vertex 2.24 0.20800000000000002 -3.5
  endloop
endfacet
facet normal -1.404634393503486e-14 0 1
  outer loop
    vertex 2.164 0.616 -3
    vertex 2.24 -0.20800000000000002 -3
    vertex 2.24 0.20800000000000002 -3
  endloop
endfacet
facet normal 0.9830897197714445 0.18312455564369937 0
  outer loop
    vertex 2.164 0.616 3
    vertex 2.164 0.616 3.5
    vertex 2.24 0.20800000000000002 3.5
  endloop
endfacet
facet normal -1.404634393503486e-14 0 -1
  outer loop
    vertex 2.164 0.616 3
    vertex 2.24 0.20800000000000002 3
    vertex 2.24 -0.20800000000000002 3
  endloop
endfacet
facet normal 0.9830897197714442 0.18312455564370186 0
  outer loop
    vertex 2.164 0.616 3
    vertex 2.24 0.20800000000000002 3.5
    vertex 2.24 0.20800000000000002 3
  endloop
endfacet
facet normal 1.404634393503486e-14 0 1
  outer loop
    vertex 2.164 0.616 3.5
    vertex 2.24 -0.20800000000000002 3.5
    vertex 2.24 0.20800000000000002 3.5
  endloop
endfacet
facet normal 0.9064760633863698 -0.4222572042103606 0
  outer loop
    vertex 2.165 -1.25 -3
    vertex 2.349 -0.855 -3
    vertex 2.165 -1.25 3
  endloop
endfacet
facet normal 2.7054690051482647e-14 0 -1
  outer loop
    vertex 2.165 -1.25 -3
    vertex 2.462 -0.434 -3
    vertex 2.349 -0.855 -3
  endloop
endfacet
facet normal 0.9064760633863703 -0.4222572042103595 0
  outer loop
    vertex 2.165 -1.25 3
    vertex 2.349 -0.855 -3
    vertex 2.349 -0.855 3
  endloop
endfacet
facet normal 2.7054690051482647e-14 0 1
  outer loop
    vertex 2.165 -1.25 3
    vertex 2.349 -0.855 3
    vertex 2.462 -0.434 3
  endloop
endfacet
facet normal 0.9064760633863698 0.4222572042103606 0
  outer loop
    vertex 2.165 1.25 -3
    vertex 2.165 1.25 3
    vertex 2.349 0.855 3
  endloop
endfacet
facet normal 0.9064760633863703 0.4222572042103595 0
  outer loop
    vertex 2.165 1.25 -3
    vertex 2.349 0.855 3
    vertex 2.349 0.855 -3
  endloop
endfacet
facet normal 0.9999999999999999 0 0
  outer loop
    vertex 2.24 -0.20800000000000002 -3.5
    vertex 2.24 0.20800000000000002 -3.5
    vertex 2.24 -0.20800000000000002 -3
  endloop
endfacet
facet normal 1 0 0
  outer loop
    vertex 2.24 -0.20800000000000002 -3
    vertex 2.24 0.20800000000000002 -3.5
    vertex 2.24 0.20800000000000002 -3
  endloop
endfacet
facet normal 1 0 0
  outer loop
    vertex 2.24 -0.20800000000000002 3
    vertex 2.24 0.20800000000000002 3
    vertex 2.24 -0.20800000000000002 3.5
  endloop
endfacet
facet normal 0.9999999999999999 0 0
  outer loop
    vertex 2.24 -0.20800000000000002 3.5
    vertex 2.24 0.20800000000000002 3
    vertex 2.24 0.20800000000000002 3.5
  endloop
endfacet
facet normal 0.9658148237499076 -0.25923295744356084 0
  outer loop
    vertex 2.349 -0.855 -3
    vertex 2.462 -0.434 -3
    vertex 2.349 -0.855 3
  endloop
endfacet
facet normal 0.9658148237499068 -0.2592329574435634 0
  outer loop
    vertex 2.349 -0.855 3
    vertex 2.462 -0.434 -3
    vertex 2.462 -0.434 3
  endloop
endfacet
facet normal 0.9658148237499076 0.25923295744356084 0
  outer loop
    vertex 2.349 0.855 -3
    vertex 2.349 0.855 3
    vertex 2.462 0.434 3
  endloop
endfacet
facet normal 0 0 -1
  outer loop
    vertex 2.349 0.855 -3
    vertex 2.462 0.434 -3
    vertex 2.462 -0.434 -3
  endloop
endfacet
facet normal 0.9658148237499068 0.2592329574435634 0
  outer loop
    vertex 2.349 0.855 -3
    vertex 2.462 0.434 3
    vertex 2.462 0.434 -3
  endloop
endfacet
facet normal 0 0 1
  outer loop
    vertex 2.349 0.855 3
    vertex 2.462 -0.434 3
    vertex 2.462 0.434 3
  endloop
endfacet
facet normal 0 0 -1
  outer loop
    vertex 2.462 -0.434 -3
    vertex 2.462 0.434 -3
    vertex 2.5 0 -3
  endloop
endfacet
facet normal 0.9961887329066085 -0.08722389827292672 0
  outer loop
    vertex 2.462 -0.434 -3
    vertex 2.5 0 -3
    vertex 2.462 -0.434 3
  endloop
endfacet
facet normal 0.996188732906608 -0.0872238982729294 0
  outer loop
    vertex 2.462 -0.434 3
    vertex 2.5 0 -3
    vertex 2.5 0 3
  endloop
endfacet
facet normal 0 0 1
  outer loop
    vertex 2.462 -0.434 3
    vertex 2.5 0 3
    vertex 2.462 0.434 3
  endloop
endfacet
facet normal 0.9961887329066085 0.08722389827292672 0
  outer loop
    vertex 2.462 0.434 -3
    vertex 2.462 0.434 3
    vertex 2.5 0 3
  endloop
endfacet
facet normal 0.996188732906608 0.0872238982729294 0
  outer loop
    vertex 2.462 0.434 -3
    vertex 2.5 0 3
    vertex 2.5 0 -3
  endloop
endfacet
endsolid JSxCAD
