solid JSxCAD
facet normal -0.9957988523704411 0.09156771056279994 0
  outer loop
    vertex -2.5 0 -3
    vertex -2.5 0 3
    vertex -2.46 0.435 3
  endloop
endfacet
facet normal -0.9957988523704411 -0.09156771056279994 0
  outer loop
    vertex -2.5 0 -3
    vertex -2.46 -0.435 -3
    vertex -2.5 0 3
  endloop
endfacet
facet normal 0 0 -1
  outer loop
    vertex -2.5 0 -3
    vertex -2.46 0.435 -3
    vertex -2.46 -0.435 -3
  endloop
endfacet
facet normal -0.9957988523704412 0.0915677105627986 0
  outer loop
    vertex -2.5 0 -3
    vertex -2.46 0.435 3
    vertex -2.46 0.435 -3
  endloop
endfacet
facet normal -0.9957988523704412 -0.0915677105627986 0
  outer loop
    vertex -2.5 0 3
    vertex -2.46 -0.435 -3
    vertex -2.46 -0.435 3
  endloop
endfacet
facet normal 0 0 1
  outer loop
    vertex -2.5 0 3
    vertex -2.46 -0.435 3
    vertex -2.46 0.435 3
  endloop
endfacet
facet normal -2.016582193160494e-15 0 -0.9999999999999999
  outer loop
    vertex -2.46 -0.435 -3
    vertex -2.46 0.435 -3
    vertex -0.435 -2.46 -3
  endloop
endfacet
facet normal -0.9665383828038024 -0.256522035246507 0
  outer loop
    vertex -2.46 -0.435 -3
    vertex -2.348 -0.857 -3
    vertex -2.46 -0.435 3
  endloop
endfacet
facet normal 0 0 -1
  outer loop
    vertex -2.46 -0.435 -3
    vertex -1.917 -1.607 -3
    vertex -2.348 -0.857 -3
  endloop
endfacet
facet normal 4.554994716139932e-15 0 -1
  outer loop
    vertex -2.46 -0.435 -3
    vertex -1.607 -1.917 -3
    vertex -1.917 -1.607 -3
  endloop
endfacet
facet normal 3.4865391654404434e-16 0 -1
  outer loop
    vertex -2.46 -0.435 -3
    vertex -0.435 -2.46 -3
    vertex -1.607 -1.917 -3
  endloop
endfacet
facet normal -0.9665383828038024 -0.256522035246507 0
  outer loop
    vertex -2.46 -0.435 3
    vertex -2.348 -0.857 -3
    vertex -2.348 -0.857 3
  endloop
endfacet
facet normal 0 0 1
  outer loop
    vertex -2.46 -0.435 3
    vertex -2.348 -0.857 3
    vertex -1.917 -1.607 3
  endloop
endfacet
facet normal 4.554994716139932e-15 0 1
  outer loop
    vertex -2.46 -0.435 3
    vertex -1.917 -1.607 3
    vertex -1.607 -1.917 3
  endloop
endfacet
facet normal 3.4865391654404434e-16 0 1
  outer loop
    vertex -2.46 -0.435 3
    vertex -1.607 -1.917 3
    vertex -0.435 -2.46 3
  endloop
endfacet
facet normal -2.016582193160494e-15 0 0.9999999999999999
  outer loop
    vertex -2.46 -0.435 3
    vertex -0.435 -2.46 3
    vertex -2.46 0.435 3
  endloop
endfacet
facet normal -0.9665383828038024 0.256522035246507 0
  outer loop
    vertex -2.46 0.435 -3
    vertex -2.46 0.435 3
    vertex -2.348 0.857 3
  endloop
endfacet
facet normal 0 0 -1
  outer loop
    vertex -2.46 0.435 -3
    vertex -2.348 0.857 -3
    vertex -1.917 1.607 -3
  endloop
endfacet
facet normal -0.9665383828038024 0.256522035246507 0
  outer loop
    vertex -2.46 0.435 -3
    vertex -2.348 0.857 3
    vertex -2.348 0.857 -3
  endloop
endfacet
facet normal 4.554994716139932e-15 0 -1
  outer loop
    vertex -2.46 0.435 -3
    vertex -1.917 1.607 -3
    vertex -1.607 1.917 -3
  endloop
endfacet
facet normal 3.4865391654404434e-16 0 -1
  outer loop
    vertex -2.46 0.435 -3
    vertex -1.607 1.917 -3
    vertex -0.435 2.46 -3
  endloop
endfacet
facet normal 0 0 -1
  outer loop
    vertex -2.46 0.435 -3
    vertex -0.435 2.46 -3
    vertex -0.435 -2.46 -3
  endloop
endfacet
facet normal 0 0 1
  outer loop
    vertex -2.46 0.435 3
    vertex -1.917 1.607 3
    vertex -2.348 0.857 3
  endloop
endfacet
facet normal 4.554994716139932e-15 0 1
  outer loop
    vertex -2.46 0.435 3
    vertex -1.607 1.917 3
    vertex -1.917 1.607 3
  endloop
endfacet
facet normal 0 0 1
  outer loop
    vertex -2.46 0.435 3
    vertex -0.435 -2.46 3
    vertex -0.435 2.46 3
  endloop
endfacet
facet normal 3.4865391654404434e-16 0 1
  outer loop
    vertex -2.46 0.435 3
    vertex -0.435 2.46 3
    vertex -1.607 1.917 3
  endloop
endfacet
facet normal -0.9082973115650247 -0.4183252249192588 0
  outer loop
    vertex -2.348 -0.857 -3
    vertex -2.1670000000000003 -1.25 -3
    vertex -2.348 -0.857 3
  endloop
endfacet
facet normal 0 0 -1
  outer loop
    vertex -2.348 -0.857 -3
    vertex -1.917 -1.607 -3
    vertex -2.1670000000000003 -1.25 -3
  endloop
endfacet
facet normal -0.9082973115650241 -0.4183252249192599 0
  outer loop
    vertex -2.348 -0.857 3
    vertex -2.1670000000000003 -1.25 -3
    vertex -2.1670000000000003 -1.25 3
  endloop
endfacet
facet normal 0 0 1
  outer loop
    vertex -2.348 -0.857 3
    vertex -2.1670000000000003 -1.25 3
    vertex -1.917 -1.607 3
  endloop
endfacet
facet normal -0.9082973115650247 0.4183252249192588 0
  outer loop
    vertex -2.348 0.857 -3
    vertex -2.348 0.857 3
    vertex -2.1670000000000003 1.25 3
  endloop
endfacet
facet normal 0 0 -1
  outer loop
    vertex -2.348 0.857 -3
    vertex -2.1670000000000003 1.25 -3
    vertex -1.917 1.607 -3
  endloop
endfacet
facet normal -0.9082973115650241 0.4183252249192599 0
  outer loop
    vertex -2.348 0.857 -3
    vertex -2.1670000000000003 1.25 3
    vertex -2.1670000000000003 1.25 -3
  endloop
endfacet
facet normal 0 0 1
  outer loop
    vertex -2.348 0.857 3
    vertex -1.917 1.607 3
    vertex -2.1670000000000003 1.25 3
  endloop
endfacet
facet normal -1 0 0
  outer loop
    vertex -2.238 -0.209 -3.5
    vertex -2.238 -0.209 -3
    vertex -2.238 0.209 -3
  endloop
endfacet
facet normal 0 0 -1
  outer loop
    vertex -2.238 -0.209 -3.5
    vertex -2.238 0.209 -3.5
    vertex 2.238 -0.209 -3.5
  endloop
endfacet
facet normal -0.9999999999999999 0 0
  outer loop
    vertex -2.238 -0.209 -3.5
    vertex -2.238 0.209 -3
    vertex -2.238 0.209 -3.5
  endloop
endfacet
facet normal -0.98328200498446 -0.18208926018230812 0
  outer loop
    vertex -2.238 -0.209 -3.5
    vertex -2.1630000000000003 -0.614 -3.5
    vertex -2.238 -0.209 -3
  endloop
endfacet
facet normal 1.8887366713452896e-14 0 -1
  outer loop
    vertex -2.238 -0.209 -3.5
    vertex -1.793 -1.358 -3.5
    vertex -2.1630000000000003 -0.614 -3.5
  endloop
endfacet
facet normal -1.4737502307666936e-15 0 -1
  outer loop
    vertex -2.238 -0.209 -3.5
    vertex -0.41400000000000003 -2.21 -3.5
    vertex -1.793 -1.358 -3.5
  endloop
endfacet
facet normal 0 0 -1
  outer loop
    vertex -2.238 -0.209 -3.5
    vertex 0.41400000000000003 -2.21 -3.5
    vertex -0.41400000000000003 -2.21 -3.5
  endloop
endfacet
facet normal 0 0 -1
  outer loop
    vertex -2.238 -0.209 -3.5
    vertex 2.238 -0.209 -3.5
    vertex 0.41400000000000003 -2.21 -3.5
  endloop
endfacet
facet normal -0.9832820049844607 -0.1820892601823057 0
  outer loop
    vertex -2.238 -0.209 -3
    vertex -2.1630000000000003 -0.614 -3.5
    vertex -2.1630000000000003 -0.614 -3
  endloop
endfacet
facet normal 0 0 1
  outer loop
    vertex -2.238 -0.209 -3
    vertex -2.1630000000000003 -0.614 -3
    vertex -1.793 -1.358 -3
  endloop
endfacet
facet normal 7.368751153833468e-16 0 1
  outer loop
    vertex -2.238 -0.209 -3
    vertex -1.793 -1.358 -3
    vertex -0.41400000000000003 -2.21 -3
  endloop
endfacet
facet normal 0 0 1
  outer loop
    vertex -2.238 -0.209 -3
    vertex -0.41400000000000003 -2.21 -3
    vertex 0.41400000000000003 -2.21 -3
  endloop
endfacet
facet normal 0 0 1
  outer loop
    vertex -2.238 -0.209 -3
    vertex 0.41400000000000003 -2.21 -3
    vertex 2.238 -0.209 -3
  endloop
endfacet
facet normal 0 0 1
  outer loop
    vertex -2.238 -0.209 -3
    vertex 2.238 -0.209 -3
    vertex -2.238 0.209 -3
  endloop
endfacet
facet normal -0.9999999999999999 0 0
  outer loop
    vertex -2.238 -0.209 3
    vertex -2.238 -0.209 3.5
    vertex -2.238 0.209 3.5
  endloop
endfacet
facet normal 0 0 -1
  outer loop
    vertex -2.238 -0.209 3
    vertex -2.238 0.209 3
    vertex 2.238 -0.209 3
  endloop
endfacet
facet normal -1 0 0
  outer loop
    vertex -2.238 -0.209 3
    vertex -2.238 0.209 3.5
    vertex -2.238 0.209 3
  endloop
endfacet
facet normal -0.9832820049844602 -0.18208926018230776 0
  outer loop
    vertex -2.238 -0.209 3
    vertex -2.1630000000000003 -0.614 3
    vertex -2.238 -0.209 3.5
  endloop
endfacet
facet normal 0 0 -1
  outer loop
    vertex -2.238 -0.209 3
    vertex -1.793 -1.358 3
    vertex -2.1630000000000003 -0.614 3
  endloop
endfacet
facet normal 7.368751153833468e-16 0 -1
  outer loop
    vertex -2.238 -0.209 3
    vertex -0.41400000000000003 -2.21 3
    vertex -1.793 -1.358 3
  endloop
endfacet
facet normal 0 0 -1
  outer loop
    vertex -2.238 -0.209 3
    vertex 0.41400000000000003 -2.21 3
    vertex -0.41400000000000003 -2.21 3
  endloop
endfacet
facet normal 0 0 -1
  outer loop
    vertex -2.238 -0.209 3
    vertex 2.238 -0.209 3
    vertex 0.41400000000000003 -2.21 3
  endloop
endfacet
facet normal -0.9832820049844605 -0.18208926018230606 0
  outer loop
    vertex -2.238 -0.209 3.5
    vertex -2.1630000000000003 -0.614 3
    vertex -2.1630000000000003 -0.614 3.5
  endloop
endfacet
facet normal 1.8887366713452896e-14 0 1
  outer loop
    vertex -2.238 -0.209 3.5
    vertex -2.1630000000000003 -0.614 3.5
    vertex -1.793 -1.358 3.5
  endloop
endfacet
facet normal -1.4737502307666936e-15 0 1
  outer loop
    vertex -2.238 -0.209 3.5
    vertex -1.793 -1.358 3.5
    vertex -0.41400000000000003 -2.21 3.5
  endloop
endfacet
facet normal 0 0 1
  outer loop
    vertex -2.238 -0.209 3.5
    vertex -0.41400000000000003 -2.21 3.5
    vertex 0.41400000000000003 -2.21 3.5
  endloop
endfacet
facet normal 0 0 1
  outer loop
    vertex -2.238 -0.209 3.5
    vertex 0.41400000000000003 -2.21 3.5
    vertex 2.238 -0.209 3.5
  endloop
endfacet
facet normal 0 0 1
  outer loop
    vertex -2.238 -0.209 3.5
    vertex 2.238 -0.209 3.5
    vertex -2.238 0.209 3.5
  endloop
endfacet
facet normal -0.9832820049844602 0.18208926018230776 0
  outer loop
    vertex -2.238 0.209 -3.5
    vertex -2.238 0.209 -3
    vertex -2.1630000000000003 0.614 -3
  endloop
endfacet
facet normal 1.8887366713452896e-14 0 -1
  outer loop
    vertex -2.238 0.209 -3.5
    vertex -2.1630000000000003 0.614 -3.5
    vertex -1.793 1.358 -3.5
  endloop
endfacet
facet normal -0.9832820049844605 0.18208926018230606 0
  outer loop
    vertex -2.238 0.209 -3.5
    vertex -2.1630000000000003 0.614 -3
    vertex -2.1630000000000003 0.614 -3.5
  endloop
endfacet
facet normal -1.4737502307666936e-15 0 -1
  outer loop
    vertex -2.238 0.209 -3.5
    vertex -1.793 1.358 -3.5
    vertex -0.41400000000000003 2.21 -3.5
  endloop
endfacet
facet normal 0 0 -1
  outer loop
    vertex -2.238 0.209 -3.5
    vertex -0.41400000000000003 2.21 -3.5
    vertex 0.41400000000000003 2.21 -3.5
  endloop
endfacet
facet normal 0 0 -1
  outer loop
    vertex -2.238 0.209 -3.5
    vertex 0.41400000000000003 2.21 -3.5
    vertex 2.238 0.209 -3.5
  endloop
endfacet
facet normal 0 0 -1
  outer loop
    vertex -2.238 0.209 -3.5
    vertex 2.238 0.209 -3.5
    vertex 2.238 -0.209 -3.5
  endloop
endfacet
facet normal 0 0 1
  outer loop
    vertex -2.238 0.209 -3
    vertex -1.793 1.358 -3
    vertex -2.1630000000000003 0.614 -3
  endloop
endfacet
facet normal 7.368751153833468e-16 0 1
  outer loop
    vertex -2.238 0.209 -3
    vertex -0.41400000000000003 2.21 -3
    vertex -1.793 1.358 -3
  endloop
endfacet
facet normal 0 0 1
  outer loop
    vertex -2.238 0.209 -3
    vertex 0.41400000000000003 2.21 -3
    vertex -0.41400000000000003 2.21 -3
  endloop
endfacet
facet normal 0 0 1
  outer loop
    vertex -2.238 0.209 -3
    vertex 2.238 -0.209 -3
    vertex 2.238 0.209 -3
  endloop
endfacet
facet normal 0 0 1
  outer loop
    vertex -2.238 0.209 -3
    vertex 2.238 0.209 -3
    vertex 0.41400000000000003 2.21 -3
  endloop
endfacet
facet normal -0.98328200498446 0.18208926018230812 0
  outer loop
    vertex -2.238 0.209 3
    vertex -2.238 0.209 3.5
    vertex -2.1630000000000003 0.614 3.5
  endloop
endfacet
facet normal 0 0 -1
  outer loop
    vertex -2.238 0.209 3
    vertex -2.1630000000000003 0.614 3
    vertex -1.793 1.358 3
  endloop
endfacet
facet normal -0.9832820049844607 0.1820892601823057 0
  outer loop
    vertex -2.238 0.209 3
    vertex -2.1630000000000003 0.614 3.5
    vertex -2.1630000000000003 0.614 3
  endloop
endfacet
facet normal 7.368751153833468e-16 0 -1
  outer loop
    vertex -2.238 0.209 3
    vertex -1.793 1.358 3
    vertex -0.41400000000000003 2.21 3
  endloop
endfacet
facet normal 0 0 -1
  outer loop
    vertex -2.238 0.209 3
    vertex -0.41400000000000003 2.21 3
    vertex 0.41400000000000003 2.21 3
  endloop
endfacet
facet normal 0 0 -1
  outer loop
    vertex -2.238 0.209 3
    vertex 0.41400000000000003 2.21 3
    vertex 2.238 0.209 3
  endloop
endfacet
facet normal 0 0 -1
  outer loop
    vertex -2.238 0.209 3
    vertex 2.238 0.209 3
    vertex 2.238 -0.209 3
  endloop
endfacet
facet normal 1.8887366713452896e-14 0 1
  outer loop
    vertex -2.238 0.209 3.5
    vertex -1.793 1.358 3.5
    vertex -2.1630000000000003 0.614 3.5
  endloop
endfacet
facet normal -1.4737502307666936e-15 0 1
  outer loop
    vertex -2.238 0.209 3.5
    vertex -0.41400000000000003 2.21 3.5
    vertex -1.793 1.358 3.5
  endloop
endfacet
facet normal 0 0 1
  outer loop
    vertex -2.238 0.209 3.5
    vertex 0.41400000000000003 2.21 3.5
    vertex -0.41400000000000003 2.21 3.5
  endloop
endfacet
facet normal 0 0 1
  outer loop
    vertex -2.238 0.209 3.5
    vertex 2.238 -0.209 3.5
    vertex 2.238 0.209 3.5
  endloop
endfacet
facet normal 0 0 1
  outer loop
    vertex -2.238 0.209 3.5
    vertex 2.238 0.209 3.5
    vertex 0.41400000000000003 2.21 3.5
  endloop
endfacet
facet normal -0.8191241123743579 -0.5736163251921274 0
  outer loop
    vertex -2.1670000000000003 -1.25 -3
    vertex -1.917 -1.607 -3
    vertex -2.1670000000000003 -1.25 3
  endloop
endfacet
facet normal -0.8191241123743572 -0.5736163251921282 0
  outer loop
    vertex -2.1670000000000003 -1.25 3
    vertex -1.917 -1.607 -3
    vertex -1.917 -1.607 3
  endloop
endfacet
facet normal -0.8191241123743579 0.5736163251921274 0
  outer loop
    vertex -2.1670000000000003 1.25 -3
    vertex -2.1670000000000003 1.25 3
    vertex -1.917 1.607 3
  endloop
endfacet
facet normal -0.8191241123743572 0.5736163251921282 0
  outer loop
    vertex -2.1670000000000003 1.25 -3
    vertex -1.917 1.607 3
    vertex -1.917 1.607 -3
  endloop
endfacet
facet normal -0.9333456062030593 -0.3589790793088701 0
  outer loop
    vertex -2.1630000000000003 -0.614 -3.5
    vertex -2.013 -1.004 -3.5
    vertex -2.1630000000000003 -0.614 -3
  endloop
endfacet
facet normal -1.3580709781347501e-14 0 -1
  outer loop
    vertex -2.1630000000000003 -0.614 -3.5
    vertex -1.793 -1.358 -3.5
    vertex -2.013 -1.004 -3.5
  endloop
endfacet
facet normal -0.9333456062030595 -0.35897907930886935 0
  outer loop
    vertex -2.1630000000000003 -0.614 -3
    vertex -2.013 -1.004 -3.5
    vertex -2.013 -1.004 -3
  endloop
endfacet
facet normal 0 0 1
  outer loop
    vertex -2.1630000000000003 -0.614 -3
    vertex -2.013 -1.004 -3
    vertex -1.793 -1.358 -3
  endloop
endfacet
facet normal -0.9333456062030595 -0.35897907930886935 0
  outer loop
    vertex -2.1630000000000003 -0.614 3
    vertex -2.013 -1.004 3
    vertex -2.1630000000000003 -0.614 3.5
  endloop
endfacet
facet normal 0 0 -1
  outer loop
    vertex -2.1630000000000003 -0.614 3
    vertex -1.793 -1.358 3
    vertex -2.013 -1.004 3
  endloop
endfacet
facet normal -0.9333456062030593 -0.3589790793088701 0
  outer loop
    vertex -2.1630000000000003 -0.614 3.5
    vertex -2.013 -1.004 3
    vertex -2.013 -1.004 3.5
  endloop
endfacet
facet normal -1.3580709781347501e-14 0 1
  outer loop
    vertex -2.1630000000000003 -0.614 3.5
    vertex -2.013 -1.004 3.5
    vertex -1.793 -1.358 3.5
  endloop
endfacet
facet normal -0.9333456062030595 0.35897907930886935 0
  outer loop
    vertex -2.1630000000000003 0.614 -3.5
    vertex -2.1630000000000003 0.614 -3
    vertex -2.013 1.004 -3
  endloop
endfacet
facet normal -1.3580709781347501e-14 0 -1
  outer loop
    vertex -2.1630000000000003 0.614 -3.5
    vertex -2.013 1.004 -3.5
    vertex -1.793 1.358 -3.5
  endloop
endfacet
facet normal -0.9333456062030593 0.3589790793088701 0
  outer loop
    vertex -2.1630000000000003 0.614 -3.5
    vertex -2.013 1.004 -3
    vertex -2.013 1.004 -3.5
  endloop
endfacet
facet normal 0 0 1
  outer loop
    vertex -2.1630000000000003 0.614 -3
    vertex -1.793 1.358 -3
    vertex -2.013 1.004 -3
  endloop
endfacet
facet normal -0.9333456062030593 0.3589790793088701 0
  outer loop
    vertex -2.1630000000000003 0.614 3
    vertex -2.1630000000000003 0.614 3.5
    vertex -2.013 1.004 3.5
  endloop
endfacet
facet normal 0 0 -1
  outer loop
    vertex -2.1630000000000003 0.614 3
    vertex -2.013 1.004 3
    vertex -1.793 1.358 3
  endloop
endfacet
facet normal -0.9333456062030595 0.35897907930886935 0
  outer loop
    vertex -2.1630000000000003 0.614 3
    vertex -2.013 1.004 3.5
    vertex -2.013 1.004 3
  endloop
endfacet
facet normal -1.3580709781347501e-14 0 1
  outer loop
    vertex -2.1630000000000003 0.614 3.5
    vertex -1.793 1.358 3.5
    vertex -2.013 1.004 3.5
  endloop
endfacet
facet normal -0.8493434690654469 -0.5278405739954747 0
  outer loop
    vertex -2.013 -1.004 -3.5
    vertex -1.793 -1.358 -3.5
    vertex -2.013 -1.004 -3
  endloop
endfacet
facet normal -0.8493434690654464 -0.5278405739954755 0
  outer loop
    vertex -2.013 -1.004 -3
    vertex -1.793 -1.358 -3.5
    vertex -1.793 -1.358 -3
  endloop
endfacet
facet normal -0.8493434690654469 -0.5278405739954747 0
  outer loop
    vertex -2.013 -1.004 3
    vertex -1.793 -1.358 3
    vertex -2.013 -1.004 3.5
  endloop
endfacet
facet normal -0.8493434690654464 -0.5278405739954755 0
  outer loop
    vertex -2.013 -1.004 3.5
    vertex -1.793 -1.358 3
    vertex -1.793 -1.358 3.5
  endloop
endfacet
facet normal -0.8493434690654469 0.5278405739954747 0
  outer loop
    vertex -2.013 1.004 -3.5
    vertex -2.013 1.004 -3
    vertex -1.793 1.358 -3
  endloop
endfacet
facet normal -0.8493434690654464 0.5278405739954755 0
  outer loop
    vertex -2.013 1.004 -3.5
    vertex -1.793 1.358 -3
    vertex -1.793 1.358 -3.5
  endloop
endfacet
facet normal -0.8493434690654469 0.5278405739954747 0
  outer loop
    vertex -2.013 1.004 3
    vertex -2.013 1.004 3.5
    vertex -1.793 1.358 3.5
  endloop
endfacet
facet normal -0.8493434690654464 0.5278405739954755 0
  outer loop
    vertex -2.013 1.004 3
    vertex -1.793 1.358 3.5
    vertex -1.793 1.358 3
  endloop
endfacet
facet normal -0.707106781186547 -0.707106781186548 0
  outer loop
    vertex -1.917 -1.607 -3
    vertex -1.607 -1.917 -3
    vertex -1.917 -1.607 3
  endloop
endfacet
facet normal -0.7071067811865478 -0.7071067811865475 0
  outer loop
    vertex -1.917 -1.607 3
    vertex -1.607 -1.917 -3
    vertex -1.607 -1.917 3
  endloop
endfacet
facet normal -0.707106781186547 0.707106781186548 0
  outer loop
    vertex -1.917 1.607 -3
    vertex -1.917 1.607 3
    vertex -1.607 1.917 3
  endloop
endfacet
facet normal -0.7071067811865478 0.7071067811865475 0
  outer loop
    vertex -1.917 1.607 -3
    vertex -1.607 1.917 3
    vertex -1.607 1.917 -3
  endloop
endfacet
facet normal -0.7414781823214887 -0.6709769781007551 0
  outer loop
    vertex -1.793 -1.358 -3.5
    vertex -1.5170000000000001 -1.663 -3.5
    vertex -1.793 -1.358 -3
  endloop
endfacet
facet normal 1.3522402175636064e-14 0 -1
  outer loop
    vertex -1.793 -1.358 -3.5
    vertex -1.184 -1.9120000000000001 -3.5
    vertex -1.5170000000000001 -1.663 -3.5
  endloop
endfacet
facet normal 0 0 -1
  outer loop
    vertex -1.793 -1.358 -3.5
    vertex -0.41400000000000003 -2.21 -3.5
    vertex -1.184 -1.9120000000000001 -3.5
  endloop
endfacet
facet normal -0.7414781823214877 -0.6709769781007562 0
  outer loop
    vertex -1.793 -1.358 -3
    vertex -1.5170000000000001 -1.663 -3.5
    vertex -1.5170000000000001 -1.663 -3
  endloop
endfacet
facet normal 0 0 1
  outer loop
    vertex -1.793 -1.358 -3
    vertex -1.5170000000000001 -1.663 -3
    vertex -1.184 -1.9120000000000001 -3
  endloop
endfacet
facet normal 0 0 1
  outer loop
    vertex -1.793 -1.358 -3
    vertex -1.184 -1.9120000000000001 -3
    vertex -0.41400000000000003 -2.21 -3
  endloop
endfacet
facet normal -0.7414781823214877 -0.6709769781007562 0
  outer loop
    vertex -1.793 -1.358 3
    vertex -1.5170000000000001 -1.663 3
    vertex -1.793 -1.358 3.5
  endloop
endfacet
facet normal 0 0 -1
  outer loop
    vertex -1.793 -1.358 3
    vertex -1.184 -1.9120000000000001 3
    vertex -1.5170000000000001 -1.663 3
  endloop
endfacet
facet normal 0 0 -1
  outer loop
    vertex -1.793 -1.358 3
    vertex -0.41400000000000003 -2.21 3
    vertex -1.184 -1.9120000000000001 3
  endloop
endfacet
facet normal -0.7414781823214887 -0.6709769781007551 0
  outer loop
    vertex -1.793 -1.358 3.5
    vertex -1.5170000000000001 -1.663 3
    vertex -1.5170000000000001 -1.663 3.5
  endloop
endfacet
facet normal 1.3522402175636064e-14 0 1
  outer loop
    vertex -1.793 -1.358 3.5
    vertex -1.5170000000000001 -1.663 3.5
    vertex -1.184 -1.9120000000000001 3.5
  endloop
endfacet
facet normal 0 0 1
  outer loop
    vertex -1.793 -1.358 3.5
    vertex -1.184 -1.9120000000000001 3.5
    vertex -0.41400000000000003 -2.21 3.5
  endloop
endfacet
facet normal -0.7414781823214877 0.6709769781007562 0
  outer loop
    vertex -1.793 1.358 -3.5
    vertex -1.793 1.358 -3
    vertex -1.5170000000000001 1.663 -3
  endloop
endfacet
facet normal 1.3522402175636064e-14 0 -1
  outer loop
    vertex -1.793 1.358 -3.5
    vertex -1.5170000000000001 1.663 -3.5
    vertex -1.184 1.9120000000000001 -3.5
  endloop
endfacet
facet normal -0.7414781823214887 0.6709769781007551 0
  outer loop
    vertex -1.793 1.358 -3.5
    vertex -1.5170000000000001 1.663 -3
    vertex -1.5170000000000001 1.663 -3.5
  endloop
endfacet
facet normal 0 0 -1
  outer loop
    vertex -1.793 1.358 -3.5
    vertex -1.184 1.9120000000000001 -3.5
    vertex -0.41400000000000003 2.21 -3.5
  endloop
endfacet
facet normal 0 0 1
  outer loop
    vertex -1.793 1.358 -3
    vertex -1.184 1.9120000000000001 -3
    vertex -1.5170000000000001 1.663 -3
  endloop
endfacet
facet normal 0 0 1
  outer loop
    vertex -1.793 1.358 -3
    vertex -0.41400000000000003 2.21 -3
    vertex -1.184 1.9120000000000001 -3
  endloop
endfacet
facet normal -0.7414781823214887 0.6709769781007551 0
  outer loop
    vertex -1.793 1.358 3
    vertex -1.793 1.358 3.5
    vertex -1.5170000000000001 1.663 3.5
  endloop
endfacet
facet normal 0 0 -1
  outer loop
    vertex -1.793 1.358 3
    vertex -1.5170000000000001 1.663 3
    vertex -1.184 1.9120000000000001 3
  endloop
endfacet
facet normal -0.7414781823214877 0.6709769781007562 0
  outer loop
    vertex -1.793 1.358 3
    vertex -1.5170000000000001 1.663 3.5
    vertex -1.5170000000000001 1.663 3
  endloop
endfacet
facet normal 0 0 -1
  outer loop
    vertex -1.793 1.358 3
    vertex -1.184 1.9120000000000001 3
    vertex -0.41400000000000003 2.21 3
  endloop
endfacet
facet normal 1.3522402175636064e-14 0 1
  outer loop
    vertex -1.793 1.358 3.5
    vertex -1.184 1.9120000000000001 3.5
    vertex -1.5170000000000001 1.663 3.5
  endloop
endfacet
facet normal 0 0 1
  outer loop
    vertex -1.793 1.358 3.5
    vertex -0.41400000000000003 2.21 3.5
    vertex -1.184 1.9120000000000001 3.5
  endloop
endfacet
facet normal -0.5736163251921284 -0.819124112374357 0
  outer loop
    vertex -1.607 -1.917 -3
    vertex -1.25 -2.1670000000000003 -3
    vertex -1.607 -1.917 3
  endloop
endfacet
facet normal 0 0 -1
  outer loop
    vertex -1.607 -1.917 -3
    vertex -0.857 -2.348 -3
    vertex -1.25 -2.1670000000000003 -3
  endloop
endfacet
facet normal 0 0 -1
  outer loop
    vertex -1.607 -1.917 -3
    vertex -0.435 -2.46 -3
    vertex -0.857 -2.348 -3
  endloop
endfacet
facet normal -0.5736163251921271 -0.8191241123743579 0
  outer loop
    vertex -1.607 -1.917 3
    vertex -1.25 -2.1670000000000003 -3
    vertex -1.25 -2.1670000000000003 3
  endloop
endfacet
facet normal 0 0 1
  outer loop
    vertex -1.607 -1.917 3
    vertex -1.25 -2.1670000000000003 3
    vertex -0.857 -2.348 3
  endloop
endfacet
facet normal 0 0 1
  outer loop
    vertex -1.607 -1.917 3
    vertex -0.857 -2.348 3
    vertex -0.435 -2.46 3
  endloop
endfacet
facet normal -0.5736163251921284 0.819124112374357 0
  outer loop
    vertex -1.607 1.917 -3
    vertex -1.607 1.917 3
    vertex -1.25 2.1670000000000003 3
  endloop
endfacet
facet normal 0 0 -1
  outer loop
    vertex -1.607 1.917 -3
    vertex -1.25 2.1670000000000003 -3
    vertex -0.857 2.348 -3
  endloop
endfacet
facet normal -0.5736163251921271 0.8191241123743579 0
  outer loop
    vertex -1.607 1.917 -3
    vertex -1.25 2.1670000000000003 3
    vertex -1.25 2.1670000000000003 -3
  endloop
endfacet
facet normal 0 0 -1
  outer loop
    vertex -1.607 1.917 -3
    vertex -0.857 2.348 -3
    vertex -0.435 2.46 -3
  endloop
endfacet
facet normal 0 0 1
  outer loop
    vertex -1.607 1.917 3
    vertex -0.857 2.348 3
    vertex -1.25 2.1670000000000003 3
  endloop
endfacet
facet normal 0 0 1
  outer loop
    vertex -1.607 1.917 3
    vertex -0.435 2.46 3
    vertex -0.857 2.348 3
  endloop
endfacet
facet normal -0.5988449753725008 -0.8008649670644289 0
  outer loop
    vertex -1.5170000000000001 -1.663 -3.5
    vertex -1.184 -1.9120000000000001 -3.5
    vertex -1.5170000000000001 -1.663 -3
  endloop
endfacet
facet normal -0.5988449753725008 -0.8008649670644289 0
  outer loop
    vertex -1.5170000000000001 -1.663 -3
    vertex -1.184 -1.9120000000000001 -3.5
    vertex -1.184 -1.9120000000000001 -3
  endloop
endfacet
facet normal -0.5988449753725008 -0.8008649670644289 0
  outer loop
    vertex -1.5170000000000001 -1.663 3
    vertex -1.184 -1.9120000000000001 3
    vertex -1.5170000000000001 -1.663 3.5
  endloop
endfacet
facet normal -0.5988449753725008 -0.8008649670644289 0
  outer loop
    vertex -1.5170000000000001 -1.663 3.5
    vertex -1.184 -1.9120000000000001 3
    vertex -1.184 -1.9120000000000001 3.5
  endloop
endfacet
facet normal -0.5988449753725008 0.8008649670644289 0
  outer loop
    vertex -1.5170000000000001 1.663 -3.5
    vertex -1.5170000000000001 1.663 -3
    vertex -1.184 1.9120000000000001 -3
  endloop
endfacet
facet normal -0.5988449753725008 0.8008649670644289 0
  outer loop
    vertex -1.5170000000000001 1.663 -3.5
    vertex -1.184 1.9120000000000001 -3
    vertex -1.184 1.9120000000000001 -3.5
  endloop
endfacet
facet normal -0.5988449753725008 0.8008649670644289 0
  outer loop
    vertex -1.5170000000000001 1.663 3
    vertex -1.5170000000000001 1.663 3.5
    vertex -1.184 1.9120000000000001 3.5
  endloop
endfacet
facet normal -0.5988449753725008 0.8008649670644289 0
  outer loop
    vertex -1.5170000000000001 1.663 3
    vertex -1.184 1.9120000000000001 3.5
    vertex -1.184 1.9120000000000001 3
  endloop
endfacet
facet normal -0.4183252249192598 -0.9082973115650241 0
  outer loop
    vertex -1.25 -2.1670000000000003 -3
    vertex -0.857 -2.348 -3
    vertex -1.25 -2.1670000000000003 3
  endloop
endfacet
facet normal -0.41832522491925933 -0.9082973115650245 0
  outer loop
    vertex -1.25 -2.1670000000000003 3
    vertex -0.857 -2.348 -3
    vertex -0.857 -2.348 3
  endloop
endfacet
facet normal -0.4183252249192598 0.9082973115650241 0
  outer loop
    vertex -1.25 2.1670000000000003 -3
    vertex -1.25 2.1670000000000003 3
    vertex -0.857 2.348 3
  endloop
endfacet
facet normal -0.41832522491925933 0.9082973115650245 0
  outer loop
    vertex -1.25 2.1670000000000003 -3
    vertex -0.857 2.348 3
    vertex -0.857 2.348 -3
  endloop
endfacet
facet normal -0.4510481846883604 -0.8924995994897333 0
  outer loop
    vertex -1.184 -1.9120000000000001 -3.5
    vertex -0.812 -2.1 -3.5
    vertex -1.184 -1.9120000000000001 -3
  endloop
endfacet
facet normal 6.54921557707136e-15 0 -1
  outer loop
    vertex -1.184 -1.9120000000000001 -3.5
    vertex -0.41400000000000003 -2.21 -3.5
    vertex -0.812 -2.1 -3.5
  endloop
endfacet
facet normal -0.4510481846883596 -0.8924995994897339 0
  outer loop
    vertex -1.184 -1.9120000000000001 -3
    vertex -0.812 -2.1 -3.5
    vertex -0.812 -2.1 -3
  endloop
endfacet
facet normal 0 0 1
  outer loop
    vertex -1.184 -1.9120000000000001 -3
    vertex -0.812 -2.1 -3
    vertex -0.41400000000000003 -2.21 -3
  endloop
endfacet
facet normal -0.4510481846883596 -0.8924995994897339 0
  outer loop
    vertex -1.184 -1.9120000000000001 3
    vertex -0.812 -2.1 3
    vertex -1.184 -1.9120000000000001 3.5
  endloop
endfacet
facet normal 0 0 -1
  outer loop
    vertex -1.184 -1.9120000000000001 3
    vertex -0.41400000000000003 -2.21 3
    vertex -0.812 -2.1 3
  endloop
endfacet
facet normal -0.4510481846883604 -0.8924995994897333 0
  outer loop
    vertex -1.184 -1.9120000000000001 3.5
    vertex -0.812 -2.1 3
    vertex -0.812 -2.1 3.5
  endloop
endfacet
facet normal 6.54921557707136e-15 0 1
  outer loop
    vertex -1.184 -1.9120000000000001 3.5
    vertex -0.812 -2.1 3.5
    vertex -0.41400000000000003 -2.21 3.5
  endloop
endfacet
facet normal -0.4510481846883596 0.8924995994897339 0
  outer loop
    vertex -1.184 1.9120000000000001 -3.5
    vertex -1.184 1.9120000000000001 -3
    vertex -0.812 2.1 -3
  endloop
endfacet
facet normal 6.54921557707136e-15 0 -1
  outer loop
    vertex -1.184 1.9120000000000001 -3.5
    vertex -0.812 2.1 -3.5
    vertex -0.41400000000000003 2.21 -3.5
  endloop
endfacet
facet normal -0.4510481846883604 0.8924995994897333 0
  outer loop
    vertex -1.184 1.9120000000000001 -3.5
    vertex -0.812 2.1 -3
    vertex -0.812 2.1 -3.5
  endloop
endfacet
facet normal 0 0 1
  outer loop
    vertex -1.184 1.9120000000000001 -3
    vertex -0.41400000000000003 2.21 -3
    vertex -0.812 2.1 -3
  endloop
endfacet
facet normal -0.4510481846883604 0.8924995994897333 0
  outer loop
    vertex -1.184 1.9120000000000001 3
    vertex -1.184 1.9120000000000001 3.5
    vertex -0.812 2.1 3.5
  endloop
endfacet
facet normal 0 0 -1
  outer loop
    vertex -1.184 1.9120000000000001 3
    vertex -0.812 2.1 3
    vertex -0.41400000000000003 2.21 3
  endloop
endfacet
facet normal -0.4510481846883596 0.8924995994897339 0
  outer loop
    vertex -1.184 1.9120000000000001 3
    vertex -0.812 2.1 3.5
    vertex -0.812 2.1 3
  endloop
endfacet
facet normal 6.54921557707136e-15 0 1
  outer loop
    vertex -1.184 1.9120000000000001 3.5
    vertex -0.41400000000000003 2.21 3.5
    vertex -0.812 2.1 3.5
  endloop
endfacet
facet normal -0.25652203524650724 -0.9665383828038024 0
  outer loop
    vertex -0.857 -2.348 -3
    vertex -0.435 -2.46 -3
    vertex -0.857 -2.348 3
  endloop
endfacet
facet normal -0.25652203524650696 -0.9665383828038026 0
  outer loop
    vertex -0.857 -2.348 3
    vertex -0.435 -2.46 -3
    vertex -0.435 -2.46 3
  endloop
endfacet
facet normal -0.25652203524650724 0.9665383828038024 0
  outer loop
    vertex -0.857 2.348 -3
    vertex -0.857 2.348 3
    vertex -0.435 2.46 3
  endloop
endfacet
facet normal -0.25652203524650696 0.9665383828038026 0
  outer loop
    vertex -0.857 2.348 -3
    vertex -0.435 2.46 3
    vertex -0.435 2.46 -3
  endloop
endfacet
facet normal -0.2663945889881787 -0.9638640583390479 0
  outer loop
    vertex -0.812 -2.1 -3.5
    vertex -0.41400000000000003 -2.21 -3.5
    vertex -0.812 -2.1 -3
  endloop
endfacet
facet normal -0.2663945889881788 -0.9638640583390478 0
  outer loop
    vertex -0.812 -2.1 -3
    vertex -0.41400000000000003 -2.21 -3.5
    vertex -0.41400000000000003 -2.21 -3
  endloop
endfacet
facet normal -0.2663945889881787 -0.9638640583390479 0
  outer loop
    vertex -0.812 -2.1 3
    vertex -0.41400000000000003 -2.21 3
    vertex -0.812 -2.1 3.5
  endloop
endfacet
facet normal -0.2663945889881788 -0.9638640583390478 0
  outer loop
    vertex -0.812 -2.1 3.5
    vertex -0.41400000000000003 -2.21 3
    vertex -0.41400000000000003 -2.21 3.5
  endloop
endfacet
facet normal -0.2663945889881787 0.9638640583390479 0
  outer loop
    vertex -0.812 2.1 -3.5
    vertex -0.812 2.1 -3
    vertex -0.41400000000000003 2.21 -3
  endloop
endfacet
facet normal -0.2663945889881788 0.9638640583390478 0
  outer loop
    vertex -0.812 2.1 -3.5
    vertex -0.41400000000000003 2.21 -3
    vertex -0.41400000000000003 2.21 -3.5
  endloop
endfacet
facet normal -0.2663945889881787 0.9638640583390479 0
  outer loop
    vertex -0.812 2.1 3
    vertex -0.812 2.1 3.5
    vertex -0.41400000000000003 2.21 3.5
  endloop
endfacet
facet normal -0.2663945889881788 0.9638640583390478 0
  outer loop
    vertex -0.812 2.1 3
    vertex -0.41400000000000003 2.21 3.5
    vertex -0.41400000000000003 2.21 3
  endloop
endfacet
facet normal 0 0 -1
  outer loop
    vertex -0.435 -2.46 -3
    vertex -0.435 2.46 -3
    vertex 0.435 -2.46 -3
  endloop
endfacet
facet normal -0.09156771056279926 -0.9957988523704411 0
  outer loop
    vertex -0.435 -2.46 -3
    vertex 0 -2.5 -3
    vertex -0.435 -2.46 3
  endloop
endfacet
facet normal 0 0 -1
  outer loop
    vertex -0.435 -2.46 -3
    vertex 0.435 -2.46 -3
    vertex 0 -2.5 -3
  endloop
endfacet
facet normal -0.09156771056279926 -0.9957988523704411 0
  outer loop
    vertex -0.435 -2.46 3
    vertex 0 -2.5 -3
    vertex 0 -2.5 3
  endloop
endfacet
facet normal 0 0 1
  outer loop
    vertex -0.435 -2.46 3
    vertex 0 -2.5 3
    vertex 0.435 -2.46 3
  endloop
endfacet
facet normal 0 0 1
  outer loop
    vertex -0.435 -2.46 3
    vertex 0.435 -2.46 3
    vertex -0.435 2.46 3
  endloop
endfacet
facet normal -0.09156771056279926 0.9957988523704411 0
  outer loop
    vertex -0.435 2.46 -3
    vertex -0.435 2.46 3
    vertex 0 2.5 3
  endloop
endfacet
facet normal 0 0 -1
  outer loop
    vertex -0.435 2.46 -3
    vertex 0 2.5 -3
    vertex 0.435 2.46 -3
  endloop
endfacet
facet normal -0.09156771056279926 0.9957988523704411 0
  outer loop
    vertex -0.435 2.46 -3
    vertex 0 2.5 3
    vertex 0 2.5 -3
  endloop
endfacet
facet normal 0 0 -1
  outer loop
    vertex -0.435 2.46 -3
    vertex 0.435 2.46 -3
    vertex 0.435 -2.46 -3
  endloop
endfacet
facet normal 0 0 1
  outer loop
    vertex -0.435 2.46 3
    vertex 0.435 -2.46 3
    vertex 0.435 2.46 3
  endloop
endfacet
facet normal 0 0 1
  outer loop
    vertex -0.435 2.46 3
    vertex 0.435 2.46 3
    vertex 0 2.5 3
  endloop
endfacet
facet normal -0.09617051917120523 -0.9953648734219733 0
  outer loop
    vertex -0.41400000000000003 -2.21 -3.5
    vertex 0 -2.25 -3.5
    vertex -0.41400000000000003 -2.21 -3
  endloop
endfacet
facet normal 0 0 -1
  outer loop
    vertex -0.41400000000000003 -2.21 -3.5
    vertex 0.41400000000000003 -2.21 -3.5
    vertex 0 -2.25 -3.5
  endloop
endfacet
facet normal -0.09617051917120523 -0.9953648734219733 0
  outer loop
    vertex -0.41400000000000003 -2.21 -3
    vertex 0 -2.25 -3.5
    vertex 0 -2.25 -3
  endloop
endfacet
facet normal 0 0 1
  outer loop
    vertex -0.41400000000000003 -2.21 -3
    vertex 0 -2.25 -3
    vertex 0.41400000000000003 -2.21 -3
  endloop
endfacet
facet normal -0.09617051917120523 -0.9953648734219733 0
  outer loop
    vertex -0.41400000000000003 -2.21 3
    vertex 0 -2.25 3
    vertex -0.41400000000000003 -2.21 3.5
  endloop
endfacet
facet normal 0 0 -1
  outer loop
    vertex -0.41400000000000003 -2.21 3
    vertex 0.41400000000000003 -2.21 3
    vertex 0 -2.25 3
  endloop
endfacet
facet normal -0.09617051917120523 -0.9953648734219733 0
  outer loop
    vertex -0.41400000000000003 -2.21 3.5
    vertex 0 -2.25 3
    vertex 0 -2.25 3.5
  endloop
endfacet
facet normal 0 0 1
  outer loop
    vertex -0.41400000000000003 -2.21 3.5
    vertex 0 -2.25 3.5
    vertex 0.41400000000000003 -2.21 3.5
  endloop
endfacet
facet normal -0.09617051917120523 0.9953648734219733 0
  outer loop
    vertex -0.41400000000000003 2.21 -3.5
    vertex -0.41400000000000003 2.21 -3
    vertex 0 2.25 -3
  endloop
endfacet
facet normal 0 0 -1
  outer loop
    vertex -0.41400000000000003 2.21 -3.5
    vertex 0 2.25 -3.5
    vertex 0.41400000000000003 2.21 -3.5
  endloop
endfacet
facet normal -0.09617051917120523 0.9953648734219733 0
  outer loop
    vertex -0.41400000000000003 2.21 -3.5
    vertex 0 2.25 -3
    vertex 0 2.25 -3.5
  endloop
endfacet
facet normal 0 0 1
  outer loop
    vertex -0.41400000000000003 2.21 -3
    vertex 0.41400000000000003 2.21 -3
    vertex 0 2.25 -3
  endloop
endfacet
facet normal -0.09617051917120523 0.9953648734219733 0
  outer loop
    vertex -0.41400000000000003 2.21 3
    vertex -0.41400000000000003 2.21 3.5
    vertex 0 2.25 3.5
  endloop
endfacet
facet normal 0 0 -1
  outer loop
    vertex -0.41400000000000003 2.21 3
    vertex 0 2.25 3
    vertex 0.41400000000000003 2.21 3
  endloop
endfacet
facet normal -0.09617051917120523 0.9953648734219733 0
  outer loop
    vertex -0.41400000000000003 2.21 3
    vertex 0 2.25 3.5
    vertex 0 2.25 3
  endloop
endfacet
facet normal 0 0 1
  outer loop
    vertex -0.41400000000000003 2.21 3.5
    vertex 0.41400000000000003 2.21 3.5
    vertex 0 2.25 3.5
  endloop
endfacet
facet normal 0.09156771056279926 -0.9957988523704411 0
  outer loop
    vertex 0 -2.5 -3
    vertex 0.435 -2.46 -3
    vertex 0 -2.5 3
  endloop
endfacet
facet normal 0.09156771056279926 -0.9957988523704411 0
  outer loop
    vertex 0 -2.5 3
    vertex 0.435 -2.46 -3
    vertex 0.435 -2.46 3
  endloop
endfacet
facet normal 0.09617051917120523 -0.9953648734219733 0
  outer loop
    vertex 0 -2.25 -3.5
    vertex 0.41400000000000003 -2.21 -3.5
    vertex 0 -2.25 -3
  endloop
endfacet
facet normal 0.09617051917120523 -0.9953648734219733 0
  outer loop
    vertex 0 -2.25 -3
    vertex 0.41400000000000003 -2.21 -3.5
    vertex 0.41400000000000003 -2.21 -3
  endloop
endfacet
facet normal 0.09617051917120523 -0.9953648734219733 0
  outer loop
    vertex 0 -2.25 3
    vertex 0.41400000000000003 -2.21 3
    vertex 0 -2.25 3.5
  endloop
endfacet
facet normal 0.09617051917120523 -0.9953648734219733 0
  outer loop
    vertex 0 -2.25 3.5
    vertex 0.41400000000000003 -2.21 3
    vertex 0.41400000000000003 -2.21 3.5
  endloop
endfacet
facet normal 0.09617051917120523 0.9953648734219733 0
  outer loop
    vertex 0 2.25 -3.5
    vertex 0 2.25 -3
    vertex 0.41400000000000003 2.21 -3
  endloop
endfacet
facet normal 0.09617051917120523 0.9953648734219733 0
  outer loop
    vertex 0 2.25 -3.5
    vertex 0.41400000000000003 2.21 -3
    vertex 0.41400000000000003 2.21 -3.5
  endloop
endfacet
facet normal 0.09617051917120523 0.9953648734219733 0
  outer loop
    vertex 0 2.25 3
    vertex 0 2.25 3.5
    vertex 0.41400000000000003 2.21 3.5
  endloop
endfacet
facet normal 0.09617051917120523 0.9953648734219733 0
  outer loop
    vertex 0 2.25 3
    vertex 0.41400000000000003 2.21 3.5
    vertex 0.41400000000000003 2.21 3
  endloop
endfacet
facet normal 0.09156771056279926 0.9957988523704411 0
  outer loop
    vertex 0 2.5 -3
    vertex 0 2.5 3
    vertex 0.435 2.46 3
  endloop
endfacet
facet normal 0.09156771056279926 0.9957988523704411 0
  outer loop
    vertex 0 2.5 -3
    vertex 0.435 2.46 3
    vertex 0.435 2.46 -3
  endloop
endfacet
facet normal 0.2663945889881788 -0.9638640583390478 0
  outer loop
    vertex 0.41400000000000003 -2.21 -3.5
    vertex 0.812 -2.1 -3.5
    vertex 0.41400000000000003 -2.21 -3
  endloop
endfacet
facet normal -6.54921557707136e-15 0 -1
  outer loop
    vertex 0.41400000000000003 -2.21 -3.5
    vertex 1.184 -1.9120000000000001 -3.5
    vertex 0.812 -2.1 -3.5
  endloop
endfacet
facet normal 0 0 -1
  outer loop
    vertex 0.41400000000000003 -2.21 -3.5
    vertex 1.793 -1.358 -3.5
    vertex 1.184 -1.9120000000000001 -3.5
  endloop
endfacet
facet normal 1.4737502307666936e-15 0 -1
  outer loop
    vertex 0.41400000000000003 -2.21 -3.5
    vertex 2.238 -0.209 -3.5
    vertex 1.793 -1.358 -3.5
  endloop
endfacet
facet normal 0.2663945889881787 -0.9638640583390479 0
  outer loop
    vertex 0.41400000000000003 -2.21 -3
    vertex 0.812 -2.1 -3.5
    vertex 0.812 -2.1 -3
  endloop
endfacet
facet normal 0 0 1
  outer loop
    vertex 0.41400000000000003 -2.21 -3
    vertex 0.812 -2.1 -3
    vertex 1.184 -1.9120000000000001 -3
  endloop
endfacet
facet normal 0 0 1
  outer loop
    vertex 0.41400000000000003 -2.21 -3
    vertex 1.184 -1.9120000000000001 -3
    vertex 1.793 -1.358 -3
  endloop
endfacet
facet normal -7.368751153833468e-16 0 1
  outer loop
    vertex 0.41400000000000003 -2.21 -3
    vertex 1.793 -1.358 -3
    vertex 2.238 -0.209 -3
  endloop
endfacet
facet normal 0.2663945889881788 -0.9638640583390478 0
  outer loop
    vertex 0.41400000000000003 -2.21 3
    vertex 0.812 -2.1 3
    vertex 0.41400000000000003 -2.21 3.5
  endloop
endfacet
facet normal 0 0 -1
  outer loop
    vertex 0.41400000000000003 -2.21 3
    vertex 1.184 -1.9120000000000001 3
    vertex 0.812 -2.1 3
  endloop
endfacet
facet normal 0 0 -1
  outer loop
    vertex 0.41400000000000003 -2.21 3
    vertex 1.793 -1.358 3
    vertex 1.184 -1.9120000000000001 3
  endloop
endfacet
facet normal -7.368751153833468e-16 0 -1
  outer loop
    vertex 0.41400000000000003 -2.21 3
    vertex 2.238 -0.209 3
    vertex 1.793 -1.358 3
  endloop
endfacet
facet normal 0.2663945889881787 -0.9638640583390479 0
  outer loop
    vertex 0.41400000000000003 -2.21 3.5
    vertex 0.812 -2.1 3
    vertex 0.812 -2.1 3.5
  endloop
endfacet
facet normal -6.54921557707136e-15 0 1
  outer loop
    vertex 0.41400000000000003 -2.21 3.5
    vertex 0.812 -2.1 3.5
    vertex 1.184 -1.9120000000000001 3.5
  endloop
endfacet
facet normal 0 0 1
  outer loop
    vertex 0.41400000000000003 -2.21 3.5
    vertex 1.184 -1.9120000000000001 3.5
    vertex 1.793 -1.358 3.5
  endloop
endfacet
facet normal 1.4737502307666936e-15 0 1
  outer loop
    vertex 0.41400000000000003 -2.21 3.5
    vertex 1.793 -1.358 3.5
    vertex 2.238 -0.209 3.5
  endloop
endfacet
facet normal 0.2663945889881788 0.9638640583390478 0
  outer loop
    vertex 0.41400000000000003 2.21 -3.5
    vertex 0.41400000000000003 2.21 -3
    vertex 0.812 2.1 -3
  endloop
endfacet
facet normal -6.54921557707136e-15 0 -1
  outer loop
    vertex 0.41400000000000003 2.21 -3.5
    vertex 0.812 2.1 -3.5
    vertex 1.184 1.9120000000000001 -3.5
  endloop
endfacet
facet normal 0.2663945889881787 0.9638640583390479 0
  outer loop
    vertex 0.41400000000000003 2.21 -3.5
    vertex 0.812 2.1 -3
    vertex 0.812 2.1 -3.5
  endloop
endfacet
facet normal 0 0 -1
  outer loop
    vertex 0.41400000000000003 2.21 -3.5
    vertex 1.184 1.9120000000000001 -3.5
    vertex 1.793 1.358 -3.5
  endloop
endfacet
facet normal 1.4737502307666936e-15 0 -1
  outer loop
    vertex 0.41400000000000003 2.21 -3.5
    vertex 1.793 1.358 -3.5
    vertex 2.238 0.209 -3.5
  endloop
endfacet
facet normal 0 0 1
  outer loop
    vertex 0.41400000000000003 2.21 -3
    vertex 1.184 1.9120000000000001 -3
    vertex 0.812 2.1 -3
  endloop
endfacet
facet normal 0 0 1
  outer loop
    vertex 0.41400000000000003 2.21 -3
    vertex 1.793 1.358 -3
    vertex 1.184 1.9120000000000001 -3
  endloop
endfacet
facet normal -7.368751153833468e-16 0 1
  outer loop
    vertex 0.41400000000000003 2.21 -3
    vertex 2.238 0.209 -3
    vertex 1.793 1.358 -3
  endloop
endfacet
facet normal 0.2663945889881788 0.9638640583390478 0
  outer loop
    vertex 0.41400000000000003 2.21 3
    vertex 0.41400000000000003 2.21 3.5
    vertex 0.812 2.1 3.5
  endloop
endfacet
facet normal 0 0 -1
  outer loop
    vertex 0.41400000000000003 2.21 3
    vertex 0.812 2.1 3
    vertex 1.184 1.9120000000000001 3
  endloop
endfacet
facet normal 0.2663945889881787 0.9638640583390479 0
  outer loop
    vertex 0.41400000000000003 2.21 3
    vertex 0.812 2.1 3.5
    vertex 0.812 2.1 3
  endloop
endfacet
facet normal 0 0 -1
  outer loop
    vertex 0.41400000000000003 2.21 3
    vertex 1.184 1.9120000000000001 3
    vertex 1.793 1.358 3
  endloop
endfacet
facet normal -7.368751153833468e-16 0 -1
  outer loop
    vertex 0.41400000000000003 2.21 3
    vertex 1.793 1.358 3
    vertex 2.238 0.209 3
  endloop
endfacet
facet normal -6.54921557707136e-15 0 1
  outer loop
    vertex 0.41400000000000003 2.21 3.5
    vertex 1.184 1.9120000000000001 3.5
    vertex 0.812 2.1 3.5
  endloop
endfacet
facet normal 0 0 1
  outer loop
    vertex 0.41400000000000003 2.21 3.5
    vertex 1.793 1.358 3.5
    vertex 1.184 1.9120000000000001 3.5
  endloop
endfacet
facet normal 1.4737502307666936e-15 0 1
  outer loop
    vertex 0.41400000000000003 2.21 3.5
    vertex 2.238 0.209 3.5
    vertex 1.793 1.358 3.5
  endloop
endfacet
facet normal 0 0 -1
  outer loop
    vertex 0.435 -2.46 -3
    vertex 0.435 2.46 -3
    vertex 2.46 -0.435 -3
  endloop
endfacet
facet normal 0.25652203524650696 -0.9665383828038026 0
  outer loop
    vertex 0.435 -2.46 -3
    vertex 0.857 -2.348 -3
    vertex 0.435 -2.46 3
  endloop
endfacet
facet normal 0 0 -1
  outer loop
    vertex 0.435 -2.46 -3
    vertex 1.607 -1.917 -3
    vertex 0.857 -2.348 -3
  endloop
endfacet
facet normal 2.2774973580699734e-15 0 -0.9999999999999999
  outer loop
    vertex 0.435 -2.46 -3
    vertex 1.917 -1.607 -3
    vertex 1.607 -1.917 -3
  endloop
endfacet
facet normal -1.3946156661761766e-15 0 -1
  outer loop
    vertex 0.435 -2.46 -3
    vertex 2.46 -0.435 -3
    vertex 1.917 -1.607 -3
  endloop
endfacet
facet normal 0.25652203524650724 -0.9665383828038024 0
  outer loop
    vertex 0.435 -2.46 3
    vertex 0.857 -2.348 -3
    vertex 0.857 -2.348 3
  endloop
endfacet
facet normal 0 0 1
  outer loop
    vertex 0.435 -2.46 3
    vertex 0.857 -2.348 3
    vertex 1.607 -1.917 3
  endloop
endfacet
facet normal 2.2774973580699734e-15 0 0.9999999999999999
  outer loop
    vertex 0.435 -2.46 3
    vertex 1.607 -1.917 3
    vertex 1.917 -1.607 3
  endloop
endfacet
facet normal -1.3946156661761766e-15 0 1
  outer loop
    vertex 0.435 -2.46 3
    vertex 1.917 -1.607 3
    vertex 2.46 -0.435 3
  endloop
endfacet
facet normal 0 0 1
  outer loop
    vertex 0.435 -2.46 3
    vertex 2.46 -0.435 3
    vertex 0.435 2.46 3
  endloop
endfacet
facet normal 0.25652203524650696 0.9665383828038026 0
  outer loop
    vertex 0.435 2.46 -3
    vertex 0.435 2.46 3
    vertex 0.857 2.348 3
  endloop
endfacet
facet normal 0 0 -1
  outer loop
    vertex 0.435 2.46 -3
    vertex 0.857 2.348 -3
    vertex 1.607 1.917 -3
  endloop
endfacet
facet normal 0.25652203524650724 0.9665383828038024 0
  outer loop
    vertex 0.435 2.46 -3
    vertex 0.857 2.348 3
    vertex 0.857 2.348 -3
  endloop
endfacet
facet normal 2.2774973580699734e-15 0 -0.9999999999999999
  outer loop
    vertex 0.435 2.46 -3
    vertex 1.607 1.917 -3
    vertex 1.917 1.607 -3
  endloop
endfacet
facet normal -1.3946156661761766e-15 0 -1
  outer loop
    vertex 0.435 2.46 -3
    vertex 1.917 1.607 -3
    vertex 2.46 0.435 -3
  endloop
endfacet
facet normal 1.5124366448703704e-15 0 -0.9999999999999999
  outer loop
    vertex 0.435 2.46 -3
    vertex 2.46 0.435 -3
    vertex 2.46 -0.435 -3
  endloop
endfacet
facet normal 0 0 1
  outer loop
    vertex 0.435 2.46 3
    vertex 1.607 1.917 3
    vertex 0.857 2.348 3
  endloop
endfacet
facet normal 2.2774973580699734e-15 0 0.9999999999999999
  outer loop
    vertex 0.435 2.46 3
    vertex 1.917 1.607 3
    vertex 1.607 1.917 3
  endloop
endfacet
facet normal 1.5124366448703704e-15 0 0.9999999999999999
  outer loop
    vertex 0.435 2.46 3
    vertex 2.46 -0.435 3
    vertex 2.46 0.435 3
  endloop
endfacet
facet normal -1.3946156661761766e-15 0 1
  outer loop
    vertex 0.435 2.46 3
    vertex 2.46 0.435 3
    vertex 1.917 1.607 3
  endloop
endfacet
facet normal 0.4510481846883604 -0.8924995994897333 0
  outer loop
    vertex 0.812 -2.1 -3.5
    vertex 1.184 -1.9120000000000001 -3.5
    vertex 0.812 -2.1 -3
  endloop
endfacet
facet normal 0.4510481846883596 -0.8924995994897339 0
  outer loop
    vertex 0.812 -2.1 -3
    vertex 1.184 -1.9120000000000001 -3.5
    vertex 1.184 -1.9120000000000001 -3
  endloop
endfacet
facet normal 0.4510481846883596 -0.8924995994897339 0
  outer loop
    vertex 0.812 -2.1 3
    vertex 1.184 -1.9120000000000001 3
    vertex 0.812 -2.1 3.5
  endloop
endfacet
facet normal 0.4510481846883604 -0.8924995994897333 0
  outer loop
    vertex 0.812 -2.1 3.5
    vertex 1.184 -1.9120000000000001 3
    vertex 1.184 -1.9120000000000001 3.5
  endloop
endfacet
facet normal 0.4510481846883596 0.8924995994897339 0
  outer loop
    vertex 0.812 2.1 -3.5
    vertex 0.812 2.1 -3
    vertex 1.184 1.9120000000000001 -3
  endloop
endfacet
facet normal 0.4510481846883604 0.8924995994897333 0
  outer loop
    vertex 0.812 2.1 -3.5
    vertex 1.184 1.9120000000000001 -3
    vertex 1.184 1.9120000000000001 -3.5
  endloop
endfacet
facet normal 0.4510481846883604 0.8924995994897333 0
  outer loop
    vertex 0.812 2.1 3
    vertex 0.812 2.1 3.5
    vertex 1.184 1.9120000000000001 3.5
  endloop
endfacet
facet normal 0.4510481846883596 0.8924995994897339 0
  outer loop
    vertex 0.812 2.1 3
    vertex 1.184 1.9120000000000001 3.5
    vertex 1.184 1.9120000000000001 3
  endloop
endfacet
facet normal 0.41832522491925933 -0.9082973115650245 0
  outer loop
    vertex 0.857 -2.348 -3
    vertex 1.25 -2.1670000000000003 -3
    vertex 0.857 -2.348 3
  endloop
endfacet
facet normal 0 0 -1
  outer loop
    vertex 0.857 -2.348 -3
    vertex 1.607 -1.917 -3
    vertex 1.25 -2.1670000000000003 -3
  endloop
endfacet
facet normal 0.4183252249192598 -0.9082973115650241 0
  outer loop
    vertex 0.857 -2.348 3
    vertex 1.25 -2.1670000000000003 -3
    vertex 1.25 -2.1670000000000003 3
  endloop
endfacet
facet normal 0 0 1
  outer loop
    vertex 0.857 -2.348 3
    vertex 1.25 -2.1670000000000003 3
    vertex 1.607 -1.917 3
  endloop
endfacet
facet normal 0.41832522491925933 0.9082973115650245 0
  outer loop
    vertex 0.857 2.348 -3
    vertex 0.857 2.348 3
    vertex 1.25 2.1670000000000003 3
  endloop
endfacet
facet normal 0 0 -1
  outer loop
    vertex 0.857 2.348 -3
    vertex 1.25 2.1670000000000003 -3
    vertex 1.607 1.917 -3
  endloop
endfacet
facet normal 0.4183252249192598 0.9082973115650241 0
  outer loop
    vertex 0.857 2.348 -3
    vertex 1.25 2.1670000000000003 3
    vertex 1.25 2.1670000000000003 -3
  endloop
endfacet
facet normal 0 0 1
  outer loop
    vertex 0.857 2.348 3
    vertex 1.607 1.917 3
    vertex 1.25 2.1670000000000003 3
  endloop
endfacet
facet normal 0.5988449753725008 -0.8008649670644289 0
  outer loop
    vertex 1.184 -1.9120000000000001 -3.5
    vertex 1.5170000000000001 -1.663 -3.5
    vertex 1.184 -1.9120000000000001 -3
  endloop
endfacet
facet normal -1.352240217563611e-14 0 -1
  outer loop
    vertex 1.184 -1.9120000000000001 -3.5
    vertex 1.793 -1.358 -3.5
    vertex 1.5170000000000001 -1.663 -3.5
  endloop
endfacet
facet normal 0.5988449753725008 -0.8008649670644289 0
  outer loop
    vertex 1.184 -1.9120000000000001 -3
    vertex 1.5170000000000001 -1.663 -3.5
    vertex 1.5170000000000001 -1.663 -3
  endloop
endfacet
facet normal 0 0 1
  outer loop
    vertex 1.184 -1.9120000000000001 -3
    vertex 1.5170000000000001 -1.663 -3
    vertex 1.793 -1.358 -3
  endloop
endfacet
facet normal 0.5988449753725008 -0.8008649670644289 0
  outer loop
    vertex 1.184 -1.9120000000000001 3
    vertex 1.5170000000000001 -1.663 3
    vertex 1.184 -1.9120000000000001 3.5
  endloop
endfacet
facet normal 0 0 -1
  outer loop
    vertex 1.184 -1.9120000000000001 3
    vertex 1.793 -1.358 3
    vertex 1.5170000000000001 -1.663 3
  endloop
endfacet
facet normal 0.5988449753725008 -0.8008649670644289 0
  outer loop
    vertex 1.184 -1.9120000000000001 3.5
    vertex 1.5170000000000001 -1.663 3
    vertex 1.5170000000000001 -1.663 3.5
  endloop
endfacet
facet normal -1.352240217563611e-14 0 1
  outer loop
    vertex 1.184 -1.9120000000000001 3.5
    vertex 1.5170000000000001 -1.663 3.5
    vertex 1.793 -1.358 3.5
  endloop
endfacet
facet normal 0.5988449753725008 0.8008649670644289 0
  outer loop
    vertex 1.184 1.9120000000000001 -3.5
    vertex 1.184 1.9120000000000001 -3
    vertex 1.5170000000000001 1.663 -3
  endloop
endfacet
facet normal -1.352240217563611e-14 0 -1
  outer loop
    vertex 1.184 1.9120000000000001 -3.5
    vertex 1.5170000000000001 1.663 -3.5
    vertex 1.793 1.358 -3.5
  endloop
endfacet
facet normal 0.5988449753725008 0.8008649670644289 0
  outer loop
    vertex 1.184 1.9120000000000001 -3.5
    vertex 1.5170000000000001 1.663 -3
    vertex 1.5170000000000001 1.663 -3.5
  endloop
endfacet
facet normal 0 0 1
  outer loop
    vertex 1.184 1.9120000000000001 -3
    vertex 1.793 1.358 -3
    vertex 1.5170000000000001 1.663 -3
  endloop
endfacet
facet normal 0.5988449753725008 0.8008649670644289 0
  outer loop
    vertex 1.184 1.9120000000000001 3
    vertex 1.184 1.9120000000000001 3.5
    vertex 1.5170000000000001 1.663 3.5
  endloop
endfacet
facet normal 0 0 -1
  outer loop
    vertex 1.184 1.9120000000000001 3
    vertex 1.5170000000000001 1.663 3
    vertex 1.793 1.358 3
  endloop
endfacet
facet normal 0.5988449753725008 0.8008649670644289 0
  outer loop
    vertex 1.184 1.9120000000000001 3
    vertex 1.5170000000000001 1.663 3.5
    vertex 1.5170000000000001 1.663 3
  endloop
endfacet
facet normal -1.352240217563611e-14 0 1
  outer loop
    vertex 1.184 1.9120000000000001 3.5
    vertex 1.793 1.358 3.5
    vertex 1.5170000000000001 1.663 3.5
  endloop
endfacet
facet normal 0.5736163251921271 -0.8191241123743579 0
  outer loop
    vertex 1.25 -2.1670000000000003 -3
    vertex 1.607 -1.917 -3
    vertex 1.25 -2.1670000000000003 3
  endloop
endfacet
facet normal 0.5736163251921284 -0.819124112374357 0
  outer loop
    vertex 1.25 -2.1670000000000003 3
    vertex 1.607 -1.917 -3
    vertex 1.607 -1.917 3
  endloop
endfacet
facet normal 0.5736163251921271 0.8191241123743579 0
  outer loop
    vertex 1.25 2.1670000000000003 -3
    vertex 1.25 2.1670000000000003 3
    vertex 1.607 1.917 3
  endloop
endfacet
facet normal 0.5736163251921284 0.819124112374357 0
  outer loop
    vertex 1.25 2.1670000000000003 -3
    vertex 1.607 1.917 3
    vertex 1.607 1.917 -3
  endloop
endfacet
facet normal 0.7414781823214887 -0.6709769781007551 0
  outer loop
    vertex 1.5170000000000001 -1.663 -3.5
    vertex 1.793 -1.358 -3.5
    vertex 1.5170000000000001 -1.663 -3
  endloop
endfacet
facet normal 0.7414781823214877 -0.6709769781007562 0
  outer loop
    vertex 1.5170000000000001 -1.663 -3
    vertex 1.793 -1.358 -3.5
    vertex 1.793 -1.358 -3
  endloop
endfacet
facet normal 0.7414781823214877 -0.6709769781007562 0
  outer loop
    vertex 1.5170000000000001 -1.663 3
    vertex 1.793 -1.358 3
    vertex 1.5170000000000001 -1.663 3.5
  endloop
endfacet
facet normal 0.7414781823214887 -0.6709769781007551 0
  outer loop
    vertex 1.5170000000000001 -1.663 3.5
    vertex 1.793 -1.358 3
    vertex 1.793 -1.358 3.5
  endloop
endfacet
facet normal 0.7414781823214877 0.6709769781007562 0
  outer loop
    vertex 1.5170000000000001 1.663 -3.5
    vertex 1.5170000000000001 1.663 -3
    vertex 1.793 1.358 -3
  endloop
endfacet
facet normal 0.7414781823214887 0.6709769781007551 0
  outer loop
    vertex 1.5170000000000001 1.663 -3.5
    vertex 1.793 1.358 -3
    vertex 1.793 1.358 -3.5
  endloop
endfacet
facet normal 0.7414781823214887 0.6709769781007551 0
  outer loop
    vertex 1.5170000000000001 1.663 3
    vertex 1.5170000000000001 1.663 3.5
    vertex 1.793 1.358 3.5
  endloop
endfacet
facet normal 0.7414781823214877 0.6709769781007562 0
  outer loop
    vertex 1.5170000000000001 1.663 3
    vertex 1.793 1.358 3.5
    vertex 1.793 1.358 3
  endloop
endfacet
facet normal 0.7071067811865478 -0.7071067811865475 0
  outer loop
    vertex 1.607 -1.917 -3
    vertex 1.917 -1.607 -3
    vertex 1.607 -1.917 3
  endloop
endfacet
facet normal 0.707106781186547 -0.707106781186548 0
  outer loop
    vertex 1.607 -1.917 3
    vertex 1.917 -1.607 -3
    vertex 1.917 -1.607 3
  endloop
endfacet
facet normal 0.7071067811865478 0.7071067811865475 0
  outer loop
    vertex 1.607 1.917 -3
    vertex 1.607 1.917 3
    vertex 1.917 1.607 3
  endloop
endfacet
facet normal 0.707106781186547 0.707106781186548 0
  outer loop
    vertex 1.607 1.917 -3
    vertex 1.917 1.607 3
    vertex 1.917 1.607 -3
  endloop
endfacet
facet normal 0.8493434690654464 -0.5278405739954755 0
  outer loop
    vertex 1.793 -1.358 -3.5
    vertex 2.013 -1.004 -3.5
    vertex 1.793 -1.358 -3
  endloop
endfacet
facet normal 1.3580709781347512e-14 0 -1
  outer loop
    vertex 1.793 -1.358 -3.5
    vertex 2.1630000000000003 -0.614 -3.5
    vertex 2.013 -1.004 -3.5
  endloop
endfacet
facet normal -1.8887366713452902e-14 0 -1
  outer loop
    vertex 1.793 -1.358 -3.5
    vertex 2.238 -0.209 -3.5
    vertex 2.1630000000000003 -0.614 -3.5
  endloop
endfacet
facet normal 0.8493434690654469 -0.5278405739954747 0
  outer loop
    vertex 1.793 -1.358 -3
    vertex 2.013 -1.004 -3.5
    vertex 2.013 -1.004 -3
  endloop
endfacet
facet normal 0 0 1
  outer loop
    vertex 1.793 -1.358 -3
    vertex 2.013 -1.004 -3
    vertex 2.1630000000000003 -0.614 -3
  endloop
endfacet
facet normal 4.7218416783632256e-15 0 1
  outer loop
    vertex 1.793 -1.358 -3
    vertex 2.1630000000000003 -0.614 -3
    vertex 2.238 -0.209 -3
  endloop
endfacet
facet normal 0.8493434690654464 -0.5278405739954755 0
  outer loop
    vertex 1.793 -1.358 3
    vertex 2.013 -1.004 3
    vertex 1.793 -1.358 3.5
  endloop
endfacet
facet normal 0 0 -1
  outer loop
    vertex 1.793 -1.358 3
    vertex 2.1630000000000003 -0.614 3
    vertex 2.013 -1.004 3
  endloop
endfacet
facet normal 4.7218416783632256e-15 0 -1
  outer loop
    vertex 1.793 -1.358 3
    vertex 2.238 -0.209 3
    vertex 2.1630000000000003 -0.614 3
  endloop
endfacet
facet normal 0.8493434690654469 -0.5278405739954747 0
  outer loop
    vertex 1.793 -1.358 3.5
    vertex 2.013 -1.004 3
    vertex 2.013 -1.004 3.5
  endloop
endfacet
facet normal 1.3580709781347512e-14 0 1
  outer loop
    vertex 1.793 -1.358 3.5
    vertex 2.013 -1.004 3.5
    vertex 2.1630000000000003 -0.614 3.5
  endloop
endfacet
facet normal -1.8887366713452902e-14 0 1
  outer loop
    vertex 1.793 -1.358 3.5
    vertex 2.1630000000000003 -0.614 3.5
    vertex 2.238 -0.209 3.5
  endloop
endfacet
facet normal 0.8493434690654464 0.5278405739954755 0
  outer loop
    vertex 1.793 1.358 -3.5
    vertex 1.793 1.358 -3
    vertex 2.013 1.004 -3
  endloop
endfacet
facet normal 1.3580709781347512e-14 0 -1
  outer loop
    vertex 1.793 1.358 -3.5
    vertex 2.013 1.004 -3.5
    vertex 2.1630000000000003 0.614 -3.5
  endloop
endfacet
facet normal 0.8493434690654469 0.5278405739954747 0
  outer loop
    vertex 1.793 1.358 -3.5
    vertex 2.013 1.004 -3
    vertex 2.013 1.004 -3.5
  endloop
endfacet
facet normal -1.8887366713452902e-14 0 -1
  outer loop
    vertex 1.793 1.358 -3.5
    vertex 2.1630000000000003 0.614 -3.5
    vertex 2.238 0.209 -3.5
  endloop
endfacet
facet normal 0 0 1
  outer loop
    vertex 1.793 1.358 -3
    vertex 2.1630000000000003 0.614 -3
    vertex 2.013 1.004 -3
  endloop
endfacet
facet normal 4.7218416783632256e-15 0 1
  outer loop
    vertex 1.793 1.358 -3
    vertex 2.238 0.209 -3
    vertex 2.1630000000000003 0.614 -3
  endloop
endfacet
facet normal 0.8493434690654464 0.5278405739954755 0
  outer loop
    vertex 1.793 1.358 3
    vertex 1.793 1.358 3.5
    vertex 2.013 1.004 3.5
  endloop
endfacet
facet normal 0 0 -1
  outer loop
    vertex 1.793 1.358 3
    vertex 2.013 1.004 3
    vertex 2.1630000000000003 0.614 3
  endloop
endfacet
facet normal 0.8493434690654469 0.5278405739954747 0
  outer loop
    vertex 1.793 1.358 3
    vertex 2.013 1.004 3.5
    vertex 2.013 1.004 3
  endloop
endfacet
facet normal 4.7218416783632256e-15 0 -1
  outer loop
    vertex 1.793 1.358 3
    vertex 2.1630000000000003 0.614 3
    vertex 2.238 0.209 3
  endloop
endfacet
facet normal 1.3580709781347512e-14 0 1
  outer loop
    vertex 1.793 1.358 3.5
    vertex 2.1630000000000003 0.614 3.5
    vertex 2.013 1.004 3.5
  endloop
endfacet
facet normal -1.8887366713452902e-14 0 1
  outer loop
    vertex 1.793 1.358 3.5
    vertex 2.238 0.209 3.5
    vertex 2.1630000000000003 0.614 3.5
  endloop
endfacet
facet normal 0.8191241123743572 -0.5736163251921282 0
  outer loop
    vertex 1.917 -1.607 -3
    vertex 2.1670000000000003 -1.25 -3
    vertex 1.917 -1.607 3
  endloop
endfacet
facet normal 0 0 -1
  outer loop
    vertex 1.917 -1.607 -3
    vertex 2.348 -0.857 -3
    vertex 2.1670000000000003 -1.25 -3
  endloop
endfacet
facet normal 0 0 -1
  outer loop
    vertex 1.917 -1.607 -3
    vertex 2.46 -0.435 -3
    vertex 2.348 -0.857 -3
  endloop
endfacet
facet normal 0.8191241123743579 -0.5736163251921274 0
  outer loop
    vertex 1.917 -1.607 3
    vertex 2.1670000000000003 -1.25 -3
    vertex 2.1670000000000003 -1.25 3
  endloop
endfacet
facet normal 0 0 1
  outer loop
    vertex 1.917 -1.607 3
    vertex 2.1670000000000003 -1.25 3
    vertex 2.348 -0.857 3
  endloop
endfacet
facet normal 0 0 1
  outer loop
    vertex 1.917 -1.607 3
    vertex 2.348 -0.857 3
    vertex 2.46 -0.435 3
  endloop
endfacet
facet normal 0.8191241123743572 0.5736163251921282 0
  outer loop
    vertex 1.917 1.607 -3
    vertex 1.917 1.607 3
    vertex 2.1670000000000003 1.25 3
  endloop
endfacet
facet normal 0 0 -1
  outer loop
    vertex 1.917 1.607 -3
    vertex 2.1670000000000003 1.25 -3
    vertex 2.348 0.857 -3
  endloop
endfacet
facet normal 0.8191241123743579 0.5736163251921274 0
  outer loop
    vertex 1.917 1.607 -3
    vertex 2.1670000000000003 1.25 3
    vertex 2.1670000000000003 1.25 -3
  endloop
endfacet
facet normal 0 0 -1
  outer loop
    vertex 1.917 1.607 -3
    vertex 2.348 0.857 -3
    vertex 2.46 0.435 -3
  endloop
endfacet
facet normal 0 0 1
  outer loop
    vertex 1.917 1.607 3
    vertex 2.348 0.857 3
    vertex 2.1670000000000003 1.25 3
  endloop
endfacet
facet normal 0 0 1
  outer loop
    vertex 1.917 1.607 3
    vertex 2.46 0.435 3
    vertex 2.348 0.857 3
  endloop
endfacet
facet normal 0.9333456062030593 -0.3589790793088701 0
  outer loop
    vertex 2.013 -1.004 -3.5
    vertex 2.1630000000000003 -0.614 -3.5
    vertex 2.013 -1.004 -3
  endloop
endfacet
facet normal 0.9333456062030595 -0.35897907930886935 0
  outer loop
    vertex 2.013 -1.004 -3
    vertex 2.1630000000000003 -0.614 -3.5
    vertex 2.1630000000000003 -0.614 -3
  endloop
endfacet
facet normal 0.9333456062030595 -0.35897907930886935 0
  outer loop
    vertex 2.013 -1.004 3
    vertex 2.1630000000000003 -0.614 3
    vertex 2.013 -1.004 3.5
  endloop
endfacet
facet normal 0.9333456062030593 -0.3589790793088701 0
  outer loop
    vertex 2.013 -1.004 3.5
    vertex 2.1630000000000003 -0.614 3
    vertex 2.1630000000000003 -0.614 3.5
  endloop
endfacet
facet normal 0.9333456062030595 0.35897907930886935 0
  outer loop
    vertex 2.013 1.004 -3.5
    vertex 2.013 1.004 -3
    vertex 2.1630000000000003 0.614 -3
  endloop
endfacet
facet normal 0.9333456062030593 0.3589790793088701 0
  outer loop
    vertex 2.013 1.004 -3.5
    vertex 2.1630000000000003 0.614 -3
    vertex 2.1630000000000003 0.614 -3.5
  endloop
endfacet
facet normal 0.9333456062030593 0.3589790793088701 0
  outer loop
    vertex 2.013 1.004 3
    vertex 2.013 1.004 3.5
    vertex 2.1630000000000003 0.614 3.5
  endloop
endfacet
facet normal 0.9333456062030595 0.35897907930886935 0
  outer loop
    vertex 2.013 1.004 3
    vertex 2.1630000000000003 0.614 3.5
    vertex 2.1630000000000003 0.614 3
  endloop
endfacet
facet normal 0.9832820049844605 -0.18208926018230606 0
  outer loop
    vertex 2.1630000000000003 -0.614 -3.5
    vertex 2.238 -0.209 -3.5
    vertex 2.1630000000000003 -0.614 -3
  endloop
endfacet
facet normal 0.9832820049844602 -0.18208926018230776 0
  outer loop
    vertex 2.1630000000000003 -0.614 -3
    vertex 2.238 -0.209 -3.5
    vertex 2.238 -0.209 -3
  endloop
endfacet
facet normal 0.9832820049844607 -0.1820892601823057 0
  outer loop
    vertex 2.1630000000000003 -0.614 3
    vertex 2.238 -0.209 3
    vertex 2.1630000000000003 -0.614 3.5
  endloop
endfacet
facet normal 0.98328200498446 -0.18208926018230812 0
  outer loop
    vertex 2.1630000000000003 -0.614 3.5
    vertex 2.238 -0.209 3
    vertex 2.238 -0.209 3.5
  endloop
endfacet
facet normal 0.9832820049844607 0.1820892601823057 0
  outer loop
    vertex 2.1630000000000003 0.614 -3.5
    vertex 2.1630000000000003 0.614 -3
    vertex 2.238 0.209 -3
  endloop
endfacet
facet normal 0.98328200498446 0.18208926018230812 0
  outer loop
    vertex 2.1630000000000003 0.614 -3.5
    vertex 2.238 0.209 -3
    vertex 2.238 0.209 -3.5
  endloop
endfacet
facet normal 0.9832820049844605 0.18208926018230606 0
  outer loop
    vertex 2.1630000000000003 0.614 3
    vertex 2.1630000000000003 0.614 3.5
    vertex 2.238 0.209 3.5
  endloop
endfacet
facet normal 0.9832820049844602 0.18208926018230776 0
  outer loop
    vertex 2.1630000000000003 0.614 3
    vertex 2.238 0.209 3.5
    vertex 2.238 0.209 3
  endloop
endfacet
facet normal 0.9082973115650241 -0.4183252249192599 0
  outer loop
    vertex 2.1670000000000003 -1.25 -3
    vertex 2.348 -0.857 -3
    vertex 2.1670000000000003 -1.25 3
  endloop
endfacet
facet normal 0.9082973115650247 -0.4183252249192588 0
  outer loop
    vertex 2.1670000000000003 -1.25 3
    vertex 2.348 -0.857 -3
    vertex 2.348 -0.857 3
  endloop
endfacet
facet normal 0.9082973115650241 0.4183252249192599 0
  outer loop
    vertex 2.1670000000000003 1.25 -3
    vertex 2.1670000000000003 1.25 3
    vertex 2.348 0.857 3
  endloop
endfacet
facet normal 0.9082973115650247 0.4183252249192588 0
  outer loop
    vertex 2.1670000000000003 1.25 -3
    vertex 2.348 0.857 3
    vertex 2.348 0.857 -3
  endloop
endfacet
facet normal 0.9999999999999999 0 0
  outer loop
    vertex 2.238 -0.209 -3.5
    vertex 2.238 0.209 -3.5
    vertex 2.238 -0.209 -3
  endloop
endfacet
facet normal 1 0 0
  outer loop
    vertex 2.238 -0.209 -3
    vertex 2.238 0.209 -3.5
    vertex 2.238 0.209 -3
  endloop
endfacet
facet normal 1 0 0
  outer loop
    vertex 2.238 -0.209 3
    vertex 2.238 0.209 3
    vertex 2.238 -0.209 3.5
  endloop
endfacet
facet normal 0.9999999999999999 0 0
  outer loop
    vertex 2.238 -0.209 3.5
    vertex 2.238 0.209 3
    vertex 2.238 0.209 3.5
  endloop
endfacet
facet normal 0.9665383828038024 -0.256522035246507 0
  outer loop
    vertex 2.348 -0.857 -3
    vertex 2.46 -0.435 -3
    vertex 2.348 -0.857 3
  endloop
endfacet
facet normal 0.9665383828038024 -0.256522035246507 0
  outer loop
    vertex 2.348 -0.857 3
    vertex 2.46 -0.435 -3
    vertex 2.46 -0.435 3
  endloop
endfacet
facet normal 0.9665383828038024 0.256522035246507 0
  outer loop
    vertex 2.348 0.857 -3
    vertex 2.348 0.857 3
    vertex 2.46 0.435 3
  endloop
endfacet
facet normal 0.9665383828038024 0.256522035246507 0
  outer loop
    vertex 2.348 0.857 -3
    vertex 2.46 0.435 3
    vertex 2.46 0.435 -3
  endloop
endfacet
facet normal 0 0 -1
  outer loop
    vertex 2.46 -0.435 -3
    vertex 2.46 0.435 -3
    vertex 2.5 0 -3
  endloop
endfacet
facet normal 0.9957988523704412 -0.0915677105627986 0
  outer loop
    vertex 2.46 -0.435 -3
    vertex 2.5 0 -3
    vertex 2.46 -0.435 3
  endloop
endfacet
facet normal 0.9957988523704411 -0.09156771056279994 0
  outer loop
    vertex 2.46 -0.435 3
    vertex 2.5 0 -3
    vertex 2.5 0 3
  endloop
endfacet
facet normal 0 0 1
  outer loop
    vertex 2.46 -0.435 3
    vertex 2.5 0 3
    vertex 2.46 0.435 3
  endloop
endfacet
facet normal 0.9957988523704412 0.0915677105627986 0
  outer loop
    vertex 2.46 0.435 -3
    vertex 2.46 0.435 3
    vertex 2.5 0 3
  endloop
endfacet
facet normal 0.9957988523704411 0.09156771056279994 0
  outer loop
    vertex 2.46 0.435 -3
    vertex 2.5 0 3
    vertex 2.5 0 -3
  endloop
endfacet
endsolid JSxCAD
