solid JSxCAD
facet normal -0.9953712201896389 0.09610480746658541 0
  outer loop
    vertex -2.5 0 -3
    vertex -2.5 0 3
    vertex -2.458 0.435 3
  endloop
endfacet
facet normal -0.9953712201896389 -0.09610480746658541 0
  outer loop
    vertex -2.5 0 -3
    vertex -2.458 -0.435 -3
    vertex -2.5 0 3
  endloop
endfacet
facet normal 0 0 -1
  outer loop
    vertex -2.5 0 -3
    vertex -2.458 0.435 -3
    vertex -2.458 -0.435 -3
  endloop
endfacet
facet normal -0.9953712201896389 0.09610480746658541 0
  outer loop
    vertex -2.5 0 -3
    vertex -2.458 0.435 3
    vertex -2.458 0.435 -3
  endloop
endfacet
facet normal -0.9953712201896389 -0.09610480746658541 0
  outer loop
    vertex -2.5 0 3
    vertex -2.458 -0.435 -3
    vertex -2.458 -0.435 3
  endloop
endfacet
facet normal 0 0 1
  outer loop
    vertex -2.5 0 3
    vertex -2.458 -0.435 3
    vertex -2.458 0.435 3
  endloop
endfacet
facet normal 0 0 -1
  outer loop
    vertex -2.458 -0.435 -3
    vertex -2.458 0.435 -3
    vertex -0.435 -2.458 -3
  endloop
endfacet
facet normal -0.9679558044708363 -0.25112060965045424 0
  outer loop
    vertex -2.458 -0.435 -3
    vertex -2.348 -0.859 -3
    vertex -2.458 -0.435 3
  endloop
endfacet
facet normal 0 0 -0.9999999999999999
  outer loop
    vertex -2.458 -0.435 -3
    vertex -1.917 -1.607 -3
    vertex -2.348 -0.859 -3
  endloop
endfacet
facet normal 4.5405573319366285e-15 0 -1
  outer loop
    vertex -2.458 -0.435 -3
    vertex -1.607 -1.917 -3
    vertex -1.917 -1.607 -3
  endloop
endfacet
facet normal -1.0436772908307156e-15 0 -1
  outer loop
    vertex -2.458 -0.435 -3
    vertex -0.435 -2.458 -3
    vertex -1.607 -1.917 -3
  endloop
endfacet
facet normal -0.9679558044708367 -0.25112060965045296 0
  outer loop
    vertex -2.458 -0.435 3
    vertex -2.348 -0.859 -3
    vertex -2.348 -0.859 3
  endloop
endfacet
facet normal 0 0 0.9999999999999999
  outer loop
    vertex -2.458 -0.435 3
    vertex -2.348 -0.859 3
    vertex -1.917 -1.607 3
  endloop
endfacet
facet normal 4.5405573319366285e-15 0 1
  outer loop
    vertex -2.458 -0.435 3
    vertex -1.917 -1.607 3
    vertex -1.607 -1.917 3
  endloop
endfacet
facet normal -1.0436772908307156e-15 0 1
  outer loop
    vertex -2.458 -0.435 3
    vertex -1.607 -1.917 3
    vertex -0.435 -2.458 3
  endloop
endfacet
facet normal 0 0 1
  outer loop
    vertex -2.458 -0.435 3
    vertex -0.435 -2.458 3
    vertex -2.458 0.435 3
  endloop
endfacet
facet normal -0.9679558044708363 0.25112060965045424 0
  outer loop
    vertex -2.458 0.435 -3
    vertex -2.458 0.435 3
    vertex -2.348 0.859 3
  endloop
endfacet
facet normal 0 0 -0.9999999999999999
  outer loop
    vertex -2.458 0.435 -3
    vertex -2.348 0.859 -3
    vertex -1.917 1.607 -3
  endloop
endfacet
facet normal -0.9679558044708367 0.25112060965045296 0
  outer loop
    vertex -2.458 0.435 -3
    vertex -2.348 0.859 3
    vertex -2.348 0.859 -3
  endloop
endfacet
facet normal 4.5405573319366285e-15 0 -1
  outer loop
    vertex -2.458 0.435 -3
    vertex -1.917 1.607 -3
    vertex -1.607 1.917 -3
  endloop
endfacet
facet normal -1.0436772908307156e-15 0 -1
  outer loop
    vertex -2.458 0.435 -3
    vertex -1.607 1.917 -3
    vertex -0.435 2.458 -3
  endloop
endfacet
facet normal 0 0 -1
  outer loop
    vertex -2.458 0.435 -3
    vertex -0.435 2.458 -3
    vertex -0.435 -2.458 -3
  endloop
endfacet
facet normal 0 0 0.9999999999999999
  outer loop
    vertex -2.458 0.435 3
    vertex -1.917 1.607 3
    vertex -2.348 0.859 3
  endloop
endfacet
facet normal 4.5405573319366285e-15 0 1
  outer loop
    vertex -2.458 0.435 3
    vertex -1.607 1.917 3
    vertex -1.917 1.607 3
  endloop
endfacet
facet normal 0 0 1
  outer loop
    vertex -2.458 0.435 3
    vertex -0.435 -2.458 3
    vertex -0.435 2.458 3
  endloop
endfacet
facet normal -1.0436772908307156e-15 0 1
  outer loop
    vertex -2.458 0.435 3
    vertex -0.435 2.458 3
    vertex -1.607 1.917 3
  endloop
endfacet
facet normal -0.9074832925432511 -0.4200881737860043 0
  outer loop
    vertex -2.348 -0.859 -3
    vertex -2.1670000000000003 -1.25 -3
    vertex -2.348 -0.859 3
  endloop
endfacet
facet normal 1.3403229706035118e-14 0 -1
  outer loop
    vertex -2.348 -0.859 -3
    vertex -1.917 -1.607 -3
    vertex -2.1670000000000003 -1.25 -3
  endloop
endfacet
facet normal -0.9074832925432506 -0.4200881737860054 0
  outer loop
    vertex -2.348 -0.859 3
    vertex -2.1670000000000003 -1.25 -3
    vertex -2.1670000000000003 -1.25 3
  endloop
endfacet
facet normal 1.3403229706035118e-14 0 1
  outer loop
    vertex -2.348 -0.859 3
    vertex -2.1670000000000003 -1.25 3
    vertex -1.917 -1.607 3
  endloop
endfacet
facet normal -0.9074832925432511 0.4200881737860043 0
  outer loop
    vertex -2.348 0.859 -3
    vertex -2.348 0.859 3
    vertex -2.1670000000000003 1.25 3
  endloop
endfacet
facet normal 1.3403229706035118e-14 0 -1
  outer loop
    vertex -2.348 0.859 -3
    vertex -2.1670000000000003 1.25 -3
    vertex -1.917 1.607 -3
  endloop
endfacet
facet normal -0.9074832925432506 0.4200881737860054 0
  outer loop
    vertex -2.348 0.859 -3
    vertex -2.1670000000000003 1.25 3
    vertex -2.1670000000000003 1.25 -3
  endloop
endfacet
facet normal 1.3403229706035118e-14 0 1
  outer loop
    vertex -2.348 0.859 3
    vertex -1.917 1.607 3
    vertex -2.1670000000000003 1.25 3
  endloop
endfacet
facet normal -1 0 0
  outer loop
    vertex -2.236 -0.211 -3.5
    vertex -2.236 -0.211 -3
    vertex -2.236 0.211 -3
  endloop
endfacet
facet normal 0 0 -1
  outer loop
    vertex -2.236 -0.211 -3.5
    vertex -2.236 0.211 -3.5
    vertex 2.236 -0.211 -3.5
  endloop
endfacet
facet normal -1 0 0
  outer loop
    vertex -2.236 -0.211 -3.5
    vertex -2.236 0.211 -3
    vertex -2.236 0.211 -3.5
  endloop
endfacet
facet normal -0.9839868983733762 -0.17824080293115646 0
  outer loop
    vertex -2.236 -0.211 -3.5
    vertex -2.1630000000000003 -0.614 -3.5
    vertex -2.236 -0.211 -3
  endloop
endfacet
facet normal 0 0 -1
  outer loop
    vertex -2.236 -0.211 -3.5
    vertex -1.792 -1.359 -3.5
    vertex -2.1630000000000003 -0.614 -3.5
  endloop
endfacet
facet normal 0 0 -0.9999999999999999
  outer loop
    vertex -2.236 -0.211 -3.5
    vertex -0.417 -2.208 -3.5
    vertex -1.792 -1.359 -3.5
  endloop
endfacet
facet normal 0 0 -1
  outer loop
    vertex -2.236 -0.211 -3.5
    vertex 0.417 -2.208 -3.5
    vertex -0.417 -2.208 -3.5
  endloop
endfacet
facet normal 0 0 -1
  outer loop
    vertex -2.236 -0.211 -3.5
    vertex 2.236 -0.211 -3.5
    vertex 0.417 -2.208 -3.5
  endloop
endfacet
facet normal -0.9839868983733758 -0.17824080293115815 0
  outer loop
    vertex -2.236 -0.211 -3
    vertex -2.1630000000000003 -0.614 -3.5
    vertex -2.1630000000000003 -0.614 -3
  endloop
endfacet
facet normal 0 0 1
  outer loop
    vertex -2.236 -0.211 -3
    vertex -2.1630000000000003 -0.614 -3
    vertex -1.792 -1.359 -3
  endloop
endfacet
facet normal 0 0 0.9999999999999999
  outer loop
    vertex -2.236 -0.211 -3
    vertex -1.792 -1.359 -3
    vertex -0.417 -2.208 -3
  endloop
endfacet
facet normal 0 0 1
  outer loop
    vertex -2.236 -0.211 -3
    vertex -0.417 -2.208 -3
    vertex 0.417 -2.208 -3
  endloop
endfacet
facet normal 0 0 1
  outer loop
    vertex -2.236 -0.211 -3
    vertex 0.417 -2.208 -3
    vertex 2.236 -0.211 -3
  endloop
endfacet
facet normal 0 0 1
  outer loop
    vertex -2.236 -0.211 -3
    vertex 2.236 -0.211 -3
    vertex -2.236 0.211 -3
  endloop
endfacet
facet normal -1 0 0
  outer loop
    vertex -2.236 -0.211 3
    vertex -2.236 -0.211 3.5
    vertex -2.236 0.211 3.5
  endloop
endfacet
facet normal 0 0 -1
  outer loop
    vertex -2.236 -0.211 3
    vertex -2.236 0.211 3
    vertex 2.236 -0.211 3
  endloop
endfacet
facet normal -1 0 0
  outer loop
    vertex -2.236 -0.211 3
    vertex -2.236 0.211 3.5
    vertex -2.236 0.211 3
  endloop
endfacet
facet normal -0.9839868983733762 -0.17824080293115604 0
  outer loop
    vertex -2.236 -0.211 3
    vertex -2.1630000000000003 -0.614 3
    vertex -2.236 -0.211 3.5
  endloop
endfacet
facet normal 0 0 -1
  outer loop
    vertex -2.236 -0.211 3
    vertex -1.792 -1.359 3
    vertex -2.1630000000000003 -0.614 3
  endloop
endfacet
facet normal 0 0 -0.9999999999999999
  outer loop
    vertex -2.236 -0.211 3
    vertex -0.417 -2.208 3
    vertex -1.792 -1.359 3
  endloop
endfacet
facet normal 0 0 -1
  outer loop
    vertex -2.236 -0.211 3
    vertex 0.417 -2.208 3
    vertex -0.417 -2.208 3
  endloop
endfacet
facet normal 0 0 -1
  outer loop
    vertex -2.236 -0.211 3
    vertex 2.236 -0.211 3
    vertex 0.417 -2.208 3
  endloop
endfacet
facet normal -0.9839868983733756 -0.17824080293115852 0
  outer loop
    vertex -2.236 -0.211 3.5
    vertex -2.1630000000000003 -0.614 3
    vertex -2.1630000000000003 -0.614 3.5
  endloop
endfacet
facet normal 0 0 1
  outer loop
    vertex -2.236 -0.211 3.5
    vertex -2.1630000000000003 -0.614 3.5
    vertex -1.792 -1.359 3.5
  endloop
endfacet
facet normal 0 0 0.9999999999999999
  outer loop
    vertex -2.236 -0.211 3.5
    vertex -1.792 -1.359 3.5
    vertex -0.417 -2.208 3.5
  endloop
endfacet
facet normal 0 0 1
  outer loop
    vertex -2.236 -0.211 3.5
    vertex -0.417 -2.208 3.5
    vertex 0.417 -2.208 3.5
  endloop
endfacet
facet normal 0 0 1
  outer loop
    vertex -2.236 -0.211 3.5
    vertex 0.417 -2.208 3.5
    vertex 2.236 -0.211 3.5
  endloop
endfacet
facet normal 0 0 1
  outer loop
    vertex -2.236 -0.211 3.5
    vertex 2.236 -0.211 3.5
    vertex -2.236 0.211 3.5
  endloop
endfacet
facet normal -0.9839868983733762 0.17824080293115604 0
  outer loop
    vertex -2.236 0.211 -3.5
    vertex -2.236 0.211 -3
    vertex -2.1630000000000003 0.614 -3
  endloop
endfacet
facet normal 0 0 -1
  outer loop
    vertex -2.236 0.211 -3.5
    vertex -2.1630000000000003 0.614 -3.5
    vertex -1.792 1.359 -3.5
  endloop
endfacet
facet normal -0.9839868983733756 0.17824080293115852 0
  outer loop
    vertex -2.236 0.211 -3.5
    vertex -2.1630000000000003 0.614 -3
    vertex -2.1630000000000003 0.614 -3.5
  endloop
endfacet
facet normal 0 0 -0.9999999999999999
  outer loop
    vertex -2.236 0.211 -3.5
    vertex -1.792 1.359 -3.5
    vertex -0.417 2.208 -3.5
  endloop
endfacet
facet normal 0 0 -1
  outer loop
    vertex -2.236 0.211 -3.5
    vertex -0.417 2.208 -3.5
    vertex 0.417 2.208 -3.5
  endloop
endfacet
facet normal 0 0 -1
  outer loop
    vertex -2.236 0.211 -3.5
    vertex 0.417 2.208 -3.5
    vertex 2.236 0.211 -3.5
  endloop
endfacet
facet normal 0 0 -1
  outer loop
    vertex -2.236 0.211 -3.5
    vertex 2.236 0.211 -3.5
    vertex 2.236 -0.211 -3.5
  endloop
endfacet
facet normal 0 0 1
  outer loop
    vertex -2.236 0.211 -3
    vertex -1.792 1.359 -3
    vertex -2.1630000000000003 0.614 -3
  endloop
endfacet
facet normal 0 0 0.9999999999999999
  outer loop
    vertex -2.236 0.211 -3
    vertex -0.417 2.208 -3
    vertex -1.792 1.359 -3
  endloop
endfacet
facet normal 0 0 1
  outer loop
    vertex -2.236 0.211 -3
    vertex 0.417 2.208 -3
    vertex -0.417 2.208 -3
  endloop
endfacet
facet normal 0 0 1
  outer loop
    vertex -2.236 0.211 -3
    vertex 2.236 -0.211 -3
    vertex 2.236 0.211 -3
  endloop
endfacet
facet normal 0 0 1
  outer loop
    vertex -2.236 0.211 -3
    vertex 2.236 0.211 -3
    vertex 0.417 2.208 -3
  endloop
endfacet
facet normal -0.9839868983733762 0.17824080293115646 0
  outer loop
    vertex -2.236 0.211 3
    vertex -2.236 0.211 3.5
    vertex -2.1630000000000003 0.614 3.5
  endloop
endfacet
facet normal 0 0 -1
  outer loop
    vertex -2.236 0.211 3
    vertex -2.1630000000000003 0.614 3
    vertex -1.792 1.359 3
  endloop
endfacet
facet normal -0.9839868983733758 0.17824080293115815 0
  outer loop
    vertex -2.236 0.211 3
    vertex -2.1630000000000003 0.614 3.5
    vertex -2.1630000000000003 0.614 3
  endloop
endfacet
facet normal 0 0 -0.9999999999999999
  outer loop
    vertex -2.236 0.211 3
    vertex -1.792 1.359 3
    vertex -0.417 2.208 3
  endloop
endfacet
facet normal 0 0 -1
  outer loop
    vertex -2.236 0.211 3
    vertex -0.417 2.208 3
    vertex 0.417 2.208 3
  endloop
endfacet
facet normal 0 0 -1
  outer loop
    vertex -2.236 0.211 3
    vertex 0.417 2.208 3
    vertex 2.236 0.211 3
  endloop
endfacet
facet normal 0 0 -1
  outer loop
    vertex -2.236 0.211 3
    vertex 2.236 0.211 3
    vertex 2.236 -0.211 3
  endloop
endfacet
facet normal 0 0 1
  outer loop
    vertex -2.236 0.211 3.5
    vertex -1.792 1.359 3.5
    vertex -2.1630000000000003 0.614 3.5
  endloop
endfacet
facet normal 0 0 0.9999999999999999
  outer loop
    vertex -2.236 0.211 3.5
    vertex -0.417 2.208 3.5
    vertex -1.792 1.359 3.5
  endloop
endfacet
facet normal 0 0 1
  outer loop
    vertex -2.236 0.211 3.5
    vertex 0.417 2.208 3.5
    vertex -0.417 2.208 3.5
  endloop
endfacet
facet normal 0 0 1
  outer loop
    vertex -2.236 0.211 3.5
    vertex 2.236 -0.211 3.5
    vertex 2.236 0.211 3.5
  endloop
endfacet
facet normal 0 0 1
  outer loop
    vertex -2.236 0.211 3.5
    vertex 2.236 0.211 3.5
    vertex 0.417 2.208 3.5
  endloop
endfacet
facet normal -0.8191241123743579 -0.5736163251921274 0
  outer loop
    vertex -2.1670000000000003 -1.25 -3
    vertex -1.917 -1.607 -3
    vertex -2.1670000000000003 -1.25 3
  endloop
endfacet
facet normal -0.8191241123743572 -0.5736163251921282 0
  outer loop
    vertex -2.1670000000000003 -1.25 3
    vertex -1.917 -1.607 -3
    vertex -1.917 -1.607 3
  endloop
endfacet
facet normal -0.8191241123743579 0.5736163251921274 0
  outer loop
    vertex -2.1670000000000003 1.25 -3
    vertex -2.1670000000000003 1.25 3
    vertex -1.917 1.607 3
  endloop
endfacet
facet normal -0.8191241123743572 0.5736163251921282 0
  outer loop
    vertex -2.1670000000000003 1.25 -3
    vertex -1.917 1.607 3
    vertex -1.917 1.607 -3
  endloop
endfacet
facet normal -0.9342615896897313 -0.35658839301134887 0
  outer loop
    vertex -2.1630000000000003 -0.614 -3.5
    vertex -2.013 -1.0070000000000001 -3.5
    vertex -2.1630000000000003 -0.614 -3
  endloop
endfacet
facet normal 0 0 -1
  outer loop
    vertex -2.1630000000000003 -0.614 -3.5
    vertex -1.792 -1.359 -3.5
    vertex -2.013 -1.0070000000000001 -3.5
  endloop
endfacet
facet normal -0.9342615896897317 -0.3565883930113482 0
  outer loop
    vertex -2.1630000000000003 -0.614 -3
    vertex -2.013 -1.0070000000000001 -3.5
    vertex -2.013 -1.0070000000000001 -3
  endloop
endfacet
facet normal 0 0 1
  outer loop
    vertex -2.1630000000000003 -0.614 -3
    vertex -2.013 -1.0070000000000001 -3
    vertex -1.792 -1.359 -3
  endloop
endfacet
facet normal -0.9342615896897317 -0.3565883930113482 0
  outer loop
    vertex -2.1630000000000003 -0.614 3
    vertex -2.013 -1.0070000000000001 3
    vertex -2.1630000000000003 -0.614 3.5
  endloop
endfacet
facet normal 0 0 -1
  outer loop
    vertex -2.1630000000000003 -0.614 3
    vertex -1.792 -1.359 3
    vertex -2.013 -1.0070000000000001 3
  endloop
endfacet
facet normal -0.9342615896897313 -0.35658839301134887 0
  outer loop
    vertex -2.1630000000000003 -0.614 3.5
    vertex -2.013 -1.0070000000000001 3
    vertex -2.013 -1.0070000000000001 3.5
  endloop
endfacet
facet normal 0 0 1
  outer loop
    vertex -2.1630000000000003 -0.614 3.5
    vertex -2.013 -1.0070000000000001 3.5
    vertex -1.792 -1.359 3.5
  endloop
endfacet
facet normal -0.9342615896897317 0.3565883930113482 0
  outer loop
    vertex -2.1630000000000003 0.614 -3.5
    vertex -2.1630000000000003 0.614 -3
    vertex -2.013 1.0070000000000001 -3
  endloop
endfacet
facet normal 0 0 -1
  outer loop
    vertex -2.1630000000000003 0.614 -3.5
    vertex -2.013 1.0070000000000001 -3.5
    vertex -1.792 1.359 -3.5
  endloop
endfacet
facet normal -0.9342615896897313 0.35658839301134887 0
  outer loop
    vertex -2.1630000000000003 0.614 -3.5
    vertex -2.013 1.0070000000000001 -3
    vertex -2.013 1.0070000000000001 -3.5
  endloop
endfacet
facet normal 0 0 1
  outer loop
    vertex -2.1630000000000003 0.614 -3
    vertex -1.792 1.359 -3
    vertex -2.013 1.0070000000000001 -3
  endloop
endfacet
facet normal -0.9342615896897313 0.35658839301134887 0
  outer loop
    vertex -2.1630000000000003 0.614 3
    vertex -2.1630000000000003 0.614 3.5
    vertex -2.013 1.0070000000000001 3.5
  endloop
endfacet
facet normal 0 0 -1
  outer loop
    vertex -2.1630000000000003 0.614 3
    vertex -2.013 1.0070000000000001 3
    vertex -1.792 1.359 3
  endloop
endfacet
facet normal -0.9342615896897317 0.3565883930113482 0
  outer loop
    vertex -2.1630000000000003 0.614 3
    vertex -2.013 1.0070000000000001 3.5
    vertex -2.013 1.0070000000000001 3
  endloop
endfacet
facet normal 0 0 1
  outer loop
    vertex -2.1630000000000003 0.614 3.5
    vertex -1.792 1.359 3.5
    vertex -2.013 1.0070000000000001 3.5
  endloop
endfacet
facet normal -0.8469151866006064 -0.5317280006782227 0
  outer loop
    vertex -2.013 -1.0070000000000001 -3.5
    vertex -1.792 -1.359 -3.5
    vertex -2.013 -1.0070000000000001 -3
  endloop
endfacet
facet normal -0.8469151866006074 -0.5317280006782209 0
  outer loop
    vertex -2.013 -1.0070000000000001 -3
    vertex -1.792 -1.359 -3.5
    vertex -1.792 -1.359 -3
  endloop
endfacet
facet normal -0.8469151866006069 -0.5317280006782217 0
  outer loop
    vertex -2.013 -1.0070000000000001 3
    vertex -1.792 -1.359 3
    vertex -2.013 -1.0070000000000001 3.5
  endloop
endfacet
facet normal -0.8469151866006068 -0.5317280006782219 0
  outer loop
    vertex -2.013 -1.0070000000000001 3.5
    vertex -1.792 -1.359 3
    vertex -1.792 -1.359 3.5
  endloop
endfacet
facet normal -0.8469151866006069 0.5317280006782217 0
  outer loop
    vertex -2.013 1.0070000000000001 -3.5
    vertex -2.013 1.0070000000000001 -3
    vertex -1.792 1.359 -3
  endloop
endfacet
facet normal -0.8469151866006068 0.5317280006782219 0
  outer loop
    vertex -2.013 1.0070000000000001 -3.5
    vertex -1.792 1.359 -3
    vertex -1.792 1.359 -3.5
  endloop
endfacet
facet normal -0.8469151866006064 0.5317280006782227 0
  outer loop
    vertex -2.013 1.0070000000000001 3
    vertex -2.013 1.0070000000000001 3.5
    vertex -1.792 1.359 3.5
  endloop
endfacet
facet normal -0.8469151866006074 0.5317280006782209 0
  outer loop
    vertex -2.013 1.0070000000000001 3
    vertex -1.792 1.359 3.5
    vertex -1.792 1.359 3
  endloop
endfacet
facet normal -0.707106781186547 -0.707106781186548 0
  outer loop
    vertex -1.917 -1.607 -3
    vertex -1.607 -1.917 -3
    vertex -1.917 -1.607 3
  endloop
endfacet
facet normal -0.7071067811865478 -0.7071067811865475 0
  outer loop
    vertex -1.917 -1.607 3
    vertex -1.607 -1.917 -3
    vertex -1.607 -1.917 3
  endloop
endfacet
facet normal -0.707106781186547 0.707106781186548 0
  outer loop
    vertex -1.917 1.607 -3
    vertex -1.917 1.607 3
    vertex -1.607 1.917 3
  endloop
endfacet
facet normal -0.7071067811865478 0.7071067811865475 0
  outer loop
    vertex -1.917 1.607 -3
    vertex -1.607 1.917 3
    vertex -1.607 1.917 -3
  endloop
endfacet
facet normal -0.7440238810251014 -0.6681530247363592 0
  outer loop
    vertex -1.792 -1.359 -3.5
    vertex -1.5190000000000001 -1.663 -3.5
    vertex -1.792 -1.359 -3
  endloop
endfacet
facet normal -1.3114290223844904e-14 0 -1
  outer loop
    vertex -1.792 -1.359 -3.5
    vertex -1.184 -1.9120000000000001 -3.5
    vertex -1.5190000000000001 -1.663 -3.5
  endloop
endfacet
facet normal 0 0 -0.9999999999999999
  outer loop
    vertex -1.792 -1.359 -3.5
    vertex -0.417 -2.208 -3.5
    vertex -1.184 -1.9120000000000001 -3.5
  endloop
endfacet
facet normal -0.744023881025103 -0.6681530247363575 0
  outer loop
    vertex -1.792 -1.359 -3
    vertex -1.5190000000000001 -1.663 -3.5
    vertex -1.5190000000000001 -1.663 -3
  endloop
endfacet
facet normal 0 0 1
  outer loop
    vertex -1.792 -1.359 -3
    vertex -1.5190000000000001 -1.663 -3
    vertex -1.184 -1.9120000000000001 -3
  endloop
endfacet
facet normal 0 0 0.9999999999999999
  outer loop
    vertex -1.792 -1.359 -3
    vertex -1.184 -1.9120000000000001 -3
    vertex -0.417 -2.208 -3
  endloop
endfacet
facet normal -0.7440238810251024 -0.6681530247363581 0
  outer loop
    vertex -1.792 -1.359 3
    vertex -1.5190000000000001 -1.663 3
    vertex -1.792 -1.359 3.5
  endloop
endfacet
facet normal 0 0 -1
  outer loop
    vertex -1.792 -1.359 3
    vertex -1.184 -1.9120000000000001 3
    vertex -1.5190000000000001 -1.663 3
  endloop
endfacet
facet normal 0 0 -0.9999999999999999
  outer loop
    vertex -1.792 -1.359 3
    vertex -0.417 -2.208 3
    vertex -1.184 -1.9120000000000001 3
  endloop
endfacet
facet normal -0.744023881025102 -0.6681530247363586 0
  outer loop
    vertex -1.792 -1.359 3.5
    vertex -1.5190000000000001 -1.663 3
    vertex -1.5190000000000001 -1.663 3.5
  endloop
endfacet
facet normal -1.3114290223844904e-14 0 1
  outer loop
    vertex -1.792 -1.359 3.5
    vertex -1.5190000000000001 -1.663 3.5
    vertex -1.184 -1.9120000000000001 3.5
  endloop
endfacet
facet normal 0 0 0.9999999999999999
  outer loop
    vertex -1.792 -1.359 3.5
    vertex -1.184 -1.9120000000000001 3.5
    vertex -0.417 -2.208 3.5
  endloop
endfacet
facet normal -0.7440238810251024 0.6681530247363581 0
  outer loop
    vertex -1.792 1.359 -3.5
    vertex -1.792 1.359 -3
    vertex -1.5190000000000001 1.663 -3
  endloop
endfacet
facet normal -1.3114290223844904e-14 0 -1
  outer loop
    vertex -1.792 1.359 -3.5
    vertex -1.5190000000000001 1.663 -3.5
    vertex -1.184 1.9120000000000001 -3.5
  endloop
endfacet
facet normal -0.744023881025102 0.6681530247363586 0
  outer loop
    vertex -1.792 1.359 -3.5
    vertex -1.5190000000000001 1.663 -3
    vertex -1.5190000000000001 1.663 -3.5
  endloop
endfacet
facet normal 0 0 -0.9999999999999999
  outer loop
    vertex -1.792 1.359 -3.5
    vertex -1.184 1.9120000000000001 -3.5
    vertex -0.417 2.208 -3.5
  endloop
endfacet
facet normal 0 0 1
  outer loop
    vertex -1.792 1.359 -3
    vertex -1.184 1.9120000000000001 -3
    vertex -1.5190000000000001 1.663 -3
  endloop
endfacet
facet normal 0 0 0.9999999999999999
  outer loop
    vertex -1.792 1.359 -3
    vertex -0.417 2.208 -3
    vertex -1.184 1.9120000000000001 -3
  endloop
endfacet
facet normal -0.7440238810251014 0.6681530247363592 0
  outer loop
    vertex -1.792 1.359 3
    vertex -1.792 1.359 3.5
    vertex -1.5190000000000001 1.663 3.5
  endloop
endfacet
facet normal 0 0 -1
  outer loop
    vertex -1.792 1.359 3
    vertex -1.5190000000000001 1.663 3
    vertex -1.184 1.9120000000000001 3
  endloop
endfacet
facet normal -0.744023881025103 0.6681530247363575 0
  outer loop
    vertex -1.792 1.359 3
    vertex -1.5190000000000001 1.663 3.5
    vertex -1.5190000000000001 1.663 3
  endloop
endfacet
facet normal 0 0 -0.9999999999999999
  outer loop
    vertex -1.792 1.359 3
    vertex -1.184 1.9120000000000001 3
    vertex -0.417 2.208 3
  endloop
endfacet
facet normal -1.3114290223844904e-14 0 1
  outer loop
    vertex -1.792 1.359 3.5
    vertex -1.184 1.9120000000000001 3.5
    vertex -1.5190000000000001 1.663 3.5
  endloop
endfacet
facet normal 0 0 0.9999999999999999
  outer loop
    vertex -1.792 1.359 3.5
    vertex -0.417 2.208 3.5
    vertex -1.184 1.9120000000000001 3.5
  endloop
endfacet
facet normal -0.5736163251921284 -0.819124112374357 0
  outer loop
    vertex -1.607 -1.917 -3
    vertex -1.25 -2.1670000000000003 -3
    vertex -1.607 -1.917 3
  endloop
endfacet
facet normal 0 0 -1
  outer loop
    vertex -1.607 -1.917 -3
    vertex -0.859 -2.348 -3
    vertex -1.25 -2.1670000000000003 -3
  endloop
endfacet
facet normal 0 0 -1
  outer loop
    vertex -1.607 -1.917 -3
    vertex -0.435 -2.458 -3
    vertex -0.859 -2.348 -3
  endloop
endfacet
facet normal -0.5736163251921271 -0.8191241123743579 0
  outer loop
    vertex -1.607 -1.917 3
    vertex -1.25 -2.1670000000000003 -3
    vertex -1.25 -2.1670000000000003 3
  endloop
endfacet
facet normal 0 0 1
  outer loop
    vertex -1.607 -1.917 3
    vertex -1.25 -2.1670000000000003 3
    vertex -0.859 -2.348 3
  endloop
endfacet
facet normal 0 0 1
  outer loop
    vertex -1.607 -1.917 3
    vertex -0.859 -2.348 3
    vertex -0.435 -2.458 3
  endloop
endfacet
facet normal -0.5736163251921284 0.819124112374357 0
  outer loop
    vertex -1.607 1.917 -3
    vertex -1.607 1.917 3
    vertex -1.25 2.1670000000000003 3
  endloop
endfacet
facet normal 0 0 -1
  outer loop
    vertex -1.607 1.917 -3
    vertex -1.25 2.1670000000000003 -3
    vertex -0.859 2.348 -3
  endloop
endfacet
facet normal -0.5736163251921271 0.8191241123743579 0
  outer loop
    vertex -1.607 1.917 -3
    vertex -1.25 2.1670000000000003 3
    vertex -1.25 2.1670000000000003 -3
  endloop
endfacet
facet normal 0 0 -1
  outer loop
    vertex -1.607 1.917 -3
    vertex -0.859 2.348 -3
    vertex -0.435 2.458 -3
  endloop
endfacet
facet normal 0 0 1
  outer loop
    vertex -1.607 1.917 3
    vertex -0.859 2.348 3
    vertex -1.25 2.1670000000000003 3
  endloop
endfacet
facet normal 0 0 1
  outer loop
    vertex -1.607 1.917 3
    vertex -0.435 2.458 3
    vertex -0.859 2.348 3
  endloop
endfacet
facet normal -0.5965445249654096 -0.8025799833871972 0
  outer loop
    vertex -1.5190000000000001 -1.663 -3.5
    vertex -1.184 -1.9120000000000001 -3.5
    vertex -1.5190000000000001 -1.663 -3
  endloop
endfacet
facet normal -0.5965445249654091 -0.8025799833871977 0
  outer loop
    vertex -1.5190000000000001 -1.663 -3
    vertex -1.184 -1.9120000000000001 -3.5
    vertex -1.184 -1.9120000000000001 -3
  endloop
endfacet
facet normal -0.5965445249654096 -0.8025799833871972 0
  outer loop
    vertex -1.5190000000000001 -1.663 3
    vertex -1.184 -1.9120000000000001 3
    vertex -1.5190000000000001 -1.663 3.5
  endloop
endfacet
facet normal -0.5965445249654091 -0.8025799833871977 0
  outer loop
    vertex -1.5190000000000001 -1.663 3.5
    vertex -1.184 -1.9120000000000001 3
    vertex -1.184 -1.9120000000000001 3.5
  endloop
endfacet
facet normal -0.5965445249654096 0.8025799833871972 0
  outer loop
    vertex -1.5190000000000001 1.663 -3.5
    vertex -1.5190000000000001 1.663 -3
    vertex -1.184 1.9120000000000001 -3
  endloop
endfacet
facet normal -0.5965445249654091 0.8025799833871977 0
  outer loop
    vertex -1.5190000000000001 1.663 -3.5
    vertex -1.184 1.9120000000000001 -3
    vertex -1.184 1.9120000000000001 -3.5
  endloop
endfacet
facet normal -0.5965445249654096 0.8025799833871972 0
  outer loop
    vertex -1.5190000000000001 1.663 3
    vertex -1.5190000000000001 1.663 3.5
    vertex -1.184 1.9120000000000001 3.5
  endloop
endfacet
facet normal -0.5965445249654091 0.8025799833871977 0
  outer loop
    vertex -1.5190000000000001 1.663 3
    vertex -1.184 1.9120000000000001 3.5
    vertex -1.184 1.9120000000000001 3
  endloop
endfacet
facet normal -0.4200881737860051 -0.9074832925432507 0
  outer loop
    vertex -1.25 -2.1670000000000003 -3
    vertex -0.859 -2.348 -3
    vertex -1.25 -2.1670000000000003 3
  endloop
endfacet
facet normal -0.4200881737860051 -0.9074832925432507 0
  outer loop
    vertex -1.25 -2.1670000000000003 3
    vertex -0.859 -2.348 -3
    vertex -0.859 -2.348 3
  endloop
endfacet
facet normal -0.4200881737860051 0.9074832925432507 0
  outer loop
    vertex -1.25 2.1670000000000003 -3
    vertex -1.25 2.1670000000000003 3
    vertex -0.859 2.348 3
  endloop
endfacet
facet normal -0.4200881737860051 0.9074832925432507 0
  outer loop
    vertex -1.25 2.1670000000000003 -3
    vertex -0.859 2.348 3
    vertex -0.859 2.348 -3
  endloop
endfacet
facet normal -0.4510481846883604 -0.8924995994897333 0
  outer loop
    vertex -1.184 -1.9120000000000001 -3.5
    vertex -0.812 -2.1 -3.5
    vertex -1.184 -1.9120000000000001 -3
  endloop
endfacet
facet normal 6.5146287092192345e-15 0 -1
  outer loop
    vertex -1.184 -1.9120000000000001 -3.5
    vertex -0.417 -2.208 -3.5
    vertex -0.812 -2.1 -3.5
  endloop
endfacet
facet normal -0.4510481846883596 -0.8924995994897339 0
  outer loop
    vertex -1.184 -1.9120000000000001 -3
    vertex -0.812 -2.1 -3.5
    vertex -0.812 -2.1 -3
  endloop
endfacet
facet normal 0 0 1
  outer loop
    vertex -1.184 -1.9120000000000001 -3
    vertex -0.812 -2.1 -3
    vertex -0.417 -2.208 -3
  endloop
endfacet
facet normal -0.4510481846883596 -0.8924995994897339 0
  outer loop
    vertex -1.184 -1.9120000000000001 3
    vertex -0.812 -2.1 3
    vertex -1.184 -1.9120000000000001 3.5
  endloop
endfacet
facet normal 0 0 -1
  outer loop
    vertex -1.184 -1.9120000000000001 3
    vertex -0.417 -2.208 3
    vertex -0.812 -2.1 3
  endloop
endfacet
facet normal -0.4510481846883604 -0.8924995994897333 0
  outer loop
    vertex -1.184 -1.9120000000000001 3.5
    vertex -0.812 -2.1 3
    vertex -0.812 -2.1 3.5
  endloop
endfacet
facet normal 6.5146287092192345e-15 0 1
  outer loop
    vertex -1.184 -1.9120000000000001 3.5
    vertex -0.812 -2.1 3.5
    vertex -0.417 -2.208 3.5
  endloop
endfacet
facet normal -0.4510481846883596 0.8924995994897339 0
  outer loop
    vertex -1.184 1.9120000000000001 -3.5
    vertex -1.184 1.9120000000000001 -3
    vertex -0.812 2.1 -3
  endloop
endfacet
facet normal 6.5146287092192345e-15 0 -1
  outer loop
    vertex -1.184 1.9120000000000001 -3.5
    vertex -0.812 2.1 -3.5
    vertex -0.417 2.208 -3.5
  endloop
endfacet
facet normal -0.4510481846883604 0.8924995994897333 0
  outer loop
    vertex -1.184 1.9120000000000001 -3.5
    vertex -0.812 2.1 -3
    vertex -0.812 2.1 -3.5
  endloop
endfacet
facet normal 0 0 1
  outer loop
    vertex -1.184 1.9120000000000001 -3
    vertex -0.417 2.208 -3
    vertex -0.812 2.1 -3
  endloop
endfacet
facet normal -0.4510481846883604 0.8924995994897333 0
  outer loop
    vertex -1.184 1.9120000000000001 3
    vertex -1.184 1.9120000000000001 3.5
    vertex -0.812 2.1 3.5
  endloop
endfacet
facet normal 0 0 -1
  outer loop
    vertex -1.184 1.9120000000000001 3
    vertex -0.812 2.1 3
    vertex -0.417 2.208 3
  endloop
endfacet
facet normal -0.4510481846883596 0.8924995994897339 0
  outer loop
    vertex -1.184 1.9120000000000001 3
    vertex -0.812 2.1 3.5
    vertex -0.812 2.1 3
  endloop
endfacet
facet normal 6.5146287092192345e-15 0 1
  outer loop
    vertex -1.184 1.9120000000000001 3.5
    vertex -0.417 2.208 3.5
    vertex -0.812 2.1 3.5
  endloop
endfacet
facet normal -0.25112060965045363 -0.9679558044708366 0
  outer loop
    vertex -0.859 -2.348 -3
    vertex -0.435 -2.458 -3
    vertex -0.859 -2.348 3
  endloop
endfacet
facet normal -0.25112060965045363 -0.9679558044708367 0
  outer loop
    vertex -0.859 -2.348 3
    vertex -0.435 -2.458 -3
    vertex -0.435 -2.458 3
  endloop
endfacet
facet normal -0.25112060965045363 0.9679558044708366 0
  outer loop
    vertex -0.859 2.348 -3
    vertex -0.859 2.348 3
    vertex -0.435 2.458 3
  endloop
endfacet
facet normal -0.25112060965045363 0.9679558044708367 0
  outer loop
    vertex -0.859 2.348 -3
    vertex -0.435 2.458 3
    vertex -0.435 2.458 -3
  endloop
endfacet
facet normal -0.26373724671581333 -0.9645945597476498 0
  outer loop
    vertex -0.812 -2.1 -3.5
    vertex -0.417 -2.208 -3.5
    vertex -0.812 -2.1 -3
  endloop
endfacet
facet normal -0.2637372467158132 -0.9645945597476497 0
  outer loop
    vertex -0.812 -2.1 -3
    vertex -0.417 -2.208 -3.5
    vertex -0.417 -2.208 -3
  endloop
endfacet
facet normal -0.26373724671581333 -0.9645945597476498 0
  outer loop
    vertex -0.812 -2.1 3
    vertex -0.417 -2.208 3
    vertex -0.812 -2.1 3.5
  endloop
endfacet
facet normal -0.2637372467158132 -0.9645945597476497 0
  outer loop
    vertex -0.812 -2.1 3.5
    vertex -0.417 -2.208 3
    vertex -0.417 -2.208 3.5
  endloop
endfacet
facet normal -0.26373724671581333 0.9645945597476498 0
  outer loop
    vertex -0.812 2.1 -3.5
    vertex -0.812 2.1 -3
    vertex -0.417 2.208 -3
  endloop
endfacet
facet normal -0.2637372467158132 0.9645945597476497 0
  outer loop
    vertex -0.812 2.1 -3.5
    vertex -0.417 2.208 -3
    vertex -0.417 2.208 -3.5
  endloop
endfacet
facet normal -0.26373724671581333 0.9645945597476498 0
  outer loop
    vertex -0.812 2.1 3
    vertex -0.812 2.1 3.5
    vertex -0.417 2.208 3.5
  endloop
endfacet
facet normal -0.2637372467158132 0.9645945597476497 0
  outer loop
    vertex -0.812 2.1 3
    vertex -0.417 2.208 3.5
    vertex -0.417 2.208 3
  endloop
endfacet
facet normal 0 0 -1
  outer loop
    vertex -0.435 -2.458 -3
    vertex -0.435 2.458 -3
    vertex 0.435 -2.458 -3
  endloop
endfacet
facet normal -0.09610480746658541 -0.9953712201896389 0
  outer loop
    vertex -0.435 -2.458 -3
    vertex 0 -2.5 -3
    vertex -0.435 -2.458 3
  endloop
endfacet
facet normal 0 0 -1
  outer loop
    vertex -0.435 -2.458 -3
    vertex 0.435 -2.458 -3
    vertex 0 -2.5 -3
  endloop
endfacet
facet normal -0.09610480746658541 -0.9953712201896389 0
  outer loop
    vertex -0.435 -2.458 3
    vertex 0 -2.5 -3
    vertex 0 -2.5 3
  endloop
endfacet
facet normal 0 0 1
  outer loop
    vertex -0.435 -2.458 3
    vertex 0 -2.5 3
    vertex 0.435 -2.458 3
  endloop
endfacet
facet normal 0 0 1
  outer loop
    vertex -0.435 -2.458 3
    vertex 0.435 -2.458 3
    vertex -0.435 2.458 3
  endloop
endfacet
facet normal -0.09610480746658541 0.9953712201896389 0
  outer loop
    vertex -0.435 2.458 -3
    vertex -0.435 2.458 3
    vertex 0 2.5 3
  endloop
endfacet
facet normal 0 0 -1
  outer loop
    vertex -0.435 2.458 -3
    vertex 0 2.5 -3
    vertex 0.435 2.458 -3
  endloop
endfacet
facet normal -0.09610480746658541 0.9953712201896389 0
  outer loop
    vertex -0.435 2.458 -3
    vertex 0 2.5 3
    vertex 0 2.5 -3
  endloop
endfacet
facet normal 0 0 -1
  outer loop
    vertex -0.435 2.458 -3
    vertex 0.435 2.458 -3
    vertex 0.435 -2.458 -3
  endloop
endfacet
facet normal 0 0 1
  outer loop
    vertex -0.435 2.458 3
    vertex 0.435 -2.458 3
    vertex 0.435 2.458 3
  endloop
endfacet
facet normal 0 0 1
  outer loop
    vertex -0.435 2.458 3
    vertex 0.435 2.458 3
    vertex 0 2.5 3
  endloop
endfacet
facet normal -0.10021240954951306 -0.9949660662415983 0
  outer loop
    vertex -0.417 -2.208 -3.5
    vertex 0 -2.25 -3.5
    vertex -0.417 -2.208 -3
  endloop
endfacet
facet normal 0 0 -1
  outer loop
    vertex -0.417 -2.208 -3.5
    vertex 0.417 -2.208 -3.5
    vertex 0 -2.25 -3.5
  endloop
endfacet
facet normal -0.10021240954951306 -0.9949660662415983 0
  outer loop
    vertex -0.417 -2.208 -3
    vertex 0 -2.25 -3.5
    vertex 0 -2.25 -3
  endloop
endfacet
facet normal 0 0 1
  outer loop
    vertex -0.417 -2.208 -3
    vertex 0 -2.25 -3
    vertex 0.417 -2.208 -3
  endloop
endfacet
facet normal -0.10021240954951306 -0.9949660662415983 0
  outer loop
    vertex -0.417 -2.208 3
    vertex 0 -2.25 3
    vertex -0.417 -2.208 3.5
  endloop
endfacet
facet normal 0 0 -1
  outer loop
    vertex -0.417 -2.208 3
    vertex 0.417 -2.208 3
    vertex 0 -2.25 3
  endloop
endfacet
facet normal -0.10021240954951306 -0.9949660662415983 0
  outer loop
    vertex -0.417 -2.208 3.5
    vertex 0 -2.25 3
    vertex 0 -2.25 3.5
  endloop
endfacet
facet normal 0 0 1
  outer loop
    vertex -0.417 -2.208 3.5
    vertex 0 -2.25 3.5
    vertex 0.417 -2.208 3.5
  endloop
endfacet
facet normal -0.10021240954951306 0.9949660662415983 0
  outer loop
    vertex -0.417 2.208 -3.5
    vertex -0.417 2.208 -3
    vertex 0 2.25 -3
  endloop
endfacet
facet normal 0 0 -1
  outer loop
    vertex -0.417 2.208 -3.5
    vertex 0 2.25 -3.5
    vertex 0.417 2.208 -3.5
  endloop
endfacet
facet normal -0.10021240954951306 0.9949660662415983 0
  outer loop
    vertex -0.417 2.208 -3.5
    vertex 0 2.25 -3
    vertex 0 2.25 -3.5
  endloop
endfacet
facet normal 0 0 1
  outer loop
    vertex -0.417 2.208 -3
    vertex 0.417 2.208 -3
    vertex 0 2.25 -3
  endloop
endfacet
facet normal -0.10021240954951306 0.9949660662415983 0
  outer loop
    vertex -0.417 2.208 3
    vertex -0.417 2.208 3.5
    vertex 0 2.25 3.5
  endloop
endfacet
facet normal 0 0 -1
  outer loop
    vertex -0.417 2.208 3
    vertex 0 2.25 3
    vertex 0.417 2.208 3
  endloop
endfacet
facet normal -0.10021240954951306 0.9949660662415983 0
  outer loop
    vertex -0.417 2.208 3
    vertex 0 2.25 3.5
    vertex 0 2.25 3
  endloop
endfacet
facet normal 0 0 1
  outer loop
    vertex -0.417 2.208 3.5
    vertex 0.417 2.208 3.5
    vertex 0 2.25 3.5
  endloop
endfacet
facet normal 0.09610480746658541 -0.9953712201896389 0
  outer loop
    vertex 0 -2.5 -3
    vertex 0.435 -2.458 -3
    vertex 0 -2.5 3
  endloop
endfacet
facet normal 0.09610480746658541 -0.9953712201896389 0
  outer loop
    vertex 0 -2.5 3
    vertex 0.435 -2.458 -3
    vertex 0.435 -2.458 3
  endloop
endfacet
facet normal 0.10021240954951306 -0.9949660662415983 0
  outer loop
    vertex 0 -2.25 -3.5
    vertex 0.417 -2.208 -3.5
    vertex 0 -2.25 -3
  endloop
endfacet
facet normal 0.10021240954951306 -0.9949660662415983 0
  outer loop
    vertex 0 -2.25 -3
    vertex 0.417 -2.208 -3.5
    vertex 0.417 -2.208 -3
  endloop
endfacet
facet normal 0.10021240954951306 -0.9949660662415983 0
  outer loop
    vertex 0 -2.25 3
    vertex 0.417 -2.208 3
    vertex 0 -2.25 3.5
  endloop
endfacet
facet normal 0.10021240954951306 -0.9949660662415983 0
  outer loop
    vertex 0 -2.25 3.5
    vertex 0.417 -2.208 3
    vertex 0.417 -2.208 3.5
  endloop
endfacet
facet normal 0.10021240954951306 0.9949660662415983 0
  outer loop
    vertex 0 2.25 -3.5
    vertex 0 2.25 -3
    vertex 0.417 2.208 -3
  endloop
endfacet
facet normal 0.10021240954951306 0.9949660662415983 0
  outer loop
    vertex 0 2.25 -3.5
    vertex 0.417 2.208 -3
    vertex 0.417 2.208 -3.5
  endloop
endfacet
facet normal 0.10021240954951306 0.9949660662415983 0
  outer loop
    vertex 0 2.25 3
    vertex 0 2.25 3.5
    vertex 0.417 2.208 3.5
  endloop
endfacet
facet normal 0.10021240954951306 0.9949660662415983 0
  outer loop
    vertex 0 2.25 3
    vertex 0.417 2.208 3.5
    vertex 0.417 2.208 3
  endloop
endfacet
facet normal 0.09610480746658541 0.9953712201896389 0
  outer loop
    vertex 0 2.5 -3
    vertex 0 2.5 3
    vertex 0.435 2.458 3
  endloop
endfacet
facet normal 0.09610480746658541 0.9953712201896389 0
  outer loop
    vertex 0 2.5 -3
    vertex 0.435 2.458 3
    vertex 0.435 2.458 -3
  endloop
endfacet
facet normal 0.263117405792109 -0.9647638212377322 0
  outer loop
    vertex 0.417 -2.208 -3.5
    vertex 0.8130000000000001 -2.1 -3.5
    vertex 0.417 -2.208 -3
  endloop
endfacet
facet normal -6.458539992002018e-15 0 -1
  outer loop
    vertex 0.417 -2.208 -3.5
    vertex 1.184 -1.9120000000000001 -3.5
    vertex 0.8130000000000001 -2.1 -3.5
  endloop
endfacet
facet normal 0 0 -0.9999999999999999
  outer loop
    vertex 0.417 -2.208 -3.5
    vertex 1.792 -1.359 -3.5
    vertex 1.184 -1.9120000000000001 -3.5
  endloop
endfacet
facet normal 0 0 -0.9999999999999999
  outer loop
    vertex 0.417 -2.208 -3.5
    vertex 2.236 -0.211 -3.5
    vertex 1.792 -1.359 -3.5
  endloop
endfacet
facet normal 0.2631174057921089 -0.9647638212377321 0
  outer loop
    vertex 0.417 -2.208 -3
    vertex 0.8130000000000001 -2.1 -3.5
    vertex 0.8130000000000001 -2.1 -3
  endloop
endfacet
facet normal 0 0 1
  outer loop
    vertex 0.417 -2.208 -3
    vertex 0.8130000000000001 -2.1 -3
    vertex 1.184 -1.9120000000000001 -3
  endloop
endfacet
facet normal 0 0 0.9999999999999999
  outer loop
    vertex 0.417 -2.208 -3
    vertex 1.184 -1.9120000000000001 -3
    vertex 1.792 -1.359 -3
  endloop
endfacet
facet normal 0 0 0.9999999999999999
  outer loop
    vertex 0.417 -2.208 -3
    vertex 1.792 -1.359 -3
    vertex 2.236 -0.211 -3
  endloop
endfacet
facet normal 0.263117405792109 -0.9647638212377322 0
  outer loop
    vertex 0.417 -2.208 3
    vertex 0.8130000000000001 -2.1 3
    vertex 0.417 -2.208 3.5
  endloop
endfacet
facet normal 0 0 -1
  outer loop
    vertex 0.417 -2.208 3
    vertex 1.184 -1.9120000000000001 3
    vertex 0.8130000000000001 -2.1 3
  endloop
endfacet
facet normal 0 0 -0.9999999999999999
  outer loop
    vertex 0.417 -2.208 3
    vertex 1.792 -1.359 3
    vertex 1.184 -1.9120000000000001 3
  endloop
endfacet
facet normal 0 0 -0.9999999999999999
  outer loop
    vertex 0.417 -2.208 3
    vertex 2.236 -0.211 3
    vertex 1.792 -1.359 3
  endloop
endfacet
facet normal 0.2631174057921089 -0.9647638212377321 0
  outer loop
    vertex 0.417 -2.208 3.5
    vertex 0.8130000000000001 -2.1 3
    vertex 0.8130000000000001 -2.1 3.5
  endloop
endfacet
facet normal -6.458539992002018e-15 0 1
  outer loop
    vertex 0.417 -2.208 3.5
    vertex 0.8130000000000001 -2.1 3.5
    vertex 1.184 -1.9120000000000001 3.5
  endloop
endfacet
facet normal 0 0 0.9999999999999999
  outer loop
    vertex 0.417 -2.208 3.5
    vertex 1.184 -1.9120000000000001 3.5
    vertex 1.792 -1.359 3.5
  endloop
endfacet
facet normal 0 0 0.9999999999999999
  outer loop
    vertex 0.417 -2.208 3.5
    vertex 1.792 -1.359 3.5
    vertex 2.236 -0.211 3.5
  endloop
endfacet
facet normal 0.263117405792109 0.9647638212377322 0
  outer loop
    vertex 0.417 2.208 -3.5
    vertex 0.417 2.208 -3
    vertex 0.8130000000000001 2.1 -3
  endloop
endfacet
facet normal -6.458539992002018e-15 0 -1
  outer loop
    vertex 0.417 2.208 -3.5
    vertex 0.8130000000000001 2.1 -3.5
    vertex 1.184 1.9120000000000001 -3.5
  endloop
endfacet
facet normal 0.2631174057921089 0.9647638212377321 0
  outer loop
    vertex 0.417 2.208 -3.5
    vertex 0.8130000000000001 2.1 -3
    vertex 0.8130000000000001 2.1 -3.5
  endloop
endfacet
facet normal 0 0 -0.9999999999999999
  outer loop
    vertex 0.417 2.208 -3.5
    vertex 1.184 1.9120000000000001 -3.5
    vertex 1.792 1.359 -3.5
  endloop
endfacet
facet normal 0 0 -0.9999999999999999
  outer loop
    vertex 0.417 2.208 -3.5
    vertex 1.792 1.359 -3.5
    vertex 2.236 0.211 -3.5
  endloop
endfacet
facet normal 0 0 1
  outer loop
    vertex 0.417 2.208 -3
    vertex 1.184 1.9120000000000001 -3
    vertex 0.8130000000000001 2.1 -3
  endloop
endfacet
facet normal 0 0 0.9999999999999999
  outer loop
    vertex 0.417 2.208 -3
    vertex 1.792 1.359 -3
    vertex 1.184 1.9120000000000001 -3
  endloop
endfacet
facet normal 0 0 0.9999999999999999
  outer loop
    vertex 0.417 2.208 -3
    vertex 2.236 0.211 -3
    vertex 1.792 1.359 -3
  endloop
endfacet
facet normal 0.263117405792109 0.9647638212377322 0
  outer loop
    vertex 0.417 2.208 3
    vertex 0.417 2.208 3.5
    vertex 0.8130000000000001 2.1 3.5
  endloop
endfacet
facet normal 0 0 -1
  outer loop
    vertex 0.417 2.208 3
    vertex 0.8130000000000001 2.1 3
    vertex 1.184 1.9120000000000001 3
  endloop
endfacet
facet normal 0.2631174057921089 0.9647638212377321 0
  outer loop
    vertex 0.417 2.208 3
    vertex 0.8130000000000001 2.1 3.5
    vertex 0.8130000000000001 2.1 3
  endloop
endfacet
facet normal 0 0 -0.9999999999999999
  outer loop
    vertex 0.417 2.208 3
    vertex 1.184 1.9120000000000001 3
    vertex 1.792 1.359 3
  endloop
endfacet
facet normal 0 0 -0.9999999999999999
  outer loop
    vertex 0.417 2.208 3
    vertex 1.792 1.359 3
    vertex 2.236 0.211 3
  endloop
endfacet
facet normal -6.458539992002018e-15 0 1
  outer loop
    vertex 0.417 2.208 3.5
    vertex 1.184 1.9120000000000001 3.5
    vertex 0.8130000000000001 2.1 3.5
  endloop
endfacet
facet normal 0 0 0.9999999999999999
  outer loop
    vertex 0.417 2.208 3.5
    vertex 1.792 1.359 3.5
    vertex 1.184 1.9120000000000001 3.5
  endloop
endfacet
facet normal 0 0 0.9999999999999999
  outer loop
    vertex 0.417 2.208 3.5
    vertex 2.236 0.211 3.5
    vertex 1.792 1.359 3.5
  endloop
endfacet
facet normal 0 0 -1
  outer loop
    vertex 0.435 -2.458 -3
    vertex 0.435 2.458 -3
    vertex 2.458 -0.435 -3
  endloop
endfacet
facet normal 0.25112060965045363 -0.9679558044708367 0
  outer loop
    vertex 0.435 -2.458 -3
    vertex 0.859 -2.348 -3
    vertex 0.435 -2.458 3
  endloop
endfacet
facet normal 0 0 -1
  outer loop
    vertex 0.435 -2.458 -3
    vertex 1.607 -1.917 -3
    vertex 0.859 -2.348 -3
  endloop
endfacet
facet normal 2.2702786659683296e-15 0 -0.9999999999999999
  outer loop
    vertex 0.435 -2.458 -3
    vertex 1.917 -1.607 -3
    vertex 1.607 -1.917 -3
  endloop
endfacet
facet normal 0 0 -1
  outer loop
    vertex 0.435 -2.458 -3
    vertex 2.458 -0.435 -3
    vertex 1.917 -1.607 -3
  endloop
endfacet
facet normal 0.25112060965045363 -0.9679558044708366 0
  outer loop
    vertex 0.435 -2.458 3
    vertex 0.859 -2.348 -3
    vertex 0.859 -2.348 3
  endloop
endfacet
facet normal 0 0 1
  outer loop
    vertex 0.435 -2.458 3
    vertex 0.859 -2.348 3
    vertex 1.607 -1.917 3
  endloop
endfacet
facet normal 2.2702786659683296e-15 0 0.9999999999999999
  outer loop
    vertex 0.435 -2.458 3
    vertex 1.607 -1.917 3
    vertex 1.917 -1.607 3
  endloop
endfacet
facet normal 0 0 1
  outer loop
    vertex 0.435 -2.458 3
    vertex 1.917 -1.607 3
    vertex 2.458 -0.435 3
  endloop
endfacet
facet normal 0 0 1
  outer loop
    vertex 0.435 -2.458 3
    vertex 2.458 -0.435 3
    vertex 0.435 2.458 3
  endloop
endfacet
facet normal 0.25112060965045363 0.9679558044708367 0
  outer loop
    vertex 0.435 2.458 -3
    vertex 0.435 2.458 3
    vertex 0.859 2.348 3
  endloop
endfacet
facet normal 0 0 -1
  outer loop
    vertex 0.435 2.458 -3
    vertex 0.859 2.348 -3
    vertex 1.607 1.917 -3
  endloop
endfacet
facet normal 0.25112060965045363 0.9679558044708366 0
  outer loop
    vertex 0.435 2.458 -3
    vertex 0.859 2.348 3
    vertex 0.859 2.348 -3
  endloop
endfacet
facet normal 2.2702786659683296e-15 0 -0.9999999999999999
  outer loop
    vertex 0.435 2.458 -3
    vertex 1.607 1.917 -3
    vertex 1.917 1.607 -3
  endloop
endfacet
facet normal 0 0 -1
  outer loop
    vertex 0.435 2.458 -3
    vertex 1.917 1.607 -3
    vertex 2.458 0.435 -3
  endloop
endfacet
facet normal -5.04643962079832e-16 0 -1
  outer loop
    vertex 0.435 2.458 -3
    vertex 2.458 0.435 -3
    vertex 2.458 -0.435 -3
  endloop
endfacet
facet normal 0 0 1
  outer loop
    vertex 0.435 2.458 3
    vertex 1.607 1.917 3
    vertex 0.859 2.348 3
  endloop
endfacet
facet normal 2.2702786659683296e-15 0 0.9999999999999999
  outer loop
    vertex 0.435 2.458 3
    vertex 1.917 1.607 3
    vertex 1.607 1.917 3
  endloop
endfacet
facet normal -5.04643962079832e-16 0 1
  outer loop
    vertex 0.435 2.458 3
    vertex 2.458 -0.435 3
    vertex 2.458 0.435 3
  endloop
endfacet
facet normal 0 0 1
  outer loop
    vertex 0.435 2.458 3
    vertex 2.458 0.435 3
    vertex 1.917 1.607 3
  endloop
endfacet
facet normal 0.4520158111102487 -0.8920099251165001 0
  outer loop
    vertex 0.8130000000000001 -2.1 -3.5
    vertex 1.184 -1.9120000000000001 -3.5
    vertex 0.8130000000000001 -2.1 -3
  endloop
endfacet
facet normal 0.45201581111024763 -0.8920099251165006 0
  outer loop
    vertex 0.8130000000000001 -2.1 -3
    vertex 1.184 -1.9120000000000001 -3.5
    vertex 1.184 -1.9120000000000001 -3
  endloop
endfacet
facet normal 0.4520158111102478 -0.8920099251165005 0
  outer loop
    vertex 0.8130000000000001 -2.1 3
    vertex 1.184 -1.9120000000000001 3
    vertex 0.8130000000000001 -2.1 3.5
  endloop
endfacet
facet normal 0.45201581111024847 -0.8920099251165001 0
  outer loop
    vertex 0.8130000000000001 -2.1 3.5
    vertex 1.184 -1.9120000000000001 3
    vertex 1.184 -1.9120000000000001 3.5
  endloop
endfacet
facet normal 0.4520158111102478 0.8920099251165005 0
  outer loop
    vertex 0.8130000000000001 2.1 -3.5
    vertex 0.8130000000000001 2.1 -3
    vertex 1.184 1.9120000000000001 -3
  endloop
endfacet
facet normal 0.45201581111024847 0.8920099251165001 0
  outer loop
    vertex 0.8130000000000001 2.1 -3.5
    vertex 1.184 1.9120000000000001 -3
    vertex 1.184 1.9120000000000001 -3.5
  endloop
endfacet
facet normal 0.4520158111102487 0.8920099251165001 0
  outer loop
    vertex 0.8130000000000001 2.1 3
    vertex 0.8130000000000001 2.1 3.5
    vertex 1.184 1.9120000000000001 3.5
  endloop
endfacet
facet normal 0.45201581111024763 0.8920099251165006 0
  outer loop
    vertex 0.8130000000000001 2.1 3
    vertex 1.184 1.9120000000000001 3.5
    vertex 1.184 1.9120000000000001 3
  endloop
endfacet
facet normal 0.4200881737860051 -0.9074832925432507 0
  outer loop
    vertex 0.859 -2.348 -3
    vertex 1.25 -2.1670000000000003 -3
    vertex 0.859 -2.348 3
  endloop
endfacet
facet normal 0 0 -1
  outer loop
    vertex 0.859 -2.348 -3
    vertex 1.607 -1.917 -3
    vertex 1.25 -2.1670000000000003 -3
  endloop
endfacet
facet normal 0.4200881737860051 -0.9074832925432507 0
  outer loop
    vertex 0.859 -2.348 3
    vertex 1.25 -2.1670000000000003 -3
    vertex 1.25 -2.1670000000000003 3
  endloop
endfacet
facet normal 0 0 1
  outer loop
    vertex 0.859 -2.348 3
    vertex 1.25 -2.1670000000000003 3
    vertex 1.607 -1.917 3
  endloop
endfacet
facet normal 0.4200881737860051 0.9074832925432507 0
  outer loop
    vertex 0.859 2.348 -3
    vertex 0.859 2.348 3
    vertex 1.25 2.1670000000000003 3
  endloop
endfacet
facet normal 0 0 -1
  outer loop
    vertex 0.859 2.348 -3
    vertex 1.25 2.1670000000000003 -3
    vertex 1.607 1.917 -3
  endloop
endfacet
facet normal 0.4200881737860051 0.9074832925432507 0
  outer loop
    vertex 0.859 2.348 -3
    vertex 1.25 2.1670000000000003 3
    vertex 1.25 2.1670000000000003 -3
  endloop
endfacet
facet normal 0 0 1
  outer loop
    vertex 0.859 2.348 3
    vertex 1.607 1.917 3
    vertex 1.25 2.1670000000000003 3
  endloop
endfacet
facet normal 0.5965445249654091 -0.8025799833871977 0
  outer loop
    vertex 1.184 -1.9120000000000001 -3.5
    vertex 1.5190000000000001 -1.663 -3.5
    vertex 1.184 -1.9120000000000001 -3
  endloop
endfacet
facet normal 1.3114290223844862e-14 0 -1
  outer loop
    vertex 1.184 -1.9120000000000001 -3.5
    vertex 1.792 -1.359 -3.5
    vertex 1.5190000000000001 -1.663 -3.5
  endloop
endfacet
facet normal 0.5965445249654096 -0.8025799833871972 0
  outer loop
    vertex 1.184 -1.9120000000000001 -3
    vertex 1.5190000000000001 -1.663 -3.5
    vertex 1.5190000000000001 -1.663 -3
  endloop
endfacet
facet normal 0 0 1
  outer loop
    vertex 1.184 -1.9120000000000001 -3
    vertex 1.5190000000000001 -1.663 -3
    vertex 1.792 -1.359 -3
  endloop
endfacet
facet normal 0.5965445249654091 -0.8025799833871977 0
  outer loop
    vertex 1.184 -1.9120000000000001 3
    vertex 1.5190000000000001 -1.663 3
    vertex 1.184 -1.9120000000000001 3.5
  endloop
endfacet
facet normal 0 0 -1
  outer loop
    vertex 1.184 -1.9120000000000001 3
    vertex 1.792 -1.359 3
    vertex 1.5190000000000001 -1.663 3
  endloop
endfacet
facet normal 0.5965445249654096 -0.8025799833871972 0
  outer loop
    vertex 1.184 -1.9120000000000001 3.5
    vertex 1.5190000000000001 -1.663 3
    vertex 1.5190000000000001 -1.663 3.5
  endloop
endfacet
facet normal 1.3114290223844862e-14 0 1
  outer loop
    vertex 1.184 -1.9120000000000001 3.5
    vertex 1.5190000000000001 -1.663 3.5
    vertex 1.792 -1.359 3.5
  endloop
endfacet
facet normal 0.5965445249654091 0.8025799833871977 0
  outer loop
    vertex 1.184 1.9120000000000001 -3.5
    vertex 1.184 1.9120000000000001 -3
    vertex 1.5190000000000001 1.663 -3
  endloop
endfacet
facet normal 1.3114290223844862e-14 0 -1
  outer loop
    vertex 1.184 1.9120000000000001 -3.5
    vertex 1.5190000000000001 1.663 -3.5
    vertex 1.792 1.359 -3.5
  endloop
endfacet
facet normal 0.5965445249654096 0.8025799833871972 0
  outer loop
    vertex 1.184 1.9120000000000001 -3.5
    vertex 1.5190000000000001 1.663 -3
    vertex 1.5190000000000001 1.663 -3.5
  endloop
endfacet
facet normal 0 0 1
  outer loop
    vertex 1.184 1.9120000000000001 -3
    vertex 1.792 1.359 -3
    vertex 1.5190000000000001 1.663 -3
  endloop
endfacet
facet normal 0.5965445249654091 0.8025799833871977 0
  outer loop
    vertex 1.184 1.9120000000000001 3
    vertex 1.184 1.9120000000000001 3.5
    vertex 1.5190000000000001 1.663 3.5
  endloop
endfacet
facet normal 0 0 -1
  outer loop
    vertex 1.184 1.9120000000000001 3
    vertex 1.5190000000000001 1.663 3
    vertex 1.792 1.359 3
  endloop
endfacet
facet normal 0.5965445249654096 0.8025799833871972 0
  outer loop
    vertex 1.184 1.9120000000000001 3
    vertex 1.5190000000000001 1.663 3.5
    vertex 1.5190000000000001 1.663 3
  endloop
endfacet
facet normal 1.3114290223844862e-14 0 1
  outer loop
    vertex 1.184 1.9120000000000001 3.5
    vertex 1.792 1.359 3.5
    vertex 1.5190000000000001 1.663 3.5
  endloop
endfacet
facet normal 0.5736163251921271 -0.8191241123743579 0
  outer loop
    vertex 1.25 -2.1670000000000003 -3
    vertex 1.607 -1.917 -3
    vertex 1.25 -2.1670000000000003 3
  endloop
endfacet
facet normal 0.5736163251921284 -0.819124112374357 0
  outer loop
    vertex 1.25 -2.1670000000000003 3
    vertex 1.607 -1.917 -3
    vertex 1.607 -1.917 3
  endloop
endfacet
facet normal 0.5736163251921271 0.8191241123743579 0
  outer loop
    vertex 1.25 2.1670000000000003 -3
    vertex 1.25 2.1670000000000003 3
    vertex 1.607 1.917 3
  endloop
endfacet
facet normal 0.5736163251921284 0.819124112374357 0
  outer loop
    vertex 1.25 2.1670000000000003 -3
    vertex 1.607 1.917 3
    vertex 1.607 1.917 -3
  endloop
endfacet
facet normal 0.744023881025102 -0.6681530247363586 0
  outer loop
    vertex 1.5190000000000001 -1.663 -3.5
    vertex 1.792 -1.359 -3.5
    vertex 1.5190000000000001 -1.663 -3
  endloop
endfacet
facet normal 0.7440238810251024 -0.6681530247363581 0
  outer loop
    vertex 1.5190000000000001 -1.663 -3
    vertex 1.792 -1.359 -3.5
    vertex 1.792 -1.359 -3
  endloop
endfacet
facet normal 0.744023881025103 -0.6681530247363575 0
  outer loop
    vertex 1.5190000000000001 -1.663 3
    vertex 1.792 -1.359 3
    vertex 1.5190000000000001 -1.663 3.5
  endloop
endfacet
facet normal 0.7440238810251014 -0.6681530247363592 0
  outer loop
    vertex 1.5190000000000001 -1.663 3.5
    vertex 1.792 -1.359 3
    vertex 1.792 -1.359 3.5
  endloop
endfacet
facet normal 0.744023881025103 0.6681530247363575 0
  outer loop
    vertex 1.5190000000000001 1.663 -3.5
    vertex 1.5190000000000001 1.663 -3
    vertex 1.792 1.359 -3
  endloop
endfacet
facet normal 0.7440238810251014 0.6681530247363592 0
  outer loop
    vertex 1.5190000000000001 1.663 -3.5
    vertex 1.792 1.359 -3
    vertex 1.792 1.359 -3.5
  endloop
endfacet
facet normal 0.744023881025102 0.6681530247363586 0
  outer loop
    vertex 1.5190000000000001 1.663 3
    vertex 1.5190000000000001 1.663 3.5
    vertex 1.792 1.359 3.5
  endloop
endfacet
facet normal 0.7440238810251024 0.6681530247363581 0
  outer loop
    vertex 1.5190000000000001 1.663 3
    vertex 1.792 1.359 3.5
    vertex 1.792 1.359 3
  endloop
endfacet
facet normal 0.7071067811865478 -0.7071067811865475 0
  outer loop
    vertex 1.607 -1.917 -3
    vertex 1.917 -1.607 -3
    vertex 1.607 -1.917 3
  endloop
endfacet
facet normal 0.707106781186547 -0.707106781186548 0
  outer loop
    vertex 1.607 -1.917 3
    vertex 1.917 -1.607 -3
    vertex 1.917 -1.607 3
  endloop
endfacet
facet normal 0.7071067811865478 0.7071067811865475 0
  outer loop
    vertex 1.607 1.917 -3
    vertex 1.607 1.917 3
    vertex 1.917 1.607 3
  endloop
endfacet
facet normal 0.707106781186547 0.707106781186548 0
  outer loop
    vertex 1.607 1.917 -3
    vertex 1.917 1.607 3
    vertex 1.917 1.607 -3
  endloop
endfacet
facet normal 0.8469151866006068 -0.5317280006782219 0
  outer loop
    vertex 1.792 -1.359 -3.5
    vertex 2.013 -1.0070000000000001 -3.5
    vertex 1.792 -1.359 -3
  endloop
endfacet
facet normal 0 0 -1
  outer loop
    vertex 1.792 -1.359 -3.5
    vertex 2.1630000000000003 -0.614 -3.5
    vertex 2.013 -1.0070000000000001 -3.5
  endloop
endfacet
facet normal -4.668333296716658e-15 0 -1
  outer loop
    vertex 1.792 -1.359 -3.5
    vertex 2.236 -0.211 -3.5
    vertex 2.1630000000000003 -0.614 -3.5
  endloop
endfacet
facet normal 0.8469151866006069 -0.5317280006782217 0
  outer loop
    vertex 1.792 -1.359 -3
    vertex 2.013 -1.0070000000000001 -3.5
    vertex 2.013 -1.0070000000000001 -3
  endloop
endfacet
facet normal 0 0 1
  outer loop
    vertex 1.792 -1.359 -3
    vertex 2.013 -1.0070000000000001 -3
    vertex 2.1630000000000003 -0.614 -3
  endloop
endfacet
facet normal 0 0 1
  outer loop
    vertex 1.792 -1.359 -3
    vertex 2.1630000000000003 -0.614 -3
    vertex 2.236 -0.211 -3
  endloop
endfacet
facet normal 0.8469151866006074 -0.5317280006782209 0
  outer loop
    vertex 1.792 -1.359 3
    vertex 2.013 -1.0070000000000001 3
    vertex 1.792 -1.359 3.5
  endloop
endfacet
facet normal 0 0 -1
  outer loop
    vertex 1.792 -1.359 3
    vertex 2.1630000000000003 -0.614 3
    vertex 2.013 -1.0070000000000001 3
  endloop
endfacet
facet normal 0 0 -1
  outer loop
    vertex 1.792 -1.359 3
    vertex 2.236 -0.211 3
    vertex 2.1630000000000003 -0.614 3
  endloop
endfacet
facet normal 0.8469151866006064 -0.5317280006782227 0
  outer loop
    vertex 1.792 -1.359 3.5
    vertex 2.013 -1.0070000000000001 3
    vertex 2.013 -1.0070000000000001 3.5
  endloop
endfacet
facet normal 0 0 1
  outer loop
    vertex 1.792 -1.359 3.5
    vertex 2.013 -1.0070000000000001 3.5
    vertex 2.1630000000000003 -0.614 3.5
  endloop
endfacet
facet normal -4.668333296716658e-15 0 1
  outer loop
    vertex 1.792 -1.359 3.5
    vertex 2.1630000000000003 -0.614 3.5
    vertex 2.236 -0.211 3.5
  endloop
endfacet
facet normal 0.8469151866006074 0.5317280006782209 0
  outer loop
    vertex 1.792 1.359 -3.5
    vertex 1.792 1.359 -3
    vertex 2.013 1.0070000000000001 -3
  endloop
endfacet
facet normal 0 0 -1
  outer loop
    vertex 1.792 1.359 -3.5
    vertex 2.013 1.0070000000000001 -3.5
    vertex 2.1630000000000003 0.614 -3.5
  endloop
endfacet
facet normal 0.8469151866006064 0.5317280006782227 0
  outer loop
    vertex 1.792 1.359 -3.5
    vertex 2.013 1.0070000000000001 -3
    vertex 2.013 1.0070000000000001 -3.5
  endloop
endfacet
facet normal -4.668333296716658e-15 0 -1
  outer loop
    vertex 1.792 1.359 -3.5
    vertex 2.1630000000000003 0.614 -3.5
    vertex 2.236 0.211 -3.5
  endloop
endfacet
facet normal 0 0 1
  outer loop
    vertex 1.792 1.359 -3
    vertex 2.1630000000000003 0.614 -3
    vertex 2.013 1.0070000000000001 -3
  endloop
endfacet
facet normal 0 0 1
  outer loop
    vertex 1.792 1.359 -3
    vertex 2.236 0.211 -3
    vertex 2.1630000000000003 0.614 -3
  endloop
endfacet
facet normal 0.8469151866006068 0.5317280006782219 0
  outer loop
    vertex 1.792 1.359 3
    vertex 1.792 1.359 3.5
    vertex 2.013 1.0070000000000001 3.5
  endloop
endfacet
facet normal 0 0 -1
  outer loop
    vertex 1.792 1.359 3
    vertex 2.013 1.0070000000000001 3
    vertex 2.1630000000000003 0.614 3
  endloop
endfacet
facet normal 0.8469151866006069 0.5317280006782217 0
  outer loop
    vertex 1.792 1.359 3
    vertex 2.013 1.0070000000000001 3.5
    vertex 2.013 1.0070000000000001 3
  endloop
endfacet
facet normal 0 0 -1
  outer loop
    vertex 1.792 1.359 3
    vertex 2.1630000000000003 0.614 3
    vertex 2.236 0.211 3
  endloop
endfacet
facet normal 0 0 1
  outer loop
    vertex 1.792 1.359 3.5
    vertex 2.1630000000000003 0.614 3.5
    vertex 2.013 1.0070000000000001 3.5
  endloop
endfacet
facet normal -4.668333296716658e-15 0 1
  outer loop
    vertex 1.792 1.359 3.5
    vertex 2.236 0.211 3.5
    vertex 2.1630000000000003 0.614 3.5
  endloop
endfacet
facet normal 0.8191241123743572 -0.5736163251921282 0
  outer loop
    vertex 1.917 -1.607 -3
    vertex 2.1670000000000003 -1.25 -3
    vertex 1.917 -1.607 3
  endloop
endfacet
facet normal -1.3403229706035096e-14 0 -1
  outer loop
    vertex 1.917 -1.607 -3
    vertex 2.348 -0.859 -3
    vertex 2.1670000000000003 -1.25 -3
  endloop
endfacet
facet normal 4.420381528209735e-15 0 -1
  outer loop
    vertex 1.917 -1.607 -3
    vertex 2.458 -0.435 -3
    vertex 2.348 -0.859 -3
  endloop
endfacet
facet normal 0.8191241123743579 -0.5736163251921274 0
  outer loop
    vertex 1.917 -1.607 3
    vertex 2.1670000000000003 -1.25 -3
    vertex 2.1670000000000003 -1.25 3
  endloop
endfacet
facet normal -1.3403229706035096e-14 0 1
  outer loop
    vertex 1.917 -1.607 3
    vertex 2.1670000000000003 -1.25 3
    vertex 2.348 -0.859 3
  endloop
endfacet
facet normal 4.420381528209735e-15 0 1
  outer loop
    vertex 1.917 -1.607 3
    vertex 2.348 -0.859 3
    vertex 2.458 -0.435 3
  endloop
endfacet
facet normal 0.8191241123743572 0.5736163251921282 0
  outer loop
    vertex 1.917 1.607 -3
    vertex 1.917 1.607 3
    vertex 2.1670000000000003 1.25 3
  endloop
endfacet
facet normal -1.3403229706035096e-14 0 -1
  outer loop
    vertex 1.917 1.607 -3
    vertex 2.1670000000000003 1.25 -3
    vertex 2.348 0.859 -3
  endloop
endfacet
facet normal 0.8191241123743579 0.5736163251921274 0
  outer loop
    vertex 1.917 1.607 -3
    vertex 2.1670000000000003 1.25 3
    vertex 2.1670000000000003 1.25 -3
  endloop
endfacet
facet normal 4.420381528209735e-15 0 -1
  outer loop
    vertex 1.917 1.607 -3
    vertex 2.348 0.859 -3
    vertex 2.458 0.435 -3
  endloop
endfacet
facet normal -1.3403229706035096e-14 0 1
  outer loop
    vertex 1.917 1.607 3
    vertex 2.348 0.859 3
    vertex 2.1670000000000003 1.25 3
  endloop
endfacet
facet normal 4.420381528209735e-15 0 1
  outer loop
    vertex 1.917 1.607 3
    vertex 2.458 0.435 3
    vertex 2.348 0.859 3
  endloop
endfacet
facet normal 0.9342615896897313 -0.35658839301134887 0
  outer loop
    vertex 2.013 -1.0070000000000001 -3.5
    vertex 2.1630000000000003 -0.614 -3.5
    vertex 2.013 -1.0070000000000001 -3
  endloop
endfacet
facet normal 0.9342615896897317 -0.3565883930113482 0
  outer loop
    vertex 2.013 -1.0070000000000001 -3
    vertex 2.1630000000000003 -0.614 -3.5
    vertex 2.1630000000000003 -0.614 -3
  endloop
endfacet
facet normal 0.9342615896897317 -0.3565883930113482 0
  outer loop
    vertex 2.013 -1.0070000000000001 3
    vertex 2.1630000000000003 -0.614 3
    vertex 2.013 -1.0070000000000001 3.5
  endloop
endfacet
facet normal 0.9342615896897313 -0.35658839301134887 0
  outer loop
    vertex 2.013 -1.0070000000000001 3.5
    vertex 2.1630000000000003 -0.614 3
    vertex 2.1630000000000003 -0.614 3.5
  endloop
endfacet
facet normal 0.9342615896897317 0.3565883930113482 0
  outer loop
    vertex 2.013 1.0070000000000001 -3.5
    vertex 2.013 1.0070000000000001 -3
    vertex 2.1630000000000003 0.614 -3
  endloop
endfacet
facet normal 0.9342615896897313 0.35658839301134887 0
  outer loop
    vertex 2.013 1.0070000000000001 -3.5
    vertex 2.1630000000000003 0.614 -3
    vertex 2.1630000000000003 0.614 -3.5
  endloop
endfacet
facet normal 0.9342615896897313 0.35658839301134887 0
  outer loop
    vertex 2.013 1.0070000000000001 3
    vertex 2.013 1.0070000000000001 3.5
    vertex 2.1630000000000003 0.614 3.5
  endloop
endfacet
facet normal 0.9342615896897317 0.3565883930113482 0
  outer loop
    vertex 2.013 1.0070000000000001 3
    vertex 2.1630000000000003 0.614 3.5
    vertex 2.1630000000000003 0.614 3
  endloop
endfacet
facet normal 0.9839868983733756 -0.17824080293115852 0
  outer loop
    vertex 2.1630000000000003 -0.614 -3.5
    vertex 2.236 -0.211 -3.5
    vertex 2.1630000000000003 -0.614 -3
  endloop
endfacet
facet normal 0.9839868983733762 -0.17824080293115604 0
  outer loop
    vertex 2.1630000000000003 -0.614 -3
    vertex 2.236 -0.211 -3.5
    vertex 2.236 -0.211 -3
  endloop
endfacet
facet normal 0.9839868983733758 -0.17824080293115815 0
  outer loop
    vertex 2.1630000000000003 -0.614 3
    vertex 2.236 -0.211 3
    vertex 2.1630000000000003 -0.614 3.5
  endloop
endfacet
facet normal 0.9839868983733762 -0.17824080293115646 0
  outer loop
    vertex 2.1630000000000003 -0.614 3.5
    vertex 2.236 -0.211 3
    vertex 2.236 -0.211 3.5
  endloop
endfacet
facet normal 0.9839868983733758 0.17824080293115815 0
  outer loop
    vertex 2.1630000000000003 0.614 -3.5
    vertex 2.1630000000000003 0.614 -3
    vertex 2.236 0.211 -3
  endloop
endfacet
facet normal 0.9839868983733762 0.17824080293115646 0
  outer loop
    vertex 2.1630000000000003 0.614 -3.5
    vertex 2.236 0.211 -3
    vertex 2.236 0.211 -3.5
  endloop
endfacet
facet normal 0.9839868983733756 0.17824080293115852 0
  outer loop
    vertex 2.1630000000000003 0.614 3
    vertex 2.1630000000000003 0.614 3.5
    vertex 2.236 0.211 3.5
  endloop
endfacet
facet normal 0.9839868983733762 0.17824080293115604 0
  outer loop
    vertex 2.1630000000000003 0.614 3
    vertex 2.236 0.211 3.5
    vertex 2.236 0.211 3
  endloop
endfacet
facet normal 0.9074832925432506 -0.4200881737860054 0
  outer loop
    vertex 2.1670000000000003 -1.25 -3
    vertex 2.348 -0.859 -3
    vertex 2.1670000000000003 -1.25 3
  endloop
endfacet
facet normal 0.9074832925432511 -0.4200881737860043 0
  outer loop
    vertex 2.1670000000000003 -1.25 3
    vertex 2.348 -0.859 -3
    vertex 2.348 -0.859 3
  endloop
endfacet
facet normal 0.9074832925432506 0.4200881737860054 0
  outer loop
    vertex 2.1670000000000003 1.25 -3
    vertex 2.1670000000000003 1.25 3
    vertex 2.348 0.859 3
  endloop
endfacet
facet normal 0.9074832925432511 0.4200881737860043 0
  outer loop
    vertex 2.1670000000000003 1.25 -3
    vertex 2.348 0.859 3
    vertex 2.348 0.859 -3
  endloop
endfacet
facet normal 1 0 0
  outer loop
    vertex 2.236 -0.211 -3.5
    vertex 2.236 0.211 -3.5
    vertex 2.236 -0.211 -3
  endloop
endfacet
facet normal 1 0 0
  outer loop
    vertex 2.236 -0.211 -3
    vertex 2.236 0.211 -3.5
    vertex 2.236 0.211 -3
  endloop
endfacet
facet normal 1 0 0
  outer loop
    vertex 2.236 -0.211 3
    vertex 2.236 0.211 3
    vertex 2.236 -0.211 3.5
  endloop
endfacet
facet normal 1 0 0
  outer loop
    vertex 2.236 -0.211 3.5
    vertex 2.236 0.211 3
    vertex 2.236 0.211 3.5
  endloop
endfacet
facet normal 0.9679558044708367 -0.25112060965045296 0
  outer loop
    vertex 2.348 -0.859 -3
    vertex 2.458 -0.435 -3
    vertex 2.348 -0.859 3
  endloop
endfacet
facet normal 0.9679558044708363 -0.25112060965045424 0
  outer loop
    vertex 2.348 -0.859 3
    vertex 2.458 -0.435 -3
    vertex 2.458 -0.435 3
  endloop
endfacet
facet normal 0.9679558044708367 0.25112060965045296 0
  outer loop
    vertex 2.348 0.859 -3
    vertex 2.348 0.859 3
    vertex 2.458 0.435 3
  endloop
endfacet
facet normal 0.9679558044708363 0.25112060965045424 0
  outer loop
    vertex 2.348 0.859 -3
    vertex 2.458 0.435 3
    vertex 2.458 0.435 -3
  endloop
endfacet
facet normal 0 0 -1
  outer loop
    vertex 2.458 -0.435 -3
    vertex 2.458 0.435 -3
    vertex 2.5 0 -3
  endloop
endfacet
facet normal 0.9953712201896389 -0.09610480746658541 0
  outer loop
    vertex 2.458 -0.435 -3
    vertex 2.5 0 -3
    vertex 2.458 -0.435 3
  endloop
endfacet
facet normal 0.9953712201896389 -0.09610480746658541 0
  outer loop
    vertex 2.458 -0.435 3
    vertex 2.5 0 -3
    vertex 2.5 0 3
  endloop
endfacet
facet normal 0 0 1
  outer loop
    vertex 2.458 -0.435 3
    vertex 2.5 0 3
    vertex 2.458 0.435 3
  endloop
endfacet
facet normal 0.9953712201896389 0.09610480746658541 0
  outer loop
    vertex 2.458 0.435 -3
    vertex 2.458 0.435 3
    vertex 2.5 0 3
  endloop
endfacet
facet normal 0.9953712201896389 0.09610480746658541 0
  outer loop
    vertex 2.458 0.435 -3
    vertex 2.5 0 3
    vertex 2.5 0 -3
  endloop
endfacet
endsolid JSxCAD
