<?xml version="1.0" encoding="UTF-8"?>
<!-- Generated by jsxcad -->
<!DOCTYPE svg PUBLIC "-//W3C//DTD SVG 1.1 Tiny//EN" "http://www.w3.org/Graphics/SVG/1.1/DTD/svg11-tiny.dtd">
<svg baseProfile="tiny" height="20.000000000000007mm" width="19.970326409495556mm" viewBox="-9.985163204747778 -10.000000000000004 19.970326409495556 20.000000000000007" version="1.1" stroke="black" stroke-width=".1" fill="none" xmlns="http://www.w3.org/2000/svg">
<path fill="#000000" stroke="#000000" d="M0 -5 L-0.625 -4.95575221238938 L-1.238532110091743 -4.838709677419354 L-1.8421052631578945 -4.651162790697674 L-2.407407407407407 -4.385964912280701 L-2.9411764705882346 -4.047619047619047 L-3.421052631578947 -3.6486486486486482 L-3.8571428571428568 -3.191489361702127 L-4.21875 -2.6785714285714284 L-4.523809523809523 -2.1249999999999996 L-4.7560975609756095 -1.5476190476190472 L-4.9074074074074066 -0.9375 L-4.985163204747773 -0.3125 L-4.985163204747773 0.3125 L-4.9074074074074066 0.9375 L-4.7560975609756095 1.5476190476190472 L-4.523809523809523 2.1249999999999996 L-4.21875 2.6785714285714284 L-3.8571428571428568 3.191489361702127 L-3.421052631578947 3.6486486486486482 L-2.9411764705882346 4.047619047619047 L-2.407407407407407 4.385964912280701 L-1.8421052631578945 4.651162790697674 L-1.238532110091743 4.838709677419354 L-0.625 4.95575221238938 L0 5 L0.625 4.95575221238938 L1.238532110091743 4.838709677419354 L1.8421052631578945 4.651162790697674 L2.407407407407407 4.385964912280701 L2.9411764705882346 4.047619047619047 L3.421052631578947 3.6486486486486482 L3.8571428571428568 3.191489361702127 L4.21875 2.6785714285714284 L4.523809523809523 2.1249999999999996 L4.7560975609756095 1.5476190476190472 L4.9074074074074066 0.9375 L4.985163204747773 0.3125 L4.985163204747773 -0.3125 L4.9074074074074066 -0.9375 L4.7560975609756095 -1.5476190476190472 L4.523809523809523 -2.1249999999999996 L4.21875 -2.6785714285714284 L3.8571428571428568 -3.191489361702127 L3.421052631578947 -3.6486486486486482 L2.9411764705882346 -4.047619047619047 L2.407407407407407 -4.385964912280701 L1.8421052631578945 -4.651162790697674 L1.238532110091743 -4.838709677419354 L0.625 -4.95575221238938 z"/>
</svg>