<?xml version="1.0" encoding="UTF-8"?>
<!-- Generated by jsxcad -->
<!DOCTYPE svg PUBLIC "-//W3C//DTD SVG 1.1 Tiny//EN" "http://www.w3.org/Graphics/SVG/1.1/DTD/svg11-tiny.dtd">
<svg baseProfile="tiny" height="20.00000mm" width="19.98049mm" viewBox="-9.99024 -10 19.98049 20.00000" version="1.1" stroke="black" stroke-width=".1" fill="none" xmlns="http://www.w3.org/2000/svg">
<path fill="#000000" stroke="#000000" d="M-4.99024 -19.68780 L-4.91179 -19.06493 L-4.75676 -18.45946 L-4.52270 -17.86805 L-4.22265 -17.32246 L-3.85269 -16.81303 L-3.41908 -16.35173 L-2.93457 -15.95175 L-2.41194 -15.62021 L-1.83807 -15.35011 L-1.24756 -15.15814 L-0.62257 -15.03891 L0.00000 -15.00000 L0.62257 -15.03891 L1.24756 -15.15814 L1.83807 -15.35011 L2.41194 -15.62021 L2.93457 -15.95175 L3.41908 -16.35173 L3.85269 -16.81303 L4.22265 -17.32246 L4.52270 -17.86805 L4.75676 -18.45946 L4.91179 -19.06493 L4.99024 -19.68780 L4.99024 -20.31220 L4.91179 -20.93507 L4.75676 -21.54054 L4.52270 -22.13195 L4.22265 -22.67754 L3.85269 -23.18697 L3.41908 -23.64827 L2.93457 -24.04825 L2.41194 -24.37979 L1.83807 -24.64989 L1.24756 -24.84186 L0.62257 -24.96109 L0.00000 -25.00000 L-0.62257 -24.96109 L-1.24756 -24.84186 L-1.83807 -24.64989 L-2.41194 -24.37979 L-2.93457 -24.04825 L-3.41908 -23.64827 L-3.85269 -23.18697 L-4.22265 -22.67754 L-4.52270 -22.13195 L-4.75676 -21.54054 L-4.91179 -20.93507 L-4.99024 -20.31220 z"/>
</svg>