<?xml version="1.0" encoding="UTF-8"?>
<!-- Generated by jsxcad -->
<!DOCTYPE svg PUBLIC "-//W3C//DTD SVG 1.1 Tiny//EN" "http://www.w3.org/Graphics/SVG/1.1/DTD/svg11-tiny.dtd">
<svg baseProfile="tiny" height="23.12500mm" width="20.00000mm" viewBox="-0.00088 3.12500 20.00000 23.12500" version="1.1" stroke="black" stroke-width=".1" fill="none" xmlns="http://www.w3.org/2000/svg">
<path fill="#000000" stroke="#000000" d="M4.99813 12.81280 L5.07659 12.18993 L5.23162 11.58446 L5.46567 10.99305 L5.76572 10.44746 L6.13568 9.93803 L6.56929 9.47673 L7.05381 9.07675 L7.57643 8.74521 L8.15030 8.47511 L8.74081 8.28314 L9.36580 8.16391 L9.98837 8.12500 L10.61094 8.16391 L11.23593 8.28314 L11.82645 8.47511 L12.40032 8.74521 L12.92294 9.07675 L13.40746 9.47673 L13.84106 9.93803 L14.21102 10.44746 L14.51107 10.99305 L14.74513 11.58446 L14.90016 12.18993 L14.97862 12.81280 L14.97862 13.43720 L14.90016 14.06007 L14.74513 14.66554 L14.51107 15.25695 L14.21102 15.80254 L13.84106 16.31197 L13.40746 16.77327 L12.92294 17.17325 L12.40032 17.50479 L11.82645 17.77489 L11.23593 17.96686 L10.61094 18.08609 L9.98837 18.12500 L9.36580 18.08609 L8.74081 17.96686 L8.15030 17.77489 L7.57643 17.50479 L7.05381 17.17325 L6.56929 16.77327 L6.13568 16.31197 L5.76572 15.80254 L5.46567 15.25695 L5.23162 14.66554 L5.07659 14.06007 L4.99813 13.43720 z"/>
<path stroke="#000000" d="M -0.00088 3.12500 L 19.99912 3.12500 L 19.99912 23.12500 L -0.00088 23.12500 z"/>
<path stroke="#000000" d="M 0.53484 25.89286 L 0.71341 25.98214 L 0.98127 26.25000 L 0.98127 24.37500"/>
<path stroke="#000000" d="M 3.21341 25.62500 L 3.12412 25.35714 L 2.94555 25.17857 L 2.67770 25.08929 L 2.58841 25.08929 L 2.32055 25.17857 L 2.14198 25.35714 L 2.05270 25.62500 L 2.05270 25.71429 L 2.14198 25.98214 L 2.32055 26.16071 L 2.58841 26.25000 L 2.67770 26.25000 L 2.94555 26.16071 L 3.12412 25.98214 L 3.21341 25.62500 L 3.21341 25.17857 L 3.12412 24.73214 L 2.94555 24.46429 L 2.67770 24.37500 L 2.49912 24.37500 L 2.23127 24.46429 L 2.14198 24.64286"/>
<path stroke="#000000" d="M 4.01698 24.55357 L 3.92770 24.46429 L 4.01698 24.37500 L 4.10627 24.46429 z"/>
<path stroke="#000000" d="M 5.89198 25.62500 L 5.80270 25.35714 L 5.62412 25.17857 L 5.35627 25.08929 L 5.26698 25.08929 L 4.99912 25.17857 L 4.82055 25.35714 L 4.73127 25.62500 L 4.73127 25.71429 L 4.82055 25.98214 L 4.99912 26.16071 L 5.26698 26.25000 L 5.35627 26.25000 L 5.62412 26.16071 L 5.80270 25.98214 L 5.89198 25.62500 L 5.89198 25.17857 L 5.80270 24.73214 L 5.62412 24.46429 L 5.35627 24.37500 L 5.17770 24.37500 L 4.90984 24.46429 L 4.82055 24.64286"/>
<path stroke="#000000" d="M 6.96341 26.25000 L 6.69555 26.16071 L 6.60627 25.98214 L 6.60627 25.80357 L 6.69555 25.62500 L 6.87412 25.53571 L 7.23127 25.44643 L 7.49912 25.35714 L 7.67770 25.17857 L 7.76698 25.00000 L 7.76698 24.73214 L 7.67770 24.55357 L 7.58841 24.46429 L 7.32055 24.37500 L 6.96341 24.37500 L 6.69555 24.46429 L 6.60627 24.55357 L 6.51698 24.73214 L 6.51698 25.00000 L 6.60627 25.17857 L 6.78484 25.35714 L 7.05270 25.44643 L 7.40984 25.53571 L 7.58841 25.62500 L 7.67770 25.80357 L 7.67770 25.98214 L 7.58841 26.16071 L 7.32055 26.25000 z"/>
<path stroke="#000000" d=""/>
<path stroke="#000000" d="M 9.73127 25.62500 L 10.71341 24.37500 M 10.71341 25.62500 L 9.73127 24.37500"/>
<path stroke="#000000" d=""/>
<path stroke="#000000" d="M 12.76698 25.80357 L 12.76698 25.89286 L 12.85627 26.07143 L 12.94555 26.16071 L 13.12412 26.25000 L 13.48127 26.25000 L 13.65984 26.16071 L 13.74912 26.07143 L 13.83841 25.89286 L 13.83841 25.71429 L 13.74912 25.53571 L 13.57055 25.26786 L 12.67770 24.37500 L 13.92770 24.37500"/>
<path stroke="#000000" d="M 14.99912 26.25000 L 14.73127 26.16071 L 14.55270 25.89286 L 14.46341 25.44643 L 14.46341 25.17857 L 14.55270 24.73214 L 14.73127 24.46429 L 14.99912 24.37500 L 15.17770 24.37500 L 15.44555 24.46429 L 15.62412 24.73214 L 15.71341 25.17857 L 15.71341 25.44643 L 15.62412 25.89286 L 15.44555 26.16071 L 15.17770 26.25000 z"/>
</svg>