solid JSxCAD
facet normal 0 0 -1
  outer loop
    vertex -4.99 -0.314 -5
    vertex -4.99 0.314 -5
    vertex -4.755 1.545 -5
  endloop
endfacet
facet normal 0 0 -1
  outer loop
    vertex -4.99 -0.314 -5
    vertex -4.755 -1.545 -5
    vertex -4.9110000000000005 -0.937 -5
  endloop
endfacet
facet normal -1 0 0
  outer loop
    vertex -4.99 -0.314 -5
    vertex -4.99 -0.314 5
    vertex -4.99 0.314 5
  endloop
endfacet
facet normal -0.9920558249127855 -0.12579841118477061 0
  outer loop
    vertex -4.99 -0.314 -5
    vertex -4.9110000000000005 -0.937 -5
    vertex -4.99 -0.314 5
  endloop
endfacet
facet normal 0 0 1
  outer loop
    vertex -4.99 -0.314 5
    vertex -4.755 -1.545 5
    vertex -4.755 1.545 5
  endloop
endfacet
facet normal 0 0 1
  outer loop
    vertex -4.99 -0.314 5
    vertex -4.755 1.545 5
    vertex -4.99 0.314 5
  endloop
endfacet
facet normal 0 0 1
  outer loop
    vertex -4.99 -0.314 5
    vertex -4.9110000000000005 -0.937 5
    vertex -4.755 -1.545 5
  endloop
endfacet
facet normal 0 0 -1
  outer loop
    vertex -4.99 0.314 -5
    vertex -4.9110000000000005 0.937 -5
    vertex -4.755 1.545 -5
  endloop
endfacet
facet normal -1 0 0
  outer loop
    vertex -4.99 0.314 -5
    vertex -4.99 -0.314 -5
    vertex -4.99 0.314 5
  endloop
endfacet
facet normal -0.9920558249127855 0.12579841118477061 0
  outer loop
    vertex -4.99 0.314 -5
    vertex -4.99 0.314 5
    vertex -4.9110000000000005 0.937 5
  endloop
endfacet
facet normal 0 0 1
  outer loop
    vertex -4.99 0.314 5
    vertex -4.755 1.545 5
    vertex -4.9110000000000005 0.937 5
  endloop
endfacet
facet normal -0.9920558249127863 -0.1257984111847639 0
  outer loop
    vertex -4.9110000000000005 -0.937 -5
    vertex -4.9110000000000005 -0.937 5
    vertex -4.99 -0.314 5
  endloop
endfacet
facet normal -0.9686245415732919 -0.24852866527209733 0
  outer loop
    vertex -4.9110000000000005 -0.937 -5
    vertex -4.755 -1.545 -5
    vertex -4.9110000000000005 -0.937 5
  endloop
endfacet
facet normal -0.9920558249127863 0.1257984111847639 0
  outer loop
    vertex -4.9110000000000005 0.937 -5
    vertex -4.99 0.314 -5
    vertex -4.9110000000000005 0.937 5
  endloop
endfacet
facet normal -0.9686245415732919 0.24852866527209733 0
  outer loop
    vertex -4.9110000000000005 0.937 -5
    vertex -4.9110000000000005 0.937 5
    vertex -4.755 1.545 5
  endloop
endfacet
facet normal 0 0 -1
  outer loop
    vertex -4.755 -1.545 -5
    vertex -4.99 -0.314 -5
    vertex -4.755 1.545 -5
  endloop
endfacet
facet normal 0 0 -1
  outer loop
    vertex -4.755 -1.545 -5
    vertex -4.755 1.545 -5
    vertex -3.853 3.1870000000000003 -5
  endloop
endfacet
facet normal -3.0319051412560863e-15 0 -1
  outer loop
    vertex -4.755 -1.545 -5
    vertex -3.423 -3.645 -5
    vertex -3.853 -3.1870000000000003 -5
  endloop
endfacet
facet normal 0 0 -1
  outer loop
    vertex -4.755 -1.545 -5
    vertex -4.222 -2.6790000000000003 -5
    vertex -4.524 -2.129 -5
  endloop
endfacet
facet normal 1.2028255572109253e-14 0 -1
  outer loop
    vertex -4.755 -1.545 -5
    vertex -3.853 -3.1870000000000003 -5
    vertex -4.222 -2.6790000000000003 -5
  endloop
endfacet
facet normal -1.836597228494884e-15 0 -1
  outer loop
    vertex -4.755 -1.545 -5
    vertex -2.939 -4.045 -5
    vertex -3.423 -3.645 -5
  endloop
endfacet
facet normal -1.30995999333371e-15 0 -0.9999999999999999
  outer loop
    vertex -4.755 -1.545 -5
    vertex -3.853 3.1870000000000003 -5
    vertex -2.939 -4.045 -5
  endloop
endfacet
facet normal -0.9686245415732924 -0.2485286652720952 0
  outer loop
    vertex -4.755 -1.545 -5
    vertex -4.755 -1.545 5
    vertex -4.9110000000000005 -0.937 5
  endloop
endfacet
facet normal -0.9298974020594512 -0.3678190066365298 0
  outer loop
    vertex -4.755 -1.545 -5
    vertex -4.524 -2.129 -5
    vertex -4.755 -1.545 5
  endloop
endfacet
facet normal 0 0 1
  outer loop
    vertex -4.755 -1.545 5
    vertex -3.853 3.1870000000000003 5
    vertex -4.755 1.545 5
  endloop
endfacet
facet normal -3.0319051412560863e-15 0 1
  outer loop
    vertex -4.755 -1.545 5
    vertex -3.853 -3.1870000000000003 5
    vertex -3.423 -3.645 5
  endloop
endfacet
facet normal 0 0 1
  outer loop
    vertex -4.755 -1.545 5
    vertex -4.524 -2.129 5
    vertex -4.222 -2.6790000000000003 5
  endloop
endfacet
facet normal 1.2028255572109253e-14 0 1
  outer loop
    vertex -4.755 -1.545 5
    vertex -4.222 -2.6790000000000003 5
    vertex -3.853 -3.1870000000000003 5
  endloop
endfacet
facet normal -1.836597228494884e-15 0 1
  outer loop
    vertex -4.755 -1.545 5
    vertex -3.423 -3.645 5
    vertex -2.939 -4.045 5
  endloop
endfacet
facet normal -1.30995999333371e-15 0 0.9999999999999999
  outer loop
    vertex -4.755 -1.545 5
    vertex -2.939 -4.045 5
    vertex -3.853 3.1870000000000003 5
  endloop
endfacet
facet normal 0 0 -1
  outer loop
    vertex -4.755 1.545 -5
    vertex -4.524 2.129 -5
    vertex -3.853 3.1870000000000003 -5
  endloop
endfacet
facet normal -0.9298974020594512 0.3678190066365298 0
  outer loop
    vertex -4.755 1.545 -5
    vertex -4.755 1.545 5
    vertex -4.524 2.129 5
  endloop
endfacet
facet normal -0.9686245415732924 0.2485286652720952 0
  outer loop
    vertex -4.755 1.545 -5
    vertex -4.9110000000000005 0.937 -5
    vertex -4.755 1.545 5
  endloop
endfacet
facet normal 0 0 1
  outer loop
    vertex -4.755 1.545 5
    vertex -3.853 3.1870000000000003 5
    vertex -4.524 2.129 5
  endloop
endfacet
facet normal -0.9298974020594519 -0.36781900663652783 0
  outer loop
    vertex -4.524 -2.129 -5
    vertex -4.524 -2.129 5
    vertex -4.755 -1.545 5
  endloop
endfacet
facet normal -0.876552183452395 -0.481306835277496 0
  outer loop
    vertex -4.524 -2.129 -5
    vertex -4.222 -2.6790000000000003 -5
    vertex -4.524 -2.129 5
  endloop
endfacet
facet normal 1.7930682353537326e-14 0 -1
  outer loop
    vertex -4.524 2.129 -5
    vertex -4.222 2.6790000000000003 -5
    vertex -3.853 3.1870000000000003 -5
  endloop
endfacet
facet normal -0.9298974020594519 0.36781900663652783 0
  outer loop
    vertex -4.524 2.129 -5
    vertex -4.755 1.545 -5
    vertex -4.524 2.129 5
  endloop
endfacet
facet normal -0.876552183452395 0.481306835277496 0
  outer loop
    vertex -4.524 2.129 -5
    vertex -4.524 2.129 5
    vertex -4.222 2.6790000000000003 5
  endloop
endfacet
facet normal 1.7930682353537326e-14 0 1
  outer loop
    vertex -4.524 2.129 5
    vertex -3.853 3.1870000000000003 5
    vertex -4.222 2.6790000000000003 5
  endloop
endfacet
facet normal -0.876552183452395 -0.481306835277496 0
  outer loop
    vertex -4.222 -2.6790000000000003 -5
    vertex -4.222 -2.6790000000000003 5
    vertex -4.524 -2.129 5
  endloop
endfacet
facet normal -0.8090803084527718 -0.5876980980690405 0
  outer loop
    vertex -4.222 -2.6790000000000003 -5
    vertex -3.853 -3.1870000000000003 -5
    vertex -4.222 -2.6790000000000003 5
  endloop
endfacet
facet normal -0.876552183452395 0.481306835277496 0
  outer loop
    vertex -4.222 2.6790000000000003 -5
    vertex -4.524 2.129 -5
    vertex -4.222 2.6790000000000003 5
  endloop
endfacet
facet normal -0.8090803084527718 0.5876980980690405 0
  outer loop
    vertex -4.222 2.6790000000000003 -5
    vertex -4.222 2.6790000000000003 5
    vertex -3.853 3.1870000000000003 5
  endloop
endfacet
facet normal -0.7290406112414275 -0.6844704428685914 0
  outer loop
    vertex -3.853 -3.1870000000000003 -5
    vertex -3.423 -3.645 -5
    vertex -3.853 -3.1870000000000003 5
  endloop
endfacet
facet normal -0.8090803084527708 -0.587698098069042 0
  outer loop
    vertex -3.853 -3.1870000000000003 -5
    vertex -3.853 -3.1870000000000003 5
    vertex -4.222 -2.6790000000000003 5
  endloop
endfacet
facet normal 0 0 -1
  outer loop
    vertex -3.853 3.1870000000000003 -5
    vertex -3.423 3.645 -5
    vertex -2.939 4.045 -5
  endloop
endfacet
facet normal -1.5494114460712871e-15 0 -1
  outer loop
    vertex -3.853 3.1870000000000003 -5
    vertex -2.939 4.045 -5
    vertex -0.627 4.961 -5
  endloop
endfacet
facet normal 2.0157572401477824e-15 0 -1
  outer loop
    vertex -3.853 3.1870000000000003 -5
    vertex -2.4090000000000003 -4.382 -5
    vertex -2.939 -4.045 -5
  endloop
endfacet
facet normal 0 0 -1
  outer loop
    vertex -3.853 3.1870000000000003 -5
    vertex 4.222 2.6790000000000003 -5
    vertex -2.4090000000000003 -4.382 -5
  endloop
endfacet
facet normal 0 0 -0.9999999999999999
  outer loop
    vertex -3.853 3.1870000000000003 -5
    vertex -0.627 4.961 -5
    vertex 4.222 2.6790000000000003 -5
  endloop
endfacet
facet normal -0.7290406112414275 0.6844704428685914 0
  outer loop
    vertex -3.853 3.1870000000000003 -5
    vertex -3.853 3.1870000000000003 5
    vertex -3.423 3.645 5
  endloop
endfacet
facet normal -0.8090803084527708 0.587698098069042 0
  outer loop
    vertex -3.853 3.1870000000000003 -5
    vertex -4.222 2.6790000000000003 -5
    vertex -3.853 3.1870000000000003 5
  endloop
endfacet
facet normal 0 0 1
  outer loop
    vertex -3.853 3.1870000000000003 5
    vertex -2.939 4.045 5
    vertex -3.423 3.645 5
  endloop
endfacet
facet normal -1.5494114460712871e-15 0 1
  outer loop
    vertex -3.853 3.1870000000000003 5
    vertex -0.627 4.961 5
    vertex -2.939 4.045 5
  endloop
endfacet
facet normal 2.0157572401477824e-15 0 1
  outer loop
    vertex -3.853 3.1870000000000003 5
    vertex -2.939 -4.045 5
    vertex -2.4090000000000003 -4.382 5
  endloop
endfacet
facet normal 0 0 1
  outer loop
    vertex -3.853 3.1870000000000003 5
    vertex -2.4090000000000003 -4.382 5
    vertex 4.222 2.6790000000000003 5
  endloop
endfacet
facet normal 0 0 0.9999999999999999
  outer loop
    vertex -3.853 3.1870000000000003 5
    vertex 4.222 2.6790000000000003 5
    vertex -0.627 4.961 5
  endloop
endfacet
facet normal -0.7290406112414298 -0.6844704428685889 0
  outer loop
    vertex -3.423 -3.645 -5
    vertex -3.423 -3.645 5
    vertex -3.853 -3.1870000000000003 5
  endloop
endfacet
facet normal -0.6370460623571178 -0.7708257354521132 0
  outer loop
    vertex -3.423 -3.645 -5
    vertex -2.939 -4.045 -5
    vertex -3.423 -3.645 5
  endloop
endfacet
facet normal -0.6370460623571178 0.7708257354521132 0
  outer loop
    vertex -3.423 3.645 -5
    vertex -3.423 3.645 5
    vertex -2.939 4.045 5
  endloop
endfacet
facet normal -0.7290406112414298 0.6844704428685889 0
  outer loop
    vertex -3.423 3.645 -5
    vertex -3.853 3.1870000000000003 -5
    vertex -3.423 3.645 5
  endloop
endfacet
facet normal -0.6370460623571178 -0.7708257354521132 0
  outer loop
    vertex -2.939 -4.045 -5
    vertex -2.939 -4.045 5
    vertex -3.423 -3.645 5
  endloop
endfacet
facet normal -0.5365663849375868 -0.8438581128098547 0
  outer loop
    vertex -2.939 -4.045 -5
    vertex -2.4090000000000003 -4.382 -5
    vertex -2.939 -4.045 5
  endloop
endfacet
facet normal 0 0 -0.9999999999999999
  outer loop
    vertex -2.939 4.045 -5
    vertex -2.4090000000000003 4.382 -5
    vertex -1.841 4.649 -5
  endloop
endfacet
facet normal 0 0 -1
  outer loop
    vertex -2.939 4.045 -5
    vertex -1.243 4.843 -5
    vertex -0.627 4.961 -5
  endloop
endfacet
facet normal 0 0 -1
  outer loop
    vertex -2.939 4.045 -5
    vertex -1.841 4.649 -5
    vertex -1.243 4.843 -5
  endloop
endfacet
facet normal -0.5365663849375868 0.8438581128098547 0
  outer loop
    vertex -2.939 4.045 -5
    vertex -2.939 4.045 5
    vertex -2.4090000000000003 4.382 5
  endloop
endfacet
facet normal -0.6370460623571178 0.7708257354521132 0
  outer loop
    vertex -2.939 4.045 -5
    vertex -3.423 3.645 -5
    vertex -2.939 4.045 5
  endloop
endfacet
facet normal 0 0 0.9999999999999999
  outer loop
    vertex -2.939 4.045 5
    vertex -1.841 4.649 5
    vertex -2.4090000000000003 4.382 5
  endloop
endfacet
facet normal 0 0 1
  outer loop
    vertex -2.939 4.045 5
    vertex -0.627 4.961 5
    vertex -1.243 4.843 5
  endloop
endfacet
facet normal 0 0 1
  outer loop
    vertex -2.939 4.045 5
    vertex -1.243 4.843 5
    vertex -1.841 4.649 5
  endloop
endfacet
facet normal 0 0 -1
  outer loop
    vertex -2.4090000000000003 -4.382 -5
    vertex -1.243 -4.843 -5
    vertex -1.841 -4.649 -5
  endloop
endfacet
facet normal 0 0 -1
  outer loop
    vertex -2.4090000000000003 -4.382 -5
    vertex 0.627 -4.961 -5
    vertex -1.243 -4.843 -5
  endloop
endfacet
facet normal 0 0 -1
  outer loop
    vertex -2.4090000000000003 -4.382 -5
    vertex 4.222 2.6790000000000003 -5
    vertex 0.627 -4.961 -5
  endloop
endfacet
facet normal -0.5365663849375868 -0.8438581128098547 0
  outer loop
    vertex -2.4090000000000003 -4.382 -5
    vertex -2.4090000000000003 -4.382 5
    vertex -2.939 -4.045 5
  endloop
endfacet
facet normal -0.4254133402251949 -0.9049991657225119 0
  outer loop
    vertex -2.4090000000000003 -4.382 -5
    vertex -1.841 -4.649 -5
    vertex -2.4090000000000003 -4.382 5
  endloop
endfacet
facet normal 0 0 1
  outer loop
    vertex -2.4090000000000003 -4.382 5
    vertex -1.841 -4.649 5
    vertex -1.243 -4.843 5
  endloop
endfacet
facet normal 0 0 1
  outer loop
    vertex -2.4090000000000003 -4.382 5
    vertex -1.243 -4.843 5
    vertex 0.627 -4.961 5
  endloop
endfacet
facet normal 0 0 1
  outer loop
    vertex -2.4090000000000003 -4.382 5
    vertex 0.627 -4.961 5
    vertex 4.222 2.6790000000000003 5
  endloop
endfacet
facet normal -0.4254133402251949 0.9049991657225119 0
  outer loop
    vertex -2.4090000000000003 4.382 -5
    vertex -2.4090000000000003 4.382 5
    vertex -1.841 4.649 5
  endloop
endfacet
facet normal -0.5365663849375868 0.8438581128098547 0
  outer loop
    vertex -2.4090000000000003 4.382 -5
    vertex -2.939 4.045 -5
    vertex -2.4090000000000003 4.382 5
  endloop
endfacet
facet normal -0.4254133402251953 -0.9049991657225116 0
  outer loop
    vertex -1.841 -4.649 -5
    vertex -1.841 -4.649 5
    vertex -2.4090000000000003 -4.382 5
  endloop
endfacet
facet normal -0.3085824939154157 -0.9511975843372095 0
  outer loop
    vertex -1.841 -4.649 -5
    vertex -1.243 -4.843 -5
    vertex -1.841 -4.649 5
  endloop
endfacet
facet normal -0.4254133402251953 0.9049991657225116 0
  outer loop
    vertex -1.841 4.649 -5
    vertex -2.4090000000000003 4.382 -5
    vertex -1.841 4.649 5
  endloop
endfacet
facet normal -0.3085824939154157 0.9511975843372095 0
  outer loop
    vertex -1.841 4.649 -5
    vertex -1.841 4.649 5
    vertex -1.243 4.843 5
  endloop
endfacet
facet normal 0 0 -1
  outer loop
    vertex -1.243 -4.843 -5
    vertex 0.627 -4.961 -5
    vertex -0.627 -4.961 -5
  endloop
endfacet
facet normal -0.3085824939154158 -0.9511975843372092 0
  outer loop
    vertex -1.243 -4.843 -5
    vertex -1.243 -4.843 5
    vertex -1.841 -4.649 5
  endloop
endfacet
facet normal -0.18813771684127073 -0.9821426574086648 0
  outer loop
    vertex -1.243 -4.843 -5
    vertex -0.627 -4.961 -5
    vertex -1.243 -4.843 5
  endloop
endfacet
facet normal 0 0 1
  outer loop
    vertex -1.243 -4.843 5
    vertex -0.627 -4.961 5
    vertex 0.627 -4.961 5
  endloop
endfacet
facet normal -0.18813771684127073 0.9821426574086648 0
  outer loop
    vertex -1.243 4.843 -5
    vertex -1.243 4.843 5
    vertex -0.627 4.961 5
  endloop
endfacet
facet normal -0.3085824939154158 0.9511975843372092 0
  outer loop
    vertex -1.243 4.843 -5
    vertex -1.841 4.649 -5
    vertex -1.243 4.843 5
  endloop
endfacet
facet normal 0 0 -1
  outer loop
    vertex -0.627 -4.961 -5
    vertex 0.627 -4.961 -5
    vertex 0 -5 -5
  endloop
endfacet
facet normal -0.1881377168412706 -0.9821426574086647 0
  outer loop
    vertex -0.627 -4.961 -5
    vertex -0.627 -4.961 5
    vertex -1.243 -4.843 5
  endloop
endfacet
facet normal -0.06208097849209418 -0.9980711157575216 0
  outer loop
    vertex -0.627 -4.961 -5
    vertex 0 -5 -5
    vertex -0.627 -4.961 5
  endloop
endfacet
facet normal 0 0 1
  outer loop
    vertex -0.627 -4.961 5
    vertex 0 -5 5
    vertex 0.627 -4.961 5
  endloop
endfacet
facet normal 0 0 -1
  outer loop
    vertex -0.627 4.961 -5
    vertex 1.243 4.843 -5
    vertex 4.222 2.6790000000000003 -5
  endloop
endfacet
facet normal 0 0 -1
  outer loop
    vertex -0.627 4.961 -5
    vertex 0 5 -5
    vertex 1.243 4.843 -5
  endloop
endfacet
facet normal -0.1881377168412706 0.9821426574086647 0
  outer loop
    vertex -0.627 4.961 -5
    vertex -1.243 4.843 -5
    vertex -0.627 4.961 5
  endloop
endfacet
facet normal -0.06208097849209418 0.9980711157575216 0
  outer loop
    vertex -0.627 4.961 -5
    vertex -0.627 4.961 5
    vertex 0 5 5
  endloop
endfacet
facet normal 0 0 1
  outer loop
    vertex -0.627 4.961 5
    vertex 4.222 2.6790000000000003 5
    vertex 1.243 4.843 5
  endloop
endfacet
facet normal 0 0 1
  outer loop
    vertex -0.627 4.961 5
    vertex 1.243 4.843 5
    vertex 0 5 5
  endloop
endfacet
facet normal -0.06208097849209418 -0.9980711157575216 0
  outer loop
    vertex 0 -5 -5
    vertex 0 -5 5
    vertex -0.627 -4.961 5
  endloop
endfacet
facet normal 0.06208097849209418 -0.9980711157575216 0
  outer loop
    vertex 0 -5 -5
    vertex 0.627 -4.961 -5
    vertex 0 -5 5
  endloop
endfacet
facet normal 0 0 -1
  outer loop
    vertex 0 5 -5
    vertex 0.627 4.961 -5
    vertex 1.243 4.843 -5
  endloop
endfacet
facet normal -0.06208097849209418 0.9980711157575216 0
  outer loop
    vertex 0 5 -5
    vertex -0.627 4.961 -5
    vertex 0 5 5
  endloop
endfacet
facet normal 0.06208097849209418 0.9980711157575216 0
  outer loop
    vertex 0 5 -5
    vertex 0 5 5
    vertex 0.627 4.961 5
  endloop
endfacet
facet normal 0 0 1
  outer loop
    vertex 0 5 5
    vertex 1.243 4.843 5
    vertex 0.627 4.961 5
  endloop
endfacet
facet normal 0 0 -1
  outer loop
    vertex 0.627 -4.961 -5
    vertex 4.222 2.6790000000000003 -5
    vertex 4.9110000000000005 -0.937 -5
  endloop
endfacet
facet normal 0 0 -0.9999999999999999
  outer loop
    vertex 0.627 -4.961 -5
    vertex 4.9110000000000005 -0.937 -5
    vertex 4.222 -2.6790000000000003 -5
  endloop
endfacet
facet normal 0 0 -0.9999999999999999
  outer loop
    vertex 0.627 -4.961 -5
    vertex 1.841 -4.649 -5
    vertex 1.243 -4.843 -5
  endloop
endfacet
facet normal 0 0 -0.9999999999999999
  outer loop
    vertex 0.627 -4.961 -5
    vertex 4.222 -2.6790000000000003 -5
    vertex 1.841 -4.649 -5
  endloop
endfacet
facet normal 0.06208097849209418 -0.9980711157575216 0
  outer loop
    vertex 0.627 -4.961 -5
    vertex 0.627 -4.961 5
    vertex 0 -5 5
  endloop
endfacet
facet normal 0.1881377168412706 -0.9821426574086647 0
  outer loop
    vertex 0.627 -4.961 -5
    vertex 1.243 -4.843 -5
    vertex 0.627 -4.961 5
  endloop
endfacet
facet normal 0 0 1
  outer loop
    vertex 0.627 -4.961 5
    vertex 4.9110000000000005 -0.937 5
    vertex 4.222 2.6790000000000003 5
  endloop
endfacet
facet normal 0 0 0.9999999999999999
  outer loop
    vertex 0.627 -4.961 5
    vertex 4.222 -2.6790000000000003 5
    vertex 4.9110000000000005 -0.937 5
  endloop
endfacet
facet normal 0 0 0.9999999999999999
  outer loop
    vertex 0.627 -4.961 5
    vertex 1.243 -4.843 5
    vertex 1.841 -4.649 5
  endloop
endfacet
facet normal 0 0 0.9999999999999999
  outer loop
    vertex 0.627 -4.961 5
    vertex 1.841 -4.649 5
    vertex 4.222 -2.6790000000000003 5
  endloop
endfacet
facet normal 0.06208097849209418 0.9980711157575216 0
  outer loop
    vertex 0.627 4.961 -5
    vertex 0 5 -5
    vertex 0.627 4.961 5
  endloop
endfacet
facet normal 0.1881377168412706 0.9821426574086647 0
  outer loop
    vertex 0.627 4.961 -5
    vertex 0.627 4.961 5
    vertex 1.243 4.843 5
  endloop
endfacet
facet normal 0.18813771684127073 -0.9821426574086648 0
  outer loop
    vertex 1.243 -4.843 -5
    vertex 1.243 -4.843 5
    vertex 0.627 -4.961 5
  endloop
endfacet
facet normal 0.3085824939154158 -0.9511975843372092 0
  outer loop
    vertex 1.243 -4.843 -5
    vertex 1.841 -4.649 -5
    vertex 1.243 -4.843 5
  endloop
endfacet
facet normal 0 0 -1
  outer loop
    vertex 1.243 4.843 -5
    vertex 2.4090000000000003 4.382 -5
    vertex 4.222 2.6790000000000003 -5
  endloop
endfacet
facet normal 0 0 -1
  outer loop
    vertex 1.243 4.843 -5
    vertex 1.841 4.649 -5
    vertex 2.4090000000000003 4.382 -5
  endloop
endfacet
facet normal 0.3085824939154158 0.9511975843372092 0
  outer loop
    vertex 1.243 4.843 -5
    vertex 1.243 4.843 5
    vertex 1.841 4.649 5
  endloop
endfacet
facet normal 0.18813771684127073 0.9821426574086648 0
  outer loop
    vertex 1.243 4.843 -5
    vertex 0.627 4.961 -5
    vertex 1.243 4.843 5
  endloop
endfacet
facet normal 0 0 1
  outer loop
    vertex 1.243 4.843 5
    vertex 4.222 2.6790000000000003 5
    vertex 2.4090000000000003 4.382 5
  endloop
endfacet
facet normal 0 0 1
  outer loop
    vertex 1.243 4.843 5
    vertex 2.4090000000000003 4.382 5
    vertex 1.841 4.649 5
  endloop
endfacet
facet normal -2.450363672655588e-15 0 -1
  outer loop
    vertex 1.841 -4.649 -5
    vertex 4.222 -2.6790000000000003 -5
    vertex 2.939 -4.045 -5
  endloop
endfacet
facet normal 0 0 -0.9999999999999999
  outer loop
    vertex 1.841 -4.649 -5
    vertex 2.939 -4.045 -5
    vertex 2.4090000000000003 -4.382 -5
  endloop
endfacet
facet normal 0.3085824939154157 -0.9511975843372095 0
  outer loop
    vertex 1.841 -4.649 -5
    vertex 1.841 -4.649 5
    vertex 1.243 -4.843 5
  endloop
endfacet
facet normal 0.4254133402251953 -0.9049991657225116 0
  outer loop
    vertex 1.841 -4.649 -5
    vertex 2.4090000000000003 -4.382 -5
    vertex 1.841 -4.649 5
  endloop
endfacet
facet normal -2.450363672655588e-15 0 1
  outer loop
    vertex 1.841 -4.649 5
    vertex 2.939 -4.045 5
    vertex 4.222 -2.6790000000000003 5
  endloop
endfacet
facet normal 0 0 0.9999999999999999
  outer loop
    vertex 1.841 -4.649 5
    vertex 2.4090000000000003 -4.382 5
    vertex 2.939 -4.045 5
  endloop
endfacet
facet normal 0.4254133402251953 0.9049991657225116 0
  outer loop
    vertex 1.841 4.649 -5
    vertex 1.841 4.649 5
    vertex 2.4090000000000003 4.382 5
  endloop
endfacet
facet normal 0.3085824939154157 0.9511975843372095 0
  outer loop
    vertex 1.841 4.649 -5
    vertex 1.243 4.843 -5
    vertex 1.841 4.649 5
  endloop
endfacet
facet normal 0.4254133402251949 -0.9049991657225119 0
  outer loop
    vertex 2.4090000000000003 -4.382 -5
    vertex 2.4090000000000003 -4.382 5
    vertex 1.841 -4.649 5
  endloop
endfacet
facet normal 0.5365663849375868 -0.8438581128098547 0
  outer loop
    vertex 2.4090000000000003 -4.382 -5
    vertex 2.939 -4.045 -5
    vertex 2.4090000000000003 -4.382 5
  endloop
endfacet
facet normal 0 0 -0.9999999999999999
  outer loop
    vertex 2.4090000000000003 4.382 -5
    vertex 3.423 3.645 -5
    vertex 4.222 2.6790000000000003 -5
  endloop
endfacet
facet normal 0 0 -0.9999999999999999
  outer loop
    vertex 2.4090000000000003 4.382 -5
    vertex 2.939 4.045 -5
    vertex 3.423 3.645 -5
  endloop
endfacet
facet normal 0.5365663849375868 0.8438581128098547 0
  outer loop
    vertex 2.4090000000000003 4.382 -5
    vertex 2.4090000000000003 4.382 5
    vertex 2.939 4.045 5
  endloop
endfacet
facet normal 0.4254133402251949 0.9049991657225119 0
  outer loop
    vertex 2.4090000000000003 4.382 -5
    vertex 1.841 4.649 -5
    vertex 2.4090000000000003 4.382 5
  endloop
endfacet
facet normal 0 0 0.9999999999999999
  outer loop
    vertex 2.4090000000000003 4.382 5
    vertex 4.222 2.6790000000000003 5
    vertex 3.423 3.645 5
  endloop
endfacet
facet normal 0 0 0.9999999999999999
  outer loop
    vertex 2.4090000000000003 4.382 5
    vertex 3.423 3.645 5
    vertex 2.939 4.045 5
  endloop
endfacet
facet normal 0 0 -1
  outer loop
    vertex 2.939 -4.045 -5
    vertex 4.222 -2.6790000000000003 -5
    vertex 3.423 -3.645 -5
  endloop
endfacet
facet normal 0.5365663849375868 -0.8438581128098547 0
  outer loop
    vertex 2.939 -4.045 -5
    vertex 2.939 -4.045 5
    vertex 2.4090000000000003 -4.382 5
  endloop
endfacet
facet normal 0.6370460623571178 -0.7708257354521132 0
  outer loop
    vertex 2.939 -4.045 -5
    vertex 3.423 -3.645 -5
    vertex 2.939 -4.045 5
  endloop
endfacet
facet normal 0 0 1
  outer loop
    vertex 2.939 -4.045 5
    vertex 3.423 -3.645 5
    vertex 4.222 -2.6790000000000003 5
  endloop
endfacet
facet normal 0.6370460623571178 0.7708257354521132 0
  outer loop
    vertex 2.939 4.045 -5
    vertex 2.939 4.045 5
    vertex 3.423 3.645 5
  endloop
endfacet
facet normal 0.5365663849375868 0.8438581128098547 0
  outer loop
    vertex 2.939 4.045 -5
    vertex 2.4090000000000003 4.382 -5
    vertex 2.939 4.045 5
  endloop
endfacet
facet normal -1.796550062098207e-14 0 -0.9999999999999999
  outer loop
    vertex 3.423 -3.645 -5
    vertex 4.222 -2.6790000000000003 -5
    vertex 3.853 -3.1870000000000003 -5
  endloop
endfacet
facet normal 0.6370460623571178 -0.7708257354521132 0
  outer loop
    vertex 3.423 -3.645 -5
    vertex 3.423 -3.645 5
    vertex 2.939 -4.045 5
  endloop
endfacet
facet normal 0.7290406112414298 -0.6844704428685889 0
  outer loop
    vertex 3.423 -3.645 -5
    vertex 3.853 -3.1870000000000003 -5
    vertex 3.423 -3.645 5
  endloop
endfacet
facet normal -1.796550062098207e-14 0 0.9999999999999999
  outer loop
    vertex 3.423 -3.645 5
    vertex 3.853 -3.1870000000000003 5
    vertex 4.222 -2.6790000000000003 5
  endloop
endfacet
facet normal -1.796550062098207e-14 0 -0.9999999999999999
  outer loop
    vertex 3.423 3.645 -5
    vertex 3.853 3.1870000000000003 -5
    vertex 4.222 2.6790000000000003 -5
  endloop
endfacet
facet normal 0.7290406112414298 0.6844704428685889 0
  outer loop
    vertex 3.423 3.645 -5
    vertex 3.423 3.645 5
    vertex 3.853 3.1870000000000003 5
  endloop
endfacet
facet normal 0.6370460623571178 0.7708257354521132 0
  outer loop
    vertex 3.423 3.645 -5
    vertex 2.939 4.045 -5
    vertex 3.423 3.645 5
  endloop
endfacet
facet normal -1.796550062098207e-14 0 0.9999999999999999
  outer loop
    vertex 3.423 3.645 5
    vertex 4.222 2.6790000000000003 5
    vertex 3.853 3.1870000000000003 5
  endloop
endfacet
facet normal 0.7290406112414275 -0.6844704428685914 0
  outer loop
    vertex 3.853 -3.1870000000000003 -5
    vertex 3.853 -3.1870000000000003 5
    vertex 3.423 -3.645 5
  endloop
endfacet
facet normal 0.8090803084527708 -0.587698098069042 0
  outer loop
    vertex 3.853 -3.1870000000000003 -5
    vertex 4.222 -2.6790000000000003 -5
    vertex 3.853 -3.1870000000000003 5
  endloop
endfacet
facet normal 0.7290406112414275 0.6844704428685914 0
  outer loop
    vertex 3.853 3.1870000000000003 -5
    vertex 3.423 3.645 -5
    vertex 3.853 3.1870000000000003 5
  endloop
endfacet
facet normal 0.8090803084527708 0.587698098069042 0
  outer loop
    vertex 3.853 3.1870000000000003 -5
    vertex 3.853 3.1870000000000003 5
    vertex 4.222 2.6790000000000003 5
  endloop
endfacet
facet normal 0 0 -1
  outer loop
    vertex 4.222 -2.6790000000000003 -5
    vertex 4.755 -1.545 -5
    vertex 4.524 -2.129 -5
  endloop
endfacet
facet normal 0 0 -1
  outer loop
    vertex 4.222 -2.6790000000000003 -5
    vertex 4.9110000000000005 -0.937 -5
    vertex 4.755 -1.545 -5
  endloop
endfacet
facet normal 0.8090803084527718 -0.5876980980690405 0
  outer loop
    vertex 4.222 -2.6790000000000003 -5
    vertex 4.222 -2.6790000000000003 5
    vertex 3.853 -3.1870000000000003 5
  endloop
endfacet
facet normal 0.876552183452395 -0.481306835277496 0
  outer loop
    vertex 4.222 -2.6790000000000003 -5
    vertex 4.524 -2.129 -5
    vertex 4.222 -2.6790000000000003 5
  endloop
endfacet
facet normal 0 0 1
  outer loop
    vertex 4.222 -2.6790000000000003 5
    vertex 4.524 -2.129 5
    vertex 4.755 -1.545 5
  endloop
endfacet
facet normal 0 0 1
  outer loop
    vertex 4.222 -2.6790000000000003 5
    vertex 4.755 -1.545 5
    vertex 4.9110000000000005 -0.937 5
  endloop
endfacet
facet normal 4.9821951455800436e-15 0 -1
  outer loop
    vertex 4.222 2.6790000000000003 -5
    vertex 4.524 2.129 -5
    vertex 4.9110000000000005 -0.937 -5
  endloop
endfacet
facet normal 0.876552183452395 0.481306835277496 0
  outer loop
    vertex 4.222 2.6790000000000003 -5
    vertex 4.222 2.6790000000000003 5
    vertex 4.524 2.129 5
  endloop
endfacet
facet normal 0.8090803084527718 0.5876980980690405 0
  outer loop
    vertex 4.222 2.6790000000000003 -5
    vertex 3.853 3.1870000000000003 -5
    vertex 4.222 2.6790000000000003 5
  endloop
endfacet
facet normal 4.9821951455800436e-15 0 1
  outer loop
    vertex 4.222 2.6790000000000003 5
    vertex 4.9110000000000005 -0.937 5
    vertex 4.524 2.129 5
  endloop
endfacet
facet normal 0.876552183452395 -0.481306835277496 0
  outer loop
    vertex 4.524 -2.129 -5
    vertex 4.524 -2.129 5
    vertex 4.222 -2.6790000000000003 5
  endloop
endfacet
facet normal 0.9298974020594519 -0.36781900663652783 0
  outer loop
    vertex 4.524 -2.129 -5
    vertex 4.755 -1.545 -5
    vertex 4.524 -2.129 5
  endloop
endfacet
facet normal -7.367137551998196e-15 0 -1
  outer loop
    vertex 4.524 2.129 -5
    vertex 4.755 1.545 -5
    vertex 4.9110000000000005 -0.937 -5
  endloop
endfacet
facet normal 0.876552183452395 0.481306835277496 0
  outer loop
    vertex 4.524 2.129 -5
    vertex 4.222 2.6790000000000003 -5
    vertex 4.524 2.129 5
  endloop
endfacet
facet normal 0.9298974020594519 0.36781900663652783 0
  outer loop
    vertex 4.524 2.129 -5
    vertex 4.524 2.129 5
    vertex 4.755 1.545 5
  endloop
endfacet
facet normal -7.367137551998196e-15 0 1
  outer loop
    vertex 4.524 2.129 5
    vertex 4.9110000000000005 -0.937 5
    vertex 4.755 1.545 5
  endloop
endfacet
facet normal 0.9298974020594512 -0.3678190066365298 0
  outer loop
    vertex 4.755 -1.545 -5
    vertex 4.755 -1.545 5
    vertex 4.524 -2.129 5
  endloop
endfacet
facet normal 0.9686245415732924 -0.2485286652720952 0
  outer loop
    vertex 4.755 -1.545 -5
    vertex 4.9110000000000005 -0.937 -5
    vertex 4.755 -1.545 5
  endloop
endfacet
facet normal 0.9686245415732924 0.2485286652720952 0
  outer loop
    vertex 4.755 1.545 -5
    vertex 4.755 1.545 5
    vertex 4.9110000000000005 0.937 5
  endloop
endfacet
facet normal 0.9298974020594512 0.3678190066365298 0
  outer loop
    vertex 4.755 1.545 -5
    vertex 4.524 2.129 -5
    vertex 4.755 1.545 5
  endloop
endfacet
facet normal 0 0 1
  outer loop
    vertex 4.755 1.545 5
    vertex 4.9110000000000005 -0.937 5
    vertex 4.9110000000000005 0.937 5
  endloop
endfacet
facet normal 0 0 -1
  outer loop
    vertex 4.9110000000000005 -0.937 -5
    vertex 4.9110000000000005 0.937 -5
    vertex 4.99 -0.314 -5
  endloop
endfacet
facet normal 0 0 -1
  outer loop
    vertex 4.9110000000000005 -0.937 -5
    vertex 4.755 1.545 -5
    vertex 4.9110000000000005 0.937 -5
  endloop
endfacet
facet normal 0.9686245415732919 -0.24852866527209733 0
  outer loop
    vertex 4.9110000000000005 -0.937 -5
    vertex 4.9110000000000005 -0.937 5
    vertex 4.755 -1.545 5
  endloop
endfacet
facet normal 0.9920558249127863 -0.1257984111847639 0
  outer loop
    vertex 4.9110000000000005 -0.937 -5
    vertex 4.99 -0.314 -5
    vertex 4.9110000000000005 -0.937 5
  endloop
endfacet
facet normal 0 0 1
  outer loop
    vertex 4.9110000000000005 -0.937 5
    vertex 4.99 -0.314 5
    vertex 4.9110000000000005 0.937 5
  endloop
endfacet
facet normal 0.9920558249127863 0.1257984111847639 0
  outer loop
    vertex 4.9110000000000005 0.937 -5
    vertex 4.9110000000000005 0.937 5
    vertex 4.99 0.314 5
  endloop
endfacet
facet normal 0.9686245415732919 0.24852866527209733 0
  outer loop
    vertex 4.9110000000000005 0.937 -5
    vertex 4.755 1.545 -5
    vertex 4.9110000000000005 0.937 5
  endloop
endfacet
facet normal 1.790249172982601e-14 0 -1
  outer loop
    vertex 4.99 -0.314 -5
    vertex 4.9110000000000005 0.937 -5
    vertex 4.99 0.314 -5
  endloop
endfacet
facet normal 1 0 0
  outer loop
    vertex 4.99 -0.314 -5
    vertex 4.99 0.314 -5
    vertex 4.99 -0.314 5
  endloop
endfacet
facet normal 0.9920558249127855 -0.12579841118477061 0
  outer loop
    vertex 4.99 -0.314 -5
    vertex 4.99 -0.314 5
    vertex 4.9110000000000005 -0.937 5
  endloop
endfacet
facet normal 1.790249172982601e-14 0 1
  outer loop
    vertex 4.99 -0.314 5
    vertex 4.99 0.314 5
    vertex 4.9110000000000005 0.937 5
  endloop
endfacet
facet normal 1 0 0
  outer loop
    vertex 4.99 0.314 -5
    vertex 4.99 0.314 5
    vertex 4.99 -0.314 5
  endloop
endfacet
facet normal 0.9920558249127855 0.12579841118477061 0
  outer loop
    vertex 4.99 0.314 -5
    vertex 4.9110000000000005 0.937 -5
    vertex 4.99 0.314 5
  endloop
endfacet
endsolid JSxCAD
