<?xml version="1.0" encoding="UTF-8"?>
<!-- Generated by jsxcad -->
<!DOCTYPE svg PUBLIC "-//W3C//DTD SVG 1.1 Tiny//EN" "http://www.w3.org/Graphics/SVG/1.1/DTD/svg11-tiny.dtd">
<svg baseProfile="tiny" height="20.000000000000007mm" width="19.980267284282725mm" viewBox="-9.990133642141362 -10.000000000000004 19.980267284282725 20.000000000000007" version="1.1" stroke="black" stroke-width=".1" fill="none" xmlns="http://www.w3.org/2000/svg">
<path fill="#000000" stroke="#000000" d="M0.6266661678215213 -4.960573506572389 L3.0616169978683826e-16 -4.999999999999999 L-0.6266661678215142 -4.960573506572389 L-1.2434494358242634 -4.842915805643157 L-1.8406227634233807 -4.64888242944126 L-2.4087683705085685 -4.381533400219321 L-2.938926261462359 -4.045084971874741 L-3.422735529643438 -3.644843137107062 L-3.8525662138789416 -3.1871199487434527 L-4.221639627510072 -2.6791339748949876 L-4.524135262330096 -2.128896457825367 L-4.755282581475766 -1.5450849718747404 L-4.911436253643442 -0.9369065729286259 L-4.990133642141357 -0.3139525976465689 L-4.990133642141357 0.3139525976465634 L-4.911436253643444 0.9369065729286205 L-4.755282581475768 1.5450849718747355 L-4.524135262330097 2.1288964578253617 L-4.221639627510075 2.6791339748949827 L-3.8525662138789456 3.187119948743449 L-3.4227355296434436 3.6448431371070567 L-2.938926261462365 4.045084971874736 L-2.408768370508575 4.381533400219317 L-1.8406227634233878 4.648882429441257 L-1.243449435824271 4.842915805643156 L-0.6266661678215185 4.960573506572389 L2.5266077490371513e-15 4.999999999999999 L0.6266661678215235 4.960573506572389 L1.2434494358242758 4.8429158056431545 L1.8406227634233914 4.648882429441255 L2.4087683705085774 4.3815334002193165 L2.938926261462367 4.0450849718747355 L3.422735529643444 3.6448431371070567 L3.8525662138789465 3.1871199487434474 L4.221639627510076 2.679133974894982 L4.524135262330097 2.1288964578253617 L4.755282581475768 1.5450849718747357 L4.911436253643443 0.9369065729286218 L4.990133642141357 0.31395259764656547 L4.990133642141357 -0.31395259764656813 L4.911436253643442 -0.9369065729286243 L4.755282581475767 -1.5450849718747381 L4.5241352623300966 -2.128896457825364 L4.221639627510074 -2.679133974894984 L3.852566213878945 -3.187119948743449 L3.422735529643442 -3.6448431371070584 L2.9389262614623646 -4.045084971874737 L2.4087683705085756 -4.381533400219317 L1.8406227634233892 -4.648882429441257 L1.2434494358242736 -4.8429158056431545 z"/>
</svg>