<?xml version="1.0" encoding="UTF-8"?>
<!-- Generated by jsxcad -->
<!DOCTYPE svg PUBLIC "-//W3C//DTD SVG 1.1 Tiny//EN" "http://www.w3.org/Graphics/SVG/1.1/DTD/svg11-tiny.dtd">
<svg baseProfile="tiny" height="20.000000000000007mm" width="19.9604743083004mm" viewBox="-9.9802371541502 -10.000000000000004 19.9604743083004 20.000000000000007" version="1.1" stroke="black" stroke-width=".1" fill="none" xmlns="http://www.w3.org/2000/svg">
<path fill="#000000" stroke="#000000" d="M0 -4.999999999999999 L-0.625 -4.950980392156862 L-1.2337662337662336 -4.838709677419354 L-1.8421052631578947 -4.655172413793103 L-2.407407407407407 -4.390243902439024 L-2.941176470588235 -4.047619047619047 L-3.4210526315789473 -3.6486486486486482 L-3.8571428571428568 -3.1944444444444438 L-4.21875 -2.678571428571428 L-4.523809523809524 -2.1212121212121207 L-4.7560975609756095 -1.5517241379310343 L-4.903846153846153 -0.9374999999999999 L-4.980237154150197 -0.31249999999999994 L-4.980237154150197 0.31249999999999994 L-4.903846153846153 0.9374999999999999 L-4.7560975609756095 1.5517241379310343 L-4.523809523809524 2.1212121212121207 L-4.21875 2.678571428571428 L-3.8571428571428568 3.1944444444444438 L-3.4210526315789473 3.6486486486486482 L-2.941176470588235 4.047619047619047 L-2.407407407407407 4.390243902439024 L-1.8421052631578947 4.655172413793103 L-1.2337662337662336 4.838709677419354 L-0.625 4.950980392156862 L0 4.999999999999999 L0.625 4.950980392156862 L1.2337662337662336 4.838709677419354 L1.8421052631578947 4.655172413793103 L2.407407407407407 4.390243902439024 L2.941176470588235 4.047619047619047 L3.4210526315789473 3.6486486486486482 L3.8571428571428568 3.1944444444444438 L4.21875 2.678571428571428 L4.523809523809524 2.1212121212121207 L4.7560975609756095 1.5517241379310343 L4.903846153846153 0.9374999999999999 L4.980237154150197 0.31249999999999994 L4.980237154150197 -0.31249999999999994 L4.903846153846153 -0.9374999999999999 L4.7560975609756095 -1.5517241379310343 L4.523809523809524 -2.1212121212121207 L4.21875 -2.678571428571428 L3.8571428571428568 -3.1944444444444438 L3.4210526315789473 -3.6486486486486482 L2.941176470588235 -4.047619047619047 L2.407407407407407 -4.390243902439024 L1.8421052631578947 -4.655172413793103 L1.2337662337662336 -4.838709677419354 L0.625 -4.950980392156862 z"/>
</svg>