<?xml version="1.0" encoding="UTF-8"?>
<!-- Generated by jsxcad -->
<!DOCTYPE svg PUBLIC "-//W3C//DTD SVG 1.1 Tiny//EN" "http://www.w3.org/Graphics/SVG/1.1/DTD/svg11-tiny.dtd">
<svg baseProfile="tiny" height="10.00000mm" width="9.98049mm" viewBox="-0.00100 -0.00000 9.98049 10.00000" version="1.1" stroke="black" stroke-width=".1" fill="none" xmlns="http://www.w3.org/2000/svg">
<path fill="#000000" stroke="#000000" d="M-0.00100 4.68780 L0.07746 4.06493 L0.23249 3.45946 L0.46655 2.86805 L0.76660 2.32246 L1.13656 1.81303 L1.57016 1.35173 L2.05468 0.95175 L2.57730 0.62021 L3.15117 0.35011 L3.74169 0.15814 L4.36668 0.03891 L4.98925 0.00000 L5.61182 0.03891 L6.23681 0.15814 L6.82732 0.35011 L7.40119 0.62021 L7.92381 0.95175 L8.40833 1.35173 L8.84194 1.81303 L9.21190 2.32246 L9.51195 2.86805 L9.74600 3.45946 L9.90103 4.06493 L9.97949 4.68780 L9.97949 5.31220 L9.90103 5.93507 L9.74600 6.54054 L9.51195 7.13195 L9.21190 7.67754 L8.84194 8.18697 L8.40833 8.64827 L7.92381 9.04825 L7.40119 9.37979 L6.82732 9.64989 L6.23681 9.84186 L5.61182 9.96109 L4.98925 10.00000 L4.36668 9.96109 L3.74169 9.84186 L3.15117 9.64989 L2.57730 9.37979 L2.05468 9.04825 L1.57016 8.64827 L1.13656 8.18697 L0.76660 7.67754 L0.46655 7.13195 L0.23249 6.54054 L0.07746 5.93507 L-0.00100 5.31220 z"/>
</svg>