<?xml version="1.0" encoding="UTF-8"?>
<!-- Generated by jsxcad -->
<!DOCTYPE svg PUBLIC "-//W3C//DTD SVG 1.1 Tiny//EN" "http://www.w3.org/Graphics/SVG/1.1/DTD/svg11-tiny.dtd">
<svg baseProfile="tiny" height="10.00000mm" width="9.98049mm" viewBox="-4.99024 -5 9.98049 10.00000" version="1.1" stroke="black" stroke-width=".1" fill="none" xmlns="http://www.w3.org/2000/svg">
<path fill="#000000" stroke="#000000" d="M-4.99024 0.31220 L-4.91179 0.93507 L-4.75676 1.54054 L-4.52270 2.13195 L-4.22265 2.67754 L-3.85269 3.18697 L-3.41908 3.64827 L-2.93457 4.04825 L-2.41194 4.37979 L-1.83807 4.64989 L-1.24756 4.84186 L-0.62257 4.96109 L0.00000 5.00000 L0.62257 4.96109 L1.24756 4.84186 L1.83807 4.64989 L2.41194 4.37979 L2.93457 4.04825 L3.41908 3.64827 L3.85269 3.18697 L4.22265 2.67754 L4.52270 2.13195 L4.75676 1.54054 L4.91179 0.93507 L4.99024 0.31220 L4.99024 -0.31220 L4.91179 -0.93507 L4.75676 -1.54054 L4.52270 -2.13195 L4.22265 -2.67754 L3.85269 -3.18697 L3.41908 -3.64827 L2.93457 -4.04825 L2.41194 -4.37979 L1.83807 -4.64989 L1.24756 -4.84186 L0.62257 -4.96109 L0.00000 -5.00000 L-0.62257 -4.96109 L-1.24756 -4.84186 L-1.83807 -4.64989 L-2.41194 -4.37979 L-2.93457 -4.04825 L-3.41908 -3.64827 L-3.85269 -3.18697 L-4.22265 -2.67754 L-4.52270 -2.13195 L-4.75676 -1.54054 L-4.91179 -0.93507 L-4.99024 -0.31220 z"/>
</svg>