<?xml version="1.0" encoding="UTF-8"?>
<!-- Generated by jsxcad -->
<!DOCTYPE svg PUBLIC "-//W3C//DTD SVG 1.1 Tiny//EN" "http://www.w3.org/Graphics/SVG/1.1/DTD/svg11-tiny.dtd">
<svg baseProfile="tiny" height="20.000000000000007mm" width="19.970326409495556mm" viewBox="-9.985163204747778 -10.000000000000004 19.970326409495556 20.000000000000007" version="1.1" stroke="black" stroke-width=".1" fill="none" xmlns="http://www.w3.org/2000/svg">
<path fill="#000000" stroke="#000000" d="M0.625 -4.95575221238938 L0 -4.999999999999999 L-0.625 -4.95575221238938 L-1.238532110091743 -4.838709677419354 L-1.8421052631578947 -4.651162790697674 L-2.407407407407407 -4.385964912280701 L-2.941176470588235 -4.0476190476190474 L-3.4210526315789473 -3.6486486486486482 L-3.8571428571428568 -3.1914893617021267 L-4.21875 -2.678571428571428 L-4.523809523809524 -2.1249999999999996 L-4.7560975609756095 -1.5476190476190472 L-4.9074074074074066 -0.9374999999999999 L-4.985163204747774 -0.31249999999999994 L-4.985163204747774 0.31249999999999994 L-4.9074074074074066 0.9374999999999999 L-4.7560975609756095 1.5476190476190472 L-4.523809523809524 2.1249999999999996 L-4.21875 2.678571428571428 L-3.8571428571428568 3.1914893617021267 L-3.4210526315789473 3.6486486486486482 L-2.941176470588235 4.0476190476190474 L-2.407407407407407 4.385964912280701 L-1.8421052631578947 4.651162790697674 L-1.238532110091743 4.838709677419354 L-0.625 4.95575221238938 L0 4.999999999999999 L0.625 4.95575221238938 L1.238532110091743 4.838709677419354 L1.8421052631578947 4.651162790697674 L2.407407407407407 4.385964912280701 L2.941176470588235 4.0476190476190474 L3.4210526315789473 3.6486486486486482 L3.8571428571428568 3.1914893617021267 L4.21875 2.678571428571428 L4.523809523809524 2.1249999999999996 L4.7560975609756095 1.5476190476190472 L4.9074074074074066 0.9374999999999999 L4.985163204747774 0.31249999999999994 L4.985163204747774 -0.31249999999999994 L4.9074074074074066 -0.9374999999999999 L4.7560975609756095 -1.5476190476190472 L4.523809523809524 -2.1249999999999996 L4.21875 -2.678571428571428 L3.8571428571428568 -3.1914893617021267 L3.4210526315789473 -3.6486486486486482 L2.941176470588235 -4.0476190476190474 L2.407407407407407 -4.385964912280701 L1.8421052631578947 -4.651162790697674 L1.238532110091743 -4.838709677419354 z"/>
</svg>