<?xml version="1.0" encoding="UTF-8"?>
<!-- Generated by jsxcad -->
<!DOCTYPE svg PUBLIC "-//W3C//DTD SVG 1.1 Tiny//EN" "http://www.w3.org/Graphics/SVG/1.1/DTD/svg11-tiny.dtd">
<svg baseProfile="tiny" height="10.00000mm" width="10.00000mm" viewBox="-0.00000 -0.00000 10.00000 10.00000" version="1.1" stroke="black" stroke-width=".1" fill="none" xmlns="http://www.w3.org/2000/svg">
<path fill="#000000" stroke="#000000" d="M5.97106 9.90480 L5.00000 10.00000 L4.02894 9.90480 L3.09102 9.62124 L2.22456 9.15896 L1.46193 8.53299 L0.84104 7.77544 L0.37876 6.90898 L0.09520 5.97106 L0.00000 5.00000 L0.09520 4.02894 L0.37876 3.09102 L0.84104 2.22456 L1.46701 1.46193 L2.22456 0.84104 L3.09102 0.37876 L4.02894 0.09520 L5.00000 0.00000 L5.97106 0.09520 L6.90898 0.37876 L7.77544 0.84104 L8.53807 1.46701 L9.15896 2.22456 L9.62124 3.09102 L9.90480 4.02894 L10.00000 5.00000 L9.90480 5.97106 L9.62124 6.90898 L9.15896 7.77544 L8.53807 8.53299 L7.77544 9.15896 L6.90898 9.62124 z"/>
</svg>
