solid JSxCAD
facet normal -1 0 0
  outer loop
    vertex -4.98 -0.312 -5
    vertex -4.98 -0.312 5
    vertex -4.98 0.313 5
  endloop
endfacet
facet normal 0 0 -1
  outer loop
    vertex -4.98 -0.312 -5
    vertex -4.98 0.313 -5
    vertex -1.234 -4.839 -5
  endloop
endfacet
facet normal -1 0 0
  outer loop
    vertex -4.98 -0.312 -5
    vertex -4.98 0.313 5
    vertex -4.98 0.313 -5
  endloop
endfacet
facet normal -0.9926877134810447 -0.12071082595929584 0
  outer loop
    vertex -4.98 -0.312 -5
    vertex -4.904 -0.937 -5
    vertex -4.98 -0.312 5
  endloop
endfacet
facet normal -1.2013247350821548e-14 0 -1
  outer loop
    vertex -4.98 -0.312 -5
    vertex -4.219 -2.6790000000000003 -5
    vertex -4.904 -0.937 -5
  endloop
endfacet
facet normal 6.552724688315644e-16 0 -0.9999999999999999
  outer loop
    vertex -4.98 -0.312 -5
    vertex -1.234 -4.839 -5
    vertex -4.219 -2.6790000000000003 -5
  endloop
endfacet
facet normal -0.9926877134810447 -0.12071082595929584 0
  outer loop
    vertex -4.98 -0.312 5
    vertex -4.904 -0.937 -5
    vertex -4.904 -0.937 5
  endloop
endfacet
facet normal -1.2013247350821548e-14 0 1
  outer loop
    vertex -4.98 -0.312 5
    vertex -4.904 -0.937 5
    vertex -4.219 -2.6790000000000003 5
  endloop
endfacet
facet normal 6.552724688315644e-16 0 0.9999999999999999
  outer loop
    vertex -4.98 -0.312 5
    vertex -4.219 -2.6790000000000003 5
    vertex -1.234 -4.839 5
  endloop
endfacet
facet normal 0 0 1
  outer loop
    vertex -4.98 -0.312 5
    vertex -1.234 -4.839 5
    vertex -4.98 0.313 5
  endloop
endfacet
facet normal -0.9926877134810447 0.12071082595929584 0
  outer loop
    vertex -4.98 0.313 -5
    vertex -4.98 0.313 5
    vertex -4.904 0.9380000000000001 5
  endloop
endfacet
facet normal 0 0 -1
  outer loop
    vertex -4.98 0.313 -5
    vertex -4.904 0.9380000000000001 -5
    vertex -4.219 2.6790000000000003 -5
  endloop
endfacet
facet normal -0.9926877134810447 0.12071082595929584 0
  outer loop
    vertex -4.98 0.313 -5
    vertex -4.904 0.9380000000000001 5
    vertex -4.904 0.9380000000000001 -5
  endloop
endfacet
facet normal -6.556334355341179e-16 0 -1
  outer loop
    vertex -4.98 0.313 -5
    vertex -4.219 2.6790000000000003 -5
    vertex -1.234 4.839 -5
  endloop
endfacet
facet normal 0 0 -1
  outer loop
    vertex -4.98 0.313 -5
    vertex -1.234 4.839 -5
    vertex -1.234 -4.839 -5
  endloop
endfacet
facet normal 0 0 1
  outer loop
    vertex -4.98 0.313 5
    vertex -4.219 2.6790000000000003 5
    vertex -4.904 0.9380000000000001 5
  endloop
endfacet
facet normal 0 0 1
  outer loop
    vertex -4.98 0.313 5
    vertex -1.234 -4.839 5
    vertex -1.234 4.839 5
  endloop
endfacet
facet normal -6.556334355341179e-16 0 1
  outer loop
    vertex -4.98 0.313 5
    vertex -1.234 4.839 5
    vertex -4.219 2.6790000000000003 5
  endloop
endfacet
facet normal -0.9722436188561248 -0.23397082209871034 0
  outer loop
    vertex -4.904 -0.937 -5
    vertex -4.756 -1.552 -5
    vertex -4.904 -0.937 5
  endloop
endfacet
facet normal 0 0 -1
  outer loop
    vertex -4.904 -0.937 -5
    vertex -4.524 -2.121 -5
    vertex -4.756 -1.552 -5
  endloop
endfacet
facet normal 5.957730209955258e-15 0 -0.9999999999999999
  outer loop
    vertex -4.904 -0.937 -5
    vertex -4.219 -2.6790000000000003 -5
    vertex -4.524 -2.121 -5
  endloop
endfacet
facet normal -0.9722436188561253 -0.2339708220987082 0
  outer loop
    vertex -4.904 -0.937 5
    vertex -4.756 -1.552 -5
    vertex -4.756 -1.552 5
  endloop
endfacet
facet normal 0 0 1
  outer loop
    vertex -4.904 -0.937 5
    vertex -4.756 -1.552 5
    vertex -4.524 -2.121 5
  endloop
endfacet
facet normal 5.957730209955258e-15 0 0.9999999999999999
  outer loop
    vertex -4.904 -0.937 5
    vertex -4.524 -2.121 5
    vertex -4.219 -2.6790000000000003 5
  endloop
endfacet
facet normal -0.9721568776362806 0.23433097376249173 0
  outer loop
    vertex -4.904 0.9380000000000001 -5
    vertex -4.904 0.9380000000000001 5
    vertex -4.756 1.552 5
  endloop
endfacet
facet normal 1.525136375609796e-14 0 -1
  outer loop
    vertex -4.904 0.9380000000000001 -5
    vertex -4.756 1.552 -5
    vertex -4.524 2.121 -5
  endloop
endfacet
facet normal -0.9721568776362812 0.23433097376248965 0
  outer loop
    vertex -4.904 0.9380000000000001 -5
    vertex -4.756 1.552 5
    vertex -4.756 1.552 -5
  endloop
endfacet
facet normal 5.969944007394571e-15 0 -1
  outer loop
    vertex -4.904 0.9380000000000001 -5
    vertex -4.524 2.121 -5
    vertex -4.219 2.6790000000000003 -5
  endloop
endfacet
facet normal 1.525136375609796e-14 0 1
  outer loop
    vertex -4.904 0.9380000000000001 5
    vertex -4.524 2.121 5
    vertex -4.756 1.552 5
  endloop
endfacet
facet normal 5.969944007394571e-15 0 1
  outer loop
    vertex -4.904 0.9380000000000001 5
    vertex -4.219 2.6790000000000003 5
    vertex -4.524 2.121 5
  endloop
endfacet
facet normal -0.9259870217548055 -0.37755534103183525 0
  outer loop
    vertex -4.756 -1.552 -5
    vertex -4.524 -2.121 -5
    vertex -4.756 -1.552 5
  endloop
endfacet
facet normal -0.9259870217548047 -0.37755534103183724 0
  outer loop
    vertex -4.756 -1.552 5
    vertex -4.524 -2.121 -5
    vertex -4.524 -2.121 5
  endloop
endfacet
facet normal -0.9259870217548055 0.37755534103183525 0
  outer loop
    vertex -4.756 1.552 -5
    vertex -4.756 1.552 5
    vertex -4.524 2.121 5
  endloop
endfacet
facet normal -0.9259870217548047 0.37755534103183724 0
  outer loop
    vertex -4.756 1.552 -5
    vertex -4.524 2.121 5
    vertex -4.524 2.121 -5
  endloop
endfacet
facet normal -0.8774745559750896 -0.47962318919785296 0
  outer loop
    vertex -4.524 -2.121 -5
    vertex -4.219 -2.6790000000000003 -5
    vertex -4.524 -2.121 5
  endloop
endfacet
facet normal -0.8774745559750896 -0.47962318919785296 0
  outer loop
    vertex -4.524 -2.121 5
    vertex -4.219 -2.6790000000000003 -5
    vertex -4.219 -2.6790000000000003 5
  endloop
endfacet
facet normal -0.8774745559750896 0.47962318919785296 0
  outer loop
    vertex -4.524 2.121 -5
    vertex -4.524 2.121 5
    vertex -4.219 2.6790000000000003 5
  endloop
endfacet
facet normal -0.8774745559750896 0.47962318919785296 0
  outer loop
    vertex -4.524 2.121 -5
    vertex -4.219 2.6790000000000003 5
    vertex -4.219 2.6790000000000003 -5
  endloop
endfacet
facet normal -0.8181109011330431 -0.5750604780779848 0
  outer loop
    vertex -4.219 -2.6790000000000003 -5
    vertex -3.857 -3.194 -5
    vertex -4.219 -2.6790000000000003 5
  endloop
endfacet
facet normal 0 0 -1
  outer loop
    vertex -4.219 -2.6790000000000003 -5
    vertex -3.4210000000000003 -3.649 -5
    vertex -3.857 -3.194 -5
  endloop
endfacet
facet normal 0 0 -1
  outer loop
    vertex -4.219 -2.6790000000000003 -5
    vertex -1.234 -4.839 -5
    vertex -3.4210000000000003 -3.649 -5
  endloop
endfacet
facet normal -0.8181109011330431 -0.5750604780779848 0
  outer loop
    vertex -4.219 -2.6790000000000003 5
    vertex -3.857 -3.194 -5
    vertex -3.857 -3.194 5
  endloop
endfacet
facet normal 0 0 1
  outer loop
    vertex -4.219 -2.6790000000000003 5
    vertex -3.857 -3.194 5
    vertex -3.4210000000000003 -3.649 5
  endloop
endfacet
facet normal 0 0 1
  outer loop
    vertex -4.219 -2.6790000000000003 5
    vertex -3.4210000000000003 -3.649 5
    vertex -1.234 -4.839 5
  endloop
endfacet
facet normal -0.8181109011330431 0.5750604780779848 0
  outer loop
    vertex -4.219 2.6790000000000003 -5
    vertex -4.219 2.6790000000000003 5
    vertex -3.857 3.194 5
  endloop
endfacet
facet normal 0 0 -1
  outer loop
    vertex -4.219 2.6790000000000003 -5
    vertex -3.857 3.194 -5
    vertex -3.4210000000000003 3.649 -5
  endloop
endfacet
facet normal -0.8181109011330431 0.5750604780779848 0
  outer loop
    vertex -4.219 2.6790000000000003 -5
    vertex -3.857 3.194 5
    vertex -3.857 3.194 -5
  endloop
endfacet
facet normal 0 0 -1
  outer loop
    vertex -4.219 2.6790000000000003 -5
    vertex -3.4210000000000003 3.649 -5
    vertex -1.234 4.839 -5
  endloop
endfacet
facet normal 0 0 1
  outer loop
    vertex -4.219 2.6790000000000003 5
    vertex -3.4210000000000003 3.649 5
    vertex -3.857 3.194 5
  endloop
endfacet
facet normal 0 0 1
  outer loop
    vertex -4.219 2.6790000000000003 5
    vertex -1.234 4.839 5
    vertex -3.4210000000000003 3.649 5
  endloop
endfacet
facet normal -0.7220212339549116 -0.6918708967128381 0
  outer loop
    vertex -3.857 -3.194 -5
    vertex -3.4210000000000003 -3.649 -5
    vertex -3.857 -3.194 5
  endloop
endfacet
facet normal -0.7220212339549116 -0.6918708967128381 0
  outer loop
    vertex -3.857 -3.194 5
    vertex -3.4210000000000003 -3.649 -5
    vertex -3.4210000000000003 -3.649 5
  endloop
endfacet
facet normal -0.7220212339549116 0.6918708967128381 0
  outer loop
    vertex -3.857 3.194 -5
    vertex -3.857 3.194 5
    vertex -3.4210000000000003 3.649 5
  endloop
endfacet
facet normal -0.7220212339549116 0.6918708967128381 0
  outer loop
    vertex -3.857 3.194 -5
    vertex -3.4210000000000003 3.649 5
    vertex -3.4210000000000003 3.649 -5
  endloop
endfacet
facet normal -0.6392384123944088 -0.7690086164143258 0
  outer loop
    vertex -3.4210000000000003 -3.649 -5
    vertex -2.9410000000000003 -4.048 -5
    vertex -3.4210000000000003 -3.649 5
  endloop
endfacet
facet normal 0 0 -0.9999999999999999
  outer loop
    vertex -3.4210000000000003 -3.649 -5
    vertex -1.234 -4.839 -5
    vertex -2.9410000000000003 -4.048 -5
  endloop
endfacet
facet normal -0.6392384123944088 -0.7690086164143258 0
  outer loop
    vertex -3.4210000000000003 -3.649 5
    vertex -2.9410000000000003 -4.048 -5
    vertex -2.9410000000000003 -4.048 5
  endloop
endfacet
facet normal 0 0 0.9999999999999999
  outer loop
    vertex -3.4210000000000003 -3.649 5
    vertex -2.9410000000000003 -4.048 5
    vertex -1.234 -4.839 5
  endloop
endfacet
facet normal -0.6392384123944088 0.7690086164143258 0
  outer loop
    vertex -3.4210000000000003 3.649 -5
    vertex -3.4210000000000003 3.649 5
    vertex -2.9410000000000003 4.048 5
  endloop
endfacet
facet normal 0 0 -0.9999999999999999
  outer loop
    vertex -3.4210000000000003 3.649 -5
    vertex -2.9410000000000003 4.048 -5
    vertex -1.234 4.839 -5
  endloop
endfacet
facet normal -0.6392384123944088 0.7690086164143258 0
  outer loop
    vertex -3.4210000000000003 3.649 -5
    vertex -2.9410000000000003 4.048 5
    vertex -2.9410000000000003 4.048 -5
  endloop
endfacet
facet normal 0 0 0.9999999999999999
  outer loop
    vertex -3.4210000000000003 3.649 5
    vertex -1.234 4.839 5
    vertex -2.9410000000000003 4.048 5
  endloop
endfacet
facet normal -0.5393221648451739 -0.8420995205477291 0
  outer loop
    vertex -2.9410000000000003 -4.048 -5
    vertex -2.407 -4.39 -5
    vertex -2.9410000000000003 -4.048 5
  endloop
endfacet
facet normal 0 0 -1
  outer loop
    vertex -2.9410000000000003 -4.048 -5
    vertex -1.234 -4.839 -5
    vertex -2.407 -4.39 -5
  endloop
endfacet
facet normal -0.5393221648451739 -0.8420995205477291 0
  outer loop
    vertex -2.9410000000000003 -4.048 5
    vertex -2.407 -4.39 -5
    vertex -2.407 -4.39 5
  endloop
endfacet
facet normal 0 0 1
  outer loop
    vertex -2.9410000000000003 -4.048 5
    vertex -2.407 -4.39 5
    vertex -1.234 -4.839 5
  endloop
endfacet
facet normal -0.5393221648451739 0.8420995205477291 0
  outer loop
    vertex -2.9410000000000003 4.048 -5
    vertex -2.9410000000000003 4.048 5
    vertex -2.407 4.39 5
  endloop
endfacet
facet normal 0 0 -1
  outer loop
    vertex -2.9410000000000003 4.048 -5
    vertex -2.407 4.39 -5
    vertex -1.234 4.839 -5
  endloop
endfacet
facet normal -0.5393221648451739 0.8420995205477291 0
  outer loop
    vertex -2.9410000000000003 4.048 -5
    vertex -2.407 4.39 5
    vertex -2.407 4.39 -5
  endloop
endfacet
facet normal 0 0 1
  outer loop
    vertex -2.9410000000000003 4.048 5
    vertex -1.234 4.839 5
    vertex -2.407 4.39 5
  endloop
endfacet
facet normal -0.42463913825789096 -0.9053626910026699 0
  outer loop
    vertex -2.407 -4.39 -5
    vertex -1.842 -4.655 -5
    vertex -2.407 -4.39 5
  endloop
endfacet
facet normal 0 0 -0.9999999999999999
  outer loop
    vertex -2.407 -4.39 -5
    vertex -1.234 -4.839 -5
    vertex -1.842 -4.655 -5
  endloop
endfacet
facet normal -0.42463913825789007 -0.9053626910026703 0
  outer loop
    vertex -2.407 -4.39 5
    vertex -1.842 -4.655 -5
    vertex -1.842 -4.655 5
  endloop
endfacet
facet normal 0 0 0.9999999999999999
  outer loop
    vertex -2.407 -4.39 5
    vertex -1.842 -4.655 5
    vertex -1.234 -4.839 5
  endloop
endfacet
facet normal -0.42463913825789096 0.9053626910026699 0
  outer loop
    vertex -2.407 4.39 -5
    vertex -2.407 4.39 5
    vertex -1.842 4.655 5
  endloop
endfacet
facet normal 0 0 -0.9999999999999999
  outer loop
    vertex -2.407 4.39 -5
    vertex -1.842 4.655 -5
    vertex -1.234 4.839 -5
  endloop
endfacet
facet normal -0.42463913825789007 0.9053626910026703 0
  outer loop
    vertex -2.407 4.39 -5
    vertex -1.842 4.655 5
    vertex -1.842 4.655 -5
  endloop
endfacet
facet normal 0 0 0.9999999999999999
  outer loop
    vertex -2.407 4.39 5
    vertex -1.234 4.839 5
    vertex -1.842 4.655 5
  endloop
endfacet
facet normal -0.289657841849594 -0.9571302600247449 0
  outer loop
    vertex -1.842 -4.655 -5
    vertex -1.234 -4.839 -5
    vertex -1.842 -4.655 5
  endloop
endfacet
facet normal -0.289657841849594 -0.9571302600247449 0
  outer loop
    vertex -1.842 -4.655 5
    vertex -1.234 -4.839 -5
    vertex -1.234 -4.839 5
  endloop
endfacet
facet normal -0.289657841849594 0.9571302600247449 0
  outer loop
    vertex -1.842 4.655 -5
    vertex -1.842 4.655 5
    vertex -1.234 4.839 5
  endloop
endfacet
facet normal -0.289657841849594 0.9571302600247449 0
  outer loop
    vertex -1.842 4.655 -5
    vertex -1.234 4.839 5
    vertex -1.234 4.839 -5
  endloop
endfacet
facet normal 0 0 -1
  outer loop
    vertex -1.234 -4.839 -5
    vertex -1.234 4.839 -5
    vertex 1.234 -4.839 -5
  endloop
endfacet
facet normal -0.18087469406215104 -0.9835061489629453 0
  outer loop
    vertex -1.234 -4.839 -5
    vertex -0.625 -4.9510000000000005 -5
    vertex -1.234 -4.839 5
  endloop
endfacet
facet normal 0 0 -1
  outer loop
    vertex -1.234 -4.839 -5
    vertex 0.625 -4.9510000000000005 -5
    vertex -0.625 -4.9510000000000005 -5
  endloop
endfacet
facet normal 0 0 -0.9999999999999999
  outer loop
    vertex -1.234 -4.839 -5
    vertex 1.234 -4.839 -5
    vertex 0.625 -4.9510000000000005 -5
  endloop
endfacet
facet normal -0.18087469406215104 -0.9835061489629453 0
  outer loop
    vertex -1.234 -4.839 5
    vertex -0.625 -4.9510000000000005 -5
    vertex -0.625 -4.9510000000000005 5
  endloop
endfacet
facet normal 0 0 1
  outer loop
    vertex -1.234 -4.839 5
    vertex -0.625 -4.9510000000000005 5
    vertex 0.625 -4.9510000000000005 5
  endloop
endfacet
facet normal 0 0 0.9999999999999999
  outer loop
    vertex -1.234 -4.839 5
    vertex 0.625 -4.9510000000000005 5
    vertex 1.234 -4.839 5
  endloop
endfacet
facet normal 0 0 1
  outer loop
    vertex -1.234 -4.839 5
    vertex 1.234 -4.839 5
    vertex -1.234 4.839 5
  endloop
endfacet
facet normal -0.18087469406215104 0.9835061489629453 0
  outer loop
    vertex -1.234 4.839 -5
    vertex -1.234 4.839 5
    vertex -0.625 4.9510000000000005 5
  endloop
endfacet
facet normal 0 0 -1
  outer loop
    vertex -1.234 4.839 -5
    vertex -0.625 4.9510000000000005 -5
    vertex 0.625 4.9510000000000005 -5
  endloop
endfacet
facet normal -0.18087469406215104 0.9835061489629453 0
  outer loop
    vertex -1.234 4.839 -5
    vertex -0.625 4.9510000000000005 5
    vertex -0.625 4.9510000000000005 -5
  endloop
endfacet
facet normal 0 0 -0.9999999999999999
  outer loop
    vertex -1.234 4.839 -5
    vertex 0.625 4.9510000000000005 -5
    vertex 1.234 4.839 -5
  endloop
endfacet
facet normal 0 0 -1
  outer loop
    vertex -1.234 4.839 -5
    vertex 1.234 4.839 -5
    vertex 1.234 -4.839 -5
  endloop
endfacet
facet normal 0 0 1
  outer loop
    vertex -1.234 4.839 5
    vertex 0.625 4.9510000000000005 5
    vertex -0.625 4.9510000000000005 5
  endloop
endfacet
facet normal 0 0 1
  outer loop
    vertex -1.234 4.839 5
    vertex 1.234 -4.839 5
    vertex 1.234 4.839 5
  endloop
endfacet
facet normal 0 0 0.9999999999999999
  outer loop
    vertex -1.234 4.839 5
    vertex 1.234 4.839 5
    vertex 0.625 4.9510000000000005 5
  endloop
endfacet
facet normal -0.07816015992695716 -0.9969408153948721 0
  outer loop
    vertex -0.625 -4.9510000000000005 -5
    vertex 0 -5 -5
    vertex -0.625 -4.9510000000000005 5
  endloop
endfacet
facet normal 0 0 -1
  outer loop
    vertex -0.625 -4.9510000000000005 -5
    vertex 0.625 -4.9510000000000005 -5
    vertex 0 -5 -5
  endloop
endfacet
facet normal -0.07816015992695716 -0.9969408153948721 0
  outer loop
    vertex -0.625 -4.9510000000000005 5
    vertex 0 -5 -5
    vertex 0 -5 5
  endloop
endfacet
facet normal 0 0 1
  outer loop
    vertex -0.625 -4.9510000000000005 5
    vertex 0 -5 5
    vertex 0.625 -4.9510000000000005 5
  endloop
endfacet
facet normal -0.07816015992695716 0.9969408153948721 0
  outer loop
    vertex -0.625 4.9510000000000005 -5
    vertex -0.625 4.9510000000000005 5
    vertex 0 5 5
  endloop
endfacet
facet normal 0 0 -1
  outer loop
    vertex -0.625 4.9510000000000005 -5
    vertex 0 5 -5
    vertex 0.625 4.9510000000000005 -5
  endloop
endfacet
facet normal -0.07816015992695716 0.9969408153948721 0
  outer loop
    vertex -0.625 4.9510000000000005 -5
    vertex 0 5 5
    vertex 0 5 -5
  endloop
endfacet
facet normal 0 0 1
  outer loop
    vertex -0.625 4.9510000000000005 5
    vertex 0.625 4.9510000000000005 5
    vertex 0 5 5
  endloop
endfacet
facet normal 0.07816015992695716 -0.9969408153948721 0
  outer loop
    vertex 0 -5 -5
    vertex 0.625 -4.9510000000000005 -5
    vertex 0 -5 5
  endloop
endfacet
facet normal 0.07816015992695716 -0.9969408153948721 0
  outer loop
    vertex 0 -5 5
    vertex 0.625 -4.9510000000000005 -5
    vertex 0.625 -4.9510000000000005 5
  endloop
endfacet
facet normal 0.07816015992695716 0.9969408153948721 0
  outer loop
    vertex 0 5 -5
    vertex 0 5 5
    vertex 0.625 4.9510000000000005 5
  endloop
endfacet
facet normal 0.07816015992695716 0.9969408153948721 0
  outer loop
    vertex 0 5 -5
    vertex 0.625 4.9510000000000005 5
    vertex 0.625 4.9510000000000005 -5
  endloop
endfacet
facet normal 0.18087469406215104 -0.9835061489629453 0
  outer loop
    vertex 0.625 -4.9510000000000005 -5
    vertex 1.234 -4.839 -5
    vertex 0.625 -4.9510000000000005 5
  endloop
endfacet
facet normal 0.18087469406215104 -0.9835061489629453 0
  outer loop
    vertex 0.625 -4.9510000000000005 5
    vertex 1.234 -4.839 -5
    vertex 1.234 -4.839 5
  endloop
endfacet
facet normal 0.18087469406215104 0.9835061489629453 0
  outer loop
    vertex 0.625 4.9510000000000005 -5
    vertex 0.625 4.9510000000000005 5
    vertex 1.234 4.839 5
  endloop
endfacet
facet normal 0.18087469406215104 0.9835061489629453 0
  outer loop
    vertex 0.625 4.9510000000000005 -5
    vertex 1.234 4.839 5
    vertex 1.234 4.839 -5
  endloop
endfacet
facet normal -1.9599130875926677e-16 0 -1
  outer loop
    vertex 1.234 -4.839 -5
    vertex 1.234 4.839 -5
    vertex 4.98 -0.312 -5
  endloop
endfacet
facet normal 0.289657841849594 -0.9571302600247449 0
  outer loop
    vertex 1.234 -4.839 -5
    vertex 1.842 -4.655 -5
    vertex 1.234 -4.839 5
  endloop
endfacet
facet normal 0 0 -0.9999999999999999
  outer loop
    vertex 1.234 -4.839 -5
    vertex 2.407 -4.39 -5
    vertex 1.842 -4.655 -5
  endloop
endfacet
facet normal 0 0 -1
  outer loop
    vertex 1.234 -4.839 -5
    vertex 2.9410000000000003 -4.048 -5
    vertex 2.407 -4.39 -5
  endloop
endfacet
facet normal 0 0 -0.9999999999999999
  outer loop
    vertex 1.234 -4.839 -5
    vertex 3.4210000000000003 -3.649 -5
    vertex 2.9410000000000003 -4.048 -5
  endloop
endfacet
facet normal 0 0 -1
  outer loop
    vertex 1.234 -4.839 -5
    vertex 4.219 -2.6790000000000003 -5
    vertex 3.4210000000000003 -3.649 -5
  endloop
endfacet
facet normal -6.552724688315642e-16 0 -1
  outer loop
    vertex 1.234 -4.839 -5
    vertex 4.98 -0.312 -5
    vertex 4.219 -2.6790000000000003 -5
  endloop
endfacet
facet normal 0.289657841849594 -0.9571302600247449 0
  outer loop
    vertex 1.234 -4.839 5
    vertex 1.842 -4.655 -5
    vertex 1.842 -4.655 5
  endloop
endfacet
facet normal 0 0 0.9999999999999999
  outer loop
    vertex 1.234 -4.839 5
    vertex 1.842 -4.655 5
    vertex 2.407 -4.39 5
  endloop
endfacet
facet normal 0 0 1
  outer loop
    vertex 1.234 -4.839 5
    vertex 2.407 -4.39 5
    vertex 2.9410000000000003 -4.048 5
  endloop
endfacet
facet normal 0 0 0.9999999999999999
  outer loop
    vertex 1.234 -4.839 5
    vertex 2.9410000000000003 -4.048 5
    vertex 3.4210000000000003 -3.649 5
  endloop
endfacet
facet normal 0 0 1
  outer loop
    vertex 1.234 -4.839 5
    vertex 3.4210000000000003 -3.649 5
    vertex 4.219 -2.6790000000000003 5
  endloop
endfacet
facet normal -6.552724688315642e-16 0 1
  outer loop
    vertex 1.234 -4.839 5
    vertex 4.219 -2.6790000000000003 5
    vertex 4.98 -0.312 5
  endloop
endfacet
facet normal -1.9599130875926677e-16 0 1
  outer loop
    vertex 1.234 -4.839 5
    vertex 4.98 -0.312 5
    vertex 1.234 4.839 5
  endloop
endfacet
facet normal 0.289657841849594 0.9571302600247449 0
  outer loop
    vertex 1.234 4.839 -5
    vertex 1.234 4.839 5
    vertex 1.842 4.655 5
  endloop
endfacet
facet normal 0 0 -0.9999999999999999
  outer loop
    vertex 1.234 4.839 -5
    vertex 1.842 4.655 -5
    vertex 2.407 4.39 -5
  endloop
endfacet
facet normal 0.289657841849594 0.9571302600247449 0
  outer loop
    vertex 1.234 4.839 -5
    vertex 1.842 4.655 5
    vertex 1.842 4.655 -5
  endloop
endfacet
facet normal 0 0 -1
  outer loop
    vertex 1.234 4.839 -5
    vertex 2.407 4.39 -5
    vertex 2.9410000000000003 4.048 -5
  endloop
endfacet
facet normal 0 0 -0.9999999999999999
  outer loop
    vertex 1.234 4.839 -5
    vertex 2.9410000000000003 4.048 -5
    vertex 3.4210000000000003 3.649 -5
  endloop
endfacet
facet normal 0 0 -1
  outer loop
    vertex 1.234 4.839 -5
    vertex 3.4210000000000003 3.649 -5
    vertex 4.219 2.6790000000000003 -5
  endloop
endfacet
facet normal 6.556334355341176e-16 0 -0.9999999999999999
  outer loop
    vertex 1.234 4.839 -5
    vertex 4.219 2.6790000000000003 -5
    vertex 4.98 0.313 -5
  endloop
endfacet
facet normal 0 0 -1
  outer loop
    vertex 1.234 4.839 -5
    vertex 4.98 0.313 -5
    vertex 4.98 -0.312 -5
  endloop
endfacet
facet normal 0 0 0.9999999999999999
  outer loop
    vertex 1.234 4.839 5
    vertex 2.407 4.39 5
    vertex 1.842 4.655 5
  endloop
endfacet
facet normal 0 0 1
  outer loop
    vertex 1.234 4.839 5
    vertex 2.9410000000000003 4.048 5
    vertex 2.407 4.39 5
  endloop
endfacet
facet normal 0 0 0.9999999999999999
  outer loop
    vertex 1.234 4.839 5
    vertex 3.4210000000000003 3.649 5
    vertex 2.9410000000000003 4.048 5
  endloop
endfacet
facet normal 0 0 1
  outer loop
    vertex 1.234 4.839 5
    vertex 4.219 2.6790000000000003 5
    vertex 3.4210000000000003 3.649 5
  endloop
endfacet
facet normal 0 0 1
  outer loop
    vertex 1.234 4.839 5
    vertex 4.98 -0.312 5
    vertex 4.98 0.313 5
  endloop
endfacet
facet normal 6.556334355341176e-16 0 0.9999999999999999
  outer loop
    vertex 1.234 4.839 5
    vertex 4.98 0.313 5
    vertex 4.219 2.6790000000000003 5
  endloop
endfacet
facet normal 0.42463913825789007 -0.9053626910026703 0
  outer loop
    vertex 1.842 -4.655 -5
    vertex 2.407 -4.39 -5
    vertex 1.842 -4.655 5
  endloop
endfacet
facet normal 0.42463913825789096 -0.9053626910026699 0
  outer loop
    vertex 1.842 -4.655 5
    vertex 2.407 -4.39 -5
    vertex 2.407 -4.39 5
  endloop
endfacet
facet normal 0.42463913825789007 0.9053626910026703 0
  outer loop
    vertex 1.842 4.655 -5
    vertex 1.842 4.655 5
    vertex 2.407 4.39 5
  endloop
endfacet
facet normal 0.42463913825789096 0.9053626910026699 0
  outer loop
    vertex 1.842 4.655 -5
    vertex 2.407 4.39 5
    vertex 2.407 4.39 -5
  endloop
endfacet
facet normal 0.5393221648451739 -0.8420995205477291 0
  outer loop
    vertex 2.407 -4.39 -5
    vertex 2.9410000000000003 -4.048 -5
    vertex 2.407 -4.39 5
  endloop
endfacet
facet normal 0.5393221648451739 -0.8420995205477291 0
  outer loop
    vertex 2.407 -4.39 5
    vertex 2.9410000000000003 -4.048 -5
    vertex 2.9410000000000003 -4.048 5
  endloop
endfacet
facet normal 0.5393221648451739 0.8420995205477291 0
  outer loop
    vertex 2.407 4.39 -5
    vertex 2.407 4.39 5
    vertex 2.9410000000000003 4.048 5
  endloop
endfacet
facet normal 0.5393221648451739 0.8420995205477291 0
  outer loop
    vertex 2.407 4.39 -5
    vertex 2.9410000000000003 4.048 5
    vertex 2.9410000000000003 4.048 -5
  endloop
endfacet
facet normal 0.6392384123944088 -0.7690086164143258 0
  outer loop
    vertex 2.9410000000000003 -4.048 -5
    vertex 3.4210000000000003 -3.649 -5
    vertex 2.9410000000000003 -4.048 5
  endloop
endfacet
facet normal 0.6392384123944088 -0.7690086164143258 0
  outer loop
    vertex 2.9410000000000003 -4.048 5
    vertex 3.4210000000000003 -3.649 -5
    vertex 3.4210000000000003 -3.649 5
  endloop
endfacet
facet normal 0.6392384123944088 0.7690086164143258 0
  outer loop
    vertex 2.9410000000000003 4.048 -5
    vertex 2.9410000000000003 4.048 5
    vertex 3.4210000000000003 3.649 5
  endloop
endfacet
facet normal 0.6392384123944088 0.7690086164143258 0
  outer loop
    vertex 2.9410000000000003 4.048 -5
    vertex 3.4210000000000003 3.649 5
    vertex 3.4210000000000003 3.649 -5
  endloop
endfacet
facet normal 0.7220212339549116 -0.6918708967128381 0
  outer loop
    vertex 3.4210000000000003 -3.649 -5
    vertex 3.857 -3.194 -5
    vertex 3.4210000000000003 -3.649 5
  endloop
endfacet
facet normal 0 0 -1
  outer loop
    vertex 3.4210000000000003 -3.649 -5
    vertex 4.219 -2.6790000000000003 -5
    vertex 3.857 -3.194 -5
  endloop
endfacet
facet normal 0.7220212339549116 -0.6918708967128381 0
  outer loop
    vertex 3.4210000000000003 -3.649 5
    vertex 3.857 -3.194 -5
    vertex 3.857 -3.194 5
  endloop
endfacet
facet normal 0 0 1
  outer loop
    vertex 3.4210000000000003 -3.649 5
    vertex 3.857 -3.194 5
    vertex 4.219 -2.6790000000000003 5
  endloop
endfacet
facet normal 0.7220212339549116 0.6918708967128381 0
  outer loop
    vertex 3.4210000000000003 3.649 -5
    vertex 3.4210000000000003 3.649 5
    vertex 3.857 3.194 5
  endloop
endfacet
facet normal 0 0 -1
  outer loop
    vertex 3.4210000000000003 3.649 -5
    vertex 3.857 3.194 -5
    vertex 4.219 2.6790000000000003 -5
  endloop
endfacet
facet normal 0.7220212339549116 0.6918708967128381 0
  outer loop
    vertex 3.4210000000000003 3.649 -5
    vertex 3.857 3.194 5
    vertex 3.857 3.194 -5
  endloop
endfacet
facet normal 0 0 1
  outer loop
    vertex 3.4210000000000003 3.649 5
    vertex 4.219 2.6790000000000003 5
    vertex 3.857 3.194 5
  endloop
endfacet
facet normal 0.8181109011330431 -0.5750604780779848 0
  outer loop
    vertex 3.857 -3.194 -5
    vertex 4.219 -2.6790000000000003 -5
    vertex 3.857 -3.194 5
  endloop
endfacet
facet normal 0.8181109011330431 -0.5750604780779848 0
  outer loop
    vertex 3.857 -3.194 5
    vertex 4.219 -2.6790000000000003 -5
    vertex 4.219 -2.6790000000000003 5
  endloop
endfacet
facet normal 0.8181109011330431 0.5750604780779848 0
  outer loop
    vertex 3.857 3.194 -5
    vertex 3.857 3.194 5
    vertex 4.219 2.6790000000000003 5
  endloop
endfacet
facet normal 0.8181109011330431 0.5750604780779848 0
  outer loop
    vertex 3.857 3.194 -5
    vertex 4.219 2.6790000000000003 5
    vertex 4.219 2.6790000000000003 -5
  endloop
endfacet
facet normal 0.8774745559750896 -0.47962318919785296 0
  outer loop
    vertex 4.219 -2.6790000000000003 -5
    vertex 4.524 -2.121 -5
    vertex 4.219 -2.6790000000000003 5
  endloop
endfacet
facet normal 0 0 -0.9999999999999999
  outer loop
    vertex 4.219 -2.6790000000000003 -5
    vertex 4.904 -0.937 -5
    vertex 4.524 -2.121 -5
  endloop
endfacet
facet normal 1.2013247350821548e-14 0 -1
  outer loop
    vertex 4.219 -2.6790000000000003 -5
    vertex 4.98 -0.312 -5
    vertex 4.904 -0.937 -5
  endloop
endfacet
facet normal 0.8774745559750896 -0.47962318919785296 0
  outer loop
    vertex 4.219 -2.6790000000000003 5
    vertex 4.524 -2.121 -5
    vertex 4.524 -2.121 5
  endloop
endfacet
facet normal 0 0 0.9999999999999999
  outer loop
    vertex 4.219 -2.6790000000000003 5
    vertex 4.524 -2.121 5
    vertex 4.904 -0.937 5
  endloop
endfacet
facet normal 1.2013247350821548e-14 0 1
  outer loop
    vertex 4.219 -2.6790000000000003 5
    vertex 4.904 -0.937 5
    vertex 4.98 -0.312 5
  endloop
endfacet
facet normal 0.8774745559750896 0.47962318919785296 0
  outer loop
    vertex 4.219 2.6790000000000003 -5
    vertex 4.219 2.6790000000000003 5
    vertex 4.524 2.121 5
  endloop
endfacet
facet normal 0 0 -1
  outer loop
    vertex 4.219 2.6790000000000003 -5
    vertex 4.524 2.121 -5
    vertex 4.904 0.9380000000000001 -5
  endloop
endfacet
facet normal 0.8774745559750896 0.47962318919785296 0
  outer loop
    vertex 4.219 2.6790000000000003 -5
    vertex 4.524 2.121 5
    vertex 4.524 2.121 -5
  endloop
endfacet
facet normal 0 0 -1
  outer loop
    vertex 4.219 2.6790000000000003 -5
    vertex 4.904 0.9380000000000001 -5
    vertex 4.98 0.313 -5
  endloop
endfacet
facet normal 0 0 1
  outer loop
    vertex 4.219 2.6790000000000003 5
    vertex 4.904 0.9380000000000001 5
    vertex 4.524 2.121 5
  endloop
endfacet
facet normal 0 0 1
  outer loop
    vertex 4.219 2.6790000000000003 5
    vertex 4.98 0.313 5
    vertex 4.904 0.9380000000000001 5
  endloop
endfacet
facet normal 0.9259870217548047 -0.37755534103183724 0
  outer loop
    vertex 4.524 -2.121 -5
    vertex 4.756 -1.552 -5
    vertex 4.524 -2.121 5
  endloop
endfacet
facet normal 0 0 -1
  outer loop
    vertex 4.524 -2.121 -5
    vertex 4.904 -0.937 -5
    vertex 4.756 -1.552 -5
  endloop
endfacet
facet normal 0.9259870217548055 -0.37755534103183525 0
  outer loop
    vertex 4.524 -2.121 5
    vertex 4.756 -1.552 -5
    vertex 4.756 -1.552 5
  endloop
endfacet
facet normal 0 0 1
  outer loop
    vertex 4.524 -2.121 5
    vertex 4.756 -1.552 5
    vertex 4.904 -0.937 5
  endloop
endfacet
facet normal 0.9259870217548047 0.37755534103183724 0
  outer loop
    vertex 4.524 2.121 -5
    vertex 4.524 2.121 5
    vertex 4.756 1.552 5
  endloop
endfacet
facet normal -1.5251363756097974e-14 0 -0.9999999999999999
  outer loop
    vertex 4.524 2.121 -5
    vertex 4.756 1.552 -5
    vertex 4.904 0.9380000000000001 -5
  endloop
endfacet
facet normal 0.9259870217548055 0.37755534103183525 0
  outer loop
    vertex 4.524 2.121 -5
    vertex 4.756 1.552 5
    vertex 4.756 1.552 -5
  endloop
endfacet
facet normal -1.5251363756097974e-14 0 0.9999999999999999
  outer loop
    vertex 4.524 2.121 5
    vertex 4.904 0.9380000000000001 5
    vertex 4.756 1.552 5
  endloop
endfacet
facet normal 0.9722436188561253 -0.2339708220987082 0
  outer loop
    vertex 4.756 -1.552 -5
    vertex 4.904 -0.937 -5
    vertex 4.756 -1.552 5
  endloop
endfacet
facet normal 0.9722436188561248 -0.23397082209871034 0
  outer loop
    vertex 4.756 -1.552 5
    vertex 4.904 -0.937 -5
    vertex 4.904 -0.937 5
  endloop
endfacet
facet normal 0.9721568776362812 0.23433097376248965 0
  outer loop
    vertex 4.756 1.552 -5
    vertex 4.756 1.552 5
    vertex 4.904 0.9380000000000001 5
  endloop
endfacet
facet normal 0.9721568776362806 0.23433097376249173 0
  outer loop
    vertex 4.756 1.552 -5
    vertex 4.904 0.9380000000000001 5
    vertex 4.904 0.9380000000000001 -5
  endloop
endfacet
facet normal 0.9926877134810447 -0.12071082595929584 0
  outer loop
    vertex 4.904 -0.937 -5
    vertex 4.98 -0.312 -5
    vertex 4.904 -0.937 5
  endloop
endfacet
facet normal 0.9926877134810447 -0.12071082595929584 0
  outer loop
    vertex 4.904 -0.937 5
    vertex 4.98 -0.312 -5
    vertex 4.98 -0.312 5
  endloop
endfacet
facet normal 0.9926877134810447 0.12071082595929584 0
  outer loop
    vertex 4.904 0.9380000000000001 -5
    vertex 4.904 0.9380000000000001 5
    vertex 4.98 0.313 5
  endloop
endfacet
facet normal 0.9926877134810447 0.12071082595929584 0
  outer loop
    vertex 4.904 0.9380000000000001 -5
    vertex 4.98 0.313 5
    vertex 4.98 0.313 -5
  endloop
endfacet
facet normal 1 0 0
  outer loop
    vertex 4.98 -0.312 -5
    vertex 4.98 0.313 -5
    vertex 4.98 -0.312 5
  endloop
endfacet
facet normal 1 0 0
  outer loop
    vertex 4.98 -0.312 5
    vertex 4.98 0.313 -5
    vertex 4.98 0.313 5
  endloop
endfacet
endsolid JSxCAD
