<?xml version="1.0" encoding="UTF-8"?>
<!-- Generated by jsxcad -->
<!DOCTYPE svg PUBLIC "-//W3C//DTD SVG 1.1 Tiny//EN" "http://www.w3.org/Graphics/SVG/1.1/DTD/svg11-tiny.dtd">
<svg baseProfile="tiny" height="40.06189461616408mm" width="42mm" viewBox="0 0 42 40.06189461616408" version="1.1" stroke="black" stroke-width=".1" fill="none" xmlns="http://www.w3.org/2000/svg">
<path fill="black" stroke="none" d="M26 1.89967 L27.63433 2.51479 L30.13142 4.06758 L30.50863 4.42088 L33.63581 4.42088 L35.55776 4.42088 L41 4.42088 L35.84978 13.34132 L35.75432 13.50667 L35.87167 14.00999 L35.96788 16.94893 L35.48889 19.85017 L34.45309 22.60221 L32.9003 25.09931 L30.89019 27.24548 L28.5 28.95826 L26.24289 29.98095 L26 30.40164 L25.6572 30.99539 L24.38828 33.19322 L23.34311 35.00351 L21.98971 37.34766 L21 39.06189 L17.67961 33.31081 L16.03209 30.45722 L15.73036 29.93461 L14.36567 29.42097 L11.86858 27.86818 L9.7224 25.85807 L8.00962 23.46788 L6.87688 20.96788 L6.79605 20.78948 L6.12833 17.92578 L6.03212 14.98684 L6.26964 13.54817 L5.96791 13.02555 L4.32039 10.17197 L1 4.42088 L2.97943 4.42088 L5.68622 4.42088 L7.77656 4.42088 L11.48577 4.42088 L13.5 2.9775 L16 1.84477 L16.17841 1.76393 L19.04211 1.09621 L21.98105 1 L24.88229 1.479 z M26 20.96788 L26 10.96788 L16 10.96788 L16 20.96788 z"/>
</svg>