<?xml version="1.0" encoding="UTF-8"?>
<!-- Generated by jsxcad -->
<!DOCTYPE svg PUBLIC "-//W3C//DTD SVG 1.1 Tiny//EN" "http://www.w3.org/Graphics/SVG/1.1/DTD/svg11-tiny.dtd">
<svg baseProfile="tiny" height="40.06189461616408mm" width="42mm" viewBox="0 0 42 40.06189461616408" version="1.1" stroke="black" stroke-width=".1" fill="none" xmlns="http://www.w3.org/2000/svg">
<path fill="black" stroke="none" d="M24.38828 6.86868 L25.6572 9.06651 L26.24289 10.08094 L28.5 11.10363 L30.89019 12.81641 L32.9003 14.96259 L34.45309 17.45968 L35.48889 20.21173 L35.96788 23.11296 L35.87167 26.0519 L35.75432 26.55522 L35.84978 26.72058 L41 35.64102 L35.55776 35.64102 L33.63581 35.64102 L30.50863 35.64102 L30.13142 35.99431 L27.63433 37.5471 L24.88229 38.5829 L21.98105 39.06189 L19.04211 38.96568 L16.17841 38.29796 L13.5 37.08439 L11.48577 35.64102 L7.77656 35.64102 L5.68622 35.64102 L2.97943 35.64102 L1 35.64102 L4.32039 29.88993 L5.96791 27.03634 L6.26964 26.51373 L6.03212 25.07506 L6.12833 22.13612 L6.79605 19.27242 L8.00962 16.59401 L9.7224 14.20382 L11.86858 12.19371 L14.36567 10.64092 L15.73036 10.12729 L16.03209 9.60467 L17.67961 6.75109 L21 1 L21.98971 2.71423 L23.34311 5.05839 z"/>
</svg>