solid JSxCAD
facet normal 0 0.8 0.6
outer loop
vertex 2.5 2.5 0
vertex 0 10 -10
vertex -2.5 2.5 0
endloop
endfacet
facet normal 0.3940007087525482 0.7371236936922606 0.5490101107447548
outer loop
vertex 3.82683 9.2388 -10
vertex 2.5 2.5 0
vertex 5.5557 8.3147 -10
endloop
endfacet
facet normal 0.5335216893046 0.6500991149469786 0.5410413549690272
outer loop
vertex 2.5 2.5 0
vertex 7.07107 7.07107 -10
vertex 5.5557 8.3147 -10
endloop
endfacet
facet normal 0.23966413064874226 0.7900766762286181 0.5642162264238081
outer loop
vertex 2.5 2.5 0
vertex 3.82683 9.2388 -10
vertex 1.9509 9.80785 -10
endloop
endfacet
facet normal 0.07947450400152865 0.8069050734144297 0.5853101790604402
outer loop
vertex 0 10 -10
vertex 2.5 2.5 0
vertex 1.9509 9.80785 -10
endloop
endfacet
facet normal 0.7900766762286177 0.2396641306487428 0.5642162264238083
outer loop
vertex 9.2388 3.82683 -10
vertex 2.5 2.5 0
vertex 9.80785 1.9509 -10
endloop
endfacet
facet normal 0.80690507341443 0.07947450400152867 0.5853101790604401
outer loop
vertex 2.5 2.5 0
vertex 10 0 -10
vertex 9.80785 1.9509 -10
endloop
endfacet
facet normal 0.7371236936922607 0.3940007087525477 0.549010110744755
outer loop
vertex 2.5 2.5 0
vertex 9.2388 3.82683 -10
vertex 8.3147 5.5557 -10
endloop
endfacet
facet normal 0.6500991149469789 0.5335216893046005 0.5410413549690262
outer loop
vertex 7.07107 7.07107 -10
vertex 2.5 2.5 0
vertex 8.3147 5.5557 -10
endloop
endfacet
facet normal 0.8 0 0.6
outer loop
vertex 10 0 -10
vertex 2.5 2.5 0
vertex 2.5 -2.5 0
endloop
endfacet
facet normal 0 -0.8 0.6
outer loop
vertex 0 -10 -10
vertex 2.5 -2.5 0
vertex -2.5 -2.5 0
endloop
endfacet
facet normal 0 0 1
outer loop
vertex -2.5 2.5 0
vertex -2.5 -2.5 0
vertex 2.5 2.5 0
endloop
endfacet
facet normal 0 0 1
outer loop
vertex 2.5 -2.5 0
vertex 2.5 2.5 0
vertex -2.5 -2.5 0
endloop
endfacet
facet normal -0.8 0 0.6
outer loop
vertex -2.5 2.5 0
vertex -10 0 -10
vertex -2.5 -2.5 0
endloop
endfacet
facet normal -0.39400070875254833 0.7371236936922607 0.5490101107447548
outer loop
vertex -2.5 2.5 0
vertex -3.82683 9.2388 -10
vertex -5.5557 8.3147 -10
endloop
endfacet
facet normal -0.5335216893046002 0.6500991149469786 0.5410413549690272
outer loop
vertex -7.07107 7.07107 -10
vertex -2.5 2.5 0
vertex -5.5557 8.3147 -10
endloop
endfacet
facet normal -0.23966413064874229 0.7900766762286182 0.5642162264238081
outer loop
vertex -3.82683 9.2388 -10
vertex -2.5 2.5 0
vertex -1.9509 9.80785 -10
endloop
endfacet
facet normal -0.07947450400152895 0.8069050734144297 0.5853101790604401
outer loop
vertex -2.5 2.5 0
vertex 0 10 -10
vertex -1.9509 9.80785 -10
endloop
endfacet
facet normal -0.7900766762286178 0.23966413064874284 0.5642162264238083
outer loop
vertex -2.5 2.5 0
vertex -9.2388 3.82683 -10
vertex -9.80785 1.9509 -10
endloop
endfacet
facet normal -0.80690507341443 0.07947450400152867 0.5853101790604401
outer loop
vertex -10 0 -10
vertex -2.5 2.5 0
vertex -9.80785 1.9509 -10
endloop
endfacet
facet normal -0.7371236936922609 0.3940007087525477 0.5490101107447549
outer loop
vertex -9.2388 3.82683 -10
vertex -2.5 2.5 0
vertex -8.3147 5.5557 -10
endloop
endfacet
facet normal -0.6500991149469789 0.5335216893046005 0.5410413549690261
outer loop
vertex -2.5 2.5 0
vertex -7.07107 7.07107 -10
vertex -8.3147 5.5557 -10
endloop
endfacet
facet normal -0.6500991149469789 -0.5335216893046005 0.5410413549690262
outer loop
vertex -7.07107 -7.07107 -10
vertex -2.5 -2.5 0
vertex -8.3147 -5.5557 -10
endloop
endfacet
facet normal -0.7371236936922607 -0.3940007087525477 0.549010110744755
outer loop
vertex -2.5 -2.5 0
vertex -9.2388 -3.82683 -10
vertex -8.3147 -5.5557 -10
endloop
endfacet
facet normal -0.7900766762286177 -0.2396641306487428 0.5642162264238083
outer loop
vertex -9.2388 -3.82683 -10
vertex -2.5 -2.5 0
vertex -9.80785 -1.9509 -10
endloop
endfacet
facet normal -0.80690507341443 -0.07947450400152867 0.5853101790604401
outer loop
vertex -2.5 -2.5 0
vertex -10 0 -10
vertex -9.80785 -1.9509 -10
endloop
endfacet
facet normal 0.39400070875254833 -0.7371236936922607 0.5490101107447548
outer loop
vertex 2.5 -2.5 0
vertex 3.82683 -9.2388 -10
vertex 5.5557 -8.3147 -10
endloop
endfacet
facet normal 0.5335216893046002 -0.6500991149469786 0.5410413549690272
outer loop
vertex 7.07107 -7.07107 -10
vertex 2.5 -2.5 0
vertex 5.5557 -8.3147 -10
endloop
endfacet
facet normal 0.23966413064874229 -0.7900766762286182 0.5642162264238081
outer loop
vertex 3.82683 -9.2388 -10
vertex 2.5 -2.5 0
vertex 1.9509 -9.80785 -10
endloop
endfacet
facet normal 0.07947450400152895 -0.8069050734144297 0.5853101790604401
outer loop
vertex 2.5 -2.5 0
vertex 0 -10 -10
vertex 1.9509 -9.80785 -10
endloop
endfacet
facet normal 0.7900766762286178 -0.23966413064874284 0.5642162264238083
outer loop
vertex 2.5 -2.5 0
vertex 9.2388 -3.82683 -10
vertex 9.80785 -1.9509 -10
endloop
endfacet
facet normal 0.80690507341443 -0.07947450400152867 0.5853101790604401
outer loop
vertex 10 0 -10
vertex 2.5 -2.5 0
vertex 9.80785 -1.9509 -10
endloop
endfacet
facet normal 0.7371236936922609 -0.3940007087525477 0.5490101107447549
outer loop
vertex 9.2388 -3.82683 -10
vertex 2.5 -2.5 0
vertex 8.3147 -5.5557 -10
endloop
endfacet
facet normal 0.6500991149469789 -0.5335216893046005 0.5410413549690261
outer loop
vertex 2.5 -2.5 0
vertex 7.07107 -7.07107 -10
vertex 8.3147 -5.5557 -10
endloop
endfacet
facet normal -0.3940007087525482 -0.7371236936922606 0.5490101107447548
outer loop
vertex -3.82683 -9.2388 -10
vertex -2.5 -2.5 0
vertex -5.5557 -8.3147 -10
endloop
endfacet
facet normal -0.5335216893046 -0.6500991149469786 0.5410413549690272
outer loop
vertex -2.5 -2.5 0
vertex -7.07107 -7.07107 -10
vertex -5.5557 -8.3147 -10
endloop
endfacet
facet normal -0.23966413064874226 -0.7900766762286181 0.5642162264238081
outer loop
vertex -2.5 -2.5 0
vertex -3.82683 -9.2388 -10
vertex -1.9509 -9.80785 -10
endloop
endfacet
facet normal 0 0 -1
outer loop
vertex -3.82683 -9.2388 -10
vertex -5.5557 -8.3147 -10
vertex -1.9509 -9.80785 -10
endloop
endfacet
facet normal 0 0 -1
outer loop
vertex -7.07107 -7.07107 -10
vertex -8.3147 -5.5557 -10
vertex -5.5557 -8.3147 -10
endloop
endfacet
facet normal 0 0 -1
outer loop
vertex -9.2388 -3.82683 -10
vertex -9.80785 -1.9509 -10
vertex -8.3147 -5.5557 -10
endloop
endfacet
facet normal 0 0 -1
outer loop
vertex -10 0 -10
vertex -9.80785 1.9509 -10
vertex -9.80785 -1.9509 -10
endloop
endfacet
facet normal 0 0 -1
outer loop
vertex -9.2388 3.82683 -10
vertex -8.3147 5.5557 -10
vertex -9.80785 1.9509 -10
endloop
endfacet
facet normal 0 0 -1
outer loop
vertex -7.07107 7.07107 -10
vertex -5.5557 8.3147 -10
vertex -8.3147 5.5557 -10
endloop
endfacet
facet normal 0 0 -1
outer loop
vertex -3.82683 9.2388 -10
vertex -1.9509 9.80785 -10
vertex -5.5557 8.3147 -10
endloop
endfacet
facet normal 0 0 -1
outer loop
vertex 0 10 -10
vertex 1.9509 9.80785 -10
vertex -1.9509 9.80785 -10
endloop
endfacet
facet normal 0 0 -1
outer loop
vertex 3.82683 9.2388 -10
vertex 5.5557 8.3147 -10
vertex 1.9509 9.80785 -10
endloop
endfacet
facet normal 0 0 -1
outer loop
vertex 7.07107 7.07107 -10
vertex 8.3147 5.5557 -10
vertex 5.5557 8.3147 -10
endloop
endfacet
facet normal 0 0 -1
outer loop
vertex 9.2388 3.82683 -10
vertex 9.80785 1.9509 -10
vertex 8.3147 5.5557 -10
endloop
endfacet
facet normal 0 0 -1
outer loop
vertex 10 0 -10
vertex 9.80785 -1.9509 -10
vertex 9.80785 1.9509 -10
endloop
endfacet
facet normal 0 0 -1
outer loop
vertex 9.2388 -3.82683 -10
vertex 8.3147 -5.5557 -10
vertex 9.80785 -1.9509 -10
endloop
endfacet
facet normal 0 0 -1
outer loop
vertex 7.07107 -7.07107 -10
vertex 5.5557 -8.3147 -10
vertex 8.3147 -5.5557 -10
endloop
endfacet
facet normal 0 0 -1
outer loop
vertex 3.82683 -9.2388 -10
vertex 1.9509 -9.80785 -10
vertex 5.5557 -8.3147 -10
endloop
endfacet
facet normal 0 0 -1
outer loop
vertex 0 -10 -10
vertex -1.9509 -9.80785 -10
vertex 1.9509 -9.80785 -10
endloop
endfacet
facet normal 0 0 -0.9999999999999999
outer loop
vertex -5.5557 -8.3147 -10
vertex -8.3147 -5.5557 -10
vertex -1.9509 -9.80785 -10
endloop
endfacet
facet normal 0 0 -1
outer loop
vertex -9.80785 -1.9509 -10
vertex -9.80785 1.9509 -10
vertex -8.3147 -5.5557 -10
endloop
endfacet
facet normal 0 0 -0.9999999999999999
outer loop
vertex -8.3147 5.5557 -10
vertex -5.5557 8.3147 -10
vertex -9.80785 1.9509 -10
endloop
endfacet
facet normal 0 0 -1
outer loop
vertex -1.9509 9.80785 -10
vertex 1.9509 9.80785 -10
vertex -5.5557 8.3147 -10
endloop
endfacet
facet normal 0 0 -0.9999999999999999
outer loop
vertex 5.5557 8.3147 -10
vertex 8.3147 5.5557 -10
vertex 1.9509 9.80785 -10
endloop
endfacet
facet normal 0 0 -1
outer loop
vertex 9.80785 1.9509 -10
vertex 9.80785 -1.9509 -10
vertex 8.3147 5.5557 -10
endloop
endfacet
facet normal 0 0 -0.9999999999999999
outer loop
vertex 8.3147 -5.5557 -10
vertex 5.5557 -8.3147 -10
vertex 9.80785 -1.9509 -10
endloop
endfacet
facet normal 0 0 -1
outer loop
vertex 1.9509 -9.80785 -10
vertex -1.9509 -9.80785 -10
vertex 5.5557 -8.3147 -10
endloop
endfacet
facet normal 0 0 -0.9999999999999999
outer loop
vertex -8.3147 -5.5557 -10
vertex -9.80785 1.9509 -10
vertex -1.9509 -9.80785 -10
endloop
endfacet
facet normal 0 0 -1
outer loop
vertex -5.5557 8.3147 -10
vertex 1.9509 9.80785 -10
vertex -9.80785 1.9509 -10
endloop
endfacet
facet normal 0 0 -0.9999999999999999
outer loop
vertex 8.3147 5.5557 -10
vertex 9.80785 -1.9509 -10
vertex 1.9509 9.80785 -10
endloop
endfacet
facet normal 0 0 -1
outer loop
vertex 5.5557 -8.3147 -10
vertex -1.9509 -9.80785 -10
vertex 9.80785 -1.9509 -10
endloop
endfacet
facet normal 0 0 -1
outer loop
vertex -9.80785 1.9509 -10
vertex 1.9509 9.80785 -10
vertex -1.9509 -9.80785 -10
endloop
endfacet
facet normal 0 0 -1
outer loop
vertex 9.80785 -1.9509 -10
vertex -1.9509 -9.80785 -10
vertex 1.9509 9.80785 -10
endloop
endfacet
facet normal -0.07947450400152865 -0.8069050734144297 0.5853101790604402
outer loop
vertex 0 -10 -10
vertex -2.5 -2.5 0
vertex -1.9509 -9.80785 -10
endloop
endfacet
facet normal 0 0.8 -0.6
outer loop
vertex 0 10 10
vertex 2.5 2.5 0
vertex -2.5 2.5 0
endloop
endfacet
facet normal -0.8 0 -0.6
outer loop
vertex -10 0 10
vertex -2.5 2.5 0
vertex -2.5 -2.5 0
endloop
endfacet
facet normal 0.39400070875254833 0.7371236936922607 -0.5490101107447548
outer loop
vertex 2.5 2.5 0
vertex 3.82683 9.2388 10
vertex 5.5557 8.3147 10
endloop
endfacet
facet normal 0.5335216893046002 0.6500991149469786 -0.5410413549690272
outer loop
vertex 7.07107 7.07107 10
vertex 2.5 2.5 0
vertex 5.5557 8.3147 10
endloop
endfacet
facet normal 0.23966413064874229 0.7900766762286182 -0.5642162264238081
outer loop
vertex 3.82683 9.2388 10
vertex 2.5 2.5 0
vertex 1.9509 9.80785 10
endloop
endfacet
facet normal 0.07947450400152895 0.8069050734144297 -0.5853101790604401
outer loop
vertex 2.5 2.5 0
vertex 0 10 10
vertex 1.9509 9.80785 10
endloop
endfacet
facet normal 0.7900766762286178 0.23966413064874284 -0.5642162264238083
outer loop
vertex 2.5 2.5 0
vertex 9.2388 3.82683 10
vertex 9.80785 1.9509 10
endloop
endfacet
facet normal 0.80690507341443 0.07947450400152867 -0.5853101790604401
outer loop
vertex 10 0 10
vertex 2.5 2.5 0
vertex 9.80785 1.9509 10
endloop
endfacet
facet normal 0.7371236936922609 0.3940007087525477 -0.5490101107447549
outer loop
vertex 9.2388 3.82683 10
vertex 2.5 2.5 0
vertex 8.3147 5.5557 10
endloop
endfacet
facet normal 0.6500991149469789 0.5335216893046005 -0.5410413549690261
outer loop
vertex 2.5 2.5 0
vertex 7.07107 7.07107 10
vertex 8.3147 5.5557 10
endloop
endfacet
facet normal 0 -0.8 -0.6
outer loop
vertex 0 -10 10
vertex -2.5 -2.5 0
vertex 2.5 -2.5 0
endloop
endfacet
facet normal 0 0 -1
outer loop
vertex -2.5 -2.5 0
vertex -2.5 2.5 0
vertex 2.5 -2.5 0
endloop
endfacet
facet normal 0 0 -1
outer loop
vertex 2.5 2.5 0
vertex 2.5 -2.5 0
vertex -2.5 2.5 0
endloop
endfacet
facet normal 0.8 0 -0.6
outer loop
vertex 2.5 2.5 0
vertex 10 0 10
vertex 2.5 -2.5 0
endloop
endfacet
facet normal -0.3940007087525482 0.7371236936922606 -0.5490101107447548
outer loop
vertex -3.82683 9.2388 10
vertex -2.5 2.5 0
vertex -5.5557 8.3147 10
endloop
endfacet
facet normal -0.5335216893046 0.6500991149469786 -0.5410413549690272
outer loop
vertex -2.5 2.5 0
vertex -7.07107 7.07107 10
vertex -5.5557 8.3147 10
endloop
endfacet
facet normal -0.23966413064874226 0.7900766762286181 -0.5642162264238081
outer loop
vertex -2.5 2.5 0
vertex -3.82683 9.2388 10
vertex -1.9509 9.80785 10
endloop
endfacet
facet normal -0.07947450400152865 0.8069050734144297 -0.5853101790604402
outer loop
vertex 0 10 10
vertex -2.5 2.5 0
vertex -1.9509 9.80785 10
endloop
endfacet
facet normal -0.7900766762286177 0.2396641306487428 -0.5642162264238083
outer loop
vertex -9.2388 3.82683 10
vertex -2.5 2.5 0
vertex -9.80785 1.9509 10
endloop
endfacet
facet normal -0.80690507341443 0.07947450400152867 -0.5853101790604401
outer loop
vertex -2.5 2.5 0
vertex -10 0 10
vertex -9.80785 1.9509 10
endloop
endfacet
facet normal -0.7371236936922607 0.3940007087525477 -0.549010110744755
outer loop
vertex -2.5 2.5 0
vertex -9.2388 3.82683 10
vertex -8.3147 5.5557 10
endloop
endfacet
facet normal -0.6500991149469789 0.5335216893046005 -0.5410413549690262
outer loop
vertex -7.07107 7.07107 10
vertex -2.5 2.5 0
vertex -8.3147 5.5557 10
endloop
endfacet
facet normal -0.7371236936922609 -0.3940007087525477 -0.5490101107447549
outer loop
vertex -9.2388 -3.82683 10
vertex -2.5 -2.5 0
vertex -8.3147 -5.5557 10
endloop
endfacet
facet normal -0.6500991149469789 -0.5335216893046005 -0.5410413549690261
outer loop
vertex -2.5 -2.5 0
vertex -7.07107 -7.07107 10
vertex -8.3147 -5.5557 10
endloop
endfacet
facet normal -0.7900766762286178 -0.23966413064874284 -0.5642162264238083
outer loop
vertex -2.5 -2.5 0
vertex -9.2388 -3.82683 10
vertex -9.80785 -1.9509 10
endloop
endfacet
facet normal -0.80690507341443 -0.07947450400152867 -0.5853101790604401
outer loop
vertex -10 0 10
vertex -2.5 -2.5 0
vertex -9.80785 -1.9509 10
endloop
endfacet
facet normal -0.23966413064874229 -0.7900766762286182 -0.5642162264238081
outer loop
vertex -3.82683 -9.2388 10
vertex -2.5 -2.5 0
vertex -1.9509 -9.80785 10
endloop
endfacet
facet normal -0.07947450400152895 -0.8069050734144297 -0.5853101790604401
outer loop
vertex -2.5 -2.5 0
vertex 0 -10 10
vertex -1.9509 -9.80785 10
endloop
endfacet
facet normal -0.39400070875254833 -0.7371236936922607 -0.5490101107447548
outer loop
vertex -2.5 -2.5 0
vertex -3.82683 -9.2388 10
vertex -5.5557 -8.3147 10
endloop
endfacet
facet normal -0.5335216893046002 -0.6500991149469786 -0.5410413549690272
outer loop
vertex -7.07107 -7.07107 10
vertex -2.5 -2.5 0
vertex -5.5557 -8.3147 10
endloop
endfacet
facet normal 0.7371236936922607 -0.3940007087525477 -0.549010110744755
outer loop
vertex 2.5 -2.5 0
vertex 9.2388 -3.82683 10
vertex 8.3147 -5.5557 10
endloop
endfacet
facet normal 0.6500991149469789 -0.5335216893046005 -0.5410413549690262
outer loop
vertex 7.07107 -7.07107 10
vertex 2.5 -2.5 0
vertex 8.3147 -5.5557 10
endloop
endfacet
facet normal 0.7900766762286177 -0.2396641306487428 -0.5642162264238083
outer loop
vertex 9.2388 -3.82683 10
vertex 2.5 -2.5 0
vertex 9.80785 -1.9509 10
endloop
endfacet
facet normal 0.80690507341443 -0.07947450400152867 -0.5853101790604401
outer loop
vertex 2.5 -2.5 0
vertex 10 0 10
vertex 9.80785 -1.9509 10
endloop
endfacet
facet normal 0.23966413064874226 -0.7900766762286181 -0.5642162264238081
outer loop
vertex 2.5 -2.5 0
vertex 3.82683 -9.2388 10
vertex 1.9509 -9.80785 10
endloop
endfacet
facet normal 0.07947450400152865 -0.8069050734144297 -0.5853101790604402
outer loop
vertex 0 -10 10
vertex 2.5 -2.5 0
vertex 1.9509 -9.80785 10
endloop
endfacet
facet normal 0 0 1
outer loop
vertex 9.2388 -3.82683 10
vertex 9.80785 -1.9509 10
vertex 8.3147 -5.5557 10
endloop
endfacet
facet normal 0 0 1
outer loop
vertex 10 0 10
vertex 9.80785 1.9509 10
vertex 9.80785 -1.9509 10
endloop
endfacet
facet normal 0 0 1
outer loop
vertex 9.2388 3.82683 10
vertex 8.3147 5.5557 10
vertex 9.80785 1.9509 10
endloop
endfacet
facet normal 0 0 1
outer loop
vertex 7.07107 7.07107 10
vertex 5.5557 8.3147 10
vertex 8.3147 5.5557 10
endloop
endfacet
facet normal 0 0 1
outer loop
vertex 3.82683 9.2388 10
vertex 1.9509 9.80785 10
vertex 5.5557 8.3147 10
endloop
endfacet
facet normal 0 0 1
outer loop
vertex 0 10 10
vertex -1.9509 9.80785 10
vertex 1.9509 9.80785 10
endloop
endfacet
facet normal 0 0 1
outer loop
vertex -3.82683 9.2388 10
vertex -5.5557 8.3147 10
vertex -1.9509 9.80785 10
endloop
endfacet
facet normal 0 0 1
outer loop
vertex -7.07107 7.07107 10
vertex -8.3147 5.5557 10
vertex -5.5557 8.3147 10
endloop
endfacet
facet normal 0 0 1
outer loop
vertex -9.2388 3.82683 10
vertex -9.80785 1.9509 10
vertex -8.3147 5.5557 10
endloop
endfacet
facet normal 0 0 1
outer loop
vertex -10 0 10
vertex -9.80785 -1.9509 10
vertex -9.80785 1.9509 10
endloop
endfacet
facet normal 0 0 1
outer loop
vertex -9.2388 -3.82683 10
vertex -8.3147 -5.5557 10
vertex -9.80785 -1.9509 10
endloop
endfacet
facet normal 0 0 1
outer loop
vertex -7.07107 -7.07107 10
vertex -5.5557 -8.3147 10
vertex -8.3147 -5.5557 10
endloop
endfacet
facet normal 0 0 1
outer loop
vertex -3.82683 -9.2388 10
vertex -1.9509 -9.80785 10
vertex -5.5557 -8.3147 10
endloop
endfacet
facet normal 0 0 1
outer loop
vertex 0 -10 10
vertex 1.9509 -9.80785 10
vertex -1.9509 -9.80785 10
endloop
endfacet
facet normal 0 0 1
outer loop
vertex 3.82683 -9.2388 10
vertex 5.5557 -8.3147 10
vertex 1.9509 -9.80785 10
endloop
endfacet
facet normal 0 0 1
outer loop
vertex 7.07107 -7.07107 10
vertex 8.3147 -5.5557 10
vertex 5.5557 -8.3147 10
endloop
endfacet
facet normal 0 0 1
outer loop
vertex 9.80785 -1.9509 10
vertex 9.80785 1.9509 10
vertex 8.3147 -5.5557 10
endloop
endfacet
facet normal 0 0 0.9999999999999999
outer loop
vertex 8.3147 5.5557 10
vertex 5.5557 8.3147 10
vertex 9.80785 1.9509 10
endloop
endfacet
facet normal 0 0 1
outer loop
vertex 1.9509 9.80785 10
vertex -1.9509 9.80785 10
vertex 5.5557 8.3147 10
endloop
endfacet
facet normal 0 0 0.9999999999999999
outer loop
vertex -5.5557 8.3147 10
vertex -8.3147 5.5557 10
vertex -1.9509 9.80785 10
endloop
endfacet
facet normal 0 0 1
outer loop
vertex -9.80785 1.9509 10
vertex -9.80785 -1.9509 10
vertex -8.3147 5.5557 10
endloop
endfacet
facet normal 0 0 0.9999999999999999
outer loop
vertex -8.3147 -5.5557 10
vertex -5.5557 -8.3147 10
vertex -9.80785 -1.9509 10
endloop
endfacet
facet normal 0 0 1
outer loop
vertex -1.9509 -9.80785 10
vertex 1.9509 -9.80785 10
vertex -5.5557 -8.3147 10
endloop
endfacet
facet normal 0 0 0.9999999999999999
outer loop
vertex 5.5557 -8.3147 10
vertex 8.3147 -5.5557 10
vertex 1.9509 -9.80785 10
endloop
endfacet
facet normal 0 0 1
outer loop
vertex 9.80785 1.9509 10
vertex 5.5557 8.3147 10
vertex 8.3147 -5.5557 10
endloop
endfacet
facet normal 0 0 0.9999999999999999
outer loop
vertex -1.9509 9.80785 10
vertex -8.3147 5.5557 10
vertex 5.5557 8.3147 10
endloop
endfacet
facet normal 0 0 1
outer loop
vertex -9.80785 -1.9509 10
vertex -5.5557 -8.3147 10
vertex -8.3147 5.5557 10
endloop
endfacet
facet normal 0 0 0.9999999999999999
outer loop
vertex 1.9509 -9.80785 10
vertex 8.3147 -5.5557 10
vertex -5.5557 -8.3147 10
endloop
endfacet
facet normal 0 0 1
outer loop
vertex 5.5557 8.3147 10
vertex -8.3147 5.5557 10
vertex 8.3147 -5.5557 10
endloop
endfacet
facet normal 0 0 1
outer loop
vertex -5.5557 -8.3147 10
vertex 8.3147 -5.5557 10
vertex -8.3147 5.5557 10
endloop
endfacet
facet normal 0.3940007087525482 -0.7371236936922606 -0.5490101107447548
outer loop
vertex 3.82683 -9.2388 10
vertex 2.5 -2.5 0
vertex 5.5557 -8.3147 10
endloop
endfacet
facet normal 0.5335216893046 -0.6500991149469786 -0.5410413549690272
outer loop
vertex 2.5 -2.5 0
vertex 7.07107 -7.07107 10
vertex 5.5557 -8.3147 10
endloop
endfacet
endsolid JSxCAD
