solid JSxCAD
facet normal -0.5773464201711056 -0.577346420129127 -0.5773579671916643
outer loop
vertex 0 10 -10
vertex -2.50007 2.49997 -0.0001
vertex -2.50008 2.49998 -0.0001
endloop
endfacet
facet normal -0.625392617740931 0.6912234196110704 0.36206941027422324
outer loop
vertex 0 10 -10
vertex -2.50008 2.49998 -0.0001
vertex -2.5 2.5 0
endloop
endfacet
facet normal -0.5773502691867007 -0.577350269189728 -0.5773502691924484
outer loop
vertex 0 10 -10
vertex -2.5 2.5 0
vertex -2.50008 2.49998 0.0001
endloop
endfacet
facet normal 0.5773502691830861 0.5773502691840413 0.57735026920175
outer loop
vertex 0 10 -10
vertex -2.50008 2.49998 0.0001
vertex -2.50007 2.49997 0.0001
endloop
endfacet
facet normal 0.5773502691875041 0.5773502691909917 0.5773502691903813
outer loop
vertex 0 10 -10
vertex -2.50007 2.49997 0.0001
vertex -2.5 2.5 0
endloop
endfacet
facet normal 0.7067062675439255 -0.639400908728412 -0.30287411466055447
outer loop
vertex 0 10 -10
vertex -2.5 2.5 0
vertex -2.50007 2.49997 -0.0001
endloop
endfacet
facet normal -0.9486810212006144 0.31623459648457114 0
outer loop
vertex 0 10 -10
vertex -2.50007 2.49997 -0.0001
vertex -2.50007 2.49997 0.0001
endloop
endfacet
facet normal -0.5773502691830861 -0.5773502691840413 -0.57735026920175
outer loop
vertex 0 10 -10
vertex -2.50007 2.49997 0.0001
vertex -2.50008 2.49998 0.0001
endloop
endfacet
facet normal 0.9486805152246292 -0.3162361143720498 0
outer loop
vertex 0 10 -10
vertex -2.50008 2.49998 0.0001
vertex -2.50008 2.49998 -0.0001
endloop
endfacet
facet normal -0.00001439982144050521 0.799998079936386 0.6000025599034898
outer loop
vertex 0 10 -10
vertex -2.50008 2.49998 -0.0001
vertex 2.49997 2.50007 -0.0001
endloop
endfacet
facet normal -0.9486835510344668 -0.3162270070639673 0
outer loop
vertex 0 10 -10
vertex 2.49997 2.50007 -0.0001
vertex 2.49997 2.50007 0.0001
endloop
endfacet
facet normal 0.9274776638658128 0.370991436541958 0.04637388319462537
outer loop
vertex 0 10 -10
vertex 2.49997 2.50007 0.0001
vertex 2.49998 2.50007 -0.0001
endloop
endfacet
facet normal -0.9486831715578142 -0.3162281454946837 0
outer loop
vertex 0 10 -10
vertex 2.49998 2.50007 -0.0001
vertex 2.49998 2.50007 0.0001
endloop
endfacet
facet normal 0.9549346804714736 0.29635903876953673 -0.01646439104373194
outer loop
vertex 0 10 -10
vertex 2.49998 2.50007 0.0001
vertex 2.5 2.5 0
endloop
endfacet
facet normal 0.5773502692224157 -0.5773502691717589 -0.5773502691747029
outer loop
vertex 0 10 -10
vertex 2.5 2.5 0
vertex 2.49997 2.50007 -0.0001
endloop
endfacet
facet normal -0.9486835510344668 -0.3162270070639673 0
outer loop
vertex 0 10 -10
vertex 2.49997 2.50007 -0.0001
vertex 2.49997 2.50007 0.0001
endloop
endfacet
facet normal 0 0.8000055679401155 0.5999925760080814
outer loop
vertex 0 10 -10
vertex 2.49997 2.50007 0.0001
vertex 2.49998 2.50007 0.0001
endloop
endfacet
facet normal 0.9486831715578142 0.3162281454946837 0
outer loop
vertex 0 10 -10
vertex 2.49998 2.50007 0.0001
vertex 2.49998 2.50007 -0.0001
endloop
endfacet
facet normal 0.39400046686391493 0.7371232411503265 0.5490108919384522
outer loop
vertex 5.5557 8.3147 -10
vertex 3.82683 9.2388 -10
vertex 2.49998 2.50007 -0.0001
endloop
endfacet
facet normal 0 -0.8644795892088973 -0.5026679220332408
outer loop
vertex 5.5557 8.3147 -10
vertex 2.49998 2.50007 -0.0001
vertex 2.49997 2.50007 -0.0001
endloop
endfacet
facet normal 0.16257250459221667 0.8305832413965681 0.5326365175819098
outer loop
vertex 5.5557 8.3147 -10
vertex 2.49997 2.50007 -0.0001
vertex 2.5 2.5 0
endloop
endfacet
facet normal -0.9570128583864866 0.004159724076328326 -0.2900156643675221
outer loop
vertex 5.5557 8.3147 -10
vertex 2.5 2.5 0
vertex 2.49997 2.50007 0.0001
endloop
endfacet
facet normal 0 0.8644839577877743 0.5026604089517948
outer loop
vertex 5.5557 8.3147 -10
vertex 2.49997 2.50007 0.0001
vertex 2.49998 2.50007 0.0001
endloop
endfacet
facet normal 0.9653034646570706 -0.07952358365569248 0.24872720149515554
outer loop
vertex 5.5557 8.3147 -10
vertex 2.49998 2.50007 0.0001
vertex 2.5 2.5 0
endloop
endfacet
facet normal -0.16257250459221667 -0.8305832413965681 -0.5326365175819098
outer loop
vertex 5.5557 8.3147 -10
vertex 2.5 2.5 0
vertex 2.49997 2.50007 -0.0001
endloop
endfacet
facet normal -0.8852067758891897 0.4651977686101531 0
outer loop
vertex 5.5557 8.3147 -10
vertex 2.49997 2.50007 -0.0001
vertex 2.49997 2.50007 0.0001
endloop
endfacet
facet normal 0 0.8644839577877743 0.5026604089517948
outer loop
vertex 5.5557 8.3147 -10
vertex 2.49997 2.50007 0.0001
vertex 2.49998 2.50007 0.0001
endloop
endfacet
facet normal 0.8852074028007167 -0.4651965756825922 0
outer loop
vertex 5.5557 8.3147 -10
vertex 2.49998 2.50007 0.0001
vertex 2.49998 2.50007 -0.0001
endloop
endfacet
facet normal 0.533521133124681 0.6500984372386867 0.5410427177304705
outer loop
vertex 7.07107 7.07107 -10
vertex 5.5557 8.3147 -10
vertex 2.49998 2.50007 -0.0001
endloop
endfacet
facet normal 0 -0.9094876416700186 -0.4157309582524591
outer loop
vertex 7.07107 7.07107 -10
vertex 2.49998 2.50007 -0.0001
vertex 2.49997 2.50007 -0.0001
endloop
endfacet
facet normal 0.2648360048967314 0.8255042062127502 0.4984021428880455
outer loop
vertex 7.07107 7.07107 -10
vertex 2.49997 2.50007 -0.0001
vertex 2.5 2.5 0
endloop
endfacet
facet normal -0.9222252525400199 0.2049167173040862 -0.3278867526247645
outer loop
vertex 7.07107 7.07107 -10
vertex 2.5 2.5 0
vertex 2.49998 2.50007 0.0001
endloop
endfacet
facet normal 0 -0.9094907853880745 -0.41572408072444345
outer loop
vertex 7.07107 7.07107 -10
vertex 2.49998 2.50007 0.0001
vertex 2.49997 2.50007 0.0001
endloop
endfacet
facet normal 0.9227299126222945 -0.1252842895201993 0.3645179764448821
outer loop
vertex 7.07107 7.07107 -10
vertex 2.49997 2.50007 0.0001
vertex 2.5 2.5 0
endloop
endfacet
facet normal -0.2648360048967314 -0.8255042062127502 -0.4984021428880455
outer loop
vertex 7.07107 7.07107 -10
vertex 2.5 2.5 0
vertex 2.49997 2.50007 -0.0001
endloop
endfacet
facet normal -0.7070990465239486 0.707114515764542 0
outer loop
vertex 7.07107 7.07107 -10
vertex 2.49997 2.50007 -0.0001
vertex 2.49997 2.50007 0.0001
endloop
endfacet
facet normal 0 0.9094907853880745 0.41572408072444345
outer loop
vertex 7.07107 7.07107 -10
vertex 2.49997 2.50007 0.0001
vertex 2.49998 2.50007 0.0001
endloop
endfacet
facet normal 0.7070998199891496 -0.7071137423154159 0
outer loop
vertex 7.07107 7.07107 -10
vertex 2.49998 2.50007 0.0001
vertex 2.49998 2.50007 -0.0001
endloop
endfacet
facet normal 0 -0.8073849386865326 -0.5900250509784681
outer loop
vertex 1.9509 9.80785 -10
vertex 2.49998 2.50007 -0.0001
vertex 2.49997 2.50007 -0.0001
endloop
endfacet
facet normal -0.1005675699606446 0.8006531013455255 0.5906274419445838
outer loop
vertex 1.9509 9.80785 -10
vertex 2.49997 2.50007 -0.0001
vertex 2.5 2.5 0
endloop
endfacet
facet normal -0.9633671034548046 -0.2389657556427489 -0.12173410208807513
outer loop
vertex 1.9509 9.80785 -10
vertex 2.5 2.5 0
vertex 2.49997 2.50007 0.0001
endloop
endfacet
facet normal 0 0.807390560104589 0.5900173586039635
outer loop
vertex 1.9509 9.80785 -10
vertex 2.49997 2.50007 0.0001
vertex 2.49998 2.50007 0.0001
endloop
endfacet
facet normal 0.9971891593980363 0.07492516519192902 0
outer loop
vertex 1.9509 9.80785 -10
vertex 2.49998 2.50007 0.0001
vertex 2.49998 2.50007 -0.0001
endloop
endfacet
facet normal 0 -0.8073849386865326 -0.5900250509784681
outer loop
vertex 1.9509 9.80785 -10
vertex 2.49998 2.50007 -0.0001
vertex 2.49997 2.50007 -0.0001
endloop
endfacet
facet normal -0.1005675699606446 0.8006531013455255 0.5906274419445838
outer loop
vertex 1.9509 9.80785 -10
vertex 2.49997 2.50007 -0.0001
vertex 2.5 2.5 0
endloop
endfacet
facet normal -0.9633671034548046 -0.2389657556427489 -0.12173410208807513
outer loop
vertex 1.9509 9.80785 -10
vertex 2.5 2.5 0
vertex 2.49997 2.50007 0.0001
endloop
endfacet
facet normal 0 0.807390560104589 0.5900173586039635
outer loop
vertex 1.9509 9.80785 -10
vertex 2.49997 2.50007 0.0001
vertex 2.49998 2.50007 0.0001
endloop
endfacet
facet normal 0.9818042070979859 0.17491916006850175 0.0739174293764666
outer loop
vertex 1.9509 9.80785 -10
vertex 2.49998 2.50007 0.0001
vertex 2.5 2.5 0
endloop
endfacet
facet normal 0.1005675699606446 -0.8006531013455255 -0.5906274419445838
outer loop
vertex 1.9509 9.80785 -10
vertex 2.5 2.5 0
vertex 2.49997 2.50007 -0.0001
endloop
endfacet
facet normal -0.997189261349851 -0.07492380828907855 0
outer loop
vertex 1.9509 9.80785 -10
vertex 2.49997 2.50007 -0.0001
vertex 2.49997 2.50007 0.0001
endloop
endfacet
facet normal 0 0.807390560104589 0.5900173586039635
outer loop
vertex 1.9509 9.80785 -10
vertex 2.49997 2.50007 0.0001
vertex 2.49998 2.50007 0.0001
endloop
endfacet
facet normal 0.9971891593980363 0.07492516519192902 0
outer loop
vertex 1.9509 9.80785 -10
vertex 2.49998 2.50007 0.0001
vertex 2.49998 2.50007 -0.0001
endloop
endfacet
facet normal 0.9191450300209961 0.3939192985723114 0
outer loop
vertex 2.5 2.5 0
vertex 2.49997 2.50007 -0.0001
vertex 2.49997 2.50007 0.0001
endloop
endfacet
facet normal 0 0.8192319205226917 -0.5734623443581123
outer loop
vertex 2.5 2.5 0
vertex 2.49997 2.50007 0.0001
vertex 2.49998 2.50007 0.0001
endloop
endfacet
facet normal -0.9615239476396956 -0.2747211279013245 0
outer loop
vertex 2.5 2.5 0
vertex 2.49998 2.50007 0.0001
vertex 2.49998 2.50007 -0.0001
endloop
endfacet
facet normal -0.06465928474595867 -0.8235468922654463 -0.5635509676471743
outer loop
vertex 2.5 2.5 0
vertex 2.49998 2.50007 -0.0001
vertex 3.82683 9.2388 -10
endloop
endfacet
facet normal 0.23966413064874226 0.7900766762286181 0.5642162264238081
outer loop
vertex 2.5 2.5 0
vertex 3.82683 9.2388 -10
vertex 1.9509 9.80785 -10
endloop
endfacet
facet normal -0.16793988919980946 0.7915023072653445 0.5876395929557435
outer loop
vertex 2.5 2.5 0
vertex 1.9509 9.80785 -10
vertex 2.49998 2.50007 -0.0001
endloop
endfacet
facet normal 0 0.8192319205226917 0.5734623443581123
outer loop
vertex 2.5 2.5 0
vertex 2.49998 2.50007 -0.0001
vertex 2.49997 2.50007 -0.0001
endloop
endfacet
facet normal 0 0.8192319205226917 -0.5734623443581123
outer loop
vertex 2.5 2.5 0
vertex 2.49997 2.50007 0.0001
vertex 2.49998 2.50007 0.0001
endloop
endfacet
facet normal 0 -0.7999998079890979 -0.6000002560144508
outer loop
vertex 0 10 -10
vertex 2.49998 2.50007 -0.0001
vertex 2.49997 2.50007 -0.0001
endloop
endfacet
facet normal -0.5773502692224157 0.5773502691717589 0.5773502691747029
outer loop
vertex 0 10 -10
vertex 2.49997 2.50007 -0.0001
vertex 2.5 2.5 0
endloop
endfacet
facet normal -0.9345119394099229 -0.3544700459857059 -0.03222454963527547
outer loop
vertex 0 10 -10
vertex 2.5 2.5 0
vertex 2.49997 2.50007 0.0001
endloop
endfacet
facet normal 0 0.8000055679401155 0.5999925760080814
outer loop
vertex 0 10 -10
vertex 2.49997 2.50007 0.0001
vertex 2.49998 2.50007 0.0001
endloop
endfacet
facet normal 0.9651095038953148 0.2573617193844735 -0.04825547519615463
outer loop
vertex 0 10 -10
vertex 2.49998 2.50007 0.0001
vertex 2.49997 2.50007 -0.0001
endloop
endfacet
facet normal 0 0.7999998079890979 0.6000002560144508
outer loop
vertex 0 10 -10
vertex 2.49997 2.50007 -0.0001
vertex 2.49998 2.50007 -0.0001
endloop
endfacet
facet normal -0.6666666666995715 -0.6666666666302983 -0.33333333334026016
outer loop
vertex 0 10 -10
vertex 2.49998 2.50007 -0.0001
vertex 2.5 2.5 0
endloop
endfacet
facet normal -0.9345119394099229 -0.3544700459857059 -0.03222454963527547
outer loop
vertex 0 10 -10
vertex 2.5 2.5 0
vertex 2.49997 2.50007 0.0001
endloop
endfacet
facet normal 0 0.8000055679401155 0.5999925760080814
outer loop
vertex 0 10 -10
vertex 2.49997 2.50007 0.0001
vertex 2.49998 2.50007 0.0001
endloop
endfacet
facet normal 0.07947503161760101 0.8069104303032977 0.5853027223729004
outer loop
vertex 0 10 -10
vertex 2.49998 2.50007 0.0001
vertex 1.9509 9.80785 -10
endloop
endfacet
facet normal 0 0 -1
outer loop
vertex 9.80785 1.9509 -10
vertex 9.23879 3.82683 -10
vertex 9.2388 3.82683 -10
endloop
endfacet
facet normal 0 0 1
outer loop
vertex 9.80785 1.9509 -10
vertex 9.2388 3.82683 -10
vertex 9.23879 3.82683 -10
endloop
endfacet
facet normal 0.7900735101514423 0.239667381878204 0.5642192788452253
outer loop
vertex 9.80785 1.9509 -10
vertex 9.23879 3.82683 -10
vertex 2.49998 2.50007 -0.0001
endloop
endfacet
facet normal 0 -0.9984954337977594 0.054834922130194794
outer loop
vertex 9.80785 1.9509 -10
vertex 2.49998 2.50007 -0.0001
vertex 2.49997 2.50007 -0.0001
endloop
endfacet
facet normal 0.5509400327934689 0.7522760616568922 0.361311233320426
outer loop
vertex 9.80785 1.9509 -10
vertex 2.49997 2.50007 -0.0001
vertex 2.5 2.5 0
endloop
endfacet
facet normal -0.6623918827540733 0.5450211218295998 -0.5139931618427609
outer loop
vertex 9.80785 1.9509 -10
vertex 2.5 2.5 0
vertex 2.49998 2.50007 0.0001
endloop
endfacet
facet normal 0 -0.9984954938441017 0.05483382872847176
outer loop
vertex 9.80785 1.9509 -10
vertex 2.49998 2.50007 0.0001
vertex 2.49997 2.50007 0.0001
endloop
endfacet
facet normal 0.701011884423286 -0.4681291054263526 0.537993939138757
outer loop
vertex 9.80785 1.9509 -10
vertex 2.49997 2.50007 0.0001
vertex 2.5 2.5 0
endloop
endfacet
facet normal -0.5509400327934689 -0.7522760616568922 -0.361311233320426
outer loop
vertex 9.80785 1.9509 -10
vertex 2.5 2.5 0
vertex 2.49997 2.50007 -0.0001
endloop
endfacet
facet normal 0.07493635757628639 0.9971883183798327 0
outer loop
vertex 9.80785 1.9509 -10
vertex 2.49997 2.50007 -0.0001
vertex 2.49997 2.50007 0.0001
endloop
endfacet
facet normal 0 0.9984954938441017 -0.05483382872847176
outer loop
vertex 9.80785 1.9509 -10
vertex 2.49997 2.50007 0.0001
vertex 2.49998 2.50007 0.0001
endloop
endfacet
facet normal -0.0749364595413657 -0.9971883107173916 0
outer loop
vertex 9.80785 1.9509 -10
vertex 2.49998 2.50007 0.0001
vertex 2.49998 2.50007 -0.0001
endloop
endfacet
facet normal 0.8069018095812888 0.07947418253680197 0.5853147221833298
outer loop
vertex 10 0 -10
vertex 9.80785 1.9509 -10
vertex 2.49998 2.50007 -0.0001
endloop
endfacet
facet normal 0 -0.9701403315410444 0.24254429928867094
outer loop
vertex 10 0 -10
vertex 2.49998 2.50007 -0.0001
vertex 2.49997 2.50007 -0.0001
endloop
endfacet
facet normal 0.6394009087300077 0.7067062675421847 0.3028741146612474
outer loop
vertex 10 0 -10
vertex 2.49997 2.50007 -0.0001
vertex 2.5 2.5 0
endloop
endfacet
facet normal -0.5264598425168994 0.6434509186305754 -0.5557076115463513
outer loop
vertex 10 0 -10
vertex 2.5 2.5 0
vertex 2.49998 2.50007 0.0001
endloop
endfacet
facet normal 0 -0.9701414729394778 0.24253973382277075
outer loop
vertex 10 0 -10
vertex 2.49998 2.50007 0.0001
vertex 2.49997 2.50007 0.0001
endloop
endfacet
facet normal 0.577350269193269 -0.5773502691830824 0.5773502691925257
outer loop
vertex 10 0 -10
vertex 2.49997 2.50007 0.0001
vertex 2.5 2.5 0
endloop
endfacet
facet normal -0.6394009087300077 -0.7067062675421847 -0.3028741146612474
outer loop
vertex 10 0 -10
vertex 2.5 2.5 0
vertex 2.49997 2.50007 -0.0001
endloop
endfacet
facet normal 0.31623459648654206 0.9486810211999575 0
outer loop
vertex 10 0 -10
vertex 2.49997 2.50007 -0.0001
vertex 2.49997 2.50007 0.0001
endloop
endfacet
facet normal 0 0.9701414729394778 -0.24253973382277075
outer loop
vertex 10 0 -10
vertex 2.49997 2.50007 0.0001
vertex 2.49998 2.50007 0.0001
endloop
endfacet
facet normal -0.3162349759664652 -0.9486808947035296 0
outer loop
vertex 10 0 -10
vertex 2.49998 2.50007 0.0001
vertex 2.49998 2.50007 -0.0001
endloop
endfacet
facet normal 0 0 -1
outer loop
vertex 9.2388 3.82683 -10
vertex 9.23879 3.82683 -10
vertex 8.3147 5.5557 -10
endloop
endfacet
facet normal 0.7371219914163445 0.39399979886737774 0.5490130492646492
outer loop
vertex 9.2388 3.82683 -10
vertex 8.3147 5.5557 -10
vertex 2.49998 2.50007 -0.0001
endloop
endfacet
facet normal 0 -0.9913128879001128 -0.13152474399571476
outer loop
vertex 9.2388 3.82683 -10
vertex 2.49998 2.50007 -0.0001
vertex 2.49997 2.50007 -0.0001
endloop
endfacet
facet normal 0.4583574418187689 0.7868354825184846 0.41327760522348356
outer loop
vertex 9.2388 3.82683 -10
vertex 2.49997 2.50007 -0.0001
vertex 2.5 2.5 0
endloop
endfacet
facet normal -0.771075867422303 0.43881937310035235 -0.4613887346595677
outer loop
vertex 9.2388 3.82683 -10
vertex 2.5 2.5 0
vertex 2.49998 2.50007 0.0001
endloop
endfacet
facet normal 0 -0.9913132308667558 -0.13152215900187345
outer loop
vertex 9.2388 3.82683 -10
vertex 2.49998 2.50007 0.0001
vertex 2.49997 2.50007 0.0001
endloop
endfacet
facet normal 0.7958150215272548 -0.35732604153107334 0.4888727355409673
outer loop
vertex 9.2388 3.82683 -10
vertex 2.49997 2.50007 0.0001
vertex 2.5 2.5 0
endloop
endfacet
facet normal -0.4583574418187689 -0.7868354825184846 -0.41327760522348356
outer loop
vertex 9.2388 3.82683 -10
vertex 2.5 2.5 0
vertex 2.49997 2.50007 -0.0001
endloop
endfacet
facet normal -0.19317444080693866 0.9811644283293838 0
outer loop
vertex 9.2388 3.82683 -10
vertex 2.49997 2.50007 -0.0001
vertex 2.49997 2.50007 0.0001
endloop
endfacet
facet normal 0 0.9913132308667558 0.13152215900187345
outer loop
vertex 9.2388 3.82683 -10
vertex 2.49997 2.50007 0.0001
vertex 2.49998 2.50007 0.0001
endloop
endfacet
facet normal 0.19317471676602355 -0.9811643739977347 0
outer loop
vertex 9.2388 3.82683 -10
vertex 2.49998 2.50007 0.0001
vertex 2.49998 2.50007 -0.0001
endloop
endfacet
facet normal 0 -0.9913128879065765 -0.13152474394699817
outer loop
vertex 9.2388 3.82683 -10
vertex 2.49998 2.50007 -0.0001
vertex 9.23879 3.82683 -10
endloop
endfacet
facet normal 0.6500980682002601 0.533520830263163 0.5410434598048434
outer loop
vertex 8.3147 5.5557 -10
vertex 7.07107 7.07107 -10
vertex 2.49998 2.50007 -0.0001
endloop
endfacet
facet normal 0 -0.9563487646825689 -0.2922277199208257
outer loop
vertex 8.3147 5.5557 -10
vertex 2.49998 2.50007 -0.0001
vertex 2.49997 2.50007 -0.0001
endloop
endfacet
facet normal 0.36290760867397875 0.8110239328091922 0.45884447035705384
outer loop
vertex 8.3147 5.5557 -10
vertex 2.49997 2.50007 -0.0001
vertex 2.5 2.5 0
endloop
endfacet
facet normal -0.8572885822743216 0.3252184089328308 -0.39911060270717175
outer loop
vertex 8.3147 5.5557 -10
vertex 2.5 2.5 0
vertex 2.49998 2.50007 0.0001
endloop
endfacet
facet normal 0 -0.9563503980587093 -0.29222237445642024
outer loop
vertex 8.3147 5.5557 -10
vertex 2.49998 2.50007 0.0001
vertex 2.49997 2.50007 0.0001
endloop
endfacet
facet normal 0.8689726650310934 -0.24323491751991266 0.43095624177849
outer loop
vertex 8.3147 5.5557 -10
vertex 2.49997 2.50007 0.0001
vertex 2.5 2.5 0
endloop
endfacet
facet normal -0.36290760867397875 -0.8110239328091922 -0.45884447035705384
outer loop
vertex 8.3147 5.5557 -10
vertex 2.5 2.5 0
vertex 2.49997 2.50007 -0.0001
endloop
endfacet
facet normal -0.46517957031340984 0.8852163392996264 0
outer loop
vertex 8.3147 5.5557 -10
vertex 2.49997 2.50007 -0.0001
vertex 2.49997 2.50007 0.0001
endloop
endfacet
facet normal 0 0.9563503980587093 0.29222237445642024
outer loop
vertex 8.3147 5.5557 -10
vertex 2.49997 2.50007 0.0001
vertex 2.49998 2.50007 0.0001
endloop
endfacet
facet normal 0.46518019719535575 -0.885216009874025 0
outer loop
vertex 8.3147 5.5557 -10
vertex 2.49998 2.50007 0.0001
vertex 2.49998 2.50007 -0.0001
endloop
endfacet
facet normal 0.7999981759244642 0.000015199828543930392 0.6000024319004842
outer loop
vertex 2.5 -2.5 0
vertex 10 0 -10
vertex 2.49998 2.50007 -0.0001
endloop
endfacet
facet normal 0 0.00001999972000010399 0.9999999998000056
outer loop
vertex 2.5 -2.5 0
vertex 2.49998 2.50007 -0.0001
vertex 2.49997 2.50007 -0.0001
endloop
endfacet
facet normal 0.9578262852206333 0 -0.28734788556807245
outer loop
vertex 2.5 -2.5 0
vertex 2.49997 2.50007 -0.0001
vertex 2.5 2.5 0
endloop
endfacet
facet normal 0.9805806756906732 0 0.19611613513941942
outer loop
vertex 2.5 -2.5 0
vertex 2.5 2.5 0
vertex 2.49998 2.50007 0.0001
endloop
endfacet
facet normal 0 -0.00001999972000010399 0.9999999998000056
outer loop
vertex 2.5 -2.5 0
vertex 2.49998 2.50007 0.0001
vertex 2.49997 2.50007 0.0001
endloop
endfacet
facet normal -0.9578262852206333 0 -0.28734788556807245
outer loop
vertex 2.5 -2.5 0
vertex 2.49997 2.50007 0.0001
vertex 2.5 2.5 0
endloop
endfacet
facet normal -0.9578262852206333 0 0.28734788556807245
outer loop
vertex 2.5 -2.5 0
vertex 2.5 2.5 0
vertex 2.49997 2.50007 -0.0001
endloop
endfacet
facet normal 0.9999999999820005 0.00000599991600094562 0
outer loop
vertex 2.5 -2.5 0
vertex 2.49997 2.50007 -0.0001
vertex 2.49997 2.50007 0.0001
endloop
endfacet
facet normal 0 0.00001999972000010399 -0.9999999998000056
outer loop
vertex 2.5 -2.5 0
vertex 2.49997 2.50007 0.0001
vertex 2.49998 2.50007 0.0001
endloop
endfacet
facet normal -0.9999999999920002 -0.00000399994400081497 0
outer loop
vertex 2.5 -2.5 0
vertex 2.49998 2.50007 0.0001
vertex 2.49998 2.50007 -0.0001
endloop
endfacet
facet normal 0 -0.8 0.6
outer loop
vertex -2.5 -2.5 0
vertex 0 -10 -10
vertex 2.5 -2.5 0
endloop
endfacet
facet normal -0.7999999039986893 8.000087038842377e-7 0.6000001280011928
outer loop
vertex -10 0 -10
vertex -2.5 -2.5 0
vertex -2.50007 2.49997 -0.0001
endloop
endfacet
facet normal 0.3162270070634262 -0.948683551034647 0
outer loop
vertex -10 0 -10
vertex -2.50007 2.49997 -0.0001
vertex -2.50007 2.49997 0.0001
endloop
endfacet
facet normal -0.39307385933963074 0.9171701546948685 0.0655122007021544
outer loop
vertex -10 0 -10
vertex -2.50007 2.49997 0.0001
vertex -2.50008 2.49998 -0.0001
endloop
endfacet
facet normal 0.31622852497329323 -0.9486830450646914 0
outer loop
vertex -10 0 -10
vertex -2.50008 2.49998 -0.0001
vertex -2.50008 2.49998 0.0001
endloop
endfacet
facet normal -0.2786765050008956 0.9598857394448813 -0.030964056110906742
outer loop
vertex -10 0 -10
vertex -2.50008 2.49998 0.0001
vertex -2.5 2.5 0
endloop
endfacet
facet normal 0.5773502692525772 0.5773502690788505 -0.5773502692374498
outer loop
vertex -10 0 -10
vertex -2.5 2.5 0
vertex -2.50007 2.49997 -0.0001
endloop
endfacet
facet normal 0.3162270070634262 -0.948683551034647 0
outer loop
vertex -10 0 -10
vertex -2.50007 2.49997 -0.0001
vertex -2.50007 2.49997 0.0001
endloop
endfacet
facet normal -0.5773541181653523 -0.5773541181252846 0.5773425712012613
outer loop
vertex -10 0 -10
vertex -2.50007 2.49997 0.0001
vertex -2.50008 2.49998 0.0001
endloop
endfacet
facet normal -0.31622852497329323 0.9486830450646914 0
outer loop
vertex -10 0 -10
vertex -2.50008 2.49998 0.0001
vertex -2.50008 2.49998 -0.0001
endloop
endfacet
facet normal -0.39391929858126246 0.9191450300171601 0
outer loop
vertex -2.5 2.5 0
vertex -2.50007 2.49997 -0.0001
vertex -2.50007 2.49997 0.0001
endloop
endfacet
facet normal -0.5773502691769584 -0.5773502691822664 -0.5773502692096524
outer loop
vertex -2.5 2.5 0
vertex -2.50007 2.49997 0.0001
vertex -2.50008 2.49998 0.0001
endloop
endfacet
facet normal 0.24253562503732792 -0.9701425001450833 0
outer loop
vertex -2.5 2.5 0
vertex -2.50008 2.49998 0.0001
vertex -2.50008 2.49998 -0.0001
endloop
endfacet
facet normal 0.7067378498947862 -0.539683001981205 -0.457453679511543
outer loop
vertex -2.5 2.5 0
vertex -2.50008 2.49998 -0.0001
vertex -3.82683 9.2388 -10
endloop
endfacet
facet normal -0.39400070875254833 0.7371236936922607 0.5490101107447548
outer loop
vertex -2.5 2.5 0
vertex -3.82683 9.2388 -10
vertex -5.5557 8.3147 -10
endloop
endfacet
facet normal -0.811023932810813 0.362907608660514 0.4588444703648386
outer loop
vertex -2.5 2.5 0
vertex -5.5557 8.3147 -10
vertex -2.50007 2.49997 -0.0001
endloop
endfacet
facet normal 0.5773502691769584 0.5773502691822664 -0.5773502692096524
outer loop
vertex -2.5 2.5 0
vertex -2.50007 2.49997 -0.0001
vertex -2.50008 2.49998 -0.0001
endloop
endfacet
facet normal 0.5773502691769584 0.5773502691822664 0.5773502692096524
outer loop
vertex -2.5 2.5 0
vertex -2.50008 2.49998 0.0001
vertex -2.50007 2.49997 0.0001
endloop
endfacet
facet normal -0.39391929858126246 0.9191450300171601 0
outer loop
vertex -2.5 2.5 0
vertex -2.50007 2.49997 -0.0001
vertex -2.50007 2.49997 0.0001
endloop
endfacet
facet normal -0.5773502691769584 -0.5773502691822664 -0.5773502692096524
outer loop
vertex -2.5 2.5 0
vertex -2.50007 2.49997 0.0001
vertex -2.50008 2.49998 0.0001
endloop
endfacet
facet normal 0.24253562503732792 -0.9701425001450833 0
outer loop
vertex -2.5 2.5 0
vertex -2.50008 2.49998 0.0001
vertex -2.50008 2.49998 -0.0001
endloop
endfacet
facet normal 0.7344508080196163 -0.4646813223946468 -0.4946243819474483
outer loop
vertex -2.5 2.5 0
vertex -2.50008 2.49998 -0.0001
vertex -5.5557 8.3147 -10
endloop
endfacet
facet normal -0.5335216893046 0.6500991149469786 0.5410413549690272
outer loop
vertex -2.5 2.5 0
vertex -5.5557 8.3147 -10
vertex -7.07107 7.07107 -10
endloop
endfacet
facet normal -0.754591869050096 0.3937627658216216 0.5249209420626972
outer loop
vertex -2.5 2.5 0
vertex -7.07107 7.07107 -10
vertex -2.50008 2.49998 -0.0001
endloop
endfacet
facet normal -0.5773502691769584 -0.5773502691822664 0.5773502692096524
outer loop
vertex -2.5 2.5 0
vertex -2.50008 2.49998 -0.0001
vertex -2.50007 2.49997 -0.0001
endloop
endfacet
facet normal 0.5773502691769584 0.5773502691822664 0.5773502692096524
outer loop
vertex -2.5 2.5 0
vertex -2.50008 2.49998 0.0001
vertex -2.50007 2.49997 0.0001
endloop
endfacet
facet normal -0.39391929858126246 0.9191450300171601 0
outer loop
vertex -2.5 2.5 0
vertex -2.50007 2.49997 -0.0001
vertex -2.50007 2.49997 0.0001
endloop
endfacet
facet normal -0.5773502691769584 -0.5773502691822664 -0.5773502692096524
outer loop
vertex -2.5 2.5 0
vertex -2.50007 2.49997 0.0001
vertex -2.50008 2.49998 0.0001
endloop
endfacet
facet normal 0.24253562503732792 -0.9701425001450833 0
outer loop
vertex -2.5 2.5 0
vertex -2.50008 2.49998 0.0001
vertex -2.50008 2.49998 -0.0001
endloop
endfacet
facet normal 0.6706365792408133 -0.6159681537186743 -0.41331563264482024
outer loop
vertex -2.5 2.5 0
vertex -2.50008 2.49998 -0.0001
vertex -1.9509 9.80785 -10
endloop
endfacet
facet normal -0.23966413064874226 0.7900766762286181 0.5642162264238081
outer loop
vertex -2.5 2.5 0
vertex -1.9509 9.80785 -10
vertex -3.82683 9.2388 -10
endloop
endfacet
facet normal -0.7868354825272613 0.45835744181128074 0.4132776052150783
outer loop
vertex -2.5 2.5 0
vertex -3.82683 9.2388 -10
vertex -2.50007 2.49997 -0.0001
endloop
endfacet
facet normal 0.5773502691769584 0.5773502691822664 -0.5773502692096524
outer loop
vertex -2.5 2.5 0
vertex -2.50007 2.49997 -0.0001
vertex -2.50008 2.49998 -0.0001
endloop
endfacet
facet normal 0.5773502691769584 0.5773502691822664 0.5773502692096524
outer loop
vertex -2.5 2.5 0
vertex -2.50008 2.49998 0.0001
vertex -2.50007 2.49997 0.0001
endloop
endfacet
facet normal -0.39391929858126246 0.9191450300171601 0
outer loop
vertex -2.5 2.5 0
vertex -2.50007 2.49997 -0.0001
vertex -2.50007 2.49997 0.0001
endloop
endfacet
facet normal -0.5773502691769584 -0.5773502691822664 -0.5773502692096524
outer loop
vertex -2.5 2.5 0
vertex -2.50007 2.49997 0.0001
vertex -2.50008 2.49998 0.0001
endloop
endfacet
facet normal 0.24253562503732792 -0.9701425001450833 0
outer loop
vertex -2.5 2.5 0
vertex -2.50008 2.49998 0.0001
vertex -2.50008 2.49998 -0.0001
endloop
endfacet
facet normal 0.6253926177436377 -0.6912234196086811 -0.36206941027410955
outer loop
vertex -2.5 2.5 0
vertex -2.50008 2.49998 -0.0001
vertex 0 10 -10
endloop
endfacet
facet normal -0.07947450400152895 0.8069050734144297 0.5853101790604401
outer loop
vertex -2.5 2.5 0
vertex 0 10 -10
vertex -1.9509 9.80785 -10
endloop
endfacet
facet normal -0.7522760616556553 0.5509400327945345 0.3613112333213762
outer loop
vertex -2.5 2.5 0
vertex -1.9509 9.80785 -10
vertex -2.50007 2.49997 -0.0001
endloop
endfacet
facet normal 0.5773502691769584 0.5773502691822664 -0.5773502692096524
outer loop
vertex -2.5 2.5 0
vertex -2.50007 2.49997 -0.0001
vertex -2.50008 2.49998 -0.0001
endloop
endfacet
facet normal 0.5773502691769584 0.5773502691822664 0.5773502692096524
outer loop
vertex -2.5 2.5 0
vertex -2.50008 2.49998 0.0001
vertex -2.50007 2.49997 0.0001
endloop
endfacet
facet normal 0.6181190761336659 0.618119076214994 -0.485651742855707
outer loop
vertex -9.80785 1.9509 -10
vertex -2.50008 2.49998 -0.0001
vertex -2.50007 2.49997 -0.0001
endloop
endfacet
facet normal -0.8006531013517636 -0.10056756999444802 0.5906274419303713
outer loop
vertex -9.80785 1.9509 -10
vertex -2.50007 2.49997 -0.0001
vertex -2.5 2.5 0
endloop
endfacet
facet normal 0.16390528019679293 -0.9842836465622012 -0.0657325051540438
outer loop
vertex -9.80785 1.9509 -10
vertex -2.5 2.5 0
vertex -2.50008 2.49998 0.0001
endloop
endfacet
facet normal 0.618121991840005 0.6181219919672972 -0.4856443207226099
outer loop
vertex -9.80785 1.9509 -10
vertex -2.50008 2.49998 0.0001
vertex -2.50007 2.49997 0.0001
endloop
endfacet
facet normal -0.15205473226169228 0.9867306006759409 0.05693926664896588
outer loop
vertex -9.80785 1.9509 -10
vertex -2.50007 2.49997 0.0001
vertex -2.50008 2.49998 -0.0001
endloop
endfacet
facet normal 0.6181190761336659 0.618119076214994 -0.485651742855707
outer loop
vertex -9.80785 1.9509 -10
vertex -2.50008 2.49998 -0.0001
vertex -2.50007 2.49997 -0.0001
endloop
endfacet
facet normal -0.8006531013517636 -0.10056756999444802 0.5906274419303713
outer loop
vertex -9.80785 1.9509 -10
vertex -2.50007 2.49997 -0.0001
vertex -2.5 2.5 0
endloop
endfacet
facet normal 0.16390528019679293 -0.9842836465622012 -0.0657325051540438
outer loop
vertex -9.80785 1.9509 -10
vertex -2.5 2.5 0
vertex -2.50008 2.49998 0.0001
endloop
endfacet
facet normal 0.618121991840005 0.6181219919672972 -0.4856443207226099
outer loop
vertex -9.80785 1.9509 -10
vertex -2.50008 2.49998 0.0001
vertex -2.50007 2.49997 0.0001
endloop
endfacet
facet normal -0.2389657556467543 0.9633671034538538 0.12173410208773794
outer loop
vertex -9.80785 1.9509 -10
vertex -2.50007 2.49997 0.0001
vertex -2.5 2.5 0
endloop
endfacet
facet normal 0.8006531013517636 0.10056756999444802 -0.5906274419303713
outer loop
vertex -9.80785 1.9509 -10
vertex -2.5 2.5 0
vertex -2.50007 2.49997 -0.0001
endloop
endfacet
facet normal 0.0749238082877892 -0.9971892613499479 0
outer loop
vertex -9.80785 1.9509 -10
vertex -2.50007 2.49997 -0.0001
vertex -2.50007 2.49997 0.0001
endloop
endfacet
facet normal -0.618121991840005 -0.6181219919672972 0.4856443207226099
outer loop
vertex -9.80785 1.9509 -10
vertex -2.50007 2.49997 0.0001
vertex -2.50008 2.49998 0.0001
endloop
endfacet
facet normal -0.07492526713818508 0.9971891517381603 0
outer loop
vertex -9.80785 1.9509 -10
vertex -2.50008 2.49998 0.0001
vertex -2.50008 2.49998 -0.0001
endloop
endfacet
facet normal -0.39391929858126246 0.9191450300171601 0
outer loop
vertex -2.5 2.5 0
vertex -2.50007 2.49997 -0.0001
vertex -2.50007 2.49997 0.0001
endloop
endfacet
facet normal -0.5773502691769584 -0.5773502691822664 -0.5773502692096524
outer loop
vertex -2.5 2.5 0
vertex -2.50007 2.49997 0.0001
vertex -2.50008 2.49998 0.0001
endloop
endfacet
facet normal 0.24253562503732792 -0.9701425001450833 0
outer loop
vertex -2.5 2.5 0
vertex -2.50008 2.49998 0.0001
vertex -2.50008 2.49998 -0.0001
endloop
endfacet
facet normal 0.7742514364212201 -0.29351842797919403 -0.5606974635543664
outer loop
vertex -2.5 2.5 0
vertex -2.50008 2.49998 -0.0001
vertex -9.2388 3.82683 -10
endloop
endfacet
facet normal -0.7900766762286178 0.23966413064874284 0.5642162264238083
outer loop
vertex -2.5 2.5 0
vertex -9.2388 3.82683 -10
vertex -9.80785 1.9509 -10
endloop
endfacet
facet normal -0.7616027138299808 0.3633216062104374 0.5366178498218972
outer loop
vertex -2.5 2.5 0
vertex -9.80785 1.9509 -10
vertex -2.50008 2.49998 -0.0001
endloop
endfacet
facet normal -0.5773502691769584 -0.5773502691822664 0.5773502692096524
outer loop
vertex -2.5 2.5 0
vertex -2.50008 2.49998 -0.0001
vertex -2.50007 2.49997 -0.0001
endloop
endfacet
facet normal 0.5773502691769584 0.5773502691822664 0.5773502692096524
outer loop
vertex -2.5 2.5 0
vertex -2.50008 2.49998 0.0001
vertex -2.50007 2.49997 0.0001
endloop
endfacet
facet normal 0.5773502691893284 0.5773502691883731 -0.5773502691911758
outer loop
vertex -10 0 -10
vertex -2.50008 2.49998 -0.0001
vertex -2.50007 2.49997 -0.0001
endloop
endfacet
facet normal -0.5773502692525772 -0.5773502690788505 0.5773502692374498
outer loop
vertex -10 0 -10
vertex -2.50007 2.49997 -0.0001
vertex -2.5 2.5 0
endloop
endfacet
facet normal 0.2786765050008956 -0.9598857394448813 0.030964056110906742
outer loop
vertex -10 0 -10
vertex -2.5 2.5 0
vertex -2.50008 2.49998 0.0001
endloop
endfacet
facet normal 0.5773541181653523 0.5773541181252846 -0.5773425712012613
outer loop
vertex -10 0 -10
vertex -2.50008 2.49998 0.0001
vertex -2.50007 2.49997 0.0001
endloop
endfacet
facet normal -0.3162270070634262 0.948683551034647 0
outer loop
vertex -10 0 -10
vertex -2.50007 2.49997 0.0001
vertex -2.50007 2.49997 -0.0001
endloop
endfacet
facet normal -0.5773502691893284 -0.5773502691883731 0.5773502691911758
outer loop
vertex -10 0 -10
vertex -2.50007 2.49997 -0.0001
vertex -2.50008 2.49998 -0.0001
endloop
endfacet
facet normal 0.5773502691260793 0.5773502692978956 -0.5773502691449023
outer loop
vertex -10 0 -10
vertex -2.50008 2.49998 -0.0001
vertex -2.5 2.5 0
endloop
endfacet
facet normal 0.2786765050008956 -0.9598857394448813 0.030964056110906742
outer loop
vertex -10 0 -10
vertex -2.5 2.5 0
vertex -2.50008 2.49998 0.0001
endloop
endfacet
facet normal 0.5773541181653523 0.5773541181252846 -0.5773425712012613
outer loop
vertex -10 0 -10
vertex -2.50008 2.49998 0.0001
vertex -2.50007 2.49997 0.0001
endloop
endfacet
facet normal -0.806910392768659 0.07947502792070289 0.5853027746209069
outer loop
vertex -10 0 -10
vertex -2.50007 2.49997 0.0001
vertex -9.80785 1.9509 -10
endloop
endfacet
facet normal -0.7371235394587283 0.3940006263130312 0.5490103769882461
outer loop
vertex -8.3147 5.5557 -10
vertex -9.2388 3.82683 -10
vertex -2.50008 2.49998 -0.0001
endloop
endfacet
facet normal 0.6940233896251872 0.6940233897226664 -0.19147602766671754
outer loop
vertex -8.3147 5.5557 -10
vertex -2.50008 2.49998 -0.0001
vertex -2.50007 2.49997 -0.0001
endloop
endfacet
facet normal -0.8305832413881882 0.16257250457838274 0.5326365175991997
outer loop
vertex -8.3147 5.5557 -10
vertex -2.50007 2.49997 -0.0001
vertex -2.5 2.5 0
endloop
endfacet
facet normal -0.07373787353198125 -0.9649205280794478 -0.251974404449859
outer loop
vertex -8.3147 5.5557 -10
vertex -2.5 2.5 0
vertex -2.50008 2.49998 0.0001
endloop
endfacet
facet normal 0.6940238985040001 0.6940238986284306 -0.19147233857114512
outer loop
vertex -8.3147 5.5557 -10
vertex -2.50008 2.49998 0.0001
vertex -2.50007 2.49997 0.0001
endloop
endfacet
facet normal 0.004159724080286676 0.957012858382679 0.2900156643800298
outer loop
vertex -8.3147 5.5557 -10
vertex -2.50007 2.49997 0.0001
vertex -2.5 2.5 0
endloop
endfacet
facet normal 0.8305832413881882 -0.16257250457838274 -0.5326365175991997
outer loop
vertex -8.3147 5.5557 -10
vertex -2.5 2.5 0
vertex -2.50007 2.49997 -0.0001
endloop
endfacet
facet normal -0.4651977686123561 -0.885206775888032 0
outer loop
vertex -8.3147 5.5557 -10
vertex -2.50007 2.49997 -0.0001
vertex -2.50007 2.49997 0.0001
endloop
endfacet
facet normal -0.6940238985040001 -0.6940238986284306 0.19147233857114512
outer loop
vertex -8.3147 5.5557 -10
vertex -2.50007 2.49997 0.0001
vertex -2.50008 2.49998 0.0001
endloop
endfacet
facet normal 0.4651972025983957 0.8852070733419538 0
outer loop
vertex -8.3147 5.5557 -10
vertex -2.50008 2.49998 0.0001
vertex -2.50008 2.49998 -0.0001
endloop
endfacet
facet normal -0.6500986659007457 0.5335213207824793 0.5410422579287031
outer loop
vertex -7.07107 7.07107 -10
vertex -8.3147 5.5557 -10
vertex -2.50008 2.49998 -0.0001
endloop
endfacet
facet normal 0.7071067811443329 0.7071067811934064 0.000007071110553936816
outer loop
vertex -7.07107 7.07107 -10
vertex -2.50008 2.49998 -0.0001
vertex -2.50007 2.49997 -0.0001
endloop
endfacet
facet normal -0.8255042062167569 0.26483600490782144 0.4984021428755163
outer loop
vertex -7.07107 7.07107 -10
vertex -2.50007 2.49997 -0.0001
vertex -2.5 2.5 0
endloop
endfacet
facet normal -0.18875513401727165 -0.9229052505896965 -0.3355851573238767
outer loop
vertex -7.07107 7.07107 -10
vertex -2.5 2.5 0
vertex -2.50008 2.49998 0.0001
endloop
endfacet
facet normal 0.7071067811934065 0.7071067811443341 0.000007070969133139946
outer loop
vertex -7.07107 7.07107 -10
vertex -2.50008 2.49998 0.0001
vertex -2.50007 2.49997 0.0001
endloop
endfacet
facet normal 0.12528428950696316 0.9227299126278737 0.3645179764353085
outer loop
vertex -7.07107 7.07107 -10
vertex -2.50007 2.49997 0.0001
vertex -2.5 2.5 0
endloop
endfacet
facet normal 0.8255042062167569 -0.26483600490782144 -0.4984021428755163
outer loop
vertex -7.07107 7.07107 -10
vertex -2.5 2.5 0
vertex -2.50007 2.49997 -0.0001
endloop
endfacet
facet normal -0.7071145157603369 -0.7070990465281537 0
outer loop
vertex -7.07107 7.07107 -10
vertex -2.50007 2.49997 -0.0001
vertex -2.50007 2.49997 0.0001
endloop
endfacet
facet normal -0.7071067811934065 -0.7071067811443341 -0.000007070969133139946
outer loop
vertex -7.07107 7.07107 -10
vertex -2.50007 2.49997 0.0001
vertex -2.50008 2.49998 0.0001
endloop
endfacet
facet normal 0.7071145157826254 0.7070990465058646 0
outer loop
vertex -7.07107 7.07107 -10
vertex -2.50008 2.49998 0.0001
vertex -2.50008 2.49998 -0.0001
endloop
endfacet
facet normal -0.6500991149469789 -0.5335216893046005 0.5410413549690261
outer loop
vertex -2.5 -2.5 0
vertex -8.3147 -5.5557 -10
vertex -7.07107 -7.07107 -10
endloop
endfacet
facet normal -0.7371236936922607 -0.3940007087525477 0.549010110744755
outer loop
vertex -2.5 -2.5 0
vertex -9.2388 -3.82683 -10
vertex -8.3147 -5.5557 -10
endloop
endfacet
facet normal -0.7900766762286178 -0.23966413064874284 0.5642162264238083
outer loop
vertex -2.5 -2.5 0
vertex -9.80785 -1.9509 -10
vertex -9.2388 -3.82683 -10
endloop
endfacet
facet normal -0.80690507341443 -0.07947450400152867 0.5853101790604401
outer loop
vertex -2.5 -2.5 0
vertex -10 0 -10
vertex -9.80785 -1.9509 -10
endloop
endfacet
facet normal 0.3940007087525482 -0.7371236936922606 0.5490101107447548
outer loop
vertex 3.82683 -9.2388 -10
vertex 5.5557 -8.3147 -10
vertex 2.5 -2.5 0
endloop
endfacet
facet normal 0.5335216893045999 -0.6500991149469786 0.5410413549690274
outer loop
vertex 5.5557 -8.3147 -10
vertex 7.07107 -7.07107 -10
vertex 2.5 -2.5 0
endloop
endfacet
facet normal 0.23966413064874226 -0.7900766762286181 0.5642162264238081
outer loop
vertex 1.9509 -9.80785 -10
vertex 3.82683 -9.2388 -10
vertex 2.5 -2.5 0
endloop
endfacet
facet normal 0.07947450400152865 -0.8069050734144297 0.5853101790604402
outer loop
vertex 0 -10 -10
vertex 1.9509 -9.80785 -10
vertex 2.5 -2.5 0
endloop
endfacet
facet normal 0 -0.9913121546248796 0.1315302706337162
outer loop
vertex 2.5 -2.5 0
vertex 9.23879 -3.82683 -10
vertex 9.2388 -3.82683 -10
endloop
endfacet
facet normal 0 0.9913121546248796 -0.1315302706337162
outer loop
vertex 2.5 -2.5 0
vertex 9.2388 -3.82683 -10
vertex 9.23879 -3.82683 -10
endloop
endfacet
facet normal 0.7900759818237046 -0.23966813165555095 0.5642154992678301
outer loop
vertex 2.5 -2.5 0
vertex 9.23879 -3.82683 -10
vertex 9.80785 -1.9509 -10
endloop
endfacet
facet normal 0.80690507341443 -0.07947450400152867 0.5853101790604401
outer loop
vertex 2.5 -2.5 0
vertex 9.80785 -1.9509 -10
vertex 10 0 -10
endloop
endfacet
facet normal 0.7371236936922607 -0.3940007087525477 0.549010110744755
outer loop
vertex 2.5 -2.5 0
vertex 8.3147 -5.5557 -10
vertex 9.2388 -3.82683 -10
endloop
endfacet
facet normal 0 0.9913121546248796 -0.1315302706337162
outer loop
vertex 2.5 -2.5 0
vertex 9.2388 -3.82683 -10
vertex 9.23879 -3.82683 -10
endloop
endfacet
facet normal 0 -0.9913121546248796 0.1315302706337162
outer loop
vertex 2.5 -2.5 0
vertex 9.23879 -3.82683 -10
vertex 9.2388 -3.82683 -10
endloop
endfacet
facet normal 0 0.9913121546248796 -0.1315302706337162
outer loop
vertex 2.5 -2.5 0
vertex 9.2388 -3.82683 -10
vertex 9.23879 -3.82683 -10
endloop
endfacet
facet normal 0.6500991149469789 -0.5335216893046005 0.5410413549690261
outer loop
vertex 2.5 -2.5 0
vertex 7.07107 -7.07107 -10
vertex 8.3147 -5.5557 -10
endloop
endfacet
facet normal -0.39400070875254833 -0.7371236936922607 0.5490101107447548
outer loop
vertex -2.5 -2.5 0
vertex -5.5557 -8.3147 -10
vertex -3.82683 -9.2388 -10
endloop
endfacet
facet normal -0.5335216893046 -0.6500991149469786 0.5410413549690272
outer loop
vertex -2.5 -2.5 0
vertex -7.07107 -7.07107 -10
vertex -5.5557 -8.3147 -10
endloop
endfacet
facet normal -0.23966413064874226 -0.7900766762286181 0.5642162264238081
outer loop
vertex -2.5 -2.5 0
vertex -3.82683 -9.2388 -10
vertex -1.9509 -9.80785 -10
endloop
endfacet
facet normal 0 0 -1
outer loop
vertex 5.5557 8.3147 -10
vertex 7.07107 7.07107 -10
vertex 8.3147 5.5557 -10
endloop
endfacet
facet normal 0 0 -1
outer loop
vertex 8.3147 5.5557 -10
vertex 9.2388 3.82683 -10
vertex 9.23879 3.82683 -10
endloop
endfacet
facet normal 0 0 1
outer loop
vertex 8.3147 5.5557 -10
vertex 9.23879 3.82683 -10
vertex 9.2388 3.82683 -10
endloop
endfacet
facet normal 9.477271498440389e-15 0 -1
outer loop
vertex 8.3147 5.5557 -10
vertex 9.2388 3.82683 -10
vertex 9.80785 1.9509 -10
endloop
endfacet
facet normal 0 0 -1
outer loop
vertex 9.80785 1.9509 -10
vertex 10 0 -10
vertex 9.80785 -1.9509 -10
endloop
endfacet
facet normal 0 0 1
outer loop
vertex 9.80785 -1.9509 -10
vertex 9.23879 -3.82683 -10
vertex 9.2388 -3.82683 -10
endloop
endfacet
facet normal 0 0 -1
outer loop
vertex 9.80785 -1.9509 -10
vertex 9.2388 -3.82683 -10
vertex 9.23879 -3.82683 -10
endloop
endfacet
facet normal 0 0 1
outer loop
vertex 9.80785 -1.9509 -10
vertex 9.23879 -3.82683 -10
vertex 9.2388 -3.82683 -10
endloop
endfacet
facet normal 9.477271498440395e-15 0 -1
outer loop
vertex 9.80785 -1.9509 -10
vertex 9.2388 -3.82683 -10
vertex 8.3147 -5.5557 -10
endloop
endfacet
facet normal 0 0 -1
outer loop
vertex 8.3147 -5.5557 -10
vertex 7.07107 -7.07107 -10
vertex 5.5557 -8.3147 -10
endloop
endfacet
facet normal 0 0 -1
outer loop
vertex 5.5557 -8.3147 -10
vertex 3.82683 -9.2388 -10
vertex 1.9509 -9.80785 -10
endloop
endfacet
facet normal 0 0 -1
outer loop
vertex 1.9509 -9.80785 -10
vertex 0 -10 -10
vertex -1.9509 -9.80785 -10
endloop
endfacet
facet normal 0 0 -1
outer loop
vertex -1.9509 -9.80785 -10
vertex -3.82683 -9.2388 -10
vertex -5.5557 -8.3147 -10
endloop
endfacet
facet normal 0 0 -1
outer loop
vertex -5.5557 -8.3147 -10
vertex -7.07107 -7.07107 -10
vertex -8.3147 -5.5557 -10
endloop
endfacet
facet normal -9.477271498440389e-15 0 -1
outer loop
vertex -8.3147 -5.5557 -10
vertex -9.2388 -3.82683 -10
vertex -9.80785 -1.9509 -10
endloop
endfacet
facet normal 0 0 -1
outer loop
vertex -9.80785 -1.9509 -10
vertex -10 0 -10
vertex -9.80785 1.9509 -10
endloop
endfacet
facet normal -9.477271498440395e-15 0 -1
outer loop
vertex -9.80785 1.9509 -10
vertex -9.2388 3.82683 -10
vertex -8.3147 5.5557 -10
endloop
endfacet
facet normal 0 0 -1
outer loop
vertex -8.3147 5.5557 -10
vertex -7.07107 7.07107 -10
vertex -5.5557 8.3147 -10
endloop
endfacet
facet normal 0 0 -1
outer loop
vertex -5.5557 8.3147 -10
vertex -3.82683 9.2388 -10
vertex -1.9509 9.80785 -10
endloop
endfacet
facet normal 0 0 -1
outer loop
vertex -1.9509 9.80785 -10
vertex 0 10 -10
vertex 1.9509 9.80785 -10
endloop
endfacet
facet normal 0 0 -1
outer loop
vertex 1.9509 9.80785 -10
vertex 3.82683 9.2388 -10
vertex 5.5557 8.3147 -10
endloop
endfacet
facet normal 0 0 -0.9999999999999999
outer loop
vertex 5.5557 8.3147 -10
vertex 8.3147 5.5557 -10
vertex 9.80785 1.9509 -10
endloop
endfacet
facet normal 0 0 -1
outer loop
vertex 9.80785 1.9509 -10
vertex 9.80785 -1.9509 -10
vertex 8.3147 -5.5557 -10
endloop
endfacet
facet normal 0 0 -1
outer loop
vertex 8.3147 -5.5557 -10
vertex 5.5557 -8.3147 -10
vertex 1.9509 -9.80785 -10
endloop
endfacet
facet normal 0 0 -1
outer loop
vertex 1.9509 -9.80785 -10
vertex -1.9509 -9.80785 -10
vertex -5.5557 -8.3147 -10
endloop
endfacet
facet normal 0 0 -0.9999999999999999
outer loop
vertex -5.5557 -8.3147 -10
vertex -8.3147 -5.5557 -10
vertex -9.80785 -1.9509 -10
endloop
endfacet
facet normal 0 0 -1
outer loop
vertex -9.80785 -1.9509 -10
vertex -9.80785 1.9509 -10
vertex -8.3147 5.5557 -10
endloop
endfacet
facet normal 0 0 -1
outer loop
vertex -8.3147 5.5557 -10
vertex -5.5557 8.3147 -10
vertex -1.9509 9.80785 -10
endloop
endfacet
facet normal 0 0 -1
outer loop
vertex -1.9509 9.80785 -10
vertex 1.9509 9.80785 -10
vertex 5.5557 8.3147 -10
endloop
endfacet
facet normal 0 0 -1
outer loop
vertex 5.5557 8.3147 -10
vertex 9.80785 1.9509 -10
vertex 8.3147 -5.5557 -10
endloop
endfacet
facet normal 0 0 -0.9999999999999999
outer loop
vertex 8.3147 -5.5557 -10
vertex 1.9509 -9.80785 -10
vertex -5.5557 -8.3147 -10
endloop
endfacet
facet normal 0 0 -1
outer loop
vertex -5.5557 -8.3147 -10
vertex -9.80785 -1.9509 -10
vertex -8.3147 5.5557 -10
endloop
endfacet
facet normal 0 0 -0.9999999999999999
outer loop
vertex -8.3147 5.5557 -10
vertex -1.9509 9.80785 -10
vertex 5.5557 8.3147 -10
endloop
endfacet
facet normal 0 0 -1
outer loop
vertex 5.5557 8.3147 -10
vertex 8.3147 -5.5557 -10
vertex -5.5557 -8.3147 -10
endloop
endfacet
facet normal 0 0 -1
outer loop
vertex -5.5557 -8.3147 -10
vertex -8.3147 5.5557 -10
vertex 5.5557 8.3147 -10
endloop
endfacet
facet normal -0.07947450400152895 -0.8069050734144297 0.5853101790604401
outer loop
vertex -2.5 -2.5 0
vertex -1.9509 -9.80785 -10
vertex 0 -10 -10
endloop
endfacet
facet normal -0.39391929858126246 0.9191450300171601 0
outer loop
vertex -2.5 2.5 0
vertex -2.50007 2.49997 -0.0001
vertex -2.50007 2.49997 0.0001
endloop
endfacet
facet normal -0.5773502691769584 -0.5773502691822664 -0.5773502692096524
outer loop
vertex -2.5 2.5 0
vertex -2.50007 2.49997 0.0001
vertex -2.50008 2.49998 0.0001
endloop
endfacet
facet normal 0.24253562503732792 -0.9701425001450833 0
outer loop
vertex -2.5 2.5 0
vertex -2.50008 2.49998 0.0001
vertex -2.50008 2.49998 -0.0001
endloop
endfacet
facet normal 0.5773502691908688 0.5773502691871395 -0.5773502691908688
outer loop
vertex -2.5 2.5 0
vertex -2.50008 2.49998 -0.0001
vertex 0 10 10
endloop
endfacet
facet normal 8.000071040893753e-7 0.7999999039988813 -0.6000001280009369
outer loop
vertex -2.5 2.5 0
vertex 0 10 10
vertex 2.49998 2.50007 0.0001
endloop
endfacet
facet normal 0 -0.8192331392371243 0.5734606033335563
outer loop
vertex -2.5 2.5 0
vertex 2.49998 2.50007 0.0001
vertex 2.49997 2.50007 0.0001
endloop
endfacet
facet normal 0 0.8192319205201439 -0.5734623443617519
outer loop
vertex -2.5 2.5 0
vertex 2.49997 2.50007 0.0001
vertex 2.5 2.5 0
endloop
endfacet
facet normal 0 0.8192319205201439 0.5734623443617519
outer loop
vertex -2.5 2.5 0
vertex 2.5 2.5 0
vertex 2.49997 2.50007 -0.0001
endloop
endfacet
facet normal 0 -0.8192331392371243 -0.5734606033335563
outer loop
vertex -2.5 2.5 0
vertex 2.49997 2.50007 -0.0001
vertex 2.49998 2.50007 -0.0001
endloop
endfacet
facet normal 0 -0.8192319205177064 -0.5734623443652339
outer loop
vertex -2.5 2.5 0
vertex 2.49998 2.50007 -0.0001
vertex 2.5 2.5 0
endloop
endfacet
facet normal 0 0.8192319205201439 0.5734623443617519
outer loop
vertex -2.5 2.5 0
vertex 2.5 2.5 0
vertex 2.49997 2.50007 -0.0001
endloop
endfacet
facet normal 0.000014000083999134876 -0.9999999999019987 0
outer loop
vertex -2.5 2.5 0
vertex 2.49997 2.50007 -0.0001
vertex 2.49997 2.50007 0.0001
endloop
endfacet
facet normal 0 0.8192331392371243 -0.5734606033335563
outer loop
vertex -2.5 2.5 0
vertex 2.49997 2.50007 0.0001
vertex 2.49998 2.50007 0.0001
endloop
endfacet
facet normal -0.000014000055998854886 0.9999999999019993 0
outer loop
vertex -2.5 2.5 0
vertex 2.49998 2.50007 0.0001
vertex 2.49998 2.50007 -0.0001
endloop
endfacet
facet normal -0.39391929858126246 0.9191450300171601 0
outer loop
vertex -2.5 2.5 0
vertex -2.50007 2.49997 -0.0001
vertex -2.50007 2.49997 0.0001
endloop
endfacet
facet normal 0.3155972015482742 -0.9467916046466839 -0.06311944031322915
outer loop
vertex -2.5 2.5 0
vertex -2.50007 2.49997 0.0001
vertex -2.50008 2.49998 -0.0001
endloop
endfacet
facet normal -0.24253562503732792 0.9701425001450833 0
outer loop
vertex -2.5 2.5 0
vertex -2.50008 2.49998 -0.0001
vertex -2.50008 2.49998 0.0001
endloop
endfacet
facet normal -0.8000000960006093 -8.000072963202071e-7 -0.599999871998633
outer loop
vertex -2.5 -2.5 0
vertex -10 0 10
vertex -2.50008 2.49998 0.0001
endloop
endfacet
facet normal 0.0000200003999998158 0.000020000400000183565 -0.999999999599984
outer loop
vertex -2.5 -2.5 0
vertex -2.50008 2.49998 0.0001
vertex -2.50007 2.49997 0.0001
endloop
endfacet
facet normal -0.8192319205189849 0 -0.573462344363408
outer loop
vertex -2.5 -2.5 0
vertex -2.50007 2.49997 0.0001
vertex -2.5 2.5 0
endloop
endfacet
facet normal -0.7808688094427257 0 0.6246950475548053
outer loop
vertex -2.5 -2.5 0
vertex -2.5 2.5 0
vertex -2.50008 2.49998 -0.0001
endloop
endfacet
facet normal -0.0000200003999998158 -0.000020000400000183565 -0.999999999599984
outer loop
vertex -2.5 -2.5 0
vertex -2.50008 2.49998 -0.0001
vertex -2.50007 2.49997 -0.0001
endloop
endfacet
facet normal 0.8192319205189849 0 -0.573462344363408
outer loop
vertex -2.5 -2.5 0
vertex -2.50007 2.49997 -0.0001
vertex -2.5 2.5 0
endloop
endfacet
facet normal -0.8192319205189849 0 0.573462344363408
outer loop
vertex -2.5 -2.5 0
vertex -2.5 2.5 0
vertex -2.50007 2.49997 -0.0001
endloop
endfacet
facet normal 0.9999999999019987 0.000014000083999135572 0
outer loop
vertex -2.5 -2.5 0
vertex -2.50007 2.49997 -0.0001
vertex -2.50007 2.49997 0.0001
endloop
endfacet
facet normal -0.0000200003999998158 -0.000020000400000183565 0.999999999599984
outer loop
vertex -2.5 -2.5 0
vertex -2.50007 2.49997 0.0001
vertex -2.50008 2.49998 0.0001
endloop
endfacet
facet normal -0.999999999871999 -0.00001600006399824306 0
outer loop
vertex -2.5 -2.5 0
vertex -2.50008 2.49998 0.0001
vertex -2.50008 2.49998 -0.0001
endloop
endfacet
facet normal 0.39400046686391493 0.7371232411503265 -0.5490108919384523
outer loop
vertex 3.82683 9.2388 10
vertex 5.5557 8.3147 10
vertex 2.49998 2.50007 0.0001
endloop
endfacet
facet normal 0 0.8292792270253324 -0.5588344688942042
outer loop
vertex 3.82683 9.2388 10
vertex 2.49998 2.50007 0.0001
vertex 2.49997 2.50007 0.0001
endloop
endfacet
facet normal -0.04981371568037727 -0.8251741172728773 0.5626777673882649
outer loop
vertex 3.82683 9.2388 10
vertex 2.49997 2.50007 0.0001
vertex 2.5 2.5 0
endloop
endfacet
facet normal 0.9853973043684789 0.048282230140978766 -0.16328189978055901
outer loop
vertex 3.82683 9.2388 10
vertex 2.5 2.5 0
vertex 2.49998 2.50007 -0.0001
endloop
endfacet
facet normal 0 0.8292844065634013 -0.5588267826713278
outer loop
vertex 3.82683 9.2388 10
vertex 2.49998 2.50007 -0.0001
vertex 2.49997 2.50007 -0.0001
endloop
endfacet
facet normal -0.9708511813595464 -0.11823442157458543 0.20849125930766582
outer loop
vertex 3.82683 9.2388 10
vertex 2.49997 2.50007 -0.0001
vertex 2.5 2.5 0
endloop
endfacet
facet normal 0.9708511813595464 0.11823442157458543 -0.20849125930766582
outer loop
vertex 3.82683 9.2388 10
vertex 2.5 2.5 0
vertex 2.49997 2.50007 -0.0001
endloop
endfacet
facet normal -0.9811611252107465 0.1931912171274409 0
outer loop
vertex 3.82683 9.2388 10
vertex 2.49997 2.50007 -0.0001
vertex 2.49997 2.50007 0.0001
endloop
endfacet
facet normal 0 -0.8292792270253324 0.5588344688942042
outer loop
vertex 3.82683 9.2388 10
vertex 2.49997 2.50007 0.0001
vertex 2.49998 2.50007 0.0001
endloop
endfacet
facet normal 0.9811614011986463 -0.1931898154611399 0
outer loop
vertex 3.82683 9.2388 10
vertex 2.49998 2.50007 0.0001
vertex 2.49998 2.50007 -0.0001
endloop
endfacet
facet normal 0.533521133124681 0.6500984372386867 -0.5410427177304706
outer loop
vertex 5.5557 8.3147 10
vertex 7.07107 7.07107 10
vertex 2.49998 2.50007 0.0001
endloop
endfacet
facet normal 0 0.8644795892088973 -0.5026679220332408
outer loop
vertex 5.5557 8.3147 10
vertex 2.49998 2.50007 0.0001
vertex 2.49997 2.50007 0.0001
endloop
endfacet
facet normal -0.16257250459221667 -0.8305832413965681 0.5326365175819098
outer loop
vertex 5.5557 8.3147 10
vertex 2.49997 2.50007 0.0001
vertex 2.5 2.5 0
endloop
endfacet
facet normal 0.9653034646570706 -0.07952358365569248 -0.24872720149515554
outer loop
vertex 5.5557 8.3147 10
vertex 2.5 2.5 0
vertex 2.49998 2.50007 -0.0001
endloop
endfacet
facet normal 0 0.8644839577877743 -0.5026604089517948
outer loop
vertex 5.5557 8.3147 10
vertex 2.49998 2.50007 -0.0001
vertex 2.49997 2.50007 -0.0001
endloop
endfacet
facet normal -0.9570128583864866 0.004159724076328326 0.2900156643675221
outer loop
vertex 5.5557 8.3147 10
vertex 2.49997 2.50007 -0.0001
vertex 2.5 2.5 0
endloop
endfacet
facet normal 0.9570128583864866 -0.004159724076328326 -0.2900156643675221
outer loop
vertex 5.5557 8.3147 10
vertex 2.5 2.5 0
vertex 2.49997 2.50007 -0.0001
endloop
endfacet
facet normal -0.8852067758891897 0.4651977686101531 0
outer loop
vertex 5.5557 8.3147 10
vertex 2.49997 2.50007 -0.0001
vertex 2.49997 2.50007 0.0001
endloop
endfacet
facet normal 0 -0.8644795892088973 0.5026679220332408
outer loop
vertex 5.5557 8.3147 10
vertex 2.49997 2.50007 0.0001
vertex 2.49998 2.50007 0.0001
endloop
endfacet
facet normal 0.8852074028007167 -0.4651965756825922 0
outer loop
vertex 5.5557 8.3147 10
vertex 2.49998 2.50007 0.0001
vertex 2.49998 2.50007 -0.0001
endloop
endfacet
facet normal 0 0.8292792270253324 -0.5588344688942042
outer loop
vertex 3.82683 9.2388 10
vertex 2.49998 2.50007 0.0001
vertex 2.49997 2.50007 0.0001
endloop
endfacet
facet normal -0.04981371568037727 -0.8251741172728773 0.5626777673882649
outer loop
vertex 3.82683 9.2388 10
vertex 2.49997 2.50007 0.0001
vertex 2.5 2.5 0
endloop
endfacet
facet normal 0.9708511813595464 0.11823442157458543 -0.20849125930766582
outer loop
vertex 3.82683 9.2388 10
vertex 2.5 2.5 0
vertex 2.49997 2.50007 -0.0001
endloop
endfacet
facet normal 0 -0.8292844065634013 0.5588267826713278
outer loop
vertex 3.82683 9.2388 10
vertex 2.49997 2.50007 -0.0001
vertex 2.49998 2.50007 -0.0001
endloop
endfacet
facet normal -0.9853973043684789 -0.048282230140978766 0.16328189978055901
outer loop
vertex 3.82683 9.2388 10
vertex 2.49998 2.50007 -0.0001
vertex 2.5 2.5 0
endloop
endfacet
facet normal 0.9708511813595464 0.11823442157458543 -0.20849125930766582
outer loop
vertex 3.82683 9.2388 10
vertex 2.5 2.5 0
vertex 2.49997 2.50007 -0.0001
endloop
endfacet
facet normal -0.9811611252107465 0.1931912171274409 0
outer loop
vertex 3.82683 9.2388 10
vertex 2.49997 2.50007 -0.0001
vertex 2.49997 2.50007 0.0001
endloop
endfacet
facet normal 0 -0.8292792270253324 0.5588344688942042
outer loop
vertex 3.82683 9.2388 10
vertex 2.49997 2.50007 0.0001
vertex 2.49998 2.50007 0.0001
endloop
endfacet
facet normal 0.9811614011986463 -0.1931898154611399 0
outer loop
vertex 3.82683 9.2388 10
vertex 2.49998 2.50007 0.0001
vertex 2.49998 2.50007 -0.0001
endloop
endfacet
facet normal -0.9811614011986463 0.1931898154611399 0
outer loop
vertex 3.82683 9.2388 10
vertex 2.49998 2.50007 -0.0001
vertex 2.49998 2.50007 0.0001
endloop
endfacet
facet normal 0 0.8292792270253324 -0.5588344688942042
outer loop
vertex 3.82683 9.2388 10
vertex 2.49998 2.50007 0.0001
vertex 2.49997 2.50007 0.0001
endloop
endfacet
facet normal -0.04981371568037727 -0.8251741172728773 0.5626777673882649
outer loop
vertex 3.82683 9.2388 10
vertex 2.49997 2.50007 0.0001
vertex 2.5 2.5 0
endloop
endfacet
facet normal 0.9708511813595464 0.11823442157458543 -0.20849125930766582
outer loop
vertex 3.82683 9.2388 10
vertex 2.5 2.5 0
vertex 2.49997 2.50007 -0.0001
endloop
endfacet
facet normal 0 -0.8292844065634013 0.5588267826713278
outer loop
vertex 3.82683 9.2388 10
vertex 2.49997 2.50007 -0.0001
vertex 2.49998 2.50007 -0.0001
endloop
endfacet
facet normal 0 -0.8192319205252996 0.5734623443543866
outer loop
vertex 2.49998 2.50007 0.0001
vertex 2.49997 2.50007 0.0001
vertex 2.5 2.5 0
endloop
endfacet
facet normal 0.940699631954072 0.33596415425996157 -0.04703498159734167
outer loop
vertex 2.49998 2.50007 0.0001
vertex 2.5 2.5 0
vertex 2.49997 2.50007 -0.0001
endloop
endfacet
facet normal 0 -1 0
outer loop
vertex 2.49998 2.50007 0.0001
vertex 2.49997 2.50007 -0.0001
vertex 2.49998 2.50007 -0.0001
endloop
endfacet
facet normal 0.9971891593981889 0.07492516518989882 0
outer loop
vertex 2.49998 2.50007 0.0001
vertex 2.49998 2.50007 -0.0001
vertex 1.9509 9.80785 10
endloop
endfacet
facet normal 0.23966405073775654 0.790076412794094 -0.5642166292572263
outer loop
vertex 2.49998 2.50007 0.0001
vertex 1.9509 9.80785 10
vertex 3.82683 9.2388 10
endloop
endfacet
facet normal 0 -0.8192319205252996 0.5734623443543866
outer loop
vertex 2.49998 2.50007 0.0001
vertex 2.49997 2.50007 0.0001
vertex 2.5 2.5 0
endloop
endfacet
facet normal 0.940699631954072 0.33596415425996157 -0.04703498159734167
outer loop
vertex 2.49998 2.50007 0.0001
vertex 2.5 2.5 0
vertex 2.49997 2.50007 -0.0001
endloop
endfacet
facet normal 0 -1 0
outer loop
vertex 2.49998 2.50007 0.0001
vertex 2.49997 2.50007 -0.0001
vertex 2.49998 2.50007 -0.0001
endloop
endfacet
facet normal 0 0.8192319205200836 -0.573462344361838
outer loop
vertex 2.49997 2.50007 0.0001
vertex 2.49998 2.50007 0.0001
vertex 2.5 2.5 0
endloop
endfacet
facet normal 0.9191450300209961 0.3939192985723114 0
outer loop
vertex 2.49997 2.50007 0.0001
vertex 2.5 2.5 0
vertex 2.49997 2.50007 -0.0001
endloop
endfacet
facet normal 0 -1 0
outer loop
vertex 2.49997 2.50007 0.0001
vertex 2.49997 2.50007 -0.0001
vertex 2.49998 2.50007 -0.0001
endloop
endfacet
facet normal 0.965109503895295 0.25736171938472213 0.04825547519522193
outer loop
vertex 2.49997 2.50007 0.0001
vertex 2.49998 2.50007 -0.0001
vertex 0 10 10
endloop
endfacet
facet normal 0.07947448338535858 0.8069048640983432 -0.5853104704215234
outer loop
vertex 2.49997 2.50007 0.0001
vertex 0 10 10
vertex 1.9509 9.80785 10
endloop
endfacet
facet normal 0 0.8073849386852702 -0.590025050980196
outer loop
vertex 2.49997 2.50007 0.0001
vertex 1.9509 9.80785 10
vertex 2.49998 2.50007 0.0001
endloop
endfacet
facet normal 0.9191450300209961 0.3939192985723114 0
outer loop
vertex 2.49997 2.50007 0.0001
vertex 2.5 2.5 0
vertex 2.49997 2.50007 -0.0001
endloop
endfacet
facet normal 0 -1 0
outer loop
vertex 2.49997 2.50007 0.0001
vertex 2.49997 2.50007 -0.0001
vertex 2.49998 2.50007 -0.0001
endloop
endfacet
facet normal 0.7900742045346519 0.23966338087798808 -0.5642200060216487
outer loop
vertex 9.2388 3.82683 10
vertex 9.80785 1.9509 10
vertex 2.49998 2.50007 0.0001
endloop
endfacet
facet normal 0 0.9913128879001128 -0.13152474399571476
outer loop
vertex 9.2388 3.82683 10
vertex 2.49998 2.50007 0.0001
vertex 2.49997 2.50007 0.0001
endloop
endfacet
facet normal -0.4583574418187689 -0.7868354825184846 0.41327760522348356
outer loop
vertex 9.2388 3.82683 10
vertex 2.49997 2.50007 0.0001
vertex 2.5 2.5 0
endloop
endfacet
facet normal 0.771075867422303 -0.43881937310035235 -0.4613887346595677
outer loop
vertex 9.2388 3.82683 10
vertex 2.5 2.5 0
vertex 2.49998 2.50007 -0.0001
endloop
endfacet
facet normal 0 0.9913132308667558 -0.13152215900187345
outer loop
vertex 9.2388 3.82683 10
vertex 2.49998 2.50007 -0.0001
vertex 2.49997 2.50007 -0.0001
endloop
endfacet
facet normal -0.7958150215272548 0.35732604153107334 0.4888727355409673
outer loop
vertex 9.2388 3.82683 10
vertex 2.49997 2.50007 -0.0001
vertex 2.5 2.5 0
endloop
endfacet
facet normal 0.7958150215272548 -0.35732604153107334 -0.4888727355409673
outer loop
vertex 9.2388 3.82683 10
vertex 2.5 2.5 0
vertex 2.49997 2.50007 -0.0001
endloop
endfacet
facet normal -0.19317444080693866 0.9811644283293838 0
outer loop
vertex 9.2388 3.82683 10
vertex 2.49997 2.50007 -0.0001
vertex 2.49997 2.50007 0.0001
endloop
endfacet
facet normal 0 -0.9913128879001128 0.13152474399571476
outer loop
vertex 9.2388 3.82683 10
vertex 2.49997 2.50007 0.0001
vertex 2.49998 2.50007 0.0001
endloop
endfacet
facet normal 0.19317471676602355 -0.9811643739977347 0
outer loop
vertex 9.2388 3.82683 10
vertex 2.49998 2.50007 0.0001
vertex 2.49998 2.50007 -0.0001
endloop
endfacet
facet normal 0.806901809581289 0.07947418253680197 -0.5853147221833296
outer loop
vertex 9.80785 1.9509 10
vertex 10 0 10
vertex 2.49998 2.50007 0.0001
endloop
endfacet
facet normal 0 0.9984954337977594 0.054834922130194794
outer loop
vertex 9.80785 1.9509 10
vertex 2.49998 2.50007 0.0001
vertex 2.49997 2.50007 0.0001
endloop
endfacet
facet normal -0.5509400327934689 -0.7522760616568922 0.361311233320426
outer loop
vertex 9.80785 1.9509 10
vertex 2.49997 2.50007 0.0001
vertex 2.5 2.5 0
endloop
endfacet
facet normal 0.6623918827540733 -0.5450211218295998 -0.5139931618427609
outer loop
vertex 9.80785 1.9509 10
vertex 2.5 2.5 0
vertex 2.49998 2.50007 -0.0001
endloop
endfacet
facet normal 0 0.9984954938441017 0.05483382872847176
outer loop
vertex 9.80785 1.9509 10
vertex 2.49998 2.50007 -0.0001
vertex 2.49997 2.50007 -0.0001
endloop
endfacet
facet normal -0.701011884423286 0.4681291054263526 0.537993939138757
outer loop
vertex 9.80785 1.9509 10
vertex 2.49997 2.50007 -0.0001
vertex 2.5 2.5 0
endloop
endfacet
facet normal 0.701011884423286 -0.4681291054263526 -0.537993939138757
outer loop
vertex 9.80785 1.9509 10
vertex 2.5 2.5 0
vertex 2.49997 2.50007 -0.0001
endloop
endfacet
facet normal 0.07493635757628639 0.9971883183798327 0
outer loop
vertex 9.80785 1.9509 10
vertex 2.49997 2.50007 -0.0001
vertex 2.49997 2.50007 0.0001
endloop
endfacet
facet normal 0 -0.9984954337977594 -0.054834922130194794
outer loop
vertex 9.80785 1.9509 10
vertex 2.49997 2.50007 0.0001
vertex 2.49998 2.50007 0.0001
endloop
endfacet
facet normal -0.0749364595413657 -0.9971883107173916 0
outer loop
vertex 9.80785 1.9509 10
vertex 2.49998 2.50007 0.0001
vertex 2.49998 2.50007 -0.0001
endloop
endfacet
facet normal 0.7371219914163445 0.39399979886737774 -0.5490130492646492
outer loop
vertex 8.3147 5.5557 10
vertex 9.2388 3.82683 10
vertex 2.49998 2.50007 0.0001
endloop
endfacet
facet normal 0 0.9563487646825689 -0.2922277199208257
outer loop
vertex 8.3147 5.5557 10
vertex 2.49998 2.50007 0.0001
vertex 2.49997 2.50007 0.0001
endloop
endfacet
facet normal -0.36290760867397875 -0.8110239328091922 0.45884447035705384
outer loop
vertex 8.3147 5.5557 10
vertex 2.49997 2.50007 0.0001
vertex 2.5 2.5 0
endloop
endfacet
facet normal 0.8572885822743216 -0.3252184089328308 -0.39911060270717175
outer loop
vertex 8.3147 5.5557 10
vertex 2.5 2.5 0
vertex 2.49998 2.50007 -0.0001
endloop
endfacet
facet normal 0 0.9563503980587093 -0.29222237445642024
outer loop
vertex 8.3147 5.5557 10
vertex 2.49998 2.50007 -0.0001
vertex 2.49997 2.50007 -0.0001
endloop
endfacet
facet normal -0.8689726650310934 0.24323491751991266 0.43095624177849
outer loop
vertex 8.3147 5.5557 10
vertex 2.49997 2.50007 -0.0001
vertex 2.5 2.5 0
endloop
endfacet
facet normal 0.8689726650310934 -0.24323491751991266 -0.43095624177849
outer loop
vertex 8.3147 5.5557 10
vertex 2.5 2.5 0
vertex 2.49997 2.50007 -0.0001
endloop
endfacet
facet normal -0.46517957031340984 0.8852163392996264 0
outer loop
vertex 8.3147 5.5557 10
vertex 2.49997 2.50007 -0.0001
vertex 2.49997 2.50007 0.0001
endloop
endfacet
facet normal 0 -0.9563487646825689 0.2922277199208257
outer loop
vertex 8.3147 5.5557 10
vertex 2.49997 2.50007 0.0001
vertex 2.49998 2.50007 0.0001
endloop
endfacet
facet normal 0.46518019719535575 -0.885216009874025 0
outer loop
vertex 8.3147 5.5557 10
vertex 2.49998 2.50007 0.0001
vertex 2.49998 2.50007 -0.0001
endloop
endfacet
facet normal 0.6500980682002603 0.533520830263163 -0.5410434598048434
outer loop
vertex 7.07107 7.07107 10
vertex 8.3147 5.5557 10
vertex 2.49998 2.50007 0.0001
endloop
endfacet
facet normal 0 0.9094876416700186 -0.4157309582524591
outer loop
vertex 7.07107 7.07107 10
vertex 2.49998 2.50007 0.0001
vertex 2.49997 2.50007 0.0001
endloop
endfacet
facet normal -0.2648360048967314 -0.8255042062127502 0.4984021428880455
outer loop
vertex 7.07107 7.07107 10
vertex 2.49997 2.50007 0.0001
vertex 2.5 2.5 0
endloop
endfacet
facet normal 0.9222252525400199 -0.2049167173040862 -0.3278867526247645
outer loop
vertex 7.07107 7.07107 10
vertex 2.5 2.5 0
vertex 2.49998 2.50007 -0.0001
endloop
endfacet
facet normal 0 0.9094907853880745 -0.41572408072444345
outer loop
vertex 7.07107 7.07107 10
vertex 2.49998 2.50007 -0.0001
vertex 2.49997 2.50007 -0.0001
endloop
endfacet
facet normal -0.9227299126222945 0.1252842895201993 0.3645179764448821
outer loop
vertex 7.07107 7.07107 10
vertex 2.49997 2.50007 -0.0001
vertex 2.5 2.5 0
endloop
endfacet
facet normal 0.9227299126222945 -0.1252842895201993 -0.3645179764448821
outer loop
vertex 7.07107 7.07107 10
vertex 2.5 2.5 0
vertex 2.49997 2.50007 -0.0001
endloop
endfacet
facet normal -0.7070990465239486 0.707114515764542 0
outer loop
vertex 7.07107 7.07107 10
vertex 2.49997 2.50007 -0.0001
vertex 2.49997 2.50007 0.0001
endloop
endfacet
facet normal 0 -0.9094876416700186 0.4157309582524591
outer loop
vertex 7.07107 7.07107 10
vertex 2.49997 2.50007 0.0001
vertex 2.49998 2.50007 0.0001
endloop
endfacet
facet normal 0.7070998199891496 -0.7071137423154159 0
outer loop
vertex 7.07107 7.07107 10
vertex 2.49998 2.50007 0.0001
vertex 2.49998 2.50007 -0.0001
endloop
endfacet
facet normal 0 -0.8 -0.6
outer loop
vertex 0 -10 10
vertex -2.5 -2.5 0
vertex 2.5 -2.5 0
endloop
endfacet
facet normal 0.8 0 -0.6
outer loop
vertex 10 0 10
vertex 2.5 -2.5 0
vertex 2.5 2.5 0
endloop
endfacet
facet normal 0.577350269193269 -0.5773502691830824 -0.5773502691925257
outer loop
vertex 10 0 10
vertex 2.5 2.5 0
vertex 2.49997 2.50007 -0.0001
endloop
endfacet
facet normal 0.31623459648654206 0.9486810211999575 0
outer loop
vertex 10 0 10
vertex 2.49997 2.50007 -0.0001
vertex 2.49997 2.50007 0.0001
endloop
endfacet
facet normal -0.29824858470388615 -0.9543717311280822 -0.014912429235919891
outer loop
vertex 10 0 10
vertex 2.49997 2.50007 0.0001
vertex 2.49998 2.50007 -0.0001
endloop
endfacet
facet normal 0.3162349759664652 0.9486808947035296 0
outer loop
vertex 10 0 10
vertex 2.49998 2.50007 -0.0001
vertex 2.49998 2.50007 0.0001
endloop
endfacet
facet normal -0.6666666666715833 -0.6666666666602704 0.333333333336293
outer loop
vertex 10 0 10
vertex 2.49998 2.50007 0.0001
vertex 2.5 2.5 0
endloop
endfacet
facet normal 0.577350269193269 -0.5773502691830824 -0.5773502691925257
outer loop
vertex 10 0 10
vertex 2.5 2.5 0
vertex 2.49997 2.50007 -0.0001
endloop
endfacet
facet normal 0.31623459648654206 0.9486810211999575 0
outer loop
vertex 10 0 10
vertex 2.49997 2.50007 -0.0001
vertex 2.49997 2.50007 0.0001
endloop
endfacet
facet normal 0 -0.9701403315410444 -0.24254429928867094
outer loop
vertex 10 0 10
vertex 2.49997 2.50007 0.0001
vertex 2.49998 2.50007 0.0001
endloop
endfacet
facet normal -0.3162349759664652 -0.9486808947035296 0
outer loop
vertex 10 0 10
vertex 2.49998 2.50007 0.0001
vertex 2.49998 2.50007 -0.0001
endloop
endfacet
facet normal -0.39391929858126246 0.9191450300171601 0
outer loop
vertex -2.5 2.5 0
vertex -2.50007 2.49997 -0.0001
vertex -2.50007 2.49997 0.0001
endloop
endfacet
facet normal -0.5773502691769584 -0.5773502691822664 -0.5773502692096524
outer loop
vertex -2.5 2.5 0
vertex -2.50007 2.49997 0.0001
vertex -2.50008 2.49998 0.0001
endloop
endfacet
facet normal 0.24253562503732792 -0.9701425001450833 0
outer loop
vertex -2.5 2.5 0
vertex -2.50008 2.49998 0.0001
vertex -2.50008 2.49998 -0.0001
endloop
endfacet
facet normal 0.2974443668214565 0.8620483094977701 -0.4103651553655837
outer loop
vertex -2.5 2.5 0
vertex -2.50008 2.49998 -0.0001
vertex -5.5557 8.3147 10
endloop
endfacet
facet normal -0.39400070875254833 0.7371236936922607 -0.5490101107447548
outer loop
vertex -2.5 2.5 0
vertex -5.5557 8.3147 10
vertex -3.82683 9.2388 10
endloop
endfacet
facet normal 0.7868354825272613 -0.45835744181128074 0.4132776052150783
outer loop
vertex -2.5 2.5 0
vertex -3.82683 9.2388 10
vertex -2.50007 2.49997 0.0001
endloop
endfacet
facet normal -0.5773502691769584 -0.5773502691822664 -0.5773502692096524
outer loop
vertex -2.5 2.5 0
vertex -2.50007 2.49997 0.0001
vertex -2.50008 2.49998 0.0001
endloop
endfacet
facet normal -0.5773502691769584 -0.5773502691822664 0.5773502692096524
outer loop
vertex -2.5 2.5 0
vertex -2.50008 2.49998 -0.0001
vertex -2.50007 2.49997 -0.0001
endloop
endfacet
facet normal -0.39391929858126246 0.9191450300171601 0
outer loop
vertex -2.5 2.5 0
vertex -2.50007 2.49997 -0.0001
vertex -2.50007 2.49997 0.0001
endloop
endfacet
facet normal -0.5773502691769584 -0.5773502691822664 -0.5773502692096524
outer loop
vertex -2.5 2.5 0
vertex -2.50007 2.49997 0.0001
vertex -2.50008 2.49998 0.0001
endloop
endfacet
facet normal 0.24253562503732792 -0.9701425001450833 0
outer loop
vertex -2.5 2.5 0
vertex -2.50008 2.49998 0.0001
vertex -2.50008 2.49998 -0.0001
endloop
endfacet
facet normal 0.18875513401747634 0.9229052505890528 -0.3355851573255319
outer loop
vertex -2.5 2.5 0
vertex -2.50008 2.49998 -0.0001
vertex -7.07107 7.07107 10
endloop
endfacet
facet normal -0.5335216893046 0.6500991149469786 -0.5410413549690272
outer loop
vertex -2.5 2.5 0
vertex -7.07107 7.07107 10
vertex -5.5557 8.3147 10
endloop
endfacet
facet normal 0.811023932810813 -0.362907608660514 0.4588444703648386
outer loop
vertex -2.5 2.5 0
vertex -5.5557 8.3147 10
vertex -2.50007 2.49997 0.0001
endloop
endfacet
facet normal -0.5773502691769584 -0.5773502691822664 -0.5773502692096524
outer loop
vertex -2.5 2.5 0
vertex -2.50007 2.49997 0.0001
vertex -2.50008 2.49998 0.0001
endloop
endfacet
facet normal -0.5773502691769584 -0.5773502691822664 0.5773502692096524
outer loop
vertex -2.5 2.5 0
vertex -2.50008 2.49998 -0.0001
vertex -2.50007 2.49997 -0.0001
endloop
endfacet
facet normal -0.39391929858126246 0.9191450300171601 0
outer loop
vertex -2.5 2.5 0
vertex -2.50007 2.49997 -0.0001
vertex -2.50007 2.49997 0.0001
endloop
endfacet
facet normal -0.5773502691769584 -0.5773502691822664 -0.5773502692096524
outer loop
vertex -2.5 2.5 0
vertex -2.50007 2.49997 0.0001
vertex -2.50008 2.49998 0.0001
endloop
endfacet
facet normal 0.24253562503732792 -0.9701425001450833 0
outer loop
vertex -2.5 2.5 0
vertex -2.50008 2.49998 0.0001
vertex -2.50008 2.49998 -0.0001
endloop
endfacet
facet normal 0.3984564447361748 0.784235570693075 -0.47561226992994465
outer loop
vertex -2.5 2.5 0
vertex -2.50008 2.49998 -0.0001
vertex -3.82683 9.2388 10
endloop
endfacet
facet normal -0.23966413064874226 0.7900766762286181 -0.5642162264238081
outer loop
vertex -2.5 2.5 0
vertex -3.82683 9.2388 10
vertex -1.9509 9.80785 10
endloop
endfacet
facet normal 0.7522760616556553 -0.5509400327945345 0.3613112333213762
outer loop
vertex -2.5 2.5 0
vertex -1.9509 9.80785 10
vertex -2.50007 2.49997 0.0001
endloop
endfacet
facet normal -0.5773502691769584 -0.5773502691822664 -0.5773502692096524
outer loop
vertex -2.5 2.5 0
vertex -2.50007 2.49997 0.0001
vertex -2.50008 2.49998 0.0001
endloop
endfacet
facet normal -0.5773502691769584 -0.5773502691822664 0.5773502692096524
outer loop
vertex -2.5 2.5 0
vertex -2.50008 2.49998 -0.0001
vertex -2.50007 2.49997 -0.0001
endloop
endfacet
facet normal -0.39391929858126246 0.9191450300171601 0
outer loop
vertex -2.5 2.5 0
vertex -2.50007 2.49997 -0.0001
vertex -2.50007 2.49997 0.0001
endloop
endfacet
facet normal -0.5773502691769584 -0.5773502691822664 -0.5773502692096524
outer loop
vertex -2.5 2.5 0
vertex -2.50007 2.49997 0.0001
vertex -2.50008 2.49998 0.0001
endloop
endfacet
facet normal 0.24253562503732792 -0.9701425001450833 0
outer loop
vertex -2.5 2.5 0
vertex -2.50008 2.49998 0.0001
vertex -2.50008 2.49998 -0.0001
endloop
endfacet
facet normal 0.4915599884224462 0.690027848881129 -0.5312535605062864
outer loop
vertex -2.5 2.5 0
vertex -2.50008 2.49998 -0.0001
vertex -1.9509 9.80785 10
endloop
endfacet
facet normal -0.07947450400152895 0.8069050734144297 -0.5853101790604401
outer loop
vertex -2.5 2.5 0
vertex -1.9509 9.80785 10
vertex 0 10 10
endloop
endfacet
facet normal 0.706706267545064 -0.6394009087270354 0.3028741146608039
outer loop
vertex -2.5 2.5 0
vertex 0 10 10
vertex -2.50007 2.49997 0.0001
endloop
endfacet
facet normal -0.5773502691769584 -0.5773502691822664 -0.5773502692096524
outer loop
vertex -2.5 2.5 0
vertex -2.50007 2.49997 0.0001
vertex -2.50008 2.49998 0.0001
endloop
endfacet
facet normal -0.5773502691769584 -0.5773502691822664 0.5773502692096524
outer loop
vertex -2.5 2.5 0
vertex -2.50008 2.49998 -0.0001
vertex -2.50007 2.49997 -0.0001
endloop
endfacet
facet normal -0.6604021266110699 -0.6604021267038269 -0.357404619741602
outer loop
vertex -9.2388 3.82683 10
vertex -2.50008 2.49998 0.0001
vertex -2.50007 2.49997 0.0001
endloop
endfacet
facet normal 0.8251741172730318 -0.04981371568677943 0.5626777673874713
outer loop
vertex -9.2388 3.82683 10
vertex -2.50007 2.49997 0.0001
vertex -2.5 2.5 0
endloop
endfacet
facet normal -0.045029378692355196 0.985901045303849 -0.16115670610731062
outer loop
vertex -9.2388 3.82683 10
vertex -2.5 2.5 0
vertex -2.50008 2.49998 -0.0001
endloop
endfacet
facet normal -0.6604038137386086 -0.6604038138687425 -0.3573983847572909
outer loop
vertex -9.2388 3.82683 10
vertex -2.50008 2.49998 -0.0001
vertex -2.50007 2.49997 -0.0001
endloop
endfacet
facet normal 0.11823442157615918 -0.9708511813589807 0.2084912593094081
outer loop
vertex -9.2388 3.82683 10
vertex -2.50007 2.49997 -0.0001
vertex -2.5 2.5 0
endloop
endfacet
facet normal -0.11823442157615918 0.9708511813589807 -0.2084912593094081
outer loop
vertex -9.2388 3.82683 10
vertex -2.5 2.5 0
vertex -2.50007 2.49997 -0.0001
endloop
endfacet
facet normal -0.1931912171295076 -0.9811611252103395 0
outer loop
vertex -9.2388 3.82683 10
vertex -2.50007 2.49997 -0.0001
vertex -2.50007 2.49997 0.0001
endloop
endfacet
facet normal 0.6604021266110699 0.6604021267038269 0.357404619741602
outer loop
vertex -9.2388 3.82683 10
vertex -2.50007 2.49997 0.0001
vertex -2.50008 2.49998 0.0001
endloop
endfacet
facet normal 0.19319009145460103 0.9811613468557365 0
outer loop
vertex -9.2388 3.82683 10
vertex -2.50008 2.49998 0.0001
vertex -2.50008 2.49998 -0.0001
endloop
endfacet
facet normal -0.19319009145460103 -0.9811613468557365 0
outer loop
vertex -9.2388 3.82683 10
vertex -2.50008 2.49998 -0.0001
vertex -2.50008 2.49998 0.0001
endloop
endfacet
facet normal -0.6604021266110699 -0.6604021267038269 -0.357404619741602
outer loop
vertex -9.2388 3.82683 10
vertex -2.50008 2.49998 0.0001
vertex -2.50007 2.49997 0.0001
endloop
endfacet
facet normal 0.8251741172730318 -0.04981371568677943 0.5626777673874713
outer loop
vertex -9.2388 3.82683 10
vertex -2.50007 2.49997 0.0001
vertex -2.5 2.5 0
endloop
endfacet
facet normal -0.045029378692355196 0.985901045303849 -0.16115670610731062
outer loop
vertex -9.2388 3.82683 10
vertex -2.5 2.5 0
vertex -2.50008 2.49998 -0.0001
endloop
endfacet
facet normal -0.6604038137386086 -0.6604038138687425 -0.3573983847572909
outer loop
vertex -9.2388 3.82683 10
vertex -2.50008 2.49998 -0.0001
vertex -2.50007 2.49997 -0.0001
endloop
endfacet
facet normal 0.5773502691756544 0.5773502691809623 0.5773502692122605
outer loop
vertex -2.50008 2.49998 0.0001
vertex -2.50007 2.49997 0.0001
vertex -2.5 2.5 0
endloop
endfacet
facet normal -0.24253562503732792 0.9701425001450833 0
outer loop
vertex -2.50008 2.49998 0.0001
vertex -2.5 2.5 0
vertex -2.50008 2.49998 -0.0001
endloop
endfacet
facet normal -0.707106781183297 -0.707106781189798 0
outer loop
vertex -2.50008 2.49998 0.0001
vertex -2.50008 2.49998 -0.0001
vertex -2.50007 2.49997 -0.0001
endloop
endfacet
facet normal -0.15205473226171182 0.9867306006759577 -0.05693926664862139
outer loop
vertex -2.50008 2.49998 0.0001
vertex -2.50007 2.49997 -0.0001
vertex -9.80785 1.9509 10
endloop
endfacet
facet normal -0.7900767649933256 0.2396641575748842 -0.5642160906883128
outer loop
vertex -2.50008 2.49998 0.0001
vertex -9.80785 1.9509 10
vertex -9.2388 3.82683 10
endloop
endfacet
facet normal 0.5773502691756544 0.5773502691809623 0.5773502692122605
outer loop
vertex -2.50008 2.49998 0.0001
vertex -2.50007 2.49997 0.0001
vertex -2.5 2.5 0
endloop
endfacet
facet normal -0.24253562503732792 0.9701425001450833 0
outer loop
vertex -2.50008 2.49998 0.0001
vertex -2.5 2.5 0
vertex -2.50008 2.49998 -0.0001
endloop
endfacet
facet normal -0.707106781183297 -0.707106781189798 0
outer loop
vertex -2.50008 2.49998 0.0001
vertex -2.50008 2.49998 -0.0001
vertex -2.50007 2.49997 -0.0001
endloop
endfacet
facet normal -0.5773502691756544 -0.5773502691809623 -0.5773502692122605
outer loop
vertex -2.50007 2.49997 0.0001
vertex -2.50008 2.49998 0.0001
vertex -2.5 2.5 0
endloop
endfacet
facet normal -0.3155972015503105 0.9467916046459495 0.06311944031406413
outer loop
vertex -2.50007 2.49997 0.0001
vertex -2.5 2.5 0
vertex -2.50008 2.49998 -0.0001
endloop
endfacet
facet normal -0.707106781183297 -0.707106781189798 0
outer loop
vertex -2.50007 2.49997 0.0001
vertex -2.50008 2.49998 -0.0001
vertex -2.50007 2.49997 -0.0001
endloop
endfacet
facet normal -0.3162270070647718 0.9486835510341985 0
outer loop
vertex -2.50007 2.49997 0.0001
vertex -2.50007 2.49997 -0.0001
vertex -10 0 10
endloop
endfacet
facet normal -0.8069048640983429 0.07947448338535945 -0.5853104704215232
outer loop
vertex -2.50007 2.49997 0.0001
vertex -10 0 10
vertex -9.80785 1.9509 10
endloop
endfacet
facet normal -0.6181190761339347 -0.6181190762162855 -0.485651742853721
outer loop
vertex -2.50007 2.49997 0.0001
vertex -9.80785 1.9509 10
vertex -2.50008 2.49998 0.0001
endloop
endfacet
facet normal -0.3155972015503105 0.9467916046459495 0.06311944031406413
outer loop
vertex -2.50007 2.49997 0.0001
vertex -2.5 2.5 0
vertex -2.50008 2.49998 -0.0001
endloop
endfacet
facet normal -0.707106781183297 -0.707106781189798 0
outer loop
vertex -2.50007 2.49997 0.0001
vertex -2.50008 2.49998 -0.0001
vertex -2.50007 2.49997 -0.0001
endloop
endfacet
facet normal -0.7371235394587281 0.3940006263130312 -0.5490103769882461
outer loop
vertex -9.2388 3.82683 10
vertex -8.3147 5.5557 10
vertex -2.50008 2.49998 0.0001
endloop
endfacet
facet normal -0.6604021266110699 -0.6604021267038269 -0.357404619741602
outer loop
vertex -9.2388 3.82683 10
vertex -2.50008 2.49998 0.0001
vertex -2.50007 2.49997 0.0001
endloop
endfacet
facet normal 0.8251741172730318 -0.04981371568677943 0.5626777673874713
outer loop
vertex -9.2388 3.82683 10
vertex -2.50007 2.49997 0.0001
vertex -2.5 2.5 0
endloop
endfacet
facet normal -0.045029378692355196 0.985901045303849 -0.16115670610731062
outer loop
vertex -9.2388 3.82683 10
vertex -2.5 2.5 0
vertex -2.50008 2.49998 -0.0001
endloop
endfacet
facet normal -0.6604038137386086 -0.6604038138687425 -0.3573983847572909
outer loop
vertex -9.2388 3.82683 10
vertex -2.50008 2.49998 -0.0001
vertex -2.50007 2.49997 -0.0001
endloop
endfacet
facet normal 0.11823442157615918 -0.9708511813589807 0.2084912593094081
outer loop
vertex -9.2388 3.82683 10
vertex -2.50007 2.49997 -0.0001
vertex -2.5 2.5 0
endloop
endfacet
facet normal -0.11823442157615918 0.9708511813589807 -0.2084912593094081
outer loop
vertex -9.2388 3.82683 10
vertex -2.5 2.5 0
vertex -2.50007 2.49997 -0.0001
endloop
endfacet
facet normal -0.1931912171295076 -0.9811611252103395 0
outer loop
vertex -9.2388 3.82683 10
vertex -2.50007 2.49997 -0.0001
vertex -2.50007 2.49997 0.0001
endloop
endfacet
facet normal 0.6604021266110699 0.6604021267038269 0.357404619741602
outer loop
vertex -9.2388 3.82683 10
vertex -2.50007 2.49997 0.0001
vertex -2.50008 2.49998 0.0001
endloop
endfacet
facet normal 0.19319009145460103 0.9811613468557365 0
outer loop
vertex -9.2388 3.82683 10
vertex -2.50008 2.49998 0.0001
vertex -2.50008 2.49998 -0.0001
endloop
endfacet
facet normal -0.6500986659007457 0.5335213207824793 -0.5410422579287031
outer loop
vertex -8.3147 5.5557 10
vertex -7.07107 7.07107 10
vertex -2.50008 2.49998 0.0001
endloop
endfacet
facet normal -0.6940233896251872 -0.6940233897226664 -0.19147602766671754
outer loop
vertex -8.3147 5.5557 10
vertex -2.50008 2.49998 0.0001
vertex -2.50007 2.49997 0.0001
endloop
endfacet
facet normal 0.8305832413881882 -0.16257250457838274 0.5326365175991997
outer loop
vertex -8.3147 5.5557 10
vertex -2.50007 2.49997 0.0001
vertex -2.5 2.5 0
endloop
endfacet
facet normal 0.07373787353198125 0.9649205280794478 -0.251974404449859
outer loop
vertex -8.3147 5.5557 10
vertex -2.5 2.5 0
vertex -2.50008 2.49998 -0.0001
endloop
endfacet
facet normal -0.6940238985040001 -0.6940238986284306 -0.19147233857114512
outer loop
vertex -8.3147 5.5557 10
vertex -2.50008 2.49998 -0.0001
vertex -2.50007 2.49997 -0.0001
endloop
endfacet
facet normal -0.004159724080286676 -0.957012858382679 0.2900156643800298
outer loop
vertex -8.3147 5.5557 10
vertex -2.50007 2.49997 -0.0001
vertex -2.5 2.5 0
endloop
endfacet
facet normal 0.004159724080286676 0.957012858382679 -0.2900156643800298
outer loop
vertex -8.3147 5.5557 10
vertex -2.5 2.5 0
vertex -2.50007 2.49997 -0.0001
endloop
endfacet
facet normal -0.4651977686123561 -0.885206775888032 0
outer loop
vertex -8.3147 5.5557 10
vertex -2.50007 2.49997 -0.0001
vertex -2.50007 2.49997 0.0001
endloop
endfacet
facet normal 0.6940233896251872 0.6940233897226664 0.19147602766671754
outer loop
vertex -8.3147 5.5557 10
vertex -2.50007 2.49997 0.0001
vertex -2.50008 2.49998 0.0001
endloop
endfacet
facet normal 0.4651972025983957 0.8852070733419538 0
outer loop
vertex -8.3147 5.5557 10
vertex -2.50008 2.49998 0.0001
vertex -2.50008 2.49998 -0.0001
endloop
endfacet
facet normal -0.7371236936922607 -0.3940007087525477 -0.549010110744755
outer loop
vertex -2.5 -2.5 0
vertex -8.3147 -5.5557 10
vertex -9.2388 -3.82683 10
endloop
endfacet
facet normal -0.6500991149469789 -0.5335216893046005 -0.5410413549690261
outer loop
vertex -2.5 -2.5 0
vertex -7.07107 -7.07107 10
vertex -8.3147 -5.5557 10
endloop
endfacet
facet normal -0.7900766762286178 -0.23966413064874284 -0.5642162264238083
outer loop
vertex -2.5 -2.5 0
vertex -9.2388 -3.82683 10
vertex -9.80785 -1.9509 10
endloop
endfacet
facet normal -0.80690507341443 -0.07947450400152867 -0.5853101790604401
outer loop
vertex -2.5 -2.5 0
vertex -9.80785 -1.9509 10
vertex -10 0 10
endloop
endfacet
facet normal -0.23966413064874226 -0.7900766762286181 -0.5642162264238081
outer loop
vertex -2.5 -2.5 0
vertex -1.9509 -9.80785 10
vertex -3.82683 -9.2388 10
endloop
endfacet
facet normal -0.07947450400152895 -0.8069050734144297 -0.5853101790604401
outer loop
vertex -2.5 -2.5 0
vertex 0 -10 10
vertex -1.9509 -9.80785 10
endloop
endfacet
facet normal -0.39400070875254833 -0.7371236936922607 -0.5490101107447548
outer loop
vertex -2.5 -2.5 0
vertex -3.82683 -9.2388 10
vertex -5.5557 -8.3147 10
endloop
endfacet
facet normal -0.5335216893046 -0.6500991149469786 -0.5410413549690272
outer loop
vertex -2.5 -2.5 0
vertex -5.5557 -8.3147 10
vertex -7.07107 -7.07107 10
endloop
endfacet
facet normal 0.7371236936922607 -0.3940007087525477 -0.549010110744755
outer loop
vertex 2.5 -2.5 0
vertex 9.2388 -3.82683 10
vertex 8.3147 -5.5557 10
endloop
endfacet
facet normal 0.6500991149469789 -0.5335216893046005 -0.5410413549690261
outer loop
vertex 2.5 -2.5 0
vertex 8.3147 -5.5557 10
vertex 7.07107 -7.07107 10
endloop
endfacet
facet normal 0.7900766762286178 -0.23966413064874284 -0.5642162264238083
outer loop
vertex 2.5 -2.5 0
vertex 9.80785 -1.9509 10
vertex 9.2388 -3.82683 10
endloop
endfacet
facet normal 0.80690507341443 -0.07947450400152867 -0.5853101790604401
outer loop
vertex 2.5 -2.5 0
vertex 10 0 10
vertex 9.80785 -1.9509 10
endloop
endfacet
facet normal 0.23966413064874229 -0.7900766762286182 -0.5642162264238081
outer loop
vertex 3.82683 -9.2388 10
vertex 1.9509 -9.80785 10
vertex 2.5 -2.5 0
endloop
endfacet
facet normal 0.07947450400152924 -0.8069050734144297 -0.5853101790604401
outer loop
vertex 1.9509 -9.80785 10
vertex 0 -10 10
vertex 2.5 -2.5 0
endloop
endfacet
facet normal 0 0 1
outer loop
vertex 5.5557 -8.3147 10
vertex 7.07107 -7.07107 10
vertex 8.3147 -5.5557 10
endloop
endfacet
facet normal 9.477271498440389e-15 0 1
outer loop
vertex 8.3147 -5.5557 10
vertex 9.2388 -3.82683 10
vertex 9.80785 -1.9509 10
endloop
endfacet
facet normal 0 0 1
outer loop
vertex 9.80785 -1.9509 10
vertex 10 0 10
vertex 9.80785 1.9509 10
endloop
endfacet
facet normal 9.477271498440395e-15 0 1
outer loop
vertex 9.80785 1.9509 10
vertex 9.2388 3.82683 10
vertex 8.3147 5.5557 10
endloop
endfacet
facet normal 0 0 1
outer loop
vertex 8.3147 5.5557 10
vertex 7.07107 7.07107 10
vertex 5.5557 8.3147 10
endloop
endfacet
facet normal 0 0 1
outer loop
vertex 5.5557 8.3147 10
vertex 3.82683 9.2388 10
vertex 1.9509 9.80785 10
endloop
endfacet
facet normal 0 0 1
outer loop
vertex 1.9509 9.80785 10
vertex 0 10 10
vertex -1.9509 9.80785 10
endloop
endfacet
facet normal 0 0 1
outer loop
vertex -1.9509 9.80785 10
vertex -3.82683 9.2388 10
vertex -5.5557 8.3147 10
endloop
endfacet
facet normal 0 0 1
outer loop
vertex -5.5557 8.3147 10
vertex -7.07107 7.07107 10
vertex -8.3147 5.5557 10
endloop
endfacet
facet normal -9.477271498440389e-15 0 1
outer loop
vertex -8.3147 5.5557 10
vertex -9.2388 3.82683 10
vertex -9.80785 1.9509 10
endloop
endfacet
facet normal 0 0 1
outer loop
vertex -9.80785 1.9509 10
vertex -10 0 10
vertex -9.80785 -1.9509 10
endloop
endfacet
facet normal -9.477271498440395e-15 0 1
outer loop
vertex -9.80785 -1.9509 10
vertex -9.2388 -3.82683 10
vertex -8.3147 -5.5557 10
endloop
endfacet
facet normal 0 0 1
outer loop
vertex -8.3147 -5.5557 10
vertex -7.07107 -7.07107 10
vertex -5.5557 -8.3147 10
endloop
endfacet
facet normal 0 0 1
outer loop
vertex -5.5557 -8.3147 10
vertex -3.82683 -9.2388 10
vertex -1.9509 -9.80785 10
endloop
endfacet
facet normal 0 0 1
outer loop
vertex -1.9509 -9.80785 10
vertex 0 -10 10
vertex 1.9509 -9.80785 10
endloop
endfacet
facet normal 0 0 1
outer loop
vertex 1.9509 -9.80785 10
vertex 3.82683 -9.2388 10
vertex 5.5557 -8.3147 10
endloop
endfacet
facet normal 0 0 0.9999999999999999
outer loop
vertex 5.5557 -8.3147 10
vertex 8.3147 -5.5557 10
vertex 9.80785 -1.9509 10
endloop
endfacet
facet normal 0 0 1
outer loop
vertex 9.80785 -1.9509 10
vertex 9.80785 1.9509 10
vertex 8.3147 5.5557 10
endloop
endfacet
facet normal 0 0 1
outer loop
vertex 8.3147 5.5557 10
vertex 5.5557 8.3147 10
vertex 1.9509 9.80785 10
endloop
endfacet
facet normal 0 0 1
outer loop
vertex 1.9509 9.80785 10
vertex -1.9509 9.80785 10
vertex -5.5557 8.3147 10
endloop
endfacet
facet normal 0 0 0.9999999999999999
outer loop
vertex -5.5557 8.3147 10
vertex -8.3147 5.5557 10
vertex -9.80785 1.9509 10
endloop
endfacet
facet normal 0 0 1
outer loop
vertex -9.80785 1.9509 10
vertex -9.80785 -1.9509 10
vertex -8.3147 -5.5557 10
endloop
endfacet
facet normal 0 0 1
outer loop
vertex -8.3147 -5.5557 10
vertex -5.5557 -8.3147 10
vertex -1.9509 -9.80785 10
endloop
endfacet
facet normal 0 0 1
outer loop
vertex -1.9509 -9.80785 10
vertex 1.9509 -9.80785 10
vertex 5.5557 -8.3147 10
endloop
endfacet
facet normal 0 0 1
outer loop
vertex 5.5557 -8.3147 10
vertex 9.80785 -1.9509 10
vertex 8.3147 5.5557 10
endloop
endfacet
facet normal 0 0 0.9999999999999999
outer loop
vertex 8.3147 5.5557 10
vertex 1.9509 9.80785 10
vertex -5.5557 8.3147 10
endloop
endfacet
facet normal 0 0 1
outer loop
vertex -5.5557 8.3147 10
vertex -9.80785 1.9509 10
vertex -8.3147 -5.5557 10
endloop
endfacet
facet normal 0 0 0.9999999999999999
outer loop
vertex -8.3147 -5.5557 10
vertex -1.9509 -9.80785 10
vertex 5.5557 -8.3147 10
endloop
endfacet
facet normal 0 0 1
outer loop
vertex 5.5557 -8.3147 10
vertex 8.3147 5.5557 10
vertex -5.5557 8.3147 10
endloop
endfacet
facet normal 0 0 1
outer loop
vertex -5.5557 8.3147 10
vertex -8.3147 -5.5557 10
vertex 5.5557 -8.3147 10
endloop
endfacet
facet normal 0.39400070875254833 -0.7371236936922607 -0.5490101107447548
outer loop
vertex 5.5557 -8.3147 10
vertex 3.82683 -9.2388 10
vertex 2.5 -2.5 0
endloop
endfacet
facet normal 0.5335216893046002 -0.6500991149469786 -0.5410413549690272
outer loop
vertex 7.07107 -7.07107 10
vertex 5.5557 -8.3147 10
vertex 2.5 -2.5 0
endloop
endfacet
endsolid JSxCAD
