<?xml version="1.0" encoding="UTF-8"?>
<!-- Generated by jsxcad -->
<!DOCTYPE svg PUBLIC "-//W3C//DTD SVG 1.1 Tiny//EN" "http://www.w3.org/Graphics/SVG/1.1/DTD/svg11-tiny.dtd">
<svg baseProfile="tiny" height="33.65878mm" width="28.98203mm" viewBox="-0.00082 0.00035 28.98203 33.65878" version="1.1" stroke="black" stroke-width=".1" fill="none" xmlns="http://www.w3.org/2000/svg">
<path stroke="#000000" d="M 21.19239 3.70290 L 21.24315 3.83686 L 21.35107 3.93245 L 21.49020 3.96667 L 21.53565 3.95686 L 21.67478 3.92265 L 21.71628 3.89674 L 21.82420 3.80115 L 21.85489 3.75791 L 21.90565 3.62395 L 21.92133 3.57132 L 21.91844 3.50725 L 21.90105 3.36441 L 21.87776 3.30006 L 21.79630 3.18213 L 21.75367 3.12071 L 21.68916 3.06713 L 21.56187 3.00035 L 21.48079 2.96231 L 21.38330 2.94202 L 21.23995 2.94202 L 21.13281 2.94678 L 21.02197 2.97792 L 20.89468 3.04470 L 20.78354 3.10342 L 20.68409 3.19213 L 20.60158 3.30577 L 20.52012 3.42370 L 20.45978 3.56006 L 20.42717 3.71391 L 20.40978 3.85674 L 20.41190 4.02433 L 20.45165 4.19627 L 20.50240 4.33024 L 20.58065 4.49902 L 20.69769 4.65504 L 20.80561 4.75064 L 20.95821 4.88484 L 21.14177 4.99059 L 21.35107 5.05745 L 21.49020 5.09167 L 21.71747 5.11667 L 21.95531 5.09379 L 22.09444 5.05957 L 22.33203 4.98509 L 22.55615 4.86103 L 22.75976 4.68777 L 22.86768 4.59218 L 23.03725 4.37390 L 23.16225 4.11947 L 23.21300 3.98551 L 23.28800 3.70290 L 23.30524 3.40290 L 23.28786 3.26006 L 23.24430 2.95195 L 23.13600 2.64980 L 22.96416 2.36775 L 22.88270 2.24983 L 22.65212 1.99928 L 22.36916 1.79508 L 22.24187 1.72830 L 21.91671 1.58124 L 21.56187 1.50035 L 21.18932 1.49074 L 21.04597 1.49074 L 20.66594 1.55535 L 20.29947 1.69888 L 20.17219 1.76566 L 19.83290 1.98213 L 19.53568 2.27026 L 19.45422 2.38818 L 19.21784 2.73748 L 19.04849 3.13149 L 18.95978 3.56006 L 18.94239 3.70290 L 18.93842 4.14884 L 19.02573 4.59684 L 19.07648 4.73080 L 19.25549 5.16295 L 19.52092 5.56267 L 19.86383 5.90353 L 19.97176 5.99912 L 20.38555 6.27245 L 20.85107 6.46187 L 20.99020 6.49608 L 21.49020 6.59167 L 22.00871 6.58788 L 22.52866 6.48037 L 22.66779 6.44615 L 23.16504 6.23245 L 23.61581 5.92182 L 23.72373 5.82622 L 24.11656 5.42382 L 24.42296 4.94556 L 24.63380 4.41093 L 24.68455 4.27697 L 24.78800 3.70290 L 24.77595 3.11199 L 24.75857 2.96915 L 24.63062 2.37824 L 24.38352 1.81763 L 24.30206 1.69971 L 23.94232 1.18604 L 23.48403 0.75166 L 22.94289 0.40880 L 22.81560 0.34202 L 22.20893 0.11065 L 21.56187 0.00035 L 21.41852 0.00035 L 20.75489 0.01821 L 20.41852 0.07535 L 19.97735 0.23899 L 19.53391 0.39535 L 19.09294 0.55717 L 18.65852 0.74202 L 18.53124 0.80880 L 18.13334 1.05752 L 17.78246 1.37071 L 17.46515 1.71764 L 17.18779 2.09598 L 17.10633 2.21391 L 16.86767 2.62103 L 16.65164 3.03832 L 16.45220 3.46546 L 16.27038 3.89877 L 16.11887 4.34339 L 15.99766 4.79919 L 15.89160 5.25614 L 15.79117 5.71631 L 15.69626 6.17771 L 15.60263 6.63901 L 15.50978 7.10006 L 15.40978 7.56006 L 15.39239 7.70290 L 15.41138 7.75303 L 15.26911 7.72478 L 15.07467 7.70478 L 14.49020 7.66667 L 13.90573 7.70478 L 13.71128 7.72478 L 13.56901 7.75303 L 13.58800 7.70290 L 13.57062 7.56006 L 13.47062 7.10006 L 13.37776 6.63901 L 13.28413 6.17771 L 13.18922 5.71631 L 13.08880 5.25614 L 12.98274 4.79919 L 12.86152 4.34339 L 12.71001 3.89877 L 12.52819 3.46546 L 12.32875 3.03832 L 12.11272 2.62103 L 11.87406 2.21391 L 11.79260 2.09598 L 11.51524 1.71764 L 11.19793 1.37071 L 10.84705 1.05752 L 10.44916 0.80880 L 10.32187 0.74202 L 9.88745 0.55717 L 9.44649 0.39535 L 9.00305 0.23899 L 8.56187 0.07535 L 8.22551 0.01821 L 7.56187 0.00035 L 7.41852 0.00035 L 6.77146 0.11065 L 6.16479 0.34202 L 6.03750 0.40880 L 5.49636 0.75166 L 5.03807 1.18604 L 4.67833 1.69971 L 4.59687 1.81763 L 4.34978 2.37824 L 4.22183 2.96915 L 4.20444 3.11199 L 4.19239 3.70290 L 4.29584 4.27697 L 4.34659 4.41093 L 4.55743 4.94556 L 4.86383 5.42382 L 5.25666 5.82622 L 5.36458 5.92182 L 5.81535 6.23245 L 6.31261 6.44615 L 6.45173 6.48037 L 6.97168 6.58788 L 7.49020 6.59167 L 7.99020 6.49608 L 8.12932 6.46187 L 8.59484 6.27245 L 9.00863 5.99912 L 9.11656 5.90353 L 9.45947 5.56267 L 9.72490 5.16295 L 9.90391 4.73080 L 9.95467 4.59684 L 10.04197 4.14884 L 10.03800 3.70290 L 10.02062 3.56006 L 9.93191 3.13149 L 9.76255 2.73748 L 9.52617 2.38818 L 9.44471 2.27026 L 9.14749 1.98213 L 8.80820 1.76566 L 8.68092 1.69888 L 8.31445 1.55535 L 7.93442 1.49074 L 7.79107 1.49074 L 7.41852 1.50035 L 7.06368 1.58124 L 6.73852 1.72830 L 6.61124 1.79508 L 6.32827 1.99928 L 6.09769 2.24983 L 6.01623 2.36775 L 5.84439 2.64980 L 5.73609 2.95195 L 5.69254 3.26006 L 5.67515 3.40290 L 5.69239 3.70290 L 5.76739 3.98551 L 5.81815 4.11947 L 5.94315 4.37390 L 6.11271 4.59218 L 6.22063 4.68777 L 6.42424 4.86103 L 6.64837 4.98509 L 6.88595 5.05957 L 7.02508 5.09379 L 7.26292 5.11667 L 7.49020 5.09167 L 7.62932 5.05745 L 7.83863 4.99059 L 8.02218 4.88484 L 8.17478 4.75064 L 8.28270 4.65504 L 8.39975 4.49902 L 8.47799 4.33024 L 8.52874 4.19627 L 8.56849 4.02433 L 8.57061 3.85674 L 8.55322 3.71391 L 8.52062 3.56006 L 8.46027 3.42370 L 8.37881 3.30577 L 8.29630 3.19213 L 8.19685 3.10342 L 8.08571 3.04470 L 7.95842 2.97792 L 7.84758 2.94678 L 7.74044 2.94202 L 7.59709 2.94202 L 7.49960 2.96231 L 7.41852 3.00035 L 7.29124 3.06713 L 7.22672 3.12071 L 7.18409 3.18213 L 7.10263 3.30006 L 7.07934 3.36441 L 7.06196 3.50725 L 7.05906 3.57132 L 7.07474 3.62395 L 7.12550 3.75791 L 7.15619 3.80115 L 7.26411 3.89674 L 7.30561 3.92265 L 7.44474 3.95686 L 7.49020 3.96667 L 7.62932 3.93245 L 7.73725 3.83686 L 7.78800 3.70290 L 7.77062 3.56006 L 7.75659 3.53976 L 7.85313 3.59077 L 7.93280 3.70050 L 7.95023 3.73989 L 7.97500 3.85674 L 7.97379 3.95278 L 7.95052 4.05344 L 7.88361 4.19777 L 7.83669 4.26032 L 7.68409 4.39452 L 7.60228 4.44165 L 7.41852 4.50035 L 7.25813 4.51800 L 7.09675 4.50247 L 6.87449 4.43279 L 6.76233 4.37071 L 6.55872 4.19745 L 6.45315 4.06156 L 6.34562 3.84267 L 6.28233 3.60419 L 6.27076 3.40290 L 6.31432 3.09479 L 6.37851 2.91569 L 6.54370 2.64455 L 6.72575 2.44674 L 6.94932 2.28540 L 7.26335 2.14338 L 7.49020 2.09167 L 7.86275 2.08205 L 8.15128 2.13111 L 8.47012 2.25598 L 8.78217 2.45508 L 8.99870 2.66499 L 9.23508 3.01428 L 9.36002 3.30496 L 9.44239 3.70290 L 9.44590 4.09756 L 9.37644 4.45400 L 9.19743 4.88615 L 9.00419 5.17716 L 8.67055 5.50880 L 8.31584 5.74310 L 7.91852 5.90477 L 7.42380 5.99935 L 7.04335 5.99657 L 6.52341 5.88905 L 6.10688 5.71004 L 5.70267 5.43150 L 5.32704 5.04670 L 5.08490 4.66875 L 4.87406 4.13413 L 4.78885 3.66125 L 4.80005 3.11199 L 4.91999 2.55806 L 5.12434 2.09444 L 5.48408 1.58076 L 5.85576 1.22848 L 6.37559 0.89912 L 6.93250 0.68673 L 7.49020 0.59167 L 8.15383 0.60952 L 8.40368 0.65197 L 8.79224 0.79609 L 9.23568 0.95245 L 9.67665 1.11427 L 10.11107 1.29912 L 10.50621 1.54612 L 10.75192 1.76543 L 11.06923 2.11237 L 11.34659 2.49071 L 11.58525 2.89784 L 11.80128 3.31512 L 12.00072 3.74227 L 12.15538 4.11085 L 12.28330 4.48623 L 12.40451 4.94203 L 12.51057 5.39898 L 12.61100 5.85915 L 12.70591 6.32054 L 12.79953 6.78184 L 12.89239 7.24290 L 12.99239 7.70290 L 13.04315 7.83686 L 13.06821 7.85906 L 12.94379 7.89676 L 12.38977 8.08448 L 11.85535 8.34792 L 11.68214 8.44049 L 11.19172 8.76875 L 11.03996 8.89194 L 10.59862 9.27965 L 10.21547 9.71643 L 10.09228 9.86819 L 9.76402 10.35861 L 9.67145 10.53182 L 9.40801 11.06624 L 9.22028 11.62026 L 9.16336 11.80817 L 9.04831 12.38775 L 9.02831 12.58220 L 9.02689 12.60406 L 8.61326 12.67774 L 7.78515 12.90062 L 7.59724 12.95754 L 6.77876 13.25573 L 5.97660 13.63065 L 5.80340 13.72322 L 5.06106 14.15261 L 4.34448 14.65458 L 4.19272 14.77777 L 3.52730 15.33628 L 2.90549 15.95848 L 2.34262 16.63051 L 2.21943 16.78227 L 1.72307 17.49236 L 1.28346 18.25539 L 1.19090 18.42859 L 0.82465 19.21636 L 0.52816 20.03295 L 0.47123 20.22086 L 0.24417 21.07168 L 0.09468 21.92506 L 0.07468 22.11950 L -0.00082 22.99286 L 0.00059 23.87251 L 0.07785 24.73781 L 0.09785 24.93226 L 0.25127 25.79360 L 0.47414 26.62171 L 0.53107 26.80962 L 0.82926 27.62810 L 1.20418 28.43026 L 1.29675 28.60346 L 1.72614 29.34580 L 2.22811 30.06238 L 2.35130 30.21414 L 2.90981 30.87956 L 3.53201 31.50137 L 4.20404 32.06425 L 4.35580 32.18744 L 5.06589 32.68379 L 5.82892 33.12340 L 6.00212 33.21597 L 6.78989 33.58221 L 6.97780 33.63914 L 7.17225 33.65914 L 7.36669 33.63914 L 7.55460 33.58221 L 7.72780 33.48965 L 7.87956 33.36645 L 8.00275 33.21469 L 8.09532 33.04149 L 8.72233 31.52362 L 8.87857 31.62481 L 9.05177 31.71738 L 9.82468 32.12603 L 10.64678 32.47170 L 11.48776 32.74040 L 11.67566 32.79732 L 12.54468 32.99216 L 13.40862 33.10724 L 13.60306 33.12724 L 14.49020 33.16667 L 15.37733 33.12724 L 15.57178 33.10724 L 16.43571 32.99216 L 17.30473 32.79732 L 17.49264 32.74040 L 18.33361 32.47170 L 19.15571 32.12603 L 19.92862 31.71738 L 20.10182 31.62481 L 20.25806 31.52362 L 20.88507 33.04149 L 20.97764 33.21469 L 21.10083 33.36645 L 21.25259 33.48965 L 21.42579 33.58221 L 21.61370 33.63914 L 21.80815 33.65914 L 22.00259 33.63914 L 22.19050 33.58221 L 22.97827 33.21597 L 23.15147 33.12340 L 23.91450 32.68379 L 24.62459 32.18744 L 24.77635 32.06425 L 25.44838 31.50137 L 26.07059 30.87956 L 26.62910 30.21414 L 26.75229 30.06238 L 27.25425 29.34580 L 27.68364 28.60346 L 27.77621 28.43026 L 28.15114 27.62810 L 28.44932 26.80962 L 28.50625 26.62171 L 28.72913 25.79360 L 28.88254 24.93226 L 28.90254 24.73781 L 28.97980 23.87251 L 28.98121 22.99286 L 28.90571 22.11950 L 28.88571 21.92506 L 28.73622 21.07168 L 28.50916 20.22086 L 28.45224 20.03295 L 28.15574 19.21636 L 27.78950 18.42859 L 27.69693 18.25539 L 27.25732 17.49236 L 26.76097 16.78227 L 26.63777 16.63051 L 26.07490 15.95848 L 25.45309 15.33628 L 24.78767 14.77777 L 24.63591 14.65458 L 23.91933 14.15261 L 23.17699 13.72322 L 23.00379 13.63065 L 22.20163 13.25573 L 21.38315 12.95754 L 21.19524 12.90062 L 20.36713 12.67774 L 19.95350 12.60406 L 19.95208 12.58220 L 19.93208 12.38775 L 19.81703 11.80817 L 19.76011 11.62026 L 19.57238 11.06624 L 19.30894 10.53182 L 19.21638 10.35861 L 18.88811 9.86819 L 18.76492 9.71643 L 18.37721 9.27509 L 17.94043 8.89194 L 17.78867 8.76875 L 17.29825 8.44049 L 17.12505 8.34792 L 16.59063 8.08448 L 16.03661 7.89676 L 15.91218 7.85906 L 15.93725 7.83686 L 15.98800 7.70290 L 16.08800 7.24290 L 16.18086 6.78184 L 16.27449 6.32054 L 16.36940 5.85915 L 16.46982 5.39898 L 16.57588 4.94203 L 16.69709 4.48623 L 16.82501 4.11085 L 16.97967 3.74227 L 17.17911 3.31512 L 17.39514 2.89784 L 17.63380 2.49071 L 17.91116 2.11237 L 18.22848 1.76543 L 18.47418 1.54612 L 18.86932 1.29912 L 19.30374 1.11427 L 19.74471 0.95245 L 20.18815 0.79609 L 20.57671 0.65197 L 20.82656 0.60952 L 21.49020 0.59167 L 22.04789 0.68673 L 22.60480 0.89912 L 23.12463 1.22848 L 23.49631 1.58076 L 23.85605 2.09444 L 24.06040 2.55806 L 24.18034 3.11199 L 24.19154 3.66125 L 24.10633 4.13413 L 23.89549 4.66875 L 23.65336 5.04670 L 23.27772 5.43150 L 22.87352 5.71004 L 22.45698 5.88905 L 21.93704 5.99657 L 21.55659 5.99935 L 21.06187 5.90477 L 20.66455 5.74310 L 20.30985 5.50880 L 19.97620 5.17716 L 19.78296 4.88615 L 19.60395 4.45400 L 19.53449 4.09756 L 19.53800 3.70290 L 19.62037 3.30496 L 19.74531 3.01428 L 19.98169 2.66499 L 20.19823 2.45508 L 20.51028 2.25598 L 20.82912 2.13111 L 21.11765 2.08205 L 21.49020 2.09167 L 21.71705 2.14338 L 22.03107 2.28540 L 22.25464 2.44674 L 22.43669 2.64455 L 22.60188 2.91569 L 22.66608 3.09479 L 22.70963 3.40290 L 22.69806 3.60419 L 22.63478 3.84267 L 22.52724 4.06156 L 22.42167 4.19745 L 22.21806 4.37071 L 22.10591 4.43279 L 21.88364 4.50247 L 21.72226 4.51800 L 21.56187 4.50035 L 21.37811 4.44165 L 21.29630 4.39452 L 21.14370 4.26032 L 21.09678 4.19777 L 21.02987 4.05344 L 21.00661 3.95278 L 21.00539 3.85674 L 21.03016 3.73989 L 21.04759 3.70050 L 21.12727 3.59077 L 21.22380 3.53976 L 21.20978 3.56006 z"/>
</svg>
