<?xml version="1.0" encoding="UTF-8"?>
<!-- Generated by jsxcad -->
<!DOCTYPE svg PUBLIC "-//W3C//DTD SVG 1.1 Tiny//EN" "http://www.w3.org/Graphics/SVG/1.1/DTD/svg11-tiny.dtd">
<svg baseProfile="tiny" height="34.07594mm" width="29.00000mm" viewBox="-0.00000 0.00035 29.00000 34.07594" version="1.1" stroke="black" stroke-width=".1" fill="none" xmlns="http://www.w3.org/2000/svg">
<path stroke="#000000" d="M 21.20220 3.70290 L 21.25295 3.83686 L 21.36087 3.93245 L 21.50000 3.96667 L 21.54545 3.95686 L 21.68458 3.92265 L 21.72608 3.89674 L 21.83401 3.80115 L 21.86470 3.75791 L 21.91545 3.62395 L 21.93114 3.57132 L 21.92824 3.50725 L 21.91085 3.36441 L 21.88756 3.30006 L 21.80610 3.18213 L 21.76348 3.12071 L 21.69896 3.06713 L 21.57167 3.00035 L 21.49059 2.96231 L 21.39310 2.94202 L 21.24975 2.94202 L 21.14261 2.94678 L 21.03177 2.97792 L 20.90449 3.04470 L 20.79335 3.10342 L 20.69390 3.19213 L 20.61138 3.30577 L 20.52993 3.42370 L 20.46958 3.56006 L 20.43697 3.71391 L 20.41959 3.85674 L 20.42171 4.02433 L 20.46146 4.19627 L 20.51221 4.33024 L 20.59045 4.49902 L 20.70749 4.65504 L 20.81542 4.75064 L 20.96801 4.88484 L 21.15157 4.99059 L 21.36087 5.05745 L 21.50000 5.09167 L 21.72727 5.11667 L 21.96512 5.09379 L 22.10424 5.05957 L 22.34183 4.98509 L 22.56596 4.86103 L 22.76956 4.68777 L 22.87749 4.59218 L 23.04705 4.37390 L 23.17205 4.11947 L 23.22280 3.98551 L 23.29780 3.70290 L 23.31505 3.40290 L 23.29766 3.26006 L 23.25410 2.95195 L 23.14580 2.64980 L 22.97397 2.36775 L 22.89251 2.24983 L 22.66192 1.99928 L 22.37896 1.79508 L 22.25167 1.72830 L 21.92651 1.58124 L 21.57167 1.50035 L 21.19913 1.49074 L 21.05578 1.49074 L 20.67575 1.55535 L 20.30928 1.69888 L 20.18199 1.76566 L 19.84271 1.98213 L 19.54548 2.27026 L 19.46403 2.38818 L 19.22765 2.73748 L 19.05829 3.13149 L 18.96958 3.56006 L 18.95220 3.70290 L 18.94823 4.14884 L 19.03553 4.59684 L 19.08628 4.73080 L 19.26529 5.16295 L 19.53073 5.56267 L 19.87364 5.90353 L 19.98156 5.99912 L 20.39535 6.27245 L 20.86087 6.46187 L 21.00000 6.49608 L 21.50000 6.59167 L 22.01852 6.58788 L 22.53846 6.48037 L 22.67759 6.44615 L 23.17484 6.23245 L 23.62561 5.92182 L 23.73354 5.82622 L 24.12636 5.42382 L 24.43277 4.94556 L 24.64360 4.41093 L 24.69436 4.27697 L 24.79780 3.70290 L 24.78576 3.11199 L 24.76837 2.96915 L 24.64042 2.37824 L 24.39332 1.81763 L 24.31186 1.69971 L 23.95213 1.18604 L 23.49383 0.75166 L 22.95269 0.40880 L 22.82541 0.34202 L 22.21873 0.11065 L 21.57167 0.00035 L 21.42833 0.00035 L 20.76469 0.01821 L 20.42833 0.07535 L 19.98715 0.23899 L 19.54371 0.39535 L 19.10274 0.55717 L 18.66833 0.74202 L 18.54104 0.80880 L 18.14314 1.05752 L 17.79227 1.37071 L 17.47495 1.71764 L 17.19759 2.09598 L 17.11613 2.21391 L 16.87748 2.62103 L 16.66144 3.03832 L 16.46201 3.46546 L 16.28019 3.89877 L 16.12867 4.34339 L 16.00746 4.79919 L 15.90140 5.25614 L 15.80098 5.71631 L 15.70607 6.17771 L 15.61244 6.63901 L 15.51958 7.10006 L 15.41958 7.56006 L 15.40220 7.70290 L 15.42119 7.75303 L 15.27892 7.72478 L 15.08447 7.70478 L 14.50000 7.66667 L 13.91553 7.70478 L 13.72108 7.72478 L 13.57881 7.75303 L 13.59780 7.70290 L 13.58042 7.56006 L 13.48042 7.10006 L 13.38756 6.63901 L 13.29393 6.17771 L 13.19902 5.71631 L 13.09860 5.25614 L 12.99254 4.79919 L 12.87133 4.34339 L 12.71981 3.89877 L 12.53799 3.46546 L 12.33856 3.03832 L 12.12252 2.62103 L 11.88387 2.21391 L 11.80241 2.09598 L 11.52505 1.71764 L 11.20773 1.37071 L 10.85686 1.05752 L 10.45896 0.80880 L 10.33167 0.74202 L 9.89726 0.55717 L 9.45629 0.39535 L 9.01285 0.23899 L 8.57167 0.07535 L 8.23531 0.01821 L 7.57167 0.00035 L 7.42833 0.00035 L 6.78127 0.11065 L 6.17459 0.34202 L 6.04731 0.40880 L 5.50617 0.75166 L 5.04787 1.18604 L 4.68814 1.69971 L 4.60668 1.81763 L 4.35958 2.37824 L 4.23163 2.96915 L 4.21424 3.11199 L 4.20220 3.70290 L 4.30564 4.27697 L 4.35640 4.41093 L 4.56723 4.94556 L 4.87364 5.42382 L 5.26646 5.82622 L 5.37439 5.92182 L 5.82516 6.23245 L 6.32241 6.44615 L 6.46154 6.48037 L 6.98148 6.58788 L 7.50000 6.59167 L 8.00000 6.49608 L 8.13913 6.46187 L 8.60465 6.27245 L 9.01844 5.99912 L 9.12636 5.90353 L 9.46927 5.56267 L 9.73471 5.16295 L 9.91372 4.73080 L 9.96447 4.59684 L 10.05177 4.14884 L 10.04780 3.70290 L 10.03042 3.56006 L 9.94171 3.13149 L 9.77235 2.73748 L 9.53597 2.38818 L 9.45452 2.27026 L 9.15729 1.98213 L 8.81801 1.76566 L 8.69072 1.69888 L 8.32425 1.55535 L 7.94422 1.49074 L 7.80087 1.49074 L 7.42833 1.50035 L 7.07349 1.58124 L 6.74833 1.72830 L 6.62104 1.79508 L 6.33808 1.99928 L 6.10749 2.24983 L 6.02603 2.36775 L 5.85420 2.64980 L 5.74590 2.95195 L 5.70234 3.26006 L 5.68495 3.40290 L 5.70220 3.70290 L 5.77720 3.98551 L 5.82795 4.11947 L 5.95295 4.37390 L 6.12251 4.59218 L 6.23044 4.68777 L 6.43404 4.86103 L 6.65817 4.98509 L 6.89576 5.05957 L 7.03488 5.09379 L 7.27273 5.11667 L 7.50000 5.09167 L 7.63913 5.05745 L 7.84843 4.99059 L 8.03199 4.88484 L 8.18458 4.75064 L 8.29251 4.65504 L 8.40955 4.49902 L 8.48779 4.33024 L 8.53854 4.19627 L 8.57829 4.02433 L 8.58041 3.85674 L 8.56303 3.71391 L 8.53042 3.56006 L 8.47007 3.42370 L 8.38862 3.30577 L 8.30610 3.19213 L 8.20665 3.10342 L 8.09551 3.04470 L 7.96823 2.97792 L 7.85739 2.94678 L 7.75025 2.94202 L 7.60690 2.94202 L 7.50941 2.96231 L 7.42833 3.00035 L 7.30104 3.06713 L 7.23652 3.12071 L 7.19390 3.18213 L 7.11244 3.30006 L 7.08915 3.36441 L 7.07176 3.50725 L 7.06886 3.57132 L 7.08455 3.62395 L 7.13530 3.75791 L 7.16599 3.80115 L 7.27392 3.89674 L 7.31542 3.92265 L 7.45455 3.95686 L 7.50000 3.96667 L 7.63913 3.93245 L 7.74705 3.83686 L 7.79780 3.70290 L 7.78042 3.56006 L 7.76640 3.53976 L 7.86293 3.59077 L 7.94260 3.70050 L 7.96004 3.73989 L 7.98480 3.85674 L 7.98359 3.95278 L 7.96032 4.05344 L 7.89341 4.19777 L 7.84649 4.26032 L 7.69390 4.39452 L 7.61208 4.44165 L 7.42833 4.50035 L 7.26793 4.51800 L 7.10656 4.50247 L 6.88429 4.43279 L 6.77213 4.37071 L 6.56853 4.19745 L 6.46296 4.06156 L 6.35542 3.84267 L 6.29213 3.60419 L 6.28056 3.40290 L 6.32412 3.09479 L 6.38831 2.91569 L 6.55350 2.64455 L 6.73555 2.44674 L 6.95913 2.28540 L 7.27315 2.14338 L 7.50000 2.09167 L 7.87255 2.08205 L 8.16108 2.13111 L 8.47992 2.25598 L 8.79197 2.45508 L 9.00850 2.66499 L 9.24488 3.01428 L 9.36983 3.30496 L 9.45220 3.70290 L 9.45571 4.09756 L 9.38625 4.45400 L 9.20724 4.88615 L 9.01399 5.17716 L 8.68035 5.50880 L 8.32565 5.74310 L 7.92833 5.90477 L 7.43360 5.99935 L 7.05316 5.99657 L 6.53321 5.88905 L 6.11668 5.71004 L 5.71247 5.43150 L 5.33684 5.04670 L 5.09470 4.66875 L 4.88387 4.13413 L 4.79865 3.66125 L 4.80985 3.11199 L 4.92980 2.55806 L 5.13415 2.09444 L 5.49389 1.58076 L 5.86557 1.22848 L 6.38540 0.89912 L 6.94230 0.68673 L 7.50000 0.59167 L 8.16364 0.60952 L 8.41348 0.65197 L 8.80205 0.79609 L 9.24549 0.95245 L 9.68645 1.11427 L 10.12087 1.29912 L 10.51602 1.54612 L 10.76172 1.76543 L 11.07904 2.11237 L 11.35640 2.49071 L 11.59505 2.89784 L 11.81109 3.31512 L 12.01052 3.74227 L 12.16518 4.11085 L 12.29310 4.48623 L 12.41432 4.94203 L 12.52038 5.39898 L 12.62080 5.85915 L 12.71571 6.32054 L 12.80934 6.78184 L 12.90220 7.24290 L 13.00220 7.70290 L 13.05295 7.83686 L 13.07802 7.85906 L 12.95359 7.89676 L 12.39957 8.08448 L 11.86515 8.34792 L 11.69195 8.44049 L 11.20153 8.76875 L 11.04976 8.89194 L 10.60842 9.27965 L 10.22528 9.71643 L 10.10208 9.86819 L 9.77382 10.35861 L 9.68125 10.53182 L 9.41781 11.06624 L 9.23009 11.62026 L 9.17317 11.80817 L 9.05812 12.38775 L 9.03812 12.58220 L 9.03727 12.59515 L 8.20978 12.77944 L 8.02187 12.83637 L 7.18770 13.10022 L 6.39550 13.42863 L 5.62261 13.83047 L 5.44941 13.92304 L 4.70267 14.39885 L 4.02230 14.92091 L 3.87054 15.04410 L 3.22513 15.63477 L 2.63778 16.27488 L 2.51458 16.42664 L 1.97874 17.12425 L 1.50779 17.86362 L 1.41522 18.03682 L 1.01517 18.80529 L 0.67826 19.61890 L 0.41729 20.44752 L 0.36037 20.63543 L 0.17230 21.48357 L 0.05753 22.35667 L 0.03753 22.55111 L 0.00000 23.41667 L 0.03842 24.29244 L 0.05842 24.48688 L 0.17393 25.35892 L 0.36278 26.20689 L 0.41970 26.39480 L 0.68355 27.22896 L 1.01197 28.02117 L 1.41380 28.79405 L 1.50637 28.96726 L 1.98219 29.71400 L 2.50424 30.39437 L 2.62743 30.54613 L 3.21811 31.19154 L 3.85821 31.77889 L 4.00998 31.90208 L 4.70758 32.43793 L 5.44695 32.90887 L 5.62015 33.00144 L 6.38863 33.40150 L 7.20223 33.73841 L 8.03085 33.99938 L 8.21876 34.05630 L 8.41321 34.07630 L 8.60765 34.05630 L 8.79556 33.99938 L 8.96876 33.90681 L 9.12052 33.78362 L 9.24371 33.63185 L 9.33628 33.45865 L 9.39321 33.27074 L 9.71646 32.06363 L 9.83448 32.12603 L 10.65658 32.47170 L 11.49756 32.74040 L 11.68547 32.79732 L 12.55448 32.99216 L 13.41842 33.10724 L 13.61286 33.12724 L 14.50000 33.16667 L 15.38714 33.12724 L 15.58158 33.10724 L 16.44552 32.99216 L 17.31453 32.79732 L 17.50244 32.74040 L 18.34342 32.47170 L 19.16552 32.12603 L 19.28354 32.06363 L 19.60679 33.27074 L 19.66372 33.45865 L 19.75629 33.63185 L 19.87948 33.78362 L 20.03124 33.90681 L 20.20444 33.99938 L 20.39235 34.05630 L 20.58679 34.07630 L 20.78124 34.05630 L 20.96915 33.99938 L 21.79777 33.73841 L 22.61137 33.40150 L 23.37985 33.00144 L 23.55305 32.90887 L 24.29242 32.43793 L 24.99002 31.90208 L 25.14179 31.77889 L 25.78189 31.19154 L 26.37257 30.54613 L 26.49576 30.39437 L 27.01781 29.71400 L 27.49363 28.96726 L 27.58620 28.79405 L 27.98803 28.02117 L 28.31645 27.22896 L 28.58030 26.39480 L 28.63722 26.20689 L 28.82607 25.35892 L 28.94158 24.48688 L 28.96158 24.29244 L 29.00000 23.41667 L 28.96247 22.55111 L 28.94247 22.35667 L 28.82770 21.48357 L 28.63963 20.63543 L 28.58271 20.44752 L 28.32174 19.61890 L 27.98483 18.80529 L 27.58478 18.03682 L 27.49221 17.86362 L 27.02126 17.12425 L 26.48542 16.42664 L 26.36222 16.27488 L 25.77487 15.63477 L 25.12946 15.04410 L 24.97770 14.92091 L 24.29733 14.39885 L 23.55059 13.92304 L 23.37739 13.83047 L 22.60450 13.42863 L 21.81230 13.10022 L 20.97813 12.83637 L 20.79022 12.77944 L 19.96273 12.59515 L 19.96188 12.58220 L 19.94188 12.38775 L 19.82683 11.80817 L 19.76991 11.62026 L 19.58219 11.06624 L 19.31875 10.53182 L 19.22618 10.35861 L 18.89792 9.86819 L 18.77472 9.71643 L 18.38701 9.27509 L 17.95024 8.89194 L 17.79847 8.76875 L 17.30805 8.44049 L 17.13485 8.34792 L 16.60043 8.08448 L 16.04641 7.89676 L 15.92198 7.85906 L 15.94705 7.83686 L 15.99780 7.70290 L 16.09780 7.24290 L 16.19066 6.78184 L 16.28429 6.32054 L 16.37920 5.85915 L 16.47962 5.39898 L 16.58568 4.94203 L 16.70690 4.48623 L 16.83482 4.11085 L 16.98948 3.74227 L 17.18891 3.31512 L 17.40495 2.89784 L 17.64360 2.49071 L 17.92096 2.11237 L 18.23828 1.76543 L 18.48398 1.54612 L 18.87913 1.29912 L 19.31355 1.11427 L 19.75451 0.95245 L 20.19795 0.79609 L 20.58652 0.65197 L 20.83636 0.60952 L 21.50000 0.59167 L 22.05770 0.68673 L 22.61460 0.89912 L 23.13443 1.22848 L 23.50611 1.58076 L 23.86585 2.09444 L 24.07020 2.55806 L 24.19015 3.11199 L 24.20135 3.66125 L 24.11613 4.13413 L 23.90530 4.66875 L 23.66316 5.04670 L 23.28753 5.43150 L 22.88332 5.71004 L 22.46679 5.88905 L 21.94684 5.99657 L 21.56640 5.99935 L 21.07167 5.90477 L 20.67435 5.74310 L 20.31965 5.50880 L 19.98601 5.17716 L 19.79276 4.88615 L 19.61375 4.45400 L 19.54429 4.09756 L 19.54780 3.70290 L 19.63017 3.30496 L 19.75512 3.01428 L 19.99150 2.66499 L 20.20803 2.45508 L 20.52008 2.25598 L 20.83892 2.13111 L 21.12745 2.08205 L 21.50000 2.09167 L 21.72685 2.14338 L 22.04087 2.28540 L 22.26445 2.44674 L 22.44650 2.64455 L 22.61169 2.91569 L 22.67588 3.09479 L 22.71944 3.40290 L 22.70787 3.60419 L 22.64458 3.84267 L 22.53704 4.06156 L 22.43147 4.19745 L 22.22787 4.37071 L 22.11571 4.43279 L 21.89344 4.50247 L 21.73207 4.51800 L 21.57167 4.50035 L 21.38792 4.44165 L 21.30610 4.39452 L 21.15351 4.26032 L 21.10659 4.19777 L 21.03968 4.05344 L 21.01641 3.95278 L 21.01520 3.85674 L 21.03996 3.73989 L 21.05740 3.70050 L 21.13707 3.59077 L 21.23360 3.53976 L 21.21958 3.56006 z"/>
</svg>
