<?xml version="1.0" encoding="UTF-8"?>
<!-- Generated by jsxcad -->
<!DOCTYPE svg PUBLIC "-//W3C//DTD SVG 1.1 Tiny//EN" "http://www.w3.org/Graphics/SVG/1.1/DTD/svg11-tiny.dtd">
<svg baseProfile="tiny" height="33.65878mm" width="28.98203mm" viewBox="-0.00082 0.00035 28.98203 33.65878" version="1.1" stroke="black" stroke-width=".1" fill="none" xmlns="http://www.w3.org/2000/svg">
<path stroke="#000000" d="M 21.19239 3.70290 L 21.24315 3.83686 L 21.35107 3.93245 L 21.49020 3.96667 L 21.53618 3.95756 L 21.67531 3.92335 L 21.71597 3.89666 L 21.82390 3.80107 L 21.85422 3.75880 L 21.90497 3.62484 L 21.92068 3.57041 L 21.91810 3.50795 L 21.90071 3.36511 L 21.87799 3.30011 L 21.79654 3.18219 L 21.75288 3.12026 L 21.68916 3.06713 L 21.56187 3.00035 L 21.47994 2.96151 L 21.38290 2.94211 L 21.23956 2.94211 L 21.13230 2.94646 L 21.02106 2.97732 L 20.89377 3.04410 L 20.78436 3.10388 L 20.68470 3.19158 L 20.60150 3.30558 L 20.52004 3.42350 L 20.45978 3.56006 L 20.42807 3.71482 L 20.41069 3.85766 L 20.41256 4.02504 L 20.45158 4.19727 L 20.50233 4.33124 L 20.57976 4.49930 L 20.69673 4.65565 L 20.80465 4.75125 L 20.95734 4.88558 L 21.14168 4.99005 L 21.35107 5.05745 L 21.49020 5.09167 L 21.71779 5.11623 L 21.95551 5.09309 L 22.09464 5.05888 L 22.33186 4.98519 L 22.55674 4.86120 L 22.76004 4.68703 L 22.86796 4.59143 L 23.03697 4.37376 L 23.16270 4.11907 L 23.21346 3.98511 L 23.28800 3.70290 L 23.30542 3.40248 L 23.28804 3.25964 L 23.24363 2.95157 L 23.13527 2.64937 L 22.96471 2.36767 L 22.88326 2.24975 L 22.65189 1.99950 L 22.36923 1.79582 L 22.24194 1.72904 L 21.91691 1.58204 L 21.56187 1.50035 L 21.18862 1.49007 L 21.04527 1.49007 L 20.66686 1.55574 L 20.29967 1.69877 L 20.17239 1.76555 L 19.83388 1.98268 L 19.53668 2.27125 L 19.45522 2.38917 L 19.21687 2.73681 L 19.04860 3.13219 L 18.95978 3.56006 L 18.94239 3.70290 L 18.93925 4.14898 L 19.02619 4.59773 L 19.07694 4.73169 L 19.25464 5.16387 L 19.52081 5.56167 L 19.86410 5.90334 L 19.97202 5.99894 L 20.38465 6.27196 L 20.85037 6.46149 L 20.98949 6.49570 L 21.49020 6.59167 L 22.00911 6.58767 L 22.52820 6.47946 L 22.66733 6.44525 L 23.16449 6.23288 L 23.61663 5.92262 L 23.72456 5.82703 L 24.11565 5.42407 L 24.42334 4.94645 L 24.63414 4.41039 L 24.68490 4.27643 L 24.78800 3.70290 L 24.77686 3.11116 L 24.75948 2.96832 L 24.63000 2.37888 L 24.38296 1.81673 L 24.30150 1.69881 L 23.94144 1.18661 L 23.48452 0.75181 L 22.94192 0.40945 L 22.81464 0.34267 L 22.20823 0.11060 L 21.56187 0.00035 L 21.41852 0.00035 L 20.75395 0.01863 L 20.41852 0.07535 L 19.97712 0.23831 L 19.53335 0.39479 L 19.09202 0.55798 L 18.65927 0.74247 L 18.53199 0.80925 L 18.13323 1.05694 L 17.78329 1.37112 L 17.46584 1.71825 L 17.18702 2.09686 L 17.10557 2.21478 L 16.86845 2.62112 L 16.65242 3.03911 L 16.45240 3.46501 L 16.27020 3.89880 L 16.11867 4.34410 L 15.99783 4.79884 L 15.89105 5.25710 L 15.79184 5.71707 L 15.69681 6.17793 L 15.60348 6.63913 L 15.50924 7.10015 L 15.40978 7.56006 L 15.39239 7.70290 L 15.41138 7.75303 L 15.26911 7.72478 L 15.07467 7.70478 L 14.49020 7.66667 L 13.90573 7.70478 L 13.71128 7.72478 L 13.56901 7.75303 L 13.58800 7.70290 L 13.57062 7.56006 L 13.47115 7.10015 L 13.37692 6.63913 L 13.28358 6.17793 L 13.18855 5.71707 L 13.08935 5.25710 L 12.98256 4.79884 L 12.86172 4.34410 L 12.71020 3.89880 L 12.52800 3.46501 L 12.32798 3.03911 L 12.11194 2.62112 L 11.87483 2.21478 L 11.79337 2.09686 L 11.51455 1.71825 L 11.19711 1.37112 L 10.84716 1.05694 L 10.44841 0.80925 L 10.32112 0.74247 L 9.88837 0.55798 L 9.44704 0.39479 L 9.00327 0.23831 L 8.56187 0.07535 L 8.22644 0.01863 L 7.56187 0.00035 L 7.41852 0.00035 L 6.77216 0.11060 L 6.16576 0.34267 L 6.03847 0.40945 L 5.49587 0.75181 L 5.03895 1.18661 L 4.67889 1.69881 L 4.59743 1.81673 L 4.35039 2.37888 L 4.22092 2.96832 L 4.20353 3.11116 L 4.19239 3.70290 L 4.29550 4.27643 L 4.34625 4.41039 L 4.55705 4.94645 L 4.86474 5.42407 L 5.25584 5.82703 L 5.36376 5.92262 L 5.81590 6.23288 L 6.31306 6.44525 L 6.45219 6.47946 L 6.97129 6.58767 L 7.49020 6.59167 L 7.99090 6.49570 L 8.13003 6.46149 L 8.59574 6.27196 L 9.00837 5.99894 L 9.11629 5.90334 L 9.45958 5.56167 L 9.72575 5.16387 L 9.90345 4.73169 L 9.95420 4.59773 L 10.04114 4.14898 L 10.03800 3.70290 L 10.02062 3.56006 L 9.93179 3.13219 L 9.76352 2.73681 L 9.52518 2.38917 L 9.44372 2.27125 L 9.14652 1.98268 L 8.80801 1.76555 L 8.68072 1.69877 L 8.31353 1.55574 L 7.93512 1.49007 L 7.79177 1.49007 L 7.41852 1.50035 L 7.06348 1.58204 L 6.73845 1.72904 L 6.61116 1.79582 L 6.32850 1.99950 L 6.09714 2.24975 L 6.01568 2.36767 L 5.84512 2.64937 L 5.73676 2.95157 L 5.69236 3.25964 L 5.67497 3.40248 L 5.69239 3.70290 L 5.76693 3.98511 L 5.81769 4.11907 L 5.94342 4.37376 L 6.11243 4.59143 L 6.22035 4.68703 L 6.42366 4.86120 L 6.64853 4.98519 L 6.88576 5.05888 L 7.02488 5.09309 L 7.26260 5.11623 L 7.49020 5.09167 L 7.62932 5.05745 L 7.83871 4.99005 L 8.02305 4.88558 L 8.17574 4.75125 L 8.28366 4.65565 L 8.40064 4.49930 L 8.47806 4.33124 L 8.52881 4.19727 L 8.56783 4.02504 L 8.56970 3.85766 L 8.55232 3.71482 L 8.52062 3.56006 L 8.46035 3.42350 L 8.37889 3.30558 L 8.29569 3.19158 L 8.19603 3.10388 L 8.08662 3.04410 L 7.95933 2.97732 L 7.84809 2.94646 L 7.74084 2.94211 L 7.59749 2.94211 L 7.50045 2.96151 L 7.41852 3.00035 L 7.29124 3.06713 L 7.22751 3.12026 L 7.18386 3.18219 L 7.10240 3.30011 L 7.07968 3.36511 L 7.06229 3.50795 L 7.05971 3.57041 L 7.07542 3.62484 L 7.12617 3.75880 L 7.15650 3.80107 L 7.26442 3.89666 L 7.30509 3.92335 L 7.44421 3.95756 L 7.49020 3.96667 L 7.62932 3.93245 L 7.73725 3.83686 L 7.78800 3.70290 L 7.77062 3.56006 L 7.75556 3.53826 L 7.85378 3.59193 L 7.93288 3.70031 L 7.94964 3.73827 L 7.97409 3.85766 L 7.97300 3.95551 L 7.95059 4.05443 L 7.88400 4.19897 L 7.83765 4.26093 L 7.68496 4.39526 L 7.60604 4.43999 L 7.41852 4.50035 L 7.25890 4.51758 L 7.09656 4.50178 L 6.87347 4.43248 L 6.76175 4.37088 L 6.55844 4.19671 L 6.45326 4.06123 L 6.34516 3.84227 L 6.28228 3.60421 L 6.27058 3.40248 L 6.31498 3.09441 L 6.37926 2.91516 L 6.54315 2.64447 L 6.72514 2.44763 L 6.94925 2.28614 L 7.26437 2.14362 L 7.49020 2.09167 L 7.86345 2.08138 L 8.14934 2.13100 L 8.46992 2.25588 L 8.78053 2.45511 L 8.99771 2.66597 L 9.23605 3.01361 L 9.35953 3.30374 L 9.44239 3.70290 L 9.44517 4.09774 L 9.37598 4.45489 L 9.19828 4.88707 L 9.00592 5.17456 L 8.67028 5.50862 L 8.31646 5.74272 L 7.91922 5.90439 L 7.42406 5.99929 L 7.04296 5.99636 L 6.52387 5.88815 L 6.10609 5.70969 L 5.70185 5.43230 L 5.32708 5.04616 L 5.08452 4.66965 L 4.87372 4.13359 L 4.78879 3.66114 L 4.79914 3.11116 L 4.92050 2.55865 L 5.12490 2.09354 L 5.48496 1.58134 L 5.85612 1.22815 L 6.37656 0.89977 L 6.93355 0.68661 L 7.49020 0.59167 L 8.15476 0.60995 L 8.40447 0.65217 L 8.79247 0.79541 L 9.23624 0.95189 L 9.67757 1.11508 L 10.11032 1.29957 L 10.50438 1.54434 L 10.75110 1.76584 L 11.06854 2.11297 L 11.34736 2.49158 L 11.58447 2.89792 L 11.80051 3.31591 L 12.00053 3.74181 L 12.15550 4.11077 L 12.28349 4.48694 L 12.40434 4.94167 L 12.51112 5.39994 L 12.61033 5.85991 L 12.70536 6.32077 L 12.79869 6.78197 L 12.89293 7.24299 L 12.99239 7.70290 L 13.04315 7.83686 L 13.06821 7.85906 L 12.94379 7.89676 L 12.38977 8.08448 L 11.85535 8.34792 L 11.68214 8.44049 L 11.19172 8.76875 L 11.03996 8.89194 L 10.59862 9.27965 L 10.21547 9.71643 L 10.09228 9.86819 L 9.76402 10.35861 L 9.67145 10.53182 L 9.40801 11.06624 L 9.22028 11.62026 L 9.16336 11.80817 L 9.04831 12.38775 L 9.02831 12.58220 L 9.02689 12.60406 L 8.61326 12.67774 L 7.78515 12.90062 L 7.59724 12.95754 L 6.77876 13.25573 L 5.97660 13.63065 L 5.80340 13.72322 L 5.06106 14.15261 L 4.34448 14.65458 L 4.19272 14.77777 L 3.52730 15.33628 L 2.90549 15.95848 L 2.34262 16.63051 L 2.21943 16.78227 L 1.72307 17.49236 L 1.28346 18.25539 L 1.19090 18.42859 L 0.82465 19.21636 L 0.52816 20.03295 L 0.47123 20.22086 L 0.24417 21.07168 L 0.09468 21.92506 L 0.07468 22.11950 L -0.00082 22.99286 L 0.00059 23.87251 L 0.07785 24.73781 L 0.09785 24.93226 L 0.25127 25.79360 L 0.47414 26.62171 L 0.53107 26.80962 L 0.82926 27.62810 L 1.20418 28.43026 L 1.29675 28.60346 L 1.72614 29.34580 L 2.22811 30.06238 L 2.35130 30.21414 L 2.90981 30.87956 L 3.53201 31.50137 L 4.20404 32.06425 L 4.35580 32.18744 L 5.06589 32.68379 L 5.82892 33.12340 L 6.00212 33.21597 L 6.78989 33.58221 L 6.97780 33.63914 L 7.17225 33.65914 L 7.36669 33.63914 L 7.55460 33.58221 L 7.72780 33.48965 L 7.87956 33.36645 L 8.00275 33.21469 L 8.09532 33.04149 L 8.72233 31.52362 L 8.87857 31.62481 L 9.05177 31.71738 L 9.82468 32.12603 L 10.64678 32.47170 L 11.48776 32.74040 L 11.67566 32.79732 L 12.54468 32.99216 L 13.40862 33.10724 L 13.60306 33.12724 L 14.49020 33.16667 L 15.37733 33.12724 L 15.57178 33.10724 L 16.43571 32.99216 L 17.30473 32.79732 L 17.49264 32.74040 L 18.33361 32.47170 L 19.15571 32.12603 L 19.92862 31.71738 L 20.10182 31.62481 L 20.25806 31.52362 L 20.88507 33.04149 L 20.97764 33.21469 L 21.10083 33.36645 L 21.25259 33.48965 L 21.42579 33.58221 L 21.61370 33.63914 L 21.80815 33.65914 L 22.00259 33.63914 L 22.19050 33.58221 L 22.97827 33.21597 L 23.15147 33.12340 L 23.91450 32.68379 L 24.62459 32.18744 L 24.77635 32.06425 L 25.44838 31.50137 L 26.07059 30.87956 L 26.62910 30.21414 L 26.75229 30.06238 L 27.25425 29.34580 L 27.68364 28.60346 L 27.77621 28.43026 L 28.15114 27.62810 L 28.44932 26.80962 L 28.50625 26.62171 L 28.72913 25.79360 L 28.88254 24.93226 L 28.90254 24.73781 L 28.97980 23.87251 L 28.98121 22.99286 L 28.90571 22.11950 L 28.88571 21.92506 L 28.73622 21.07168 L 28.50916 20.22086 L 28.45224 20.03295 L 28.15574 19.21636 L 27.78950 18.42859 L 27.69693 18.25539 L 27.25732 17.49236 L 26.76097 16.78227 L 26.63777 16.63051 L 26.07490 15.95848 L 25.45309 15.33628 L 24.78767 14.77777 L 24.63591 14.65458 L 23.91933 14.15261 L 23.17699 13.72322 L 23.00379 13.63065 L 22.20163 13.25573 L 21.38315 12.95754 L 21.19524 12.90062 L 20.36713 12.67774 L 19.95350 12.60406 L 19.95208 12.58220 L 19.93208 12.38775 L 19.81703 11.80817 L 19.76011 11.62026 L 19.57238 11.06624 L 19.30894 10.53182 L 19.21638 10.35861 L 18.88811 9.86819 L 18.76492 9.71643 L 18.37721 9.27509 L 17.94043 8.89194 L 17.78867 8.76875 L 17.29825 8.44049 L 17.12505 8.34792 L 16.59063 8.08448 L 16.03661 7.89676 L 15.91218 7.85906 L 15.93725 7.83686 L 15.98800 7.70290 L 16.08747 7.24299 L 16.18170 6.78197 L 16.27503 6.32077 L 16.37007 5.85991 L 16.46927 5.39994 L 16.57605 4.94167 L 16.69690 4.48694 L 16.82490 4.11077 L 16.97987 3.74181 L 17.17989 3.31591 L 17.39592 2.89792 L 17.63303 2.49158 L 17.91185 2.11297 L 18.22930 1.76584 L 18.47601 1.54434 L 18.87008 1.29957 L 19.30282 1.11508 L 19.74415 0.95189 L 20.18792 0.79541 L 20.57592 0.65217 L 20.82563 0.60995 L 21.49020 0.59167 L 22.04684 0.68661 L 22.60383 0.89977 L 23.12427 1.22815 L 23.49543 1.58134 L 23.85549 2.09354 L 24.05989 2.55865 L 24.18125 3.11116 L 24.19161 3.66114 L 24.10667 4.13359 L 23.89587 4.66965 L 23.65331 5.04616 L 23.27855 5.43230 L 22.87430 5.70969 L 22.45653 5.88815 L 21.93743 5.99636 L 21.55633 5.99929 L 21.06117 5.90439 L 20.66393 5.74272 L 20.31011 5.50862 L 19.97447 5.17456 L 19.78211 4.88707 L 19.60441 4.45489 L 19.53522 4.09774 L 19.53800 3.70290 L 19.62086 3.30374 L 19.74434 3.01361 L 19.98269 2.66597 L 20.19986 2.45511 L 20.51047 2.25588 L 20.83106 2.13100 L 21.11695 2.08138 L 21.49020 2.09167 L 21.71603 2.14362 L 22.03114 2.28614 L 22.25526 2.44763 L 22.43724 2.64447 L 22.60114 2.91516 L 22.66541 3.09441 L 22.70981 3.40248 L 22.69811 3.60421 L 22.63523 3.84227 L 22.52714 4.06123 L 22.42195 4.19671 L 22.21865 4.37088 L 22.10692 4.43248 L 21.88383 4.50178 L 21.72149 4.51758 L 21.56187 4.50035 L 21.37436 4.43999 L 21.29543 4.39526 L 21.14274 4.26093 L 21.09639 4.19897 L 21.02980 4.05443 L 21.00739 3.95551 L 21.00630 3.85766 L 21.03075 3.73827 L 21.04751 3.70031 L 21.12661 3.59193 L 21.22483 3.53826 L 21.20978 3.56006 z"/>
</svg>
