<?xml version="1.0" encoding="UTF-8"?>
<!-- Generated by jsxcad -->
<!DOCTYPE svg PUBLIC "-//W3C//DTD SVG 1.1 Tiny//EN" "http://www.w3.org/Graphics/SVG/1.1/DTD/svg11-tiny.dtd">
<svg baseProfile="tiny" height="19.23349mm" width="26.98203mm" viewBox="-0.00082 -0.00027 26.98203 19.23349" version="1.1" stroke="black" stroke-width=".1" fill="none" xmlns="http://www.w3.org/2000/svg">
<path stroke="#000000" d="M 6.17225 19.23321 L 13.80815 0.74827 L 12.99156 0.45178 L 12.14073 0.22472 L 11.28736 0.07523 L 10.41400 -0.00027 L 9.53435 0.00114 L 8.66905 0.07840 L 7.80770 0.23181 L 6.97959 0.45469 L 6.16111 0.75288 L 5.35896 1.12781 L 4.61662 1.55720 L 3.90004 2.05916 L 3.23462 2.61767 L 2.61281 3.23987 L 2.04993 3.91190 L 1.55358 4.62199 L 1.11397 5.38502 L 0.74773 6.17279 L 0.45123 6.98937 L 0.22417 7.84020 L 0.07468 8.69358 L -0.00082 9.56693 L 0.00059 10.44658 L 0.07785 11.31189 L 0.23127 12.17323 L 0.45414 13.00134 L 0.75233 13.81982 L 1.12726 14.62198 L 1.55665 15.36432 L 2.05861 16.08090 L 2.61712 16.74632 L 3.23933 17.36813 L 3.91136 17.93100 L 4.62145 18.42736 L 5.38448 18.86696 z"/>
<path stroke="#000000" d="M 7.93871 10.76624 L 8.20317 10.83508 L 8.47417 10.83011 L 8.73603 10.75158 L 8.96613 10.60565 L 9.14801 10.40345 L 9.26885 10.15921 L 9.31924 9.89224 L 9.29588 9.62147 L 9.19947 9.36511 L 9.03962 9.14710 L 8.82422 8.97812 L 8.57331 8.87448 L 8.30145 8.84217 L 8.03434 8.88381 L 7.78512 8.99739 L 7.57747 9.17274 L 7.42475 9.39744 L 7.33800 9.65576 L 7.32415 9.92737 L 7.38419 10.19315 L 7.51427 10.43359 L 7.70276 10.62837 z"/>
<path stroke="#000000" d="M 8.55771 6.91048 L 8.88123 7.00328 L 9.21688 7.02162 L 9.54726 6.96503 L 9.85704 6.83636 L 10.13030 6.64224 L 10.35418 6.39150 L 10.51677 6.09681 L 10.60956 5.77328 L 10.62790 5.43764 L 10.57131 5.10726 L 10.44265 4.79747 L 10.24853 4.52422 L 9.99779 4.30033 L 9.70309 4.13774 L 9.37956 4.04495 L 9.04392 4.02661 L 8.71354 4.08320 L 8.40376 4.21187 L 8.13050 4.40599 L 7.90662 4.65673 L 7.74403 4.95142 L 7.65124 5.27495 L 7.63289 5.61059 L 7.68949 5.94097 L 7.81815 6.25076 L 8.01227 6.52401 L 8.26301 6.74790 z"/>
<path stroke="#000000" d="M 11.09154 2.87196 L 11.35600 2.94081 L 11.62700 2.93584 L 11.88886 2.85730 L 12.11896 2.71137 L 12.30084 2.50917 L 12.42169 2.26494 L 12.47207 1.99796 L 12.44872 1.72719 L 12.35231 1.47083 L 12.19245 1.25282 L 11.97705 1.08384 L 11.72615 0.98020 L 11.45428 0.94789 L 11.18717 0.98953 L 10.93795 1.10311 L 10.73031 1.27846 L 10.57758 1.50316 L 10.49083 1.76148 L 10.47699 2.03309 L 10.53702 2.29887 L 10.66710 2.53931 L 10.85559 2.73409 z"/>
<path stroke="#000000" d="M 5.23533 8.40525 L 5.52522 8.48265 L 5.82633 8.48229 L 6.11627 8.40409 L 6.37477 8.25450 L 6.58753 8.04143 L 6.73728 7.78143 L 6.81468 7.49154 L 6.81432 7.19044 L 6.73612 6.90050 L 6.58653 6.64200 L 6.37346 6.42924 L 6.11346 6.27948 L 5.82357 6.20208 L 5.52247 6.20245 L 5.23253 6.28065 L 4.97403 6.43024 L 4.76127 6.64330 L 4.61151 6.90330 L 4.53411 7.19319 L 4.53448 7.49430 L 4.61268 7.78424 L 4.76227 8.04274 L 4.97533 8.25550 z"/>
<path stroke="#000000" d="M 7.41156 3.13704 L 7.70145 3.21444 L 8.00256 3.21408 L 8.29250 3.13588 L 8.55100 2.98629 L 8.76376 2.77323 L 8.91351 2.51322 L 8.99091 2.22333 L 8.99055 1.92223 L 8.91235 1.63229 L 8.76276 1.37379 L 8.54969 1.16103 L 8.28969 1.01128 L 7.99980 0.93388 L 7.69870 0.93424 L 7.40876 1.01244 L 7.15026 1.16203 L 6.93750 1.37509 L 6.78774 1.63510 L 6.71034 1.92499 L 6.71071 2.22609 L 6.78891 2.51603 L 6.93850 2.77453 L 7.15156 2.98729 z"/>
<path stroke="#000000" d="M 4.24389 4.91211 L 4.50835 4.98095 L 4.77936 4.97598 L 5.04121 4.89745 L 5.27131 4.75152 L 5.45319 4.54932 L 5.57404 4.30508 L 5.62442 4.03811 L 5.60107 3.76734 L 5.50466 3.51098 L 5.34480 3.29297 L 5.12940 3.12399 L 4.87850 3.02035 L 4.60664 2.98804 L 4.33952 3.02968 L 4.09030 3.14326 L 3.88266 3.31861 L 3.72994 3.54331 L 3.64318 3.80163 L 3.62934 4.07324 L 3.68937 4.33902 L 3.81946 4.57946 L 4.00794 4.77424 z"/>
<path stroke="#000000" d="M 1.71809 9.06215 L 1.99538 9.13618 L 2.28339 9.13583 L 2.56072 9.06104 L 2.80798 8.91795 L 3.01149 8.71415 L 3.15474 8.46545 L 3.22877 8.18816 L 3.22842 7.90015 L 3.15363 7.62282 L 3.01054 7.37556 L 2.80674 7.17205 L 2.55804 7.02881 L 2.28075 6.95477 L 1.99274 6.95512 L 1.71541 7.02992 L 1.46815 7.17300 L 1.26464 7.37680 L 1.12139 7.62550 L 1.04736 7.90279 L 1.04771 8.19080 L 1.12251 8.46813 L 1.26559 8.71539 L 1.46939 8.91891 z"/>
<path stroke="#000000" d="M 2.99786 12.51210 L 3.32139 12.60489 L 3.65703 12.62324 L 3.98741 12.56665 L 4.29720 12.43798 L 4.57045 12.24386 L 4.79434 11.99312 L 4.95693 11.69843 L 5.04972 11.37490 L 5.06806 11.03925 L 5.01147 10.70888 L 4.88280 10.39909 L 4.68868 10.12583 L 4.43794 9.90195 L 4.14325 9.73936 L 3.81972 9.64657 L 3.48408 9.62823 L 3.15370 9.68482 L 2.84391 9.81349 L 2.57066 10.00761 L 2.34677 10.25835 L 2.18418 10.55304 L 2.09139 10.87657 L 2.07305 11.21221 L 2.12964 11.54259 L 2.25831 11.85237 L 2.45243 12.12563 L 2.70317 12.34951 z"/>
<path stroke="#000000" d="M 5.67308 15.72703 L 5.96297 15.80443 L 6.26407 15.80406 L 6.55401 15.72586 L 6.81251 15.57627 L 7.02527 15.36321 L 7.17502 15.10321 L 7.25242 14.81332 L 7.25206 14.51221 L 7.17386 14.22227 L 7.02427 13.96377 L 6.81121 13.75101 L 6.55120 13.60126 L 6.26131 13.52386 L 5.96021 13.52422 L 5.67027 13.60242 L 5.41177 13.75201 L 5.19901 13.96508 L 5.04926 14.22508 L 4.97186 14.51497 L 4.97222 14.81607 L 5.05042 15.10601 L 5.20001 15.36451 L 5.41307 15.57727 z"/>
<path stroke="#000000" d="M 2.77672 15.66664 L 3.04118 15.73548 L 3.31219 15.73051 L 3.57404 15.65198 L 3.80414 15.50605 L 3.98602 15.30385 L 4.10687 15.05961 L 4.15726 14.79264 L 4.13390 14.52187 L 4.03749 14.26551 L 3.87763 14.04750 L 3.66223 13.87852 L 3.41133 13.77488 L 3.13947 13.74257 L 2.87236 13.78421 L 2.62313 13.89779 L 2.41549 14.07314 L 2.26277 14.29784 L 2.17601 14.55616 L 2.16217 14.82777 L 2.22220 15.09355 L 2.35229 15.33399 L 2.54078 15.52877 z"/>
<path stroke="#000000" d="M 20.80815 19.23321 L 21.59592 18.86696 L 22.35894 18.42736 L 23.06903 17.93100 L 23.74106 17.36813 L 24.36327 16.74632 L 24.92178 16.08090 L 25.42374 15.36432 L 25.85313 14.62198 L 26.22806 13.81982 L 26.52625 13.00134 L 26.74913 12.17323 L 26.90254 11.31189 L 26.97980 10.44658 L 26.98121 9.56693 L 26.90571 8.69358 L 26.75622 7.84020 L 26.52916 6.98937 L 26.23267 6.17279 L 25.86642 5.38502 L 25.42682 4.62199 L 24.93046 3.91190 L 24.36758 3.23987 L 23.74577 2.61767 L 23.08035 2.05916 L 22.36377 1.55720 L 21.62143 1.12781 L 20.81928 0.75288 L 20.00080 0.45469 L 19.17269 0.23181 L 18.31134 0.07840 L 17.44604 0.00114 L 16.56639 -0.00027 L 15.69303 0.07523 L 14.83966 0.22472 L 13.98883 0.45178 L 13.17225 0.74827 z"/>
<path stroke="#000000" d="M 19.04168 10.76624 L 19.27763 10.62837 L 19.46612 10.43359 L 19.59621 10.19315 L 19.65624 9.92737 L 19.64239 9.65576 L 19.55564 9.39744 L 19.40292 9.17274 L 19.19528 8.99739 L 18.94605 8.88381 L 18.67894 8.84217 L 18.40708 8.87448 L 18.15618 8.97812 L 17.94077 9.14710 L 17.78092 9.36511 L 17.68451 9.62147 L 17.66115 9.89224 L 17.71154 10.15921 L 17.83239 10.40345 L 18.01426 10.60565 L 18.24437 10.75158 L 18.50622 10.83011 L 18.77722 10.83508 z"/>
<path stroke="#000000" d="M 18.42269 6.91048 L 18.71738 6.74790 L 18.96812 6.52401 L 19.16224 6.25076 L 19.29091 5.94097 L 19.34750 5.61059 L 19.32915 5.27495 L 19.23636 4.95142 L 19.07377 4.65673 L 18.84989 4.40599 L 18.57663 4.21187 L 18.26685 4.08320 L 17.93647 4.02661 L 17.60083 4.04495 L 17.27730 4.13774 L 16.98261 4.30033 L 16.73187 4.52422 L 16.53775 4.79747 L 16.40908 5.10726 L 16.35249 5.43764 L 16.37083 5.77328 L 16.46362 6.09681 L 16.62621 6.39150 L 16.85009 6.64224 L 17.12335 6.83636 L 17.43314 6.96503 L 17.76351 7.02162 L 18.09916 7.00328 z"/>
<path stroke="#000000" d="M 15.88885 2.87196 L 16.12480 2.73409 L 16.31329 2.53931 L 16.44337 2.29887 L 16.50340 2.03309 L 16.48956 1.76148 L 16.40281 1.50316 L 16.25009 1.27846 L 16.04244 1.10311 L 15.79322 0.98953 L 15.52611 0.94789 L 15.25424 0.98020 L 15.00334 1.08384 L 14.78794 1.25282 L 14.62809 1.47083 L 14.53167 1.72719 L 14.50832 1.99796 L 14.55870 2.26494 L 14.67955 2.50917 L 14.86143 2.71137 L 15.09153 2.85730 L 15.35339 2.93584 L 15.62439 2.94081 z"/>
<path stroke="#000000" d="M 21.74506 8.40525 L 22.00506 8.25550 L 22.21813 8.04274 L 22.36772 7.78424 L 22.44591 7.49430 L 22.44628 7.19319 L 22.36888 6.90330 L 22.21913 6.64330 L 22.00636 6.43024 L 21.74786 6.28065 L 21.45793 6.20245 L 21.15682 6.20208 L 20.86693 6.27948 L 20.60693 6.42924 L 20.39386 6.64200 L 20.24427 6.90050 L 20.16608 7.19044 L 20.16571 7.49154 L 20.24311 7.78143 L 20.39287 8.04143 L 20.60563 8.25450 L 20.86413 8.40409 L 21.15406 8.48229 L 21.45517 8.48265 z"/>
<path stroke="#000000" d="M 19.56883 3.13704 L 19.82883 2.98729 L 20.04190 2.77453 L 20.19148 2.51603 L 20.26968 2.22609 L 20.27005 1.92499 L 20.19265 1.63510 L 20.04289 1.37509 L 19.83013 1.16203 L 19.57163 1.01244 L 19.28170 0.93424 L 18.98059 0.93388 L 18.69070 1.01128 L 18.43070 1.16103 L 18.21763 1.37379 L 18.06804 1.63229 L 17.98984 1.92223 L 17.98948 2.22333 L 18.06688 2.51322 L 18.21663 2.77323 L 18.42940 2.98629 L 18.68789 3.13588 L 18.97783 3.21408 L 19.27894 3.21444 z"/>
<path stroke="#000000" d="M 22.73650 4.91211 L 22.97245 4.77424 L 23.16094 4.57946 L 23.29102 4.33902 L 23.35105 4.07324 L 23.33721 3.80163 L 23.25046 3.54331 L 23.09774 3.31861 L 22.89009 3.14326 L 22.64087 3.02968 L 22.37376 2.98804 L 22.10189 3.02035 L 21.85099 3.12399 L 21.63559 3.29297 L 21.47574 3.51098 L 21.37932 3.76734 L 21.35597 4.03811 L 21.40635 4.30508 L 21.52720 4.54932 L 21.70908 4.75152 L 21.93918 4.89745 L 22.20104 4.97598 L 22.47204 4.98095 z"/>
<path stroke="#000000" d="M 25.26230 9.06215 L 25.51100 8.91891 L 25.71480 8.71539 L 25.85789 8.46813 L 25.93268 8.19080 L 25.93303 7.90279 L 25.85900 7.62550 L 25.71576 7.37680 L 25.51224 7.17300 L 25.26498 7.02992 L 24.98765 6.95512 L 24.69964 6.95477 L 24.42235 7.02881 L 24.17365 7.17205 L 23.96985 7.37556 L 23.82677 7.62282 L 23.75197 7.90015 L 23.75162 8.18816 L 23.82565 8.46545 L 23.96890 8.71415 L 24.17241 8.91795 L 24.41967 9.06104 L 24.69700 9.13583 L 24.98501 9.13618 z"/>
<path stroke="#000000" d="M 23.98253 12.51210 L 24.27722 12.34951 L 24.52796 12.12563 L 24.72208 11.85237 L 24.85075 11.54259 L 24.90734 11.21221 L 24.88900 10.87657 L 24.79621 10.55304 L 24.63362 10.25835 L 24.40974 10.00761 L 24.13648 9.81349 L 23.82669 9.68482 L 23.49632 9.62823 L 23.16067 9.64657 L 22.83714 9.73936 L 22.54245 9.90195 L 22.29171 10.12583 L 22.09759 10.39909 L 21.96892 10.70888 L 21.91233 11.03925 L 21.93068 11.37490 L 22.02347 11.69843 L 22.18606 11.99312 L 22.40994 12.24386 L 22.68320 12.43798 L 22.99298 12.56665 L 23.32336 12.62324 L 23.65900 12.60489 z"/>
<path stroke="#000000" d="M 21.30732 15.72703 L 21.56732 15.57727 L 21.78038 15.36451 L 21.92997 15.10601 L 22.00817 14.81607 L 22.00854 14.51497 L 21.93114 14.22508 L 21.78138 13.96508 L 21.56862 13.75201 L 21.31012 13.60242 L 21.02018 13.52422 L 20.71908 13.52386 L 20.42919 13.60126 L 20.16919 13.75101 L 19.95612 13.96377 L 19.80653 14.22227 L 19.72833 14.51221 L 19.72797 14.81332 L 19.80537 15.10321 L 19.95512 15.36321 L 20.16788 15.57627 L 20.42638 15.72586 L 20.71632 15.80406 L 21.01743 15.80443 z"/>
<path stroke="#000000" d="M 24.20367 15.66664 L 24.43962 15.52877 L 24.62810 15.33399 L 24.75819 15.09355 L 24.81822 14.82777 L 24.80438 14.55616 L 24.71763 14.29784 L 24.56490 14.07314 L 24.35726 13.89779 L 24.10804 13.78421 L 23.84092 13.74257 L 23.56906 13.77488 L 23.31816 13.87852 L 23.10276 14.04750 L 22.94290 14.26551 L 22.84649 14.52187 L 22.82314 14.79264 L 22.87352 15.05961 L 22.99437 15.30385 L 23.17625 15.50605 L 23.40635 15.65198 L 23.66820 15.73051 L 23.93921 15.73548 z"/>
</svg>
