<?xml version="1.0" encoding="UTF-8"?>
<!-- Generated by jsxcad -->
<!DOCTYPE svg PUBLIC "-//W3C//DTD SVG 1.1 Tiny//EN" "http://www.w3.org/Graphics/SVG/1.1/DTD/svg11-tiny.dtd">
<svg baseProfile="tiny" height="19.65963mm" width="27.00000mm" viewBox="-0.00000 -0.00000 27.00000 19.65963" version="1.1" stroke="black" stroke-width=".1" fill="none" xmlns="http://www.w3.org/2000/svg">
<path stroke="#000000" d="M 7.41321 19.65963 L 12.58679 0.34037 L 11.73865 0.15230 L 10.86556 0.03753 L 10.00000 0.00000 L 9.12423 0.03842 L 8.25219 0.15393 L 7.40422 0.34278 L 6.57005 0.60663 L 5.77785 0.93504 L 5.00497 1.33688 L 4.25822 1.81269 L 3.57786 2.33475 L 2.93244 2.92542 L 2.34509 3.56553 L 1.80925 4.26314 L 1.33830 5.00250 L 0.93825 5.77098 L 0.60133 6.58458 L 0.34037 7.41321 L 0.15230 8.26135 L 0.03753 9.13444 L 0.00000 10.00000 L 0.03842 10.87577 L 0.15393 11.74781 L 0.34278 12.59578 L 0.60663 13.42995 L 0.93504 14.22215 L 1.33688 14.99503 L 1.81269 15.74178 L 2.33475 16.42214 L 2.92542 17.06756 L 3.56553 17.65491 L 4.26314 18.19075 L 5.00250 18.66170 L 5.77098 19.06175 L 6.58458 19.39867 z"/>
<path stroke="#000000" d="M 8.06644 11.03506 L 8.33760 11.06902 L 8.60566 11.02894 L 8.85512 10.91709 L 9.06435 10.74255 L 9.21846 10.51847 L 9.30661 10.26062 L 9.32194 9.98936 L 9.26365 9.72391 L 9.13480 9.48223 L 8.94802 9.28679 L 8.71252 9.14718 L 8.45029 9.07696 L 8.17654 9.08019 L 7.91708 9.15613 L 7.68470 9.30107 L 7.50155 9.50188 L 7.37927 9.74449 L 7.32676 10.01188 L 7.34826 10.28299 L 7.44226 10.53874 L 7.60244 10.76028 L 7.81460 10.92896 z"/>
<path stroke="#000000" d="M 8.18005 7.13159 L 8.51289 7.18163 L 8.84807 7.15628 L 9.16832 7.05731 L 9.45880 6.88954 L 9.70456 6.66162 L 9.89403 6.38396 L 10.01702 6.07066 L 10.06706 5.73783 L 10.04171 5.40264 L 9.94274 5.08240 L 9.77498 4.79192 L 9.54705 4.54615 L 9.26939 4.35669 L 8.95609 4.23370 L 8.62326 4.18366 L 8.28807 4.20901 L 7.96783 4.30798 L 7.67735 4.47574 L 7.43158 4.70367 L 7.24212 4.98133 L 7.11913 5.29462 L 7.06909 5.62745 L 7.09444 5.96264 L 7.19341 6.28289 L 7.36117 6.57336 L 7.58910 6.81913 L 7.86676 7.00860 z"/>
<path stroke="#000000" d="M 10.16862 2.79850 L 10.43977 2.83246 L 10.70784 2.79238 L 10.95730 2.68054 L 11.16653 2.50599 L 11.32064 2.28192 L 11.40879 2.02407 L 11.42411 1.75281 L 11.36583 1.48735 L 11.23698 1.24567 L 11.05020 1.05024 L 10.81470 0.91063 L 10.55247 0.84040 L 10.27871 0.84364 L 10.01926 0.91957 L 9.78687 1.06452 L 9.60373 1.26532 L 9.48145 1.50794 L 9.42894 1.77533 L 9.45044 2.04644 L 9.54444 2.30218 L 9.70462 2.52372 L 9.91678 2.69241 z"/>
<path stroke="#000000" d="M 5.07965 9.04469 L 5.37713 9.08383 L 5.67564 9.04441 L 5.95299 8.92927 L 6.18990 8.74741 L 6.37322 8.50854 L 6.48799 8.23131 L 6.52713 7.93383 L 6.48771 7.63532 L 6.37256 7.35797 L 6.19070 7.12106 L 5.95184 6.93774 L 5.67461 6.82297 L 5.37713 6.78383 L 5.07861 6.82325 L 4.80127 6.93840 L 4.56436 7.12026 L 4.38103 7.35912 L 4.26627 7.63635 L 4.22713 7.93383 L 4.26655 8.23235 L 4.38169 8.50969 L 4.56355 8.74660 L 4.80242 8.92993 z"/>
<path stroke="#000000" d="M 6.55412 3.53870 L 6.85160 3.57784 L 7.15011 3.53842 L 7.42746 3.42327 L 7.66437 3.24142 L 7.84770 3.00255 L 7.96246 2.72532 L 8.00160 2.42784 L 7.96218 2.12933 L 7.84703 1.85198 L 7.66518 1.61507 L 7.42631 1.43175 L 7.14908 1.31698 L 6.85160 1.27784 L 6.55309 1.31726 L 6.27574 1.43241 L 6.03883 1.61427 L 5.85550 1.85313 L 5.74074 2.13036 L 5.70160 2.42784 L 5.74102 2.72636 L 5.85617 3.00370 L 6.03802 3.24061 L 6.27689 3.42394 z"/>
<path stroke="#000000" d="M 3.64346 5.70967 L 3.91462 5.74363 L 4.18269 5.70354 L 4.43214 5.59170 L 4.64137 5.41716 L 4.79549 5.19308 L 4.88363 4.93523 L 4.89896 4.66397 L 4.84068 4.39852 L 4.71183 4.15684 L 4.52505 3.96140 L 4.28954 3.82179 L 4.02732 3.75157 L 3.75356 3.75480 L 3.49411 3.83074 L 3.26172 3.97568 L 3.07858 4.17648 L 2.95629 4.41910 L 2.90378 4.68649 L 2.92529 4.95760 L 3.01929 5.21335 L 3.17946 5.43489 L 3.39163 5.60357 z"/>
<path stroke="#000000" d="M 1.67733 10.15228 L 1.96188 10.18972 L 2.24741 10.15202 L 2.51270 10.04187 L 2.73931 9.86792 L 2.91467 9.63945 L 3.02444 9.37427 L 3.06188 9.08972 L 3.02417 8.80419 L 2.91403 8.53890 L 2.74008 8.31229 L 2.51160 8.13693 L 2.24643 8.02716 L 1.96188 7.98972 L 1.67634 8.02743 L 1.41106 8.13757 L 1.18445 8.31152 L 1.00909 8.54000 L 0.89932 8.80517 L 0.86188 9.08972 L 0.89958 9.37526 L 1.00973 9.64054 L 1.18368 9.86715 L 1.41215 10.04251 z"/>
<path stroke="#000000" d="M 3.39381 13.40708 L 3.72664 13.45712 L 4.06182 13.43177 L 4.38207 13.33280 L 4.67255 13.16504 L 4.91831 12.93711 L 5.10778 12.65945 L 5.23077 12.34615 L 5.28081 12.01332 L 5.25546 11.67814 L 5.15649 11.35789 L 4.98873 11.06741 L 4.76080 10.82165 L 4.48314 10.63218 L 4.16984 10.50919 L 3.83701 10.45915 L 3.50183 10.48450 L 3.18158 10.58347 L 2.89110 10.75123 L 2.64534 10.97916 L 2.45587 11.25682 L 2.33288 11.57012 L 2.28284 11.90295 L 2.30819 12.23813 L 2.40716 12.55838 L 2.57492 12.84886 L 2.80285 13.09462 L 3.08051 13.28409 z"/>
<path stroke="#000000" d="M 6.46344 16.24782 L 6.76093 16.28696 L 7.05944 16.24754 L 7.33678 16.13240 L 7.57369 15.95054 L 7.75702 15.71168 L 7.87178 15.43445 L 7.91093 15.13696 L 7.87151 14.83845 L 7.75636 14.56111 L 7.57450 14.32419 L 7.33564 14.14087 L 7.05841 14.02611 L 6.76093 13.98696 L 6.46241 14.02638 L 6.18507 14.14153 L 5.94816 14.32339 L 5.76483 14.56225 L 5.65007 14.83948 L 5.61093 15.13696 L 5.65035 15.43548 L 5.76549 15.71282 L 5.94735 15.94973 L 6.18621 16.13306 z"/>
<path stroke="#000000" d="M 3.58373 16.56365 L 3.85489 16.59761 L 4.12296 16.55753 L 4.37241 16.44568 L 4.58164 16.27114 L 4.73575 16.04706 L 4.82390 15.78921 L 4.83923 15.51795 L 4.78094 15.25250 L 4.65209 15.01082 L 4.46531 14.81538 L 4.22981 14.67577 L 3.96758 14.60555 L 3.69383 14.60879 L 3.43437 14.68472 L 3.20199 14.82966 L 3.01884 15.03047 L 2.89656 15.27308 L 2.84405 15.54048 L 2.86555 15.81158 L 2.95955 16.06733 L 3.11973 16.28887 L 3.33189 16.45755 z"/>
<path stroke="#000000" d="M 19.58679 19.65963 L 20.41542 19.39867 L 21.22902 19.06175 L 21.99750 18.66170 L 22.73686 18.19075 L 23.43447 17.65491 L 24.07458 17.06756 L 24.66525 16.42214 L 25.18731 15.74178 L 25.66312 14.99503 L 26.06496 14.22215 L 26.39337 13.42995 L 26.65722 12.59578 L 26.84607 11.74781 L 26.96158 10.87577 L 27.00000 10.00000 L 26.96247 9.13444 L 26.84770 8.26135 L 26.65963 7.41321 L 26.39867 6.58458 L 26.06175 5.77098 L 25.66170 5.00250 L 25.19075 4.26314 L 24.65491 3.56553 L 24.06756 2.92542 L 23.42214 2.33475 L 22.74178 1.81269 L 21.99503 1.33688 L 21.22215 0.93504 L 20.42995 0.60663 L 19.59578 0.34278 L 18.74781 0.15393 L 17.87577 0.03842 L 17.00000 0.00000 L 16.13444 0.03753 L 15.26135 0.15230 L 14.41321 0.34037 z"/>
<path stroke="#000000" d="M 18.93356 11.03506 L 19.18540 10.92896 L 19.39756 10.76028 L 19.55774 10.53874 L 19.65174 10.28299 L 19.67324 10.01188 L 19.62073 9.74449 L 19.49845 9.50188 L 19.31530 9.30107 L 19.08292 9.15613 L 18.82346 9.08019 L 18.54971 9.07696 L 18.28748 9.14718 L 18.05198 9.28679 L 17.86520 9.48223 L 17.73635 9.72391 L 17.67806 9.98936 L 17.69339 10.26062 L 17.78154 10.51847 L 17.93565 10.74255 L 18.14488 10.91709 L 18.39434 11.02894 L 18.66240 11.06902 z"/>
<path stroke="#000000" d="M 18.81995 7.13159 L 19.13324 7.00860 L 19.41090 6.81913 L 19.63883 6.57336 L 19.80659 6.28289 L 19.90556 5.96264 L 19.93091 5.62745 L 19.88087 5.29462 L 19.75788 4.98133 L 19.56842 4.70367 L 19.32265 4.47574 L 19.03217 4.30798 L 18.71193 4.20901 L 18.37674 4.18366 L 18.04391 4.23370 L 17.73061 4.35669 L 17.45295 4.54615 L 17.22502 4.79192 L 17.05726 5.08240 L 16.95829 5.40264 L 16.93294 5.73783 L 16.98298 6.07066 L 17.10597 6.38396 L 17.29544 6.66162 L 17.54120 6.88954 L 17.83168 7.05731 L 18.15193 7.15628 L 18.48711 7.18163 z"/>
<path stroke="#000000" d="M 16.83138 2.79850 L 17.08322 2.69241 L 17.29538 2.52372 L 17.45556 2.30218 L 17.54956 2.04644 L 17.57106 1.77533 L 17.51855 1.50794 L 17.39627 1.26532 L 17.21313 1.06452 L 16.98074 0.91957 L 16.72129 0.84364 L 16.44753 0.84040 L 16.18530 0.91063 L 15.94980 1.05024 L 15.76302 1.24567 L 15.63417 1.48735 L 15.57589 1.75281 L 15.59121 2.02407 L 15.67936 2.28192 L 15.83347 2.50599 L 16.04270 2.68054 L 16.29216 2.79238 L 16.56023 2.83246 z"/>
<path stroke="#000000" d="M 21.92035 9.04469 L 22.19758 8.92993 L 22.43645 8.74660 L 22.61831 8.50969 L 22.73345 8.23235 L 22.77287 7.93383 L 22.73373 7.63635 L 22.61897 7.35912 L 22.43564 7.12026 L 22.19873 6.93840 L 21.92139 6.82325 L 21.62287 6.78383 L 21.32539 6.82297 L 21.04816 6.93774 L 20.80930 7.12106 L 20.62744 7.35797 L 20.51229 7.63532 L 20.47287 7.93383 L 20.51201 8.23131 L 20.62678 8.50854 L 20.81010 8.74741 L 21.04701 8.92927 L 21.32436 9.04441 L 21.62287 9.08383 z"/>
<path stroke="#000000" d="M 20.44588 3.53870 L 20.72311 3.42394 L 20.96198 3.24061 L 21.14383 3.00370 L 21.25898 2.72636 L 21.29840 2.42784 L 21.25926 2.13036 L 21.14450 1.85313 L 20.96117 1.61427 L 20.72426 1.43241 L 20.44691 1.31726 L 20.14840 1.27784 L 19.85092 1.31698 L 19.57369 1.43175 L 19.33482 1.61507 L 19.15297 1.85198 L 19.03782 2.12933 L 18.99840 2.42784 L 19.03754 2.72532 L 19.15230 3.00255 L 19.33563 3.24142 L 19.57254 3.42327 L 19.84989 3.53842 L 20.14840 3.57784 z"/>
<path stroke="#000000" d="M 23.35654 5.70967 L 23.60837 5.60357 L 23.82054 5.43489 L 23.98071 5.21335 L 24.07471 4.95760 L 24.09622 4.68649 L 24.04371 4.41910 L 23.92142 4.17648 L 23.73828 3.97568 L 23.50589 3.83074 L 23.24644 3.75480 L 22.97268 3.75157 L 22.71046 3.82179 L 22.47495 3.96140 L 22.28817 4.15684 L 22.15932 4.39852 L 22.10104 4.66397 L 22.11637 4.93523 L 22.20451 5.19308 L 22.35863 5.41716 L 22.56786 5.59170 L 22.81731 5.70354 L 23.08538 5.74363 z"/>
<path stroke="#000000" d="M 25.32267 10.15228 L 25.58785 10.04251 L 25.81632 9.86715 L 25.99027 9.64054 L 26.10042 9.37526 L 26.13812 9.08972 L 26.10068 8.80517 L 25.99091 8.54000 L 25.81555 8.31152 L 25.58894 8.13757 L 25.32366 8.02743 L 25.03812 7.98972 L 24.75357 8.02716 L 24.48840 8.13693 L 24.25992 8.31229 L 24.08597 8.53890 L 23.97583 8.80419 L 23.93812 9.08972 L 23.97556 9.37427 L 24.08533 9.63945 L 24.26069 9.86792 L 24.48730 10.04187 L 24.75259 10.15202 L 25.03812 10.18972 z"/>
<path stroke="#000000" d="M 23.60619 13.40708 L 23.91949 13.28409 L 24.19715 13.09462 L 24.42508 12.84886 L 24.59284 12.55838 L 24.69181 12.23813 L 24.71716 11.90295 L 24.66712 11.57012 L 24.54413 11.25682 L 24.35466 10.97916 L 24.10890 10.75123 L 23.81842 10.58347 L 23.49817 10.48450 L 23.16299 10.45915 L 22.83016 10.50919 L 22.51686 10.63218 L 22.23920 10.82165 L 22.01127 11.06741 L 21.84351 11.35789 L 21.74454 11.67814 L 21.71919 12.01332 L 21.76923 12.34615 L 21.89222 12.65945 L 22.08169 12.93711 L 22.32745 13.16504 L 22.61793 13.33280 L 22.93818 13.43177 L 23.27336 13.45712 z"/>
<path stroke="#000000" d="M 20.53656 16.24782 L 20.81379 16.13306 L 21.05265 15.94973 L 21.23451 15.71282 L 21.34965 15.43548 L 21.38907 15.13696 L 21.34993 14.83948 L 21.23517 14.56225 L 21.05184 14.32339 L 20.81493 14.14153 L 20.53759 14.02638 L 20.23907 13.98696 L 19.94159 14.02611 L 19.66436 14.14087 L 19.42550 14.32419 L 19.24364 14.56111 L 19.12849 14.83845 L 19.08907 15.13696 L 19.12822 15.43445 L 19.24298 15.71168 L 19.42631 15.95054 L 19.66322 16.13240 L 19.94056 16.24754 L 20.23907 16.28696 z"/>
<path stroke="#000000" d="M 23.41627 16.56365 L 23.66811 16.45755 L 23.88027 16.28887 L 24.04045 16.06733 L 24.13445 15.81158 L 24.15595 15.54048 L 24.10344 15.27308 L 23.98116 15.03047 L 23.79801 14.82966 L 23.56563 14.68472 L 23.30617 14.60879 L 23.03242 14.60555 L 22.77019 14.67577 L 22.53469 14.81538 L 22.34791 15.01082 L 22.21906 15.25250 L 22.16077 15.51795 L 22.17610 15.78921 L 22.26425 16.04706 L 22.41836 16.27114 L 22.62759 16.44568 L 22.87704 16.55753 L 23.14511 16.59761 z"/>
</svg>
