<?xml version="1.0" encoding="UTF-8"?>
<!-- Generated by jsxcad -->
<!DOCTYPE svg PUBLIC "-//W3C//DTD SVG 1.1 Tiny//EN" "http://www.w3.org/Graphics/SVG/1.1/DTD/svg11-tiny.dtd">
<svg baseProfile="tiny" height="25.99247mm" width="28.98203mm" viewBox="-0.00082 0.00000 28.98203 25.99247" version="1.1" stroke="black" stroke-width=".1" fill="none" xmlns="http://www.w3.org/2000/svg">
<path stroke="#000000" d="M 28.90571 14.45284 L 28.88571 14.25839 L 28.73622 13.40502 L 28.50916 12.55419 L 28.45224 12.36628 L 28.15574 11.54970 L 27.78950 10.76193 L 27.69693 10.58872 L 27.25732 9.82570 L 26.76097 9.11561 L 26.63777 8.96385 L 26.07490 8.29182 L 25.45309 7.66961 L 24.78767 7.11110 L 24.63591 6.98791 L 23.91933 6.48595 L 23.17699 6.05656 L 23.00379 5.96399 L 22.20163 5.58906 L 21.38315 5.29087 L 21.19524 5.23395 L 20.36713 5.01107 L 19.95350 4.93740 L 19.95208 4.91553 L 19.93208 4.72108 L 19.81703 4.14150 L 19.76011 3.95359 L 19.57238 3.39957 L 19.30894 2.86515 L 19.21638 2.69195 L 18.88811 2.20153 L 18.76492 2.04976 L 18.37721 1.60842 L 17.94043 1.22528 L 17.78867 1.10208 L 17.29825 0.77382 L 17.12505 0.68125 L 16.59063 0.41781 L 16.03661 0.23009 L 15.84870 0.17317 L 15.26911 0.05812 L 15.07467 0.03812 L 14.49020 0.00000 L 13.90573 0.03812 L 13.71128 0.05812 L 13.13169 0.17317 L 12.94379 0.23009 L 12.38977 0.41781 L 11.85535 0.68125 L 11.68214 0.77382 L 11.19172 1.10208 L 11.03996 1.22528 L 10.59862 1.61299 L 10.21547 2.04976 L 10.09228 2.20153 L 9.76402 2.69195 L 9.67145 2.86515 L 9.40801 3.39957 L 9.22028 3.95359 L 9.16336 4.14150 L 9.04831 4.72108 L 9.02831 4.91553 L 9.02689 4.93740 L 8.61326 5.01107 L 7.78515 5.23395 L 7.59724 5.29087 L 6.77876 5.58906 L 5.97660 5.96399 L 5.80340 6.05656 L 5.06106 6.48595 L 4.34448 6.98791 L 4.19272 7.11110 L 3.52730 7.66961 L 2.90549 8.29182 L 2.34262 8.96385 L 2.21943 9.11561 L 1.72307 9.82570 L 1.28346 10.58872 L 1.19090 10.76193 L 0.82465 11.54970 L 0.52816 12.36628 L 0.47123 12.55419 L 0.24417 13.40502 L 0.09468 14.25839 L 0.07468 14.45284 L -0.00082 15.32619 L 0.00059 16.20584 L 0.07785 17.07115 L 0.09785 17.26559 L 0.25127 18.12694 L 0.47414 18.95505 L 0.53107 19.14296 L 0.82926 19.96144 L 1.20418 20.76359 L 1.29675 20.93679 L 1.72614 21.67913 L 2.22811 22.39571 L 2.35130 22.54747 L 2.90981 23.21289 L 3.53201 23.83470 L 4.20404 24.39758 L 4.35580 24.52077 L 5.06589 25.01713 L 5.82892 25.45673 L 6.00212 25.54930 L 6.78989 25.91555 L 6.97780 25.97247 L 7.17225 25.99247 L 7.36669 25.97247 L 7.55460 25.91555 L 7.72780 25.82298 L 7.87956 25.69979 L 8.00275 25.54803 L 8.09532 25.37482 L 8.72233 23.85696 L 8.87857 23.95815 L 9.05177 24.05071 L 9.82468 24.45936 L 10.64678 24.80503 L 11.48776 25.07373 L 11.67566 25.13066 L 12.54468 25.32549 L 13.40862 25.44057 L 13.60306 25.46057 L 14.49020 25.50000 L 15.37733 25.46057 L 15.57178 25.44057 L 16.43571 25.32549 L 17.30473 25.13066 L 17.49264 25.07373 L 18.33361 24.80503 L 19.15571 24.45936 L 19.92862 24.05071 L 20.10182 23.95815 L 20.25806 23.85696 L 20.88507 25.37482 L 20.97764 25.54803 L 21.10083 25.69979 L 21.25259 25.82298 L 21.42579 25.91555 L 21.61370 25.97247 L 21.80815 25.99247 L 22.00259 25.97247 L 22.19050 25.91555 L 22.97827 25.54930 L 23.15147 25.45673 L 23.91450 25.01713 L 24.62459 24.52077 L 24.77635 24.39758 L 25.44838 23.83470 L 26.07059 23.21289 L 26.62910 22.54747 L 26.75229 22.39571 L 27.25425 21.67913 L 27.68364 20.93679 L 27.77621 20.76359 L 28.15114 19.96144 L 28.44932 19.14296 L 28.50625 18.95505 L 28.72913 18.12694 L 28.88254 17.26559 L 28.90254 17.07115 L 28.97980 16.20584 L 28.98121 15.32619 z"/>
</svg>
