<?xml version="1.0" encoding="utf-8"?>
<!-- Generator: Adobe Illustrator 24.0.0, SVG Export Plug-In . SVG Version: 6.00 Build 0)  -->
<svg version="1.1" id="Layer_1" xmlns="http://www.w3.org/2000/svg" xmlns:xlink="http://www.w3.org/1999/xlink" x="0px" y="0px"
	 viewBox="0 0 422.94 419.86" style="enable-background:new 0 0 422.94 419.86;" xml:space="preserve">
<style type="text/css">
	.st0{fill:#3E342B;}
	.st1{fill:#FFFFFF;}
</style>
<g>
	<path class="st0" d="M411.99,45.82c-2.87-0.6-14.37-2.27-16.94-2.27c-2.57,0-21.93,0.91-21.93,0.91s-17.08,3.78-17.69,4.23
		c-0.3,0.23-2.93,1.75-5.47,3.21l-1.48-3.06l-1.51-0.45l-0.3,1.81l0.77,3.15c-1.41,0.8-2.43,1.39-2.43,1.39s-17.99,8.92-18.9,10.13
		c-0.69,0.92-4.4,3.04-7.08,4.87l-7.13-6.99l-8.07-11.74v0l-0.25-0.36l-4.84-4.99l-9.07-12.55l-3.94-3.82v0l-1.05-1.02l-11.64-8.17
		l-15.12-8.62l-13.61-5.9L227.36,0l-0.61,2.57l9.83,5.75l6.65,10.13l8.77,8.32l9.68,11.19l12.1,19.51l5.29,13.31l0.45,5.14
		l-2.72,7.11l-3.11,5.66l-3.09,1.44l-8.17,4.08L257,98.29l-3.02,1.36l-4.08,4.08l0.45,2.42l1.06,1.06l5.9-5.44l0.91-0.45l1.36-1.21
		l4.08-3.48l7.26-1.06l4.84-1.97h4.99c0,0,8.01,0.45,8.47,0.45s0.6,1.66,0.6,1.66l0.46,1.06l1.81-1.06l3.35-0.06l-2.67,2.56
		l-2.04,2.8l-3.33,1.36l-7.56,4.08l-0.68,0.98l-1.89,0.46l-1.89,1.21l-2.04,2.95l0.53,0.6l0.03-0.07l1.03-2.05l0.45,0.23l-0.68,1.13
		l-0.45,0.83l0.45,0.08l1.21-1.44c0,0,2.65-1.21,2.88-1.44c0.23-0.23,1.36-1.06,1.36-1.06l4.91-2.27l6.05-2.72l4.23-0.68l3.7-2.04
		l4.01-3.4l2.61-1.72l5.03,0.44l11.19,0.76l2.12-0.15l2.72-1.21c0,0,5.29-0.45,5.75-0.45c0.45,0,1.66-0.91,1.66-0.91l1.06-1.81
		l1.66-0.3l1.66-2.12l1.97-3.93l4.38-0.91l5.44,0.61l0.3,1.36l1.97,0.76l2.12-0.15l0.6,2.27l6.96,5.14l8.62,5.14l7.71,4.54
		l2.12,1.06l0.15-1.21l-0.81-0.59l-0.54-1.53l-2.8-3.1l-5.82-8.32l-2.12-4.46l0.08-1.69l9.6,5.17l6.65,4.54l3.18,3.33l0.91,1.36
		l0.91-0.91l0.45-3.48L389,90.88l-2.42-1.66l-2.72-0.91l-5.6-5.14l-9.22-9.07l-2.12-2.42l-1.51-0.45l-1.51-1.81v-1.36l-0.75-1.81
		l-1.71-1.22l0.5-0.59l7.41-5.29l3.37-2.09l1.4,0.43l2.42,0.68l1.81,0.23l0.46,0.68l0.38-1.13l-1.89-1.06l-1.89-0.87l1.96,0.04
		l1.74,0.3l1.81,1.28l-0.23-1.21l-1.97-1.29l-2.78-0.1l0.21-0.13l0.61-0.26l0.52,0.19l2.65-0.38l1.28,0.38v-0.76l-2.67-0.19
		l8.64-3.67l9.22-0.76l20.26-0.3c0,0,0.91-1.21,0.91-1.81C417.58,46.72,414.86,46.42,411.99,45.82z"/>
	<path class="st1" d="M269.57,24.51l-1.97-1.45l-2.63,3.02l-3.02,3.81l1.05,1.45c0,0,0.53,1.31,0.66,0.92
		c0.13-0.39,2.23-2.23,2.23-2.23l1.18-1.31l1.58,0.79l1.71-0.13l1.18-1.58l0.13-1.71L269.57,24.51z M269.04,27.4l-1.05-0.13
		l-0.66-1.05l0.66-1.05l0.79,0.39C268.78,25.56,269.31,26.61,269.04,27.4z"/>
	<polygon class="st1" points="273.78,27.53 272.59,28.97 274.04,32.13 271.28,35.02 267.86,37.65 268.78,40.28 272.2,37.78 
		275.88,34.1 277.72,35.15 279.29,33.57 276.4,30.42 	"/>
	<polygon class="st1" points="281.27,35.41 276.54,39.49 271.41,44.48 272.86,47.5 274.04,49.08 275.48,47.9 274.43,45.27 
		277.32,42.9 278.51,44.88 279.82,44.22 279.16,41.59 281.4,39.36 283.37,41.72 285.34,40.41 	"/>
	<polygon class="st1" points="249.86,13.07 250.12,12.28 250.91,12.15 251.3,13.6 250.78,14.52 	"/>
	<path class="st1" d="M254.98,13.07l-0.53,1.45l0.92,0.53c0,0,0.66-0.13,0.79-0.53c0.13-0.39-0.13-1.71-0.13-1.71L254.98,13.07z"/>
	<polygon class="st1" points="251.7,16.75 250.91,18.07 251.7,18.72 252.62,18.46 252.62,16.88 	"/>
	<path class="st1" d="M258.27,18.46l-0.39,0.92c0.79,0.66,1.18,0.79,1.18,0.79c0.53-0.79,0.39-2.1,0.39-2.1L258.27,18.46z"/>
	<polygon class="st1" points="257.35,22.14 256.82,23.19 257.48,23.85 258.27,23.85 258.66,23.06 258.27,21.61 	"/>
	<polygon class="st1" points="245.52,15.31 244.87,16.49 245.65,17.15 246.44,17.02 246.57,15.57 	"/>
	<path class="st1" d="M287.05,41.85l-3.68,3.42l-4.73,4.6l-2.37,2.5l0.66,1.58l0.66,0.79l4.6-2.63l-2.63,5.91l0.66,1.45l0.66,0.53
		l1.97-2.5l2.37-6.83l3.15-0.26l1.84-2.36V45.4L287.05,41.85z M287.18,46.98L286,47.9l-1.05-0.92l1.84-1.84l0.53,0.53L287.18,46.98z
		"/>
	<path class="st1" d="M297.04,52.76l-1.18-0.79l-4.47-0.26l-5.26,4.99l-3.68,4.21l-0.39,2.76l0.53,3.02l3.02-0.13l6.44-3.02
		l3.94-3.94l1.71-4.21L297.04,52.76z M293.36,57.49l-6.18,4.99l-2.1,0.92l-0.13-1.18l2.5-2.89l4.86-4.21l1.97-0.53l0.79,0.79
		L293.36,57.49z"/>
	<polygon class="st1" points="302.16,51.45 301.24,51.71 301.63,52.76 302.42,52.76 302.82,51.71 	"/>
	<polygon class="st1" points="293.09,43.69 292.17,45.01 292.96,45.53 293.75,45.4 294.01,44.09 	"/>
	<path class="st1" d="M300.32,59.07l-4.47,3.94l-6.05,5.65l-3.55,3.15l1.18,2.37l4.21,1.97l4.99-1.58l4.34-4.99l1.84-4.86
		L300.32,59.07z M298.48,68.79l-3.02,3.15l-3.02,0.39l-1.97-0.92l3.94-3.55l4.6-4.47l0.79,2.23L298.48,68.79z"/>
	<polygon class="st1" points="304.79,64.59 303.87,65.24 304.53,66.29 305.31,65.77 305.71,64.72 	"/>
	<path class="st1" d="M306.63,68.4l-1.05-0.66l-5.65,5.78l-5.78,6.31l1.18,1.31l1.71,0.66l4.6-4.47l0.92,0.53l-1.58,5.39l1.84,1.45
		l1.97-3.68l3.94-11.43L306.63,68.4z M304.53,74.31l-1.05,1.31l-0.79-0.92l2.76-3.94l0.79-0.13L304.53,74.31z"/>
	<polygon class="st1" points="286.79,86.79 285.87,87.85 286.79,88.77 287.71,87.71 	"/>
	<polygon class="st1" points="282.19,83.9 282.19,85.09 283.11,84.96 283.37,83.64 	"/>
	<polygon class="st1" points="317.27,73.52 313.33,71.95 311.1,73.65 308.07,81.8 307.02,85.88 308.6,88.63 311.49,88.63 
		314.38,86.14 313.72,84.69 311.75,85.35 310.57,84.17 312.02,78.78 314.38,74.97 315.83,75.89 316.09,77.46 318.19,76.94 	"/>
	<polygon class="st1" points="319.64,73.65 319.38,75.36 319.9,76.54 321.87,76.41 322.53,83.77 322.92,87.85 325.29,87.71 
		324.76,76.94 326.87,76.15 326.34,73.39 322.92,73.65 	"/>
	<polygon class="st1" points="327.79,72.34 330.02,75.49 333.04,77.86 334.88,80.88 335.93,83.51 337.64,82.46 335.54,75.76 
		336.46,68.79 335.8,68.27 333.7,69.19 333.31,74.05 329.63,71.16 	"/>
	<polygon class="st1" points="337.64,67.21 337.91,67.87 338.69,68.13 342.24,74.84 345.13,79.04 350.13,74.97 348.94,73.13 
		346.71,74.44 345.66,75.23 342.24,68.92 341.06,66.43 341.06,64.98 	"/>
	<polygon class="st1" points="343.29,63.27 346.71,67.61 350.92,71.68 352.89,71.42 354.2,69.45 353.81,65.77 355.51,66.43 
		357.75,65.77 358.93,63.93 358.01,63.01 356.57,63.8 353.81,62.22 350.26,58.15 348.55,59.86 350.65,63.4 352.36,66.82 
		351.57,68.13 349.6,67.21 345.4,62.35 	"/>
	<polygon class="st1" points="355.51,52.23 353.94,54.2 354.2,56.31 356.04,57.49 358.27,56.44 359.46,57.36 358.93,58.8 
		357.22,59.2 356.43,59.99 358.8,61.83 361.43,61.17 362.74,58.8 361.82,55.91 359.98,54.6 357.62,54.86 356.83,53.68 359.46,52.63 
		359.19,51.45 	"/>
	<polygon class="st1" points="372.6,48.82 371.94,50 373.25,50.66 373.91,49.47 	"/>
	<polygon class="st1" points="377.72,47.24 377.72,48.29 378.51,48.29 378.91,47.11 	"/>
	<polygon class="st1" points="368.13,48.29 367.6,49.47 368.66,49.74 369.31,49.47 369.31,47.9 	"/>
	<polygon class="st1" points="356.7,80.22 356.43,81.8 357.62,82.2 358.41,81.54 358.41,79.83 	"/>
	<path class="st1" d="M334.49,89.03c-0.53,0-1.71,0.53-1.71,0.53l0.39,1.18l1.05-0.26L334.49,89.03z"/>
	<polygon class="st1" points="329.76,85.09 329.76,86.01 330.55,86.14 330.94,84.69 	"/>
	<polygon class="st1" points="317.93,83.25 318.19,84.56 319.11,84.04 319.24,82.59 	"/>
	<polygon class="st1" points="336.07,62.75 335.67,64.06 336.46,64.19 337.51,62.35 	"/>
	<path class="st0" d="M214.9,33.16l-0.3,0.54l0.47,0.09l0.86-0.71l0.33-0.61l1.56,0.43v-2.67l-1.8-2.4l-2.57-0.8l-3.85-0.53
		l-2.57,0.8l-2.82-0.27l-2.61-0.65l-5.1-3.35l-4.36-1.33l-1.54,0.53l-0.13,1.37l-0.12-0.03l-4.31,0.78l-0.06-0.25l-5.14-0.53
		l-7.19,1.33l-4.62,5.6l-4.11,9.34l-1.71,2.03l-0.09-3.1l-1.8-0.93l-1.67,0.8l-0.28,0.94l-0.61-2.01l-1.8-0.8l-1.57,0.35l-0.1-1.42
		l-1.54-3.07l-1.93-0.13l-1.16,1.73l-0.18,1.15L150,25.96l-0.9-4.4l-1.8-1.07l-1.29,0.93l-0.78,1.93l-0.12-3.53l-1.16-2.54
		l-2.06-0.53l-1.5,1.56l-0.17-2.76l-1.8-1.6l-1.54,0.54l-1.13,2.35l-0.02-2.48l-1.41-2.94l-2.44-0.13l-1.41,1.2l-0.64,1.6
		l-0.24,2.26l-0.02-0.79l-0.9-4.27l-1.8-0.94l-1.54,0.94l-1.17,2.13l-0.24-2.39l-1.93-1.2l-1.93,1.2l-0.86,3.18l-0.68-3.18
		l-1.67-0.4l-1.41,0.4l-0.77,2.67l-0.06,1.52l-0.71-3.79h-2.57l-1.67,0.67l-0.13,3.74l0.08,5.26l-1.11-7.12l-1.03-1.47h-1.8
		l-1.67,1.07v2.67c-0.13-0.4-0.77-2.54-0.77-2.54l-2.18,0.13l-1.54,2.13l0.19,3.59l-0.19-1.06l-1.54-0.27l-1.8,0.8
		c0,0-0.64,2.67-0.64,3.2c0,0.53-0.26,5.74-0.26,5.74l0.13,1.16l-0.65-0.9h-1.54l-1.67,1.2l-0.38,2.94c0,0,0.51,5.87,0.64,6.4
		l-0.39-1.6l-1.54-0.13l-1.41,0.8l-0.64,2.27l0.26,6l0.1,1.41l-1.26-0.48l-1.8,1.07l-0.06,1.31l-0.32-0.92h-1.8l-1.41,1.33
		c0,0,0.11,2.14,0.23,2.9l-0.36-1.03l-1.28-0.27l-1.03,1.2l-0.51,1.87l0.26,1.72l-18.5,1.48l-18.49-2.4l-13.1-2.94H17.72l-6.94,3.73
		L0.77,59.58L0,61.18l3.08,0.53l8.22-1.87l8.73-0.54l11.56,1.6l9.25,2.94l11.56,4l13.87,3.74l15.92,2.4l10.02,1.87l1.54,2.67
		l4.88,2.67l4.17,0.46l1.61,1.81l3.98,1.87l1.92,1.6l-0.39,0.93l-4.11,0.4l-4.11,3.6l-2.7,6.4l-2.44,4.4l-3.21,1.6l-0.9,1.33
		l1.03,2.93l1.93,5.6l1.67,6.4l0.9,2.4l1.28,1.2l10.02,0.8l2.7-0.8l0.33-0.75l1.47,0.08l2.18,0.27l1.54,1.6l-0.13-2.14l-0.31-0.41
		l0.05,0.01l1.67-0.53l0.25-1.14l1.03,0.07l1.93,0.4l1.15,1.47v-2.13l-1.92-1.87l-1.8-0.67l-0.45,0.12l-0.06-0.65l-2.18-0.13
		l-6.93-2l-3.85-2.13l-2.19-4.27l-0.66-3.12l0.4-0.48l6.04-3.34l5.78-3.87l0.52-0.52l0.89,2.39l4.5,4.94l3.08,3.34l2.18,9.34
		l0.77,6.94c0,0,0.51,3.34,0.13,4.14c-0.39,0.8-0.51,3.2-0.51,3.2l1.16,1.47l8.6,1.2l4.5-0.8l1.54-0.53l0.5-0.9l1.43,0.1l1.93,0.4
		l1.16,1.47v-1.89l0.77,0.02l1.8-0.53v-0.76l1.67,0.09l2.18,0.27l1.54,1.6l-0.13-2.13l-1.41-1.87l-2.83-0.93l-1.49,0.21l-0.18-0.61
		l-2.18-0.8l-3.21-0.27l-3.98-1.73l-1.8-1.6l-3.6-4.67l-1.03-1.47l0.26-4.27l-1.15-3.2l-1.29-4l-1.03-7.6l1.15-8.14l0.03-0.54
		l0.74,0.14l6.94-4.27l11.68-2.64l3.09,2.37l1.54,1.87l1.16,4.14l1.67,3.74l1.93,2.94l1.29,1.73l0.13,2.13l0.9-1.33v-1.73l-1.03-2
		l-1.8-4l-1.16-3.47l0.64-0.93l1.67,1.87l4.24,6.14l1.93,1.87l1.67,0.67l0.64,1.47l-0.26,1.6l1.03-1.2l-0.13-2.27l-0.77-1.73
		l-1.8-1.47l-2.44-2.94l-2.31-2.4L161.31,88l0.64-0.67l3.21,1.73l4.62,3.2l2.7,1.07l1.67,0.53l0.26,1.6l0.51-0.53l0.13-1.73
		l-0.77-1.07l-1.54-1.2l-1.16-0.27l-1.67-1.07l-4.88-3.34l-4.24-2.4l-1.41-0.8l-2.07-2.5l2.97-1.23l6.93-2.94l1.74-2.92l1.34,2.52
		l3.21,2.8l2.95,2.4l1.16,1.2l1.3,1.35l0.11,0.12l0.9,1.47l-0.51,4.27l-0.26,3.6l0.38,1.87l-0.26,1.87L178.77,98l1.41-0.13l0.9-0.8
		V94.8l0.51-4.23l0.39,0.9l0.9,2.8l0.64,1.87l-0.26,1.2h0.77l0.38-1.2l0.64-1.07l-0.38-0.8l-1.16-2.4l-1.29-3.34l-0.26-0.74v-1.26
		l-0.9-2.94l0.13-1.74l-1.29-2.53l-3.72-4.4l-2.18-2.27l-1.41-3.6l-0.72-2.11l3.29-9.49l3.34-9.87l2.31-4.54l7.45-2.14l2.27-0.92
		l1.33,0.11l4.88-0.53l3.34,0.53l6.94,1.07l5.91,1.33l2.83-0.53l1.28-3.73l-0.75-0.04l0.11-0.85l-0.68-0.85l-0.43-0.04l0.21,0.8
		v0.58l-0.06,0.32l-1-0.05l0.12-0.81l-0.81-1.16l-0.43,0.18l0.34,1.02l-0.06,0.72l-0.75-0.04l-0.09-0.9l-0.73-1.2h-0.47l0.26,1.02
		l-0.14,1.02l-0.03,0h-1.05l-0.27-1.42l-0.17-0.89l-0.81,0.04v0.53l0.09,1.07l-0.25,0.67h-0.7v-1.29l-0.47-1.07l-0.39-0.04
		l-0.04,0.44l-0.13,1.11l-0.35,0.61l-0.7-0.36l0.24-0.61v-1.16l-0.39-0.76l-0.47,0.13l-0.04,1.33l-0.25,0.58l-0.53-0.27l-0.04-1.38
		l-0.51-0.89l-0.43-0.04l-0.04,0.58l0.04,0.67l-0.15,0.58l-0.5-0.17l0.06-0.23l-0.17-1.02l-0.3-0.76h-0.43l0.04,0.4l0.09,0.8
		l-0.14,0.51l-0.97-0.33l0.04-0.4l-0.39-0.84h-0.38l0.08,0.49l-0.14,0.59l-0.83-0.15l-0.02-0.35l-0.34-0.76l-0.38-0.05l0.08,0.62
		l-0.18,0.38l-1.02-0.18v-2.92l1.52-0.23l0.19,0.64v0.98l0.82-1.77l0.95-0.15l0.08,0.63l-0.17,1.11l0.69-0.27l0.41-1.63l0.4-0.06
		l0.6,0.36v0.4l-0.17,0.8l-0.21,0.53l0.6-0.09l0.62-1.15l0.36,0.21l0.49,0.17l-0.02,0.59l-0.21,0.62l0.38,0.18l0.59-1.13l0.78,0.27
		l-0.04,0.37l-0.3,0.85l0.08,0.31l0.94-0.31l0.32-1.2l1.13-0.15l0.09,0.5l-0.17,0.93l-0.09,0.31h0.47l0.64-1.16l0.12-0.92l0.9-0.31
		l0.13,0.47l-0.04,1.02l-0.09,0.76h0.47l0.56-1.29l0.15-1.16h1.03l0.02,0.58l-0.13,0.84l-0.26,0.71l0.47-0.04l0.73-1.02l0.3-1.01
		l1.02,0.28l-0.03,0.28L214.9,33.16z"/>
	<path class="st1" d="M51.16,61.04l0.66,1.05l0.79-0.66C52.35,60.38,51.16,61.04,51.16,61.04z"/>
	<path class="st1" d="M57.34,61.3l-0.53,1.58c-1.45,0.26-1.58-1.05-1.58-1.05C55.5,60.78,57.34,61.3,57.34,61.3z"/>
	<path class="st1" d="M64.04,58.67l-0.79,2.1l1.84,1.71l2.1,1.31l0.92,0.79c-0.26,1.31-2.1,2.1-2.1,2.1l-2.23-0.66l-0.79-0.53
		c-0.79,1.31-0.79,1.71-0.79,1.71l3.55,1.58l2.76-0.66l1.58-2.1l-0.39-2.5l-1.97-1.58l-0.92-0.92c0.39-0.79,2.76-0.66,2.76-0.66
		l0.79,0.66l0.66-1.05l-1.31-1.05l-2.37-0.39l-1.84,0.13H64.04z"/>
	<path class="st1" d="M79.02,58.28l-2.1-0.53l-4.73,0.79l0.66,4.21l0.39,4.6l0.26,2.23l1.45,0.26l0.53-3.68l0.13-1.58h2.5l1.71-1.44
		l0.39-2.5L79.02,58.28z M77.05,62.35l-1.84,0.13l0.13-2.23l2.1-0.13C77.45,60.12,77.97,61.04,77.05,62.35z"/>
	<polygon class="st1" points="80.6,55.12 80.6,56.7 81.91,57.23 82.7,67.74 81.26,68.4 81.26,69.97 86.12,70.63 86.38,68.92 
		85.33,67.87 84.94,61.56 84.67,56.18 85.46,54.99 84.94,53.55 	"/>
	<polygon class="st1" points="87.7,52.76 88.49,57.23 89.01,63.4 89.93,70.76 92.82,71.42 92.69,64.59 94.4,66.43 97.55,69.71 
		97.68,72.08 100.71,72.21 100.58,66.56 100.05,55.78 99.39,49.47 97.68,49.87 97.68,56.04 97.82,65.77 95.58,64.06 92.82,60.91 
		91.51,58.67 90.98,51.97 89.41,51.97 	"/>
	<polygon class="st1" points="96.63,41.2 95.71,43.3 96.76,44.35 97.68,42.25 	"/>
	<path class="st1" d="M111.48,53.15l-2.5-4.2l-3.68-0.13l-1.84,1.84l-0.39,5.26l0.13,7.88l1.58,4.47l3.02,3.42l2.37-0.53l2.23-2.76
		l1.05-7.49L111.48,53.15z M109.64,63.93l-0.79,3.29l-1.58-0.53l-0.79-3.81l-0.53-9.07l1.18-0.92l1.84,0.92l0.66,5.26V63.93z"/>
	<polygon class="st1" points="122.13,50.39 121.21,51.45 119.24,51.05 118.18,52.5 118.71,54.47 121.21,58.28 122.92,63.14 
		123.44,67.87 122.13,70.5 118.84,71.81 115.95,71.03 114.11,69.71 114.9,67.35 117,68.27 119.63,68.13 120.16,65.24 119.5,60.51 
		116.61,56.7 113.98,52.23 114.37,48.69 116.87,46.98 118.84,47.24 	"/>
	<polygon class="st1" points="120.68,30.94 121.34,32 122.13,32 122.39,30.55 121.6,29.76 	"/>
	<path class="st1" d="M125.54,27l-0.66,0.79l0.53,0.92c0,0,0.39,0.26,0.66-0.13c0.26-0.39,0.39-1.45,0.39-1.45L125.54,27z"/>
	<path class="st1" d="M135.53,64.19l-2.89-11.96l-1.31-4.47l-1.58-0.39l-2.63,0.53l-1.05,13.01l-0.66,8.54l-0.13,2.1l0.66,0.53
		l2.89-0.92l0.26-7.88l1.58-0.66l1.58,3.94l0.66,4.07l2.37-0.39l1.18-0.53L135.53,64.19z M130.8,59.33l-1.71,0.39l0.13-3.15
		l0.13-5.26l1.45,6.31V59.33z"/>
	<polygon class="st1" points="135.14,47.9 136.32,55.26 137.37,61.04 138.68,66.16 140.13,67.48 144.6,68.27 146.44,67.08 
		146.96,65.51 148.54,67.35 150.38,67.35 152.35,66.03 151.69,63.93 149.99,64.59 148.41,63.14 146.7,48.95 146.57,47.63 
		144.33,48.16 144.33,51.31 145.25,61.04 144.47,63.67 142.1,63.54 141.18,61.04 138.68,48.29 	"/>
	<path class="st1" d="M160.5,58.94l-3.42-2.37l-0.79-0.39l1.97-1.84l0.79-2.1l-1.18-3.55l-2.23-1.45l-4.86,0.66l1.45,6.18l1.18,6.96
		l0.79,4.73l1.71-0.66l1.45-1.18l-1.45-3.29l-0.26-1.58l1.71,0.66l2.76,1.84l1.45-0.79L160.5,58.94z M155.51,52.5l-1.05,1.05
		l-0.53-1.45l-0.53-2.23h1.31l1.05,0.92L155.51,52.5z"/>
	<polygon class="st1" points="159.05,46.58 160.76,50.92 162.6,55.26 164.18,57.49 165.89,57.75 167.59,55.91 167.46,53.81 
		168.91,54.47 170.62,53.68 171.27,51.97 170.22,51.45 169.17,51.84 167.86,50.92 165.76,46.19 164.84,44.22 164.05,44.61 
		164.84,48.42 165.89,52.5 165.62,54.34 164.18,54.2 161.94,48.55 160.76,45.93 	"/>
	<polygon class="st1" points="168.65,39.22 166.94,41.46 167.33,43.56 168.38,44.88 170.49,44.48 172.19,44.74 172.98,46.58 
		172.72,48.16 170.88,48.03 170.35,48.82 171.93,50.13 174.56,49.74 175.61,47.11 175.22,43.56 173.38,42.64 170.62,42.64 
		169.57,41.2 170.75,40.41 171.14,38.96 	"/>
	<polygon class="st1" points="173.38,32.39 172.98,33.44 173.9,34.1 174.82,32.65 	"/>
	<path class="st1" d="M175.48,33.84v0.92l0.66,0.26c0.39-0.66,0.26-1.45,0.26-1.45L175.48,33.84z"/>
	<polygon class="st1" points="187.83,31.6 187.57,33.31 188.49,33.84 189.28,33.44 189.28,32 	"/>
	<polygon class="st1" points="130.8,73.39 134.74,74.97 136.98,77.33 137.24,79.57 135.79,79.7 135.66,81.54 137.5,82.2 
		139.6,79.83 138.68,75.49 134.61,73 	"/>
	<polygon class="st1" points="127.12,80.36 126.2,81.93 127.25,82.59 128.17,82.06 128.57,80.49 	"/>
	<path class="st1" d="M146.96,72.21l-0.13,1.31l0.92,0.26c0.53-0.66,0.53-1.71,0.53-1.71L146.96,72.21z"/>
	<polygon class="st1" points="118.18,21.75 116.34,24.11 114.11,25.95 111.09,27 110.17,26.08 110.96,25.03 108.99,25.03 
		108.59,27.13 110.3,29.24 112.27,28.97 113.98,28.19 112.8,33.84 113.32,38.7 115.56,40.67 117.92,39.88 118.58,37.91 
		116.48,36.99 115.42,38.04 114.5,35.41 115.03,30.42 116.74,25.95 119.89,21.75 	"/>
	<polygon class="st1" points="119.63,19.91 121.47,17.54 124.75,16.23 128.3,16.75 133.56,20.96 134.74,23.59 135.01,27.79 
		134.35,30.68 137.37,28.97 141.18,27.13 144.2,27.92 147.09,30.68 147.23,34.23 145.39,36.2 143.28,36.2 143.02,34.49 144.2,33.57 
		145.52,33.57 145.78,31.21 143.42,28.97 139.74,29.63 135.27,32.92 133.17,36.33 133.95,41.06 135.79,43.56 137.24,46.06 
		135.79,46.58 134.22,45.79 131.98,41.98 131.33,37.65 131.59,34.23 132.64,30.94 132.77,26.87 131.46,21.75 129.09,19.78 
		126.86,18.46 124.23,18.2 122.65,18.99 122.39,20.69 121.21,21.09 	"/>
	<polygon class="st1" points="108.46,72.87 108.46,73.79 112.4,75.49 117.53,77.73 121.21,79.83 121.6,83.25 121.08,86.79 
		118.58,89.42 115.29,91.26 112.4,91 112.4,89.29 111.22,88.63 110.04,90.08 111.88,92.84 115.56,92.71 118.58,91.13 121.73,87.85 
		122.65,86.27 122.39,90.74 122.39,95.99 123.7,100.46 126.07,102.83 128.04,102.04 128.7,99.54 127.51,98.36 126.59,99.41 
		125.02,98.23 123.7,90.47 124.36,84.3 123.7,79.96 117.66,75.49 113.32,74.18 	"/>
	<polygon class="st1" points="106.75,79.04 106.23,80.22 107.01,80.62 107.67,80.22 107.67,79.04 	"/>
	<polygon class="st0" points="354.78,183.84 343.53,181.47 334.16,176.98 324.55,169.17 311.2,163.01 295.5,158.75 286.83,156.86 
		276.28,154.02 268.31,152.84 261.99,154.02 246.99,156.62 239.02,155.21 230.82,149.05 228.24,143.85 230.82,133.67 235.04,119 
		235.74,108.11 231.52,97.23 226.13,93.2 219.8,91.55 216.99,89.42 213.95,89.66 209.96,88.95 207.39,89.18 204.57,91.08 
		200.59,91.31 195.9,92.5 194.97,95.1 194.5,97.23 196.84,98.41 200.12,97.94 204.34,98.17 209.49,98.17 211.61,99.36 202.7,100.3 
		199.65,99.83 195.44,99.59 195.44,101.25 197.31,102.67 199.18,103.85 202.47,103.14 206.92,102.91 211.61,103.85 214.42,104.56 
		216.99,103.85 220.98,102.43 225.43,108.59 225.2,115.21 221.68,125.86 215.82,139.59 217.46,154.26 225.43,163.96 232.93,180.05 
		238.52,185.97 236.68,189.28 232.23,195.2 227.3,198.98 224.02,201.11 222.15,204.66 219.57,207.74 216.29,212.23 215.82,214.84 
		218.4,215.55 224.73,212.47 231.76,210.11 236.44,205.61 242.07,201.35 245.82,198.04 248.44,194.06 249.1,194.49 258,198.27 
		267.94,199.06 267.84,199.93 269.25,206.79 275.58,214.37 287.53,224.31 292.45,225.96 293.15,224.31 291.74,220.75 288,214.13 
		285.18,210.34 285.89,206.32 284.01,205.13 282.84,202.06 282.92,201.72 285.89,202.3 296.67,204.66 300.88,204.19 307.88,202.9 
		304.63,209.16 301.82,216.97 301.12,219.81 304.4,219.57 308.85,216.73 311.67,214.84 314.24,207.98 317.99,203.95 318.76,202.05 
		319.63,204.43 320.57,208.21 321.98,211.76 330.17,217.44 336.27,218.39 344.47,220.28 346.58,219.1 346.34,216.97 344.47,216.02 
		341.66,212.23 339.32,209.87 335.33,206.32 331.82,202.3 332.25,199.94 335.33,199.46 340.25,196.85 347.99,191.41 353.84,189.05 
		355.72,187.15 	"/>
	<polygon class="st1" points="275.48,157.36 274.3,157.89 274.96,159.33 275.88,159.33 276.54,157.76 	"/>
	<path class="st1" d="M278.11,159.07l-0.26,1.05l0.79,0.53c0.53-0.53,0.53-1.58,0.53-1.58H278.11z"/>
	<polygon class="st1" points="224.37,131.48 223.18,132.53 224.1,133.45 224.89,133.31 225.29,131.74 	"/>
	<path class="st1" d="M229.23,123.2l-0.13,0.79l0.66,0.39c0.66-0.66,0.53-1.58,0.53-1.58L229.23,123.2z"/>
	<polygon class="st1" points="269.31,158.81 267.99,159.47 268.52,161.04 269.44,161.04 270.1,159.47 	"/>
	<path class="st1" d="M232.78,151.98l-3.15-1.05l-2.1,3.02l-3.15,4.34l0.79,1.05l1.45-1.45l2.1-2.37l1.31,1.05l2.23-0.26l1.31-1.84
		L232.78,151.98z M231.07,154.6l-1.45-0.66l0.66-1.05l1.44,0.13l0.26,1.18L231.07,154.6z"/>
	<polygon class="st1" points="235.27,154.73 232.91,157.89 229.49,161.44 230.67,163.41 231.99,164.85 233.56,163.67 232.25,162.36 
		231.86,161.17 236.72,156.31 	"/>
	<polygon class="st1" points="239.21,158.28 236.19,162.62 234.35,164.99 233.3,166.17 235.54,168.66 237.38,171.03 238.56,169.85 
		237.51,168.14 236.85,166.83 237.9,164.85 239.48,165.51 240.27,166.17 241.05,165.12 239.35,163.54 240.66,161.7 242.11,163.15 
		243.42,161.31 241.05,159.6 	"/>
	<polygon class="st1" points="251.17,166.3 249.33,164.2 246.44,163.28 244.21,164.07 244.08,166.17 245.13,168.14 245.13,170.11 
		243.68,171.03 242.24,170.37 241.58,168.53 240.13,169.06 239.87,171.16 240.92,173.4 243.16,174.58 245.65,174.45 247.36,172.34 
		247.49,169.72 246.71,166.83 248.15,166.43 249.73,167.61 	"/>
	<polygon class="st1" points="253.41,165.25 253.01,166.3 253.8,167.09 251.83,171.16 248.94,176.02 247.36,176.42 246.84,177.34 
		248.28,179.18 251.04,180.75 252.09,179.31 251.3,177.86 256.3,168.14 257.88,167.61 258.14,166.17 	"/>
	<path class="st1" d="M267.73,168.8l-3.68-1.71l-3.81,1.18l-2.5,4.21l-1.84,5.91l-0.66,4.21l1.58,2.63l2.89,0.53
		c0,0,3.29-1.84,3.42-2.23c0.13-0.39,3.42-5.13,3.42-5.13l1.44-4.47L267.73,168.8z M262.74,177.07l-2.76,4.73h-1.31l-0.26-1.18
		l2.36-6.7l1.84-3.55l1.71-0.53l0.53,1.05L262.74,177.07z"/>
	<polygon class="st1" points="276.93,170.77 275.09,171.16 274.43,172.74 275.09,176.15 276.54,179.83 276.4,185.62 274.83,189.03 
		271.28,190.61 268.26,189.3 266.02,185.88 265.63,182.86 268.26,181.28 269.7,183.65 271.67,184.43 273.25,182.59 273.38,180.23 
		271.15,177.6 270.36,172.74 272.07,168.14 275.88,166.96 278.9,168.01 280.48,170.24 280.21,173.26 277.59,173.26 	"/>
	<path class="st1" d="M290.07,185.75l-0.92-10.51l-0.53-7.23l-4.21,0.26l-1.71,5.78l-1.71,5.91l-3.94,11.83l2.76,0.53l1.71,0.26
		l1.45-7.1l2.63,0.26l1.18,2.63l0.39,4.73l3.02-0.26L290.07,185.75z M286.52,182.73l-0.79-0.26l-2.23-0.13l0.79-4.21l1.71-7.1
		l0.66,9.59L286.52,182.73z"/>
	<polygon class="st1" points="294.28,168.93 294.01,174.58 293.36,184.04 293.62,190.08 294.93,192.58 296.9,193.9 299.14,192.84 
		300.58,190.48 301.77,193.76 304.39,194.42 306.37,193.5 306.23,190.61 304.13,190.61 303.08,188.9 303.34,185.88 305.18,170.9 
		302.29,170.37 301.63,176.29 300.71,184.17 299.14,188.11 297.04,189.17 296.38,186.67 296.51,178.13 297.43,169.32 	"/>
	<polygon class="st1" points="246.18,184.7 245.39,186.01 246.44,186.67 247.49,186.14 247.62,184.57 	"/>
	<polygon class="st1" points="220.42,144.75 219.37,146.19 220.42,146.85 221.21,146.59 221.47,145.01 	"/>
	<path class="st1" d="M316.88,189.69l-2.5-5.12l2.63-0.66l1.18-2.89l0.13-3.68l-1.71-2.5l-3.55-1.84l-4.07-0.66l0.13,10.12
		l0.13,9.86l-0.13,2.23l2.37,0.53l1.05-0.66l-0.26-6.7l2.37,3.42l1.97,3.68l1.97-0.39l0.53-1.05L316.88,189.69z M312.28,180.75
		v-4.21l0.92,0.13l1.84,0.92l0.39,2.5l-1.05,1.45l-2.1,0.13V180.75z"/>
	<polygon class="st1" points="320.82,176.68 320.69,181.67 320.43,190.48 321.48,194.03 322.92,195.21 324.76,194.29 326.87,191.14 
		327.92,193.5 329.76,194.42 331.07,193.9 331.07,191.66 329.49,190.87 328.84,187.85 329.23,181.02 329.23,179.31 327.39,178.91 
		326.87,183.78 326.6,188.25 324.76,190.48 323.19,190.74 323.06,186.8 323.45,177.73 	"/>
	<polygon class="st1" points="334.36,180.89 333.31,182.33 333.83,184.3 335.28,185.22 336.72,186.93 336.2,188.64 334.49,188.64 
		333.31,187.59 332.25,188.77 333.57,191.4 336.2,191.79 338.69,190.48 339.35,187.59 338.3,184.83 336.33,183.65 336.59,182.46 
		338.04,182.33 338.83,183.12 339.75,182.33 338.17,180.75 335.93,180.23 	"/>
	<polygon class="st1" points="345.53,185.22 345.26,186.54 346.18,186.67 346.84,186.01 346.58,184.96 	"/>
	<polygon class="st1" points="327.52,203.23 327,204.93 328.05,205.2 328.57,204.41 328.71,203.23 	"/>
	<polygon class="st1" points="325.68,201.25 325.55,202.31 326.34,202.17 326.74,201.25 326.34,200.33 	"/>
	<path class="st0" d="M232.4,242.7l-7.14-1.85l-11.27-4.63l-7.33-5.56l-18.79-11.3l-16.35-5l-12.03-5.56l-12.21-7.97l-8.65-9.26
		l-11.09-11.67l-23.49-12.78l-23.3-3.52l-6.2-3.33c0,0-0.94-1.48-1.13-2.04c-0.19-0.56-2.82-1.3-2.82-1.3l-2.63-4.26l-1.88-3.7
		v-5.19l-4.06-6.45l-1.77-2.81l-6.39-7.96l-8.83-2.59l-7.14,1.11l-1.8-0.22v0l-1.21-0.15l-3.38,2.04l-2.26-0.19l-2.63,1.48
		l-1.88-0.55l-1.88,1.3l-5.45-0.37l-1.31,0.74l-2.07,0.74l-2.07,3.7l-1.69,3.33l0.19,2.04l0.21,0.07l-0.02,0.67l0.56,1.25l0.71,0.28
		l-0.19-0.83l0.02-1.01l1.13,0.37l0.21,1.52c0,0,0.52,0.51,0.7,0.32v-0.88l0.08-0.64l0.74,0.24l0.12,1.32l0.61,0.97l0.66,0.05
		l-0.09-0.28l-0.14-0.88v-0.8l0.62,0.21l0.08,0.92l1.03,1.62l0.7,0.19l-0.09-0.51l-0.14-0.83l-0.02-0.87l0.4,0.13l0.28,0.01l0,0.04
		l0.75,2.27l0.75,0.09v-0.37l-0.05-0.93l0.09-1.06l0.84,0.02l0.72,2.02l0.66,0.14l-0.05-0.6l0.03-1.52l0.95,0.02l0.28,0.71
		l0.89,1.25l0.38-0.23l-0.14-1.69l0.88,0.02l0.86,1.53l0.52,0.09l-0.1-0.69l-0.06-1.07l1.76-0.22l0.13,0.45l0.75,0.83h0.47
		l-0.19-0.65l0.03-0.79l0.39-0.05l1.74-0.4l0.52,1.14l0.01,0.15l-3.2,0.96l-3.76,1.48l-2.25,1.48h-2.82l-2.44-0.74l-1.31,0.56
		l0.37,1.3l1.65,0.57l-0.24,1.42l0.02,0.94l-0.12,0.03l-0.83,0.15l-0.57-0.76l-0.24-1.25l-0.09-0.74l-0.52,0.32l-0.05,1.71
		l0.23,0.94l-0.94,0.17l0.54,1.38l0.4,1.03l2.07,1.85l3.57,1.11l5.07-1.67h5.26l3.57,2.22l7.33,3.89c0,0,5.83,4.81,6.01,5.37
		c0.19,0.56,0.56,3.15,0.56,3.7s2.26,5.37,2.26,5.37l3.19,2.78l0.19,3.52l0.68,2.14c-0.45,1.07-0.87,2.11-0.87,2.3
		c0,0.31,1.02,2.78,1.59,4.25l0.02,0.05c0.03,0.09,0.07,0.17,0.1,0.25l0.04,0.1l0.07,0.18l0.04,0.1l0.05,0.14l0.03,0.07l0.04,0.14
		l0.08,0.21l0.02,0.05c0.04,0.09,0.1,0.2,0.16,0.32l0.01,0.02c0.07,0.13,0.15,0.26,0.23,0.41l0.01,0.02
		c0.09,0.15,0.18,0.31,0.28,0.47l0.01,0.01c0.6,1,1.31,2.11,1.31,2.11v2.44l-1.9,0.2l-3.17,0.28l-3.53,1.04l-1.76,1.81l0.03,0.55
		l-1.16,0.98l0.14,2.29l0.99,1.53l1.55,0.7l-0.85-1.32c0,0-0.21-1.53-0.14-1.74c0.04-0.11,0.17-0.45,0.29-0.75l1.04-0.22l0.12-0.13
		l0.16,1.52l0.41,0.18c0.07,0.39,0.15,0.8,0.22,0.93c0.14,0.28,0.98,1.11,1.13,1.32c0.14,0.21,1.48,0.21,1.48,0.21l-0.56-0.49
		l-0.49-1.18v-0.72l0.21-0.05l0.71-0.49l0.56-2.22l1.83-0.69l0.71-0.02l-0.57,0.72l-0.99,2.64l1.41,2.22l1.55,2.78l2.4,2.92
		l1.69-0.14v-0.22l0.49,0.29l0.64-0.28l0.63-0.49l0.13-1.03l2.06-0.63l-0.07-0.1l0.71-0.17c0,0,0.35-1.67,0.35-1.88
		c0-0.21-0.42-1.25-0.42-1.25l-0.78-0.56l0.28,1.11l-0.28,0.76l-0.77,0.7l-0.01-0.01l-1.13,0.14l-1.13-0.83l-1.27-0.42l-0.98-1.81
		l-0.42-1.81l0.99-1.95l2.02-1.71l1.5,2.82l6.39,6.11l5.83,2.59l8.27,1.3l0.73,0.22l-1.67,1.08l-3.38,5.55l-0.19,3.52l1.69,2.04
		l-0.38,1.86l3.19,9.44l3.76,4.26l6.58,8.34l0.75,2.22L94.28,254l-8.27,7.6l-1.59,0.63l-4.85-1.14l-4.51-0.97l-1.97,0.28l-0.06,0.49
		l-2.19-0.22l-2.25,1.11l-0.45,1.41l-1.47-0.12l-0.8,0.39l-1.79-0.44l-2.82,2.22l-1.69,3.33l0.22,0.65v0l0.35,1.02l1.41-1.53
		l0.67-0.21l-1.23,1.59l-0.28,3.2l0.49-0.29l0.92-0.54l2.25-0.83l2.11,0.42l1.69,0.14c0,0,0-0.16-0.01-0.37l1.32,0.51l19.35-0.56
		l8.08-2.6l0.38-4.26l13.53-10.74l0.19-2.78l-3.01-3.89l-1.23-2.42l3.67,1.13l2.07,4.81l1.13,7.04l-1.88,3.52h-3.19l-0.5,1.23
		l-1.71-0.21l-1.97,1.67l-1.13,3.06l0.85,1.67l0.7-1.39l1.83-0.97l1.87-0.12l0.06,0.25l1.66,0.18l-0.77,2.6l0.99,0.97l0.28-1.11
		l1.83-1.11l2.4,0.27l1.83,0.42l0.2-0.71l3.99-1.15l3.19-5.55l1.5-5.56l-2.44-7.96l0.75-1.67l-5.45-5.56l-0.38-2.78l-8.27-3.15
		l-3.01,1.67l-2.87,0.15l0.24-1.63l-0.19-4.63l0.4-0.11l2.99-0.26l10.15-1.85l6.95-1.85l2.99-1.93l9.98,2.3l15.41,4.63l14.66,2.04
		l14.47-0.37l14.1,2.41l17.85,5.74l15.78,3.71l3.01-0.37L232.4,242.7z M21.7,148.75l-0.11-0.27l1.53,0.27l0.02,0.16l-1,0.25
		L21.7,148.75z M19.3,149.07l-0.15-1.21l1.09,0.38l0.47,0.08l-0.06,1.2l-0.94,0.23L19.3,149.07z"/>
	<polygon class="st1" points="45.38,139.23 44.33,140.41 45.25,141.2 46.17,141.07 46.3,139.75 	"/>
	<polygon class="st1" points="60.1,153.55 58.79,155.13 60.49,157.36 57.6,160.78 53.14,164.85 53.92,166.3 54.98,166.83 
		62.6,159.33 63.91,161.57 65.23,160.39 63.91,157.63 	"/>
	<polygon class="st1" points="66.41,161.17 65.23,164.2 64.44,167.22 63.25,169.19 60.23,173 61.28,174.31 61.81,174.84 
		64.7,171.95 66.54,169.85 73.24,166.69 72.19,165.51 71.27,164.59 66.41,167.35 68.51,162.36 	"/>
	<path class="st1" d="M79.29,167.22l-4.47-0.66l-2.76,5.78l-3.15,5.78l-0.79,1.05l2.23,1.18l2.89-4.73l0.39,2.5l0.39,3.15l2.23,1.45
		l-0.52-6.7l-0.53-2.5l3.68,0.26l2.23-2.5v-3.15L79.29,167.22z M78.76,170.64l-1.18,1.05l-2.23-0.66l0.92-2.5l2.5,0.66V170.64z"/>
	<polygon class="st1" points="63.39,184.83 62.6,185.49 63.12,186.41 64.31,185.62 	"/>
	<polygon class="st1" points="69.04,187.46 67.85,188.51 68.38,189.69 69.96,189.3 69.96,187.33 	"/>
	<path class="st1" d="M86.38,168.93l-3.15,5.39l-3.94,6.44l-1.05,2.23l1.97,1.31l1.18,0.13l2.76-5.26l1.05,0.53l-0.53,5.52l2.1,1.18
		l1.05-0.26l3.02-16.16L86.38,168.93z M87.3,174.05l-1.05,3.42l-1.31-1.05l2.63-5.26L87.3,174.05z"/>
	<path class="st1" d="M95.06,170.9c-0.13,0.39-1.84,5.91-1.84,5.91l-1.71,6.18l-1.84,4.6l2.63,0.79l1.71-3.02l2.1-5.13l0.79,3.55
		l0.39,2.76l-0.92,3.02l2.37,0.92l1.18-1.05l5.91-14.72l-2.23-0.92l-1.97,3.02l-2.23,7.1l-1.71-7.23l1.44-4.6L95.06,170.9z"/>
	<polygon class="st1" points="108.59,175.63 106.88,180.62 104.78,186.01 102.55,191.66 104.91,193.24 107.67,187.98 109.51,191.4 
		110.43,194.03 109.25,196 111.48,197.31 115.03,191.79 120.02,183.65 120.94,181.67 118.32,180.23 115.82,184.17 111.88,191.27 
		111.09,188.51 109.12,185.35 112.53,177.07 110.56,176.15 	"/>
	<path class="st1" d="M127.78,186.01l-2.63-1.18l-2.76,0.66l-3.81,4.86l-2.23,4.99l-0.53,4.6l1.71,2.23l4.34-1.84l4.34-5.65
		l2.63-5.52L127.78,186.01z M121.47,196l-1.97,2.5l-1.31-0.39l1.45-3.15l3.81-6.7l1.71-0.79l0.92,1.84L121.47,196z"/>
	<polygon class="st1" points="134.87,198.1 136.98,197.18 136.71,195.08 134.48,192.84 131.72,191.79 129.22,193.5 128.3,196.13 
		129.75,198.76 129.22,201.52 127.78,202.57 125.67,202.04 125.15,200.6 122.26,202.44 124.75,205.72 127.65,207.04 130.54,205.2 
		132.25,202.7 131.85,199.28 131.06,196.39 131.59,194.82 132.9,194.42 	"/>
	<path class="st1" d="M141.05,199.15l-3.15,2.1l-4.21,4.34l-4.99,3.42l1.84,1.84l1.31-0.79l2.89-2.1l0.92,0.79l-2.1,4.99l0.66,1.05
		l1.45,1.05l1.97-3.81l3.15-5.78l1.97-5.12L141.05,199.15z M139.21,203.88l-1.31,3.02l-0.92-1.58l2.5-3.15L139.21,203.88z"/>
	<polygon class="st1" points="145.91,204.01 142.36,208.61 140,212.42 138.16,215.32 138.03,217.02 139.6,219.26 140.92,219.65 
		144.2,218.73 143.94,221.1 145.78,222.41 147.36,222.67 148.41,220.44 147.09,219.65 147.23,217.29 149.46,214.13 153.27,209.27 
		151.69,207.96 148.8,211.5 145.91,214.92 143.55,216.24 141.44,216.5 143.42,212.82 147.75,207.3 148.67,205.85 	"/>
	<path class="st1" d="M159.05,212.42l-3.15-1.45l-2.76,6.04l-2.89,5.13l-0.92,2.23l1.84,0.79l1.97-3.42l1.31-1.97l1.05,0.79
		l-0.66,5.39l2.1,0.53l0.92-3.02l-0.26-3.81l-0.53-1.05l2.76,0.13l1.45-1.97l0.26-2.1L159.05,212.42z M158.79,215.84l-0.92,0.53
		l-1.58-0.53l0.92-2.23l1.71,1.18L158.79,215.84z"/>
	<polygon class="st1" points="163.65,215.05 162.21,219.39 161.16,223.33 160.63,226.09 162.08,227.8 163.78,227.8 165.62,226.09 
		166.68,225.17 166.94,227.67 168.12,228.59 169.17,228.46 170.35,226.75 169.17,226.09 168.65,224.91 170.88,218.21 169.3,217.55 
		167.99,221.75 165.1,224.12 163.13,224.38 163.52,221.49 165.1,215.58 	"/>
	<polygon class="st1" points="179.03,223.33 180.47,222.41 178.77,220.05 176.01,219.92 174.95,221.49 175.61,223.99 176.66,225.43 
		175.48,227.54 173.64,227.67 172.85,226.22 171.41,227.93 174.17,230.3 176.93,230.56 178.77,228.85 178.77,226.35 177.58,224.12 
		177.06,222.28 177.85,221.36 	"/>
	<path class="st1" d="M84.81,190.08l-5.91-2.63l-1.71,5.78l-1.44,6.7l-1.31,3.55l2.23,0.79l2.23-5.52l2.37,4.34l1.05,2.89l2.63,0.66
		l-1.18-4.47l-2.5-5.12l3.68,0.13l2.1-2.5l0.39-2.76L84.81,190.08z M84.54,194.03l-1.84,0.66l-2.63-0.66l0.66-3.02l1.84,0.52
		l2.1,1.05L84.54,194.03z"/>
	<polygon class="st1" points="91.11,191.92 89.41,198.5 87.57,204.41 86.78,207.56 92.17,209.14 96.24,210.58 97.55,207.83 
		94.53,205.72 92.17,204.93 93.22,201.52 95.71,202.57 96.63,200.73 93.87,199.28 94.4,196.66 97.95,198.36 100.31,199.68 
		101.63,196.26 94.92,192.71 	"/>
	<polygon class="st1" points="103.47,197.71 103.6,201.52 104.12,205.33 103.99,206.64 97.82,210.45 97.29,211.37 101.1,212.56 
		106.49,209.01 105.83,214.79 109.38,217.16 109.51,208.88 115.95,206.77 113.32,204.15 107.54,206.25 107.01,199.94 	"/>
	<polygon class="st1" points="89.01,218.08 88.35,219.39 89.41,220.31 90.33,219.65 90.33,217.81 	"/>
	<polygon class="st1" points="117.79,222.28 117.79,223.59 118.84,223.46 119.24,222.41 118.58,221.49 	"/>
	<polygon class="st1" points="90.98,220.57 90.85,221.49 92.17,221.23 91.9,220.18 	"/>
	<path class="st1" d="M100.97,242.39l0.26,1.71c0,0,0.79,0.53,0.92,0.13c0.13-0.39,0.53-1.18,0.53-1.18l-0.39-1.31L100.97,242.39z"
		/>
	<path class="st1" d="M104.25,242.25l-0.39-1.31c-0.39,0.66-0.39,1.31-0.39,1.31l0.39,0.66L104.25,242.25z"/>
	<path class="st1" d="M120.42,219.52l0.13,0.92h0.79c0.39-0.39,0.13-1.18,0.13-1.18L120.42,219.52z"/>
	<polygon class="st1" points="190.46,225.96 189.8,227.01 190.46,227.8 191.25,227.67 191.78,226.22 	"/>
	<polygon class="st1" points="46.7,141.86 46.04,142.38 46.56,143.04 47.09,142.78 	"/>
	<path class="st1" d="M53.92,145.27l-0.13,1.05l0.66,0.39c0.66-0.26,0.79-1.45,0.79-1.45H53.92z"/>
	<path class="st0" d="M408.9,125.82l-2.04-1.31l-1.48-3.38l-2.22-0.94l-4.07,0.75l-7.04,4.51l-7.96,8.64l-6.48,12.39l-3.52,11.83
		l-0.18,13.33l3.15,13.14c0,0,6.67,23.47,6.67,24.03c0,0.56-1.67,15.58-1.67,15.58l-2.78,4.13l-7.59,4.69l-22.04-1.88l-19.08,4.88
		l-19.08,12.58l-14.82,8.44l-14.08,9.39l-25.37,12.77l-14.82,0.75l-15.74-1.69l-12.23-1.12l-13.89,3.38l-17.97,8.26l-12.59,3.94
		l-8.15-0.56l-0.56,1.69l9.26,2.44l18.71-0.75l20-4.7l18.15,3.19c0,0,23.71,4.32,24.26,3.94c0.56-0.38,21.12-2.63,21.12-2.63
		l15-4.13l12.78,0.75l6.11-0.19l1.67-1.31l6.48,2.99l0.37,0.58l2.41,2.82l-1.85,6.2l-1.85,6.01l-1.48,5.82l-1.85,1.32l0.55,2.06
		l6.67,0.56l7.59-0.75l5.19,0.56l0.19-1.88l-0.98-1.51l0.05,0.01l6.11-0.38l2.96-0.19l3.52-0.19l0.37-1.88l-1.67-1.88l-3.89-3.19
		l0.74-2.06l1.11-5.26l1.19-5.63l9.37,2.06l10.93-2.25l1.51-0.72l0.52,3.35l0.56,12.01l-1.48,4.13l1.3,0.94l14.54,0.51l-0.65,3.62
		l3.52,0.75l10.93,0.19l4.26-0.56l-0.19-1.69l-4.26-4.69l-1.11-2.44l0.56-6.38l-0.56-10.7l-0.92-3.94l0.74-8.07l0.93-13.33
		l-0.79-7.34l0.98-2.79l3.52-6.76l5.37-16.15l2.04-15.02l-2.78-18.4l-7.78-18.4l-4.07-18.02l1.85-12.39l5.56-14.64l2.78-4.51
		l3.15-0.38l7.04,1.13l1.67-1.13l0.18-1.31l1.3-0.38l2.41-2.25L408.9,125.82z M375.59,303.52l1.45,3.84l-0.12,1.55l-1.73-1.17
		L375.59,303.52z"/>
	<path class="st1" d="M217.97,284.44l-0.61,0.88l0.88,0.61c0,0,0.35,0.18,0.53-0.09c0.17-0.26,0.44-1.23,0.44-1.23L217.97,284.44z"
		/>
	<path class="st1" d="M252.05,288.73l-0.44,0.96l-1.23-0.35l-4.99-1.84l-7.18-2.71l-6.05-0.53l-2.01,0.61l-0.7,0.96v1.4l1.23-0.17
		l0.26,1.58l-1.31,0.96l-1.4,0.09c0,0-1.67-1.58-1.75-1.84c-0.09-0.26,0.09-3.68,0.09-3.68l2.01-2.01l3.68-0.18l6.57,1.67l8.15,3.15
		L252.05,288.73z"/>
	<path class="st1" d="M260.55,287.15l-2.1,0.26l-0.17-1.23l2.1-1.31l-0.61-2.28l-1.66-1.14l-2.1,0.61l-1.66,0.7l1.14,4.56l1.58,6.4
		l2.54,0.17c0,0,2.98-2.1,2.98-2.36c0-0.26,0-2.89,0-2.89L260.55,287.15z M256.78,284.79l-0.52-1.31l0.79-0.26l1.14-0.09v0.96
		L256.78,284.79z M259.85,290.48l-1.4,0.44l-0.44-1.49l1.4-0.44l0.79,0.26L259.85,290.48z"/>
	<path class="st1" d="M269.83,287.68l-3.5-2.45l2.01-1.4v-2.28l-1.14-1.93l-1.75,0.18l-3.59,1.49l0.88,3.59l1.58,5.87l0.79,2.19
		l1.75-0.44l-0.88-3.59l-0.09-1.14l2.63,2.1l2.19,1.4l1.93-1.05L269.83,287.68z M264.84,283.74l-0.35-1.4l1.58-0.7l0.61,0.61
		l-0.61,1.05L264.84,283.74z"/>
	<path class="st1" d="M279.65,282.51l-4.21-6.57l-4.29,1.84l0.79,4.12l1.31,6.04l0.53,1.93l2.28-0.79l-0.35-3.33l-0.26-1.05
		l2.01-0.7l2.54,3.59l2.19-0.96L279.65,282.51z M274.92,282.51l-0.88-3.77l0.53-0.17l1.58,2.1l0.53,1.31L274.92,282.51z"/>
	<polygon class="st1" points="281.75,272.79 280.35,274.36 281.05,277.17 283.15,282.69 285.25,284.79 287.88,285.14 290.16,283.82 
		290.77,281.81 290.51,280.06 289.02,280.06 288.32,281.63 286.57,281.9 284.81,279.18 283.85,275.85 284.29,274.28 285.6,274.01 
		287.18,275.68 288.49,274.71 287.09,272.09 284.81,271.47 	"/>
	<polygon class="st1" points="287.97,269.28 290.16,274.89 293.14,282.6 293.75,283.91 296.12,283.3 294.8,279.97 294.36,278.48 
		297.87,277.43 299.01,282.34 299.27,283.21 302.25,282.69 299.88,274.89 297.96,267.62 296.55,263.76 293.84,265.43 294.98,269.19 
		296.29,273.75 293.75,274.8 291.56,269.89 290.51,267.27 	"/>
	<polygon class="st1" points="298.48,262.54 299.09,264.46 299.71,265.08 301.11,264.46 302.16,267.18 305.93,279.97 304.61,280.93 
		304.96,282.69 308.12,282.51 311.27,281.72 310.4,279.18 308.73,279.01 307.33,274.28 303.91,262.27 305.14,261.31 304.35,259.73 	
		"/>
	<path class="st1" d="M324.24,272.44l-5.17-11.92l-3.68-4.21l-2.8,0.35l-1.58,0.35l-1.93,4.99l1.05,4.91l3.5,10.69l5.78,3.77
		l2.63-1.14l2.54-3.5L324.24,272.44z M319.51,275.76h-1.23l-2.1-2.89l-2.01-5.52l-1.14-5.17l1.14-1.66l2.01,1.84l2.63,6.22
		l1.14,4.38L319.51,275.76z"/>
	<polygon class="st1" points="322.49,250.27 320.3,253.07 320.73,256.67 322.75,260.17 326.17,262.27 330.55,265.43 331.86,269.37 
		332.04,271.38 329.84,272.79 327.57,272.52 327.39,275.68 330.63,277.34 334.93,275.41 336.15,272.26 335.36,267.09 332.56,262.97 
		327.92,257.81 325.11,255.88 325.03,253.69 326.78,252.9 329.5,253.69 329.93,251.23 327.3,249.66 324.59,249.66 	"/>
	<path class="st1" d="M348.16,260.96l-7.1-13.49l-2.89-4.91l-5.43,2.02l2.19,10.51l3.33,14.19l1.4,5.17l2.45-0.79l1.31-0.7
		l-1.4-5.17l-0.96-5.17l2.1-1.05l2.89,5.08l2.8,4.64l3.42-1.49L348.16,260.96z M342.37,257.46l-2.8,1.14l-0.88-3.85l-1.75-6.31
		l0.53-0.61l3.59,5.78l1.93,3.51L342.37,257.46z"/>
	<polygon class="st1" points="343.69,241.68 346.67,247.99 351.48,258.16 356.3,265.6 359.63,265.87 362.52,264.64 363.57,262.01 
		363.4,259.73 365.59,261.05 368.3,260.96 370.06,259.47 370.58,257.89 368.83,256.14 367.78,257.54 365.24,257.28 363.92,254.48 
		356.74,239.41 353.41,240.11 356.39,246.42 359.89,254.48 360.95,259.21 359.11,261.22 357,259.38 350.96,247.29 347.72,240.63 	
		"/>
	<path class="st1" d="M377.94,248.26l-5.43-1.84l2.01-2.54l-0.26-2.8l-2.19-3.77l-2.45-1.14l-3.59,0.96l-4.12,1.4l3.33,5.7
		l4.73,7.71l3.59,6.13l2.63-2.02l0.61-0.79l-3.33-4.64l3.68,1.31l2.63,0.44l2.1-2.1L377.94,248.26z M370.5,245.28l-1.75-2.01
		l-1.75-3.07l2.45-1.14l2.1,1.75l0.18,2.89L370.5,245.28z"/>
	<path class="st1" d="M373.56,234.76l3.33,4.91l4.38,6.13l2.89,1.05l2.28-1.31l0.79-2.02l-0.26-2.63l1.84,0.44l1.67-0.79l0.79-2.19
		l-1.58-1.23l-0.79,1.14l-2.01-0.35l-3.07-3.33l-2.71-3.94l-1.58,1.32l2.45,3.59l2.19,3.94l0.96,2.63l-1.58,1.05
		c0,0-2.28-1.31-2.37-1.58s-5.08-8.06-5.08-8.06L373.56,234.76z"/>
	<polygon class="st1" points="385.74,223.9 384.07,226.62 385.13,229.25 386.7,230.38 388.63,229.6 389.86,228.19 391.35,230.21 
		391.35,231.87 389.94,232.66 388.89,232.75 388.98,234.15 391,234.5 393.54,233.19 394.33,230.74 393.54,228.37 392.13,226.53 
		390.47,225.65 388.89,226.53 387.32,227.32 386.62,226.09 387.58,224.34 388.63,224.25 388.81,223.03 	"/>
	<polygon class="st1" points="345.61,274.63 345.26,275.76 349.03,275.85 354.55,274.8 359.98,272.7 363.22,271.12 364.8,273.57 
		364.71,276.12 363.84,278.04 362.87,277.69 362.79,279.18 364.62,279.62 366.55,277.17 366.38,273.4 364.1,270.68 366.99,270.25 
		374.44,271.03 380.13,273.31 382.32,278.22 382.15,282.95 380.57,287.07 376.72,289.7 373.91,289.7 372.86,287.94 373.39,286.28 
		374.26,285.66 373.21,284.61 371.46,284.96 370.93,287.5 372.42,291.54 375.84,291.8 380.66,290.31 383.64,286.02 384.69,280.06 
		381.88,272.96 378.73,270.33 374.26,268.76 379.26,267.79 382.06,265.34 383.11,260.7 381.71,257.98 379.26,258.59 379.34,261.05 
		380.75,261.49 379.96,263.41 378.12,265.69 374.61,266.83 371.55,267.71 364.45,268.14 360.25,270.25 356.74,272.61 352.89,273.66 
			"/>
	<polygon class="st1" points="354.73,278.92 354.03,280.5 355.16,281.2 355.95,280.23 355.86,279.01 	"/>
	<polygon class="st1" points="357.35,277.6 357.44,278.31 358.23,278.39 358.58,278.04 358.41,276.9 	"/>
	<polygon class="st1" points="385.74,254.65 384.78,255.79 385.56,256.93 386.44,256.93 386.97,256.23 386.88,254.65 	"/>
	<path class="st1" d="M390.47,211.64l-0.35,0.88l1.49,0.88l2.28-0.96l0.79-3.68l-0.88-3.5l-1.67-3.77l-1.49-2.19l0.79-2.8l1.84-0.61
		l0.53,1.23l1.23-0.35l-0.09-2.19l-2.19-0.79l-2.1,0.88l-0.88,3.77l-2.98-3.07l-2.02-3.94l-0.61-2.54l1.05-2.28l1.75-0.79l0.79,1.58
		l2.28,0.35c0,0,1.14-1.14,1.14-1.4s-0.79-2.98-0.79-2.98l-2.54-1.4l-3.42,1.66l-2.1,3.5l-0.35,4.29l2.1,3.85l1.93,2.63l3.94,3.33
		l1.84,2.45l1.23,3.85l0.17,2.63l-0.44,1.23L390.47,211.64z"/>
	<polygon class="st1" points="381.97,170.37 380.92,170.46 379.26,165.99 379.78,161.61 381.36,159.07 383.02,159.07 383.46,161.35 
		382.15,162.4 380.75,162.49 380.48,165.29 381.1,168.36 	"/>
	<polygon class="st1" points="383.2,150.92 382.67,152.06 383.55,152.68 384.16,152.33 384.51,151.1 	"/>
	<polygon class="st1" points="389.77,190.7 389.68,191.75 390.21,191.84 390.65,191.49 390.73,190.44 	"/>
	<polygon class="st1" points="391.08,219.43 391.17,220.83 392.05,220.83 392.4,219.43 	"/>
	<polygon class="st1" points="375.14,281.46 374.52,282.51 375.49,282.95 375.93,282.69 376.19,281.28 	"/>
	<polygon class="st1" points="327.13,286.72 326.87,287.86 327.66,288.21 328.09,287.86 328.27,286.8 	"/>
	<polygon class="st1" points="329.58,287.24 329.67,288.12 330.11,288.21 330.46,288.12 330.55,286.72 	"/>
	<polygon class="st1" points="203.16,284.26 202.46,285.05 203.08,285.75 203.6,285.84 204.13,284.7 	"/>
	<polygon class="st1" points="204.74,282.86 205.18,283.65 205.71,283.65 206.06,283.12 205.88,282.16 	"/>
	<path class="st0" d="M204.2,321.29l1.22-6.77l0.27-3.52l-0.77-0.22l-0.18-0.05l-0.68,2.3l-1.95,8.01c0.04-0.43,0.06-0.74,0.06-0.83
		c0-0.54-0.72-9.21-0.72-9.21l-0.9-1.81c-0.72,0.72-0.72,4.33-0.72,4.33l-0.9,7.58l-0.9,7.94l-1.08,5.42l-0.02,0.25l-0.41,0.26
		l0.25-3.13l-0.27-8.12l-1.08-8.26l-1.35-5.28l-0.95-0.27l0.27,4.87l-0.14,6.63l-0.46,6.02l-0.36-1.83l-2.35-8.67l-1.98-5.96
		l-1.08-0.9c-0.18,0.9,0.36,5.06,0.36,5.06l1.26,9.75l0.9,8.3l0.36,4.51l-0.04,0.36l-7.55,2.35l-5.48,0.22l1.98-3.66v0l0.07-0.12
		l0.27-1.89l-2.17-5.01l-5.69-6.5l-1.22,0.14l-2.52,4.46l-1.5-4.6l-3.95,1.67l0.8-9.38l0.54-5.28l-1.49-1.08h-1.76l-6.63,2.3
		l-4,1.76l-1.73-5.32l-0.72-2.53l-0.9-0.36l-9.89,3l-2.25-12.38l-2.3-4.33l-2.3-0.68l-1.76,1.76l-2.03,2.71l-4.63,4.56l-4.26-8.53
		l-2.89-3.07h-1.63l-6.68,5.96l-6.86,7.22l-0.34,0.72l-5.75-6.45l-4.47-5.14l-2.03-1.22l-0.68,1.08l-5.69,13.54l-0.24,0.72
		l-1.03-0.9l-9.21-4.51l-4.33-1.45l-1.08,1.99c0,0-1.08,7.76-1.08,8.3c0,0.27,0,2.79,0,5.22l-6.18-3L54.87,311l1.18,8.66h-9.48
		l-0.72,1.63l0.66,7.59l-2.6-1.64l-1.08,0.54l1.2,9.13l-0.52-0.29l-2.71-1.44l-1.62,1.08l-0.29,2.51l-1.07-0.84
		c0,0-1.22,1.22-1.35,1.62c-0.06,0.16-0.53,1.38-1.07,2.77l-0.2-0.47l-1.45-2.89h-1.26l-2.34,4.28c-0.15-0.55-0.28-0.99-0.32-1.12
		c-0.13-0.41-0.95-1.49-0.95-1.49l-1.49,0.27l-1.59,2.26l-0.53-1.13l-1.45-1.26l-1.08,0.54l-1.99,4.69l1.61,3.49l-1.25-0.06
		l-5.42,1.45l-2.71,2.53l-6.51,2.41v0l-1.79,0.67l-3.07,2.17l-0.17,1.76h0l-0.19,2.03l0.08,0.17l0,0l0.47,1.09l1.08-0.9l2.35,0.18
		l5.05-0.72l7.22,0.72l2.89,0.9l2.71-0.54l3.79-1.45l5.78,3.25l11.91,2.71l13,3.61l1.33,0.95l0.43,3.16l2.17,2.98l2.98,5.14
		l-1.49,3.65l-3.38,12.45l-0.84,1.02l-3.49,4.26l0.14,1.22l0.15,0.1l0.98,0.63l0,0l0.76,0.49l1.65-0.05l0.8-0.02v0l6.54-0.18
		l0.89-0.02l2.17-0.54l-0.48-1.85h8.38l0.72-1.08l0.9-1.44l-0.54-7.04l0.36-7.22l0.97-4.72l2.28,0.57l4.51-0.9l7.76-1.63l3.63-0.49
		l1.24,8.8l-1.26,3.43l0.72,4.15l-0.54,3.79l-0.27,0.32l0,0l-2.8,3.29l0.21,0.37l0,0l0.51,0.89l13.18-0.9l0.36-1.08l0.18-8.12
		l1.62-5.6l0.8-4.67l2.99,3.77l0.36,2.71l1.81,1.8l2.53,5.06l-1.08,1.44l-0.72,1.99l0.12,0.14l-1.48,1.4l-0.54,2.16l0.4,0.95
		l1.42-0.09l-0.06,0.63l3.38-0.27l2.84-0.41l-0.01-0.19l0.96,0.19l5.95-1.35l0,0l1.36-0.31l0,0l2.26-0.51l-0.9-3.61l0.18-2.53
		l-1.08-2.89l-5.96-13.72l-0.18-2.17l0.69-2.78l4.72-1.01l4.51-4.69l3.07-3.61l3.97-2.16l2.17-3.43l2.71-1.44l13.36-1.98l13.9-5.6
		l1.58-0.75l10.52-5.02l8.84-5.23l6.32-7.76l1.99-3.97l-0.03-0.01v0l-1.24-0.35l-0.72,0.55l0.68-1.91L204.2,321.29z"/>
	<path class="st1" d="M173.11,337.53l-1.66-8.23l-1.14-0.09l-2.63,4.99l-2.54,4.91l0.7,0.61l7.62,1.14L173.11,337.53z
		 M167.33,338.58l-0.35-0.7l2.28-3.68l1.31-2.63l1.58,7.27L167.33,338.58z"/>
	<path class="st1" d="M156.29,316.77l-1.49,1.93l-5.87,6.57l-4.29,5.52l3.68,2.28l3.59,2.1l2.02,0.44l1.14-4.99l2.19-13.14
		L156.29,316.77z M154.45,326.49l-1.14,7.53l-3.5-1.4l-3.5-2.37l2.37-2.89l3.59-3.94l3.59-4.56L154.45,326.49z"/>
	<polygon class="st1" points="152.61,325.53 149.81,328.5 151.48,329.56 152.26,329.82 	"/>
	<path class="st1" d="M143.85,310.63l-3.24,4.12l-5.17,5.96l-2.98,3.85l0.35,0.61l10.08,4.82l0.61-0.96l0.79-13.4l0.35-4.82
		L143.85,310.63z M142.63,321.67l-0.44,5.96l-0.79-0.09l-4.29-1.93l-2.63-1.75l1.93-2.54l3.24-4.03l3.33-4.29l0.35,1.23
		L142.63,321.67z"/>
	<polygon class="st1" points="141.49,317.29 138.25,322.2 139.12,323.16 140.79,324.04 141.05,320.8 	"/>
	<path class="st1" d="M130.36,317.12l-0.88-13.84l-0.88-3.77l-1.75,1.14l-1.49,1.67l-4.91,11.04l-2.37,6.22l0.96,0.79l11.04,3.15
		l0.53-1.32L130.36,317.12z M120.29,318.34l1.05-2.8l3.24-7.1l2.28-5.17l1.05-1.23l0.35,2.1l0.26,4.47l0.53,7.18l0.09,5.69
		L120.29,318.34z"/>
	<polygon class="st1" points="126.59,309.67 123.88,315.28 123.79,316.07 126.59,317.03 126.77,313.7 127.03,309.84 	"/>
	<path class="st1" d="M115.64,310.63l-2.28-16.03l-1.23-0.44c0,0-5.08,7.01-5.26,7.36c-0.18,0.35-4.91,6.4-5.08,6.66
		c-0.18,0.26-3.59,5.87-3.59,5.87l0.09,1.05l13.14,2.37l4.29,2.54l0.79-0.79L115.64,310.63z M111.44,315.63l-9.29-1.67l-1.75-1.23
		l1.14-2.54l5.78-7.27l4.38-5.87l0.7,0.44l0.53,2.8l1.66,12.09l0.44,4.82L111.44,315.63z"/>
	<path class="st1" d="M112.58,310.55c0-0.26-2.1-7.01-2.1-7.01l-3.94,4.64l-1.66,3.24l0.88,1.05l7.1,0.88
		C112.84,313.35,112.58,310.81,112.58,310.55z M106.62,310.63l3.07-4.47l1.66,5.43L106.62,310.63z"/>
	<path class="st1" d="M90.59,299.24l-2.72-5.26l-1.05,0.18L85.16,301l-1.84,8.06l-0.44,2.98l0.44,0.79l13.23-0.18l0.26-1.14
		L90.59,299.24z M89.19,311.33l-4.47-0.61l0.61-3.5l1.23-6.4l0.88-4.12l1.66,2.28l3.85,7.8l2.02,4.21L89.19,311.33z"/>
	<path class="st1" d="M88.66,302.4c-0.09,0.26-0.96,6.4-0.96,6.4l3.85-0.26L88.66,302.4z"/>
	<path class="st1" d="M81.83,313.96l-7.71-6.48l-4.56-2.89l-1.58-1.14l-1.4,0.79l-0.09,4.47l1.14,11.56v4.91l2.45-1.05l13.67-8.59
		L81.83,313.96z M70.44,321.93l-1.4-0.09l-0.17-6.75l-0.7-7.97l0.44-1.14l2.98,1.66l6.75,4.73l2.54,3.24L70.44,321.93z"/>
	<path class="st1" d="M77.53,313.79l-6.92-3.33l0.18,7.27l0.18,1.4l5.69-3.5l1.23-1.05L77.53,313.79z M74.64,315.54l-2.8,1.49
		l-0.09-4.56l3.59,1.4l0.79,0.44L74.64,315.54z"/>
	<path class="st1" d="M66.15,319.74l-4.91-2.98l-2.98-1.93l-0.61,0.35l1.05,4.29l1.4,6.13l0.7,0.44l5.43-5.08L66.15,319.74z
		 M62.99,322.02l-2.02,1.4l-1.58-6.31l3.15,1.4l2.1,1.93L62.99,322.02z"/>
	<polygon class="st1" points="61.06,319.04 61.59,321.06 62.82,320.18 	"/>
	<path class="st1" d="M49.85,324.3l-1.14,0.96l1.23,5.61l2.54,10.16l1.05,0.17l10.6-9.37v-0.88L49.85,324.3z M56.77,336.3
		l-3.07,1.93l-3.68-11.21l0.44-0.96l7.45,3.07l4.21,2.54L56.77,336.3z"/>
	<polygon class="st1" points="53.53,328.86 52.83,329.91 54.32,334.55 57.12,332.18 57.56,330.87 	"/>
	<path class="st1" d="M45.82,341.38l-2.98-3.07l-0.88,0.35l0.88,5.52l0.35,2.8l1.84-0.88l2.89-2.19L45.82,341.38z M44.16,344.62
		l-0.96-4.21l2.63,3.15L44.16,344.62z"/>
	<polygon class="st1" points="102.42,318.34 101.63,318.96 102.33,319.83 102.85,319.74 103.2,318.61 	"/>
	<path class="st1" d="M155.42,336.3l-0.96,1.14c0,0,0.44,0.7,0.7,0.7s0.79,0,0.79,0l0.53-1.31L155.42,336.3z"/>
	<polygon class="st1" points="162.51,329.91 162.34,331.22 163.04,331.48 163.57,331.05 163.65,330.08 	"/>
	<polygon class="st1" points="93.3,373.45 92.87,374.41 93.74,374.76 94.35,374.24 94.18,373.1 	"/>
	<polygon class="st1" points="94.62,372.22 95.14,372.92 95.58,372.75 95.76,372.13 95.23,371.7 	"/>
	<polygon class="st1" points="50.11,350.32 49.32,352.33 47.92,352.07 46.26,352.16 46,353.38 46.96,354.44 49.41,355.75 
		50.2,358.12 49.85,361.97 48.36,363.02 45.29,362.67 43.72,361.53 41.97,359.08 42.58,357.85 44.94,359.43 46.43,359.96 
		47.48,358.9 47.31,356.8 45.38,355.49 43.54,354 43.28,351.54 44.51,349.62 46.43,348.83 	"/>
	<polygon class="st1" points="51.34,348.04 51.78,349.79 52.04,350.76 53.97,349.97 55.19,349.79 55.46,356.01 55.46,360.83 
		55.46,363.29 56.95,363.72 58.17,363.55 57.91,359.43 58.26,352.33 58.08,348.48 60.36,346.9 59.66,344.89 58.79,344.01 	"/>
	<polygon class="st1" points="62.12,342.96 62.2,349.09 62.55,359.61 63.43,364.51 66.5,364.86 71.67,363.99 71.23,360.92 
		66.5,360.66 66.15,353.39 69.56,352.33 69.12,350.41 65.71,350.5 65.18,345.85 69.47,343.75 69.12,341.73 68.69,340.33 	"/>
	<polygon class="st1" points="80.69,334.38 76.83,335.34 74.21,337.79 73.07,342.7 72.89,354.61 73.59,360.22 75.34,363.11 
		77.53,363.72 79.64,363.11 81.74,361.53 82.35,365.12 82.62,366.18 84.81,365.83 85.07,363.11 85.42,354.09 86.82,353.91 
		86.56,351.28 82.26,351.72 79.81,351.9 79.9,354 81.65,354.52 81.3,357.68 79.99,358.82 77.8,358.12 76.66,355.58 77.01,344.98 
		77.71,341.21 78.85,339.98 80.69,341.03 81.65,342.96 84.19,341.73 84.02,339.02 82.62,336.3 	"/>
	<path class="st1" d="M99.79,357.15c-0.09-0.26-0.96-17.35-0.96-17.35l-1.31-3.94l-2.1-0.88l-3.42-0.09l-2.1,2.01l-1.05,3.5
		l-0.35,6.75l1.49,14.54l2.01,3.07l3.33-0.09l3.59-2.45C98.91,362.23,99.87,357.42,99.79,357.15z M96.46,357.33l-1.14,2.63
		c0,0-1.58,0.09-1.84,0.17c-0.26,0.09-0.61-2.01-0.7-2.37c-0.09-0.35-0.44-6.4-0.44-6.4l-0.44-7.97l0.61-3.86l1.66-0.88l1.14,0.79
		l0.44,2.19l0.79,9.46L96.46,357.33z"/>
	<path class="st1" d="M112.4,337l-0.96,2.89l-0.44,0.79l-2.01-0.96l-2.28,0.09l-0.79,2.36l4.21,7.27l1.66,3.59l-0.35,8.32
		l-1.84,3.77l-2.37,1.14l-3.77-0.96l-1.93-2.54l1.4-3.5l3.94,1.23c0,0,1.58-1.23,1.58-1.49c0-0.26-0.26-4.64-0.26-4.64l-1.49-3.59
		l-4.47-5.26l-0.61-4.64l0.61-3.85l2.01-2.1l3.5-0.79L112.4,337z"/>
	<path class="st1" d="M125.37,353.21l-2.72-12.35l-1.31-4.03l-5.87-0.79l-0.79,9.99c0,0-0.88,12.09-0.79,12.35
		c0.09,0.26,0.09,4.91,0.09,4.91l4.38-1.58l0.35-2.37l0.17-4.91l3.24,0.09l1.4,5.17l3.15-1.05L125.37,353.21z M117.92,351.46
		l0.18-3.5l0.44-6.83l0.79,0.17l1.4,5.52l1.58,4.47L117.92,351.46z"/>
	<path class="st1" d="M126.68,337.79l1.05,6.48l1.14,7.27l1.05,3.5l2.1,1.75h2.1l1.4-0.79l1.31-2.8l2.37,1.75l1.66-0.09l1.31-0.7
		l-0.79-2.72l-1.49,0.35c0,0-1.23-1.75-1.31-2.02c-0.09-0.26-0.44-5.43-0.44-5.43l-0.09-4.73l-2.54-0.35l-0.09,5.43l-0.18,4.73
		l-0.88,2.19l-1.75-0.61l-0.88-2.71l-1.58-10.25L126.68,337.79z"/>
	<path class="st1" d="M149.64,348.83l-2.1-2.28l2.63-0.7l0.79-2.19l-1.05-2.72l-5.08-0.53h-2.28l0.61,6.4l0.7,7.1l2.28-0.53
		l-0.61-3.86l0.61-0.61l3.33,3.42l2.63-0.35L149.64,348.83z M145.52,344.71l-0.09-2.28h2.37l1.05,0.53v1.4l-1.49,0.53L145.52,344.71
		z"/>
	<polygon class="st1" points="152.88,341.03 153.14,346.38 153.75,350.06 154.8,351.63 156.64,351.46 158.92,349.18 159.54,351.28 
		161.02,351.72 161.99,351.11 161.9,349.88 160.67,349 160.59,341.91 158.75,341.56 158.13,346.03 156.91,347.78 155.51,348.13 
		155.15,346.29 155.15,341.12 	"/>
	<polygon class="st1" points="163.65,341.73 162.6,342.61 162.78,344.62 164.27,345.85 166.11,346.82 165.93,348.74 164.44,349.44 
		163.48,348.13 162.6,348.48 163.57,350.58 166.02,350.93 168.12,349.53 168.38,346.29 167.42,344.89 165.49,344.1 165.49,342.79 
		167.24,342.79 167.86,343.49 168.82,343.05 167.68,341.38 165.32,341.03 	"/>
	<polygon class="st1" points="112.27,376.82 111.75,378.27 112.53,378.66 113.45,376.82 	"/>
	<polygon class="st1" points="113.06,374.85 113.58,375.38 114.24,375.11 114.37,373.93 	"/>
	<path class="st1" d="M67.33,384.05l0.13,1.31l0.66-0.13c0.39-0.92,0.53-1.71,0.53-1.71L67.33,384.05z"/>
	<path class="st0" d="M422.94,371.86l-3.32-1.33l-12.79-2.49l-15.95,1.5l-3.16,0.7l0,0l-8.14,1.79l-14.78-1.66l-14.78-5.15
		l-20.1-12.79l-8.14-6.15l-8.47-3.65l-13.78-1.5l-18.94,6.15l-10.8,6.48l-6.31,3.82l-6.75,2.79l-0.39-0.31l0.02-0.57l0.2,0.19
		l1.06,0.06l1.43-1.25l0.62-0.87l-0.75-0.75l-2.45-0.68l0.02-0.51l0.63,0.06l1.24-1.43l0.25-0.69l-1-0.19l-1.59,0.2l-0.14-0.58
		l0.29-0.12l0.75-1.06l0.56-1.31l-0.31-0.5l-1.37,0.25l-0.93,0.68l-0.71-0.48l0.83-1.75l0.06-1.12l-0.87-0.19l-1.74,0.69l-0.69,0.74
		l-0.41-0.28l-0.22-0.01l0.21-1.32l-0.31-0.87l-0.62-0.06l-0.75,0.94l-0.46,1.26l-0.7-0.02l0.15-0.5l-0.06-1.12l-0.31-0.68l-1,0.56
		l-0.35,1.7l-0.75-0.02l0.11-1.62l-0.69-0.25l-0.75,1.06l-0.1,0.97l-0.75,0.18l-0.08-0.6l-0.81-1.06h-0.56l-0.5,1.43l0.12,0.66
		l-0.79,0.19l-1.83,3.32l-3.99,4.98l-4.65,2.16l-3.82,0.5l-2.09,0.16v0l-0.07,0.01l0,0l-0.89-1.71l-2.49-1.81L214.4,355l-7.16-0.81
		l-4.05-0.25l-1.18-0.62l-0.19,0.44l1.56,1.43l5.79,1.06l7.79,1.99l2.74,2.68l0.63,0.93l-0.72,0.2l-2.71-1.88l-3.36-1.56l-5.42-0.44
		h-5.17l-1.93-0.06l-1.25-0.75l-0.19,0.38l1.47,1.04h0l0.03,0.02l2.49,0.37l4.92,1.18l5.67,2.43l1.84,1.32l-1.18,1.28l-1,1.66
		l-4.82,1.49l-1.53,0.43l-0.17-0.26l-1.99-1.31l-3.55-1.43l-2.49-0.37l0.44,0.75l2.05,1.56l2.06,2.31l0.39,0.53l-1.05,0.79l0,0
		l-0.46,0.34l-2.99,4.32l0.17,4.98l1.16,2.82l0.83-0.5l0.5-1.66l1.33-1.5l1.5,0.33h2.68l-0.81,0.87l-1.43,1.5l-0.49,0.6l-0.28,0.02
		l-0.83,0.67l2.49,1.83l5.15,0.83l4.82-0.42l2.82-0.25l6.81,0.67l5.48,1.99l1.33,0.99l2.65-1.33l3.16,1.66l4.99,3.16l5.65,1.5
		l2.09,1.04l0.57,2.94l-2.33,5.15l-1.49,4.98l-1.5,1.16l-4.82,2.99l-3.16,3.49l1.33,0.8v0l0.61,0.37l0.56,0.33l2.97-0.47l1.19-0.19
		l0.83,0.66l3.65,0.33l1.73-0.36v0l4.58-0.96l0.29-1.51l13.83-0.65l0.5-1v-4.82l-0.67-5.65l0.49-3.62l6.49,1.3l11.79-0.66l6.97-1.16
		l5.98-1.99l-1.16,8.64l-1.49,2.49l0.5,2l-4.15,3.16l-1.5,1.33l0.67,1.33l13.12-1l0.5-3.49l2.16-2.16l-0.17-1.83l0.66-2.99
		l2.39-5.34l0.94,0.36l1,3.82l-1,3.99l0.33,1.99l-1.33,3.32l-1.16,0.33l-3.49,1.16l-2.82,2.99l1.13,0.5l0.37,0.16l0.17,0.83
		l0.9,0.08v0l0.93,0.08l5.48,0.67l7.25-1.36l0,0l0.73-0.13l0.33-0.79h0l0.5-1.2l0.15-1.04l0,0l0.84-5.94l1.99-4.32l1.99-3.99v-5.48
		l-1.66-2.49l0.03-0.2l6.12-1.79l2.83-2.99l6.48-0.17l12.96,1.5l14.12-1.33l13.29-3.99l12.29-6.15l12.13-3.32l10.8-1.83l4.49,0.67
		l0.17-0.57h0L422.94,371.86z M260.66,411.56l-3.84,2.33l0.68-3.49l2.84-5.83l0.32,1.67l1,1.99L260.66,411.56z"/>
	<path class="st1" d="M222.26,368.72l-1.4,2.98l0.96,3.59l2.63,1.05l4.12-0.53l3.42-2.1l0.61,0.96l-3.42,2.63
		c0,0-3.94,1.67-4.21,1.67s-4.03-1.23-4.03-1.23l-1.58-1.49l-2.19,0.17l-1.49,1.58l0.09,2.01l0.88,0.79l-1.05,0.96l-1.4-1.05
		c0,0-0.18-2.01-0.18-2.45s0.79-2.54,0.79-2.54l4.12-1.14l-0.44-4.29l1.93-3.5l2.72-1.84l2.28,1.4l0.7,2.19l-1.49,1.31l-1.49-0.18
		L222.26,368.72z"/>
	<polygon class="st1" points="237.68,370.91 237.86,373.54 238.56,374.06 241.89,373.97 242.41,384.93 243.03,385.8 244.87,385.63 
		245.22,374.15 248.37,373.36 248.72,371.61 248.63,370.03 241.19,370.91 	"/>
	<path class="st1" d="M260.37,385.54l-1.75-4.64l-3.33-3.59l4.12-2.1l0.61-2.98l-0.96-3.33l-2.45-0.17l-5.96,0.96l0.17,6.57
		l0.18,8.41v2.98l1.93,0.44l0.79-0.18l0.44-7.1l1.14,0.79l2.02,3.77l0.53,2.89l2.89,0.53L260.37,385.54z M253.89,374.94l-0.09-3.33
		l2.54-0.26l0.7,1.31l-0.96,1.75L253.89,374.94z"/>
	<polygon class="st1" points="261.6,367.05 261.25,368.72 262.65,369.33 262.82,372.05 263.44,382.56 263.88,386.41 262.74,387.55 
		262.82,388.87 265.02,389.57 268.17,389.04 268.08,387.2 266.94,386.41 266.24,372.49 266.24,368.28 267.64,367.32 266.94,365.56 	
		"/>
	<path class="st1" d="M274.65,363.81l-2.89,1.14l-1.75,4.29l-0.35,10.16l0.7,4.47l2.19,3.86l2.8,1.49l2.72-1.05l2.8-3.42l-1.75-2.1
		l-2.45,1.75c0,0-2.19-1.31-2.28-1.75c-0.09-0.44-0.61-8.76-0.61-8.76l0.7-5.78l1.93-0.09l1.49,2.45l1.75-0.7l-0.7-3.68l-2.19-2.37
		L274.65,363.81z"/>
	<polygon class="st1" points="281.13,364.16 282.1,369.94 283.24,383.7 283.67,387.29 290.16,385.63 293.23,384.84 292.79,382.56 
		286.74,382.82 286.22,379.93 286.22,375.99 289.81,375.64 289.55,372.66 285.69,372.92 285.08,368.37 289.72,367.4 291.12,367.23 
		290.51,363.9 	"/>
	<polygon class="st1" points="285.34,392.55 284.9,393.77 285.6,394.12 286.22,393.95 286.3,392.72 	"/>
	<polygon class="st1" points="288.93,392.28 288.32,393.42 289.11,393.69 289.55,393.51 289.72,392.37 	"/>
	<polygon class="st1" points="292.87,389.66 292.61,390.62 293.23,390.79 293.66,390.62 293.84,389.39 	"/>
	<path class="st1" d="M306.37,380.81l-3.07-3.94l-2.98-3.07l3.5-2.8l1.14-2.63l-1.23-3.94l-2.54-2.28l-6.31,1.14l0.44,4.99
		l0.61,8.06l0.53,9.37l2.02-0.09l1.23-0.7l-0.35-7.27l1.84,2.37l2.63,3.68l0.18,1.31l2.98-0.79L306.37,380.81z M298.31,371.7
		l-0.35-6.22l2.19,0.35l1.84,1.05c0,0,0,2.01,0,2.28c0,0.26-1.75,2.1-1.75,2.1L298.31,371.7z"/>
	<path class="st1" d="M318.89,377.65l-3.24-15.07l-1.75-0.17l-2.8,0.09l-0.7,5.17l-0.79,9.55l-0.26,7.18l1.66-0.44l1.75-0.35
		l-0.18-7.45l2.37-0.26l1.4,5.34l0.26,1.84l3.33-0.7L318.89,377.65z M312.41,372.92l0.88-6.13l0.79,0.09l0.17,1.58l0.35,4.29
		L312.41,372.92z"/>
	<polygon class="st1" points="321.17,362.93 320.65,365.91 322.31,366.53 324.94,367.49 324.41,375.99 324.15,382.38 326.08,382.21 
		326.52,378.35 327.3,367.84 331.33,368.1 332.03,365.56 329.58,364.77 	"/>
	<path class="st1" d="M340.01,367.58l-3.24-0.88l-2.54,1.32l-1.31,3.77l0.17,8.15l2.01,1.49l2.72-0.79c0,0,2.28-2.63,2.28-2.98
		c0-0.35,0.88-5.96,0.88-6.31C340.97,371,340.01,367.58,340.01,367.58z M338.34,375.03c-0.09,0.26-1.05,2.28-1.05,2.28l-1.23,0.44
		l-0.53-2.01l0.53-4.91l1.23-1.4l1.31,0.7c0,0,0.26,1.58,0.26,2.01S338.43,374.76,338.34,375.03z"/>
	<path class="st1" d="M349.21,371.26l-2.54-1.4l-2.8-0.79l-1.23,6.31l-0.53,5.78l2.1-0.18l0.7-4.64l2.98,0.09l1.84-2.28
		L349.21,371.26z M346.75,374.33l-1.75-0.18l0.44-2.8l1.84,0.61l0.26,1.31L346.75,374.33z"/>
	<path class="st1" d="M352.45,372.13l-0.79,1.67l0.26,1.49l1.75,1.23l-0.44,1.75l-1.14,0.79l-1.4-1.05l-1.23,0.17v1.75
		c0,0,1.58,1.58,1.84,1.58c0.26,0,2.98-0.09,2.98-0.09l1.31-2.28l0.17-2.28l-1.4-1.84l0.17-1.23l1.58,0.26l0.61,1.05l1.31-0.7
		l-0.96-1.93l-2.89-1.05L352.45,372.13z"/>
	<polygon class="st1" points="357.18,383.7 356.39,385.19 357.18,385.8 357.88,385.45 358.32,384.31 	"/>
	<polygon class="st1" points="376.8,377.13 376.45,378 376.98,378.44 377.5,378.35 377.94,377.39 	"/>
	<path class="st1" d="M323.45,358.03l-0.53,0.96l-3.68-1.31l-5.61-0.26l-5.96,0.44l-5.43-0.79l-6.75-2.72l-1.66-1.49l-5.52-0.26
		l-3.86,1.58l-0.09,1.49l1.14,0.79l0.44-0.79l1.05,1.49l-0.96,1.14c0,0-1.93,0-2.19-0.09c-0.26-0.09-1.67-1.14-1.67-1.14l0.35-3.85
		l1.75-2.01l3.07-0.53l6.57,0.61l0.18-3.24c0,0,1.4-2.37,1.58-2.63c0.18-0.26,2.89-1.4,2.89-1.4l2.45,0.7l1.49,2.63l-1.23,2.28
		l-1.66-0.18c0,0-0.79-1.23-0.7-1.49c0.09-0.26,0.79-1.23,0.79-1.23l-2.1-0.18l-1.32,1.67l0.35,2.54l1.58,1.75l3.59,2.54l5.43,1.05
		l8.41,0.09l5.43,0.79L323.45,358.03z"/>
</g>
</svg>
