solid JSxCAD
facet normal 0 0 -1
  outer loop
    vertex -13.942 -5 -14
    vertex -13.942 2.366 -14
    vertex 3 -5 -14
  endloop
endfacet
facet normal 0 0 -1
  outer loop
    vertex -13.942 -5 -14
    vertex -13.942 2.366 -14
    vertex 3 -5 -14
  endloop
endfacet
facet normal -0.9999969365889224 0 0.0024752399420504153
  outer loop
    vertex -13.942 -5 -14
    vertex -13.941 -5 -13.596
    vertex -13.942 2.366 -14
  endloop
endfacet
facet normal -0.9999969365889224 0 0.0024752399420504153
  outer loop
    vertex -13.942 -5 -14
    vertex -13.941 -5 -13.596
    vertex -13.942 2.366 -14
  endloop
endfacet
facet normal 0 -1 0
  outer loop
    vertex -13.942 -5 -14
    vertex 3 -5 -14
    vertex -13.941 -5 -13.596
  endloop
endfacet
facet normal 0 -1 0
  outer loop
    vertex -13.942 -5 -14
    vertex 3 -5 -14
    vertex -13.941 -5 -13.596
  endloop
endfacet
facet normal 0 0 -1
  outer loop
    vertex -13.942 2.366 -14
    vertex -13.942 2.4 -14
    vertex 3 5 -14
  endloop
endfacet
facet normal 0 0 -1
  outer loop
    vertex -13.942 2.366 -14
    vertex -13.942 2.4 -14
    vertex 3 5 -14
  endloop
endfacet
facet normal -0.9999951084329859 0.000035779519934962676 0.0031275917135513555
  outer loop
    vertex -13.942 2.366 -14
    vertex -13.941 -5 -13.596
    vertex -13.935 5 -11.792
  endloop
endfacet
facet normal -0.9999951084329859 0.000035779519934962676 0.0031275917135513555
  outer loop
    vertex -13.942 2.366 -14
    vertex -13.941 -5 -13.596
    vertex -13.935 5 -11.792
  endloop
endfacet
facet normal -0.9999949746689987 0 0.0031702739233162624
  outer loop
    vertex -13.942 2.366 -14
    vertex -13.935 5 -11.792
    vertex -13.942 2.4 -14
  endloop
endfacet
facet normal -0.9999949746689987 0 0.0031702739233162624
  outer loop
    vertex -13.942 2.366 -14
    vertex -13.935 5 -11.792
    vertex -13.942 2.4 -14
  endloop
endfacet
facet normal 0 0 -1
  outer loop
    vertex -13.942 2.366 -14
    vertex 3 5 -14
    vertex 3 -5 -14
  endloop
endfacet
facet normal 0 0 -1
  outer loop
    vertex -13.942 2.366 -14
    vertex 3 5 -14
    vertex 3 -5 -14
  endloop
endfacet
facet normal 0 0 -1
  outer loop
    vertex -13.942 2.4 -14
    vertex -13.942 5 -14
    vertex 3 5 -14
  endloop
endfacet
facet normal 0 0 -1
  outer loop
    vertex -13.942 2.4 -14
    vertex -13.942 5 -14
    vertex 3 5 -14
  endloop
endfacet
facet normal -0.9999949746689986 0 0.003170273923316427
  outer loop
    vertex -13.942 2.4 -14
    vertex -13.935 5 -11.792
    vertex -13.942 5 -14
  endloop
endfacet
facet normal -0.9999949746689986 0 0.003170273923316427
  outer loop
    vertex -13.942 2.4 -14
    vertex -13.935 5 -11.792
    vertex -13.942 5 -14
  endloop
endfacet
facet normal 0 1 0
  outer loop
    vertex -13.942 5 -14
    vertex -13.935 5 -11.792
    vertex 3 5 -14
  endloop
endfacet
facet normal 0 1 0
  outer loop
    vertex -13.942 5 -14
    vertex -13.935 5 -11.792
    vertex 3 5 -14
  endloop
endfacet
facet normal -0.9999998200000486 0.0005999998920010144 0
  outer loop
    vertex -13.941 -5 -13.596
    vertex -13.941 -5 -13.551
    vertex -13.935 5 -11.792
  endloop
endfacet
facet normal -0.9999998200000486 0.0005999998920010144 0
  outer loop
    vertex -13.941 -5 -13.596
    vertex -13.941 -5 -13.551
    vertex -13.935 5 -11.792
  endloop
endfacet
facet normal 0 -1 0
  outer loop
    vertex -13.941 -5 -13.596
    vertex 3 -5 -14
    vertex -13.941 -5 -13.551
  endloop
endfacet
facet normal 0 -1 0
  outer loop
    vertex -13.941 -5 -13.596
    vertex 3 -5 -14
    vertex -13.941 -5 -13.551
  endloop
endfacet
facet normal -0.9999937861115077 -0.000020093882189226586 0.0035252424892298945
  outer loop
    vertex -13.941 -5 -13.551
    vertex -13.938 -5 -12.700000000000001
    vertex -13.935 5 -11.792
  endloop
endfacet
facet normal -0.9999937861115077 -0.000020093882189226586 0.0035252424892298945
  outer loop
    vertex -13.941 -5 -13.551
    vertex -13.938 -5 -12.700000000000001
    vertex -13.935 5 -11.792
  endloop
endfacet
facet normal 0 -0.9999999999999999 0
  outer loop
    vertex -13.941 -5 -13.551
    vertex 3 -5 -14
    vertex -13.938 -5 -12.700000000000001
  endloop
endfacet
facet normal 0 -0.9999999999999999 0
  outer loop
    vertex -13.941 -5 -13.551
    vertex 3 -5 -14
    vertex -13.938 -5 -12.700000000000001
  endloop
endfacet
facet normal -0.9999999550000032 0.000299999986512317 0
  outer loop
    vertex -13.938 -5 -12.700000000000001
    vertex -13.938 -5 -12.682
    vertex -13.935 5 -11.792
  endloop
endfacet
facet normal -0.9999999550000032 0.000299999986512317 0
  outer loop
    vertex -13.938 -5 -12.700000000000001
    vertex -13.938 -5 -12.682
    vertex -13.935 5 -11.792
  endloop
endfacet
facet normal 0 -1 0
  outer loop
    vertex -13.938 -5 -12.700000000000001
    vertex 3 -5 -14
    vertex -13.938 -5 -12.682
  endloop
endfacet
facet normal 0 -1 0
  outer loop
    vertex -13.938 -5 -12.700000000000001
    vertex 3 -5 -14
    vertex -13.938 -5 -12.682
  endloop
endfacet
facet normal -0.9999946879782222 0.000009908682697041684 0.0032594350977130913
  outer loop
    vertex -13.938 -5 -12.682
    vertex -13.933 -5 -11.148
    vertex -13.935 5 -11.792
  endloop
endfacet
facet normal -0.9999946879782222 0.000009908682697041684 0.0032594350977130913
  outer loop
    vertex -13.938 -5 -12.682
    vertex -13.933 -5 -11.148
    vertex -13.935 5 -11.792
  endloop
endfacet
facet normal 0 -1 0
  outer loop
    vertex -13.938 -5 -12.682
    vertex 3 -5 -14
    vertex 3 -5 -9
  endloop
endfacet
facet normal 0 -1 0
  outer loop
    vertex -13.938 -5 -12.682
    vertex 3 -5 -14
    vertex 3 -5 -9
  endloop
endfacet
facet normal 0 -1 1.094638030152267e-15
  outer loop
    vertex -13.938 -5 -12.682
    vertex 3 -5 -9
    vertex -13.933 -5 -11.148
  endloop
endfacet
facet normal 0 -1 1.094638030152267e-15
  outer loop
    vertex -13.938 -5 -12.682
    vertex 3 -5 -9
    vertex -13.933 -5 -11.148
  endloop
endfacet
facet normal 0 1 0
  outer loop
    vertex -13.935 5 -11.792
    vertex -13.935 5 -11.754
    vertex 3 5 -14
  endloop
endfacet
facet normal 0 1 0
  outer loop
    vertex -13.935 5 -11.792
    vertex -13.935 5 -11.754
    vertex 3 5 -14
  endloop
endfacet
facet normal -0.9999999800000007 -0.00019999999599992535 0
  outer loop
    vertex -13.935 5 -11.792
    vertex -13.933 -5 -11.148
    vertex -13.935 5 -11.754
  endloop
endfacet
facet normal -0.9999999800000007 -0.00019999999599992535 0
  outer loop
    vertex -13.935 5 -11.792
    vertex -13.933 -5 -11.148
    vertex -13.935 5 -11.754
  endloop
endfacet
facet normal -0.999994553955326 0 0.0033003120592595874
  outer loop
    vertex -13.935 5 -11.754
    vertex -13.933 -5 -11.148
    vertex -13.933 5 -11.148
  endloop
endfacet
facet normal -0.999994553955326 0 0.0033003120592595874
  outer loop
    vertex -13.935 5 -11.754
    vertex -13.933 -5 -11.148
    vertex -13.933 5 -11.148
  endloop
endfacet
facet normal 0 1 2.76823094096114e-15
  outer loop
    vertex -13.935 5 -11.754
    vertex -13.933 5 -11.148
    vertex 3 5 -14
  endloop
endfacet
facet normal 0 1 2.76823094096114e-15
  outer loop
    vertex -13.935 5 -11.754
    vertex -13.933 5 -11.148
    vertex 3 5 -14
  endloop
endfacet
facet normal -1 0 0
  outer loop
    vertex -13.933 -5 -11.148
    vertex -13.933 -5 -11.106
    vertex -13.933 -2.402 -9
  endloop
endfacet
facet normal -1 0 0
  outer loop
    vertex -13.933 -5 -11.148
    vertex -13.933 -5 -11.106
    vertex -13.933 -2.402 -9
  endloop
endfacet
facet normal -1 0 0
  outer loop
    vertex -13.933 -5 -11.148
    vertex -13.933 -2.402 -9
    vertex -13.933 -2.362 -9
  endloop
endfacet
facet normal -1 0 0
  outer loop
    vertex -13.933 -5 -11.148
    vertex -13.933 -2.402 -9
    vertex -13.933 -2.362 -9
  endloop
endfacet
facet normal -1 0 0
  outer loop
    vertex -13.933 -5 -11.148
    vertex -13.933 -2.362 -9
    vertex -13.933 5 -11.148
  endloop
endfacet
facet normal -1 0 0
  outer loop
    vertex -13.933 -5 -11.148
    vertex -13.933 -2.362 -9
    vertex -13.933 5 -11.148
  endloop
endfacet
facet normal 0 -1 0
  outer loop
    vertex -13.933 -5 -11.148
    vertex 3 -5 -9
    vertex -13.933 -5 -11.106
  endloop
endfacet
facet normal 0 -1 0
  outer loop
    vertex -13.933 -5 -11.148
    vertex 3 -5 -9
    vertex -13.933 -5 -11.106
  endloop
endfacet
facet normal -0.9999999999999999 0 0
  outer loop
    vertex -13.933 -5 -11.106
    vertex -13.933 -5 -9
    vertex -13.933 -2.402 -9
  endloop
endfacet
facet normal -0.9999999999999999 0 0
  outer loop
    vertex -13.933 -5 -11.106
    vertex -13.933 -5 -9
    vertex -13.933 -2.402 -9
  endloop
endfacet
facet normal 0 -1 0
  outer loop
    vertex -13.933 -5 -11.106
    vertex 3 -5 -9
    vertex -13.933 -5 -9
  endloop
endfacet
facet normal 0 -1 0
  outer loop
    vertex -13.933 -5 -11.106
    vertex 3 -5 -9
    vertex -13.933 -5 -9
  endloop
endfacet
facet normal 0 0 1
  outer loop
    vertex -13.933 -5 -9
    vertex 3 -5 -9
    vertex -13.933 -2.402 -9
  endloop
endfacet
facet normal 0 0 1
  outer loop
    vertex -13.933 -5 -9
    vertex 3 -5 -9
    vertex -13.933 -2.402 -9
  endloop
endfacet
facet normal 0 0 1
  outer loop
    vertex -13.933 -2.402 -9
    vertex 3 -5 -9
    vertex -13.933 -2.362 -9
  endloop
endfacet
facet normal 0 0 1
  outer loop
    vertex -13.933 -2.402 -9
    vertex 3 -5 -9
    vertex -13.933 -2.362 -9
  endloop
endfacet
facet normal -1 -2.1249730658280453e-14 0
  outer loop
    vertex -13.933 -2.362 -9
    vertex -13.933 5 -11.126
    vertex -13.933 5 -11.148
  endloop
endfacet
facet normal -1 -2.1249730658280453e-14 0
  outer loop
    vertex -13.933 -2.362 -9
    vertex -13.933 5 -11.126
    vertex -13.933 5 -11.148
  endloop
endfacet
facet normal -1 5.97985785003421e-16 0
  outer loop
    vertex -13.933 -2.362 -9
    vertex -13.933 5 -10.319
    vertex -13.933 5 -11.126
  endloop
endfacet
facet normal -1 5.97985785003421e-16 0
  outer loop
    vertex -13.933 -2.362 -9
    vertex -13.933 5 -10.319
    vertex -13.933 5 -11.126
  endloop
endfacet
facet normal -1 1.508045401555387e-14 0
  outer loop
    vertex -13.933 -2.362 -9
    vertex -13.933 5 -10.299
    vertex -13.933 5 -10.319
  endloop
endfacet
facet normal -1 1.508045401555387e-14 0
  outer loop
    vertex -13.933 -2.362 -9
    vertex -13.933 5 -10.299
    vertex -13.933 5 -10.319
  endloop
endfacet
facet normal -1 0 0
  outer loop
    vertex -13.933 -2.362 -9
    vertex -13.933 5 -9
    vertex -13.933 5 -10.299
  endloop
endfacet
facet normal -1 0 0
  outer loop
    vertex -13.933 -2.362 -9
    vertex -13.933 5 -9
    vertex -13.933 5 -10.299
  endloop
endfacet
facet normal 0 0 1
  outer loop
    vertex -13.933 -2.362 -9
    vertex 3 -5 -9
    vertex 3 5 -9
  endloop
endfacet
facet normal 0 0 1
  outer loop
    vertex -13.933 -2.362 -9
    vertex 3 -5 -9
    vertex 3 5 -9
  endloop
endfacet
facet normal 0 0 0.9999999999999999
  outer loop
    vertex -13.933 -2.362 -9
    vertex 3 5 -9
    vertex -13.933 5 -9
  endloop
endfacet
facet normal 0 0 0.9999999999999999
  outer loop
    vertex -13.933 -2.362 -9
    vertex 3 5 -9
    vertex -13.933 5 -9
  endloop
endfacet
facet normal 0 1 0
  outer loop
    vertex -13.933 5 -11.148
    vertex -13.933 5 -11.126
    vertex 3 5 -14
  endloop
endfacet
facet normal 0 1 0
  outer loop
    vertex -13.933 5 -11.148
    vertex -13.933 5 -11.126
    vertex 3 5 -14
  endloop
endfacet
facet normal 0 1 0
  outer loop
    vertex -13.933 5 -11.126
    vertex -13.933 5 -10.319
    vertex 3 5 -14
  endloop
endfacet
facet normal 0 1 0
  outer loop
    vertex -13.933 5 -11.126
    vertex -13.933 5 -10.319
    vertex 3 5 -14
  endloop
endfacet
facet normal 0 1 0
  outer loop
    vertex -13.933 5 -10.319
    vertex -13.933 5 -10.299
    vertex 3 5 -9
  endloop
endfacet
facet normal 0 1 0
  outer loop
    vertex -13.933 5 -10.319
    vertex -13.933 5 -10.299
    vertex 3 5 -9
  endloop
endfacet
facet normal 0 1 0
  outer loop
    vertex -13.933 5 -10.319
    vertex 3 5 -9
    vertex 3 5 -14
  endloop
endfacet
facet normal 0 1 0
  outer loop
    vertex -13.933 5 -10.319
    vertex 3 5 -9
    vertex 3 5 -14
  endloop
endfacet
facet normal 0 1 0
  outer loop
    vertex -13.933 5 -10.299
    vertex -13.933 5 -9
    vertex 3 5 -9
  endloop
endfacet
facet normal 0 1 0
  outer loop
    vertex -13.933 5 -10.299
    vertex -13.933 5 -9
    vertex 3 5 -9
  endloop
endfacet
facet normal 1 0 0
  outer loop
    vertex 3 -5 -14
    vertex 3 5 -14
    vertex 3 -5 -9
  endloop
endfacet
facet normal 1 0 0
  outer loop
    vertex 3 -5 -14
    vertex 3 5 -14
    vertex 3 -5 -9
  endloop
endfacet
facet normal 1 0 0
  outer loop
    vertex 3 -5 -9
    vertex 3 5 -14
    vertex 3 5 -9
  endloop
endfacet
facet normal 1 0 0
  outer loop
    vertex 3 -5 -9
    vertex 3 5 -14
    vertex 3 5 -9
  endloop
endfacet
endsolid JSxCAD
