solid JSxCAD
facet normal -0.9999999999999999 0 0
  outer loop
    vertex -14 -5 -3
    vertex -14 -5 13.967
    vertex -14 2.3770000000000002 13.967
  endloop
endfacet
facet normal -0.9999999999999999 0 0
  outer loop
    vertex -14 -5 -3
    vertex -14 -5 13.967
    vertex -14 2.3770000000000002 13.967
  endloop
endfacet
facet normal -1 0 0
  outer loop
    vertex -14 -5 -3
    vertex -14 2.3770000000000002 13.967
    vertex -14 5 -3
  endloop
endfacet
facet normal -1 0 0
  outer loop
    vertex -14 -5 -3
    vertex -14 2.3770000000000002 13.967
    vertex -14 5 -3
  endloop
endfacet
facet normal 0 0 -1
  outer loop
    vertex -14 -5 -3
    vertex -14 5 -3
    vertex -9 -5 -3
  endloop
endfacet
facet normal 0 0 -1
  outer loop
    vertex -14 -5 -3
    vertex -14 5 -3
    vertex -9 -5 -3
  endloop
endfacet
facet normal 0 -1 0
  outer loop
    vertex -14 -5 -3
    vertex -13.578 -5 13.967
    vertex -14 -5 13.967
  endloop
endfacet
facet normal 0 -1 0
  outer loop
    vertex -14 -5 -3
    vertex -13.578 -5 13.967
    vertex -14 -5 13.967
  endloop
endfacet
facet normal 0 -0.9999999999999999 0
  outer loop
    vertex -14 -5 -3
    vertex -13.55 -5 13.967
    vertex -13.578 -5 13.967
  endloop
endfacet
facet normal 0 -0.9999999999999999 0
  outer loop
    vertex -14 -5 -3
    vertex -13.55 -5 13.967
    vertex -13.578 -5 13.967
  endloop
endfacet
facet normal 0 -1 0
  outer loop
    vertex -14 -5 -3
    vertex -12.698 -5 13.967
    vertex -13.55 -5 13.967
  endloop
endfacet
facet normal 0 -1 0
  outer loop
    vertex -14 -5 -3
    vertex -12.698 -5 13.967
    vertex -13.55 -5 13.967
  endloop
endfacet
facet normal 0 -1 0
  outer loop
    vertex -14 -5 -3
    vertex -12.688 -5 13.967
    vertex -12.698 -5 13.967
  endloop
endfacet
facet normal 0 -1 0
  outer loop
    vertex -14 -5 -3
    vertex -12.688 -5 13.967
    vertex -12.698 -5 13.967
  endloop
endfacet
facet normal 0 -1 0
  outer loop
    vertex -14 -5 -3
    vertex -9 -5 -3
    vertex -12.688 -5 13.967
  endloop
endfacet
facet normal 0 -1 0
  outer loop
    vertex -14 -5 -3
    vertex -9 -5 -3
    vertex -12.688 -5 13.967
  endloop
endfacet
facet normal 0 0 1
  outer loop
    vertex -14 -5 13.967
    vertex -13.578 -5 13.967
    vertex -14 2.3770000000000002 13.967
  endloop
endfacet
facet normal 0 0 1
  outer loop
    vertex -14 -5 13.967
    vertex -13.578 -5 13.967
    vertex -14 2.3770000000000002 13.967
  endloop
endfacet
facet normal -1 0 0
  outer loop
    vertex -14 2.3770000000000002 13.967
    vertex -14 2.396 13.967
    vertex -14 5 -3
  endloop
endfacet
facet normal -1 0 0
  outer loop
    vertex -14 2.3770000000000002 13.967
    vertex -14 2.396 13.967
    vertex -14 5 -3
  endloop
endfacet
facet normal 0 0 1
  outer loop
    vertex -14 2.3770000000000002 13.967
    vertex -13.578 -5 13.967
    vertex -11.78 5 13.967
  endloop
endfacet
facet normal 0 0 1
  outer loop
    vertex -14 2.3770000000000002 13.967
    vertex -13.578 -5 13.967
    vertex -11.78 5 13.967
  endloop
endfacet
facet normal 0 0 1
  outer loop
    vertex -14 2.3770000000000002 13.967
    vertex -11.78 5 13.967
    vertex -14 2.396 13.967
  endloop
endfacet
facet normal 0 0 1
  outer loop
    vertex -14 2.3770000000000002 13.967
    vertex -11.78 5 13.967
    vertex -14 2.396 13.967
  endloop
endfacet
facet normal -0.9999999999999999 0 0
  outer loop
    vertex -14 2.396 13.967
    vertex -14 5 13.967
    vertex -14 5 -3
  endloop
endfacet
facet normal -0.9999999999999999 0 0
  outer loop
    vertex -14 2.396 13.967
    vertex -14 5 13.967
    vertex -14 5 -3
  endloop
endfacet
facet normal 0 0 1
  outer loop
    vertex -14 2.396 13.967
    vertex -11.78 5 13.967
    vertex -14 5 13.967
  endloop
endfacet
facet normal 0 0 1
  outer loop
    vertex -14 2.396 13.967
    vertex -11.78 5 13.967
    vertex -14 5 13.967
  endloop
endfacet
facet normal 0 1 0
  outer loop
    vertex -14 5 -3
    vertex -14 5 13.967
    vertex -11.78 5 13.967
  endloop
endfacet
facet normal 0 1 0
  outer loop
    vertex -14 5 -3
    vertex -14 5 13.967
    vertex -11.78 5 13.967
  endloop
endfacet
facet normal 0 1 0
  outer loop
    vertex -14 5 -3
    vertex -11.78 5 13.967
    vertex -11.75 5 13.967
  endloop
endfacet
facet normal 0 1 0
  outer loop
    vertex -14 5 -3
    vertex -11.78 5 13.967
    vertex -11.75 5 13.967
  endloop
endfacet
facet normal 0 1 0
  outer loop
    vertex -14 5 -3
    vertex -11.75 5 13.967
    vertex -11.141 5 13.967
  endloop
endfacet
facet normal 0 1 0
  outer loop
    vertex -14 5 -3
    vertex -11.75 5 13.967
    vertex -11.141 5 13.967
  endloop
endfacet
facet normal 0 1 0
  outer loop
    vertex -14 5 -3
    vertex -11.141 5 13.967
    vertex -11.120000000000001 5 13.967
  endloop
endfacet
facet normal 0 1 0
  outer loop
    vertex -14 5 -3
    vertex -11.141 5 13.967
    vertex -11.120000000000001 5 13.967
  endloop
endfacet
facet normal 0 1 2.5914556903415922e-16
  outer loop
    vertex -14 5 -3
    vertex -11.120000000000001 5 13.967
    vertex -10.312 5 13.967
  endloop
endfacet
facet normal 0 1 2.5914556903415922e-16
  outer loop
    vertex -14 5 -3
    vertex -11.120000000000001 5 13.967
    vertex -10.312 5 13.967
  endloop
endfacet
facet normal 0 1 -4.187792395592034e-17
  outer loop
    vertex -14 5 -3
    vertex -10.312 5 13.967
    vertex -9 5 -3
  endloop
endfacet
facet normal 0 1 -4.187792395592034e-17
  outer loop
    vertex -14 5 -3
    vertex -10.312 5 13.967
    vertex -9 5 -3
  endloop
endfacet
facet normal 0 0 -1
  outer loop
    vertex -14 5 -3
    vertex -9 5 -3
    vertex -9 -5 -3
  endloop
endfacet
facet normal 0 0 -1
  outer loop
    vertex -14 5 -3
    vertex -9 5 -3
    vertex -9 -5 -3
  endloop
endfacet
facet normal 0 0 1
  outer loop
    vertex -13.578 -5 13.967
    vertex -13.55 -5 13.967
    vertex -11.78 5 13.967
  endloop
endfacet
facet normal 0 0 1
  outer loop
    vertex -13.578 -5 13.967
    vertex -13.55 -5 13.967
    vertex -11.78 5 13.967
  endloop
endfacet
facet normal 0 0 1
  outer loop
    vertex -13.55 -5 13.967
    vertex -12.698 -5 13.967
    vertex -11.78 5 13.967
  endloop
endfacet
facet normal 0 0 1
  outer loop
    vertex -13.55 -5 13.967
    vertex -12.698 -5 13.967
    vertex -11.78 5 13.967
  endloop
endfacet
facet normal 0 0 1
  outer loop
    vertex -12.698 -5 13.967
    vertex -12.688 -5 13.967
    vertex -11.78 5 13.967
  endloop
endfacet
facet normal 0 0 1
  outer loop
    vertex -12.698 -5 13.967
    vertex -12.688 -5 13.967
    vertex -11.78 5 13.967
  endloop
endfacet
facet normal 0 0 1
  outer loop
    vertex -12.688 -5 13.967
    vertex -11.141 -5 13.967
    vertex -11.78 5 13.967
  endloop
endfacet
facet normal 0 0 1
  outer loop
    vertex -12.688 -5 13.967
    vertex -11.141 -5 13.967
    vertex -11.78 5 13.967
  endloop
endfacet
facet normal 0 -1 1.3535204898487468e-16
  outer loop
    vertex -12.688 -5 13.967
    vertex -9 -5 -3
    vertex -11.141 -5 13.967
  endloop
endfacet
facet normal 0 -1 1.3535204898487468e-16
  outer loop
    vertex -12.688 -5 13.967
    vertex -9 -5 -3
    vertex -11.141 -5 13.967
  endloop
endfacet
facet normal 0 0 1
  outer loop
    vertex -11.78 5 13.967
    vertex -11.141 -5 13.967
    vertex -11.75 5 13.967
  endloop
endfacet
facet normal 0 0 1
  outer loop
    vertex -11.78 5 13.967
    vertex -11.141 -5 13.967
    vertex -11.75 5 13.967
  endloop
endfacet
facet normal 0 0 0.9999999999999999
  outer loop
    vertex -11.75 5 13.967
    vertex -11.141 -5 13.967
    vertex -11.141 5 13.967
  endloop
endfacet
facet normal 0 0 0.9999999999999999
  outer loop
    vertex -11.75 5 13.967
    vertex -11.141 -5 13.967
    vertex -11.141 5 13.967
  endloop
endfacet
facet normal 0 0 0.9999999999999999
  outer loop
    vertex -11.141 -5 13.967
    vertex -11.11 -5 13.967
    vertex -9 -2.396 13.967
  endloop
endfacet
facet normal 0 0 0.9999999999999999
  outer loop
    vertex -11.141 -5 13.967
    vertex -11.11 -5 13.967
    vertex -9 -2.396 13.967
  endloop
endfacet
facet normal 0 -1 0
  outer loop
    vertex -11.141 -5 13.967
    vertex -9 -5 -3
    vertex -11.11 -5 13.967
  endloop
endfacet
facet normal 0 -1 0
  outer loop
    vertex -11.141 -5 13.967
    vertex -9 -5 -3
    vertex -11.11 -5 13.967
  endloop
endfacet
facet normal 5.731380692035169e-14 0 1
  outer loop
    vertex -11.141 -5 13.967
    vertex -9 -2.396 13.967
    vertex -9 -2.3770000000000002 13.967
  endloop
endfacet
facet normal 5.731380692035169e-14 0 1
  outer loop
    vertex -11.141 -5 13.967
    vertex -9 -2.396 13.967
    vertex -9 -2.3770000000000002 13.967
  endloop
endfacet
facet normal 0 0 1
  outer loop
    vertex -11.141 -5 13.967
    vertex -9 -2.3770000000000002 13.967
    vertex -11.141 5 13.967
  endloop
endfacet
facet normal 0 0 1
  outer loop
    vertex -11.141 -5 13.967
    vertex -9 -2.3770000000000002 13.967
    vertex -11.141 5 13.967
  endloop
endfacet
facet normal 0 0 1
  outer loop
    vertex -11.141 5 13.967
    vertex -9 -2.3770000000000002 13.967
    vertex -11.120000000000001 5 13.967
  endloop
endfacet
facet normal 0 0 1
  outer loop
    vertex -11.141 5 13.967
    vertex -9 -2.3770000000000002 13.967
    vertex -11.120000000000001 5 13.967
  endloop
endfacet
facet normal 0 0 1
  outer loop
    vertex -11.120000000000001 5 13.967
    vertex -9 -2.3770000000000002 13.967
    vertex -10.312 5 13.967
  endloop
endfacet
facet normal 0 0 1
  outer loop
    vertex -11.120000000000001 5 13.967
    vertex -9 -2.3770000000000002 13.967
    vertex -10.312 5 13.967
  endloop
endfacet
facet normal 0 -1 0
  outer loop
    vertex -11.11 -5 13.967
    vertex -9 -5 -3
    vertex -9 -5 13.967
  endloop
endfacet
facet normal 0 -1 0
  outer loop
    vertex -11.11 -5 13.967
    vertex -9 -5 -3
    vertex -9 -5 13.967
  endloop
endfacet
facet normal 0 0 1
  outer loop
    vertex -11.11 -5 13.967
    vertex -9 -5 13.967
    vertex -9 -2.396 13.967
  endloop
endfacet
facet normal 0 0 1
  outer loop
    vertex -11.11 -5 13.967
    vertex -9 -5 13.967
    vertex -9 -2.396 13.967
  endloop
endfacet
facet normal 0 1 0
  outer loop
    vertex -10.312 5 13.967
    vertex -10.302 5 13.967
    vertex -9 5 -3
  endloop
endfacet
facet normal 0 1 0
  outer loop
    vertex -10.312 5 13.967
    vertex -10.302 5 13.967
    vertex -9 5 -3
  endloop
endfacet
facet normal 0 0 1
  outer loop
    vertex -10.312 5 13.967
    vertex -9 -2.3770000000000002 13.967
    vertex -10.302 5 13.967
  endloop
endfacet
facet normal 0 0 1
  outer loop
    vertex -10.312 5 13.967
    vertex -9 -2.3770000000000002 13.967
    vertex -10.302 5 13.967
  endloop
endfacet
facet normal 0 0 1
  outer loop
    vertex -10.302 5 13.967
    vertex -9 -2.3770000000000002 13.967
    vertex -9 5 13.967
  endloop
endfacet
facet normal 0 0 1
  outer loop
    vertex -10.302 5 13.967
    vertex -9 -2.3770000000000002 13.967
    vertex -9 5 13.967
  endloop
endfacet
facet normal 0 1 0
  outer loop
    vertex -10.302 5 13.967
    vertex -9 5 13.967
    vertex -9 5 -3
  endloop
endfacet
facet normal 0 1 0
  outer loop
    vertex -10.302 5 13.967
    vertex -9 5 13.967
    vertex -9 5 -3
  endloop
endfacet
facet normal 0.9999999999999999 0 0
  outer loop
    vertex -9 -5 -3
    vertex -9 -2.396 13.967
    vertex -9 -5 13.967
  endloop
endfacet
facet normal 0.9999999999999999 0 0
  outer loop
    vertex -9 -5 -3
    vertex -9 -2.396 13.967
    vertex -9 -5 13.967
  endloop
endfacet
facet normal 1 0 0
  outer loop
    vertex -9 -5 -3
    vertex -9 -2.3770000000000002 13.967
    vertex -9 -2.396 13.967
  endloop
endfacet
facet normal 1 0 0
  outer loop
    vertex -9 -5 -3
    vertex -9 -2.3770000000000002 13.967
    vertex -9 -2.396 13.967
  endloop
endfacet
facet normal 1 0 0
  outer loop
    vertex -9 -5 -3
    vertex -9 5 -3
    vertex -9 -2.3770000000000002 13.967
  endloop
endfacet
facet normal 1 0 0
  outer loop
    vertex -9 -5 -3
    vertex -9 5 -3
    vertex -9 -2.3770000000000002 13.967
  endloop
endfacet
facet normal 0.9999999999999999 0 0
  outer loop
    vertex -9 -2.3770000000000002 13.967
    vertex -9 5 -3
    vertex -9 5 13.967
  endloop
endfacet
facet normal 0.9999999999999999 0 0
  outer loop
    vertex -9 -2.3770000000000002 13.967
    vertex -9 5 -3
    vertex -9 5 13.967
  endloop
endfacet
endsolid JSxCAD
