solid JSxCAD
facet normal 0 0 -1
  outer loop
    vertex -13.942 -5 -14
    vertex -13.942 2.366 -14
    vertex 3 -5 -14
  endloop
endfacet
facet normal 0 0 -1
  outer loop
    vertex -13.942 -5 -14
    vertex -13.942 2.366 -14
    vertex 3 -5 -14
  endloop
endfacet
facet normal -0.9999952663058013 0 0.0030769085117098235
  outer loop
    vertex -13.942 -5 -14
    vertex -13.938 -5 -12.700000000000001
    vertex -13.942 2.366 -14
  endloop
endfacet
facet normal -0.9999952663058013 0 0.0030769085117098235
  outer loop
    vertex -13.942 -5 -14
    vertex -13.938 -5 -12.700000000000001
    vertex -13.942 2.366 -14
  endloop
endfacet
facet normal 0 -0.9999999999999999 0
  outer loop
    vertex -13.942 -5 -14
    vertex 3 -5 -14
    vertex -13.938 -5 -12.700000000000001
  endloop
endfacet
facet normal 0 -0.9999999999999999 0
  outer loop
    vertex -13.942 -5 -14
    vertex 3 -5 -14
    vertex -13.938 -5 -12.700000000000001
  endloop
endfacet
facet normal 0 0 -1
  outer loop
    vertex -13.942 2.366 -14
    vertex -13.942 2.4 -14
    vertex 3 5 -14
  endloop
endfacet
facet normal 0 0 -1
  outer loop
    vertex -13.942 2.366 -14
    vertex -13.942 2.4 -14
    vertex 3 5 -14
  endloop
endfacet
facet normal -0.9999969365889224 0 0.00247523994204892
  outer loop
    vertex -13.942 2.366 -14
    vertex -13.941 5 -13.596
    vertex -13.942 2.4 -14
  endloop
endfacet
facet normal -0.9999969365889224 0 0.00247523994204892
  outer loop
    vertex -13.942 2.366 -14
    vertex -13.941 5 -13.596
    vertex -13.942 2.4 -14
  endloop
endfacet
facet normal -0.9999998525562181 -0.0005430354887898853 0
  outer loop
    vertex -13.942 2.366 -14
    vertex -13.938 -5 -12.700000000000001
    vertex -13.938 -5 -12.682
  endloop
endfacet
facet normal -0.9999998525562181 -0.0005430354887898853 0
  outer loop
    vertex -13.942 2.366 -14
    vertex -13.938 -5 -12.700000000000001
    vertex -13.938 -5 -12.682
  endloop
endfacet
facet normal -0.9999943171415663 0.000060099662426718325 0.0033707673611514674
  outer loop
    vertex -13.942 2.366 -14
    vertex -13.938 -5 -12.682
    vertex -13.935 -5 -11.792
  endloop
endfacet
facet normal -0.9999943171415663 0.000060099662426718325 0.0033707673611514674
  outer loop
    vertex -13.942 2.366 -14
    vertex -13.938 -5 -12.682
    vertex -13.935 -5 -11.792
  endloop
endfacet
facet normal -0.9999956903436952 -0.00007052046694884088 0.002935016337344948
  outer loop
    vertex -13.942 2.366 -14
    vertex -13.935 -5 -11.792
    vertex -13.941 5 -13.596
  endloop
endfacet
facet normal -0.9999956903436952 -0.00007052046694884088 0.002935016337344948
  outer loop
    vertex -13.942 2.366 -14
    vertex -13.935 -5 -11.792
    vertex -13.941 5 -13.596
  endloop
endfacet
facet normal 0 0 -1
  outer loop
    vertex -13.942 2.366 -14
    vertex 3 5 -14
    vertex 3 -5 -14
  endloop
endfacet
facet normal 0 0 -1
  outer loop
    vertex -13.942 2.366 -14
    vertex 3 5 -14
    vertex 3 -5 -14
  endloop
endfacet
facet normal 0 0 -1
  outer loop
    vertex -13.942 2.4 -14
    vertex -13.942 5 -14
    vertex 3 5 -14
  endloop
endfacet
facet normal 0 0 -1
  outer loop
    vertex -13.942 2.4 -14
    vertex -13.942 5 -14
    vertex 3 5 -14
  endloop
endfacet
facet normal -0.9999969365889223 0 0.0024752399420504244
  outer loop
    vertex -13.942 2.4 -14
    vertex -13.941 5 -13.596
    vertex -13.942 5 -14
  endloop
endfacet
facet normal -0.9999969365889223 0 0.0024752399420504244
  outer loop
    vertex -13.942 2.4 -14
    vertex -13.941 5 -13.596
    vertex -13.942 5 -14
  endloop
endfacet
facet normal 0 1 0
  outer loop
    vertex -13.942 5 -14
    vertex -13.941 5 -13.596
    vertex 3 5 -14
  endloop
endfacet
facet normal 0 1 0
  outer loop
    vertex -13.942 5 -14
    vertex -13.941 5 -13.596
    vertex 3 5 -14
  endloop
endfacet
facet normal 0 1 0
  outer loop
    vertex -13.941 5 -13.596
    vertex -13.941 5 -13.551
    vertex 3 5 -14
  endloop
endfacet
facet normal 0 1 0
  outer loop
    vertex -13.941 5 -13.596
    vertex -13.941 5 -13.551
    vertex 3 5 -14
  endloop
endfacet
facet normal -0.9999998200000486 -0.0005999998920010144 0
  outer loop
    vertex -13.941 5 -13.596
    vertex -13.935 -5 -11.792
    vertex -13.941 5 -13.551
  endloop
endfacet
facet normal -0.9999998200000486 -0.0005999998920010144 0
  outer loop
    vertex -13.941 5 -13.596
    vertex -13.935 -5 -11.792
    vertex -13.941 5 -13.551
  endloop
endfacet
facet normal -0.9999944582497411 -0.000014398588537297497 0.0033291534190590154
  outer loop
    vertex -13.941 5 -13.551
    vertex -13.935 -5 -11.792
    vertex -13.933 5 -11.148
  endloop
endfacet
facet normal -0.9999944582497411 -0.000014398588537297497 0.0033291534190590154
  outer loop
    vertex -13.941 5 -13.551
    vertex -13.935 -5 -11.792
    vertex -13.933 5 -11.148
  endloop
endfacet
facet normal 0 1 6.981022911435625e-16
  outer loop
    vertex -13.941 5 -13.551
    vertex -13.933 5 -11.148
    vertex 3 5 -14
  endloop
endfacet
facet normal 0 1 6.981022911435625e-16
  outer loop
    vertex -13.941 5 -13.551
    vertex -13.933 5 -11.148
    vertex 3 5 -14
  endloop
endfacet
facet normal 0 -1 0
  outer loop
    vertex -13.938 -5 -12.700000000000001
    vertex 3 -5 -14
    vertex -13.938 -5 -12.682
  endloop
endfacet
facet normal 0 -1 0
  outer loop
    vertex -13.938 -5 -12.700000000000001
    vertex 3 -5 -14
    vertex -13.938 -5 -12.682
  endloop
endfacet
facet normal 0 -1 0
  outer loop
    vertex -13.938 -5 -12.682
    vertex 3 -5 -14
    vertex 3 -5 -9
  endloop
endfacet
facet normal 0 -1 0
  outer loop
    vertex -13.938 -5 -12.682
    vertex 3 -5 -14
    vertex 3 -5 -9
  endloop
endfacet
facet normal 0 -0.9999999999999999 0
  outer loop
    vertex -13.938 -5 -12.682
    vertex 3 -5 -9
    vertex -13.935 -5 -11.792
  endloop
endfacet
facet normal 0 -0.9999999999999999 0
  outer loop
    vertex -13.938 -5 -12.682
    vertex 3 -5 -9
    vertex -13.935 -5 -11.792
  endloop
endfacet
facet normal -0.9999999800000005 0.00019999999599991033 0
  outer loop
    vertex -13.935 -5 -11.792
    vertex -13.935 -5 -11.735
    vertex -13.933 5 -11.148
  endloop
endfacet
facet normal -0.9999999800000005 0.00019999999599991033 0
  outer loop
    vertex -13.935 -5 -11.792
    vertex -13.935 -5 -11.735
    vertex -13.933 5 -11.148
  endloop
endfacet
facet normal 0 -0.9999999999999999 0
  outer loop
    vertex -13.935 -5 -11.792
    vertex 3 -5 -9
    vertex -13.935 -5 -11.735
  endloop
endfacet
facet normal 0 -0.9999999999999999 0
  outer loop
    vertex -13.935 -5 -11.792
    vertex 3 -5 -9
    vertex -13.935 -5 -11.735
  endloop
endfacet
facet normal -0.9999941956978512 0 0.003407135249397562
  outer loop
    vertex -13.935 -5 -11.735
    vertex -13.933 -5 -11.148
    vertex -13.933 5 -11.148
  endloop
endfacet
facet normal -0.9999941956978512 0 0.003407135249397562
  outer loop
    vertex -13.935 -5 -11.735
    vertex -13.933 -5 -11.148
    vertex -13.933 5 -11.148
  endloop
endfacet
facet normal 0 -0.9999999999999999 2.8606579450100298e-15
  outer loop
    vertex -13.935 -5 -11.735
    vertex 3 -5 -9
    vertex -13.933 -5 -11.148
  endloop
endfacet
facet normal 0 -0.9999999999999999 2.8606579450100298e-15
  outer loop
    vertex -13.935 -5 -11.735
    vertex 3 -5 -9
    vertex -13.933 -5 -11.148
  endloop
endfacet
facet normal -1 0 0
  outer loop
    vertex -13.933 -5 -11.148
    vertex -13.933 -5 -11.106
    vertex -13.933 -2.402 -9
  endloop
endfacet
facet normal -1 0 0
  outer loop
    vertex -13.933 -5 -11.148
    vertex -13.933 -5 -11.106
    vertex -13.933 -2.402 -9
  endloop
endfacet
facet normal -1 0 0
  outer loop
    vertex -13.933 -5 -11.148
    vertex -13.933 -2.402 -9
    vertex -13.933 -2.362 -9
  endloop
endfacet
facet normal -1 0 0
  outer loop
    vertex -13.933 -5 -11.148
    vertex -13.933 -2.402 -9
    vertex -13.933 -2.362 -9
  endloop
endfacet
facet normal -1 0 0
  outer loop
    vertex -13.933 -5 -11.148
    vertex -13.933 -2.362 -9
    vertex -13.933 5 -11.148
  endloop
endfacet
facet normal -1 0 0
  outer loop
    vertex -13.933 -5 -11.148
    vertex -13.933 -2.362 -9
    vertex -13.933 5 -11.148
  endloop
endfacet
facet normal 0 -1 0
  outer loop
    vertex -13.933 -5 -11.148
    vertex 3 -5 -9
    vertex -13.933 -5 -11.106
  endloop
endfacet
facet normal 0 -1 0
  outer loop
    vertex -13.933 -5 -11.148
    vertex 3 -5 -9
    vertex -13.933 -5 -11.106
  endloop
endfacet
facet normal -0.9999999999999999 0 0
  outer loop
    vertex -13.933 -5 -11.106
    vertex -13.933 -5 -9
    vertex -13.933 -2.402 -9
  endloop
endfacet
facet normal -0.9999999999999999 0 0
  outer loop
    vertex -13.933 -5 -11.106
    vertex -13.933 -5 -9
    vertex -13.933 -2.402 -9
  endloop
endfacet
facet normal 0 -1 0
  outer loop
    vertex -13.933 -5 -11.106
    vertex 3 -5 -9
    vertex -13.933 -5 -9
  endloop
endfacet
facet normal 0 -1 0
  outer loop
    vertex -13.933 -5 -11.106
    vertex 3 -5 -9
    vertex -13.933 -5 -9
  endloop
endfacet
facet normal 0 0 1
  outer loop
    vertex -13.933 -5 -9
    vertex 3 -5 -9
    vertex -13.933 -2.402 -9
  endloop
endfacet
facet normal 0 0 1
  outer loop
    vertex -13.933 -5 -9
    vertex 3 -5 -9
    vertex -13.933 -2.402 -9
  endloop
endfacet
facet normal 0 0 1
  outer loop
    vertex -13.933 -2.402 -9
    vertex 3 -5 -9
    vertex -13.933 -2.362 -9
  endloop
endfacet
facet normal 0 0 1
  outer loop
    vertex -13.933 -2.402 -9
    vertex 3 -5 -9
    vertex -13.933 -2.362 -9
  endloop
endfacet
facet normal -1 -2.1249730658280453e-14 0
  outer loop
    vertex -13.933 -2.362 -9
    vertex -13.933 5 -11.126
    vertex -13.933 5 -11.148
  endloop
endfacet
facet normal -1 -2.1249730658280453e-14 0
  outer loop
    vertex -13.933 -2.362 -9
    vertex -13.933 5 -11.126
    vertex -13.933 5 -11.148
  endloop
endfacet
facet normal -1 5.97985785003421e-16 0
  outer loop
    vertex -13.933 -2.362 -9
    vertex -13.933 5 -10.319
    vertex -13.933 5 -11.126
  endloop
endfacet
facet normal -1 5.97985785003421e-16 0
  outer loop
    vertex -13.933 -2.362 -9
    vertex -13.933 5 -10.319
    vertex -13.933 5 -11.126
  endloop
endfacet
facet normal -1 1.508045401555387e-14 0
  outer loop
    vertex -13.933 -2.362 -9
    vertex -13.933 5 -10.299
    vertex -13.933 5 -10.319
  endloop
endfacet
facet normal -1 1.508045401555387e-14 0
  outer loop
    vertex -13.933 -2.362 -9
    vertex -13.933 5 -10.299
    vertex -13.933 5 -10.319
  endloop
endfacet
facet normal -1 0 0
  outer loop
    vertex -13.933 -2.362 -9
    vertex -13.933 5 -9
    vertex -13.933 5 -10.299
  endloop
endfacet
facet normal -1 0 0
  outer loop
    vertex -13.933 -2.362 -9
    vertex -13.933 5 -9
    vertex -13.933 5 -10.299
  endloop
endfacet
facet normal 0 0 1
  outer loop
    vertex -13.933 -2.362 -9
    vertex 3 -5 -9
    vertex 3 5 -9
  endloop
endfacet
facet normal 0 0 1
  outer loop
    vertex -13.933 -2.362 -9
    vertex 3 -5 -9
    vertex 3 5 -9
  endloop
endfacet
facet normal 0 0 0.9999999999999999
  outer loop
    vertex -13.933 -2.362 -9
    vertex 3 5 -9
    vertex -13.933 5 -9
  endloop
endfacet
facet normal 0 0 0.9999999999999999
  outer loop
    vertex -13.933 -2.362 -9
    vertex 3 5 -9
    vertex -13.933 5 -9
  endloop
endfacet
facet normal 0 1 0
  outer loop
    vertex -13.933 5 -11.148
    vertex -13.933 5 -11.126
    vertex 3 5 -14
  endloop
endfacet
facet normal 0 1 0
  outer loop
    vertex -13.933 5 -11.148
    vertex -13.933 5 -11.126
    vertex 3 5 -14
  endloop
endfacet
facet normal 0 1 0
  outer loop
    vertex -13.933 5 -11.126
    vertex -13.933 5 -10.319
    vertex 3 5 -14
  endloop
endfacet
facet normal 0 1 0
  outer loop
    vertex -13.933 5 -11.126
    vertex -13.933 5 -10.319
    vertex 3 5 -14
  endloop
endfacet
facet normal 0 1 0
  outer loop
    vertex -13.933 5 -10.319
    vertex -13.933 5 -10.299
    vertex 3 5 -9
  endloop
endfacet
facet normal 0 1 0
  outer loop
    vertex -13.933 5 -10.319
    vertex -13.933 5 -10.299
    vertex 3 5 -9
  endloop
endfacet
facet normal 0 1 0
  outer loop
    vertex -13.933 5 -10.319
    vertex 3 5 -9
    vertex 3 5 -14
  endloop
endfacet
facet normal 0 1 0
  outer loop
    vertex -13.933 5 -10.319
    vertex 3 5 -9
    vertex 3 5 -14
  endloop
endfacet
facet normal 0 1 0
  outer loop
    vertex -13.933 5 -10.299
    vertex -13.933 5 -9
    vertex 3 5 -9
  endloop
endfacet
facet normal 0 1 0
  outer loop
    vertex -13.933 5 -10.299
    vertex -13.933 5 -9
    vertex 3 5 -9
  endloop
endfacet
facet normal 1 0 0
  outer loop
    vertex 3 -5 -14
    vertex 3 5 -14
    vertex 3 5 -9
  endloop
endfacet
facet normal 1 0 0
  outer loop
    vertex 3 -5 -14
    vertex 3 5 -14
    vertex 3 5 -9
  endloop
endfacet
facet normal 1 0 0
  outer loop
    vertex 3 -5 -14
    vertex 3 5 -9
    vertex 3 -5 -9
  endloop
endfacet
facet normal 1 0 0
  outer loop
    vertex 3 -5 -14
    vertex 3 5 -9
    vertex 3 -5 -9
  endloop
endfacet
endsolid JSxCAD
