solid JSxCAD
facet normal 0 0 -1
outer loop
vertex 15 15 -15
vertex 6.12944 11.46737 -15
vertex 6.47737 15 -15
endloop
endfacet
facet normal -7.165394592253083e-16 0 -1
outer loop
vertex 15 15 -15
vertex 5.21266 2.15915 -15
vertex 6.12944 11.46737 -15
endloop
endfacet
facet normal -4.198561914434438e-15 0 -0.9999999999999999
outer loop
vertex 15 15 -15
vertex 5.15399 1.56344 -15
vertex 5.21266 2.15915 -15
endloop
endfacet
facet normal 5.473864684811805e-15 0 -1
outer loop
vertex 15 15 -15
vertex 5.04898 0.49728 -15
vertex 5.15399 1.56344 -15
endloop
endfacet
facet normal -4.6105389758153015e-15 0 -1
outer loop
vertex 15 15 -15
vertex 5 0 -15
vertex 5.04898 0.49728 -15
endloop
endfacet
facet normal -2.5640717238695138e-15 0 -0.9999999999999999
outer loop
vertex 15 15 -15
vertex 4.90393 -0.97545 -15
vertex 5 0 -15
endloop
endfacet
facet normal 6.5748453228920674e-15 0 -1
outer loop
vertex 15 15 -15
vertex 4.80401 -1.98989 -15
vertex 4.90393 -0.97545 -15
endloop
endfacet
facet normal 0 0 -1
outer loop
vertex 15 15 -15
vertex 3.52263 -15 -15
vertex 4.80401 -1.98989 -15
endloop
endfacet
facet normal 0 0 -1
outer loop
vertex 3.52263 -15 -15
vertex 15 15 -15
vertex 15 -15 -15
endloop
endfacet
facet normal 0 0 1
outer loop
vertex 4.80401 -1.98989 -15
vertex 4.15735 -2.77785 -15
vertex 4.47435 -2.39159 -15
endloop
endfacet
facet normal -4.475352311287346e-10 0 1
outer loop
vertex 4.80401 -1.98989 -15
vertex 3.53553 -3.53553 -15
vertex 4.15735 -2.77785 -15
endloop
endfacet
facet normal 1.722678187223816e-10 0 -1
outer loop
vertex 4.80401 -1.98989 -15
vertex 2.88887 -4.3235 -15
vertex 3.53553 -3.53553 -15
endloop
endfacet
facet normal -4.439005521609442e-10 0 1
outer loop
vertex 4.80401 -1.98989 -15
vertex 2.15915 -5.21266 -15
vertex 2.88887 -4.3235 -15
endloop
endfacet
facet normal -3.245932484269996e-9 0 -1
outer loop
vertex 4.80401 -1.98989 -15
vertex -5.87311 -15 -15
vertex 2.15915 -5.21266 -15
endloop
endfacet
facet normal 0 0 -1
outer loop
vertex -5.87311 -15 -15
vertex 4.80401 -1.98989 -15
vertex 3.52263 -15 -15
endloop
endfacet
facet normal 0 0 1
outer loop
vertex 2.15915 -5.21266 -15
vertex 0 -5 -15
vertex 0.49728 -5.04898 -15
endloop
endfacet
facet normal -3.5314159424683906e-16 0 -1
outer loop
vertex -0.97545 -4.90393 -15
vertex -15 -15 -15
vertex -15 -3.52263 -15
endloop
endfacet
facet normal 5.077322584491864e-15 0 -1
outer loop
vertex 0 -5 -15
vertex -15 -15 -15
vertex -0.97545 -4.90393 -15
endloop
endfacet
facet normal 0 0 -1
outer loop
vertex 2.15915 -5.21266 -15
vertex -15 -15 -15
vertex 0 -5 -15
endloop
endfacet
facet normal 0 0 -1
outer loop
vertex -15 -15 -15
vertex 2.15915 -5.21266 -15
vertex -5.87311 -15 -15
endloop
endfacet
facet normal 0 0 1
outer loop
vertex -1.98989 -4.80401 -15
vertex -3.53553 -3.53553 -15
vertex -2.77785 -4.15735 -15
endloop
endfacet
facet normal 0 0 -1
outer loop
vertex -3.53553 -3.53553 -15
vertex -15 -3.52263 -15
vertex -15 5.87311 -15
endloop
endfacet
facet normal 4.892698511391306e-16 0 -0.9999999999999999
outer loop
vertex -15 -3.52263 -15
vertex -3.53553 -3.53553 -15
vertex -1.98989 -4.80401 -15
endloop
endfacet
facet normal -1.822683523556879e-14 0 -1
outer loop
vertex 4.80401 -1.98989 -15
vertex 4.6194 -1.91342 -15
vertex 4.90393 -0.97545 -15
endloop
endfacet
facet normal 0 0 -0.9999999999999999
outer loop
vertex 4.6194 -1.91342 -15
vertex 4.80401 -1.98989 -15
vertex 4.47435 -2.39159 -15
endloop
endfacet
facet normal 1.0698263070459828e-14 0 -1
outer loop
vertex 2.15915 -5.21266 -15
vertex 2.39159 -4.47435 -15
vertex 2.88887 -4.3235 -15
endloop
endfacet
facet normal -1.1125793609736168e-14 0 -1
outer loop
vertex 2.15915 -5.21266 -15
vertex 1.91342 -4.6194 -15
vertex 2.39159 -4.47435 -15
endloop
endfacet
facet normal 2.83591994432077e-15 0 -1
outer loop
vertex 2.15915 -5.21266 -15
vertex 0.97545 -4.90393 -15
vertex 1.91342 -4.6194 -15
endloop
endfacet
facet normal 0 0 -1
outer loop
vertex 0.97545 -4.90393 -15
vertex 2.15915 -5.21266 -15
vertex 0.49728 -5.04898 -15
endloop
endfacet
facet normal 0 0 -1
outer loop
vertex 0.97545 -4.90393 -15
vertex 0.49728 -5.04898 -15
vertex 0 -5 -15
endloop
endfacet
facet normal 0 0 -1
outer loop
vertex -1.98989 -4.80401 -15
vertex -1.91342 -4.6194 -15
vertex -0.97545 -4.90393 -15
endloop
endfacet
facet normal 0 0 -1
outer loop
vertex -1.91342 -4.6194 -15
vertex -1.98989 -4.80401 -15
vertex -2.39159 -4.47435 -15
endloop
endfacet
facet normal 0 0 -1
outer loop
vertex -6.47737 15 -15
vertex -15 5.87311 -15
vertex -15 15 -15
endloop
endfacet
facet normal 0 0 -1
outer loop
vertex -5 0 -15
vertex -15 5.87311 -15
vertex -6.47737 15 -15
endloop
endfacet
facet normal 0 0 -1
outer loop
vertex -4.90393 -0.97545 -15
vertex -15 5.87311 -15
vertex -5 0 -15
endloop
endfacet
facet normal 6.0663635853407204e-15 0 -1
outer loop
vertex -4.85495 -1.47273 -15
vertex -15 5.87311 -15
vertex -4.90393 -0.97545 -15
endloop
endfacet
facet normal -3.5368117135156443e-15 0 -1
outer loop
vertex -15 5.87311 -15
vertex -4.85495 -1.47273 -15
vertex -4.74994 -2.5389 -15
endloop
endfacet
facet normal 0 0 -0.9999999999999999
outer loop
vertex 2.88887 -4.3235 -15
vertex 2.77785 -4.15735 -15
vertex 3.53553 -3.53553 -15
endloop
endfacet
facet normal 0 0 -1
outer loop
vertex 2.77785 -4.15735 -15
vertex 2.88887 -4.3235 -15
vertex 2.39159 -4.47435 -15
endloop
endfacet
facet normal 0 0 -1
outer loop
vertex -4.15735 -2.77785 -15
vertex -4.74994 -2.5389 -15
vertex -4.80401 -1.98989 -15
endloop
endfacet
facet normal 0 0 -1
outer loop
vertex -4.74994 -2.5389 -15
vertex -4.15735 -2.77785 -15
vertex -3.53553 -3.53553 -15
endloop
endfacet
facet normal 0 0 -1
outer loop
vertex -4.80401 1.98989 -15
vertex -6.47737 15 -15
vertex -3.52263 15 -15
endloop
endfacet
facet normal 0 0 -0.9999999999999999
outer loop
vertex -4.85495 1.47273 -15
vertex -6.47737 15 -15
vertex -4.80401 1.98989 -15
endloop
endfacet
facet normal -3.8685764090581183e-14 0 -1
outer loop
vertex -4.90393 0.97545 -15
vertex -6.47737 15 -15
vertex -4.85495 1.47273 -15
endloop
endfacet
facet normal 7.395964083406252e-15 0 -1
outer loop
vertex -6.47737 15 -15
vertex -4.90393 0.97545 -15
vertex -5 0 -15
endloop
endfacet
facet normal 0 0 -1
outer loop
vertex -3.53553 3.53553 -15
vertex -3.52263 15 -15
vertex 5.87311 15 -15
endloop
endfacet
facet normal -7.984677414492668e-15 0 -0.9999999999999999
outer loop
vertex -4.15735 2.77785 -15
vertex -3.52263 15 -15
vertex -3.53553 3.53553 -15
endloop
endfacet
facet normal 8.157845530306889e-15 0 -1
outer loop
vertex -3.52263 15 -15
vertex -4.15735 2.77785 -15
vertex -4.80401 1.98989 -15
endloop
endfacet
facet normal 0 0 -1
outer loop
vertex 6.12944 11.46737 -15
vertex 5.87311 15 -15
vertex 6.47737 15 -15
endloop
endfacet
facet normal 0 0 -1
outer loop
vertex 0 6.43707 -15
vertex 5.87311 15 -15
vertex 6.12944 11.46737 -15
endloop
endfacet
facet normal -5.467033445394216e-15 0 -1
outer loop
vertex -2.77785 4.15735 -15
vertex 5.87311 15 -15
vertex 0 6.43707 -15
endloop
endfacet
facet normal 5.011022596218986e-15 0 -1
outer loop
vertex 5.87311 15 -15
vertex -2.77785 4.15735 -15
vertex -3.53553 3.53553 -15
endloop
endfacet
facet normal 0 0 -1
outer loop
vertex 6.12944 11.46737 -15
vertex 1.10073 5.53373 -15
vertex 0 6.43707 -15
endloop
endfacet
facet normal 5.471263178225395e-16 0 -0.9999999999999999
outer loop
vertex 6.12944 11.46737 -15
vertex 2.39159 4.47435 -15
vertex 1.10073 5.53373 -15
endloop
endfacet
facet normal -3.656915327876594e-15 0 -1
outer loop
vertex 6.12944 11.46737 -15
vertex 2.77785 4.15735 -15
vertex 2.39159 4.47435 -15
endloop
endfacet
facet normal 2.3205509047379412e-15 0 -1
outer loop
vertex 2.77785 4.15735 -15
vertex 6.12944 11.46737 -15
vertex 5.21266 2.15915 -15
endloop
endfacet
facet normal 0 0 -0.9999999999999999
outer loop
vertex 5.21266 2.15915 -15
vertex 4.15735 2.77785 -15
vertex 3.53553 3.53553 -15
endloop
endfacet
facet normal 0 0 -1
outer loop
vertex 4.15735 2.77785 -15
vertex 5.21266 2.15915 -15
vertex 5.15399 1.56344 -15
endloop
endfacet
facet normal 0 0 -1
outer loop
vertex 0 5.19983 -15
vertex 0 6.43707 -15
vertex 1.10073 5.53373 -15
endloop
endfacet
facet normal 0 0 -1
outer loop
vertex -0.97545 4.90393 -15
vertex 0 6.43707 -15
vertex 0 5.19983 -15
endloop
endfacet
facet normal 0 0 -1
outer loop
vertex -1.91342 4.6194 -15
vertex 0 6.43707 -15
vertex -0.97545 4.90393 -15
endloop
endfacet
facet normal -6.005124156923508e-15 0 -1
outer loop
vertex 0 6.43707 -15
vertex -1.91342 4.6194 -15
vertex -2.39159 4.47435 -15
endloop
endfacet
facet normal 3.756691690143717e-15 0 -1
outer loop
vertex 0.97545 4.90393 -15
vertex 1.10073 5.53373 -15
vertex 2.39159 4.47435 -15
endloop
endfacet
facet normal 0 0 -1
outer loop
vertex 0.49728 5.04898 -15
vertex 1.10073 5.53373 -15
vertex 0.97545 4.90393 -15
endloop
endfacet
facet normal 0 0 -1
outer loop
vertex 1.10073 5.53373 -15
vertex 0.49728 5.04898 -15
vertex 0 5.19983 -15
endloop
endfacet
facet normal 0 0 -0.9999999999999999
outer loop
vertex 4.90393 0.97545 -15
vertex 5.15399 1.56344 -15
vertex 5.04898 0.49728 -15
endloop
endfacet
facet normal 0 0 -1
outer loop
vertex 4.6194 1.91342 -15
vertex 5.15399 1.56344 -15
vertex 4.90393 0.97545 -15
endloop
endfacet
facet normal 0 0 -0.9999999999999999
outer loop
vertex 5.15399 1.56344 -15
vertex 4.6194 1.91342 -15
vertex 4.47435 2.39159 -15
endloop
endfacet
facet normal 0 0 -1
outer loop
vertex 0 5 -15
vertex 0 5.19983 -15
vertex 0.49728 5.04898 -15
endloop
endfacet
facet normal 0 0 -1
outer loop
vertex 0 5 -15
vertex -0.97545 4.90393 -15
vertex 0 5.19983 -15
endloop
endfacet
facet normal 0 0 -1
outer loop
vertex 0.49728 5.04898 -15
vertex 0.97545 4.90393 -15
vertex 0 5 -15
endloop
endfacet
facet normal 0 0 -1
outer loop
vertex 2.77785 4.15735 -15
vertex 1.91342 4.6194 -15
vertex 2.39159 4.47435 -15
endloop
endfacet
facet normal 0 0 -1
outer loop
vertex 4.90393 0.97545 -15
vertex 5.04898 0.49728 -15
vertex 5 0 -15
endloop
endfacet
facet normal 0 0 -1
outer loop
vertex 4.47435 2.39159 -15
vertex 4.6194 1.91342 -15
vertex 4.15735 2.77785 -15
endloop
endfacet
facet normal 0 0 -1
outer loop
vertex -2.77785 4.15735 -15
vertex -2.39159 4.47435 -15
vertex -1.91342 4.6194 -15
endloop
endfacet
facet normal 0 0 -1
outer loop
vertex -4.80401 1.98989 -15
vertex -4.6194 1.91342 -15
vertex -4.85495 1.47273 -15
endloop
endfacet
facet normal 0 0 -1
outer loop
vertex -4.80401 1.98989 -15
vertex -4.15735 2.77785 -15
vertex -4.6194 1.91342 -15
endloop
endfacet
facet normal -1.2072234138562752e-14 0 -0.9999999999999999
outer loop
vertex -4.85495 -1.47273 -15
vertex -4.15735 -2.77785 -15
vertex -4.80401 -1.98989 -15
endloop
endfacet
facet normal 0 0 -1
outer loop
vertex -4.90393 -0.97545 -15
vertex -4.6194 -1.91342 -15
vertex -4.85495 -1.47273 -15
endloop
endfacet
facet normal 0 0 -1
outer loop
vertex -4.90393 0.97545 -15
vertex -4.85495 1.47273 -15
vertex -4.6194 1.91342 -15
endloop
endfacet
facet normal 0 0 -1
outer loop
vertex -2.77785 -4.15735 -15
vertex -1.91342 -4.6194 -15
vertex -2.39159 -4.47435 -15
endloop
endfacet
facet normal 0 0 -1
outer loop
vertex 2.77785 -4.15735 -15
vertex 2.39159 -4.47435 -15
vertex 1.91342 -4.6194 -15
endloop
endfacet
facet normal 0 0 -1
outer loop
vertex 4.15735 -2.77785 -15
vertex 4.6194 -1.91342 -15
vertex 4.47435 -2.39159 -15
endloop
endfacet
facet normal 1 0 0
outer loop
vertex 15 -15 -15
vertex 15 15 15
vertex 15 -15 15
endloop
endfacet
facet normal 1 0 0
outer loop
vertex 15 15 15
vertex 15 -15 -15
vertex 15 15 -15
endloop
endfacet
facet normal 0 0 1
outer loop
vertex 6.12944 11.46737 15
vertex 15 15 15
vertex 6.47737 15 15
endloop
endfacet
facet normal -3.5826972961265416e-16 0 1
outer loop
vertex 5.21266 2.15915 15
vertex 15 15 15
vertex 6.12944 11.46737 15
endloop
endfacet
facet normal 0 0 1
outer loop
vertex 5.15399 1.56344 15
vertex 15 15 15
vertex 5.21266 2.15915 15
endloop
endfacet
facet normal 6.25584535407063e-15 0 1
outer loop
vertex 5.04898 0.49728 15
vertex 15 15 15
vertex 5.15399 1.56344 15
endloop
endfacet
facet normal 0 0 1
outer loop
vertex 5 0 15
vertex 15 15 15
vertex 5.04898 0.49728 15
endloop
endfacet
facet normal 0 0 1
outer loop
vertex 4.90393 -0.97545 15
vertex 15 15 15
vertex 5 0 15
endloop
endfacet
facet normal 6.57484532289206e-15 0 1
outer loop
vertex 4.80401 -1.98989 15
vertex 15 15 15
vertex 4.90393 -0.97545 15
endloop
endfacet
facet normal 0 0 1
outer loop
vertex 3.52263 -15 15
vertex 15 15 15
vertex 4.80401 -1.98989 15
endloop
endfacet
facet normal 0 0 1
outer loop
vertex 15 15 15
vertex 3.52263 -15 15
vertex 15 -15 15
endloop
endfacet
facet normal 0 0 -1
outer loop
vertex 4.15735 -2.77785 15
vertex 4.80401 -1.98989 15
vertex 4.47435 -2.39159 15
endloop
endfacet
facet normal -4.475352311287346e-10 0 -1
outer loop
vertex 3.53553 -3.53553 15
vertex 4.80401 -1.98989 15
vertex 4.15735 -2.77785 15
endloop
endfacet
facet normal 0 0 1
outer loop
vertex 2.88887 -4.3235 15
vertex 4.80401 -1.98989 15
vertex 3.53553 -3.53553 15
endloop
endfacet
facet normal -8.878011043711505e-10 0 -1
outer loop
vertex 2.15915 -5.21266 15
vertex 4.80401 -1.98989 15
vertex 2.88887 -4.3235 15
endloop
endfacet
facet normal -1.6229662431227553e-9 0 1
outer loop
vertex -5.87311 -15 15
vertex 4.80401 -1.98989 15
vertex 2.15915 -5.21266 15
endloop
endfacet
facet normal 0 0 1
outer loop
vertex 4.80401 -1.98989 15
vertex -5.87311 -15 15
vertex 3.52263 -15 15
endloop
endfacet
facet normal 0 0 1
outer loop
vertex 0 -5 15
vertex -5.87311 -15 15
vertex 2.15915 -5.21266 15
endloop
endfacet
facet normal 5.508761314258797e-15 0 1
outer loop
vertex -0.97545 -4.90393 15
vertex -5.87311 -15 15
vertex 0 -5 15
endloop
endfacet
facet normal 0 0 1
outer loop
vertex -1.98989 -4.80401 15
vertex -5.87311 -15 15
vertex -0.97545 -4.90393 15
endloop
endfacet
facet normal 0 0 1
outer loop
vertex -15 -3.52263 15
vertex -5.87311 -15 15
vertex -1.98989 -4.80401 15
endloop
endfacet
facet normal 0 0 1
outer loop
vertex -5.87311 -15 15
vertex -15 -3.52263 15
vertex -15 -15 15
endloop
endfacet
facet normal 0 0 -1
outer loop
vertex -3.53553 -3.53553 15
vertex -1.98989 -4.80401 15
vertex -2.77785 -4.15735 15
endloop
endfacet
facet normal 0 0 1
outer loop
vertex -3.53553 -3.53553 15
vertex -15 -3.52263 15
vertex -1.98989 -4.80401 15
endloop
endfacet
facet normal 0 0 1
outer loop
vertex -15 -3.52263 15
vertex -3.53553 -3.53553 15
vertex -15 5.87311 15
endloop
endfacet
facet normal -1.822683523556879e-14 0 1
outer loop
vertex 4.6194 -1.91342 15
vertex 4.80401 -1.98989 15
vertex 4.90393 -0.97545 15
endloop
endfacet
facet normal 0 0 1
outer loop
vertex 4.80401 -1.98989 15
vertex 4.6194 -1.91342 15
vertex 4.47435 -2.39159 15
endloop
endfacet
facet normal 1.06982630704598e-14 0 1
outer loop
vertex 2.39159 -4.47435 15
vertex 2.15915 -5.21266 15
vertex 2.88887 -4.3235 15
endloop
endfacet
facet normal 0 0 0.9999999999999999
outer loop
vertex 0.97545 -4.90393 15
vertex 2.15915 -5.21266 15
vertex 2.39159 -4.47435 15
endloop
endfacet
facet normal 0 0 1
outer loop
vertex 2.15915 -5.21266 15
vertex 0.97545 -4.90393 15
vertex 0.49728 -5.04898 15
endloop
endfacet
facet normal 0 0 1
outer loop
vertex 0.97545 -4.90393 15
vertex 0 -5 15
vertex 0.49728 -5.04898 15
endloop
endfacet
facet normal 0 0 1
outer loop
vertex -1.91342 -4.6194 15
vertex -1.98989 -4.80401 15
vertex -0.97545 -4.90393 15
endloop
endfacet
facet normal 0 0 1
outer loop
vertex -1.98989 -4.80401 15
vertex -1.91342 -4.6194 15
vertex -2.39159 -4.47435 15
endloop
endfacet
facet normal 0 0 1
outer loop
vertex -15 5.87311 15
vertex -6.47737 15 15
vertex -15 15 15
endloop
endfacet
facet normal 0 0 1
outer loop
vertex -15 5.87311 15
vertex -5 0 15
vertex -6.47737 15 15
endloop
endfacet
facet normal -7.731467202177751e-16 0 1
outer loop
vertex -15 5.87311 15
vertex -4.90393 -0.97545 15
vertex -5 0 15
endloop
endfacet
facet normal 3.79147724083795e-15 0 1
outer loop
vertex -15 5.87311 15
vertex -4.85495 -1.47273 15
vertex -4.90393 -0.97545 15
endloop
endfacet
facet normal -2.8294493708125153e-15 0 1
outer loop
vertex -4.85495 -1.47273 15
vertex -15 5.87311 15
vertex -4.74994 -2.5389 15
endloop
endfacet
facet normal 0 0 0.9999999999999999
outer loop
vertex 2.77785 -4.15735 15
vertex 2.88887 -4.3235 15
vertex 3.53553 -3.53553 15
endloop
endfacet
facet normal 0 0 1
outer loop
vertex 2.88887 -4.3235 15
vertex 2.77785 -4.15735 15
vertex 2.39159 -4.47435 15
endloop
endfacet
facet normal 1.1371674635397746e-14 0 0.9999999999999999
outer loop
vertex -4.74994 -2.5389 15
vertex -4.15735 -2.77785 15
vertex -4.80401 -1.98989 15
endloop
endfacet
facet normal 0 0 1
outer loop
vertex -4.15735 -2.77785 15
vertex -4.74994 -2.5389 15
vertex -3.53553 -3.53553 15
endloop
endfacet
facet normal 9.224473382710514e-10 0 -1
outer loop
vertex -4.85495 1.47273 15
vertex -5 0 15
vertex -4.90393 0.97545 15
endloop
endfacet
facet normal 0 0 -0.9999999999999999
outer loop
vertex -4.80401 1.98989 15
vertex -5 0 15
vertex -4.85495 1.47273 15
endloop
endfacet
facet normal -7.688075875732502e-10 0 1
outer loop
vertex -3.52263 15 15
vertex -5 0 15
vertex -4.80401 1.98989 15
endloop
endfacet
facet normal 0 0 1
outer loop
vertex -5 0 15
vertex -3.52263 15 15
vertex -6.47737 15 15
endloop
endfacet
facet normal 0 0 1
outer loop
vertex -3.52263 15 15
vertex -3.53553 3.53553 15
vertex 5.87311 15 15
endloop
endfacet
facet normal -3.992338707246334e-15 0 0.9999999999999999
outer loop
vertex -3.52263 15 15
vertex -4.15735 2.77785 15
vertex -3.53553 3.53553 15
endloop
endfacet
facet normal 7.677972263818248e-15 0 1
outer loop
vertex -4.15735 2.77785 15
vertex -3.52263 15 15
vertex -4.80401 1.98989 15
endloop
endfacet
facet normal 0 0 1
outer loop
vertex 5.87311 15 15
vertex 6.12944 11.46737 15
vertex 6.47737 15 15
endloop
endfacet
facet normal 0 0 1
outer loop
vertex 5.87311 15 15
vertex 0 6.43707 15
vertex 6.12944 11.46737 15
endloop
endfacet
facet normal -2.733516722697108e-15 0 1
outer loop
vertex 5.87311 15 15
vertex -2.77785 4.15735 15
vertex 0 6.43707 15
endloop
endfacet
facet normal 0 0 0.9999999999999999
outer loop
vertex -2.77785 4.15735 15
vertex 5.87311 15 15
vertex -3.53553 3.53553 15
endloop
endfacet
facet normal 0 0 0.9999999999999999
outer loop
vertex 1.10073 5.53373 15
vertex 6.12944 11.46737 15
vertex 0 6.43707 15
endloop
endfacet
facet normal 0 0 1
outer loop
vertex 2.39159 4.47435 15
vertex 6.12944 11.46737 15
vertex 1.10073 5.53373 15
endloop
endfacet
facet normal -7.31383065575319e-15 0 1
outer loop
vertex 2.77785 4.15735 15
vertex 6.12944 11.46737 15
vertex 2.39159 4.47435 15
endloop
endfacet
facet normal 1.4503443154612133e-15 0 1
outer loop
vertex 6.12944 11.46737 15
vertex 2.77785 4.15735 15
vertex 5.21266 2.15915 15
endloop
endfacet
facet normal 0 0 1
outer loop
vertex 4.15735 2.77785 15
vertex 5.21266 2.15915 15
vertex 3.53553 3.53553 15
endloop
endfacet
facet normal 0 0 1
outer loop
vertex 5.21266 2.15915 15
vertex 4.15735 2.77785 15
vertex 5.15399 1.56344 15
endloop
endfacet
facet normal 0 0 1
outer loop
vertex 0 6.43707 15
vertex 0 5.19983 15
vertex 1.10073 5.53373 15
endloop
endfacet
facet normal 1.4718760786982648e-15 0 1
outer loop
vertex 0 6.43707 15
vertex -0.97545 4.90393 15
vertex 0 5.19983 15
endloop
endfacet
facet normal 0 0 1
outer loop
vertex 0 6.43707 15
vertex -1.91342 4.6194 15
vertex -0.97545 4.90393 15
endloop
endfacet
facet normal -1.2010248313847016e-14 0 1
outer loop
vertex -1.91342 4.6194 15
vertex 0 6.43707 15
vertex -2.39159 4.47435 15
endloop
endfacet
facet normal 0 0 1
outer loop
vertex 0.49728 5.04898 15
vertex 1.10073 5.53373 15
vertex 0 5.19983 15
endloop
endfacet
facet normal -5.562878350918622e-15 0 1
outer loop
vertex 0.97545 4.90393 15
vertex 1.10073 5.53373 15
vertex 0.49728 5.04898 15
endloop
endfacet
facet normal 3.756691690143717e-15 0 1
outer loop
vertex 1.10073 5.53373 15
vertex 0.97545 4.90393 15
vertex 2.39159 4.47435 15
endloop
endfacet
facet normal -8.671113439222586e-15 0 0.9999999999999999
outer loop
vertex 5.15399 1.56344 15
vertex 4.90393 0.97545 15
vertex 5.04898 0.49728 15
endloop
endfacet
facet normal 0 0 1
outer loop
vertex 5.15399 1.56344 15
vertex 4.6194 1.91342 15
vertex 4.90393 0.97545 15
endloop
endfacet
facet normal 0 0 0.9999999999999999
outer loop
vertex 4.6194 1.91342 15
vertex 5.15399 1.56344 15
vertex 4.47435 2.39159 15
endloop
endfacet
facet normal 0 0 1
outer loop
vertex 0 5.19983 15
vertex 0 5 15
vertex 0.49728 5.04898 15
endloop
endfacet
facet normal 0 0 1
outer loop
vertex -0.97545 4.90393 15
vertex 0 5 15
vertex 0 5.19983 15
endloop
endfacet
facet normal 0 0 1
outer loop
vertex 0.97545 4.90393 15
vertex 0.49728 5.04898 15
vertex 0 5 15
endloop
endfacet
facet normal 0 0 1
outer loop
vertex 2.77785 4.15735 15
vertex 2.39159 4.47435 15
vertex 1.91342 4.6194 15
endloop
endfacet
facet normal 0 0 1
outer loop
vertex 4.90393 0.97545 15
vertex 5 0 15
vertex 5.04898 0.49728 15
endloop
endfacet
facet normal 0 0 1
outer loop
vertex 4.15735 2.77785 15
vertex 4.6194 1.91342 15
vertex 4.47435 2.39159 15
endloop
endfacet
facet normal 0 0 1
outer loop
vertex -2.39159 4.47435 15
vertex -2.77785 4.15735 15
vertex -1.91342 4.6194 15
endloop
endfacet
facet normal 0 0 1
outer loop
vertex -4.80401 1.98989 15
vertex -4.6194 1.91342 15
vertex -4.15735 2.77785 15
endloop
endfacet
facet normal 1.7876496114868692e-14 0 0.9999999999999999
outer loop
vertex -4.6194 1.91342 15
vertex -4.80401 1.98989 15
vertex -4.85495 1.47273 15
endloop
endfacet
facet normal -6.036117069281377e-15 0 1
outer loop
vertex -4.15735 -2.77785 15
vertex -4.85495 -1.47273 15
vertex -4.80401 -1.98989 15
endloop
endfacet
facet normal 0 0 1
outer loop
vertex -4.6194 -1.91342 15
vertex -4.90393 -0.97545 15
vertex -4.85495 -1.47273 15
endloop
endfacet
facet normal 0 0 1
outer loop
vertex -4.85495 1.47273 15
vertex -4.90393 0.97545 15
vertex -4.6194 1.91342 15
endloop
endfacet
facet normal 0 0 1
outer loop
vertex -1.91342 -4.6194 15
vertex -2.77785 -4.15735 15
vertex -2.39159 -4.47435 15
endloop
endfacet
facet normal 0 0 1
outer loop
vertex 2.39159 -4.47435 15
vertex 2.77785 -4.15735 15
vertex 1.91342 -4.6194 15
endloop
endfacet
facet normal 0 0 1
outer loop
vertex 4.15735 -2.77785 15
vertex 4.47435 -2.39159 15
vertex 4.6194 -1.91342 15
endloop
endfacet
facet normal 0 -1 0
outer loop
vertex 3.52263 -15 -15
vertex 15 -15 15
vertex 3.52263 -15 15
endloop
endfacet
facet normal 0 -1 0
outer loop
vertex 15 -15 15
vertex 3.52263 -15 -15
vertex 15 -15 -15
endloop
endfacet
facet normal 0 -1 0
outer loop
vertex -5.87311 -15 -15
vertex 3.52263 -15 15
vertex -5.87311 -15 15
endloop
endfacet
facet normal 0 -1 0
outer loop
vertex 3.52263 -15 15
vertex -5.87311 -15 -15
vertex 3.52263 -15 -15
endloop
endfacet
facet normal 0 -1 0
outer loop
vertex -15 -15 -15
vertex -5.87311 -15 15
vertex -15 -15 15
endloop
endfacet
facet normal 0 -1 0
outer loop
vertex -5.87311 -15 15
vertex -15 -15 -15
vertex -5.87311 -15 -15
endloop
endfacet
facet normal -1 0 0
outer loop
vertex -15 -3.52263 -15
vertex -15 -15 15
vertex -15 -3.52263 15
endloop
endfacet
facet normal -1 0 0
outer loop
vertex -15 -15 15
vertex -15 -3.52263 -15
vertex -15 -15 -15
endloop
endfacet
facet normal -1 0 0
outer loop
vertex -15 5.87311 -15
vertex -15 -3.52263 15
vertex -15 5.87311 15
endloop
endfacet
facet normal -1 0 0
outer loop
vertex -15 -3.52263 15
vertex -15 5.87311 -15
vertex -15 -3.52263 -15
endloop
endfacet
facet normal -1 0 0
outer loop
vertex -15 15 -15
vertex -15 5.87311 15
vertex -15 15 15
endloop
endfacet
facet normal -1 0 0
outer loop
vertex -15 5.87311 15
vertex -15 15 -15
vertex -15 5.87311 -15
endloop
endfacet
facet normal 0 1 0
outer loop
vertex 15 15 -15
vertex 6.47737 15 15
vertex 15 15 15
endloop
endfacet
facet normal 0 1 0
outer loop
vertex 6.47737 15 15
vertex 15 15 -15
vertex 6.47737 15 -15
endloop
endfacet
facet normal 0 1 0
outer loop
vertex -15 15 -15
vertex -6.47737 15 15
vertex -6.47737 15 -15
endloop
endfacet
facet normal 0 1 0
outer loop
vertex -6.47737 15 15
vertex -15 15 -15
vertex -15 15 15
endloop
endfacet
facet normal 0 1 0
outer loop
vertex -6.47737 15 -15
vertex -3.52263 15 15
vertex -3.52263 15 -15
endloop
endfacet
facet normal 0 1 0
outer loop
vertex -3.52263 15 15
vertex -6.47737 15 -15
vertex -6.47737 15 15
endloop
endfacet
facet normal 0 1 0
outer loop
vertex 5.87311 15 -15
vertex -3.52263 15 15
vertex 5.87311 15 15
endloop
endfacet
facet normal 0 1 0
outer loop
vertex -3.52263 15 15
vertex 5.87311 15 -15
vertex -3.52263 15 -15
endloop
endfacet
facet normal 0 1 0
outer loop
vertex 5.87311 15 -15
vertex 6.47737 15 15
vertex 6.47737 15 -15
endloop
endfacet
facet normal 0 1 0
outer loop
vertex 6.47737 15 15
vertex 5.87311 15 -15
vertex 5.87311 15 15
endloop
endfacet
facet normal -0.9951850689511187 0.09801366505114069 0
outer loop
vertex 5 0 -15
vertex 4.90393 -0.97545 15
vertex 5 0 15
endloop
endfacet
facet normal -0.9951850689511189 0.09801366505113877 0
outer loop
vertex 4.90393 -0.97545 15
vertex 5 0 -15
vertex 4.90393 -0.97545 -15
endloop
endfacet
facet normal -0.7730064039365386 0.6343982183716319 0
outer loop
vertex 4.15735 -2.77785 -15
vertex 3.53553 -3.53553 15
vertex 4.15735 -2.77785 15
endloop
endfacet
facet normal -0.7730064039365382 0.6343982183716325 0
outer loop
vertex 3.53553 -3.53553 15
vertex 4.15735 -2.77785 -15
vertex 3.53553 -3.53553 -15
endloop
endfacet
facet normal 0.09801366505113956 0.9951850689511189 0
outer loop
vertex 0 -5 -15
vertex -0.97545 -4.90393 15
vertex 0 -5 15
endloop
endfacet
facet normal 0.09801366505113956 0.9951850689511189 0
outer loop
vertex -0.97545 -4.90393 15
vertex 0 -5 -15
vertex -0.97545 -4.90393 -15
endloop
endfacet
facet normal 0.6343982183716318 0.7730064039365389 0
outer loop
vertex -2.77785 -4.15735 -15
vertex -3.53553 -3.53553 15
vertex -2.77785 -4.15735 15
endloop
endfacet
facet normal 0.6343982183716327 0.773006403936538 0
outer loop
vertex -3.53553 -3.53553 15
vertex -2.77785 -4.15735 -15
vertex -3.53553 -3.53553 -15
endloop
endfacet
facet normal -0.9569403609049872 0.2902845942709203 0
outer loop
vertex 4.90393 -0.97545 -15
vertex 4.6194 -1.91342 15
vertex 4.90393 -0.97545 15
endloop
endfacet
facet normal -0.9569403609049866 0.290284594270922 0
outer loop
vertex 4.6194 -1.91342 15
vertex 4.90393 -0.97545 -15
vertex 4.6194 -1.91342 -15
endloop
endfacet
facet normal -0.29028459427092135 0.9569403609049869 0
outer loop
vertex 1.91342 -4.6194 -15
vertex 0.97545 -4.90393 15
vertex 1.91342 -4.6194 15
endloop
endfacet
facet normal -0.29028459427092135 0.9569403609049869 0
outer loop
vertex 0.97545 -4.90393 15
vertex 1.91342 -4.6194 -15
vertex 0.97545 -4.90393 -15
endloop
endfacet
facet normal -0.09801366505113956 0.9951850689511189 0
outer loop
vertex 0.97545 -4.90393 -15
vertex 0 -5 15
vertex 0.97545 -4.90393 15
endloop
endfacet
facet normal -0.09801366505113956 0.9951850689511189 0
outer loop
vertex 0 -5 -15
vertex 0 -5 15
vertex 0.97545 -4.90393 -15
endloop
endfacet
facet normal 0.29028459427092135 0.9569403609049869 0
outer loop
vertex -0.97545 -4.90393 -15
vertex -1.91342 -4.6194 15
vertex -0.97545 -4.90393 15
endloop
endfacet
facet normal 0.29028459427092135 0.9569403609049869 0
outer loop
vertex -1.91342 -4.6194 15
vertex -0.97545 -4.90393 -15
vertex -1.91342 -4.6194 -15
endloop
endfacet
facet normal 0.9951850689511189 0.09801366505113877 0
outer loop
vertex -4.90393 -0.97545 -15
vertex -5 0 15
vertex -4.90393 -0.97545 15
endloop
endfacet
facet normal 0.9951850689511187 0.09801366505114069 0
outer loop
vertex -5 0 15
vertex -4.90393 -0.97545 -15
vertex -5 0 -15
endloop
endfacet
facet normal -0.6343982183716327 0.773006403936538 0
outer loop
vertex 3.53553 -3.53553 -15
vertex 2.77785 -4.15735 15
vertex 3.53553 -3.53553 15
endloop
endfacet
facet normal -0.6343982183716318 0.7730064039365389 0
outer loop
vertex 2.77785 -4.15735 -15
vertex 2.77785 -4.15735 15
vertex 3.53553 -3.53553 -15
endloop
endfacet
facet normal 0.7730064039365382 0.6343982183716325 0
outer loop
vertex -3.53553 -3.53553 -15
vertex -4.15735 -2.77785 15
vertex -3.53553 -3.53553 15
endloop
endfacet
facet normal 0.7730064039365386 0.6343982183716319 0
outer loop
vertex -4.15735 -2.77785 -15
vertex -4.15735 -2.77785 15
vertex -3.53553 -3.53553 -15
endloop
endfacet
facet normal 0.9951850689511187 -0.09801366505114069 0
outer loop
vertex -5 0 -15
vertex -4.90393 0.97545 15
vertex -5 0 15
endloop
endfacet
facet normal 0.9951850689511189 -0.09801366505113877 0
outer loop
vertex -4.90393 0.97545 -15
vertex -4.90393 0.97545 15
vertex -5 0 -15
endloop
endfacet
facet normal 0.7730064039365386 -0.6343982183716319 0
outer loop
vertex -4.15735 2.77785 -15
vertex -3.53553 3.53553 15
vertex -4.15735 2.77785 15
endloop
endfacet
facet normal 0.7730064039365382 -0.6343982183716325 0
outer loop
vertex -3.53553 3.53553 15
vertex -4.15735 2.77785 -15
vertex -3.53553 3.53553 -15
endloop
endfacet
facet normal 0.6343982183716327 -0.773006403936538 0
outer loop
vertex -3.53553 3.53553 -15
vertex -2.77785 4.15735 15
vertex -3.53553 3.53553 15
endloop
endfacet
facet normal 0.6343982183716318 -0.7730064039365389 0
outer loop
vertex -2.77785 4.15735 15
vertex -3.53553 3.53553 -15
vertex -2.77785 4.15735 -15
endloop
endfacet
facet normal -0.6343982183716318 -0.7730064039365389 0
outer loop
vertex 2.77785 4.15735 -15
vertex 3.53553 3.53553 15
vertex 2.77785 4.15735 15
endloop
endfacet
facet normal -0.6343982183716327 -0.773006403936538 0
outer loop
vertex 3.53553 3.53553 -15
vertex 3.53553 3.53553 15
vertex 2.77785 4.15735 -15
endloop
endfacet
facet normal -0.7730064039365382 -0.6343982183716325 0
outer loop
vertex 3.53553 3.53553 -15
vertex 4.15735 2.77785 15
vertex 3.53553 3.53553 15
endloop
endfacet
facet normal -0.7730064039365386 -0.6343982183716319 0
outer loop
vertex 4.15735 2.77785 15
vertex 3.53553 3.53553 -15
vertex 4.15735 2.77785 -15
endloop
endfacet
facet normal 0.29028459427092135 -0.9569403609049869 0
outer loop
vertex -1.91342 4.6194 -15
vertex -0.97545 4.90393 15
vertex -1.91342 4.6194 15
endloop
endfacet
facet normal 0.29028459427092135 -0.9569403609049869 0
outer loop
vertex -0.97545 4.90393 -15
vertex -0.97545 4.90393 15
vertex -1.91342 4.6194 -15
endloop
endfacet
facet normal -0.29028459427092135 -0.9569403609049869 0
outer loop
vertex 0.97545 4.90393 -15
vertex 1.91342 4.6194 15
vertex 0.97545 4.90393 15
endloop
endfacet
facet normal -0.29028459427092135 -0.9569403609049869 0
outer loop
vertex 1.91342 4.6194 15
vertex 0.97545 4.90393 -15
vertex 1.91342 4.6194 -15
endloop
endfacet
facet normal -0.9569403609049866 -0.290284594270922 0
outer loop
vertex 4.6194 1.91342 -15
vertex 4.90393 0.97545 15
vertex 4.6194 1.91342 15
endloop
endfacet
facet normal -0.9569403609049872 -0.2902845942709203 0
outer loop
vertex 4.90393 0.97545 15
vertex 4.6194 1.91342 -15
vertex 4.90393 0.97545 -15
endloop
endfacet
facet normal 0.09801366505113956 -0.9951850689511189 0
outer loop
vertex -0.97545 4.90393 -15
vertex 0 5 15
vertex -0.97545 4.90393 15
endloop
endfacet
facet normal 0.09801366505113956 -0.9951850689511189 0
outer loop
vertex 0 5 15
vertex -0.97545 4.90393 -15
vertex 0 5 -15
endloop
endfacet
facet normal -0.09801366505113956 -0.9951850689511189 0
outer loop
vertex 0 5 -15
vertex 0.97545 4.90393 15
vertex 0 5 15
endloop
endfacet
facet normal -0.09801366505113956 -0.9951850689511189 0
outer loop
vertex 0.97545 4.90393 15
vertex 0 5 -15
vertex 0.97545 4.90393 -15
endloop
endfacet
facet normal -0.47139875137929976 -0.8819201875442226 0
outer loop
vertex 1.91342 4.6194 -15
vertex 2.77785 4.15735 15
vertex 1.91342 4.6194 15
endloop
endfacet
facet normal -0.4713987513792993 -0.8819201875442232 0
outer loop
vertex 2.77785 4.15735 15
vertex 1.91342 4.6194 -15
vertex 2.77785 4.15735 -15
endloop
endfacet
facet normal -0.9951850689511189 -0.09801366505113877 0
outer loop
vertex 4.90393 0.97545 -15
vertex 5 0 15
vertex 4.90393 0.97545 15
endloop
endfacet
facet normal -0.9951850689511187 -0.09801366505114069 0
outer loop
vertex 5 0 15
vertex 4.90393 0.97545 -15
vertex 5 0 -15
endloop
endfacet
facet normal -0.8819201875442227 -0.4713987513793 0
outer loop
vertex 4.15735 2.77785 -15
vertex 4.6194 1.91342 15
vertex 4.15735 2.77785 15
endloop
endfacet
facet normal -0.8819201875442231 -0.4713987513792992 0
outer loop
vertex 4.6194 1.91342 15
vertex 4.15735 2.77785 -15
vertex 4.6194 1.91342 -15
endloop
endfacet
facet normal 0.4713987513792993 -0.8819201875442232 0
outer loop
vertex -2.77785 4.15735 -15
vertex -1.91342 4.6194 15
vertex -2.77785 4.15735 15
endloop
endfacet
facet normal 0.47139875137929976 -0.8819201875442226 0
outer loop
vertex -1.91342 4.6194 15
vertex -2.77785 4.15735 -15
vertex -1.91342 4.6194 -15
endloop
endfacet
facet normal 0.8819201875442231 -0.4713987513792992 0
outer loop
vertex -4.6194 1.91342 -15
vertex -4.15735 2.77785 15
vertex -4.6194 1.91342 15
endloop
endfacet
facet normal 0.8819201875442227 -0.4713987513793 0
outer loop
vertex -4.15735 2.77785 15
vertex -4.6194 1.91342 -15
vertex -4.15735 2.77785 -15
endloop
endfacet
facet normal 0.8819201875442227 0.4713987513793 0
outer loop
vertex -4.15735 -2.77785 -15
vertex -4.6194 -1.91342 15
vertex -4.15735 -2.77785 15
endloop
endfacet
facet normal 0.8819201875442231 0.4713987513792992 0
outer loop
vertex -4.6194 -1.91342 15
vertex -4.15735 -2.77785 -15
vertex -4.6194 -1.91342 -15
endloop
endfacet
facet normal 0.9569403609049866 0.290284594270922 0
outer loop
vertex -4.6194 -1.91342 -15
vertex -4.90393 -0.97545 15
vertex -4.6194 -1.91342 15
endloop
endfacet
facet normal 0.9569403609049872 0.2902845942709203 0
outer loop
vertex -4.90393 -0.97545 15
vertex -4.6194 -1.91342 -15
vertex -4.90393 -0.97545 -15
endloop
endfacet
facet normal 0.9569403609049872 -0.2902845942709203 0
outer loop
vertex -4.90393 0.97545 -15
vertex -4.6194 1.91342 15
vertex -4.90393 0.97545 15
endloop
endfacet
facet normal 0.9569403609049866 -0.290284594270922 0
outer loop
vertex -4.6194 1.91342 15
vertex -4.90393 0.97545 -15
vertex -4.6194 1.91342 -15
endloop
endfacet
facet normal 0.47139875137929976 0.8819201875442226 0
outer loop
vertex -1.91342 -4.6194 -15
vertex -2.77785 -4.15735 15
vertex -1.91342 -4.6194 15
endloop
endfacet
facet normal 0.4713987513792993 0.8819201875442232 0
outer loop
vertex -2.77785 -4.15735 15
vertex -1.91342 -4.6194 -15
vertex -2.77785 -4.15735 -15
endloop
endfacet
facet normal -0.4713987513792993 0.8819201875442232 0
outer loop
vertex 2.77785 -4.15735 -15
vertex 1.91342 -4.6194 15
vertex 2.77785 -4.15735 15
endloop
endfacet
facet normal -0.47139875137929976 0.8819201875442226 0
outer loop
vertex 1.91342 -4.6194 15
vertex 2.77785 -4.15735 -15
vertex 1.91342 -4.6194 -15
endloop
endfacet
facet normal -0.8819201875442231 0.4713987513792992 0
outer loop
vertex 4.6194 -1.91342 -15
vertex 4.15735 -2.77785 15
vertex 4.6194 -1.91342 15
endloop
endfacet
facet normal -0.8819201875442227 0.4713987513793 0
outer loop
vertex 4.15735 -2.77785 -15
vertex 4.15735 -2.77785 15
vertex 4.6194 -1.91342 -15
endloop
endfacet
endsolid JSxCAD
