solid JSxCAD
facet normal 0 -0.9999999999999999 0
outer loop
vertex 15 -15 15
vertex 0.64963 -15 15
vertex 0.64963 -15 -15
endloop
endfacet
facet normal 0 -0.9999999999999999 0
outer loop
vertex 15 -15 15
vertex 0.64963 -15 -15
vertex 15 -15 -15
endloop
endfacet
facet normal 0 -1 0
outer loop
vertex -2.37553 -15 15
vertex -2.37553 -15 -15
vertex 0.64963 -15 -15
endloop
endfacet
facet normal 0 -1 0
outer loop
vertex -2.37553 -15 15
vertex 0.64963 -15 -15
vertex 0.64963 -15 15
endloop
endfacet
facet normal 0 -0.9999999999999999 0
outer loop
vertex -5.87311 -15 15
vertex -5.87311 -15 -15
vertex -2.37553 -15 -15
endloop
endfacet
facet normal 0 -1 0
outer loop
vertex -5.87311 -15 15
vertex -2.37553 -15 -15
vertex -2.37553 -15 15
endloop
endfacet
facet normal 0 -1 0
outer loop
vertex -10.43396 -15 15
vertex -10.43396 -15 -15
vertex -5.87311 -15 -15
endloop
endfacet
facet normal 0 -1 0
outer loop
vertex -10.43396 -15 15
vertex -5.87311 -15 -15
vertex -5.87311 -15 15
endloop
endfacet
facet normal 0 -1 0
outer loop
vertex -10.43396 -15 15
vertex -15 -15 15
vertex -15 -15 -15
endloop
endfacet
facet normal 0 -1 0
outer loop
vertex -10.43396 -15 15
vertex -15 -15 -15
vertex -10.43396 -15 -15
endloop
endfacet
facet normal -1 0 0
outer loop
vertex -15 -15 15
vertex -15 -13.65981 15
vertex -15 -13.65981 -15
endloop
endfacet
facet normal -1 0 0
outer loop
vertex -15 -15 15
vertex -15 -13.65981 -15
vertex -15 -15 -15
endloop
endfacet
facet normal -1 0 0
outer loop
vertex -15 -9.75003 15
vertex -15 -9.75003 -15
vertex -15 -13.65981 -15
endloop
endfacet
facet normal -1 0 0
outer loop
vertex -15 -9.75003 15
vertex -15 -13.65981 -15
vertex -15 -13.65981 15
endloop
endfacet
facet normal -1 0 0
outer loop
vertex -15 -6.47737 15
vertex -15 -6.47737 -15
vertex -15 -9.75003 -15
endloop
endfacet
facet normal -1 0 0
outer loop
vertex -15 -6.47737 15
vertex -15 -9.75003 -15
vertex -15 -9.75003 15
endloop
endfacet
facet normal -1 0 0
outer loop
vertex -15 -3.52263 15
vertex -15 -3.52263 -15
vertex -15 -6.47737 -15
endloop
endfacet
facet normal -1 0 0
outer loop
vertex -15 -3.52263 15
vertex -15 -6.47737 -15
vertex -15 -6.47737 15
endloop
endfacet
facet normal -1 0 0
outer loop
vertex -15 -0.64963 15
vertex -15 -0.64963 -15
vertex -15 -3.52263 -15
endloop
endfacet
facet normal -1 0 0
outer loop
vertex -15 -0.64963 15
vertex -15 -3.52263 -15
vertex -15 -3.52263 15
endloop
endfacet
facet normal -1 0 0
outer loop
vertex -15 2.37553 15
vertex -15 2.37553 -15
vertex -15 -0.64963 -15
endloop
endfacet
facet normal -1 0 0
outer loop
vertex -15 2.37553 15
vertex -15 -0.64963 -15
vertex -15 -0.64963 15
endloop
endfacet
facet normal -1 0 0
outer loop
vertex -15 5.87311 15
vertex -15 5.87311 -15
vertex -15 2.37553 -15
endloop
endfacet
facet normal -1 0 0
outer loop
vertex -15 5.87311 15
vertex -15 2.37553 -15
vertex -15 2.37553 15
endloop
endfacet
facet normal -1 0 0
outer loop
vertex -15 10.43396 15
vertex -15 10.43396 -15
vertex -15 5.87311 -15
endloop
endfacet
facet normal -1 0 0
outer loop
vertex -15 10.43396 15
vertex -15 5.87311 -15
vertex -15 5.87311 15
endloop
endfacet
facet normal -1 0 0
outer loop
vertex -15 10.43396 15
vertex -15 15 15
vertex -15 15 -15
endloop
endfacet
facet normal -1 0 0
outer loop
vertex -15 10.43396 15
vertex -15 15 -15
vertex -15 10.43396 -15
endloop
endfacet
facet normal 0 1 0
outer loop
vertex 9.75003 15 15
vertex 15 15 15
vertex 15 15 -15
endloop
endfacet
facet normal 0 1 0
outer loop
vertex 9.75003 15 15
vertex 15 15 -15
vertex 9.75003 15 -15
endloop
endfacet
facet normal 0 1 0
outer loop
vertex -13.65981 15 15
vertex -13.65981 15 -15
vertex -15 15 -15
endloop
endfacet
facet normal 0 1 0
outer loop
vertex -13.65981 15 15
vertex -15 15 -15
vertex -15 15 15
endloop
endfacet
facet normal 0 1 0
outer loop
vertex -9.75003 15 15
vertex -9.75003 15 -15
vertex -13.65981 15 -15
endloop
endfacet
facet normal 0 1 0
outer loop
vertex -9.75003 15 15
vertex -13.65981 15 -15
vertex -13.65981 15 15
endloop
endfacet
facet normal 0 1 0
outer loop
vertex -6.47737 15 15
vertex -6.47737 15 -15
vertex -9.75003 15 -15
endloop
endfacet
facet normal 0 1 0
outer loop
vertex -6.47737 15 15
vertex -9.75003 15 -15
vertex -9.75003 15 15
endloop
endfacet
facet normal 0 1 0
outer loop
vertex -3.52263 15 15
vertex -3.52263 15 -15
vertex -6.47737 15 -15
endloop
endfacet
facet normal 0 1 0
outer loop
vertex -3.52263 15 15
vertex -6.47737 15 -15
vertex -6.47737 15 15
endloop
endfacet
facet normal 0 1 0
outer loop
vertex -0.64963 15 15
vertex -0.64963 15 -15
vertex -3.52263 15 -15
endloop
endfacet
facet normal 0 1 0
outer loop
vertex -0.64963 15 15
vertex -3.52263 15 -15
vertex -3.52263 15 15
endloop
endfacet
facet normal 0 1 0
outer loop
vertex 2.37553 15 15
vertex 2.37553 15 -15
vertex -0.64963 15 -15
endloop
endfacet
facet normal 0 1 0
outer loop
vertex 2.37553 15 15
vertex -0.64963 15 -15
vertex -0.64963 15 15
endloop
endfacet
facet normal 0 0.9999999999999999 0
outer loop
vertex 5.87311 15 15
vertex 5.87311 15 -15
vertex 2.37553 15 -15
endloop
endfacet
facet normal 0 1 0
outer loop
vertex 5.87311 15 15
vertex 2.37553 15 -15
vertex 2.37553 15 15
endloop
endfacet
facet normal 0 0.9999999999999999 0
outer loop
vertex 5.87311 15 15
vertex 9.75003 15 15
vertex 9.75003 15 -15
endloop
endfacet
facet normal 0 1 0
outer loop
vertex 5.87311 15 15
vertex 9.75003 15 -15
vertex 5.87311 15 -15
endloop
endfacet
facet normal 1 0 0
outer loop
vertex 15 15 -15
vertex 15 15 15
vertex 15 -15 15
endloop
endfacet
facet normal 1 0 0
outer loop
vertex 15 15 -15
vertex 15 -15 15
vertex 15 -15 -15
endloop
endfacet
facet normal -3.913531498361172e-10 0 1
outer loop
vertex 9.75003 15 15
vertex 9.52332 14.25266 15
vertex 8.24884 10.05123 15
endloop
endfacet
facet normal 0 0 -1
outer loop
vertex 9.75003 15 15
vertex 8.24884 10.05123 15
vertex 7.46401 7.46401 15
endloop
endfacet
facet normal 4.157214196556814e-10 0 -1
outer loop
vertex 9.75003 15 15
vertex 7.46401 7.46401 15
vertex 6.92341 5.6819 15
endloop
endfacet
facet normal 0 0 0.9999999999999999
outer loop
vertex 9.75003 15 15
vertex 6.92341 5.6819 15
vertex 6.52171 4.35767 15
endloop
endfacet
facet normal -3.8362440850247185e-9 0 -1
outer loop
vertex 9.75003 15 15
vertex 6.52171 4.35767 15
vertex 5.7268 1.73721 15
endloop
endfacet
facet normal 7.886143422272459e-10 0 1
outer loop
vertex 9.75003 15 15
vertex 5.7268 1.73721 15
vertex 5.53373 1.10073 15
endloop
endfacet
facet normal 2.432765673945282e-10 0 1
outer loop
vertex 9.75003 15 15
vertex 5.53373 1.10073 15
vertex 5.35997 0.52791 15
endloop
endfacet
facet normal -4.393039353405766e-9 0 -1
outer loop
vertex 9.75003 15 15
vertex 5.35997 0.52791 15
vertex 4.90393 -0.97545 15
endloop
endfacet
facet normal 4.1450144592836835e-8 0 0.9999999999999993
outer loop
vertex 9.75003 15 15
vertex 4.90393 -0.97545 15
vertex 4.6194 -1.91342 15
endloop
endfacet
facet normal -4.499953986845496e-9 0 0.9999999999999999
outer loop
vertex 9.75003 15 15
vertex 4.6194 -1.91342 15
vertex 0.64963 -15 15
endloop
endfacet
facet normal 0 0 0.9999999999999999
outer loop
vertex 9.75003 15 15
vertex 0.64963 -15 15
vertex 15 -15 15
endloop
endfacet
facet normal 0 0 1
outer loop
vertex 9.75003 15 15
vertex 15 -15 15
vertex 15 15 15
endloop
endfacet
facet normal 0 0 0.9999999999999999
outer loop
vertex 4.6194 -1.91342 15
vertex 4.15735 -2.77785 15
vertex -2.37553 -15 15
endloop
endfacet
facet normal 0 0 1
outer loop
vertex 4.6194 -1.91342 15
vertex -2.37553 -15 15
vertex 0.64963 -15 15
endloop
endfacet
facet normal 0 0 1
outer loop
vertex 3.53553 -3.53553 15
vertex -5.87311 -15 15
vertex -2.37553 -15 15
endloop
endfacet
facet normal 0 0 1
outer loop
vertex 3.53553 -3.53553 15
vertex -2.37553 -15 15
vertex 4.15735 -2.77785 15
endloop
endfacet
facet normal 0 0 -1
outer loop
vertex 3.53553 -3.53553 15
vertex 2.77785 -4.15735 15
vertex -10.43396 -15 15
endloop
endfacet
facet normal 0 0 0.9999999999999999
outer loop
vertex 3.53553 -3.53553 15
vertex -10.43396 -15 15
vertex -5.87311 -15 15
endloop
endfacet
facet normal 0 0 -1
outer loop
vertex 2.77785 -4.15735 15
vertex 1.91342 -4.6194 15
vertex -15 -13.65981 15
endloop
endfacet
facet normal 5.964507497750012e-16 0 1
outer loop
vertex 2.77785 -4.15735 15
vertex -15 -13.65981 15
vertex -15 -15 15
endloop
endfacet
facet normal 0 0 1
outer loop
vertex 2.77785 -4.15735 15
vertex -15 -15 15
vertex -10.43396 -15 15
endloop
endfacet
facet normal -1.74526922959453e-8 0 0.9999999999999998
outer loop
vertex 1.91342 -4.6194 15
vertex 0.97545 -4.90393 15
vertex -15 -9.75003 15
endloop
endfacet
facet normal 0 0 1
outer loop
vertex 1.91342 -4.6194 15
vertex -15 -9.75003 15
vertex -15 -13.65981 15
endloop
endfacet
facet normal 2.718104883246596e-16 0 1
outer loop
vertex 0.97545 -4.90393 15
vertex -15 -6.47737 15
vertex -15 -9.75003 15
endloop
endfacet
facet normal -3.4293514315649107e-16 0 0.9999999999999999
outer loop
vertex -0.97545 -4.90393 15
vertex -15 -3.52263 15
vertex -15 -6.47737 15
endloop
endfacet
facet normal 2.4653213611354183e-15 0 0.9999999999999999
outer loop
vertex -0.97545 -4.90393 15
vertex -15 -6.47737 15
vertex 0 -5 15
endloop
endfacet
facet normal 0 0 1
outer loop
vertex -1.91342 -4.6194 15
vertex -15 -0.64963 15
vertex -15 -3.52263 15
endloop
endfacet
facet normal 0 0 1
outer loop
vertex -1.91342 -4.6194 15
vertex -15 -3.52263 15
vertex -0.97545 -4.90393 15
endloop
endfacet
facet normal 1.0546441043921885e-9 0 0.9999999999999999
outer loop
vertex -1.91342 -4.6194 15
vertex -2.77785 -4.15735 15
vertex -15 2.37553 15
endloop
endfacet
facet normal -3.5895969351285483e-16 0 1
outer loop
vertex -1.91342 -4.6194 15
vertex -15 2.37553 15
vertex -15 -0.64963 15
endloop
endfacet
facet normal -1.0632118664791432e-15 0 1
outer loop
vertex -3.53553 -3.53553 15
vertex -15 5.87311 15
vertex -15 2.37553 15
endloop
endfacet
facet normal 0 0 1
outer loop
vertex -3.53553 -3.53553 15
vertex -15 2.37553 15
vertex -2.77785 -4.15735 15
endloop
endfacet
facet normal 0 0 -1
outer loop
vertex -3.53553 -3.53553 15
vertex -4.15735 -2.77785 15
vertex -15 10.43396 15
endloop
endfacet
facet normal 1.08712734394104e-15 0 0.9999999999999999
outer loop
vertex -3.53553 -3.53553 15
vertex -15 10.43396 15
vertex -15 5.87311 15
endloop
endfacet
facet normal 0 0 1
outer loop
vertex -13.65981 15 15
vertex -15 15 15
vertex -15 10.43396 15
endloop
endfacet
facet normal -1.6914082580084717e-15 0 1
outer loop
vertex -13.65981 15 15
vertex -15 10.43396 15
vertex -4.15735 -2.77785 15
endloop
endfacet
facet normal 0 0 1
outer loop
vertex -4.90393 -0.97545 15
vertex -9.75003 15 15
vertex -13.65981 15 15
endloop
endfacet
facet normal -1.5500250935921134e-14 0 1
outer loop
vertex -4.90393 -0.97545 15
vertex -13.65981 15 15
vertex -4.6194 -1.91342 15
endloop
endfacet
facet normal 0 0 1
outer loop
vertex -4.90393 -0.97545 15
vertex -5 0 15
vertex -6.47737 15 15
endloop
endfacet
facet normal 0 0 1
outer loop
vertex -4.90393 -0.97545 15
vertex -6.47737 15 15
vertex -9.75003 15 15
endloop
endfacet
facet normal 0 0 1
outer loop
vertex -3.52263 15 15
vertex -6.47737 15 15
vertex -5 0 15
endloop
endfacet
facet normal 0 0 1
outer loop
vertex -0.64963 15 15
vertex -3.52263 15 15
vertex -4.90393 0.97545 15
endloop
endfacet
facet normal 0 0 0.9999999999999999
outer loop
vertex -4.6194 1.91342 15
vertex -4.15735 2.77785 15
vertex 2.37553 15 15
endloop
endfacet
facet normal 0 0 1
outer loop
vertex -4.6194 1.91342 15
vertex 2.37553 15 15
vertex -0.64963 15 15
endloop
endfacet
facet normal 0 0 1
outer loop
vertex 5.87311 15 15
vertex 2.37553 15 15
vertex -4.15735 2.77785 15
endloop
endfacet
facet normal -2.4234987672285662e-15 0 1
outer loop
vertex -3.53553 3.53553 15
vertex 9.52332 14.25266 15
vertex 9.75003 15 15
endloop
endfacet
facet normal 0 0 1
outer loop
vertex -3.53553 3.53553 15
vertex 9.75003 15 15
vertex 5.87311 15 15
endloop
endfacet
facet normal 0 0 1
outer loop
vertex -2.77785 4.15735 15
vertex 8.24884 10.05123 15
vertex 9.52332 14.25266 15
endloop
endfacet
facet normal 0 0 1
outer loop
vertex -0.97545 4.90393 15
vertex 7.46401 7.46401 15
vertex 8.24884 10.05123 15
endloop
endfacet
facet normal 0 0 1
outer loop
vertex -0.97545 4.90393 15
vertex 8.24884 10.05123 15
vertex -1.91342 4.6194 15
endloop
endfacet
facet normal 0 0 0.9999999999999999
outer loop
vertex -0.97545 4.90393 15
vertex 0 5 15
vertex 6.92341 5.6819 15
endloop
endfacet
facet normal 0 0 1
outer loop
vertex -0.97545 4.90393 15
vertex 6.92341 5.6819 15
vertex 7.46401 7.46401 15
endloop
endfacet
facet normal 0 0 -1
outer loop
vertex 0 5 15
vertex 0.97545 4.90393 15
vertex 6.52171 4.35767 15
endloop
endfacet
facet normal 0 0 0.9999999999999999
outer loop
vertex 0 5 15
vertex 6.52171 4.35767 15
vertex 6.92341 5.6819 15
endloop
endfacet
facet normal 0 0 0.9999999999999999
outer loop
vertex 0.97545 4.90393 15
vertex 6.2061 3.31723 15
vertex 6.52171 4.35767 15
endloop
endfacet
facet normal 0 0 1
outer loop
vertex 1.91342 4.6194 15
vertex 2.77785 4.15735 15
vertex 5.94708 2.46336 15
endloop
endfacet
facet normal 1.7751680337765897e-15 0 1
outer loop
vertex 1.91342 4.6194 15
vertex 5.94708 2.46336 15
vertex 6.2061 3.31723 15
endloop
endfacet
facet normal -5.3134851065685146e-15 0 1
outer loop
vertex 5.7268 1.73721 15
vertex 5.94708 2.46336 15
vertex 2.77785 4.15735 15
endloop
endfacet
facet normal -2.0395609899736045e-15 0 1
outer loop
vertex 3.53553 3.53553 15
vertex 5.53373 1.10073 15
vertex 5.7268 1.73721 15
endloop
endfacet
facet normal 5.342751769441151e-15 0 1
outer loop
vertex 4.6194 1.91342 15
vertex 5.35997 0.52791 15
vertex 5.53373 1.10073 15
endloop
endfacet
facet normal -1.7126840942413642e-14 0 1
outer loop
vertex 4.6194 1.91342 15
vertex 5.53373 1.10073 15
vertex 4.15735 2.77785 15
endloop
endfacet
facet normal 0 0 1
outer loop
vertex 4.90393 0.97545 15
vertex 5.19983 0 15
vertex 5.35997 0.52791 15
endloop
endfacet
facet normal -2.3652174418206e-14 0 1
outer loop
vertex 4.90393 0.97545 15
vertex 5.35997 0.52791 15
vertex 4.6194 1.91342 15
endloop
endfacet
facet normal -1.3836710074090701e-9 0 1
outer loop
vertex 4.90393 0.97545 15
vertex 5 0 15
vertex 5.04898 -0.49728 15
endloop
endfacet
facet normal 1.810811853703223e-14 0 1
outer loop
vertex 4.90393 0.97545 15
vertex 5.04898 -0.49728 15
vertex 5.19983 0 15
endloop
endfacet
facet normal 0 0 1
outer loop
vertex 4.90393 -0.97545 15
vertex 5.04898 -0.49728 15
vertex 5 0 15
endloop
endfacet
facet normal 1.9049403243452115e-8 0 0.9999999999999998
outer loop
vertex 0.64963 -15 -15
vertex 4.6194 -1.91342 -15
vertex 4.90393 -0.97545 -15
endloop
endfacet
facet normal -4.3883881696784926e-9 0 -1
outer loop
vertex 0.64963 -15 -15
vertex 4.90393 -0.97545 -15
vertex 5.35997 0.52791 -15
endloop
endfacet
facet normal 1.426575535152714e-9 0 0.9999999999999999
outer loop
vertex 0.64963 -15 -15
vertex 5.35997 0.52791 -15
vertex 5.53373 1.10073 -15
endloop
endfacet
facet normal -1.054268750862722e-9 0 1
outer loop
vertex 0.64963 -15 -15
vertex 5.53373 1.10073 -15
vertex 5.7268 1.73721 -15
endloop
endfacet
facet normal 2.597824742911181e-10 0 -0.9999999999999999
outer loop
vertex 0.64963 -15 -15
vertex 5.7268 1.73721 -15
vertex 6.52171 4.35767 -15
endloop
endfacet
facet normal 0 0 1
outer loop
vertex 0.64963 -15 -15
vertex 6.52171 4.35767 -15
vertex 6.92341 5.6819 -15
endloop
endfacet
facet normal 1.0288148356793968e-10 0 -1
outer loop
vertex 0.64963 -15 -15
vertex 6.92341 5.6819 -15
vertex 7.46401 7.46401 -15
endloop
endfacet
facet normal -4.4152045766922405e-10 0 -1
outer loop
vertex 0.64963 -15 -15
vertex 7.46401 7.46401 -15
vertex 8.24884 10.05123 -15
endloop
endfacet
facet normal 3.3143575153842637e-10 0 1
outer loop
vertex 0.64963 -15 -15
vertex 8.24884 10.05123 -15
vertex 9.52332 14.25266 -15
endloop
endfacet
facet normal -1.8873319583570517e-10 0 -1
outer loop
vertex 0.64963 -15 -15
vertex 9.52332 14.25266 -15
vertex 9.75003 15 -15
endloop
endfacet
facet normal 0 0 -1
outer loop
vertex 0.64963 -15 -15
vertex 9.75003 15 -15
vertex 15 15 -15
endloop
endfacet
facet normal 0 0 -0.9999999999999999
outer loop
vertex 0.64963 -15 -15
vertex 15 15 -15
vertex 15 -15 -15
endloop
endfacet
facet normal -6.591525655492553e-10 0 -1
outer loop
vertex -2.37553 -15 -15
vertex 4.15735 -2.77785 -15
vertex 4.6194 -1.91342 -15
endloop
endfacet
facet normal 0 0 -1
outer loop
vertex -2.37553 -15 -15
vertex 4.6194 -1.91342 -15
vertex 0.64963 -15 -15
endloop
endfacet
facet normal 2.888966421799084e-10 0 -1
outer loop
vertex -5.87311 -15 -15
vertex 3.53553 -3.53553 -15
vertex 4.15735 -2.77785 -15
endloop
endfacet
facet normal 0 0 -1
outer loop
vertex -5.87311 -15 -15
vertex 4.15735 -2.77785 -15
vertex -2.37553 -15 -15
endloop
endfacet
facet normal -1.3080418763025613e-10 0 1
outer loop
vertex -10.43396 -15 -15
vertex 2.77785 -4.15735 -15
vertex 3.53553 -3.53553 -15
endloop
endfacet
facet normal 0 0 -0.9999999999999999
outer loop
vertex -10.43396 -15 -15
vertex 3.53553 -3.53553 -15
vertex -5.87311 -15 -15
endloop
endfacet
facet normal 0 0 -1
outer loop
vertex -15 -15 -15
vertex -15 -13.65981 -15
vertex 1.91342 -4.6194 -15
endloop
endfacet
facet normal 9.20029577635913e-15 0 -1
outer loop
vertex -15 -15 -15
vertex 1.91342 -4.6194 -15
vertex 2.77785 -4.15735 -15
endloop
endfacet
facet normal 0 0 -1
outer loop
vertex -15 -15 -15
vertex 2.77785 -4.15735 -15
vertex -10.43396 -15 -15
endloop
endfacet
facet normal -1.3089519307626735e-8 0 -1
outer loop
vertex -15 -9.75003 -15
vertex 0.97545 -4.90393 -15
vertex 1.91342 -4.6194 -15
endloop
endfacet
facet normal 0 0 -1
outer loop
vertex -15 -9.75003 -15
vertex 1.91342 -4.6194 -15
vertex -15 -13.65981 -15
endloop
endfacet
facet normal 5.436209766493192e-16 0 -1
outer loop
vertex -15 -6.47737 -15
vertex 0.97545 -4.90393 -15
vertex -15 -9.75003 -15
endloop
endfacet
facet normal -3.512912381971884e-11 0 1
outer loop
vertex -15 -3.52263 -15
vertex -0.97545 -4.90393 -15
vertex 0 -5 -15
endloop
endfacet
facet normal 0 0 -1
outer loop
vertex -15 -3.52263 -15
vertex 0 -5 -15
vertex -15 -6.47737 -15
endloop
endfacet
facet normal -1.2699601945581558e-8 0 1
outer loop
vertex -15 -0.64963 -15
vertex -1.91342 -4.6194 -15
vertex -0.97545 -4.90393 -15
endloop
endfacet
facet normal 1.7634601198924656e-16 0 -1
outer loop
vertex -15 -0.64963 -15
vertex -0.97545 -4.90393 -15
vertex -15 -3.52263 -15
endloop
endfacet
facet normal 6.591525652016696e-10 0 -1
outer loop
vertex -15 2.37553 -15
vertex -2.77785 -4.15735 -15
vertex -1.91342 -4.6194 -15
endloop
endfacet
facet normal -3.5895969351285483e-16 0 -1
outer loop
vertex -15 2.37553 -15
vertex -1.91342 -4.6194 -15
vertex -15 -0.64963 -15
endloop
endfacet
facet normal -4.333449631622758e-10 0 -1
outer loop
vertex -15 5.87311 -15
vertex -3.53553 -3.53553 -15
vertex -2.77785 -4.15735 -15
endloop
endfacet
facet normal 0 0 -1
outer loop
vertex -15 5.87311 -15
vertex -2.77785 -4.15735 -15
vertex -15 2.37553 -15
endloop
endfacet
facet normal 2.616083752615816e-10 0 0.9999999999999999
outer loop
vertex -15 10.43396 -15
vertex -4.15735 -2.77785 -15
vertex -3.53553 -3.53553 -15
endloop
endfacet
facet normal 1.08712734394104e-15 0 -0.9999999999999999
outer loop
vertex -15 10.43396 -15
vertex -3.53553 -3.53553 -15
vertex -15 5.87311 -15
endloop
endfacet
facet normal 0 0 -1
outer loop
vertex -15 15 -15
vertex -13.65981 15 -15
vertex -4.15735 -2.77785 -15
endloop
endfacet
facet normal -2.296333892119513e-15 0 -1
outer loop
vertex -15 15 -15
vertex -4.15735 -2.77785 -15
vertex -15 10.43396 -15
endloop
endfacet
facet normal -4.1450144592836835e-8 0 -0.9999999999999993
outer loop
vertex -9.75003 15 -15
vertex -4.90393 -0.97545 -15
vertex -4.6194 -1.91342 -15
endloop
endfacet
facet normal 0 0 -1
outer loop
vertex -9.75003 15 -15
vertex -4.6194 -1.91342 -15
vertex -13.65981 15 -15
endloop
endfacet
facet normal 4.2154948579509246e-10 0 -1
outer loop
vertex -6.47737 15 -15
vertex -5 0 -15
vertex -4.90393 -0.97545 -15
endloop
endfacet
facet normal 0 0 -1
outer loop
vertex -6.47737 15 -15
vertex -4.90393 -0.97545 -15
vertex -9.75003 15 -15
endloop
endfacet
facet normal 0 0 -1
outer loop
vertex -3.52263 15 -15
vertex -5 0 -15
vertex -6.47737 15 -15
endloop
endfacet
facet normal 0 0 -1
outer loop
vertex -0.64963 15 -15
vertex -4.90393 0.97545 -15
vertex -3.52263 15 -15
endloop
endfacet
facet normal 6.591525655492553e-10 0 -1
outer loop
vertex 2.37553 15 -15
vertex -4.15735 2.77785 -15
vertex -4.6194 1.91342 -15
endloop
endfacet
facet normal 0 0 -1
outer loop
vertex 2.37553 15 -15
vertex -4.6194 1.91342 -15
vertex -0.64963 15 -15
endloop
endfacet
facet normal 0 0 -1
outer loop
vertex 5.87311 15 -15
vertex -4.15735 2.77785 -15
vertex 2.37553 15 -15
endloop
endfacet
facet normal 0 0 -0.9999999999999999
outer loop
vertex 9.75003 15 -15
vertex 9.52332 14.25266 -15
vertex -2.77785 4.15735 -15
endloop
endfacet
facet normal 3.342372256637117e-14 0 -1
outer loop
vertex 9.75003 15 -15
vertex -2.77785 4.15735 -15
vertex -3.53553 3.53553 -15
endloop
endfacet
facet normal 0 0 -1
outer loop
vertex 9.75003 15 -15
vertex -3.53553 3.53553 -15
vertex 5.87311 15 -15
endloop
endfacet
facet normal 5.014260222373412e-10 0 1
outer loop
vertex 8.24884 10.05123 -15
vertex -1.91342 4.6194 -15
vertex -2.77785 4.15735 -15
endloop
endfacet
facet normal 0 0 -1
outer loop
vertex 8.24884 10.05123 -15
vertex -2.77785 4.15735 -15
vertex 9.52332 14.25266 -15
endloop
endfacet
facet normal -5.398440497969102e-9 0 1
outer loop
vertex 7.46401 7.46401 -15
vertex -0.97545 4.90393 -15
vertex -1.91342 4.6194 -15
endloop
endfacet
facet normal 0 0 -1
outer loop
vertex 7.46401 7.46401 -15
vertex -1.91342 4.6194 -15
vertex 8.24884 10.05123 -15
endloop
endfacet
facet normal -6.49341043488366e-11 0 -0.9999999999999999
outer loop
vertex 6.92341 5.6819 -15
vertex 0 5 -15
vertex -0.97545 4.90393 -15
endloop
endfacet
facet normal 0 0 -1
outer loop
vertex 6.92341 5.6819 -15
vertex -0.97545 4.90393 -15
vertex 7.46401 7.46401 -15
endloop
endfacet
facet normal 8.829337928835615e-11 0 1
outer loop
vertex 6.52171 4.35767 -15
vertex 0.97545 4.90393 -15
vertex 0 5 -15
endloop
endfacet
facet normal 0 0 -1
outer loop
vertex 6.52171 4.35767 -15
vertex 0 5 -15
vertex 6.92341 5.6819 -15
endloop
endfacet
facet normal 0 0 -1
outer loop
vertex 6.2061 3.31723 -15
vertex 0.97545 4.90393 -15
vertex 6.52171 4.35767 -15
endloop
endfacet
facet normal -5.11490927172783e-10 0 -1
outer loop
vertex 5.94708 2.46336 -15
vertex 2.77785 4.15735 -15
vertex 1.91342 4.6194 -15
endloop
endfacet
facet normal 1.7751680337765905e-15 0 -1
outer loop
vertex 5.94708 2.46336 -15
vertex 1.91342 4.6194 -15
vertex 6.2061 3.31723 -15
endloop
endfacet
facet normal -5.3134851065685146e-15 0 -1
outer loop
vertex 5.7268 1.73721 -15
vertex 2.77785 4.15735 -15
vertex 5.94708 2.46336 -15
endloop
endfacet
facet normal 0 0 -1
outer loop
vertex 5.53373 1.10073 -15
vertex 3.53553 3.53553 -15
vertex 5.7268 1.73721 -15
endloop
endfacet
facet normal 8.947999394763585e-10 0 1
outer loop
vertex 5.35997 0.52791 -15
vertex 4.6194 1.91342 -15
vertex 4.15735 2.77785 -15
endloop
endfacet
facet normal -6.580108581816839e-15 0 -1
outer loop
vertex 5.35997 0.52791 -15
vertex 4.15735 2.77785 -15
vertex 5.53373 1.10073 -15
endloop
endfacet
facet normal -6.646798273289095e-9 0 -1
outer loop
vertex 5.19983 0 -15
vertex 4.90393 0.97545 -15
vertex 4.6194 1.91342 -15
endloop
endfacet
facet normal 0 0 -1
outer loop
vertex 5.19983 0 -15
vertex 4.6194 1.91342 -15
vertex 5.35997 0.52791 -15
endloop
endfacet
facet normal -1.8448946765487506e-9 0 -1
outer loop
vertex 5.04898 -0.49728 -15
vertex 5 0 -15
vertex 4.90393 0.97545 -15
endloop
endfacet
facet normal 2.4144158049376307e-14 0 -1
outer loop
vertex 5.04898 -0.49728 -15
vertex 4.90393 0.97545 -15
vertex 5.19983 0 -15
endloop
endfacet
facet normal 0 0 -1
outer loop
vertex 4.90393 -0.97545 -15
vertex 5 0 -15
vertex 5.04898 -0.49728 -15
endloop
endfacet
facet normal -0.9569403609049866 0.290284594270922 0
outer loop
vertex 4.6194 -1.91342 -15
vertex 4.6194 -1.91342 15
vertex 4.90393 -0.97545 15
endloop
endfacet
facet normal -0.9569403609049872 0.2902845942709203 0
outer loop
vertex 4.6194 -1.91342 -15
vertex 4.90393 -0.97545 15
vertex 4.90393 -0.97545 -15
endloop
endfacet
facet normal -0.8819201875442227 0.4713987513793 0
outer loop
vertex 4.15735 -2.77785 -15
vertex 4.15735 -2.77785 15
vertex 4.6194 -1.91342 15
endloop
endfacet
facet normal -0.8819201875442231 0.4713987513792992 0
outer loop
vertex 4.15735 -2.77785 -15
vertex 4.6194 -1.91342 15
vertex 4.6194 -1.91342 -15
endloop
endfacet
facet normal -0.7730064039365382 0.6343982183716325 0
outer loop
vertex 3.53553 -3.53553 -15
vertex 3.53553 -3.53553 15
vertex 4.15735 -2.77785 15
endloop
endfacet
facet normal -0.7730064039365386 0.6343982183716319 0
outer loop
vertex 3.53553 -3.53553 -15
vertex 4.15735 -2.77785 15
vertex 4.15735 -2.77785 -15
endloop
endfacet
facet normal -0.6343982183716318 0.7730064039365389 0
outer loop
vertex 2.77785 -4.15735 -15
vertex 2.77785 -4.15735 15
vertex 3.53553 -3.53553 15
endloop
endfacet
facet normal -0.6343982183716327 0.773006403936538 0
outer loop
vertex 2.77785 -4.15735 -15
vertex 3.53553 -3.53553 15
vertex 3.53553 -3.53553 -15
endloop
endfacet
facet normal -0.47139875137929976 0.8819201875442226 0
outer loop
vertex 1.91342 -4.6194 -15
vertex 1.91342 -4.6194 15
vertex 2.77785 -4.15735 15
endloop
endfacet
facet normal -0.4713987513792993 0.8819201875442232 0
outer loop
vertex 1.91342 -4.6194 -15
vertex 2.77785 -4.15735 15
vertex 2.77785 -4.15735 -15
endloop
endfacet
facet normal -0.29028459427092135 0.9569403609049869 0
outer loop
vertex 0.97545 -4.90393 -15
vertex 0.97545 -4.90393 15
vertex 1.91342 -4.6194 15
endloop
endfacet
facet normal -0.29028459427092135 0.9569403609049869 0
outer loop
vertex 0.97545 -4.90393 -15
vertex 1.91342 -4.6194 15
vertex 1.91342 -4.6194 -15
endloop
endfacet
facet normal -0.09801366505113956 0.9951850689511189 0
outer loop
vertex 0 -5 -15
vertex 0 -5 15
vertex 0.97545 -4.90393 15
endloop
endfacet
facet normal -0.09801366505113956 0.9951850689511189 0
outer loop
vertex 0 -5 -15
vertex 0.97545 -4.90393 15
vertex 0.97545 -4.90393 -15
endloop
endfacet
facet normal 0.09801366505113956 0.9951850689511189 0
outer loop
vertex 0 -5 -15
vertex -0.97545 -4.90393 -15
vertex -0.97545 -4.90393 15
endloop
endfacet
facet normal 0.09801366505113956 0.9951850689511189 0
outer loop
vertex 0 -5 -15
vertex -0.97545 -4.90393 15
vertex 0 -5 15
endloop
endfacet
facet normal 0.29028459427092135 0.9569403609049869 0
outer loop
vertex -1.91342 -4.6194 -15
vertex -1.91342 -4.6194 15
vertex -0.97545 -4.90393 15
endloop
endfacet
facet normal 0.29028459427092135 0.9569403609049869 0
outer loop
vertex -1.91342 -4.6194 -15
vertex -0.97545 -4.90393 15
vertex -0.97545 -4.90393 -15
endloop
endfacet
facet normal 0.4713987513792993 0.8819201875442232 0
outer loop
vertex -2.77785 -4.15735 -15
vertex -2.77785 -4.15735 15
vertex -1.91342 -4.6194 15
endloop
endfacet
facet normal 0.47139875137929976 0.8819201875442226 0
outer loop
vertex -2.77785 -4.15735 -15
vertex -1.91342 -4.6194 15
vertex -1.91342 -4.6194 -15
endloop
endfacet
facet normal 0.6343982183716327 0.773006403936538 0
outer loop
vertex -3.53553 -3.53553 -15
vertex -3.53553 -3.53553 15
vertex -2.77785 -4.15735 15
endloop
endfacet
facet normal 0.6343982183716318 0.7730064039365389 0
outer loop
vertex -3.53553 -3.53553 -15
vertex -2.77785 -4.15735 15
vertex -2.77785 -4.15735 -15
endloop
endfacet
facet normal 0.7730064039365386 0.6343982183716319 0
outer loop
vertex -3.53553 -3.53553 -15
vertex -4.15735 -2.77785 -15
vertex -4.15735 -2.77785 15
endloop
endfacet
facet normal 0.7730064039365382 0.6343982183716325 0
outer loop
vertex -3.53553 -3.53553 -15
vertex -4.15735 -2.77785 15
vertex -3.53553 -3.53553 15
endloop
endfacet
facet normal 0.8819201875442231 0.4713987513792992 0
outer loop
vertex -4.15735 -2.77785 -15
vertex -4.6194 -1.91342 -15
vertex -4.6194 -1.91342 15
endloop
endfacet
facet normal 0.8819201875442227 0.4713987513793 0
outer loop
vertex -4.15735 -2.77785 -15
vertex -4.6194 -1.91342 15
vertex -4.15735 -2.77785 15
endloop
endfacet
facet normal 0.9569403609049872 0.2902845942709203 0
outer loop
vertex -4.6194 -1.91342 -15
vertex -4.90393 -0.97545 -15
vertex -4.90393 -0.97545 15
endloop
endfacet
facet normal 0.9569403609049866 0.290284594270922 0
outer loop
vertex -4.6194 -1.91342 -15
vertex -4.90393 -0.97545 15
vertex -4.6194 -1.91342 15
endloop
endfacet
facet normal 0.9951850689511187 0.09801366505114069 0
outer loop
vertex -5 0 -15
vertex -5 0 15
vertex -4.90393 -0.97545 15
endloop
endfacet
facet normal 0.9951850689511189 0.09801366505113877 0
outer loop
vertex -5 0 -15
vertex -4.90393 -0.97545 15
vertex -4.90393 -0.97545 -15
endloop
endfacet
facet normal 0.9951850689511189 -0.09801366505113877 0
outer loop
vertex -4.90393 0.97545 -15
vertex -4.90393 0.97545 15
vertex -5 0 15
endloop
endfacet
facet normal 0.9951850689511187 -0.09801366505114069 0
outer loop
vertex -4.90393 0.97545 -15
vertex -5 0 15
vertex -5 0 -15
endloop
endfacet
facet normal 0.9569403609049866 -0.290284594270922 0
outer loop
vertex -4.6194 1.91342 -15
vertex -4.6194 1.91342 15
vertex -4.90393 0.97545 15
endloop
endfacet
facet normal 0.9569403609049872 -0.2902845942709203 0
outer loop
vertex -4.6194 1.91342 -15
vertex -4.90393 0.97545 15
vertex -4.90393 0.97545 -15
endloop
endfacet
facet normal 0.8819201875442227 -0.4713987513793 0
outer loop
vertex -4.15735 2.77785 -15
vertex -4.15735 2.77785 15
vertex -4.6194 1.91342 15
endloop
endfacet
facet normal 0.8819201875442231 -0.4713987513792992 0
outer loop
vertex -4.15735 2.77785 -15
vertex -4.6194 1.91342 15
vertex -4.6194 1.91342 -15
endloop
endfacet
facet normal 0.7730064039365382 -0.6343982183716325 0
outer loop
vertex -4.15735 2.77785 -15
vertex -3.53553 3.53553 -15
vertex -3.53553 3.53553 15
endloop
endfacet
facet normal 0.7730064039365386 -0.6343982183716319 0
outer loop
vertex -4.15735 2.77785 -15
vertex -3.53553 3.53553 15
vertex -4.15735 2.77785 15
endloop
endfacet
facet normal 0.6343982183716318 -0.7730064039365389 0
outer loop
vertex -2.77785 4.15735 -15
vertex -2.77785 4.15735 15
vertex -3.53553 3.53553 15
endloop
endfacet
facet normal 0.6343982183716327 -0.773006403936538 0
outer loop
vertex -2.77785 4.15735 -15
vertex -3.53553 3.53553 15
vertex -3.53553 3.53553 -15
endloop
endfacet
facet normal 0.47139875137929976 -0.8819201875442226 0
outer loop
vertex -1.91342 4.6194 -15
vertex -1.91342 4.6194 15
vertex -2.77785 4.15735 15
endloop
endfacet
facet normal 0.4713987513792993 -0.8819201875442232 0
outer loop
vertex -1.91342 4.6194 -15
vertex -2.77785 4.15735 15
vertex -2.77785 4.15735 -15
endloop
endfacet
facet normal 0.29028459427092135 -0.9569403609049869 0
outer loop
vertex -1.91342 4.6194 -15
vertex -0.97545 4.90393 -15
vertex -0.97545 4.90393 15
endloop
endfacet
facet normal 0.29028459427092135 -0.9569403609049869 0
outer loop
vertex -1.91342 4.6194 -15
vertex -0.97545 4.90393 15
vertex -1.91342 4.6194 15
endloop
endfacet
facet normal 0.09801366505113956 -0.9951850689511189 0
outer loop
vertex 0 5 -15
vertex 0 5 15
vertex -0.97545 4.90393 15
endloop
endfacet
facet normal 0.09801366505113956 -0.9951850689511189 0
outer loop
vertex 0 5 -15
vertex -0.97545 4.90393 15
vertex -0.97545 4.90393 -15
endloop
endfacet
facet normal -0.09801366505113956 -0.9951850689511189 0
outer loop
vertex 0 5 -15
vertex 0.97545 4.90393 -15
vertex 0.97545 4.90393 15
endloop
endfacet
facet normal -0.09801366505113956 -0.9951850689511189 0
outer loop
vertex 0 5 -15
vertex 0.97545 4.90393 15
vertex 0 5 15
endloop
endfacet
facet normal -0.29028459427092135 -0.9569403609049869 0
outer loop
vertex 1.91342 4.6194 -15
vertex 1.91342 4.6194 15
vertex 0.97545 4.90393 15
endloop
endfacet
facet normal -0.29028459427092135 -0.9569403609049869 0
outer loop
vertex 1.91342 4.6194 -15
vertex 0.97545 4.90393 15
vertex 0.97545 4.90393 -15
endloop
endfacet
facet normal -0.4713987513792993 -0.8819201875442232 0
outer loop
vertex 2.77785 4.15735 -15
vertex 2.77785 4.15735 15
vertex 1.91342 4.6194 15
endloop
endfacet
facet normal -0.47139875137929976 -0.8819201875442226 0
outer loop
vertex 2.77785 4.15735 -15
vertex 1.91342 4.6194 15
vertex 1.91342 4.6194 -15
endloop
endfacet
facet normal -0.6343982183716327 -0.773006403936538 0
outer loop
vertex 2.77785 4.15735 -15
vertex 3.53553 3.53553 -15
vertex 3.53553 3.53553 15
endloop
endfacet
facet normal -0.6343982183716318 -0.7730064039365389 0
outer loop
vertex 2.77785 4.15735 -15
vertex 3.53553 3.53553 15
vertex 2.77785 4.15735 15
endloop
endfacet
facet normal -0.7730064039365386 -0.6343982183716319 0
outer loop
vertex 4.15735 2.77785 -15
vertex 4.15735 2.77785 15
vertex 3.53553 3.53553 15
endloop
endfacet
facet normal -0.7730064039365382 -0.6343982183716325 0
outer loop
vertex 4.15735 2.77785 -15
vertex 3.53553 3.53553 15
vertex 3.53553 3.53553 -15
endloop
endfacet
facet normal -0.8819201875442231 -0.4713987513792992 0
outer loop
vertex 4.15735 2.77785 -15
vertex 4.6194 1.91342 -15
vertex 4.6194 1.91342 15
endloop
endfacet
facet normal -0.8819201875442227 -0.4713987513793 0
outer loop
vertex 4.15735 2.77785 -15
vertex 4.6194 1.91342 15
vertex 4.15735 2.77785 15
endloop
endfacet
facet normal -0.9569403609049872 -0.2902845942709203 0
outer loop
vertex 4.90393 0.97545 -15
vertex 4.90393 0.97545 15
vertex 4.6194 1.91342 15
endloop
endfacet
facet normal -0.9569403609049866 -0.290284594270922 0
outer loop
vertex 4.90393 0.97545 -15
vertex 4.6194 1.91342 15
vertex 4.6194 1.91342 -15
endloop
endfacet
facet normal -0.9951850689511187 -0.09801366505114069 0
outer loop
vertex 5 0 -15
vertex 5 0 15
vertex 4.90393 0.97545 15
endloop
endfacet
facet normal -0.9951850689511189 -0.09801366505113877 0
outer loop
vertex 5 0 -15
vertex 4.90393 0.97545 15
vertex 4.90393 0.97545 -15
endloop
endfacet
facet normal -0.9951850689511189 0.09801366505113877 0
outer loop
vertex 4.90393 -0.97545 -15
vertex 4.90393 -0.97545 15
vertex 5 0 15
endloop
endfacet
facet normal -0.9951850689511187 0.09801366505114069 0
outer loop
vertex 4.90393 -0.97545 -15
vertex 5 0 15
vertex 5 0 -15
endloop
endfacet
endsolid JSxCAD
