solid JSxCAD
facet normal 0.09797484774406777 -0.019487362563614004 0.994998076334744
outer loop
vertex 0.18024 -0.07466 0.98079
vertex 0.19509 0 0.98079
vertex 0 0 1
endloop
endfacet
facet normal -0.01948736256361344 0.09797484774406877 0.994998076334744
outer loop
vertex 0 0.19509 0.98079
vertex -0.07466 0.18024 0.98079
vertex 0 0 1
endloop
endfacet
facet normal -0.0554988451084303 0.08305797840890229 0.9949981157842746
outer loop
vertex -0.07466 0.18024 0.98079
vertex -0.13795 0.13795 0.98079
vertex 0 0 1
endloop
endfacet
facet normal -0.08305797840890307 0.05549884510842913 0.9949981157842747
outer loop
vertex -0.13795 0.13795 0.98079
vertex -0.18024 0.07466 0.98079
vertex 0 0 1
endloop
endfacet
facet normal -0.09797484774406777 0.019487362563614004 0.994998076334744
outer loop
vertex 0 0 1
vertex -0.18024 0.07466 0.98079
vertex -0.19509 0 0.98079
endloop
endfacet
facet normal -0.09797484774406777 -0.019487362563614004 0.994998076334744
outer loop
vertex 0 0 1
vertex -0.19509 0 0.98079
vertex -0.18024 -0.07466 0.98079
endloop
endfacet
facet normal -0.08305797840890307 -0.05549884510842913 0.9949981157842747
outer loop
vertex -0.18024 -0.07466 0.98079
vertex -0.13795 -0.13795 0.98079
vertex 0 0 1
endloop
endfacet
facet normal -0.055498845108430284 -0.08305797840890228 0.9949981157842747
outer loop
vertex -0.13795 -0.13795 0.98079
vertex -0.07466 -0.18024 0.98079
vertex 0 0 1
endloop
endfacet
facet normal -0.01948736256361344 -0.09797484774406877 0.994998076334744
outer loop
vertex -0.07466 -0.18024 0.98079
vertex 0 -0.19509 0.98079
vertex 0 0 1
endloop
endfacet
facet normal 0.01948736256361344 -0.09797484774406877 0.994998076334744
outer loop
vertex 0 -0.19509 0.98079
vertex 0.07466 -0.18024 0.98079
vertex 0 0 1
endloop
endfacet
facet normal 0.0554988451084303 -0.08305797840890229 0.9949981157842746
outer loop
vertex 0.07466 -0.18024 0.98079
vertex 0.13795 -0.13795 0.98079
vertex 0 0 1
endloop
endfacet
facet normal 0.08305797840890307 -0.05549884510842913 0.9949981157842747
outer loop
vertex 0.13795 -0.13795 0.98079
vertex 0.18024 -0.07466 0.98079
vertex 0 0 1
endloop
endfacet
facet normal 0.2898261456995694 -0.05764858739657538 0.9553415335052231
outer loop
vertex 0.35355 -0.14645 0.92388
vertex 0.38268 0 0.92388
vertex 0.19509 0 0.98079
endloop
endfacet
facet normal 0.2898273692697539 -0.05764715287511181 0.9553412488674228
outer loop
vertex 0.35355 -0.14645 0.92388
vertex 0.19509 0 0.98079
vertex 0.18024 -0.07466 0.98079
endloop
endfacet
facet normal -0.057648708626965785 0.2898267551808901 0.9553413412885258
outer loop
vertex 0 0.38268 0.92388
vertex -0.14645 0.35355 0.92388
vertex -0.07466 0.18024 0.98079
endloop
endfacet
facet normal -0.057646915080930256 0.28982617373349306 0.9553416259122468
outer loop
vertex 0 0.38268 0.92388
vertex -0.07466 0.18024 0.98079
vertex 0 0.19509 0.98079
endloop
endfacet
facet normal -0.16416371062790938 0.24570132217546573 0.9553434651443973
outer loop
vertex -0.14645 0.35355 0.92388
vertex -0.2706 0.2706 0.92388
vertex -0.13795 0.13795 0.98079
endloop
endfacet
facet normal -0.16417552904272856 0.24570038385231346 0.9553416755477414
outer loop
vertex -0.14645 0.35355 0.92388
vertex -0.13795 0.13795 0.98079
vertex -0.07466 0.18024 0.98079
endloop
endfacet
facet normal -0.24570457101120982 0.16416588131598756 0.9553422565740209
outer loop
vertex -0.2706 0.2706 0.92388
vertex -0.35355 0.14645 0.92388
vertex -0.18024 0.07466 0.98079
endloop
endfacet
facet normal -0.2456940112170994 0.16417127088594038 0.9553440462303342
outer loop
vertex -0.2706 0.2706 0.92388
vertex -0.18024 0.07466 0.98079
vertex -0.13795 0.13795 0.98079
endloop
endfacet
facet normal -0.2898261456995694 0.05764858739657538 0.9553415335052231
outer loop
vertex -0.35355 0.14645 0.92388
vertex -0.38268 0 0.92388
vertex -0.19509 0 0.98079
endloop
endfacet
facet normal -0.2898273692697539 0.05764715287511181 0.9553412488674228
outer loop
vertex -0.35355 0.14645 0.92388
vertex -0.19509 0 0.98079
vertex -0.18024 0.07466 0.98079
endloop
endfacet
facet normal -0.28982675518089074 -0.057648708626967186 0.9553413412885254
outer loop
vertex -0.38268 0 0.92388
vertex -0.35355 -0.14645 0.92388
vertex -0.18024 -0.07466 0.98079
endloop
endfacet
facet normal -0.2898261737334926 -0.05764691508093193 0.9553416259122467
outer loop
vertex -0.38268 0 0.92388
vertex -0.18024 -0.07466 0.98079
vertex -0.19509 0 0.98079
endloop
endfacet
facet normal -0.24570132217546567 -0.1641637106279088 0.9553434651443972
outer loop
vertex -0.35355 -0.14645 0.92388
vertex -0.2706 -0.2706 0.92388
vertex -0.13795 -0.13795 0.98079
endloop
endfacet
facet normal -0.24570038385231363 -0.1641755290427293 0.9553416755477411
outer loop
vertex -0.35355 -0.14645 0.92388
vertex -0.13795 -0.13795 0.98079
vertex -0.18024 -0.07466 0.98079
endloop
endfacet
facet normal -0.16416588131598625 -0.24570457101121 0.9553422565740212
outer loop
vertex -0.2706 -0.2706 0.92388
vertex -0.14645 -0.35355 0.92388
vertex -0.07466 -0.18024 0.98079
endloop
endfacet
facet normal -0.16417127088594155 -0.24569401121710008 0.955344046230334
outer loop
vertex -0.2706 -0.2706 0.92388
vertex -0.07466 -0.18024 0.98079
vertex -0.13795 -0.13795 0.98079
endloop
endfacet
facet normal -0.05764858739657599 -0.2898261456995696 0.955341533505223
outer loop
vertex -0.14645 -0.35355 0.92388
vertex 0 -0.38268 0.92388
vertex 0 -0.19509 0.98079
endloop
endfacet
facet normal -0.057647152875109964 -0.2898273692697527 0.9553412488674233
outer loop
vertex -0.14645 -0.35355 0.92388
vertex 0 -0.19509 0.98079
vertex -0.07466 -0.18024 0.98079
endloop
endfacet
facet normal 0.057648708626965785 -0.2898267551808901 0.9553413412885258
outer loop
vertex 0 -0.38268 0.92388
vertex 0.14645 -0.35355 0.92388
vertex 0.07466 -0.18024 0.98079
endloop
endfacet
facet normal 0.057646915080930256 -0.28982617373349306 0.9553416259122468
outer loop
vertex 0 -0.38268 0.92388
vertex 0.07466 -0.18024 0.98079
vertex 0 -0.19509 0.98079
endloop
endfacet
facet normal 0.16416371062790938 -0.24570132217546573 0.9553434651443973
outer loop
vertex 0.14645 -0.35355 0.92388
vertex 0.2706 -0.2706 0.92388
vertex 0.13795 -0.13795 0.98079
endloop
endfacet
facet normal 0.16417552904272856 -0.24570038385231346 0.9553416755477414
outer loop
vertex 0.14645 -0.35355 0.92388
vertex 0.13795 -0.13795 0.98079
vertex 0.07466 -0.18024 0.98079
endloop
endfacet
facet normal 0.24570457101120982 -0.16416588131598756 0.9553422565740209
outer loop
vertex 0.2706 -0.2706 0.92388
vertex 0.35355 -0.14645 0.92388
vertex 0.18024 -0.07466 0.98079
endloop
endfacet
facet normal 0.2456940112170994 -0.16417127088594038 0.9553440462303342
outer loop
vertex 0.2706 -0.2706 0.92388
vertex 0.18024 -0.07466 0.98079
vertex 0.13795 -0.13795 0.98079
endloop
endfacet
facet normal 0.46933168880552006 -0.09335420309291884 0.8780733219087371
outer loop
vertex 0.51328 -0.21261 0.83147
vertex 0.55557 0 0.83147
vertex 0.38268 0 0.92388
endloop
endfacet
facet normal 0.4693323048312265 -0.09335370460726254 0.8780730456390905
outer loop
vertex 0.51328 -0.21261 0.83147
vertex 0.38268 0 0.92388
vertex 0.35355 -0.14645 0.92388
endloop
endfacet
facet normal -0.09335428376800133 0.46933209439381884 0.8780730965438327
outer loop
vertex 0 0.55557 0.83147
vertex -0.21261 0.51328 0.83147
vertex -0.14645 0.35355 0.92388
endloop
endfacet
facet normal -0.0933535874872644 0.4693317160147582 0.8780733728145389
outer loop
vertex 0 0.55557 0.83147
vertex -0.14645 0.35355 0.92388
vertex 0 0.38268 0.92388
endloop
endfacet
facet normal -0.2658543916081206 0.39788753253713877 0.878070016521566
outer loop
vertex -0.21261 0.51328 0.83147
vertex -0.39285 0.39285 0.83147
vertex -0.2706 0.2706 0.92388
endloop
endfacet
facet normal -0.2658452765189045 0.39788657118531656 0.8780732118809794
outer loop
vertex -0.21261 0.51328 0.83147
vertex -0.2706 0.2706 0.92388
vertex -0.14645 0.35355 0.92388
endloop
endfacet
facet normal -0.39788355569025907 0.26585173441954046 0.8780726230884314
outer loop
vertex -0.39285 0.39285 0.83147
vertex -0.51328 0.21261 0.83147
vertex -0.35355 0.14645 0.92388
endloop
endfacet
facet normal -0.3978923448541309 0.26584913415747163 0.8780694276503447
outer loop
vertex -0.39285 0.39285 0.83147
vertex -0.35355 0.14645 0.92388
vertex -0.2706 0.2706 0.92388
endloop
endfacet
facet normal -0.46933168880552006 0.09335420309291884 0.8780733219087371
outer loop
vertex -0.51328 0.21261 0.83147
vertex -0.55557 0 0.83147
vertex -0.38268 0 0.92388
endloop
endfacet
facet normal -0.4693323048312265 0.09335370460726254 0.8780730456390905
outer loop
vertex -0.51328 0.21261 0.83147
vertex -0.38268 0 0.92388
vertex -0.35355 0.14645 0.92388
endloop
endfacet
facet normal -0.46933209439381895 -0.09335428376800031 0.8780730965438327
outer loop
vertex -0.55557 0 0.83147
vertex -0.51328 -0.21261 0.83147
vertex -0.35355 -0.14645 0.92388
endloop
endfacet
facet normal -0.46933171601475787 -0.09335358748726486 0.8780733728145389
outer loop
vertex -0.55557 0 0.83147
vertex -0.35355 -0.14645 0.92388
vertex -0.38268 0 0.92388
endloop
endfacet
facet normal -0.39788753253713877 -0.26585439160812024 0.8780700165215664
outer loop
vertex -0.51328 -0.21261 0.83147
vertex -0.39285 -0.39285 0.83147
vertex -0.2706 -0.2706 0.92388
endloop
endfacet
facet normal -0.39788657118531673 -0.26584527651890477 0.8780732118809792
outer loop
vertex -0.51328 -0.21261 0.83147
vertex -0.2706 -0.2706 0.92388
vertex -0.35355 -0.14645 0.92388
endloop
endfacet
facet normal -0.2658307985124263 -0.39774532879833896 0.8781415831068171
outer loop
vertex -0.23248 -0.5 0.83147
vertex -0.21261 -0.51328 0.83147
vertex -0.20711 -0.5 0.83915
endloop
endfacet
facet normal -0.265809254323115 -0.39791681010786994 0.8780704143460063
outer loop
vertex -0.23248 -0.5 0.83147
vertex -0.20711 -0.5 0.83915
vertex -0.14645 -0.35355 0.92388
endloop
endfacet
facet normal -0.2658492879792458 -0.39789257507683085 0.8780692767542071
outer loop
vertex -0.23248 -0.5 0.83147
vertex -0.14645 -0.35355 0.92388
vertex -0.2706 -0.2706 0.92388
endloop
endfacet
facet normal -0.2658488985440505 -0.3978925605180538 0.8780694012589791
outer loop
vertex -0.23248 -0.5 0.83147
vertex -0.2706 -0.2706 0.92388
vertex -0.39285 -0.39285 0.83147
endloop
endfacet
facet normal -0.09335857020765832 -0.46930372181859237 0.8780878054363351
outer loop
vertex 0 -0.55557 0.83147
vertex 0 -0.5 0.86117
vertex -0.20711 -0.5 0.83915
endloop
endfacet
facet normal -0.09332678106682794 -0.4691938264984282 0.8781499103863003
outer loop
vertex 0 -0.55557 0.83147
vertex -0.20711 -0.5 0.83915
vertex -0.21261 -0.51328 0.83147
endloop
endfacet
facet normal -0.09335618130609064 -0.46934475634318784 0.8780661268407398
outer loop
vertex 0 -0.5 0.86117
vertex 0 -0.38268 0.92388
vertex -0.14645 -0.35355 0.92388
endloop
endfacet
facet normal -0.09335626091853962 -0.4693448181782226 0.8780660853241975
outer loop
vertex 0 -0.5 0.86117
vertex -0.14645 -0.35355 0.92388
vertex -0.20711 -0.5 0.83915
endloop
endfacet
facet normal 0.09336553515514182 -0.46917974489817665 0.8781533145313953
outer loop
vertex 0.21261 -0.51328 0.83147
vertex 0.20711 -0.5 0.83915
vertex 0 -0.5 0.86117
endloop
endfacet
facet normal 0.09334872674748775 -0.46930415686411797 0.8780886194255578
outer loop
vertex 0.21261 -0.51328 0.83147
vertex 0 -0.5 0.86117
vertex 0 -0.55557 0.83147
endloop
endfacet
facet normal 0.09335619814253959 -0.4693448409878158 0.8780660798063507
outer loop
vertex 0.20711 -0.5 0.83915
vertex 0.14645 -0.35355 0.92388
vertex 0 -0.38268 0.92388
endloop
endfacet
facet normal 0.09335626460026822 -0.4693447526614618 0.8780661199528405
outer loop
vertex 0.20711 -0.5 0.83915
vertex 0 -0.38268 0.92388
vertex 0 -0.5 0.86117
endloop
endfacet
facet normal 0.2658307985124263 -0.39774532879833896 0.8781415831068171
outer loop
vertex 0.23248 -0.5 0.83147
vertex 0.20711 -0.5 0.83915
vertex 0.21261 -0.51328 0.83147
endloop
endfacet
facet normal 0.2658488985440505 -0.3978925605180538 0.8780694012589791
outer loop
vertex 0.23248 -0.5 0.83147
vertex 0.39285 -0.39285 0.83147
vertex 0.2706 -0.2706 0.92388
endloop
endfacet
facet normal 0.2658492879792458 -0.39789257507683085 0.8780692767542071
outer loop
vertex 0.23248 -0.5 0.83147
vertex 0.2706 -0.2706 0.92388
vertex 0.14645 -0.35355 0.92388
endloop
endfacet
facet normal 0.265809254323115 -0.39791681010786994 0.8780704143460063
outer loop
vertex 0.23248 -0.5 0.83147
vertex 0.14645 -0.35355 0.92388
vertex 0.20711 -0.5 0.83915
endloop
endfacet
facet normal 0.39788355569025907 -0.26585173441954046 0.8780726230884314
outer loop
vertex 0.39285 -0.39285 0.83147
vertex 0.51328 -0.21261 0.83147
vertex 0.35355 -0.14645 0.92388
endloop
endfacet
facet normal 0.3978923448541309 -0.26584913415747163 0.8780694276503447
outer loop
vertex 0.39285 -0.39285 0.83147
vertex 0.35355 -0.14645 0.92388
vertex 0.2706 -0.2706 0.92388
endloop
endfacet
facet normal 0.6293842588490909 -0.12520234535789612 0.7669418670472116
outer loop
vertex 0.65328 -0.2706 0.70711
vertex 0.70711 0 0.70711
vertex 0.55557 0 0.83147
endloop
endfacet
facet normal 0.6293981220315362 -0.1251928252702768 0.7669320442412231
outer loop
vertex 0.65328 -0.2706 0.70711
vertex 0.55557 0 0.83147
vertex 0.51328 -0.21261 0.83147
endloop
endfacet
facet normal -0.12520234535789576 0.6293842588490905 0.7669418670472119
outer loop
vertex 0 0.55557 0.83147
vertex 0 0.70711 0.70711
vertex -0.2706 0.65328 0.70711
endloop
endfacet
facet normal -0.1251928252702775 0.6293981220315367 0.7669320442412226
outer loop
vertex 0 0.55557 0.83147
vertex -0.2706 0.65328 0.70711
vertex -0.21261 0.51328 0.83147
endloop
endfacet
facet normal -0.3565274358086183 0.533581639969317 0.7669281719974731
outer loop
vertex -0.2706 0.65328 0.70711
vertex -0.5 0.5 0.70711
vertex -0.39285 0.39285 0.83147
endloop
endfacet
facet normal -0.35651940320902487 0.5335801480893029 0.7669329440703916
outer loop
vertex -0.2706 0.65328 0.70711
vertex -0.39285 0.39285 0.83147
vertex -0.21261 0.51328 0.83147
endloop
endfacet
facet normal -0.5335774670887103 0.3565246475822036 0.7669323713871921
outer loop
vertex -0.5 0.5 0.70711
vertex -0.65328 0.2706 0.70711
vertex -0.51328 0.21261 0.83147
endloop
endfacet
facet normal -0.5335854591771456 0.356522951890279 0.7669275992752878
outer loop
vertex -0.5 0.5 0.70711
vertex -0.51328 0.21261 0.83147
vertex -0.39285 0.39285 0.83147
endloop
endfacet
facet normal -0.6293842588490909 0.12520234535789612 0.7669418670472116
outer loop
vertex -0.65328 0.2706 0.70711
vertex -0.70711 0 0.70711
vertex -0.55557 0 0.83147
endloop
endfacet
facet normal -0.6293981220315362 0.1251928252702768 0.7669320442412231
outer loop
vertex -0.65328 0.2706 0.70711
vertex -0.55557 0 0.83147
vertex -0.51328 0.21261 0.83147
endloop
endfacet
facet normal -0.6293943909428824 -0.1252043609181646 0.766933223075329
outer loop
vertex -0.70711 0 0.70711
vertex -0.65328 -0.2706 0.70711
vertex -0.51328 -0.21261 0.83147
endloop
endfacet
facet normal -0.6293852262832286 -0.12519026019245455 0.7669430459228083
outer loop
vertex -0.70711 0 0.70711
vertex -0.51328 -0.21261 0.83147
vertex -0.55557 0 0.83147
endloop
endfacet
facet normal -0.5335816399693172 -0.35652743580861834 0.7669281719974731
outer loop
vertex -0.65328 -0.2706 0.70711
vertex -0.5 -0.5 0.70711
vertex -0.39285 -0.39285 0.83147
endloop
endfacet
facet normal -0.5335801480893025 -0.356519403209026 0.7669329440703914
outer loop
vertex -0.65328 -0.2706 0.70711
vertex -0.39285 -0.39285 0.83147
vertex -0.51328 -0.21261 0.83147
endloop
endfacet
facet normal -0.3565908162848391 -0.533543638522572 0.7669251433702035
outer loop
vertex -0.2706 -0.65328 0.70711
vertex -0.21261 -0.51328 0.83147
vertex -0.23248 -0.5 0.83147
endloop
endfacet
facet normal -0.35652076906933755 -0.5335716624772054 0.7669382127808727
outer loop
vertex -0.2706 -0.65328 0.70711
vertex -0.23248 -0.5 0.83147
vertex -0.5 -0.5 0.70711
endloop
endfacet
facet normal -0.35651538598987764 -0.533591903417607 0.7669266328402371
outer loop
vertex -0.23248 -0.5 0.83147
vertex -0.39285 -0.39285 0.83147
vertex -0.5 -0.5 0.70711
endloop
endfacet
facet normal -0.1252023453578955 -0.6293842588490905 0.7669418670472119
outer loop
vertex -0.2706 -0.65328 0.70711
vertex 0 -0.70711 0.70711
vertex 0 -0.55557 0.83147
endloop
endfacet
facet normal -0.12519282527027786 -0.6293981220315367 0.7669320442412224
outer loop
vertex -0.2706 -0.65328 0.70711
vertex 0 -0.55557 0.83147
vertex -0.21261 -0.51328 0.83147
endloop
endfacet
facet normal 0.1252043609181646 -0.6293943909428824 0.766933223075329
outer loop
vertex 0 -0.70711 0.70711
vertex 0.2706 -0.65328 0.70711
vertex 0.21261 -0.51328 0.83147
endloop
endfacet
facet normal 0.12519026019245483 -0.6293852262832283 0.7669430459228084
outer loop
vertex 0 -0.70711 0.70711
vertex 0.21261 -0.51328 0.83147
vertex 0 -0.55557 0.83147
endloop
endfacet
facet normal 0.3565460369775154 -0.533476638158378 0.7669925684482629
outer loop
vertex 0.5 -0.5 0.70711
vertex 0.23248 -0.5 0.83147
vertex 0.21261 -0.51328 0.83147
endloop
endfacet
facet normal 0.35652464758220304 -0.5335774670887093 0.7669323713871931
outer loop
vertex 0.5 -0.5 0.70711
vertex 0.21261 -0.51328 0.83147
vertex 0.2706 -0.65328 0.70711
endloop
endfacet
facet normal 0.35651538598987775 -0.5335919034176071 0.7669266328402369
outer loop
vertex 0.5 -0.5 0.70711
vertex 0.39285 -0.39285 0.83147
vertex 0.23248 -0.5 0.83147
endloop
endfacet
facet normal 0.5335774670887103 -0.3565246475822036 0.7669323713871921
outer loop
vertex 0.5 -0.5 0.70711
vertex 0.65328 -0.2706 0.70711
vertex 0.51328 -0.21261 0.83147
endloop
endfacet
facet normal 0.5335854591771456 -0.356522951890279 0.7669275992752878
outer loop
vertex 0.5 -0.5 0.70711
vertex 0.51328 -0.21261 0.83147
vertex 0.39285 -0.39285 0.83147
endloop
endfacet
facet normal 0.7640456078948519 -0.15197349547020708 0.6270074686406482
outer loop
vertex 0.76818 -0.31819 0.55557
vertex 0.83147 0 0.55557
vertex 0.70711 0 0.70711
endloop
endfacet
facet normal 0.7640267536627249 -0.151986548964023 0.6270272790091389
outer loop
vertex 0.76818 -0.31819 0.55557
vertex 0.70711 0 0.70711
vertex 0.65328 -0.2706 0.70711
endloop
endfacet
facet normal -0.15197063619897322 0.7640312329301807 0.627025677975366
outer loop
vertex 0 0.83147 0.55557
vertex -0.31819 0.76818 0.55557
vertex -0.2706 0.65328 0.70711
endloop
endfacet
facet normal -0.15198991143428833 0.7640436565877459 0.6270058673172236
outer loop
vertex 0 0.83147 0.55557
vertex -0.2706 0.65328 0.70711
vertex 0 0.70711 0.70711
endloop
endfacet
facet normal -0.4327867701837403 0.6477154419499779 0.6270249738355491
outer loop
vertex -0.31819 0.76818 0.55557
vertex -0.58794 0.58794 0.55557
vertex -0.5 0.5 0.70711
endloop
endfacet
facet normal -0.43278943902226336 0.6477159271379659 0.627022630534656
outer loop
vertex -0.31819 0.76818 0.55557
vertex -0.5 0.5 0.70711
vertex -0.2706 0.65328 0.70711
endloop
endfacet
facet normal -0.6477168834439924 0.43278773335290116 0.6270228199681888
outer loop
vertex -0.58794 0.58794 0.55557
vertex -0.76818 0.31819 0.55557
vertex -0.65328 0.2706 0.70711
endloop
endfacet
facet normal -0.6477142320999966 0.43278830643542887 0.6270251632493427
outer loop
vertex -0.58794 0.58794 0.55557
vertex -0.65328 0.2706 0.70711
vertex -0.5 0.5 0.70711
endloop
endfacet
facet normal -0.7640456078948519 0.15197349547020708 0.6270074686406482
outer loop
vertex -0.76818 0.31819 0.55557
vertex -0.83147 0 0.55557
vertex -0.70711 0 0.70711
endloop
endfacet
facet normal -0.7640267536627249 0.151986548964023 0.6270272790091389
outer loop
vertex -0.76818 0.31819 0.55557
vertex -0.70711 0 0.70711
vertex -0.65328 0.2706 0.70711
endloop
endfacet
facet normal -0.7640312329301809 -0.1519706361989733 0.6270256779753658
outer loop
vertex -0.83147 0 0.55557
vertex -0.76818 -0.31819 0.55557
vertex -0.65328 -0.2706 0.70711
endloop
endfacet
facet normal -0.7640436565877458 -0.15198991143428806 0.6270058673172239
outer loop
vertex -0.83147 0 0.55557
vertex -0.65328 -0.2706 0.70711
vertex -0.70711 0 0.70711
endloop
endfacet
facet normal -0.6477125620934835 -0.4327904269799071 0.6270254247005022
outer loop
vertex -0.6467 -0.5 0.55557
vertex -0.58794 -0.58794 0.55557
vertex -0.5 -0.5 0.70711
endloop
endfacet
facet normal -0.6477134693335712 -0.43278779677179524 0.6270263029644642
outer loop
vertex -0.6467 -0.5 0.55557
vertex -0.5 -0.5 0.70711
vertex -0.65328 -0.2706 0.70711
endloop
endfacet
facet normal -0.6477179844902649 -0.4327857695169527 0.627023038070762
outer loop
vertex -0.6467 -0.5 0.55557
vertex -0.65328 -0.2706 0.70711
vertex -0.76818 -0.31819 0.55557
endloop
endfacet
facet normal -0.43278773335290116 -0.6477168834439926 0.6270228199681886
outer loop
vertex -0.58794 -0.58794 0.55557
vertex -0.31819 -0.76818 0.55557
vertex -0.2706 -0.65328 0.70711
endloop
endfacet
facet normal -0.4327883064354292 -0.647714232099997 0.6270251632493424
outer loop
vertex -0.58794 -0.58794 0.55557
vertex -0.2706 -0.65328 0.70711
vertex -0.5 -0.5 0.70711
endloop
endfacet
facet normal -0.15197349547020736 -0.7640456078948512 0.6270074686406486
outer loop
vertex -0.31819 -0.76818 0.55557
vertex 0 -0.83147 0.55557
vertex 0 -0.70711 0.70711
endloop
endfacet
facet normal -0.15198654896402314 -0.7640267536627257 0.6270272790091382
outer loop
vertex -0.31819 -0.76818 0.55557
vertex 0 -0.70711 0.70711
vertex -0.2706 -0.65328 0.70711
endloop
endfacet
facet normal 0.15197063619897322 -0.7640312329301807 0.627025677975366
outer loop
vertex 0 -0.83147 0.55557
vertex 0.31819 -0.76818 0.55557
vertex 0.2706 -0.65328 0.70711
endloop
endfacet
facet normal 0.15198991143428833 -0.7640436565877459 0.6270058673172236
outer loop
vertex 0 -0.83147 0.55557
vertex 0.2706 -0.65328 0.70711
vertex 0 -0.70711 0.70711
endloop
endfacet
facet normal 0.4327867701837403 -0.6477154419499779 0.6270249738355491
outer loop
vertex 0.31819 -0.76818 0.55557
vertex 0.58794 -0.58794 0.55557
vertex 0.5 -0.5 0.70711
endloop
endfacet
facet normal 0.43278943902226336 -0.6477159271379659 0.627022630534656
outer loop
vertex 0.31819 -0.76818 0.55557
vertex 0.5 -0.5 0.70711
vertex 0.2706 -0.65328 0.70711
endloop
endfacet
facet normal 0.6477125620934835 -0.4327904269799071 0.6270254247005022
outer loop
vertex 0.6467 -0.5 0.55557
vertex 0.5 -0.5 0.70711
vertex 0.58794 -0.58794 0.55557
endloop
endfacet
facet normal 0.6477179844902649 -0.4327857695169527 0.627023038070762
outer loop
vertex 0.6467 -0.5 0.55557
vertex 0.76818 -0.31819 0.55557
vertex 0.65328 -0.2706 0.70711
endloop
endfacet
facet normal 0.6477134693335712 -0.43278779677179524 0.6270263029644642
outer loop
vertex 0.6467 -0.5 0.55557
vertex 0.65328 -0.2706 0.70711
vertex 0.5 -0.5 0.70711
endloop
endfacet
facet normal 0.8686748877545268 -0.17278491984658137 0.4642728840437168
outer loop
vertex 0.86117 0 0.5
vertex 0.83147 0 0.55557
vertex 0.76818 -0.31819 0.55557
endloop
endfacet
facet normal 0.8686659819313238 -0.17277902389731267 0.4642917409736911
outer loop
vertex 0.86117 0 0.5
vertex 0.76818 -0.31819 0.55557
vertex 0.79562 -0.32956 0.5
endloop
endfacet
facet normal -0.172800411959362 0.8686703490435446 0.46427561029978875
outer loop
vertex 0 0.92388 0.38268
vertex -0.35355 0.85355 0.38268
vertex -0.31819 0.76818 0.55557
endloop
endfacet
facet normal -0.17278208600610165 0.8686606406427776 0.46430059460812634
outer loop
vertex 0 0.92388 0.38268
vertex -0.31819 0.76818 0.55557
vertex 0 0.83147 0.55557
endloop
endfacet
facet normal -0.49205709487999905 0.7364271885373852 0.46427880778814173
outer loop
vertex -0.35355 0.85355 0.38268
vertex -0.65328 0.65328 0.38268
vertex -0.58794 0.58794 0.55557
endloop
endfacet
facet normal -0.4920619831237491 0.7364276517289802 0.4642728923093219
outer loop
vertex -0.35355 0.85355 0.38268
vertex -0.58794 0.58794 0.55557
vertex -0.31819 0.76818 0.55557
endloop
endfacet
facet normal -0.7364296311022477 0.4920587269237217 0.4642732037204103
outer loop
vertex -0.65328 0.65328 0.38268
vertex -0.85355 0.35355 0.38268
vertex -0.76818 0.31819 0.55557
endloop
endfacet
facet normal -0.7364249377131843 0.49206016968831967 0.46427911919494574
outer loop
vertex -0.65328 0.65328 0.38268
vertex -0.76818 0.31819 0.55557
vertex -0.58794 0.58794 0.55557
endloop
endfacet
facet normal -0.8686581798712305 0.17279799120447836 0.46429927932153636
outer loop
vertex -0.85355 0.35355 0.38268
vertex -0.92388 0 0.38268
vertex -0.83147 0 0.55557
endloop
endfacet
facet normal -0.8686741622554836 0.172784775540243 0.4642742951868451
outer loop
vertex -0.85355 0.35355 0.38268
vertex -0.83147 0 0.55557
vertex -0.76818 0.31819 0.55557
endloop
endfacet
facet normal -0.8686703490435442 -0.17280041195936272 0.46427561029978875
outer loop
vertex -0.92388 0 0.38268
vertex -0.85355 -0.35355 0.38268
vertex -0.76818 -0.31819 0.55557
endloop
endfacet
facet normal -0.8686606406427773 -0.1727820860061007 0.4643005946081268
outer loop
vertex -0.92388 0 0.38268
vertex -0.76818 -0.31819 0.55557
vertex -0.83147 0 0.55557
endloop
endfacet
facet normal -0.7364196161755636 -0.49206743925300983 0.4642798554092357
outer loop
vertex -0.7557 -0.5 0.38268
vertex -0.65328 -0.65328 0.38268
vertex -0.58794 -0.58794 0.55557
endloop
endfacet
facet normal -0.7364204604441238 -0.49206352348984056 0.4642826663682673
outer loop
vertex -0.7557 -0.5 0.38268
vertex -0.58794 -0.58794 0.55557
vertex -0.6467 -0.5 0.55557
endloop
endfacet
facet normal -0.7364238719678119 -0.4920563883540502 0.46428481719296383
outer loop
vertex -0.7557 -0.5 0.38268
vertex -0.6467 -0.5 0.55557
vertex -0.76818 -0.31819 0.55557
endloop
endfacet
facet normal -0.7364366008043923 -0.49204726110419644 0.4642743002100495
outer loop
vertex -0.7557 -0.5 0.38268
vertex -0.76818 -0.31819 0.55557
vertex -0.85355 -0.35355 0.38268
endloop
endfacet
facet normal -0.492058726923722 -0.7364296311022478 0.4642732037204098
outer loop
vertex -0.65328 -0.65328 0.38268
vertex -0.35355 -0.85355 0.38268
vertex -0.31819 -0.76818 0.55557
endloop
endfacet
facet normal -0.49206016968831967 -0.7364249377131843 0.46427911919494574
outer loop
vertex -0.65328 -0.65328 0.38268
vertex -0.31819 -0.76818 0.55557
vertex -0.58794 -0.58794 0.55557
endloop
endfacet
facet normal -0.17279799120447906 -0.8686581798712304 0.46429927932153636
outer loop
vertex -0.35355 -0.85355 0.38268
vertex 0 -0.92388 0.38268
vertex 0 -0.83147 0.55557
endloop
endfacet
facet normal -0.17278477554024227 -0.8686741622554841 0.4642742951868438
outer loop
vertex -0.35355 -0.85355 0.38268
vertex 0 -0.83147 0.55557
vertex -0.31819 -0.76818 0.55557
endloop
endfacet
facet normal 0.172800411959362 -0.8686703490435446 0.46427561029978875
outer loop
vertex 0 -0.92388 0.38268
vertex 0.35355 -0.85355 0.38268
vertex 0.31819 -0.76818 0.55557
endloop
endfacet
facet normal 0.17278208600610165 -0.8686606406427776 0.46430059460812634
outer loop
vertex 0 -0.92388 0.38268
vertex 0.31819 -0.76818 0.55557
vertex 0 -0.83147 0.55557
endloop
endfacet
facet normal 0.49205709487999905 -0.7364271885373852 0.46427880778814173
outer loop
vertex 0.35355 -0.85355 0.38268
vertex 0.65328 -0.65328 0.38268
vertex 0.58794 -0.58794 0.55557
endloop
endfacet
facet normal 0.4920619831237491 -0.7364276517289802 0.4642728923093219
outer loop
vertex 0.35355 -0.85355 0.38268
vertex 0.58794 -0.58794 0.55557
vertex 0.31819 -0.76818 0.55557
endloop
endfacet
facet normal 0 1 0
outer loop
vertex 0.7557 -0.5 0.38268
vertex 0.68173 -0.5 0.5
vertex 0.6467 -0.5 0.55557
endloop
endfacet
facet normal 0.7364204604441238 -0.49206352348984056 0.4642826663682673
outer loop
vertex 0.7557 -0.5 0.38268
vertex 0.6467 -0.5 0.55557
vertex 0.58794 -0.58794 0.55557
endloop
endfacet
facet normal 0.7364196161755636 -0.49206743925300983 0.4642798554092357
outer loop
vertex 0.7557 -0.5 0.38268
vertex 0.58794 -0.58794 0.55557
vertex 0.65328 -0.65328 0.38268
endloop
endfacet
facet normal 0.736412520601628 -0.49204880371093707 0.46431085951956
outer loop
vertex 0.79562 -0.32956 0.5
vertex 0.76818 -0.31819 0.55557
vertex 0.6467 -0.5 0.55557
endloop
endfacet
facet normal 0.7364335547532714 -0.4920935082776949 0.46423011378454404
outer loop
vertex 0.79562 -0.32956 0.5
vertex 0.6467 -0.5 0.55557
vertex 0.68173 -0.5 0.5
endloop
endfacet
facet normal -0.1869932197009073 0.9400504306233786 0.2851994454249314
outer loop
vertex 0 0.98079 0.19509
vertex -0.37533 0.90613 0.19509
vertex -0.35355 0.85355 0.38268
endloop
endfacet
facet normal -0.1870001333413315 0.9400525685031671 0.2851878654166807
outer loop
vertex 0 0.98079 0.19509
vertex -0.35355 0.85355 0.38268
vertex 0 0.92388 0.38268
endloop
endfacet
facet normal -0.5325035977390119 0.796939559590688 0.2851793413878519
outer loop
vertex -0.37533 0.90613 0.19509
vertex -0.69352 0.69352 0.19509
vertex -0.65328 0.65328 0.38268
endloop
endfacet
facet normal -0.532490349653571 0.7969407924385318 0.28520063266630863
outer loop
vertex -0.37533 0.90613 0.19509
vertex -0.65328 0.65328 0.38268
vertex -0.35355 0.85355 0.38268
endloop
endfacet
facet normal -0.7969344495112384 0.5325001832571243 0.28519999651709077
outer loop
vertex -0.69352 0.69352 0.19509
vertex -0.90613 0.37533 0.19509
vertex -0.85355 0.35355 0.38268
endloop
endfacet
facet normal -0.7969462173299515 0.5324939743925183 0.28517870523435274
outer loop
vertex -0.69352 0.69352 0.19509
vertex -0.85355 0.35355 0.38268
vertex -0.65328 0.65328 0.38268
endloop
endfacet
facet normal -0.9400537090769677 0.18699387184527286 0.2851882114375513
outer loop
vertex -0.90613 0.37533 0.19509
vertex -0.98079 0 0.19509
vertex -0.92388 0 0.38268
endloop
endfacet
facet normal -0.9400490880937897 0.18699944100024407 0.28519979144387614
outer loop
vertex -0.90613 0.37533 0.19509
vertex -0.92388 0 0.38268
vertex -0.85355 0.35355 0.38268
endloop
endfacet
facet normal -0.9400504306233786 -0.1869932197009074 0.2851994454249319
outer loop
vertex -0.98079 0 0.19509
vertex -0.90613 -0.37533 0.19509
vertex -0.85355 -0.35355 0.38268
endloop
endfacet
facet normal -0.940052568503167 -0.18700013334133084 0.2851878654166812
outer loop
vertex -0.98079 0 0.19509
vertex -0.85355 -0.35355 0.38268
vertex -0.92388 0 0.38268
endloop
endfacet
facet normal -0.7969342831016235 -0.5325112244102469 0.28517984552629416
outer loop
vertex -0.82283 -0.5 0.19509
vertex -0.69352 -0.69352 0.19509
vertex -0.65328 -0.65328 0.38268
endloop
endfacet
facet normal -0.7969363247504272 -0.532504034322408 0.2851875658643648
outer loop
vertex -0.82283 -0.5 0.19509
vertex -0.65328 -0.65328 0.38268
vertex -0.7557 -0.5 0.38268
endloop
endfacet
facet normal -0.7969508030177078 -0.5324795908179083 0.2851927469832009
outer loop
vertex -0.82283 -0.5 0.19509
vertex -0.7557 -0.5 0.38268
vertex -0.85355 -0.35355 0.38268
endloop
endfacet
facet normal -0.7969422526966514 -0.5324880857434126 0.2852007791155252
outer loop
vertex -0.82283 -0.5 0.19509
vertex -0.85355 -0.35355 0.38268
vertex -0.90613 -0.37533 0.19509
endloop
endfacet
facet normal -0.5325001832571243 -0.7969344495112387 0.28519999651709
outer loop
vertex -0.69352 -0.69352 0.19509
vertex -0.37533 -0.90613 0.19509
vertex -0.35355 -0.85355 0.38268
endloop
endfacet
facet normal -0.5324939743925181 -0.7969462173299512 0.28517870523435357
outer loop
vertex -0.69352 -0.69352 0.19509
vertex -0.35355 -0.85355 0.38268
vertex -0.65328 -0.65328 0.38268
endloop
endfacet
facet normal -0.18699387184527347 -0.9400537090769681 0.2851882114375498
outer loop
vertex -0.37533 -0.90613 0.19509
vertex 0 -0.98079 0.19509
vertex 0 -0.92388 0.38268
endloop
endfacet
facet normal -0.18699944100024404 -0.9400490880937897 0.2851997914438767
outer loop
vertex -0.37533 -0.90613 0.19509
vertex 0 -0.92388 0.38268
vertex -0.35355 -0.85355 0.38268
endloop
endfacet
facet normal 0.1869932197009073 -0.9400504306233786 0.2851994454249314
outer loop
vertex 0 -0.98079 0.19509
vertex 0.37533 -0.90613 0.19509
vertex 0.35355 -0.85355 0.38268
endloop
endfacet
facet normal 0.1870001333413315 -0.9400525685031671 0.2851878654166807
outer loop
vertex 0 -0.98079 0.19509
vertex 0.35355 -0.85355 0.38268
vertex 0 -0.92388 0.38268
endloop
endfacet
facet normal 0.5325035977390119 -0.796939559590688 0.2851793413878519
outer loop
vertex 0.37533 -0.90613 0.19509
vertex 0.69352 -0.69352 0.19509
vertex 0.65328 -0.65328 0.38268
endloop
endfacet
facet normal 0.532490349653571 -0.7969407924385318 0.28520063266630863
outer loop
vertex 0.37533 -0.90613 0.19509
vertex 0.65328 -0.65328 0.38268
vertex 0.35355 -0.85355 0.38268
endloop
endfacet
facet normal 0.7969363247504272 -0.532504034322408 0.2851875658643648
outer loop
vertex 0.82283 -0.5 0.19509
vertex 0.7557 -0.5 0.38268
vertex 0.65328 -0.65328 0.38268
endloop
endfacet
facet normal 0.7969342831016235 -0.5325112244102469 0.28517984552629416
outer loop
vertex 0.82283 -0.5 0.19509
vertex 0.65328 -0.65328 0.38268
vertex 0.69352 -0.69352 0.19509
endloop
endfacet
facet normal -0.1941873813418592 0.9762431304769144 0.0961280974753265
outer loop
vertex 0 0.98079 0.19509
vertex 0 1 0
vertex -0.38268 0.92388 0
endloop
endfacet
facet normal -0.19419222089031984 0.9762411768920934 0.0961381604048325
outer loop
vertex 0 0.98079 0.19509
vertex -0.38268 0.92388 0
vertex -0.37533 0.90613 0.19509
endloop
endfacet
facet normal -0.5529822583244607 0.8276239058366228 0.0961732419444843
outer loop
vertex -0.38268 0.92388 0
vertex -0.70711 0.70711 0
vertex -0.69352 0.69352 0.19509
endloop
endfacet
facet normal -0.5530010925457745 0.8276159053531817 0.09613378620242126
outer loop
vertex -0.38268 0.92388 0
vertex -0.69352 0.69352 0.19509
vertex -0.37533 0.90613 0.19509
endloop
endfacet
facet normal -0.8276270442420626 0.552984355270327 0.09613416908367173
outer loop
vertex -0.70711 0.70711 0
vertex -0.92388 0.38268 0
vertex -0.90613 0.37533 0.19509
endloop
endfacet
facet normal -0.8276127054870838 0.5529989544410848 0.09617362478047985
outer loop
vertex -0.70711 0.70711 0
vertex -0.90613 0.37533 0.19509
vertex -0.69352 0.69352 0.19509
endloop
endfacet
facet normal -0.9762431304769144 0.1941873813418588 0.09612809747532662
outer loop
vertex -0.92388 0.38268 0
vertex -1 0 0
vertex -0.98079 0 0.19509
endloop
endfacet
facet normal -0.9762411768920937 0.19419222089031976 0.0961381604048314
outer loop
vertex -0.92388 0.38268 0
vertex -0.98079 0 0.19509
vertex -0.90613 0.37533 0.19509
endloop
endfacet
facet normal -0.9762421865096775 -0.19418719357457007 0.09613806285980783
outer loop
vertex -1 0 0
vertex -0.92388 -0.38268 0
vertex -0.90613 -0.37533 0.19509
endloop
endfacet
facet normal -0.9762421393428483 -0.1941924123393735 0.09612799988095787
outer loop
vertex -1 0 0
vertex -0.90613 -0.37533 0.19509
vertex -0.98079 0 0.19509
endloop
endfacet
facet normal -0.827627393537992 -0.5529770591366299 0.0961731227220677
outer loop
vertex -0.84549 -0.5 0
vertex -0.70711 -0.70711 0
vertex -0.69352 -0.69352 0.19509
endloop
endfacet
facet normal -0.827610997816008 -0.5530093950371434 0.09612827520893331
outer loop
vertex -0.84549 -0.5 0
vertex -0.69352 -0.69352 0.19509
vertex -0.82283 -0.5 0.19509
endloop
endfacet
facet normal -0.8276245263997966 -0.5529888750228844 0.09612984657450138
outer loop
vertex -0.84549 -0.5 0
vertex -0.82283 -0.5 0.19509
vertex -0.90613 -0.37533 0.19509
endloop
endfacet
facet normal -0.8276209210328707 -0.552993556083932 0.09613395861166858
outer loop
vertex -0.84549 -0.5 0
vertex -0.90613 -0.37533 0.19509
vertex -0.92388 -0.38268 0
endloop
endfacet
facet normal -0.5529843552703264 -0.8276270442420627 0.09613416908367324
outer loop
vertex -0.70711 -0.70711 0
vertex -0.38268 -0.92388 0
vertex -0.37533 -0.90613 0.19509
endloop
endfacet
facet normal -0.5529989544410849 -0.8276127054870835 0.0961736247804806
outer loop
vertex -0.70711 -0.70711 0
vertex -0.37533 -0.90613 0.19509
vertex -0.69352 -0.69352 0.19509
endloop
endfacet
facet normal -0.1941873813418592 -0.9762431304769144 0.0961280974753265
outer loop
vertex -0.38268 -0.92388 0
vertex 0 -1 0
vertex 0 -0.98079 0.19509
endloop
endfacet
facet normal -0.19419222089031984 -0.9762411768920934 0.09613816040483299
outer loop
vertex -0.38268 -0.92388 0
vertex 0 -0.98079 0.19509
vertex -0.37533 -0.90613 0.19509
endloop
endfacet
facet normal 0.19418719357457043 -0.9762421865096776 0.0961380628598071
outer loop
vertex 0 -1 0
vertex 0.38268 -0.92388 0
vertex 0.37533 -0.90613 0.19509
endloop
endfacet
facet normal 0.1941924123393736 -0.9762421393428482 0.09612799988095956
outer loop
vertex 0 -1 0
vertex 0.37533 -0.90613 0.19509
vertex 0 -0.98079 0.19509
endloop
endfacet
facet normal 0.5529822583244607 -0.8276239058366228 0.0961732419444843
outer loop
vertex 0.38268 -0.92388 0
vertex 0.70711 -0.70711 0
vertex 0.69352 -0.69352 0.19509
endloop
endfacet
facet normal 0.5530010925457745 -0.8276159053531817 0.09613378620242126
outer loop
vertex 0.38268 -0.92388 0
vertex 0.69352 -0.69352 0.19509
vertex 0.37533 -0.90613 0.19509
endloop
endfacet
facet normal 0.827610997816008 -0.5530093950371434 0.09612827520893331
outer loop
vertex 0.84549 -0.5 0
vertex 0.82283 -0.5 0.19509
vertex 0.69352 -0.69352 0.19509
endloop
endfacet
facet normal 0.827627393537992 -0.5529770591366299 0.0961731227220677
outer loop
vertex 0.84549 -0.5 0
vertex 0.69352 -0.69352 0.19509
vertex 0.70711 -0.70711 0
endloop
endfacet
facet normal 0.8276073407012888 0.5530069513542974 -0.0961738081348889
outer loop
vertex 0.82283 0.5 -0.19509
vertex 0.69352 0.69352 -0.19509
vertex 0.70711 0.70711 0
endloop
endfacet
facet normal 0.8276308108760208 0.5529793424220165 -0.09613057652596603
outer loop
vertex 0.82283 0.5 -0.19509
vertex 0.70711 0.70711 0
vertex 0.84549 0.5 0
endloop
endfacet
facet normal 0.5530010925457745 0.8276159053531817 -0.09613378620242174
outer loop
vertex 0.69352 0.69352 -0.19509
vertex 0.37533 0.90613 -0.19509
vertex 0.38268 0.92388 0
endloop
endfacet
facet normal 0.5529822583244607 0.8276239058366228 -0.09617324194448476
outer loop
vertex 0.69352 0.69352 -0.19509
vertex 0.38268 0.92388 0
vertex 0.70711 0.70711 0
endloop
endfacet
facet normal 0.1941924123393736 0.9762421393428482 -0.09612799988095956
outer loop
vertex 0.37533 0.90613 -0.19509
vertex 0 0.98079 -0.19509
vertex 0 1 0
endloop
endfacet
facet normal 0.19418719357457043 0.9762421865096776 -0.09613806285980757
outer loop
vertex 0.37533 0.90613 -0.19509
vertex 0 1 0
vertex 0.38268 0.92388 0
endloop
endfacet
facet normal -0.1941924123393736 0.9762421393428482 -0.09612799988095956
outer loop
vertex 0 1 0
vertex 0 0.98079 -0.19509
vertex -0.37533 0.90613 -0.19509
endloop
endfacet
facet normal -0.19418719357457043 0.9762421865096776 -0.0961380628598071
outer loop
vertex 0 1 0
vertex -0.37533 0.90613 -0.19509
vertex -0.38268 0.92388 0
endloop
endfacet
facet normal -0.5529989544410849 0.8276127054870835 -0.09617362478048012
outer loop
vertex -0.37533 0.90613 -0.19509
vertex -0.69352 0.69352 -0.19509
vertex -0.70711 0.70711 0
endloop
endfacet
facet normal -0.5529843552703264 0.8276270442420628 -0.09613416908367278
outer loop
vertex -0.37533 0.90613 -0.19509
vertex -0.70711 0.70711 0
vertex -0.38268 0.92388 0
endloop
endfacet
facet normal -0.8276159053531816 0.5530010925457748 -0.09613378620242165
outer loop
vertex -0.69352 0.69352 -0.19509
vertex -0.90613 0.37533 -0.19509
vertex -0.92388 0.38268 0
endloop
endfacet
facet normal -0.8276239058366229 0.5529822583244606 -0.09617324194448258
outer loop
vertex -0.69352 0.69352 -0.19509
vertex -0.92388 0.38268 0
vertex -0.70711 0.70711 0
endloop
endfacet
facet normal -0.9762421393428483 0.1941924123393735 -0.09612799988095787
outer loop
vertex -0.90613 0.37533 -0.19509
vertex -0.98079 0 -0.19509
vertex -1 0 0
endloop
endfacet
facet normal -0.9762421865096775 0.19418719357457007 -0.09613806285980782
outer loop
vertex -0.90613 0.37533 -0.19509
vertex -1 0 0
vertex -0.92388 0.38268 0
endloop
endfacet
facet normal -0.9762411768920937 -0.19419222089031976 -0.09613816040483143
outer loop
vertex -0.98079 0 -0.19509
vertex -0.90613 -0.37533 -0.19509
vertex -0.92388 -0.38268 0
endloop
endfacet
facet normal -0.9762431304769144 -0.1941873813418588 -0.09612809747532662
outer loop
vertex -0.98079 0 -0.19509
vertex -0.92388 -0.38268 0
vertex -1 0 0
endloop
endfacet
facet normal -0.8276073407012888 -0.5530069513542974 -0.0961738081348889
outer loop
vertex -0.82283 -0.5 -0.19509
vertex -0.69352 -0.69352 -0.19509
vertex -0.70711 -0.70711 0
endloop
endfacet
facet normal -0.8276308108760208 -0.5529793424220165 -0.09613057652596603
outer loop
vertex -0.82283 -0.5 -0.19509
vertex -0.70711 -0.70711 0
vertex -0.84549 -0.5 0
endloop
endfacet
facet normal -0.8276212815067544 -0.5529937969426731 -0.09612946967524243
outer loop
vertex -0.82283 -0.5 -0.19509
vertex -0.84549 -0.5 0
vertex -0.92388 -0.38268 0
endloop
endfacet
facet normal -0.8276241871743507 -0.5529886483646715 -0.09613407087921048
outer loop
vertex -0.82283 -0.5 -0.19509
vertex -0.92388 -0.38268 0
vertex -0.90613 -0.37533 -0.19509
endloop
endfacet
facet normal -0.5530010925457745 -0.8276159053531817 -0.09613378620242174
outer loop
vertex -0.69352 -0.69352 -0.19509
vertex -0.37533 -0.90613 -0.19509
vertex -0.38268 -0.92388 0
endloop
endfacet
facet normal -0.5529822583244607 -0.8276239058366228 -0.09617324194448476
outer loop
vertex -0.69352 -0.69352 -0.19509
vertex -0.38268 -0.92388 0
vertex -0.70711 -0.70711 0
endloop
endfacet
facet normal -0.1941924123393736 -0.9762421393428482 -0.09612799988095956
outer loop
vertex -0.37533 -0.90613 -0.19509
vertex 0 -0.98079 -0.19509
vertex 0 -1 0
endloop
endfacet
facet normal -0.19418719357457043 -0.9762421865096776 -0.09613806285980757
outer loop
vertex -0.37533 -0.90613 -0.19509
vertex 0 -1 0
vertex -0.38268 -0.92388 0
endloop
endfacet
facet normal 0.19419222089031984 -0.9762411768920934 -0.0961381604048325
outer loop
vertex 0 -0.98079 -0.19509
vertex 0.37533 -0.90613 -0.19509
vertex 0.38268 -0.92388 0
endloop
endfacet
facet normal 0.1941873813418592 -0.9762431304769144 -0.0961280974753265
outer loop
vertex 0 -0.98079 -0.19509
vertex 0.38268 -0.92388 0
vertex 0 -1 0
endloop
endfacet
facet normal 0.5529989544410849 -0.8276127054870835 -0.09617362478048012
outer loop
vertex 0.37533 -0.90613 -0.19509
vertex 0.69352 -0.69352 -0.19509
vertex 0.70711 -0.70711 0
endloop
endfacet
facet normal 0.5529843552703264 -0.8276270442420628 -0.09613416908367278
outer loop
vertex 0.37533 -0.90613 -0.19509
vertex 0.70711 -0.70711 0
vertex 0.38268 -0.92388 0
endloop
endfacet
facet normal 0.8276308108760208 -0.5529793424220165 -0.09613057652596603
outer loop
vertex 0.82283 -0.5 -0.19509
vertex 0.84549 -0.5 0
vertex 0.70711 -0.70711 0
endloop
endfacet
facet normal 0.8276073407012888 -0.5530069513542974 -0.0961738081348889
outer loop
vertex 0.82283 -0.5 -0.19509
vertex 0.70711 -0.70711 0
vertex 0.69352 -0.69352 -0.19509
endloop
endfacet
facet normal 0.7969363247504272 0.532504034322408 -0.2851875658643648
outer loop
vertex 0.82283 0.5 -0.19509
vertex 0.7557 0.5 -0.38268
vertex 0.65328 0.65328 -0.38268
endloop
endfacet
facet normal 0.7969342831016235 0.5325112244102469 -0.28517984552629416
outer loop
vertex 0.82283 0.5 -0.19509
vertex 0.65328 0.65328 -0.38268
vertex 0.69352 0.69352 -0.19509
endloop
endfacet
facet normal 0.532490349653571 0.7969407924385318 -0.28520063266630863
outer loop
vertex 0.65328 0.65328 -0.38268
vertex 0.35355 0.85355 -0.38268
vertex 0.37533 0.90613 -0.19509
endloop
endfacet
facet normal 0.5325035977390119 0.796939559590688 -0.2851793413878516
outer loop
vertex 0.65328 0.65328 -0.38268
vertex 0.37533 0.90613 -0.19509
vertex 0.69352 0.69352 -0.19509
endloop
endfacet
facet normal 0.1870001333413315 0.9400525685031671 -0.2851878654166807
outer loop
vertex 0.35355 0.85355 -0.38268
vertex 0 0.92388 -0.38268
vertex 0 0.98079 -0.19509
endloop
endfacet
facet normal 0.1869932197009073 0.9400504306233786 -0.2851994454249314
outer loop
vertex 0.35355 0.85355 -0.38268
vertex 0 0.98079 -0.19509
vertex 0.37533 0.90613 -0.19509
endloop
endfacet
facet normal -0.18699944100024404 0.9400490880937897 -0.2851997914438767
outer loop
vertex 0 0.92388 -0.38268
vertex -0.35355 0.85355 -0.38268
vertex -0.37533 0.90613 -0.19509
endloop
endfacet
facet normal -0.18699387184527347 0.9400537090769681 -0.2851882114375498
outer loop
vertex 0 0.92388 -0.38268
vertex -0.37533 0.90613 -0.19509
vertex 0 0.98079 -0.19509
endloop
endfacet
facet normal -0.5324939743925181 0.7969462173299511 -0.28517870523435385
outer loop
vertex -0.35355 0.85355 -0.38268
vertex -0.65328 0.65328 -0.38268
vertex -0.69352 0.69352 -0.19509
endloop
endfacet
facet normal -0.5325001832571243 0.7969344495112387 -0.28519999651709
outer loop
vertex -0.35355 0.85355 -0.38268
vertex -0.69352 0.69352 -0.19509
vertex -0.37533 0.90613 -0.19509
endloop
endfacet
facet normal -0.796940792438532 0.5324903496535713 -0.28520063266630813
outer loop
vertex -0.65328 0.65328 -0.38268
vertex -0.85355 0.35355 -0.38268
vertex -0.90613 0.37533 -0.19509
endloop
endfacet
facet normal -0.796939559590688 0.5325035977390118 -0.2851793413878522
outer loop
vertex -0.65328 0.65328 -0.38268
vertex -0.90613 0.37533 -0.19509
vertex -0.69352 0.69352 -0.19509
endloop
endfacet
facet normal -0.940052568503167 0.18700013334133084 -0.2851878654166812
outer loop
vertex -0.85355 0.35355 -0.38268
vertex -0.92388 0 -0.38268
vertex -0.98079 0 -0.19509
endloop
endfacet
facet normal -0.9400504306233786 0.1869932197009074 -0.2851994454249319
outer loop
vertex -0.85355 0.35355 -0.38268
vertex -0.98079 0 -0.19509
vertex -0.90613 0.37533 -0.19509
endloop
endfacet
facet normal -0.9400490880937897 -0.18699944100024407 -0.2851997914438762
outer loop
vertex -0.92388 0 -0.38268
vertex -0.85355 -0.35355 -0.38268
vertex -0.90613 -0.37533 -0.19509
endloop
endfacet
facet normal -0.9400537090769677 -0.18699387184527286 -0.2851882114375513
outer loop
vertex -0.92388 0 -0.38268
vertex -0.90613 -0.37533 -0.19509
vertex -0.98079 0 -0.19509
endloop
endfacet
facet normal -0.7969383303795888 -0.5325053744616235 -0.2851794588347478
outer loop
vertex -0.7557 -0.5 -0.38268
vertex -0.65328 -0.65328 -0.38268
vertex -0.69352 -0.69352 -0.19509
endloop
endfacet
facet normal -0.7969326945351471 -0.5325101629306518 -0.28518626677405146
outer loop
vertex -0.7557 -0.5 -0.38268
vertex -0.69352 -0.69352 -0.19509
vertex -0.82283 -0.5 -0.19509
endloop
endfacet
facet normal -0.7969447737229682 -0.5324897702023216 -0.28519058937055697
outer loop
vertex -0.7557 -0.5 -0.38268
vertex -0.82283 -0.5 -0.19509
vertex -0.90613 -0.37533 -0.19509
endloop
endfacet
facet normal -0.7969486568736504 -0.5324781568800727 -0.28520142137248483
outer loop
vertex -0.7557 -0.5 -0.38268
vertex -0.90613 -0.37533 -0.19509
vertex -0.85355 -0.35355 -0.38268
endloop
endfacet
facet normal -0.532490349653571 -0.7969407924385318 -0.28520063266630863
outer loop
vertex -0.65328 -0.65328 -0.38268
vertex -0.35355 -0.85355 -0.38268
vertex -0.37533 -0.90613 -0.19509
endloop
endfacet
facet normal -0.5325035977390119 -0.796939559590688 -0.2851793413878516
outer loop
vertex -0.65328 -0.65328 -0.38268
vertex -0.37533 -0.90613 -0.19509
vertex -0.69352 -0.69352 -0.19509
endloop
endfacet
facet normal -0.1870001333413315 -0.9400525685031671 -0.2851878654166807
outer loop
vertex -0.35355 -0.85355 -0.38268
vertex 0 -0.92388 -0.38268
vertex 0 -0.98079 -0.19509
endloop
endfacet
facet normal -0.1869932197009073 -0.9400504306233786 -0.2851994454249314
outer loop
vertex -0.35355 -0.85355 -0.38268
vertex 0 -0.98079 -0.19509
vertex -0.37533 -0.90613 -0.19509
endloop
endfacet
facet normal 0.18699944100024404 -0.9400490880937897 -0.2851997914438767
outer loop
vertex 0 -0.92388 -0.38268
vertex 0.35355 -0.85355 -0.38268
vertex 0.37533 -0.90613 -0.19509
endloop
endfacet
facet normal 0.18699387184527347 -0.9400537090769681 -0.2851882114375498
outer loop
vertex 0 -0.92388 -0.38268
vertex 0.37533 -0.90613 -0.19509
vertex 0 -0.98079 -0.19509
endloop
endfacet
facet normal 0.5324939743925181 -0.7969462173299511 -0.28517870523435385
outer loop
vertex 0.35355 -0.85355 -0.38268
vertex 0.65328 -0.65328 -0.38268
vertex 0.69352 -0.69352 -0.19509
endloop
endfacet
facet normal 0.5325001832571243 -0.7969344495112387 -0.28519999651709
outer loop
vertex 0.35355 -0.85355 -0.38268
vertex 0.69352 -0.69352 -0.19509
vertex 0.37533 -0.90613 -0.19509
endloop
endfacet
facet normal 0.7969326945351471 -0.5325101629306518 -0.28518626677405146
outer loop
vertex 0.7557 -0.5 -0.38268
vertex 0.82283 -0.5 -0.19509
vertex 0.69352 -0.69352 -0.19509
endloop
endfacet
facet normal 0.7969383303795888 -0.5325053744616235 -0.2851794588347478
outer loop
vertex 0.7557 -0.5 -0.38268
vertex 0.69352 -0.69352 -0.19509
vertex 0.65328 -0.65328 -0.38268
endloop
endfacet
facet normal 0.868675506820245 -0.17278091841263277 -0.46427321491022683
outer loop
vertex 0.83147 0 -0.55557
vertex 0.86117 0 -0.5
vertex 0.79562 -0.32956 -0.5
endloop
endfacet
facet normal 0.868665022527179 -0.17278295759057408 -0.4642920720883668
outer loop
vertex 0.83147 0 -0.55557
vertex 0.79562 -0.32956 -0.5
vertex 0.76818 -0.31819 -0.55557
endloop
endfacet
facet normal 0.8686659819313239 0.1727790238973125 -0.4642917409736907
outer loop
vertex 0.76818 0.31819 -0.55557
vertex 0.79562 0.32956 -0.5
vertex 0.86117 0 -0.5
endloop
endfacet
facet normal 0.8686748877545268 0.17278491984658137 -0.4642728840437168
outer loop
vertex 0.76818 0.31819 -0.55557
vertex 0.86117 0 -0.5
vertex 0.83147 0 -0.55557
endloop
endfacet
facet normal 0.7364412502912374 0.49207741490917795 -0.46423496486776994
outer loop
vertex 0.68173 0.5 -0.5
vertex 0.6467 0.5 -0.55557
vertex 0.58794 0.58794 -0.55557
endloop
endfacet
facet normal 0.7364360700130553 0.49204496185057406 -0.46427757893440574
outer loop
vertex 0.68173 0.5 -0.5
vertex 0.58794 0.58794 -0.55557
vertex 0.65328 0.65328 -0.38268
endloop
endfacet
facet normal 0.7364089894557299 0.49206033859639725 -0.46430423585100955
outer loop
vertex 0.68173 0.5 -0.5
vertex 0.65328 0.65328 -0.38268
vertex 0.7557 0.5 -0.38268
endloop
endfacet
facet normal 0.7363992705707263 0.49207059918622553 -0.46430877626791794
outer loop
vertex 0.68173 0.5 -0.5
vertex 0.79562 0.32956 -0.5
vertex 0.76818 0.31819 -0.55557
endloop
endfacet
facet normal 0.736444662103868 0.4920702797006636 -0.4642371155929161
outer loop
vertex 0.68173 0.5 -0.5
vertex 0.76818 0.31819 -0.55557
vertex 0.6467 0.5 -0.55557
endloop
endfacet
facet normal 0.4920619831237491 0.7364276517289802 -0.4642728923093221
outer loop
vertex 0.58794 0.58794 -0.55557
vertex 0.31819 0.76818 -0.55557
vertex 0.35355 0.85355 -0.38268
endloop
endfacet
facet normal 0.4920570948799989 0.7364271885373852 -0.46427880778814173
outer loop
vertex 0.58794 0.58794 -0.55557
vertex 0.35355 0.85355 -0.38268
vertex 0.65328 0.65328 -0.38268
endloop
endfacet
facet normal 0.17278208600610165 0.8686606406427776 -0.46430059460812634
outer loop
vertex 0.31819 0.76818 -0.55557
vertex 0 0.83147 -0.55557
vertex 0 0.92388 -0.38268
endloop
endfacet
facet normal 0.17280041195936205 0.8686703490435449 -0.46427561029978837
outer loop
vertex 0.31819 0.76818 -0.55557
vertex 0 0.92388 -0.38268
vertex 0.35355 0.85355 -0.38268
endloop
endfacet
facet normal -0.1727847755402422 0.868674162255484 -0.4642742951868444
outer loop
vertex 0 0.83147 -0.55557
vertex -0.31819 0.76818 -0.55557
vertex -0.35355 0.85355 -0.38268
endloop
endfacet
facet normal -0.17279799120447906 0.8686581798712304 -0.46429927932153636
outer loop
vertex 0 0.83147 -0.55557
vertex -0.35355 0.85355 -0.38268
vertex 0 0.92388 -0.38268
endloop
endfacet
facet normal -0.49206016968831967 0.7364249377131843 -0.46427911919494574
outer loop
vertex -0.31819 0.76818 -0.55557
vertex -0.58794 0.58794 -0.55557
vertex -0.65328 0.65328 -0.38268
endloop
endfacet
facet normal -0.49205872692372193 0.736429631102248 -0.4642732037204097
outer loop
vertex -0.31819 0.76818 -0.55557
vertex -0.65328 0.65328 -0.38268
vertex -0.35355 0.85355 -0.38268
endloop
endfacet
facet normal -0.7364276517289803 0.4920619831237489 -0.4642728923093221
outer loop
vertex -0.58794 0.58794 -0.55557
vertex -0.76818 0.31819 -0.55557
vertex -0.85355 0.35355 -0.38268
endloop
endfacet
facet normal -0.7364271885373851 0.4920570948799988 -0.46427880778814207
outer loop
vertex -0.58794 0.58794 -0.55557
vertex -0.85355 0.35355 -0.38268
vertex -0.65328 0.65328 -0.38268
endloop
endfacet
facet normal -0.8686606406427773 0.1727820860061007 -0.4643005946081268
outer loop
vertex -0.76818 0.31819 -0.55557
vertex -0.83147 0 -0.55557
vertex -0.92388 0 -0.38268
endloop
endfacet
facet normal -0.8686703490435443 0.17280041195936277 -0.46427561029978887
outer loop
vertex -0.76818 0.31819 -0.55557
vertex -0.92388 0 -0.38268
vertex -0.85355 0.35355 -0.38268
endloop
endfacet
facet normal -0.8686741622554836 -0.17278477554024296 -0.46427429518684493
outer loop
vertex -0.83147 0 -0.55557
vertex -0.76818 -0.31819 -0.55557
vertex -0.85355 -0.35355 -0.38268
endloop
endfacet
facet normal -0.8686581798712305 -0.17279799120447836 -0.46429927932153636
outer loop
vertex -0.83147 0 -0.55557
vertex -0.85355 -0.35355 -0.38268
vertex -0.92388 0 -0.38268
endloop
endfacet
facet normal -0.7364218184167723 -0.4920644308638809 -0.46427955074323424
outer loop
vertex -0.6467 -0.5 -0.55557
vertex -0.58794 -0.58794 -0.55557
vertex -0.65328 -0.65328 -0.38268
endloop
endfacet
facet normal -0.7364188370823884 -0.49206691867156876 -0.46428164290578006
outer loop
vertex -0.6467 -0.5 -0.55557
vertex -0.65328 -0.65328 -0.38268
vertex -0.7557 -0.5 -0.38268
endloop
endfacet
facet normal -0.7364302610946208 -0.4920430252516803 -0.4642888452733739
outer loop
vertex -0.6467 -0.5 -0.55557
vertex -0.7557 -0.5 -0.38268
vertex -0.85355 -0.35355 -0.38268
endloop
endfacet
facet normal -0.736428978549435 -0.4920598004190379 -0.46427310105606173
outer loop
vertex -0.6467 -0.5 -0.55557
vertex -0.85355 -0.35355 -0.38268
vertex -0.76818 -0.31819 -0.55557
endloop
endfacet
facet normal -0.4920619831237491 -0.7364276517289802 -0.4642728923093221
outer loop
vertex -0.58794 -0.58794 -0.55557
vertex -0.31819 -0.76818 -0.55557
vertex -0.35355 -0.85355 -0.38268
endloop
endfacet
facet normal -0.4920570948799989 -0.7364271885373852 -0.46427880778814173
outer loop
vertex -0.58794 -0.58794 -0.55557
vertex -0.35355 -0.85355 -0.38268
vertex -0.65328 -0.65328 -0.38268
endloop
endfacet
facet normal -0.17278208600610165 -0.8686606406427776 -0.46430059460812634
outer loop
vertex -0.31819 -0.76818 -0.55557
vertex 0 -0.83147 -0.55557
vertex 0 -0.92388 -0.38268
endloop
endfacet
facet normal -0.17280041195936205 -0.8686703490435449 -0.46427561029978837
outer loop
vertex -0.31819 -0.76818 -0.55557
vertex 0 -0.92388 -0.38268
vertex -0.35355 -0.85355 -0.38268
endloop
endfacet
facet normal 0.1727847755402422 -0.868674162255484 -0.4642742951868444
outer loop
vertex 0 -0.83147 -0.55557
vertex 0.31819 -0.76818 -0.55557
vertex 0.35355 -0.85355 -0.38268
endloop
endfacet
facet normal 0.17279799120447906 -0.8686581798712304 -0.46429927932153636
outer loop
vertex 0 -0.83147 -0.55557
vertex 0.35355 -0.85355 -0.38268
vertex 0 -0.92388 -0.38268
endloop
endfacet
facet normal 0.49206016968831967 -0.7364249377131843 -0.46427911919494574
outer loop
vertex 0.31819 -0.76818 -0.55557
vertex 0.58794 -0.58794 -0.55557
vertex 0.65328 -0.65328 -0.38268
endloop
endfacet
facet normal 0.49205872692372193 -0.736429631102248 -0.4642732037204097
outer loop
vertex 0.31819 -0.76818 -0.55557
vertex 0.65328 -0.65328 -0.38268
vertex 0.35355 -0.85355 -0.38268
endloop
endfacet
facet normal 0 1 0
outer loop
vertex 0.6467 -0.5 -0.55557
vertex 0.68173 -0.5 -0.5
vertex 0.7557 -0.5 -0.38268
endloop
endfacet
facet normal 0.7364188370823884 -0.49206691867156876 -0.46428164290578006
outer loop
vertex 0.6467 -0.5 -0.55557
vertex 0.7557 -0.5 -0.38268
vertex 0.65328 -0.65328 -0.38268
endloop
endfacet
facet normal 0.7364218184167723 -0.4920644308638809 -0.46427955074323424
outer loop
vertex 0.6467 -0.5 -0.55557
vertex 0.65328 -0.65328 -0.38268
vertex 0.58794 -0.58794 -0.55557
endloop
endfacet
facet normal 0.7363992705707266 -0.4920705991862252 -0.4643087762679176
outer loop
vertex 0.76818 -0.31819 -0.55557
vertex 0.79562 -0.32956 -0.5
vertex 0.68173 -0.5 -0.5
endloop
endfacet
facet normal 0.736444662103868 -0.4920702797006636 -0.4642371155929161
outer loop
vertex 0.76818 -0.31819 -0.55557
vertex 0.68173 -0.5 -0.5
vertex 0.6467 -0.5 -0.55557
endloop
endfacet
facet normal 0.7640436565877458 -0.15198991143428806 -0.6270058673172239
outer loop
vertex 0.65328 -0.2706 -0.70711
vertex 0.70711 0 -0.70711
vertex 0.83147 0 -0.55557
endloop
endfacet
facet normal 0.7640312329301809 -0.15197063619897327 -0.6270256779753657
outer loop
vertex 0.65328 -0.2706 -0.70711
vertex 0.83147 0 -0.55557
vertex 0.76818 -0.31819 -0.55557
endloop
endfacet
facet normal 0.7640267536627248 0.15198654896402303 -0.627027279009139
outer loop
vertex 0.70711 0 -0.70711
vertex 0.65328 0.2706 -0.70711
vertex 0.76818 0.31819 -0.55557
endloop
endfacet
facet normal 0.7640456078948519 0.15197349547020708 -0.6270074686406482
outer loop
vertex 0.70711 0 -0.70711
vertex 0.76818 0.31819 -0.55557
vertex 0.83147 0 -0.55557
endloop
endfacet
facet normal 0.6477125620934835 0.4327904269799071 -0.6270254247005022
outer loop
vertex 0.5 0.5 -0.70711
vertex 0.58794 0.58794 -0.55557
vertex 0.6467 0.5 -0.55557
endloop
endfacet
facet normal 0.6477148833178951 0.43278369740640216 -0.6270276717878798
outer loop
vertex 0.5 0.5 -0.70711
vertex 0.6467 0.5 -0.55557
vertex 0.76818 0.31819 -0.55557
endloop
endfacet
facet normal 0.6477159271379659 0.4327894390222632 -0.6270226305346563
outer loop
vertex 0.5 0.5 -0.70711
vertex 0.76818 0.31819 -0.55557
vertex 0.65328 0.2706 -0.70711
endloop
endfacet
facet normal 0.43278943902226336 0.6477159271379659 -0.627022630534656
outer loop
vertex 0.5 0.5 -0.70711
vertex 0.2706 0.65328 -0.70711
vertex 0.31819 0.76818 -0.55557
endloop
endfacet
facet normal 0.4327867701837404 0.647715441949978 -0.6270249738355491
outer loop
vertex 0.5 0.5 -0.70711
vertex 0.31819 0.76818 -0.55557
vertex 0.58794 0.58794 -0.55557
endloop
endfacet
facet normal 0.15198991143428806 0.7640436565877459 -0.6270058673172236
outer loop
vertex 0.2706 0.65328 -0.70711
vertex 0 0.70711 -0.70711
vertex 0 0.83147 -0.55557
endloop
endfacet
facet normal 0.15197063619897325 0.7640312329301808 -0.6270256779753657
outer loop
vertex 0.2706 0.65328 -0.70711
vertex 0 0.83147 -0.55557
vertex 0.31819 0.76818 -0.55557
endloop
endfacet
facet normal -0.15198654896402308 0.7640267536627253 -0.6270272790091385
outer loop
vertex 0 0.70711 -0.70711
vertex -0.2706 0.65328 -0.70711
vertex -0.31819 0.76818 -0.55557
endloop
endfacet
facet normal -0.15197349547020716 0.7640456078948514 -0.6270074686406488
outer loop
vertex 0 0.70711 -0.70711
vertex -0.31819 0.76818 -0.55557
vertex 0 0.83147 -0.55557
endloop
endfacet
facet normal -0.4327883064354292 0.647714232099997 -0.6270251632493421
outer loop
vertex -0.2706 0.65328 -0.70711
vertex -0.5 0.5 -0.70711
vertex -0.58794 0.58794 -0.55557
endloop
endfacet
facet normal -0.4327877333529014 0.6477168834439926 -0.6270228199681882
outer loop
vertex -0.2706 0.65328 -0.70711
vertex -0.58794 0.58794 -0.55557
vertex -0.31819 0.76818 -0.55557
endloop
endfacet
facet normal -0.6477159271379659 0.4327894390222632 -0.6270226305346563
outer loop
vertex -0.5 0.5 -0.70711
vertex -0.65328 0.2706 -0.70711
vertex -0.76818 0.31819 -0.55557
endloop
endfacet
facet normal -0.6477154419499773 0.4327867701837404 -0.6270249738355497
outer loop
vertex -0.5 0.5 -0.70711
vertex -0.76818 0.31819 -0.55557
vertex -0.58794 0.58794 -0.55557
endloop
endfacet
facet normal -0.7640436565877458 0.15198991143428806 -0.6270058673172239
outer loop
vertex -0.65328 0.2706 -0.70711
vertex -0.70711 0 -0.70711
vertex -0.83147 0 -0.55557
endloop
endfacet
facet normal -0.7640312329301809 0.15197063619897327 -0.6270256779753657
outer loop
vertex -0.65328 0.2706 -0.70711
vertex -0.83147 0 -0.55557
vertex -0.76818 0.31819 -0.55557
endloop
endfacet
facet normal -0.7640267536627248 -0.15198654896402303 -0.627027279009139
outer loop
vertex -0.70711 0 -0.70711
vertex -0.65328 -0.2706 -0.70711
vertex -0.76818 -0.31819 -0.55557
endloop
endfacet
facet normal -0.7640456078948519 -0.15197349547020708 -0.6270074686406482
outer loop
vertex -0.70711 0 -0.70711
vertex -0.76818 -0.31819 -0.55557
vertex -0.83147 0 -0.55557
endloop
endfacet
facet normal -0.6477125620934835 -0.4327904269799071 -0.6270254247005022
outer loop
vertex -0.5 -0.5 -0.70711
vertex -0.58794 -0.58794 -0.55557
vertex -0.6467 -0.5 -0.55557
endloop
endfacet
facet normal -0.6477148833178951 -0.43278369740640216 -0.6270276717878798
outer loop
vertex -0.5 -0.5 -0.70711
vertex -0.6467 -0.5 -0.55557
vertex -0.76818 -0.31819 -0.55557
endloop
endfacet
facet normal -0.6477159271379659 -0.4327894390222632 -0.6270226305346563
outer loop
vertex -0.5 -0.5 -0.70711
vertex -0.76818 -0.31819 -0.55557
vertex -0.65328 -0.2706 -0.70711
endloop
endfacet
facet normal -0.43278943902226336 -0.6477159271379659 -0.627022630534656
outer loop
vertex -0.5 -0.5 -0.70711
vertex -0.2706 -0.65328 -0.70711
vertex -0.31819 -0.76818 -0.55557
endloop
endfacet
facet normal -0.4327867701837404 -0.647715441949978 -0.6270249738355491
outer loop
vertex -0.5 -0.5 -0.70711
vertex -0.31819 -0.76818 -0.55557
vertex -0.58794 -0.58794 -0.55557
endloop
endfacet
facet normal -0.15198991143428806 -0.7640436565877459 -0.6270058673172236
outer loop
vertex -0.2706 -0.65328 -0.70711
vertex 0 -0.70711 -0.70711
vertex 0 -0.83147 -0.55557
endloop
endfacet
facet normal -0.15197063619897325 -0.7640312329301808 -0.6270256779753657
outer loop
vertex -0.2706 -0.65328 -0.70711
vertex 0 -0.83147 -0.55557
vertex -0.31819 -0.76818 -0.55557
endloop
endfacet
facet normal 0.15198654896402308 -0.7640267536627253 -0.6270272790091385
outer loop
vertex 0 -0.70711 -0.70711
vertex 0.2706 -0.65328 -0.70711
vertex 0.31819 -0.76818 -0.55557
endloop
endfacet
facet normal 0.15197349547020716 -0.7640456078948514 -0.6270074686406488
outer loop
vertex 0 -0.70711 -0.70711
vertex 0.31819 -0.76818 -0.55557
vertex 0 -0.83147 -0.55557
endloop
endfacet
facet normal 0.4327883064354292 -0.647714232099997 -0.6270251632493421
outer loop
vertex 0.2706 -0.65328 -0.70711
vertex 0.5 -0.5 -0.70711
vertex 0.58794 -0.58794 -0.55557
endloop
endfacet
facet normal 0.4327877333529014 -0.6477168834439926 -0.6270228199681882
outer loop
vertex 0.2706 -0.65328 -0.70711
vertex 0.58794 -0.58794 -0.55557
vertex 0.31819 -0.76818 -0.55557
endloop
endfacet
facet normal 0.6477125620934835 -0.4327904269799071 -0.6270254247005022
outer loop
vertex 0.6467 -0.5 -0.55557
vertex 0.58794 -0.58794 -0.55557
vertex 0.5 -0.5 -0.70711
endloop
endfacet
facet normal 0.6477179844902646 -0.4327857695169528 -0.6270230380707622
outer loop
vertex 0.65328 -0.2706 -0.70711
vertex 0.76818 -0.31819 -0.55557
vertex 0.6467 -0.5 -0.55557
endloop
endfacet
facet normal 0.6477134693335711 -0.4327877967717952 -0.6270263029644644
outer loop
vertex 0.65328 -0.2706 -0.70711
vertex 0.6467 -0.5 -0.55557
vertex 0.5 -0.5 -0.70711
endloop
endfacet
facet normal 0.6293852262832286 -0.12519026019245455 -0.7669430459228083
outer loop
vertex 0.51328 -0.21261 -0.83147
vertex 0.55557 0 -0.83147
vertex 0.70711 0 -0.70711
endloop
endfacet
facet normal 0.6293943909428821 -0.1252043609181646 -0.766933223075329
outer loop
vertex 0.51328 -0.21261 -0.83147
vertex 0.70711 0 -0.70711
vertex 0.65328 -0.2706 -0.70711
endloop
endfacet
facet normal 0.6293981220315366 0.1251928252702768 -0.766932044241223
outer loop
vertex 0.55557 0 -0.83147
vertex 0.51328 0.21261 -0.83147
vertex 0.65328 0.2706 -0.70711
endloop
endfacet
facet normal 0.6293842588490909 0.12520234535789612 -0.7669418670472116
outer loop
vertex 0.55557 0 -0.83147
vertex 0.65328 0.2706 -0.70711
vertex 0.70711 0 -0.70711
endloop
endfacet
facet normal 0.5335854591771456 0.356522951890279 -0.7669275992752878
outer loop
vertex 0.51328 0.21261 -0.83147
vertex 0.39285 0.39285 -0.83147
vertex 0.5 0.5 -0.70711
endloop
endfacet
facet normal 0.5335774670887105 0.35652464758220354 -0.766932371387192
outer loop
vertex 0.51328 0.21261 -0.83147
vertex 0.5 0.5 -0.70711
vertex 0.65328 0.2706 -0.70711
endloop
endfacet
facet normal 0.3565908162848382 0.5335436385225729 -0.7669251433702033
outer loop
vertex 0.23248 0.5 -0.83147
vertex 0.21261 0.51328 -0.83147
vertex 0.2706 0.65328 -0.70711
endloop
endfacet
facet normal 0.35652076906933755 0.5335716624772054 -0.7669382127808727
outer loop
vertex 0.23248 0.5 -0.83147
vertex 0.2706 0.65328 -0.70711
vertex 0.5 0.5 -0.70711
endloop
endfacet
facet normal 0.35651538598987764 0.533591903417607 -0.7669266328402371
outer loop
vertex 0.23248 0.5 -0.83147
vertex 0.5 0.5 -0.70711
vertex 0.39285 0.39285 -0.83147
endloop
endfacet
facet normal 0.1251902601924545 0.6293852262832283 -0.7669430459228084
outer loop
vertex 0.21261 0.51328 -0.83147
vertex 0 0.55557 -0.83147
vertex 0 0.70711 -0.70711
endloop
endfacet
facet normal 0.12520436091816484 0.6293943909428824 -0.7669332230753286
outer loop
vertex 0.21261 0.51328 -0.83147
vertex 0 0.70711 -0.70711
vertex 0.2706 0.65328 -0.70711
endloop
endfacet
facet normal -0.1251928252702775 0.6293981220315367 -0.7669320442412226
outer loop
vertex 0 0.55557 -0.83147
vertex -0.21261 0.51328 -0.83147
vertex -0.2706 0.65328 -0.70711
endloop
endfacet
facet normal -0.12520234535789576 0.6293842588490905 -0.7669418670472119
outer loop
vertex 0 0.55557 -0.83147
vertex -0.2706 0.65328 -0.70711
vertex 0 0.70711 -0.70711
endloop
endfacet
facet normal -0.35652295189027866 0.533585459177147 -0.7669275992752871
outer loop
vertex -0.21261 0.51328 -0.83147
vertex -0.39285 0.39285 -0.83147
vertex -0.5 0.5 -0.70711
endloop
endfacet
facet normal -0.3565246475822029 0.5335774670887091 -0.7669323713871931
outer loop
vertex -0.21261 0.51328 -0.83147
vertex -0.5 0.5 -0.70711
vertex -0.2706 0.65328 -0.70711
endloop
endfacet
facet normal -0.5335801480893028 0.3565194032090259 -0.7669329440703913
outer loop
vertex -0.39285 0.39285 -0.83147
vertex -0.51328 0.21261 -0.83147
vertex -0.65328 0.2706 -0.70711
endloop
endfacet
facet normal -0.5335816399693167 0.35652743580861845 -0.7669281719974732
outer loop
vertex -0.39285 0.39285 -0.83147
vertex -0.65328 0.2706 -0.70711
vertex -0.5 0.5 -0.70711
endloop
endfacet
facet normal -0.6293852262832286 0.12519026019245455 -0.7669430459228083
outer loop
vertex -0.51328 0.21261 -0.83147
vertex -0.55557 0 -0.83147
vertex -0.70711 0 -0.70711
endloop
endfacet
facet normal -0.6293943909428821 0.1252043609181646 -0.766933223075329
outer loop
vertex -0.51328 0.21261 -0.83147
vertex -0.70711 0 -0.70711
vertex -0.65328 0.2706 -0.70711
endloop
endfacet
facet normal -0.6293981220315366 -0.1251928252702768 -0.766932044241223
outer loop
vertex -0.55557 0 -0.83147
vertex -0.51328 -0.21261 -0.83147
vertex -0.65328 -0.2706 -0.70711
endloop
endfacet
facet normal -0.6293842588490909 -0.12520234535789612 -0.7669418670472116
outer loop
vertex -0.55557 0 -0.83147
vertex -0.65328 -0.2706 -0.70711
vertex -0.70711 0 -0.70711
endloop
endfacet
facet normal -0.5335854591771456 -0.356522951890279 -0.7669275992752878
outer loop
vertex -0.51328 -0.21261 -0.83147
vertex -0.39285 -0.39285 -0.83147
vertex -0.5 -0.5 -0.70711
endloop
endfacet
facet normal -0.5335774670887105 -0.35652464758220354 -0.766932371387192
outer loop
vertex -0.51328 -0.21261 -0.83147
vertex -0.5 -0.5 -0.70711
vertex -0.65328 -0.2706 -0.70711
endloop
endfacet
facet normal -0.3565908162848382 -0.5335436385225729 -0.7669251433702033
outer loop
vertex -0.23248 -0.5 -0.83147
vertex -0.21261 -0.51328 -0.83147
vertex -0.2706 -0.65328 -0.70711
endloop
endfacet
facet normal -0.35652076906933755 -0.5335716624772054 -0.7669382127808727
outer loop
vertex -0.23248 -0.5 -0.83147
vertex -0.2706 -0.65328 -0.70711
vertex -0.5 -0.5 -0.70711
endloop
endfacet
facet normal -0.35651538598987764 -0.533591903417607 -0.7669266328402371
outer loop
vertex -0.23248 -0.5 -0.83147
vertex -0.5 -0.5 -0.70711
vertex -0.39285 -0.39285 -0.83147
endloop
endfacet
facet normal -0.1251902601924545 -0.6293852262832283 -0.7669430459228084
outer loop
vertex -0.21261 -0.51328 -0.83147
vertex 0 -0.55557 -0.83147
vertex 0 -0.70711 -0.70711
endloop
endfacet
facet normal -0.12520436091816484 -0.6293943909428824 -0.7669332230753286
outer loop
vertex -0.21261 -0.51328 -0.83147
vertex 0 -0.70711 -0.70711
vertex -0.2706 -0.65328 -0.70711
endloop
endfacet
facet normal 0.1251928252702775 -0.6293981220315367 -0.7669320442412226
outer loop
vertex 0 -0.55557 -0.83147
vertex 0.21261 -0.51328 -0.83147
vertex 0.2706 -0.65328 -0.70711
endloop
endfacet
facet normal 0.12520234535789576 -0.6293842588490905 -0.7669418670472119
outer loop
vertex 0 -0.55557 -0.83147
vertex 0.2706 -0.65328 -0.70711
vertex 0 -0.70711 -0.70711
endloop
endfacet
facet normal 0.35652076906933755 -0.5335716624772054 -0.7669382127808727
outer loop
vertex 0.23248 -0.5 -0.83147
vertex 0.5 -0.5 -0.70711
vertex 0.2706 -0.65328 -0.70711
endloop
endfacet
facet normal 0.3565908162848382 -0.5335436385225729 -0.7669251433702033
outer loop
vertex 0.23248 -0.5 -0.83147
vertex 0.2706 -0.65328 -0.70711
vertex 0.21261 -0.51328 -0.83147
endloop
endfacet
facet normal 0.35651538598987764 -0.533591903417607 -0.7669266328402371
outer loop
vertex 0.23248 -0.5 -0.83147
vertex 0.39285 -0.39285 -0.83147
vertex 0.5 -0.5 -0.70711
endloop
endfacet
facet normal 0.5335801480893028 -0.3565194032090259 -0.7669329440703913
outer loop
vertex 0.39285 -0.39285 -0.83147
vertex 0.51328 -0.21261 -0.83147
vertex 0.65328 -0.2706 -0.70711
endloop
endfacet
facet normal 0.5335816399693167 -0.35652743580861845 -0.7669281719974732
outer loop
vertex 0.39285 -0.39285 -0.83147
vertex 0.65328 -0.2706 -0.70711
vertex 0.5 -0.5 -0.70711
endloop
endfacet
facet normal 0.46933171601475787 -0.09335358748726486 -0.8780733728145389
outer loop
vertex 0.35355 -0.14645 -0.92388
vertex 0.38268 0 -0.92388
vertex 0.55557 0 -0.83147
endloop
endfacet
facet normal 0.4693320943938187 -0.09335428376800033 -0.8780730965438329
outer loop
vertex 0.35355 -0.14645 -0.92388
vertex 0.55557 0 -0.83147
vertex 0.51328 -0.21261 -0.83147
endloop
endfacet
facet normal 0.46933230483122695 0.09335370460726254 -0.8780730456390905
outer loop
vertex 0.38268 0 -0.92388
vertex 0.35355 0.14645 -0.92388
vertex 0.51328 0.21261 -0.83147
endloop
endfacet
facet normal 0.46933168880552006 0.09335420309291884 -0.8780733219087371
outer loop
vertex 0.38268 0 -0.92388
vertex 0.51328 0.21261 -0.83147
vertex 0.55557 0 -0.83147
endloop
endfacet
facet normal 0.397892344854131 0.2658491341574717 -0.8780694276503447
outer loop
vertex 0.35355 0.14645 -0.92388
vertex 0.2706 0.2706 -0.92388
vertex 0.39285 0.39285 -0.83147
endloop
endfacet
facet normal 0.39788355569025935 0.2658517344195404 -0.8780726230884315
outer loop
vertex 0.35355 0.14645 -0.92388
vertex 0.39285 0.39285 -0.83147
vertex 0.51328 0.21261 -0.83147
endloop
endfacet
facet normal 0.2658307985124263 0.39774532879833896 -0.8781415831068171
outer loop
vertex 0.20711 0.5 -0.83915
vertex 0.21261 0.51328 -0.83147
vertex 0.23248 0.5 -0.83147
endloop
endfacet
facet normal 0.265809254323115 0.3979168101078697 -0.8780704143460063
outer loop
vertex 0.14645 0.35355 -0.92388
vertex 0.20711 0.5 -0.83915
vertex 0.23248 0.5 -0.83147
endloop
endfacet
facet normal 0.2658490176247007 0.3978927387445003 -0.8780692844430801
outer loop
vertex 0.14645 0.35355 -0.92388
vertex 0.23248 0.5 -0.83147
vertex 0.39285 0.39285 -0.83147
endloop
endfacet
facet normal 0.26584913415747263 0.3978923448541303 -0.8780694276503447
outer loop
vertex 0.14645 0.35355 -0.92388
vertex 0.39285 0.39285 -0.83147
vertex 0.2706 0.2706 -0.92388
endloop
endfacet
facet normal 0.09334872674748775 0.46930415686411797 -0.8780886194255578
outer loop
vertex 0 0.5 -0.86117
vertex 0 0.55557 -0.83147
vertex 0.21261 0.51328 -0.83147
endloop
endfacet
facet normal 0.09336553515514191 0.46917974489817715 -0.8781533145313951
outer loop
vertex 0 0.5 -0.86117
vertex 0.21261 0.51328 -0.83147
vertex 0.20711 0.5 -0.83915
endloop
endfacet
facet normal 0.09335626460026822 0.4693447526614618 -0.8780661199528405
outer loop
vertex 0 0.38268 -0.92388
vertex 0 0.5 -0.86117
vertex 0.20711 0.5 -0.83915
endloop
endfacet
facet normal 0.0933561981425406 0.4693448409878156 -0.8780660798063505
outer loop
vertex 0 0.38268 -0.92388
vertex 0.20711 0.5 -0.83915
vertex 0.14645 0.35355 -0.92388
endloop
endfacet
facet normal -0.09335618130609064 0.46934475634318784 -0.8780661268407398
outer loop
vertex 0 0.5 -0.86117
vertex 0 0.38268 -0.92388
vertex -0.14645 0.35355 -0.92388
endloop
endfacet
facet normal -0.09334447006647435 0.46933566016533035 -0.8780722339336227
outer loop
vertex 0 0.5 -0.86117
vertex -0.14645 0.35355 -0.92388
vertex -0.21261 0.51328 -0.83147
endloop
endfacet
facet normal -0.09334872674748775 0.46930415686411797 -0.8780886194255578
outer loop
vertex 0 0.5 -0.86117
vertex -0.21261 0.51328 -0.83147
vertex 0 0.55557 -0.83147
endloop
endfacet
facet normal -0.26584913415747263 0.3978923448541303 -0.8780694276503447
outer loop
vertex -0.14645 0.35355 -0.92388
vertex -0.2706 0.2706 -0.92388
vertex -0.39285 0.39285 -0.83147
endloop
endfacet
facet normal -0.2658517344195399 0.39788355569025974 -0.8780726230884313
outer loop
vertex -0.14645 0.35355 -0.92388
vertex -0.39285 0.39285 -0.83147
vertex -0.21261 0.51328 -0.83147
endloop
endfacet
facet normal -0.3978865711853164 0.2658452765189049 -0.8780732118809793
outer loop
vertex -0.2706 0.2706 -0.92388
vertex -0.35355 0.14645 -0.92388
vertex -0.51328 0.21261 -0.83147
endloop
endfacet
facet normal -0.39788753253713877 0.26585439160812024 -0.8780700165215664
outer loop
vertex -0.2706 0.2706 -0.92388
vertex -0.51328 0.21261 -0.83147
vertex -0.39285 0.39285 -0.83147
endloop
endfacet
facet normal -0.46933171601475787 0.09335358748726486 -0.8780733728145389
outer loop
vertex -0.35355 0.14645 -0.92388
vertex -0.38268 0 -0.92388
vertex -0.55557 0 -0.83147
endloop
endfacet
facet normal -0.4693320943938187 0.09335428376800033 -0.8780730965438329
outer loop
vertex -0.35355 0.14645 -0.92388
vertex -0.55557 0 -0.83147
vertex -0.51328 0.21261 -0.83147
endloop
endfacet
facet normal -0.46933230483122695 -0.09335370460726254 -0.8780730456390905
outer loop
vertex -0.38268 0 -0.92388
vertex -0.35355 -0.14645 -0.92388
vertex -0.51328 -0.21261 -0.83147
endloop
endfacet
facet normal -0.46933168880552006 -0.09335420309291884 -0.8780733219087371
outer loop
vertex -0.38268 0 -0.92388
vertex -0.51328 -0.21261 -0.83147
vertex -0.55557 0 -0.83147
endloop
endfacet
facet normal -0.397892344854131 -0.2658491341574717 -0.8780694276503447
outer loop
vertex -0.35355 -0.14645 -0.92388
vertex -0.2706 -0.2706 -0.92388
vertex -0.39285 -0.39285 -0.83147
endloop
endfacet
facet normal -0.39788355569025935 -0.2658517344195404 -0.8780726230884315
outer loop
vertex -0.35355 -0.14645 -0.92388
vertex -0.39285 -0.39285 -0.83147
vertex -0.51328 -0.21261 -0.83147
endloop
endfacet
facet normal -0.2658307985124263 -0.39774532879833896 -0.8781415831068171
outer loop
vertex -0.20711 -0.5 -0.83915
vertex -0.21261 -0.51328 -0.83147
vertex -0.23248 -0.5 -0.83147
endloop
endfacet
facet normal -0.265809254323115 -0.3979168101078697 -0.8780704143460063
outer loop
vertex -0.14645 -0.35355 -0.92388
vertex -0.20711 -0.5 -0.83915
vertex -0.23248 -0.5 -0.83147
endloop
endfacet
facet normal -0.2658490176247007 -0.3978927387445003 -0.8780692844430801
outer loop
vertex -0.14645 -0.35355 -0.92388
vertex -0.23248 -0.5 -0.83147
vertex -0.39285 -0.39285 -0.83147
endloop
endfacet
facet normal -0.26584913415747263 -0.3978923448541303 -0.8780694276503447
outer loop
vertex -0.14645 -0.35355 -0.92388
vertex -0.39285 -0.39285 -0.83147
vertex -0.2706 -0.2706 -0.92388
endloop
endfacet
facet normal -0.09334872674748775 -0.46930415686411797 -0.8780886194255578
outer loop
vertex 0 -0.5 -0.86117
vertex 0 -0.55557 -0.83147
vertex -0.21261 -0.51328 -0.83147
endloop
endfacet
facet normal -0.09336553515514191 -0.46917974489817715 -0.8781533145313951
outer loop
vertex 0 -0.5 -0.86117
vertex -0.21261 -0.51328 -0.83147
vertex -0.20711 -0.5 -0.83915
endloop
endfacet
facet normal -0.09335626460026822 -0.4693447526614618 -0.8780661199528405
outer loop
vertex 0 -0.38268 -0.92388
vertex 0 -0.5 -0.86117
vertex -0.20711 -0.5 -0.83915
endloop
endfacet
facet normal -0.0933561981425406 -0.4693448409878156 -0.8780660798063505
outer loop
vertex 0 -0.38268 -0.92388
vertex -0.20711 -0.5 -0.83915
vertex -0.14645 -0.35355 -0.92388
endloop
endfacet
facet normal 0.09332678106682885 -0.4691938264984278 -0.8781499103863004
outer loop
vertex 0.20711 -0.5 -0.83915
vertex 0.21261 -0.51328 -0.83147
vertex 0 -0.55557 -0.83147
endloop
endfacet
facet normal 0.09335857020765832 -0.46930372181859237 -0.8780878054363351
outer loop
vertex 0.20711 -0.5 -0.83915
vertex 0 -0.55557 -0.83147
vertex 0 -0.5 -0.86117
endloop
endfacet
facet normal 0.09335626091853964 -0.4693448181782227 -0.8780660853241975
outer loop
vertex 0.14645 -0.35355 -0.92388
vertex 0.20711 -0.5 -0.83915
vertex 0 -0.5 -0.86117
endloop
endfacet
facet normal 0.09335618130609064 -0.46934475634318784 -0.8780661268407398
outer loop
vertex 0.14645 -0.35355 -0.92388
vertex 0 -0.5 -0.86117
vertex 0 -0.38268 -0.92388
endloop
endfacet
facet normal 0.2658307985124263 -0.39774532879833896 -0.8781415831068171
outer loop
vertex 0.23248 -0.5 -0.83147
vertex 0.21261 -0.51328 -0.83147
vertex 0.20711 -0.5 -0.83915
endloop
endfacet
facet normal 0.2658488985440505 -0.3978925605180538 -0.8780694012589791
outer loop
vertex 0.2706 -0.2706 -0.92388
vertex 0.39285 -0.39285 -0.83147
vertex 0.23248 -0.5 -0.83147
endloop
endfacet
facet normal 0.26581247276136016 -0.39789119847711973 -0.8780810460879636
outer loop
vertex 0.2706 -0.2706 -0.92388
vertex 0.23248 -0.5 -0.83147
vertex 0.20711 -0.5 -0.83915
endloop
endfacet
facet normal 0.26585211023632166 -0.3978967991059581 -0.8780665081553489
outer loop
vertex 0.2706 -0.2706 -0.92388
vertex 0.20711 -0.5 -0.83915
vertex 0.14645 -0.35355 -0.92388
endloop
endfacet
facet normal 0.3978865711853164 -0.2658452765189049 -0.8780732118809793
outer loop
vertex 0.2706 -0.2706 -0.92388
vertex 0.35355 -0.14645 -0.92388
vertex 0.51328 -0.21261 -0.83147
endloop
endfacet
facet normal 0.39788753253713877 -0.26585439160812024 -0.8780700165215664
outer loop
vertex 0.2706 -0.2706 -0.92388
vertex 0.51328 -0.21261 -0.83147
vertex 0.39285 -0.39285 -0.83147
endloop
endfacet
facet normal 0.2898261737334926 -0.05764691508093193 -0.9553416259122467
outer loop
vertex 0.18024 -0.07466 -0.98079
vertex 0.19509 0 -0.98079
vertex 0.38268 0 -0.92388
endloop
endfacet
facet normal 0.28982675518088985 -0.0576487086269672 -0.9553413412885257
outer loop
vertex 0.18024 -0.07466 -0.98079
vertex 0.38268 0 -0.92388
vertex 0.35355 -0.14645 -0.92388
endloop
endfacet
facet normal 0.2898273692697539 0.05764715287511181 -0.9553412488674228
outer loop
vertex 0.19509 0 -0.98079
vertex 0.18024 0.07466 -0.98079
vertex 0.35355 0.14645 -0.92388
endloop
endfacet
facet normal 0.2898261456995694 0.05764858739657538 -0.9553415335052231
outer loop
vertex 0.19509 0 -0.98079
vertex 0.35355 0.14645 -0.92388
vertex 0.38268 0 -0.92388
endloop
endfacet
facet normal 0.2456940112170994 0.16417127088594038 -0.9553440462303342
outer loop
vertex 0.18024 0.07466 -0.98079
vertex 0.13795 0.13795 -0.98079
vertex 0.2706 0.2706 -0.92388
endloop
endfacet
facet normal 0.24570457101120982 0.16416588131598756 -0.9553422565740209
outer loop
vertex 0.18024 0.07466 -0.98079
vertex 0.2706 0.2706 -0.92388
vertex 0.35355 0.14645 -0.92388
endloop
endfacet
facet normal 0.16417552904272675 0.2457003838523136 -0.9553416755477417
outer loop
vertex 0.13795 0.13795 -0.98079
vertex 0.07466 0.18024 -0.98079
vertex 0.14645 0.35355 -0.92388
endloop
endfacet
facet normal 0.1641637106279094 0.24570132217546578 -0.9553434651443972
outer loop
vertex 0.13795 0.13795 -0.98079
vertex 0.14645 0.35355 -0.92388
vertex 0.2706 0.2706 -0.92388
endloop
endfacet
facet normal 0.05764691508093143 0.289826173733493 -0.9553416259122466
outer loop
vertex 0.07466 0.18024 -0.98079
vertex 0 0.19509 -0.98079
vertex 0 0.38268 -0.92388
endloop
endfacet
facet normal 0.05764870862696676 0.2898267551808902 -0.9553413412885258
outer loop
vertex 0.07466 0.18024 -0.98079
vertex 0 0.38268 -0.92388
vertex 0.14645 0.35355 -0.92388
endloop
endfacet
facet normal -0.05764715287511114 0.2898273692697527 -0.9553412488674233
outer loop
vertex 0 0.19509 -0.98079
vertex -0.07466 0.18024 -0.98079
vertex -0.14645 0.35355 -0.92388
endloop
endfacet
facet normal -0.057648587396575024 0.2898261456995696 -0.955341533505223
outer loop
vertex 0 0.19509 -0.98079
vertex -0.14645 0.35355 -0.92388
vertex 0 0.38268 -0.92388
endloop
endfacet
facet normal -0.16417127088594155 0.24569401121710008 -0.955344046230334
outer loop
vertex -0.07466 0.18024 -0.98079
vertex -0.13795 0.13795 -0.98079
vertex -0.2706 0.2706 -0.92388
endloop
endfacet
facet normal -0.16416588131598717 0.24570457101120996 -0.9553422565740209
outer loop
vertex -0.07466 0.18024 -0.98079
vertex -0.2706 0.2706 -0.92388
vertex -0.14645 0.35355 -0.92388
endloop
endfacet
facet normal -0.2457003838523128 0.16417552904272936 -0.9553416755477415
outer loop
vertex -0.13795 0.13795 -0.98079
vertex -0.18024 0.07466 -0.98079
vertex -0.35355 0.14645 -0.92388
endloop
endfacet
facet normal -0.24570132217546567 0.1641637106279088 -0.9553434651443972
outer loop
vertex -0.13795 0.13795 -0.98079
vertex -0.35355 0.14645 -0.92388
vertex -0.2706 0.2706 -0.92388
endloop
endfacet
facet normal -0.2898261737334926 0.05764691508093193 -0.9553416259122467
outer loop
vertex -0.18024 0.07466 -0.98079
vertex -0.19509 0 -0.98079
vertex -0.38268 0 -0.92388
endloop
endfacet
facet normal -0.28982675518088985 0.0576487086269672 -0.9553413412885257
outer loop
vertex -0.18024 0.07466 -0.98079
vertex -0.38268 0 -0.92388
vertex -0.35355 0.14645 -0.92388
endloop
endfacet
facet normal -0.2898273692697539 -0.05764715287511181 -0.9553412488674228
outer loop
vertex -0.19509 0 -0.98079
vertex -0.18024 -0.07466 -0.98079
vertex -0.35355 -0.14645 -0.92388
endloop
endfacet
facet normal -0.2898261456995694 -0.05764858739657538 -0.9553415335052231
outer loop
vertex -0.19509 0 -0.98079
vertex -0.35355 -0.14645 -0.92388
vertex -0.38268 0 -0.92388
endloop
endfacet
facet normal -0.2456940112170994 -0.16417127088594038 -0.9553440462303342
outer loop
vertex -0.18024 -0.07466 -0.98079
vertex -0.13795 -0.13795 -0.98079
vertex -0.2706 -0.2706 -0.92388
endloop
endfacet
facet normal -0.24570457101120982 -0.16416588131598756 -0.9553422565740209
outer loop
vertex -0.18024 -0.07466 -0.98079
vertex -0.2706 -0.2706 -0.92388
vertex -0.35355 -0.14645 -0.92388
endloop
endfacet
facet normal -0.16417552904272675 -0.2457003838523136 -0.9553416755477417
outer loop
vertex -0.13795 -0.13795 -0.98079
vertex -0.07466 -0.18024 -0.98079
vertex -0.14645 -0.35355 -0.92388
endloop
endfacet
facet normal -0.1641637106279094 -0.24570132217546578 -0.9553434651443972
outer loop
vertex -0.13795 -0.13795 -0.98079
vertex -0.14645 -0.35355 -0.92388
vertex -0.2706 -0.2706 -0.92388
endloop
endfacet
facet normal -0.05764691508093143 -0.289826173733493 -0.9553416259122466
outer loop
vertex -0.07466 -0.18024 -0.98079
vertex 0 -0.19509 -0.98079
vertex 0 -0.38268 -0.92388
endloop
endfacet
facet normal -0.05764870862696676 -0.2898267551808902 -0.9553413412885258
outer loop
vertex -0.07466 -0.18024 -0.98079
vertex 0 -0.38268 -0.92388
vertex -0.14645 -0.35355 -0.92388
endloop
endfacet
facet normal 0.05764715287511114 -0.2898273692697527 -0.9553412488674233
outer loop
vertex 0 -0.19509 -0.98079
vertex 0.07466 -0.18024 -0.98079
vertex 0.14645 -0.35355 -0.92388
endloop
endfacet
facet normal 0.057648587396575024 -0.2898261456995696 -0.955341533505223
outer loop
vertex 0 -0.19509 -0.98079
vertex 0.14645 -0.35355 -0.92388
vertex 0 -0.38268 -0.92388
endloop
endfacet
facet normal 0.16417127088594155 -0.24569401121710008 -0.955344046230334
outer loop
vertex 0.07466 -0.18024 -0.98079
vertex 0.13795 -0.13795 -0.98079
vertex 0.2706 -0.2706 -0.92388
endloop
endfacet
facet normal 0.16416588131598717 -0.24570457101120996 -0.9553422565740209
outer loop
vertex 0.07466 -0.18024 -0.98079
vertex 0.2706 -0.2706 -0.92388
vertex 0.14645 -0.35355 -0.92388
endloop
endfacet
facet normal 0.2457003838523128 -0.16417552904272936 -0.9553416755477415
outer loop
vertex 0.13795 -0.13795 -0.98079
vertex 0.18024 -0.07466 -0.98079
vertex 0.35355 -0.14645 -0.92388
endloop
endfacet
facet normal 0.24570132217546567 -0.1641637106279088 -0.9553434651443972
outer loop
vertex 0.13795 -0.13795 -0.98079
vertex 0.35355 -0.14645 -0.92388
vertex 0.2706 -0.2706 -0.92388
endloop
endfacet
facet normal 0.09797484774406777 -0.019487362563614004 -0.994998076334744
outer loop
vertex 0 0 -1
vertex 0.19509 0 -0.98079
vertex 0.18024 -0.07466 -0.98079
endloop
endfacet
facet normal 0.09797484774406777 0.019487362563614004 -0.994998076334744
outer loop
vertex 0 0 -1
vertex 0.18024 0.07466 -0.98079
vertex 0.19509 0 -0.98079
endloop
endfacet
facet normal 0.08305797840890307 0.05549884510842913 -0.9949981157842747
outer loop
vertex 0 0 -1
vertex 0.13795 0.13795 -0.98079
vertex 0.18024 0.07466 -0.98079
endloop
endfacet
facet normal 0.05549884510842839 0.08305797840890228 -0.9949981157842747
outer loop
vertex 0 0 -1
vertex 0.07466 0.18024 -0.98079
vertex 0.13795 0.13795 -0.98079
endloop
endfacet
facet normal 0.019487362563614618 0.09797484774406874 -0.9949980763347438
outer loop
vertex 0 0 -1
vertex 0 0.19509 -0.98079
vertex 0.07466 0.18024 -0.98079
endloop
endfacet
facet normal -0.019487362563614618 0.09797484774406874 -0.9949980763347438
outer loop
vertex 0 0 -1
vertex -0.07466 0.18024 -0.98079
vertex 0 0.19509 -0.98079
endloop
endfacet
facet normal -0.05549884510842839 0.08305797840890228 -0.9949981157842747
outer loop
vertex 0 0 -1
vertex -0.13795 0.13795 -0.98079
vertex -0.07466 0.18024 -0.98079
endloop
endfacet
facet normal -0.08305797840890307 0.05549884510842913 -0.9949981157842747
outer loop
vertex 0 0 -1
vertex -0.18024 0.07466 -0.98079
vertex -0.13795 0.13795 -0.98079
endloop
endfacet
facet normal -0.09797484774406777 0.019487362563614004 -0.994998076334744
outer loop
vertex 0 0 -1
vertex -0.19509 0 -0.98079
vertex -0.18024 0.07466 -0.98079
endloop
endfacet
facet normal -0.09797484774406777 -0.019487362563614004 -0.994998076334744
outer loop
vertex 0 0 -1
vertex -0.18024 -0.07466 -0.98079
vertex -0.19509 0 -0.98079
endloop
endfacet
facet normal -0.08305797840890307 -0.05549884510842913 -0.9949981157842747
outer loop
vertex 0 0 -1
vertex -0.13795 -0.13795 -0.98079
vertex -0.18024 -0.07466 -0.98079
endloop
endfacet
facet normal -0.05549884510842839 -0.08305797840890228 -0.9949981157842747
outer loop
vertex 0 0 -1
vertex -0.07466 -0.18024 -0.98079
vertex -0.13795 -0.13795 -0.98079
endloop
endfacet
facet normal -0.019487362563614618 -0.09797484774406874 -0.9949980763347438
outer loop
vertex 0 0 -1
vertex 0 -0.19509 -0.98079
vertex -0.07466 -0.18024 -0.98079
endloop
endfacet
facet normal 0.019487362563614618 -0.09797484774406874 -0.9949980763347438
outer loop
vertex 0 0 -1
vertex 0.07466 -0.18024 -0.98079
vertex 0 -0.19509 -0.98079
endloop
endfacet
facet normal 0.05549884510842839 -0.08305797840890228 -0.9949981157842747
outer loop
vertex 0 0 -1
vertex 0.13795 -0.13795 -0.98079
vertex 0.07466 -0.18024 -0.98079
endloop
endfacet
facet normal 0.08305797840890307 -0.05549884510842913 -0.9949981157842747
outer loop
vertex 0 0 -1
vertex 0.18024 -0.07466 -0.98079
vertex 0.13795 -0.13795 -0.98079
endloop
endfacet
facet normal 0 1 0
outer loop
vertex 0.83147 0 0.55557
vertex 0.86117 0 0.5
vertex 0 0 0.5
endloop
endfacet
facet normal 0 1 0
outer loop
vertex 0.83147 0 0.55557
vertex 0 0 0.5
vertex 0 0 1
endloop
endfacet
facet normal 0 1 0
outer loop
vertex 0.83147 0 0.55557
vertex 0 0 1
vertex 0.19509 0 0.98079
endloop
endfacet
facet normal 0 1 0
outer loop
vertex 0.83147 0 0.55557
vertex 0.19509 0 0.98079
vertex 0.38268 0 0.92388
endloop
endfacet
facet normal 0 1 0
outer loop
vertex 0.83147 0 0.55557
vertex 0.38268 0 0.92388
vertex 0.55557 0 0.83147
endloop
endfacet
facet normal 0 1 0
outer loop
vertex 0.83147 0 0.55557
vertex 0.55557 0 0.83147
vertex 0.70711 0 0.70711
endloop
endfacet
facet normal 1 0 0
outer loop
vertex 0 0.70711 0.70711
vertex 0 0.55557 0.83147
vertex 0 0.5 0.86117
endloop
endfacet
facet normal 1 0 0
outer loop
vertex 0 0.70711 0.70711
vertex 0 0.5 0.86117
vertex 0 0.5 0.5
endloop
endfacet
facet normal 1 0 0
outer loop
vertex 0 0.70711 0.70711
vertex 0 0.5 0.5
vertex 0 0.5 0
endloop
endfacet
facet normal 1 0 0
outer loop
vertex 0 0.70711 0.70711
vertex 0 0.5 0
vertex 0 1 0
endloop
endfacet
facet normal 1 0 0
outer loop
vertex 0 0.70711 0.70711
vertex 0 1 0
vertex 0 0.98079 0.19509
endloop
endfacet
facet normal 1 0 0
outer loop
vertex 0 0.70711 0.70711
vertex 0 0.98079 0.19509
vertex 0 0.92388 0.38268
endloop
endfacet
facet normal 1 0 0
outer loop
vertex 0 0.70711 0.70711
vertex 0 0.92388 0.38268
vertex 0 0.83147 0.55557
endloop
endfacet
facet normal 0.9999999999999999 0 0
outer loop
vertex 0 0.5 0.86117
vertex 0 0.38268 0.92388
vertex 0 0.19509 0.98079
endloop
endfacet
facet normal 0.9999999999999999 0 0
outer loop
vertex 0 0.5 0.86117
vertex 0 0.19509 0.98079
vertex 0 0 1
endloop
endfacet
facet normal 1 0 0
outer loop
vertex 0 0.5 0.86117
vertex 0 0 1
vertex 0 0 0.5
endloop
endfacet
facet normal 1 0 0
outer loop
vertex 0 0.5 0.86117
vertex 0 0 0.5
vertex 0 0.5 0.5
endloop
endfacet
facet normal 1 0 0
outer loop
vertex 0 0.5 -0.5
vertex 0 0.5 0
vertex 0 0 0
endloop
endfacet
facet normal 1 0 0
outer loop
vertex 0 0.5 -0.5
vertex 0 0 0
vertex 0 0 -0.5
endloop
endfacet
facet normal 1 0 0
outer loop
vertex 0 0.5 0
vertex 0 0.5 0.5
vertex 0 0 0.5
endloop
endfacet
facet normal 1 0 0
outer loop
vertex 0 0.5 0
vertex 0 0 0.5
vertex 0 0 0
endloop
endfacet
facet normal 0 0 1
outer loop
vertex 0 1 0
vertex 0 0.5 0
vertex 0.84549 0.5 0
endloop
endfacet
facet normal 0 0 1
outer loop
vertex 0 1 0
vertex 0.84549 0.5 0
vertex 0.70711 0.70711 0
endloop
endfacet
facet normal 0 0 1
outer loop
vertex 0 1 0
vertex 0.70711 0.70711 0
vertex 0.38268 0.92388 0
endloop
endfacet
facet normal 0 -1 0
outer loop
vertex 0.68173 0.5 -0.5
vertex 0.7557 0.5 -0.38268
vertex 0.82283 0.5 -0.19509
endloop
endfacet
facet normal 0 -1 0
outer loop
vertex 0.68173 0.5 -0.5
vertex 0.82283 0.5 -0.19509
vertex 0.84549 0.5 0
endloop
endfacet
facet normal 0 -1 0
outer loop
vertex 0.68173 0.5 -0.5
vertex 0.84549 0.5 0
vertex 0 0.5 0
endloop
endfacet
facet normal 0 -1 0
outer loop
vertex 0.68173 0.5 -0.5
vertex 0 0.5 0
vertex 0 0.5 -0.5
endloop
endfacet
facet normal 0 0 0.9999999999999999
outer loop
vertex 0 0 -0.5
vertex 0.86117 0 -0.5
vertex 0.79562 0.32956 -0.5
endloop
endfacet
facet normal 0 0 1
outer loop
vertex 0 0 -0.5
vertex 0.79562 0.32956 -0.5
vertex 0.68173 0.5 -0.5
endloop
endfacet
facet normal 0 0 1
outer loop
vertex 0 0 -0.5
vertex 0.68173 0.5 -0.5
vertex 0 0.5 -0.5
endloop
endfacet
facet normal 0 1 0
outer loop
vertex 0.68173 -0.5 -0.5
vertex 0 -0.5 -0.5
vertex 0 -0.5 0.5
endloop
endfacet
facet normal 0 1 0
outer loop
vertex 0.68173 -0.5 -0.5
vertex 0 -0.5 0.5
vertex 0.68173 -0.5 0.5
endloop
endfacet
facet normal 0 1 0
outer loop
vertex 0.68173 -0.5 -0.5
vertex 0.68173 -0.5 0.5
vertex 0.7557 -0.5 0.38268
endloop
endfacet
facet normal 0 1 0
outer loop
vertex 0.68173 -0.5 -0.5
vertex 0.7557 -0.5 0.38268
vertex 0.82283 -0.5 0.19509
endloop
endfacet
facet normal 0 0.9999999999999999 0
outer loop
vertex 0.68173 -0.5 -0.5
vertex 0.82283 -0.5 0.19509
vertex 0.84549 -0.5 0
endloop
endfacet
facet normal 0 1 0
outer loop
vertex 0.68173 -0.5 -0.5
vertex 0.84549 -0.5 0
vertex 0.82283 -0.5 -0.19509
endloop
endfacet
facet normal 0 1 0
outer loop
vertex 0.68173 -0.5 -0.5
vertex 0.82283 -0.5 -0.19509
vertex 0.7557 -0.5 -0.38268
endloop
endfacet
facet normal 1 0 0
outer loop
vertex 0 0 0
vertex 0 0 0.5
vertex 0 -0.5 0.5
endloop
endfacet
facet normal 1 0 0
outer loop
vertex 0 0 0
vertex 0 -0.5 0.5
vertex 0 -0.5 -0.5
endloop
endfacet
facet normal 1 0 0
outer loop
vertex 0 0 0
vertex 0 -0.5 -0.5
vertex 0 0 -0.5
endloop
endfacet
facet normal 0 0 -1
outer loop
vertex 0.86117 0 0.5
vertex 0.79562 -0.32956 0.5
vertex 0.68173 -0.5 0.5
endloop
endfacet
facet normal 0 0 -1
outer loop
vertex 0.86117 0 0.5
vertex 0.68173 -0.5 0.5
vertex 0 -0.5 0.5
endloop
endfacet
facet normal 0 0 -1
outer loop
vertex 0.86117 0 0.5
vertex 0 -0.5 0.5
vertex 0 0 0.5
endloop
endfacet
facet normal 0 0 1
outer loop
vertex 0 0 -0.5
vertex 0 -0.5 -0.5
vertex 0.68173 -0.5 -0.5
endloop
endfacet
facet normal 0 0 1
outer loop
vertex 0 0 -0.5
vertex 0.68173 -0.5 -0.5
vertex 0.79562 -0.32956 -0.5
endloop
endfacet
facet normal 0 0 0.9999999999999999
outer loop
vertex 0 0 -0.5
vertex 0.79562 -0.32956 -0.5
vertex 0.86117 0 -0.5
endloop
endfacet
facet normal 0 -1 0
outer loop
vertex 0.86117 0 0.5
vertex 1 0 0.5
vertex 1 0 1
endloop
endfacet
facet normal 0 -1 0
outer loop
vertex 0.86117 0 0.5
vertex 1 0 1
vertex 0 0 1
endloop
endfacet
facet normal 0 -1 0
outer loop
vertex 0.86117 0 0.5
vertex 0 0 1
vertex 0 0 0.5
endloop
endfacet
facet normal -1 0 0
outer loop
vertex 0 0.5 0.5
vertex 0 0.5 1
vertex 0 1 1
endloop
endfacet
facet normal -1 0 0
outer loop
vertex 0 0.5 0.5
vertex 0 1 1
vertex 0 1 0
endloop
endfacet
facet normal -1 0 0
outer loop
vertex 0 0.5 0.5
vertex 0 1 0
vertex 0 0.5 0
endloop
endfacet
facet normal -1 0 0
outer loop
vertex 0 0.5 1
vertex 0 0.5 0.5
vertex 0 0 0.5
endloop
endfacet
facet normal -1 0 0
outer loop
vertex 0 0.5 1
vertex 0 0 0.5
vertex 0 0 1
endloop
endfacet
facet normal 0 1 0
outer loop
vertex 0 1 0
vertex 0 1 1
vertex 1 1 1
endloop
endfacet
facet normal 0 1 0
outer loop
vertex 0 1 0
vertex 1 1 1
vertex 1 1 0
endloop
endfacet
facet normal 1 0 0
outer loop
vertex 1 1 1
vertex 1 0.5 1
vertex 1 0.5 0.5
endloop
endfacet
facet normal 1 0 0
outer loop
vertex 1 1 1
vertex 1 0.5 0.5
vertex 1 0.5 0
endloop
endfacet
facet normal 1 0 0
outer loop
vertex 1 1 1
vertex 1 0.5 0
vertex 1 1 0
endloop
endfacet
facet normal 1 0 0
outer loop
vertex 1 0 1
vertex 1 0 0.5
vertex 1 0.5 0.5
endloop
endfacet
facet normal 1 0 0
outer loop
vertex 1 0 1
vertex 1 0.5 0.5
vertex 1 0.5 1
endloop
endfacet
facet normal 0 0 1
outer loop
vertex 0 1 1
vertex 0 0.5 1
vertex 1 0.5 1
endloop
endfacet
facet normal 0 0 1
outer loop
vertex 0 1 1
vertex 1 0.5 1
vertex 1 1 1
endloop
endfacet
facet normal 0 0 1
outer loop
vertex 0 0.5 1
vertex 0 0 1
vertex 1 0 1
endloop
endfacet
facet normal 0 0 1
outer loop
vertex 0 0.5 1
vertex 1 0 1
vertex 1 0.5 1
endloop
endfacet
facet normal 0 0 -1
outer loop
vertex 1 0.5 0
vertex 0 0.5 0
vertex 0 1 0
endloop
endfacet
facet normal 0 0 -1
outer loop
vertex 1 0.5 0
vertex 0 1 0
vertex 1 1 0
endloop
endfacet
facet normal 0 -1 0
outer loop
vertex 0.84549 0.5 0
vertex 1 0.5 0
vertex 1 0.5 0.5
endloop
endfacet
facet normal 0 -1 0
outer loop
vertex 0.84549 0.5 0
vertex 1 0.5 0.5
vertex 0 0.5 0.5
endloop
endfacet
facet normal 0 -1 0
outer loop
vertex 0.84549 0.5 0
vertex 0 0.5 0.5
vertex 0 0.5 0
endloop
endfacet
facet normal 0 0 -1
outer loop
vertex 0.86117 0 0.5
vertex 0 0 0.5
vertex 0 0.5 0.5
endloop
endfacet
facet normal 0 0 -1
outer loop
vertex 0.86117 0 0.5
vertex 0 0.5 0.5
vertex 1 0.5 0.5
endloop
endfacet
facet normal 0 0 -1
outer loop
vertex 0.86117 0 0.5
vertex 1 0.5 0.5
vertex 1 0 0.5
endloop
endfacet
facet normal 0 -1 0
outer loop
vertex 0.68173 -0.5 -0.5
vertex 1 -0.5 -0.5
vertex 1 -0.5 0.5
endloop
endfacet
facet normal 0 -1 0
outer loop
vertex 0.68173 -0.5 -0.5
vertex 1 -0.5 0.5
vertex 0.68173 -0.5 0.5
endloop
endfacet
facet normal 0 -1 0
outer loop
vertex 0.68173 -0.5 -0.5
vertex 0.68173 -0.5 0.5
vertex 0 -0.5 0.5
endloop
endfacet
facet normal 0 -1 0
outer loop
vertex 0.68173 -0.5 -0.5
vertex 0 -0.5 0.5
vertex 0 -0.5 -0.5
endloop
endfacet
facet normal -1 0 0
outer loop
vertex 0 0 -0.5
vertex 0 -0.5 -0.5
vertex 0 -0.5 0.5
endloop
endfacet
facet normal -1 0 0
outer loop
vertex 0 0 -0.5
vertex 0 -0.5 0.5
vertex 0 0 0.5
endloop
endfacet
facet normal -1 0 0
outer loop
vertex 0 0 -0.5
vertex 0 0 0.5
vertex 0 0.5 0.5
endloop
endfacet
facet normal -1 0 0
outer loop
vertex 0 0 -0.5
vertex 0 0.5 0.5
vertex 0 0.5 0
endloop
endfacet
facet normal -1 0 0
outer loop
vertex 0 0 -0.5
vertex 0 0.5 0
vertex 0 0.5 -0.5
endloop
endfacet
facet normal 0 1 0
outer loop
vertex 0.68173 0.5 -0.5
vertex 0 0.5 -0.5
vertex 0 0.5 0
endloop
endfacet
facet normal 0 1 0
outer loop
vertex 0.68173 0.5 -0.5
vertex 0 0.5 0
vertex 0 0.5 0.5
endloop
endfacet
facet normal 0 1 0
outer loop
vertex 0.68173 0.5 -0.5
vertex 0 0.5 0.5
vertex 1 0.5 0.5
endloop
endfacet
facet normal 0 1 0
outer loop
vertex 0.68173 0.5 -0.5
vertex 1 0.5 0.5
vertex 1 0.5 0
endloop
endfacet
facet normal 0 1 0
outer loop
vertex 0.68173 0.5 -0.5
vertex 1 0.5 0
vertex 1 0.5 -0.5
endloop
endfacet
facet normal 1 0 0
outer loop
vertex 1 0.5 -0.5
vertex 1 0.5 0.5
vertex 1 0 0.5
endloop
endfacet
facet normal 1 0 0
outer loop
vertex 1 0.5 -0.5
vertex 1 0 0.5
vertex 1 -0.5 0.5
endloop
endfacet
facet normal 1 0 0
outer loop
vertex 1 0.5 -0.5
vertex 1 -0.5 0.5
vertex 1 -0.5 -0.5
endloop
endfacet
facet normal 0 0 1
outer loop
vertex 1 0 0.5
vertex 1 0.5 0.5
vertex 0 0.5 0.5
endloop
endfacet
facet normal 0 0 1
outer loop
vertex 1 0 0.5
vertex 0 0.5 0.5
vertex 0 0 0.5
endloop
endfacet
facet normal 0 0 1
outer loop
vertex 1 0 0.5
vertex 0 0 0.5
vertex 0 -0.5 0.5
endloop
endfacet
facet normal 0 0 1
outer loop
vertex 1 0 0.5
vertex 0 -0.5 0.5
vertex 0.68173 -0.5 0.5
endloop
endfacet
facet normal 0 0 1
outer loop
vertex 1 0 0.5
vertex 0.68173 -0.5 0.5
vertex 1 -0.5 0.5
endloop
endfacet
facet normal 0 0 -1
outer loop
vertex 1 -0.5 -0.5
vertex 0 -0.5 -0.5
vertex 0 0 -0.5
endloop
endfacet
facet normal 0 0 -1
outer loop
vertex 1 -0.5 -0.5
vertex 0 0 -0.5
vertex 0 0.5 -0.5
endloop
endfacet
facet normal 0 0 -1
outer loop
vertex 1 -0.5 -0.5
vertex 0 0.5 -0.5
vertex 0.68173 0.5 -0.5
endloop
endfacet
facet normal 0 0 -1
outer loop
vertex 1 -0.5 -0.5
vertex 0.68173 0.5 -0.5
vertex 1 0.5 -0.5
endloop
endfacet
endsolid JSxCAD
