solid JSxCAD
facet normal 0.9569403609049869 -0.2902845942709214 0
outer loop
vertex 4.90393 -0.97545 -15
vertex 4.90393 -0.97545 15
vertex 4.6194 -1.91342 -15
endloop
endfacet
facet normal 0.9569403609049869 -0.2902845942709214 0
outer loop
vertex 4.6194 -1.91342 -15
vertex 4.90393 -0.97545 15
vertex 4.6194 -1.91342 15
endloop
endfacet
facet normal 0.8819201875442229 -0.4713987513792995 0
outer loop
vertex 4.6194 -1.91342 -15
vertex 4.6194 -1.91342 15
vertex 4.15735 -2.77785 -15
endloop
endfacet
facet normal 0.8819201875442229 -0.4713987513792995 0
outer loop
vertex 4.15735 -2.77785 -15
vertex 4.6194 -1.91342 15
vertex 4.15735 -2.77785 15
endloop
endfacet
facet normal 0.7730064039365384 -0.6343982183716322 0
outer loop
vertex 4.15735 -2.77785 -15
vertex 4.15735 -2.77785 15
vertex 3.53553 -3.53553 -15
endloop
endfacet
facet normal 0.7730064039365384 -0.6343982183716322 0
outer loop
vertex 3.53553 -3.53553 -15
vertex 4.15735 -2.77785 15
vertex 3.53553 -3.53553 15
endloop
endfacet
facet normal 0.6343982183716322 -0.7730064039365384 0
outer loop
vertex 3.53553 -3.53553 -15
vertex 3.53553 -3.53553 15
vertex 2.77785 -4.15735 -15
endloop
endfacet
facet normal 0.6343982183716322 -0.7730064039365384 0
outer loop
vertex 2.77785 -4.15735 -15
vertex 3.53553 -3.53553 15
vertex 2.77785 -4.15735 15
endloop
endfacet
facet normal 0.4713987513792995 -0.8819201875442229 0
outer loop
vertex 2.77785 -4.15735 -15
vertex 2.77785 -4.15735 15
vertex 1.91342 -4.6194 -15
endloop
endfacet
facet normal 0.4713987513792995 -0.8819201875442229 0
outer loop
vertex 1.91342 -4.6194 -15
vertex 2.77785 -4.15735 15
vertex 1.91342 -4.6194 15
endloop
endfacet
facet normal 0.2902845942709214 -0.9569403609049869 0
outer loop
vertex 1.91342 -4.6194 -15
vertex 1.91342 -4.6194 15
vertex 0.97545 -4.90393 -15
endloop
endfacet
facet normal 0.2902845942709214 -0.9569403609049869 0
outer loop
vertex 0.97545 -4.90393 -15
vertex 1.91342 -4.6194 15
vertex 0.97545 -4.90393 15
endloop
endfacet
facet normal 0.09801366505113956 -0.9951850689511188 0
outer loop
vertex 0.97545 -4.90393 -15
vertex 0.97545 -4.90393 15
vertex 0 -5 -15
endloop
endfacet
facet normal 0.09801366505113956 -0.9951850689511188 0
outer loop
vertex 0 -5 -15
vertex 0.97545 -4.90393 15
vertex 0 -5 15
endloop
endfacet
facet normal -0.09801366505113956 -0.9951850689511188 0
outer loop
vertex 0 -5 -15
vertex 0 -5 15
vertex -0.97545 -4.90393 -15
endloop
endfacet
facet normal -0.09801366505113956 -0.9951850689511188 0
outer loop
vertex -0.97545 -4.90393 -15
vertex 0 -5 15
vertex -0.97545 -4.90393 15
endloop
endfacet
facet normal -0.2902845942709214 -0.9569403609049869 0
outer loop
vertex -0.97545 -4.90393 -15
vertex -0.97545 -4.90393 15
vertex -1.91342 -4.6194 -15
endloop
endfacet
facet normal -0.2902845942709214 -0.9569403609049869 0
outer loop
vertex -1.91342 -4.6194 -15
vertex -0.97545 -4.90393 15
vertex -1.91342 -4.6194 15
endloop
endfacet
facet normal -0.4713987513792995 -0.8819201875442229 0
outer loop
vertex -1.91342 -4.6194 -15
vertex -1.91342 -4.6194 15
vertex -2.77785 -4.15735 -15
endloop
endfacet
facet normal -0.4713987513792995 -0.8819201875442229 0
outer loop
vertex -2.77785 -4.15735 -15
vertex -1.91342 -4.6194 15
vertex -2.77785 -4.15735 15
endloop
endfacet
facet normal -0.6343982183716322 -0.7730064039365384 0
outer loop
vertex -2.77785 -4.15735 -15
vertex -2.77785 -4.15735 15
vertex -3.53553 -3.53553 -15
endloop
endfacet
facet normal -0.6343982183716322 -0.7730064039365384 0
outer loop
vertex -3.53553 -3.53553 -15
vertex -2.77785 -4.15735 15
vertex -3.53553 -3.53553 15
endloop
endfacet
facet normal -0.7730064039365384 -0.6343982183716322 0
outer loop
vertex -3.53553 -3.53553 -15
vertex -3.53553 -3.53553 15
vertex -4.15735 -2.77785 -15
endloop
endfacet
facet normal -0.7730064039365384 -0.6343982183716322 0
outer loop
vertex -4.15735 -2.77785 -15
vertex -3.53553 -3.53553 15
vertex -4.15735 -2.77785 15
endloop
endfacet
facet normal -0.8819201875442229 -0.4713987513792995 0
outer loop
vertex -4.15735 -2.77785 -15
vertex -4.15735 -2.77785 15
vertex -4.6194 -1.91342 -15
endloop
endfacet
facet normal -0.8819201875442229 -0.4713987513792995 0
outer loop
vertex -4.6194 -1.91342 -15
vertex -4.15735 -2.77785 15
vertex -4.6194 -1.91342 15
endloop
endfacet
facet normal -0.9569403609049869 -0.2902845942709214 0
outer loop
vertex -4.6194 -1.91342 -15
vertex -4.6194 -1.91342 15
vertex -4.90393 -0.97545 -15
endloop
endfacet
facet normal -0.9569403609049869 -0.2902845942709214 0
outer loop
vertex -4.90393 -0.97545 -15
vertex -4.6194 -1.91342 15
vertex -4.90393 -0.97545 15
endloop
endfacet
facet normal -0.9951850689511188 -0.09801366505113956 0
outer loop
vertex -4.90393 -0.97545 -15
vertex -4.90393 -0.97545 15
vertex -5 0 -15
endloop
endfacet
facet normal -0.9951850689511188 -0.09801366505113956 0
outer loop
vertex -5 0 -15
vertex -4.90393 -0.97545 15
vertex -5 0 15
endloop
endfacet
facet normal -0.9951850689511188 0.09801366505113956 0
outer loop
vertex -5 0 -15
vertex -5 0 15
vertex -4.90393 0.97545 -15
endloop
endfacet
facet normal -0.9951850689511188 0.09801366505113956 0
outer loop
vertex -4.90393 0.97545 -15
vertex -5 0 15
vertex -4.90393 0.97545 15
endloop
endfacet
facet normal -0.9569403609049869 0.2902845942709214 0
outer loop
vertex -4.90393 0.97545 -15
vertex -4.90393 0.97545 15
vertex -4.6194 1.91342 -15
endloop
endfacet
facet normal -0.9569403609049869 0.2902845942709214 0
outer loop
vertex -4.6194 1.91342 -15
vertex -4.90393 0.97545 15
vertex -4.6194 1.91342 15
endloop
endfacet
facet normal -0.8819201875442229 0.4713987513792995 0
outer loop
vertex -4.6194 1.91342 -15
vertex -4.6194 1.91342 15
vertex -4.15735 2.77785 -15
endloop
endfacet
facet normal -0.8819201875442229 0.4713987513792995 0
outer loop
vertex -4.15735 2.77785 -15
vertex -4.6194 1.91342 15
vertex -4.15735 2.77785 15
endloop
endfacet
facet normal -0.7730064039365384 0.6343982183716322 0
outer loop
vertex -4.15735 2.77785 -15
vertex -4.15735 2.77785 15
vertex -3.53553 3.53553 -15
endloop
endfacet
facet normal -0.7730064039365384 0.6343982183716322 0
outer loop
vertex -3.53553 3.53553 -15
vertex -4.15735 2.77785 15
vertex -3.53553 3.53553 15
endloop
endfacet
facet normal -0.6343982183716322 0.7730064039365384 0
outer loop
vertex -3.53553 3.53553 -15
vertex -3.53553 3.53553 15
vertex -2.77785 4.15735 -15
endloop
endfacet
facet normal -0.6343982183716322 0.7730064039365384 0
outer loop
vertex -2.77785 4.15735 -15
vertex -3.53553 3.53553 15
vertex -2.77785 4.15735 15
endloop
endfacet
facet normal -0.4713987513792995 0.8819201875442229 0
outer loop
vertex -2.77785 4.15735 -15
vertex -2.77785 4.15735 15
vertex -1.91342 4.6194 -15
endloop
endfacet
facet normal -0.4713987513792995 0.8819201875442229 0
outer loop
vertex -1.91342 4.6194 -15
vertex -2.77785 4.15735 15
vertex -1.91342 4.6194 15
endloop
endfacet
facet normal -0.2902845942709214 0.9569403609049869 0
outer loop
vertex -1.91342 4.6194 -15
vertex -1.91342 4.6194 15
vertex -0.97545 4.90393 -15
endloop
endfacet
facet normal -0.2902845942709214 0.9569403609049869 0
outer loop
vertex -0.97545 4.90393 -15
vertex -1.91342 4.6194 15
vertex -0.97545 4.90393 15
endloop
endfacet
facet normal -0.09801366505113956 0.9951850689511188 0
outer loop
vertex -0.97545 4.90393 -15
vertex -0.97545 4.90393 15
vertex 0 5 -15
endloop
endfacet
facet normal -0.09801366505113956 0.9951850689511188 0
outer loop
vertex 0 5 -15
vertex -0.97545 4.90393 15
vertex 0 5 15
endloop
endfacet
facet normal 0.09801366505113956 0.9951850689511188 0
outer loop
vertex 0 5 -15
vertex 0 5 15
vertex 0.97545 4.90393 -15
endloop
endfacet
facet normal 0.09801366505113956 0.9951850689511188 0
outer loop
vertex 0.97545 4.90393 -15
vertex 0 5 15
vertex 0.97545 4.90393 15
endloop
endfacet
facet normal 0.2902845942709214 0.9569403609049869 0
outer loop
vertex 0.97545 4.90393 -15
vertex 0.97545 4.90393 15
vertex 1.91342 4.6194 -15
endloop
endfacet
facet normal 0.2902845942709214 0.9569403609049869 0
outer loop
vertex 1.91342 4.6194 -15
vertex 0.97545 4.90393 15
vertex 1.91342 4.6194 15
endloop
endfacet
facet normal 0.4713987513792995 0.8819201875442229 0
outer loop
vertex 1.91342 4.6194 -15
vertex 1.91342 4.6194 15
vertex 2.77785 4.15735 -15
endloop
endfacet
facet normal 0.4713987513792995 0.8819201875442229 0
outer loop
vertex 2.77785 4.15735 -15
vertex 1.91342 4.6194 15
vertex 2.77785 4.15735 15
endloop
endfacet
facet normal 0.6343982183716322 0.7730064039365384 0
outer loop
vertex 2.77785 4.15735 -15
vertex 2.77785 4.15735 15
vertex 3.53553 3.53553 -15
endloop
endfacet
facet normal 0.6343982183716322 0.7730064039365384 0
outer loop
vertex 3.53553 3.53553 -15
vertex 2.77785 4.15735 15
vertex 3.53553 3.53553 15
endloop
endfacet
facet normal 0.7730064039365384 0.6343982183716322 0
outer loop
vertex 3.53553 3.53553 -15
vertex 3.53553 3.53553 15
vertex 4.15735 2.77785 -15
endloop
endfacet
facet normal 0.7730064039365384 0.6343982183716322 0
outer loop
vertex 4.15735 2.77785 -15
vertex 3.53553 3.53553 15
vertex 4.15735 2.77785 15
endloop
endfacet
facet normal 0.8819201875442229 0.4713987513792995 0
outer loop
vertex 4.15735 2.77785 -15
vertex 4.15735 2.77785 15
vertex 4.6194 1.91342 -15
endloop
endfacet
facet normal 0.8819201875442229 0.4713987513792995 0
outer loop
vertex 4.6194 1.91342 -15
vertex 4.15735 2.77785 15
vertex 4.6194 1.91342 15
endloop
endfacet
facet normal 0.9569403609049869 0.2902845942709214 0
outer loop
vertex 4.6194 1.91342 -15
vertex 4.6194 1.91342 15
vertex 4.90393 0.97545 -15
endloop
endfacet
facet normal 0.9569403609049869 0.2902845942709214 0
outer loop
vertex 4.90393 0.97545 -15
vertex 4.6194 1.91342 15
vertex 4.90393 0.97545 15
endloop
endfacet
facet normal 0.9951850689511188 0.09801366505113956 0
outer loop
vertex 4.90393 0.97545 -15
vertex 4.90393 0.97545 15
vertex 5 0 -15
endloop
endfacet
facet normal 0.9951850689511188 0.09801366505113956 0
outer loop
vertex 5 0 -15
vertex 4.90393 0.97545 15
vertex 5 0 15
endloop
endfacet
facet normal 0.9951850689511188 -0.09801366505113956 0
outer loop
vertex 5 0 -15
vertex 5 0 15
vertex 4.90393 -0.97545 -15
endloop
endfacet
facet normal 0.9951850689511188 -0.09801366505113956 0
outer loop
vertex 4.90393 -0.97545 -15
vertex 5 0 15
vertex 4.90393 -0.97545 15
endloop
endfacet
facet normal 0 0 1
outer loop
vertex 4.90393 0.97545 15
vertex 4.90393 -0.97545 15
vertex 5 0 15
endloop
endfacet
facet normal 0 0 1
outer loop
vertex 4.6194 1.91342 15
vertex 4.90393 -0.97545 15
vertex 4.90393 0.97545 15
endloop
endfacet
facet normal 0 0 1
outer loop
vertex 4.6194 1.91342 15
vertex 4.6194 -1.91342 15
vertex 4.90393 -0.97545 15
endloop
endfacet
facet normal 0 0 1
outer loop
vertex 4.15735 2.77785 15
vertex 4.6194 -1.91342 15
vertex 4.6194 1.91342 15
endloop
endfacet
facet normal 0 0 1
outer loop
vertex 4.15735 2.77785 15
vertex 4.15735 -2.77785 15
vertex 4.6194 -1.91342 15
endloop
endfacet
facet normal 0 0 1
outer loop
vertex 3.53553 3.53553 15
vertex 4.15735 -2.77785 15
vertex 4.15735 2.77785 15
endloop
endfacet
facet normal 0 0 1
outer loop
vertex 3.53553 3.53553 15
vertex 3.53553 -3.53553 15
vertex 4.15735 -2.77785 15
endloop
endfacet
facet normal 0 0 1
outer loop
vertex 2.77785 4.15735 15
vertex 3.53553 -3.53553 15
vertex 3.53553 3.53553 15
endloop
endfacet
facet normal 0 0 1
outer loop
vertex 2.77785 4.15735 15
vertex 2.77785 -4.15735 15
vertex 3.53553 -3.53553 15
endloop
endfacet
facet normal 0 0 1
outer loop
vertex 2.77785 4.15735 15
vertex 1.91342 -4.6194 15
vertex 2.77785 -4.15735 15
endloop
endfacet
facet normal 0 0 1
outer loop
vertex 1.91342 4.6194 15
vertex 1.91342 -4.6194 15
vertex 2.77785 4.15735 15
endloop
endfacet
facet normal 0 0 1
outer loop
vertex 0.97545 4.90393 15
vertex 1.91342 -4.6194 15
vertex 1.91342 4.6194 15
endloop
endfacet
facet normal 0 0 1
outer loop
vertex 0.97545 4.90393 15
vertex 0.97545 -4.90393 15
vertex 1.91342 -4.6194 15
endloop
endfacet
facet normal 0 0 1
outer loop
vertex 0 5 15
vertex 0.97545 -4.90393 15
vertex 0.97545 4.90393 15
endloop
endfacet
facet normal 0 0 1
outer loop
vertex 0 5 15
vertex 0 -5 15
vertex 0.97545 -4.90393 15
endloop
endfacet
facet normal 0 0 1
outer loop
vertex -0.97545 4.90393 15
vertex 0 -5 15
vertex 0 5 15
endloop
endfacet
facet normal 0 0 1
outer loop
vertex -0.97545 4.90393 15
vertex -0.97545 -4.90393 15
vertex 0 -5 15
endloop
endfacet
facet normal 0 0 1
outer loop
vertex -1.91342 4.6194 15
vertex -0.97545 -4.90393 15
vertex -0.97545 4.90393 15
endloop
endfacet
facet normal 0 0 1
outer loop
vertex -1.91342 4.6194 15
vertex -1.91342 -4.6194 15
vertex -0.97545 -4.90393 15
endloop
endfacet
facet normal 0 0 1
outer loop
vertex -2.77785 4.15735 15
vertex -1.91342 -4.6194 15
vertex -1.91342 4.6194 15
endloop
endfacet
facet normal 0 0 1
outer loop
vertex -2.77785 4.15735 15
vertex -2.77785 -4.15735 15
vertex -1.91342 -4.6194 15
endloop
endfacet
facet normal 0 0 1
outer loop
vertex -3.53553 3.53553 15
vertex -2.77785 -4.15735 15
vertex -2.77785 4.15735 15
endloop
endfacet
facet normal 0 0 1
outer loop
vertex -3.53553 3.53553 15
vertex -3.53553 -3.53553 15
vertex -2.77785 -4.15735 15
endloop
endfacet
facet normal 0 0 1
outer loop
vertex -4.15735 2.77785 15
vertex -3.53553 -3.53553 15
vertex -3.53553 3.53553 15
endloop
endfacet
facet normal 0 0 1
outer loop
vertex -4.15735 2.77785 15
vertex -4.15735 -2.77785 15
vertex -3.53553 -3.53553 15
endloop
endfacet
facet normal 0 0 1
outer loop
vertex -4.6194 1.91342 15
vertex -4.15735 -2.77785 15
vertex -4.15735 2.77785 15
endloop
endfacet
facet normal 0 0 1
outer loop
vertex -4.6194 1.91342 15
vertex -4.6194 -1.91342 15
vertex -4.15735 -2.77785 15
endloop
endfacet
facet normal 0 0 1
outer loop
vertex -4.90393 0.97545 15
vertex -4.6194 -1.91342 15
vertex -4.6194 1.91342 15
endloop
endfacet
facet normal 0 0 1
outer loop
vertex -4.90393 0.97545 15
vertex -4.90393 -0.97545 15
vertex -4.6194 -1.91342 15
endloop
endfacet
facet normal 0 0 1
outer loop
vertex -4.90393 -0.97545 15
vertex -4.90393 0.97545 15
vertex -5 0 15
endloop
endfacet
facet normal 0 0 -1
outer loop
vertex 5 0 -15
vertex 4.90393 -0.97545 -15
vertex 4.90393 0.97545 -15
endloop
endfacet
facet normal 0 0 -1
outer loop
vertex 4.90393 0.97545 -15
vertex 4.90393 -0.97545 -15
vertex 4.6194 1.91342 -15
endloop
endfacet
facet normal 0 0 -1
outer loop
vertex 4.90393 -0.97545 -15
vertex 4.6194 -1.91342 -15
vertex 4.6194 1.91342 -15
endloop
endfacet
facet normal 0 0 -1
outer loop
vertex 4.6194 1.91342 -15
vertex 4.6194 -1.91342 -15
vertex 4.15735 2.77785 -15
endloop
endfacet
facet normal 0 0 -1
outer loop
vertex 4.6194 -1.91342 -15
vertex 4.15735 -2.77785 -15
vertex 4.15735 2.77785 -15
endloop
endfacet
facet normal 0 0 -1
outer loop
vertex 4.15735 2.77785 -15
vertex 4.15735 -2.77785 -15
vertex 3.53553 3.53553 -15
endloop
endfacet
facet normal 0 0 -1
outer loop
vertex 4.15735 -2.77785 -15
vertex 3.53553 -3.53553 -15
vertex 3.53553 3.53553 -15
endloop
endfacet
facet normal 0 0 -1
outer loop
vertex 3.53553 3.53553 -15
vertex 3.53553 -3.53553 -15
vertex 2.77785 4.15735 -15
endloop
endfacet
facet normal 0 0 -1
outer loop
vertex 3.53553 -3.53553 -15
vertex 2.77785 -4.15735 -15
vertex 2.77785 4.15735 -15
endloop
endfacet
facet normal 0 0 -1
outer loop
vertex 2.77785 -4.15735 -15
vertex 1.91342 -4.6194 -15
vertex 2.77785 4.15735 -15
endloop
endfacet
facet normal 0 0 -1
outer loop
vertex 2.77785 4.15735 -15
vertex 1.91342 -4.6194 -15
vertex 1.91342 4.6194 -15
endloop
endfacet
facet normal 0 0 -1
outer loop
vertex 1.91342 4.6194 -15
vertex 1.91342 -4.6194 -15
vertex 0.97545 4.90393 -15
endloop
endfacet
facet normal 0 0 -1
outer loop
vertex 1.91342 -4.6194 -15
vertex 0.97545 -4.90393 -15
vertex 0.97545 4.90393 -15
endloop
endfacet
facet normal 0 0 -1
outer loop
vertex 0.97545 4.90393 -15
vertex 0.97545 -4.90393 -15
vertex 0 5 -15
endloop
endfacet
facet normal 0 0 -1
outer loop
vertex 0.97545 -4.90393 -15
vertex 0 -5 -15
vertex 0 5 -15
endloop
endfacet
facet normal 0 0 -1
outer loop
vertex 0 5 -15
vertex 0 -5 -15
vertex -0.97545 4.90393 -15
endloop
endfacet
facet normal 0 0 -1
outer loop
vertex 0 -5 -15
vertex -0.97545 -4.90393 -15
vertex -0.97545 4.90393 -15
endloop
endfacet
facet normal 0 0 -1
outer loop
vertex -0.97545 4.90393 -15
vertex -0.97545 -4.90393 -15
vertex -1.91342 4.6194 -15
endloop
endfacet
facet normal 0 0 -1
outer loop
vertex -0.97545 -4.90393 -15
vertex -1.91342 -4.6194 -15
vertex -1.91342 4.6194 -15
endloop
endfacet
facet normal 0 0 -1
outer loop
vertex -1.91342 4.6194 -15
vertex -1.91342 -4.6194 -15
vertex -2.77785 4.15735 -15
endloop
endfacet
facet normal 0 0 -1
outer loop
vertex -1.91342 -4.6194 -15
vertex -2.77785 -4.15735 -15
vertex -2.77785 4.15735 -15
endloop
endfacet
facet normal 0 0 -1
outer loop
vertex -2.77785 4.15735 -15
vertex -2.77785 -4.15735 -15
vertex -3.53553 3.53553 -15
endloop
endfacet
facet normal 0 0 -1
outer loop
vertex -2.77785 -4.15735 -15
vertex -3.53553 -3.53553 -15
vertex -3.53553 3.53553 -15
endloop
endfacet
facet normal 0 0 -1
outer loop
vertex -3.53553 3.53553 -15
vertex -3.53553 -3.53553 -15
vertex -4.15735 2.77785 -15
endloop
endfacet
facet normal 0 0 -1
outer loop
vertex -3.53553 -3.53553 -15
vertex -4.15735 -2.77785 -15
vertex -4.15735 2.77785 -15
endloop
endfacet
facet normal 0 0 -1
outer loop
vertex -4.15735 2.77785 -15
vertex -4.15735 -2.77785 -15
vertex -4.6194 1.91342 -15
endloop
endfacet
facet normal 0 0 -1
outer loop
vertex -4.15735 -2.77785 -15
vertex -4.6194 -1.91342 -15
vertex -4.6194 1.91342 -15
endloop
endfacet
facet normal 0 0 -1
outer loop
vertex -4.6194 1.91342 -15
vertex -4.6194 -1.91342 -15
vertex -4.90393 0.97545 -15
endloop
endfacet
facet normal 0 0 -1
outer loop
vertex -4.6194 -1.91342 -15
vertex -4.90393 -0.97545 -15
vertex -4.90393 0.97545 -15
endloop
endfacet
facet normal 0 0 -1
outer loop
vertex -5 0 -15
vertex -4.90393 0.97545 -15
vertex -4.90393 -0.97545 -15
endloop
endfacet
endsolid JSxCAD
