solid JSxCAD
facet normal 0 0 1
outer loop
vertex 5.15399 1.56344 15
vertex 5 0 15
vertex 4.90393 -0.97545 15
endloop
endfacet
facet normal 0 0 1
outer loop
vertex 5.15399 1.56344 15
vertex 4.90393 -0.97545 15
vertex 4.5517 -4.5517 15
endloop
endfacet
facet normal 0 0 1
outer loop
vertex 5.15399 1.56344 15
vertex 4.5517 -4.5517 15
vertex 15 -15 15
endloop
endfacet
facet normal 0 0 1
outer loop
vertex 5.15399 1.56344 15
vertex 15 -15 15
vertex 15 15 15
endloop
endfacet
facet normal 0 0 1
outer loop
vertex 5.15399 1.56344 15
vertex 15 15 15
vertex 6.47737 15 15
endloop
endfacet
facet normal 0 0 1
outer loop
vertex 4.5517 -4.5517 15
vertex 3.52263 -15 15
vertex 15 -15 15
endloop
endfacet
facet normal 0 0 -1
outer loop
vertex 4.80401 -1.98989 15
vertex 4.47435 -2.39159 15
vertex 4.15735 -2.77785 15
endloop
endfacet
facet normal 0 0 -1
outer loop
vertex 4.80401 -1.98989 15
vertex 4.15735 -2.77785 15
vertex 3.53553 -3.53553 15
endloop
endfacet
facet normal 0 0 1
outer loop
vertex 4.80401 -1.98989 15
vertex 3.53553 -3.53553 15
vertex 4.5517 -4.5517 15
endloop
endfacet
facet normal 0 0 -1
outer loop
vertex 3.53553 -3.53553 15
vertex 2.88887 -4.3235 15
vertex -5.87311 -15 15
endloop
endfacet
facet normal 0 0 1
outer loop
vertex 3.53553 -3.53553 15
vertex -5.87311 -15 15
vertex 3.52263 -15 15
endloop
endfacet
facet normal 0 0 1
outer loop
vertex 3.53553 -3.53553 15
vertex 3.52263 -15 15
vertex 4.5517 -4.5517 15
endloop
endfacet
facet normal 0 0 1
outer loop
vertex 0.49728 -5.04898 15
vertex 0 -5 15
vertex -0.97545 -4.90393 15
endloop
endfacet
facet normal 0 0 -1
outer loop
vertex 0.49728 -5.04898 15
vertex -0.97545 -4.90393 15
vertex -15 -3.52263 15
endloop
endfacet
facet normal 0 0 1
outer loop
vertex 0.49728 -5.04898 15
vertex -15 -3.52263 15
vertex -15 -15 15
endloop
endfacet
facet normal 0 0 1
outer loop
vertex 0.49728 -5.04898 15
vertex -15 -15 15
vertex -5.87311 -15 15
endloop
endfacet
facet normal 0 0 1
outer loop
vertex 0.49728 -5.04898 15
vertex -5.87311 -15 15
vertex 2.15915 -5.21266 15
endloop
endfacet
facet normal 0 0 1
outer loop
vertex -2.77785 -4.15735 15
vertex -3.53553 -3.53553 15
vertex -4.74994 -2.5389 15
endloop
endfacet
facet normal 0 0 -1
outer loop
vertex -2.77785 -4.15735 15
vertex -4.74994 -2.5389 15
vertex -15 5.87311 15
endloop
endfacet
facet normal 0 0 1
outer loop
vertex -2.77785 -4.15735 15
vertex -15 5.87311 15
vertex -15 -3.52263 15
endloop
endfacet
facet normal 0 0 1
outer loop
vertex -2.77785 -4.15735 15
vertex -15 -3.52263 15
vertex -1.98989 -4.80401 15
endloop
endfacet
facet normal 0 0 1
outer loop
vertex 4.90393 -0.97545 15
vertex 4.47435 -2.39159 15
vertex 4.80401 -1.98989 15
endloop
endfacet
facet normal 0 0 -1
outer loop
vertex 1.91342 -4.6194 15
vertex 0.97545 -4.90393 15
vertex 0.49728 -5.04898 15
endloop
endfacet
facet normal 0 0 1
outer loop
vertex 1.91342 -4.6194 15
vertex 0.49728 -5.04898 15
vertex 2.15915 -5.21266 15
endloop
endfacet
facet normal 0 0 1
outer loop
vertex 1.91342 -4.6194 15
vertex 2.15915 -5.21266 15
vertex 2.88887 -4.3235 15
endloop
endfacet
facet normal 0 0 1
outer loop
vertex 0.97545 -4.90393 15
vertex 0 -5 15
vertex 0.49728 -5.04898 15
endloop
endfacet
facet normal 0 0 1
outer loop
vertex -1.91342 -4.6194 15
vertex -2.39159 -4.47435 15
vertex -1.98989 -4.80401 15
endloop
endfacet
facet normal 0 0 1
outer loop
vertex -1.91342 -4.6194 15
vertex -1.98989 -4.80401 15
vertex -0.97545 -4.90393 15
endloop
endfacet
facet normal 0 0 1
outer loop
vertex -6.47737 15 15
vertex -15 15 15
vertex -5.54626 5.54626 15
endloop
endfacet
facet normal 0 0 1
outer loop
vertex -4.90393 -0.97545 15
vertex -5 0 15
vertex -5.54626 5.54626 15
endloop
endfacet
facet normal 0 0 1
outer loop
vertex -4.90393 -0.97545 15
vertex -5.54626 5.54626 15
vertex -15 15 15
endloop
endfacet
facet normal 0 0 1
outer loop
vertex -4.90393 -0.97545 15
vertex -15 15 15
vertex -15 5.87311 15
endloop
endfacet
facet normal 0 0 1
outer loop
vertex -4.90393 -0.97545 15
vertex -15 5.87311 15
vertex -4.74994 -2.5389 15
endloop
endfacet
facet normal 0 0 1
outer loop
vertex -3.52263 15 15
vertex -6.47737 15 15
vertex -5.54626 5.54626 15
endloop
endfacet
facet normal 0 0 1
outer loop
vertex -3.52263 15 15
vertex -5.54626 5.54626 15
vertex -4.5517 4.5517 15
endloop
endfacet
facet normal 0 0 1
outer loop
vertex -4.90393 0.97545 15
vertex -4.80401 1.98989 15
vertex -4.5517 4.5517 15
endloop
endfacet
facet normal 0 0 1
outer loop
vertex -4.90393 0.97545 15
vertex -4.5517 4.5517 15
vertex -5.54626 5.54626 15
endloop
endfacet
facet normal 0 0 1
outer loop
vertex -4.90393 0.97545 15
vertex -5.54626 5.54626 15
vertex -5 0 15
endloop
endfacet
facet normal 0 0 -1
outer loop
vertex -4.15735 -2.77785 15
vertex -4.47435 -2.39159 15
vertex -4.80401 -1.98989 15
endloop
endfacet
facet normal 0 0 1
outer loop
vertex -4.15735 -2.77785 15
vertex -4.80401 -1.98989 15
vertex -4.74994 -2.5389 15
endloop
endfacet
facet normal 0 0 1
outer loop
vertex -4.15735 -2.77785 15
vertex -4.74994 -2.5389 15
vertex -3.53553 -3.53553 15
endloop
endfacet
facet normal 0 0 1
outer loop
vertex -4.5517 4.5517 15
vertex -3.53553 3.53553 15
vertex 5.87311 15 15
endloop
endfacet
facet normal 0 0 1
outer loop
vertex -4.5517 4.5517 15
vertex 5.87311 15 15
vertex -3.52263 15 15
endloop
endfacet
facet normal 0 0 -1
outer loop
vertex -4.80401 1.98989 15
vertex -4.15735 2.77785 15
vertex -3.53553 3.53553 15
endloop
endfacet
facet normal 0 0 1
outer loop
vertex -4.80401 1.98989 15
vertex -3.53553 3.53553 15
vertex -4.5517 4.5517 15
endloop
endfacet
facet normal 0 0 -1
outer loop
vertex 1.10073 5.53373 15
vertex 2.77785 4.15735 15
vertex 3.53553 3.53553 15
endloop
endfacet
facet normal 0 0 1
outer loop
vertex 1.10073 5.53373 15
vertex 3.53553 3.53553 15
vertex 5.21266 2.15915 15
endloop
endfacet
facet normal 0 0 1
outer loop
vertex 1.10073 5.53373 15
vertex 5.21266 2.15915 15
vertex 6.47737 15 15
endloop
endfacet
facet normal 0 0 1
outer loop
vertex 1.10073 5.53373 15
vertex 6.47737 15 15
vertex 5.87311 15 15
endloop
endfacet
facet normal 0 0 1
outer loop
vertex 1.10073 5.53373 15
vertex 5.87311 15 15
vertex -0.68975 7.00313 15
endloop
endfacet
facet normal 0 0 1
outer loop
vertex 5.15399 1.56344 15
vertex 5.21266 2.15915 15
vertex 3.53553 3.53553 15
endloop
endfacet
facet normal 0 0 1
outer loop
vertex -0.97545 4.90393 15
vertex 1.10073 5.53373 15
vertex -0.68975 7.00313 15
endloop
endfacet
facet normal 0 0 1
outer loop
vertex -0.97545 4.90393 15
vertex -0.68975 7.00313 15
vertex -2.88887 4.3235 15
endloop
endfacet
facet normal 0 0 -1
outer loop
vertex 0.49728 5.04898 15
vertex 0.97545 4.90393 15
vertex 1.91342 4.6194 15
endloop
endfacet
facet normal 0 0 1
outer loop
vertex 0.49728 5.04898 15
vertex 1.91342 4.6194 15
vertex 2.39159 4.47435 15
endloop
endfacet
facet normal 0 0 1
outer loop
vertex 0.49728 5.04898 15
vertex 2.39159 4.47435 15
vertex 1.10073 5.53373 15
endloop
endfacet
facet normal 0 0 1
outer loop
vertex 0.49728 5.04898 15
vertex 1.10073 5.53373 15
vertex 0 5.19983 15
endloop
endfacet
facet normal 0 0 1
outer loop
vertex 4.47435 2.39159 15
vertex 4.6194 1.91342 15
vertex 5.04898 0.49728 15
endloop
endfacet
facet normal 0 0 1
outer loop
vertex 4.47435 2.39159 15
vertex 5.04898 0.49728 15
vertex 5.15399 1.56344 15
endloop
endfacet
facet normal 0 0 1
outer loop
vertex 0 5 15
vertex 0.49728 5.04898 15
vertex 0 5.19983 15
endloop
endfacet
facet normal 0 0 1
outer loop
vertex 0 5 15
vertex 0 5.19983 15
vertex -0.97545 4.90393 15
endloop
endfacet
facet normal 0 0 1
outer loop
vertex 0.97545 4.90393 15
vertex 0.49728 5.04898 15
vertex 0 5 15
endloop
endfacet
facet normal 0 0 1
outer loop
vertex 5 0 15
vertex 5.04898 0.49728 15
vertex 4.90393 0.97545 15
endloop
endfacet
facet normal 0 0 1
outer loop
vertex 4.15735 2.77785 15
vertex 4.6194 1.91342 15
vertex 4.47435 2.39159 15
endloop
endfacet
facet normal 0 0 1
outer loop
vertex -4.6194 -1.91342 15
vertex -4.90393 -0.97545 15
vertex -4.80401 -1.98989 15
endloop
endfacet
facet normal 0 0 1
outer loop
vertex -4.6194 -1.91342 15
vertex -4.80401 -1.98989 15
vertex -4.47435 -2.39159 15
endloop
endfacet
facet normal 0 0 1
outer loop
vertex -4.90393 0.97545 15
vertex -4.6194 1.91342 15
vertex -4.47435 2.39159 15
endloop
endfacet
facet normal 0 0 1
outer loop
vertex -4.90393 0.97545 15
vertex -4.47435 2.39159 15
vertex -4.80401 1.98989 15
endloop
endfacet
facet normal 0 0 1
outer loop
vertex -2.77785 -4.15735 15
vertex -2.39159 -4.47435 15
vertex -1.91342 -4.6194 15
endloop
endfacet
facet normal 0 0 1
outer loop
vertex 2.77785 -4.15735 15
vertex 1.91342 -4.6194 15
vertex 2.88887 -4.3235 15
endloop
endfacet
facet normal 0 0 1
outer loop
vertex 2.77785 -4.15735 15
vertex 2.88887 -4.3235 15
vertex 3.21854 -3.9218 15
endloop
endfacet
facet normal 0 0 1
outer loop
vertex 4.15735 -2.77785 15
vertex 4.47435 -2.39159 15
vertex 4.6194 -1.91342 15
endloop
endfacet
facet normal 0 0 1
outer loop
vertex 2.77785 -4.15735 15
vertex 3.21854 -3.9218 15
vertex 3.53553 -3.53553 15
endloop
endfacet
facet normal 0 0 1
outer loop
vertex -3.53553 3.53553 15
vertex -2.39159 4.47435 15
vertex -2.88887 4.3235 15
endloop
endfacet
facet normal 0 0 1
outer loop
vertex 2.77785 4.15735 15
vertex 2.39159 4.47435 15
vertex 1.91342 4.6194 15
endloop
endfacet
facet normal 0 0 1
outer loop
vertex -1.91342 4.6194 15
vertex -2.39159 4.47435 15
vertex -2.77785 4.15735 15
endloop
endfacet
facet normal 0 0 1
outer loop
vertex -4.15735 2.77785 15
vertex -4.47435 2.39159 15
vertex -4.6194 1.91342 15
endloop
endfacet
facet normal 0 0 1
outer loop
vertex -4.15735 -2.77785 15
vertex -4.6194 -1.91342 15
vertex -4.47435 -2.39159 15
endloop
endfacet
facet normal 0 0 -1
outer loop
vertex 15 -15 -15
vertex 4.5517 -4.5517 -15
vertex 4.90393 -0.97545 -15
endloop
endfacet
facet normal 0 0 -1
outer loop
vertex 15 -15 -15
vertex 4.90393 -0.97545 -15
vertex 5 0 -15
endloop
endfacet
facet normal 0 0 -1
outer loop
vertex 15 -15 -15
vertex 5 0 -15
vertex 5.15399 1.56344 -15
endloop
endfacet
facet normal 0 0 -1
outer loop
vertex 15 -15 -15
vertex 5.15399 1.56344 -15
vertex 6.47737 15 -15
endloop
endfacet
facet normal 0 0 -1
outer loop
vertex 15 -15 -15
vertex 6.47737 15 -15
vertex 15 15 -15
endloop
endfacet
facet normal 0 0 -1
outer loop
vertex 4.5517 -4.5517 -15
vertex 15 -15 -15
vertex 3.52263 -15 -15
endloop
endfacet
facet normal 0 0 -1
outer loop
vertex 3.53553 -3.53553 -15
vertex 4.15735 -2.77785 -15
vertex 4.47435 -2.39159 -15
endloop
endfacet
facet normal 0 0 1
outer loop
vertex 3.53553 -3.53553 -15
vertex 4.47435 -2.39159 -15
vertex 4.80401 -1.98989 -15
endloop
endfacet
facet normal 0 0 -1
outer loop
vertex 3.53553 -3.53553 -15
vertex 4.80401 -1.98989 -15
vertex 4.5517 -4.5517 -15
endloop
endfacet
facet normal 0 0 -1
outer loop
vertex 2.88887 -4.3235 -15
vertex 3.53553 -3.53553 -15
vertex 4.5517 -4.5517 -15
endloop
endfacet
facet normal 0 0 -1
outer loop
vertex 2.88887 -4.3235 -15
vertex 4.5517 -4.5517 -15
vertex 3.52263 -15 -15
endloop
endfacet
facet normal 0 0 -1
outer loop
vertex 2.88887 -4.3235 -15
vertex 3.52263 -15 -15
vertex -5.87311 -15 -15
endloop
endfacet
facet normal 0 0 -1
outer loop
vertex -0.97545 -4.90393 -15
vertex 0 -5 -15
vertex 0.49728 -5.04898 -15
endloop
endfacet
facet normal 0 0 -1
outer loop
vertex -0.97545 -4.90393 -15
vertex 0.49728 -5.04898 -15
vertex 2.15915 -5.21266 -15
endloop
endfacet
facet normal 0 0 -1
outer loop
vertex -0.97545 -4.90393 -15
vertex 2.15915 -5.21266 -15
vertex -5.87311 -15 -15
endloop
endfacet
facet normal 0 0 -1
outer loop
vertex -0.97545 -4.90393 -15
vertex -5.87311 -15 -15
vertex -15 -15 -15
endloop
endfacet
facet normal 0 0 -1
outer loop
vertex -0.97545 -4.90393 -15
vertex -15 -15 -15
vertex -15 -3.52263 -15
endloop
endfacet
facet normal 0 0 -1
outer loop
vertex -4.74994 -2.5389 -15
vertex -3.53553 -3.53553 -15
vertex -2.77785 -4.15735 -15
endloop
endfacet
facet normal 0 0 1
outer loop
vertex -4.74994 -2.5389 -15
vertex -2.77785 -4.15735 -15
vertex -1.98989 -4.80401 -15
endloop
endfacet
facet normal 0 0 -1
outer loop
vertex -4.74994 -2.5389 -15
vertex -1.98989 -4.80401 -15
vertex -15 -3.52263 -15
endloop
endfacet
facet normal 0 0 -1
outer loop
vertex -4.74994 -2.5389 -15
vertex -15 -3.52263 -15
vertex -15 5.87311 -15
endloop
endfacet
facet normal 0 0 -1
outer loop
vertex 4.90393 -0.97545 -15
vertex 4.80401 -1.98989 -15
vertex 4.47435 -2.39159 -15
endloop
endfacet
facet normal 0 0 1
outer loop
vertex 0.97545 -4.90393 -15
vertex 1.91342 -4.6194 -15
vertex 2.88887 -4.3235 -15
endloop
endfacet
facet normal 0 0 -1
outer loop
vertex 0.97545 -4.90393 -15
vertex 2.88887 -4.3235 -15
vertex 2.15915 -5.21266 -15
endloop
endfacet
facet normal 0 0 -1
outer loop
vertex 0.97545 -4.90393 -15
vertex 2.15915 -5.21266 -15
vertex 0.49728 -5.04898 -15
endloop
endfacet
facet normal 0 0 -1
outer loop
vertex 0.97545 -4.90393 -15
vertex 0.49728 -5.04898 -15
vertex 0 -5 -15
endloop
endfacet
facet normal 0 0 -1
outer loop
vertex -1.91342 -4.6194 -15
vertex -0.97545 -4.90393 -15
vertex -1.98989 -4.80401 -15
endloop
endfacet
facet normal 0 0 -1
outer loop
vertex -1.91342 -4.6194 -15
vertex -1.98989 -4.80401 -15
vertex -2.39159 -4.47435 -15
endloop
endfacet
facet normal 0 0 -1
outer loop
vertex -6.47737 15 -15
vertex -5.54626 5.54626 -15
vertex -15 15 -15
endloop
endfacet
facet normal 0 0 1
outer loop
vertex -5 0 -15
vertex -4.90393 -0.97545 -15
vertex -4.74994 -2.5389 -15
endloop
endfacet
facet normal 0 0 -1
outer loop
vertex -5 0 -15
vertex -4.74994 -2.5389 -15
vertex -15 5.87311 -15
endloop
endfacet
facet normal 0 0 -1
outer loop
vertex -5 0 -15
vertex -15 5.87311 -15
vertex -15 15 -15
endloop
endfacet
facet normal 0 0 -1
outer loop
vertex -5 0 -15
vertex -15 15 -15
vertex -5.54626 5.54626 -15
endloop
endfacet
facet normal 0 0 -1
outer loop
vertex -3.52263 15 -15
vertex -4.5517 4.5517 -15
vertex -5.54626 5.54626 -15
endloop
endfacet
facet normal 0 0 -1
outer loop
vertex -3.52263 15 -15
vertex -5.54626 5.54626 -15
vertex -6.47737 15 -15
endloop
endfacet
facet normal 0 0 1
outer loop
vertex -4.80401 1.98989 -15
vertex -4.90393 0.97545 -15
vertex -5 0 -15
endloop
endfacet
facet normal 0 0 -1
outer loop
vertex -4.80401 1.98989 -15
vertex -5 0 -15
vertex -5.54626 5.54626 -15
endloop
endfacet
facet normal 0 0 -1
outer loop
vertex -4.80401 1.98989 -15
vertex -5.54626 5.54626 -15
vertex -4.5517 4.5517 -15
endloop
endfacet
facet normal 0 0 -1
outer loop
vertex -4.47435 -2.39159 -15
vertex -4.15735 -2.77785 -15
vertex -3.53553 -3.53553 -15
endloop
endfacet
facet normal 0 0 -1
outer loop
vertex -4.47435 -2.39159 -15
vertex -3.53553 -3.53553 -15
vertex -4.74994 -2.5389 -15
endloop
endfacet
facet normal 0 0 -1
outer loop
vertex -4.47435 -2.39159 -15
vertex -4.74994 -2.5389 -15
vertex -4.80401 -1.98989 -15
endloop
endfacet
facet normal 0 0 -1
outer loop
vertex 5.87311 15 -15
vertex -3.53553 3.53553 -15
vertex -4.5517 4.5517 -15
endloop
endfacet
facet normal 0 0 -1
outer loop
vertex 5.87311 15 -15
vertex -4.5517 4.5517 -15
vertex -3.52263 15 -15
endloop
endfacet
facet normal 0 0 -1
outer loop
vertex -4.15735 2.77785 -15
vertex -4.80401 1.98989 -15
vertex -4.5517 4.5517 -15
endloop
endfacet
facet normal 0 0 -1
outer loop
vertex -4.15735 2.77785 -15
vertex -4.5517 4.5517 -15
vertex -3.53553 3.53553 -15
endloop
endfacet
facet normal 0 0 -1
outer loop
vertex 6.47737 15 -15
vertex 5.21266 2.15915 -15
vertex 3.53553 3.53553 -15
endloop
endfacet
facet normal 0 0 -1
outer loop
vertex 6.47737 15 -15
vertex 3.53553 3.53553 -15
vertex 2.77785 4.15735 -15
endloop
endfacet
facet normal 0 0 -1
outer loop
vertex 6.47737 15 -15
vertex 2.77785 4.15735 -15
vertex 1.10073 5.53373 -15
endloop
endfacet
facet normal 0 0 -1
outer loop
vertex 6.47737 15 -15
vertex 1.10073 5.53373 -15
vertex -0.68975 7.00313 -15
endloop
endfacet
facet normal 0 0 -1
outer loop
vertex 6.47737 15 -15
vertex -0.68975 7.00313 -15
vertex 5.87311 15 -15
endloop
endfacet
facet normal 0 0 -1
outer loop
vertex 5.15399 1.56344 -15
vertex 3.53553 3.53553 -15
vertex 5.21266 2.15915 -15
endloop
endfacet
facet normal 0 0 -1
outer loop
vertex -0.97545 4.90393 -15
vertex -2.88887 4.3235 -15
vertex -0.68975 7.00313 -15
endloop
endfacet
facet normal 0 0 -1
outer loop
vertex -0.97545 4.90393 -15
vertex -0.68975 7.00313 -15
vertex 1.10073 5.53373 -15
endloop
endfacet
facet normal 0 0 1
outer loop
vertex 1.91342 4.6194 -15
vertex 0.97545 4.90393 -15
vertex 0.49728 5.04898 -15
endloop
endfacet
facet normal 0 0 -1
outer loop
vertex 1.91342 4.6194 -15
vertex 0.49728 5.04898 -15
vertex 0 5.19983 -15
endloop
endfacet
facet normal 0 0 -1
outer loop
vertex 1.91342 4.6194 -15
vertex 0 5.19983 -15
vertex 1.10073 5.53373 -15
endloop
endfacet
facet normal 0 0 -1
outer loop
vertex 1.91342 4.6194 -15
vertex 1.10073 5.53373 -15
vertex 2.39159 4.47435 -15
endloop
endfacet
facet normal 0 0 -1
outer loop
vertex 4.6194 1.91342 -15
vertex 4.47435 2.39159 -15
vertex 5.15399 1.56344 -15
endloop
endfacet
facet normal 0 0 -1
outer loop
vertex 4.6194 1.91342 -15
vertex 5.15399 1.56344 -15
vertex 5.04898 0.49728 -15
endloop
endfacet
facet normal 0 0 -1
outer loop
vertex 0 5 -15
vertex -0.97545 4.90393 -15
vertex 0 5.19983 -15
endloop
endfacet
facet normal 0 0 -1
outer loop
vertex 0 5 -15
vertex 0 5.19983 -15
vertex 0.49728 5.04898 -15
endloop
endfacet
facet normal 0 0 -1
outer loop
vertex 0 5 -15
vertex 0.49728 5.04898 -15
vertex 0.97545 4.90393 -15
endloop
endfacet
facet normal 0 0 -1
outer loop
vertex 4.90393 0.97545 -15
vertex 5.04898 0.49728 -15
vertex 5 0 -15
endloop
endfacet
facet normal 0 0 -1
outer loop
vertex 4.15735 2.77785 -15
vertex 4.47435 2.39159 -15
vertex 4.6194 1.91342 -15
endloop
endfacet
facet normal 0 0 -1
outer loop
vertex -4.6194 -1.91342 -15
vertex -4.47435 -2.39159 -15
vertex -4.80401 -1.98989 -15
endloop
endfacet
facet normal 0 0 -1
outer loop
vertex -4.6194 -1.91342 -15
vertex -4.80401 -1.98989 -15
vertex -4.90393 -0.97545 -15
endloop
endfacet
facet normal 0 0 -1
outer loop
vertex -4.6194 1.91342 -15
vertex -4.90393 0.97545 -15
vertex -4.80401 1.98989 -15
endloop
endfacet
facet normal 0 0 -1
outer loop
vertex -4.6194 1.91342 -15
vertex -4.80401 1.98989 -15
vertex -4.47435 2.39159 -15
endloop
endfacet
facet normal 0 0 -1
outer loop
vertex -1.91342 -4.6194 -15
vertex -2.39159 -4.47435 -15
vertex -2.77785 -4.15735 -15
endloop
endfacet
facet normal 0 0 -1
outer loop
vertex 1.91342 -4.6194 -15
vertex 2.77785 -4.15735 -15
vertex 3.21854 -3.9218 -15
endloop
endfacet
facet normal 0 0 -1
outer loop
vertex 1.91342 -4.6194 -15
vertex 3.21854 -3.9218 -15
vertex 2.88887 -4.3235 -15
endloop
endfacet
facet normal 0 0 -1
outer loop
vertex 4.6194 -1.91342 -15
vertex 4.47435 -2.39159 -15
vertex 4.15735 -2.77785 -15
endloop
endfacet
facet normal 0 0 -1
outer loop
vertex 3.53553 -3.53553 -15
vertex 3.21854 -3.9218 -15
vertex 2.77785 -4.15735 -15
endloop
endfacet
facet normal 0 0 -1
outer loop
vertex -3.53553 3.53553 -15
vertex -2.88887 4.3235 -15
vertex -2.39159 4.47435 -15
endloop
endfacet
facet normal 0 0 -1
outer loop
vertex 2.77785 4.15735 -15
vertex 1.91342 4.6194 -15
vertex 2.39159 4.47435 -15
endloop
endfacet
facet normal 0 0 -1
outer loop
vertex -2.77785 4.15735 -15
vertex -2.39159 4.47435 -15
vertex -1.91342 4.6194 -15
endloop
endfacet
facet normal 0 0 -1
outer loop
vertex -4.6194 1.91342 -15
vertex -4.47435 2.39159 -15
vertex -4.15735 2.77785 -15
endloop
endfacet
facet normal 0 0 -1
outer loop
vertex -4.15735 -2.77785 -15
vertex -4.47435 -2.39159 -15
vertex -4.6194 -1.91342 -15
endloop
endfacet
facet normal -1 0 0
outer loop
vertex -15 -15 15
vertex -15 -3.52263 3.52263
vertex -15 -3.52263 -15
endloop
endfacet
facet normal -1 0 0
outer loop
vertex -15 -15 15
vertex -15 -3.52263 -15
vertex -15 -15 -15
endloop
endfacet
facet normal -1 0 0
outer loop
vertex -15 -3.52263 3.52263
vertex -15 -15 15
vertex -15 -3.52263 15
endloop
endfacet
facet normal -1 0 0
outer loop
vertex -15 5.87311 -5.87311
vertex -15 5.87311 -15
vertex -15 -3.52263 -15
endloop
endfacet
facet normal -1 0 0
outer loop
vertex -15 5.87311 -5.87311
vertex -15 -3.52263 -15
vertex -15 -3.52263 3.52263
endloop
endfacet
facet normal -1 0 0
outer loop
vertex -15 -3.52263 15
vertex -15 5.87311 15
vertex -15 5.87311 -5.87311
endloop
endfacet
facet normal -1 0 0
outer loop
vertex -15 -3.52263 15
vertex -15 5.87311 -5.87311
vertex -15 -3.52263 3.52263
endloop
endfacet
facet normal -1 0 0
outer loop
vertex -15 5.87311 -5.87311
vertex -15 15 -15
vertex -15 5.87311 -15
endloop
endfacet
facet normal -1 0 0
outer loop
vertex -15 5.87311 15
vertex -15 15 15
vertex -15 15 -15
endloop
endfacet
facet normal -1 0 0
outer loop
vertex -15 5.87311 15
vertex -15 15 -15
vertex -15 5.87311 -5.87311
endloop
endfacet
facet normal 1 0 0
outer loop
vertex 15 15 -15
vertex 15 15 15
vertex 15 -15 -15
endloop
endfacet
facet normal 1 0 0
outer loop
vertex 15 -15 -15
vertex 15 15 15
vertex 15 -15 15
endloop
endfacet
facet normal 0 -1 0
outer loop
vertex 15 -15 15
vertex 3.52263 -15 3.52263
vertex 3.52263 -15 -15
endloop
endfacet
facet normal 0 -1 0
outer loop
vertex 15 -15 15
vertex 3.52263 -15 -15
vertex 15 -15 -15
endloop
endfacet
facet normal 0 -1 0
outer loop
vertex 3.52263 -15 3.52263
vertex 15 -15 15
vertex 3.52263 -15 15
endloop
endfacet
facet normal 0 -1 0
outer loop
vertex -5.87311 -15 -5.87311
vertex -5.87311 -15 -15
vertex 3.52263 -15 -15
endloop
endfacet
facet normal 0 -1 0
outer loop
vertex -5.87311 -15 -5.87311
vertex 3.52263 -15 -15
vertex 3.52263 -15 3.52263
endloop
endfacet
facet normal 0 -1 0
outer loop
vertex 3.52263 -15 15
vertex -5.87311 -15 15
vertex -5.87311 -15 -5.87311
endloop
endfacet
facet normal 0 -1 0
outer loop
vertex 3.52263 -15 15
vertex -5.87311 -15 -5.87311
vertex 3.52263 -15 3.52263
endloop
endfacet
facet normal 0 -1 0
outer loop
vertex -5.87311 -15 -5.87311
vertex -15 -15 -15
vertex -5.87311 -15 -15
endloop
endfacet
facet normal 0 -1 0
outer loop
vertex -5.87311 -15 15
vertex -15 -15 15
vertex -15 -15 -15
endloop
endfacet
facet normal 0 -1 0
outer loop
vertex -5.87311 -15 15
vertex -15 -15 -15
vertex -5.87311 -15 -5.87311
endloop
endfacet
facet normal 0 1 0
outer loop
vertex 6.47737 15 -6.47737
vertex 15 15 -15
vertex 6.47737 15 -15
endloop
endfacet
facet normal 0 1 0
outer loop
vertex 6.47737 15 -6.47737
vertex 6.47737 15 15
vertex 15 15 15
endloop
endfacet
facet normal 0 1 0
outer loop
vertex 6.47737 15 -6.47737
vertex 15 15 15
vertex 15 15 -15
endloop
endfacet
facet normal 0 1 0
outer loop
vertex -6.47737 15 6.47737
vertex -6.47737 15 -15
vertex -15 15 -15
endloop
endfacet
facet normal 0 1 0
outer loop
vertex -6.47737 15 6.47737
vertex -15 15 -15
vertex -15 15 15
endloop
endfacet
facet normal 0 1 0
outer loop
vertex -6.47737 15 6.47737
vertex -15 15 15
vertex -6.47737 15 15
endloop
endfacet
facet normal 0 1 0
outer loop
vertex -3.52263 15 3.52263
vertex -3.52263 15 -15
vertex -6.47737 15 -15
endloop
endfacet
facet normal 0 1 0
outer loop
vertex -3.52263 15 3.52263
vertex -6.47737 15 -15
vertex -6.47737 15 6.47737
endloop
endfacet
facet normal 0 1 0
outer loop
vertex -6.47737 15 15
vertex -3.52263 15 15
vertex -3.52263 15 3.52263
endloop
endfacet
facet normal 0 1 0
outer loop
vertex -6.47737 15 15
vertex -3.52263 15 3.52263
vertex -6.47737 15 6.47737
endloop
endfacet
facet normal 0 1 0
outer loop
vertex 5.87311 15 -5.87311
vertex 5.87311 15 -15
vertex -3.52263 15 -15
endloop
endfacet
facet normal 0 1 0
outer loop
vertex 5.87311 15 -5.87311
vertex -3.52263 15 -15
vertex -3.52263 15 3.52263
endloop
endfacet
facet normal 0 1 0
outer loop
vertex 5.87311 15 15
vertex 5.87311 15 -5.87311
vertex -3.52263 15 3.52263
endloop
endfacet
facet normal 0 1 0
outer loop
vertex 5.87311 15 15
vertex -3.52263 15 3.52263
vertex -3.52263 15 15
endloop
endfacet
facet normal 0 1 0
outer loop
vertex 5.87311 15 -5.87311
vertex 6.47737 15 -6.47737
vertex 6.47737 15 -15
endloop
endfacet
facet normal 0 1 0
outer loop
vertex 5.87311 15 -5.87311
vertex 6.47737 15 -15
vertex 5.87311 15 -15
endloop
endfacet
facet normal 0 1 0
outer loop
vertex 5.87311 15 15
vertex 6.47737 15 15
vertex 6.47737 15 -6.47737
endloop
endfacet
facet normal 0 1 0
outer loop
vertex 5.87311 15 15
vertex 6.47737 15 -6.47737
vertex 5.87311 15 -5.87311
endloop
endfacet
facet normal -0.9951850689511188 0.09801366505113956 0
outer loop
vertex 4.90393 -0.97545 -15
vertex 5 0 15
vertex 5 0 -15
endloop
endfacet
facet normal -0.9951850689511188 0.09801366505113956 0
outer loop
vertex 4.90393 -0.97545 15
vertex 5 0 15
vertex 4.90393 -0.97545 -15
endloop
endfacet
facet normal -0.7730064039365384 0.6343982183716322 0
outer loop
vertex 3.53553 -3.53553 -15
vertex 4.15735 -2.77785 15
vertex 4.15735 -2.77785 -15
endloop
endfacet
facet normal -0.7730064039365384 0.6343982183716322 0
outer loop
vertex 3.53553 -3.53553 15
vertex 4.15735 -2.77785 15
vertex 3.53553 -3.53553 -15
endloop
endfacet
facet normal 0.09801366505113956 0.9951850689511188 0
outer loop
vertex -0.97545 -4.90393 -15
vertex 0 -5 15
vertex 0 -5 -15
endloop
endfacet
facet normal 0.09801366505113956 0.9951850689511188 0
outer loop
vertex -0.97545 -4.90393 15
vertex 0 -5 15
vertex -0.97545 -4.90393 -15
endloop
endfacet
facet normal 0.6343982183716322 0.7730064039365384 0
outer loop
vertex -3.53553 -3.53553 -15
vertex -2.77785 -4.15735 15
vertex -2.77785 -4.15735 -15
endloop
endfacet
facet normal 0.6343982183716322 0.7730064039365384 0
outer loop
vertex -3.53553 -3.53553 15
vertex -2.77785 -4.15735 15
vertex -3.53553 -3.53553 -15
endloop
endfacet
facet normal -0.9569403609049869 0.2902845942709214 0
outer loop
vertex 4.90393 -0.97545 -15
vertex 4.6194 -1.91342 -15
vertex 4.90393 -0.97545 15
endloop
endfacet
facet normal -0.9569403609049869 0.2902845942709214 0
outer loop
vertex 4.6194 -1.91342 -15
vertex 4.6194 -1.91342 15
vertex 4.90393 -0.97545 15
endloop
endfacet
facet normal -0.2902845942709214 0.9569403609049869 0
outer loop
vertex 1.91342 -4.6194 -15
vertex 0.97545 -4.90393 -15
vertex 1.91342 -4.6194 15
endloop
endfacet
facet normal -0.2902845942709214 0.9569403609049869 0
outer loop
vertex 0.97545 -4.90393 15
vertex 1.91342 -4.6194 15
vertex 0.97545 -4.90393 -15
endloop
endfacet
facet normal -0.09801366505113956 0.9951850689511188 0
outer loop
vertex 0 -5 -15
vertex 0.97545 -4.90393 15
vertex 0.97545 -4.90393 -15
endloop
endfacet
facet normal -0.09801366505113956 0.9951850689511188 0
outer loop
vertex 0 -5 15
vertex 0.97545 -4.90393 15
vertex 0 -5 -15
endloop
endfacet
facet normal 0.2902845942709214 0.9569403609049869 0
outer loop
vertex -1.91342 -4.6194 -15
vertex -0.97545 -4.90393 15
vertex -0.97545 -4.90393 -15
endloop
endfacet
facet normal 0.2902845942709214 0.9569403609049869 0
outer loop
vertex -1.91342 -4.6194 15
vertex -0.97545 -4.90393 15
vertex -1.91342 -4.6194 -15
endloop
endfacet
facet normal 0.9951850689511188 0.09801366505113956 0
outer loop
vertex -5 0 -15
vertex -4.90393 -0.97545 15
vertex -4.90393 -0.97545 -15
endloop
endfacet
facet normal 0.9951850689511188 0.09801366505113956 0
outer loop
vertex -5 0 15
vertex -4.90393 -0.97545 15
vertex -5 0 -15
endloop
endfacet
facet normal 0.9951850689511188 -0.09801366505113956 0
outer loop
vertex -5 0 -15
vertex -4.90393 0.97545 -15
vertex -5 0 15
endloop
endfacet
facet normal 0.9951850689511188 -0.09801366505113956 0
outer loop
vertex -4.90393 0.97545 -15
vertex -4.90393 0.97545 15
vertex -5 0 15
endloop
endfacet
facet normal 0.7730064039365384 0.6343982183716322 0
outer loop
vertex -3.53553 -3.53553 -15
vertex -4.15735 -2.77785 -15
vertex -3.53553 -3.53553 15
endloop
endfacet
facet normal 0.7730064039365384 0.6343982183716322 0
outer loop
vertex -4.15735 -2.77785 15
vertex -3.53553 -3.53553 15
vertex -4.15735 -2.77785 -15
endloop
endfacet
facet normal 0.7730064039365384 -0.6343982183716322 0
outer loop
vertex -3.53553 3.53553 -15
vertex -4.15735 2.77785 15
vertex -4.15735 2.77785 -15
endloop
endfacet
facet normal 0.7730064039365384 -0.6343982183716322 0
outer loop
vertex -3.53553 3.53553 -15
vertex -3.53553 3.53553 15
vertex -4.15735 2.77785 15
endloop
endfacet
facet normal -0.6343982183716322 -0.7730064039365384 0
outer loop
vertex 3.53553 3.53553 -15
vertex 2.77785 4.15735 15
vertex 2.77785 4.15735 -15
endloop
endfacet
facet normal -0.6343982183716322 -0.7730064039365384 0
outer loop
vertex 3.53553 3.53553 15
vertex 2.77785 4.15735 15
vertex 3.53553 3.53553 -15
endloop
endfacet
facet normal -0.7730064039365384 -0.6343982183716322 0
outer loop
vertex 4.15735 2.77785 -15
vertex 3.53553 3.53553 15
vertex 3.53553 3.53553 -15
endloop
endfacet
facet normal -0.7730064039365384 -0.6343982183716322 0
outer loop
vertex 4.15735 2.77785 -15
vertex 4.15735 2.77785 15
vertex 3.53553 3.53553 15
endloop
endfacet
facet normal 0.2902845942709214 -0.9569403609049869 0
outer loop
vertex -0.97545 4.90393 -15
vertex -1.91342 4.6194 15
vertex -1.91342 4.6194 -15
endloop
endfacet
facet normal 0.2902845942709214 -0.9569403609049869 0
outer loop
vertex -0.97545 4.90393 15
vertex -1.91342 4.6194 15
vertex -0.97545 4.90393 -15
endloop
endfacet
facet normal -0.2902845942709214 -0.9569403609049869 0
outer loop
vertex 0.97545 4.90393 -15
vertex 1.91342 4.6194 -15
vertex 0.97545 4.90393 15
endloop
endfacet
facet normal -0.2902845942709214 -0.9569403609049869 0
outer loop
vertex 1.91342 4.6194 -15
vertex 1.91342 4.6194 15
vertex 0.97545 4.90393 15
endloop
endfacet
facet normal -0.9569403609049869 -0.2902845942709214 0
outer loop
vertex 4.90393 0.97545 -15
vertex 4.6194 1.91342 15
vertex 4.6194 1.91342 -15
endloop
endfacet
facet normal -0.9569403609049869 -0.2902845942709214 0
outer loop
vertex 4.90393 0.97545 15
vertex 4.6194 1.91342 15
vertex 4.90393 0.97545 -15
endloop
endfacet
facet normal 0.09801366505113956 -0.9951850689511188 0
outer loop
vertex -0.97545 4.90393 -15
vertex 0 5 -15
vertex -0.97545 4.90393 15
endloop
endfacet
facet normal 0.09801366505113956 -0.9951850689511188 0
outer loop
vertex 0 5 15
vertex -0.97545 4.90393 15
vertex 0 5 -15
endloop
endfacet
facet normal -0.09801366505113956 -0.9951850689511188 0
outer loop
vertex 0.97545 4.90393 -15
vertex 0 5 15
vertex 0 5 -15
endloop
endfacet
facet normal -0.09801366505113956 -0.9951850689511188 0
outer loop
vertex 0.97545 4.90393 15
vertex 0 5 15
vertex 0.97545 4.90393 -15
endloop
endfacet
facet normal -0.9951850689511188 -0.09801366505113956 0
outer loop
vertex 5 0 -15
vertex 4.90393 0.97545 15
vertex 4.90393 0.97545 -15
endloop
endfacet
facet normal -0.9951850689511188 -0.09801366505113956 0
outer loop
vertex 5 0 15
vertex 4.90393 0.97545 15
vertex 5 0 -15
endloop
endfacet
facet normal -0.8819201875442229 -0.4713987513792995 0
outer loop
vertex 4.6194 1.91342 -15
vertex 4.15735 2.77785 15
vertex 4.15735 2.77785 -15
endloop
endfacet
facet normal -0.8819201875442229 -0.4713987513792995 0
outer loop
vertex 4.6194 1.91342 15
vertex 4.15735 2.77785 15
vertex 4.6194 1.91342 -15
endloop
endfacet
facet normal 0.9569403609049869 0.2902845942709214 0
outer loop
vertex -4.90393 -0.97545 -15
vertex -4.6194 -1.91342 15
vertex -4.6194 -1.91342 -15
endloop
endfacet
facet normal 0.9569403609049869 0.2902845942709214 0
outer loop
vertex -4.90393 -0.97545 15
vertex -4.6194 -1.91342 15
vertex -4.90393 -0.97545 -15
endloop
endfacet
facet normal 0.9569403609049869 -0.2902845942709214 0
outer loop
vertex -4.6194 1.91342 -15
vertex -4.90393 0.97545 15
vertex -4.90393 0.97545 -15
endloop
endfacet
facet normal 0.9569403609049869 -0.2902845942709214 0
outer loop
vertex -4.6194 1.91342 15
vertex -4.90393 0.97545 15
vertex -4.6194 1.91342 -15
endloop
endfacet
facet normal 0.4713987513792995 0.8819201875442229 0
outer loop
vertex -1.91342 -4.6194 -15
vertex -2.77785 -4.15735 -15
vertex -1.91342 -4.6194 15
endloop
endfacet
facet normal 0.4713987513792995 0.8819201875442229 0
outer loop
vertex -2.77785 -4.15735 15
vertex -1.91342 -4.6194 15
vertex -2.77785 -4.15735 -15
endloop
endfacet
facet normal -0.4713987513792995 0.8819201875442229 0
outer loop
vertex 1.91342 -4.6194 -15
vertex 2.77785 -4.15735 15
vertex 2.77785 -4.15735 -15
endloop
endfacet
facet normal -0.4713987513792995 0.8819201875442229 0
outer loop
vertex 1.91342 -4.6194 15
vertex 2.77785 -4.15735 15
vertex 1.91342 -4.6194 -15
endloop
endfacet
facet normal -0.8819201875442229 0.4713987513792995 0
outer loop
vertex 4.6194 -1.91342 -15
vertex 4.15735 -2.77785 -15
vertex 4.6194 -1.91342 15
endloop
endfacet
facet normal -0.8819201875442229 0.4713987513792995 0
outer loop
vertex 4.15735 -2.77785 -15
vertex 4.15735 -2.77785 15
vertex 4.6194 -1.91342 15
endloop
endfacet
facet normal -0.6343982183716322 0.7730064039365384 0
outer loop
vertex 2.77785 -4.15735 -15
vertex 3.53553 -3.53553 15
vertex 3.53553 -3.53553 -15
endloop
endfacet
facet normal -0.6343982183716322 0.7730064039365384 0
outer loop
vertex 2.77785 -4.15735 -15
vertex 2.77785 -4.15735 15
vertex 3.53553 -3.53553 15
endloop
endfacet
facet normal 0.6343982183716322 -0.7730064039365384 0
outer loop
vertex -2.77785 4.15735 -15
vertex -3.53553 3.53553 15
vertex -3.53553 3.53553 -15
endloop
endfacet
facet normal 0.6343982183716322 -0.7730064039365384 0
outer loop
vertex -2.77785 4.15735 15
vertex -3.53553 3.53553 15
vertex -2.77785 4.15735 -15
endloop
endfacet
facet normal -0.4713987513792995 -0.8819201875442229 0
outer loop
vertex 2.77785 4.15735 -15
vertex 1.91342 4.6194 15
vertex 1.91342 4.6194 -15
endloop
endfacet
facet normal -0.4713987513792995 -0.8819201875442229 0
outer loop
vertex 2.77785 4.15735 -15
vertex 2.77785 4.15735 15
vertex 1.91342 4.6194 15
endloop
endfacet
facet normal 0.4713987513792995 -0.8819201875442229 0
outer loop
vertex -2.77785 4.15735 -15
vertex -1.91342 4.6194 -15
vertex -2.77785 4.15735 15
endloop
endfacet
facet normal 0.4713987513792995 -0.8819201875442229 0
outer loop
vertex -1.91342 4.6194 -15
vertex -1.91342 4.6194 15
vertex -2.77785 4.15735 15
endloop
endfacet
facet normal 0.8819201875442229 -0.4713987513792995 0
outer loop
vertex -4.6194 1.91342 -15
vertex -4.15735 2.77785 -15
vertex -4.6194 1.91342 15
endloop
endfacet
facet normal 0.8819201875442229 -0.4713987513792995 0
outer loop
vertex -4.15735 2.77785 -15
vertex -4.15735 2.77785 15
vertex -4.6194 1.91342 15
endloop
endfacet
facet normal 0.8819201875442229 0.4713987513792995 0
outer loop
vertex -4.6194 -1.91342 -15
vertex -4.15735 -2.77785 15
vertex -4.15735 -2.77785 -15
endloop
endfacet
facet normal 0.8819201875442229 0.4713987513792995 0
outer loop
vertex -4.6194 -1.91342 15
vertex -4.15735 -2.77785 15
vertex -4.6194 -1.91342 -15
endloop
endfacet
endsolid JSxCAD
