solid JSxCAD
facet normal -0.9951866047742233 -0.09799806976646973 2.5836785083718188e-17
outer loop
vertex 5.048979582729237 -0.4973957625463944 15
vertex 5 0 15
vertex 5.0489795827292365 -0.4973957625463933 -15
endloop
endfacet
facet normal 0.9569330145275796 -0.290308810936146 2.327429404992615e-16
outer loop
vertex 4.922471210691583 -0.9144001153477812 -1.0433412127459816
vertex 4.922471210608736 -0.9144001156208672 -7.660775924733798e-8
vertex 3.98955 -3.98955 15
endloop
endfacet
facet normal -0.7730246445500172 -0.6343759917575061 -7.551181906819016e-18
outer loop
vertex -3.53555 -3.53555 -15
vertex -4.15735008463981 -2.777849841647228 15
vertex -4.157350084639811 -2.777849841647227 -8.881784197001252e-16
endloop
endfacet
facet normal 0.9569320298738908 0.2903120565898618 2.685926079602883e-19
outer loop
vertex 5.199878318156831 0.000005543722906592441 15
vertex 5.199878318156831 0.0000055437229066201965 -15
vertex 4.90395 0.97545 -15
endloop
endfacet
facet normal 0 -1 -8.881784197001253e-17
outer loop
vertex -4.15735008463981 -2.777849841647228 15
vertex -4.157350084639813 -2.7778498416472255 -15
vertex -4.157350084639811 -2.777849841647227 -8.881784197001252e-16
endloop
endfacet
facet normal -0.8729434821372648 -0.4878213576649418 3.4205715990538274e-17
outer loop
vertex -4.157350084639813 -2.7778498416472255 -15
vertex -4.15735008463981 -2.777849841647228 15
vertex -4.15735008463982 -2.7778498416472117 -1.305622276959184e-13
endloop
endfacet
facet normal -0.8819247610808906 -0.471390194841189 5.805452517694882e-17
outer loop
vertex -4.15735008463981 -2.777849841647228 15
vertex -4.619400121933694 -1.9133995980754293 -15
vertex -4.15735008463982 -2.7778498416472117 -1.305622276959184e-13
endloop
endfacet
facet normal 0.9951869056399797 0.09799501437686556 4.895834456685122e-18
outer loop
vertex 5.048979582739154 -0.4973957625137059 15
vertex 5.048979582739154 -0.4973957625137044 -15
vertex 4.90395 0.97545 -15
endloop
endfacet
facet normal -0.956931928966638 0.2903123892020268 7.643943654003333e-17
outer loop
vertex 4.922471210691583 -0.9144001153477801 -15
vertex 4.90395 -0.97545 -15
vertex 4.922471210608736 -0.9144001156208672 -7.660775924733798e-8
endloop
endfacet
endsolid JSxCAD
