<?xml version="1.0" encoding="UTF-8" standalone="no"?>
<svg
   xmlns:dc="http://purl.org/dc/elements/1.1/"
   xmlns:cc="http://creativecommons.org/ns#"
   xmlns:rdf="http://www.w3.org/1999/02/22-rdf-syntax-ns#"
   xmlns:svg="http://www.w3.org/2000/svg"
   xmlns="http://www.w3.org/2000/svg"
   viewBox="0 0 564 721"
   height="721"
   width="564"
   id="svg2"
   version="1.1">
  <metadata
     id="metadata8">
    <rdf:RDF>
      <cc:Work
         rdf:about="">
        <dc:format>image/svg+xml</dc:format>
        <dc:type
           rdf:resource="http://purl.org/dc/dcmitype/StillImage" />
        <dc:title></dc:title>
      </cc:Work>
    </rdf:RDF>
  </metadata>
  <defs
     id="defs6" />
  <g
     id="layer1">
    <path
       id="path817-3"
       d="M 120.25163,89.678938 C 105.26945,76.865343 86.290871,70.978848 64.320641,70.277872 c -13.606529,-0.68137 -18.23312,6.02216 -17.828005,13.283606 6.244844,14.534767 21.797355,10.82421 20.274985,7.69051 -4.16728,-4.51605 -16.757857,1.77465 -8.914,17.828002 6.562083,9.62236 20.321,6.4187 22.72196,2.62177 -0.53018,-3.59838 -5.96612,-0.098 -7.27385,1.91379 -3.03061,4.6622 0.32679,13.20859 13.3913,16.61335 11.06493,-0.14313 22.044849,0.2805 35.830799,-18.00279 4.34516,12.7518 9.47534,22.6252 16.60451,25.16895 6.27544,-0.76597 4.16335,-15.51118 2.2722,-29.88813 24.31078,5.96527 42.73668,0.48874 45.61871,-13.108822 2.61664,-17.56344 -10.03938,-15.478725 -11.1862,-11.36098 2.51143,3.44671 16.17735,-3.116853 16.95408,-16.429728 -2.70239,-15.824155 -17.63156,-8.828923 -16.95408,-6.816589 0.92684,2.174705 14.49636,-1.084359 14.14025,-16.825567 -0.061,-2.698469 -1.43864,-8.257442 -10.295,-8.168596 -24.66932,7.158195 -37.4489,26.38311 -48.24047,51.73617 l -7.34095,-3.14612 c -12.06603,-2.35918 -19.3715,-11.56702 -30.062902,-20.799338 -3.01551,-2.640151 -8.453157,-5.522764 -8.214867,-10.487061 2.63302,-0.137038 5.110993,5.355647 6.816593,11.710552 10.274516,8.530427 20.095646,15.86762 31.286396,20.274987 l 10.62873,-16.624021 6.67492,-17.45893 c -2.9048,-4.760798 -3.78996,-9.337992 -1.57306,-13.63318 3.59344,4.544393 1.75708,9.962709 -0.17479,14.507102 -2.60705,12.279766 -7.41416,22.793548 -16.08015,33.209029 -0.99045,1.89697 -2.15567,5.07163 -3.14612,5.5931 l 2.2722,21.498462 c 4.09074,10.26312 8.40401,21.76429 12.93404,24.12024 3.67047,2.09742 4.19949,5.20024 8.04008,-2.79654 1.32618,-9.32183 -0.99763,-17.2454 -2.79655,-26.56723 l -9.78793,-18.701922 c -1.80437,-1.98435 -3.80579,-3.57462 -6.99137,-2.79654 z"
       style="fill:none;stroke:#000000;stroke-width:1px;stroke-linecap:butt;stroke-linejoin:miter;stroke-opacity:1" />
  </g>
</svg>
