solid JSxCAD
facet normal 0 0.8 0.6
outer loop
vertex -2.5 2.5 0
vertex 2.5 2.5 0
vertex 0 10 -10
endloop
endfacet
facet normal 0.394000708752548 0.7371236936922608 0.5490101107447549
outer loop
vertex 5.5557 8.3147 -10
vertex 3.82683 9.2388 -10
vertex 2.5 2.5 0
endloop
endfacet
facet normal 0.5335216893046002 0.650099114946979 0.5410413549690266
outer loop
vertex 5.5557 8.3147 -10
vertex 2.5 2.5 0
vertex 7.07107 7.07107 -10
endloop
endfacet
facet normal 0.23966413064874256 0.790076676228618 0.5642162264238082
outer loop
vertex 1.9509 9.80785 -10
vertex 2.5 2.5 0
vertex 3.82683 9.2388 -10
endloop
endfacet
facet normal 0.0794745040015288 0.8069050734144299 0.5853101790604401
outer loop
vertex 1.9509 9.80785 -10
vertex 0 10 -10
vertex 2.5 2.5 0
endloop
endfacet
facet normal 0.790076676228618 0.23966413064874256 0.5642162264238082
outer loop
vertex 9.80785 1.9509 -10
vertex 9.2388 3.82683 -10
vertex 2.5 2.5 0
endloop
endfacet
facet normal 0.8069050734144299 0.0794745040015288 0.5853101790604401
outer loop
vertex 9.80785 1.9509 -10
vertex 2.5 2.5 0
vertex 10 0 -10
endloop
endfacet
facet normal 0.7371236936922608 0.394000708752548 0.5490101107447549
outer loop
vertex 8.3147 5.5557 -10
vertex 2.5 2.5 0
vertex 9.2388 3.82683 -10
endloop
endfacet
facet normal 0.650099114946979 0.5335216893046002 0.5410413549690266
outer loop
vertex 8.3147 5.5557 -10
vertex 7.07107 7.07107 -10
vertex 2.5 2.5 0
endloop
endfacet
facet normal 0.8 0 0.6
outer loop
vertex 2.5 -2.5 0
vertex 10 0 -10
vertex 2.5 2.5 0
endloop
endfacet
facet normal 0 -0.8 0.6
outer loop
vertex -2.5 -2.5 0
vertex 0 -10 -10
vertex 2.5 -2.5 0
endloop
endfacet
facet normal 0 0 1
outer loop
vertex -2.5 -2.5 0
vertex 2.5 -2.5 0
vertex 2.5 2.5 0
endloop
endfacet
facet normal 0 0 1
outer loop
vertex -2.5 -2.5 0
vertex 2.5 2.5 0
vertex -2.5 2.5 0
endloop
endfacet
facet normal -0.8 0 0.6
outer loop
vertex -2.5 -2.5 0
vertex -2.5 2.5 0
vertex -10 0 -10
endloop
endfacet
facet normal -0.394000708752548 0.7371236936922608 0.5490101107447549
outer loop
vertex -5.5557 8.3147 -10
vertex -2.5 2.5 0
vertex -3.82683 9.2388 -10
endloop
endfacet
facet normal -0.5335216893046002 0.650099114946979 0.5410413549690266
outer loop
vertex -5.5557 8.3147 -10
vertex -7.07107 7.07107 -10
vertex -2.5 2.5 0
endloop
endfacet
facet normal -0.23966413064874256 0.790076676228618 0.5642162264238082
outer loop
vertex -1.9509 9.80785 -10
vertex -3.82683 9.2388 -10
vertex -2.5 2.5 0
endloop
endfacet
facet normal -0.0794745040015288 0.8069050734144299 0.5853101790604401
outer loop
vertex -1.9509 9.80785 -10
vertex -2.5 2.5 0
vertex 0 10 -10
endloop
endfacet
facet normal -0.790076676228618 0.23966413064874256 0.5642162264238082
outer loop
vertex -9.80785 1.9509 -10
vertex -2.5 2.5 0
vertex -9.2388 3.82683 -10
endloop
endfacet
facet normal -0.8069050734144299 0.0794745040015288 0.5853101790604401
outer loop
vertex -9.80785 1.9509 -10
vertex -10 0 -10
vertex -2.5 2.5 0
endloop
endfacet
facet normal -0.7371236936922608 0.394000708752548 0.5490101107447549
outer loop
vertex -8.3147 5.5557 -10
vertex -9.2388 3.82683 -10
vertex -2.5 2.5 0
endloop
endfacet
facet normal -0.650099114946979 0.5335216893046002 0.5410413549690266
outer loop
vertex -8.3147 5.5557 -10
vertex -2.5 2.5 0
vertex -7.07107 7.07107 -10
endloop
endfacet
facet normal -0.650099114946979 -0.5335216893046002 0.5410413549690266
outer loop
vertex -8.3147 -5.5557 -10
vertex -7.07107 -7.07107 -10
vertex -2.5 -2.5 0
endloop
endfacet
facet normal -0.7371236936922608 -0.394000708752548 0.5490101107447549
outer loop
vertex -8.3147 -5.5557 -10
vertex -2.5 -2.5 0
vertex -9.2388 -3.82683 -10
endloop
endfacet
facet normal -0.790076676228618 -0.23966413064874256 0.5642162264238082
outer loop
vertex -9.80785 -1.9509 -10
vertex -9.2388 -3.82683 -10
vertex -2.5 -2.5 0
endloop
endfacet
facet normal -0.8069050734144299 -0.0794745040015288 0.5853101790604401
outer loop
vertex -9.80785 -1.9509 -10
vertex -2.5 -2.5 0
vertex -10 0 -10
endloop
endfacet
facet normal 0.394000708752548 -0.7371236936922608 0.5490101107447549
outer loop
vertex 5.5557 -8.3147 -10
vertex 2.5 -2.5 0
vertex 3.82683 -9.2388 -10
endloop
endfacet
facet normal 0.5335216893046002 -0.650099114946979 0.5410413549690266
outer loop
vertex 5.5557 -8.3147 -10
vertex 7.07107 -7.07107 -10
vertex 2.5 -2.5 0
endloop
endfacet
facet normal 0.23966413064874256 -0.790076676228618 0.5642162264238082
outer loop
vertex 1.9509 -9.80785 -10
vertex 3.82683 -9.2388 -10
vertex 2.5 -2.5 0
endloop
endfacet
facet normal 0.0794745040015288 -0.8069050734144299 0.5853101790604401
outer loop
vertex 1.9509 -9.80785 -10
vertex 2.5 -2.5 0
vertex 0 -10 -10
endloop
endfacet
facet normal 0.790076676228618 -0.23966413064874256 0.5642162264238082
outer loop
vertex 9.80785 -1.9509 -10
vertex 2.5 -2.5 0
vertex 9.2388 -3.82683 -10
endloop
endfacet
facet normal 0.8069050734144299 -0.0794745040015288 0.5853101790604401
outer loop
vertex 9.80785 -1.9509 -10
vertex 10 0 -10
vertex 2.5 -2.5 0
endloop
endfacet
facet normal 0.7371236936922608 -0.394000708752548 0.5490101107447549
outer loop
vertex 8.3147 -5.5557 -10
vertex 9.2388 -3.82683 -10
vertex 2.5 -2.5 0
endloop
endfacet
facet normal 0.650099114946979 -0.5335216893046002 0.5410413549690266
outer loop
vertex 8.3147 -5.5557 -10
vertex 2.5 -2.5 0
vertex 7.07107 -7.07107 -10
endloop
endfacet
facet normal -0.394000708752548 -0.7371236936922608 0.5490101107447549
outer loop
vertex -5.5557 -8.3147 -10
vertex -3.82683 -9.2388 -10
vertex -2.5 -2.5 0
endloop
endfacet
facet normal -0.5335216893046002 -0.650099114946979 0.5410413549690266
outer loop
vertex -5.5557 -8.3147 -10
vertex -2.5 -2.5 0
vertex -7.07107 -7.07107 -10
endloop
endfacet
facet normal -0.23966413064874256 -0.790076676228618 0.5642162264238082
outer loop
vertex -1.9509 -9.80785 -10
vertex -2.5 -2.5 0
vertex -3.82683 -9.2388 -10
endloop
endfacet
facet normal 0 0 -1
outer loop
vertex -1.9509 -9.80785 -10
vertex -3.82683 -9.2388 -10
vertex -5.5557 -8.3147 -10
endloop
endfacet
facet normal 0 0 -1
outer loop
vertex -1.9509 -9.80785 -10
vertex -5.5557 -8.3147 -10
vertex -7.07107 -7.07107 -10
endloop
endfacet
facet normal 0 0 -1
outer loop
vertex -1.9509 -9.80785 -10
vertex -7.07107 -7.07107 -10
vertex -8.3147 -5.5557 -10
endloop
endfacet
facet normal 0 0 -1
outer loop
vertex -1.9509 -9.80785 -10
vertex -8.3147 -5.5557 -10
vertex -9.2388 -3.82683 -10
endloop
endfacet
facet normal 0 0 -1
outer loop
vertex -1.9509 -9.80785 -10
vertex -9.2388 -3.82683 -10
vertex -9.80785 -1.9509 -10
endloop
endfacet
facet normal 0 0 -1
outer loop
vertex -1.9509 -9.80785 -10
vertex -9.80785 -1.9509 -10
vertex -10 0 -10
endloop
endfacet
facet normal 0 0 -1
outer loop
vertex -1.9509 -9.80785 -10
vertex -10 0 -10
vertex -9.80785 1.9509 -10
endloop
endfacet
facet normal 0 0 -1
outer loop
vertex -1.9509 -9.80785 -10
vertex -9.80785 1.9509 -10
vertex -9.2388 3.82683 -10
endloop
endfacet
facet normal 0 0 -1
outer loop
vertex -1.9509 -9.80785 -10
vertex -9.2388 3.82683 -10
vertex -8.3147 5.5557 -10
endloop
endfacet
facet normal 0 0 -1
outer loop
vertex -1.9509 -9.80785 -10
vertex -8.3147 5.5557 -10
vertex -7.07107 7.07107 -10
endloop
endfacet
facet normal 0 0 -1
outer loop
vertex -1.9509 -9.80785 -10
vertex -7.07107 7.07107 -10
vertex -5.5557 8.3147 -10
endloop
endfacet
facet normal 0 0 -1
outer loop
vertex -1.9509 -9.80785 -10
vertex -5.5557 8.3147 -10
vertex -3.82683 9.2388 -10
endloop
endfacet
facet normal 0 0 -1
outer loop
vertex -1.9509 -9.80785 -10
vertex -3.82683 9.2388 -10
vertex -1.9509 9.80785 -10
endloop
endfacet
facet normal 0 0 -1
outer loop
vertex -1.9509 -9.80785 -10
vertex -1.9509 9.80785 -10
vertex 0 10 -10
endloop
endfacet
facet normal 0 0 -1
outer loop
vertex -1.9509 -9.80785 -10
vertex 0 10 -10
vertex 1.9509 9.80785 -10
endloop
endfacet
facet normal 0 0 -1
outer loop
vertex -1.9509 -9.80785 -10
vertex 1.9509 9.80785 -10
vertex 3.82683 9.2388 -10
endloop
endfacet
facet normal 0 0 -1
outer loop
vertex -1.9509 -9.80785 -10
vertex 3.82683 9.2388 -10
vertex 5.5557 8.3147 -10
endloop
endfacet
facet normal 0 0 -1
outer loop
vertex -1.9509 -9.80785 -10
vertex 5.5557 8.3147 -10
vertex 7.07107 7.07107 -10
endloop
endfacet
facet normal 0 0 -1
outer loop
vertex -1.9509 -9.80785 -10
vertex 7.07107 7.07107 -10
vertex 8.3147 5.5557 -10
endloop
endfacet
facet normal 0 0 -1
outer loop
vertex -1.9509 -9.80785 -10
vertex 8.3147 5.5557 -10
vertex 9.2388 3.82683 -10
endloop
endfacet
facet normal 0 0 -1
outer loop
vertex -1.9509 -9.80785 -10
vertex 9.2388 3.82683 -10
vertex 9.80785 1.9509 -10
endloop
endfacet
facet normal 0 0 -1
outer loop
vertex -1.9509 -9.80785 -10
vertex 9.80785 1.9509 -10
vertex 10 0 -10
endloop
endfacet
facet normal 0 0 -1
outer loop
vertex -1.9509 -9.80785 -10
vertex 10 0 -10
vertex 9.80785 -1.9509 -10
endloop
endfacet
facet normal 0 0 -1
outer loop
vertex -1.9509 -9.80785 -10
vertex 9.80785 -1.9509 -10
vertex 9.2388 -3.82683 -10
endloop
endfacet
facet normal 0 0 -1
outer loop
vertex -1.9509 -9.80785 -10
vertex 9.2388 -3.82683 -10
vertex 8.3147 -5.5557 -10
endloop
endfacet
facet normal 0 0 -1
outer loop
vertex -1.9509 -9.80785 -10
vertex 8.3147 -5.5557 -10
vertex 7.07107 -7.07107 -10
endloop
endfacet
facet normal 0 0 -1
outer loop
vertex -1.9509 -9.80785 -10
vertex 7.07107 -7.07107 -10
vertex 5.5557 -8.3147 -10
endloop
endfacet
facet normal 0 0 -1
outer loop
vertex -1.9509 -9.80785 -10
vertex 5.5557 -8.3147 -10
vertex 3.82683 -9.2388 -10
endloop
endfacet
facet normal 0 0 -1
outer loop
vertex -1.9509 -9.80785 -10
vertex 3.82683 -9.2388 -10
vertex 1.9509 -9.80785 -10
endloop
endfacet
facet normal 0 0 -1
outer loop
vertex -1.9509 -9.80785 -10
vertex 1.9509 -9.80785 -10
vertex 0 -10 -10
endloop
endfacet
facet normal -0.0794745040015288 -0.8069050734144299 0.5853101790604401
outer loop
vertex -1.9509 -9.80785 -10
vertex 0 -10 -10
vertex -2.5 -2.5 0
endloop
endfacet
facet normal 0 0.8 -0.6
outer loop
vertex -2.5 2.5 0
vertex 0 10 10
vertex 2.5 2.5 0
endloop
endfacet
facet normal -0.8 0 -0.6
outer loop
vertex -2.5 -2.5 0
vertex -10 0 10
vertex -2.5 2.5 0
endloop
endfacet
facet normal 0.394000708752548 0.7371236936922608 -0.5490101107447549
outer loop
vertex 5.5557 8.3147 10
vertex 2.5 2.5 0
vertex 3.82683 9.2388 10
endloop
endfacet
facet normal 0.5335216893046002 0.650099114946979 -0.5410413549690266
outer loop
vertex 5.5557 8.3147 10
vertex 7.07107 7.07107 10
vertex 2.5 2.5 0
endloop
endfacet
facet normal 0.23966413064874256 0.790076676228618 -0.5642162264238082
outer loop
vertex 1.9509 9.80785 10
vertex 3.82683 9.2388 10
vertex 2.5 2.5 0
endloop
endfacet
facet normal 0.0794745040015288 0.8069050734144299 -0.5853101790604401
outer loop
vertex 1.9509 9.80785 10
vertex 2.5 2.5 0
vertex 0 10 10
endloop
endfacet
facet normal 0.790076676228618 0.23966413064874256 -0.5642162264238082
outer loop
vertex 9.80785 1.9509 10
vertex 2.5 2.5 0
vertex 9.2388 3.82683 10
endloop
endfacet
facet normal 0.8069050734144299 0.0794745040015288 -0.5853101790604401
outer loop
vertex 9.80785 1.9509 10
vertex 10 0 10
vertex 2.5 2.5 0
endloop
endfacet
facet normal 0.7371236936922608 0.394000708752548 -0.5490101107447549
outer loop
vertex 8.3147 5.5557 10
vertex 9.2388 3.82683 10
vertex 2.5 2.5 0
endloop
endfacet
facet normal 0.650099114946979 0.5335216893046002 -0.5410413549690266
outer loop
vertex 8.3147 5.5557 10
vertex 2.5 2.5 0
vertex 7.07107 7.07107 10
endloop
endfacet
facet normal 0 -0.8 -0.6
outer loop
vertex 2.5 -2.5 0
vertex 0 -10 10
vertex -2.5 -2.5 0
endloop
endfacet
facet normal 0 0 -1
outer loop
vertex 2.5 -2.5 0
vertex -2.5 -2.5 0
vertex -2.5 2.5 0
endloop
endfacet
facet normal 0 0 -1
outer loop
vertex 2.5 -2.5 0
vertex -2.5 2.5 0
vertex 2.5 2.5 0
endloop
endfacet
facet normal 0.8 0 -0.6
outer loop
vertex 2.5 -2.5 0
vertex 2.5 2.5 0
vertex 10 0 10
endloop
endfacet
facet normal -0.394000708752548 0.7371236936922608 -0.5490101107447549
outer loop
vertex -5.5557 8.3147 10
vertex -3.82683 9.2388 10
vertex -2.5 2.5 0
endloop
endfacet
facet normal -0.5335216893046002 0.650099114946979 -0.5410413549690266
outer loop
vertex -5.5557 8.3147 10
vertex -2.5 2.5 0
vertex -7.07107 7.07107 10
endloop
endfacet
facet normal -0.23966413064874256 0.790076676228618 -0.5642162264238082
outer loop
vertex -1.9509 9.80785 10
vertex -2.5 2.5 0
vertex -3.82683 9.2388 10
endloop
endfacet
facet normal -0.0794745040015288 0.8069050734144299 -0.5853101790604401
outer loop
vertex -1.9509 9.80785 10
vertex 0 10 10
vertex -2.5 2.5 0
endloop
endfacet
facet normal -0.790076676228618 0.23966413064874256 -0.5642162264238082
outer loop
vertex -9.80785 1.9509 10
vertex -9.2388 3.82683 10
vertex -2.5 2.5 0
endloop
endfacet
facet normal -0.8069050734144299 0.0794745040015288 -0.5853101790604401
outer loop
vertex -9.80785 1.9509 10
vertex -2.5 2.5 0
vertex -10 0 10
endloop
endfacet
facet normal -0.7371236936922608 0.394000708752548 -0.5490101107447549
outer loop
vertex -8.3147 5.5557 10
vertex -2.5 2.5 0
vertex -9.2388 3.82683 10
endloop
endfacet
facet normal -0.650099114946979 0.5335216893046002 -0.5410413549690266
outer loop
vertex -8.3147 5.5557 10
vertex -7.07107 7.07107 10
vertex -2.5 2.5 0
endloop
endfacet
facet normal -0.7371236936922608 -0.394000708752548 -0.5490101107447549
outer loop
vertex -8.3147 -5.5557 10
vertex -9.2388 -3.82683 10
vertex -2.5 -2.5 0
endloop
endfacet
facet normal -0.650099114946979 -0.5335216893046002 -0.5410413549690266
outer loop
vertex -8.3147 -5.5557 10
vertex -2.5 -2.5 0
vertex -7.07107 -7.07107 10
endloop
endfacet
facet normal -0.790076676228618 -0.23966413064874256 -0.5642162264238082
outer loop
vertex -9.80785 -1.9509 10
vertex -2.5 -2.5 0
vertex -9.2388 -3.82683 10
endloop
endfacet
facet normal -0.8069050734144299 -0.0794745040015288 -0.5853101790604401
outer loop
vertex -9.80785 -1.9509 10
vertex -10 0 10
vertex -2.5 -2.5 0
endloop
endfacet
facet normal -0.23966413064874256 -0.790076676228618 -0.5642162264238082
outer loop
vertex -1.9509 -9.80785 10
vertex -3.82683 -9.2388 10
vertex -2.5 -2.5 0
endloop
endfacet
facet normal -0.0794745040015288 -0.8069050734144299 -0.5853101790604401
outer loop
vertex -1.9509 -9.80785 10
vertex -2.5 -2.5 0
vertex 0 -10 10
endloop
endfacet
facet normal -0.394000708752548 -0.7371236936922608 -0.5490101107447549
outer loop
vertex -5.5557 -8.3147 10
vertex -2.5 -2.5 0
vertex -3.82683 -9.2388 10
endloop
endfacet
facet normal -0.5335216893046002 -0.650099114946979 -0.5410413549690266
outer loop
vertex -5.5557 -8.3147 10
vertex -7.07107 -7.07107 10
vertex -2.5 -2.5 0
endloop
endfacet
facet normal 0.7371236936922608 -0.394000708752548 -0.5490101107447549
outer loop
vertex 8.3147 -5.5557 10
vertex 2.5 -2.5 0
vertex 9.2388 -3.82683 10
endloop
endfacet
facet normal 0.650099114946979 -0.5335216893046002 -0.5410413549690266
outer loop
vertex 8.3147 -5.5557 10
vertex 7.07107 -7.07107 10
vertex 2.5 -2.5 0
endloop
endfacet
facet normal 0.790076676228618 -0.23966413064874256 -0.5642162264238082
outer loop
vertex 9.80785 -1.9509 10
vertex 9.2388 -3.82683 10
vertex 2.5 -2.5 0
endloop
endfacet
facet normal 0.8069050734144299 -0.0794745040015288 -0.5853101790604401
outer loop
vertex 9.80785 -1.9509 10
vertex 2.5 -2.5 0
vertex 10 0 10
endloop
endfacet
facet normal 0.23966413064874256 -0.790076676228618 -0.5642162264238082
outer loop
vertex 1.9509 -9.80785 10
vertex 2.5 -2.5 0
vertex 3.82683 -9.2388 10
endloop
endfacet
facet normal 0.0794745040015288 -0.8069050734144299 -0.5853101790604401
outer loop
vertex 1.9509 -9.80785 10
vertex 0 -10 10
vertex 2.5 -2.5 0
endloop
endfacet
facet normal 0 0 1
outer loop
vertex 5.5557 -8.3147 10
vertex 7.07107 -7.07107 10
vertex 8.3147 -5.5557 10
endloop
endfacet
facet normal 0 0 1
outer loop
vertex 5.5557 -8.3147 10
vertex 8.3147 -5.5557 10
vertex 9.2388 -3.82683 10
endloop
endfacet
facet normal 0 0 1
outer loop
vertex 5.5557 -8.3147 10
vertex 9.2388 -3.82683 10
vertex 9.80785 -1.9509 10
endloop
endfacet
facet normal 0 0 1
outer loop
vertex 5.5557 -8.3147 10
vertex 9.80785 -1.9509 10
vertex 10 0 10
endloop
endfacet
facet normal 0 0 1
outer loop
vertex 5.5557 -8.3147 10
vertex 10 0 10
vertex 9.80785 1.9509 10
endloop
endfacet
facet normal 0 0 1
outer loop
vertex 5.5557 -8.3147 10
vertex 9.80785 1.9509 10
vertex 9.2388 3.82683 10
endloop
endfacet
facet normal 0 0 1
outer loop
vertex 5.5557 -8.3147 10
vertex 9.2388 3.82683 10
vertex 8.3147 5.5557 10
endloop
endfacet
facet normal 0 0 1
outer loop
vertex 5.5557 -8.3147 10
vertex 8.3147 5.5557 10
vertex 7.07107 7.07107 10
endloop
endfacet
facet normal 0 0 1
outer loop
vertex 5.5557 -8.3147 10
vertex 7.07107 7.07107 10
vertex 5.5557 8.3147 10
endloop
endfacet
facet normal 0 0 1
outer loop
vertex 5.5557 -8.3147 10
vertex 5.5557 8.3147 10
vertex 3.82683 9.2388 10
endloop
endfacet
facet normal 0 0 1
outer loop
vertex 5.5557 -8.3147 10
vertex 3.82683 9.2388 10
vertex 1.9509 9.80785 10
endloop
endfacet
facet normal 0 0 1
outer loop
vertex 5.5557 -8.3147 10
vertex 1.9509 9.80785 10
vertex 0 10 10
endloop
endfacet
facet normal 0 0 1
outer loop
vertex 5.5557 -8.3147 10
vertex 0 10 10
vertex -1.9509 9.80785 10
endloop
endfacet
facet normal 0 0 1
outer loop
vertex 5.5557 -8.3147 10
vertex -1.9509 9.80785 10
vertex -3.82683 9.2388 10
endloop
endfacet
facet normal 0 0 1
outer loop
vertex 5.5557 -8.3147 10
vertex -3.82683 9.2388 10
vertex -5.5557 8.3147 10
endloop
endfacet
facet normal 0 0 1
outer loop
vertex 5.5557 -8.3147 10
vertex -5.5557 8.3147 10
vertex -7.07107 7.07107 10
endloop
endfacet
facet normal 0 0 1
outer loop
vertex 5.5557 -8.3147 10
vertex -7.07107 7.07107 10
vertex -8.3147 5.5557 10
endloop
endfacet
facet normal 0 0 1
outer loop
vertex 5.5557 -8.3147 10
vertex -8.3147 5.5557 10
vertex -9.2388 3.82683 10
endloop
endfacet
facet normal 0 0 1
outer loop
vertex 5.5557 -8.3147 10
vertex -9.2388 3.82683 10
vertex -9.80785 1.9509 10
endloop
endfacet
facet normal 0 0 1
outer loop
vertex 5.5557 -8.3147 10
vertex -9.80785 1.9509 10
vertex -10 0 10
endloop
endfacet
facet normal 0 0 1
outer loop
vertex 5.5557 -8.3147 10
vertex -10 0 10
vertex -9.80785 -1.9509 10
endloop
endfacet
facet normal 0 0 1
outer loop
vertex 5.5557 -8.3147 10
vertex -9.80785 -1.9509 10
vertex -9.2388 -3.82683 10
endloop
endfacet
facet normal 0 0 1
outer loop
vertex 5.5557 -8.3147 10
vertex -9.2388 -3.82683 10
vertex -8.3147 -5.5557 10
endloop
endfacet
facet normal 0 0 1
outer loop
vertex 5.5557 -8.3147 10
vertex -8.3147 -5.5557 10
vertex -7.07107 -7.07107 10
endloop
endfacet
facet normal 0 0 1
outer loop
vertex 5.5557 -8.3147 10
vertex -7.07107 -7.07107 10
vertex -5.5557 -8.3147 10
endloop
endfacet
facet normal 0 0 1
outer loop
vertex 5.5557 -8.3147 10
vertex -5.5557 -8.3147 10
vertex -3.82683 -9.2388 10
endloop
endfacet
facet normal 0 0 1
outer loop
vertex 5.5557 -8.3147 10
vertex -3.82683 -9.2388 10
vertex -1.9509 -9.80785 10
endloop
endfacet
facet normal 0 0 1
outer loop
vertex 5.5557 -8.3147 10
vertex -1.9509 -9.80785 10
vertex 0 -10 10
endloop
endfacet
facet normal 0 0 1
outer loop
vertex 5.5557 -8.3147 10
vertex 0 -10 10
vertex 1.9509 -9.80785 10
endloop
endfacet
facet normal 0 0 1
outer loop
vertex 5.5557 -8.3147 10
vertex 1.9509 -9.80785 10
vertex 3.82683 -9.2388 10
endloop
endfacet
facet normal 0.394000708752548 -0.7371236936922608 -0.5490101107447549
outer loop
vertex 5.5557 -8.3147 10
vertex 3.82683 -9.2388 10
vertex 2.5 -2.5 0
endloop
endfacet
facet normal 0.5335216893046002 -0.650099114946979 -0.5410413549690266
outer loop
vertex 5.5557 -8.3147 10
vertex 2.5 -2.5 0
vertex 7.07107 -7.07107 10
endloop
endfacet
endsolid JSxCAD
