solid JSxCAD
facet normal 0 -1 0
outer loop
vertex 7.07107 0 10
vertex 0 0 10
vertex 0 0 0
endloop
endfacet
facet normal 0 -1 0
outer loop
vertex 10 0 5.85787
vertex 10 0 10
vertex 8.28427 0 8.28427
endloop
endfacet
facet normal 0 -1 0
outer loop
vertex 7.07107 0 10
vertex 8.28427 0 8.28427
vertex 10 0 10
endloop
endfacet
facet normal -1 0 0
outer loop
vertex 0 0 10
vertex 0 5 5
vertex 0 0 0
endloop
endfacet
facet normal -1 0 0
outer loop
vertex 0 5 5
vertex 0 0 10
vertex 0 10 10
endloop
endfacet
facet normal -1 0 0
outer loop
vertex 0 7.07107 7.07107
vertex 0 10 10
vertex 0 10 4.14214
endloop
endfacet
facet normal -1 0 0
outer loop
vertex 0 5 5
vertex 0 10 0
vertex 0 0 0
endloop
endfacet
facet normal -1 0 0
outer loop
vertex 0 7.07107 7.07107
vertex 0 10 0
vertex 0 5 5
endloop
endfacet
facet normal -1 0 0
outer loop
vertex 0 10 0
vertex 0 7.07107 7.07107
vertex 0 10 4.14214
endloop
endfacet
facet normal 0 1 0
outer loop
vertex 0 10 4.14214
vertex 0 10 10
vertex 5.85786 10 4.14214
endloop
endfacet
facet normal 0 1 0
outer loop
vertex 5.85786 10 4.14214
vertex 10 10 10
vertex 10 10 4.14214
endloop
endfacet
facet normal 0 1 0
outer loop
vertex 10 10 10
vertex 5.85786 10 4.14214
vertex 0 10 10
endloop
endfacet
facet normal 0 1 0
outer loop
vertex 7.73459 10 0.93836
vertex 10 10 0
vertex 7.07107 10 0
endloop
endfacet
facet normal 0 1 0
outer loop
vertex 7.73459 10 0.93836
vertex 8.28427 10 1.71573
vertex 10 10 0
endloop
endfacet
facet normal 0 1 0
outer loop
vertex 10 10 4.14214
vertex 10 10 0
vertex 8.28427 10 1.71573
endloop
endfacet
facet normal 0 1 0
outer loop
vertex 6.51239 10 0.79009
vertex 0 10 4.14214
vertex 5.85787 10 1.71573
endloop
endfacet
facet normal 0 1 0
outer loop
vertex 0 10 4.14214
vertex 6.51239 10 0.79009
vertex 0 10 0
endloop
endfacet
facet normal 0 1 0
outer loop
vertex 6.51239 10 0.79009
vertex 7.07107 10 0
vertex 0 10 0
endloop
endfacet
facet normal 0 1 0
outer loop
vertex 5.85787 10 1.71573
vertex 0 10 4.14214
vertex 4.14213 10 4.14214
endloop
endfacet
facet normal 1 0 0
outer loop
vertex 10 10 4.14214
vertex 10 10 10
vertex 10 7.07107 7.07107
endloop
endfacet
facet normal 1 0 0
outer loop
vertex 10 7.07107 7.07107
vertex 10 10 10
vertex 10 4.14214 10
endloop
endfacet
facet normal 1 0 0
outer loop
vertex 10 5.85787 0
vertex 10 10 0
vertex 10 10 4.14214
endloop
endfacet
facet normal 1 0 0
outer loop
vertex 10 2.92893 8.7868
vertex 10 0 10
vertex 10 0 5.85787
endloop
endfacet
facet normal 1 0 0
outer loop
vertex 10 2.92893 8.7868
vertex 10 4.14214 10
vertex 10 0 10
endloop
endfacet
facet normal 0 0 1
outer loop
vertex 0 10 10
vertex 0 0 10
vertex 7.07107 0 10
endloop
endfacet
facet normal 0 0 1
outer loop
vertex 5.85786 4.14214 10
vertex 10 10 10
vertex 0 10 10
endloop
endfacet
facet normal 0 0 1
outer loop
vertex 10 10 10
vertex 5.85786 4.14214 10
vertex 10 4.14214 10
endloop
endfacet
facet normal 0 0 1
outer loop
vertex 4.14213 4.14214 10
vertex 5.85786 4.14214 10
vertex 0 10 10
endloop
endfacet
facet normal 0 0 1
outer loop
vertex 8.28427 1.71573 10
vertex 10 0 10
vertex 10 4.14214 10
endloop
endfacet
facet normal 0 0 1
outer loop
vertex 8.04738 1.38071 10
vertex 10 0 10
vertex 8.28427 1.71573 10
endloop
endfacet
facet normal 0 0 1
outer loop
vertex 8.04738 1.38071 10
vertex 7.07107 0 10
vertex 10 0 10
endloop
endfacet
facet normal 0 0 -1
outer loop
vertex 10 5.85787 0
vertex 7.07107 10 0
vertex 10 10 0
endloop
endfacet
facet normal 0 0 -1
outer loop
vertex 5.46918 7.73459 0
vertex 0 10 0
vertex 7.07107 10 0
endloop
endfacet
facet normal 0 0 -1
outer loop
vertex 5.46918 7.73459 0
vertex 4.14214 5.85786 0
vertex 0 10 0
endloop
endfacet
facet normal 0 0 -1
outer loop
vertex 0 10 0
vertex 4.14214 5.85786 0
vertex 0 0 0
endloop
endfacet
facet normal 0.7071067470708408 0.5000000241234464 -0.5000000241234464
outer loop
vertex 4.14214 0 5.85787
vertex 0 0 0
vertex 0 7.07107 7.07107
endloop
endfacet
facet normal 0.7071069970701295 0.5000009579585877 -0.4999987367333629
outer loop
vertex 0 7.07107 7.07107
vertex 4.14213 4.14214 10
vertex 7.07107 0 10
endloop
endfacet
facet normal 0.7071066405931705 0.49999999293672664 -0.5000002058922716
outer loop
vertex 0 7.07107 7.07107
vertex 7.07107 0 10
vertex 4.14214 0 5.85787
endloop
endfacet
facet normal 0 -0.7071067811865474 -0.7071067811865477
outer loop
vertex 7.07107 10 4.14214
vertex 0 7.07107 7.07107
vertex 4.14213 10 4.14214
endloop
endfacet
facet normal 1.529807005006622e-16 -0.7071067811865475 -0.7071067811865475
outer loop
vertex 7.07107 10 4.14214
vertex 4.14213 4.14214 10
vertex 0 7.07107 7.07107
endloop
endfacet
facet normal 0 -0.7071067811865476 -0.7071067811865476
outer loop
vertex 4.14213 4.14214 10
vertex 7.07107 10 4.14214
vertex 7.07107 4.14214 10
endloop
endfacet
facet normal 0 -0.7071067811865476 -0.7071067811865476
outer loop
vertex 10 4.14214 10
vertex 7.83612 4.14214 10
vertex 10.00001 10 4.14214
endloop
endfacet
facet normal 0 -0.7071067811865476 -0.7071067811865476
outer loop
vertex 7.83612 4.14214 10
vertex 7.07107 10 4.14214
vertex 10.00001 10 4.14214
endloop
endfacet
facet normal 0 -0.7071067811865476 -0.7071067811865476
outer loop
vertex 7.07107 10 4.14214
vertex 7.83612 4.14214 10
vertex 7.07107 4.14214 10
endloop
endfacet
facet normal -0.7071075128069083 -0.4999986291133298 0.5000003362167058
outer loop
vertex 8.91806 7.38796 0
vertex 10 5.85786 0
vertex 10 8.7868 2.92893
endloop
endfacet
facet normal -0.7071066956290547 -0.49999961553418326 0.5000005054619728
outer loop
vertex 8.91806 7.38796 0
vertex 10 8.7868 2.92893
vertex 7.07107 10 0
endloop
endfacet
facet normal -0.7071068153017372 -0.4999991223236584 0.500000829428718
outer loop
vertex 10 8.7868 2.92893
vertex 10.00001 10 4.14214
vertex 7.07107 10 0
endloop
endfacet
facet normal -0.7071069800274249 0.4999998593982277 -0.49999985939822783
outer loop
vertex 8.28427 1.71573 10
vertex 10 4.14214 10
vertex 10 1.21321 7.07107
endloop
endfacet
facet normal -0.7071065653020274 0.5000001526533616 -0.5000001526533613
outer loop
vertex 8.04738 1.38071 10
vertex 10 0 5.85787
vertex 7.07107 0 10
endloop
endfacet
facet normal -0.7071094794917041 0.4999960313489477 -0.5000001526482504
outer loop
vertex 8.04738 1.38071 10
vertex 10 1.21321 7.07107
vertex 10 0 5.85787
endloop
endfacet
facet normal -0.7071111594920089 0.499992724530062 -0.5000010835376985
outer loop
vertex 10 1.21321 7.07107
vertex 8.04738 1.38071 10
vertex 8.28427 1.71573 10
endloop
endfacet
facet normal 0.7071069915395556 -0.4999996067887866 0.5000000957269284
outer loop
vertex 5.46918 7.73459 0
vertex 0 7.07107 7.07107
vertex 4.14214 5.85787 0
endloop
endfacet
facet normal 0.7071069970709559 -0.499999593434799 0.5000001012583205
outer loop
vertex 0 7.07107 7.07107
vertex 5.46918 7.73459 0
vertex 4.14213 10 4.14214
endloop
endfacet
facet normal 0.7071061403702729 -0.5000005540708907 0.5000003521793341
outer loop
vertex 5.46918 7.73459 0
vertex 7.07107 10 0
vertex 4.14213 10 4.14214
endloop
endfacet
facet normal 0.7071067470708408 -0.5000000241234464 0.5000000241234464
outer loop
vertex 4.14214 5.85787 0
vertex 0 7.07107 7.07107
vertex 0 0 0
endloop
endfacet
endsolid JSxCAD
