solid JSxCAD
facet normal 1 0 0
outer loop
vertex 10 10 4.14214
vertex 10 5.85786 0
vertex 10 10 0
endloop
endfacet
facet normal 1 0 0
outer loop
vertex 10 1.2132 7.07107
vertex 10 4.14214 10
vertex 10 0 10
endloop
endfacet
facet normal 1 0 0
outer loop
vertex 10 1.2132 7.07107
vertex 10 0 10
vertex 10 0 5.85786
endloop
endfacet
facet normal 1 4.1413527422025204e-16 0
outer loop
vertex 10 10 10
vertex 10 7.07107 7.07107
vertex 10 10 4.14214
endloop
endfacet
facet normal 1 0 0
outer loop
vertex 10 4.14214 10
vertex 10 7.07107 7.07107
vertex 10 10 10
endloop
endfacet
facet normal 0 0 -1
outer loop
vertex 10 5.85786 0
vertex 7.07107 10 0
vertex 10 10 0
endloop
endfacet
facet normal 0 0 -0.9999999999999999
outer loop
vertex 4.14214 5.85786 0
vertex 0 10 0
vertex 7.07107 10 0
endloop
endfacet
facet normal 0 0 -1
outer loop
vertex 0 10 0
vertex 4.14214 5.85786 0
vertex 0 0 0
endloop
endfacet
facet normal -1 0 0
outer loop
vertex 0 0 0
vertex 0 0 10
vertex 0 5 5
endloop
endfacet
facet normal -1 0 0
outer loop
vertex 0 5 5
vertex 0 0 10
vertex 0 10 10
endloop
endfacet
facet normal -1 0 0
outer loop
vertex 0 5 5
vertex 0 10 0
vertex 0 0 0
endloop
endfacet
facet normal -1 0 0
outer loop
vertex 0 5 5
vertex 0 10 10
vertex 0 10 0
endloop
endfacet
facet normal 0 0 1
outer loop
vertex 7.07107 0 10
vertex 4.14214 4.14214 10
vertex 0 10 10
endloop
endfacet
facet normal 0 0 1
outer loop
vertex 7.07107 0 10
vertex 0 10 10
vertex 0 0 10
endloop
endfacet
facet normal 0 0 0.9999999999999999
outer loop
vertex 8.28427 1.71573 10
vertex 10 0 10
vertex 10 4.14214 10
endloop
endfacet
facet normal 0 0 1
outer loop
vertex 7.07107 0 10
vertex 10 0 10
vertex 8.28427 1.71573 10
endloop
endfacet
facet normal 0 0 1
outer loop
vertex 7.07107 4.14214 10
vertex 10 4.14214 10
vertex 10 10 10
endloop
endfacet
facet normal 0 0 1
outer loop
vertex 7.07107 4.14214 10
vertex 10 10 10
vertex 0 10 10
endloop
endfacet
facet normal 0 0 0.9999999999999999
outer loop
vertex 7.07107 4.14214 10
vertex 0 10 10
vertex 5.85786 4.14214 10
endloop
endfacet
facet normal 0 0 1
outer loop
vertex 5.85786 4.14214 10
vertex 0 10 10
vertex 4.14214 4.14214 10
endloop
endfacet
facet normal 0 0.9999999999999999 0
outer loop
vertex 8.28427 10 1.71573
vertex 10 10 0
vertex 7.07107 10 0
endloop
endfacet
facet normal 0 1 0
outer loop
vertex 8.28427 10 1.71573
vertex 10 10 4.14214
vertex 10 10 0
endloop
endfacet
facet normal 0 1 0
outer loop
vertex 4.14214 10 4.14214
vertex 7.07107 10 0
vertex 0 10 0
endloop
endfacet
facet normal 0 1 0
outer loop
vertex 4.14214 10 4.14214
vertex 0 10 0
vertex 0 10 10
endloop
endfacet
facet normal 0 1 0
outer loop
vertex 4.14214 10 4.14214
vertex 0 10 10
vertex 5.85786 10 4.14214
endloop
endfacet
facet normal 0 0.9999999999999999 -1.99960967799791e-15
outer loop
vertex 7.07107 10 4.14214
vertex 5.85786 10 4.14214
vertex 0 10 10
endloop
endfacet
facet normal 0 1 0
outer loop
vertex 7.07107 10 4.14214
vertex 0 10 10
vertex 10 10 10
endloop
endfacet
facet normal 0 1 0
outer loop
vertex 7.07107 10 4.14214
vertex 10 10 10
vertex 10 10 4.14214
endloop
endfacet
facet normal 0 -1 0
outer loop
vertex 0 0 0
vertex 4.14214 0 5.85786
vertex 7.07107 0 10
endloop
endfacet
facet normal 0 -1 0
outer loop
vertex 0 0 0
vertex 7.07107 0 10
vertex 0 0 10
endloop
endfacet
facet normal 0 -1 0
outer loop
vertex 10 0 5.85786
vertex 10 0 10
vertex 8.28427 0 8.28427
endloop
endfacet
facet normal 0 -0.9999999999999999 0
outer loop
vertex 7.07107 0 10
vertex 8.28427 0 8.28427
vertex 10 0 10
endloop
endfacet
facet normal 0.7071061435172277 0.5000004508998935 -0.5000004508998935
outer loop
vertex 4.14214 0 5.85786
vertex 0 0 0
vertex 0 5 5
endloop
endfacet
facet normal 0.7071061435172277 0.5000004508998934 -0.5000004508998934
outer loop
vertex 4.14214 0 5.85786
vertex 0 5 5
vertex 0 7.07107 7.07107
endloop
endfacet
facet normal 0.7071061435172278 0.5000004508998935 -0.5000004508998934
outer loop
vertex 4.14214 0 5.85786
vertex 0 7.07107 7.07107
vertex 4.14214 4.14214 10
endloop
endfacet
facet normal 0.7071074188552923 0.4999995490996998 -0.49999954909969974
outer loop
vertex 4.14214 0 5.85786
vertex 4.14214 4.14214 10
vertex 7.07107 0 10
endloop
endfacet
facet normal 0.7071061435149278 -0.5000022544970281 0.4999986472995058
outer loop
vertex 7.07107 10 0
vertex 4.14214 10 4.14214
vertex 0 7.07107 7.07107
endloop
endfacet
facet normal 0.7071068905928537 -0.49999917556242096 0.5000006697125569
outer loop
vertex 7.07107 10 0
vertex 0 7.07107 7.07107
vertex 4.14214 5.85786 0
endloop
endfacet
facet normal 0.7071061435172274 -0.5000004508998933 0.500000450899894
outer loop
vertex 4.14214 5.85786 0
vertex 0 7.07107 7.07107
vertex 0 5 5
endloop
endfacet
facet normal 0.7071061435172279 -0.5000004508998936 0.5000004508998935
outer loop
vertex 4.14214 5.85786 0
vertex 0 5 5
vertex 0 0 0
endloop
endfacet
facet normal 0 -0.7071067811865477 -0.7071067811865474
outer loop
vertex 5.85786 4.14214 10
vertex 4.14214 4.14214 10
vertex 0 7.07107 7.07107
endloop
endfacet
facet normal 3.4308063817080514e-16 -0.7071067811865477 -0.7071067811865475
outer loop
vertex 5.85786 4.14214 10
vertex 0 7.07107 7.07107
vertex 4.14214 10 4.14214
endloop
endfacet
facet normal 0 -0.7071067811865476 -0.7071067811865476
outer loop
vertex 5.85786 4.14214 10
vertex 4.14214 10 4.14214
vertex 5.85786 10 4.14214
endloop
endfacet
facet normal 0 -0.7071067811865477 -0.7071067811865474
outer loop
vertex 5.85786 4.14214 10
vertex 5.85786 10 4.14214
vertex 7.07107 10 4.14214
endloop
endfacet
facet normal 0 -0.7071067811865476 -0.7071067811865476
outer loop
vertex 5.85786 4.14214 10
vertex 7.07107 10 4.14214
vertex 7.07107 4.14214 10
endloop
endfacet
facet normal 0 -0.7071067811865472 -0.7071067811865478
outer loop
vertex 7.07107 10 4.14214
vertex 10 10 4.14214
vertex 10 7.07107 7.07107
endloop
endfacet
facet normal -1.171351442918762e-15 -0.7071067811865478 -0.7071067811865472
outer loop
vertex 7.07107 10 4.14214
vertex 10 7.07107 7.07107
vertex 10 4.14214 10
endloop
endfacet
facet normal 0 -0.7071067811865475 -0.7071067811865476
outer loop
vertex 7.07107 10 4.14214
vertex 10 4.14214 10
vertex 7.07107 4.14214 10
endloop
endfacet
facet normal -0.7071077291536555 -0.4999997685133813 0.4999988908564953
outer loop
vertex 8.28427 10 1.71573
vertex 7.07107 10 0
vertex 10 5.85786 0
endloop
endfacet
facet normal -0.7071069800274249 -0.4999998593982271 0.4999998593982279
outer loop
vertex 8.28427 10 1.71573
vertex 10 5.85786 0
vertex 10 10 4.14214
endloop
endfacet
facet normal -0.7071063764734961 0.49999943262139146 -0.5000011397275103
outer loop
vertex 8.28427 1.71573 10
vertex 10 4.14214 10
vertex 10 1.2132 7.07107
endloop
endfacet
facet normal -0.707105522915425 0.5000029503873958 -0.4999988290650314
outer loop
vertex 10 1.2132 7.07107
vertex 10 0 5.85786
vertex 8.28427 0 8.28427
endloop
endfacet
facet normal -0.7071055229094719 0.5000044486321833 -0.49999733081182407
outer loop
vertex 10 1.2132 7.07107
vertex 8.28427 0 8.28427
vertex 7.07107 0 10
endloop
endfacet
facet normal -0.7071069970694649 0.49999837319664203 -0.5000013214943689
outer loop
vertex 10 1.2132 7.07107
vertex 7.07107 0 10
vertex 8.28427 1.71573 10
endloop
endfacet
endsolid JSxCAD
