solid JSCAD
facet normal 0 0 -1
outer loop
vertex 30.000000000000004 30 0
vertex 29.999999999999996 -7.105427357601002e-15 0
vertex 1.7763568394002505e-15 30.000000000000007 0
endloop
endfacet
facet normal 1 -2.368475785867e-16 0
outer loop
vertex 30.000000000000004 30 0
vertex 30.000000000000004 30 30
vertex 29.999999999999996 -7.105427357601002e-15 30
endloop
endfacet
facet normal 1 -2.368475785867e-16 0
outer loop
vertex 30.000000000000004 30 0
vertex 29.999999999999996 -7.105427357601002e-15 30
vertex 29.999999999999996 -7.105427357601002e-15 0
endloop
endfacet
facet normal -0.7071067811865477 -0.7071067811865472 0
outer loop
vertex 29.999999999999996 -7.105427357601002e-15 0
vertex 29.999999999999996 -7.105427357601002e-15 30
vertex 1.7763568394002505e-15 30.000000000000007 30
endloop
endfacet
facet normal -0.7071067811865477 -0.7071067811865472 0
outer loop
vertex 29.999999999999996 -7.105427357601002e-15 0
vertex 1.7763568394002505e-15 30.000000000000007 30
vertex 1.7763568394002505e-15 30.000000000000007 0
endloop
endfacet
facet normal 2.3684757858670006e-16 1 0
outer loop
vertex 1.7763568394002505e-15 30.000000000000007 0
vertex 1.7763568394002505e-15 30.000000000000007 30
vertex 30.000000000000004 30 30
endloop
endfacet
facet normal 2.3684757858670006e-16 1 0
outer loop
vertex 1.7763568394002505e-15 30.000000000000007 0
vertex 30.000000000000004 30 30
vertex 30.000000000000004 30 0
endloop
endfacet
facet normal 0 0 1
outer loop
vertex 1.7763568394002505e-15 30.000000000000007 30
vertex 29.999999999999996 -7.105427357601002e-15 30
vertex 30.000000000000004 30 30
endloop
endfacet
facet normal 0 0 -1
outer loop
vertex -5.329070518200751e-15 1.7763568394002505e-15 0
vertex 1.7763568394002505e-15 30.000000000000007 0
vertex 29.999999999999996 -7.105427357601002e-15 0
endloop
endfacet
facet normal -1 2.368475785867e-16 0
outer loop
vertex -5.329070518200751e-15 1.7763568394002505e-15 0
vertex -5.329070518200751e-15 1.7763568394002505e-15 30
vertex 1.7763568394002505e-15 30.000000000000007 30
endloop
endfacet
facet normal -1 2.368475785867e-16 0
outer loop
vertex -5.329070518200751e-15 1.7763568394002505e-15 0
vertex 1.7763568394002505e-15 30.000000000000007 30
vertex 1.7763568394002505e-15 30.000000000000007 0
endloop
endfacet
facet normal 0.7071067811865477 0.7071067811865472 0
outer loop
vertex 1.7763568394002505e-15 30.000000000000007 0
vertex 1.7763568394002505e-15 30.000000000000007 30
vertex 29.999999999999996 -7.105427357601002e-15 30
endloop
endfacet
facet normal 0.7071067811865477 0.7071067811865472 0
outer loop
vertex 1.7763568394002505e-15 30.000000000000007 0
vertex 29.999999999999996 -7.105427357601002e-15 30
vertex 29.999999999999996 -7.105427357601002e-15 0
endloop
endfacet
facet normal -2.9605947323337506e-16 -1 0
outer loop
vertex 29.999999999999996 -7.105427357601002e-15 0
vertex 29.999999999999996 -7.105427357601002e-15 30
vertex -5.329070518200751e-15 1.7763568394002505e-15 30
endloop
endfacet
facet normal -2.9605947323337506e-16 -1 0
outer loop
vertex 29.999999999999996 -7.105427357601002e-15 0
vertex -5.329070518200751e-15 1.7763568394002505e-15 30
vertex -5.329070518200751e-15 1.7763568394002505e-15 0
endloop
endfacet
facet normal 0 0 1
outer loop
vertex 29.999999999999996 -7.105427357601002e-15 30
vertex 1.7763568394002505e-15 30.000000000000007 30
vertex -5.329070518200751e-15 1.7763568394002505e-15 30
endloop
endfacet
endsolid JSCAD
