solid JSxCAD
facet normal -1 0 0
outer loop
vertex 0 10 0
vertex 0 0 0
vertex 0 10 10
endloop
endfacet
facet normal -1 0 0
outer loop
vertex 0 10 10
vertex 0 0 0
vertex 0 0 10
endloop
endfacet
facet normal 0 0 1
outer loop
vertex 8.28427 1.71573 10
vertex 10 0 10
vertex 10 4.14213 10
endloop
endfacet
facet normal 0 0 1
outer loop
vertex 10 0 10
vertex 8.28427 1.71573 10
vertex 7.07107 0 10
endloop
endfacet
facet normal 0 0 1
outer loop
vertex 0 10 10
vertex 0 0 10
vertex 7.07107 0 10
endloop
endfacet
facet normal 0 0 1
outer loop
vertex 10 10 10
vertex 5.85786 4.14214 10
vertex 10 4.14213 10
endloop
endfacet
facet normal 0 0 1
outer loop
vertex 10 10 10
vertex 4.14213 4.14214 10
vertex 5.85786 4.14214 10
endloop
endfacet
facet normal 0 0 1
outer loop
vertex 4.14213 4.14214 10
vertex 10 10 10
vertex 0 10 10
endloop
endfacet
facet normal 0 0 -1
outer loop
vertex 0 0 0
vertex 7.07107 10 0
vertex 4.14214 5.85786 0
endloop
endfacet
facet normal 0 0 -1
outer loop
vertex 7.07107 10 0
vertex 0 0 0
vertex 0 10 0
endloop
endfacet
facet normal 0 0 -1
outer loop
vertex 7.07107 10 0
vertex 10 10 0
vertex 10 5.85787 0
endloop
endfacet
facet normal 0 -1 0
outer loop
vertex 10 0 5.85787
vertex 10 0 10
vertex 8.28427 0 8.28427
endloop
endfacet
facet normal 0 -1 0
outer loop
vertex 8.28427 0 8.28427
vertex 10 0 10
vertex 7.07107 0 10
endloop
endfacet
facet normal 0 -1 0
outer loop
vertex 7.07107 0 10
vertex 0 0 10
vertex 0 0 0
endloop
endfacet
facet normal 0 1 0
outer loop
vertex 0 10 10
vertex 7.07107 10 0
vertex 0 10 0
endloop
endfacet
facet normal 0 1 0
outer loop
vertex 8.28427 10 1.71573
vertex 10 10 0
vertex 7.07107 10 0
endloop
endfacet
facet normal 0 1 0
outer loop
vertex 8.28427 10 1.71573
vertex 10 10 4.14213
vertex 10 10 0
endloop
endfacet
facet normal 0 1 0
outer loop
vertex 4.14213 10 4.14214
vertex 0 10 10
vertex 5.85786 10 4.14214
endloop
endfacet
facet normal 0 1 0
outer loop
vertex 5.85786 10 4.14214
vertex 0 10 10
vertex 10 10 10
endloop
endfacet
facet normal 0 1 0
outer loop
vertex 5.85786 10 4.14214
vertex 10 10 10
vertex 10 10 4.14213
endloop
endfacet
facet normal 1 0 0
outer loop
vertex 10 4.14213 10
vertex 10 0 10
vertex 10 0 5.85787
endloop
endfacet
facet normal 1 0 0
outer loop
vertex 10 10 4.14213
vertex 10 5.85787 0
vertex 10 10 0
endloop
endfacet
facet normal 1 0 0
outer loop
vertex 10 10 10
vertex 10 7.07107 7.07107
vertex 10 10 4.14213
endloop
endfacet
facet normal 1 0 0
outer loop
vertex 10 4.14213 10
vertex 10 7.07107 7.07107
vertex 10 10 10
endloop
endfacet
facet normal 0.7071069970701294 -0.49999873673336276 0.5000009579585877
outer loop
vertex 5.806776442828582e-7 7.071069543027208 7.07106872182836
vertex 7.071068906406547 9.999995906058698 -0.0000025473509129420736
vertex 4.14212743137069 9.999995906058698 4.142139538661441
endloop
endfacet
facet normal 0.7071069970701294 -0.4999987367333629 0.5000009579585876
outer loop
vertex 5.806776442828582e-7 7.071069543027208 7.07106872182836
vertex 4.1421440741294395 5.8578621933859605 6.907999906973626e-7
vertex 7.071068906406547 9.999995906058698 -0.0000025473509129420736
endloop
endfacet
facet normal 0.7071069970701294 -0.499998736733363 0.5000009579585876
outer loop
vertex 4.1421440741294395 5.8578621933859605 6.907999906973626e-7
vertex 5.806776442828582e-7 7.071069543027208 7.07106872182836
vertex 0.000011106132951169613 -0.000007853199683479928 0.000007853234571018538
endloop
endfacet
facet normal 0.7071067470708408 0.5000000241234466 -0.5000000241234464
outer loop
vertex 7.071069009262609 0 10.00000072843727
vertex -0.0000031041995560698865 7.071071327418748 7.07106693741806
vertex 4.142135066941299 4.142138817907592 10.000001841509746
endloop
endfacet
facet normal 0.7071067470708408 0.5000000241234465 -0.5000000241234465
outer loop
vertex -0.0000031041995560698865 7.071071327418748 7.07106693741806
vertex 7.071069009262609 0 10.00000072843727
vertex 0 0 0
endloop
endfacet
facet normal 3.1060164532270067e-16 -0.7071067811865476 -0.7071067811865476
outer loop
vertex 4.1421300000000025 4.142140000000001 10.000000000000002
vertex 3.944304526105059e-31 7.071070000000001 7.071070000000001
vertex 4.1421300000000025 10.000000000000002 4.142140000000001
endloop
endfacet
facet normal -8.785105827640839e-16 -0.7071067811865475 -0.7071067811865475
outer loop
vertex 4.1421300000000025 4.142140000000001 10.000000000000002
vertex 4.1421300000000025 10.000000000000002 4.142140000000001
vertex 7.071070000000004 10 4.1421399999999995
endloop
endfacet
facet normal 0 -0.7071067811865478 -0.7071067811865474
outer loop
vertex 4.1421300000000025 4.142140000000001 10.000000000000002
vertex 7.071070000000004 10 4.1421399999999995
vertex 7.071070000000004 4.142140000000001 10.000000000000002
endloop
endfacet
facet normal 0 -0.7071067811865476 -0.7071067811865476
outer loop
vertex 7.071070000000003 10 4.14214
vertex 10.000010000000003 10 4.14214
vertex 10.000010000000003 4.14214 10
endloop
endfacet
facet normal 0 -0.7071067811865476 -0.7071067811865476
outer loop
vertex 7.071070000000003 10 4.14214
vertex 10.000010000000003 4.14214 10
vertex 7.071070000000003 4.14214 10
endloop
endfacet
facet normal -0.7071063885258116 -0.5000000276536238 0.5000005276520809
outer loop
vertex 10.000010000000003 10.000000000000002 4.14214
vertex 7.071070000000002 10.000000000000002 -1.7763568394002505e-15
vertex 10.000000000000002 5.857870000000001 -8.881784197001252e-16
endloop
endfacet
facet normal -0.7071057729143376 0.5000019200465073 -0.49999950586077924
outer loop
vertex 10.000011092840706 4.1421441931553415 10.000002647666118
vertex 7.071066562670595 0.000004267451286565915 9.999993987409226
vertex 8.28427018050711 1.7157329029275923 10.000002647666118
endloop
endfacet
facet normal -0.707105772923599 0.5000019200530562 -0.49999950584113284
outer loop
vertex 9.99999865743455 1.2132072274862455 7.071069126146301
vertex 7.071066562670595 0.000004267451286565915 9.999993987409226
vertex 10.000011092840706 4.1421441931553415 10.000002647666118
endloop
endfacet
facet normal -0.7071057729235987 0.5000019200530569 -0.4999995058411323
outer loop
vertex 7.071066562670595 0.000004267451286565915 9.999993987409226
vertex 9.99999865743455 1.2132072274862455 7.071069126146301
vertex 9.999994398492415 3.3473294269725784e-7 5.857862398561205
endloop
endfacet
endsolid JSxCAD
