solid JSxCAD
facet normal 0 0 1
outer loop
vertex 0 10 10
vertex 0 0 10
vertex 7.07107 0 10
endloop
endfacet
facet normal 0 0 1
outer loop
vertex 8.28427 1.71573 10
vertex 10 0 10
vertex 10 4.14214 10
endloop
endfacet
facet normal 0 0 1
outer loop
vertex 7.07107 0 10
vertex 10 0 10
vertex 8.28427 1.71573 10
endloop
endfacet
facet normal 0 0 1
outer loop
vertex 10 4.14214 10
vertex 10 10 10
vertex 0 10 10
endloop
endfacet
facet normal 0 0 1
outer loop
vertex 10 4.14214 10
vertex 0 10 10
vertex 5.85786 4.14214 10
endloop
endfacet
facet normal 0 0 1
outer loop
vertex 5.85786 4.14214 10
vertex 0 10 10
vertex 4.14214 4.14214 10
endloop
endfacet
facet normal 0 0 -1
outer loop
vertex 4.14214 5.85786 0
vertex 0 10 0
vertex 7.07107 10 0
endloop
endfacet
facet normal 0 0 -1
outer loop
vertex 0 10 0
vertex 4.14214 5.85786 0
vertex 0 0 0
endloop
endfacet
facet normal 0 0 -1
outer loop
vertex 7.07107 10 0
vertex 10 10 0
vertex 10 5.85786 0
endloop
endfacet
facet normal -1 0 0
outer loop
vertex 0 0 10
vertex 0 5 5
vertex 0 0 0
endloop
endfacet
facet normal -1 0 0
outer loop
vertex 0 5 5
vertex 0 0 10
vertex 0 10 10
endloop
endfacet
facet normal -1 0 0
outer loop
vertex 0 5 5
vertex 0 10 0
vertex 0 0 0
endloop
endfacet
facet normal -1 0 0
outer loop
vertex 0 5 5
vertex 0 10 10
vertex 0 10 0
endloop
endfacet
facet normal 1 0 0
outer loop
vertex 10 4.14214 10
vertex 10 0 10
vertex 10 0 5.85786
endloop
endfacet
facet normal 1 0 0
outer loop
vertex 10 10 4.14214
vertex 10 10 10
vertex 10 7.07107 7.07107
endloop
endfacet
facet normal 1 0 0
outer loop
vertex 10 4.14214 10
vertex 10 7.07107 7.07107
vertex 10 10 10
endloop
endfacet
facet normal 1 0 0
outer loop
vertex 10 5.85786 0
vertex 10 10 0
vertex 10 10 4.14214
endloop
endfacet
facet normal 0 -1 0
outer loop
vertex 7.07107 0 10
vertex 0 0 10
vertex 0 0 0
endloop
endfacet
facet normal 0 -1 0
outer loop
vertex 10 0 5.85786
vertex 10 0 10
vertex 8.28427 0 8.28427
endloop
endfacet
facet normal 0 -1 0
outer loop
vertex 7.07107 0 10
vertex 8.28427 0 8.28427
vertex 10 0 10
endloop
endfacet
facet normal 0 1 0
outer loop
vertex 0 10 10
vertex 7.07107 10 0
vertex 0 10 0
endloop
endfacet
facet normal 0 1 0
outer loop
vertex 5.85786 10 4.14214
vertex 4.14214 10 4.14214
vertex 0 10 10
endloop
endfacet
facet normal 0 1 0
outer loop
vertex 5.85786 10 4.14214
vertex 0 10 10
vertex 10 10 10
endloop
endfacet
facet normal 0 1 0
outer loop
vertex 5.85786 10 4.14214
vertex 10 10 10
vertex 10 10 4.14214
endloop
endfacet
facet normal 0 1 0
outer loop
vertex 8.28427 10 1.71573
vertex 10 10 0
vertex 7.07107 10 0
endloop
endfacet
facet normal 0 1 0
outer loop
vertex 10 10 4.14214
vertex 10 10 0
vertex 8.28427 10 1.71573
endloop
endfacet
facet normal 0.7071061435172278 0.5000004508998934 -0.5000004508998935
outer loop
vertex 4.14214 0 5.85786
vertex 0 0 0
vertex 0 7.07107 7.07107
endloop
endfacet
facet normal 0.7071061435172277 0.5000004508998934 -0.5000004508998934
outer loop
vertex 4.14214 0 5.85786
vertex 0 7.07107 7.07107
vertex 4.14214 4.14214 10
endloop
endfacet
facet normal 0.7071074188552923 0.49999954909969985 -0.49999954909969985
outer loop
vertex 4.14214 0 5.85786
vertex 4.14214 4.14214 10
vertex 7.07107 0 10
endloop
endfacet
facet normal 0.7071061435149276 -0.5000022544970281 0.4999986472995061
outer loop
vertex 7.07107 10 0
vertex 4.14214 10 4.14214
vertex 0 7.07107 7.07107
endloop
endfacet
facet normal 0.7071068905928537 -0.49999917556242096 0.5000006697125567
outer loop
vertex 7.07107 10 0
vertex 0 7.07107 7.07107
vertex 4.14214 5.85786 0
endloop
endfacet
facet normal 0.7071061435172278 -0.5000004508998935 0.5000004508998935
outer loop
vertex 0 7.07107 7.07107
vertex 0 0 0
vertex 4.14214 5.85786 0
endloop
endfacet
facet normal 2.070672636431923e-16 -0.7071067811865475 -0.7071067811865475
outer loop
vertex 4.14214 4.14214 10
vertex 0 7.07107 7.07107
vertex 4.14214 10 4.14214
endloop
endfacet
facet normal 0 -0.7071067811865476 -0.7071067811865476
outer loop
vertex 4.14214 4.14214 10
vertex 4.14214 10 4.14214
vertex 7.07107 10 4.14214
endloop
endfacet
facet normal 0 -0.7071067811865476 -0.7071067811865476
outer loop
vertex 4.14214 4.14214 10
vertex 7.07107 10 4.14214
vertex 7.07107 4.14214 10
endloop
endfacet
facet normal 0 -0.7071067811865476 -0.7071067811865476
outer loop
vertex 7.07107 10 4.14214
vertex 10 10 4.14214
vertex 10 4.14214 10
endloop
endfacet
facet normal 0 -0.7071067811865476 -0.7071067811865476
outer loop
vertex 7.07107 10 4.14214
vertex 10 4.14214 10
vertex 7.07107 4.14214 10
endloop
endfacet
facet normal -0.7071063764734955 0.49999943262139157 -0.500001139727511
outer loop
vertex 10 1.2132 7.07107
vertex 8.28427 1.71573 10
vertex 10 4.14214 10
endloop
endfacet
facet normal -0.7071059617441974 0.5000026400882274 -0.4999985187684221
outer loop
vertex 10 1.2132 7.07107
vertex 10 0 5.85786
vertex 7.07107 0 10
endloop
endfacet
facet normal -0.7071069970694649 0.49999837319664214 -0.5000013214943689
outer loop
vertex 10 1.2132 7.07107
vertex 7.07107 0 10
vertex 8.28427 1.71573 10
endloop
endfacet
facet normal -0.7071074188552922 -0.4999995490996999 0.4999995490996999
outer loop
vertex 7.07107 10 0
vertex 10 5.85786 0
vertex 10 10 4.14214
endloop
endfacet
endsolid JSxCAD
