<?xml version="1.0" encoding="UTF-8"?>
<!-- Generated by jsxcad -->
<!DOCTYPE svg PUBLIC "-//W3C//DTD SVG 1.1 Tiny//EN" "http://www.w3.org/Graphics/SVG/1.1/DTD/svg11-tiny.dtd">
<svg baseProfile="tiny" height="60 mm" width="60 mm" viewBox="0 0 60 60" version="1.1" stroke="black" stroke-width=".1" fill="none" xmlns="http://www.w3.org/2000/svg">
<path d="M19.39335 19.39335 L19.39311 19.39364 L17.52815 21.66621 L17.52795 21.66645 L16.1418 24.2598 L15.28815 27.07365 L15 30 L15.28815 32.92635 L16.1418 35.7402 L17.52795 38.33355 L19.39335 40.60665 L21.66645 42.47205 L24.2598 43.8582 L27.07296 44.71164 L27.07365 44.71185 L30 45 L32.92635 44.71185 L35.7402 43.8582 L38.33355 42.47205 L40.60665 40.60665 L40.60689 40.60636 L42.47205 38.33355 L43.8582 35.7402 L44.71164 32.92704 L44.71185 32.92635 L45 30 L44.71191 27.07424 L44.71185 27.07365 L43.8582 24.2598 L42.47205 21.66645 L40.60665 19.39335 L40.60636 19.39311 L38.33355 17.52795 L35.7402 16.1418 L32.92704 15.28836 L32.92635 15.28815 L30 15 L27.07365 15.28815 L24.2598 16.1418 L21.66645 17.52795 z"/>
<path d="M18.5196 2.2836 L24.1473 0.5763 L25.08771 0.4837 L25.08854 0.48362 L30 0 L35.8527 0.5763 L35.85408 0.57672 L41.4804 2.2836 L46.6671 5.0559 L51.21271 8.78622 L51.2133 8.7867 L54.9441 13.3329 L57.7164 18.5196 L59.4237 24.1473 L59.42382 24.14847 L60 30 L59.4237 35.8527 L59.42328 35.85408 L57.99078 40.57597 L57.7164 41.4804 L55.38981 45.83322 L54.9441 46.6671 L51.81337 50.48208 L51.81255 50.48308 L51.21378 51.21271 L51.2133 51.2133 L47.39827 54.34407 L47.39718 54.34496 L46.6671 54.9441 L41.4804 57.7164 L35.8527 59.4237 L30 60 L24.1473 59.4237 L24.14592 59.42328 L18.5196 57.7164 L13.3329 54.9441 L8.7867 51.2133 L8.18663 50.48208 L5.0559 46.6671 L2.2836 41.4804 L1.3397 38.36905 L0.5763 35.8527 L0.48369 34.9122 L0 30 L0.5763 24.1473 L0.85046 23.24359 L0.8508 23.24249 L2.2836 18.5196 L2.72956 17.68525 L5.0559 13.3329 L5.0563 13.33241 L8.78622 8.78729 L8.7867 8.7867 L13.3329 5.0559 z"/>
</svg>