solid JSxCAD
facet normal 0 -1 0
outer loop
vertex 40 10 0
vertex 40 10 1
vertex 0 10 0
endloop
endfacet
facet normal 0 -1 0
outer loop
vertex 0 10 0
vertex 40 10 1
vertex 0 10 1
endloop
endfacet
facet normal 0 -1 0
outer loop
vertex 40 10 1
vertex 40 10 2.5
vertex 0 10 1
endloop
endfacet
facet normal 0 -1 0
outer loop
vertex 0 10 1
vertex 40 10 2.5
vertex 0 10 2.5
endloop
endfacet
facet normal 0 -1 0
outer loop
vertex 40 0 0
vertex 40 0 1
vertex 0 0 0
endloop
endfacet
facet normal 0 -1 0
outer loop
vertex 0 0 0
vertex 40 0 1
vertex 0 0 1
endloop
endfacet
facet normal -1 0 0
outer loop
vertex 0 0 1
vertex 0 1 0
vertex 0 0 0
endloop
endfacet
facet normal -1 0 0
outer loop
vertex 0 1 0
vertex 0 0 1
vertex 0 1 0.75
endloop
endfacet
facet normal -1 0 0
outer loop
vertex 0 1 0.75
vertex 0 0 1
vertex 0 1 1
endloop
endfacet
facet normal -1 0 0
outer loop
vertex 0 3 0.25
vertex 0 4 0
vertex 0 3 0
endloop
endfacet
facet normal -1 0 0
outer loop
vertex 0 3 0.91667
vertex 0 4 0
vertex 0 3 0.25
endloop
endfacet
facet normal -1 0 0
outer loop
vertex 0 4 0
vertex 0 3 0.91667
vertex 0 4 1
endloop
endfacet
facet normal -1 0 0
outer loop
vertex 0 3 0.91667
vertex 0 3 1
vertex 0 4 1
endloop
endfacet
facet normal -1 0 0
outer loop
vertex 0 3 0.25
vertex 0 1 0
vertex 0 1 0.75
endloop
endfacet
facet normal -1 0 0
outer loop
vertex 0 1 0
vertex 0 3 0.25
vertex 0 3 0
endloop
endfacet
facet normal -1 0 0
outer loop
vertex 0 3 0.91667
vertex 0 3 0.25
vertex 0 1 0.75
endloop
endfacet
facet normal -1 0 0
outer loop
vertex 0 3 0.91667
vertex 0 1 1
vertex 0 3 1
endloop
endfacet
facet normal -1 0 0
outer loop
vertex 0 1 1
vertex 0 3 0.91667
vertex 0 1 0.75
endloop
endfacet
facet normal -1 0 0
outer loop
vertex 0 1 1
vertex 0 1 2.5
vertex 0 3 1
endloop
endfacet
facet normal -1 0 0
outer loop
vertex 0 3 1
vertex 0 1 2.5
vertex 0 3 2.5
endloop
endfacet
facet normal 0 1 0
outer loop
vertex 0 4 0
vertex 0 4 1
vertex 40 4 0
endloop
endfacet
facet normal 0 1 0
outer loop
vertex 40 4 0
vertex 0 4 1
vertex 40 4 1
endloop
endfacet
facet normal 1 0 0
outer loop
vertex 40 1 0.25
vertex 40 0 0
vertex 40 1 0
endloop
endfacet
facet normal 1 0 0
outer loop
vertex 40 1 0.25
vertex 40 0 1
vertex 40 0 0
endloop
endfacet
facet normal 1 0 0
outer loop
vertex 40 0 1
vertex 40 1 0.25
vertex 40 1 1
endloop
endfacet
facet normal 1 0 0
outer loop
vertex 40 3 0.66667
vertex 40 4 0
vertex 40 4 1
endloop
endfacet
facet normal 1 0 0
outer loop
vertex 40 4 0
vertex 40 3 0.66667
vertex 40 3 0
endloop
endfacet
facet normal 1 0 0
outer loop
vertex 40 3 0.66667
vertex 40 4 1
vertex 40 3 0.75
endloop
endfacet
facet normal 1 0 0
outer loop
vertex 40 3 0.75
vertex 40 4 1
vertex 40 3 1
endloop
endfacet
facet normal 1 0 0
outer loop
vertex 40 3 0.66667
vertex 40 1 0
vertex 40 3 0
endloop
endfacet
facet normal 1 0 0
outer loop
vertex 40 3 0.66667
vertex 40 1 0.25
vertex 40 1 0
endloop
endfacet
facet normal 1 0 0
outer loop
vertex 40 1 0.25
vertex 40 3 0.66667
vertex 40 3 0.75
endloop
endfacet
facet normal 1 0 0
outer loop
vertex 40 3 0.75
vertex 40 1 1
vertex 40 1 0.25
endloop
endfacet
facet normal 1 0 0
outer loop
vertex 40 1 1
vertex 40 3 0.75
vertex 40 3 1
endloop
endfacet
facet normal 1 0 0
outer loop
vertex 40 3 1
vertex 40 3 2.5
vertex 40 1 1
endloop
endfacet
facet normal 1 0 0
outer loop
vertex 40 1 1
vertex 40 3 2.5
vertex 40 1 2.5
endloop
endfacet
facet normal 0 0 1
outer loop
vertex 30 1 1
vertex 40 0 1
vertex 40 1 1
endloop
endfacet
facet normal 0 0 1
outer loop
vertex 30 1 1
vertex 0 0 1
vertex 40 0 1
endloop
endfacet
facet normal 0 0 1
outer loop
vertex 0 0 1
vertex 30 1 1
vertex 0 1 1
endloop
endfacet
facet normal 0 0 1
outer loop
vertex 36.66667 3 1
vertex 0 4 1
vertex 10 3 1
endloop
endfacet
facet normal 0 0 1
outer loop
vertex 0 4 1
vertex 36.66667 3 1
vertex 40 4 1
endloop
endfacet
facet normal 0 0 1
outer loop
vertex 36.66667 3 1
vertex 40 3 1
vertex 40 4 1
endloop
endfacet
facet normal 0 0 1
outer loop
vertex 10 3 1
vertex 0 4 1
vertex 0 3 1
endloop
endfacet
facet normal 0 -1 0
outer loop
vertex 40 1 1
vertex 40 1 2.5
vertex 0 1 1
endloop
endfacet
facet normal 0 -1 0
outer loop
vertex 0 1 1
vertex 40 1 2.5
vertex 0 1 2.5
endloop
endfacet
facet normal 0 1 0
outer loop
vertex 0 3 1
vertex 0 3 2.5
vertex 40 3 1
endloop
endfacet
facet normal 0 1 0
outer loop
vertex 40 3 1
vertex 0 3 2.5
vertex 40 3 2.5
endloop
endfacet
facet normal 0 0 1
outer loop
vertex 0 3 2.5
vertex 40 1 2.5
vertex 40 3 2.5
endloop
endfacet
facet normal 0 0 1
outer loop
vertex 40 1 2.5
vertex 0 3 2.5
vertex 0 1 2.5
endloop
endfacet
facet normal 0 0 -1
outer loop
vertex 40 1 0
vertex 40 0 0
vertex 30 1 0
endloop
endfacet
facet normal 0 0 -1
outer loop
vertex 0 1 0
vertex 40 0 0
vertex 0 0 0
endloop
endfacet
facet normal 0 0 -1
outer loop
vertex 40 0 0
vertex 0 1 0
vertex 30 1 0
endloop
endfacet
facet normal 0 0 -1
outer loop
vertex 13.33333 3 0
vertex 40 4 0
vertex 40 3 0
endloop
endfacet
facet normal 0 0 -1
outer loop
vertex 40 4 0
vertex 13.33333 3 0
vertex 0 4 0
endloop
endfacet
facet normal 0 0 -1
outer loop
vertex 13.33333 3 0
vertex 10 3 0
vertex 0 4 0
endloop
endfacet
facet normal 0 0 -1
outer loop
vertex 0 3 0
vertex 0 4 0
vertex 10 3 0
endloop
endfacet
facet normal 0 0 -1
outer loop
vertex 13.33333 3 0
vertex 40 3 0
vertex 40 1 0
endloop
endfacet
facet normal 0 0 -1
outer loop
vertex 13.33333 3 0
vertex 30 1 0
vertex 10 3 0
endloop
endfacet
facet normal 0 0 -1
outer loop
vertex 30 1 0
vertex 13.33333 3 0
vertex 40 1 0
endloop
endfacet
facet normal 0 0 -1
outer loop
vertex 0 3 0
vertex 30 1 0
vertex 0 1 0
endloop
endfacet
facet normal 0 0 -1
outer loop
vertex 30 1 0
vertex 0 3 0
vertex 10 3 0
endloop
endfacet
facet normal -1 0 0
outer loop
vertex 0 13 0.25
vertex 0 11 0
vertex 0 11 0.75
endloop
endfacet
facet normal -1 0 0
outer loop
vertex 0 11 0
vertex 0 13 0.25
vertex 0 13 0
endloop
endfacet
facet normal -1 0 0
outer loop
vertex 0 13 0.91667
vertex 0 13 0.25
vertex 0 11 0.75
endloop
endfacet
facet normal -1 0 0
outer loop
vertex 0 13 0.91667
vertex 0 11 1
vertex 0 13 1
endloop
endfacet
facet normal -1 0 0
outer loop
vertex 0 11 1
vertex 0 13 0.91667
vertex 0 11 0.75
endloop
endfacet
facet normal -1 0 0
outer loop
vertex 0 10 1
vertex 0 11 0
vertex 0 10 0
endloop
endfacet
facet normal -1 0 0
outer loop
vertex 0 11 0
vertex 0 10 1
vertex 0 11 0.75
endloop
endfacet
facet normal -1 0 0
outer loop
vertex 0 11 0.75
vertex 0 10 1
vertex 0 11 1
endloop
endfacet
facet normal -1 0 0
outer loop
vertex 0 10 1
vertex 0 10 2.5
vertex 0 11 1
endloop
endfacet
facet normal -1 0 0
outer loop
vertex 0 11 1
vertex 0 10 2.5
vertex 0 11 2.5
endloop
endfacet
facet normal -1 0 0
outer loop
vertex 0 13 0.25
vertex 0 14 0
vertex 0 13 0
endloop
endfacet
facet normal -1 0 0
outer loop
vertex 0 13 0.91667
vertex 0 14 0
vertex 0 13 0.25
endloop
endfacet
facet normal -1 0 0
outer loop
vertex 0 14 0
vertex 0 13 0.91667
vertex 0 14 1
endloop
endfacet
facet normal -1 0 0
outer loop
vertex 0 13 0.91667
vertex 0 13 1
vertex 0 14 1
endloop
endfacet
facet normal -1 0 0
outer loop
vertex 0 13 1
vertex 0 13 2.5
vertex 0 14 1
endloop
endfacet
facet normal -1 0 0
outer loop
vertex 0 14 1
vertex 0 13 2.5
vertex 0 14 2.5
endloop
endfacet
facet normal 0 1 0
outer loop
vertex 0 14 0
vertex 0 14 1
vertex 40 14 0
endloop
endfacet
facet normal 0 1 0
outer loop
vertex 40 14 0
vertex 0 14 1
vertex 40 14 1
endloop
endfacet
facet normal 0 1 0
outer loop
vertex 0 14 1
vertex 0 14 2.5
vertex 40 14 1
endloop
endfacet
facet normal 0 1 0
outer loop
vertex 40 14 1
vertex 0 14 2.5
vertex 40 14 2.5
endloop
endfacet
facet normal 1 0 0
outer loop
vertex 40 13 0.66667
vertex 40 11 0
vertex 40 13 0
endloop
endfacet
facet normal 1 0 0
outer loop
vertex 40 13 0.66667
vertex 40 11 0.25
vertex 40 11 0
endloop
endfacet
facet normal 1 0 0
outer loop
vertex 40 11 0.25
vertex 40 13 0.66667
vertex 40 13 0.75
endloop
endfacet
facet normal 1 0 0
outer loop
vertex 40 13 0.75
vertex 40 11 1
vertex 40 11 0.25
endloop
endfacet
facet normal 1 0 0
outer loop
vertex 40 11 1
vertex 40 13 0.75
vertex 40 13 1
endloop
endfacet
facet normal 1 0 0
outer loop
vertex 40 11 0.25
vertex 40 10 0
vertex 40 11 0
endloop
endfacet
facet normal 1 0 0
outer loop
vertex 40 11 0.25
vertex 40 10 1
vertex 40 10 0
endloop
endfacet
facet normal 1 0 0
outer loop
vertex 40 10 1
vertex 40 11 0.25
vertex 40 11 1
endloop
endfacet
facet normal 1 0 0
outer loop
vertex 40 11 1
vertex 40 11 2.5
vertex 40 10 1
endloop
endfacet
facet normal 1 0 0
outer loop
vertex 40 10 1
vertex 40 11 2.5
vertex 40 10 2.5
endloop
endfacet
facet normal 1 0 0
outer loop
vertex 40 13 0.66667
vertex 40 14 0
vertex 40 14 1
endloop
endfacet
facet normal 1 0 0
outer loop
vertex 40 14 0
vertex 40 13 0.66667
vertex 40 13 0
endloop
endfacet
facet normal 1 0 0
outer loop
vertex 40 13 0.66667
vertex 40 14 1
vertex 40 13 0.75
endloop
endfacet
facet normal 1 0 0
outer loop
vertex 40 13 0.75
vertex 40 14 1
vertex 40 13 1
endloop
endfacet
facet normal 1 0 0
outer loop
vertex 40 14 1
vertex 40 14 2.5
vertex 40 13 1
endloop
endfacet
facet normal 1 0 0
outer loop
vertex 40 13 1
vertex 40 14 2.5
vertex 40 13 2.5
endloop
endfacet
facet normal 0 0 1
outer loop
vertex 36.66667 13 1
vertex 10 13 1
vertex 30 11 1
endloop
endfacet
facet normal 0 0 1
outer loop
vertex 36.66667 13 1
vertex 40 11 1
vertex 40 13 1
endloop
endfacet
facet normal 0 0 1
outer loop
vertex 40 11 1
vertex 36.66667 13 1
vertex 30 11 1
endloop
endfacet
facet normal 0 0 1
outer loop
vertex 10 13 1
vertex 0 11 1
vertex 30 11 1
endloop
endfacet
facet normal 0 0 1
outer loop
vertex 0 11 1
vertex 10 13 1
vertex 0 13 1
endloop
endfacet
facet normal 0 1 0
outer loop
vertex 0 11 1
vertex 0 11 2.5
vertex 40 11 1
endloop
endfacet
facet normal 0 1 0
outer loop
vertex 40 11 1
vertex 0 11 2.5
vertex 40 11 2.5
endloop
endfacet
facet normal 0 -1 0
outer loop
vertex 40 13 1
vertex 40 13 2.5
vertex 0 13 1
endloop
endfacet
facet normal 0 -1 0
outer loop
vertex 0 13 1
vertex 40 13 2.5
vertex 0 13 2.5
endloop
endfacet
facet normal 0 0 1
outer loop
vertex 0 14 2.5
vertex 40 13 2.5
vertex 40 14 2.5
endloop
endfacet
facet normal 0 0 1
outer loop
vertex 40 13 2.5
vertex 0 14 2.5
vertex 0 13 2.5
endloop
endfacet
facet normal 0 0 1
outer loop
vertex 0 11 2.5
vertex 40 10 2.5
vertex 40 11 2.5
endloop
endfacet
facet normal 0 0 1
outer loop
vertex 40 10 2.5
vertex 0 11 2.5
vertex 0 10 2.5
endloop
endfacet
facet normal 0 0 -1
outer loop
vertex 13.33333 13 0
vertex 40 13 0
vertex 40 11 0
endloop
endfacet
facet normal 0 0 -1
outer loop
vertex 13.33333 13 0
vertex 30 11 0
vertex 10 13 0
endloop
endfacet
facet normal 0 0 -1
outer loop
vertex 30 11 0
vertex 13.33333 13 0
vertex 40 11 0
endloop
endfacet
facet normal 0 0 -1
outer loop
vertex 0 13 0
vertex 30 11 0
vertex 0 11 0
endloop
endfacet
facet normal 0 0 -1
outer loop
vertex 30 11 0
vertex 0 13 0
vertex 10 13 0
endloop
endfacet
facet normal 0 0 -1
outer loop
vertex 40 11 0
vertex 40 10 0
vertex 30 11 0
endloop
endfacet
facet normal 0 0 -1
outer loop
vertex 0 11 0
vertex 40 10 0
vertex 0 10 0
endloop
endfacet
facet normal 0 0 -1
outer loop
vertex 40 10 0
vertex 0 11 0
vertex 30 11 0
endloop
endfacet
facet normal 0 0 -1
outer loop
vertex 13.33333 13 0
vertex 40 14 0
vertex 40 13 0
endloop
endfacet
facet normal 0 0 -1
outer loop
vertex 40 14 0
vertex 13.33333 13 0
vertex 0 14 0
endloop
endfacet
facet normal 0 0 -1
outer loop
vertex 13.33333 13 0
vertex 10 13 0
vertex 0 14 0
endloop
endfacet
facet normal 0 0 -1
outer loop
vertex 0 13 0
vertex 0 14 0
vertex 10 13 0
endloop
endfacet
endsolid JSxCAD
