solid JSxCAD
facet normal -1 0 0
outer loop
vertex -15 -25.98076 -0.5
vertex -15 -25.98076 0.5
vertex -15 25.98076 -0.5
endloop
endfacet
facet normal -1 0 0
outer loop
vertex -15 25.98076 -0.5
vertex -15 -25.98076 0.5
vertex -15 25.98076 0.5
endloop
endfacet
facet normal 0.4999999694937756 0.8660254213972148 0
outer loop
vertex -15 25.98076 -0.5
vertex -15 25.98076 0.5
vertex 30 0 -0.5
endloop
endfacet
facet normal 0.4999999694937756 0.8660254213972148 0
outer loop
vertex 30 0 -0.5
vertex -15 25.98076 0.5
vertex 30 0 0.5
endloop
endfacet
facet normal 0.4999999694937756 -0.8660254213972148 0
outer loop
vertex 30 0 -0.5
vertex 30 0 0.5
vertex -15 -25.98076 -0.5
endloop
endfacet
facet normal 0.4999999694937756 -0.8660254213972148 0
outer loop
vertex -15 -25.98076 -0.5
vertex 30 0 0.5
vertex -15 -25.98076 0.5
endloop
endfacet
facet normal 0 0 1
outer loop
vertex 30 0 0.5
vertex -15 25.98076 0.5
vertex -15 -25.98076 0.5
endloop
endfacet
facet normal 0 0 -1
outer loop
vertex -15 -25.98076 -0.5
vertex -15 25.98076 -0.5
vertex 30 0 -0.5
endloop
endfacet
endsolid JSxCAD
