solid JSCAD
facet normal 0.3568223107369381 -3.911203963220003e-17 0.934172274562006
outer loop
vertex 6.000000000000001 7.0514618905628 7.701301822926814
vertex 6 -1.0514618905628017 7.701301822926814
vertex 7.701301822926814 -1.3322676295501878e-15 7.0514618905628
endloop
endfacet
facet normal 0.3568223107369381 -6.09615268853919e-17 0.934172274562006
outer loop
vertex 6.000000000000001 7.0514618905628 7.701301822926814
vertex 7.701301822926814 -1.3322676295501878e-15 7.0514618905628
vertex 7.701301822926815 6 7.0514618905628
endloop
endfacet
facet normal -0.5773502691896257 -0.5773502691896257 -0.5773502691896257
outer loop
vertex -1.3322676295501878e-15 -1.0514618905628 -1.701301822926814
vertex -1.0514618905628017 -1.7013018229268135 0
vertex -1.7013018229268153 4.440892098500626e-16 -1.0514618905628004
endloop
endfacet
facet normal -0.356822310736938 8.128203584718921e-17 -0.934172274562006
outer loop
vertex -1.3322676295501878e-15 -1.0514618905628 -1.701301822926814
vertex -1.7013018229268153 4.440892098500626e-16 -1.0514618905628004
vertex -1.701301822926814 6.000000000000001 -1.0514618905628004
endloop
endfacet
facet normal -0.3568223107369381 5.866805944830006e-17 -0.934172274562006
outer loop
vertex -1.3322676295501878e-15 -1.0514618905628 -1.701301822926814
vertex -1.701301822926814 6.000000000000001 -1.0514618905628004
vertex 0 7.051461890562801 -1.701301822926814
endloop
endfacet
facet normal -1 2.220446049250313e-16 0
outer loop
vertex -1.701301822926814 6.000000000000001 7.0514618905628
vertex -1.701301822926814 6.000000000000001 -1.0514618905628004
vertex -1.7013018229268153 4.440892098500626e-16 -1.0514618905628004
endloop
endfacet
facet normal -1 2.220446049250313e-16 0
outer loop
vertex -1.701301822926814 6.000000000000001 7.0514618905628
vertex -1.7013018229268153 4.440892098500626e-16 -1.0514618905628004
vertex -1.7013018229268153 4.440892098500626e-16 7.0514618905628
endloop
endfacet
facet normal 0.5773502691896257 -0.5773502691896257 0.5773502691896257
outer loop
vertex 7.0514618905628 -1.7013018229268153 6
vertex 7.701301822926814 -1.3322676295501878e-15 7.0514618905628
vertex 6 -1.0514618905628017 7.701301822926814
endloop
endfacet
facet normal 0.5773502691896257 0.5773502691896257 -0.5773502691896257
outer loop
vertex 7.051461890562801 7.701301822926814 0
vertex 7.701301822926815 6 -1.0514618905628004
vertex 6.000000000000001 7.0514618905628 -1.701301822926814
endloop
endfacet
facet normal 0 0 1
outer loop
vertex -1.3322676295501878e-15 -1.0514618905628 7.701301822926814
vertex 6 -1.0514618905628017 7.701301822926814
vertex 6.000000000000001 7.0514618905628 7.701301822926814
endloop
endfacet
facet normal 0 0 1
outer loop
vertex -1.3322676295501878e-15 -1.0514618905628 7.701301822926814
vertex 6.000000000000001 7.0514618905628 7.701301822926814
vertex 0 7.051461890562801 7.701301822926814
endloop
endfacet
facet normal -0.3568223107369381 5.866805944830006e-17 0.934172274562006
outer loop
vertex -1.3322676295501878e-15 -1.0514618905628 7.701301822926814
vertex 0 7.051461890562801 7.701301822926814
vertex -1.701301822926814 6.000000000000001 7.0514618905628
endloop
endfacet
facet normal -0.356822310736938 8.128203584718921e-17 0.934172274562006
outer loop
vertex -1.3322676295501878e-15 -1.0514618905628 7.701301822926814
vertex -1.701301822926814 6.000000000000001 7.0514618905628
vertex -1.7013018229268153 4.440892098500626e-16 7.0514618905628
endloop
endfacet
facet normal -1.9560836826728892e-16 -0.9341722745620061 -0.356822310736938
outer loop
vertex 6 -1.0514618905628017 -1.701301822926814
vertex 7.0514618905628 -1.7013018229268153 0
vertex -1.0514618905628017 -1.7013018229268135 0
endloop
endfacet
facet normal -2.765705515160513e-16 -0.934172274562006 -0.35682231073693826
outer loop
vertex 6 -1.0514618905628017 -1.701301822926814
vertex -1.0514618905628017 -1.7013018229268135 0
vertex -1.3322676295501878e-15 -1.0514618905628 -1.701301822926814
endloop
endfacet
facet normal 0 0 -1
outer loop
vertex 6 -1.0514618905628017 -1.701301822926814
vertex -1.3322676295501878e-15 -1.0514618905628 -1.701301822926814
vertex 0 7.051461890562801 -1.701301822926814
endloop
endfacet
facet normal 0 0 -1
outer loop
vertex 6 -1.0514618905628017 -1.701301822926814
vertex 0 7.051461890562801 -1.701301822926814
vertex 6.000000000000001 7.0514618905628 -1.701301822926814
endloop
endfacet
facet normal 1.0239657646550098e-16 0.934172274562006 -0.3568223107369381
outer loop
vertex -1.0514618905628004 7.701301822926815 0
vertex 7.051461890562801 7.701301822926814 0
vertex 6.000000000000001 7.0514618905628 -1.701301822926814
endloop
endfacet
facet normal 1.4224356273258114e-16 0.9341722745620061 -0.356822310736938
outer loop
vertex -1.0514618905628004 7.701301822926815 0
vertex 6.000000000000001 7.0514618905628 -1.701301822926814
vertex 0 7.051461890562801 -1.701301822926814
endloop
endfacet
facet normal -0.5773502691896257 0.5773502691896258 -0.5773502691896258
outer loop
vertex -1.0514618905628004 7.701301822926815 0
vertex 0 7.051461890562801 -1.701301822926814
vertex -1.701301822926814 6.000000000000001 -1.0514618905628004
endloop
endfacet
facet normal -2.192241822066715e-16 -1 0
outer loop
vertex -1.0514618905628017 -1.7013018229268135 6
vertex -1.0514618905628017 -1.7013018229268135 0
vertex 7.0514618905628 -1.7013018229268153 0
endloop
endfacet
facet normal -2.192241822066715e-16 -1 0
outer loop
vertex -1.0514618905628017 -1.7013018229268135 6
vertex 7.0514618905628 -1.7013018229268153 0
vertex 7.0514618905628 -1.7013018229268153 6
endloop
endfacet
facet normal -2.0479315293100194e-16 -0.934172274562006 0.356822310736938
outer loop
vertex -1.0514618905628017 -1.7013018229268135 6
vertex 7.0514618905628 -1.7013018229268153 6
vertex 6 -1.0514618905628017 7.701301822926814
endloop
endfacet
facet normal -2.8448712546516223e-16 -0.934172274562006 0.35682231073693826
outer loop
vertex -1.0514618905628017 -1.7013018229268135 6
vertex 6 -1.0514618905628017 7.701301822926814
vertex -1.3322676295501878e-15 -1.0514618905628 7.701301822926814
endloop
endfacet
facet normal -0.5773502691896257 -0.5773502691896257 0.5773502691896258
outer loop
vertex -1.0514618905628017 -1.7013018229268135 6
vertex -1.3322676295501878e-15 -1.0514618905628 7.701301822926814
vertex -1.7013018229268153 4.440892098500626e-16 7.0514618905628
endloop
endfacet
facet normal -0.9341722745620061 -0.35682231073693804 0
outer loop
vertex -1.0514618905628017 -1.7013018229268135 6
vertex -1.7013018229268153 4.440892098500626e-16 7.0514618905628
vertex -1.7013018229268153 4.440892098500626e-16 -1.0514618905628004
endloop
endfacet
facet normal -0.934172274562006 -0.35682231073693804 0
outer loop
vertex -1.0514618905628017 -1.7013018229268135 6
vertex -1.7013018229268153 4.440892098500626e-16 -1.0514618905628004
vertex -1.0514618905628017 -1.7013018229268135 0
endloop
endfacet
facet normal 0.5773502691896258 -0.5773502691896258 -0.5773502691896257
outer loop
vertex 7.701301822926814 -1.3322676295501878e-15 -1.0514618905628004
vertex 7.0514618905628 -1.7013018229268153 0
vertex 6 -1.0514618905628017 -1.701301822926814
endloop
endfacet
facet normal 0.3568223107369381 -4.514039267706668e-17 -0.934172274562006
outer loop
vertex 7.701301822926814 -1.3322676295501878e-15 -1.0514618905628004
vertex 6 -1.0514618905628017 -1.701301822926814
vertex 6.000000000000001 7.0514618905628 -1.701301822926814
endloop
endfacet
facet normal 0.35682231073693804 -5.2820312677346754e-17 -0.934172274562006
outer loop
vertex 7.701301822926814 -1.3322676295501878e-15 -1.0514618905628004
vertex 6.000000000000001 7.0514618905628 -1.701301822926814
vertex 7.701301822926815 6 -1.0514618905628004
endloop
endfacet
facet normal 1 -1.480297366166875e-16 0
outer loop
vertex 7.701301822926814 -1.3322676295501878e-15 -1.0514618905628004
vertex 7.701301822926815 6 -1.0514618905628004
vertex 7.701301822926815 6 7.0514618905628
endloop
endfacet
facet normal 1 -1.480297366166875e-16 0
outer loop
vertex 7.701301822926814 -1.3322676295501878e-15 -1.0514618905628004
vertex 7.701301822926815 6 7.0514618905628
vertex 7.701301822926814 -1.3322676295501878e-15 7.0514618905628
endloop
endfacet
facet normal 0.934172274562006 -0.35682231073693804 0
outer loop
vertex 7.701301822926814 -1.3322676295501878e-15 -1.0514618905628004
vertex 7.701301822926814 -1.3322676295501878e-15 7.0514618905628
vertex 7.0514618905628 -1.7013018229268153 6
endloop
endfacet
facet normal 0.934172274562006 -0.35682231073693804 0
outer loop
vertex 7.701301822926814 -1.3322676295501878e-15 -1.0514618905628004
vertex 7.0514618905628 -1.7013018229268153 6
vertex 7.0514618905628 -1.7013018229268153 0
endloop
endfacet
facet normal 0.5773502691896257 0.5773502691896258 0.5773502691896258
outer loop
vertex 7.051461890562801 7.701301822926814 6
vertex 6.000000000000001 7.0514618905628 7.701301822926814
vertex 7.701301822926815 6 7.0514618905628
endloop
endfacet
facet normal 0.9341722745620061 0.3568223107369381 0
outer loop
vertex 7.051461890562801 7.701301822926814 6
vertex 7.701301822926815 6 7.0514618905628
vertex 7.701301822926815 6 -1.0514618905628004
endloop
endfacet
facet normal 0.934172274562006 0.3568223107369381 0
outer loop
vertex 7.051461890562801 7.701301822926814 6
vertex 7.701301822926815 6 -1.0514618905628004
vertex 7.051461890562801 7.701301822926814 0
endloop
endfacet
facet normal 1.2192305377078383e-16 0.934172274562006 0.356822310736938
outer loop
vertex -1.0514618905628004 7.701301822926815 6
vertex 0 7.051461890562801 7.701301822926814
vertex 6.000000000000001 7.0514618905628 7.701301822926814
endloop
endfacet
facet normal 1.0239657646550097e-16 0.934172274562006 0.35682231073693815
outer loop
vertex -1.0514618905628004 7.701301822926815 6
vertex 6.000000000000001 7.0514618905628 7.701301822926814
vertex 7.051461890562801 7.701301822926814 6
endloop
endfacet
facet normal 1.0961209110333575e-16 1 0
outer loop
vertex -1.0514618905628004 7.701301822926815 6
vertex 7.051461890562801 7.701301822926814 6
vertex 7.051461890562801 7.701301822926814 0
endloop
endfacet
facet normal 1.0961209110333575e-16 1 0
outer loop
vertex -1.0514618905628004 7.701301822926815 6
vertex 7.051461890562801 7.701301822926814 0
vertex -1.0514618905628004 7.701301822926815 0
endloop
endfacet
facet normal -0.934172274562006 0.3568223107369381 0
outer loop
vertex -1.0514618905628004 7.701301822926815 6
vertex -1.0514618905628004 7.701301822926815 0
vertex -1.701301822926814 6.000000000000001 -1.0514618905628004
endloop
endfacet
facet normal -0.9341722745620061 0.3568223107369381 0
outer loop
vertex -1.0514618905628004 7.701301822926815 6
vertex -1.701301822926814 6.000000000000001 -1.0514618905628004
vertex -1.701301822926814 6.000000000000001 7.0514618905628
endloop
endfacet
facet normal -0.5773502691896256 0.5773502691896257 0.5773502691896258
outer loop
vertex -1.0514618905628004 7.701301822926815 6
vertex -1.701301822926814 6.000000000000001 7.0514618905628
vertex 0 7.051461890562801 7.701301822926814
endloop
endfacet
endsolid JSCAD
