solid JSxCAD
facet normal -1 0 0
outer loop
vertex -5 3 -3
vertex -5 -3 -3
vertex -5 -3 3
endloop
endfacet
facet normal -1 0 0
outer loop
vertex -5 3 -3
vertex -5 -3 3
vertex -5 3 3
endloop
endfacet
facet normal -0.9876874357655949 0.1564401778022 0
outer loop
vertex -4.90211 3.61803 3
vertex -4.90211 3.61803 -3
vertex -5 3 -3
endloop
endfacet
facet normal -0.9876874357655949 0.1564401778022 0
outer loop
vertex -4.90211 3.61803 3
vertex -5 3 -3
vertex -5 3 3
endloop
endfacet
facet normal 0 0.1564401778022 0.9876874357655949
outer loop
vertex 3 3.61803 4.90211
vertex -3 3.61803 4.90211
vertex -3 3 5
endloop
endfacet
facet normal 0 0.1564401778022 0.9876874357655949
outer loop
vertex 3 3.61803 4.90211
vertex -3 3 5
vertex 3 3 5
endloop
endfacet
facet normal 0.7071067811865475 0.7071067811865475 0
outer loop
vertex 4.17557 4.61803 -3
vertex 4.17557 4.61803 3
vertex 4.61803 4.17557 3
endloop
endfacet
facet normal 0.7071067811865475 0.7071067811865475 0
outer loop
vertex 4.17557 4.61803 -3
vertex 4.61803 4.17557 3
vertex 4.61803 4.17557 -3
endloop
endfacet
facet normal 1 0 0
outer loop
vertex 5 3 -3
vertex 5 3 3
vertex 5 -3 3
endloop
endfacet
facet normal 1 0 0
outer loop
vertex 5 3 -3
vertex 5 -3 3
vertex 5 -3 -3
endloop
endfacet
facet normal 0.6986100797263485 0.6986100797263485 0.15455715127256442
outer loop
vertex 4.11803 4.53884 3.61803
vertex 4.53884 4.11803 3.61803
vertex 4.61803 4.17557 3
endloop
endfacet
facet normal 0.6986100797263484 0.6986100797263484 0.15455715127256442
outer loop
vertex 4.11803 4.53884 3.61803
vertex 4.61803 4.17557 3
vertex 4.17557 4.61803 3
endloop
endfacet
facet normal 0 -1 0
outer loop
vertex -3 -5 -3
vertex 3 -5 -3
vertex 3 -5 3
endloop
endfacet
facet normal 0 -1 0
outer loop
vertex -3 -5 -3
vertex 3 -5 3
vertex -3 -5 3
endloop
endfacet
facet normal 0.1564401778022 -0.9876874357655949 0
outer loop
vertex 3.61803 -4.90211 -3
vertex 3.61803 -4.90211 3
vertex 3 -5 3
endloop
endfacet
facet normal 0.1564401778022 -0.9876874357655949 0
outer loop
vertex 3.61803 -4.90211 -3
vertex 3 -5 3
vertex 3 -5 -3
endloop
endfacet
facet normal 0.4539894605139572 -0.8910070536994902 0
outer loop
vertex 3.61803 -4.90211 -3
vertex 4.17557 -4.61803 -3
vertex 4.17557 -4.61803 3
endloop
endfacet
facet normal 0.4539894605139572 -0.8910070536994902 0
outer loop
vertex 3.61803 -4.90211 -3
vertex 4.17557 -4.61803 3
vertex 3.61803 -4.90211 3
endloop
endfacet
facet normal 0.15454404869795738 -0.9758238949852001 -0.15454404869795738
outer loop
vertex 3 -4.90211 -3.61803
vertex 3.58779 -4.80902 -3.61803
vertex 3.61803 -4.90211 -3
endloop
endfacet
facet normal 0.15456029222149295 -0.9758187496337695 -0.15456029222149295
outer loop
vertex 3 -4.90211 -3.61803
vertex 3.61803 -4.90211 -3
vertex 3 -5 -3
endloop
endfacet
facet normal 0 -0.9876874357655949 -0.1564401778022
outer loop
vertex 3 -4.90211 -3.61803
vertex 3 -5 -3
vertex -3 -5 -3
endloop
endfacet
facet normal 0 -0.9876874357655949 -0.1564401778022
outer loop
vertex 3 -4.90211 -3.61803
vertex -3 -5 -3
vertex -3 -4.90211 -3.61803
endloop
endfacet
facet normal 0 -0.7071067811865475 0.7071067811865475
outer loop
vertex 3 -4.61803 4.17557
vertex 3 -4.17557 4.61803
vertex -3 -4.17557 4.61803
endloop
endfacet
facet normal 0 -0.7071067811865475 0.7071067811865475
outer loop
vertex 3 -4.61803 4.17557
vertex -3 -4.17557 4.61803
vertex -3 -4.61803 4.17557
endloop
endfacet
facet normal 0.15454364125426248 -0.9758213222993108 0.15456069970693836
outer loop
vertex 3.58779 -4.80902 3.61803
vertex 3 -4.90211 3.61803
vertex 3 -5 3
endloop
endfacet
facet normal 0.1545606797697841 -0.9758211964257848 0.15454445598355207
outer loop
vertex 3.58779 -4.80902 3.61803
vertex 3 -5 3
vertex 3.61803 -4.90211 3
endloop
endfacet
facet normal 0.44853538765306433 -0.8803028021405553 0.1545412002231171
outer loop
vertex 3.58779 -4.80902 3.61803
vertex 3.61803 -4.90211 3
vertex 4.17557 -4.61803 3
endloop
endfacet
facet normal 0.4485475605544134 -0.8802940947086102 0.15455546817189333
outer loop
vertex 3.58779 -4.80902 3.61803
vertex 4.17557 -4.61803 3
vertex 4.11803 -4.53884 3.61803
endloop
endfacet
facet normal 0.13973280243811004 -0.8822629273778927 0.44954073330164807
outer loop
vertex 3.58779 -4.80902 3.61803
vertex 3.5 -4.53884 4.17557
vertex 3 -4.61803 4.17557
endloop
endfacet
facet normal 0.13972706602543827 -0.8822663244074794 0.44953584933399804
outer loop
vertex 3.58779 -4.80902 3.61803
vertex 3 -4.61803 4.17557
vertex 3 -4.90211 3.61803
endloop
endfacet
facet normal 0.7071067811865475 -0.7071067811865475 0
outer loop
vertex 4.61803 -4.17557 3
vertex 4.17557 -4.61803 3
vertex 4.17557 -4.61803 -3
endloop
endfacet
facet normal 0.7071067811865475 -0.7071067811865475 0
outer loop
vertex 4.61803 -4.17557 3
vertex 4.17557 -4.61803 -3
vertex 4.61803 -4.17557 -3
endloop
endfacet
facet normal 0.11130592497458844 -0.7027129538672072 0.7027129538672072
outer loop
vertex 3.36327 -4.11803 4.61803
vertex 3 -4.17557 4.61803
vertex 3 -4.61803 4.17557
endloop
endfacet
facet normal 0.11129514657464973 -0.7027096007996604 0.7027180140660327
outer loop
vertex 3.36327 -4.11803 4.61803
vertex 3 -4.61803 4.17557
vertex 3.5 -4.53884 4.17557
endloop
endfacet
facet normal 0.40552181983456437 -0.79590406428761 0.4495428501138986
outer loop
vertex 3.95106 -4.30902 4.17557
vertex 3.5 -4.53884 4.17557
vertex 3.58779 -4.80902 3.61803
endloop
endfacet
facet normal 0.40554606362240936 -0.7959017868648547 0.4495250114795619
outer loop
vertex 3.95106 -4.30902 4.17557
vertex 3.58779 -4.80902 3.61803
vertex 4.11803 -4.53884 3.61803
endloop
endfacet
facet normal 0 -0.1564401778022 -0.9876874357655949
outer loop
vertex -3 -3.61803 -4.90211
vertex -3 -3 -5
vertex 3 -3 -5
endloop
endfacet
facet normal 0 -0.1564401778022 -0.9876874357655949
outer loop
vertex -3 -3.61803 -4.90211
vertex 3 -3 -5
vertex 3 -3.61803 -4.90211
endloop
endfacet
facet normal -0.9758213222993108 0.15454364125426248 -0.15456069970693836
outer loop
vertex -4.80902 3.58779 -3.61803
vertex -4.90211 3 -3.61803
vertex -5 3 -3
endloop
endfacet
facet normal -0.9758211964257848 0.1545606797697841 -0.15454445598355207
outer loop
vertex -4.80902 3.58779 -3.61803
vertex -5 3 -3
vertex -4.90211 3.61803 -3
endloop
endfacet
facet normal 0.13973321795168936 0.8822655509009344 0.4495354552138644
outer loop
vertex 3 4.90211 3.61803
vertex 3 4.61803 4.17557
vertex 3.5 4.53884 4.17557
endloop
endfacet
facet normal 0.1397267125864255 0.882264092718605 0.449540339112306
outer loop
vertex 3 4.90211 3.61803
vertex 3.5 4.53884 4.17557
vertex 3.58779 4.80902 3.61803
endloop
endfacet
facet normal 0 1 0
outer loop
vertex -3 5 3
vertex 3 5 3
vertex 3 5 -3
endloop
endfacet
facet normal 0 1 0
outer loop
vertex -3 5 3
vertex 3 5 -3
vertex -3 5 -3
endloop
endfacet
facet normal 0.1113050192384383 0.7027072356403866 0.7027188155094305
outer loop
vertex 3 4.17557 4.61803
vertex 3.36327 4.11803 4.61803
vertex 3.5 4.53884 4.17557
endloop
endfacet
facet normal 0.11129580457057392 0.7027137553388964 0.7027137553388964
outer loop
vertex 3 4.17557 4.61803
vertex 3.5 4.53884 4.17557
vertex 3 4.61803 4.17557
endloop
endfacet
facet normal 0 0.7071067811865475 0.7071067811865475
outer loop
vertex 3 4.17557 4.61803
vertex 3 4.61803 4.17557
vertex -3 4.61803 4.17557
endloop
endfacet
facet normal 0 0.7071067811865475 0.7071067811865475
outer loop
vertex 3 4.17557 4.61803
vertex -3 4.61803 4.17557
vertex -3 4.17557 4.61803
endloop
endfacet
facet normal 0 0.4539894605139572 0.8910070536994902
outer loop
vertex 3 4.17557 4.61803
vertex -3 4.17557 4.61803
vertex -3 3.61803 4.90211
endloop
endfacet
facet normal 0 0.4539894605139572 0.8910070536994902
outer loop
vertex 3 4.17557 4.61803
vertex -3 3.61803 4.90211
vertex 3 3.61803 4.90211
endloop
endfacet
facet normal 0.6986100797263484 0.6986100797263484 -0.15455715127256442
outer loop
vertex 4.11803 4.53884 -3.61803
vertex 4.17557 4.61803 -3
vertex 4.61803 4.17557 -3
endloop
endfacet
facet normal 0.6986100797263485 0.6986100797263485 -0.15455715127256442
outer loop
vertex 4.11803 4.53884 -3.61803
vertex 4.61803 4.17557 -3
vertex 4.53884 4.11803 -3.61803
endloop
endfacet
facet normal 0.40554606362240936 0.7959017868648547 0.4495250114795619
outer loop
vertex 3.95106 4.30902 4.17557
vertex 4.11803 4.53884 3.61803
vertex 3.58779 4.80902 3.61803
endloop
endfacet
facet normal 0.40552181983456437 0.79590406428761 0.4495428501138986
outer loop
vertex 3.95106 4.30902 4.17557
vertex 3.58779 4.80902 3.61803
vertex 3.5 4.53884 4.17557
endloop
endfacet
facet normal 0.8822629273778927 -0.13973280243811004 -0.44954073330164807
outer loop
vertex 4.80902 -3.58779 -3.61803
vertex 4.53884 -3.5 -4.17557
vertex 4.61803 -3 -4.17557
endloop
endfacet
facet normal 0.8822663244074794 -0.13972706602543827 -0.44953584933399804
outer loop
vertex 4.80902 -3.58779 -3.61803
vertex 4.61803 -3 -4.17557
vertex 4.90211 -3 -3.61803
endloop
endfacet
facet normal 0.9758213222993108 -0.15454364125426248 -0.15456069970693836
outer loop
vertex 4.80902 -3.58779 -3.61803
vertex 4.90211 -3 -3.61803
vertex 5 -3 -3
endloop
endfacet
facet normal 0.9758211964257848 -0.1545606797697841 -0.15454445598355207
outer loop
vertex 4.80902 -3.58779 -3.61803
vertex 5 -3 -3
vertex 4.90211 -3.61803 -3
endloop
endfacet
facet normal -0.15454364125426248 -0.9758213222993108 -0.15456069970693836
outer loop
vertex -3.58779 -4.80902 -3.61803
vertex -3 -4.90211 -3.61803
vertex -3 -5 -3
endloop
endfacet
facet normal -0.1545606797697841 -0.9758211964257848 -0.15454445598355207
outer loop
vertex -3.58779 -4.80902 -3.61803
vertex -3 -5 -3
vertex -3.61803 -4.90211 -3
endloop
endfacet
facet normal 0.13973280243811004 -0.8822629273778927 -0.44954073330164807
outer loop
vertex 3 -4.61803 -4.17557
vertex 3.5 -4.53884 -4.17557
vertex 3.58779 -4.80902 -3.61803
endloop
endfacet
facet normal 0.13972706602543825 -0.8822663244074794 -0.44953584933399804
outer loop
vertex 3 -4.61803 -4.17557
vertex 3.58779 -4.80902 -3.61803
vertex 3 -4.90211 -3.61803
endloop
endfacet
facet normal 0.11130592497458842 -0.7027129538672072 -0.7027129538672072
outer loop
vertex 3 -4.61803 -4.17557
vertex 3 -4.17557 -4.61803
vertex 3.36327 -4.11803 -4.61803
endloop
endfacet
facet normal 0.11129514657464973 -0.7027096007996604 -0.7027180140660327
outer loop
vertex 3 -4.61803 -4.17557
vertex 3.36327 -4.11803 -4.61803
vertex 3.5 -4.53884 -4.17557
endloop
endfacet
facet normal -0.11129514657464973 -0.7027096007996604 0.7027180140660327
outer loop
vertex -3.36327 -4.11803 4.61803
vertex -3.5 -4.53884 4.17557
vertex -3 -4.61803 4.17557
endloop
endfacet
facet normal -0.11130592497458844 -0.7027129538672072 0.7027129538672072
outer loop
vertex -3.36327 -4.11803 4.61803
vertex -3 -4.61803 4.17557
vertex -3 -4.17557 4.61803
endloop
endfacet
facet normal -0.9758213222993108 -0.15454364125426248 0.15456069970693836
outer loop
vertex -4.80902 -3.58779 3.61803
vertex -4.90211 -3 3.61803
vertex -5 -3 3
endloop
endfacet
facet normal -0.9758211964257848 -0.1545606797697841 0.15454445598355207
outer loop
vertex -4.80902 -3.58779 3.61803
vertex -5 -3 3
vertex -4.90211 -3.61803 3
endloop
endfacet
facet normal 0.8910070536994902 -0.4539894605139572 0
outer loop
vertex 4.90211 -3.61803 3
vertex 4.61803 -4.17557 3
vertex 4.61803 -4.17557 -3
endloop
endfacet
facet normal 0.8910070536994902 -0.4539894605139572 0
outer loop
vertex 4.90211 -3.61803 3
vertex 4.61803 -4.17557 -3
vertex 4.90211 -3.61803 -3
endloop
endfacet
facet normal 0.9876874357655949 -0.1564401778022 0
outer loop
vertex 4.90211 -3.61803 3
vertex 4.90211 -3.61803 -3
vertex 5 -3 -3
endloop
endfacet
facet normal 0.9876874357655949 -0.1564401778022 0
outer loop
vertex 4.90211 -3.61803 3
vertex 5 -3 -3
vertex 5 -3 3
endloop
endfacet
facet normal 0 -0.4539894605139572 0.8910070536994902
outer loop
vertex 3 -3.61803 4.90211
vertex -3 -3.61803 4.90211
vertex -3 -4.17557 4.61803
endloop
endfacet
facet normal 0 -0.4539894605139572 0.8910070536994902
outer loop
vertex 3 -3.61803 4.90211
vertex -3 -4.17557 4.61803
vertex 3 -4.17557 4.61803
endloop
endfacet
facet normal 0.32298924491574654 -0.6339270854125849 0.702719288228992
outer loop
vertex 3.69098 -3.95106 4.61803
vertex 3.36327 -4.11803 4.61803
vertex 3.5 -4.53884 4.17557
endloop
endfacet
facet normal 0.3229927562632121 -0.6339270413370653 0.7027177140666996
outer loop
vertex 3.69098 -3.95106 4.61803
vertex 3.5 -4.53884 4.17557
vertex 3.95106 -4.30902 4.17557
endloop
endfacet
facet normal 0.45283343762625855 -0.07170218428012394 0.8887073053244495
outer loop
vertex 3.61803 -3 4.90211
vertex 3.58779 -3.19098 4.90211
vertex 4.11803 -3.36327 4.61803
endloop
endfacet
facet normal 0.4528202097858369 -0.07172426809556753 0.8887122633201738
outer loop
vertex 3.61803 -3 4.90211
vertex 4.11803 -3.36327 4.61803
vertex 4.17557 -3 4.61803
endloop
endfacet
facet normal 0.02476332732806032 0.15639220413733324 0.9873845533046939
outer loop
vertex 3.19098 3.58779 4.90211
vertex 3 3.61803 4.90211
vertex 3 3 5
endloop
endfacet
facet normal 0.07172530420641608 0.45282675111339954 0.8887088467054778
outer loop
vertex 3.19098 3.58779 4.90211
vertex 3.36327 4.11803 4.61803
vertex 3 4.17557 4.61803
endloop
endfacet
facet normal 0.0717002140878765 0.4528209949240292 0.8887138042450815
outer loop
vertex 3.19098 3.58779 4.90211
vertex 3 4.17557 4.61803
vertex 3 3.61803 4.90211
endloop
endfacet
facet normal -0.11129580457057392 0.7027137553388964 -0.7027137553388964
outer loop
vertex -3.5 4.53884 -4.17557
vertex -3 4.61803 -4.17557
vertex -3 4.17557 -4.61803
endloop
endfacet
facet normal -0.11130501923843829 0.7027072356403866 -0.7027188155094305
outer loop
vertex -3.5 4.53884 -4.17557
vertex -3 4.17557 -4.61803
vertex -3.36327 4.11803 -4.61803
endloop
endfacet
facet normal -0.3229927562632121 0.6339270413370653 -0.7027177140666996
outer loop
vertex -3.69098 3.95106 -4.61803
vertex -3.95106 4.30902 -4.17557
vertex -3.5 4.53884 -4.17557
endloop
endfacet
facet normal -0.32298924491574654 0.6339270854125849 -0.702719288228992
outer loop
vertex -3.69098 3.95106 -4.61803
vertex -3.5 4.53884 -4.17557
vertex -3.36327 4.11803 -4.61803
endloop
endfacet
facet normal -0.45283343762625855 0.07170218428012401 -0.8887073053244495
outer loop
vertex -4.11803 3.36327 -4.61803
vertex -3.58779 3.19098 -4.90211
vertex -3.61803 3 -4.90211
endloop
endfacet
facet normal -0.4528202097858369 0.07172426809556755 -0.8887122633201738
outer loop
vertex -4.11803 3.36327 -4.61803
vertex -3.61803 3 -4.90211
vertex -4.17557 3 -4.61803
endloop
endfacet
facet normal -0.8802940947086102 0.44854756055441336 -0.15455546817189333
outer loop
vertex -4.61803 4.17557 -3
vertex -4.53884 4.11803 -3.61803
vertex -4.80902 3.58779 -3.61803
endloop
endfacet
facet normal -0.8803028021405553 0.44853538765306433 -0.15454120022311713
outer loop
vertex -4.61803 4.17557 -3
vertex -4.80902 3.58779 -3.61803
vertex -4.90211 3.61803 -3
endloop
endfacet
facet normal -0.6986100797263485 0.6986100797263485 -0.15455715127256442
outer loop
vertex -4.11803 4.53884 -3.61803
vertex -4.53884 4.11803 -3.61803
vertex -4.61803 4.17557 -3
endloop
endfacet
facet normal -0.6986100797263484 0.6986100797263484 -0.15455715127256442
outer loop
vertex -4.11803 4.53884 -3.61803
vertex -4.61803 4.17557 -3
vertex -4.17557 4.61803 -3
endloop
endfacet
facet normal -0.4485343998176577 0.8803008633988185 -0.15455511016950618
outer loop
vertex -4.11803 4.53884 -3.61803
vertex -4.17557 4.61803 -3
vertex -3.61803 4.90211 -3
endloop
endfacet
facet normal -0.44854859927223967 0.8802961332375175 -0.15454084216797428
outer loop
vertex -4.11803 4.53884 -3.61803
vertex -3.61803 4.90211 -3
vertex -3.58779 4.80902 -3.61803
endloop
endfacet
facet normal -0.4055423168175201 0.7958944335973128 -0.44954141059427527
outer loop
vertex -4.11803 4.53884 -3.61803
vertex -3.58779 4.80902 -3.61803
vertex -3.5 4.53884 -4.17557
endloop
endfacet
facet normal -0.4055262241991131 0.7959127085860753 -0.4495235720159596
outer loop
vertex -4.11803 4.53884 -3.61803
vertex -3.5 4.53884 -4.17557
vertex -3.95106 4.30902 -4.17557
endloop
endfacet
facet normal 0 0.4539894605139572 -0.8910070536994902
outer loop
vertex 3 3.61803 -4.90211
vertex -3 3.61803 -4.90211
vertex -3 4.17557 -4.61803
endloop
endfacet
facet normal 0 0.4539894605139572 -0.8910070536994902
outer loop
vertex 3 3.61803 -4.90211
vertex -3 4.17557 -4.61803
vertex 3 4.17557 -4.61803
endloop
endfacet
facet normal 0.02476332732806032 0.15639220413733324 -0.9873845533046939
outer loop
vertex 3 3.61803 -4.90211
vertex 3.19098 3.58779 -4.90211
vertex 3 3 -5
endloop
endfacet
facet normal 0 0.7071067811865475 -0.7071067811865475
outer loop
vertex 3 4.61803 -4.17557
vertex 3 4.17557 -4.61803
vertex -3 4.17557 -4.61803
endloop
endfacet
facet normal 0 0.7071067811865475 -0.7071067811865475
outer loop
vertex 3 4.61803 -4.17557
vertex -3 4.17557 -4.61803
vertex -3 4.61803 -4.17557
endloop
endfacet
facet normal -0.15454404869795738 0.9758238949852001 -0.15454404869795738
outer loop
vertex -3 4.90211 -3.61803
vertex -3.58779 4.80902 -3.61803
vertex -3.61803 4.90211 -3
endloop
endfacet
facet normal -0.15456029222149295 0.9758187496337695 -0.15456029222149295
outer loop
vertex -3 4.90211 -3.61803
vertex -3.61803 4.90211 -3
vertex -3 5 -3
endloop
endfacet
facet normal 0 0.9876874357655949 -0.1564401778022
outer loop
vertex -3 4.90211 -3.61803
vertex -3 5 -3
vertex 3 5 -3
endloop
endfacet
facet normal 0 0.9876874357655949 -0.1564401778022
outer loop
vertex -3 4.90211 -3.61803
vertex 3 5 -3
vertex 3 4.90211 -3.61803
endloop
endfacet
facet normal 0 0.8910070536994902 -0.4539894605139572
outer loop
vertex -3 4.90211 -3.61803
vertex 3 4.90211 -3.61803
vertex 3 4.61803 -4.17557
endloop
endfacet
facet normal 0 0.8910070536994902 -0.4539894605139572
outer loop
vertex -3 4.90211 -3.61803
vertex 3 4.61803 -4.17557
vertex -3 4.61803 -4.17557
endloop
endfacet
facet normal -0.13973321795168936 0.8822655509009344 -0.4495354552138644
outer loop
vertex -3 4.90211 -3.61803
vertex -3 4.61803 -4.17557
vertex -3.5 4.53884 -4.17557
endloop
endfacet
facet normal -0.1397267125864255 0.882264092718605 -0.449540339112306
outer loop
vertex -3 4.90211 -3.61803
vertex -3.5 4.53884 -4.17557
vertex -3.58779 4.80902 -3.61803
endloop
endfacet
facet normal 0 0.8910070536994902 0.4539894605139572
outer loop
vertex -3 4.90211 3.61803
vertex -3 4.61803 4.17557
vertex 3 4.61803 4.17557
endloop
endfacet
facet normal 0 0.8910070536994902 0.4539894605139572
outer loop
vertex -3 4.90211 3.61803
vertex 3 4.61803 4.17557
vertex 3 4.90211 3.61803
endloop
endfacet
facet normal 0 0.9876874357655949 0.1564401778022
outer loop
vertex -3 4.90211 3.61803
vertex 3 4.90211 3.61803
vertex 3 5 3
endloop
endfacet
facet normal 0 0.9876874357655949 0.1564401778022
outer loop
vertex -3 4.90211 3.61803
vertex 3 5 3
vertex -3 5 3
endloop
endfacet
facet normal -0.1564401778022 0.9876874357655949 0
outer loop
vertex -3.61803 4.90211 3
vertex -3 5 3
vertex -3 5 -3
endloop
endfacet
facet normal -0.1564401778022 0.9876874357655949 0
outer loop
vertex -3.61803 4.90211 3
vertex -3 5 -3
vertex -3.61803 4.90211 -3
endloop
endfacet
facet normal -0.4539894605139572 0.8910070536994902 0
outer loop
vertex -3.61803 4.90211 3
vertex -3.61803 4.90211 -3
vertex -4.17557 4.61803 -3
endloop
endfacet
facet normal -0.4539894605139572 0.8910070536994902 0
outer loop
vertex -3.61803 4.90211 3
vertex -4.17557 4.61803 -3
vertex -4.17557 4.61803 3
endloop
endfacet
facet normal -0.07172530420641608 -0.45282675111339954 0.8887088467054778
outer loop
vertex -3.19098 -3.58779 4.90211
vertex -3.36327 -4.11803 4.61803
vertex -3 -4.17557 4.61803
endloop
endfacet
facet normal -0.0717002140878765 -0.4528209949240292 0.8887138042450815
outer loop
vertex -3.19098 -3.58779 4.90211
vertex -3 -4.17557 4.61803
vertex -3 -3.61803 4.90211
endloop
endfacet
facet normal -0.02476332732806032 -0.15639220413733324 0.9873845533046939
outer loop
vertex -3.19098 -3.58779 4.90211
vertex -3 -3.61803 4.90211
vertex -3 -3 5
endloop
endfacet
facet normal 0.9758213222993108 0.15454364125426248 0.15456069970693836
outer loop
vertex 4.80902 3.58779 3.61803
vertex 4.90211 3 3.61803
vertex 5 3 3
endloop
endfacet
facet normal 0.9758211964257848 0.1545606797697841 0.15454445598355207
outer loop
vertex 4.80902 3.58779 3.61803
vertex 5 3 3
vertex 4.90211 3.61803 3
endloop
endfacet
facet normal 0.8803028021405553 0.44853538765306433 0.1545412002231171
outer loop
vertex 4.80902 3.58779 3.61803
vertex 4.90211 3.61803 3
vertex 4.61803 4.17557 3
endloop
endfacet
facet normal 0.8802940947086102 0.4485475605544134 0.15455546817189333
outer loop
vertex 4.80902 3.58779 3.61803
vertex 4.61803 4.17557 3
vertex 4.53884 4.11803 3.61803
endloop
endfacet
facet normal 0.8910070536994902 0.4539894605139572 0
outer loop
vertex 4.90211 3.61803 -3
vertex 4.61803 4.17557 -3
vertex 4.61803 4.17557 3
endloop
endfacet
facet normal 0.8910070536994902 0.4539894605139572 0
outer loop
vertex 4.90211 3.61803 -3
vertex 4.61803 4.17557 3
vertex 4.90211 3.61803 3
endloop
endfacet
facet normal 0.9876874357655949 0.1564401778022 0
outer loop
vertex 4.90211 3.61803 -3
vertex 4.90211 3.61803 3
vertex 5 3 3
endloop
endfacet
facet normal 0.9876874357655949 0.1564401778022 0
outer loop
vertex 4.90211 3.61803 -3
vertex 5 3 3
vertex 5 3 -3
endloop
endfacet
facet normal 0.44854859927223956 0.8802961332375175 0.15454084216797428
outer loop
vertex 3.61803 4.90211 3
vertex 3.58779 4.80902 3.61803
vertex 4.11803 4.53884 3.61803
endloop
endfacet
facet normal 0.4485343998176577 0.8803008633988185 0.15455511016950618
outer loop
vertex 3.61803 4.90211 3
vertex 4.11803 4.53884 3.61803
vertex 4.17557 4.61803 3
endloop
endfacet
facet normal 0.4539894605139572 0.8910070536994902 0
outer loop
vertex 3.61803 4.90211 3
vertex 4.17557 4.61803 3
vertex 4.17557 4.61803 -3
endloop
endfacet
facet normal 0.4539894605139572 0.8910070536994902 0
outer loop
vertex 3.61803 4.90211 3
vertex 4.17557 4.61803 -3
vertex 3.61803 4.90211 -3
endloop
endfacet
facet normal 0.1564401778022 0.9876874357655949 0
outer loop
vertex 3.61803 4.90211 3
vertex 3.61803 4.90211 -3
vertex 3 5 -3
endloop
endfacet
facet normal 0.1564401778022 0.9876874357655949 0
outer loop
vertex 3.61803 4.90211 3
vertex 3 5 -3
vertex 3 5 3
endloop
endfacet
facet normal 0.15456029222149295 0.9758187496337695 0.15456029222149295
outer loop
vertex 3.61803 4.90211 3
vertex 3 5 3
vertex 3 4.90211 3.61803
endloop
endfacet
facet normal 0.15454404869795738 0.9758238949852 0.15454404869795738
outer loop
vertex 3.61803 4.90211 3
vertex 3 4.90211 3.61803
vertex 3.58779 4.80902 3.61803
endloop
endfacet
facet normal 0.15454364125426248 0.9758213222993108 -0.15456069970693836
outer loop
vertex 3.58779 4.80902 -3.61803
vertex 3 4.90211 -3.61803
vertex 3 5 -3
endloop
endfacet
facet normal 0.1545606797697841 0.9758211964257848 -0.15454445598355207
outer loop
vertex 3.58779 4.80902 -3.61803
vertex 3 5 -3
vertex 3.61803 4.90211 -3
endloop
endfacet
facet normal 0.44853538765306433 0.8803028021405553 -0.1545412002231171
outer loop
vertex 3.58779 4.80902 -3.61803
vertex 3.61803 4.90211 -3
vertex 4.17557 4.61803 -3
endloop
endfacet
facet normal 0.4485475605544134 0.8802940947086102 -0.15455546817189333
outer loop
vertex 3.58779 4.80902 -3.61803
vertex 4.17557 4.61803 -3
vertex 4.11803 4.53884 -3.61803
endloop
endfacet
facet normal 0.13973280243811004 0.8822629273778927 -0.44954073330164807
outer loop
vertex 3.58779 4.80902 -3.61803
vertex 3.5 4.53884 -4.17557
vertex 3 4.61803 -4.17557
endloop
endfacet
facet normal 0.13972706602543827 0.8822663244074794 -0.44953584933399804
outer loop
vertex 3.58779 4.80902 -3.61803
vertex 3 4.61803 -4.17557
vertex 3 4.90211 -3.61803
endloop
endfacet
facet normal 0.3229927562632121 0.6339270413370653 0.7027177140666996
outer loop
vertex 3.69098 3.95106 4.61803
vertex 3.95106 4.30902 4.17557
vertex 3.5 4.53884 4.17557
endloop
endfacet
facet normal 0.32298924491574654 0.6339270854125849 0.702719288228992
outer loop
vertex 3.69098 3.95106 4.61803
vertex 3.5 4.53884 4.17557
vertex 3.36327 4.11803 4.61803
endloop
endfacet
facet normal 0.8802961332375175 -0.44854859927223967 -0.15454084216797428
outer loop
vertex 4.53884 -4.11803 -3.61803
vertex 4.80902 -3.58779 -3.61803
vertex 4.90211 -3.61803 -3
endloop
endfacet
facet normal 0.8803008633988185 -0.4485343998176577 -0.15455511016950618
outer loop
vertex 4.53884 -4.11803 -3.61803
vertex 4.90211 -3.61803 -3
vertex 4.61803 -4.17557 -3
endloop
endfacet
facet normal 0.07172530420641608 -0.45282675111339954 -0.8887088467054778
outer loop
vertex 3.19098 -3.58779 -4.90211
vertex 3.36327 -4.11803 -4.61803
vertex 3 -4.17557 -4.61803
endloop
endfacet
facet normal 0.0717002140878765 -0.4528209949240292 -0.8887138042450815
outer loop
vertex 3.19098 -3.58779 -4.90211
vertex 3 -4.17557 -4.61803
vertex 3 -3.61803 -4.90211
endloop
endfacet
facet normal 0.02476332732806032 -0.15639220413733324 -0.9873845533046939
outer loop
vertex 3.19098 -3.58779 -4.90211
vertex 3 -3.61803 -4.90211
vertex 3 -3 -5
endloop
endfacet
facet normal -0.9876874357655949 -0.1564401778022 0
outer loop
vertex -4.90211 -3.61803 -3
vertex -4.90211 -3.61803 3
vertex -5 -3 3
endloop
endfacet
facet normal -0.9876874357655949 -0.1564401778022 0
outer loop
vertex -4.90211 -3.61803 -3
vertex -5 -3 3
vertex -5 -3 -3
endloop
endfacet
facet normal -0.8910070536994902 -0.4539894605139572 0
outer loop
vertex -4.90211 -3.61803 -3
vertex -4.61803 -4.17557 -3
vertex -4.61803 -4.17557 3
endloop
endfacet
facet normal -0.8910070536994902 -0.4539894605139572 0
outer loop
vertex -4.90211 -3.61803 -3
vertex -4.61803 -4.17557 3
vertex -4.90211 -3.61803 3
endloop
endfacet
facet normal -0.9758238949852001 -0.15454404869795738 -0.15454404869795738
outer loop
vertex -4.90211 -3 -3.61803
vertex -4.80902 -3.58779 -3.61803
vertex -4.90211 -3.61803 -3
endloop
endfacet
facet normal -0.9758187496337695 -0.15456029222149295 -0.15456029222149295
outer loop
vertex -4.90211 -3 -3.61803
vertex -4.90211 -3.61803 -3
vertex -5 -3 -3
endloop
endfacet
facet normal -0.9876874357655949 0 -0.1564401778022
outer loop
vertex -4.90211 -3 -3.61803
vertex -5 -3 -3
vertex -5 3 -3
endloop
endfacet
facet normal -0.9876874357655949 0 -0.1564401778022
outer loop
vertex -4.90211 -3 -3.61803
vertex -5 3 -3
vertex -4.90211 3 -3.61803
endloop
endfacet
facet normal -0.8803008633988185 -0.4485343998176577 -0.15455511016950618
outer loop
vertex -4.53884 -4.11803 -3.61803
vertex -4.61803 -4.17557 -3
vertex -4.90211 -3.61803 -3
endloop
endfacet
facet normal -0.8802961332375175 -0.44854859927223967 -0.15454084216797428
outer loop
vertex -4.53884 -4.11803 -3.61803
vertex -4.90211 -3.61803 -3
vertex -4.80902 -3.58779 -3.61803
endloop
endfacet
facet normal 0 -0.4539894605139572 -0.8910070536994902
outer loop
vertex -3 -4.17557 -4.61803
vertex -3 -3.61803 -4.90211
vertex 3 -3.61803 -4.90211
endloop
endfacet
facet normal 0 -0.4539894605139572 -0.8910070536994902
outer loop
vertex -3 -4.17557 -4.61803
vertex 3 -3.61803 -4.90211
vertex 3 -4.17557 -4.61803
endloop
endfacet
facet normal -0.7071067811865475 -0.7071067811865475 0
outer loop
vertex -4.17557 -4.61803 3
vertex -4.61803 -4.17557 3
vertex -4.61803 -4.17557 -3
endloop
endfacet
facet normal -0.7071067811865475 -0.7071067811865475 0
outer loop
vertex -4.17557 -4.61803 3
vertex -4.61803 -4.17557 -3
vertex -4.17557 -4.61803 -3
endloop
endfacet
facet normal -0.3229921622016493 -0.6339258753923759 0.7027190389226078
outer loop
vertex -3.95106 -4.30902 4.17557
vertex -3.5 -4.53884 4.17557
vertex -3.36327 -4.11803 4.61803
endloop
endfacet
facet normal -0.3229900625767435 -0.6339286902259366 0.7027174646933858
outer loop
vertex -3.95106 -4.30902 4.17557
vertex -3.36327 -4.11803 4.61803
vertex -3.69098 -3.95106 4.61803
endloop
endfacet
facet normal 0 -0.9876874357655949 0.1564401778022
outer loop
vertex -3 -4.90211 3.61803
vertex -3 -5 3
vertex 3 -5 3
endloop
endfacet
facet normal 0 -0.9876874357655949 0.1564401778022
outer loop
vertex -3 -4.90211 3.61803
vertex 3 -5 3
vertex 3 -4.90211 3.61803
endloop
endfacet
facet normal 0 -0.8910070536994902 0.4539894605139572
outer loop
vertex -3 -4.90211 3.61803
vertex 3 -4.90211 3.61803
vertex 3 -4.61803 4.17557
endloop
endfacet
facet normal 0 -0.8910070536994902 0.4539894605139572
outer loop
vertex -3 -4.90211 3.61803
vertex 3 -4.61803 4.17557
vertex -3 -4.61803 4.17557
endloop
endfacet
facet normal -0.6316364200427179 -0.6316364200427179 0.4495229312851999
outer loop
vertex -4.53884 -4.11803 3.61803
vertex -4.11803 -4.53884 3.61803
vertex -3.95106 -4.30902 4.17557
endloop
endfacet
facet normal -0.6316364200427179 -0.6316364200427179 0.44952293128519993
outer loop
vertex -4.53884 -4.11803 3.61803
vertex -3.95106 -4.30902 4.17557
vertex -4.30902 -3.95106 4.17557
endloop
endfacet
facet normal -0.8802961332375175 -0.44854859927223967 0.15454084216797428
outer loop
vertex -4.53884 -4.11803 3.61803
vertex -4.80902 -3.58779 3.61803
vertex -4.90211 -3.61803 3
endloop
endfacet
facet normal -0.8803008633988185 -0.4485343998176577 0.15455511016950618
outer loop
vertex -4.53884 -4.11803 3.61803
vertex -4.90211 -3.61803 3
vertex -4.61803 -4.17557 3
endloop
endfacet
facet normal -0.6986100797263484 -0.6986100797263484 0.15455715127256442
outer loop
vertex -4.53884 -4.11803 3.61803
vertex -4.61803 -4.17557 3
vertex -4.17557 -4.61803 3
endloop
endfacet
facet normal -0.6986100797263485 -0.6986100797263485 0.15455715127256442
outer loop
vertex -4.53884 -4.11803 3.61803
vertex -4.17557 -4.61803 3
vertex -4.11803 -4.53884 3.61803
endloop
endfacet
facet normal 0 -0.1564401778022 0.9876874357655949
outer loop
vertex 3 -3 5
vertex -3 -3 5
vertex -3 -3.61803 4.90211
endloop
endfacet
facet normal 0 -0.1564401778022 0.9876874357655949
outer loop
vertex 3 -3 5
vertex -3 -3.61803 4.90211
vertex 3 -3.61803 4.90211
endloop
endfacet
facet normal 0.15639220413733324 -0.024763327328060337 0.9873845533046939
outer loop
vertex 3 -3 5
vertex 3.58779 -3.19098 4.90211
vertex 3.61803 -3 4.90211
endloop
endfacet
facet normal 0.1564401778022 0 0.9876874357655949
outer loop
vertex 3 -3 5
vertex 3.61803 -3 4.90211
vertex 3.61803 3 4.90211
endloop
endfacet
facet normal 0.1564401778022 0 0.9876874357655949
outer loop
vertex 3 -3 5
vertex 3.61803 3 4.90211
vertex 3 3 5
endloop
endfacet
facet normal 0 0 1
outer loop
vertex 3 -3 5
vertex 3 3 5
vertex -3 3 5
endloop
endfacet
facet normal 0 0 1
outer loop
vertex 3 -3 5
vertex -3 3 5
vertex -3 -3 5
endloop
endfacet
facet normal 0.0717002140878765 -0.4528209949240292 0.8887138042450815
outer loop
vertex 3.19098 -3.58779 4.90211
vertex 3 -3.61803 4.90211
vertex 3 -4.17557 4.61803
endloop
endfacet
facet normal 0.07172530420641608 -0.45282675111339954 0.8887088467054778
outer loop
vertex 3.19098 -3.58779 4.90211
vertex 3 -4.17557 4.61803
vertex 3.36327 -4.11803 4.61803
endloop
endfacet
facet normal 0.02476332732806032 -0.15639220413733324 0.9873845533046939
outer loop
vertex 3.19098 -3.58779 4.90211
vertex 3 -3 5
vertex 3 -3.61803 4.90211
endloop
endfacet
facet normal 0.6986100797263485 -0.6986100797263485 0.15455715127256442
outer loop
vertex 4.53884 -4.11803 3.61803
vertex 4.11803 -4.53884 3.61803
vertex 4.17557 -4.61803 3
endloop
endfacet
facet normal 0.6986100797263484 -0.6986100797263484 0.15455715127256442
outer loop
vertex 4.53884 -4.11803 3.61803
vertex 4.17557 -4.61803 3
vertex 4.61803 -4.17557 3
endloop
endfacet
facet normal 0.7027129538672072 -0.11130592497458842 0.7027129538672072
outer loop
vertex 4.61803 -3 4.17557
vertex 4.17557 -3 4.61803
vertex 4.11803 -3.36327 4.61803
endloop
endfacet
facet normal 0.7027096007996604 -0.11129514657464973 0.7027180140660327
outer loop
vertex 4.61803 -3 4.17557
vertex 4.11803 -3.36327 4.61803
vertex 4.53884 -3.5 4.17557
endloop
endfacet
facet normal -0.6316364200427179 0.6316364200427179 -0.4495229312852
outer loop
vertex -4.30902 3.95106 -4.17557
vertex -4.53884 4.11803 -3.61803
vertex -4.11803 4.53884 -3.61803
endloop
endfacet
facet normal -0.6316364200427179 0.6316364200427179 -0.44952293128519993
outer loop
vertex -4.30902 3.95106 -4.17557
vertex -4.11803 4.53884 -3.61803
vertex -3.95106 4.30902 -4.17557
endloop
endfacet
facet normal -0.5030829563565704 0.5030829563565704 -0.7027197720621401
outer loop
vertex -4.30902 3.95106 -4.17557
vertex -3.95106 4.30902 -4.17557
vertex -3.69098 3.95106 -4.61803
endloop
endfacet
facet normal -0.5030829563565704 0.5030829563565705 -0.7027197720621401
outer loop
vertex -4.30902 3.95106 -4.17557
vertex -3.69098 3.95106 -4.61803
vertex -3.95106 3.69098 -4.61803
endloop
endfacet
facet normal 0 0.1564401778022 -0.9876874357655949
outer loop
vertex -3 3 -5
vertex -3 3.61803 -4.90211
vertex 3 3.61803 -4.90211
endloop
endfacet
facet normal 0 0.1564401778022 -0.9876874357655949
outer loop
vertex -3 3 -5
vertex 3 3.61803 -4.90211
vertex 3 3 -5
endloop
endfacet
facet normal 0 0 -1
outer loop
vertex -3 3 -5
vertex 3 3 -5
vertex 3 -3 -5
endloop
endfacet
facet normal 0 0 -1
outer loop
vertex -3 3 -5
vertex 3 -3 -5
vertex -3 -3 -5
endloop
endfacet
facet normal -0.15639220413733324 0.024763327328060337 -0.9873845533046939
outer loop
vertex -3 3 -5
vertex -3.61803 3 -4.90211
vertex -3.58779 3.19098 -4.90211
endloop
endfacet
facet normal 0.7071067811865475 0 -0.7071067811865475
outer loop
vertex 4.61803 3 -4.17557
vertex 4.61803 -3 -4.17557
vertex 4.17557 -3 -4.61803
endloop
endfacet
facet normal 0.7071067811865475 0 -0.7071067811865475
outer loop
vertex 4.61803 3 -4.17557
vertex 4.17557 -3 -4.61803
vertex 4.17557 3 -4.61803
endloop
endfacet
facet normal 0.40552181983456437 0.79590406428761 -0.4495428501138986
outer loop
vertex 3.95106 4.30902 -4.17557
vertex 3.5 4.53884 -4.17557
vertex 3.58779 4.80902 -3.61803
endloop
endfacet
facet normal 0.40554606362240936 0.7959017868648547 -0.4495250114795619
outer loop
vertex 3.95106 4.30902 -4.17557
vertex 3.58779 4.80902 -3.61803
vertex 4.11803 4.53884 -3.61803
endloop
endfacet
facet normal 0.3229921622016492 0.6339258753923758 -0.7027190389226078
outer loop
vertex 3.36327 4.11803 -4.61803
vertex 3.5 4.53884 -4.17557
vertex 3.95106 4.30902 -4.17557
endloop
endfacet
facet normal 0.3229900625767435 0.6339286902259366 -0.7027174646933858
outer loop
vertex 3.36327 4.11803 -4.61803
vertex 3.95106 4.30902 -4.17557
vertex 3.69098 3.95106 -4.61803
endloop
endfacet
facet normal 0.07170218428012401 0.45283343762625855 -0.8887073053244495
outer loop
vertex 3.36327 4.11803 -4.61803
vertex 3.19098 3.58779 -4.90211
vertex 3 3.61803 -4.90211
endloop
endfacet
facet normal 0.07172426809556755 0.4528202097858369 -0.8887122633201738
outer loop
vertex 3.36327 4.11803 -4.61803
vertex 3 3.61803 -4.90211
vertex 3 4.17557 -4.61803
endloop
endfacet
facet normal 0.11130592497458844 0.7027129538672072 -0.7027129538672072
outer loop
vertex 3.36327 4.11803 -4.61803
vertex 3 4.17557 -4.61803
vertex 3 4.61803 -4.17557
endloop
endfacet
facet normal 0.11129514657464973 0.7027096007996604 -0.7027180140660327
outer loop
vertex 3.36327 4.11803 -4.61803
vertex 3 4.61803 -4.17557
vertex 3.5 4.53884 -4.17557
endloop
endfacet
facet normal 0.20814951801258044 0.40849846746084334 -0.8887084900197998
outer loop
vertex 3.36327 3.5 -4.90211
vertex 3.19098 3.58779 -4.90211
vertex 3.36327 4.11803 -4.61803
endloop
endfacet
facet normal 0.2081329089261804 0.40849994360782543 -0.8887117014500989
outer loop
vertex 3.36327 3.5 -4.90211
vertex 3.36327 4.11803 -4.61803
vertex 3.69098 3.95106 -4.61803
endloop
endfacet
facet normal 0.32418461164596096 0.32418461164596085 -0.8887118065739394
outer loop
vertex 3.36327 3.5 -4.90211
vertex 3.69098 3.95106 -4.61803
vertex 3.95106 3.69098 -4.61803
endloop
endfacet
facet normal 0.32418461164596085 0.32418461164596085 -0.8887118065739393
outer loop
vertex 3.36327 3.5 -4.90211
vertex 3.95106 3.69098 -4.61803
vertex 3.5 3.36327 -4.90211
endloop
endfacet
facet normal 0.11196389289795655 0.11196389289795655 -0.9873845114109648
outer loop
vertex 3.36327 3.5 -4.90211
vertex 3.5 3.36327 -4.90211
vertex 3 3 -5
endloop
endfacet
facet normal 0.07188751962226082 0.14108099733135096 -0.9873845941245744
outer loop
vertex 3.36327 3.5 -4.90211
vertex 3 3 -5
vertex 3.19098 3.58779 -4.90211
endloop
endfacet
facet normal -0.7027072356403866 -0.11130501923843829 0.7027188155094305
outer loop
vertex -4.53884 -3.5 4.17557
vertex -4.11803 -3.36327 4.61803
vertex -4.17557 -3 4.61803
endloop
endfacet
facet normal -0.7027137553388964 -0.11129580457057392 0.7027137553388964
outer loop
vertex -4.53884 -3.5 4.17557
vertex -4.17557 -3 4.61803
vertex -4.61803 -3 4.17557
endloop
endfacet
facet normal -0.8822655509009344 -0.13973321795168936 0.4495354552138644
outer loop
vertex -4.53884 -3.5 4.17557
vertex -4.61803 -3 4.17557
vertex -4.90211 -3 3.61803
endloop
endfacet
facet normal -0.882264092718605 -0.13972671258642547 0.44954033911230606
outer loop
vertex -4.53884 -3.5 4.17557
vertex -4.90211 -3 3.61803
vertex -4.80902 -3.58779 3.61803
endloop
endfacet
facet normal -0.7958944335973128 -0.4055423168175201 0.44954141059427527
outer loop
vertex -4.53884 -3.5 4.17557
vertex -4.80902 -3.58779 3.61803
vertex -4.53884 -4.11803 3.61803
endloop
endfacet
facet normal -0.7959127085860755 -0.4055262241991131 0.4495235720159596
outer loop
vertex -4.53884 -3.5 4.17557
vertex -4.53884 -4.11803 3.61803
vertex -4.30902 -3.95106 4.17557
endloop
endfacet
facet normal -0.2081329089261804 -0.40849994360782543 0.8887117014500989
outer loop
vertex -3.36327 -3.5 4.90211
vertex -3.69098 -3.95106 4.61803
vertex -3.36327 -4.11803 4.61803
endloop
endfacet
facet normal -0.20814951801258044 -0.40849846746084334 0.8887084900197998
outer loop
vertex -3.36327 -3.5 4.90211
vertex -3.36327 -4.11803 4.61803
vertex -3.19098 -3.58779 4.90211
endloop
endfacet
facet normal -0.07188751962226082 -0.14108099733135096 0.9873845941245744
outer loop
vertex -3.36327 -3.5 4.90211
vertex -3.19098 -3.58779 4.90211
vertex -3 -3 5
endloop
endfacet
facet normal -0.11196389289795655 -0.11196389289795655 0.9873845114109648
outer loop
vertex -3.36327 -3.5 4.90211
vertex -3 -3 5
vertex -3.5 -3.36327 4.90211
endloop
endfacet
facet normal -0.6339270854125849 -0.32298924491574654 0.702719288228992
outer loop
vertex -3.95106 -3.69098 4.61803
vertex -4.11803 -3.36327 4.61803
vertex -4.53884 -3.5 4.17557
endloop
endfacet
facet normal -0.6339270413370653 -0.3229927562632121 0.7027177140666996
outer loop
vertex -3.95106 -3.69098 4.61803
vertex -4.53884 -3.5 4.17557
vertex -4.30902 -3.95106 4.17557
endloop
endfacet
facet normal -0.5030829563565705 -0.5030829563565704 0.7027197720621401
outer loop
vertex -3.95106 -3.69098 4.61803
vertex -4.30902 -3.95106 4.17557
vertex -3.95106 -4.30902 4.17557
endloop
endfacet
facet normal -0.5030829563565704 -0.5030829563565704 0.7027197720621401
outer loop
vertex -3.95106 -3.69098 4.61803
vertex -3.95106 -4.30902 4.17557
vertex -3.69098 -3.95106 4.61803
endloop
endfacet
facet normal -0.3241846116459609 -0.3241846116459609 0.8887118065739394
outer loop
vertex -3.95106 -3.69098 4.61803
vertex -3.69098 -3.95106 4.61803
vertex -3.36327 -3.5 4.90211
endloop
endfacet
facet normal -0.3241846116459609 -0.3241846116459607 0.8887118065739394
outer loop
vertex -3.95106 -3.69098 4.61803
vertex -3.36327 -3.5 4.90211
vertex -3.5 -3.36327 4.90211
endloop
endfacet
facet normal -0.4528209949240292 -0.0717002140878765 0.8887138042450815
outer loop
vertex -3.58779 -3.19098 4.90211
vertex -3.61803 -3 4.90211
vertex -4.17557 -3 4.61803
endloop
endfacet
facet normal -0.45282675111339954 -0.07172530420641608 0.8887088467054778
outer loop
vertex -3.58779 -3.19098 4.90211
vertex -4.17557 -3 4.61803
vertex -4.11803 -3.36327 4.61803
endloop
endfacet
facet normal -0.40850376619082013 -0.20813485655268757 0.8887094882444476
outer loop
vertex -3.58779 -3.19098 4.90211
vertex -4.11803 -3.36327 4.61803
vertex -3.95106 -3.69098 4.61803
endloop
endfacet
facet normal -0.4084911968380445 -0.20814581328232618 0.8887126996498141
outer loop
vertex -3.58779 -3.19098 4.90211
vertex -3.95106 -3.69098 4.61803
vertex -3.5 -3.36327 4.90211
endloop
endfacet
facet normal -0.14108099733135096 -0.07188751962226082 0.9873845941245744
outer loop
vertex -3.58779 -3.19098 4.90211
vertex -3.5 -3.36327 4.90211
vertex -3 -3 5
endloop
endfacet
facet normal -0.15639220413733324 -0.02476332732806032 0.9873845533046939
outer loop
vertex -3.58779 -3.19098 4.90211
vertex -3 -3 5
vertex -3.61803 -3 4.90211
endloop
endfacet
facet normal -0.8910070536994902 0.4539894605139572 0
outer loop
vertex -4.61803 4.17557 3
vertex -4.61803 4.17557 -3
vertex -4.90211 3.61803 -3
endloop
endfacet
facet normal -0.8910070536994902 0.4539894605139572 0
outer loop
vertex -4.61803 4.17557 3
vertex -4.90211 3.61803 -3
vertex -4.90211 3.61803 3
endloop
endfacet
facet normal -0.8803028021405553 0.44853538765306433 0.15454120022311713
outer loop
vertex -4.61803 4.17557 3
vertex -4.90211 3.61803 3
vertex -4.80902 3.58779 3.61803
endloop
endfacet
facet normal -0.8802940947086102 0.44854756055441336 0.15455546817189333
outer loop
vertex -4.61803 4.17557 3
vertex -4.80902 3.58779 3.61803
vertex -4.53884 4.11803 3.61803
endloop
endfacet
facet normal -0.6986100797263485 0.6986100797263485 0.15455715127256442
outer loop
vertex -4.61803 4.17557 3
vertex -4.53884 4.11803 3.61803
vertex -4.11803 4.53884 3.61803
endloop
endfacet
facet normal -0.6986100797263484 0.6986100797263484 0.15455715127256442
outer loop
vertex -4.61803 4.17557 3
vertex -4.11803 4.53884 3.61803
vertex -4.17557 4.61803 3
endloop
endfacet
facet normal -0.7071067811865475 0.7071067811865475 0
outer loop
vertex -4.61803 4.17557 3
vertex -4.17557 4.61803 3
vertex -4.17557 4.61803 -3
endloop
endfacet
facet normal -0.7071067811865475 0.7071067811865475 0
outer loop
vertex -4.61803 4.17557 3
vertex -4.17557 4.61803 -3
vertex -4.61803 4.17557 -3
endloop
endfacet
facet normal 0.8822655509009344 0.13973321795168936 0.4495354552138644
outer loop
vertex 4.53884 3.5 4.17557
vertex 4.61803 3 4.17557
vertex 4.90211 3 3.61803
endloop
endfacet
facet normal 0.882264092718605 0.13972671258642547 0.44954033911230606
outer loop
vertex 4.53884 3.5 4.17557
vertex 4.90211 3 3.61803
vertex 4.80902 3.58779 3.61803
endloop
endfacet
facet normal 0.2081329089261804 0.40849994360782543 0.8887117014500989
outer loop
vertex 3.36327 3.5 4.90211
vertex 3.69098 3.95106 4.61803
vertex 3.36327 4.11803 4.61803
endloop
endfacet
facet normal 0.20814951801258044 0.40849846746084334 0.8887084900197998
outer loop
vertex 3.36327 3.5 4.90211
vertex 3.36327 4.11803 4.61803
vertex 3.19098 3.58779 4.90211
endloop
endfacet
facet normal 0.07188751962226082 0.14108099733135096 0.9873845941245744
outer loop
vertex 3.36327 3.5 4.90211
vertex 3.19098 3.58779 4.90211
vertex 3 3 5
endloop
endfacet
facet normal 0.6986100797263485 -0.6986100797263485 -0.15455715127256442
outer loop
vertex 4.11803 -4.53884 -3.61803
vertex 4.53884 -4.11803 -3.61803
vertex 4.61803 -4.17557 -3
endloop
endfacet
facet normal 0.6986100797263484 -0.6986100797263484 -0.15455715127256442
outer loop
vertex 4.11803 -4.53884 -3.61803
vertex 4.61803 -4.17557 -3
vertex 4.17557 -4.61803 -3
endloop
endfacet
facet normal 0.4485343998176577 -0.8803008633988185 -0.15455511016950618
outer loop
vertex 4.11803 -4.53884 -3.61803
vertex 4.17557 -4.61803 -3
vertex 3.61803 -4.90211 -3
endloop
endfacet
facet normal 0.44854859927223967 -0.8802961332375175 -0.15454084216797428
outer loop
vertex 4.11803 -4.53884 -3.61803
vertex 3.61803 -4.90211 -3
vertex 3.58779 -4.80902 -3.61803
endloop
endfacet
facet normal 0.7027129538672072 -0.11130592497458844 -0.7027129538672072
outer loop
vertex 4.11803 -3.36327 -4.61803
vertex 4.17557 -3 -4.61803
vertex 4.61803 -3 -4.17557
endloop
endfacet
facet normal 0.7027096007996604 -0.11129514657464973 -0.7027180140660327
outer loop
vertex 4.11803 -3.36327 -4.61803
vertex 4.61803 -3 -4.17557
vertex 4.53884 -3.5 -4.17557
endloop
endfacet
facet normal 0.4539894605139572 0 -0.8910070536994902
outer loop
vertex 3.61803 -3 -4.90211
vertex 3.61803 3 -4.90211
vertex 4.17557 3 -4.61803
endloop
endfacet
facet normal 0.4539894605139572 0 -0.8910070536994902
outer loop
vertex 3.61803 -3 -4.90211
vertex 4.17557 3 -4.61803
vertex 4.17557 -3 -4.61803
endloop
endfacet
facet normal 0.1564401778022 0 -0.9876874357655949
outer loop
vertex 3.61803 -3 -4.90211
vertex 3 -3 -5
vertex 3 3 -5
endloop
endfacet
facet normal 0.1564401778022 0 -0.9876874357655949
outer loop
vertex 3.61803 -3 -4.90211
vertex 3 3 -5
vertex 3.61803 3 -4.90211
endloop
endfacet
facet normal 0.32418461164596085 -0.32418461164596085 -0.8887118065739393
outer loop
vertex 3.36327 -3.5 -4.90211
vertex 3.5 -3.36327 -4.90211
vertex 3.95106 -3.69098 -4.61803
endloop
endfacet
facet normal 0.32418461164596096 -0.32418461164596085 -0.8887118065739394
outer loop
vertex 3.36327 -3.5 -4.90211
vertex 3.95106 -3.69098 -4.61803
vertex 3.69098 -3.95106 -4.61803
endloop
endfacet
facet normal 0.2081329089261804 -0.40849994360782543 -0.8887117014500989
outer loop
vertex 3.36327 -3.5 -4.90211
vertex 3.69098 -3.95106 -4.61803
vertex 3.36327 -4.11803 -4.61803
endloop
endfacet
facet normal 0.20814951801258044 -0.40849846746084334 -0.8887084900197998
outer loop
vertex 3.36327 -3.5 -4.90211
vertex 3.36327 -4.11803 -4.61803
vertex 3.19098 -3.58779 -4.90211
endloop
endfacet
facet normal 0.07188751962226082 -0.14108099733135096 -0.9873845941245744
outer loop
vertex 3.36327 -3.5 -4.90211
vertex 3.19098 -3.58779 -4.90211
vertex 3 -3 -5
endloop
endfacet
facet normal 0.11196389289795655 -0.11196389289795655 -0.9873845114109648
outer loop
vertex 3.36327 -3.5 -4.90211
vertex 3 -3 -5
vertex 3.5 -3.36327 -4.90211
endloop
endfacet
facet normal -0.44854859927223967 -0.8802961332375175 -0.15454084216797428
outer loop
vertex -4.11803 -4.53884 -3.61803
vertex -3.58779 -4.80902 -3.61803
vertex -3.61803 -4.90211 -3
endloop
endfacet
facet normal -0.4485343998176577 -0.8803008633988185 -0.15455511016950618
outer loop
vertex -4.11803 -4.53884 -3.61803
vertex -3.61803 -4.90211 -3
vertex -4.17557 -4.61803 -3
endloop
endfacet
facet normal -0.6986100797263484 -0.6986100797263484 -0.15455715127256442
outer loop
vertex -4.11803 -4.53884 -3.61803
vertex -4.17557 -4.61803 -3
vertex -4.61803 -4.17557 -3
endloop
endfacet
facet normal -0.6986100797263485 -0.6986100797263485 -0.15455715127256442
outer loop
vertex -4.11803 -4.53884 -3.61803
vertex -4.61803 -4.17557 -3
vertex -4.53884 -4.11803 -3.61803
endloop
endfacet
facet normal -0.02476332732806032 -0.15639220413733324 -0.9873845533046939
outer loop
vertex -3.19098 -3.58779 -4.90211
vertex -3 -3 -5
vertex -3 -3.61803 -4.90211
endloop
endfacet
facet normal -0.0717002140878765 -0.4528209949240292 -0.8887138042450815
outer loop
vertex -3.19098 -3.58779 -4.90211
vertex -3 -3.61803 -4.90211
vertex -3 -4.17557 -4.61803
endloop
endfacet
facet normal -0.07172530420641608 -0.45282675111339954 -0.8887088467054778
outer loop
vertex -3.19098 -3.58779 -4.90211
vertex -3 -4.17557 -4.61803
vertex -3.36327 -4.11803 -4.61803
endloop
endfacet
facet normal 0 -0.7071067811865475 -0.7071067811865475
outer loop
vertex -3 -4.61803 -4.17557
vertex -3 -4.17557 -4.61803
vertex 3 -4.17557 -4.61803
endloop
endfacet
facet normal 0 -0.7071067811865475 -0.7071067811865475
outer loop
vertex -3 -4.61803 -4.17557
vertex 3 -4.17557 -4.61803
vertex 3 -4.61803 -4.17557
endloop
endfacet
facet normal 0 -0.8910070536994902 -0.4539894605139572
outer loop
vertex -3 -4.61803 -4.17557
vertex 3 -4.61803 -4.17557
vertex 3 -4.90211 -3.61803
endloop
endfacet
facet normal 0 -0.8910070536994902 -0.4539894605139572
outer loop
vertex -3 -4.61803 -4.17557
vertex 3 -4.90211 -3.61803
vertex -3 -4.90211 -3.61803
endloop
endfacet
facet normal -0.4539894605139572 -0.8910070536994902 0
outer loop
vertex -3.61803 -4.90211 3
vertex -4.17557 -4.61803 3
vertex -4.17557 -4.61803 -3
endloop
endfacet
facet normal -0.4539894605139572 -0.8910070536994902 0
outer loop
vertex -3.61803 -4.90211 3
vertex -4.17557 -4.61803 -3
vertex -3.61803 -4.90211 -3
endloop
endfacet
facet normal -0.1564401778022 -0.9876874357655949 0
outer loop
vertex -3.61803 -4.90211 3
vertex -3.61803 -4.90211 -3
vertex -3 -5 -3
endloop
endfacet
facet normal -0.1564401778022 -0.9876874357655949 0
outer loop
vertex -3.61803 -4.90211 3
vertex -3 -5 -3
vertex -3 -5 3
endloop
endfacet
facet normal 0.07188751962226082 -0.14108099733135096 0.9873845941245744
outer loop
vertex 3.36327 -3.5 4.90211
vertex 3 -3 5
vertex 3.19098 -3.58779 4.90211
endloop
endfacet
facet normal 0.20814951801258044 -0.40849846746084334 0.8887084900197998
outer loop
vertex 3.36327 -3.5 4.90211
vertex 3.19098 -3.58779 4.90211
vertex 3.36327 -4.11803 4.61803
endloop
endfacet
facet normal 0.2081329089261804 -0.40849994360782543 0.8887117014500989
outer loop
vertex 3.36327 -3.5 4.90211
vertex 3.36327 -4.11803 4.61803
vertex 3.69098 -3.95106 4.61803
endloop
endfacet
facet normal 0.6316364200427179 -0.6316364200427179 0.44952293128519993
outer loop
vertex 4.30902 -3.95106 4.17557
vertex 3.95106 -4.30902 4.17557
vertex 4.11803 -4.53884 3.61803
endloop
endfacet
facet normal 0.6316364200427179 -0.6316364200427179 0.4495229312852
outer loop
vertex 4.30902 -3.95106 4.17557
vertex 4.11803 -4.53884 3.61803
vertex 4.53884 -4.11803 3.61803
endloop
endfacet
facet normal 0.6339258753923759 -0.3229921622016493 0.7027190389226078
outer loop
vertex 4.30902 -3.95106 4.17557
vertex 4.53884 -3.5 4.17557
vertex 4.11803 -3.36327 4.61803
endloop
endfacet
facet normal 0.6339286902259366 -0.3229900625767435 0.7027174646933858
outer loop
vertex 4.30902 -3.95106 4.17557
vertex 4.11803 -3.36327 4.61803
vertex 3.95106 -3.69098 4.61803
endloop
endfacet
facet normal 0.5030829563565704 -0.5030829563565705 0.7027197720621401
outer loop
vertex 4.30902 -3.95106 4.17557
vertex 3.95106 -3.69098 4.61803
vertex 3.69098 -3.95106 4.61803
endloop
endfacet
facet normal 0.5030829563565704 -0.5030829563565704 0.7027197720621401
outer loop
vertex 4.30902 -3.95106 4.17557
vertex 3.69098 -3.95106 4.61803
vertex 3.95106 -4.30902 4.17557
endloop
endfacet
facet normal 0.79590406428761 -0.4055218198345644 0.44954285011389866
outer loop
vertex 4.80902 -3.58779 3.61803
vertex 4.53884 -3.5 4.17557
vertex 4.30902 -3.95106 4.17557
endloop
endfacet
facet normal 0.7959017868648547 -0.40554606362240936 0.4495250114795619
outer loop
vertex 4.80902 -3.58779 3.61803
vertex 4.30902 -3.95106 4.17557
vertex 4.53884 -4.11803 3.61803
endloop
endfacet
facet normal 0.8802940947086102 -0.4485475605544134 0.15455546817189333
outer loop
vertex 4.80902 -3.58779 3.61803
vertex 4.53884 -4.11803 3.61803
vertex 4.61803 -4.17557 3
endloop
endfacet
facet normal 0.8803028021405553 -0.44853538765306433 0.1545412002231171
outer loop
vertex 4.80902 -3.58779 3.61803
vertex 4.61803 -4.17557 3
vertex 4.90211 -3.61803 3
endloop
endfacet
facet normal -0.8822655509009344 0.13973321795168936 -0.4495354552138644
outer loop
vertex -4.53884 3.5 -4.17557
vertex -4.61803 3 -4.17557
vertex -4.90211 3 -3.61803
endloop
endfacet
facet normal -0.882264092718605 0.13972671258642547 -0.44954033911230606
outer loop
vertex -4.53884 3.5 -4.17557
vertex -4.90211 3 -3.61803
vertex -4.80902 3.58779 -3.61803
endloop
endfacet
facet normal -0.7958944335973128 0.4055423168175201 -0.44954141059427527
outer loop
vertex -4.53884 3.5 -4.17557
vertex -4.80902 3.58779 -3.61803
vertex -4.53884 4.11803 -3.61803
endloop
endfacet
facet normal -0.7959127085860755 0.4055262241991131 -0.4495235720159596
outer loop
vertex -4.53884 3.5 -4.17557
vertex -4.53884 4.11803 -3.61803
vertex -4.30902 3.95106 -4.17557
endloop
endfacet
facet normal -0.6339270413370653 0.3229927562632121 -0.7027177140666996
outer loop
vertex -4.53884 3.5 -4.17557
vertex -4.30902 3.95106 -4.17557
vertex -3.95106 3.69098 -4.61803
endloop
endfacet
facet normal -0.6339270854125849 0.32298924491574654 -0.702719288228992
outer loop
vertex -4.53884 3.5 -4.17557
vertex -3.95106 3.69098 -4.61803
vertex -4.11803 3.36327 -4.61803
endloop
endfacet
facet normal -0.7027072356403866 0.11130501923843829 -0.7027188155094305
outer loop
vertex -4.53884 3.5 -4.17557
vertex -4.11803 3.36327 -4.61803
vertex -4.17557 3 -4.61803
endloop
endfacet
facet normal -0.7027137553388964 0.11129580457057392 -0.7027137553388964
outer loop
vertex -4.53884 3.5 -4.17557
vertex -4.17557 3 -4.61803
vertex -4.61803 3 -4.17557
endloop
endfacet
facet normal 0.7027096007996604 0.11129514657464973 -0.7027180140660327
outer loop
vertex 4.11803 3.36327 -4.61803
vertex 4.53884 3.5 -4.17557
vertex 4.61803 3 -4.17557
endloop
endfacet
facet normal 0.7027129538672072 0.11130592497458844 -0.7027129538672072
outer loop
vertex 4.11803 3.36327 -4.61803
vertex 4.61803 3 -4.17557
vertex 4.17557 3 -4.61803
endloop
endfacet
facet normal 0.9876874357655949 0 -0.1564401778022
outer loop
vertex 4.90211 3 -3.61803
vertex 5 3 -3
vertex 5 -3 -3
endloop
endfacet
facet normal 0.9876874357655949 0 -0.1564401778022
outer loop
vertex 4.90211 3 -3.61803
vertex 5 -3 -3
vertex 4.90211 -3 -3.61803
endloop
endfacet
facet normal 0.8910070536994902 0 -0.4539894605139572
outer loop
vertex 4.90211 3 -3.61803
vertex 4.90211 -3 -3.61803
vertex 4.61803 -3 -4.17557
endloop
endfacet
facet normal 0.8910070536994902 0 -0.4539894605139572
outer loop
vertex 4.90211 3 -3.61803
vertex 4.61803 -3 -4.17557
vertex 4.61803 3 -4.17557
endloop
endfacet
facet normal 0.6339258753923759 0.3229921622016493 -0.7027190389226078
outer loop
vertex 4.30902 3.95106 -4.17557
vertex 4.53884 3.5 -4.17557
vertex 4.11803 3.36327 -4.61803
endloop
endfacet
facet normal 0.6339286902259366 0.3229900625767435 -0.7027174646933858
outer loop
vertex 4.30902 3.95106 -4.17557
vertex 4.11803 3.36327 -4.61803
vertex 3.95106 3.69098 -4.61803
endloop
endfacet
facet normal 0.5030829563565704 0.5030829563565705 -0.7027197720621401
outer loop
vertex 4.30902 3.95106 -4.17557
vertex 3.95106 3.69098 -4.61803
vertex 3.69098 3.95106 -4.61803
endloop
endfacet
facet normal 0.5030829563565704 0.5030829563565704 -0.7027197720621401
outer loop
vertex 4.30902 3.95106 -4.17557
vertex 3.69098 3.95106 -4.61803
vertex 3.95106 4.30902 -4.17557
endloop
endfacet
facet normal 0.6316364200427179 0.6316364200427179 -0.44952293128519993
outer loop
vertex 4.30902 3.95106 -4.17557
vertex 3.95106 4.30902 -4.17557
vertex 4.11803 4.53884 -3.61803
endloop
endfacet
facet normal 0.6316364200427179 0.6316364200427179 -0.4495229312852
outer loop
vertex 4.30902 3.95106 -4.17557
vertex 4.11803 4.53884 -3.61803
vertex 4.53884 4.11803 -3.61803
endloop
endfacet
facet normal -0.1564401778022 0 0.9876874357655949
outer loop
vertex -3.61803 3 4.90211
vertex -3.61803 -3 4.90211
vertex -3 -3 5
endloop
endfacet
facet normal -0.1564401778022 0 0.9876874357655949
outer loop
vertex -3.61803 3 4.90211
vertex -3 -3 5
vertex -3 3 5
endloop
endfacet
facet normal -0.15639220413733324 0.02476332732806032 0.9873845533046939
outer loop
vertex -3.61803 3 4.90211
vertex -3 3 5
vertex -3.58779 3.19098 4.90211
endloop
endfacet
facet normal -0.4539894605139572 0 0.8910070536994902
outer loop
vertex -4.17557 3 4.61803
vertex -4.17557 -3 4.61803
vertex -3.61803 -3 4.90211
endloop
endfacet
facet normal -0.4539894605139572 0 0.8910070536994902
outer loop
vertex -4.17557 3 4.61803
vertex -3.61803 -3 4.90211
vertex -3.61803 3 4.90211
endloop
endfacet
facet normal -0.9758238949852001 0.15454404869795738 0.15454404869795738
outer loop
vertex -4.90211 3 3.61803
vertex -4.80902 3.58779 3.61803
vertex -4.90211 3.61803 3
endloop
endfacet
facet normal -0.9758187496337695 0.15456029222149295 0.15456029222149295
outer loop
vertex -4.90211 3 3.61803
vertex -4.90211 3.61803 3
vertex -5 3 3
endloop
endfacet
facet normal -0.9876874357655949 0 0.1564401778022
outer loop
vertex -4.90211 3 3.61803
vertex -5 3 3
vertex -5 -3 3
endloop
endfacet
facet normal -0.9876874357655949 0 0.1564401778022
outer loop
vertex -4.90211 3 3.61803
vertex -5 -3 3
vertex -4.90211 -3 3.61803
endloop
endfacet
facet normal -0.15454364125426248 0.9758213222993108 0.15456069970693836
outer loop
vertex -3.58779 4.80902 3.61803
vertex -3 4.90211 3.61803
vertex -3 5 3
endloop
endfacet
facet normal -0.1545606797697841 0.9758211964257848 0.15454445598355207
outer loop
vertex -3.58779 4.80902 3.61803
vertex -3 5 3
vertex -3.61803 4.90211 3
endloop
endfacet
facet normal -0.44853538765306433 0.8803028021405553 0.1545412002231171
outer loop
vertex -3.58779 4.80902 3.61803
vertex -3.61803 4.90211 3
vertex -4.17557 4.61803 3
endloop
endfacet
facet normal -0.4485475605544134 0.8802940947086102 0.15455546817189333
outer loop
vertex -3.58779 4.80902 3.61803
vertex -4.17557 4.61803 3
vertex -4.11803 4.53884 3.61803
endloop
endfacet
facet normal -0.6316364200427179 0.6316364200427179 0.4495229312852
outer loop
vertex -3.95106 4.30902 4.17557
vertex -4.11803 4.53884 3.61803
vertex -4.53884 4.11803 3.61803
endloop
endfacet
facet normal -0.6316364200427179 0.6316364200427179 0.44952293128519993
outer loop
vertex -3.95106 4.30902 4.17557
vertex -4.53884 4.11803 3.61803
vertex -4.30902 3.95106 4.17557
endloop
endfacet
facet normal 0.5030829563565704 0.5030829563565704 0.7027197720621401
outer loop
vertex 4.30902 3.95106 4.17557
vertex 3.95106 4.30902 4.17557
vertex 3.69098 3.95106 4.61803
endloop
endfacet
facet normal 0.5030829563565704 0.5030829563565705 0.7027197720621401
outer loop
vertex 4.30902 3.95106 4.17557
vertex 3.69098 3.95106 4.61803
vertex 3.95106 3.69098 4.61803
endloop
endfacet
facet normal 0.79590406428761 0.40552181983456437 0.4495428501138986
outer loop
vertex 4.30902 3.95106 4.17557
vertex 4.53884 3.5 4.17557
vertex 4.80902 3.58779 3.61803
endloop
endfacet
facet normal 0.7959017868648547 0.40554606362240936 0.4495250114795619
outer loop
vertex 4.30902 3.95106 4.17557
vertex 4.80902 3.58779 3.61803
vertex 4.53884 4.11803 3.61803
endloop
endfacet
facet normal 0.6316364200427179 0.6316364200427179 0.4495229312852
outer loop
vertex 4.30902 3.95106 4.17557
vertex 4.53884 4.11803 3.61803
vertex 4.11803 4.53884 3.61803
endloop
endfacet
facet normal 0.6316364200427179 0.6316364200427179 0.44952293128519993
outer loop
vertex 4.30902 3.95106 4.17557
vertex 4.11803 4.53884 3.61803
vertex 3.95106 4.30902 4.17557
endloop
endfacet
facet normal 0.6339286902259366 -0.3229900625767435 -0.7027174646933858
outer loop
vertex 4.30902 -3.95106 -4.17557
vertex 3.95106 -3.69098 -4.61803
vertex 4.11803 -3.36327 -4.61803
endloop
endfacet
facet normal 0.6339258753923759 -0.3229921622016493 -0.7027190389226078
outer loop
vertex 4.30902 -3.95106 -4.17557
vertex 4.11803 -3.36327 -4.61803
vertex 4.53884 -3.5 -4.17557
endloop
endfacet
facet normal 0.79590406428761 -0.40552181983456437 -0.4495428501138986
outer loop
vertex 4.30902 -3.95106 -4.17557
vertex 4.53884 -3.5 -4.17557
vertex 4.80902 -3.58779 -3.61803
endloop
endfacet
facet normal 0.7959017868648547 -0.40554606362240936 -0.4495250114795619
outer loop
vertex 4.30902 -3.95106 -4.17557
vertex 4.80902 -3.58779 -3.61803
vertex 4.53884 -4.11803 -3.61803
endloop
endfacet
facet normal 0.14108099733135096 -0.07188751962226082 -0.9873845941245744
outer loop
vertex 3.58779 -3.19098 -4.90211
vertex 3.5 -3.36327 -4.90211
vertex 3 -3 -5
endloop
endfacet
facet normal 0.15639220413733324 -0.02476332732806032 -0.9873845533046939
outer loop
vertex 3.58779 -3.19098 -4.90211
vertex 3 -3 -5
vertex 3.61803 -3 -4.90211
endloop
endfacet
facet normal 0.4528209949240292 -0.0717002140878765 -0.8887138042450815
outer loop
vertex 3.58779 -3.19098 -4.90211
vertex 3.61803 -3 -4.90211
vertex 4.17557 -3 -4.61803
endloop
endfacet
facet normal 0.45282675111339954 -0.07172530420641608 -0.8887088467054778
outer loop
vertex 3.58779 -3.19098 -4.90211
vertex 4.17557 -3 -4.61803
vertex 4.11803 -3.36327 -4.61803
endloop
endfacet
facet normal 0.40850376619082013 -0.20813485655268757 -0.8887094882444476
outer loop
vertex 3.58779 -3.19098 -4.90211
vertex 4.11803 -3.36327 -4.61803
vertex 3.95106 -3.69098 -4.61803
endloop
endfacet
facet normal 0.4084911968380445 -0.20814581328232618 -0.8887126996498141
outer loop
vertex 3.58779 -3.19098 -4.90211
vertex 3.95106 -3.69098 -4.61803
vertex 3.5 -3.36327 -4.90211
endloop
endfacet
facet normal -0.8910070536994902 0 -0.4539894605139572
outer loop
vertex -4.61803 -3 -4.17557
vertex -4.90211 -3 -3.61803
vertex -4.90211 3 -3.61803
endloop
endfacet
facet normal -0.8910070536994902 0 -0.4539894605139572
outer loop
vertex -4.61803 -3 -4.17557
vertex -4.90211 3 -3.61803
vertex -4.61803 3 -4.17557
endloop
endfacet
facet normal -0.7071067811865475 0 -0.7071067811865475
outer loop
vertex -4.61803 -3 -4.17557
vertex -4.61803 3 -4.17557
vertex -4.17557 3 -4.61803
endloop
endfacet
facet normal -0.7071067811865475 0 -0.7071067811865475
outer loop
vertex -4.61803 -3 -4.17557
vertex -4.17557 3 -4.61803
vertex -4.17557 -3 -4.61803
endloop
endfacet
facet normal -0.4539894605139572 0 -0.8910070536994902
outer loop
vertex -3.61803 -3 -4.90211
vertex -4.17557 -3 -4.61803
vertex -4.17557 3 -4.61803
endloop
endfacet
facet normal -0.4539894605139572 0 -0.8910070536994902
outer loop
vertex -3.61803 -3 -4.90211
vertex -4.17557 3 -4.61803
vertex -3.61803 3 -4.90211
endloop
endfacet
facet normal -0.1564401778022 0 -0.9876874357655949
outer loop
vertex -3.61803 -3 -4.90211
vertex -3.61803 3 -4.90211
vertex -3 3 -5
endloop
endfacet
facet normal -0.1564401778022 0 -0.9876874357655949
outer loop
vertex -3.61803 -3 -4.90211
vertex -3 3 -5
vertex -3 -3 -5
endloop
endfacet
facet normal -0.20814951801258044 -0.40849846746084334 -0.8887084900197998
outer loop
vertex -3.36327 -3.5 -4.90211
vertex -3.19098 -3.58779 -4.90211
vertex -3.36327 -4.11803 -4.61803
endloop
endfacet
facet normal -0.2081329089261804 -0.40849994360782543 -0.8887117014500989
outer loop
vertex -3.36327 -3.5 -4.90211
vertex -3.36327 -4.11803 -4.61803
vertex -3.69098 -3.95106 -4.61803
endloop
endfacet
facet normal -0.11196389289795655 -0.11196389289795655 -0.9873845114109648
outer loop
vertex -3.36327 -3.5 -4.90211
vertex -3.5 -3.36327 -4.90211
vertex -3 -3 -5
endloop
endfacet
facet normal -0.07188751962226082 -0.14108099733135096 -0.9873845941245744
outer loop
vertex -3.36327 -3.5 -4.90211
vertex -3 -3 -5
vertex -3.19098 -3.58779 -4.90211
endloop
endfacet
facet normal -0.3229927562632121 -0.6339270413370653 -0.7027177140666996
outer loop
vertex -3.5 -4.53884 -4.17557
vertex -3.95106 -4.30902 -4.17557
vertex -3.69098 -3.95106 -4.61803
endloop
endfacet
facet normal -0.32298924491574654 -0.6339270854125849 -0.702719288228992
outer loop
vertex -3.5 -4.53884 -4.17557
vertex -3.69098 -3.95106 -4.61803
vertex -3.36327 -4.11803 -4.61803
endloop
endfacet
facet normal -0.11130501923843829 -0.7027072356403866 -0.7027188155094305
outer loop
vertex -3.5 -4.53884 -4.17557
vertex -3.36327 -4.11803 -4.61803
vertex -3 -4.17557 -4.61803
endloop
endfacet
facet normal -0.11129580457057392 -0.7027137553388964 -0.7027137553388964
outer loop
vertex -3.5 -4.53884 -4.17557
vertex -3 -4.17557 -4.61803
vertex -3 -4.61803 -4.17557
endloop
endfacet
facet normal -0.13973321795168936 -0.8822655509009344 -0.4495354552138644
outer loop
vertex -3.5 -4.53884 -4.17557
vertex -3 -4.61803 -4.17557
vertex -3 -4.90211 -3.61803
endloop
endfacet
facet normal -0.13972671258642547 -0.882264092718605 -0.44954033911230606
outer loop
vertex -3.5 -4.53884 -4.17557
vertex -3 -4.90211 -3.61803
vertex -3.58779 -4.80902 -3.61803
endloop
endfacet
facet normal -0.4055423168175201 -0.7958944335973128 -0.44954141059427527
outer loop
vertex -3.5 -4.53884 -4.17557
vertex -3.58779 -4.80902 -3.61803
vertex -4.11803 -4.53884 -3.61803
endloop
endfacet
facet normal -0.4055262241991131 -0.7959127085860755 -0.4495235720159596
outer loop
vertex -3.5 -4.53884 -4.17557
vertex -4.11803 -4.53884 -3.61803
vertex -3.95106 -4.30902 -4.17557
endloop
endfacet
facet normal -0.4485475605544134 -0.8802940947086102 0.15455546817189333
outer loop
vertex -3.58779 -4.80902 3.61803
vertex -4.11803 -4.53884 3.61803
vertex -4.17557 -4.61803 3
endloop
endfacet
facet normal -0.44853538765306433 -0.8803028021405553 0.1545412002231171
outer loop
vertex -3.58779 -4.80902 3.61803
vertex -4.17557 -4.61803 3
vertex -3.61803 -4.90211 3
endloop
endfacet
facet normal -0.1545606797697841 -0.9758211964257848 0.15454445598355207
outer loop
vertex -3.58779 -4.80902 3.61803
vertex -3.61803 -4.90211 3
vertex -3 -5 3
endloop
endfacet
facet normal -0.15454364125426248 -0.9758213222993108 0.15456069970693836
outer loop
vertex -3.58779 -4.80902 3.61803
vertex -3 -5 3
vertex -3 -4.90211 3.61803
endloop
endfacet
facet normal -0.13972706602543827 -0.8822663244074794 0.44953584933399804
outer loop
vertex -3.58779 -4.80902 3.61803
vertex -3 -4.90211 3.61803
vertex -3 -4.61803 4.17557
endloop
endfacet
facet normal -0.13973280243811004 -0.8822629273778927 0.44954073330164807
outer loop
vertex -3.58779 -4.80902 3.61803
vertex -3 -4.61803 4.17557
vertex -3.5 -4.53884 4.17557
endloop
endfacet
facet normal -0.4055218198345644 -0.79590406428761 0.44954285011389866
outer loop
vertex -3.58779 -4.80902 3.61803
vertex -3.5 -4.53884 4.17557
vertex -3.95106 -4.30902 4.17557
endloop
endfacet
facet normal -0.40554606362240936 -0.7959017868648547 0.4495250114795619
outer loop
vertex -3.58779 -4.80902 3.61803
vertex -3.95106 -4.30902 4.17557
vertex -4.11803 -4.53884 3.61803
endloop
endfacet
facet normal 0.11196389289795655 -0.11196389289795655 0.9873845114109648
outer loop
vertex 3.5 -3.36327 4.90211
vertex 3 -3 5
vertex 3.36327 -3.5 4.90211
endloop
endfacet
facet normal 0.32418461164596085 -0.32418461164596085 0.8887118065739393
outer loop
vertex 3.5 -3.36327 4.90211
vertex 3.36327 -3.5 4.90211
vertex 3.69098 -3.95106 4.61803
endloop
endfacet
facet normal 0.32418461164596085 -0.32418461164596096 0.8887118065739394
outer loop
vertex 3.5 -3.36327 4.90211
vertex 3.69098 -3.95106 4.61803
vertex 3.95106 -3.69098 4.61803
endloop
endfacet
facet normal 0.40849994360782543 -0.2081329089261804 0.8887117014500989
outer loop
vertex 3.5 -3.36327 4.90211
vertex 3.95106 -3.69098 4.61803
vertex 4.11803 -3.36327 4.61803
endloop
endfacet
facet normal 0.40849846746084334 -0.20814951801258044 0.8887084900197998
outer loop
vertex 3.5 -3.36327 4.90211
vertex 4.11803 -3.36327 4.61803
vertex 3.58779 -3.19098 4.90211
endloop
endfacet
facet normal 0.14108099733135096 -0.07188751962226082 0.9873845941245744
outer loop
vertex 3.5 -3.36327 4.90211
vertex 3.58779 -3.19098 4.90211
vertex 3 -3 5
endloop
endfacet
facet normal 0.8910070536994902 0 0.4539894605139572
outer loop
vertex 4.90211 -3 3.61803
vertex 4.90211 3 3.61803
vertex 4.61803 3 4.17557
endloop
endfacet
facet normal 0.8910070536994902 0 0.4539894605139572
outer loop
vertex 4.90211 -3 3.61803
vertex 4.61803 3 4.17557
vertex 4.61803 -3 4.17557
endloop
endfacet
facet normal 0.8822655509009344 -0.13973321795168936 0.4495354552138644
outer loop
vertex 4.90211 -3 3.61803
vertex 4.61803 -3 4.17557
vertex 4.53884 -3.5 4.17557
endloop
endfacet
facet normal 0.882264092718605 -0.1397267125864255 0.449540339112306
outer loop
vertex 4.90211 -3 3.61803
vertex 4.53884 -3.5 4.17557
vertex 4.80902 -3.58779 3.61803
endloop
endfacet
facet normal 0.9758238949852001 -0.15454404869795738 0.15454404869795738
outer loop
vertex 4.90211 -3 3.61803
vertex 4.80902 -3.58779 3.61803
vertex 4.90211 -3.61803 3
endloop
endfacet
facet normal 0.9758187496337695 -0.15456029222149295 0.15456029222149295
outer loop
vertex 4.90211 -3 3.61803
vertex 4.90211 -3.61803 3
vertex 5 -3 3
endloop
endfacet
facet normal 0.9876874357655949 0 0.1564401778022
outer loop
vertex 4.90211 -3 3.61803
vertex 5 -3 3
vertex 5 3 3
endloop
endfacet
facet normal 0.9876874357655949 0 0.1564401778022
outer loop
vertex 4.90211 -3 3.61803
vertex 5 3 3
vertex 4.90211 3 3.61803
endloop
endfacet
facet normal -0.07188751962226082 0.14108099733135096 -0.9873845941245744
outer loop
vertex -3.19098 3.58779 -4.90211
vertex -3 3 -5
vertex -3.36327 3.5 -4.90211
endloop
endfacet
facet normal -0.20814581328232618 0.4084911968380445 -0.8887126996498141
outer loop
vertex -3.19098 3.58779 -4.90211
vertex -3.36327 3.5 -4.90211
vertex -3.69098 3.95106 -4.61803
endloop
endfacet
facet normal -0.20813485655268757 0.40850376619082013 -0.8887094882444476
outer loop
vertex -3.19098 3.58779 -4.90211
vertex -3.69098 3.95106 -4.61803
vertex -3.36327 4.11803 -4.61803
endloop
endfacet
facet normal -0.07172530420641608 0.45282675111339954 -0.8887088467054778
outer loop
vertex -3.19098 3.58779 -4.90211
vertex -3.36327 4.11803 -4.61803
vertex -3 4.17557 -4.61803
endloop
endfacet
facet normal -0.0717002140878765 0.4528209949240292 -0.8887138042450815
outer loop
vertex -3.19098 3.58779 -4.90211
vertex -3 4.17557 -4.61803
vertex -3 3.61803 -4.90211
endloop
endfacet
facet normal -0.02476332732806032 0.15639220413733324 -0.9873845533046939
outer loop
vertex -3.19098 3.58779 -4.90211
vertex -3 3.61803 -4.90211
vertex -3 3 -5
endloop
endfacet
facet normal -0.40849846746084334 0.20814951801258044 -0.8887084900197998
outer loop
vertex -3.5 3.36327 -4.90211
vertex -3.58779 3.19098 -4.90211
vertex -4.11803 3.36327 -4.61803
endloop
endfacet
facet normal -0.40849994360782543 0.2081329089261804 -0.8887117014500989
outer loop
vertex -3.5 3.36327 -4.90211
vertex -4.11803 3.36327 -4.61803
vertex -3.95106 3.69098 -4.61803
endloop
endfacet
facet normal -0.32418461164596085 0.32418461164596096 -0.8887118065739394
outer loop
vertex -3.5 3.36327 -4.90211
vertex -3.95106 3.69098 -4.61803
vertex -3.69098 3.95106 -4.61803
endloop
endfacet
facet normal -0.32418461164596085 0.32418461164596085 -0.8887118065739393
outer loop
vertex -3.5 3.36327 -4.90211
vertex -3.69098 3.95106 -4.61803
vertex -3.36327 3.5 -4.90211
endloop
endfacet
facet normal -0.11196389289795655 0.11196389289795655 -0.9873845114109648
outer loop
vertex -3.5 3.36327 -4.90211
vertex -3.36327 3.5 -4.90211
vertex -3 3 -5
endloop
endfacet
facet normal -0.14108099733135096 0.07188751962226082 -0.9873845941245744
outer loop
vertex -3.5 3.36327 -4.90211
vertex -3 3 -5
vertex -3.58779 3.19098 -4.90211
endloop
endfacet
facet normal 0.4084911968380445 0.20814581328232618 -0.8887126996498141
outer loop
vertex 3.58779 3.19098 -4.90211
vertex 3.5 3.36327 -4.90211
vertex 3.95106 3.69098 -4.61803
endloop
endfacet
facet normal 0.40850376619082013 0.20813485655268757 -0.8887094882444476
outer loop
vertex 3.58779 3.19098 -4.90211
vertex 3.95106 3.69098 -4.61803
vertex 4.11803 3.36327 -4.61803
endloop
endfacet
facet normal 0.45282675111339954 0.07172530420641608 -0.8887088467054778
outer loop
vertex 3.58779 3.19098 -4.90211
vertex 4.11803 3.36327 -4.61803
vertex 4.17557 3 -4.61803
endloop
endfacet
facet normal 0.4528209949240292 0.0717002140878765 -0.8887138042450815
outer loop
vertex 3.58779 3.19098 -4.90211
vertex 4.17557 3 -4.61803
vertex 3.61803 3 -4.90211
endloop
endfacet
facet normal 0.15639220413733324 0.02476332732806032 -0.9873845533046939
outer loop
vertex 3.58779 3.19098 -4.90211
vertex 3.61803 3 -4.90211
vertex 3 3 -5
endloop
endfacet
facet normal 0.14108099733135096 0.07188751962226082 -0.9873845941245744
outer loop
vertex 3.58779 3.19098 -4.90211
vertex 3 3 -5
vertex 3.5 3.36327 -4.90211
endloop
endfacet
facet normal 0.8802940947086102 0.4485475605544134 -0.15455546817189333
outer loop
vertex 4.80902 3.58779 -3.61803
vertex 4.53884 4.11803 -3.61803
vertex 4.61803 4.17557 -3
endloop
endfacet
facet normal 0.8803028021405553 0.44853538765306433 -0.1545412002231171
outer loop
vertex 4.80902 3.58779 -3.61803
vertex 4.61803 4.17557 -3
vertex 4.90211 3.61803 -3
endloop
endfacet
facet normal 0.9758211964257848 0.1545606797697841 -0.15454445598355207
outer loop
vertex 4.80902 3.58779 -3.61803
vertex 4.90211 3.61803 -3
vertex 5 3 -3
endloop
endfacet
facet normal 0.9758213222993108 0.15454364125426248 -0.15456069970693836
outer loop
vertex 4.80902 3.58779 -3.61803
vertex 5 3 -3
vertex 4.90211 3 -3.61803
endloop
endfacet
facet normal 0.8822663244074794 0.13972706602543827 -0.44953584933399804
outer loop
vertex 4.80902 3.58779 -3.61803
vertex 4.90211 3 -3.61803
vertex 4.61803 3 -4.17557
endloop
endfacet
facet normal 0.8822629273778927 0.13973280243811004 -0.44954073330164807
outer loop
vertex 4.80902 3.58779 -3.61803
vertex 4.61803 3 -4.17557
vertex 4.53884 3.5 -4.17557
endloop
endfacet
facet normal 0.79590406428761 0.4055218198345644 -0.44954285011389866
outer loop
vertex 4.80902 3.58779 -3.61803
vertex 4.53884 3.5 -4.17557
vertex 4.30902 3.95106 -4.17557
endloop
endfacet
facet normal 0.7959017868648547 0.40554606362240936 -0.4495250114795619
outer loop
vertex 4.80902 3.58779 -3.61803
vertex 4.30902 3.95106 -4.17557
vertex 4.53884 4.11803 -3.61803
endloop
endfacet
facet normal -0.07188751962226082 0.14108099733135096 0.9873845941245744
outer loop
vertex -3.19098 3.58779 4.90211
vertex -3.36327 3.5 4.90211
vertex -3 3 5
endloop
endfacet
facet normal -0.02476332732806032 0.15639220413733324 0.9873845533046939
outer loop
vertex -3.19098 3.58779 4.90211
vertex -3 3 5
vertex -3 3.61803 4.90211
endloop
endfacet
facet normal -0.0717002140878765 0.4528209949240292 0.8887138042450815
outer loop
vertex -3.19098 3.58779 4.90211
vertex -3 3.61803 4.90211
vertex -3 4.17557 4.61803
endloop
endfacet
facet normal -0.07172530420641608 0.45282675111339954 0.8887088467054778
outer loop
vertex -3.19098 3.58779 4.90211
vertex -3 4.17557 4.61803
vertex -3.36327 4.11803 4.61803
endloop
endfacet
facet normal -0.7071067811865475 0 0.7071067811865475
outer loop
vertex -4.61803 3 4.17557
vertex -4.61803 -3 4.17557
vertex -4.17557 -3 4.61803
endloop
endfacet
facet normal -0.7071067811865475 0 0.7071067811865475
outer loop
vertex -4.61803 3 4.17557
vertex -4.17557 -3 4.61803
vertex -4.17557 3 4.61803
endloop
endfacet
facet normal -0.8910070536994902 0 0.4539894605139572
outer loop
vertex -4.61803 3 4.17557
vertex -4.90211 3 3.61803
vertex -4.90211 -3 3.61803
endloop
endfacet
facet normal -0.8910070536994902 0 0.4539894605139572
outer loop
vertex -4.61803 3 4.17557
vertex -4.90211 -3 3.61803
vertex -4.61803 -3 4.17557
endloop
endfacet
facet normal -0.13973321795168936 0.8822655509009344 0.4495354552138644
outer loop
vertex -3.5 4.53884 4.17557
vertex -3 4.61803 4.17557
vertex -3 4.90211 3.61803
endloop
endfacet
facet normal -0.13972671258642547 0.882264092718605 0.44954033911230606
outer loop
vertex -3.5 4.53884 4.17557
vertex -3 4.90211 3.61803
vertex -3.58779 4.80902 3.61803
endloop
endfacet
facet normal -0.4055423168175201 0.7958944335973128 0.44954141059427527
outer loop
vertex -3.5 4.53884 4.17557
vertex -3.58779 4.80902 3.61803
vertex -4.11803 4.53884 3.61803
endloop
endfacet
facet normal -0.4055262241991131 0.7959127085860755 0.4495235720159596
outer loop
vertex -3.5 4.53884 4.17557
vertex -4.11803 4.53884 3.61803
vertex -3.95106 4.30902 4.17557
endloop
endfacet
facet normal -0.11130501923843829 0.7027072356403866 0.7027188155094305
outer loop
vertex -3.5 4.53884 4.17557
vertex -3.36327 4.11803 4.61803
vertex -3 4.17557 4.61803
endloop
endfacet
facet normal -0.11129580457057392 0.7027137553388964 0.7027137553388964
outer loop
vertex -3.5 4.53884 4.17557
vertex -3 4.17557 4.61803
vertex -3 4.61803 4.17557
endloop
endfacet
facet normal 0.32418461164596085 0.32418461164596096 0.8887118065739394
outer loop
vertex 3.5 3.36327 4.90211
vertex 3.95106 3.69098 4.61803
vertex 3.69098 3.95106 4.61803
endloop
endfacet
facet normal 0.32418461164596085 0.32418461164596085 0.8887118065739393
outer loop
vertex 3.5 3.36327 4.90211
vertex 3.69098 3.95106 4.61803
vertex 3.36327 3.5 4.90211
endloop
endfacet
facet normal 0.11196389289795655 0.11196389289795655 0.9873845114109648
outer loop
vertex 3.5 3.36327 4.90211
vertex 3.36327 3.5 4.90211
vertex 3 3 5
endloop
endfacet
facet normal 0.6339258753923758 0.3229921622016492 0.7027190389226078
outer loop
vertex 4.11803 3.36327 4.61803
vertex 4.53884 3.5 4.17557
vertex 4.30902 3.95106 4.17557
endloop
endfacet
facet normal 0.6339286902259366 0.3229900625767435 0.7027174646933858
outer loop
vertex 4.11803 3.36327 4.61803
vertex 4.30902 3.95106 4.17557
vertex 3.95106 3.69098 4.61803
endloop
endfacet
facet normal 0.3229921622016493 -0.6339258753923759 -0.7027190389226078
outer loop
vertex 3.95106 -4.30902 -4.17557
vertex 3.5 -4.53884 -4.17557
vertex 3.36327 -4.11803 -4.61803
endloop
endfacet
facet normal 0.3229900625767435 -0.6339286902259366 -0.7027174646933858
outer loop
vertex 3.95106 -4.30902 -4.17557
vertex 3.36327 -4.11803 -4.61803
vertex 3.69098 -3.95106 -4.61803
endloop
endfacet
facet normal 0.5030829563565705 -0.5030829563565704 -0.7027197720621401
outer loop
vertex 3.95106 -4.30902 -4.17557
vertex 3.69098 -3.95106 -4.61803
vertex 3.95106 -3.69098 -4.61803
endloop
endfacet
facet normal 0.5030829563565704 -0.5030829563565704 -0.7027197720621401
outer loop
vertex 3.95106 -4.30902 -4.17557
vertex 3.95106 -3.69098 -4.61803
vertex 4.30902 -3.95106 -4.17557
endloop
endfacet
facet normal 0.6316364200427179 -0.6316364200427179 -0.44952293128519993
outer loop
vertex 3.95106 -4.30902 -4.17557
vertex 4.30902 -3.95106 -4.17557
vertex 4.53884 -4.11803 -3.61803
endloop
endfacet
facet normal 0.6316364200427179 -0.6316364200427179 -0.4495229312852
outer loop
vertex 3.95106 -4.30902 -4.17557
vertex 4.53884 -4.11803 -3.61803
vertex 4.11803 -4.53884 -3.61803
endloop
endfacet
facet normal 0.40554606362240936 -0.7959017868648547 -0.4495250114795619
outer loop
vertex 3.95106 -4.30902 -4.17557
vertex 4.11803 -4.53884 -3.61803
vertex 3.58779 -4.80902 -3.61803
endloop
endfacet
facet normal 0.40552181983456437 -0.79590406428761 -0.4495428501138986
outer loop
vertex 3.95106 -4.30902 -4.17557
vertex 3.58779 -4.80902 -3.61803
vertex 3.5 -4.53884 -4.17557
endloop
endfacet
facet normal -0.882264092718605 -0.13972671258642547 -0.44954033911230606
outer loop
vertex -4.53884 -3.5 -4.17557
vertex -4.80902 -3.58779 -3.61803
vertex -4.90211 -3 -3.61803
endloop
endfacet
facet normal -0.8822655509009344 -0.13973321795168936 -0.4495354552138644
outer loop
vertex -4.53884 -3.5 -4.17557
vertex -4.90211 -3 -3.61803
vertex -4.61803 -3 -4.17557
endloop
endfacet
facet normal -0.15639220413733324 -0.02476332732806032 -0.9873845533046939
outer loop
vertex -3.58779 -3.19098 -4.90211
vertex -3.61803 -3 -4.90211
vertex -3 -3 -5
endloop
endfacet
facet normal -0.14108099733135096 -0.07188751962226082 -0.9873845941245744
outer loop
vertex -3.58779 -3.19098 -4.90211
vertex -3 -3 -5
vertex -3.5 -3.36327 -4.90211
endloop
endfacet
facet normal -0.32298924491574654 0.6339270854125849 0.702719288228992
outer loop
vertex -3.69098 3.95106 4.61803
vertex -3.36327 4.11803 4.61803
vertex -3.5 4.53884 4.17557
endloop
endfacet
facet normal -0.3229927562632121 0.6339270413370653 0.7027177140666996
outer loop
vertex -3.69098 3.95106 4.61803
vertex -3.5 4.53884 4.17557
vertex -3.95106 4.30902 4.17557
endloop
endfacet
facet normal -0.5030829563565704 0.5030829563565705 0.7027197720621401
outer loop
vertex -3.69098 3.95106 4.61803
vertex -3.95106 4.30902 4.17557
vertex -4.30902 3.95106 4.17557
endloop
endfacet
facet normal -0.5030829563565704 0.5030829563565704 0.7027197720621401
outer loop
vertex -3.69098 3.95106 4.61803
vertex -4.30902 3.95106 4.17557
vertex -3.95106 3.69098 4.61803
endloop
endfacet
facet normal -0.20814581328232631 0.4084911968380445 0.8887126996498141
outer loop
vertex -3.69098 3.95106 4.61803
vertex -3.36327 3.5 4.90211
vertex -3.19098 3.58779 4.90211
endloop
endfacet
facet normal -0.20813485655268754 0.40850376619082013 0.8887094882444476
outer loop
vertex -3.69098 3.95106 4.61803
vertex -3.19098 3.58779 4.90211
vertex -3.36327 4.11803 4.61803
endloop
endfacet
facet normal -0.32418461164596085 0.32418461164596085 0.8887118065739393
outer loop
vertex -3.5 3.36327 4.90211
vertex -3.36327 3.5 4.90211
vertex -3.69098 3.95106 4.61803
endloop
endfacet
facet normal -0.32418461164596085 0.32418461164596096 0.8887118065739394
outer loop
vertex -3.5 3.36327 4.90211
vertex -3.69098 3.95106 4.61803
vertex -3.95106 3.69098 4.61803
endloop
endfacet
facet normal -0.14108099733135096 0.07188751962226082 0.9873845941245744
outer loop
vertex -3.5 3.36327 4.90211
vertex -3.58779 3.19098 4.90211
vertex -3 3 5
endloop
endfacet
facet normal -0.11196389289795655 0.11196389289795655 0.9873845114109648
outer loop
vertex -3.5 3.36327 4.90211
vertex -3 3 5
vertex -3.36327 3.5 4.90211
endloop
endfacet
facet normal -0.7959127085860755 0.4055262241991131 0.4495235720159596
outer loop
vertex -4.53884 3.5 4.17557
vertex -4.30902 3.95106 4.17557
vertex -4.53884 4.11803 3.61803
endloop
endfacet
facet normal -0.7958944335973128 0.4055423168175201 0.44954141059427527
outer loop
vertex -4.53884 3.5 4.17557
vertex -4.53884 4.11803 3.61803
vertex -4.80902 3.58779 3.61803
endloop
endfacet
facet normal -0.882264092718605 0.13972671258642547 0.44954033911230606
outer loop
vertex -4.53884 3.5 4.17557
vertex -4.80902 3.58779 3.61803
vertex -4.90211 3 3.61803
endloop
endfacet
facet normal -0.8822655509009344 0.13973321795168936 0.4495354552138644
outer loop
vertex -4.53884 3.5 4.17557
vertex -4.90211 3 3.61803
vertex -4.61803 3 4.17557
endloop
endfacet
facet normal 0.7071067811865475 0 0.7071067811865475
outer loop
vertex 4.17557 3 4.61803
vertex 4.17557 -3 4.61803
vertex 4.61803 -3 4.17557
endloop
endfacet
facet normal 0.7071067811865475 0 0.7071067811865475
outer loop
vertex 4.17557 3 4.61803
vertex 4.61803 -3 4.17557
vertex 4.61803 3 4.17557
endloop
endfacet
facet normal 0.7027137553388964 0.11129580457057392 0.7027137553388964
outer loop
vertex 4.17557 3 4.61803
vertex 4.61803 3 4.17557
vertex 4.53884 3.5 4.17557
endloop
endfacet
facet normal 0.7027072356403866 0.1113050192384383 0.7027188155094305
outer loop
vertex 4.17557 3 4.61803
vertex 4.53884 3.5 4.17557
vertex 4.11803 3.36327 4.61803
endloop
endfacet
facet normal 0.4539894605139572 0 0.8910070536994902
outer loop
vertex 4.17557 3 4.61803
vertex 3.61803 3 4.90211
vertex 3.61803 -3 4.90211
endloop
endfacet
facet normal 0.4539894605139572 0 0.8910070536994902
outer loop
vertex 4.17557 3 4.61803
vertex 3.61803 -3 4.90211
vertex 4.17557 -3 4.61803
endloop
endfacet
facet normal 0.4528209949240292 0.0717002140878765 0.8887138042450815
outer loop
vertex 3.58779 3.19098 4.90211
vertex 3.61803 3 4.90211
vertex 4.17557 3 4.61803
endloop
endfacet
facet normal 0.45282675111339954 0.07172530420641608 0.8887088467054778
outer loop
vertex 3.58779 3.19098 4.90211
vertex 4.17557 3 4.61803
vertex 4.11803 3.36327 4.61803
endloop
endfacet
facet normal 0.40850376619082013 0.20813485655268757 0.8887094882444476
outer loop
vertex 3.58779 3.19098 4.90211
vertex 4.11803 3.36327 4.61803
vertex 3.95106 3.69098 4.61803
endloop
endfacet
facet normal 0.4084911968380445 0.20814581328232618 0.8887126996498141
outer loop
vertex 3.58779 3.19098 4.90211
vertex 3.95106 3.69098 4.61803
vertex 3.5 3.36327 4.90211
endloop
endfacet
facet normal 0.14108099733135096 0.07188751962226082 0.9873845941245744
outer loop
vertex 3.58779 3.19098 4.90211
vertex 3.5 3.36327 4.90211
vertex 3 3 5
endloop
endfacet
facet normal 0.15639220413733324 0.02476332732806032 0.9873845533046939
outer loop
vertex 3.58779 3.19098 4.90211
vertex 3 3 5
vertex 3.61803 3 4.90211
endloop
endfacet
facet normal -0.7027096007996604 -0.11129514657464973 -0.7027180140660327
outer loop
vertex -4.11803 -3.36327 -4.61803
vertex -4.53884 -3.5 -4.17557
vertex -4.61803 -3 -4.17557
endloop
endfacet
facet normal -0.7027129538672072 -0.11130592497458844 -0.7027129538672072
outer loop
vertex -4.11803 -3.36327 -4.61803
vertex -4.61803 -3 -4.17557
vertex -4.17557 -3 -4.61803
endloop
endfacet
facet normal -0.4528202097858369 -0.07172426809556755 -0.8887122633201738
outer loop
vertex -4.11803 -3.36327 -4.61803
vertex -4.17557 -3 -4.61803
vertex -3.61803 -3 -4.90211
endloop
endfacet
facet normal -0.45283343762625855 -0.07170218428012401 -0.8887073053244495
outer loop
vertex -4.11803 -3.36327 -4.61803
vertex -3.61803 -3 -4.90211
vertex -3.58779 -3.19098 -4.90211
endloop
endfacet
facet normal -0.7959017868648547 -0.40554606362240936 -0.4495250114795619
outer loop
vertex -4.30902 -3.95106 -4.17557
vertex -4.53884 -4.11803 -3.61803
vertex -4.80902 -3.58779 -3.61803
endloop
endfacet
facet normal -0.79590406428761 -0.40552181983456437 -0.4495428501138986
outer loop
vertex -4.30902 -3.95106 -4.17557
vertex -4.80902 -3.58779 -3.61803
vertex -4.53884 -3.5 -4.17557
endloop
endfacet
facet normal -0.6316364200427179 -0.6316364200427179 -0.44952293128519993
outer loop
vertex -4.30902 -3.95106 -4.17557
vertex -3.95106 -4.30902 -4.17557
vertex -4.11803 -4.53884 -3.61803
endloop
endfacet
facet normal -0.6316364200427179 -0.6316364200427179 -0.4495229312852
outer loop
vertex -4.30902 -3.95106 -4.17557
vertex -4.11803 -4.53884 -3.61803
vertex -4.53884 -4.11803 -3.61803
endloop
endfacet
facet normal -0.6339286902259366 0.3229900625767435 0.7027174646933858
outer loop
vertex -4.11803 3.36327 4.61803
vertex -3.95106 3.69098 4.61803
vertex -4.30902 3.95106 4.17557
endloop
endfacet
facet normal -0.6339258753923758 0.3229921622016492 0.7027190389226078
outer loop
vertex -4.11803 3.36327 4.61803
vertex -4.30902 3.95106 4.17557
vertex -4.53884 3.5 4.17557
endloop
endfacet
facet normal -0.7027096007996604 0.11129514657464973 0.7027180140660327
outer loop
vertex -4.11803 3.36327 4.61803
vertex -4.53884 3.5 4.17557
vertex -4.61803 3 4.17557
endloop
endfacet
facet normal -0.7027129538672072 0.11130592497458844 0.7027129538672072
outer loop
vertex -4.11803 3.36327 4.61803
vertex -4.61803 3 4.17557
vertex -4.17557 3 4.61803
endloop
endfacet
facet normal -0.4528202097858369 0.07172426809556755 0.8887122633201738
outer loop
vertex -4.11803 3.36327 4.61803
vertex -4.17557 3 4.61803
vertex -3.61803 3 4.90211
endloop
endfacet
facet normal -0.45283343762625855 0.07170218428012401 0.8887073053244495
outer loop
vertex -4.11803 3.36327 4.61803
vertex -3.61803 3 4.90211
vertex -3.58779 3.19098 4.90211
endloop
endfacet
facet normal -0.4084984674608434 0.20814951801258036 0.8887084900197999
outer loop
vertex -4.11803 3.36327 4.61803
vertex -3.58779 3.19098 4.90211
vertex -3.5 3.36327 4.90211
endloop
endfacet
facet normal -0.40849994360782543 0.2081329089261805 0.8887117014500989
outer loop
vertex -4.11803 3.36327 4.61803
vertex -3.5 3.36327 4.90211
vertex -3.95106 3.69098 4.61803
endloop
endfacet
facet normal -0.5030829563565704 -0.5030829563565704 -0.7027197720621401
outer loop
vertex -3.95106 -3.69098 -4.61803
vertex -3.69098 -3.95106 -4.61803
vertex -3.95106 -4.30902 -4.17557
endloop
endfacet
facet normal -0.5030829563565705 -0.5030829563565704 -0.7027197720621401
outer loop
vertex -3.95106 -3.69098 -4.61803
vertex -3.95106 -4.30902 -4.17557
vertex -4.30902 -3.95106 -4.17557
endloop
endfacet
facet normal -0.6339270413370653 -0.3229927562632121 -0.7027177140666996
outer loop
vertex -3.95106 -3.69098 -4.61803
vertex -4.30902 -3.95106 -4.17557
vertex -4.53884 -3.5 -4.17557
endloop
endfacet
facet normal -0.6339270854125849 -0.32298924491574654 -0.702719288228992
outer loop
vertex -3.95106 -3.69098 -4.61803
vertex -4.53884 -3.5 -4.17557
vertex -4.11803 -3.36327 -4.61803
endloop
endfacet
facet normal -0.40850376619082013 -0.20813485655268754 -0.8887094882444476
outer loop
vertex -3.95106 -3.69098 -4.61803
vertex -4.11803 -3.36327 -4.61803
vertex -3.58779 -3.19098 -4.90211
endloop
endfacet
facet normal -0.4084911968380445 -0.20814581328232631 -0.8887126996498141
outer loop
vertex -3.95106 -3.69098 -4.61803
vertex -3.58779 -3.19098 -4.90211
vertex -3.5 -3.36327 -4.90211
endloop
endfacet
facet normal -0.3241846116459609 -0.3241846116459607 -0.8887118065739394
outer loop
vertex -3.95106 -3.69098 -4.61803
vertex -3.5 -3.36327 -4.90211
vertex -3.36327 -3.5 -4.90211
endloop
endfacet
facet normal -0.3241846116459609 -0.3241846116459609 -0.8887118065739394
outer loop
vertex -3.95106 -3.69098 -4.61803
vertex -3.36327 -3.5 -4.90211
vertex -3.69098 -3.95106 -4.61803
endloop
endfacet
endsolid JSxCAD
