solid JSxCAD
facet normal -0.9876874357655948 0.15644017780220068 0
outer loop
vertex -1.90211 6.61803 6
vertex -1.90211 6.61803 0
vertex -2 6 0
endloop
endfacet
facet normal -0.9876874357655948 0.15644017780220068 0
outer loop
vertex -1.90211 6.61803 6
vertex -2 6 0
vertex -2 6 6
endloop
endfacet
facet normal 1 0 0
outer loop
vertex 8 0 6
vertex 8 0 0
vertex 8 6 0
endloop
endfacet
facet normal 1 0 0
outer loop
vertex 8 0 6
vertex 8 6 0
vertex 8 6 6
endloop
endfacet
facet normal 0.9876874357655949 0 0.1564401778022
outer loop
vertex 8 0 6
vertex 8 6 6
vertex 7.90211 6 6.61803
endloop
endfacet
facet normal 0.9876874357655949 0 0.1564401778022
outer loop
vertex 8 0 6
vertex 7.90211 6 6.61803
vertex 7.90211 0 6.61803
endloop
endfacet
facet normal 0.9876874357655948 -0.15644017780220001 0
outer loop
vertex 7.90211 -0.61803 0
vertex 8 0 0
vertex 8 0 6
endloop
endfacet
facet normal 0.9876874357655948 -0.15644017780220001 0
outer loop
vertex 7.90211 -0.61803 0
vertex 8 0 6
vertex 7.90211 -0.61803 6
endloop
endfacet
facet normal 0.9758213222993108 0.15454364125426248 0.15456069970693836
outer loop
vertex 7.80902 6.58779 6.61803
vertex 7.90211 6 6.61803
vertex 8 6 6
endloop
endfacet
facet normal 0.9758211964257848 0.1545606797697841 0.15454445598355207
outer loop
vertex 7.80902 6.58779 6.61803
vertex 8 6 6
vertex 7.90211 6.61803 6
endloop
endfacet
facet normal 0 0 1
outer loop
vertex 6 0 8
vertex 6 6 8
vertex 0 6 8
endloop
endfacet
facet normal 0 0 1
outer loop
vertex 6 0 8
vertex 0 6 8
vertex 0 0 8
endloop
endfacet
facet normal 0 0.1564401778022 0.9876874357655949
outer loop
vertex 6 6.61803 7.90211
vertex 0 6.61803 7.90211
vertex 0 6 8
endloop
endfacet
facet normal 0 0.1564401778022 0.9876874357655949
outer loop
vertex 6 6.61803 7.90211
vertex 0 6 8
vertex 6 6 8
endloop
endfacet
facet normal -1 0 0
outer loop
vertex -2 0 6
vertex -2 6 6
vertex -2 6 0
endloop
endfacet
facet normal -1 0 0
outer loop
vertex -2 0 6
vertex -2 6 0
vertex -2 0 0
endloop
endfacet
facet normal -0.9876874357655948 -0.15644017780220074 0
outer loop
vertex -2 0 6
vertex -2 0 0
vertex -1.90211 -0.61803 0
endloop
endfacet
facet normal -0.9876874357655948 -0.15644017780220074 0
outer loop
vertex -2 0 6
vertex -1.90211 -0.61803 0
vertex -1.90211 -0.61803 6
endloop
endfacet
facet normal -0.9758213222993108 -0.15454364125426212 0.1545606997069391
outer loop
vertex -1.80902 -0.58779 6.61803
vertex -1.90211 0 6.61803
vertex -2 0 6
endloop
endfacet
facet normal -0.9758211964257847 -0.1545606797697848 0.1545444559835517
outer loop
vertex -1.80902 -0.58779 6.61803
vertex -2 0 6
vertex -1.90211 -0.61803 6
endloop
endfacet
facet normal 0 -1 0
outer loop
vertex 6 -2 6
vertex 0 -2 6
vertex 0 -2 0
endloop
endfacet
facet normal 0 -1 0
outer loop
vertex 6 -2 6
vertex 0 -2 0
vertex 6 -2 0
endloop
endfacet
facet normal 0.45398946051395667 0 -0.8910070536994905
outer loop
vertex 6.61803 6 -1.90211
vertex 7.17557 6 -1.61803
vertex 7.17557 0 -1.61803
endloop
endfacet
facet normal 0.45398946051395667 0 -0.8910070536994905
outer loop
vertex 6.61803 6 -1.90211
vertex 7.17557 0 -1.61803
vertex 6.61803 0 -1.90211
endloop
endfacet
facet normal 0.15644017780220068 0 -0.9876874357655948
outer loop
vertex 6.61803 6 -1.90211
vertex 6.61803 0 -1.90211
vertex 6 0 -2
endloop
endfacet
facet normal 0.15644017780220068 0 -0.9876874357655948
outer loop
vertex 6.61803 6 -1.90211
vertex 6 0 -2
vertex 6 6 -2
endloop
endfacet
facet normal 0 0.7071067811865471 -0.7071067811865479
outer loop
vertex 6 7.61803 -1.17557
vertex 6 7.17557 -1.61803
vertex 0 7.17557 -1.61803
endloop
endfacet
facet normal 0 0.7071067811865471 -0.7071067811865479
outer loop
vertex 6 7.61803 -1.17557
vertex 0 7.17557 -1.61803
vertex 0 7.61803 -1.17557
endloop
endfacet
facet normal 0.9876874357655949 0.1564401778022 0
outer loop
vertex 7.90211 6.61803 0
vertex 7.90211 6.61803 6
vertex 8 6 6
endloop
endfacet
facet normal 0.9876874357655949 0.1564401778022 0
outer loop
vertex 7.90211 6.61803 0
vertex 8 6 6
vertex 8 6 0
endloop
endfacet
facet normal 0.13973321795168936 0.8822655509009344 0.4495354552138644
outer loop
vertex 6 7.90211 6.61803
vertex 6 7.61803 7.17557
vertex 6.5 7.53884 7.17557
endloop
endfacet
facet normal 0.1397267125864255 0.882264092718605 0.449540339112306
outer loop
vertex 6 7.90211 6.61803
vertex 6.5 7.53884 7.17557
vertex 6.58779 7.80902 6.61803
endloop
endfacet
facet normal 0.15454404869795738 0.9758238949852001 0.15454404869795738
outer loop
vertex 6 7.90211 6.61803
vertex 6.58779 7.80902 6.61803
vertex 6.61803 7.90211 6
endloop
endfacet
facet normal 0.15456029222149295 0.9758187496337695 0.15456029222149295
outer loop
vertex 6 7.90211 6.61803
vertex 6.61803 7.90211 6
vertex 6 8 6
endloop
endfacet
facet normal 0 1 0
outer loop
vertex 0 8 6
vertex 6 8 6
vertex 6 8 0
endloop
endfacet
facet normal 0 1 0
outer loop
vertex 0 8 6
vertex 6 8 0
vertex 0 8 0
endloop
endfacet
facet normal 0.8910070536994904 -0.45398946051395683 0
outer loop
vertex 7.61803 -1.17557 0
vertex 7.90211 -0.61803 0
vertex 7.90211 -0.61803 6
endloop
endfacet
facet normal 0.8910070536994904 -0.45398946051395683 0
outer loop
vertex 7.61803 -1.17557 0
vertex 7.90211 -0.61803 6
vertex 7.61803 -1.17557 6
endloop
endfacet
facet normal 0.9876874357655948 0 -0.15644017780220001
outer loop
vertex 7.90211 0 -0.61803
vertex 7.90211 6 -0.61803
vertex 8 6 0
endloop
endfacet
facet normal 0.9876874357655948 0 -0.15644017780220001
outer loop
vertex 7.90211 0 -0.61803
vertex 8 6 0
vertex 8 0 0
endloop
endfacet
facet normal 0.8802940947086102 -0.4485475605544134 0.1545554681718936
outer loop
vertex 7.80902 -0.58779 6.61803
vertex 7.53884 -1.11803 6.61803
vertex 7.61803 -1.17557 6
endloop
endfacet
facet normal 0.8803028021405557 -0.44853538765306394 0.15454120022311704
outer loop
vertex 7.80902 -0.58779 6.61803
vertex 7.61803 -1.17557 6
vertex 7.90211 -0.61803 6
endloop
endfacet
facet normal 0.9758211964257848 -0.15456067976978413 0.15454445598355204
outer loop
vertex 7.80902 -0.58779 6.61803
vertex 7.90211 -0.61803 6
vertex 8 0 6
endloop
endfacet
facet normal 0.9758213222993108 -0.15454364125426248 0.15456069970693836
outer loop
vertex 7.80902 -0.58779 6.61803
vertex 8 0 6
vertex 7.90211 0 6.61803
endloop
endfacet
facet normal 0.7027137553388964 -0.11129580457057392 0.7027137553388964
outer loop
vertex 7.53884 -0.5 7.17557
vertex 7.61803 0 7.17557
vertex 7.17557 0 7.61803
endloop
endfacet
facet normal 0.7027072356403866 -0.11130501923843829 0.7027188155094305
outer loop
vertex 7.53884 -0.5 7.17557
vertex 7.17557 0 7.61803
vertex 7.11803 -0.36327 7.61803
endloop
endfacet
facet normal 0.7959127085860755 -0.4055262241991131 0.4495235720159596
outer loop
vertex 7.53884 -0.5 7.17557
vertex 7.30902 -0.95106 7.17557
vertex 7.53884 -1.11803 6.61803
endloop
endfacet
facet normal 0.7958944335973128 -0.4055423168175201 0.44954141059427527
outer loop
vertex 7.53884 -0.5 7.17557
vertex 7.53884 -1.11803 6.61803
vertex 7.80902 -0.58779 6.61803
endloop
endfacet
facet normal 0.882264092718605 -0.13972671258642547 0.44954033911230606
outer loop
vertex 7.53884 -0.5 7.17557
vertex 7.80902 -0.58779 6.61803
vertex 7.90211 0 6.61803
endloop
endfacet
facet normal 0.8822655509009344 -0.13973321795168936 0.4495354552138644
outer loop
vertex 7.53884 -0.5 7.17557
vertex 7.90211 0 6.61803
vertex 7.61803 0 7.17557
endloop
endfacet
facet normal 0.50308295635657 -0.5030829563565706 0.7027197720621403
outer loop
vertex 6.95106 -0.69098 7.61803
vertex 6.69098 -0.95106 7.61803
vertex 6.95106 -1.30902 7.17557
endloop
endfacet
facet normal 0.5030829563565703 -0.5030829563565705 0.70271977206214
outer loop
vertex 6.95106 -0.69098 7.61803
vertex 6.95106 -1.30902 7.17557
vertex 7.30902 -0.95106 7.17557
endloop
endfacet
facet normal 0.6339270413370653 -0.3229927562632121 0.7027177140666997
outer loop
vertex 6.95106 -0.69098 7.61803
vertex 7.30902 -0.95106 7.17557
vertex 7.53884 -0.5 7.17557
endloop
endfacet
facet normal 0.6339270854125849 -0.32298924491574665 0.702719288228992
outer loop
vertex 6.95106 -0.69098 7.61803
vertex 7.53884 -0.5 7.17557
vertex 7.11803 -0.36327 7.61803
endloop
endfacet
facet normal 0 -0.7071067811865479 0.7071067811865471
outer loop
vertex 0 -1.17557 7.61803
vertex 0 -1.61803 7.17557
vertex 6 -1.61803 7.17557
endloop
endfacet
facet normal 0 -0.7071067811865479 0.7071067811865471
outer loop
vertex 0 -1.17557 7.61803
vertex 6 -1.61803 7.17557
vertex 6 -1.17557 7.61803
endloop
endfacet
facet normal 0.15639220413733326 -0.024763327328060344 0.987384553304694
outer loop
vertex 6.58779 -0.19098 7.90211
vertex 6.61803 0 7.90211
vertex 6 0 8
endloop
endfacet
facet normal 0.45282675111339954 -0.07172530420641608 0.8887088467054778
outer loop
vertex 6.58779 -0.19098 7.90211
vertex 7.11803 -0.36327 7.61803
vertex 7.17557 0 7.61803
endloop
endfacet
facet normal 0.4528209949240293 -0.07170021408787655 0.8887138042450815
outer loop
vertex 6.58779 -0.19098 7.90211
vertex 7.17557 0 7.61803
vertex 6.61803 0 7.90211
endloop
endfacet
facet normal 0.1113050192384383 0.7027072356403866 0.7027188155094305
outer loop
vertex 6 7.17557 7.61803
vertex 6.36327 7.11803 7.61803
vertex 6.5 7.53884 7.17557
endloop
endfacet
facet normal 0.11129580457057392 0.7027137553388964 0.7027137553388964
outer loop
vertex 6 7.17557 7.61803
vertex 6.5 7.53884 7.17557
vertex 6 7.61803 7.17557
endloop
endfacet
facet normal 0 0.7071067811865475 0.7071067811865475
outer loop
vertex 6 7.17557 7.61803
vertex 6 7.61803 7.17557
vertex 0 7.61803 7.17557
endloop
endfacet
facet normal 0 0.7071067811865475 0.7071067811865475
outer loop
vertex 6 7.17557 7.61803
vertex 0 7.61803 7.17557
vertex 0 7.17557 7.61803
endloop
endfacet
facet normal 0 0.4539894605139572 0.8910070536994902
outer loop
vertex 6 7.17557 7.61803
vertex 0 7.17557 7.61803
vertex 0 6.61803 7.90211
endloop
endfacet
facet normal 0 0.4539894605139572 0.8910070536994902
outer loop
vertex 6 7.17557 7.61803
vertex 0 6.61803 7.90211
vertex 6 6.61803 7.90211
endloop
endfacet
facet normal 0.4485343998176577 0.8803008633988185 0.15455511016950618
outer loop
vertex 7.11803 7.53884 6.61803
vertex 7.17557 7.61803 6
vertex 6.61803 7.90211 6
endloop
endfacet
facet normal 0.44854859927223967 0.8802961332375175 0.15454084216797428
outer loop
vertex 7.11803 7.53884 6.61803
vertex 6.61803 7.90211 6
vertex 6.58779 7.80902 6.61803
endloop
endfacet
facet normal 0.6316364200427179 0.6316364200427179 0.44952293128519993
outer loop
vertex 6.95106 7.30902 7.17557
vertex 7.30902 6.95106 7.17557
vertex 7.53884 7.11803 6.61803
endloop
endfacet
facet normal 0.6316364200427179 0.6316364200427179 0.4495229312852
outer loop
vertex 6.95106 7.30902 7.17557
vertex 7.53884 7.11803 6.61803
vertex 7.11803 7.53884 6.61803
endloop
endfacet
facet normal 0.40554606362240936 0.7959017868648547 0.4495250114795619
outer loop
vertex 6.95106 7.30902 7.17557
vertex 7.11803 7.53884 6.61803
vertex 6.58779 7.80902 6.61803
endloop
endfacet
facet normal 0.40552181983456437 0.79590406428761 0.4495428501138986
outer loop
vertex 6.95106 7.30902 7.17557
vertex 6.58779 7.80902 6.61803
vertex 6.5 7.53884 7.17557
endloop
endfacet
facet normal -0.8910070536994906 -0.4539894605139562 0
outer loop
vertex -1.61803 -1.17557 6
vertex -1.90211 -0.61803 6
vertex -1.90211 -0.61803 0
endloop
endfacet
facet normal -0.8910070536994906 -0.4539894605139562 0
outer loop
vertex -1.61803 -1.17557 6
vertex -1.90211 -0.61803 0
vertex -1.61803 -1.17557 0
endloop
endfacet
facet normal -0.7071067811865475 -0.7071067811865475 0
outer loop
vertex -1.61803 -1.17557 6
vertex -1.61803 -1.17557 0
vertex -1.17557 -1.61803 0
endloop
endfacet
facet normal -0.7071067811865475 -0.7071067811865475 0
outer loop
vertex -1.61803 -1.17557 6
vertex -1.17557 -1.61803 0
vertex -1.17557 -1.61803 6
endloop
endfacet
facet normal -0.11129580457057459 -0.7027137553388967 0.7027137553388959
outer loop
vertex -0.5 -1.53884 7.17557
vertex 0 -1.61803 7.17557
vertex 0 -1.17557 7.61803
endloop
endfacet
facet normal -0.11130501923843916 -0.7027072356403867 0.7027188155094302
outer loop
vertex -0.5 -1.53884 7.17557
vertex 0 -1.17557 7.61803
vertex -0.36327 -1.11803 7.61803
endloop
endfacet
facet normal -0.15644017780220074 -0.9876874357655948 0
outer loop
vertex -0.61803 -1.90211 6
vertex -0.61803 -1.90211 0
vertex 0 -2 0
endloop
endfacet
facet normal -0.15644017780220074 -0.9876874357655948 0
outer loop
vertex -0.61803 -1.90211 6
vertex 0 -2 0
vertex 0 -2 6
endloop
endfacet
facet normal -0.44854859927223995 -0.8802961332375174 0.15454084216797387
outer loop
vertex -0.61803 -1.90211 6
vertex -0.58779 -1.80902 6.61803
vertex -1.11803 -1.53884 6.61803
endloop
endfacet
facet normal -0.44853439981765675 -0.8803008633988189 0.15455511016950707
outer loop
vertex -0.61803 -1.90211 6
vertex -1.11803 -1.53884 6.61803
vertex -1.17557 -1.61803 6
endloop
endfacet
facet normal -0.4539894605139562 -0.8910070536994906 0
outer loop
vertex -0.61803 -1.90211 6
vertex -1.17557 -1.61803 6
vertex -1.17557 -1.61803 0
endloop
endfacet
facet normal -0.4539894605139562 -0.8910070536994906 0
outer loop
vertex -0.61803 -1.90211 6
vertex -1.17557 -1.61803 0
vertex -0.61803 -1.90211 0
endloop
endfacet
facet normal -0.1112951465746497 0.70270960079966 -0.7027180140660331
outer loop
vertex -0.36327 7.11803 -1.61803
vertex -0.5 7.53884 -1.17557
vertex 0 7.61803 -1.17557
endloop
endfacet
facet normal -0.11130592497458837 0.7027129538672068 -0.7027129538672076
outer loop
vertex -0.36327 7.11803 -1.61803
vertex 0 7.61803 -1.17557
vertex 0 7.17557 -1.61803
endloop
endfacet
facet normal -0.7071067811865475 0 -0.7071067811865475
outer loop
vertex -1.61803 0 -1.17557
vertex -1.61803 6 -1.17557
vertex -1.17557 6 -1.61803
endloop
endfacet
facet normal -0.7071067811865475 0 -0.7071067811865475
outer loop
vertex -1.61803 0 -1.17557
vertex -1.17557 6 -1.61803
vertex -1.17557 0 -1.61803
endloop
endfacet
facet normal 0.7071067811865471 -0.7071067811865479 0
outer loop
vertex 7.17557 -1.61803 6
vertex 7.17557 -1.61803 0
vertex 7.61803 -1.17557 0
endloop
endfacet
facet normal 0.7071067811865471 -0.7071067811865479 0
outer loop
vertex 7.17557 -1.61803 6
vertex 7.61803 -1.17557 0
vertex 7.61803 -1.17557 6
endloop
endfacet
facet normal -0.15454404869795704 -0.9758238949852002 0.15454404869795701
outer loop
vertex 0 -1.90211 6.61803
vertex -0.58779 -1.80902 6.61803
vertex -0.61803 -1.90211 6
endloop
endfacet
facet normal -0.15456029222149364 -0.9758187496337694 0.15456029222149362
outer loop
vertex 0 -1.90211 6.61803
vertex -0.61803 -1.90211 6
vertex 0 -2 6
endloop
endfacet
facet normal -0.1397332179516902 -0.8822655509009347 0.44953545521386384
outer loop
vertex 0 -1.90211 6.61803
vertex 0 -1.61803 7.17557
vertex -0.5 -1.53884 7.17557
endloop
endfacet
facet normal -0.13972671258642513 -0.882264092718605 0.4495403391123063
outer loop
vertex 0 -1.90211 6.61803
vertex -0.5 -1.53884 7.17557
vertex -0.58779 -1.80902 6.61803
endloop
endfacet
facet normal -0.15454364125426215 -0.9758213222993108 -0.15456069970693914
outer loop
vertex -0.58779 -1.80902 -0.61803
vertex 0 -1.90211 -0.61803
vertex 0 -2 0
endloop
endfacet
facet normal -0.15456067976978483 -0.9758211964257848 -0.15454445598355177
outer loop
vertex -0.58779 -1.80902 -0.61803
vertex 0 -2 0
vertex -0.61803 -1.90211 0
endloop
endfacet
facet normal -0.4485353876530634 -0.8803028021405559 -0.15454120022311676
outer loop
vertex -0.58779 -1.80902 -0.61803
vertex -0.61803 -1.90211 0
vertex -1.17557 -1.61803 0
endloop
endfacet
facet normal -0.44854756055441364 -0.8802940947086101 -0.15455546817189433
outer loop
vertex -0.58779 -1.80902 -0.61803
vertex -1.17557 -1.61803 0
vertex -1.11803 -1.53884 -0.61803
endloop
endfacet
facet normal -0.7959017868648548 0.40554606362240975 -0.44952501147956136
outer loop
vertex -1.80902 6.58779 -0.61803
vertex -1.53884 7.11803 -0.61803
vertex -1.30902 6.95106 -1.17557
endloop
endfacet
facet normal -0.7959040642876102 0.40552181983456415 -0.4495428501138985
outer loop
vertex -1.80902 6.58779 -0.61803
vertex -1.30902 6.95106 -1.17557
vertex -1.53884 6.5 -1.17557
endloop
endfacet
facet normal -0.8822629273778925 0.13973280243811081 -0.44954073330164795
outer loop
vertex -1.80902 6.58779 -0.61803
vertex -1.53884 6.5 -1.17557
vertex -1.61803 6 -1.17557
endloop
endfacet
facet normal -0.88226632440748 0.13972706602543802 -0.44953584933399715
outer loop
vertex -1.80902 6.58779 -0.61803
vertex -1.61803 6 -1.17557
vertex -1.90211 6 -0.61803
endloop
endfacet
facet normal -0.9758213222993108 0.15454364125426215 -0.15456069970693914
outer loop
vertex -1.80902 6.58779 -0.61803
vertex -1.90211 6 -0.61803
vertex -2 6 0
endloop
endfacet
facet normal -0.9758211964257847 0.15456067976978477 -0.15454445598355177
outer loop
vertex -1.80902 6.58779 -0.61803
vertex -2 6 0
vertex -1.90211 6.61803 0
endloop
endfacet
facet normal -0.8802940947086101 0.44854756055441364 -0.154555468171894
outer loop
vertex -1.61803 7.17557 0
vertex -1.53884 7.11803 -0.61803
vertex -1.80902 6.58779 -0.61803
endloop
endfacet
facet normal -0.8803028021405556 0.4485353876530638 -0.1545412002231168
outer loop
vertex -1.61803 7.17557 0
vertex -1.80902 6.58779 -0.61803
vertex -1.90211 6.61803 0
endloop
endfacet
facet normal -0.6986100797263487 0.6986100797263479 -0.15455715127256497
outer loop
vertex -1.11803 7.53884 -0.61803
vertex -1.53884 7.11803 -0.61803
vertex -1.61803 7.17557 0
endloop
endfacet
facet normal -0.6986100797263486 0.6986100797263479 -0.15455715127256495
outer loop
vertex -1.11803 7.53884 -0.61803
vertex -1.61803 7.17557 0
vertex -1.17557 7.61803 0
endloop
endfacet
facet normal -0.4485343998176573 0.8803008633988185 -0.15455511016950652
outer loop
vertex -1.11803 7.53884 -0.61803
vertex -1.17557 7.61803 0
vertex -0.61803 7.90211 0
endloop
endfacet
facet normal -0.44854859927223956 0.8802961332375175 -0.15454084216797423
outer loop
vertex -1.11803 7.53884 -0.61803
vertex -0.61803 7.90211 0
vertex -0.58779 7.80902 -0.61803
endloop
endfacet
facet normal -0.4055423168175202 0.7958944335973129 -0.44954141059427494
outer loop
vertex -1.11803 7.53884 -0.61803
vertex -0.58779 7.80902 -0.61803
vertex -0.5 7.53884 -1.17557
endloop
endfacet
facet normal -0.40552622419911327 0.7959127085860757 -0.44952357201595927
outer loop
vertex -1.11803 7.53884 -0.61803
vertex -0.5 7.53884 -1.17557
vertex -0.95106 7.30902 -1.17557
endloop
endfacet
facet normal -0.6316364200427181 0.6316364200427177 -0.4495229312851996
outer loop
vertex -1.11803 7.53884 -0.61803
vertex -0.95106 7.30902 -1.17557
vertex -1.30902 6.95106 -1.17557
endloop
endfacet
facet normal -0.6316364200427184 0.6316364200427177 -0.44952293128519943
outer loop
vertex -1.11803 7.53884 -0.61803
vertex -1.30902 6.95106 -1.17557
vertex -1.53884 7.11803 -0.61803
endloop
endfacet
facet normal 0.1564401778022 0.9876874357655949 0
outer loop
vertex 6.61803 7.90211 0
vertex 6 8 0
vertex 6 8 6
endloop
endfacet
facet normal 0.1564401778022 0.9876874357655949 0
outer loop
vertex 6.61803 7.90211 0
vertex 6 8 6
vertex 6.61803 7.90211 6
endloop
endfacet
facet normal 0.4539894605139572 0.8910070536994902 0
outer loop
vertex 6.61803 7.90211 0
vertex 6.61803 7.90211 6
vertex 7.17557 7.61803 6
endloop
endfacet
facet normal 0.4539894605139572 0.8910070536994902 0
outer loop
vertex 6.61803 7.90211 0
vertex 7.17557 7.61803 6
vertex 7.17557 7.61803 0
endloop
endfacet
facet normal 0.9758211964257848 0.15456067976978408 -0.1545444559835521
outer loop
vertex 7.80902 6.58779 -0.61803
vertex 7.90211 6.61803 0
vertex 8 6 0
endloop
endfacet
facet normal 0.9758213222993108 0.1545436412542625 -0.1545606997069384
outer loop
vertex 7.80902 6.58779 -0.61803
vertex 8 6 0
vertex 7.90211 6 -0.61803
endloop
endfacet
facet normal -0.15644017780220001 0.9876874357655948 0
outer loop
vertex -0.61803 7.90211 6
vertex 0 8 6
vertex 0 8 0
endloop
endfacet
facet normal -0.15644017780220001 0.9876874357655948 0
outer loop
vertex -0.61803 7.90211 6
vertex 0 8 0
vertex -0.61803 7.90211 0
endloop
endfacet
facet normal -0.45398946051395683 0.8910070536994904 0
outer loop
vertex -0.61803 7.90211 6
vertex -0.61803 7.90211 0
vertex -1.17557 7.61803 0
endloop
endfacet
facet normal -0.45398946051395683 0.8910070536994904 0
outer loop
vertex -0.61803 7.90211 6
vertex -1.17557 7.61803 0
vertex -1.17557 7.61803 6
endloop
endfacet
facet normal 0.324184611645961 -0.324184611645961 0.8887118065739392
outer loop
vertex 6.5 -0.36327 7.90211
vertex 6.36327 -0.5 7.90211
vertex 6.69098 -0.95106 7.61803
endloop
endfacet
facet normal 0.3241846116459607 -0.32418461164596124 0.8887118065739393
outer loop
vertex 6.5 -0.36327 7.90211
vertex 6.69098 -0.95106 7.61803
vertex 6.95106 -0.69098 7.61803
endloop
endfacet
facet normal 0.40849994360782543 -0.20813290892618047 0.8887117014500989
outer loop
vertex 6.5 -0.36327 7.90211
vertex 6.95106 -0.69098 7.61803
vertex 7.11803 -0.36327 7.61803
endloop
endfacet
facet normal 0.40849846746084334 -0.2081495180125803 0.8887084900197999
outer loop
vertex 6.5 -0.36327 7.90211
vertex 7.11803 -0.36327 7.61803
vertex 6.58779 -0.19098 7.90211
endloop
endfacet
facet normal 0.141080997331351 -0.07188751962226078 0.9873845941245744
outer loop
vertex 6.5 -0.36327 7.90211
vertex 6.58779 -0.19098 7.90211
vertex 6 0 8
endloop
endfacet
facet normal 0.11196389289795655 -0.11196389289795655 0.9873845114109648
outer loop
vertex 6.5 -0.36327 7.90211
vertex 6 0 8
vertex 6.36327 -0.5 7.90211
endloop
endfacet
facet normal 0.7958944335973128 0.4055423168175201 0.44954141059427527
outer loop
vertex 7.53884 6.5 7.17557
vertex 7.80902 6.58779 6.61803
vertex 7.53884 7.11803 6.61803
endloop
endfacet
facet normal 0.7959127085860755 0.4055262241991131 0.4495235720159596
outer loop
vertex 7.53884 6.5 7.17557
vertex 7.53884 7.11803 6.61803
vertex 7.30902 6.95106 7.17557
endloop
endfacet
facet normal 0.8910070536994902 0 0.4539894605139572
outer loop
vertex 7.61803 6 7.17557
vertex 7.61803 0 7.17557
vertex 7.90211 0 6.61803
endloop
endfacet
facet normal 0.8910070536994902 0 0.4539894605139572
outer loop
vertex 7.61803 6 7.17557
vertex 7.90211 0 6.61803
vertex 7.90211 6 6.61803
endloop
endfacet
facet normal 0.8822663244074794 0.13972706602543825 0.44953584933399804
outer loop
vertex 7.61803 6 7.17557
vertex 7.90211 6 6.61803
vertex 7.80902 6.58779 6.61803
endloop
endfacet
facet normal 0.8822629273778927 0.13973280243811004 0.44954073330164807
outer loop
vertex 7.61803 6 7.17557
vertex 7.80902 6.58779 6.61803
vertex 7.53884 6.5 7.17557
endloop
endfacet
facet normal 0.322992756263212 0.6339270413370651 0.7027177140666997
outer loop
vertex 6.69098 6.95106 7.61803
vertex 6.95106 7.30902 7.17557
vertex 6.5 7.53884 7.17557
endloop
endfacet
facet normal 0.32298924491574693 0.6339270854125849 0.7027192882289919
outer loop
vertex 6.69098 6.95106 7.61803
vertex 6.5 7.53884 7.17557
vertex 6.36327 7.11803 7.61803
endloop
endfacet
facet normal -0.8802961332375174 -0.4485485992722399 0.1545408421679739
outer loop
vertex -1.53884 -1.11803 6.61803
vertex -1.80902 -0.58779 6.61803
vertex -1.90211 -0.61803 6
endloop
endfacet
facet normal -0.8803008633988189 -0.44853439981765675 0.1545551101695071
outer loop
vertex -1.53884 -1.11803 6.61803
vertex -1.90211 -0.61803 6
vertex -1.61803 -1.17557 6
endloop
endfacet
facet normal -0.6986100797263483 -0.6986100797263483 0.15455715127256542
outer loop
vertex -1.53884 -1.11803 6.61803
vertex -1.61803 -1.17557 6
vertex -1.17557 -1.61803 6
endloop
endfacet
facet normal -0.6986100797263483 -0.6986100797263483 0.15455715127256536
outer loop
vertex -1.53884 -1.11803 6.61803
vertex -1.17557 -1.61803 6
vertex -1.11803 -1.53884 6.61803
endloop
endfacet
facet normal -0.6316364200427179 -0.6316364200427179 0.44952293128519977
outer loop
vertex -0.95106 -1.30902 7.17557
vertex -1.30902 -0.95106 7.17557
vertex -1.53884 -1.11803 6.61803
endloop
endfacet
facet normal -0.6316364200427179 -0.6316364200427179 0.4495229312851997
outer loop
vertex -0.95106 -1.30902 7.17557
vertex -1.53884 -1.11803 6.61803
vertex -1.11803 -1.53884 6.61803
endloop
endfacet
facet normal -0.4055460636224096 -0.7959017868648546 0.4495250114795617
outer loop
vertex -0.95106 -1.30902 7.17557
vertex -1.11803 -1.53884 6.61803
vertex -0.58779 -1.80902 6.61803
endloop
endfacet
facet normal -0.4055218198345641 -0.7959040642876101 0.44954285011389883
outer loop
vertex -0.95106 -1.30902 7.17557
vertex -0.58779 -1.80902 6.61803
vertex -0.5 -1.53884 7.17557
endloop
endfacet
facet normal -0.9876874357655948 0 -0.15644017780220074
outer loop
vertex -1.90211 0 -0.61803
vertex -2 0 0
vertex -2 6 0
endloop
endfacet
facet normal -0.9876874357655948 0 -0.15644017780220074
outer loop
vertex -1.90211 0 -0.61803
vertex -2 6 0
vertex -1.90211 6 -0.61803
endloop
endfacet
facet normal -0.8910070536994906 0 -0.4539894605139562
outer loop
vertex -1.90211 0 -0.61803
vertex -1.90211 6 -0.61803
vertex -1.61803 6 -1.17557
endloop
endfacet
facet normal -0.8910070536994906 0 -0.4539894605139562
outer loop
vertex -1.90211 0 -0.61803
vertex -1.61803 6 -1.17557
vertex -1.61803 0 -1.17557
endloop
endfacet
facet normal 0.15644017780220068 -0.9876874357655948 0
outer loop
vertex 6.61803 -1.90211 6
vertex 6 -2 6
vertex 6 -2 0
endloop
endfacet
facet normal 0.15644017780220068 -0.9876874357655948 0
outer loop
vertex 6.61803 -1.90211 6
vertex 6 -2 0
vertex 6.61803 -1.90211 0
endloop
endfacet
facet normal 0.45398946051395667 -0.8910070536994905 0
outer loop
vertex 6.61803 -1.90211 6
vertex 6.61803 -1.90211 0
vertex 7.17557 -1.61803 0
endloop
endfacet
facet normal 0.45398946051395667 -0.8910070536994905 0
outer loop
vertex 6.61803 -1.90211 6
vertex 7.17557 -1.61803 0
vertex 7.17557 -1.61803 6
endloop
endfacet
facet normal 0.6986100797263479 -0.6986100797263487 0.15455715127256492
outer loop
vertex 7.11803 -1.53884 6.61803
vertex 7.17557 -1.61803 6
vertex 7.61803 -1.17557 6
endloop
endfacet
facet normal 0.698610079726348 -0.6986100797263487 0.15455715127256495
outer loop
vertex 7.11803 -1.53884 6.61803
vertex 7.61803 -1.17557 6
vertex 7.53884 -1.11803 6.61803
endloop
endfacet
facet normal 0.6316364200427175 -0.6316364200427181 0.44952293128519993
outer loop
vertex 7.11803 -1.53884 6.61803
vertex 7.53884 -1.11803 6.61803
vertex 7.30902 -0.95106 7.17557
endloop
endfacet
facet normal 0.6316364200427178 -0.6316364200427181 0.4495229312851997
outer loop
vertex 7.11803 -1.53884 6.61803
vertex 7.30902 -0.95106 7.17557
vertex 6.95106 -1.30902 7.17557
endloop
endfacet
facet normal 0.07188751962226102 -0.1410809973313517 -0.9873845941245742
outer loop
vertex 6.19098 -0.58779 -1.90211
vertex 6 0 -2
vertex 6.36327 -0.5 -1.90211
endloop
endfacet
facet normal 0.07172530420641657 -0.45282675111339876 -0.8887088467054781
outer loop
vertex 6.19098 -0.58779 -1.90211
vertex 6.36327 -1.11803 -1.61803
vertex 6 -1.17557 -1.61803
endloop
endfacet
facet normal 0.07170021408787626 -0.45282099492402833 -0.888713804245082
outer loop
vertex 6.19098 -0.58779 -1.90211
vertex 6 -1.17557 -1.61803
vertex 6 -0.61803 -1.90211
endloop
endfacet
facet normal 0.024763327328060407 -0.15639220413733398 -0.9873845533046938
outer loop
vertex 6.19098 -0.58779 -1.90211
vertex 6 -0.61803 -1.90211
vertex 6 0 -2
endloop
endfacet
facet normal 0.20813485655268743 -0.4085037661908194 -0.8887094882444478
outer loop
vertex 6.69098 -0.95106 -1.61803
vertex 6.36327 -1.11803 -1.61803
vertex 6.19098 -0.58779 -1.90211
endloop
endfacet
facet normal 0.20814581328232556 -0.40849119683804436 -0.8887126996498145
outer loop
vertex 6.69098 -0.95106 -1.61803
vertex 6.19098 -0.58779 -1.90211
vertex 6.36327 -0.5 -1.90211
endloop
endfacet
facet normal 0.4528209949240287 -0.07170021408787645 -0.8887138042450818
outer loop
vertex 6.58779 -0.19098 -1.90211
vertex 6.61803 0 -1.90211
vertex 7.17557 0 -1.61803
endloop
endfacet
facet normal 0.452826751113399 -0.07172530420641599 -0.8887088467054781
outer loop
vertex 6.58779 -0.19098 -1.90211
vertex 7.17557 0 -1.61803
vertex 7.11803 -0.36327 -1.61803
endloop
endfacet
facet normal 0.15639220413733396 -0.024763327328060452 -0.9873845533046939
outer loop
vertex 6.58779 -0.19098 -1.90211
vertex 6 0 -2
vertex 6.61803 0 -1.90211
endloop
endfacet
facet normal 0.02476332732806049 0.15639220413733396 -0.9873845533046939
outer loop
vertex 6 6.61803 -1.90211
vertex 6.19098 6.58779 -1.90211
vertex 6 6 -2
endloop
endfacet
facet normal 0 0.45398946051395667 -0.8910070536994905
outer loop
vertex 6 6.61803 -1.90211
vertex 0 6.61803 -1.90211
vertex 0 7.17557 -1.61803
endloop
endfacet
facet normal 0 0.45398946051395667 -0.8910070536994905
outer loop
vertex 6 6.61803 -1.90211
vertex 0 7.17557 -1.61803
vertex 6 7.17557 -1.61803
endloop
endfacet
facet normal 0.07170218428012395 0.45283343762625794 -0.88870730532445
outer loop
vertex 6.36327 7.11803 -1.61803
vertex 6.19098 6.58779 -1.90211
vertex 6 6.61803 -1.90211
endloop
endfacet
facet normal 0.07172426809556745 0.4528202097858363 -0.8887122633201741
outer loop
vertex 6.36327 7.11803 -1.61803
vertex 6 6.61803 -1.90211
vertex 6 7.17557 -1.61803
endloop
endfacet
facet normal 0.3241846116459606 0.3241846116459606 -0.8887118065739396
outer loop
vertex 6.36327 6.5 -1.90211
vertex 6.69098 6.95106 -1.61803
vertex 6.95106 6.69098 -1.61803
endloop
endfacet
facet normal 0.32418461164596063 0.32418461164596063 -0.8887118065739396
outer loop
vertex 6.36327 6.5 -1.90211
vertex 6.95106 6.69098 -1.61803
vertex 6.5 6.36327 -1.90211
endloop
endfacet
facet normal 0.11196389289795704 0.11196389289795704 -0.9873845114109647
outer loop
vertex 6.36327 6.5 -1.90211
vertex 6.5 6.36327 -1.90211
vertex 6 6 -2
endloop
endfacet
facet normal 0.071887519622261 0.1410809973313517 -0.9873845941245742
outer loop
vertex 6.36327 6.5 -1.90211
vertex 6 6 -2
vertex 6.19098 6.58779 -1.90211
endloop
endfacet
facet normal 0.20814951801257972 0.40849846746084295 -0.8887084900198002
outer loop
vertex 6.36327 6.5 -1.90211
vertex 6.19098 6.58779 -1.90211
vertex 6.36327 7.11803 -1.61803
endloop
endfacet
facet normal 0.20813290892618047 0.40849994360782493 -0.8887117014500991
outer loop
vertex 6.36327 6.5 -1.90211
vertex 6.36327 7.11803 -1.61803
vertex 6.69098 6.95106 -1.61803
endloop
endfacet
facet normal -0.1545440486979574 0.9758238949852001 -0.1545440486979574
outer loop
vertex 0 7.90211 -0.61803
vertex -0.58779 7.80902 -0.61803
vertex -0.61803 7.90211 0
endloop
endfacet
facet normal -0.15456029222149298 0.9758187496337695 -0.15456029222149298
outer loop
vertex 0 7.90211 -0.61803
vertex -0.61803 7.90211 0
vertex 0 8 0
endloop
endfacet
facet normal 0 0.9876874357655948 -0.15644017780220001
outer loop
vertex 0 7.90211 -0.61803
vertex 0 8 0
vertex 6 8 0
endloop
endfacet
facet normal 0 0.9876874357655948 -0.15644017780220001
outer loop
vertex 0 7.90211 -0.61803
vertex 6 8 0
vertex 6 7.90211 -0.61803
endloop
endfacet
facet normal 0 0.8910070536994904 -0.45398946051395683
outer loop
vertex 0 7.90211 -0.61803
vertex 6 7.90211 -0.61803
vertex 6 7.61803 -1.17557
endloop
endfacet
facet normal 0 0.8910070536994904 -0.45398946051395683
outer loop
vertex 0 7.90211 -0.61803
vertex 6 7.61803 -1.17557
vertex 0 7.61803 -1.17557
endloop
endfacet
facet normal -0.13973321795168936 0.8822655509009346 -0.4495354552138641
outer loop
vertex 0 7.90211 -0.61803
vertex 0 7.61803 -1.17557
vertex -0.5 7.53884 -1.17557
endloop
endfacet
facet normal -0.13972671258642552 0.8822640927186052 -0.4495403391123057
outer loop
vertex 0 7.90211 -0.61803
vertex -0.5 7.53884 -1.17557
vertex -0.58779 7.80902 -0.61803
endloop
endfacet
facet normal 0.1545436412542625 0.9758213222993108 -0.1545606997069384
outer loop
vertex 6.58779 7.80902 -0.61803
vertex 6 7.90211 -0.61803
vertex 6 8 0
endloop
endfacet
facet normal 0.15456067976978408 0.9758211964257848 -0.1545444559835521
outer loop
vertex 6.58779 7.80902 -0.61803
vertex 6 8 0
vertex 6.61803 7.90211 0
endloop
endfacet
facet normal 0.8802940947086102 0.44854756055441336 0.15455546817189333
outer loop
vertex 7.61803 7.17557 6
vertex 7.53884 7.11803 6.61803
vertex 7.80902 6.58779 6.61803
endloop
endfacet
facet normal 0.8803028021405553 0.44853538765306433 0.15454120022311713
outer loop
vertex 7.61803 7.17557 6
vertex 7.80902 6.58779 6.61803
vertex 7.90211 6.61803 6
endloop
endfacet
facet normal 0.8910070536994902 0.4539894605139572 0
outer loop
vertex 7.61803 7.17557 6
vertex 7.90211 6.61803 6
vertex 7.90211 6.61803 0
endloop
endfacet
facet normal 0.8910070536994902 0.4539894605139572 0
outer loop
vertex 7.61803 7.17557 6
vertex 7.90211 6.61803 0
vertex 7.61803 7.17557 0
endloop
endfacet
facet normal 0.7071067811865475 0.7071067811865475 0
outer loop
vertex 7.61803 7.17557 6
vertex 7.61803 7.17557 0
vertex 7.17557 7.61803 0
endloop
endfacet
facet normal 0.7071067811865475 0.7071067811865475 0
outer loop
vertex 7.61803 7.17557 6
vertex 7.17557 7.61803 0
vertex 7.17557 7.61803 6
endloop
endfacet
facet normal 0.6986100797263484 0.6986100797263484 0.15455715127256442
outer loop
vertex 7.61803 7.17557 6
vertex 7.17557 7.61803 6
vertex 7.11803 7.53884 6.61803
endloop
endfacet
facet normal 0.6986100797263485 0.6986100797263485 0.15455715127256442
outer loop
vertex 7.61803 7.17557 6
vertex 7.11803 7.53884 6.61803
vertex 7.53884 7.11803 6.61803
endloop
endfacet
facet normal 0.8803008633988186 0.44853439981765775 -0.1545551101695062
outer loop
vertex 7.53884 7.11803 -0.61803
vertex 7.61803 7.17557 0
vertex 7.90211 6.61803 0
endloop
endfacet
facet normal 0.8802961332375175 0.44854859927223956 -0.1545408421679743
outer loop
vertex 7.53884 7.11803 -0.61803
vertex 7.90211 6.61803 0
vertex 7.80902 6.58779 -0.61803
endloop
endfacet
facet normal -0.6339270413370656 -0.3229927562632119 0.7027177140666995
outer loop
vertex -1.53884 -0.5 7.17557
vertex -1.30902 -0.95106 7.17557
vertex -0.95106 -0.69098 7.61803
endloop
endfacet
facet normal -0.6339270854125854 -0.32298924491574665 0.7027192882289917
outer loop
vertex -1.53884 -0.5 7.17557
vertex -0.95106 -0.69098 7.61803
vertex -1.11803 -0.36327 7.61803
endloop
endfacet
facet normal -0.7027072356403867 -0.11130501923843916 0.7027188155094302
outer loop
vertex -1.53884 -0.5 7.17557
vertex -1.11803 -0.36327 7.61803
vertex -1.17557 0 7.61803
endloop
endfacet
facet normal -0.7027137553388967 -0.11129580457057459 0.7027137553388959
outer loop
vertex -1.53884 -0.5 7.17557
vertex -1.17557 0 7.61803
vertex -1.61803 0 7.17557
endloop
endfacet
facet normal -0.8822655509009347 -0.1397332179516902 0.44953545521386384
outer loop
vertex -1.53884 -0.5 7.17557
vertex -1.61803 0 7.17557
vertex -1.90211 0 6.61803
endloop
endfacet
facet normal -0.882264092718605 -0.13972671258642516 0.4495403391123064
outer loop
vertex -1.53884 -0.5 7.17557
vertex -1.90211 0 6.61803
vertex -1.80902 -0.58779 6.61803
endloop
endfacet
facet normal -0.7958944335973126 -0.4055423168175203 0.44954141059427544
outer loop
vertex -1.53884 -0.5 7.17557
vertex -1.80902 -0.58779 6.61803
vertex -1.53884 -1.11803 6.61803
endloop
endfacet
facet normal -0.7959127085860757 -0.40552622419911283 0.4495235720159593
outer loop
vertex -1.53884 -0.5 7.17557
vertex -1.53884 -1.11803 6.61803
vertex -1.30902 -0.95106 7.17557
endloop
endfacet
facet normal 0.9758213222993108 -0.1545436412542625 -0.1545606997069384
outer loop
vertex 7.80902 -0.58779 -0.61803
vertex 7.90211 0 -0.61803
vertex 8 0 0
endloop
endfacet
facet normal 0.9758211964257848 -0.15456067976978413 -0.1545444559835521
outer loop
vertex 7.80902 -0.58779 -0.61803
vertex 8 0 0
vertex 7.90211 -0.61803 0
endloop
endfacet
facet normal 0 -0.9876874357655948 -0.15644017780220074
outer loop
vertex 6 -1.90211 -0.61803
vertex 6 -2 0
vertex 0 -2 0
endloop
endfacet
facet normal 0 -0.9876874357655948 -0.15644017780220074
outer loop
vertex 6 -1.90211 -0.61803
vertex 0 -2 0
vertex 0 -1.90211 -0.61803
endloop
endfacet
facet normal -0.45282099492402894 -0.07170021408787625 0.8887138042450817
outer loop
vertex -0.58779 -0.19098 7.90211
vertex -0.61803 0 7.90211
vertex -1.17557 0 7.61803
endloop
endfacet
facet normal -0.4528267511133994 -0.07172530420641654 0.8887088467054778
outer loop
vertex -0.58779 -0.19098 7.90211
vertex -1.17557 0 7.61803
vertex -1.11803 -0.36327 7.61803
endloop
endfacet
facet normal -0.1563922041373333 -0.024763327328060258 0.987384553304694
outer loop
vertex -0.58779 -0.19098 7.90211
vertex 0 0 8
vertex -0.61803 0 7.90211
endloop
endfacet
facet normal -0.5030829563565705 -0.5030829563565705 0.70271977206214
outer loop
vertex -0.69098 -0.95106 7.61803
vertex -0.95106 -0.69098 7.61803
vertex -1.30902 -0.95106 7.17557
endloop
endfacet
facet normal -0.5030829563565705 -0.5030829563565705 0.70271977206214
outer loop
vertex -0.69098 -0.95106 7.61803
vertex -1.30902 -0.95106 7.17557
vertex -0.95106 -1.30902 7.17557
endloop
endfacet
facet normal -0.32299275626321183 -0.6339270413370657 0.7027177140666995
outer loop
vertex -0.69098 -0.95106 7.61803
vertex -0.95106 -1.30902 7.17557
vertex -0.5 -1.53884 7.17557
endloop
endfacet
facet normal -0.3229892449157468 -0.6339270854125852 0.7027192882289917
outer loop
vertex -0.69098 -0.95106 7.61803
vertex -0.5 -1.53884 7.17557
vertex -0.36327 -1.11803 7.61803
endloop
endfacet
facet normal -0.8910070536994905 0.45398946051395667 0
outer loop
vertex -1.61803 7.17557 6
vertex -1.61803 7.17557 0
vertex -1.90211 6.61803 0
endloop
endfacet
facet normal -0.8910070536994905 0.45398946051395667 0
outer loop
vertex -1.61803 7.17557 6
vertex -1.90211 6.61803 0
vertex -1.90211 6.61803 6
endloop
endfacet
facet normal -0.7071067811865479 0.7071067811865471 0
outer loop
vertex -1.61803 7.17557 6
vertex -1.17557 7.61803 6
vertex -1.17557 7.61803 0
endloop
endfacet
facet normal -0.7071067811865479 0.7071067811865471 0
outer loop
vertex -1.61803 7.17557 6
vertex -1.17557 7.61803 0
vertex -1.61803 7.17557 0
endloop
endfacet
facet normal -0.9876874357655948 0 0.15644017780220068
outer loop
vertex -1.90211 6 6.61803
vertex -2 6 6
vertex -2 0 6
endloop
endfacet
facet normal -0.9876874357655948 0 0.15644017780220068
outer loop
vertex -1.90211 6 6.61803
vertex -2 0 6
vertex -1.90211 0 6.61803
endloop
endfacet
facet normal -0.6986100797263487 0.6986100797263479 0.15455715127256492
outer loop
vertex -1.11803 7.53884 6.61803
vertex -1.17557 7.61803 6
vertex -1.61803 7.17557 6
endloop
endfacet
facet normal -0.6986100797263487 0.698610079726348 0.15455715127256495
outer loop
vertex -1.11803 7.53884 6.61803
vertex -1.61803 7.17557 6
vertex -1.53884 7.11803 6.61803
endloop
endfacet
facet normal 0 0.8910070536994902 0.4539894605139572
outer loop
vertex 0 7.90211 6.61803
vertex 0 7.61803 7.17557
vertex 6 7.61803 7.17557
endloop
endfacet
facet normal 0 0.8910070536994902 0.4539894605139572
outer loop
vertex 0 7.90211 6.61803
vertex 6 7.61803 7.17557
vertex 6 7.90211 6.61803
endloop
endfacet
facet normal 0 0.9876874357655949 0.1564401778022
outer loop
vertex 0 7.90211 6.61803
vertex 6 7.90211 6.61803
vertex 6 8 6
endloop
endfacet
facet normal 0 0.9876874357655949 0.1564401778022
outer loop
vertex 0 7.90211 6.61803
vertex 6 8 6
vertex 0 8 6
endloop
endfacet
facet normal 0.1564401778022 0 0.9876874357655949
outer loop
vertex 6.61803 6 7.90211
vertex 6 6 8
vertex 6 0 8
endloop
endfacet
facet normal 0.1564401778022 0 0.9876874357655949
outer loop
vertex 6.61803 6 7.90211
vertex 6 0 8
vertex 6.61803 0 7.90211
endloop
endfacet
facet normal 0.11196389289795655 0.11196389289795655 0.9873845114109648
outer loop
vertex 6.36327 6.5 7.90211
vertex 6 6 8
vertex 6.5 6.36327 7.90211
endloop
endfacet
facet normal 0.6339270854125849 0.32298924491574693 0.7027192882289919
outer loop
vertex 6.95106 6.69098 7.61803
vertex 7.11803 6.36327 7.61803
vertex 7.53884 6.5 7.17557
endloop
endfacet
facet normal 0.6339270413370651 0.322992756263212 0.7027177140666997
outer loop
vertex 6.95106 6.69098 7.61803
vertex 7.53884 6.5 7.17557
vertex 7.30902 6.95106 7.17557
endloop
endfacet
facet normal 0.5030829563565702 0.5030829563565702 0.7027197720621402
outer loop
vertex 6.95106 6.69098 7.61803
vertex 7.30902 6.95106 7.17557
vertex 6.95106 7.30902 7.17557
endloop
endfacet
facet normal 0.5030829563565702 0.5030829563565702 0.7027197720621403
outer loop
vertex 6.95106 6.69098 7.61803
vertex 6.95106 7.30902 7.17557
vertex 6.69098 6.95106 7.61803
endloop
endfacet
facet normal 0.324184611645961 0.324184611645961 0.8887118065739392
outer loop
vertex 6.95106 6.69098 7.61803
vertex 6.69098 6.95106 7.61803
vertex 6.36327 6.5 7.90211
endloop
endfacet
facet normal 0.324184611645961 0.3241846116459608 0.8887118065739393
outer loop
vertex 6.95106 6.69098 7.61803
vertex 6.36327 6.5 7.90211
vertex 6.5 6.36327 7.90211
endloop
endfacet
facet normal 0.44853538765306383 -0.8803028021405558 0.15454120022311685
outer loop
vertex 6.58779 -1.80902 6.61803
vertex 6.61803 -1.90211 6
vertex 7.17557 -1.61803 6
endloop
endfacet
facet normal 0.4485475605544136 -0.88029409470861 0.15455546817189397
outer loop
vertex 6.58779 -1.80902 6.61803
vertex 7.17557 -1.61803 6
vertex 7.11803 -1.53884 6.61803
endloop
endfacet
facet normal -0.13973321795169022 -0.8822655509009348 -0.44953545521386346
outer loop
vertex -0.5 -1.53884 -1.17557
vertex 0 -1.61803 -1.17557
vertex 0 -1.90211 -0.61803
endloop
endfacet
facet normal -0.1397267125864251 -0.8822640927186051 -0.44954033911230595
outer loop
vertex -0.5 -1.53884 -1.17557
vertex 0 -1.90211 -0.61803
vertex -0.58779 -1.80902 -0.61803
endloop
endfacet
facet normal -0.40554231681752045 -0.7958944335973127 -0.4495414105942751
outer loop
vertex -0.5 -1.53884 -1.17557
vertex -0.58779 -1.80902 -0.61803
vertex -1.11803 -1.53884 -0.61803
endloop
endfacet
facet normal -0.4055262241991129 -0.7959127085860759 -0.44952357201595905
outer loop
vertex -0.5 -1.53884 -1.17557
vertex -1.11803 -1.53884 -0.61803
vertex -0.95106 -1.30902 -1.17557
endloop
endfacet
facet normal -0.9758211964257848 -0.15456067976978483 -0.15454445598355177
outer loop
vertex -1.80902 -0.58779 -0.61803
vertex -1.90211 -0.61803 0
vertex -2 0 0
endloop
endfacet
facet normal -0.9758213222993108 -0.15454364125426215 -0.15456069970693914
outer loop
vertex -1.80902 -0.58779 -0.61803
vertex -2 0 0
vertex -1.90211 0 -0.61803
endloop
endfacet
facet normal 0 -0.15644017780220074 -0.9876874357655948
outer loop
vertex 0 -0.61803 -1.90211
vertex 0 0 -2
vertex 6 0 -2
endloop
endfacet
facet normal 0 -0.15644017780220074 -0.9876874357655948
outer loop
vertex 0 -0.61803 -1.90211
vertex 6 0 -2
vertex 6 -0.61803 -1.90211
endloop
endfacet
facet normal 0 -0.4539894605139562 -0.8910070536994906
outer loop
vertex 0 -0.61803 -1.90211
vertex 6 -0.61803 -1.90211
vertex 6 -1.17557 -1.61803
endloop
endfacet
facet normal 0 -0.4539894605139562 -0.8910070536994906
outer loop
vertex 0 -0.61803 -1.90211
vertex 6 -1.17557 -1.61803
vertex 0 -1.17557 -1.61803
endloop
endfacet
facet normal 0.11196389289795704 -0.11196389289795704 -0.9873845114109647
outer loop
vertex 6.5 -0.36327 -1.90211
vertex 6.36327 -0.5 -1.90211
vertex 6 0 -2
endloop
endfacet
facet normal 0.14108099733135163 -0.0718875196222611 -0.9873845941245742
outer loop
vertex 6.5 -0.36327 -1.90211
vertex 6 0 -2
vertex 6.58779 -0.19098 -1.90211
endloop
endfacet
facet normal 0.40849846746084284 -0.20814951801258005 -0.8887084900198002
outer loop
vertex 6.5 -0.36327 -1.90211
vertex 6.58779 -0.19098 -1.90211
vertex 7.11803 -0.36327 -1.61803
endloop
endfacet
facet normal 0.40849994360782493 -0.2081329089261803 -0.8887117014500993
outer loop
vertex 6.5 -0.36327 -1.90211
vertex 7.11803 -0.36327 -1.61803
vertex 6.95106 -0.69098 -1.61803
endloop
endfacet
facet normal 0.32418461164596035 -0.32418461164596074 -0.8887118065739397
outer loop
vertex 6.5 -0.36327 -1.90211
vertex 6.95106 -0.69098 -1.61803
vertex 6.69098 -0.95106 -1.61803
endloop
endfacet
facet normal 0.32418461164596063 -0.32418461164596063 -0.8887118065739396
outer loop
vertex 6.5 -0.36327 -1.90211
vertex 6.69098 -0.95106 -1.61803
vertex 6.36327 -0.5 -1.90211
endloop
endfacet
facet normal -0.07172530420641599 0.452826751113399 -0.8887088467054781
outer loop
vertex -0.19098 6.58779 -1.90211
vertex -0.36327 7.11803 -1.61803
vertex 0 7.17557 -1.61803
endloop
endfacet
facet normal -0.07170021408787645 0.4528209949240287 -0.8887138042450818
outer loop
vertex -0.19098 6.58779 -1.90211
vertex 0 7.17557 -1.61803
vertex 0 6.61803 -1.90211
endloop
endfacet
facet normal -0.3241846116459606 0.32418461164596046 -0.8887118065739397
outer loop
vertex -0.69098 6.95106 -1.61803
vertex -0.36327 6.5 -1.90211
vertex -0.5 6.36327 -1.90211
endloop
endfacet
facet normal -0.32418461164596085 0.3241846116459604 -0.8887118065739397
outer loop
vertex -0.69098 6.95106 -1.61803
vertex -0.5 6.36327 -1.90211
vertex -0.95106 6.69098 -1.61803
endloop
endfacet
facet normal -0.5030829563565704 0.5030829563565697 -0.7027197720621406
outer loop
vertex -0.69098 6.95106 -1.61803
vertex -0.95106 6.69098 -1.61803
vertex -1.30902 6.95106 -1.17557
endloop
endfacet
facet normal -0.5030829563565702 0.5030829563565701 -0.7027197720621404
outer loop
vertex -0.69098 6.95106 -1.61803
vertex -1.30902 6.95106 -1.17557
vertex -0.95106 7.30902 -1.17557
endloop
endfacet
facet normal -0.32299275626321194 0.6339270413370651 -0.7027177140667
outer loop
vertex -0.69098 6.95106 -1.61803
vertex -0.95106 7.30902 -1.17557
vertex -0.5 7.53884 -1.17557
endloop
endfacet
facet normal -0.3229892449157465 0.6339270854125846 -0.7027192882289922
outer loop
vertex -0.69098 6.95106 -1.61803
vertex -0.5 7.53884 -1.17557
vertex -0.36327 7.11803 -1.61803
endloop
endfacet
facet normal -0.20813485655268732 0.4085037661908195 -0.888709488244448
outer loop
vertex -0.69098 6.95106 -1.61803
vertex -0.36327 7.11803 -1.61803
vertex -0.19098 6.58779 -1.90211
endloop
endfacet
facet normal -0.20814581328232584 0.4084911968380442 -0.8887126996498146
outer loop
vertex -0.69098 6.95106 -1.61803
vertex -0.19098 6.58779 -1.90211
vertex -0.36327 6.5 -1.90211
endloop
endfacet
facet normal -0.7027129538672071 0.11130592497458927 -0.7027129538672071
outer loop
vertex -1.11803 6.36327 -1.61803
vertex -1.17557 6 -1.61803
vertex -1.61803 6 -1.17557
endloop
endfacet
facet normal -0.7027096007996604 0.11129514657465035 -0.7027180140660328
outer loop
vertex -1.11803 6.36327 -1.61803
vertex -1.61803 6 -1.17557
vertex -1.53884 6.5 -1.17557
endloop
endfacet
facet normal -0.6339258753923759 0.32299216220164895 -0.7027190389226079
outer loop
vertex -1.11803 6.36327 -1.61803
vertex -1.53884 6.5 -1.17557
vertex -1.30902 6.95106 -1.17557
endloop
endfacet
facet normal -0.6339286902259361 0.32299006257674373 -0.7027174646933861
outer loop
vertex -1.11803 6.36327 -1.61803
vertex -1.30902 6.95106 -1.17557
vertex -0.95106 6.69098 -1.61803
endloop
endfacet
facet normal -0.40849994360782493 0.20813290892618047 -0.8887117014500991
outer loop
vertex -1.11803 6.36327 -1.61803
vertex -0.95106 6.69098 -1.61803
vertex -0.5 6.36327 -1.90211
endloop
endfacet
facet normal -0.40849846746084295 0.2081495180125797 -0.8887084900198002
outer loop
vertex -1.11803 6.36327 -1.61803
vertex -0.5 6.36327 -1.90211
vertex -0.58779 6.19098 -1.90211
endloop
endfacet
facet normal -0.452833437626258 0.07170218428012373 -0.88870730532445
outer loop
vertex -1.11803 6.36327 -1.61803
vertex -0.58779 6.19098 -1.90211
vertex -0.61803 6 -1.90211
endloop
endfacet
facet normal -0.4528202097858359 0.07172426809556795 -0.8887122633201742
outer loop
vertex -1.11803 6.36327 -1.61803
vertex -0.61803 6 -1.90211
vertex -1.17557 6 -1.61803
endloop
endfacet
facet normal 0.11130501923843822 0.7027072356403862 -0.7027188155094308
outer loop
vertex 6.5 7.53884 -1.17557
vertex 6.36327 7.11803 -1.61803
vertex 6 7.17557 -1.61803
endloop
endfacet
facet normal 0.11129580457057388 0.702713755338896 -0.7027137553388968
outer loop
vertex 6.5 7.53884 -1.17557
vertex 6 7.17557 -1.61803
vertex 6 7.61803 -1.17557
endloop
endfacet
facet normal 0.13973321795168941 0.8822655509009346 -0.4495354552138641
outer loop
vertex 6.5 7.53884 -1.17557
vertex 6 7.61803 -1.17557
vertex 6 7.90211 -0.61803
endloop
endfacet
facet normal 0.13972671258642552 0.8822640927186052 -0.44954033911230573
outer loop
vertex 6.5 7.53884 -1.17557
vertex 6 7.90211 -0.61803
vertex 6.58779 7.80902 -0.61803
endloop
endfacet
facet normal -0.15644017780220001 0 0.9876874357655948
outer loop
vertex -0.61803 6 7.90211
vertex -0.61803 0 7.90211
vertex 0 0 8
endloop
endfacet
facet normal -0.15644017780220001 0 0.9876874357655948
outer loop
vertex -0.61803 6 7.90211
vertex 0 0 8
vertex 0 6 8
endloop
endfacet
facet normal -0.1563922041373333 0.024763327328060296 0.987384553304694
outer loop
vertex -0.61803 6 7.90211
vertex 0 6 8
vertex -0.58779 6.19098 7.90211
endloop
endfacet
facet normal 0.8802961332375175 -0.44854859927223956 -0.15454084216797423
outer loop
vertex 7.53884 -1.11803 -0.61803
vertex 7.80902 -0.58779 -0.61803
vertex 7.90211 -0.61803 0
endloop
endfacet
facet normal 0.8803008633988185 -0.4485343998176573 -0.15455511016950652
outer loop
vertex 7.53884 -1.11803 -0.61803
vertex 7.90211 -0.61803 0
vertex 7.61803 -1.17557 0
endloop
endfacet
facet normal 0.6986100797263479 -0.6986100797263486 -0.15455715127256495
outer loop
vertex 7.53884 -1.11803 -0.61803
vertex 7.61803 -1.17557 0
vertex 7.17557 -1.61803 0
endloop
endfacet
facet normal 0.6986100797263479 -0.6986100797263487 -0.15455715127256497
outer loop
vertex 7.53884 -1.11803 -0.61803
vertex 7.17557 -1.61803 0
vertex 7.11803 -1.53884 -0.61803
endloop
endfacet
facet normal 0.7071067811865471 0 -0.7071067811865479
outer loop
vertex 7.61803 0 -1.17557
vertex 7.17557 0 -1.61803
vertex 7.17557 6 -1.61803
endloop
endfacet
facet normal 0.7071067811865471 0 -0.7071067811865479
outer loop
vertex 7.61803 0 -1.17557
vertex 7.17557 6 -1.61803
vertex 7.61803 6 -1.17557
endloop
endfacet
facet normal 0.8910070536994904 0 -0.45398946051395683
outer loop
vertex 7.61803 0 -1.17557
vertex 7.61803 6 -1.17557
vertex 7.90211 6 -0.61803
endloop
endfacet
facet normal 0.8910070536994904 0 -0.45398946051395683
outer loop
vertex 7.61803 0 -1.17557
vertex 7.90211 6 -0.61803
vertex 7.90211 0 -0.61803
endloop
endfacet
facet normal 0 -0.8910070536994906 -0.4539894605139562
outer loop
vertex 6 -1.61803 -1.17557
vertex 6 -1.90211 -0.61803
vertex 0 -1.90211 -0.61803
endloop
endfacet
facet normal 0 -0.8910070536994906 -0.4539894605139562
outer loop
vertex 6 -1.61803 -1.17557
vertex 0 -1.90211 -0.61803
vertex 0 -1.61803 -1.17557
endloop
endfacet
facet normal 0 -0.7071067811865475 -0.7071067811865475
outer loop
vertex 6 -1.61803 -1.17557
vertex 0 -1.61803 -1.17557
vertex 0 -1.17557 -1.61803
endloop
endfacet
facet normal 0 -0.7071067811865475 -0.7071067811865475
outer loop
vertex 6 -1.61803 -1.17557
vertex 0 -1.17557 -1.61803
vertex 6 -1.17557 -1.61803
endloop
endfacet
facet normal 0.024763327328060296 -0.1563922041373333 0.987384553304694
outer loop
vertex 6.19098 -0.58779 7.90211
vertex 6 0 8
vertex 6 -0.61803 7.90211
endloop
endfacet
facet normal 0.07170021408787634 -0.4528209949240289 0.8887138042450816
outer loop
vertex 6.19098 -0.58779 7.90211
vertex 6 -0.61803 7.90211
vertex 6 -1.17557 7.61803
endloop
endfacet
facet normal 0.07172530420641654 -0.4528267511133994 0.8887088467054779
outer loop
vertex 6.19098 -0.58779 7.90211
vertex 6 -1.17557 7.61803
vertex 6.36327 -1.11803 7.61803
endloop
endfacet
facet normal 0.20813485655268776 -0.40850376619081996 0.8887094882444476
outer loop
vertex 6.19098 -0.58779 7.90211
vertex 6.36327 -1.11803 7.61803
vertex 6.69098 -0.95106 7.61803
endloop
endfacet
facet normal 0.20814581328232584 -0.4084911968380449 0.8887126996498141
outer loop
vertex 6.19098 -0.58779 7.90211
vertex 6.69098 -0.95106 7.61803
vertex 6.36327 -0.5 7.90211
endloop
endfacet
facet normal 0.0718875196222607 -0.1410809973313511 0.9873845941245744
outer loop
vertex 6.19098 -0.58779 7.90211
vertex 6.36327 -0.5 7.90211
vertex 6 0 8
endloop
endfacet
facet normal 0 -0.45398946051395683 0.8910070536994904
outer loop
vertex 0 -0.61803 7.90211
vertex 0 -1.17557 7.61803
vertex 6 -1.17557 7.61803
endloop
endfacet
facet normal 0 -0.45398946051395683 0.8910070536994904
outer loop
vertex 0 -0.61803 7.90211
vertex 6 -1.17557 7.61803
vertex 6 -0.61803 7.90211
endloop
endfacet
facet normal 0 -0.15644017780220001 0.9876874357655948
outer loop
vertex 0 -0.61803 7.90211
vertex 6 -0.61803 7.90211
vertex 6 0 8
endloop
endfacet
facet normal 0 -0.15644017780220001 0.9876874357655948
outer loop
vertex 0 -0.61803 7.90211
vertex 6 0 8
vertex 0 0 8
endloop
endfacet
facet normal -0.11196389289795655 -0.11196389289795655 0.9873845114109648
outer loop
vertex -0.5 -0.36327 7.90211
vertex -0.36327 -0.5 7.90211
vertex 0 0 8
endloop
endfacet
facet normal -0.141080997331351 -0.07188751962226078 0.9873845941245744
outer loop
vertex -0.5 -0.36327 7.90211
vertex 0 0 8
vertex -0.58779 -0.19098 7.90211
endloop
endfacet
facet normal -0.40849846746084334 -0.2081495180125803 0.8887084900197999
outer loop
vertex -0.5 -0.36327 7.90211
vertex -0.58779 -0.19098 7.90211
vertex -1.11803 -0.36327 7.61803
endloop
endfacet
facet normal -0.40849994360782543 -0.20813290892618047 0.8887117014500989
outer loop
vertex -0.5 -0.36327 7.90211
vertex -1.11803 -0.36327 7.61803
vertex -0.95106 -0.69098 7.61803
endloop
endfacet
facet normal -0.32418461164596085 -0.32418461164596096 0.8887118065739393
outer loop
vertex -0.5 -0.36327 7.90211
vertex -0.95106 -0.69098 7.61803
vertex -0.69098 -0.95106 7.61803
endloop
endfacet
facet normal -0.3241846116459609 -0.3241846116459609 0.8887118065739393
outer loop
vertex -0.5 -0.36327 7.90211
vertex -0.69098 -0.95106 7.61803
vertex -0.36327 -0.5 7.90211
endloop
endfacet
facet normal -0.40554606362240936 0.7959017868648547 0.4495250114795619
outer loop
vertex -0.58779 7.80902 6.61803
vertex -1.11803 7.53884 6.61803
vertex -0.95106 7.30902 7.17557
endloop
endfacet
facet normal -0.4055218198345644 0.79590406428761 0.44954285011389866
outer loop
vertex -0.58779 7.80902 6.61803
vertex -0.95106 7.30902 7.17557
vertex -0.5 7.53884 7.17557
endloop
endfacet
facet normal -0.13973280243811004 0.8822629273778927 0.44954073330164807
outer loop
vertex -0.58779 7.80902 6.61803
vertex -0.5 7.53884 7.17557
vertex 0 7.61803 7.17557
endloop
endfacet
facet normal -0.13972706602543827 0.8822663244074794 0.44953584933399804
outer loop
vertex -0.58779 7.80902 6.61803
vertex 0 7.61803 7.17557
vertex 0 7.90211 6.61803
endloop
endfacet
facet normal -0.15454364125426248 0.9758213222993108 0.15456069970693836
outer loop
vertex -0.58779 7.80902 6.61803
vertex 0 7.90211 6.61803
vertex 0 8 6
endloop
endfacet
facet normal -0.15456067976978413 0.9758211964257848 0.15454445598355204
outer loop
vertex -0.58779 7.80902 6.61803
vertex 0 8 6
vertex -0.61803 7.90211 6
endloop
endfacet
facet normal -0.44853538765306394 0.8803028021405557 0.15454120022311704
outer loop
vertex -0.58779 7.80902 6.61803
vertex -0.61803 7.90211 6
vertex -1.17557 7.61803 6
endloop
endfacet
facet normal -0.4485475605544134 0.8802940947086102 0.1545554681718936
outer loop
vertex -0.58779 7.80902 6.61803
vertex -1.17557 7.61803 6
vertex -1.11803 7.53884 6.61803
endloop
endfacet
facet normal 0.1410809973313511 0.0718875196222607 0.9873845941245744
outer loop
vertex 6.58779 6.19098 7.90211
vertex 6.5 6.36327 7.90211
vertex 6 6 8
endloop
endfacet
facet normal 0.15639220413733324 0.024763327328060383 0.987384553304694
outer loop
vertex 6.58779 6.19098 7.90211
vertex 6 6 8
vertex 6.61803 6 7.90211
endloop
endfacet
facet normal 0.40850376619081996 0.20813485655268776 0.8887094882444476
outer loop
vertex 6.58779 6.19098 7.90211
vertex 7.11803 6.36327 7.61803
vertex 6.95106 6.69098 7.61803
endloop
endfacet
facet normal 0.4084911968380449 0.20814581328232584 0.8887126996498141
outer loop
vertex 6.58779 6.19098 7.90211
vertex 6.95106 6.69098 7.61803
vertex 6.5 6.36327 7.90211
endloop
endfacet
facet normal 0.45282675111339954 0.0717253042064161 0.8887088467054779
outer loop
vertex 7.17557 6 7.61803
vertex 7.11803 6.36327 7.61803
vertex 6.58779 6.19098 7.90211
endloop
endfacet
facet normal 0.4528209949240292 0.07170021408787675 0.8887138042450814
outer loop
vertex 7.17557 6 7.61803
vertex 6.58779 6.19098 7.90211
vertex 6.61803 6 7.90211
endloop
endfacet
facet normal 0.4539894605139572 0 0.8910070536994902
outer loop
vertex 7.17557 6 7.61803
vertex 6.61803 6 7.90211
vertex 6.61803 0 7.90211
endloop
endfacet
facet normal 0.4539894605139572 0 0.8910070536994902
outer loop
vertex 7.17557 6 7.61803
vertex 6.61803 0 7.90211
vertex 7.17557 0 7.61803
endloop
endfacet
facet normal 0.7071067811865475 0 0.7071067811865475
outer loop
vertex 7.17557 6 7.61803
vertex 7.17557 0 7.61803
vertex 7.61803 0 7.17557
endloop
endfacet
facet normal 0.7071067811865475 0 0.7071067811865475
outer loop
vertex 7.17557 6 7.61803
vertex 7.61803 0 7.17557
vertex 7.61803 6 7.17557
endloop
endfacet
facet normal 0.7027137553388964 0.11129580457057392 0.7027137553388964
outer loop
vertex 7.17557 6 7.61803
vertex 7.61803 6 7.17557
vertex 7.53884 6.5 7.17557
endloop
endfacet
facet normal 0.7027072356403866 0.1113050192384383 0.7027188155094305
outer loop
vertex 7.17557 6 7.61803
vertex 7.53884 6.5 7.17557
vertex 7.11803 6.36327 7.61803
endloop
endfacet
facet normal 0.024763327328060383 0.15639220413733324 0.987384553304694
outer loop
vertex 6.19098 6.58779 7.90211
vertex 6 6.61803 7.90211
vertex 6 6 8
endloop
endfacet
facet normal 0.0718875196222607 0.1410809973313511 0.9873845941245744
outer loop
vertex 6.19098 6.58779 7.90211
vertex 6 6 8
vertex 6.36327 6.5 7.90211
endloop
endfacet
facet normal 0.20814581328232584 0.4084911968380449 0.8887126996498141
outer loop
vertex 6.19098 6.58779 7.90211
vertex 6.36327 6.5 7.90211
vertex 6.69098 6.95106 7.61803
endloop
endfacet
facet normal 0.20813485655268776 0.40850376619081996 0.8887094882444476
outer loop
vertex 6.19098 6.58779 7.90211
vertex 6.69098 6.95106 7.61803
vertex 6.36327 7.11803 7.61803
endloop
endfacet
facet normal 0.07172530420641608 0.45282675111339954 0.8887088467054779
outer loop
vertex 6.19098 6.58779 7.90211
vertex 6.36327 7.11803 7.61803
vertex 6 7.17557 7.61803
endloop
endfacet
facet normal 0.07170021408787666 0.4528209949240292 0.8887138042450814
outer loop
vertex 6.19098 6.58779 7.90211
vertex 6 7.17557 7.61803
vertex 6 6.61803 7.90211
endloop
endfacet
facet normal 0.4055423168175203 -0.7958944335973126 0.44954141059427544
outer loop
vertex 6.5 -1.53884 7.17557
vertex 6.58779 -1.80902 6.61803
vertex 7.11803 -1.53884 6.61803
endloop
endfacet
facet normal 0.40552622419911283 -0.7959127085860757 0.4495235720159593
outer loop
vertex 6.5 -1.53884 7.17557
vertex 7.11803 -1.53884 6.61803
vertex 6.95106 -1.30902 7.17557
endloop
endfacet
facet normal 0.32299275626321183 -0.6339270413370655 0.7027177140666996
outer loop
vertex 6.5 -1.53884 7.17557
vertex 6.95106 -1.30902 7.17557
vertex 6.69098 -0.95106 7.61803
endloop
endfacet
facet normal 0.32298924491574693 -0.6339270854125851 0.7027192882289917
outer loop
vertex 6.5 -1.53884 7.17557
vertex 6.69098 -0.95106 7.61803
vertex 6.36327 -1.11803 7.61803
endloop
endfacet
facet normal 0.11130501923843916 -0.7027072356403867 0.7027188155094302
outer loop
vertex 6.5 -1.53884 7.17557
vertex 6.36327 -1.11803 7.61803
vertex 6 -1.17557 7.61803
endloop
endfacet
facet normal 0.11129580457057459 -0.7027137553388967 0.7027137553388959
outer loop
vertex 6.5 -1.53884 7.17557
vertex 6 -1.17557 7.61803
vertex 6 -1.61803 7.17557
endloop
endfacet
facet normal 0 -0.9876874357655948 0.15644017780220068
outer loop
vertex 6 -1.90211 6.61803
vertex 0 -1.90211 6.61803
vertex 0 -2 6
endloop
endfacet
facet normal 0 -0.9876874357655948 0.15644017780220068
outer loop
vertex 6 -1.90211 6.61803
vertex 0 -2 6
vertex 6 -2 6
endloop
endfacet
facet normal 0.15456029222149362 -0.9758187496337694 0.15456029222149362
outer loop
vertex 6 -1.90211 6.61803
vertex 6 -2 6
vertex 6.61803 -1.90211 6
endloop
endfacet
facet normal 0.15454404869795704 -0.9758238949852002 0.15454404869795704
outer loop
vertex 6 -1.90211 6.61803
vertex 6.61803 -1.90211 6
vertex 6.58779 -1.80902 6.61803
endloop
endfacet
facet normal 0.13972671258642513 -0.882264092718605 0.4495403391123063
outer loop
vertex 6 -1.90211 6.61803
vertex 6.58779 -1.80902 6.61803
vertex 6.5 -1.53884 7.17557
endloop
endfacet
facet normal 0.1397332179516902 -0.8822655509009347 0.44953545521386384
outer loop
vertex 6 -1.90211 6.61803
vertex 6.5 -1.53884 7.17557
vertex 6 -1.61803 7.17557
endloop
endfacet
facet normal 0 -0.8910070536994905 0.45398946051395667
outer loop
vertex 6 -1.90211 6.61803
vertex 6 -1.61803 7.17557
vertex 0 -1.61803 7.17557
endloop
endfacet
facet normal 0 -0.8910070536994905 0.45398946051395667
outer loop
vertex 6 -1.90211 6.61803
vertex 0 -1.61803 7.17557
vertex 0 -1.90211 6.61803
endloop
endfacet
facet normal -0.8822640927186051 -0.1397267125864251 -0.44954033911230595
outer loop
vertex -1.53884 -0.5 -1.17557
vertex -1.80902 -0.58779 -0.61803
vertex -1.90211 0 -0.61803
endloop
endfacet
facet normal -0.8822655509009348 -0.13973321795169022 -0.44953545521386346
outer loop
vertex -1.53884 -0.5 -1.17557
vertex -1.90211 0 -0.61803
vertex -1.61803 0 -1.17557
endloop
endfacet
facet normal -0.7027137553388964 -0.11129580457057453 -0.7027137553388964
outer loop
vertex -1.53884 -0.5 -1.17557
vertex -1.61803 0 -1.17557
vertex -1.17557 0 -1.61803
endloop
endfacet
facet normal -0.7027072356403865 -0.1113050192384391 -0.7027188155094306
outer loop
vertex -1.53884 -0.5 -1.17557
vertex -1.17557 0 -1.61803
vertex -1.11803 -0.36327 -1.61803
endloop
endfacet
facet normal -0.11130592497458927 -0.7027129538672071 -0.7027129538672071
outer loop
vertex -0.36327 -1.11803 -1.61803
vertex 0 -1.17557 -1.61803
vertex 0 -1.61803 -1.17557
endloop
endfacet
facet normal -0.11129514657465035 -0.7027096007996604 -0.7027180140660328
outer loop
vertex -0.36327 -1.11803 -1.61803
vertex 0 -1.61803 -1.17557
vertex -0.5 -1.53884 -1.17557
endloop
endfacet
facet normal -0.32299216220164895 -0.6339258753923759 -0.7027190389226079
outer loop
vertex -0.36327 -1.11803 -1.61803
vertex -0.5 -1.53884 -1.17557
vertex -0.95106 -1.30902 -1.17557
endloop
endfacet
facet normal -0.3229900625767435 -0.6339286902259363 -0.7027174646933859
outer loop
vertex -0.36327 -1.11803 -1.61803
vertex -0.95106 -1.30902 -1.17557
vertex -0.69098 -0.95106 -1.61803
endloop
endfacet
facet normal 0 0 -1
outer loop
vertex 0 6 -2
vertex 6 6 -2
vertex 6 0 -2
endloop
endfacet
facet normal 0 0 -1
outer loop
vertex 0 6 -2
vertex 6 0 -2
vertex 0 0 -2
endloop
endfacet
facet normal -0.15639220413733398 0.024763327328060403 -0.9873845533046938
outer loop
vertex 0 6 -2
vertex -0.61803 6 -1.90211
vertex -0.58779 6.19098 -1.90211
endloop
endfacet
facet normal -0.1410809973313517 0.07188751962226102 -0.9873845941245742
outer loop
vertex 0 6 -2
vertex -0.58779 6.19098 -1.90211
vertex -0.5 6.36327 -1.90211
endloop
endfacet
facet normal -0.11196389289795702 0.11196389289795702 -0.9873845114109647
outer loop
vertex 0 6 -2
vertex -0.5 6.36327 -1.90211
vertex -0.36327 6.5 -1.90211
endloop
endfacet
facet normal -0.0718875196222611 0.14108099733135165 -0.9873845941245742
outer loop
vertex 0 6 -2
vertex -0.36327 6.5 -1.90211
vertex -0.19098 6.58779 -1.90211
endloop
endfacet
facet normal -0.024763327328060476 0.15639220413733396 -0.9873845533046939
outer loop
vertex 0 6 -2
vertex -0.19098 6.58779 -1.90211
vertex 0 6.61803 -1.90211
endloop
endfacet
facet normal 0 0.15644017780220068 -0.9876874357655948
outer loop
vertex 0 6 -2
vertex 0 6.61803 -1.90211
vertex 6 6.61803 -1.90211
endloop
endfacet
facet normal 0 0.15644017780220068 -0.9876874357655948
outer loop
vertex 0 6 -2
vertex 6 6.61803 -1.90211
vertex 6 6 -2
endloop
endfacet
facet normal 0.40849119683804436 0.2081458132823256 -0.8887126996498144
outer loop
vertex 6.58779 6.19098 -1.90211
vertex 6.5 6.36327 -1.90211
vertex 6.95106 6.69098 -1.61803
endloop
endfacet
facet normal 0.4085037661908194 0.20813485655268746 -0.888709488244448
outer loop
vertex 6.58779 6.19098 -1.90211
vertex 6.95106 6.69098 -1.61803
vertex 7.11803 6.36327 -1.61803
endloop
endfacet
facet normal 0.45282675111339893 0.07172530420641599 -0.8887088467054781
outer loop
vertex 6.58779 6.19098 -1.90211
vertex 7.11803 6.36327 -1.61803
vertex 7.17557 6 -1.61803
endloop
endfacet
facet normal 0.4528209949240287 0.07170021408787658 -0.8887138042450817
outer loop
vertex 6.58779 6.19098 -1.90211
vertex 7.17557 6 -1.61803
vertex 6.61803 6 -1.90211
endloop
endfacet
facet normal 0.15639220413733396 0.02476332732806049 -0.9873845533046939
outer loop
vertex 6.58779 6.19098 -1.90211
vertex 6.61803 6 -1.90211
vertex 6 6 -2
endloop
endfacet
facet normal 0.1410809973313517 0.07188751962226102 -0.9873845941245742
outer loop
vertex 6.58779 6.19098 -1.90211
vertex 6 6 -2
vertex 6.5 6.36327 -1.90211
endloop
endfacet
facet normal 0.702713755338896 0.11129580457057388 -0.7027137553388968
outer loop
vertex 7.53884 6.5 -1.17557
vertex 7.61803 6 -1.17557
vertex 7.17557 6 -1.61803
endloop
endfacet
facet normal 0.7027072356403862 0.11130501923843822 -0.7027188155094308
outer loop
vertex 7.53884 6.5 -1.17557
vertex 7.17557 6 -1.61803
vertex 7.11803 6.36327 -1.61803
endloop
endfacet
facet normal 0.6339270854125846 0.32298924491574676 -0.7027192882289923
outer loop
vertex 7.53884 6.5 -1.17557
vertex 7.11803 6.36327 -1.61803
vertex 6.95106 6.69098 -1.61803
endloop
endfacet
facet normal 0.633927041337065 0.3229927562632119 -0.7027177140667
outer loop
vertex 7.53884 6.5 -1.17557
vertex 6.95106 6.69098 -1.61803
vertex 7.30902 6.95106 -1.17557
endloop
endfacet
facet normal 0.7959127085860757 0.40552622419911327 -0.44952357201595927
outer loop
vertex 7.53884 6.5 -1.17557
vertex 7.30902 6.95106 -1.17557
vertex 7.53884 7.11803 -0.61803
endloop
endfacet
facet normal 0.7958944335973129 0.4055423168175202 -0.44954141059427494
outer loop
vertex 7.53884 6.5 -1.17557
vertex 7.53884 7.11803 -0.61803
vertex 7.80902 6.58779 -0.61803
endloop
endfacet
facet normal 0.8822640927186052 0.13972671258642552 -0.44954033911230573
outer loop
vertex 7.53884 6.5 -1.17557
vertex 7.80902 6.58779 -0.61803
vertex 7.90211 6 -0.61803
endloop
endfacet
facet normal 0.8822655509009346 0.13973321795168941 -0.4495354552138641
outer loop
vertex 7.53884 6.5 -1.17557
vertex 7.90211 6 -0.61803
vertex 7.61803 6 -1.17557
endloop
endfacet
facet normal 0.44854859927223956 0.8802961332375175 -0.1545408421679743
outer loop
vertex 7.11803 7.53884 -0.61803
vertex 6.58779 7.80902 -0.61803
vertex 6.61803 7.90211 0
endloop
endfacet
facet normal 0.44853439981765775 0.8803008633988186 -0.1545551101695062
outer loop
vertex 7.11803 7.53884 -0.61803
vertex 6.61803 7.90211 0
vertex 7.17557 7.61803 0
endloop
endfacet
facet normal 0.6986100797263485 0.6986100797263485 -0.15455715127256447
outer loop
vertex 7.11803 7.53884 -0.61803
vertex 7.17557 7.61803 0
vertex 7.61803 7.17557 0
endloop
endfacet
facet normal 0.6986100797263484 0.6986100797263484 -0.15455715127256445
outer loop
vertex 7.11803 7.53884 -0.61803
vertex 7.61803 7.17557 0
vertex 7.53884 7.11803 -0.61803
endloop
endfacet
facet normal -0.11130592497458844 0.7027129538672072 0.7027129538672072
outer loop
vertex -0.36327 7.11803 7.61803
vertex 0 7.17557 7.61803
vertex 0 7.61803 7.17557
endloop
endfacet
facet normal -0.11129514657464973 0.7027096007996604 0.7027180140660327
outer loop
vertex -0.36327 7.11803 7.61803
vertex 0 7.61803 7.17557
vertex -0.5 7.53884 7.17557
endloop
endfacet
facet normal 0.6316364200427176 -0.6316364200427184 -0.44952293128519955
outer loop
vertex 7.30902 -0.95106 -1.17557
vertex 7.53884 -1.11803 -0.61803
vertex 7.11803 -1.53884 -0.61803
endloop
endfacet
facet normal 0.6316364200427178 -0.6316364200427181 -0.44952293128519943
outer loop
vertex 7.30902 -0.95106 -1.17557
vertex 7.11803 -1.53884 -0.61803
vertex 6.95106 -1.30902 -1.17557
endloop
endfacet
facet normal 0.50308295635657 -0.5030829563565702 -0.7027197720621406
outer loop
vertex 7.30902 -0.95106 -1.17557
vertex 6.95106 -1.30902 -1.17557
vertex 6.69098 -0.95106 -1.61803
endloop
endfacet
facet normal 0.5030829563565699 -0.5030829563565705 -0.7027197720621404
outer loop
vertex 7.30902 -0.95106 -1.17557
vertex 6.69098 -0.95106 -1.61803
vertex 6.95106 -0.69098 -1.61803
endloop
endfacet
facet normal 0.11129580457057453 -0.7027137553388964 -0.7027137553388964
outer loop
vertex 6.5 -1.53884 -1.17557
vertex 6 -1.61803 -1.17557
vertex 6 -1.17557 -1.61803
endloop
endfacet
facet normal 0.1113050192384391 -0.7027072356403865 -0.7027188155094306
outer loop
vertex 6.5 -1.53884 -1.17557
vertex 6 -1.17557 -1.61803
vertex 6.36327 -1.11803 -1.61803
endloop
endfacet
facet normal 0.322989244915747 -0.6339270854125848 -0.702719288228992
outer loop
vertex 6.5 -1.53884 -1.17557
vertex 6.36327 -1.11803 -1.61803
vertex 6.69098 -0.95106 -1.61803
endloop
endfacet
facet normal 0.32299275626321167 -0.6339270413370652 -0.7027177140666999
outer loop
vertex 6.5 -1.53884 -1.17557
vertex 6.69098 -0.95106 -1.61803
vertex 6.95106 -1.30902 -1.17557
endloop
endfacet
facet normal -0.07172530420641654 -0.4528267511133994 0.8887088467054778
outer loop
vertex -0.19098 -0.58779 7.90211
vertex -0.36327 -1.11803 7.61803
vertex 0 -1.17557 7.61803
endloop
endfacet
facet normal -0.07170021408787625 -0.45282099492402894 0.8887138042450817
outer loop
vertex -0.19098 -0.58779 7.90211
vertex 0 -1.17557 7.61803
vertex 0 -0.61803 7.90211
endloop
endfacet
facet normal -0.024763327328060258 -0.1563922041373333 0.987384553304694
outer loop
vertex -0.19098 -0.58779 7.90211
vertex 0 -0.61803 7.90211
vertex 0 0 8
endloop
endfacet
facet normal -0.07188751962226078 -0.141080997331351 0.9873845941245744
outer loop
vertex -0.19098 -0.58779 7.90211
vertex 0 0 8
vertex -0.36327 -0.5 7.90211
endloop
endfacet
facet normal -0.2081458132823261 -0.40849119683804463 0.8887126996498143
outer loop
vertex -0.19098 -0.58779 7.90211
vertex -0.36327 -0.5 7.90211
vertex -0.69098 -0.95106 7.61803
endloop
endfacet
facet normal -0.20813485655268762 -0.40850376619082013 0.8887094882444476
outer loop
vertex -0.19098 -0.58779 7.90211
vertex -0.69098 -0.95106 7.61803
vertex -0.36327 -1.11803 7.61803
endloop
endfacet
facet normal -0.6316364200427181 0.6316364200427177 0.4495229312852
outer loop
vertex -1.30902 6.95106 7.17557
vertex -0.95106 7.30902 7.17557
vertex -1.11803 7.53884 6.61803
endloop
endfacet
facet normal -0.6316364200427182 0.6316364200427176 0.44952293128519977
outer loop
vertex -1.30902 6.95106 7.17557
vertex -1.11803 7.53884 6.61803
vertex -1.53884 7.11803 6.61803
endloop
endfacet
facet normal -0.79590406428761 0.4055218198345641 0.44954285011389883
outer loop
vertex -1.80902 6.58779 6.61803
vertex -1.53884 6.5 7.17557
vertex -1.30902 6.95106 7.17557
endloop
endfacet
facet normal -0.7959017868648546 0.4055460636224096 0.4495250114795617
outer loop
vertex -1.80902 6.58779 6.61803
vertex -1.30902 6.95106 7.17557
vertex -1.53884 7.11803 6.61803
endloop
endfacet
facet normal -0.88029409470861 0.4485475605544136 0.15455546817189397
outer loop
vertex -1.80902 6.58779 6.61803
vertex -1.53884 7.11803 6.61803
vertex -1.61803 7.17557 6
endloop
endfacet
facet normal -0.8803028021405558 0.44853538765306383 0.15454120022311685
outer loop
vertex -1.80902 6.58779 6.61803
vertex -1.61803 7.17557 6
vertex -1.90211 6.61803 6
endloop
endfacet
facet normal -0.9758211964257847 0.15456067976978477 0.1545444559835517
outer loop
vertex -1.80902 6.58779 6.61803
vertex -1.90211 6.61803 6
vertex -2 6 6
endloop
endfacet
facet normal -0.9758213222993108 0.15454364125426212 0.1545606997069391
outer loop
vertex -1.80902 6.58779 6.61803
vertex -2 6 6
vertex -1.90211 6 6.61803
endloop
endfacet
facet normal -0.8822629273778925 0.13973280243811076 0.44954073330164834
outer loop
vertex -1.61803 6 7.17557
vertex -1.53884 6.5 7.17557
vertex -1.80902 6.58779 6.61803
endloop
endfacet
facet normal -0.8822663244074798 0.13972706602543797 0.4495358493339975
outer loop
vertex -1.61803 6 7.17557
vertex -1.80902 6.58779 6.61803
vertex -1.90211 6 6.61803
endloop
endfacet
facet normal -0.8910070536994905 0 0.45398946051395667
outer loop
vertex -1.61803 6 7.17557
vertex -1.90211 6 6.61803
vertex -1.90211 0 6.61803
endloop
endfacet
facet normal -0.8910070536994905 0 0.45398946051395667
outer loop
vertex -1.61803 6 7.17557
vertex -1.90211 0 6.61803
vertex -1.61803 0 7.17557
endloop
endfacet
facet normal -0.14108099733135163 -0.0718875196222611 -0.9873845941245742
outer loop
vertex -0.58779 -0.19098 -1.90211
vertex 0 0 -2
vertex -0.5 -0.36327 -1.90211
endloop
endfacet
facet normal -0.4085037661908195 -0.20813485655268732 -0.888709488244448
outer loop
vertex -0.95106 -0.69098 -1.61803
vertex -1.11803 -0.36327 -1.61803
vertex -0.58779 -0.19098 -1.90211
endloop
endfacet
facet normal -0.4084911968380442 -0.20814581328232584 -0.8887126996498146
outer loop
vertex -0.95106 -0.69098 -1.61803
vertex -0.58779 -0.19098 -1.90211
vertex -0.5 -0.36327 -1.90211
endloop
endfacet
facet normal -0.5030829563565703 -0.5030829563565703 -0.7027197720621403
outer loop
vertex -0.95106 -0.69098 -1.61803
vertex -0.69098 -0.95106 -1.61803
vertex -0.95106 -1.30902 -1.17557
endloop
endfacet
facet normal -0.5030829563565703 -0.5030829563565702 -0.7027197720621403
outer loop
vertex -0.95106 -0.69098 -1.61803
vertex -0.95106 -1.30902 -1.17557
vertex -1.30902 -0.95106 -1.17557
endloop
endfacet
facet normal -0.6339270413370653 -0.3229927562632118 -0.7027177140666997
outer loop
vertex -0.95106 -0.69098 -1.61803
vertex -1.30902 -0.95106 -1.17557
vertex -1.53884 -0.5 -1.17557
endloop
endfacet
facet normal -0.6339270854125849 -0.32298924491574665 -0.7027192882289919
outer loop
vertex -0.95106 -0.69098 -1.61803
vertex -1.53884 -0.5 -1.17557
vertex -1.11803 -0.36327 -1.61803
endloop
endfacet
facet normal -0.32418461164596046 -0.3241846116459605 -0.8887118065739396
outer loop
vertex -0.36327 -0.5 -1.90211
vertex -0.69098 -0.95106 -1.61803
vertex -0.95106 -0.69098 -1.61803
endloop
endfacet
facet normal -0.3241846116459605 -0.3241846116459605 -0.8887118065739397
outer loop
vertex -0.36327 -0.5 -1.90211
vertex -0.95106 -0.69098 -1.61803
vertex -0.5 -0.36327 -1.90211
endloop
endfacet
facet normal -0.11196389289795704 -0.11196389289795704 -0.9873845114109647
outer loop
vertex -0.36327 -0.5 -1.90211
vertex -0.5 -0.36327 -1.90211
vertex 0 0 -2
endloop
endfacet
facet normal 0.4055218198345645 0.7959040642876101 -0.4495428501138983
outer loop
vertex 6.95106 7.30902 -1.17557
vertex 6.5 7.53884 -1.17557
vertex 6.58779 7.80902 -0.61803
endloop
endfacet
facet normal 0.40554606362240936 0.7959017868648548 -0.4495250114795615
outer loop
vertex 6.95106 7.30902 -1.17557
vertex 6.58779 7.80902 -0.61803
vertex 7.11803 7.53884 -0.61803
endloop
endfacet
facet normal 0.631636420042718 0.631636420042718 -0.44952293128519955
outer loop
vertex 6.95106 7.30902 -1.17557
vertex 7.11803 7.53884 -0.61803
vertex 7.53884 7.11803 -0.61803
endloop
endfacet
facet normal 0.6316364200427179 0.6316364200427179 -0.44952293128519955
outer loop
vertex 6.95106 7.30902 -1.17557
vertex 7.53884 7.11803 -0.61803
vertex 7.30902 6.95106 -1.17557
endloop
endfacet
facet normal 0.50308295635657 0.50308295635657 -0.7027197720621406
outer loop
vertex 6.95106 7.30902 -1.17557
vertex 7.30902 6.95106 -1.17557
vertex 6.95106 6.69098 -1.61803
endloop
endfacet
facet normal 0.50308295635657 0.50308295635657 -0.7027197720621406
outer loop
vertex 6.95106 7.30902 -1.17557
vertex 6.95106 6.69098 -1.61803
vertex 6.69098 6.95106 -1.61803
endloop
endfacet
facet normal 0.32299006257674356 0.6339286902259358 -0.7027174646933864
outer loop
vertex 6.95106 7.30902 -1.17557
vertex 6.69098 6.95106 -1.61803
vertex 6.36327 7.11803 -1.61803
endloop
endfacet
facet normal 0.322992162201649 0.6339258753923755 -0.702719038922608
outer loop
vertex 6.95106 7.30902 -1.17557
vertex 6.36327 7.11803 -1.61803
vertex 6.5 7.53884 -1.17557
endloop
endfacet
facet normal -0.07170021408787655 0.4528209949240293 0.8887138042450815
outer loop
vertex -0.19098 6.58779 7.90211
vertex 0 6.61803 7.90211
vertex 0 7.17557 7.61803
endloop
endfacet
facet normal -0.07172530420641608 0.45282675111339954 0.8887088467054778
outer loop
vertex -0.19098 6.58779 7.90211
vertex 0 7.17557 7.61803
vertex -0.36327 7.11803 7.61803
endloop
endfacet
facet normal -0.07188751962226078 0.141080997331351 0.9873845941245744
outer loop
vertex -0.19098 6.58779 7.90211
vertex -0.36327 6.5 7.90211
vertex 0 6 8
endloop
endfacet
facet normal -0.024763327328060344 0.15639220413733326 0.987384553304694
outer loop
vertex -0.19098 6.58779 7.90211
vertex 0 6 8
vertex 0 6.61803 7.90211
endloop
endfacet
facet normal 0.8822655509009346 -0.13973321795168941 -0.4495354552138641
outer loop
vertex 7.53884 -0.5 -1.17557
vertex 7.61803 0 -1.17557
vertex 7.90211 0 -0.61803
endloop
endfacet
facet normal 0.8822640927186052 -0.13972671258642552 -0.44954033911230573
outer loop
vertex 7.53884 -0.5 -1.17557
vertex 7.90211 0 -0.61803
vertex 7.80902 -0.58779 -0.61803
endloop
endfacet
facet normal 0.7958944335973129 -0.4055423168175202 -0.44954141059427494
outer loop
vertex 7.53884 -0.5 -1.17557
vertex 7.80902 -0.58779 -0.61803
vertex 7.53884 -1.11803 -0.61803
endloop
endfacet
facet normal 0.7959127085860757 -0.40552622419911327 -0.44952357201595927
outer loop
vertex 7.53884 -0.5 -1.17557
vertex 7.53884 -1.11803 -0.61803
vertex 7.30902 -0.95106 -1.17557
endloop
endfacet
facet normal 0.6339270413370651 -0.32299275626321194 -0.7027177140667
outer loop
vertex 7.53884 -0.5 -1.17557
vertex 7.30902 -0.95106 -1.17557
vertex 6.95106 -0.69098 -1.61803
endloop
endfacet
facet normal 0.6339270854125847 -0.3229892449157465 -0.7027192882289923
outer loop
vertex 7.53884 -0.5 -1.17557
vertex 6.95106 -0.69098 -1.61803
vertex 7.11803 -0.36327 -1.61803
endloop
endfacet
facet normal 0.7027072356403862 -0.11130501923843822 -0.7027188155094308
outer loop
vertex 7.53884 -0.5 -1.17557
vertex 7.11803 -0.36327 -1.61803
vertex 7.17557 0 -1.61803
endloop
endfacet
facet normal 0.702713755338896 -0.11129580457057388 -0.7027137553388968
outer loop
vertex 7.53884 -0.5 -1.17557
vertex 7.17557 0 -1.61803
vertex 7.61803 0 -1.17557
endloop
endfacet
facet normal 0.13972706602543802 -0.88226632440748 -0.44953584933399715
outer loop
vertex 6.58779 -1.80902 -0.61803
vertex 6 -1.90211 -0.61803
vertex 6 -1.61803 -1.17557
endloop
endfacet
facet normal 0.13973280243811081 -0.8822629273778925 -0.44954073330164795
outer loop
vertex 6.58779 -1.80902 -0.61803
vertex 6 -1.61803 -1.17557
vertex 6.5 -1.53884 -1.17557
endloop
endfacet
facet normal 0.40552181983456415 -0.7959040642876102 -0.4495428501138985
outer loop
vertex 6.58779 -1.80902 -0.61803
vertex 6.5 -1.53884 -1.17557
vertex 6.95106 -1.30902 -1.17557
endloop
endfacet
facet normal 0.40554606362240975 -0.7959017868648548 -0.44952501147956136
outer loop
vertex 6.58779 -1.80902 -0.61803
vertex 6.95106 -1.30902 -1.17557
vertex 7.11803 -1.53884 -0.61803
endloop
endfacet
facet normal 0.44854756055441364 -0.8802940947086101 -0.15455546817189403
outer loop
vertex 6.58779 -1.80902 -0.61803
vertex 7.11803 -1.53884 -0.61803
vertex 7.17557 -1.61803 0
endloop
endfacet
facet normal 0.4485353876530638 -0.8803028021405556 -0.15454120022311685
outer loop
vertex 6.58779 -1.80902 -0.61803
vertex 7.17557 -1.61803 0
vertex 6.61803 -1.90211 0
endloop
endfacet
facet normal 0.15456067976978477 -0.9758211964257847 -0.15454445598355177
outer loop
vertex 6.58779 -1.80902 -0.61803
vertex 6.61803 -1.90211 0
vertex 6 -2 0
endloop
endfacet
facet normal 0.15454364125426215 -0.9758213222993108 -0.15456069970693914
outer loop
vertex 6.58779 -1.80902 -0.61803
vertex 6 -2 0
vertex 6 -1.90211 -0.61803
endloop
endfacet
facet normal -0.6339270413370655 0.3229927562632117 0.7027177140666996
outer loop
vertex -0.95106 6.69098 7.61803
vertex -1.30902 6.95106 7.17557
vertex -1.53884 6.5 7.17557
endloop
endfacet
facet normal -0.6339270854125851 0.32298924491574704 0.7027192882289917
outer loop
vertex -0.95106 6.69098 7.61803
vertex -1.53884 6.5 7.17557
vertex -1.11803 6.36327 7.61803
endloop
endfacet
facet normal -0.7027072356403867 0.11130501923843918 0.7027188155094303
outer loop
vertex -1.17557 6 7.61803
vertex -1.11803 6.36327 7.61803
vertex -1.53884 6.5 7.17557
endloop
endfacet
facet normal -0.7027137553388967 0.11129580457057459 0.7027137553388959
outer loop
vertex -1.17557 6 7.61803
vertex -1.53884 6.5 7.17557
vertex -1.61803 6 7.17557
endloop
endfacet
facet normal -0.7071067811865479 0 0.7071067811865471
outer loop
vertex -1.17557 6 7.61803
vertex -1.61803 6 7.17557
vertex -1.61803 0 7.17557
endloop
endfacet
facet normal -0.7071067811865479 0 0.7071067811865471
outer loop
vertex -1.17557 6 7.61803
vertex -1.61803 0 7.17557
vertex -1.17557 0 7.61803
endloop
endfacet
facet normal -0.45398946051395683 0 0.8910070536994904
outer loop
vertex -1.17557 6 7.61803
vertex -1.17557 0 7.61803
vertex -0.61803 0 7.90211
endloop
endfacet
facet normal -0.45398946051395683 0 0.8910070536994904
outer loop
vertex -1.17557 6 7.61803
vertex -0.61803 0 7.90211
vertex -0.61803 6 7.90211
endloop
endfacet
facet normal -0.4528209949240289 0.07170021408787622 0.8887138042450816
outer loop
vertex -1.17557 6 7.61803
vertex -0.61803 6 7.90211
vertex -0.58779 6.19098 7.90211
endloop
endfacet
facet normal -0.4528267511133994 0.07172530420641662 0.8887088467054779
outer loop
vertex -1.17557 6 7.61803
vertex -0.58779 6.19098 7.90211
vertex -1.11803 6.36327 7.61803
endloop
endfacet
facet normal -0.7958944335973127 -0.40554231681752045 -0.4495414105942751
outer loop
vertex -1.53884 -1.11803 -0.61803
vertex -1.80902 -0.58779 -0.61803
vertex -1.53884 -0.5 -1.17557
endloop
endfacet
facet normal -0.7959127085860759 -0.4055262241991129 -0.44952357201595905
outer loop
vertex -1.53884 -1.11803 -0.61803
vertex -1.53884 -0.5 -1.17557
vertex -1.30902 -0.95106 -1.17557
endloop
endfacet
facet normal -0.631636420042718 -0.631636420042718 -0.4495229312851995
outer loop
vertex -1.53884 -1.11803 -0.61803
vertex -1.30902 -0.95106 -1.17557
vertex -0.95106 -1.30902 -1.17557
endloop
endfacet
facet normal -0.631636420042718 -0.631636420042718 -0.4495229312851994
outer loop
vertex -1.53884 -1.11803 -0.61803
vertex -0.95106 -1.30902 -1.17557
vertex -1.11803 -1.53884 -0.61803
endloop
endfacet
facet normal -0.6986100797263483 -0.6986100797263483 -0.15455715127256542
outer loop
vertex -1.53884 -1.11803 -0.61803
vertex -1.11803 -1.53884 -0.61803
vertex -1.17557 -1.61803 0
endloop
endfacet
facet normal -0.6986100797263483 -0.6986100797263483 -0.15455715127256542
outer loop
vertex -1.53884 -1.11803 -0.61803
vertex -1.17557 -1.61803 0
vertex -1.61803 -1.17557 0
endloop
endfacet
facet normal -0.8803008633988189 -0.4485343998176568 -0.15455511016950713
outer loop
vertex -1.53884 -1.11803 -0.61803
vertex -1.61803 -1.17557 0
vertex -1.90211 -0.61803 0
endloop
endfacet
facet normal -0.8802961332375174 -0.4485485992722399 -0.15454084216797392
outer loop
vertex -1.53884 -1.11803 -0.61803
vertex -1.90211 -0.61803 0
vertex -1.80902 -0.58779 -0.61803
endloop
endfacet
facet normal -0.15644017780220074 0 -0.9876874357655948
outer loop
vertex -0.61803 0 -1.90211
vertex -0.61803 6 -1.90211
vertex 0 6 -2
endloop
endfacet
facet normal -0.15644017780220074 0 -0.9876874357655948
outer loop
vertex -0.61803 0 -1.90211
vertex 0 6 -2
vertex 0 0 -2
endloop
endfacet
facet normal -0.15639220413733396 -0.024763327328060365 -0.9873845533046939
outer loop
vertex -0.61803 0 -1.90211
vertex 0 0 -2
vertex -0.58779 -0.19098 -1.90211
endloop
endfacet
facet normal -0.4528334376262581 -0.07170218428012365 -0.88870730532445
outer loop
vertex -0.61803 0 -1.90211
vertex -0.58779 -0.19098 -1.90211
vertex -1.11803 -0.36327 -1.61803
endloop
endfacet
facet normal -0.4528202097858359 -0.07172426809556798 -0.8887122633201742
outer loop
vertex -0.61803 0 -1.90211
vertex -1.11803 -0.36327 -1.61803
vertex -1.17557 0 -1.61803
endloop
endfacet
facet normal -0.4539894605139562 0 -0.8910070536994906
outer loop
vertex -0.61803 0 -1.90211
vertex -1.17557 0 -1.61803
vertex -1.17557 6 -1.61803
endloop
endfacet
facet normal -0.4539894605139562 0 -0.8910070536994906
outer loop
vertex -0.61803 0 -1.90211
vertex -1.17557 6 -1.61803
vertex -0.61803 6 -1.90211
endloop
endfacet
facet normal -0.20813485655268735 -0.4085037661908196 -0.888709488244448
outer loop
vertex -0.19098 -0.58779 -1.90211
vertex -0.36327 -1.11803 -1.61803
vertex -0.69098 -0.95106 -1.61803
endloop
endfacet
facet normal -0.20814581328232584 -0.40849119683804413 -0.8887126996498146
outer loop
vertex -0.19098 -0.58779 -1.90211
vertex -0.69098 -0.95106 -1.61803
vertex -0.36327 -0.5 -1.90211
endloop
endfacet
facet normal -0.0718875196222611 -0.14108099733135163 -0.9873845941245742
outer loop
vertex -0.19098 -0.58779 -1.90211
vertex -0.36327 -0.5 -1.90211
vertex 0 0 -2
endloop
endfacet
facet normal -0.024763327328060365 -0.15639220413733396 -0.9873845533046939
outer loop
vertex -0.19098 -0.58779 -1.90211
vertex 0 0 -2
vertex 0 -0.61803 -1.90211
endloop
endfacet
facet normal -0.07170021408787614 -0.45282099492402833 -0.888713804245082
outer loop
vertex -0.19098 -0.58779 -1.90211
vertex 0 -0.61803 -1.90211
vertex 0 -1.17557 -1.61803
endloop
endfacet
facet normal -0.07172530420641657 -0.4528267511133988 -0.8887088467054781
outer loop
vertex -0.19098 -0.58779 -1.90211
vertex 0 -1.17557 -1.61803
vertex -0.36327 -1.11803 -1.61803
endloop
endfacet
facet normal -0.40849994360782543 0.20813290892618067 0.8887117014500989
outer loop
vertex -0.5 6.36327 7.90211
vertex -0.95106 6.69098 7.61803
vertex -1.11803 6.36327 7.61803
endloop
endfacet
facet normal -0.4084984674608434 0.20814951801257994 0.8887084900198
outer loop
vertex -0.5 6.36327 7.90211
vertex -1.11803 6.36327 7.61803
vertex -0.58779 6.19098 7.90211
endloop
endfacet
facet normal -0.14108099733135107 0.0718875196222607 0.9873845941245744
outer loop
vertex -0.5 6.36327 7.90211
vertex -0.58779 6.19098 7.90211
vertex 0 6 8
endloop
endfacet
facet normal -0.11196389289795655 0.11196389289795655 0.9873845114109648
outer loop
vertex -0.5 6.36327 7.90211
vertex 0 6 8
vertex -0.36327 6.5 7.90211
endloop
endfacet
facet normal -0.32298924491574665 0.6339270854125849 0.702719288228992
outer loop
vertex -0.69098 6.95106 7.61803
vertex -0.36327 7.11803 7.61803
vertex -0.5 7.53884 7.17557
endloop
endfacet
facet normal -0.3229927562632121 0.6339270413370653 0.7027177140666997
outer loop
vertex -0.69098 6.95106 7.61803
vertex -0.5 7.53884 7.17557
vertex -0.95106 7.30902 7.17557
endloop
endfacet
facet normal -0.5030829563565705 0.5030829563565703 0.70271977206214
outer loop
vertex -0.69098 6.95106 7.61803
vertex -0.95106 7.30902 7.17557
vertex -1.30902 6.95106 7.17557
endloop
endfacet
facet normal -0.5030829563565706 0.50308295635657 0.7027197720621403
outer loop
vertex -0.69098 6.95106 7.61803
vertex -1.30902 6.95106 7.17557
vertex -0.95106 6.69098 7.61803
endloop
endfacet
facet normal -0.3241846116459612 0.32418461164596074 0.8887118065739393
outer loop
vertex -0.69098 6.95106 7.61803
vertex -0.95106 6.69098 7.61803
vertex -0.5 6.36327 7.90211
endloop
endfacet
facet normal -0.32418461164596074 0.32418461164596096 0.8887118065739394
outer loop
vertex -0.69098 6.95106 7.61803
vertex -0.5 6.36327 7.90211
vertex -0.36327 6.5 7.90211
endloop
endfacet
facet normal -0.20814581328232623 0.40849119683804463 0.8887126996498143
outer loop
vertex -0.69098 6.95106 7.61803
vertex -0.36327 6.5 7.90211
vertex -0.19098 6.58779 7.90211
endloop
endfacet
facet normal -0.20813485655268757 0.4085037661908201 0.8887094882444476
outer loop
vertex -0.69098 6.95106 7.61803
vertex -0.19098 6.58779 7.90211
vertex -0.36327 7.11803 7.61803
endloop
endfacet
endsolid JSxCAD
