solid JSxCAD
facet normal 0 -1 0
outer loop
vertex 1 -1.5 0.5
vertex 0 -1.5 0.5
vertex 0 -1.5 -0.5
endloop
endfacet
facet normal 0 -1 0
outer loop
vertex 1 -1.5 0.5
vertex 0 -1.5 -0.5
vertex 1 -1.5 -0.5
endloop
endfacet
facet normal -0.7463244990466236 -0.66558225796877 0
outer loop
vertex -0.70711 -0.70711 0
vertex 0 -1.5 -0.5
vertex 0 -1.5 0.5
endloop
endfacet
facet normal 0.4690630430915445 -0.056532819399858616 -0.8813534489275019
outer loop
vertex 0.5449 -0.10839 -0.83147
vertex 1 -1.5 -0.5
vertex 0.37533 -0.07466 -0.92388
endloop
endfacet
facet normal -0.7720528813217525 -0.56846062199085 0.284230310995425
outer loop
vertex 0 0 3.5
vertex -0.81549 -0.5449 0.19509
vertex 0 -1.5 0.5
endloop
endfacet
facet normal 0 -0.8944271909999159 0.4472135954999579
outer loop
vertex 0 0 3.5
vertex 0 -1.5 0.5
vertex 1 -1.5 0.5
endloop
endfacet
facet normal 0 -0.8944271909999159 0.4472135954999579
outer loop
vertex 0 0 3.5
vertex 1 -1.5 0.5
vertex 1 0 3.5
endloop
endfacet
facet normal 0 0 1
outer loop
vertex 0 0 3.5
vertex 1 0 3.5
vertex 1 1 3.5
endloop
endfacet
facet normal 0 0 1
outer loop
vertex 0 0 3.5
vertex 1 1 3.5
vertex 0 1 3.5
endloop
endfacet
facet normal -0.9586749690985501 0 0.2845036091579399
outer loop
vertex -0.98079 0 0.19509
vertex 0 0 3.5
vertex 0 1 3.5
endloop
endfacet
facet normal 0.0761116106167374 -0.06246507691346584 -0.995140762352503
outer loop
vertex 0.16221 -0.10839 -0.98079
vertex 0.13795 -0.13795 -0.98079
vertex 0 0 -1
endloop
endfacet
facet normal 0.7567969694157184 0.15763173677189574 -0.634358402360574
outer loop
vertex 0.81549 0.16221 -0.55557
vertex 1 -0.5 -0.5
vertex 0.69352 0.13795 -0.70711
endloop
endfacet
facet normal 0.8442835680012596 0.4512936404059332 -0.28899707080214987
outer loop
vertex 0.76818 0.51328 -0.38268
vertex 0.81549 0.5449 -0.19509
vertex 0.90613 0.37533 -0.19509
endloop
endfacet
facet normal 0.8442944768732635 0.45124534834201824 -0.28904060600717163
outer loop
vertex 0.76818 0.51328 -0.38268
vertex 0.90613 0.37533 -0.19509
vertex 0.85355 0.35355 -0.38268
endloop
endfacet
facet normal 0.0846254090234406 -0.2790351324556691 -0.9565447898572563
outer loop
vertex 0.07466 -0.18024 -0.98079
vertex 0.07466 -0.37533 -0.92388
vertex 0.03806 -0.19134 -0.98079
endloop
endfacet
facet normal 0.02857646771071158 -0.09422510974883282 -0.9951407006981471
outer loop
vertex 0.07466 -0.18024 -0.98079
vertex 0.03806 -0.19134 -0.98079
vertex 0 0 -1
endloop
endfacet
facet normal -0.49180359735357276 -0.40359556409500374 -0.7715178820175982
outer loop
vertex -0.39285 -0.39285 -0.83147
vertex -0.58794 -0.39285 -0.70711
vertex -0.46194 -0.30866 -0.83147
endloop
endfacet
facet normal -0.6830638586512078 -0.36512436103484386 -0.6325408808791885
outer loop
vertex -0.69134 -0.46194 -0.55557
vertex -0.76818 -0.31819 -0.55557
vertex -0.58794 -0.39285 -0.70711
endloop
endfacet
facet normal -0.6274663995836622 -0.4518348434683555 -0.6341381486879988
outer loop
vertex -0.69134 -0.46194 -0.55557
vertex -0.58794 -0.39285 -0.70711
vertex 0 -1.5 -0.5
endloop
endfacet
facet normal -0.7222208591876697 -0.5062240449971838 -0.4713111995496324
outer loop
vertex -0.69134 -0.46194 -0.55557
vertex 0 -1.5 -0.5
vertex -0.76818 -0.51328 -0.38268
endloop
endfacet
facet normal -0.7786040986760747 -0.4161943578592666 -0.4696359377336129
outer loop
vertex -0.69134 -0.46194 -0.55557
vertex -0.76818 -0.51328 -0.38268
vertex -0.76818 -0.31819 -0.55557
endloop
endfacet
facet normal -0.8448481132508254 -0.25624928989547774 -0.4696466405336933
outer loop
vertex -0.90613 -0.18024 -0.38268
vertex -0.81549 -0.16221 -0.55557
vertex -0.76818 -0.31819 -0.55557
endloop
endfacet
facet normal -0.8442835680012596 -0.4512936404059331 -0.28899707080214987
outer loop
vertex -0.81549 -0.5449 -0.19509
vertex -0.90613 -0.37533 -0.19509
vertex -0.76818 -0.51328 -0.38268
endloop
endfacet
facet normal -0.7715638969799926 -0.5661933118808987 -0.2900246307788132
outer loop
vertex -0.81549 -0.5449 -0.19509
vertex -0.76818 -0.51328 -0.38268
vertex 0 -1.5 -0.5
endloop
endfacet
facet normal -0.8457989303438541 -0.4521036447860286 0.28324276478028654
outer loop
vertex -0.90613 -0.37533 0.19509
vertex -0.81549 -0.5449 0.19509
vertex 0 0 3.5
endloop
endfacet
facet normal 0.22539654367269152 -0.1849837668978179 -0.9565445123383952
outer loop
vertex 0.2706 -0.2706 -0.92388
vertex 0.13795 -0.13795 -0.98079
vertex 0.16221 -0.10839 -0.98079
endloop
endfacet
facet normal 0.2254031878897889 -0.18497909487282366 -0.956543850196713
outer loop
vertex 0.2706 -0.2706 -0.92388
vertex 0.16221 -0.10839 -0.98079
vertex 0.31819 -0.21261 -0.92388
endloop
endfacet
facet normal 0.2325492713843054 -0.1908435907083822 -0.9536768636514991
outer loop
vertex 0.2706 -0.2706 -0.92388
vertex 0.31819 -0.21261 -0.92388
vertex 1 -1.5 -0.5
endloop
endfacet
facet normal 0.19819396788184263 -0.21233348258923596 -0.9568874768052812
outer loop
vertex 0.2706 -0.2706 -0.92388
vertex 1 -1.5 -0.5
vertex 0.13795 -0.13795 -0.98079
endloop
endfacet
facet normal 0.3698286846617189 -0.1122004283595521 -0.9223002807531374
outer loop
vertex 0.35355 -0.14645 -0.92388
vertex 0.37533 -0.07466 -0.92388
vertex 1 -1.5 -0.5
endloop
endfacet
facet normal 0.29198097436387693 -0.1560527093939947 -0.9436072607289085
outer loop
vertex 0.35355 -0.14645 -0.92388
vertex 1 -1.5 -0.5
vertex 0.31819 -0.21261 -0.92388
endloop
endfacet
facet normal 0.633160538992642 0.062375148422689375 -0.7715031255424663
outer loop
vertex 0.70711 0 -0.70711
vertex 0.5449 0.10839 -0.83147
vertex 0.69352 0.13795 -0.70711
endloop
endfacet
facet normal 0.6463737976554214 0.06367683878316181 -0.7603592400353215
outer loop
vertex 0.70711 0 -0.70711
vertex 0.69352 0.13795 -0.70711
vertex 1 -0.5 -0.5
endloop
endfacet
facet normal 0.1356546635945455 -0.2537788021655028 -0.9577025278323604
outer loop
vertex 0.10839 -0.16221 -0.98079
vertex 1 -1.5 -0.5
vertex 0.07466 -0.18024 -0.98079
endloop
endfacet
facet normal 0.04641679795410222 -0.08683519661629872 -0.995140758634826
outer loop
vertex 0.10839 -0.16221 -0.98079
vertex 0.07466 -0.18024 -0.98079
vertex 0 0 -1
endloop
endfacet
facet normal 0.06246507691346584 -0.0761116106167374 -0.995140762352503
outer loop
vertex 0.10839 -0.16221 -0.98079
vertex 0 0 -1
vertex 0.13795 -0.13795 -0.98079
endloop
endfacet
facet normal 0.18259574430547543 -0.22248681787592128 -0.9576838779226557
outer loop
vertex 0.10839 -0.16221 -0.98079
vertex 0.13795 -0.13795 -0.98079
vertex 1 -1.5 -0.5
endloop
endfacet
facet normal 0.08465482579755693 -0.2790344326908451 -0.9565423910324538
outer loop
vertex 0.14645 -0.35355 -0.92388
vertex 0.07466 -0.37533 -0.92388
vertex 0.07466 -0.18024 -0.98079
endloop
endfacet
facet normal 0.11983052626977352 -0.26457790854344304 -0.9568903674322814
outer loop
vertex 0.14645 -0.35355 -0.92388
vertex 0.07466 -0.18024 -0.98079
vertex 1 -1.5 -0.5
endloop
endfacet
facet normal 0.08727094050913588 -0.28765752154044344 -0.9537488837444897
outer loop
vertex 0.14645 -0.35355 -0.92388
vertex 1 -1.5 -0.5
vertex 0.07466 -0.37533 -0.92388
endloop
endfacet
facet normal 0.03239315304714883 -0.32904391925171755 -0.9437588584162446
outer loop
vertex 0 -0.38268 -0.92388
vertex 0.07466 -0.37533 -0.92388
vertex 1 -1.5 -0.5
endloop
endfacet
facet normal 0 -0.35470468543393574 -0.934978388055688
outer loop
vertex 0 -0.38268 -0.92388
vertex 1 -1.5 -0.5
vertex 0 -1.5 -0.5
endloop
endfacet
facet normal -0.3001695530177344 -0.3657665975939995 -0.8809727779708307
outer loop
vertex -0.2706 -0.2706 -0.92388
vertex -0.21261 -0.31819 -0.92388
vertex -0.39285 -0.39285 -0.83147
endloop
endfacet
facet normal -0.3041804475912345 -0.3706607596281085 -0.8775447889282403
outer loop
vertex -0.30866 -0.46194 -0.83147
vertex 0 -1.5 -0.5
vertex -0.39285 -0.39285 -0.83147
endloop
endfacet
facet normal -0.30016739751086696 -0.36577063535156856 -0.8809718359777814
outer loop
vertex -0.30866 -0.46194 -0.83147
vertex -0.39285 -0.39285 -0.83147
vertex -0.21261 -0.31819 -0.92388
endloop
endfacet
facet normal -0.29528156571322844 -0.36918192066221767 -0.8812000376793572
outer loop
vertex -0.30866 -0.46194 -0.83147
vertex -0.21261 -0.31819 -0.92388
vertex 0 -1.5 -0.5
endloop
endfacet
facet normal -0.4917962917629165 -0.40362637328633577 -0.7715064213575696
outer loop
vertex -0.5 -0.5 -0.70711
vertex -0.58794 -0.39285 -0.70711
vertex -0.39285 -0.39285 -0.83147
endloop
endfacet
facet normal -0.49048240657340014 -0.40504693434699396 -0.7715983345096512
outer loop
vertex -0.5 -0.5 -0.70711
vertex -0.39285 -0.39285 -0.83147
vertex 0 -1.5 -0.5
endloop
endfacet
facet normal -0.49558646762259634 -0.40673704118274495 -0.7674366634708453
outer loop
vertex -0.5 -0.5 -0.70711
vertex 0 -1.5 -0.5
vertex -0.58794 -0.39285 -0.70711
endloop
endfacet
facet normal -0.9161118355283159 -0.2778857630351396 -0.2889958607096614
outer loop
vertex -0.96194 -0.19134 -0.19509
vertex -0.90613 -0.18024 -0.38268
vertex -0.90613 -0.37533 -0.19509
endloop
endfacet
facet normal -0.8442944768732635 -0.45124534834201824 -0.28904060600717163
outer loop
vertex -0.85355 -0.35355 -0.38268
vertex -0.76818 -0.51328 -0.38268
vertex -0.90613 -0.37533 -0.19509
endloop
endfacet
facet normal -0.9160849924800881 -0.2779282724863136 -0.2890400697230924
outer loop
vertex -0.85355 -0.35355 -0.38268
vertex -0.90613 -0.37533 -0.19509
vertex -0.90613 -0.18024 -0.38268
endloop
endfacet
facet normal -0.8448547810177769 -0.25631795272006624 -0.46959717429388176
outer loop
vertex -0.85355 -0.35355 -0.38268
vertex -0.90613 -0.18024 -0.38268
vertex -0.76818 -0.31819 -0.55557
endloop
endfacet
facet normal -0.7786469573329368 -0.41615908562895426 -0.46959613636041814
outer loop
vertex -0.85355 -0.35355 -0.38268
vertex -0.76818 -0.31819 -0.55557
vertex -0.76818 -0.51328 -0.38268
endloop
endfacet
facet normal -0.5601065684041363 0.6824623113714454 -0.46960177340815806
outer loop
vertex -0.58794 0.58794 -0.55557
vertex -0.65328 0.65328 -0.38268
vertex -0.51328 0.76818 -0.38268
endloop
endfacet
facet normal -0.6824623113714454 0.5601065684041363 -0.46960177340815806
outer loop
vertex -0.76818 0.51328 -0.38268
vertex -0.65328 0.65328 -0.38268
vertex -0.58794 0.58794 -0.55557
endloop
endfacet
facet normal -0.8777199545846665 -0.46914281336785835 -0.09753308151177219
outer loop
vertex -0.83147 -0.55557 0
vertex -0.92388 -0.38268 0
vertex -0.90613 -0.37533 -0.19509
endloop
endfacet
facet normal -0.8777084047413765 -0.4691601686958678 -0.09755353584372382
outer loop
vertex -0.83147 -0.55557 0
vertex -0.90613 -0.37533 -0.19509
vertex -0.81549 -0.5449 -0.19509
endloop
endfacet
facet normal -0.7720415054821986 -0.628035490306977 -0.09758758490533061
outer loop
vertex -0.83147 -0.55557 0
vertex -0.81549 -0.5449 -0.19509
vertex 0 -1.5 -0.5
endloop
endfacet
facet normal -0.7700992276146968 -0.631975319692251 -0.08691590721567875
outer loop
vertex -0.83147 -0.55557 0
vertex 0 -1.5 -0.5
vertex -0.70711 -0.70711 0
endloop
endfacet
facet normal -0.7700992276146968 -0.631975319692251 0.08691590721567875
outer loop
vertex -0.83147 -0.55557 0
vertex -0.70711 -0.70711 0
vertex 0 -1.5 0.5
endloop
endfacet
facet normal -0.7720415054821986 -0.628035490306977 0.09758758490533061
outer loop
vertex -0.83147 -0.55557 0
vertex 0 -1.5 0.5
vertex -0.81549 -0.5449 0.19509
endloop
endfacet
facet normal -0.8777084047413765 -0.4691601686958678 0.09755353584372382
outer loop
vertex -0.83147 -0.55557 0
vertex -0.81549 -0.5449 0.19509
vertex -0.90613 -0.37533 0.19509
endloop
endfacet
facet normal -0.8777199545846665 -0.46914281336785835 0.09753308151177219
outer loop
vertex -0.83147 -0.55557 0
vertex -0.90613 -0.37533 0.19509
vertex -0.92388 -0.38268 0
endloop
endfacet
facet normal -0.9177557518617769 -0.27838441497584543 0.2832428241336061
outer loop
vertex -0.96194 -0.19134 0.19509
vertex -0.90613 -0.37533 0.19509
vertex 0 0 3.5
endloop
endfacet
facet normal -0.9544277780965157 -0.09402615039782247 0.28324318074600574
outer loop
vertex -0.96194 -0.19134 0.19509
vertex 0 0 3.5
vertex -0.98079 0 0.19509
endloop
endfacet
facet normal 0.08683519661629872 -0.04641679795410222 -0.995140758634826
outer loop
vertex 0.18024 -0.07466 -0.98079
vertex 0.16221 -0.10839 -0.98079
vertex 0 0 -1
endloop
endfacet
facet normal 0.27903443269084505 -0.08465482579755694 -0.9565423910324536
outer loop
vertex 0.18024 -0.07466 -0.98079
vertex 0.37533 -0.07466 -0.92388
vertex 0.35355 -0.14645 -0.92388
endloop
endfacet
facet normal 0.25716691586129914 -0.13744592117375362 -0.9565426264098666
outer loop
vertex 0.18024 -0.07466 -0.98079
vertex 0.35355 -0.14645 -0.92388
vertex 0.31819 -0.21261 -0.92388
endloop
endfacet
facet normal 0.25715439671870527 -0.13745905048438367 -0.9565441054589017
outer loop
vertex 0.18024 -0.07466 -0.98079
vertex 0.31819 -0.21261 -0.92388
vertex 0.16221 -0.10839 -0.98079
endloop
endfacet
facet normal 0.2901904570485619 -0.028568173845525534 -0.956542397429972
outer loop
vertex 0.38268 0 -0.92388
vertex 0.37533 -0.07466 -0.92388
vertex 0.19509 0 -0.98079
endloop
endfacet
facet normal 0.2901904570485619 0.028568173845525534 -0.956542397429972
outer loop
vertex 0.38268 0 -0.92388
vertex 0.19509 0 -0.98079
vertex 0.37533 0.07466 -0.92388
endloop
endfacet
facet normal 0.4708822456045099 0.0463566100347329 -0.8809772843158568
outer loop
vertex 0.38268 0 -0.92388
vertex 0.37533 0.07466 -0.92388
vertex 0.5449 0.10839 -0.83147
endloop
endfacet
facet normal 0.4708822456045099 -0.0463566100347329 -0.8809772843158568
outer loop
vertex 0.38268 0 -0.92388
vertex 0.5449 -0.10839 -0.83147
vertex 0.37533 -0.07466 -0.92388
endloop
endfacet
facet normal 0.6331426513229492 0.062327078970530865 -0.7715216901051761
outer loop
vertex 0.55557 0 -0.83147
vertex 0.5449 0.10839 -0.83147
vertex 0.70711 0 -0.70711
endloop
endfacet
facet normal 0.633539596134177 0.05133475165201396 -0.7720053907862107
outer loop
vertex 0.55557 0 -0.83147
vertex 0.70711 0 -0.70711
vertex 1 -0.5 -0.5
endloop
endfacet
facet normal 0.5978594362650592 0 -0.8016009571281871
outer loop
vertex 0.55557 0 -0.83147
vertex 1 -0.5 -0.5
vertex 1 -1.5 -0.5
endloop
endfacet
facet normal 0.4879261461789404 -0.048031847769436975 -0.8715624002186079
outer loop
vertex 0.55557 0 -0.83147
vertex 1 -1.5 -0.5
vertex 0.5449 -0.10839 -0.83147
endloop
endfacet
facet normal 0.4708835561302232 -0.04635416130555828 -0.8809767126864441
outer loop
vertex 0.55557 0 -0.83147
vertex 0.5449 -0.10839 -0.83147
vertex 0.38268 0 -0.92388
endloop
endfacet
facet normal 0.4708835561302232 0.04635416130555828 -0.8809767126864441
outer loop
vertex 0.55557 0 -0.83147
vertex 0.38268 0 -0.92388
vertex 0.5449 0.10839 -0.83147
endloop
endfacet
facet normal 0.6088306667362083 0.18469163987534906 -0.7715012750486536
outer loop
vertex 0.65328 0.2706 -0.70711
vertex 0.69352 0.13795 -0.70711
vertex 0.5449 0.10839 -0.83147
endloop
endfacet
facet normal 0.4918035973535728 0.4035955640950038 -0.7715178820175982
outer loop
vertex 0.46194 0.30866 -0.83147
vertex 0.39285 0.39285 -0.83147
vertex 0.58794 0.39285 -0.70711
endloop
endfacet
facet normal 0.36577063535156856 0.30016739751086696 -0.8809718359777814
outer loop
vertex 0.46194 0.30866 -0.83147
vertex 0.31819 0.21261 -0.92388
vertex 0.39285 0.39285 -0.83147
endloop
endfacet
facet normal 0.3650837733898755 0.6830653703231145 -0.6325626753711892
outer loop
vertex 0.39285 0.58794 -0.70711
vertex 0.2706 0.65328 -0.70711
vertex 0.31819 0.76818 -0.55557
endloop
endfacet
facet normal 0.2998961731331523 0.5611005075838367 -0.7715105350734047
outer loop
vertex 0.39285 0.58794 -0.70711
vertex 0.21261 0.51328 -0.83147
vertex 0.2706 0.65328 -0.70711
endloop
endfacet
facet normal 0.5987301197506913 0.4913388443033449 -0.6325412111332952
outer loop
vertex 0.69134 0.46194 -0.55557
vertex 0.58794 0.39285 -0.70711
vertex 0.58794 0.58794 -0.55557
endloop
endfacet
facet normal 0.6824755186325847 0.5600632430683271 -0.46963425155217603
outer loop
vertex 0.69134 0.46194 -0.55557
vertex 0.58794 0.58794 -0.55557
vertex 0.76818 0.51328 -0.38268
endloop
endfacet
facet normal 0.18471157013659043 0.6088121391409044 -0.7715111244125723
outer loop
vertex 0.10839 0.5449 -0.83147
vertex 0.2706 0.65328 -0.70711
vertex 0.21261 0.51328 -0.83147
endloop
endfacet
facet normal 0.452779204319123 0.1373663611933488 -0.8809775677896914
outer loop
vertex 0.35355 0.14645 -0.92388
vertex 0.5449 0.10839 -0.83147
vertex 0.37533 0.07466 -0.92388
endloop
endfacet
facet normal 0.3001695530177344 0.3657665975939995 -0.8809727779708307
outer loop
vertex 0.2706 0.2706 -0.92388
vertex 0.21261 0.31819 -0.92388
vertex 0.39285 0.39285 -0.83147
endloop
endfacet
facet normal 0.3657665975939995 0.3001695530177344 -0.8809727779708307
outer loop
vertex 0.2706 0.2706 -0.92388
vertex 0.39285 0.39285 -0.83147
vertex 0.31819 0.21261 -0.92388
endloop
endfacet
facet normal 0.9904307322025385 0.09757300774546819 -0.09760365192064341
outer loop
vertex 0.98079 0 -0.19509
vertex 1 -0.5 -0.5
vertex 0.96194 0.19134 -0.19509
endloop
endfacet
facet normal 0.9904336941126715 0.09757329954021056 -0.09757329954021056
outer loop
vertex 0.98079 0 -0.19509
vertex 0.96194 0.19134 -0.19509
vertex 0.98079 0.19509 0
endloop
endfacet
facet normal 0.9904429490135905 0.09752631631837114 -0.09752631631837114
outer loop
vertex 0.98079 0 -0.19509
vertex 0.98079 0.19509 0
vertex 1 0 0
endloop
endfacet
facet normal 0.9904429490135906 0.09752631631837114 -0.09752631631837114
outer loop
vertex 0.98079 0 -0.19509
vertex 1 0 0
vertex 1 -0.5 -0.5
endloop
endfacet
facet normal 0.9160849924800881 0.2779282724863136 -0.28904006972309243
outer loop
vertex 0.90613 0.18024 -0.38268
vertex 0.85355 0.35355 -0.38268
vertex 0.90613 0.37533 -0.19509
endloop
endfacet
facet normal 0.9161118355283159 0.2778857630351396 -0.2889958607096614
outer loop
vertex 0.90613 0.18024 -0.38268
vertex 0.90613 0.37533 -0.19509
vertex 0.96194 0.19134 -0.19509
endloop
endfacet
facet normal 0.9399084555206413 0.1797654421246838 -0.2902696695463031
outer loop
vertex 0.90613 0.18024 -0.38268
vertex 0.96194 0.19134 -0.19509
vertex 1 -0.5 -0.5
endloop
endfacet
facet normal 0.8590809257894528 0.19982048424806748 -0.47122365923158444
outer loop
vertex 0.90613 0.18024 -0.38268
vertex 1 -0.5 -0.5
vertex 0.81549 0.16221 -0.55557
endloop
endfacet
facet normal 0.7400229227302852 0.6073246930790803 -0.2890030986168262
outer loop
vertex 0.69352 0.69352 -0.19509
vertex 0.81549 0.5449 -0.19509
vertex 0.76818 0.51328 -0.38268
endloop
endfacet
facet normal 0.4913388443033449 0.5987301197506913 -0.6325412111332952
outer loop
vertex 0.46194 0.69134 -0.55557
vertex 0.58794 0.58794 -0.55557
vertex 0.39285 0.58794 -0.70711
endloop
endfacet
facet normal 0.36512436103484386 0.6830638586512078 -0.6325408808791885
outer loop
vertex 0.46194 0.69134 -0.55557
vertex 0.39285 0.58794 -0.70711
vertex 0.31819 0.76818 -0.55557
endloop
endfacet
facet normal 1 0 0
outer loop
vertex 1 1 2.5
vertex 1 1 3.5
vertex 1 0 3.5
endloop
endfacet
facet normal 1 0 0
outer loop
vertex 1 1 2.5
vertex 1 0 3.5
vertex 1 -1.5 0.5
endloop
endfacet
facet normal 1 0 0
outer loop
vertex 1 1 2.5
vertex 1 -1.5 0.5
vertex 1 -1.5 -0.5
endloop
endfacet
facet normal 1 0 0
outer loop
vertex 1 1 2.5
vertex 1 -1.5 -0.5
vertex 1 -0.5 -0.5
endloop
endfacet
facet normal 1 0 0
outer loop
vertex 1 1 2.5
vertex 1 -0.5 -0.5
vertex 1 0 0
endloop
endfacet
facet normal 0.9944234188889393 0.09791826273441215 -0.039167305093764856
outer loop
vertex 1 1 2.5
vertex 1 0 0
vertex 0.98079 0.19509 0
endloop
endfacet
facet normal 0.9548687065452394 0.2805165881006245 -0.09765345391232307
outer loop
vertex 1 1 2.5
vertex 0.98079 0.19509 0
vertex 0.96194 0.19134 -0.19509
endloop
endfacet
facet normal 0.9521375313912143 0.2888134987061457 -0.1001043669445033
outer loop
vertex 1 1 2.5
vertex 0.96194 0.19134 -0.19509
vertex 0.90613 0.37533 -0.19509
endloop
endfacet
facet normal 0.8733994672185029 0.46685691872787055 -0.13862895836856645
outer loop
vertex 1 1 2.5
vertex 0.90613 0.37533 -0.19509
vertex 0.81549 0.5449 -0.19509
endloop
endfacet
facet normal 0.7632945177372126 0.6264233099744844 -0.15803580579389956
outer loop
vertex 1 1 2.5
vertex 0.81549 0.5449 -0.19509
vertex 0.69352 0.69352 -0.19509
endloop
endfacet
facet normal 0.6264233099744844 0.7632945177372126 -0.15803580579389956
outer loop
vertex 1 1 2.5
vertex 0.69352 0.69352 -0.19509
vertex 0.5449 0.81549 -0.19509
endloop
endfacet
facet normal 0.46685691872787055 0.8733994672185029 -0.13862895836856645
outer loop
vertex 1 1 2.5
vertex 0.5449 0.81549 -0.19509
vertex 0.37533 0.90613 -0.19509
endloop
endfacet
facet normal -0.6830653703231144 -0.3650837733898755 -0.6325626753711893
outer loop
vertex -0.65328 -0.2706 -0.70711
vertex -0.58794 -0.39285 -0.70711
vertex -0.76818 -0.31819 -0.55557
endloop
endfacet
facet normal -0.6331426513229492 -0.062327078970530865 -0.7715216901051761
outer loop
vertex -0.5449 -0.10839 -0.83147
vertex -0.70711 0 -0.70711
vertex -0.55557 0 -0.83147
endloop
endfacet
facet normal 0.02859119386401296 -0.29018155692382186 -0.9565444096615154
outer loop
vertex 0 -0.19509 -0.98079
vertex 0.03806 -0.19134 -0.98079
vertex 0.07466 -0.37533 -0.92388
endloop
endfacet
facet normal 0.02856817384552549 -0.2901904570485619 -0.956542397429972
outer loop
vertex 0 -0.19509 -0.98079
vertex 0.07466 -0.37533 -0.92388
vertex 0 -0.38268 -0.92388
endloop
endfacet
facet normal -0.009654711880752048 -0.09798888911504601 -0.9951406755572294
outer loop
vertex 0 -0.19509 -0.98079
vertex -0.03806 -0.19134 -0.98079
vertex 0 0 -1
endloop
endfacet
facet normal 0.009654711880752048 -0.09798888911504601 -0.9951406755572294
outer loop
vertex 0 -0.19509 -0.98079
vertex 0 0 -1
vertex 0.03806 -0.19134 -0.98079
endloop
endfacet
facet normal -0.028591193864012838 -0.2901815569238219 -0.9565444096615154
outer loop
vertex -0.07466 -0.37533 -0.92388
vertex -0.03806 -0.19134 -0.98079
vertex 0 -0.19509 -0.98079
endloop
endfacet
facet normal -0.028568173845525534 -0.2901904570485619 -0.956542397429972
outer loop
vertex -0.07466 -0.37533 -0.92388
vertex 0 -0.19509 -0.98079
vertex 0 -0.38268 -0.92388
endloop
endfacet
facet normal -0.03489809005688349 -0.3544886263465188 -0.9344088704102396
outer loop
vertex -0.07466 -0.37533 -0.92388
vertex 0 -0.38268 -0.92388
vertex 0 -1.5 -0.5
endloop
endfacet
facet normal -0.18497909487282363 -0.22540318788978886 -0.9565438501967128
outer loop
vertex -0.10839 -0.16221 -0.98079
vertex -0.21261 -0.31819 -0.92388
vertex -0.2706 -0.2706 -0.92388
endloop
endfacet
facet normal -0.22540318788978891 -0.18497909487282366 -0.956543850196713
outer loop
vertex -0.31819 -0.21261 -0.92388
vertex -0.16221 -0.10839 -0.98079
vertex -0.2706 -0.2706 -0.92388
endloop
endfacet
facet normal -0.36576659759399954 -0.30016955301773446 -0.8809727779708307
outer loop
vertex -0.31819 -0.21261 -0.92388
vertex -0.2706 -0.2706 -0.92388
vertex -0.39285 -0.39285 -0.83147
endloop
endfacet
facet normal -0.3657706353515686 -0.30016739751086696 -0.8809718359777815
outer loop
vertex -0.31819 -0.21261 -0.92388
vertex -0.39285 -0.39285 -0.83147
vertex -0.46194 -0.30866 -0.83147
endloop
endfacet
facet normal -0.9523703752170546 -0.28892477239513076 0.09753534900408516
outer loop
vertex -0.98079 -0.19509 0
vertex -0.92388 -0.38268 0
vertex -0.90613 -0.37533 0.19509
endloop
endfacet
facet normal -0.9523780697072974 -0.28888646160315395 0.09757368827205093
outer loop
vertex -0.98079 -0.19509 0
vertex -0.90613 -0.37533 0.19509
vertex -0.96194 -0.19134 0.19509
endloop
endfacet
facet normal -0.9904336941126715 -0.09757329954021056 0.09757329954021056
outer loop
vertex -0.98079 -0.19509 0
vertex -0.96194 -0.19134 0.19509
vertex -0.98079 0 0.19509
endloop
endfacet
facet normal -0.9904429490135905 -0.09752631631837114 0.09752631631837114
outer loop
vertex -0.98079 -0.19509 0
vertex -0.98079 0 0.19509
vertex -1 0 0
endloop
endfacet
facet normal -0.9523780697072974 -0.28888646160315395 -0.09757368827205093
outer loop
vertex -0.98079 -0.19509 0
vertex -0.96194 -0.19134 -0.19509
vertex -0.90613 -0.37533 -0.19509
endloop
endfacet
facet normal -0.9523703752170546 -0.28892477239513076 -0.09753534900408516
outer loop
vertex -0.98079 -0.19509 0
vertex -0.90613 -0.37533 -0.19509
vertex -0.92388 -0.38268 0
endloop
endfacet
facet normal -0.4913388443033449 0.5987301197506913 -0.6325412111332952
outer loop
vertex -0.46194 0.69134 -0.55557
vertex -0.39285 0.58794 -0.70711
vertex -0.58794 0.58794 -0.55557
endloop
endfacet
facet normal -0.5600632430683271 0.6824755186325847 -0.46963425155217603
outer loop
vertex -0.46194 0.69134 -0.55557
vertex -0.58794 0.58794 -0.55557
vertex -0.51328 0.76818 -0.38268
endloop
endfacet
facet normal -0.7786469573329368 0.41615908562895426 -0.46959613636041814
outer loop
vertex -0.85355 0.35355 -0.38268
vertex -0.76818 0.51328 -0.38268
vertex -0.76818 0.31819 -0.55557
endloop
endfacet
facet normal -0.8448547810177769 0.25631795272006624 -0.46959717429388176
outer loop
vertex -0.85355 0.35355 -0.38268
vertex -0.76818 0.31819 -0.55557
vertex -0.90613 0.18024 -0.38268
endloop
endfacet
facet normal -0.7533454411732837 0.6503152083428653 0.09777922101042827
outer loop
vertex -0.70711 0.70711 0
vertex -0.69352 0.69352 0.19509
vertex 0 1 3.5
endloop
endfacet
facet normal -0.6331018943968554 0.7714720253851676 0.06334749686625675
outer loop
vertex -0.70711 0.70711 0
vertex 0 1 3.5
vertex -0.55557 0.83147 0
endloop
endfacet
facet normal -0.6313506010945591 0.7693379711311473 -0.09754744831797965
outer loop
vertex -0.70711 0.70711 0
vertex -0.55557 0.83147 0
vertex -0.5449 0.81549 -0.19509
endloop
endfacet
facet normal -0.9527118507852597 0.09382287700531736 -0.28902836733402176
outer loop
vertex -0.98079 0 -0.19509
vertex -0.90613 0.18024 -0.38268
vertex -0.92388 0 -0.38268
endloop
endfacet
facet normal -0.9527118507852597 -0.09382287700531736 -0.28902836733402176
outer loop
vertex -0.98079 0 -0.19509
vertex -0.92388 0 -0.38268
vertex -0.90613 -0.18024 -0.38268
endloop
endfacet
facet normal -0.9527178459447518 -0.09385769518165883 -0.28899729942263996
outer loop
vertex -0.98079 0 -0.19509
vertex -0.90613 -0.18024 -0.38268
vertex -0.96194 -0.19134 -0.19509
endloop
endfacet
facet normal -0.9904336941126715 -0.09757329954021056 -0.09757329954021056
outer loop
vertex -0.98079 0 -0.19509
vertex -0.96194 -0.19134 -0.19509
vertex -0.98079 -0.19509 0
endloop
endfacet
facet normal -0.9904429490135905 -0.09752631631837114 -0.09752631631837114
outer loop
vertex -0.98079 0 -0.19509
vertex -0.98079 -0.19509 0
vertex -1 0 0
endloop
endfacet
facet normal -0.9618176109502858 0.09475416518455587 0.25676551841332296
outer loop
vertex -0.96194 0.19134 0.19509
vertex -0.98079 0 0.19509
vertex 0 1 3.5
endloop
endfacet
facet normal -0.9369840469423001 0.2842169664647524 0.2031787679586704
outer loop
vertex -0.96194 0.19134 0.19509
vertex 0 1 3.5
vertex -0.90613 0.37533 0.19509
endloop
endfacet
facet normal 0.29018155692382186 -0.02859119386401296 -0.9565444096615154
outer loop
vertex 0.19134 -0.03806 -0.98079
vertex 0.19509 0 -0.98079
vertex 0.37533 -0.07466 -0.92388
endloop
endfacet
facet normal 0.2790351324556691 -0.0846254090234406 -0.9565447898572563
outer loop
vertex 0.19134 -0.03806 -0.98079
vertex 0.37533 -0.07466 -0.92388
vertex 0.18024 -0.07466 -0.98079
endloop
endfacet
facet normal 0.09422510974883282 -0.02857646771071158 -0.9951407006981471
outer loop
vertex 0.19134 -0.03806 -0.98079
vertex 0.18024 -0.07466 -0.98079
vertex 0 0 -1
endloop
endfacet
facet normal 0.09798888911504601 -0.009654711880752048 -0.9951406755572294
outer loop
vertex 0.19134 -0.03806 -0.98079
vertex 0 0 -1
vertex 0.19509 0 -0.98079
endloop
endfacet
facet normal 0.6088121391409044 0.18471157013659043 -0.7715111244125723
outer loop
vertex 0.51328 0.21261 -0.83147
vertex 0.65328 0.2706 -0.70711
vertex 0.5449 0.10839 -0.83147
endloop
endfacet
facet normal 0.4527797492184313 0.137371864040365 -0.8809764296891092
outer loop
vertex 0.51328 0.21261 -0.83147
vertex 0.5449 0.10839 -0.83147
vertex 0.35355 0.14645 -0.92388
endloop
endfacet
facet normal 0.4172995731310747 0.22303072711479435 -0.8809758004776687
outer loop
vertex 0.51328 0.21261 -0.83147
vertex 0.35355 0.14645 -0.92388
vertex 0.31819 0.21261 -0.92388
endloop
endfacet
facet normal 0.4172975781645193 0.22305109487731803 -0.8809715888336335
outer loop
vertex 0.51328 0.21261 -0.83147
vertex 0.31819 0.21261 -0.92388
vertex 0.46194 0.30866 -0.83147
endloop
endfacet
facet normal 0.5610849949145827 0.2999073778127501 -0.7715174613806113
outer loop
vertex 0.51328 0.21261 -0.83147
vertex 0.46194 0.30866 -0.83147
vertex 0.58794 0.39285 -0.70711
endloop
endfacet
facet normal 0.5611005075838367 0.29989617313315237 -0.7715105350734047
outer loop
vertex 0.51328 0.21261 -0.83147
vertex 0.58794 0.39285 -0.70711
vertex 0.65328 0.2706 -0.70711
endloop
endfacet
facet normal 0.4917962917629165 0.40362637328633577 -0.7715064213575696
outer loop
vertex 0.5 0.5 -0.70711
vertex 0.58794 0.39285 -0.70711
vertex 0.39285 0.39285 -0.83147
endloop
endfacet
facet normal 0.40362637328633577 0.4917962917629165 -0.7715064213575696
outer loop
vertex 0.5 0.5 -0.70711
vertex 0.39285 0.39285 -0.83147
vertex 0.39285 0.58794 -0.70711
endloop
endfacet
facet normal 0.491356806788376 0.5986909466383271 -0.6325643357288129
outer loop
vertex 0.5 0.5 -0.70711
vertex 0.39285 0.58794 -0.70711
vertex 0.58794 0.58794 -0.55557
endloop
endfacet
facet normal 0.5986909466383271 0.491356806788376 -0.6325643357288129
outer loop
vertex 0.5 0.5 -0.70711
vertex 0.58794 0.58794 -0.55557
vertex 0.58794 0.39285 -0.70711
endloop
endfacet
facet normal 0.29990737781275006 0.5610849949145826 -0.7715174613806114
outer loop
vertex 0.30866 0.46194 -0.83147
vertex 0.21261 0.51328 -0.83147
vertex 0.39285 0.58794 -0.70711
endloop
endfacet
facet normal 0.4035955640950038 0.4918035973535728 -0.7715178820175982
outer loop
vertex 0.30866 0.46194 -0.83147
vertex 0.39285 0.58794 -0.70711
vertex 0.39285 0.39285 -0.83147
endloop
endfacet
facet normal 0.30016739751086696 0.36577063535156856 -0.8809718359777814
outer loop
vertex 0.30866 0.46194 -0.83147
vertex 0.39285 0.39285 -0.83147
vertex 0.21261 0.31819 -0.92388
endloop
endfacet
facet normal 0.22305109487731803 0.4172975781645193 -0.8809715888336335
outer loop
vertex 0.30866 0.46194 -0.83147
vertex 0.21261 0.31819 -0.92388
vertex 0.21261 0.51328 -0.83147
endloop
endfacet
facet normal 0.8448547810177768 0.25631795272006624 -0.46959717429388176
outer loop
vertex 0.76818 0.31819 -0.55557
vertex 0.85355 0.35355 -0.38268
vertex 0.90613 0.18024 -0.38268
endloop
endfacet
facet normal 0.8448481132508254 0.25624928989547774 -0.4696466405336933
outer loop
vertex 0.76818 0.31819 -0.55557
vertex 0.90613 0.18024 -0.38268
vertex 0.81549 0.16221 -0.55557
endloop
endfacet
facet normal 0.7411815873149271 0.22480639117751802 -0.6325440230616884
outer loop
vertex 0.76818 0.31819 -0.55557
vertex 0.81549 0.16221 -0.55557
vertex 0.69352 0.13795 -0.70711
endloop
endfacet
facet normal 0.7411565855021873 0.22483332831216019 -0.6325637440185892
outer loop
vertex 0.76818 0.31819 -0.55557
vertex 0.69352 0.13795 -0.70711
vertex 0.65328 0.2706 -0.70711
endloop
endfacet
facet normal 0.6830653703231145 0.36508377338987547 -0.6325626753711892
outer loop
vertex 0.76818 0.31819 -0.55557
vertex 0.65328 0.2706 -0.70711
vertex 0.58794 0.39285 -0.70711
endloop
endfacet
facet normal 0.6830638586512078 0.36512436103484386 -0.6325408808791885
outer loop
vertex 0.76818 0.31819 -0.55557
vertex 0.58794 0.39285 -0.70711
vertex 0.69134 0.46194 -0.55557
endloop
endfacet
facet normal 0.7786040986760747 0.4161943578592666 -0.4696359377336129
outer loop
vertex 0.76818 0.31819 -0.55557
vertex 0.69134 0.46194 -0.55557
vertex 0.76818 0.51328 -0.38268
endloop
endfacet
facet normal 0.7786469573329368 0.4161590856289543 -0.46959613636041814
outer loop
vertex 0.76818 0.31819 -0.55557
vertex 0.76818 0.51328 -0.38268
vertex 0.85355 0.35355 -0.38268
endloop
endfacet
facet normal 0.137371864040365 0.4527797492184313 -0.8809764296891092
outer loop
vertex 0.14645 0.35355 -0.92388
vertex 0.10839 0.5449 -0.83147
vertex 0.21261 0.51328 -0.83147
endloop
endfacet
facet normal 0.22303072711479444 0.41729957313107463 -0.8809758004776685
outer loop
vertex 0.14645 0.35355 -0.92388
vertex 0.21261 0.51328 -0.83147
vertex 0.21261 0.31819 -0.92388
endloop
endfacet
facet normal 0.22540318788978886 0.18497909487282363 -0.9565438501967128
outer loop
vertex 0.16221 0.10839 -0.98079
vertex 0.2706 0.2706 -0.92388
vertex 0.31819 0.21261 -0.92388
endloop
endfacet
facet normal 0.18469163987534906 0.6088306667362083 -0.7715012750486536
outer loop
vertex 0.13795 0.69352 -0.70711
vertex 0.2706 0.65328 -0.70711
vertex 0.10839 0.5449 -0.83147
endloop
endfacet
facet normal 0.2248333283121602 0.7411565855021872 -0.6325637440185892
outer loop
vertex 0.13795 0.69352 -0.70711
vertex 0.31819 0.76818 -0.55557
vertex 0.2706 0.65328 -0.70711
endloop
endfacet
facet normal 0.740008061706144 0.607335187785971 -0.2890190967512275
outer loop
vertex 0.65328 0.65328 -0.38268
vertex 0.69352 0.69352 -0.19509
vertex 0.76818 0.51328 -0.38268
endloop
endfacet
facet normal 0.6824623113714454 0.5601065684041363 -0.46960177340815806
outer loop
vertex 0.65328 0.65328 -0.38268
vertex 0.76818 0.51328 -0.38268
vertex 0.58794 0.58794 -0.55557
endloop
endfacet
facet normal -0.6088121391409044 -0.18471157013659043 -0.7715111244125723
outer loop
vertex -0.51328 -0.21261 -0.83147
vertex -0.65328 -0.2706 -0.70711
vertex -0.5449 -0.10839 -0.83147
endloop
endfacet
facet normal -0.4527797492184313 -0.137371864040365 -0.8809764296891092
outer loop
vertex -0.51328 -0.21261 -0.83147
vertex -0.5449 -0.10839 -0.83147
vertex -0.35355 -0.14645 -0.92388
endloop
endfacet
facet normal -0.4172995731310747 -0.22303072711479435 -0.8809758004776687
outer loop
vertex -0.51328 -0.21261 -0.83147
vertex -0.35355 -0.14645 -0.92388
vertex -0.31819 -0.21261 -0.92388
endloop
endfacet
facet normal -0.4172975781645193 -0.22305109487731803 -0.8809715888336335
outer loop
vertex -0.51328 -0.21261 -0.83147
vertex -0.31819 -0.21261 -0.92388
vertex -0.46194 -0.30866 -0.83147
endloop
endfacet
facet normal -0.5610849949145827 -0.2999073778127501 -0.7715174613806113
outer loop
vertex -0.51328 -0.21261 -0.83147
vertex -0.46194 -0.30866 -0.83147
vertex -0.58794 -0.39285 -0.70711
endloop
endfacet
facet normal -0.5611005075838367 -0.29989617313315237 -0.7715105350734047
outer loop
vertex -0.51328 -0.21261 -0.83147
vertex -0.58794 -0.39285 -0.70711
vertex -0.65328 -0.2706 -0.70711
endloop
endfacet
facet normal -0.633160538992642 -0.062375148422689375 -0.7715031255424663
outer loop
vertex -0.69352 -0.13795 -0.70711
vertex -0.70711 0 -0.70711
vertex -0.5449 -0.10839 -0.83147
endloop
endfacet
facet normal -0.6088306667362083 -0.18469163987534906 -0.7715012750486536
outer loop
vertex -0.69352 -0.13795 -0.70711
vertex -0.5449 -0.10839 -0.83147
vertex -0.65328 -0.2706 -0.70711
endloop
endfacet
facet normal -0.7411565855021872 -0.2248333283121602 -0.6325637440185892
outer loop
vertex -0.69352 -0.13795 -0.70711
vertex -0.65328 -0.2706 -0.70711
vertex -0.76818 -0.31819 -0.55557
endloop
endfacet
facet normal -0.7411815873149271 -0.22480639117751802 -0.6325440230616884
outer loop
vertex -0.69352 -0.13795 -0.70711
vertex -0.76818 -0.31819 -0.55557
vertex -0.81549 -0.16221 -0.55557
endloop
endfacet
facet normal -0.491356806788376 0.5986909466383271 -0.6325643357288129
outer loop
vertex -0.5 0.5 -0.70711
vertex -0.58794 0.58794 -0.55557
vertex -0.39285 0.58794 -0.70711
endloop
endfacet
facet normal -0.5986909466383271 0.491356806788376 -0.6325643357288129
outer loop
vertex -0.58794 0.39285 -0.70711
vertex -0.58794 0.58794 -0.55557
vertex -0.5 0.5 -0.70711
endloop
endfacet
facet normal -0.0761116106167374 -0.06246507691346583 -0.995140762352503
outer loop
vertex -0.13795 -0.13795 -0.98079
vertex -0.16221 -0.10839 -0.98079
vertex 0 0 -1
endloop
endfacet
facet normal -0.06246507691346583 -0.0761116106167374 -0.995140762352503
outer loop
vertex -0.13795 -0.13795 -0.98079
vertex 0 0 -1
vertex -0.10839 -0.16221 -0.98079
endloop
endfacet
facet normal -0.18498376689781793 -0.2253965436726915 -0.9565445123383951
outer loop
vertex -0.13795 -0.13795 -0.98079
vertex -0.10839 -0.16221 -0.98079
vertex -0.2706 -0.2706 -0.92388
endloop
endfacet
facet normal -0.2253965436726915 -0.18498376689781793 -0.9565445123383951
outer loop
vertex -0.13795 -0.13795 -0.98079
vertex -0.2706 -0.2706 -0.92388
vertex -0.16221 -0.10839 -0.98079
endloop
endfacet
facet normal -0.1082744327619034 -0.35688804077029557 -0.9278510513898381
outer loop
vertex -0.14645 -0.35355 -0.92388
vertex -0.07466 -0.37533 -0.92388
vertex 0 -1.5 -0.5
endloop
endfacet
facet normal -0.1934114754998429 -0.36188074714563356 -0.9119398697229395
outer loop
vertex -0.14645 -0.35355 -0.92388
vertex 0 -1.5 -0.5
vertex -0.21261 -0.31819 -0.92388
endloop
endfacet
facet normal 0.2888134987061455 0.9521375313912144 -0.10010436694450323
outer loop
vertex 0.19134 0.96194 -0.19509
vertex 1 1 2.5
vertex 0.37533 0.90613 -0.19509
endloop
endfacet
facet normal -0.5610849949145827 0.2999073778127501 -0.7715174613806113
outer loop
vertex -0.51328 0.21261 -0.83147
vertex -0.58794 0.39285 -0.70711
vertex -0.46194 0.30866 -0.83147
endloop
endfacet
facet normal -0.7707927898296203 -0.07593384569615455 -0.6325444855695632
outer loop
vertex -0.83147 0 -0.55557
vertex -0.70711 0 -0.70711
vertex -0.69352 -0.13795 -0.70711
endloop
endfacet
facet normal -0.7707928840628034 -0.07593409954579615 -0.6325443402673958
outer loop
vertex -0.83147 0 -0.55557
vertex -0.69352 -0.13795 -0.70711
vertex -0.81549 -0.16221 -0.55557
endloop
endfacet
facet normal -0.8786018122275875 -0.08655481757842823 -0.46964573787522435
outer loop
vertex -0.83147 0 -0.55557
vertex -0.81549 -0.16221 -0.55557
vertex -0.90613 -0.18024 -0.38268
endloop
endfacet
facet normal -0.8786171415206461 -0.08652604450727647 -0.4696223613159981
outer loop
vertex -0.83147 0 -0.55557
vertex -0.90613 -0.18024 -0.38268
vertex -0.92388 0 -0.38268
endloop
endfacet
facet normal -0.8786171415206461 0.08652604450727647 -0.4696223613159981
outer loop
vertex -0.83147 0 -0.55557
vertex -0.92388 0 -0.38268
vertex -0.90613 0.18024 -0.38268
endloop
endfacet
facet normal -0.7707927898296203 0.07593384569615455 -0.6325444855695632
outer loop
vertex -0.83147 0 -0.55557
vertex -0.69352 0.13795 -0.70711
vertex -0.70711 0 -0.70711
endloop
endfacet
facet normal -0.7693201724296634 0.6313684660963941 0.09757219025869661
outer loop
vertex -0.81549 0.5449 0.19509
vertex -0.69352 0.69352 0.19509
vertex -0.70711 0.70711 0
endloop
endfacet
facet normal -0.8718095455510874 0.46600706026272626 0.1509487862531475
outer loop
vertex -0.81549 0.5449 0.19509
vertex -0.90613 0.37533 0.19509
vertex 0 1 3.5
endloop
endfacet
facet normal -0.7689105659899163 0.6310323087995567 0.10283368494889078
outer loop
vertex -0.81549 0.5449 0.19509
vertex 0 1 3.5
vertex -0.69352 0.69352 0.19509
endloop
endfacet
facet normal -0.7400080617061439 0.607335187785971 -0.2890190967512275
outer loop
vertex -0.69352 0.69352 -0.19509
vertex -0.65328 0.65328 -0.38268
vertex -0.76818 0.51328 -0.38268
endloop
endfacet
facet normal -0.6313684660963941 0.7693201724296634 -0.09757219025869654
outer loop
vertex -0.69352 0.69352 -0.19509
vertex -0.70711 0.70711 0
vertex -0.5449 0.81549 -0.19509
endloop
endfacet
facet normal -0.6073246930790803 0.7400229227302852 -0.2890030986168262
outer loop
vertex -0.69352 0.69352 -0.19509
vertex -0.5449 0.81549 -0.19509
vertex -0.51328 0.76818 -0.38268
endloop
endfacet
facet normal -0.607335187785971 0.7400080617061439 -0.2890190967512275
outer loop
vertex -0.69352 0.69352 -0.19509
vertex -0.51328 0.76818 -0.38268
vertex -0.65328 0.65328 -0.38268
endloop
endfacet
facet normal -0.7693201724296634 0.6313684660963941 -0.09757219025869661
outer loop
vertex -0.81549 0.5449 -0.19509
vertex -0.70711 0.70711 0
vertex -0.69352 0.69352 -0.19509
endloop
endfacet
facet normal -0.7400229227302852 0.6073246930790803 -0.2890030986168262
outer loop
vertex -0.81549 0.5449 -0.19509
vertex -0.69352 0.69352 -0.19509
vertex -0.76818 0.51328 -0.38268
endloop
endfacet
facet normal -0.9904429490135905 0.09752631631837114 -0.09752631631837114
outer loop
vertex -0.98079 0.19509 0
vertex -0.98079 0 -0.19509
vertex -1 0 0
endloop
endfacet
facet normal -0.9904429490135905 0.09752631631837114 0.09752631631837114
outer loop
vertex -0.98079 0.19509 0
vertex -1 0 0
vertex -0.98079 0 0.19509
endloop
endfacet
facet normal -0.9904336941126715 0.09757329954021056 0.09757329954021056
outer loop
vertex -0.98079 0.19509 0
vertex -0.98079 0 0.19509
vertex -0.96194 0.19134 0.19509
endloop
endfacet
facet normal -0.9523780697072974 0.28888646160315395 0.09757368827205093
outer loop
vertex -0.98079 0.19509 0
vertex -0.96194 0.19134 0.19509
vertex -0.90613 0.37533 0.19509
endloop
endfacet
facet normal 0.0463566100347329 0.4708822456045099 -0.8809772843158568
outer loop
vertex 0.07466 0.37533 -0.92388
vertex 0 0.38268 -0.92388
vertex 0.10839 0.5449 -0.83147
endloop
endfacet
facet normal 0.1373663611933488 0.452779204319123 -0.8809775677896914
outer loop
vertex 0.07466 0.37533 -0.92388
vertex 0.10839 0.5449 -0.83147
vertex 0.14645 0.35355 -0.92388
endloop
endfacet
facet normal 0.08465482579755694 0.27903443269084505 -0.9565423910324536
outer loop
vertex 0.07466 0.18024 -0.98079
vertex 0.07466 0.37533 -0.92388
vertex 0.14645 0.35355 -0.92388
endloop
endfacet
facet normal 0.13744592117375362 0.25716691586129914 -0.9565426264098666
outer loop
vertex 0.07466 0.18024 -0.98079
vertex 0.14645 0.35355 -0.92388
vertex 0.21261 0.31819 -0.92388
endloop
endfacet
facet normal 0.08683519661629872 0.04641679795410222 -0.995140758634826
outer loop
vertex 0.18024 0.07466 -0.98079
vertex 0 0 -1
vertex 0.16221 0.10839 -0.98079
endloop
endfacet
facet normal 0.25715439671870527 0.13745905048438367 -0.9565441054589017
outer loop
vertex 0.18024 0.07466 -0.98079
vertex 0.16221 0.10839 -0.98079
vertex 0.31819 0.21261 -0.92388
endloop
endfacet
facet normal 0.25716691586129914 0.13744592117375362 -0.9565426264098666
outer loop
vertex 0.18024 0.07466 -0.98079
vertex 0.31819 0.21261 -0.92388
vertex 0.35355 0.14645 -0.92388
endloop
endfacet
facet normal 0.27903443269084505 0.08465482579755694 -0.9565423910324536
outer loop
vertex 0.18024 0.07466 -0.98079
vertex 0.35355 0.14645 -0.92388
vertex 0.37533 0.07466 -0.92388
endloop
endfacet
facet normal -0.4161943578592666 0.7786040986760747 -0.4696359377336129
outer loop
vertex -0.31819 0.76818 -0.55557
vertex -0.46194 0.69134 -0.55557
vertex -0.51328 0.76818 -0.38268
endloop
endfacet
facet normal -0.36512436103484386 0.6830638586512078 -0.6325408808791885
outer loop
vertex -0.31819 0.76818 -0.55557
vertex -0.39285 0.58794 -0.70711
vertex -0.46194 0.69134 -0.55557
endloop
endfacet
facet normal -0.07593384569615465 0.7707927898296203 -0.6325444855695632
outer loop
vertex 0 0.70711 -0.70711
vertex -0.13795 0.69352 -0.70711
vertex 0 0.83147 -0.55557
endloop
endfacet
facet normal 0.07593384569615465 0.7707927898296203 -0.6325444855695632
outer loop
vertex 0 0.70711 -0.70711
vertex 0 0.83147 -0.55557
vertex 0.13795 0.69352 -0.70711
endloop
endfacet
facet normal 0.062375148422689375 0.633160538992642 -0.7715031255424663
outer loop
vertex 0 0.70711 -0.70711
vertex 0.13795 0.69352 -0.70711
vertex 0.10839 0.5449 -0.83147
endloop
endfacet
facet normal -0.062375148422689375 0.633160538992642 -0.7715031255424663
outer loop
vertex 0 0.70711 -0.70711
vertex -0.10839 0.5449 -0.83147
vertex -0.13795 0.69352 -0.70711
endloop
endfacet
facet normal 0.22480639117751802 0.7411815873149271 -0.6325440230616884
outer loop
vertex 0.16221 0.81549 -0.55557
vertex 0.31819 0.76818 -0.55557
vertex 0.13795 0.69352 -0.70711
endloop
endfacet
facet normal 0.07593409954579615 0.7707928840628034 -0.6325443402673959
outer loop
vertex 0.16221 0.81549 -0.55557
vertex 0.13795 0.69352 -0.70711
vertex 0 0.83147 -0.55557
endloop
endfacet
facet normal 0.4161943578592666 0.7786040986760747 -0.4696359377336129
outer loop
vertex 0.51328 0.76818 -0.38268
vertex 0.46194 0.69134 -0.55557
vertex 0.31819 0.76818 -0.55557
endloop
endfacet
facet normal 0.41615908562895426 0.7786469573329368 -0.469596136360418
outer loop
vertex 0.51328 0.76818 -0.38268
vertex 0.31819 0.76818 -0.55557
vertex 0.35355 0.85355 -0.38268
endloop
endfacet
facet normal 0.45124534834201824 0.8442944768732635 -0.28904060600717163
outer loop
vertex 0.51328 0.76818 -0.38268
vertex 0.35355 0.85355 -0.38268
vertex 0.37533 0.90613 -0.19509
endloop
endfacet
facet normal 0.4512936404059332 0.8442835680012596 -0.28899707080214987
outer loop
vertex 0.51328 0.76818 -0.38268
vertex 0.37533 0.90613 -0.19509
vertex 0.5449 0.81549 -0.19509
endloop
endfacet
facet normal 0.6073246930790803 0.7400229227302852 -0.2890030986168262
outer loop
vertex 0.51328 0.76818 -0.38268
vertex 0.5449 0.81549 -0.19509
vertex 0.69352 0.69352 -0.19509
endloop
endfacet
facet normal 0.607335187785971 0.740008061706144 -0.2890190967512275
outer loop
vertex 0.51328 0.76818 -0.38268
vertex 0.69352 0.69352 -0.19509
vertex 0.65328 0.65328 -0.38268
endloop
endfacet
facet normal 0.5601065684041363 0.6824623113714454 -0.46960177340815806
outer loop
vertex 0.51328 0.76818 -0.38268
vertex 0.65328 0.65328 -0.38268
vertex 0.58794 0.58794 -0.55557
endloop
endfacet
facet normal 0.5600632430683271 0.6824755186325846 -0.4696342515521759
outer loop
vertex 0.51328 0.76818 -0.38268
vertex 0.58794 0.58794 -0.55557
vertex 0.46194 0.69134 -0.55557
endloop
endfacet
facet normal 0 1 0
outer loop
vertex 0 1 0
vertex 0 1 3.5
vertex 1 1 3.5
endloop
endfacet
facet normal 0 1 0
outer loop
vertex 0 1 0
vertex 1 1 3.5
vertex 1 1 2.5
endloop
endfacet
facet normal -0.5987301197506913 0.4913388443033449 -0.6325412111332952
outer loop
vertex -0.69134 0.46194 -0.55557
vertex -0.58794 0.58794 -0.55557
vertex -0.58794 0.39285 -0.70711
endloop
endfacet
facet normal -0.6830638586512078 0.36512436103484386 -0.6325408808791885
outer loop
vertex -0.69134 0.46194 -0.55557
vertex -0.58794 0.39285 -0.70711
vertex -0.76818 0.31819 -0.55557
endloop
endfacet
facet normal -0.7786040986760747 0.4161943578592666 -0.4696359377336129
outer loop
vertex -0.69134 0.46194 -0.55557
vertex -0.76818 0.31819 -0.55557
vertex -0.76818 0.51328 -0.38268
endloop
endfacet
facet normal -0.6824755186325847 0.5600632430683271 -0.46963425155217603
outer loop
vertex -0.69134 0.46194 -0.55557
vertex -0.76818 0.51328 -0.38268
vertex -0.58794 0.58794 -0.55557
endloop
endfacet
facet normal -0.5611005075838366 0.29989617313315226 -0.7715105350734047
outer loop
vertex -0.65328 0.2706 -0.70711
vertex -0.58794 0.39285 -0.70711
vertex -0.51328 0.21261 -0.83147
endloop
endfacet
facet normal -0.7411565855021872 0.2248333283121602 -0.6325637440185892
outer loop
vertex -0.65328 0.2706 -0.70711
vertex -0.69352 0.13795 -0.70711
vertex -0.76818 0.31819 -0.55557
endloop
endfacet
facet normal -0.6830653703231144 0.3650837733898755 -0.6325626753711893
outer loop
vertex -0.65328 0.2706 -0.70711
vertex -0.76818 0.31819 -0.55557
vertex -0.58794 0.39285 -0.70711
endloop
endfacet
facet normal -0.04641679795410222 -0.08683519661629872 -0.995140758634826
outer loop
vertex -0.07466 -0.18024 -0.98079
vertex -0.10839 -0.16221 -0.98079
vertex 0 0 -1
endloop
endfacet
facet normal -0.02857646771071158 -0.09422510974883282 -0.9951407006981471
outer loop
vertex -0.07466 -0.18024 -0.98079
vertex 0 0 -1
vertex -0.03806 -0.19134 -0.98079
endloop
endfacet
facet normal -0.0846254090234406 -0.2790351324556691 -0.9565447898572563
outer loop
vertex -0.07466 -0.18024 -0.98079
vertex -0.03806 -0.19134 -0.98079
vertex -0.07466 -0.37533 -0.92388
endloop
endfacet
facet normal -0.08465482579755694 -0.27903443269084505 -0.9565423910324536
outer loop
vertex -0.07466 -0.18024 -0.98079
vertex -0.07466 -0.37533 -0.92388
vertex -0.14645 -0.35355 -0.92388
endloop
endfacet
facet normal -0.13744592117375362 -0.25716691586129914 -0.9565426264098666
outer loop
vertex -0.07466 -0.18024 -0.98079
vertex -0.14645 -0.35355 -0.92388
vertex -0.21261 -0.31819 -0.92388
endloop
endfacet
facet normal -0.13745905048438367 -0.25715439671870527 -0.9565441054589017
outer loop
vertex -0.07466 -0.18024 -0.98079
vertex -0.21261 -0.31819 -0.92388
vertex -0.10839 -0.16221 -0.98079
endloop
endfacet
facet normal 0.25631795272006624 0.8448547810177769 -0.46959717429388176
outer loop
vertex 0.18024 0.90613 -0.38268
vertex 0.35355 0.85355 -0.38268
vertex 0.31819 0.76818 -0.55557
endloop
endfacet
facet normal 0.25624928989547774 0.8448481132508254 -0.4696466405336933
outer loop
vertex 0.18024 0.90613 -0.38268
vertex 0.31819 0.76818 -0.55557
vertex 0.16221 0.81549 -0.55557
endloop
endfacet
facet normal 0.0865548175784282 0.8786018122275876 -0.4696457378752245
outer loop
vertex 0.18024 0.90613 -0.38268
vertex 0.16221 0.81549 -0.55557
vertex 0 0.83147 -0.55557
endloop
endfacet
facet normal 0.2778857630351396 0.9161118355283159 -0.2889958607096614
outer loop
vertex 0.18024 0.90613 -0.38268
vertex 0.19134 0.96194 -0.19509
vertex 0.37533 0.90613 -0.19509
endloop
endfacet
facet normal 0.2779282724863136 0.9160849924800881 -0.28904006972309243
outer loop
vertex 0.18024 0.90613 -0.38268
vertex 0.37533 0.90613 -0.19509
vertex 0.35355 0.85355 -0.38268
endloop
endfacet
facet normal -0.47114365154457993 0.8814633255658741 0.032342932637430155
outer loop
vertex -0.38268 0.92388 0
vertex -0.55557 0.83147 0
vertex 0 1 3.5
endloop
endfacet
facet normal -0.4691601686958677 0.8777084047413766 -0.09755353584372385
outer loop
vertex -0.37533 0.90613 -0.19509
vertex -0.5449 0.81549 -0.19509
vertex -0.55557 0.83147 0
endloop
endfacet
facet normal -0.46914281336785835 0.8777199545846665 -0.09753308151177219
outer loop
vertex -0.37533 0.90613 -0.19509
vertex -0.55557 0.83147 0
vertex -0.38268 0.92388 0
endloop
endfacet
facet normal -0.2778857630351396 0.9161118355283159 -0.2889958607096614
outer loop
vertex -0.37533 0.90613 -0.19509
vertex -0.19134 0.96194 -0.19509
vertex -0.18024 0.90613 -0.38268
endloop
endfacet
facet normal -0.4512936404059331 0.8442835680012596 -0.2889970708021499
outer loop
vertex -0.37533 0.90613 -0.19509
vertex -0.51328 0.76818 -0.38268
vertex -0.5449 0.81549 -0.19509
endloop
endfacet
facet normal -0.25715439671870527 -0.13745905048438367 -0.9565441054589017
outer loop
vertex -0.18024 -0.07466 -0.98079
vertex -0.16221 -0.10839 -0.98079
vertex -0.31819 -0.21261 -0.92388
endloop
endfacet
facet normal -0.25716691586129914 -0.13744592117375362 -0.9565426264098666
outer loop
vertex -0.18024 -0.07466 -0.98079
vertex -0.31819 -0.21261 -0.92388
vertex -0.35355 -0.14645 -0.92388
endloop
endfacet
facet normal -0.08683519661629872 -0.04641679795410222 -0.995140758634826
outer loop
vertex -0.18024 -0.07466 -0.98079
vertex 0 0 -1
vertex -0.16221 -0.10839 -0.98079
endloop
endfacet
facet normal -0.7411815873149271 0.22480639117751802 -0.6325440230616884
outer loop
vertex -0.81549 0.16221 -0.55557
vertex -0.76818 0.31819 -0.55557
vertex -0.69352 0.13795 -0.70711
endloop
endfacet
facet normal -0.7707928840628034 0.07593409954579615 -0.6325443402673959
outer loop
vertex -0.81549 0.16221 -0.55557
vertex -0.69352 0.13795 -0.70711
vertex -0.83147 0 -0.55557
endloop
endfacet
facet normal -0.8786018122275875 0.08655481757842823 -0.46964573787522435
outer loop
vertex -0.81549 0.16221 -0.55557
vertex -0.83147 0 -0.55557
vertex -0.90613 0.18024 -0.38268
endloop
endfacet
facet normal -0.8448481132508252 0.2562492898954777 -0.46964664053369326
outer loop
vertex -0.81549 0.16221 -0.55557
vertex -0.90613 0.18024 -0.38268
vertex -0.76818 0.31819 -0.55557
endloop
endfacet
facet normal -0.7693379711311473 0.6313506010945591 0.09754744831797964
outer loop
vertex -0.83147 0.55557 0
vertex -0.81549 0.5449 0.19509
vertex -0.70711 0.70711 0
endloop
endfacet
facet normal -0.7693379711311473 0.6313506010945591 -0.09754744831797964
outer loop
vertex -0.83147 0.55557 0
vertex -0.70711 0.70711 0
vertex -0.81549 0.5449 -0.19509
endloop
endfacet
facet normal -0.8777084047413765 0.4691601686958678 0.09755353584372382
outer loop
vertex -0.83147 0.55557 0
vertex -0.90613 0.37533 0.19509
vertex -0.81549 0.5449 0.19509
endloop
endfacet
facet normal -0.9527178459447518 0.09385769518165883 -0.28899729942263996
outer loop
vertex -0.96194 0.19134 -0.19509
vertex -0.90613 0.18024 -0.38268
vertex -0.98079 0 -0.19509
endloop
endfacet
facet normal -0.9904336941126715 0.09757329954021056 -0.09757329954021056
outer loop
vertex -0.96194 0.19134 -0.19509
vertex -0.98079 0 -0.19509
vertex -0.98079 0.19509 0
endloop
endfacet
facet normal -0.009654711880752048 0.09798888911504601 -0.9951406755572294
outer loop
vertex 0 0.19509 -0.98079
vertex 0 0 -1
vertex -0.03806 0.19134 -0.98079
endloop
endfacet
facet normal 0.02856817384552549 0.2901904570485619 -0.956542397429972
outer loop
vertex 0 0.19509 -0.98079
vertex 0 0.38268 -0.92388
vertex 0.07466 0.37533 -0.92388
endloop
endfacet
facet normal 0.04641679795410222 0.08683519661629872 -0.995140758634826
outer loop
vertex 0.10839 0.16221 -0.98079
vertex 0 0 -1
vertex 0.07466 0.18024 -0.98079
endloop
endfacet
facet normal 0.13745905048438367 0.25715439671870527 -0.9565441054589017
outer loop
vertex 0.10839 0.16221 -0.98079
vertex 0.07466 0.18024 -0.98079
vertex 0.21261 0.31819 -0.92388
endloop
endfacet
facet normal 0.18497909487282363 0.22540318788978886 -0.9565438501967128
outer loop
vertex 0.10839 0.16221 -0.98079
vertex 0.21261 0.31819 -0.92388
vertex 0.2706 0.2706 -0.92388
endloop
endfacet
facet normal 0.09798888911504601 0.009654711880752048 -0.9951406755572294
outer loop
vertex 0.19134 0.03806 -0.98079
vertex 0.19509 0 -0.98079
vertex 0 0 -1
endloop
endfacet
facet normal 0.09422510974883282 0.02857646771071158 -0.9951407006981471
outer loop
vertex 0.19134 0.03806 -0.98079
vertex 0 0 -1
vertex 0.18024 0.07466 -0.98079
endloop
endfacet
facet normal 0.2790351324556691 0.0846254090234406 -0.9565447898572563
outer loop
vertex 0.19134 0.03806 -0.98079
vertex 0.18024 0.07466 -0.98079
vertex 0.37533 0.07466 -0.92388
endloop
endfacet
facet normal 0.29018155692382186 0.02859119386401296 -0.9565444096615154
outer loop
vertex 0.19134 0.03806 -0.98079
vertex 0.37533 0.07466 -0.92388
vertex 0.19509 0 -0.98079
endloop
endfacet
facet normal -0.3650837733898755 0.6830653703231144 -0.6325626753711893
outer loop
vertex -0.2706 0.65328 -0.70711
vertex -0.39285 0.58794 -0.70711
vertex -0.31819 0.76818 -0.55557
endloop
endfacet
facet normal -0.2248333283121602 0.7411565855021872 -0.6325637440185892
outer loop
vertex -0.2706 0.65328 -0.70711
vertex -0.31819 0.76818 -0.55557
vertex -0.13795 0.69352 -0.70711
endloop
endfacet
facet normal -0.18469163987534906 0.6088306667362083 -0.7715012750486536
outer loop
vertex -0.2706 0.65328 -0.70711
vertex -0.13795 0.69352 -0.70711
vertex -0.10839 0.5449 -0.83147
endloop
endfacet
facet normal -0.07593409954579615 0.7707928840628034 -0.6325443402673959
outer loop
vertex -0.16221 0.81549 -0.55557
vertex 0 0.83147 -0.55557
vertex -0.13795 0.69352 -0.70711
endloop
endfacet
facet normal -0.22480639117751802 0.7411815873149271 -0.6325440230616884
outer loop
vertex -0.16221 0.81549 -0.55557
vertex -0.13795 0.69352 -0.70711
vertex -0.31819 0.76818 -0.55557
endloop
endfacet
facet normal -0.2562492898954777 0.8448481132508252 -0.46964664053369326
outer loop
vertex -0.16221 0.81549 -0.55557
vertex -0.31819 0.76818 -0.55557
vertex -0.18024 0.90613 -0.38268
endloop
endfacet
facet normal -0.08655481757842823 0.8786018122275875 -0.46964573787522435
outer loop
vertex -0.16221 0.81549 -0.55557
vertex -0.18024 0.90613 -0.38268
vertex 0 0.83147 -0.55557
endloop
endfacet
facet normal -0.25631795272006624 0.8448547810177769 -0.46959717429388176
outer loop
vertex -0.35355 0.85355 -0.38268
vertex -0.18024 0.90613 -0.38268
vertex -0.31819 0.76818 -0.55557
endloop
endfacet
facet normal -0.41615908562895426 0.7786469573329368 -0.46959613636041814
outer loop
vertex -0.35355 0.85355 -0.38268
vertex -0.31819 0.76818 -0.55557
vertex -0.51328 0.76818 -0.38268
endloop
endfacet
facet normal -0.45124534834201824 0.8442944768732635 -0.28904060600717163
outer loop
vertex -0.35355 0.85355 -0.38268
vertex -0.51328 0.76818 -0.38268
vertex -0.37533 0.90613 -0.19509
endloop
endfacet
facet normal -0.2779282724863136 0.9160849924800881 -0.2890400697230924
outer loop
vertex -0.35355 0.85355 -0.38268
vertex -0.37533 0.90613 -0.19509
vertex -0.18024 0.90613 -0.38268
endloop
endfacet
facet normal -0.062327078970530865 0.6331426513229492 -0.7715216901051761
outer loop
vertex 0 0.55557 -0.83147
vertex -0.10839 0.5449 -0.83147
vertex 0 0.70711 -0.70711
endloop
endfacet
facet normal 0.062327078970530865 0.6331426513229492 -0.7715216901051761
outer loop
vertex 0 0.55557 -0.83147
vertex 0 0.70711 -0.70711
vertex 0.10839 0.5449 -0.83147
endloop
endfacet
facet normal 0.04635416130555828 0.4708835561302232 -0.8809767126864441
outer loop
vertex 0 0.55557 -0.83147
vertex 0.10839 0.5449 -0.83147
vertex 0 0.38268 -0.92388
endloop
endfacet
facet normal -0.04635416130555828 0.4708835561302232 -0.8809767126864441
outer loop
vertex 0 0.55557 -0.83147
vertex 0 0.38268 -0.92388
vertex -0.10839 0.5449 -0.83147
endloop
endfacet
facet normal 0.09385769518165883 0.9527178459447518 -0.28899729942263996
outer loop
vertex 0 0.98079 -0.19509
vertex 0.19134 0.96194 -0.19509
vertex 0.18024 0.90613 -0.38268
endloop
endfacet
facet normal -0.09385769518165883 0.9527178459447518 -0.28899729942263996
outer loop
vertex 0 0.98079 -0.19509
vertex -0.18024 0.90613 -0.38268
vertex -0.19134 0.96194 -0.19509
endloop
endfacet
facet normal 0.09757329954021056 0.9904336941126715 -0.09757329954021056
outer loop
vertex 0.19509 0.98079 0
vertex 0.19134 0.96194 -0.19509
vertex 0 0.98079 -0.19509
endloop
endfacet
facet normal 0.09752631631837114 0.9904429490135905 -0.09752631631837114
outer loop
vertex 0.19509 0.98079 0
vertex 0 0.98079 -0.19509
vertex 0 1 0
endloop
endfacet
facet normal 0.09791826273441216 0.9944234188889391 -0.03916730509376486
outer loop
vertex 0.19509 0.98079 0
vertex 0 1 0
vertex 1 1 2.5
endloop
endfacet
facet normal 0.28051658810062485 0.9548687065452391 -0.09765345391232318
outer loop
vertex 0.19509 0.98079 0
vertex 1 1 2.5
vertex 0.19134 0.96194 -0.19509
endloop
endfacet
facet normal -0.1373663611933488 0.452779204319123 -0.8809775677896914
outer loop
vertex -0.07466 0.37533 -0.92388
vertex -0.14645 0.35355 -0.92388
vertex -0.10839 0.5449 -0.83147
endloop
endfacet
facet normal -0.0463566100347329 0.4708822456045099 -0.8809772843158568
outer loop
vertex -0.07466 0.37533 -0.92388
vertex -0.10839 0.5449 -0.83147
vertex 0 0.38268 -0.92388
endloop
endfacet
facet normal -0.028568173845525534 0.2901904570485619 -0.956542397429972
outer loop
vertex -0.07466 0.37533 -0.92388
vertex 0 0.38268 -0.92388
vertex 0 0.19509 -0.98079
endloop
endfacet
facet normal -0.028591193864012838 0.2901815569238219 -0.9565444096615154
outer loop
vertex -0.07466 0.37533 -0.92388
vertex 0 0.19509 -0.98079
vertex -0.03806 0.19134 -0.98079
endloop
endfacet
facet normal -0.137371864040365 0.4527797492184313 -0.8809764296891092
outer loop
vertex -0.21261 0.51328 -0.83147
vertex -0.10839 0.5449 -0.83147
vertex -0.14645 0.35355 -0.92388
endloop
endfacet
facet normal -0.2999073778127501 0.5610849949145827 -0.7715174613806113
outer loop
vertex -0.21261 0.51328 -0.83147
vertex -0.30866 0.46194 -0.83147
vertex -0.39285 0.58794 -0.70711
endloop
endfacet
facet normal -0.29989617313315237 0.5611005075838367 -0.7715105350734047
outer loop
vertex -0.21261 0.51328 -0.83147
vertex -0.39285 0.58794 -0.70711
vertex -0.2706 0.65328 -0.70711
endloop
endfacet
facet normal -0.18471157013659043 0.6088121391409044 -0.7715111244125723
outer loop
vertex -0.21261 0.51328 -0.83147
vertex -0.2706 0.65328 -0.70711
vertex -0.10839 0.5449 -0.83147
endloop
endfacet
facet normal -0.49180359735357276 0.40359556409500374 -0.7715178820175982
outer loop
vertex -0.39285 0.39285 -0.83147
vertex -0.46194 0.30866 -0.83147
vertex -0.58794 0.39285 -0.70711
endloop
endfacet
facet normal -0.4917962917629165 0.4036263732863357 -0.7715064213575699
outer loop
vertex -0.39285 0.39285 -0.83147
vertex -0.58794 0.39285 -0.70711
vertex -0.5 0.5 -0.70711
endloop
endfacet
facet normal -0.4036263732863357 0.4917962917629165 -0.7715064213575699
outer loop
vertex -0.39285 0.39285 -0.83147
vertex -0.5 0.5 -0.70711
vertex -0.39285 0.58794 -0.70711
endloop
endfacet
facet normal -0.40359556409500374 0.49180359735357276 -0.7715178820175982
outer loop
vertex -0.39285 0.39285 -0.83147
vertex -0.39285 0.58794 -0.70711
vertex -0.30866 0.46194 -0.83147
endloop
endfacet
facet normal -0.28888646160315395 0.9523780697072974 -0.09757368827205093
outer loop
vertex -0.19509 0.98079 0
vertex -0.19134 0.96194 -0.19509
vertex -0.37533 0.90613 -0.19509
endloop
endfacet
facet normal -0.28892477239513076 0.9523703752170546 -0.09753534900408516
outer loop
vertex -0.19509 0.98079 0
vertex -0.37533 0.90613 -0.19509
vertex -0.38268 0.92388 0
endloop
endfacet
facet normal -0.2902916095589552 0.9568758221255385 0.01092897301880715
outer loop
vertex -0.19509 0.98079 0
vertex -0.38268 0.92388 0
vertex 0 1 3.5
endloop
endfacet
facet normal -0.09799345637611764 0.9951870590534535 0
outer loop
vertex -0.19509 0.98079 0
vertex 0 1 3.5
vertex 0 1 0
endloop
endfacet
facet normal -0.09752631631837114 0.9904429490135905 -0.09752631631837114
outer loop
vertex -0.19509 0.98079 0
vertex 0 1 0
vertex 0 0.98079 -0.19509
endloop
endfacet
facet normal -0.09757329954021056 0.9904336941126715 -0.09757329954021056
outer loop
vertex -0.19509 0.98079 0
vertex 0 0.98079 -0.19509
vertex -0.19134 0.96194 -0.19509
endloop
endfacet
facet normal -0.6331426513229492 0.062327078970530865 -0.7715216901051761
outer loop
vertex -0.5449 0.10839 -0.83147
vertex -0.55557 0 -0.83147
vertex -0.70711 0 -0.70711
endloop
endfacet
facet normal -0.633160538992642 0.062375148422689375 -0.7715031255424663
outer loop
vertex -0.5449 0.10839 -0.83147
vertex -0.70711 0 -0.70711
vertex -0.69352 0.13795 -0.70711
endloop
endfacet
facet normal -0.6088306667362083 0.18469163987534903 -0.7715012750486536
outer loop
vertex -0.5449 0.10839 -0.83147
vertex -0.69352 0.13795 -0.70711
vertex -0.65328 0.2706 -0.70711
endloop
endfacet
facet normal -0.6088121391409044 0.18471157013659043 -0.7715111244125723
outer loop
vertex -0.5449 0.10839 -0.83147
vertex -0.65328 0.2706 -0.70711
vertex -0.51328 0.21261 -0.83147
endloop
endfacet
facet normal -0.29018155692382186 0.02859119386401296 -0.9565444096615154
outer loop
vertex -0.19134 0.03806 -0.98079
vertex -0.19509 0 -0.98079
vertex -0.37533 0.07466 -0.92388
endloop
endfacet
facet normal -0.2790351324556691 0.0846254090234406 -0.9565447898572563
outer loop
vertex -0.19134 0.03806 -0.98079
vertex -0.37533 0.07466 -0.92388
vertex -0.18024 0.07466 -0.98079
endloop
endfacet
facet normal -0.09422510974883282 0.02857646771071158 -0.9951407006981471
outer loop
vertex -0.19134 0.03806 -0.98079
vertex -0.18024 0.07466 -0.98079
vertex 0 0 -1
endloop
endfacet
facet normal -0.09798888911504601 0.009654711880752048 -0.9951406755572294
outer loop
vertex -0.19134 0.03806 -0.98079
vertex 0 0 -1
vertex -0.19509 0 -0.98079
endloop
endfacet
facet normal -0.452779204319123 -0.1373663611933488 -0.8809775677896914
outer loop
vertex -0.37533 -0.07466 -0.92388
vertex -0.35355 -0.14645 -0.92388
vertex -0.5449 -0.10839 -0.83147
endloop
endfacet
facet normal -0.2790344326908451 -0.08465482579755693 -0.9565423910324538
outer loop
vertex -0.37533 -0.07466 -0.92388
vertex -0.18024 -0.07466 -0.98079
vertex -0.35355 -0.14645 -0.92388
endloop
endfacet
facet normal -0.3657706353515686 0.30016739751086696 -0.8809718359777815
outer loop
vertex -0.31819 0.21261 -0.92388
vertex -0.46194 0.30866 -0.83147
vertex -0.39285 0.39285 -0.83147
endloop
endfacet
facet normal -0.4172975781645193 0.223051094877318 -0.8809715888336335
outer loop
vertex -0.31819 0.21261 -0.92388
vertex -0.51328 0.21261 -0.83147
vertex -0.46194 0.30866 -0.83147
endloop
endfacet
facet normal -0.9523703752170546 0.28892477239513076 0.09753534900408516
outer loop
vertex -0.92388 0.38268 0
vertex -0.98079 0.19509 0
vertex -0.90613 0.37533 0.19509
endloop
endfacet
facet normal -0.8777199545846665 0.46914281336785835 0.09753308151177219
outer loop
vertex -0.92388 0.38268 0
vertex -0.90613 0.37533 0.19509
vertex -0.83147 0.55557 0
endloop
endfacet
facet normal 0.02857646771071158 0.09422510974883282 -0.9951407006981471
outer loop
vertex 0.03806 0.19134 -0.98079
vertex 0.07466 0.18024 -0.98079
vertex 0 0 -1
endloop
endfacet
facet normal 0.009654711880752048 0.09798888911504601 -0.9951406755572294
outer loop
vertex 0.03806 0.19134 -0.98079
vertex 0 0 -1
vertex 0 0.19509 -0.98079
endloop
endfacet
facet normal 0.02859119386401296 0.29018155692382186 -0.9565444096615154
outer loop
vertex 0.03806 0.19134 -0.98079
vertex 0 0.19509 -0.98079
vertex 0.07466 0.37533 -0.92388
endloop
endfacet
facet normal 0.0846254090234406 0.2790351324556691 -0.9565447898572563
outer loop
vertex 0.03806 0.19134 -0.98079
vertex 0.07466 0.37533 -0.92388
vertex 0.07466 0.18024 -0.98079
endloop
endfacet
facet normal 0.0761116106167374 0.06246507691346583 -0.995140762352503
outer loop
vertex 0.13795 0.13795 -0.98079
vertex 0.16221 0.10839 -0.98079
vertex 0 0 -1
endloop
endfacet
facet normal 0.06246507691346583 0.0761116106167374 -0.995140762352503
outer loop
vertex 0.13795 0.13795 -0.98079
vertex 0 0 -1
vertex 0.10839 0.16221 -0.98079
endloop
endfacet
facet normal 0.18498376689781793 0.2253965436726915 -0.9565445123383951
outer loop
vertex 0.13795 0.13795 -0.98079
vertex 0.10839 0.16221 -0.98079
vertex 0.2706 0.2706 -0.92388
endloop
endfacet
facet normal 0.2253965436726915 0.18498376689781793 -0.9565445123383951
outer loop
vertex 0.13795 0.13795 -0.98079
vertex 0.2706 0.2706 -0.92388
vertex 0.16221 0.10839 -0.98079
endloop
endfacet
facet normal -0.09382287700531736 0.9527118507852597 -0.28902836733402176
outer loop
vertex 0 0.92388 -0.38268
vertex -0.18024 0.90613 -0.38268
vertex 0 0.98079 -0.19509
endloop
endfacet
facet normal 0.09382287700531736 0.9527118507852597 -0.28902836733402176
outer loop
vertex 0 0.92388 -0.38268
vertex 0 0.98079 -0.19509
vertex 0.18024 0.90613 -0.38268
endloop
endfacet
facet normal 0.08652604450727644 0.8786171415206461 -0.4696223613159981
outer loop
vertex 0 0.92388 -0.38268
vertex 0.18024 0.90613 -0.38268
vertex 0 0.83147 -0.55557
endloop
endfacet
facet normal -0.08652604450727644 0.8786171415206461 -0.4696223613159981
outer loop
vertex 0 0.92388 -0.38268
vertex 0 0.83147 -0.55557
vertex -0.18024 0.90613 -0.38268
endloop
endfacet
facet normal -0.02857646771071158 0.09422510974883282 -0.9951407006981471
outer loop
vertex -0.07466 0.18024 -0.98079
vertex -0.03806 0.19134 -0.98079
vertex 0 0 -1
endloop
endfacet
facet normal -0.04641679795410222 0.08683519661629872 -0.995140758634826
outer loop
vertex -0.07466 0.18024 -0.98079
vertex 0 0 -1
vertex -0.10839 0.16221 -0.98079
endloop
endfacet
facet normal -0.08465482579755694 0.27903443269084505 -0.9565423910324536
outer loop
vertex -0.07466 0.18024 -0.98079
vertex -0.14645 0.35355 -0.92388
vertex -0.07466 0.37533 -0.92388
endloop
endfacet
facet normal -0.0846254090234406 0.2790351324556691 -0.9565447898572563
outer loop
vertex -0.07466 0.18024 -0.98079
vertex -0.07466 0.37533 -0.92388
vertex -0.03806 0.19134 -0.98079
endloop
endfacet
facet normal -0.4708835561302232 0.04635416130555835 -0.8809767126864441
outer loop
vertex -0.38268 0 -0.92388
vertex -0.55557 0 -0.83147
vertex -0.5449 0.10839 -0.83147
endloop
endfacet
facet normal -0.4708822456045099 0.0463566100347329 -0.8809772843158568
outer loop
vertex -0.38268 0 -0.92388
vertex -0.5449 0.10839 -0.83147
vertex -0.37533 0.07466 -0.92388
endloop
endfacet
facet normal -0.2901904570485619 0.028568173845525534 -0.956542397429972
outer loop
vertex -0.38268 0 -0.92388
vertex -0.37533 0.07466 -0.92388
vertex -0.19509 0 -0.98079
endloop
endfacet
facet normal -0.2901904570485619 -0.028568173845525534 -0.956542397429972
outer loop
vertex -0.38268 0 -0.92388
vertex -0.19509 0 -0.98079
vertex -0.37533 -0.07466 -0.92388
endloop
endfacet
facet normal -0.4708822456045099 -0.0463566100347329 -0.8809772843158568
outer loop
vertex -0.38268 0 -0.92388
vertex -0.37533 -0.07466 -0.92388
vertex -0.5449 -0.10839 -0.83147
endloop
endfacet
facet normal -0.4708835561302232 -0.04635416130555835 -0.8809767126864441
outer loop
vertex -0.38268 0 -0.92388
vertex -0.5449 -0.10839 -0.83147
vertex -0.55557 0 -0.83147
endloop
endfacet
facet normal -0.2790351324556691 -0.0846254090234406 -0.9565447898572563
outer loop
vertex -0.19134 -0.03806 -0.98079
vertex -0.18024 -0.07466 -0.98079
vertex -0.37533 -0.07466 -0.92388
endloop
endfacet
facet normal -0.29018155692382186 -0.02859119386401296 -0.9565444096615154
outer loop
vertex -0.19134 -0.03806 -0.98079
vertex -0.37533 -0.07466 -0.92388
vertex -0.19509 0 -0.98079
endloop
endfacet
facet normal -0.09798888911504601 -0.009654711880752048 -0.9951406755572294
outer loop
vertex -0.19134 -0.03806 -0.98079
vertex -0.19509 0 -0.98079
vertex 0 0 -1
endloop
endfacet
facet normal -0.09422510974883282 -0.02857646771071158 -0.9951407006981471
outer loop
vertex -0.19134 -0.03806 -0.98079
vertex 0 0 -1
vertex -0.18024 -0.07466 -0.98079
endloop
endfacet
facet normal -0.452779204319123 0.1373663611933488 -0.8809775677896914
outer loop
vertex -0.35355 0.14645 -0.92388
vertex -0.37533 0.07466 -0.92388
vertex -0.5449 0.10839 -0.83147
endloop
endfacet
facet normal -0.4527797492184313 0.137371864040365 -0.8809764296891092
outer loop
vertex -0.35355 0.14645 -0.92388
vertex -0.5449 0.10839 -0.83147
vertex -0.51328 0.21261 -0.83147
endloop
endfacet
facet normal -0.41729957313107463 0.22303072711479444 -0.8809758004776685
outer loop
vertex -0.35355 0.14645 -0.92388
vertex -0.51328 0.21261 -0.83147
vertex -0.31819 0.21261 -0.92388
endloop
endfacet
facet normal -0.25716691586129925 0.13744592117375365 -0.9565426264098666
outer loop
vertex -0.35355 0.14645 -0.92388
vertex -0.31819 0.21261 -0.92388
vertex -0.18024 0.07466 -0.98079
endloop
endfacet
facet normal -0.2790344326908451 0.08465482579755693 -0.9565423910324538
outer loop
vertex -0.35355 0.14645 -0.92388
vertex -0.18024 0.07466 -0.98079
vertex -0.37533 0.07466 -0.92388
endloop
endfacet
facet normal -0.3657665975939995 0.3001695530177344 -0.8809727779708307
outer loop
vertex -0.2706 0.2706 -0.92388
vertex -0.31819 0.21261 -0.92388
vertex -0.39285 0.39285 -0.83147
endloop
endfacet
facet normal -0.8442835680012596 0.4512936404059331 -0.2889970708021499
outer loop
vertex -0.90613 0.37533 -0.19509
vertex -0.81549 0.5449 -0.19509
vertex -0.76818 0.51328 -0.38268
endloop
endfacet
facet normal -0.8442944768732635 0.45124534834201824 -0.28904060600717163
outer loop
vertex -0.90613 0.37533 -0.19509
vertex -0.76818 0.51328 -0.38268
vertex -0.85355 0.35355 -0.38268
endloop
endfacet
facet normal -0.9160849924800881 0.2779282724863136 -0.28904006972309243
outer loop
vertex -0.90613 0.37533 -0.19509
vertex -0.85355 0.35355 -0.38268
vertex -0.90613 0.18024 -0.38268
endloop
endfacet
facet normal -0.9161118355283159 0.2778857630351396 -0.2889958607096614
outer loop
vertex -0.90613 0.37533 -0.19509
vertex -0.90613 0.18024 -0.38268
vertex -0.96194 0.19134 -0.19509
endloop
endfacet
facet normal -0.9523780697072977 0.288886461603154 -0.09757368827205093
outer loop
vertex -0.90613 0.37533 -0.19509
vertex -0.96194 0.19134 -0.19509
vertex -0.98079 0.19509 0
endloop
endfacet
facet normal -0.9523703752170546 0.2889247723951308 -0.09753534900408518
outer loop
vertex -0.90613 0.37533 -0.19509
vertex -0.98079 0.19509 0
vertex -0.92388 0.38268 0
endloop
endfacet
facet normal -0.8777199545846665 0.46914281336785835 -0.09753308151177219
outer loop
vertex -0.90613 0.37533 -0.19509
vertex -0.92388 0.38268 0
vertex -0.83147 0.55557 0
endloop
endfacet
facet normal -0.8777084047413766 0.4691601686958677 -0.09755353584372385
outer loop
vertex -0.90613 0.37533 -0.19509
vertex -0.83147 0.55557 0
vertex -0.81549 0.5449 -0.19509
endloop
endfacet
facet normal -0.18497909487282366 0.22540318788978891 -0.956543850196713
outer loop
vertex -0.21261 0.31819 -0.92388
vertex -0.10839 0.16221 -0.98079
vertex -0.2706 0.2706 -0.92388
endloop
endfacet
facet normal -0.30016955301773446 0.36576659759399954 -0.8809727779708307
outer loop
vertex -0.21261 0.31819 -0.92388
vertex -0.2706 0.2706 -0.92388
vertex -0.39285 0.39285 -0.83147
endloop
endfacet
facet normal -0.30016739751086696 0.3657706353515686 -0.8809718359777815
outer loop
vertex -0.21261 0.31819 -0.92388
vertex -0.39285 0.39285 -0.83147
vertex -0.30866 0.46194 -0.83147
endloop
endfacet
facet normal -0.223051094877318 0.4172975781645193 -0.8809715888336335
outer loop
vertex -0.21261 0.31819 -0.92388
vertex -0.30866 0.46194 -0.83147
vertex -0.21261 0.51328 -0.83147
endloop
endfacet
facet normal -0.22303072711479444 0.41729957313107463 -0.8809758004776685
outer loop
vertex -0.21261 0.31819 -0.92388
vertex -0.21261 0.51328 -0.83147
vertex -0.14645 0.35355 -0.92388
endloop
endfacet
facet normal -0.13744592117375365 0.25716691586129925 -0.9565426264098666
outer loop
vertex -0.21261 0.31819 -0.92388
vertex -0.14645 0.35355 -0.92388
vertex -0.07466 0.18024 -0.98079
endloop
endfacet
facet normal -0.13745905048438384 0.25715439671870527 -0.9565441054589017
outer loop
vertex -0.21261 0.31819 -0.92388
vertex -0.07466 0.18024 -0.98079
vertex -0.10839 0.16221 -0.98079
endloop
endfacet
facet normal -0.25715439671870527 0.13745905048438367 -0.9565441054589017
outer loop
vertex -0.16221 0.10839 -0.98079
vertex -0.18024 0.07466 -0.98079
vertex -0.31819 0.21261 -0.92388
endloop
endfacet
facet normal -0.22540318788978886 0.18497909487282363 -0.9565438501967128
outer loop
vertex -0.16221 0.10839 -0.98079
vertex -0.31819 0.21261 -0.92388
vertex -0.2706 0.2706 -0.92388
endloop
endfacet
facet normal -0.08683519661629872 0.04641679795410222 -0.995140758634826
outer loop
vertex -0.16221 0.10839 -0.98079
vertex 0 0 -1
vertex -0.18024 0.07466 -0.98079
endloop
endfacet
facet normal -0.06246507691346583 0.0761116106167374 -0.995140762352503
outer loop
vertex -0.13795 0.13795 -0.98079
vertex -0.10839 0.16221 -0.98079
vertex 0 0 -1
endloop
endfacet
facet normal -0.0761116106167374 0.06246507691346583 -0.995140762352503
outer loop
vertex -0.13795 0.13795 -0.98079
vertex 0 0 -1
vertex -0.16221 0.10839 -0.98079
endloop
endfacet
facet normal -0.2253965436726915 0.18498376689781793 -0.9565445123383951
outer loop
vertex -0.13795 0.13795 -0.98079
vertex -0.16221 0.10839 -0.98079
vertex -0.2706 0.2706 -0.92388
endloop
endfacet
facet normal -0.18498376689781793 0.2253965436726915 -0.9565445123383951
outer loop
vertex -0.13795 0.13795 -0.98079
vertex -0.2706 0.2706 -0.92388
vertex -0.10839 0.16221 -0.98079
endloop
endfacet
endsolid JSxCAD
