<?xml version="1.0" encoding="UTF-8"?>
<!-- Generated by jsxcad -->
<!DOCTYPE svg PUBLIC "-//W3C//DTD SVG 1.1 Tiny//EN" "http://www.w3.org/Graphics/SVG/1.1/DTD/svg11-tiny.dtd">
<svg viewBox="-250 -250 500 500" width="500" height="500" xmlns="http://www.w3.org/2000/svg"><path d="M-21.583620626335136,159.68883673099384L57.42926060814341,135.41985357427242L55.853864617009386,25.14240004154385z" style="fill:rgb(160,159,246)"/><path d="M57.42926060814341,135.41985357427242L82.10915214404844,5.797845164815277L55.853864617009386,25.14240004154385z" style="fill:rgb(4,136,159)"/><path d="M-100.55603372430579,15.13080307274771L-71.17644606986535,148.45816174090248L55.853864617009386,25.14240004154385zM-21.583620626335136,159.68883673099384L54.1315429316651,138.17673975466334L57.42926060814341,135.41985357427242z" style="fill:rgb(160,159,246)"/><path d="M57.42926060814341,135.41985357427242L61.252146329114474,142.09744853808365L63.6469119124249,145.6637780538063z" style="fill:rgb(4,136,159)"/><path d="M-21.583620626335136,159.68883673099384L55.853864617009386,25.14240004154385L-71.17644606986535,148.45816174090248zM-21.583620626335136,159.68883673099384L31.015432022363395,150.41864793470995L54.1315429316651,138.17673975466334z" style="fill:rgb(160,159,246)"/><path d="M2.7626795538237203e-17,0.10413249425226043L-100.55603372430579,15.13080307274771L55.853864617009386,25.14240004154385z" style="fill:rgb(127,4,160)"/><path d="M57.42926060814341,135.41985357427242L63.6469119124249,145.6637780538063L67.96469642899605,148.6680406837666z" style="fill:rgb(4,136,159)"/><path d="M-21.583620626335136,159.68883673099384L5.441877839817915,157.73151491354994L31.015432022363395,150.41864793470995zM-100.55603372430579,15.13080307274771L-75.46686674254829,146.9842239970129L-71.17644606986535,148.45816174090248z" style="fill:rgb(160,159,246)"/><path d="M2.7626795538237203e-17,0.10413249425226043L55.853864617009386,25.14240004154385L82.10915214404844,5.797845164815277z" style="fill:rgb(127,4,160)"/><path d="M-100.55603372430579,15.13080307274771L-99.97510525127853,132.70403071922172L-75.46686674254829,146.9842239970129zM-100.55603372430579,15.13080307274771L-103.50737608152528,129.58934328373363L-99.97510525127853,132.70403071922172zM-21.583620626335136,159.68883673099384L-71.17644606986535,148.45816174090248L-48.94513536851383,156.08791398901366z" style="fill:rgb(160,159,246)"/><path d="M57.42926060814341,135.41985357427242L67.96469642899605,148.6680406837666L83.88208901501403,89.80461558239803zM57.42926060814341,135.41985357427242L83.88208901501403,89.80461558239803L82.10915214404844,5.797845164815277z" style="fill:rgb(4,136,159)"/><path d="M137.91669500712302,101.82186049121512L159.25291862256293,42.825071090186746L160.9356910874826,11.265482331112972zM137.91669500712302,101.82186049121512L151.54877286594734,73.38723443051481L159.25291862256293,42.825071090186746zM83.88208901501403,89.80461558239803L160.9356910874826,11.265482331112972L82.10915214404844,5.797845164815277zM137.91669500712302,101.82186049121512L160.9356910874826,11.265482331112972L83.88208901501403,89.80461558239803z" style="fill:rgb(160,159,246)"/><path d="M83.88208901501403,89.80461558239803L67.96469642899605,148.6680406837666L73.9518697448543,152.83174750055053z" style="fill:rgb(4,136,159)"/><path d="M85.73327958288186,177.51749207486174L-104.8363896034009,181.13381140579855L58.13753063592448,185.00303685013583zM2.7626795538237203e-17,0.10413249425226043L-85.6030630151684,-5.831859192440574L-100.55603372430579,15.13080307274771zM174.1169906698247,-12.088259027648427L160.9356910874826,11.265482331112972L171.37847320198486,3.011792557410404zM82.10915214404844,5.797845164815277L160.9356910874826,11.265482331112972L112.69351744313553,-16.73631258130374z" style="fill:rgb(127,4,160)"/><path d="M-89.54959270017315,172.9936724041588L-100.55603372430579,15.13080307274771L-104.8363896034009,181.13381140579855zM83.88208901501403,89.80461558239803L73.9518697448543,152.83174750055053L85.21116264204242,152.77708283025893z" style="fill:rgb(4,136,159)"/><path d="M137.91669500712302,101.82186049121512L94.33723500834368,147.83127718702596L118.66407745841653,126.99813322851524zM137.91669500712302,101.82186049121512L83.88208901501403,89.80461558239803L85.21116264204242,152.77708283025893z" style="fill:rgb(160,159,246)"/><path d="M-87.53186636637336,81.5662629104503L-85.6030630151684,-5.831859192440574L-100.55603372430579,15.13080307274771z" style="fill:rgb(4,136,159)"/><path d="M137.91669500712302,101.82186049121512L85.21116264204242,152.77708283025893L94.33723500834368,147.83127718702596z" style="fill:rgb(160,159,246)"/><path d="M83.88208901501403,89.80461558239803L112.69351744313553,-16.73631258130374L82.10915214404844,5.797845164815277z" style="fill:rgb(4,136,159)"/><path d="M85.73327958288186,177.51749207486174L5.838148170902088e-14,175.3057319902473L-104.8363896034009,181.13381140579855zM174.1169906698247,-12.088259027648427L171.37847320198486,3.011792557410404L175.76177606177907,-5.884362049191786z" style="fill:rgb(127,4,160)"/><path d="M-89.54959270017315,172.9936724041588L-87.53186636637336,81.5662629104503L-100.55603372430579,15.13080307274771z" style="fill:rgb(4,136,159)"/><path d="M174.1169906698247,-12.088259027648427L112.69351744313553,-16.73631258130374L160.9356910874826,11.265482331112972z" style="fill:rgb(127,4,160)"/><path d="M52.42215226428243,-166.9605917671331L48.02388591997079,-168.48231500935762L17.534899086301422,-174.8146758645075z" style="fill:rgb(153,249,151)"/><path d="M-173.14079577089905,30.000726005091447L-174.92970771032338,-12.027742364714742L-175.02543128533728,-2.865402985186887z" style="fill:rgb(2,120,150)"/><path d="M-133.38825369922327,-113.83705976653329L-140.8916152687841,-103.80768904571978L-158.3604136678643,-76.47281443857543z" style="fill:rgb(22,195,151)"/><path d="M172.71137292866422,-22.240840263422875L175.76177606177907,-5.884362049191786L171.49037283214446,-36.69509868252437z" style="fill:rgb(251,145,152)"/><path d="M112.69351744313553,-16.73631258130374L83.88208901501403,89.80461558239803L85.73327958288186,177.51749207486174z" style="fill:rgb(4,136,159)"/><path d="M-68.07063391356269,-30.41068963539648L2.7626795538237203e-17,0.10413249425226043L82.10915214404844,5.797845164815277z" style="fill:rgb(127,4,160)"/><path d="M170.0563838897495,-41.40024116245105L172.71137292866422,-22.240840263422875L171.49037283214446,-36.69509868252437z" style="fill:rgb(251,145,152)"/><path d="M52.42215226428243,-166.9605917671331L17.534899086301422,-174.8146758645075L42.460427065935704,-169.02788322195008z" style="fill:rgb(153,249,151)"/><path d="M4.199011512878822,-173.33559604196276L17.534899086301422,-174.8146758645075L-13.399283743782949,-175.39881700677128z" style="fill:rgb(132,251,157)"/><path d="M5.838148170902088e-14,175.3057319902473L-89.54959270017315,172.9936724041588L-104.8363896034009,181.13381140579855z" style="fill:rgb(127,4,160)"/><path d="M42.460427065935704,-169.02788322195008L17.534899086301422,-174.8146758645075L23.409785318321152,-172.98284540192273z" style="fill:rgb(153,249,151)"/><path d="M-173.14079577089905,30.000726005091447L-164.55178185168094,62.4256248367456L-163.89536762435645,56.62636147457727z" style="fill:rgb(6,96,155)"/><path d="M172.71137292866422,-22.240840263422875L174.1169906698247,-12.088259027648427L175.76177606177907,-5.884362049191786z" style="fill:rgb(251,145,152)"/><path d="M-90.91816086055454,147.26414680109218L-102.94654739863552,142.87861250483712L-95.12617608650069,147.42434438074028z" style="fill:rgb(66,20,159)"/><path d="M23.409785318321152,-172.98284540192273L17.534899086301422,-174.8146758645075L4.199011512878822,-173.33559604196276z" style="fill:rgb(132,251,157)"/><path d="M-84.08482272145427,-154.15857857074008L-110.74489307231097,-136.69459681268526L-98.06778291327537,-141.92437692927385z" style="fill:rgb(62,233,156)"/><path d="M-173.14079577089905,30.000726005091447L-172.94328864994404,22.510435841382908L-174.92970771032338,-12.027742364714742z" style="fill:rgb(2,120,150)"/><path d="M-164.55178185168094,62.4256248367456L-149.53373007241197,92.95527403507265L-148.0677200052267,88.77073242882358z" style="fill:rgb(16,74,159)"/><path d="M-5.994252052746902,-173.52311318232677L-13.399283743782949,-175.39881700677128L-43.71507099822682,-170.06479814177032z" style="fill:rgb(111,248,163)"/><path d="M-128.69085959544608,120.1879748697581L-148.0677200052267,88.77073242882358L-149.53373007241197,92.95527403507265z" style="fill:rgb(29,53,161)"/><path d="M-133.38825369922327,-113.83705976653329L-158.3604136678643,-76.47281443857543L-150.97520823154815,-86.29894799888689z" style="fill:rgb(22,195,151)"/><path d="M52.42215226428243,-166.9605917671331L42.460427065935704,-169.02788322195008L54.57494180481229,-166.21612287187904z" style="fill:rgb(153,249,151)"/><path d="M-128.69085959544608,120.1879748697581L-102.94654739863552,142.87861250483712L-98.97858615736659,141.3714235644368z" style="fill:rgb(46,35,161)"/><path d="M-158.3604136678643,-76.47281443857543L-169.93362787860445,-45.48199644315287L-162.6040287309192,-55.0484030368821z" style="fill:rgb(13,174,159)"/><path d="M4.199011512878822,-173.33559604196276L-13.399283743782949,-175.39881700677128L-5.994252052746902,-173.52311318232677z" style="fill:rgb(132,251,157)"/><path d="M-173.14079577089905,30.000726005091447L-163.89536762435645,56.62636147457727L-172.94328864994404,22.510435841382908z" style="fill:rgb(6,96,155)"/><path d="M-84.08482272145427,-154.15857857074008L-98.06778291327537,-141.92437692927385L-72.30813993110483,-158.83380810723725z" style="fill:rgb(62,233,156)"/><path d="M2.7626795538237203e-17,0.10413249425226043L-68.07063391356269,-30.41068963539648L-85.6030630151684,-5.831859192440574z" style="fill:rgb(127,4,160)"/><path d="M170.0563838897495,-41.40024116245105L173.3120047180055,-15.121730184140432L172.71137292866422,-22.240840263422875z" style="fill:rgb(251,145,152)"/><path d="M42.460427065935704,-169.02788322195008L23.409785318321152,-172.98284540192273L26.282883553493512,-172.08631264192266z" style="fill:rgb(153,249,151)"/><path d="M118.09730948570818,168.73852995386736L85.73327958288186,177.51749207486174L167.89085502692532,179.63696078485643z" style="fill:rgb(127,4,160)"/><path d="M42.460427065935704,-169.02788322195008L26.282883553493512,-172.08631264192266L54.57494180481229,-166.21612287187904z" style="fill:rgb(153,249,151)"/><path d="M170.0563838897495,-41.40024116245105L169.35663517187058,-43.70314740803369L173.3120047180055,-15.121730184140432zM172.71137292866422,-22.240840263422875L173.3120047180055,-15.121730184140432L174.1169906698247,-12.088259027648427z" style="fill:rgb(251,145,152)"/><path d="M-90.91816086055454,147.26414680109218L-98.97858615736659,141.3714235644368L-102.94654739863552,142.87861250483712z" style="fill:rgb(66,20,159)"/><path d="M-162.6040287309192,-55.0484030368821L-169.93362787860445,-45.48199644315287L-174.92970771032338,-12.027742364714742z" style="fill:rgb(8,151,167)"/><path d="M26.282883553493512,-172.08631264192266L23.409785318321152,-172.98284540192273L4.199011512878822,-173.33559604196276z" style="fill:rgb(132,251,157)"/><path d="M-158.3604136678643,-76.47281443857543L-162.6040287309192,-55.0484030368821L-150.97520823154815,-86.29894799888689z" style="fill:rgb(13,174,159)"/><path d="M-5.994252052746902,-173.52311318232677L-43.71507099822682,-170.06479814177032L-15.857999092700792,-171.77805691027515z" style="fill:rgb(111,248,163)"/><path d="M-164.55178185168094,62.4256248367456L-148.0677200052267,88.77073242882358L-163.89536762435645,56.62636147457727z" style="fill:rgb(16,74,159)"/><path d="M-119.90554568779244,-119.79395518248766L-110.74489307231097,-136.69459681268526L-133.38825369922327,-113.83705976653329z" style="fill:rgb(45,217,165)"/><path d="M123.95615950085576,-116.45725221308258L128.20066984120768,-120.11844566227454L106.36369351593844,-139.74486001028615z" style="fill:rgb(208,217,167)"/><path d="M-68.07063391356269,-30.41068963539648L82.10915214404844,5.797845164815277L112.69351744313553,-16.73631258130374z" style="fill:rgb(127,4,160)"/><path d="M139.909767271482,-96.19422558766695L146.3638315440711,-97.06176799802199L128.20066984120768,-120.11844566227454z" style="fill:rgb(222,203,167)"/><path d="M-15.857999092700792,-171.77805691027515L-43.71507099822682,-170.06479814177032L-34.77512617631802,-168.43152539389163z" style="fill:rgb(111,248,163)"/><path d="M81.55824589940227,-155.29294569776692L104.76556102046185,-133.69933446161969L106.36369351593844,-139.74486001028615z" style="fill:rgb(193,228,168)"/><path d="M139.909767271482,-96.19422558766695L160.2471296482129,-71.31501249804461L146.3638315440711,-97.06176799802199z" style="fill:rgb(232,186,168)"/><path d="M-128.69085959544608,120.1879748697581L-126.10228152391551,117.46246563345396L-148.0677200052267,88.77073242882358z" style="fill:rgb(29,53,161)"/><path d="M-128.69085959544608,120.1879748697581L-98.97858615736659,141.3714235644368L-126.10228152391551,117.46246563345396z" style="fill:rgb(46,35,161)"/><path d="M-72.30813993110483,-158.83380810723725L-52.46988863978899,-161.44545540245974L-43.71507099822682,-170.06479814177032z" style="fill:rgb(91,241,170)"/><path d="M4.199011512878822,-173.33559604196276L-5.994252052746902,-173.52311318232677L-2.374748038185064,-172.6058238646943zM26.282883553493512,-172.08631264192266L4.199011512878822,-173.33559604196276L-2.374748038185064,-172.6058238646943z" style="fill:rgb(132,251,157)"/><path d="M-5.994252052746902,-173.52311318232677L-15.857999092700792,-171.77805691027515L-2.374748038185064,-172.6058238646943z" style="fill:rgb(111,248,163)"/><path d="M-119.90554568779244,-119.79395518248766L-98.06778291327537,-141.92437692927385L-110.74489307231097,-136.69459681268526z" style="fill:rgb(45,217,165)"/><path d="M-52.46988863978899,-161.44545540245974L-34.77512617631802,-168.43152539389163L-43.71507099822682,-170.06479814177032z" style="fill:rgb(91,241,170)"/><path d="M81.55824589940227,-155.29294569776692L54.57494180481229,-166.21612287187904L59.29244573704283,-156.89541787453172z" style="fill:rgb(176,237,171)"/><path d="M160.2471296482129,-71.31501249804461L160.04459223391572,-49.35413189344922L169.35663517187058,-43.70314740803369z" style="fill:rgb(239,169,171)"/><path d="M-119.90554568779244,-119.79395518248766L-133.38825369922327,-113.83705976653329L-150.97520823154815,-86.29894799888689z" style="fill:rgb(33,199,173)"/><path d="M-87.53186636637336,81.5662629104503L-68.07063391356269,-30.41068963539648L-85.6030630151684,-5.831859192440574z" style="fill:rgb(4,136,159)"/><path d="M-88.98011266821949,147.18957975475644L-98.97858615736659,141.3714235644368L-90.91816086055454,147.26414680109218z" style="fill:rgb(66,20,159)"/><path d="M85.73327958288186,177.51749207486174L118.09730948570818,168.73852995386736L5.838148170902088e-14,175.3057319902473z" style="fill:rgb(127,4,160)"/><path d="M-165.5186543396399,13.593601599019538L-174.92970771032338,-12.027742364714742L-172.94328864994404,22.510435841382908z" style="fill:rgb(8,127,173)"/><path d="M160.04459223391572,-49.35413189344922L173.3120047180055,-15.121730184140432L169.35663517187058,-43.70314740803369z" style="fill:rgb(243,150,175)"/><path d="M-61.87922825734245,-157.73039277577342L-72.30813993110483,-158.83380810723725L-98.06778291327537,-141.92437692927385z" style="fill:rgb(74,231,178)"/><path d="M139.909767271482,-96.19422558766695L128.20066984120768,-120.11844566227454L123.95615950085576,-116.45725221308258z" style="fill:rgb(222,203,167)"/><path d="M123.95615950085576,-116.45725221308258L106.36369351593844,-139.74486001028615L104.76556102046185,-133.69933446161969z" style="fill:rgb(208,217,167)"/><path d="M163.4602075918106,-24.32156395126281L174.1169906698247,-12.088259027648427L173.3120047180055,-15.121730184140432z" style="fill:rgb(127,4,160)"/><path d="M-15.857999092700792,-171.77805691027515L-34.77512617631802,-168.43152539389163L-30.408641503882688,-167.63235559734443z" style="fill:rgb(111,248,163)"/><path d="M34.50309484257942,-161.99311620325076L54.57494180481229,-166.21612287187904L26.282883553493512,-172.08631264192266z" style="fill:rgb(157,241,174)"/><path d="M-162.6040287309192,-55.0484030368821L-174.92970771032338,-12.027742364714742L-167.588026631839,-21.285590358534897z" style="fill:rgb(8,151,167)"/><path d="M-15.857999092700792,-171.77805691027515L-30.408641503882688,-167.63235559734443L-2.374748038185064,-172.6058238646943z" style="fill:rgb(111,248,163)"/><path d="M-72.30813993110483,-158.83380810723725L-61.87922825734245,-157.73039277577342L-52.46988863978899,-161.44545540245974z" style="fill:rgb(91,241,170)"/><path d="M81.55824589940227,-155.29294569776692L82.97447896634003,-147.33945648903995L104.76556102046185,-133.69933446161969z" style="fill:rgb(193,228,168)"/><path d="M163.4602075918106,-24.32156395126281L112.69351744313553,-16.73631258130374L174.1169906698247,-12.088259027648427z" style="fill:rgb(127,4,160)"/><path d="M139.909767271482,-96.19422558766695L152.0849540673627,-73.57961868588288L160.2471296482129,-71.31501249804461z" style="fill:rgb(232,186,168)"/><path d="M112.69351744313553,-16.73631258130374L85.73327958288186,177.51749207486174L118.09730948570818,168.73852995386736z" style="fill:rgb(4,136,159)"/><path d="M81.55824589940227,-155.29294569776692L59.29244573704283,-156.89541787453172L82.97447896634003,-147.33945648903995z" style="fill:rgb(176,237,171)"/><path d="M118.09730948570818,168.73852995386736L167.89085502692532,179.63696078485643L206.46004666730556,171.2355961481218z" style="fill:rgb(127,4,160)"/><path d="M-52.46988863978899,-161.44545540245974L-30.408641503882688,-167.63235559734443L-34.77512617631802,-168.43152539389163z" style="fill:rgb(91,241,170)"/><path d="M160.2471296482129,-71.31501249804461L152.0849540673627,-73.57961868588288L160.04459223391572,-49.35413189344922z" style="fill:rgb(239,169,171)"/><path d="M34.50309484257942,-161.99311620325076L26.282883553493512,-172.08631264192266L-2.374748038185064,-172.6058238646943z" style="fill:rgb(139,243,179)"/><path d="M-156.31602554518977,48.068261863881915L-172.94328864994404,22.510435841382908L-163.89536762435645,56.62636147457727z" style="fill:rgb(13,103,178)"/><path d="M-165.5186543396399,13.593601599019538L-167.588026631839,-21.285590358534897L-174.92970771032338,-12.027742364714742z" style="fill:rgb(8,127,173)"/><path d="M-61.87922825734245,-157.73039277577342L-98.06778291327537,-141.92437692927385L-70.22456365632176,-152.222699515073z" style="fill:rgb(74,231,178)"/><path d="M-84.15112519683639,141.0804533572528L-98.97858615736659,141.3714235644368L-88.98011266821949,147.18957975475644z" style="fill:rgb(72,26,183)"/><path d="M-156.31602554518977,48.068261863881915L-163.89536762435645,56.62636147457727L-148.0677200052267,88.77073242882358z" style="fill:rgb(22,80,182)"/><path d="M34.50309484257942,-161.99311620325076L59.29244573704283,-156.89541787453172L54.57494180481229,-166.21612287187904z" style="fill:rgb(157,241,174)"/><path d="M-119.90554568779244,-119.79395518248766L-150.97520823154815,-86.29894799888689L-136.81970659905315,-93.13402001566128z" style="fill:rgb(33,199,173)"/><path d="M-147.9537993029692,-62.886927961344625L-150.97520823154815,-86.29894799888689L-162.6040287309192,-55.0484030368821z" style="fill:rgb(24,178,181)"/><path d="M-70.22456365632176,-152.222699515073L-98.06778291327537,-141.92437692927385L-86.25106018827165,-141.6447980705732z" style="fill:rgb(74,231,178)"/><path d="M-52.46988863978899,-161.44545540245974L-56.789398912423714,-157.19204375531493L-30.408641503882688,-167.63235559734443zM-61.87922825734245,-157.73039277577342L-56.789398912423714,-157.19204375531493L-52.46988863978899,-161.44545540245974z" style="fill:rgb(91,241,170)"/><path d="M-140.26491016796646,80.57271134981586L-148.0677200052267,88.77073242882358L-126.10228152391551,117.46246563345396z" style="fill:rgb(35,59,184)"/><path d="M160.04459223391572,-49.35413189344922L163.4602075918106,-24.32156395126281L173.3120047180055,-15.121730184140432z" style="fill:rgb(243,150,175)"/><path d="M-98.97858615736659,141.3714235644368L-118.02226518284911,109.60150568079864L-126.10228152391551,117.46246563345396z" style="fill:rgb(52,41,184)"/><path d="M-99.70801787164434,-127.92038833532693L-98.06778291327537,-141.92437692927385L-119.90554568779244,-119.79395518248766z" style="fill:rgb(58,217,186)"/><path d="M-61.87922825734245,-157.73039277577342L-70.22456365632176,-152.222699515073L-56.789398912423714,-157.19204375531493z" style="fill:rgb(74,231,178)"/><path d="M-156.31602554518977,48.068261863881915L-165.5186543396399,13.593601599019538L-172.94328864994404,22.510435841382908z" style="fill:rgb(13,103,178)"/><path d="M-2.374748038185064,-172.6058238646943L-30.408641503882688,-167.63235559734443L-14.994787051548707,-157.94199519518725z" style="fill:rgb(120,240,185)"/><path d="M-86.25106018827165,-141.6447980705732L-98.06778291327537,-141.92437692927385L-99.70801787164434,-127.92038833532693z" style="fill:rgb(58,217,186)"/><path d="M-147.9537993029692,-62.886927961344625L-136.81970659905315,-93.13402001566128L-150.97520823154815,-86.29894799888689z" style="fill:rgb(24,178,181)"/><path d="M-147.9537993029692,-62.886927961344625L-162.6040287309192,-55.0484030368821L-167.588026631839,-21.285590358534897z" style="fill:rgb(19,156,189)"/><path d="M34.50309484257942,-161.99311620325076L-2.374748038185064,-172.6058238646943L9.446302466942281,-162.37948870492704z" style="fill:rgb(139,243,179)"/><path d="M-84.15112519683639,141.0804533572528L-90.57548987972426,133.81071928489806L-98.97858615736659,141.3714235644368z" style="fill:rgb(72,26,183)"/><path d="M-156.31602554518977,48.068261863881915L-148.0677200052267,88.77073242882358L-140.26491016796646,80.57271134981586z" style="fill:rgb(22,80,182)"/><path d="M-70.22456365632176,-152.222699515073L-80.48915551027545,-141.5086539242985L-56.789398912423714,-157.19204375531493z" style="fill:rgb(74,231,178)"/><path d="M139.909767271482,-96.19422558766695L123.95615950085576,-116.45725221308258L114.16190483499253,-107.5977015212327z" style="fill:rgb(213,197,190)"/><path d="M-70.22456365632176,-152.222699515073L-86.25106018827165,-141.6447980705732L-80.48915551027545,-141.5086539242985z" style="fill:rgb(74,231,178)"/><path d="M98.60771628250185,-121.56404668767925L123.95615950085576,-116.45725221308258L104.76556102046185,-133.69933446161969z" style="fill:rgb(202,209,190)"/><path d="M-14.994787051548707,-157.94199519518725L-30.408641503882688,-167.63235559734443L-56.789398912423714,-157.19204375531493z" style="fill:rgb(103,234,191)"/><path d="M98.60771628250185,-121.56404668767925L104.76556102046185,-133.69933446161969L82.97447896634003,-147.33945648903995z" style="fill:rgb(189,218,191)"/><path d="M-106.86823672332102,-120.6151804700751L-119.90554568779244,-119.79395518248766L-136.81970659905315,-93.13402001566128z" style="fill:rgb(47,200,194)"/><path d="M-98.97858615736659,141.3714235644368L-90.57548987972426,133.81071928489806L-118.02226518284911,109.60150568079864z" style="fill:rgb(52,41,184)"/><path d="M-2.374748038185064,-172.6058238646943L-14.994787051548707,-157.94199519518725L9.446302466942281,-162.37948870492704z" style="fill:rgb(120,240,185)"/><path d="M-140.26491016796646,80.57271134981586L-126.10228152391551,117.46246563345396L-118.02226518284911,109.60150568079864z" style="fill:rgb(35,59,184)"/><path d="M139.909767271482,-96.19422558766695L136.9127127758694,-72.84961147372039L152.0849540673627,-73.57961868588288z" style="fill:rgb(222,184,191)"/><path d="M-99.70801787164434,-127.92038833532693L-119.90554568779244,-119.79395518248766L-106.86823672332102,-120.6151804700751z" style="fill:rgb(58,217,186)"/><path d="M59.29244573704283,-156.89541787453172L80.94555008465636,-132.58913334335278L82.97447896634003,-147.33945648903995z" style="fill:rgb(175,225,193)"/><path d="M-80.48915551027545,-141.5086539242985L-86.25106018827165,-141.6447980705732L-99.70801787164434,-127.92038833532693z" style="fill:rgb(58,217,186)"/><path d="M-152.64888760745842,-30.2120713266154L-167.588026631839,-21.285590358534897L-165.5186543396399,13.593601599019538z" style="fill:rgb(19,133,195)"/><path d="M143.2995708131518,-53.244049680384514L160.04459223391572,-49.35413189344922L152.0849540673627,-73.57961868588288z" style="fill:rgb(227,169,193)"/><path d="M-89.54959270017315,172.9936724041588L-71.49316248218496,163.37871501088094L-87.53186636637336,81.5662629104503z" style="fill:rgb(4,136,159)"/><path d="M5.838148170902088e-14,175.3057319902473L-71.49316248218496,163.37871501088094L-89.54959270017315,172.9936724041588z" style="fill:rgb(127,4,160)"/><path d="M-82.24478779498357,138.66911466669885L-90.57548987972426,133.81071928489806L-84.15112519683639,141.0804533572528z" style="fill:rgb(72,26,183)"/><path d="M34.50309484257942,-161.99311620325076L61.7736122487239,-140.2744648349246L59.29244573704283,-156.89541787453172z" style="fill:rgb(160,229,196)"/><path d="M-106.86823672332102,-120.6151804700751L-136.81970659905315,-93.13402001566128L-112.32025455162979,-111.950941136405z" style="fill:rgb(47,200,194)"/><path d="M143.2995708131518,-53.244049680384514L163.4602075918106,-24.32156395126281L160.04459223391572,-49.35413189344922z" style="fill:rgb(230,154,197)"/><path d="M-147.9537993029692,-62.886927961344625L-167.588026631839,-21.285590358534897L-152.64888760745842,-30.2120713266154z" style="fill:rgb(19,156,189)"/><path d="M98.60771628250185,-121.56404668767925L114.16190483499253,-107.5977015212327L123.95615950085576,-116.45725221308258z" style="fill:rgb(202,209,190)"/><path d="M139.909767271482,-96.19422558766695L114.16190483499253,-107.5977015212327L127.08065226741816,-91.17335672059865z" style="fill:rgb(213,197,190)"/><path d="M-80.48915551027545,-141.5086539242985L-99.70801787164434,-127.92038833532693L-100.51589838796589,-121.01600422572078z" style="fill:rgb(58,217,186)"/><path d="M139.909767271482,-96.19422558766695L127.08065226741816,-91.17335672059865L136.9127127758694,-72.84961147372039z" style="fill:rgb(222,184,191)"/><path d="M-99.70801787164434,-127.92038833532693L-106.86823672332102,-120.6151804700751L-100.51589838796589,-121.01600422572078z" style="fill:rgb(58,217,186)"/><path d="M98.60771628250185,-121.56404668767925L82.97447896634003,-147.33945648903995L80.94555008465636,-132.58913334335278z" style="fill:rgb(189,218,191)"/><path d="M-122.78956272682724,-95.31090650883714L-136.81970659905315,-93.13402001566128L-147.9537993029692,-62.886927961344625z" style="fill:rgb(38,181,201)"/><path d="M-112.32025455162979,-111.950941136405L-136.81970659905315,-93.13402001566128L-122.78956272682724,-95.31090650883714z" style="fill:rgb(47,200,194)"/><path d="M-156.31602554518977,48.068261863881915L-150.52546318819088,3.5423983829629617L-165.5186543396399,13.593601599019538z" style="fill:rgb(24,110,200)"/><path d="M-14.994787051548707,-157.94199519518725L-56.789398912423714,-157.19204375531493L-37.923065272791916,-148.73111952115704z" style="fill:rgb(103,234,191)"/><path d="M-58.439785947280626,-134.95908126115495L-56.789398912423714,-157.19204375531493L-80.48915551027545,-141.5086539242985z" style="fill:rgb(87,225,198)"/><path d="M143.2995708131518,-53.244049680384514L152.0849540673627,-73.57961868588288L136.9127127758694,-72.84961147372039z" style="fill:rgb(227,169,193)"/><path d="M-106.86823672332102,-120.6151804700751L-112.32025455162979,-111.950941136405L-100.51589838796589,-121.01600422572078z" style="fill:rgb(47,200,194)"/><path d="M59.29244573704283,-156.89541787453172L61.7736122487239,-140.2744648349246L80.94555008465636,-132.58913334335278z" style="fill:rgb(175,225,193)"/><path d="M34.50309484257942,-161.99311620325076L9.446302466942281,-162.37948870492704L21.557094790350693,-144.5318665962129z" style="fill:rgb(145,230,200)"/><path d="M-152.64888760745842,-30.2120713266154L-165.5186543396399,13.593601599019538L-150.52546318819088,3.5423983829629617z" style="fill:rgb(19,133,195)"/><path d="M-122.78956272682724,-95.31090650883714L-147.9537993029692,-62.886927961344625L-126.3597977783604,-85.48591926394262z" style="fill:rgb(38,181,201)"/><path d="M-125.89829615004119,68.37540653766433L-156.31602554518977,48.068261863881915L-140.26491016796646,80.57271134981586z" style="fill:rgb(33,88,203)"/><path d="M34.50309484257942,-161.99311620325076L41.745378760901666,-144.3189663989715L61.7736122487239,-140.2744648349246z" style="fill:rgb(160,229,196)"/><path d="M-58.439785947280626,-134.95908126115495L-37.923065272791916,-148.73111952115704L-56.789398912423714,-157.19204375531493z" style="fill:rgb(87,225,198)"/><path d="M-90.57548987972426,133.81071928489806L-82.24478779498357,138.66911466669885L-75.88377277654477,123.16554754855011z" style="fill:rgb(81,36,204)"/><path d="M-87.53186636637336,81.5662629104503L-71.49316248218496,163.37871501088094L-68.07063391356269,-30.41068963539648z" style="fill:rgb(4,136,159)"/><path d="M143.2995708131518,-53.244049680384514L145.97981210776464,-33.02985345129862L163.4602075918106,-24.32156395126281z" style="fill:rgb(230,154,197)"/><path d="M21.557094790350693,-144.5318665962129L9.446302466942281,-162.37948870492704L-14.994787051548707,-157.94199519518725z" style="fill:rgb(130,228,205)"/><path d="M-100.51589838796589,-121.01600422572078L-58.439785947280626,-134.95908126115495L-80.48915551027545,-141.5086539242985z" style="fill:rgb(74,213,205)"/><path d="M5.838148170902088e-14,175.3057319902473L118.09730948570818,168.73852995386736L-71.49316248218496,163.37871501088094z" style="fill:rgb(127,4,160)"/><path d="M-112.32025455162979,-111.950941136405L-115.95864521426226,-96.37138761611129L-100.51589838796589,-121.01600422572078z" style="fill:rgb(47,200,194)"/><path d="M-125.89829615004119,68.37540653766433L-140.26491016796646,80.57271134981586L-118.02226518284911,109.60150568079864z" style="fill:rgb(45,68,205)"/><path d="M-112.32025455162979,-111.950941136405L-122.78956272682724,-95.31090650883714L-115.95864521426226,-96.37138761611129z" style="fill:rgb(47,200,194)"/><path d="M-77.71910639131463,119.98165206911396L-118.02226518284911,109.60150568079864L-90.57548987972426,133.81071928489806z" style="fill:rgb(62,50,205)"/><path d="M-126.3597977783604,-85.48591926394262L-147.9537993029692,-62.886927961344625L-133.21403034288124,-66.62708560644826z" style="fill:rgb(38,181,201)"/><path d="M34.50309484257942,-161.99311620325076L21.557094790350693,-144.5318665962129L41.745378760901666,-144.3189663989715z" style="fill:rgb(145,230,200)"/><path d="M112.69351744313553,-16.73631258130374L53.190235122484715,-51.27350055296981L24.353085596853266,-23.419055408216778z" style="fill:rgb(127,4,160)"/><path d="M-136.03715968112252,-46.406282116308276L-147.9537993029692,-62.886927961344625L-152.64888760745842,-30.2120713266154z" style="fill:rgb(34,160,208)"/><path d="M163.4602075918106,-24.32156395126281L53.190235122484715,-51.27350055296981L112.69351744313553,-16.73631258130374z" style="fill:rgb(127,4,160)"/><path d="M-156.31602554518977,48.068261863881915L-141.51219889167115,36.90721353505793L-150.52546318819088,3.5423983829629617z" style="fill:rgb(24,110,200)"/><path d="M-122.78956272682724,-95.31090650883714L-126.3597977783604,-85.48591926394262L-115.95864521426226,-96.37138761611129z" style="fill:rgb(38,181,201)"/><path d="M-71.49316248218496,163.37871501088094L112.69351744313553,-16.73631258130374L-68.07063391356269,-30.41068963539648zM112.69351744313553,-16.73631258130374L-71.49316248218496,163.37871501088094L118.09730948570818,168.73852995386736z" style="fill:rgb(160,159,246)"/><path d="M-133.21403034288124,-66.62708560644826L-147.9537993029692,-62.886927961344625L-136.03715968112252,-46.406282116308276z" style="fill:rgb(34,160,208)"/><path d="M-125.89829615004119,68.37540653766433L-141.51219889167115,36.90721353505793L-156.31602554518977,48.068261863881915z" style="fill:rgb(33,88,203)"/><path d="M1.9318728960369302,-140.84012131655837L-14.994787051548707,-157.94199519518725L-37.923065272791916,-148.73111952115704z" style="fill:rgb(116,223,210)"/><path d="M98.60771628250185,-121.56404668767925L98.78868432794513,-93.49740334142889L114.16190483499253,-107.5977015212327z" style="fill:rgb(193,198,210)"/><path d="M-90.57548987972426,133.81071928489806L-75.88377277654477,123.16554754855011L-77.71910639131463,119.98165206911396z" style="fill:rgb(81,36,204)"/><path d="M107.925977025198,-81.86091432404167L127.08065226741816,-91.17335672059865L114.16190483499253,-107.5977015212327z" style="fill:rgb(201,189,210)"/><path d="M163.4602075918106,-24.32156395126281L145.97981210776464,-33.02985345129862L121.12213322787659,-40.749418475267774z" style="fill:rgb(127,4,160)"/><path d="M-137.536187867715,-35.667180501655494L-152.64888760745842,-30.2120713266154L-150.52546318819088,3.5423983829629617z" style="fill:rgb(34,139,214)"/><path d="M107.925977025198,-81.86091432404167L136.9127127758694,-72.84961147372039L127.08065226741816,-91.17335672059865z" style="fill:rgb(207,179,211)"/><path d="M98.60771628250185,-121.56404668767925L80.94555008465636,-132.58913334335278L75.25313608391207,-111.15708710055632z" style="fill:rgb(184,205,211)"/><path d="M-126.3597977783604,-85.48591926394262L-126.04236288884793,-68.44587606492861L-115.95864521426226,-96.37138761611129z" style="fill:rgb(38,181,201)"/><path d="M-125.89829615004119,68.37540653766433L-118.02226518284911,109.60150568079864L-104.31483623183975,96.49898193749421z" style="fill:rgb(45,68,205)"/><path d="M-77.71910639131463,119.98165206911396L-104.31483623183975,96.49898193749421L-118.02226518284911,109.60150568079864z" style="fill:rgb(62,50,205)"/><path d="M-126.3597977783604,-85.48591926394262L-133.21403034288124,-66.62708560644826L-126.04236288884793,-68.44587606492861z" style="fill:rgb(38,181,201)"/><path d="M21.557094790350693,-144.5318665962129L-14.994787051548707,-157.94199519518725L1.9318728960369302,-140.84012131655837z" style="fill:rgb(130,228,205)"/><path d="M61.7736122487239,-140.2744648349246L75.25313608391207,-111.15708710055632L80.94555008465636,-132.58913334335278z" style="fill:rgb(173,210,212)"/><path d="M-100.51589838796589,-121.01600422572078L-75.69307354128772,-117.03143369741049L-58.439785947280626,-134.95908126115495z" style="fill:rgb(74,213,205)"/><path d="M-136.03715968112252,-46.406282116308276L-152.64888760745842,-30.2120713266154L-137.536187867715,-35.667180501655494z" style="fill:rgb(34,160,208)"/><path d="M119.31083086704935,-55.012133127051875L143.2995708131518,-53.244049680384514L136.9127127758694,-72.84961147372039z" style="fill:rgb(212,168,213)"/><path d="M-100.51589838796589,-121.01600422572078L-115.95864521426226,-96.37138761611129L-88.91204111149572,-95.53768720082243z" style="fill:rgb(64,198,212)"/><path d="M-126.04236288884793,-68.44587606492861L-133.21403034288124,-66.62708560644826L-136.03715968112252,-46.406282116308276z" style="fill:rgb(34,160,208)"/><path d="M119.31083086704935,-55.012133127051875L145.97981210776464,-33.02985345129862L143.2995708131518,-53.244049680384514z" style="fill:rgb(214,157,215)"/><path d="M47.54561687318037,-119.3186391459734L61.7736122487239,-140.2744648349246L41.745378760901666,-144.3189663989715z" style="fill:rgb(162,213,215)"/><path d="M-137.536187867715,-35.667180501655494L-150.52546318819088,3.5423983829629617L-136.8065384330428,-24.698934900923675z" style="fill:rgb(34,139,214)"/><path d="M-135.4095728869406,-3.7030537194653097L-150.52546318819088,3.5423983829629617L-141.51219889167115,36.90721353505793z" style="fill:rgb(38,118,218)"/><path d="M24.936483798836488,69.0807457563366L53.190235122484715,-51.27350055296981L24.353085596853266,-23.419055408216778z" style="fill:rgb(4,136,159)"/><path d="M107.925977025198,-81.86091432404167L114.16190483499253,-107.5977015212327L98.78868432794513,-93.49740334142889z" style="fill:rgb(201,189,210)"/><path d="M98.60771628250185,-121.56404668767925L87.76763803764166,-103.38142789859192L98.78868432794513,-93.49740334142889z" style="fill:rgb(193,198,210)"/><path d="M-100.51589838796589,-121.01600422572078L-88.91204111149572,-95.53768720082243L-75.69307354128772,-117.03143369741049z" style="fill:rgb(64,198,212)"/><path d="M-75.88377277654477,123.16554754855011L-75.1866823439032,121.46387880391609L-77.71910639131463,119.98165206911396z" style="fill:rgb(81,36,204)"/><path d="M-32.71923712526329,-122.12789666665954L-37.923065272791916,-148.73111952115704L-58.439785947280626,-134.95908126115495z" style="fill:rgb(103,216,215)"/><path d="M1.9318728960369302,-140.84012131655837L-37.923065272791916,-148.73111952115704L-16.398825470079654,-133.30488825673302z" style="fill:rgb(116,223,210)"/><path d="M206.46004666730556,171.2355961481218L252.14100775939445,161.28422795441486L118.09730948570818,168.73852995386736z" style="fill:rgb(127,4,160)"/><path d="M98.60771628250185,-121.56404668767925L75.25313608391207,-111.15708710055632L87.76763803764166,-103.38142789859192z" style="fill:rgb(184,205,211)"/><path d="M-136.8065384330428,-24.698934900923675L-150.52546318819088,3.5423983829629617L-135.4095728869406,-3.7030537194653097z" style="fill:rgb(34,139,214)"/><path d="M107.925977025198,-81.86091432404167L114.85099207414065,-68.87925961166847L136.9127127758694,-72.84961147372039z" style="fill:rgb(207,179,211)"/><path d="M21.557094790350693,-144.5318665962129L47.54561687318037,-119.3186391459734L41.745378760901666,-144.3189663989715z" style="fill:rgb(150,213,218)"/><path d="M-74.71793476173421,119.7524816464596L-77.71910639131463,119.98165206911396L-75.1866823439032,121.46387880391609z" style="fill:rgb(91,50,222)"/><path d="M-126.04236288884793,-68.44587606492861L-136.03715968112252,-46.406282116308276L-130.19030932204652,-38.318152427727604zM-136.03715968112252,-46.406282116308276L-137.536187867715,-35.667180501655494L-130.19030932204652,-38.318152427727604z" style="fill:rgb(34,160,208)"/><path d="M119.31083086704935,-55.012133127051875L136.9127127758694,-72.84961147372039L114.85099207414065,-68.87925961166847z" style="fill:rgb(212,168,213)"/><path d="M61.7736122487239,-140.2744648349246L61.68615161047714,-116.53923540547854L75.25313608391207,-111.15708710055632z" style="fill:rgb(173,210,212)"/><path d="M-73.39849151024893,114.92307563290903L-77.71910639131463,119.98165206911396L-74.71793476173421,119.7524816464596z" style="fill:rgb(91,50,222)"/><path d="M-121.67145057299416,38.13154934948043L-141.51219889167115,36.90721353505793L-125.89829615004119,68.37540653766433z" style="fill:rgb(47,97,221)"/><path d="M-137.536187867715,-35.667180501655494L-136.8065384330428,-24.698934900923675L-130.19030932204652,-38.318152427727604z" style="fill:rgb(34,139,214)"/><path d="M-115.95864521426226,-96.37138761611129L-126.04236288884793,-68.44587606492861L-97.45103845161483,-71.24680876593095z" style="fill:rgb(57,181,218)"/><path d="M-32.71923712526329,-122.12789666665954L-16.398825470079654,-133.30488825673302L-37.923065272791916,-148.73111952115704z" style="fill:rgb(103,216,215)"/><path d="M-135.4095728869406,-3.7030537194653097L-141.51219889167115,36.90721353505793L-132.44405945840947,7.148209681920027z" style="fill:rgb(38,118,218)"/><path d="M47.54561687318037,-119.3186391459734L61.68615161047714,-116.53923540547854L61.7736122487239,-140.2744648349246z" style="fill:rgb(162,213,215)"/><path d="M163.4602075918106,-24.32156395126281L121.12213322787659,-40.749418475267774L89.7143257640424,-46.981233890148594z" style="fill:rgb(127,4,160)"/><path d="M-132.44405945840947,7.148209681920027L-141.51219889167115,36.90721353505793L-126.78144406941603,27.882578518010863z" style="fill:rgb(38,118,218)"/><path d="M-104.31483623183975,96.49898193749421L-98.52275873070417,75.11652269930819L-125.89829615004119,68.37540653766433z" style="fill:rgb(58,79,223)"/><path d="M-82.76722706019653,91.99265210354434L-104.31483623183975,96.49898193749421L-77.71910639131463,119.98165206911396z" style="fill:rgb(74,63,223)"/><path d="M119.31083086704935,-55.012133127051875L121.12213322787659,-40.749418475267774L145.97981210776464,-33.02985345129862z" style="fill:rgb(214,157,215)"/><path d="M21.557094790350693,-144.5318665962129L1.9318728960369302,-140.84012131655837L19.583402641813585,-116.66035383076765z" style="fill:rgb(139,212,221)"/><path d="M-121.67145057299416,38.13154934948043L-126.78144406941603,27.882578518010863L-141.51219889167115,36.90721353505793z" style="fill:rgb(47,97,221)"/><path d="M-46.359748295011094,-107.65719192536437L-58.439785947280626,-134.95908126115495L-75.69307354128772,-117.03143369741049z" style="fill:rgb(92,206,221)"/><path d="M25.375550793396926,138.703942946416L-2.5664943025561864,127.12469647818305L4.548809345051044,135.8355613778966z" style="fill:rgb(132,35,215)"/><path d="M-70.42495450786004,102.90006845798875L-77.71910639131463,119.98165206911396L-73.39849151024893,114.92307563290903z" style="fill:rgb(74,63,223)"/><path d="M-136.8065384330428,-24.698934900923675L-135.4095728869406,-3.7030537194653097L-128.06454496499308,-7.222819770259525z" style="fill:rgb(34,139,214)"/><path d="M-115.95864521426226,-96.37138761611129L-97.45103845161483,-71.24680876593095L-88.91204111149572,-95.53768720082243z" style="fill:rgb(57,181,218)"/><path d="M-136.8065384330428,-24.698934900923675L-128.06454496499308,-7.222819770259525L-130.19030932204652,-38.318152427727604z" style="fill:rgb(34,139,214)"/><path d="M25.375550793396926,138.703942946416L28.431677897722764,131.4466578933964L-2.5664943025561864,127.12469647818305z" style="fill:rgb(132,35,215)"/><path d="M-111.93013330395978,57.67280899929062L-121.67145057299416,38.13154934948043L-125.89829615004119,68.37540653766433z" style="fill:rgb(47,97,221)"/><path d="M21.557094790350693,-144.5318665962129L33.336451820883624,-119.37012672500161L47.54561687318037,-119.3186391459734z" style="fill:rgb(150,213,218)"/><path d="M4.548809345051044,135.8355613778966L-2.5664943025561864,127.12469647818305L-6.491466855375609,134.31575756186808z" style="fill:rgb(132,35,215)"/><path d="M-135.4095728869406,-3.7030537194653097L-132.44405945840947,7.148209681920027L-128.06454496499308,-7.222819770259525z" style="fill:rgb(38,118,218)"/><path d="M-98.52275873070417,75.11652269930819L-111.93013330395978,57.67280899929062L-125.89829615004119,68.37540653766433z" style="fill:rgb(58,79,223)"/><path d="M-70.42495450786004,102.90006845798875L-82.76722706019653,91.99265210354434L-77.71910639131463,119.98165206911396z" style="fill:rgb(74,63,223)"/><path d="M-17.14944349937316,130.59263795100188L-6.491466855375609,134.31575756186808L-2.5664943025561864,127.12469647818305z" style="fill:rgb(111,40,219)"/><path d="M-104.31483623183975,96.49898193749421L-91.45768091909173,84.30947097768808L-98.52275873070417,75.11652269930819z" style="fill:rgb(58,79,223)"/><path d="M-46.359748295011094,-107.65719192536437L-32.71923712526329,-122.12789666665954L-58.439785947280626,-134.95908126115495z" style="fill:rgb(92,206,221)"/><path d="M-82.76722706019653,91.99265210354434L-91.45768091909173,84.30947097768808L-104.31483623183975,96.49898193749421z" style="fill:rgb(74,63,223)"/><path d="M-100.83513742256649,-45.098243805809936L-126.04236288884793,-68.44587606492861L-130.19030932204652,-38.318152427727604z" style="fill:rgb(53,163,224)"/><path d="M21.557094790350693,-144.5318665962129L19.583402641813585,-116.66035383076765L33.336451820883624,-119.37012672500161z" style="fill:rgb(139,212,221)"/><path d="M1.9318728960369302,-140.84012131655837L-16.398825470079654,-133.30488825673302L6.801415595627131,-111.24964170537967z" style="fill:rgb(129,208,225)"/><path d="M-46.359748295011094,-107.65719192536437L-75.69307354128772,-117.03143369741049L-88.91204111149572,-95.53768720082243z" style="fill:rgb(83,193,227)"/><path d="M-132.44405945840947,7.148209681920027L-126.78144406941603,27.882578518010863L-119.62789820870293,23.501375165153974zM-132.44405945840947,7.148209681920027L-119.62789820870293,23.501375165153974L-128.06454496499308,-7.222819770259525z" style="fill:rgb(38,118,218)"/><path d="M-32.733394505274894,116.54023019369279L-37.50671014338383,123.47801288735529L-17.14944349937316,130.59263795100188z" style="fill:rgb(111,40,219)"/><path d="M72.43975807779688,-79.625263634554L98.78868432794513,-93.49740334142889L87.76763803764166,-103.38142789859192z" style="fill:rgb(181,184,227)"/><path d="M82.95152061551084,-68.39811031822711L107.925977025198,-81.86091432404167L98.78868432794513,-93.49740334142889z" style="fill:rgb(186,178,227)"/><path d="M-121.67145057299416,38.13154934948043L-119.62789820870293,23.501375165153974L-126.78144406941603,27.882578518010863z" style="fill:rgb(47,97,221)"/><path d="M-32.733394505274894,116.54023019369279L-17.14944349937316,130.59263795100188L-2.5664943025561864,127.12469647818305z" style="fill:rgb(111,40,219)"/><path d="M163.4602075918106,-24.32156395126281L89.7143257640424,-46.981233890148594L53.190235122484715,-51.27350055296981z" style="fill:rgb(127,4,160)"/><path d="M82.95152061551084,-68.39811031822711L114.85099207414065,-68.87925961166847L107.925977025198,-81.86091432404167z" style="fill:rgb(190,172,228)"/><path d="M65.90532091049486,-83.66048707521858L87.76763803764166,-103.38142789859192L75.25313608391207,-111.15708710055632z" style="fill:rgb(175,188,228)"/><path d="M-37.50671014338383,123.47801288735529L-32.733394505274894,116.54023019369279L-47.40368089081695,117.66231549709127z" style="fill:rgb(91,50,222)"/><path d="M-100.83513742256649,-45.098243805809936L-97.45103845161483,-71.24680876593095L-126.04236288884793,-68.44587606492861z" style="fill:rgb(53,163,224)"/><path d="M-111.93013330395978,57.67280899929062L-119.62789820870293,23.501375165153974L-121.67145057299416,38.13154934948043z" style="fill:rgb(47,97,221)"/><path d="M-100.83513742256649,-45.098243805809936L-130.19030932204652,-38.318152427727604L-128.06454496499308,-7.222819770259525z" style="fill:rgb(53,144,229)"/><path d="M65.90532091049486,-83.66048707521858L75.25313608391207,-111.15708710055632L61.68615161047714,-116.53923540547854z" style="fill:rgb(169,191,229)"/><path d="M86.5403005950921,-61.62312193384612L119.31083086704935,-55.012133127051875L114.85099207414065,-68.87925961166847z" style="fill:rgb(193,166,229)"/><path d="M1.9318728960369302,-140.84012131655837L6.801415595627131,-111.24964170537967L19.583402641813585,-116.66035383076765z" style="fill:rgb(129,208,225)"/><path d="M-32.71923712526329,-122.12789666665954L6.801415595627131,-111.24964170537967L-16.398825470079654,-133.30488825673302z" style="fill:rgb(119,203,229)"/><path d="M-47.40368089081695,117.66231549709127L-60.708722723906,100.06745126574418L-66.26749801817672,106.57467268487063z" style="fill:rgb(91,50,222)"/><path d="M36.95278428312516,102.32247189551825L-2.5664943025561864,127.12469647818305L28.431677897722764,131.4466578933964z" style="fill:rgb(139,53,230)"/><path d="M-98.52275873070417,75.11652269930819L-105.14941060857643,52.479174706690685L-111.93013330395978,57.67280899929062z" style="fill:rgb(58,79,223)"/><path d="M-66.26749801817672,106.57467268487063L-85.21765403143127,78.3936191963933L-82.76722706019653,91.99265210354434z" style="fill:rgb(74,63,223)"/><path d="M58.8296764382808,-86.43082183391422L61.68615161047714,-116.53923540547854L47.54561687318037,-119.3186391459734z" style="fill:rgb(162,193,230)"/><path d="M-91.45768091909173,84.30947097768808L-85.21765403143127,78.3936191963933L-98.52275873070417,75.11652269930819z" style="fill:rgb(58,79,223)"/><path d="M-82.76722706019653,91.99265210354434L-85.21765403143127,78.3936191963933L-91.45768091909173,84.30947097768808z" style="fill:rgb(74,63,223)"/><path d="M-47.40368089081695,117.66231549709127L-32.733394505274894,116.54023019369279L-60.708722723906,100.06745126574418z" style="fill:rgb(91,50,222)"/><path d="M-111.93013330395978,57.67280899929062L-105.14941060857643,52.479174706690685L-119.62789820870293,23.501375165153974z" style="fill:rgb(47,97,221)"/><path d="M89.7143257640424,-46.981233890148594L121.12213322787659,-40.749418475267774L119.31083086704935,-55.012133127051875z" style="fill:rgb(194,159,231)"/><path d="M-66.26749801817672,106.57467268487063L-60.708722723906,100.06745126574418L-85.21765403143127,78.3936191963933z" style="fill:rgb(74,63,223)"/><path d="M-98.52275873070417,75.11652269930819L-85.21765403143127,78.3936191963933L-105.14941060857643,52.479174706690685z" style="fill:rgb(58,79,223)"/><path d="M-46.359748295011094,-107.65719192536437L-88.91204111149572,-95.53768720082243L-56.72417571771493,-90.38486605176382z" style="fill:rgb(83,193,227)"/><path d="M72.43975807779688,-79.625263634554L78.19309613647162,-74.47321114641377L98.78868432794513,-93.49740334142889z" style="fill:rgb(181,184,227)"/><path d="M82.95152061551084,-68.39811031822711L98.78868432794513,-93.49740334142889L78.19309613647162,-74.47321114641377z" style="fill:rgb(186,178,228)"/><path d="M44.10779254260695,-87.78838931101252L47.54561687318037,-119.3186391459734L33.336451820883624,-119.37012672500161z" style="fill:rgb(155,193,232)"/><path d="M65.90532091049486,-83.66048707521858L72.43975807779688,-79.625263634554L87.76763803764166,-103.38142789859192z" style="fill:rgb(175,188,228)"/><path d="M82.95152061551084,-68.39811031822711L86.5403005950921,-61.62312193384612L114.85099207414065,-68.87925961166847z" style="fill:rgb(190,172,228)"/><path d="M-63.32709272955736,-70.94319801473917L-88.91204111149572,-95.53768720082243L-97.45103845161483,-71.24680876593095z" style="fill:rgb(77,180,232)"/><path d="M10.108073939135155,98.3958098296715L-32.733394505274894,116.54023019369279L-2.5664943025561864,127.12469647818305z" style="fill:rgb(120,58,234)"/><path d="M-46.359748295011094,-107.65719192536437L-4.5093113670644165,-103.30413199839265L-32.71923712526329,-122.12789666665954z" style="fill:rgb(111,195,234)"/><path d="M-91.35177163169193,8.43163943424311L-128.06454496499308,-7.222819770259525L-119.62789820870293,23.501375165153974z" style="fill:rgb(57,126,233)"/><path d="M65.90532091049486,-83.66048707521858L61.68615161047714,-116.53923540547854L58.8296764382808,-86.43082183391422z" style="fill:rgb(169,191,229)"/><path d="M86.5403005950921,-61.62312193384612L88.8258145554501,-54.393735589137194L119.31083086704935,-55.012133127051875z" style="fill:rgb(193,166,229)"/><path d="M-32.71923712526329,-122.12789666665954L-4.5093113670644165,-103.30413199839265L6.801415595627131,-111.24964170537967z" style="fill:rgb(119,203,229)"/><path d="M44.10779254260695,-87.78838931101252L33.336451820883624,-119.37012672500161L19.583402641813585,-116.66035383076765z" style="fill:rgb(148,193,234)"/><path d="M-100.83513742256649,-45.098243805809936L-128.06454496499308,-7.222819770259525L-98.80756613794789,-18.15643405869276z" style="fill:rgb(53,144,229)"/><path d="M89.7143257640424,-46.981233890148594L119.31083086704935,-55.012133127051875L88.8258145554501,-54.393735589137194z" style="fill:rgb(194,159,231)"/><path d="M58.8296764382808,-86.43082183391422L47.54561687318037,-119.3186391459734L51.47361532538423,-87.8258170097946z" style="fill:rgb(162,193,230)"/><path d="M-63.32709272955736,-70.94319801473917L-56.72417571771493,-90.38486605176382L-88.91204111149572,-95.53768720082243z" style="fill:rgb(77,180,232)"/><path d="M36.95278428312516,102.32247189551825L10.108073939135155,98.3958098296715L-2.5664943025561864,127.12469647818305z" style="fill:rgb(139,53,230)"/><path d="M-91.35177163169193,8.43163943424311L-119.62789820870293,23.501375165153974L-105.14941060857643,52.479174706690685z" style="fill:rgb(64,108,236)"/><path d="M44.10779254260695,-87.78838931101252L51.47361532538423,-87.8258170097946L47.54561687318037,-119.3186391459734z" style="fill:rgb(155,193,232)"/><path d="M-60.708722723906,100.06745126574418L-32.733394505274894,116.54023019369279L-15.988721351697658,89.09087772433504z" style="fill:rgb(103,66,236)"/><path d="M-100.83513742256649,-45.098243805809936L-63.32709272955736,-70.94319801473917L-97.45103845161483,-71.24680876593095z" style="fill:rgb(74,165,237)"/><path d="M-91.35177163169193,8.43163943424311L-98.80756613794789,-18.15643405869276L-128.06454496499308,-7.222819770259525z" style="fill:rgb(57,126,233)"/><path d="M30.454600023737,-83.4372347044996L19.583402641813585,-116.66035383076765L6.801415595627131,-111.24964170537967z" style="fill:rgb(142,190,237)"/><path d="M-61.41492504601126,55.93755699356645L-105.14941060857643,52.479174706690685L-85.21765403143127,78.3936191963933z" style="fill:rgb(74,92,238)"/><path d="M-60.708722723906,100.06745126574418L-61.41492504601126,55.93755699356645L-85.21765403143127,78.3936191963933z" style="fill:rgb(87,78,238)"/><path d="M25.548519322197087,166.12311327037148L56.054535399235256,155.15831419508288L24.936483798836488,69.0807457563366z" style="fill:rgb(4,136,159)"/><path d="M118.09730948570818,168.73852995386736L56.054535399235256,155.15831419508288L25.548519322197087,166.12311327037148z" style="fill:rgb(127,4,160)"/><path d="M-46.359748295011094,-107.65719192536437L-13.894418245627795,-93.09212035788185L-4.5093113670644165,-103.30413199839265z" style="fill:rgb(111,195,234)"/><path d="M10.108073939135155,98.3958098296715L-15.988721351697658,89.09087772433504L-32.733394505274894,116.54023019369279z" style="fill:rgb(120,58,234)"/><path d="M44.10779254260695,-87.78838931101252L19.583402641813585,-116.66035383076765L37.01195288313898,-86.31071893857985z" style="fill:rgb(148,193,234)"/><path d="M-46.359748295011094,-107.65719192536437L-56.72417571771493,-90.38486605176382L-20.957250265843975,-80.97191506681945z" style="fill:rgb(105,186,238)"/><path d="M30.454600023737,-83.4372347044996L6.801415595627131,-111.24964170537967L-4.5093113670644165,-103.30413199839265z" style="fill:rgb(136,187,239)"/><path d="M30.454600023737,-83.4372347044996L37.01195288313898,-86.31071893857985L19.583402641813585,-116.66035383076765z" style="fill:rgb(142,190,237)"/><path d="M-46.359748295011094,-107.65719192536437L-20.957250265843975,-80.97191506681945L-13.894418245627795,-93.09212035788185z" style="fill:rgb(105,186,238)"/><path d="M-91.35177163169193,8.43163943424311L-105.14941060857643,52.479174706690685L-78.71726651714438,33.50206291926847z" style="fill:rgb(64,108,236)"/><path d="M-60.708722723906,100.06745126574418L-15.988721351697658,89.09087772433504L-40.191467669037955,74.74016893620076z" style="fill:rgb(103,66,236)"/><path d="M72.43975807779688,-79.625263634554L53.190235122484715,-51.27350055296981L78.19309613647162,-74.47321114641377z" style="fill:rgb(168,168,241)"/><path d="M82.95152061551084,-68.39811031822711L78.19309613647162,-74.47321114641377L53.190235122484715,-51.27350055296981z" style="fill:rgb(169,166,241)"/><path d="M65.90532091049486,-83.66048707521858L53.190235122484715,-51.27350055296981L72.43975807779688,-79.625263634554z" style="fill:rgb(166,169,241)"/><path d="M82.95152061551084,-68.39811031822711L53.190235122484715,-51.27350055296981L86.5403005950921,-61.62312193384612z" style="fill:rgb(171,164,241)"/><path d="M-61.41492504601126,55.93755699356645L-78.71726651714438,33.50206291926847L-105.14941060857643,52.479174706690685z" style="fill:rgb(74,92,238)"/><path d="M-100.83513742256649,-45.098243805809936L-65.82094575193595,-50.08065010487465L-63.32709272955736,-70.94319801473917z" style="fill:rgb(74,165,237)"/><path d="M-60.708722723906,100.06745126574418L-40.191467669037955,74.74016893620076L-61.41492504601126,55.93755699356645z" style="fill:rgb(87,78,238)"/><path d="M65.90532091049486,-83.66048707521858L58.8296764382808,-86.43082183391422L53.190235122484715,-51.27350055296981z" style="fill:rgb(163,170,241)"/><path d="M86.5403005950921,-61.62312193384612L53.190235122484715,-51.27350055296981L88.8258145554501,-54.393735589137194z" style="fill:rgb(171,161,241)"/><path d="M-100.83513742256649,-45.098243805809936L-98.80756613794789,-18.15643405869276L-64.0295899589545,-28.641579649008314z" style="fill:rgb(74,149,241)"/><path d="M58.8296764382808,-86.43082183391422L51.47361532538423,-87.8258170097946L53.190235122484715,-51.27350055296981z" style="fill:rgb(161,171,242)"/><path d="M89.7143257640424,-46.981233890148594L88.8258145554501,-54.393735589137194L53.190235122484715,-51.27350055296981z" style="fill:rgb(172,159,242)"/><path d="M22.76013668254209,64.19746764246614L10.108073939135155,98.3958098296715L36.95278428312516,102.32247189551825z" style="fill:rgb(145,74,242)"/><path d="M-25.381552751313542,-67.39697699500432L-56.72417571771493,-90.38486605176382L-63.32709272955736,-70.94319801473917z" style="fill:rgb(100,176,242)"/><path d="M44.10779254260695,-87.78838931101252L53.190235122484715,-51.27350055296981L51.47361532538423,-87.8258170097946z" style="fill:rgb(159,171,242)"/><path d="M30.454600023737,-83.4372347044996L-4.5093113670644165,-103.30413199839265L24.69123496617299,-79.27020514917999z" style="fill:rgb(136,187,239)"/><path d="M19.94602350527576,-73.95646643333839L-4.5093113670644165,-103.30413199839265L-13.894418245627795,-93.09212035788185z" style="fill:rgb(131,182,242)"/><path d="M-100.83513742256649,-45.098243805809936L-64.0295899589545,-28.641579649008314L-65.82094575193595,-50.08065010487465z" style="fill:rgb(74,149,241)"/><path d="M44.10779254260695,-87.78838931101252L37.01195288313898,-86.31071893857985L53.190235122484715,-51.27350055296981z" style="fill:rgb(156,171,243)"/><path d="M-25.381552751313542,-67.39697699500432L-20.957250265843975,-80.97191506681945L-56.72417571771493,-90.38486605176382z" style="fill:rgb(100,176,242)"/><path d="M19.94602350527576,-73.95646643333839L24.69123496617299,-79.27020514917999L-4.5093113670644165,-103.30413199839265z" style="fill:rgb(131,182,242)"/><path d="M-91.35177163169193,8.43163943424311L-64.0295899589545,-28.641579649008314L-98.80756613794789,-18.15643405869276z" style="fill:rgb(77,134,244)"/><path d="M22.76013668254209,64.19746764246614L36.95278428312516,102.32247189551825L44.10928715868417,67.49172755463819z" style="fill:rgb(145,74,242)"/><path d="M22.76013668254209,64.19746764246614L-15.988721351697658,89.09087772433504L10.108073939135155,98.3958098296715z" style="fill:rgb(130,78,245)"/><path d="M30.454600023737,-83.4372347044996L53.190235122484715,-51.27350055296981L37.01195288313898,-86.31071893857985z" style="fill:rgb(154,170,244)"/><path d="M19.94602350527576,-73.95646643333839L-13.894418245627795,-93.09212035788185L-20.957250265843975,-80.97191506681945z" style="fill:rgb(127,177,244)"/><path d="M30.454600023737,-83.4372347044996L24.69123496617299,-79.27020514917999L53.190235122484715,-51.27350055296981z" style="fill:rgb(152,169,245)"/><path d="M24.936483798836488,69.0807457563366L56.054535399235256,155.15831419508288L53.190235122484715,-51.27350055296981z" style="fill:rgb(4,136,159)"/><path d="M-26.956423797306748,-52.88765631536459L-63.32709272955736,-70.94319801473917L-65.82094575193595,-50.08065010487465z" style="fill:rgb(98,165,245)"/><path d="M118.09730948570818,168.73852995386736L252.14100775939445,161.28422795441486L56.054535399235256,155.15831419508288z" style="fill:rgb(127,4,160)"/><path d="M-91.35177163169193,8.43163943424311L-78.71726651714438,33.50206291926847L-47.83317779147961,12.38959763226407z" style="fill:rgb(83,119,247)"/><path d="M19.94602350527576,-73.95646643333839L53.190235122484715,-51.27350055296981L24.69123496617299,-79.27020514917999z" style="fill:rgb(150,167,246)"/><path d="M-26.956423797306748,-52.88765631536459L-25.381552751313542,-67.39697699500432L-63.32709272955736,-70.94319801473917z" style="fill:rgb(98,165,245)"/><path d="M-17.17908756632106,45.18732821195164L-40.191467669037955,74.74016893620076L-15.988721351697658,89.09087772433504z" style="fill:rgb(116,85,247)"/><path d="M19.94602350527576,-73.95646643333839L-20.957250265843975,-80.97191506681945L16.41474014621119,-67.69131742801925z" style="fill:rgb(127,177,244)"/><path d="M-25.381552751313542,-67.39697699500432L16.41474014621119,-67.69131742801925L-20.957250265843975,-80.97191506681945z" style="fill:rgb(124,170,247)"/><path d="M-91.35177163169193,8.43163943424311L-57.9631234064969,-7.516451476108823L-64.0295899589545,-28.641579649008314z" style="fill:rgb(77,134,244)"/><path d="M-17.17908756632106,45.18732821195164L-61.41492504601126,55.93755699356645L-40.191467669037955,74.74016893620076z" style="fill:rgb(103,94,248)"/><path d="M-34.04398018101336,30.214382016297073L-78.71726651714438,33.50206291926847L-61.41492504601126,55.93755699356645z" style="fill:rgb(92,106,248)"/><path d="M19.94602350527576,-73.95646643333839L16.41474014621119,-67.69131742801925L53.190235122484715,-51.27350055296981z" style="fill:rgb(149,165,247)"/><path d="M22.76013668254209,64.19746764246614L2.0337883702524278,56.66990314419834L-15.988721351697658,89.09087772433504z" style="fill:rgb(130,78,245)"/><path d="M-26.956423797306748,-52.88765631536459L-65.82094575193595,-50.08065010487465L-64.0295899589545,-28.641579649008314z" style="fill:rgb(98,153,248)"/><path d="M-91.35177163169193,8.43163943424311L-47.83317779147961,12.38959763226407L-57.9631234064969,-7.516451476108823z" style="fill:rgb(83,119,247)"/><path d="M22.76013668254209,64.19746764246614L44.10928715868417,67.49172755463819L49.415417976088534,28.761023307038784z" style="fill:rgb(150,97,249)"/><path d="M16.41474014621119,-67.69131742801925L14.240702981349319,-60.71699270349123L53.190235122484715,-51.27350055296981z" style="fill:rgb(148,163,247)"/><path d="M-25.381552751313542,-67.39697699500432L14.240702981349319,-60.71699270349123L16.41474014621119,-67.69131742801925z" style="fill:rgb(124,170,247)"/><path d="M-17.17908756632106,45.18732821195164L-15.988721351697658,89.09087772433504L2.0337883702524278,56.66990314419834z" style="fill:rgb(116,85,247)"/><path d="M56.054535399235256,155.15831419508288L239.8627704803361,-35.73799245529684L53.190235122484715,-51.27350055296981zM239.8627704803361,-35.73799245529684L56.054535399235256,155.15831419508288L252.14100775939445,161.28422795441486z" style="fill:rgb(160,159,246)"/><path d="M13.522717561463613,-53.296133198975085L53.190235122484715,-51.27350055296981L14.240702981349319,-60.71699270349123z" style="fill:rgb(148,161,248)"/><path d="M13.522717561463613,-53.296133198975085L14.240702981349319,-60.71699270349123L-25.381552751313542,-67.39697699500432z" style="fill:rgb(123,163,249)"/><path d="M-34.04398018101336,30.214382016297073L-47.83317779147961,12.38959763226407L-78.71726651714438,33.50206291926847z" style="fill:rgb(92,106,248)"/><path d="M13.522717561463613,-53.296133198975085L-25.381552751313542,-67.39697699500432L-26.956423797306748,-52.88765631536459z" style="fill:rgb(123,163,249)"/><path d="M-17.17908756632106,45.18732821195164L-34.04398018101336,30.214382016297073L-61.41492504601126,55.93755699356645z" style="fill:rgb(103,94,248)"/><path d="M13.522717561463613,-53.296133198975085L14.29652799679173,-45.724709288570544L53.190235122484715,-51.27350055296981z" style="fill:rgb(148,158,249)"/><path d="M44.977304379668745,-12.932406544967183L52.50655544371136,-11.634086369203349L53.190235122484715,-51.27350055296981z" style="fill:rgb(159,147,249)"/><path d="M-26.956423797306748,-52.88765631536459L-64.0295899589545,-28.641579649008314L-25.57685388340095,-38.02697384438249z" style="fill:rgb(98,153,248)"/><path d="M22.76013668254209,64.19746764246614L49.415417976088534,28.761023307038784L34.62659799960756,26.347777323256057z" style="fill:rgb(150,97,249)"/><path d="M16.541154028772194,-38.300381320061845L53.190235122484715,-51.27350055296981L14.29652799679173,-45.724709288570544z" style="fill:rgb(148,156,249)"/><path d="M-64.0295899589545,-28.641579649008314L-57.9631234064969,-7.516451476108823L-21.274336798158327,-23.41627963143651z" style="fill:rgb(100,142,251)"/><path d="M44.977304379668745,-12.932406544967183L53.190235122484715,-51.27350055296981L37.700155207845555,-15.682923925557251z" style="fill:rgb(156,147,249)"/><path d="M22.76013668254209,64.19746764246614L20.299047685343073,21.041293788965962L2.0337883702524278,56.66990314419834z" style="fill:rgb(139,101,251)"/><path d="M16.541154028772194,-38.300381320061845L20.169172874572464,-31.318344824162825L53.190235122484715,-51.27350055296981z" style="fill:rgb(149,154,250)"/><path d="M13.522717561463613,-53.296133198975085L-26.956423797306748,-52.88765631536459L-25.57685388340095,-38.02697384438249z" style="fill:rgb(123,156,251)"/><path d="M37.700155207845555,-15.682923925557251L53.190235122484715,-51.27350055296981L30.964629781186694,-19.77841978272955z" style="fill:rgb(154,148,250)"/><path d="M44.977304379668745,-12.932406544967183L49.415417976088534,28.761023307038784L52.50655544371136,-11.634086369203349z" style="fill:rgb(155,122,251)"/><path d="M25.042970426521943,-25.061352708257495L53.190235122484715,-51.27350055296981L20.169172874572464,-31.318344824162825z" style="fill:rgb(150,152,250)"/><path d="M25.042970426521943,-25.061352708257495L30.964629781186694,-19.77841978272955L53.190235122484715,-51.27350055296981z" style="fill:rgb(152,150,250)"/><path d="M-64.0295899589545,-28.641579649008314L-21.274336798158327,-23.41627963143651L-25.57685388340095,-38.02697384438249z" style="fill:rgb(100,142,251)"/><path d="M13.522717561463613,-53.296133198975085L-25.57685388340095,-38.02697384438249L14.29652799679173,-45.724709288570544z" style="fill:rgb(123,156,251)"/><path d="M22.76013668254209,64.19746764246614L34.62659799960756,26.347777323256057L20.299047685343073,21.041293788965962z" style="fill:rgb(139,101,251)"/><path d="M44.977304379668745,-12.932406544967183L34.62659799960756,26.347777323256057L49.415417976088534,28.761023307038784z" style="fill:rgb(155,122,251)"/><path d="M-17.17908756632106,45.18732821195164L2.0337883702524278,56.66990314419834L20.299047685343073,21.041293788965962z" style="fill:rgb(129,106,253)"/><path d="M-14.200166221483302,-9.660953148246296L-57.9631234064969,-7.516451476108823L-47.83317779147961,12.38959763226407z" style="fill:rgb(105,131,252)"/><path d="M16.541154028772194,-38.300381320061845L14.29652799679173,-45.724709288570544L-25.57685388340095,-38.02697384438249z" style="fill:rgb(124,149,252)"/><path d="M44.977304379668745,-12.932406544967183L20.299047685343073,21.041293788965962L34.62659799960756,26.347777323256057z" style="fill:rgb(148,124,253)"/><path d="M16.541154028772194,-38.300381320061845L-25.57685388340095,-38.02697384438249L-21.274336798158327,-23.41627963143651z" style="fill:rgb(124,149,252)"/><path d="M-14.200166221483302,-9.660953148246296L-47.83317779147961,12.38959763226407L-34.04398018101336,30.214382016297073z" style="fill:rgb(111,121,253)"/><path d="M-14.200166221483302,-9.660953148246296L-21.274336798158327,-23.41627963143651L-57.9631234064969,-7.516451476108823z" style="fill:rgb(105,131,252)"/><path d="M44.977304379668745,-12.932406544967183L37.700155207845555,-15.682923925557251L20.299047685343073,21.041293788965962z" style="fill:rgb(148,124,253)"/><path d="M-17.17908756632106,45.18732821195164L-4.635683299536113,2.661463606517402L-34.04398018101336,30.214382016297073z" style="fill:rgb(119,113,253)"/><path d="M16.541154028772194,-38.300381320061845L-14.200166221483302,-9.660953148246296L20.169172874572464,-31.318344824162825z" style="fill:rgb(127,143,254)"/><path d="M-17.17908756632106,45.18732821195164L20.299047685343073,21.041293788965962L7.025439691198132,13.039267340893156z" style="fill:rgb(129,106,253)"/><path d="M37.700155207845555,-15.682923925557251L30.964629781186694,-19.77841978272955L7.025439691198132,13.039267340893156z" style="fill:rgb(142,127,254)"/><path d="M16.541154028772194,-38.300381320061845L-21.274336798158327,-23.41627963143651L-14.200166221483302,-9.660953148246296z" style="fill:rgb(127,143,254)"/><path d="M-14.200166221483302,-9.660953148246296L25.042970426521943,-25.061352708257495L20.169172874572464,-31.318344824162825z" style="fill:rgb(131,137,254)"/><path d="M25.042970426521943,-25.061352708257495L7.025439691198132,13.039267340893156L30.964629781186694,-19.77841978272955z" style="fill:rgb(136,131,254)"/><path d="M37.700155207845555,-15.682923925557251L7.025439691198132,13.039267340893156L20.299047685343073,21.041293788965962z" style="fill:rgb(142,127,254)"/><path d="M-17.17908756632106,45.18732821195164L7.025439691198132,13.039267340893156L-4.635683299536113,2.661463606517402z" style="fill:rgb(119,113,253)"/><path d="M-14.200166221483302,-9.660953148246296L-34.04398018101336,30.214382016297073L-4.635683299536113,2.661463606517402z" style="fill:rgb(111,121,253)"/><path d="M-14.200166221483302,-9.660953148246296L-4.635683299536113,2.661463606517402L25.042970426521943,-25.061352708257495z" style="fill:rgb(131,137,254)"/><path d="M25.042970426521943,-25.061352708257495L-4.635683299536113,2.661463606517402L7.025439691198132,13.039267340893156z" style="fill:rgb(136,131,254)"/></svg>
