solid JSxCAD
facet normal 0 -1 0
outer loop
vertex 1 -1.5 0.5
vertex 0 -1.5 0.5
vertex 0 -1.5 -0.5
endloop
endfacet
facet normal 0 -1 0
outer loop
vertex 1 -1.5 0.5
vertex 0 -1.5 -0.5
vertex 1 -1.5 -0.5
endloop
endfacet
facet normal -0.7463244990466236 -0.66558225796877 0
outer loop
vertex -0.70711 -0.70711 0
vertex 0 -1.5 -0.5
vertex 0 -1.5 0.5
endloop
endfacet
facet normal 0.4690630430915454 -0.056532819399858956 -0.8813534489275014
outer loop
vertex 0.5449 -0.10839 -0.83147
vertex 1 -1.5 -0.5
vertex 0.37533 -0.07466 -0.92388
endloop
endfacet
facet normal -0.7720528813217524 -0.56846062199085 0.28423031099542506
outer loop
vertex 0 0 3.5
vertex -0.81549 -0.5449 0.19509
vertex 0 -1.5 0.5
endloop
endfacet
facet normal 0 -0.894427190999916 0.447213595499958
outer loop
vertex 0 0 3.5
vertex 0 -1.5 0.5
vertex 1 -1.5 0.5
endloop
endfacet
facet normal 0 -0.894427190999916 0.447213595499958
outer loop
vertex 0 0 3.5
vertex 1 -1.5 0.5
vertex 1 0 3.5
endloop
endfacet
facet normal 0 0 1
outer loop
vertex 0 0 3.5
vertex 1 0 3.5
vertex 1 1 3.5
endloop
endfacet
facet normal 0 0 1
outer loop
vertex 0 0 3.5
vertex 1 1 3.5
vertex 0 1 3.5
endloop
endfacet
facet normal -0.9586749690985501 0 0.2845036091579399
outer loop
vertex -0.98079 0 0.19509
vertex 0 0 3.5
vertex 0 1 3.5
endloop
endfacet
facet normal 0.07611161061673818 -0.06246507691346585 -0.995140762352503
outer loop
vertex 0.16221 -0.10839 -0.98079
vertex 0.13795 -0.13795 -0.98079
vertex 0 0 -1
endloop
endfacet
facet normal 0.7567969694157191 0.15763173677189526 -0.6343584023605734
outer loop
vertex 0.81549 0.16221 -0.55557
vertex 1 -0.5 -0.5
vertex 0.69352 0.13795 -0.70711
endloop
endfacet
facet normal 0.84428356800126 0.45129364040593206 -0.28899707080215026
outer loop
vertex 0.76818 0.51328 -0.38268
vertex 0.81549 0.5449 -0.19509
vertex 0.90613 0.37533 -0.19509
endloop
endfacet
facet normal 0.8442944768732634 0.4512453483420188 -0.2890406060071712
outer loop
vertex 0.76818 0.51328 -0.38268
vertex 0.90613 0.37533 -0.19509
vertex 0.85355 0.35355 -0.38268
endloop
endfacet
facet normal 0.028576467710716473 -0.09422510974883279 -0.995140700698147
outer loop
vertex 0.07466 -0.18024 -0.98079
vertex 0.03806 -0.19134 -0.98079
vertex 0 0 -1
endloop
endfacet
facet normal -0.6274663995836627 -0.4518348434683549 -0.6341381486879986
outer loop
vertex -0.69134 -0.46194 -0.55557
vertex -0.58794 -0.39285 -0.70711
vertex 0 -1.5 -0.5
endloop
endfacet
facet normal -0.7222208591876695 -0.5062240449971839 -0.4713111995496324
outer loop
vertex -0.69134 -0.46194 -0.55557
vertex 0 -1.5 -0.5
vertex -0.76818 -0.51328 -0.38268
endloop
endfacet
facet normal -0.7715638969799924 -0.5661933118808986 -0.29002463077881413
outer loop
vertex -0.81549 -0.5449 -0.19509
vertex -0.76818 -0.51328 -0.38268
vertex 0 -1.5 -0.5
endloop
endfacet
facet normal -0.845798930343854 -0.4521036447860287 0.28324276478028637
outer loop
vertex -0.90613 -0.37533 0.19509
vertex -0.81549 -0.5449 0.19509
vertex 0 0 3.5
endloop
endfacet
facet normal 0.22539654367268433 -0.1849837668978184 -0.9565445123383967
outer loop
vertex 0.2706 -0.2706 -0.92388
vertex 0.13795 -0.13795 -0.98079
vertex 0.16221 -0.10839 -0.98079
endloop
endfacet
facet normal 0.22540318788978989 -0.18497909487282335 -0.9565438501967126
outer loop
vertex 0.2706 -0.2706 -0.92388
vertex 0.16221 -0.10839 -0.98079
vertex 0.31819 -0.21261 -0.92388
endloop
endfacet
facet normal 0.2325492713843066 -0.1908435907083815 -0.9536768636514991
outer loop
vertex 0.2706 -0.2706 -0.92388
vertex 0.31819 -0.21261 -0.92388
vertex 1 -1.5 -0.5
endloop
endfacet
facet normal 0.19819396788184068 -0.21233348258923515 -0.956887476805282
outer loop
vertex 0.2706 -0.2706 -0.92388
vertex 1 -1.5 -0.5
vertex 0.13795 -0.13795 -0.98079
endloop
endfacet
facet normal 0.36982868466171653 -0.11220042835955182 -0.9223002807531383
outer loop
vertex 0.35355 -0.14645 -0.92388
vertex 0.37533 -0.07466 -0.92388
vertex 1 -1.5 -0.5
endloop
endfacet
facet normal 0.291980974363876 -0.15605270939399524 -0.9436072607289088
outer loop
vertex 0.35355 -0.14645 -0.92388
vertex 1 -1.5 -0.5
vertex 0.31819 -0.21261 -0.92388
endloop
endfacet
facet normal 0.6463737976554202 0.06367683878316331 -0.7603592400353224
outer loop
vertex 0.70711 0 -0.70711
vertex 0.69352 0.13795 -0.70711
vertex 1 -0.5 -0.5
endloop
endfacet
facet normal 0.9904384105005078 0.097525869422906 -0.09757284355051773
outer loop
vertex 0.96194 0.19134 -0.19509
vertex 0.98079 0.19509 0
vertex 1 0 0
endloop
endfacet
facet normal 0.9904383670044205 0.0975495801262537 -0.0975495801262537
outer loop
vertex 0.96194 0.19134 -0.19509
vertex 1 0 0
vertex 1 -0.5 -0.5
endloop
endfacet
facet normal 0.13565466359454312 -0.2537788021655027 -0.9577025278323609
outer loop
vertex 0.10839 -0.16221 -0.98079
vertex 1 -1.5 -0.5
vertex 0.07466 -0.18024 -0.98079
endloop
endfacet
facet normal 0.04641679795409712 -0.08683519661629874 -0.9951407586348261
outer loop
vertex 0.10839 -0.16221 -0.98079
vertex 0.07466 -0.18024 -0.98079
vertex 0 0 -1
endloop
endfacet
facet normal 0.062465076913465735 -0.07611161061673738 -0.995140762352503
outer loop
vertex 0.10839 -0.16221 -0.98079
vertex 0 0 -1
vertex 0.13795 -0.13795 -0.98079
endloop
endfacet
facet normal 0.18259574430548095 -0.22248681787592225 -0.9576838779226545
outer loop
vertex 0.10839 -0.16221 -0.98079
vertex 0.13795 -0.13795 -0.98079
vertex 1 -1.5 -0.5
endloop
endfacet
facet normal 0.08465328282622651 -0.2790293468363114 -0.9565440111729541
outer loop
vertex 0.14645 -0.35355 -0.92388
vertex 0.07466 -0.37533 -0.92388
vertex 0.03806 -0.19134 -0.98079
endloop
endfacet
facet normal 0.08462843464298354 -0.27904510882280964 -0.9565416118977493
outer loop
vertex 0.14645 -0.35355 -0.92388
vertex 0.03806 -0.19134 -0.98079
vertex 0.07466 -0.18024 -0.98079
endloop
endfacet
facet normal 0.11983052626977359 -0.2645779085434431 -0.9568903674322815
outer loop
vertex 0.14645 -0.35355 -0.92388
vertex 0.07466 -0.18024 -0.98079
vertex 1 -1.5 -0.5
endloop
endfacet
facet normal 0.0872709405091363 -0.28765752154044344 -0.9537488837444899
outer loop
vertex 0.14645 -0.35355 -0.92388
vertex 1 -1.5 -0.5
vertex 0.07466 -0.37533 -0.92388
endloop
endfacet
facet normal 0.03239315304714626 -0.3290439192517176 -0.9437588584162446
outer loop
vertex 0 -0.38268 -0.92388
vertex 0.07466 -0.37533 -0.92388
vertex 1 -1.5 -0.5
endloop
endfacet
facet normal 0 -0.35470468543393574 -0.9349783880556879
outer loop
vertex 0 -0.38268 -0.92388
vertex 1 -1.5 -0.5
vertex 0 -1.5 -0.5
endloop
endfacet
facet normal -0.3041804475912344 -0.3706607596281086 -0.8775447889282403
outer loop
vertex -0.30866 -0.46194 -0.83147
vertex 0 -1.5 -0.5
vertex -0.39285 -0.39285 -0.83147
endloop
endfacet
facet normal -0.3001664899481691 -0.36576952943604446 -0.8809726043687911
outer loop
vertex -0.30866 -0.46194 -0.83147
vertex -0.39285 -0.39285 -0.83147
vertex -0.2706 -0.2706 -0.92388
endloop
endfacet
facet normal -0.3001708706237895 -0.36576820314086267 -0.8809716624273796
outer loop
vertex -0.30866 -0.46194 -0.83147
vertex -0.2706 -0.2706 -0.92388
vertex -0.21261 -0.31819 -0.92388
endloop
endfacet
facet normal -0.2952815657132294 -0.3691819206622178 -0.8812000376793568
outer loop
vertex -0.30866 -0.46194 -0.83147
vertex -0.21261 -0.31819 -0.92388
vertex 0 -1.5 -0.5
endloop
endfacet
facet normal -0.49178683810781165 -0.4036186144955748 -0.7715165065613268
outer loop
vertex -0.5 -0.5 -0.70711
vertex -0.58794 -0.39285 -0.70711
vertex -0.46194 -0.30866 -0.83147
endloop
endfacet
facet normal -0.49181563005932427 -0.4036054386601584 -0.7715050459415614
outer loop
vertex -0.5 -0.5 -0.70711
vertex -0.46194 -0.30866 -0.83147
vertex -0.39285 -0.39285 -0.83147
endloop
endfacet
facet normal -0.49048240657339925 -0.4050469343469941 -0.7715983345096519
outer loop
vertex -0.5 -0.5 -0.70711
vertex -0.39285 -0.39285 -0.83147
vertex 0 -1.5 -0.5
endloop
endfacet
facet normal -0.49558646762259656 -0.4067370411827451 -0.767436663470845
outer loop
vertex -0.5 -0.5 -0.70711
vertex 0 -1.5 -0.5
vertex -0.58794 -0.39285 -0.70711
endloop
endfacet
facet normal -0.8443064153192955 -0.4512517290165164 -0.28899576832591406
outer loop
vertex -0.85355 -0.35355 -0.38268
vertex -0.76818 -0.51328 -0.38268
vertex -0.81549 -0.5449 -0.19509
endloop
endfacet
facet normal -0.8442723229322443 -0.45128762959591057 -0.28903930546605
outer loop
vertex -0.85355 -0.35355 -0.38268
vertex -0.81549 -0.5449 -0.19509
vertex -0.90613 -0.37533 -0.19509
endloop
endfacet
facet normal -0.8448309274236795 -0.2563107158498472 -0.4696440364882586
outer loop
vertex -0.85355 -0.35355 -0.38268
vertex -0.90613 -0.18024 -0.38268
vertex -0.81549 -0.16221 -0.55557
endloop
endfacet
facet normal -0.8448746182358353 -0.25625732907255766 -0.4695945706217764
outer loop
vertex -0.85355 -0.35355 -0.38268
vertex -0.81549 -0.16221 -0.55557
vertex -0.76818 -0.31819 -0.55557
endloop
endfacet
facet normal -0.7786237526288411 -0.4162048636660866 -0.4695940409575865
outer loop
vertex -0.85355 -0.35355 -0.38268
vertex -0.76818 -0.31819 -0.55557
vertex -0.69134 -0.46194 -0.55557
endloop
endfacet
facet normal -0.7786292685378166 -0.41614963159753043 -0.46963384279404813
outer loop
vertex -0.85355 -0.35355 -0.38268
vertex -0.69134 -0.46194 -0.55557
vertex -0.76818 -0.51328 -0.38268
endloop
endfacet
facet normal -0.877719954584666 -0.46914281336785896 -0.09753308151177191
outer loop
vertex -0.83147 -0.55557 0
vertex -0.92388 -0.38268 0
vertex -0.90613 -0.37533 -0.19509
endloop
endfacet
facet normal -0.8777084047413767 -0.4691601686958678 -0.09755353584372385
outer loop
vertex -0.83147 -0.55557 0
vertex -0.90613 -0.37533 -0.19509
vertex -0.81549 -0.5449 -0.19509
endloop
endfacet
facet normal -0.7720415054821985 -0.6280354903069774 -0.09758758490532904
outer loop
vertex -0.83147 -0.55557 0
vertex -0.81549 -0.5449 -0.19509
vertex 0 -1.5 -0.5
endloop
endfacet
facet normal -0.7700992276146967 -0.631975319692251 -0.08691590721568059
outer loop
vertex -0.83147 -0.55557 0
vertex 0 -1.5 -0.5
vertex -0.70711 -0.70711 0
endloop
endfacet
facet normal -0.7700992276146967 -0.631975319692251 0.08691590721568059
outer loop
vertex -0.83147 -0.55557 0
vertex -0.70711 -0.70711 0
vertex 0 -1.5 0.5
endloop
endfacet
facet normal -0.7720415054821985 -0.6280354903069774 0.09758758490532904
outer loop
vertex -0.83147 -0.55557 0
vertex 0 -1.5 0.5
vertex -0.81549 -0.5449 0.19509
endloop
endfacet
facet normal -0.8777084047413767 -0.4691601686958678 0.09755353584372385
outer loop
vertex -0.83147 -0.55557 0
vertex -0.81549 -0.5449 0.19509
vertex -0.90613 -0.37533 0.19509
endloop
endfacet
facet normal -0.877719954584666 -0.46914281336785896 0.09753308151177191
outer loop
vertex -0.83147 -0.55557 0
vertex -0.90613 -0.37533 0.19509
vertex -0.92388 -0.38268 0
endloop
endfacet
facet normal -0.9177557518617769 -0.27838441497584543 0.28324282413360613
outer loop
vertex -0.96194 -0.19134 0.19509
vertex -0.90613 -0.37533 0.19509
vertex 0 0 3.5
endloop
endfacet
facet normal -0.9544277780965157 -0.09402615039782247 0.28324318074600574
outer loop
vertex -0.96194 -0.19134 0.19509
vertex 0 0 3.5
vertex -0.98079 0 0.19509
endloop
endfacet
facet normal 0.08683519661630316 -0.04641679795410217 -0.9951407586348254
outer loop
vertex 0.18024 -0.07466 -0.98079
vertex 0.16221 -0.10839 -0.98079
vertex 0 0 -1
endloop
endfacet
facet normal 0.2571669158612988 -0.13744592117375362 -0.9565426264098668
outer loop
vertex 0.18024 -0.07466 -0.98079
vertex 0.35355 -0.14645 -0.92388
vertex 0.31819 -0.21261 -0.92388
endloop
endfacet
facet normal 0.25715439671870927 -0.1374590504843837 -0.9565441054589006
outer loop
vertex 0.18024 -0.07466 -0.98079
vertex 0.31819 -0.21261 -0.92388
vertex 0.16221 -0.10839 -0.98079
endloop
endfacet
facet normal 0.633167744243569 0.06232954913810191 -0.7715008975715785
outer loop
vertex 0.55557 0 -0.83147
vertex 0.5449 0.10839 -0.83147
vertex 0.69352 0.13795 -0.70711
endloop
endfacet
facet normal 0.6331408232777966 0.06237320614965759 -0.7715194625242621
outer loop
vertex 0.55557 0 -0.83147
vertex 0.69352 0.13795 -0.70711
vertex 0.70711 0 -0.70711
endloop
endfacet
facet normal 0.6335395961341763 0.0513347516520128 -0.7720053907862113
outer loop
vertex 0.55557 0 -0.83147
vertex 0.70711 0 -0.70711
vertex 1 -0.5 -0.5
endloop
endfacet
facet normal 0.5978594362650591 0 -0.8016009571281872
outer loop
vertex 0.55557 0 -0.83147
vertex 1 -0.5 -0.5
vertex 1 -1.5 -0.5
endloop
endfacet
facet normal 0.48792614617894053 -0.04803184776943531 -0.8715624002186081
outer loop
vertex 0.55557 0 -0.83147
vertex 1 -1.5 -0.5
vertex 0.5449 -0.10839 -0.83147
endloop
endfacet
facet normal 0.4708826921847451 -0.04635407625806085 -0.8809771789411509
outer loop
vertex 0.55557 0 -0.83147
vertex 0.5449 -0.10839 -0.83147
vertex 0.37533 -0.07466 -0.92388
endloop
endfacet
facet normal 0.47088349986315364 -0.046356733511842566 -0.8809766074163033
outer loop
vertex 0.55557 0 -0.83147
vertex 0.37533 -0.07466 -0.92388
vertex 0.38268 0 -0.92388
endloop
endfacet
facet normal 0.47088349986315364 0.046356733511842566 -0.8809766074163033
outer loop
vertex 0.55557 0 -0.83147
vertex 0.38268 0 -0.92388
vertex 0.37533 0.07466 -0.92388
endloop
endfacet
facet normal 0.4708826921847451 0.04635407625806085 -0.8809771789411509
outer loop
vertex 0.55557 0 -0.83147
vertex 0.37533 0.07466 -0.92388
vertex 0.5449 0.10839 -0.83147
endloop
endfacet
facet normal 0.5987067253643545 0.4913697566826076 -0.6325393420342852
outer loop
vertex 0.69134 0.46194 -0.55557
vertex 0.58794 0.39285 -0.70711
vertex 0.5 0.5 -0.70711
endloop
endfacet
facet normal 0.5987167004706263 0.4913278319735121 -0.6325624665641921
outer loop
vertex 0.69134 0.46194 -0.55557
vertex 0.5 0.5 -0.70711
vertex 0.58794 0.58794 -0.55557
endloop
endfacet
facet normal 0.9160849924800881 0.27792827248631374 -0.28904006972309254
outer loop
vertex 0.90613 0.18024 -0.38268
vertex 0.85355 0.35355 -0.38268
vertex 0.90613 0.37533 -0.19509
endloop
endfacet
facet normal 0.9161118355283162 0.27788576303513834 -0.2889958607096614
outer loop
vertex 0.90613 0.18024 -0.38268
vertex 0.90613 0.37533 -0.19509
vertex 0.96194 0.19134 -0.19509
endloop
endfacet
facet normal 0.939908455520641 0.17976544212468393 -0.2902696695463033
outer loop
vertex 0.90613 0.18024 -0.38268
vertex 0.96194 0.19134 -0.19509
vertex 1 -0.5 -0.5
endloop
endfacet
facet normal 0.8590809257894527 0.19982048424806764 -0.4712236592315845
outer loop
vertex 0.90613 0.18024 -0.38268
vertex 1 -0.5 -0.5
vertex 0.81549 0.16221 -0.55557
endloop
endfacet
facet normal 0.7400193008330963 0.6073217206473761 -0.28901861881962854
outer loop
vertex 0.65328 0.65328 -0.38268
vertex 0.69352 0.69352 -0.19509
vertex 0.81549 0.5449 -0.19509
endloop
endfacet
facet normal 0.7400119064930892 0.6073383432575423 -0.2890026211951146
outer loop
vertex 0.65328 0.65328 -0.38268
vertex 0.81549 0.5449 -0.19509
vertex 0.76818 0.51328 -0.38268
endloop
endfacet
facet normal 0.682449660414552 0.5600961855830859 -0.4696325413505118
outer loop
vertex 0.65328 0.65328 -0.38268
vertex 0.76818 0.51328 -0.38268
vertex 0.69134 0.46194 -0.55557
endloop
endfacet
facet normal 0.6824895763455675 0.5600747793185044 -0.46960006361900813
outer loop
vertex 0.65328 0.65328 -0.38268
vertex 0.69134 0.46194 -0.55557
vertex 0.58794 0.58794 -0.55557
endloop
endfacet
facet normal 1 0 0
outer loop
vertex 1 1 2.5
vertex 1 1 3.5
vertex 1 0 3.5
endloop
endfacet
facet normal 1 0 0
outer loop
vertex 1 1 2.5
vertex 1 -0.5 -0.5
vertex 1 0 0
endloop
endfacet
facet normal 1 0 0
outer loop
vertex 1 1 2.5
vertex 1 0 3.5
vertex 1 -1.5 0.5
endloop
endfacet
facet normal 1 0 0
outer loop
vertex 1 1 2.5
vertex 1 -1.5 0.5
vertex 1 -1.5 -0.5
endloop
endfacet
facet normal 1 0 0
outer loop
vertex 1 1 2.5
vertex 1 -1.5 -0.5
vertex 1 -0.5 -0.5
endloop
endfacet
facet normal 0.9944234188889391 0.09791826273441236 -0.03916730509376485
outer loop
vertex 1 1 2.5
vertex 1 0 0
vertex 0.98079 0.19509 0
endloop
endfacet
facet normal 0.95486870654524 0.2805165881006222 -0.09765345391232327
outer loop
vertex 1 1 2.5
vertex 0.98079 0.19509 0
vertex 0.96194 0.19134 -0.19509
endloop
endfacet
facet normal 0.9521375313912144 0.28881349870614526 -0.10010436694450324
outer loop
vertex 1 1 2.5
vertex 0.96194 0.19134 -0.19509
vertex 0.90613 0.37533 -0.19509
endloop
endfacet
facet normal 0.8733994672185026 0.4668569187278713 -0.13862895836856642
outer loop
vertex 1 1 2.5
vertex 0.90613 0.37533 -0.19509
vertex 0.81549 0.5449 -0.19509
endloop
endfacet
facet normal 0.7632945177372124 0.6264233099744847 -0.1580358057938994
outer loop
vertex 1 1 2.5
vertex 0.81549 0.5449 -0.19509
vertex 0.69352 0.69352 -0.19509
endloop
endfacet
facet normal -0.6830823372917623 -0.36509284187029595 -0.6325391191816475
outer loop
vertex -0.65328 -0.2706 -0.70711
vertex -0.58794 -0.39285 -0.70711
vertex -0.69134 -0.46194 -0.55557
endloop
endfacet
facet normal -0.6830494300779757 -0.36511664839785535 -0.6325609133774149
outer loop
vertex -0.65328 -0.2706 -0.70711
vertex -0.69134 -0.46194 -0.55557
vertex -0.76818 -0.31819 -0.55557
endloop
endfacet
facet normal -0.561084994914581 -0.2999073778127518 -0.7715174613806117
outer loop
vertex -0.51328 -0.21261 -0.83147
vertex -0.46194 -0.30866 -0.83147
vertex -0.58794 -0.39285 -0.70711
endloop
endfacet
facet normal -0.561100507583837 -0.29989617313315237 -0.7715105350734044
outer loop
vertex -0.51328 -0.21261 -0.83147
vertex -0.58794 -0.39285 -0.70711
vertex -0.65328 -0.2706 -0.70711
endloop
endfacet
facet normal 0.028591193864006794 -0.29018155692382186 -0.9565444096615157
outer loop
vertex 0 -0.19509 -0.98079
vertex 0.03806 -0.19134 -0.98079
vertex 0.07466 -0.37533 -0.92388
endloop
endfacet
facet normal 0.028568173845523955 -0.290190457048562 -0.956542397429972
outer loop
vertex 0 -0.19509 -0.98079
vertex 0.07466 -0.37533 -0.92388
vertex 0 -0.38268 -0.92388
endloop
endfacet
facet normal -0.009654711880753486 -0.09798888911504598 -0.9951406755572293
outer loop
vertex 0 -0.19509 -0.98079
vertex -0.03806 -0.19134 -0.98079
vertex 0 0 -1
endloop
endfacet
facet normal 0.009654711880753486 -0.09798888911504598 -0.9951406755572293
outer loop
vertex 0 -0.19509 -0.98079
vertex 0 0 -1
vertex 0.03806 -0.19134 -0.98079
endloop
endfacet
facet normal -0.028591193864009684 -0.2901815569238217 -0.9565444096615155
outer loop
vertex -0.07466 -0.37533 -0.92388
vertex -0.03806 -0.19134 -0.98079
vertex 0 -0.19509 -0.98079
endloop
endfacet
facet normal -0.02856817384552372 -0.290190457048562 -0.956542397429972
outer loop
vertex -0.07466 -0.37533 -0.92388
vertex 0 -0.19509 -0.98079
vertex 0 -0.38268 -0.92388
endloop
endfacet
facet normal -0.034898090056880715 -0.3544886263465189 -0.9344088704102395
outer loop
vertex -0.07466 -0.37533 -0.92388
vertex 0 -0.38268 -0.92388
vertex 0 -1.5 -0.5
endloop
endfacet
facet normal -0.18497909487282335 -0.22540318788978922 -0.9565438501967128
outer loop
vertex -0.10839 -0.16221 -0.98079
vertex -0.21261 -0.31819 -0.92388
vertex -0.2706 -0.2706 -0.92388
endloop
endfacet
facet normal -0.18498376689782292 -0.22539654367269105 -0.9565445123383944
outer loop
vertex -0.10839 -0.16221 -0.98079
vertex -0.2706 -0.2706 -0.92388
vertex -0.13795 -0.13795 -0.98079
endloop
endfacet
facet normal -0.062465076913465735 -0.07611161061673738 -0.995140762352503
outer loop
vertex -0.10839 -0.16221 -0.98079
vertex -0.13795 -0.13795 -0.98079
vertex 0 0 -1
endloop
endfacet
facet normal -0.3657665975940002 -0.30016955301773374 -0.8809727779708306
outer loop
vertex -0.31819 -0.21261 -0.92388
vertex -0.2706 -0.2706 -0.92388
vertex -0.39285 -0.39285 -0.83147
endloop
endfacet
facet normal -0.3657706353515676 -0.30016739751086724 -0.8809718359777818
outer loop
vertex -0.31819 -0.21261 -0.92388
vertex -0.39285 -0.39285 -0.83147
vertex -0.46194 -0.30866 -0.83147
endloop
endfacet
facet normal -0.417297578164519 -0.22305109487731822 -0.8809715888336337
outer loop
vertex -0.31819 -0.21261 -0.92388
vertex -0.46194 -0.30866 -0.83147
vertex -0.51328 -0.21261 -0.83147
endloop
endfacet
facet normal -0.4172995731310746 -0.22303072711479494 -0.8809758004776684
outer loop
vertex -0.31819 -0.21261 -0.92388
vertex -0.51328 -0.21261 -0.83147
vertex -0.35355 -0.14645 -0.92388
endloop
endfacet
facet normal -0.9523703752170548 -0.28892477239513 0.09753534900408524
outer loop
vertex -0.98079 -0.19509 0
vertex -0.92388 -0.38268 0
vertex -0.90613 -0.37533 0.19509
endloop
endfacet
facet normal -0.9523780697072975 -0.28888646160315345 0.09757368827205096
outer loop
vertex -0.98079 -0.19509 0
vertex -0.90613 -0.37533 0.19509
vertex -0.96194 -0.19134 0.19509
endloop
endfacet
facet normal -0.9523817008265413 -0.2888875630367368 -0.09753497758978513
outer loop
vertex -0.96194 -0.19134 -0.19509
vertex -0.90613 -0.37533 -0.19509
vertex -0.92388 -0.38268 0
endloop
endfacet
facet normal -0.9523668138663048 -0.28892369197255313 -0.09757331634772144
outer loop
vertex -0.96194 -0.19134 -0.19509
vertex -0.92388 -0.38268 0
vertex -0.98079 -0.19509 0
endloop
endfacet
facet normal -0.916098146099119 -0.27793226312325536 -0.2889945394448531
outer loop
vertex -0.96194 -0.19134 -0.19509
vertex -0.90613 -0.18024 -0.38268
vertex -0.85355 -0.35355 -0.38268
endloop
endfacet
facet normal -0.9160994450519534 -0.2778820046108462 -0.2890387487672899
outer loop
vertex -0.96194 -0.19134 -0.19509
vertex -0.85355 -0.35355 -0.38268
vertex -0.90613 -0.37533 -0.19509
endloop
endfacet
facet normal -0.9527214636845353 -0.09382382368176255 -0.28899637150755086
outer loop
vertex -0.92388 0 -0.38268
vertex -0.90613 -0.18024 -0.38268
vertex -0.96194 -0.19134 -0.19509
endloop
endfacet
facet normal -0.9527087907716575 -0.09385680310465948 -0.2890274390042916
outer loop
vertex -0.92388 0 -0.38268
vertex -0.96194 -0.19134 -0.19509
vertex -0.98079 0 -0.19509
endloop
endfacet
facet normal -0.9618176109502858 0.09475416518455584 0.2567655184133228
outer loop
vertex -0.96194 0.19134 0.19509
vertex -0.98079 0 0.19509
vertex 0 1 3.5
endloop
endfacet
facet normal -0.9369840469423001 0.28421696646475253 0.20317876795867046
outer loop
vertex -0.96194 0.19134 0.19509
vertex 0 1 3.5
vertex -0.90613 0.37533 0.19509
endloop
endfacet
facet normal -0.5600747793185046 0.6824895763455676 -0.4696000636190079
outer loop
vertex -0.46194 0.69134 -0.55557
vertex -0.58794 0.58794 -0.55557
vertex -0.65328 0.65328 -0.38268
endloop
endfacet
facet normal -0.5600961855830862 0.6824496604145517 -0.4696325413505116
outer loop
vertex -0.46194 0.69134 -0.55557
vertex -0.65328 0.65328 -0.38268
vertex -0.51328 0.76818 -0.38268
endloop
endfacet
facet normal -0.7533454411732827 0.6503152083428662 0.09777922101042977
outer loop
vertex -0.70711 0.70711 0
vertex -0.69352 0.69352 0.19509
vertex 0 1 3.5
endloop
endfacet
facet normal -0.6331018943968555 0.7714720253851673 0.06334749686625636
outer loop
vertex -0.70711 0.70711 0
vertex 0 1 3.5
vertex -0.55557 0.83147 0
endloop
endfacet
facet normal 0.290190258855257 -0.028592051253474225 -0.9565417441338552
outer loop
vertex 0.19134 -0.03806 -0.98079
vertex 0.19509 0 -0.98079
vertex 0.38268 0 -0.92388
endloop
endfacet
facet normal 0.2901860209270583 -0.028567737125822133 -0.9565437562673392
outer loop
vertex 0.19134 -0.03806 -0.98079
vertex 0.38268 0 -0.92388
vertex 0.37533 -0.07466 -0.92388
endloop
endfacet
facet normal 0.2790293468363113 -0.08465328282622717 -0.956544011172954
outer loop
vertex 0.19134 -0.03806 -0.98079
vertex 0.37533 -0.07466 -0.92388
vertex 0.35355 -0.14645 -0.92388
endloop
endfacet
facet normal 0.2790451088228094 -0.08462843464298361 -0.9565416118977496
outer loop
vertex 0.19134 -0.03806 -0.98079
vertex 0.35355 -0.14645 -0.92388
vertex 0.18024 -0.07466 -0.98079
endloop
endfacet
facet normal 0.09422510974883194 -0.0285764677107116 -0.9951407006981472
outer loop
vertex 0.19134 -0.03806 -0.98079
vertex 0.18024 -0.07466 -0.98079
vertex 0 0 -1
endloop
endfacet
facet normal 0.09798888911504489 -0.009654711880752035 -0.9951406755572294
outer loop
vertex 0.19134 -0.03806 -0.98079
vertex 0 0 -1
vertex 0.19509 0 -0.98079
endloop
endfacet
facet normal 0.49133884430334474 0.5987301197506923 -0.6325412111332946
outer loop
vertex 0.39285 0.58794 -0.70711
vertex 0.46194 0.69134 -0.55557
vertex 0.58794 0.58794 -0.55557
endloop
endfacet
facet normal 0.49135680678837584 0.5986909466383276 -0.6325643357288125
outer loop
vertex 0.39285 0.58794 -0.70711
vertex 0.58794 0.58794 -0.55557
vertex 0.5 0.5 -0.70711
endloop
endfacet
facet normal 0.6088206086649265 0.18468858871222357 -0.7715099426866484
outer loop
vertex 0.51328 0.21261 -0.83147
vertex 0.65328 0.2706 -0.70711
vertex 0.69352 0.13795 -0.70711
endloop
endfacet
facet normal 0.6088249406381808 0.1847154540681201 -0.7715000924726606
outer loop
vertex 0.51328 0.21261 -0.83147
vertex 0.69352 0.13795 -0.70711
vertex 0.5449 0.10839 -0.83147
endloop
endfacet
facet normal 0.7411815873149269 0.22480639117751836 -0.6325440230616886
outer loop
vertex 0.76818 0.31819 -0.55557
vertex 0.81549 0.16221 -0.55557
vertex 0.69352 0.13795 -0.70711
endloop
endfacet
facet normal 0.7411565855021872 0.22483332831216019 -0.6325637440185894
outer loop
vertex 0.76818 0.31819 -0.55557
vertex 0.69352 0.13795 -0.70711
vertex 0.65328 0.2706 -0.70711
endloop
endfacet
facet normal 0.683065370323115 0.36508377338987513 -0.6325626753711888
outer loop
vertex 0.76818 0.31819 -0.55557
vertex 0.65328 0.2706 -0.70711
vertex 0.58794 0.39285 -0.70711
endloop
endfacet
facet normal 0.6830638586512077 0.36512436103484397 -0.6325408808791886
outer loop
vertex 0.76818 0.31819 -0.55557
vertex 0.58794 0.39285 -0.70711
vertex 0.69134 0.46194 -0.55557
endloop
endfacet
facet normal 0.7786040986760747 0.41619435785926706 -0.4696359377336127
outer loop
vertex 0.76818 0.31819 -0.55557
vertex 0.69134 0.46194 -0.55557
vertex 0.76818 0.51328 -0.38268
endloop
endfacet
facet normal 0.7786469573329369 0.4161590856289536 -0.4695961363604188
outer loop
vertex 0.76818 0.31819 -0.55557
vertex 0.76818 0.51328 -0.38268
vertex 0.85355 0.35355 -0.38268
endloop
endfacet
facet normal 0.8448547810177769 0.25631795272006597 -0.4695971742938816
outer loop
vertex 0.76818 0.31819 -0.55557
vertex 0.85355 0.35355 -0.38268
vertex 0.90613 0.18024 -0.38268
endloop
endfacet
facet normal 0.8448481132508252 0.25624928989547835 -0.4696466405336929
outer loop
vertex 0.76818 0.31819 -0.55557
vertex 0.90613 0.18024 -0.38268
vertex 0.81549 0.16221 -0.55557
endloop
endfacet
facet normal 0.5601065684041365 0.6824623113714453 -0.4696017734081581
outer loop
vertex 0.51328 0.76818 -0.38268
vertex 0.65328 0.65328 -0.38268
vertex 0.58794 0.58794 -0.55557
endloop
endfacet
facet normal 0.5600632430683268 0.6824755186325847 -0.4696342515521766
outer loop
vertex 0.51328 0.76818 -0.38268
vertex 0.58794 0.58794 -0.55557
vertex 0.46194 0.69134 -0.55557
endloop
endfacet
facet normal -0.7786237526288411 0.4162048636660868 -0.46959404095758667
outer loop
vertex -0.69134 0.46194 -0.55557
vertex -0.76818 0.31819 -0.55557
vertex -0.85355 0.35355 -0.38268
endloop
endfacet
facet normal -0.7786292685378167 0.4161496315975304 -0.4696338427940481
outer loop
vertex -0.69134 0.46194 -0.55557
vertex -0.85355 0.35355 -0.38268
vertex -0.76818 0.51328 -0.38268
endloop
endfacet
facet normal -0.682449660414552 0.560096185583086 -0.4696325413505115
outer loop
vertex -0.69134 0.46194 -0.55557
vertex -0.76818 0.51328 -0.38268
vertex -0.65328 0.65328 -0.38268
endloop
endfacet
facet normal -0.6824895763455675 0.5600747793185044 -0.46960006361900813
outer loop
vertex -0.69134 0.46194 -0.55557
vertex -0.65328 0.65328 -0.38268
vertex -0.58794 0.58794 -0.55557
endloop
endfacet
facet normal -0.7411565855021874 -0.2248333283121601 -0.6325637440185892
outer loop
vertex -0.69352 -0.13795 -0.70711
vertex -0.65328 -0.2706 -0.70711
vertex -0.76818 -0.31819 -0.55557
endloop
endfacet
facet normal -0.7411815873149267 -0.22480639117751836 -0.6325440230616886
outer loop
vertex -0.69352 -0.13795 -0.70711
vertex -0.76818 -0.31819 -0.55557
vertex -0.81549 -0.16221 -0.55557
endloop
endfacet
facet normal -0.10827443276190385 -0.35688804077029546 -0.9278510513898381
outer loop
vertex -0.14645 -0.35355 -0.92388
vertex -0.07466 -0.37533 -0.92388
vertex 0 -1.5 -0.5
endloop
endfacet
facet normal -0.19341147549984247 -0.36188074714563356 -0.9119398697229395
outer loop
vertex -0.14645 -0.35355 -0.92388
vertex 0 -1.5 -0.5
vertex -0.21261 -0.31819 -0.92388
endloop
endfacet
facet normal 0.28881349870614564 0.9521375313912143 -0.10010436694450318
outer loop
vertex 0.19134 0.96194 -0.19509
vertex 1 1 2.5
vertex 0.37533 0.90613 -0.19509
endloop
endfacet
facet normal -0.9904383215307008 -0.09757375541368131 -0.09752586066228258
outer loop
vertex -1 0 0
vertex -0.98079 0 -0.19509
vertex -0.96194 -0.19134 -0.19509
endloop
endfacet
facet normal -0.9904384105005078 -0.097525869422906 -0.09757284355051773
outer loop
vertex -1 0 0
vertex -0.96194 -0.19134 -0.19509
vertex -0.98079 -0.19509 0
endloop
endfacet
facet normal -0.9904384105005078 -0.097525869422906 0.09757284355051773
outer loop
vertex -1 0 0
vertex -0.98079 -0.19509 0
vertex -0.96194 -0.19134 0.19509
endloop
endfacet
facet normal -0.9904383215307008 -0.09757375541368131 0.09752586066228258
outer loop
vertex -1 0 0
vertex -0.96194 -0.19134 0.19509
vertex -0.98079 0 0.19509
endloop
endfacet
facet normal -0.8718095455510873 0.4660070602627263 0.15094878625314756
outer loop
vertex -0.81549 0.5449 0.19509
vertex -0.90613 0.37533 0.19509
vertex 0 1 3.5
endloop
endfacet
facet normal -0.7689105659899164 0.6310323087995566 0.10283368494889028
outer loop
vertex -0.81549 0.5449 0.19509
vertex 0 1 3.5
vertex -0.69352 0.69352 0.19509
endloop
endfacet
facet normal 0.2999118123456639 0.5610932913089408 -0.7715097039335536
outer loop
vertex 0.30866 0.46194 -0.83147
vertex 0.21261 0.51328 -0.83147
vertex 0.2706 0.65328 -0.70711
endloop
endfacet
facet normal 0.29989268911267875 0.5610939890423192 -0.7715166300717983
outer loop
vertex 0.30866 0.46194 -0.83147
vertex 0.2706 0.65328 -0.70711
vertex 0.39285 0.58794 -0.70711
endloop
endfacet
facet normal 0.4036186144955751 0.49178683810781093 -0.771516506561327
outer loop
vertex 0.30866 0.46194 -0.83147
vertex 0.39285 0.58794 -0.70711
vertex 0.5 0.5 -0.70711
endloop
endfacet
facet normal 0.40360543866015824 0.49181563005932405 -0.7715050459415618
outer loop
vertex 0.30866 0.46194 -0.83147
vertex 0.5 0.5 -0.70711
vertex 0.39285 0.39285 -0.83147
endloop
endfacet
facet normal 0.3001664899481691 0.36576952943604446 -0.8809726043687911
outer loop
vertex 0.30866 0.46194 -0.83147
vertex 0.39285 0.39285 -0.83147
vertex 0.2706 0.2706 -0.92388
endloop
endfacet
facet normal 0.3001708706237895 0.36576820314086267 -0.8809716624273796
outer loop
vertex 0.30866 0.46194 -0.83147
vertex 0.2706 0.2706 -0.92388
vertex 0.21261 0.31819 -0.92388
endloop
endfacet
facet normal 0.49181563005932427 0.4036054386601584 -0.7715050459415614
outer loop
vertex 0.46194 0.30866 -0.83147
vertex 0.39285 0.39285 -0.83147
vertex 0.5 0.5 -0.70711
endloop
endfacet
facet normal 0.49178683810781165 0.4036186144955748 -0.7715165065613268
outer loop
vertex 0.46194 0.30866 -0.83147
vertex 0.5 0.5 -0.70711
vertex 0.58794 0.39285 -0.70711
endloop
endfacet
facet normal 0.5610939890423184 0.2998926891126804 -0.771516630071798
outer loop
vertex 0.46194 0.30866 -0.83147
vertex 0.58794 0.39285 -0.70711
vertex 0.65328 0.2706 -0.70711
endloop
endfacet
facet normal 0.56109329130894 0.29991181234566516 -0.7715097039335538
outer loop
vertex 0.46194 0.30866 -0.83147
vertex 0.65328 0.2706 -0.70711
vertex 0.51328 0.21261 -0.83147
endloop
endfacet
facet normal 0.3657682031408633 0.30017087062379116 -0.8809716624273788
outer loop
vertex 0.46194 0.30866 -0.83147
vertex 0.31819 0.21261 -0.92388
vertex 0.2706 0.2706 -0.92388
endloop
endfacet
facet normal 0.36576952943604213 0.30016648994816836 -0.8809726043687923
outer loop
vertex 0.46194 0.30866 -0.83147
vertex 0.2706 0.2706 -0.92388
vertex 0.39285 0.39285 -0.83147
endloop
endfacet
facet normal 0.22304807950521358 0.4172919368226704 -0.8809750244427026
outer loop
vertex 0.14645 0.35355 -0.92388
vertex 0.21261 0.51328 -0.83147
vertex 0.30866 0.46194 -0.83147
endloop
endfacet
facet normal 0.22303510454870235 0.41730776348817655 -0.8809708126104097
outer loop
vertex 0.14645 0.35355 -0.92388
vertex 0.30866 0.46194 -0.83147
vertex 0.21261 0.31819 -0.92388
endloop
endfacet
facet normal 0.18498559242309873 0.2253987680142975 -0.9565436351643936
outer loop
vertex 0.13795 0.13795 -0.98079
vertex 0.10839 0.16221 -0.98079
vertex 0.21261 0.31819 -0.92388
endloop
endfacet
facet normal 0.1849781643339195 0.2254020539971407 -0.9565442973399212
outer loop
vertex 0.13795 0.13795 -0.98079
vertex 0.21261 0.31819 -0.92388
vertex 0.2706 0.2706 -0.92388
endloop
endfacet
facet normal 0.062465076913465735 0.07611161061673738 -0.995140762352503
outer loop
vertex 0.13795 0.13795 -0.98079
vertex 0 0 -1
vertex 0.10839 0.16221 -0.98079
endloop
endfacet
facet normal 0.09422510974883194 0.0285764677107116 -0.9951407006981472
outer loop
vertex 0.19134 0.03806 -0.98079
vertex 0 0 -1
vertex 0.18024 0.07466 -0.98079
endloop
endfacet
facet normal 0.2901860209270583 0.028567737125822133 -0.9565437562673392
outer loop
vertex 0.19134 0.03806 -0.98079
vertex 0.37533 0.07466 -0.92388
vertex 0.38268 0 -0.92388
endloop
endfacet
facet normal 0.290190258855257 0.028592051253474225 -0.9565417441338552
outer loop
vertex 0.19134 0.03806 -0.98079
vertex 0.38268 0 -0.92388
vertex 0.19509 0 -0.98079
endloop
endfacet
facet normal 0.09798888911504489 0.009654711880752035 -0.9951406755572294
outer loop
vertex 0.19134 0.03806 -0.98079
vertex 0.19509 0 -0.98079
vertex 0 0 -1
endloop
endfacet
facet normal 0.2790293468363105 0.08465328282622721 -0.9565440111729542
outer loop
vertex 0.35355 0.14645 -0.92388
vertex 0.37533 0.07466 -0.92388
vertex 0.19134 0.03806 -0.98079
endloop
endfacet
facet normal 0.279045108822811 0.08462843464298354 -0.9565416118977489
outer loop
vertex 0.35355 0.14645 -0.92388
vertex 0.19134 0.03806 -0.98079
vertex 0.18024 0.07466 -0.98079
endloop
endfacet
facet normal 0.4173077634881771 0.22303510454869982 -0.88097081261041
outer loop
vertex 0.35355 0.14645 -0.92388
vertex 0.31819 0.21261 -0.92388
vertex 0.46194 0.30866 -0.83147
endloop
endfacet
facet normal 0.41729193682266985 0.22304807950521474 -0.8809750244427024
outer loop
vertex 0.35355 0.14645 -0.92388
vertex 0.46194 0.30866 -0.83147
vertex 0.51328 0.21261 -0.83147
endloop
endfacet
facet normal 0.45277974921843156 0.13737186404036436 -0.880976429689109
outer loop
vertex 0.35355 0.14645 -0.92388
vertex 0.51328 0.21261 -0.83147
vertex 0.5449 0.10839 -0.83147
endloop
endfacet
facet normal 0.45277920431912305 0.13736636119334922 -0.8809775677896913
outer loop
vertex 0.35355 0.14645 -0.92388
vertex 0.5449 0.10839 -0.83147
vertex 0.37533 0.07466 -0.92388
endloop
endfacet
facet normal 0.36512436103484397 0.6830638586512077 -0.6325408808791886
outer loop
vertex 0.31819 0.76818 -0.55557
vertex 0.46194 0.69134 -0.55557
vertex 0.39285 0.58794 -0.70711
endloop
endfacet
facet normal 0.36508377338987497 0.6830653703231147 -0.6325626753711895
outer loop
vertex 0.31819 0.76818 -0.55557
vertex 0.39285 0.58794 -0.70711
vertex 0.2706 0.65328 -0.70711
endloop
endfacet
facet normal 0.4161590856289543 0.7786469573329368 -0.4695961363604179
outer loop
vertex 0.31819 0.76818 -0.55557
vertex 0.35355 0.85355 -0.38268
vertex 0.51328 0.76818 -0.38268
endloop
endfacet
facet normal 0.4161943578592668 0.778604098676075 -0.46963593773361245
outer loop
vertex 0.31819 0.76818 -0.55557
vertex 0.51328 0.76818 -0.38268
vertex 0.46194 0.69134 -0.55557
endloop
endfacet
facet normal 0.6073217206473752 0.7400193008330967 -0.2890186188196288
outer loop
vertex 0.5449 0.81549 -0.19509
vertex 0.69352 0.69352 -0.19509
vertex 0.65328 0.65328 -0.38268
endloop
endfacet
facet normal 0.6073383432575427 0.7400119064930887 -0.28900262119511577
outer loop
vertex 0.5449 0.81549 -0.19509
vertex 0.65328 0.65328 -0.38268
vertex 0.51328 0.76818 -0.38268
endloop
endfacet
facet normal 0.4512517290165167 0.8443064153192957 -0.2889957683259136
outer loop
vertex 0.5449 0.81549 -0.19509
vertex 0.51328 0.76818 -0.38268
vertex 0.35355 0.85355 -0.38268
endloop
endfacet
facet normal 0.4512876295959104 0.844272322932244 -0.289039305466051
outer loop
vertex 0.5449 0.81549 -0.19509
vertex 0.35355 0.85355 -0.38268
vertex 0.37533 0.90613 -0.19509
endloop
endfacet
facet normal 0.4668569187278708 0.8733994672185029 -0.13862895836856662
outer loop
vertex 0.5449 0.81549 -0.19509
vertex 0.37533 0.90613 -0.19509
vertex 1 1 2.5
endloop
endfacet
facet normal 0.6264233099744844 0.7632945177372125 -0.15803580579389984
outer loop
vertex 0.5449 0.81549 -0.19509
vertex 1 1 2.5
vertex 0.69352 0.69352 -0.19509
endloop
endfacet
facet normal 0 1 0
outer loop
vertex 0 1 0
vertex 0 1 3.5
vertex 1 1 3.5
endloop
endfacet
facet normal 0 1 0
outer loop
vertex 0 1 0
vertex 1 1 3.5
vertex 1 1 2.5
endloop
endfacet
facet normal -0.5987067253643543 0.4913697566826078 -0.6325393420342854
outer loop
vertex -0.5 0.5 -0.70711
vertex -0.58794 0.39285 -0.70711
vertex -0.69134 0.46194 -0.55557
endloop
endfacet
facet normal -0.5987167004706263 0.4913278319735121 -0.6325624665641921
outer loop
vertex -0.5 0.5 -0.70711
vertex -0.69134 0.46194 -0.55557
vertex -0.58794 0.58794 -0.55557
endloop
endfacet
facet normal -0.491327831973513 0.5987167004706266 -0.6325624665641911
outer loop
vertex -0.5 0.5 -0.70711
vertex -0.58794 0.58794 -0.55557
vertex -0.46194 0.69134 -0.55557
endloop
endfacet
facet normal -0.491369756682607 0.5987067253643552 -0.6325393420342847
outer loop
vertex -0.5 0.5 -0.70711
vertex -0.46194 0.69134 -0.55557
vertex -0.39285 0.58794 -0.70711
endloop
endfacet
facet normal -0.8448309274236794 0.2563107158498472 -0.4696440364882586
outer loop
vertex -0.81549 0.16221 -0.55557
vertex -0.90613 0.18024 -0.38268
vertex -0.85355 0.35355 -0.38268
endloop
endfacet
facet normal -0.8448746182358353 0.25625732907255755 -0.4695945706217762
outer loop
vertex -0.81549 0.16221 -0.55557
vertex -0.85355 0.35355 -0.38268
vertex -0.76818 0.31819 -0.55557
endloop
endfacet
facet normal -0.7411732439297994 0.22483838172434994 -0.6325424290797841
outer loop
vertex -0.65328 0.2706 -0.70711
vertex -0.69352 0.13795 -0.70711
vertex -0.81549 0.16221 -0.55557
endloop
endfacet
facet normal -0.7411674201293816 0.2248020941551562 -0.6325621501498592
outer loop
vertex -0.65328 0.2706 -0.70711
vertex -0.81549 0.16221 -0.55557
vertex -0.76818 0.31819 -0.55557
endloop
endfacet
facet normal -0.6830494300779757 0.36511664839785535 -0.6325609133774149
outer loop
vertex -0.65328 0.2706 -0.70711
vertex -0.76818 0.31819 -0.55557
vertex -0.69134 0.46194 -0.55557
endloop
endfacet
facet normal -0.6830823372917623 0.36509284187029595 -0.6325391191816475
outer loop
vertex -0.65328 0.2706 -0.70711
vertex -0.69134 0.46194 -0.55557
vertex -0.58794 0.39285 -0.70711
endloop
endfacet
facet normal -0.6088121391409035 -0.1847115701365891 -0.7715111244125733
outer loop
vertex -0.5449 -0.10839 -0.83147
vertex -0.51328 -0.21261 -0.83147
vertex -0.65328 -0.2706 -0.70711
endloop
endfacet
facet normal -0.6088306667362094 -0.1846916398753495 -0.7715012750486528
outer loop
vertex -0.5449 -0.10839 -0.83147
vertex -0.65328 -0.2706 -0.70711
vertex -0.69352 -0.13795 -0.70711
endloop
endfacet
facet normal -0.6331605389926421 -0.062375148422689486 -0.7715031255424664
outer loop
vertex -0.5449 -0.10839 -0.83147
vertex -0.69352 -0.13795 -0.70711
vertex -0.70711 0 -0.70711
endloop
endfacet
facet normal -0.6331426513229489 -0.06232707897053102 -0.7715216901051766
outer loop
vertex -0.5449 -0.10839 -0.83147
vertex -0.70711 0 -0.70711
vertex -0.55557 0 -0.83147
endloop
endfacet
facet normal -0.08462540902343853 -0.2790351324556692 -0.9565447898572564
outer loop
vertex -0.07466 -0.18024 -0.98079
vertex -0.03806 -0.19134 -0.98079
vertex -0.07466 -0.37533 -0.92388
endloop
endfacet
facet normal -0.08465482579755791 -0.279034432690845 -0.9565423910324536
outer loop
vertex -0.07466 -0.18024 -0.98079
vertex -0.07466 -0.37533 -0.92388
vertex -0.14645 -0.35355 -0.92388
endloop
endfacet
facet normal -0.13744592117375418 -0.2571669158612991 -0.9565426264098665
outer loop
vertex -0.07466 -0.18024 -0.98079
vertex -0.14645 -0.35355 -0.92388
vertex -0.21261 -0.31819 -0.92388
endloop
endfacet
facet normal -0.13745905048438797 -0.25715439671870477 -0.9565441054589012
outer loop
vertex -0.07466 -0.18024 -0.98079
vertex -0.21261 -0.31819 -0.92388
vertex -0.10839 -0.16221 -0.98079
endloop
endfacet
facet normal -0.04641679795409712 -0.08683519661629874 -0.9951407586348261
outer loop
vertex -0.07466 -0.18024 -0.98079
vertex -0.10839 -0.16221 -0.98079
vertex 0 0 -1
endloop
endfacet
facet normal -0.028576467710716473 -0.09422510974883279 -0.995140700698147
outer loop
vertex -0.07466 -0.18024 -0.98079
vertex 0 0 -1
vertex -0.03806 -0.19134 -0.98079
endloop
endfacet
facet normal 0.2778857630351395 0.9161118355283161 -0.288995860709661
outer loop
vertex 0.18024 0.90613 -0.38268
vertex 0.19134 0.96194 -0.19509
vertex 0.37533 0.90613 -0.19509
endloop
endfacet
facet normal 0.2779282724863136 0.9160849924800879 -0.28904006972309365
outer loop
vertex 0.18024 0.90613 -0.38268
vertex 0.37533 0.90613 -0.19509
vertex 0.35355 0.85355 -0.38268
endloop
endfacet
facet normal 0.2563179527200667 0.8448547810177773 -0.46959717429388087
outer loop
vertex 0.18024 0.90613 -0.38268
vertex 0.35355 0.85355 -0.38268
vertex 0.31819 0.76818 -0.55557
endloop
endfacet
facet normal 0.25624928989547746 0.8448481132508255 -0.469646640533693
outer loop
vertex 0.18024 0.90613 -0.38268
vertex 0.31819 0.76818 -0.55557
vertex 0.16221 0.81549 -0.55557
endloop
endfacet
facet normal -0.09422510974883194 -0.0285764677107116 -0.9951407006981472
outer loop
vertex -0.18024 -0.07466 -0.98079
vertex -0.19134 -0.03806 -0.98079
vertex 0 0 -1
endloop
endfacet
facet normal -0.13736708967622813 0.45278160550304425 -0.8809762201058372
outer loop
vertex -0.07466 0.37533 -0.92388
vertex -0.14645 0.35355 -0.92388
vertex -0.21261 0.51328 -0.83147
endloop
endfacet
facet normal -0.13737136222233065 0.45277809521857787 -0.8809773580129161
outer loop
vertex -0.07466 0.37533 -0.92388
vertex -0.21261 0.51328 -0.83147
vertex -0.10839 0.5449 -0.83147
endloop
endfacet
facet normal -0.04635407625806197 0.4708826921847454 -0.8809771789411505
outer loop
vertex -0.07466 0.37533 -0.92388
vertex -0.10839 0.5449 -0.83147
vertex 0 0.55557 -0.83147
endloop
endfacet
facet normal -0.04635673351184255 0.4708834998631533 -0.8809766074163035
outer loop
vertex -0.07466 0.37533 -0.92388
vertex 0 0.55557 -0.83147
vertex 0 0.38268 -0.92388
endloop
endfacet
facet normal -0.0623270789705305 0.6331426513229492 -0.7715216901051763
outer loop
vertex 0 0.70711 -0.70711
vertex 0 0.55557 -0.83147
vertex -0.10839 0.5449 -0.83147
endloop
endfacet
facet normal -0.062375148422690575 0.6331605389926425 -0.771503125542466
outer loop
vertex 0 0.70711 -0.70711
vertex -0.10839 0.5449 -0.83147
vertex -0.13795 0.69352 -0.70711
endloop
endfacet
facet normal -0.8442835680012599 0.451293640405932 -0.28899707080215037
outer loop
vertex -0.90613 0.37533 -0.19509
vertex -0.81549 0.5449 -0.19509
vertex -0.76818 0.51328 -0.38268
endloop
endfacet
facet normal -0.8442944768732634 0.4512453483420188 -0.2890406060071712
outer loop
vertex -0.90613 0.37533 -0.19509
vertex -0.76818 0.51328 -0.38268
vertex -0.85355 0.35355 -0.38268
endloop
endfacet
facet normal -0.6073246930790811 0.7400229227302848 -0.2890030986168261
outer loop
vertex -0.69352 0.69352 -0.19509
vertex -0.5449 0.81549 -0.19509
vertex -0.51328 0.76818 -0.38268
endloop
endfacet
facet normal -0.6073351877859708 0.7400080617061437 -0.2890190967512281
outer loop
vertex -0.69352 0.69352 -0.19509
vertex -0.51328 0.76818 -0.38268
vertex -0.65328 0.65328 -0.38268
endloop
endfacet
facet normal -0.7400080617061436 0.607335187785972 -0.28901909675122633
outer loop
vertex -0.69352 0.69352 -0.19509
vertex -0.65328 0.65328 -0.38268
vertex -0.76818 0.51328 -0.38268
endloop
endfacet
facet normal -0.7400229227302852 0.6073246930790807 -0.2890030986168261
outer loop
vertex -0.69352 0.69352 -0.19509
vertex -0.76818 0.51328 -0.38268
vertex -0.81549 0.5449 -0.19509
endloop
endfacet
facet normal -0.6313490774183405 0.7693361144417441 -0.09757195016340427
outer loop
vertex -0.69352 0.69352 -0.19509
vertex -0.70711 0.70711 0
vertex -0.55557 0.83147 0
endloop
endfacet
facet normal -0.6313700197245087 0.7693220655198527 -0.09754720753225628
outer loop
vertex -0.69352 0.69352 -0.19509
vertex -0.55557 0.83147 0
vertex -0.5449 0.81549 -0.19509
endloop
endfacet
facet normal -0.7693220655198528 0.6313700197245085 0.09754720753225565
outer loop
vertex -0.83147 0.55557 0
vertex -0.81549 0.5449 0.19509
vertex -0.69352 0.69352 0.19509
endloop
endfacet
facet normal -0.769336114441744 0.6313490774183408 0.09757195016340443
outer loop
vertex -0.83147 0.55557 0
vertex -0.69352 0.69352 0.19509
vertex -0.70711 0.70711 0
endloop
endfacet
facet normal -0.769336114441744 0.6313490774183408 -0.09757195016340443
outer loop
vertex -0.83147 0.55557 0
vertex -0.70711 0.70711 0
vertex -0.69352 0.69352 -0.19509
endloop
endfacet
facet normal -0.7693220655198528 0.6313700197245085 -0.09754720753225565
outer loop
vertex -0.83147 0.55557 0
vertex -0.69352 0.69352 -0.19509
vertex -0.81549 0.5449 -0.19509
endloop
endfacet
facet normal 0.08683519661630316 0.04641679795410217 -0.9951407586348254
outer loop
vertex 0.16221 0.10839 -0.98079
vertex 0.18024 0.07466 -0.98079
vertex 0 0 -1
endloop
endfacet
facet normal 0.07611161061673818 0.06246507691346585 -0.995140762352503
outer loop
vertex 0.16221 0.10839 -0.98079
vertex 0 0 -1
vertex 0.13795 0.13795 -0.98079
endloop
endfacet
facet normal 0.22539654367268613 0.18498376689781837 -0.9565445123383963
outer loop
vertex 0.16221 0.10839 -0.98079
vertex 0.13795 0.13795 -0.98079
vertex 0.2706 0.2706 -0.92388
endloop
endfacet
facet normal 0.2254031878897908 0.18497909487282332 -0.9565438501967124
outer loop
vertex 0.16221 0.10839 -0.98079
vertex 0.2706 0.2706 -0.92388
vertex 0.31819 0.21261 -0.92388
endloop
endfacet
facet normal 0.25716402601840826 0.1374443766628015 -0.9565436252705766
outer loop
vertex 0.16221 0.10839 -0.98079
vertex 0.31819 0.21261 -0.92388
vertex 0.35355 0.14645 -0.92388
endloop
endfacet
facet normal 0.25716006466276886 0.13746208022145592 -0.9565421462977105
outer loop
vertex 0.16221 0.10839 -0.98079
vertex 0.35355 0.14645 -0.92388
vertex 0.18024 0.07466 -0.98079
endloop
endfacet
facet normal -0.4691611229247881 0.8777101899200835 -0.09753288289803998
outer loop
vertex -0.38268 0.92388 0
vertex -0.37533 0.90613 -0.19509
vertex -0.5449 0.81549 -0.19509
endloop
endfacet
facet normal -0.46914187748903186 0.877718203647643 -0.09755333808548504
outer loop
vertex -0.38268 0.92388 0
vertex -0.5449 0.81549 -0.19509
vertex -0.55557 0.83147 0
endloop
endfacet
facet normal -0.4711436515445798 0.8814633255658741 0.03234293263743038
outer loop
vertex -0.38268 0.92388 0
vertex -0.55557 0.83147 0
vertex 0 1 3.5
endloop
endfacet
facet normal -0.2902916095589552 0.9568758221255385 0.010928973018807044
outer loop
vertex -0.19509 0.98079 0
vertex -0.38268 0.92388 0
vertex 0 1 3.5
endloop
endfacet
facet normal -0.09799345637611763 0.9951870590534535 0
outer loop
vertex -0.19509 0.98079 0
vertex 0 1 3.5
vertex 0 1 0
endloop
endfacet
facet normal 0.09757329954021055 0.9904336941126715 -0.09757329954021075
outer loop
vertex 0.19509 0.98079 0
vertex 0.19134 0.96194 -0.19509
vertex 0 0.98079 -0.19509
endloop
endfacet
facet normal 0.09752631631837114 0.9904429490135906 -0.09752631631837128
outer loop
vertex 0.19509 0.98079 0
vertex 0 0.98079 -0.19509
vertex 0 1 0
endloop
endfacet
facet normal 0.09791826273441215 0.9944234188889394 -0.03916730509376486
outer loop
vertex 0.19509 0.98079 0
vertex 0 1 0
vertex 1 1 2.5
endloop
endfacet
facet normal 0.28051658810062446 0.9548687065452391 -0.097653453912324
outer loop
vertex 0.19509 0.98079 0
vertex 1 1 2.5
vertex 0.19134 0.96194 -0.19509
endloop
endfacet
facet normal -0.18469163987534867 0.6088306667362086 -0.7715012750486537
outer loop
vertex -0.2706 0.65328 -0.70711
vertex -0.13795 0.69352 -0.70711
vertex -0.10839 0.5449 -0.83147
endloop
endfacet
facet normal -0.18471157013659115 0.6088121391409044 -0.7715111244125721
outer loop
vertex -0.2706 0.65328 -0.70711
vertex -0.10839 0.5449 -0.83147
vertex -0.21261 0.51328 -0.83147
endloop
endfacet
facet normal -0.36509284187029606 0.6830823372917615 -0.6325391191816483
outer loop
vertex -0.2706 0.65328 -0.70711
vertex -0.39285 0.58794 -0.70711
vertex -0.46194 0.69134 -0.55557
endloop
endfacet
facet normal -0.3651166483978549 0.6830494300779766 -0.6325609133774143
outer loop
vertex -0.2706 0.65328 -0.70711
vertex -0.46194 0.69134 -0.55557
vertex -0.31819 0.76818 -0.55557
endloop
endfacet
facet normal -0.8786018122275876 -0.08655481757842766 -0.4696457378752245
outer loop
vertex -0.83147 0 -0.55557
vertex -0.81549 -0.16221 -0.55557
vertex -0.90613 -0.18024 -0.38268
endloop
endfacet
facet normal -0.8786171415206462 -0.08652604450727615 -0.46962236131599794
outer loop
vertex -0.83147 0 -0.55557
vertex -0.90613 -0.18024 -0.38268
vertex -0.92388 0 -0.38268
endloop
endfacet
facet normal -0.8786171415206462 0.08652604450727615 -0.46962236131599794
outer loop
vertex -0.83147 0 -0.55557
vertex -0.92388 0 -0.38268
vertex -0.90613 0.18024 -0.38268
endloop
endfacet
facet normal -0.8786018122275876 0.08655481757842766 -0.4696457378752245
outer loop
vertex -0.83147 0 -0.55557
vertex -0.90613 0.18024 -0.38268
vertex -0.81549 0.16221 -0.55557
endloop
endfacet
facet normal -0.7707928840628033 0.07593409954579643 -0.6325443402673959
outer loop
vertex -0.83147 0 -0.55557
vertex -0.81549 0.16221 -0.55557
vertex -0.69352 0.13795 -0.70711
endloop
endfacet
facet normal -0.7707927898296201 0.0759338456961546 -0.6325444855695634
outer loop
vertex -0.83147 0 -0.55557
vertex -0.69352 0.13795 -0.70711
vertex -0.70711 0 -0.70711
endloop
endfacet
facet normal -0.7707927898296201 -0.0759338456961546 -0.6325444855695634
outer loop
vertex -0.83147 0 -0.55557
vertex -0.70711 0 -0.70711
vertex -0.69352 -0.13795 -0.70711
endloop
endfacet
facet normal -0.7707928840628033 -0.07593409954579643 -0.6325443402673959
outer loop
vertex -0.83147 0 -0.55557
vertex -0.69352 -0.13795 -0.70711
vertex -0.81549 -0.16221 -0.55557
endloop
endfacet
facet normal 0.09385680310466074 0.9527087907716572 -0.2890274390042917
outer loop
vertex 0 0.92388 -0.38268
vertex 0 0.98079 -0.19509
vertex 0.19134 0.96194 -0.19509
endloop
endfacet
facet normal 0.09382382368176066 0.9527214636845355 -0.28899637150755075
outer loop
vertex 0 0.92388 -0.38268
vertex 0.19134 0.96194 -0.19509
vertex 0.18024 0.90613 -0.38268
endloop
endfacet
facet normal 0.08652488996473222 0.8786054178728647 -0.46964450715518813
outer loop
vertex 0 0.92388 -0.38268
vertex 0.18024 0.90613 -0.38268
vertex 0.16221 0.81549 -0.55557
endloop
endfacet
facet normal 0.08655610089129001 0.8786148388971305 -0.4696211305598016
outer loop
vertex 0 0.92388 -0.38268
vertex 0.16221 0.81549 -0.55557
vertex 0 0.83147 -0.55557
endloop
endfacet
facet normal -0.25716402601840826 -0.1374443766628015 -0.9565436252705766
outer loop
vertex -0.16221 -0.10839 -0.98079
vertex -0.31819 -0.21261 -0.92388
vertex -0.35355 -0.14645 -0.92388
endloop
endfacet
facet normal -0.25716006466276886 -0.13746208022145592 -0.9565421462977105
outer loop
vertex -0.16221 -0.10839 -0.98079
vertex -0.35355 -0.14645 -0.92388
vertex -0.18024 -0.07466 -0.98079
endloop
endfacet
facet normal -0.08683519661630316 -0.04641679795410217 -0.9951407586348254
outer loop
vertex -0.16221 -0.10839 -0.98079
vertex -0.18024 -0.07466 -0.98079
vertex 0 0 -1
endloop
endfacet
facet normal -0.07611161061673818 -0.06246507691346585 -0.995140762352503
outer loop
vertex -0.16221 -0.10839 -0.98079
vertex 0 0 -1
vertex -0.13795 -0.13795 -0.98079
endloop
endfacet
facet normal -0.22539654367268613 -0.18498376689781837 -0.9565445123383963
outer loop
vertex -0.16221 -0.10839 -0.98079
vertex -0.13795 -0.13795 -0.98079
vertex -0.2706 -0.2706 -0.92388
endloop
endfacet
facet normal -0.2254031878897908 -0.18497909487282332 -0.9565438501967124
outer loop
vertex -0.16221 -0.10839 -0.98079
vertex -0.2706 -0.2706 -0.92388
vertex -0.31819 -0.21261 -0.92388
endloop
endfacet
facet normal -0.40360543866015824 0.49181563005932405 -0.7715050459415618
outer loop
vertex -0.30866 0.46194 -0.83147
vertex -0.39285 0.39285 -0.83147
vertex -0.5 0.5 -0.70711
endloop
endfacet
facet normal -0.4036186144955751 0.49178683810781093 -0.771516506561327
outer loop
vertex -0.30866 0.46194 -0.83147
vertex -0.5 0.5 -0.70711
vertex -0.39285 0.58794 -0.70711
endloop
endfacet
facet normal -0.29989268911267875 0.5610939890423192 -0.7715166300717983
outer loop
vertex -0.30866 0.46194 -0.83147
vertex -0.39285 0.58794 -0.70711
vertex -0.2706 0.65328 -0.70711
endloop
endfacet
facet normal -0.2999118123456639 0.5610932913089408 -0.7715097039335536
outer loop
vertex -0.30866 0.46194 -0.83147
vertex -0.2706 0.65328 -0.70711
vertex -0.21261 0.51328 -0.83147
endloop
endfacet
facet normal -0.09798888911504489 -0.009654711880752035 -0.9951406755572294
outer loop
vertex -0.19509 0 -0.98079
vertex 0 0 -1
vertex -0.19134 -0.03806 -0.98079
endloop
endfacet
facet normal -0.4708826921847452 -0.04635407625806086 -0.8809771789411509
outer loop
vertex -0.37533 -0.07466 -0.92388
vertex -0.5449 -0.10839 -0.83147
vertex -0.55557 0 -0.83147
endloop
endfacet
facet normal -0.47088349986315364 -0.046356733511842566 -0.8809766074163033
outer loop
vertex -0.37533 -0.07466 -0.92388
vertex -0.55557 0 -0.83147
vertex -0.38268 0 -0.92388
endloop
endfacet
facet normal -0.29019045704856317 -0.028568173845525596 -0.9565423974299717
outer loop
vertex -0.37533 -0.07466 -0.92388
vertex -0.38268 0 -0.92388
vertex -0.19509 0 -0.98079
endloop
endfacet
facet normal -0.2901815569238217 -0.028591193864013306 -0.9565444096615157
outer loop
vertex -0.37533 -0.07466 -0.92388
vertex -0.19509 0 -0.98079
vertex -0.19134 -0.03806 -0.98079
endloop
endfacet
facet normal -0.2790351324556684 -0.08462540902344039 -0.9565447898572564
outer loop
vertex -0.37533 -0.07466 -0.92388
vertex -0.19134 -0.03806 -0.98079
vertex -0.18024 -0.07466 -0.98079
endloop
endfacet
facet normal -0.2790344326908452 -0.08465482579755694 -0.9565423910324536
outer loop
vertex -0.37533 -0.07466 -0.92388
vertex -0.18024 -0.07466 -0.98079
vertex -0.35355 -0.14645 -0.92388
endloop
endfacet
facet normal -0.4527816055030446 -0.13736708967622627 -0.8809762201058374
outer loop
vertex -0.37533 -0.07466 -0.92388
vertex -0.35355 -0.14645 -0.92388
vertex -0.51328 -0.21261 -0.83147
endloop
endfacet
facet normal -0.45277809521857804 -0.1373713622223323 -0.8809773580129157
outer loop
vertex -0.37533 -0.07466 -0.92388
vertex -0.51328 -0.21261 -0.83147
vertex -0.5449 -0.10839 -0.83147
endloop
endfacet
facet normal -0.028591193864006794 0.29018155692382186 -0.9565444096615157
outer loop
vertex 0 0.19509 -0.98079
vertex -0.03806 0.19134 -0.98079
vertex -0.07466 0.37533 -0.92388
endloop
endfacet
facet normal -0.028568173845523955 0.290190457048562 -0.956542397429972
outer loop
vertex 0 0.19509 -0.98079
vertex -0.07466 0.37533 -0.92388
vertex 0 0.38268 -0.92388
endloop
endfacet
facet normal 0.009654711880753486 0.09798888911504598 -0.9951406755572293
outer loop
vertex 0 0.19509 -0.98079
vertex 0.03806 0.19134 -0.98079
vertex 0 0 -1
endloop
endfacet
facet normal -0.009654711880753486 0.09798888911504598 -0.9951406755572293
outer loop
vertex 0 0.19509 -0.98079
vertex 0 0 -1
vertex -0.03806 0.19134 -0.98079
endloop
endfacet
facet normal 0.04641679795409712 0.08683519661629874 -0.9951407586348261
outer loop
vertex 0.07466 0.18024 -0.98079
vertex 0.10839 0.16221 -0.98079
vertex 0 0 -1
endloop
endfacet
facet normal 0.028576467710716473 0.09422510974883279 -0.995140700698147
outer loop
vertex 0.07466 0.18024 -0.98079
vertex 0 0 -1
vertex 0.03806 0.19134 -0.98079
endloop
endfacet
facet normal 0.13744592117375418 0.2571669158612991 -0.9565426264098665
outer loop
vertex 0.07466 0.18024 -0.98079
vertex 0.14645 0.35355 -0.92388
vertex 0.21261 0.31819 -0.92388
endloop
endfacet
facet normal 0.13745905048438797 0.25715439671870477 -0.9565441054589012
outer loop
vertex 0.07466 0.18024 -0.98079
vertex 0.21261 0.31819 -0.92388
vertex 0.10839 0.16221 -0.98079
endloop
endfacet
facet normal 0.0846548257975598 0.279034432690845 -0.9565423910324536
outer loop
vertex 0.07466 0.37533 -0.92388
vertex 0.14645 0.35355 -0.92388
vertex 0.07466 0.18024 -0.98079
endloop
endfacet
facet normal 0.08462540902344083 0.27903513245566913 -0.9565447898572563
outer loop
vertex 0.07466 0.37533 -0.92388
vertex 0.07466 0.18024 -0.98079
vertex 0.03806 0.19134 -0.98079
endloop
endfacet
facet normal 0.028591193864009684 0.2901815569238217 -0.9565444096615155
outer loop
vertex 0.07466 0.37533 -0.92388
vertex 0.03806 0.19134 -0.98079
vertex 0 0.19509 -0.98079
endloop
endfacet
facet normal 0.02856817384552372 0.290190457048562 -0.956542397429972
outer loop
vertex 0.07466 0.37533 -0.92388
vertex 0 0.19509 -0.98079
vertex 0 0.38268 -0.92388
endloop
endfacet
facet normal 0.04635673351184255 0.4708834998631533 -0.8809766074163035
outer loop
vertex 0.07466 0.37533 -0.92388
vertex 0 0.38268 -0.92388
vertex 0 0.55557 -0.83147
endloop
endfacet
facet normal 0.04635407625806197 0.4708826921847454 -0.8809771789411505
outer loop
vertex 0.07466 0.37533 -0.92388
vertex 0 0.55557 -0.83147
vertex 0.10839 0.5449 -0.83147
endloop
endfacet
facet normal 0.13737136222233065 0.45277809521857787 -0.8809773580129161
outer loop
vertex 0.07466 0.37533 -0.92388
vertex 0.10839 0.5449 -0.83147
vertex 0.21261 0.51328 -0.83147
endloop
endfacet
facet normal 0.13736708967622813 0.45278160550304425 -0.8809762201058372
outer loop
vertex 0.07466 0.37533 -0.92388
vertex 0.21261 0.51328 -0.83147
vertex 0.14645 0.35355 -0.92388
endloop
endfacet
facet normal -0.028576467710716473 0.09422510974883279 -0.995140700698147
outer loop
vertex -0.07466 0.18024 -0.98079
vertex -0.03806 0.19134 -0.98079
vertex 0 0 -1
endloop
endfacet
facet normal -0.08465482579755791 0.279034432690845 -0.9565423910324536
outer loop
vertex -0.07466 0.18024 -0.98079
vertex -0.14645 0.35355 -0.92388
vertex -0.07466 0.37533 -0.92388
endloop
endfacet
facet normal -0.08462540902343853 0.2790351324556692 -0.9565447898572564
outer loop
vertex -0.07466 0.18024 -0.98079
vertex -0.07466 0.37533 -0.92388
vertex -0.03806 0.19134 -0.98079
endloop
endfacet
facet normal 0.18468858871222563 0.6088206086649263 -0.7715099426866481
outer loop
vertex 0.13795 0.69352 -0.70711
vertex 0.2706 0.65328 -0.70711
vertex 0.21261 0.51328 -0.83147
endloop
endfacet
facet normal 0.18471545406811846 0.6088249406381815 -0.7715000924726606
outer loop
vertex 0.13795 0.69352 -0.70711
vertex 0.21261 0.51328 -0.83147
vertex 0.10839 0.5449 -0.83147
endloop
endfacet
facet normal 0.062329549138102715 0.6331677442435689 -0.7715008975715784
outer loop
vertex 0.13795 0.69352 -0.70711
vertex 0.10839 0.5449 -0.83147
vertex 0 0.55557 -0.83147
endloop
endfacet
facet normal 0.06237320614965763 0.6331408232777967 -0.771519462524262
outer loop
vertex 0.13795 0.69352 -0.70711
vertex 0 0.55557 -0.83147
vertex 0 0.70711 -0.70711
endloop
endfacet
facet normal 0.07593384569615454 0.7707927898296202 -0.6325444855695633
outer loop
vertex 0.13795 0.69352 -0.70711
vertex 0 0.70711 -0.70711
vertex 0 0.83147 -0.55557
endloop
endfacet
facet normal 0.0759340995457958 0.7707928840628038 -0.6325443402673953
outer loop
vertex 0.13795 0.69352 -0.70711
vertex 0 0.83147 -0.55557
vertex 0.16221 0.81549 -0.55557
endloop
endfacet
facet normal 0.22480639117751847 0.7411815873149272 -0.6325440230616879
outer loop
vertex 0.13795 0.69352 -0.70711
vertex 0.16221 0.81549 -0.55557
vertex 0.31819 0.76818 -0.55557
endloop
endfacet
facet normal 0.2248333283121601 0.7411565855021869 -0.6325637440185897
outer loop
vertex 0.13795 0.69352 -0.70711
vertex 0.31819 0.76818 -0.55557
vertex 0.2706 0.65328 -0.70711
endloop
endfacet
facet normal -0.4162048636660872 0.7786237526288411 -0.4695940409575863
outer loop
vertex -0.35355 0.85355 -0.38268
vertex -0.31819 0.76818 -0.55557
vertex -0.46194 0.69134 -0.55557
endloop
endfacet
facet normal -0.4161496315975306 0.7786292685378167 -0.4696338427940475
outer loop
vertex -0.35355 0.85355 -0.38268
vertex -0.46194 0.69134 -0.55557
vertex -0.51328 0.76818 -0.38268
endloop
endfacet
facet normal -0.4512517290165167 0.8443064153192957 -0.2889957683259134
outer loop
vertex -0.35355 0.85355 -0.38268
vertex -0.51328 0.76818 -0.38268
vertex -0.5449 0.81549 -0.19509
endloop
endfacet
facet normal -0.4512876295959104 0.844272322932244 -0.289039305466051
outer loop
vertex -0.35355 0.85355 -0.38268
vertex -0.5449 0.81549 -0.19509
vertex -0.37533 0.90613 -0.19509
endloop
endfacet
facet normal -0.07593408885231936 0.770792775515312 -0.6325444738226473
outer loop
vertex -0.16221 0.81549 -0.55557
vertex 0 0.83147 -0.55557
vertex 0 0.70711 -0.70711
endloop
endfacet
facet normal -0.0759338582701549 0.7707929174663707 -0.6325443285271704
outer loop
vertex -0.16221 0.81549 -0.55557
vertex 0 0.70711 -0.70711
vertex -0.13795 0.69352 -0.70711
endloop
endfacet
facet normal -0.2248383817243517 0.7411732439297992 -0.6325424290797834
outer loop
vertex -0.16221 0.81549 -0.55557
vertex -0.13795 0.69352 -0.70711
vertex -0.2706 0.65328 -0.70711
endloop
endfacet
facet normal -0.2248020941551555 0.7411674201293812 -0.6325621501498596
outer loop
vertex -0.16221 0.81549 -0.55557
vertex -0.2706 0.65328 -0.70711
vertex -0.31819 0.76818 -0.55557
endloop
endfacet
facet normal -0.256257329072557 0.8448746182358354 -0.4695945706217765
outer loop
vertex -0.16221 0.81549 -0.55557
vertex -0.31819 0.76818 -0.55557
vertex -0.35355 0.85355 -0.38268
endloop
endfacet
facet normal -0.2563107158498475 0.8448309274236799 -0.46964403648825725
outer loop
vertex -0.16221 0.81549 -0.55557
vertex -0.35355 0.85355 -0.38268
vertex -0.18024 0.90613 -0.38268
endloop
endfacet
facet normal -0.08652488996473232 0.8786054178728647 -0.46964450715518846
outer loop
vertex -0.16221 0.81549 -0.55557
vertex -0.18024 0.90613 -0.38268
vertex 0 0.92388 -0.38268
endloop
endfacet
facet normal -0.08655610089129022 0.8786148388971305 -0.4696211305598016
outer loop
vertex -0.16221 0.81549 -0.55557
vertex 0 0.92388 -0.38268
vertex 0 0.83147 -0.55557
endloop
endfacet
facet normal -0.877710189920083 0.46916112292478906 0.09753288289804021
outer loop
vertex -0.92388 0.38268 0
vertex -0.90613 0.37533 0.19509
vertex -0.81549 0.5449 0.19509
endloop
endfacet
facet normal -0.8777182036476434 0.4691418774890313 0.09755333808548504
outer loop
vertex -0.92388 0.38268 0
vertex -0.81549 0.5449 0.19509
vertex -0.83147 0.55557 0
endloop
endfacet
facet normal -0.8777182036476434 0.4691418774890313 -0.09755333808548504
outer loop
vertex -0.92388 0.38268 0
vertex -0.83147 0.55557 0
vertex -0.81549 0.5449 -0.19509
endloop
endfacet
facet normal -0.877710189920083 0.46916112292478906 -0.09753288289804021
outer loop
vertex -0.92388 0.38268 0
vertex -0.81549 0.5449 -0.19509
vertex -0.90613 0.37533 -0.19509
endloop
endfacet
facet normal -0.2888875630367372 0.9523817008265412 -0.09753497758978527
outer loop
vertex -0.19134 0.96194 -0.19509
vertex -0.37533 0.90613 -0.19509
vertex -0.38268 0.92388 0
endloop
endfacet
facet normal -0.2889236919725541 0.9523668138663046 -0.09757331634772037
outer loop
vertex -0.19134 0.96194 -0.19509
vertex -0.38268 0.92388 0
vertex -0.19509 0.98079 0
endloop
endfacet
facet normal -0.09752586942290585 0.990438410500508 -0.09757284355051819
outer loop
vertex -0.19134 0.96194 -0.19509
vertex -0.19509 0.98079 0
vertex 0 1 0
endloop
endfacet
facet normal -0.09757375541368112 0.990438321530701 -0.09752586066228246
outer loop
vertex -0.19134 0.96194 -0.19509
vertex 0 1 0
vertex 0 0.98079 -0.19509
endloop
endfacet
facet normal -0.0938568031046607 0.9527087907716572 -0.2890274390042917
outer loop
vertex -0.19134 0.96194 -0.19509
vertex 0 0.98079 -0.19509
vertex 0 0.92388 -0.38268
endloop
endfacet
facet normal -0.09382382368176077 0.9527214636845356 -0.2889963715075506
outer loop
vertex -0.19134 0.96194 -0.19509
vertex 0 0.92388 -0.38268
vertex -0.18024 0.90613 -0.38268
endloop
endfacet
facet normal -0.27793226312325675 0.9160981460991183 -0.2889945394448541
outer loop
vertex -0.19134 0.96194 -0.19509
vertex -0.18024 0.90613 -0.38268
vertex -0.35355 0.85355 -0.38268
endloop
endfacet
facet normal -0.27788200461084583 0.9160994450519537 -0.2890387487672897
outer loop
vertex -0.19134 0.96194 -0.19509
vertex -0.35355 0.85355 -0.38268
vertex -0.37533 0.90613 -0.19509
endloop
endfacet
facet normal -0.6331426513229489 0.06232707897053102 -0.7715216901051766
outer loop
vertex -0.5449 0.10839 -0.83147
vertex -0.55557 0 -0.83147
vertex -0.70711 0 -0.70711
endloop
endfacet
facet normal -0.6331605389926421 0.062375148422689486 -0.7715031255424664
outer loop
vertex -0.5449 0.10839 -0.83147
vertex -0.70711 0 -0.70711
vertex -0.69352 0.13795 -0.70711
endloop
endfacet
facet normal -0.6088306667362094 0.1846916398753495 -0.7715012750486528
outer loop
vertex -0.5449 0.10839 -0.83147
vertex -0.69352 0.13795 -0.70711
vertex -0.65328 0.2706 -0.70711
endloop
endfacet
facet normal -0.6088121391409035 0.1847115701365891 -0.7715111244125733
outer loop
vertex -0.5449 0.10839 -0.83147
vertex -0.65328 0.2706 -0.70711
vertex -0.51328 0.21261 -0.83147
endloop
endfacet
facet normal -0.47088224560451003 0.0463566100347326 -0.8809772843158565
outer loop
vertex -0.5449 0.10839 -0.83147
vertex -0.37533 0.07466 -0.92388
vertex -0.38268 0 -0.92388
endloop
endfacet
facet normal -0.47088355613022276 0.046354161305558285 -0.8809767126864442
outer loop
vertex -0.5449 0.10839 -0.83147
vertex -0.38268 0 -0.92388
vertex -0.55557 0 -0.83147
endloop
endfacet
facet normal -0.45277920431912305 0.13736636119334922 -0.8809775677896913
outer loop
vertex -0.35355 0.14645 -0.92388
vertex -0.37533 0.07466 -0.92388
vertex -0.5449 0.10839 -0.83147
endloop
endfacet
facet normal -0.45277974921843156 0.13737186404036436 -0.880976429689109
outer loop
vertex -0.35355 0.14645 -0.92388
vertex -0.5449 0.10839 -0.83147
vertex -0.51328 0.21261 -0.83147
endloop
endfacet
facet normal -0.36576952943604213 0.30016648994816836 -0.8809726043687923
outer loop
vertex -0.46194 0.30866 -0.83147
vertex -0.39285 0.39285 -0.83147
vertex -0.2706 0.2706 -0.92388
endloop
endfacet
facet normal -0.3657682031408633 0.30017087062379116 -0.8809716624273788
outer loop
vertex -0.46194 0.30866 -0.83147
vertex -0.2706 0.2706 -0.92388
vertex -0.31819 0.21261 -0.92388
endloop
endfacet
facet normal -0.41730776348817783 0.22303510454869968 -0.8809708126104097
outer loop
vertex -0.46194 0.30866 -0.83147
vertex -0.31819 0.21261 -0.92388
vertex -0.35355 0.14645 -0.92388
endloop
endfacet
facet normal -0.41729193682266935 0.22304807950521485 -0.8809750244427028
outer loop
vertex -0.46194 0.30866 -0.83147
vertex -0.35355 0.14645 -0.92388
vertex -0.51328 0.21261 -0.83147
endloop
endfacet
facet normal -0.56109329130894 0.29991181234566516 -0.7715097039335538
outer loop
vertex -0.46194 0.30866 -0.83147
vertex -0.51328 0.21261 -0.83147
vertex -0.65328 0.2706 -0.70711
endloop
endfacet
facet normal -0.5610939890423184 0.2998926891126804 -0.771516630071798
outer loop
vertex -0.46194 0.30866 -0.83147
vertex -0.65328 0.2706 -0.70711
vertex -0.58794 0.39285 -0.70711
endloop
endfacet
facet normal -0.49178683810781165 0.4036186144955748 -0.7715165065613268
outer loop
vertex -0.46194 0.30866 -0.83147
vertex -0.58794 0.39285 -0.70711
vertex -0.5 0.5 -0.70711
endloop
endfacet
facet normal -0.49181563005932427 0.4036054386601584 -0.7715050459415614
outer loop
vertex -0.46194 0.30866 -0.83147
vertex -0.5 0.5 -0.70711
vertex -0.39285 0.39285 -0.83147
endloop
endfacet
facet normal -0.25716006466276886 0.13746208022145592 -0.9565421462977105
outer loop
vertex -0.16221 0.10839 -0.98079
vertex -0.18024 0.07466 -0.98079
vertex -0.35355 0.14645 -0.92388
endloop
endfacet
facet normal -0.25716402601840826 0.1374443766628015 -0.9565436252705766
outer loop
vertex -0.16221 0.10839 -0.98079
vertex -0.35355 0.14645 -0.92388
vertex -0.31819 0.21261 -0.92388
endloop
endfacet
facet normal -0.2254031878897908 0.18497909487282332 -0.9565438501967124
outer loop
vertex -0.16221 0.10839 -0.98079
vertex -0.31819 0.21261 -0.92388
vertex -0.2706 0.2706 -0.92388
endloop
endfacet
facet normal -0.22539654367268613 0.18498376689781837 -0.9565445123383963
outer loop
vertex -0.16221 0.10839 -0.98079
vertex -0.2706 0.2706 -0.92388
vertex -0.13795 0.13795 -0.98079
endloop
endfacet
facet normal -0.07611161061673818 0.06246507691346585 -0.995140762352503
outer loop
vertex -0.16221 0.10839 -0.98079
vertex -0.13795 0.13795 -0.98079
vertex 0 0 -1
endloop
endfacet
facet normal -0.08683519661630316 0.04641679795410217 -0.9951407586348254
outer loop
vertex -0.16221 0.10839 -0.98079
vertex 0 0 -1
vertex -0.18024 0.07466 -0.98079
endloop
endfacet
facet normal -0.09422510974883194 0.0285764677107116 -0.9951407006981472
outer loop
vertex -0.19134 0.03806 -0.98079
vertex -0.18024 0.07466 -0.98079
vertex 0 0 -1
endloop
endfacet
facet normal -0.09798888911504489 0.009654711880752035 -0.9951406755572294
outer loop
vertex -0.19134 0.03806 -0.98079
vertex 0 0 -1
vertex -0.19509 0 -0.98079
endloop
endfacet
facet normal -0.290190258855257 0.028592051253474225 -0.9565417441338552
outer loop
vertex -0.19134 0.03806 -0.98079
vertex -0.19509 0 -0.98079
vertex -0.38268 0 -0.92388
endloop
endfacet
facet normal -0.2901860209270583 0.028567737125822133 -0.9565437562673392
outer loop
vertex -0.19134 0.03806 -0.98079
vertex -0.38268 0 -0.92388
vertex -0.37533 0.07466 -0.92388
endloop
endfacet
facet normal -0.2790293468363113 0.08465328282622717 -0.956544011172954
outer loop
vertex -0.19134 0.03806 -0.98079
vertex -0.37533 0.07466 -0.92388
vertex -0.35355 0.14645 -0.92388
endloop
endfacet
facet normal -0.2790451088228094 0.08462843464298361 -0.9565416118977496
outer loop
vertex -0.19134 0.03806 -0.98079
vertex -0.35355 0.14645 -0.92388
vertex -0.18024 0.07466 -0.98079
endloop
endfacet
facet normal -0.30016955301773524 0.36576659759399943 -0.8809727779708304
outer loop
vertex -0.21261 0.31819 -0.92388
vertex -0.2706 0.2706 -0.92388
vertex -0.39285 0.39285 -0.83147
endloop
endfacet
facet normal -0.3001673975108658 0.36577063535156873 -0.8809718359777817
outer loop
vertex -0.21261 0.31819 -0.92388
vertex -0.39285 0.39285 -0.83147
vertex -0.30866 0.46194 -0.83147
endloop
endfacet
facet normal -0.22305109487731808 0.4172975781645191 -0.8809715888336335
outer loop
vertex -0.21261 0.31819 -0.92388
vertex -0.30866 0.46194 -0.83147
vertex -0.21261 0.51328 -0.83147
endloop
endfacet
facet normal -0.22303072711479419 0.4172995731310749 -0.8809758004776688
outer loop
vertex -0.21261 0.31819 -0.92388
vertex -0.21261 0.51328 -0.83147
vertex -0.14645 0.35355 -0.92388
endloop
endfacet
facet normal -0.9904429490135906 0.09752631631837128 0.09752631631837114
outer loop
vertex -0.98079 0.19509 0
vertex -1 0 0
vertex -0.98079 0 0.19509
endloop
endfacet
facet normal -0.9904336941126713 0.09757329954021077 0.09757329954021056
outer loop
vertex -0.98079 0.19509 0
vertex -0.98079 0 0.19509
vertex -0.96194 0.19134 0.19509
endloop
endfacet
facet normal -0.9523780697072975 0.28888646160315345 0.09757368827205096
outer loop
vertex -0.98079 0.19509 0
vertex -0.96194 0.19134 0.19509
vertex -0.90613 0.37533 0.19509
endloop
endfacet
facet normal -0.9523703752170548 0.28892477239513 0.09753534900408524
outer loop
vertex -0.98079 0.19509 0
vertex -0.90613 0.37533 0.19509
vertex -0.92388 0.38268 0
endloop
endfacet
facet normal -0.18498376689782292 0.22539654367269105 -0.9565445123383944
outer loop
vertex -0.10839 0.16221 -0.98079
vertex -0.13795 0.13795 -0.98079
vertex -0.2706 0.2706 -0.92388
endloop
endfacet
facet normal -0.18497909487282335 0.22540318788978922 -0.9565438501967128
outer loop
vertex -0.10839 0.16221 -0.98079
vertex -0.2706 0.2706 -0.92388
vertex -0.21261 0.31819 -0.92388
endloop
endfacet
facet normal -0.13744437666280188 0.2571640260184083 -0.9565436252705767
outer loop
vertex -0.10839 0.16221 -0.98079
vertex -0.21261 0.31819 -0.92388
vertex -0.14645 0.35355 -0.92388
endloop
endfacet
facet normal -0.13746208022146048 0.2571600646627685 -0.9565421462977098
outer loop
vertex -0.10839 0.16221 -0.98079
vertex -0.14645 0.35355 -0.92388
vertex -0.07466 0.18024 -0.98079
endloop
endfacet
facet normal -0.04641679795409712 0.08683519661629874 -0.9951407586348261
outer loop
vertex -0.10839 0.16221 -0.98079
vertex -0.07466 0.18024 -0.98079
vertex 0 0 -1
endloop
endfacet
facet normal -0.062465076913465735 0.07611161061673738 -0.995140762352503
outer loop
vertex -0.10839 0.16221 -0.98079
vertex 0 0 -1
vertex -0.13795 0.13795 -0.98079
endloop
endfacet
facet normal -0.9904383215307008 0.09757375541368131 -0.09752586066228258
outer loop
vertex -0.96194 0.19134 -0.19509
vertex -0.98079 0 -0.19509
vertex -1 0 0
endloop
endfacet
facet normal -0.9904384105005078 0.097525869422906 -0.09757284355051773
outer loop
vertex -0.96194 0.19134 -0.19509
vertex -1 0 0
vertex -0.98079 0.19509 0
endloop
endfacet
facet normal -0.9523668138663048 0.28892369197255313 -0.09757331634772144
outer loop
vertex -0.96194 0.19134 -0.19509
vertex -0.98079 0.19509 0
vertex -0.92388 0.38268 0
endloop
endfacet
facet normal -0.9523817008265413 0.2888875630367368 -0.09753497758978513
outer loop
vertex -0.96194 0.19134 -0.19509
vertex -0.92388 0.38268 0
vertex -0.90613 0.37533 -0.19509
endloop
endfacet
facet normal -0.9160994450519534 0.2778820046108462 -0.2890387487672899
outer loop
vertex -0.96194 0.19134 -0.19509
vertex -0.90613 0.37533 -0.19509
vertex -0.85355 0.35355 -0.38268
endloop
endfacet
facet normal -0.916098146099119 0.27793226312325536 -0.2889945394448531
outer loop
vertex -0.96194 0.19134 -0.19509
vertex -0.85355 0.35355 -0.38268
vertex -0.90613 0.18024 -0.38268
endloop
endfacet
facet normal -0.9527214636845353 0.09382382368176255 -0.2889963715075509
outer loop
vertex -0.96194 0.19134 -0.19509
vertex -0.90613 0.18024 -0.38268
vertex -0.92388 0 -0.38268
endloop
endfacet
facet normal -0.9527087907716575 0.09385680310465948 -0.2890274390042916
outer loop
vertex -0.96194 0.19134 -0.19509
vertex -0.92388 0 -0.38268
vertex -0.98079 0 -0.19509
endloop
endfacet
endsolid JSxCAD
