<svg viewBox="-250 -250 500 500" width="500" height="500" xmlns="http://www.w3.org/2000/svg"><path d="M159.58225701743996,21.583289751070964L135.31396137984507,-57.42851406203449L25.038207093479986,-55.853730039543095z" style="fill:rgb(95,160,246)"/><path d="M135.31396137984507,-57.42851406203449L5.6937095004434415,-82.10910683823143L25.038207093479986,-55.853730039543095z" style="fill:rgb(118,4,159)"/><path d="M129.48359941017708,103.50608850103563L25.038207093479986,-55.853730039543095L15.026648744267334,100.55588811598471zM159.58225701743996,21.583289751070964L138.07077515510107,-54.13082492308037L135.31396137984507,-57.42851406203449z" style="fill:rgb(95,160,246)"/><path d="M135.31396137984507,-57.42851406203449L141.99137845338592,-61.25131081029979L145.5576094543527,-63.64602193027055z" style="fill:rgb(118,4,159)"/><path d="M159.58225701743996,21.583289751070964L25.038207093479986,-55.853730039543095L148.3519142437745,71.17543170178202zM159.58225701743996,21.583289751070964L150.31234418932775,-31.01498416819826L138.07077515510107,-54.13082492308037zM129.48359941017708,103.50608850103563L148.3519142437745,71.17543170178202L25.038207093479986,-55.853730039543095z" style="fill:rgb(95,160,246)"/><path d="M0,0L15.026648744267334,100.55588811598471L25.038207093479986,-55.853730039543095z" style="fill:rgb(250,127,160)"/><path d="M135.31396137984507,-57.42851406203449L145.5576094543527,-63.64602193027055L148.56178720028976,-67.96372646323681z" style="fill:rgb(118,4,159)"/><path d="M159.58225701743996,21.583289751070964L157.62499484283526,-5.441795439093048L150.31234418932775,-31.01498416819826z" style="fill:rgb(95,160,246)"/><path d="M0,0L25.038207093479986,-55.853730039543095L5.6937095004434415,-82.10910683823143z" style="fill:rgb(250,127,160)"/><path d="M159.58225701743996,21.583289751070964L148.3519142437745,71.17543170178202L155.981443433208,48.944401968121426z" style="fill:rgb(95,160,246)"/><path d="M135.31396137984507,-57.42851406203449L148.56178720028976,-67.96372646323681L89.6997095113686,-83.88136603546187z" style="fill:rgb(118,4,159)"/><path d="M129.48359941017708,103.50608850103563L146.8780183024884,75.4658019113316L148.3519142437745,71.17543170178202z" style="fill:rgb(95,160,246)"/><path d="M135.31396137984507,-57.42851406203449L89.6997095113686,-83.88136603546187L5.6937095004434415,-82.10910683823143z" style="fill:rgb(118,4,159)"/><path d="M101.71673339992455,-137.91534714577264L42.720762904406,-159.25226448497645L11.161337762065644,-160.9355177854862zM129.48359941017708,103.50608850103563L132.59820842421598,99.97383170787592L146.8780183024884,75.4658019113316zM101.71673339992455,-137.91534714577264L73.28258547823296,-151.54770559328648L42.720762904406,-159.25226448497645zM89.6997095113686,-83.88136603546187L11.161337762065644,-160.9355177854862L5.6937095004434415,-82.10910683823143zM101.71673339992455,-137.91534714577264L11.161337762065644,-160.9355177854862L89.6997095113686,-83.88136603546187z" style="fill:rgb(95,160,246)"/><path d="M89.6997095113686,-83.88136603546187L148.56178720028976,-67.96372646323681L152.7253735075338,-73.95078476390287z" style="fill:rgb(118,4,159)"/><path d="M0,0L-5.9359950111006095,85.60311138453916L15.026648744267334,100.55588811598471zM-5.988497927449161,-175.76187626083583L11.161337762065644,-160.9355177854862L2.9076592221847397,-171.3784244916151zM5.6937095004434415,-82.10910683823143L11.161337762065644,-160.9355177854862L-16.840472141786133,-112.69369912941096z" style="fill:rgb(250,127,160)"/><path d="M89.6997095113686,-83.88136603546187L152.7253735075338,-73.95078476390287L152.67071044096312,-85.20991291827536z" style="fill:rgb(118,4,159)"/><path d="M101.71673339992455,-137.91534714577264L147.72504752007038,-94.33589624426803L126.89245317652994,-118.66263086344931zM101.71673339992455,-137.91534714577264L89.6997095113686,-83.88136603546187L152.67071044096312,-85.20991291827536zM101.71673339992455,-137.91534714577264L152.67071044096312,-85.20991291827536L147.72504752007038,-94.33589624426803z" style="fill:rgb(95,160,246)"/><path d="M89.6997095113686,-83.88136603546187L-16.840472141786133,-112.69369912941096L5.6937095004434415,-82.10910683823143z" style="fill:rgb(118,4,159)"/><path d="M-5.988497927449161,-175.76187626083583L-16.840472141786133,-112.69369912941096L11.161337762065644,-160.9355177854862zM184.89561947815645,-58.13649806662236L168.6316649159028,-118.09539643302963L181.0265300361076,104.83456657723508z" style="fill:rgb(250,127,160)"/><path d="M-167.0674029326933,-52.422993049229525L-168.58917521072266,-48.02466318041311L-174.92174489536677,-17.535193549828456z" style="fill:rgb(5,153,151)"/><path d="M29.89650737855804,173.14029781683763L-12.131888871810482,174.92991063639803L-2.9695362965634113,175.02548032204334z" style="fill:rgb(134,2,150)"/><path d="M-113.94243787313772,133.389712575035L-103.91285742734509,140.89302050877802L-76.57750930269133,158.36157743531695z" style="fill:rgb(59,22,151)"/><path d="M-22.345020482646493,-172.71174267364546L-5.988497927449161,-175.76187626083583L-36.79936085351077,-171.4909780041675z" style="fill:rgb(109,251,152)"/><path d="M-16.840472141786133,-112.69369912941096L89.6997095113686,-83.88136603546187L177.41033521842527,-85.73181851794587z" style="fill:rgb(118,4,159)"/><path d="M-30.514911244915016,68.07083304690471L0,0L5.6937095004434415,-82.10910683823143z" style="fill:rgb(250,127,160)"/><path d="M-41.50453866743525,-170.0570608405494L-22.345020482646493,-172.71174267364546L-36.79936085351077,-171.4909780041675z" style="fill:rgb(109,251,152)"/><path d="M-167.0674029326933,-52.422993049229525L-174.92174489536677,-17.535193549828456L-169.13476111194598,-42.46111650715668z" style="fill:rgb(5,153,151)"/><path d="M-173.4426156061321,-4.199081430430991L-174.92174489536677,-17.535193549828456L-175.50590568952708,13.399509509600152z" style="fill:rgb(3,132,157)"/><path d="M181.0265300361076,104.83456657723508L163.2720208596591,71.49204116500901L15.026648744267334,100.55588811598471z" style="fill:rgb(118,4,159)"/><path d="M-169.13476111194598,-42.46111650715668L-174.92174489536677,-17.535193549828456L-173.08985323067427,-23.41017432056821z" style="fill:rgb(5,153,151)"/><path d="M29.89650737855804,173.14029781683763L62.32111873819177,164.5507962209466L56.52192161894002,163.89447719965668z" style="fill:rgb(158,6,155)"/><path d="M-22.345020482646493,-172.71174267364546L-12.192405675499753,-174.11719366499653L-5.988497927449161,-175.76187626083583z" style="fill:rgb(109,251,152)"/><path d="M147.15793319972403,90.9168755689231L142.77252105052554,102.94513541881332L147.31812624757828,95.12482984362894z" style="fill:rgb(234,66,159)"/><path d="M-173.08985323067427,-23.41017432056821L-174.92174489536677,-17.535193549828456L-173.4426156061321,-4.199081430430991z" style="fill:rgb(3,132,157)"/><path d="M-154.2649948163319,84.08606795876351L-136.8005250857436,110.74634739197215L-142.03044518647727,98.06912000837467z" style="fill:rgb(21,62,156)"/><path d="M29.89650737855804,173.14029781683763L22.40625491128284,172.94291566205712L-12.131888871810482,174.92991063639803z" style="fill:rgb(134,2,150)"/><path d="M62.32111873819177,164.5507962209466L92.85031269999372,149.53239599900036L88.66584407714396,148.06645851055748z" style="fill:rgb(180,16,159)"/><path d="M-173.63013899460395,5.994351970713963L-175.50590568952708,13.399509509600152L-170.1717098086224,43.715785164569624z" style="fill:rgb(6,111,163)"/><path d="M120.08245640397439,128.68937492776186L88.66584407714396,148.06645851055748L92.85031269999372,149.53239599900036z" style="fill:rgb(201,29,161)"/><path d="M-113.94243787313772,133.389712575035L-76.57750930269133,158.36157743531695L-86.40379655749541,150.97646019141837z" style="fill:rgb(59,22,151)"/><path d="M-167.0674029326933,-52.422993049229525L-169.13476111194598,-42.46111650715668L-166.32291020979733,-54.57581321595571z" style="fill:rgb(5,153,151)"/><path d="M120.08245640397439,128.68937492776186L142.77252105052554,102.94513541881332L141.26537323588516,98.97724292628493z" style="fill:rgb(219,46,161)"/><path d="M-76.57750930269133,158.36157743531695L-45.58632804501563,169.9343709513904L-55.152827089986985,162.6048891353221z" style="fill:rgb(80,13,159)"/><path d="M-5.988497927449161,-175.76187626083583L-12.192405675499753,-174.11719366499653L-16.840472141786133,-112.69369912941096z" style="fill:rgb(250,127,160)"/><path d="M-173.4426156061321,-4.199081430430991L-175.50590568952708,13.399509509600152L-173.63013899460395,5.994351970713963z" style="fill:rgb(3,132,157)"/><path d="M29.89650737855804,173.14029781683763L56.52192161894002,163.89447719965668L22.40625491128284,172.94291566205712z" style="fill:rgb(158,6,155)"/><path d="M-154.2649948163319,84.08606795876351L-142.03044518647727,98.06912000837467L-158.94036492673055,72.30924322910599z" style="fill:rgb(21,62,156)"/><path d="M0,0L-30.514911244915016,68.07083304690471L-5.9359950111006095,85.60311138453916z" style="fill:rgb(250,127,160)"/><path d="M-41.50453866743525,-170.0570608405494L-15.225884788851353,-173.31225726212406L-22.345020482646493,-172.71174267364546z" style="fill:rgb(109,251,152)"/><path d="M-169.13476111194598,-42.46111650715668L-173.08985323067427,-23.41017432056821L-172.19329075210683,-26.283318035330222z" style="fill:rgb(5,153,151)"/><path d="M168.6316649159028,-118.09539643302963L177.41033521842527,-85.73181851794587L179.52973125777834,-167.88795966351387z" style="fill:rgb(250,127,160)"/><path d="M-169.13476111194598,-42.46111650715668L-172.19329075210683,-26.283318035330222L-166.32291020979733,-54.57581321595571z" style="fill:rgb(5,153,151)"/><path d="M-41.50453866743525,-170.0570608405494L-43.80746375690879,-169.3573467909391L-15.225884788851353,-173.31225726212406zM-22.345020482646493,-172.71174267364546L-15.225884788851353,-173.31225726212406L-12.192405675499753,-174.11719366499653z" style="fill:rgb(109,251,152)"/><path d="M147.15793319972403,90.9168755689231L141.26537323588516,98.97724292628493L142.77252105052554,102.94513541881332z" style="fill:rgb(234,66,159)"/><path d="M-55.152827089986985,162.6048891353221L-45.58632804501563,169.9343709513904L-12.131888871810482,174.92991063639803z" style="fill:rgb(103,8,167)"/><path d="M-172.19329075210683,-26.283318035330222L-173.08985323067427,-23.41017432056821L-173.4426156061321,-4.199081430430991z" style="fill:rgb(3,132,157)"/><path d="M-76.57750930269133,158.36157743531695L-55.152827089986985,162.6048891353221L-86.40379655749541,150.97646019141837z" style="fill:rgb(80,13,159)"/><path d="M-173.63013899460395,5.994351970713963L-170.1717098086224,43.715785164569624L-171.88502483796157,15.858260771527064z" style="fill:rgb(6,111,163)"/><path d="M62.32111873819177,164.5507962209466L88.66584407714396,148.06645851055748L56.52192161894002,163.89447719965668z" style="fill:rgb(180,16,159)"/><path d="M-119.89946699944599,119.90692569583098L-136.8005250857436,110.74634739197215L-113.94243787313772,133.389712575035z" style="fill:rgb(37,45,165)"/><path d="M-116.5626882937404,-123.9575464079189L-120.22396495859135,-128.20214931386843L-139.85086929048222,-106.36512145801106z" style="fill:rgb(37,208,167)"/><path d="M-30.514911244915016,68.07083304690471L5.6937095004434415,-82.10910683823143L-16.840472141786133,-112.69369912941096z" style="fill:rgb(250,127,160)"/><path d="M-96.29924766318004,-139.91106042409322L-97.16680618286256,-146.36519654406152L-120.22396495859135,-128.20214931386843z" style="fill:rgb(51,222,167)"/><path d="M-171.88502483796157,15.858260771527064L-170.1717098086224,43.715785164569624L-168.53838395144433,34.77568883766301z" style="fill:rgb(6,111,163)"/><path d="M-155.39939566554992,-81.55946260468919L-133.80518492722177,-104.76690668307636L-139.85086929048222,-106.36512145801106z" style="fill:rgb(26,193,168)"/><path d="M-96.29924766318004,-139.91106042409322L-71.4196341087955,-160.24822790749545L-97.16680618286256,-146.36519654406152z" style="fill:rgb(68,232,168)"/><path d="M120.08245640397439,128.68937492776186L117.35700934072976,126.10085972447288L88.66584407714396,148.06645851055748z" style="fill:rgb(201,29,161)"/><path d="M120.08245640397439,128.68937492776186L141.26537323588516,98.97724292628493L117.35700934072976,126.10085972447288z" style="fill:rgb(219,46,161)"/><path d="M-158.94036492673055,72.30924322910599L-161.55209257609607,52.470702400029225L-170.1717098086224,43.715785164569624z" style="fill:rgb(13,91,170)"/><path d="M-16.840472141786133,-112.69369912941096L-12.192405675499753,-174.11719366499653L-15.225884788851353,-173.31225726212406z" style="fill:rgb(250,127,160)"/><path d="M-173.4426156061321,-4.199081430430991L-173.63013899460395,5.994351970713963L-172.7128191769996,2.374787413577403zM-172.19329075210683,-26.283318035330222L-173.4426156061321,-4.199081430430991L-172.7128191769996,2.374787413577403z" style="fill:rgb(3,132,157)"/><path d="M-173.63013899460395,5.994351970713963L-171.88502483796157,15.858260771527064L-172.7128191769996,2.374787413577403z" style="fill:rgb(6,111,163)"/><path d="M-119.89946699944599,119.90692569583098L-142.03044518647727,98.06912000837467L-136.8005250857436,110.74634739197215z" style="fill:rgb(37,45,165)"/><path d="M-161.55209257609607,52.470702400029225L-168.53838395144433,34.77568883766301L-170.1717098086224,43.715785164569624z" style="fill:rgb(13,91,170)"/><path d="M-155.39939566554992,-81.55946260468919L-166.32291020979733,-54.57581321595571L-157.00191590140457,-59.29333940049198z" style="fill:rgb(17,176,171)"/><path d="M-71.4196341087955,-160.24822790749545L-49.458498798803404,-160.04535157732423L-43.80746375690879,-169.3573467909391z" style="fill:rgb(85,239,171)"/><path d="M-119.89946699944599,119.90692569583098L-113.94243787313772,133.389712575035L-86.40379655749541,150.97646019141837z" style="fill:rgb(55,33,173)"/><path d="M147.08336826111793,88.97885541153242L141.26537323588516,98.97724292628493L147.15793319972403,90.9168755689231z" style="fill:rgb(234,66,159)"/><path d="M13.489451495448368,165.51843909714535L-12.131888871810482,174.92991063639803L22.40625491128284,172.94291566205712z" style="fill:rgb(127,8,173)"/><path d="M-49.458498798803404,-160.04535157732423L-15.225884788851353,-173.31225726212406L-43.80746375690879,-169.3573467909391z" style="fill:rgb(104,243,175)"/><path d="M-96.29924766318004,-139.91106042409322L-120.22396495859135,-128.20214931386843L-116.5626882937404,-123.9575464079189z" style="fill:rgb(51,222,167)"/><path d="M-157.83691603949103,61.88016587098136L-158.94036492673055,72.30924322910599L-142.03044518647727,98.06912000837467z" style="fill:rgb(23,74,178)"/><path d="M-116.5626882937404,-123.9575464079189L-139.85086929048222,-106.36512145801106L-133.80518492722177,-104.76690668307636z" style="fill:rgb(37,208,167)"/><path d="M-171.88502483796157,15.858260771527064L-168.53838395144433,34.77568883766301L-167.73918835489795,30.409131181729318z" style="fill:rgb(6,111,163)"/><path d="M-162.0997703932647,-34.503631768859535L-166.32291020979733,-54.57581321595571L-172.19329075210683,-26.283318035330222z" style="fill:rgb(13,157,174)"/><path d="M-55.152827089986985,162.6048891353221L-12.131888871810482,174.92991063639803L-21.3897665753363,167.58837003502921z" style="fill:rgb(103,8,167)"/><path d="M-171.88502483796157,15.858260771527064L-167.73918835489795,30.409131181729318L-172.7128191769996,2.374787413577403z" style="fill:rgb(6,111,163)"/><path d="M-158.94036492673055,72.30924322910599L-157.83691603949103,61.88016587098136L-161.55209257609607,52.470702400029225z" style="fill:rgb(13,91,170)"/><path d="M-155.39939566554992,-81.55946260468919L-147.44567522599726,-82.9756534227799L-133.80518492722177,-104.76690668307636z" style="fill:rgb(26,193,168)"/><path d="M-96.29924766318004,-139.91106042409322L-73.68427183035703,-152.08602946180403L-71.4196341087955,-160.24822790749545z" style="fill:rgb(68,232,168)"/><path d="M-16.840472141786133,-112.69369912941096L177.41033521842527,-85.73181851794587L168.6316649159028,-118.09539643302963z" style="fill:rgb(118,4,159)"/><path d="M-155.39939566554992,-81.55946260468919L-157.00191590140457,-59.29333940049198L-147.44567522599726,-82.9756534227799z" style="fill:rgb(17,176,171)"/><path d="M168.6316649159028,-118.09539643302963L179.52973125777834,-167.88795966351387L171.12864961234058,-206.45665272397764z" style="fill:rgb(250,127,160)"/><path d="M-161.55209257609607,52.470702400029225L-167.73918835489795,30.409131181729318L-168.53838395144433,34.77568883766301z" style="fill:rgb(13,91,170)"/><path d="M-71.4196341087955,-160.24822790749545L-73.68427183035703,-152.08602946180403L-49.458498798803404,-160.04535157732423z" style="fill:rgb(85,239,171)"/><path d="M-162.0997703932647,-34.503631768859535L-172.19329075210683,-26.283318035330222L-172.7128191769996,2.374787413577403z" style="fill:rgb(11,139,179)"/><path d="M47.96390796499459,156.3153047647775L22.40625491128284,172.94291566205712L56.52192161894002,163.89447719965668z" style="fill:rgb(151,13,178)"/><path d="M-16.840472141786133,-112.69369912941096L-15.225884788851353,-173.31225726212406L-24.42575349519292,-163.46059019360902z" style="fill:rgb(250,127,160)"/><path d="M13.489451495448368,165.51843909714535L-21.3897665753363,167.58837003502921L-12.131888871810482,174.92991063639803z" style="fill:rgb(127,8,173)"/><path d="M-157.83691603949103,61.88016587098136L-142.03044518647727,98.06912000837467L-152.32905878212165,70.22559057739751z" style="fill:rgb(23,74,178)"/><path d="M140.97441091798797,84.14998553944498L141.26537323588516,98.97724292628493L147.08336826111793,88.97885541153242z" style="fill:rgb(228,72,183)"/><path d="M47.96390796499459,156.3153047647775L56.52192161894002,163.89447719965668L88.66584407714396,148.06645851055748z" style="fill:rgb(174,22,182)"/><path d="M-162.0997703932647,-34.503631768859535L-157.00191590140457,-59.29333940049198L-166.32291020979733,-54.57581321595571z" style="fill:rgb(13,157,174)"/><path d="M-119.89946699944599,119.90692569583098L-86.40379655749541,150.97646019141837L-93.2389864207586,136.82093098219164z" style="fill:rgb(55,33,173)"/><path d="M-62.991440868861076,147.95469355981203L-86.40379655749541,150.97646019141837L-55.152827089986985,162.6048891353221z" style="fill:rgb(76,24,181)"/><path d="M15.026648744267334,100.55588811598471L163.2720208596591,71.49204116500901L-30.514911244915016,68.07083304690471z" style="fill:rgb(118,4,159)"/><path d="M-152.32905878212165,70.22559057739751L-142.03044518647727,98.06912000837467L-141.75085871145276,86.2522338537162z" style="fill:rgb(23,74,178)"/><path d="M-161.55209257609607,52.470702400029225L-157.29855073227276,56.79025646734486L-167.73918835489795,30.409131181729318zM-157.83691603949103,61.88016587098136L-157.29855073227276,56.79025646734486L-161.55209257609607,52.470702400029225z" style="fill:rgb(13,91,170)"/><path d="M80.46795623325366,140.26382557532858L88.66584407714396,148.06645851055748L117.35700934072976,126.10085972447288z" style="fill:rgb(195,35,184)"/><path d="M-49.458498798803404,-160.04535157732423L-24.42575349519292,-163.46059019360902L-15.225884788851353,-173.31225726212406z" style="fill:rgb(104,243,175)"/><path d="M141.26537323588516,98.97724292628493L109.49622071720972,118.02102357839105L117.35700934072976,126.10085972447288z" style="fill:rgb(213,52,184)"/><path d="M-128.02609355168883,99.70924323713943L-142.03044518647727,98.06912000837467L-119.89946699944599,119.90692569583098z" style="fill:rgb(37,58,186)"/><path d="M-157.83691603949103,61.88016587098136L-152.32905878212165,70.22559057739751L-157.29855073227276,56.79025646734486z" style="fill:rgb(23,74,178)"/><path d="M47.96390796499459,156.3153047647775L13.489451495448368,165.51843909714535L22.40625491128284,172.94291566205712z" style="fill:rgb(151,13,178)"/><path d="M-172.7128191769996,2.374787413577403L-167.73918835489795,30.409131181729318L-158.04852487578714,14.9950145620157z" style="fill:rgb(14,120,185)"/><path d="M-141.75085871145276,86.2522338537162L-142.03044518647727,98.06912000837467L-128.02609355168883,99.70924323713943z" style="fill:rgb(37,58,186)"/><path d="M-62.991440868861076,147.95469355981203L-93.2389864207586,136.82093098219164L-86.40379655749541,150.97646019141837z" style="fill:rgb(76,24,181)"/><path d="M-62.991440868861076,147.95469355981203L-55.152827089986985,162.6048891353221L-21.3897665753363,167.58837003502921z" style="fill:rgb(98,19,189)"/><path d="M-162.0997703932647,-34.503631768859535L-172.7128191769996,2.374787413577403L-162.48615493458527,-9.44644981782796z" style="fill:rgb(11,139,179)"/><path d="M140.97441091798797,84.14998553944498L133.7048686771233,90.57432644846952L141.26537323588516,98.97724292628493z" style="fill:rgb(228,72,183)"/><path d="M47.96390796499459,156.3153047647775L88.66584407714396,148.06645851055748L80.46795623325366,140.26382557532858z" style="fill:rgb(174,22,182)"/><path d="M-152.32905878212165,70.22559057739751L-141.6147108617569,80.49024971797125L-157.29855073227276,56.79025646734486z" style="fill:rgb(23,74,178)"/><path d="M-96.29924766318004,-139.91106042409322L-116.5626882937404,-123.9575464079189L-107.7029468851626,-114.16308502659537z" style="fill:rgb(57,213,190)"/><path d="M-152.32905878212165,70.22559057739751L-141.75085871145276,86.2522338537162L-141.6147108617569,80.49024971797125z" style="fill:rgb(23,74,178)"/><path d="M-121.66959955018307,-98.60886793331414L-116.5626882937404,-123.9575464079189L-133.80518492722177,-104.76690668307636z" style="fill:rgb(45,202,190)"/><path d="M-121.66959955018307,-98.60886793331414L-133.80518492722177,-104.76690668307636L-147.44567522599726,-82.9756534227799z" style="fill:rgb(36,189,191)"/><path d="M-158.04852487578714,14.9950145620157L-167.73918835489795,30.409131181729318L-157.29855073227276,56.79025646734486z" style="fill:rgb(20,103,191)"/><path d="M-120.72071125507983,106.86947511152515L-119.89946699944599,119.90692569583098L-93.2389864207586,136.82093098219164z" style="fill:rgb(54,47,194)"/><path d="M141.26537323588516,98.97724292628493L133.7048686771233,90.57432644846952L109.49622071720972,118.02102357839105z" style="fill:rgb(213,52,184)"/><path d="M80.46795623325366,140.26382557532858L117.35700934072976,126.10085972447288L109.49622071720972,118.02102357839105z" style="fill:rgb(195,35,184)"/><path d="M-172.7128191769996,2.374787413577403L-158.04852487578714,14.9950145620157L-162.48615493458527,-9.44644981782796z" style="fill:rgb(14,120,185)"/><path d="M-96.29924766318004,-139.91106042409322L-72.95425434555669,-136.91367128899847L-73.68427183035703,-152.08602946180403z" style="fill:rgb(70,222,191)"/><path d="M-128.02609355168883,99.70924323713943L-119.89946699944599,119.90692569583098L-120.72071125507983,106.86947511152515z" style="fill:rgb(37,58,186)"/><path d="M181.0265300361076,104.83456657723508L168.6316649159028,-118.09539643302963L163.2720208596591,71.49204116500901z" style="fill:rgb(250,127,160)"/><path d="M-157.00191590140457,-59.29333940049198L-132.6949554071541,-80.94658116065733L-147.44567522599726,-82.9756534227799z" style="fill:rgb(29,175,193)"/><path d="M-16.840472141786133,-112.69369912941096L-24.42575349519292,-163.46059019360902L-33.134091043789304,-145.98027587344842z" style="fill:rgb(250,127,160)"/><path d="M-141.6147108617569,80.49024971797125L-141.75085871145276,86.2522338537162L-128.02609355168883,99.70924323713943z" style="fill:rgb(37,58,186)"/><path d="M-30.31629177784753,152.6493312538314L-21.3897665753363,167.58837003502921L13.489451495448368,165.51843909714535z" style="fill:rgb(121,19,195)"/><path d="M-53.34845495094984,-143.3003042393166L-49.458498798803404,-160.04535157732423L-73.68427183035703,-152.08602946180403z" style="fill:rgb(85,227,193)"/><path d="M138.56313698207933,82.24369299955022L133.7048686771233,90.57432644846952L140.97441091798797,84.14998553944498z" style="fill:rgb(228,72,183)"/><path d="M-162.0997703932647,-34.503631768859535L-140.38048836213628,-61.77444470679134L-157.00191590140457,-59.29333940049198z" style="fill:rgb(25,160,196)"/><path d="M-120.72071125507983,106.86947511152515L-93.2389864207586,136.82093098219164L-112.05627832722286,112.32146266074488z" style="fill:rgb(54,47,194)"/><path d="M-53.34845495094984,-143.3003042393166L-24.42575349519292,-163.46059019360902L-49.458498798803404,-160.04535157732423z" style="fill:rgb(100,230,197)"/><path d="M-62.991440868861076,147.95469355981203L-21.3897665753363,167.58837003502921L-30.31629177784753,152.6493312538314z" style="fill:rgb(98,19,189)"/><path d="M-121.66959955018307,-98.60886793331414L-107.7029468851626,-114.16308502659537L-116.5626882937404,-123.9575464079189z" style="fill:rgb(45,202,190)"/><path d="M-96.29924766318004,-139.91106042409322L-107.7029468851626,-114.16308502659537L-91.27828840323188,-127.08176556906727z" style="fill:rgb(57,213,190)"/><path d="M-141.6147108617569,80.49024971797125L-128.02609355168883,99.70924323713943L-121.1215443156927,100.51706703444665z" style="fill:rgb(37,58,186)"/><path d="M-96.29924766318004,-139.91106042409322L-91.27828840323188,-127.08176556906727L-72.95425434555669,-136.91367128899847z" style="fill:rgb(70,222,191)"/><path d="M-128.02609355168883,99.70924323713943L-120.72071125507983,106.86947511152515L-121.1215443156927,100.51706703444665z" style="fill:rgb(37,58,186)"/><path d="M-121.66959955018307,-98.60886793331414L-147.44567522599726,-82.9756534227799L-132.6949554071541,-80.94658116065733z" style="fill:rgb(36,189,191)"/><path d="M-95.41591233059057,122.7906872254754L-93.2389864207586,136.82093098219164L-62.991440868861076,147.95469355981203z" style="fill:rgb(73,38,201)"/><path d="M-112.05627832722286,112.32146266074488L-93.2389864207586,136.82093098219164L-95.41591233059057,122.7906872254754z" style="fill:rgb(54,47,194)"/><path d="M47.96390796499459,156.3153047647775L3.4382647190754203,150.52541273480583L13.489451495448368,165.51843909714535z" style="fill:rgb(144,24,200)"/><path d="M-158.04852487578714,14.9950145620157L-157.29855073227276,56.79025646734486L-148.83737784078124,37.92360712047308z" style="fill:rgb(20,103,191)"/><path d="M-135.06496424103756,58.44054364783084L-157.29855073227276,56.79025646734486L-141.6147108617569,80.49024971797125z" style="fill:rgb(29,87,198)"/><path d="M-53.34845495094984,-143.3003042393166L-73.68427183035703,-152.08602946180403L-72.95425434555669,-136.91367128899847z" style="fill:rgb(85,227,193)"/><path d="M-120.72071125507983,106.86947511152515L-112.05627832722286,112.32146266074488L-121.1215443156927,100.51706703444665z" style="fill:rgb(54,47,194)"/><path d="M-157.00191590140457,-59.29333940049198L-140.38048836213628,-61.77444470679134L-132.6949554071541,-80.94658116065733z" style="fill:rgb(29,175,193)"/><path d="M-162.0997703932647,-34.503631768859535L-162.48615493458527,-9.44644981782796L-144.63800660994562,-21.55739410641232z" style="fill:rgb(24,145,200)"/><path d="M-30.31629177784753,152.6493312538314L13.489451495448368,165.51843909714535L3.4382647190754203,150.52541273480583z" style="fill:rgb(121,19,195)"/><path d="M-95.41591233059057,122.7906872254754L-62.991440868861076,147.95469355981203L-85.59075440191559,126.36083574939535z" style="fill:rgb(73,38,201)"/><path d="M68.27082576398685,125.89747011243297L47.96390796499459,156.3153047647775L80.46795623325366,140.26382557532858z" style="fill:rgb(166,33,203)"/><path d="M-162.0997703932647,-34.503631768859535L-144.42510050486055,-41.74595753384008L-140.38048836213628,-61.77444470679134z" style="fill:rgb(25,160,196)"/><path d="M-135.06496424103756,58.44054364783084L-148.83737784078124,37.92360712047308L-157.29855073227276,56.79025646734486z" style="fill:rgb(29,87,198)"/><path d="M133.7048686771233,90.57432644846952L138.56313698207933,82.24369299955022L123.05995952906471,75.88287563055685z" style="fill:rgb(218,81,204)"/><path d="M-53.34845495094984,-143.3003042393166L-33.134091043789304,-145.98027587344842L-24.42575349519292,-163.46059019360902z" style="fill:rgb(100,230,197)"/><path d="M-144.63800660994562,-21.55739410641232L-162.48615493458527,-9.44644981782796L-158.04852487578714,14.9950145620157z" style="fill:rgb(26,130,205)"/><path d="M-121.1215443156927,100.51706703444665L-135.06496424103756,58.44054364783084L-141.6147108617569,80.49024971797125z" style="fill:rgb(41,74,205)"/><path d="M-112.05627832722286,112.32146266074488L-96.47641296958652,115.95971896522114L-121.1215443156927,100.51706703444665z" style="fill:rgb(54,47,194)"/><path d="M68.27082576398685,125.89747011243297L80.46795623325366,140.26382557532858L109.49622071720972,118.02102357839105z" style="fill:rgb(186,45,205)"/><path d="M-112.05627832722286,112.32146266074488L-95.41591233059057,122.7906872254754L-96.47641296958652,115.95971896522114z" style="fill:rgb(54,47,194)"/><path d="M119.87613835978298,77.71821130924509L109.49622071720972,118.02102357839105L133.7048686771233,90.57432644846952z" style="fill:rgb(204,62,205)"/><path d="M-16.840472141786133,-112.69369912941096L-33.134091043789304,-145.98027587344842L-40.853710839402225,-121.12260781385893z" style="fill:rgb(250,127,160)"/><path d="M-85.59075440191559,126.36083574939535L-62.991440868861076,147.95469355981203L-66.73164506973269,133.21488335763476z" style="fill:rgb(73,38,201)"/><path d="M-162.0997703932647,-34.503631768859535L-144.63800660994562,-21.55739410641232L-144.42510050486055,-41.74595753384008z" style="fill:rgb(24,145,200)"/><path d="M-16.840472141786133,-112.69369912941096L-51.3778860253233,-53.19049729160186L-23.523240805463782,-24.353140488030547z" style="fill:rgb(250,127,160)"/><path d="M-46.51062188352144,136.0377666088606L-62.991440868861076,147.95469355981203L-30.31629177784753,152.6493312538314z" style="fill:rgb(94,34,208)"/><path d="M47.96390796499459,156.3153047647775L36.80295060175617,141.511698045659L3.4382647190754203,150.52541273480583z" style="fill:rgb(144,24,200)"/><path d="M-95.41591233059057,122.7906872254754L-85.59075440191559,126.36083574939535L-96.47641296958652,115.95971896522114z" style="fill:rgb(73,38,201)"/><path d="M163.2720208596591,71.49204116500901L-16.840472141786133,-112.69369912941096L-30.514911244915016,68.07083304690471zM-16.840472141786133,-112.69369912941096L163.2720208596591,71.49204116500901L168.6316649159028,-118.09539643302963z" style="fill:rgb(95,160,246)"/><path d="M-66.73164506973269,133.21488335763476L-62.991440868861076,147.95469355981203L-46.51062188352144,136.0377666088606z" style="fill:rgb(94,34,208)"/><path d="M68.27082576398685,125.89747011243297L36.80295060175617,141.511698045659L47.96390796499459,156.3153047647775z" style="fill:rgb(166,33,203)"/><path d="M-140.9461601201171,-1.9318990348019955L-158.04852487578714,14.9950145620157L-148.83737784078124,37.92360712047308z" style="fill:rgb(31,116,210)"/><path d="M-121.66959955018307,-98.60886793331414L-93.60237626298384,-98.78957182344452L-107.7029468851626,-114.16308502659537z" style="fill:rgb(56,193,210)"/><path d="M133.7048686771233,90.57432644846952L123.05995952906471,75.88287563055685L119.87613835978298,77.71821130924509z" style="fill:rgb(218,81,204)"/><path d="M-81.96569116917308,-107.92682600207318L-91.27828840323188,-127.08176556906727L-107.7029468851626,-114.16308502659537z" style="fill:rgb(65,201,210)"/><path d="M-35.77143551926198,137.53665964224544L-30.31629177784753,152.6493312538314L3.4382647190754203,150.52541273480583z" style="fill:rgb(115,34,214)"/><path d="M-81.96569116917308,-107.92682600207318L-72.95425434555669,-136.91367128899847L-91.27828840323188,-127.08176556906727z" style="fill:rgb(75,207,211)"/><path d="M-121.66959955018307,-98.60886793331414L-132.6949554071541,-80.94658116065733L-111.26240727452226,-75.2539397645447z" style="fill:rgb(49,184,211)"/><path d="M-85.59075440191559,126.36083574939535L-68.55045913863393,126.04319199596888L-96.47641296958652,115.95971896522114z" style="fill:rgb(73,38,201)"/><path d="M68.27082576398685,125.89747011243297L109.49622071720972,118.02102357839105L96.39395616600873,104.31387008279523z" style="fill:rgb(186,45,205)"/><path d="M119.87613835978298,77.71821130924509L96.39395616600873,104.31387008279523L109.49622071720972,118.02102357839105z" style="fill:rgb(204,62,205)"/><path d="M-85.59075440191559,126.36083574939535L-66.73164506973269,133.21488335763476L-68.55045913863393,126.04319199596888z" style="fill:rgb(73,38,201)"/><path d="M-144.63800660994562,-21.55739410641232L-158.04852487578714,14.9950145620157L-140.9461601201171,-1.9318990348019955z" style="fill:rgb(26,130,205)"/><path d="M-140.38048836213628,-61.77444470679134L-111.26240727452226,-75.2539397645447L-132.6949554071541,-80.94658116065733z" style="fill:rgb(44,173,212)"/><path d="M-121.1215443156927,100.51706703444665L-117.13688265847887,75.69392462140812L-135.06496424103756,58.44054364783084z" style="fill:rgb(41,74,205)"/><path d="M-46.51062188352144,136.0377666088606L-30.31629177784753,152.6493312538314L-35.77143551926198,137.53665964224544z" style="fill:rgb(94,34,208)"/><path d="M-55.11655679644416,-119.31146177386985L-53.34845495094984,-143.3003042393166L-72.95425434555669,-136.91367128899847z" style="fill:rgb(86,212,213)"/><path d="M-121.1215443156927,100.51706703444665L-96.47641296958652,115.95971896522114L-95.64269718121884,88.91285729842429z" style="fill:rgb(56,64,212)"/><path d="M-68.55045913863393,126.04319199596888L-66.73164506973269,133.21488335763476L-46.51062188352144,136.0377666088606z" style="fill:rgb(94,34,208)"/><path d="M-55.11655679644416,-119.31146177386985L-33.134091043789304,-145.98027587344842L-53.34845495094984,-143.3003042393166z" style="fill:rgb(97,214,215)"/><path d="M-16.840472141786133,-112.69369912941096L-40.853710839402225,-121.12260781385893L-47.08557881939598,-89.71473097663986z" style="fill:rgb(250,127,160)"/><path d="M-119.42414004362108,-47.546161911393376L-140.38048836213628,-61.77444470679134L-144.42510050486055,-41.74595753384008z" style="fill:rgb(41,162,215)"/><path d="M-35.77143551926198,137.53665964224544L3.4382647190754203,150.52541273480583L-24.803126225112244,136.8068636059723z" style="fill:rgb(115,34,214)"/><path d="M-3.807187567590888,135.40962171697922L3.4382647190754203,150.52541273480583L36.80295060175617,141.511698045659z" style="fill:rgb(136,38,218)"/><path d="M68.97615567924164,-24.93631849778021L-51.3778860253233,-53.19049729160186L-23.523240805463782,-24.353140488030547z" style="fill:rgb(118,4,159)"/><path d="M-81.96569116917308,-107.92682600207318L-107.7029468851626,-114.16308502659537L-93.60237626298384,-98.78957182344452z" style="fill:rgb(65,201,210)"/><path d="M-121.66959955018307,-98.60886793331414L-103.48658779464517,-87.76850983118389L-93.60237626298384,-98.78957182344452z" style="fill:rgb(56,193,210)"/><path d="M-121.1215443156927,100.51706703444665L-95.64269718121884,88.91285729842429L-117.13688265847887,75.69392462140812z" style="fill:rgb(56,64,212)"/><path d="M123.05995952906471,75.88287563055685L121.35833074253628,75.18580572561311L119.87613835978298,77.71821130924509z" style="fill:rgb(218,81,204)"/><path d="M-122.23346273030937,32.71962102868289L-148.83737784078124,37.92360712047308L-135.06496424103756,58.44054364783084z" style="fill:rgb(38,103,215)"/><path d="M-140.9461601201171,-1.9318990348019955L-148.83737784078124,37.92360712047308L-133.4107286042732,16.39903548381583z" style="fill:rgb(31,116,210)"/><path d="M171.12864961234058,-206.45665272397764L161.17759908236837,-252.13710382812056L168.6316649159028,-118.09539643302963z" style="fill:rgb(250,127,160)"/><path d="M-121.66959955018307,-98.60886793331414L-111.26240727452226,-75.2539397645447L-103.48658779464517,-87.76850983118389z" style="fill:rgb(49,184,211)"/><path d="M-24.803126225112244,136.8068636059723L3.4382647190754203,150.52541273480583L-3.807187567590888,135.40962171697922z" style="fill:rgb(115,34,214)"/><path d="M-81.96569116917308,-107.92682600207318L-68.98384840502669,-114.85175234436983L-72.95425434555669,-136.91367128899847z" style="fill:rgb(75,207,211)"/><path d="M-144.63800660994562,-21.55739410641232L-119.42414004362108,-47.546161911393376L-144.42510050486055,-41.74595753384008z" style="fill:rgb(41,150,218)"/><path d="M119.6469732107141,74.71707588813858L119.87613835978298,77.71821130924509L121.35833074253628,75.18580572561311z" style="fill:rgb(204,91,222)"/><path d="M-68.55045913863393,126.04319199596888L-46.51062188352144,136.0377666088606L-38.42242630689519,130.1907890425272zM-46.51062188352144,136.0377666088606L-35.77143551926198,137.53665964224544L-38.42242630689519,130.1907890425272z" style="fill:rgb(94,34,208)"/><path d="M-55.11655679644416,-119.31146177386985L-72.95425434555669,-136.91367128899847L-68.98384840502669,-114.85175234436983z" style="fill:rgb(86,212,213)"/><path d="M-140.38048836213628,-61.77444470679134L-116.64467332136121,-61.68684228337927L-111.26240727452226,-75.2539397645447z" style="fill:rgb(44,173,212)"/><path d="M114.81767598371572,73.39768184312074L119.87613835978298,77.71821130924509L119.6469732107141,74.71707588813858z" style="fill:rgb(204,91,222)"/><path d="M38.027277605801416,121.67100564281043L36.80295060175617,141.511698045659L68.27082576398685,125.89747011243297z" style="fill:rgb(157,47,221)"/><path d="M-35.77143551926198,137.53665964224544L-24.803126225112244,136.8068636059723L-38.42242630689519,130.1907890425272z" style="fill:rgb(115,34,214)"/><path d="M-96.47641296958652,115.95971896522114L-68.55045913863393,126.04319199596888L-71.35142944225214,97.4517056974154z" style="fill:rgb(73,57,218)"/><path d="M-122.23346273030937,32.71962102868289L-133.4107286042732,16.39903548381583L-148.83737784078124,37.92360712047308z" style="fill:rgb(38,103,215)"/><path d="M-3.807187567590888,135.40962171697922L36.80295060175617,141.511698045659L7.044072352240839,132.44396920402684z" style="fill:rgb(136,38,218)"/><path d="M-119.42414004362108,-47.546161911393376L-116.64467332136121,-61.68684228337927L-140.38048836213628,-61.77444470679134z" style="fill:rgb(41,162,215)"/><path d="M7.044072352240839,132.44396920402684L36.80295060175617,141.511698045659L27.778371644225626,126.78110523348273z" style="fill:rgb(136,38,218)"/><path d="M96.39395616600873,104.31387008279523L75.01184910313506,98.52204852933644L68.27082576398685,125.89747011243297z" style="fill:rgb(175,58,223)"/><path d="M91.88770785557365,82.7664962988549L96.39395616600873,104.31387008279523L119.87613835978298,77.71821130924509z" style="fill:rgb(191,74,223)"/><path d="M-55.11655679644416,-119.31146177386985L-40.853710839402225,-121.12260781385893L-33.134091043789304,-145.98027587344842z" style="fill:rgb(97,214,215)"/><path d="M-144.63800660994562,-21.55739410641232L-140.9461601201171,-1.9318990348019955L-116.76579446029456,-19.583622136404475z" style="fill:rgb(42,139,221)"/><path d="M38.027277605801416,121.67100564281043L27.778371644225626,126.78110523348273L36.80295060175617,141.511698045659z" style="fill:rgb(157,47,221)"/><path d="M138.59796433445803,-25.375212923752898L127.01901333889593,2.5664629840708235L135.72965835903804,-4.548750031656163z" style="fill:rgb(219,132,215)"/><path d="M-107.7624385196494,46.360227821191444L-135.06496424103756,58.44054364783084L-117.13688265847887,75.69392462140812z" style="fill:rgb(48,92,221)"/><path d="M102.79492018048843,70.42425895222623L119.87613835978298,77.71821130924509L114.81767598371572,73.39768184312074z" style="fill:rgb(191,74,223)"/><path d="M-16.840472141786133,-112.69369912941096L-47.08557881939598,-89.71473097663986L-51.3778860253233,-53.19049729160186z" style="fill:rgb(250,127,160)"/><path d="M-24.803126225112244,136.8068636059723L-3.807187567590888,135.40962171697922L-7.326957346623109,128.06463443328255z" style="fill:rgb(115,34,214)"/><path d="M-96.47641296958652,115.95971896522114L-71.35142944225214,97.4517056974154L-95.64269718121884,88.91285729842429z" style="fill:rgb(73,57,218)"/><path d="M-24.803126225112244,136.8068636059723L-7.326957346623109,128.06463443328255L-38.42242630689519,130.1907890425272z" style="fill:rgb(115,34,214)"/><path d="M138.59796433445803,-25.375212923752898L131.3408674807202,-28.43131915076502L127.01901333889593,2.5664629840708235z" style="fill:rgb(220,132,215)"/><path d="M57.56835766806815,111.92951395245535L38.027277605801416,121.67100564281043L68.27082576398685,125.89747011243297z" style="fill:rgb(157,47,221)"/><path d="M-144.63800660994562,-21.55739410641232L-119.47562880336423,-33.336834137455256L-119.42414004362108,-47.546161911393376z" style="fill:rgb(41,150,218)"/><path d="M135.72965835903804,-4.548750031656163L127.01901333889593,2.5664629840708235L134.20989395537188,6.491383158440657z" style="fill:rgb(220,132,215)"/><path d="M-3.807187567590888,135.40962171697922L7.044072352240839,132.44396920402684L-7.326957346623109,128.06463443328255z" style="fill:rgb(136,38,218)"/><path d="M75.01184910313506,98.52204852933644L57.56835766806815,111.92951395245535L68.27082576398685,125.89747011243297z" style="fill:rgb(175,58,223)"/><path d="M102.79492018048843,70.42425895222623L91.88770785557365,82.7664962988549L119.87613835978298,77.71821130924509z" style="fill:rgb(191,74,223)"/><path d="M130.4868690199615,17.149228516518935L134.20989395537188,6.491383158440657L127.01901333889593,2.5664629840708235z" style="fill:rgb(214,111,219)"/><path d="M96.39395616600873,104.31387008279523L84.20465673177758,91.45694090758025L75.01184910313506,98.52204852933644z" style="fill:rgb(175,58,223)"/><path d="M91.88770785557365,82.7664962988549L84.20465673177758,91.45694090758025L96.39395616600873,104.31387008279523z" style="fill:rgb(191,74,223)"/><path d="M-107.7624385196494,46.360227821191444L-122.23346273030937,32.71962102868289L-135.06496424103756,58.44054364783084z" style="fill:rgb(49,92,221)"/><path d="M-45.20257206571927,100.83557463070873L-68.55045913863393,126.04319199596888L-38.42242630689519,130.1907890425272z" style="fill:rgb(91,53,224)"/><path d="M-144.63800660994562,-21.55739410641232L-116.76579446029456,-19.583622136404475L-119.47562880336423,-33.336834137455256z" style="fill:rgb(42,139,221)"/><path d="M-140.9461601201171,-1.9318990348019955L-133.4107286042732,16.39903548381583L-111.354963857089,-6.801488293132909z" style="fill:rgb(46,129,225)"/><path d="M-107.7624385196494,46.360227821191444L-117.13688265847887,75.69392462140812L-95.64269718121884,88.91285729842429z" style="fill:rgb(61,83,227)"/><path d="M7.044072352240839,132.44396920402684L27.778371644225626,126.78110523348273L23.397189866429756,119.62762882254931z" style="fill:rgb(136,38,218)"/><path d="M116.43479461553146,32.733028336157446L123.37241747021196,37.50626558989982L130.4868690199615,17.149228516518935z" style="fill:rgb(214,111,219)"/><path d="M7.044072352240839,132.44396920402684L23.397189866429756,119.62762882254931L-7.326957346623109,128.06463443328255z" style="fill:rgb(136,38,218)"/><path d="M-79.73000578698988,-72.44031235729217L-93.60237626298384,-98.78957182344452L-103.48658779464517,-87.76850983118389z" style="fill:rgb(70,181,227)"/><path d="M-68.50269276374289,-82.95206589040984L-81.96569116917308,-107.92682600207318L-93.60237626298384,-98.78957182344452z" style="fill:rgb(76,186,228)"/><path d="M38.027277605801416,121.67100564281043L23.397189866429756,119.62762882254931L27.778371644225626,126.78110523348273z" style="fill:rgb(157,47,221)"/><path d="M116.43479461553146,32.733028336157446L130.4868690199615,17.149228516518935L127.01901333889593,2.5664629840708235z" style="fill:rgb(214,111,219)"/><path d="M-68.50269276374289,-82.95206589040984L-68.98384840502669,-114.85175234436983L-81.96569116917308,-107.92682600207318z" style="fill:rgb(82,190,228)"/><path d="M-83.76529254338011,-65.9058507304186L-103.48658779464517,-87.76850983118389L-111.26240727452226,-75.2539397645447z" style="fill:rgb(66,175,228)"/><path d="M123.37241747021196,37.50626558989982L116.43479461553146,32.733028336157446L117.55685469395472,47.40314550599112z" style="fill:rgb(204,91,222)"/><path d="M-45.20257206571927,100.83557463070873L-71.35142944225214,97.4517056974154L-68.55045913863393,126.04319199596888z" style="fill:rgb(91,53,224)"/><path d="M57.56835766806815,111.92951395245535L23.397189866429756,119.62762882254931L38.027277605801416,121.67100564281043z" style="fill:rgb(157,47,221)"/><path d="M-45.20257206571927,100.83557463070873L-38.42242630689519,130.1907890425272L-7.326957346623109,128.06463443328255z" style="fill:rgb(110,53,229)"/><path d="M-83.76529254338011,-65.9058507304186L-111.26240727452226,-75.2539397645447L-116.64467332136121,-61.68684228337927z" style="fill:rgb(63,169,229)"/><path d="M-61.72761971740249,-86.54081315564764L-55.11655679644416,-119.31146177386985L-68.98384840502669,-114.85175234436983z" style="fill:rgb(88,193,229)"/><path d="M-140.9461601201171,-1.9318990348019955L-111.354963857089,-6.801488293132909L-116.76579446029456,-19.583622136404475z" style="fill:rgb(46,129,225)"/><path d="M-122.23346273030937,32.71962102868289L-111.354963857089,-6.801488293132909L-133.4107286042732,16.39903548381583z" style="fill:rgb(51,119,229)"/><path d="M117.55685469395472,47.40314550599112L99.9623581704349,60.70813964482263L106.46945052625158,66.26682014001612z" style="fill:rgb(204,91,222)"/><path d="M102.21733499524821,-36.95242136671454L127.01901333889593,2.5664629840708235L131.3408674807202,-28.43131915076502z" style="fill:rgb(201,139,230)"/><path d="M75.01184910313506,98.52204852933644L52.37477826167465,105.14888122033774L57.56835766806815,111.92951395245535z" style="fill:rgb(175,58,223)"/><path d="M106.46945052625158,66.26682014001612L78.28889732319179,85.21701292193472L91.88770785557365,82.7664962988549z" style="fill:rgb(191,74,223)"/><path d="M-86.53567258132583,-58.83016502761013L-116.64467332136121,-61.68684228337927L-119.42414004362108,-47.546161911393376z" style="fill:rgb(61,162,230)"/><path d="M84.20465673177758,91.45694090758025L78.28889732319179,85.21701292193472L75.01184910313506,98.52204852933644z" style="fill:rgb(175,58,223)"/><path d="M91.88770785557365,82.7664962988549L78.28889732319179,85.21701292193472L84.20465673177758,91.45694090758025z" style="fill:rgb(191,74,223)"/><path d="M117.55685469395472,47.40314550599112L116.43479461553146,32.733028336157446L99.9623581704349,60.70813964482263z" style="fill:rgb(204,91,222)"/><path d="M57.56835766806815,111.92951395245535L52.37477826167465,105.14888122033774L23.397189866429756,119.62762882254931z" style="fill:rgb(157,47,221)"/><path d="M-47.08557881939598,-89.71473097663986L-40.853710839402225,-121.12260781385893L-55.11655679644416,-119.31146177386985z" style="fill:rgb(95,194,231)"/><path d="M106.46945052625158,66.26682014001612L99.9623581704349,60.70813964482263L78.28889732319179,85.21701292193472z" style="fill:rgb(191,74,223)"/><path d="M75.01184910313506,98.52204852933644L78.28889732319179,85.21701292193472L52.37477826167465,105.14888122033774z" style="fill:rgb(175,58,223)"/><path d="M-107.7624385196494,46.360227821191444L-95.64269718121884,88.91285729842429L-90.48978397875376,56.72466835980546z" style="fill:rgb(61,83,227)"/><path d="M-79.73000578698988,-72.44031235729217L-74.57787700482108,-78.19365575082622L-93.60237626298384,-98.78957182344452z" style="fill:rgb(70,181,227)"/><path d="M-68.50269276374289,-82.95206589040984L-93.60237626298384,-98.78957182344452L-74.57787700482108,-78.19365575082622z" style="fill:rgb(76,186,228)"/><path d="M-87.8932627851123,-44.10816461486762L-119.42414004362108,-47.546161911393376L-119.47562880336423,-33.336834137455256z" style="fill:rgb(61,155,232)"/><path d="M-83.76529254338011,-65.9058507304186L-79.73000578698988,-72.44031235729217L-103.48658779464517,-87.76850983118389z" style="fill:rgb(66,175,228)"/><path d="M-68.50269276374289,-82.95206589040984L-61.72761971740249,-86.54081315564764L-68.98384840502669,-114.85175234436983z" style="fill:rgb(82,190,228)"/><path d="M-71.0478145422619,63.32752448281029L-95.64269718121884,88.91285729842429L-71.35142944225214,97.4517056974154z" style="fill:rgb(74,77,232)"/><path d="M98.29074857654582,-10.107978478400625L116.43479461553146,32.733028336157446L127.01901333889593,2.5664629840708235z" style="fill:rgb(196,120,234)"/><path d="M-107.7624385196494,46.360227821191444L-103.40929035945602,4.509356124457987L-122.23346273030937,32.71962102868289z" style="fill:rgb(59,111,234)"/><path d="M8.327500197188815,91.35169812070558L-7.326957346623109,128.06463443328255L23.397189866429756,119.62762882254931z" style="fill:rgb(128,57,233)"/><path d="M-83.76529254338011,-65.9058507304186L-116.64467332136121,-61.68684228337927L-86.53567258132583,-58.83016502761013z" style="fill:rgb(63,169,229)"/><path d="M-61.72761971740249,-86.54081315564764L-54.49815275515613,-88.82627898473264L-55.11655679644416,-119.31146177386985z" style="fill:rgb(88,193,229)"/><path d="M-122.23346273030937,32.71962102868289L-103.40929035945602,4.509356124457987L-111.354963857089,-6.801488293132909z" style="fill:rgb(51,119,229)"/><path d="M-87.8932627851123,-44.10816461486762L-119.47562880336423,-33.336834137455256L-116.76579446029456,-19.583622136404475z" style="fill:rgb(61,148,234)"/><path d="M-45.20257206571927,100.83557463070873L-7.326957346623109,128.06463443328255L-18.260598391935652,98.80773891213792z" style="fill:rgb(110,53,229)"/><path d="M-47.08557881939598,-89.71473097663986L-55.11655679644416,-119.31146177386985L-54.49815275515613,-88.82627898473264z" style="fill:rgb(95,194,231)"/><path d="M-86.53567258132583,-58.83016502761013L-119.42414004362108,-47.546161911393376L-87.93069111547591,-51.47404971721764z" style="fill:rgb(61,162,230)"/><path d="M102.21733499524821,-36.95242136671454L98.29074857654582,-10.107978478400625L127.01901333889593,2.5664629840708235z" style="fill:rgb(201,139,230)"/><path d="M-71.0478145422619,63.32752448281029L-90.48978397875376,56.72466835980546L-95.64269718121884,88.91285729842429z" style="fill:rgb(74,77,232)"/><path d="M8.327500197188815,91.35169812070558L23.397189866429756,119.62762882254931L52.37477826167465,105.14888122033774z" style="fill:rgb(146,64,236)"/><path d="M-87.8932627851123,-44.10816461486762L-87.93069111547591,-51.47404971721764L-119.42414004362108,-47.546161911393376z" style="fill:rgb(61,155,232)"/><path d="M99.9623581704349,60.70813964482263L116.43479461553146,32.733028336157446L88.98598390774353,15.988584640810588z" style="fill:rgb(188,103,236)"/><path d="M-45.20257206571927,100.83557463070873L-71.0478145422619,63.32752448281029L-71.35142944225214,97.4517056974154z" style="fill:rgb(89,74,237)"/><path d="M8.327500197188815,91.35169812070558L-18.260598391935652,98.80773891213792L-7.326957346623109,128.06463443328255z" style="fill:rgb(128,57,233)"/><path d="M-83.54203658793382,-30.454844198589292L-116.76579446029456,-19.583622136404475L-111.354963857089,-6.801488293132909z" style="fill:rgb(64,142,237)"/><path d="M55.833124576738534,61.41459544814529L52.37477826167465,105.14888122033774L78.28889732319179,85.21701292193472z" style="fill:rgb(162,74,238)"/><path d="M99.9623581704349,60.70813964482263L55.833124576738534,61.41459544814529L78.28889732319179,85.21701292193472z" style="fill:rgb(176,87,238)"/><path d="M166.01633230887802,-25.54811187957323L155.05187141457904,-56.05370047453825L68.97615567924164,-24.93631849778021z" style="fill:rgb(118,4,159)"/><path d="M168.6316649159028,-118.09539643302963L155.05187141457904,-56.05370047453825L166.01633230887802,-25.54811187957323z" style="fill:rgb(250,127,160)"/><path d="M-107.7624385196494,46.360227821191444L-93.19708601323433,13.894542529201777L-103.40929035945602,4.509356124457987z" style="fill:rgb(59,111,234)"/><path d="M98.29074857654582,-10.107978478400625L88.98598390774353,15.988584640810588L116.43479461553146,32.733028336157446z" style="fill:rgb(196,120,234)"/><path d="M-87.8932627851123,-44.10816461486762L-116.76579446029456,-19.583622136404475L-86.41556769242315,-37.01225984609551z" style="fill:rgb(61,148,234)"/><path d="M-107.7624385196494,46.360227821191444L-90.48978397875376,56.72466835980546L-81.07667800154393,20.95741333243233z" style="fill:rgb(68,105,238)"/><path d="M-83.54203658793382,-30.454844198589292L-111.354963857089,-6.801488293132909L-103.40929035945602,4.509356124457987z" style="fill:rgb(67,136,239)"/><path d="M-83.54203658793382,-30.454844198589292L-86.41556769242315,-37.01225984609551L-116.76579446029456,-19.583622136404475z" style="fill:rgb(64,142,237)"/><path d="M-107.7624385196494,46.360227821191444L-81.07667800154393,20.95741333243233L-93.19708601323433,13.894542529201777z" style="fill:rgb(68,105,238)"/><path d="M8.327500197188815,91.35169812070558L52.37477826167465,105.14888122033774L33.39782297575408,78.71701365814484z" style="fill:rgb(146,64,236)"/><path d="M99.9623581704349,60.70813964482263L88.98598390774353,15.988584640810588L74.63550075229897,40.19117940139004z" style="fill:rgb(188,103,236)"/><path d="M-79.73000578698988,-72.44031235729217L-51.3778860253233,-53.19049729160186L-74.57787700482108,-78.19365575082622z" style="fill:rgb(86,168,241)"/><path d="M-68.50269276374289,-82.95206589040984L-74.57787700482108,-78.19365575082622L-51.3778860253233,-53.19049729160186z" style="fill:rgb(88,169,241)"/><path d="M-83.76529254338011,-65.9058507304186L-51.3778860253233,-53.19049729160186L-79.73000578698988,-72.44031235729217z" style="fill:rgb(85,166,241)"/><path d="M-68.50269276374289,-82.95206589040984L-51.3778860253233,-53.19049729160186L-61.72761971740249,-86.54081315564764z" style="fill:rgb(90,171,241)"/><path d="M55.833124576738534,61.41459544814529L33.39782297575408,78.71701365814484L52.37477826167465,105.14888122033774z" style="fill:rgb(162,74,238)"/><path d="M-45.20257206571927,100.83557463070873L-50.18502395497297,65.8212626365642L-71.0478145422619,63.32752448281029z" style="fill:rgb(89,74,237)"/><path d="M99.9623581704349,60.70813964482263L74.63550075229897,40.19117940139004L55.833124576738534,61.41459544814529z" style="fill:rgb(176,87,238)"/><path d="M-83.76529254338011,-65.9058507304186L-86.53567258132583,-58.83016502761013L-51.3778860253233,-53.19049729160186z" style="fill:rgb(84,163,241)"/><path d="M-61.72761971740249,-86.54081315564764L-51.3778860253233,-53.19049729160186L-54.49815275515613,-88.82627898473264z" style="fill:rgb(93,171,241)"/><path d="M-45.20257206571927,100.83557463070873L-18.260598391935652,98.80773891213792L-28.745791208385686,64.02976639258816z" style="fill:rgb(105,74,241)"/><path d="M-86.53567258132583,-58.83016502761013L-87.93069111547591,-51.47404971721764L-51.3778860253233,-53.19049729160186z" style="fill:rgb(83,161,242)"/><path d="M-47.08557881939598,-89.71473097663986L-54.49815275515613,-88.82627898473264L-51.3778860253233,-53.19049729160186z" style="fill:rgb(95,172,242)"/><path d="M64.0929400165624,-22.759996481434502L98.29074857654582,-10.107978478400625L102.21733499524821,-36.95242136671454z" style="fill:rgb(180,145,242)"/><path d="M-67.50154637499536,25.38171715460969L-90.48978397875376,56.72466835980546L-71.0478145422619,63.32752448281029z" style="fill:rgb(78,100,242)"/><path d="M-87.8932627851123,-44.10816461486762L-51.3778860253233,-53.19049729160186L-87.93069111547591,-51.47404971721764z" style="fill:rgb(83,159,242)"/><path d="M-83.54203658793382,-30.454844198589292L-103.40929035945602,4.509356124457987L-79.37494188017615,-24.691423051531455z" style="fill:rgb(67,136,239)"/><path d="M-74.06112492085894,-19.946165265677006L-103.40929035945602,4.509356124457987L-93.19708601323433,13.894542529201777z" style="fill:rgb(72,131,242)"/><path d="M-45.20257206571927,100.83557463070873L-28.745791208385686,64.02976639258816L-50.18502395497297,65.8212626365642z" style="fill:rgb(105,74,241)"/><path d="M-87.8932627851123,-44.10816461486762L-86.41556769242315,-37.01225984609551L-51.3778860253233,-53.19049729160186z" style="fill:rgb(83,156,243)"/><path d="M-67.50154637499536,25.38171715460969L-81.07667800154393,20.95741333243233L-90.48978397875376,56.72466835980546z" style="fill:rgb(78,100,242)"/><path d="M-74.06112492085894,-19.946165265677006L-79.37494188017615,-24.691423051531455L-103.40929035945602,4.509356124457987z" style="fill:rgb(72,131,242)"/><path d="M8.327500197188815,91.35169812070558L-28.745791208385686,64.02976639258816L-18.260598391935652,98.80773891213792z" style="fill:rgb(120,77,244)"/><path d="M64.0929400165624,-22.759996481434502L102.21733499524821,-36.95242136671454L67.38715830183504,-44.10900149414419z" style="fill:rgb(180,145,242)"/><path d="M64.0929400165624,-22.759996481434502L88.98598390774353,15.988584640810588L98.29074857654582,-10.107978478400625z" style="fill:rgb(176,130,245)"/><path d="M-83.54203658793382,-30.454844198589292L-51.3778860253233,-53.19049729160186L-86.41556769242315,-37.01225984609551z" style="fill:rgb(84,154,244)"/><path d="M-74.06112492085894,-19.946165265677006L-93.19708601323433,13.894542529201777L-81.07667800154393,20.95741333243233z" style="fill:rgb(77,127,244)"/><path d="M-83.54203658793382,-30.454844198589292L-79.37494188017615,-24.691423051531455L-51.3778860253233,-53.19049729160186z" style="fill:rgb(85,152,245)"/><path d="M68.97615567924164,-24.93631849778021L155.05187141457904,-56.05370047453825L-51.3778860253233,-53.19049729160186z" style="fill:rgb(118,4,159)"/><path d="M-52.99205794998158,26.956560841257836L-71.0478145422619,63.32752448281029L-50.18502395497297,65.8212626365642z" style="fill:rgb(89,98,245)"/><path d="M168.6316649159028,-118.09539643302963L161.17759908236837,-252.13710382812056L155.05187141457904,-56.05370047453825z" style="fill:rgb(250,127,160)"/><path d="M8.327500197188815,91.35169812070558L33.39782297575408,78.71701365814484L12.285450520884854,47.833121119195496z" style="fill:rgb(135,83,247)"/><path d="M-74.06112492085894,-19.946165265677006L-51.3778860253233,-53.19049729160186L-79.37494188017615,-24.691423051531455z" style="fill:rgb(87,150,246)"/><path d="M-52.99205794998158,26.956560841257836L-67.50154637499536,25.38171715460969L-71.0478145422619,63.32752448281029z" style="fill:rgb(89,98,245)"/><path d="M45.083000084209914,17.17901310548553L74.63550075229897,40.19117940139004L88.98598390774353,15.988584640810588z" style="fill:rgb(169,116,247)"/><path d="M-74.06112492085894,-19.946165265677006L-81.07667800154393,20.95741333243233L-67.79589062939043,-16.41484693298091z" style="fill:rgb(77,127,244)"/><path d="M-67.50154637499536,25.38171715460969L-67.79589062939043,-16.41484693298091L-81.07667800154393,20.95741333243233z" style="fill:rgb(84,124,247)"/><path d="M8.327500197188815,91.35169812070558L-7.620589471025557,57.96316553506076L-28.745791208385686,64.02976639258816z" style="fill:rgb(120,77,244)"/><path d="M45.083000084209914,17.17901310548553L55.833124576738534,61.41459544814529L74.63550075229897,40.19117940139004z" style="fill:rgb(160,103,248)"/><path d="M30.110162156429624,34.04388157180322L33.39782297575408,78.71701365814484L55.833124576738534,61.41459544814529z" style="fill:rgb(148,92,248)"/><path d="M-74.06112492085894,-19.946165265677006L-67.79589062939043,-16.41484693298091L-51.3778860253233,-53.19049729160186z" style="fill:rgb(89,149,247)"/><path d="M64.0929400165624,-22.759996481434502L56.565462815266585,-2.0337773124099545L88.98598390774353,15.988584640810588z" style="fill:rgb(176,130,245)"/><path d="M-52.99205794998158,26.956560841257836L-50.18502395497297,65.8212626365642L-28.745791208385686,64.02976639258816z" style="fill:rgb(101,98,248)"/><path d="M8.327500197188815,91.35169812070558L12.285450520884854,47.833121119195496L-7.620589471025557,57.96316553506076z" style="fill:rgb(135,83,247)"/><path d="M64.0929400165624,-22.759996481434502L67.38715830183504,-44.10900149414419L28.65681166369537,-49.41528173992087z" style="fill:rgb(157,150,249)"/><path d="M-67.79589062939043,-16.41484693298091L-60.8214798322285,-14.240786086932387L-51.3778860253233,-53.19049729160186z" style="fill:rgb(91,148,247)"/><path d="M-67.50154637499536,25.38171715460969L-60.8214798322285,-14.240786086932387L-67.79589062939043,-16.41484693298091z" style="fill:rgb(84,124,247)"/><path d="M45.083000084209914,17.17901310548553L88.98598390774353,15.988584640810588L56.565462815266585,-2.0337773124099545z" style="fill:rgb(169,116,247)"/><path d="M155.05187141457904,-56.05370047453825L-35.84224795918173,-239.86359488506784L-51.3778860253233,-53.19049729160186zM-35.84224795918173,-239.86359488506784L155.05187141457904,-56.05370047453825L161.17759908236837,-252.13710382812056z" style="fill:rgb(95,160,246)"/><path d="M-53.400539002943006,-13.52278684015814L-51.3778860253233,-53.19049729160186L-60.8214798322285,-14.240786086932387z" style="fill:rgb(93,148,248)"/><path d="M-53.400539002943006,-13.52278684015814L-60.8214798322285,-14.240786086932387L-67.50154637499536,25.38171715460969z" style="fill:rgb(91,123,249)"/><path d="M30.110162156429624,34.04388157180322L12.285450520884854,47.833121119195496L33.39782297575408,78.71701365814484z" style="fill:rgb(148,92,248)"/><path d="M-53.400539002943006,-13.52278684015814L-67.50154637499536,25.38171715460969L-52.99205794998158,26.956560841257836z" style="fill:rgb(91,123,249)"/><path d="M45.083000084209914,17.17901310548553L30.110162156429624,34.04388157180322L55.833124576738534,61.41459544814529z" style="fill:rgb(160,103,248)"/><path d="M-53.400539002943006,-13.52278684015814L-45.829043018727496,-14.296590844784724L-51.3778860253233,-53.19049729160186z" style="fill:rgb(96,148,249)"/><path d="M-13.03655522955784,-44.97736046276889L-11.738231977863887,-52.50661436867136L-51.3778860253233,-53.19049729160186z" style="fill:rgb(107,159,249)"/><path d="M-52.99205794998158,26.956560841257836L-28.745791208385686,64.02976639258816L-38.13124558583986,25.576947412861465z" style="fill:rgb(101,98,248)"/><path d="M64.0929400165624,-22.759996481434502L28.65681166369537,-49.41528173992087L26.243578427064087,-34.62651056016616z" style="fill:rgb(157,150,249)"/><path d="M-38.404655068294815,-16.541214950781278L-51.3778860253233,-53.19049729160186L-45.829043018727496,-14.296590844784724z" style="fill:rgb(98,148,249)"/><path d="M-28.745791208385686,64.02976639258816L-7.620589471025557,57.96316553506076L-23.52046501617121,21.27438474425051z" style="fill:rgb(112,100,251)"/><path d="M-13.03655522955784,-44.97736046276889L-51.3778860253233,-53.19049729160186L-15.787080196016861,-37.700212174930556z" style="fill:rgb(107,156,249)"/><path d="M64.0929400165624,-22.759996481434502L20.937118988604077,-20.299006770115508L56.565462815266585,-2.0337773124099545z" style="fill:rgb(154,139,251)"/><path d="M-38.404655068294815,-16.541214950781278L-31.4225718233001,-20.16923363535147L-51.3778860253233,-53.19049729160186z" style="fill:rgb(100,149,250)"/><path d="M-53.400539002943006,-13.52278684015814L-52.99205794998158,26.956560841257836L-38.13124558583986,25.576947412861465z" style="fill:rgb(98,123,251)"/><path d="M-15.787080196016861,-37.700212174930556L-51.3778860253233,-53.19049729160186L-19.88259004100685,-30.964688748834497z" style="fill:rgb(106,154,250)"/><path d="M-13.03655522955784,-44.97736046276889L28.65681166369537,-49.41528173992087L-11.738231977863887,-52.50661436867136z" style="fill:rgb(132,155,251)"/><path d="M-25.165545767909922,-25.04303082228279L-51.3778860253233,-53.19049729160186L-31.4225718233001,-20.16923363535147z" style="fill:rgb(102,150,250)"/><path d="M-25.165545767909922,-25.04303082228279L-19.88259004100685,-30.964688748834497L-51.3778860253233,-53.19049729160186z" style="fill:rgb(104,152,250)"/><path d="M-28.745791208385686,64.02976639258816L-23.52046501617121,21.27438474425051L-38.13124558583986,25.576947412861465z" style="fill:rgb(112,100,251)"/><path d="M-53.400539002943006,-13.52278684015814L-38.13124558583986,25.576947412861465L-45.829043018727496,-14.296590844784724z" style="fill:rgb(98,123,251)"/><path d="M64.0929400165624,-22.759996481434502L26.243578427064087,-34.62651056016616L20.937118988604077,-20.299006770115508z" style="fill:rgb(154,139,251)"/><path d="M-13.03655522955784,-44.97736046276889L26.243578427064087,-34.62651056016616L28.65681166369537,-49.41528173992087z" style="fill:rgb(132,155,251)"/><path d="M45.083000084209914,17.17901310548553L56.565462815266585,-2.0337773124099545L20.937118988604077,-20.299006770115508z" style="fill:rgb(148,129,253)"/><path d="M-9.765094702122367,14.200179466783807L-7.620589471025557,57.96316553506076L12.285450520884854,47.833121119195496z" style="fill:rgb(123,105,252)"/><path d="M-38.404655068294815,-16.541214950781278L-45.829043018727496,-14.296590844784724L-38.13124558583986,25.576947412861465z" style="fill:rgb(105,124,252)"/><path d="M-13.03655522955784,-44.97736046276889L20.937118988604077,-20.299006770115508L26.243578427064087,-34.62651056016616z" style="fill:rgb(130,148,253)"/><path d="M-38.404655068294815,-16.541214950781278L-38.13124558583986,25.576947412861465L-23.52046501617121,21.27438474425051z" style="fill:rgb(105,124,252)"/><path d="M-9.765094702122367,14.200179466783807L12.285450520884854,47.833121119195496L30.110162156429624,34.04388157180322z" style="fill:rgb(133,111,253)"/><path d="M-9.765094702122367,14.200179466783807L-23.52046501617121,21.27438474425051L-7.620589471025557,57.96316553506076z" style="fill:rgb(123,105,252)"/><path d="M-13.03655522955784,-44.97736046276889L-15.787080196016861,-37.700212174930556L20.937118988604077,-20.299006770115508z" style="fill:rgb(130,148,253)"/><path d="M45.083000084209914,17.17901310548553L2.5573304586514913,4.635682137906715L30.110162156429624,34.04388157180322z" style="fill:rgb(141,119,253)"/><path d="M-38.404655068294815,-16.541214950781278L-9.765094702122367,14.200179466783807L-31.4225718233001,-20.16923363535147z" style="fill:rgb(111,127,254)"/><path d="M45.083000084209914,17.17901310548553L20.937118988604077,-20.299006770115508L12.935118649538222,-7.025430929218071z" style="fill:rgb(148,129,253)"/><path d="M-15.787080196016861,-37.700212174930556L-19.88259004100685,-30.964688748834497L12.935118649538222,-7.025430929218071z" style="fill:rgb(127,142,254)"/><path d="M-38.404655068294815,-16.541214950781278L-23.52046501617121,21.27438474425051L-9.765094702122367,14.200179466783807z" style="fill:rgb(111,127,254)"/><path d="M-9.765094702122367,14.200179466783807L-25.165545767909922,-25.04303082228279L-31.4225718233001,-20.16923363535147z" style="fill:rgb(117,131,254)"/><path d="M-25.165545767909922,-25.04303082228279L12.935118649538222,-7.025430929218071L-19.88259004100685,-30.964688748834497z" style="fill:rgb(123,136,254)"/><path d="M-15.787080196016861,-37.700212174930556L12.935118649538222,-7.025430929218071L20.937118988604077,-20.299006770115508z" style="fill:rgb(127,142,254)"/><path d="M45.083000084209914,17.17901310548553L12.935118649538222,-7.025430929218071L2.5573304586514913,4.635682137906715z" style="fill:rgb(141,119,253)"/><path d="M-9.765094702122367,14.200179466783807L30.110162156429624,34.04388157180322L2.5573304586514913,4.635682137906715z" style="fill:rgb(133,111,253)"/><path d="M-9.765094702122367,14.200179466783807L2.5573304586514913,4.635682137906715L-25.165545767909922,-25.04303082228279z" style="fill:rgb(117,131,254)"/><path d="M-25.165545767909922,-25.04303082228279L2.5573304586514913,4.635682137906715L12.935118649538222,-7.025430929218071z" style="fill:rgb(123,136,254)"/></svg>