solid JSxCAD
facet normal 0 -1 0
outer loop
vertex 1 -1.5 0.5
vertex 0 -1.5 0.5
vertex 0 -1.5 -0.5
endloop
endfacet
facet normal 0 -1 0
outer loop
vertex 1 -1.5 0.5
vertex 0 -1.5 -0.5
vertex 1 -1.5 -0.5
endloop
endfacet
facet normal -0.7463244990466236 -0.66558225796877 0
outer loop
vertex -0.70711 -0.70711 0
vertex 0 -1.5 -0.5
vertex 0 -1.5 0.5
endloop
endfacet
facet normal 0.4690630430915445 -0.056532819399858616 -0.8813534489275019
outer loop
vertex 0.5449 -0.10839 -0.83147
vertex 1 -1.5 -0.5
vertex 0.37533 -0.07466 -0.92388
endloop
endfacet
facet normal -0.7720528813217525 -0.56846062199085 0.284230310995425
outer loop
vertex 0 0 3.5
vertex -0.81549 -0.5449 0.19509
vertex 0 -1.5 0.5
endloop
endfacet
facet normal 0 -0.8944271909999159 0.4472135954999579
outer loop
vertex 0 0 3.5
vertex 0 -1.5 0.5
vertex 1 -1.5 0.5
endloop
endfacet
facet normal 0 -0.8944271909999159 0.4472135954999579
outer loop
vertex 0 0 3.5
vertex 1 -1.5 0.5
vertex 1 0 3.5
endloop
endfacet
facet normal 0 0 1
outer loop
vertex 0 0 3.5
vertex 1 0 3.5
vertex 1 1 3.5
endloop
endfacet
facet normal 0 0 1
outer loop
vertex 0 0 3.5
vertex 1 1 3.5
vertex 0 1 3.5
endloop
endfacet
facet normal -0.9586749690985501 0 0.2845036091579399
outer loop
vertex -0.98079 0 0.19509
vertex 0 0 3.5
vertex 0 1 3.5
endloop
endfacet
facet normal 0.0761116106167374 -0.06246507691346584 -0.995140762352503
outer loop
vertex 0.16221 -0.10839 -0.98079
vertex 0.13795 -0.13795 -0.98079
vertex 0 0 -1
endloop
endfacet
facet normal 0.7567969694157184 0.15763173677189574 -0.634358402360574
outer loop
vertex 0.81549 0.16221 -0.55557
vertex 1 -0.5 -0.5
vertex 0.69352 0.13795 -0.70711
endloop
endfacet
facet normal 0.8442835680012596 0.4512936404059332 -0.28899707080214987
outer loop
vertex 0.76818 0.51328 -0.38268
vertex 0.81549 0.5449 -0.19509
vertex 0.90613 0.37533 -0.19509
endloop
endfacet
facet normal 0.8442944768732635 0.45124534834201824 -0.28904060600717163
outer loop
vertex 0.76818 0.51328 -0.38268
vertex 0.90613 0.37533 -0.19509
vertex 0.85355 0.35355 -0.38268
endloop
endfacet
facet normal 0.02857646771071158 -0.09422510974883282 -0.9951407006981471
outer loop
vertex 0.07466 -0.18024 -0.98079
vertex 0.03806 -0.19134 -0.98079
vertex 0 0 -1
endloop
endfacet
facet normal -0.6274663995836622 -0.4518348434683555 -0.6341381486879988
outer loop
vertex -0.69134 -0.46194 -0.55557
vertex -0.58794 -0.39285 -0.70711
vertex 0 -1.5 -0.5
endloop
endfacet
facet normal -0.7222208591876697 -0.5062240449971838 -0.4713111995496324
outer loop
vertex -0.69134 -0.46194 -0.55557
vertex 0 -1.5 -0.5
vertex -0.76818 -0.51328 -0.38268
endloop
endfacet
facet normal -0.7715638969799926 -0.5661933118808987 -0.2900246307788132
outer loop
vertex -0.81549 -0.5449 -0.19509
vertex -0.76818 -0.51328 -0.38268
vertex 0 -1.5 -0.5
endloop
endfacet
facet normal -0.8457989303438541 -0.4521036447860286 0.28324276478028654
outer loop
vertex -0.90613 -0.37533 0.19509
vertex -0.81549 -0.5449 0.19509
vertex 0 0 3.5
endloop
endfacet
facet normal 0.22539654367269152 -0.1849837668978179 -0.9565445123383952
outer loop
vertex 0.2706 -0.2706 -0.92388
vertex 0.13795 -0.13795 -0.98079
vertex 0.16221 -0.10839 -0.98079
endloop
endfacet
facet normal 0.2254031878897889 -0.18497909487282366 -0.956543850196713
outer loop
vertex 0.2706 -0.2706 -0.92388
vertex 0.16221 -0.10839 -0.98079
vertex 0.31819 -0.21261 -0.92388
endloop
endfacet
facet normal 0.2325492713843054 -0.1908435907083822 -0.9536768636514991
outer loop
vertex 0.2706 -0.2706 -0.92388
vertex 0.31819 -0.21261 -0.92388
vertex 1 -1.5 -0.5
endloop
endfacet
facet normal 0.19819396788184263 -0.21233348258923596 -0.9568874768052812
outer loop
vertex 0.2706 -0.2706 -0.92388
vertex 1 -1.5 -0.5
vertex 0.13795 -0.13795 -0.98079
endloop
endfacet
facet normal 0.3698286846617189 -0.1122004283595521 -0.9223002807531374
outer loop
vertex 0.35355 -0.14645 -0.92388
vertex 0.37533 -0.07466 -0.92388
vertex 1 -1.5 -0.5
endloop
endfacet
facet normal 0.29198097436387693 -0.1560527093939947 -0.9436072607289085
outer loop
vertex 0.35355 -0.14645 -0.92388
vertex 1 -1.5 -0.5
vertex 0.31819 -0.21261 -0.92388
endloop
endfacet
facet normal 0.6463737976554214 0.06367683878316181 -0.7603592400353215
outer loop
vertex 0.70711 0 -0.70711
vertex 0.69352 0.13795 -0.70711
vertex 1 -0.5 -0.5
endloop
endfacet
facet normal 0.9904384105005078 0.09752586942290586 -0.09757284355051773
outer loop
vertex 0.96194 0.19134 -0.19509
vertex 0.98079 0.19509 0
vertex 1 0 0
endloop
endfacet
facet normal 0.9904383670044205 0.0975495801262537 -0.09754958012625373
outer loop
vertex 0.96194 0.19134 -0.19509
vertex 1 0 0
vertex 1 -0.5 -0.5
endloop
endfacet
facet normal 0.1356546635945455 -0.2537788021655028 -0.9577025278323604
outer loop
vertex 0.10839 -0.16221 -0.98079
vertex 1 -1.5 -0.5
vertex 0.07466 -0.18024 -0.98079
endloop
endfacet
facet normal 0.04641679795410222 -0.08683519661629872 -0.995140758634826
outer loop
vertex 0.10839 -0.16221 -0.98079
vertex 0.07466 -0.18024 -0.98079
vertex 0 0 -1
endloop
endfacet
facet normal 0.06246507691346584 -0.0761116106167374 -0.995140762352503
outer loop
vertex 0.10839 -0.16221 -0.98079
vertex 0 0 -1
vertex 0.13795 -0.13795 -0.98079
endloop
endfacet
facet normal 0.18259574430547543 -0.22248681787592128 -0.9576838779226557
outer loop
vertex 0.10839 -0.16221 -0.98079
vertex 0.13795 -0.13795 -0.98079
vertex 1 -1.5 -0.5
endloop
endfacet
facet normal 0.0846532828262274 -0.27902934683631125 -0.956544011172954
outer loop
vertex 0.14645 -0.35355 -0.92388
vertex 0.07466 -0.37533 -0.92388
vertex 0.03806 -0.19134 -0.98079
endloop
endfacet
facet normal 0.0846284346429833 -0.2790451088228098 -0.9565416118977493
outer loop
vertex 0.14645 -0.35355 -0.92388
vertex 0.03806 -0.19134 -0.98079
vertex 0.07466 -0.18024 -0.98079
endloop
endfacet
facet normal 0.11983052626977352 -0.26457790854344304 -0.9568903674322814
outer loop
vertex 0.14645 -0.35355 -0.92388
vertex 0.07466 -0.18024 -0.98079
vertex 1 -1.5 -0.5
endloop
endfacet
facet normal 0.08727094050913588 -0.28765752154044344 -0.9537488837444897
outer loop
vertex 0.14645 -0.35355 -0.92388
vertex 1 -1.5 -0.5
vertex 0.07466 -0.37533 -0.92388
endloop
endfacet
facet normal 0.03239315304714883 -0.32904391925171755 -0.9437588584162446
outer loop
vertex 0 -0.38268 -0.92388
vertex 0.07466 -0.37533 -0.92388
vertex 1 -1.5 -0.5
endloop
endfacet
facet normal 0 -0.35470468543393574 -0.934978388055688
outer loop
vertex 0 -0.38268 -0.92388
vertex 1 -1.5 -0.5
vertex 0 -1.5 -0.5
endloop
endfacet
facet normal -0.3041804475912345 -0.3706607596281085 -0.8775447889282403
outer loop
vertex -0.30866 -0.46194 -0.83147
vertex 0 -1.5 -0.5
vertex -0.39285 -0.39285 -0.83147
endloop
endfacet
facet normal -0.3001664899481685 -0.3657695294360442 -0.8809726043687912
outer loop
vertex -0.30866 -0.46194 -0.83147
vertex -0.39285 -0.39285 -0.83147
vertex -0.2706 -0.2706 -0.92388
endloop
endfacet
facet normal -0.30017087062379083 -0.36576820314086256 -0.8809716624273792
outer loop
vertex -0.30866 -0.46194 -0.83147
vertex -0.2706 -0.2706 -0.92388
vertex -0.21261 -0.31819 -0.92388
endloop
endfacet
facet normal -0.29528156571322844 -0.36918192066221767 -0.8812000376793572
outer loop
vertex -0.30866 -0.46194 -0.83147
vertex -0.21261 -0.31819 -0.92388
vertex 0 -1.5 -0.5
endloop
endfacet
facet normal -0.4917868381078109 -0.4036186144955753 -0.771516506561327
outer loop
vertex -0.5 -0.5 -0.70711
vertex -0.58794 -0.39285 -0.70711
vertex -0.46194 -0.30866 -0.83147
endloop
endfacet
facet normal -0.4918156300593244 -0.40360543866015847 -0.7715050459415614
outer loop
vertex -0.5 -0.5 -0.70711
vertex -0.46194 -0.30866 -0.83147
vertex -0.39285 -0.39285 -0.83147
endloop
endfacet
facet normal -0.49048240657340014 -0.40504693434699396 -0.7715983345096512
outer loop
vertex -0.5 -0.5 -0.70711
vertex -0.39285 -0.39285 -0.83147
vertex 0 -1.5 -0.5
endloop
endfacet
facet normal -0.49558646762259634 -0.40673704118274495 -0.7674366634708453
outer loop
vertex -0.5 -0.5 -0.70711
vertex 0 -1.5 -0.5
vertex -0.58794 -0.39285 -0.70711
endloop
endfacet
facet normal -0.8443064153192953 -0.4512517290165173 -0.28899576832591417
outer loop
vertex -0.85355 -0.35355 -0.38268
vertex -0.76818 -0.51328 -0.38268
vertex -0.81549 -0.5449 -0.19509
endloop
endfacet
facet normal -0.8442723229322443 -0.4512876295959105 -0.28903930546604995
outer loop
vertex -0.85355 -0.35355 -0.38268
vertex -0.81549 -0.5449 -0.19509
vertex -0.90613 -0.37533 -0.19509
endloop
endfacet
facet normal -0.8448309274236795 -0.2563107158498473 -0.4696440364882585
outer loop
vertex -0.85355 -0.35355 -0.38268
vertex -0.90613 -0.18024 -0.38268
vertex -0.81549 -0.16221 -0.55557
endloop
endfacet
facet normal -0.8448746182358354 -0.25625732907255705 -0.46959457062177656
outer loop
vertex -0.85355 -0.35355 -0.38268
vertex -0.81549 -0.16221 -0.55557
vertex -0.76818 -0.31819 -0.55557
endloop
endfacet
facet normal -0.7786237526288408 -0.41620486366608783 -0.46959404095758606
outer loop
vertex -0.85355 -0.35355 -0.38268
vertex -0.76818 -0.31819 -0.55557
vertex -0.69134 -0.46194 -0.55557
endloop
endfacet
facet normal -0.7786292685378167 -0.41614963159752993 -0.4696338427940483
outer loop
vertex -0.85355 -0.35355 -0.38268
vertex -0.69134 -0.46194 -0.55557
vertex -0.76818 -0.51328 -0.38268
endloop
endfacet
facet normal -0.8777199545846665 -0.46914281336785835 -0.09753308151177219
outer loop
vertex -0.83147 -0.55557 0
vertex -0.92388 -0.38268 0
vertex -0.90613 -0.37533 -0.19509
endloop
endfacet
facet normal -0.8777084047413765 -0.4691601686958678 -0.09755353584372382
outer loop
vertex -0.83147 -0.55557 0
vertex -0.90613 -0.37533 -0.19509
vertex -0.81549 -0.5449 -0.19509
endloop
endfacet
facet normal -0.7720415054821986 -0.628035490306977 -0.09758758490533061
outer loop
vertex -0.83147 -0.55557 0
vertex -0.81549 -0.5449 -0.19509
vertex 0 -1.5 -0.5
endloop
endfacet
facet normal -0.7700992276146968 -0.631975319692251 -0.08691590721567875
outer loop
vertex -0.83147 -0.55557 0
vertex 0 -1.5 -0.5
vertex -0.70711 -0.70711 0
endloop
endfacet
facet normal -0.7700992276146968 -0.631975319692251 0.08691590721567875
outer loop
vertex -0.83147 -0.55557 0
vertex -0.70711 -0.70711 0
vertex 0 -1.5 0.5
endloop
endfacet
facet normal -0.7720415054821986 -0.628035490306977 0.09758758490533061
outer loop
vertex -0.83147 -0.55557 0
vertex 0 -1.5 0.5
vertex -0.81549 -0.5449 0.19509
endloop
endfacet
facet normal -0.8777084047413765 -0.4691601686958678 0.09755353584372382
outer loop
vertex -0.83147 -0.55557 0
vertex -0.81549 -0.5449 0.19509
vertex -0.90613 -0.37533 0.19509
endloop
endfacet
facet normal -0.8777199545846665 -0.46914281336785835 0.09753308151177219
outer loop
vertex -0.83147 -0.55557 0
vertex -0.90613 -0.37533 0.19509
vertex -0.92388 -0.38268 0
endloop
endfacet
facet normal -0.9177557518617769 -0.27838441497584543 0.2832428241336061
outer loop
vertex -0.96194 -0.19134 0.19509
vertex -0.90613 -0.37533 0.19509
vertex 0 0 3.5
endloop
endfacet
facet normal -0.9544277780965157 -0.09402615039782247 0.28324318074600574
outer loop
vertex -0.96194 -0.19134 0.19509
vertex 0 0 3.5
vertex -0.98079 0 0.19509
endloop
endfacet
facet normal 0.08683519661629872 -0.04641679795410222 -0.995140758634826
outer loop
vertex 0.18024 -0.07466 -0.98079
vertex 0.16221 -0.10839 -0.98079
vertex 0 0 -1
endloop
endfacet
facet normal 0.25716691586129914 -0.13744592117375362 -0.9565426264098666
outer loop
vertex 0.18024 -0.07466 -0.98079
vertex 0.35355 -0.14645 -0.92388
vertex 0.31819 -0.21261 -0.92388
endloop
endfacet
facet normal 0.25715439671870527 -0.13745905048438367 -0.9565441054589017
outer loop
vertex 0.18024 -0.07466 -0.98079
vertex 0.31819 -0.21261 -0.92388
vertex 0.16221 -0.10839 -0.98079
endloop
endfacet
facet normal 0.6331677442435691 0.06232954913810181 -0.7715008975715785
outer loop
vertex 0.55557 0 -0.83147
vertex 0.5449 0.10839 -0.83147
vertex 0.69352 0.13795 -0.70711
endloop
endfacet
facet normal 0.6331408232777964 0.062373206149657474 -0.7715194625242622
outer loop
vertex 0.55557 0 -0.83147
vertex 0.69352 0.13795 -0.70711
vertex 0.70711 0 -0.70711
endloop
endfacet
facet normal 0.633539596134177 0.05133475165201396 -0.7720053907862107
outer loop
vertex 0.55557 0 -0.83147
vertex 0.70711 0 -0.70711
vertex 1 -0.5 -0.5
endloop
endfacet
facet normal 0.5978594362650592 0 -0.8016009571281871
outer loop
vertex 0.55557 0 -0.83147
vertex 1 -0.5 -0.5
vertex 1 -1.5 -0.5
endloop
endfacet
facet normal 0.4879261461789404 -0.048031847769436975 -0.8715624002186079
outer loop
vertex 0.55557 0 -0.83147
vertex 1 -1.5 -0.5
vertex 0.5449 -0.10839 -0.83147
endloop
endfacet
facet normal 0.4708826921847455 -0.046354076258060845 -0.8809771789411506
outer loop
vertex 0.55557 0 -0.83147
vertex 0.5449 -0.10839 -0.83147
vertex 0.37533 -0.07466 -0.92388
endloop
endfacet
facet normal 0.4708834998631534 -0.0463567335118428 -0.8809766074163033
outer loop
vertex 0.55557 0 -0.83147
vertex 0.37533 -0.07466 -0.92388
vertex 0.38268 0 -0.92388
endloop
endfacet
facet normal 0.4708834998631534 0.0463567335118428 -0.8809766074163033
outer loop
vertex 0.55557 0 -0.83147
vertex 0.38268 0 -0.92388
vertex 0.37533 0.07466 -0.92388
endloop
endfacet
facet normal 0.4708826921847455 0.046354076258060845 -0.8809771789411506
outer loop
vertex 0.55557 0 -0.83147
vertex 0.37533 0.07466 -0.92388
vertex 0.5449 0.10839 -0.83147
endloop
endfacet
facet normal 0.5987067253643548 0.4913697566826072 -0.6325393420342853
outer loop
vertex 0.69134 0.46194 -0.55557
vertex 0.58794 0.39285 -0.70711
vertex 0.5 0.5 -0.70711
endloop
endfacet
facet normal 0.5987167004706258 0.4913278319735133 -0.6325624665641917
outer loop
vertex 0.69134 0.46194 -0.55557
vertex 0.5 0.5 -0.70711
vertex 0.58794 0.58794 -0.55557
endloop
endfacet
facet normal 0.9160849924800881 0.2779282724863136 -0.28904006972309243
outer loop
vertex 0.90613 0.18024 -0.38268
vertex 0.85355 0.35355 -0.38268
vertex 0.90613 0.37533 -0.19509
endloop
endfacet
facet normal 0.9161118355283159 0.2778857630351396 -0.2889958607096614
outer loop
vertex 0.90613 0.18024 -0.38268
vertex 0.90613 0.37533 -0.19509
vertex 0.96194 0.19134 -0.19509
endloop
endfacet
facet normal 0.9399084555206413 0.1797654421246838 -0.2902696695463031
outer loop
vertex 0.90613 0.18024 -0.38268
vertex 0.96194 0.19134 -0.19509
vertex 1 -0.5 -0.5
endloop
endfacet
facet normal 0.8590809257894528 0.19982048424806748 -0.47122365923158444
outer loop
vertex 0.90613 0.18024 -0.38268
vertex 1 -0.5 -0.5
vertex 0.81549 0.16221 -0.55557
endloop
endfacet
facet normal 0.7400193008330969 0.607321720647375 -0.28901861881962926
outer loop
vertex 0.65328 0.65328 -0.38268
vertex 0.69352 0.69352 -0.19509
vertex 0.81549 0.5449 -0.19509
endloop
endfacet
facet normal 0.740011906493089 0.6073383432575423 -0.28900262119511505
outer loop
vertex 0.65328 0.65328 -0.38268
vertex 0.81549 0.5449 -0.19509
vertex 0.76818 0.51328 -0.38268
endloop
endfacet
facet normal 0.6824496604145522 0.5600961855830862 -0.4696325413505109
outer loop
vertex 0.65328 0.65328 -0.38268
vertex 0.76818 0.51328 -0.38268
vertex 0.69134 0.46194 -0.55557
endloop
endfacet
facet normal 0.682489576345567 0.5600747793185047 -0.4696000636190086
outer loop
vertex 0.65328 0.65328 -0.38268
vertex 0.69134 0.46194 -0.55557
vertex 0.58794 0.58794 -0.55557
endloop
endfacet
facet normal 1 0 0
outer loop
vertex 1 1 2.5
vertex 1 1 3.5
vertex 1 0 3.5
endloop
endfacet
facet normal 1 0 0
outer loop
vertex 1 1 2.5
vertex 1 0 3.5
vertex 1 -1.5 0.5
endloop
endfacet
facet normal 1 0 0
outer loop
vertex 1 1 2.5
vertex 1 -1.5 0.5
vertex 1 -1.5 -0.5
endloop
endfacet
facet normal 1 0 0
outer loop
vertex 1 1 2.5
vertex 1 -1.5 -0.5
vertex 1 -0.5 -0.5
endloop
endfacet
facet normal 1 0 0
outer loop
vertex 1 1 2.5
vertex 1 -0.5 -0.5
vertex 1 0 0
endloop
endfacet
facet normal 0.9944234188889393 0.09791826273441215 -0.039167305093764856
outer loop
vertex 1 1 2.5
vertex 1 0 0
vertex 0.98079 0.19509 0
endloop
endfacet
facet normal 0.9548687065452394 0.2805165881006245 -0.09765345391232307
outer loop
vertex 1 1 2.5
vertex 0.98079 0.19509 0
vertex 0.96194 0.19134 -0.19509
endloop
endfacet
facet normal 0.9521375313912143 0.2888134987061457 -0.1001043669445033
outer loop
vertex 1 1 2.5
vertex 0.96194 0.19134 -0.19509
vertex 0.90613 0.37533 -0.19509
endloop
endfacet
facet normal 0.8733994672185029 0.46685691872787055 -0.13862895836856645
outer loop
vertex 1 1 2.5
vertex 0.90613 0.37533 -0.19509
vertex 0.81549 0.5449 -0.19509
endloop
endfacet
facet normal 0.7632945177372126 0.6264233099744844 -0.15803580579389956
outer loop
vertex 1 1 2.5
vertex 0.81549 0.5449 -0.19509
vertex 0.69352 0.69352 -0.19509
endloop
endfacet
facet normal -0.6830823372917618 -0.3650928418702961 -0.6325391191816477
outer loop
vertex -0.65328 -0.2706 -0.70711
vertex -0.58794 -0.39285 -0.70711
vertex -0.69134 -0.46194 -0.55557
endloop
endfacet
facet normal -0.6830494300779761 -0.36511664839785524 -0.6325609133774143
outer loop
vertex -0.65328 -0.2706 -0.70711
vertex -0.69134 -0.46194 -0.55557
vertex -0.76818 -0.31819 -0.55557
endloop
endfacet
facet normal -0.5610849949145827 -0.2999073778127501 -0.7715174613806113
outer loop
vertex -0.51328 -0.21261 -0.83147
vertex -0.46194 -0.30866 -0.83147
vertex -0.58794 -0.39285 -0.70711
endloop
endfacet
facet normal -0.5611005075838367 -0.29989617313315237 -0.7715105350734047
outer loop
vertex -0.51328 -0.21261 -0.83147
vertex -0.58794 -0.39285 -0.70711
vertex -0.65328 -0.2706 -0.70711
endloop
endfacet
facet normal 0.02859119386401296 -0.29018155692382186 -0.9565444096615154
outer loop
vertex 0 -0.19509 -0.98079
vertex 0.03806 -0.19134 -0.98079
vertex 0.07466 -0.37533 -0.92388
endloop
endfacet
facet normal 0.02856817384552549 -0.2901904570485619 -0.956542397429972
outer loop
vertex 0 -0.19509 -0.98079
vertex 0.07466 -0.37533 -0.92388
vertex 0 -0.38268 -0.92388
endloop
endfacet
facet normal -0.009654711880752048 -0.09798888911504601 -0.9951406755572294
outer loop
vertex 0 -0.19509 -0.98079
vertex -0.03806 -0.19134 -0.98079
vertex 0 0 -1
endloop
endfacet
facet normal 0.009654711880752048 -0.09798888911504601 -0.9951406755572294
outer loop
vertex 0 -0.19509 -0.98079
vertex 0 0 -1
vertex 0.03806 -0.19134 -0.98079
endloop
endfacet
facet normal -0.028591193864012838 -0.2901815569238219 -0.9565444096615154
outer loop
vertex -0.07466 -0.37533 -0.92388
vertex -0.03806 -0.19134 -0.98079
vertex 0 -0.19509 -0.98079
endloop
endfacet
facet normal -0.028568173845525534 -0.2901904570485619 -0.956542397429972
outer loop
vertex -0.07466 -0.37533 -0.92388
vertex 0 -0.19509 -0.98079
vertex 0 -0.38268 -0.92388
endloop
endfacet
facet normal -0.03489809005688349 -0.3544886263465188 -0.9344088704102396
outer loop
vertex -0.07466 -0.37533 -0.92388
vertex 0 -0.38268 -0.92388
vertex 0 -1.5 -0.5
endloop
endfacet
facet normal -0.18497909487282363 -0.22540318788978886 -0.9565438501967128
outer loop
vertex -0.10839 -0.16221 -0.98079
vertex -0.21261 -0.31819 -0.92388
vertex -0.2706 -0.2706 -0.92388
endloop
endfacet
facet normal -0.18498376689781793 -0.2253965436726915 -0.9565445123383951
outer loop
vertex -0.10839 -0.16221 -0.98079
vertex -0.2706 -0.2706 -0.92388
vertex -0.13795 -0.13795 -0.98079
endloop
endfacet
facet normal -0.06246507691346584 -0.0761116106167374 -0.995140762352503
outer loop
vertex -0.10839 -0.16221 -0.98079
vertex -0.13795 -0.13795 -0.98079
vertex 0 0 -1
endloop
endfacet
facet normal -0.36576659759399954 -0.30016955301773446 -0.8809727779708307
outer loop
vertex -0.31819 -0.21261 -0.92388
vertex -0.2706 -0.2706 -0.92388
vertex -0.39285 -0.39285 -0.83147
endloop
endfacet
facet normal -0.3657706353515686 -0.30016739751086696 -0.8809718359777815
outer loop
vertex -0.31819 -0.21261 -0.92388
vertex -0.39285 -0.39285 -0.83147
vertex -0.46194 -0.30866 -0.83147
endloop
endfacet
facet normal -0.4172975781645193 -0.223051094877318 -0.8809715888336335
outer loop
vertex -0.31819 -0.21261 -0.92388
vertex -0.46194 -0.30866 -0.83147
vertex -0.51328 -0.21261 -0.83147
endloop
endfacet
facet normal -0.41729957313107463 -0.22303072711479444 -0.8809758004776685
outer loop
vertex -0.31819 -0.21261 -0.92388
vertex -0.51328 -0.21261 -0.83147
vertex -0.35355 -0.14645 -0.92388
endloop
endfacet
facet normal -0.9523703752170546 -0.28892477239513076 0.09753534900408516
outer loop
vertex -0.98079 -0.19509 0
vertex -0.92388 -0.38268 0
vertex -0.90613 -0.37533 0.19509
endloop
endfacet
facet normal -0.9523780697072974 -0.28888646160315395 0.09757368827205093
outer loop
vertex -0.98079 -0.19509 0
vertex -0.90613 -0.37533 0.19509
vertex -0.96194 -0.19134 0.19509
endloop
endfacet
facet normal -0.9523817008265413 -0.2888875630367373 -0.09753497758978509
outer loop
vertex -0.96194 -0.19134 -0.19509
vertex -0.90613 -0.37533 -0.19509
vertex -0.92388 -0.38268 0
endloop
endfacet
facet normal -0.9523668138663046 -0.28892369197255396 -0.09757331634772132
outer loop
vertex -0.96194 -0.19134 -0.19509
vertex -0.92388 -0.38268 0
vertex -0.98079 -0.19509 0
endloop
endfacet
facet normal -0.9160981460991185 -0.27793226312325675 -0.288994539444853
outer loop
vertex -0.96194 -0.19134 -0.19509
vertex -0.90613 -0.18024 -0.38268
vertex -0.85355 -0.35355 -0.38268
endloop
endfacet
facet normal -0.9160994450519535 -0.277882004610846 -0.2890387487672899
outer loop
vertex -0.96194 -0.19134 -0.19509
vertex -0.85355 -0.35355 -0.38268
vertex -0.90613 -0.37533 -0.19509
endloop
endfacet
facet normal -0.9527214636845355 -0.09382382368176068 -0.288996371507551
outer loop
vertex -0.92388 0 -0.38268
vertex -0.90613 -0.18024 -0.38268
vertex -0.96194 -0.19134 -0.19509
endloop
endfacet
facet normal -0.9527087907716574 -0.09385680310466066 -0.28902743900429145
outer loop
vertex -0.92388 0 -0.38268
vertex -0.96194 -0.19134 -0.19509
vertex -0.98079 0 -0.19509
endloop
endfacet
facet normal -0.9618176109502858 0.09475416518455587 0.25676551841332296
outer loop
vertex -0.96194 0.19134 0.19509
vertex -0.98079 0 0.19509
vertex 0 1 3.5
endloop
endfacet
facet normal -0.9369840469423001 0.2842169664647524 0.2031787679586704
outer loop
vertex -0.96194 0.19134 0.19509
vertex 0 1 3.5
vertex -0.90613 0.37533 0.19509
endloop
endfacet
facet normal -0.5600747793185047 0.682489576345567 -0.46960006361900863
outer loop
vertex -0.46194 0.69134 -0.55557
vertex -0.58794 0.58794 -0.55557
vertex -0.65328 0.65328 -0.38268
endloop
endfacet
facet normal -0.5600961855830862 0.6824496604145525 -0.46963254135051097
outer loop
vertex -0.46194 0.69134 -0.55557
vertex -0.65328 0.65328 -0.38268
vertex -0.51328 0.76818 -0.38268
endloop
endfacet
facet normal -0.7533454411732837 0.6503152083428653 0.09777922101042827
outer loop
vertex -0.70711 0.70711 0
vertex -0.69352 0.69352 0.19509
vertex 0 1 3.5
endloop
endfacet
facet normal -0.6331018943968554 0.7714720253851676 0.06334749686625675
outer loop
vertex -0.70711 0.70711 0
vertex 0 1 3.5
vertex -0.55557 0.83147 0
endloop
endfacet
facet normal 0.29019025885525723 -0.02859205125347388 -0.9565417441338552
outer loop
vertex 0.19134 -0.03806 -0.98079
vertex 0.19509 0 -0.98079
vertex 0.38268 0 -0.92388
endloop
endfacet
facet normal 0.29018602092705703 -0.028567737125822147 -0.9565437562673396
outer loop
vertex 0.19134 -0.03806 -0.98079
vertex 0.38268 0 -0.92388
vertex 0.37533 -0.07466 -0.92388
endloop
endfacet
facet normal 0.27902934683631125 -0.08465328282622742 -0.956544011172954
outer loop
vertex 0.19134 -0.03806 -0.98079
vertex 0.37533 -0.07466 -0.92388
vertex 0.35355 -0.14645 -0.92388
endloop
endfacet
facet normal 0.27904510882280986 -0.0846284346429833 -0.9565416118977493
outer loop
vertex 0.19134 -0.03806 -0.98079
vertex 0.35355 -0.14645 -0.92388
vertex 0.18024 -0.07466 -0.98079
endloop
endfacet
facet normal 0.09422510974883282 -0.02857646771071158 -0.9951407006981471
outer loop
vertex 0.19134 -0.03806 -0.98079
vertex 0.18024 -0.07466 -0.98079
vertex 0 0 -1
endloop
endfacet
facet normal 0.09798888911504601 -0.009654711880752048 -0.9951406755572294
outer loop
vertex 0.19134 -0.03806 -0.98079
vertex 0 0 -1
vertex 0.19509 0 -0.98079
endloop
endfacet
facet normal 0.4913388443033449 0.5987301197506915 -0.6325412111332952
outer loop
vertex 0.39285 0.58794 -0.70711
vertex 0.46194 0.69134 -0.55557
vertex 0.58794 0.58794 -0.55557
endloop
endfacet
facet normal 0.491356806788376 0.5986909466383271 -0.6325643357288129
outer loop
vertex 0.39285 0.58794 -0.70711
vertex 0.58794 0.58794 -0.55557
vertex 0.5 0.5 -0.70711
endloop
endfacet
facet normal 0.6088206086649262 0.18468858871222502 -0.7715099426866484
outer loop
vertex 0.51328 0.21261 -0.83147
vertex 0.65328 0.2706 -0.70711
vertex 0.69352 0.13795 -0.70711
endloop
endfacet
facet normal 0.6088249406381813 0.1847154540681189 -0.7715000924726605
outer loop
vertex 0.51328 0.21261 -0.83147
vertex 0.69352 0.13795 -0.70711
vertex 0.5449 0.10839 -0.83147
endloop
endfacet
facet normal 0.7411815873149271 0.22480639117751802 -0.6325440230616884
outer loop
vertex 0.76818 0.31819 -0.55557
vertex 0.81549 0.16221 -0.55557
vertex 0.69352 0.13795 -0.70711
endloop
endfacet
facet normal 0.7411565855021873 0.22483332831216019 -0.6325637440185892
outer loop
vertex 0.76818 0.31819 -0.55557
vertex 0.69352 0.13795 -0.70711
vertex 0.65328 0.2706 -0.70711
endloop
endfacet
facet normal 0.6830653703231145 0.36508377338987547 -0.6325626753711892
outer loop
vertex 0.76818 0.31819 -0.55557
vertex 0.65328 0.2706 -0.70711
vertex 0.58794 0.39285 -0.70711
endloop
endfacet
facet normal 0.6830638586512078 0.36512436103484386 -0.6325408808791885
outer loop
vertex 0.76818 0.31819 -0.55557
vertex 0.58794 0.39285 -0.70711
vertex 0.69134 0.46194 -0.55557
endloop
endfacet
facet normal 0.7786040986760747 0.4161943578592666 -0.4696359377336129
outer loop
vertex 0.76818 0.31819 -0.55557
vertex 0.69134 0.46194 -0.55557
vertex 0.76818 0.51328 -0.38268
endloop
endfacet
facet normal 0.7786469573329368 0.4161590856289543 -0.46959613636041814
outer loop
vertex 0.76818 0.31819 -0.55557
vertex 0.76818 0.51328 -0.38268
vertex 0.85355 0.35355 -0.38268
endloop
endfacet
facet normal 0.8448547810177768 0.25631795272006624 -0.46959717429388176
outer loop
vertex 0.76818 0.31819 -0.55557
vertex 0.85355 0.35355 -0.38268
vertex 0.90613 0.18024 -0.38268
endloop
endfacet
facet normal 0.8448481132508254 0.25624928989547774 -0.4696466405336933
outer loop
vertex 0.76818 0.31819 -0.55557
vertex 0.90613 0.18024 -0.38268
vertex 0.81549 0.16221 -0.55557
endloop
endfacet
facet normal 0.5601065684041363 0.6824623113714454 -0.46960177340815806
outer loop
vertex 0.51328 0.76818 -0.38268
vertex 0.65328 0.65328 -0.38268
vertex 0.58794 0.58794 -0.55557
endloop
endfacet
facet normal 0.5600632430683271 0.6824755186325846 -0.4696342515521759
outer loop
vertex 0.51328 0.76818 -0.38268
vertex 0.58794 0.58794 -0.55557
vertex 0.46194 0.69134 -0.55557
endloop
endfacet
facet normal -0.7786237526288408 0.4162048636660878 -0.469594040957586
outer loop
vertex -0.69134 0.46194 -0.55557
vertex -0.76818 0.31819 -0.55557
vertex -0.85355 0.35355 -0.38268
endloop
endfacet
facet normal -0.7786292685378167 0.41614963159753 -0.4696338427940483
outer loop
vertex -0.69134 0.46194 -0.55557
vertex -0.85355 0.35355 -0.38268
vertex -0.76818 0.51328 -0.38268
endloop
endfacet
facet normal -0.6824496604145525 0.5600961855830862 -0.46963254135051097
outer loop
vertex -0.69134 0.46194 -0.55557
vertex -0.76818 0.51328 -0.38268
vertex -0.65328 0.65328 -0.38268
endloop
endfacet
facet normal -0.682489576345567 0.5600747793185047 -0.46960006361900863
outer loop
vertex -0.69134 0.46194 -0.55557
vertex -0.65328 0.65328 -0.38268
vertex -0.58794 0.58794 -0.55557
endloop
endfacet
facet normal -0.7411565855021872 -0.2248333283121602 -0.6325637440185892
outer loop
vertex -0.69352 -0.13795 -0.70711
vertex -0.65328 -0.2706 -0.70711
vertex -0.76818 -0.31819 -0.55557
endloop
endfacet
facet normal -0.7411815873149271 -0.22480639117751802 -0.6325440230616884
outer loop
vertex -0.69352 -0.13795 -0.70711
vertex -0.76818 -0.31819 -0.55557
vertex -0.81549 -0.16221 -0.55557
endloop
endfacet
facet normal -0.1082744327619034 -0.35688804077029557 -0.9278510513898381
outer loop
vertex -0.14645 -0.35355 -0.92388
vertex -0.07466 -0.37533 -0.92388
vertex 0 -1.5 -0.5
endloop
endfacet
facet normal -0.1934114754998429 -0.36188074714563356 -0.9119398697229395
outer loop
vertex -0.14645 -0.35355 -0.92388
vertex 0 -1.5 -0.5
vertex -0.21261 -0.31819 -0.92388
endloop
endfacet
facet normal 0.2888134987061455 0.9521375313912144 -0.10010436694450323
outer loop
vertex 0.19134 0.96194 -0.19509
vertex 1 1 2.5
vertex 0.37533 0.90613 -0.19509
endloop
endfacet
facet normal -0.9904383215307008 -0.0975737554136811 -0.0975258606622826
outer loop
vertex -1 0 0
vertex -0.98079 0 -0.19509
vertex -0.96194 -0.19134 -0.19509
endloop
endfacet
facet normal -0.9904384105005078 -0.09752586942290586 -0.09757284355051772
outer loop
vertex -1 0 0
vertex -0.96194 -0.19134 -0.19509
vertex -0.98079 -0.19509 0
endloop
endfacet
facet normal -0.9904384105005078 -0.09752586942290586 0.09757284355051772
outer loop
vertex -1 0 0
vertex -0.98079 -0.19509 0
vertex -0.96194 -0.19134 0.19509
endloop
endfacet
facet normal -0.9904383215307008 -0.0975737554136811 0.0975258606622826
outer loop
vertex -1 0 0
vertex -0.96194 -0.19134 0.19509
vertex -0.98079 0 0.19509
endloop
endfacet
facet normal -0.8718095455510874 0.46600706026272626 0.1509487862531475
outer loop
vertex -0.81549 0.5449 0.19509
vertex -0.90613 0.37533 0.19509
vertex 0 1 3.5
endloop
endfacet
facet normal -0.7689105659899163 0.6310323087995567 0.10283368494889078
outer loop
vertex -0.81549 0.5449 0.19509
vertex 0 1 3.5
vertex -0.69352 0.69352 0.19509
endloop
endfacet
facet normal 0.2999118123456636 0.5610932913089408 -0.7715097039335537
outer loop
vertex 0.30866 0.46194 -0.83147
vertex 0.21261 0.51328 -0.83147
vertex 0.2706 0.65328 -0.70711
endloop
endfacet
facet normal 0.2998926891126801 0.5610939890423194 -0.7715166300717976
outer loop
vertex 0.30866 0.46194 -0.83147
vertex 0.2706 0.65328 -0.70711
vertex 0.39285 0.58794 -0.70711
endloop
endfacet
facet normal 0.4036186144955752 0.4917868381078108 -0.771516506561327
outer loop
vertex 0.30866 0.46194 -0.83147
vertex 0.39285 0.58794 -0.70711
vertex 0.5 0.5 -0.70711
endloop
endfacet
facet normal 0.4036054386601585 0.4918156300593244 -0.7715050459415616
outer loop
vertex 0.30866 0.46194 -0.83147
vertex 0.5 0.5 -0.70711
vertex 0.39285 0.39285 -0.83147
endloop
endfacet
facet normal 0.3001664899481685 0.3657695294360442 -0.8809726043687912
outer loop
vertex 0.30866 0.46194 -0.83147
vertex 0.39285 0.39285 -0.83147
vertex 0.2706 0.2706 -0.92388
endloop
endfacet
facet normal 0.30017087062379083 0.36576820314086256 -0.8809716624273792
outer loop
vertex 0.30866 0.46194 -0.83147
vertex 0.2706 0.2706 -0.92388
vertex 0.21261 0.31819 -0.92388
endloop
endfacet
facet normal 0.4918156300593244 0.4036054386601585 -0.7715050459415616
outer loop
vertex 0.46194 0.30866 -0.83147
vertex 0.39285 0.39285 -0.83147
vertex 0.5 0.5 -0.70711
endloop
endfacet
facet normal 0.4917868381078108 0.4036186144955752 -0.771516506561327
outer loop
vertex 0.46194 0.30866 -0.83147
vertex 0.5 0.5 -0.70711
vertex 0.58794 0.39285 -0.70711
endloop
endfacet
facet normal 0.5610939890423194 0.2998926891126801 -0.7715166300717976
outer loop
vertex 0.46194 0.30866 -0.83147
vertex 0.58794 0.39285 -0.70711
vertex 0.65328 0.2706 -0.70711
endloop
endfacet
facet normal 0.5610932913089408 0.2999118123456636 -0.7715097039335537
outer loop
vertex 0.46194 0.30866 -0.83147
vertex 0.65328 0.2706 -0.70711
vertex 0.51328 0.21261 -0.83147
endloop
endfacet
facet normal 0.36576820314086256 0.30017087062379083 -0.8809716624273792
outer loop
vertex 0.46194 0.30866 -0.83147
vertex 0.31819 0.21261 -0.92388
vertex 0.2706 0.2706 -0.92388
endloop
endfacet
facet normal 0.3657695294360442 0.3001664899481685 -0.8809726043687912
outer loop
vertex 0.46194 0.30866 -0.83147
vertex 0.2706 0.2706 -0.92388
vertex 0.39285 0.39285 -0.83147
endloop
endfacet
facet normal 0.22304807950521474 0.4172919368226703 -0.8809750244427024
outer loop
vertex 0.14645 0.35355 -0.92388
vertex 0.21261 0.51328 -0.83147
vertex 0.30866 0.46194 -0.83147
endloop
endfacet
facet normal 0.22303510454869915 0.4173077634881769 -0.8809708126104102
outer loop
vertex 0.14645 0.35355 -0.92388
vertex 0.30866 0.46194 -0.83147
vertex 0.21261 0.31819 -0.92388
endloop
endfacet
facet normal 0.18498559242310061 0.22539876801429728 -0.956543635164393
outer loop
vertex 0.13795 0.13795 -0.98079
vertex 0.10839 0.16221 -0.98079
vertex 0.21261 0.31819 -0.92388
endloop
endfacet
facet normal 0.18497816433391814 0.22540205399714056 -0.9565442973399215
outer loop
vertex 0.13795 0.13795 -0.98079
vertex 0.21261 0.31819 -0.92388
vertex 0.2706 0.2706 -0.92388
endloop
endfacet
facet normal 0.06246507691346583 0.0761116106167374 -0.995140762352503
outer loop
vertex 0.13795 0.13795 -0.98079
vertex 0 0 -1
vertex 0.10839 0.16221 -0.98079
endloop
endfacet
facet normal 0.09422510974883282 0.02857646771071158 -0.9951407006981471
outer loop
vertex 0.19134 0.03806 -0.98079
vertex 0 0 -1
vertex 0.18024 0.07466 -0.98079
endloop
endfacet
facet normal 0.29018602092705703 0.028567737125822147 -0.9565437562673396
outer loop
vertex 0.19134 0.03806 -0.98079
vertex 0.37533 0.07466 -0.92388
vertex 0.38268 0 -0.92388
endloop
endfacet
facet normal 0.29019025885525723 0.02859205125347388 -0.9565417441338552
outer loop
vertex 0.19134 0.03806 -0.98079
vertex 0.38268 0 -0.92388
vertex 0.19509 0 -0.98079
endloop
endfacet
facet normal 0.09798888911504601 0.009654711880752048 -0.9951406755572294
outer loop
vertex 0.19134 0.03806 -0.98079
vertex 0.19509 0 -0.98079
vertex 0 0 -1
endloop
endfacet
facet normal 0.27902934683631125 0.0846532828262274 -0.956544011172954
outer loop
vertex 0.35355 0.14645 -0.92388
vertex 0.37533 0.07466 -0.92388
vertex 0.19134 0.03806 -0.98079
endloop
endfacet
facet normal 0.2790451088228098 0.0846284346429833 -0.9565416118977493
outer loop
vertex 0.35355 0.14645 -0.92388
vertex 0.19134 0.03806 -0.98079
vertex 0.18024 0.07466 -0.98079
endloop
endfacet
facet normal 0.4173077634881769 0.22303510454869915 -0.8809708126104102
outer loop
vertex 0.35355 0.14645 -0.92388
vertex 0.31819 0.21261 -0.92388
vertex 0.46194 0.30866 -0.83147
endloop
endfacet
facet normal 0.4172919368226703 0.22304807950521474 -0.8809750244427024
outer loop
vertex 0.35355 0.14645 -0.92388
vertex 0.46194 0.30866 -0.83147
vertex 0.51328 0.21261 -0.83147
endloop
endfacet
facet normal 0.4527797492184313 0.137371864040365 -0.8809764296891092
outer loop
vertex 0.35355 0.14645 -0.92388
vertex 0.51328 0.21261 -0.83147
vertex 0.5449 0.10839 -0.83147
endloop
endfacet
facet normal 0.452779204319123 0.1373663611933488 -0.8809775677896914
outer loop
vertex 0.35355 0.14645 -0.92388
vertex 0.5449 0.10839 -0.83147
vertex 0.37533 0.07466 -0.92388
endloop
endfacet
facet normal 0.36512436103484386 0.6830638586512078 -0.6325408808791885
outer loop
vertex 0.31819 0.76818 -0.55557
vertex 0.46194 0.69134 -0.55557
vertex 0.39285 0.58794 -0.70711
endloop
endfacet
facet normal 0.36508377338987547 0.6830653703231145 -0.6325626753711892
outer loop
vertex 0.31819 0.76818 -0.55557
vertex 0.39285 0.58794 -0.70711
vertex 0.2706 0.65328 -0.70711
endloop
endfacet
facet normal 0.4161590856289543 0.7786469573329368 -0.46959613636041814
outer loop
vertex 0.31819 0.76818 -0.55557
vertex 0.35355 0.85355 -0.38268
vertex 0.51328 0.76818 -0.38268
endloop
endfacet
facet normal 0.4161943578592666 0.7786040986760747 -0.4696359377336129
outer loop
vertex 0.31819 0.76818 -0.55557
vertex 0.51328 0.76818 -0.38268
vertex 0.46194 0.69134 -0.55557
endloop
endfacet
facet normal 0.607321720647375 0.740019300833097 -0.2890186188196293
outer loop
vertex 0.5449 0.81549 -0.19509
vertex 0.69352 0.69352 -0.19509
vertex 0.65328 0.65328 -0.38268
endloop
endfacet
facet normal 0.6073383432575424 0.740011906493089 -0.28900262119511505
outer loop
vertex 0.5449 0.81549 -0.19509
vertex 0.65328 0.65328 -0.38268
vertex 0.51328 0.76818 -0.38268
endloop
endfacet
facet normal 0.4512517290165172 0.8443064153192953 -0.2889957683259141
outer loop
vertex 0.5449 0.81549 -0.19509
vertex 0.51328 0.76818 -0.38268
vertex 0.35355 0.85355 -0.38268
endloop
endfacet
facet normal 0.4512876295959105 0.8442723229322443 -0.28903930546604995
outer loop
vertex 0.5449 0.81549 -0.19509
vertex 0.35355 0.85355 -0.38268
vertex 0.37533 0.90613 -0.19509
endloop
endfacet
facet normal 0.46685691872787066 0.8733994672185028 -0.13862895836856648
outer loop
vertex 0.5449 0.81549 -0.19509
vertex 0.37533 0.90613 -0.19509
vertex 1 1 2.5
endloop
endfacet
facet normal 0.6264233099744844 0.7632945177372127 -0.15803580579389961
outer loop
vertex 0.5449 0.81549 -0.19509
vertex 1 1 2.5
vertex 0.69352 0.69352 -0.19509
endloop
endfacet
facet normal 0 1 0
outer loop
vertex 0 1 0
vertex 0 1 3.5
vertex 1 1 3.5
endloop
endfacet
facet normal 0 1 0
outer loop
vertex 0 1 0
vertex 1 1 3.5
vertex 1 1 2.5
endloop
endfacet
facet normal -0.5987067253643548 0.4913697566826072 -0.6325393420342853
outer loop
vertex -0.5 0.5 -0.70711
vertex -0.58794 0.39285 -0.70711
vertex -0.69134 0.46194 -0.55557
endloop
endfacet
facet normal -0.5987167004706258 0.4913278319735133 -0.6325624665641917
outer loop
vertex -0.5 0.5 -0.70711
vertex -0.69134 0.46194 -0.55557
vertex -0.58794 0.58794 -0.55557
endloop
endfacet
facet normal -0.4913278319735133 0.5987167004706258 -0.6325624665641917
outer loop
vertex -0.5 0.5 -0.70711
vertex -0.58794 0.58794 -0.55557
vertex -0.46194 0.69134 -0.55557
endloop
endfacet
facet normal -0.4913697566826072 0.5987067253643548 -0.6325393420342853
outer loop
vertex -0.5 0.5 -0.70711
vertex -0.46194 0.69134 -0.55557
vertex -0.39285 0.58794 -0.70711
endloop
endfacet
facet normal -0.8448309274236795 0.2563107158498473 -0.46964403648825853
outer loop
vertex -0.81549 0.16221 -0.55557
vertex -0.90613 0.18024 -0.38268
vertex -0.85355 0.35355 -0.38268
endloop
endfacet
facet normal -0.8448746182358354 0.25625732907255705 -0.46959457062177656
outer loop
vertex -0.81549 0.16221 -0.55557
vertex -0.85355 0.35355 -0.38268
vertex -0.76818 0.31819 -0.55557
endloop
endfacet
facet normal -0.7411732439297994 0.22483838172435106 -0.6325424290797836
outer loop
vertex -0.65328 0.2706 -0.70711
vertex -0.69352 0.13795 -0.70711
vertex -0.81549 0.16221 -0.55557
endloop
endfacet
facet normal -0.7411674201293814 0.22480209415515517 -0.6325621501498597
outer loop
vertex -0.65328 0.2706 -0.70711
vertex -0.81549 0.16221 -0.55557
vertex -0.76818 0.31819 -0.55557
endloop
endfacet
facet normal -0.6830494300779761 0.36511664839785524 -0.6325609133774143
outer loop
vertex -0.65328 0.2706 -0.70711
vertex -0.76818 0.31819 -0.55557
vertex -0.69134 0.46194 -0.55557
endloop
endfacet
facet normal -0.6830823372917618 0.3650928418702961 -0.6325391191816477
outer loop
vertex -0.65328 0.2706 -0.70711
vertex -0.69134 0.46194 -0.55557
vertex -0.58794 0.39285 -0.70711
endloop
endfacet
facet normal -0.6088121391409044 -0.18471157013659043 -0.7715111244125723
outer loop
vertex -0.5449 -0.10839 -0.83147
vertex -0.51328 -0.21261 -0.83147
vertex -0.65328 -0.2706 -0.70711
endloop
endfacet
facet normal -0.6088306667362083 -0.18469163987534903 -0.7715012750486536
outer loop
vertex -0.5449 -0.10839 -0.83147
vertex -0.65328 -0.2706 -0.70711
vertex -0.69352 -0.13795 -0.70711
endloop
endfacet
facet normal -0.633160538992642 -0.062375148422689375 -0.7715031255424663
outer loop
vertex -0.5449 -0.10839 -0.83147
vertex -0.69352 -0.13795 -0.70711
vertex -0.70711 0 -0.70711
endloop
endfacet
facet normal -0.6331426513229492 -0.062327078970530865 -0.7715216901051761
outer loop
vertex -0.5449 -0.10839 -0.83147
vertex -0.70711 0 -0.70711
vertex -0.55557 0 -0.83147
endloop
endfacet
facet normal -0.0846254090234406 -0.2790351324556691 -0.9565447898572563
outer loop
vertex -0.07466 -0.18024 -0.98079
vertex -0.03806 -0.19134 -0.98079
vertex -0.07466 -0.37533 -0.92388
endloop
endfacet
facet normal -0.08465482579755694 -0.27903443269084505 -0.9565423910324536
outer loop
vertex -0.07466 -0.18024 -0.98079
vertex -0.07466 -0.37533 -0.92388
vertex -0.14645 -0.35355 -0.92388
endloop
endfacet
facet normal -0.13744592117375362 -0.25716691586129914 -0.9565426264098666
outer loop
vertex -0.07466 -0.18024 -0.98079
vertex -0.14645 -0.35355 -0.92388
vertex -0.21261 -0.31819 -0.92388
endloop
endfacet
facet normal -0.13745905048438367 -0.25715439671870527 -0.9565441054589017
outer loop
vertex -0.07466 -0.18024 -0.98079
vertex -0.21261 -0.31819 -0.92388
vertex -0.10839 -0.16221 -0.98079
endloop
endfacet
facet normal -0.04641679795410222 -0.08683519661629872 -0.995140758634826
outer loop
vertex -0.07466 -0.18024 -0.98079
vertex -0.10839 -0.16221 -0.98079
vertex 0 0 -1
endloop
endfacet
facet normal -0.02857646771071158 -0.09422510974883282 -0.9951407006981471
outer loop
vertex -0.07466 -0.18024 -0.98079
vertex 0 0 -1
vertex -0.03806 -0.19134 -0.98079
endloop
endfacet
facet normal 0.2778857630351396 0.9161118355283159 -0.2889958607096614
outer loop
vertex 0.18024 0.90613 -0.38268
vertex 0.19134 0.96194 -0.19509
vertex 0.37533 0.90613 -0.19509
endloop
endfacet
facet normal 0.2779282724863136 0.9160849924800881 -0.28904006972309243
outer loop
vertex 0.18024 0.90613 -0.38268
vertex 0.37533 0.90613 -0.19509
vertex 0.35355 0.85355 -0.38268
endloop
endfacet
facet normal 0.25631795272006624 0.8448547810177769 -0.46959717429388176
outer loop
vertex 0.18024 0.90613 -0.38268
vertex 0.35355 0.85355 -0.38268
vertex 0.31819 0.76818 -0.55557
endloop
endfacet
facet normal 0.25624928989547774 0.8448481132508254 -0.4696466405336933
outer loop
vertex 0.18024 0.90613 -0.38268
vertex 0.31819 0.76818 -0.55557
vertex 0.16221 0.81549 -0.55557
endloop
endfacet
facet normal -0.09422510974883282 -0.02857646771071158 -0.9951407006981471
outer loop
vertex -0.18024 -0.07466 -0.98079
vertex -0.19134 -0.03806 -0.98079
vertex 0 0 -1
endloop
endfacet
facet normal -0.13736708967622674 0.45278160550304436 -0.8809762201058374
outer loop
vertex -0.07466 0.37533 -0.92388
vertex -0.14645 0.35355 -0.92388
vertex -0.21261 0.51328 -0.83147
endloop
endfacet
facet normal -0.13737136222233232 0.4527780952185778 -0.8809773580129158
outer loop
vertex -0.07466 0.37533 -0.92388
vertex -0.21261 0.51328 -0.83147
vertex -0.10839 0.5449 -0.83147
endloop
endfacet
facet normal -0.04635407625806083 0.4708826921847455 -0.8809771789411506
outer loop
vertex -0.07466 0.37533 -0.92388
vertex -0.10839 0.5449 -0.83147
vertex 0 0.55557 -0.83147
endloop
endfacet
facet normal -0.046356733511842864 0.4708834998631534 -0.8809766074163033
outer loop
vertex -0.07466 0.37533 -0.92388
vertex 0 0.55557 -0.83147
vertex 0 0.38268 -0.92388
endloop
endfacet
facet normal -0.06232707897053083 0.6331426513229493 -0.7715216901051762
outer loop
vertex 0 0.70711 -0.70711
vertex 0 0.55557 -0.83147
vertex -0.10839 0.5449 -0.83147
endloop
endfacet
facet normal -0.062375148422689375 0.633160538992642 -0.7715031255424663
outer loop
vertex 0 0.70711 -0.70711
vertex -0.10839 0.5449 -0.83147
vertex -0.13795 0.69352 -0.70711
endloop
endfacet
facet normal -0.8442835680012596 0.4512936404059331 -0.2889970708021499
outer loop
vertex -0.90613 0.37533 -0.19509
vertex -0.81549 0.5449 -0.19509
vertex -0.76818 0.51328 -0.38268
endloop
endfacet
facet normal -0.8442944768732635 0.45124534834201824 -0.28904060600717163
outer loop
vertex -0.90613 0.37533 -0.19509
vertex -0.76818 0.51328 -0.38268
vertex -0.85355 0.35355 -0.38268
endloop
endfacet
facet normal -0.6073246930790803 0.7400229227302852 -0.2890030986168262
outer loop
vertex -0.69352 0.69352 -0.19509
vertex -0.5449 0.81549 -0.19509
vertex -0.51328 0.76818 -0.38268
endloop
endfacet
facet normal -0.607335187785971 0.7400080617061439 -0.2890190967512275
outer loop
vertex -0.69352 0.69352 -0.19509
vertex -0.51328 0.76818 -0.38268
vertex -0.65328 0.65328 -0.38268
endloop
endfacet
facet normal -0.7400080617061439 0.607335187785971 -0.2890190967512275
outer loop
vertex -0.69352 0.69352 -0.19509
vertex -0.65328 0.65328 -0.38268
vertex -0.76818 0.51328 -0.38268
endloop
endfacet
facet normal -0.7400229227302852 0.6073246930790803 -0.2890030986168262
outer loop
vertex -0.69352 0.69352 -0.19509
vertex -0.76818 0.51328 -0.38268
vertex -0.81549 0.5449 -0.19509
endloop
endfacet
facet normal -0.6313490774183405 0.7693361144417441 -0.09757195016340425
outer loop
vertex -0.69352 0.69352 -0.19509
vertex -0.70711 0.70711 0
vertex -0.55557 0.83147 0
endloop
endfacet
facet normal -0.6313700197245087 0.7693220655198527 -0.09754720753225544
outer loop
vertex -0.69352 0.69352 -0.19509
vertex -0.55557 0.83147 0
vertex -0.5449 0.81549 -0.19509
endloop
endfacet
facet normal -0.7693220655198527 0.6313700197245087 0.09754720753225547
outer loop
vertex -0.83147 0.55557 0
vertex -0.81549 0.5449 0.19509
vertex -0.69352 0.69352 0.19509
endloop
endfacet
facet normal -0.7693361144417442 0.6313490774183405 0.0975719501634042
outer loop
vertex -0.83147 0.55557 0
vertex -0.69352 0.69352 0.19509
vertex -0.70711 0.70711 0
endloop
endfacet
facet normal -0.7693361144417442 0.6313490774183405 -0.0975719501634042
outer loop
vertex -0.83147 0.55557 0
vertex -0.70711 0.70711 0
vertex -0.69352 0.69352 -0.19509
endloop
endfacet
facet normal -0.7693220655198527 0.6313700197245087 -0.09754720753225547
outer loop
vertex -0.83147 0.55557 0
vertex -0.69352 0.69352 -0.19509
vertex -0.81549 0.5449 -0.19509
endloop
endfacet
facet normal 0.08683519661629872 0.04641679795410222 -0.995140758634826
outer loop
vertex 0.16221 0.10839 -0.98079
vertex 0.18024 0.07466 -0.98079
vertex 0 0 -1
endloop
endfacet
facet normal 0.0761116106167374 0.06246507691346584 -0.995140762352503
outer loop
vertex 0.16221 0.10839 -0.98079
vertex 0 0 -1
vertex 0.13795 0.13795 -0.98079
endloop
endfacet
facet normal 0.2253965436726915 0.18498376689781793 -0.9565445123383951
outer loop
vertex 0.16221 0.10839 -0.98079
vertex 0.13795 0.13795 -0.98079
vertex 0.2706 0.2706 -0.92388
endloop
endfacet
facet normal 0.22540318788978886 0.18497909487282363 -0.9565438501967128
outer loop
vertex 0.16221 0.10839 -0.98079
vertex 0.2706 0.2706 -0.92388
vertex 0.31819 0.21261 -0.92388
endloop
endfacet
facet normal 0.25716402601840865 0.13744437666280124 -0.9565436252705766
outer loop
vertex 0.16221 0.10839 -0.98079
vertex 0.31819 0.21261 -0.92388
vertex 0.35355 0.14645 -0.92388
endloop
endfacet
facet normal 0.25716006466276836 0.13746208022145623 -0.9565421462977105
outer loop
vertex 0.16221 0.10839 -0.98079
vertex 0.35355 0.14645 -0.92388
vertex 0.18024 0.07466 -0.98079
endloop
endfacet
facet normal -0.46916112292478795 0.8777101899200834 -0.0975328828980405
outer loop
vertex -0.38268 0.92388 0
vertex -0.37533 0.90613 -0.19509
vertex -0.5449 0.81549 -0.19509
endloop
endfacet
facet normal -0.46914187748903174 0.8777182036476432 -0.09755333808548507
outer loop
vertex -0.38268 0.92388 0
vertex -0.5449 0.81549 -0.19509
vertex -0.55557 0.83147 0
endloop
endfacet
facet normal -0.47114365154457993 0.8814633255658741 0.032342932637430155
outer loop
vertex -0.38268 0.92388 0
vertex -0.55557 0.83147 0
vertex 0 1 3.5
endloop
endfacet
facet normal -0.2902916095589552 0.9568758221255385 0.01092897301880715
outer loop
vertex -0.19509 0.98079 0
vertex -0.38268 0.92388 0
vertex 0 1 3.5
endloop
endfacet
facet normal -0.09799345637611764 0.9951870590534535 0
outer loop
vertex -0.19509 0.98079 0
vertex 0 1 3.5
vertex 0 1 0
endloop
endfacet
facet normal 0.09757329954021056 0.9904336941126715 -0.09757329954021056
outer loop
vertex 0.19509 0.98079 0
vertex 0.19134 0.96194 -0.19509
vertex 0 0.98079 -0.19509
endloop
endfacet
facet normal 0.09752631631837114 0.9904429490135905 -0.09752631631837114
outer loop
vertex 0.19509 0.98079 0
vertex 0 0.98079 -0.19509
vertex 0 1 0
endloop
endfacet
facet normal 0.09791826273441216 0.9944234188889391 -0.03916730509376486
outer loop
vertex 0.19509 0.98079 0
vertex 0 1 0
vertex 1 1 2.5
endloop
endfacet
facet normal 0.28051658810062485 0.9548687065452391 -0.09765345391232318
outer loop
vertex 0.19509 0.98079 0
vertex 1 1 2.5
vertex 0.19134 0.96194 -0.19509
endloop
endfacet
facet normal -0.18469163987534906 0.6088306667362083 -0.7715012750486536
outer loop
vertex -0.2706 0.65328 -0.70711
vertex -0.13795 0.69352 -0.70711
vertex -0.10839 0.5449 -0.83147
endloop
endfacet
facet normal -0.18471157013659045 0.6088121391409045 -0.7715111244125722
outer loop
vertex -0.2706 0.65328 -0.70711
vertex -0.10839 0.5449 -0.83147
vertex -0.21261 0.51328 -0.83147
endloop
endfacet
facet normal -0.3650928418702961 0.6830823372917618 -0.6325391191816477
outer loop
vertex -0.2706 0.65328 -0.70711
vertex -0.39285 0.58794 -0.70711
vertex -0.46194 0.69134 -0.55557
endloop
endfacet
facet normal -0.36511664839785524 0.6830494300779761 -0.6325609133774143
outer loop
vertex -0.2706 0.65328 -0.70711
vertex -0.46194 0.69134 -0.55557
vertex -0.31819 0.76818 -0.55557
endloop
endfacet
facet normal -0.8786018122275875 -0.08655481757842823 -0.46964573787522435
outer loop
vertex -0.83147 0 -0.55557
vertex -0.81549 -0.16221 -0.55557
vertex -0.90613 -0.18024 -0.38268
endloop
endfacet
facet normal -0.8786171415206461 -0.08652604450727647 -0.4696223613159981
outer loop
vertex -0.83147 0 -0.55557
vertex -0.90613 -0.18024 -0.38268
vertex -0.92388 0 -0.38268
endloop
endfacet
facet normal -0.8786171415206461 0.08652604450727647 -0.4696223613159981
outer loop
vertex -0.83147 0 -0.55557
vertex -0.92388 0 -0.38268
vertex -0.90613 0.18024 -0.38268
endloop
endfacet
facet normal -0.8786018122275875 0.08655481757842823 -0.46964573787522435
outer loop
vertex -0.83147 0 -0.55557
vertex -0.90613 0.18024 -0.38268
vertex -0.81549 0.16221 -0.55557
endloop
endfacet
facet normal -0.7707928840628034 0.07593409954579615 -0.6325443402673958
outer loop
vertex -0.83147 0 -0.55557
vertex -0.81549 0.16221 -0.55557
vertex -0.69352 0.13795 -0.70711
endloop
endfacet
facet normal -0.7707927898296203 0.07593384569615455 -0.6325444855695632
outer loop
vertex -0.83147 0 -0.55557
vertex -0.69352 0.13795 -0.70711
vertex -0.70711 0 -0.70711
endloop
endfacet
facet normal -0.7707927898296203 -0.07593384569615455 -0.6325444855695632
outer loop
vertex -0.83147 0 -0.55557
vertex -0.70711 0 -0.70711
vertex -0.69352 -0.13795 -0.70711
endloop
endfacet
facet normal -0.7707928840628034 -0.07593409954579615 -0.6325443402673958
outer loop
vertex -0.83147 0 -0.55557
vertex -0.69352 -0.13795 -0.70711
vertex -0.81549 -0.16221 -0.55557
endloop
endfacet
facet normal 0.09385680310466066 0.9527087907716574 -0.28902743900429145
outer loop
vertex 0 0.92388 -0.38268
vertex 0 0.98079 -0.19509
vertex 0.19134 0.96194 -0.19509
endloop
endfacet
facet normal 0.09382382368176068 0.9527214636845355 -0.288996371507551
outer loop
vertex 0 0.92388 -0.38268
vertex 0.19134 0.96194 -0.19509
vertex 0.18024 0.90613 -0.38268
endloop
endfacet
facet normal 0.08652488996473251 0.8786054178728647 -0.46964450715518846
outer loop
vertex 0 0.92388 -0.38268
vertex 0.18024 0.90613 -0.38268
vertex 0.16221 0.81549 -0.55557
endloop
endfacet
facet normal 0.08655610089128997 0.8786148388971313 -0.4696211305598004
outer loop
vertex 0 0.92388 -0.38268
vertex 0.16221 0.81549 -0.55557
vertex 0 0.83147 -0.55557
endloop
endfacet
facet normal -0.25716402601840865 -0.13744437666280124 -0.9565436252705766
outer loop
vertex -0.16221 -0.10839 -0.98079
vertex -0.31819 -0.21261 -0.92388
vertex -0.35355 -0.14645 -0.92388
endloop
endfacet
facet normal -0.25716006466276836 -0.13746208022145623 -0.9565421462977105
outer loop
vertex -0.16221 -0.10839 -0.98079
vertex -0.35355 -0.14645 -0.92388
vertex -0.18024 -0.07466 -0.98079
endloop
endfacet
facet normal -0.08683519661629872 -0.04641679795410222 -0.995140758634826
outer loop
vertex -0.16221 -0.10839 -0.98079
vertex -0.18024 -0.07466 -0.98079
vertex 0 0 -1
endloop
endfacet
facet normal -0.0761116106167374 -0.06246507691346584 -0.995140762352503
outer loop
vertex -0.16221 -0.10839 -0.98079
vertex 0 0 -1
vertex -0.13795 -0.13795 -0.98079
endloop
endfacet
facet normal -0.2253965436726915 -0.18498376689781793 -0.9565445123383951
outer loop
vertex -0.16221 -0.10839 -0.98079
vertex -0.13795 -0.13795 -0.98079
vertex -0.2706 -0.2706 -0.92388
endloop
endfacet
facet normal -0.22540318788978886 -0.18497909487282363 -0.9565438501967128
outer loop
vertex -0.16221 -0.10839 -0.98079
vertex -0.2706 -0.2706 -0.92388
vertex -0.31819 -0.21261 -0.92388
endloop
endfacet
facet normal -0.4036054386601585 0.4918156300593244 -0.7715050459415616
outer loop
vertex -0.30866 0.46194 -0.83147
vertex -0.39285 0.39285 -0.83147
vertex -0.5 0.5 -0.70711
endloop
endfacet
facet normal -0.4036186144955752 0.4917868381078108 -0.771516506561327
outer loop
vertex -0.30866 0.46194 -0.83147
vertex -0.5 0.5 -0.70711
vertex -0.39285 0.58794 -0.70711
endloop
endfacet
facet normal -0.2998926891126801 0.5610939890423194 -0.7715166300717976
outer loop
vertex -0.30866 0.46194 -0.83147
vertex -0.39285 0.58794 -0.70711
vertex -0.2706 0.65328 -0.70711
endloop
endfacet
facet normal -0.2999118123456636 0.5610932913089408 -0.7715097039335537
outer loop
vertex -0.30866 0.46194 -0.83147
vertex -0.2706 0.65328 -0.70711
vertex -0.21261 0.51328 -0.83147
endloop
endfacet
facet normal -0.09798888911504601 -0.009654711880752048 -0.9951406755572294
outer loop
vertex -0.19509 0 -0.98079
vertex 0 0 -1
vertex -0.19134 -0.03806 -0.98079
endloop
endfacet
facet normal -0.4708826921847455 -0.04635407625806083 -0.8809771789411506
outer loop
vertex -0.37533 -0.07466 -0.92388
vertex -0.5449 -0.10839 -0.83147
vertex -0.55557 0 -0.83147
endloop
endfacet
facet normal -0.4708834998631534 -0.046356733511842864 -0.8809766074163033
outer loop
vertex -0.37533 -0.07466 -0.92388
vertex -0.55557 0 -0.83147
vertex -0.38268 0 -0.92388
endloop
endfacet
facet normal -0.2901904570485619 -0.028568173845525534 -0.956542397429972
outer loop
vertex -0.37533 -0.07466 -0.92388
vertex -0.38268 0 -0.92388
vertex -0.19509 0 -0.98079
endloop
endfacet
facet normal -0.2901815569238219 -0.028591193864012838 -0.9565444096615154
outer loop
vertex -0.37533 -0.07466 -0.92388
vertex -0.19509 0 -0.98079
vertex -0.19134 -0.03806 -0.98079
endloop
endfacet
facet normal -0.2790351324556691 -0.0846254090234406 -0.9565447898572563
outer loop
vertex -0.37533 -0.07466 -0.92388
vertex -0.19134 -0.03806 -0.98079
vertex -0.18024 -0.07466 -0.98079
endloop
endfacet
facet normal -0.2790344326908451 -0.08465482579755693 -0.9565423910324538
outer loop
vertex -0.37533 -0.07466 -0.92388
vertex -0.18024 -0.07466 -0.98079
vertex -0.35355 -0.14645 -0.92388
endloop
endfacet
facet normal -0.45278160550304436 -0.13736708967622674 -0.8809762201058374
outer loop
vertex -0.37533 -0.07466 -0.92388
vertex -0.35355 -0.14645 -0.92388
vertex -0.51328 -0.21261 -0.83147
endloop
endfacet
facet normal -0.4527780952185778 -0.13737136222233232 -0.8809773580129158
outer loop
vertex -0.37533 -0.07466 -0.92388
vertex -0.51328 -0.21261 -0.83147
vertex -0.5449 -0.10839 -0.83147
endloop
endfacet
facet normal -0.02859119386401296 0.29018155692382186 -0.9565444096615154
outer loop
vertex 0 0.19509 -0.98079
vertex -0.03806 0.19134 -0.98079
vertex -0.07466 0.37533 -0.92388
endloop
endfacet
facet normal -0.02856817384552549 0.2901904570485619 -0.956542397429972
outer loop
vertex 0 0.19509 -0.98079
vertex -0.07466 0.37533 -0.92388
vertex 0 0.38268 -0.92388
endloop
endfacet
facet normal 0.009654711880752048 0.09798888911504601 -0.9951406755572294
outer loop
vertex 0 0.19509 -0.98079
vertex 0.03806 0.19134 -0.98079
vertex 0 0 -1
endloop
endfacet
facet normal -0.009654711880752048 0.09798888911504601 -0.9951406755572294
outer loop
vertex 0 0.19509 -0.98079
vertex 0 0 -1
vertex -0.03806 0.19134 -0.98079
endloop
endfacet
facet normal 0.04641679795410222 0.08683519661629872 -0.995140758634826
outer loop
vertex 0.07466 0.18024 -0.98079
vertex 0.10839 0.16221 -0.98079
vertex 0 0 -1
endloop
endfacet
facet normal 0.02857646771071158 0.09422510974883282 -0.9951407006981471
outer loop
vertex 0.07466 0.18024 -0.98079
vertex 0 0 -1
vertex 0.03806 0.19134 -0.98079
endloop
endfacet
facet normal 0.13744592117375362 0.25716691586129914 -0.9565426264098666
outer loop
vertex 0.07466 0.18024 -0.98079
vertex 0.14645 0.35355 -0.92388
vertex 0.21261 0.31819 -0.92388
endloop
endfacet
facet normal 0.13745905048438367 0.25715439671870527 -0.9565441054589017
outer loop
vertex 0.07466 0.18024 -0.98079
vertex 0.21261 0.31819 -0.92388
vertex 0.10839 0.16221 -0.98079
endloop
endfacet
facet normal 0.08465482579755693 0.2790344326908451 -0.9565423910324538
outer loop
vertex 0.07466 0.37533 -0.92388
vertex 0.14645 0.35355 -0.92388
vertex 0.07466 0.18024 -0.98079
endloop
endfacet
facet normal 0.0846254090234406 0.2790351324556691 -0.9565447898572563
outer loop
vertex 0.07466 0.37533 -0.92388
vertex 0.07466 0.18024 -0.98079
vertex 0.03806 0.19134 -0.98079
endloop
endfacet
facet normal 0.028591193864012838 0.2901815569238219 -0.9565444096615154
outer loop
vertex 0.07466 0.37533 -0.92388
vertex 0.03806 0.19134 -0.98079
vertex 0 0.19509 -0.98079
endloop
endfacet
facet normal 0.028568173845525534 0.2901904570485619 -0.956542397429972
outer loop
vertex 0.07466 0.37533 -0.92388
vertex 0 0.19509 -0.98079
vertex 0 0.38268 -0.92388
endloop
endfacet
facet normal 0.046356733511842864 0.4708834998631534 -0.8809766074163033
outer loop
vertex 0.07466 0.37533 -0.92388
vertex 0 0.38268 -0.92388
vertex 0 0.55557 -0.83147
endloop
endfacet
facet normal 0.04635407625806083 0.4708826921847455 -0.8809771789411506
outer loop
vertex 0.07466 0.37533 -0.92388
vertex 0 0.55557 -0.83147
vertex 0.10839 0.5449 -0.83147
endloop
endfacet
facet normal 0.13737136222233232 0.4527780952185778 -0.8809773580129158
outer loop
vertex 0.07466 0.37533 -0.92388
vertex 0.10839 0.5449 -0.83147
vertex 0.21261 0.51328 -0.83147
endloop
endfacet
facet normal 0.13736708967622674 0.45278160550304436 -0.8809762201058374
outer loop
vertex 0.07466 0.37533 -0.92388
vertex 0.21261 0.51328 -0.83147
vertex 0.14645 0.35355 -0.92388
endloop
endfacet
facet normal -0.02857646771071158 0.09422510974883282 -0.9951407006981471
outer loop
vertex -0.07466 0.18024 -0.98079
vertex -0.03806 0.19134 -0.98079
vertex 0 0 -1
endloop
endfacet
facet normal -0.08465482579755694 0.27903443269084505 -0.9565423910324536
outer loop
vertex -0.07466 0.18024 -0.98079
vertex -0.14645 0.35355 -0.92388
vertex -0.07466 0.37533 -0.92388
endloop
endfacet
facet normal -0.0846254090234406 0.2790351324556691 -0.9565447898572563
outer loop
vertex -0.07466 0.18024 -0.98079
vertex -0.07466 0.37533 -0.92388
vertex -0.03806 0.19134 -0.98079
endloop
endfacet
facet normal 0.18468858871222507 0.608820608664926 -0.7715099426866483
outer loop
vertex 0.13795 0.69352 -0.70711
vertex 0.2706 0.65328 -0.70711
vertex 0.21261 0.51328 -0.83147
endloop
endfacet
facet normal 0.18471545406811885 0.6088249406381813 -0.7715000924726605
outer loop
vertex 0.13795 0.69352 -0.70711
vertex 0.21261 0.51328 -0.83147
vertex 0.10839 0.5449 -0.83147
endloop
endfacet
facet normal 0.06232954913810177 0.6331677442435693 -0.7715008975715785
outer loop
vertex 0.13795 0.69352 -0.70711
vertex 0.10839 0.5449 -0.83147
vertex 0 0.55557 -0.83147
endloop
endfacet
facet normal 0.062373206149657474 0.6331408232777964 -0.7715194625242622
outer loop
vertex 0.13795 0.69352 -0.70711
vertex 0 0.55557 -0.83147
vertex 0 0.70711 -0.70711
endloop
endfacet
facet normal 0.07593384569615466 0.7707927898296204 -0.6325444855695631
outer loop
vertex 0.13795 0.69352 -0.70711
vertex 0 0.70711 -0.70711
vertex 0 0.83147 -0.55557
endloop
endfacet
facet normal 0.0759340995457961 0.7707928840628034 -0.6325443402673958
outer loop
vertex 0.13795 0.69352 -0.70711
vertex 0 0.83147 -0.55557
vertex 0.16221 0.81549 -0.55557
endloop
endfacet
facet normal 0.22480639117751802 0.7411815873149271 -0.6325440230616884
outer loop
vertex 0.13795 0.69352 -0.70711
vertex 0.16221 0.81549 -0.55557
vertex 0.31819 0.76818 -0.55557
endloop
endfacet
facet normal 0.2248333283121602 0.7411565855021872 -0.6325637440185892
outer loop
vertex 0.13795 0.69352 -0.70711
vertex 0.31819 0.76818 -0.55557
vertex 0.2706 0.65328 -0.70711
endloop
endfacet
facet normal -0.41620486366608783 0.7786237526288408 -0.46959404095758606
outer loop
vertex -0.35355 0.85355 -0.38268
vertex -0.31819 0.76818 -0.55557
vertex -0.46194 0.69134 -0.55557
endloop
endfacet
facet normal -0.41614963159752993 0.7786292685378167 -0.4696338427940483
outer loop
vertex -0.35355 0.85355 -0.38268
vertex -0.46194 0.69134 -0.55557
vertex -0.51328 0.76818 -0.38268
endloop
endfacet
facet normal -0.4512517290165173 0.8443064153192953 -0.28899576832591417
outer loop
vertex -0.35355 0.85355 -0.38268
vertex -0.51328 0.76818 -0.38268
vertex -0.5449 0.81549 -0.19509
endloop
endfacet
facet normal -0.4512876295959105 0.8442723229322443 -0.28903930546604995
outer loop
vertex -0.35355 0.85355 -0.38268
vertex -0.5449 0.81549 -0.19509
vertex -0.37533 0.90613 -0.19509
endloop
endfacet
facet normal -0.07593408885231903 0.7707927755153113 -0.6325444738226483
outer loop
vertex -0.16221 0.81549 -0.55557
vertex 0 0.83147 -0.55557
vertex 0 0.70711 -0.70711
endloop
endfacet
facet normal -0.07593385827015572 0.7707929174663711 -0.6325443285271696
outer loop
vertex -0.16221 0.81549 -0.55557
vertex 0 0.70711 -0.70711
vertex -0.13795 0.69352 -0.70711
endloop
endfacet
facet normal -0.22483838172435106 0.7411732439297994 -0.6325424290797835
outer loop
vertex -0.16221 0.81549 -0.55557
vertex -0.13795 0.69352 -0.70711
vertex -0.2706 0.65328 -0.70711
endloop
endfacet
facet normal -0.22480209415515517 0.7411674201293816 -0.63256215014986
outer loop
vertex -0.16221 0.81549 -0.55557
vertex -0.2706 0.65328 -0.70711
vertex -0.31819 0.76818 -0.55557
endloop
endfacet
facet normal -0.25625732907255705 0.8448746182358354 -0.46959457062177656
outer loop
vertex -0.16221 0.81549 -0.55557
vertex -0.31819 0.76818 -0.55557
vertex -0.35355 0.85355 -0.38268
endloop
endfacet
facet normal -0.2563107158498473 0.8448309274236795 -0.46964403648825853
outer loop
vertex -0.16221 0.81549 -0.55557
vertex -0.35355 0.85355 -0.38268
vertex -0.18024 0.90613 -0.38268
endloop
endfacet
facet normal -0.08652488996473251 0.8786054178728646 -0.46964450715518846
outer loop
vertex -0.16221 0.81549 -0.55557
vertex -0.18024 0.90613 -0.38268
vertex 0 0.92388 -0.38268
endloop
endfacet
facet normal -0.08655610089129 0.8786148388971311 -0.46962113055980037
outer loop
vertex -0.16221 0.81549 -0.55557
vertex 0 0.92388 -0.38268
vertex 0 0.83147 -0.55557
endloop
endfacet
facet normal -0.8777101899200834 0.46916112292478795 0.0975328828980405
outer loop
vertex -0.92388 0.38268 0
vertex -0.90613 0.37533 0.19509
vertex -0.81549 0.5449 0.19509
endloop
endfacet
facet normal -0.8777182036476432 0.46914187748903174 0.09755333808548507
outer loop
vertex -0.92388 0.38268 0
vertex -0.81549 0.5449 0.19509
vertex -0.83147 0.55557 0
endloop
endfacet
facet normal -0.8777182036476432 0.46914187748903174 -0.09755333808548507
outer loop
vertex -0.92388 0.38268 0
vertex -0.83147 0.55557 0
vertex -0.81549 0.5449 -0.19509
endloop
endfacet
facet normal -0.8777101899200834 0.46916112292478795 -0.0975328828980405
outer loop
vertex -0.92388 0.38268 0
vertex -0.81549 0.5449 -0.19509
vertex -0.90613 0.37533 -0.19509
endloop
endfacet
facet normal -0.2888875630367373 0.9523817008265413 -0.09753497758978509
outer loop
vertex -0.19134 0.96194 -0.19509
vertex -0.37533 0.90613 -0.19509
vertex -0.38268 0.92388 0
endloop
endfacet
facet normal -0.28892369197255396 0.9523668138663046 -0.09757331634772132
outer loop
vertex -0.19134 0.96194 -0.19509
vertex -0.38268 0.92388 0
vertex -0.19509 0.98079 0
endloop
endfacet
facet normal -0.09752586942290586 0.9904384105005078 -0.09757284355051773
outer loop
vertex -0.19134 0.96194 -0.19509
vertex -0.19509 0.98079 0
vertex 0 1 0
endloop
endfacet
facet normal -0.0975737554136811 0.9904383215307008 -0.0975258606622826
outer loop
vertex -0.19134 0.96194 -0.19509
vertex 0 1 0
vertex 0 0.98079 -0.19509
endloop
endfacet
facet normal -0.09385680310466066 0.9527087907716574 -0.28902743900429145
outer loop
vertex -0.19134 0.96194 -0.19509
vertex 0 0.98079 -0.19509
vertex 0 0.92388 -0.38268
endloop
endfacet
facet normal -0.09382382368176066 0.9527214636845355 -0.288996371507551
outer loop
vertex -0.19134 0.96194 -0.19509
vertex 0 0.92388 -0.38268
vertex -0.18024 0.90613 -0.38268
endloop
endfacet
facet normal -0.27793226312325675 0.9160981460991185 -0.288994539444853
outer loop
vertex -0.19134 0.96194 -0.19509
vertex -0.18024 0.90613 -0.38268
vertex -0.35355 0.85355 -0.38268
endloop
endfacet
facet normal -0.277882004610846 0.9160994450519535 -0.2890387487672899
outer loop
vertex -0.19134 0.96194 -0.19509
vertex -0.35355 0.85355 -0.38268
vertex -0.37533 0.90613 -0.19509
endloop
endfacet
facet normal -0.6331426513229492 0.062327078970530865 -0.7715216901051761
outer loop
vertex -0.5449 0.10839 -0.83147
vertex -0.55557 0 -0.83147
vertex -0.70711 0 -0.70711
endloop
endfacet
facet normal -0.633160538992642 0.062375148422689375 -0.7715031255424663
outer loop
vertex -0.5449 0.10839 -0.83147
vertex -0.70711 0 -0.70711
vertex -0.69352 0.13795 -0.70711
endloop
endfacet
facet normal -0.6088306667362083 0.18469163987534903 -0.7715012750486536
outer loop
vertex -0.5449 0.10839 -0.83147
vertex -0.69352 0.13795 -0.70711
vertex -0.65328 0.2706 -0.70711
endloop
endfacet
facet normal -0.6088121391409044 0.18471157013659043 -0.7715111244125723
outer loop
vertex -0.5449 0.10839 -0.83147
vertex -0.65328 0.2706 -0.70711
vertex -0.51328 0.21261 -0.83147
endloop
endfacet
facet normal -0.47088224560450986 0.04635661003473295 -0.8809772843158566
outer loop
vertex -0.5449 0.10839 -0.83147
vertex -0.37533 0.07466 -0.92388
vertex -0.38268 0 -0.92388
endloop
endfacet
facet normal -0.4708835561302232 0.04635416130555828 -0.880976712686444
outer loop
vertex -0.5449 0.10839 -0.83147
vertex -0.38268 0 -0.92388
vertex -0.55557 0 -0.83147
endloop
endfacet
facet normal -0.452779204319123 0.1373663611933488 -0.8809775677896914
outer loop
vertex -0.35355 0.14645 -0.92388
vertex -0.37533 0.07466 -0.92388
vertex -0.5449 0.10839 -0.83147
endloop
endfacet
facet normal -0.4527797492184313 0.137371864040365 -0.8809764296891092
outer loop
vertex -0.35355 0.14645 -0.92388
vertex -0.5449 0.10839 -0.83147
vertex -0.51328 0.21261 -0.83147
endloop
endfacet
facet normal -0.3657695294360442 0.3001664899481685 -0.8809726043687912
outer loop
vertex -0.46194 0.30866 -0.83147
vertex -0.39285 0.39285 -0.83147
vertex -0.2706 0.2706 -0.92388
endloop
endfacet
facet normal -0.36576820314086256 0.30017087062379083 -0.8809716624273792
outer loop
vertex -0.46194 0.30866 -0.83147
vertex -0.2706 0.2706 -0.92388
vertex -0.31819 0.21261 -0.92388
endloop
endfacet
facet normal -0.4173077634881769 0.22303510454869915 -0.8809708126104103
outer loop
vertex -0.46194 0.30866 -0.83147
vertex -0.31819 0.21261 -0.92388
vertex -0.35355 0.14645 -0.92388
endloop
endfacet
facet normal -0.4172919368226703 0.2230480795052147 -0.8809750244427024
outer loop
vertex -0.46194 0.30866 -0.83147
vertex -0.35355 0.14645 -0.92388
vertex -0.51328 0.21261 -0.83147
endloop
endfacet
facet normal -0.5610932913089408 0.2999118123456636 -0.7715097039335537
outer loop
vertex -0.46194 0.30866 -0.83147
vertex -0.51328 0.21261 -0.83147
vertex -0.65328 0.2706 -0.70711
endloop
endfacet
facet normal -0.5610939890423194 0.2998926891126801 -0.7715166300717976
outer loop
vertex -0.46194 0.30866 -0.83147
vertex -0.65328 0.2706 -0.70711
vertex -0.58794 0.39285 -0.70711
endloop
endfacet
facet normal -0.4917868381078108 0.4036186144955752 -0.771516506561327
outer loop
vertex -0.46194 0.30866 -0.83147
vertex -0.58794 0.39285 -0.70711
vertex -0.5 0.5 -0.70711
endloop
endfacet
facet normal -0.4918156300593244 0.4036054386601585 -0.7715050459415616
outer loop
vertex -0.46194 0.30866 -0.83147
vertex -0.5 0.5 -0.70711
vertex -0.39285 0.39285 -0.83147
endloop
endfacet
facet normal -0.25716006466276836 0.13746208022145623 -0.9565421462977105
outer loop
vertex -0.16221 0.10839 -0.98079
vertex -0.18024 0.07466 -0.98079
vertex -0.35355 0.14645 -0.92388
endloop
endfacet
facet normal -0.25716402601840865 0.13744437666280124 -0.9565436252705766
outer loop
vertex -0.16221 0.10839 -0.98079
vertex -0.35355 0.14645 -0.92388
vertex -0.31819 0.21261 -0.92388
endloop
endfacet
facet normal -0.22540318788978886 0.18497909487282363 -0.9565438501967128
outer loop
vertex -0.16221 0.10839 -0.98079
vertex -0.31819 0.21261 -0.92388
vertex -0.2706 0.2706 -0.92388
endloop
endfacet
facet normal -0.2253965436726915 0.18498376689781793 -0.9565445123383951
outer loop
vertex -0.16221 0.10839 -0.98079
vertex -0.2706 0.2706 -0.92388
vertex -0.13795 0.13795 -0.98079
endloop
endfacet
facet normal -0.0761116106167374 0.06246507691346584 -0.995140762352503
outer loop
vertex -0.16221 0.10839 -0.98079
vertex -0.13795 0.13795 -0.98079
vertex 0 0 -1
endloop
endfacet
facet normal -0.08683519661629872 0.04641679795410222 -0.995140758634826
outer loop
vertex -0.16221 0.10839 -0.98079
vertex 0 0 -1
vertex -0.18024 0.07466 -0.98079
endloop
endfacet
facet normal -0.09422510974883282 0.02857646771071158 -0.9951407006981471
outer loop
vertex -0.19134 0.03806 -0.98079
vertex -0.18024 0.07466 -0.98079
vertex 0 0 -1
endloop
endfacet
facet normal -0.09798888911504601 0.009654711880752048 -0.9951406755572294
outer loop
vertex -0.19134 0.03806 -0.98079
vertex 0 0 -1
vertex -0.19509 0 -0.98079
endloop
endfacet
facet normal -0.29019025885525723 0.02859205125347388 -0.9565417441338552
outer loop
vertex -0.19134 0.03806 -0.98079
vertex -0.19509 0 -0.98079
vertex -0.38268 0 -0.92388
endloop
endfacet
facet normal -0.29018602092705703 0.028567737125822147 -0.9565437562673396
outer loop
vertex -0.19134 0.03806 -0.98079
vertex -0.38268 0 -0.92388
vertex -0.37533 0.07466 -0.92388
endloop
endfacet
facet normal -0.27902934683631125 0.08465328282622742 -0.956544011172954
outer loop
vertex -0.19134 0.03806 -0.98079
vertex -0.37533 0.07466 -0.92388
vertex -0.35355 0.14645 -0.92388
endloop
endfacet
facet normal -0.27904510882280986 0.0846284346429833 -0.9565416118977493
outer loop
vertex -0.19134 0.03806 -0.98079
vertex -0.35355 0.14645 -0.92388
vertex -0.18024 0.07466 -0.98079
endloop
endfacet
facet normal -0.30016955301773446 0.36576659759399954 -0.8809727779708307
outer loop
vertex -0.21261 0.31819 -0.92388
vertex -0.2706 0.2706 -0.92388
vertex -0.39285 0.39285 -0.83147
endloop
endfacet
facet normal -0.30016739751086696 0.3657706353515686 -0.8809718359777815
outer loop
vertex -0.21261 0.31819 -0.92388
vertex -0.39285 0.39285 -0.83147
vertex -0.30866 0.46194 -0.83147
endloop
endfacet
facet normal -0.223051094877318 0.4172975781645193 -0.8809715888336335
outer loop
vertex -0.21261 0.31819 -0.92388
vertex -0.30866 0.46194 -0.83147
vertex -0.21261 0.51328 -0.83147
endloop
endfacet
facet normal -0.22303072711479444 0.41729957313107463 -0.8809758004776685
outer loop
vertex -0.21261 0.31819 -0.92388
vertex -0.21261 0.51328 -0.83147
vertex -0.14645 0.35355 -0.92388
endloop
endfacet
facet normal -0.9904429490135905 0.09752631631837114 0.09752631631837114
outer loop
vertex -0.98079 0.19509 0
vertex -1 0 0
vertex -0.98079 0 0.19509
endloop
endfacet
facet normal -0.9904336941126715 0.09757329954021056 0.09757329954021056
outer loop
vertex -0.98079 0.19509 0
vertex -0.98079 0 0.19509
vertex -0.96194 0.19134 0.19509
endloop
endfacet
facet normal -0.9523780697072974 0.28888646160315395 0.09757368827205093
outer loop
vertex -0.98079 0.19509 0
vertex -0.96194 0.19134 0.19509
vertex -0.90613 0.37533 0.19509
endloop
endfacet
facet normal -0.9523703752170546 0.28892477239513076 0.09753534900408516
outer loop
vertex -0.98079 0.19509 0
vertex -0.90613 0.37533 0.19509
vertex -0.92388 0.38268 0
endloop
endfacet
facet normal -0.18498376689781793 0.2253965436726915 -0.9565445123383951
outer loop
vertex -0.10839 0.16221 -0.98079
vertex -0.13795 0.13795 -0.98079
vertex -0.2706 0.2706 -0.92388
endloop
endfacet
facet normal -0.18497909487282363 0.22540318788978886 -0.9565438501967128
outer loop
vertex -0.10839 0.16221 -0.98079
vertex -0.2706 0.2706 -0.92388
vertex -0.21261 0.31819 -0.92388
endloop
endfacet
facet normal -0.13744437666280124 0.25716402601840865 -0.9565436252705766
outer loop
vertex -0.10839 0.16221 -0.98079
vertex -0.21261 0.31819 -0.92388
vertex -0.14645 0.35355 -0.92388
endloop
endfacet
facet normal -0.13746208022145623 0.25716006466276836 -0.9565421462977105
outer loop
vertex -0.10839 0.16221 -0.98079
vertex -0.14645 0.35355 -0.92388
vertex -0.07466 0.18024 -0.98079
endloop
endfacet
facet normal -0.04641679795410222 0.08683519661629872 -0.995140758634826
outer loop
vertex -0.10839 0.16221 -0.98079
vertex -0.07466 0.18024 -0.98079
vertex 0 0 -1
endloop
endfacet
facet normal -0.06246507691346584 0.0761116106167374 -0.995140762352503
outer loop
vertex -0.10839 0.16221 -0.98079
vertex 0 0 -1
vertex -0.13795 0.13795 -0.98079
endloop
endfacet
facet normal -0.9904383215307008 0.0975737554136811 -0.0975258606622826
outer loop
vertex -0.96194 0.19134 -0.19509
vertex -0.98079 0 -0.19509
vertex -1 0 0
endloop
endfacet
facet normal -0.9904384105005078 0.09752586942290586 -0.09757284355051773
outer loop
vertex -0.96194 0.19134 -0.19509
vertex -1 0 0
vertex -0.98079 0.19509 0
endloop
endfacet
facet normal -0.9523668138663046 0.28892369197255396 -0.09757331634772132
outer loop
vertex -0.96194 0.19134 -0.19509
vertex -0.98079 0.19509 0
vertex -0.92388 0.38268 0
endloop
endfacet
facet normal -0.9523817008265413 0.2888875630367373 -0.09753497758978509
outer loop
vertex -0.96194 0.19134 -0.19509
vertex -0.92388 0.38268 0
vertex -0.90613 0.37533 -0.19509
endloop
endfacet
facet normal -0.9160994450519535 0.277882004610846 -0.2890387487672899
outer loop
vertex -0.96194 0.19134 -0.19509
vertex -0.90613 0.37533 -0.19509
vertex -0.85355 0.35355 -0.38268
endloop
endfacet
facet normal -0.9160981460991185 0.27793226312325675 -0.288994539444853
outer loop
vertex -0.96194 0.19134 -0.19509
vertex -0.85355 0.35355 -0.38268
vertex -0.90613 0.18024 -0.38268
endloop
endfacet
facet normal -0.9527214636845355 0.09382382368176066 -0.288996371507551
outer loop
vertex -0.96194 0.19134 -0.19509
vertex -0.90613 0.18024 -0.38268
vertex -0.92388 0 -0.38268
endloop
endfacet
facet normal -0.9527087907716574 0.09385680310466066 -0.28902743900429145
outer loop
vertex -0.96194 0.19134 -0.19509
vertex -0.92388 0 -0.38268
vertex -0.98079 0 -0.19509
endloop
endfacet
endsolid JSxCAD
