<?xml version="1.0" encoding="UTF-8"?>
<!-- Generated by jsxcad -->
<!DOCTYPE svg PUBLIC "-//W3C//DTD SVG 1.1 Tiny//EN" "http://www.w3.org/Graphics/SVG/1.1/DTD/svg11-tiny.dtd">
<svg viewBox="-250 -250 500 500" width="500" height="500" xmlns="http://www.w3.org/2000/svg"><path d="M-71.17570724876794,148.45765697071622L57.42980340550822,135.4205680232028L55.85443216137962,25.142990605748253zM-103.50777237052971,129.58884877727562L55.85443216137962,25.142990605748253L-100.55649266219092,15.130213422599903zM57.42980340550822,135.4205680232028L-71.17570724876794,148.45765697071622L54.13148933272716,138.17667021575124z" style="fill:rgb(160,159,246)"/><path d="M83.88258959658059,89.80400800098909L55.85443216137962,25.142990605748253L57.42980340550822,135.4205680232028zM67.96425284320938,148.66752173546618L57.42980340550822,135.4205680232028L61.25262419317876,142.09743070730576z" style="fill:rgb(4,136,159)"/><path d="M54.13148933272716,138.17667021575124L-71.17570724876794,148.45765697071622L31.015011581796163,150.4178501476256zM55.85443216137962,25.142990605748253L-103.50777237052971,129.58884877727562L-71.17570724876794,148.45765697071622zM31.015011581796163,150.4178501476256L-48.945353341273346,156.08811338523924L5.44224358989681,157.73140448841275z" style="fill:rgb(160,159,246)"/><path d="M67.96425284320938,148.66752173546618L61.25262419317876,142.09743070730576L63.64641435867053,145.66433752842497z" style="fill:rgb(4,136,159)"/><path d="M55.85443216137962,25.142990605748253L-85.60358068144771,-5.832506281573405L-100.55649266219092,15.130213422599903z" style="fill:rgb(127,4,160)"/><path d="M5.44224358989681,157.73140448841275L-48.945353341273346,156.08811338523924L-21.5835462479685,159.6886660510512zM31.015011581796163,150.4178501476256L-71.17570724876794,148.45765697071622L-48.945353341273346,156.08811338523924z" style="fill:rgb(160,159,246)"/><path d="M82.10964869164289,5.7984658435332115L2.905914513626958e-14,0.10413249425226993L55.85443216137962,25.142990605748253z" style="fill:rgb(127,4,160)"/><path d="M55.85443216137962,25.142990605748253L83.88258959658059,89.80400800098909L82.10964869164289,5.7984658435332115zM83.88258959658059,89.80400800098909L57.42980340550822,135.4205680232028L67.96425284320938,148.66752173546618z" style="fill:rgb(4,136,159)"/><path d="M-71.17570724876794,148.45765697071622L-99.97489064493753,132.7041409643599L-75.46635154672889,146.98491877163573zM-71.17570724876794,148.45765697071622L-103.50777237052971,129.58884877727562L-99.97489064493753,132.7041409643599zM83.88258959658059,89.80400800098909L159.2521341343303,42.825544759456896L160.93499592037298,11.265031717890595z" style="fill:rgb(160,159,246)"/><path d="M-85.60358068144771,-5.832506281573405L55.85443216137962,25.142990605748253L8.80101972535598e-15,0.10413249425226855z" style="fill:rgb(127,4,160)"/><path d="M83.88258959658059,89.80400800098909L160.93499592037298,11.265031717890595L82.10964869164289,5.7984658435332115zM159.2521341343303,42.825544759456896L83.88258959658059,89.80400800098909L151.54850890280107,73.38752419496959zM151.54850890280107,73.38752419496959L83.88258959658059,89.80400800098909L137.9164551073449,101.82152056918943z" style="fill:rgb(160,159,246)"/><path d="M85.21164696718085,152.77744798420534L67.96425284320938,148.66752173546618L73.95189110438353,152.83209937740483z" style="fill:rgb(4,136,159)"/><path d="M175.76260105379143,-5.884832833991194L160.93499592037298,11.265031717890595L171.37815983754004,3.0113738551217883z" style="fill:rgb(127,4,160)"/><path d="M82.10964869164289,5.7984658435332115L8.80101972535598e-15,0.10413249425226855L2.905914513626958e-14,0.10413249425226993z" style="fill:rgb(104,17,67)"/><path d="M8.80101972535598e-15,0.10413249425226855L82.10964869164289,5.7984658435332115L2.7626795538238023e-17,0.1041324942522646z" style="fill:rgb(130,9,174)"/><path d="M67.96425284320938,148.66752173546618L85.21164696718085,152.77744798420534L83.88258959658059,89.80400800098909z" style="fill:rgb(4,136,159)"/><path d="M160.93499592037298,11.265031717890595L112.69389476565424,-16.73563128478127L82.10964869164289,5.7984658435332115zM2.7626795538238054e-17,0.1041324942522646L2.905914513626958e-14,0.10413249425226993L2.0285752780694373e-14,0.104132494252266z" style="fill:rgb(127,4,160)"/><path d="M137.9164551073449,101.82152056918943L83.88258959658059,89.80400800098909L85.21164696718085,152.77744798420534zM137.9164551073449,101.82152056918943L85.21164696718085,152.77744798420534L118.66447474804097,126.9980279695457z" style="fill:rgb(160,159,246)"/><path d="M2.7626795538238054e-17,0.1041324942522646L-85.60358068144771,-5.832506281573405L2.905914513626958e-14,0.10413249425226993z" style="fill:rgb(130,5,164)"/><path d="M174.11678584106937,-12.088697720097018L160.93499592037298,11.265031717890595L175.76260105379143,-5.884832833991194z" style="fill:rgb(127,4,160)"/><path d="M118.66447474804097,126.9980279695457L85.21164696718085,152.77744798420534L94.33713405841794,147.8319510158916z" style="fill:rgb(160,159,246)"/><path d="M112.69389476565424,-16.73563128478127L2.0285752780694373e-14,0.104132494252266L82.10964869164289,5.7984658435332115zM160.93499592037298,11.265031717890595L174.11678584106937,-12.088697720097018L112.69389476565424,-16.73563128478127z" style="fill:rgb(127,4,160)"/><path d="M17.534151206208296,-174.81469145677693L52.422379202355025,-166.96078455201805L48.024582833838174,-168.4819976444589z" style="fill:rgb(153,249,151)"/><path d="M-173.13990084454218,30.00013196326233L-174.92895211138773,-12.027252569925086L-175.02537775491976,-2.864979893774768z" style="fill:rgb(2,120,150)"/><path d="M-133.38867397327044,-113.83670695958813L-140.89114693951922,-103.80717713457865L-158.36035581890033,-76.4732226335681z" style="fill:rgb(22,195,151)"/><path d="M172.71064115185882,-22.241597762360723L175.76260105379143,-5.884832833991194L171.48986938593697,-36.69512528884537zM172.71064115185882,-22.241597762360723L171.48986938593697,-36.69512528884537L170.0571784715494,-41.40068164758422z" style="fill:rgb(251,145,152)"/><path d="M52.422379202355025,-166.96078455201805L17.534151206208296,-174.81469145677693L42.460683992213596,-169.02840678816983z" style="fill:rgb(153,249,151)"/><path d="M-5.994660598722629,-173.52315579209318L17.534151206208296,-174.81469145677693L-13.399749484957802,-175.3980625939522z" style="fill:rgb(132,251,157)"/><path d="M23.409693000957507,-172.982574173207L42.460683992213596,-169.02840678816983L17.534151206208296,-174.81469145677693z" style="fill:rgb(153,249,151)"/><path d="M-163.89506582776667,56.62551320856561L-173.13990084454218,30.00013196326233L-164.55274842568372,62.42650143722484z" style="fill:rgb(6,96,155)"/><path d="M175.76260105379143,-5.884832833991194L172.71064115185882,-22.241597762360723L174.11678584106937,-12.088697720097018z" style="fill:rgb(251,145,152)"/><path d="M-90.91823374956793,147.26321714101618L-102.94673173435562,142.8780861580596L-95.12553363770803,147.42517502881034z" style="fill:rgb(66,20,159)"/><path d="M23.409693000957507,-172.982574173207L17.534151206208296,-174.81469145677693L4.198551386643466,-173.33576128887114z" style="fill:rgb(132,251,157)"/><path d="M-98.06694314956414,-141.92502069033648L-84.08397478840827,-154.15850386786607L-110.74404162381205,-136.69420512924938z" style="fill:rgb(62,233,156)"/><path d="M-173.13990084454218,30.00013196326233L-172.9425089250983,22.510912260023336L-174.92895211138773,-12.027252569925086z" style="fill:rgb(2,120,150)"/><path d="M-148.0673346726294,88.77104408843236L-164.55274842568372,62.42650143722484L-149.53357979662624,92.95584993552237z" style="fill:rgb(16,74,159)"/><path d="M17.534151206208296,-174.81469145677693L-5.994660598722629,-173.52315579209318L4.198551386643466,-173.33576128887114z" style="fill:rgb(132,251,157)"/><path d="M-148.0673346726294,88.77104408843236L-149.53357979662624,92.95584993552237L-128.691297388575,120.18884273792895z" style="fill:rgb(29,53,161)"/><path d="M-150.97501610848275,-86.29948119727112L-133.38867397327044,-113.83670695958813L-158.36035581890033,-76.4732226335681z" style="fill:rgb(22,195,151)"/><path d="M54.57428672192309,-166.21642922020604L52.422379202355025,-166.96078455201805L42.460683992213596,-169.02840678816983z" style="fill:rgb(153,249,151)"/><path d="M-98.97856774422408,141.37183222821815L-128.691297388575,120.18884273792895L-102.94673173435562,142.8780861580596z" style="fill:rgb(46,35,161)"/><path d="M-15.858264733794792,-171.77789689990578L-13.399749484957802,-175.3980625939522L-43.71518590536871,-170.06549339708894z" style="fill:rgb(111,248,163)"/><path d="M-162.60402865463817,-55.048854058706034L-158.36035581890033,-76.4732226335681L-169.93297411520342,-45.48255106318302z" style="fill:rgb(13,174,159)"/><path d="M23.409693000957507,-172.982574173207L54.57428672192309,-166.21642922020604L42.460683992213596,-169.02840678816983z" style="fill:rgb(153,249,151)"/><path d="M-163.89506582776667,56.62551320856561L-172.9425089250983,22.510912260023336L-173.13990084454218,30.00013196326233z" style="fill:rgb(6,96,155)"/><path d="M-98.06694314956414,-141.92502069033648L-72.3089750509056,-158.8332174391613L-84.08397478840827,-154.15850386786607z" style="fill:rgb(62,233,156)"/><path d="M-85.60358068144771,-5.832506281573405L2.7626795538238054e-17,0.1041324942522646L-68.07124227767463,-30.41137202183308z" style="fill:rgb(127,4,160)"/><path d="M170.0571784715494,-41.40068164758422L173.31192484550434,-15.122573527147177L172.71064115185882,-22.241597762360723z" style="fill:rgb(251,145,152)"/><path d="M-13.399749484957802,-175.3980625939522L-15.858264733794792,-171.77789689990578L-5.994660598722629,-173.52315579209318z" style="fill:rgb(111,248,163)"/><path d="M173.31192484550434,-15.122573527147177L170.0571784715494,-41.40068164758422L169.3561982510311,-43.703002270864225zM174.11678584106937,-12.088697720097018L172.71064115185882,-22.241597762360723L173.31192484550434,-15.122573527147177z" style="fill:rgb(251,145,152)"/><path d="M-102.94673173435562,142.8780861580596L-90.91823374956793,147.26321714101618L-98.97856774422408,141.37183222821815z" style="fill:rgb(66,20,159)"/><path d="M54.57428672192309,-166.21642922020604L23.409693000957507,-172.982574173207L26.28329378258376,-172.0865286965729z" style="fill:rgb(153,249,151)"/><path d="M-174.92895211138773,-12.027252569925086L-162.60402865463817,-55.048854058706034L-169.93297411520342,-45.48255106318302z" style="fill:rgb(8,151,167)"/><path d="M4.198551386643466,-173.33576128887114L26.28329378258376,-172.0865286965729L23.409693000957507,-172.982574173207z" style="fill:rgb(132,251,157)"/><path d="M-162.60402865463817,-55.048854058706034L-150.97501610848275,-86.29948119727112L-158.36035581890033,-76.4732226335681z" style="fill:rgb(13,174,159)"/><path d="M-148.0673346726294,88.77104408843236L-163.89506582776667,56.62551320856561L-164.55274842568372,62.42650143722484z" style="fill:rgb(16,74,159)"/><path d="M-119.90490007466855,-119.79375420052718L-110.74404162381205,-136.69420512924938L-133.38867397327044,-113.83670695958813z" style="fill:rgb(45,217,165)"/><path d="M123.95535163080095,-116.45649969417342L128.20002860391364,-120.11889939022755L106.3639342928265,-139.74537199686014z" style="fill:rgb(208,217,167)"/><path d="M139.90918065760218,-96.19492586544136L146.36327954704598,-97.06194822785008L128.20002860391364,-120.11889939022755z" style="fill:rgb(222,203,167)"/><path d="M-15.858264733794792,-171.77789689990578L-43.71518590536871,-170.06549339708894L-34.7747005244061,-168.43085264740012z" style="fill:rgb(111,248,163)"/><path d="M104.76631631786603,-133.6983931329307L106.3639342928265,-139.74537199686014L81.5581694604383,-155.29300070921377z" style="fill:rgb(193,228,168)"/><path d="M139.90918065760218,-96.19492586544136L160.2479055741297,-71.3153254701639L146.36327954704598,-97.06194822785008z" style="fill:rgb(232,186,168)"/><path d="M-126.10277440109758,117.46162787359664L-148.0673346726294,88.77104408843236L-128.691297388575,120.18884273792895z" style="fill:rgb(29,53,161)"/><path d="M-126.10277440109758,117.46162787359664L-128.691297388575,120.18884273792895L-98.97856774422408,141.37183222821815z" style="fill:rgb(46,35,161)"/><path d="M4.198551386643466,-173.33576128887114L-5.994660598722629,-173.52315579209318L-2.3751703721275637,-172.60672494241257z" style="fill:rgb(132,251,157)"/><path d="M-61.8792151497423,-157.7304361322213L-43.71518590536871,-170.06549339708894L-72.3089750509056,-158.8332174391613z" style="fill:rgb(91,241,170)"/><path d="M26.28329378258376,-172.0865286965729L4.198551386643466,-173.33576128887114L-2.3751703721275637,-172.60672494241257z" style="fill:rgb(132,251,157)"/><path d="M-2.3751703721275637,-172.60672494241257L-5.994660598722629,-173.52315579209318L-15.858264733794792,-171.77789689990578z" style="fill:rgb(111,248,163)"/><path d="M-119.90490007466855,-119.79375420052718L-98.06694314956414,-141.92502069033648L-110.74404162381205,-136.69420512924938z" style="fill:rgb(45,217,165)"/><path d="M-34.7747005244061,-168.43085264740012L-43.71518590536871,-170.06549339708894L-52.469740147249055,-161.44514048445288z" style="fill:rgb(91,241,170)"/><path d="M59.2927495162549,-156.89617660474357L81.5581694604383,-155.29300070921377L54.57428672192309,-166.21642922020604z" style="fill:rgb(176,237,171)"/><path d="M2.0285752780694373e-14,0.104132494252266L112.69389476565424,-16.73563128478127L-68.07124227767463,-30.41137202183308z" style="fill:rgb(127,4,160)"/><path d="M169.3561982510311,-43.703002270864225L160.2479055741297,-71.3153254701639L160.0447455067375,-49.35387474894575z" style="fill:rgb(239,169,171)"/><path d="M-119.90490007466855,-119.79375420052718L-133.38867397327044,-113.83670695958813L-150.97501610848275,-86.29948119727112z" style="fill:rgb(33,199,173)"/><path d="M-98.97856774422408,141.37183222821815L-90.91823374956793,147.26321714101618L-88.98061697324042,147.18862341858713z" style="fill:rgb(66,20,159)"/><path d="M-43.71518590536871,-170.06549339708894L-61.8792151497423,-157.7304361322213L-52.469740147249055,-161.44514048445288z" style="fill:rgb(91,241,170)"/><path d="M-172.9425089250983,22.510912260023336L-165.51852867950336,13.593896646237841L-174.92895211138773,-12.027252569925086z" style="fill:rgb(8,127,173)"/><path d="M173.31192484550434,-15.122573527147177L169.3561982510311,-43.703002270864225L160.0447455067375,-49.35387474894575z" style="fill:rgb(243,150,175)"/><path d="M-98.06694314956414,-141.92502069033648L-61.8792151497423,-157.7304361322213L-72.3089750509056,-158.8332174391613z" style="fill:rgb(74,231,178)"/><path d="M139.90918065760218,-96.19492586544136L128.20002860391364,-120.11889939022755L123.95535163080095,-116.45649969417342z" style="fill:rgb(222,203,167)"/><path d="M104.76631631786603,-133.6983931329307L123.95535163080095,-116.45649969417342L106.3639342928265,-139.74537199686014z" style="fill:rgb(208,217,167)"/><path d="M163.459427862306,-24.321486880563633L174.11678584106937,-12.088697720097018L173.31192484550434,-15.122573527147177z" style="fill:rgb(127,4,160)"/><path d="M-30.407807033615896,-167.6324177015292L-15.858264733794792,-171.77789689990578L-34.7747005244061,-168.43085264740012z" style="fill:rgb(111,248,163)"/><path d="M54.57428672192309,-166.21642922020604L26.28329378258376,-172.0865286965729L34.50358696616659,-161.9929025080569z" style="fill:rgb(157,241,174)"/><path d="M-174.92895211138773,-12.027252569925086L-167.58848159653184,-21.286095368369484L-162.60402865463817,-55.048854058706034z" style="fill:rgb(8,151,167)"/><path d="M-15.858264733794792,-171.77789689990578L-30.407807033615896,-167.6324177015292L-2.3751703721275637,-172.60672494241257z" style="fill:rgb(111,248,163)"/><path d="M82.97452223885297,-147.3397040830924L104.76631631786603,-133.6983931329307L81.5581694604383,-155.29300070921377z" style="fill:rgb(193,228,168)"/><path d="M152.08582383926043,-73.58018580308193L160.2479055741297,-71.3153254701639L139.90918065760218,-96.19492586544136z" style="fill:rgb(232,186,168)"/><path d="M59.2927495162549,-156.89617660474357L82.97452223885297,-147.3397040830924L81.5581694604383,-155.29300070921377z" style="fill:rgb(176,237,171)"/><path d="M-52.469740147249055,-161.44514048445288L-30.407807033615896,-167.6324177015292L-34.7747005244061,-168.43085264740012z" style="fill:rgb(91,241,170)"/><path d="M160.0447455067375,-49.35387474894575L160.2479055741297,-71.3153254701639L152.08582383926043,-73.58018580308193z" style="fill:rgb(239,169,171)"/><path d="M34.50358696616659,-161.9929025080569L26.28329378258376,-172.0865286965729L-2.3751703721275637,-172.60672494241257z" style="fill:rgb(139,243,179)"/><path d="M-163.89506582776667,56.62551320856561L-156.3156927729619,48.06815565296874L-172.9425089250983,22.510912260023336z" style="fill:rgb(13,103,178)"/><path d="M-165.51852867950336,13.593896646237841L-167.58848159653184,-21.286095368369484L-174.92895211138773,-12.027252569925086z" style="fill:rgb(8,127,173)"/><path d="M-61.8792151497423,-157.7304361322213L-98.06694314956414,-141.92502069033648L-70.22392139446666,-152.22310764666753z" style="fill:rgb(74,231,178)"/><path d="M-148.0673346726294,88.77104408843236L-156.3156927729619,48.06815565296874L-163.89506582776667,56.62551320856561z" style="fill:rgb(22,80,182)"/><path d="M59.2927495162549,-156.89617660474357L54.57428672192309,-166.21642922020604L34.50358696616659,-161.9929025080569z" style="fill:rgb(157,241,174)"/><path d="M-136.82038241451022,-93.13487170565382L-119.90490007466855,-119.79375420052718L-150.97501610848275,-86.29948119727112z" style="fill:rgb(33,199,173)"/><path d="M-162.60402865463817,-55.048854058706034L-147.95308342394367,-62.88661946919091L-150.97501610848275,-86.29948119727112z" style="fill:rgb(24,178,181)"/><path d="M-86.25142474294074,-141.64528008611177L-70.22392139446666,-152.22310764666753L-98.06694314956414,-141.92502069033648z" style="fill:rgb(74,231,178)"/><path d="M-30.407807033615896,-167.6324177015292L-52.469740147249055,-161.44514048445288L-56.788871619717874,-157.19221601249487z" style="fill:rgb(91,241,170)"/><path d="M-88.98061697324042,147.18862341858713L-90.57458272700724,133.81116790711283L-98.97856774422408,141.37183222821815z" style="fill:rgb(72,26,183)"/><path d="M-52.469740147249055,-161.44514048445288L-61.8792151497423,-157.7304361322213L-56.788871619717874,-157.19221601249487z" style="fill:rgb(91,241,170)"/><path d="M-140.26556297190885,80.57239365577325L-148.0673346726294,88.77104408843236L-126.10277440109758,117.46162787359664z" style="fill:rgb(35,59,184)"/><path d="M145.97975467185015,-33.03009132893698L112.69389476565424,-16.73563128478127L174.11678584106937,-12.088697720097018z" style="fill:rgb(127,4,160)"/><path d="M173.31192484550434,-15.122573527147177L160.0447455067375,-49.35387474894575L163.459427862306,-24.321486880563633z" style="fill:rgb(243,150,175)"/><path d="M-118.02140112037571,109.60130368532893L-126.10277440109758,117.46162787359664L-98.97856774422408,141.37183222821815z" style="fill:rgb(52,41,184)"/><path d="M-119.90490007466855,-119.79375420052718L-99.70769776551533,-127.91985917156912L-98.06694314956414,-141.92502069033648z" style="fill:rgb(58,217,186)"/><path d="M-56.788871619717874,-157.19221601249487L-61.8792151497423,-157.7304361322213L-70.22392139446666,-152.22310764666753z" style="fill:rgb(74,231,178)"/><path d="M-156.3156927729619,48.06815565296874L-165.51852867950336,13.593896646237841L-172.9425089250983,22.510912260023336z" style="fill:rgb(13,103,178)"/><path d="M-2.3751703721275637,-172.60672494241257L-30.407807033615896,-167.6324177015292L-14.995726669364943,-157.9428332078974z" style="fill:rgb(120,240,185)"/><path d="M-99.70769776551533,-127.91985917156912L-86.25142474294074,-141.64528008611177L-98.06694314956414,-141.92502069033648z" style="fill:rgb(58,217,186)"/><path d="M-147.95308342394367,-62.88661946919091L-136.82038241451022,-93.13487170565382L-150.97501610848275,-86.29948119727112z" style="fill:rgb(24,178,181)"/><path d="M-86.25142474294074,-141.64528008611177L-56.788871619717874,-157.19221601249487L-70.22392139446666,-152.22310764666753z" style="fill:rgb(74,231,178)"/><path d="M-167.58848159653184,-21.286095368369484L-147.95308342394367,-62.88661946919091L-162.60402865463817,-55.048854058706034z" style="fill:rgb(19,156,189)"/><path d="M34.50358696616659,-161.9929025080569L-2.3751703721275637,-172.60672494241257L9.446975139153443,-162.378824972959z" style="fill:rgb(139,243,179)"/><path d="M-90.57458272700724,133.81116790711283L-88.98061697324042,147.18862341858713L-84.15205908080135,141.08131739769945z" style="fill:rgb(72,26,183)"/><path d="M145.97975467185015,-33.03009132893698L174.11678584106937,-12.088697720097018L163.459427862306,-24.321486880563633z" style="fill:rgb(127,4,160)"/><path d="M-148.0673346726294,88.77104408843236L-140.26556297190885,80.57239365577325L-156.3156927729619,48.06815565296874z" style="fill:rgb(22,80,182)"/><path d="M114.16230943049639,-107.59837662737928L139.90918065760218,-96.19492586544136L123.95535163080095,-116.45649969417342z" style="fill:rgb(213,197,190)"/><path d="M98.60791491302574,-121.56415807204952L123.95535163080095,-116.45649969417342L104.76631631786603,-133.6983931329307z" style="fill:rgb(202,209,190)"/><path d="M-14.995726669364943,-157.9428332078974L-30.407807033615896,-167.6324177015292L-56.788871619717874,-157.19221601249487z" style="fill:rgb(103,234,191)"/><path d="M104.76631631786603,-133.6983931329307L82.97452223885297,-147.3397040830924L98.60791491302574,-121.56415807204952z" style="fill:rgb(189,218,191)"/><path d="M-136.82038241451022,-93.13487170565382L-106.86832091388654,-120.61601409761462L-119.90490007466855,-119.79375420052718z" style="fill:rgb(47,200,194)"/><path d="M-118.02140112037571,109.60130368532893L-98.97856774422408,141.37183222821815L-90.57458272700724,133.81116790711283z" style="fill:rgb(52,41,184)"/><path d="M9.446975139153443,-162.378824972959L-2.3751703721275637,-172.60672494241257L-14.995726669364943,-157.9428332078974z" style="fill:rgb(120,240,185)"/><path d="M-118.02140112037571,109.60130368532893L-140.26556297190885,80.57239365577325L-126.10277440109758,117.46162787359664z" style="fill:rgb(35,59,184)"/><path d="M-56.788871619717874,-157.19221601249487L-86.25142474294074,-141.64528008611177L-80.48954875021514,-141.5088668591969z" style="fill:rgb(74,231,178)"/><path d="M136.91293982978843,-72.84914943406498L152.08582383926043,-73.58018580308193L139.90918065760218,-96.19492586544136z" style="fill:rgb(222,184,191)"/><path d="M-99.70769776551533,-127.91985917156912L-119.90490007466855,-119.79375420052718L-106.86832091388654,-120.61601409761462z" style="fill:rgb(58,217,186)"/><path d="M82.97452223885297,-147.3397040830924L59.2927495162549,-156.89617660474357L80.94622832376645,-132.58839630901238z" style="fill:rgb(175,225,193)"/><path d="M-99.70769776551533,-127.91985917156912L-80.48954875021514,-141.5088668591969L-86.25142474294074,-141.64528008611177z" style="fill:rgb(58,217,186)"/><path d="M-165.51852867950336,13.593896646237841L-152.64948277611919,-30.2118784814386L-167.58848159653184,-21.286095368369484z" style="fill:rgb(19,133,195)"/><path d="M160.0447455067375,-49.35387474894575L152.08582383926043,-73.58018580308193L143.29915086635327,-53.243918444105695z" style="fill:rgb(227,169,193)"/><path d="M-82.24472066250425,138.66885482028593L-90.57458272700724,133.81116790711283L-84.15205908080135,141.08131739769945z" style="fill:rgb(72,26,183)"/><path d="M61.774215465648865,-140.27342545832124L59.2927495162549,-156.89617660474357L34.50358696616659,-161.9929025080569z" style="fill:rgb(160,229,196)"/><path d="M-106.86832091388654,-120.61601409761462L-136.82038241451022,-93.13487170565382L-112.31990305298227,-111.95145364910383z" style="fill:rgb(47,200,194)"/><path d="M163.459427862306,-24.321486880563633L160.0447455067375,-49.35387474894575L143.29915086635327,-53.243918444105695z" style="fill:rgb(230,154,197)"/><path d="M-167.58848159653184,-21.286095368369484L-152.64948277611919,-30.2118784814386L-147.95308342394367,-62.88661946919091z" style="fill:rgb(19,156,189)"/><path d="M98.60791491302574,-121.56415807204952L114.16230943049639,-107.59837662737928L123.95535163080095,-116.45649969417342z" style="fill:rgb(202,209,190)"/><path d="M127.08059779067493,-91.17418901781907L139.90918065760218,-96.19492586544136L114.16230943049639,-107.59837662737928z" style="fill:rgb(213,197,190)"/><path d="M-80.48954875021514,-141.5088668591969L-99.70769776551533,-127.91985917156912L-100.51642614868184,-121.01663760457333z" style="fill:rgb(58,217,186)"/><path d="M136.91293982978843,-72.84914943406498L139.90918065760218,-96.19492586544136L127.08059779067493,-91.17418901781907z" style="fill:rgb(222,184,191)"/><path d="M-100.51642614868184,-121.01663760457333L-99.70769776551533,-127.91985917156912L-106.86832091388654,-120.61601409761462z" style="fill:rgb(58,217,186)"/><path d="M98.60791491302574,-121.56415807204952L82.97452223885297,-147.3397040830924L80.94622832376645,-132.58839630901238z" style="fill:rgb(189,218,191)"/><path d="M-122.7894782955047,-95.3115076558643L-112.31990305298227,-111.95145364910383L-136.82038241451022,-93.13487170565382z" style="fill:rgb(47,200,194)"/><path d="M-156.3156927729619,48.06815565296874L-150.52470852374967,3.542115478402379L-165.51852867950336,13.593896646237841z" style="fill:rgb(24,110,200)"/><path d="M-126.36032739483124,-85.48518414088132L-136.82038241451022,-93.13487170565382L-147.95308342394367,-62.88661946919091z" style="fill:rgb(38,181,201)"/><path d="M-14.995726669364943,-157.9428332078974L-56.788871619717874,-157.19221601249487L-37.92285185584115,-148.7305524662504z" style="fill:rgb(103,234,191)"/><path d="M-58.439827240489976,-134.95972146737745L-56.788871619717874,-157.19221601249487L-80.48954875021514,-141.5088668591969z" style="fill:rgb(87,225,198)"/><path d="M143.29915086635327,-53.243918444105695L152.08582383926043,-73.58018580308193L136.91293982978843,-72.84914943406498z" style="fill:rgb(227,169,193)"/><path d="M-100.51642614868184,-121.01663760457333L-106.86832091388654,-120.61601409761462L-112.31990305298227,-111.95145364910383z" style="fill:rgb(47,200,194)"/><path d="M80.94622832376645,-132.58839630901238L59.2927495162549,-156.89617660474357L61.774215465648865,-140.27342545832124z" style="fill:rgb(175,225,193)"/><path d="M34.50358696616659,-161.9929025080569L9.446975139153443,-162.378824972959L21.556500869123436,-144.5310850107647z" style="fill:rgb(145,230,200)"/><path d="M-136.82038241451022,-93.13487170565382L-126.36032739483124,-85.48518414088132L-122.7894782955047,-95.3115076558643z" style="fill:rgb(38,181,201)"/><path d="M-165.51852867950336,13.593896646237841L-150.52470852374967,3.542115478402379L-152.64948277611919,-30.2118784814386z" style="fill:rgb(19,133,195)"/><path d="M-122.7894782955047,-95.3115076558643L-100.51642614868184,-121.01663760457333L-112.31990305298227,-111.95145364910383z" style="fill:rgb(47,200,194)"/><path d="M-140.26556297190885,80.57239365577325L-125.89769104396042,68.37566962099208L-156.3156927729619,48.06815565296874z" style="fill:rgb(33,88,203)"/><path d="M61.774215465648865,-140.27342545832124L34.50358696616659,-161.9929025080569L41.74540685152884,-144.31837546056627z" style="fill:rgb(160,229,196)"/><path d="M-37.92285185584115,-148.7305524662504L-56.788871619717874,-157.19221601249487L-58.439827240489976,-134.95972146737745z" style="fill:rgb(87,225,198)"/><path d="M163.459427862306,-24.321486880563633L143.29915086635327,-53.243918444105695L145.97975467185015,-33.03009132893698z" style="fill:rgb(230,154,197)"/><path d="M21.556500869123436,-144.5310850107647L9.446975139153443,-162.378824972959L-14.995726669364943,-157.9428332078974z" style="fill:rgb(130,228,205)"/><path d="M-82.24472066250425,138.66885482028593L-77.71997556571316,119.981328402454L-90.57458272700724,133.81116790711283z" style="fill:rgb(81,36,204)"/><path d="M-58.439827240489976,-134.95972146737745L-80.48954875021514,-141.5088668591969L-100.51642614868184,-121.01663760457333z" style="fill:rgb(74,213,205)"/><path d="M-118.02140112037571,109.60130368532893L-125.89769104396042,68.37566962099208L-140.26556297190885,80.57239365577325z" style="fill:rgb(45,68,205)"/><path d="M-77.71997556571316,119.981328402454L-118.02140112037571,109.60130368532893L-90.57458272700724,133.81116790711283z" style="fill:rgb(62,50,205)"/><path d="M121.12242887395477,-40.75040651201796L112.69389476565424,-16.73563128478127L145.97975467185015,-33.03009132893698z" style="fill:rgb(127,4,160)"/><path d="M-147.95308342394367,-62.88661946919091L-133.21321740765885,-66.62725748397658L-126.36032739483124,-85.48518414088132z" style="fill:rgb(38,181,201)"/><path d="M41.74540685152884,-144.31837546056627L34.50358696616659,-161.9929025080569L21.556500869123436,-144.5310850107647z" style="fill:rgb(145,230,200)"/><path d="M112.69389476565424,-16.73563128478127L53.190067914059256,-51.27352835394767L24.35297986146737,-23.41903995191029z" style="fill:rgb(127,4,160)"/><path d="M-100.51642614868184,-121.01663760457333L-122.7894782955047,-95.3115076558643L-115.95886754590705,-96.37114717817919z" style="fill:rgb(47,200,194)"/><path d="M-152.64948277611919,-30.2118784814386L-136.03667097542257,-46.405307384327536L-147.95308342394367,-62.88661946919091z" style="fill:rgb(34,160,208)"/><path d="M-156.3156927729619,48.06815565296874L-141.51297023390296,36.906895621728346L-150.52470852374967,3.542115478402379z" style="fill:rgb(24,110,200)"/><path d="M-126.36032739483124,-85.48518414088132L-115.95886754590705,-96.37114717817919L-122.7894782955047,-95.3115076558643z" style="fill:rgb(38,181,201)"/><path d="M-136.03667097542257,-46.405307384327536L-133.21321740765885,-66.62725748397658L-147.95308342394367,-62.88661946919091z" style="fill:rgb(34,160,208)"/><path d="M-125.89769104396042,68.37566962099208L-141.51297023390296,36.906895621728346L-156.3156927729619,48.06815565296874z" style="fill:rgb(33,88,203)"/><path d="M1.9312971067118454,-140.84000543250198L-14.995726669364943,-157.9428332078974L-37.92285185584115,-148.7305524662504z" style="fill:rgb(116,223,210)"/><path d="M-77.71997556571316,119.981328402454L-82.24472066250425,138.66885482028593L-75.88393358898156,123.16552173454103z" style="fill:rgb(81,36,204)"/><path d="M114.16230943049639,-107.59837662737928L98.60791491302574,-121.56415807204952L98.78766613489833,-93.49750684379539z" style="fill:rgb(193,198,210)"/><path d="M107.92497550917633,-81.86053931644794L127.08059779067493,-91.17418901781907L114.16230943049639,-107.59837662737928z" style="fill:rgb(201,189,210)"/><path d="M136.91293982978843,-72.84914943406498L127.08059779067493,-91.17418901781907L107.92497550917633,-81.86053931644794z" style="fill:rgb(207,179,211)"/><path d="M98.60791491302574,-121.56415807204952L80.94622832376645,-132.58839630901238L75.25400796284211,-111.15640205897401z" style="fill:rgb(184,205,211)"/><path d="M-126.36032739483124,-85.48518414088132L-126.04319112654336,-68.44684263668937L-115.95886754590705,-96.37114717817919z" style="fill:rgb(38,181,201)"/><path d="M-118.02140112037571,109.60130368532893L-104.31400524930758,96.49880466910533L-125.89769104396042,68.37566962099208z" style="fill:rgb(45,68,205)"/><path d="M-77.71997556571316,119.981328402454L-104.31400524930758,96.49880466910533L-118.02140112037571,109.60130368532893z" style="fill:rgb(62,50,205)"/><path d="M-126.04319112654336,-68.44684263668937L-126.36032739483124,-85.48518414088132L-133.21321740765885,-66.62725748397658z" style="fill:rgb(38,181,201)"/><path d="M-136.80601294468238,-24.698079914775963L-152.64948277611919,-30.2118784814386L-150.52470852374967,3.542115478402379z" style="fill:rgb(34,139,214)"/><path d="M21.556500869123436,-144.5310850107647L-14.995726669364943,-157.9428332078974L1.9312971067118454,-140.84000543250198z" style="fill:rgb(130,228,205)"/><path d="M80.94622832376645,-132.58839630901238L61.774215465648865,-140.27342545832124L75.25400796284211,-111.15640205897401z" style="fill:rgb(173,210,212)"/><path d="M-58.439827240489976,-134.95972146737745L-100.51642614868184,-121.01663760457333L-75.69335679960403,-117.03189803282129z" style="fill:rgb(74,213,205)"/><path d="M-136.03667097542257,-46.405307384327536L-152.64948277611919,-30.2118784814386L-137.53603395129133,-35.66671298122191z" style="fill:rgb(34,160,208)"/><path d="M143.29915086635327,-53.243918444105695L136.91293982978843,-72.84914943406498L119.31050237893542,-55.01238016821305z" style="fill:rgb(212,168,213)"/><path d="M-88.91186138743133,-95.5369448768595L-100.51642614868184,-121.01663760457333L-115.95886754590705,-96.37114717817919z" style="fill:rgb(64,198,212)"/><path d="M-152.64948277611919,-30.2118784814386L-136.80601294468238,-24.698079914775963L-137.53603395129133,-35.66671298122191z" style="fill:rgb(34,139,214)"/><path d="M145.97975467185015,-33.03009132893698L143.29915086635327,-53.243918444105695L119.31050237893542,-55.01238016821305z" style="fill:rgb(214,157,215)"/><path d="M89.71410457246294,-46.98079797035181L112.69389476565424,-16.73563128478127L121.12242887395477,-40.75040651201796z" style="fill:rgb(127,4,160)"/><path d="M61.774215465648865,-140.27342545832124L41.74540685152884,-144.31837546056627L47.545102765409524,-119.31927335331997z" style="fill:rgb(162,213,215)"/><path d="M-132.44465707420355,7.148950325394101L-150.52470852374967,3.542115478402379L-141.51297023390296,36.906895621728346z" style="fill:rgb(38,118,218)"/><path d="M-130.18952226997865,-38.31825449408964L-133.21321740765885,-66.62725748397658L-136.03667097542257,-46.405307384327536z" style="fill:rgb(34,160,208)"/><path d="M107.92497550917633,-81.86053931644794L114.16230943049639,-107.59837662737928L98.78766613489833,-93.49750684379539z" style="fill:rgb(201,189,210)"/><path d="M98.60791491302574,-121.56415807204952L87.76771083271086,-103.38045271160901L98.78766613489833,-93.49750684379539z" style="fill:rgb(193,198,210)"/><path d="M-75.69335679960403,-117.03189803282129L-100.51642614868184,-121.01663760457333L-88.91186138743133,-95.5369448768595z" style="fill:rgb(64,198,212)"/><path d="M-75.18618863168783,121.4648967768992L-77.71997556571316,119.981328402454L-75.88393358898156,123.16552173454103z" style="fill:rgb(81,36,204)"/><path d="M-32.71948932086867,-122.12876770805366L-37.92285185584115,-148.7305524662504L-58.439827240489976,-134.95972146737745z" style="fill:rgb(103,216,215)"/><path d="M1.9312971067118454,-140.84000543250198L-37.92285185584115,-148.7305524662504L-16.39898395148927,-133.30543614490585z" style="fill:rgb(116,223,210)"/><path d="M-133.21321740765885,-66.62725748397658L-130.18952226997865,-38.31825449408964L-126.04319112654336,-68.44684263668937z" style="fill:rgb(34,160,208)"/><path d="M98.60791491302574,-121.56415807204952L75.25400796284211,-111.15640205897401L87.76771083271086,-103.38045271160901z" style="fill:rgb(184,205,211)"/><path d="M-150.52470852374967,3.542115478402379L-135.40865763669498,-3.7025426384876217L-136.80601294468238,-24.698079914775963z" style="fill:rgb(34,139,214)"/><path d="M114.85177811321142,-68.87982319655362L136.91293982978843,-72.84914943406498L107.92497550917633,-81.86053931644794z" style="fill:rgb(207,179,211)"/><path d="M47.545102765409524,-119.31927335331997L41.74540685152884,-144.31837546056627L21.556500869123436,-144.5310850107647z" style="fill:rgb(150,213,218)"/><path d="M-74.71814258148679,119.7516588416876L-77.71997556571316,119.981328402454L-75.18618863168783,121.4648967768992z" style="fill:rgb(91,50,222)"/><path d="M-137.53603395129133,-35.66671298122191L-130.18952226997865,-38.31825449408964L-136.03667097542257,-46.405307384327536z" style="fill:rgb(34,160,208)"/><path d="M119.31050237893542,-55.01238016821305L136.91293982978843,-72.84914943406498L114.85177811321142,-68.87982319655362z" style="fill:rgb(212,168,213)"/><path d="M-150.52470852374967,3.542115478402379L-132.44465707420355,7.148950325394101L-135.40865763669498,-3.7025426384876217z" style="fill:rgb(38,118,218)"/><path d="M75.25400796284211,-111.15640205897401L61.774215465648865,-140.27342545832124L61.68650845461426,-116.53932936024103z" style="fill:rgb(173,210,212)"/><path d="M-73.39900722996535,114.92314519596418L-77.71997556571316,119.981328402454L-74.71814258148679,119.7516588416876z" style="fill:rgb(91,50,222)"/><path d="M-121.67218391637489,38.13153139309137L-141.51297023390296,36.906895621728346L-125.89769104396042,68.37566962099208z" style="fill:rgb(47,97,221)"/><path d="M-136.80601294468238,-24.698079914775963L-130.18952226997865,-38.31825449408964L-137.53603395129133,-35.66671298122191z" style="fill:rgb(34,139,214)"/><path d="M-126.04319112654336,-68.44684263668937L-97.450173289578,-71.24732606380239L-115.95886754590705,-96.37114717817919z" style="fill:rgb(57,181,218)"/><path d="M-16.39898395148927,-133.30543614490585L-37.92285185584115,-148.7305524662504L-32.71948932086867,-122.12876770805366z" style="fill:rgb(103,216,215)"/><path d="M61.774215465648865,-140.27342545832124L47.545102765409524,-119.31927335331997L61.68650845461426,-116.53932936024103z" style="fill:rgb(162,213,215)"/><path d="M28.43212502630904,131.44585592897806L4.54830575166504,135.8361623502994L25.375477228201262,138.70380639562808z" style="fill:rgb(132,35,215)"/><path d="M-141.51297023390296,36.906895621728346L-126.78137671817596,27.88269714702168L-132.44465707420355,7.148950325394101z" style="fill:rgb(38,118,218)"/><path d="M-104.31400524930758,96.49880466910533L-98.5237034172944,75.1165400118144L-125.89769104396042,68.37566962099208z" style="fill:rgb(58,79,223)"/><path d="M-77.71997556571316,119.981328402454L-91.45808130633495,84.30951895484944L-104.31400524930758,96.49880466910533z" style="fill:rgb(74,63,223)"/><path d="M145.97975467185015,-33.03009132893698L119.31050237893542,-55.01238016821305L121.12242887395477,-40.75040651201796z" style="fill:rgb(214,157,215)"/><path d="M21.556500869123436,-144.5310850107647L1.9312971067118454,-140.84000543250198L19.583602208877373,-116.65953774457915z" style="fill:rgb(139,212,221)"/><path d="M-141.51297023390296,36.906895621728346L-121.67218391637489,38.13153139309137L-126.78137671817596,27.88269714702168z" style="fill:rgb(47,97,221)"/><path d="M-46.35962269021733,-107.65769433039583L-58.439827240489976,-134.95972146737745L-75.69335679960403,-117.03189803282129z" style="fill:rgb(92,206,221)"/><path d="M-70.4256545440874,102.89954441663505L-77.71997556571316,119.981328402454L-73.39900722996535,114.92314519596418z" style="fill:rgb(74,63,223)"/><path d="M112.69389476565424,-16.73563128478127L89.71410457246294,-46.98079797035181L53.190067914059256,-51.27352835394767z" style="fill:rgb(127,4,160)"/><path d="M-128.06531222048437,-7.221985195033622L-136.80601294468238,-24.698079914775963L-135.40865763669498,-3.7025426384876217z" style="fill:rgb(34,139,214)"/><path d="M-97.450173289578,-71.24732606380239L-88.91186138743133,-95.5369448768595L-115.95886754590705,-96.37114717817919z" style="fill:rgb(57,181,218)"/><path d="M-136.80601294468238,-24.698079914775963L-128.06531222048437,-7.221985195033622L-130.18952226997865,-38.31825449408964z" style="fill:rgb(34,139,214)"/><path d="M-125.89769104396042,68.37566962099208L-111.93021143125426,57.67352317730774L-121.67218391637489,38.13153139309137z" style="fill:rgb(47,97,221)"/><path d="M47.545102765409524,-119.31927335331997L21.556500869123436,-144.5310850107647L33.33720969924983,-119.37063930684364z" style="fill:rgb(150,213,218)"/><path d="M4.54830575166504,135.8361623502994L-2.5669509649970457,127.12419080246976L-6.4919098136242415,134.31605859342824z" style="fill:rgb(132,35,215)"/><path d="M-132.44465707420355,7.148950325394101L-128.06531222048437,-7.221985195033622L-135.40865763669498,-3.7025426384876217z" style="fill:rgb(38,118,218)"/><path d="M4.54830575166504,135.8361623502994L28.43212502630904,131.44585592897806L-2.5669509649970457,127.12419080246976z" style="fill:rgb(132,35,215)"/><path d="M-98.5237034172944,75.1165400118144L-111.93021143125426,57.67352317730774L-125.89769104396042,68.37566962099208z" style="fill:rgb(58,79,223)"/><path d="M-77.71997556571316,119.981328402454L-70.4256545440874,102.89954441663505L-82.76626348382534,91.99199529078655z" style="fill:rgb(74,63,223)"/><path d="M-2.5669509649970457,127.12419080246976L-17.14970819569195,130.5918711871926L-6.4919098136242415,134.31605859342824z" style="fill:rgb(111,40,219)"/><path d="M-91.45808130633495,84.30951895484944L-77.71997556571316,119.981328402454L-82.76626348382534,91.99199529078655z" style="fill:rgb(74,63,223)"/><path d="M-98.5237034172944,75.1165400118144L-104.31400524930758,96.49880466910533L-91.45808130633495,84.30951895484944z" style="fill:rgb(58,79,223)"/><path d="M-32.71948932086867,-122.12876770805366L-58.439827240489976,-134.95972146737745L-46.35962269021733,-107.65769433039583z" style="fill:rgb(92,206,221)"/><path d="M-130.18952226997865,-38.31825449408964L-100.8350652479728,-45.09898977723907L-126.04319112654336,-68.44684263668937z" style="fill:rgb(53,163,224)"/><path d="M33.33720969924983,-119.37063930684364L21.556500869123436,-144.5310850107647L19.583602208877373,-116.65953774457915z" style="fill:rgb(139,212,221)"/><path d="M6.8023257643075645,-111.24953790573468L1.9312971067118454,-140.84000543250198L-16.39898395148927,-133.30543614490585z" style="fill:rgb(129,208,225)"/><path d="M-46.35962269021733,-107.65769433039583L-75.69335679960403,-117.03189803282129L-88.91186138743133,-95.5369448768595z" style="fill:rgb(83,193,227)"/><path d="M-119.62806532307751,23.500761741937L-132.44465707420355,7.148950325394101L-126.78137671817596,27.88269714702168zM-132.44465707420355,7.148950325394101L-119.62806532307751,23.500761741937L-128.06531222048437,-7.221985195033622z" style="fill:rgb(38,118,218)"/><path d="M-17.14970819569195,130.5918711871926L-32.73248495466714,116.53934619971915L-37.506203664021044,123.47864096840385z" style="fill:rgb(111,40,219)"/><path d="M98.78766613489833,-93.49750684379539L87.76771083271086,-103.38045271160901L72.43950790641192,-79.62524129610492z" style="fill:rgb(181,184,227)"/><path d="M82.95158903459536,-68.39879363487701L107.92497550917633,-81.86053931644794L98.78766613489833,-93.49750684379539z" style="fill:rgb(186,178,227)"/><path d="M-121.67218391637489,38.13153139309137L-119.62806532307751,23.500761741937L-126.78137671817596,27.88269714702168z" style="fill:rgb(47,97,221)"/><path d="M-32.73248495466714,116.53934619971915L-17.14970819569195,130.5918711871926L-2.5669509649970457,127.12419080246976z" style="fill:rgb(111,40,219)"/><path d="M82.95158903459536,-68.39879363487701L114.85177811321142,-68.87982319655362L107.92497550917633,-81.86053931644794z" style="fill:rgb(190,172,228)"/><path d="M87.76771083271086,-103.38045271160901L75.25400796284211,-111.15640205897401L65.90529924363682,-83.6612345960599z" style="fill:rgb(175,188,228)"/><path d="M-32.73248495466714,116.53934619971915L-47.403356722168034,117.6618072446726L-37.506203664021044,123.47864096840385z" style="fill:rgb(91,50,222)"/><path d="M-100.8350652479728,-45.09898977723907L-97.450173289578,-71.24732606380239L-126.04319112654336,-68.44684263668937z" style="fill:rgb(53,163,224)"/><path d="M-128.06531222048437,-7.221985195033622L-100.8350652479728,-45.09898977723907L-130.18952226997865,-38.31825449408964z" style="fill:rgb(53,144,229)"/><path d="M75.25400796284211,-111.15640205897401L61.68650845461426,-116.53932936024103L65.90529924363682,-83.6612345960599z" style="fill:rgb(169,191,229)"/><path d="M119.31050237893542,-55.01238016821305L114.85177811321142,-68.87982319655362L86.54121255059059,-61.62243190176882z" style="fill:rgb(193,166,229)"/><path d="M-105.14991502307169,52.4783265754429L-121.67218391637489,38.13153139309137L-111.93021143125426,57.67352317730774z" style="fill:rgb(47,97,221)"/><path d="M19.583602208877373,-116.65953774457915L1.9312971067118454,-140.84000543250198L6.8023257643075645,-111.24953790573468z" style="fill:rgb(129,208,225)"/><path d="M6.8023257643075645,-111.24953790573468L-16.39898395148927,-133.30543614490585L-32.71948932086867,-122.12876770805366z" style="fill:rgb(119,203,229)"/><path d="M-47.403356722168034,117.6618072446726L-60.70821297670234,100.06711387858313L-66.26747233494379,106.57486437006611z" style="fill:rgb(91,50,222)"/><path d="M36.953348537318014,102.32171160483531L-2.5669509649970457,127.12419080246976L28.43212502630904,131.44585592897806z" style="fill:rgb(139,53,230)"/><path d="M-60.70821297670234,100.06711387858313L-82.76626348382534,91.99199529078655L-66.26747233494379,106.57486437006611z" style="fill:rgb(74,63,223)"/><path d="M-121.67218391637489,38.13153139309137L-105.14991502307169,52.4783265754429L-119.62806532307751,23.500761741937z" style="fill:rgb(47,97,221)"/><path d="M-85.21805283865487,78.39306849935193L-111.93021143125426,57.67352317730774L-98.5237034172944,75.1165400118144z" style="fill:rgb(58,79,223)"/><path d="M61.68650845461426,-116.53932936024103L47.545102765409524,-119.31927335331997L58.82949960833309,-86.43050925569887z" style="fill:rgb(162,193,230)"/><path d="M-91.45808130633495,84.30951895484944L-85.21805283865487,78.39306849935193L-98.5237034172944,75.1165400118144z" style="fill:rgb(58,79,223)"/><path d="M-82.76626348382534,91.99199529078655L-85.21805283865487,78.39306849935193L-91.45808130633495,84.30951895484944z" style="fill:rgb(74,63,223)"/><path d="M-60.70821297670234,100.06711387858313L-47.403356722168034,117.6618072446726L-32.73248495466714,116.53934619971915z" style="fill:rgb(91,50,222)"/><path d="M121.12242887395477,-40.75040651201796L119.31050237893542,-55.01238016821305L89.71410457246294,-46.98079797035181z" style="fill:rgb(194,159,231)"/><path d="M-111.93021143125426,57.67352317730774L-85.21805283865487,78.39306849935193L-105.14991502307169,52.4783265754429z" style="fill:rgb(58,79,223)"/><path d="M-82.76626348382534,91.99199529078655L-60.70821297670234,100.06711387858313L-85.21805283865487,78.39306849935193z" style="fill:rgb(74,63,223)"/><path d="M-46.35962269021733,-107.65769433039583L-88.91186138743133,-95.5369448768595L-56.72427105471687,-90.38570999145226z" style="fill:rgb(83,193,227)"/><path d="M98.78766613489833,-93.49750684379539L72.43950790641192,-79.62524129610492L78.19215286448885,-74.47419769902866z" style="fill:rgb(181,184,227)"/><path d="M82.95158903459536,-68.39879363487701L98.78766613489833,-93.49750684379539L78.19215286448885,-74.47419769902866z" style="fill:rgb(186,178,227)"/><path d="M47.545102765409524,-119.31927335331997L33.33720969924983,-119.37063930684364L44.10828719997037,-87.78788915761818z" style="fill:rgb(155,193,232)"/><path d="M87.76771083271086,-103.38045271160901L65.90529924363682,-83.6612345960599L72.43950790641192,-79.62524129610492z" style="fill:rgb(175,188,228)"/><path d="M86.54121255059059,-61.62243190176882L114.85177811321142,-68.87982319655362L82.95158903459536,-68.39879363487701z" style="fill:rgb(190,172,228)"/><path d="M-63.32674213455392,-70.94357991932415L-88.91186138743133,-95.5369448768595L-97.450173289578,-71.24732606380239z" style="fill:rgb(77,180,232)"/><path d="M10.10879843517868,98.39611975900998L-32.73248495466714,116.53934619971915L-2.5669509649970457,127.12419080246976z" style="fill:rgb(120,58,234)"/><path d="M-4.509320936740894,-103.30507551948803L-32.71948932086867,-122.12876770805366L-46.35962269021733,-107.65769433039583z" style="fill:rgb(111,195,234)"/><path d="M-119.62806532307751,23.500761741937L-91.3514428346217,8.431508152211622L-128.06531222048437,-7.221985195033622z" style="fill:rgb(57,126,233)"/><path d="M65.90529924363682,-83.6612345960599L61.68650845461426,-116.53932936024103L58.82949960833309,-86.43050925569887z" style="fill:rgb(169,191,229)"/><path d="M88.8253504865566,-54.39417141206946L119.31050237893542,-55.01238016821305L86.54121255059059,-61.62243190176882z" style="fill:rgb(193,166,229)"/><path d="M6.8023257643075645,-111.24953790573468L-32.71948932086867,-122.12876770805366L-4.509320936740894,-103.30507551948803z" style="fill:rgb(119,203,229)"/><path d="M44.10828719997037,-87.78788915761818L33.33720969924983,-119.37063930684364L19.583602208877373,-116.65953774457915z" style="fill:rgb(148,193,234)"/><path d="M-128.06531222048437,-7.221985195033622L-98.80684269444966,-18.157370630790965L-100.8350652479728,-45.09898977723907z" style="fill:rgb(53,144,229)"/><path d="M89.71410457246294,-46.98079797035181L119.31050237893542,-55.01238016821305L88.8253504865566,-54.39417141206946z" style="fill:rgb(194,159,231)"/><path d="M58.82949960833309,-86.43050925569887L47.545102765409524,-119.31927335331997L51.47280169493572,-87.82567041818848z" style="fill:rgb(162,193,230)"/><path d="M-56.72427105471687,-90.38570999145226L-88.91186138743133,-95.5369448768595L-63.32674213455392,-70.94357991932415z" style="fill:rgb(77,180,232)"/><path d="M36.953348537318014,102.32171160483531L10.10879843517868,98.39611975900998L-2.5669509649970457,127.12419080246976z" style="fill:rgb(139,53,230)"/><path d="M-105.14991502307169,52.4783265754429L-91.3514428346217,8.431508152211622L-119.62806532307751,23.500761741937z" style="fill:rgb(64,108,236)"/><path d="M51.47280169493572,-87.82567041818848L47.545102765409524,-119.31927335331997L44.10828719997037,-87.78788915761818z" style="fill:rgb(155,193,232)"/><path d="M-15.989733211850831,89.09050813375045L-60.70821297670234,100.06711387858313L-32.73248495466714,116.53934619971915z" style="fill:rgb(103,66,236)"/><path d="M-100.8350652479728,-45.09898977723907L-63.32674213455392,-70.94357991932415L-97.450173289578,-71.24732606380239z" style="fill:rgb(74,165,237)"/><path d="M-91.3514428346217,8.431508152211622L-98.80684269444966,-18.157370630790965L-128.06531222048437,-7.221985195033622z" style="fill:rgb(57,126,233)"/><path d="M30.45514310403566,-83.43746707705387L19.583602208877373,-116.65953774457915L6.8023257643075645,-111.24953790573468z" style="fill:rgb(142,190,237)"/><path d="M-85.21805283865487,78.39306849935193L-61.41495696686486,55.93807195654983L-105.14991502307169,52.4783265754429z" style="fill:rgb(74,92,238)"/><path d="M-61.41495696686486,55.93807195654983L-85.21805283865487,78.39306849935193L-60.70821297670234,100.06711387858313z" style="fill:rgb(87,78,238)"/><path d="M-4.509320936740894,-103.30507551948803L-46.35962269021733,-107.65769433039583L-13.894418715199865,-93.09167458915515z" style="fill:rgb(111,195,234)"/><path d="M10.10879843517868,98.39611975900998L-15.989733211850831,89.09050813375045L-32.73248495466714,116.53934619971915z" style="fill:rgb(120,58,234)"/><path d="M44.10828719997037,-87.78788915761818L19.583602208877373,-116.65953774457915L37.012356951015974,-86.30988233767992z" style="fill:rgb(148,193,234)"/><path d="M-20.95697677703645,-80.97186607443173L-46.35962269021733,-107.65769433039583L-56.72427105471687,-90.38570999145226z" style="fill:rgb(105,186,238)"/><path d="M30.45514310403566,-83.43746707705387L6.8023257643075645,-111.24953790573468L-4.509320936740894,-103.30507551948803z" style="fill:rgb(136,187,239)"/><path d="M37.012356951015974,-86.30988233767992L19.583602208877373,-116.65953774457915L30.45514310403566,-83.43746707705387z" style="fill:rgb(142,190,237)"/><path d="M-13.894418715199865,-93.09167458915515L-46.35962269021733,-107.65769433039583L-20.95697677703645,-80.97186607443173z" style="fill:rgb(105,186,238)"/><path d="M-105.14991502307169,52.4783265754429L-78.71760302736197,33.502163569572815L-91.3514428346217,8.431508152211622z" style="fill:rgb(64,108,236)"/><path d="M-15.989733211850831,89.09050813375045L-40.191234360790915,74.74055485384707L-60.70821297670234,100.06711387858313z" style="fill:rgb(103,66,236)"/><path d="M78.19215286448885,-74.47419769902866L72.43950790641192,-79.62524129610492L53.190067914059256,-51.27352835394767z" style="fill:rgb(168,168,241)"/><path d="M53.190067914059256,-51.27352835394767L82.95158903459536,-68.39879363487701L78.19215286448885,-74.47419769902866z" style="fill:rgb(169,166,241)"/><path d="M72.43950790641192,-79.62524129610492L65.90529924363682,-83.6612345960599L53.190067914059256,-51.27352835394767z" style="fill:rgb(166,169,241)"/><path d="M53.190067914059256,-51.27352835394767L86.54121255059059,-61.62243190176882L82.95158903459536,-68.39879363487701z" style="fill:rgb(171,164,241)"/><path d="M-61.41495696686486,55.93807195654983L-78.71760302736197,33.502163569572815L-105.14991502307169,52.4783265754429z" style="fill:rgb(74,92,238)"/><path d="M-100.8350652479728,-45.09898977723907L-65.8208914468708,-50.08142171257761L-63.32674213455392,-70.94357991932415z" style="fill:rgb(74,165,237)"/><path d="M-40.191234360790915,74.74055485384707L-61.41495696686486,55.93807195654983L-60.70821297670234,100.06711387858313z" style="fill:rgb(87,78,238)"/><path d="M65.90529924363682,-83.6612345960599L58.82949960833309,-86.43050925569887L53.190067914059256,-51.27352835394767z" style="fill:rgb(163,170,241)"/><path d="M53.190067914059256,-51.27352835394767L88.8253504865566,-54.39417141206946L86.54121255059059,-61.62243190176882z" style="fill:rgb(171,161,241)"/><path d="M-98.80684269444966,-18.157370630790965L-64.02917104003524,-28.640592617678184L-100.8350652479728,-45.09898977723907z" style="fill:rgb(74,149,241)"/><path d="M58.82949960833309,-86.43050925569887L51.47280169493572,-87.82567041818848L53.190067914059256,-51.27352835394767z" style="fill:rgb(161,171,242)"/><path d="M89.71410457246294,-46.98079797035181L88.8253504865566,-54.39417141206946L53.190067914059256,-51.27352835394767z" style="fill:rgb(172,159,242)"/><path d="M36.953348537318014,102.32171160483531L22.759502680169263,64.19751031956106L10.10879843517868,98.39611975900998z" style="fill:rgb(145,74,242)"/><path d="M-25.38229636537469,-67.39620600819042L-56.72427105471687,-90.38570999145226L-63.32674213455392,-70.94357991932415z" style="fill:rgb(100,176,242)"/><path d="M53.190067914059256,-51.27352835394767L51.47280169493572,-87.82567041818848L44.10828719997037,-87.78788915761818z" style="fill:rgb(159,171,242)"/><path d="M30.45514310403566,-83.43746707705387L-4.509320936740894,-103.30507551948803L24.69056142090419,-79.26943843219851z" style="fill:rgb(136,187,239)"/><path d="M19.946307480753145,-73.95550879367147L-4.509320936740894,-103.30507551948803L-13.894418715199865,-93.09167458915515z" style="fill:rgb(131,182,242)"/><path d="M-64.02917104003524,-28.640592617678184L-65.8208914468708,-50.08142171257761L-100.8350652479728,-45.09898977723907z" style="fill:rgb(74,149,241)"/><path d="M53.190067914059256,-51.27352835394767L44.10828719997037,-87.78788915761818L37.012356951015974,-86.30988233767992z" style="fill:rgb(156,171,243)"/><path d="M-20.95697677703645,-80.97186607443173L-56.72427105471687,-90.38570999145226L-25.38229636537469,-67.39620600819042z" style="fill:rgb(100,176,242)"/><path d="M24.69056142090419,-79.26943843219851L-4.509320936740894,-103.30507551948803L19.946307480753145,-73.95550879367147z" style="fill:rgb(131,182,242)"/><path d="M-91.3514428346217,8.431508152211622L-64.02917104003524,-28.640592617678184L-98.80684269444966,-18.157370630790965z" style="fill:rgb(77,134,244)"/><path d="M44.10935439527916,67.4922370885233L22.759502680169263,64.19751031956106L36.953348537318014,102.32171160483531z" style="fill:rgb(145,74,242)"/><path d="M22.759502680169263,64.19751031956106L-15.989733211850831,89.09050813375045L10.10879843517868,98.39611975900998z" style="fill:rgb(130,78,245)"/><path d="M53.190067914059256,-51.27352835394767L37.012356951015974,-86.30988233767992L30.45514310403566,-83.43746707705387z" style="fill:rgb(154,170,244)"/><path d="M19.946307480753145,-73.95550879367147L-13.894418715199865,-93.09167458915515L-20.95697677703645,-80.97186607443173z" style="fill:rgb(127,177,244)"/><path d="M53.190067914059256,-51.27352835394767L30.45514310403566,-83.43746707705387L24.69056142090419,-79.26943843219851z" style="fill:rgb(152,169,245)"/><path d="M-26.95564779146014,-52.88867653796419L-63.32674213455392,-70.94357991932415L-65.8208914468708,-50.08142171257761z" style="fill:rgb(98,165,245)"/><path d="M-78.71760302736197,33.502163569572815L-47.83307937835562,12.389503816576239L-91.3514428346217,8.431508152211622z" style="fill:rgb(83,119,247)"/><path d="M53.190067914059256,-51.27352835394767L24.69056142090419,-79.26943843219851L19.946307480753145,-73.95550879367147z" style="fill:rgb(150,167,246)"/><path d="M-25.38229636537469,-67.39620600819042L-63.32674213455392,-70.94357991932415L-26.95564779146014,-52.88867653796419z" style="fill:rgb(98,165,245)"/><path d="M-15.989733211850831,89.09050813375045L-17.179245043259513,45.186447423947605L-40.191234360790915,74.74055485384707z" style="fill:rgb(116,85,247)"/><path d="M19.946307480753145,-73.95550879367147L-20.95697677703645,-80.97186607443173L16.414229158932386,-67.69217588299395z" style="fill:rgb(127,177,244)"/><path d="M16.414229158932386,-67.69217588299395L-20.95697677703645,-80.97186607443173L-25.38229636537469,-67.39620600819042z" style="fill:rgb(124,170,247)"/><path d="M-91.3514428346217,8.431508152211622L-57.96315074088757,-7.515941497780499L-64.02917104003524,-28.640592617678184z" style="fill:rgb(77,134,244)"/><path d="M-17.179245043259513,45.186447423947605L-61.41495696686486,55.93807195654983L-40.191234360790915,74.74055485384707z" style="fill:rgb(103,94,248)"/><path d="M-61.41495696686486,55.93807195654983L-34.044260817224,30.21403576121396L-78.71760302736197,33.502163569572815z" style="fill:rgb(92,106,248)"/><path d="M53.190067914059256,-51.27352835394767L19.946307480753145,-73.95550879367147L16.414229158932386,-67.69217588299395z" style="fill:rgb(149,165,247)"/><path d="M22.759502680169263,64.19751031956106L2.0331834668133446,56.67010293303348L-15.989733211850831,89.09050813375045z" style="fill:rgb(130,78,245)"/><path d="M-64.02917104003524,-28.640592617678184L-26.95564779146014,-52.88867653796419L-65.8208914468708,-50.08142171257761z" style="fill:rgb(98,153,248)"/><path d="M-47.83307937835562,12.389503816576239L-57.96315074088757,-7.515941497780499L-91.3514428346217,8.431508152211622z" style="fill:rgb(83,119,247)"/><path d="M49.414896633895815,28.7618196616356L22.759502680169263,64.19751031956106L44.10935439527916,67.4922370885233z" style="fill:rgb(150,97,249)"/><path d="M53.190067914059256,-51.27352835394767L16.414229158932386,-67.69217588299395L14.241528152946666,-60.716407112534206z" style="fill:rgb(148,163,247)"/><path d="M16.414229158932386,-67.69217588299395L-25.38229636537469,-67.39620600819042L14.241528152946666,-60.716407112534206z" style="fill:rgb(124,170,247)"/><path d="M2.0331834668133446,56.67010293303348L-17.179245043259513,45.186447423947605L-15.989733211850831,89.09050813375045z" style="fill:rgb(116,85,247)"/><path d="M53.190067914059256,-51.27352835394767L14.241528152946666,-60.716407112534206L13.523358509972079,-53.297119779120884z" style="fill:rgb(148,161,248)"/><path d="M14.241528152946666,-60.716407112534206L-25.38229636537469,-67.39620600819042L13.523358509972079,-53.297119779120884z" style="fill:rgb(123,164,249)"/><path d="M-78.71760302736197,33.502163569572815L-34.044260817224,30.21403576121396L-47.83307937835562,12.389503816576239z" style="fill:rgb(92,106,248)"/><path d="M13.523358509972079,-53.297119779120884L-25.38229636537469,-67.39620600819042L-26.95564779146014,-52.88867653796419z" style="fill:rgb(123,164,249)"/><path d="M-17.179245043259513,45.186447423947605L-34.044260817224,30.21403576121396L-61.41495696686486,55.93807195654983z" style="fill:rgb(103,94,248)"/><path d="M53.190067914059256,-51.27352835394767L13.523358509972079,-53.297119779120884L14.297360469235157,-45.72480766603202z" style="fill:rgb(148,158,249)"/><path d="M52.50568611227524,-11.63481421405743L53.190067914059256,-51.27352835394767L44.977859526750976,-12.933237223082571z" style="fill:rgb(159,147,249)"/><path d="M-64.02917104003524,-28.640592617678184L-25.57758171622575,-38.02660047369862L-26.95564779146014,-52.88867653796419z" style="fill:rgb(98,153,248)"/><path d="M49.414896633895815,28.7618196616356L34.62735314424173,26.34780907958951L22.759502680169263,64.19751031956106z" style="fill:rgb(150,97,249)"/><path d="M53.190067914059256,-51.27352835394767L14.297360469235157,-45.72480766603202L16.540625027025374,-38.299574604991484z" style="fill:rgb(148,156,249)"/><path d="M-57.96315074088757,-7.515941497780499L-21.27408577340853,-23.41565061339579L-64.02917104003524,-28.640592617678184z" style="fill:rgb(100,142,251)"/><path d="M44.977859526750976,-12.933237223082571L53.190067914059256,-51.27352835394767L37.70055963213901,-15.68271709031405z" style="fill:rgb(156,147,249)"/><path d="M22.759502680169263,64.19751031956106L20.299264933457867,21.040543056769586L2.0331834668133446,56.67010293303348z" style="fill:rgb(139,101,251)"/><path d="M53.190067914059256,-51.27352835394767L16.540625027025374,-38.299574604991484L20.16947948124548,-31.318190053735588z" style="fill:rgb(149,154,250)"/><path d="M13.523358509972079,-53.297119779120884L-26.95564779146014,-52.88867653796419L-25.57758171622575,-38.02660047369862z" style="fill:rgb(123,156,251)"/><path d="M37.70055963213901,-15.68271709031405L53.190067914059256,-51.27352835394767L30.96516300769442,-19.778895617851823z" style="fill:rgb(154,148,250)"/><path d="M49.414896633895815,28.7618196616356L52.50568611227524,-11.63481421405743L44.977859526750976,-12.933237223082571z" style="fill:rgb(155,122,251)"/><path d="M53.190067914059256,-51.27352835394767L20.16947948124548,-31.318190053735588L25.042277362764462,-25.060927215943558z" style="fill:rgb(150,152,250)"/><path d="M30.96516300769442,-19.778895617851823L53.190067914059256,-51.27352835394767L25.042277362764462,-25.060927215943558z" style="fill:rgb(152,150,250)"/><path d="M-21.27408577340853,-23.41565061339579L-25.57758171622575,-38.02660047369862L-64.02917104003524,-28.640592617678184z" style="fill:rgb(100,142,251)"/><path d="M14.297360469235157,-45.72480766603202L13.523358509972079,-53.297119779120884L-25.57758171622575,-38.02660047369862z" style="fill:rgb(123,156,251)"/><path d="M34.62735314424173,26.34780907958951L20.299264933457867,21.040543056769586L22.759502680169263,64.19751031956106z" style="fill:rgb(139,101,251)"/><path d="M49.414896633895815,28.7618196616356L44.977859526750976,-12.933237223082571L34.62735314424173,26.34780907958951z" style="fill:rgb(155,122,251)"/><path d="M20.299264933457867,21.040543056769586L-17.179245043259513,45.186447423947605L2.0331834668133446,56.67010293303348z" style="fill:rgb(129,106,253)"/><path d="M-47.83307937835562,12.389503816576239L-14.200149220300457,-9.661246253210034L-57.96315074088757,-7.515941497780499z" style="fill:rgb(105,131,252)"/><path d="M16.540625027025374,-38.299574604991484L14.297360469235157,-45.72480766603202L-25.57758171622575,-38.02660047369862z" style="fill:rgb(124,149,252)"/><path d="M34.62735314424173,26.34780907958951L44.977859526750976,-12.933237223082571L20.299264933457867,21.040543056769586z" style="fill:rgb(148,124,253)"/><path d="M16.540625027025374,-38.299574604991484L-25.57758171622575,-38.02660047369862L-21.27408577340853,-23.41565061339579z" style="fill:rgb(124,149,252)"/><path d="M-34.044260817224,30.21403576121396L-14.200149220300457,-9.661246253210034L-47.83307937835562,12.389503816576239z" style="fill:rgb(111,121,253)"/><path d="M-57.96315074088757,-7.515941497780499L-14.200149220300457,-9.661246253210034L-21.27408577340853,-23.41565061339579z" style="fill:rgb(105,131,252)"/><path d="M20.299264933457867,21.040543056769586L44.977859526750976,-12.933237223082571L37.70055963213901,-15.68271709031405z" style="fill:rgb(148,124,253)"/><path d="M-4.6356857462869225,2.6616972210680787L-34.044260817224,30.21403576121396L-17.179245043259513,45.186447423947605z" style="fill:rgb(119,113,253)"/><path d="M20.16947948124548,-31.318190053735588L16.540625027025374,-38.299574604991484L-14.200149220300457,-9.661246253210034z" style="fill:rgb(127,143,254)"/><path d="M20.299264933457867,21.040543056769586L7.026375803684775,13.038365686956535L-17.179245043259513,45.186447423947605z" style="fill:rgb(129,106,253)"/><path d="M7.026375803684775,13.038365686956535L37.70055963213901,-15.68271709031405L30.96516300769442,-19.778895617851823z" style="fill:rgb(142,127,254)"/><path d="M16.540625027025374,-38.299574604991484L-21.27408577340853,-23.41565061339579L-14.200149220300457,-9.661246253210034z" style="fill:rgb(127,143,254)"/><path d="M25.042277362764462,-25.060927215943558L20.16947948124548,-31.318190053735588L-14.200149220300457,-9.661246253210034z" style="fill:rgb(131,137,254)"/><path d="M7.026375803684775,13.038365686956535L30.96516300769442,-19.778895617851823L25.042277362764462,-25.060927215943558z" style="fill:rgb(136,131,254)"/><path d="M20.299264933457867,21.040543056769586L37.70055963213901,-15.68271709031405L7.026375803684775,13.038365686956535z" style="fill:rgb(142,127,254)"/><path d="M7.026375803684775,13.038365686956535L-4.6356857462869225,2.6616972210680787L-17.179245043259513,45.186447423947605z" style="fill:rgb(119,113,253)"/><path d="M-34.044260817224,30.21403576121396L-4.6356857462869225,2.6616972210680787L-14.200149220300457,-9.661246253210034z" style="fill:rgb(111,121,253)"/><path d="M25.042277362764462,-25.060927215943558L-14.200149220300457,-9.661246253210034L-4.6356857462869225,2.6616972210680787z" style="fill:rgb(131,137,254)"/><path d="M7.026375803684775,13.038365686956535L25.042277362764462,-25.060927215943558L-4.6356857462869225,2.6616972210680787z" style="fill:rgb(136,131,254)"/></svg>
