solid JSxCAD
facet normal -0.9198726582703264 -0.2827978152863329 -0.2717713896567489
  outer loop
    vertex -37.423 -9.654 74.671
    vertex -32.786 5.0360000000000005 43.69
    vertex -30.778000000000002 -14.769 57.502
  endloop
endfacet
facet normal -0.7338710436711308 -0.6741765079563328 -0.08318249443753345
  outer loop
    vertex -37.423 -9.654 74.671
    vertex -30.778000000000002 -14.769 57.502
    vertex -25.512 -24.015 85.98
  endloop
endfacet
facet normal -0.9554193536245329 0.295236852596489 -0.0030099150484018122
  outer loop
    vertex -37.423 -9.654 74.671
    vertex -30.333000000000002 13.244 70.156
    vertex -32.786 5.0360000000000005 43.69
  endloop
endfacet
facet normal -0.9434200001930243 0.31345012231272634 0.10820223684347262
  outer loop
    vertex -37.423 -9.654 74.671
    vertex -28.833000000000002 12.065 86.65
    vertex -30.333000000000002 13.244 70.156
  endloop
endfacet
facet normal -0.9190508631485669 0.1664385137843935 0.3572726298992358
  outer loop
    vertex -37.423 -9.654 74.671
    vertex -26.717000000000002 -11.3 102.97800000000001
    vertex -28.833000000000002 12.065 86.65
  endloop
endfacet
facet normal -0.8362648231163987 -0.4658620057775363 0.28919498126874393
  outer loop
    vertex -37.423 -9.654 74.671
    vertex -25.512 -24.015 85.98
    vertex -26.717000000000002 -11.3 102.97800000000001
  endloop
endfacet
facet normal -0.9690779031895127 0.2258067129890389 -0.09949545677518952
  outer loop
    vertex -33.246 39.379 70.379
    vertex -31.661 49.448 77.793
    vertex -29.588 50.824 60.725
  endloop
endfacet
facet normal -0.9179045682461391 -0.0396546120185703 -0.3948147861194229
  outer loop
    vertex -33.246 39.379 70.379
    vertex -29.588 50.824 60.725
    vertex -22.357 43.194 44.68
  endloop
endfacet
facet normal -0.9608887189552199 -0.23879407011583603 -0.14025071073655912
  outer loop
    vertex -33.246 39.379 70.379
    vertex -29.419 29.609 60.794000000000004
    vertex -28.833000000000002 12.065 86.65
  endloop
endfacet
facet normal -0.9483835954988307 0.034560938757685115 0.31523657354580215
  outer loop
    vertex -33.246 39.379 70.379
    vertex -28.833000000000002 12.065 86.65
    vertex -24.067 31.196 98.891
  endloop
endfacet
facet normal -0.955126213216616 -0.06279027367804318 0.2894672664705351
  outer loop
    vertex -33.246 39.379 70.379
    vertex -24.067 31.196 98.891
    vertex -31.661 49.448 77.793
  endloop
endfacet
facet normal -0.9216111308649537 0.01929111876957557 -0.3876348490557049
  outer loop
    vertex -33.246 39.379 70.379
    vertex -22.357 43.194 44.68
    vertex -29.419 29.609 60.794000000000004
  endloop
endfacet
facet normal -0.9413683655727206 0.3369394443765326 -0.017245611678859577
  outer loop
    vertex -32.786 5.0360000000000005 43.69
    vertex -30.333000000000002 13.244 70.156
    vertex -28.367 17.330000000000002 42.671
  endloop
endfacet
facet normal -0.6084019945171257 -0.78776897981458 0.09626550529384462
  outer loop
    vertex -32.786 5.0360000000000005 43.69
    vertex -30.056 -1.913 4.078
    vertex -27.657 -1.1480000000000001 25.5
  endloop
endfacet
facet normal -0.9407316999748417 0.33267079305858144 -0.06598493849522519
  outer loop
    vertex -32.786 5.0360000000000005 43.69
    vertex -28.367 17.330000000000002 42.671
    vertex -27.864 14.258000000000001 20.012
  endloop
endfacet
facet normal -0.9653548355508069 0.23745654390928556 -0.10818701970815242
  outer loop
    vertex -32.786 5.0360000000000005 43.69
    vertex -27.864 14.258000000000001 20.012
    vertex -30.056 -1.913 4.078
  endloop
endfacet
facet normal -0.9543020144329022 -0.22990472199060957 -0.19092271749513084
  outer loop
    vertex -32.786 5.0360000000000005 43.69
    vertex -27.657 -1.1480000000000001 25.5
    vertex -30.778000000000002 -14.769 57.502
  endloop
endfacet
facet normal -0.9848512616139335 0.13508061321050943 -0.1087254359941424
  outer loop
    vertex -31.661 49.448 77.793
    vertex -28.746000000000002 61.686 66.593
    vertex -29.588 50.824 60.725
  endloop
endfacet
facet normal -0.9058346893049628 0.09919001876996089 0.4118553821770408
  outer loop
    vertex -31.661 49.448 77.793
    vertex -24.067 31.196 98.891
    vertex -19.217 53.286 104.238
  endloop
endfacet
facet normal -0.8173895330019552 0.48260420695795775 0.31459105321882
  outer loop
    vertex -31.661 49.448 77.793
    vertex -19.217 53.286 104.238
    vertex -28.746000000000002 61.686 66.593
  endloop
endfacet
facet normal -0.8957073508377644 -0.424604152234236 0.1319835427643907
  outer loop
    vertex -31.143 72.111 83.864
    vertex -28.746000000000002 61.686 66.593
    vertex -19.217 53.286 104.238
  endloop
endfacet
facet normal -0.992851179055539 -0.045420673443755694 -0.11037888689392457
  outer loop
    vertex -31.143 72.111 83.864
    vertex -27.13 85.915 42.087
    vertex -28.746000000000002 61.686 66.593
  endloop
endfacet
facet normal -0.9655730001203301 0.2600426351443545 -0.00682710376403811
  outer loop
    vertex -31.143 72.111 83.864
    vertex -25.783 91.813 76.231
    vertex -27.13 85.915 42.087
  endloop
endfacet
facet normal -0.8272912713858154 0.07800368360846605 0.5563313559672433
  outer loop
    vertex -31.143 72.111 83.864
    vertex -19.217 53.286 104.238
    vertex -15.515 65.953 107.967
  endloop
endfacet
facet normal -0.7755437684834112 0.2683628561611267 0.5714133710367582
  outer loop
    vertex -31.143 72.111 83.864
    vertex -15.515 65.953 107.967
    vertex -12.098 86.176 103.107
  endloop
endfacet
facet normal -0.7806738071421525 0.39879558173906227 0.48115537077702897
  outer loop
    vertex -31.143 72.111 83.864
    vertex -12.098 86.176 103.107
    vertex -25.783 91.813 76.231
  endloop
endfacet
facet normal -0.3323533497627189 -0.8557039446880942 -0.39662578073889065
  outer loop
    vertex -30.778000000000002 -14.769 57.502
    vertex -27.657 -1.1480000000000001 25.5
    vertex -21.900000000000002 -6.985 33.269
  endloop
endfacet
facet normal -0.47023285343370014 -0.7754574948625612 -0.42136295187531736
  outer loop
    vertex -30.778000000000002 -14.769 57.502
    vertex -21.900000000000002 -6.985 33.269
    vertex -17.198 -20.444 52.791000000000004
  endloop
endfacet
facet normal -0.4772400118522823 -0.668859869377588 -0.5699723205765604
  outer loop
    vertex -30.778000000000002 -14.769 57.502
    vertex -17.198 -20.444 52.791000000000004
    vertex -13.673 -28.937 59.806000000000004
  endloop
endfacet
facet normal -0.6210753025185696 -0.7719017604535404 -0.13576870335313718
  outer loop
    vertex -30.778000000000002 -14.769 57.502
    vertex -13.673 -28.937 59.806000000000004
    vertex -25.512 -24.015 85.98
  endloop
endfacet
facet normal -0.9304812682736446 -0.14137156101303278 -0.3379625587673992
  outer loop
    vertex -30.333000000000002 13.244 70.156
    vertex -29.419 29.609 60.794000000000004
    vertex -23.537 20.433 48.438
  endloop
endfacet
facet normal -0.9889613625508764 0.11123440551750052 0.09788937843648896
  outer loop
    vertex -30.333000000000002 13.244 70.156
    vertex -28.833000000000002 12.065 86.65
    vertex -29.419 29.609 60.794000000000004
  endloop
endfacet
facet normal -0.6010572208820113 0.7956516738170536 0.07529031264189373
  outer loop
    vertex -30.333000000000002 13.244 70.156
    vertex -23.537 20.433 48.438
    vertex -28.367 17.330000000000002 42.671
  endloop
endfacet
facet normal -0.9263076682315871 0.32059040346383105 -0.19792902006087448
  outer loop
    vertex -30.056 -1.913 4.078
    vertex -27.864 14.258000000000001 20.012
    vertex -23.286 15.72 0.9550000000000001
  endloop
endfacet
facet normal -0.4255135658308577 0.0030952267117567555 -0.9049467525028811
  outer loop
    vertex -30.056 -1.913 4.078
    vertex -23.286 15.72 0.9550000000000001
    vertex -21.444 -13.773 -0.012
  endloop
endfacet
facet normal -0.366988558273113 -0.9272605048476603 0.07421155062578937
  outer loop
    vertex -30.056 -1.913 4.078
    vertex -22.529 -4.276 11.775
    vertex -27.657 -1.1480000000000001 25.5
  endloop
endfacet
facet normal -0.824439936407253 -0.5350462253503797 -0.18445684588844985
  outer loop
    vertex -30.056 -1.913 4.078
    vertex -21.444 -13.773 -0.012
    vertex -21.366 -16.243000000000002 6.804
  endloop
endfacet
facet normal -0.7242658907634436 -0.3233597072518654 0.6089970600935799
  outer loop
    vertex -30.056 -1.913 4.078
    vertex -21.366 -16.243000000000002 6.804
    vertex -22.529 -4.276 11.775
  endloop
endfacet
facet normal -0.8243465067461987 0.31719929221934 -0.4688682606349986
  outer loop
    vertex -29.588 50.824 60.725
    vertex -28.746000000000002 61.686 66.593
    vertex -15.692 58.038000000000004 41.174
  endloop
endfacet
facet normal -0.8300546490102175 0.2556312303087021 -0.495642970037288
  outer loop
    vertex -29.588 50.824 60.725
    vertex -15.692 58.038000000000004 41.174
    vertex -22.357 43.194 44.68
  endloop
endfacet
facet normal -0.9088475625757572 -0.02166045222088445 -0.41656564045741007
  outer loop
    vertex -29.419 29.609 60.794000000000004
    vertex -22.357 43.194 44.68
    vertex -23.537 20.433 48.438
  endloop
endfacet
facet normal -0.9658719637497741 0.08380175605437355 0.2450889947026556
  outer loop
    vertex -28.833000000000002 12.065 86.65
    vertex -26.717000000000002 -11.3 102.97800000000001
    vertex -24.067 31.196 98.891
  endloop
endfacet
facet normal -0.9954800821104611 -0.02599305516075861 -0.09134422370768538
  outer loop
    vertex -28.746000000000002 61.686 66.593
    vertex -27.13 85.915 42.087
    vertex -25.919 68.855 33.744
  endloop
endfacet
facet normal -0.630596780768465 -0.7451860513824861 -0.21689962865211976
  outer loop
    vertex -28.746000000000002 61.686 66.593
    vertex -25.919 68.855 33.744
    vertex -15.692 58.038000000000004 41.174
  endloop
endfacet
facet normal -0.0732408731934021 0.9025590140198797 -0.42429117443723763
  outer loop
    vertex -28.367 17.330000000000002 42.671
    vertex -23.537 20.433 48.438
    vertex -7.7330000000000005 17.478 39.424
  endloop
endfacet
facet normal -0.543817456393955 0.8299040776495259 -0.1245865001591201
  outer loop
    vertex -28.367 17.330000000000002 42.671
    vertex -21.233 19.412 25.400000000000002
    vertex -27.864 14.258000000000001 20.012
  endloop
endfacet
facet normal 0.1827247729867196 0.9642897872131843 0.1917207959854735
  outer loop
    vertex -28.367 17.330000000000002 42.671
    vertex -12.257 15.81 34.962
    vertex -21.233 19.412 25.400000000000002
  endloop
endfacet
facet normal -0.054190308680588245 0.9520923310926214 -0.3009711008049126
  outer loop
    vertex -28.367 17.330000000000002 42.671
    vertex -7.7330000000000005 17.478 39.424
    vertex -12.257 15.81 34.962
  endloop
endfacet
facet normal -0.5731974276469919 0.8159687055758233 -0.07509847175400529
  outer loop
    vertex -27.864 14.258000000000001 20.012
    vertex -21.233 19.412 25.400000000000002
    vertex -23.286 15.72 0.9550000000000001
  endloop
endfacet
facet normal -0.6581286304577367 -0.7491447205670568 -0.07515912065963727
  outer loop
    vertex -27.657 -1.1480000000000001 25.5
    vertex -22.529 -4.276 11.775
    vertex -21.900000000000002 -6.985 33.269
  endloop
endfacet
facet normal -0.5518456283262239 0.8251557360378997 -0.12076594628034414
  outer loop
    vertex -27.13 85.915 42.087
    vertex -25.783 91.813 76.231
    vertex -14.290000000000001 94.952 45.161
  endloop
endfacet
facet normal -0.989274220023439 0.0012081664437537405 -0.1460652523047849
  outer loop
    vertex -27.13 85.915 42.087
    vertex -24.387 82.996 23.485
    vertex -25.919 68.855 33.744
  endloop
endfacet
facet normal -0.7422069619963456 0.6366349425964165 -0.20934367778706
  outer loop
    vertex -27.13 85.915 42.087
    vertex -20.6 91.571 36.136
    vertex -24.387 82.996 23.485
  endloop
endfacet
facet normal -0.5898003830352444 0.7996311531570663 0.1128074779089547
  outer loop
    vertex -27.13 85.915 42.087
    vertex -14.290000000000001 94.952 45.161
    vertex -20.6 91.571 36.136
  endloop
endfacet
facet normal -0.744357386485206 -0.5589689514404287 0.3653570753530047
  outer loop
    vertex -26.717000000000002 -11.3 102.97800000000001
    vertex -25.512 -24.015 85.98
    vertex -15.775 -24.269000000000002 105.429
  endloop
endfacet
facet normal -0.5054638452853679 -0.27168784165101045 0.818957885247065
  outer loop
    vertex -26.717000000000002 -11.3 102.97800000000001
    vertex -15.775 -24.269000000000002 105.429
    vertex -8.297 -5.69 116.208
  endloop
endfacet
facet normal -0.5658682124891319 0.11382247955610794 0.8166012547394561
  outer loop
    vertex -26.717000000000002 -11.3 102.97800000000001
    vertex -9.831 14.02 111.15
    vertex -24.067 31.196 98.891
  endloop
endfacet
facet normal -0.6068054111576253 0.1529371940212621 0.7799983382512605
  outer loop
    vertex -26.717000000000002 -11.3 102.97800000000001
    vertex -8.297 -5.69 116.208
    vertex -9.831 14.02 111.15
  endloop
endfacet
facet normal -0.9930336806821166 0.02387158366297619 -0.11538741926375562
  outer loop
    vertex -25.919 68.855 33.744
    vertex -24.387 82.996 23.485
    vertex -23.04 77.27 10.708
  endloop
endfacet
facet normal -0.5513426117575856 -0.759061441598494 -0.3461893301919344
  outer loop
    vertex -25.919 68.855 33.744
    vertex -23.04 77.27 10.708
    vertex -15.692 58.038000000000004 41.174
  endloop
endfacet
facet normal -0.546874774454353 0.7188125214724402 0.42922784164116545
  outer loop
    vertex -25.783 91.813 76.231
    vertex -12.098 86.176 103.107
    vertex -12.045 98.82900000000001 81.985
  endloop
endfacet
facet normal -0.4308595814805202 0.8998177457109539 -0.06846930370675663
  outer loop
    vertex -25.783 91.813 76.231
    vertex -12.045 98.82900000000001 81.985
    vertex -14.290000000000001 94.952 45.161
  endloop
endfacet
facet normal -0.9591342022438804 0.12983077801968307 0.25140714223108135
  outer loop
    vertex -25.67 78.60300000000001 -0.014
    vertex -23.04 77.27 10.708
    vertex -21.731 92.25 7.966
  endloop
endfacet
facet normal -0.251374993885235 0.5416149268523734 -0.8021620057444109
  outer loop
    vertex -25.67 78.60300000000001 -0.014
    vertex -21.731 92.25 7.966
    vertex -12.462 94.28 6.432
  endloop
endfacet
facet normal -0.9154658889667242 -0.3599923697053142 0.1797990542030684
  outer loop
    vertex -25.67 78.60300000000001 -0.014
    vertex -17.652 61.504 6.575
    vertex -23.04 77.27 10.708
  endloop
endfacet
facet normal -0.8151785751634467 -0.4969209757483957 -0.29757929103980846
  outer loop
    vertex -25.67 78.60300000000001 -0.014
    vertex -14.946 60.967 0.059000000000000004
    vertex -17.652 61.504 6.575
  endloop
endfacet
facet normal -0.033496969176736814 0.4040810593170027 -0.914109649088785
  outer loop
    vertex -25.67 78.60300000000001 -0.014
    vertex -12.462 94.28 6.432
    vertex -5.986 80.237 -0.013000000000000001
  endloop
endfacet
facet normal 0.00037545432370179996 -0.00391092449566968 -0.9999922818220349
  outer loop
    vertex -25.67 78.60300000000001 -0.014
    vertex -5.986 80.237 -0.013000000000000001
    vertex -14.946 60.967 0.059000000000000004
  endloop
endfacet
facet normal -0.8671924310788838 -0.2985639628828237 0.39854340735633703
  outer loop
    vertex -25.512 -24.015 85.98
    vertex -20.481 -37.672000000000004 86.696
    vertex -8.368 -45.522 107.172
  endloop
endfacet
facet normal -0.8788767790138141 -0.3412401585608242 -0.33336280760709774
  outer loop
    vertex -25.512 -24.015 85.98
    vertex -13.673 -28.937 59.806000000000004
    vertex -20.481 -37.672000000000004 86.696
  endloop
endfacet
facet normal -0.8634281263560408 -0.2657515003480759 0.428798333345692
  outer loop
    vertex -25.512 -24.015 85.98
    vertex -8.368 -45.522 107.172
    vertex -15.775 -24.269000000000002 105.429
  endloop
endfacet
facet normal -0.9892679555650953 0.06224893106709678 -0.1321891927241434
  outer loop
    vertex -24.387 82.996 23.485
    vertex -21.731 92.25 7.966
    vertex -23.04 77.27 10.708
  endloop
endfacet
facet normal -0.9370937232290513 0.34603849626462535 0.0459642577186981
  outer loop
    vertex -24.387 82.996 23.485
    vertex -20.6 91.571 36.136
    vertex -21.731 92.25 7.966
  endloop
endfacet
facet normal -0.6733932023360018 -0.030943105627920058 0.7386366625491616
  outer loop
    vertex -24.067 31.196 98.891
    vertex -9.831 14.02 111.15
    vertex -19.217 53.286 104.238
  endloop
endfacet
facet normal -0.96915510993957 -0.09750339199513686 0.22634367989290732
  outer loop
    vertex -23.548000000000002 -60.581 85.455
    vertex -21.852 -79.268 84.667
    vertex -20.267 -67.565 96.495
  endloop
endfacet
facet normal -0.8301625108137711 0.32550359483554003 0.45263408553545326
  outer loop
    vertex -23.548000000000002 -60.581 85.455
    vertex -20.267 -67.565 96.495
    vertex -18.615000000000002 -56.741 91.741
  endloop
endfacet
facet normal -0.7277885836568484 0.6658017987997678 0.16441332736050313
  outer loop
    vertex -23.548000000000002 -60.581 85.455
    vertex -18.615000000000002 -56.741 91.741
    vertex -16.490000000000002 -49.407000000000004 71.44800000000001
  endloop
endfacet
facet normal -0.9064911880847846 0.04653085957637101 -0.4196529578493636
  outer loop
    vertex -23.548000000000002 -60.581 85.455
    vertex -16.490000000000002 -49.407000000000004 71.44800000000001
    vertex -15.964 -67.1 68.35000000000001
  endloop
endfacet
facet normal -0.9213649760232754 -0.06747960809931415 -0.3827963994715627
  outer loop
    vertex -23.548000000000002 -60.581 85.455
    vertex -15.964 -67.1 68.35000000000001
    vertex -21.852 -79.268 84.667
  endloop
endfacet
facet normal -0.6185708071962476 -0.0966750474106798 -0.7797589959036866
  outer loop
    vertex -23.537 20.433 48.438
    vertex -22.357 43.194 44.68
    vertex -8.839 37.672000000000004 34.641
  endloop
endfacet
facet normal -0.5141224886278308 -0.22424435156362543 -0.8278843744623611
  outer loop
    vertex -23.537 20.433 48.438
    vertex -8.839 37.672000000000004 34.641
    vertex -7.7330000000000005 17.478 39.424
  endloop
endfacet
facet normal -0.4388705015716015 -0.8876517075536323 0.13952465347533308
  outer loop
    vertex -23.359 -64.22 108.05
    vertex -20.267 -67.565 96.495
    vertex -10.844 -70.385 108.194
  endloop
endfacet
facet normal -0.9633754882395399 0.029996634108220704 -0.26647302040057597
  outer loop
    vertex -23.359 -64.22 108.05
    vertex -18.615000000000002 -56.741 91.741
    vertex -20.267 -67.565 96.495
  endloop
endfacet
facet normal -0.7429796778334455 0.6634848805237074 0.08814199704426681
  outer loop
    vertex -23.359 -64.22 108.05
    vertex -14.382 -53.447 102.627
    vertex -18.615000000000002 -56.741 91.741
  endloop
endfacet
facet normal -0.11835991451380398 -0.21764208562229087 0.9688255019363727
  outer loop
    vertex -23.359 -64.22 108.05
    vertex -10.844 -70.385 108.194
    vertex -8.471 -60.854 110.625
  endloop
endfacet
facet normal -0.266233668295467 0.6011456982439686 0.7534875469101733
  outer loop
    vertex -23.359 -64.22 108.05
    vertex -8.471 -60.854 110.625
    vertex -14.382 -53.447 102.627
  endloop
endfacet
facet normal 0.12089651696016412 0.9799838842113224 -0.15816326650961005
  outer loop
    vertex -23.286 15.72 0.9550000000000001
    vertex -21.233 19.412 25.400000000000002
    vertex -13.042 14.836 3.3080000000000003
  endloop
endfacet
facet normal 0.23104621863719008 0.5603957772216827 -0.7953453449449251
  outer loop
    vertex -23.286 15.72 0.9550000000000001
    vertex -13.042 14.836 3.3080000000000003
    vertex -9.261000000000001 8.595 0.009000000000000001
  endloop
endfacet
facet normal -0.05236394023154196 0.029457794494980108 -0.9981934963256969
  outer loop
    vertex -23.286 15.72 0.9550000000000001
    vertex -9.261000000000001 8.595 0.009000000000000001
    vertex -21.444 -13.773 -0.012
  endloop
endfacet
facet normal -0.6669882034294021 -0.3937551860599149 0.6325216122291318
  outer loop
    vertex -23.04 77.27 10.708
    vertex -17.652 61.504 6.575
    vertex -12.615 72.515 18.741
  endloop
endfacet
facet normal 0.03133192535613396 -0.8417667316151111 -0.5389314242085828
  outer loop
    vertex -23.04 77.27 10.708
    vertex -12.615 72.515 18.741
    vertex -15.692 58.038000000000004 41.174
  endloop
endfacet
facet normal 0.0014455226651539105 -0.3834921909072323 0.9235429876174662
  outer loop
    vertex -22.529 -4.276 11.775
    vertex -21.366 -16.243000000000002 6.804
    vertex -12.302 -1.7690000000000001 12.8
  endloop
endfacet
facet normal 0.24822854132837452 -0.9601702926887364 -0.128279383799634
  outer loop
    vertex -22.529 -4.276 11.775
    vertex -12.302 -1.7690000000000001 12.8
    vertex -21.900000000000002 -6.985 33.269
  endloop
endfacet
facet normal -0.5771208390028141 0.06689068851413008 -0.8139147209498018
  outer loop
    vertex -22.357 43.194 44.68
    vertex -15.692 58.038000000000004 41.174
    vertex -8.839 37.672000000000004 34.641
  endloop
endfacet
facet normal 0.4854745913511943 -0.8742372455444891 0.00486411915719911
  outer loop
    vertex -21.900000000000002 -6.985 33.269
    vertex -12.302 -1.7690000000000001 12.8
    vertex -10.658 -0.718 37.615
  endloop
endfacet
facet normal 0.5580898640740345 -0.6142399473240003 -0.5578933506766637
  outer loop
    vertex -21.900000000000002 -6.985 33.269
    vertex -10.658 -0.718 37.615
    vertex -17.198 -20.444 52.791000000000004
  endloop
endfacet
facet normal -0.7775756941835907 -0.3362438736482118 -0.5313342613166896
  outer loop
    vertex -21.852 -79.268 84.667
    vertex -15.964 -67.1 68.35000000000001
    vertex -12.19 -87.028 75.438
  endloop
endfacet
facet normal -0.5337201647885542 -0.833624286372421 0.14217360819839353
  outer loop
    vertex -21.852 -79.268 84.667
    vertex -12.19 -87.028 75.438
    vertex 1.079 -93.033 90.04
  endloop
endfacet
facet normal -0.7555113158789453 -0.41226871029340795 0.5091533777673236
  outer loop
    vertex -21.852 -79.268 84.667
    vertex -10.844 -70.385 108.194
    vertex -20.267 -67.565 96.495
  endloop
endfacet
facet normal -0.7829906503670467 -0.3645674229794034 0.5040002336705272
  outer loop
    vertex -21.852 -79.268 84.667
    vertex -9.622 -87.806 97.491
    vertex -10.844 -70.385 108.194
  endloop
endfacet
facet normal -0.4939151679869013 -0.8633001967720887 -0.10373320146290683
  outer loop
    vertex -21.852 -79.268 84.667
    vertex 1.079 -93.033 90.04
    vertex -9.622 -87.806 97.491
  endloop
endfacet
facet normal -0.20878243074177516 0.9774403231727233 0.03194231127451889
  outer loop
    vertex -21.731 92.25 7.966
    vertex -20.6 91.571 36.136
    vertex -12.462 94.28 6.432
  endloop
endfacet
facet normal 0.865499915351195 -0.4676864197405667 -0.1793859228516128
  outer loop
    vertex -21.444 -13.773 -0.012
    vertex -12.302 -1.7690000000000001 12.8
    vertex -21.366 -16.243000000000002 6.804
  endloop
endfacet
facet normal 0.0853248404758066 -0.960639519968656 0.264369786988166
  outer loop
    vertex -21.444 -13.773 -0.012
    vertex -10.556000000000001 -12.815 -0.045
    vertex -8.222 -12.005 2.145
  endloop
endfacet
facet normal -0.0032701528165512126 0.0027199607383888874 -0.999990953916153
  outer loop
    vertex -21.444 -13.773 -0.012
    vertex -9.261000000000001 8.595 0.009000000000000001
    vertex -10.556000000000001 -12.815 -0.045
  endloop
endfacet
facet normal -0.015677658639122315 -0.7240476593214401 0.6895717497481597
  outer loop
    vertex -21.444 -13.773 -0.012
    vertex -8.222 -12.005 2.145
    vertex -12.302 -1.7690000000000001 12.8
  endloop
endfacet
facet normal 0.4069133873242782 0.9126687378829079 -0.03817420735918096
  outer loop
    vertex -21.233 19.412 25.400000000000002
    vertex -12.257 15.81 34.962
    vertex -13.042 14.836 3.3080000000000003
  endloop
endfacet
facet normal -0.4314860288663981 0.9014007627394582 -0.03600655254018143
  outer loop
    vertex -20.6 91.571 36.136
    vertex -14.290000000000001 94.952 45.161
    vertex -12.462 94.28 6.432
  endloop
endfacet
facet normal -0.93245109190207 0.004334497496835866 0.36127022205281095
  outer loop
    vertex -20.481 -37.672000000000004 86.696
    vertex -18.615000000000002 -56.741 91.741
    vertex -14.382 -53.447 102.627
  endloop
endfacet
facet normal -0.9790444957930473 -0.13592471545124846 -0.15164546477502977
  outer loop
    vertex -20.481 -37.672000000000004 86.696
    vertex -16.490000000000002 -49.407000000000004 71.44800000000001
    vertex -18.615000000000002 -56.741 91.741
  endloop
endfacet
facet normal -0.7804688095754893 0.2684579680744574 0.5646226675020692
  outer loop
    vertex -20.481 -37.672000000000004 86.696
    vertex -14.382 -53.447 102.627
    vertex -8.368 -45.522 107.172
  endloop
endfacet
facet normal -0.9687967023274858 -0.007576889906753663 -0.24774087329048042
  outer loop
    vertex -20.481 -37.672000000000004 86.696
    vertex -13.673 -28.937 59.806000000000004
    vertex -16.490000000000002 -49.407000000000004 71.44800000000001
  endloop
endfacet
facet normal -0.3457376089143541 0.08190036705203826 0.9347501461133486
  outer loop
    vertex -19.217 53.286 104.238
    vertex -9.831 14.02 111.15
    vertex 1.724 35.464 113.545
  endloop
endfacet
facet normal -0.4831172798532759 -0.11435078963585701 0.8680562140880206
  outer loop
    vertex -19.217 53.286 104.238
    vertex 1.724 35.464 113.545
    vertex -15.515 65.953 107.967
  endloop
endfacet
facet normal 0.6786209827619909 -0.6533029474365616 0.3356617652129165
  outer loop
    vertex -17.652 61.504 6.575
    vertex -14.946 60.967 0.059000000000000004
    vertex -7.694 72.261 7.3790000000000004
  endloop
endfacet
facet normal 0.6855671646792726 -0.6579373457811718 0.3116345804625182
  outer loop
    vertex -17.652 61.504 6.575
    vertex -7.694 72.261 7.3790000000000004
    vertex -12.615 72.515 18.741
  endloop
endfacet
facet normal -0.06747533588823044 -0.5942262558096676 -0.8014625605436565
  outer loop
    vertex -17.198 -20.444 52.791000000000004
    vertex -10.658 -0.718 37.615
    vertex -0.394 -9.86 43.529
  endloop
endfacet
facet normal -0.018812421805642424 -0.6413470709459098 -0.7670202261837094
  outer loop
    vertex -17.198 -20.444 52.791000000000004
    vertex -0.394 -9.86 43.529
    vertex -13.673 -28.937 59.806000000000004
  endloop
endfacet
facet normal -0.2863743027413766 -0.44358663650594704 -0.8492471104706398
  outer loop
    vertex -16.490000000000002 -49.407000000000004 71.44800000000001
    vertex -13.673 -28.937 59.806000000000004
    vertex -3.368 -39.011 61.593
  endloop
endfacet
facet normal -0.6519316914365226 0.11193645000004608 -0.7499701999827074
  outer loop
    vertex -16.490000000000002 -49.407000000000004 71.44800000000001
    vertex -3.368 -39.011 61.593
    vertex -15.964 -67.1 68.35000000000001
  endloop
endfacet
facet normal -0.5709610459180875 -0.3689810316050765 -0.7333869935850901
  outer loop
    vertex -15.964 -67.1 68.35000000000001
    vertex -5.804 -82.754 68.316
    vertex -12.19 -87.028 75.438
  endloop
endfacet
facet normal -0.18271723556026398 -0.1517372294758826 -0.9713857241179727
  outer loop
    vertex -15.964 -67.1 68.35000000000001
    vertex -3.368 -39.011 61.593
    vertex 8.457 -65.977 63.581
  endloop
endfacet
facet normal -0.18509285478716297 -0.11801282015078236 -0.9756093528594308
  outer loop
    vertex -15.964 -67.1 68.35000000000001
    vertex 8.457 -65.977 63.581
    vertex -5.804 -82.754 68.316
  endloop
endfacet
facet normal -0.33154379326960676 -0.038238389291176754 0.9426645950330459
  outer loop
    vertex -15.775 -24.269000000000002 105.429
    vertex -8.368 -45.522 107.172
    vertex 0.47400000000000003 -23.848 111.161
  endloop
endfacet
facet normal -0.29789415745163017 -0.38650316994721756 0.8728541519503333
  outer loop
    vertex -15.775 -24.269000000000002 105.429
    vertex 0.47400000000000003 -23.848 111.161
    vertex -8.297 -5.69 116.208
  endloop
endfacet
facet normal 0.37151719986238846 -0.8024752542435041 -0.4669137356442124
  outer loop
    vertex -15.692 58.038000000000004 41.174
    vertex -12.615 72.515 18.741
    vertex -5.197 64.935 37.671
  endloop
endfacet
facet normal -0.40243725409052344 0.1540522196342695 -0.9023924701291751
  outer loop
    vertex -15.692 58.038000000000004 41.174
    vertex -5.197 64.935 37.671
    vertex -8.839 37.672000000000004 34.641
  endloop
endfacet
facet normal -0.25848470021125286 0.030493966254119282 0.9655339340379453
  outer loop
    vertex -15.515 65.953 107.967
    vertex 1.724 35.464 113.545
    vertex 3.878 73.607 112.917
  endloop
endfacet
facet normal -0.3378224520052549 0.2735113811403356 0.9005928687858145
  outer loop
    vertex -15.515 65.953 107.967
    vertex 3.878 73.607 112.917
    vertex -12.098 86.176 103.107
  endloop
endfacet
facet normal 0.8801142966619482 -0.41012163226818876 -0.23916327384638444
  outer loop
    vertex -14.946 60.967 0.059000000000000004
    vertex -5.986 80.237 -0.013000000000000001
    vertex -7.694 72.261 7.3790000000000004
  endloop
endfacet
facet normal -0.718948191112431 0.15730707512819422 0.6770287900900346
  outer loop
    vertex -14.382 -53.447 102.627
    vertex -8.471 -60.854 110.625
    vertex -8.368 -45.522 107.172
  endloop
endfacet
facet normal -0.03724320041572883 0.9940471744138414 -0.10238729932297291
  outer loop
    vertex -14.290000000000001 94.952 45.161
    vertex -12.045 98.82900000000001 81.985
    vertex -7.135 97.806 70.267
  endloop
endfacet
facet normal 0.41196249943166924 0.8847433890163692 -0.21798173009186284
  outer loop
    vertex -14.290000000000001 94.952 45.161
    vertex -7.135 97.806 70.267
    vertex -3.607 92.065 53.633
  endloop
endfacet
facet normal 0.6753065459905996 0.7372902897316832 0.019081341923909926
  outer loop
    vertex -14.290000000000001 94.952 45.161
    vertex -6.9910000000000005 88.493 36.414
    vertex -12.462 94.28 6.432
  endloop
endfacet
facet normal 0.44154315613064504 0.8573294100227692 -0.26462411829649907
  outer loop
    vertex -14.290000000000001 94.952 45.161
    vertex -3.607 92.065 53.633
    vertex -6.9910000000000005 88.493 36.414
  endloop
endfacet
facet normal -0.32203707215377597 -0.4747203089506944 -0.8191048482510532
  outer loop
    vertex -13.673 -28.937 59.806000000000004
    vertex -0.394 -9.86 43.529
    vertex -3.368 -39.011 61.593
  endloop
endfacet
facet normal 0.8737227975928716 0.48504581572741806 -0.036592753542329826
  outer loop
    vertex -13.042 14.836 3.3080000000000003
    vertex -12.257 15.81 34.962
    vertex -8.302 6.41 4.796
  endloop
endfacet
facet normal 0.866283804202812 0.4967138816667645 0.05317603158792181
  outer loop
    vertex -13.042 14.836 3.3080000000000003
    vertex -8.302 6.41 4.796
    vertex -9.261000000000001 8.595 0.009000000000000001
  endloop
endfacet
facet normal 0.8866331199916161 -0.24921508109546137 0.38958125453942855
  outer loop
    vertex -12.615 72.515 18.741
    vertex -7.694 72.261 7.3790000000000004
    vertex -6.664 86.063 13.864
  endloop
endfacet
facet normal 0.7255106367606499 -0.4919350216676303 -0.4812839602604939
  outer loop
    vertex -12.615 72.515 18.741
    vertex -6.664 86.063 13.864
    vertex -5.197 64.935 37.671
  endloop
endfacet
facet normal 0.8356482456889994 0.5472627990097853 -0.04685550444582951
  outer loop
    vertex -12.462 94.28 6.432
    vertex -6.9910000000000005 88.493 36.414
    vertex -6.664 86.063 13.864
  endloop
endfacet
facet normal 0.8679335308840049 0.4716721367790344 -0.15561741982671412
  outer loop
    vertex -12.462 94.28 6.432
    vertex -6.664 86.063 13.864
    vertex -5.986 80.237 -0.013000000000000001
  endloop
endfacet
facet normal 0.8822402541708323 -0.46921641878141 -0.03857572120562507
  outer loop
    vertex -12.302 -1.7690000000000001 12.8
    vertex -8.302 6.41 4.796
    vertex -10.658 -0.718 37.615
  endloop
endfacet
facet normal 0.914143714646686 -0.05387059822333055 0.40179500696128473
  outer loop
    vertex -12.302 -1.7690000000000001 12.8
    vertex -8.222 -12.005 2.145
    vertex -8.302 6.41 4.796
  endloop
endfacet
facet normal 0.9892608659178082 0.11097408986721684 0.09511934893433313
  outer loop
    vertex -12.257 15.81 34.962
    vertex -10.658 -0.718 37.615
    vertex -8.302 6.41 4.796
  endloop
endfacet
facet normal 0.7097371389857754 -0.04419163259096496 -0.7030791514141428
  outer loop
    vertex -12.257 15.81 34.962
    vertex -7.7330000000000005 17.478 39.424
    vertex -10.658 -0.718 37.615
  endloop
endfacet
facet normal -0.7283638691355179 -0.05039299695032731 -0.6833349251986922
  outer loop
    vertex -12.19 -87.028 75.438
    vertex -5.804 -82.754 68.316
    vertex -4.746 -99.741 68.441
  endloop
endfacet
facet normal -0.7643112070922528 -0.19178132204399087 0.6156689883600136
  outer loop
    vertex -12.19 -87.028 75.438
    vertex -5.1850000000000005 -103.308 79.063
    vertex 1.079 -93.033 90.04
  endloop
endfacet
facet normal -0.8887694800092226 -0.42216820896212304 -0.17850158191413618
  outer loop
    vertex -12.19 -87.028 75.438
    vertex -4.746 -99.741 68.441
    vertex -5.1850000000000005 -103.308 79.063
  endloop
endfacet
facet normal -0.4714342187086993 0.7570640687344259 0.4523314860384966
  outer loop
    vertex -12.098 86.176 103.107
    vertex 0.19 95.229 100.762
    vertex -12.045 98.82900000000001 81.985
  endloop
endfacet
facet normal -0.17277985972949522 0.46010761420306145 0.8708892601382927
  outer loop
    vertex -12.098 86.176 103.107
    vertex 3.878 73.607 112.917
    vertex 0.19 95.229 100.762
  endloop
endfacet
facet normal -0.5668500013765114 0.7655401676922351 -0.3043506654981938
  outer loop
    vertex -12.045 98.82900000000001 81.985
    vertex -0.08600000000000001 105.552 76.622
    vertex -7.135 97.806 70.267
  endloop
endfacet
facet normal -0.32046978042105767 0.8696344836823743 0.37554624832018924
  outer loop
    vertex -12.045 98.82900000000001 81.985
    vertex 0.19 95.229 100.762
    vertex -0.08600000000000001 105.552 76.622
  endloop
endfacet
facet normal -0.16772474027246248 -0.5245713046280629 0.8346815907047112
  outer loop
    vertex -10.844 -70.385 108.194
    vertex -9.622 -87.806 97.491
    vertex 6.05 -87.21600000000001 101.011
  endloop
endfacet
facet normal 0.13054710778429973 -0.27542879361495337 0.9524161024977296
  outer loop
    vertex -10.844 -70.385 108.194
    vertex 6.05 -87.21600000000001 101.011
    vertex -8.471 -60.854 110.625
  endloop
endfacet
facet normal 0.5026705129225966 0.005138600426376232 -0.8644628102028401
  outer loop
    vertex -10.658 -0.718 37.615
    vertex -7.7330000000000005 17.478 39.424
    vertex -0.394 -9.86 43.529
  endloop
endfacet
facet normal 0.40383149830329396 -0.9100113709586963 -0.09380525413851086
  outer loop
    vertex -10.556000000000001 -12.815 -0.045
    vertex -9.697000000000001 -12.447000000000001 0.083
    vertex -8.222 -12.005 2.145
  endloop
endfacet
facet normal 0.22827834991440493 -0.20155002244542125 -0.9525054243481275
  outer loop
    vertex -10.556000000000001 -12.815 -0.045
    vertex -9.481 -12.174 0.077
    vertex -9.697000000000001 -12.447000000000001 0.083
  endloop
endfacet
facet normal 0.11539715601081511 -0.00447457318393797 -0.9933093549239518
  outer loop
    vertex -10.556000000000001 -12.815 -0.045
    vertex -9.261000000000001 8.595 0.009000000000000001
    vertex -9.481 -12.174 0.077
  endloop
endfacet
facet normal -0.2460052841410812 0.22292067920140488 0.9432856253325662
  outer loop
    vertex -9.831 14.02 111.15
    vertex -8.297 -5.69 116.208
    vertex 0.203 6.4830000000000005 115.548
  endloop
endfacet
facet normal -0.34724703337552376 0.08278493030079917 0.9341124948992973
  outer loop
    vertex -9.831 14.02 111.15
    vertex 0.203 6.4830000000000005 115.548
    vertex 1.724 35.464 113.545
  endloop
endfacet
facet normal 0.773304926735308 -0.6152154959002584 -0.15332770099071813
  outer loop
    vertex -9.697000000000001 -12.447000000000001 0.083
    vertex -9.586 -12.3 0.053
    vertex -9.481 -12.174 0.077
  endloop
endfacet
facet normal 0.7179444422035988 -0.5766145771501824 -0.38996334100384356
  outer loop
    vertex -9.697000000000001 -12.447000000000001 0.083
    vertex -9.481 -12.174 0.077
    vertex -8.222 -12.005 2.145
  endloop
endfacet
facet normal -0.07848466783725172 -0.8656133228384602 0.4945237428466264
  outer loop
    vertex -9.622 -87.806 97.491
    vertex 1.079 -93.033 90.04
    vertex 6.05 -87.21600000000001 101.011
  endloop
endfacet
facet normal 0.8544993361007649 -0.010751844362763439 -0.519341200412745
  outer loop
    vertex -9.481 -12.174 0.077
    vertex -9.261000000000001 8.595 0.009000000000000001
    vertex -8.222 -12.005 2.145
  endloop
endfacet
facet normal 0.9826564781419772 0.030598044698878234 -0.1828934269628386
  outer loop
    vertex -9.261000000000001 8.595 0.009000000000000001
    vertex -8.302 6.41 4.796
    vertex -8.222 -12.005 2.145
  endloop
endfacet
facet normal 0.006080360276219687 0.10965510609332087 -0.993951098860791
  outer loop
    vertex -8.839 37.672000000000004 34.641
    vertex -5.197 64.935 37.671
    vertex 8.147 36.712 34.639
  endloop
endfacet
facet normal -0.013177876361097343 -0.23113931775242305 -0.9728314136393602
  outer loop
    vertex -8.839 37.672000000000004 34.641
    vertex 8.147 36.712 34.639
    vertex -7.7330000000000005 17.478 39.424
  endloop
endfacet
facet normal -0.08755214475118656 -0.3835148684084755 0.919375313818626
  outer loop
    vertex -8.471 -60.854 110.625
    vertex 6.05 -87.21600000000001 101.011
    vertex 10.821 -68.854 109.125
  endloop
endfacet
facet normal 0.05154283740278289 0.21909044401311759 0.9743421951525066
  outer loop
    vertex -8.471 -60.854 110.625
    vertex 8.032 -55.424 108.531
    vertex -8.368 -45.522 107.172
  endloop
endfacet
facet normal 0.10434695364756197 0.06556187371439189 0.992377626702422
  outer loop
    vertex -8.471 -60.854 110.625
    vertex 10.821 -68.854 109.125
    vertex 8.032 -55.424 108.531
  endloop
endfacet
facet normal -0.15271853861930204 -0.11827699755007862 0.9811664485766537
  outer loop
    vertex -8.368 -45.522 107.172
    vertex 8.032 -55.424 108.531
    vertex 0.47400000000000003 -23.848 111.161
  endloop
endfacet
facet normal 0.04106338865984821 -0.2491096065039274 0.9676043623605822
  outer loop
    vertex -8.297 -5.69 116.208
    vertex 0.47400000000000003 -23.848 111.161
    vertex 9.842 -5.92 115.379
  endloop
endfacet
facet normal 0.04592324423634224 0.022081246491469225 0.9987008932569311
  outer loop
    vertex -8.297 -5.69 116.208
    vertex 9.842 -5.92 115.379
    vertex 0.203 6.4830000000000005 115.548
  endloop
endfacet
facet normal 0.03201405673749191 -0.1400062923289953 -0.9896329310807602
  outer loop
    vertex -7.7330000000000005 17.478 39.424
    vertex 4.071 16.346 39.966
    vertex -0.394 -9.86 43.529
  endloop
endfacet
facet normal 0.01975141531668239 -0.25669897230488026 -0.9662895628177954
  outer loop
    vertex -7.7330000000000005 17.478 39.424
    vertex 8.147 36.712 34.639
    vertex 4.071 16.346 39.966
  endloop
endfacet
facet normal 0.9878470410438469 -0.12008553055688867 0.09867972867710355
  outer loop
    vertex -7.694 72.261 7.3790000000000004
    vertex -5.986 80.237 -0.013000000000000001
    vertex -6.664 86.063 13.864
  endloop
endfacet
facet normal 0.015125251948504018 0.6259400193872188 -0.7797245147377517
  outer loop
    vertex -7.135 97.806 70.267
    vertex -0.08600000000000001 105.552 76.622
    vertex 8.739 99.276 71.755
  endloop
endfacet
facet normal -0.05554042670075209 0.9401322447401065 -0.3362538080108932
  outer loop
    vertex -7.135 97.806 70.267
    vertex 8.739 99.276 71.755
    vertex -3.607 92.065 53.633
  endloop
endfacet
facet normal 0.822258368763343 0.503141114546865 -0.2659702875345002
  outer loop
    vertex -6.9910000000000005 88.493 36.414
    vertex -3.607 92.065 53.633
    vertex -1.492 79.64 36.667
  endloop
endfacet
facet normal 0.8491974259226074 0.5262064812620715 -0.044389986305548815
  outer loop
    vertex -6.9910000000000005 88.493 36.414
    vertex -1.492 79.64 36.667
    vertex -6.664 86.063 13.864
  endloop
endfacet
facet normal 0.9258693518314837 -0.2524708091736503 -0.2811128489670127
  outer loop
    vertex -6.664 86.063 13.864
    vertex -1.492 79.64 36.667
    vertex -5.197 64.935 37.671
  endloop
endfacet
facet normal -0.022676153168479724 -0.00876873026030172 -0.9997044070359506
  outer loop
    vertex -5.804 -82.754 68.316
    vertex 5.579 -87.337 68.098
    vertex -4.746 -99.741 68.441
  endloop
endfacet
facet normal -0.09658620356048082 -0.19345360071382892 -0.9763435920067421
  outer loop
    vertex -5.804 -82.754 68.316
    vertex 8.457 -65.977 63.581
    vertex 5.579 -87.337 68.098
  endloop
endfacet
facet normal 0.24611387108384736 -0.12760957577083828 -0.9608037045264294
  outer loop
    vertex -5.197 64.935 37.671
    vertex -1.492 79.64 36.667
    vertex 0.737 76.613 37.64
  endloop
endfacet
facet normal -0.179501324748913 0.08861006462626438 -0.979758914662334
  outer loop
    vertex -5.197 64.935 37.671
    vertex 0.737 76.613 37.64
    vertex 8.708 63.802 35.021
  endloop
endfacet
facet normal -0.1974954813300612 -0.5863934788825866 -0.7855814552152978
  outer loop
    vertex -5.197 64.935 37.671
    vertex 8.708 63.802 35.021
    vertex 20.227 48.156 43.804
  endloop
endfacet
facet normal 0.39647658065598274 0.2813368420599241 -0.8738740769075882
  outer loop
    vertex -5.197 64.935 37.671
    vertex 20.227 48.156 43.804
    vertex 8.147 36.712 34.639
  endloop
endfacet
facet normal -0.17028575092248321 -0.9319851633557364 -0.32001002846402715
  outer loop
    vertex -5.1850000000000005 -103.308 79.063
    vertex -4.746 -99.741 68.441
    vertex 7.034 -103.935 74.387
  endloop
endfacet
facet normal 0.19369207489195256 -0.7689577379145162 0.6092514894733047
  outer loop
    vertex -5.1850000000000005 -103.308 79.063
    vertex 7.034 -103.935 74.387
    vertex 1.079 -93.033 90.04
  endloop
endfacet
facet normal 0.3394248283591987 -0.3071200197569865 -0.8890827179502461
  outer loop
    vertex -4.746 -99.741 68.441
    vertex 5.579 -87.337 68.098
    vertex 7.034 -103.935 74.387
  endloop
endfacet
facet normal -0.36369497686940644 0.7293422806364727 -0.5794702766112776
  outer loop
    vertex -3.607 92.065 53.633
    vertex 5.247 88.628 43.75
    vertex -1.492 79.64 36.667
  endloop
endfacet
facet normal -0.029744935082595708 0.9355288401546004 -0.3519957784916185
  outer loop
    vertex -3.607 92.065 53.633
    vertex 8.739 99.276 71.755
    vertex 5.247 88.628 43.75
  endloop
endfacet
facet normal 0.25672384603130133 -0.5278725770504776 -0.8095945956322733
  outer loop
    vertex -3.368 -39.011 61.593
    vertex -0.394 -9.86 43.529
    vertex 16.133 -28.05 60.63
  endloop
endfacet
facet normal 0.48815296692884214 0.1506868758367131 -0.8596511771231049
  outer loop
    vertex -3.368 -39.011 61.593
    vertex 4.684 -51.073 64.051
    vertex 8.457 -65.977 63.581
  endloop
endfacet
facet normal 0.04664231385696348 -0.16947163167189536 -0.9844307292118293
  outer loop
    vertex -3.368 -39.011 61.593
    vertex 16.133 -28.05 60.63
    vertex 4.684 -51.073 64.051
  endloop
endfacet
facet normal 0.5884647850694777 0.17995670753172743 -0.7882415747392888
  outer loop
    vertex -1.492 79.64 36.667
    vertex 5.247 88.628 43.75
    vertex 0.737 76.613 37.64
  endloop
endfacet
facet normal -0.21642390213946516 -0.09523140262488482 -0.9716438002358808
  outer loop
    vertex -0.394 -9.86 43.529
    vertex 4.071 16.346 39.966
    vertex 9.867 -1.448 40.419000000000004
  endloop
endfacet
facet normal 0.21477625067236303 -0.5582639163810496 -0.8013816580219532
  outer loop
    vertex -0.394 -9.86 43.529
    vertex 9.867 -1.448 40.419000000000004
    vertex 16.133 -28.05 60.63
  endloop
endfacet
facet normal 0.26421866584399967 0.8878714605934679 0.37666001391604964
  outer loop
    vertex -0.08600000000000001 105.552 76.622
    vertex 0.19 95.229 100.762
    vertex 11.31 96.955 88.893
  endloop
endfacet
facet normal 0.5872575078384614 0.8091151012013224 0.02147958322065502
  outer loop
    vertex -0.08600000000000001 105.552 76.622
    vertex 11.31 96.955 88.893
    vertex 8.739 99.276 71.755
  endloop
endfacet
facet normal 0.3642896551400701 0.5028052546886794 0.7838876979615008
  outer loop
    vertex 0.19 95.229 100.762
    vertex 3.878 73.607 112.917
    vertex 16.353 83.765 100.604
  endloop
endfacet
facet normal 0.48549829593755933 0.6768744568311009 0.5532923046015804
  outer loop
    vertex 0.19 95.229 100.762
    vertex 16.353 83.765 100.604
    vertex 11.31 96.955 88.893
  endloop
endfacet
facet normal 0.3304362325876596 0.2443769480012158 0.9116423659960549
  outer loop
    vertex 0.203 6.4830000000000005 115.548
    vertex 9.842 -5.92 115.379
    vertex 14.598 15.333 107.958
  endloop
endfacet
facet normal 0.4475568617695165 0.0382602250383085 0.8934366293493007
  outer loop
    vertex 0.203 6.4830000000000005 115.548
    vertex 14.598 15.333 107.958
    vertex 1.724 35.464 113.545
  endloop
endfacet
facet normal 0.43145510631320594 0.02816953263232929 0.9016944985234945
  outer loop
    vertex 0.47400000000000003 -23.848 111.161
    vertex 8.032 -55.424 108.531
    vertex 14.314 -29.621000000000002 104.71900000000001
  endloop
endfacet
facet normal 0.2702579864977812 -0.35205183297125514 0.8961139032710879
  outer loop
    vertex 0.47400000000000003 -23.848 111.161
    vertex 14.314 -29.621000000000002 104.71900000000001
    vertex 9.842 -5.92 115.379
  endloop
endfacet
facet normal -0.9213769738399744 0.38208392554614573 -0.07124848010125268
  outer loop
    vertex 0.737 76.613 37.64
    vertex 5.247 88.628 43.75
    vertex 6.574 86.435 14.829
  endloop
endfacet
facet normal -0.8148389362550055 -0.42679794175276264 -0.39227671977625284
  outer loop
    vertex 0.737 76.613 37.64
    vertex 6.574 86.435 14.829
    vertex 8.708 63.802 35.021
  endloop
endfacet
facet normal 0.8158629833540118 -0.2804258703618256 0.5056964738106291
  outer loop
    vertex 1.079 -93.033 90.04
    vertex 7.034 -103.935 74.387
    vertex 12.436 -85.73 75.767
  endloop
endfacet
facet normal 0.5664116168887731 -0.8236020432411674 0.029284033574970076
  outer loop
    vertex 1.079 -93.033 90.04
    vertex 12.436 -85.73 75.767
    vertex 21.304000000000002 -79.135 89.724
  endloop
endfacet
facet normal 0.5593667954667486 -0.8100135011925277 0.17603100867484467
  outer loop
    vertex 1.079 -93.033 90.04
    vertex 21.304000000000002 -79.135 89.724
    vertex 6.05 -87.21600000000001 101.011
  endloop
endfacet
facet normal 0.4335949539096309 0.027317352343278103 0.9006937205316012
  outer loop
    vertex 1.724 35.464 113.545
    vertex 14.598 15.333 107.958
    vertex 18.486 53.854 104.918
  endloop
endfacet
facet normal 0.46785573155002375 -0.011870641145312033 0.8837251282693003
  outer loop
    vertex 1.724 35.464 113.545
    vertex 18.486 53.854 104.918
    vertex 3.878 73.607 112.917
  endloop
endfacet
facet normal 0.6272794802038337 0.15481442842210297 0.76325156171969
  outer loop
    vertex 3.878 73.607 112.917
    vertex 18.486 53.854 104.918
    vertex 16.353 83.765 100.604
  endloop
endfacet
facet normal 0.3690635703282183 -0.30362346282955094 -0.8784104245032504
  outer loop
    vertex 4.071 16.346 39.966
    vertex 8.147 36.712 34.639
    vertex 21.69 19.643 46.229
  endloop
endfacet
facet normal -0.5053641860980577 -0.18606227640612957 -0.8426077786894782
  outer loop
    vertex 4.071 16.346 39.966
    vertex 11.995000000000001 15.447000000000001 35.412
    vertex 9.867 -1.448 40.419000000000004
  endloop
endfacet
facet normal -0.06859763812890507 0.9493107568382579 -0.3067628579119539
  outer loop
    vertex 4.071 16.346 39.966
    vertex 21.69 19.643 46.229
    vertex 11.995000000000001 15.447000000000001 35.412
  endloop
endfacet
facet normal 0.5043057396257343 -0.3669351149198602 -0.7816868570081567
  outer loop
    vertex 4.684 -51.073 64.051
    vertex 16.133 -28.05 60.63
    vertex 16.984 -53.929 73.327
  endloop
endfacet
facet normal 0.6186077759695792 0.18071561105018208 -0.764634741188713
  outer loop
    vertex 4.684 -51.073 64.051
    vertex 16.984 -53.929 73.327
    vertex 8.457 -65.977 63.581
  endloop
endfacet
facet normal -0.8293672102554293 0.05927055536579114 0.5555511063977439
  outer loop
    vertex 4.9190000000000005 78.977 0.004
    vertex 6.114 63.708 3.4170000000000003
    vertex 12.798 72.016 12.509
  endloop
endfacet
facet normal -0.8572253275265177 0.49204710007277197 -0.1518367187376954
  outer loop
    vertex 4.9190000000000005 78.977 0.004
    vertex 6.574 86.435 14.829
    vertex 12.744 94.522 6.202
  endloop
endfacet
facet normal -0.6543985529674057 -0.21336520465631426 -0.7254225136540322
  outer loop
    vertex 4.9190000000000005 78.977 0.004
    vertex 10.176 62.738 0.038
    vertex 6.114 63.708 3.4170000000000003
  endloop
endfacet
facet normal -0.52017543589341 0.5291397408943607 -0.6703943992153795
  outer loop
    vertex 4.9190000000000005 78.977 0.004
    vertex 12.744 94.522 6.202
    vertex 13.533 87.44 0
  endloop
endfacet
facet normal -0.855197585820401 -0.41837398103026696 0.30594166307295206
  outer loop
    vertex 4.9190000000000005 78.977 0.004
    vertex 12.798 72.016 12.509
    vertex 6.574 86.435 14.829
  endloop
endfacet
facet normal 0.00033477961460175935 -0.0008133983283458363 -0.9999996131528097
  outer loop
    vertex 4.9190000000000005 78.977 0.004
    vertex 13.533 87.44 0
    vertex 26.914 70.818 0.018000000000000002
  endloop
endfacet
facet normal -0.00015928184103293692 -0.0021452839441334203 -0.9999976861903702
  outer loop
    vertex 4.9190000000000005 78.977 0.004
    vertex 26.914 70.818 0.018000000000000002
    vertex 10.176 62.738 0.038
  endloop
endfacet
facet normal -0.5504342839242211 0.8008669414226557 -0.23586911882896083
  outer loop
    vertex 5.247 88.628 43.75
    vertex 8.739 99.276 71.755
    vertex 15.083 92.636 34.405
  endloop
endfacet
facet normal -0.44646228207155453 0.8904640605610505 -0.08800674710830664
  outer loop
    vertex 5.247 88.628 43.75
    vertex 15.083 92.636 34.405
    vertex 6.574 86.435 14.829
  endloop
endfacet
facet normal 0.7487690670030854 -0.23217604157966107 -0.6208374747192122
  outer loop
    vertex 5.579 -87.337 68.098
    vertex 8.457 -65.977 63.581
    vertex 12.436 -85.73 75.767
  endloop
endfacet
facet normal 0.7519064780444998 -0.17493096421421117 -0.6356381093309326
  outer loop
    vertex 5.579 -87.337 68.098
    vertex 12.436 -85.73 75.767
    vertex 7.034 -103.935 74.387
  endloop
endfacet
facet normal 0.6730233710605354 -0.43817442542642365 0.5958546088674117
  outer loop
    vertex 6.05 -87.21600000000001 101.011
    vertex 21.304000000000002 -79.135 89.724
    vertex 10.821 -68.854 109.125
  endloop
endfacet
facet normal -0.32167238803032455 -0.9395989765717833 -0.11696425951599779
  outer loop
    vertex 6.114 63.708 3.4170000000000003
    vertex 10.176 62.738 0.038
    vertex 20.211000000000002 58.733000000000004 4.613
  endloop
endfacet
facet normal -0.27551068183307753 -0.6001503075686634 0.7509417237849494
  outer loop
    vertex 6.114 63.708 3.4170000000000003
    vertex 20.211000000000002 58.733000000000004 4.613
    vertex 12.798 72.016 12.509
  endloop
endfacet
facet normal -0.8954602430455764 -0.34036928301640884 -0.28687925038882345
  outer loop
    vertex 6.574 86.435 14.829
    vertex 12.798 72.016 12.509
    vertex 8.708 63.802 35.021
  endloop
endfacet
facet normal -0.7329630899342748 0.6720022858818814 0.10572623403643205
  outer loop
    vertex 6.574 86.435 14.829
    vertex 15.083 92.636 34.405
    vertex 12.744 94.522 6.202
  endloop
endfacet
facet normal -0.925259094014334 0.36930123109277024 -0.08667300420048947
  outer loop
    vertex 6.673 -1.216 0.11800000000000001
    vertex 8.935 7.3500000000000005 12.469
    vertex 12.968 14.528 0
  endloop
endfacet
facet normal -0.8598854859707348 -0.21146863793484766 0.4646266955167921
  outer loop
    vertex 6.673 -1.216 0.11800000000000001
    vertex 9.345 -12.415000000000001 -0.034
    vertex 13.99 -3.744 12.509
  endloop
endfacet
facet normal -0.032980648945781996 0.005696093342506065 -0.9994397587227299
  outer loop
    vertex 6.673 -1.216 0.11800000000000001
    vertex 12.968 14.528 0
    vertex 9.345 -12.415000000000001 -0.034
  endloop
endfacet
facet normal -0.8293391129891764 -0.3764009048053258 0.4129394562500152
  outer loop
    vertex 6.673 -1.216 0.11800000000000001
    vertex 13.99 -3.744 12.509
    vertex 8.935 7.3500000000000005 12.469
  endloop
endfacet
facet normal 0.5223173753286214 0.14563187308962083 0.8402237303065347
  outer loop
    vertex 8.032 -55.424 108.531
    vertex 10.821 -68.854 109.125
    vertex 17.028 -55.316 102.92
  endloop
endfacet
facet normal 0.4477976589506755 0.5192136602117342 0.7279384807027504
  outer loop
    vertex 8.032 -55.424 108.531
    vertex 17.028 -55.316 102.92
    vertex 20.061 -37.886 88.622
  endloop
endfacet
facet normal 0.9008769518606572 -0.15969732227988015 0.40363037901387855
  outer loop
    vertex 8.032 -55.424 108.531
    vertex 20.061 -37.886 88.622
    vertex 14.314 -29.621000000000002 104.71900000000001
  endloop
endfacet
facet normal 0.6297475413594898 -0.0436223365854644 -0.7755740621646022
  outer loop
    vertex 8.147 36.712 34.639
    vertex 20.227 48.156 43.804
    vertex 25.448 29.458000000000002 49.095
  endloop
endfacet
facet normal 0.6364898987040191 -0.018549721523932503 -0.7710619408835664
  outer loop
    vertex 8.147 36.712 34.639
    vertex 25.448 29.458000000000002 49.095
    vertex 21.69 19.643 46.229
  endloop
endfacet
facet normal 0.7167787801696076 0.055008310934603705 -0.6951275178171925
  outer loop
    vertex 8.457 -65.977 63.581
    vertex 16.984 -53.929 73.327
    vertex 22.174 -71.098 77.32000000000001
  endloop
endfacet
facet normal 0.6055158389299811 -0.3259285792287632 -0.726031080634184
  outer loop
    vertex 8.457 -65.977 63.581
    vertex 22.174 -71.098 77.32000000000001
    vertex 12.436 -85.73 75.767
  endloop
endfacet
facet normal 0.43497907631566385 -0.8684589990087842 -0.2378490492060718
  outer loop
    vertex 8.708 63.802 35.021
    vertex 12.798 72.016 12.509
    vertex 20.505 75.688 13.196
  endloop
endfacet
facet normal 0.7067435590487654 0.129935475802863 -0.6954353412582422
  outer loop
    vertex 8.708 63.802 35.021
    vertex 20.032 58.037 45.452
    vertex 20.227 48.156 43.804
  endloop
endfacet
facet normal -0.004355849726463243 -0.8772099491460816 -0.4800872125898476
  outer loop
    vertex 8.708 63.802 35.021
    vertex 20.505 75.688 13.196
    vertex 20.032 58.037 45.452
  endloop
endfacet
facet normal 0.4591927165503981 0.8868587949831949 0.051220375125738
  outer loop
    vertex 8.739 99.276 71.755
    vertex 11.31 96.955 88.893
    vertex 25.992 89.816 80.877
  endloop
endfacet
facet normal 0.46901515134870436 0.8827344942531697 0.02836548009381612
  outer loop
    vertex 8.739 99.276 71.755
    vertex 25.992 89.816 80.877
    vertex 26.026 90.556 57.286
  endloop
endfacet
facet normal 0.3810899336151475 0.9192551140414136 -0.09869396033147292
  outer loop
    vertex 8.739 99.276 71.755
    vertex 26.026 90.556 57.286
    vertex 15.083 92.636 34.405
  endloop
endfacet
facet normal -0.9858441808441232 0.14769144768142672 0.07936301013409353
  outer loop
    vertex 8.935 7.3500000000000005 12.469
    vertex 9.867 -1.448 40.419000000000004
    vertex 11.995000000000001 15.447000000000001 35.412
  endloop
endfacet
facet normal -0.8184616600203639 0.5673010967493074 -0.09104930918872108
  outer loop
    vertex 8.935 7.3500000000000005 12.469
    vertex 11.995000000000001 15.447000000000001 35.412
    vertex 15.289 17.625 19.372
  endloop
endfacet
facet normal -0.9053104890188358 -0.4128660021810158 -0.09977265514930302
  outer loop
    vertex 8.935 7.3500000000000005 12.469
    vertex 13.99 -3.744 12.509
    vertex 9.867 -1.448 40.419000000000004
  endloop
endfacet
facet normal -0.8563259590291961 0.51604448774542 0.020098222814329787
  outer loop
    vertex 8.935 7.3500000000000005 12.469
    vertex 15.289 17.625 19.372
    vertex 12.968 14.528 0
  endloop
endfacet
facet normal 0.018877180341564236 -0.001276699348494804 -0.9998209950291731
  outer loop
    vertex 9.345 -12.415000000000001 -0.034
    vertex 12.968 14.528 0
    vertex 30.938000000000002 -10.31 0.371
  endloop
endfacet
facet normal -0.42107711544601095 -0.6656608772042298 0.6161084802267877
  outer loop
    vertex 9.345 -12.415000000000001 -0.034
    vertex 19.25 -17.967 0.737
    vertex 13.99 -3.744 12.509
  endloop
endfacet
facet normal 0.027388871194432212 -0.08939765080789178 -0.9956193598784251
  outer loop
    vertex 9.345 -12.415000000000001 -0.034
    vertex 30.938000000000002 -10.31 0.371
    vertex 19.25 -17.967 0.737
  endloop
endfacet
facet normal 0.4981785640016507 -0.27574037763772813 0.822061653715496
  outer loop
    vertex 9.842 -5.92 115.379
    vertex 14.314 -29.621000000000002 104.71900000000001
    vertex 25.926000000000002 -14.643 102.706
  endloop
endfacet
facet normal 0.5795316377459541 0.1500094273327665 0.8010245018492179
  outer loop
    vertex 9.842 -5.92 115.379
    vertex 22.8 7.873 103.421
    vertex 14.598 15.333 107.958
  endloop
endfacet
facet normal 0.6389142381450764 0.06436047886739857 0.7665809318365906
  outer loop
    vertex 9.842 -5.92 115.379
    vertex 25.926000000000002 -14.643 102.706
    vertex 22.8 7.873 103.421
  endloop
endfacet
facet normal -0.37804096956526156 -0.9255663846600811 0.02029514516882742
  outer loop
    vertex 9.867 -1.448 40.419000000000004
    vertex 13.99 -3.744 12.509
    vertex 22.028 -6.594 32.259
  endloop
endfacet
facet normal -0.444801401195368 -0.6058913482335868 -0.6595812214051607
  outer loop
    vertex 9.867 -1.448 40.419000000000004
    vertex 19.281 -16.196 47.618
    vertex 16.133 -28.05 60.63
  endloop
endfacet
facet normal -0.5995033816984117 -0.6260734934230388 -0.49862578770581134
  outer loop
    vertex 9.867 -1.448 40.419000000000004
    vertex 22.028 -6.594 32.259
    vertex 19.281 -16.196 47.618
  endloop
endfacet
facet normal 0.21587920743065572 -0.4493470053018587 -0.8668814432350961
  outer loop
    vertex 10.176 62.738 0.038
    vertex 26.914 70.818 0.018000000000000002
    vertex 20.211000000000002 58.733000000000004 4.613
  endloop
endfacet
facet normal 0.31261559828585933 -0.7590022732273904 0.5711278639184294
  outer loop
    vertex 10.821 -68.854 109.125
    vertex 21.304000000000002 -79.135 89.724
    vertex 23.593 -66.179 105.68900000000001
  endloop
endfacet
facet normal 0.17666002018742802 0.3420219851712491 0.9229367253105142
  outer loop
    vertex 10.821 -68.854 109.125
    vertex 23.593 -66.179 105.68900000000001
    vertex 17.028 -55.316 102.92
  endloop
endfacet
facet normal 0.5820847453927858 0.6528861701600684 0.4846823681492179
  outer loop
    vertex 11.31 96.955 88.893
    vertex 16.353 83.765 100.604
    vertex 25.992 89.816 80.877
  endloop
endfacet
facet normal -0.42908053965825066 0.9026092503826281 0.03444461656478086
  outer loop
    vertex 11.995000000000001 15.447000000000001 35.412
    vertex 21.69 19.643 46.229
    vertex 15.289 17.625 19.372
  endloop
endfacet
facet normal 0.8136203095254093 -0.5123118694075504 -0.2748791377895344
  outer loop
    vertex 12.436 -85.73 75.767
    vertex 22.174 -71.098 77.32000000000001
    vertex 21.304000000000002 -79.135 89.724
  endloop
endfacet
facet normal 0.30337402175229916 0.952093113541053 0.03850851949295349
  outer loop
    vertex 12.744 94.522 6.202
    vertex 15.083 92.636 34.405
    vertex 22.294 90.25 36.588
  endloop
endfacet
facet normal 0.46473177450097536 0.8851877485689759 -0.021610820265833858
  outer loop
    vertex 12.744 94.522 6.202
    vertex 22.294 90.25 36.588
    vertex 23.741 88.789 7.862
  endloop
endfacet
facet normal 0.42399080096067326 0.6229458381387536 -0.6573965952500306
  outer loop
    vertex 12.744 94.522 6.202
    vertex 23.741 88.789 7.862
    vertex 13.533 87.44 0
  endloop
endfacet
facet normal 0.13538361835532928 -0.4493587908007346 0.8830333815950109
  outer loop
    vertex 12.798 72.016 12.509
    vertex 20.211000000000002 58.733000000000004 4.613
    vertex 20.505 75.688 13.196
  endloop
endfacet
facet normal 0.06575129320355316 0.9840658614024603 -0.16520032646545854
  outer loop
    vertex 12.968 14.528 0
    vertex 15.289 17.625 19.372
    vertex 25.167 13.864 0.9
  endloop
endfacet
facet normal 0.07567624105159755 0.03986881948955957 -0.9963350760526347
  outer loop
    vertex 12.968 14.528 0
    vertex 25.167 13.864 0.9
    vertex 30.938000000000002 -10.31 0.371
  endloop
endfacet
facet normal 0.5192866741994799 0.417227171342199 -0.7458303007337731
  outer loop
    vertex 13.533 87.44 0
    vertex 23.741 88.789 7.862
    vertex 26.914 70.818 0.018000000000000002
  endloop
endfacet
facet normal -0.30507240642619077 -0.671633723229754 0.6751584766985239
  outer loop
    vertex 13.99 -3.744 12.509
    vertex 19.25 -17.967 0.737
    vertex 25.903000000000002 -14.485 7.207
  endloop
endfacet
facet normal 0.24453357408123816 -0.19739757383005702 0.949335309041575
  outer loop
    vertex 13.99 -3.744 12.509
    vertex 25.903000000000002 -14.485 7.207
    vertex 26.808 0.405 10.07
  endloop
endfacet
facet normal 0.2573626147014836 -0.9360818228437922 -0.23982348820634594
  outer loop
    vertex 13.99 -3.744 12.509
    vertex 26.808 0.405 10.07
    vertex 22.028 -6.594 32.259
  endloop
endfacet
facet normal 0.8453036787460986 -0.2883061296382978 0.4498235946582811
  outer loop
    vertex 14.314 -29.621000000000002 104.71900000000001
    vertex 20.061 -37.886 88.622
    vertex 26.793 -23.005 85.509
  endloop
endfacet
facet normal 0.771220513068819 -0.5563229875673878 0.30939239442165306
  outer loop
    vertex 14.314 -29.621000000000002 104.71900000000001
    vertex 26.793 -23.005 85.509
    vertex 25.926000000000002 -14.643 102.706
  endloop
endfacet
facet normal 0.6232324398121736 0.23078735011295182 0.7472071499882796
  outer loop
    vertex 14.598 15.333 107.958
    vertex 22.8 7.873 103.421
    vertex 30.931 47.829 84.298
  endloop
endfacet
facet normal 0.8495398542045843 -0.04426134950391469 0.5256643121405008
  outer loop
    vertex 14.598 15.333 107.958
    vertex 30.931 47.829 84.298
    vertex 18.486 53.854 104.918
  endloop
endfacet
facet normal 0.33339479364014174 0.9398779836670813 -0.0740086980803528
  outer loop
    vertex 15.083 92.636 34.405
    vertex 26.026 90.556 57.286
    vertex 22.294 90.25 36.588
  endloop
endfacet
facet normal 0.16035226622956958 0.9806957745158318 -0.11190598090287167
  outer loop
    vertex 15.289 17.625 19.372
    vertex 21.69 19.643 46.229
    vertex 27.892 16.458000000000002 27.204
  endloop
endfacet
facet normal 0.16124241144400892 0.980379836877269 -0.11338544966714416
  outer loop
    vertex 15.289 17.625 19.372
    vertex 27.892 16.458000000000002 27.204
    vertex 25.167 13.864 0.9
  endloop
endfacet
facet normal 0.5603774717390586 -0.675256224598804 -0.4795895331509122
  outer loop
    vertex 16.133 -28.05 60.63
    vertex 19.281 -16.196 47.618
    vertex 33.784 -12.833 59.829
  endloop
endfacet
facet normal 0.9872007777085517 -0.04289979906125086 -0.15360413969725792
  outer loop
    vertex 16.133 -28.05 60.63
    vertex 20.061 -37.886 88.622
    vertex 16.984 -53.929 73.327
  endloop
endfacet
facet normal 0.8528911504718764 -0.44347395336169954 -0.2755132267904834
  outer loop
    vertex 16.133 -28.05 60.63
    vertex 26.793 -23.005 85.509
    vertex 20.061 -37.886 88.622
  endloop
endfacet
facet normal 0.6447581076016289 -0.7543785911924031 -0.12328797115911755
  outer loop
    vertex 16.133 -28.05 60.63
    vertex 33.784 -12.833 59.829
    vertex 26.793 -23.005 85.509
  endloop
endfacet
facet normal 0.856193866854821 0.13305893695579182 0.499226783793081
  outer loop
    vertex 16.353 83.765 100.604
    vertex 18.486 53.854 104.918
    vertex 28.679000000000002 60.212 85.742
  endloop
endfacet
facet normal 0.8676800537430644 0.15630661806875448 0.47191054818084033
  outer loop
    vertex 16.353 83.765 100.604
    vertex 28.679000000000002 60.212 85.742
    vertex 25.992 89.816 80.877
  endloop
endfacet
facet normal 0.9831097474512165 -0.0146321948424854 -0.18243114684860348
  outer loop
    vertex 16.984 -53.929 73.327
    vertex 20.061 -37.886 88.622
    vertex 20.553 -60.548 93.09100000000001
  endloop
endfacet
facet normal 0.9591099084160027 0.27073499716724947 -0.08252723724381127
  outer loop
    vertex 16.984 -53.929 73.327
    vertex 20.553 -60.548 93.09100000000001
    vertex 22.174 -71.098 77.32000000000001
  endloop
endfacet
facet normal 0.951019362600625 0.07955509735255989 0.2987191966444835
  outer loop
    vertex 17.028 -55.316 102.92
    vertex 20.553 -60.548 93.09100000000001
    vertex 20.061 -37.886 88.622
  endloop
endfacet
facet normal 0.8523750964792599 0.522195456793355 0.027723632632674237
  outer loop
    vertex 17.028 -55.316 102.92
    vertex 23.593 -66.179 105.68900000000001
    vertex 20.553 -60.548 93.09100000000001
  endloop
endfacet
facet normal 0.8645099732180527 0.09977745044073676 0.49261238980568484
  outer loop
    vertex 18.486 53.854 104.918
    vertex 30.931 47.829 84.298
    vertex 28.679000000000002 60.212 85.742
  endloop
endfacet
facet normal 0.5423107191688331 -0.833034170417741 -0.10933048427135642
  outer loop
    vertex 19.25 -17.967 0.737
    vertex 30.938000000000002 -10.31 0.371
    vertex 25.903000000000002 -14.485 7.207
  endloop
endfacet
facet normal 0.6129261015274433 -0.7146087100662802 -0.3371290339970396
  outer loop
    vertex 19.281 -16.196 47.618
    vertex 22.028 -6.594 32.259
    vertex 30.88 -4.684 44.304
  endloop
endfacet
facet normal 0.5526149540360277 -0.6909537747196977 -0.46604677209091383
  outer loop
    vertex 19.281 -16.196 47.618
    vertex 30.88 -4.684 44.304
    vertex 33.784 -12.833 59.829
  endloop
endfacet
facet normal 0.6657268192853515 -0.6586643336258806 -0.3506694992345125
  outer loop
    vertex 20.032 58.037 45.452
    vertex 20.505 75.688 13.196
    vertex 26.865000000000002 69.368 37.141
  endloop
endfacet
facet normal 0.8763855838112025 0.3266998335367239 -0.35385806088737787
  outer loop
    vertex 20.032 58.037 45.452
    vertex 26.810000000000002 59.676 63.752
    vertex 30.071 46.873 60.008
  endloop
endfacet
facet normal 0.7533895165661253 -0.6183694018104601 -0.22365938217037454
  outer loop
    vertex 20.032 58.037 45.452
    vertex 26.865000000000002 69.368 37.141
    vertex 26.810000000000002 59.676 63.752
  endloop
endfacet
facet normal 0.8537558213660087 0.10200630670831584 -0.510583696249088
  outer loop
    vertex 20.032 58.037 45.452
    vertex 30.071 46.873 60.008
    vertex 20.227 48.156 43.804
  endloop
endfacet
facet normal 0.9604099310295513 -0.13890263192928934 0.24149290511923716
  outer loop
    vertex 20.211000000000002 58.733000000000004 4.613
    vertex 23.741 88.789 7.862
    vertex 20.505 75.688 13.196
  endloop
endfacet
facet normal 0.7357111860254321 -0.15761183779870383 0.658701418962163
  outer loop
    vertex 20.211000000000002 58.733000000000004 4.613
    vertex 26.914 70.818 0.018000000000000002
    vertex 23.741 88.789 7.862
  endloop
endfacet
facet normal 0.854161977762357 0.09377076243816719 -0.5114825117800835
  outer loop
    vertex 20.227 48.156 43.804
    vertex 30.071 46.873 60.008
    vertex 25.448 29.458000000000002 49.095
  endloop
endfacet
facet normal 0.9433505084730767 -0.2949133422103897 -0.15203926713150506
  outer loop
    vertex 20.505 75.688 13.196
    vertex 23.741 88.789 7.862
    vertex 26.237000000000002 84.645 31.387
  endloop
endfacet
facet normal 0.9603390905194454 -0.06284244397511907 -0.27166092552208976
  outer loop
    vertex 20.505 75.688 13.196
    vertex 26.237000000000002 84.645 31.387
    vertex 26.865000000000002 69.368 37.141
  endloop
endfacet
facet normal 0.996001571986109 0.02469037522555044 0.085856007200553
  outer loop
    vertex 20.553 -60.548 93.09100000000001
    vertex 21.304000000000002 -79.135 89.724
    vertex 22.174 -71.098 77.32000000000001
  endloop
endfacet
facet normal 0.9765008413058927 0.07598777829860065 -0.20167291458727551
  outer loop
    vertex 20.553 -60.548 93.09100000000001
    vertex 23.593 -66.179 105.68900000000001
    vertex 21.304000000000002 -79.135 89.724
  endloop
endfacet
facet normal 0.9114557526526837 -0.25462619199704106 -0.3231314180104058
  outer loop
    vertex 21.69 19.643 46.229
    vertex 25.448 29.458000000000002 49.095
    vertex 28.727 16.024 68.93
  endloop
endfacet
facet normal 0.566675413266938 0.8227385296603675 -0.04450042484113371
  outer loop
    vertex 21.69 19.643 46.229
    vertex 28.727 16.024 68.93
    vertex 32.118 12.556000000000001 47.994
  endloop
endfacet
facet normal 0.5566430632418243 0.8296605184834707 0.042566703119891934
  outer loop
    vertex 21.69 19.643 46.229
    vertex 32.118 12.556000000000001 47.994
    vertex 27.892 16.458000000000002 27.204
  endloop
endfacet
facet normal 0.43879865219295666 -0.8797594946543609 -0.18297260559752776
  outer loop
    vertex 22.028 -6.594 32.259
    vertex 26.808 0.405 10.07
    vertex 30.88 -4.684 44.304
  endloop
endfacet
facet normal 0.9698407259642392 0.16720946324013522 -0.1773413704246796
  outer loop
    vertex 22.294 90.25 36.588
    vertex 26.026 90.556 57.286
    vertex 30.328 71.682 63.017
  endloop
endfacet
facet normal 0.8232968449241939 0.5674709618223998 0.01261002086551528
  outer loop
    vertex 22.294 90.25 36.588
    vertex 26.237000000000002 84.645 31.387
    vertex 23.741 88.789 7.862
  endloop
endfacet
facet normal 0.8546049212557618 0.5098655241153459 0.0984254839155832
  outer loop
    vertex 22.294 90.25 36.588
    vertex 30.328 71.682 63.017
    vertex 26.237000000000002 84.645 31.387
  endloop
endfacet
facet normal 0.8602538215102815 0.10357972661860523 0.499234016079205
  outer loop
    vertex 22.8 7.873 103.421
    vertex 25.926000000000002 -14.643 102.706
    vertex 36.744 -5.871 82.245
  endloop
endfacet
facet normal 0.9476582102388315 -0.041321456455697264 0.3166014115624166
  outer loop
    vertex 22.8 7.873 103.421
    vertex 28.457 12.207 87.054
    vertex 30.931 47.829 84.298
  endloop
endfacet
facet normal 0.8745234937940254 0.299387788439239 0.3815437208705612
  outer loop
    vertex 22.8 7.873 103.421
    vertex 36.744 -5.871 82.245
    vertex 28.457 12.207 87.054
  endloop
endfacet
facet normal 0.9461833571372859 0.2975167043090093 -0.12736116100884554
  outer loop
    vertex 25.167 13.864 0.9
    vertex 27.892 16.458000000000002 27.204
    vertex 27.921 8.939 9.855
  endloop
endfacet
facet normal 0.958198853547664 0.2324000634283863 -0.1668687135997163
  outer loop
    vertex 25.167 13.864 0.9
    vertex 27.921 8.939 9.855
    vertex 30.938000000000002 -10.31 0.371
  endloop
endfacet
facet normal 0.9584862337679098 -0.08361532509658687 -0.2726034062267015
  outer loop
    vertex 25.448 29.458000000000002 49.095
    vertex 30.071 46.873 60.008
    vertex 32.628 35.464 72.498
  endloop
endfacet
facet normal 0.9557540987933861 -0.14479198143091188 -0.2560651962937425
  outer loop
    vertex 25.448 29.458000000000002 49.095
    vertex 32.628 35.464 72.498
    vertex 28.727 16.024 68.93
  endloop
endfacet
facet normal 0.8378303723381869 -0.15175522751946396 0.5244145479562619
  outer loop
    vertex 25.903000000000002 -14.485 7.207
    vertex 30.938000000000002 -10.31 0.371
    vertex 26.808 0.405 10.07
  endloop
endfacet
facet normal 0.8555924638065019 -0.4472601167429045 0.26061451196862223
  outer loop
    vertex 25.926000000000002 -14.643 102.706
    vertex 26.793 -23.005 85.509
    vertex 36.744 -5.871 82.245
  endloop
endfacet
facet normal 0.9857116470787731 0.11037754858506248 0.12723735922127866
  outer loop
    vertex 25.992 89.816 80.877
    vertex 28.679000000000002 60.212 85.742
    vertex 30.328 71.682 63.017
  endloop
endfacet
facet normal 0.9743997001777522 0.2246637385603958 0.008451560185695255
  outer loop
    vertex 25.992 89.816 80.877
    vertex 30.328 71.682 63.017
    vertex 26.026 90.556 57.286
  endloop
endfacet
facet normal 0.9912283426857873 -0.008917106708880764 -0.13185923503619273
  outer loop
    vertex 26.237000000000002 84.645 31.387
    vertex 30.328 71.682 63.017
    vertex 26.865000000000002 69.368 37.141
  endloop
endfacet
facet normal 0.8673184637632486 -0.496177842456801 0.03957563733248747
  outer loop
    vertex 26.793 -23.005 85.509
    vertex 33.784 -12.833 59.829
    vertex 36.744 -5.871 82.245
  endloop
endfacet
facet normal 0.9818966334738857 -0.13149331897969765 -0.1363396796107186
  outer loop
    vertex 26.808 0.405 10.07
    vertex 27.921 8.939 9.855
    vertex 30.88 -4.684 44.304
  endloop
endfacet
facet normal 0.8700608746258459 -0.10131914415566227 0.4824194289960471
  outer loop
    vertex 26.808 0.405 10.07
    vertex 30.938000000000002 -10.31 0.371
    vertex 27.921 8.939 9.855
  endloop
endfacet
facet normal 0.9529421681035493 -0.285475867238366 -0.10200369343611879
  outer loop
    vertex 26.810000000000002 59.676 63.752
    vertex 26.865000000000002 69.368 37.141
    vertex 30.328 71.682 63.017
  endloop
endfacet
facet normal 0.9782180881050967 0.18813095771119648 -0.0877275034107153
  outer loop
    vertex 26.810000000000002 59.676 63.752
    vertex 28.679000000000002 60.212 85.742
    vertex 30.931 47.829 84.298
  endloop
endfacet
facet normal 0.9557613221098524 -0.284605688705526 -0.07429601008991132
  outer loop
    vertex 26.810000000000002 59.676 63.752
    vertex 30.328 71.682 63.017
    vertex 28.679000000000002 60.212 85.742
  endloop
endfacet
facet normal 0.9649280751165016 0.2587414352998429 -0.04434726046714027
  outer loop
    vertex 26.810000000000002 59.676 63.752
    vertex 30.931 47.829 84.298
    vertex 30.071 46.873 60.008
  endloop
endfacet
facet normal 0.9411954736326363 0.31057168123020074 -0.1330274829923652
  outer loop
    vertex 27.892 16.458000000000002 27.204
    vertex 32.118 12.556000000000001 47.994
    vertex 27.921 8.939 9.855
  endloop
endfacet
facet normal 0.9933030171093092 -0.04892602964209894 -0.10466785478361526
  outer loop
    vertex 27.921 8.939 9.855
    vertex 32.118 12.556000000000001 47.994
    vertex 30.88 -4.684 44.304
  endloop
endfacet
facet normal 0.9810313202874464 -0.19211850184051218 -0.025846273728074624
  outer loop
    vertex 28.457 12.207 87.054
    vertex 28.727 16.024 68.93
    vertex 32.628 35.464 72.498
  endloop
endfacet
facet normal 0.9791459884589865 -0.0528258778571477 0.19616972221343482
  outer loop
    vertex 28.457 12.207 87.054
    vertex 32.628 35.464 72.498
    vertex 30.931 47.829 84.298
  endloop
endfacet
facet normal 0.914273676159988 0.39344012753432084 0.09648062565447459
  outer loop
    vertex 28.457 12.207 87.054
    vertex 36.744 -5.871 82.245
    vertex 28.727 16.024 68.93
  endloop
endfacet
facet normal 0.9179847945204501 0.3875105292471572 0.08449560196741034
  outer loop
    vertex 28.727 16.024 68.93
    vertex 36.744 -5.871 82.245
    vertex 32.118 12.556000000000001 47.994
  endloop
endfacet
facet normal 0.9837181710713742 0.17481104303324305 -0.04170922125406199
  outer loop
    vertex 30.071 46.873 60.008
    vertex 30.931 47.829 84.298
    vertex 32.628 35.464 72.498
  endloop
endfacet
facet normal 0.9798090627326065 -0.02798757142035181 -0.19796690741899742
  outer loop
    vertex 30.88 -4.684 44.304
    vertex 32.118 12.556000000000001 47.994
    vertex 33.784 -12.833 59.829
  endloop
endfacet
facet normal 0.9912453730366331 0.003519799582300546 -0.13198568651322337
  outer loop
    vertex 32.118 12.556000000000001 47.994
    vertex 36.744 -5.871 82.245
    vertex 33.784 -12.833 59.829
  endloop
endfacet
endsolid JSxCAD
