solid JSxCAD
facet normal -0.9198462931172849 -0.2828595638853237 -0.27179636523874684
  outer loop
    vertex -37.423 -9.654 74.67
    vertex -32.786 5.035 43.69
    vertex -30.777 -14.769 57.501
  endloop
endfacet
facet normal -0.7338312434665776 -0.674217981107329 -0.08319747630700011
  outer loop
    vertex -37.423 -9.654 74.67
    vertex -30.777 -14.769 57.501
    vertex -25.511 -24.015 85.98100000000001
  endloop
endfacet
facet normal -0.9554239059478493 0.2952219426816092 -0.003027292957715357
  outer loop
    vertex -37.423 -9.654 74.67
    vertex -30.333000000000002 13.245000000000001 70.155
    vertex -32.786 5.035 43.69
  endloop
endfacet
facet normal -0.9434304199955311 0.31343206137682883 0.10816369782938995
  outer loop
    vertex -37.423 -9.654 74.67
    vertex -28.834 12.065 86.649
    vertex -30.333000000000002 13.245000000000001 70.155
  endloop
endfacet
facet normal -0.9190562089313731 0.166394620382958 0.35727932368429
  outer loop
    vertex -37.423 -9.654 74.67
    vertex -26.716 -11.3 102.979
    vertex -28.834 12.065 86.649
  endloop
endfacet
facet normal -0.836258376901486 -0.4658697140857072 0.28920120428482604
  outer loop
    vertex -37.423 -9.654 74.67
    vertex -25.511 -24.015 85.98100000000001
    vertex -26.716 -11.3 102.979
  endloop
endfacet
facet normal -0.9690581737281517 0.2258982397335581 -0.09947985331683633
  outer loop
    vertex -33.247 39.379 70.379
    vertex -31.661 49.448 77.794
    vertex -29.588 50.824 60.725
  endloop
endfacet
facet normal -0.91789609299024 -0.03959849136775027 -0.39484012201731816
  outer loop
    vertex -33.247 39.379 70.379
    vertex -29.588 50.824 60.725
    vertex -22.357 43.195 44.68
  endloop
endfacet
facet normal -0.9608738156005024 -0.2388205172359168 -0.14030777255911647
  outer loop
    vertex -33.247 39.379 70.379
    vertex -29.419 29.608 60.795
    vertex -28.834 12.065 86.649
  endloop
endfacet
facet normal -0.9483729333012277 0.034569656923902264 0.31526769292426526
  outer loop
    vertex -33.247 39.379 70.379
    vertex -28.834 12.065 86.649
    vertex -24.067 31.197 98.891
  endloop
endfacet
facet normal -0.9551157046349732 -0.06275671133563966 0.2895092156425659
  outer loop
    vertex -33.247 39.379 70.379
    vertex -24.067 31.197 98.891
    vertex -31.661 49.448 77.794
  endloop
endfacet
facet normal -0.9215954576728842 0.01920217129460714 -0.3876765262616241
  outer loop
    vertex -33.247 39.379 70.379
    vertex -22.357 43.195 44.68
    vertex -29.419 29.608 60.795
  endloop
endfacet
facet normal -0.9413617869453306 0.3369561885746209 -0.017277530505223612
  outer loop
    vertex -32.786 5.035 43.69
    vertex -30.333000000000002 13.245000000000001 70.155
    vertex -28.366 17.331 42.671
  endloop
endfacet
facet normal -0.6082594853714076 -0.7878755360103769 0.09629401960699226
  outer loop
    vertex -32.786 5.035 43.69
    vertex -30.056 -1.9140000000000001 4.078
    vertex -27.658 -1.147 25.501
  endloop
endfacet
facet normal -0.9407256447745584 0.3326932371470897 -0.06595810200484702
  outer loop
    vertex -32.786 5.035 43.69
    vertex -28.366 17.331 42.671
    vertex -27.864 14.258000000000001 20.011
  endloop
endfacet
facet normal -0.9653612317042031 0.23743227826836993 -0.10818320368169705
  outer loop
    vertex -32.786 5.035 43.69
    vertex -27.864 14.258000000000001 20.011
    vertex -30.056 -1.9140000000000001 4.078
  endloop
endfacet
facet normal -0.954300151278642 -0.2299354095358077 -0.190895072516714
  outer loop
    vertex -32.786 5.035 43.69
    vertex -27.658 -1.147 25.501
    vertex -30.777 -14.769 57.501
  endloop
endfacet
facet normal -0.9848619663705291 0.13500148949218493 -0.10872674478556815
  outer loop
    vertex -31.661 49.448 77.794
    vertex -28.747 61.686 66.59400000000001
    vertex -29.588 50.824 60.725
  endloop
endfacet
facet normal -0.9058364813103968 0.09917247062651542 0.4118556667050142
  outer loop
    vertex -31.661 49.448 77.794
    vertex -24.067 31.197 98.891
    vertex -19.218 53.286 104.23700000000001
  endloop
endfacet
facet normal -0.8174144738223112 0.4825542211485473 0.314602926937295
  outer loop
    vertex -31.661 49.448 77.794
    vertex -19.218 53.286 104.23700000000001
    vertex -28.747 61.686 66.59400000000001
  endloop
endfacet
facet normal -0.8957427860343862 -0.4245184791426701 0.1320186431294856
  outer loop
    vertex -31.143 72.112 83.863
    vertex -28.747 61.686 66.59400000000001
    vertex -19.218 53.286 104.23700000000001
  endloop
endfacet
facet normal -0.9928552031383764 -0.04536568742602273 -0.1103653025430446
  outer loop
    vertex -31.143 72.112 83.863
    vertex -27.13 85.915 42.088
    vertex -28.747 61.686 66.59400000000001
  endloop
endfacet
facet normal -0.9655521511762151 0.2601205935003961 -0.006805894209076735
  outer loop
    vertex -31.143 72.112 83.863
    vertex -25.782 91.812 76.23
    vertex -27.13 85.915 42.088
  endloop
endfacet
facet normal -0.827295791192722 0.07802943863309889 0.5563210229547428
  outer loop
    vertex -31.143 72.112 83.863
    vertex -19.218 53.286 104.23700000000001
    vertex -15.515 65.953 107.967
  endloop
endfacet
facet normal -0.7755645909815064 0.2683226022399324 0.5714040132365887
  outer loop
    vertex -31.143 72.112 83.863
    vertex -15.515 65.953 107.967
    vertex -12.098 86.177 103.108
  endloop
endfacet
facet normal -0.7806908441549719 0.3988516221934405 0.48108127102004106
  outer loop
    vertex -31.143 72.112 83.863
    vertex -12.098 86.177 103.108
    vertex -25.782 91.812 76.23
  endloop
endfacet
facet normal -0.3326541734179863 -0.8555830506445858 -0.3966343963366015
  outer loop
    vertex -30.777 -14.769 57.501
    vertex -27.658 -1.147 25.501
    vertex -21.901 -6.986 33.268
  endloop
endfacet
facet normal -0.4702761276454576 -0.7754605760734609 -0.4213089824850753
  outer loop
    vertex -30.777 -14.769 57.501
    vertex -21.901 -6.986 33.268
    vertex -17.198 -20.445 52.791000000000004
  endloop
endfacet
facet normal -0.4772729013215768 -0.66886116437904 -0.5699432607282933
  outer loop
    vertex -30.777 -14.769 57.501
    vertex -17.198 -20.445 52.791000000000004
    vertex -13.673 -28.937 59.805
  endloop
endfacet
facet normal -0.6211003905159308 -0.7718850223804079 -0.1357490962244507
  outer loop
    vertex -30.777 -14.769 57.501
    vertex -13.673 -28.937 59.805
    vertex -25.511 -24.015 85.98100000000001
  endloop
endfacet
facet normal -0.9304839004107837 -0.14134870778865194 -0.3379648707821764
  outer loop
    vertex -30.333000000000002 13.245000000000001 70.155
    vertex -29.419 29.608 60.795
    vertex -23.537 20.433 48.438
  endloop
endfacet
facet normal -0.9889700248204029 0.11120534129389052 0.09783487146432493
  outer loop
    vertex -30.333000000000002 13.245000000000001 70.155
    vertex -28.834 12.065 86.649
    vertex -29.419 29.608 60.795
  endloop
endfacet
facet normal -0.6010207406450763 0.7956803897224558 0.07527806271129002
  outer loop
    vertex -30.333000000000002 13.245000000000001 70.155
    vertex -23.537 20.433 48.438
    vertex -28.366 17.331 42.671
  endloop
endfacet
facet normal -0.9262871479313376 0.32061342561706146 -0.19798775439739047
  outer loop
    vertex -30.056 -1.9140000000000001 4.078
    vertex -27.864 14.258000000000001 20.011
    vertex -23.285 15.719000000000001 0.9540000000000001
  endloop
endfacet
facet normal -0.42547758202190367 0.0030511955380198353 -0.9049638210462245
  outer loop
    vertex -30.056 -1.9140000000000001 4.078
    vertex -23.285 15.719000000000001 0.9540000000000001
    vertex -21.444 -13.773 -0.011
  endloop
endfacet
facet normal -0.3669895804467004 -0.9272548250984847 0.07427743382167411
  outer loop
    vertex -30.056 -1.9140000000000001 4.078
    vertex -22.53 -4.276 11.776
    vertex -27.658 -1.147 25.501
  endloop
endfacet
facet normal -0.8244131739762215 -0.5350792071608891 -0.18448078663786868
  outer loop
    vertex -30.056 -1.9140000000000001 4.078
    vertex -21.444 -13.773 -0.011
    vertex -21.365000000000002 -16.244 6.803
  endloop
endfacet
facet normal -0.7243113566308174 -0.32350531208852545 0.6088656433944446
  outer loop
    vertex -30.056 -1.9140000000000001 4.078
    vertex -21.365000000000002 -16.244 6.803
    vertex -22.53 -4.276 11.776
  endloop
endfacet
facet normal -0.8243674414270424 0.3171619484047977 -0.4688567158515531
  outer loop
    vertex -29.588 50.824 60.725
    vertex -28.747 61.686 66.59400000000001
    vertex -15.692 58.039 41.173
  endloop
endfacet
facet normal -0.8300720650644536 0.255609959243686 -0.49562477292310014
  outer loop
    vertex -29.588 50.824 60.725
    vertex -15.692 58.039 41.173
    vertex -22.357 43.195 44.68
  endloop
endfacet
facet normal -0.9088582112378835 -0.021655158157412722 -0.4165426820755015
  outer loop
    vertex -29.419 29.608 60.795
    vertex -22.357 43.195 44.68
    vertex -23.537 20.433 48.438
  endloop
endfacet
facet normal -0.9658561450748109 0.0837882764574385 0.2451559335392835
  outer loop
    vertex -28.834 12.065 86.649
    vertex -26.716 -11.3 102.979
    vertex -24.067 31.197 98.891
  endloop
endfacet
facet normal -0.9954783562608118 -0.02597600899455878 -0.09136787823402036
  outer loop
    vertex -28.747 61.686 66.59400000000001
    vertex -27.13 85.915 42.088
    vertex -25.919 68.855 33.744
  endloop
endfacet
facet normal -0.6305612605497259 -0.7452117031732117 -0.21691476240132065
  outer loop
    vertex -28.747 61.686 66.59400000000001
    vertex -25.919 68.855 33.744
    vertex -15.692 58.039 41.173
  endloop
endfacet
facet normal -0.0732281334165957 0.9026097884459199 -0.42418534896661986
  outer loop
    vertex -28.366 17.331 42.671
    vertex -23.537 20.433 48.438
    vertex -7.7330000000000005 17.479 39.424
  endloop
endfacet
facet normal -0.543656984738791 0.8300065859218915 -0.12460397373684215
  outer loop
    vertex -28.366 17.331 42.671
    vertex -21.232 19.411 25.400000000000002
    vertex -27.864 14.258000000000001 20.011
  endloop
endfacet
facet normal 0.18282080342283302 0.9642859886366097 0.19164833929608194
  outer loop
    vertex -28.366 17.331 42.671
    vertex -12.257 15.809000000000001 34.962
    vertex -21.232 19.411 25.400000000000002
  endloop
endfacet
facet normal -0.054244339591874094 0.9519843761154895 -0.30130267050632636
  outer loop
    vertex -28.366 17.331 42.671
    vertex -7.7330000000000005 17.479 39.424
    vertex -12.257 15.809000000000001 34.962
  endloop
endfacet
facet normal -0.5730393758257342 0.8160772622147255 -0.0751250680490277
  outer loop
    vertex -27.864 14.258000000000001 20.011
    vertex -21.232 19.411 25.400000000000002
    vertex -23.285 15.719000000000001 0.9540000000000001
  endloop
endfacet
facet normal -0.6582625561885632 -0.7490247560730677 -0.07518192541947717
  outer loop
    vertex -27.658 -1.147 25.501
    vertex -22.53 -4.276 11.776
    vertex -21.901 -6.986 33.268
  endloop
endfacet
facet normal -0.5518987436641936 0.8251261330780792 -0.12072547889116413
  outer loop
    vertex -27.13 85.915 42.088
    vertex -25.782 91.812 76.23
    vertex -14.290000000000001 94.953 45.162
  endloop
endfacet
facet normal -0.9892752427302934 0.0012132472338395423 -0.14605828340792004
  outer loop
    vertex -27.13 85.915 42.088
    vertex -24.387 82.997 23.485
    vertex -25.919 68.855 33.744
  endloop
endfacet
facet normal -0.7423133653098823 0.6365262742910002 -0.2092968461767527
  outer loop
    vertex -27.13 85.915 42.088
    vertex -20.601 91.572 36.136
    vertex -24.387 82.997 23.485
  endloop
endfacet
facet normal -0.5898513594868481 0.7995782642350784 0.11291577867745632
  outer loop
    vertex -27.13 85.915 42.088
    vertex -14.290000000000001 94.953 45.162
    vertex -20.601 91.572 36.136
  endloop
endfacet
facet normal -0.7444125070480617 -0.5589213643099504 0.36531757125591846
  outer loop
    vertex -26.716 -11.3 102.979
    vertex -25.511 -24.015 85.98100000000001
    vertex -15.776 -24.27 105.428
  endloop
endfacet
facet normal -0.5054770142568022 -0.2717305540312688 0.8189355860285279
  outer loop
    vertex -26.716 -11.3 102.979
    vertex -15.776 -24.27 105.428
    vertex -8.297 -5.691 116.209
  endloop
endfacet
facet normal -0.5659165462172521 0.11382545210058354 0.8165673451538669
  outer loop
    vertex -26.716 -11.3 102.979
    vertex -9.832 14.019 111.151
    vertex -24.067 31.197 98.891
  endloop
endfacet
facet normal -0.6068177970804158 0.15290460935870906 0.7799950907430968
  outer loop
    vertex -26.716 -11.3 102.979
    vertex -8.297 -5.691 116.209
    vertex -9.832 14.019 111.151
  endloop
endfacet
facet normal -0.9930337762917861 0.02387031210085731 -0.11538685949397667
  outer loop
    vertex -25.919 68.855 33.744
    vertex -24.387 82.997 23.485
    vertex -23.04 77.271 10.708
  endloop
endfacet
facet normal -0.5512966930252875 -0.7590793906479282 -0.3462230999701671
  outer loop
    vertex -25.919 68.855 33.744
    vertex -23.04 77.271 10.708
    vertex -15.692 58.039 41.173
  endloop
endfacet
facet normal -0.5469580344201321 0.7187898548393987 0.4291597058942297
  outer loop
    vertex -25.782 91.812 76.23
    vertex -12.098 86.177 103.108
    vertex -12.045 98.82900000000001 81.985
  endloop
endfacet
facet normal -0.43094512101718263 0.8997792048276934 -0.06843745488495169
  outer loop
    vertex -25.782 91.812 76.23
    vertex -12.045 98.82900000000001 81.985
    vertex -14.290000000000001 94.953 45.162
  endloop
endfacet
facet normal -0.9591457049499014 0.1298986976710429 0.25132816201039576
  outer loop
    vertex -25.669 78.602 -0.013000000000000001
    vertex -23.04 77.271 10.708
    vertex -21.73 92.249 7.966
  endloop
endfacet
facet normal -0.251508617463366 0.5415828781848178 -0.80214175891716
  outer loop
    vertex -25.669 78.602 -0.013000000000000001
    vertex -21.73 92.249 7.966
    vertex -12.462 94.281 6.432
  endloop
endfacet
facet normal -0.9154938800271176 -0.3599135958653373 0.17981423509882646
  outer loop
    vertex -25.669 78.602 -0.013000000000000001
    vertex -17.653 61.503 6.574
    vertex -23.04 77.271 10.708
  endloop
endfacet
facet normal -0.8151198662145289 -0.4968626956270204 -0.2978373136406173
  outer loop
    vertex -25.669 78.602 -0.013000000000000001
    vertex -14.946 60.968 0.058
    vertex -17.653 61.503 6.574
  endloop
endfacet
facet normal -0.03351402114010891 0.4039982322402737 -0.914145633219212
  outer loop
    vertex -25.669 78.602 -0.013000000000000001
    vertex -12.462 94.281 6.432
    vertex -5.987 80.237 -0.012
  endloop
endfacet
facet normal 0.00036674815164907087 -0.0038032687586926133 -0.9999927002946284
  outer loop
    vertex -25.669 78.602 -0.013000000000000001
    vertex -5.987 80.237 -0.012
    vertex -14.946 60.968 0.058
  endloop
endfacet
facet normal -0.86721494022852 -0.29852657556259754 0.39852243491090106
  outer loop
    vertex -25.511 -24.015 85.98100000000001
    vertex -20.482 -37.671 86.69500000000001
    vertex -8.369 -45.523 107.172
  endloop
endfacet
facet normal -0.8789318050155254 -0.34110739059334205 -0.33335361137199576
  outer loop
    vertex -25.511 -24.015 85.98100000000001
    vertex -13.673 -28.937 59.805
    vertex -20.482 -37.671 86.69500000000001
  endloop
endfacet
facet normal -0.8634531940792943 -0.2657438122550871 0.4287526185137504
  outer loop
    vertex -25.511 -24.015 85.98100000000001
    vertex -8.369 -45.523 107.172
    vertex -15.776 -24.27 105.428
  endloop
endfacet
facet normal -0.9892596934683848 0.0623171326327543 -0.13221888616710215
  outer loop
    vertex -24.387 82.997 23.485
    vertex -21.73 92.249 7.966
    vertex -23.04 77.271 10.708
  endloop
endfacet
facet normal -0.937089751240717 0.3460612890745237 0.04587354710167588
  outer loop
    vertex -24.387 82.997 23.485
    vertex -20.601 91.572 36.136
    vertex -21.73 92.249 7.966
  endloop
endfacet
facet normal -0.673437527365768 -0.03092225327361715 0.7385971235984898
  outer loop
    vertex -24.067 31.197 98.891
    vertex -9.832 14.019 111.151
    vertex -19.218 53.286 104.23700000000001
  endloop
endfacet
facet normal -0.9691853461505867 -0.09755166177309123 0.22619336438604043
  outer loop
    vertex -23.548000000000002 -60.581 85.45400000000001
    vertex -21.851 -79.268 84.666
    vertex -20.268 -67.565 96.496
  endloop
endfacet
facet normal -0.8301867684360472 0.3255816134139422 0.4525334711604075
  outer loop
    vertex -23.548000000000002 -60.581 85.45400000000001
    vertex -20.268 -67.565 96.496
    vertex -18.615000000000002 -56.741 91.741
  endloop
endfacet
facet normal -0.7278213904940835 0.665759684189251 0.16443864037229075
  outer loop
    vertex -23.548000000000002 -60.581 85.45400000000001
    vertex -18.615000000000002 -56.741 91.741
    vertex -16.491 -49.407000000000004 71.449
  endloop
endfacet
facet normal -0.9064928203963064 0.04653020634284617 -0.41964950431001574
  outer loop
    vertex -23.548000000000002 -60.581 85.45400000000001
    vertex -16.491 -49.407000000000004 71.449
    vertex -15.965 -67.1 68.351
  endloop
endfacet
facet normal -0.9213718360757763 -0.06753061178989904 -0.3827708925161818
  outer loop
    vertex -23.548000000000002 -60.581 85.45400000000001
    vertex -15.965 -67.1 68.351
    vertex -21.851 -79.268 84.666
  endloop
endfacet
facet normal -0.618515845420846 -0.09668073100619373 -0.7798018884405475
  outer loop
    vertex -23.537 20.433 48.438
    vertex -22.357 43.195 44.68
    vertex -8.838000000000001 37.671 34.642
  endloop
endfacet
facet normal -0.5141110383827078 -0.22420376132967615 -0.8279024783262093
  outer loop
    vertex -23.537 20.433 48.438
    vertex -8.838000000000001 37.671 34.642
    vertex -7.7330000000000005 17.479 39.424
  endloop
endfacet
facet normal -0.43880186747400285 -0.8876836096005387 0.13953755891474537
  outer loop
    vertex -23.359 -64.221 108.049
    vertex -20.268 -67.565 96.496
    vertex -10.845 -70.384 108.19500000000001
  endloop
endfacet
facet normal -0.9633782182779557 0.03006937353537097 -0.2664549517700547
  outer loop
    vertex -23.359 -64.221 108.049
    vertex -18.615000000000002 -56.741 91.741
    vertex -20.268 -67.565 96.496
  endloop
endfacet
facet normal -0.7430915177486249 0.6633651159414309 0.08810061975977654
  outer loop
    vertex -23.359 -64.221 108.049
    vertex -14.383000000000001 -53.446 102.626
    vertex -18.615000000000002 -56.741 91.741
  endloop
endfacet
facet normal -0.11847866394468494 -0.21762045873569932 0.9688158453130017
  outer loop
    vertex -23.359 -64.221 108.049
    vertex -10.845 -70.384 108.19500000000001
    vertex -8.471 -60.854 110.626
  endloop
endfacet
facet normal -0.2663640937133095 0.6011094234309012 0.7534703913511511
  outer loop
    vertex -23.359 -64.221 108.049
    vertex -8.471 -60.854 110.626
    vertex -14.383000000000001 -53.446 102.626
  endloop
endfacet
facet normal 0.12092612480893379 0.9799809456760611 -0.1581588393057661
  outer loop
    vertex -23.285 15.719000000000001 0.9540000000000001
    vertex -21.232 19.411 25.400000000000002
    vertex -13.041 14.835 3.309
  endloop
endfacet
facet normal 0.23116647972004764 0.560751930379711 -0.7950593256036108
  outer loop
    vertex -23.285 15.719000000000001 0.9540000000000001
    vertex -13.041 14.835 3.309
    vertex -9.26 8.596 0.008
  endloop
endfacet
facet normal -0.052402326991179915 0.029390479141551223 -0.9981934661485916
  outer loop
    vertex -23.285 15.719000000000001 0.9540000000000001
    vertex -9.26 8.596 0.008
    vertex -21.444 -13.773 -0.011
  endloop
endfacet
facet normal -0.6670638713088717 -0.39371460895854493 0.6324670728876256
  outer loop
    vertex -23.04 77.271 10.708
    vertex -17.653 61.503 6.574
    vertex -12.615 72.514 18.742
  endloop
endfacet
facet normal 0.031214106295620794 -0.8417747399400852 -0.5389257525549949
  outer loop
    vertex -23.04 77.271 10.708
    vertex -12.615 72.514 18.742
    vertex -15.692 58.039 41.173
  endloop
endfacet
facet normal 0.0016509210067158287 -0.3835791059158199 0.9235065478731863
  outer loop
    vertex -22.53 -4.276 11.776
    vertex -21.365000000000002 -16.244 6.803
    vertex -12.302 -1.7690000000000001 12.799
  endloop
endfacet
facet normal 0.24818565938743758 -0.9601739192070894 -0.12833519918136574
  outer loop
    vertex -22.53 -4.276 11.776
    vertex -12.302 -1.7690000000000001 12.799
    vertex -21.901 -6.986 33.268
  endloop
endfacet
facet normal -0.5770733376928509 0.0668049075980228 -0.8139554454912459
  outer loop
    vertex -22.357 43.195 44.68
    vertex -15.692 58.039 41.173
    vertex -8.838000000000001 37.671 34.642
  endloop
endfacet
facet normal 0.48552933913993457 -0.8742067606612853 0.004878570327534617
  outer loop
    vertex -21.901 -6.986 33.268
    vertex -12.302 -1.7690000000000001 12.799
    vertex -10.659 -0.718 37.615
  endloop
endfacet
facet normal 0.5581603956188032 -0.6141910395517379 -0.5578766348369651
  outer loop
    vertex -21.901 -6.986 33.268
    vertex -10.659 -0.718 37.615
    vertex -17.198 -20.445 52.791000000000004
  endloop
endfacet
facet normal -0.7775738273445622 -0.33626823863464744 -0.531321573733159
  outer loop
    vertex -21.851 -79.268 84.666
    vertex -15.965 -67.1 68.351
    vertex -12.19 -87.027 75.438
  endloop
endfacet
facet normal -0.5337486088339821 -0.8336153485518603 0.14211922187568193
  outer loop
    vertex -21.851 -79.268 84.666
    vertex -12.19 -87.027 75.438
    vertex 1.078 -93.033 90.039
  endloop
endfacet
facet normal -0.7554534610027824 -0.4124395637986077 0.509100849019653
  outer loop
    vertex -21.851 -79.268 84.666
    vertex -10.845 -70.384 108.19500000000001
    vertex -20.268 -67.565 96.496
  endloop
endfacet
facet normal -0.7830467533603673 -0.364549702409738 0.5039258839598929
  outer loop
    vertex -21.851 -79.268 84.666
    vertex -9.622 -87.806 97.492
    vertex -10.845 -70.384 108.19500000000001
  endloop
endfacet
facet normal -0.4939532513989307 -0.8632815758168247 -0.103706828548773
  outer loop
    vertex -21.851 -79.268 84.666
    vertex 1.078 -93.033 90.039
    vertex -9.622 -87.806 97.492
  endloop
endfacet
facet normal -0.20901796013109866 0.9773924626556623 0.03186638176094725
  outer loop
    vertex -21.73 92.249 7.966
    vertex -20.601 91.572 36.136
    vertex -12.462 94.281 6.432
  endloop
endfacet
facet normal 0.8655394917360308 -0.4675382999378928 -0.17958097431665346
  outer loop
    vertex -21.444 -13.773 -0.011
    vertex -12.302 -1.7690000000000001 12.799
    vertex -21.365000000000002 -16.244 6.803
  endloop
endfacet
facet normal 0.08536557125672457 -0.9605374600664538 0.26472723141584575
  outer loop
    vertex -21.444 -13.773 -0.011
    vertex -10.556000000000001 -12.815 -0.046
    vertex -8.222 -12.004 2.144
  endloop
endfacet
facet normal -0.003454823160067283 0.0027311628203477525 -0.9999903024262693
  outer loop
    vertex -21.444 -13.773 -0.011
    vertex -9.26 8.596 0.008
    vertex -10.556000000000001 -12.815 -0.046
  endloop
endfacet
facet normal -0.015517620190090417 -0.7240527782461638 0.6895699948356567
  outer loop
    vertex -21.444 -13.773 -0.011
    vertex -8.222 -12.004 2.144
    vertex -12.302 -1.7690000000000001 12.799
  endloop
endfacet
facet normal 0.40694177451340346 0.912656554393188 -0.03816288614657283
  outer loop
    vertex -21.232 19.411 25.400000000000002
    vertex -12.257 15.809000000000001 34.962
    vertex -13.041 14.835 3.309
  endloop
endfacet
facet normal -0.4314306321763194 0.9014274012574998 -0.03600347041733426
  outer loop
    vertex -20.601 91.572 36.136
    vertex -14.290000000000001 94.953 45.162
    vertex -12.462 94.281 6.432
  endloop
endfacet
facet normal -0.9324648968160113 0.004293667257232033 0.3612350766846838
  outer loop
    vertex -20.482 -37.671 86.69500000000001
    vertex -18.615000000000002 -56.741 91.741
    vertex -14.383000000000001 -53.446 102.626
  endloop
endfacet
facet normal -0.9790420050328615 -0.13597011953714333 -0.15162083951188693
  outer loop
    vertex -20.482 -37.671 86.69500000000001
    vertex -16.491 -49.407000000000004 71.449
    vertex -18.615000000000002 -56.741 91.741
  endloop
endfacet
facet normal -0.7804702498910584 0.26845623348536374 0.564621501306708
  outer loop
    vertex -20.482 -37.671 86.69500000000001
    vertex -14.383000000000001 -53.446 102.626
    vertex -8.369 -45.523 107.172
  endloop
endfacet
facet normal -0.9687884141162304 -0.007573404432111993 -0.24777338884445801
  outer loop
    vertex -20.482 -37.671 86.69500000000001
    vertex -13.673 -28.937 59.805
    vertex -16.491 -49.407000000000004 71.449
  endloop
endfacet
facet normal -0.34570174982354984 0.08195594027117331 0.9347585378177639
  outer loop
    vertex -19.218 53.286 104.23700000000001
    vertex -9.832 14.019 111.151
    vertex 1.725 35.463 113.545
  endloop
endfacet
facet normal -0.48313229506524846 -0.11437344938536427 0.8680448718474634
  outer loop
    vertex -19.218 53.286 104.23700000000001
    vertex 1.725 35.463 113.545
    vertex -15.515 65.953 107.967
  endloop
endfacet
facet normal 0.6785868558337501 -0.6533914498597284 0.3355584782714741
  outer loop
    vertex -17.653 61.503 6.574
    vertex -14.946 60.968 0.058
    vertex -7.6930000000000005 72.261 7.38
  endloop
endfacet
facet normal 0.6855098429797343 -0.658006943922712 0.3116137303255314
  outer loop
    vertex -17.653 61.503 6.574
    vertex -7.6930000000000005 72.261 7.38
    vertex -12.615 72.514 18.742
  endloop
endfacet
facet normal -0.06734687136912175 -0.5942416616336165 -0.8014619432610068
  outer loop
    vertex -17.198 -20.445 52.791000000000004
    vertex -10.659 -0.718 37.615
    vertex -0.394 -9.859 43.53
  endloop
endfacet
facet normal -0.018723773587360677 -0.6413176109248914 -0.7670470273850484
  outer loop
    vertex -17.198 -20.445 52.791000000000004
    vertex -0.394 -9.859 43.53
    vertex -13.673 -28.937 59.805
  endloop
endfacet
facet normal -0.2863406076169669 -0.4436483771881517 -0.8492262206549357
  outer loop
    vertex -16.491 -49.407000000000004 71.449
    vertex -13.673 -28.937 59.805
    vertex -3.369 -39.01 61.593
  endloop
endfacet
facet normal -0.651968726553961 0.11192988326165226 -0.7499389847371847
  outer loop
    vertex -16.491 -49.407000000000004 71.449
    vertex -3.369 -39.01 61.593
    vertex -15.965 -67.1 68.351
  endloop
endfacet
facet normal -0.5709692697332368 -0.36898921394975553 -0.7333764742675045
  outer loop
    vertex -15.965 -67.1 68.351
    vertex -5.803 -82.753 68.315
    vertex -12.19 -87.027 75.438
  endloop
endfacet
facet normal -0.1827535786802324 -0.15174806014189848 -0.9713771953894836
  outer loop
    vertex -15.965 -67.1 68.351
    vertex -3.369 -39.01 61.593
    vertex 8.457 -65.978 63.581
  endloop
endfacet
facet normal -0.1851332375179608 -0.11794556992438754 -0.9756098230857098
  outer loop
    vertex -15.965 -67.1 68.351
    vertex 8.457 -65.978 63.581
    vertex -5.803 -82.753 68.315
  endloop
endfacet
facet normal -0.33157837278792723 -0.03820697990977574 0.9426537059734524
  outer loop
    vertex -15.776 -24.27 105.428
    vertex -8.369 -45.523 107.172
    vertex 0.47400000000000003 -23.849 111.161
  endloop
endfacet
facet normal -0.29791746929575424 -0.3865540273290848 0.8728236737417693
  outer loop
    vertex -15.776 -24.27 105.428
    vertex 0.47400000000000003 -23.849 111.161
    vertex -8.297 -5.691 116.209
  endloop
endfacet
facet normal 0.37149353854676087 -0.8024945011181482 -0.4668994822155415
  outer loop
    vertex -15.692 58.039 41.173
    vertex -12.615 72.514 18.742
    vertex -5.198 64.935 37.67
  endloop
endfacet
facet normal -0.40240447460105505 0.1539500349545545 -0.9024245262394747
  outer loop
    vertex -15.692 58.039 41.173
    vertex -5.198 64.935 37.67
    vertex -8.838000000000001 37.671 34.642
  endloop
endfacet
facet normal -0.25845395728682524 0.030503322965086645 0.9655418682019271
  outer loop
    vertex -15.515 65.953 107.967
    vertex 1.725 35.463 113.545
    vertex 3.8770000000000002 73.607 112.916
  endloop
endfacet
facet normal -0.33777938689568365 0.2734541092807222 0.9006264130625211
  outer loop
    vertex -15.515 65.953 107.967
    vertex 3.8770000000000002 73.607 112.916
    vertex -12.098 86.177 103.108
  endloop
endfacet
facet normal 0.8800927029412798 -0.4100630311038951 -0.23934315271467044
  outer loop
    vertex -14.946 60.968 0.058
    vertex -5.987 80.237 -0.012
    vertex -7.6930000000000005 72.261 7.38
  endloop
endfacet
facet normal -0.7189814874677763 0.15730686757987683 0.6769934786176534
  outer loop
    vertex -14.383000000000001 -53.446 102.626
    vertex -8.471 -60.854 110.626
    vertex -8.369 -45.523 107.172
  endloop
endfacet
facet normal -0.03703454610848186 0.9940560574529298 -0.1023767406966848
  outer loop
    vertex -14.290000000000001 94.953 45.162
    vertex -12.045 98.82900000000001 81.985
    vertex -7.135 97.805 70.266
  endloop
endfacet
facet normal 0.4120956685220021 0.8846866927216925 -0.21796012412034876
  outer loop
    vertex -14.290000000000001 94.953 45.162
    vertex -7.135 97.805 70.266
    vertex -3.607 92.06400000000001 53.634
  endloop
endfacet
facet normal 0.675361005772281 0.7372403284474973 0.019084286543635635
  outer loop
    vertex -14.290000000000001 94.953 45.162
    vertex -6.992 88.494 36.414
    vertex -12.462 94.281 6.432
  endloop
endfacet
facet normal 0.4416366782924212 0.8573047050388299 -0.2645480808947997
  outer loop
    vertex -14.290000000000001 94.953 45.162
    vertex -3.607 92.06400000000001 53.634
    vertex -6.992 88.494 36.414
  endloop
endfacet
facet normal -0.3219331178725587 -0.47471794206575824 -0.819147082701089
  outer loop
    vertex -13.673 -28.937 59.805
    vertex -0.394 -9.859 43.53
    vertex -3.369 -39.01 61.593
  endloop
endfacet
facet normal 0.8736973456113528 0.4850935910678539 -0.03656714613652394
  outer loop
    vertex -13.041 14.835 3.309
    vertex -12.257 15.809000000000001 34.962
    vertex -8.301 6.41 4.797
  endloop
endfacet
facet normal 0.8662440341127735 0.49677086030353534 0.05329151637280842
  outer loop
    vertex -13.041 14.835 3.309
    vertex -8.301 6.41 4.797
    vertex -9.26 8.596 0.008
  endloop
endfacet
facet normal 0.8866438532064257 -0.24908636849924412 0.38963913894669394
  outer loop
    vertex -12.615 72.514 18.742
    vertex -7.6930000000000005 72.261 7.38
    vertex -6.665 86.063 13.864
  endloop
endfacet
facet normal 0.7255496874717223 -0.4918923465676226 -0.4812687091406254
  outer loop
    vertex -12.615 72.514 18.742
    vertex -6.665 86.063 13.864
    vertex -5.198 64.935 37.67
  endloop
endfacet
facet normal 0.835727291759708 0.5471412219898087 -0.04686552045462511
  outer loop
    vertex -12.462 94.281 6.432
    vertex -6.992 88.494 36.414
    vertex -6.665 86.063 13.864
  endloop
endfacet
facet normal 0.8679905076661963 0.47157759358022705 -0.15558615566450865
  outer loop
    vertex -12.462 94.281 6.432
    vertex -6.665 86.063 13.864
    vertex -5.987 80.237 -0.012
  endloop
endfacet
facet normal 0.8822169051394649 -0.4692636580311183 -0.03853506892945816
  outer loop
    vertex -12.302 -1.7690000000000001 12.799
    vertex -8.301 6.41 4.797
    vertex -10.659 -0.718 37.615
  endloop
endfacet
facet normal 0.9141010082508467 -0.05397889432790647 0.4018776252566472
  outer loop
    vertex -12.302 -1.7690000000000001 12.799
    vertex -8.222 -12.004 2.144
    vertex -8.301 6.41 4.797
  endloop
endfacet
facet normal 0.9892607195380563 0.11092952050039039 0.09517284413424101
  outer loop
    vertex -12.257 15.809000000000001 34.962
    vertex -10.659 -0.718 37.615
    vertex -8.301 6.41 4.797
  endloop
endfacet
facet normal 0.7097532438048838 -0.044232669393951346 -0.7030603131074392
  outer loop
    vertex -12.257 15.809000000000001 34.962
    vertex -7.7330000000000005 17.479 39.424
    vertex -10.659 -0.718 37.615
  endloop
endfacet
facet normal -0.7283634918491074 -0.050384713417724276 -0.6833359381703769
  outer loop
    vertex -12.19 -87.027 75.438
    vertex -5.803 -82.753 68.315
    vertex -4.747 -99.741 68.44200000000001
  endloop
endfacet
facet normal -0.7643244013074487 -0.1918319760953678 0.6156368268007985
  outer loop
    vertex -12.19 -87.027 75.438
    vertex -5.1850000000000005 -103.307 79.062
    vertex 1.078 -93.033 90.039
  endloop
endfacet
facet normal -0.8887980640255582 -0.42214832453435774 -0.17840625963584947
  outer loop
    vertex -12.19 -87.027 75.438
    vertex -4.747 -99.741 68.44200000000001
    vertex -5.1850000000000005 -103.307 79.062
  endloop
endfacet
facet normal -0.4713964038872692 0.7571065595196562 0.45229977662437554
  outer loop
    vertex -12.098 86.177 103.108
    vertex 0.191 95.23 100.762
    vertex -12.045 98.82900000000001 81.985
  endloop
endfacet
facet normal -0.17267991565759808 0.46009420232874787 0.8709161680161631
  outer loop
    vertex -12.098 86.177 103.108
    vertex 3.8770000000000002 73.607 112.916
    vertex 0.191 95.23 100.762
  endloop
endfacet
facet normal -0.5668019947650419 0.7655671265113111 -0.3043722614424382
  outer loop
    vertex -12.045 98.82900000000001 81.985
    vertex -0.085 105.552 76.623
    vertex -7.135 97.805 70.266
  endloop
endfacet
facet normal -0.32048452809388284 0.8696372957508127 0.37552715093805755
  outer loop
    vertex -12.045 98.82900000000001 81.985
    vertex 0.191 95.23 100.762
    vertex -0.085 105.552 76.623
  endloop
endfacet
facet normal -0.16763499032464238 -0.5245599730270665 0.8347067417462857
  outer loop
    vertex -10.845 -70.384 108.19500000000001
    vertex -9.622 -87.806 97.492
    vertex 6.049 -87.21600000000001 101.01
  endloop
endfacet
facet normal 0.1305877167044131 -0.27547656489450956 0.9523967190408885
  outer loop
    vertex -10.845 -70.384 108.19500000000001
    vertex 6.049 -87.21600000000001 101.01
    vertex -8.471 -60.854 110.626
  endloop
endfacet
facet normal 0.5026770562985634 0.005109281103977923 -0.8644591790926923
  outer loop
    vertex -10.659 -0.718 37.615
    vertex -7.7330000000000005 17.479 39.424
    vertex -0.394 -9.859 43.53
  endloop
endfacet
facet normal 0.4053417350470789 -0.9091836361087411 -0.09530579028113648
  outer loop
    vertex -10.556000000000001 -12.815 -0.046
    vertex -9.698 -12.446 0.083
    vertex -8.222 -12.004 2.144
  endloop
endfacet
facet normal 0.2328150271384442 -0.20932401500302872 -0.949726602702871
  outer loop
    vertex -10.556000000000001 -12.815 -0.046
    vertex -9.482 -12.174 0.076
    vertex -9.698 -12.446 0.083
  endloop
endfacet
facet normal 0.11551030144900948 -0.004486635776553754 -0.9932961493726671
  outer loop
    vertex -10.556000000000001 -12.815 -0.046
    vertex -9.26 8.596 0.008
    vertex -9.482 -12.174 0.076
  endloop
endfacet
facet normal -0.24594339986678057 0.2229173598554924 0.9433025467669564
  outer loop
    vertex -9.832 14.019 111.151
    vertex -8.297 -5.691 116.209
    vertex 0.202 6.4830000000000005 115.548
  endloop
endfacet
facet normal -0.3471575874201357 0.08280919998298068 0.9341435895486354
  outer loop
    vertex -9.832 14.019 111.151
    vertex 0.202 6.4830000000000005 115.548
    vertex 1.725 35.463 113.545
  endloop
endfacet
facet normal 0.7736019314136765 -0.6179419476433942 -0.14031322480692332
  outer loop
    vertex -9.698 -12.446 0.083
    vertex -9.587 -12.3 0.052000000000000005
    vertex -9.482 -12.174 0.076
  endloop
endfacet
facet normal 0.716537842403998 -0.5790257688105722 -0.3889764510305851
  outer loop
    vertex -9.698 -12.446 0.083
    vertex -9.482 -12.174 0.076
    vertex -8.222 -12.004 2.144
  endloop
endfacet
facet normal -0.0784215178912624 -0.8656302617570266 0.4945041106624816
  outer loop
    vertex -9.622 -87.806 97.492
    vertex 1.078 -93.033 90.039
    vertex 6.049 -87.21600000000001 101.01
  endloop
endfacet
facet normal 0.8543205263473487 -0.0108326549128061 -0.5196336130863066
  outer loop
    vertex -9.482 -12.174 0.076
    vertex -9.26 8.596 0.008
    vertex -8.222 -12.004 2.144
  endloop
endfacet
facet normal 0.9826692170745127 0.030557377891423595 -0.18283177095506478
  outer loop
    vertex -9.26 8.596 0.008
    vertex -8.301 6.41 4.797
    vertex -8.222 -12.004 2.144
  endloop
endfacet
facet normal 0.005953901902224703 0.10959630574334453 -0.9939583496402402
  outer loop
    vertex -8.838000000000001 37.671 34.642
    vertex -5.198 64.935 37.67
    vertex 8.147 36.712 34.638
  endloop
endfacet
facet normal -0.013278486912803422 -0.23111966773464898 -0.9728347141069402
  outer loop
    vertex -8.838000000000001 37.671 34.642
    vertex 8.147 36.712 34.638
    vertex -7.7330000000000005 17.479 39.424
  endloop
endfacet
facet normal -0.08754390124918336 -0.38356883140487064 0.9193535864556005
  outer loop
    vertex -8.471 -60.854 110.626
    vertex 6.049 -87.21600000000001 101.01
    vertex 10.822000000000001 -68.855 109.125
  endloop
endfacet
facet normal 0.051590627794750835 0.2191668892066573 0.9743224732085474
  outer loop
    vertex -8.471 -60.854 110.626
    vertex 8.031 -55.425000000000004 108.531
    vertex -8.369 -45.523 107.172
  endloop
endfacet
facet normal 0.10440723453253672 0.06558957916819422 0.9923694556372677
  outer loop
    vertex -8.471 -60.854 110.626
    vertex 10.822000000000001 -68.855 109.125
    vertex 8.031 -55.425000000000004 108.531
  endloop
endfacet
facet normal -0.152715306887319 -0.11827148481574548 0.9811676161195859
  outer loop
    vertex -8.369 -45.523 107.172
    vertex 8.031 -55.425000000000004 108.531
    vertex 0.47400000000000003 -23.849 111.161
  endloop
endfacet
facet normal 0.0410737411908598 -0.24915455440474255 0.9675923500131449
  outer loop
    vertex -8.297 -5.691 116.209
    vertex 0.47400000000000003 -23.849 111.161
    vertex 9.843 -5.92 115.38
  endloop
endfacet
facet normal 0.04592049759339452 0.022167061629527498 0.9986991184933968
  outer loop
    vertex -8.297 -5.691 116.209
    vertex 9.843 -5.92 115.38
    vertex 0.202 6.4830000000000005 115.548
  endloop
endfacet
facet normal 0.03201033054945783 -0.14004273617045185 -0.989627895112101
  outer loop
    vertex -7.7330000000000005 17.479 39.424
    vertex 4.071 16.347 39.966
    vertex -0.394 -9.859 43.53
  endloop
endfacet
facet normal 0.01974546818237195 -0.25675403953625914 -0.9662750538371938
  outer loop
    vertex -7.7330000000000005 17.479 39.424
    vertex 8.147 36.712 34.638
    vertex 4.071 16.347 39.966
  endloop
endfacet
facet normal 0.9878755385240184 -0.11990592699669832 0.09861282399841836
  outer loop
    vertex -7.6930000000000005 72.261 7.38
    vertex -5.987 80.237 -0.012
    vertex -6.665 86.063 13.864
  endloop
endfacet
facet normal 0.015079269520059696 0.6260371507587564 -0.7796474212748988
  outer loop
    vertex -7.135 97.805 70.266
    vertex -0.085 105.552 76.623
    vertex 8.739 99.277 71.755
  endloop
endfacet
facet normal -0.05563067342303784 0.9401085264220419 -0.3363051987749761
  outer loop
    vertex -7.135 97.805 70.266
    vertex 8.739 99.277 71.755
    vertex -3.607 92.06400000000001 53.634
  endloop
endfacet
facet normal 0.8223018976232235 0.5030853714082031 -0.2659411555970908
  outer loop
    vertex -6.992 88.494 36.414
    vertex -3.607 92.06400000000001 53.634
    vertex -1.493 79.639 36.666000000000004
  endloop
endfacet
facet normal 0.8492480176034284 0.5261236732146289 -0.04440366065758012
  outer loop
    vertex -6.992 88.494 36.414
    vertex -1.493 79.639 36.666000000000004
    vertex -6.665 86.063 13.864
  endloop
endfacet
facet normal 0.9258573845478666 -0.2524866817751281 -0.28113800704346054
  outer loop
    vertex -6.665 86.063 13.864
    vertex -1.493 79.639 36.666000000000004
    vertex -5.198 64.935 37.67
  endloop
endfacet
facet normal -0.022545359685535532 -0.008875124557135837 -0.9997064263676338
  outer loop
    vertex -5.803 -82.753 68.315
    vertex 5.579 -87.336 68.099
    vertex -4.747 -99.741 68.44200000000001
  endloop
endfacet
facet normal -0.09645559505724843 -0.19353437394468762 -0.9763404960791037
  outer loop
    vertex -5.803 -82.753 68.315
    vertex 8.457 -65.978 63.581
    vertex 5.579 -87.336 68.099
  endloop
endfacet
facet normal 0.24640733226110909 -0.12768636573757142 -0.960718282647257
  outer loop
    vertex -5.198 64.935 37.67
    vertex -1.493 79.639 36.666000000000004
    vertex 0.737 76.614 37.64
  endloop
endfacet
facet normal -0.1794752102128457 0.08868847285587307 -0.979756604316372
  outer loop
    vertex -5.198 64.935 37.67
    vertex 0.737 76.614 37.64
    vertex 8.708 63.801 35.02
  endloop
endfacet
facet normal -0.19751753730829963 -0.5864734178456253 -0.7855162331970835
  outer loop
    vertex -5.198 64.935 37.67
    vertex 8.708 63.801 35.02
    vertex 20.228 48.156 43.804
  endloop
endfacet
facet normal 0.39648931461015574 0.2813556403266622 -0.8738622471856435
  outer loop
    vertex -5.198 64.935 37.67
    vertex 20.228 48.156 43.804
    vertex 8.147 36.712 34.638
  endloop
endfacet
facet normal -0.17039610120615997 -0.9319790778111904 -0.3199690097742956
  outer loop
    vertex -5.1850000000000005 -103.307 79.062
    vertex -4.747 -99.741 68.44200000000001
    vertex 7.034 -103.936 74.387
  endloop
endfacet
facet normal 0.19353276928453486 -0.7689632596603121 0.6092951440030081
  outer loop
    vertex -5.1850000000000005 -103.307 79.062
    vertex 7.034 -103.936 74.387
    vertex 1.078 -93.033 90.039
  endloop
endfacet
facet normal 0.33934374184674987 -0.3070565886015488 -0.8891355781127116
  outer loop
    vertex -4.747 -99.741 68.44200000000001
    vertex 5.579 -87.336 68.099
    vertex 7.034 -103.936 74.387
  endloop
endfacet
facet normal -0.36367994366005474 0.7293930311439797 -0.5794158305552384
  outer loop
    vertex -3.607 92.06400000000001 53.634
    vertex 5.247 88.627 43.75
    vertex -1.493 79.639 36.666000000000004
  endloop
endfacet
facet normal -0.029844643779387718 0.9355081618421925 -0.3520422934312346
  outer loop
    vertex -3.607 92.06400000000001 53.634
    vertex 8.739 99.277 71.755
    vertex 5.247 88.627 43.75
  endloop
endfacet
facet normal 0.25670315773393654 -0.5278604600869462 -0.8096090559561591
  outer loop
    vertex -3.369 -39.01 61.593
    vertex -0.394 -9.859 43.53
    vertex 16.133 -28.049 60.63
  endloop
endfacet
facet normal 0.4880854196132899 0.1506610196152914 -0.8596940620531233
  outer loop
    vertex -3.369 -39.01 61.593
    vertex 4.684 -51.073 64.051
    vertex 8.457 -65.978 63.581
  endloop
endfacet
facet normal 0.046633366210507954 -0.16946017763814844 -0.98443312487478
  outer loop
    vertex -3.369 -39.01 61.593
    vertex 16.133 -28.049 60.63
    vertex 4.684 -51.073 64.051
  endloop
endfacet
facet normal 0.5884472904565247 0.17999538673683757 -0.7882458037362653
  outer loop
    vertex -1.493 79.639 36.666000000000004
    vertex 5.247 88.627 43.75
    vertex 0.737 76.614 37.64
  endloop
endfacet
facet normal -0.2165284201284017 -0.09524729316605125 -0.9716189563924936
  outer loop
    vertex -0.394 -9.859 43.53
    vertex 4.071 16.347 39.966
    vertex 9.866 -1.448 40.419000000000004
  endloop
endfacet
facet normal 0.21469156415373214 -0.5582966798590112 -0.8013815255791891
  outer loop
    vertex -0.394 -9.859 43.53
    vertex 9.866 -1.448 40.419000000000004
    vertex 16.133 -28.049 60.63
  endloop
endfacet
facet normal 0.2642860105878001 0.8878623756428237 0.3766341813025824
  outer loop
    vertex -0.085 105.552 76.623
    vertex 0.191 95.23 100.762
    vertex 11.309000000000001 96.955 88.894
  endloop
endfacet
facet normal 0.5872695693399479 0.8091043003715759 0.021556531434688466
  outer loop
    vertex -0.085 105.552 76.623
    vertex 11.309000000000001 96.955 88.894
    vertex 8.739 99.277 71.755
  endloop
endfacet
facet normal 0.3643624413672628 0.5027318943321295 0.7839009208708181
  outer loop
    vertex 0.191 95.23 100.762
    vertex 3.8770000000000002 73.607 112.916
    vertex 16.352 83.765 100.60300000000001
  endloop
endfacet
facet normal 0.48559306297470795 0.676816215353757 0.5532803880719597
  outer loop
    vertex 0.191 95.23 100.762
    vertex 16.352 83.765 100.60300000000001
    vertex 11.309000000000001 96.955 88.894
  endloop
endfacet
facet normal 0.3303566028114455 0.24444168003064842 0.9116538707440862
  outer loop
    vertex 0.202 6.4830000000000005 115.548
    vertex 9.843 -5.92 115.38
    vertex 14.599 15.333 107.958
  endloop
endfacet
facet normal 0.44752096602284674 0.038233865176378834 0.893455738424491
  outer loop
    vertex 0.202 6.4830000000000005 115.548
    vertex 14.599 15.333 107.958
    vertex 1.725 35.463 113.545
  endloop
endfacet
facet normal 0.4314464725673011 0.02815341630959599 0.9016991330035378
  outer loop
    vertex 0.47400000000000003 -23.849 111.161
    vertex 8.031 -55.425000000000004 108.531
    vertex 14.314 -29.62 104.71900000000001
  endloop
endfacet
facet normal 0.27027666712449916 -0.3521011302758417 0.8960889003143312
  outer loop
    vertex 0.47400000000000003 -23.849 111.161
    vertex 14.314 -29.62 104.71900000000001
    vertex 9.843 -5.92 115.38
  endloop
endfacet
facet normal -0.92135671413095 0.3821346961509481 -0.07123818725544213
  outer loop
    vertex 0.737 76.614 37.64
    vertex 5.247 88.627 43.75
    vertex 6.574 86.435 14.829
  endloop
endfacet
facet normal -0.8148865880099383 -0.42673704469433466 -0.3922439844880564
  outer loop
    vertex 0.737 76.614 37.64
    vertex 6.574 86.435 14.829
    vertex 8.708 63.801 35.02
  endloop
endfacet
facet normal 0.8158333136446234 -0.2803913420849629 0.5057634819077261
  outer loop
    vertex 1.078 -93.033 90.039
    vertex 7.034 -103.936 74.387
    vertex 12.436 -85.729 75.767
  endloop
endfacet
facet normal 0.5663719939282977 -0.8236315143231553 0.029221449440953076
  outer loop
    vertex 1.078 -93.033 90.039
    vertex 12.436 -85.729 75.767
    vertex 21.305 -79.135 89.72500000000001
  endloop
endfacet
facet normal 0.5593139569255224 -0.8100415514749384 0.17606982271925434
  outer loop
    vertex 1.078 -93.033 90.039
    vertex 21.305 -79.135 89.72500000000001
    vertex 6.049 -87.21600000000001 101.01
  endloop
endfacet
facet normal 0.4336049212983365 0.027326492688881338 0.9006886448841175
  outer loop
    vertex 1.725 35.463 113.545
    vertex 14.599 15.333 107.958
    vertex 18.486 53.855000000000004 104.918
  endloop
endfacet
facet normal 0.46783656048500294 -0.01182137094302494 0.88373593785847
  outer loop
    vertex 1.725 35.463 113.545
    vertex 18.486 53.855000000000004 104.918
    vertex 3.8770000000000002 73.607 112.916
  endloop
endfacet
facet normal 0.6272506210533839 0.15486594963361555 0.7632648269324498
  outer loop
    vertex 3.8770000000000002 73.607 112.916
    vertex 18.486 53.855000000000004 104.918
    vertex 16.352 83.765 100.60300000000001
  endloop
endfacet
facet normal 0.3690181206744094 -0.30367293044577753 -0.8784124190426732
  outer loop
    vertex 4.071 16.347 39.966
    vertex 8.147 36.712 34.638
    vertex 21.691 19.642 46.229
  endloop
endfacet
facet normal -0.5054608055804071 -0.18605345995286376 -0.8425517693658794
  outer loop
    vertex 4.071 16.347 39.966
    vertex 11.995000000000001 15.447000000000001 35.411
    vertex 9.866 -1.448 40.419000000000004
  endloop
endfacet
facet normal -0.06849882661905565 0.9493268279734537 -0.3067352024819992
  outer loop
    vertex 4.071 16.347 39.966
    vertex 21.691 19.642 46.229
    vertex 11.995000000000001 15.447000000000001 35.411
  endloop
endfacet
facet normal 0.5042868317590794 -0.36691312196983306 -0.7817093783758389
  outer loop
    vertex 4.684 -51.073 64.051
    vertex 16.133 -28.049 60.63
    vertex 16.985 -53.929 73.327
  endloop
endfacet
facet normal 0.6185758964686053 0.18069637328915386 -0.7646650776570145
  outer loop
    vertex 4.684 -51.073 64.051
    vertex 16.985 -53.929 73.327
    vertex 8.457 -65.978 63.581
  endloop
endfacet
facet normal -0.8292998069148682 0.059386260889771295 0.5556393634980287
  outer loop
    vertex 4.9190000000000005 78.977 0.003
    vertex 6.113 63.708 3.4170000000000003
    vertex 12.799 72.016 12.508000000000001
  endloop
endfacet
facet normal -0.857229149314877 0.49204418598319577 -0.1518245849822298
  outer loop
    vertex 4.9190000000000005 78.977 0.003
    vertex 6.574 86.435 14.829
    vertex 12.744 94.522 6.2010000000000005
  endloop
endfacet
facet normal -0.6542043819698842 -0.21339206024199592 -0.7255897292803133
  outer loop
    vertex 4.9190000000000005 78.977 0.003
    vertex 10.176 62.738 0.039
    vertex 6.113 63.708 3.4170000000000003
  endloop
endfacet
facet normal -0.5199228295322335 0.5291024384854723 -0.6706197588200955
  outer loop
    vertex 4.9190000000000005 78.977 0.003
    vertex 12.744 94.522 6.2010000000000005
    vertex 13.534 87.44 0.001
  endloop
endfacet
facet normal -0.8551618692377171 -0.418440513706935 0.30595050889078407
  outer loop
    vertex 4.9190000000000005 78.977 0.003
    vertex 12.799 72.016 12.508000000000001
    vertex 6.574 86.435 14.829
  endloop
endfacet
facet normal 0.00039840341764118295 -0.0006418817053339601 -0.9999997146312559
  outer loop
    vertex 4.9190000000000005 78.977 0.003
    vertex 13.534 87.44 0.001
    vertex 26.914 70.818 0.017
  endloop
endfacet
facet normal -0.00021120269005427055 -0.0022852514154713586 -0.9999973665062283
  outer loop
    vertex 4.9190000000000005 78.977 0.003
    vertex 26.914 70.818 0.017
    vertex 10.176 62.738 0.039
  endloop
endfacet
facet normal -0.5506163032512373 0.80074527627253 -0.23585734909298733
  outer loop
    vertex 5.247 88.627 43.75
    vertex 8.739 99.277 71.755
    vertex 15.082 92.637 34.404
  endloop
endfacet
facet normal -0.4466356748244208 0.8903799897593081 -0.08797754151116524
  outer loop
    vertex 5.247 88.627 43.75
    vertex 15.082 92.637 34.404
    vertex 6.574 86.435 14.829
  endloop
endfacet
facet normal 0.7487264582257336 -0.23222787847049914 -0.6208694735722154
  outer loop
    vertex 5.579 -87.336 68.099
    vertex 8.457 -65.978 63.581
    vertex 12.436 -85.729 75.767
  endloop
endfacet
facet normal 0.7518676718145456 -0.17489602689837883 -0.6356936242053527
  outer loop
    vertex 5.579 -87.336 68.099
    vertex 12.436 -85.729 75.767
    vertex 7.034 -103.936 74.387
  endloop
endfacet
facet normal 0.6729318488171004 -0.4382887759651978 0.5958738756738103
  outer loop
    vertex 6.049 -87.21600000000001 101.01
    vertex 21.305 -79.135 89.72500000000001
    vertex 10.822000000000001 -68.855 109.125
  endloop
endfacet
facet normal -0.3216349535297761 -0.939601311924083 -0.11704841433543944
  outer loop
    vertex 6.113 63.708 3.4170000000000003
    vertex 10.176 62.738 0.039
    vertex 20.211000000000002 58.733000000000004 4.614
  endloop
endfacet
facet normal -0.275518826556875 -0.6000614604484967 0.7510097335568561
  outer loop
    vertex 6.113 63.708 3.4170000000000003
    vertex 20.211000000000002 58.733000000000004 4.614
    vertex 12.799 72.016 12.508000000000001
  endloop
endfacet
facet normal -0.895433578294801 -0.3403906655387006 -0.286937104042487
  outer loop
    vertex 6.574 86.435 14.829
    vertex 12.799 72.016 12.508000000000001
    vertex 8.708 63.801 35.02
  endloop
endfacet
facet normal -0.7329884282386269 0.671982363054539 0.10567718680919434
  outer loop
    vertex 6.574 86.435 14.829
    vertex 15.082 92.637 34.404
    vertex 12.744 94.522 6.2010000000000005
  endloop
endfacet
facet normal -0.9252439570668947 0.36935443511022775 -0.08660785862494676
  outer loop
    vertex 6.673 -1.216 0.11800000000000001
    vertex 8.936 7.349 12.469
    vertex 12.969 14.528 0
  endloop
endfacet
facet normal -0.8598503057734158 -0.21138486589740904 0.46472991094925004
  outer loop
    vertex 6.673 -1.216 0.11800000000000001
    vertex 9.344 -12.415000000000001 -0.034
    vertex 13.991 -3.744 12.508000000000001
  endloop
endfacet
facet normal -0.032981978698097124 0.005698720356902821 -0.9994396998656058
  outer loop
    vertex 6.673 -1.216 0.11800000000000001
    vertex 12.969 14.528 0
    vertex 9.344 -12.415000000000001 -0.034
  endloop
endfacet
facet normal -0.8292876080026221 -0.37644837947573145 0.41299961356323966
  outer loop
    vertex 6.673 -1.216 0.11800000000000001
    vertex 13.991 -3.744 12.508000000000001
    vertex 8.936 7.349 12.469
  endloop
endfacet
facet normal 0.5223655725171186 0.14571768967014995 0.8401788878364279
  outer loop
    vertex 8.031 -55.425000000000004 108.531
    vertex 10.822000000000001 -68.855 109.125
    vertex 17.027 -55.316 102.919
  endloop
endfacet
facet normal 0.4478436957205192 0.5191250391158148 0.7279733635006098
  outer loop
    vertex 8.031 -55.425000000000004 108.531
    vertex 17.027 -55.316 102.919
    vertex 20.061 -37.886 88.623
  endloop
endfacet
facet normal 0.9008588897175123 -0.15971025942320502 0.4036655717941571
  outer loop
    vertex 8.031 -55.425000000000004 108.531
    vertex 20.061 -37.886 88.623
    vertex 14.314 -29.62 104.71900000000001
  endloop
endfacet
facet normal 0.6297668631187404 -0.043643511559744094 -0.7755571816547869
  outer loop
    vertex 8.147 36.712 34.638
    vertex 20.228 48.156 43.804
    vertex 25.448 29.457 49.095
  endloop
endfacet
facet normal 0.6365266215793173 -0.018507485385958082 -0.7710326406874802
  outer loop
    vertex 8.147 36.712 34.638
    vertex 25.448 29.457 49.095
    vertex 21.691 19.642 46.229
  endloop
endfacet
facet normal 0.7168118083887434 0.054900242382274984 -0.6951020031195615
  outer loop
    vertex 8.457 -65.978 63.581
    vertex 16.985 -53.929 73.327
    vertex 22.173000000000002 -71.098 77.321
  endloop
endfacet
facet normal 0.6055883051581652 -0.32591378842065766 -0.7259772773117322
  outer loop
    vertex 8.457 -65.978 63.581
    vertex 22.173000000000002 -71.098 77.321
    vertex 12.436 -85.729 75.767
  endloop
endfacet
facet normal 0.4349829618487702 -0.8684526109243805 -0.2378652674938012
  outer loop
    vertex 8.708 63.801 35.02
    vertex 12.799 72.016 12.508000000000001
    vertex 20.505 75.687 13.197000000000001
  endloop
endfacet
facet normal 0.7067804842091481 0.12999947962196795 -0.6953858514803847
  outer loop
    vertex 8.708 63.801 35.02
    vertex 20.032 58.037 45.452
    vertex 20.228 48.156 43.804
  endloop
endfacet
facet normal -0.004248808387499316 -0.8772161994961251 -0.480076751123048
  outer loop
    vertex 8.708 63.801 35.02
    vertex 20.505 75.687 13.197000000000001
    vertex 20.032 58.037 45.452
  endloop
endfacet
facet normal 0.45917789059447295 0.8868619514999719 0.051298574745034006
  outer loop
    vertex 8.739 99.277 71.755
    vertex 11.309000000000001 96.955 88.894
    vertex 25.993000000000002 89.816 80.877
  endloop
endfacet
facet normal 0.46904280798656073 0.8827204892355317 0.02834399689292295
  outer loop
    vertex 8.739 99.277 71.755
    vertex 25.993000000000002 89.816 80.877
    vertex 26.026 90.556 57.285000000000004
  endloop
endfacet
facet normal 0.38113094504791845 0.9192383667699557 -0.09869157909864791
  outer loop
    vertex 8.739 99.277 71.755
    vertex 26.026 90.556 57.285000000000004
    vertex 15.082 92.637 34.404
  endloop
endfacet
facet normal -0.9858424936694421 0.14773594141819915 0.07930113043894377
  outer loop
    vertex 8.936 7.349 12.469
    vertex 9.866 -1.448 40.419000000000004
    vertex 11.995000000000001 15.447000000000001 35.411
  endloop
endfacet
facet normal -0.8185613040364118 0.5671572600193983 -0.09104962351101484
  outer loop
    vertex 8.936 7.349 12.469
    vertex 11.995000000000001 15.447000000000001 35.411
    vertex 15.288 17.625 19.373
  endloop
endfacet
facet normal -0.9052945351646066 -0.41288715762618144 -0.09982985359336066
  outer loop
    vertex 8.936 7.349 12.469
    vertex 13.991 -3.744 12.508000000000001
    vertex 9.866 -1.448 40.419000000000004
  endloop
endfacet
facet normal -0.8564055970719074 0.5159146138017902 0.020039076068012696
  outer loop
    vertex 8.936 7.349 12.469
    vertex 15.288 17.625 19.373
    vertex 12.969 14.528 0
  endloop
endfacet
facet normal 0.018925107911066896 -0.0012845501055623982 -0.9998200789249938
  outer loop
    vertex 9.344 -12.415000000000001 -0.034
    vertex 12.969 14.528 0
    vertex 30.936 -10.31 0.372
  endloop
endfacet
facet normal -0.4210219209344711 -0.6656280825110861 0.6161816273350436
  outer loop
    vertex 9.344 -12.415000000000001 -0.034
    vertex 19.25 -17.967 0.737
    vertex 13.991 -3.744 12.508000000000001
  endloop
endfacet
facet normal 0.02742897716340669 -0.08932194990656568 -0.9956250501452132
  outer loop
    vertex 9.344 -12.415000000000001 -0.034
    vertex 30.936 -10.31 0.372
    vertex 19.25 -17.967 0.737
  endloop
endfacet
facet normal 0.4982530668208958 -0.275769028440737 0.8220068882658004
  outer loop
    vertex 9.843 -5.92 115.38
    vertex 14.314 -29.62 104.71900000000001
    vertex 25.926000000000002 -14.643 102.705
  endloop
endfacet
facet normal 0.579617716987711 0.15000630748471996 0.8009628018009034
  outer loop
    vertex 9.843 -5.92 115.38
    vertex 22.799 7.8740000000000006 103.421
    vertex 14.599 15.333 107.958
  endloop
endfacet
facet normal 0.6389972455927582 0.06436569231915085 0.7665113030980985
  outer loop
    vertex 9.843 -5.92 115.38
    vertex 25.926000000000002 -14.643 102.705
    vertex 22.799 7.8740000000000006 103.421
  endloop
endfacet
facet normal -0.37805896425800045 -0.9255597144165211 0.02026412083895533
  outer loop
    vertex 9.866 -1.448 40.419000000000004
    vertex 13.991 -3.744 12.508000000000001
    vertex 22.027 -6.594 32.259
  endloop
endfacet
facet normal -0.44490989848670753 -0.6058969184088051 -0.6595029237928074
  outer loop
    vertex 9.866 -1.448 40.419000000000004
    vertex 19.282 -16.197 47.617000000000004
    vertex 16.133 -28.049 60.63
  endloop
endfacet
facet normal -0.5995026619843264 -0.6260765942651162 -0.49862275959596886
  outer loop
    vertex 9.866 -1.448 40.419000000000004
    vertex 22.027 -6.594 32.259
    vertex 19.282 -16.197 47.617000000000004
  endloop
endfacet
facet normal 0.21582311918673633 -0.4494452904696577 -0.8668444566928676
  outer loop
    vertex 10.176 62.738 0.039
    vertex 26.914 70.818 0.017
    vertex 20.211000000000002 58.733000000000004 4.614
  endloop
endfacet
facet normal 0.31277309470900466 -0.7589153066603183 0.5711572012527086
  outer loop
    vertex 10.822000000000001 -68.855 109.125
    vertex 21.305 -79.135 89.72500000000001
    vertex 23.592 -66.178 105.68900000000001
  endloop
endfacet
facet normal 0.17661135428681426 0.34210368221642895 0.9229157600512291
  outer loop
    vertex 10.822000000000001 -68.855 109.125
    vertex 23.592 -66.178 105.68900000000001
    vertex 17.027 -55.316 102.919
  endloop
endfacet
facet normal 0.5820607073396458 0.6528601838305793 0.4847462360245551
  outer loop
    vertex 11.309000000000001 96.955 88.894
    vertex 16.352 83.765 100.60300000000001
    vertex 25.993000000000002 89.816 80.877
  endloop
endfacet
facet normal -0.4290140148157711 0.9026390102098427 0.034493366594881184
  outer loop
    vertex 11.995000000000001 15.447000000000001 35.411
    vertex 21.691 19.642 46.229
    vertex 15.288 17.625 19.373
  endloop
endfacet
facet normal 0.8136189856079112 -0.5122611537021634 -0.2749775566588698
  outer loop
    vertex 12.436 -85.729 75.767
    vertex 22.173000000000002 -71.098 77.321
    vertex 21.305 -79.135 89.72500000000001
  endloop
endfacet
facet normal 0.30333161081972043 0.9521073756649135 0.03848998677558679
  outer loop
    vertex 12.744 94.522 6.2010000000000005
    vertex 15.082 92.637 34.404
    vertex 22.294 90.251 36.589
  endloop
endfacet
facet normal 0.46470357904293974 0.8852021399929628 -0.02162764380512545
  outer loop
    vertex 12.744 94.522 6.2010000000000005
    vertex 22.294 90.251 36.589
    vertex 23.740000000000002 88.79 7.861
  endloop
endfacet
facet normal 0.42395377460131844 0.62288625308412 -0.6574769294204323
  outer loop
    vertex 12.744 94.522 6.2010000000000005
    vertex 23.740000000000002 88.79 7.861
    vertex 13.534 87.44 0.001
  endloop
endfacet
facet normal 0.13512758195273358 -0.4493921220654558 0.8830556365377631
  outer loop
    vertex 12.799 72.016 12.508000000000001
    vertex 20.211000000000002 58.733000000000004 4.614
    vertex 20.505 75.687 13.197000000000001
  endloop
endfacet
facet normal 0.06576931967456119 0.984066839265187 -0.1651873253254319
  outer loop
    vertex 12.969 14.528 0
    vertex 15.288 17.625 19.373
    vertex 25.167 13.864 0.901
  endloop
endfacet
facet normal 0.07576438276626657 0.0398834337051267 -0.996327792455844
  outer loop
    vertex 12.969 14.528 0
    vertex 25.167 13.864 0.901
    vertex 30.936 -10.31 0.372
  endloop
endfacet
facet normal 0.5192272622013958 0.4172378123502787 -0.7458657105216707
  outer loop
    vertex 13.534 87.44 0.001
    vertex 23.740000000000002 88.79 7.861
    vertex 26.914 70.818 0.017
  endloop
endfacet
facet normal -0.30511164767467475 -0.6715958324125942 0.6751784359258519
  outer loop
    vertex 13.991 -3.744 12.508000000000001
    vertex 19.25 -17.967 0.737
    vertex 25.903000000000002 -14.485 7.207
  endloop
endfacet
facet normal 0.244469735847558 -0.19740963091506353 0.9493492433644235
  outer loop
    vertex 13.991 -3.744 12.508000000000001
    vertex 25.903000000000002 -14.485 7.207
    vertex 26.808 0.404 10.07
  endloop
endfacet
facet normal 0.25734222055972616 -0.936098717402322 -0.23977942529565988
  outer loop
    vertex 13.991 -3.744 12.508000000000001
    vertex 26.808 0.404 10.07
    vertex 22.027 -6.594 32.259
  endloop
endfacet
facet normal 0.8453097040825914 -0.28825473354309045 0.4498452097931063
  outer loop
    vertex 14.314 -29.62 104.71900000000001
    vertex 20.061 -37.886 88.623
    vertex 26.793 -23.004 85.509
  endloop
endfacet
facet normal 0.7712145163366382 -0.5563359496442837 0.3093840346964246
  outer loop
    vertex 14.314 -29.62 104.71900000000001
    vertex 26.793 -23.004 85.509
    vertex 25.926000000000002 -14.643 102.705
  endloop
endfacet
facet normal 0.6232949148812091 0.23074328375788392 0.7471686463468972
  outer loop
    vertex 14.599 15.333 107.958
    vertex 22.799 7.8740000000000006 103.421
    vertex 30.93 47.829 84.299
  endloop
endfacet
facet normal 0.8495495468430609 -0.044240221008355056 0.5256504259523449
  outer loop
    vertex 14.599 15.333 107.958
    vertex 30.93 47.829 84.299
    vertex 18.486 53.855000000000004 104.918
  endloop
endfacet
facet normal 0.3333608458868884 0.939893500731863 -0.07396454361098861
  outer loop
    vertex 15.082 92.637 34.404
    vertex 26.026 90.556 57.285000000000004
    vertex 22.294 90.251 36.589
  endloop
endfacet
facet normal 0.16022936342843794 0.9807213145443169 -0.11185818831799846
  outer loop
    vertex 15.288 17.625 19.373
    vertex 21.691 19.642 46.229
    vertex 27.891000000000002 16.459 27.203
  endloop
endfacet
facet normal 0.16116783686277258 0.9803882963575077 -0.11341832623610092
  outer loop
    vertex 15.288 17.625 19.373
    vertex 27.891000000000002 16.459 27.203
    vertex 25.167 13.864 0.901
  endloop
endfacet
facet normal 0.5603800116834906 -0.6753344240339989 -0.47947644177819393
  outer loop
    vertex 16.133 -28.049 60.63
    vertex 19.282 -16.197 47.617000000000004
    vertex 33.785000000000004 -12.833 59.829
  endloop
endfacet
facet normal 0.9872061998383354 -0.04284959525860986 -0.15358330373750298
  outer loop
    vertex 16.133 -28.049 60.63
    vertex 20.061 -37.886 88.623
    vertex 16.985 -53.929 73.327
  endloop
endfacet
facet normal 0.8528947296095715 -0.4434649875712529 -0.27551657845335675
  outer loop
    vertex 16.133 -28.049 60.63
    vertex 26.793 -23.004 85.509
    vertex 20.061 -37.886 88.623
  endloop
endfacet
facet normal 0.644715323472864 -0.7544195074307156 -0.12326134222568302
  outer loop
    vertex 16.133 -28.049 60.63
    vertex 33.785000000000004 -12.833 59.829
    vertex 26.793 -23.004 85.509
  endloop
endfacet
facet normal 0.8561891824257309 0.13310765348626907 0.4992218309334415
  outer loop
    vertex 16.352 83.765 100.60300000000001
    vertex 18.486 53.855000000000004 104.918
    vertex 28.678 60.213 85.743
  endloop
endfacet
facet normal 0.8676394623394531 0.1562792908169607 0.47199422311406797
  outer loop
    vertex 16.352 83.765 100.60300000000001
    vertex 28.678 60.213 85.743
    vertex 25.993000000000002 89.816 80.877
  endloop
endfacet
facet normal 0.9831190250555774 -0.014607078263772309 -0.18238315667398383
  outer loop
    vertex 16.985 -53.929 73.327
    vertex 20.061 -37.886 88.623
    vertex 20.553 -60.547000000000004 93.09
  endloop
endfacet
facet normal 0.9591399922992946 0.2706248419773569 -0.08253890038545436
  outer loop
    vertex 16.985 -53.929 73.327
    vertex 20.553 -60.547000000000004 93.09
    vertex 22.173000000000002 -71.098 77.321
  endloop
endfacet
facet normal 0.9509894225930645 0.0795506152282434 0.2988156919121183
  outer loop
    vertex 17.027 -55.316 102.919
    vertex 20.553 -60.547000000000004 93.09
    vertex 20.061 -37.886 88.623
  endloop
endfacet
facet normal 0.8523389238990765 0.5222492725626187 0.027821863963076936
  outer loop
    vertex 17.027 -55.316 102.919
    vertex 23.592 -66.178 105.68900000000001
    vertex 20.553 -60.547000000000004 93.09
  endloop
endfacet
facet normal 0.8645195020576736 0.09977297040144448 0.4925965742260338
  outer loop
    vertex 18.486 53.855000000000004 104.918
    vertex 30.93 47.829 84.299
    vertex 28.678 60.213 85.743
  endloop
endfacet
facet normal 0.5423745525005019 -0.8329801765313556 -0.10942518131432129
  outer loop
    vertex 19.25 -17.967 0.737
    vertex 30.936 -10.31 0.372
    vertex 25.903000000000002 -14.485 7.207
  endloop
endfacet
facet normal 0.6130230312696491 -0.7144967819358101 -0.3371900231862476
  outer loop
    vertex 19.282 -16.197 47.617000000000004
    vertex 22.027 -6.594 32.259
    vertex 30.879 -4.684 44.305
  endloop
endfacet
facet normal 0.5527154787418792 -0.6908345922814403 -0.4661042433474208
  outer loop
    vertex 19.282 -16.197 47.617000000000004
    vertex 30.879 -4.684 44.305
    vertex 33.785000000000004 -12.833 59.829
  endloop
endfacet
facet normal 0.6657649431528445 -0.6586386597761529 -0.3506453426426232
  outer loop
    vertex 20.032 58.037 45.452
    vertex 20.505 75.687 13.197000000000001
    vertex 26.865000000000002 69.368 37.142
  endloop
endfacet
facet normal 0.8763658057884006 0.3268012378603235 -0.3538134047457894
  outer loop
    vertex 20.032 58.037 45.452
    vertex 26.809 59.675000000000004 63.751000000000005
    vertex 30.071 46.874 60.007
  endloop
endfacet
facet normal 0.753395547415072 -0.618359162601686 -0.22366737616757074
  outer loop
    vertex 20.032 58.037 45.452
    vertex 26.865000000000002 69.368 37.142
    vertex 26.809 59.675000000000004 63.751000000000005
  endloop
endfacet
facet normal 0.8537579497555754 0.10208938955371089 -0.5105635315704667
  outer loop
    vertex 20.032 58.037 45.452
    vertex 30.071 46.874 60.007
    vertex 20.228 48.156 43.804
  endloop
endfacet
facet normal 0.9604545770007415 -0.13883993923153928 0.2413513554809857
  outer loop
    vertex 20.211000000000002 58.733000000000004 4.614
    vertex 23.740000000000002 88.79 7.861
    vertex 20.505 75.687 13.197000000000001
  endloop
endfacet
facet normal 0.735755808105848 -0.15753999805364793 0.6586687633794146
  outer loop
    vertex 20.211000000000002 58.733000000000004 4.614
    vertex 26.914 70.818 0.017
    vertex 23.740000000000002 88.79 7.861
  endloop
endfacet
facet normal 0.8541708467693285 0.09372432665354792 -0.5114762116879996
  outer loop
    vertex 20.228 48.156 43.804
    vertex 30.071 46.874 60.007
    vertex 25.448 29.457 49.095
  endloop
endfacet
facet normal 0.9433666155037761 -0.2948404147480397 -0.15208076335998136
  outer loop
    vertex 20.505 75.687 13.197000000000001
    vertex 23.740000000000002 88.79 7.861
    vertex 26.237000000000002 84.645 31.386
  endloop
endfacet
facet normal 0.9603348141935957 -0.06288055727324399 -0.27166722320655207
  outer loop
    vertex 20.505 75.687 13.197000000000001
    vertex 26.237000000000002 84.645 31.386
    vertex 26.865000000000002 69.368 37.142
  endloop
endfacet
facet normal 0.9960088113233335 0.024771612476460148 0.08574855673185783
  outer loop
    vertex 20.553 -60.547000000000004 93.09
    vertex 21.305 -79.135 89.72500000000001
    vertex 22.173000000000002 -71.098 77.321
  endloop
endfacet
facet normal 0.9765193785530508 0.07599830396512765 -0.2015791683304297
  outer loop
    vertex 20.553 -60.547000000000004 93.09
    vertex 23.592 -66.178 105.68900000000001
    vertex 21.305 -79.135 89.72500000000001
  endloop
endfacet
facet normal 0.9114892091546493 -0.2545580052189908 -0.3230907667723732
  outer loop
    vertex 21.691 19.642 46.229
    vertex 25.448 29.457 49.095
    vertex 28.727 16.023 68.93
  endloop
endfacet
facet normal 0.5666971705246083 0.8227244070696375 -0.04448445718805888
  outer loop
    vertex 21.691 19.642 46.229
    vertex 28.727 16.023 68.93
    vertex 32.117 12.556000000000001 47.995000000000005
  endloop
endfacet
facet normal 0.5566544899477868 0.8296512227370187 0.042598444008428035
  outer loop
    vertex 21.691 19.642 46.229
    vertex 32.117 12.556000000000001 47.995000000000005
    vertex 27.891000000000002 16.459 27.203
  endloop
endfacet
facet normal 0.438765031483703 -0.8797854138181121 -0.18292860022423577
  outer loop
    vertex 22.027 -6.594 32.259
    vertex 26.808 0.404 10.07
    vertex 30.879 -4.684 44.305
  endloop
endfacet
facet normal 0.9698311924648012 0.16725623690141642 -0.17734939904008415
  outer loop
    vertex 22.294 90.251 36.589
    vertex 26.026 90.556 57.285000000000004
    vertex 30.329 71.682 63.016
  endloop
endfacet
facet normal 0.8233355071879694 0.5674154156758311 0.012585255537851635
  outer loop
    vertex 22.294 90.251 36.589
    vertex 26.237000000000002 84.645 31.386
    vertex 23.740000000000002 88.79 7.861
  endloop
endfacet
facet normal 0.8546415929002678 0.5098142397167019 0.09837270285487672
  outer loop
    vertex 22.294 90.251 36.589
    vertex 30.329 71.682 63.016
    vertex 26.237000000000002 84.645 31.386
  endloop
endfacet
facet normal 0.860222772169319 0.1035851826798369 0.4992863829211817
  outer loop
    vertex 22.799 7.8740000000000006 103.421
    vertex 25.926000000000002 -14.643 102.705
    vertex 36.745 -5.871 82.245
  endloop
endfacet
facet normal 0.9476391586292868 -0.04129776956048538 0.3166615215994936
  outer loop
    vertex 22.799 7.8740000000000006 103.421
    vertex 28.457 12.207 87.054
    vertex 30.93 47.829 84.299
  endloop
endfacet
facet normal 0.8744990016461536 0.29941586232183226 0.3815778262818139
  outer loop
    vertex 22.799 7.8740000000000006 103.421
    vertex 36.745 -5.871 82.245
    vertex 28.457 12.207 87.054
  endloop
endfacet
facet normal 0.9461305824602451 0.29768608663225504 -0.12735742914730483
  outer loop
    vertex 25.167 13.864 0.901
    vertex 27.891000000000002 16.459 27.203
    vertex 27.922 8.939 9.856
  endloop
endfacet
facet normal 0.9581919748193266 0.23232237686418658 -0.16701632435188452
  outer loop
    vertex 25.167 13.864 0.901
    vertex 27.922 8.939 9.856
    vertex 30.936 -10.31 0.372
  endloop
endfacet
facet normal 0.9585002653743583 -0.08366569701739196 -0.2725386072098384
  outer loop
    vertex 25.448 29.457 49.095
    vertex 30.071 46.874 60.007
    vertex 32.627 35.464 72.499
  endloop
endfacet
facet normal 0.95577297294239 -0.14473277547620203 -0.2560282169914487
  outer loop
    vertex 25.448 29.457 49.095
    vertex 32.627 35.464 72.499
    vertex 28.727 16.023 68.93
  endloop
endfacet
facet normal 0.8379015706346847 -0.15174825921486346 0.5243027977735643
  outer loop
    vertex 25.903000000000002 -14.485 7.207
    vertex 30.936 -10.31 0.372
    vertex 26.808 0.404 10.07
  endloop
endfacet
facet normal 0.8555597758746483 -0.4473145156919796 0.2606284596059525
  outer loop
    vertex 25.926000000000002 -14.643 102.705
    vertex 26.793 -23.004 85.509
    vertex 36.745 -5.871 82.245
  endloop
endfacet
facet normal 0.9857115892929399 0.11032634640897473 0.1272822062255102
  outer loop
    vertex 25.993000000000002 89.816 80.877
    vertex 28.678 60.213 85.743
    vertex 30.329 71.682 63.016
  endloop
endfacet
facet normal 0.9743914171477851 0.2247011798232798 0.008411062641365838
  outer loop
    vertex 25.993000000000002 89.816 80.877
    vertex 30.329 71.682 63.016
    vertex 26.026 90.556 57.285000000000004
  endloop
endfacet
facet normal 0.9912220997562202 -0.008951428809795095 -0.13190383192740518
  outer loop
    vertex 26.237000000000002 84.645 31.386
    vertex 30.329 71.682 63.016
    vertex 26.865000000000002 69.368 37.142
  endloop
endfacet
facet normal 0.8672853270820114 -0.496234019930101 0.039597460679453224
  outer loop
    vertex 26.793 -23.004 85.509
    vertex 33.785000000000004 -12.833 59.829
    vertex 36.745 -5.871 82.245
  endloop
endfacet
facet normal 0.9818891405344181 -0.131575372119 -0.13631447888000844
  outer loop
    vertex 26.808 0.404 10.07
    vertex 27.922 8.939 9.856
    vertex 30.879 -4.684 44.305
  endloop
endfacet
facet normal 0.8700390804942518 -0.10146266214043247 0.4824285715047287
  outer loop
    vertex 26.808 0.404 10.07
    vertex 30.936 -10.31 0.372
    vertex 27.922 8.939 9.856
  endloop
endfacet
facet normal 0.952901751090032 -0.285600696368811 -0.102031833283545
  outer loop
    vertex 26.809 59.675000000000004 63.751000000000005
    vertex 26.865000000000002 69.368 37.142
    vertex 30.329 71.682 63.016
  endloop
endfacet
facet normal 0.9782199413635041 0.1881171469207404 -0.08773645395833707
  outer loop
    vertex 26.809 59.675000000000004 63.751000000000005
    vertex 28.678 60.213 85.743
    vertex 30.93 47.829 84.299
  endloop
endfacet
facet normal 0.9557276044883144 -0.28472894336539106 -0.07425749005356856
  outer loop
    vertex 26.809 59.675000000000004 63.751000000000005
    vertex 30.329 71.682 63.016
    vertex 28.678 60.213 85.743
  endloop
endfacet
facet normal 0.9649049534725745 0.2588363995086513 -0.04429615167807103
  outer loop
    vertex 26.809 59.675000000000004 63.751000000000005
    vertex 30.93 47.829 84.299
    vertex 30.071 46.874 60.007
  endloop
endfacet
facet normal 0.941178371963291 0.31064256360928416 -0.1329829681680374
  outer loop
    vertex 27.891000000000002 16.459 27.203
    vertex 32.117 12.556000000000001 47.995000000000005
    vertex 27.922 8.939 9.856
  endloop
endfacet
facet normal 0.9933079903266028 -0.048937654544278925 -0.10461521075364948
  outer loop
    vertex 27.922 8.939 9.856
    vertex 32.117 12.556000000000001 47.995000000000005
    vertex 30.879 -4.684 44.305
  endloop
endfacet
facet normal 0.981042732576365 -0.1920632312264632 -0.025823866285839946
  outer loop
    vertex 28.457 12.207 87.054
    vertex 28.727 16.023 68.93
    vertex 32.627 35.464 72.499
  endloop
endfacet
facet normal 0.9791511321573254 -0.05280582291912546 0.1961494467513533
  outer loop
    vertex 28.457 12.207 87.054
    vertex 32.627 35.464 72.499
    vertex 30.93 47.829 84.299
  endloop
endfacet
facet normal 0.9142554050183836 0.3934856237160476 0.09646822442371435
  outer loop
    vertex 28.457 12.207 87.054
    vertex 36.745 -5.871 82.245
    vertex 28.727 16.023 68.93
  endloop
endfacet
facet normal 0.9179719070873713 0.3875474903308961 0.08446609104604585
  outer loop
    vertex 28.727 16.023 68.93
    vertex 36.745 -5.871 82.245
    vertex 32.117 12.556000000000001 47.995000000000005
  endloop
endfacet
facet normal 0.9837290652121918 0.17476228694452725 -0.04165656393254157
  outer loop
    vertex 30.071 46.874 60.007
    vertex 30.93 47.829 84.299
    vertex 32.627 35.464 72.499
  endloop
endfacet
facet normal 0.9797855532608317 -0.0279601575227575 -0.1980871000662797
  outer loop
    vertex 30.879 -4.684 44.305
    vertex 32.117 12.556000000000001 47.995000000000005
    vertex 33.785000000000004 -12.833 59.829
  endloop
endfacet
facet normal 0.9912421602073321 0.0035925392997329902 -0.1320078538909011
  outer loop
    vertex 32.117 12.556000000000001 47.995000000000005
    vertex 36.745 -5.871 82.245
    vertex 33.785000000000004 -12.833 59.829
  endloop
endfacet
endsolid JSxCAD
