<?xml version="1.0" encoding="UTF-8"?>
<!-- Generated by jsxcad -->
<!DOCTYPE svg PUBLIC "-//W3C//DTD SVG 1.1 Tiny//EN" "http://www.w3.org/Graphics/SVG/1.1/DTD/svg11-tiny.dtd">
<svg baseProfile="tiny" height="60 mm" width="60 mm" viewBox="0 0 60 60" version="1.1" stroke="black" stroke-width=".1" fill="none" xmlns="http://www.w3.org/2000/svg">
<path d="M19.7394 1.80922 L22.12752 1.16933 L24.79055 0.45577 L27.25351 0.24029 L30 0 L32.46296 0.21548 L35.20945 0.45577 L37.59757 1.09566 L40.2606 1.80922 L42.50133 2.85409 L45 4.01924 L47.02524 5.43733 L49.28363 7.01867 L51.03186 8.76689 L52.98133 10.71637 L54.39942 12.74162 L54.56267 12.97476 L55.98076 15 L58.19078 19.7394 L59.54423 24.79055 L60 30 L59.54423 35.20945 L58.19078 40.2606 L57.14591 42.50133 L55.98076 45 L54.56267 47.02524 L52.98133 49.28363 L51.23311 51.03186 L49.28363 52.98133 L47.25838 54.39942 L45 55.98076 L42.75928 57.02563 L40.2606 58.19078 L37.87248 58.83067 L35.20945 59.54423 L32.74649 59.75971 L30 60 L27.53704 59.78452 L24.79055 59.54423 L22.40243 58.90434 L19.7394 58.19078 L17.49867 57.14591 L15 55.98076 L12.97476 54.56267 L10.71637 52.98133 L8.96814 51.23311 L7.01867 49.28363 L5.60058 47.25838 L4.01924 45 L2.97437 42.75928 L1.80922 40.2606 L1.16933 37.87248 L0.45577 35.20945 L0.24029 32.74649 L0 30 L0.21548 27.53704 L0.45577 24.79055 L1.09566 22.40243 L1.80922 19.7394 L2.85409 17.49867 L4.01924 15 L5.43733 12.97476 L7.01867 10.71637 L8.76689 8.96814 L10.71637 7.01867 L12.74162 5.60058 L15 4.01924 L17.24072 2.97437 z"/>
<path d="M18.50933 20.35819 L17.00962 22.5 L15.90461 24.8697 L15.22788 27.39528 L15 30 L15.22788 32.60472 L15.90461 35.1303 L17.00962 37.5 L18.50933 39.64181 L20.35819 41.49067 L22.5 42.99038 L24.8697 44.09539 L27.39528 44.77212 L30 45 L32.60472 44.77212 L35.1303 44.09539 L37.5 42.99038 L39.64181 41.49067 L41.49067 39.64181 L42.99038 37.5 L44.09539 35.1303 L44.77212 32.60472 L45 30 L44.77212 27.39528 L44.09539 24.8697 L42.99038 22.5 L41.49067 20.35819 L39.64181 18.50933 L37.5 17.00962 L35.1303 15.90461 L32.60472 15.22788 L30 15 L27.39528 15.22788 L24.8697 15.90461 L22.5 17.00962 L20.35819 18.50933 z"/>
</svg>