<?xml version="1.0" encoding="UTF-8"?>
<!-- Generated by jsxcad -->
<!DOCTYPE svg PUBLIC "-//W3C//DTD SVG 1.1 Tiny//EN" "http://www.w3.org/Graphics/SVG/1.1/DTD/svg11-tiny.dtd">
<svg baseProfile="tiny" height="60 mm" width="60 mm" viewBox="0 0 60 60" version="1.1" stroke="black" stroke-width=".1" fill="none" xmlns="http://www.w3.org/2000/svg">
<path d="M19.3934 19.3934 L17.52796 21.66645 L16.14181 24.25975 L15.28822 27.07365 L15 30 L15.28822 32.92635 L16.14181 35.74025 L17.52796 38.33355 L19.3934 40.6066 L21.66645 42.47204 L24.25975 43.85819 L27.07365 44.71178 L30 45 L32.92635 44.71178 L35.74025 43.85819 L38.33355 42.47204 L40.6066 40.6066 L42.47204 38.33355 L43.85819 35.74025 L44.71178 32.92635 L45 30 L44.71178 27.07365 L43.85819 24.25975 L42.47204 21.66645 L40.6066 19.3934 L38.33355 17.52796 L35.74025 16.14181 L32.92635 15.28822 L30 15 L27.07365 15.28822 L24.25975 16.14181 L21.66645 17.52796 z"/>
<path d="M18.5195 2.28361 L24.14729 0.57644 L30 0 L35.85271 0.57644 L41.4805 2.28361 L46.66711 5.05591 L51.2132 8.7868 L54.94409 13.33289 L57.27084 17.68594 L57.71639 18.5195 L59.42356 24.14729 L60 30 L59.5162 34.9121 L59.42356 35.85271 L59.14919 36.75717 L57.71639 41.4805 L54.94409 46.66711 L51.2132 51.2132 L46.66711 54.94409 L41.4805 57.71639 L35.85271 59.42356 L30 60 L24.14729 59.42356 L18.5195 57.71639 L13.33289 54.94409 L9.51741 51.8128 L8.7868 51.2132 L5.05591 46.66711 L2.28361 41.4805 L0.57644 35.85271 L0 30 L0.57644 24.14729 L2.28361 18.5195 L2.72916 17.68594 L5.05591 13.33289 L5.65551 12.60228 L8.7868 8.7868 L13.33289 5.05591 z"/>
</svg>