<?xml version="1.0" encoding="UTF-8"?>
<!-- Generated by jsxcad -->
<!DOCTYPE svg PUBLIC "-//W3C//DTD SVG 1.1 Tiny//EN" "http://www.w3.org/Graphics/SVG/1.1/DTD/svg11-tiny.dtd">
<svg baseProfile="tiny" height="60 mm" width="60 mm" viewBox="0 0 60 60" version="1.1" stroke="black" stroke-width=".1" fill="none" xmlns="http://www.w3.org/2000/svg">
<path d="M19.3934 19.3934 L16.14181 24.25975 L15 30 L16.14181 35.74025 L19.3934 40.6066 L24.25975 43.85819 L30 45 L35.74025 43.85819 L40.6066 40.6066 L43.85819 35.74025 L45 30 L43.85819 24.25975 L40.6066 19.3934 L35.74025 16.14181 L30 15 L24.25975 16.14181 z"/>
<path d="M18.5195 2.28361 L21.10694 1.76894 L30 0 L32.58744 0.51467 L41.4805 2.28361 L43.67403 3.74928 L49.01968 7.32113 L51.2132 8.7868 L57.71639 18.5195 L60 30 L57.71639 41.4805 L56.25072 43.67403 L51.2132 51.2132 L49.01968 52.67887 L41.4805 57.71639 L38.89306 58.23106 L30 60 L27.41256 59.48533 L18.5195 57.71639 L16.32597 56.25072 L8.7868 51.2132 L7.32113 49.01968 L2.28361 41.4805 L1.76894 38.89306 L0 30 L0.51467 27.41256 L2.28361 18.5195 L3.74928 16.32597 L8.7868 8.7868 L10.98032 7.32113 z"/>
</svg>