solid JSxCAD
facet normal 0.08449555701641856 0.022626546218829244 -0.9961669238891103
outer loop
vertex 0.17101 0.28015 -0.98481
vertex 0 0.25 -1
vertex 0.16318 0.30939 -0.98481
endloop
endfacet
facet normal -0.07166225830894672 -0.050163580816262675 -0.996166720932672
outer loop
vertex -0.13302 0.13838 -0.98481
vertex -0.15038 0.16318 -0.98481
vertex 0 0.25 -1
endloop
endfacet
facet normal -0.07926798528832775 -0.036989799915806004 -0.9961668239860823
outer loop
vertex -0.15038 0.16318 -0.98481
vertex -0.16318 0.19061 -0.98481
vertex 0 0.25 -1
endloop
endfacet
facet normal -0.2587814659804092 -0.02265808424142284 -0.9656701114166985
outer loop
vertex -0.33682 0.19061 -0.93969
vertex -0.34202 0.25 -0.93969
vertex -0.17365 0.25 -0.98481
endloop
endfacet
facet normal -0.2587810014834271 -0.022659430975663225 -0.9656702042929012
outer loop
vertex -0.17365 0.25 -0.98481
vertex -0.17101 0.21985 -0.98481
vertex -0.33682 0.19061 -0.93969
endloop
endfacet
facet normal 0.3298620745839734 0.47107128434786627 -0.8180970949795683
outer loop
vertex 0.32139 0.63302 -0.86603
vertex 0.25 0.68301 -0.86603
vertex 0.32139 0.80667 -0.76604
endloop
endfacet
facet normal 0.3298398563711184 0.47107515818118795 -0.8181038225638899
outer loop
vertex 0.32139 0.80667 -0.76604
vertex 0.41318 0.7424 -0.76604
vertex 0.32139 0.63302 -0.86603
endloop
endfacet
facet normal 0.24307900955304443 0.5211946515905277 -0.818088461150834
outer loop
vertex 0.25 0.68301 -0.86603
vertex 0.17101 0.71985 -0.86603
vertex 0.21985 0.85402 -0.76604
endloop
endfacet
facet normal 0.24304277643831285 0.5211945833061483 -0.818099269742668
outer loop
vertex 0.21985 0.85402 -0.76604
vertex 0.32139 0.80667 -0.76604
vertex 0.25 0.68301 -0.86603
endloop
endfacet
facet normal 0.14878520211243101 0.5554867479310663 -0.8181060056651162
outer loop
vertex 0.17101 0.71985 -0.86603
vertex 0.08682 0.7424 -0.86603
vertex 0.11162 0.88302 -0.76604
endloop
endfacet
facet normal 0.1488443261912116 0.5554972904715454 -0.8180880923466957
outer loop
vertex 0.11162 0.88302 -0.76604
vertex 0.21985 0.85402 -0.76604
vertex 0.17101 0.71985 -0.86603
endloop
endfacet
facet normal 0.05014871267931834 0.572883057212953 -0.8181015275471302
outer loop
vertex 0.08682 0.7424 -0.86603
vertex 0 0.75 -0.86603
vertex 0 0.89279 -0.76604
endloop
endfacet
facet normal 0.050143790202492995 0.5728812551077207 -0.8181030912118171
outer loop
vertex 0 0.89279 -0.76604
vertex 0.11162 0.88302 -0.76604
vertex 0.08682 0.7424 -0.86603
endloop
endfacet
facet normal -0.05014849446148454 0.5728805643613307 -0.8181032865600099
outer loop
vertex 0 0.75 -0.86603
vertex -0.08682 0.7424 -0.86603
vertex -0.11162 0.88302 -0.76604
endloop
endfacet
facet normal -0.050143959920282186 0.5728831940943765 -0.8181017230196609
outer loop
vertex -0.11162 0.88302 -0.76604
vertex 0 0.89279 -0.76604
vertex 0 0.75 -0.86603
endloop
endfacet
facet normal -0.1487926199812184 0.5555144424043794 -0.8180858515579377
outer loop
vertex -0.08682 0.7424 -0.86603
vertex -0.17101 0.71985 -0.86603
vertex -0.21985 0.85402 -0.76604
endloop
endfacet
facet normal -0.14883855408527913 0.5554757485741292 -0.8181037694350358
outer loop
vertex -0.21985 0.85402 -0.76604
vertex -0.11162 0.88302 -0.76604
vertex -0.08682 0.7424 -0.86603
endloop
endfacet
facet normal -0.2430716991332306 0.5211789770503248 -0.8181006190935571
outer loop
vertex -0.17101 0.71985 -0.86603
vertex -0.25 0.68301 -0.86603
vertex -0.32139 0.80667 -0.76604
endloop
endfacet
facet normal -0.2430484628159435 0.5212067774937882 -0.8180898115838797
outer loop
vertex -0.32139 0.80667 -0.76604
vertex -0.21985 0.85402 -0.76604
vertex -0.17101 0.71985 -0.86603
endloop
endfacet
facet normal -0.5803254706069662 0.4063353088126127 -0.7057718930199488
outer loop
vertex -0.4924 0.66318 -0.76604
vertex -0.55667 0.57139 -0.76604
vertex -0.66341 0.63302 -0.64279
endloop
endfacet
facet normal -0.5803227785788859 0.4063532785825271 -0.7057637605089343
outer loop
vertex -0.66341 0.63302 -0.64279
vertex -0.58682 0.7424 -0.64279
vertex -0.4924 0.66318 -0.76604
endloop
endfacet
facet normal -0.6420628021360174 0.2994058861644715 -0.7057701279051934
outer loop
vertex -0.66341 0.63302 -0.64279
vertex -0.55667 0.57139 -0.76604
vertex -0.60402 0.46985 -0.76604
endloop
endfacet
facet normal -0.6420371161216195 0.2994263331176999 -0.705784820294346
outer loop
vertex -0.60402 0.46985 -0.76604
vertex -0.71985 0.512 -0.64279
vertex -0.66341 0.63302 -0.64279
endloop
endfacet
facet normal -0.5211945833061482 0.24304277643831207 -0.8180992697426686
outer loop
vertex -0.60402 0.46985 -0.76604
vertex -0.55667 0.57139 -0.76604
vertex -0.43301 0.5 -0.86603
endloop
endfacet
facet normal -0.5211946515905275 0.24307900955304382 -0.8180884611508341
outer loop
vertex -0.43301 0.5 -0.86603
vertex -0.46985 0.42101 -0.86603
vertex -0.60402 0.46985 -0.76604
endloop
endfacet
facet normal -0.47107515818118784 0.32983985637111757 -0.8181038225638905
outer loop
vertex -0.55667 0.57139 -0.76604
vertex -0.4924 0.66318 -0.76604
vertex -0.38302 0.57139 -0.86603
endloop
endfacet
facet normal -0.471071284347867 0.3298620745839739 -0.8180970949795677
outer loop
vertex -0.38302 0.57139 -0.86603
vertex -0.43301 0.5 -0.86603
vertex -0.55667 0.57139 -0.76604
endloop
endfacet
facet normal -0.40663355584477834 0.40663355584477834 -0.8181065349464354
outer loop
vertex -0.4924 0.66318 -0.76604
vertex -0.41318 0.7424 -0.76604
vertex -0.32139 0.63302 -0.86603
endloop
endfacet
facet normal -0.40663355584477745 0.4066335558447784 -0.8181065349464358
outer loop
vertex -0.32139 0.63302 -0.86603
vertex -0.38302 0.57139 -0.86603
vertex -0.4924 0.66318 -0.76604
endloop
endfacet
facet normal -0.3298398563711184 0.47107515818118795 -0.8181038225638899
outer loop
vertex -0.32139 0.63302 -0.86603
vertex -0.41318 0.7424 -0.76604
vertex -0.32139 0.80667 -0.76604
endloop
endfacet
facet normal -0.32986207458397426 0.47107128434786616 -0.8180970949795682
outer loop
vertex -0.32139 0.80667 -0.76604
vertex -0.25 0.68301 -0.86603
vertex -0.32139 0.63302 -0.86603
endloop
endfacet
facet normal -0.4063403620264532 0.5803326875744218 -0.7057630494159207
outer loop
vertex -0.32139 0.80667 -0.76604
vertex -0.41318 0.7424 -0.76604
vertex -0.4924 0.83682 -0.64279
endloop
endfacet
facet normal -0.4063490379329562 0.5803167224064059 -0.7057711818050149
outer loop
vertex -0.4924 0.83682 -0.64279
vertex -0.38302 0.91341 -0.64279
vertex -0.32139 0.80667 -0.76604
endloop
endfacet
facet normal -0.5009501458278868 0.5009501458278856 -0.7057605137651434
outer loop
vertex -0.4924 0.66318 -0.76604
vertex -0.58682 0.7424 -0.64279
vertex -0.4924 0.83682 -0.64279
endloop
endfacet
facet normal -0.5009501458278847 0.500950145827886 -0.7057605137651445
outer loop
vertex -0.4924 0.83682 -0.64279
vertex -0.41318 0.7424 -0.76604
vertex -0.4924 0.66318 -0.76604
endloop
endfacet
facet normal -0.5799513860376767 0.5799513860376779 -0.5721125585633948
outer loop
vertex -0.4924 0.83682 -0.64279
vertex -0.58682 0.7424 -0.64279
vertex -0.66341 0.80667 -0.5
endloop
endfacet
facet normal -0.5799513860376767 0.5799513860376767 -0.572112558563396
outer loop
vertex -0.66341 0.80667 -0.5
vertex -0.55667 0.91341 -0.5
vertex -0.4924 0.83682 -0.64279
endloop
endfacet
facet normal -0.6718436419348103 0.470437964305973 -0.5721138370389433
outer loop
vertex -0.58682 0.7424 -0.64279
vertex -0.66341 0.63302 -0.64279
vertex -0.75 0.68301 -0.5
endloop
endfacet
facet normal -0.6718429064563529 0.4704421580952237 -0.5721112522324557
outer loop
vertex -0.75 0.68301 -0.5
vertex -0.66341 0.80667 -0.5
vertex -0.58682 0.7424 -0.64279
endloop
endfacet
facet normal -0.7433192899322117 0.34666121900325575 -0.5721035155055851
outer loop
vertex -0.66341 0.63302 -0.64279
vertex -0.71985 0.512 -0.64279
vertex -0.8138 0.5462 -0.5
endloop
endfacet
facet normal -0.7433192705782439 0.346639642298749 -0.5721166143139199
outer loop
vertex -0.8138 0.5462 -0.5
vertex -0.75 0.68301 -0.5
vertex -0.66341 0.63302 -0.64279
endloop
endfacet
facet normal -0.7922355511684094 0.21227834275376278 -0.5721020334368709
outer loop
vertex -0.8138 0.5462 -0.5
vertex -0.71985 0.512 -0.64279
vertex -0.75441 0.38302 -0.64279
endloop
endfacet
facet normal -0.7922439500232852 0.21226835226587348 -0.5720941096339249
outer loop
vertex -0.75441 0.38302 -0.64279
vertex -0.85287 0.40038 -0.5
vertex -0.8138 0.5462 -0.5
endloop
endfacet
facet normal -0.6842820423103976 0.18335192855032495 -0.7057904482694476
outer loop
vertex -0.71985 0.512 -0.64279
vertex -0.60402 0.46985 -0.76604
vertex -0.63302 0.36162 -0.76604
endloop
endfacet
facet normal -0.6842817339971362 0.1833522773061027 -0.7057906565863128
outer loop
vertex -0.63302 0.36162 -0.76604
vertex -0.75441 0.38302 -0.64279
vertex -0.71985 0.512 -0.64279
endloop
endfacet
facet normal -0.5555144424043786 0.14879261998121818 -0.8180858515579384
outer loop
vertex -0.60402 0.46985 -0.76604
vertex -0.46985 0.42101 -0.86603
vertex -0.4924 0.33682 -0.86603
endloop
endfacet
facet normal -0.5554757485741297 0.14883855408528 -0.8181037694350354
outer loop
vertex -0.4924 0.33682 -0.86603
vertex -0.63302 0.36162 -0.76604
vertex -0.60402 0.46985 -0.76604
endloop
endfacet
facet normal -0.4094636342067516 0.10967341669274602 -0.9057103697833756
outer loop
vertex -0.4924 0.33682 -0.86603
vertex -0.46985 0.42101 -0.86603
vertex -0.32139 0.36698 -0.93969
endloop
endfacet
facet normal -0.409467221166198 0.1097079219064847 -0.9057045691953819
outer loop
vertex -0.32139 0.36698 -0.93969
vertex -0.33682 0.30939 -0.93969
vertex -0.4924 0.33682 -0.86603
endloop
endfacet
facet normal -0.38418644565447463 0.17918000579707333 -0.9057015515598625
outer loop
vertex -0.46985 0.42101 -0.86603
vertex -0.43301 0.5 -0.86603
vertex -0.2962 0.42101 -0.93969
endloop
endfacet
facet normal -0.3841908266989409 0.1791183957902325 -0.9057118796669932
outer loop
vertex -0.2962 0.42101 -0.93969
vertex -0.32139 0.36698 -0.93969
vertex -0.46985 0.42101 -0.86603
endloop
endfacet
facet normal -0.3472474641528051 0.24315591445578869 -0.9057010543797636
outer loop
vertex -0.43301 0.5 -0.86603
vertex -0.38302 0.57139 -0.86603
vertex -0.262 0.46985 -0.93969
endloop
endfacet
facet normal -0.34724690369059275 0.24315815123297047 -0.9057006687456183
outer loop
vertex -0.262 0.46985 -0.93969
vertex -0.2962 0.42101 -0.93969
vertex -0.43301 0.5 -0.86603
endloop
endfacet
facet normal -0.2997566428030416 0.2997566428030416 -0.9056996799110066
outer loop
vertex -0.38302 0.57139 -0.86603
vertex -0.32139 0.63302 -0.86603
vertex -0.21985 0.512 -0.93969
endloop
endfacet
facet normal -0.2997566428030408 0.2997566428030408 -0.905699679911007
outer loop
vertex -0.21985 0.512 -0.93969
vertex -0.262 0.46985 -0.93969
vertex -0.38302 0.57139 -0.86603
endloop
endfacet
facet normal -0.24315629837888225 0.3472480124278518 -0.9057007410969621
outer loop
vertex -0.32139 0.63302 -0.86603
vertex -0.25 0.68301 -0.86603
vertex -0.17101 0.5462 -0.93969
endloop
endfacet
facet normal -0.24315759004601634 0.34724610227623837 -0.9057011266731281
outer loop
vertex -0.17101 0.5462 -0.93969
vertex -0.21985 0.512 -0.93969
vertex -0.32139 0.63302 -0.86603
endloop
endfacet
facet normal -0.17917242914486084 0.3841702002755858 -0.9057099413468673
outer loop
vertex -0.25 0.68301 -0.86603
vertex -0.17101 0.71985 -0.86603
vertex -0.11698 0.57139 -0.93969
endloop
endfacet
facet normal -0.17912947006540506 0.38421457989813007 -0.9056996133088446
outer loop
vertex -0.11698 0.57139 -0.93969
vertex -0.17101 0.5462 -0.93969
vertex -0.25 0.68301 -0.86603
endloop
endfacet
facet normal -0.10967602183985578 0.4094733604743803 -0.9057056570957264
outer loop
vertex -0.17101 0.71985 -0.86603
vertex -0.08682 0.7424 -0.86603
vertex -0.05939 0.58682 -0.93969
endloop
endfacet
facet normal -0.10970411247026322 0.40945300305654864 -0.9057114584651591
outer loop
vertex -0.05939 0.58682 -0.93969
vertex -0.11698 0.57139 -0.93969
vertex -0.17101 0.71985 -0.86603
endloop
endfacet
facet normal -0.03696662951934268 0.4222951019564982 -0.9057043199441696
outer loop
vertex -0.08682 0.7424 -0.86603
vertex 0 0.75 -0.86603
vertex 0 0.59202 -0.93969
endloop
endfacet
facet normal -0.036974485039796896 0.4222912820218286 -0.9057057803638014
outer loop
vertex 0 0.59202 -0.93969
vertex -0.05939 0.58682 -0.93969
vertex -0.08682 0.7424 -0.86603
endloop
endfacet
facet normal 0.03696640843472362 0.4222925763556263 -0.9057055065540701
outer loop
vertex 0 0.75 -0.86603
vertex 0.08682 0.7424 -0.86603
vertex 0.05939 0.58682 -0.93969
endloop
endfacet
facet normal 0.03697480830557452 0.422294974090008 -0.9057040457064799
outer loop
vertex 0.05939 0.58682 -0.93969
vertex 0 0.59202 -0.93969
vertex 0 0.75 -0.86603
endloop
endfacet
facet normal 0.10967341669274419 0.409463634206752 -0.9057103697833756
outer loop
vertex 0.08682 0.7424 -0.86603
vertex 0.17101 0.71985 -0.86603
vertex 0.11698 0.57139 -0.93969
endloop
endfacet
facet normal 0.10970792190648812 0.4094672211661977 -0.9057045691953818
outer loop
vertex 0.11698 0.57139 -0.93969
vertex 0.05939 0.58682 -0.93969
vertex 0.08682 0.7424 -0.86603
endloop
endfacet
facet normal 0.1791800057970717 0.3841864456544751 -0.9057015515598625
outer loop
vertex 0.17101 0.71985 -0.86603
vertex 0.25 0.68301 -0.86603
vertex 0.17101 0.5462 -0.93969
endloop
endfacet
facet normal 0.1791183957902343 0.38419082669893917 -0.9057118796669936
outer loop
vertex 0.17101 0.5462 -0.93969
vertex 0.11698 0.57139 -0.93969
vertex 0.17101 0.71985 -0.86603
endloop
endfacet
facet normal 0.24315591445578863 0.34724746415280594 -0.9057010543797633
outer loop
vertex 0.25 0.68301 -0.86603
vertex 0.32139 0.63302 -0.86603
vertex 0.21985 0.512 -0.93969
endloop
endfacet
facet normal 0.24315815123297366 0.3472469036905918 -0.9057006687456176
outer loop
vertex 0.21985 0.512 -0.93969
vertex 0.17101 0.5462 -0.93969
vertex 0.25 0.68301 -0.86603
endloop
endfacet
facet normal 0.2997566428030416 0.2997566428030416 -0.9056996799110066
outer loop
vertex 0.21985 0.512 -0.93969
vertex 0.32139 0.63302 -0.86603
vertex 0.38302 0.57139 -0.86603
endloop
endfacet
facet normal 0.29975664280303943 0.29975664280304076 -0.9056996799110075
outer loop
vertex 0.38302 0.57139 -0.86603
vertex 0.262 0.46985 -0.93969
vertex 0.21985 0.512 -0.93969
endloop
endfacet
facet normal 0.40663355584477834 0.40663355584477834 -0.8181065349464354
outer loop
vertex 0.32139 0.63302 -0.86603
vertex 0.41318 0.7424 -0.76604
vertex 0.4924 0.66318 -0.76604
endloop
endfacet
facet normal 0.40663355584477745 0.4066335558447784 -0.8181065349464358
outer loop
vertex 0.4924 0.66318 -0.76604
vertex 0.38302 0.57139 -0.86603
vertex 0.32139 0.63302 -0.86603
endloop
endfacet
facet normal 0.5009501458278847 0.500950145827886 -0.7057605137651445
outer loop
vertex 0.4924 0.66318 -0.76604
vertex 0.41318 0.7424 -0.76604
vertex 0.4924 0.83682 -0.64279
endloop
endfacet
facet normal 0.5009501458278863 0.5009501458278858 -0.7057605137651436
outer loop
vertex 0.4924 0.83682 -0.64279
vertex 0.58682 0.7424 -0.64279
vertex 0.4924 0.66318 -0.76604
endloop
endfacet
facet normal 0.4063353088126126 0.5803254706069653 -0.7057718930199494
outer loop
vertex 0.41318 0.7424 -0.76604
vertex 0.32139 0.80667 -0.76604
vertex 0.38302 0.91341 -0.64279
endloop
endfacet
facet normal 0.40635327858252807 0.580322778578885 -0.7057637605089346
outer loop
vertex 0.38302 0.91341 -0.64279
vertex 0.4924 0.83682 -0.64279
vertex 0.41318 0.7424 -0.76604
endloop
endfacet
facet normal 0.29939915819583734 0.6420483743021204 -0.7057861072078626
outer loop
vertex 0.32139 0.80667 -0.76604
vertex 0.21985 0.85402 -0.76604
vertex 0.262 0.96985 -0.64279
endloop
endfacet
facet normal 0.2994319785109381 0.6420492211090305 -0.7057714133615162
outer loop
vertex 0.262 0.96985 -0.64279
vertex 0.38302 0.91341 -0.64279
vertex 0.32139 0.80667 -0.76604
endloop
endfacet
facet normal 0.18335187013262838 0.6842818242915303 -0.7057906748201784
outer loop
vertex 0.21985 0.85402 -0.76604
vertex 0.11162 0.88302 -0.76604
vertex 0.13302 1.00441 -0.64279
endloop
endfacet
facet normal 0.18335232632579598 0.6842819169415825 -0.7057904664825619
outer loop
vertex 0.13302 1.00441 -0.64279
vertex 0.262 0.96985 -0.64279
vertex 0.21985 0.85402 -0.76604
endloop
endfacet
facet normal 0.061774226589816815 0.7057563123802824 -0.7057563123802827
outer loop
vertex 0.11162 0.88302 -0.76604
vertex 0 0.89279 -0.76604
vertex 0 1.01604 -0.64279
endloop
endfacet
facet normal 0.06170211942754047 0.7057279386286623 -0.7057909925020923
outer loop
vertex 0 1.01604 -0.64279
vertex 0.13302 1.00441 -0.64279
vertex 0.11162 0.88302 -0.76604
endloop
endfacet
facet normal -0.061770950507424933 0.7057188838934265 -0.7057940256120236
outer loop
vertex 0 0.89279 -0.76604
vertex -0.11162 0.88302 -0.76604
vertex -0.13302 1.00441 -0.64279
endloop
endfacet
facet normal -0.06170486540871237 0.7057593462310258 -0.7057593462310279
outer loop
vertex -0.13302 1.00441 -0.64279
vertex 0 1.01604 -0.64279
vertex 0 0.89279 -0.76604
endloop
endfacet
facet normal -0.18335192855032373 0.684282042310398 -0.7057904482694475
outer loop
vertex -0.11162 0.88302 -0.76604
vertex -0.21985 0.85402 -0.76604
vertex -0.262 0.96985 -0.64279
endloop
endfacet
facet normal -0.18335227730610262 0.6842817339971365 -0.7057906565863125
outer loop
vertex -0.262 0.96985 -0.64279
vertex -0.13302 1.00441 -0.64279
vertex -0.11162 0.88302 -0.76604
endloop
endfacet
facet normal -0.2994319785109377 0.6420492211090308 -0.705771413361516
outer loop
vertex -0.32139 0.80667 -0.76604
vertex -0.38302 0.91341 -0.64279
vertex -0.262 0.96985 -0.64279
endloop
endfacet
facet normal -0.29939915819583734 0.6420483743021204 -0.7057861072078626
outer loop
vertex -0.262 0.96985 -0.64279
vertex -0.21985 0.85402 -0.76604
vertex -0.32139 0.80667 -0.76604
endloop
endfacet
facet normal -0.3466571207057845 0.7433105022646019 -0.5721174161718209
outer loop
vertex -0.262 0.96985 -0.64279
vertex -0.38302 0.91341 -0.64279
vertex -0.43301 1 -0.5
endloop
endfacet
facet normal -0.34664326744403745 0.7433270441852463 -0.5721043178639247
outer loop
vertex -0.43301 1 -0.5
vertex -0.2962 1.0638 -0.5
vertex -0.262 0.96985 -0.64279
endloop
endfacet
facet normal -0.4704421580952256 0.671842906456352 -0.5721112522324554
outer loop
vertex -0.4924 0.83682 -0.64279
vertex -0.55667 0.91341 -0.5
vertex -0.43301 1 -0.5
endloop
endfacet
facet normal -0.4704379643059718 0.6718436419348112 -0.5721138370389433
outer loop
vertex -0.43301 1 -0.5
vertex -0.38302 0.91341 -0.64279
vertex -0.4924 0.83682 -0.64279
endloop
endfacet
facet normal -0.5201930244263235 0.7428925903748599 -0.42131913854502856
outer loop
vertex -0.43301 1 -0.5
vertex -0.55667 0.91341 -0.5
vertex -0.60402 0.96985 -0.34202
endloop
endfacet
facet normal -0.5201947146199799 0.7428900996334512 -0.4213214434942028
outer loop
vertex -0.60402 0.96985 -0.34202
vertex -0.46985 1.0638 -0.34202
vertex -0.43301 1 -0.5
endloop
endfacet
facet normal -0.6412858852161264 0.6412858852161254 -0.42131321703115326
outer loop
vertex -0.55667 0.91341 -0.5
vertex -0.66341 0.80667 -0.5
vertex -0.71985 0.85402 -0.34202
endloop
endfacet
facet normal -0.6412858852161251 0.6412858852161261 -0.4213132170311539
outer loop
vertex -0.71985 0.85402 -0.34202
vertex -0.60402 0.96985 -0.34202
vertex -0.55667 0.91341 -0.5
endloop
endfacet
facet normal -0.7428916774648772 0.520192385182629 -0.4213215374882089
outer loop
vertex -0.66341 0.80667 -0.5
vertex -0.75 0.68301 -0.5
vertex -0.8138 0.71985 -0.34202
endloop
endfacet
facet normal -0.7428909410283833 0.5201953037908363 -0.42131923247333763
outer loop
vertex -0.8138 0.71985 -0.34202
vertex -0.71985 0.85402 -0.34202
vertex -0.66341 0.80667 -0.5
endloop
endfacet
facet normal -0.8219547506013094 0.3833105261922631 -0.4212640840068728
outer loop
vertex -0.75 0.68301 -0.5
vertex -0.8138 0.5462 -0.5
vertex -0.88302 0.57139 -0.34202
endloop
endfacet
facet normal -0.8219597623113868 0.3832416458789851 -0.42131697094346315
outer loop
vertex -0.88302 0.57139 -0.34202
vertex -0.8138 0.71985 -0.34202
vertex -0.75 0.68301 -0.5
endloop
endfacet
facet normal -0.8760022901151221 0.23476706340232337 -0.42131272667047576
outer loop
vertex -0.85287 0.40038 -0.5
vertex -0.92542 0.41318 -0.34202
vertex -0.88302 0.57139 -0.34202
endloop
endfacet
facet normal -0.8760368333092642 0.2347192365751802 -0.42126754760726715
outer loop
vertex -0.88302 0.57139 -0.34202
vertex -0.8138 0.5462 -0.5
vertex -0.85287 0.40038 -0.5
endloop
endfacet
facet normal -0.9332393832185231 0.25010650305584625 -0.2578972484131748
outer loop
vertex -0.88302 0.57139 -0.34202
vertex -0.92542 0.41318 -0.34202
vertex -0.96985 0.42101 -0.17365
endloop
endfacet
facet normal -0.933240086562948 0.2500684943368421 -0.25793155869743106
outer loop
vertex -0.96985 0.42101 -0.17365
vertex -0.92542 0.58682 -0.17365
vertex -0.88302 0.57139 -0.34202
endloop
endfacet
facet normal -0.9624979814419448 0.08416991172433246 -0.25790126343331415
outer loop
vertex -0.96985 0.42101 -0.17365
vertex -0.92542 0.41318 -0.34202
vertex -0.93969 0.25 -0.34202
endloop
endfacet
facet normal -0.9624880979204025 0.08419871320325736 -0.25792874608403227
outer loop
vertex -0.93969 0.25 -0.34202
vertex -0.98481 0.25 -0.17365
vertex -0.96985 0.42101 -0.17365
endloop
endfacet
facet normal -0.9034643780232472 0.07906364685985916 -0.42130874354597325
outer loop
vertex -0.92542 0.41318 -0.34202
vertex -0.85287 0.40038 -0.5
vertex -0.86603 0.25 -0.5
endloop
endfacet
facet normal -0.9034904823286476 0.07900973883337287 -0.4212628745937981
outer loop
vertex -0.86603 0.25 -0.5
vertex -0.93969 0.25 -0.34202
vertex -0.92542 0.41318 -0.34202
endloop
endfacet
facet normal -0.8170722205450455 0.07143700139030955 -0.5720924236921421
outer loop
vertex -0.85287 0.40038 -0.5
vertex -0.75441 0.38302 -0.64279
vertex -0.76604 0.25 -0.64279
endloop
endfacet
facet normal -0.8170356961580819 0.07150013141003 -0.5721366990604843
outer loop
vertex -0.76604 0.25 -0.64279
vertex -0.86603 0.25 -0.5
vertex -0.85287 0.40038 -0.5
endloop
endfacet
facet normal -0.7057188838934272 0.06177095050742354 -0.7057940256120229
outer loop
vertex -0.75441 0.38302 -0.64279
vertex -0.63302 0.36162 -0.76604
vertex -0.64279 0.25 -0.76604
endloop
endfacet
facet normal -0.7057593462310264 0.06170486540871245 -0.705759346231027
outer loop
vertex -0.64279 0.25 -0.76604
vertex -0.76604 0.25 -0.64279
vertex -0.75441 0.38302 -0.64279
endloop
endfacet
facet normal -0.5728805643613308 0.050148494461484734 -0.8181032865600099
outer loop
vertex -0.63302 0.36162 -0.76604
vertex -0.4924 0.33682 -0.86603
vertex -0.5 0.25 -0.86603
endloop
endfacet
facet normal -0.5728831940943765 0.050143959920282755 -0.818101723019661
outer loop
vertex -0.5 0.25 -0.86603
vertex -0.64279 0.25 -0.76604
vertex -0.63302 0.36162 -0.76604
endloop
endfacet
facet normal -0.42229128202182836 0.03697448503979553 -0.9057057803638013
outer loop
vertex -0.4924 0.33682 -0.86603
vertex -0.33682 0.30939 -0.93969
vertex -0.34202 0.25 -0.93969
endloop
endfacet
facet normal -0.4222951019564979 0.0369666295193436 -0.9057043199441696
outer loop
vertex -0.34202 0.25 -0.93969
vertex -0.5 0.25 -0.86603
vertex -0.4924 0.33682 -0.86603
endloop
endfacet
facet normal -0.25878123430306355 0.022658063956489727 -0.9656701739778063
outer loop
vertex -0.34202 0.25 -0.93969
vertex -0.33682 0.30939 -0.93969
vertex -0.17101 0.28015 -0.98481
endloop
endfacet
facet normal -0.2587814578451109 0.022659470935690602 -0.9656700810589884
outer loop
vertex -0.17101 0.28015 -0.98481
vertex -0.17365 0.25 -0.98481
vertex -0.34202 0.25 -0.93969
endloop
endfacet
facet normal -0.25092699798503654 0.06723048409288265 -0.965668526820075
outer loop
vertex -0.33682 0.30939 -0.93969
vertex -0.32139 0.36698 -0.93969
vertex -0.16318 0.30939 -0.98481
endloop
endfacet
facet normal -0.25092760994063995 0.0671943634006574 -0.9656708818726276
outer loop
vertex -0.16318 0.30939 -0.98481
vertex -0.17101 0.28015 -0.98481
vertex -0.33682 0.30939 -0.93969
endloop
endfacet
facet normal -0.2354292373766009 0.10976240032420077 -0.9656734901939382
outer loop
vertex -0.32139 0.36698 -0.93969
vertex -0.2962 0.42101 -0.93969
vertex -0.15038 0.33682 -0.98481
endloop
endfacet
facet normal -0.23541166028530736 0.1098530532866176 -0.9656674670326854
outer loop
vertex -0.15038 0.33682 -0.98481
vertex -0.16318 0.30939 -0.98481
vertex -0.32139 0.36698 -0.93969
endloop
endfacet
facet normal -0.21278325066111586 0.14900055635974896 -0.9656718502900321
outer loop
vertex -0.2962 0.42101 -0.93969
vertex -0.262 0.46985 -0.93969
vertex -0.13302 0.36162 -0.98481
endloop
endfacet
facet normal -0.21279904934083513 0.14895933453858512 -0.9656747284947755
outer loop
vertex -0.13302 0.36162 -0.98481
vertex -0.15038 0.33682 -0.98481
vertex -0.2962 0.42101 -0.93969
endloop
endfacet
facet normal -0.18368160766947242 0.18368160766947175 -0.9656718562782682
outer loop
vertex -0.262 0.46985 -0.93969
vertex -0.21985 0.512 -0.93969
vertex -0.11162 0.38302 -0.98481
endloop
endfacet
facet normal -0.18368160766947128 0.18368160766947128 -0.9656718562782686
outer loop
vertex -0.11162 0.38302 -0.98481
vertex -0.13302 0.36162 -0.98481
vertex -0.262 0.46985 -0.93969
endloop
endfacet
facet normal -0.1489964217791137 0.21277734618981947 -0.9656737892505097
outer loop
vertex -0.21985 0.512 -0.93969
vertex -0.17101 0.5462 -0.93969
vertex -0.08682 0.40038 -0.98481
endloop
endfacet
facet normal -0.14896747601755417 0.21281068002508108 -0.9656709095526393
outer loop
vertex -0.08682 0.40038 -0.98481
vertex -0.11162 0.38302 -0.98481
vertex -0.21985 0.512 -0.93969
endloop
endfacet
facet normal -0.10976877068948392 0.23544290116526512 -0.965669434782008
outer loop
vertex -0.17101 0.5462 -0.93969
vertex -0.11698 0.57139 -0.93969
vertex -0.05939 0.41318 -0.98481
endloop
endfacet
facet normal -0.10984049805403356 0.23538475481421112 -0.9656754538602996
outer loop
vertex -0.05939 0.41318 -0.98481
vertex -0.08682 0.40038 -0.98481
vertex -0.17101 0.5462 -0.93969
endloop
endfacet
facet normal -0.0672289575289485 0.250921300330015 -0.9656701136051924
outer loop
vertex -0.11698 0.57139 -0.93969
vertex -0.05939 0.58682 -0.93969
vertex -0.03015 0.42101 -0.98481
endloop
endfacet
facet normal -0.06719736865793556 0.250938832638298 -0.9656677564874876
outer loop
vertex -0.03015 0.42101 -0.98481
vertex -0.05939 0.41318 -0.98481
vertex -0.11698 0.57139 -0.93969
endloop
endfacet
facet normal -0.022658084241419466 0.25878146598040835 -0.9656701114166989
outer loop
vertex -0.05939 0.58682 -0.93969
vertex 0 0.59202 -0.93969
vertex 0 0.42365 -0.98481
endloop
endfacet
facet normal -0.022659430975660658 0.25878100148342864 -0.965670204292901
outer loop
vertex 0 0.42365 -0.98481
vertex -0.03015 0.42101 -0.98481
vertex -0.05939 0.58682 -0.93969
endloop
endfacet
facet normal 0.022658063956486008 0.2587812343030625 -0.9656701739778065
outer loop
vertex 0 0.59202 -0.93969
vertex 0.05939 0.58682 -0.93969
vertex 0.03015 0.42101 -0.98481
endloop
endfacet
facet normal 0.02265947093568864 0.2587814578451119 -0.9656700810589885
outer loop
vertex 0.03015 0.42101 -0.98481
vertex 0 0.42365 -0.98481
vertex 0 0.59202 -0.93969
endloop
endfacet
facet normal 0.06723048409288286 0.25092699798503626 -0.9656685268200752
outer loop
vertex 0.05939 0.58682 -0.93969
vertex 0.11698 0.57139 -0.93969
vertex 0.05939 0.41318 -0.98481
endloop
endfacet
facet normal 0.06719436340066275 0.25092760994064084 -0.9656708818726272
outer loop
vertex 0.05939 0.41318 -0.98481
vertex 0.03015 0.42101 -0.98481
vertex 0.05939 0.58682 -0.93969
endloop
endfacet
facet normal 0.10976240032420242 0.23542923737660104 -0.9656734901939381
outer loop
vertex 0.11698 0.57139 -0.93969
vertex 0.17101 0.5462 -0.93969
vertex 0.08682 0.40038 -0.98481
endloop
endfacet
facet normal 0.1098530532866161 0.2354116602853071 -0.9656674670326858
outer loop
vertex 0.08682 0.40038 -0.98481
vertex 0.05939 0.41318 -0.98481
vertex 0.11698 0.57139 -0.93969
endloop
endfacet
facet normal 0.1490005563597454 0.212783250661115 -0.9656718502900328
outer loop
vertex 0.17101 0.5462 -0.93969
vertex 0.21985 0.512 -0.93969
vertex 0.11162 0.38302 -0.98481
endloop
endfacet
facet normal 0.1489593345385829 0.21279904934083674 -0.9656747284947756
outer loop
vertex 0.11162 0.38302 -0.98481
vertex 0.08682 0.40038 -0.98481
vertex 0.17101 0.5462 -0.93969
endloop
endfacet
facet normal 0.18368160766947197 0.1836816076694713 -0.9656718562782685
outer loop
vertex 0.21985 0.512 -0.93969
vertex 0.262 0.46985 -0.93969
vertex 0.13302 0.36162 -0.98481
endloop
endfacet
facet normal 0.18368160766947222 0.18368160766947222 -0.9656718562782682
outer loop
vertex 0.13302 0.36162 -0.98481
vertex 0.11162 0.38302 -0.98481
vertex 0.21985 0.512 -0.93969
endloop
endfacet
facet normal 0.2127832506611157 0.14900055635974888 -0.965671850290032
outer loop
vertex 0.13302 0.36162 -0.98481
vertex 0.262 0.46985 -0.93969
vertex 0.2962 0.42101 -0.93969
endloop
endfacet
facet normal 0.21279904934083535 0.1489593345385853 -0.9656747284947755
outer loop
vertex 0.2962 0.42101 -0.93969
vertex 0.15038 0.33682 -0.98481
vertex 0.13302 0.36162 -0.98481
endloop
endfacet
facet normal 0.3472474641528051 0.24315591445578869 -0.9057010543797636
outer loop
vertex 0.262 0.46985 -0.93969
vertex 0.38302 0.57139 -0.86603
vertex 0.43301 0.5 -0.86603
endloop
endfacet
facet normal 0.3472469036905929 0.24315815123297058 -0.905700668745618
outer loop
vertex 0.43301 0.5 -0.86603
vertex 0.2962 0.42101 -0.93969
vertex 0.262 0.46985 -0.93969
endloop
endfacet
facet normal 0.47107515818118784 0.32983985637111757 -0.8181038225638905
outer loop
vertex 0.38302 0.57139 -0.86603
vertex 0.4924 0.66318 -0.76604
vertex 0.55667 0.57139 -0.76604
endloop
endfacet
facet normal 0.471071284347867 0.3298620745839739 -0.8180970949795677
outer loop
vertex 0.55667 0.57139 -0.76604
vertex 0.43301 0.5 -0.86603
vertex 0.38302 0.57139 -0.86603
endloop
endfacet
facet normal 0.5803227785788856 0.4063532785825273 -0.7057637605089347
outer loop
vertex 0.4924 0.66318 -0.76604
vertex 0.58682 0.7424 -0.64279
vertex 0.66341 0.63302 -0.64279
endloop
endfacet
facet normal 0.5803254706069658 0.4063353088126125 -0.7057718930199491
outer loop
vertex 0.66341 0.63302 -0.64279
vertex 0.55667 0.57139 -0.76604
vertex 0.4924 0.66318 -0.76604
endloop
endfacet
facet normal 0.6718452093767814 0.470439061859276 -0.5721110938571573
outer loop
vertex 0.66341 0.63302 -0.64279
vertex 0.58682 0.7424 -0.64279
vertex 0.66341 0.80667 -0.5
endloop
endfacet
facet normal 0.671841520028457 0.47044118728177375 -0.5721136786293151
outer loop
vertex 0.66341 0.80667 -0.5
vertex 0.75 0.68301 -0.5
vertex 0.66341 0.63302 -0.64279
endloop
endfacet
facet normal 0.5799513860376767 0.5799513860376767 -0.572112558563396
outer loop
vertex 0.58682 0.7424 -0.64279
vertex 0.4924 0.83682 -0.64279
vertex 0.55667 0.91341 -0.5
endloop
endfacet
facet normal 0.5799513860376767 0.5799513860376778 -0.5721125585633949
outer loop
vertex 0.55667 0.91341 -0.5
vertex 0.66341 0.80667 -0.5
vertex 0.58682 0.7424 -0.64279
endloop
endfacet
facet normal 0.4704379643059718 0.6718436419348112 -0.5721138370389433
outer loop
vertex 0.4924 0.83682 -0.64279
vertex 0.38302 0.91341 -0.64279
vertex 0.43301 1 -0.5
endloop
endfacet
facet normal 0.4704421580952258 0.6718429064563525 -0.5721112522324547
outer loop
vertex 0.43301 1 -0.5
vertex 0.55667 0.91341 -0.5
vertex 0.4924 0.83682 -0.64279
endloop
endfacet
facet normal 0.34666121900325597 0.7433192899322103 -0.5721035155055869
outer loop
vertex 0.38302 0.91341 -0.64279
vertex 0.262 0.96985 -0.64279
vertex 0.2962 1.0638 -0.5
endloop
endfacet
facet normal 0.3466396422987496 0.7433192705782444 -0.5721166143139191
outer loop
vertex 0.2962 1.0638 -0.5
vertex 0.43301 1 -0.5
vertex 0.38302 0.91341 -0.64279
endloop
endfacet
facet normal 0.2122798608834209 0.7922412169196659 -0.5720936242233103
outer loop
vertex 0.262 0.96985 -0.64279
vertex 0.13302 1.00441 -0.64279
vertex 0.15038 1.10287 -0.5
endloop
endfacet
facet normal 0.2122670095242407 0.7922389385417159 -0.5721015477395
outer loop
vertex 0.15038 1.10287 -0.5
vertex 0.2962 1.0638 -0.5
vertex 0.262 0.96985 -0.64279
endloop
endfacet
facet normal 0.0714341466399419 0.8170395688774831 -0.5721394109675715
outer loop
vertex 0.13302 1.00441 -0.64279
vertex 0 1.01604 -0.64279
vertex 0 1.11603 -0.5
endloop
endfacet
facet normal 0.07150265891441439 0.8170645780812706 -0.5720951363305268
outer loop
vertex 0 1.11603 -0.5
vertex 0.15038 1.10287 -0.5
vertex 0.13302 1.00441 -0.64279
endloop
endfacet
facet normal -0.07143700139030915 0.817072220545047 -0.57209242369214
outer loop
vertex 0 1.01604 -0.64279
vertex -0.13302 1.00441 -0.64279
vertex -0.15038 1.10287 -0.5
endloop
endfacet
facet normal -0.07150013141003045 0.817035696158081 -0.5721366990604851
outer loop
vertex -0.15038 1.10287 -0.5
vertex 0 1.11603 -0.5
vertex 0 1.01604 -0.64279
endloop
endfacet
facet normal -0.21226700952424074 0.7922389385417161 -0.5721015477394995
outer loop
vertex -0.262 0.96985 -0.64279
vertex -0.2962 1.0638 -0.5
vertex -0.15038 1.10287 -0.5
endloop
endfacet
facet normal -0.21227986088342107 0.7922412169196665 -0.5720936242233097
outer loop
vertex -0.15038 1.10287 -0.5
vertex -0.13302 1.00441 -0.64279
vertex -0.262 0.96985 -0.64279
endloop
endfacet
facet normal -0.23471923657518123 0.8760368333092641 -0.4212675476072668
outer loop
vertex -0.15038 1.10287 -0.5
vertex -0.2962 1.0638 -0.5
vertex -0.32139 1.13302 -0.34202
endloop
endfacet
facet normal -0.23476706340232065 0.8760022901151221 -0.42131272667047687
outer loop
vertex -0.32139 1.13302 -0.34202
vertex -0.16318 1.17542 -0.34202
vertex -0.15038 1.10287 -0.5
endloop
endfacet
facet normal -0.3832416458789853 0.8219597623113879 -0.4213169709434609
outer loop
vertex -0.43301 1 -0.5
vertex -0.46985 1.0638 -0.34202
vertex -0.32139 1.13302 -0.34202
endloop
endfacet
facet normal -0.38331052619226363 0.821954750601309 -0.4212640840068734
outer loop
vertex -0.32139 1.13302 -0.34202
vertex -0.2962 1.0638 -0.5
vertex -0.43301 1 -0.5
endloop
endfacet
facet normal -0.40828505065322657 0.8756717512276525 -0.25788040157210174
outer loop
vertex -0.32139 1.13302 -0.34202
vertex -0.46985 1.0638 -0.34202
vertex -0.4924 1.10287 -0.17365
endloop
endfacet
facet normal -0.40832705439593814 0.8756378101022773 -0.25792914175723725
outer loop
vertex -0.4924 1.10287 -0.17365
vertex -0.33682 1.17542 -0.17365
vertex -0.32139 1.13302 -0.34202
endloop
endfacet
facet normal -0.5541851821821605 0.791431888167965 -0.25790376158678907
outer loop
vertex -0.46985 1.0638 -0.34202
vertex -0.60402 0.96985 -0.34202
vertex -0.63302 1.00441 -0.17365
endloop
endfacet
facet normal -0.5541649310428302 0.7914551351131712 -0.2578759358786449
outer loop
vertex -0.63302 1.00441 -0.17365
vertex -0.4924 1.10287 -0.17365
vertex -0.46985 1.0638 -0.34202
endloop
endfacet
facet normal -0.6831857568511919 0.6831857568511921 -0.2579039419460815
outer loop
vertex -0.60402 0.96985 -0.34202
vertex -0.71985 0.85402 -0.34202
vertex -0.75441 0.88302 -0.17365
endloop
endfacet
facet normal -0.6831857568511913 0.6831857568511923 -0.25790394194608235
outer loop
vertex -0.75441 0.88302 -0.17365
vertex -0.63302 1.00441 -0.17365
vertex -0.60402 0.96985 -0.34202
endloop
endfacet
facet normal -0.7914381149332081 0.5541895423565261 -0.25787528259535525
outer loop
vertex -0.71985 0.85402 -0.34202
vertex -0.8138 0.71985 -0.34202
vertex -0.85287 0.7424 -0.17365
endloop
endfacet
facet normal -0.7914491937013607 0.5541607709560206 -0.2579031091764796
outer loop
vertex -0.85287 0.7424 -0.17365
vertex -0.75441 0.88302 -0.17365
vertex -0.71985 0.85402 -0.34202
endloop
endfacet
facet normal -0.8756378101022767 0.40832705439594 -0.2579291417572362
outer loop
vertex -0.88302 0.57139 -0.34202
vertex -0.92542 0.58682 -0.17365
vertex -0.85287 0.7424 -0.17365
endloop
endfacet
facet normal -0.8756717512276526 0.4082850506532264 -0.25788040157210174
outer loop
vertex -0.85287 0.7424 -0.17365
vertex -0.8138 0.71985 -0.34202
vertex -0.88302 0.57139 -0.34202
endloop
endfacet
facet normal -0.9028827290591486 0.4210318935161419 -0.08680392968590832
outer loop
vertex -0.85287 0.7424 -0.17365
vertex -0.92542 0.58682 -0.17365
vertex -0.93969 0.59202 0
endloop
endfacet
facet normal -0.9028990875033566 0.4209871299246545 -0.08685087347521765
outer loop
vertex -0.93969 0.59202 0
vertex -0.86603 0.75 0
vertex -0.85287 0.7424 -0.17365
endloop
endfacet
facet normal -0.9622765128263542 0.2578490167352691 -0.08682048969803247
outer loop
vertex -0.92542 0.58682 -0.17365
vertex -0.96985 0.42101 -0.17365
vertex -0.98481 0.42365 0
endloop
endfacet
facet normal -0.9622726063006508 0.2578709983743263 -0.08679849860902299
outer loop
vertex -0.98481 0.42365 0
vertex -0.93969 0.59202 0
vertex -0.92542 0.58682 -0.17365
endloop
endfacet
facet normal -0.9924344123861636 0.0868184247078937 -0.08681300733743658
outer loop
vertex -0.96985 0.42101 -0.17365
vertex -0.98481 0.25 -0.17365
vertex -1 0.25 0
endloop
endfacet
facet normal -0.9924344194824508 0.08681300795818307 -0.08681834296842526
outer loop
vertex -1 0.25 0
vertex -0.98481 0.42365 0
vertex -0.96985 0.42101 -0.17365
endloop
endfacet
facet normal -0.9924344123861636 -0.0868184247078937 -0.08681300733743658
outer loop
vertex -1 0.25 0
vertex -0.98481 0.25 -0.17365
vertex -0.96985 0.07899 -0.17365
endloop
endfacet
facet normal -0.9924344194824508 -0.0868130079581831 -0.08681834296842522
outer loop
vertex -0.96985 0.07899 -0.17365
vertex -0.98481 0.07635 0
vertex -1 0.25 0
endloop
endfacet
facet normal -0.9624905016289854 -0.08416925761886039 -0.2579293902328191
outer loop
vertex -0.98481 0.25 -0.17365
vertex -0.93969 0.25 -0.34202
vertex -0.92542 0.08682 -0.34202
endloop
endfacet
facet normal -0.9624952352184964 -0.08419933757598111 -0.2579019071923604
outer loop
vertex -0.92542 0.08682 -0.34202
vertex -0.96985 0.07899 -0.17365
vertex -0.98481 0.25 -0.17365
endloop
endfacet
facet normal -0.9034864696558629 -0.07906558013479949 -0.42126100363875735
outer loop
vertex -0.93969 0.25 -0.34202
vertex -0.86603 0.25 -0.5
vertex -0.85287 0.09962 -0.5
endloop
endfacet
facet normal -0.9034701233656428 -0.07900795845340966 -0.42130686997329425
outer loop
vertex -0.85287 0.09962 -0.5
vertex -0.92542 0.08682 -0.34202
vertex -0.93969 0.25 -0.34202
endloop
endfacet
facet normal -0.817039568877483 -0.07143414663994316 -0.5721394109675717
outer loop
vertex -0.86603 0.25 -0.5
vertex -0.76604 0.25 -0.64279
vertex -0.75441 0.11698 -0.64279
endloop
endfacet
facet normal -0.8170645780812701 -0.07150265891441326 -0.5720951363305277
outer loop
vertex -0.75441 0.11698 -0.64279
vertex -0.85287 0.09962 -0.5
vertex -0.86603 0.25 -0.5
endloop
endfacet
facet normal -0.7057563123802828 -0.06177422658981682 -0.7057563123802824
outer loop
vertex -0.76604 0.25 -0.64279
vertex -0.64279 0.25 -0.76604
vertex -0.63302 0.13838 -0.76604
endloop
endfacet
facet normal -0.7057279386286633 -0.061702119427539386 -0.7057909925020914
outer loop
vertex -0.63302 0.13838 -0.76604
vertex -0.75441 0.11698 -0.64279
vertex -0.76604 0.25 -0.64279
endloop
endfacet
facet normal -0.5728830572129524 -0.05014871267931922 -0.8181015275471304
outer loop
vertex -0.64279 0.25 -0.76604
vertex -0.5 0.25 -0.86603
vertex -0.4924 0.16318 -0.86603
endloop
endfacet
facet normal -0.5728812551077218 -0.05014379020249297 -0.8181030912118163
outer loop
vertex -0.4924 0.16318 -0.86603
vertex -0.63302 0.13838 -0.76604
vertex -0.64279 0.25 -0.76604
endloop
endfacet
facet normal -0.4222912820218291 -0.036974485039795536 -0.905705780363801
outer loop
vertex -0.34202 0.25 -0.93969
vertex -0.33682 0.19061 -0.93969
vertex -0.4924 0.16318 -0.86603
endloop
endfacet
facet normal -0.4222951019564975 -0.03696662951934356 -0.9057043199441697
outer loop
vertex -0.4924 0.16318 -0.86603
vertex -0.5 0.25 -0.86603
vertex -0.34202 0.25 -0.93969
endloop
endfacet
facet normal -0.40946722116619777 -0.10970792190648482 -0.9057045691953822
outer loop
vertex -0.4924 0.16318 -0.86603
vertex -0.33682 0.19061 -0.93969
vertex -0.32139 0.13302 -0.93969
endloop
endfacet
facet normal -0.4094636342067524 -0.109673416692746 -0.9057103697833752
outer loop
vertex -0.32139 0.13302 -0.93969
vertex -0.46985 0.07899 -0.86603
vertex -0.4924 0.16318 -0.86603
endloop
endfacet
facet normal -0.2509276099406406 -0.06719436340065758 -0.9656708818726276
outer loop
vertex -0.33682 0.19061 -0.93969
vertex -0.17101 0.21985 -0.98481
vertex -0.16318 0.19061 -0.98481
endloop
endfacet
facet normal -0.2509269979850373 -0.06723048409288251 -0.9656685268200751
outer loop
vertex -0.16318 0.19061 -0.98481
vertex -0.32139 0.13302 -0.93969
vertex -0.33682 0.19061 -0.93969
endloop
endfacet
facet normal -0.08449555701641877 -0.0226265462188293 -0.9961669238891102
outer loop
vertex -0.16318 0.19061 -0.98481
vertex -0.17101 0.21985 -0.98481
vertex 0 0.25 -1
endloop
endfacet
facet normal -0.08713950574918533 -0.007630125876545634 -0.9961668975211412
outer loop
vertex -0.17101 0.21985 -0.98481
vertex -0.17365 0.25 -0.98481
vertex 0 0.25 -1
endloop
endfacet
facet normal -0.08713950574918533 0.007630125876545634 -0.9961668975211412
outer loop
vertex -0.17365 0.25 -0.98481
vertex -0.17101 0.28015 -0.98481
vertex 0 0.25 -1
endloop
endfacet
facet normal -0.08449555701641856 0.022626546218829244 -0.9961669238891103
outer loop
vertex -0.17101 0.28015 -0.98481
vertex -0.16318 0.30939 -0.98481
vertex 0 0.25 -1
endloop
endfacet
facet normal -0.07926798528832815 0.03698979991580619 -0.996166823986082
outer loop
vertex -0.16318 0.30939 -0.98481
vertex -0.15038 0.33682 -0.98481
vertex 0 0.25 -1
endloop
endfacet
facet normal -0.07166225830894672 0.050163580816262675 -0.996166720932672
outer loop
vertex -0.15038 0.33682 -0.98481
vertex -0.13302 0.36162 -0.98481
vertex 0 0.25 -1
endloop
endfacet
facet normal -0.06185322992281579 0.06185322992280824 -0.9961668313571936
outer loop
vertex -0.13302 0.36162 -0.98481
vertex -0.11162 0.38302 -0.98481
vertex 0 0.25 -1
endloop
endfacet
facet normal -0.05016358081626481 0.07166225830894667 -0.9961667209326718
outer loop
vertex -0.11162 0.38302 -0.98481
vertex -0.08682 0.40038 -0.98481
vertex 0 0.25 -1
endloop
endfacet
facet normal -0.03698979991579972 0.07926798528832521 -0.9961668239860827
outer loop
vertex -0.08682 0.40038 -0.98481
vertex -0.05939 0.41318 -0.98481
vertex 0 0.25 -1
endloop
endfacet
facet normal -0.02262654621882685 0.08449555701641957 -0.9961669238891103
outer loop
vertex -0.05939 0.41318 -0.98481
vertex -0.03015 0.42101 -0.98481
vertex 0 0.25 -1
endloop
endfacet
facet normal -0.007630125876547293 0.08713950574918611 -0.9961668975211411
outer loop
vertex -0.03015 0.42101 -0.98481
vertex 0 0.42365 -0.98481
vertex 0 0.25 -1
endloop
endfacet
facet normal 0.007630125876547293 0.08713950574918611 -0.9961668975211411
outer loop
vertex 0 0.42365 -0.98481
vertex 0.03015 0.42101 -0.98481
vertex 0 0.25 -1
endloop
endfacet
facet normal 0.02262654621882685 0.08449555701641957 -0.9961669238891103
outer loop
vertex 0.03015 0.42101 -0.98481
vertex 0.05939 0.41318 -0.98481
vertex 0 0.25 -1
endloop
endfacet
facet normal 0.03698979991579972 0.07926798528832521 -0.9961668239860827
outer loop
vertex 0.05939 0.41318 -0.98481
vertex 0.08682 0.40038 -0.98481
vertex 0 0.25 -1
endloop
endfacet
facet normal 0.05016358081626481 0.07166225830894667 -0.9961667209326718
outer loop
vertex 0.08682 0.40038 -0.98481
vertex 0.11162 0.38302 -0.98481
vertex 0 0.25 -1
endloop
endfacet
facet normal 0.061853229922810525 0.061853229922808256 -0.996166831357194
outer loop
vertex 0.11162 0.38302 -0.98481
vertex 0.13302 0.36162 -0.98481
vertex 0 0.25 -1
endloop
endfacet
facet normal 0.07166225830894672 0.050163580816262675 -0.996166720932672
outer loop
vertex 0.13302 0.36162 -0.98481
vertex 0.15038 0.33682 -0.98481
vertex 0 0.25 -1
endloop
endfacet
facet normal 0.07926798528832807 0.03698979991580615 -0.996166823986082
outer loop
vertex 0 0.25 -1
vertex 0.15038 0.33682 -0.98481
vertex 0.16318 0.30939 -0.98481
endloop
endfacet
facet normal 0.23542923737660082 0.10976240032420073 -0.9656734901939382
outer loop
vertex 0.15038 0.33682 -0.98481
vertex 0.2962 0.42101 -0.93969
vertex 0.32139 0.36698 -0.93969
endloop
endfacet
facet normal 0.23541166028530636 0.10985305328661774 -0.9656674670326857
outer loop
vertex 0.32139 0.36698 -0.93969
vertex 0.16318 0.30939 -0.98481
vertex 0.15038 0.33682 -0.98481
endloop
endfacet
facet normal 0.3841864456544748 0.1791800057970734 -0.9057015515598624
outer loop
vertex 0.2962 0.42101 -0.93969
vertex 0.43301 0.5 -0.86603
vertex 0.46985 0.42101 -0.86603
endloop
endfacet
facet normal 0.38419082669894095 0.17911839579023253 -0.905711879666993
outer loop
vertex 0.46985 0.42101 -0.86603
vertex 0.32139 0.36698 -0.93969
vertex 0.2962 0.42101 -0.93969
endloop
endfacet
facet normal 0.5211945833061482 0.24304277643831207 -0.8180992697426686
outer loop
vertex 0.43301 0.5 -0.86603
vertex 0.55667 0.57139 -0.76604
vertex 0.60402 0.46985 -0.76604
endloop
endfacet
facet normal 0.521194651590528 0.24307900955304365 -0.818088461150834
outer loop
vertex 0.60402 0.46985 -0.76604
vertex 0.46985 0.42101 -0.86603
vertex 0.43301 0.5 -0.86603
endloop
endfacet
facet normal 0.6420492211090301 0.2994319785109379 -0.7057714133615168
outer loop
vertex 0.55667 0.57139 -0.76604
vertex 0.66341 0.63302 -0.64279
vertex 0.71985 0.512 -0.64279
endloop
endfacet
facet normal 0.64204837430212 0.29939915819583596 -0.7057861072078634
outer loop
vertex 0.71985 0.512 -0.64279
vertex 0.60402 0.46985 -0.76604
vertex 0.55667 0.57139 -0.76604
endloop
endfacet
facet normal 0.7433192705782439 0.3466396422987491 -0.5721166143139201
outer loop
vertex 0.66341 0.63302 -0.64279
vertex 0.75 0.68301 -0.5
vertex 0.8138 0.5462 -0.5
endloop
endfacet
facet normal 0.743319289932212 0.3466612190032556 -0.5721035155055849
outer loop
vertex 0.8138 0.5462 -0.5
vertex 0.71985 0.512 -0.64279
vertex 0.66341 0.63302 -0.64279
endloop
endfacet
facet normal 0.8219547506013094 0.3833105261922631 -0.4212640840068728
outer loop
vertex 0.88302 0.57139 -0.34202
vertex 0.8138 0.5462 -0.5
vertex 0.75 0.68301 -0.5
endloop
endfacet
facet normal 0.8219597623113869 0.38324164587898507 -0.42131697094346304
outer loop
vertex 0.75 0.68301 -0.5
vertex 0.8138 0.71985 -0.34202
vertex 0.88302 0.57139 -0.34202
endloop
endfacet
facet normal 0.7428925903748602 0.5201930244263238 -0.42131913854502784
outer loop
vertex 0.75 0.68301 -0.5
vertex 0.66341 0.80667 -0.5
vertex 0.71985 0.85402 -0.34202
endloop
endfacet
facet normal 0.7428900996334511 0.5201947146199803 -0.42132144349420264
outer loop
vertex 0.71985 0.85402 -0.34202
vertex 0.8138 0.71985 -0.34202
vertex 0.75 0.68301 -0.5
endloop
endfacet
facet normal 0.6412858852161255 0.6412858852161257 -0.4213132170311538
outer loop
vertex 0.66341 0.80667 -0.5
vertex 0.55667 0.91341 -0.5
vertex 0.60402 0.96985 -0.34202
endloop
endfacet
facet normal 0.6412858852161261 0.6412858852161257 -0.4213132170311533
outer loop
vertex 0.60402 0.96985 -0.34202
vertex 0.71985 0.85402 -0.34202
vertex 0.66341 0.80667 -0.5
endloop
endfacet
facet normal 0.5201923851826271 0.7428916774648785 -0.4213215374882084
outer loop
vertex 0.55667 0.91341 -0.5
vertex 0.43301 1 -0.5
vertex 0.46985 1.0638 -0.34202
endloop
endfacet
facet normal 0.5201953037908374 0.7428909410283819 -0.42131923247333897
outer loop
vertex 0.46985 1.0638 -0.34202
vertex 0.60402 0.96985 -0.34202
vertex 0.55667 0.91341 -0.5
endloop
endfacet
facet normal 0.38331052619226347 0.8219547506013086 -0.421264084006874
outer loop
vertex 0.43301 1 -0.5
vertex 0.2962 1.0638 -0.5
vertex 0.32139 1.13302 -0.34202
endloop
endfacet
facet normal 0.38324164587898546 0.8219597623113877 -0.4213169709434608
outer loop
vertex 0.32139 1.13302 -0.34202
vertex 0.46985 1.0638 -0.34202
vertex 0.43301 1 -0.5
endloop
endfacet
facet normal 0.23471358370142548 0.8760157352275908 -0.42131456806013423
outer loop
vertex 0.2962 1.0638 -0.5
vertex 0.15038 1.10287 -0.5
vertex 0.16318 1.17542 -0.34202
endloop
endfacet
facet normal 0.23477227467632067 0.8760217352957707 -0.4212693892661715
outer loop
vertex 0.16318 1.17542 -0.34202
vertex 0.32139 1.13302 -0.34202
vertex 0.2962 1.0638 -0.5
endloop
endfacet
facet normal 0.07906558013479985 0.9034864696558635 -0.42126100363875607
outer loop
vertex 0.15038 1.10287 -0.5
vertex 0 1.11603 -0.5
vertex 0 1.18969 -0.34202
endloop
endfacet
facet normal 0.07900795845341166 0.9034701233656431 -0.42130686997329325
outer loop
vertex 0 1.18969 -0.34202
vertex 0.16318 1.17542 -0.34202
vertex 0.15038 1.10287 -0.5
endloop
endfacet
facet normal -0.07900795845341191 0.9034701233656434 -0.421306869973293
outer loop
vertex -0.15038 1.10287 -0.5
vertex -0.16318 1.17542 -0.34202
vertex 0 1.18969 -0.34202
endloop
endfacet
facet normal -0.07906558013479985 0.9034864696558635 -0.42126100363875607
outer loop
vertex 0 1.18969 -0.34202
vertex 0 1.11603 -0.5
vertex -0.15038 1.10287 -0.5
endloop
endfacet
facet normal -0.08416991172433246 0.9624979814419445 -0.25790126343331493
outer loop
vertex 0 1.18969 -0.34202
vertex -0.16318 1.17542 -0.34202
vertex -0.17101 1.21985 -0.17365
endloop
endfacet
facet normal -0.08419871320325754 0.9624880979204019 -0.25792874608403443
outer loop
vertex -0.17101 1.21985 -0.17365
vertex 0 1.23481 -0.17365
vertex 0 1.18969 -0.34202
endloop
endfacet
facet normal -0.250068494336843 0.9332400865629477 -0.25793155869743156
outer loop
vertex -0.32139 1.13302 -0.34202
vertex -0.33682 1.17542 -0.17365
vertex -0.17101 1.21985 -0.17365
endloop
endfacet
facet normal -0.2501065030558458 0.933239383218523 -0.25789724841317496
outer loop
vertex -0.17101 1.21985 -0.17365
vertex -0.16318 1.17542 -0.34202
vertex -0.32139 1.13302 -0.34202
endloop
endfacet
facet normal -0.25784951652689553 0.9622783780176537 -0.08679832963001105
outer loop
vertex -0.17101 1.21985 -0.17365
vertex -0.33682 1.17542 -0.17365
vertex -0.34202 1.18969 0
endloop
endfacet
facet normal -0.2578705061437675 0.9622707694908267 -0.08682032161130192
outer loop
vertex -0.34202 1.18969 0
vertex -0.17365 1.23481 0
vertex -0.17101 1.21985 -0.17365
endloop
endfacet
facet normal -0.4210301510910118 0.9028789925119184 -0.08685123345665857
outer loop
vertex -0.33682 1.17542 -0.17365
vertex -0.4924 1.10287 -0.17365
vertex -0.5 1.11603 0
endloop
endfacet
facet normal -0.4209888457419354 0.9029027674492413 -0.0868042872983499
outer loop
vertex -0.5 1.11603 0
vertex -0.34202 1.18969 0
vertex -0.33682 1.17542 -0.17365
endloop
endfacet
facet normal -0.5713990398779293 0.8160687892304942 -0.08680362014602812
outer loop
vertex -0.4924 1.10287 -0.17365
vertex -0.63302 1.00441 -0.17365
vertex -0.64279 1.01604 0
endloop
endfacet
facet normal -0.5714372316274047 0.8160368267234431 -0.08685267837632452
outer loop
vertex -0.64279 1.01604 0
vertex -0.5 1.11603 0
vertex -0.4924 1.10287 -0.17365
endloop
endfacet
facet normal -0.7044372306064095 0.7044372306064095 -0.08681230483718487
outer loop
vertex -0.63302 1.00441 -0.17365
vertex -0.75441 0.88302 -0.17365
vertex -0.76604 0.89279 0
endloop
endfacet
facet normal -0.7044372306064094 0.7044372306064096 -0.08681230483718494
outer loop
vertex -0.76604 0.89279 0
vertex -0.64279 1.01604 0
vertex -0.63302 1.00441 -0.17365
endloop
endfacet
facet normal -0.8160368267234429 0.5714372316274046 -0.08685267837632518
outer loop
vertex -0.85287 0.7424 -0.17365
vertex -0.86603 0.75 0
vertex -0.76604 0.89279 0
endloop
endfacet
facet normal -0.8160687892304935 0.5713990398779297 -0.08680362014602941
outer loop
vertex -0.76604 0.89279 0
vertex -0.75441 0.88302 -0.17365
vertex -0.85287 0.7424 -0.17365
endloop
endfacet
facet normal -0.8160368267234431 0.5714372316274047 0.08685267837632497
outer loop
vertex -0.76604 0.89279 0
vertex -0.86603 0.75 0
vertex -0.85287 0.7424 0.17365
endloop
endfacet
facet normal -0.8160687892304936 0.5713990398779298 0.08680362014602896
outer loop
vertex -0.85287 0.7424 0.17365
vertex -0.75441 0.88302 0.17365
vertex -0.76604 0.89279 0
endloop
endfacet
facet normal -0.9029027674492407 0.4209888457419359 0.08680428729835145
outer loop
vertex -0.86603 0.75 0
vertex -0.93969 0.59202 0
vertex -0.92542 0.58682 0.17365
endloop
endfacet
facet normal -0.9028789925119187 0.4210301510910113 0.08685123345665723
outer loop
vertex -0.92542 0.58682 0.17365
vertex -0.85287 0.7424 0.17365
vertex -0.86603 0.75 0
endloop
endfacet
facet normal -0.9622707694908266 0.25787050614376705 0.08682032161130027
outer loop
vertex -0.93969 0.59202 0
vertex -0.98481 0.42365 0
vertex -0.96985 0.42101 0.17365
endloop
endfacet
facet normal -0.9622783780176536 0.2578495165268946 0.08679832963001331
outer loop
vertex -0.96985 0.42101 0.17365
vertex -0.92542 0.58682 0.17365
vertex -0.93969 0.59202 0
endloop
endfacet
facet normal -0.9924348791411947 0.08681304816674236 0.08681304816674225
outer loop
vertex -0.98481 0.42365 0
vertex -1 0.25 0
vertex -0.98481 0.25 0.17365
endloop
endfacet
facet normal -0.992433945631791 0.08681838387609782 0.08681838387609829
outer loop
vertex -0.98481 0.25 0.17365
vertex -0.96985 0.42101 0.17365
vertex -0.98481 0.42365 0
endloop
endfacet
facet normal -0.9622765128263543 -0.25784901673526905 0.08682048969803247
outer loop
vertex -0.92542 -0.08682 0.17365
vertex -0.96985 0.07899 0.17365
vertex -0.98481 0.07635 0
endloop
endfacet
facet normal -0.9622726063006509 -0.2578709983743263 0.08679849860902271
outer loop
vertex -0.98481 0.07635 0
vertex -0.93969 -0.09202 0
vertex -0.92542 -0.08682 0.17365
endloop
endfacet
facet normal -0.9924339456317911 -0.08681838387609785 0.08681838387609829
outer loop
vertex -0.98481 0.07635 0
vertex -0.96985 0.07899 0.17365
vertex -0.98481 0.25 0.17365
endloop
endfacet
facet normal -0.9924348791411948 -0.08681304816674239 0.08681304816674221
outer loop
vertex -0.98481 0.25 0.17365
vertex -1 0.25 0
vertex -0.98481 0.07635 0
endloop
endfacet
facet normal -0.9624952352184967 -0.08419933757598114 0.2579019071923605
outer loop
vertex -0.98481 0.25 0.17365
vertex -0.96985 0.07899 0.17365
vertex -0.92542 0.08682 0.34202
endloop
endfacet
facet normal -0.9624905016289854 -0.08416925761886039 0.2579293902328191
outer loop
vertex -0.92542 0.08682 0.34202
vertex -0.93969 0.25 0.34202
vertex -0.98481 0.25 0.17365
endloop
endfacet
facet normal -0.933240086562948 -0.2500684943368421 0.2579315586974311
outer loop
vertex -0.96985 0.07899 0.17365
vertex -0.92542 -0.08682 0.17365
vertex -0.88302 -0.07139 0.34202
endloop
endfacet
facet normal -0.9332393832185231 -0.2501065030558462 0.2578972484131747
outer loop
vertex -0.88302 -0.07139 0.34202
vertex -0.92542 0.08682 0.34202
vertex -0.96985 0.07899 0.17365
endloop
endfacet
facet normal -0.8756378101022767 -0.4083270543959399 0.25792914175723636
outer loop
vertex -0.88302 -0.07139 0.34202
vertex -0.92542 -0.08682 0.17365
vertex -0.85287 -0.2424 0.17365
endloop
endfacet
facet normal -0.8756717512276526 -0.4082850506532266 0.2578804015721015
outer loop
vertex -0.85287 -0.2424 0.17365
vertex -0.8138 -0.21985 0.34202
vertex -0.88302 -0.07139 0.34202
endloop
endfacet
facet normal -0.9029027674492406 -0.4209888457419359 0.08680428729835156
outer loop
vertex -0.92542 -0.08682 0.17365
vertex -0.93969 -0.09202 0
vertex -0.86603 -0.25 0
endloop
endfacet
facet normal -0.9028789925119189 -0.42103015109101116 0.08685123345665698
outer loop
vertex -0.86603 -0.25 0
vertex -0.85287 -0.2424 0.17365
vertex -0.92542 -0.08682 0.17365
endloop
endfacet
facet normal -0.9029027674492406 -0.4209888457419359 -0.0868042872983515
outer loop
vertex -0.86603 -0.25 0
vertex -0.93969 -0.09202 0
vertex -0.92542 -0.08682 -0.17365
endloop
endfacet
facet normal -0.9028789925119189 -0.42103015109101116 -0.08685123345665703
outer loop
vertex -0.92542 -0.08682 -0.17365
vertex -0.85287 -0.2424 -0.17365
vertex -0.86603 -0.25 0
endloop
endfacet
facet normal -0.9622765128263543 -0.25784901673526905 -0.08682048969803247
outer loop
vertex -0.98481 0.07635 0
vertex -0.96985 0.07899 -0.17365
vertex -0.92542 -0.08682 -0.17365
endloop
endfacet
facet normal -0.9622726063006509 -0.2578709983743263 -0.08679849860902272
outer loop
vertex -0.92542 -0.08682 -0.17365
vertex -0.93969 -0.09202 0
vertex -0.98481 0.07635 0
endloop
endfacet
facet normal -0.9332393832185231 -0.25010650305584625 -0.2578972484131747
outer loop
vertex -0.96985 0.07899 -0.17365
vertex -0.92542 0.08682 -0.34202
vertex -0.88302 -0.07139 -0.34202
endloop
endfacet
facet normal -0.933240086562948 -0.2500684943368421 -0.2579315586974311
outer loop
vertex -0.88302 -0.07139 -0.34202
vertex -0.92542 -0.08682 -0.17365
vertex -0.96985 0.07899 -0.17365
endloop
endfacet
facet normal -0.8760157352275905 -0.23471358370142706 -0.42131456806013384
outer loop
vertex -0.92542 0.08682 -0.34202
vertex -0.85287 0.09962 -0.5
vertex -0.8138 -0.0462 -0.5
endloop
endfacet
facet normal -0.8760217352957704 -0.2347722746763211 -0.4212693892661715
outer loop
vertex -0.8138 -0.0462 -0.5
vertex -0.88302 -0.07139 -0.34202
vertex -0.92542 0.08682 -0.34202
endloop
endfacet
facet normal -0.7922412169196663 -0.2122798608834213 -0.5720936242233097
outer loop
vertex -0.85287 0.09962 -0.5
vertex -0.75441 0.11698 -0.64279
vertex -0.71985 -0.012 -0.64279
endloop
endfacet
facet normal -0.7922389385417151 -0.2122670095242409 -0.5721015477395008
outer loop
vertex -0.71985 -0.012 -0.64279
vertex -0.8138 -0.0462 -0.5
vertex -0.85287 0.09962 -0.5
endloop
endfacet
facet normal -0.6842818242915292 -0.18335187013262982 -0.7057906748201792
outer loop
vertex -0.75441 0.11698 -0.64279
vertex -0.63302 0.13838 -0.76604
vertex -0.60402 0.03015 -0.76604
endloop
endfacet
facet normal -0.6842819169415822 -0.1833523263257961 -0.7057904664825619
outer loop
vertex -0.60402 0.03015 -0.76604
vertex -0.71985 -0.012 -0.64279
vertex -0.75441 0.11698 -0.64279
endloop
endfacet
facet normal -0.5555144424043799 -0.148792619981218 -0.8180858515579376
outer loop
vertex -0.4924 0.16318 -0.86603
vertex -0.46985 0.07899 -0.86603
vertex -0.60402 0.03015 -0.76604
endloop
endfacet
facet normal -0.5554757485741294 -0.1488385540852801 -0.8181037694350356
outer loop
vertex -0.60402 0.03015 -0.76604
vertex -0.63302 0.13838 -0.76604
vertex -0.4924 0.16318 -0.86603
endloop
endfacet
facet normal -0.5211946515905265 -0.24307900955304382 -0.8180884611508348
outer loop
vertex -0.60402 0.03015 -0.76604
vertex -0.46985 0.07899 -0.86603
vertex -0.43301 0 -0.86603
endloop
endfacet
facet normal -0.5211945833061485 -0.24304277643831224 -0.8180992697426682
outer loop
vertex -0.43301 0 -0.86603
vertex -0.55667 -0.07139 -0.76604
vertex -0.60402 0.03015 -0.76604
endloop
endfacet
facet normal -0.3841908266989396 -0.17911839579023253 -0.9057118796669936
outer loop
vertex -0.46985 0.07899 -0.86603
vertex -0.32139 0.13302 -0.93969
vertex -0.2962 0.07899 -0.93969
endloop
endfacet
facet normal -0.38418644565447474 -0.17918000579707338 -0.9057015515598625
outer loop
vertex -0.2962 0.07899 -0.93969
vertex -0.43301 0 -0.86603
vertex -0.46985 0.07899 -0.86603
endloop
endfacet
facet normal -0.2353847548142129 -0.10984049805402454 -0.9656754538603002
outer loop
vertex -0.16318 0.19061 -0.98481
vertex -0.15038 0.16318 -0.98481
vertex -0.2962 0.07899 -0.93969
endloop
endfacet
facet normal -0.2354429011652647 -0.10976877068948782 -0.9656694347820076
outer loop
vertex -0.2962 0.07899 -0.93969
vertex -0.32139 0.13302 -0.93969
vertex -0.16318 0.19061 -0.98481
endloop
endfacet
facet normal -0.2128106800250849 -0.14896747601755625 -0.9656709095526383
outer loop
vertex -0.15038 0.16318 -0.98481
vertex -0.13302 0.13838 -0.98481
vertex -0.262 0.03015 -0.93969
endloop
endfacet
facet normal -0.21277734618981806 -0.14899642177911235 -0.9656737892505104
outer loop
vertex -0.262 0.03015 -0.93969
vertex -0.2962 0.07899 -0.93969
vertex -0.15038 0.16318 -0.98481
endloop
endfacet
facet normal -0.18368160766947064 -0.18368160766947197 -0.9656718562782685
outer loop
vertex -0.262 0.03015 -0.93969
vertex -0.13302 0.13838 -0.98481
vertex -0.11162 0.11698 -0.98481
endloop
endfacet
facet normal -0.183681607669475 -0.18368160766947164 -0.9656718562782677
outer loop
vertex -0.11162 0.11698 -0.98481
vertex -0.21985 -0.012 -0.93969
vertex -0.262 0.03015 -0.93969
endloop
endfacet
facet normal -0.06185322992281579 -0.06185322992280824 -0.9961668313571936
outer loop
vertex -0.13302 0.13838 -0.98481
vertex 0 0.25 -1
vertex -0.11162 0.11698 -0.98481
endloop
endfacet
facet normal -0.05016358081626485 -0.07166225830894672 -0.9961667209326719
outer loop
vertex -0.11162 0.11698 -0.98481
vertex 0 0.25 -1
vertex -0.08682 0.09962 -0.98481
endloop
endfacet
facet normal -0.03698979991578917 -0.07926798528832522 -0.996166823986083
outer loop
vertex -0.08682 0.09962 -0.98481
vertex 0 0.25 -1
vertex -0.05939 0.08682 -0.98481
endloop
endfacet
facet normal -0.022626546218837418 -0.0844955570164196 -0.9961669238891099
outer loop
vertex -0.05939 0.08682 -0.98481
vertex 0 0.25 -1
vertex -0.03015 0.07899 -0.98481
endloop
endfacet
facet normal -0.0076301258765472954 -0.08713950574918614 -0.9961668975211412
outer loop
vertex -0.03015 0.07899 -0.98481
vertex 0 0.25 -1
vertex 0 0.07635 -0.98481
endloop
endfacet
facet normal 0.0076301258765472954 -0.08713950574918614 -0.9961668975211412
outer loop
vertex 0 0.07635 -0.98481
vertex 0 0.25 -1
vertex 0.03015 0.07899 -0.98481
endloop
endfacet
facet normal 0.022626546218837418 -0.0844955570164196 -0.9961669238891099
outer loop
vertex 0.03015 0.07899 -0.98481
vertex 0 0.25 -1
vertex 0.05939 0.08682 -0.98481
endloop
endfacet
facet normal 0.03698979991578917 -0.07926798528832522 -0.996166823986083
outer loop
vertex 0.05939 0.08682 -0.98481
vertex 0 0.25 -1
vertex 0.08682 0.09962 -0.98481
endloop
endfacet
facet normal 0.05016358081626481 -0.07166225830894667 -0.9961667209326718
outer loop
vertex 0.08682 0.09962 -0.98481
vertex 0 0.25 -1
vertex 0.11162 0.11698 -0.98481
endloop
endfacet
facet normal 0.061853229922810525 -0.061853229922808256 -0.996166831357194
outer loop
vertex 0.11162 0.11698 -0.98481
vertex 0 0.25 -1
vertex 0.13302 0.13838 -0.98481
endloop
endfacet
facet normal 0.07166225830894672 -0.050163580816262675 -0.996166720932672
outer loop
vertex 0.13302 0.13838 -0.98481
vertex 0 0.25 -1
vertex 0.15038 0.16318 -0.98481
endloop
endfacet
facet normal 0.07926798528832775 -0.036989799915806004 -0.9961668239860823
outer loop
vertex 0.15038 0.16318 -0.98481
vertex 0 0.25 -1
vertex 0.16318 0.19061 -0.98481
endloop
endfacet
facet normal 0.08449555701641877 -0.0226265462188293 -0.9961669238891102
outer loop
vertex 0.16318 0.19061 -0.98481
vertex 0 0.25 -1
vertex 0.17101 0.21985 -0.98481
endloop
endfacet
facet normal 0.08713950574918533 -0.007630125876545634 -0.9961668975211412
outer loop
vertex 0.17101 0.21985 -0.98481
vertex 0 0.25 -1
vertex 0.17365 0.25 -0.98481
endloop
endfacet
facet normal 0.08713950574918534 0.0076301258765456344 -0.9961668975211412
outer loop
vertex 0 0.25 -1
vertex 0.17101 0.28015 -0.98481
vertex 0.17365 0.25 -0.98481
endloop
endfacet
facet normal 0.2587810014834284 0.022659430975663346 -0.965670204292901
outer loop
vertex 0.17365 0.25 -0.98481
vertex 0.17101 0.28015 -0.98481
vertex 0.33682 0.30939 -0.93969
endloop
endfacet
facet normal 0.25878146598040885 0.022658084241422807 -0.9656701114166985
outer loop
vertex 0.33682 0.30939 -0.93969
vertex 0.34202 0.25 -0.93969
vertex 0.17365 0.25 -0.98481
endloop
endfacet
facet normal 0.25092699798503654 0.06723048409288265 -0.965668526820075
outer loop
vertex 0.16318 0.30939 -0.98481
vertex 0.32139 0.36698 -0.93969
vertex 0.33682 0.30939 -0.93969
endloop
endfacet
facet normal 0.25092760994063995 0.0671943634006574 -0.9656708818726276
outer loop
vertex 0.33682 0.30939 -0.93969
vertex 0.17101 0.28015 -0.98481
vertex 0.16318 0.30939 -0.98481
endloop
endfacet
facet normal 0.4094636342067509 0.10967341669274609 -0.9057103697833759
outer loop
vertex 0.32139 0.36698 -0.93969
vertex 0.46985 0.42101 -0.86603
vertex 0.4924 0.33682 -0.86603
endloop
endfacet
facet normal 0.40946722116619744 0.10970792190648473 -0.9057045691953822
outer loop
vertex 0.4924 0.33682 -0.86603
vertex 0.33682 0.30939 -0.93969
vertex 0.32139 0.36698 -0.93969
endloop
endfacet
facet normal 0.5554972904715462 0.14884432619121143 -0.8180880923466953
outer loop
vertex 0.46985 0.42101 -0.86603
vertex 0.60402 0.46985 -0.76604
vertex 0.63302 0.36162 -0.76604
endloop
endfacet
facet normal 0.5554867479310663 0.14878520211243193 -0.8181060056651159
outer loop
vertex 0.63302 0.36162 -0.76604
vertex 0.4924 0.33682 -0.86603
vertex 0.46985 0.42101 -0.86603
endloop
endfacet
facet normal 0.6842819169415822 0.1833523263257961 -0.7057904664825617
outer loop
vertex 0.60402 0.46985 -0.76604
vertex 0.71985 0.512 -0.64279
vertex 0.75441 0.38302 -0.64279
endloop
endfacet
facet normal 0.6842818242915295 0.18335187013262955 -0.705790674820179
outer loop
vertex 0.75441 0.38302 -0.64279
vertex 0.63302 0.36162 -0.76604
vertex 0.60402 0.46985 -0.76604
endloop
endfacet
facet normal 0.7922389385417156 0.21226700952424074 -0.5721015477395006
outer loop
vertex 0.71985 0.512 -0.64279
vertex 0.8138 0.5462 -0.5
vertex 0.85287 0.40038 -0.5
endloop
endfacet
facet normal 0.792241216919666 0.21227986088342155 -0.5720936242233099
outer loop
vertex 0.85287 0.40038 -0.5
vertex 0.75441 0.38302 -0.64279
vertex 0.71985 0.512 -0.64279
endloop
endfacet
facet normal 0.8760368333092642 0.2347192365751802 -0.42126754760726715
outer loop
vertex 0.85287 0.40038 -0.5
vertex 0.8138 0.5462 -0.5
vertex 0.88302 0.57139 -0.34202
endloop
endfacet
facet normal 0.876002290115122 0.2347670634023234 -0.4213127266704757
outer loop
vertex 0.88302 0.57139 -0.34202
vertex 0.92542 0.41318 -0.34202
vertex 0.85287 0.40038 -0.5
endloop
endfacet
facet normal 0.9332393832185231 0.25010650305584625 -0.2578972484131748
outer loop
vertex 0.96985 0.42101 -0.17365
vertex 0.92542 0.41318 -0.34202
vertex 0.88302 0.57139 -0.34202
endloop
endfacet
facet normal 0.933240086562948 0.2500684943368421 -0.25793155869743106
outer loop
vertex 0.88302 0.57139 -0.34202
vertex 0.92542 0.58682 -0.17365
vertex 0.96985 0.42101 -0.17365
endloop
endfacet
facet normal 0.87565968291346 0.4082794237590588 -0.2579302848733926
outer loop
vertex 0.92542 0.58682 -0.17365
vertex 0.88302 0.57139 -0.34202
vertex 0.8138 0.71985 -0.34202
endloop
endfacet
facet normal 0.8756493255366595 0.40833242426844407 -0.257881542531156
outer loop
vertex 0.8138 0.71985 -0.34202
vertex 0.85287 0.7424 -0.17365
vertex 0.92542 0.58682 -0.17365
endloop
endfacet
facet normal 0.7914318881679658 0.5541851821821595 -0.25790376158678846
outer loop
vertex 0.8138 0.71985 -0.34202
vertex 0.71985 0.85402 -0.34202
vertex 0.75441 0.88302 -0.17365
endloop
endfacet
facet normal 0.7914551351131713 0.55416493104283 -0.25787593587864505
outer loop
vertex 0.75441 0.88302 -0.17365
vertex 0.85287 0.7424 -0.17365
vertex 0.8138 0.71985 -0.34202
endloop
endfacet
facet normal 0.6831857568511919 0.683185756851192 -0.25790394194608246
outer loop
vertex 0.71985 0.85402 -0.34202
vertex 0.60402 0.96985 -0.34202
vertex 0.63302 1.00441 -0.17365
endloop
endfacet
facet normal 0.6831857568511914 0.6831857568511926 -0.2579039419460815
outer loop
vertex 0.63302 1.00441 -0.17365
vertex 0.75441 0.88302 -0.17365
vertex 0.71985 0.85402 -0.34202
endloop
endfacet
facet normal 0.5541895423565255 0.7914381149332085 -0.25787528259535497
outer loop
vertex 0.60402 0.96985 -0.34202
vertex 0.46985 1.0638 -0.34202
vertex 0.4924 1.10287 -0.17365
endloop
endfacet
facet normal 0.5541607709560222 0.7914491937013594 -0.25790310917648024
outer loop
vertex 0.4924 1.10287 -0.17365
vertex 0.63302 1.00441 -0.17365
vertex 0.60402 0.96985 -0.34202
endloop
endfacet
facet normal 0.408279423759057 0.8756596829134609 -0.25793028487339265
outer loop
vertex 0.46985 1.0638 -0.34202
vertex 0.32139 1.13302 -0.34202
vertex 0.33682 1.17542 -0.17365
endloop
endfacet
facet normal 0.40833242426844424 0.8756493255366593 -0.25788154253115664
outer loop
vertex 0.33682 1.17542 -0.17365
vertex 0.4924 1.10287 -0.17365
vertex 0.46985 1.0638 -0.34202
endloop
endfacet
facet normal 0.2501065030558458 0.933239383218523 -0.2578972484131754
outer loop
vertex 0.32139 1.13302 -0.34202
vertex 0.16318 1.17542 -0.34202
vertex 0.17101 1.21985 -0.17365
endloop
endfacet
facet normal 0.250068494336843 0.9332400865629477 -0.25793155869743134
outer loop
vertex 0.17101 1.21985 -0.17365
vertex 0.33682 1.17542 -0.17365
vertex 0.32139 1.13302 -0.34202
endloop
endfacet
facet normal 0.08419871320325754 0.9624880979204019 -0.25792874608403443
outer loop
vertex 0 1.18969 -0.34202
vertex 0 1.23481 -0.17365
vertex 0.17101 1.21985 -0.17365
endloop
endfacet
facet normal 0.08416991172433246 0.9624979814419445 -0.25790126343331543
outer loop
vertex 0.17101 1.21985 -0.17365
vertex 0.16318 1.17542 -0.34202
vertex 0 1.18969 -0.34202
endloop
endfacet
facet normal 0.08681842470789353 0.9924344123861636 -0.08681300733743647
outer loop
vertex 0.17101 1.21985 -0.17365
vertex 0 1.23481 -0.17365
vertex 0 1.25 0
endloop
endfacet
facet normal 0.08681300795818295 0.992434419482451 -0.08681834296842385
outer loop
vertex 0 1.25 0
vertex 0.17365 1.23481 0
vertex 0.17101 1.21985 -0.17365
endloop
endfacet
facet normal -0.08681300795818295 0.992434419482451 -0.08681834296842325
outer loop
vertex -0.17101 1.21985 -0.17365
vertex -0.17365 1.23481 0
vertex 0 1.25 0
endloop
endfacet
facet normal -0.08681842470789353 0.9924344123861636 -0.08681300733743647
outer loop
vertex 0 1.25 0
vertex 0 1.23481 -0.17365
vertex -0.17101 1.21985 -0.17365
endloop
endfacet
facet normal -0.08714204243958792 0.9961958966184599 0
outer loop
vertex 0 1.25 0
vertex -0.17365 1.23481 0
vertex 0 1.25 3.5
endloop
endfacet
facet normal -0.2588382349861957 0.965881950900393 0.008650146477478995
outer loop
vertex -0.17365 1.23481 0
vertex -0.34202 1.18969 0
vertex 0 1.25 3.5
endloop
endfacet
facet normal -0.4224446930985865 0.9060251509057131 0.025669187737843813
outer loop
vertex -0.34202 1.18969 0
vertex -0.5 1.11603 0
vertex 0 1.25 3.5
endloop
endfacet
facet normal -0.5728721819385401 0.8180859971897602 0.05052488855021634
outer loop
vertex -0.5 1.11603 0
vertex -0.64279 1.01604 0
vertex 0 1.25 3.5
endloop
endfacet
facet normal -0.7047070685038475 0.7047070685038472 0.08231582594755164
outer loop
vertex -0.64279 1.01604 0
vertex -0.76604 0.89279 0
vertex 0 1.25 3.5
endloop
endfacet
facet normal -0.7188705397144877 0.689684731014462 0.08694894442205697
outer loop
vertex -0.76604 0.89279 0
vertex -0.75441 0.88302 0.17365
vertex 0 1.25 3.5
endloop
endfacet
facet normal -0.8130822627377109 0.5693079191377822 0.12159657572617845
outer loop
vertex -0.75441 0.88302 0.17365
vertex -0.85287 0.7424 0.17365
vertex 0 1.25 3.5
endloop
endfacet
facet normal -0.8937956653343848 0.4167944177915526 0.16556485716257932
outer loop
vertex -0.85287 0.7424 0.17365
vertex -0.92542 0.58682 0.17365
vertex 0 1.25 3.5
endloop
endfacet
facet normal -0.9439299430159623 0.25293291941498763 0.21218199959962122
outer loop
vertex -0.92542 0.58682 0.17365
vertex -0.96985 0.42101 0.17365
vertex 0 1.25 3.5
endloop
endfacet
facet normal -0.9620102048771427 0.0898619788863343 0.2578006797176263
outer loop
vertex -0.98481 0.25 0.17365
vertex -0.93969 0.25 0.34202
vertex 0 1.25 3.5
endloop
endfacet
facet normal -0.9620609708779996 0.08416134801669437 0.2595294892941718
outer loop
vertex 0 1.25 3.5
vertex -0.96985 0.42101 0.17365
vertex -0.98481 0.25 0.17365
endloop
endfacet
facet normal -0.9584674282149002 0 0.2852020144583751
outer loop
vertex 0 1.25 3.5
vertex -0.93969 0.25 0.34202
vertex 0 0.25 3.5
endloop
endfacet
facet normal -0.9551182736010099 -0.08352456038905738 0.284205438451204
outer loop
vertex -0.93969 0.25 0.34202
vertex -0.92542 0.08682 0.34202
vertex 0 0.25 3.5
endloop
endfacet
facet normal -0.9260829778397066 -0.24818859907972687 0.2842054493537804
outer loop
vertex -0.92542 0.08682 0.34202
vertex -0.88302 -0.07139 0.34202
vertex 0 0.25 3.5
endloop
endfacet
facet normal -0.8689527950403645 -0.4051523135706187 0.28420528285011426
outer loop
vertex -0.88302 -0.07139 0.34202
vertex -0.8138 -0.21985 0.34202
vertex 0 0.25 3.5
endloop
endfacet
facet normal -0.7853641825236067 -0.5499363862867479 0.28420603766792063
outer loop
vertex -0.71985 -0.35402 0.34202
vertex 0 0.25 3.5
vertex -0.8138 -0.21985 0.34202
endloop
endfacet
facet normal -0.7914381149332079 -0.554189542356526 0.2578752825953558
outer loop
vertex -0.71985 -0.35402 0.34202
vertex -0.8138 -0.21985 0.34202
vertex -0.85287 -0.2424 0.17365
endloop
endfacet
facet normal -0.7914491937013606 -0.5541607709560207 0.2579031091764793
outer loop
vertex -0.85287 -0.2424 0.17365
vertex -0.75441 -0.38302 0.17365
vertex -0.71985 -0.35402 0.34202
endloop
endfacet
facet normal -0.8160652598855871 -0.5713965686839375 0.08685305351046459
outer loop
vertex -0.75441 -0.38302 0.17365
vertex -0.85287 -0.2424 0.17365
vertex -0.86603 -0.25 0
endloop
endfacet
facet normal -0.8160403021900206 -0.5714396653545762 0.08680399795556644
outer loop
vertex -0.86603 -0.25 0
vertex -0.76604 -0.39279 0
vertex -0.75441 -0.38302 0.17365
endloop
endfacet
facet normal -0.8160368267234431 -0.5714372316274047 -0.08685267837632446
outer loop
vertex -0.76604 -0.39279 0
vertex -0.86603 -0.25 0
vertex -0.85287 -0.2424 -0.17365
endloop
endfacet
facet normal -0.8160687892304935 -0.5713990398779301 -0.08680362014602905
outer loop
vertex -0.85287 -0.2424 -0.17365
vertex -0.75441 -0.38302 -0.17365
vertex -0.76604 -0.39279 0
endloop
endfacet
facet normal -0.7914491937013606 -0.5541607709560207 -0.2579031091764794
outer loop
vertex -0.71985 -0.35402 -0.34202
vertex -0.75441 -0.38302 -0.17365
vertex -0.85287 -0.2424 -0.17365
endloop
endfacet
facet normal -0.7914381149332078 -0.5541895423565261 -0.25787528259535597
outer loop
vertex -0.85287 -0.2424 -0.17365
vertex -0.8138 -0.21985 -0.34202
vertex -0.71985 -0.35402 -0.34202
endloop
endfacet
facet normal -0.8756596829134602 -0.4082794237590591 -0.2579302848733917
outer loop
vertex -0.92542 -0.08682 -0.17365
vertex -0.88302 -0.07139 -0.34202
vertex -0.8138 -0.21985 -0.34202
endloop
endfacet
facet normal -0.8756493255366595 -0.408332424268444 -0.2578815425311563
outer loop
vertex -0.8138 -0.21985 -0.34202
vertex -0.85287 -0.2424 -0.17365
vertex -0.92542 -0.08682 -0.17365
endloop
endfacet
facet normal -0.8219547506013093 -0.383310526192263 -0.4212640840068731
outer loop
vertex -0.88302 -0.07139 -0.34202
vertex -0.8138 -0.0462 -0.5
vertex -0.75 -0.18301 -0.5
endloop
endfacet
facet normal -0.8219597623113872 -0.38324164587898496 -0.4213169709434626
outer loop
vertex -0.75 -0.18301 -0.5
vertex -0.8138 -0.21985 -0.34202
vertex -0.88302 -0.07139 -0.34202
endloop
endfacet
facet normal -0.7433192899322112 -0.34666121900325575 -0.5721035155055858
outer loop
vertex -0.8138 -0.0462 -0.5
vertex -0.71985 -0.012 -0.64279
vertex -0.66341 -0.13302 -0.64279
endloop
endfacet
facet normal -0.7433192705782439 -0.3466396422987491 -0.5721166143139201
outer loop
vertex -0.66341 -0.13302 -0.64279
vertex -0.75 -0.18301 -0.5
vertex -0.8138 -0.0462 -0.5
endloop
endfacet
facet normal -0.6420628021360182 -0.29940588616447156 -0.7057701279051926
outer loop
vertex -0.60402 0.03015 -0.76604
vertex -0.55667 -0.07139 -0.76604
vertex -0.66341 -0.13302 -0.64279
endloop
endfacet
facet normal -0.6420371161216192 -0.29942633311770006 -0.7057848202943464
outer loop
vertex -0.66341 -0.13302 -0.64279
vertex -0.71985 -0.012 -0.64279
vertex -0.60402 0.03015 -0.76604
endloop
endfacet
facet normal -0.580325470606965 -0.40633530881261287 -0.7057718930199495
outer loop
vertex -0.66341 -0.13302 -0.64279
vertex -0.55667 -0.07139 -0.76604
vertex -0.4924 -0.16318 -0.76604
endloop
endfacet
facet normal -0.5803227785788856 -0.4063532785825273 -0.7057637605089345
outer loop
vertex -0.4924 -0.16318 -0.76604
vertex -0.58682 -0.2424 -0.64279
vertex -0.66341 -0.13302 -0.64279
endloop
endfacet
facet normal -0.47107128434786605 -0.32986207458397326 -0.8180970949795684
outer loop
vertex -0.55667 -0.07139 -0.76604
vertex -0.43301 0 -0.86603
vertex -0.38302 -0.07139 -0.86603
endloop
endfacet
facet normal -0.47107515818118895 -0.32983985637111735 -0.8181038225638899
outer loop
vertex -0.38302 -0.07139 -0.86603
vertex -0.4924 -0.16318 -0.76604
vertex -0.55667 -0.07139 -0.76604
endloop
endfacet
facet normal -0.3472461022762341 -0.2431575900460148 -0.9057011266731301
outer loop
vertex -0.2962 0.07899 -0.93969
vertex -0.262 0.03015 -0.93969
vertex -0.38302 -0.07139 -0.86603
endloop
endfacet
facet normal -0.3472480124278545 -0.2431562983788811 -0.9057007410969614
outer loop
vertex -0.38302 -0.07139 -0.86603
vertex -0.43301 0 -0.86603
vertex -0.2962 0.07899 -0.93969
endloop
endfacet
facet normal -0.29975664280303876 -0.29975664280304215 -0.9056996799110071
outer loop
vertex -0.262 0.03015 -0.93969
vertex -0.21985 -0.012 -0.93969
vertex -0.32139 -0.13302 -0.86603
endloop
endfacet
facet normal -0.299756642803043 -0.2997566428030407 -0.9056996799110062
outer loop
vertex -0.32139 -0.13302 -0.86603
vertex -0.38302 -0.07139 -0.86603
vertex -0.262 0.03015 -0.93969
endloop
endfacet
facet normal -0.2431575900460158 -0.34724610227623764 -0.9057011266731286
outer loop
vertex -0.32139 -0.13302 -0.86603
vertex -0.21985 -0.012 -0.93969
vertex -0.17101 -0.0462 -0.93969
endloop
endfacet
facet normal -0.24315629837888078 -0.34724801242785236 -0.9057007410969623
outer loop
vertex -0.17101 -0.0462 -0.93969
vertex -0.25 -0.18301 -0.86603
vertex -0.32139 -0.13302 -0.86603
endloop
endfacet
facet normal -0.1489593345385928 -0.2127990493408358 -0.9656747284947743
outer loop
vertex -0.11162 0.11698 -0.98481
vertex -0.08682 0.09962 -0.98481
vertex -0.17101 -0.0462 -0.93969
endloop
endfacet
facet normal -0.14900055635974271 -0.212783250661115 -0.9656718502900331
outer loop
vertex -0.17101 -0.0462 -0.93969
vertex -0.21985 -0.012 -0.93969
vertex -0.11162 0.11698 -0.98481
endloop
endfacet
facet normal -0.10985305328662648 -0.23541166028530672 -0.9656674670326847
outer loop
vertex -0.08682 0.09962 -0.98481
vertex -0.05939 0.08682 -0.98481
vertex -0.11698 -0.07139 -0.93969
endloop
endfacet
facet normal -0.10976240032419707 -0.23542923737660104 -0.9656734901939386
outer loop
vertex -0.11698 -0.07139 -0.93969
vertex -0.17101 -0.0462 -0.93969
vertex -0.08682 0.09962 -0.98481
endloop
endfacet
facet normal -0.06719436340066275 -0.2509276099406409 -0.9656708818726272
outer loop
vertex -0.05939 0.08682 -0.98481
vertex -0.03015 0.07899 -0.98481
vertex -0.05939 -0.08682 -0.93969
endloop
endfacet
facet normal -0.0672304840928829 -0.2509269979850364 -0.9656685268200751
outer loop
vertex -0.05939 -0.08682 -0.93969
vertex -0.11698 -0.07139 -0.93969
vertex -0.05939 0.08682 -0.98481
endloop
endfacet
facet normal -0.022659470935699193 -0.25878145784511186 -0.9656700810589882
outer loop
vertex -0.03015 0.07899 -0.98481
vertex 0 0.07635 -0.98481
vertex 0 -0.09202 -0.93969
endloop
endfacet
facet normal -0.022658063956480654 -0.2587812343030626 -0.9656701739778066
outer loop
vertex 0 -0.09202 -0.93969
vertex -0.05939 -0.08682 -0.93969
vertex -0.03015 0.07899 -0.98481
endloop
endfacet
facet normal 0.022659430975650062 -0.2587810014834282 -0.9656702042929012
outer loop
vertex 0 0.07635 -0.98481
vertex 0.03015 0.07899 -0.98481
vertex 0.05939 -0.08682 -0.93969
endloop
endfacet
facet normal 0.02265808424142484 -0.2587814659804085 -0.9656701114166987
outer loop
vertex 0.05939 -0.08682 -0.93969
vertex 0 -0.09202 -0.93969
vertex 0 0.07635 -0.98481
endloop
endfacet
facet normal 0.06719736865793563 -0.2509388326382983 -0.9656677564874877
outer loop
vertex 0.03015 0.07899 -0.98481
vertex 0.05939 0.08682 -0.98481
vertex 0.11698 -0.07139 -0.93969
endloop
endfacet
facet normal 0.0672289575289485 -0.250921300330015 -0.9656701136051924
outer loop
vertex 0.11698 -0.07139 -0.93969
vertex 0.05939 -0.08682 -0.93969
vertex 0.03015 0.07899 -0.98481
endloop
endfacet
facet normal 0.10984049805403372 -0.23538475481421142 -0.9656754538602996
outer loop
vertex 0.05939 0.08682 -0.98481
vertex 0.08682 0.09962 -0.98481
vertex 0.17101 -0.0462 -0.93969
endloop
endfacet
facet normal 0.10976877068948378 -0.23544290116526484 -0.9656694347820081
outer loop
vertex 0.17101 -0.0462 -0.93969
vertex 0.11698 -0.07139 -0.93969
vertex 0.05939 0.08682 -0.98481
endloop
endfacet
facet normal 0.14896747601754853 -0.21281068002508055 -0.9656709095526406
outer loop
vertex 0.08682 0.09962 -0.98481
vertex 0.11162 0.11698 -0.98481
vertex 0.21985 -0.012 -0.93969
endloop
endfacet
facet normal 0.14899642177911396 -0.2127773461898198 -0.96567378925051
outer loop
vertex 0.21985 -0.012 -0.93969
vertex 0.17101 -0.0462 -0.93969
vertex 0.08682 0.09962 -0.98481
endloop
endfacet
facet normal 0.18368160766947197 -0.18368160766947197 -0.9656718562782682
outer loop
vertex 0.11162 0.11698 -0.98481
vertex 0.13302 0.13838 -0.98481
vertex 0.262 0.03015 -0.93969
endloop
endfacet
facet normal 0.183681607669475 -0.18368160766947164 -0.9656718562782677
outer loop
vertex 0.262 0.03015 -0.93969
vertex 0.21985 -0.012 -0.93969
vertex 0.11162 0.11698 -0.98481
endloop
endfacet
facet normal 0.21279904934083513 -0.14895933453858512 -0.9656747284947755
outer loop
vertex 0.13302 0.13838 -0.98481
vertex 0.15038 0.16318 -0.98481
vertex 0.2962 0.07899 -0.93969
endloop
endfacet
facet normal 0.21278325066111586 -0.14900055635974896 -0.9656718502900321
outer loop
vertex 0.2962 0.07899 -0.93969
vertex 0.262 0.03015 -0.93969
vertex 0.13302 0.13838 -0.98481
endloop
endfacet
facet normal 0.23541166028530855 -0.10985305328661815 -0.965667467032685
outer loop
vertex 0.15038 0.16318 -0.98481
vertex 0.16318 0.19061 -0.98481
vertex 0.32139 0.13302 -0.93969
endloop
endfacet
facet normal 0.23542923737660074 -0.10976240032420069 -0.9656734901939382
outer loop
vertex 0.32139 0.13302 -0.93969
vertex 0.2962 0.07899 -0.93969
vertex 0.15038 0.16318 -0.98481
endloop
endfacet
facet normal 0.2509276099406406 -0.06719436340065758 -0.9656708818726276
outer loop
vertex 0.16318 0.19061 -0.98481
vertex 0.17101 0.21985 -0.98481
vertex 0.33682 0.19061 -0.93969
endloop
endfacet
facet normal 0.2509269979850373 -0.06723048409288251 -0.9656685268200751
outer loop
vertex 0.33682 0.19061 -0.93969
vertex 0.32139 0.13302 -0.93969
vertex 0.16318 0.19061 -0.98481
endloop
endfacet
facet normal 0.2587814659804092 -0.022658084241422835 -0.9656701114166985
outer loop
vertex 0.17365 0.25 -0.98481
vertex 0.34202 0.25 -0.93969
vertex 0.33682 0.19061 -0.93969
endloop
endfacet
facet normal 0.25878100148342703 -0.02265943097566322 -0.9656702042929012
outer loop
vertex 0.33682 0.19061 -0.93969
vertex 0.17101 0.21985 -0.98481
vertex 0.17365 0.25 -0.98481
endloop
endfacet
facet normal 0.42229497409000755 -0.03697480830557381 -0.9057040457064801
outer loop
vertex 0.33682 0.19061 -0.93969
vertex 0.34202 0.25 -0.93969
vertex 0.5 0.25 -0.86603
endloop
endfacet
facet normal 0.4222925763556264 -0.036966408434724075 -0.9057055065540701
outer loop
vertex 0.5 0.25 -0.86603
vertex 0.4924 0.16318 -0.86603
vertex 0.33682 0.19061 -0.93969
endloop
endfacet
facet normal 0.42229257635562656 0.03696640843472413 -0.9057055065540701
outer loop
vertex 0.33682 0.30939 -0.93969
vertex 0.4924 0.33682 -0.86603
vertex 0.5 0.25 -0.86603
endloop
endfacet
facet normal 0.42229497409000716 0.036974808305573766 -0.9057040457064803
outer loop
vertex 0.5 0.25 -0.86603
vertex 0.34202 0.25 -0.93969
vertex 0.33682 0.30939 -0.93969
endloop
endfacet
facet normal 0.572881255107722 0.05014379020249299 -0.8181030912118163
outer loop
vertex 0.4924 0.33682 -0.86603
vertex 0.63302 0.36162 -0.76604
vertex 0.64279 0.25 -0.76604
endloop
endfacet
facet normal 0.5728830572129524 0.05014871267931922 -0.8181015275471304
outer loop
vertex 0.64279 0.25 -0.76604
vertex 0.5 0.25 -0.86603
vertex 0.4924 0.33682 -0.86603
endloop
endfacet
facet normal 0.6460639874568332 0.056549410118735176 -0.7611855807400714
outer loop
vertex 0.64279 0.25 -0.76604
vertex 0.63302 0.36162 -0.76604
vertex 1 -0.25 -0.5
endloop
endfacet
facet normal 0.6982873875974769 0.1114126654722936 -0.7070940123453526
outer loop
vertex 0.63302 0.36162 -0.76604
vertex 0.75441 0.38302 -0.64279
vertex 1 -0.25 -0.5
endloop
endfacet
facet normal 0.7992756678580757 0.1808134152525578 -0.5731185877588799
outer loop
vertex 0.75441 0.38302 -0.64279
vertex 0.85287 0.40038 -0.5
vertex 1 -0.25 -0.5
endloop
endfacet
facet normal 0.884144599831643 0.20001260028480153 -0.42223605520591956
outer loop
vertex 1 -0.25 -0.5
vertex 0.85287 0.40038 -0.5
vertex 0.92542 0.41318 -0.34202
endloop
endfacet
facet normal 0.9510952319198501 0.1686132771397543 -0.2588192855865249
outer loop
vertex 1 -0.25 -0.5
vertex 0.92542 0.41318 -0.34202
vertex 0.96985 0.42101 -0.17365
endloop
endfacet
facet normal 0.9924340691753366 0.08681698228499658 -0.08681837321103031
outer loop
vertex 1 -0.25 -0.5
vertex 0.96985 0.42101 -0.17365
vertex 0.98481 0.42365 0
endloop
endfacet
facet normal 0.9924348791411948 0.08681304816674217 -0.0868130481667422
outer loop
vertex 0.98481 0.42365 0
vertex 1 0.25 0
vertex 1 -0.25 -0.5
endloop
endfacet
facet normal 0.995591259680636 0.08708915194096732 -0.03483566077638672
outer loop
vertex 1 1.25 2.5
vertex 1 0.25 0
vertex 0.98481 0.42365 0
endloop
endfacet
facet normal 0.9655714465953911 0.24518993520175367 -0.086911893291101
outer loop
vertex 1 1.25 2.5
vertex 0.98481 0.42365 0
vertex 0.96985 0.42101 -0.17365
endloop
endfacet
facet normal 0.9619366212073094 0.25775794029455823 -0.09076773102469894
outer loop
vertex 1 1.25 2.5
vertex 0.96985 0.42101 -0.17365
vertex 0.92542 0.58682 -0.17365
endloop
endfacet
facet normal 0.8987284014319018 0.4190946492086681 -0.12902300362463123
outer loop
vertex 1 1.25 2.5
vertex 0.92542 0.58682 -0.17365
vertex 0.85287 0.7424 -0.17365
endloop
endfacet
facet normal 0.809620129426167 0.5668837856869595 -0.15217759215199175
outer loop
vertex 0.85287 0.7424 -0.17365
vertex 0.75441 0.88302 -0.17365
vertex 1 1.25 2.5
endloop
endfacet
facet normal 0.6980059835976744 0.698005983597674 -0.1599227742495943
outer loop
vertex 0.75441 0.88302 -0.17365
vertex 0.63302 1.00441 -0.17365
vertex 1 1.25 2.5
endloop
endfacet
facet normal 0.56688378568696 0.8096201294261666 -0.15217759215199234
outer loop
vertex 0.63302 1.00441 -0.17365
vertex 0.4924 1.10287 -0.17365
vertex 1 1.25 2.5
endloop
endfacet
facet normal 0.41909464920866674 0.8987284014319026 -0.1290230036246302
outer loop
vertex 0.4924 1.10287 -0.17365
vertex 0.33682 1.17542 -0.17365
vertex 1 1.25 2.5
endloop
endfacet
facet normal 0.2577579402945597 0.961936621207309 -0.09076773102470008
outer loop
vertex 0.33682 1.17542 -0.17365
vertex 0.17101 1.21985 -0.17365
vertex 1 1.25 2.5
endloop
endfacet
facet normal 0.2451899352017519 0.9655714465953917 -0.08691189329109825
outer loop
vertex 0.17101 1.21985 -0.17365
vertex 0.17365 1.23481 0
vertex 1 1.25 2.5
endloop
endfacet
facet normal 0.08708915194096681 0.995591259680636 -0.03483566077638672
outer loop
vertex 0.17365 1.23481 0
vertex 0 1.25 0
vertex 1 1.25 2.5
endloop
endfacet
facet normal 0 1 0
outer loop
vertex 0 1.25 0
vertex 0 1.25 3.5
vertex 1 1.25 3.5
endloop
endfacet
facet normal 0 1 0
outer loop
vertex 1 1.25 3.5
vertex 1 1.25 2.5
vertex 0 1.25 0
endloop
endfacet
facet normal 0 0 1
outer loop
vertex 1 1.25 3.5
vertex 0 1.25 3.5
vertex 0 0.25 3.5
endloop
endfacet
facet normal 0 0 1
outer loop
vertex 0 0.25 3.5
vertex 1 0.25 3.5
vertex 1 1.25 3.5
endloop
endfacet
facet normal 0 -0.894427190999916 0.447213595499958
outer loop
vertex 1 -1.25 0.5
vertex 1 0.25 3.5
vertex 0 0.25 3.5
endloop
endfacet
facet normal 0 -0.894427190999916 0.447213595499958
outer loop
vertex 0 0.25 3.5
vertex 0 -1.25 0.5
vertex 1 -1.25 0.5
endloop
endfacet
facet normal -0.7711921042138633 -0.5693945826213621 0.28469729131068106
outer loop
vertex 0 -1.25 0.5
vertex 0 0.25 3.5
vertex -0.71985 -0.35402 0.34202
endloop
endfacet
facet normal -0.7748247592917278 -0.5769471728764681 0.2584154641238932
outer loop
vertex 0 -1.25 0.5
vertex -0.71985 -0.35402 0.34202
vertex -0.75441 -0.38302 0.17365
endloop
endfacet
facet normal -0.7675251059749446 -0.635069094171338 0.08713470793286789
outer loop
vertex 0 -1.25 0.5
vertex -0.75441 -0.38302 0.17365
vertex -0.76604 -0.39279 0
endloop
endfacet
facet normal -0.7456463532839217 -0.6663418910997485 0
outer loop
vertex 0 -1.25 -0.5
vertex 0 -1.25 0.5
vertex -0.76604 -0.39279 0
endloop
endfacet
facet normal -0.7675251059749446 -0.635069094171338 -0.08713470793286789
outer loop
vertex 0 -1.25 -0.5
vertex -0.76604 -0.39279 0
vertex -0.75441 -0.38302 -0.17365
endloop
endfacet
facet normal -0.7748247592917278 -0.5769471728764681 -0.2584154641238932
outer loop
vertex 0 -1.25 -0.5
vertex -0.75441 -0.38302 -0.17365
vertex -0.71985 -0.35402 -0.34202
endloop
endfacet
facet normal -0.7419752263072473 -0.5215432382032025 -0.42126644090269827
outer loop
vertex -0.8138 -0.21985 -0.34202
vertex -0.75 -0.18301 -0.5
vertex 0 -1.25 -0.5
endloop
endfacet
facet normal -0.7386493267643696 -0.5172251937803733 -0.4322907250790823
outer loop
vertex 0 -1.25 -0.5
vertex -0.71985 -0.35402 -0.34202
vertex -0.8138 -0.21985 -0.34202
endloop
endfacet
facet normal -0.67703751673425 -0.47407481629800513 -0.5629149753615842
outer loop
vertex -0.66341 -0.13302 -0.64279
vertex -0.58682 -0.2424 -0.64279
vertex 0 -1.25 -0.5
endloop
endfacet
facet normal -0.6710287329320985 -0.4716741016308254 -0.5720524289173993
outer loop
vertex 0 -1.25 -0.5
vertex -0.75 -0.18301 -0.5
vertex -0.66341 -0.13302 -0.64279
endloop
endfacet
facet normal -0.5632385580982695 -0.42817552825117877 -0.7067022312673185
outer loop
vertex -0.58682 -0.2424 -0.64279
vertex -0.4924 -0.16318 -0.76604
vertex 0 -1.25 -0.5
endloop
endfacet
facet normal -0.42044390659235387 -0.3909170353725644 -0.8187861704162358
outer loop
vertex -0.4924 -0.16318 -0.76604
vertex -0.38302 -0.07139 -0.86603
vertex 0 -1.25 -0.5
endloop
endfacet
facet normal -0.385632581488399 -0.3856325814883986 -0.838197485196172
outer loop
vertex -0.38302 -0.07139 -0.86603
vertex -0.32139 -0.13302 -0.86603
vertex 0 -1.25 -0.5
endloop
endfacet
facet normal -0.25692400275960653 -0.36690947303477345 -0.8940735402657471
outer loop
vertex -0.32139 -0.13302 -0.86603
vertex -0.25 -0.18301 -0.86603
vertex 0 -1.25 -0.5
endloop
endfacet
facet normal -0.21813523258663356 -0.3620124219793474 -0.9062913585801323
outer loop
vertex -0.25 -0.18301 -0.86603
vertex -0.17101 -0.0462 -0.93969
vertex 0 -1.25 -0.5
endloop
endfacet
facet normal -0.16743857085903457 -0.3591387845777507 -0.9181414152518662
outer loop
vertex -0.17101 -0.0462 -0.93969
vertex -0.11698 -0.07139 -0.93969
vertex 0 -1.25 -0.5
endloop
endfacet
facet normal -0.09544526199842035 -0.3562341308158703 -0.9295092500905595
outer loop
vertex -0.11698 -0.07139 -0.93969
vertex -0.05939 -0.08682 -0.93969
vertex 0 -1.25 -0.5
endloop
endfacet
facet normal -0.03106558871155066 -0.35480486799600763 -0.9344241193614066
outer loop
vertex -0.05939 -0.08682 -0.93969
vertex 0 -0.09202 -0.93969
vertex 0 -1.25 -0.5
endloop
endfacet
facet normal 0 -0.35497619792437346 -0.9348753386987785
outer loop
vertex 0 -1.25 -0.5
vertex 0 -0.09202 -0.93969
vertex 1 -1.25 -0.5
endloop
endfacet
facet normal 0.029133534388349945 -0.3327385783316033 -0.9425689766080285
outer loop
vertex 0 -0.09202 -0.93969
vertex 0.05939 -0.08682 -0.93969
vertex 1 -1.25 -0.5
endloop
endfacet
facet normal 0.07924478776270083 -0.2957684593165145 -0.9519670593492087
outer loop
vertex 0.05939 -0.08682 -0.93969
vertex 0.11698 -0.07139 -0.93969
vertex 1 -1.25 -0.5
endloop
endfacet
facet normal 0.12329362352107417 -0.2644523413594097 -0.9564850451254164
outer loop
vertex 0.11698 -0.07139 -0.93969
vertex 0.17101 -0.0462 -0.93969
vertex 1 -1.25 -0.5
endloop
endfacet
facet normal 0.16524078928313599 -0.23597544294118142 -0.957606950625255
outer loop
vertex 0.17101 -0.0462 -0.93969
vertex 0.21985 -0.012 -0.93969
vertex 1 -1.25 -0.5
endloop
endfacet
facet normal 0.2082089592991007 -0.2082089592990982 -0.9556662903624737
outer loop
vertex 0.21985 -0.012 -0.93969
vertex 0.262 0.03015 -0.93969
vertex 1 -1.25 -0.5
endloop
endfacet
facet normal 0.2555883078427169 -0.1789746135999374 -0.9500751047053332
outer loop
vertex 0.262 0.03015 -0.93969
vertex 0.2962 0.07899 -0.93969
vertex 1 -1.25 -0.5
endloop
endfacet
facet normal 0.31194277968978806 -0.1454347329332928 -0.9389038505917581
outer loop
vertex 0.2962 0.07899 -0.93969
vertex 0.32139 0.13302 -0.93969
vertex 1 -1.25 -0.5
endloop
endfacet
facet normal 0.3844609000208622 -0.10300801679669852 -0.917376239517222
outer loop
vertex 0.32139 0.13302 -0.93969
vertex 0.33682 0.19061 -0.93969
vertex 1 -1.25 -0.5
endloop
endfacet
facet normal 0.4138934210216222 -0.08606240344305449 -0.9062480337902109
outer loop
vertex 0.33682 0.19061 -0.93969
vertex 0.4924 0.16318 -0.86603
vertex 1 -1.25 -0.5
endloop
endfacet
facet normal 0.5011044736479064 -0.043865399674315624 -0.8642743390853782
outer loop
vertex 0.4924 0.16318 -0.86603
vertex 0.5 0.25 -0.86603
vertex 1 -1.25 -0.5
endloop
endfacet
facet normal 0.5735831664103626 -0.008682713704297873 -0.8191013134487037
outer loop
vertex 0.5 0.25 -0.86603
vertex 0.64279 0.25 -0.76604
vertex 1 -1.25 -0.5
endloop
endfacet
facet normal 0.5973131608057796 0 -0.8020080971712249
outer loop
vertex 0.64279 0.25 -0.76604
vertex 1 -0.25 -0.5
vertex 1 -1.25 -0.5
endloop
endfacet
facet normal 1 0 0
outer loop
vertex 1 1.25 3.5
vertex 1 0.25 3.5
vertex 1 -1.25 0.5
endloop
endfacet
facet normal 1 0 0
outer loop
vertex 1 -1.25 0.5
vertex 1 -1.25 -0.5
vertex 1 -0.25 -0.5
endloop
endfacet
facet normal 1 0 0
outer loop
vertex 1 -0.25 -0.5
vertex 1 0.25 0
vertex 1 1.25 2.5
endloop
endfacet
facet normal 1 0 0
outer loop
vertex 1 1.25 2.5
vertex 1 1.25 3.5
vertex 1 -1.25 0.5
endloop
endfacet
facet normal 1 0 0
outer loop
vertex 1 -1.25 0.5
vertex 1 -0.25 -0.5
vertex 1 1.25 2.5
endloop
endfacet
facet normal 0 -1 0
outer loop
vertex 0 -1.25 0.5
vertex 0 -1.25 -0.5
vertex 1 -1.25 -0.5
endloop
endfacet
facet normal 0 -1 0
outer loop
vertex 1 -1.25 -0.5
vertex 1 -1.25 0.5
vertex 0 -1.25 0.5
endloop
endfacet
endsolid JSxCAD
