solid JSxCAD
facet normal 0 -0.894427190999916 0.447213595499958
outer loop
vertex 0 -1.25 0.5
vertex 1 -1.25 0.5
vertex 1 0.25 3.5
endloop
endfacet
facet normal 0 -0.894427190999916 0.447213595499958
outer loop
vertex 0 -1.25 0.5
vertex 1 0.25 3.5
vertex 0 0.25 3.5
endloop
endfacet
facet normal 0 0 1
outer loop
vertex 1 1.25 3.5
vertex 0 1.25 3.5
vertex 0 0.25 3.5
endloop
endfacet
facet normal 0 0 1
outer loop
vertex 1 1.25 3.5
vertex 0 0.25 3.5
vertex 1 0.25 3.5
endloop
endfacet
facet normal 0 1 0
outer loop
vertex 1 1.25 3.5
vertex 1 1.25 2.5
vertex 0 1.25 0
endloop
endfacet
facet normal 0 1 0
outer loop
vertex 1 1.25 3.5
vertex 0 1.25 0
vertex 0 1.25 3.5
endloop
endfacet
facet normal -0.7456463532839217 -0.6663418910997485 0
outer loop
vertex -0.76604 -0.39279 0
vertex 0 -1.25 -0.5
vertex 0 -1.25 0.5
endloop
endfacet
facet normal -0.7711921042138633 -0.5693945826213621 0.28469729131068106
outer loop
vertex -0.71985 -0.35402 0.34202
vertex 0 -1.25 0.5
vertex 0 0.25 3.5
endloop
endfacet
facet normal 0 -1 0
outer loop
vertex 1 -1.25 -0.5
vertex 1 -1.25 0.5
vertex 0 -1.25 0.5
endloop
endfacet
facet normal 0 -1 0
outer loop
vertex 1 -1.25 -0.5
vertex 0 -1.25 0.5
vertex 0 -1.25 -0.5
endloop
endfacet
facet normal 0.5973131608057796 0 -0.8020080971712249
outer loop
vertex 0.64279 0.25 -0.76604
vertex 1 -0.25 -0.5
vertex 1 -1.25 -0.5
endloop
endfacet
facet normal -0.4224446930985865 0.9060251509057131 0.025669187737843813
outer loop
vertex -0.5 1.11603 0
vertex 0 1.25 3.5
vertex -0.34202 1.18969 0
endloop
endfacet
facet normal -0.2588382349861957 0.965881950900393 0.008650146477478995
outer loop
vertex -0.17365 1.23481 0
vertex -0.34202 1.18969 0
vertex 0 1.25 3.5
endloop
endfacet
facet normal -0.08714204243958792 0.9961958966184599 0
outer loop
vertex -0.17365 1.23481 0
vertex 0 1.25 3.5
vertex 0 1.25 0
endloop
endfacet
facet normal 0.08708915194096681 0.995591259680636 -0.03483566077638672
outer loop
vertex 0.17365 1.23481 0
vertex 0 1.25 0
vertex 1 1.25 2.5
endloop
endfacet
facet normal -0.5728721819385401 0.8180859971897602 0.05052488855021634
outer loop
vertex -0.64279 1.01604 0
vertex 0 1.25 3.5
vertex -0.5 1.11603 0
endloop
endfacet
facet normal -0.8689527950403645 -0.4051523135706187 0.2842052828501142
outer loop
vertex -0.8138 -0.21985 0.34202
vertex 0 0.25 3.5
vertex -0.88302 -0.07139 0.34202
endloop
endfacet
facet normal -0.785364182523607 -0.5499363862867479 0.2842060376679206
outer loop
vertex -0.8138 -0.21985 0.34202
vertex -0.71985 -0.35402 0.34202
vertex 0 0.25 3.5
endloop
endfacet
facet normal -0.9260829778397066 -0.24818859907972687 0.2842054493537804
outer loop
vertex -0.92542 0.08682 0.34202
vertex -0.88302 -0.07139 0.34202
vertex 0 0.25 3.5
endloop
endfacet
facet normal -0.7675251059749446 -0.635069094171338 -0.08713470793286782
outer loop
vertex -0.75441 -0.38302 -0.17365
vertex 0 -1.25 -0.5
vertex -0.76604 -0.39279 0
endloop
endfacet
facet normal -0.7748247592917278 -0.5769471728764678 0.2584154641238934
outer loop
vertex -0.75441 -0.38302 0.17365
vertex 0 -1.25 0.5
vertex -0.71985 -0.35402 0.34202
endloop
endfacet
facet normal -0.7914318881679658 -0.5541851821821596 0.2579037615867883
outer loop
vertex -0.75441 -0.38302 0.17365
vertex -0.71985 -0.35402 0.34202
vertex -0.8138 -0.21985 0.34202
endloop
endfacet
facet normal -0.7914551351131712 -0.5541649310428302 0.25787593587864543
outer loop
vertex -0.75441 -0.38302 0.17365
vertex -0.8138 -0.21985 0.34202
vertex -0.85287 -0.2424 0.17365
endloop
endfacet
facet normal -0.7675251059749446 -0.635069094171338 0.08713470793286782
outer loop
vertex -0.75441 -0.38302 0.17365
vertex -0.76604 -0.39279 0
vertex 0 -1.25 0.5
endloop
endfacet
facet normal 0.995591259680636 0.08708915194096732 -0.03483566077638672
outer loop
vertex 1 0.25 0
vertex 0.98481 0.42365 0
vertex 1 1.25 2.5
endloop
endfacet
facet normal 1 0 0
outer loop
vertex 1 0.25 0
vertex 1 1.25 2.5
vertex 1 1.25 3.5
endloop
endfacet
facet normal 1 0 0
outer loop
vertex 1 0.25 0
vertex 1 1.25 3.5
vertex 1 0.25 3.5
endloop
endfacet
facet normal 1 0 0
outer loop
vertex 1 0.25 0
vertex 1 0.25 3.5
vertex 1 -1.25 0.5
endloop
endfacet
facet normal 1 0 0
outer loop
vertex 1 0.25 0
vertex 1 -1.25 0.5
vertex 1 -1.25 -0.5
endloop
endfacet
facet normal 1 0 0
outer loop
vertex 1 0.25 0
vertex 1 -1.25 -0.5
vertex 1 -0.25 -0.5
endloop
endfacet
facet normal 0.9655714465953916 0.24518993520175097 -0.08691189329110102
outer loop
vertex 0.96985 0.42101 -0.17365
vertex 1 1.25 2.5
vertex 0.98481 0.42365 0
endloop
endfacet
facet normal 0.9924344194824508 0.08681300795818307 -0.08681834296842526
outer loop
vertex 0.96985 0.42101 -0.17365
vertex 0.98481 0.42365 0
vertex 1 0.25 0
endloop
endfacet
facet normal 0.9924344159686562 0.08681569558827508 -0.0868156955882754
outer loop
vertex 0.96985 0.42101 -0.17365
vertex 1 0.25 0
vertex 1 -0.25 -0.5
endloop
endfacet
facet normal -0.5713990398779293 0.8160687892304942 -0.08680362014602812
outer loop
vertex -0.4924 1.10287 -0.17365
vertex -0.63302 1.00441 -0.17365
vertex -0.64279 1.01604 0
endloop
endfacet
facet normal -0.5714372316274046 0.8160368267234429 -0.08685267837632518
outer loop
vertex -0.4924 1.10287 -0.17365
vertex -0.64279 1.01604 0
vertex -0.5 1.11603 0
endloop
endfacet
facet normal -0.8937956653343848 0.4167944177915524 0.16556485716257927
outer loop
vertex -0.92542 0.58682 0.17365
vertex 0 1.25 3.5
vertex -0.85287 0.7424 0.17365
endloop
endfacet
facet normal -0.7748247592917278 -0.5769471728764679 -0.2584154641238934
outer loop
vertex -0.71985 -0.35402 -0.34202
vertex 0 -1.25 -0.5
vertex -0.75441 -0.38302 -0.17365
endloop
endfacet
facet normal 0.809620129426167 0.5668837856869595 -0.15217759215199175
outer loop
vertex 0.85287 0.7424 -0.17365
vertex 0.75441 0.88302 -0.17365
vertex 1 1.25 2.5
endloop
endfacet
facet normal 0.95109523191985 0.1686132771397547 -0.2588192855865248
outer loop
vertex 0.92542 0.41318 -0.34202
vertex 0.96985 0.42101 -0.17365
vertex 1 -0.25 -0.5
endloop
endfacet
facet normal 0.41389342102162224 -0.0860624034430545 -0.9062480337902108
outer loop
vertex 0.4924 0.16318 -0.86603
vertex 1 -1.25 -0.5
vertex 0.33682 0.19061 -0.93969
endloop
endfacet
facet normal -0.4210301510910118 0.9028789925119184 -0.08685123345665857
outer loop
vertex -0.33682 1.17542 -0.17365
vertex -0.4924 1.10287 -0.17365
vertex -0.5 1.11603 0
endloop
endfacet
facet normal -0.4209888457419354 0.9029027674492413 -0.08680428729834977
outer loop
vertex -0.33682 1.17542 -0.17365
vertex -0.5 1.11603 0
vertex -0.34202 1.18969 0
endloop
endfacet
facet normal 0.2451899352017519 0.9655714465953917 -0.08691189329109825
outer loop
vertex 0.17101 1.21985 -0.17365
vertex 0.17365 1.23481 0
vertex 1 1.25 2.5
endloop
endfacet
facet normal 0.08681304816674221 0.9924348791411948 -0.08681304816674239
outer loop
vertex 0 1.23481 -0.17365
vertex 0 1.25 0
vertex 0.17365 1.23481 0
endloop
endfacet
facet normal 0.08681838387609768 0.9924339456317913 -0.08681838387609661
outer loop
vertex 0 1.23481 -0.17365
vertex 0.17365 1.23481 0
vertex 0.17101 1.21985 -0.17365
endloop
endfacet
facet normal -0.385632581488399 -0.3856325814883986 -0.838197485196172
outer loop
vertex -0.32139 -0.13302 -0.86603
vertex 0 -1.25 -0.5
vertex -0.38302 -0.07139 -0.86603
endloop
endfacet
facet normal -0.8219547506013093 -0.383310526192263 -0.4212640840068731
outer loop
vertex -0.88302 -0.07139 -0.34202
vertex -0.8138 -0.0462 -0.5
vertex -0.75 -0.18301 -0.5
endloop
endfacet
facet normal -0.8219597623113871 -0.38324164587898507 -0.4213169709434627
outer loop
vertex -0.88302 -0.07139 -0.34202
vertex -0.75 -0.18301 -0.5
vertex -0.8138 -0.21985 -0.34202
endloop
endfacet
facet normal -0.7044372306064094 0.7044372306064096 -0.08681230483718494
outer loop
vertex -0.76604 0.89279 0
vertex -0.64279 1.01604 0
vertex -0.63302 1.00441 -0.17365
endloop
endfacet
facet normal -0.7044372306064096 0.7044372306064096 -0.08681230483718443
outer loop
vertex -0.76604 0.89279 0
vertex -0.63302 1.00441 -0.17365
vertex -0.75441 0.88302 -0.17365
endloop
endfacet
facet normal -0.7047070685038475 0.7047070685038472 0.08231582594755164
outer loop
vertex -0.76604 0.89279 0
vertex 0 1.25 3.5
vertex -0.64279 1.01604 0
endloop
endfacet
facet normal -0.5541607709560222 0.7914491937013595 -0.2579031091764796
outer loop
vertex -0.60402 0.96985 -0.34202
vertex -0.63302 1.00441 -0.17365
vertex -0.4924 1.10287 -0.17365
endloop
endfacet
facet normal -0.5541895423565255 0.7914381149332085 -0.25787528259535497
outer loop
vertex -0.60402 0.96985 -0.34202
vertex -0.4924 1.10287 -0.17365
vertex -0.46985 1.0638 -0.34202
endloop
endfacet
facet normal 0.9619366212073094 0.25775794029455823 -0.09076773102469896
outer loop
vertex 0.92542 0.58682 -0.17365
vertex 1 1.25 2.5
vertex 0.96985 0.42101 -0.17365
endloop
endfacet
facet normal 0.933248725784023 0.25007080927919995 -0.2578980538293059
outer loop
vertex 0.92542 0.58682 -0.17365
vertex 0.96985 0.42101 -0.17365
vertex 0.92542 0.41318 -0.34202
endloop
endfacet
facet normal 0.9332303291769029 0.25010407658871586 -0.25793236240936385
outer loop
vertex 0.92542 0.58682 -0.17365
vertex 0.92542 0.41318 -0.34202
vertex 0.88302 0.57139 -0.34202
endloop
endfacet
facet normal 0.8987284014319017 0.4190946492086682 -0.12902300362463123
outer loop
vertex 0.92542 0.58682 -0.17365
vertex 0.85287 0.7424 -0.17365
vertex 1 1.25 2.5
endloop
endfacet
facet normal 0.7992756678580757 0.1808134152525578 -0.5731185877588799
outer loop
vertex 0.85287 0.40038 -0.5
vertex 1 -0.25 -0.5
vertex 0.75441 0.38302 -0.64279
endloop
endfacet
facet normal 0.792241216919666 0.21227986088342155 -0.5720936242233099
outer loop
vertex 0.85287 0.40038 -0.5
vertex 0.75441 0.38302 -0.64279
vertex 0.71985 0.512 -0.64279
endloop
endfacet
facet normal 0.7922389385417156 0.21226700952424074 -0.5721015477395006
outer loop
vertex 0.85287 0.40038 -0.5
vertex 0.71985 0.512 -0.64279
vertex 0.8138 0.5462 -0.5
endloop
endfacet
facet normal 0.8760368333092642 0.2347192365751802 -0.42126754760726715
outer loop
vertex 0.85287 0.40038 -0.5
vertex 0.8138 0.5462 -0.5
vertex 0.88302 0.57139 -0.34202
endloop
endfacet
facet normal 0.8760022901151221 0.23476706340232337 -0.42131272667047576
outer loop
vertex 0.85287 0.40038 -0.5
vertex 0.88302 0.57139 -0.34202
vertex 0.92542 0.41318 -0.34202
endloop
endfacet
facet normal 0.8841445998316428 0.20001260028480142 -0.42223605520591934
outer loop
vertex 0.85287 0.40038 -0.5
vertex 0.92542 0.41318 -0.34202
vertex 1 -0.25 -0.5
endloop
endfacet
facet normal 0.6982873875974769 0.1114126654722936 -0.7070940123453526
outer loop
vertex 0.63302 0.36162 -0.76604
vertex 0.75441 0.38302 -0.64279
vertex 1 -0.25 -0.5
endloop
endfacet
facet normal 0.6460639874568347 0.05654941011873509 -0.7611855807400703
outer loop
vertex 0.63302 0.36162 -0.76604
vertex 1 -0.25 -0.5
vertex 0.64279 0.25 -0.76604
endloop
endfacet
facet normal 0.7914318881679658 0.5541851821821595 -0.25790376158678846
outer loop
vertex 0.8138 0.71985 -0.34202
vertex 0.71985 0.85402 -0.34202
vertex 0.75441 0.88302 -0.17365
endloop
endfacet
facet normal 0.7914551351131713 0.55416493104283 -0.25787593587864527
outer loop
vertex 0.8138 0.71985 -0.34202
vertex 0.75441 0.88302 -0.17365
vertex 0.85287 0.7424 -0.17365
endloop
endfacet
facet normal 0.8756493255366595 0.40833242426844407 -0.257881542531156
outer loop
vertex 0.8138 0.71985 -0.34202
vertex 0.85287 0.7424 -0.17365
vertex 0.92542 0.58682 -0.17365
endloop
endfacet
facet normal 0.87565968291346 0.4082794237590588 -0.25793028487339237
outer loop
vertex 0.8138 0.71985 -0.34202
vertex 0.92542 0.58682 -0.17365
vertex 0.88302 0.57139 -0.34202
endloop
endfacet
facet normal 0.56688378568696 0.8096201294261666 -0.15217759215199234
outer loop
vertex 0.63302 1.00441 -0.17365
vertex 0.4924 1.10287 -0.17365
vertex 1 1.25 2.5
endloop
endfacet
facet normal 0.6980059835976744 0.698005983597674 -0.1599227742495943
outer loop
vertex 0.63302 1.00441 -0.17365
vertex 1 1.25 2.5
vertex 0.75441 0.88302 -0.17365
endloop
endfacet
facet normal -0.42044390659235387 -0.3909170353725644 -0.8187861704162358
outer loop
vertex -0.4924 -0.16318 -0.76604
vertex -0.38302 -0.07139 -0.86603
vertex 0 -1.25 -0.5
endloop
endfacet
facet normal 0.41909464920866674 0.8987284014319026 -0.1290230036246302
outer loop
vertex 0.33682 1.17542 -0.17365
vertex 1 1.25 2.5
vertex 0.4924 1.10287 -0.17365
endloop
endfacet
facet normal 0.2577579402945597 0.961936621207309 -0.09076773102470008
outer loop
vertex 0.33682 1.17542 -0.17365
vertex 0.17101 1.21985 -0.17365
vertex 1 1.25 2.5
endloop
endfacet
facet normal -0.25784951652689553 0.9622783780176537 -0.08679832963001105
outer loop
vertex -0.17101 1.21985 -0.17365
vertex -0.33682 1.17542 -0.17365
vertex -0.34202 1.18969 0
endloop
endfacet
facet normal -0.25787050614376744 0.9622707694908265 -0.08682032161130249
outer loop
vertex -0.17101 1.21985 -0.17365
vertex -0.34202 1.18969 0
vertex -0.17365 1.23481 0
endloop
endfacet
facet normal -0.08681300795818295 0.992434419482451 -0.08681834296842325
outer loop
vertex -0.17101 1.21985 -0.17365
vertex -0.17365 1.23481 0
vertex 0 1.25 0
endloop
endfacet
facet normal -0.08681842470789353 0.9924344123861636 -0.08681300733743647
outer loop
vertex -0.17101 1.21985 -0.17365
vertex 0 1.25 0
vertex 0 1.23481 -0.17365
endloop
endfacet
facet normal -0.25692400275960653 -0.36690947303477345 -0.8940735402657471
outer loop
vertex -0.25 -0.18301 -0.86603
vertex 0 -1.25 -0.5
vertex -0.32139 -0.13302 -0.86603
endloop
endfacet
facet normal -0.21813523258663356 -0.3620124219793474 -0.9062913585801323
outer loop
vertex -0.25 -0.18301 -0.86603
vertex -0.17101 -0.0462 -0.93969
vertex 0 -1.25 -0.5
endloop
endfacet
facet normal -0.40828505065322657 0.8756717512276525 -0.25788040157210174
outer loop
vertex -0.32139 1.13302 -0.34202
vertex -0.46985 1.0638 -0.34202
vertex -0.4924 1.10287 -0.17365
endloop
endfacet
facet normal -0.4083270543959382 0.8756378101022773 -0.25792914175723697
outer loop
vertex -0.32139 1.13302 -0.34202
vertex -0.4924 1.10287 -0.17365
vertex -0.33682 1.17542 -0.17365
endloop
endfacet
facet normal -0.9551182736010099 -0.08352456038905738 0.284205438451204
outer loop
vertex -0.93969 0.25 0.34202
vertex -0.92542 0.08682 0.34202
vertex 0 0.25 3.5
endloop
endfacet
facet normal -0.9584674282149002 0 0.2852020144583751
outer loop
vertex -0.93969 0.25 0.34202
vertex 0 0.25 3.5
vertex 0 1.25 3.5
endloop
endfacet
facet normal -0.9620381899533178 0.08412970321506194 0.2596241785895324
outer loop
vertex -0.93969 0.25 0.34202
vertex 0 1.25 3.5
vertex -0.92542 0.41318 0.34202
endloop
endfacet
facet normal -0.9619327002111661 0.09004654471501075 0.25802538644354883
outer loop
vertex -0.96985 0.42101 0.17365
vertex -0.92542 0.41318 0.34202
vertex 0 1.25 3.5
endloop
endfacet
facet normal -0.9439299430159623 0.25293291941498763 0.21218199959962122
outer loop
vertex -0.96985 0.42101 0.17365
vertex 0 1.25 3.5
vertex -0.92542 0.58682 0.17365
endloop
endfacet
facet normal -0.9034904823286476 0.07900973883337287 -0.4212628745937981
outer loop
vertex -0.86603 0.25 -0.5
vertex -0.93969 0.25 -0.34202
vertex -0.92542 0.41318 -0.34202
endloop
endfacet
facet normal -0.9034643780232472 0.07906364685985914 -0.42130874354597314
outer loop
vertex -0.86603 0.25 -0.5
vertex -0.92542 0.41318 -0.34202
vertex -0.85287 0.40038 -0.5
endloop
endfacet
facet normal -0.817039568877483 -0.07143414663994316 -0.5721394109675717
outer loop
vertex -0.86603 0.25 -0.5
vertex -0.76604 0.25 -0.64279
vertex -0.75441 0.11698 -0.64279
endloop
endfacet
facet normal -0.8170645780812701 -0.07150265891441328 -0.5720951363305278
outer loop
vertex -0.86603 0.25 -0.5
vertex -0.75441 0.11698 -0.64279
vertex -0.85287 0.09962 -0.5
endloop
endfacet
facet normal -0.7188705397144877 0.689684731014462 0.08694894442205697
outer loop
vertex -0.75441 0.88302 0.17365
vertex 0 1.25 3.5
vertex -0.76604 0.89279 0
endloop
endfacet
facet normal -0.8160403021900203 0.571439665354576 0.08680399795556727
outer loop
vertex -0.75441 0.88302 0.17365
vertex -0.76604 0.89279 0
vertex -0.86603 0.75 0
endloop
endfacet
facet normal -0.8160652598855872 0.5713965686839374 0.08685305351046463
outer loop
vertex -0.75441 0.88302 0.17365
vertex -0.86603 0.75 0
vertex -0.85287 0.7424 0.17365
endloop
endfacet
facet normal -0.8130822627377109 0.5693079191377822 0.12159657572617845
outer loop
vertex -0.75441 0.88302 0.17365
vertex -0.85287 0.7424 0.17365
vertex 0 1.25 3.5
endloop
endfacet
facet normal -0.8760157352275904 0.23471358370142711 -0.42131456806013395
outer loop
vertex -0.8138 0.5462 -0.5
vertex -0.85287 0.40038 -0.5
vertex -0.92542 0.41318 -0.34202
endloop
endfacet
facet normal -0.8760217352957708 0.2347722746763212 -0.4212693892661709
outer loop
vertex -0.8138 0.5462 -0.5
vertex -0.92542 0.41318 -0.34202
vertex -0.88302 0.57139 -0.34202
endloop
endfacet
facet normal -0.6412858852161251 0.6412858852161261 -0.4213132170311539
outer loop
vertex -0.71985 0.85402 -0.34202
vertex -0.60402 0.96985 -0.34202
vertex -0.55667 0.91341 -0.5
endloop
endfacet
facet normal -0.6412858852161266 0.6412858852161255 -0.42131321703115276
outer loop
vertex -0.71985 0.85402 -0.34202
vertex -0.55667 0.91341 -0.5
vertex -0.66341 0.80667 -0.5
endloop
endfacet
facet normal -0.6831857568511917 0.6831857568511926 -0.2579039419460813
outer loop
vertex -0.71985 0.85402 -0.34202
vertex -0.75441 0.88302 -0.17365
vertex -0.63302 1.00441 -0.17365
endloop
endfacet
facet normal -0.6831857568511919 0.683185756851192 -0.25790394194608246
outer loop
vertex -0.71985 0.85402 -0.34202
vertex -0.63302 1.00441 -0.17365
vertex -0.60402 0.96985 -0.34202
endloop
endfacet
facet normal -0.8160368267234429 0.5714372316274046 -0.08685267837632518
outer loop
vertex -0.85287 0.7424 -0.17365
vertex -0.86603 0.75 0
vertex -0.76604 0.89279 0
endloop
endfacet
facet normal -0.8160687892304936 0.5713990398779298 -0.08680362014602896
outer loop
vertex -0.85287 0.7424 -0.17365
vertex -0.76604 0.89279 0
vertex -0.75441 0.88302 -0.17365
endloop
endfacet
facet normal -0.7914491937013607 0.5541607709560206 -0.2579031091764796
outer loop
vertex -0.85287 0.7424 -0.17365
vertex -0.75441 0.88302 -0.17365
vertex -0.71985 0.85402 -0.34202
endloop
endfacet
facet normal -0.791438114933208 0.5541895423565262 -0.2578752825953551
outer loop
vertex -0.85287 0.7424 -0.17365
vertex -0.71985 0.85402 -0.34202
vertex -0.8138 0.71985 -0.34202
endloop
endfacet
facet normal 0.7428925903748602 0.5201930244263238 -0.42131913854502784
outer loop
vertex 0.75 0.68301 -0.5
vertex 0.66341 0.80667 -0.5
vertex 0.71985 0.85402 -0.34202
endloop
endfacet
facet normal 0.742890099633451 0.5201947146199805 -0.42132144349420225
outer loop
vertex 0.75 0.68301 -0.5
vertex 0.71985 0.85402 -0.34202
vertex 0.8138 0.71985 -0.34202
endloop
endfacet
facet normal 0.8219597623113869 0.38324164587898507 -0.42131697094346304
outer loop
vertex 0.75 0.68301 -0.5
vertex 0.8138 0.71985 -0.34202
vertex 0.88302 0.57139 -0.34202
endloop
endfacet
facet normal 0.8219547506013094 0.3833105261922631 -0.4212640840068728
outer loop
vertex 0.75 0.68301 -0.5
vertex 0.88302 0.57139 -0.34202
vertex 0.8138 0.5462 -0.5
endloop
endfacet
facet normal -0.5632385580982695 -0.42817552825117877 -0.7067022312673185
outer loop
vertex -0.58682 -0.2424 -0.64279
vertex -0.4924 -0.16318 -0.76604
vertex 0 -1.25 -0.5
endloop
endfacet
facet normal -0.4094733604743803 -0.10967602183985396 -0.9057056570957266
outer loop
vertex -0.46985 0.07899 -0.86603
vertex -0.4924 0.16318 -0.86603
vertex -0.33682 0.19061 -0.93969
endloop
endfacet
facet normal -0.4094530030565486 -0.10970411247026522 -0.905711458465159
outer loop
vertex -0.46985 0.07899 -0.86603
vertex -0.33682 0.19061 -0.93969
vertex -0.32139 0.13302 -0.93969
endloop
endfacet
facet normal -0.5728831940943765 0.050143959920282755 -0.818101723019661
outer loop
vertex -0.5 0.25 -0.86603
vertex -0.64279 0.25 -0.76604
vertex -0.63302 0.36162 -0.76604
endloop
endfacet
facet normal -0.5728805643613314 0.050148494461484706 -0.8181032865600093
outer loop
vertex -0.5 0.25 -0.86603
vertex -0.63302 0.36162 -0.76604
vertex -0.4924 0.33682 -0.86603
endloop
endfacet
facet normal -0.022626546218837418 -0.0844955570164196 -0.9961669238891099
outer loop
vertex -0.03015 0.07899 -0.98481
vertex -0.05939 0.08682 -0.98481
vertex 0 0.25 -1
endloop
endfacet
facet normal -0.0671973686579363 -0.2509388326382983 -0.9656677564874877
outer loop
vertex -0.11698 -0.07139 -0.93969
vertex -0.05939 0.08682 -0.98481
vertex -0.03015 0.07899 -0.98481
endloop
endfacet
facet normal -0.0672289575289485 -0.250921300330015 -0.9656701136051924
outer loop
vertex -0.11698 -0.07139 -0.93969
vertex -0.03015 0.07899 -0.98481
vertex -0.05939 -0.08682 -0.93969
endloop
endfacet
facet normal -0.09544526199842035 -0.3562341308158703 -0.9295092500905595
outer loop
vertex -0.11698 -0.07139 -0.93969
vertex -0.05939 -0.08682 -0.93969
vertex 0 -1.25 -0.5
endloop
endfacet
facet normal -0.16743857085903457 -0.3591387845777507 -0.9181414152518662
outer loop
vertex -0.11698 -0.07139 -0.93969
vertex 0 -1.25 -0.5
vertex -0.17101 -0.0462 -0.93969
endloop
endfacet
facet normal 0.07924478776270083 -0.2957684593165145 -0.9519670593492087
outer loop
vertex 0.05939 -0.08682 -0.93969
vertex 0.11698 -0.07139 -0.93969
vertex 1 -1.25 -0.5
endloop
endfacet
facet normal 0.16524078928313599 -0.23597544294118142 -0.957606950625255
outer loop
vertex 0.17101 -0.0462 -0.93969
vertex 0.21985 -0.012 -0.93969
vertex 1 -1.25 -0.5
endloop
endfacet
facet normal 0.12329362352107417 -0.2644523413594097 -0.9564850451254164
outer loop
vertex 0.17101 -0.0462 -0.93969
vertex 1 -1.25 -0.5
vertex 0.11698 -0.07139 -0.93969
endloop
endfacet
facet normal -0.2501040765887156 0.9332303291769032 -0.25793236240936246
outer loop
vertex -0.16318 1.17542 -0.34202
vertex -0.32139 1.13302 -0.34202
vertex -0.33682 1.17542 -0.17365
endloop
endfacet
facet normal -0.25007080927920067 0.9332487257840222 -0.2578980538293077
outer loop
vertex -0.16318 1.17542 -0.34202
vertex -0.33682 1.17542 -0.17365
vertex -0.17101 1.21985 -0.17365
endloop
endfacet
facet normal -0.08419933757598141 0.9624952352184959 -0.25790190719236245
outer loop
vertex -0.16318 1.17542 -0.34202
vertex -0.17101 1.21985 -0.17365
vertex 0 1.23481 -0.17365
endloop
endfacet
facet normal -0.08416925761886025 0.9624905016289851 -0.2579293902328206
outer loop
vertex -0.16318 1.17542 -0.34202
vertex 0 1.23481 -0.17365
vertex 0 1.18969 -0.34202
endloop
endfacet
facet normal -0.5201930244263235 0.7428925903748599 -0.42131913854502856
outer loop
vertex -0.43301 1 -0.5
vertex -0.55667 0.91341 -0.5
vertex -0.60402 0.96985 -0.34202
endloop
endfacet
facet normal -0.5201947146199797 0.7428900996334509 -0.4213214434942036
outer loop
vertex -0.43301 1 -0.5
vertex -0.60402 0.96985 -0.34202
vertex -0.46985 1.0638 -0.34202
endloop
endfacet
facet normal -0.3832416458789853 0.8219597623113879 -0.4213169709434609
outer loop
vertex -0.43301 1 -0.5
vertex -0.46985 1.0638 -0.34202
vertex -0.32139 1.13302 -0.34202
endloop
endfacet
facet normal -0.38331052619226347 0.8219547506013086 -0.421264084006874
outer loop
vertex -0.43301 1 -0.5
vertex -0.32139 1.13302 -0.34202
vertex -0.2962 1.0638 -0.5
endloop
endfacet
facet normal -0.8160403021900206 -0.5714396653545762 0.08680399795556644
outer loop
vertex -0.86603 -0.25 0
vertex -0.76604 -0.39279 0
vertex -0.75441 -0.38302 0.17365
endloop
endfacet
facet normal -0.8160652598855871 -0.5713965686839375 0.08685305351046442
outer loop
vertex -0.86603 -0.25 0
vertex -0.75441 -0.38302 0.17365
vertex -0.85287 -0.2424 0.17365
endloop
endfacet
facet normal -0.9034904823286476 -0.07900973883337287 -0.421262874593798
outer loop
vertex -0.92542 0.08682 -0.34202
vertex -0.93969 0.25 -0.34202
vertex -0.86603 0.25 -0.5
endloop
endfacet
facet normal -0.9034643780232473 -0.07906364685985907 -0.4213087435459727
outer loop
vertex -0.92542 0.08682 -0.34202
vertex -0.86603 0.25 -0.5
vertex -0.85287 0.09962 -0.5
endloop
endfacet
facet normal -0.8760157352275905 -0.23471358370142706 -0.42131456806013384
outer loop
vertex -0.92542 0.08682 -0.34202
vertex -0.85287 0.09962 -0.5
vertex -0.8138 -0.0462 -0.5
endloop
endfacet
facet normal -0.8760217352957704 -0.2347722746763211 -0.4212693892661715
outer loop
vertex -0.92542 0.08682 -0.34202
vertex -0.8138 -0.0462 -0.5
vertex -0.88302 -0.07139 -0.34202
endloop
endfacet
facet normal -0.7057279386286633 -0.061702119427539386 -0.7057909925020914
outer loop
vertex -0.63302 0.13838 -0.76604
vertex -0.75441 0.11698 -0.64279
vertex -0.76604 0.25 -0.64279
endloop
endfacet
facet normal -0.7057563123802827 -0.061774226589816815 -0.7057563123802824
outer loop
vertex -0.63302 0.13838 -0.76604
vertex -0.76604 0.25 -0.64279
vertex -0.64279 0.25 -0.76604
endloop
endfacet
facet normal -0.5728831940943768 -0.05014395992028278 -0.8181017230196607
outer loop
vertex -0.63302 0.13838 -0.76604
vertex -0.64279 0.25 -0.76604
vertex -0.5 0.25 -0.86603
endloop
endfacet
facet normal -0.5728805643613301 -0.05014849446148467 -0.8181032865600102
outer loop
vertex -0.63302 0.13838 -0.76604
vertex -0.5 0.25 -0.86603
vertex -0.4924 0.16318 -0.86603
endloop
endfacet
facet normal -0.5554867479310663 -0.14878520211243193 -0.8181060056651159
outer loop
vertex -0.63302 0.13838 -0.76604
vertex -0.4924 0.16318 -0.86603
vertex -0.46985 0.07899 -0.86603
endloop
endfacet
facet normal -0.5554972904715463 -0.14884432619121146 -0.8180880923466951
outer loop
vertex -0.63302 0.13838 -0.76604
vertex -0.46985 0.07899 -0.86603
vertex -0.60402 0.03015 -0.76604
endloop
endfacet
facet normal -0.7922389385417151 -0.2122670095242409 -0.5721015477395008
outer loop
vertex -0.71985 -0.012 -0.64279
vertex -0.8138 -0.0462 -0.5
vertex -0.85287 0.09962 -0.5
endloop
endfacet
facet normal -0.7922412169196663 -0.21227986088342127 -0.5720936242233097
outer loop
vertex -0.71985 -0.012 -0.64279
vertex -0.85287 0.09962 -0.5
vertex -0.75441 0.11698 -0.64279
endloop
endfacet
facet normal -0.6842817339971363 -0.18335227730610276 -0.7057906565863127
outer loop
vertex -0.71985 -0.012 -0.64279
vertex -0.75441 0.11698 -0.64279
vertex -0.63302 0.13838 -0.76604
endloop
endfacet
facet normal -0.6842820423103969 -0.18335192855032514 -0.7057904482694481
outer loop
vertex -0.71985 -0.012 -0.64279
vertex -0.63302 0.13838 -0.76604
vertex -0.60402 0.03015 -0.76604
endloop
endfacet
facet normal -0.8219547506013094 0.3833105261922631 -0.4212640840068728
outer loop
vertex -0.75 0.68301 -0.5
vertex -0.8138 0.5462 -0.5
vertex -0.88302 0.57139 -0.34202
endloop
endfacet
facet normal -0.8219597623113869 0.38324164587898507 -0.42131697094346304
outer loop
vertex -0.75 0.68301 -0.5
vertex -0.88302 0.57139 -0.34202
vertex -0.8138 0.71985 -0.34202
endloop
endfacet
facet normal -0.742890099633451 0.5201947146199805 -0.42132144349420225
outer loop
vertex -0.75 0.68301 -0.5
vertex -0.8138 0.71985 -0.34202
vertex -0.71985 0.85402 -0.34202
endloop
endfacet
facet normal -0.7428925903748602 0.5201930244263238 -0.42131913854502784
outer loop
vertex -0.75 0.68301 -0.5
vertex -0.71985 0.85402 -0.34202
vertex -0.66341 0.80667 -0.5
endloop
endfacet
facet normal -0.8756493255366596 0.4083324242684442 -0.25788154253115586
outer loop
vertex -0.92542 0.58682 -0.17365
vertex -0.85287 0.7424 -0.17365
vertex -0.8138 0.71985 -0.34202
endloop
endfacet
facet normal -0.87565968291346 0.4082794237590588 -0.2579302848733926
outer loop
vertex -0.92542 0.58682 -0.17365
vertex -0.8138 0.71985 -0.34202
vertex -0.88302 0.57139 -0.34202
endloop
endfacet
facet normal 0.6718452093767814 0.470439061859276 -0.5721110938571573
outer loop
vertex 0.66341 0.63302 -0.64279
vertex 0.58682 0.7424 -0.64279
vertex 0.66341 0.80667 -0.5
endloop
endfacet
facet normal 0.671841520028457 0.4704411872817739 -0.5721136786293153
outer loop
vertex 0.66341 0.63302 -0.64279
vertex 0.66341 0.80667 -0.5
vertex 0.75 0.68301 -0.5
endloop
endfacet
facet normal 0.7433192705782439 0.3466396422987491 -0.5721166143139201
outer loop
vertex 0.66341 0.63302 -0.64279
vertex 0.75 0.68301 -0.5
vertex 0.8138 0.5462 -0.5
endloop
endfacet
facet normal 0.7433192899322117 0.34666121900325575 -0.5721035155055851
outer loop
vertex 0.66341 0.63302 -0.64279
vertex 0.8138 0.5462 -0.5
vertex 0.71985 0.512 -0.64279
endloop
endfacet
facet normal -0.6708453835524033 -0.4717813871100253 -0.5721789878551723
outer loop
vertex -0.66341 -0.30667 -0.5
vertex -0.58682 -0.2424 -0.64279
vertex 0 -1.25 -0.5
endloop
endfacet
facet normal -0.7418091673309126 -0.5216876593546271 -0.4213800485795553
outer loop
vertex -0.66341 -0.30667 -0.5
vertex 0 -1.25 -0.5
vertex -0.71985 -0.35402 -0.34202
endloop
endfacet
facet normal -0.742890941028383 -0.5201953037908363 -0.4213192324733381
outer loop
vertex -0.66341 -0.30667 -0.5
vertex -0.71985 -0.35402 -0.34202
vertex -0.8138 -0.21985 -0.34202
endloop
endfacet
facet normal -0.7428916774648772 -0.520192385182629 -0.42132153748820866
outer loop
vertex -0.66341 -0.30667 -0.5
vertex -0.8138 -0.21985 -0.34202
vertex -0.75 -0.18301 -0.5
endloop
endfacet
facet normal -0.08713950574918533 -0.007630125876545634 -0.9961668975211412
outer loop
vertex -0.17365 0.25 -0.98481
vertex 0 0.25 -1
vertex -0.17101 0.21985 -0.98481
endloop
endfacet
facet normal -0.08713950574918533 0.007630125876545634 -0.9961668975211412
outer loop
vertex -0.17365 0.25 -0.98481
vertex -0.17101 0.28015 -0.98481
vertex 0 0.25 -1
endloop
endfacet
facet normal -0.5554867479310658 0.148785202112432 -0.8181060056651163
outer loop
vertex -0.46985 0.42101 -0.86603
vertex -0.4924 0.33682 -0.86603
vertex -0.63302 0.36162 -0.76604
endloop
endfacet
facet normal -0.5554972904715462 0.14884432619121143 -0.8180880923466953
outer loop
vertex -0.46985 0.42101 -0.86603
vertex -0.63302 0.36162 -0.76604
vertex -0.60402 0.46985 -0.76604
endloop
endfacet
facet normal -0.6842819169415827 0.18335232632579604 -0.7057904664825615
outer loop
vertex -0.75441 0.38302 -0.64279
vertex -0.71985 0.512 -0.64279
vertex -0.60402 0.46985 -0.76604
endloop
endfacet
facet normal -0.6842818242915295 0.18335187013262955 -0.705790674820179
outer loop
vertex -0.75441 0.38302 -0.64279
vertex -0.60402 0.46985 -0.76604
vertex -0.63302 0.36162 -0.76604
endloop
endfacet
facet normal -0.7057188838934272 0.06177095050742354 -0.7057940256120229
outer loop
vertex -0.75441 0.38302 -0.64279
vertex -0.63302 0.36162 -0.76604
vertex -0.64279 0.25 -0.76604
endloop
endfacet
facet normal -0.7057593462310264 0.06170486540871245 -0.705759346231027
outer loop
vertex -0.75441 0.38302 -0.64279
vertex -0.64279 0.25 -0.76604
vertex -0.76604 0.25 -0.64279
endloop
endfacet
facet normal -0.8170395688774832 0.07143414663994307 -0.5721394109675714
outer loop
vertex -0.75441 0.38302 -0.64279
vertex -0.76604 0.25 -0.64279
vertex -0.86603 0.25 -0.5
endloop
endfacet
facet normal -0.8170645780812701 0.07150265891441326 -0.5720951363305278
outer loop
vertex -0.75441 0.38302 -0.64279
vertex -0.86603 0.25 -0.5
vertex -0.85287 0.40038 -0.5
endloop
endfacet
facet normal -0.7922439500232852 0.21226835226587348 -0.5720941096339249
outer loop
vertex -0.75441 0.38302 -0.64279
vertex -0.85287 0.40038 -0.5
vertex -0.8138 0.5462 -0.5
endloop
endfacet
facet normal -0.7922355511684094 0.21227834275376278 -0.5721020334368709
outer loop
vertex -0.75441 0.38302 -0.64279
vertex -0.8138 0.5462 -0.5
vertex -0.71985 0.512 -0.64279
endloop
endfacet
facet normal -0.5211945833061485 -0.24304277643831224 -0.8180992697426682
outer loop
vertex -0.43301 0 -0.86603
vertex -0.55667 -0.07139 -0.76604
vertex -0.60402 0.03015 -0.76604
endloop
endfacet
facet normal -0.5211946515905265 -0.24307900955304382 -0.8180884611508348
outer loop
vertex -0.43301 0 -0.86603
vertex -0.60402 0.03015 -0.76604
vertex -0.46985 0.07899 -0.86603
endloop
endfacet
facet normal -0.4710624645805231 -0.3298558986465916 -0.8181046635922404
outer loop
vertex -0.43301 0 -0.86603
vertex -0.38302 -0.07139 -0.86603
vertex -0.4924 -0.16318 -0.76604
endloop
endfacet
facet normal -0.47108201812785877 -0.3298446596042868 -0.8180979359020019
outer loop
vertex -0.43301 0 -0.86603
vertex -0.4924 -0.16318 -0.76604
vertex -0.55667 -0.07139 -0.76604
endloop
endfacet
facet normal -0.4222912820218291 -0.036974485039795536 -0.905705780363801
outer loop
vertex -0.34202 0.25 -0.93969
vertex -0.33682 0.19061 -0.93969
vertex -0.4924 0.16318 -0.86603
endloop
endfacet
facet normal -0.4222951019564977 -0.03696662951934358 -0.9057043199441696
outer loop
vertex -0.34202 0.25 -0.93969
vertex -0.4924 0.16318 -0.86603
vertex -0.5 0.25 -0.86603
endloop
endfacet
facet normal -0.4222951019564979 0.0369666295193436 -0.9057043199441696
outer loop
vertex -0.34202 0.25 -0.93969
vertex -0.5 0.25 -0.86603
vertex -0.4924 0.33682 -0.86603
endloop
endfacet
facet normal -0.4222912820218289 0.03697448503979552 -0.9057057803638012
outer loop
vertex -0.34202 0.25 -0.93969
vertex -0.4924 0.33682 -0.86603
vertex -0.33682 0.30939 -0.93969
endloop
endfacet
facet normal -0.25878123430306355 0.022658063956489727 -0.9656701739778063
outer loop
vertex -0.34202 0.25 -0.93969
vertex -0.33682 0.30939 -0.93969
vertex -0.17101 0.28015 -0.98481
endloop
endfacet
facet normal -0.2587814578451109 0.022659470935690602 -0.9656700810589887
outer loop
vertex -0.34202 0.25 -0.93969
vertex -0.17101 0.28015 -0.98481
vertex -0.17365 0.25 -0.98481
endloop
endfacet
facet normal -0.2587814578451109 -0.022659470935690602 -0.9656700810589887
outer loop
vertex -0.34202 0.25 -0.93969
vertex -0.17365 0.25 -0.98481
vertex -0.17101 0.21985 -0.98481
endloop
endfacet
facet normal -0.2587812343030632 -0.0226580639564897 -0.9656701739778064
outer loop
vertex -0.34202 0.25 -0.93969
vertex -0.17101 0.21985 -0.98481
vertex -0.33682 0.19061 -0.93969
endloop
endfacet
facet normal -0.24315815123297393 -0.34724690369059225 -0.9057006687456176
outer loop
vertex -0.21985 -0.012 -0.93969
vertex -0.17101 -0.0462 -0.93969
vertex -0.25 -0.18301 -0.86603
endloop
endfacet
facet normal -0.24315591445578685 -0.347247464152806 -0.9057010543797638
outer loop
vertex -0.21985 -0.012 -0.93969
vertex -0.25 -0.18301 -0.86603
vertex -0.32139 -0.13302 -0.86603
endloop
endfacet
facet normal -0.29975664280304043 -0.2997566428030413 -0.905699679911007
outer loop
vertex -0.21985 -0.012 -0.93969
vertex -0.32139 -0.13302 -0.86603
vertex -0.38302 -0.07139 -0.86603
endloop
endfacet
facet normal -0.2997566428030413 -0.2997566428030413 -0.9056996799110065
outer loop
vertex -0.21985 -0.012 -0.93969
vertex -0.38302 -0.07139 -0.86603
vertex -0.262 0.03015 -0.93969
endloop
endfacet
facet normal -0.10985305328662648 -0.23541166028530672 -0.9656674670326847
outer loop
vertex -0.08682 0.09962 -0.98481
vertex -0.05939 0.08682 -0.98481
vertex -0.11698 -0.07139 -0.93969
endloop
endfacet
facet normal -0.10976240032419839 -0.23542923737660099 -0.9656734901939384
outer loop
vertex -0.08682 0.09962 -0.98481
vertex -0.11698 -0.07139 -0.93969
vertex -0.17101 -0.0462 -0.93969
endloop
endfacet
facet normal -0.14899642177911396 -0.2127773461898198 -0.96567378925051
outer loop
vertex -0.08682 0.09962 -0.98481
vertex -0.17101 -0.0462 -0.93969
vertex -0.21985 -0.012 -0.93969
endloop
endfacet
facet normal -0.14896747601754853 -0.21281068002508055 -0.9656709095526406
outer loop
vertex -0.08682 0.09962 -0.98481
vertex -0.21985 -0.012 -0.93969
vertex -0.11162 0.11698 -0.98481
endloop
endfacet
facet normal -0.05016358081626481 -0.07166225830894667 -0.9961667209326718
outer loop
vertex -0.08682 0.09962 -0.98481
vertex -0.11162 0.11698 -0.98481
vertex 0 0.25 -1
endloop
endfacet
facet normal -0.03698979991578917 -0.07926798528832522 -0.996166823986083
outer loop
vertex -0.08682 0.09962 -0.98481
vertex 0 0.25 -1
vertex -0.05939 0.08682 -0.98481
endloop
endfacet
facet normal 0.029133534388349945 -0.3327385783316033 -0.9425689766080285
outer loop
vertex 0 -0.09202 -0.93969
vertex 0.05939 -0.08682 -0.93969
vertex 1 -1.25 -0.5
endloop
endfacet
facet normal 0 -0.35497619792437346 -0.9348753386987785
outer loop
vertex 0 -0.09202 -0.93969
vertex 1 -1.25 -0.5
vertex 0 -1.25 -0.5
endloop
endfacet
facet normal -0.03106558871155066 -0.35480486799600763 -0.9344241193614066
outer loop
vertex 0 -0.09202 -0.93969
vertex 0 -1.25 -0.5
vertex -0.05939 -0.08682 -0.93969
endloop
endfacet
facet normal 0.3844609000208622 -0.10300801679669852 -0.917376239517222
outer loop
vertex 0.32139 0.13302 -0.93969
vertex 0.33682 0.19061 -0.93969
vertex 1 -1.25 -0.5
endloop
endfacet
facet normal 0.3119427796897907 -0.14543473293329265 -0.9389038505917572
outer loop
vertex 0.32139 0.13302 -0.93969
vertex 1 -1.25 -0.5
vertex 0.2962 0.07899 -0.93969
endloop
endfacet
facet normal -0.8160687892304935 -0.5713990398779301 -0.08680362014602905
outer loop
vertex -0.85287 -0.2424 -0.17365
vertex -0.75441 -0.38302 -0.17365
vertex -0.76604 -0.39279 0
endloop
endfacet
facet normal -0.8160368267234431 -0.5714372316274047 -0.08685267837632452
outer loop
vertex -0.85287 -0.2424 -0.17365
vertex -0.76604 -0.39279 0
vertex -0.86603 -0.25 0
endloop
endfacet
facet normal -0.8756378101022767 -0.4083270543959399 -0.2579291417572363
outer loop
vertex -0.85287 -0.2424 -0.17365
vertex -0.92542 -0.08682 -0.17365
vertex -0.88302 -0.07139 -0.34202
endloop
endfacet
facet normal -0.8756717512276526 -0.4082850506532266 -0.2578804015721015
outer loop
vertex -0.85287 -0.2424 -0.17365
vertex -0.88302 -0.07139 -0.34202
vertex -0.8138 -0.21985 -0.34202
endloop
endfacet
facet normal -0.7914381149332078 -0.5541895423565261 -0.25787528259535597
outer loop
vertex -0.85287 -0.2424 -0.17365
vertex -0.8138 -0.21985 -0.34202
vertex -0.71985 -0.35402 -0.34202
endloop
endfacet
facet normal -0.7914491937013606 -0.5541607709560207 -0.2579031091764793
outer loop
vertex -0.85287 -0.2424 -0.17365
vertex -0.71985 -0.35402 -0.34202
vertex -0.75441 -0.38302 -0.17365
endloop
endfacet
facet normal -0.9624905016289854 0.08416925761886039 0.2579293902328191
outer loop
vertex -0.98481 0.25 0.17365
vertex -0.93969 0.25 0.34202
vertex -0.92542 0.41318 0.34202
endloop
endfacet
facet normal -0.9624952352184964 0.08419933757598111 0.25790190719236045
outer loop
vertex -0.98481 0.25 0.17365
vertex -0.92542 0.41318 0.34202
vertex -0.96985 0.42101 0.17365
endloop
endfacet
facet normal -0.8756493255366595 -0.408332424268444 0.2578815425311563
outer loop
vertex -0.92542 -0.08682 0.17365
vertex -0.85287 -0.2424 0.17365
vertex -0.8138 -0.21985 0.34202
endloop
endfacet
facet normal -0.8756596829134602 -0.4082794237590591 0.2579302848733917
outer loop
vertex -0.92542 -0.08682 0.17365
vertex -0.8138 -0.21985 0.34202
vertex -0.88302 -0.07139 0.34202
endloop
endfacet
facet normal -0.6718452093767816 -0.4704390618592757 -0.5721110938571572
outer loop
vertex -0.66341 -0.13302 -0.64279
vertex -0.58682 -0.2424 -0.64279
vertex -0.66341 -0.30667 -0.5
endloop
endfacet
facet normal -0.671841520028457 -0.4704411872817739 -0.5721136786293152
outer loop
vertex -0.66341 -0.13302 -0.64279
vertex -0.66341 -0.30667 -0.5
vertex -0.75 -0.18301 -0.5
endloop
endfacet
facet normal -0.7433192705782439 -0.3466396422987491 -0.5721166143139201
outer loop
vertex -0.66341 -0.13302 -0.64279
vertex -0.75 -0.18301 -0.5
vertex -0.8138 -0.0462 -0.5
endloop
endfacet
facet normal -0.7433192899322112 -0.34666121900325575 -0.5721035155055858
outer loop
vertex -0.66341 -0.13302 -0.64279
vertex -0.8138 -0.0462 -0.5
vertex -0.71985 -0.012 -0.64279
endloop
endfacet
facet normal -0.6420371161216192 -0.29942633311770006 -0.7057848202943464
outer loop
vertex -0.66341 -0.13302 -0.64279
vertex -0.71985 -0.012 -0.64279
vertex -0.60402 0.03015 -0.76604
endloop
endfacet
facet normal -0.6420628021360186 -0.29940588616447145 -0.7057701279051922
outer loop
vertex -0.66341 -0.13302 -0.64279
vertex -0.60402 0.03015 -0.76604
vertex -0.55667 -0.07139 -0.76604
endloop
endfacet
facet normal -0.580325470606965 -0.40633530881261287 -0.7057718930199495
outer loop
vertex -0.66341 -0.13302 -0.64279
vertex -0.55667 -0.07139 -0.76604
vertex -0.4924 -0.16318 -0.76604
endloop
endfacet
facet normal -0.5803227785788856 -0.4063532785825273 -0.7057637605089345
outer loop
vertex -0.66341 -0.13302 -0.64279
vertex -0.4924 -0.16318 -0.76604
vertex -0.58682 -0.2424 -0.64279
endloop
endfacet
facet normal -0.7433192899322117 0.34666121900325575 -0.5721035155055851
outer loop
vertex -0.66341 0.63302 -0.64279
vertex -0.71985 0.512 -0.64279
vertex -0.8138 0.5462 -0.5
endloop
endfacet
facet normal -0.7433192705782439 0.3466396422987491 -0.5721166143139201
outer loop
vertex -0.66341 0.63302 -0.64279
vertex -0.8138 0.5462 -0.5
vertex -0.75 0.68301 -0.5
endloop
endfacet
facet normal -0.9028990875033566 0.4209871299246545 -0.08685087347521765
outer loop
vertex -0.93969 0.59202 0
vertex -0.86603 0.75 0
vertex -0.85287 0.7424 -0.17365
endloop
endfacet
facet normal -0.9028827290591486 0.4210318935161419 -0.08680392968590843
outer loop
vertex -0.93969 0.59202 0
vertex -0.85287 0.7424 -0.17365
vertex -0.92542 0.58682 -0.17365
endloop
endfacet
facet normal -0.9622707694908266 0.25787050614376705 0.08682032161130027
outer loop
vertex -0.93969 0.59202 0
vertex -0.98481 0.42365 0
vertex -0.96985 0.42101 0.17365
endloop
endfacet
facet normal -0.9622783780176536 0.2578495165268946 0.08679832963001344
outer loop
vertex -0.93969 0.59202 0
vertex -0.96985 0.42101 0.17365
vertex -0.92542 0.58682 0.17365
endloop
endfacet
facet normal -0.9028827290591486 0.4210318935161419 0.08680392968590843
outer loop
vertex -0.93969 0.59202 0
vertex -0.92542 0.58682 0.17365
vertex -0.85287 0.7424 0.17365
endloop
endfacet
facet normal -0.9028990875033566 0.4209871299246545 0.08685087347521765
outer loop
vertex -0.93969 0.59202 0
vertex -0.85287 0.7424 0.17365
vertex -0.86603 0.75 0
endloop
endfacet
facet normal 0.5728805643613314 0.050148494461484706 -0.8181032865600093
outer loop
vertex 0.5 0.25 -0.86603
vertex 0.4924 0.33682 -0.86603
vertex 0.63302 0.36162 -0.76604
endloop
endfacet
facet normal 0.5728831940943765 0.050143959920282755 -0.818101723019661
outer loop
vertex 0.5 0.25 -0.86603
vertex 0.63302 0.36162 -0.76604
vertex 0.64279 0.25 -0.76604
endloop
endfacet
facet normal 0.5735831664103626 -0.008682713704297873 -0.8191013134487037
outer loop
vertex 0.5 0.25 -0.86603
vertex 0.64279 0.25 -0.76604
vertex 1 -1.25 -0.5
endloop
endfacet
facet normal 0.501104473647906 -0.04386539967431558 -0.8642743390853783
outer loop
vertex 0.5 0.25 -0.86603
vertex 1 -1.25 -0.5
vertex 0.4924 0.16318 -0.86603
endloop
endfacet
facet normal 0.5554757485741301 0.1488385540852799 -0.818103769435035
outer loop
vertex 0.60402 0.46985 -0.76604
vertex 0.63302 0.36162 -0.76604
vertex 0.4924 0.33682 -0.86603
endloop
endfacet
facet normal 0.5555144424043786 0.14879261998121818 -0.8180858515579384
outer loop
vertex 0.60402 0.46985 -0.76604
vertex 0.4924 0.33682 -0.86603
vertex 0.46985 0.42101 -0.86603
endloop
endfacet
facet normal 0.6420628021360174 0.2994058861644715 -0.7057701279051934
outer loop
vertex 0.60402 0.46985 -0.76604
vertex 0.55667 0.57139 -0.76604
vertex 0.66341 0.63302 -0.64279
endloop
endfacet
facet normal 0.6420371161216195 0.2994263331176999 -0.705784820294346
outer loop
vertex 0.60402 0.46985 -0.76604
vertex 0.66341 0.63302 -0.64279
vertex 0.71985 0.512 -0.64279
endloop
endfacet
facet normal 0.6842819169415822 0.1833523263257961 -0.7057904664825617
outer loop
vertex 0.60402 0.46985 -0.76604
vertex 0.71985 0.512 -0.64279
vertex 0.75441 0.38302 -0.64279
endloop
endfacet
facet normal 0.6842818242915293 0.18335187013262966 -0.7057906748201793
outer loop
vertex 0.60402 0.46985 -0.76604
vertex 0.75441 0.38302 -0.64279
vertex 0.63302 0.36162 -0.76604
endloop
endfacet
facet normal -0.23471923657518123 0.8760368333092641 -0.4212675476072668
outer loop
vertex -0.15038 1.10287 -0.5
vertex -0.2962 1.0638 -0.5
vertex -0.32139 1.13302 -0.34202
endloop
endfacet
facet normal -0.2347670634023205 0.8760022901151221 -0.42131272667047726
outer loop
vertex -0.15038 1.10287 -0.5
vertex -0.32139 1.13302 -0.34202
vertex -0.16318 1.17542 -0.34202
endloop
endfacet
facet normal -0.07900795845341191 0.9034701233656434 -0.421306869973293
outer loop
vertex -0.15038 1.10287 -0.5
vertex -0.16318 1.17542 -0.34202
vertex 0 1.18969 -0.34202
endloop
endfacet
facet normal -0.07906558013479985 0.9034864696558635 -0.42126100363875607
outer loop
vertex -0.15038 1.10287 -0.5
vertex 0 1.18969 -0.34202
vertex 0 1.11603 -0.5
endloop
endfacet
facet normal -0.21226700952424074 0.7922389385417161 -0.5721015477394995
outer loop
vertex -0.262 0.96985 -0.64279
vertex -0.2962 1.0638 -0.5
vertex -0.15038 1.10287 -0.5
endloop
endfacet
facet normal -0.2122798608834209 0.7922412169196659 -0.5720936242233103
outer loop
vertex -0.262 0.96985 -0.64279
vertex -0.15038 1.10287 -0.5
vertex -0.13302 1.00441 -0.64279
endloop
endfacet
facet normal -0.07143700139030915 0.817072220545047 -0.57209242369214
outer loop
vertex 0 1.01604 -0.64279
vertex -0.13302 1.00441 -0.64279
vertex -0.15038 1.10287 -0.5
endloop
endfacet
facet normal -0.07150013141003045 0.817035696158081 -0.5721366990604851
outer loop
vertex 0 1.01604 -0.64279
vertex -0.15038 1.10287 -0.5
vertex 0 1.11603 -0.5
endloop
endfacet
facet normal 0.03698979991579972 0.07926798528832521 -0.9961668239860827
outer loop
vertex 0.08682 0.40038 -0.98481
vertex 0 0.25 -1
vertex 0.05939 0.41318 -0.98481
endloop
endfacet
facet normal 0.02262654621882685 0.08449555701641957 -0.9961669238891103
outer loop
vertex 0.03015 0.42101 -0.98481
vertex 0.05939 0.41318 -0.98481
vertex 0 0.25 -1
endloop
endfacet
facet normal -0.08449555701641856 0.022626546218829244 -0.9961669238891103
outer loop
vertex -0.16318 0.30939 -0.98481
vertex 0 0.25 -1
vertex -0.17101 0.28015 -0.98481
endloop
endfacet
facet normal -0.409467221166198 0.1097079219064847 -0.9057045691953819
outer loop
vertex -0.32139 0.36698 -0.93969
vertex -0.33682 0.30939 -0.93969
vertex -0.4924 0.33682 -0.86603
endloop
endfacet
facet normal -0.4094636342067509 0.10967341669274609 -0.9057103697833759
outer loop
vertex -0.32139 0.36698 -0.93969
vertex -0.4924 0.33682 -0.86603
vertex -0.46985 0.42101 -0.86603
endloop
endfacet
facet normal -0.38417020027558596 0.17917242914486092 -0.9057099413468673
outer loop
vertex -0.32139 0.36698 -0.93969
vertex -0.46985 0.42101 -0.86603
vertex -0.43301 0.5 -0.86603
endloop
endfacet
facet normal -0.3842145798981311 0.17912947006540558 -0.905699613308844
outer loop
vertex -0.32139 0.36698 -0.93969
vertex -0.43301 0.5 -0.86603
vertex -0.2962 0.42101 -0.93969
endloop
endfacet
facet normal -0.25093883263829864 0.06719736865792991 -0.9656677564874878
outer loop
vertex -0.32139 0.36698 -0.93969
vertex -0.16318 0.30939 -0.98481
vertex -0.17101 0.28015 -0.98481
endloop
endfacet
facet normal -0.2509213003300145 0.06722895752894845 -0.9656701136051926
outer loop
vertex -0.32139 0.36698 -0.93969
vertex -0.17101 0.28015 -0.98481
vertex -0.33682 0.30939 -0.93969
endloop
endfacet
facet normal -0.07926798528832785 -0.03698979991580605 -0.9961668239860823
outer loop
vertex -0.16318 0.19061 -0.98481
vertex 0 0.25 -1
vertex -0.15038 0.16318 -0.98481
endloop
endfacet
facet normal -0.2509269979850373 -0.06723048409288251 -0.9656685268200751
outer loop
vertex -0.16318 0.19061 -0.98481
vertex -0.32139 0.13302 -0.93969
vertex -0.33682 0.19061 -0.93969
endloop
endfacet
facet normal -0.2509276099406406 -0.06719436340065758 -0.9656708818726276
outer loop
vertex -0.16318 0.19061 -0.98481
vertex -0.33682 0.19061 -0.93969
vertex -0.17101 0.21985 -0.98481
endloop
endfacet
facet normal -0.08449555701641877 -0.0226265462188293 -0.9961669238891102
outer loop
vertex -0.16318 0.19061 -0.98481
vertex -0.17101 0.21985 -0.98481
vertex 0 0.25 -1
endloop
endfacet
facet normal -0.18368160766947206 -0.18368160766947206 -0.965671856278268
outer loop
vertex -0.13302 0.13838 -0.98481
vertex -0.11162 0.11698 -0.98481
vertex -0.21985 -0.012 -0.93969
endloop
endfacet
facet normal -0.18368160766947497 -0.1836816076694716 -0.9656718562782678
outer loop
vertex -0.13302 0.13838 -0.98481
vertex -0.21985 -0.012 -0.93969
vertex -0.262 0.03015 -0.93969
endloop
endfacet
facet normal -0.07166225830894672 -0.050163580816262675 -0.996166720932672
outer loop
vertex -0.13302 0.13838 -0.98481
vertex -0.15038 0.16318 -0.98481
vertex 0 0.25 -1
endloop
endfacet
facet normal -0.06185322992281579 -0.06185322992280824 -0.9961668313571936
outer loop
vertex -0.13302 0.13838 -0.98481
vertex 0 0.25 -1
vertex -0.11162 0.11698 -0.98481
endloop
endfacet
facet normal -0.2354429011652647 -0.10976877068948782 -0.9656694347820076
outer loop
vertex -0.2962 0.07899 -0.93969
vertex -0.32139 0.13302 -0.93969
vertex -0.16318 0.19061 -0.98481
endloop
endfacet
facet normal -0.23538475481421287 -0.10984049805402453 -0.9656754538603002
outer loop
vertex -0.2962 0.07899 -0.93969
vertex -0.16318 0.19061 -0.98481
vertex -0.15038 0.16318 -0.98481
endloop
endfacet
facet normal -0.2127990493408351 -0.1489593345385851 -0.9656747284947755
outer loop
vertex -0.2962 0.07899 -0.93969
vertex -0.15038 0.16318 -0.98481
vertex -0.13302 0.13838 -0.98481
endloop
endfacet
facet normal -0.21278325066111586 -0.14900055635974896 -0.9656718502900321
outer loop
vertex -0.2962 0.07899 -0.93969
vertex -0.13302 0.13838 -0.98481
vertex -0.262 0.03015 -0.93969
endloop
endfacet
facet normal -0.3472461022762341 -0.2431575900460148 -0.9057011266731301
outer loop
vertex -0.2962 0.07899 -0.93969
vertex -0.262 0.03015 -0.93969
vertex -0.38302 -0.07139 -0.86603
endloop
endfacet
facet normal -0.34724801242785525 -0.24315629837888103 -0.9057007410969611
outer loop
vertex -0.2962 0.07899 -0.93969
vertex -0.38302 -0.07139 -0.86603
vertex -0.43301 0 -0.86603
endloop
endfacet
facet normal -0.38418644565447474 -0.17918000579707338 -0.9057015515598625
outer loop
vertex -0.2962 0.07899 -0.93969
vertex -0.43301 0 -0.86603
vertex -0.46985 0.07899 -0.86603
endloop
endfacet
facet normal -0.3841908266989396 -0.17911839579023253 -0.9057118796669936
outer loop
vertex -0.2962 0.07899 -0.93969
vertex -0.46985 0.07899 -0.86603
vertex -0.32139 0.13302 -0.93969
endloop
endfacet
facet normal 0.022659430975650062 -0.2587810014834282 -0.9656702042929012
outer loop
vertex 0 0.07635 -0.98481
vertex 0.03015 0.07899 -0.98481
vertex 0.05939 -0.08682 -0.93969
endloop
endfacet
facet normal 0.022658084241426686 -0.2587814659804085 -0.9656701114166987
outer loop
vertex 0 0.07635 -0.98481
vertex 0.05939 -0.08682 -0.93969
vertex 0 -0.09202 -0.93969
endloop
endfacet
facet normal -0.022658084241426686 -0.2587814659804085 -0.9656701114166987
outer loop
vertex 0 0.07635 -0.98481
vertex 0 -0.09202 -0.93969
vertex -0.05939 -0.08682 -0.93969
endloop
endfacet
facet normal -0.022659430975650062 -0.2587810014834282 -0.9656702042929012
outer loop
vertex 0 0.07635 -0.98481
vertex -0.05939 -0.08682 -0.93969
vertex -0.03015 0.07899 -0.98481
endloop
endfacet
facet normal -0.0076301258765472954 -0.08713950574918614 -0.9961668975211412
outer loop
vertex 0 0.07635 -0.98481
vertex -0.03015 0.07899 -0.98481
vertex 0 0.25 -1
endloop
endfacet
facet normal 0.0076301258765472954 -0.08713950574918614 -0.9961668975211412
outer loop
vertex 0 0.07635 -0.98481
vertex 0 0.25 -1
vertex 0.03015 0.07899 -0.98481
endloop
endfacet
facet normal 0.08713950574918533 0.007630125876545634 -0.9961668975211412
outer loop
vertex 0.17365 0.25 -0.98481
vertex 0 0.25 -1
vertex 0.17101 0.28015 -0.98481
endloop
endfacet
facet normal 0.08449555701641856 0.022626546218829244 -0.9961669238891103
outer loop
vertex 0.16318 0.30939 -0.98481
vertex 0.17101 0.28015 -0.98481
vertex 0 0.25 -1
endloop
endfacet
facet normal 0.2555883078427169 -0.1789746135999374 -0.9500751047053332
outer loop
vertex 0.262 0.03015 -0.93969
vertex 0.2962 0.07899 -0.93969
vertex 1 -1.25 -0.5
endloop
endfacet
facet normal 0.2082089592991007 -0.2082089592990982 -0.9556662903624737
outer loop
vertex 0.262 0.03015 -0.93969
vertex 1 -1.25 -0.5
vertex 0.21985 -0.012 -0.93969
endloop
endfacet
facet normal 0.23541166028530855 -0.10985305328661815 -0.965667467032685
outer loop
vertex 0.15038 0.16318 -0.98481
vertex 0.16318 0.19061 -0.98481
vertex 0.32139 0.13302 -0.93969
endloop
endfacet
facet normal 0.23542923737660065 -0.10976240032420066 -0.9656734901939382
outer loop
vertex 0.15038 0.16318 -0.98481
vertex 0.32139 0.13302 -0.93969
vertex 0.2962 0.07899 -0.93969
endloop
endfacet
facet normal 0.21277734618981806 -0.14899642177911235 -0.9656737892505104
outer loop
vertex 0.15038 0.16318 -0.98481
vertex 0.2962 0.07899 -0.93969
vertex 0.262 0.03015 -0.93969
endloop
endfacet
facet normal 0.2128106800250849 -0.14896747601755625 -0.9656709095526383
outer loop
vertex 0.15038 0.16318 -0.98481
vertex 0.262 0.03015 -0.93969
vertex 0.13302 0.13838 -0.98481
endloop
endfacet
facet normal 0.07166225830894672 -0.050163580816262675 -0.996166720932672
outer loop
vertex 0.15038 0.16318 -0.98481
vertex 0.13302 0.13838 -0.98481
vertex 0 0.25 -1
endloop
endfacet
facet normal 0.07926798528832775 -0.036989799915806004 -0.9961668239860823
outer loop
vertex 0.15038 0.16318 -0.98481
vertex 0 0.25 -1
vertex 0.16318 0.19061 -0.98481
endloop
endfacet
facet normal -0.9924344123861636 0.0868184247078937 0.08681300733743658
outer loop
vertex -1 0.25 0
vertex -0.98481 0.25 0.17365
vertex -0.96985 0.42101 0.17365
endloop
endfacet
facet normal -0.9924344194824508 0.08681300795818307 0.08681834296842526
outer loop
vertex -1 0.25 0
vertex -0.96985 0.42101 0.17365
vertex -0.98481 0.42365 0
endloop
endfacet
facet normal -0.9924344194824508 -0.0868130079581831 -0.08681834296842522
outer loop
vertex -0.96985 0.07899 -0.17365
vertex -0.98481 0.07635 0
vertex -1 0.25 0
endloop
endfacet
facet normal -0.9924344123861636 -0.0868184247078937 -0.08681300733743658
outer loop
vertex -0.96985 0.07899 -0.17365
vertex -1 0.25 0
vertex -0.98481 0.25 -0.17365
endloop
endfacet
facet normal -0.9624880979204025 -0.08419871320325736 -0.2579287460840322
outer loop
vertex -0.96985 0.07899 -0.17365
vertex -0.98481 0.25 -0.17365
vertex -0.93969 0.25 -0.34202
endloop
endfacet
facet normal -0.9624979814419446 -0.08416991172433248 -0.2579012634333142
outer loop
vertex -0.96985 0.07899 -0.17365
vertex -0.93969 0.25 -0.34202
vertex -0.92542 0.08682 -0.34202
endloop
endfacet
facet normal -0.9332393832185231 -0.25010650305584625 -0.2578972484131747
outer loop
vertex -0.96985 0.07899 -0.17365
vertex -0.92542 0.08682 -0.34202
vertex -0.88302 -0.07139 -0.34202
endloop
endfacet
facet normal -0.933240086562948 -0.2500684943368421 -0.2579315586974311
outer loop
vertex -0.96985 0.07899 -0.17365
vertex -0.88302 -0.07139 -0.34202
vertex -0.92542 -0.08682 -0.17365
endloop
endfacet
facet normal -0.933240086562948 0.2500684943368421 -0.25793155869743106
outer loop
vertex -0.96985 0.42101 -0.17365
vertex -0.92542 0.58682 -0.17365
vertex -0.88302 0.57139 -0.34202
endloop
endfacet
facet normal -0.9332393832185231 0.25010650305584625 -0.2578972484131748
outer loop
vertex -0.96985 0.42101 -0.17365
vertex -0.88302 0.57139 -0.34202
vertex -0.92542 0.41318 -0.34202
endloop
endfacet
facet normal -0.9624979814419448 0.08416991172433246 -0.25790126343331415
outer loop
vertex -0.96985 0.42101 -0.17365
vertex -0.92542 0.41318 -0.34202
vertex -0.93969 0.25 -0.34202
endloop
endfacet
facet normal -0.9624880979204025 0.08419871320325736 -0.25792874608403227
outer loop
vertex -0.96985 0.42101 -0.17365
vertex -0.93969 0.25 -0.34202
vertex -0.98481 0.25 -0.17365
endloop
endfacet
facet normal -0.9924344123861636 0.0868184247078937 -0.08681300733743658
outer loop
vertex -0.96985 0.42101 -0.17365
vertex -0.98481 0.25 -0.17365
vertex -1 0.25 0
endloop
endfacet
facet normal -0.9924344194824508 0.08681300795818307 -0.08681834296842526
outer loop
vertex -0.96985 0.42101 -0.17365
vertex -1 0.25 0
vertex -0.98481 0.42365 0
endloop
endfacet
facet normal -0.9622707694908266 0.25787050614376705 -0.08682032161130027
outer loop
vertex -0.96985 0.42101 -0.17365
vertex -0.98481 0.42365 0
vertex -0.93969 0.59202 0
endloop
endfacet
facet normal -0.9622783780176536 0.2578495165268946 -0.08679832963001331
outer loop
vertex -0.96985 0.42101 -0.17365
vertex -0.93969 0.59202 0
vertex -0.92542 0.58682 -0.17365
endloop
endfacet
facet normal -0.9028990875033567 -0.42098712992465454 0.0868508734752175
outer loop
vertex -0.93969 -0.09202 0
vertex -0.86603 -0.25 0
vertex -0.85287 -0.2424 0.17365
endloop
endfacet
facet normal -0.9028827290591488 -0.4210318935161418 0.08680392968590842
outer loop
vertex -0.93969 -0.09202 0
vertex -0.85287 -0.2424 0.17365
vertex -0.92542 -0.08682 0.17365
endloop
endfacet
facet normal -0.9622707694908268 -0.25787050614376705 -0.08682032161130027
outer loop
vertex -0.93969 -0.09202 0
vertex -0.98481 0.07635 0
vertex -0.96985 0.07899 -0.17365
endloop
endfacet
facet normal -0.9622783780176537 -0.2578495165268946 -0.08679832963001308
outer loop
vertex -0.93969 -0.09202 0
vertex -0.96985 0.07899 -0.17365
vertex -0.92542 -0.08682 -0.17365
endloop
endfacet
facet normal -0.9028827290591488 -0.4210318935161418 -0.08680392968590842
outer loop
vertex -0.93969 -0.09202 0
vertex -0.92542 -0.08682 -0.17365
vertex -0.85287 -0.2424 -0.17365
endloop
endfacet
facet normal -0.9028990875033567 -0.42098712992465454 -0.0868508734752175
outer loop
vertex -0.93969 -0.09202 0
vertex -0.85287 -0.2424 -0.17365
vertex -0.86603 -0.25 0
endloop
endfacet
facet normal -0.9924344123861636 -0.0868184247078937 0.08681300733743658
outer loop
vertex -0.96985 0.07899 0.17365
vertex -0.98481 0.25 0.17365
vertex -1 0.25 0
endloop
endfacet
facet normal -0.9924344194824508 -0.0868130079581831 0.08681834296842522
outer loop
vertex -0.96985 0.07899 0.17365
vertex -1 0.25 0
vertex -0.98481 0.07635 0
endloop
endfacet
facet normal -0.9622707694908268 -0.25787050614376705 0.08682032161130027
outer loop
vertex -0.96985 0.07899 0.17365
vertex -0.98481 0.07635 0
vertex -0.93969 -0.09202 0
endloop
endfacet
facet normal -0.9622783780176537 -0.2578495165268946 0.08679832963001308
outer loop
vertex -0.96985 0.07899 0.17365
vertex -0.93969 -0.09202 0
vertex -0.92542 -0.08682 0.17365
endloop
endfacet
facet normal -0.933240086562948 -0.2500684943368421 0.2579315586974311
outer loop
vertex -0.96985 0.07899 0.17365
vertex -0.92542 -0.08682 0.17365
vertex -0.88302 -0.07139 0.34202
endloop
endfacet
facet normal -0.9332393832185231 -0.25010650305584625 0.2578972484131747
outer loop
vertex -0.96985 0.07899 0.17365
vertex -0.88302 -0.07139 0.34202
vertex -0.92542 0.08682 0.34202
endloop
endfacet
facet normal -0.9624979814419446 -0.08416991172433248 0.2579012634333142
outer loop
vertex -0.96985 0.07899 0.17365
vertex -0.92542 0.08682 0.34202
vertex -0.93969 0.25 0.34202
endloop
endfacet
facet normal -0.9624880979204025 -0.08419871320325736 0.2579287460840322
outer loop
vertex -0.96985 0.07899 0.17365
vertex -0.93969 0.25 0.34202
vertex -0.98481 0.25 0.17365
endloop
endfacet
facet normal -0.6420483743021196 0.2993991581958361 -0.7057861072078637
outer loop
vertex -0.55667 0.57139 -0.76604
vertex -0.60402 0.46985 -0.76604
vertex -0.71985 0.512 -0.64279
endloop
endfacet
facet normal -0.6420492211090301 0.2994319785109379 -0.7057714133615168
outer loop
vertex -0.55667 0.57139 -0.76604
vertex -0.71985 0.512 -0.64279
vertex -0.66341 0.63302 -0.64279
endloop
endfacet
facet normal -0.5211789770503247 0.24307169913323265 -0.8181006190935565
outer loop
vertex -0.55667 0.57139 -0.76604
vertex -0.43301 0.5 -0.86603
vertex -0.46985 0.42101 -0.86603
endloop
endfacet
facet normal -0.521206777493788 0.24304846281594186 -0.8180898115838804
outer loop
vertex -0.55667 0.57139 -0.76604
vertex -0.46985 0.42101 -0.86603
vertex -0.60402 0.46985 -0.76604
endloop
endfacet
facet normal 0.25092760994063995 0.0671943634006574 -0.9656708818726276
outer loop
vertex 0.33682 0.30939 -0.93969
vertex 0.17101 0.28015 -0.98481
vertex 0.16318 0.30939 -0.98481
endloop
endfacet
facet normal 0.25092699798503654 0.06723048409288265 -0.965668526820075
outer loop
vertex 0.33682 0.30939 -0.93969
vertex 0.16318 0.30939 -0.98481
vertex 0.32139 0.36698 -0.93969
endloop
endfacet
facet normal 0.4094530030565486 0.10970411247026522 -0.905711458465159
outer loop
vertex 0.33682 0.30939 -0.93969
vertex 0.32139 0.36698 -0.93969
vertex 0.46985 0.42101 -0.86603
endloop
endfacet
facet normal 0.4094733604743807 0.10967602183985393 -0.9057056570957266
outer loop
vertex 0.33682 0.30939 -0.93969
vertex 0.46985 0.42101 -0.86603
vertex 0.4924 0.33682 -0.86603
endloop
endfacet
facet normal 0.5009501458278847 0.500950145827886 -0.7057605137651445
outer loop
vertex 0.4924 0.66318 -0.76604
vertex 0.41318 0.7424 -0.76604
vertex 0.4924 0.83682 -0.64279
endloop
endfacet
facet normal 0.5009501458278868 0.5009501458278856 -0.7057605137651434
outer loop
vertex 0.4924 0.66318 -0.76604
vertex 0.4924 0.83682 -0.64279
vertex 0.58682 0.7424 -0.64279
endloop
endfacet
facet normal 0.5803227785788856 0.4063532785825273 -0.7057637605089347
outer loop
vertex 0.4924 0.66318 -0.76604
vertex 0.58682 0.7424 -0.64279
vertex 0.66341 0.63302 -0.64279
endloop
endfacet
facet normal 0.5803254706069662 0.4063353088126127 -0.7057718930199488
outer loop
vertex 0.4924 0.66318 -0.76604
vertex 0.66341 0.63302 -0.64279
vertex 0.55667 0.57139 -0.76604
endloop
endfacet
facet normal -0.6718436419348103 0.470437964305973 -0.5721138370389433
outer loop
vertex -0.58682 0.7424 -0.64279
vertex -0.66341 0.63302 -0.64279
vertex -0.75 0.68301 -0.5
endloop
endfacet
facet normal -0.6718429064563527 0.4704421580952239 -0.572111252232456
outer loop
vertex -0.58682 0.7424 -0.64279
vertex -0.75 0.68301 -0.5
vertex -0.66341 0.80667 -0.5
endloop
endfacet
facet normal -0.5799513860376767 0.5799513860376778 -0.5721125585633949
outer loop
vertex -0.58682 0.7424 -0.64279
vertex -0.66341 0.80667 -0.5
vertex -0.55667 0.91341 -0.5
endloop
endfacet
facet normal -0.5799513860376767 0.5799513860376767 -0.572112558563396
outer loop
vertex -0.58682 0.7424 -0.64279
vertex -0.55667 0.91341 -0.5
vertex -0.4924 0.83682 -0.64279
endloop
endfacet
facet normal -0.5009501458278859 0.5009501458278859 -0.7057605137651438
outer loop
vertex -0.58682 0.7424 -0.64279
vertex -0.4924 0.83682 -0.64279
vertex -0.41318 0.7424 -0.76604
endloop
endfacet
facet normal -0.5009501458278852 0.5009501458278859 -0.7057605137651443
outer loop
vertex -0.58682 0.7424 -0.64279
vertex -0.41318 0.7424 -0.76604
vertex -0.4924 0.66318 -0.76604
endloop
endfacet
facet normal -0.5803326875744228 0.40634036202645096 -0.7057630494159214
outer loop
vertex -0.58682 0.7424 -0.64279
vertex -0.4924 0.66318 -0.76604
vertex -0.55667 0.57139 -0.76604
endloop
endfacet
facet normal -0.5803167224064066 0.4063490379329567 -0.705771181805014
outer loop
vertex -0.58682 0.7424 -0.64279
vertex -0.55667 0.57139 -0.76604
vertex -0.66341 0.63302 -0.64279
endloop
endfacet
facet normal -0.47043906185927753 0.671845209376781 -0.5721110938571564
outer loop
vertex -0.38302 0.91341 -0.64279
vertex -0.4924 0.83682 -0.64279
vertex -0.55667 0.91341 -0.5
endloop
endfacet
facet normal -0.4704411872817734 0.6718415200284575 -0.5721136786293153
outer loop
vertex -0.38302 0.91341 -0.64279
vertex -0.55667 0.91341 -0.5
vertex -0.43301 1 -0.5
endloop
endfacet
facet normal -0.3466396422987497 0.7433192705782445 -0.5721166143139187
outer loop
vertex -0.38302 0.91341 -0.64279
vertex -0.43301 1 -0.5
vertex -0.2962 1.0638 -0.5
endloop
endfacet
facet normal -0.34666121900325597 0.7433192899322103 -0.5721035155055869
outer loop
vertex -0.38302 0.91341 -0.64279
vertex -0.2962 1.0638 -0.5
vertex -0.262 0.96985 -0.64279
endloop
endfacet
facet normal -0.4063353088126124 0.5803254706069649 -0.7057718930199497
outer loop
vertex -0.38302 0.91341 -0.64279
vertex -0.32139 0.80667 -0.76604
vertex -0.41318 0.7424 -0.76604
endloop
endfacet
facet normal -0.40635327858252807 0.580322778578885 -0.7057637605089346
outer loop
vertex -0.38302 0.91341 -0.64279
vertex -0.41318 0.7424 -0.76604
vertex -0.4924 0.83682 -0.64279
endloop
endfacet
facet normal 0.5541895423565255 0.7914381149332085 -0.25787528259535497
outer loop
vertex 0.60402 0.96985 -0.34202
vertex 0.46985 1.0638 -0.34202
vertex 0.4924 1.10287 -0.17365
endloop
endfacet
facet normal 0.5541607709560222 0.7914491937013595 -0.2579031091764796
outer loop
vertex 0.60402 0.96985 -0.34202
vertex 0.4924 1.10287 -0.17365
vertex 0.63302 1.00441 -0.17365
endloop
endfacet
facet normal 0.6831857568511915 0.6831857568511924 -0.2579039419460821
outer loop
vertex 0.60402 0.96985 -0.34202
vertex 0.63302 1.00441 -0.17365
vertex 0.75441 0.88302 -0.17365
endloop
endfacet
facet normal 0.6831857568511919 0.6831857568511921 -0.2579039419460815
outer loop
vertex 0.60402 0.96985 -0.34202
vertex 0.75441 0.88302 -0.17365
vertex 0.71985 0.85402 -0.34202
endloop
endfacet
facet normal 0.07906364685986171 0.9034643780232469 -0.42130874354597314
outer loop
vertex 0.16318 1.17542 -0.34202
vertex 0.15038 1.10287 -0.5
vertex 0 1.11603 -0.5
endloop
endfacet
facet normal 0.079009738833373 0.903490482328649 -0.42126287459379513
outer loop
vertex 0.16318 1.17542 -0.34202
vertex 0 1.11603 -0.5
vertex 0 1.18969 -0.34202
endloop
endfacet
facet normal 0.08416925761886025 0.9624905016289851 -0.2579293902328206
outer loop
vertex 0.16318 1.17542 -0.34202
vertex 0 1.18969 -0.34202
vertex 0 1.23481 -0.17365
endloop
endfacet
facet normal 0.08419933757598141 0.9624952352184959 -0.25790190719236245
outer loop
vertex 0.16318 1.17542 -0.34202
vertex 0 1.23481 -0.17365
vertex 0.17101 1.21985 -0.17365
endloop
endfacet
facet normal 0.0714341466399419 0.8170395688774831 -0.5721394109675715
outer loop
vertex 0.13302 1.00441 -0.64279
vertex 0 1.01604 -0.64279
vertex 0 1.11603 -0.5
endloop
endfacet
facet normal 0.07150265891441439 0.8170645780812706 -0.5720951363305268
outer loop
vertex 0.13302 1.00441 -0.64279
vertex 0 1.11603 -0.5
vertex 0.15038 1.10287 -0.5
endloop
endfacet
facet normal 0.18335232632579598 0.6842819169415825 -0.7057904664825619
outer loop
vertex 0.13302 1.00441 -0.64279
vertex 0.262 0.96985 -0.64279
vertex 0.21985 0.85402 -0.76604
endloop
endfacet
facet normal 0.18335187013262805 0.6842818242915303 -0.7057906748201785
outer loop
vertex 0.13302 1.00441 -0.64279
vertex 0.21985 0.85402 -0.76604
vertex 0.11162 0.88302 -0.76604
endloop
endfacet
facet normal 0.2122783427537618 0.7922355511684089 -0.5721020334368718
outer loop
vertex 0.2962 1.0638 -0.5
vertex 0.262 0.96985 -0.64279
vertex 0.13302 1.00441 -0.64279
endloop
endfacet
facet normal 0.21226835226587368 0.7922439500232856 -0.5720941096339245
outer loop
vertex 0.2962 1.0638 -0.5
vertex 0.13302 1.00441 -0.64279
vertex 0.15038 1.10287 -0.5
endloop
endfacet
facet normal -0.2994058861644701 0.6420628021360182 -0.7057701279051934
outer loop
vertex -0.21985 0.85402 -0.76604
vertex -0.32139 0.80667 -0.76604
vertex -0.38302 0.91341 -0.64279
endloop
endfacet
facet normal -0.2994263331177014 0.6420371161216198 -0.705784820294345
outer loop
vertex -0.21985 0.85402 -0.76604
vertex -0.38302 0.91341 -0.64279
vertex -0.262 0.96985 -0.64279
endloop
endfacet
facet normal -0.1833523263257954 0.6842819169415826 -0.705790466482562
outer loop
vertex -0.21985 0.85402 -0.76604
vertex -0.262 0.96985 -0.64279
vertex -0.13302 1.00441 -0.64279
endloop
endfacet
facet normal -0.18335187013262838 0.6842818242915303 -0.7057906748201784
outer loop
vertex -0.21985 0.85402 -0.76604
vertex -0.13302 1.00441 -0.64279
vertex -0.11162 0.88302 -0.76604
endloop
endfacet
facet normal -0.24307900955304354 0.5211946515905278 -0.8180884611508341
outer loop
vertex -0.21985 0.85402 -0.76604
vertex -0.17101 0.71985 -0.86603
vertex -0.25 0.68301 -0.86603
endloop
endfacet
facet normal -0.24304277643831285 0.5211945833061483 -0.818099269742668
outer loop
vertex -0.21985 0.85402 -0.76604
vertex -0.25 0.68301 -0.86603
vertex -0.32139 0.80667 -0.76604
endloop
endfacet
facet normal -0.1487926199812184 0.5555144424043794 -0.8180858515579377
outer loop
vertex -0.08682 0.7424 -0.86603
vertex -0.17101 0.71985 -0.86603
vertex -0.21985 0.85402 -0.76604
endloop
endfacet
facet normal -0.14883855408527943 0.555475748574129 -0.8181037694350358
outer loop
vertex -0.08682 0.7424 -0.86603
vertex -0.21985 0.85402 -0.76604
vertex -0.11162 0.88302 -0.76604
endloop
endfacet
facet normal 0.050143790202492995 0.5728812551077207 -0.8181030912118171
outer loop
vertex 0 0.89279 -0.76604
vertex 0.11162 0.88302 -0.76604
vertex 0.08682 0.7424 -0.86603
endloop
endfacet
facet normal 0.050148712679318905 0.5728830572129529 -0.8181015275471301
outer loop
vertex 0 0.89279 -0.76604
vertex 0.08682 0.7424 -0.86603
vertex 0 0.75 -0.86603
endloop
endfacet
facet normal -0.050148712679318905 0.5728830572129529 -0.8181015275471301
outer loop
vertex 0 0.89279 -0.76604
vertex 0 0.75 -0.86603
vertex -0.08682 0.7424 -0.86603
endloop
endfacet
facet normal -0.050143790202492995 0.5728812551077207 -0.8181030912118171
outer loop
vertex 0 0.89279 -0.76604
vertex -0.08682 0.7424 -0.86603
vertex -0.11162 0.88302 -0.76604
endloop
endfacet
facet normal -0.061770950507424933 0.7057188838934265 -0.7057940256120236
outer loop
vertex 0 0.89279 -0.76604
vertex -0.11162 0.88302 -0.76604
vertex -0.13302 1.00441 -0.64279
endloop
endfacet
facet normal -0.06170486540871237 0.7057593462310258 -0.7057593462310279
outer loop
vertex 0 0.89279 -0.76604
vertex -0.13302 1.00441 -0.64279
vertex 0 1.01604 -0.64279
endloop
endfacet
facet normal 0.06170486540871237 0.7057593462310258 -0.7057593462310279
outer loop
vertex 0 0.89279 -0.76604
vertex 0 1.01604 -0.64279
vertex 0.13302 1.00441 -0.64279
endloop
endfacet
facet normal 0.061770950507424933 0.7057188838934265 -0.7057940256120236
outer loop
vertex 0 0.89279 -0.76604
vertex 0.13302 1.00441 -0.64279
vertex 0.11162 0.88302 -0.76604
endloop
endfacet
facet normal 0.061853229922810525 0.061853229922808256 -0.996166831357194
outer loop
vertex 0.11162 0.38302 -0.98481
vertex 0.13302 0.36162 -0.98481
vertex 0 0.25 -1
endloop
endfacet
facet normal 0.05016358081626481 0.07166225830894667 -0.9961667209326718
outer loop
vertex 0.11162 0.38302 -0.98481
vertex 0 0.25 -1
vertex 0.08682 0.40038 -0.98481
endloop
endfacet
facet normal -0.07166225830894672 0.050163580816262675 -0.996166720932672
outer loop
vertex -0.15038 0.33682 -0.98481
vertex -0.13302 0.36162 -0.98481
vertex 0 0.25 -1
endloop
endfacet
facet normal -0.07926798528832815 0.03698979991580619 -0.996166823986082
outer loop
vertex -0.15038 0.33682 -0.98481
vertex 0 0.25 -1
vertex -0.16318 0.30939 -0.98481
endloop
endfacet
facet normal -0.23541166028530736 0.1098530532866176 -0.9656674670326854
outer loop
vertex -0.15038 0.33682 -0.98481
vertex -0.16318 0.30939 -0.98481
vertex -0.32139 0.36698 -0.93969
endloop
endfacet
facet normal -0.23542923737660082 0.10976240032420073 -0.9656734901939382
outer loop
vertex -0.15038 0.33682 -0.98481
vertex -0.32139 0.36698 -0.93969
vertex -0.2962 0.42101 -0.93969
endloop
endfacet
facet normal -0.2127773461898205 0.14899642177911218 -0.96567378925051
outer loop
vertex -0.15038 0.33682 -0.98481
vertex -0.2962 0.42101 -0.93969
vertex -0.262 0.46985 -0.93969
endloop
endfacet
facet normal -0.2128106800250798 0.1489674760175564 -0.9656709095526392
outer loop
vertex -0.15038 0.33682 -0.98481
vertex -0.262 0.46985 -0.93969
vertex -0.13302 0.36162 -0.98481
endloop
endfacet
facet normal 0.08713950574918533 -0.007630125876545634 -0.9961668975211412
outer loop
vertex 0.17101 0.21985 -0.98481
vertex 0 0.25 -1
vertex 0.17365 0.25 -0.98481
endloop
endfacet
facet normal 0.2509213003300162 -0.06722895752894856 -0.9656701136051922
outer loop
vertex 0.17101 0.21985 -0.98481
vertex 0.33682 0.19061 -0.93969
vertex 0.32139 0.13302 -0.93969
endloop
endfacet
facet normal 0.2509388326382986 -0.06719736865792955 -0.9656677564874879
outer loop
vertex 0.17101 0.21985 -0.98481
vertex 0.32139 0.13302 -0.93969
vertex 0.16318 0.19061 -0.98481
endloop
endfacet
facet normal 0.08449555701641877 -0.0226265462188293 -0.9961669238891102
outer loop
vertex 0.17101 0.21985 -0.98481
vertex 0.16318 0.19061 -0.98481
vertex 0 0.25 -1
endloop
endfacet
facet normal 0.07926798528832815 0.03698979991580619 -0.996166823986082
outer loop
vertex 0.15038 0.33682 -0.98481
vertex 0.16318 0.30939 -0.98481
vertex 0 0.25 -1
endloop
endfacet
facet normal 0.07166225830894672 0.050163580816262675 -0.996166720932672
outer loop
vertex 0.15038 0.33682 -0.98481
vertex 0 0.25 -1
vertex 0.13302 0.36162 -0.98481
endloop
endfacet
facet normal 0.18368160766947197 -0.18368160766947197 -0.9656718562782682
outer loop
vertex 0.11162 0.11698 -0.98481
vertex 0.13302 0.13838 -0.98481
vertex 0.262 0.03015 -0.93969
endloop
endfacet
facet normal 0.183681607669475 -0.18368160766947164 -0.9656718562782677
outer loop
vertex 0.11162 0.11698 -0.98481
vertex 0.262 0.03015 -0.93969
vertex 0.21985 -0.012 -0.93969
endloop
endfacet
facet normal 0.14900055635974271 -0.212783250661115 -0.9656718502900331
outer loop
vertex 0.11162 0.11698 -0.98481
vertex 0.21985 -0.012 -0.93969
vertex 0.17101 -0.0462 -0.93969
endloop
endfacet
facet normal 0.1489593345385928 -0.2127990493408358 -0.9656747284947743
outer loop
vertex 0.11162 0.11698 -0.98481
vertex 0.17101 -0.0462 -0.93969
vertex 0.08682 0.09962 -0.98481
endloop
endfacet
facet normal 0.05016358081626485 -0.07166225830894672 -0.9961667209326719
outer loop
vertex 0.11162 0.11698 -0.98481
vertex 0.08682 0.09962 -0.98481
vertex 0 0.25 -1
endloop
endfacet
facet normal 0.061853229922810525 -0.061853229922808256 -0.996166831357194
outer loop
vertex 0.11162 0.11698 -0.98481
vertex 0 0.25 -1
vertex 0.13302 0.13838 -0.98481
endloop
endfacet
facet normal 0.022626546218837418 -0.0844955570164196 -0.9961669238891099
outer loop
vertex 0.05939 0.08682 -0.98481
vertex 0.03015 0.07899 -0.98481
vertex 0 0.25 -1
endloop
endfacet
facet normal 0.03698979991578917 -0.07926798528832522 -0.996166823986083
outer loop
vertex 0.05939 0.08682 -0.98481
vertex 0 0.25 -1
vertex 0.08682 0.09962 -0.98481
endloop
endfacet
facet normal 0.10984049805403372 -0.23538475481421142 -0.9656754538602996
outer loop
vertex 0.05939 0.08682 -0.98481
vertex 0.08682 0.09962 -0.98481
vertex 0.17101 -0.0462 -0.93969
endloop
endfacet
facet normal 0.10976877068948511 -0.23544290116526478 -0.965669434782008
outer loop
vertex 0.05939 0.08682 -0.98481
vertex 0.17101 -0.0462 -0.93969
vertex 0.11698 -0.07139 -0.93969
endloop
endfacet
facet normal 0.0672304840928809 -0.2509269979850365 -0.9656685268200752
outer loop
vertex 0.05939 0.08682 -0.98481
vertex 0.11698 -0.07139 -0.93969
vertex 0.05939 -0.08682 -0.93969
endloop
endfacet
facet normal 0.06719436340066275 -0.2509276099406409 -0.9656708818726272
outer loop
vertex 0.05939 0.08682 -0.98481
vertex 0.05939 -0.08682 -0.93969
vertex 0.03015 0.07899 -0.98481
endloop
endfacet
facet normal 0.2587812343030632 -0.0226580639564897 -0.9656701739778064
outer loop
vertex 0.34202 0.25 -0.93969
vertex 0.33682 0.19061 -0.93969
vertex 0.17101 0.21985 -0.98481
endloop
endfacet
facet normal 0.2587814578451109 -0.022659470935690602 -0.9656700810589887
outer loop
vertex 0.34202 0.25 -0.93969
vertex 0.17101 0.21985 -0.98481
vertex 0.17365 0.25 -0.98481
endloop
endfacet
facet normal 0.2587814578451109 0.022659470935690602 -0.9656700810589887
outer loop
vertex 0.34202 0.25 -0.93969
vertex 0.17365 0.25 -0.98481
vertex 0.17101 0.28015 -0.98481
endloop
endfacet
facet normal 0.25878123430306355 0.022658063956489727 -0.9656701739778063
outer loop
vertex 0.34202 0.25 -0.93969
vertex 0.17101 0.28015 -0.98481
vertex 0.33682 0.30939 -0.93969
endloop
endfacet
facet normal 0.4222912820218289 0.03697448503979552 -0.9057057803638012
outer loop
vertex 0.34202 0.25 -0.93969
vertex 0.33682 0.30939 -0.93969
vertex 0.4924 0.33682 -0.86603
endloop
endfacet
facet normal 0.4222951019564979 0.0369666295193436 -0.9057043199441696
outer loop
vertex 0.34202 0.25 -0.93969
vertex 0.4924 0.33682 -0.86603
vertex 0.5 0.25 -0.86603
endloop
endfacet
facet normal 0.4222951019564977 -0.03696662951934358 -0.9057043199441696
outer loop
vertex 0.34202 0.25 -0.93969
vertex 0.5 0.25 -0.86603
vertex 0.4924 0.16318 -0.86603
endloop
endfacet
facet normal 0.4222912820218291 -0.036974485039795536 -0.905705780363801
outer loop
vertex 0.34202 0.25 -0.93969
vertex 0.4924 0.16318 -0.86603
vertex 0.33682 0.19061 -0.93969
endloop
endfacet
facet normal 0.47106246458052237 0.32985589864659237 -0.8181046635922405
outer loop
vertex 0.43301 0.5 -0.86603
vertex 0.38302 0.57139 -0.86603
vertex 0.4924 0.66318 -0.76604
endloop
endfacet
facet normal 0.4710820181278577 0.3298446596042871 -0.8180979359020022
outer loop
vertex 0.43301 0.5 -0.86603
vertex 0.4924 0.66318 -0.76604
vertex 0.55667 0.57139 -0.76604
endloop
endfacet
facet normal 0.5211945833061482 0.24304277643831207 -0.8180992697426686
outer loop
vertex 0.43301 0.5 -0.86603
vertex 0.55667 0.57139 -0.76604
vertex 0.60402 0.46985 -0.76604
endloop
endfacet
facet normal 0.5211946515905275 0.24307900955304382 -0.8180884611508341
outer loop
vertex 0.43301 0.5 -0.86603
vertex 0.60402 0.46985 -0.76604
vertex 0.46985 0.42101 -0.86603
endloop
endfacet
facet normal 0.40663355584477834 0.40663355584477834 -0.8181065349464354
outer loop
vertex 0.32139 0.63302 -0.86603
vertex 0.41318 0.7424 -0.76604
vertex 0.4924 0.66318 -0.76604
endloop
endfacet
facet normal 0.40663355584477745 0.4066335558447784 -0.8181065349464358
outer loop
vertex 0.32139 0.63302 -0.86603
vertex 0.4924 0.66318 -0.76604
vertex 0.38302 0.57139 -0.86603
endloop
endfacet
facet normal 0.3298398563711184 0.47107515818118795 -0.8181038225638899
outer loop
vertex 0.32139 0.80667 -0.76604
vertex 0.41318 0.7424 -0.76604
vertex 0.32139 0.63302 -0.86603
endloop
endfacet
facet normal 0.32986207458397426 0.47107128434786616 -0.8180970949795682
outer loop
vertex 0.32139 0.80667 -0.76604
vertex 0.32139 0.63302 -0.86603
vertex 0.25 0.68301 -0.86603
endloop
endfacet
facet normal 0.29939915819583734 0.6420483743021204 -0.7057861072078626
outer loop
vertex 0.32139 0.80667 -0.76604
vertex 0.21985 0.85402 -0.76604
vertex 0.262 0.96985 -0.64279
endloop
endfacet
facet normal 0.2994319785109377 0.6420492211090308 -0.705771413361516
outer loop
vertex 0.32139 0.80667 -0.76604
vertex 0.262 0.96985 -0.64279
vertex 0.38302 0.91341 -0.64279
endloop
endfacet
facet normal 0.40634903793295585 0.5803167224064063 -0.7057711818050147
outer loop
vertex 0.32139 0.80667 -0.76604
vertex 0.38302 0.91341 -0.64279
vertex 0.4924 0.83682 -0.64279
endloop
endfacet
facet normal 0.4063403620264532 0.5803326875744218 -0.7057630494159207
outer loop
vertex 0.32139 0.80667 -0.76604
vertex 0.4924 0.83682 -0.64279
vertex 0.41318 0.7424 -0.76604
endloop
endfacet
facet normal 0.6412858852161251 0.6412858852161261 -0.4213132170311539
outer loop
vertex 0.55667 0.91341 -0.5
vertex 0.60402 0.96985 -0.34202
vertex 0.71985 0.85402 -0.34202
endloop
endfacet
facet normal 0.6412858852161264 0.6412858852161254 -0.42131321703115326
outer loop
vertex 0.55667 0.91341 -0.5
vertex 0.71985 0.85402 -0.34202
vertex 0.66341 0.80667 -0.5
endloop
endfacet
facet normal 0.5799513860376767 0.5799513860376778 -0.5721125585633949
outer loop
vertex 0.55667 0.91341 -0.5
vertex 0.66341 0.80667 -0.5
vertex 0.58682 0.7424 -0.64279
endloop
endfacet
facet normal 0.5799513860376767 0.5799513860376767 -0.572112558563396
outer loop
vertex 0.55667 0.91341 -0.5
vertex 0.58682 0.7424 -0.64279
vertex 0.4924 0.83682 -0.64279
endloop
endfacet
facet normal 0.2347192365751813 0.8760368333092642 -0.42126754760726665
outer loop
vertex 0.32139 1.13302 -0.34202
vertex 0.2962 1.0638 -0.5
vertex 0.15038 1.10287 -0.5
endloop
endfacet
facet normal 0.23476706340232065 0.8760022901151221 -0.42131272667047687
outer loop
vertex 0.32139 1.13302 -0.34202
vertex 0.15038 1.10287 -0.5
vertex 0.16318 1.17542 -0.34202
endloop
endfacet
facet normal 0.2501065030558458 0.933239383218523 -0.2578972484131754
outer loop
vertex 0.32139 1.13302 -0.34202
vertex 0.16318 1.17542 -0.34202
vertex 0.17101 1.21985 -0.17365
endloop
endfacet
facet normal 0.250068494336843 0.9332400865629477 -0.25793155869743156
outer loop
vertex 0.32139 1.13302 -0.34202
vertex 0.17101 1.21985 -0.17365
vertex 0.33682 1.17542 -0.17365
endloop
endfacet
facet normal 0.4083270543959382 0.8756378101022773 -0.25792914175723697
outer loop
vertex 0.32139 1.13302 -0.34202
vertex 0.33682 1.17542 -0.17365
vertex 0.4924 1.10287 -0.17365
endloop
endfacet
facet normal 0.40828505065322657 0.8756717512276525 -0.25788040157210174
outer loop
vertex 0.32139 1.13302 -0.34202
vertex 0.4924 1.10287 -0.17365
vertex 0.46985 1.0638 -0.34202
endloop
endfacet
facet normal 0.10984049805403161 0.23538475481421114 -0.9656754538602997
outer loop
vertex 0.17101 0.5462 -0.93969
vertex 0.08682 0.40038 -0.98481
vertex 0.05939 0.41318 -0.98481
endloop
endfacet
facet normal 0.10976877068948392 0.23544290116526512 -0.965669434782008
outer loop
vertex 0.17101 0.5462 -0.93969
vertex 0.05939 0.41318 -0.98481
vertex 0.11698 0.57139 -0.93969
endloop
endfacet
facet normal 0.24315629837888136 0.3472480124278519 -0.9057007410969623
outer loop
vertex 0.17101 0.5462 -0.93969
vertex 0.25 0.68301 -0.86603
vertex 0.32139 0.63302 -0.86603
endloop
endfacet
facet normal 0.24315759004601634 0.34724610227623837 -0.9057011266731281
outer loop
vertex 0.17101 0.5462 -0.93969
vertex 0.32139 0.63302 -0.86603
vertex 0.21985 0.512 -0.93969
endloop
endfacet
facet normal 0.1490005563597454 0.212783250661115 -0.9656718502900328
outer loop
vertex 0.17101 0.5462 -0.93969
vertex 0.21985 0.512 -0.93969
vertex 0.11162 0.38302 -0.98481
endloop
endfacet
facet normal 0.14895933453858679 0.21279904934083663 -0.9656747284947752
outer loop
vertex 0.17101 0.5462 -0.93969
vertex 0.11162 0.38302 -0.98481
vertex 0.08682 0.40038 -0.98481
endloop
endfacet
facet normal 0.1791800057970717 0.3841864456544751 -0.9057015515598625
outer loop
vertex 0.17101 0.71985 -0.86603
vertex 0.25 0.68301 -0.86603
vertex 0.17101 0.5462 -0.93969
endloop
endfacet
facet normal 0.1791183957902324 0.38419082669893934 -0.905711879666994
outer loop
vertex 0.17101 0.71985 -0.86603
vertex 0.17101 0.5462 -0.93969
vertex 0.11698 0.57139 -0.93969
endloop
endfacet
facet normal 0.14878520211243101 0.5554867479310663 -0.8181060056651162
outer loop
vertex 0.17101 0.71985 -0.86603
vertex 0.08682 0.7424 -0.86603
vertex 0.11162 0.88302 -0.76604
endloop
endfacet
facet normal 0.14884432619121185 0.5554972904715451 -0.8180880923466959
outer loop
vertex 0.17101 0.71985 -0.86603
vertex 0.11162 0.88302 -0.76604
vertex 0.21985 0.85402 -0.76604
endloop
endfacet
facet normal 0.2430484628159435 0.5212067774937882 -0.8180898115838797
outer loop
vertex 0.17101 0.71985 -0.86603
vertex 0.21985 0.85402 -0.76604
vertex 0.32139 0.80667 -0.76604
endloop
endfacet
facet normal 0.2430716991332306 0.5211789770503248 -0.8181006190935571
outer loop
vertex 0.17101 0.71985 -0.86603
vertex 0.32139 0.80667 -0.76604
vertex 0.25 0.68301 -0.86603
endloop
endfacet
facet normal -0.05016358081626481 0.07166225830894667 -0.9961667209326718
outer loop
vertex -0.11162 0.38302 -0.98481
vertex -0.08682 0.40038 -0.98481
vertex 0 0.25 -1
endloop
endfacet
facet normal -0.061853229922810525 0.061853229922808256 -0.996166831357194
outer loop
vertex -0.11162 0.38302 -0.98481
vertex 0 0.25 -1
vertex -0.13302 0.36162 -0.98481
endloop
endfacet
facet normal -0.18368160766947128 0.18368160766947128 -0.9656718562782686
outer loop
vertex -0.11162 0.38302 -0.98481
vertex -0.13302 0.36162 -0.98481
vertex -0.262 0.46985 -0.93969
endloop
endfacet
facet normal -0.18368160766947383 0.1836816076694718 -0.9656718562782678
outer loop
vertex -0.11162 0.38302 -0.98481
vertex -0.262 0.46985 -0.93969
vertex -0.21985 0.512 -0.93969
endloop
endfacet
facet normal -0.34724610227623665 0.2431575900460147 -0.9057011266731291
outer loop
vertex -0.38302 0.57139 -0.86603
vertex -0.262 0.46985 -0.93969
vertex -0.2962 0.42101 -0.93969
endloop
endfacet
facet normal -0.34724801242785264 0.2431562983788811 -0.9057007410969621
outer loop
vertex -0.38302 0.57139 -0.86603
vertex -0.2962 0.42101 -0.93969
vertex -0.43301 0.5 -0.86603
endloop
endfacet
facet normal -0.471071284347867 0.3298620745839739 -0.8180970949795677
outer loop
vertex -0.38302 0.57139 -0.86603
vertex -0.43301 0.5 -0.86603
vertex -0.55667 0.57139 -0.76604
endloop
endfacet
facet normal -0.47107515818118784 0.32983985637111757 -0.8181038225638905
outer loop
vertex -0.38302 0.57139 -0.86603
vertex -0.55667 0.57139 -0.76604
vertex -0.4924 0.66318 -0.76604
endloop
endfacet
facet normal 0.3841864456544748 0.1791800057970734 -0.9057015515598624
outer loop
vertex 0.2962 0.42101 -0.93969
vertex 0.43301 0.5 -0.86603
vertex 0.46985 0.42101 -0.86603
endloop
endfacet
facet normal 0.3841908266989409 0.1791183957902325 -0.9057118796669932
outer loop
vertex 0.2962 0.42101 -0.93969
vertex 0.46985 0.42101 -0.86603
vertex 0.32139 0.36698 -0.93969
endloop
endfacet
facet normal 0.2354429011652644 0.10976877068948768 -0.9656694347820076
outer loop
vertex 0.2962 0.42101 -0.93969
vertex 0.32139 0.36698 -0.93969
vertex 0.16318 0.30939 -0.98481
endloop
endfacet
facet normal 0.2353847548142128 0.1098404980540245 -0.9656754538603002
outer loop
vertex 0.2962 0.42101 -0.93969
vertex 0.16318 0.30939 -0.98481
vertex 0.15038 0.33682 -0.98481
endloop
endfacet
facet normal 0.38331052619226347 0.8219547506013086 -0.421264084006874
outer loop
vertex 0.43301 1 -0.5
vertex 0.2962 1.0638 -0.5
vertex 0.32139 1.13302 -0.34202
endloop
endfacet
facet normal 0.3832416458789853 0.8219597623113879 -0.4213169709434609
outer loop
vertex 0.43301 1 -0.5
vertex 0.32139 1.13302 -0.34202
vertex 0.46985 1.0638 -0.34202
endloop
endfacet
facet normal 0.5201947146199797 0.7428900996334509 -0.4213214434942036
outer loop
vertex 0.43301 1 -0.5
vertex 0.46985 1.0638 -0.34202
vertex 0.60402 0.96985 -0.34202
endloop
endfacet
facet normal 0.5201930244263235 0.7428925903748599 -0.42131913854502856
outer loop
vertex 0.43301 1 -0.5
vertex 0.60402 0.96985 -0.34202
vertex 0.55667 0.91341 -0.5
endloop
endfacet
facet normal 0.4704421580952258 0.6718429064563525 -0.5721112522324547
outer loop
vertex 0.43301 1 -0.5
vertex 0.55667 0.91341 -0.5
vertex 0.4924 0.83682 -0.64279
endloop
endfacet
facet normal 0.4704379643059718 0.6718436419348112 -0.5721138370389433
outer loop
vertex 0.43301 1 -0.5
vertex 0.4924 0.83682 -0.64279
vertex 0.38302 0.91341 -0.64279
endloop
endfacet
facet normal 0.3466571207057844 0.7433105022646017 -0.5721174161718213
outer loop
vertex 0.43301 1 -0.5
vertex 0.38302 0.91341 -0.64279
vertex 0.262 0.96985 -0.64279
endloop
endfacet
facet normal 0.34664326744403745 0.7433270441852463 -0.5721043178639247
outer loop
vertex 0.43301 1 -0.5
vertex 0.262 0.96985 -0.64279
vertex 0.2962 1.0638 -0.5
endloop
endfacet
facet normal 0.007630125876547293 0.08713950574918611 -0.9961668975211411
outer loop
vertex 0 0.42365 -0.98481
vertex 0.03015 0.42101 -0.98481
vertex 0 0.25 -1
endloop
endfacet
facet normal -0.007630125876547293 0.08713950574918611 -0.9961668975211411
outer loop
vertex 0 0.42365 -0.98481
vertex 0 0.25 -1
vertex -0.03015 0.42101 -0.98481
endloop
endfacet
facet normal 0.06723048409288286 0.25092699798503626 -0.9656685268200752
outer loop
vertex 0.05939 0.58682 -0.93969
vertex 0.11698 0.57139 -0.93969
vertex 0.05939 0.41318 -0.98481
endloop
endfacet
facet normal 0.06719436340065814 0.2509276099406409 -0.9656708818726274
outer loop
vertex 0.05939 0.58682 -0.93969
vertex 0.05939 0.41318 -0.98481
vertex 0.03015 0.42101 -0.98481
endloop
endfacet
facet normal 0.022659430975663777 0.2587810014834284 -0.9656702042929008
outer loop
vertex 0.05939 0.58682 -0.93969
vertex 0.03015 0.42101 -0.98481
vertex 0 0.42365 -0.98481
endloop
endfacet
facet normal 0.022658084241419466 0.25878146598040835 -0.9656701114166989
outer loop
vertex 0.05939 0.58682 -0.93969
vertex 0 0.42365 -0.98481
vertex 0 0.59202 -0.93969
endloop
endfacet
facet normal 0.03697480830557452 0.422294974090008 -0.9057040457064799
outer loop
vertex 0.05939 0.58682 -0.93969
vertex 0 0.59202 -0.93969
vertex 0 0.75 -0.86603
endloop
endfacet
facet normal 0.03696640843472303 0.4222925763556261 -0.9057055065540701
outer loop
vertex 0.05939 0.58682 -0.93969
vertex 0 0.75 -0.86603
vertex 0.08682 0.7424 -0.86603
endloop
endfacet
facet normal 0.10967602183985527 0.40947336047438015 -0.9057056570957265
outer loop
vertex 0.05939 0.58682 -0.93969
vertex 0.08682 0.7424 -0.86603
vertex 0.17101 0.71985 -0.86603
endloop
endfacet
facet normal 0.10970411247026322 0.40945300305654864 -0.9057114584651591
outer loop
vertex 0.05939 0.58682 -0.93969
vertex 0.17101 0.71985 -0.86603
vertex 0.11698 0.57139 -0.93969
endloop
endfacet
facet normal -0.2997566428030397 0.2997566428030417 -0.905699679911007
outer loop
vertex -0.32139 0.63302 -0.86603
vertex -0.21985 0.512 -0.93969
vertex -0.262 0.46985 -0.93969
endloop
endfacet
facet normal -0.2997566428030416 0.29975664280304115 -0.9056996799110066
outer loop
vertex -0.32139 0.63302 -0.86603
vertex -0.262 0.46985 -0.93969
vertex -0.38302 0.57139 -0.86603
endloop
endfacet
facet normal -0.40663355584477745 0.4066335558447784 -0.8181065349464358
outer loop
vertex -0.32139 0.63302 -0.86603
vertex -0.38302 0.57139 -0.86603
vertex -0.4924 0.66318 -0.76604
endloop
endfacet
facet normal -0.40663355584477834 0.40663355584477834 -0.8181065349464354
outer loop
vertex -0.32139 0.63302 -0.86603
vertex -0.4924 0.66318 -0.76604
vertex -0.41318 0.7424 -0.76604
endloop
endfacet
facet normal -0.3298398563711184 0.47107515818118795 -0.8181038225638899
outer loop
vertex -0.32139 0.63302 -0.86603
vertex -0.41318 0.7424 -0.76604
vertex -0.32139 0.80667 -0.76604
endloop
endfacet
facet normal -0.3298620745839734 0.47107128434786627 -0.8180970949795683
outer loop
vertex -0.32139 0.63302 -0.86603
vertex -0.32139 0.80667 -0.76604
vertex -0.25 0.68301 -0.86603
endloop
endfacet
facet normal 0.2997566428030407 0.2997566428030414 -0.9056996799110066
outer loop
vertex 0.262 0.46985 -0.93969
vertex 0.21985 0.512 -0.93969
vertex 0.32139 0.63302 -0.86603
endloop
endfacet
facet normal 0.2997566428030413 0.2997566428030409 -0.9056996799110067
outer loop
vertex 0.262 0.46985 -0.93969
vertex 0.32139 0.63302 -0.86603
vertex 0.38302 0.57139 -0.86603
endloop
endfacet
facet normal 0.3472474641528051 0.24315591445578869 -0.9057010543797636
outer loop
vertex 0.262 0.46985 -0.93969
vertex 0.38302 0.57139 -0.86603
vertex 0.43301 0.5 -0.86603
endloop
endfacet
facet normal 0.34724690369059275 0.24315815123297047 -0.9057006687456183
outer loop
vertex 0.262 0.46985 -0.93969
vertex 0.43301 0.5 -0.86603
vertex 0.2962 0.42101 -0.93969
endloop
endfacet
facet normal 0.21277734618982067 0.14899642177911226 -0.96567378925051
outer loop
vertex 0.262 0.46985 -0.93969
vertex 0.2962 0.42101 -0.93969
vertex 0.15038 0.33682 -0.98481
endloop
endfacet
facet normal 0.21281068002508002 0.14896747601755655 -0.9656709095526392
outer loop
vertex 0.262 0.46985 -0.93969
vertex 0.15038 0.33682 -0.98481
vertex 0.13302 0.36162 -0.98481
endloop
endfacet
facet normal 0.18368160766947 0.1836816076694713 -0.9656718562782688
outer loop
vertex 0.262 0.46985 -0.93969
vertex 0.13302 0.36162 -0.98481
vertex 0.11162 0.38302 -0.98481
endloop
endfacet
facet normal 0.18368160766947242 0.18368160766947175 -0.9656718562782682
outer loop
vertex 0.262 0.46985 -0.93969
vertex 0.11162 0.38302 -0.98481
vertex 0.21985 0.512 -0.93969
endloop
endfacet
facet normal -0.022658084241419466 0.25878146598040835 -0.9656701114166989
outer loop
vertex -0.05939 0.58682 -0.93969
vertex 0 0.59202 -0.93969
vertex 0 0.42365 -0.98481
endloop
endfacet
facet normal -0.022659430975663777 0.2587810014834284 -0.9656702042929008
outer loop
vertex -0.05939 0.58682 -0.93969
vertex 0 0.42365 -0.98481
vertex -0.03015 0.42101 -0.98481
endloop
endfacet
facet normal -0.10970411247026322 0.40945300305654864 -0.9057114584651591
outer loop
vertex -0.05939 0.58682 -0.93969
vertex -0.11698 0.57139 -0.93969
vertex -0.17101 0.71985 -0.86603
endloop
endfacet
facet normal -0.10967602183985527 0.40947336047438015 -0.9057056570957265
outer loop
vertex -0.05939 0.58682 -0.93969
vertex -0.17101 0.71985 -0.86603
vertex -0.08682 0.7424 -0.86603
endloop
endfacet
facet normal -0.03696640843472303 0.4222925763556261 -0.9057055065540701
outer loop
vertex -0.05939 0.58682 -0.93969
vertex -0.08682 0.7424 -0.86603
vertex 0 0.75 -0.86603
endloop
endfacet
facet normal -0.03697480830557452 0.422294974090008 -0.9057040457064799
outer loop
vertex -0.05939 0.58682 -0.93969
vertex 0 0.75 -0.86603
vertex 0 0.59202 -0.93969
endloop
endfacet
facet normal -0.17918000579707258 0.38418644565447496 -0.9057015515598624
outer loop
vertex -0.17101 0.5462 -0.93969
vertex -0.25 0.68301 -0.86603
vertex -0.17101 0.71985 -0.86603
endloop
endfacet
facet normal -0.1791183957902343 0.38419082669893917 -0.9057118796669936
outer loop
vertex -0.17101 0.5462 -0.93969
vertex -0.17101 0.71985 -0.86603
vertex -0.11698 0.57139 -0.93969
endloop
endfacet
facet normal -0.14895933453858679 0.21279904934083663 -0.9656747284947752
outer loop
vertex -0.17101 0.5462 -0.93969
vertex -0.08682 0.40038 -0.98481
vertex -0.11162 0.38302 -0.98481
endloop
endfacet
facet normal -0.1490005563597454 0.212783250661115 -0.9656718502900328
outer loop
vertex -0.17101 0.5462 -0.93969
vertex -0.11162 0.38302 -0.98481
vertex -0.21985 0.512 -0.93969
endloop
endfacet
facet normal -0.24315759004601634 0.34724610227623837 -0.9057011266731281
outer loop
vertex -0.17101 0.5462 -0.93969
vertex -0.21985 0.512 -0.93969
vertex -0.32139 0.63302 -0.86603
endloop
endfacet
facet normal -0.24315629837888136 0.3472480124278519 -0.9057007410969623
outer loop
vertex -0.17101 0.5462 -0.93969
vertex -0.32139 0.63302 -0.86603
vertex -0.25 0.68301 -0.86603
endloop
endfacet
facet normal -0.10984049805403356 0.23538475481421112 -0.9656754538602996
outer loop
vertex -0.05939 0.41318 -0.98481
vertex -0.08682 0.40038 -0.98481
vertex -0.17101 0.5462 -0.93969
endloop
endfacet
facet normal -0.1097687706894859 0.23544290116526506 -0.9656694347820077
outer loop
vertex -0.05939 0.41318 -0.98481
vertex -0.17101 0.5462 -0.93969
vertex -0.11698 0.57139 -0.93969
endloop
endfacet
facet normal -0.06723048409288153 0.2509269979850363 -0.9656685268200753
outer loop
vertex -0.05939 0.41318 -0.98481
vertex -0.11698 0.57139 -0.93969
vertex -0.05939 0.58682 -0.93969
endloop
endfacet
facet normal -0.06719436340066275 0.25092760994064084 -0.9656708818726272
outer loop
vertex -0.05939 0.41318 -0.98481
vertex -0.05939 0.58682 -0.93969
vertex -0.03015 0.42101 -0.98481
endloop
endfacet
facet normal -0.02262654621882685 0.08449555701641957 -0.9961669238891103
outer loop
vertex -0.05939 0.41318 -0.98481
vertex -0.03015 0.42101 -0.98481
vertex 0 0.25 -1
endloop
endfacet
facet normal -0.03698979991579972 0.07926798528832521 -0.9961668239860827
outer loop
vertex -0.05939 0.41318 -0.98481
vertex 0 0.25 -1
vertex -0.08682 0.40038 -0.98481
endloop
endfacet
endsolid JSxCAD
