solid JSxCAD
facet normal 0.08449555701641856 0.022626546218829244 -0.9961669238891103
outer loop
vertex 0.17101 0.28015 -2.23481
vertex 0 0.25 -2.25
vertex 0.16318 0.30939 -2.23481
endloop
endfacet
facet normal -0.07166225830895723 -0.05016358081626263 -0.9961667209326712
outer loop
vertex -0.13302 0.13838 -2.23481
vertex -0.15038 0.16318 -2.23481
vertex 0 0.25 -2.25
endloop
endfacet
facet normal -0.07926798528832249 -0.03698979991580602 -0.9961668239860826
outer loop
vertex -0.15038 0.16318 -2.23481
vertex -0.16318 0.19061 -2.23481
vertex 0 0.25 -2.25
endloop
endfacet
facet normal -0.25878146598040674 -0.022658084241423192 -0.9656701114166992
outer loop
vertex -0.33682 0.19061 -2.18969
vertex -0.34202 0.25 -2.18969
vertex -0.17365 0.25 -2.23481
endloop
endfacet
facet normal -0.25878100148343325 -0.02265943097566319 -0.9656702042928996
outer loop
vertex -0.17365 0.25 -2.23481
vertex -0.17101 0.21985 -2.23481
vertex -0.33682 0.19061 -2.18969
endloop
endfacet
facet normal 0.3298620745839685 0.47107128434786755 -0.8180970949795697
outer loop
vertex 0.32139 0.63302 -2.11603
vertex 0.25 0.68301 -2.11603
vertex 0.32139 0.80667 -2.01604
endloop
endfacet
facet normal 0.3298398563711221 0.4710751581811879 -0.8181038225638886
outer loop
vertex 0.32139 0.80667 -2.01604
vertex 0.41318 0.7424 -2.01604
vertex 0.32139 0.63302 -2.11603
endloop
endfacet
facet normal 0.24307900955304262 0.5211946515905282 -0.8180884611508341
outer loop
vertex 0.25 0.68301 -2.11603
vertex 0.17101 0.71985 -2.11603
vertex 0.21985 0.85402 -2.01604
endloop
endfacet
facet normal 0.2430427764383141 0.5211945833061487 -0.8180992697426674
outer loop
vertex 0.21985 0.85402 -2.01604
vertex 0.32139 0.80667 -2.01604
vertex 0.25 0.68301 -2.11603
endloop
endfacet
facet normal 0.14878520211243096 0.5554867479310668 -0.8181060056651158
outer loop
vertex 0.17101 0.71985 -2.11603
vertex 0.08682 0.7424 -2.11603
vertex 0.11162 0.88302 -2.01604
endloop
endfacet
facet normal 0.14884432619121157 0.5554972904715458 -0.8180880923466956
outer loop
vertex 0.11162 0.88302 -2.01604
vertex 0.21985 0.85402 -2.01604
vertex 0.17101 0.71985 -2.11603
endloop
endfacet
facet normal 0.05014871267932015 0.5728830572129533 -0.8181015275471297
outer loop
vertex 0.08682 0.7424 -2.11603
vertex 0 0.75 -2.11603
vertex 0 0.89279 -2.01604
endloop
endfacet
facet normal 0.050143790202495826 0.572881255107721 -0.8181030912118168
outer loop
vertex 0 0.89279 -2.01604
vertex 0.11162 0.88302 -2.01604
vertex 0.08682 0.7424 -2.11603
endloop
endfacet
facet normal -0.05014849446149366 0.5728805643613307 -0.8181032865600092
outer loop
vertex 0 0.75 -2.11603
vertex -0.08682 0.7424 -2.11603
vertex -0.11162 0.88302 -2.01604
endloop
endfacet
facet normal -0.050143959920279334 0.572883194094377 -0.8181017230196608
outer loop
vertex -0.11162 0.88302 -2.01604
vertex 0 0.89279 -2.01604
vertex 0 0.75 -2.11603
endloop
endfacet
facet normal -0.14879261998121834 0.5555144424043797 -0.8180858515579374
outer loop
vertex -0.08682 0.7424 -2.11603
vertex -0.17101 0.71985 -2.11603
vertex -0.21985 0.85402 -2.01604
endloop
endfacet
facet normal -0.14883855408527907 0.5554757485741296 -0.8181037694350355
outer loop
vertex -0.21985 0.85402 -2.01604
vertex -0.11162 0.88302 -2.01604
vertex -0.08682 0.7424 -2.11603
endloop
endfacet
facet normal -0.24307169913323573 0.5211789770503245 -0.8181006190935559
outer loop
vertex -0.17101 0.71985 -2.11603
vertex -0.25 0.68301 -2.11603
vertex -0.32139 0.80667 -2.01604
endloop
endfacet
facet normal -0.24304846281594072 0.521206777493789 -0.8180898115838799
outer loop
vertex -0.32139 0.80667 -2.01604
vertex -0.21985 0.85402 -2.01604
vertex -0.17101 0.71985 -2.11603
endloop
endfacet
facet normal -0.5803254706069664 0.40633530881261143 -0.7057718930199491
outer loop
vertex -0.4924 0.66318 -2.01604
vertex -0.55667 0.57139 -2.01604
vertex -0.66341 0.63302 -1.89279
endloop
endfacet
facet normal -0.5803227785788858 0.40635327858252623 -0.705763760508935
outer loop
vertex -0.66341 0.63302 -1.89279
vertex -0.58682 0.7424 -1.89279
vertex -0.4924 0.66318 -2.01604
endloop
endfacet
facet normal -0.6420628021360149 0.2994058861644723 -0.7057701279051952
outer loop
vertex -0.66341 0.63302 -1.89279
vertex -0.55667 0.57139 -2.01604
vertex -0.60402 0.46985 -2.01604
endloop
endfacet
facet normal -0.6420371161216202 0.2994263331176997 -0.7057848202943454
outer loop
vertex -0.60402 0.46985 -2.01604
vertex -0.71985 0.512 -1.89279
vertex -0.66341 0.63302 -1.89279
endloop
endfacet
facet normal -0.5211945833061491 0.24304277643831182 -0.8180992697426678
outer loop
vertex -0.60402 0.46985 -2.01604
vertex -0.55667 0.57139 -2.01604
vertex -0.43301 0.5 -2.11603
endloop
endfacet
facet normal -0.5211946515905281 0.2430790095530437 -0.8180884611508338
outer loop
vertex -0.43301 0.5 -2.11603
vertex -0.46985 0.42101 -2.11603
vertex -0.60402 0.46985 -2.01604
endloop
endfacet
facet normal -0.4710751581811878 0.3298398563711183 -0.8181038225638904
outer loop
vertex -0.55667 0.57139 -2.01604
vertex -0.4924 0.66318 -2.01604
vertex -0.38302 0.57139 -2.11603
endloop
endfacet
facet normal -0.47107128434786766 0.32986207458397376 -0.8180970949795674
outer loop
vertex -0.38302 0.57139 -2.11603
vertex -0.43301 0.5 -2.11603
vertex -0.55667 0.57139 -2.01604
endloop
endfacet
facet normal -0.40663355584477817 0.40663355584477884 -0.818106534946435
outer loop
vertex -0.4924 0.66318 -2.01604
vertex -0.41318 0.7424 -2.01604
vertex -0.32139 0.63302 -2.11603
endloop
endfacet
facet normal -0.40663355584477745 0.4066335558447784 -0.8181065349464358
outer loop
vertex -0.32139 0.63302 -2.11603
vertex -0.38302 0.57139 -2.11603
vertex -0.4924 0.66318 -2.01604
endloop
endfacet
facet normal -0.3298398563711221 0.4710751581811879 -0.8181038225638886
outer loop
vertex -0.32139 0.63302 -2.11603
vertex -0.41318 0.7424 -2.01604
vertex -0.32139 0.80667 -2.01604
endloop
endfacet
facet normal -0.3298620745839685 0.47107128434786755 -0.8180970949795697
outer loop
vertex -0.32139 0.80667 -2.01604
vertex -0.25 0.68301 -2.11603
vertex -0.32139 0.63302 -2.11603
endloop
endfacet
facet normal -0.40634036202644985 0.5803326875744225 -0.7057630494159223
outer loop
vertex -0.32139 0.80667 -2.01604
vertex -0.41318 0.7424 -2.01604
vertex -0.4924 0.83682 -1.89279
endloop
endfacet
facet normal -0.4063490379329553 0.5803167224064057 -0.7057711818050154
outer loop
vertex -0.4924 0.83682 -1.89279
vertex -0.38302 0.91341 -1.89279
vertex -0.32139 0.80667 -2.01604
endloop
endfacet
facet normal -0.5009501458278877 0.5009501458278852 -0.7057605137651429
outer loop
vertex -0.4924 0.66318 -2.01604
vertex -0.58682 0.7424 -1.89279
vertex -0.4924 0.83682 -1.89279
endloop
endfacet
facet normal -0.5009501458278829 0.5009501458278858 -0.705760513765146
outer loop
vertex -0.4924 0.83682 -1.89279
vertex -0.41318 0.7424 -2.01604
vertex -0.4924 0.66318 -2.01604
endloop
endfacet
facet normal -0.5799513860376776 0.5799513860376776 -0.5721125585633945
outer loop
vertex -0.4924 0.83682 -1.89279
vertex -0.58682 0.7424 -1.89279
vertex -0.66341 0.80667 -1.75
endloop
endfacet
facet normal -0.5799513860376753 0.5799513860376774 -0.5721125585633966
outer loop
vertex -0.66341 0.80667 -1.75
vertex -0.55667 0.91341 -1.75
vertex -0.4924 0.83682 -1.89279
endloop
endfacet
facet normal -0.6718436419348112 0.4704379643059725 -0.5721138370389427
outer loop
vertex -0.58682 0.7424 -1.89279
vertex -0.66341 0.63302 -1.89279
vertex -0.75 0.68301 -1.75
endloop
endfacet
facet normal -0.6718429064563521 0.47044215809522427 -0.5721112522324564
outer loop
vertex -0.75 0.68301 -1.75
vertex -0.66341 0.80667 -1.75
vertex -0.58682 0.7424 -1.89279
endloop
endfacet
facet normal -0.7433192899322123 0.34666121900325547 -0.5721035155055847
outer loop
vertex -0.66341 0.63302 -1.89279
vertex -0.71985 0.512 -1.89279
vertex -0.8138 0.5462 -1.75
endloop
endfacet
facet normal -0.7433192705782429 0.3466396422987496 -0.572116614313921
outer loop
vertex -0.8138 0.5462 -1.75
vertex -0.75 0.68301 -1.75
vertex -0.66341 0.63302 -1.89279
endloop
endfacet
facet normal -0.7922355511684107 0.21227834275376217 -0.5721020334368694
outer loop
vertex -0.8138 0.5462 -1.75
vertex -0.71985 0.512 -1.89279
vertex -0.75441 0.38302 -1.89279
endloop
endfacet
facet normal -0.7922439500232836 0.2122683522658742 -0.5720941096339269
outer loop
vertex -0.75441 0.38302 -1.89279
vertex -0.85287 0.40038 -1.75
vertex -0.8138 0.5462 -1.75
endloop
endfacet
facet normal -0.6842820423103955 0.1833519285503241 -0.7057904482694498
outer loop
vertex -0.71985 0.512 -1.89279
vertex -0.60402 0.46985 -2.01604
vertex -0.63302 0.36162 -2.01604
endloop
endfacet
facet normal -0.6842817339971357 0.18335227730610285 -0.7057906565863133
outer loop
vertex -0.63302 0.36162 -2.01604
vertex -0.75441 0.38302 -1.89279
vertex -0.71985 0.512 -1.89279
endloop
endfacet
facet normal -0.5555144424043797 0.1487926199812189 -0.8180858515579374
outer loop
vertex -0.60402 0.46985 -2.01604
vertex -0.46985 0.42101 -2.11603
vertex -0.4924 0.33682 -2.11603
endloop
endfacet
facet normal -0.5554757485741306 0.14883855408527988 -0.8181037694350347
outer loop
vertex -0.4924 0.33682 -2.11603
vertex -0.63302 0.36162 -2.01604
vertex -0.60402 0.46985 -2.01604
endloop
endfacet
facet normal -0.40946363420675386 0.1096734166927459 -0.9057103697833746
outer loop
vertex -0.4924 0.33682 -2.11603
vertex -0.46985 0.42101 -2.11603
vertex -0.32139 0.36698 -2.18969
endloop
endfacet
facet normal -0.40946722116619855 0.10970792190648535 -0.9057045691953817
outer loop
vertex -0.32139 0.36698 -2.18969
vertex -0.33682 0.30939 -2.18969
vertex -0.4924 0.33682 -2.11603
endloop
endfacet
facet normal -0.3841864456544776 0.17918000579707394 -0.905701551559861
outer loop
vertex -0.46985 0.42101 -2.11603
vertex -0.43301 0.5 -2.11603
vertex -0.2962 0.42101 -2.18969
endloop
endfacet
facet normal -0.38419082669894083 0.17911839579023314 -0.9057118796669931
outer loop
vertex -0.2962 0.42101 -2.18969
vertex -0.32139 0.36698 -2.18969
vertex -0.46985 0.42101 -2.11603
endloop
endfacet
facet normal -0.3472474641528066 0.24315591445578985 -0.9057010543797628
outer loop
vertex -0.43301 0.5 -2.11603
vertex -0.38302 0.57139 -2.11603
vertex -0.262 0.46985 -2.18969
endloop
endfacet
facet normal -0.3472469036905951 0.24315815123297022 -0.9057006687456174
outer loop
vertex -0.262 0.46985 -2.18969
vertex -0.2962 0.42101 -2.18969
vertex -0.43301 0.5 -2.11603
endloop
endfacet
facet normal -0.29975664280304654 0.29975664280304193 -0.9056996799110049
outer loop
vertex -0.38302 0.57139 -2.11603
vertex -0.32139 0.63302 -2.11603
vertex -0.21985 0.512 -2.18969
endloop
endfacet
facet normal -0.2997566428030408 0.2997566428030408 -0.905699679911007
outer loop
vertex -0.21985 0.512 -2.18969
vertex -0.262 0.46985 -2.18969
vertex -0.38302 0.57139 -2.11603
endloop
endfacet
facet normal -0.24315629837888045 0.3472480124278526 -0.9057007410969623
outer loop
vertex -0.32139 0.63302 -2.11603
vertex -0.25 0.68301 -2.11603
vertex -0.17101 0.5462 -2.18969
endloop
endfacet
facet normal -0.24315759004601112 0.3472461022762406 -0.9057011266731286
outer loop
vertex -0.17101 0.5462 -2.18969
vertex -0.21985 0.512 -2.18969
vertex -0.32139 0.63302 -2.11603
endloop
endfacet
facet normal -0.1791724291448643 0.3841702002755865 -0.9057099413468664
outer loop
vertex -0.25 0.68301 -2.11603
vertex -0.17101 0.71985 -2.11603
vertex -0.11698 0.57139 -2.18969
endloop
endfacet
facet normal -0.17912947006540236 0.3842145798981314 -0.9056996133088446
outer loop
vertex -0.11698 0.57139 -2.18969
vertex -0.17101 0.5462 -2.18969
vertex -0.25 0.68301 -2.11603
endloop
endfacet
facet normal -0.1096760218398521 0.4094733604743816 -0.9057056570957264
outer loop
vertex -0.17101 0.71985 -2.11603
vertex -0.08682 0.7424 -2.11603
vertex -0.05939 0.58682 -2.18969
endloop
endfacet
facet normal -0.1097041124702632 0.4094530030565495 -0.9057114584651589
outer loop
vertex -0.05939 0.58682 -2.18969
vertex -0.11698 0.57139 -2.18969
vertex -0.17101 0.71985 -2.11603
endloop
endfacet
facet normal -0.03696662951934265 0.4222951019564993 -0.9057043199441689
outer loop
vertex -0.08682 0.7424 -2.11603
vertex 0 0.75 -2.11603
vertex 0 0.59202 -2.18969
endloop
endfacet
facet normal -0.03697448503979687 0.42229128202182964 -0.9057057803638009
outer loop
vertex 0 0.59202 -2.18969
vertex -0.05939 0.58682 -2.18969
vertex -0.08682 0.7424 -2.11603
endloop
endfacet
facet normal 0.036966408434716276 0.42229257635562756 -0.9057055065540699
outer loop
vertex 0 0.75 -2.11603
vertex 0.08682 0.7424 -2.11603
vertex 0.05939 0.58682 -2.18969
endloop
endfacet
facet normal 0.0369748083055852 0.4222949740900089 -0.905704045706479
outer loop
vertex 0.05939 0.58682 -2.18969
vertex 0 0.59202 -2.18969
vertex 0 0.75 -2.11603
endloop
endfacet
facet normal 0.10967341669275138 0.40946363420675264 -0.9057103697833744
outer loop
vertex 0.08682 0.7424 -2.11603
vertex 0.17101 0.71985 -2.11603
vertex 0.11698 0.57139 -2.18969
endloop
endfacet
facet normal 0.10970792190648278 0.409467221166199 -0.9057045691953819
outer loop
vertex 0.11698 0.57139 -2.18969
vertex 0.05939 0.58682 -2.18969
vertex 0.08682 0.7424 -2.11603
endloop
endfacet
facet normal 0.1791800057970769 0.38418644565447563 -0.9057015515598612
outer loop
vertex 0.17101 0.71985 -2.11603
vertex 0.25 0.68301 -2.11603
vertex 0.17101 0.5462 -2.18969
endloop
endfacet
facet normal 0.17911839579022903 0.38419082669894067 -0.905711879666994
outer loop
vertex 0.17101 0.5462 -2.18969
vertex 0.11698 0.57139 -2.18969
vertex 0.17101 0.71985 -2.11603
endloop
endfacet
facet normal 0.24315591445578852 0.34724746415280716 -0.9057010543797629
outer loop
vertex 0.25 0.68301 -2.11603
vertex 0.32139 0.63302 -2.11603
vertex 0.21985 0.512 -2.18969
endloop
endfacet
facet normal 0.24315815123296602 0.3472469036905934 -0.9057006687456193
outer loop
vertex 0.21985 0.512 -2.18969
vertex 0.17101 0.5462 -2.18969
vertex 0.25 0.68301 -2.11603
endloop
endfacet
facet normal 0.29975664280304654 0.29975664280304193 -0.9056996799110049
outer loop
vertex 0.21985 0.512 -2.18969
vertex 0.32139 0.63302 -2.11603
vertex 0.38302 0.57139 -2.11603
endloop
endfacet
facet normal 0.29975664280304065 0.29975664280304065 -0.9056996799110071
outer loop
vertex 0.38302 0.57139 -2.11603
vertex 0.262 0.46985 -2.18969
vertex 0.21985 0.512 -2.18969
endloop
endfacet
facet normal 0.40663355584477817 0.40663355584477884 -0.818106534946435
outer loop
vertex 0.32139 0.63302 -2.11603
vertex 0.41318 0.7424 -2.01604
vertex 0.4924 0.66318 -2.01604
endloop
endfacet
facet normal 0.40663355584477745 0.4066335558447784 -0.8181065349464358
outer loop
vertex 0.4924 0.66318 -2.01604
vertex 0.38302 0.57139 -2.11603
vertex 0.32139 0.63302 -2.11603
endloop
endfacet
facet normal 0.5009501458278829 0.5009501458278858 -0.705760513765146
outer loop
vertex 0.4924 0.66318 -2.01604
vertex 0.41318 0.7424 -2.01604
vertex 0.4924 0.83682 -1.89279
endloop
endfacet
facet normal 0.5009501458278877 0.5009501458278852 -0.7057605137651429
outer loop
vertex 0.4924 0.83682 -1.89279
vertex 0.58682 0.7424 -1.89279
vertex 0.4924 0.66318 -2.01604
endloop
endfacet
facet normal 0.4063353088126092 0.5803254706069659 -0.7057718930199509
outer loop
vertex 0.41318 0.7424 -2.01604
vertex 0.32139 0.80667 -2.01604
vertex 0.38302 0.91341 -1.89279
endloop
endfacet
facet normal 0.4063532785825292 0.5803227785788843 -0.7057637605089344
outer loop
vertex 0.38302 0.91341 -1.89279
vertex 0.4924 0.83682 -1.89279
vertex 0.41318 0.7424 -2.01604
endloop
endfacet
facet normal 0.2993991581958364 0.6420483743021195 -0.7057861072078637
outer loop
vertex 0.32139 0.80667 -2.01604
vertex 0.21985 0.85402 -2.01604
vertex 0.262 0.96985 -1.89279
endloop
endfacet
facet normal 0.2994319785109362 0.6420492211090303 -0.7057714133615173
outer loop
vertex 0.262 0.96985 -1.89279
vertex 0.38302 0.91341 -1.89279
vertex 0.32139 0.80667 -2.01604
endloop
endfacet
facet normal 0.18335187013262852 0.6842818242915296 -0.705790674820179
outer loop
vertex 0.21985 0.85402 -2.01604
vertex 0.11162 0.88302 -2.01604
vertex 0.13302 1.00441 -1.89279
endloop
endfacet
facet normal 0.18335232632579382 0.6842819169415821 -0.7057904664825628
outer loop
vertex 0.13302 1.00441 -1.89279
vertex 0.262 0.96985 -1.89279
vertex 0.21985 0.85402 -2.01604
endloop
endfacet
facet normal 0.061774226589814026 0.7057563123802818 -0.7057563123802835
outer loop
vertex 0.11162 0.88302 -2.01604
vertex 0 0.89279 -2.01604
vertex 0 1.01604 -1.89279
endloop
endfacet
facet normal 0.06170211942753933 0.7057279386286618 -0.7057909925020931
outer loop
vertex 0 1.01604 -1.89279
vertex 0.13302 1.00441 -1.89279
vertex 0.11162 0.88302 -2.01604
endloop
endfacet
facet normal -0.06177095050742498 0.7057188838934259 -0.7057940256120242
outer loop
vertex 0 0.89279 -2.01604
vertex -0.11162 0.88302 -2.01604
vertex -0.13302 1.00441 -1.89279
endloop
endfacet
facet normal -0.061704865408711236 0.7057593462310252 -0.7057593462310285
outer loop
vertex -0.13302 1.00441 -1.89279
vertex 0 1.01604 -1.89279
vertex 0 0.89279 -2.01604
endloop
endfacet
facet normal -0.18335192855032384 0.6842820423103974 -0.7057904482694479
outer loop
vertex -0.11162 0.88302 -2.01604
vertex -0.21985 0.85402 -2.01604
vertex -0.262 0.96985 -1.89279
endloop
endfacet
facet normal -0.1833522773061005 0.6842817339971363 -0.7057906565863135
outer loop
vertex -0.262 0.96985 -1.89279
vertex -0.13302 1.00441 -1.89279
vertex -0.11162 0.88302 -2.01604
endloop
endfacet
facet normal -0.2994319785109374 0.6420492211090303 -0.7057714133615167
outer loop
vertex -0.32139 0.80667 -2.01604
vertex -0.38302 0.91341 -1.89279
vertex -0.262 0.96985 -1.89279
endloop
endfacet
facet normal -0.2993991581958376 0.6420483743021191 -0.7057861072078633
outer loop
vertex -0.262 0.96985 -1.89279
vertex -0.21985 0.85402 -2.01604
vertex -0.32139 0.80667 -2.01604
endloop
endfacet
facet normal -0.3466571207057861 0.7433105022646015 -0.5721174161718205
outer loop
vertex -0.262 0.96985 -1.89279
vertex -0.38302 0.91341 -1.89279
vertex -0.43301 1 -1.75
endloop
endfacet
facet normal -0.34664326744403745 0.7433270441852463 -0.5721043178639247
outer loop
vertex -0.43301 1 -1.75
vertex -0.2962 1.0638 -1.75
vertex -0.262 0.96985 -1.89279
endloop
endfacet
facet normal -0.4704421580952239 0.6718429064563527 -0.572111252232456
outer loop
vertex -0.4924 0.83682 -1.89279
vertex -0.55667 0.91341 -1.75
vertex -0.43301 1 -1.75
endloop
endfacet
facet normal -0.47043796430597273 0.6718436419348108 -0.5721138370389429
outer loop
vertex -0.43301 1 -1.75
vertex -0.38302 0.91341 -1.89279
vertex -0.4924 0.83682 -1.89279
endloop
endfacet
facet normal -0.5201930244263239 0.7428925903748596 -0.42131913854502845
outer loop
vertex -0.43301 1 -1.75
vertex -0.55667 0.91341 -1.75
vertex -0.60402 0.96985 -1.59202
endloop
endfacet
facet normal -0.5201947146199799 0.7428900996334512 -0.4213214434942028
outer loop
vertex -0.60402 0.96985 -1.59202
vertex -0.46985 1.0638 -1.59202
vertex -0.43301 1 -1.75
endloop
endfacet
facet normal -0.6412858852161271 0.641285885216125 -0.42131321703115293
outer loop
vertex -0.55667 0.91341 -1.75
vertex -0.66341 0.80667 -1.75
vertex -0.71985 0.85402 -1.59202
endloop
endfacet
facet normal -0.6412858852161245 0.6412858852161265 -0.42131321703115415
outer loop
vertex -0.71985 0.85402 -1.59202
vertex -0.60402 0.96985 -1.59202
vertex -0.55667 0.91341 -1.75
endloop
endfacet
facet normal -0.7428916774648776 0.5201923851826287 -0.42132153748820866
outer loop
vertex -0.66341 0.80667 -1.75
vertex -0.75 0.68301 -1.75
vertex -0.8138 0.71985 -1.59202
endloop
endfacet
facet normal -0.7428909410283828 0.5201953037908369 -0.421319232473338
outer loop
vertex -0.8138 0.71985 -1.59202
vertex -0.71985 0.85402 -1.59202
vertex -0.66341 0.80667 -1.75
endloop
endfacet
facet normal -0.8219547506013097 0.38331052619226275 -0.42126408400687243
outer loop
vertex -0.75 0.68301 -1.75
vertex -0.8138 0.5462 -1.75
vertex -0.88302 0.57139 -1.59202
endloop
endfacet
facet normal -0.8219597623113862 0.3832416458789857 -0.4213169709434637
outer loop
vertex -0.88302 0.57139 -1.59202
vertex -0.8138 0.71985 -1.59202
vertex -0.75 0.68301 -1.75
endloop
endfacet
facet normal -0.8760022901151214 0.23476706340232384 -0.42131272667047664
outer loop
vertex -0.85287 0.40038 -1.75
vertex -0.92542 0.41318 -1.59202
vertex -0.88302 0.57139 -1.59202
endloop
endfacet
facet normal -0.8760368333092643 0.2347192365751801 -0.4212675476072669
outer loop
vertex -0.88302 0.57139 -1.59202
vertex -0.8138 0.5462 -1.75
vertex -0.85287 0.40038 -1.75
endloop
endfacet
facet normal -0.9332393832185231 0.25010650305584625 -0.2578972484131748
outer loop
vertex -0.88302 0.57139 -1.59202
vertex -0.92542 0.41318 -1.59202
vertex -0.96985 0.42101 -1.42365
endloop
endfacet
facet normal -0.9332400865629479 0.25006849433684225 -0.25793155869743123
outer loop
vertex -0.96985 0.42101 -1.42365
vertex -0.92542 0.58682 -1.42365
vertex -0.88302 0.57139 -1.59202
endloop
endfacet
facet normal -0.9624979814419445 0.08416991172433277 -0.2579012634333151
outer loop
vertex -0.96985 0.42101 -1.42365
vertex -0.92542 0.41318 -1.59202
vertex -0.93969 0.25 -1.59202
endloop
endfacet
facet normal -0.9624880979204024 0.08419871320325917 -0.2579287460840321
outer loop
vertex -0.93969 0.25 -1.59202
vertex -0.98481 0.25 -1.42365
vertex -0.96985 0.42101 -1.42365
endloop
endfacet
facet normal -0.9034643780232475 0.079063646859859 -0.4213087435459725
outer loop
vertex -0.92542 0.41318 -1.59202
vertex -0.85287 0.40038 -1.75
vertex -0.86603 0.25 -1.75
endloop
endfacet
facet normal -0.9034904823286479 0.07900973883337277 -0.4212628745937976
outer loop
vertex -0.86603 0.25 -1.75
vertex -0.93969 0.25 -1.59202
vertex -0.92542 0.41318 -1.59202
endloop
endfacet
facet normal -0.8170722205450467 0.07143700139030934 -0.5720924236921404
outer loop
vertex -0.85287 0.40038 -1.75
vertex -0.75441 0.38302 -1.89279
vertex -0.76604 0.25 -1.89279
endloop
endfacet
facet normal -0.8170356961580805 0.07150013141003024 -0.5721366990604861
outer loop
vertex -0.76604 0.25 -1.89279
vertex -0.86603 0.25 -1.75
vertex -0.85287 0.40038 -1.75
endloop
endfacet
facet normal -0.7057188838934259 0.06177095050742367 -0.7057940256120243
outer loop
vertex -0.75441 0.38302 -1.89279
vertex -0.63302 0.36162 -2.01604
vertex -0.64279 0.25 -2.01604
endloop
endfacet
facet normal -0.7057593462310264 0.06170486540871245 -0.705759346231027
outer loop
vertex -0.64279 0.25 -2.01604
vertex -0.76604 0.25 -1.89279
vertex -0.75441 0.38302 -1.89279
endloop
endfacet
facet normal -0.5728805643613357 0.05014849446148452 -0.8181032865600063
outer loop
vertex -0.63302 0.36162 -2.01604
vertex -0.4924 0.33682 -2.11603
vertex -0.5 0.25 -2.11603
endloop
endfacet
facet normal -0.5728831940943745 0.05014395992028283 -0.8181017230196622
outer loop
vertex -0.5 0.25 -2.11603
vertex -0.64279 0.25 -2.01604
vertex -0.63302 0.36162 -2.01604
endloop
endfacet
facet normal -0.4222912820218262 0.03697448503979558 -0.9057057803638024
outer loop
vertex -0.4924 0.33682 -2.11603
vertex -0.33682 0.30939 -2.18969
vertex -0.34202 0.25 -2.18969
endloop
endfacet
facet normal -0.4222951019564979 0.0369666295193436 -0.9057043199441696
outer loop
vertex -0.34202 0.25 -2.18969
vertex -0.5 0.25 -2.11603
vertex -0.4924 0.33682 -2.11603
endloop
endfacet
facet normal -0.25878123430306355 0.022658063956489727 -0.9656701739778063
outer loop
vertex -0.34202 0.25 -2.18969
vertex -0.33682 0.30939 -2.18969
vertex -0.17101 0.28015 -2.23481
endloop
endfacet
facet normal -0.2587814578451122 0.022659470935691258 -0.9656700810589883
outer loop
vertex -0.17101 0.28015 -2.23481
vertex -0.17365 0.25 -2.23481
vertex -0.34202 0.25 -2.18969
endloop
endfacet
facet normal -0.25092699798503526 0.06723048409288268 -0.9656685268200754
outer loop
vertex -0.33682 0.30939 -2.18969
vertex -0.32139 0.36698 -2.18969
vertex -0.16318 0.30939 -2.23481
endloop
endfacet
facet normal -0.2509276099406412 0.06719436340065674 -0.9656708818726275
outer loop
vertex -0.16318 0.30939 -2.23481
vertex -0.17101 0.28015 -2.23481
vertex -0.33682 0.30939 -2.18969
endloop
endfacet
facet normal -0.2354292373766009 0.10976240032420077 -0.9656734901939382
outer loop
vertex -0.32139 0.36698 -2.18969
vertex -0.2962 0.42101 -2.18969
vertex -0.15038 0.33682 -2.23481
endloop
endfacet
facet normal -0.2354116602853074 0.10985305328661694 -0.9656674670326856
outer loop
vertex -0.15038 0.33682 -2.23481
vertex -0.16318 0.30939 -2.23481
vertex -0.32139 0.36698 -2.18969
endloop
endfacet
facet normal -0.21278325066111586 0.14900055635974863 -0.9656718502900321
outer loop
vertex -0.2962 0.42101 -2.18969
vertex -0.262 0.46985 -2.18969
vertex -0.13302 0.36162 -2.23481
endloop
endfacet
facet normal -0.21279904934082508 0.14895933453858481 -0.9656747284947779
outer loop
vertex -0.13302 0.36162 -2.23481
vertex -0.15038 0.33682 -2.23481
vertex -0.2962 0.42101 -2.18969
endloop
endfacet
facet normal -0.18368160766946728 0.18368160766947147 -0.9656718562782693
outer loop
vertex -0.262 0.46985 -2.18969
vertex -0.21985 0.512 -2.18969
vertex -0.11162 0.38302 -2.23481
endloop
endfacet
facet normal -0.18368160766947636 0.18368160766947042 -0.9656718562782676
outer loop
vertex -0.11162 0.38302 -2.23481
vertex -0.13302 0.36162 -2.23481
vertex -0.262 0.46985 -2.18969
endloop
endfacet
facet normal -0.14899642177911374 0.21277734618981883 -0.9656737892505098
outer loop
vertex -0.21985 0.512 -2.18969
vertex -0.17101 0.5462 -2.18969
vertex -0.08682 0.40038 -2.23481
endloop
endfacet
facet normal -0.14896747601755417 0.21281068002508075 -0.9656709095526393
outer loop
vertex -0.08682 0.40038 -2.23481
vertex -0.11162 0.38302 -2.23481
vertex -0.21985 0.512 -2.18969
endloop
endfacet
facet normal -0.1097687706894892 0.23544290116526448 -0.9656694347820074
outer loop
vertex -0.17101 0.5462 -2.18969
vertex -0.11698 0.57139 -2.18969
vertex -0.05939 0.41318 -2.23481
endloop
endfacet
facet normal -0.10984049805402316 0.23538475481421076 -0.965675453860301
outer loop
vertex -0.05939 0.41318 -2.23481
vertex -0.08682 0.40038 -2.23481
vertex -0.17101 0.5462 -2.18969
endloop
endfacet
facet normal -0.06722895752895384 0.25092130033001436 -0.9656701136051922
outer loop
vertex -0.11698 0.57139 -2.18969
vertex -0.05939 0.58682 -2.18969
vertex -0.03015 0.42101 -2.23481
endloop
endfacet
facet normal -0.06719736865793557 0.2509388326382974 -0.9656677564874878
outer loop
vertex -0.03015 0.42101 -2.23481
vertex -0.05939 0.41318 -2.23481
vertex -0.11698 0.57139 -2.18969
endloop
endfacet
facet normal -0.02265808424141947 0.25878146598040774 -0.965670111416699
outer loop
vertex -0.05939 0.58682 -2.18969
vertex 0 0.59202 -2.18969
vertex 0 0.42365 -2.23481
endloop
endfacet
facet normal -0.022659430975639553 0.2587810014834282 -0.9656702042929015
outer loop
vertex 0 0.42365 -2.23481
vertex -0.03015 0.42101 -2.23481
vertex -0.05939 0.58682 -2.18969
endloop
endfacet
facet normal 0.02265806395648601 0.258781234303062 -0.9656701739778067
outer loop
vertex 0 0.59202 -2.18969
vertex 0.05939 0.58682 -2.18969
vertex 0.03015 0.42101 -2.23481
endloop
endfacet
facet normal 0.022659470935667534 0.2587814578451115 -0.9656700810589891
outer loop
vertex 0.03015 0.42101 -2.23481
vertex 0 0.42365 -2.23481
vertex 0 0.59202 -2.18969
endloop
endfacet
facet normal 0.0672304840928882 0.25092699798503565 -0.9656685268200751
outer loop
vertex 0.05939 0.58682 -2.18969
vertex 0.11698 0.57139 -2.18969
vertex 0.05939 0.41318 -2.23481
endloop
endfacet
facet normal 0.06719436340066275 0.25092760994064023 -0.9656708818726273
outer loop
vertex 0.05939 0.41318 -2.23481
vertex 0.03015 0.42101 -2.23481
vertex 0.05939 0.58682 -2.18969
endloop
endfacet
facet normal 0.10976240032420242 0.23542923737660054 -0.9656734901939381
outer loop
vertex 0.11698 0.57139 -2.18969
vertex 0.17101 0.5462 -2.18969
vertex 0.08682 0.40038 -2.23481
endloop
endfacet
facet normal 0.1098530532866161 0.23541166028530644 -0.9656674670326858
outer loop
vertex 0.08682 0.40038 -2.23481
vertex 0.05939 0.41318 -2.23481
vertex 0.11698 0.57139 -2.18969
endloop
endfacet
facet normal 0.14900055635976112 0.212783250661114 -0.9656718502900306
outer loop
vertex 0.17101 0.5462 -2.18969
vertex 0.21985 0.512 -2.18969
vertex 0.11162 0.38302 -2.23481
endloop
endfacet
facet normal 0.14895933453858293 0.2127990493408361 -0.9656747284947758
outer loop
vertex 0.11162 0.38302 -2.23481
vertex 0.08682 0.40038 -2.23481
vertex 0.17101 0.5462 -2.18969
endloop
endfacet
facet normal 0.18368160766947197 0.18368160766947064 -0.9656718562782685
outer loop
vertex 0.21985 0.512 -2.18969
vertex 0.262 0.46985 -2.18969
vertex 0.13302 0.36162 -2.23481
endloop
endfacet
facet normal 0.18368160766945693 0.18368160766947245 -0.9656718562782711
outer loop
vertex 0.13302 0.36162 -2.23481
vertex 0.11162 0.38302 -2.23481
vertex 0.21985 0.512 -2.18969
endloop
endfacet
facet normal 0.21278325066111317 0.14900055635974863 -0.9656718502900328
outer loop
vertex 0.13302 0.36162 -2.23481
vertex 0.262 0.46985 -2.18969
vertex 0.2962 0.42101 -2.18969
endloop
endfacet
facet normal 0.21279904934083035 0.14895933453858481 -0.9656747284947769
outer loop
vertex 0.2962 0.42101 -2.18969
vertex 0.15038 0.33682 -2.23481
vertex 0.13302 0.36162 -2.23481
endloop
endfacet
facet normal 0.3472474641528066 0.24315591445578985 -0.9057010543797628
outer loop
vertex 0.262 0.46985 -2.18969
vertex 0.38302 0.57139 -2.11603
vertex 0.43301 0.5 -2.11603
endloop
endfacet
facet normal 0.3472469036905929 0.24315815123297058 -0.905700668745618
outer loop
vertex 0.43301 0.5 -2.11603
vertex 0.2962 0.42101 -2.18969
vertex 0.262 0.46985 -2.18969
endloop
endfacet
facet normal 0.4710751581811878 0.3298398563711183 -0.8181038225638904
outer loop
vertex 0.38302 0.57139 -2.11603
vertex 0.4924 0.66318 -2.01604
vertex 0.55667 0.57139 -2.01604
endloop
endfacet
facet normal 0.47107128434786766 0.32986207458397376 -0.8180970949795674
outer loop
vertex 0.55667 0.57139 -2.01604
vertex 0.43301 0.5 -2.11603
vertex 0.38302 0.57139 -2.11603
endloop
endfacet
facet normal 0.5803227785788858 0.40635327858252623 -0.705763760508935
outer loop
vertex 0.4924 0.66318 -2.01604
vertex 0.58682 0.7424 -1.89279
vertex 0.66341 0.63302 -1.89279
endloop
endfacet
facet normal 0.5803254706069643 0.4063353088126119 -0.7057718930199506
outer loop
vertex 0.66341 0.63302 -1.89279
vertex 0.55667 0.57139 -2.01604
vertex 0.4924 0.66318 -2.01604
endloop
endfacet
facet normal 0.6718452093767807 0.47043906185927636 -0.5721110938571577
outer loop
vertex 0.66341 0.63302 -1.89279
vertex 0.58682 0.7424 -1.89279
vertex 0.66341 0.80667 -1.75
endloop
endfacet
facet normal 0.6718415200284575 0.4704411872817736 -0.5721136786293148
outer loop
vertex 0.66341 0.80667 -1.75
vertex 0.75 0.68301 -1.75
vertex 0.66341 0.63302 -1.89279
endloop
endfacet
facet normal 0.5799513860376776 0.5799513860376764 -0.5721125585633956
outer loop
vertex 0.58682 0.7424 -1.89279
vertex 0.4924 0.83682 -1.89279
vertex 0.55667 0.91341 -1.75
endloop
endfacet
facet normal 0.5799513860376754 0.5799513860376786 -0.5721125585633957
outer loop
vertex 0.55667 0.91341 -1.75
vertex 0.66341 0.80667 -1.75
vertex 0.58682 0.7424 -1.89279
endloop
endfacet
facet normal 0.47043796430597273 0.6718436419348108 -0.5721138370389429
outer loop
vertex 0.4924 0.83682 -1.89279
vertex 0.38302 0.91341 -1.89279
vertex 0.43301 1 -1.75
endloop
endfacet
facet normal 0.47044215809522416 0.671842906456353 -0.5721112522324553
outer loop
vertex 0.43301 1 -1.75
vertex 0.55667 0.91341 -1.75
vertex 0.4924 0.83682 -1.89279
endloop
endfacet
facet normal 0.3466612190032543 0.7433192899322106 -0.5721035155055872
outer loop
vertex 0.38302 0.91341 -1.89279
vertex 0.262 0.96985 -1.89279
vertex 0.2962 1.0638 -1.75
endloop
endfacet
facet normal 0.34663964229875194 0.7433192705782437 -0.5721166143139186
outer loop
vertex 0.2962 1.0638 -1.75
vertex 0.43301 1 -1.75
vertex 0.38302 0.91341 -1.89279
endloop
endfacet
facet normal 0.21227986088342263 0.7922412169196656 -0.5720936242233101
outer loop
vertex 0.262 0.96985 -1.89279
vertex 0.13302 1.00441 -1.89279
vertex 0.15038 1.10287 -1.75
endloop
endfacet
facet normal 0.2122670095242407 0.7922389385417159 -0.5721015477395
outer loop
vertex 0.15038 1.10287 -1.75
vertex 0.2962 1.0638 -1.75
vertex 0.262 0.96985 -1.89279
endloop
endfacet
facet normal 0.07143414663994309 0.8170395688774831 -0.5721394109675715
outer loop
vertex 0.13302 1.00441 -1.89279
vertex 0 1.01604 -1.89279
vertex 0 1.11603 -1.75
endloop
endfacet
facet normal 0.07150265891441333 0.8170645780812706 -0.5720951363305268
outer loop
vertex 0 1.11603 -1.75
vertex 0.15038 1.10287 -1.75
vertex 0.13302 1.00441 -1.89279
endloop
endfacet
facet normal -0.07143700139030973 0.8170722205450469 -0.57209242369214
outer loop
vertex 0 1.01604 -1.89279
vertex -0.13302 1.00441 -1.89279
vertex -0.15038 1.10287 -1.75
endloop
endfacet
facet normal -0.07150013141002992 0.817035696158081 -0.5721366990604851
outer loop
vertex -0.15038 1.10287 -1.75
vertex 0 1.11603 -1.75
vertex 0 1.01604 -1.89279
endloop
endfacet
facet normal -0.21226700952424074 0.7922389385417161 -0.5721015477394995
outer loop
vertex -0.262 0.96985 -1.89279
vertex -0.2962 1.0638 -1.75
vertex -0.15038 1.10287 -1.75
endloop
endfacet
facet normal -0.2122798608834228 0.7922412169196663 -0.5720936242233094
outer loop
vertex -0.15038 1.10287 -1.75
vertex -0.13302 1.00441 -1.89279
vertex -0.262 0.96985 -1.89279
endloop
endfacet
facet normal -0.23471923657518123 0.8760368333092641 -0.4212675476072668
outer loop
vertex -0.15038 1.10287 -1.75
vertex -0.2962 1.0638 -1.75
vertex -0.32139 1.13302 -1.59202
endloop
endfacet
facet normal -0.23476706340232045 0.8760022901151223 -0.421312726670477
outer loop
vertex -0.32139 1.13302 -1.59202
vertex -0.16318 1.17542 -1.59202
vertex -0.15038 1.10287 -1.75
endloop
endfacet
facet normal -0.38324164587898485 0.821959762311388 -0.421316970943461
outer loop
vertex -0.43301 1 -1.75
vertex -0.46985 1.0638 -1.59202
vertex -0.32139 1.13302 -1.59202
endloop
endfacet
facet normal -0.3833105261922641 0.8219547506013087 -0.4212640840068733
outer loop
vertex -0.32139 1.13302 -1.59202
vertex -0.2962 1.0638 -1.75
vertex -0.43301 1 -1.75
endloop
endfacet
facet normal -0.408285050653226 0.8756717512276527 -0.2578804015721015
outer loop
vertex -0.32139 1.13302 -1.59202
vertex -0.46985 1.0638 -1.59202
vertex -0.4924 1.10287 -1.42365
endloop
endfacet
facet normal -0.4083270543959383 0.875637810102277 -0.25792914175723747
outer loop
vertex -0.4924 1.10287 -1.42365
vertex -0.33682 1.17542 -1.42365
vertex -0.32139 1.13302 -1.59202
endloop
endfacet
facet normal -0.5541851821821603 0.7914318881679652 -0.2579037615867891
outer loop
vertex -0.46985 1.0638 -1.59202
vertex -0.60402 0.96985 -1.59202
vertex -0.63302 1.00441 -1.42365
endloop
endfacet
facet normal -0.554164931042831 0.7914551351131708 -0.2578759358786453
outer loop
vertex -0.63302 1.00441 -1.42365
vertex -0.4924 1.10287 -1.42365
vertex -0.46985 1.0638 -1.59202
endloop
endfacet
facet normal -0.6831857568511925 0.6831857568511915 -0.2579039419460817
outer loop
vertex -0.60402 0.96985 -1.59202
vertex -0.71985 0.85402 -1.59202
vertex -0.75441 0.88302 -1.42365
endloop
endfacet
facet normal -0.6831857568511912 0.6831857568511926 -0.25790394194608246
outer loop
vertex -0.75441 0.88302 -1.42365
vertex -0.63302 1.00441 -1.42365
vertex -0.60402 0.96985 -1.59202
endloop
endfacet
facet normal -0.7914381149332087 0.5541895423565251 -0.2578752825953557
outer loop
vertex -0.71985 0.85402 -1.59202
vertex -0.8138 0.71985 -1.59202
vertex -0.85287 0.7424 -1.42365
endloop
endfacet
facet normal -0.79144919370136 0.5541607709560215 -0.2579031091764795
outer loop
vertex -0.85287 0.7424 -1.42365
vertex -0.75441 0.88302 -1.42365
vertex -0.71985 0.85402 -1.59202
endloop
endfacet
facet normal -0.8756378101022774 0.4083270543959381 -0.25792914175723614
outer loop
vertex -0.88302 0.57139 -1.59202
vertex -0.92542 0.58682 -1.42365
vertex -0.85287 0.7424 -1.42365
endloop
endfacet
facet normal -0.8756717512276516 0.40828505065322834 -0.25788040157210174
outer loop
vertex -0.85287 0.7424 -1.42365
vertex -0.8138 0.71985 -1.59202
vertex -0.88302 0.57139 -1.59202
endloop
endfacet
facet normal -0.9028827290591487 0.4210318935161419 -0.08680392968590832
outer loop
vertex -0.85287 0.7424 -1.42365
vertex -0.92542 0.58682 -1.42365
vertex -0.93969 0.59202 -1.25
endloop
endfacet
facet normal -0.9028990875033561 0.4209871299246553 -0.08685087347521744
outer loop
vertex -0.93969 0.59202 -1.25
vertex -0.86603 0.75 -1.25
vertex -0.85287 0.7424 -1.42365
endloop
endfacet
facet normal -0.9622765128263542 0.25784901673526944 -0.08682048969803258
outer loop
vertex -0.92542 0.58682 -1.42365
vertex -0.96985 0.42101 -1.42365
vertex -0.98481 0.42365 -1.25
endloop
endfacet
facet normal -0.9622726063006513 0.25787099837432553 -0.08679849860902272
outer loop
vertex -0.98481 0.42365 -1.25
vertex -0.93969 0.59202 -1.25
vertex -0.92542 0.58682 -1.42365
endloop
endfacet
facet normal -0.9924344123861637 0.08681842470789373 -0.08681300733743662
outer loop
vertex -0.96985 0.42101 -1.42365
vertex -0.98481 0.25 -1.42365
vertex -1 0.25 -1.25
endloop
endfacet
facet normal -0.992434419482451 0.08681300795818304 -0.08681834296842522
outer loop
vertex -1 0.25 -1.25
vertex -0.98481 0.42365 -1.25
vertex -0.96985 0.42101 -1.42365
endloop
endfacet
facet normal -0.9924344123861637 -0.08681842470789373 -0.08681300733743662
outer loop
vertex -1 0.25 -1.25
vertex -0.98481 0.25 -1.42365
vertex -0.96985 0.07899 -1.42365
endloop
endfacet
facet normal -0.9924344194824509 -0.08681300795818295 -0.08681834296842508
outer loop
vertex -0.96985 0.07899 -1.42365
vertex -0.98481 0.07635 -1.25
vertex -1 0.25 -1.25
endloop
endfacet
facet normal -0.9624905016289852 -0.08416925761886249 -0.2579293902328196
outer loop
vertex -0.98481 0.25 -1.42365
vertex -0.93969 0.25 -1.59202
vertex -0.92542 0.08682 -1.59202
endloop
endfacet
facet normal -0.9624952352184963 -0.08419933757598137 -0.2579019071923612
outer loop
vertex -0.92542 0.08682 -1.59202
vertex -0.96985 0.07899 -1.42365
vertex -0.98481 0.25 -1.42365
endloop
endfacet
facet normal -0.9034864696558631 -0.0790655801347994 -0.42126100363875696
outer loop
vertex -0.93969 0.25 -1.59202
vertex -0.86603 0.25 -1.75
vertex -0.85287 0.09962 -1.75
endloop
endfacet
facet normal -0.9034701233656438 -0.07900795845340927 -0.4213068699732922
outer loop
vertex -0.85287 0.09962 -1.75
vertex -0.92542 0.08682 -1.59202
vertex -0.93969 0.25 -1.59202
endloop
endfacet
facet normal -0.8170395688774837 -0.07143414663994302 -0.5721394109675706
outer loop
vertex -0.86603 0.25 -1.75
vertex -0.76604 0.25 -1.89279
vertex -0.75441 0.11698 -1.89279
endloop
endfacet
facet normal -0.8170645780812688 -0.07150265891441353 -0.5720951363305297
outer loop
vertex -0.75441 0.11698 -1.89279
vertex -0.85287 0.09962 -1.75
vertex -0.86603 0.25 -1.75
endloop
endfacet
facet normal -0.7057563123802814 -0.06177422658981837 -0.7057563123802838
outer loop
vertex -0.76604 0.25 -1.89279
vertex -0.64279 0.25 -2.01604
vertex -0.63302 0.13838 -2.01604
endloop
endfacet
facet normal -0.7057279386286633 -0.061702119427538185 -0.7057909925020914
outer loop
vertex -0.63302 0.13838 -2.01604
vertex -0.75441 0.11698 -1.89279
vertex -0.76604 0.25 -1.89279
endloop
endfacet
facet normal -0.5728830572129536 -0.050148712679318246 -0.8181015275471295
outer loop
vertex -0.64279 0.25 -2.01604
vertex -0.5 0.25 -2.11603
vertex -0.4924 0.16318 -2.11603
endloop
endfacet
facet normal -0.5728812551077218 -0.05014379020249368 -0.8181030912118163
outer loop
vertex -0.4924 0.16318 -2.11603
vertex -0.63302 0.13838 -2.01604
vertex -0.64279 0.25 -2.01604
endloop
endfacet
facet normal -0.4222912820218286 -0.03697448503979556 -0.9057057803638014
outer loop
vertex -0.34202 0.25 -2.18969
vertex -0.33682 0.19061 -2.18969
vertex -0.4924 0.16318 -2.11603
endloop
endfacet
facet normal -0.4222951019564975 -0.03696662951934356 -0.9057043199441697
outer loop
vertex -0.4924 0.16318 -2.11603
vertex -0.5 0.25 -2.11603
vertex -0.34202 0.25 -2.18969
endloop
endfacet
facet normal -0.40946722116619877 -0.1097079219064854 -0.9057045691953816
outer loop
vertex -0.4924 0.16318 -2.11603
vertex -0.33682 0.19061 -2.18969
vertex -0.32139 0.13302 -2.18969
endloop
endfacet
facet normal -0.4094636342067524 -0.109673416692746 -0.9057103697833752
outer loop
vertex -0.32139 0.13302 -2.18969
vertex -0.46985 0.07899 -2.11603
vertex -0.4924 0.16318 -2.11603
endloop
endfacet
facet normal -0.25092760994064184 -0.06719436340065689 -0.9656708818726272
outer loop
vertex -0.33682 0.19061 -2.18969
vertex -0.17101 0.21985 -2.23481
vertex -0.16318 0.19061 -2.23481
endloop
endfacet
facet normal -0.2509269979850348 -0.06723048409288256 -0.9656685268200756
outer loop
vertex -0.16318 0.19061 -2.23481
vertex -0.32139 0.13302 -2.18969
vertex -0.33682 0.19061 -2.18969
endloop
endfacet
facet normal -0.08449555701641354 -0.02262654621882931 -0.9961669238891107
outer loop
vertex -0.16318 0.19061 -2.23481
vertex -0.17101 0.21985 -2.23481
vertex 0 0.25 -2.25
endloop
endfacet
facet normal -0.08713950574918272 -0.007630125876545635 -0.9961668975211415
outer loop
vertex -0.17101 0.21985 -2.23481
vertex -0.17365 0.25 -2.23481
vertex 0 0.25 -2.25
endloop
endfacet
facet normal -0.08713950574918272 0.007630125876545635 -0.9961668975211415
outer loop
vertex -0.17365 0.25 -2.23481
vertex -0.17101 0.28015 -2.23481
vertex 0 0.25 -2.25
endloop
endfacet
facet normal -0.08449555701641856 0.022626546218829244 -0.9961669238891103
outer loop
vertex -0.17101 0.28015 -2.23481
vertex -0.16318 0.30939 -2.23481
vertex 0 0.25 -2.25
endloop
endfacet
facet normal -0.0792679852883229 0.036989799915806205 -0.9961668239860825
outer loop
vertex -0.16318 0.30939 -2.23481
vertex -0.15038 0.33682 -2.23481
vertex 0 0.25 -2.25
endloop
endfacet
facet normal -0.07166225830894672 0.050163580816262675 -0.996166720932672
outer loop
vertex -0.15038 0.33682 -2.23481
vertex -0.13302 0.36162 -2.23481
vertex 0 0.25 -2.25
endloop
endfacet
facet normal -0.06185322992281579 0.06185322992280824 -0.9961668313571936
outer loop
vertex -0.13302 0.36162 -2.23481
vertex -0.11162 0.38302 -2.23481
vertex 0 0.25 -2.25
endloop
endfacet
facet normal -0.05016358081625428 0.07166225830894671 -0.9961667209326724
outer loop
vertex -0.11162 0.38302 -2.23481
vertex -0.08682 0.40038 -2.23481
vertex 0 0.25 -2.25
endloop
endfacet
facet normal -0.03698979991578917 0.07926798528832522 -0.996166823986083
outer loop
vertex -0.08682 0.40038 -2.23481
vertex -0.05939 0.41318 -2.23481
vertex 0 0.25 -2.25
endloop
endfacet
facet normal -0.022626546218837404 0.08449555701641955 -0.99616692388911
outer loop
vertex -0.05939 0.41318 -2.23481
vertex -0.03015 0.42101 -2.23481
vertex 0 0.25 -2.25
endloop
endfacet
facet normal -0.007630125876547293 0.08713950574918611 -0.9961668975211411
outer loop
vertex -0.03015 0.42101 -2.23481
vertex 0 0.42365 -2.23481
vertex 0 0.25 -2.25
endloop
endfacet
facet normal 0.007630125876547293 0.08713950574918611 -0.9961668975211411
outer loop
vertex 0 0.42365 -2.23481
vertex 0.03015 0.42101 -2.23481
vertex 0 0.25 -2.25
endloop
endfacet
facet normal 0.022626546218837404 0.08449555701641955 -0.99616692388911
outer loop
vertex 0.03015 0.42101 -2.23481
vertex 0.05939 0.41318 -2.23481
vertex 0 0.25 -2.25
endloop
endfacet
facet normal 0.03698979991578917 0.07926798528832522 -0.996166823986083
outer loop
vertex 0.05939 0.41318 -2.23481
vertex 0.08682 0.40038 -2.23481
vertex 0 0.25 -2.25
endloop
endfacet
facet normal 0.05016358081625428 0.07166225830894671 -0.9961667209326724
outer loop
vertex 0.08682 0.40038 -2.23481
vertex 0.11162 0.38302 -2.23481
vertex 0 0.25 -2.25
endloop
endfacet
facet normal 0.061853229922794746 0.061853229922808325 -0.996166831357195
outer loop
vertex 0.11162 0.38302 -2.23481
vertex 0.13302 0.36162 -2.23481
vertex 0 0.25 -2.25
endloop
endfacet
facet normal 0.07166225830895723 0.05016358081626263 -0.9961667209326712
outer loop
vertex 0.13302 0.36162 -2.23481
vertex 0.15038 0.33682 -2.23481
vertex 0 0.25 -2.25
endloop
endfacet
facet normal 0.07926798528832284 0.03698979991580618 -0.9961668239860826
outer loop
vertex 0 0.25 -2.25
vertex 0.15038 0.33682 -2.23481
vertex 0.16318 0.30939 -2.23481
endloop
endfacet
facet normal 0.23542923737660082 0.10976240032420073 -0.9656734901939382
outer loop
vertex 0.15038 0.33682 -2.23481
vertex 0.2962 0.42101 -2.18969
vertex 0.32139 0.36698 -2.18969
endloop
endfacet
facet normal 0.2354116602853076 0.10985305328661704 -0.9656674670326855
outer loop
vertex 0.32139 0.36698 -2.18969
vertex 0.16318 0.30939 -2.23481
vertex 0.15038 0.33682 -2.23481
endloop
endfacet
facet normal 0.3841864456544778 0.17918000579707402 -0.9057015515598609
outer loop
vertex 0.2962 0.42101 -2.18969
vertex 0.43301 0.5 -2.11603
vertex 0.46985 0.42101 -2.11603
endloop
endfacet
facet normal 0.38419082669894095 0.1791183957902332 -0.905711879666993
outer loop
vertex 0.46985 0.42101 -2.11603
vertex 0.32139 0.36698 -2.18969
vertex 0.2962 0.42101 -2.18969
endloop
endfacet
facet normal 0.5211945833061471 0.24304277643831224 -0.8180992697426691
outer loop
vertex 0.43301 0.5 -2.11603
vertex 0.55667 0.57139 -2.01604
vertex 0.60402 0.46985 -2.01604
endloop
endfacet
facet normal 0.5211946515905266 0.24307900955304387 -0.8180884611508348
outer loop
vertex 0.60402 0.46985 -2.01604
vertex 0.46985 0.42101 -2.11603
vertex 0.43301 0.5 -2.11603
endloop
endfacet
facet normal 0.6420492211090315 0.29943197851093745 -0.7057714133615158
outer loop
vertex 0.55667 0.57139 -2.01604
vertex 0.66341 0.63302 -1.89279
vertex 0.71985 0.512 -1.89279
endloop
endfacet
facet normal 0.6420483743021184 0.2993991581958365 -0.7057861072078647
outer loop
vertex 0.71985 0.512 -1.89279
vertex 0.60402 0.46985 -2.01604
vertex 0.55667 0.57139 -2.01604
endloop
endfacet
facet normal 0.7433192705782433 0.3466396422987494 -0.5721166143139206
outer loop
vertex 0.66341 0.63302 -1.89279
vertex 0.75 0.68301 -1.75
vertex 0.8138 0.5462 -1.75
endloop
endfacet
facet normal 0.7433192899322125 0.3466612190032553 -0.5721035155055845
outer loop
vertex 0.8138 0.5462 -1.75
vertex 0.71985 0.512 -1.89279
vertex 0.66341 0.63302 -1.89279
endloop
endfacet
facet normal 0.8219547506013095 0.38331052619226286 -0.4212640840068726
outer loop
vertex 0.88302 0.57139 -1.59202
vertex 0.8138 0.5462 -1.75
vertex 0.75 0.68301 -1.75
endloop
endfacet
facet normal 0.8219597623113865 0.3832416458789855 -0.42131697094346354
outer loop
vertex 0.75 0.68301 -1.75
vertex 0.8138 0.71985 -1.59202
vertex 0.88302 0.57139 -1.59202
endloop
endfacet
facet normal 0.7428925903748599 0.5201930244263241 -0.42131913854502806
outer loop
vertex 0.75 0.68301 -1.75
vertex 0.66341 0.80667 -1.75
vertex 0.71985 0.85402 -1.59202
endloop
endfacet
facet normal 0.7428900996334511 0.5201947146199802 -0.42132144349420253
outer loop
vertex 0.71985 0.85402 -1.59202
vertex 0.8138 0.71985 -1.59202
vertex 0.75 0.68301 -1.75
endloop
endfacet
facet normal 0.6412858852161252 0.6412858852161262 -0.42131321703115415
outer loop
vertex 0.66341 0.80667 -1.75
vertex 0.55667 0.91341 -1.75
vertex 0.60402 0.96985 -1.59202
endloop
endfacet
facet normal 0.6412858852161264 0.6412858852161254 -0.4213132170311531
outer loop
vertex 0.60402 0.96985 -1.59202
vertex 0.71985 0.85402 -1.59202
vertex 0.66341 0.80667 -1.75
endloop
endfacet
facet normal 0.5201923851826293 0.7428916774648775 -0.42132153748820783
outer loop
vertex 0.55667 0.91341 -1.75
vertex 0.43301 1 -1.75
vertex 0.46985 1.0638 -1.59202
endloop
endfacet
facet normal 0.5201953037908359 0.7428909410283828 -0.4213192324733395
outer loop
vertex 0.46985 1.0638 -1.59202
vertex 0.60402 0.96985 -1.59202
vertex 0.55667 0.91341 -1.75
endloop
endfacet
facet normal 0.3833105261922639 0.8219547506013084 -0.42126408400687393
outer loop
vertex 0.43301 1 -1.75
vertex 0.2962 1.0638 -1.75
vertex 0.32139 1.13302 -1.59202
endloop
endfacet
facet normal 0.38324164587898485 0.821959762311388 -0.421316970943461
outer loop
vertex 0.32139 1.13302 -1.59202
vertex 0.46985 1.0638 -1.59202
vertex 0.43301 1 -1.75
endloop
endfacet
facet normal 0.23471358370142495 0.8760157352275908 -0.42131456806013423
outer loop
vertex 0.2962 1.0638 -1.75
vertex 0.15038 1.10287 -1.75
vertex 0.16318 1.17542 -1.59202
endloop
endfacet
facet normal 0.2347722746763211 0.8760217352957704 -0.42126938926617147
outer loop
vertex 0.16318 1.17542 -1.59202
vertex 0.32139 1.13302 -1.59202
vertex 0.2962 1.0638 -1.75
endloop
endfacet
facet normal 0.07906558013480063 0.9034864696558634 -0.421261003638756
outer loop
vertex 0.15038 1.10287 -1.75
vertex 0 1.11603 -1.75
vertex 0 1.18969 -1.59202
endloop
endfacet
facet normal 0.07900795845341166 0.9034701233656431 -0.42130686997329325
outer loop
vertex 0 1.18969 -1.59202
vertex 0.16318 1.17542 -1.59202
vertex 0.15038 1.10287 -1.75
endloop
endfacet
facet normal -0.07900795845341191 0.9034701233656434 -0.421306869973293
outer loop
vertex -0.15038 1.10287 -1.75
vertex -0.16318 1.17542 -1.59202
vertex 0 1.18969 -1.59202
endloop
endfacet
facet normal -0.07906558013480063 0.9034864696558634 -0.421261003638756
outer loop
vertex 0 1.18969 -1.59202
vertex 0 1.11603 -1.75
vertex -0.15038 1.10287 -1.75
endloop
endfacet
facet normal -0.08416991172433248 0.9624979814419444 -0.25790126343331504
outer loop
vertex 0 1.18969 -1.59202
vertex -0.16318 1.17542 -1.59202
vertex -0.17101 1.21985 -1.42365
endloop
endfacet
facet normal -0.08419871320325736 0.962488097920402 -0.2579287460840346
outer loop
vertex -0.17101 1.21985 -1.42365
vertex 0 1.23481 -1.42365
vertex 0 1.18969 -1.59202
endloop
endfacet
facet normal -0.2500684943368421 0.9332400865629478 -0.25793155869743173
outer loop
vertex -0.32139 1.13302 -1.59202
vertex -0.33682 1.17542 -1.42365
vertex -0.17101 1.21985 -1.42365
endloop
endfacet
facet normal -0.25010650305584625 0.9332393832185228 -0.2578972484131751
outer loop
vertex -0.17101 1.21985 -1.42365
vertex -0.16318 1.17542 -1.59202
vertex -0.32139 1.13302 -1.59202
endloop
endfacet
facet normal -0.2578495165268954 0.9622783780176536 -0.08679832963001097
outer loop
vertex -0.17101 1.21985 -1.42365
vertex -0.33682 1.17542 -1.42365
vertex -0.34202 1.18969 -1.25
endloop
endfacet
facet normal -0.25787050614376766 0.9622707694908265 -0.08682032161130186
outer loop
vertex -0.34202 1.18969 -1.25
vertex -0.17365 1.23481 -1.25
vertex -0.17101 1.21985 -1.42365
endloop
endfacet
facet normal -0.4210301510910114 0.9028789925119186 -0.0868512334566586
outer loop
vertex -0.33682 1.17542 -1.42365
vertex -0.4924 1.10287 -1.42365
vertex -0.5 1.11603 -1.25
endloop
endfacet
facet normal -0.42098884574193585 0.9029027674492411 -0.08680428729834984
outer loop
vertex -0.5 1.11603 -1.25
vertex -0.34202 1.18969 -1.25
vertex -0.33682 1.17542 -1.42365
endloop
endfacet
facet normal -0.5713990398779291 0.8160687892304943 -0.08680362014602813
outer loop
vertex -0.4924 1.10287 -1.42365
vertex -0.63302 1.00441 -1.42365
vertex -0.64279 1.01604 -1.25
endloop
endfacet
facet normal -0.5714372316274048 0.8160368267234431 -0.08685267837632442
outer loop
vertex -0.64279 1.01604 -1.25
vertex -0.5 1.11603 -1.25
vertex -0.4924 1.10287 -1.42365
endloop
endfacet
facet normal -0.7044372306064087 0.7044372306064104 -0.08681230483718498
outer loop
vertex -0.63302 1.00441 -1.42365
vertex -0.75441 0.88302 -1.42365
vertex -0.76604 0.89279 -1.25
endloop
endfacet
facet normal -0.7044372306064103 0.704437230606409 -0.08681230483718484
outer loop
vertex -0.76604 0.89279 -1.25
vertex -0.64279 1.01604 -1.25
vertex -0.63302 1.00441 -1.42365
endloop
endfacet
facet normal -0.8160368267234435 0.5714372316274037 -0.08685267837632506
outer loop
vertex -0.85287 0.7424 -1.42365
vertex -0.86603 0.75 -1.25
vertex -0.76604 0.89279 -1.25
endloop
endfacet
facet normal -0.8160687892304934 0.5713990398779298 -0.08680362014602944
outer loop
vertex -0.76604 0.89279 -1.25
vertex -0.75441 0.88302 -1.42365
vertex -0.85287 0.7424 -1.42365
endloop
endfacet
facet normal -0.8160368267234436 0.5714372316274037 0.08685267837632482
outer loop
vertex -0.76604 0.89279 -1.25
vertex -0.86603 0.75 -1.25
vertex -0.85287 0.7424 -1.07635
endloop
endfacet
facet normal -0.8160687892304935 0.5713990398779302 0.086803620146029
outer loop
vertex -0.85287 0.7424 -1.07635
vertex -0.75441 0.88302 -1.07635
vertex -0.76604 0.89279 -1.25
endloop
endfacet
facet normal -0.9029027674492411 0.4209888457419352 0.0868042872983513
outer loop
vertex -0.86603 0.75 -1.25
vertex -0.93969 0.59202 -1.25
vertex -0.92542 0.58682 -1.07635
endloop
endfacet
facet normal -0.902878992511918 0.4210301510910128 0.08685123345665717
outer loop
vertex -0.92542 0.58682 -1.07635
vertex -0.85287 0.7424 -1.07635
vertex -0.86603 0.75 -1.25
endloop
endfacet
facet normal -0.9622707694908269 0.2578705061437669 0.08682032161130022
outer loop
vertex -0.93969 0.59202 -1.25
vertex -0.98481 0.42365 -1.25
vertex -0.96985 0.42101 -1.07635
endloop
endfacet
facet normal -0.9622783780176535 0.2578495165268947 0.08679832963001335
outer loop
vertex -0.96985 0.42101 -1.07635
vertex -0.92542 0.58682 -1.07635
vertex -0.93969 0.59202 -1.25
endloop
endfacet
facet normal -0.9924348791411947 0.08681304816674207 0.08681304816674196
outer loop
vertex -0.98481 0.42365 -1.25
vertex -1 0.25 -1.25
vertex -0.98481 0.25 -1.07635
endloop
endfacet
facet normal -0.9924339456317911 0.08681838387609793 0.0868183838760984
outer loop
vertex -0.98481 0.25 -1.07635
vertex -0.96985 0.42101 -1.07635
vertex -0.98481 0.42365 -1.25
endloop
endfacet
facet normal -0.962276512826354 -0.25784901673526994 0.08682048969803277
outer loop
vertex -0.92542 -0.08682 -1.07635
vertex -0.96985 0.07899 -1.07635
vertex -0.98481 0.07635 -1.25
endloop
endfacet
facet normal -0.9622726063006514 -0.25787099837432514 0.0867984986090223
outer loop
vertex -0.98481 0.07635 -1.25
vertex -0.93969 -0.09202 -1.25
vertex -0.92542 -0.08682 -1.07635
endloop
endfacet
facet normal -0.992433945631791 -0.08681838387609785 0.08681838387609829
outer loop
vertex -0.98481 0.07635 -1.25
vertex -0.96985 0.07899 -1.07635
vertex -0.98481 0.25 -1.07635
endloop
endfacet
facet normal -0.9924348791411948 -0.08681304816674223 0.08681304816674207
outer loop
vertex -0.98481 0.25 -1.07635
vertex -1 0.25 -1.25
vertex -0.98481 0.07635 -1.25
endloop
endfacet
facet normal -0.9624952352184964 -0.08419933757598111 0.2579019071923604
outer loop
vertex -0.98481 0.25 -1.07635
vertex -0.96985 0.07899 -1.07635
vertex -0.92542 0.08682 -0.90798
endloop
endfacet
facet normal -0.9624905016289854 -0.08416925761886233 0.2579293902328191
outer loop
vertex -0.92542 0.08682 -0.90798
vertex -0.93969 0.25 -0.90798
vertex -0.98481 0.25 -1.07635
endloop
endfacet
facet normal -0.9332400865629479 -0.25006849433684225 0.2579315586974313
outer loop
vertex -0.96985 0.07899 -1.07635
vertex -0.92542 -0.08682 -1.07635
vertex -0.88302 -0.07139 -0.90798
endloop
endfacet
facet normal -0.9332393832185231 -0.25010650305584603 0.25789724841317446
outer loop
vertex -0.88302 -0.07139 -0.90798
vertex -0.92542 0.08682 -0.90798
vertex -0.96985 0.07899 -1.07635
endloop
endfacet
facet normal -0.875637810102277 -0.40832705439593875 0.2579291417572368
outer loop
vertex -0.88302 -0.07139 -0.90798
vertex -0.92542 -0.08682 -1.07635
vertex -0.85287 -0.2424 -1.07635
endloop
endfacet
facet normal -0.8756717512276522 -0.4082850506532277 0.2578804015721009
outer loop
vertex -0.85287 -0.2424 -1.07635
vertex -0.8138 -0.21985 -0.90798
vertex -0.88302 -0.07139 -0.90798
endloop
endfacet
facet normal -0.9029027674492414 -0.42098884574193446 0.08680428729835127
outer loop
vertex -0.92542 -0.08682 -1.07635
vertex -0.93969 -0.09202 -1.25
vertex -0.86603 -0.25 -1.25
endloop
endfacet
facet normal -0.9028789925119177 -0.4210301510910135 0.08685123345665706
outer loop
vertex -0.86603 -0.25 -1.25
vertex -0.85287 -0.2424 -1.07635
vertex -0.92542 -0.08682 -1.07635
endloop
endfacet
facet normal -0.9029027674492406 -0.42098884574193607 -0.08680428729835155
outer loop
vertex -0.86603 -0.25 -1.25
vertex -0.93969 -0.09202 -1.25
vertex -0.92542 -0.08682 -1.42365
endloop
endfacet
facet normal -0.9028789925119178 -0.42103015109101327 -0.08685123345665709
outer loop
vertex -0.92542 -0.08682 -1.42365
vertex -0.85287 -0.2424 -1.42365
vertex -0.86603 -0.25 -1.25
endloop
endfacet
facet normal -0.9622765128263543 -0.2578490167352687 -0.08682048969803235
outer loop
vertex -0.98481 0.07635 -1.25
vertex -0.96985 0.07899 -1.42365
vertex -0.92542 -0.08682 -1.42365
endloop
endfacet
facet normal -0.9622726063006509 -0.2578709983743264 -0.08679849860902275
outer loop
vertex -0.92542 -0.08682 -1.42365
vertex -0.93969 -0.09202 -1.25
vertex -0.98481 0.07635 -1.25
endloop
endfacet
facet normal -0.933239383218523 -0.25010650305584664 -0.2578972484131751
outer loop
vertex -0.96985 0.07899 -1.42365
vertex -0.92542 0.08682 -1.59202
vertex -0.88302 -0.07139 -1.59202
endloop
endfacet
facet normal -0.9332400865629478 -0.2500684943368425 -0.2579315586974315
outer loop
vertex -0.88302 -0.07139 -1.59202
vertex -0.92542 -0.08682 -1.42365
vertex -0.96985 0.07899 -1.42365
endloop
endfacet
facet normal -0.8760157352275907 -0.23471358370142698 -0.4213145680601337
outer loop
vertex -0.92542 0.08682 -1.59202
vertex -0.85287 0.09962 -1.75
vertex -0.8138 -0.0462 -1.75
endloop
endfacet
facet normal -0.8760217352957698 -0.23477227467632159 -0.42126938926617236
outer loop
vertex -0.8138 -0.0462 -1.75
vertex -0.88302 -0.07139 -1.59202
vertex -0.92542 0.08682 -1.59202
endloop
endfacet
facet normal -0.7922412169196676 -0.21227986088342068 -0.5720936242233081
outer loop
vertex -0.85287 0.09962 -1.75
vertex -0.75441 0.11698 -1.89279
vertex -0.71985 -0.012 -1.89279
endloop
endfacet
facet normal -0.7922389385417143 -0.21226700952424127 -0.5721015477395018
outer loop
vertex -0.71985 -0.012 -1.89279
vertex -0.8138 -0.0462 -1.75
vertex -0.85287 0.09962 -1.75
endloop
endfacet
facet normal -0.6842818242915276 -0.18335187013263016 -0.7057906748201805
outer loop
vertex -0.75441 0.11698 -1.89279
vertex -0.63302 0.13838 -2.01604
vertex -0.60402 0.03015 -2.01604
endloop
endfacet
facet normal -0.6842819169415818 -0.1833523263257951 -0.7057904664825626
outer loop
vertex -0.60402 0.03015 -2.01604
vertex -0.71985 -0.012 -1.89279
vertex -0.75441 0.11698 -1.89279
endloop
endfacet
facet normal -0.5555144424043823 -0.1487926199812186 -0.8180858515579359
outer loop
vertex -0.4924 0.16318 -2.11603
vertex -0.46985 0.07899 -2.11603
vertex -0.60402 0.03015 -2.01604
endloop
endfacet
facet normal -0.5554757485741278 -0.14883855408528027 -0.8181037694350365
outer loop
vertex -0.60402 0.03015 -2.01604
vertex -0.63302 0.13838 -2.01604
vertex -0.4924 0.16318 -2.11603
endloop
endfacet
facet normal -0.5211946515905265 -0.24307900955304382 -0.8180884611508348
outer loop
vertex -0.60402 0.03015 -2.01604
vertex -0.46985 0.07899 -2.11603
vertex -0.43301 0 -2.11603
endloop
endfacet
facet normal -0.5211945833061494 -0.24304277643831199 -0.8180992697426674
outer loop
vertex -0.43301 0 -2.11603
vertex -0.55667 -0.07139 -2.01604
vertex -0.60402 0.03015 -2.01604
endloop
endfacet
facet normal -0.3841908266989407 -0.1791183957902331 -0.9057118796669932
outer loop
vertex -0.46985 0.07899 -2.11603
vertex -0.32139 0.13302 -2.18969
vertex -0.2962 0.07899 -2.18969
endloop
endfacet
facet normal -0.38418644565447774 -0.17918000579707397 -0.905701551559861
outer loop
vertex -0.2962 0.07899 -2.18969
vertex -0.43301 0 -2.11603
vertex -0.46985 0.07899 -2.11603
endloop
endfacet
facet normal -0.2353847548142129 -0.10984049805402454 -0.9656754538603002
outer loop
vertex -0.16318 0.19061 -2.23481
vertex -0.15038 0.16318 -2.23481
vertex -0.2962 0.07899 -2.18969
endloop
endfacet
facet normal -0.2354429011652647 -0.10976877068948748 -0.9656694347820076
outer loop
vertex -0.2962 0.07899 -2.18969
vertex -0.32139 0.13302 -2.18969
vertex -0.16318 0.19061 -2.23481
endloop
endfacet
facet normal -0.2128106800251 -0.14896747601755575 -0.9656709095526351
outer loop
vertex -0.15038 0.16318 -2.23481
vertex -0.13302 0.13838 -2.23481
vertex -0.262 0.03015 -2.18969
endloop
endfacet
facet normal -0.2127773461898053 -0.14899642177911213 -0.9656737892505133
outer loop
vertex -0.262 0.03015 -2.18969
vertex -0.2962 0.07899 -2.18969
vertex -0.15038 0.16318 -2.23481
endloop
endfacet
facet normal -0.1836816076694643 -0.18368160766947156 -0.9656718562782697
outer loop
vertex -0.262 0.03015 -2.18969
vertex -0.13302 0.13838 -2.23481
vertex -0.11162 0.11698 -2.23481
endloop
endfacet
facet normal -0.18368160766948022 -0.183681607669471 -0.9656718562782669
outer loop
vertex -0.11162 0.11698 -2.23481
vertex -0.21985 -0.012 -2.18969
vertex -0.262 0.03015 -2.18969
endloop
endfacet
facet normal -0.06185322992281579 -0.06185322992280824 -0.9961668313571936
outer loop
vertex -0.13302 0.13838 -2.23481
vertex 0 0.25 -2.25
vertex -0.11162 0.11698 -2.23481
endloop
endfacet
facet normal -0.05016358081627538 -0.07166225830894668 -0.9961667209326713
outer loop
vertex -0.11162 0.11698 -2.23481
vertex 0 0.25 -2.25
vertex -0.08682 0.09962 -2.23481
endloop
endfacet
facet normal -0.036989799915768076 -0.0792679852883253 -0.9961668239860839
outer loop
vertex -0.08682 0.09962 -2.23481
vertex 0 0.25 -2.25
vertex -0.05939 0.08682 -2.23481
endloop
endfacet
facet normal -0.02262654621885853 -0.08449555701641956 -0.9961669238891094
outer loop
vertex -0.05939 0.08682 -2.23481
vertex 0 0.25 -2.25
vertex -0.03015 0.07899 -2.23481
endloop
endfacet
facet normal -0.0076301258765472954 -0.08713950574918614 -0.9961668975211412
outer loop
vertex -0.03015 0.07899 -2.23481
vertex 0 0.25 -2.25
vertex 0 0.07635 -2.23481
endloop
endfacet
facet normal 0.0076301258765472954 -0.08713950574918614 -0.9961668975211412
outer loop
vertex 0 0.07635 -2.23481
vertex 0 0.25 -2.25
vertex 0.03015 0.07899 -2.23481
endloop
endfacet
facet normal 0.02262654621885853 -0.08449555701641956 -0.9961669238891094
outer loop
vertex 0.03015 0.07899 -2.23481
vertex 0 0.25 -2.25
vertex 0.05939 0.08682 -2.23481
endloop
endfacet
facet normal 0.036989799915768076 -0.0792679852883253 -0.9961668239860839
outer loop
vertex 0.05939 0.08682 -2.23481
vertex 0 0.25 -2.25
vertex 0.08682 0.09962 -2.23481
endloop
endfacet
facet normal 0.050163580816275345 -0.07166225830894664 -0.9961667209326713
outer loop
vertex 0.08682 0.09962 -2.23481
vertex 0 0.25 -2.25
vertex 0.11162 0.11698 -2.23481
endloop
endfacet
facet normal 0.06185322992281579 -0.06185322992280824 -0.9961668313571936
outer loop
vertex 0.11162 0.11698 -2.23481
vertex 0 0.25 -2.25
vertex 0.13302 0.13838 -2.23481
endloop
endfacet
facet normal 0.07166225830895723 -0.05016358081626263 -0.9961667209326712
outer loop
vertex 0.13302 0.13838 -2.23481
vertex 0 0.25 -2.25
vertex 0.15038 0.16318 -2.23481
endloop
endfacet
facet normal 0.07926798528832249 -0.03698979991580602 -0.9961668239860826
outer loop
vertex 0.15038 0.16318 -2.23481
vertex 0 0.25 -2.25
vertex 0.16318 0.19061 -2.23481
endloop
endfacet
facet normal 0.08449555701641354 -0.02262654621882931 -0.9961669238891107
outer loop
vertex 0.16318 0.19061 -2.23481
vertex 0 0.25 -2.25
vertex 0.17101 0.21985 -2.23481
endloop
endfacet
facet normal 0.08713950574918272 -0.007630125876545635 -0.9961668975211415
outer loop
vertex 0.17101 0.21985 -2.23481
vertex 0 0.25 -2.25
vertex 0.17365 0.25 -2.23481
endloop
endfacet
facet normal 0.08713950574918272 0.007630125876545637 -0.9961668975211414
outer loop
vertex 0 0.25 -2.25
vertex 0.17101 0.28015 -2.23481
vertex 0.17365 0.25 -2.23481
endloop
endfacet
facet normal 0.2587810014834346 0.02265943097566331 -0.9656702042928994
outer loop
vertex 0.17365 0.25 -2.23481
vertex 0.17101 0.28015 -2.23481
vertex 0.33682 0.30939 -2.18969
endloop
endfacet
facet normal 0.25878146598040636 0.02265808424142316 -0.9656701114166992
outer loop
vertex 0.33682 0.30939 -2.18969
vertex 0.34202 0.25 -2.18969
vertex 0.17365 0.25 -2.23481
endloop
endfacet
facet normal 0.25092699798503526 0.06723048409288268 -0.9656685268200754
outer loop
vertex 0.16318 0.30939 -2.23481
vertex 0.32139 0.36698 -2.18969
vertex 0.33682 0.30939 -2.18969
endloop
endfacet
facet normal 0.2509276099406412 0.06719436340065674 -0.9656708818726275
outer loop
vertex 0.33682 0.30939 -2.18969
vertex 0.17101 0.28015 -2.23481
vertex 0.16318 0.30939 -2.23481
endloop
endfacet
facet normal 0.4094636342067524 0.109673416692746 -0.9057103697833752
outer loop
vertex 0.32139 0.36698 -2.18969
vertex 0.46985 0.42101 -2.11603
vertex 0.4924 0.33682 -2.11603
endloop
endfacet
facet normal 0.40946722116619855 0.10970792190648535 -0.9057045691953817
outer loop
vertex 0.4924 0.33682 -2.11603
vertex 0.33682 0.30939 -2.18969
vertex 0.32139 0.36698 -2.18969
endloop
endfacet
facet normal 0.5554972904715461 0.14884432619121213 -0.8180880923466952
outer loop
vertex 0.46985 0.42101 -2.11603
vertex 0.60402 0.46985 -2.01604
vertex 0.63302 0.36162 -2.01604
endloop
endfacet
facet normal 0.555486747931065 0.14878520211243207 -0.8181060056651167
outer loop
vertex 0.63302 0.36162 -2.01604
vertex 0.4924 0.33682 -2.11603
vertex 0.46985 0.42101 -2.11603
endloop
endfacet
facet normal 0.6842819169415818 0.1833523263257951 -0.7057904664825625
outer loop
vertex 0.60402 0.46985 -2.01604
vertex 0.71985 0.512 -1.89279
vertex 0.75441 0.38302 -1.89279
endloop
endfacet
facet normal 0.6842818242915273 0.18335187013263007 -0.7057906748201811
outer loop
vertex 0.75441 0.38302 -1.89279
vertex 0.63302 0.36162 -2.01604
vertex 0.60402 0.46985 -2.01604
endloop
endfacet
facet normal 0.7922389385417159 0.21226700952424055 -0.5721015477395001
outer loop
vertex 0.71985 0.512 -1.89279
vertex 0.8138 0.5462 -1.75
vertex 0.85287 0.40038 -1.75
endloop
endfacet
facet normal 0.792241216919667 0.21227986088342116 -0.5720936242233088
outer loop
vertex 0.85287 0.40038 -1.75
vertex 0.75441 0.38302 -1.89279
vertex 0.71985 0.512 -1.89279
endloop
endfacet
facet normal 0.8760368333092642 0.2347192365751802 -0.42126754760726715
outer loop
vertex 0.85287 0.40038 -1.75
vertex 0.8138 0.5462 -1.75
vertex 0.88302 0.57139 -1.59202
endloop
endfacet
facet normal 0.8760022901151217 0.2347670634023237 -0.42131272667047626
outer loop
vertex 0.88302 0.57139 -1.59202
vertex 0.92542 0.41318 -1.59202
vertex 0.85287 0.40038 -1.75
endloop
endfacet
facet normal 0.933239383218523 0.2501065030558461 -0.25789724841317463
outer loop
vertex 0.96985 0.42101 -1.42365
vertex 0.92542 0.41318 -1.59202
vertex 0.88302 0.57139 -1.59202
endloop
endfacet
facet normal 0.9332400865629478 0.2500684943368425 -0.25793155869743145
outer loop
vertex 0.88302 0.57139 -1.59202
vertex 0.92542 0.58682 -1.42365
vertex 0.96985 0.42101 -1.42365
endloop
endfacet
facet normal 0.875659682913461 0.40827942375905685 -0.2579302848733926
outer loop
vertex 0.92542 0.58682 -1.42365
vertex 0.88302 0.57139 -1.59202
vertex 0.8138 0.71985 -1.59202
endloop
endfacet
facet normal 0.8756493255366588 0.408332424268446 -0.2578815425311561
outer loop
vertex 0.8138 0.71985 -1.59202
vertex 0.85287 0.7424 -1.42365
vertex 0.92542 0.58682 -1.42365
endloop
endfacet
facet normal 0.791431888167965 0.5541851821821606 -0.25790376158678857
outer loop
vertex 0.8138 0.71985 -1.59202
vertex 0.71985 0.85402 -1.59202
vertex 0.75441 0.88302 -1.42365
endloop
endfacet
facet normal 0.7914551351131723 0.5541649310428288 -0.2578759358786454
outer loop
vertex 0.75441 0.88302 -1.42365
vertex 0.85287 0.7424 -1.42365
vertex 0.8138 0.71985 -1.59202
endloop
endfacet
facet normal 0.6831857568511911 0.6831857568511925 -0.2579039419460826
outer loop
vertex 0.71985 0.85402 -1.59202
vertex 0.60402 0.96985 -1.59202
vertex 0.63302 1.00441 -1.42365
endloop
endfacet
facet normal 0.6831857568511926 0.6831857568511917 -0.2579039419460815
outer loop
vertex 0.63302 1.00441 -1.42365
vertex 0.75441 0.88302 -1.42365
vertex 0.71985 0.85402 -1.59202
endloop
endfacet
facet normal 0.554189542356525 0.7914381149332088 -0.2578752825953554
outer loop
vertex 0.60402 0.96985 -1.59202
vertex 0.46985 1.0638 -1.59202
vertex 0.4924 1.10287 -1.42365
endloop
endfacet
facet normal 0.5541607709560233 0.7914491937013586 -0.2579031091764803
outer loop
vertex 0.4924 1.10287 -1.42365
vertex 0.63302 1.00441 -1.42365
vertex 0.60402 0.96985 -1.59202
endloop
endfacet
facet normal 0.4082794237590567 0.8756596829134609 -0.25793028487339287
outer loop
vertex 0.46985 1.0638 -1.59202
vertex 0.32139 1.13302 -1.59202
vertex 0.33682 1.17542 -1.42365
endloop
endfacet
facet normal 0.4083324242684441 0.8756493255366595 -0.2578815425311564
outer loop
vertex 0.33682 1.17542 -1.42365
vertex 0.4924 1.10287 -1.42365
vertex 0.46985 1.0638 -1.59202
endloop
endfacet
facet normal 0.25010650305584625 0.9332393832185228 -0.2578972484131755
outer loop
vertex 0.32139 1.13302 -1.59202
vertex 0.16318 1.17542 -1.59202
vertex 0.17101 1.21985 -1.42365
endloop
endfacet
facet normal 0.2500684943368421 0.9332400865629478 -0.2579315586974315
outer loop
vertex 0.17101 1.21985 -1.42365
vertex 0.33682 1.17542 -1.42365
vertex 0.32139 1.13302 -1.59202
endloop
endfacet
facet normal 0.08419871320325759 0.9624880979204018 -0.25792874608403454
outer loop
vertex 0 1.18969 -1.59202
vertex 0 1.23481 -1.42365
vertex 0.17101 1.21985 -1.42365
endloop
endfacet
facet normal 0.08416991172433225 0.9624979814419444 -0.2579012634333155
outer loop
vertex 0.17101 1.21985 -1.42365
vertex 0.16318 1.17542 -1.59202
vertex 0 1.18969 -1.59202
endloop
endfacet
facet normal 0.08681842470789343 0.9924344123861637 -0.08681300733743642
outer loop
vertex 0.17101 1.21985 -1.42365
vertex 0 1.23481 -1.42365
vertex 0 1.25 -1.25
endloop
endfacet
facet normal 0.0868130079581831 0.9924344194824511 -0.08681834296842383
outer loop
vertex 0 1.25 -1.25
vertex 0.17365 1.23481 -1.25
vertex 0.17101 1.21985 -1.42365
endloop
endfacet
facet normal -0.0868130079581831 0.9924344194824511 -0.08681834296842322
outer loop
vertex -0.17101 1.21985 -1.42365
vertex -0.17365 1.23481 -1.25
vertex 0 1.25 -1.25
endloop
endfacet
facet normal -0.08681842470789343 0.9924344123861637 -0.08681300733743642
outer loop
vertex 0 1.25 -1.25
vertex 0 1.23481 -1.42365
vertex -0.17101 1.21985 -1.42365
endloop
endfacet
facet normal -0.08714204243958792 0.9961958966184599 0
outer loop
vertex 0 1.25 -1.25
vertex -0.17365 1.23481 -1.25
vertex 0 1.25 2.25
endloop
endfacet
facet normal -0.2588382349861957 0.965881950900393 0.008650146477478995
outer loop
vertex -0.17365 1.23481 -1.25
vertex -0.34202 1.18969 -1.25
vertex 0 1.25 2.25
endloop
endfacet
facet normal -0.4224446930985865 0.9060251509057131 0.025669187737843813
outer loop
vertex -0.34202 1.18969 -1.25
vertex -0.5 1.11603 -1.25
vertex 0 1.25 2.25
endloop
endfacet
facet normal -0.5728721819385401 0.8180859971897602 0.05052488855021634
outer loop
vertex -0.5 1.11603 -1.25
vertex -0.64279 1.01604 -1.25
vertex 0 1.25 2.25
endloop
endfacet
facet normal -0.7047070685038475 0.7047070685038471 0.08231582594755163
outer loop
vertex -0.64279 1.01604 -1.25
vertex -0.76604 0.89279 -1.25
vertex 0 1.25 2.25
endloop
endfacet
facet normal -0.7188705397144889 0.6896847310144607 0.08694894442205722
outer loop
vertex -0.76604 0.89279 -1.25
vertex -0.75441 0.88302 -1.07635
vertex 0 1.25 2.25
endloop
endfacet
facet normal -0.8130822627377107 0.5693079191377827 0.1215965757261784
outer loop
vertex -0.75441 0.88302 -1.07635
vertex -0.85287 0.7424 -1.07635
vertex 0 1.25 2.25
endloop
endfacet
facet normal -0.893795665334385 0.4167944177915519 0.16556485716257935
outer loop
vertex -0.85287 0.7424 -1.07635
vertex -0.92542 0.58682 -1.07635
vertex 0 1.25 2.25
endloop
endfacet
facet normal -0.9439299430159623 0.2529329194149875 0.21218199959962114
outer loop
vertex -0.92542 0.58682 -1.07635
vertex -0.96985 0.42101 -1.07635
vertex 0 1.25 2.25
endloop
endfacet
facet normal -0.9620102048771424 0.0898619788863368 0.25780067971762627
outer loop
vertex -0.98481 0.25 -1.07635
vertex -0.93969 0.25 -0.90798
vertex 0 1.25 2.25
endloop
endfacet
facet normal -0.9620609708779996 0.08416134801669437 0.2595294892941718
outer loop
vertex 0 1.25 2.25
vertex -0.96985 0.42101 -1.07635
vertex -0.98481 0.25 -1.07635
endloop
endfacet
facet normal -0.9584674282149002 0 0.2852020144583751
outer loop
vertex 0 1.25 2.25
vertex -0.93969 0.25 -0.90798
vertex 0 0.25 2.25
endloop
endfacet
facet normal -0.9551182736010099 -0.08352456038905737 0.2842054384512039
outer loop
vertex -0.93969 0.25 -0.90798
vertex -0.92542 0.08682 -0.90798
vertex 0 0.25 2.25
endloop
endfacet
facet normal -0.9260829778397065 -0.24818859907972687 0.2842054493537804
outer loop
vertex -0.92542 0.08682 -0.90798
vertex -0.88302 -0.07139 -0.90798
vertex 0 0.25 2.25
endloop
endfacet
facet normal -0.8689527950403644 -0.4051523135706187 0.28420528285011426
outer loop
vertex -0.88302 -0.07139 -0.90798
vertex -0.8138 -0.21985 -0.90798
vertex 0 0.25 2.25
endloop
endfacet
facet normal -0.7853641825236071 -0.5499363862867478 0.2842060376679205
outer loop
vertex -0.71985 -0.35402 -0.90798
vertex 0 0.25 2.25
vertex -0.8138 -0.21985 -0.90798
endloop
endfacet
facet normal -0.7914381149332084 -0.5541895423565251 0.2578752825953563
outer loop
vertex -0.71985 -0.35402 -0.90798
vertex -0.8138 -0.21985 -0.90798
vertex -0.85287 -0.2424 -1.07635
endloop
endfacet
facet normal -0.79144919370136 -0.5541607709560215 0.2579031091764792
outer loop
vertex -0.85287 -0.2424 -1.07635
vertex -0.75441 -0.38302 -1.07635
vertex -0.71985 -0.35402 -0.90798
endloop
endfacet
facet normal -0.8160652598855876 -0.5713965686839364 0.0868530535104647
outer loop
vertex -0.75441 -0.38302 -1.07635
vertex -0.85287 -0.2424 -1.07635
vertex -0.86603 -0.25 -1.25
endloop
endfacet
facet normal -0.8160403021900202 -0.5714396653545767 0.08680399795556623
outer loop
vertex -0.86603 -0.25 -1.25
vertex -0.76604 -0.39279 -1.25
vertex -0.75441 -0.38302 -1.07635
endloop
endfacet
facet normal -0.8160368267234435 -0.571437231627404 -0.08685267837632436
outer loop
vertex -0.76604 -0.39279 -1.25
vertex -0.86603 -0.25 -1.25
vertex -0.85287 -0.2424 -1.42365
endloop
endfacet
facet normal -0.8160687892304935 -0.5713990398779302 -0.08680362014602906
outer loop
vertex -0.85287 -0.2424 -1.42365
vertex -0.75441 -0.38302 -1.42365
vertex -0.76604 -0.39279 -1.25
endloop
endfacet
facet normal -0.79144919370136 -0.5541607709560215 -0.2579031091764793
outer loop
vertex -0.71985 -0.35402 -1.59202
vertex -0.75441 -0.38302 -1.42365
vertex -0.85287 -0.2424 -1.42365
endloop
endfacet
facet normal -0.7914381149332084 -0.5541895423565252 -0.25787528259535647
outer loop
vertex -0.85287 -0.2424 -1.42365
vertex -0.8138 -0.21985 -1.59202
vertex -0.71985 -0.35402 -1.59202
endloop
endfacet
facet normal -0.8756596829134609 -0.4082794237590577 -0.25793028487339204
outer loop
vertex -0.92542 -0.08682 -1.42365
vertex -0.88302 -0.07139 -1.59202
vertex -0.8138 -0.21985 -1.59202
endloop
endfacet
facet normal -0.8756493255366591 -0.40833242426844535 -0.25788154253115597
outer loop
vertex -0.8138 -0.21985 -1.59202
vertex -0.85287 -0.2424 -1.42365
vertex -0.92542 -0.08682 -1.42365
endloop
endfacet
facet normal -0.8219547506013095 -0.38331052619226286 -0.42126408400687293
outer loop
vertex -0.88302 -0.07139 -1.59202
vertex -0.8138 -0.0462 -1.75
vertex -0.75 -0.18301 -1.75
endloop
endfacet
facet normal -0.8219597623113872 -0.38324164587898496 -0.4213169709434626
outer loop
vertex -0.75 -0.18301 -1.75
vertex -0.8138 -0.21985 -1.59202
vertex -0.88302 -0.07139 -1.59202
endloop
endfacet
facet normal -0.7433192899322112 -0.34666121900325575 -0.5721035155055858
outer loop
vertex -0.8138 -0.0462 -1.75
vertex -0.71985 -0.012 -1.89279
vertex -0.66341 -0.13302 -1.89279
endloop
endfacet
facet normal -0.7433192705782433 -0.3466396422987494 -0.5721166143139205
outer loop
vertex -0.66341 -0.13302 -1.89279
vertex -0.75 -0.18301 -1.75
vertex -0.8138 -0.0462 -1.75
endloop
endfacet
facet normal -0.6420628021360136 -0.29940588616447306 -0.705770127905196
outer loop
vertex -0.60402 0.03015 -2.01604
vertex -0.55667 -0.07139 -2.01604
vertex -0.66341 -0.13302 -1.89279
endloop
endfacet
facet normal -0.642037116121621 -0.29942633311769945 -0.705784820294345
outer loop
vertex -0.66341 -0.13302 -1.89279
vertex -0.71985 -0.012 -1.89279
vertex -0.60402 0.03015 -2.01604
endloop
endfacet
facet normal -0.5803254706069664 -0.4063353088126114 -0.7057718930199494
outer loop
vertex -0.66341 -0.13302 -1.89279
vertex -0.55667 -0.07139 -2.01604
vertex -0.4924 -0.16318 -2.01604
endloop
endfacet
facet normal -0.5803227785788859 -0.4063532785825263 -0.7057637605089349
outer loop
vertex -0.4924 -0.16318 -2.01604
vertex -0.58682 -0.2424 -1.89279
vertex -0.66341 -0.13302 -1.89279
endloop
endfacet
facet normal -0.4710712843478669 -0.3298620745839732 -0.8180970949795683
outer loop
vertex -0.55667 -0.07139 -2.01604
vertex -0.43301 0 -2.11603
vertex -0.38302 -0.07139 -2.11603
endloop
endfacet
facet normal -0.4710751581811878 -0.3298398563711183 -0.8181038225638904
outer loop
vertex -0.38302 -0.07139 -2.11603
vertex -0.4924 -0.16318 -2.01604
vertex -0.55667 -0.07139 -2.01604
endloop
endfacet
facet normal -0.34724610227623637 -0.24315759004601586 -0.9057011266731291
outer loop
vertex -0.2962 0.07899 -2.18969
vertex -0.262 0.03015 -2.18969
vertex -0.38302 -0.07139 -2.11603
endloop
endfacet
facet normal -0.3472480124278561 -0.24315629837888142 -0.9057007410969609
outer loop
vertex -0.38302 -0.07139 -2.11603
vertex -0.43301 0 -2.11603
vertex -0.2962 0.07899 -2.18969
endloop
endfacet
facet normal -0.29975664280304115 -0.2997566428030425 -0.9056996799110062
outer loop
vertex -0.262 0.03015 -2.18969
vertex -0.21985 -0.012 -2.18969
vertex -0.32139 -0.13302 -2.11603
endloop
endfacet
facet normal -0.2997566428030463 -0.2997566428030408 -0.9056996799110052
outer loop
vertex -0.32139 -0.13302 -2.11603
vertex -0.38302 -0.07139 -2.11603
vertex -0.262 0.03015 -2.18969
endloop
endfacet
facet normal -0.24315759004601564 -0.3472461022762394 -0.905701126673128
outer loop
vertex -0.32139 -0.13302 -2.11603
vertex -0.21985 -0.012 -2.18969
vertex -0.17101 -0.0462 -2.18969
endloop
endfacet
facet normal -0.24315629837888417 -0.3472480124278527 -0.9057007410969613
outer loop
vertex -0.17101 -0.0462 -2.18969
vertex -0.25 -0.18301 -2.11603
vertex -0.32139 -0.13302 -2.11603
endloop
endfacet
facet normal -0.14895933453860316 -0.21279904934083485 -0.965674728494773
outer loop
vertex -0.11162 0.11698 -2.23481
vertex -0.08682 0.09962 -2.23481
vertex -0.17101 -0.0462 -2.18969
endloop
endfacet
facet normal -0.14900055635974013 -0.21278325066111464 -0.9656718502900337
outer loop
vertex -0.17101 -0.0462 -2.18969
vertex -0.21985 -0.012 -2.18969
vertex -0.11162 0.11698 -2.23481
endloop
endfacet
facet normal -0.10985305328661604 -0.2354116602853063 -0.9656674670326857
outer loop
vertex -0.08682 0.09962 -2.23481
vertex -0.05939 0.08682 -2.23481
vertex -0.11698 -0.07139 -2.18969
endloop
endfacet
facet normal -0.10976240032420237 -0.2354292373766004 -0.965673490193938
outer loop
vertex -0.11698 -0.07139 -2.18969
vertex -0.17101 -0.0462 -2.18969
vertex -0.08682 0.09962 -2.23481
endloop
endfacet
facet normal -0.06719436340068377 -0.2509276099406399 -0.9656708818726258
outer loop
vertex -0.05939 0.08682 -2.23481
vertex -0.03015 0.07899 -2.23481
vertex -0.05939 -0.08682 -2.18969
endloop
endfacet
facet normal -0.06723048409287757 -0.250926997985036 -0.9656685268200756
outer loop
vertex -0.05939 -0.08682 -2.18969
vertex -0.11698 -0.07139 -2.18969
vertex -0.05939 0.08682 -2.23481
endloop
endfacet
facet normal -0.022659470935709754 -0.2587814578451112 -0.9656700810589882
outer loop
vertex -0.03015 0.07899 -2.23481
vertex 0 0.07635 -2.23481
vertex 0 -0.09202 -2.18969
endloop
endfacet
facet normal -0.0226580639564753 -0.2587812343030621 -0.965670173977807
outer loop
vertex 0 -0.09202 -2.18969
vertex -0.05939 -0.08682 -2.18969
vertex -0.03015 0.07899 -2.23481
endloop
endfacet
facet normal 0.022659430975618403 -0.2587810014834279 -0.9656702042929022
outer loop
vertex 0 0.07635 -2.23481
vertex 0.03015 0.07899 -2.23481
vertex 0.05939 -0.08682 -2.18969
endloop
endfacet
facet normal 0.02265808424144092 -0.25878146598040785 -0.9656701114166985
outer loop
vertex 0.05939 -0.08682 -2.18969
vertex 0 -0.09202 -2.18969
vertex 0 0.07635 -2.23481
endloop
endfacet
facet normal 0.06719736865793564 -0.2509388326382977 -0.9656677564874878
outer loop
vertex 0.03015 0.07899 -2.23481
vertex 0.05939 0.08682 -2.23481
vertex 0.11698 -0.07139 -2.18969
endloop
endfacet
facet normal 0.06722895752895384 -0.25092130033001436 -0.9656701136051922
outer loop
vertex 0.11698 -0.07139 -2.18969
vertex 0.05939 -0.08682 -2.18969
vertex 0.03015 0.07899 -2.23481
endloop
endfacet
facet normal 0.10984049805402327 -0.235384754814211 -0.9656754538603006
outer loop
vertex 0.05939 0.08682 -2.23481
vertex 0.08682 0.09962 -2.23481
vertex 0.17101 -0.0462 -2.18969
endloop
endfacet
facet normal 0.10976877068948909 -0.23544290116526423 -0.9656694347820077
outer loop
vertex 0.17101 -0.0462 -2.18969
vertex 0.11698 -0.07139 -2.18969
vertex 0.05939 0.08682 -2.23481
endloop
endfacet
facet normal 0.14896747601753307 -0.21281068002508075 -0.9656709095526428
outer loop
vertex 0.08682 0.09962 -2.23481
vertex 0.11162 0.11698 -2.23481
vertex 0.21985 -0.012 -2.18969
endloop
endfacet
facet normal 0.14899642177911396 -0.21277734618981914 -0.96567378925051
outer loop
vertex 0.21985 -0.012 -2.18969
vertex 0.17101 -0.0462 -2.18969
vertex 0.08682 0.09962 -2.23481
endloop
endfacet
facet normal 0.18368160766946687 -0.1836816076694715 -0.9656718562782692
outer loop
vertex 0.11162 0.11698 -2.23481
vertex 0.13302 0.13838 -2.23481
vertex 0.262 0.03015 -2.18969
endloop
endfacet
facet normal 0.18368160766947764 -0.1836816076694711 -0.9656718562782673
outer loop
vertex 0.262 0.03015 -2.18969
vertex 0.21985 -0.012 -2.18969
vertex 0.11162 0.11698 -2.23481
endloop
endfacet
facet normal 0.21279904934082508 -0.14895933453858481 -0.9656747284947779
outer loop
vertex 0.13302 0.13838 -2.23481
vertex 0.15038 0.16318 -2.23481
vertex 0.2962 0.07899 -2.18969
endloop
endfacet
facet normal 0.21278325066111586 -0.14900055635974863 -0.9656718502900321
outer loop
vertex 0.2962 0.07899 -2.18969
vertex 0.262 0.03015 -2.18969
vertex 0.13302 0.13838 -2.23481
endloop
endfacet
facet normal 0.23541166028530855 -0.10985305328661749 -0.965667467032685
outer loop
vertex 0.15038 0.16318 -2.23481
vertex 0.16318 0.19061 -2.23481
vertex 0.32139 0.13302 -2.18969
endloop
endfacet
facet normal 0.23542923737660074 -0.10976240032420069 -0.9656734901939382
outer loop
vertex 0.32139 0.13302 -2.18969
vertex 0.2962 0.07899 -2.18969
vertex 0.15038 0.16318 -2.23481
endloop
endfacet
facet normal 0.25092760994064184 -0.06719436340065689 -0.9656708818726272
outer loop
vertex 0.16318 0.19061 -2.23481
vertex 0.17101 0.21985 -2.23481
vertex 0.33682 0.19061 -2.18969
endloop
endfacet
facet normal 0.2509269979850348 -0.06723048409288256 -0.9656685268200756
outer loop
vertex 0.33682 0.19061 -2.18969
vertex 0.32139 0.13302 -2.18969
vertex 0.16318 0.19061 -2.23481
endloop
endfacet
facet normal 0.2587814659804067 -0.022658084241423185 -0.9656701114166991
outer loop
vertex 0.17365 0.25 -2.23481
vertex 0.34202 0.25 -2.18969
vertex 0.33682 0.19061 -2.18969
endloop
endfacet
facet normal 0.2587810014834332 -0.022659430975663187 -0.9656702042928996
outer loop
vertex 0.33682 0.19061 -2.18969
vertex 0.17101 0.21985 -2.23481
vertex 0.17365 0.25 -2.23481
endloop
endfacet
facet normal 0.4222949740900098 -0.036974808305573766 -0.9057040457064792
outer loop
vertex 0.33682 0.19061 -2.18969
vertex 0.34202 0.25 -2.18969
vertex 0.5 0.25 -2.11603
endloop
endfacet
facet normal 0.42229257635562445 -0.03696640843472411 -0.9057055065540709
outer loop
vertex 0.5 0.25 -2.11603
vertex 0.4924 0.16318 -2.11603
vertex 0.33682 0.19061 -2.18969
endloop
endfacet
facet normal 0.4222925763556235 0.036966408434724186 -0.9057055065540714
outer loop
vertex 0.33682 0.30939 -2.18969
vertex 0.4924 0.33682 -2.11603
vertex 0.5 0.25 -2.11603
endloop
endfacet
facet normal 0.4222949740900093 0.036974808305573724 -0.9057040457064793
outer loop
vertex 0.5 0.25 -2.11603
vertex 0.34202 0.25 -2.18969
vertex 0.33682 0.30939 -2.18969
endloop
endfacet
facet normal 0.572881255107722 0.0501437902024937 -0.8181030912118163
outer loop
vertex 0.4924 0.33682 -2.11603
vertex 0.63302 0.36162 -2.01604
vertex 0.64279 0.25 -2.01604
endloop
endfacet
facet normal 0.5728830572129536 0.050148712679318246 -0.8181015275471295
outer loop
vertex 0.64279 0.25 -2.01604
vertex 0.5 0.25 -2.11603
vertex 0.4924 0.33682 -2.11603
endloop
endfacet
facet normal 0.6460639874568362 0.0565494101187338 -0.761185580740069
outer loop
vertex 0.64279 0.25 -2.01604
vertex 0.63302 0.36162 -2.01604
vertex 1 -0.25 -1.75
endloop
endfacet
facet normal 0.6982873875974784 0.11141266547229339 -0.7070940123453513
outer loop
vertex 0.63302 0.36162 -2.01604
vertex 0.75441 0.38302 -1.89279
vertex 1 -0.25 -1.75
endloop
endfacet
facet normal 0.7992756678580751 0.18081341525255812 -0.5731185877588808
outer loop
vertex 0.75441 0.38302 -1.89279
vertex 0.85287 0.40038 -1.75
vertex 1 -0.25 -1.75
endloop
endfacet
facet normal 0.884144599831643 0.2000126002848015 -0.4222360552059195
outer loop
vertex 1 -0.25 -1.75
vertex 0.85287 0.40038 -1.75
vertex 0.92542 0.41318 -1.59202
endloop
endfacet
facet normal 0.9510952319198498 0.16861327713975444 -0.25881928558652584
outer loop
vertex 1 -0.25 -1.75
vertex 0.92542 0.41318 -1.59202
vertex 0.96985 0.42101 -1.42365
endloop
endfacet
facet normal 0.9924340691753365 0.08681698228499686 -0.08681837321103011
outer loop
vertex 1 -0.25 -1.75
vertex 0.96985 0.42101 -1.42365
vertex 0.98481 0.42365 -1.25
endloop
endfacet
facet normal 0.9924348791411948 0.08681304816674228 -0.0868130481667423
outer loop
vertex 0.98481 0.42365 -1.25
vertex 1 0.25 -1.25
vertex 1 -0.25 -1.75
endloop
endfacet
facet normal 0.9955912596806361 0.08708915194096738 -0.034835660776386744
outer loop
vertex 1 1.25 1.25
vertex 1 0.25 -1.25
vertex 0.98481 0.42365 -1.25
endloop
endfacet
facet normal 0.9655714465953924 0.24518993520174823 -0.08691189329110088
outer loop
vertex 1 1.25 1.25
vertex 0.98481 0.42365 -1.25
vertex 0.96985 0.42101 -1.42365
endloop
endfacet
facet normal 0.9619366212073094 0.2577579402945581 -0.0907677310246989
outer loop
vertex 1 1.25 1.25
vertex 0.96985 0.42101 -1.42365
vertex 0.92542 0.58682 -1.42365
endloop
endfacet
facet normal 0.8987284014319019 0.4190946492086682 -0.12902300362463126
outer loop
vertex 1 1.25 1.25
vertex 0.92542 0.58682 -1.42365
vertex 0.85287 0.7424 -1.42365
endloop
endfacet
facet normal 0.8096201294261669 0.5668837856869597 -0.15217759215199178
outer loop
vertex 0.85287 0.7424 -1.42365
vertex 0.75441 0.88302 -1.42365
vertex 1 1.25 1.25
endloop
endfacet
facet normal 0.6980059835976744 0.6980059835976741 -0.15992277424959433
outer loop
vertex 0.75441 0.88302 -1.42365
vertex 0.63302 1.00441 -1.42365
vertex 1 1.25 1.25
endloop
endfacet
facet normal 0.5668837856869596 0.8096201294261668 -0.15217759215199222
outer loop
vertex 0.63302 1.00441 -1.42365
vertex 0.4924 1.10287 -1.42365
vertex 1 1.25 1.25
endloop
endfacet
facet normal 0.4190946492086671 0.8987284014319026 -0.12902300362463034
outer loop
vertex 0.4924 1.10287 -1.42365
vertex 0.33682 1.17542 -1.42365
vertex 1 1.25 1.25
endloop
endfacet
facet normal 0.25775794029455945 0.9619366212073092 -0.0907677310247
outer loop
vertex 0.33682 1.17542 -1.42365
vertex 0.17101 1.21985 -1.42365
vertex 1 1.25 1.25
endloop
endfacet
facet normal 0.2451899352017511 0.9655714465953921 -0.086911893291098
outer loop
vertex 0.17101 1.21985 -1.42365
vertex 0.17365 1.23481 -1.25
vertex 1 1.25 1.25
endloop
endfacet
facet normal 0.08708915194096681 0.995591259680636 -0.03483566077638672
outer loop
vertex 0.17365 1.23481 -1.25
vertex 0 1.25 -1.25
vertex 1 1.25 1.25
endloop
endfacet
facet normal 0 1 0
outer loop
vertex 0 1.25 -1.25
vertex 0 1.25 2.25
vertex 1 1.25 2.25
endloop
endfacet
facet normal 0 1 0
outer loop
vertex 1 1.25 2.25
vertex 1 1.25 1.25
vertex 0 1.25 -1.25
endloop
endfacet
facet normal 0 0 1
outer loop
vertex 1 1.25 2.25
vertex 0 1.25 2.25
vertex 0 0.25 2.25
endloop
endfacet
facet normal 0 0 1
outer loop
vertex 0 0.25 2.25
vertex 1 0.25 2.25
vertex 1 1.25 2.25
endloop
endfacet
facet normal 0 -0.894427190999916 0.447213595499958
outer loop
vertex 1 -1.25 -0.75
vertex 1 0.25 2.25
vertex 0 0.25 2.25
endloop
endfacet
facet normal 0 -0.894427190999916 0.447213595499958
outer loop
vertex 0 0.25 2.25
vertex 0 -1.25 -0.75
vertex 1 -1.25 -0.75
endloop
endfacet
facet normal -0.7711921042138633 -0.5693945826213621 0.28469729131068106
outer loop
vertex 0 -1.25 -0.75
vertex 0 0.25 2.25
vertex -0.71985 -0.35402 -0.90798
endloop
endfacet
facet normal -0.7748247592917278 -0.5769471728764679 0.25841546412389327
outer loop
vertex 0 -1.25 -0.75
vertex -0.71985 -0.35402 -0.90798
vertex -0.75441 -0.38302 -1.07635
endloop
endfacet
facet normal -0.7675251059749446 -0.6350690941713379 0.08713470793286786
outer loop
vertex 0 -1.25 -0.75
vertex -0.75441 -0.38302 -1.07635
vertex -0.76604 -0.39279 -1.25
endloop
endfacet
facet normal -0.7456463532839217 -0.6663418910997486 0
outer loop
vertex 0 -1.25 -1.75
vertex 0 -1.25 -0.75
vertex -0.76604 -0.39279 -1.25
endloop
endfacet
facet normal -0.7675251059749457 -0.6350690941713366 -0.08713470793286766
outer loop
vertex 0 -1.25 -1.75
vertex -0.76604 -0.39279 -1.25
vertex -0.75441 -0.38302 -1.42365
endloop
endfacet
facet normal -0.7748247592917272 -0.5769471728764687 -0.25841546412389366
outer loop
vertex 0 -1.25 -1.75
vertex -0.75441 -0.38302 -1.42365
vertex -0.71985 -0.35402 -1.59202
endloop
endfacet
facet normal -0.7419752263072492 -0.5215432382032009 -0.4212664409026971
outer loop
vertex -0.8138 -0.21985 -1.59202
vertex -0.75 -0.18301 -1.75
vertex 0 -1.25 -1.75
endloop
endfacet
facet normal -0.7386493267643599 -0.5172251937803815 -0.4322907250790891
outer loop
vertex 0 -1.25 -1.75
vertex -0.71985 -0.35402 -1.59202
vertex -0.8138 -0.21985 -1.59202
endloop
endfacet
facet normal -0.6770375167342343 -0.47407481629801435 -0.5629149753615952
outer loop
vertex -0.66341 -0.13302 -1.89279
vertex -0.58682 -0.2424 -1.89279
vertex 0 -1.25 -1.75
endloop
endfacet
facet normal -0.6710287329320992 -0.471674101630825 -0.5720524289173988
outer loop
vertex 0 -1.25 -1.75
vertex -0.75 -0.18301 -1.75
vertex -0.66341 -0.13302 -1.89279
endloop
endfacet
facet normal -0.5632385580982681 -0.4281755282511788 -0.7067022312673195
outer loop
vertex -0.58682 -0.2424 -1.89279
vertex -0.4924 -0.16318 -2.01604
vertex 0 -1.25 -1.75
endloop
endfacet
facet normal -0.4204439065923575 -0.3909170353725637 -0.8187861704162341
outer loop
vertex -0.4924 -0.16318 -2.01604
vertex -0.38302 -0.07139 -2.11603
vertex 0 -1.25 -1.75
endloop
endfacet
facet normal -0.38563258148839913 -0.3856325814883982 -0.8381974851961722
outer loop
vertex -0.38302 -0.07139 -2.11603
vertex -0.32139 -0.13302 -2.11603
vertex 0 -1.25 -1.75
endloop
endfacet
facet normal -0.2569240027596036 -0.3669094730347737 -0.8940735402657478
outer loop
vertex -0.32139 -0.13302 -2.11603
vertex -0.25 -0.18301 -2.11603
vertex 0 -1.25 -1.75
endloop
endfacet
facet normal -0.21813523258662867 -0.3620124219793482 -0.9062913585801332
outer loop
vertex -0.25 -0.18301 -2.11603
vertex -0.17101 -0.0462 -2.18969
vertex 0 -1.25 -1.75
endloop
endfacet
facet normal -0.16743857085904112 -0.35913878457775034 -0.9181414152518653
outer loop
vertex -0.17101 -0.0462 -2.18969
vertex -0.11698 -0.07139 -2.18969
vertex 0 -1.25 -1.75
endloop
endfacet
facet normal -0.09544526199842344 -0.35623413081587035 -0.9295092500905593
outer loop
vertex -0.11698 -0.07139 -2.18969
vertex -0.05939 -0.08682 -2.18969
vertex 0 -1.25 -1.75
endloop
endfacet
facet normal -0.031065588711553675 -0.35480486799600774 -0.9344241193614066
outer loop
vertex -0.05939 -0.08682 -2.18969
vertex 0 -0.09202 -2.18969
vertex 0 -1.25 -1.75
endloop
endfacet
facet normal 0 -0.3549761979243735 -0.9348753386987785
outer loop
vertex 0 -1.25 -1.75
vertex 0 -0.09202 -2.18969
vertex 1 -1.25 -1.75
endloop
endfacet
facet normal 0.029133534388352776 -0.3327385783316033 -0.9425689766080285
outer loop
vertex 0 -0.09202 -2.18969
vertex 0.05939 -0.08682 -2.18969
vertex 1 -1.25 -1.75
endloop
endfacet
facet normal 0.07924478776270341 -0.2957684593165145 -0.9519670593492084
outer loop
vertex 0.05939 -0.08682 -2.18969
vertex 0.11698 -0.07139 -2.18969
vertex 1 -1.25 -1.75
endloop
endfacet
facet normal 0.12329362352107905 -0.26445234135940954 -0.956485045125416
outer loop
vertex 0.11698 -0.07139 -2.18969
vertex 0.17101 -0.0462 -2.18969
vertex 1 -1.25 -1.75
endloop
endfacet
facet normal 0.16524078928313124 -0.23597544294118158 -0.9576069506252558
outer loop
vertex 0.17101 -0.0462 -2.18969
vertex 0.21985 -0.012 -2.18969
vertex 1 -1.25 -1.75
endloop
endfacet
facet normal 0.20820895929910305 -0.20820895929909805 -0.9556662903624732
outer loop
vertex 0.21985 -0.012 -2.18969
vertex 0.262 0.03015 -2.18969
vertex 1 -1.25 -1.75
endloop
endfacet
facet normal 0.25558830784271186 -0.1789746135999389 -0.9500751047053342
outer loop
vertex 0.262 0.03015 -2.18969
vertex 0.2962 0.07899 -2.18969
vertex 1 -1.25 -1.75
endloop
endfacet
facet normal 0.31194277968979595 -0.14543473293329237 -0.9389038505917554
outer loop
vertex 0.2962 0.07899 -2.18969
vertex 0.32139 0.13302 -2.18969
vertex 1 -1.25 -1.75
endloop
endfacet
facet normal 0.38446090002085653 -0.10300801679669712 -0.9173762395172246
outer loop
vertex 0.32139 0.13302 -2.18969
vertex 0.33682 0.19061 -2.18969
vertex 1 -1.25 -1.75
endloop
endfacet
facet normal 0.4138934210216222 -0.086062403443054 -0.9062480337902109
outer loop
vertex 0.33682 0.19061 -2.18969
vertex 0.4924 0.16318 -2.11603
vertex 1 -1.25 -1.75
endloop
endfacet
facet normal 0.5011044736479064 -0.043865399674315624 -0.8642743390853782
outer loop
vertex 0.4924 0.16318 -2.11603
vertex 0.5 0.25 -2.11603
vertex 1 -1.25 -1.75
endloop
endfacet
facet normal 0.5735831664103638 -0.008682713704297866 -0.8191013134487031
outer loop
vertex 0.5 0.25 -2.11603
vertex 0.64279 0.25 -2.01604
vertex 1 -1.25 -1.75
endloop
endfacet
facet normal 0.597313160805779 0 -0.8020080971712255
outer loop
vertex 0.64279 0.25 -2.01604
vertex 1 -0.25 -1.75
vertex 1 -1.25 -1.75
endloop
endfacet
facet normal 1 0 0
outer loop
vertex 1 1.25 2.25
vertex 1 0.25 2.25
vertex 1 -1.25 -0.75
endloop
endfacet
facet normal 1 0 0
outer loop
vertex 1 -1.25 -0.75
vertex 1 -1.25 -1.75
vertex 1 -0.25 -1.75
endloop
endfacet
facet normal 1 0 0
outer loop
vertex 1 -0.25 -1.75
vertex 1 0.25 -1.25
vertex 1 1.25 1.25
endloop
endfacet
facet normal 1 0 0
outer loop
vertex 1 1.25 1.25
vertex 1 1.25 2.25
vertex 1 -1.25 -0.75
endloop
endfacet
facet normal 1 0 0
outer loop
vertex 1 -1.25 -0.75
vertex 1 -0.25 -1.75
vertex 1 1.25 1.25
endloop
endfacet
facet normal 0 -1 0
outer loop
vertex 0 -1.25 -0.75
vertex 0 -1.25 -1.75
vertex 1 -1.25 -1.75
endloop
endfacet
facet normal 0 -1 0
outer loop
vertex 1 -1.25 -1.75
vertex 1 -1.25 -0.75
vertex 0 -1.25 -0.75
endloop
endfacet
endsolid JSxCAD
