<?xml version="1.0" encoding="UTF-8" standalone="no"?>
<!DOCTYPE svg PUBLIC "-//W3C//DTD SVG 1.1//EN"
 "http://www.w3.org/Graphics/SVG/1.1/DTD/svg11.dtd">
<!-- Generated by graphviz version 2.38.0 (20140413.2041)
 -->
<!-- Title: Geometry Pages: 1 -->
<svg width="639pt" height="360pt"
 viewBox="0.00 0.00 639.00 360.00" xmlns="http://www.w3.org/2000/svg" xmlns:xlink="http://www.w3.org/1999/xlink">
<g id="graph0" class="graph" transform="scale(1 1) rotate(0) translate(4 356)">
<title>Geometry</title>
<polygon fill="white" stroke="none" points="-4,4 -4,-356 635,-356 635,4 -4,4"/>
<g id="clust1" class="cluster"><title>cluster_api</title>
<polygon fill="none" stroke="black" points="50,-264 50,-344 133,-344 133,-264 50,-264"/>
<text text-anchor="middle" x="91.5" y="-325.6" font-family="Times,serif" font-size="18.00" fill="blue">User API</text>
</g>
<g id="clust2" class="cluster"><title>cluster_lazy</title>
<polygon fill="none" stroke="black" points="17,-176 17,-256 165,-256 165,-176 17,-176"/>
<text text-anchor="middle" x="91" y="-237.6" font-family="Times,serif" font-size="18.00" fill="blue">Lazy Geometry</text>
</g>
<g id="clust3" class="cluster"><title>cluster_tagged</title>
<polygon fill="none" stroke="black" points="8,-8 8,-168 174,-168 174,-8 8,-8"/>
<text text-anchor="middle" x="91" y="-149.6" font-family="Times,serif" font-size="18.00" fill="blue">Tagged Geometry</text>
</g>
<g id="clust4" class="cluster"><title>cluster_geometry</title>
<polygon fill="none" stroke="black" points="182,-8 182,-88 623,-88 623,-8 182,-8"/>
<text text-anchor="middle" x="402.5" y="-69.6" font-family="Times,serif" font-size="18.00" fill="blue">Geometry</text>
</g>
<!-- Shape&#45;&gt;Lazy Geometry -->
<g id="edge1" class="edge"><title>Shape&#45;&gt;Lazy Geometry</title>
<path fill="none" stroke="black" d="M91,-271.597C91,-259.746 91,-243.817 91,-230.292"/>
<polygon fill="black" stroke="black" points="94.5001,-230.084 91,-220.084 87.5001,-230.084 94.5001,-230.084"/>
</g>
<!-- Lazy Geometry&#45;&gt;Tagged Geometry -->
<g id="edge2" class="edge"><title>Lazy Geometry&#45;&gt;Tagged Geometry</title>
<path fill="none" stroke="black" d="M91,-183.597C91,-171.746 91,-155.817 91,-142.292"/>
<polygon fill="black" stroke="black" points="94.5001,-142.084 91,-132.084 87.5001,-142.084 94.5001,-142.084"/>
</g>
<!-- Tagged Geometry&#45;&gt;Assembly -->
<g id="edge3" class="edge"><title>Tagged Geometry&#45;&gt;Assembly</title>
<path fill="none" stroke="black" d="M91,-95.6893C91,-85.8938 91,-73.4218 91,-62.335"/>
<polygon fill="black" stroke="black" points="94.5001,-62.2623 91,-52.2623 87.5001,-62.2624 94.5001,-62.2623"/>
</g>
<!-- Tagged Geometry&#45;&gt;Paths -->
<g id="edge4" class="edge"><title>Tagged Geometry&#45;&gt;Paths</title>
<path fill="none" stroke="black" d="M166.223,-112.352C286.898,-110.794 513.553,-105.543 546,-88 557.348,-81.8646 566.273,-70.8296 572.704,-60.4113"/>
<polygon fill="black" stroke="black" points="575.838,-61.9807 577.713,-51.5531 569.744,-58.5354 575.838,-61.9807"/>
</g>
<!-- Tagged Geometry&#45;&gt;Points -->
<g id="edge8" class="edge"><title>Tagged Geometry&#45;&gt;Points</title>
<path fill="none" stroke="black" d="M165.829,-111.259C267.18,-108.402 438.441,-101.622 464,-88 475.593,-81.8217 484.936,-70.7817 491.758,-60.3711"/>
<polygon fill="black" stroke="black" points="494.928,-61.8927 497.098,-51.5225 488.935,-58.276 494.928,-61.8927"/>
</g>
<!-- Tagged Geometry&#45;&gt;Surface -->
<g id="edge6" class="edge"><title>Tagged Geometry&#45;&gt;Surface</title>
<path fill="none" stroke="black" d="M166.278,-112.447C236.529,-110.826 335.538,-105.391 370,-88 382.649,-81.6171 393.431,-70.2458 401.466,-59.6685"/>
<polygon fill="black" stroke="black" points="404.356,-61.6432 407.303,-51.4664 398.653,-57.5842 404.356,-61.6432"/>
</g>
<!-- Tagged Geometry&#45;&gt;Solid -->
<g id="edge7" class="edge"><title>Tagged Geometry&#45;&gt;Solid</title>
<path fill="none" stroke="black" d="M164.691,-109.952C213.243,-106.805 271.655,-100.5 293,-88 304.056,-81.5256 312.909,-70.5524 319.369,-60.2646"/>
<polygon fill="black" stroke="black" points="322.444,-61.9386 324.424,-51.5305 316.385,-58.4321 322.444,-61.9386"/>
</g>
<!-- Tagged Geometry&#45;&gt;Z0Surface -->
<g id="edge5" class="edge"><title>Tagged Geometry&#45;&gt;Z0Surface</title>
<path fill="none" stroke="black" d="M145.427,-101.461C156.578,-97.9803 167.964,-93.5589 178,-88 191.763,-80.3765 204.994,-68.9994 215.426,-58.7383"/>
<polygon fill="black" stroke="black" points="217.99,-61.1228 222.496,-51.5336 212.994,-56.2202 217.99,-61.1228"/>
</g>
<!-- Shape -->
<g id="node1" class="node"><title>Shape</title>
<ellipse fill="none" stroke="black" cx="91" cy="-290" rx="32.4942" ry="18"/>
<text text-anchor="middle" x="91" y="-286.3" font-family="Times,serif" font-size="14.00">Shape</text>
</g>
<!-- Lazy Geometry -->
<g id="node2" class="node"><title>Lazy Geometry</title>
<ellipse fill="none" stroke="black" cx="91" cy="-202" rx="66.0889" ry="18"/>
<text text-anchor="middle" x="91" y="-198.3" font-family="Times,serif" font-size="14.00">Lazy Geometry</text>
</g>
<!-- Tagged Geometry -->
<g id="node3" class="node"><title>Tagged Geometry</title>
<ellipse fill="none" stroke="black" cx="91" cy="-114" rx="75.2868" ry="18"/>
<text text-anchor="middle" x="91" y="-110.3" font-family="Times,serif" font-size="14.00">Tagged Geometry</text>
</g>
<!-- Assembly -->
<g id="node4" class="node"><title>Assembly</title>
<ellipse fill="white" stroke="black" cx="91" cy="-34" rx="46.2923" ry="18"/>
<text text-anchor="middle" x="91" y="-30.3" font-family="Times,serif" font-size="14.00">Assembly</text>
</g>
<!-- Paths -->
<g id="node5" class="node"><title>Paths</title>
<ellipse fill="none" stroke="black" cx="585" cy="-34" rx="29.795" ry="18"/>
<text text-anchor="middle" x="585" y="-30.3" font-family="Times,serif" font-size="14.00">Paths</text>
</g>
<!-- Points -->
<g id="node6" class="node"><title>Points</title>
<ellipse fill="none" stroke="black" cx="505" cy="-34" rx="32.4942" ry="18"/>
<text text-anchor="middle" x="505" y="-30.3" font-family="Times,serif" font-size="14.00">Points</text>
</g>
<!-- Surface -->
<g id="node7" class="node"><title>Surface</title>
<ellipse fill="none" stroke="black" cx="417" cy="-34" rx="37.8943" ry="18"/>
<text text-anchor="middle" x="417" y="-30.3" font-family="Times,serif" font-size="14.00">Surface</text>
</g>
<!-- Solid -->
<g id="node8" class="node"><title>Solid</title>
<ellipse fill="none" stroke="black" cx="332" cy="-34" rx="29.4969" ry="18"/>
<text text-anchor="middle" x="332" y="-30.3" font-family="Times,serif" font-size="14.00">Solid</text>
</g>
<!-- Z0Surface -->
<g id="node9" class="node"><title>Z0Surface</title>
<ellipse fill="none" stroke="black" cx="237" cy="-34" rx="47.3916" ry="18"/>
<text text-anchor="middle" x="237" y="-30.3" font-family="Times,serif" font-size="14.00">Z0Surface</text>
</g>
</g>
</svg>
