<?xml version="1.0" encoding="UTF-8" standalone="no"?>
<!DOCTYPE svg PUBLIC "-//W3C//DTD SVG 1.1//EN"
 "http://www.w3.org/Graphics/SVG/1.1/DTD/svg11.dtd">
<!-- Generated by graphviz version 2.38.0 (20140413.2041)
 -->
<!-- Title: Pages Pages: 1 -->
<svg width="357pt" height="332pt"
 viewBox="0.00 0.00 357.15 332.00" xmlns="http://www.w3.org/2000/svg" xmlns:xlink="http://www.w3.org/1999/xlink">
<g id="graph0" class="graph" transform="scale(1 1) rotate(0) translate(4 328)">
<title>Pages</title>
<polygon fill="white" stroke="none" points="-4,4 -4,-328 353.153,-328 353.153,4 -4,4"/>
<!-- User APIs&#45;&gt;Lazy Geometry -->
<g id="edge1" class="edge"><title>User APIs&#45;&gt;Lazy Geometry</title>
<path fill="none" stroke="black" d="M246.272,-293.597C211.096,-282.145 156.539,-264.382 116.709,-251.414"/>
<polygon fill="black" stroke="black" points="117.769,-248.078 107.177,-248.311 115.602,-254.735 117.769,-248.078"/>
</g>
<!-- User APIs&#45;&gt;Conversion -->
<g id="edge3" class="edge"><title>User APIs&#45;&gt;Conversion</title>
<path fill="none" stroke="black" d="M263.368,-289.116C252.937,-279.874 239.611,-268.066 228.07,-257.84"/>
<polygon fill="black" stroke="black" points="230.229,-255.076 220.423,-251.064 225.586,-260.315 230.229,-255.076"/>
</g>
<!-- User APIs&#45;&gt;Geometry -->
<g id="edge2" class="edge"><title>User APIs&#45;&gt;Geometry</title>
<path fill="none" stroke="black" d="M280.675,-287.853C279.332,-269.093 275.158,-238.675 262.294,-216 255.507,-204.037 245.106,-193.208 235.037,-184.503"/>
<polygon fill="black" stroke="black" points="237.06,-181.634 227.11,-177.995 232.619,-187.045 237.06,-181.634"/>
</g>
<!-- User APIs&#45;&gt;Algorithm -->
<g id="edge4" class="edge"><title>User APIs&#45;&gt;Algorithm</title>
<path fill="none" stroke="black" d="M282.107,-287.819C282.556,-277.448 283.068,-263.968 283.294,-252 284.176,-205.248 283.051,-150.853 282.166,-118.764"/>
<polygon fill="black" stroke="black" points="285.654,-118.288 281.867,-108.393 278.657,-118.49 285.654,-118.288"/>
</g>
<!-- User APIs&#45;&gt;Math -->
<g id="edge5" class="edge"><title>User APIs&#45;&gt;Math</title>
<path fill="none" stroke="black" d="M292.501,-288.276C317.251,-249.108 371.81,-148.929 338.294,-72 332.359,-58.377 321.005,-46.678 309.983,-37.7639"/>
<polygon fill="black" stroke="black" points="311.799,-34.7495 301.714,-31.5043 307.574,-40.3306 311.799,-34.7495"/>
</g>
<!-- Lazy Geometry&#45;&gt;Geometry -->
<g id="edge6" class="edge"><title>Lazy Geometry&#45;&gt;Geometry</title>
<path fill="none" stroke="black" d="M96.455,-217.811C117.789,-207.067 146.496,-192.61 169.072,-181.241"/>
<polygon fill="black" stroke="black" points="170.662,-184.36 178.019,-176.736 167.513,-178.108 170.662,-184.36"/>
</g>
<!-- Conversion&#45;&gt;Geometry -->
<g id="edge7" class="edge"><title>Conversion&#45;&gt;Geometry</title>
<path fill="none" stroke="black" d="M203.036,-215.697C203.366,-207.983 203.764,-198.712 204.132,-190.112"/>
<polygon fill="black" stroke="black" points="207.63,-190.245 204.561,-180.104 200.636,-189.945 207.63,-190.245"/>
</g>
<!-- Geometry&#45;&gt;Algorithm -->
<g id="edge9" class="edge"><title>Geometry&#45;&gt;Algorithm</title>
<path fill="none" stroke="black" d="M222.54,-145.116C232.645,-135.808 245.576,-123.898 256.733,-113.622"/>
<polygon fill="black" stroke="black" points="259.132,-116.17 264.117,-106.821 254.39,-111.022 259.132,-116.17"/>
</g>
<!-- Geometry&#45;&gt;Math -->
<g id="edge8" class="edge"><title>Geometry&#45;&gt;Math</title>
<path fill="none" stroke="black" d="M205.913,-143.853C207.256,-125.093 211.431,-94.6746 224.294,-72 231.626,-59.0753 243.177,-47.4747 253.97,-38.4455"/>
<polygon fill="black" stroke="black" points="256.346,-41.0277 261.992,-32.0628 251.987,-35.5499 256.346,-41.0277"/>
</g>
<!-- Algorithm&#45;&gt;Math -->
<g id="edge10" class="edge"><title>Algorithm&#45;&gt;Math</title>
<path fill="none" stroke="black" d="M281.294,-71.6966C281.294,-63.9827 281.294,-54.7125 281.294,-46.1124"/>
<polygon fill="black" stroke="black" points="284.794,-46.1043 281.294,-36.1043 277.794,-46.1044 284.794,-46.1043"/>
</g>
<!-- User APIs -->
<g id="node1" class="node"><title>User APIs</title>
<ellipse fill="none" stroke="black" cx="281.294" cy="-306" rx="47.3916" ry="18"/>
<text text-anchor="middle" x="281.294" y="-302.3" font-family="Times,serif" font-size="14.00">User APIs</text>
</g>
<!-- Lazy Geometry -->
<g id="node2" class="node"><title>Lazy Geometry</title>
<ellipse fill="none" stroke="black" cx="66.2941" cy="-234" rx="66.0889" ry="18"/>
<text text-anchor="middle" x="66.2941" y="-230.3" font-family="Times,serif" font-size="14.00">Lazy Geometry</text>
</g>
<!-- Conversion -->
<g id="node3" class="node"><title>Conversion</title>
<ellipse fill="none" stroke="black" cx="202.294" cy="-234" rx="51.1914" ry="18"/>
<text text-anchor="middle" x="202.294" y="-230.3" font-family="Times,serif" font-size="14.00">Conversion</text>
</g>
<!-- Geometry -->
<g id="node4" class="node"><title>Geometry</title>
<ellipse fill="none" stroke="black" cx="205.294" cy="-162" rx="46.2923" ry="18"/>
<text text-anchor="middle" x="205.294" y="-158.3" font-family="Times,serif" font-size="14.00">Geometry</text>
</g>
<!-- Algorithm -->
<g id="node5" class="node"><title>Algorithm</title>
<ellipse fill="none" stroke="black" cx="281.294" cy="-90" rx="48.1917" ry="18"/>
<text text-anchor="middle" x="281.294" y="-86.3" font-family="Times,serif" font-size="14.00">Algorithm</text>
</g>
<!-- Math -->
<g id="node6" class="node"><title>Math</title>
<ellipse fill="none" stroke="black" cx="281.294" cy="-18" rx="29.795" ry="18"/>
<text text-anchor="middle" x="281.294" y="-14.3" font-family="Times,serif" font-size="14.00">Math</text>
</g>
</g>
</svg>
