solid JSxCAD
facet normal 0 0.7999999999999843 0.6000000000000207
outer loop
vertex 0 10 -10
vertex -2.4975 2.5075 -0.01
vertex -2.49201 2.5075 -0.01
endloop
endfacet
facet normal 0 0.8000000000000662 0.5999999999999117
outer loop
vertex 0 10 -10
vertex -2.49201 2.5075 -0.01
vertex -2.49058 2.5075 -0.01
endloop
endfacet
facet normal 0 0.7999999999999394 0.6000000000000807
outer loop
vertex 0 10 -10
vertex -2.49058 2.5075 -0.01
vertex -2.48854 2.5075 -0.01
endloop
endfacet
facet normal 0 0.7999999999999999 0.6000000000000002
outer loop
vertex 0 10 -10
vertex -2.48854 2.5075 -0.01
vertex -2.3502 2.5075 -0.01
endloop
endfacet
facet normal 0 0.8000000000000002 0.6
outer loop
vertex 0 10 -10
vertex -2.3502 2.5075 -0.01
vertex 2.4925 2.5075 -0.01
endloop
endfacet
facet normal 0 0.8000000000000081 0.5999999999999892
outer loop
vertex 0 10 -10
vertex 2.4925 2.5075 -0.01
vertex 2.4975 2.5075 -0.01
endloop
endfacet
facet normal 0 0.8000000000000121 0.5999999999999838
outer loop
vertex -2.49201 2.5075 -0.01
vertex -2.4975 2.5075 -0.01
vertex -2.5 2.5 0
endloop
endfacet
facet normal 0 0.8000000000002795 0.5999999999996273
outer loop
vertex -2.49058 2.5075 -0.01
vertex -2.49201 2.5075 -0.01
vertex -2.5 2.5 0
endloop
endfacet
facet normal 0 0.7999999999998694 0.6000000000001742
outer loop
vertex -2.5 2.5 0
vertex -2.48854 2.5075 -0.01
vertex -2.49058 2.5075 -0.01
endloop
endfacet
facet normal 0 0.8000000000000158 0.5999999999999788
outer loop
vertex -2.48854 2.5075 -0.01
vertex -2.5 2.5 0
vertex -2.3502 2.5075 -0.01
endloop
endfacet
facet normal 0 0.8000000000001065 0.5999999999998578
outer loop
vertex 2.5 2.5 0
vertex 2.4975 2.5075 -0.01
vertex 2.4925 2.5075 -0.01
endloop
endfacet
facet normal 0 0.799999999999989 0.6000000000000145
outer loop
vertex -2.3502 2.5075 -0.01
vertex -2.5 2.5 0
vertex 2.5 2.5 0
endloop
endfacet
facet normal 0 0.7999999999999959 0.6000000000000055
outer loop
vertex -2.3502 2.5075 -0.01
vertex 2.5 2.5 0
vertex 2.4925 2.5075 -0.01
endloop
endfacet
facet normal 0.3940006704212603 0.7371236219794437 0.5490102345380308
outer loop
vertex 2.50306 2.50581 -0.01
vertex 5.5557 8.3147 -10
vertex 3.82683 9.2388 -10
endloop
endfacet
facet normal 0.39583948892074694 0.7363465761649894 0.5487301875977476
outer loop
vertex 2.50306 2.50581 -0.01
vertex 3.82683 9.2388 -10
vertex 2.50133 2.50674 -0.01
endloop
endfacet
facet normal 0.39579299297377823 0.7362600837035672 0.5488797644818718
outer loop
vertex 2.5 2.5 0
vertex 2.50306 2.50581 -0.01
vertex 2.50133 2.50674 -0.01
endloop
endfacet
facet normal 0.5335216673064699 0.6500990881421366 0.5410414088693092
outer loop
vertex 7.07107 7.07107 -10
vertex 5.5557 8.3147 -10
vertex 2.50306 2.50581 -0.01
endloop
endfacet
facet normal 0.5337167554931215 0.649929274834595 0.5410530127620335
outer loop
vertex 7.07107 7.07107 -10
vertex 2.50306 2.50581 -0.01
vertex 2.50457 2.50457 -0.01
endloop
endfacet
facet normal 0.5337533642168719 0.6499738548131165 0.5409633390966054
outer loop
vertex 2.50306 2.50581 -0.01
vertex 2.5 2.5 0
vertex 2.50457 2.50457 -0.01
endloop
endfacet
facet normal 0.23966415072185207 0.790076742401622 0.5642161252346609
outer loop
vertex 3.82683 9.2388 -10
vertex 1.9509 9.80785 -10
vertex 2.49945 2.50731 -0.01
endloop
endfacet
facet normal 0.2395535575513867 0.7901064705213175 0.5642214621093572
outer loop
vertex 3.82683 9.2388 -10
vertex 2.49945 2.50731 -0.01
vertex 2.50133 2.50674 -0.01
endloop
endfacet
facet normal 0.2395304553382416 0.7900302737475206 0.5643379550658207
outer loop
vertex 2.49945 2.50731 -0.01
vertex 2.5 2.5 0
vertex 2.50133 2.50674 -0.01
endloop
endfacet
facet normal 0.07947451174657325 0.8069051520499108 0.5853100696023895
outer loop
vertex 2.49945 2.50731 -0.01
vertex 1.9509 9.80785 -10
vertex 0 10 -10
endloop
endfacet
facet normal 0.07861700661436376 0.8068587520925244 0.5854898124158023
outer loop
vertex 2.49945 2.50731 -0.01
vertex 0 10 -10
vertex 2.4975 2.5075 -0.01
endloop
endfacet
facet normal 0.07861700661412935 0.8068587520924103 0.5854898124159907
outer loop
vertex 2.5 2.5 0
vertex 2.49945 2.50731 -0.01
vertex 2.4975 2.5075 -0.01
endloop
endfacet
facet normal 0.7900767424016218 0.23966415072185157 0.5642161252346612
outer loop
vertex 2.50731 2.49945 -0.01
vertex 9.80785 1.9509 -10
vertex 9.2388 3.82683 -10
endloop
endfacet
facet normal 0.790106470521263 0.23955355755176647 0.5642214621092722
outer loop
vertex 2.50731 2.49945 -0.01
vertex 9.2388 3.82683 -10
vertex 2.50674 2.50133 -0.01
endloop
endfacet
facet normal 0.7900302737475767 0.23953045533826575 0.5643379550657318
outer loop
vertex 2.5 2.5 0
vertex 2.50731 2.49945 -0.01
vertex 2.50674 2.50133 -0.01
endloop
endfacet
facet normal 0.8069051520499109 0.07947451174657356 0.5853100696023897
outer loop
vertex 10 0 -10
vertex 9.80785 1.9509 -10
vertex 2.50731 2.49945 -0.01
endloop
endfacet
facet normal 0.8068587520925387 0.07861700661436105 0.5854898124157829
outer loop
vertex 10 0 -10
vertex 2.50731 2.49945 -0.01
vertex 2.5075 2.4975 -0.01
endloop
endfacet
facet normal 0.8068587520925485 0.07861700661411371 0.5854898124158026
outer loop
vertex 2.50731 2.49945 -0.01
vertex 2.5 2.5 0
vertex 2.5075 2.4975 -0.01
endloop
endfacet
facet normal 0.7371236219794441 0.3940006704212602 0.5490102345380303
outer loop
vertex 9.2388 3.82683 -10
vertex 8.3147 5.5557 -10
vertex 2.50581 2.50306 -0.01
endloop
endfacet
facet normal 0.73634657616491 0.3958394889207197 0.5487301875978737
outer loop
vertex 9.2388 3.82683 -10
vertex 2.50581 2.50306 -0.01
vertex 2.50674 2.50133 -0.01
endloop
endfacet
facet normal 0.7362600837037065 0.39579299297377546 0.5488797644816871
outer loop
vertex 2.50581 2.50306 -0.01
vertex 2.5 2.5 0
vertex 2.50674 2.50133 -0.01
endloop
endfacet
facet normal 0.6500990881421362 0.5335216673064701 0.5410414088693094
outer loop
vertex 2.50581 2.50306 -0.01
vertex 8.3147 5.5557 -10
vertex 7.07107 7.07107 -10
endloop
endfacet
facet normal 0.6499292748348419 0.5337167554931922 0.5410530127616671
outer loop
vertex 2.50581 2.50306 -0.01
vertex 7.07107 7.07107 -10
vertex 2.50457 2.50457 -0.01
endloop
endfacet
facet normal 0.6499738548128786 0.533753364216972 0.5409633390967927
outer loop
vertex 2.5 2.5 0
vertex 2.50581 2.50306 -0.01
vertex 2.50457 2.50457 -0.01
endloop
endfacet
facet normal 0.8 0 0.6000000000000001
outer loop
vertex 2.5075 -2.4975 -0.01
vertex 10 0 -10
vertex 2.5075 2.4975 -0.01
endloop
endfacet
facet normal 0.8000000000000063 0 0.5999999999999919
outer loop
vertex 2.5 2.5 0
vertex 2.5 -2.5 0
vertex 2.5075 -2.4975 -0.01
endloop
endfacet
facet normal 0.800000000000006 0 0.5999999999999919
outer loop
vertex 2.5 2.5 0
vertex 2.5075 -2.4975 -0.01
vertex 2.5075 2.4975 -0.01
endloop
endfacet
facet normal 0 -0.7999999999999999 0.6
outer loop
vertex -2.4975 -2.5075 -0.01
vertex 0 -10 -10
vertex 2.4975 -2.5075 -0.01
endloop
endfacet
facet normal 0 0 -0.9999999999999999
outer loop
vertex -2.4975 -2.5075 -0.01
vertex 2.4975 -2.5075 -0.01
vertex 2.4925 -2.5075 -0.01
endloop
endfacet
facet normal 0 0 -1
outer loop
vertex -2.4975 -2.5075 -0.01
vertex -2.48552 -2.5075 -0.01
vertex -2.48854 -2.5075 -0.01
endloop
endfacet
facet normal 0 -0.8000000000000222 0.5999999999999702
outer loop
vertex -2.5 -2.5 0
vertex -2.4975 -2.5075 -0.01
vertex -2.48854 -2.5075 -0.01
endloop
endfacet
facet normal 0 -0.800000000000022 0.5999999999999706
outer loop
vertex -2.48854 -2.5075 -0.01
vertex -2.48552 -2.5075 -0.01
vertex -2.5 -2.5 0
endloop
endfacet
facet normal 0 -0.8000000000000932 0.5999999999998756
outer loop
vertex 2.4925 -2.5075 -0.01
vertex 2.4975 -2.5075 -0.01
vertex 2.5 -2.5 0
endloop
endfacet
facet normal 0 -0.7999999999999957 0.6000000000000054
outer loop
vertex -2.5 -2.5 0
vertex -2.48552 -2.5075 -0.01
vertex 2.4925 -2.5075 -0.01
endloop
endfacet
facet normal 0 -0.8000000000000068 0.599999999999991
outer loop
vertex -2.5 -2.5 0
vertex 2.4925 -2.5075 -0.01
vertex 2.5 -2.5 0
endloop
endfacet
facet normal -0.7999999999999984 0 0.6000000000000022
outer loop
vertex -10 0 -10
vertex -2.5075 -2.4975 -0.01
vertex -2.5075 -2.47203 -0.01
endloop
endfacet
facet normal -0.7999999999999973 0 0.6000000000000035
outer loop
vertex -10 0 -10
vertex -2.5075 -2.47203 -0.01
vertex -2.5075 -2.45173 -0.01
endloop
endfacet
facet normal -0.8000000000000009 0 0.5999999999999986
outer loop
vertex -10 0 -10
vertex -2.5075 -2.45173 -0.01
vertex -2.5075 -2.3502 -0.01
endloop
endfacet
facet normal -0.7999999999999999 0 0.6000000000000001
outer loop
vertex -10 0 -10
vertex -2.5075 -2.3502 -0.01
vertex -2.5075 2.3502 -0.01
endloop
endfacet
facet normal -0.8 0 0.5999999999999999
outer loop
vertex -10 0 -10
vertex -2.5075 2.3502 -0.01
vertex -2.5075 2.4975 -0.01
endloop
endfacet
facet normal -0.8000000000000049 0 0.5999999999999933
outer loop
vertex -2.5075 2.4975 -0.01
vertex -2.5075 2.3502 -0.01
vertex -2.5 2.5 0
endloop
endfacet
facet normal -0.8000000000000025 0 0.5999999999999966
outer loop
vertex -2.5075 -2.47203 -0.01
vertex -2.5075 -2.4975 -0.01
vertex -2.5 -2.5 0
endloop
endfacet
facet normal -0.8000000000000037 0 0.5999999999999951
outer loop
vertex -2.5 -2.5 0
vertex -2.5075 -2.45173 -0.01
vertex -2.5075 -2.47203 -0.01
endloop
endfacet
facet normal -0.8000000000000058 0 0.5999999999999921
outer loop
vertex -2.5075 -2.45173 -0.01
vertex -2.5 -2.5 0
vertex -2.5075 -2.3502 -0.01
endloop
endfacet
facet normal -0.8000000000000063 0 0.5999999999999919
outer loop
vertex -2.5 -2.5 0
vertex -2.5 2.5 0
vertex -2.5075 2.3502 -0.01
endloop
endfacet
facet normal -0.8000000000000064 0 0.5999999999999919
outer loop
vertex -2.5 -2.5 0
vertex -2.5075 2.3502 -0.01
vertex -2.5075 -2.3502 -0.01
endloop
endfacet
facet normal -0.3940006704212603 0.7371236219794437 0.5490102345380308
outer loop
vertex -3.82683 9.2388 -10
vertex -5.5557 8.3147 -10
vertex -2.50306 2.50581 -0.01
endloop
endfacet
facet normal -0.39583948892089277 0.7363465761649284 0.5487301875977242
outer loop
vertex -3.82683 9.2388 -10
vertex -2.50306 2.50581 -0.01
vertex -2.50133 2.50674 -0.01
endloop
endfacet
facet normal -0.39579299297377796 0.7362600837035672 0.5488797644818718
outer loop
vertex -2.50306 2.50581 -0.01
vertex -2.5 2.5 0
vertex -2.50133 2.50674 -0.01
endloop
endfacet
facet normal -0.53352166730647 0.6500990881421365 0.5410414088693091
outer loop
vertex -2.50306 2.50581 -0.01
vertex -5.5557 8.3147 -10
vertex -7.07107 7.07107 -10
endloop
endfacet
facet normal -0.5337167554931856 0.6499292748345944 0.5410530127619708
outer loop
vertex -2.50306 2.50581 -0.01
vertex -7.07107 7.07107 -10
vertex -2.50457 2.50457 -0.01
endloop
endfacet
facet normal -0.5337533642168719 0.6499738548131165 0.5409633390966054
outer loop
vertex -2.5 2.5 0
vertex -2.50306 2.50581 -0.01
vertex -2.50457 2.50457 -0.01
endloop
endfacet
facet normal -0.23966415072185207 0.790076742401622 0.5642161252346609
outer loop
vertex -2.49945 2.50731 -0.01
vertex -1.9509 9.80785 -10
vertex -3.82683 9.2388 -10
endloop
endfacet
facet normal -0.2395535575511787 0.790106470521371 0.5642214621093706
outer loop
vertex -2.49945 2.50731 -0.01
vertex -3.82683 9.2388 -10
vertex -2.50133 2.50674 -0.01
endloop
endfacet
facet normal -0.2395304553382416 0.7900302737475206 0.5643379550658207
outer loop
vertex -2.5 2.5 0
vertex -2.49945 2.50731 -0.01
vertex -2.50133 2.50674 -0.01
endloop
endfacet
facet normal -0.07947451174657295 0.8069051520499108 0.5853100696023895
outer loop
vertex 0 10 -10
vertex -1.9509 9.80785 -10
vertex -2.49945 2.50731 -0.01
endloop
endfacet
facet normal -0.0786170066144346 0.8068587520924965 0.5854898124158314
outer loop
vertex 0 10 -10
vertex -2.49945 2.50731 -0.01
vertex -2.4975 2.5075 -0.01
endloop
endfacet
facet normal -0.07861700661412935 0.8068587520924103 0.5854898124159907
outer loop
vertex -2.49945 2.50731 -0.01
vertex -2.5 2.5 0
vertex -2.4975 2.5075 -0.01
endloop
endfacet
facet normal -0.7900767424016218 0.23966415072185157 0.5642161252346614
outer loop
vertex -9.2388 3.82683 -10
vertex -9.80785 1.9509 -10
vertex -2.50731 2.49945 -0.01
endloop
endfacet
facet normal -0.7901064705212497 0.23955355755175428 0.5642214621092965
outer loop
vertex -9.2388 3.82683 -10
vertex -2.50731 2.49945 -0.01
vertex -2.50674 2.50133 -0.01
endloop
endfacet
facet normal -0.7900302737475118 0.2395304553382461 0.5643379550658314
outer loop
vertex -2.50731 2.49945 -0.01
vertex -2.5 2.5 0
vertex -2.50674 2.50133 -0.01
endloop
endfacet
facet normal -0.8069051520499109 0.07947451174657356 0.5853100696023897
outer loop
vertex -2.50731 2.49945 -0.01
vertex -9.80785 1.9509 -10
vertex -10 0 -10
endloop
endfacet
facet normal -0.8068587520925244 0.07861700661436376 0.5854898124158023
outer loop
vertex -2.50731 2.49945 -0.01
vertex -10 0 -10
vertex -2.5075 2.4975 -0.01
endloop
endfacet
facet normal -0.806858752092538 0.0786170066141127 0.5854898124158173
outer loop
vertex -2.5 2.5 0
vertex -2.50731 2.49945 -0.01
vertex -2.5075 2.4975 -0.01
endloop
endfacet
facet normal -0.737123621979444 0.39400067042126014 0.5490102345380303
outer loop
vertex -2.50581 2.50306 -0.01
vertex -8.3147 5.5557 -10
vertex -9.2388 3.82683 -10
endloop
endfacet
facet normal -0.7363465761648977 0.39583948892069765 0.5487301875979063
outer loop
vertex -2.50581 2.50306 -0.01
vertex -9.2388 3.82683 -10
vertex -2.50674 2.50133 -0.01
endloop
endfacet
facet normal -0.7362600837036468 0.3957929929737434 0.5488797644817902
outer loop
vertex -2.5 2.5 0
vertex -2.50581 2.50306 -0.01
vertex -2.50674 2.50133 -0.01
endloop
endfacet
facet normal -0.6500990881421362 0.5335216673064701 0.5410414088693095
outer loop
vertex -7.07107 7.07107 -10
vertex -8.3147 5.5557 -10
vertex -2.50581 2.50306 -0.01
endloop
endfacet
facet normal -0.6499292748347445 0.5337167554931955 0.5410530127617807
outer loop
vertex -7.07107 7.07107 -10
vertex -2.50581 2.50306 -0.01
vertex -2.50457 2.50457 -0.01
endloop
endfacet
facet normal -0.6499738548128918 0.5337533642169827 0.5409633390967663
outer loop
vertex -2.50581 2.50306 -0.01
vertex -2.5 2.5 0
vertex -2.50457 2.50457 -0.01
endloop
endfacet
facet normal -0.6500990881421362 -0.5335216673064701 0.5410414088693094
outer loop
vertex -2.50581 -2.50306 -0.01
vertex -8.3147 -5.5557 -10
vertex -7.07107 -7.07107 -10
endloop
endfacet
facet normal -0.6499292748348419 -0.5337167554931922 0.5410530127616671
outer loop
vertex -2.50581 -2.50306 -0.01
vertex -7.07107 -7.07107 -10
vertex -2.50457 -2.50457 -0.01
endloop
endfacet
facet normal -0.6499738548128786 -0.533753364216972 0.5409633390967927
outer loop
vertex -2.5 -2.5 0
vertex -2.50581 -2.50306 -0.01
vertex -2.50457 -2.50457 -0.01
endloop
endfacet
facet normal -0.7371236219794441 -0.3940006704212602 0.5490102345380303
outer loop
vertex -9.2388 -3.82683 -10
vertex -8.3147 -5.5557 -10
vertex -2.50581 -2.50306 -0.01
endloop
endfacet
facet normal -0.73634657616491 -0.3958394889207197 0.5487301875978737
outer loop
vertex -9.2388 -3.82683 -10
vertex -2.50581 -2.50306 -0.01
vertex -2.50674 -2.50133 -0.01
endloop
endfacet
facet normal -0.7362600837037065 -0.39579299297377546 0.5488797644816871
outer loop
vertex -2.50581 -2.50306 -0.01
vertex -2.5 -2.5 0
vertex -2.50674 -2.50133 -0.01
endloop
endfacet
facet normal -0.7900767424016218 -0.23966415072185157 0.5642161252346612
outer loop
vertex -2.50731 -2.49945 -0.01
vertex -9.80785 -1.9509 -10
vertex -9.2388 -3.82683 -10
endloop
endfacet
facet normal -0.790106470521263 -0.23955355755176647 0.5642214621092722
outer loop
vertex -2.50731 -2.49945 -0.01
vertex -9.2388 -3.82683 -10
vertex -2.50674 -2.50133 -0.01
endloop
endfacet
facet normal -0.7900302737475767 -0.23953045533826575 0.5643379550657318
outer loop
vertex -2.5 -2.5 0
vertex -2.50731 -2.49945 -0.01
vertex -2.50674 -2.50133 -0.01
endloop
endfacet
facet normal -0.8069051520499109 -0.07947451174657356 0.5853100696023897
outer loop
vertex -10 0 -10
vertex -9.80785 -1.9509 -10
vertex -2.50731 -2.49945 -0.01
endloop
endfacet
facet normal -0.8068587520925387 -0.07861700661436105 0.5854898124157829
outer loop
vertex -10 0 -10
vertex -2.50731 -2.49945 -0.01
vertex -2.5075 -2.4975 -0.01
endloop
endfacet
facet normal -0.8068587520925485 -0.07861700661411371 0.5854898124158026
outer loop
vertex -2.50731 -2.49945 -0.01
vertex -2.5 -2.5 0
vertex -2.5075 -2.4975 -0.01
endloop
endfacet
facet normal 0.3940006704212603 -0.7371236219794437 0.5490102345380308
outer loop
vertex 3.82683 -9.2388 -10
vertex 5.5557 -8.3147 -10
vertex 2.50306 -2.50581 -0.01
endloop
endfacet
facet normal 0.39583948892089277 -0.7363465761649284 0.5487301875977242
outer loop
vertex 3.82683 -9.2388 -10
vertex 2.50306 -2.50581 -0.01
vertex 2.50133 -2.50674 -0.01
endloop
endfacet
facet normal 0.39579299297377796 -0.7362600837035672 0.5488797644818718
outer loop
vertex 2.50306 -2.50581 -0.01
vertex 2.5 -2.5 0
vertex 2.50133 -2.50674 -0.01
endloop
endfacet
facet normal 0.53352166730647 -0.6500990881421365 0.5410414088693091
outer loop
vertex 2.50306 -2.50581 -0.01
vertex 5.5557 -8.3147 -10
vertex 7.07107 -7.07107 -10
endloop
endfacet
facet normal 0.5337167554931856 -0.6499292748345944 0.5410530127619708
outer loop
vertex 2.50306 -2.50581 -0.01
vertex 7.07107 -7.07107 -10
vertex 2.50457 -2.50457 -0.01
endloop
endfacet
facet normal 0.5337533642168719 -0.6499738548131165 0.5409633390966054
outer loop
vertex 2.5 -2.5 0
vertex 2.50306 -2.50581 -0.01
vertex 2.50457 -2.50457 -0.01
endloop
endfacet
facet normal 0.23966415072185207 -0.790076742401622 0.5642161252346609
outer loop
vertex 2.49945 -2.50731 -0.01
vertex 1.9509 -9.80785 -10
vertex 3.82683 -9.2388 -10
endloop
endfacet
facet normal 0.2395535575511787 -0.790106470521371 0.5642214621093706
outer loop
vertex 2.49945 -2.50731 -0.01
vertex 3.82683 -9.2388 -10
vertex 2.50133 -2.50674 -0.01
endloop
endfacet
facet normal 0.2395304553382416 -0.7900302737475206 0.5643379550658207
outer loop
vertex 2.5 -2.5 0
vertex 2.49945 -2.50731 -0.01
vertex 2.50133 -2.50674 -0.01
endloop
endfacet
facet normal 0.07947451174657295 -0.8069051520499108 0.5853100696023895
outer loop
vertex 0 -10 -10
vertex 1.9509 -9.80785 -10
vertex 2.49945 -2.50731 -0.01
endloop
endfacet
facet normal 0.0786170066144346 -0.8068587520924965 0.5854898124158314
outer loop
vertex 0 -10 -10
vertex 2.49945 -2.50731 -0.01
vertex 2.4975 -2.5075 -0.01
endloop
endfacet
facet normal 0.07861700661412935 -0.8068587520924103 0.5854898124159907
outer loop
vertex 2.49945 -2.50731 -0.01
vertex 2.5 -2.5 0
vertex 2.4975 -2.5075 -0.01
endloop
endfacet
facet normal 0.7900767424016218 -0.23966415072185157 0.5642161252346614
outer loop
vertex 9.2388 -3.82683 -10
vertex 9.80785 -1.9509 -10
vertex 2.50731 -2.49945 -0.01
endloop
endfacet
facet normal 0.7901064705212497 -0.23955355755175428 0.5642214621092965
outer loop
vertex 9.2388 -3.82683 -10
vertex 2.50731 -2.49945 -0.01
vertex 2.50674 -2.50133 -0.01
endloop
endfacet
facet normal 0.7900302737475118 -0.2395304553382461 0.5643379550658314
outer loop
vertex 2.50731 -2.49945 -0.01
vertex 2.5 -2.5 0
vertex 2.50674 -2.50133 -0.01
endloop
endfacet
facet normal 0.8069051520499109 -0.07947451174657356 0.5853100696023897
outer loop
vertex 2.50731 -2.49945 -0.01
vertex 9.80785 -1.9509 -10
vertex 10 0 -10
endloop
endfacet
facet normal 0.8068587520925244 -0.07861700661436376 0.5854898124158023
outer loop
vertex 2.50731 -2.49945 -0.01
vertex 10 0 -10
vertex 2.5075 -2.4975 -0.01
endloop
endfacet
facet normal 0.806858752092538 -0.0786170066141127 0.5854898124158173
outer loop
vertex 2.5 -2.5 0
vertex 2.50731 -2.49945 -0.01
vertex 2.5075 -2.4975 -0.01
endloop
endfacet
facet normal 0.737123621979444 -0.39400067042126014 0.5490102345380303
outer loop
vertex 2.50581 -2.50306 -0.01
vertex 8.3147 -5.5557 -10
vertex 9.2388 -3.82683 -10
endloop
endfacet
facet normal 0.7363465761648977 -0.39583948892069765 0.5487301875979063
outer loop
vertex 2.50581 -2.50306 -0.01
vertex 9.2388 -3.82683 -10
vertex 2.50674 -2.50133 -0.01
endloop
endfacet
facet normal 0.7362600837036468 -0.3957929929737434 0.5488797644817902
outer loop
vertex 2.5 -2.5 0
vertex 2.50581 -2.50306 -0.01
vertex 2.50674 -2.50133 -0.01
endloop
endfacet
facet normal 0.6500990881421362 -0.5335216673064701 0.5410414088693095
outer loop
vertex 7.07107 -7.07107 -10
vertex 8.3147 -5.5557 -10
vertex 2.50581 -2.50306 -0.01
endloop
endfacet
facet normal 0.6499292748347445 -0.5337167554931955 0.5410530127617807
outer loop
vertex 7.07107 -7.07107 -10
vertex 2.50581 -2.50306 -0.01
vertex 2.50457 -2.50457 -0.01
endloop
endfacet
facet normal 0.6499738548128918 -0.5337533642169827 0.5409633390967663
outer loop
vertex 2.50581 -2.50306 -0.01
vertex 2.5 -2.5 0
vertex 2.50457 -2.50457 -0.01
endloop
endfacet
facet normal -0.3940006704212603 -0.7371236219794437 0.5490102345380308
outer loop
vertex -2.50306 -2.50581 -0.01
vertex -5.5557 -8.3147 -10
vertex -3.82683 -9.2388 -10
endloop
endfacet
facet normal -0.39583948892074694 -0.7363465761649894 0.5487301875977476
outer loop
vertex -2.50306 -2.50581 -0.01
vertex -3.82683 -9.2388 -10
vertex -2.50133 -2.50674 -0.01
endloop
endfacet
facet normal -0.39579299297377823 -0.7362600837035672 0.5488797644818718
outer loop
vertex -2.5 -2.5 0
vertex -2.50306 -2.50581 -0.01
vertex -2.50133 -2.50674 -0.01
endloop
endfacet
facet normal -0.5335216673064699 -0.6500990881421366 0.5410414088693092
outer loop
vertex -7.07107 -7.07107 -10
vertex -5.5557 -8.3147 -10
vertex -2.50306 -2.50581 -0.01
endloop
endfacet
facet normal -0.5337167554931215 -0.649929274834595 0.5410530127620335
outer loop
vertex -7.07107 -7.07107 -10
vertex -2.50306 -2.50581 -0.01
vertex -2.50457 -2.50457 -0.01
endloop
endfacet
facet normal -0.5337533642168719 -0.6499738548131165 0.5409633390966054
outer loop
vertex -2.50306 -2.50581 -0.01
vertex -2.5 -2.5 0
vertex -2.50457 -2.50457 -0.01
endloop
endfacet
facet normal -0.23966415072185207 -0.790076742401622 0.5642161252346609
outer loop
vertex -3.82683 -9.2388 -10
vertex -1.9509 -9.80785 -10
vertex -2.49945 -2.50731 -0.01
endloop
endfacet
facet normal -0.2395535575513867 -0.7901064705213175 0.5642214621093572
outer loop
vertex -3.82683 -9.2388 -10
vertex -2.49945 -2.50731 -0.01
vertex -2.50133 -2.50674 -0.01
endloop
endfacet
facet normal -0.2395304553382416 -0.7900302737475206 0.5643379550658207
outer loop
vertex -2.49945 -2.50731 -0.01
vertex -2.5 -2.5 0
vertex -2.50133 -2.50674 -0.01
endloop
endfacet
facet normal 0 0 -1
outer loop
vertex -1.9509 -9.80785 -10
vertex -3.82683 -9.2388 -10
vertex -5.5557 -8.3147 -10
endloop
endfacet
facet normal 1.6000600555936196e-15 0 -1
outer loop
vertex -1.9509 -9.80785 -10
vertex -5.5557 -8.3147 -10
vertex -7.07107 -7.07107 -10
endloop
endfacet
facet normal -8.157012618482694e-16 0 -1
outer loop
vertex -1.9509 -9.80785 -10
vertex -7.07107 -7.07107 -10
vertex -8.3147 -5.5557 -10
endloop
endfacet
facet normal 0 0 -1
outer loop
vertex -1.9509 -9.80785 -10
vertex -8.3147 -5.5557 -10
vertex -9.2388 -3.82683 -10
endloop
endfacet
facet normal -6.919910901575936e-16 0 -1
outer loop
vertex -1.9509 -9.80785 -10
vertex -9.2388 -3.82683 -10
vertex -9.80785 -1.9509 -10
endloop
endfacet
facet normal 0 0 -0.9999999999999999
outer loop
vertex -1.9509 -9.80785 -10
vertex -9.80785 -1.9509 -10
vertex -10 0 -10
endloop
endfacet
facet normal 0 0 -1
outer loop
vertex -1.9509 -9.80785 -10
vertex -10 0 -10
vertex -9.80785 1.9509 -10
endloop
endfacet
facet normal 3.3155824121967198e-16 0 -1
outer loop
vertex -1.9509 -9.80785 -10
vertex -9.80785 1.9509 -10
vertex -9.2388 3.82683 -10
endloop
endfacet
facet normal -5.639308743760129e-16 0 -0.9999999999999999
outer loop
vertex -1.9509 -9.80785 -10
vertex -9.2388 3.82683 -10
vertex -8.3147 5.5557 -10
endloop
endfacet
facet normal 8.650060418465307e-16 0 -1
outer loop
vertex -1.9509 -9.80785 -10
vertex -8.3147 5.5557 -10
vertex -7.07107 7.07107 -10
endloop
endfacet
facet normal -7.784842596140437e-16 0 -1
outer loop
vertex -1.9509 -9.80785 -10
vertex -7.07107 7.07107 -10
vertex -5.5557 8.3147 -10
endloop
endfacet
facet normal 4.099750726150123e-16 0 -1
outer loop
vertex -1.9509 -9.80785 -10
vertex -5.5557 8.3147 -10
vertex -3.82683 9.2388 -10
endloop
endfacet
facet normal -3.8618887593448633e-16 0 -1
outer loop
vertex -1.9509 -9.80785 -10
vertex -3.82683 9.2388 -10
vertex -1.9509 9.80785 -10
endloop
endfacet
facet normal -5.570223727754734e-16 0 -0.9999999999999999
outer loop
vertex -1.9509 -9.80785 -10
vertex -1.9509 9.80785 -10
vertex 0 10 -10
endloop
endfacet
facet normal 5.463191878825927e-16 0 -1
outer loop
vertex -1.9509 -9.80785 -10
vertex 0 10 -10
vertex 1.9509 9.80785 -10
endloop
endfacet
facet normal 3.642127976064277e-16 0 -1
outer loop
vertex -1.9509 -9.80785 -10
vertex 1.9509 9.80785 -10
vertex 3.82683 9.2388 -10
endloop
endfacet
facet normal -3.7134715248873746e-16 0 -1
outer loop
vertex -1.9509 -9.80785 -10
vertex 3.82683 9.2388 -10
vertex 5.5557 8.3147 -10
endloop
endfacet
facet normal 6.758283023185054e-16 0 -1
outer loop
vertex -1.9509 -9.80785 -10
vertex 5.5557 8.3147 -10
vertex 7.07107 7.07107 -10
endloop
endfacet
facet normal -7.174558542399117e-16 0 -1
outer loop
vertex -1.9509 -9.80785 -10
vertex 7.07107 7.07107 -10
vertex 8.3147 5.5557 -10
endloop
endfacet
facet normal 4.44849006016385e-16 0 -1
outer loop
vertex -1.9509 -9.80785 -10
vertex 8.3147 5.5557 -10
vertex 9.2388 3.82683 -10
endloop
endfacet
facet normal -2.471460853193686e-16 0 -1
outer loop
vertex -1.9509 -9.80785 -10
vertex 9.2388 3.82683 -10
vertex 9.80785 1.9509 -10
endloop
endfacet
facet normal 0 0 -1
outer loop
vertex -1.9509 -9.80785 -10
vertex 9.80785 1.9509 -10
vertex 10 0 -10
endloop
endfacet
facet normal 0 0 -1
outer loop
vertex -1.9509 -9.80785 -10
vertex 10 0 -10
vertex 9.80785 -1.9509 -10
endloop
endfacet
facet normal 4.0400222791360293e-16 0 -1
outer loop
vertex -1.9509 -9.80785 -10
vertex 9.80785 -1.9509 -10
vertex 9.2388 -3.82683 -10
endloop
endfacet
facet normal 0 0 -1
outer loop
vertex -1.9509 -9.80785 -10
vertex 9.2388 -3.82683 -10
vertex 8.3147 -5.5557 -10
endloop
endfacet
facet normal 3.459958769360476e-16 0 -1
outer loop
vertex -1.9509 -9.80785 -10
vertex 8.3147 -5.5557 -10
vertex 7.07107 -7.07107 -10
endloop
endfacet
facet normal -5.023095031655909e-16 0 -1
outer loop
vertex -1.9509 -9.80785 -10
vertex 7.07107 -7.07107 -10
vertex 5.5557 -8.3147 -10
endloop
endfacet
facet normal 0 0 -1
outer loop
vertex -1.9509 -9.80785 -10
vertex 5.5557 -8.3147 -10
vertex 3.82683 -9.2388 -10
endloop
endfacet
facet normal 0 0 -1
outer loop
vertex -1.9509 -9.80785 -10
vertex 3.82683 -9.2388 -10
vertex 1.9509 -9.80785 -10
endloop
endfacet
facet normal 0 0 -1
outer loop
vertex -1.9509 -9.80785 -10
vertex 1.9509 -9.80785 -10
vertex 0 -10 -10
endloop
endfacet
facet normal -0.07947451174657325 -0.8069051520499108 0.5853100696023895
outer loop
vertex -2.49945 -2.50731 -0.01
vertex -1.9509 -9.80785 -10
vertex 0 -10 -10
endloop
endfacet
facet normal -0.07861700661436376 -0.8068587520925244 0.5854898124158023
outer loop
vertex -2.49945 -2.50731 -0.01
vertex 0 -10 -10
vertex -2.4975 -2.5075 -0.01
endloop
endfacet
facet normal -0.07861700661412935 -0.8068587520924103 0.5854898124159907
outer loop
vertex -2.5 -2.5 0
vertex -2.49945 -2.50731 -0.01
vertex -2.4975 -2.5075 -0.01
endloop
endfacet
facet normal 0 0.8000000000000244 -0.5999999999999677
outer loop
vertex -2.5 2.5 0
vertex -2.4975 2.5075 0.01
vertex -2.49201 2.5075 0.01
endloop
endfacet
facet normal 0 0.8000000000002795 -0.5999999999996273
outer loop
vertex -2.49201 2.5075 0.01
vertex -2.49058 2.5075 0.01
vertex -2.5 2.5 0
endloop
endfacet
facet normal 0 0.7999999999998694 -0.6000000000001742
outer loop
vertex -2.5 2.5 0
vertex -2.49058 2.5075 0.01
vertex -2.48854 2.5075 0.01
endloop
endfacet
facet normal 0 0.8000000000000158 -0.5999999999999788
outer loop
vertex -2.5 2.5 0
vertex -2.48854 2.5075 0.01
vertex -2.3502 2.5075 0.01
endloop
endfacet
facet normal 0 0.7999999999999976 -0.6000000000000031
outer loop
vertex 2.5 2.5 0
vertex -2.5 2.5 0
vertex -2.3502 2.5075 0.01
endloop
endfacet
facet normal 0 0.8000000000000522 -0.5999999999999305
outer loop
vertex 2.5 2.5 0
vertex -2.3502 2.5075 0.01
vertex 2.4975 2.5075 0.01
endloop
endfacet
facet normal 0 0.7999999999999999 -0.6
outer loop
vertex -2.4975 2.5075 0.01
vertex 0 10 10
vertex 2.4975 2.5075 0.01
endloop
endfacet
facet normal 0 0 -1
outer loop
vertex -2.4975 2.5075 0.01
vertex 2.4975 2.5075 0.01
vertex -2.3502 2.5075 0.01
endloop
endfacet
facet normal 0 0 1
outer loop
vertex -2.4975 2.5075 0.01
vertex -2.48854 2.5075 0.01
vertex -2.49058 2.5075 0.01
endloop
endfacet
facet normal 0 0 -1
outer loop
vertex -2.4975 2.5075 0.01
vertex -2.49058 2.5075 0.01
vertex -2.49201 2.5075 0.01
endloop
endfacet
facet normal -0.8000000000000049 0 -0.5999999999999933
outer loop
vertex -2.5075 2.4975 0.01
vertex -2.5 2.5 0
vertex -2.5075 2.3502 0.01
endloop
endfacet
facet normal -0.7999999999999955 0 -0.6000000000000059
outer loop
vertex -2.5 -2.5 0
vertex -2.5075 -2.4975 0.01
vertex -2.5075 -2.48072 0.01
endloop
endfacet
facet normal -0.8000000000000159 0 -0.5999999999999788
outer loop
vertex -2.5075 -2.48072 0.01
vertex -2.5075 -2.47203 0.01
vertex -2.5 -2.5 0
endloop
endfacet
facet normal -0.8000000000000037 0 -0.5999999999999951
outer loop
vertex -2.5 -2.5 0
vertex -2.5075 -2.47203 0.01
vertex -2.5075 -2.45173 0.01
endloop
endfacet
facet normal -0.8000000000000063 0 -0.5999999999999915
outer loop
vertex -2.5 -2.5 0
vertex -2.5075 -2.45173 0.01
vertex -2.5075 2.3502 0.01
endloop
endfacet
facet normal -0.8000000000000063 0 -0.5999999999999919
outer loop
vertex -2.5 -2.5 0
vertex -2.5075 2.3502 0.01
vertex -2.5 2.5 0
endloop
endfacet
facet normal -0.8 0 -0.6000000000000001
outer loop
vertex -2.5075 -2.4975 0.01
vertex -10 0 10
vertex -2.5075 2.4975 0.01
endloop
endfacet
facet normal -1 0 0
outer loop
vertex -2.5075 -2.4975 0.01
vertex -2.5075 2.4975 0.01
vertex -2.5075 2.3502 0.01
endloop
endfacet
facet normal 1 0 0
outer loop
vertex -2.5075 -2.4975 0.01
vertex -2.5075 2.3502 0.01
vertex -2.5075 -2.45173 0.01
endloop
endfacet
facet normal -0.39579299297377823 0.7362600837035672 -0.5488797644818718
outer loop
vertex -2.5 2.5 0
vertex -2.50306 2.50581 0.01
vertex -2.50133 2.50674 0.01
endloop
endfacet
facet normal -0.3940006704212603 0.7371236219794437 -0.5490102345380308
outer loop
vertex -2.50306 2.50581 0.01
vertex -5.5557 8.3147 10
vertex -3.82683 9.2388 10
endloop
endfacet
facet normal -0.39583948892074694 0.7363465761649894 -0.5487301875977476
outer loop
vertex -2.50306 2.50581 0.01
vertex -3.82683 9.2388 10
vertex -2.50133 2.50674 0.01
endloop
endfacet
facet normal -0.5337533642168719 0.6499738548131165 -0.5409633390966054
outer loop
vertex -2.50306 2.50581 0.01
vertex -2.5 2.5 0
vertex -2.50457 2.50457 0.01
endloop
endfacet
facet normal -0.5335216673064699 0.6500990881421366 -0.5410414088693092
outer loop
vertex -7.07107 7.07107 10
vertex -5.5557 8.3147 10
vertex -2.50306 2.50581 0.01
endloop
endfacet
facet normal -0.5337167554931215 0.649929274834595 -0.5410530127620335
outer loop
vertex -7.07107 7.07107 10
vertex -2.50306 2.50581 0.01
vertex -2.50457 2.50457 0.01
endloop
endfacet
facet normal -0.2395304553382416 0.7900302737475206 -0.5643379550658207
outer loop
vertex -2.49945 2.50731 0.01
vertex -2.5 2.5 0
vertex -2.50133 2.50674 0.01
endloop
endfacet
facet normal -0.23966415072185207 0.790076742401622 -0.5642161252346609
outer loop
vertex -3.82683 9.2388 10
vertex -1.9509 9.80785 10
vertex -2.49945 2.50731 0.01
endloop
endfacet
facet normal -0.2395535575513867 0.7901064705213175 -0.5642214621093572
outer loop
vertex -3.82683 9.2388 10
vertex -2.49945 2.50731 0.01
vertex -2.50133 2.50674 0.01
endloop
endfacet
facet normal -0.07861700661412935 0.8068587520924103 -0.5854898124159907
outer loop
vertex -2.5 2.5 0
vertex -2.49945 2.50731 0.01
vertex -2.4975 2.5075 0.01
endloop
endfacet
facet normal -0.07947451174657325 0.8069051520499108 -0.5853100696023895
outer loop
vertex -2.49945 2.50731 0.01
vertex -1.9509 9.80785 10
vertex 0 10 10
endloop
endfacet
facet normal -0.07861700661436376 0.8068587520925244 -0.5854898124158023
outer loop
vertex -2.49945 2.50731 0.01
vertex 0 10 10
vertex -2.4975 2.5075 0.01
endloop
endfacet
facet normal -0.7900302737475767 0.23953045533826575 -0.5643379550657318
outer loop
vertex -2.5 2.5 0
vertex -2.50731 2.49945 0.01
vertex -2.50674 2.50133 0.01
endloop
endfacet
facet normal -0.7900767424016218 0.23966415072185157 -0.5642161252346612
outer loop
vertex -2.50731 2.49945 0.01
vertex -9.80785 1.9509 10
vertex -9.2388 3.82683 10
endloop
endfacet
facet normal -0.790106470521263 0.23955355755176647 -0.5642214621092722
outer loop
vertex -2.50731 2.49945 0.01
vertex -9.2388 3.82683 10
vertex -2.50674 2.50133 0.01
endloop
endfacet
facet normal -0.8068587520925485 0.07861700661411371 -0.5854898124158026
outer loop
vertex -2.50731 2.49945 0.01
vertex -2.5 2.5 0
vertex -2.5075 2.4975 0.01
endloop
endfacet
facet normal -0.8069051520499109 0.07947451174657356 -0.5853100696023897
outer loop
vertex -10 0 10
vertex -9.80785 1.9509 10
vertex -2.50731 2.49945 0.01
endloop
endfacet
facet normal -0.8068587520925387 0.07861700661436105 -0.5854898124157829
outer loop
vertex -10 0 10
vertex -2.50731 2.49945 0.01
vertex -2.5075 2.4975 0.01
endloop
endfacet
facet normal -0.7362600837037065 0.39579299297377546 -0.5488797644816871
outer loop
vertex -2.50581 2.50306 0.01
vertex -2.5 2.5 0
vertex -2.50674 2.50133 0.01
endloop
endfacet
facet normal -0.7371236219794441 0.3940006704212602 -0.5490102345380303
outer loop
vertex -9.2388 3.82683 10
vertex -8.3147 5.5557 10
vertex -2.50581 2.50306 0.01
endloop
endfacet
facet normal -0.73634657616491 0.3958394889207197 -0.5487301875978737
outer loop
vertex -9.2388 3.82683 10
vertex -2.50581 2.50306 0.01
vertex -2.50674 2.50133 0.01
endloop
endfacet
facet normal -0.6499738548128786 0.533753364216972 -0.5409633390967927
outer loop
vertex -2.5 2.5 0
vertex -2.50581 2.50306 0.01
vertex -2.50457 2.50457 0.01
endloop
endfacet
facet normal -0.6500990881421362 0.5335216673064701 -0.5410414088693094
outer loop
vertex -2.50581 2.50306 0.01
vertex -8.3147 5.5557 10
vertex -7.07107 7.07107 10
endloop
endfacet
facet normal -0.6499292748348419 0.5337167554931922 -0.5410530127616671
outer loop
vertex -2.50581 2.50306 0.01
vertex -7.07107 7.07107 10
vertex -2.50457 2.50457 0.01
endloop
endfacet
facet normal 0 -0.8000000000000445 -0.5999999999999407
outer loop
vertex -2.4975 -2.5075 0.01
vertex -2.5 -2.5 0
vertex -2.48552 -2.5075 0.01
endloop
endfacet
facet normal 0 -0.7999999999999767 -0.6000000000000308
outer loop
vertex -2.5 -2.5 0
vertex 2.5 -2.5 0
vertex 2.4975 -2.5075 0.01
endloop
endfacet
facet normal 0 -0.800000000000041 -0.5999999999999452
outer loop
vertex -2.5 -2.5 0
vertex 2.4975 -2.5075 0.01
vertex -2.48552 -2.5075 0.01
endloop
endfacet
facet normal 0 -0.7999999999999999 -0.6
outer loop
vertex 2.4975 -2.5075 0.01
vertex 0 -10 10
vertex -2.4975 -2.5075 0.01
endloop
endfacet
facet normal 0 0 1
outer loop
vertex 2.4975 -2.5075 0.01
vertex -2.4975 -2.5075 0.01
vertex -2.48552 -2.5075 0.01
endloop
endfacet
facet normal -0.7362600837036468 -0.3957929929737434 -0.5488797644817902
outer loop
vertex -2.5 -2.5 0
vertex -2.50581 -2.50306 0.01
vertex -2.50674 -2.50133 0.01
endloop
endfacet
facet normal -0.737123621979444 -0.39400067042126014 -0.5490102345380303
outer loop
vertex -2.50581 -2.50306 0.01
vertex -8.3147 -5.5557 10
vertex -9.2388 -3.82683 10
endloop
endfacet
facet normal -0.7363465761648977 -0.39583948892069765 -0.5487301875979063
outer loop
vertex -2.50581 -2.50306 0.01
vertex -9.2388 -3.82683 10
vertex -2.50674 -2.50133 0.01
endloop
endfacet
facet normal -0.6499738548128918 -0.5337533642169827 -0.5409633390967663
outer loop
vertex -2.50581 -2.50306 0.01
vertex -2.5 -2.5 0
vertex -2.50457 -2.50457 0.01
endloop
endfacet
facet normal -0.6500990881421362 -0.5335216673064701 -0.5410414088693095
outer loop
vertex -7.07107 -7.07107 10
vertex -8.3147 -5.5557 10
vertex -2.50581 -2.50306 0.01
endloop
endfacet
facet normal -0.6499292748347445 -0.5337167554931955 -0.5410530127617807
outer loop
vertex -7.07107 -7.07107 10
vertex -2.50581 -2.50306 0.01
vertex -2.50457 -2.50457 0.01
endloop
endfacet
facet normal -0.7900302737475118 -0.2395304553382461 -0.5643379550658314
outer loop
vertex -2.50731 -2.49945 0.01
vertex -2.5 -2.5 0
vertex -2.50674 -2.50133 0.01
endloop
endfacet
facet normal -0.7900767424016218 -0.23966415072185157 -0.5642161252346614
outer loop
vertex -9.2388 -3.82683 10
vertex -9.80785 -1.9509 10
vertex -2.50731 -2.49945 0.01
endloop
endfacet
facet normal -0.7901064705212497 -0.23955355755175428 -0.5642214621092965
outer loop
vertex -9.2388 -3.82683 10
vertex -2.50731 -2.49945 0.01
vertex -2.50674 -2.50133 0.01
endloop
endfacet
facet normal -0.806858752092538 -0.0786170066141127 -0.5854898124158173
outer loop
vertex -2.5 -2.5 0
vertex -2.50731 -2.49945 0.01
vertex -2.5075 -2.4975 0.01
endloop
endfacet
facet normal -0.8069051520499109 -0.07947451174657356 -0.5853100696023897
outer loop
vertex -2.50731 -2.49945 0.01
vertex -9.80785 -1.9509 10
vertex -10 0 10
endloop
endfacet
facet normal -0.8068587520925244 -0.07861700661436376 -0.5854898124158023
outer loop
vertex -2.50731 -2.49945 0.01
vertex -10 0 10
vertex -2.5075 -2.4975 0.01
endloop
endfacet
facet normal -0.2395304553382416 -0.7900302737475206 -0.5643379550658207
outer loop
vertex -2.5 -2.5 0
vertex -2.49945 -2.50731 0.01
vertex -2.50133 -2.50674 0.01
endloop
endfacet
facet normal -0.23966415072185207 -0.790076742401622 -0.5642161252346609
outer loop
vertex -2.49945 -2.50731 0.01
vertex -1.9509 -9.80785 10
vertex -3.82683 -9.2388 10
endloop
endfacet
facet normal -0.2395535575511787 -0.790106470521371 -0.5642214621093706
outer loop
vertex -2.49945 -2.50731 0.01
vertex -3.82683 -9.2388 10
vertex -2.50133 -2.50674 0.01
endloop
endfacet
facet normal -0.07861700661412935 -0.8068587520924103 -0.5854898124159907
outer loop
vertex -2.49945 -2.50731 0.01
vertex -2.5 -2.5 0
vertex -2.4975 -2.5075 0.01
endloop
endfacet
facet normal -0.07947451174657295 -0.8069051520499108 -0.5853100696023895
outer loop
vertex 0 -10 10
vertex -1.9509 -9.80785 10
vertex -2.49945 -2.50731 0.01
endloop
endfacet
facet normal -0.0786170066144346 -0.8068587520924965 -0.5854898124158314
outer loop
vertex 0 -10 10
vertex -2.49945 -2.50731 0.01
vertex -2.4975 -2.5075 0.01
endloop
endfacet
facet normal -0.39579299297377796 -0.7362600837035672 -0.5488797644818718
outer loop
vertex -2.50306 -2.50581 0.01
vertex -2.5 -2.5 0
vertex -2.50133 -2.50674 0.01
endloop
endfacet
facet normal -0.3940006704212603 -0.7371236219794437 -0.5490102345380308
outer loop
vertex -3.82683 -9.2388 10
vertex -5.5557 -8.3147 10
vertex -2.50306 -2.50581 0.01
endloop
endfacet
facet normal -0.39583948892089277 -0.7363465761649284 -0.5487301875977242
outer loop
vertex -3.82683 -9.2388 10
vertex -2.50306 -2.50581 0.01
vertex -2.50133 -2.50674 0.01
endloop
endfacet
facet normal -0.5337533642168719 -0.6499738548131165 -0.5409633390966054
outer loop
vertex -2.5 -2.5 0
vertex -2.50306 -2.50581 0.01
vertex -2.50457 -2.50457 0.01
endloop
endfacet
facet normal -0.53352166730647 -0.6500990881421365 -0.5410414088693091
outer loop
vertex -2.50306 -2.50581 0.01
vertex -5.5557 -8.3147 10
vertex -7.07107 -7.07107 10
endloop
endfacet
facet normal -0.5337167554931856 -0.6499292748345944 -0.5410530127619708
outer loop
vertex -2.50306 -2.50581 0.01
vertex -7.07107 -7.07107 10
vertex -2.50457 -2.50457 0.01
endloop
endfacet
facet normal 0.39579299297377796 0.7362600837035672 -0.5488797644818718
outer loop
vertex 2.50306 2.50581 0.01
vertex 2.5 2.5 0
vertex 2.50133 2.50674 0.01
endloop
endfacet
facet normal 0.3940006704212603 0.7371236219794437 -0.5490102345380308
outer loop
vertex 3.82683 9.2388 10
vertex 5.5557 8.3147 10
vertex 2.50306 2.50581 0.01
endloop
endfacet
facet normal 0.39583948892089277 0.7363465761649284 -0.5487301875977242
outer loop
vertex 3.82683 9.2388 10
vertex 2.50306 2.50581 0.01
vertex 2.50133 2.50674 0.01
endloop
endfacet
facet normal 0.5337533642168719 0.6499738548131165 -0.5409633390966054
outer loop
vertex 2.5 2.5 0
vertex 2.50306 2.50581 0.01
vertex 2.50457 2.50457 0.01
endloop
endfacet
facet normal 0.53352166730647 0.6500990881421365 -0.5410414088693091
outer loop
vertex 2.50306 2.50581 0.01
vertex 5.5557 8.3147 10
vertex 7.07107 7.07107 10
endloop
endfacet
facet normal 0.5337167554931856 0.6499292748345944 -0.5410530127619708
outer loop
vertex 2.50306 2.50581 0.01
vertex 7.07107 7.07107 10
vertex 2.50457 2.50457 0.01
endloop
endfacet
facet normal 0.2395304553382416 0.7900302737475206 -0.5643379550658207
outer loop
vertex 2.5 2.5 0
vertex 2.49945 2.50731 0.01
vertex 2.50133 2.50674 0.01
endloop
endfacet
facet normal 0.23966415072185207 0.790076742401622 -0.5642161252346609
outer loop
vertex 2.49945 2.50731 0.01
vertex 1.9509 9.80785 10
vertex 3.82683 9.2388 10
endloop
endfacet
facet normal 0.2395535575511787 0.790106470521371 -0.5642214621093706
outer loop
vertex 2.49945 2.50731 0.01
vertex 3.82683 9.2388 10
vertex 2.50133 2.50674 0.01
endloop
endfacet
facet normal 0.07861700661412935 0.8068587520924103 -0.5854898124159907
outer loop
vertex 2.49945 2.50731 0.01
vertex 2.5 2.5 0
vertex 2.4975 2.5075 0.01
endloop
endfacet
facet normal 0.07947451174657295 0.8069051520499108 -0.5853100696023895
outer loop
vertex 0 10 10
vertex 1.9509 9.80785 10
vertex 2.49945 2.50731 0.01
endloop
endfacet
facet normal 0.0786170066144346 0.8068587520924965 -0.5854898124158314
outer loop
vertex 0 10 10
vertex 2.49945 2.50731 0.01
vertex 2.4975 2.5075 0.01
endloop
endfacet
facet normal 0.7900302737475118 0.2395304553382461 -0.5643379550658314
outer loop
vertex 2.50731 2.49945 0.01
vertex 2.5 2.5 0
vertex 2.50674 2.50133 0.01
endloop
endfacet
facet normal 0.7900767424016218 0.23966415072185157 -0.5642161252346614
outer loop
vertex 9.2388 3.82683 10
vertex 9.80785 1.9509 10
vertex 2.50731 2.49945 0.01
endloop
endfacet
facet normal 0.7901064705212497 0.23955355755175428 -0.5642214621092965
outer loop
vertex 9.2388 3.82683 10
vertex 2.50731 2.49945 0.01
vertex 2.50674 2.50133 0.01
endloop
endfacet
facet normal 0.806858752092538 0.0786170066141127 -0.5854898124158173
outer loop
vertex 2.5 2.5 0
vertex 2.50731 2.49945 0.01
vertex 2.5075 2.4975 0.01
endloop
endfacet
facet normal 0.8069051520499109 0.07947451174657356 -0.5853100696023897
outer loop
vertex 2.50731 2.49945 0.01
vertex 9.80785 1.9509 10
vertex 10 0 10
endloop
endfacet
facet normal 0.8068587520925244 0.07861700661436376 -0.5854898124158023
outer loop
vertex 2.50731 2.49945 0.01
vertex 10 0 10
vertex 2.5075 2.4975 0.01
endloop
endfacet
facet normal 0.7362600837036468 0.3957929929737434 -0.5488797644817902
outer loop
vertex 2.5 2.5 0
vertex 2.50581 2.50306 0.01
vertex 2.50674 2.50133 0.01
endloop
endfacet
facet normal 0.737123621979444 0.39400067042126014 -0.5490102345380303
outer loop
vertex 2.50581 2.50306 0.01
vertex 8.3147 5.5557 10
vertex 9.2388 3.82683 10
endloop
endfacet
facet normal 0.7363465761648977 0.39583948892069765 -0.5487301875979063
outer loop
vertex 2.50581 2.50306 0.01
vertex 9.2388 3.82683 10
vertex 2.50674 2.50133 0.01
endloop
endfacet
facet normal 0.6499738548128918 0.5337533642169827 -0.5409633390967663
outer loop
vertex 2.50581 2.50306 0.01
vertex 2.5 2.5 0
vertex 2.50457 2.50457 0.01
endloop
endfacet
facet normal 0.6500990881421362 0.5335216673064701 -0.5410414088693095
outer loop
vertex 7.07107 7.07107 10
vertex 8.3147 5.5557 10
vertex 2.50581 2.50306 0.01
endloop
endfacet
facet normal 0.6499292748347445 0.5337167554931955 -0.5410530127617807
outer loop
vertex 7.07107 7.07107 10
vertex 2.50581 2.50306 0.01
vertex 2.50457 2.50457 0.01
endloop
endfacet
facet normal 0.8000000000000063 0 -0.5999999999999919
outer loop
vertex 2.5075 -2.4975 0.01
vertex 2.5 -2.5 0
vertex 2.5 2.5 0
endloop
endfacet
facet normal 0.800000000000006 0 -0.5999999999999919
outer loop
vertex 2.5075 -2.4975 0.01
vertex 2.5 2.5 0
vertex 2.5075 2.4975 0.01
endloop
endfacet
facet normal 0.7999999999999999 0 -0.6
outer loop
vertex 10 0 10
vertex 2.5075 -2.4975 0.01
vertex 2.5075 2.4975 0.01
endloop
endfacet
facet normal 0.7362600837037065 -0.39579299297377546 -0.5488797644816871
outer loop
vertex 2.50581 -2.50306 0.01
vertex 2.5 -2.5 0
vertex 2.50674 -2.50133 0.01
endloop
endfacet
facet normal 0.7371236219794441 -0.3940006704212602 -0.5490102345380303
outer loop
vertex 9.2388 -3.82683 10
vertex 8.3147 -5.5557 10
vertex 2.50581 -2.50306 0.01
endloop
endfacet
facet normal 0.73634657616491 -0.3958394889207197 -0.5487301875978737
outer loop
vertex 9.2388 -3.82683 10
vertex 2.50581 -2.50306 0.01
vertex 2.50674 -2.50133 0.01
endloop
endfacet
facet normal 0.6499738548128786 -0.533753364216972 -0.5409633390967927
outer loop
vertex 2.5 -2.5 0
vertex 2.50581 -2.50306 0.01
vertex 2.50457 -2.50457 0.01
endloop
endfacet
facet normal 0.6500990881421362 -0.5335216673064701 -0.5410414088693094
outer loop
vertex 2.50581 -2.50306 0.01
vertex 8.3147 -5.5557 10
vertex 7.07107 -7.07107 10
endloop
endfacet
facet normal 0.6499292748348419 -0.5337167554931922 -0.5410530127616671
outer loop
vertex 2.50581 -2.50306 0.01
vertex 7.07107 -7.07107 10
vertex 2.50457 -2.50457 0.01
endloop
endfacet
facet normal 0.7900302737475767 -0.23953045533826575 -0.5643379550657318
outer loop
vertex 2.5 -2.5 0
vertex 2.50731 -2.49945 0.01
vertex 2.50674 -2.50133 0.01
endloop
endfacet
facet normal 0.7900767424016218 -0.23966415072185157 -0.5642161252346612
outer loop
vertex 2.50731 -2.49945 0.01
vertex 9.80785 -1.9509 10
vertex 9.2388 -3.82683 10
endloop
endfacet
facet normal 0.790106470521263 -0.23955355755176647 -0.5642214621092722
outer loop
vertex 2.50731 -2.49945 0.01
vertex 9.2388 -3.82683 10
vertex 2.50674 -2.50133 0.01
endloop
endfacet
facet normal 0.8068587520925485 -0.07861700661411371 -0.5854898124158026
outer loop
vertex 2.50731 -2.49945 0.01
vertex 2.5 -2.5 0
vertex 2.5075 -2.4975 0.01
endloop
endfacet
facet normal 0.8069051520499109 -0.07947451174657356 -0.5853100696023897
outer loop
vertex 10 0 10
vertex 9.80785 -1.9509 10
vertex 2.50731 -2.49945 0.01
endloop
endfacet
facet normal 0.8068587520925387 -0.07861700661436105 -0.5854898124157829
outer loop
vertex 10 0 10
vertex 2.50731 -2.49945 0.01
vertex 2.5075 -2.4975 0.01
endloop
endfacet
facet normal 0.2395304553382416 -0.7900302737475206 -0.5643379550658207
outer loop
vertex 2.49945 -2.50731 0.01
vertex 2.5 -2.5 0
vertex 2.50133 -2.50674 0.01
endloop
endfacet
facet normal 0.23966415072185207 -0.790076742401622 -0.5642161252346609
outer loop
vertex 3.82683 -9.2388 10
vertex 1.9509 -9.80785 10
vertex 2.49945 -2.50731 0.01
endloop
endfacet
facet normal 0.2395535575513867 -0.7901064705213175 -0.5642214621093572
outer loop
vertex 3.82683 -9.2388 10
vertex 2.49945 -2.50731 0.01
vertex 2.50133 -2.50674 0.01
endloop
endfacet
facet normal 0.07861700661412935 -0.8068587520924103 -0.5854898124159907
outer loop
vertex 2.5 -2.5 0
vertex 2.49945 -2.50731 0.01
vertex 2.4975 -2.5075 0.01
endloop
endfacet
facet normal 0.07947451174657325 -0.8069051520499108 -0.5853100696023895
outer loop
vertex 2.49945 -2.50731 0.01
vertex 1.9509 -9.80785 10
vertex 0 -10 10
endloop
endfacet
facet normal 0.07861700661436376 -0.8068587520925244 -0.5854898124158023
outer loop
vertex 2.49945 -2.50731 0.01
vertex 0 -10 10
vertex 2.4975 -2.5075 0.01
endloop
endfacet
facet normal 0.39579299297377823 -0.7362600837035672 -0.5488797644818718
outer loop
vertex 2.5 -2.5 0
vertex 2.50306 -2.50581 0.01
vertex 2.50133 -2.50674 0.01
endloop
endfacet
facet normal 0.3940006704212603 -0.7371236219794437 -0.5490102345380308
outer loop
vertex 2.50306 -2.50581 0.01
vertex 5.5557 -8.3147 10
vertex 3.82683 -9.2388 10
endloop
endfacet
facet normal 0.39583948892074694 -0.7363465761649894 -0.5487301875977476
outer loop
vertex 2.50306 -2.50581 0.01
vertex 3.82683 -9.2388 10
vertex 2.50133 -2.50674 0.01
endloop
endfacet
facet normal 0.5337533642168719 -0.6499738548131165 -0.5409633390966054
outer loop
vertex 2.50306 -2.50581 0.01
vertex 2.5 -2.5 0
vertex 2.50457 -2.50457 0.01
endloop
endfacet
facet normal 0.5335216673064699 -0.6500990881421366 -0.5410414088693092
outer loop
vertex 7.07107 -7.07107 10
vertex 5.5557 -8.3147 10
vertex 2.50306 -2.50581 0.01
endloop
endfacet
facet normal 0.5337167554931215 -0.649929274834595 -0.5410530127620335
outer loop
vertex 7.07107 -7.07107 10
vertex 2.50306 -2.50581 0.01
vertex 2.50457 -2.50457 0.01
endloop
endfacet
facet normal 0 0 1
outer loop
vertex 5.5557 -8.3147 10
vertex 7.07107 -7.07107 10
vertex 8.3147 -5.5557 10
endloop
endfacet
facet normal 0 0 1
outer loop
vertex 5.5557 -8.3147 10
vertex 8.3147 -5.5557 10
vertex 9.2388 -3.82683 10
endloop
endfacet
facet normal 1.6314006291277616e-15 0 1
outer loop
vertex 5.5557 -8.3147 10
vertex 9.2388 -3.82683 10
vertex 9.80785 -1.9509 10
endloop
endfacet
facet normal 0 0 0.9999999999999999
outer loop
vertex 5.5557 -8.3147 10
vertex 9.80785 -1.9509 10
vertex 10 0 10
endloop
endfacet
facet normal 0 0 1
outer loop
vertex 5.5557 -8.3147 10
vertex 10 0 10
vertex 9.80785 1.9509 10
endloop
endfacet
facet normal -5.142013541209813e-16 0 1
outer loop
vertex 5.5557 -8.3147 10
vertex 9.80785 1.9509 10
vertex 9.2388 3.82683 10
endloop
endfacet
facet normal 8.080047094256156e-16 0 1
outer loop
vertex 5.5557 -8.3147 10
vertex 9.2388 3.82683 10
vertex 8.3147 5.5557 10
endloop
endfacet
facet normal 1.4920018873644347e-15 0 1
outer loop
vertex 5.5557 -8.3147 10
vertex 8.3147 5.5557 10
vertex 7.07107 7.07107 10
endloop
endfacet
facet normal -1.2688417273639592e-15 0 1
outer loop
vertex 5.5557 -8.3147 10
vertex 7.07107 7.07107 10
vertex 5.5557 8.3147 10
endloop
endfacet
facet normal -4.942893819265438e-16 0 1
outer loop
vertex 5.5557 -8.3147 10
vertex 5.5557 8.3147 10
vertex 3.82683 9.2388 10
endloop
endfacet
facet normal 4.448492935116756e-16 0 1
outer loop
vertex 5.5557 -8.3147 10
vertex 3.82683 9.2388 10
vertex 1.9509 9.80785 10
endloop
endfacet
facet normal 6.149645289564047e-16 0 1
outer loop
vertex 5.5557 -8.3147 10
vertex 1.9509 9.80785 10
vertex 0 10 10
endloop
endfacet
facet normal -5.792833786974007e-16 0 1
outer loop
vertex 5.5557 -8.3147 10
vertex 0 10 10
vertex -1.9509 9.80785 10
endloop
endfacet
facet normal -3.713482793605645e-16 0 1
outer loop
vertex 5.5557 -8.3147 10
vertex -1.9509 9.80785 10
vertex -3.82683 9.2388 10
endloop
endfacet
facet normal 3.642117136243086e-16 0 1
outer loop
vertex 5.5557 -8.3147 10
vertex -3.82683 9.2388 10
vertex -5.5557 8.3147 10
endloop
endfacet
facet normal 8.19475331954136e-16 0 1
outer loop
vertex 5.5557 -8.3147 10
vertex -5.5557 8.3147 10
vertex -7.07107 7.07107 10
endloop
endfacet
facet normal -8.355299682086938e-16 0 1
outer loop
vertex 5.5557 -8.3147 10
vertex -7.07107 7.07107 10
vertex -8.3147 5.5557 10
endloop
endfacet
facet normal -3.861880889531836e-16 0 1
outer loop
vertex 5.5557 -8.3147 10
vertex -8.3147 5.5557 10
vertex -9.2388 3.82683 10
endloop
endfacet
facet normal 2.049883918389888e-16 0 0.9999999999999999
outer loop
vertex 5.5557 -8.3147 10
vertex -9.2388 3.82683 10
vertex -9.80785 1.9509 10
endloop
endfacet
facet normal 0 0 1
outer loop
vertex 5.5557 -8.3147 10
vertex -9.80785 1.9509 10
vertex -10 0 10
endloop
endfacet
facet normal 0 0 1
outer loop
vertex 5.5557 -8.3147 10
vertex -10 0 10
vertex -9.80785 -1.9509 10
endloop
endfacet
facet normal -2.8196561061612204e-16 0 1
outer loop
vertex 5.5557 -8.3147 10
vertex -9.80785 -1.9509 10
vertex -9.2388 -3.82683 10
endloop
endfacet
facet normal 0 0 1
outer loop
vertex 5.5557 -8.3147 10
vertex -9.2388 -3.82683 10
vertex -8.3147 -5.5557 10
endloop
endfacet
facet normal 0 0 1
outer loop
vertex 5.5557 -8.3147 10
vertex -8.3147 -5.5557 10
vertex -7.07107 -7.07107 10
endloop
endfacet
facet normal 0 0 1
outer loop
vertex 5.5557 -8.3147 10
vertex -7.07107 -7.07107 10
vertex -5.5557 -8.3147 10
endloop
endfacet
facet normal 0 0 0.9999999999999999
outer loop
vertex 5.5557 -8.3147 10
vertex -5.5557 -8.3147 10
vertex -3.82683 -9.2388 10
endloop
endfacet
facet normal 0 0 0.9999999999999999
outer loop
vertex 5.5557 -8.3147 10
vertex -3.82683 -9.2388 10
vertex -1.9509 -9.80785 10
endloop
endfacet
facet normal 0 0 1
outer loop
vertex 5.5557 -8.3147 10
vertex -1.9509 -9.80785 10
vertex 0 -10 10
endloop
endfacet
facet normal 0 0 1
outer loop
vertex 5.5557 -8.3147 10
vertex 0 -10 10
vertex 1.9509 -9.80785 10
endloop
endfacet
facet normal 0 0 1
outer loop
vertex 5.5557 -8.3147 10
vertex 1.9509 -9.80785 10
vertex 3.82683 -9.2388 10
endloop
endfacet
endsolid JSxCAD
