solid JSxCAD
facet normal 0 0.8192319205201439 0.5734623443617519
outer loop
vertex -2.5 2.5 0
vertex 2.5 2.5 0
vertex 2.49997 2.50007 -0.0001
endloop
endfacet
facet normal 8.000087041209919e-7 0.7999999039986891 0.600000128001193
outer loop
vertex -2.5 2.5 0
vertex 2.49997 2.50007 -0.0001
vertex 0 10 -10
endloop
endfacet
facet normal 0.3940003816366029 0.7371230817011943 0.5490111671847355
outer loop
vertex 5.5557 8.3147 -10
vertex 3.82683 9.2388 -10
vertex 2.49997 2.50007 -0.0001
endloop
endfacet
facet normal 0.16257250459221667 0.8305832413965681 0.5326365175819098
outer loop
vertex 5.5557 8.3147 -10
vertex 2.49997 2.50007 -0.0001
vertex 2.5 2.5 0
endloop
endfacet
facet normal 0.5335216893046002 0.6500991149469786 0.5410413549690272
outer loop
vertex 7.07107 7.07107 -10
vertex 5.5557 8.3147 -10
vertex 2.5 2.5 0
endloop
endfacet
facet normal 0.23966401832947376 0.7900763059569622 0.5642167926281266
outer loop
vertex 1.9509 9.80785 -10
vertex 2.49997 2.50007 -0.0001
vertex 3.82683 9.2388 -10
endloop
endfacet
facet normal 0.07947448338535829 0.8069048640983432 0.5853104704215234
outer loop
vertex 0 10 -10
vertex 2.49997 2.50007 -0.0001
vertex 1.9509 9.80785 -10
endloop
endfacet
facet normal 0.7900759818237046 0.23966813165555095 0.5642154992678301
outer loop
vertex 9.80785 1.9509 -10
vertex 9.23879 3.82683 -10
vertex 2.5 2.5 0
endloop
endfacet
facet normal 0.80690507341443 0.07947450400152867 0.5853101790604401
outer loop
vertex 10 0 -10
vertex 9.80785 1.9509 -10
vertex 2.5 2.5 0
endloop
endfacet
facet normal 0.737125459202784 0.3939973888115939 0.5490101228618014
outer loop
vertex 9.23879 3.82683 -10
vertex 8.3147 5.5557 -10
vertex 2.5 2.5 0
endloop
endfacet
facet normal 0.6500991149469789 0.5335216893046005 0.5410413549690262
outer loop
vertex 8.3147 5.5557 -10
vertex 7.07107 7.07107 -10
vertex 2.5 2.5 0
endloop
endfacet
facet normal 0.8 0 0.6
outer loop
vertex 2.5 -2.5 0
vertex 10 0 -10
vertex 2.5 2.5 0
endloop
endfacet
facet normal 0 -0.8 0.6
outer loop
vertex -2.5 -2.5 0
vertex 0 -10 -10
vertex 2.5 -2.5 0
endloop
endfacet
facet normal -0.7808688094427257 0 0.6246950475548052
outer loop
vertex -2.5 -2.5 0
vertex -2.5 2.5 0
vertex -2.50008 2.49997 -0.0001
endloop
endfacet
facet normal -0.8000000960008014 -8.000088963038025e-7 0.5999998719983769
outer loop
vertex -10 0 -10
vertex -2.5 -2.5 0
vertex -2.50008 2.49997 -0.0001
endloop
endfacet
facet normal -0.39400070875254833 0.7371236936922607 0.5490101107447548
outer loop
vertex -2.5 2.5 0
vertex -3.82683 9.2388 -10
vertex -5.5557 8.3147 -10
endloop
endfacet
facet normal -0.5335216893046 0.6500991149469786 0.5410413549690272
outer loop
vertex -2.5 2.5 0
vertex -5.5557 8.3147 -10
vertex -7.07107 7.07107 -10
endloop
endfacet
facet normal -0.23966413064874226 0.7900766762286181 0.5642162264238081
outer loop
vertex -2.5 2.5 0
vertex -1.9509 9.80785 -10
vertex -3.82683 9.2388 -10
endloop
endfacet
facet normal -0.07947450400152895 0.8069050734144297 0.5853101790604401
outer loop
vertex -2.5 2.5 0
vertex 0 10 -10
vertex -1.9509 9.80785 -10
endloop
endfacet
facet normal -0.7900766581562003 0.2396641251666034 0.5642162540594318
outer loop
vertex -9.80785 1.9509 -10
vertex -2.50008 2.49997 -0.0001
vertex -9.2388 3.82683 -10
endloop
endfacet
facet normal -0.806905245195151 0.07947452092072801 0.5853099399471821
outer loop
vertex -10 0 -10
vertex -2.50008 2.49997 -0.0001
vertex -9.80785 1.9509 -10
endloop
endfacet
facet normal -0.7884216824782118 0.2845150689122852 0.5453828253255355
outer loop
vertex -2.50008 2.49997 -0.0001
vertex -2.5 2.5 0
vertex -8.3147 5.5557 -10
endloop
endfacet
facet normal -0.7371233800096167 0.39400054108573007 0.5490106522348634
outer loop
vertex -8.3147 5.5557 -10
vertex -9.2388 3.82683 -10
vertex -2.50008 2.49997 -0.0001
endloop
endfacet
facet normal -0.6500991149469789 0.5335216893046005 0.5410413549690262
outer loop
vertex -7.07107 7.07107 -10
vertex -8.3147 5.5557 -10
vertex -2.5 2.5 0
endloop
endfacet
facet normal -0.6500991149469789 -0.5335216893046005 0.5410413549690261
outer loop
vertex -2.5 -2.5 0
vertex -8.3147 -5.5557 -10
vertex -7.07107 -7.07107 -10
endloop
endfacet
facet normal -0.7371236936922607 -0.3940007087525477 0.549010110744755
outer loop
vertex -2.5 -2.5 0
vertex -9.2388 -3.82683 -10
vertex -8.3147 -5.5557 -10
endloop
endfacet
facet normal -0.7900766762286178 -0.23966413064874284 0.5642162264238083
outer loop
vertex -2.5 -2.5 0
vertex -9.80785 -1.9509 -10
vertex -9.2388 -3.82683 -10
endloop
endfacet
facet normal -0.80690507341443 -0.07947450400152867 0.5853101790604401
outer loop
vertex -2.5 -2.5 0
vertex -10 0 -10
vertex -9.80785 -1.9509 -10
endloop
endfacet
facet normal 0.3940007087525482 -0.7371236936922606 0.5490101107447548
outer loop
vertex 3.82683 -9.2388 -10
vertex 5.5557 -8.3147 -10
vertex 2.5 -2.5 0
endloop
endfacet
facet normal 0.5335216893045999 -0.6500991149469786 0.5410413549690274
outer loop
vertex 5.5557 -8.3147 -10
vertex 7.07107 -7.07107 -10
vertex 2.5 -2.5 0
endloop
endfacet
facet normal 0.23966413064874226 -0.7900766762286181 0.5642162264238081
outer loop
vertex 1.9509 -9.80785 -10
vertex 3.82683 -9.2388 -10
vertex 2.5 -2.5 0
endloop
endfacet
facet normal 0.07947450400152865 -0.8069050734144297 0.5853101790604402
outer loop
vertex 0 -10 -10
vertex 1.9509 -9.80785 -10
vertex 2.5 -2.5 0
endloop
endfacet
facet normal 0.7900759818237046 -0.23966813165555095 0.5642154992678301
outer loop
vertex 2.5 -2.5 0
vertex 9.23879 -3.82683 -10
vertex 9.80785 -1.9509 -10
endloop
endfacet
facet normal 0.80690507341443 -0.07947450400152867 0.5853101790604401
outer loop
vertex 2.5 -2.5 0
vertex 9.80785 -1.9509 -10
vertex 10 0 -10
endloop
endfacet
facet normal 0.7371254592027839 -0.3939973888115939 0.5490101228618015
outer loop
vertex 2.5 -2.5 0
vertex 8.3147 -5.5557 -10
vertex 9.23879 -3.82683 -10
endloop
endfacet
facet normal 0.6500991149469789 -0.5335216893046005 0.5410413549690261
outer loop
vertex 2.5 -2.5 0
vertex 7.07107 -7.07107 -10
vertex 8.3147 -5.5557 -10
endloop
endfacet
facet normal -0.39400070875254833 -0.7371236936922607 0.5490101107447548
outer loop
vertex -2.5 -2.5 0
vertex -5.5557 -8.3147 -10
vertex -3.82683 -9.2388 -10
endloop
endfacet
facet normal -0.5335216893046 -0.6500991149469786 0.5410413549690272
outer loop
vertex -2.5 -2.5 0
vertex -7.07107 -7.07107 -10
vertex -5.5557 -8.3147 -10
endloop
endfacet
facet normal -0.23966413064874226 -0.7900766762286181 0.5642162264238081
outer loop
vertex -2.5 -2.5 0
vertex -3.82683 -9.2388 -10
vertex -1.9509 -9.80785 -10
endloop
endfacet
facet normal 0 0 -1
outer loop
vertex 5.5557 8.3147 -10
vertex 7.07107 7.07107 -10
vertex 8.3147 5.5557 -10
endloop
endfacet
facet normal 9.47772719788238e-15 0 -1
outer loop
vertex 8.3147 5.5557 -10
vertex 9.23879 3.82683 -10
vertex 9.80785 1.9509 -10
endloop
endfacet
facet normal 0 0 -1
outer loop
vertex 9.80785 1.9509 -10
vertex 10 0 -10
vertex 9.80785 -1.9509 -10
endloop
endfacet
facet normal 9.477727197882374e-15 0 -0.9999999999999999
outer loop
vertex 9.80785 -1.9509 -10
vertex 9.23879 -3.82683 -10
vertex 8.3147 -5.5557 -10
endloop
endfacet
facet normal 0 0 -1
outer loop
vertex 8.3147 -5.5557 -10
vertex 7.07107 -7.07107 -10
vertex 5.5557 -8.3147 -10
endloop
endfacet
facet normal 0 0 -1
outer loop
vertex 5.5557 -8.3147 -10
vertex 3.82683 -9.2388 -10
vertex 1.9509 -9.80785 -10
endloop
endfacet
facet normal 0 0 -1
outer loop
vertex 1.9509 -9.80785 -10
vertex 0 -10 -10
vertex -1.9509 -9.80785 -10
endloop
endfacet
facet normal 0 0 -1
outer loop
vertex -1.9509 -9.80785 -10
vertex -3.82683 -9.2388 -10
vertex -5.5557 -8.3147 -10
endloop
endfacet
facet normal 0 0 -1
outer loop
vertex -5.5557 -8.3147 -10
vertex -7.07107 -7.07107 -10
vertex -8.3147 -5.5557 -10
endloop
endfacet
facet normal -9.477271498440389e-15 0 -1
outer loop
vertex -8.3147 -5.5557 -10
vertex -9.2388 -3.82683 -10
vertex -9.80785 -1.9509 -10
endloop
endfacet
facet normal 0 0 -1
outer loop
vertex -9.80785 -1.9509 -10
vertex -10 0 -10
vertex -9.80785 1.9509 -10
endloop
endfacet
facet normal -9.477271498440395e-15 0 -1
outer loop
vertex -9.80785 1.9509 -10
vertex -9.2388 3.82683 -10
vertex -8.3147 5.5557 -10
endloop
endfacet
facet normal 0 0 -1
outer loop
vertex -8.3147 5.5557 -10
vertex -7.07107 7.07107 -10
vertex -5.5557 8.3147 -10
endloop
endfacet
facet normal 0 0 -1
outer loop
vertex -5.5557 8.3147 -10
vertex -3.82683 9.2388 -10
vertex -1.9509 9.80785 -10
endloop
endfacet
facet normal 0 0 -1
outer loop
vertex -1.9509 9.80785 -10
vertex 0 10 -10
vertex 1.9509 9.80785 -10
endloop
endfacet
facet normal 0 0 -1
outer loop
vertex 1.9509 9.80785 -10
vertex 3.82683 9.2388 -10
vertex 5.5557 8.3147 -10
endloop
endfacet
facet normal 0 0 -0.9999999999999999
outer loop
vertex 5.5557 8.3147 -10
vertex 8.3147 5.5557 -10
vertex 9.80785 1.9509 -10
endloop
endfacet
facet normal 0 0 -1
outer loop
vertex 9.80785 1.9509 -10
vertex 9.80785 -1.9509 -10
vertex 8.3147 -5.5557 -10
endloop
endfacet
facet normal 0 0 -1
outer loop
vertex 8.3147 -5.5557 -10
vertex 5.5557 -8.3147 -10
vertex 1.9509 -9.80785 -10
endloop
endfacet
facet normal 0 0 -1
outer loop
vertex 1.9509 -9.80785 -10
vertex -1.9509 -9.80785 -10
vertex -5.5557 -8.3147 -10
endloop
endfacet
facet normal 0 0 -0.9999999999999999
outer loop
vertex -5.5557 -8.3147 -10
vertex -8.3147 -5.5557 -10
vertex -9.80785 -1.9509 -10
endloop
endfacet
facet normal 0 0 -1
outer loop
vertex -9.80785 -1.9509 -10
vertex -9.80785 1.9509 -10
vertex -8.3147 5.5557 -10
endloop
endfacet
facet normal 0 0 -1
outer loop
vertex -8.3147 5.5557 -10
vertex -5.5557 8.3147 -10
vertex -1.9509 9.80785 -10
endloop
endfacet
facet normal 0 0 -1
outer loop
vertex -1.9509 9.80785 -10
vertex 1.9509 9.80785 -10
vertex 5.5557 8.3147 -10
endloop
endfacet
facet normal 0 0 -1
outer loop
vertex 5.5557 8.3147 -10
vertex 9.80785 1.9509 -10
vertex 8.3147 -5.5557 -10
endloop
endfacet
facet normal 0 0 -0.9999999999999999
outer loop
vertex 8.3147 -5.5557 -10
vertex 1.9509 -9.80785 -10
vertex -5.5557 -8.3147 -10
endloop
endfacet
facet normal 0 0 -1
outer loop
vertex -5.5557 -8.3147 -10
vertex -9.80785 -1.9509 -10
vertex -8.3147 5.5557 -10
endloop
endfacet
facet normal 0 0 -0.9999999999999999
outer loop
vertex -8.3147 5.5557 -10
vertex -1.9509 9.80785 -10
vertex 5.5557 8.3147 -10
endloop
endfacet
facet normal 0 0 -1
outer loop
vertex 5.5557 8.3147 -10
vertex 8.3147 -5.5557 -10
vertex -5.5557 -8.3147 -10
endloop
endfacet
facet normal 0 0 -1
outer loop
vertex -5.5557 -8.3147 -10
vertex -8.3147 5.5557 -10
vertex 5.5557 8.3147 -10
endloop
endfacet
facet normal -0.07947450400152895 -0.8069050734144297 0.5853101790604401
outer loop
vertex -2.5 -2.5 0
vertex -1.9509 -9.80785 -10
vertex 0 -10 -10
endloop
endfacet
facet normal -0.39400070875254833 0.7371236936922607 -0.5490101107447548
outer loop
vertex -2.5 2.5 0
vertex -5.5557 8.3147 10
vertex -3.82683 9.2388 10
endloop
endfacet
facet normal -0.5335216893046 0.6500991149469786 -0.5410413549690272
outer loop
vertex -2.5 2.5 0
vertex -7.07107 7.07107 10
vertex -5.5557 8.3147 10
endloop
endfacet
facet normal -0.23966413064874226 0.7900766762286181 -0.5642162264238081
outer loop
vertex -2.5 2.5 0
vertex -3.82683 9.2388 10
vertex -1.9509 9.80785 10
endloop
endfacet
facet normal -0.07947450400152895 0.8069050734144297 -0.5853101790604401
outer loop
vertex -2.5 2.5 0
vertex -1.9509 9.80785 10
vertex 0 10 10
endloop
endfacet
facet normal -0.7900766762286177 0.2396641306487428 -0.5642162264238083
outer loop
vertex -9.80785 1.9509 10
vertex -9.2388 3.82683 10
vertex -2.5 2.5 0
endloop
endfacet
facet normal -0.80690507341443 0.07947450400152867 -0.5853101790604401
outer loop
vertex -10 0 10
vertex -9.80785 1.9509 10
vertex -2.5 2.5 0
endloop
endfacet
facet normal -0.7371236936922609 0.3940007087525477 -0.5490101107447549
outer loop
vertex -9.2388 3.82683 10
vertex -8.3147 5.5557 10
vertex -2.5 2.5 0
endloop
endfacet
facet normal -0.6500991149469789 0.5335216893046005 -0.5410413549690262
outer loop
vertex -8.3147 5.5557 10
vertex -7.07107 7.07107 10
vertex -2.5 2.5 0
endloop
endfacet
facet normal -0.7371236936922607 -0.3940007087525477 -0.549010110744755
outer loop
vertex -2.5 -2.5 0
vertex -8.3147 -5.5557 10
vertex -9.2388 -3.82683 10
endloop
endfacet
facet normal -0.4747634059328313 -0.6980083229613607 -0.5360821667092897
outer loop
vertex -2.5 -2.5 0
vertex -2.50001 -2.50007 0.0001
vertex -7.07107 -7.07107 10
endloop
endfacet
facet normal -0.6500991149469789 -0.5335216893046005 -0.5410413549690261
outer loop
vertex -2.5 -2.5 0
vertex -7.07107 -7.07107 10
vertex -8.3147 -5.5557 10
endloop
endfacet
facet normal -0.7900766762286178 -0.23966413064874284 -0.5642162264238083
outer loop
vertex -2.5 -2.5 0
vertex -9.2388 -3.82683 10
vertex -9.80785 -1.9509 10
endloop
endfacet
facet normal -0.80690507341443 -0.07947450400152867 -0.5853101790604401
outer loop
vertex -2.5 -2.5 0
vertex -9.80785 -1.9509 10
vertex -10 0 10
endloop
endfacet
facet normal -0.23966422239144383 -0.7900769786675702 -0.564215763945876
outer loop
vertex -3.82683 -9.2388 10
vertex -2.5 -2.50008 0.0001
vertex -1.9509 -9.80785 10
endloop
endfacet
facet normal -0.0794745320116414 -0.8069053578012613 -0.5853097832030053
outer loop
vertex -1.9509 -9.80785 10
vertex -2.5 -2.50008 0.0001
vertex 0 -10 10
endloop
endfacet
facet normal -0.39400072254581575 -0.7371237194976564 -0.5490100661985309
outer loop
vertex -2.50001 -2.50007 0.0001
vertex -3.82683 -9.2388 10
vertex -5.5557 -8.3147 10
endloop
endfacet
facet normal -0.5938312088276948 -0.5938312089111015 -0.5428894829939316
outer loop
vertex -7.07107 -7.07107 10
vertex -2.50001 -2.50007 0.0001
vertex -2.5 -2.50008 0.0001
endloop
endfacet
facet normal -0.5335216287954692 -0.6500990412162693 -0.5410415032297584
outer loop
vertex -5.5557 -8.3147 10
vertex -7.07107 -7.07107 10
vertex -2.5 -2.50008 0.0001
endloop
endfacet
facet normal -0.8 0 -0.6
outer loop
vertex -2.5 -2.5 0
vertex -10 0 10
vertex -2.5 2.5 0
endloop
endfacet
facet normal 8.000087041209919e-7 0.7999999039986891 -0.600000128001193
outer loop
vertex -2.5 2.5 0
vertex 0 10 10
vertex 2.49997 2.50007 0.0001
endloop
endfacet
facet normal 0 0.8192319205201439 -0.5734623443617519
outer loop
vertex -2.5 2.5 0
vertex 2.49997 2.50007 0.0001
vertex 2.5 2.5 0
endloop
endfacet
facet normal 0.39399706170319937 0.7371248472192214 -0.5490111792862553
outer loop
vertex 3.82683 9.23879 10
vertex 5.5557 8.3147 10
vertex 2.49997 2.50007 0.0001
endloop
endfacet
facet normal 0.16257250459221667 0.8305832413965681 -0.5326365175819098
outer loop
vertex 5.5557 8.3147 10
vertex 2.5 2.5 0
vertex 2.49997 2.50007 0.0001
endloop
endfacet
facet normal 0.5335216893045999 0.6500991149469786 -0.5410413549690274
outer loop
vertex 5.5557 8.3147 10
vertex 7.07107 7.07107 10
vertex 2.5 2.5 0
endloop
endfacet
facet normal 0.23966801933325485 0.7900756115485755 -0.5642160654793685
outer loop
vertex 1.9509 9.80785 10
vertex 3.82683 9.23879 10
vertex 2.49997 2.50007 0.0001
endloop
endfacet
facet normal 0.07947448338535829 0.8069048640983432 -0.5853104704215234
outer loop
vertex 0 10 10
vertex 1.9509 9.80785 10
vertex 2.49997 2.50007 0.0001
endloop
endfacet
facet normal 0.7900766762286177 0.2396641306487428 -0.5642162264238083
outer loop
vertex 9.2388 3.82683 10
vertex 9.80785 1.9509 10
vertex 2.5 2.5 0
endloop
endfacet
facet normal 0.8069050734144301 0.07947450400152868 -0.58531017906044
outer loop
vertex 9.80785 1.9509 10
vertex 10 0 10
vertex 2.5 2.5 0
endloop
endfacet
facet normal 0.7371236936922607 0.3940007087525477 -0.5490101107447549
outer loop
vertex 8.3147 5.5557 10
vertex 9.2388 3.82683 10
vertex 2.5 2.5 0
endloop
endfacet
facet normal 0.6500991149469789 0.5335216893046005 -0.5410413549690262
outer loop
vertex 7.07107 7.07107 10
vertex 8.3147 5.5557 10
vertex 2.5 2.5 0
endloop
endfacet
facet normal 8.000040960472628e-7 -0.8000000960002254 -0.5999998719991448
outer loop
vertex 2.5 -2.5 0
vertex 0 -10 10
vertex -2.5 -2.50008 0.0001
endloop
endfacet
facet normal 0 -0.8192319205210358 -0.573462344360478
outer loop
vertex -2.50001 -2.50007 0.0001
vertex -2.5 -2.5 0
vertex 2.5 -2.5 0
endloop
endfacet
facet normal -0.00001999967999513991 -0.0000199996799951399 -0.9999999996000127
outer loop
vertex -2.50001 -2.50007 0.0001
vertex 2.5 -2.5 0
vertex -2.5 -2.50008 0.0001
endloop
endfacet
facet normal 0.8 0 -0.6
outer loop
vertex 10 0 10
vertex 2.5 -2.5 0
vertex 2.5 2.5 0
endloop
endfacet
facet normal 0.7371236936922607 -0.3940007087525477 -0.549010110744755
outer loop
vertex 2.5 -2.5 0
vertex 9.2388 -3.82683 10
vertex 8.3147 -5.5557 10
endloop
endfacet
facet normal 0.6500991149469789 -0.5335216893046005 -0.5410413549690261
outer loop
vertex 2.5 -2.5 0
vertex 8.3147 -5.5557 10
vertex 7.07107 -7.07107 10
endloop
endfacet
facet normal 0.7900766762286178 -0.23966413064874284 -0.5642162264238083
outer loop
vertex 2.5 -2.5 0
vertex 9.80785 -1.9509 10
vertex 9.2388 -3.82683 10
endloop
endfacet
facet normal 0.80690507341443 -0.07947450400152867 -0.5853101790604401
outer loop
vertex 2.5 -2.5 0
vertex 10 0 10
vertex 9.80785 -1.9509 10
endloop
endfacet
facet normal 0.23966413064874229 -0.7900766762286182 -0.5642162264238081
outer loop
vertex 3.82683 -9.2388 10
vertex 1.9509 -9.80785 10
vertex 2.5 -2.5 0
endloop
endfacet
facet normal 0.07947450400152924 -0.8069050734144297 -0.5853101790604401
outer loop
vertex 1.9509 -9.80785 10
vertex 0 -10 10
vertex 2.5 -2.5 0
endloop
endfacet
facet normal 0.39400070875254833 -0.7371236936922607 -0.5490101107447548
outer loop
vertex 5.5557 -8.3147 10
vertex 3.82683 -9.2388 10
vertex 2.5 -2.5 0
endloop
endfacet
facet normal 0.5335216893046002 -0.6500991149469786 -0.5410413549690272
outer loop
vertex 7.07107 -7.07107 10
vertex 5.5557 -8.3147 10
vertex 2.5 -2.5 0
endloop
endfacet
facet normal 0 0 1
outer loop
vertex 5.5557 -8.3147 10
vertex 7.07107 -7.07107 10
vertex 8.3147 -5.5557 10
endloop
endfacet
facet normal 9.477271498440389e-15 0 1
outer loop
vertex 8.3147 -5.5557 10
vertex 9.2388 -3.82683 10
vertex 9.80785 -1.9509 10
endloop
endfacet
facet normal 0 0 1
outer loop
vertex 9.80785 -1.9509 10
vertex 10 0 10
vertex 9.80785 1.9509 10
endloop
endfacet
facet normal 9.477271498440395e-15 0 1
outer loop
vertex 9.80785 1.9509 10
vertex 9.2388 3.82683 10
vertex 8.3147 5.5557 10
endloop
endfacet
facet normal 0 0 1
outer loop
vertex 8.3147 5.5557 10
vertex 7.07107 7.07107 10
vertex 5.5557 8.3147 10
endloop
endfacet
facet normal 0 0 1
outer loop
vertex 5.5557 8.3147 10
vertex 3.82683 9.23879 10
vertex 1.9509 9.80785 10
endloop
endfacet
facet normal 0 0 1
outer loop
vertex 1.9509 9.80785 10
vertex 0 10 10
vertex -1.9509 9.80785 10
endloop
endfacet
facet normal 0 0 1
outer loop
vertex -1.9509 9.80785 10
vertex -3.82683 9.2388 10
vertex -5.5557 8.3147 10
endloop
endfacet
facet normal 0 0 1
outer loop
vertex -5.5557 8.3147 10
vertex -7.07107 7.07107 10
vertex -8.3147 5.5557 10
endloop
endfacet
facet normal -9.477271498440389e-15 0 1
outer loop
vertex -8.3147 5.5557 10
vertex -9.2388 3.82683 10
vertex -9.80785 1.9509 10
endloop
endfacet
facet normal 0 0 1
outer loop
vertex -9.80785 1.9509 10
vertex -10 0 10
vertex -9.80785 -1.9509 10
endloop
endfacet
facet normal -9.477271498440395e-15 0 1
outer loop
vertex -9.80785 -1.9509 10
vertex -9.2388 -3.82683 10
vertex -8.3147 -5.5557 10
endloop
endfacet
facet normal 0 0 1
outer loop
vertex -8.3147 -5.5557 10
vertex -7.07107 -7.07107 10
vertex -5.5557 -8.3147 10
endloop
endfacet
facet normal 0 0 1
outer loop
vertex -5.5557 -8.3147 10
vertex -3.82683 -9.2388 10
vertex -1.9509 -9.80785 10
endloop
endfacet
facet normal 0 0 1
outer loop
vertex -1.9509 -9.80785 10
vertex 0 -10 10
vertex 1.9509 -9.80785 10
endloop
endfacet
facet normal 0 0 1
outer loop
vertex 1.9509 -9.80785 10
vertex 3.82683 -9.2388 10
vertex 5.5557 -8.3147 10
endloop
endfacet
facet normal 0 0 0.9999999999999999
outer loop
vertex 5.5557 -8.3147 10
vertex 8.3147 -5.5557 10
vertex 9.80785 -1.9509 10
endloop
endfacet
facet normal 0 0 1
outer loop
vertex 9.80785 -1.9509 10
vertex 9.80785 1.9509 10
vertex 8.3147 5.5557 10
endloop
endfacet
facet normal 0 0 1
outer loop
vertex 8.3147 5.5557 10
vertex 5.5557 8.3147 10
vertex 1.9509 9.80785 10
endloop
endfacet
facet normal 0 0 1
outer loop
vertex 1.9509 9.80785 10
vertex -1.9509 9.80785 10
vertex -5.5557 8.3147 10
endloop
endfacet
facet normal 0 0 0.9999999999999999
outer loop
vertex -5.5557 8.3147 10
vertex -8.3147 5.5557 10
vertex -9.80785 1.9509 10
endloop
endfacet
facet normal 0 0 1
outer loop
vertex -9.80785 1.9509 10
vertex -9.80785 -1.9509 10
vertex -8.3147 -5.5557 10
endloop
endfacet
facet normal 0 0 1
outer loop
vertex -8.3147 -5.5557 10
vertex -5.5557 -8.3147 10
vertex -1.9509 -9.80785 10
endloop
endfacet
facet normal 0 0 1
outer loop
vertex -1.9509 -9.80785 10
vertex 1.9509 -9.80785 10
vertex 5.5557 -8.3147 10
endloop
endfacet
facet normal 0 0 1
outer loop
vertex 5.5557 -8.3147 10
vertex 9.80785 -1.9509 10
vertex 8.3147 5.5557 10
endloop
endfacet
facet normal 0 0 0.9999999999999999
outer loop
vertex 8.3147 5.5557 10
vertex 1.9509 9.80785 10
vertex -5.5557 8.3147 10
endloop
endfacet
facet normal 0 0 1
outer loop
vertex -5.5557 8.3147 10
vertex -9.80785 1.9509 10
vertex -8.3147 -5.5557 10
endloop
endfacet
facet normal 0 0 0.9999999999999999
outer loop
vertex -8.3147 -5.5557 10
vertex -1.9509 -9.80785 10
vertex 5.5557 -8.3147 10
endloop
endfacet
facet normal 0 0 1
outer loop
vertex 5.5557 -8.3147 10
vertex 8.3147 5.5557 10
vertex -5.5557 8.3147 10
endloop
endfacet
facet normal 0 0 1
outer loop
vertex -5.5557 8.3147 10
vertex -8.3147 -5.5557 10
vertex 5.5557 -8.3147 10
endloop
endfacet
endsolid JSxCAD
