solid JSxCAD
facet normal 0 0.8 0.6
outer loop
vertex 0 10 -10
vertex -2.5 2.5 0
vertex 2.5 2.5 0
endloop
endfacet
facet normal 0.5773502692224157 -0.5773502691717589 -0.5773502691747029
outer loop
vertex 0 10 -10
vertex 2.5 2.5 0
vertex 2.49997 2.50007 -0.0001
endloop
endfacet
facet normal 0.3940003816366029 0.7371230817011943 0.5490111671847355
outer loop
vertex 5.5557 8.3147 -10
vertex 3.82683 9.2388 -10
vertex 2.49997 2.50007 -0.0001
endloop
endfacet
facet normal 0.16257250459221667 0.8305832413965681 0.5326365175819098
outer loop
vertex 5.5557 8.3147 -10
vertex 2.49997 2.50007 -0.0001
vertex 2.5 2.5 0
endloop
endfacet
facet normal 0.5335216893046002 0.6500991149469786 0.5410413549690272
outer loop
vertex 7.07107 7.07107 -10
vertex 5.5557 8.3147 -10
vertex 2.5 2.5 0
endloop
endfacet
facet normal -0.1005675699606446 0.8006531013455255 0.5906274419445838
outer loop
vertex 1.9509 9.80785 -10
vertex 2.49997 2.50007 -0.0001
vertex 2.5 2.5 0
endloop
endfacet
facet normal 0.1005675699606446 -0.8006531013455255 -0.5906274419445838
outer loop
vertex 1.9509 9.80785 -10
vertex 2.5 2.5 0
vertex 2.49997 2.50007 -0.0001
endloop
endfacet
facet normal -0.04981371568595627 -0.8251741172740514 -0.5626777673860491
outer loop
vertex 2.5 2.5 0
vertex 2.49997 2.50007 -0.0001
vertex 3.82683 9.2388 -10
endloop
endfacet
facet normal 0.23966413064874226 0.7900766762286181 0.5642162264238081
outer loop
vertex 2.5 2.5 0
vertex 3.82683 9.2388 -10
vertex 1.9509 9.80785 -10
endloop
endfacet
facet normal -0.10056756995060472 0.8006531013475473 0.5906274419435522
outer loop
vertex 2.5 2.5 0
vertex 1.9509 9.80785 -10
vertex 2.49997 2.50007 -0.0001
endloop
endfacet
facet normal 0.07947448338535829 0.8069048640983432 0.5853104704215234
outer loop
vertex 0 10 -10
vertex 2.49997 2.50007 -0.0001
vertex 1.9509 9.80785 -10
endloop
endfacet
facet normal 0 0 -1
outer loop
vertex 9.80785 1.9509 -10
vertex 9.23879 3.82683 -10
vertex 9.2388 3.82683 -10
endloop
endfacet
facet normal 0 0 1
outer loop
vertex 9.80785 1.9509 -10
vertex 9.2388 3.82683 -10
vertex 9.23879 3.82683 -10
endloop
endfacet
facet normal 0.7900759818237046 0.23966813165555095 0.5642154992678301
outer loop
vertex 9.80785 1.9509 -10
vertex 9.23879 3.82683 -10
vertex 2.5 2.5 0
endloop
endfacet
facet normal 0.80690507341443 0.07947450400152867 0.5853101790604401
outer loop
vertex 10 0 -10
vertex 9.80785 1.9509 -10
vertex 2.5 2.5 0
endloop
endfacet
facet normal 0 0 -1
outer loop
vertex 9.2388 3.82683 -10
vertex 9.23879 3.82683 -10
vertex 8.3147 5.5557 -10
endloop
endfacet
facet normal 0.7371236936922609 0.3940007087525477 0.5490101107447549
outer loop
vertex 9.2388 3.82683 -10
vertex 8.3147 5.5557 -10
vertex 2.5 2.5 0
endloop
endfacet
facet normal 0 -0.9913121546234893 -0.1315302706441952
outer loop
vertex 9.2388 3.82683 -10
vertex 2.5 2.5 0
vertex 9.23879 3.82683 -10
endloop
endfacet
facet normal 0.6500991149469789 0.5335216893046005 0.5410413549690262
outer loop
vertex 8.3147 5.5557 -10
vertex 7.07107 7.07107 -10
vertex 2.5 2.5 0
endloop
endfacet
facet normal 0.8 0 0.6
outer loop
vertex 2.5 -2.5 0
vertex 10 0 -10
vertex 2.5 2.5 0
endloop
endfacet
facet normal 0 -0.8 0.6
outer loop
vertex -2.5 -2.5 0
vertex 0 -10 -10
vertex 2.5 -2.5 0
endloop
endfacet
facet normal -0.8 0 0.6
outer loop
vertex -10 0 -10
vertex -2.5 -2.5 0
vertex -2.5 2.5 0
endloop
endfacet
facet normal 0.5773502692525772 0.5773502690788505 -0.5773502692374498
outer loop
vertex -10 0 -10
vertex -2.5 2.5 0
vertex -2.50007 2.49997 -0.0001
endloop
endfacet
facet normal -0.5773502691893284 -0.5773502691883731 0.5773502691911758
outer loop
vertex -10 0 -10
vertex -2.50007 2.49997 -0.0001
vertex -2.50008 2.49998 -0.0001
endloop
endfacet
facet normal -0.39400070875254833 0.7371236936922607 0.5490101107447548
outer loop
vertex -2.5 2.5 0
vertex -3.82683 9.2388 -10
vertex -5.5557 8.3147 -10
endloop
endfacet
facet normal -0.5335216893046 0.6500991149469786 0.5410413549690272
outer loop
vertex -2.5 2.5 0
vertex -5.5557 8.3147 -10
vertex -7.07107 7.07107 -10
endloop
endfacet
facet normal -0.23966413064874226 0.7900766762286181 0.5642162264238081
outer loop
vertex -2.5 2.5 0
vertex -1.9509 9.80785 -10
vertex -3.82683 9.2388 -10
endloop
endfacet
facet normal -0.07947450400152895 0.8069050734144297 0.5853101790604401
outer loop
vertex -2.5 2.5 0
vertex 0 10 -10
vertex -1.9509 9.80785 -10
endloop
endfacet
facet normal -0.6181190761336659 -0.618119076214994 0.485651742855707
outer loop
vertex -9.80785 1.9509 -10
vertex -2.50007 2.49997 -0.0001
vertex -2.50008 2.49998 -0.0001
endloop
endfacet
facet normal 0.6181190761336659 0.618119076214994 -0.485651742855707
outer loop
vertex -9.80785 1.9509 -10
vertex -2.50008 2.49998 -0.0001
vertex -2.50007 2.49997 -0.0001
endloop
endfacet
facet normal -0.8006531013517636 -0.10056756999444802 0.5906274419303713
outer loop
vertex -9.80785 1.9509 -10
vertex -2.50007 2.49997 -0.0001
vertex -2.5 2.5 0
endloop
endfacet
facet normal 0.8006531013517636 0.10056756999444802 -0.5906274419303713
outer loop
vertex -9.80785 1.9509 -10
vertex -2.5 2.5 0
vertex -2.50007 2.49997 -0.0001
endloop
endfacet
facet normal -0.6181190761336659 -0.618119076214994 0.485651742855707
outer loop
vertex -9.80785 1.9509 -10
vertex -2.50007 2.49997 -0.0001
vertex -2.50008 2.49998 -0.0001
endloop
endfacet
facet normal 0.5773502691769584 0.5773502691822664 -0.5773502692096524
outer loop
vertex -2.5 2.5 0
vertex -2.50007 2.49997 -0.0001
vertex -2.50008 2.49998 -0.0001
endloop
endfacet
facet normal 0.7742514364212201 -0.29351842797919403 -0.5606974635543664
outer loop
vertex -2.5 2.5 0
vertex -2.50008 2.49998 -0.0001
vertex -9.2388 3.82683 -10
endloop
endfacet
facet normal -0.7900766762286178 0.23966413064874284 0.5642162264238083
outer loop
vertex -2.5 2.5 0
vertex -9.2388 3.82683 -10
vertex -9.80785 1.9509 -10
endloop
endfacet
facet normal -0.7616027138299808 0.3633216062104374 0.5366178498218972
outer loop
vertex -2.5 2.5 0
vertex -9.80785 1.9509 -10
vertex -2.50008 2.49998 -0.0001
endloop
endfacet
facet normal -0.5773502691769584 -0.5773502691822664 0.5773502692096524
outer loop
vertex -2.5 2.5 0
vertex -2.50008 2.49998 -0.0001
vertex -2.50007 2.49997 -0.0001
endloop
endfacet
facet normal 0.5773502691893284 0.5773502691883731 -0.5773502691911758
outer loop
vertex -10 0 -10
vertex -2.50008 2.49998 -0.0001
vertex -2.50007 2.49997 -0.0001
endloop
endfacet
facet normal -0.5773502691893284 -0.5773502691883731 0.5773502691911758
outer loop
vertex -10 0 -10
vertex -2.50007 2.49997 -0.0001
vertex -2.50008 2.49998 -0.0001
endloop
endfacet
facet normal -0.8069052827305211 0.07947452461769933 0.5853098876991303
outer loop
vertex -10 0 -10
vertex -2.50008 2.49998 -0.0001
vertex -9.80785 1.9509 -10
endloop
endfacet
facet normal -0.7371235394587283 0.3940006263130312 0.5490103769882461
outer loop
vertex -8.3147 5.5557 -10
vertex -9.2388 3.82683 -10
vertex -2.50008 2.49998 -0.0001
endloop
endfacet
facet normal 0.6940233896251872 0.6940233897226664 -0.19147602766671754
outer loop
vertex -8.3147 5.5557 -10
vertex -2.50008 2.49998 -0.0001
vertex -2.50007 2.49997 -0.0001
endloop
endfacet
facet normal -0.8305832413881882 0.16257250457838274 0.5326365175991997
outer loop
vertex -8.3147 5.5557 -10
vertex -2.50007 2.49997 -0.0001
vertex -2.5 2.5 0
endloop
endfacet
facet normal -0.6500991149469789 0.5335216893046005 0.5410413549690262
outer loop
vertex -7.07107 7.07107 -10
vertex -8.3147 5.5557 -10
vertex -2.5 2.5 0
endloop
endfacet
facet normal -0.6500991149469789 -0.5335216893046005 0.5410413549690261
outer loop
vertex -2.5 -2.5 0
vertex -8.3147 -5.5557 -10
vertex -7.07107 -7.07107 -10
endloop
endfacet
facet normal -0.7371236936922607 -0.3940007087525477 0.549010110744755
outer loop
vertex -2.5 -2.5 0
vertex -9.2388 -3.82683 -10
vertex -8.3147 -5.5557 -10
endloop
endfacet
facet normal -0.7900766762286178 -0.23966413064874284 0.5642162264238083
outer loop
vertex -2.5 -2.5 0
vertex -9.80785 -1.9509 -10
vertex -9.2388 -3.82683 -10
endloop
endfacet
facet normal -0.80690507341443 -0.07947450400152867 0.5853101790604401
outer loop
vertex -2.5 -2.5 0
vertex -10 0 -10
vertex -9.80785 -1.9509 -10
endloop
endfacet
facet normal 0.3940007087525482 -0.7371236936922606 0.5490101107447548
outer loop
vertex 3.82683 -9.2388 -10
vertex 5.5557 -8.3147 -10
vertex 2.5 -2.5 0
endloop
endfacet
facet normal 0.5335216893045999 -0.6500991149469786 0.5410413549690274
outer loop
vertex 5.5557 -8.3147 -10
vertex 7.07107 -7.07107 -10
vertex 2.5 -2.5 0
endloop
endfacet
facet normal 0.23966413064874226 -0.7900766762286181 0.5642162264238081
outer loop
vertex 1.9509 -9.80785 -10
vertex 3.82683 -9.2388 -10
vertex 2.5 -2.5 0
endloop
endfacet
facet normal 0.07947450400152865 -0.8069050734144297 0.5853101790604402
outer loop
vertex 0 -10 -10
vertex 1.9509 -9.80785 -10
vertex 2.5 -2.5 0
endloop
endfacet
facet normal 0 -0.9913121546248796 0.1315302706337162
outer loop
vertex 2.5 -2.5 0
vertex 9.23879 -3.82683 -10
vertex 9.2388 -3.82683 -10
endloop
endfacet
facet normal 0 0.9913121546248796 -0.1315302706337162
outer loop
vertex 2.5 -2.5 0
vertex 9.2388 -3.82683 -10
vertex 9.23879 -3.82683 -10
endloop
endfacet
facet normal 0.7900759818237046 -0.23966813165555095 0.5642154992678301
outer loop
vertex 2.5 -2.5 0
vertex 9.23879 -3.82683 -10
vertex 9.80785 -1.9509 -10
endloop
endfacet
facet normal 0.80690507341443 -0.07947450400152867 0.5853101790604401
outer loop
vertex 2.5 -2.5 0
vertex 9.80785 -1.9509 -10
vertex 10 0 -10
endloop
endfacet
facet normal 0.7371254592027839 -0.3939973888115939 0.5490101228618015
outer loop
vertex 2.5 -2.5 0
vertex 8.3147 -5.5557 -10
vertex 9.23879 -3.82683 -10
endloop
endfacet
facet normal 0 -0.9913121546248796 0.1315302706337162
outer loop
vertex 2.5 -2.5 0
vertex 9.23879 -3.82683 -10
vertex 9.2388 -3.82683 -10
endloop
endfacet
facet normal 0 0.9913121546248796 -0.1315302706337162
outer loop
vertex 2.5 -2.5 0
vertex 9.2388 -3.82683 -10
vertex 9.23879 -3.82683 -10
endloop
endfacet
facet normal 0.6500991149469789 -0.5335216893046005 0.5410413549690261
outer loop
vertex 2.5 -2.5 0
vertex 7.07107 -7.07107 -10
vertex 8.3147 -5.5557 -10
endloop
endfacet
facet normal -0.39400070875254833 -0.7371236936922607 0.5490101107447548
outer loop
vertex -2.5 -2.5 0
vertex -5.5557 -8.3147 -10
vertex -3.82683 -9.2388 -10
endloop
endfacet
facet normal -0.5335216893046 -0.6500991149469786 0.5410413549690272
outer loop
vertex -2.5 -2.5 0
vertex -7.07107 -7.07107 -10
vertex -5.5557 -8.3147 -10
endloop
endfacet
facet normal -0.23966413064874226 -0.7900766762286181 0.5642162264238081
outer loop
vertex -2.5 -2.5 0
vertex -3.82683 -9.2388 -10
vertex -1.9509 -9.80785 -10
endloop
endfacet
facet normal 0 0 -1
outer loop
vertex 5.5557 8.3147 -10
vertex 7.07107 7.07107 -10
vertex 8.3147 5.5557 -10
endloop
endfacet
facet normal 0 0 -1
outer loop
vertex 8.3147 5.5557 -10
vertex 9.2388 3.82683 -10
vertex 9.23879 3.82683 -10
endloop
endfacet
facet normal 0 0 1
outer loop
vertex 8.3147 5.5557 -10
vertex 9.23879 3.82683 -10
vertex 9.2388 3.82683 -10
endloop
endfacet
facet normal 9.477271498440389e-15 0 -1
outer loop
vertex 8.3147 5.5557 -10
vertex 9.2388 3.82683 -10
vertex 9.80785 1.9509 -10
endloop
endfacet
facet normal 0 0 -1
outer loop
vertex 9.80785 1.9509 -10
vertex 10 0 -10
vertex 9.80785 -1.9509 -10
endloop
endfacet
facet normal 0 0 -1
outer loop
vertex 9.80785 -1.9509 -10
vertex 9.2388 -3.82683 -10
vertex 9.23879 -3.82683 -10
endloop
endfacet
facet normal 0 0 1
outer loop
vertex 9.80785 -1.9509 -10
vertex 9.23879 -3.82683 -10
vertex 9.2388 -3.82683 -10
endloop
endfacet
facet normal 9.477271498440395e-15 0 -1
outer loop
vertex 9.80785 -1.9509 -10
vertex 9.2388 -3.82683 -10
vertex 8.3147 -5.5557 -10
endloop
endfacet
facet normal 0 0 -1
outer loop
vertex 8.3147 -5.5557 -10
vertex 7.07107 -7.07107 -10
vertex 5.5557 -8.3147 -10
endloop
endfacet
facet normal 0 0 -1
outer loop
vertex 5.5557 -8.3147 -10
vertex 3.82683 -9.2388 -10
vertex 1.9509 -9.80785 -10
endloop
endfacet
facet normal 0 0 -1
outer loop
vertex 1.9509 -9.80785 -10
vertex 0 -10 -10
vertex -1.9509 -9.80785 -10
endloop
endfacet
facet normal 0 0 -1
outer loop
vertex -1.9509 -9.80785 -10
vertex -3.82683 -9.2388 -10
vertex -5.5557 -8.3147 -10
endloop
endfacet
facet normal 0 0 -1
outer loop
vertex -5.5557 -8.3147 -10
vertex -7.07107 -7.07107 -10
vertex -8.3147 -5.5557 -10
endloop
endfacet
facet normal -9.477271498440389e-15 0 -1
outer loop
vertex -8.3147 -5.5557 -10
vertex -9.2388 -3.82683 -10
vertex -9.80785 -1.9509 -10
endloop
endfacet
facet normal 0 0 -1
outer loop
vertex -9.80785 -1.9509 -10
vertex -10 0 -10
vertex -9.80785 1.9509 -10
endloop
endfacet
facet normal -9.477271498440395e-15 0 -1
outer loop
vertex -9.80785 1.9509 -10
vertex -9.2388 3.82683 -10
vertex -8.3147 5.5557 -10
endloop
endfacet
facet normal 0 0 -1
outer loop
vertex -8.3147 5.5557 -10
vertex -7.07107 7.07107 -10
vertex -5.5557 8.3147 -10
endloop
endfacet
facet normal 0 0 -1
outer loop
vertex -5.5557 8.3147 -10
vertex -3.82683 9.2388 -10
vertex -1.9509 9.80785 -10
endloop
endfacet
facet normal 0 0 -1
outer loop
vertex -1.9509 9.80785 -10
vertex 0 10 -10
vertex 1.9509 9.80785 -10
endloop
endfacet
facet normal 0 0 -1
outer loop
vertex 1.9509 9.80785 -10
vertex 3.82683 9.2388 -10
vertex 5.5557 8.3147 -10
endloop
endfacet
facet normal 0 0 -0.9999999999999999
outer loop
vertex 5.5557 8.3147 -10
vertex 8.3147 5.5557 -10
vertex 9.80785 1.9509 -10
endloop
endfacet
facet normal 0 0 -1
outer loop
vertex 9.80785 1.9509 -10
vertex 9.80785 -1.9509 -10
vertex 8.3147 -5.5557 -10
endloop
endfacet
facet normal 0 0 -1
outer loop
vertex 8.3147 -5.5557 -10
vertex 5.5557 -8.3147 -10
vertex 1.9509 -9.80785 -10
endloop
endfacet
facet normal 0 0 -1
outer loop
vertex 1.9509 -9.80785 -10
vertex -1.9509 -9.80785 -10
vertex -5.5557 -8.3147 -10
endloop
endfacet
facet normal 0 0 -0.9999999999999999
outer loop
vertex -5.5557 -8.3147 -10
vertex -8.3147 -5.5557 -10
vertex -9.80785 -1.9509 -10
endloop
endfacet
facet normal 0 0 -1
outer loop
vertex -9.80785 -1.9509 -10
vertex -9.80785 1.9509 -10
vertex -8.3147 5.5557 -10
endloop
endfacet
facet normal 0 0 -1
outer loop
vertex -8.3147 5.5557 -10
vertex -5.5557 8.3147 -10
vertex -1.9509 9.80785 -10
endloop
endfacet
facet normal 0 0 -1
outer loop
vertex -1.9509 9.80785 -10
vertex 1.9509 9.80785 -10
vertex 5.5557 8.3147 -10
endloop
endfacet
facet normal 0 0 -1
outer loop
vertex 5.5557 8.3147 -10
vertex 9.80785 1.9509 -10
vertex 8.3147 -5.5557 -10
endloop
endfacet
facet normal 0 0 -0.9999999999999999
outer loop
vertex 8.3147 -5.5557 -10
vertex 1.9509 -9.80785 -10
vertex -5.5557 -8.3147 -10
endloop
endfacet
facet normal 0 0 -1
outer loop
vertex -5.5557 -8.3147 -10
vertex -9.80785 -1.9509 -10
vertex -8.3147 5.5557 -10
endloop
endfacet
facet normal 0 0 -0.9999999999999999
outer loop
vertex -8.3147 5.5557 -10
vertex -1.9509 9.80785 -10
vertex 5.5557 8.3147 -10
endloop
endfacet
facet normal 0 0 -1
outer loop
vertex 5.5557 8.3147 -10
vertex 8.3147 -5.5557 -10
vertex -5.5557 -8.3147 -10
endloop
endfacet
facet normal 0 0 -1
outer loop
vertex -5.5557 -8.3147 -10
vertex -8.3147 5.5557 -10
vertex 5.5557 8.3147 -10
endloop
endfacet
facet normal -0.07947450400152895 -0.8069050734144297 0.5853101790604401
outer loop
vertex -2.5 -2.5 0
vertex -1.9509 -9.80785 -10
vertex 0 -10 -10
endloop
endfacet
facet normal 8.000087041209919e-7 0.7999999039986891 -0.600000128001193
outer loop
vertex -2.5 2.5 0
vertex 0 10 10
vertex 2.49997 2.50007 0.0001
endloop
endfacet
facet normal 0 0.8192319205201439 -0.5734623443617519
outer loop
vertex -2.5 2.5 0
vertex 2.49997 2.50007 0.0001
vertex 2.5 2.5 0
endloop
endfacet
facet normal -0.8000000960006093 -8.000072963202071e-7 -0.599999871998633
outer loop
vertex -2.5 -2.5 0
vertex -10 0 10
vertex -2.50008 2.49998 0.0001
endloop
endfacet
facet normal 0.0000200003999998158 0.000020000400000183565 -0.999999999599984
outer loop
vertex -2.5 -2.5 0
vertex -2.50008 2.49998 0.0001
vertex -2.50007 2.49997 0.0001
endloop
endfacet
facet normal -0.8192319205189849 0 -0.573462344363408
outer loop
vertex -2.5 -2.5 0
vertex -2.50007 2.49997 0.0001
vertex -2.5 2.5 0
endloop
endfacet
facet normal 0.3940007087525482 0.7371236936922606 -0.5490101107447548
outer loop
vertex 3.82683 9.2388 10
vertex 5.5557 8.3147 10
vertex 2.5 2.5 0
endloop
endfacet
facet normal 0.04981371568037727 0.8251741172728773 -0.5626777673882649
outer loop
vertex 3.82683 9.2388 10
vertex 2.5 2.5 0
vertex 2.49997 2.50007 0.0001
endloop
endfacet
facet normal 0.5335216893045999 0.6500991149469786 -0.5410413549690274
outer loop
vertex 5.5557 8.3147 10
vertex 7.07107 7.07107 10
vertex 2.5 2.5 0
endloop
endfacet
facet normal -0.04981371568037727 -0.8251741172728773 0.5626777673882649
outer loop
vertex 3.82683 9.2388 10
vertex 2.49997 2.50007 0.0001
vertex 2.5 2.5 0
endloop
endfacet
facet normal 0.04981371568037727 0.8251741172728773 -0.5626777673882649
outer loop
vertex 3.82683 9.2388 10
vertex 2.5 2.5 0
vertex 2.49997 2.50007 0.0001
endloop
endfacet
facet normal 0.23966401832947373 0.790076305956962 -0.5642167926281266
outer loop
vertex 2.49997 2.50007 0.0001
vertex 1.9509 9.80785 10
vertex 3.82683 9.2388 10
endloop
endfacet
facet normal 0.07947448338535858 0.8069048640983432 -0.5853104704215234
outer loop
vertex 2.49997 2.50007 0.0001
vertex 0 10 10
vertex 1.9509 9.80785 10
endloop
endfacet
facet normal 0.7900766762286177 0.2396641306487428 -0.5642162264238083
outer loop
vertex 9.2388 3.82683 10
vertex 9.80785 1.9509 10
vertex 2.5 2.5 0
endloop
endfacet
facet normal 0.8069050734144301 0.07947450400152868 -0.58531017906044
outer loop
vertex 9.80785 1.9509 10
vertex 10 0 10
vertex 2.5 2.5 0
endloop
endfacet
facet normal 0.7371236936922607 0.3940007087525477 -0.5490101107447549
outer loop
vertex 8.3147 5.5557 10
vertex 9.2388 3.82683 10
vertex 2.5 2.5 0
endloop
endfacet
facet normal 0.6500991149469789 0.5335216893046005 -0.5410413549690262
outer loop
vertex 7.07107 7.07107 10
vertex 8.3147 5.5557 10
vertex 2.5 2.5 0
endloop
endfacet
facet normal 0 -0.8 -0.6
outer loop
vertex 0 -10 10
vertex -2.5 -2.5 0
vertex 2.5 -2.5 0
endloop
endfacet
facet normal 0.8 0 -0.6
outer loop
vertex 10 0 10
vertex 2.5 -2.5 0
vertex 2.5 2.5 0
endloop
endfacet
facet normal -0.39400070875254833 0.7371236936922607 -0.5490101107447548
outer loop
vertex -2.5 2.5 0
vertex -5.5557 8.3147 10
vertex -3.82683 9.2388 10
endloop
endfacet
facet normal -0.5335216893046 0.6500991149469786 -0.5410413549690272
outer loop
vertex -2.5 2.5 0
vertex -7.07107 7.07107 10
vertex -5.5557 8.3147 10
endloop
endfacet
facet normal -0.23966413064874226 0.7900766762286181 -0.5642162264238081
outer loop
vertex -2.5 2.5 0
vertex -3.82683 9.2388 10
vertex -1.9509 9.80785 10
endloop
endfacet
facet normal -0.07947450400152895 0.8069050734144297 -0.5853101790604401
outer loop
vertex -2.5 2.5 0
vertex -1.9509 9.80785 10
vertex 0 10 10
endloop
endfacet
facet normal -0.6604021266110699 -0.6604021267038269 -0.357404619741602
outer loop
vertex -9.2388 3.82683 10
vertex -2.50008 2.49998 0.0001
vertex -2.50007 2.49997 0.0001
endloop
endfacet
facet normal 0.8251741172730318 -0.04981371568677943 0.5626777673874713
outer loop
vertex -9.2388 3.82683 10
vertex -2.50007 2.49997 0.0001
vertex -2.5 2.5 0
endloop
endfacet
facet normal -0.8251741172730318 0.04981371568677943 -0.5626777673874713
outer loop
vertex -9.2388 3.82683 10
vertex -2.5 2.5 0
vertex -2.50007 2.49997 0.0001
endloop
endfacet
facet normal 0.6604021266110699 0.6604021267038269 0.357404619741602
outer loop
vertex -9.2388 3.82683 10
vertex -2.50007 2.49997 0.0001
vertex -2.50008 2.49998 0.0001
endloop
endfacet
facet normal -0.6604021266110699 -0.6604021267038269 -0.357404619741602
outer loop
vertex -9.2388 3.82683 10
vertex -2.50008 2.49998 0.0001
vertex -2.50007 2.49997 0.0001
endloop
endfacet
facet normal -0.6181190761339347 -0.6181190762162855 -0.485651742853721
outer loop
vertex -2.50008 2.49998 0.0001
vertex -2.50007 2.49997 0.0001
vertex -9.80785 1.9509 10
endloop
endfacet
facet normal -0.7900767649933256 0.2396641575748842 -0.5642160906883128
outer loop
vertex -2.50008 2.49998 0.0001
vertex -9.80785 1.9509 10
vertex -9.2388 3.82683 10
endloop
endfacet
facet normal 0.6604021266112104 0.6604021267050602 0.3574046197390634
outer loop
vertex -2.50008 2.49998 0.0001
vertex -9.2388 3.82683 10
vertex -2.50007 2.49997 0.0001
endloop
endfacet
facet normal 0.5773502691896258 0.5773502691896258 0.5773502691896258
outer loop
vertex -2.50007 2.49997 0.0001
vertex -2.50008 2.49998 0.0001
vertex -10 0 10
endloop
endfacet
facet normal -0.8069048640983429 0.07947448338535945 -0.5853104704215232
outer loop
vertex -2.50007 2.49997 0.0001
vertex -10 0 10
vertex -9.80785 1.9509 10
endloop
endfacet
facet normal -0.6181190761339347 -0.6181190762162855 -0.485651742853721
outer loop
vertex -2.50007 2.49997 0.0001
vertex -9.80785 1.9509 10
vertex -2.50008 2.49998 0.0001
endloop
endfacet
facet normal -0.7371236936922609 0.3940007087525477 -0.5490101107447549
outer loop
vertex -9.2388 3.82683 10
vertex -8.3147 5.5557 10
vertex -2.5 2.5 0
endloop
endfacet
facet normal -0.8251741172730318 0.04981371568677943 -0.5626777673874713
outer loop
vertex -9.2388 3.82683 10
vertex -2.5 2.5 0
vertex -2.50007 2.49997 0.0001
endloop
endfacet
facet normal 0.6604021266110699 0.6604021267038269 0.357404619741602
outer loop
vertex -9.2388 3.82683 10
vertex -2.50007 2.49997 0.0001
vertex -2.50008 2.49998 0.0001
endloop
endfacet
facet normal -0.6500991149469789 0.5335216893046005 -0.5410413549690262
outer loop
vertex -8.3147 5.5557 10
vertex -7.07107 7.07107 10
vertex -2.5 2.5 0
endloop
endfacet
facet normal -0.7371236936922607 -0.3940007087525477 -0.549010110744755
outer loop
vertex -2.5 -2.5 0
vertex -8.3147 -5.5557 10
vertex -9.2388 -3.82683 10
endloop
endfacet
facet normal -0.6500991149469789 -0.5335216893046005 -0.5410413549690261
outer loop
vertex -2.5 -2.5 0
vertex -7.07107 -7.07107 10
vertex -8.3147 -5.5557 10
endloop
endfacet
facet normal -0.7900766762286178 -0.23966413064874284 -0.5642162264238083
outer loop
vertex -2.5 -2.5 0
vertex -9.2388 -3.82683 10
vertex -9.80785 -1.9509 10
endloop
endfacet
facet normal -0.80690507341443 -0.07947450400152867 -0.5853101790604401
outer loop
vertex -2.5 -2.5 0
vertex -9.80785 -1.9509 10
vertex -10 0 10
endloop
endfacet
facet normal -0.23966413064874226 -0.7900766762286181 -0.5642162264238081
outer loop
vertex -2.5 -2.5 0
vertex -1.9509 -9.80785 10
vertex -3.82683 -9.2388 10
endloop
endfacet
facet normal -0.07947450400152895 -0.8069050734144297 -0.5853101790604401
outer loop
vertex -2.5 -2.5 0
vertex 0 -10 10
vertex -1.9509 -9.80785 10
endloop
endfacet
facet normal -0.39400070875254833 -0.7371236936922607 -0.5490101107447548
outer loop
vertex -2.5 -2.5 0
vertex -3.82683 -9.2388 10
vertex -5.5557 -8.3147 10
endloop
endfacet
facet normal -0.5335216893046 -0.6500991149469786 -0.5410413549690272
outer loop
vertex -2.5 -2.5 0
vertex -5.5557 -8.3147 10
vertex -7.07107 -7.07107 10
endloop
endfacet
facet normal 0.7371236936922607 -0.3940007087525477 -0.549010110744755
outer loop
vertex 2.5 -2.5 0
vertex 9.2388 -3.82683 10
vertex 8.3147 -5.5557 10
endloop
endfacet
facet normal 0.6500991149469789 -0.5335216893046005 -0.5410413549690261
outer loop
vertex 2.5 -2.5 0
vertex 8.3147 -5.5557 10
vertex 7.07107 -7.07107 10
endloop
endfacet
facet normal 0.7900766762286178 -0.23966413064874284 -0.5642162264238083
outer loop
vertex 2.5 -2.5 0
vertex 9.80785 -1.9509 10
vertex 9.2388 -3.82683 10
endloop
endfacet
facet normal 0.80690507341443 -0.07947450400152867 -0.5853101790604401
outer loop
vertex 2.5 -2.5 0
vertex 10 0 10
vertex 9.80785 -1.9509 10
endloop
endfacet
facet normal 0.23966413064874229 -0.7900766762286182 -0.5642162264238081
outer loop
vertex 3.82683 -9.2388 10
vertex 1.9509 -9.80785 10
vertex 2.5 -2.5 0
endloop
endfacet
facet normal 0.07947450400152924 -0.8069050734144297 -0.5853101790604401
outer loop
vertex 1.9509 -9.80785 10
vertex 0 -10 10
vertex 2.5 -2.5 0
endloop
endfacet
facet normal 0 0 1
outer loop
vertex 5.5557 -8.3147 10
vertex 7.07107 -7.07107 10
vertex 8.3147 -5.5557 10
endloop
endfacet
facet normal 9.477271498440389e-15 0 1
outer loop
vertex 8.3147 -5.5557 10
vertex 9.2388 -3.82683 10
vertex 9.80785 -1.9509 10
endloop
endfacet
facet normal 0 0 1
outer loop
vertex 9.80785 -1.9509 10
vertex 10 0 10
vertex 9.80785 1.9509 10
endloop
endfacet
facet normal 9.477271498440395e-15 0 1
outer loop
vertex 9.80785 1.9509 10
vertex 9.2388 3.82683 10
vertex 8.3147 5.5557 10
endloop
endfacet
facet normal 0 0 1
outer loop
vertex 8.3147 5.5557 10
vertex 7.07107 7.07107 10
vertex 5.5557 8.3147 10
endloop
endfacet
facet normal 0 0 1
outer loop
vertex 5.5557 8.3147 10
vertex 3.82683 9.2388 10
vertex 1.9509 9.80785 10
endloop
endfacet
facet normal 0 0 1
outer loop
vertex 1.9509 9.80785 10
vertex 0 10 10
vertex -1.9509 9.80785 10
endloop
endfacet
facet normal 0 0 1
outer loop
vertex -1.9509 9.80785 10
vertex -3.82683 9.2388 10
vertex -5.5557 8.3147 10
endloop
endfacet
facet normal 0 0 1
outer loop
vertex -5.5557 8.3147 10
vertex -7.07107 7.07107 10
vertex -8.3147 5.5557 10
endloop
endfacet
facet normal -9.477271498440389e-15 0 1
outer loop
vertex -8.3147 5.5557 10
vertex -9.2388 3.82683 10
vertex -9.80785 1.9509 10
endloop
endfacet
facet normal 0 0 1
outer loop
vertex -9.80785 1.9509 10
vertex -10 0 10
vertex -9.80785 -1.9509 10
endloop
endfacet
facet normal -9.477271498440395e-15 0 1
outer loop
vertex -9.80785 -1.9509 10
vertex -9.2388 -3.82683 10
vertex -8.3147 -5.5557 10
endloop
endfacet
facet normal 0 0 1
outer loop
vertex -8.3147 -5.5557 10
vertex -7.07107 -7.07107 10
vertex -5.5557 -8.3147 10
endloop
endfacet
facet normal 0 0 1
outer loop
vertex -5.5557 -8.3147 10
vertex -3.82683 -9.2388 10
vertex -1.9509 -9.80785 10
endloop
endfacet
facet normal 0 0 1
outer loop
vertex -1.9509 -9.80785 10
vertex 0 -10 10
vertex 1.9509 -9.80785 10
endloop
endfacet
facet normal 0 0 1
outer loop
vertex 1.9509 -9.80785 10
vertex 3.82683 -9.2388 10
vertex 5.5557 -8.3147 10
endloop
endfacet
facet normal 0 0 0.9999999999999999
outer loop
vertex 5.5557 -8.3147 10
vertex 8.3147 -5.5557 10
vertex 9.80785 -1.9509 10
endloop
endfacet
facet normal 0 0 1
outer loop
vertex 9.80785 -1.9509 10
vertex 9.80785 1.9509 10
vertex 8.3147 5.5557 10
endloop
endfacet
facet normal 0 0 1
outer loop
vertex 8.3147 5.5557 10
vertex 5.5557 8.3147 10
vertex 1.9509 9.80785 10
endloop
endfacet
facet normal 0 0 1
outer loop
vertex 1.9509 9.80785 10
vertex -1.9509 9.80785 10
vertex -5.5557 8.3147 10
endloop
endfacet
facet normal 0 0 0.9999999999999999
outer loop
vertex -5.5557 8.3147 10
vertex -8.3147 5.5557 10
vertex -9.80785 1.9509 10
endloop
endfacet
facet normal 0 0 1
outer loop
vertex -9.80785 1.9509 10
vertex -9.80785 -1.9509 10
vertex -8.3147 -5.5557 10
endloop
endfacet
facet normal 0 0 1
outer loop
vertex -8.3147 -5.5557 10
vertex -5.5557 -8.3147 10
vertex -1.9509 -9.80785 10
endloop
endfacet
facet normal 0 0 1
outer loop
vertex -1.9509 -9.80785 10
vertex 1.9509 -9.80785 10
vertex 5.5557 -8.3147 10
endloop
endfacet
facet normal 0 0 1
outer loop
vertex 5.5557 -8.3147 10
vertex 9.80785 -1.9509 10
vertex 8.3147 5.5557 10
endloop
endfacet
facet normal 0 0 0.9999999999999999
outer loop
vertex 8.3147 5.5557 10
vertex 1.9509 9.80785 10
vertex -5.5557 8.3147 10
endloop
endfacet
facet normal 0 0 1
outer loop
vertex -5.5557 8.3147 10
vertex -9.80785 1.9509 10
vertex -8.3147 -5.5557 10
endloop
endfacet
facet normal 0 0 0.9999999999999999
outer loop
vertex -8.3147 -5.5557 10
vertex -1.9509 -9.80785 10
vertex 5.5557 -8.3147 10
endloop
endfacet
facet normal 0 0 1
outer loop
vertex 5.5557 -8.3147 10
vertex 8.3147 5.5557 10
vertex -5.5557 8.3147 10
endloop
endfacet
facet normal 0 0 1
outer loop
vertex -5.5557 8.3147 10
vertex -8.3147 -5.5557 10
vertex 5.5557 -8.3147 10
endloop
endfacet
facet normal 0.39400070875254833 -0.7371236936922607 -0.5490101107447548
outer loop
vertex 5.5557 -8.3147 10
vertex 3.82683 -9.2388 10
vertex 2.5 -2.5 0
endloop
endfacet
facet normal 0.5335216893046002 -0.6500991149469786 -0.5410413549690272
outer loop
vertex 7.07107 -7.07107 10
vertex 5.5557 -8.3147 10
vertex 2.5 -2.5 0
endloop
endfacet
endsolid JSxCAD
