solid JSxCAD
facet normal 0 0 -1
  outer loop
    vertex -5.9 -7 0
    vertex -5.9 7 0
    vertex -4.9 3.447 0
  endloop
endfacet
facet normal 0 0 -1
  outer loop
    vertex -5.9 -7 0
    vertex 0.343 -5.99 0
    vertex 5.9 -7 0
  endloop
endfacet
facet normal 0 0 -1
  outer loop
    vertex -5.9 -7 0
    vertex -0.343 -5.99 0
    vertex 0.343 -5.99 0
  endloop
endfacet
facet normal 0 0 -1
  outer loop
    vertex -5.9 -7 0
    vertex -1.0230000000000001 -5.912 0
    vertex -0.343 -5.99 0
  endloop
endfacet
facet normal 0 0 -1
  outer loop
    vertex -5.9 -7 0
    vertex -1.69 -5.757000000000001 0
    vertex -1.0230000000000001 -5.912 0
  endloop
endfacet
facet normal 0 0 -1
  outer loop
    vertex -5.9 -7 0
    vertex -2.336 -5.527 0
    vertex -1.69 -5.757000000000001 0
  endloop
endfacet
facet normal 0 0 -1
  outer loop
    vertex -5.9 -7 0
    vertex -2.95 -5.224 0
    vertex -2.336 -5.527 0
  endloop
endfacet
facet normal 0 0 -1
  outer loop
    vertex -5.9 -7 0
    vertex -3.527 -4.854 0
    vertex -2.95 -5.224 0
  endloop
endfacet
facet normal 0 0 -1
  outer loop
    vertex -5.9 -7 0
    vertex -4.057 -4.42 0
    vertex -3.527 -4.854 0
  endloop
endfacet
facet normal 0 0 -1
  outer loop
    vertex -5.9 -7 0
    vertex -4.534 -3.9290000000000003 0
    vertex -4.057 -4.42 0
  endloop
endfacet
facet normal 0 0 -1
  outer loop
    vertex -5.9 -7 0
    vertex -4.9 -3.455 0
    vertex -4.534 -3.9290000000000003 0
  endloop
endfacet
facet normal 0 0 -1
  outer loop
    vertex -5.9 -7 0
    vertex -4.9 3.447 0
    vertex -4.9 -3.455 0
  endloop
endfacet
facet normal -1 0 0
  outer loop
    vertex -5.9 -7 0
    vertex -5.9 -7 5
    vertex -5.9 7 5
  endloop
endfacet
facet normal 0 -1 0
  outer loop
    vertex -5.9 -7 0
    vertex 5.9 -7 0
    vertex -5.9 -7 5
  endloop
endfacet
facet normal 0 0 1
  outer loop
    vertex -5.9 -7 5
    vertex -4.9 3.447 5
    vertex -5.9 7 5
  endloop
endfacet
facet normal 0 0 1
  outer loop
    vertex -5.9 -7 5
    vertex 5.9 -7 5
    vertex 0.343 -5.99 5
  endloop
endfacet
facet normal 0 0 1
  outer loop
    vertex -5.9 -7 5
    vertex 0.343 -5.99 5
    vertex -0.343 -5.99 5
  endloop
endfacet
facet normal 0 0 1
  outer loop
    vertex -5.9 -7 5
    vertex -0.343 -5.99 5
    vertex -1.0230000000000001 -5.912 5
  endloop
endfacet
facet normal 0 0 1
  outer loop
    vertex -5.9 -7 5
    vertex -1.0230000000000001 -5.912 5
    vertex -1.69 -5.757000000000001 5
  endloop
endfacet
facet normal 0 0 1
  outer loop
    vertex -5.9 -7 5
    vertex -1.69 -5.757000000000001 5
    vertex -2.336 -5.527 5
  endloop
endfacet
facet normal 0 0 1
  outer loop
    vertex -5.9 -7 5
    vertex -2.336 -5.527 5
    vertex -2.95 -5.224 5
  endloop
endfacet
facet normal 8.393881444177018e-16 0 1
  outer loop
    vertex -5.9 -7 5
    vertex -2.95 -5.224 5
    vertex -3.527 -4.854 5
  endloop
endfacet
facet normal -8.196317932027833e-16 0 1
  outer loop
    vertex -5.9 -7 5
    vertex -3.527 -4.854 5
    vertex -4.057 -4.42 5
  endloop
endfacet
facet normal 0 0 1
  outer loop
    vertex -5.9 -7 5
    vertex -4.057 -4.42 5
    vertex -4.534 -3.9290000000000003 5
  endloop
endfacet
facet normal 2.0055172702899273e-15 0 1
  outer loop
    vertex -5.9 -7 5
    vertex -4.534 -3.9290000000000003 5
    vertex -4.9 -3.455 5
  endloop
endfacet
facet normal 0 0 1
  outer loop
    vertex -5.9 -7 5
    vertex -4.9 -3.455 5
    vertex -4.9 3.447 5
  endloop
endfacet
facet normal 0 0 -1
  outer loop
    vertex -5.9 7 0
    vertex 0 6 0
    vertex -0.684 5.961 0
  endloop
endfacet
facet normal 0 0 -0.9999999999999999
  outer loop
    vertex -5.9 7 0
    vertex -4.751 3.664 0
    vertex -4.9 3.447 0
  endloop
endfacet
facet normal 0 0 -1
  outer loop
    vertex -5.9 7 0
    vertex -4.303 4.182 0
    vertex -4.751 3.664 0
  endloop
endfacet
facet normal 0 0 -1
  outer loop
    vertex -5.9 7 0
    vertex -3.798 4.6450000000000005 0
    vertex -4.303 4.182 0
  endloop
endfacet
facet normal 0 0 -1
  outer loop
    vertex -5.9 7 0
    vertex -3.244 5.048 0
    vertex -3.798 4.6450000000000005 0
  endloop
endfacet
facet normal 0 0 -1
  outer loop
    vertex -5.9 7 0
    vertex -2.6470000000000002 5.384 0
    vertex -3.244 5.048 0
  endloop
endfacet
facet normal 0 0 -1
  outer loop
    vertex -5.9 7 0
    vertex -2.016 5.651 0
    vertex -2.6470000000000002 5.384 0
  endloop
endfacet
facet normal 0 0 -1
  outer loop
    vertex -5.9 7 0
    vertex -1.359 5.844 0
    vertex -2.016 5.651 0
  endloop
endfacet
facet normal 0 0 -1
  outer loop
    vertex -5.9 7 0
    vertex -0.684 5.961 0
    vertex -1.359 5.844 0
  endloop
endfacet
facet normal 0 0 -0.9999999999999999
  outer loop
    vertex -5.9 7 0
    vertex 5.9 7 0
    vertex 0 6 0
  endloop
endfacet
facet normal -1 0 0
  outer loop
    vertex -5.9 7 0
    vertex -5.9 -7 0
    vertex -5.9 7 5
  endloop
endfacet
facet normal 0 1 0
  outer loop
    vertex -5.9 7 0
    vertex -5.9 7 5
    vertex 5.9 7 5
  endloop
endfacet
facet normal 0 0 1
  outer loop
    vertex -5.9 7 5
    vertex -0.684 5.961 5
    vertex 0 6 5
  endloop
endfacet
facet normal 1.1899544340346014e-15 0 0.9999999999999999
  outer loop
    vertex -5.9 7 5
    vertex -4.9 3.447 5
    vertex -4.751 3.664 5
  endloop
endfacet
facet normal 4.2502472577540663e-16 0 1
  outer loop
    vertex -5.9 7 5
    vertex -4.751 3.664 5
    vertex -4.303 4.182 5
  endloop
endfacet
facet normal -8.214363088850602e-16 0 1
  outer loop
    vertex -5.9 7 5
    vertex -4.303 4.182 5
    vertex -3.798 4.6450000000000005 5
  endloop
endfacet
facet normal 8.25530556805285e-16 0 1
  outer loop
    vertex -5.9 7 5
    vertex -3.798 4.6450000000000005 5
    vertex -3.244 5.048 5
  endloop
endfacet
facet normal 0 0 1
  outer loop
    vertex -5.9 7 5
    vertex -3.244 5.048 5
    vertex -2.6470000000000002 5.384 5
  endloop
endfacet
facet normal 0 0 1
  outer loop
    vertex -5.9 7 5
    vertex -2.6470000000000002 5.384 5
    vertex -2.016 5.651 5
  endloop
endfacet
facet normal 0 0 1
  outer loop
    vertex -5.9 7 5
    vertex -2.016 5.651 5
    vertex -1.359 5.844 5
  endloop
endfacet
facet normal 0 0 1
  outer loop
    vertex -5.9 7 5
    vertex -1.359 5.844 5
    vertex -0.684 5.961 5
  endloop
endfacet
facet normal 0 0 0.9999999999999999
  outer loop
    vertex -5.9 7 5
    vertex 0 6 5
    vertex 5.9 7 5
  endloop
endfacet
facet normal 0.7915052914417222 0.6111623136448733 0
  outer loop
    vertex -4.9 -3.455 0
    vertex -4.9 -3.455 5
    vertex -4.534 -3.9290000000000003 5
  endloop
endfacet
facet normal 1 0 0
  outer loop
    vertex -4.9 -3.455 0
    vertex -4.9 3.447 0
    vertex -4.9 -3.455 5
  endloop
endfacet
facet normal 0.8243743172036944 -0.5660450380799593 0
  outer loop
    vertex -4.9 3.447 0
    vertex -4.751 3.664 0
    vertex -4.9 3.447 5
  endloop
endfacet
facet normal 1 0 0
  outer loop
    vertex -4.9 3.447 0
    vertex -4.9 3.447 5
    vertex -4.9 -3.455 5
  endloop
endfacet
facet normal 0.8243743172036996 -0.566045038079952 0
  outer loop
    vertex -4.751 3.664 0
    vertex -4.751 3.664 5
    vertex -4.9 3.447 5
  endloop
endfacet
facet normal 0.756363172452144 -0.6541519329315844 0
  outer loop
    vertex -4.751 3.664 0
    vertex -4.303 4.182 0
    vertex -4.751 3.664 5
  endloop
endfacet
facet normal 0.7172585205646227 0.6968071574527982 0
  outer loop
    vertex -4.534 -3.9290000000000003 0
    vertex -4.534 -3.9290000000000003 5
    vertex -4.057 -4.42 5
  endloop
endfacet
facet normal 0.7915052914417211 0.6111623136448747 0
  outer loop
    vertex -4.534 -3.9290000000000003 0
    vertex -4.9 -3.455 0
    vertex -4.534 -3.9290000000000003 5
  endloop
endfacet
facet normal 0.756363172452144 -0.6541519329315844 0
  outer loop
    vertex -4.303 4.182 0
    vertex -4.303 4.182 5
    vertex -4.751 3.664 5
  endloop
endfacet
facet normal 0.6757907204965292 -0.7370935504335809 0
  outer loop
    vertex -4.303 4.182 0
    vertex -3.798 4.6450000000000005 0
    vertex -4.303 4.182 5
  endloop
endfacet
facet normal 0.6335557143132129 0.7736970704746623 0
  outer loop
    vertex -4.057 -4.42 0
    vertex -4.057 -4.42 5
    vertex -3.527 -4.854 5
  endloop
endfacet
facet normal 0.7172585205646216 0.6968071574527992 0
  outer loop
    vertex -4.057 -4.42 0
    vertex -4.534 -3.9290000000000003 0
    vertex -4.057 -4.42 5
  endloop
endfacet
facet normal 0.6757907204965312 -0.737093550433579 0
  outer loop
    vertex -3.798 4.6450000000000005 0
    vertex -3.798 4.6450000000000005 5
    vertex -4.303 4.182 5
  endloop
endfacet
facet normal 0.5882584871704949 -0.8086729575495157 0
  outer loop
    vertex -3.798 4.6450000000000005 0
    vertex -3.244 5.048 0
    vertex -3.798 4.6450000000000005 5
  endloop
endfacet
facet normal 0.5397986748941398 0.841794149767347 0
  outer loop
    vertex -3.527 -4.854 0
    vertex -3.527 -4.854 5
    vertex -2.95 -5.224 5
  endloop
endfacet
facet normal 0.6335557143132139 0.7736970704746614 0
  outer loop
    vertex -3.527 -4.854 0
    vertex -4.057 -4.42 0
    vertex -3.527 -4.854 5
  endloop
endfacet
facet normal 0.5882584871704959 -0.8086729575495151 0
  outer loop
    vertex -3.244 5.048 0
    vertex -3.244 5.048 5
    vertex -3.798 4.6450000000000005 5
  endloop
endfacet
facet normal 0.49046913968897843 -0.8714585606973824 0
  outer loop
    vertex -3.244 5.048 0
    vertex -2.6470000000000002 5.384 0
    vertex -3.244 5.048 5
  endloop
endfacet
facet normal 0.44253386523892035 0.8967517929263933 0
  outer loop
    vertex -2.95 -5.224 0
    vertex -2.95 -5.224 5
    vertex -2.336 -5.527 5
  endloop
endfacet
facet normal 0.5397986748941389 0.8417941497673476 0
  outer loop
    vertex -2.95 -5.224 0
    vertex -3.527 -4.854 0
    vertex -2.95 -5.224 5
  endloop
endfacet
facet normal 0.4904691396889797 -0.8714585606973816 0
  outer loop
    vertex -2.6470000000000002 5.384 0
    vertex -2.6470000000000002 5.384 5
    vertex -3.244 5.048 5
  endloop
endfacet
facet normal 0.3896876027468444 -0.9209471061170763 0
  outer loop
    vertex -2.6470000000000002 5.384 0
    vertex -2.016 5.651 0
    vertex -2.6470000000000002 5.384 5
  endloop
endfacet
facet normal 0.33541241580708414 0.9420713939625043 0
  outer loop
    vertex -2.336 -5.527 0
    vertex -2.336 -5.527 5
    vertex -1.69 -5.757000000000001 5
  endloop
endfacet
facet normal 0.44253386523892035 0.8967517929263933 0
  outer loop
    vertex -2.336 -5.527 0
    vertex -2.95 -5.224 0
    vertex -2.336 -5.527 5
  endloop
endfacet
facet normal 0.3896876027468444 -0.9209471061170763 0
  outer loop
    vertex -2.016 5.651 0
    vertex -2.016 5.651 5
    vertex -2.6470000000000002 5.384 5
  endloop
endfacet
facet normal 0.2818500517127253 -0.9594584661930573 0
  outer loop
    vertex -2.016 5.651 0
    vertex -1.359 5.844 0
    vertex -2.016 5.651 5
  endloop
endfacet
facet normal 0.22635239731887205 0.9740454774947623 0
  outer loop
    vertex -1.69 -5.757000000000001 0
    vertex -1.69 -5.757000000000001 5
    vertex -1.0230000000000001 -5.912 5
  endloop
endfacet
facet normal 0.33541241580708414 0.9420713939625043 0
  outer loop
    vertex -1.69 -5.757000000000001 0
    vertex -2.336 -5.527 0
    vertex -1.69 -5.757000000000001 5
  endloop
endfacet
facet normal 0.2818500517127253 -0.9594584661930573 0
  outer loop
    vertex -1.359 5.844 0
    vertex -1.359 5.844 5
    vertex -2.016 5.651 5
  endloop
endfacet
facet normal 0.17078672353593777 -0.9853080203996409 0
  outer loop
    vertex -1.359 5.844 0
    vertex -0.684 5.961 0
    vertex -1.359 5.844 5
  endloop
endfacet
facet normal 0.11395863041154294 0.993485495895499 0
  outer loop
    vertex -1.0230000000000001 -5.912 0
    vertex -1.0230000000000001 -5.912 5
    vertex -0.343 -5.99 5
  endloop
endfacet
facet normal 0.22635239731887183 0.9740454774947624 0
  outer loop
    vertex -1.0230000000000001 -5.912 0
    vertex -1.69 -5.757000000000001 0
    vertex -1.0230000000000001 -5.912 5
  endloop
endfacet
facet normal 0.056925087204815844 -0.9983784525152395 0
  outer loop
    vertex -0.684 5.961 0
    vertex 0 6 0
    vertex -0.684 5.961 5
  endloop
endfacet
facet normal 0.1707867235359378 -0.9853080203996409 0
  outer loop
    vertex -0.684 5.961 0
    vertex -0.684 5.961 5
    vertex -1.359 5.844 5
  endloop
endfacet
facet normal 0 0.9999999999999999 0
  outer loop
    vertex -0.343 -5.99 0
    vertex -0.343 -5.99 5
    vertex 0.343 -5.99 5
  endloop
endfacet
facet normal 0.11395863041154296 0.993485495895499 0
  outer loop
    vertex -0.343 -5.99 0
    vertex -1.0230000000000001 -5.912 0
    vertex -0.343 -5.99 5
  endloop
endfacet
facet normal 0 0 -0.9999999999999999
  outer loop
    vertex 0 6 0
    vertex 5.9 7 0
    vertex 0.684 5.961 0
  endloop
endfacet
facet normal 0.056925087204815844 -0.9983784525152395 0
  outer loop
    vertex 0 6 0
    vertex 0 6 5
    vertex -0.684 5.961 5
  endloop
endfacet
facet normal -0.056925087204815844 -0.9983784525152395 0
  outer loop
    vertex 0 6 0
    vertex 0.684 5.961 0
    vertex 0 6 5
  endloop
endfacet
facet normal 0 0 0.9999999999999999
  outer loop
    vertex 0 6 5
    vertex 0.684 5.961 5
    vertex 5.9 7 5
  endloop
endfacet
facet normal 0 0 -1
  outer loop
    vertex 0.343 -5.99 0
    vertex 1.0230000000000001 -5.912 0
    vertex 5.9 -7 0
  endloop
endfacet
facet normal -0.11395863041154296 0.993485495895499 0
  outer loop
    vertex 0.343 -5.99 0
    vertex 0.343 -5.99 5
    vertex 1.0230000000000001 -5.912 5
  endloop
endfacet
facet normal 0 0.9999999999999999 0
  outer loop
    vertex 0.343 -5.99 0
    vertex -0.343 -5.99 0
    vertex 0.343 -5.99 5
  endloop
endfacet
facet normal 0 0 1
  outer loop
    vertex 0.343 -5.99 5
    vertex 5.9 -7 5
    vertex 1.0230000000000001 -5.912 5
  endloop
endfacet
facet normal 0 0 -1
  outer loop
    vertex 0.684 5.961 0
    vertex 5.9 7 0
    vertex 1.359 5.844 0
  endloop
endfacet
facet normal -0.056925087204815844 -0.9983784525152395 0
  outer loop
    vertex 0.684 5.961 0
    vertex 0.684 5.961 5
    vertex 0 6 5
  endloop
endfacet
facet normal -0.1707867235359378 -0.9853080203996409 0
  outer loop
    vertex 0.684 5.961 0
    vertex 1.359 5.844 0
    vertex 0.684 5.961 5
  endloop
endfacet
facet normal 0 0 1
  outer loop
    vertex 0.684 5.961 5
    vertex 1.359 5.844 5
    vertex 5.9 7 5
  endloop
endfacet
facet normal 0 0 -1
  outer loop
    vertex 1.0230000000000001 -5.912 0
    vertex 1.69 -5.757000000000001 0
    vertex 5.9 -7 0
  endloop
endfacet
facet normal -0.11395863041154294 0.993485495895499 0
  outer loop
    vertex 1.0230000000000001 -5.912 0
    vertex 0.343 -5.99 0
    vertex 1.0230000000000001 -5.912 5
  endloop
endfacet
facet normal -0.22635239731887183 0.9740454774947624 0
  outer loop
    vertex 1.0230000000000001 -5.912 0
    vertex 1.0230000000000001 -5.912 5
    vertex 1.69 -5.757000000000001 5
  endloop
endfacet
facet normal 0 0 1
  outer loop
    vertex 1.0230000000000001 -5.912 5
    vertex 5.9 -7 5
    vertex 1.69 -5.757000000000001 5
  endloop
endfacet
facet normal 0 0 -1
  outer loop
    vertex 1.359 5.844 0
    vertex 5.9 7 0
    vertex 2.016 5.651 0
  endloop
endfacet
facet normal -0.17078672353593777 -0.9853080203996409 0
  outer loop
    vertex 1.359 5.844 0
    vertex 1.359 5.844 5
    vertex 0.684 5.961 5
  endloop
endfacet
facet normal -0.2818500517127253 -0.9594584661930573 0
  outer loop
    vertex 1.359 5.844 0
    vertex 2.016 5.651 0
    vertex 1.359 5.844 5
  endloop
endfacet
facet normal 0 0 1
  outer loop
    vertex 1.359 5.844 5
    vertex 2.016 5.651 5
    vertex 5.9 7 5
  endloop
endfacet
facet normal 0 0 -1
  outer loop
    vertex 1.69 -5.757000000000001 0
    vertex 2.336 -5.527 0
    vertex 5.9 -7 0
  endloop
endfacet
facet normal -0.33541241580708414 0.9420713939625043 0
  outer loop
    vertex 1.69 -5.757000000000001 0
    vertex 1.69 -5.757000000000001 5
    vertex 2.336 -5.527 5
  endloop
endfacet
facet normal -0.22635239731887205 0.9740454774947623 0
  outer loop
    vertex 1.69 -5.757000000000001 0
    vertex 1.0230000000000001 -5.912 0
    vertex 1.69 -5.757000000000001 5
  endloop
endfacet
facet normal 0 0 1
  outer loop
    vertex 1.69 -5.757000000000001 5
    vertex 5.9 -7 5
    vertex 2.336 -5.527 5
  endloop
endfacet
facet normal 0 0 -1
  outer loop
    vertex 2.016 5.651 0
    vertex 5.9 7 0
    vertex 2.6470000000000002 5.384 0
  endloop
endfacet
facet normal -0.2818500517127253 -0.9594584661930573 0
  outer loop
    vertex 2.016 5.651 0
    vertex 2.016 5.651 5
    vertex 1.359 5.844 5
  endloop
endfacet
facet normal -0.3896876027468444 -0.9209471061170763 0
  outer loop
    vertex 2.016 5.651 0
    vertex 2.6470000000000002 5.384 0
    vertex 2.016 5.651 5
  endloop
endfacet
facet normal 0 0 1
  outer loop
    vertex 2.016 5.651 5
    vertex 2.6470000000000002 5.384 5
    vertex 5.9 7 5
  endloop
endfacet
facet normal 0 0 -1
  outer loop
    vertex 2.336 -5.527 0
    vertex 2.95 -5.224 0
    vertex 5.9 -7 0
  endloop
endfacet
facet normal -0.44253386523892035 0.8967517929263933 0
  outer loop
    vertex 2.336 -5.527 0
    vertex 2.336 -5.527 5
    vertex 2.95 -5.224 5
  endloop
endfacet
facet normal -0.33541241580708414 0.9420713939625043 0
  outer loop
    vertex 2.336 -5.527 0
    vertex 1.69 -5.757000000000001 0
    vertex 2.336 -5.527 5
  endloop
endfacet
facet normal 0 0 1
  outer loop
    vertex 2.336 -5.527 5
    vertex 5.9 -7 5
    vertex 2.95 -5.224 5
  endloop
endfacet
facet normal 0 0 -1
  outer loop
    vertex 2.6470000000000002 5.384 0
    vertex 5.9 7 0
    vertex 3.244 5.048 0
  endloop
endfacet
facet normal -0.3896876027468444 -0.9209471061170763 0
  outer loop
    vertex 2.6470000000000002 5.384 0
    vertex 2.6470000000000002 5.384 5
    vertex 2.016 5.651 5
  endloop
endfacet
facet normal -0.4904691396889797 -0.8714585606973816 0
  outer loop
    vertex 2.6470000000000002 5.384 0
    vertex 3.244 5.048 0
    vertex 2.6470000000000002 5.384 5
  endloop
endfacet
facet normal 0 0 1
  outer loop
    vertex 2.6470000000000002 5.384 5
    vertex 3.244 5.048 5
    vertex 5.9 7 5
  endloop
endfacet
facet normal 0 0 -1
  outer loop
    vertex 2.95 -5.224 0
    vertex 3.527 -4.854 0
    vertex 5.9 -7 0
  endloop
endfacet
facet normal -0.5397986748941389 0.8417941497673476 0
  outer loop
    vertex 2.95 -5.224 0
    vertex 2.95 -5.224 5
    vertex 3.527 -4.854 5
  endloop
endfacet
facet normal -0.44253386523892035 0.8967517929263933 0
  outer loop
    vertex 2.95 -5.224 0
    vertex 2.336 -5.527 0
    vertex 2.95 -5.224 5
  endloop
endfacet
facet normal 0 0 1
  outer loop
    vertex 2.95 -5.224 5
    vertex 5.9 -7 5
    vertex 3.527 -4.854 5
  endloop
endfacet
facet normal 0 0 -1
  outer loop
    vertex 3.244 5.048 0
    vertex 5.9 7 0
    vertex 3.798 4.6450000000000005 0
  endloop
endfacet
facet normal -0.49046913968897843 -0.8714585606973824 0
  outer loop
    vertex 3.244 5.048 0
    vertex 3.244 5.048 5
    vertex 2.6470000000000002 5.384 5
  endloop
endfacet
facet normal -0.5882584871704959 -0.8086729575495151 0
  outer loop
    vertex 3.244 5.048 0
    vertex 3.798 4.6450000000000005 0
    vertex 3.244 5.048 5
  endloop
endfacet
facet normal 0 0 1
  outer loop
    vertex 3.244 5.048 5
    vertex 3.798 4.6450000000000005 5
    vertex 5.9 7 5
  endloop
endfacet
facet normal 0 0 -1
  outer loop
    vertex 3.527 -4.854 0
    vertex 4.057 -4.42 0
    vertex 5.9 -7 0
  endloop
endfacet
facet normal -0.6335557143132139 0.7736970704746614 0
  outer loop
    vertex 3.527 -4.854 0
    vertex 3.527 -4.854 5
    vertex 4.057 -4.42 5
  endloop
endfacet
facet normal -0.5397986748941398 0.841794149767347 0
  outer loop
    vertex 3.527 -4.854 0
    vertex 2.95 -5.224 0
    vertex 3.527 -4.854 5
  endloop
endfacet
facet normal 1.6392635864055658e-15 0 1
  outer loop
    vertex 3.527 -4.854 5
    vertex 5.9 -7 5
    vertex 4.057 -4.42 5
  endloop
endfacet
facet normal 0 0 -1
  outer loop
    vertex 3.798 4.6450000000000005 0
    vertex 5.9 7 0
    vertex 4.303 4.182 0
  endloop
endfacet
facet normal -0.6757907204965312 -0.737093550433579 0
  outer loop
    vertex 3.798 4.6450000000000005 0
    vertex 4.303 4.182 0
    vertex 3.798 4.6450000000000005 5
  endloop
endfacet
facet normal -0.5882584871704949 -0.8086729575495157 0
  outer loop
    vertex 3.798 4.6450000000000005 0
    vertex 3.798 4.6450000000000005 5
    vertex 3.244 5.048 5
  endloop
endfacet
facet normal 1.6428726177701203e-15 0 1
  outer loop
    vertex 3.798 4.6450000000000005 5
    vertex 4.303 4.182 5
    vertex 5.9 7 5
  endloop
endfacet
facet normal 0 0 -1
  outer loop
    vertex 4.057 -4.42 0
    vertex 4.534 -3.9290000000000003 0
    vertex 5.9 -7 0
  endloop
endfacet
facet normal -0.7172585205646216 0.6968071574527992 0
  outer loop
    vertex 4.057 -4.42 0
    vertex 4.057 -4.42 5
    vertex 4.534 -3.9290000000000003 5
  endloop
endfacet
facet normal -0.6335557143132129 0.7736970704746623 0
  outer loop
    vertex 4.057 -4.42 0
    vertex 3.527 -4.854 0
    vertex 4.057 -4.42 5
  endloop
endfacet
facet normal 0 0 1
  outer loop
    vertex 4.057 -4.42 5
    vertex 5.9 -7 5
    vertex 4.534 -3.9290000000000003 5
  endloop
endfacet
facet normal 0 0 -1
  outer loop
    vertex 4.303 4.182 0
    vertex 5.9 7 0
    vertex 4.751 3.664 0
  endloop
endfacet
facet normal -0.6757907204965292 -0.7370935504335809 0
  outer loop
    vertex 4.303 4.182 0
    vertex 4.303 4.182 5
    vertex 3.798 4.6450000000000005 5
  endloop
endfacet
facet normal -0.756363172452144 -0.6541519329315844 0
  outer loop
    vertex 4.303 4.182 0
    vertex 4.751 3.664 0
    vertex 4.303 4.182 5
  endloop
endfacet
facet normal 0 0 1
  outer loop
    vertex 4.303 4.182 5
    vertex 4.751 3.664 5
    vertex 5.9 7 5
  endloop
endfacet
facet normal 0 0 -1
  outer loop
    vertex 4.534 -3.9290000000000003 0
    vertex 4.9 -3.455 0
    vertex 5.9 -7 0
  endloop
endfacet
facet normal -0.7915052914417211 0.6111623136448747 0
  outer loop
    vertex 4.534 -3.9290000000000003 0
    vertex 4.534 -3.9290000000000003 5
    vertex 4.9 -3.455 5
  endloop
endfacet
facet normal -0.7172585205646227 0.6968071574527982 0
  outer loop
    vertex 4.534 -3.9290000000000003 0
    vertex 4.057 -4.42 0
    vertex 4.534 -3.9290000000000003 5
  endloop
endfacet
facet normal 0 0 1
  outer loop
    vertex 4.534 -3.9290000000000003 5
    vertex 5.9 -7 5
    vertex 4.9 -3.455 5
  endloop
endfacet
facet normal 0 0 -1
  outer loop
    vertex 4.751 3.664 0
    vertex 5.9 7 0
    vertex 5.9 2.8000000000000003 0
  endloop
endfacet
facet normal 0 0 -0.9999999999999999
  outer loop
    vertex 4.751 3.664 0
    vertex 5.9 2.8000000000000003 0
    vertex 4.9 3.447 0
  endloop
endfacet
facet normal -0.756363172452144 -0.6541519329315844 0
  outer loop
    vertex 4.751 3.664 0
    vertex 4.751 3.664 5
    vertex 4.303 4.182 5
  endloop
endfacet
facet normal -0.8243743172036996 -0.566045038079952 0
  outer loop
    vertex 4.751 3.664 0
    vertex 4.9 3.447 0
    vertex 4.751 3.664 5
  endloop
endfacet
facet normal 0 0 0.9999999999999999
  outer loop
    vertex 4.751 3.664 5
    vertex 4.9 3.447 5
    vertex 5.9 2.8000000000000003 5
  endloop
endfacet
facet normal 0 0 -1
  outer loop
    vertex 4.9 -3.455 0
    vertex 4.9 -2 0
    vertex 5.9 -2.8000000000000003 0
  endloop
endfacet
facet normal 0 0 -1
  outer loop
    vertex 4.9 -3.455 0
    vertex 5.9 -2.8000000000000003 0
    vertex 5.9 -7 0
  endloop
endfacet
facet normal -0.9999999999999999 0 0
  outer loop
    vertex 4.9 -3.455 0
    vertex 4.9 -3.455 5
    vertex 4.9 -2 5
  endloop
endfacet
facet normal -0.7915052914417222 0.6111623136448733 0
  outer loop
    vertex 4.9 -3.455 0
    vertex 4.534 -3.9290000000000003 0
    vertex 4.9 -3.455 5
  endloop
endfacet
facet normal 0 0 1
  outer loop
    vertex 4.9 -3.455 5
    vertex 5.9 -2.8000000000000003 5
    vertex 4.9 -2 5
  endloop
endfacet
facet normal 0 0 -1
  outer loop
    vertex 4.9 -2 0
    vertex 5.7 -2 0
    vertex 5.9 -2.8000000000000003 0
  endloop
endfacet
facet normal -0.9999999999999999 0 0
  outer loop
    vertex 4.9 -2 0
    vertex 4.9 -3.455 0
    vertex 4.9 -2 5
  endloop
endfacet
facet normal 0 1 0
  outer loop
    vertex 4.9 -2 0
    vertex 4.9 -2 5
    vertex 5.7 -2 5
  endloop
endfacet
facet normal 0 0 1
  outer loop
    vertex 4.9 -2 5
    vertex 5.9 -2.8000000000000003 5
    vertex 5.7 -2 5
  endloop
endfacet
facet normal 0 0 -1
  outer loop
    vertex 4.9 2 0
    vertex 4.9 3.447 0
    vertex 5.9 2.8000000000000003 0
  endloop
endfacet
facet normal 0 0 -1
  outer loop
    vertex 4.9 2 0
    vertex 5.9 2.8000000000000003 0
    vertex 5.7 2 0
  endloop
endfacet
facet normal -1 0 0
  outer loop
    vertex 4.9 2 0
    vertex 4.9 2 5
    vertex 4.9 3.447 5
  endloop
endfacet
facet normal 0 -1 0
  outer loop
    vertex 4.9 2 0
    vertex 5.7 2 0
    vertex 4.9 2 5
  endloop
endfacet
facet normal 0 0 1
  outer loop
    vertex 4.9 2 5
    vertex 5.7 2 5
    vertex 5.9 2.8000000000000003 5
  endloop
endfacet
facet normal -1 0 0
  outer loop
    vertex 4.9 3.447 0
    vertex 4.9 2 0
    vertex 4.9 3.447 5
  endloop
endfacet
facet normal -0.8243743172036944 -0.5660450380799593 0
  outer loop
    vertex 4.9 3.447 0
    vertex 4.9 3.447 5
    vertex 4.751 3.664 5
  endloop
endfacet
facet normal 0 0 1
  outer loop
    vertex 4.9 3.447 5
    vertex 4.9 2 5
    vertex 5.9 2.8000000000000003 5
  endloop
endfacet
facet normal 0 0 -1
  outer loop
    vertex 5.7 -2 0
    vertex 6.5 -2.8000000000000003 0
    vertex 5.9 -2.8000000000000003 0
  endloop
endfacet
facet normal 0 1 0
  outer loop
    vertex 5.7 -2 0
    vertex 4.9 -2 0
    vertex 5.7 -2 5
  endloop
endfacet
facet normal -1 0 0
  outer loop
    vertex 5.7 -2 0
    vertex 5.7 -2 5
    vertex 5.7 2 5
  endloop
endfacet
facet normal 0 0 1
  outer loop
    vertex 5.7 -2 5
    vertex 5.9 -2.8000000000000003 5
    vertex 6.5 -2.8000000000000003 5
  endloop
endfacet
facet normal 0 0 -1
  outer loop
    vertex 5.7 2 0
    vertex 5.9 2.8000000000000003 0
    vertex 6.5 2.8000000000000003 0
  endloop
endfacet
facet normal 0 -1 0
  outer loop
    vertex 5.7 2 0
    vertex 5.7 2 5
    vertex 4.9 2 5
  endloop
endfacet
facet normal -1 0 0
  outer loop
    vertex 5.7 2 0
    vertex 5.7 -2 0
    vertex 5.7 2 5
  endloop
endfacet
facet normal 0 0 1
  outer loop
    vertex 5.7 2 5
    vertex 6.5 2.8000000000000003 5
    vertex 5.9 2.8000000000000003 5
  endloop
endfacet
facet normal -1.1102230246251565e-15 0 0.9999999999999999
  outer loop
    vertex 5.7 2 5
    vertex 5.7 -2 5
    vertex 6.5 -2.8000000000000003 5
  endloop
endfacet
facet normal 1.586032892321652e-15 0 1
  outer loop
    vertex 5.7 2 5
    vertex 6.5 -2.8000000000000003 5
    vertex 6.5 2.8000000000000003 5
  endloop
endfacet
facet normal 0 -1 0
  outer loop
    vertex 5.9 -7 0
    vertex 5.9 -7 5
    vertex -5.9 -7 5
  endloop
endfacet
facet normal 1 0 0
  outer loop
    vertex 5.9 -7 0
    vertex 5.9 -2.8000000000000003 0
    vertex 5.9 -7 5
  endloop
endfacet
facet normal 1.903239470785983e-15 0 1
  outer loop
    vertex 5.9 -7 5
    vertex 5.9 -2.8000000000000003 5
    vertex 4.9 -3.455 5
  endloop
endfacet
facet normal 0 -1 0
  outer loop
    vertex 5.9 -2.8000000000000003 0
    vertex 6.5 -2.8000000000000003 0
    vertex 5.9 -2.8000000000000003 5
  endloop
endfacet
facet normal 1 0 0
  outer loop
    vertex 5.9 -2.8000000000000003 0
    vertex 5.9 -2.8000000000000003 5
    vertex 5.9 -7 5
  endloop
endfacet
facet normal 0 1 0
  outer loop
    vertex 5.9 2.8000000000000003 0
    vertex 5.9 2.8000000000000003 5
    vertex 6.5 2.8000000000000003 5
  endloop
endfacet
facet normal 1 0 0
  outer loop
    vertex 5.9 2.8000000000000003 0
    vertex 5.9 7 0
    vertex 5.9 2.8000000000000003 5
  endloop
endfacet
facet normal 1.4723833058976757e-15 0 1
  outer loop
    vertex 5.9 2.8000000000000003 5
    vertex 5.9 7 5
    vertex 4.751 3.664 5
  endloop
endfacet
facet normal 0 1 0
  outer loop
    vertex 5.9 7 0
    vertex -5.9 7 0
    vertex 5.9 7 5
  endloop
endfacet
facet normal 1 0 0
  outer loop
    vertex 5.9 7 0
    vertex 5.9 7 5
    vertex 5.9 2.8000000000000003 5
  endloop
endfacet
facet normal 0 0 -0.9999999999999999
  outer loop
    vertex 6.5 -2.8000000000000003 0
    vertex 5.7 -2 0
    vertex 5.7 2 0
  endloop
endfacet
facet normal 0 0 -1
  outer loop
    vertex 6.5 -2.8000000000000003 0
    vertex 5.7 2 0
    vertex 6.5 2.8000000000000003 0
  endloop
endfacet
facet normal 0 -1 0
  outer loop
    vertex 6.5 -2.8000000000000003 0
    vertex 6.5 -2.8000000000000003 5
    vertex 5.9 -2.8000000000000003 5
  endloop
endfacet
facet normal 1 0 0
  outer loop
    vertex 6.5 -2.8000000000000003 0
    vertex 6.5 2.8000000000000003 0
    vertex 6.5 -2.8000000000000003 5
  endloop
endfacet
facet normal 0 1 0
  outer loop
    vertex 6.5 2.8000000000000003 0
    vertex 5.9 2.8000000000000003 0
    vertex 6.5 2.8000000000000003 5
  endloop
endfacet
facet normal 1 0 0
  outer loop
    vertex 6.5 2.8000000000000003 0
    vertex 6.5 2.8000000000000003 5
    vertex 6.5 -2.8000000000000003 5
  endloop
endfacet
endsolid JSxCAD
