solid JSxCAD
facet normal -1 0 0
  outer loop
    vertex -5.9 -7 -2
    vertex -5.9 -7 0
    vertex -5.9 7 0
  endloop
endfacet
facet normal 0 0 -0.9999999999999999
  outer loop
    vertex -5.9 -7 -2
    vertex -5.9 7 -2
    vertex 5.9 -2.8000000000000003 -2
  endloop
endfacet
facet normal -1 0 0
  outer loop
    vertex -5.9 -7 -2
    vertex -5.9 7 0
    vertex -5.9 7 -2
  endloop
endfacet
facet normal 0 -1 0
  outer loop
    vertex -5.9 -7 -2
    vertex 5.9 -7 -2
    vertex -5.9 -7 0
  endloop
endfacet
facet normal 0 0 -1
  outer loop
    vertex -5.9 -7 -2
    vertex 5.9 -2.8000000000000003 -2
    vertex 5.9 -7 -2
  endloop
endfacet
facet normal -1 0 0
  outer loop
    vertex -5.9 -7 0
    vertex -5.9 -7 5
    vertex -5.9 7 5
  endloop
endfacet
facet normal 0 0 -1
  outer loop
    vertex -5.9 -7 0
    vertex -5.9 7 0
    vertex -4.9 3.452 0
  endloop
endfacet
facet normal -1 0 0
  outer loop
    vertex -5.9 -7 0
    vertex -5.9 7 5
    vertex -5.9 7 0
  endloop
endfacet
facet normal 0 -1 0
  outer loop
    vertex -5.9 -7 0
    vertex -4.9 -7 0
    vertex -5.9 -7 5
  endloop
endfacet
facet normal 0 0 -1
  outer loop
    vertex -5.9 -7 0
    vertex -4.9 -3.464 0
    vertex -4.9 -7 0
  endloop
endfacet
facet normal 0 0 -1
  outer loop
    vertex -5.9 -7 0
    vertex -4.9 3.452 0
    vertex -4.9 -3.464 0
  endloop
endfacet
facet normal 0 -1 0
  outer loop
    vertex -5.9 -7 0
    vertex 5.9 -7 -2
    vertex 5.9 -7 0
  endloop
endfacet
facet normal 0 0 1
  outer loop
    vertex -5.9 -7 0
    vertex 5.9 -7 0
    vertex 5.9 -2.8000000000000003 0
  endloop
endfacet
facet normal 0 0 0.9999999999999999
  outer loop
    vertex -5.9 -7 0
    vertex 5.9 -2.8000000000000003 0
    vertex -5.9 7 0
  endloop
endfacet
facet normal 0 -1 0
  outer loop
    vertex -5.9 -7 5
    vertex -4.9 -7 0
    vertex -4.9 -7 5
  endloop
endfacet
facet normal 0 0 1
  outer loop
    vertex -5.9 -7 5
    vertex -4.9 -7 5
    vertex -4.9 -3.464 5
  endloop
endfacet
facet normal 0 0 1
  outer loop
    vertex -5.9 -7 5
    vertex -4.9 -3.464 5
    vertex -4.9 3.452 5
  endloop
endfacet
facet normal 0 0 1
  outer loop
    vertex -5.9 -7 5
    vertex -4.9 3.452 5
    vertex -5.9 7 5
  endloop
endfacet
facet normal 0 1 0
  outer loop
    vertex -5.9 7 -2
    vertex -5.9 7 0
    vertex 5.9 7 0
  endloop
endfacet
facet normal 5.376382685836108e-17 0 -1
  outer loop
    vertex -5.9 7 -2
    vertex 5.9 2.8000000000000003 -2
    vertex 5.9 -2.8000000000000003 -2
  endloop
endfacet
facet normal 0 0 -1
  outer loop
    vertex -5.9 7 -2
    vertex 5.9 7 -2
    vertex 5.9 2.8000000000000003 -2
  endloop
endfacet
facet normal 0 1 0
  outer loop
    vertex -5.9 7 -2
    vertex 5.9 7 0
    vertex 5.9 7 -2
  endloop
endfacet
facet normal 0 1 0
  outer loop
    vertex -5.9 7 0
    vertex -5.9 7 5
    vertex -4.9 7 5
  endloop
endfacet
facet normal 0 0 -0.9999999999999999
  outer loop
    vertex -5.9 7 0
    vertex -4.9 7 0
    vertex -4.9 3.452 0
  endloop
endfacet
facet normal 0 1 0
  outer loop
    vertex -5.9 7 0
    vertex -4.9 7 5
    vertex -4.9 7 0
  endloop
endfacet
facet normal 0 0 1
  outer loop
    vertex -5.9 7 0
    vertex 5.9 -2.8000000000000003 0
    vertex 5.9 2.8000000000000003 0
  endloop
endfacet
facet normal 0 0 1
  outer loop
    vertex -5.9 7 0
    vertex 5.9 2.8000000000000003 0
    vertex 5.9 7 0
  endloop
endfacet
facet normal 0 0 0.9999999999999999
  outer loop
    vertex -5.9 7 5
    vertex -4.9 3.452 5
    vertex -4.9 7 5
  endloop
endfacet
facet normal 0 0 -1
  outer loop
    vertex -4.9 -7 0
    vertex -4.9 -3.464 0
    vertex -4.75 -3.657 0
  endloop
endfacet
facet normal 0 0 -1
  outer loop
    vertex -4.9 -7 0
    vertex -4.75 -3.657 0
    vertex -4.537 -7 0
  endloop
endfacet
facet normal 0 -1 0
  outer loop
    vertex -4.9 -7 0
    vertex -4.537 -7 0
    vertex -4.9 -7 5
  endloop
endfacet
facet normal -1.6745445318629778e-15 0 1
  outer loop
    vertex -4.9 -7 5
    vertex -4.75 -3.657 5
    vertex -4.9 -3.464 5
  endloop
endfacet
facet normal 0 -1 0
  outer loop
    vertex -4.9 -7 5
    vertex -4.537 -7 0
    vertex -4.537 -7 5
  endloop
endfacet
facet normal 0 0 1
  outer loop
    vertex -4.9 -7 5
    vertex -4.537 -7 5
    vertex -4.75 -3.657 5
  endloop
endfacet
facet normal 0.789572453817218 0.613657347526335 0
  outer loop
    vertex -4.9 -3.464 0
    vertex -4.9 -3.464 5
    vertex -4.75 -3.657 5
  endloop
endfacet
facet normal 1 0 0
  outer loop
    vertex -4.9 -3.464 0
    vertex -4.9 3.452 0
    vertex -4.9 -3.464 5
  endloop
endfacet
facet normal 0.789572453817218 0.613657347526335 0
  outer loop
    vertex -4.9 -3.464 0
    vertex -4.75 -3.657 5
    vertex -4.75 -3.657 0
  endloop
endfacet
facet normal 1 0 0
  outer loop
    vertex -4.9 -3.464 5
    vertex -4.9 3.452 0
    vertex -4.9 3.452 5
  endloop
endfacet
facet normal 0 0 -1
  outer loop
    vertex -4.9 3.452 0
    vertex -4.9 7 0
    vertex -4.75 3.6670000000000003 0
  endloop
endfacet
facet normal 0.8201269543011837 -0.5721815960240808 0
  outer loop
    vertex -4.9 3.452 0
    vertex -4.75 3.6670000000000003 0
    vertex -4.9 3.452 5
  endloop
endfacet
facet normal 0.8201269543011837 -0.5721815960240808 0
  outer loop
    vertex -4.9 3.452 5
    vertex -4.75 3.6670000000000003 0
    vertex -4.75 3.6670000000000003 5
  endloop
endfacet
facet normal 0 0 1
  outer loop
    vertex -4.9 3.452 5
    vertex -4.75 3.6670000000000003 5
    vertex -4.9 7 5
  endloop
endfacet
facet normal 0 1 0
  outer loop
    vertex -4.9 7 0
    vertex -4.9 7 5
    vertex -4.75 7 5
  endloop
endfacet
facet normal 0 0 -0.9999999999999999
  outer loop
    vertex -4.9 7 0
    vertex -4.75 7 0
    vertex -4.75 3.6670000000000003 0
  endloop
endfacet
facet normal 0 1 0
  outer loop
    vertex -4.9 7 0
    vertex -4.75 7 5
    vertex -4.75 7 0
  endloop
endfacet
facet normal 0 0 0.9999999999999999
  outer loop
    vertex -4.9 7 5
    vertex -4.75 3.6670000000000003 5
    vertex -4.75 7 5
  endloop
endfacet
facet normal 0.7895073452137447 0.613741111425286 0
  outer loop
    vertex -4.75 -3.657 0
    vertex -4.75 -3.657 5
    vertex -4.537 -3.931 5
  endloop
endfacet
facet normal 0 0 -1
  outer loop
    vertex -4.75 -3.657 0
    vertex -4.537 -3.931 0
    vertex -4.537 -7 0
  endloop
endfacet
facet normal 0.7895073452137465 0.6137411114252834 0
  outer loop
    vertex -4.75 -3.657 0
    vertex -4.537 -3.931 5
    vertex -4.537 -3.931 0
  endloop
endfacet
facet normal 0 0 1
  outer loop
    vertex -4.75 -3.657 5
    vertex -4.537 -7 5
    vertex -4.537 -3.931 5
  endloop
endfacet
facet normal 0 0 -0.9999999999999999
  outer loop
    vertex -4.75 3.6670000000000003 0
    vertex -4.75 7 0
    vertex -4.537 3.915 0
  endloop
endfacet
facet normal 0.7586084581226998 -0.6515467805650643 0
  outer loop
    vertex -4.75 3.6670000000000003 0
    vertex -4.537 3.915 0
    vertex -4.75 3.6670000000000003 5
  endloop
endfacet
facet normal 0.7586084581227021 -0.6515467805650619 0
  outer loop
    vertex -4.75 3.6670000000000003 5
    vertex -4.537 3.915 0
    vertex -4.537 3.915 5
  endloop
endfacet
facet normal 0 0 0.9999999999999999
  outer loop
    vertex -4.75 3.6670000000000003 5
    vertex -4.537 3.915 5
    vertex -4.75 7 5
  endloop
endfacet
facet normal 0 1 0
  outer loop
    vertex -4.75 7 0
    vertex -4.75 7 5
    vertex -4.308 7 5
  endloop
endfacet
facet normal 0 0 -1
  outer loop
    vertex -4.75 7 0
    vertex -4.308 7 0
    vertex -4.537 3.915 0
  endloop
endfacet
facet normal 0 1 0
  outer loop
    vertex -4.75 7 0
    vertex -4.308 7 5
    vertex -4.308 7 0
  endloop
endfacet
facet normal 0 0 1
  outer loop
    vertex -4.75 7 5
    vertex -4.537 3.915 5
    vertex -4.308 7 5
  endloop
endfacet
facet normal 0 0 -1
  outer loop
    vertex -4.537 -7 0
    vertex -4.537 -3.931 0
    vertex -4.308 -4.166 0
  endloop
endfacet
facet normal 0 0 -1
  outer loop
    vertex -4.537 -7 0
    vertex -4.308 -4.166 0
    vertex -4.059 -7 0
  endloop
endfacet
facet normal 0 -1 0
  outer loop
    vertex -4.537 -7 0
    vertex -4.059 -7 0
    vertex -4.537 -7 5
  endloop
endfacet
facet normal -2.527538861498846e-15 0 1
  outer loop
    vertex -4.537 -7 5
    vertex -4.308 -4.166 5
    vertex -4.537 -3.931 5
  endloop
endfacet
facet normal 0 -1 0
  outer loop
    vertex -4.537 -7 5
    vertex -4.059 -7 0
    vertex -4.059 -7 5
  endloop
endfacet
facet normal 0 0 1
  outer loop
    vertex -4.537 -7 5
    vertex -4.059 -7 5
    vertex -4.308 -4.166 5
  endloop
endfacet
facet normal 0.7161905281589512 0.6979048125463833 0
  outer loop
    vertex -4.537 -3.931 0
    vertex -4.537 -3.931 5
    vertex -4.308 -4.166 5
  endloop
endfacet
facet normal 0.7161905281589533 0.6979048125463809 0
  outer loop
    vertex -4.537 -3.931 0
    vertex -4.308 -4.166 5
    vertex -4.308 -4.166 0
  endloop
endfacet
facet normal 0.7590558905542117 -0.6510254641832013 0
  outer loop
    vertex -4.537 3.915 0
    vertex -4.308 4.182 0
    vertex -4.537 3.915 5
  endloop
endfacet
facet normal 0 0 -1
  outer loop
    vertex -4.537 3.915 0
    vertex -4.308 7 0
    vertex -4.308 4.182 0
  endloop
endfacet
facet normal 0.7590558905542139 -0.651025464183199 0
  outer loop
    vertex -4.537 3.915 5
    vertex -4.308 4.182 0
    vertex -4.308 4.182 5
  endloop
endfacet
facet normal 5.50533482323631e-15 0 1
  outer loop
    vertex -4.537 3.915 5
    vertex -4.308 4.182 5
    vertex -4.308 7 5
  endloop
endfacet
facet normal 0.7154740211643155 0.6986393383133852 0
  outer loop
    vertex -4.308 -4.166 0
    vertex -4.308 -4.166 5
    vertex -4.059 -4.421 5
  endloop
endfacet
facet normal 0 0 -1
  outer loop
    vertex -4.308 -4.166 0
    vertex -4.059 -4.421 0
    vertex -4.059 -7 0
  endloop
endfacet
facet normal 0.7154740211643115 0.6986393383133893 0
  outer loop
    vertex -4.308 -4.166 0
    vertex -4.059 -4.421 5
    vertex -4.059 -4.421 0
  endloop
endfacet
facet normal 0 0 1
  outer loop
    vertex -4.308 -4.166 5
    vertex -4.059 -7 5
    vertex -4.059 -4.421 5
  endloop
endfacet
facet normal 0 0 -1
  outer loop
    vertex -4.308 4.182 0
    vertex -4.308 7 0
    vertex -4.059 4.409 0
  endloop
endfacet
facet normal 0.6737061909391088 -0.73899930195523 0
  outer loop
    vertex -4.308 4.182 0
    vertex -4.059 4.409 0
    vertex -4.308 4.182 5
  endloop
endfacet
facet normal 0.6737061909391046 -0.7389993019552339 0
  outer loop
    vertex -4.308 4.182 5
    vertex -4.059 4.409 0
    vertex -4.059 4.409 5
  endloop
endfacet
facet normal 0 0 1
  outer loop
    vertex -4.308 4.182 5
    vertex -4.059 4.409 5
    vertex -4.308 7 5
  endloop
endfacet
facet normal 0 1 0
  outer loop
    vertex -4.308 7 0
    vertex -4.308 7 5
    vertex -3.8000000000000003 7 5
  endloop
endfacet
facet normal 0 0 -1
  outer loop
    vertex -4.308 7 0
    vertex -3.8000000000000003 7 0
    vertex -4.059 4.409 0
  endloop
endfacet
facet normal 0 1 0
  outer loop
    vertex -4.308 7 0
    vertex -3.8000000000000003 7 5
    vertex -3.8000000000000003 7 0
  endloop
endfacet
facet normal 0 0 1
  outer loop
    vertex -4.308 7 5
    vertex -4.059 4.409 5
    vertex -3.8000000000000003 7 5
  endloop
endfacet
facet normal 0 0 -0.9999999999999999
  outer loop
    vertex -4.059 -7 0
    vertex -4.059 -4.421 0
    vertex -3.8000000000000003 -4.634 0
  endloop
endfacet
facet normal 0 0 -1
  outer loop
    vertex -4.059 -7 0
    vertex -3.8000000000000003 -4.634 0
    vertex -3.529 -7 0
  endloop
endfacet
facet normal 0 -1 0
  outer loop
    vertex -4.059 -7 0
    vertex -3.529 -7 0
    vertex -4.059 -7 5
  endloop
endfacet
facet normal 2.6593720881911523e-15 0 0.9999999999999999
  outer loop
    vertex -4.059 -7 5
    vertex -3.8000000000000003 -4.634 5
    vertex -4.059 -4.421 5
  endloop
endfacet
facet normal 0 -1 0
  outer loop
    vertex -4.059 -7 5
    vertex -3.529 -7 0
    vertex -3.529 -7 5
  endloop
endfacet
facet normal 0 0 1
  outer loop
    vertex -4.059 -7 5
    vertex -3.529 -7 5
    vertex -3.8000000000000003 -4.634 5
  endloop
endfacet
facet normal 0.6351844734021939 0.7723604629632318 0
  outer loop
    vertex -4.059 -4.421 0
    vertex -4.059 -4.421 5
    vertex -3.8000000000000003 -4.634 5
  endloop
endfacet
facet normal 0.6351844734021939 0.7723604629632318 0
  outer loop
    vertex -4.059 -4.421 0
    vertex -3.8000000000000003 -4.634 5
    vertex -3.8000000000000003 -4.634 0
  endloop
endfacet
facet normal 0.6735246490621353 -0.7391647631656474 0
  outer loop
    vertex -4.059 4.409 0
    vertex -3.8000000000000003 4.6450000000000005 0
    vertex -4.059 4.409 5
  endloop
endfacet
facet normal 0 0 -1
  outer loop
    vertex -4.059 4.409 0
    vertex -3.8000000000000003 7 0
    vertex -3.8000000000000003 4.6450000000000005 0
  endloop
endfacet
facet normal 0.6735246490621353 -0.7391647631656474 0
  outer loop
    vertex -4.059 4.409 5
    vertex -3.8000000000000003 4.6450000000000005 0
    vertex -3.8000000000000003 4.6450000000000005 5
  endloop
endfacet
facet normal 0 0 1
  outer loop
    vertex -4.059 4.409 5
    vertex -3.8000000000000003 4.6450000000000005 5
    vertex -3.8000000000000003 7 5
  endloop
endfacet
facet normal 0.6354075814086981 0.7721769262859054 0
  outer loop
    vertex -3.8000000000000003 -4.634 0
    vertex -3.8000000000000003 -4.634 5
    vertex -3.529 -4.857 5
  endloop
endfacet
facet normal 0 0 -1
  outer loop
    vertex -3.8000000000000003 -4.634 0
    vertex -3.529 -4.857 0
    vertex -3.529 -7 0
  endloop
endfacet
facet normal 0.6354075814086961 0.7721769262859071 0
  outer loop
    vertex -3.8000000000000003 -4.634 0
    vertex -3.529 -4.857 5
    vertex -3.529 -4.857 0
  endloop
endfacet
facet normal 0 0 1
  outer loop
    vertex -3.8000000000000003 -4.634 5
    vertex -3.529 -7 5
    vertex -3.529 -4.857 5
  endloop
endfacet
facet normal 0 0 -1
  outer loop
    vertex -3.8000000000000003 4.6450000000000005 0
    vertex -3.8000000000000003 7 0
    vertex -3.529 4.843 0
  endloop
endfacet
facet normal 0.5899418837155368 -0.807445709529851 0
  outer loop
    vertex -3.8000000000000003 4.6450000000000005 0
    vertex -3.529 4.843 0
    vertex -3.8000000000000003 4.6450000000000005 5
  endloop
endfacet
facet normal 0.5899418837155347 -0.8074457095298523 0
  outer loop
    vertex -3.8000000000000003 4.6450000000000005 5
    vertex -3.529 4.843 0
    vertex -3.529 4.843 5
  endloop
endfacet
facet normal 0 0 1
  outer loop
    vertex -3.8000000000000003 4.6450000000000005 5
    vertex -3.529 4.843 5
    vertex -3.8000000000000003 7 5
  endloop
endfacet
facet normal 0 1 0
  outer loop
    vertex -3.8000000000000003 7 0
    vertex -3.8000000000000003 7 5
    vertex -3.243 7 5
  endloop
endfacet
facet normal 0 0 -1
  outer loop
    vertex -3.8000000000000003 7 0
    vertex -3.243 7 0
    vertex -3.529 4.843 0
  endloop
endfacet
facet normal 0 0.9999999999999999 0
  outer loop
    vertex -3.8000000000000003 7 0
    vertex -3.243 7 5
    vertex -3.243 7 0
  endloop
endfacet
facet normal 0 0 1
  outer loop
    vertex -3.8000000000000003 7 5
    vertex -3.529 4.843 5
    vertex -3.243 7 5
  endloop
endfacet
facet normal 0 0 -1
  outer loop
    vertex -3.529 -7 0
    vertex -3.529 -4.857 0
    vertex -3.243 -5.038 0
  endloop
endfacet
facet normal 0 0 -0.9999999999999999
  outer loop
    vertex -3.529 -7 0
    vertex -3.243 -5.038 0
    vertex -2.945 -7 0
  endloop
endfacet
facet normal 0 -1 0
  outer loop
    vertex -3.529 -7 0
    vertex -2.945 -7 0
    vertex -3.529 -7 5
  endloop
endfacet
facet normal 2.898291133924814e-15 0 1
  outer loop
    vertex -3.529 -7 5
    vertex -3.243 -5.038 5
    vertex -3.529 -4.857 5
  endloop
endfacet
facet normal 0 -1 0
  outer loop
    vertex -3.529 -7 5
    vertex -2.945 -7 0
    vertex -2.945 -7 5
  endloop
endfacet
facet normal 0 0 0.9999999999999999
  outer loop
    vertex -3.529 -7 5
    vertex -2.945 -7 5
    vertex -3.243 -5.038 5
  endloop
endfacet
facet normal 0.5347708903820697 0.8449970975097892 0
  outer loop
    vertex -3.529 -4.857 0
    vertex -3.529 -4.857 5
    vertex -3.243 -5.038 5
  endloop
endfacet
facet normal 0.5347708903820697 0.8449970975097892 0
  outer loop
    vertex -3.529 -4.857 0
    vertex -3.243 -5.038 5
    vertex -3.243 -5.038 0
  endloop
endfacet
facet normal 0.5918522852315748 -0.8060464456010971 0
  outer loop
    vertex -3.529 4.843 0
    vertex -3.243 5.053 0
    vertex -3.529 4.843 5
  endloop
endfacet
facet normal 0 0 -1
  outer loop
    vertex -3.529 4.843 0
    vertex -3.243 7 0
    vertex -3.243 5.053 0
  endloop
endfacet
facet normal 0.5918522852315748 -0.8060464456010971 0
  outer loop
    vertex -3.529 4.843 5
    vertex -3.243 5.053 0
    vertex -3.243 5.053 5
  endloop
endfacet
facet normal 0 0 1
  outer loop
    vertex -3.529 4.843 5
    vertex -3.243 5.053 5
    vertex -3.243 7 5
  endloop
endfacet
facet normal 0.5335658008469883 0.8457585566617178 0
  outer loop
    vertex -3.243 -5.038 0
    vertex -3.243 -5.038 5
    vertex -2.945 -5.226 5
  endloop
endfacet
facet normal 0 0 -1
  outer loop
    vertex -3.243 -5.038 0
    vertex -2.945 -5.226 0
    vertex -2.945 -7 0
  endloop
endfacet
facet normal 0.5335658008469891 0.8457585566617172 0
  outer loop
    vertex -3.243 -5.038 0
    vertex -2.945 -5.226 5
    vertex -2.945 -5.226 0
  endloop
endfacet
facet normal 0 0 1
  outer loop
    vertex -3.243 -5.038 5
    vertex -2.945 -7 5
    vertex -2.945 -5.226 5
  endloop
endfacet
facet normal 0 0 -1
  outer loop
    vertex -3.243 5.053 0
    vertex -3.243 7 0
    vertex -2.945 5.216 0
  endloop
endfacet
facet normal 0.4798831617975329 -0.8773324062310721 0
  outer loop
    vertex -3.243 5.053 0
    vertex -2.945 5.216 0
    vertex -3.243 5.053 5
  endloop
endfacet
facet normal 0.47988316179753365 -0.8773324062310716 0
  outer loop
    vertex -3.243 5.053 5
    vertex -2.945 5.216 0
    vertex -2.945 5.216 5
  endloop
endfacet
facet normal 0 0 1
  outer loop
    vertex -3.243 5.053 5
    vertex -2.945 5.216 5
    vertex -3.243 7 5
  endloop
endfacet
facet normal 0 1 0
  outer loop
    vertex -3.243 7 0
    vertex -3.243 7 5
    vertex -2.6470000000000002 7 5
  endloop
endfacet
facet normal 0 0 -1
  outer loop
    vertex -3.243 7 0
    vertex -2.6470000000000002 7 0
    vertex -2.945 5.216 0
  endloop
endfacet
facet normal 0 1 0
  outer loop
    vertex -3.243 7 0
    vertex -2.6470000000000002 7 5
    vertex -2.6470000000000002 7 0
  endloop
endfacet
facet normal 0 0 1
  outer loop
    vertex -3.243 7 5
    vertex -2.945 5.216 5
    vertex -2.6470000000000002 7 5
  endloop
endfacet
facet normal 0 0 -0.9999999999999999
  outer loop
    vertex -2.945 -7 0
    vertex -2.945 -5.226 0
    vertex -2.6470000000000002 -5.372 0
  endloop
endfacet
facet normal 0 0 -1
  outer loop
    vertex -2.945 -7 0
    vertex -2.6470000000000002 -5.372 0
    vertex -2.333 -7 0
  endloop
endfacet
facet normal 0 -0.9999999999999999 0
  outer loop
    vertex -2.945 -7 0
    vertex -2.333 -7 0
    vertex -2.945 -7 5
  endloop
endfacet
facet normal 3.3601629037632562e-15 0 0.9999999999999999
  outer loop
    vertex -2.945 -7 5
    vertex -2.6470000000000002 -5.372 5
    vertex -2.945 -5.226 5
  endloop
endfacet
facet normal 0 -0.9999999999999999 0
  outer loop
    vertex -2.945 -7 5
    vertex -2.333 -7 0
    vertex -2.333 -7 5
  endloop
endfacet
facet normal 0 0 1
  outer loop
    vertex -2.945 -7 5
    vertex -2.333 -7 5
    vertex -2.6470000000000002 -5.372 5
  endloop
endfacet
facet normal 0.4399666466901578 0.898014114477171 0
  outer loop
    vertex -2.945 -5.226 0
    vertex -2.945 -5.226 5
    vertex -2.6470000000000002 -5.372 5
  endloop
endfacet
facet normal 0.4399666466901578 0.898014114477171 0
  outer loop
    vertex -2.945 -5.226 0
    vertex -2.6470000000000002 -5.372 5
    vertex -2.6470000000000002 -5.372 0
  endloop
endfacet
facet normal 0.47988316179753365 -0.8773324062310716 0
  outer loop
    vertex -2.945 5.216 0
    vertex -2.6470000000000002 5.3790000000000004 0
    vertex -2.945 5.216 5
  endloop
endfacet
facet normal 0 0 -1
  outer loop
    vertex -2.945 5.216 0
    vertex -2.6470000000000002 7 0
    vertex -2.6470000000000002 5.3790000000000004 0
  endloop
endfacet
facet normal 0.47988316179753365 -0.8773324062310716 0
  outer loop
    vertex -2.945 5.216 5
    vertex -2.6470000000000002 5.3790000000000004 0
    vertex -2.6470000000000002 5.3790000000000004 5
  endloop
endfacet
facet normal 0 0 1
  outer loop
    vertex -2.945 5.216 5
    vertex -2.6470000000000002 5.3790000000000004 5
    vertex -2.6470000000000002 7 5
  endloop
endfacet
facet normal 0.44033802177281667 0.8978320703679515 0
  outer loop
    vertex -2.6470000000000002 -5.372 0
    vertex -2.6470000000000002 -5.372 5
    vertex -2.333 -5.526 5
  endloop
endfacet
facet normal 0 0 -0.9999999999999999
  outer loop
    vertex -2.6470000000000002 -5.372 0
    vertex -2.333 -5.526 0
    vertex -2.333 -7 0
  endloop
endfacet
facet normal 0.44033802177281667 0.8978320703679515 0
  outer loop
    vertex -2.6470000000000002 -5.372 0
    vertex -2.333 -5.526 5
    vertex -2.333 -5.526 0
  endloop
endfacet
facet normal 0 0 0.9999999999999999
  outer loop
    vertex -2.6470000000000002 -5.372 5
    vertex -2.333 -7 5
    vertex -2.333 -5.526 5
  endloop
endfacet
facet normal 0 0 -0.9999999999999999
  outer loop
    vertex -2.6470000000000002 5.3790000000000004 0
    vertex -2.6470000000000002 7 0
    vertex -2.333 5.514 0
  endloop
endfacet
facet normal 0.3949783659098461 -0.9186904214495696 0
  outer loop
    vertex -2.6470000000000002 5.3790000000000004 0
    vertex -2.333 5.514 0
    vertex -2.6470000000000002 5.3790000000000004 5
  endloop
endfacet
facet normal 0.3949783659098461 -0.9186904214495696 0
  outer loop
    vertex -2.6470000000000002 5.3790000000000004 5
    vertex -2.333 5.514 0
    vertex -2.333 5.514 5
  endloop
endfacet
facet normal -3.489936697486124e-15 0 0.9999999999999999
  outer loop
    vertex -2.6470000000000002 5.3790000000000004 5
    vertex -2.333 5.514 5
    vertex -2.6470000000000002 7 5
  endloop
endfacet
facet normal 0 1 0
  outer loop
    vertex -2.6470000000000002 7 0
    vertex -2.6470000000000002 7 5
    vertex -2.0220000000000002 7 5
  endloop
endfacet
facet normal 0 0 -1
  outer loop
    vertex -2.6470000000000002 7 0
    vertex -2.0220000000000002 7 0
    vertex -2.333 5.514 0
  endloop
endfacet
facet normal 0 1 0
  outer loop
    vertex -2.6470000000000002 7 0
    vertex -2.0220000000000002 7 5
    vertex -2.0220000000000002 7 0
  endloop
endfacet
facet normal 0 0 1
  outer loop
    vertex -2.6470000000000002 7 5
    vertex -2.333 5.514 5
    vertex -2.0220000000000002 7 5
  endloop
endfacet
facet normal 0 0 -1
  outer loop
    vertex -2.333 -7 0
    vertex -2.333 -5.526 0
    vertex -2.0220000000000002 -5.639 0
  endloop
endfacet
facet normal 0 0 -0.9999999999999999
  outer loop
    vertex -2.333 -7 0
    vertex -2.0220000000000002 -5.639 0
    vertex -1.687 -7 0
  endloop
endfacet
facet normal 0 -1 0
  outer loop
    vertex -2.333 -7 0
    vertex -1.687 -7 0
    vertex -2.333 -7 5
  endloop
endfacet
facet normal 0 0 1
  outer loop
    vertex -2.333 -7 5
    vertex -2.0220000000000002 -5.639 5
    vertex -2.333 -5.526 5
  endloop
endfacet
facet normal 0 -1 0
  outer loop
    vertex -2.333 -7 5
    vertex -1.687 -7 0
    vertex -1.687 -7 5
  endloop
endfacet
facet normal 0 0 0.9999999999999999
  outer loop
    vertex -2.333 -7 5
    vertex -1.687 -7 5
    vertex -2.0220000000000002 -5.639 5
  endloop
endfacet
facet normal 0.3415003991283244 0.9398816294593669 0
  outer loop
    vertex -2.333 -5.526 0
    vertex -2.333 -5.526 5
    vertex -2.0220000000000002 -5.639 5
  endloop
endfacet
facet normal 0.3415003991283244 0.9398816294593669 0
  outer loop
    vertex -2.333 -5.526 0
    vertex -2.0220000000000002 -5.639 5
    vertex -2.0220000000000002 -5.639 0
  endloop
endfacet
facet normal 0.39320555815067065 -0.919450590863598 0
  outer loop
    vertex -2.333 5.514 0
    vertex -2.0220000000000002 5.647 0
    vertex -2.333 5.514 5
  endloop
endfacet
facet normal 0 0 -1
  outer loop
    vertex -2.333 5.514 0
    vertex -2.0220000000000002 7 0
    vertex -2.0220000000000002 5.647 0
  endloop
endfacet
facet normal 0.39320555815067065 -0.919450590863598 0
  outer loop
    vertex -2.333 5.514 5
    vertex -2.0220000000000002 5.647 0
    vertex -2.0220000000000002 5.647 5
  endloop
endfacet
facet normal 0 0 1
  outer loop
    vertex -2.333 5.514 5
    vertex -2.0220000000000002 5.647 5
    vertex -2.0220000000000002 7 5
  endloop
endfacet
facet normal 0.33971345383406976 0.9405289837554862 0
  outer loop
    vertex -2.0220000000000002 -5.639 0
    vertex -2.0220000000000002 -5.639 5
    vertex -1.687 -5.76 5
  endloop
endfacet
facet normal 0 0 -0.9999999999999999
  outer loop
    vertex -2.0220000000000002 -5.639 0
    vertex -1.687 -5.76 0
    vertex -1.687 -7 0
  endloop
endfacet
facet normal 0.33971345383406976 0.9405289837554862 0
  outer loop
    vertex -2.0220000000000002 -5.639 0
    vertex -1.687 -5.76 5
    vertex -1.687 -5.76 0
  endloop
endfacet
facet normal 0 0 0.9999999999999999
  outer loop
    vertex -2.0220000000000002 -5.639 5
    vertex -1.687 -7 5
    vertex -1.687 -5.76 5
  endloop
endfacet
facet normal 0 0 -1
  outer loop
    vertex -2.0220000000000002 5.647 0
    vertex -2.0220000000000002 7 0
    vertex -1.687 5.746 0
  endloop
endfacet
facet normal 0.28340597809649076 -0.9590000268921641 0
  outer loop
    vertex -2.0220000000000002 5.647 0
    vertex -1.687 5.746 0
    vertex -2.0220000000000002 5.647 5
  endloop
endfacet
facet normal 0.28340597809649076 -0.9590000268921641 0
  outer loop
    vertex -2.0220000000000002 5.647 5
    vertex -1.687 5.746 0
    vertex -1.687 5.746 5
  endloop
endfacet
facet normal 0 0 1
  outer loop
    vertex -2.0220000000000002 5.647 5
    vertex -1.687 5.746 5
    vertex -2.0220000000000002 7 5
  endloop
endfacet
facet normal 0 1 0
  outer loop
    vertex -2.0220000000000002 7 0
    vertex -2.0220000000000002 7 5
    vertex -1.364 7 5
  endloop
endfacet
facet normal 0 0 -1
  outer loop
    vertex -2.0220000000000002 7 0
    vertex -1.364 7 0
    vertex -1.687 5.746 0
  endloop
endfacet
facet normal 0 1 0
  outer loop
    vertex -2.0220000000000002 7 0
    vertex -1.364 7 5
    vertex -1.364 7 0
  endloop
endfacet
facet normal 0 0 1
  outer loop
    vertex -2.0220000000000002 7 5
    vertex -1.687 5.746 5
    vertex -1.364 7 5
  endloop
endfacet
facet normal 0 0 -0.9999999999999999
  outer loop
    vertex -1.687 -7 0
    vertex -1.687 -5.76 0
    vertex -1.364 -5.832 0
  endloop
endfacet
facet normal 0 0 -1
  outer loop
    vertex -1.687 -7 0
    vertex -1.364 -5.832 0
    vertex -1.029 -7 0
  endloop
endfacet
facet normal 0 -1 0
  outer loop
    vertex -1.687 -7 0
    vertex -1.029 -7 0
    vertex -1.687 -7 5
  endloop
endfacet
facet normal 0 0 0.9999999999999999
  outer loop
    vertex -1.687 -7 5
    vertex -1.364 -5.832 5
    vertex -1.687 -5.76 5
  endloop
endfacet
facet normal 0 -1 0
  outer loop
    vertex -1.687 -7 5
    vertex -1.029 -7 0
    vertex -1.029 -7 5
  endloop
endfacet
facet normal 0 0 1
  outer loop
    vertex -1.687 -7 5
    vertex -1.029 -7 5
    vertex -1.364 -5.832 5
  endloop
endfacet
facet normal 0.21757032392749923 0.9760446476191972 0
  outer loop
    vertex -1.687 -5.76 0
    vertex -1.687 -5.76 5
    vertex -1.364 -5.832 5
  endloop
endfacet
facet normal 0.21757032392749923 0.9760446476191972 0
  outer loop
    vertex -1.687 -5.76 0
    vertex -1.364 -5.832 5
    vertex -1.364 -5.832 0
  endloop
endfacet
facet normal 0.28489657335643465 -0.9585582624388367 0
  outer loop
    vertex -1.687 5.746 0
    vertex -1.364 5.8420000000000005 0
    vertex -1.687 5.746 5
  endloop
endfacet
facet normal 0 0 -0.9999999999999999
  outer loop
    vertex -1.687 5.746 0
    vertex -1.364 7 0
    vertex -1.364 5.8420000000000005 0
  endloop
endfacet
facet normal 0.28489657335643465 -0.9585582624388367 0
  outer loop
    vertex -1.687 5.746 5
    vertex -1.364 5.8420000000000005 0
    vertex -1.364 5.8420000000000005 5
  endloop
endfacet
facet normal 0 0 0.9999999999999999
  outer loop
    vertex -1.687 5.746 5
    vertex -1.364 5.8420000000000005 5
    vertex -1.364 7 5
  endloop
endfacet
facet normal 0.2156957775189868 0.9764606144440643 0
  outer loop
    vertex -1.364 -5.832 0
    vertex -1.364 -5.832 5
    vertex -1.029 -5.906 5
  endloop
endfacet
facet normal 0 0 -1
  outer loop
    vertex -1.364 -5.832 0
    vertex -1.029 -5.906 0
    vertex -1.029 -7 0
  endloop
endfacet
facet normal 0.2156957775189868 0.9764606144440643 0
  outer loop
    vertex -1.364 -5.832 0
    vertex -1.029 -5.906 5
    vertex -1.029 -5.906 0
  endloop
endfacet
facet normal 0 0 1
  outer loop
    vertex -1.364 -5.832 5
    vertex -1.029 -7 5
    vertex -1.029 -5.906 5
  endloop
endfacet
facet normal 0 0 -0.9999999999999999
  outer loop
    vertex -1.364 5.8420000000000005 0
    vertex -1.364 7 0
    vertex -1.029 5.898 0
  endloop
endfacet
facet normal 0.16487640938740172 -0.9863142347282219 0
  outer loop
    vertex -1.364 5.8420000000000005 0
    vertex -1.029 5.898 0
    vertex -1.364 5.8420000000000005 5
  endloop
endfacet
facet normal 0.16487640938740172 -0.9863142347282219 0
  outer loop
    vertex -1.364 5.8420000000000005 5
    vertex -1.029 5.898 0
    vertex -1.029 5.898 5
  endloop
endfacet
facet normal 0 0 0.9999999999999999
  outer loop
    vertex -1.364 5.8420000000000005 5
    vertex -1.029 5.898 5
    vertex -1.364 7 5
  endloop
endfacet
facet normal 0 1 0
  outer loop
    vertex -1.364 7 0
    vertex -1.364 7 5
    vertex -0.686 7 5
  endloop
endfacet
facet normal 0 0 -1
  outer loop
    vertex -1.364 7 0
    vertex -0.686 7 0
    vertex -1.029 5.898 0
  endloop
endfacet
facet normal 0 1 0
  outer loop
    vertex -1.364 7 0
    vertex -0.686 7 5
    vertex -0.686 7 0
  endloop
endfacet
facet normal 0 0 1
  outer loop
    vertex -1.364 7 5
    vertex -1.029 5.898 5
    vertex -0.686 7 5
  endloop
endfacet
facet normal 0 0 -1
  outer loop
    vertex -1.029 -7 0
    vertex -1.029 -5.906 0
    vertex -0.686 -5.945 0
  endloop
endfacet
facet normal 0 0 -0.9999999999999999
  outer loop
    vertex -1.029 -7 0
    vertex -0.686 -5.945 0
    vertex -0.343 -7 0
  endloop
endfacet
facet normal 0 -1 0
  outer loop
    vertex -1.029 -7 0
    vertex -0.343 -7 0
    vertex -1.029 -7 5
  endloop
endfacet
facet normal 0 0 1
  outer loop
    vertex -1.029 -7 5
    vertex -0.686 -5.945 5
    vertex -1.029 -5.906 5
  endloop
endfacet
facet normal 0 -1 0
  outer loop
    vertex -1.029 -7 5
    vertex -0.343 -7 0
    vertex -0.343 -7 5
  endloop
endfacet
facet normal 0 0 0.9999999999999999
  outer loop
    vertex -1.029 -7 5
    vertex -0.343 -7 5
    vertex -0.686 -5.945 5
  endloop
endfacet
facet normal 0.1129746845484854 0.9935978666699976 0
  outer loop
    vertex -1.029 -5.906 0
    vertex -1.029 -5.906 5
    vertex -0.686 -5.945 5
  endloop
endfacet
facet normal 0.11297468454848547 0.9935978666699976 0
  outer loop
    vertex -1.029 -5.906 0
    vertex -0.686 -5.945 5
    vertex -0.686 -5.945 0
  endloop
endfacet
facet normal 0.16393258887577014 -0.9864715435857679 0
  outer loop
    vertex -1.029 5.898 0
    vertex -0.686 5.955 0
    vertex -1.029 5.898 5
  endloop
endfacet
facet normal 0 0 -1
  outer loop
    vertex -1.029 5.898 0
    vertex -0.686 7 0
    vertex -0.686 5.955 0
  endloop
endfacet
facet normal 0.16393258887577022 -0.986471543585768 0
  outer loop
    vertex -1.029 5.898 5
    vertex -0.686 5.955 0
    vertex -0.686 5.955 5
  endloop
endfacet
facet normal 0 0 1
  outer loop
    vertex -1.029 5.898 5
    vertex -0.686 5.955 5
    vertex -0.686 7 5
  endloop
endfacet
facet normal 0.11297468454848286 0.9935978666699977 0
  outer loop
    vertex -0.686 -5.945 0
    vertex -0.686 -5.945 5
    vertex -0.343 -5.984 5
  endloop
endfacet
facet normal 0 0 -1
  outer loop
    vertex -0.686 -5.945 0
    vertex -0.343 -5.984 0
    vertex -0.343 -7 0
  endloop
endfacet
facet normal 0.11297468454848283 0.9935978666699978 0
  outer loop
    vertex -0.686 -5.945 0
    vertex -0.343 -5.984 5
    vertex -0.343 -5.984 0
  endloop
endfacet
facet normal 0 0 1
  outer loop
    vertex -0.686 -5.945 5
    vertex -0.343 -7 5
    vertex -0.343 -5.984 5
  endloop
endfacet
facet normal 0 0 -1
  outer loop
    vertex -0.686 5.955 0
    vertex -0.686 7 0
    vertex -0.343 5.978 0
  endloop
endfacet
facet normal 0.0669051452806674 -0.9977593404899664 0
  outer loop
    vertex -0.686 5.955 0
    vertex -0.343 5.978 0
    vertex -0.686 5.955 5
  endloop
endfacet
facet normal 0.06690514528066738 -0.9977593404899663 0
  outer loop
    vertex -0.686 5.955 5
    vertex -0.343 5.978 0
    vertex -0.343 5.978 5
  endloop
endfacet
facet normal 0 0 1
  outer loop
    vertex -0.686 5.955 5
    vertex -0.343 5.978 5
    vertex -0.686 7 5
  endloop
endfacet
facet normal 0 0.9999999999999999 0
  outer loop
    vertex -0.686 7 0
    vertex -0.686 7 5
    vertex 0 7 5
  endloop
endfacet
facet normal 0 0 -1
  outer loop
    vertex -0.686 7 0
    vertex 0 7 0
    vertex -0.343 5.978 0
  endloop
endfacet
facet normal 0 0.9999999999999999 0
  outer loop
    vertex -0.686 7 0
    vertex 0 7 5
    vertex 0 7 0
  endloop
endfacet
facet normal 0 0 1
  outer loop
    vertex -0.686 7 5
    vertex -0.343 5.978 5
    vertex 0 7 5
  endloop
endfacet
facet normal 0 0 -1
  outer loop
    vertex -0.343 -7 0
    vertex -0.343 -5.984 0
    vertex 0 -5.984 0
  endloop
endfacet
facet normal 0 0 -1
  outer loop
    vertex -0.343 -7 0
    vertex 0 -5.984 0
    vertex 0.343 -7 0
  endloop
endfacet
facet normal 0 -0.9999999999999999 0
  outer loop
    vertex -0.343 -7 0
    vertex 0.343 -7 0
    vertex -0.343 -7 5
  endloop
endfacet
facet normal 0 0 1
  outer loop
    vertex -0.343 -7 5
    vertex 0 -5.984 5
    vertex -0.343 -5.984 5
  endloop
endfacet
facet normal 0 -0.9999999999999999 0
  outer loop
    vertex -0.343 -7 5
    vertex 0.343 -7 0
    vertex 0.343 -7 5
  endloop
endfacet
facet normal 0 0 1
  outer loop
    vertex -0.343 -7 5
    vertex 0.343 -7 5
    vertex 0 -5.984 5
  endloop
endfacet
facet normal 0 0.9999999999999999 0
  outer loop
    vertex -0.343 -5.984 0
    vertex -0.343 -5.984 5
    vertex 0 -5.984 5
  endloop
endfacet
facet normal 0 0.9999999999999999 0
  outer loop
    vertex -0.343 -5.984 0
    vertex 0 -5.984 5
    vertex 0 -5.984 0
  endloop
endfacet
facet normal 0.06400841369191336 -0.9979493589239109 0
  outer loop
    vertex -0.343 5.978 0
    vertex 0 6 0
    vertex -0.343 5.978 5
  endloop
endfacet
facet normal 0 0 -1
  outer loop
    vertex -0.343 5.978 0
    vertex 0 7 0
    vertex 0 6 0
  endloop
endfacet
facet normal 0.06400841369191336 -0.9979493589239109 0
  outer loop
    vertex -0.343 5.978 5
    vertex 0 6 0
    vertex 0 6 5
  endloop
endfacet
facet normal 0 0 1
  outer loop
    vertex -0.343 5.978 5
    vertex 0 6 5
    vertex 0 7 5
  endloop
endfacet
facet normal 0 0.9999999999999999 0
  outer loop
    vertex 0 -5.984 0
    vertex 0 -5.984 5
    vertex 0.343 -5.984 5
  endloop
endfacet
facet normal 0 0 -1
  outer loop
    vertex 0 -5.984 0
    vertex 0.343 -5.984 0
    vertex 0.343 -7 0
  endloop
endfacet
facet normal 0 0.9999999999999999 0
  outer loop
    vertex 0 -5.984 0
    vertex 0.343 -5.984 5
    vertex 0.343 -5.984 0
  endloop
endfacet
facet normal 0 0 1
  outer loop
    vertex 0 -5.984 5
    vertex 0.343 -7 5
    vertex 0.343 -5.984 5
  endloop
endfacet
facet normal 0 0 -1
  outer loop
    vertex 0 6 0
    vertex 0 7 0
    vertex 0.343 5.978 0
  endloop
endfacet
facet normal -0.06400841369191336 -0.9979493589239109 0
  outer loop
    vertex 0 6 0
    vertex 0.343 5.978 0
    vertex 0 6 5
  endloop
endfacet
facet normal -0.06400841369191336 -0.9979493589239109 0
  outer loop
    vertex 0 6 5
    vertex 0.343 5.978 0
    vertex 0.343 5.978 5
  endloop
endfacet
facet normal 0 0 1
  outer loop
    vertex 0 6 5
    vertex 0.343 5.978 5
    vertex 0 7 5
  endloop
endfacet
facet normal 0 0.9999999999999999 0
  outer loop
    vertex 0 7 0
    vertex 0 7 5
    vertex 0.686 7 5
  endloop
endfacet
facet normal 0 0 -1
  outer loop
    vertex 0 7 0
    vertex 0.686 7 0
    vertex 0.343 5.978 0
  endloop
endfacet
facet normal 0 0.9999999999999999 0
  outer loop
    vertex 0 7 0
    vertex 0.686 7 5
    vertex 0.686 7 0
  endloop
endfacet
facet normal 0 0 1
  outer loop
    vertex 0 7 5
    vertex 0.343 5.978 5
    vertex 0.686 7 5
  endloop
endfacet
facet normal 0 0 -1
  outer loop
    vertex 0.343 -7 0
    vertex 0.343 -5.984 0
    vertex 0.686 -5.945 0
  endloop
endfacet
facet normal 0 0 -0.9999999999999999
  outer loop
    vertex 0.343 -7 0
    vertex 0.686 -5.945 0
    vertex 1.029 -7 0
  endloop
endfacet
facet normal 0 -1 0
  outer loop
    vertex 0.343 -7 0
    vertex 1.029 -7 0
    vertex 0.343 -7 5
  endloop
endfacet
facet normal 0 0 1
  outer loop
    vertex 0.343 -7 5
    vertex 0.686 -5.945 5
    vertex 0.343 -5.984 5
  endloop
endfacet
facet normal 0 -1 0
  outer loop
    vertex 0.343 -7 5
    vertex 1.029 -7 0
    vertex 1.029 -7 5
  endloop
endfacet
facet normal 0 0 0.9999999999999999
  outer loop
    vertex 0.343 -7 5
    vertex 1.029 -7 5
    vertex 0.686 -5.945 5
  endloop
endfacet
facet normal -0.11297468454848283 0.9935978666699978 0
  outer loop
    vertex 0.343 -5.984 0
    vertex 0.343 -5.984 5
    vertex 0.686 -5.945 5
  endloop
endfacet
facet normal -0.11297468454848286 0.9935978666699977 0
  outer loop
    vertex 0.343 -5.984 0
    vertex 0.686 -5.945 5
    vertex 0.686 -5.945 0
  endloop
endfacet
facet normal -0.06690514528066738 -0.9977593404899663 0
  outer loop
    vertex 0.343 5.978 0
    vertex 0.686 5.955 0
    vertex 0.343 5.978 5
  endloop
endfacet
facet normal 0 0 -1
  outer loop
    vertex 0.343 5.978 0
    vertex 0.686 7 0
    vertex 0.686 5.955 0
  endloop
endfacet
facet normal -0.0669051452806674 -0.9977593404899664 0
  outer loop
    vertex 0.343 5.978 5
    vertex 0.686 5.955 0
    vertex 0.686 5.955 5
  endloop
endfacet
facet normal 0 0 1
  outer loop
    vertex 0.343 5.978 5
    vertex 0.686 5.955 5
    vertex 0.686 7 5
  endloop
endfacet
facet normal -0.11297468454848547 0.9935978666699976 0
  outer loop
    vertex 0.686 -5.945 0
    vertex 0.686 -5.945 5
    vertex 1.029 -5.906 5
  endloop
endfacet
facet normal 0 0 -1
  outer loop
    vertex 0.686 -5.945 0
    vertex 1.029 -5.906 0
    vertex 1.029 -7 0
  endloop
endfacet
facet normal -0.1129746845484854 0.9935978666699976 0
  outer loop
    vertex 0.686 -5.945 0
    vertex 1.029 -5.906 5
    vertex 1.029 -5.906 0
  endloop
endfacet
facet normal 0 0 1
  outer loop
    vertex 0.686 -5.945 5
    vertex 1.029 -7 5
    vertex 1.029 -5.906 5
  endloop
endfacet
facet normal 0 0 -1
  outer loop
    vertex 0.686 5.955 0
    vertex 0.686 7 0
    vertex 1.029 5.898 0
  endloop
endfacet
facet normal -0.16393258887577022 -0.986471543585768 0
  outer loop
    vertex 0.686 5.955 0
    vertex 1.029 5.898 0
    vertex 0.686 5.955 5
  endloop
endfacet
facet normal -0.16393258887577014 -0.9864715435857679 0
  outer loop
    vertex 0.686 5.955 5
    vertex 1.029 5.898 0
    vertex 1.029 5.898 5
  endloop
endfacet
facet normal 0 0 1
  outer loop
    vertex 0.686 5.955 5
    vertex 1.029 5.898 5
    vertex 0.686 7 5
  endloop
endfacet
facet normal 0 1 0
  outer loop
    vertex 0.686 7 0
    vertex 0.686 7 5
    vertex 1.364 7 5
  endloop
endfacet
facet normal 0 0 -1
  outer loop
    vertex 0.686 7 0
    vertex 1.364 7 0
    vertex 1.029 5.898 0
  endloop
endfacet
facet normal 0 1 0
  outer loop
    vertex 0.686 7 0
    vertex 1.364 7 5
    vertex 1.364 7 0
  endloop
endfacet
facet normal 0 0 1
  outer loop
    vertex 0.686 7 5
    vertex 1.029 5.898 5
    vertex 1.364 7 5
  endloop
endfacet
facet normal 0 0 -1
  outer loop
    vertex 1.029 -7 0
    vertex 1.029 -5.906 0
    vertex 1.364 -5.832 0
  endloop
endfacet
facet normal 0 0 -1
  outer loop
    vertex 1.029 -7 0
    vertex 1.364 -5.832 0
    vertex 1.688 -7 0
  endloop
endfacet
facet normal 0 -1 0
  outer loop
    vertex 1.029 -7 0
    vertex 1.688 -7 0
    vertex 1.029 -7 5
  endloop
endfacet
facet normal 0 0 1
  outer loop
    vertex 1.029 -7 5
    vertex 1.364 -5.832 5
    vertex 1.029 -5.906 5
  endloop
endfacet
facet normal 0 -1 0
  outer loop
    vertex 1.029 -7 5
    vertex 1.688 -7 0
    vertex 1.688 -7 5
  endloop
endfacet
facet normal 0 0 1
  outer loop
    vertex 1.029 -7 5
    vertex 1.688 -7 5
    vertex 1.364 -5.832 5
  endloop
endfacet
facet normal -0.2156957775189868 0.9764606144440643 0
  outer loop
    vertex 1.029 -5.906 0
    vertex 1.029 -5.906 5
    vertex 1.364 -5.832 5
  endloop
endfacet
facet normal -0.2156957775189868 0.9764606144440643 0
  outer loop
    vertex 1.029 -5.906 0
    vertex 1.364 -5.832 5
    vertex 1.364 -5.832 0
  endloop
endfacet
facet normal -0.16487640938740172 -0.9863142347282219 0
  outer loop
    vertex 1.029 5.898 0
    vertex 1.364 5.8420000000000005 0
    vertex 1.029 5.898 5
  endloop
endfacet
facet normal 0 0 -0.9999999999999999
  outer loop
    vertex 1.029 5.898 0
    vertex 1.364 7 0
    vertex 1.364 5.8420000000000005 0
  endloop
endfacet
facet normal -0.16487640938740172 -0.9863142347282219 0
  outer loop
    vertex 1.029 5.898 5
    vertex 1.364 5.8420000000000005 0
    vertex 1.364 5.8420000000000005 5
  endloop
endfacet
facet normal 0 0 0.9999999999999999
  outer loop
    vertex 1.029 5.898 5
    vertex 1.364 5.8420000000000005 5
    vertex 1.364 7 5
  endloop
endfacet
facet normal -0.21693045781865647 0.9761870601839527 0
  outer loop
    vertex 1.364 -5.832 0
    vertex 1.364 -5.832 5
    vertex 1.688 -5.76 5
  endloop
endfacet
facet normal 0 0 -1
  outer loop
    vertex 1.364 -5.832 0
    vertex 1.688 -5.76 0
    vertex 1.688 -7 0
  endloop
endfacet
facet normal -0.21693045781865647 0.9761870601839527 0
  outer loop
    vertex 1.364 -5.832 0
    vertex 1.688 -5.76 5
    vertex 1.688 -5.76 0
  endloop
endfacet
facet normal 0 0 1
  outer loop
    vertex 1.364 -5.832 5
    vertex 1.688 -7 5
    vertex 1.688 -5.76 5
  endloop
endfacet
facet normal 0 0 -1
  outer loop
    vertex 1.364 5.8420000000000005 0
    vertex 1.364 7 0
    vertex 1.688 5.746 0
  endloop
endfacet
facet normal -0.2840883296913743 -0.9587981127083871 0
  outer loop
    vertex 1.364 5.8420000000000005 0
    vertex 1.688 5.746 0
    vertex 1.364 5.8420000000000005 5
  endloop
endfacet
facet normal -0.2840883296913743 -0.9587981127083871 0
  outer loop
    vertex 1.364 5.8420000000000005 5
    vertex 1.688 5.746 0
    vertex 1.688 5.746 5
  endloop
endfacet
facet normal 0 0 1
  outer loop
    vertex 1.364 5.8420000000000005 5
    vertex 1.688 5.746 5
    vertex 1.364 7 5
  endloop
endfacet
facet normal 0 1 0
  outer loop
    vertex 1.364 7 0
    vertex 1.364 7 5
    vertex 2.0220000000000002 7 5
  endloop
endfacet
facet normal 0 0 -1
  outer loop
    vertex 1.364 7 0
    vertex 2.0220000000000002 7 0
    vertex 1.688 5.746 0
  endloop
endfacet
facet normal 0 1 0
  outer loop
    vertex 1.364 7 0
    vertex 2.0220000000000002 7 5
    vertex 2.0220000000000002 7 0
  endloop
endfacet
facet normal 0 0 1
  outer loop
    vertex 1.364 7 5
    vertex 1.688 5.746 5
    vertex 2.0220000000000002 7 5
  endloop
endfacet
facet normal 0 0 -1
  outer loop
    vertex 1.688 -7 0
    vertex 1.688 -5.76 0
    vertex 2.0220000000000002 -5.639 0
  endloop
endfacet
facet normal 0 0 -1
  outer loop
    vertex 1.688 -7 0
    vertex 2.0220000000000002 -5.639 0
    vertex 2.333 -7 0
  endloop
endfacet
facet normal 0 -1 0
  outer loop
    vertex 1.688 -7 0
    vertex 2.333 -7 0
    vertex 1.688 -7 5
  endloop
endfacet
facet normal 0 0 1
  outer loop
    vertex 1.688 -7 5
    vertex 2.0220000000000002 -5.639 5
    vertex 1.688 -5.76 5
  endloop
endfacet
facet normal 0 -1 0
  outer loop
    vertex 1.688 -7 5
    vertex 2.333 -7 0
    vertex 2.333 -7 5
  endloop
endfacet
facet normal 0 0 1
  outer loop
    vertex 1.688 -7 5
    vertex 2.333 -7 5
    vertex 2.0220000000000002 -5.639 5
  endloop
endfacet
facet normal -0.34061271410039523 0.9402036901614259 0
  outer loop
    vertex 1.688 -5.76 0
    vertex 1.688 -5.76 5
    vertex 2.0220000000000002 -5.639 5
  endloop
endfacet
facet normal -0.34061271410039523 0.9402036901614259 0
  outer loop
    vertex 1.688 -5.76 0
    vertex 2.0220000000000002 -5.639 5
    vertex 2.0220000000000002 -5.639 0
  endloop
endfacet
facet normal -0.2841860650255434 -0.9587691486720344 0
  outer loop
    vertex 1.688 5.746 0
    vertex 2.0220000000000002 5.647 0
    vertex 1.688 5.746 5
  endloop
endfacet
facet normal 0 0 -1
  outer loop
    vertex 1.688 5.746 0
    vertex 2.0220000000000002 7 0
    vertex 2.0220000000000002 5.647 0
  endloop
endfacet
facet normal -0.2841860650255434 -0.9587691486720344 0
  outer loop
    vertex 1.688 5.746 5
    vertex 2.0220000000000002 5.647 0
    vertex 2.0220000000000002 5.647 5
  endloop
endfacet
facet normal 0 0 1
  outer loop
    vertex 1.688 5.746 5
    vertex 2.0220000000000002 5.647 5
    vertex 2.0220000000000002 7 5
  endloop
endfacet
facet normal -0.3415003991283244 0.9398816294593669 0
  outer loop
    vertex 2.0220000000000002 -5.639 0
    vertex 2.0220000000000002 -5.639 5
    vertex 2.333 -5.526 5
  endloop
endfacet
facet normal 0 0 -1
  outer loop
    vertex 2.0220000000000002 -5.639 0
    vertex 2.333 -5.526 0
    vertex 2.333 -7 0
  endloop
endfacet
facet normal -0.3415003991283244 0.9398816294593669 0
  outer loop
    vertex 2.0220000000000002 -5.639 0
    vertex 2.333 -5.526 5
    vertex 2.333 -5.526 0
  endloop
endfacet
facet normal 0 0 1
  outer loop
    vertex 2.0220000000000002 -5.639 5
    vertex 2.333 -7 5
    vertex 2.333 -5.526 5
  endloop
endfacet
facet normal 0 0 -1
  outer loop
    vertex 2.0220000000000002 5.647 0
    vertex 2.0220000000000002 7 0
    vertex 2.333 5.514 0
  endloop
endfacet
facet normal -0.39320555815067065 -0.919450590863598 0
  outer loop
    vertex 2.0220000000000002 5.647 0
    vertex 2.333 5.514 0
    vertex 2.0220000000000002 5.647 5
  endloop
endfacet
facet normal -0.39320555815067065 -0.919450590863598 0
  outer loop
    vertex 2.0220000000000002 5.647 5
    vertex 2.333 5.514 0
    vertex 2.333 5.514 5
  endloop
endfacet
facet normal 0 0 1
  outer loop
    vertex 2.0220000000000002 5.647 5
    vertex 2.333 5.514 5
    vertex 2.0220000000000002 7 5
  endloop
endfacet
facet normal 0 1 0
  outer loop
    vertex 2.0220000000000002 7 0
    vertex 2.0220000000000002 7 5
    vertex 2.6470000000000002 7 5
  endloop
endfacet
facet normal 0 0 -1
  outer loop
    vertex 2.0220000000000002 7 0
    vertex 2.6470000000000002 7 0
    vertex 2.333 5.514 0
  endloop
endfacet
facet normal 0 1 0
  outer loop
    vertex 2.0220000000000002 7 0
    vertex 2.6470000000000002 7 5
    vertex 2.6470000000000002 7 0
  endloop
endfacet
facet normal 0 0 1
  outer loop
    vertex 2.0220000000000002 7 5
    vertex 2.333 5.514 5
    vertex 2.6470000000000002 7 5
  endloop
endfacet
facet normal 0 0 -0.9999999999999999
  outer loop
    vertex 2.333 -7 0
    vertex 2.333 -5.526 0
    vertex 2.6470000000000002 -5.372 0
  endloop
endfacet
facet normal 0 0 -1
  outer loop
    vertex 2.333 -7 0
    vertex 2.6470000000000002 -5.372 0
    vertex 2.945 -7 0
  endloop
endfacet
facet normal 0 -0.9999999999999999 0
  outer loop
    vertex 2.333 -7 0
    vertex 2.945 -7 0
    vertex 2.333 -7 5
  endloop
endfacet
facet normal 0 0 0.9999999999999999
  outer loop
    vertex 2.333 -7 5
    vertex 2.6470000000000002 -5.372 5
    vertex 2.333 -5.526 5
  endloop
endfacet
facet normal 0 -0.9999999999999999 0
  outer loop
    vertex 2.333 -7 5
    vertex 2.945 -7 0
    vertex 2.945 -7 5
  endloop
endfacet
facet normal 0 0 1
  outer loop
    vertex 2.333 -7 5
    vertex 2.945 -7 5
    vertex 2.6470000000000002 -5.372 5
  endloop
endfacet
facet normal -0.44033802177281667 0.8978320703679515 0
  outer loop
    vertex 2.333 -5.526 0
    vertex 2.333 -5.526 5
    vertex 2.6470000000000002 -5.372 5
  endloop
endfacet
facet normal -0.44033802177281667 0.8978320703679515 0
  outer loop
    vertex 2.333 -5.526 0
    vertex 2.6470000000000002 -5.372 5
    vertex 2.6470000000000002 -5.372 0
  endloop
endfacet
facet normal -0.3949783659098461 -0.9186904214495696 0
  outer loop
    vertex 2.333 5.514 0
    vertex 2.6470000000000002 5.3790000000000004 0
    vertex 2.333 5.514 5
  endloop
endfacet
facet normal 0 0 -0.9999999999999999
  outer loop
    vertex 2.333 5.514 0
    vertex 2.6470000000000002 7 0
    vertex 2.6470000000000002 5.3790000000000004 0
  endloop
endfacet
facet normal -0.3949783659098461 -0.9186904214495696 0
  outer loop
    vertex 2.333 5.514 5
    vertex 2.6470000000000002 5.3790000000000004 0
    vertex 2.6470000000000002 5.3790000000000004 5
  endloop
endfacet
facet normal 0 0 0.9999999999999999
  outer loop
    vertex 2.333 5.514 5
    vertex 2.6470000000000002 5.3790000000000004 5
    vertex 2.6470000000000002 7 5
  endloop
endfacet
facet normal -0.4399666466901578 0.898014114477171 0
  outer loop
    vertex 2.6470000000000002 -5.372 0
    vertex 2.6470000000000002 -5.372 5
    vertex 2.945 -5.226 5
  endloop
endfacet
facet normal 0 0 -0.9999999999999999
  outer loop
    vertex 2.6470000000000002 -5.372 0
    vertex 2.945 -5.226 0
    vertex 2.945 -7 0
  endloop
endfacet
facet normal -0.4399666466901578 0.898014114477171 0
  outer loop
    vertex 2.6470000000000002 -5.372 0
    vertex 2.945 -5.226 5
    vertex 2.945 -5.226 0
  endloop
endfacet
facet normal 0 0 0.9999999999999999
  outer loop
    vertex 2.6470000000000002 -5.372 5
    vertex 2.945 -7 5
    vertex 2.945 -5.226 5
  endloop
endfacet
facet normal 0 0 -1
  outer loop
    vertex 2.6470000000000002 5.3790000000000004 0
    vertex 2.6470000000000002 7 0
    vertex 2.945 5.216 0
  endloop
endfacet
facet normal -0.47988316179753365 -0.8773324062310716 0
  outer loop
    vertex 2.6470000000000002 5.3790000000000004 0
    vertex 2.945 5.216 0
    vertex 2.6470000000000002 5.3790000000000004 5
  endloop
endfacet
facet normal -0.47988316179753365 -0.8773324062310716 0
  outer loop
    vertex 2.6470000000000002 5.3790000000000004 5
    vertex 2.945 5.216 0
    vertex 2.945 5.216 5
  endloop
endfacet
facet normal 0 0 1
  outer loop
    vertex 2.6470000000000002 5.3790000000000004 5
    vertex 2.945 5.216 5
    vertex 2.6470000000000002 7 5
  endloop
endfacet
facet normal 0 1 0
  outer loop
    vertex 2.6470000000000002 7 0
    vertex 2.6470000000000002 7 5
    vertex 3.243 7 5
  endloop
endfacet
facet normal 0 0 -1
  outer loop
    vertex 2.6470000000000002 7 0
    vertex 3.243 7 0
    vertex 2.945 5.216 0
  endloop
endfacet
facet normal 0 1 0
  outer loop
    vertex 2.6470000000000002 7 0
    vertex 3.243 7 5
    vertex 3.243 7 0
  endloop
endfacet
facet normal 0 0 1
  outer loop
    vertex 2.6470000000000002 7 5
    vertex 2.945 5.216 5
    vertex 3.243 7 5
  endloop
endfacet
facet normal 0 0 -1
  outer loop
    vertex 2.945 -7 0
    vertex 2.945 -5.226 0
    vertex 3.243 -5.038 0
  endloop
endfacet
facet normal 0 0 -0.9999999999999999
  outer loop
    vertex 2.945 -7 0
    vertex 3.243 -5.038 0
    vertex 3.529 -7 0
  endloop
endfacet
facet normal 0 -1 0
  outer loop
    vertex 2.945 -7 0
    vertex 3.529 -7 0
    vertex 2.945 -7 5
  endloop
endfacet
facet normal 3.360162903763248e-15 0 1
  outer loop
    vertex 2.945 -7 5
    vertex 3.243 -5.038 5
    vertex 2.945 -5.226 5
  endloop
endfacet
facet normal 0 -1 0
  outer loop
    vertex 2.945 -7 5
    vertex 3.529 -7 0
    vertex 3.529 -7 5
  endloop
endfacet
facet normal 0 0 0.9999999999999999
  outer loop
    vertex 2.945 -7 5
    vertex 3.529 -7 5
    vertex 3.243 -5.038 5
  endloop
endfacet
facet normal -0.5335658008469891 0.8457585566617172 0
  outer loop
    vertex 2.945 -5.226 0
    vertex 2.945 -5.226 5
    vertex 3.243 -5.038 5
  endloop
endfacet
facet normal -0.5335658008469883 0.8457585566617178 0
  outer loop
    vertex 2.945 -5.226 0
    vertex 3.243 -5.038 5
    vertex 3.243 -5.038 0
  endloop
endfacet
facet normal -0.47988316179753365 -0.8773324062310716 0
  outer loop
    vertex 2.945 5.216 0
    vertex 3.243 5.053 0
    vertex 2.945 5.216 5
  endloop
endfacet
facet normal 0 0 -1
  outer loop
    vertex 2.945 5.216 0
    vertex 3.243 7 0
    vertex 3.243 5.053 0
  endloop
endfacet
facet normal -0.4798831617975329 -0.8773324062310721 0
  outer loop
    vertex 2.945 5.216 5
    vertex 3.243 5.053 0
    vertex 3.243 5.053 5
  endloop
endfacet
facet normal 0 0 1
  outer loop
    vertex 2.945 5.216 5
    vertex 3.243 5.053 5
    vertex 3.243 7 5
  endloop
endfacet
facet normal -0.5347708903820697 0.8449970975097892 0
  outer loop
    vertex 3.243 -5.038 0
    vertex 3.243 -5.038 5
    vertex 3.529 -4.857 5
  endloop
endfacet
facet normal 0 0 -1
  outer loop
    vertex 3.243 -5.038 0
    vertex 3.529 -4.857 0
    vertex 3.529 -7 0
  endloop
endfacet
facet normal -0.5347708903820697 0.8449970975097892 0
  outer loop
    vertex 3.243 -5.038 0
    vertex 3.529 -4.857 5
    vertex 3.529 -4.857 0
  endloop
endfacet
facet normal 0 0 1
  outer loop
    vertex 3.243 -5.038 5
    vertex 3.529 -7 5
    vertex 3.529 -4.857 5
  endloop
endfacet
facet normal 0 0 -1
  outer loop
    vertex 3.243 5.053 0
    vertex 3.243 7 0
    vertex 3.529 4.843 0
  endloop
endfacet
facet normal -0.5918522852315748 -0.8060464456010971 0
  outer loop
    vertex 3.243 5.053 0
    vertex 3.529 4.843 0
    vertex 3.243 5.053 5
  endloop
endfacet
facet normal -0.5918522852315748 -0.8060464456010971 0
  outer loop
    vertex 3.243 5.053 5
    vertex 3.529 4.843 0
    vertex 3.529 4.843 5
  endloop
endfacet
facet normal 0 0 1
  outer loop
    vertex 3.243 5.053 5
    vertex 3.529 4.843 5
    vertex 3.243 7 5
  endloop
endfacet
facet normal 0 0.9999999999999999 0
  outer loop
    vertex 3.243 7 0
    vertex 3.243 7 5
    vertex 3.8000000000000003 7 5
  endloop
endfacet
facet normal 0 0 -1
  outer loop
    vertex 3.243 7 0
    vertex 3.8000000000000003 7 0
    vertex 3.529 4.843 0
  endloop
endfacet
facet normal 0 1 0
  outer loop
    vertex 3.243 7 0
    vertex 3.8000000000000003 7 5
    vertex 3.8000000000000003 7 0
  endloop
endfacet
facet normal 0 0 1
  outer loop
    vertex 3.243 7 5
    vertex 3.529 4.843 5
    vertex 3.8000000000000003 7 5
  endloop
endfacet
facet normal 0 0 -1
  outer loop
    vertex 3.529 -7 0
    vertex 3.529 -4.857 0
    vertex 3.8000000000000003 -4.634 0
  endloop
endfacet
facet normal 0 0 -1
  outer loop
    vertex 3.529 -7 0
    vertex 3.8000000000000003 -4.634 0
    vertex 4.059 -7 0
  endloop
endfacet
facet normal 0 -1 0
  outer loop
    vertex 3.529 -7 0
    vertex 4.059 -7 0
    vertex 3.529 -7 5
  endloop
endfacet
facet normal 3.058713152407732e-15 0 1
  outer loop
    vertex 3.529 -7 5
    vertex 3.8000000000000003 -4.634 5
    vertex 3.529 -4.857 5
  endloop
endfacet
facet normal 0 -1 0
  outer loop
    vertex 3.529 -7 5
    vertex 4.059 -7 0
    vertex 4.059 -7 5
  endloop
endfacet
facet normal 0 0 1
  outer loop
    vertex 3.529 -7 5
    vertex 4.059 -7 5
    vertex 3.8000000000000003 -4.634 5
  endloop
endfacet
facet normal -0.6354075814086961 0.7721769262859071 0
  outer loop
    vertex 3.529 -4.857 0
    vertex 3.529 -4.857 5
    vertex 3.8000000000000003 -4.634 5
  endloop
endfacet
facet normal -0.6354075814086981 0.7721769262859054 0
  outer loop
    vertex 3.529 -4.857 0
    vertex 3.8000000000000003 -4.634 5
    vertex 3.8000000000000003 -4.634 0
  endloop
endfacet
facet normal -0.5899418837155347 -0.8074457095298523 0
  outer loop
    vertex 3.529 4.843 0
    vertex 3.8000000000000003 4.6450000000000005 0
    vertex 3.529 4.843 5
  endloop
endfacet
facet normal 0 0 -1
  outer loop
    vertex 3.529 4.843 0
    vertex 3.8000000000000003 7 0
    vertex 3.8000000000000003 4.6450000000000005 0
  endloop
endfacet
facet normal -0.5899418837155368 -0.807445709529851 0
  outer loop
    vertex 3.529 4.843 5
    vertex 3.8000000000000003 4.6450000000000005 0
    vertex 3.8000000000000003 4.6450000000000005 5
  endloop
endfacet
facet normal 0 0 1
  outer loop
    vertex 3.529 4.843 5
    vertex 3.8000000000000003 4.6450000000000005 5
    vertex 3.8000000000000003 7 5
  endloop
endfacet
facet normal -0.6351844734021939 0.7723604629632318 0
  outer loop
    vertex 3.8000000000000003 -4.634 0
    vertex 3.8000000000000003 -4.634 5
    vertex 4.059 -4.421 5
  endloop
endfacet
facet normal 0 0 -0.9999999999999999
  outer loop
    vertex 3.8000000000000003 -4.634 0
    vertex 4.059 -4.421 0
    vertex 4.059 -7 0
  endloop
endfacet
facet normal -0.6351844734021939 0.7723604629632318 0
  outer loop
    vertex 3.8000000000000003 -4.634 0
    vertex 4.059 -4.421 5
    vertex 4.059 -4.421 0
  endloop
endfacet
facet normal 0 0 0.9999999999999999
  outer loop
    vertex 3.8000000000000003 -4.634 5
    vertex 4.059 -7 5
    vertex 4.059 -4.421 5
  endloop
endfacet
facet normal 0 0 -1
  outer loop
    vertex 3.8000000000000003 4.6450000000000005 0
    vertex 3.8000000000000003 7 0
    vertex 4.059 4.409 0
  endloop
endfacet
facet normal -0.6735246490621353 -0.7391647631656474 0
  outer loop
    vertex 3.8000000000000003 4.6450000000000005 0
    vertex 4.059 4.409 0
    vertex 3.8000000000000003 4.6450000000000005 5
  endloop
endfacet
facet normal -0.6735246490621353 -0.7391647631656474 0
  outer loop
    vertex 3.8000000000000003 4.6450000000000005 5
    vertex 4.059 4.409 0
    vertex 4.059 4.409 5
  endloop
endfacet
facet normal 0 0 1
  outer loop
    vertex 3.8000000000000003 4.6450000000000005 5
    vertex 4.059 4.409 5
    vertex 3.8000000000000003 7 5
  endloop
endfacet
facet normal 0 1 0
  outer loop
    vertex 3.8000000000000003 7 0
    vertex 3.8000000000000003 7 5
    vertex 4.308 7 5
  endloop
endfacet
facet normal 0 0 -1
  outer loop
    vertex 3.8000000000000003 7 0
    vertex 4.308 7 0
    vertex 4.059 4.409 0
  endloop
endfacet
facet normal 0 1 0
  outer loop
    vertex 3.8000000000000003 7 0
    vertex 4.308 7 5
    vertex 4.308 7 0
  endloop
endfacet
facet normal 0 0 1
  outer loop
    vertex 3.8000000000000003 7 5
    vertex 4.059 4.409 5
    vertex 4.308 7 5
  endloop
endfacet
facet normal 0 0 -1
  outer loop
    vertex 4.059 -7 0
    vertex 4.059 -4.421 0
    vertex 4.308 -4.166 0
  endloop
endfacet
facet normal 0 0 -1
  outer loop
    vertex 4.059 -7 0
    vertex 4.308 -4.166 0
    vertex 4.537 -7 0
  endloop
endfacet
facet normal 0 -1 0
  outer loop
    vertex 4.059 -7 0
    vertex 4.537 -7 0
    vertex 4.059 -7 5
  endloop
endfacet
facet normal 2.7661741800863824e-15 0 1
  outer loop
    vertex 4.059 -7 5
    vertex 4.308 -4.166 5
    vertex 4.059 -4.421 5
  endloop
endfacet
facet normal 0 -1 0
  outer loop
    vertex 4.059 -7 5
    vertex 4.537 -7 0
    vertex 4.537 -7 5
  endloop
endfacet
facet normal 0 0 1
  outer loop
    vertex 4.059 -7 5
    vertex 4.537 -7 5
    vertex 4.308 -4.166 5
  endloop
endfacet
facet normal -0.7154740211643115 0.6986393383133893 0
  outer loop
    vertex 4.059 -4.421 0
    vertex 4.059 -4.421 5
    vertex 4.308 -4.166 5
  endloop
endfacet
facet normal -0.7154740211643155 0.6986393383133852 0
  outer loop
    vertex 4.059 -4.421 0
    vertex 4.308 -4.166 5
    vertex 4.308 -4.166 0
  endloop
endfacet
facet normal -0.6737061909391046 -0.7389993019552339 0
  outer loop
    vertex 4.059 4.409 0
    vertex 4.308 4.182 0
    vertex 4.059 4.409 5
  endloop
endfacet
facet normal 0 0 -1
  outer loop
    vertex 4.059 4.409 0
    vertex 4.308 7 0
    vertex 4.308 4.182 0
  endloop
endfacet
facet normal -0.6737061909391088 -0.73899930195523 0
  outer loop
    vertex 4.059 4.409 5
    vertex 4.308 4.182 0
    vertex 4.308 4.182 5
  endloop
endfacet
facet normal 5.0631392551048915e-15 0 1
  outer loop
    vertex 4.059 4.409 5
    vertex 4.308 4.182 5
    vertex 4.308 7 5
  endloop
endfacet
facet normal -0.7161905281589533 0.6979048125463809 0
  outer loop
    vertex 4.308 -4.166 0
    vertex 4.308 -4.166 5
    vertex 4.537 -3.931 5
  endloop
endfacet
facet normal 0 0 -1
  outer loop
    vertex 4.308 -4.166 0
    vertex 4.537 -3.931 0
    vertex 4.537 -7 0
  endloop
endfacet
facet normal -0.7161905281589512 0.6979048125463833 0
  outer loop
    vertex 4.308 -4.166 0
    vertex 4.537 -3.931 5
    vertex 4.537 -3.931 0
  endloop
endfacet
facet normal 0 0 1
  outer loop
    vertex 4.308 -4.166 5
    vertex 4.537 -7 5
    vertex 4.537 -3.931 5
  endloop
endfacet
facet normal 0 0 -1
  outer loop
    vertex 4.308 4.182 0
    vertex 4.308 7 0
    vertex 4.537 3.915 0
  endloop
endfacet
facet normal -0.7590558905542139 -0.651025464183199 0
  outer loop
    vertex 4.308 4.182 0
    vertex 4.537 3.915 0
    vertex 4.308 4.182 5
  endloop
endfacet
facet normal -0.7590558905542117 -0.6510254641832013 0
  outer loop
    vertex 4.308 4.182 5
    vertex 4.537 3.915 0
    vertex 4.537 3.915 5
  endloop
endfacet
facet normal 0 0 1
  outer loop
    vertex 4.308 4.182 5
    vertex 4.537 3.915 5
    vertex 4.308 7 5
  endloop
endfacet
facet normal 0 1 0
  outer loop
    vertex 4.308 7 0
    vertex 4.308 7 5
    vertex 4.75 7 5
  endloop
endfacet
facet normal 0 0 -1
  outer loop
    vertex 4.308 7 0
    vertex 4.75 7 0
    vertex 4.537 3.915 0
  endloop
endfacet
facet normal 0 1 0
  outer loop
    vertex 4.308 7 0
    vertex 4.75 7 5
    vertex 4.75 7 0
  endloop
endfacet
facet normal 0 0 1
  outer loop
    vertex 4.308 7 5
    vertex 4.537 3.915 5
    vertex 4.75 7 5
  endloop
endfacet
facet normal 0 0 -1
  outer loop
    vertex 4.537 -7 0
    vertex 4.537 -3.931 0
    vertex 4.75 -3.657 0
  endloop
endfacet
facet normal 0 0 -1
  outer loop
    vertex 4.537 -7 0
    vertex 4.75 -3.657 0
    vertex 4.9 -7 0
  endloop
endfacet
facet normal 0 -1 0
  outer loop
    vertex 4.537 -7 0
    vertex 4.9 -7 0
    vertex 4.537 -7 5
  endloop
endfacet
facet normal -2.7174009356020458e-15 0 1
  outer loop
    vertex 4.537 -7 5
    vertex 4.75 -3.657 5
    vertex 4.537 -3.931 5
  endloop
endfacet
facet normal 0 -1 0
  outer loop
    vertex 4.537 -7 5
    vertex 4.9 -7 0
    vertex 4.9 -7 5
  endloop
endfacet
facet normal 0 0 1
  outer loop
    vertex 4.537 -7 5
    vertex 4.9 -7 5
    vertex 4.75 -3.657 5
  endloop
endfacet
facet normal -0.7895073452137465 0.6137411114252834 0
  outer loop
    vertex 4.537 -3.931 0
    vertex 4.537 -3.931 5
    vertex 4.75 -3.657 5
  endloop
endfacet
facet normal -0.7895073452137447 0.613741111425286 0
  outer loop
    vertex 4.537 -3.931 0
    vertex 4.75 -3.657 5
    vertex 4.75 -3.657 0
  endloop
endfacet
facet normal -0.7586084581227021 -0.6515467805650619 0
  outer loop
    vertex 4.537 3.915 0
    vertex 4.75 3.6670000000000003 0
    vertex 4.537 3.915 5
  endloop
endfacet
facet normal 0 0 -0.9999999999999999
  outer loop
    vertex 4.537 3.915 0
    vertex 4.75 7 0
    vertex 4.75 3.6670000000000003 0
  endloop
endfacet
facet normal -0.7586084581226998 -0.6515467805650643 0
  outer loop
    vertex 4.537 3.915 5
    vertex 4.75 3.6670000000000003 0
    vertex 4.75 3.6670000000000003 5
  endloop
endfacet
facet normal 0 0 0.9999999999999999
  outer loop
    vertex 4.537 3.915 5
    vertex 4.75 3.6670000000000003 5
    vertex 4.75 7 5
  endloop
endfacet
facet normal -0.789572453817218 0.613657347526335 0
  outer loop
    vertex 4.75 -3.657 0
    vertex 4.75 -3.657 5
    vertex 4.9 -3.464 5
  endloop
endfacet
facet normal 0 0 -1
  outer loop
    vertex 4.75 -3.657 0
    vertex 4.9 -3.464 0
    vertex 4.9 -7 0
  endloop
endfacet
facet normal -0.789572453817218 0.613657347526335 0
  outer loop
    vertex 4.75 -3.657 0
    vertex 4.9 -3.464 5
    vertex 4.9 -3.464 0
  endloop
endfacet
facet normal 0 0 1
  outer loop
    vertex 4.75 -3.657 5
    vertex 4.9 -7 5
    vertex 4.9 -3.464 5
  endloop
endfacet
facet normal 0 0 -0.9999999999999999
  outer loop
    vertex 4.75 3.6670000000000003 0
    vertex 4.75 7 0
    vertex 4.9 3.452 0
  endloop
endfacet
facet normal -0.8201269543011837 -0.5721815960240808 0
  outer loop
    vertex 4.75 3.6670000000000003 0
    vertex 4.9 3.452 0
    vertex 4.75 3.6670000000000003 5
  endloop
endfacet
facet normal -0.8201269543011837 -0.5721815960240808 0
  outer loop
    vertex 4.75 3.6670000000000003 5
    vertex 4.9 3.452 0
    vertex 4.9 3.452 5
  endloop
endfacet
facet normal 0 0 0.9999999999999999
  outer loop
    vertex 4.75 3.6670000000000003 5
    vertex 4.9 3.452 5
    vertex 4.75 7 5
  endloop
endfacet
facet normal 0 1 0
  outer loop
    vertex 4.75 7 0
    vertex 4.75 7 5
    vertex 4.9 7 5
  endloop
endfacet
facet normal 0 0 -1
  outer loop
    vertex 4.75 7 0
    vertex 4.9 7 0
    vertex 4.9 3.452 0
  endloop
endfacet
facet normal 0 1 0
  outer loop
    vertex 4.75 7 0
    vertex 4.9 7 5
    vertex 4.9 7 0
  endloop
endfacet
facet normal 0 0 1
  outer loop
    vertex 4.75 7 5
    vertex 4.9 3.452 5
    vertex 4.9 7 5
  endloop
endfacet
facet normal 0 0 -1
  outer loop
    vertex 4.9 -7 0
    vertex 4.9 -3.464 0
    vertex 5.7 -7 0
  endloop
endfacet
facet normal 0 -1 0
  outer loop
    vertex 4.9 -7 0
    vertex 5.7 -7 0
    vertex 4.9 -7 5
  endloop
endfacet
facet normal 0 -1 0
  outer loop
    vertex 4.9 -7 5
    vertex 5.7 -7 0
    vertex 5.7 -7 5
  endloop
endfacet
facet normal 0 0 1
  outer loop
    vertex 4.9 -7 5
    vertex 5.7 -7 5
    vertex 4.9 -3.464 5
  endloop
endfacet
facet normal -0.9999999999999999 0 0
  outer loop
    vertex 4.9 -3.464 0
    vertex 4.9 -3.464 5
    vertex 4.9 -2 5
  endloop
endfacet
facet normal 0 0 -1
  outer loop
    vertex 4.9 -3.464 0
    vertex 4.9 -2 0
    vertex 5.7 -2 0
  endloop
endfacet
facet normal -0.9999999999999999 0 0
  outer loop
    vertex 4.9 -3.464 0
    vertex 4.9 -2 5
    vertex 4.9 -2 0
  endloop
endfacet
facet normal 0 0 -1
  outer loop
    vertex 4.9 -3.464 0
    vertex 5.7 -2 0
    vertex 5.7 -7 0
  endloop
endfacet
facet normal 0 0 1
  outer loop
    vertex 4.9 -3.464 5
    vertex 5.7 -7 5
    vertex 5.7 -2 5
  endloop
endfacet
facet normal 0 0 1
  outer loop
    vertex 4.9 -3.464 5
    vertex 5.7 -2 5
    vertex 4.9 -2 5
  endloop
endfacet
facet normal 0 1 0
  outer loop
    vertex 4.9 -2 0
    vertex 4.9 -2 5
    vertex 5.7 -2 5
  endloop
endfacet
facet normal 0 1 0
  outer loop
    vertex 4.9 -2 0
    vertex 5.7 -2 5
    vertex 5.7 -2 0
  endloop
endfacet
facet normal -1 0 0
  outer loop
    vertex 4.9 2 0
    vertex 4.9 2 5
    vertex 4.9 3.452 5
  endloop
endfacet
facet normal 0 0 -1
  outer loop
    vertex 4.9 2 0
    vertex 4.9 3.452 0
    vertex 5.7 2 0
  endloop
endfacet
facet normal -1 0 0
  outer loop
    vertex 4.9 2 0
    vertex 4.9 3.452 5
    vertex 4.9 3.452 0
  endloop
endfacet
facet normal 0 -1 0
  outer loop
    vertex 4.9 2 0
    vertex 5.7 2 0
    vertex 4.9 2 5
  endloop
endfacet
facet normal 0 -1 0
  outer loop
    vertex 4.9 2 5
    vertex 5.7 2 0
    vertex 5.7 2 5
  endloop
endfacet
facet normal 0 0 1
  outer loop
    vertex 4.9 2 5
    vertex 5.7 2 5
    vertex 4.9 3.452 5
  endloop
endfacet
facet normal 0 0 -1
  outer loop
    vertex 4.9 3.452 0
    vertex 4.9 7 0
    vertex 5.7 7 0
  endloop
endfacet
facet normal 0 0 -1
  outer loop
    vertex 4.9 3.452 0
    vertex 5.7 7 0
    vertex 5.7 2 0
  endloop
endfacet
facet normal 0 0 1
  outer loop
    vertex 4.9 3.452 5
    vertex 5.7 2 5
    vertex 5.7 7 5
  endloop
endfacet
facet normal 0 0 1
  outer loop
    vertex 4.9 3.452 5
    vertex 5.7 7 5
    vertex 4.9 7 5
  endloop
endfacet
facet normal 0 1 0
  outer loop
    vertex 4.9 7 0
    vertex 4.9 7 5
    vertex 5.7 7 5
  endloop
endfacet
facet normal 0 1 0
  outer loop
    vertex 4.9 7 0
    vertex 5.7 7 5
    vertex 5.7 7 0
  endloop
endfacet
facet normal 0 0 -1
  outer loop
    vertex 5.7 -7 0
    vertex 5.7 -2 0
    vertex 5.9 -2.8000000000000003 0
  endloop
endfacet
facet normal 0 -1 0
  outer loop
    vertex 5.7 -7 0
    vertex 5.9 -7 0
    vertex 5.7 -7 5
  endloop
endfacet
facet normal 0 0 -1
  outer loop
    vertex 5.7 -7 0
    vertex 5.9 -2.8000000000000003 0
    vertex 5.9 -7 0
  endloop
endfacet
facet normal 0 -1 0
  outer loop
    vertex 5.7 -7 5
    vertex 5.9 -7 0
    vertex 5.9 -7 5
  endloop
endfacet
facet normal 0 0 1
  outer loop
    vertex 5.7 -7 5
    vertex 5.9 -7 5
    vertex 5.9 -2.8000000000000003 5
  endloop
endfacet
facet normal 3.5527136788004978e-15 0 1
  outer loop
    vertex 5.7 -7 5
    vertex 5.9 -2.8000000000000003 5
    vertex 5.7 -2 5
  endloop
endfacet
facet normal -1 0 0
  outer loop
    vertex 5.7 -2 0
    vertex 5.7 -2 5
    vertex 5.7 2 5
  endloop
endfacet
facet normal 0 0 -1
  outer loop
    vertex 5.7 -2 0
    vertex 5.7 2 0
    vertex 5.9 -2.8000000000000003 0
  endloop
endfacet
facet normal -1 0 0
  outer loop
    vertex 5.7 -2 0
    vertex 5.7 2 5
    vertex 5.7 2 0
  endloop
endfacet
facet normal -8.881784197001244e-15 0 1
  outer loop
    vertex 5.7 -2 5
    vertex 5.9 -2.8000000000000003 5
    vertex 5.7 2 5
  endloop
endfacet
facet normal 0 0 -1
  outer loop
    vertex 5.7 2 0
    vertex 5.7 7 0
    vertex 5.9 2.8000000000000003 0
  endloop
endfacet
facet normal 0 0 -1
  outer loop
    vertex 5.7 2 0
    vertex 5.9 2.8000000000000003 0
    vertex 5.9 -2.8000000000000003 0
  endloop
endfacet
facet normal 6.344131569286602e-15 0 1
  outer loop
    vertex 5.7 2 5
    vertex 5.9 -2.8000000000000003 5
    vertex 5.9 2.8000000000000003 5
  endloop
endfacet
facet normal 7.1054273576009955e-15 0 1
  outer loop
    vertex 5.7 2 5
    vertex 5.9 2.8000000000000003 5
    vertex 5.7 7 5
  endloop
endfacet
facet normal 0 1 0
  outer loop
    vertex 5.7 7 0
    vertex 5.7 7 5
    vertex 5.9 7 5
  endloop
endfacet
facet normal 0 0 -1
  outer loop
    vertex 5.7 7 0
    vertex 5.9 7 0
    vertex 5.9 2.8000000000000003 0
  endloop
endfacet
facet normal 0 1 0
  outer loop
    vertex 5.7 7 0
    vertex 5.9 7 5
    vertex 5.9 7 0
  endloop
endfacet
facet normal 0 0 1
  outer loop
    vertex 5.7 7 5
    vertex 5.9 2.8000000000000003 5
    vertex 5.9 7 5
  endloop
endfacet
facet normal 1 0 0
  outer loop
    vertex 5.9 -7 -2
    vertex 5.9 -2.8000000000000003 -2
    vertex 5.9 -7 0
  endloop
endfacet
facet normal 1 0 0
  outer loop
    vertex 5.9 -7 0
    vertex 5.9 -2.8000000000000003 -2
    vertex 5.9 -2.8000000000000003 0
  endloop
endfacet
facet normal 1 0 0
  outer loop
    vertex 5.9 -7 0
    vertex 5.9 -2.8000000000000003 0
    vertex 5.9 -7 5
  endloop
endfacet
facet normal 1 0 0
  outer loop
    vertex 5.9 -7 5
    vertex 5.9 -2.8000000000000003 0
    vertex 5.9 -2.8000000000000003 5
  endloop
endfacet
facet normal 0 0 -0.9999999999999999
  outer loop
    vertex 5.9 -2.8000000000000003 -2
    vertex 5.9 2.8000000000000003 -2
    vertex 6.5 -2.8000000000000003 -2
  endloop
endfacet
facet normal 0 -1 0
  outer loop
    vertex 5.9 -2.8000000000000003 -2
    vertex 6.5 -2.8000000000000003 -2
    vertex 5.9 -2.8000000000000003 0
  endloop
endfacet
facet normal 0 0 -0.9999999999999999
  outer loop
    vertex 5.9 -2.8000000000000003 0
    vertex 5.9 2.8000000000000003 0
    vertex 6.5 -2.8000000000000003 0
  endloop
endfacet
facet normal 0 -1 0
  outer loop
    vertex 5.9 -2.8000000000000003 0
    vertex 6.5 -2.8000000000000003 -2
    vertex 6.5 -2.8000000000000003 0
  endloop
endfacet
facet normal 0 -1 0
  outer loop
    vertex 5.9 -2.8000000000000003 0
    vertex 6.5 -2.8000000000000003 0
    vertex 5.9 -2.8000000000000003 5
  endloop
endfacet
facet normal 0 0 0.9999999999999999
  outer loop
    vertex 5.9 -2.8000000000000003 0
    vertex 6.5 -2.8000000000000003 0
    vertex 5.9 2.8000000000000003 0
  endloop
endfacet
facet normal 0 -1 0
  outer loop
    vertex 5.9 -2.8000000000000003 5
    vertex 6.5 -2.8000000000000003 0
    vertex 6.5 -2.8000000000000003 5
  endloop
endfacet
facet normal 0 0 0.9999999999999999
  outer loop
    vertex 5.9 -2.8000000000000003 5
    vertex 6.5 -2.8000000000000003 5
    vertex 5.9 2.8000000000000003 5
  endloop
endfacet
facet normal 0 1 0
  outer loop
    vertex 5.9 2.8000000000000003 -2
    vertex 5.9 2.8000000000000003 0
    vertex 6.5 2.8000000000000003 0
  endloop
endfacet
facet normal 1 0 0
  outer loop
    vertex 5.9 2.8000000000000003 -2
    vertex 5.9 7 -2
    vertex 5.9 2.8000000000000003 0
  endloop
endfacet
facet normal 0 0 -0.9999999999999999
  outer loop
    vertex 5.9 2.8000000000000003 -2
    vertex 6.5 2.8000000000000003 -2
    vertex 6.5 -2.8000000000000003 -2
  endloop
endfacet
facet normal 0 1 0
  outer loop
    vertex 5.9 2.8000000000000003 -2
    vertex 6.5 2.8000000000000003 0
    vertex 6.5 2.8000000000000003 -2
  endloop
endfacet
facet normal 0 1 0
  outer loop
    vertex 5.9 2.8000000000000003 0
    vertex 5.9 2.8000000000000003 5
    vertex 6.5 2.8000000000000003 5
  endloop
endfacet
facet normal 1 0 0
  outer loop
    vertex 5.9 2.8000000000000003 0
    vertex 5.9 7 -2
    vertex 5.9 7 0
  endloop
endfacet
facet normal 1 0 0
  outer loop
    vertex 5.9 2.8000000000000003 0
    vertex 5.9 7 0
    vertex 5.9 2.8000000000000003 5
  endloop
endfacet
facet normal 0 0 0.9999999999999999
  outer loop
    vertex 5.9 2.8000000000000003 0
    vertex 6.5 -2.8000000000000003 0
    vertex 6.5 2.8000000000000003 0
  endloop
endfacet
facet normal 0 0 -0.9999999999999999
  outer loop
    vertex 5.9 2.8000000000000003 0
    vertex 6.5 2.8000000000000003 0
    vertex 6.5 -2.8000000000000003 0
  endloop
endfacet
facet normal 0 1 0
  outer loop
    vertex 5.9 2.8000000000000003 0
    vertex 6.5 2.8000000000000003 5
    vertex 6.5 2.8000000000000003 0
  endloop
endfacet
facet normal 1 0 0
  outer loop
    vertex 5.9 2.8000000000000003 5
    vertex 5.9 7 0
    vertex 5.9 7 5
  endloop
endfacet
facet normal 0 0 0.9999999999999999
  outer loop
    vertex 5.9 2.8000000000000003 5
    vertex 6.5 -2.8000000000000003 5
    vertex 6.5 2.8000000000000003 5
  endloop
endfacet
facet normal 1 0 0
  outer loop
    vertex 6.5 -2.8000000000000003 -2
    vertex 6.5 2.8000000000000003 -2
    vertex 6.5 -2.8000000000000003 0
  endloop
endfacet
facet normal 1 0 0
  outer loop
    vertex 6.5 -2.8000000000000003 0
    vertex 6.5 2.8000000000000003 -2
    vertex 6.5 2.8000000000000003 0
  endloop
endfacet
facet normal 1 0 0
  outer loop
    vertex 6.5 -2.8000000000000003 0
    vertex 6.5 2.8000000000000003 0
    vertex 6.5 -2.8000000000000003 5
  endloop
endfacet
facet normal 1 0 0
  outer loop
    vertex 6.5 -2.8000000000000003 5
    vertex 6.5 2.8000000000000003 0
    vertex 6.5 2.8000000000000003 5
  endloop
endfacet
endsolid JSxCAD
