solid JSxCAD
facet normal -1 0 0
  outer loop
    vertex -5.9 -7 -2
    vertex -5.9 -7 0
    vertex -5.9 7 0
  endloop
endfacet
facet normal 0 0 -0.9999999999999999
  outer loop
    vertex -5.9 -7 -2
    vertex -5.9 7 -2
    vertex 5.9 -2.8000000000000003 -2
  endloop
endfacet
facet normal -1 0 0
  outer loop
    vertex -5.9 -7 -2
    vertex -5.9 7 0
    vertex -5.9 7 -2
  endloop
endfacet
facet normal 0 -1 0
  outer loop
    vertex -5.9 -7 -2
    vertex 5.9 -7 -2
    vertex -5.9 -7 0
  endloop
endfacet
facet normal 0 0 -1
  outer loop
    vertex -5.9 -7 -2
    vertex 5.9 -2.8000000000000003 -2
    vertex 5.9 -7 -2
  endloop
endfacet
facet normal -1 0 0
  outer loop
    vertex -5.9 -7 0
    vertex -5.9 -7 5
    vertex -5.9 7 5
  endloop
endfacet
facet normal 0 0 -1
  outer loop
    vertex -5.9 -7 0
    vertex -5.9 7 0
    vertex -4.9 3.452 0
  endloop
endfacet
facet normal -1 0 0
  outer loop
    vertex -5.9 -7 0
    vertex -5.9 7 5
    vertex -5.9 7 0
  endloop
endfacet
facet normal 0 -1 0
  outer loop
    vertex -5.9 -7 0
    vertex -4.9 -7 0
    vertex -5.9 -7 5
  endloop
endfacet
facet normal 0 0 -1
  outer loop
    vertex -5.9 -7 0
    vertex -4.9 -3.465 0
    vertex -4.9 -7 0
  endloop
endfacet
facet normal 0 0 -1
  outer loop
    vertex -5.9 -7 0
    vertex -4.9 3.452 0
    vertex -4.9 -3.465 0
  endloop
endfacet
facet normal 0 -1 0
  outer loop
    vertex -5.9 -7 0
    vertex 5.9 -7 -2
    vertex 5.9 -7 0
  endloop
endfacet
facet normal 0 0 1
  outer loop
    vertex -5.9 -7 0
    vertex 5.9 -7 0
    vertex 5.9 -2.8000000000000003 0
  endloop
endfacet
facet normal 0 0 0.9999999999999999
  outer loop
    vertex -5.9 -7 0
    vertex 5.9 -2.8000000000000003 0
    vertex -5.9 7 0
  endloop
endfacet
facet normal 0 -1 0
  outer loop
    vertex -5.9 -7 5
    vertex -4.9 -7 0
    vertex -4.9 -7 5
  endloop
endfacet
facet normal 0 0 1
  outer loop
    vertex -5.9 -7 5
    vertex -4.9 -7 5
    vertex -4.9 -3.465 5
  endloop
endfacet
facet normal -2.0544823934078363e-15 0 1
  outer loop
    vertex -5.9 -7 5
    vertex -4.9 -3.465 5
    vertex -4.9 3.452 5
  endloop
endfacet
facet normal 0 0 1
  outer loop
    vertex -5.9 -7 5
    vertex -4.9 3.452 5
    vertex -5.9 7 5
  endloop
endfacet
facet normal 0 1 0
  outer loop
    vertex -5.9 7 -2
    vertex -5.9 7 0
    vertex 5.9 7 0
  endloop
endfacet
facet normal 5.376382685836108e-17 0 -1
  outer loop
    vertex -5.9 7 -2
    vertex 5.9 2.8000000000000003 -2
    vertex 5.9 -2.8000000000000003 -2
  endloop
endfacet
facet normal 0 0 -1
  outer loop
    vertex -5.9 7 -2
    vertex 5.9 7 -2
    vertex 5.9 2.8000000000000003 -2
  endloop
endfacet
facet normal 0 1 0
  outer loop
    vertex -5.9 7 -2
    vertex 5.9 7 0
    vertex 5.9 7 -2
  endloop
endfacet
facet normal 0 1 0
  outer loop
    vertex -5.9 7 0
    vertex -5.9 7 5
    vertex -4.9 7 5
  endloop
endfacet
facet normal 0 0 -0.9999999999999999
  outer loop
    vertex -5.9 7 0
    vertex -4.9 7 0
    vertex -4.9 3.452 0
  endloop
endfacet
facet normal 0 1 0
  outer loop
    vertex -5.9 7 0
    vertex -4.9 7 5
    vertex -4.9 7 0
  endloop
endfacet
facet normal 0 0 1
  outer loop
    vertex -5.9 7 0
    vertex 5.9 -2.8000000000000003 0
    vertex 5.9 2.8000000000000003 0
  endloop
endfacet
facet normal 0 0 1
  outer loop
    vertex -5.9 7 0
    vertex 5.9 2.8000000000000003 0
    vertex 5.9 7 0
  endloop
endfacet
facet normal 0 0 0.9999999999999999
  outer loop
    vertex -5.9 7 5
    vertex -4.9 3.452 5
    vertex -4.9 7 5
  endloop
endfacet
facet normal 0 0 -1
  outer loop
    vertex -4.9 -7 0
    vertex -4.9 -3.465 0
    vertex -4.75 -3.6590000000000003 0
  endloop
endfacet
facet normal 0 0 -1
  outer loop
    vertex -4.9 -7 0
    vertex -4.75 -3.6590000000000003 0
    vertex -4.541 -7 0
  endloop
endfacet
facet normal 0 -1 0
  outer loop
    vertex -4.9 -7 0
    vertex -4.541 -7 0
    vertex -4.9 -7 5
  endloop
endfacet
facet normal 1.6750182361152725e-15 0 1
  outer loop
    vertex -4.9 -7 5
    vertex -4.75 -3.6590000000000003 5
    vertex -4.9 -3.465 5
  endloop
endfacet
facet normal 0 -1 0
  outer loop
    vertex -4.9 -7 5
    vertex -4.541 -7 0
    vertex -4.541 -7 5
  endloop
endfacet
facet normal 0 0 1
  outer loop
    vertex -4.9 -7 5
    vertex -4.541 -7 5
    vertex -4.75 -3.6590000000000003 5
  endloop
endfacet
facet normal 0.7911056046385774 0.6116795912153936 0
  outer loop
    vertex -4.9 -3.465 0
    vertex -4.9 -3.465 5
    vertex -4.75 -3.6590000000000003 5
  endloop
endfacet
facet normal 0.9999999999999999 0 0
  outer loop
    vertex -4.9 -3.465 0
    vertex -4.9 3.452 0
    vertex -4.9 -3.465 5
  endloop
endfacet
facet normal 0.7911056046385774 0.6116795912153936 0
  outer loop
    vertex -4.9 -3.465 0
    vertex -4.75 -3.6590000000000003 5
    vertex -4.75 -3.6590000000000003 0
  endloop
endfacet
facet normal 0.9999999999999999 0 0
  outer loop
    vertex -4.9 -3.465 5
    vertex -4.9 3.452 0
    vertex -4.9 3.452 5
  endloop
endfacet
facet normal 0 0 -1
  outer loop
    vertex -4.9 3.452 0
    vertex -4.9 7 0
    vertex -4.75 3.6670000000000003 0
  endloop
endfacet
facet normal 0.8201269543011837 -0.5721815960240808 0
  outer loop
    vertex -4.9 3.452 0
    vertex -4.75 3.6670000000000003 0
    vertex -4.9 3.452 5
  endloop
endfacet
facet normal 0.8201269543011837 -0.5721815960240808 0
  outer loop
    vertex -4.9 3.452 5
    vertex -4.75 3.6670000000000003 0
    vertex -4.75 3.6670000000000003 5
  endloop
endfacet
facet normal 0 0 1
  outer loop
    vertex -4.9 3.452 5
    vertex -4.75 3.6670000000000003 5
    vertex -4.9 7 5
  endloop
endfacet
facet normal 0 1 0
  outer loop
    vertex -4.9 7 0
    vertex -4.9 7 5
    vertex -4.75 7 5
  endloop
endfacet
facet normal 0 0 -0.9999999999999999
  outer loop
    vertex -4.9 7 0
    vertex -4.75 7 0
    vertex -4.75 3.6670000000000003 0
  endloop
endfacet
facet normal 0 1 0
  outer loop
    vertex -4.9 7 0
    vertex -4.75 7 5
    vertex -4.75 7 0
  endloop
endfacet
facet normal 0 0 0.9999999999999999
  outer loop
    vertex -4.9 7 5
    vertex -4.75 3.6670000000000003 5
    vertex -4.75 7 5
  endloop
endfacet
facet normal 0.7929489976428417 0.6092880165711555 0
  outer loop
    vertex -4.75 -3.6590000000000003 0
    vertex -4.75 -3.6590000000000003 5
    vertex -4.541 -3.931 5
  endloop
endfacet
facet normal 0 0 -1
  outer loop
    vertex -4.75 -3.6590000000000003 0
    vertex -4.541 -3.931 0
    vertex -4.541 -7 0
  endloop
endfacet
facet normal 0.7929489976428437 0.6092880165711528 0
  outer loop
    vertex -4.75 -3.6590000000000003 0
    vertex -4.541 -3.931 5
    vertex -4.541 -3.931 0
  endloop
endfacet
facet normal 0 0 1
  outer loop
    vertex -4.75 -3.6590000000000003 5
    vertex -4.541 -7 5
    vertex -4.541 -3.931 5
  endloop
endfacet
facet normal 0 0 -0.9999999999999999
  outer loop
    vertex -4.75 3.6670000000000003 0
    vertex -4.75 7 0
    vertex -4.541 3.9130000000000003 0
  endloop
endfacet
facet normal 0.7620921699904257 -0.6474685509268262 0
  outer loop
    vertex -4.75 3.6670000000000003 0
    vertex -4.541 3.9130000000000003 0
    vertex -4.75 3.6670000000000003 5
  endloop
endfacet
facet normal 0.762092169990428 -0.6474685509268236 0
  outer loop
    vertex -4.75 3.6670000000000003 5
    vertex -4.541 3.9130000000000003 0
    vertex -4.541 3.9130000000000003 5
  endloop
endfacet
facet normal 0 0 0.9999999999999999
  outer loop
    vertex -4.75 3.6670000000000003 5
    vertex -4.541 3.9130000000000003 5
    vertex -4.75 7 5
  endloop
endfacet
facet normal 0 1 0
  outer loop
    vertex -4.75 7 0
    vertex -4.75 7 5
    vertex -4.312 7 5
  endloop
endfacet
facet normal 0 0 -1
  outer loop
    vertex -4.75 7 0
    vertex -4.312 7 0
    vertex -4.541 3.9130000000000003 0
  endloop
endfacet
facet normal 0 1 0
  outer loop
    vertex -4.75 7 0
    vertex -4.312 7 5
    vertex -4.312 7 0
  endloop
endfacet
facet normal 0 0 1
  outer loop
    vertex -4.75 7 5
    vertex -4.541 3.9130000000000003 5
    vertex -4.312 7 5
  endloop
endfacet
facet normal 0 0 -1
  outer loop
    vertex -4.541 -7 0
    vertex -4.541 -3.931 0
    vertex -4.312 -4.166 0
  endloop
endfacet
facet normal 0 0 -1
  outer loop
    vertex -4.541 -7 0
    vertex -4.312 -4.166 0
    vertex -4.065 -7 0
  endloop
endfacet
facet normal 0 -1 0
  outer loop
    vertex -4.541 -7 0
    vertex -4.065 -7 0
    vertex -4.541 -7 5
  endloop
endfacet
facet normal -2.527538861498846e-15 0 1
  outer loop
    vertex -4.541 -7 5
    vertex -4.312 -4.166 5
    vertex -4.541 -3.931 5
  endloop
endfacet
facet normal 0 -1 0
  outer loop
    vertex -4.541 -7 5
    vertex -4.065 -7 0
    vertex -4.065 -7 5
  endloop
endfacet
facet normal 0 0 1
  outer loop
    vertex -4.541 -7 5
    vertex -4.065 -7 5
    vertex -4.312 -4.166 5
  endloop
endfacet
facet normal 0.7161905281589533 0.6979048125463809 0
  outer loop
    vertex -4.541 -3.931 0
    vertex -4.541 -3.931 5
    vertex -4.312 -4.166 5
  endloop
endfacet
facet normal 0.7161905281589512 0.6979048125463833 0
  outer loop
    vertex -4.541 -3.931 0
    vertex -4.312 -4.166 5
    vertex -4.312 -4.166 0
  endloop
endfacet
facet normal 0.7614502041228712 -0.6482234079707689 0
  outer loop
    vertex -4.541 3.9130000000000003 0
    vertex -4.312 4.182 0
    vertex -4.541 3.9130000000000003 5
  endloop
endfacet
facet normal 0 0 -1
  outer loop
    vertex -4.541 3.9130000000000003 0
    vertex -4.312 7 0
    vertex -4.312 4.182 0
  endloop
endfacet
facet normal 0.7614502041228691 -0.6482234079707712 0
  outer loop
    vertex -4.541 3.9130000000000003 5
    vertex -4.312 4.182 0
    vertex -4.312 4.182 5
  endloop
endfacet
facet normal 0 0 1
  outer loop
    vertex -4.541 3.9130000000000003 5
    vertex -4.312 4.182 5
    vertex -4.312 7 5
  endloop
endfacet
facet normal 0.7182842116941331 0.6957498050527485 0
  outer loop
    vertex -4.312 -4.166 0
    vertex -4.312 -4.166 5
    vertex -4.065 -4.421 5
  endloop
endfacet
facet normal 0 0 -1
  outer loop
    vertex -4.312 -4.166 0
    vertex -4.065 -4.421 0
    vertex -4.065 -7 0
  endloop
endfacet
facet normal 0.7182842116941331 0.6957498050527485 0
  outer loop
    vertex -4.312 -4.166 0
    vertex -4.065 -4.421 5
    vertex -4.065 -4.421 0
  endloop
endfacet
facet normal 0 0 1
  outer loop
    vertex -4.312 -4.166 5
    vertex -4.065 -7 5
    vertex -4.065 -4.421 5
  endloop
endfacet
facet normal 0 0 -1
  outer loop
    vertex -4.312 4.182 0
    vertex -4.312 7 0
    vertex -4.065 4.406 0
  endloop
endfacet
facet normal 0.6717766713789782 -0.7407537403152146 0
  outer loop
    vertex -4.312 4.182 0
    vertex -4.065 4.406 0
    vertex -4.312 4.182 5
  endloop
endfacet
facet normal 0.6717766713789782 -0.7407537403152146 0
  outer loop
    vertex -4.312 4.182 5
    vertex -4.065 4.406 0
    vertex -4.065 4.406 5
  endloop
endfacet
facet normal 0 0 1
  outer loop
    vertex -4.312 4.182 5
    vertex -4.065 4.406 5
    vertex -4.312 7 5
  endloop
endfacet
facet normal 0 1 0
  outer loop
    vertex -4.312 7 0
    vertex -4.312 7 5
    vertex -3.8000000000000003 7 5
  endloop
endfacet
facet normal 0 0 -1
  outer loop
    vertex -4.312 7 0
    vertex -3.8000000000000003 7 0
    vertex -4.065 4.406 0
  endloop
endfacet
facet normal 0 1 0
  outer loop
    vertex -4.312 7 0
    vertex -3.8000000000000003 7 5
    vertex -3.8000000000000003 7 0
  endloop
endfacet
facet normal 0 0 1
  outer loop
    vertex -4.312 7 5
    vertex -4.065 4.406 5
    vertex -3.8000000000000003 7 5
  endloop
endfacet
facet normal 0 0 -1
  outer loop
    vertex -4.065 -7 0
    vertex -4.065 -4.421 0
    vertex -3.8000000000000003 -4.6370000000000005 0
  endloop
endfacet
facet normal 0 0 -1
  outer loop
    vertex -4.065 -7 0
    vertex -3.8000000000000003 -4.6370000000000005 0
    vertex -3.529 -7 0
  endloop
endfacet
facet normal 0 -0.9999999999999999 0
  outer loop
    vertex -4.065 -7 0
    vertex -3.529 -7 0
    vertex -4.065 -7 5
  endloop
endfacet
facet normal 2.599159889967954e-15 0 1
  outer loop
    vertex -4.065 -7 5
    vertex -3.8000000000000003 -4.6370000000000005 5
    vertex -4.065 -4.421 5
  endloop
endfacet
facet normal 0 -1 0
  outer loop
    vertex -4.065 -7 5
    vertex -3.529 -7 0
    vertex -3.529 -7 5
  endloop
endfacet
facet normal 0 0 1
  outer loop
    vertex -4.065 -7 5
    vertex -3.529 -7 5
    vertex -3.8000000000000003 -4.6370000000000005 5
  endloop
endfacet
facet normal 0.6318031572467281 0.7751288734739961 0
  outer loop
    vertex -4.065 -4.421 0
    vertex -4.065 -4.421 5
    vertex -3.8000000000000003 -4.6370000000000005 5
  endloop
endfacet
facet normal 0.6318031572467281 0.7751288734739961 0
  outer loop
    vertex -4.065 -4.421 0
    vertex -3.8000000000000003 -4.6370000000000005 5
    vertex -3.8000000000000003 -4.6370000000000005 0
  endloop
endfacet
facet normal 0.669738471881643 -0.7425970504126996 0
  outer loop
    vertex -4.065 4.406 0
    vertex -3.8000000000000003 4.6450000000000005 0
    vertex -4.065 4.406 5
  endloop
endfacet
facet normal 0 0 -1
  outer loop
    vertex -4.065 4.406 0
    vertex -3.8000000000000003 7 0
    vertex -3.8000000000000003 4.6450000000000005 0
  endloop
endfacet
facet normal 0.669738471881643 -0.7425970504126996 0
  outer loop
    vertex -4.065 4.406 5
    vertex -3.8000000000000003 4.6450000000000005 0
    vertex -3.8000000000000003 4.6450000000000005 5
  endloop
endfacet
facet normal 0 0 1
  outer loop
    vertex -4.065 4.406 5
    vertex -3.8000000000000003 4.6450000000000005 5
    vertex -3.8000000000000003 7 5
  endloop
endfacet
facet normal 0.6302690097335117 0.7763768256262795 0
  outer loop
    vertex -3.8000000000000003 -4.6370000000000005 0
    vertex -3.8000000000000003 -4.6370000000000005 5
    vertex -3.529 -4.857 5
  endloop
endfacet
facet normal 0 0 -1
  outer loop
    vertex -3.8000000000000003 -4.6370000000000005 0
    vertex -3.529 -4.857 0
    vertex -3.529 -7 0
  endloop
endfacet
facet normal 0.6302690097335097 0.776376825626281 0
  outer loop
    vertex -3.8000000000000003 -4.6370000000000005 0
    vertex -3.529 -4.857 5
    vertex -3.529 -4.857 0
  endloop
endfacet
facet normal 0 0 1
  outer loop
    vertex -3.8000000000000003 -4.6370000000000005 5
    vertex -3.529 -7 5
    vertex -3.529 -4.857 5
  endloop
endfacet
facet normal 0 0 -1
  outer loop
    vertex -3.8000000000000003 4.6450000000000005 0
    vertex -3.8000000000000003 7 0
    vertex -3.529 4.843 0
  endloop
endfacet
facet normal 0.5899418837155368 -0.807445709529851 0
  outer loop
    vertex -3.8000000000000003 4.6450000000000005 0
    vertex -3.529 4.843 0
    vertex -3.8000000000000003 4.6450000000000005 5
  endloop
endfacet
facet normal 0.5899418837155347 -0.8074457095298523 0
  outer loop
    vertex -3.8000000000000003 4.6450000000000005 5
    vertex -3.529 4.843 0
    vertex -3.529 4.843 5
  endloop
endfacet
facet normal 0 0 1
  outer loop
    vertex -3.8000000000000003 4.6450000000000005 5
    vertex -3.529 4.843 5
    vertex -3.8000000000000003 7 5
  endloop
endfacet
facet normal 0 1 0
  outer loop
    vertex -3.8000000000000003 7 0
    vertex -3.8000000000000003 7 5
    vertex -3.243 7 5
  endloop
endfacet
facet normal 0 0 -1
  outer loop
    vertex -3.8000000000000003 7 0
    vertex -3.243 7 0
    vertex -3.529 4.843 0
  endloop
endfacet
facet normal 0 0.9999999999999999 0
  outer loop
    vertex -3.8000000000000003 7 0
    vertex -3.243 7 5
    vertex -3.243 7 0
  endloop
endfacet
facet normal 0 0 1
  outer loop
    vertex -3.8000000000000003 7 5
    vertex -3.529 4.843 5
    vertex -3.243 7 5
  endloop
endfacet
facet normal 0 0 -1
  outer loop
    vertex -3.529 -7 0
    vertex -3.529 -4.857 0
    vertex -3.243 -5.0360000000000005 0
  endloop
endfacet
facet normal 0 0 -1
  outer loop
    vertex -3.529 -7 0
    vertex -3.243 -5.0360000000000005 0
    vertex -2.9410000000000003 -7 0
  endloop
endfacet
facet normal 0 -1 0
  outer loop
    vertex -3.529 -7 0
    vertex -2.9410000000000003 -7 0
    vertex -3.529 -7 5
  endloop
endfacet
facet normal 5.796582267849624e-15 0 1
  outer loop
    vertex -3.529 -7 5
    vertex -3.243 -5.0360000000000005 5
    vertex -3.529 -4.857 5
  endloop
endfacet
facet normal 0 -1 0
  outer loop
    vertex -3.529 -7 5
    vertex -2.9410000000000003 -7 0
    vertex -2.9410000000000003 -7 5
  endloop
endfacet
facet normal 0 0 1
  outer loop
    vertex -3.529 -7 5
    vertex -2.9410000000000003 -7 5
    vertex -3.243 -5.0360000000000005 5
  endloop
endfacet
facet normal 0.530531664871171 0.8476651181740483 0
  outer loop
    vertex -3.529 -4.857 0
    vertex -3.529 -4.857 5
    vertex -3.243 -5.0360000000000005 5
  endloop
endfacet
facet normal 0.530531664871171 0.8476651181740483 0
  outer loop
    vertex -3.529 -4.857 0
    vertex -3.243 -5.0360000000000005 5
    vertex -3.243 -5.0360000000000005 0
  endloop
endfacet
facet normal 0.5918522852315748 -0.8060464456010971 0
  outer loop
    vertex -3.529 4.843 0
    vertex -3.243 5.053 0
    vertex -3.529 4.843 5
  endloop
endfacet
facet normal 0 0 -1
  outer loop
    vertex -3.529 4.843 0
    vertex -3.243 7 0
    vertex -3.243 5.053 0
  endloop
endfacet
facet normal 0.5918522852315748 -0.8060464456010971 0
  outer loop
    vertex -3.529 4.843 5
    vertex -3.243 5.053 0
    vertex -3.243 5.053 5
  endloop
endfacet
facet normal 0 0 1
  outer loop
    vertex -3.529 4.843 5
    vertex -3.243 5.053 5
    vertex -3.243 7 5
  endloop
endfacet
facet normal 0.532515895689219 0.8464200026218124 0
  outer loop
    vertex -3.243 -5.0360000000000005 0
    vertex -3.243 -5.0360000000000005 5
    vertex -2.9410000000000003 -5.226 5
  endloop
endfacet
facet normal 0 0 -1
  outer loop
    vertex -3.243 -5.0360000000000005 0
    vertex -2.9410000000000003 -5.226 0
    vertex -2.9410000000000003 -7 0
  endloop
endfacet
facet normal 0.532515895689219 0.8464200026218124 0
  outer loop
    vertex -3.243 -5.0360000000000005 0
    vertex -2.9410000000000003 -5.226 5
    vertex -2.9410000000000003 -5.226 0
  endloop
endfacet
facet normal -6.631314869678477e-15 0 1
  outer loop
    vertex -3.243 -5.0360000000000005 5
    vertex -2.9410000000000003 -7 5
    vertex -2.9410000000000003 -5.226 5
  endloop
endfacet
facet normal 0 0 -1
  outer loop
    vertex -3.243 5.053 0
    vertex -3.243 7 0
    vertex -2.9410000000000003 5.218 0
  endloop
endfacet
facet normal 0.4794627954189287 -0.8775622073728258 0
  outer loop
    vertex -3.243 5.053 0
    vertex -2.9410000000000003 5.218 0
    vertex -3.243 5.053 5
  endloop
endfacet
facet normal 0.4794627954189287 -0.8775622073728258 0
  outer loop
    vertex -3.243 5.053 5
    vertex -2.9410000000000003 5.218 0
    vertex -2.9410000000000003 5.218 5
  endloop
endfacet
facet normal 0 0 1
  outer loop
    vertex -3.243 5.053 5
    vertex -2.9410000000000003 5.218 5
    vertex -3.243 7 5
  endloop
endfacet
facet normal 0 1 0
  outer loop
    vertex -3.243 7 0
    vertex -3.243 7 5
    vertex -2.6470000000000002 7 5
  endloop
endfacet
facet normal 0 0 -1
  outer loop
    vertex -3.243 7 0
    vertex -2.6470000000000002 7 0
    vertex -2.9410000000000003 5.218 0
  endloop
endfacet
facet normal 0 1 0
  outer loop
    vertex -3.243 7 0
    vertex -2.6470000000000002 7 5
    vertex -2.6470000000000002 7 0
  endloop
endfacet
facet normal 0 0 1
  outer loop
    vertex -3.243 7 5
    vertex -2.9410000000000003 5.218 5
    vertex -2.6470000000000002 7 5
  endloop
endfacet
facet normal 0 0 -1
  outer loop
    vertex -2.9410000000000003 -7 0
    vertex -2.9410000000000003 -5.226 0
    vertex -2.6470000000000002 -5.371 0
  endloop
endfacet
facet normal 0 0 -1
  outer loop
    vertex -2.9410000000000003 -7 0
    vertex -2.6470000000000002 -5.371 0
    vertex -2.333 -7 0
  endloop
endfacet
facet normal 0 -1 0
  outer loop
    vertex -2.9410000000000003 -7 0
    vertex -2.333 -7 0
    vertex -2.9410000000000003 -7 5
  endloop
endfacet
facet normal 3.4058794058552693e-15 0 1
  outer loop
    vertex -2.9410000000000003 -7 5
    vertex -2.6470000000000002 -5.371 5
    vertex -2.9410000000000003 -5.226 5
  endloop
endfacet
facet normal 0 -1 0
  outer loop
    vertex -2.9410000000000003 -7 5
    vertex -2.333 -7 0
    vertex -2.333 -7 5
  endloop
endfacet
facet normal 0 0 1
  outer loop
    vertex -2.9410000000000003 -7 5
    vertex -2.333 -7 5
    vertex -2.6470000000000002 -5.371 5
  endloop
endfacet
facet normal 0.44232609713977505 0.8968542935109887 0
  outer loop
    vertex -2.9410000000000003 -5.226 0
    vertex -2.9410000000000003 -5.226 5
    vertex -2.6470000000000002 -5.371 5
  endloop
endfacet
facet normal 0.4423260971397741 0.8968542935109889 0
  outer loop
    vertex -2.9410000000000003 -5.226 0
    vertex -2.6470000000000002 -5.371 5
    vertex -2.6470000000000002 -5.371 0
  endloop
endfacet
facet normal 0.48031462286558574 -0.8770962678415011 0
  outer loop
    vertex -2.9410000000000003 5.218 0
    vertex -2.6470000000000002 5.3790000000000004 0
    vertex -2.9410000000000003 5.218 5
  endloop
endfacet
facet normal 0 0 -1
  outer loop
    vertex -2.9410000000000003 5.218 0
    vertex -2.6470000000000002 7 0
    vertex -2.6470000000000002 5.3790000000000004 0
  endloop
endfacet
facet normal 0.48031462286558485 -0.8770962678415016 0
  outer loop
    vertex -2.9410000000000003 5.218 5
    vertex -2.6470000000000002 5.3790000000000004 0
    vertex -2.6470000000000002 5.3790000000000004 5
  endloop
endfacet
facet normal 0 0 1
  outer loop
    vertex -2.9410000000000003 5.218 5
    vertex -2.6470000000000002 5.3790000000000004 5
    vertex -2.6470000000000002 7 5
  endloop
endfacet
facet normal 0.4426385875519928 0.8967001063956538 0
  outer loop
    vertex -2.6470000000000002 -5.371 0
    vertex -2.6470000000000002 -5.371 5
    vertex -2.333 -5.526 5
  endloop
endfacet
facet normal 0 0 -1
  outer loop
    vertex -2.6470000000000002 -5.371 0
    vertex -2.333 -5.526 0
    vertex -2.333 -7 0
  endloop
endfacet
facet normal 0.4426385875519928 0.8967001063956538 0
  outer loop
    vertex -2.6470000000000002 -5.371 0
    vertex -2.333 -5.526 5
    vertex -2.333 -5.526 0
  endloop
endfacet
facet normal 0 0 1
  outer loop
    vertex -2.6470000000000002 -5.371 5
    vertex -2.333 -7 5
    vertex -2.333 -5.526 5
  endloop
endfacet
facet normal 0 0 -1
  outer loop
    vertex -2.6470000000000002 5.3790000000000004 0
    vertex -2.6470000000000002 7 0
    vertex -2.333 5.515 0
  endloop
endfacet
facet normal 0.39744340632407515 -0.9176266881305906 0
  outer loop
    vertex -2.6470000000000002 5.3790000000000004 0
    vertex -2.333 5.515 0
    vertex -2.6470000000000002 5.3790000000000004 5
  endloop
endfacet
facet normal 0.39744340632407515 -0.9176266881305906 0
  outer loop
    vertex -2.6470000000000002 5.3790000000000004 5
    vertex -2.333 5.515 0
    vertex -2.333 5.515 5
  endloop
endfacet
facet normal -3.489936697486118e-15 0 1
  outer loop
    vertex -2.6470000000000002 5.3790000000000004 5
    vertex -2.333 5.515 5
    vertex -2.6470000000000002 7 5
  endloop
endfacet
facet normal 0 0.9999999999999999 0
  outer loop
    vertex -2.6470000000000002 7 0
    vertex -2.6470000000000002 7 5
    vertex -2.027 7 5
  endloop
endfacet
facet normal 0 0 -1
  outer loop
    vertex -2.6470000000000002 7 0
    vertex -2.027 7 0
    vertex -2.333 5.515 0
  endloop
endfacet
facet normal 0 1 0
  outer loop
    vertex -2.6470000000000002 7 0
    vertex -2.027 7 5
    vertex -2.027 7 0
  endloop
endfacet
facet normal 0 0 1
  outer loop
    vertex -2.6470000000000002 7 5
    vertex -2.333 5.515 5
    vertex -2.027 7 5
  endloop
endfacet
facet normal 0 0 -0.9999999999999999
  outer loop
    vertex -2.333 -7 0
    vertex -2.333 -5.526 0
    vertex -2.027 -5.6370000000000005 0
  endloop
endfacet
facet normal 0 0 -0.9999999999999999
  outer loop
    vertex -2.333 -7 0
    vertex -2.027 -5.6370000000000005 0
    vertex -1.687 -7 0
  endloop
endfacet
facet normal 0 -1 0
  outer loop
    vertex -2.333 -7 0
    vertex -1.687 -7 0
    vertex -2.333 -7 5
  endloop
endfacet
facet normal 0 0 0.9999999999999999
  outer loop
    vertex -2.333 -7 5
    vertex -2.027 -5.6370000000000005 5
    vertex -2.333 -5.526 5
  endloop
endfacet
facet normal 0 -1 0
  outer loop
    vertex -2.333 -7 5
    vertex -1.687 -7 0
    vertex -1.687 -7 5
  endloop
endfacet
facet normal 0 0 0.9999999999999999
  outer loop
    vertex -2.333 -7 5
    vertex -1.687 -7 5
    vertex -2.027 -5.6370000000000005 5
  endloop
endfacet
facet normal 0.3410029625539481 0.9400622210946628 0
  outer loop
    vertex -2.333 -5.526 0
    vertex -2.333 -5.526 5
    vertex -2.027 -5.6370000000000005 5
  endloop
endfacet
facet normal 0.34100296255394874 0.9400622210946624 0
  outer loop
    vertex -2.333 -5.526 0
    vertex -2.027 -5.6370000000000005 5
    vertex -2.027 -5.6370000000000005 0
  endloop
endfacet
facet normal 0.39609111143465137 -0.918211212871234 0
  outer loop
    vertex -2.333 5.515 0
    vertex -2.027 5.647 0
    vertex -2.333 5.515 5
  endloop
endfacet
facet normal 0 0 -1
  outer loop
    vertex -2.333 5.515 0
    vertex -2.027 7 0
    vertex -2.027 5.647 0
  endloop
endfacet
facet normal 0.39609111143465214 -0.9182112128712338 0
  outer loop
    vertex -2.333 5.515 5
    vertex -2.027 5.647 0
    vertex -2.027 5.647 5
  endloop
endfacet
facet normal 0 0 1
  outer loop
    vertex -2.333 5.515 5
    vertex -2.027 5.647 5
    vertex -2.027 7 5
  endloop
endfacet
facet normal 0.3401881189967639 0.9403574021048824 0
  outer loop
    vertex -2.027 -5.6370000000000005 0
    vertex -2.027 -5.6370000000000005 5
    vertex -1.687 -5.76 5
  endloop
endfacet
facet normal 0 0 -1
  outer loop
    vertex -2.027 -5.6370000000000005 0
    vertex -1.687 -5.76 0
    vertex -1.687 -7 0
  endloop
endfacet
facet normal 0.3401881189967645 0.9403574021048822 0
  outer loop
    vertex -2.027 -5.6370000000000005 0
    vertex -1.687 -5.76 5
    vertex -1.687 -5.76 0
  endloop
endfacet
facet normal 0 0 1
  outer loop
    vertex -2.027 -5.6370000000000005 5
    vertex -1.687 -7 5
    vertex -1.687 -5.76 5
  endloop
endfacet
facet normal 0 0 -1
  outer loop
    vertex -2.027 5.647 0
    vertex -2.027 7 0
    vertex -1.687 5.745 0
  endloop
endfacet
facet normal 0.2769599510376369 -0.960881462783641 0
  outer loop
    vertex -2.027 5.647 0
    vertex -1.687 5.745 0
    vertex -2.027 5.647 5
  endloop
endfacet
facet normal 0.2769599510376374 -0.9608814627836408 0
  outer loop
    vertex -2.027 5.647 5
    vertex -1.687 5.745 0
    vertex -1.687 5.745 5
  endloop
endfacet
facet normal 0 0 1
  outer loop
    vertex -2.027 5.647 5
    vertex -1.687 5.745 5
    vertex -2.027 7 5
  endloop
endfacet
facet normal 0 0.9999999999999999 0
  outer loop
    vertex -2.027 7 0
    vertex -2.027 7 5
    vertex -1.364 7 5
  endloop
endfacet
facet normal 0 0 -1
  outer loop
    vertex -2.027 7 0
    vertex -1.364 7 0
    vertex -1.687 5.745 0
  endloop
endfacet
facet normal 0 1 0
  outer loop
    vertex -2.027 7 0
    vertex -1.364 7 5
    vertex -1.364 7 0
  endloop
endfacet
facet normal 0 0 1
  outer loop
    vertex -2.027 7 5
    vertex -1.687 5.745 5
    vertex -1.364 7 5
  endloop
endfacet
facet normal 0 0 -1
  outer loop
    vertex -1.687 -7 0
    vertex -1.687 -5.76 0
    vertex -1.364 -5.83 0
  endloop
endfacet
facet normal 0 0 -1
  outer loop
    vertex -1.687 -7 0
    vertex -1.364 -5.83 0
    vertex -1.034 -7 0
  endloop
endfacet
facet normal 0 -0.9999999999999999 0
  outer loop
    vertex -1.687 -7 0
    vertex -1.034 -7 0
    vertex -1.687 -7 5
  endloop
endfacet
facet normal 0 0 1
  outer loop
    vertex -1.687 -7 5
    vertex -1.364 -5.83 5
    vertex -1.687 -5.76 5
  endloop
endfacet
facet normal 0 -0.9999999999999999 0
  outer loop
    vertex -1.687 -7 5
    vertex -1.034 -7 0
    vertex -1.034 -7 5
  endloop
endfacet
facet normal 0 0 1
  outer loop
    vertex -1.687 -7 5
    vertex -1.034 -7 5
    vertex -1.364 -5.83 5
  endloop
endfacet
facet normal 0.2118015144735579 0.9773127024994134 0
  outer loop
    vertex -1.687 -5.76 0
    vertex -1.687 -5.76 5
    vertex -1.364 -5.83 5
  endloop
endfacet
facet normal 0.2118015144735579 0.9773127024994134 0
  outer loop
    vertex -1.687 -5.76 0
    vertex -1.364 -5.83 5
    vertex -1.364 -5.83 0
  endloop
endfacet
facet normal 0.2766852498220039 -0.9609605988441645 0
  outer loop
    vertex -1.687 5.745 0
    vertex -1.364 5.838 0
    vertex -1.687 5.745 5
  endloop
endfacet
facet normal 0 0 -1
  outer loop
    vertex -1.687 5.745 0
    vertex -1.364 7 0
    vertex -1.364 5.838 0
  endloop
endfacet
facet normal 0.2766852498220039 -0.9609605988441645 0
  outer loop
    vertex -1.687 5.745 5
    vertex -1.364 5.838 0
    vertex -1.364 5.838 5
  endloop
endfacet
facet normal 0 0 1
  outer loop
    vertex -1.687 5.745 5
    vertex -1.364 5.838 5
    vertex -1.364 7 5
  endloop
endfacet
facet normal 0.21316707521672573 0.9770157614099922 0
  outer loop
    vertex -1.364 -5.83 0
    vertex -1.364 -5.83 5
    vertex -1.034 -5.902 5
  endloop
endfacet
facet normal 0 0 -1
  outer loop
    vertex -1.364 -5.83 0
    vertex -1.034 -5.902 0
    vertex -1.034 -7 0
  endloop
endfacet
facet normal 0.21316707521672573 0.9770157614099922 0
  outer loop
    vertex -1.364 -5.83 0
    vertex -1.034 -5.902 5
    vertex -1.034 -5.902 0
  endloop
endfacet
facet normal 0 0 1
  outer loop
    vertex -1.364 -5.83 5
    vertex -1.034 -7 5
    vertex -1.034 -5.902 5
  endloop
endfacet
facet normal 0 0 -0.9999999999999999
  outer loop
    vertex -1.364 5.838 0
    vertex -1.364 7 0
    vertex -1.034 5.892 0
  endloop
endfacet
facet normal 0.1614885681105416 -0.9868745828977495 0
  outer loop
    vertex -1.364 5.838 0
    vertex -1.034 5.892 0
    vertex -1.364 5.838 5
  endloop
endfacet
facet normal 0.1614885681105416 -0.9868745828977495 0
  outer loop
    vertex -1.364 5.838 5
    vertex -1.034 5.892 0
    vertex -1.034 5.892 5
  endloop
endfacet
facet normal 0 0 0.9999999999999999
  outer loop
    vertex -1.364 5.838 5
    vertex -1.034 5.892 5
    vertex -1.364 7 5
  endloop
endfacet
facet normal 0 1 0
  outer loop
    vertex -1.364 7 0
    vertex -1.364 7 5
    vertex -0.686 7 5
  endloop
endfacet
facet normal 0 0 -0.9999999999999999
  outer loop
    vertex -1.364 7 0
    vertex -0.686 7 0
    vertex -1.034 5.892 0
  endloop
endfacet
facet normal 0 1 0
  outer loop
    vertex -1.364 7 0
    vertex -0.686 7 5
    vertex -0.686 7 0
  endloop
endfacet
facet normal 0 0 0.9999999999999999
  outer loop
    vertex -1.364 7 5
    vertex -1.034 5.892 5
    vertex -0.686 7 5
  endloop
endfacet
facet normal 0 0 -0.9999999999999999
  outer loop
    vertex -1.034 -7 0
    vertex -1.034 -5.902 0
    vertex -0.686 -5.94 0
  endloop
endfacet
facet normal 0 0 -1
  outer loop
    vertex -1.034 -7 0
    vertex -0.686 -5.94 0
    vertex -0.343 -7 0
  endloop
endfacet
facet normal 0 -1 0
  outer loop
    vertex -1.034 -7 0
    vertex -0.343 -7 0
    vertex -1.034 -7 5
  endloop
endfacet
facet normal 0 0 0.9999999999999999
  outer loop
    vertex -1.034 -7 5
    vertex -0.686 -5.94 5
    vertex -1.034 -5.902 5
  endloop
endfacet
facet normal 0 -1 0
  outer loop
    vertex -1.034 -7 5
    vertex -0.343 -7 0
    vertex -0.343 -7 5
  endloop
endfacet
facet normal 0 0 1
  outer loop
    vertex -1.034 -7 5
    vertex -0.343 -7 5
    vertex -0.686 -5.94 5
  endloop
endfacet
facet normal 0.10855016368347233 0.9940909726802127 0
  outer loop
    vertex -1.034 -5.902 0
    vertex -1.034 -5.902 5
    vertex -0.686 -5.94 5
  endloop
endfacet
facet normal 0.10855016368347216 0.9940909726802126 0
  outer loop
    vertex -1.034 -5.902 0
    vertex -0.686 -5.94 5
    vertex -0.686 -5.94 0
  endloop
endfacet
facet normal 0.16439898730535696 -0.9863939238321437 0
  outer loop
    vertex -1.034 5.892 0
    vertex -0.686 5.95 0
    vertex -1.034 5.892 5
  endloop
endfacet
facet normal 0 0 -1
  outer loop
    vertex -1.034 5.892 0
    vertex -0.686 7 0
    vertex -0.686 5.95 0
  endloop
endfacet
facet normal 0.16439898730535674 -0.9863939238321439 0
  outer loop
    vertex -1.034 5.892 5
    vertex -0.686 5.95 0
    vertex -0.686 5.95 5
  endloop
endfacet
facet normal 0 0 1
  outer loop
    vertex -1.034 5.892 5
    vertex -0.686 5.95 5
    vertex -0.686 7 5
  endloop
endfacet
facet normal 0.11011347764193927 0.9939190218733104 0
  outer loop
    vertex -0.686 -5.94 0
    vertex -0.686 -5.94 5
    vertex -0.343 -5.978 5
  endloop
endfacet
facet normal 0 0 -1
  outer loop
    vertex -0.686 -5.94 0
    vertex -0.343 -5.978 0
    vertex -0.343 -7 0
  endloop
endfacet
facet normal 0.11011347764193923 0.9939190218733103 0
  outer loop
    vertex -0.686 -5.94 0
    vertex -0.343 -5.978 5
    vertex -0.343 -5.978 0
  endloop
endfacet
facet normal 0 0 1
  outer loop
    vertex -0.686 -5.94 5
    vertex -0.343 -7 5
    vertex -0.343 -5.978 5
  endloop
endfacet
facet normal 0 0 -0.9999999999999999
  outer loop
    vertex -0.686 5.95 0
    vertex -0.686 7 0
    vertex -0.343 5.9750000000000005 0
  endloop
endfacet
facet normal 0.07269346431044536 -0.9973543303392962 0
  outer loop
    vertex -0.686 5.95 0
    vertex -0.343 5.9750000000000005 0
    vertex -0.686 5.95 5
  endloop
endfacet
facet normal 0.07269346431044534 -0.9973543303392961 0
  outer loop
    vertex -0.686 5.95 5
    vertex -0.343 5.9750000000000005 0
    vertex -0.343 5.9750000000000005 5
  endloop
endfacet
facet normal 0 0 0.9999999999999999
  outer loop
    vertex -0.686 5.95 5
    vertex -0.343 5.9750000000000005 5
    vertex -0.686 7 5
  endloop
endfacet
facet normal 0 0.9999999999999999 0
  outer loop
    vertex -0.686 7 0
    vertex -0.686 7 5
    vertex 0 7 5
  endloop
endfacet
facet normal 0 0 -1
  outer loop
    vertex -0.686 7 0
    vertex 0 7 0
    vertex -0.343 5.9750000000000005 0
  endloop
endfacet
facet normal 0 0.9999999999999999 0
  outer loop
    vertex -0.686 7 0
    vertex 0 7 5
    vertex 0 7 0
  endloop
endfacet
facet normal 0 0 1
  outer loop
    vertex -0.686 7 5
    vertex -0.343 5.9750000000000005 5
    vertex 0 7 5
  endloop
endfacet
facet normal 0 0 -1
  outer loop
    vertex -0.343 -7 0
    vertex -0.343 -5.978 0
    vertex 0 -5.978 0
  endloop
endfacet
facet normal 0 0 -1
  outer loop
    vertex -0.343 -7 0
    vertex 0 -5.978 0
    vertex 0.343 -7 0
  endloop
endfacet
facet normal 0 -0.9999999999999999 0
  outer loop
    vertex -0.343 -7 0
    vertex 0.343 -7 0
    vertex -0.343 -7 5
  endloop
endfacet
facet normal 0 0 1
  outer loop
    vertex -0.343 -7 5
    vertex 0 -5.978 5
    vertex -0.343 -5.978 5
  endloop
endfacet
facet normal 0 -0.9999999999999999 0
  outer loop
    vertex -0.343 -7 5
    vertex 0.343 -7 0
    vertex 0.343 -7 5
  endloop
endfacet
facet normal 0 0 1
  outer loop
    vertex -0.343 -7 5
    vertex 0.343 -7 5
    vertex 0 -5.978 5
  endloop
endfacet
facet normal 0 0.9999999999999999 0
  outer loop
    vertex -0.343 -5.978 0
    vertex -0.343 -5.978 5
    vertex 0 -5.978 5
  endloop
endfacet
facet normal 0 0.9999999999999999 0
  outer loop
    vertex -0.343 -5.978 0
    vertex 0 -5.978 5
    vertex 0 -5.978 0
  endloop
endfacet
facet normal 0.07269346431044278 -0.9973543303392963 0
  outer loop
    vertex -0.343 5.9750000000000005 0
    vertex 0 6 0
    vertex -0.343 5.9750000000000005 5
  endloop
endfacet
facet normal 0 0 -1
  outer loop
    vertex -0.343 5.9750000000000005 0
    vertex 0 7 0
    vertex 0 6 0
  endloop
endfacet
facet normal 0.07269346431044278 -0.9973543303392963 0
  outer loop
    vertex -0.343 5.9750000000000005 5
    vertex 0 6 0
    vertex 0 6 5
  endloop
endfacet
facet normal 0 0 1
  outer loop
    vertex -0.343 5.9750000000000005 5
    vertex 0 6 5
    vertex 0 7 5
  endloop
endfacet
facet normal 0 0.9999999999999999 0
  outer loop
    vertex 0 -5.978 0
    vertex 0 -5.978 5
    vertex 0.343 -5.978 5
  endloop
endfacet
facet normal 0 0 -1
  outer loop
    vertex 0 -5.978 0
    vertex 0.343 -5.978 0
    vertex 0.343 -7 0
  endloop
endfacet
facet normal 0 0.9999999999999999 0
  outer loop
    vertex 0 -5.978 0
    vertex 0.343 -5.978 5
    vertex 0.343 -5.978 0
  endloop
endfacet
facet normal 0 0 1
  outer loop
    vertex 0 -5.978 5
    vertex 0.343 -7 5
    vertex 0.343 -5.978 5
  endloop
endfacet
facet normal 0 0 -1
  outer loop
    vertex 0 6 0
    vertex 0 7 0
    vertex 0.343 5.9750000000000005 0
  endloop
endfacet
facet normal -0.07269346431044278 -0.9973543303392963 0
  outer loop
    vertex 0 6 0
    vertex 0.343 5.9750000000000005 0
    vertex 0 6 5
  endloop
endfacet
facet normal -0.07269346431044278 -0.9973543303392963 0
  outer loop
    vertex 0 6 5
    vertex 0.343 5.9750000000000005 0
    vertex 0.343 5.9750000000000005 5
  endloop
endfacet
facet normal 0 0 1
  outer loop
    vertex 0 6 5
    vertex 0.343 5.9750000000000005 5
    vertex 0 7 5
  endloop
endfacet
facet normal 0 0.9999999999999999 0
  outer loop
    vertex 0 7 0
    vertex 0 7 5
    vertex 0.686 7 5
  endloop
endfacet
facet normal 0 0 -1
  outer loop
    vertex 0 7 0
    vertex 0.686 7 0
    vertex 0.343 5.9750000000000005 0
  endloop
endfacet
facet normal 0 0.9999999999999999 0
  outer loop
    vertex 0 7 0
    vertex 0.686 7 5
    vertex 0.686 7 0
  endloop
endfacet
facet normal 0 0 1
  outer loop
    vertex 0 7 5
    vertex 0.343 5.9750000000000005 5
    vertex 0.686 7 5
  endloop
endfacet
facet normal 0 0 -1
  outer loop
    vertex 0.343 -7 0
    vertex 0.343 -5.978 0
    vertex 0.686 -5.94 0
  endloop
endfacet
facet normal 0 0 -1
  outer loop
    vertex 0.343 -7 0
    vertex 0.686 -5.94 0
    vertex 1.034 -7 0
  endloop
endfacet
facet normal 0 -1 0
  outer loop
    vertex 0.343 -7 0
    vertex 1.034 -7 0
    vertex 0.343 -7 5
  endloop
endfacet
facet normal 0 0 1
  outer loop
    vertex 0.343 -7 5
    vertex 0.686 -5.94 5
    vertex 0.343 -5.978 5
  endloop
endfacet
facet normal 0 -1 0
  outer loop
    vertex 0.343 -7 5
    vertex 1.034 -7 0
    vertex 1.034 -7 5
  endloop
endfacet
facet normal 0 0 1
  outer loop
    vertex 0.343 -7 5
    vertex 1.034 -7 5
    vertex 0.686 -5.94 5
  endloop
endfacet
facet normal -0.11011347764193923 0.9939190218733103 0
  outer loop
    vertex 0.343 -5.978 0
    vertex 0.343 -5.978 5
    vertex 0.686 -5.94 5
  endloop
endfacet
facet normal -0.11011347764193927 0.9939190218733104 0
  outer loop
    vertex 0.343 -5.978 0
    vertex 0.686 -5.94 5
    vertex 0.686 -5.94 0
  endloop
endfacet
facet normal -0.07269346431044534 -0.9973543303392961 0
  outer loop
    vertex 0.343 5.9750000000000005 0
    vertex 0.686 5.95 0
    vertex 0.343 5.9750000000000005 5
  endloop
endfacet
facet normal 0 0 -0.9999999999999999
  outer loop
    vertex 0.343 5.9750000000000005 0
    vertex 0.686 7 0
    vertex 0.686 5.95 0
  endloop
endfacet
facet normal -0.07269346431044536 -0.9973543303392962 0
  outer loop
    vertex 0.343 5.9750000000000005 5
    vertex 0.686 5.95 0
    vertex 0.686 5.95 5
  endloop
endfacet
facet normal 0 0 0.9999999999999999
  outer loop
    vertex 0.343 5.9750000000000005 5
    vertex 0.686 5.95 5
    vertex 0.686 7 5
  endloop
endfacet
facet normal -0.10855016368347216 0.9940909726802126 0
  outer loop
    vertex 0.686 -5.94 0
    vertex 0.686 -5.94 5
    vertex 1.034 -5.902 5
  endloop
endfacet
facet normal 0 0 -0.9999999999999999
  outer loop
    vertex 0.686 -5.94 0
    vertex 1.034 -5.902 0
    vertex 1.034 -7 0
  endloop
endfacet
facet normal -0.10855016368347233 0.9940909726802127 0
  outer loop
    vertex 0.686 -5.94 0
    vertex 1.034 -5.902 5
    vertex 1.034 -5.902 0
  endloop
endfacet
facet normal 0 0 0.9999999999999999
  outer loop
    vertex 0.686 -5.94 5
    vertex 1.034 -7 5
    vertex 1.034 -5.902 5
  endloop
endfacet
facet normal 0 0 -1
  outer loop
    vertex 0.686 5.95 0
    vertex 0.686 7 0
    vertex 1.034 5.892 0
  endloop
endfacet
facet normal -0.16439898730535674 -0.9863939238321439 0
  outer loop
    vertex 0.686 5.95 0
    vertex 1.034 5.892 0
    vertex 0.686 5.95 5
  endloop
endfacet
facet normal -0.16439898730535696 -0.9863939238321437 0
  outer loop
    vertex 0.686 5.95 5
    vertex 1.034 5.892 0
    vertex 1.034 5.892 5
  endloop
endfacet
facet normal 0 0 1
  outer loop
    vertex 0.686 5.95 5
    vertex 1.034 5.892 5
    vertex 0.686 7 5
  endloop
endfacet
facet normal 0 1 0
  outer loop
    vertex 0.686 7 0
    vertex 0.686 7 5
    vertex 1.364 7 5
  endloop
endfacet
facet normal 0 0 -0.9999999999999999
  outer loop
    vertex 0.686 7 0
    vertex 1.364 7 0
    vertex 1.034 5.892 0
  endloop
endfacet
facet normal 0 1 0
  outer loop
    vertex 0.686 7 0
    vertex 1.364 7 5
    vertex 1.364 7 0
  endloop
endfacet
facet normal 0 0 0.9999999999999999
  outer loop
    vertex 0.686 7 5
    vertex 1.034 5.892 5
    vertex 1.364 7 5
  endloop
endfacet
facet normal 0 0 -1
  outer loop
    vertex 1.034 -7 0
    vertex 1.034 -5.902 0
    vertex 1.364 -5.83 0
  endloop
endfacet
facet normal 0 0 -1
  outer loop
    vertex 1.034 -7 0
    vertex 1.364 -5.83 0
    vertex 1.688 -7 0
  endloop
endfacet
facet normal 0 -1 0
  outer loop
    vertex 1.034 -7 0
    vertex 1.688 -7 0
    vertex 1.034 -7 5
  endloop
endfacet
facet normal 0 0 1
  outer loop
    vertex 1.034 -7 5
    vertex 1.364 -5.83 5
    vertex 1.034 -5.902 5
  endloop
endfacet
facet normal 0 -1 0
  outer loop
    vertex 1.034 -7 5
    vertex 1.688 -7 0
    vertex 1.688 -7 5
  endloop
endfacet
facet normal 0 0 1
  outer loop
    vertex 1.034 -7 5
    vertex 1.688 -7 5
    vertex 1.364 -5.83 5
  endloop
endfacet
facet normal -0.21316707521672573 0.9770157614099922 0
  outer loop
    vertex 1.034 -5.902 0
    vertex 1.034 -5.902 5
    vertex 1.364 -5.83 5
  endloop
endfacet
facet normal -0.21316707521672573 0.9770157614099922 0
  outer loop
    vertex 1.034 -5.902 0
    vertex 1.364 -5.83 5
    vertex 1.364 -5.83 0
  endloop
endfacet
facet normal -0.1614885681105416 -0.9868745828977495 0
  outer loop
    vertex 1.034 5.892 0
    vertex 1.364 5.838 0
    vertex 1.034 5.892 5
  endloop
endfacet
facet normal 0 0 -0.9999999999999999
  outer loop
    vertex 1.034 5.892 0
    vertex 1.364 7 0
    vertex 1.364 5.838 0
  endloop
endfacet
facet normal -0.1614885681105416 -0.9868745828977495 0
  outer loop
    vertex 1.034 5.892 5
    vertex 1.364 5.838 0
    vertex 1.364 5.838 5
  endloop
endfacet
facet normal 0 0 0.9999999999999999
  outer loop
    vertex 1.034 5.892 5
    vertex 1.364 5.838 5
    vertex 1.364 7 5
  endloop
endfacet
facet normal -0.2111770018047195 0.9774478369246973 0
  outer loop
    vertex 1.364 -5.83 0
    vertex 1.364 -5.83 5
    vertex 1.688 -5.76 5
  endloop
endfacet
facet normal 0 0 -1
  outer loop
    vertex 1.364 -5.83 0
    vertex 1.688 -5.76 0
    vertex 1.688 -7 0
  endloop
endfacet
facet normal -0.2111770018047195 0.9774478369246973 0
  outer loop
    vertex 1.364 -5.83 0
    vertex 1.688 -5.76 5
    vertex 1.688 -5.76 0
  endloop
endfacet
facet normal 0 0 1
  outer loop
    vertex 1.364 -5.83 5
    vertex 1.688 -7 5
    vertex 1.688 -5.76 5
  endloop
endfacet
facet normal 0 0 -0.9999999999999999
  outer loop
    vertex 1.364 5.838 0
    vertex 1.364 7 0
    vertex 1.688 5.745 0
  endloop
endfacet
facet normal -0.2758963788837906 -0.9611873844983672 0
  outer loop
    vertex 1.364 5.838 0
    vertex 1.688 5.745 0
    vertex 1.364 5.838 5
  endloop
endfacet
facet normal -0.2758963788837906 -0.9611873844983672 0
  outer loop
    vertex 1.364 5.838 5
    vertex 1.688 5.745 0
    vertex 1.688 5.745 5
  endloop
endfacet
facet normal 0 0 0.9999999999999999
  outer loop
    vertex 1.364 5.838 5
    vertex 1.688 5.745 5
    vertex 1.364 7 5
  endloop
endfacet
facet normal 0 1 0
  outer loop
    vertex 1.364 7 0
    vertex 1.364 7 5
    vertex 2.027 7 5
  endloop
endfacet
facet normal 0 0 -1
  outer loop
    vertex 1.364 7 0
    vertex 2.027 7 0
    vertex 1.688 5.745 0
  endloop
endfacet
facet normal 0 0.9999999999999999 0
  outer loop
    vertex 1.364 7 0
    vertex 2.027 7 5
    vertex 2.027 7 0
  endloop
endfacet
facet normal 0 0 1
  outer loop
    vertex 1.364 7 5
    vertex 1.688 5.745 5
    vertex 2.027 7 5
  endloop
endfacet
facet normal 0 0 -1
  outer loop
    vertex 1.688 -7 0
    vertex 1.688 -5.76 0
    vertex 2.027 -5.6370000000000005 0
  endloop
endfacet
facet normal 0 0 -1
  outer loop
    vertex 1.688 -7 0
    vertex 2.027 -5.6370000000000005 0
    vertex 2.333 -7 0
  endloop
endfacet
facet normal 0 -1 0
  outer loop
    vertex 1.688 -7 0
    vertex 2.333 -7 0
    vertex 1.688 -7 5
  endloop
endfacet
facet normal 0 0 1
  outer loop
    vertex 1.688 -7 5
    vertex 2.027 -5.6370000000000005 5
    vertex 1.688 -5.76 5
  endloop
endfacet
facet normal 0 -1 0
  outer loop
    vertex 1.688 -7 5
    vertex 2.333 -7 0
    vertex 2.333 -7 5
  endloop
endfacet
facet normal 0 0 1
  outer loop
    vertex 1.688 -7 5
    vertex 2.333 -7 5
    vertex 2.027 -5.6370000000000005 5
  endloop
endfacet
facet normal -0.3410750356311565 0.9400360738127049 0
  outer loop
    vertex 1.688 -5.76 0
    vertex 1.688 -5.76 5
    vertex 2.027 -5.6370000000000005 5
  endloop
endfacet
facet normal -0.3410750356311559 0.9400360738127052 0
  outer loop
    vertex 1.688 -5.76 0
    vertex 2.027 -5.6370000000000005 5
    vertex 2.027 -5.6370000000000005 0
  endloop
endfacet
facet normal -0.27771401708607885 -0.960663793797764 0
  outer loop
    vertex 1.688 5.745 0
    vertex 2.027 5.647 0
    vertex 1.688 5.745 5
  endloop
endfacet
facet normal 0 0 -1
  outer loop
    vertex 1.688 5.745 0
    vertex 2.027 7 0
    vertex 2.027 5.647 0
  endloop
endfacet
facet normal -0.27771401708607835 -0.9606637937977643 0
  outer loop
    vertex 1.688 5.745 5
    vertex 2.027 5.647 0
    vertex 2.027 5.647 5
  endloop
endfacet
facet normal 0 0 1
  outer loop
    vertex 1.688 5.745 5
    vertex 2.027 5.647 5
    vertex 2.027 7 5
  endloop
endfacet
facet normal -0.34100296255394874 0.9400622210946624 0
  outer loop
    vertex 2.027 -5.6370000000000005 0
    vertex 2.027 -5.6370000000000005 5
    vertex 2.333 -5.526 5
  endloop
endfacet
facet normal 0 0 -0.9999999999999999
  outer loop
    vertex 2.027 -5.6370000000000005 0
    vertex 2.333 -5.526 0
    vertex 2.333 -7 0
  endloop
endfacet
facet normal -0.3410029625539481 0.9400622210946628 0
  outer loop
    vertex 2.027 -5.6370000000000005 0
    vertex 2.333 -5.526 5
    vertex 2.333 -5.526 0
  endloop
endfacet
facet normal 0 0 0.9999999999999999
  outer loop
    vertex 2.027 -5.6370000000000005 5
    vertex 2.333 -7 5
    vertex 2.333 -5.526 5
  endloop
endfacet
facet normal 0 0 -1
  outer loop
    vertex 2.027 5.647 0
    vertex 2.027 7 0
    vertex 2.333 5.515 0
  endloop
endfacet
facet normal -0.39609111143465214 -0.9182112128712338 0
  outer loop
    vertex 2.027 5.647 0
    vertex 2.333 5.515 0
    vertex 2.027 5.647 5
  endloop
endfacet
facet normal -0.39609111143465137 -0.918211212871234 0
  outer loop
    vertex 2.027 5.647 5
    vertex 2.333 5.515 0
    vertex 2.333 5.515 5
  endloop
endfacet
facet normal 0 0 1
  outer loop
    vertex 2.027 5.647 5
    vertex 2.333 5.515 5
    vertex 2.027 7 5
  endloop
endfacet
facet normal 0 1 0
  outer loop
    vertex 2.027 7 0
    vertex 2.027 7 5
    vertex 2.6470000000000002 7 5
  endloop
endfacet
facet normal 0 0 -1
  outer loop
    vertex 2.027 7 0
    vertex 2.6470000000000002 7 0
    vertex 2.333 5.515 0
  endloop
endfacet
facet normal 0 0.9999999999999999 0
  outer loop
    vertex 2.027 7 0
    vertex 2.6470000000000002 7 5
    vertex 2.6470000000000002 7 0
  endloop
endfacet
facet normal 0 0 1
  outer loop
    vertex 2.027 7 5
    vertex 2.333 5.515 5
    vertex 2.6470000000000002 7 5
  endloop
endfacet
facet normal 0 0 -1
  outer loop
    vertex 2.333 -7 0
    vertex 2.333 -5.526 0
    vertex 2.6470000000000002 -5.371 0
  endloop
endfacet
facet normal 0 0 -1
  outer loop
    vertex 2.333 -7 0
    vertex 2.6470000000000002 -5.371 0
    vertex 2.9410000000000003 -7 0
  endloop
endfacet
facet normal 0 -1 0
  outer loop
    vertex 2.333 -7 0
    vertex 2.9410000000000003 -7 0
    vertex 2.333 -7 5
  endloop
endfacet
facet normal 0 0 1
  outer loop
    vertex 2.333 -7 5
    vertex 2.6470000000000002 -5.371 5
    vertex 2.333 -5.526 5
  endloop
endfacet
facet normal 0 -1 0
  outer loop
    vertex 2.333 -7 5
    vertex 2.9410000000000003 -7 0
    vertex 2.9410000000000003 -7 5
  endloop
endfacet
facet normal 0 0 1
  outer loop
    vertex 2.333 -7 5
    vertex 2.9410000000000003 -7 5
    vertex 2.6470000000000002 -5.371 5
  endloop
endfacet
facet normal -0.4426385875519928 0.8967001063956538 0
  outer loop
    vertex 2.333 -5.526 0
    vertex 2.333 -5.526 5
    vertex 2.6470000000000002 -5.371 5
  endloop
endfacet
facet normal -0.4426385875519928 0.8967001063956538 0
  outer loop
    vertex 2.333 -5.526 0
    vertex 2.6470000000000002 -5.371 5
    vertex 2.6470000000000002 -5.371 0
  endloop
endfacet
facet normal -0.39744340632407515 -0.9176266881305906 0
  outer loop
    vertex 2.333 5.515 0
    vertex 2.6470000000000002 5.3790000000000004 0
    vertex 2.333 5.515 5
  endloop
endfacet
facet normal 0 0 -1
  outer loop
    vertex 2.333 5.515 0
    vertex 2.6470000000000002 7 0
    vertex 2.6470000000000002 5.3790000000000004 0
  endloop
endfacet
facet normal -0.39744340632407515 -0.9176266881305906 0
  outer loop
    vertex 2.333 5.515 5
    vertex 2.6470000000000002 5.3790000000000004 0
    vertex 2.6470000000000002 5.3790000000000004 5
  endloop
endfacet
facet normal 0 0 1
  outer loop
    vertex 2.333 5.515 5
    vertex 2.6470000000000002 5.3790000000000004 5
    vertex 2.6470000000000002 7 5
  endloop
endfacet
facet normal -0.4423260971397741 0.8968542935109889 0
  outer loop
    vertex 2.6470000000000002 -5.371 0
    vertex 2.6470000000000002 -5.371 5
    vertex 2.9410000000000003 -5.226 5
  endloop
endfacet
facet normal 0 0 -1
  outer loop
    vertex 2.6470000000000002 -5.371 0
    vertex 2.9410000000000003 -5.226 0
    vertex 2.9410000000000003 -7 0
  endloop
endfacet
facet normal -0.44232609713977505 0.8968542935109887 0
  outer loop
    vertex 2.6470000000000002 -5.371 0
    vertex 2.9410000000000003 -5.226 5
    vertex 2.9410000000000003 -5.226 0
  endloop
endfacet
facet normal 0 0 1
  outer loop
    vertex 2.6470000000000002 -5.371 5
    vertex 2.9410000000000003 -7 5
    vertex 2.9410000000000003 -5.226 5
  endloop
endfacet
facet normal 0 0 -1
  outer loop
    vertex 2.6470000000000002 5.3790000000000004 0
    vertex 2.6470000000000002 7 0
    vertex 2.9410000000000003 5.218 0
  endloop
endfacet
facet normal -0.48031462286558485 -0.8770962678415016 0
  outer loop
    vertex 2.6470000000000002 5.3790000000000004 0
    vertex 2.9410000000000003 5.218 0
    vertex 2.6470000000000002 5.3790000000000004 5
  endloop
endfacet
facet normal -0.48031462286558574 -0.8770962678415011 0
  outer loop
    vertex 2.6470000000000002 5.3790000000000004 5
    vertex 2.9410000000000003 5.218 0
    vertex 2.9410000000000003 5.218 5
  endloop
endfacet
facet normal 0 0 1
  outer loop
    vertex 2.6470000000000002 5.3790000000000004 5
    vertex 2.9410000000000003 5.218 5
    vertex 2.6470000000000002 7 5
  endloop
endfacet
facet normal 0 1 0
  outer loop
    vertex 2.6470000000000002 7 0
    vertex 2.6470000000000002 7 5
    vertex 3.243 7 5
  endloop
endfacet
facet normal 0 0 -1
  outer loop
    vertex 2.6470000000000002 7 0
    vertex 3.243 7 0
    vertex 2.9410000000000003 5.218 0
  endloop
endfacet
facet normal 0 1 0
  outer loop
    vertex 2.6470000000000002 7 0
    vertex 3.243 7 5
    vertex 3.243 7 0
  endloop
endfacet
facet normal 0 0 1
  outer loop
    vertex 2.6470000000000002 7 5
    vertex 2.9410000000000003 5.218 5
    vertex 3.243 7 5
  endloop
endfacet
facet normal 0 0 -1
  outer loop
    vertex 2.9410000000000003 -7 0
    vertex 2.9410000000000003 -5.226 0
    vertex 3.243 -5.0360000000000005 0
  endloop
endfacet
facet normal 0 0 -1
  outer loop
    vertex 2.9410000000000003 -7 0
    vertex 3.243 -5.0360000000000005 0
    vertex 3.529 -7 0
  endloop
endfacet
facet normal 0 -1 0
  outer loop
    vertex 2.9410000000000003 -7 0
    vertex 3.529 -7 0
    vertex 2.9410000000000003 -7 5
  endloop
endfacet
facet normal 6.631314869678477e-15 0 1
  outer loop
    vertex 2.9410000000000003 -7 5
    vertex 3.243 -5.0360000000000005 5
    vertex 2.9410000000000003 -5.226 5
  endloop
endfacet
facet normal 0 -1 0
  outer loop
    vertex 2.9410000000000003 -7 5
    vertex 3.529 -7 0
    vertex 3.529 -7 5
  endloop
endfacet
facet normal 0 0 1
  outer loop
    vertex 2.9410000000000003 -7 5
    vertex 3.529 -7 5
    vertex 3.243 -5.0360000000000005 5
  endloop
endfacet
facet normal -0.532515895689219 0.8464200026218124 0
  outer loop
    vertex 2.9410000000000003 -5.226 0
    vertex 2.9410000000000003 -5.226 5
    vertex 3.243 -5.0360000000000005 5
  endloop
endfacet
facet normal -0.532515895689219 0.8464200026218124 0
  outer loop
    vertex 2.9410000000000003 -5.226 0
    vertex 3.243 -5.0360000000000005 5
    vertex 3.243 -5.0360000000000005 0
  endloop
endfacet
facet normal -0.4794627954189287 -0.8775622073728258 0
  outer loop
    vertex 2.9410000000000003 5.218 0
    vertex 3.243 5.053 0
    vertex 2.9410000000000003 5.218 5
  endloop
endfacet
facet normal 0 0 -1
  outer loop
    vertex 2.9410000000000003 5.218 0
    vertex 3.243 7 0
    vertex 3.243 5.053 0
  endloop
endfacet
facet normal -0.4794627954189287 -0.8775622073728258 0
  outer loop
    vertex 2.9410000000000003 5.218 5
    vertex 3.243 5.053 0
    vertex 3.243 5.053 5
  endloop
endfacet
facet normal 0 0 1
  outer loop
    vertex 2.9410000000000003 5.218 5
    vertex 3.243 5.053 5
    vertex 3.243 7 5
  endloop
endfacet
facet normal -0.530531664871171 0.8476651181740483 0
  outer loop
    vertex 3.243 -5.0360000000000005 0
    vertex 3.243 -5.0360000000000005 5
    vertex 3.529 -4.857 5
  endloop
endfacet
facet normal 0 0 -1
  outer loop
    vertex 3.243 -5.0360000000000005 0
    vertex 3.529 -4.857 0
    vertex 3.529 -7 0
  endloop
endfacet
facet normal -0.530531664871171 0.8476651181740483 0
  outer loop
    vertex 3.243 -5.0360000000000005 0
    vertex 3.529 -4.857 5
    vertex 3.529 -4.857 0
  endloop
endfacet
facet normal -5.796582267849624e-15 0 1
  outer loop
    vertex 3.243 -5.0360000000000005 5
    vertex 3.529 -7 5
    vertex 3.529 -4.857 5
  endloop
endfacet
facet normal 0 0 -1
  outer loop
    vertex 3.243 5.053 0
    vertex 3.243 7 0
    vertex 3.529 4.843 0
  endloop
endfacet
facet normal -0.5918522852315748 -0.8060464456010971 0
  outer loop
    vertex 3.243 5.053 0
    vertex 3.529 4.843 0
    vertex 3.243 5.053 5
  endloop
endfacet
facet normal -0.5918522852315748 -0.8060464456010971 0
  outer loop
    vertex 3.243 5.053 5
    vertex 3.529 4.843 0
    vertex 3.529 4.843 5
  endloop
endfacet
facet normal 0 0 1
  outer loop
    vertex 3.243 5.053 5
    vertex 3.529 4.843 5
    vertex 3.243 7 5
  endloop
endfacet
facet normal 0 0.9999999999999999 0
  outer loop
    vertex 3.243 7 0
    vertex 3.243 7 5
    vertex 3.8000000000000003 7 5
  endloop
endfacet
facet normal 0 0 -1
  outer loop
    vertex 3.243 7 0
    vertex 3.8000000000000003 7 0
    vertex 3.529 4.843 0
  endloop
endfacet
facet normal 0 1 0
  outer loop
    vertex 3.243 7 0
    vertex 3.8000000000000003 7 5
    vertex 3.8000000000000003 7 0
  endloop
endfacet
facet normal 0 0 1
  outer loop
    vertex 3.243 7 5
    vertex 3.529 4.843 5
    vertex 3.8000000000000003 7 5
  endloop
endfacet
facet normal 0 0 -1
  outer loop
    vertex 3.529 -7 0
    vertex 3.529 -4.857 0
    vertex 3.8000000000000003 -4.6370000000000005 0
  endloop
endfacet
facet normal 0 0 -1
  outer loop
    vertex 3.529 -7 0
    vertex 3.8000000000000003 -4.6370000000000005 0
    vertex 4.065 -7 0
  endloop
endfacet
facet normal 0 -1 0
  outer loop
    vertex 3.529 -7 0
    vertex 4.065 -7 0
    vertex 3.529 -7 5
  endloop
endfacet
facet normal 3.058713152407732e-15 0 1
  outer loop
    vertex 3.529 -7 5
    vertex 3.8000000000000003 -4.6370000000000005 5
    vertex 3.529 -4.857 5
  endloop
endfacet
facet normal 0 -0.9999999999999999 0
  outer loop
    vertex 3.529 -7 5
    vertex 4.065 -7 0
    vertex 4.065 -7 5
  endloop
endfacet
facet normal 0 0 1
  outer loop
    vertex 3.529 -7 5
    vertex 4.065 -7 5
    vertex 3.8000000000000003 -4.6370000000000005 5
  endloop
endfacet
facet normal -0.6302690097335097 0.776376825626281 0
  outer loop
    vertex 3.529 -4.857 0
    vertex 3.529 -4.857 5
    vertex 3.8000000000000003 -4.6370000000000005 5
  endloop
endfacet
facet normal -0.6302690097335117 0.7763768256262795 0
  outer loop
    vertex 3.529 -4.857 0
    vertex 3.8000000000000003 -4.6370000000000005 5
    vertex 3.8000000000000003 -4.6370000000000005 0
  endloop
endfacet
facet normal -0.5899418837155347 -0.8074457095298523 0
  outer loop
    vertex 3.529 4.843 0
    vertex 3.8000000000000003 4.6450000000000005 0
    vertex 3.529 4.843 5
  endloop
endfacet
facet normal 0 0 -1
  outer loop
    vertex 3.529 4.843 0
    vertex 3.8000000000000003 7 0
    vertex 3.8000000000000003 4.6450000000000005 0
  endloop
endfacet
facet normal -0.5899418837155368 -0.807445709529851 0
  outer loop
    vertex 3.529 4.843 5
    vertex 3.8000000000000003 4.6450000000000005 0
    vertex 3.8000000000000003 4.6450000000000005 5
  endloop
endfacet
facet normal 0 0 1
  outer loop
    vertex 3.529 4.843 5
    vertex 3.8000000000000003 4.6450000000000005 5
    vertex 3.8000000000000003 7 5
  endloop
endfacet
facet normal -0.6318031572467281 0.7751288734739961 0
  outer loop
    vertex 3.8000000000000003 -4.6370000000000005 0
    vertex 3.8000000000000003 -4.6370000000000005 5
    vertex 4.065 -4.421 5
  endloop
endfacet
facet normal 0 0 -1
  outer loop
    vertex 3.8000000000000003 -4.6370000000000005 0
    vertex 4.065 -4.421 0
    vertex 4.065 -7 0
  endloop
endfacet
facet normal -0.6318031572467281 0.7751288734739961 0
  outer loop
    vertex 3.8000000000000003 -4.6370000000000005 0
    vertex 4.065 -4.421 5
    vertex 4.065 -4.421 0
  endloop
endfacet
facet normal 0 0 1
  outer loop
    vertex 3.8000000000000003 -4.6370000000000005 5
    vertex 4.065 -7 5
    vertex 4.065 -4.421 5
  endloop
endfacet
facet normal 0 0 -1
  outer loop
    vertex 3.8000000000000003 4.6450000000000005 0
    vertex 3.8000000000000003 7 0
    vertex 4.065 4.406 0
  endloop
endfacet
facet normal -0.669738471881643 -0.7425970504126996 0
  outer loop
    vertex 3.8000000000000003 4.6450000000000005 0
    vertex 4.065 4.406 0
    vertex 3.8000000000000003 4.6450000000000005 5
  endloop
endfacet
facet normal -0.669738471881643 -0.7425970504126996 0
  outer loop
    vertex 3.8000000000000003 4.6450000000000005 5
    vertex 4.065 4.406 0
    vertex 4.065 4.406 5
  endloop
endfacet
facet normal 0 0 1
  outer loop
    vertex 3.8000000000000003 4.6450000000000005 5
    vertex 4.065 4.406 5
    vertex 3.8000000000000003 7 5
  endloop
endfacet
facet normal 0 1 0
  outer loop
    vertex 3.8000000000000003 7 0
    vertex 3.8000000000000003 7 5
    vertex 4.313 7 5
  endloop
endfacet
facet normal 0 0 -1
  outer loop
    vertex 3.8000000000000003 7 0
    vertex 4.313 7 0
    vertex 4.065 4.406 0
  endloop
endfacet
facet normal 0 1 0
  outer loop
    vertex 3.8000000000000003 7 0
    vertex 4.313 7 5
    vertex 4.313 7 0
  endloop
endfacet
facet normal 0 0 1
  outer loop
    vertex 3.8000000000000003 7 5
    vertex 4.065 4.406 5
    vertex 4.313 7 5
  endloop
endfacet
facet normal 0 0 -1
  outer loop
    vertex 4.065 -7 0
    vertex 4.065 -4.421 0
    vertex 4.313 -4.166 0
  endloop
endfacet
facet normal 0 0 -1
  outer loop
    vertex 4.065 -7 0
    vertex 4.313 -4.166 0
    vertex 4.541 -7 0
  endloop
endfacet
facet normal 0 -1 0
  outer loop
    vertex 4.065 -7 0
    vertex 4.541 -7 0
    vertex 4.065 -7 5
  endloop
endfacet
facet normal 2.7773281082318973e-15 0 1
  outer loop
    vertex 4.065 -7 5
    vertex 4.313 -4.166 5
    vertex 4.065 -4.421 5
  endloop
endfacet
facet normal 0 -1 0
  outer loop
    vertex 4.065 -7 5
    vertex 4.541 -7 0
    vertex 4.541 -7 5
  endloop
endfacet
facet normal 0 0 1
  outer loop
    vertex 4.065 -7 5
    vertex 4.541 -7 5
    vertex 4.313 -4.166 5
  endloop
endfacet
facet normal -0.7168778182654854 0.6971988193327048 0
  outer loop
    vertex 4.065 -4.421 0
    vertex 4.065 -4.421 5
    vertex 4.313 -4.166 5
  endloop
endfacet
facet normal -0.7168778182654854 0.6971988193327048 0
  outer loop
    vertex 4.065 -4.421 0
    vertex 4.313 -4.166 5
    vertex 4.313 -4.166 0
  endloop
endfacet
facet normal -0.6702862579687704 -0.7421026427511379 0
  outer loop
    vertex 4.065 4.406 0
    vertex 4.313 4.182 0
    vertex 4.065 4.406 5
  endloop
endfacet
facet normal 0 0 -1
  outer loop
    vertex 4.065 4.406 0
    vertex 4.313 7 0
    vertex 4.313 4.182 0
  endloop
endfacet
facet normal -0.6702862579687704 -0.7421026427511379 0
  outer loop
    vertex 4.065 4.406 5
    vertex 4.313 4.182 0
    vertex 4.313 4.182 5
  endloop
endfacet
facet normal 5.083555139198059e-15 0 1
  outer loop
    vertex 4.065 4.406 5
    vertex 4.313 4.182 5
    vertex 4.313 7 5
  endloop
endfacet
facet normal -0.7177153582488249 0.6963366028967317 0
  outer loop
    vertex 4.313 -4.166 0
    vertex 4.313 -4.166 5
    vertex 4.541 -3.931 5
  endloop
endfacet
facet normal 0 0 -1
  outer loop
    vertex 4.313 -4.166 0
    vertex 4.541 -3.931 0
    vertex 4.541 -7 0
  endloop
endfacet
facet normal -0.7177153582488229 0.696336602896734 0
  outer loop
    vertex 4.313 -4.166 0
    vertex 4.541 -3.931 5
    vertex 4.541 -3.931 0
  endloop
endfacet
facet normal 0 0 1
  outer loop
    vertex 4.313 -4.166 5
    vertex 4.541 -7 5
    vertex 4.541 -3.931 5
  endloop
endfacet
facet normal 0 0 -1
  outer loop
    vertex 4.313 4.182 0
    vertex 4.313 7 0
    vertex 4.541 3.9130000000000003 0
  endloop
endfacet
facet normal -0.7628481839285118 -0.6465776428836458 0
  outer loop
    vertex 4.313 4.182 0
    vertex 4.541 3.9130000000000003 0
    vertex 4.313 4.182 5
  endloop
endfacet
facet normal -0.76284818392851 -0.6465776428836482 0
  outer loop
    vertex 4.313 4.182 5
    vertex 4.541 3.9130000000000003 0
    vertex 4.541 3.9130000000000003 5
  endloop
endfacet
facet normal 0 0 1
  outer loop
    vertex 4.313 4.182 5
    vertex 4.541 3.9130000000000003 5
    vertex 4.313 7 5
  endloop
endfacet
facet normal 0 1 0
  outer loop
    vertex 4.313 7 0
    vertex 4.313 7 5
    vertex 4.75 7 5
  endloop
endfacet
facet normal 0 0 -1
  outer loop
    vertex 4.313 7 0
    vertex 4.75 7 0
    vertex 4.541 3.9130000000000003 0
  endloop
endfacet
facet normal 0 1 0
  outer loop
    vertex 4.313 7 0
    vertex 4.75 7 5
    vertex 4.75 7 0
  endloop
endfacet
facet normal 0 0 1
  outer loop
    vertex 4.313 7 5
    vertex 4.541 3.9130000000000003 5
    vertex 4.75 7 5
  endloop
endfacet
facet normal 0 0 -1
  outer loop
    vertex 4.541 -7 0
    vertex 4.541 -3.931 0
    vertex 4.75 -3.6590000000000003 0
  endloop
endfacet
facet normal 0 0 -1
  outer loop
    vertex 4.541 -7 0
    vertex 4.75 -3.6590000000000003 0
    vertex 4.9 -7 0
  endloop
endfacet
facet normal 0 -1 0
  outer loop
    vertex 4.541 -7 0
    vertex 4.9 -7 0
    vertex 4.541 -7 5
  endloop
endfacet
facet normal -1.3847043045053505e-15 0 1
  outer loop
    vertex 4.541 -7 5
    vertex 4.75 -3.6590000000000003 5
    vertex 4.541 -3.931 5
  endloop
endfacet
facet normal 0 -1 0
  outer loop
    vertex 4.541 -7 5
    vertex 4.9 -7 0
    vertex 4.9 -7 5
  endloop
endfacet
facet normal 0 0 1
  outer loop
    vertex 4.541 -7 5
    vertex 4.9 -7 5
    vertex 4.75 -3.6590000000000003 5
  endloop
endfacet
facet normal -0.7929489976428437 0.6092880165711528 0
  outer loop
    vertex 4.541 -3.931 0
    vertex 4.541 -3.931 5
    vertex 4.75 -3.6590000000000003 5
  endloop
endfacet
facet normal -0.7929489976428417 0.6092880165711555 0
  outer loop
    vertex 4.541 -3.931 0
    vertex 4.75 -3.6590000000000003 5
    vertex 4.75 -3.6590000000000003 0
  endloop
endfacet
facet normal -0.762092169990428 -0.6474685509268236 0
  outer loop
    vertex 4.541 3.9130000000000003 0
    vertex 4.75 3.6670000000000003 0
    vertex 4.541 3.9130000000000003 5
  endloop
endfacet
facet normal 0 0 -0.9999999999999999
  outer loop
    vertex 4.541 3.9130000000000003 0
    vertex 4.75 7 0
    vertex 4.75 3.6670000000000003 0
  endloop
endfacet
facet normal -0.7620921699904257 -0.6474685509268262 0
  outer loop
    vertex 4.541 3.9130000000000003 5
    vertex 4.75 3.6670000000000003 0
    vertex 4.75 3.6670000000000003 5
  endloop
endfacet
facet normal 0 0 0.9999999999999999
  outer loop
    vertex 4.541 3.9130000000000003 5
    vertex 4.75 3.6670000000000003 5
    vertex 4.75 7 5
  endloop
endfacet
facet normal -0.7911056046385774 0.6116795912153936 0
  outer loop
    vertex 4.75 -3.6590000000000003 0
    vertex 4.75 -3.6590000000000003 5
    vertex 4.9 -3.465 5
  endloop
endfacet
facet normal 0 0 -1
  outer loop
    vertex 4.75 -3.6590000000000003 0
    vertex 4.9 -3.465 0
    vertex 4.9 -7 0
  endloop
endfacet
facet normal -0.7911056046385774 0.6116795912153936 0
  outer loop
    vertex 4.75 -3.6590000000000003 0
    vertex 4.9 -3.465 5
    vertex 4.9 -3.465 0
  endloop
endfacet
facet normal 0 0 1
  outer loop
    vertex 4.75 -3.6590000000000003 5
    vertex 4.9 -7 5
    vertex 4.9 -3.465 5
  endloop
endfacet
facet normal 0 0 -0.9999999999999999
  outer loop
    vertex 4.75 3.6670000000000003 0
    vertex 4.75 7 0
    vertex 4.9 3.452 0
  endloop
endfacet
facet normal -0.8201269543011837 -0.5721815960240808 0
  outer loop
    vertex 4.75 3.6670000000000003 0
    vertex 4.9 3.452 0
    vertex 4.75 3.6670000000000003 5
  endloop
endfacet
facet normal -0.8201269543011837 -0.5721815960240808 0
  outer loop
    vertex 4.75 3.6670000000000003 5
    vertex 4.9 3.452 0
    vertex 4.9 3.452 5
  endloop
endfacet
facet normal 0 0 0.9999999999999999
  outer loop
    vertex 4.75 3.6670000000000003 5
    vertex 4.9 3.452 5
    vertex 4.75 7 5
  endloop
endfacet
facet normal 0 1 0
  outer loop
    vertex 4.75 7 0
    vertex 4.75 7 5
    vertex 4.9 7 5
  endloop
endfacet
facet normal 0 0 -1
  outer loop
    vertex 4.75 7 0
    vertex 4.9 7 0
    vertex 4.9 3.452 0
  endloop
endfacet
facet normal 0 1 0
  outer loop
    vertex 4.75 7 0
    vertex 4.9 7 5
    vertex 4.9 7 0
  endloop
endfacet
facet normal 0 0 1
  outer loop
    vertex 4.75 7 5
    vertex 4.9 3.452 5
    vertex 4.9 7 5
  endloop
endfacet
facet normal 0 0 -0.9999999999999999
  outer loop
    vertex 4.9 -7 0
    vertex 4.9 -3.465 0
    vertex 5.7 -7 0
  endloop
endfacet
facet normal 0 -1 0
  outer loop
    vertex 4.9 -7 0
    vertex 5.7 -7 0
    vertex 4.9 -7 5
  endloop
endfacet
facet normal 0 -1 0
  outer loop
    vertex 4.9 -7 5
    vertex 5.7 -7 0
    vertex 5.7 -7 5
  endloop
endfacet
facet normal 0 0 0.9999999999999999
  outer loop
    vertex 4.9 -7 5
    vertex 5.7 -7 5
    vertex 4.9 -3.465 5
  endloop
endfacet
facet normal -0.9999999999999999 0 0
  outer loop
    vertex 4.9 -3.465 0
    vertex 4.9 -3.465 5
    vertex 4.9 -2 5
  endloop
endfacet
facet normal 0 0 -1
  outer loop
    vertex 4.9 -3.465 0
    vertex 4.9 -2 0
    vertex 5.7 -2 0
  endloop
endfacet
facet normal -0.9999999999999999 0 0
  outer loop
    vertex 4.9 -3.465 0
    vertex 4.9 -2 5
    vertex 4.9 -2 0
  endloop
endfacet
facet normal 0 0 -1
  outer loop
    vertex 4.9 -3.465 0
    vertex 5.7 -2 0
    vertex 5.7 -7 0
  endloop
endfacet
facet normal 0 0 1
  outer loop
    vertex 4.9 -3.465 5
    vertex 5.7 -7 5
    vertex 5.7 -2 5
  endloop
endfacet
facet normal 0 0 1
  outer loop
    vertex 4.9 -3.465 5
    vertex 5.7 -2 5
    vertex 4.9 -2 5
  endloop
endfacet
facet normal 0 1 0
  outer loop
    vertex 4.9 -2 0
    vertex 4.9 -2 5
    vertex 5.7 -2 5
  endloop
endfacet
facet normal 0 1 0
  outer loop
    vertex 4.9 -2 0
    vertex 5.7 -2 5
    vertex 5.7 -2 0
  endloop
endfacet
facet normal -1 0 0
  outer loop
    vertex 4.9 2 0
    vertex 4.9 2 5
    vertex 4.9 3.452 5
  endloop
endfacet
facet normal 0 0 -1
  outer loop
    vertex 4.9 2 0
    vertex 4.9 3.452 0
    vertex 5.7 2 0
  endloop
endfacet
facet normal -1 0 0
  outer loop
    vertex 4.9 2 0
    vertex 4.9 3.452 5
    vertex 4.9 3.452 0
  endloop
endfacet
facet normal 0 -1 0
  outer loop
    vertex 4.9 2 0
    vertex 5.7 2 0
    vertex 4.9 2 5
  endloop
endfacet
facet normal 0 -1 0
  outer loop
    vertex 4.9 2 5
    vertex 5.7 2 0
    vertex 5.7 2 5
  endloop
endfacet
facet normal 0 0 1
  outer loop
    vertex 4.9 2 5
    vertex 5.7 2 5
    vertex 4.9 3.452 5
  endloop
endfacet
facet normal 0 0 -1
  outer loop
    vertex 4.9 3.452 0
    vertex 4.9 7 0
    vertex 5.7 7 0
  endloop
endfacet
facet normal 0 0 -1
  outer loop
    vertex 4.9 3.452 0
    vertex 5.7 7 0
    vertex 5.7 2 0
  endloop
endfacet
facet normal 0 0 1
  outer loop
    vertex 4.9 3.452 5
    vertex 5.7 2 5
    vertex 5.7 7 5
  endloop
endfacet
facet normal 0 0 1
  outer loop
    vertex 4.9 3.452 5
    vertex 5.7 7 5
    vertex 4.9 7 5
  endloop
endfacet
facet normal 0 1 0
  outer loop
    vertex 4.9 7 0
    vertex 4.9 7 5
    vertex 5.7 7 5
  endloop
endfacet
facet normal 0 1 0
  outer loop
    vertex 4.9 7 0
    vertex 5.7 7 5
    vertex 5.7 7 0
  endloop
endfacet
facet normal 0 0 -1
  outer loop
    vertex 5.7 -7 0
    vertex 5.7 -2 0
    vertex 5.9 -2.8000000000000003 0
  endloop
endfacet
facet normal 0 -1 0
  outer loop
    vertex 5.7 -7 0
    vertex 5.9 -7 0
    vertex 5.7 -7 5
  endloop
endfacet
facet normal 0 0 -1
  outer loop
    vertex 5.7 -7 0
    vertex 5.9 -2.8000000000000003 0
    vertex 5.9 -7 0
  endloop
endfacet
facet normal 0 -1 0
  outer loop
    vertex 5.7 -7 5
    vertex 5.9 -7 0
    vertex 5.9 -7 5
  endloop
endfacet
facet normal 0 0 1
  outer loop
    vertex 5.7 -7 5
    vertex 5.9 -7 5
    vertex 5.9 -2.8000000000000003 5
  endloop
endfacet
facet normal 3.5527136788004978e-15 0 1
  outer loop
    vertex 5.7 -7 5
    vertex 5.9 -2.8000000000000003 5
    vertex 5.7 -2 5
  endloop
endfacet
facet normal -1 0 0
  outer loop
    vertex 5.7 -2 0
    vertex 5.7 -2 5
    vertex 5.7 2 5
  endloop
endfacet
facet normal 0 0 -1
  outer loop
    vertex 5.7 -2 0
    vertex 5.7 2 0
    vertex 5.9 -2.8000000000000003 0
  endloop
endfacet
facet normal -1 0 0
  outer loop
    vertex 5.7 -2 0
    vertex 5.7 2 5
    vertex 5.7 2 0
  endloop
endfacet
facet normal -8.881784197001244e-15 0 1
  outer loop
    vertex 5.7 -2 5
    vertex 5.9 -2.8000000000000003 5
    vertex 5.7 2 5
  endloop
endfacet
facet normal 0 0 -1
  outer loop
    vertex 5.7 2 0
    vertex 5.7 7 0
    vertex 5.9 2.8000000000000003 0
  endloop
endfacet
facet normal 0 0 -1
  outer loop
    vertex 5.7 2 0
    vertex 5.9 2.8000000000000003 0
    vertex 5.9 -2.8000000000000003 0
  endloop
endfacet
facet normal 6.344131569286602e-15 0 1
  outer loop
    vertex 5.7 2 5
    vertex 5.9 -2.8000000000000003 5
    vertex 5.9 2.8000000000000003 5
  endloop
endfacet
facet normal 7.1054273576009955e-15 0 1
  outer loop
    vertex 5.7 2 5
    vertex 5.9 2.8000000000000003 5
    vertex 5.7 7 5
  endloop
endfacet
facet normal 0 1 0
  outer loop
    vertex 5.7 7 0
    vertex 5.7 7 5
    vertex 5.9 7 5
  endloop
endfacet
facet normal 0 0 -1
  outer loop
    vertex 5.7 7 0
    vertex 5.9 7 0
    vertex 5.9 2.8000000000000003 0
  endloop
endfacet
facet normal 0 1 0
  outer loop
    vertex 5.7 7 0
    vertex 5.9 7 5
    vertex 5.9 7 0
  endloop
endfacet
facet normal 0 0 1
  outer loop
    vertex 5.7 7 5
    vertex 5.9 2.8000000000000003 5
    vertex 5.9 7 5
  endloop
endfacet
facet normal 1 0 0
  outer loop
    vertex 5.9 -7 -2
    vertex 5.9 -2.8000000000000003 -2
    vertex 5.9 -7 0
  endloop
endfacet
facet normal 1 0 0
  outer loop
    vertex 5.9 -7 0
    vertex 5.9 -2.8000000000000003 -2
    vertex 5.9 -2.8000000000000003 0
  endloop
endfacet
facet normal 1 0 0
  outer loop
    vertex 5.9 -7 0
    vertex 5.9 -2.8000000000000003 0
    vertex 5.9 -7 5
  endloop
endfacet
facet normal 1 0 0
  outer loop
    vertex 5.9 -7 5
    vertex 5.9 -2.8000000000000003 0
    vertex 5.9 -2.8000000000000003 5
  endloop
endfacet
facet normal 0 0 -0.9999999999999999
  outer loop
    vertex 5.9 -2.8000000000000003 -2
    vertex 5.9 2.8000000000000003 -2
    vertex 6.5 -2.8000000000000003 -2
  endloop
endfacet
facet normal 0 -1 0
  outer loop
    vertex 5.9 -2.8000000000000003 -2
    vertex 6.5 -2.8000000000000003 -2
    vertex 5.9 -2.8000000000000003 0
  endloop
endfacet
facet normal 0 0 -0.9999999999999999
  outer loop
    vertex 5.9 -2.8000000000000003 0
    vertex 5.9 2.8000000000000003 0
    vertex 6.5 -2.8000000000000003 0
  endloop
endfacet
facet normal 0 -1 0
  outer loop
    vertex 5.9 -2.8000000000000003 0
    vertex 6.5 -2.8000000000000003 -2
    vertex 6.5 -2.8000000000000003 0
  endloop
endfacet
facet normal 0 -1 0
  outer loop
    vertex 5.9 -2.8000000000000003 0
    vertex 6.5 -2.8000000000000003 0
    vertex 5.9 -2.8000000000000003 5
  endloop
endfacet
facet normal 0 0 0.9999999999999999
  outer loop
    vertex 5.9 -2.8000000000000003 0
    vertex 6.5 -2.8000000000000003 0
    vertex 5.9 2.8000000000000003 0
  endloop
endfacet
facet normal 0 -1 0
  outer loop
    vertex 5.9 -2.8000000000000003 5
    vertex 6.5 -2.8000000000000003 0
    vertex 6.5 -2.8000000000000003 5
  endloop
endfacet
facet normal 0 0 0.9999999999999999
  outer loop
    vertex 5.9 -2.8000000000000003 5
    vertex 6.5 -2.8000000000000003 5
    vertex 5.9 2.8000000000000003 5
  endloop
endfacet
facet normal 0 1 0
  outer loop
    vertex 5.9 2.8000000000000003 -2
    vertex 5.9 2.8000000000000003 0
    vertex 6.5 2.8000000000000003 0
  endloop
endfacet
facet normal 1 0 0
  outer loop
    vertex 5.9 2.8000000000000003 -2
    vertex 5.9 7 -2
    vertex 5.9 2.8000000000000003 0
  endloop
endfacet
facet normal 0 0 -0.9999999999999999
  outer loop
    vertex 5.9 2.8000000000000003 -2
    vertex 6.5 2.8000000000000003 -2
    vertex 6.5 -2.8000000000000003 -2
  endloop
endfacet
facet normal 0 1 0
  outer loop
    vertex 5.9 2.8000000000000003 -2
    vertex 6.5 2.8000000000000003 0
    vertex 6.5 2.8000000000000003 -2
  endloop
endfacet
facet normal 0 1 0
  outer loop
    vertex 5.9 2.8000000000000003 0
    vertex 5.9 2.8000000000000003 5
    vertex 6.5 2.8000000000000003 5
  endloop
endfacet
facet normal 1 0 0
  outer loop
    vertex 5.9 2.8000000000000003 0
    vertex 5.9 7 -2
    vertex 5.9 7 0
  endloop
endfacet
facet normal 1 0 0
  outer loop
    vertex 5.9 2.8000000000000003 0
    vertex 5.9 7 0
    vertex 5.9 2.8000000000000003 5
  endloop
endfacet
facet normal 0 0 0.9999999999999999
  outer loop
    vertex 5.9 2.8000000000000003 0
    vertex 6.5 -2.8000000000000003 0
    vertex 6.5 2.8000000000000003 0
  endloop
endfacet
facet normal 0 0 -0.9999999999999999
  outer loop
    vertex 5.9 2.8000000000000003 0
    vertex 6.5 2.8000000000000003 0
    vertex 6.5 -2.8000000000000003 0
  endloop
endfacet
facet normal 0 1 0
  outer loop
    vertex 5.9 2.8000000000000003 0
    vertex 6.5 2.8000000000000003 5
    vertex 6.5 2.8000000000000003 0
  endloop
endfacet
facet normal 1 0 0
  outer loop
    vertex 5.9 2.8000000000000003 5
    vertex 5.9 7 0
    vertex 5.9 7 5
  endloop
endfacet
facet normal 0 0 0.9999999999999999
  outer loop
    vertex 5.9 2.8000000000000003 5
    vertex 6.5 -2.8000000000000003 5
    vertex 6.5 2.8000000000000003 5
  endloop
endfacet
facet normal 1 0 0
  outer loop
    vertex 6.5 -2.8000000000000003 -2
    vertex 6.5 2.8000000000000003 -2
    vertex 6.5 -2.8000000000000003 0
  endloop
endfacet
facet normal 1 0 0
  outer loop
    vertex 6.5 -2.8000000000000003 0
    vertex 6.5 2.8000000000000003 -2
    vertex 6.5 2.8000000000000003 0
  endloop
endfacet
facet normal 1 0 0
  outer loop
    vertex 6.5 -2.8000000000000003 0
    vertex 6.5 2.8000000000000003 0
    vertex 6.5 -2.8000000000000003 5
  endloop
endfacet
facet normal 1 0 0
  outer loop
    vertex 6.5 -2.8000000000000003 5
    vertex 6.5 2.8000000000000003 0
    vertex 6.5 2.8000000000000003 5
  endloop
endfacet
endsolid JSxCAD
