<?xml version="1.0" encoding="UTF-8" standalone="no"?>
<svg
   xmlns:dc="http://purl.org/dc/elements/1.1/"
   xmlns:cc="http://creativecommons.org/ns#"
   xmlns:rdf="http://www.w3.org/1999/02/22-rdf-syntax-ns#"
   xmlns:svg="http://www.w3.org/2000/svg"
   xmlns="http://www.w3.org/2000/svg"
   width="210mm"
   height="297mm"
   viewBox="0 0 210 297"
   version="1.1"
   id="svg843">
  <defs
     id="defs837" />
  <metadata
     id="metadata840">
    <rdf:RDF>
      <cc:Work
         rdf:about="">
        <dc:format>image/svg+xml</dc:format>
        <dc:type
           rdf:resource="http://purl.org/dc/dcmitype/StillImage" />
        <dc:title></dc:title>
      </cc:Work>
    </rdf:RDF>
  </metadata>
  <g
     id="layer1">
    <path
       style="fill:#000000;stroke-width:0.26458332"
       d="m 104.8506,201.80274 c -9.105477,-0.69976 -18.36714,0.37409 -27.369839,-1.05458 -6.72102,-0.002 -13.04203,-0.82093 -19.461414,-2.12042 -4.451343,-0.99906 -8.882026,-2.93402 -11.925149,-6.87917 -2.761104,-2.0603 -3.650591,-5.67874 -5.45963,-8.51297 -1.140127,-3.97859 -2.36797,-9.23877 -0.07772,-13.05058 1.285351,-3.00852 2.808346,-5.83477 4.497916,-8.46666 1.185973,-3.00621 4.198257,-6.37022 2.645834,-9.78959 -1.580246,-4.49381 -7.770489,-2.8152 -9.260417,0.89736 -2.806019,3.93077 -10.266059,-1.44574 -3.789252,-2.08798 6.803328,-2.54376 -2.969591,-6.35576 -5.584557,-2.11666 -4.725874,-2.01666 -3.863997,-9.75807 1.965476,-6.87917 3.944335,0.53192 6.06018,-2.69945 9.358346,-3.81385 3.109719,-2.97833 7.562769,-2.84168 11.373647,-4.78511 3.550675,-1.47621 6.253525,-4.40401 7.993947,-7.75288 2.259936,0.86788 -5.127976,11.70827 0.378226,9.20809 3.659427,-0.0599 6.592085,-6.77424 4.233334,-0.13229 -2.727814,3.59714 -1.587006,5.64542 2.334931,3.90837 -0.06653,4.63505 -3.759521,7.41984 -5.774515,11.02169 -2.777672,2.75212 -4.004076,6.46436 -6.080376,9.5439 -3.358707,4.19487 -0.88248,9.96937 4.096001,11.1125 2.587856,1.52148 5.45479,2.8023 8.334375,3.70416 4.109376,1.118 8.167521,2.18943 12.303125,2.91042 7.827833,0.92048 15.764239,2.40586 23.758761,1.66031 1.95041,-4.26516 1.65999,-17.37164 1.65999,-17.37164 0,0 -5.836392,2.04983 -7.956253,2.48216 -3.565922,1.20855 -6.46488,2.83984 -9.540707,4.6145 -2.520571,2.65723 -6.749355,4.27763 -9.641582,0.92463 -2.77633,-1.42818 -4.186987,-4.45155 -5.723436,-7.16653 -1.549425,-6.4271 -0.107508,-13.10909 1.754686,-19.14239 1.25363,-3.3802 2.657209,-6.81676 4.233333,-10.45104 1.282396,-3.2339 2.813661,-6.03239 4.233333,-9.12813 2.259695,-4.58047 4.640029,-9.03814 6.746875,-13.62604 2.151256,-2.83134 2.289236,-7.43609 5.579469,-9.33089 3.293004,-1.623148 6.377042,-3.641935 9.369492,-5.485778 2.07598,-1.549889 6.25638,-3.521619 6.25638,-3.521619 0,0 -0.98009,-15.431467 3.1916,-10.785737 -0.0464,2.91837 -0.21429,3.125776 0.36084,8.925749 4.04633,-2.635929 2.33251,-1.064069 4.04633,-2.635929 3.12725,-2.248709 6.89702,-4.116373 10.38997,-6.121958 3.20338,-2.778092 7.05595,-4.08158 3.00696,0.248873 -1.70827,3.171066 -3.62561,5.746175 -5.02708,9.128125 -1.39492,3.276035 -2.4665,6.407202 -3.30729,9.789583 -1.49099,6.025871 -1.31124,12.355601 -0.85517,18.586981 0.64813,4.15709 1.91053,7.87747 3.10413,11.70781 1.3565,2.53486 1.93468,5.8168 3.85216,8.22881 1.34797,3.27666 3.61862,6.13842 5.26025,9.2494 1.97727,1.92701 3.14772,4.75345 5.17508,6.75007 2.13163,2.58416 4.14614,5.29011 6.21026,7.84376 -5.81156,-1.20811 -11.92119,-2.0941 -17.91454,-2.53587 -6.42818,0.0433 -12.96736,-0.19684 -19.25196,0.75862 -0.51382,5.51926 -1.05767,11.11246 -1.32292,16.71086 -0.8738,3.87896 4.72648,1.31465 6.96185,2.05669 7.14877,-1.01897 14.69908,0.12221 21.61534,-1.75345 5.56572,-0.13916 11.01047,-1.4719 16.13739,-2.7266 4.68469,-0.98183 9.68905,-2.14634 14.02292,-4.10104 3.37276,-0.58686 6.12498,-3.26478 7.54062,-6.21771 2.09214,-4.04438 0.40145,-10.17668 4.29535,-13.41048 3.72291,-2.30657 9.01023,-2.86597 12.60251,-0.26781 3.07814,2.31894 3.78805,6.45462 1.2261,9.31267 -3.57925,4.29891 -10.72178,-3.3603 -3.79435,-3.30729 3.40623,-1.70746 -3.88696,-5.57928 -5.72763,-2.64584 -4.57412,3.68859 -0.53888,11.9708 -3.4426,16.90942 -0.61824,3.98456 -2.68949,6.98361 -3.70417,10.73954 -1.71205,3.08003 -3.61836,6.43362 -5.55625,9.65729 -1.97873,3.50625 -5.4196,6.80462 -9.77659,7.22147 -5.55089,1.48276 -11.32734,2.21386 -17.22515,2.30757 -8.57766,1.50689 -17.46928,0.22294 -26.13713,1.27995 -3.79858,-0.0177 -7.64817,0.23457 -11.41946,-0.22565 z"
       id="path817" />
  </g>
</svg>
