solid JSxCAD
facet normal 0 0 1
outer loop
vertex 2.5 2.5 0
vertex -2.5 -2.5 0
vertex 2.5 -2.5 0
endloop
endfacet
facet normal 0 0 1
outer loop
vertex -2.5 -2.5 0
vertex 2.5 2.5 0
vertex -2.5 2.5 0
endloop
endfacet
facet normal 0 0.8 0.6
outer loop
vertex 2.5 2.5 0
vertex 0 10 -10
vertex -2.5 2.5 0
endloop
endfacet
facet normal 0.39400070875254833 0.7371236936922607 0.5490101107447548
outer loop
vertex 5.5557 8.3147 -10
vertex 3.82683 9.2388 -10
vertex 2.5 2.5 0
endloop
endfacet
facet normal 0.5335216893046002 0.6500991149469786 0.5410413549690272
outer loop
vertex 7.07107 7.07107 -10
vertex 5.5557 8.3147 -10
vertex 2.5 2.5 0
endloop
endfacet
facet normal 0.23966413064874229 0.7900766762286182 0.5642162264238081
outer loop
vertex 3.82683 9.2388 -10
vertex 1.9509 9.80785 -10
vertex 2.5 2.5 0
endloop
endfacet
facet normal 0.07947450400152895 0.8069050734144297 0.5853101790604401
outer loop
vertex 2.5 2.5 0
vertex 1.9509 9.80785 -10
vertex 0 10 -10
endloop
endfacet
facet normal 0.7900766762286177 0.2396641306487428 0.5642162264238083
outer loop
vertex 9.2388 3.82683 -10
vertex 2.5 2.5 0
vertex 9.80785 1.9509 -10
endloop
endfacet
facet normal 0.80690507341443 0.07947450400152867 0.5853101790604401
outer loop
vertex 2.5 2.5 0
vertex 10 0 -10
vertex 9.80785 1.9509 -10
endloop
endfacet
facet normal 0.7371236936922607 0.3940007087525477 0.5490101107447549
outer loop
vertex 8.3147 5.5557 -10
vertex 2.5 2.5 0
vertex 9.2388 3.82683 -10
endloop
endfacet
facet normal 0.6500991149469789 0.5335216893046005 0.5410413549690262
outer loop
vertex 7.07107 7.07107 -10
vertex 2.5 2.5 0
vertex 8.3147 5.5557 -10
endloop
endfacet
facet normal 0.8 0 0.6
outer loop
vertex 2.5 2.5 0
vertex 6.25 -1.25 -5
vertex 10 0 -10
endloop
endfacet
facet normal 0.8000015237731182 0.000004232730178777882 0.5999979682822044
outer loop
vertex 2.5 2.5 0
vertex 5.18686 -1.60438 -3.58247
vertex 6.25 -1.25 -5
endloop
endfacet
facet normal 0.799994910630293 -0.000007792662197557116 0.600006785715715
outer loop
vertex 2.5 2.5 0
vertex 4.7088 -1.76373 -2.94507
vertex 5.18686 -1.60438 -3.58247
endloop
endfacet
facet normal 0.8000017185493326 0.00000200394784190531 0.5999977085907069
outer loop
vertex 2.5 2.5 0
vertex 3.23869 -2.25377 -0.98491
vertex 4.7088 -1.76373 -2.94507
endloop
endfacet
facet normal 0.7999970758761406 0 0.6000038988120198
outer loop
vertex 3.23869 -2.25377 -0.98491
vertex 2.5 2.5 0
vertex 2.5 -2.5 0
endloop
endfacet
facet normal -0.8 0 0.6
outer loop
vertex -6.25 -1.25 -5
vertex -2.5 2.5 0
vertex -10 0 -10
endloop
endfacet
facet normal -0.8 0 0.6
outer loop
vertex -2.5 2.5 0
vertex -6.25 -1.25 -5
vertex -2.5 -2.5 0
endloop
endfacet
facet normal -0.39400070875254833 0.7371236936922607 0.5490101107447548
outer loop
vertex -2.5 2.5 0
vertex -3.82683 9.2388 -10
vertex -5.5557 8.3147 -10
endloop
endfacet
facet normal -0.5335216893046 0.6500991149469786 0.5410413549690272
outer loop
vertex -2.5 2.5 0
vertex -5.5557 8.3147 -10
vertex -7.07107 7.07107 -10
endloop
endfacet
facet normal -0.23966413064874226 0.7900766762286181 0.5642162264238081
outer loop
vertex -1.9509 9.80785 -10
vertex -3.82683 9.2388 -10
vertex -2.5 2.5 0
endloop
endfacet
facet normal -0.07947450400152865 0.8069050734144297 0.5853101790604402
outer loop
vertex 0 10 -10
vertex -1.9509 9.80785 -10
vertex -2.5 2.5 0
endloop
endfacet
facet normal -0.7900766762286177 0.2396641306487428 0.5642162264238083
outer loop
vertex -9.2388 3.82683 -10
vertex -9.80785 1.9509 -10
vertex -2.5 2.5 0
endloop
endfacet
facet normal -0.80690507341443 0.07947450400152867 0.5853101790604401
outer loop
vertex -2.5 2.5 0
vertex -9.80785 1.9509 -10
vertex -10 0 -10
endloop
endfacet
facet normal -0.7371236936922607 0.3940007087525477 0.5490101107447549
outer loop
vertex -8.3147 5.5557 -10
vertex -9.2388 3.82683 -10
vertex -2.5 2.5 0
endloop
endfacet
facet normal -0.6500991149469789 0.5335216893046005 0.5410413549690262
outer loop
vertex -7.07107 7.07107 -10
vertex -8.3147 5.5557 -10
vertex -2.5 2.5 0
endloop
endfacet
facet normal 0.8088711774913699 -0.30090472694352577 -0.5051571671537156
outer loop
vertex -9.2388 -3.82683 -10
vertex -2.5 -2.5 0
vertex -7.95814 -3.57468 -8.09957
endloop
endfacet
facet normal -0.737124179700818 -0.3939995562152044 0.5490102853340895
outer loop
vertex -8.61173 -5 -10
vertex -2.5 -2.5 0
vertex -9.2388 -3.82683 -10
endloop
endfacet
facet normal -0.7371224590410224 -0.3940030304282068 0.5490101022665304
outer loop
vertex -2.5 -2.5 0
vertex -8.61173 -5 -10
vertex -8.3147 -5.5557 -10
endloop
endfacet
facet normal 0.7798033787222283 -0.22943231384801335 -0.582466740591893
outer loop
vertex -9.80785 -1.9509 -10
vertex -2.5 -2.5 0
vertex -7.03955 -2.15891 -6.21188
endloop
endfacet
facet normal -0.7900769514631999 -0.23966254478567173 0.5642165146408534
outer loop
vertex -9.80785 -1.9509 -10
vertex -7.95814 -3.57468 -8.09957
vertex -2.5 -2.5 0
endloop
endfacet
facet normal -0.7900772711930848 -0.23966431112697464 0.5642153166266595
outer loop
vertex -7.95814 -3.57468 -8.09957
vertex -9.80785 -1.9509 -10
vertex -9.2388 -3.82683 -10
endloop
endfacet
facet normal -0.8069050734144297 -0.07947450400152807 0.5853101790604401
outer loop
vertex -9.80785 -1.9509 -10
vertex -6.25 -1.25 -5
vertex -10 0 -10
endloop
endfacet
facet normal -0.8069053154380601 -0.0794726708786577 0.585310094310031
outer loop
vertex -7.03955 -2.15891 -6.21188
vertex -6.25 -1.25 -5
vertex -9.80785 -1.9509 -10
endloop
endfacet
facet normal -0.8069050123270256 -0.07947336557361527 0.5853104178518655
outer loop
vertex -6.25 -1.25 -5
vertex -7.03955 -2.15891 -6.21188
vertex -2.5 -2.5 0
endloop
endfacet
facet normal -0.6886419566892599 -0.4944189719619992 -0.5303980916738179
outer loop
vertex 5.56969 -2.26935 -4.20054
vertex 9.80785 -1.9509 -10
vertex 7.03955 -2.15891 -6.21188
endloop
endfacet
facet normal 0.7862500325274141 -0.26059521626091636 0.5602687030457497
outer loop
vertex 3.25837 -2.44302 -1.03774
vertex 5.56969 -2.26935 -4.20054
vertex 4.95742 -2.31535 -3.36271
endloop
endfacet
facet normal -0.03232309155547664 0.9989893308537156 0.03123354915378572
outer loop
vertex 3.25837 -2.44302 -1.03774
vertex 9.80785 -1.9509 -10
vertex 5.56969 -2.26935 -4.20054
endloop
endfacet
facet normal 0.790074249746265 -0.2396798902879436 0.5642129297343654
outer loop
vertex 2.7394 -2.54714 -0.35526
vertex 2.74623 -2.4815 -0.33694
vertex 2.5 -2.5 0
endloop
endfacet
facet normal 0.7900705196311932 -0.23968084659029554 0.5642177467852776
outer loop
vertex 2.7394 -2.54714 -0.35526
vertex 3.25837 -2.44302 -1.03774
vertex 2.74623 -2.4815 -0.33694
endloop
endfacet
facet normal 0.7900612524885664 -0.23975437877019978 0.5641994817231875
outer loop
vertex 2.7394 -2.54714 -0.35526
vertex 9.80785 -1.9509 -10
vertex 3.25837 -2.44302 -1.03774
endloop
endfacet
facet normal 0.790083428656572 -0.2396240595090478 0.5642237905890531
outer loop
vertex 3.25837 -2.64932 -1.12537
vertex 9.80785 -1.9509 -10
vertex 2.7394 -2.54714 -0.35526
endloop
endfacet
facet normal 0.7900746435729286 -0.23967834409927932 0.5642130350788942
outer loop
vertex 5.18992 -3.02963 -3.9917
vertex 9.80785 -1.9509 -10
vertex 3.25837 -2.64932 -1.12537
endloop
endfacet
facet normal 0.7900761998829532 -0.23966458052822587 0.5642167023571187
outer loop
vertex 5.96534 -3.18231 -5.14238
vertex 9.80785 -1.9509 -10
vertex 5.18992 -3.02963 -3.9917
endloop
endfacet
facet normal 0.7900765376606018 -0.23966025877007918 0.5642180651171091
outer loop
vertex 7.95814 -3.57468 -8.09957
vertex 9.80785 -1.9509 -10
vertex 5.96534 -3.18231 -5.14238
endloop
endfacet
facet normal 0.7900772711930847 -0.2396643111269748 0.5642153166266597
outer loop
vertex 9.80785 -1.9509 -10
vertex 7.95814 -3.57468 -8.09957
vertex 9.2388 -3.82683 -10
endloop
endfacet
facet normal -0.3162277660168379 0.9486832980505137 0
outer loop
vertex 5.18686 -1.60438 -3.58247
vertex 10 0 -10
vertex 6.25 -1.25 -5
endloop
endfacet
facet normal 0.8069055041658341 -0.07947454642752715 0.5853095794680112
outer loop
vertex 5.18686 -1.60438 -3.58247
vertex 9.80785 -1.9509 -10
vertex 10 0 -10
endloop
endfacet
facet normal 0.8069015020051059 -0.07951879531627556 0.5853090869389883
outer loop
vertex 4.7088 -1.76373 -2.94507
vertex 9.80785 -1.9509 -10
vertex 5.18686 -1.60438 -3.58247
endloop
endfacet
facet normal 0.8069055616929017 -0.0794662470405078 0.5853106270095904
outer loop
vertex 4.7088 -1.76373 -2.94507
vertex 7.03955 -2.15891 -6.21188
vertex 9.80785 -1.9509 -10
endloop
endfacet
facet normal 0.8069062592044404 -0.07946056313466417 0.5853104370870374
outer loop
vertex 3.23869 -2.25377 -0.98491
vertex 7.03955 -2.15891 -6.21188
vertex 4.7088 -1.76373 -2.94507
endloop
endfacet
facet normal 0.8069022642164959 -0.07953205449998745 0.5853062346407248
outer loop
vertex 3.23869 -2.25377 -0.98491
vertex 5.56969 -2.26935 -4.20054
vertex 7.03955 -2.15891 -6.21188
endloop
endfacet
facet normal 0.8069069725302009 -0.0794616470102286 0.5853093065521574
outer loop
vertex 3.23869 -2.25377 -0.98491
vertex 4.95742 -2.31535 -3.36271
vertex 5.56969 -2.26935 -4.20054
endloop
endfacet
facet normal 0.8069045130899146 -0.07949361230606879 0.5853083566443076
outer loop
vertex 2.74623 -2.41792 -0.3283
vertex 4.95742 -2.31535 -3.36271
vertex 3.23869 -2.25377 -0.98491
endloop
endfacet
facet normal 0.8069066782261833 -0.07944886962438755 0.5853114467951175
outer loop
vertex 2.74623 -2.41792 -0.3283
vertex 3.25837 -2.44302 -1.03774
vertex 4.95742 -2.31535 -3.36271
endloop
endfacet
facet normal 0.8068993540728747 -0.07953873369543854 0.5853093389301965
outer loop
vertex 2.74623 -2.41792 -0.3283
vertex 2.74623 -2.4815 -0.33694
vertex 3.25837 -2.44302 -1.03774
endloop
endfacet
facet normal 0.8069032753161431 -0.07953801241002022 0.5853040311376165
outer loop
vertex 2.74623 -2.4815 -0.33694
vertex 2.74623 -2.41792 -0.3283
vertex 2.5 -2.5 0
endloop
endfacet
facet normal 0.7371303231216122 -0.3939873915874217 0.5490107667475812
outer loop
vertex 2.72428 -2.61786 -0.38571
vertex 2.7394 -2.54714 -0.35526
vertex 2.5 -2.5 0
endloop
endfacet
facet normal 0.7371248705401047 -0.3939889090782637 0.5490169986025513
outer loop
vertex 2.72428 -2.61786 -0.38571
vertex 3.25837 -2.64932 -1.12537
vertex 2.7394 -2.54714 -0.35526
endloop
endfacet
facet normal 0.7371131539618883 -0.39402073155442313 0.5490098918614078
outer loop
vertex 3.23317 -2.88529 -1.26089
vertex 3.25837 -2.64932 -1.12537
vertex 2.72428 -2.61786 -0.38571
endloop
endfacet
facet normal 0.7371180286628503 -0.3940184384755533 0.5490049926562419
outer loop
vertex 3.23317 -2.88529 -1.26089
vertex 5.18992 -3.02963 -3.9917
vertex 3.25837 -2.64932 -1.12537
endloop
endfacet
facet normal 0.7371374860193513 -0.3939664376785911 0.5490161861802543
outer loop
vertex 3.23317 -2.88529 -1.26089
vertex 5.96534 -3.18231 -5.14238
vertex 5.18992 -3.02963 -3.9917
endloop
endfacet
facet normal 0.737143325402013 -0.3939513883127237 0.5490191448954578
outer loop
vertex 3.23317 -2.88529 -1.26089
vertex 7.95814 -3.57468 -8.09957
vertex 5.96534 -3.18231 -5.14238
endloop
endfacet
facet normal 0.7371015500667071 -0.3940551828003186 0.5490007448059295
outer loop
vertex 3.23317 -2.88529 -1.26089
vertex 9.2388 -3.82683 -10
vertex 7.95814 -3.57468 -8.09957
endloop
endfacet
facet normal 0.7371240072638527 -0.3939999588173889 0.5490102279258335
outer loop
vertex 5.39613 -4.02195 -4.9807
vertex 9.2388 -3.82683 -10
vertex 3.23317 -2.88529 -1.26089
endloop
endfacet
facet normal 0.7371243176054283 -0.3939989949286065 0.5490105029869462
outer loop
vertex 6.3763 -4.53705 -6.66638
vertex 9.2388 -3.82683 -10
vertex 5.39613 -4.02195 -4.9807
endloop
endfacet
facet normal 0.7371241879335428 -0.3939995606156701 0.5490102711224755
outer loop
vertex 6.3763 -4.53705 -6.66638
vertex 8.61173 -5 -10
vertex 9.2388 -3.82683 -10
endloop
endfacet
facet normal 0.7371226648758258 -0.39400314045000195 0.5490097469461696
outer loop
vertex 8.61173 -5 -10
vertex 6.3763 -4.53705 -6.66638
vertex 8.3147 -5.5557 -10
endloop
endfacet
facet normal 0 0 -1
outer loop
vertex 9.80785 -1.9509 -10
vertex 9.80785 1.9509 -10
vertex 10 0 -10
endloop
endfacet
facet normal -3.2001826897612522e-15 0 -1
outer loop
vertex 9.80785 -1.9509 -10
vertex 9.2388 3.82683 -10
vertex 9.80785 1.9509 -10
endloop
endfacet
facet normal 6.525752551804209e-15 0 -1
outer loop
vertex 9.2388 -3.82683 -10
vertex 9.2388 3.82683 -10
vertex 9.80785 -1.9509 -10
endloop
endfacet
facet normal 0 0 -1
outer loop
vertex 8.61173 -5 -10
vertex 9.2388 3.82683 -10
vertex 9.2388 -3.82683 -10
endloop
endfacet
facet normal -1.2502013741984443e-14 0 -1
outer loop
vertex 8.3147 -5.5557 -10
vertex 9.2388 3.82683 -10
vertex 8.61173 -5 -10
endloop
endfacet
facet normal 1.3839883906857632e-15 0 -1
outer loop
vertex 8.3147 -5.5557 -10
vertex 8.3147 5.5557 -10
vertex 9.2388 3.82683 -10
endloop
endfacet
facet normal 2.570989104140122e-16 0 -1
outer loop
vertex 8.3147 -5.5557 -10
vertex 7.07107 7.07107 -10
vertex 8.3147 5.5557 -10
endloop
endfacet
facet normal 0 0 -1
outer loop
vertex 7.07107 -7.07107 -10
vertex 7.07107 7.07107 -10
vertex 8.3147 -5.5557 -10
endloop
endfacet
facet normal 0 0 -0.9999999999999999
outer loop
vertex 6.83477 -7.26499 -10
vertex 7.07107 7.07107 -10
vertex 7.07107 -7.07107 -10
endloop
endfacet
facet normal -1.4521745925919434e-15 0 -1
outer loop
vertex 6.83477 -7.26499 -10
vertex 5.5557 8.3147 -10
vertex 7.07107 7.07107 -10
endloop
endfacet
facet normal 2.6724482123147086e-15 0 -1
outer loop
vertex 5.5557 -8.3147 -10
vertex 5.5557 8.3147 -10
vertex 6.83477 -7.26499 -10
endloop
endfacet
facet normal -2.9879793137460995e-13 0 -1
outer loop
vertex 5.54426 -8.32081 -10
vertex 5.5557 8.3147 -10
vertex 5.5557 -8.3147 -10
endloop
endfacet
facet normal 0 0 -1
outer loop
vertex 5 -8.61173 -10
vertex 5.5557 8.3147 -10
vertex 5.54426 -8.32081 -10
endloop
endfacet
facet normal 0 0 -1
outer loop
vertex 3.82683 -9.2388 -10
vertex 5.5557 8.3147 -10
vertex 5 -8.61173 -10
endloop
endfacet
facet normal -4.448486734104682e-16 0 -1
outer loop
vertex 3.82683 -9.2388 -10
vertex 3.82683 9.2388 -10
vertex 5.5557 8.3147 -10
endloop
endfacet
facet normal 4.0997559930229593e-16 0 -1
outer loop
vertex 3.82683 -9.2388 -10
vertex 1.9509 9.80785 -10
vertex 3.82683 9.2388 -10
endloop
endfacet
facet normal 0 0 -1
outer loop
vertex 1.9509 -9.80785 -10
vertex 1.9509 9.80785 -10
vertex 3.82683 -9.2388 -10
endloop
endfacet
facet normal 5.570223727754734e-16 0 -0.9999999999999999
outer loop
vertex 1.9509 -9.80785 -10
vertex 0 10 -10
vertex 1.9509 9.80785 -10
endloop
endfacet
facet normal -1.456851167686914e-15 0 -1
outer loop
vertex 0 -10 -10
vertex 0 10 -10
vertex 1.9509 -9.80785 -10
endloop
endfacet
facet normal 9.105319798043213e-16 0 -1
outer loop
vertex 0 -10 -10
vertex -1.9509 9.80785 -10
vertex 0 10 -10
endloop
endfacet
facet normal 0 0 -0.9999999999999999
outer loop
vertex -1.9509 -9.80785 -10
vertex -1.9509 9.80785 -10
vertex 0 -10 -10
endloop
endfacet
facet normal -3.8618887593448633e-16 0 -1
outer loop
vertex -1.9509 -9.80785 -10
vertex -3.82683 9.2388 -10
vertex -1.9509 9.80785 -10
endloop
endfacet
facet normal 0 0 -1
outer loop
vertex -3.82683 -9.2388 -10
vertex -3.82683 9.2388 -10
vertex -1.9509 -9.80785 -10
endloop
endfacet
facet normal 4.448486734104682e-16 0 -1
outer loop
vertex -3.82683 -9.2388 -10
vertex -5.5557 8.3147 -10
vertex -3.82683 9.2388 -10
endloop
endfacet
facet normal 0 0 -1
outer loop
vertex -5.5557 -8.3147 -10
vertex -5.5557 8.3147 -10
vertex -3.82683 -9.2388 -10
endloop
endfacet
facet normal 1.2688417273639592e-15 0 -1
outer loop
vertex -5.5557 -8.3147 -10
vertex -7.07107 7.07107 -10
vertex -5.5557 8.3147 -10
endloop
endfacet
facet normal 0 0 -1
outer loop
vertex -7.07107 -7.07107 -10
vertex -7.07107 7.07107 -10
vertex -5.5557 -8.3147 -10
endloop
endfacet
facet normal -2.020011704858144e-16 0 -1
outer loop
vertex -7.07107 -7.07107 -10
vertex -8.3147 5.5557 -10
vertex -7.07107 7.07107 -10
endloop
endfacet
facet normal 0 0 -1
outer loop
vertex -8.3147 -5.5557 -10
vertex -8.3147 5.5557 -10
vertex -7.07107 -7.07107 -10
endloop
endfacet
facet normal 0 0 -1
outer loop
vertex -8.61173 -5 -10
vertex -8.3147 5.5557 -10
vertex -8.3147 -5.5557 -10
endloop
endfacet
facet normal 0 0 -1
outer loop
vertex -9.2388 -3.82683 -10
vertex -8.3147 5.5557 -10
vertex -8.61173 -5 -10
endloop
endfacet
facet normal 2.009241147929982e-15 0 -0.9999999999999999
outer loop
vertex -9.2388 -3.82683 -10
vertex -9.2388 3.82683 -10
vertex -8.3147 5.5557 -10
endloop
endfacet
facet normal -4.894314413853157e-15 0 -1
outer loop
vertex -9.2388 -3.82683 -10
vertex -9.80785 1.9509 -10
vertex -9.2388 3.82683 -10
endloop
endfacet
facet normal 0 0 -1
outer loop
vertex -9.80785 -1.9509 -10
vertex -9.80785 1.9509 -10
vertex -9.2388 -3.82683 -10
endloop
endfacet
facet normal 0 0 -1
outer loop
vertex -9.80785 1.9509 -10
vertex -9.80785 -1.9509 -10
vertex -10 0 -10
endloop
endfacet
facet normal 0 -0.8 0.6
outer loop
vertex 0 -10 -10
vertex 2.5 -2.5 0
vertex -2.5 -2.5 0
endloop
endfacet
facet normal -0.6500991149469789 -0.5335216893046005 0.5410413549690261
outer loop
vertex -2.5 -2.5 0
vertex -8.3147 -5.5557 -10
vertex -7.07107 -7.07107 -10
endloop
endfacet
facet normal 0.3937520711788217 -0.7372379205048628 0.549035112731466
outer loop
vertex 5.54626 -8.29673 -9.9691
vertex 5.54426 -8.32081 -10
vertex 5.5557 -8.3147 -10
endloop
endfacet
facet normal 0.3940262403366041 -0.7371535871221431 0.5489516471595268
outer loop
vertex 5.54626 -8.29673 -9.9691
vertex 5 -8.61173 -10
vertex 5.54426 -8.32081 -10
endloop
endfacet
facet normal 0.3939750463861629 -0.7370783248581729 0.549089433379746
outer loop
vertex 5.54626 -8.29673 -9.9691
vertex 3.82683 -9.2388 -10
vertex 5 -8.61173 -10
endloop
endfacet
facet normal 0.3940015999886031 -0.7371241467516324 0.549008862844762
outer loop
vertex 5.54626 -8.29673 -9.9691
vertex 3.57468 -7.95814 -8.09957
vertex 3.82683 -9.2388 -10
endloop
endfacet
facet normal 0.3940027368499285 -0.737122824490966 0.5490098222884783
outer loop
vertex 3.04958 -3.5458 -1.79854
vertex 3.57468 -7.95814 -8.09957
vertex 5.54626 -8.29673 -9.9691
endloop
endfacet
facet normal 0.39399412947482115 -0.7371261993028463 0.5490114682233136
outer loop
vertex 3.04958 -3.5458 -1.79854
vertex 2.81327 -4.09108 -2.36107
vertex 3.57468 -7.95814 -8.09957
endloop
endfacet
facet normal 0.39399504658754225 -0.7371260812672168 0.5490109685426304
outer loop
vertex 2.65455 -2.79409 -0.50577
vertex 2.81327 -4.09108 -2.36107
vertex 3.04958 -3.5458 -1.79854
endloop
endfacet
facet normal 0.39403096310656777 -0.7371119513165698 0.5490041633171735
outer loop
vertex 2.65455 -2.79409 -0.50577
vertex 2.58253 -2.91918 -0.62203
vertex 2.81327 -4.09108 -2.36107
endloop
endfacet
facet normal 0.3940207052899218 -0.7371123679443872 0.5490109660346055
outer loop
vertex 2.58253 -2.91918 -0.62203
vertex 2.65455 -2.79409 -0.50577
vertex 2.5 -2.5 0
endloop
endfacet
facet normal -0.17860837917448352 -0.8267643883687327 0.5334413679252287
outer loop
vertex 2.81327 -4.09108 -2.36107
vertex 3.82683 -9.2388 -10
vertex 3.57468 -7.95814 -8.09957
endloop
endfacet
facet normal 0.8766517926884543 0.44479125543649545 -0.1834185744774652
outer loop
vertex 2.58253 -2.91918 -0.62203
vertex 3.82683 -9.2388 -10
vertex 2.81327 -4.09108 -2.36107
endloop
endfacet
facet normal -0.8533301242813864 0.3728224766693431 -0.36446001136482836
outer loop
vertex 2.5 -2.5 0
vertex 3.82683 -9.2388 -10
vertex 2.58253 -2.91918 -0.62203
endloop
endfacet
facet normal 0.23966205741333485 -0.7900772334270931 0.5642163268256228
outer loop
vertex 2.30965 -5.03328 -3.46652
vertex 3.82683 -9.2388 -10
vertex 2.5 -2.5 0
endloop
endfacet
facet normal 0.23966744115995103 -0.7900755029572284 0.56421646313691
outer loop
vertex 2.15891 -7.03955 -6.21188
vertex 3.82683 -9.2388 -10
vertex 2.30965 -5.03328 -3.46652
endloop
endfacet
facet normal 0.23966420363557492 -0.7900769168369792 0.5642158584948663
outer loop
vertex 3.82683 -9.2388 -10
vertex 2.15891 -7.03955 -6.21188
vertex 1.9509 -9.80785 -10
endloop
endfacet
facet normal 0.4868444070570949 -0.7177615133007621 0.4977960760606952
outer loop
vertex 2.5 -2.5 0
vertex 2.30965 -5.03328 -3.46652
vertex 2.45482 -3.10131 -0.82283
endloop
endfacet
facet normal 0.07947588554745867 -0.8069051475459482 0.5853098892725963
outer loop
vertex 2.19337 -3.41989 -1.22652
vertex 2.30965 -5.03328 -3.46652
vertex 2.5 -2.5 0
endloop
endfacet
facet normal 0.0794861539232771 -0.8069042292306208 0.5853097608824092
outer loop
vertex 2.19337 -3.41989 -1.22652
vertex 2.15891 -7.03955 -6.21188
vertex 2.30965 -5.03328 -3.46652
endloop
endfacet
facet normal 0.07946128817142949 -0.8069057517657919 0.585311038209104
outer loop
vertex 2.19337 -3.41989 -1.22652
vertex 1.9509 -9.80785 -10
vertex 2.15891 -7.03955 -6.21188
endloop
endfacet
facet normal 0.07947450400153051 -0.8069050734144294 0.5853101790604406
outer loop
vertex 1.25 -6.25 -5
vertex 1.9509 -9.80785 -10
vertex 2.19337 -3.41989 -1.22652
endloop
endfacet
facet normal 0.07947450400152865 -0.8069050734144297 0.5853101790604401
outer loop
vertex 1.9509 -9.80785 -10
vertex 1.25 -6.25 -5
vertex 0 -10 -10
endloop
endfacet
facet normal -0.39400070875254833 -0.7371236936922607 0.5490101107447548
outer loop
vertex -2.5 -2.5 0
vertex -5.5557 -8.3147 -10
vertex -3.82683 -9.2388 -10
endloop
endfacet
facet normal -0.5335216893046 -0.6500991149469786 0.5410413549690272
outer loop
vertex -2.5 -2.5 0
vertex -7.07107 -7.07107 -10
vertex -5.5557 -8.3147 -10
endloop
endfacet
facet normal -0.23966413064874226 -0.7900766762286181 0.5642162264238081
outer loop
vertex -1.9509 -9.80785 -10
vertex -2.5 -2.5 0
vertex -3.82683 -9.2388 -10
endloop
endfacet
facet normal -0.07947450400152865 -0.8069050734144297 0.5853101790604402
outer loop
vertex 0 -10 -10
vertex -2.5 -2.5 0
vertex -1.9509 -9.80785 -10
endloop
endfacet
facet normal 0.5335134594527506 -0.6501094805522205 0.5410370152576255
outer loop
vertex 6.79594 -6.79594 -9.3981
vertex 6.83477 -7.26499 -10
vertex 7.07107 -7.07107 -10
endloop
endfacet
facet normal 0.533527274685219 -0.6501021531962397 0.5410321964325006
outer loop
vertex 6.79594 -6.79594 -9.3981
vertex 5.5557 -8.3147 -10
vertex 6.83477 -7.26499 -10
endloop
endfacet
facet normal 0.533510460445312 -0.6500973030469781 0.5410546046070366
outer loop
vertex 6.79594 -6.79594 -9.3981
vertex 5.54626 -8.29673 -9.9691
vertex 5.5557 -8.3147 -10
endloop
endfacet
facet normal 0.5335192908321675 -0.6501000755922746 0.5410425658160921
outer loop
vertex 5.54626 -5.54626 -6.66422
vertex 5.54626 -8.29673 -9.9691
vertex 6.79594 -6.79594 -9.3981
endloop
endfacet
facet normal 0.5335228241037736 -0.6500983624775611 0.541041140084862
outer loop
vertex 3.17144 -3.17144 -1.46889
vertex 5.54626 -8.29673 -9.9691
vertex 5.54626 -5.54626 -6.66422
endloop
endfacet
facet normal 0.5335273325562767 -0.6500952007563507 0.5410404932802573
outer loop
vertex 3.17144 -3.17144 -1.46889
vertex 3.04958 -3.5458 -1.79854
vertex 5.54626 -8.29673 -9.9691
endloop
endfacet
facet normal 0.5335256861168396 -0.6500956350129289 0.5410415950651967
outer loop
vertex 2.6979 -2.6979 -0.43294
vertex 3.04958 -3.5458 -1.79854
vertex 3.17144 -3.17144 -1.46889
endloop
endfacet
facet normal 0.5335287956040344 -0.6500935131121105 0.5410410783580695
outer loop
vertex 2.6979 -2.6979 -0.43294
vertex 2.65455 -2.79409 -0.50577
vertex 3.04958 -3.5458 -1.79854
endloop
endfacet
facet normal 0.5335277627149406 -0.65009367318296 0.5410419045692088
outer loop
vertex 2.65455 -2.79409 -0.50577
vertex 2.6979 -2.6979 -0.43294
vertex 2.5 -2.5 0
endloop
endfacet
facet normal 0.6500995950143685 -0.5335209568064554 0.541041500451193
outer loop
vertex 2.6979 -2.6979 -0.43294
vertex 2.72428 -2.61786 -0.38571
vertex 2.5 -2.5 0
endloop
endfacet
facet normal 0.6500996012030796 -0.533520955321996 0.5410414944788446
outer loop
vertex 2.6979 -2.6979 -0.43294
vertex 3.23317 -2.88529 -1.26089
vertex 2.72428 -2.61786 -0.38571
endloop
endfacet
facet normal 0.650099141228153 -0.5335216564475929 0.5410413557906963
outer loop
vertex 3.17144 -3.17144 -1.46889
vertex 3.23317 -2.88529 -1.26089
vertex 2.6979 -2.6979 -0.43294
endloop
endfacet
facet normal 0.65009911642703 -0.533521665948666 0.5410413762219622
outer loop
vertex 3.17144 -3.17144 -1.46889
vertex 5.39613 -4.02195 -4.9807
vertex 3.23317 -2.88529 -1.26089
endloop
endfacet
facet normal 0.6501073403633365 -0.5335093792375395 0.5410436103229429
outer loop
vertex 3.17144 -3.17144 -1.46889
vertex 6.3763 -4.53705 -6.66638
vertex 5.39613 -4.02195 -4.9807
endloop
endfacet
facet normal 0.6500971431139201 -0.5335242255109963 0.5410412232981981
outer loop
vertex 5.54626 -5.54626 -6.66422
vertex 6.3763 -4.53705 -6.66638
vertex 3.17144 -3.17144 -1.46889
endloop
endfacet
facet normal 0.6500974680575234 -0.5335244941684432 0.5410405679313746
outer loop
vertex 5.54626 -5.54626 -6.66422
vertex 8.3147 -5.5557 -10
vertex 6.3763 -4.53705 -6.66638
endloop
endfacet
facet normal 0.6500999063668257 -0.5335194853234095 0.5410425773653021
outer loop
vertex 6.79594 -6.79594 -9.3981
vertex 8.3147 -5.5557 -10
vertex 5.54626 -5.54626 -6.66422
endloop
endfacet
facet normal 0.6501009847345474 -0.533523223797109 0.5410375951043622
outer loop
vertex 8.3147 -5.5557 -10
vertex 6.79594 -6.79594 -9.3981
vertex 7.07107 -7.07107 -10
endloop
endfacet
facet normal 0 0.8 -0.6
outer loop
vertex 2.5 2.5 0
vertex -2.5 2.5 0
vertex 0 10 10
endloop
endfacet
facet normal -0.8 0 -0.6
outer loop
vertex -2.5 2.5 0
vertex -2.5 -2.5 0
vertex -10 0 10
endloop
endfacet
facet normal 0.39400070875254833 0.7371236936922607 -0.5490101107447548
outer loop
vertex 5.5557 8.3147 10
vertex 2.5 2.5 0
vertex 3.82683 9.2388 10
endloop
endfacet
facet normal 0.5335216893046002 0.6500991149469786 -0.5410413549690272
outer loop
vertex 7.07107 7.07107 10
vertex 2.5 2.5 0
vertex 5.5557 8.3147 10
endloop
endfacet
facet normal 0.23966413064874229 0.7900766762286182 -0.5642162264238081
outer loop
vertex 3.82683 9.2388 10
vertex 2.5 2.5 0
vertex 1.9509 9.80785 10
endloop
endfacet
facet normal 0.07947450400152895 0.8069050734144297 -0.5853101790604401
outer loop
vertex 2.5 2.5 0
vertex 0 10 10
vertex 1.9509 9.80785 10
endloop
endfacet
facet normal 0.7900766762286177 0.2396641306487428 -0.5642162264238083
outer loop
vertex 9.2388 3.82683 10
vertex 9.80785 1.9509 10
vertex 2.5 2.5 0
endloop
endfacet
facet normal 0.80690507341443 0.07947450400152867 -0.5853101790604401
outer loop
vertex 2.5 2.5 0
vertex 9.80785 1.9509 10
vertex 10 0 10
endloop
endfacet
facet normal 0.7371236936922607 0.3940007087525477 -0.5490101107447549
outer loop
vertex 8.3147 5.5557 10
vertex 9.2388 3.82683 10
vertex 2.5 2.5 0
endloop
endfacet
facet normal 0.6500991149469789 0.5335216893046005 -0.5410413549690262
outer loop
vertex 7.07107 7.07107 10
vertex 8.3147 5.5557 10
vertex 2.5 2.5 0
endloop
endfacet
facet normal 0 -0.8 -0.6
outer loop
vertex 2.5 -2.5 0
vertex 0 -10 10
vertex -2.5 -2.5 0
endloop
endfacet
facet normal 0 0 -1
outer loop
vertex 2.5 -2.5 0
vertex -2.5 2.5 0
vertex 2.5 2.5 0
endloop
endfacet
facet normal 0 0 -1
outer loop
vertex -2.5 2.5 0
vertex 2.5 -2.5 0
vertex -2.5 -2.5 0
endloop
endfacet
facet normal 0.8 0 -0.6
outer loop
vertex 2.5 2.5 0
vertex 10 0 10
vertex 2.5 -2.5 0
endloop
endfacet
facet normal -0.39400070875254833 0.7371236936922607 -0.5490101107447548
outer loop
vertex -2.5 2.5 0
vertex -5.5557 8.3147 10
vertex -3.82683 9.2388 10
endloop
endfacet
facet normal -0.5335216893046 0.6500991149469786 -0.5410413549690272
outer loop
vertex -2.5 2.5 0
vertex -7.07107 7.07107 10
vertex -5.5557 8.3147 10
endloop
endfacet
facet normal -0.23966413064874226 0.7900766762286181 -0.5642162264238081
outer loop
vertex -1.9509 9.80785 10
vertex -2.5 2.5 0
vertex -3.82683 9.2388 10
endloop
endfacet
facet normal -0.07947450400152865 0.8069050734144297 -0.5853101790604402
outer loop
vertex 0 10 10
vertex -2.5 2.5 0
vertex -1.9509 9.80785 10
endloop
endfacet
facet normal -0.7900766762286177 0.2396641306487428 -0.5642162264238083
outer loop
vertex -9.2388 3.82683 10
vertex -2.5 2.5 0
vertex -9.80785 1.9509 10
endloop
endfacet
facet normal -0.80690507341443 0.07947450400152867 -0.5853101790604401
outer loop
vertex -2.5 2.5 0
vertex -10 0 10
vertex -9.80785 1.9509 10
endloop
endfacet
facet normal -0.7371236936922607 0.3940007087525477 -0.5490101107447549
outer loop
vertex -8.3147 5.5557 10
vertex -2.5 2.5 0
vertex -9.2388 3.82683 10
endloop
endfacet
facet normal -0.6500991149469789 0.5335216893046005 -0.5410413549690262
outer loop
vertex -7.07107 7.07107 10
vertex -2.5 2.5 0
vertex -8.3147 5.5557 10
endloop
endfacet
facet normal -0.7371236936922607 -0.3940007087525477 -0.549010110744755
outer loop
vertex -2.5 -2.5 0
vertex -8.3147 -5.5557 10
vertex -9.2388 -3.82683 10
endloop
endfacet
facet normal -0.6500991149469789 -0.5335216893046005 -0.5410413549690261
outer loop
vertex -2.5 -2.5 0
vertex -7.07107 -7.07107 10
vertex -8.3147 -5.5557 10
endloop
endfacet
facet normal -0.7900766762286177 -0.2396641306487428 -0.5642162264238083
outer loop
vertex -9.80785 -1.9509 10
vertex -2.5 -2.5 0
vertex -9.2388 -3.82683 10
endloop
endfacet
facet normal -0.80690507341443 -0.07947450400152867 -0.5853101790604401
outer loop
vertex -10 0 10
vertex -2.5 -2.5 0
vertex -9.80785 -1.9509 10
endloop
endfacet
facet normal -0.23966413064874226 -0.7900766762286181 -0.5642162264238081
outer loop
vertex -1.9509 -9.80785 10
vertex -3.82683 -9.2388 10
vertex -2.5 -2.5 0
endloop
endfacet
facet normal -0.07947450400152865 -0.8069050734144297 -0.5853101790604402
outer loop
vertex 0 -10 10
vertex -1.9509 -9.80785 10
vertex -2.5 -2.5 0
endloop
endfacet
facet normal -0.39400070875254833 -0.7371236936922607 -0.5490101107447548
outer loop
vertex -2.5 -2.5 0
vertex -3.82683 -9.2388 10
vertex -5.5557 -8.3147 10
endloop
endfacet
facet normal -0.5335216893046 -0.6500991149469786 -0.5410413549690272
outer loop
vertex -2.5 -2.5 0
vertex -5.5557 -8.3147 10
vertex -7.07107 -7.07107 10
endloop
endfacet
facet normal 0.7371236936922607 -0.3940007087525477 -0.549010110744755
outer loop
vertex 2.5 -2.5 0
vertex 9.2388 -3.82683 10
vertex 8.3147 -5.5557 10
endloop
endfacet
facet normal 0.6500991149469789 -0.5335216893046005 -0.5410413549690261
outer loop
vertex 2.5 -2.5 0
vertex 8.3147 -5.5557 10
vertex 7.07107 -7.07107 10
endloop
endfacet
facet normal 0.7900766762286177 -0.2396641306487428 -0.5642162264238083
outer loop
vertex 9.80785 -1.9509 10
vertex 9.2388 -3.82683 10
vertex 2.5 -2.5 0
endloop
endfacet
facet normal 0.80690507341443 -0.07947450400152867 -0.5853101790604401
outer loop
vertex 10 0 10
vertex 9.80785 -1.9509 10
vertex 2.5 -2.5 0
endloop
endfacet
facet normal 0.23966413064874229 -0.7900766762286182 -0.5642162264238081
outer loop
vertex 3.82683 -9.2388 10
vertex 1.9509 -9.80785 10
vertex 2.5 -2.5 0
endloop
endfacet
facet normal 0.07947450400152895 -0.8069050734144297 -0.5853101790604401
outer loop
vertex 2.5 -2.5 0
vertex 1.9509 -9.80785 10
vertex 0 -10 10
endloop
endfacet
facet normal 0 0 1
outer loop
vertex -1.9509 9.80785 10
vertex 1.9509 9.80785 10
vertex 0 10 10
endloop
endfacet
facet normal 0 0 1
outer loop
vertex -3.82683 9.2388 10
vertex 1.9509 9.80785 10
vertex -1.9509 9.80785 10
endloop
endfacet
facet normal 0 0 1
outer loop
vertex -3.82683 9.2388 10
vertex 3.82683 9.2388 10
vertex 1.9509 9.80785 10
endloop
endfacet
facet normal 0 0 1
outer loop
vertex -5.5557 8.3147 10
vertex 3.82683 9.2388 10
vertex -3.82683 9.2388 10
endloop
endfacet
facet normal 0 0 0.9999999999999999
outer loop
vertex -5.5557 8.3147 10
vertex 5.5557 8.3147 10
vertex 3.82683 9.2388 10
endloop
endfacet
facet normal 0 0 1
outer loop
vertex -7.07107 7.07107 10
vertex 5.5557 8.3147 10
vertex -5.5557 8.3147 10
endloop
endfacet
facet normal 0 0 1
outer loop
vertex -7.07107 7.07107 10
vertex 7.07107 7.07107 10
vertex 5.5557 8.3147 10
endloop
endfacet
facet normal 0 0 0.9999999999999999
outer loop
vertex -8.3147 5.5557 10
vertex 7.07107 7.07107 10
vertex -7.07107 7.07107 10
endloop
endfacet
facet normal 0 0 1
outer loop
vertex -8.3147 5.5557 10
vertex 8.3147 5.5557 10
vertex 7.07107 7.07107 10
endloop
endfacet
facet normal 0 0 1
outer loop
vertex -9.2388 3.82683 10
vertex 8.3147 5.5557 10
vertex -8.3147 5.5557 10
endloop
endfacet
facet normal 0 0 1
outer loop
vertex -9.2388 3.82683 10
vertex 9.2388 3.82683 10
vertex 8.3147 5.5557 10
endloop
endfacet
facet normal 0 0 1
outer loop
vertex -9.80785 1.9509 10
vertex 9.2388 3.82683 10
vertex -9.2388 3.82683 10
endloop
endfacet
facet normal 0 0 1
outer loop
vertex -9.80785 1.9509 10
vertex 9.80785 1.9509 10
vertex 9.2388 3.82683 10
endloop
endfacet
facet normal 0 0 1
outer loop
vertex -10 0 10
vertex 9.80785 1.9509 10
vertex -9.80785 1.9509 10
endloop
endfacet
facet normal 0 0 1
outer loop
vertex -10 0 10
vertex 10 0 10
vertex 9.80785 1.9509 10
endloop
endfacet
facet normal 0 0 1
outer loop
vertex -9.80785 -1.9509 10
vertex 10 0 10
vertex -10 0 10
endloop
endfacet
facet normal 0 0 1
outer loop
vertex -9.80785 -1.9509 10
vertex 9.80785 -1.9509 10
vertex 10 0 10
endloop
endfacet
facet normal 0 0 1
outer loop
vertex -9.2388 -3.82683 10
vertex 9.80785 -1.9509 10
vertex -9.80785 -1.9509 10
endloop
endfacet
facet normal 0 0 1
outer loop
vertex -9.2388 -3.82683 10
vertex 9.2388 -3.82683 10
vertex 9.80785 -1.9509 10
endloop
endfacet
facet normal 0 0 1
outer loop
vertex -8.3147 -5.5557 10
vertex 9.2388 -3.82683 10
vertex -9.2388 -3.82683 10
endloop
endfacet
facet normal 0 0 1
outer loop
vertex -8.3147 -5.5557 10
vertex 8.3147 -5.5557 10
vertex 9.2388 -3.82683 10
endloop
endfacet
facet normal 0 0 1
outer loop
vertex -7.07107 -7.07107 10
vertex 8.3147 -5.5557 10
vertex -8.3147 -5.5557 10
endloop
endfacet
facet normal 0 0 0.9999999999999999
outer loop
vertex -7.07107 -7.07107 10
vertex 7.07107 -7.07107 10
vertex 8.3147 -5.5557 10
endloop
endfacet
facet normal 0 0 1
outer loop
vertex -5.5557 -8.3147 10
vertex 7.07107 -7.07107 10
vertex -7.07107 -7.07107 10
endloop
endfacet
facet normal 0 0 1
outer loop
vertex -5.5557 -8.3147 10
vertex 5.5557 -8.3147 10
vertex 7.07107 -7.07107 10
endloop
endfacet
facet normal 0 0 1
outer loop
vertex -3.82683 -9.2388 10
vertex 5.5557 -8.3147 10
vertex -5.5557 -8.3147 10
endloop
endfacet
facet normal 0 0 1
outer loop
vertex -3.82683 -9.2388 10
vertex 3.82683 -9.2388 10
vertex 5.5557 -8.3147 10
endloop
endfacet
facet normal 0 0 1
outer loop
vertex -1.9509 -9.80785 10
vertex 3.82683 -9.2388 10
vertex -3.82683 -9.2388 10
endloop
endfacet
facet normal 0 0 1
outer loop
vertex -1.9509 -9.80785 10
vertex 1.9509 -9.80785 10
vertex 3.82683 -9.2388 10
endloop
endfacet
facet normal 0 0 1
outer loop
vertex 1.9509 -9.80785 10
vertex -1.9509 -9.80785 10
vertex 0 -10 10
endloop
endfacet
facet normal 0.39400070875254833 -0.7371236936922607 -0.5490101107447548
outer loop
vertex 5.5557 -8.3147 10
vertex 3.82683 -9.2388 10
vertex 2.5 -2.5 0
endloop
endfacet
facet normal 0.5335216893046002 -0.6500991149469786 -0.5410413549690272
outer loop
vertex 7.07107 -7.07107 10
vertex 5.5557 -8.3147 10
vertex 2.5 -2.5 0
endloop
endfacet
endsolid JSxCAD
