<?xml version="1.0" encoding="UTF-8"?>
<!-- Generated by jsxcad -->
<!DOCTYPE svg PUBLIC "-//W3C//DTD SVG 1.1 Tiny//EN" "http://www.w3.org/Graphics/SVG/1.1/DTD/svg11-tiny.dtd">
<svg viewBox="-250 -250 500 500" width="500" height="500" xmlns="http://www.w3.org/2000/svg"><path d="M55.85443216137962,25.142990605748253L-103.52843335284112,130.39013756284942L57.4408197363719,136.19172209833332zM-103.52843335284112,130.39013756284942L55.85443216137962,25.142990605748253L-100.55649266219092,15.130213422599903zM57.4408197363719,136.19172209833332L-69.99420621921664,150.23280287034413L47.14091176612885,143.46976151530023zM47.14091176612885,143.46976151530023L-69.99420621921664,150.23280287034413L25.778130900717652,153.24860972425913z" style="fill:rgb(160,159,246)"/><path d="M85.22979161547362,153.6371820956389L55.85443216137962,25.142990605748253L57.4408197363719,136.19172209833332z" style="fill:rgb(4,136,159)"/><path d="M25.778130900717652,153.24860972425913L-46.07218832372692,157.5646351885504L2.626819479809343,159.01941779674496z" style="fill:rgb(160,159,246)"/><path d="M55.85443216137962,25.142990605748253L-85.60358068144771,-5.832506281573405L-100.55649266219092,15.130213422599903z" style="fill:rgb(127,4,160)"/><path d="M57.4408197363719,136.19172209833332L-92.52024015608917,138.70483174532558L-69.99420621921664,150.23280287034413zM2.626819479809343,159.01941779674496L-46.07218832372692,157.5646351885504L-21.587890737207736,160.50275761538356zM57.4408197363719,136.19172209833332L-103.52843335284112,130.39013756284942L-92.52024015608917,138.70483174532558zM25.778130900717652,153.24860972425913L-69.99420621921664,150.23280287034413L-46.07218832372692,157.5646351885504z" style="fill:rgb(160,159,246)"/><path d="M55.85443216137962,25.142990605748253L85.22979161547362,153.6371820956389L82.10964869164289,5.7984658435332115z" style="fill:rgb(4,136,159)"/><path d="M-85.60358068144771,-5.832506281573405L55.85443216137962,25.142990605748253L82.10964869164289,5.7984658435332115z" style="fill:rgb(127,4,160)"/><path d="M85.22979161547362,153.6371820956389L57.4408197363719,136.19172209833332L65.83605309148413,147.7643875211024z" style="fill:rgb(4,136,159)"/><path d="M160.93499592037298,11.265031717890595L85.22979161547362,153.6371820956389L159.73619120797017,39.34769359895886zM85.22979161547362,153.6371820956389L160.93499592037298,11.265031717890595L82.10964869164289,5.7984658435332115zM159.73619120797017,39.34769359895886L85.22979161547362,153.6371820956389L153.7792335517512,66.73984129332219z" style="fill:rgb(160,159,246)"/><path d="M85.22979161547362,153.6371820956389L65.83605309148413,147.7643875211024L75.17358781506564,153.80426453907563z" style="fill:rgb(4,136,159)"/><path d="M153.7792335517512,66.73984129332219L85.22979161547362,153.6371820956389L143.10484629460728,92.65012698558006z" style="fill:rgb(160,159,246)"/><path d="M174.92895211138773,-12.027252569925201L160.93499592037298,11.265031717890595L170.50149403502365,3.9649225947746594z" style="fill:rgb(127,4,160)"/><path d="M143.10484629460728,92.65012698558006L85.22979161547362,153.6371820956389L127.8855105000161,116.28171655865938z" style="fill:rgb(160,159,246)"/><path d="M160.93499592037298,11.265031717890595L112.69389476565424,-16.73563128478127L82.10964869164289,5.7984658435332115z" style="fill:rgb(127,4,160)"/><path d="M127.8855105000161,116.28171655865938L85.22979161547362,153.6371820956389L108.43761165645076,136.85523583110717z" style="fill:rgb(160,159,246)"/><path d="M174.92895211138773,-12.027252569925201L170.50149403502365,3.9649225947746594L175.35406217875726,-3.8665378578039387z" style="fill:rgb(127,4,160)"/><path d="M-76.88588913457762,-157.09697571199857L-65.88194858103247,-162.75377750518234L-75.55624187035615,-157.82225556549375z" style="fill:rgb(67,237,149)"/><path d="M112.69389476565424,-16.73563128478127L160.93499592037298,11.265031717890595L174.92895211138773,-12.027252569925201zM82.10964869164289,5.7984658435332115L24.35297986146737,-23.41903995191029L3.856439123172416e-14,0.1041324942522716z" style="fill:rgb(127,4,160)"/><path d="M-100.41081315361548,-144.26484481941975L-71.29522644655746,-159.80021816095783L-76.88588913457762,-157.09697571199857z" style="fill:rgb(67,237,149)"/><path d="M-161.4693276805403,-69.86385245919827L-140.9966965955018,-104.19893000537527L-147.3180464216832,-95.16654118053606z" style="fill:rgb(19,189,152)"/><path d="M-2.8871406910401385,-174.55986331956757L15.559814820340154,-174.47157167428426L-12.236966034426622,-175.2861880929258z" style="fill:rgb(131,252,150)"/><path d="M-173.51351710906664,18.666022373449383L-175.35406217875726,-3.866537857803822L-174.00253772070081,25.560472908461268z" style="fill:rgb(2,122,151)"/><path d="M-65.88194858103247,-162.75377750518234L-76.88588913457762,-157.09697571199857L-71.29522644655746,-159.80021816095783z" style="fill:rgb(67,237,149)"/><path d="M-122.48027121872953,-126.25301004418706L-90.1587489097332,-149.50802566112236L-100.41081315361548,-144.26484481941975z" style="fill:rgb(51,225,157)"/><path d="M15.559814820340154,-174.47157167428426L-2.8871406910401385,-174.55986331956757L23.40458439548537,-173.79257674270127z" style="fill:rgb(131,252,150)"/><path d="M-166.50720024763947,49.16046535904259L-174.00253772070081,25.560472908461268L-167.3024368356308,54.77130481948346z" style="fill:rgb(6,101,156)"/><path d="M-28.777186157823376,-170.85733663878563L-12.236966034426622,-175.2861880929258L-39.64401162990986,-171.38460835547602z" style="fill:rgb(112,250,156)"/><path d="M-175.35406217875726,-3.866537857803822L-173.51351710906664,18.666022373449383L-174.92895211138773,-12.027252569925086z" style="fill:rgb(2,122,151)"/><path d="M117.79446107012606,-127.33223029527684L137.25496028942493,-110.07182339107649L118.8617524545941,-129.69873572872282z" style="fill:rgb(217,212,157)"/><path d="M97.72199733379826,-146.28910146002156L117.79446107012606,-127.33223029527684L118.8617524545941,-129.69873572872282z" style="fill:rgb(204,224,158)"/><path d="M-71.29522644655746,-159.80021816095783L-100.41081315361548,-144.26484481941975L-90.1587489097332,-149.50802566112236z" style="fill:rgb(67,237,149)"/><path d="M134.54861369545196,-109.45379346713132L152.42959649193875,-87.90915297559816L137.25496028942493,-110.07182339107649z" style="fill:rgb(229,197,158)"/><path d="M-170.82287283579814,-41.863174961358865L-155.25923786601294,-78.67403317951695L-161.4693276805403,-69.86385245919827z" style="fill:rgb(11,170,159)"/><path d="M-155.40357736151196,82.73066189363821L-166.50720024763947,49.16046535904259L-167.3024368356308,54.77130481948346z" style="fill:rgb(13,80,159)"/><path d="M74.36693795042878,-159.40349131495952L98.53911370804943,-142.43947679197552L97.72199733379826,-146.28910146002156z" style="fill:rgb(189,234,159)"/><path d="M148.36456841958088,-89.26808272661007L163.97810799090777,-63.767625105851764L152.42959649193875,-87.90915297559816z" style="fill:rgb(237,182,160)"/><path d="M-140.9966965955018,-104.19893000537527L-161.4693276805403,-69.86385245919827L-155.25923786601294,-78.67403317951695z" style="fill:rgb(19,189,152)"/><path d="M24.35297986146737,-23.41903995191029L82.10964869164289,5.7984658435332115L112.69389476565424,-16.73563128478127z" style="fill:rgb(127,4,160)"/><path d="M-138.67163086278882,108.42689612014773L-154.06418493050472,78.36872433984054L-155.40357736151196,82.73066189363821z" style="fill:rgb(24,61,162)"/><path d="M-89.00040240588912,148.08514990675897L-117.67744273711692,130.92487553726593L-94.49339800208443,148.41858396834786z" style="fill:rgb(54,29,162)"/><path d="M-12.236966034426622,-175.2861880929258L-28.777186157823376,-170.85733663878563L-2.8871406910401385,-174.55986331956757z" style="fill:rgb(112,250,156)"/><path d="M49.38252478495493,-168.6700772809789L77.27554156428423,-154.37006074122817L74.36693795042878,-159.40349131495952z" style="fill:rgb(172,241,162)"/><path d="M-117.67744273711692,130.92487553726593L-136.56702476954544,105.22649486234816L-138.67163086278882,108.42689612014773z" style="fill:rgb(37,43,162)"/><path d="M-174.00253772070081,25.560472908461268L-166.50720024763947,49.16046535904259L-173.51351710906664,18.666022373449383z" style="fill:rgb(6,101,156)"/><path d="M3.856439123172417e-14,0.10413249425227392L-68.07124227767463,-30.41137202183308L-85.60358068144771,-5.832506281573405z" style="fill:rgb(127,4,160)"/><path d="M158.8668755473422,-67.29183415875376L171.56381562939487,-38.255520726040494L163.97810799090777,-63.767625105851764z" style="fill:rgb(243,165,163)"/><path d="M-140.9966965955018,-104.19893000537527L-111.69089405366019,-131.90216559364745L-122.48027121872953,-126.25301004418706z" style="fill:rgb(38,210,165)"/><path d="M-53.5258236175828,-162.67938365568546L-39.64401162990986,-171.38460835547602L-65.88194858103247,-162.75377750518234z" style="fill:rgb(94,245,162)"/><path d="M137.25496028942493,-110.07182339107649L117.79446107012606,-127.33223029527684L134.54861369545196,-109.45379346713132z" style="fill:rgb(217,212,157)"/><path d="M-90.1587489097332,-149.50802566112236L-122.48027121872953,-126.25301004418706L-111.69089405366019,-131.90216559364745z" style="fill:rgb(51,225,157)"/><path d="M117.79446107012606,-127.33223029527684L97.72199733379826,-146.28910146002156L98.53911370804943,-142.43947679197552z" style="fill:rgb(204,224,158)"/><path d="M152.42959649193875,-87.90915297559816L134.54861369545196,-109.45379346713132L148.36456841958088,-89.26808272661007z" style="fill:rgb(229,197,158)"/><path d="M-71.29522644655746,-159.80021816095783L-53.5258236175828,-162.67938365568546L-65.88194858103247,-162.75377750518234z" style="fill:rgb(77,236,169)"/><path d="M-166.50720024763947,49.16046535904259L-155.40357736151196,82.73066189363821L-154.06418493050472,78.36872433984054z" style="fill:rgb(13,80,159)"/><path d="M30.943424367613197,-167.41152832677747L49.38252478495493,-168.6700772809789L23.40458439548537,-173.79257674270127z" style="fill:rgb(155,245,166)"/><path d="M-168.77608566358407,-20.265334760735502L-170.82287283579814,-41.863174961358865L-174.92895211138773,-12.027252569925086z" style="fill:rgb(8,149,166)"/><path d="M98.53911370804943,-142.43947679197552L74.36693795042878,-159.40349131495952L77.27554156428423,-154.37006074122817z" style="fill:rgb(189,234,159)"/><path d="M-155.25923786601294,-78.67403317951695L-170.82287283579814,-41.863174961358865L-164.67078849807874,-50.40597187131402z" style="fill:rgb(11,170,159)"/><path d="M163.97810799090777,-63.767625105851764L148.36456841958088,-89.26808272661007L158.8668755473422,-67.29183415875376z" style="fill:rgb(237,182,160)"/><path d="M171.56381562939487,-38.255520726040494L168.77608566358407,-20.265334760735616L174.92895211138773,-12.027252569925201z" style="fill:rgb(247,147,167)"/><path d="M-39.64401162990986,-171.38460835547602L-53.5258236175828,-162.67938365568546L-28.777186157823376,-170.85733663878563z" style="fill:rgb(94,245,162)"/><path d="M-154.06418493050472,78.36872433984054L-138.67163086278882,108.42689612014773L-136.56702476954544,105.22649486234816z" style="fill:rgb(24,61,162)"/><path d="M-117.67744273711692,130.92487553726593L-89.00040240588912,148.08514990675897L-114.615673870691,128.74913939978782z" style="fill:rgb(54,29,162)"/><path d="M-136.56702476954544,105.22649486234816L-117.67744273711692,130.92487553726593L-114.615673870691,128.74913939978782z" style="fill:rgb(37,43,162)"/><path d="M77.27554156428423,-154.37006074122817L49.38252478495493,-168.6700772809789L54.54739224880062,-162.78345000302997z" style="fill:rgb(172,241,162)"/><path d="M-90.1587489097332,-149.50802566112236L-65.85467302866698,-155.91738248007843L-71.29522644655746,-159.80021816095783z" style="fill:rgb(77,236,169)"/><path d="M171.56381562939487,-38.255520726040494L158.8668755473422,-67.29183415875376L165.7480093989543,-44.08912882267384z" style="fill:rgb(243,165,163)"/><path d="M-155.25923786601294,-78.67403317951695L-129.73017264532,-110.34152130430003L-140.9966965955018,-104.19893000537527z" style="fill:rgb(28,193,172)"/><path d="M7.090749881133528,-168.06747117190454L23.40458439548537,-173.79257674270127L-2.8871406910401385,-174.55986331956757z" style="fill:rgb(137,246,170)"/><path d="M-170.82287283579814,-41.863174961358865L-168.77608566358407,-20.265334760735502L-164.67078849807874,-50.40597187131402z" style="fill:rgb(8,149,166)"/><path d="M49.38252478495493,-168.6700772809789L30.943424367613197,-167.41152832677747L54.54739224880062,-162.78345000302997z" style="fill:rgb(155,245,166)"/><path d="M-111.69089405366019,-131.90216559364745L-140.9966965955018,-104.19893000537527L-129.73017264532,-110.34152130430003z" style="fill:rgb(38,210,165)"/><path d="M-167.2976385807121,10.759563093018782L-174.92895211138773,-12.027252569925086L-173.51351710906664,18.666022373449383z" style="fill:rgb(8,128,172)"/><path d="M168.77608566358407,-20.265334760735616L171.56381562939487,-38.255520726040494L165.7480093989543,-44.08912882267384z" style="fill:rgb(247,147,167)"/><path d="M-53.5258236175828,-162.67938365568546L-71.29522644655746,-159.80021816095783L-65.85467302866698,-155.91738248007843z" style="fill:rgb(77,236,169)"/><path d="M-111.69089405366019,-131.90216559364745L-76.38466353363141,-150.1419873690871L-90.1587489097332,-149.50802566112236z" style="fill:rgb(62,225,176)"/><path d="M23.40458439548537,-173.79257674270127L7.090749881133528,-168.06747117190454L30.943424367613197,-167.41152832677747z" style="fill:rgb(137,246,170)"/><path d="M-68.07124227767463,-30.41137202183308L3.856439123172417e-14,0.10413249425227392L24.35297986146737,-23.41903995191029z" style="fill:rgb(127,4,160)"/><path d="M-16.35391296149652,-164.6555780338087L-2.8871406910401385,-174.55986331956757L-28.777186157823376,-170.85733663878563z" style="fill:rgb(120,245,176)"/><path d="M-160.16554259617416,41.599901618485724L-173.51351710906664,18.666022373449383L-166.50720024763947,49.16046535904259z" style="fill:rgb(11,106,177)"/><path d="M-174.92895211138773,-12.027252569925086L-167.2976385807121,10.759563093018782L-168.77608566358407,-20.265334760735502z" style="fill:rgb(8,128,172)"/><path d="M-65.85467302866698,-155.91738248007843L-90.1587489097332,-149.50802566112236L-76.38466353363141,-150.1419873690871z" style="fill:rgb(77,236,169)"/><path d="M112.77050131177616,-120.6130709069576L134.54861369545196,-109.45379346713132L117.79446107012606,-127.33223029527684z" style="fill:rgb(212,207,178)"/><path d="M98.53911370804943,-142.43947679197552L112.77050131177616,-120.6130709069576L117.79446107012606,-127.33223029527684z" style="fill:rgb(200,218,179)"/><path d="M127.23383270238125,-105.17762085478145L148.36456841958088,-89.26808272661007L134.54861369545196,-109.45379346713132z" style="fill:rgb(222,195,179)"/><path d="M-129.73017264532,-110.34152130430003L-155.25923786601294,-78.67403317951695L-143.59547784874985,-85.38653104437444z" style="fill:rgb(28,193,172)"/><path d="M77.27554156428423,-154.37006074122817L96.14415467718834,-133.6454656149608L98.53911370804943,-142.43947679197552z" style="fill:rgb(187,226,180)"/><path d="M-147.53658557780244,71.15419028906709L-166.50720024763947,49.16046535904259L-154.06418493050472,78.36872433984054z" style="fill:rgb(19,86,180)"/><path d="M-152.70839937561684,-57.749527413675494L-155.25923786601294,-78.67403317951695L-164.67078849807874,-50.40597187131402z" style="fill:rgb(21,174,179)"/><path d="M139.14838664807772,-87.74903353055134L158.8668755473422,-67.29183415875376L148.36456841958088,-89.26808272661007z" style="fill:rgb(229,181,181)"/><path d="M-2.8871406910401385,-174.55986331956757L-16.35391296149652,-164.6555780338087L7.090749881133528,-168.06747117190454z" style="fill:rgb(120,245,176)"/><path d="M-136.56702476954544,105.22649486234816L-147.53658557780244,71.15419028906709L-154.06418493050472,78.36872433984054z" style="fill:rgb(29,66,182)"/><path d="M-83.02841712257083,140.7086784018898L-114.615673870691,128.74913939978782L-89.00040240588912,148.08514990675897z" style="fill:rgb(59,34,182)"/><path d="M156.62985709643178,-28.281433567602274L174.92895211138773,-12.027252569925201L168.77608566358407,-20.265334760735616z" style="fill:rgb(127,4,160)"/><path d="M-173.51351710906664,18.666022373449383L-160.16554259617416,41.599901618485724L-167.2976385807121,10.759563093018782z" style="fill:rgb(11,106,177)"/><path d="M-129.73017264532,-110.34152130430003L-96.61705342919981,-133.49413347322803L-111.69089405366019,-131.90216559364745z" style="fill:rgb(49,211,184)"/><path d="M-114.615673870691,128.74913939978782L-129.79937241968366,98.34338407535824L-136.56702476954544,105.22649486234816z" style="fill:rgb(43,49,183)"/><path d="M-38.715789128825804,-157.18187030132896L-28.777186157823376,-170.85733663878563L-53.5258236175828,-162.67938365568546z" style="fill:rgb(103,240,182)"/><path d="M148.18505405764836,-68.78490141414831L165.7480093989543,-44.08912882267384L158.8668755473422,-67.29183415875376z" style="fill:rgb(235,166,183)"/><path d="M58.193513231559265,-151.1366764086177L77.27554156428423,-154.37006074122817L54.54739224880062,-162.78345000302997z" style="fill:rgb(173,232,183)"/><path d="M-76.38466353363141,-150.1419873690871L-111.69089405366019,-131.90216559364745L-96.61705342919981,-133.49413347322803z" style="fill:rgb(62,225,176)"/><path d="M-155.25923786601294,-78.67403317951695L-152.70839937561684,-57.749527413675494L-143.59547784874985,-85.38653104437444z" style="fill:rgb(21,174,179)"/><path d="M134.54861369545196,-109.45379346713132L112.77050131177616,-120.6130709069576L127.23383270238125,-105.17762085478145z" style="fill:rgb(212,207,178)"/><path d="M112.77050131177616,-120.6130709069576L98.53911370804943,-142.43947679197552L96.14415467718834,-133.6454656149608z" style="fill:rgb(200,218,179)"/><path d="M-166.50720024763947,49.16046535904259L-147.53658557780244,71.15419028906709L-160.16554259617416,41.599901618485724z" style="fill:rgb(19,86,180)"/><path d="M148.36456841958088,-89.26808272661007L127.23383270238125,-105.17762085478145L139.14838664807772,-87.74903353055134z" style="fill:rgb(222,195,179)"/><path d="M37.87068090434741,-155.0705423034609L54.54739224880062,-162.78345000302997L30.943424367613197,-167.41152832677747z" style="fill:rgb(158,236,186)"/><path d="M-156.62985709643178,-28.28143356760217L-164.67078849807874,-50.40597187131402L-168.77608566358407,-20.265334760735502z" style="fill:rgb(17,154,186)"/><path d="M-28.777186157823376,-170.85733663878563L-38.715789128825804,-157.18187030132896L-16.35391296149652,-164.6555780338087z" style="fill:rgb(103,240,182)"/><path d="M165.7480093989543,-44.08912882267384L156.62985709643178,-28.281433567602274L168.77608566358407,-20.265334760735616z" style="fill:rgb(237,151,186)"/><path d="M96.14415467718834,-133.6454656149608L77.27554156428423,-154.37006074122817L77.79133783908266,-143.91867957340207z" style="fill:rgb(187,226,180)"/><path d="M158.8668755473422,-67.29183415875376L139.14838664807772,-87.74903353055134L148.18505405764836,-68.78490141414831z" style="fill:rgb(229,181,181)"/><path d="M77.27554156428423,-154.37006074122817L58.193513231559265,-151.1366764086177L77.79133783908266,-143.91867957340207z" style="fill:rgb(173,232,183)"/><path d="M-147.53658557780244,71.15419028906709L-136.56702476954544,105.22649486234816L-129.79937241968366,98.34338407535824z" style="fill:rgb(29,66,182)"/><path d="M-114.615673870691,128.74913939978782L-83.02841712257083,140.7086784018898L-107.56309035240618,122.16858194169296z" style="fill:rgb(59,34,182)"/><path d="M-59.31710250881751,-145.76430426919612L-53.5258236175828,-162.67938365568546L-76.38466353363141,-150.1419873690871z" style="fill:rgb(88,232,188)"/><path d="M-129.79937241968366,98.34338407535824L-114.615673870691,128.74913939978782L-107.56309035240618,122.16858194169296z" style="fill:rgb(43,49,183)"/><path d="M-143.59547784874985,-85.38653104437444L-113.52334921864056,-113.12613614527864L-129.73017264532,-110.34152130430003z" style="fill:rgb(40,195,191)"/><path d="M165.7480093989543,-44.08912882267384L148.18505405764836,-68.78490141414831L154.07767273076172,-48.78438688704752z" style="fill:rgb(235,166,183)"/><path d="M17.373963086911136,-155.5659776199775L30.943424367613197,-167.41152832677747L7.090749881133528,-168.06747117190454z" style="fill:rgb(143,237,190)"/><path d="M-164.67078849807874,-50.40597187131402L-156.62985709643178,-28.28143356760217L-152.70839937561684,-57.749527413675494z" style="fill:rgb(17,154,186)"/><path d="M-96.61705342919981,-133.49413347322803L-129.73017264532,-110.34152130430003L-113.52334921864056,-113.12613614527864z" style="fill:rgb(49,211,184)"/><path d="M54.54739224880062,-162.78345000302997L37.87068090434741,-155.0705423034609L58.193513231559265,-151.1366764086177z" style="fill:rgb(158,236,186)"/><path d="M-155.094707005975,2.0529466689010194L-168.77608566358407,-20.265334760735502L-167.2976385807121,10.759563093018782z" style="fill:rgb(17,133,191)"/><path d="M156.62985709643178,-28.281433567602274L165.7480093989543,-44.08912882267384L154.07767273076172,-48.78438688704752z" style="fill:rgb(237,151,186)"/><path d="M-53.5258236175828,-162.67938365568546L-59.31710250881751,-145.76430426919612L-38.715789128825804,-157.18187030132896z" style="fill:rgb(88,232,188)"/><path d="M138.48545175376483,-35.73854207815181L174.92895211138773,-12.027252569925201L156.62985709643178,-28.281433567602274z" style="fill:rgb(127,4,160)"/><path d="M30.943424367613197,-167.41152832677747L17.373963086911136,-155.5659776199775L37.87068090434741,-155.0705423034609z" style="fill:rgb(143,237,190)"/><path d="M-2.723463447155782,-152.551392380583L7.090749881133528,-168.06747117190454L-16.35391296149652,-164.6555780338087z" style="fill:rgb(128,235,194)"/><path d="M-77.49601977286903,-130.6416086315232L-76.38466353363141,-150.1419873690871L-96.61705342919981,-133.49413347322803z" style="fill:rgb(74,222,194)"/><path d="M-148.04006782995816,32.21115022495553L-167.2976385807121,10.759563093018782L-160.16554259617416,41.599901618485724z" style="fill:rgb(21,112,196)"/><path d="M-168.77608566358407,-20.265334760735502L-155.094707005975,2.0529466689010194L-156.62985709643178,-28.28143356760217z" style="fill:rgb(17,133,191)"/><path d="M-113.52334921864056,-113.12613614527864L-143.59547784874985,-85.38653104437444L-126.4705623325561,-89.57284758417936z" style="fill:rgb(40,195,191)"/><path d="M103.63502243493103,-109.41680593762824L127.23383270238125,-105.17762085478145L112.77050131177616,-120.6130709069576z" style="fill:rgb(204,200,198)"/><path d="M96.14415467718834,-133.6454656149608L103.63502243493103,-109.41680593762824L112.77050131177616,-120.6130709069576z" style="fill:rgb(195,208,198)"/><path d="M115.18701452642082,-97.08623539983753L139.14838664807772,-87.74903353055134L127.23383270238125,-105.17762085478145z" style="fill:rgb(212,190,198)"/><path d="M-134.9249802549202,-63.50952118359883L-143.59547784874985,-85.38653104437444L-152.70839937561684,-57.749527413675494z" style="fill:rgb(33,177,197)"/><path d="M-76.38466353363141,-150.1419873690871L-77.49601977286903,-130.6416086315232L-59.31710250881751,-145.76430426919612z" style="fill:rgb(74,222,194)"/><path d="M77.79133783908266,-143.91867957340207L90.34870487667402,-119.81438302211644L96.14415467718834,-133.6454656149608z" style="fill:rgb(184,215,199)"/><path d="M-135.62349699518865,61.119429400337765L-160.16554259617416,41.599901618485724L-147.53658557780244,71.15419028906709z" style="fill:rgb(28,92,199)"/><path d="M7.090749881133528,-168.06747117190454L-2.723463447155782,-152.551392380583L17.373963086911136,-155.5659776199775z" style="fill:rgb(128,235,194)"/><path d="M124.6879220852153,-83.1596288850213L148.18505405764836,-68.78490141414831L139.14838664807772,-87.74903353055134z" style="fill:rgb(218,179,200)"/><path d="M-21.837674194906967,-146.04585392978493L-16.35391296149652,-164.6555780338087L-38.715789128825804,-157.18187030132896z" style="fill:rgb(113,231,199)"/><path d="M-167.2976385807121,10.759563093018782L-148.04006782995816,32.21115022495553L-155.094707005975,2.0529466689010194z" style="fill:rgb(21,112,196)"/><path d="M-118.2274363085414,87.72609147484147L-147.53658557780244,71.15419028906709L-129.79937241968366,98.34338407535824z" style="fill:rgb(38,74,201)"/><path d="M-83.02841712257083,140.7086784018898L-96.44814045799347,111.05718552252888L-107.56309035240618,122.16858194169296z" style="fill:rgb(67,42,201)"/><path d="M131.86995518975405,-68.01423156141449L154.07767273076172,-48.78438688704752L148.18505405764836,-68.78490141414831z" style="fill:rgb(222,167,202)"/><path d="M60.04973695456847,-133.70045740143468L77.79133783908266,-143.91867957340207L58.193513231559265,-151.1366764086177z" style="fill:rgb(172,220,201)"/><path d="M-96.44814045799347,111.05718552252888L-129.79937241968366,98.34338407535824L-107.56309035240618,122.16858194169296z" style="fill:rgb(51,57,202)"/><path d="M-143.59547784874985,-85.38653104437444L-134.9249802549202,-63.50952118359883L-126.4705623325561,-89.57284758417936z" style="fill:rgb(33,177,197)"/><path d="M174.92895211138773,-12.027252569925201L53.190067914059256,-51.27352835394767L24.35297986146737,-23.41903995191029z" style="fill:rgb(127,4,160)"/><path d="M-92.62946948932344,-112.17906552554574L-96.61705342919981,-133.49413347322803L-113.52334921864056,-113.12613614527864z" style="fill:rgb(63,209,201)"/><path d="M127.23383270238125,-105.17762085478145L103.63502243493103,-109.41680593762824L115.18701452642082,-97.08623539983753z" style="fill:rgb(204,200,198)"/><path d="M-16.35391296149652,-164.6555780338087L-21.837674194906967,-146.04585392978493L-2.723463447155782,-152.551392380583z" style="fill:rgb(113,231,199)"/><path d="M-138.4854517537649,-35.73854207815171L-152.70839937561684,-57.749527413675494L-156.62985709643178,-28.28143356760217z" style="fill:rgb(30,158,203)"/><path d="M-160.16554259617416,41.599901618485724L-135.62349699518865,61.119429400337765L-148.04006782995816,32.21115022495553z" style="fill:rgb(28,92,199)"/><path d="M43.861327340840056,-136.7706867545926L58.193513231559265,-151.1366764086177L37.87068090434741,-155.0705423034609z" style="fill:rgb(160,223,204)"/><path d="M114.66779945691097,-42.28074504080004L174.92895211138773,-12.027252569925201L138.48545175376483,-35.73854207815181z" style="fill:rgb(127,4,160)"/><path d="M103.63502243493103,-109.41680593762824L96.14415467718834,-133.6454656149608L90.34870487667402,-119.81438302211644z" style="fill:rgb(195,208,198)"/><path d="M139.14838664807772,-87.74903353055134L115.18701452642082,-97.08623539983753L124.6879220852153,-83.1596288850213z" style="fill:rgb(212,190,198)"/><path d="M154.07767273076172,-48.78438688704752L138.48545175376483,-35.73854207815181L156.62985709643178,-28.281433567602274z" style="fill:rgb(225,154,204)"/><path d="M-96.61705342919981,-133.49413347322803L-92.62946948932344,-112.17906552554574L-77.49601977286903,-130.6416086315232z" style="fill:rgb(63,209,201)"/><path d="M90.34870487667402,-119.81438302211644L77.79133783908266,-143.91867957340207L75.68796020813228,-127.98835615324425z" style="fill:rgb(184,215,199)"/><path d="M-39.38790674898424,-136.16648011008132L-38.715789128825804,-157.18187030132896L-59.31710250881751,-145.76430426919612z" style="fill:rgb(100,224,205)"/><path d="M148.18505405764836,-68.78490141414831L124.6879220852153,-83.1596288850213L131.86995518975405,-68.01423156141449z" style="fill:rgb(218,179,200)"/><path d="M-126.4705623325561,-89.57284758417936L-92.62946948932344,-112.17906552554574L-113.52334921864056,-113.12613614527864z" style="fill:rgb(54,194,207)"/><path d="M-147.53658557780244,71.15419028906709L-118.2274363085414,87.72609147484147L-135.62349699518865,61.119429400337765z" style="fill:rgb(38,74,201)"/><path d="M77.79133783908266,-143.91867957340207L60.04973695456847,-133.70045740143468L75.68796020813228,-127.98835615324425z" style="fill:rgb(172,220,201)"/><path d="M-96.44814045799347,111.05718552252888L-83.02841712257083,140.7086784018898L-76.7646433965501,125.95745937531738z" style="fill:rgb(67,42,201)"/><path d="M-129.79937241968366,98.34338407535824L-96.44814045799347,111.05718552252888L-118.2274363085414,87.72609147484147z" style="fill:rgb(51,57,202)"/><path d="M27.572836895233507,-137.08328762170768L37.87068090434741,-155.0705423034609L17.373963086911136,-155.5659776199775z" style="fill:rgb(148,224,207)"/><path d="M-152.70839937561684,-57.749527413675494L-138.4854517537649,-35.73854207815171L-134.9249802549202,-63.50952118359883z" style="fill:rgb(30,158,203)"/><path d="M154.07767273076172,-48.78438688704752L131.86995518975405,-68.01423156141449L136.52001751704728,-52.0611920137662z" style="fill:rgb(222,167,202)"/><path d="M58.193513231559265,-151.1366764086177L43.861327340840056,-136.7706867545926L60.04973695456847,-133.70045740143468z" style="fill:rgb(160,223,204)"/><path d="M-38.715789128825804,-157.18187030132896L-39.38790674898424,-136.16648011008132L-21.837674194906967,-146.04585392978493z" style="fill:rgb(100,224,205)"/><path d="M-136.9144426792715,-7.165882964287983L-156.62985709643178,-28.28143356760217L-155.094707005975,2.0529466689010194z" style="fill:rgb(30,138,209)"/><path d="M138.48545175376483,-35.73854207815181L154.07767273076172,-48.78438688704752L136.52001751704728,-52.0611920137662z" style="fill:rgb(225,154,204)"/><path d="M-54.813296225616334,-123.13409504186653L-59.31710250881751,-145.76430426919612L-77.49601977286903,-130.6416086315232z" style="fill:rgb(89,215,210)"/><path d="M11.648348457337232,-134.5925449320422L17.373963086911136,-155.5659776199775L-2.723463447155782,-152.551392380583z" style="fill:rgb(136,223,211)"/><path d="M37.87068090434741,-155.0705423034609L27.572836895233507,-137.08328762170768L43.861327340840056,-136.7706867545926z" style="fill:rgb(148,224,207)"/><path d="M-134.9249802549202,-63.50952118359883L-104.15923414862553,-90.86961947650832L-126.4705623325561,-89.57284758417936z" style="fill:rgb(48,178,213)"/><path d="M85.8765905586598,-47.560743295256906L174.92895211138773,-12.027252569925201L114.66779945691097,-42.28074504080004z" style="fill:rgb(127,4,160)"/><path d="M-156.62985709643178,-28.28143356760217L-136.9144426792715,-7.165882964287983L-138.4854517537649,-35.73854207815171z" style="fill:rgb(30,138,209)"/><path d="M-130.16307506932256,21.232696424520153L-155.094707005975,2.0529466689010194L-148.04006782995816,32.21115022495553z" style="fill:rgb(33,119,213)"/><path d="M-92.62946948932344,-112.17906552554574L-126.4705623325561,-89.57284758417936L-104.15923414862553,-90.86961947650832z" style="fill:rgb(54,194,207)"/><path d="M-59.31710250881751,-145.76430426919612L-54.813296225616334,-123.13409504186653L-39.38790674898424,-136.16648011008132z" style="fill:rgb(89,215,210)"/><path d="M17.373963086911136,-155.5659776199775L11.648348457337232,-134.5925449320422L27.572836895233507,-137.08328762170768z" style="fill:rgb(136,223,211)"/><path d="M90.42794699738008,-93.83833929331901L115.18701452642082,-97.08623539983753L103.63502243493103,-109.41680593762824z" style="fill:rgb(194,190,215)"/><path d="M90.34870487667402,-119.81438302211644L90.42794699738008,-93.83833929331901L103.63502243493103,-109.41680593762824z" style="fill:rgb(187,197,216)"/><path d="M98.51774805942121,-85.20118250530015L124.6879220852153,-83.1596288850213L115.18701452642082,-97.08623539983753z" style="fill:rgb(200,183,216)"/><path d="M-3.4443642467845756,-129.32807008393445L-2.723463447155782,-152.551392380583L-21.837674194906967,-146.04585392978493z" style="fill:rgb(124,219,215)"/><path d="M-118.38684891063502,48.45440530906315L-148.04006782995816,32.21115022495553L-135.62349699518865,61.119429400337765z" style="fill:rgb(40,100,216)"/><path d="M75.68796020813228,-127.98835615324425L81.11633143392959,-101.10882186809664L90.34870487667402,-119.81438302211644z" style="fill:rgb(179,202,216)"/><path d="M105.15670650415622,-75.4412902684123L131.86995518975405,-68.01423156141449L124.6879220852153,-83.1596288850213z" style="fill:rgb(204,175,217)"/><path d="M-67.59219783248273,-107.27609882963522L-77.49601977286903,-130.6416086315232L-92.62946948932344,-112.17906552554574z" style="fill:rgb(79,205,216)"/><path d="M-155.094707005975,2.0529466689010194L-130.16307506932256,21.232696424520153L-136.9144426792715,-7.165882964287983z" style="fill:rgb(33,119,213)"/><path d="M60.04973695456847,-133.70045740143468L70.84433996885535,-106.80406710230123L75.68796020813228,-127.98835615324425z" style="fill:rgb(170,205,218)"/><path d="M110.15328844236869,-64.83268320781771L136.52001751704728,-52.0611920137662L131.86995518975405,-68.01423156141449z" style="fill:rgb(207,166,218)"/><path d="M-101.94888461000492,73.51821544503396L-135.62349699518865,61.119429400337765L-118.2274363085414,87.72609147484147z" style="fill:rgb(49,83,218)"/><path d="M-76.7646433965501,125.95745937531738L-81.40918219754839,95.5156251249882L-96.44814045799347,111.05718552252888z" style="fill:rgb(77,53,218)"/><path d="M-81.40918219754839,95.5156251249882L-118.2274363085414,87.72609147484147L-96.44814045799347,111.05718552252888z" style="fill:rgb(62,67,219)"/><path d="M-2.723463447155782,-152.551392380583L-3.4443642467845756,-129.32807008393445L11.648348457337232,-134.5925449320422z" style="fill:rgb(124,219,215)"/><path d="M-104.15923414862553,-90.86961947650832L-134.9249802549202,-63.50952118359883L-111.6200545373871,-67.32862705642255z" style="fill:rgb(48,178,213)"/><path d="M53.190067914059256,-51.27352835394767L174.92895211138773,-12.027252569925201L85.8765905586598,-47.560743295256906z" style="fill:rgb(127,4,160)"/><path d="M-114.66779945691101,-42.280745040799964L-134.9249802549202,-63.50952118359883L-138.4854517537649,-35.73854207815171z" style="fill:rgb(45,161,219)"/><path d="M-77.49601977286903,-130.6416086315232L-67.59219783248273,-107.27609882963522L-54.813296225616334,-123.13409504186653z" style="fill:rgb(79,205,216)"/><path d="M48.593462922211,-112.84074542846926L60.04973695456847,-133.70045740143468L43.861327340840056,-136.7706867545926z" style="fill:rgb(161,208,220)"/><path d="M-17.245803122617726,-121.39900440956256L-21.837674194906967,-146.04585392978493L-39.38790674898424,-136.16648011008132z" style="fill:rgb(113,214,219)"/><path d="M-148.04006782995816,32.21115022495553L-118.38684891063502,48.45440530906315L-130.16307506932256,21.232696424520153z" style="fill:rgb(40,100,216)"/><path d="M136.52001751704728,-52.0611920137662L114.66779945691097,-42.28074504080004L138.48545175376483,-35.73854207815181z" style="fill:rgb(209,157,220)"/><path d="M115.18701452642082,-97.08623539983753L90.42794699738008,-93.83833929331901L98.51774805942121,-85.20118250530015z" style="fill:rgb(194,190,215)"/><path d="M90.42794699738008,-93.83833929331901L90.34870487667402,-119.81438302211644L81.11633143392959,-101.10882186809664z" style="fill:rgb(187,197,216)"/><path d="M124.6879220852153,-83.1596288850213L98.51774805942121,-85.20118250530015L105.15670650415622,-75.4412902684123z" style="fill:rgb(200,183,216)"/><path d="M81.11633143392959,-101.10882186809664L75.68796020813228,-127.98835615324425L70.84433996885535,-106.80406710230123z" style="fill:rgb(179,202,216)"/><path d="M131.86995518975405,-68.01423156141449L105.15670650415622,-75.4412902684123L110.15328844236869,-64.83268320781771z" style="fill:rgb(204,175,217)"/><path d="M37.247157345485896,-112.98419487833758L43.861327340840056,-136.7706867545926L27.572836895233507,-137.08328762170768z" style="fill:rgb(152,208,222)"/><path d="M-134.9249802549202,-63.50952118359883L-114.66779945691101,-42.280745040799964L-111.6200545373871,-67.32862705642255z" style="fill:rgb(45,161,219)"/><path d="M-135.62349699518865,61.119429400337765L-101.94888461000492,73.51821544503396L-118.38684891063502,48.45440530906315z" style="fill:rgb(49,83,218)"/><path d="M-77.26360846483558,-89.02538370112089L-92.62946948932344,-112.17906552554574L-104.15923414862553,-90.86961947650832z" style="fill:rgb(71,192,222)"/><path d="M70.84433996885535,-106.80406710230123L60.04973695456847,-133.70045740143468L59.90031167466737,-110.75584375401138z" style="fill:rgb(170,205,218)"/><path d="M-21.837674194906967,-146.04585392978493L-17.245803122617726,-121.39900440956256L-3.4443642467845756,-129.32807008393445z" style="fill:rgb(113,214,219)"/><path d="M-81.40918219754839,95.5156251249882L-76.7646433965501,125.95745937531738L-70.44222110715809,103.83759396353459z" style="fill:rgb(77,53,218)"/><path d="M136.52001751704728,-52.0611920137662L110.15328844236869,-64.83268320781771L113.35802877952035,-53.67371952118843z" style="fill:rgb(207,166,218)"/><path d="M-118.2274363085414,87.72609147484147L-81.40918219754839,95.5156251249882L-101.94888461000492,73.51821544503396z" style="fill:rgb(62,67,219)"/><path d="M60.04973695456847,-133.70045740143468L48.593462922211,-112.84074542846926L59.90031167466737,-110.75584375401138z" style="fill:rgb(161,208,220)"/><path d="M-113.10515445874336,-16.538356420181728L-138.4854517537649,-35.73854207815171L-136.9144426792715,-7.165882964287983z" style="fill:rgb(45,143,223)"/><path d="M114.66779945691097,-42.28074504080004L136.52001751704728,-52.0611920137662L113.35802877952035,-53.67371952118843z" style="fill:rgb(209,157,220)"/><path d="M-29.31834628054563,-110.9966134066454L-39.38790674898424,-136.16648011008132L-54.813296225616334,-123.13409504186653z" style="fill:rgb(104,207,224)"/><path d="M25.38148270122242,139.65599098341752L7.626364160396476,112.67774532794503L-3.1288583575160582,136.06310176598075z" style="fill:rgb(137,45,224)"/><path d="M-92.62946948932344,-112.17906552554574L-77.26360846483558,-89.02538370112089L-67.59219783248273,-107.27609882963522z" style="fill:rgb(71,192,222)"/><path d="M26.191472578959132,-111.1639987767206L27.572836895233507,-137.08328762170768L11.648348457337232,-134.5925449320422z" style="fill:rgb(143,207,225)"/><path d="M43.861327340840056,-136.7706867545926L37.247157345485896,-112.98419487833758L48.593462922211,-112.84074542846926z" style="fill:rgb(152,208,222)"/><path d="M-111.6200545373871,-67.32862705642255L-77.26360846483558,-89.02538370112089L-104.15923414862553,-90.86961947650832z" style="fill:rgb(66,178,227)"/><path d="M-138.4854517537649,-35.73854207815171L-113.10515445874336,-16.538356420181728L-114.66779945691101,-42.280745040799964z" style="fill:rgb(45,143,223)"/><path d="M-39.38790674898424,-136.16648011008132L-29.31834628054563,-110.9966134066454L-17.245803122617726,-121.39900440956256z" style="fill:rgb(104,207,224)"/><path d="M-106.90190884192788,9.028444070252192L-136.9144426792715,-7.165882964287983L-130.16307506932256,21.232696424520153z" style="fill:rgb(48,126,227)"/><path d="M7.626364160396476,112.67774532794503L25.38148270122242,139.65599098341752L33.30305922166313,116.05736870017574z" style="fill:rgb(137,45,224)"/><path d="M-3.1288583575160582,136.06310176598075L-17.53798127802495,104.68757884626788L-31.087637619645935,127.32011810078731z" style="fill:rgb(120,49,228)"/><path d="M27.572836895233507,-137.08328762170768L26.191472578959132,-111.1639987767206L37.247157345485896,-112.98419487833758z" style="fill:rgb(143,207,225)"/><path d="M15.754964383430528,-107.41294548579084L11.648348457337232,-134.5925449320422L-3.4443642467845756,-129.32807008393445z" style="fill:rgb(135,205,228)"/><path d="M-39.261247609813466,-98.39453349092862L-54.813296225616334,-123.13409504186653L-67.59219783248273,-107.27609882963522z" style="fill:rgb(96,198,228)"/><path d="M73.4303285437939,-74.23964997395957L98.51774805942121,-85.20118250530015L90.42794699738008,-93.83833929331901z" style="fill:rgb(181,179,230)"/><path d="M81.11633143392959,-101.10882186809664L73.4303285437939,-74.23964997395957L90.42794699738008,-93.83833929331901z" style="fill:rgb(177,183,230)"/><path d="M77.61873379617776,-69.7664515511786L105.15670650415622,-75.4412902684123L98.51774805942121,-85.20118250530015z" style="fill:rgb(185,174,230)"/><path d="M-96.20712307049929,33.52899142777419L-130.16307506932256,21.232696424520153L-118.38684891063502,48.45440530906315z" style="fill:rgb(54,109,230)"/><path d="M70.84433996885535,-106.80406710230123L68.60430201877428,-77.99690267768759L81.11633143392959,-101.10882186809664z" style="fill:rgb(172,186,231)"/><path d="M81.04675831190464,-64.70826632619328L110.15328844236869,-64.83268320781771L105.15670650415622,-75.4412902684123z" style="fill:rgb(188,169,231)"/><path d="M-31.087637619645935,127.32011810078731L-41.307040611788366,92.30285506723372L-57.49977395853551,113.65861543113287z" style="fill:rgb(103,57,231)"/><path d="M-136.9144426792715,-7.165882964287983L-106.90190884192788,9.028444070252192L-113.10515445874336,-16.538356420181728z" style="fill:rgb(48,126,227)"/><path d="M11.648348457337232,-134.5925449320422L15.754964383430528,-107.41294548579084L26.191472578959132,-111.1639987767206z" style="fill:rgb(135,205,228)"/><path d="M59.90031167466737,-110.75584375401138L63.28152424796822,-80.92734850364083L70.84433996885535,-106.80406710230123z" style="fill:rgb(167,188,231)"/><path d="M-54.813296225616334,-123.13409504186653L-39.261247609813466,-98.39453349092862L-29.31834628054563,-110.9966134066454z" style="fill:rgb(96,198,228)"/><path d="M-17.53798127802495,104.68757884626788L-3.1288583575160582,136.06310176598075L7.626364160396476,112.67774532794503z" style="fill:rgb(120,49,228)"/><path d="M83.61293819221227,-59.212747932667135L113.35802877952035,-53.67371952118843L110.15328844236869,-64.83268320781771z" style="fill:rgb(190,164,232)"/><path d="M-77.26360846483558,-89.02538370112089L-111.6200545373871,-67.32862705642255L-83.44950168145546,-68.91398170670752z" style="fill:rgb(66,178,227)"/><path d="M6.255692195836246,-101.82041987161263L-3.4443642467845756,-129.32807008393445L-17.245803122617726,-121.39900440956256z" style="fill:rgb(127,201,231)"/><path d="M-81.35082599023359,56.09392062556385L-118.38684891063502,48.45440530906315L-101.94888461000492,73.51821544503396z" style="fill:rgb(63,93,232)"/><path d="M-85.87659055865981,-47.56074329525685L-111.6200545373871,-67.32862705642255L-114.66779945691101,-42.280745040799964z" style="fill:rgb(63,163,231)"/><path d="M-57.49977395853551,113.65861543113287L-62.83401006282238,75.91838464313255L-81.40918219754839,95.5156251249882z" style="fill:rgb(88,67,232)"/><path d="M-62.83401006282238,75.91838464313255L-101.94888461000492,73.51821544503396L-81.40918219754839,95.5156251249882z" style="fill:rgb(74,79,233)"/><path d="M85.23989755302598,-53.440455907693526L114.66779945691097,-42.28074504080004L113.35802877952035,-53.67371952118843z" style="fill:rgb(191,158,233)"/><path d="M51.77772362385368,-83.98221584781191L59.90031167466737,-110.75584375401138L48.593462922211,-112.84074542846926z" style="fill:rgb(162,189,233)"/><path d="M-130.16307506932256,21.232696424520153L-96.20712307049929,33.52899142777419L-106.90190884192788,9.028444070252192z" style="fill:rgb(54,109,230)"/><path d="M-46.72649166720654,-83.94578997429456L-67.59219783248273,-107.27609882963522L-77.26360846483558,-89.02538370112089z" style="fill:rgb(90,187,233)"/><path d="M-3.4443642467845756,-129.32807008393445L6.255692195836246,-101.82041987161263L15.754964383430528,-107.41294548579084z" style="fill:rgb(127,201,231)"/><path d="M98.51774805942121,-85.20118250530015L73.4303285437939,-74.23964997395957L77.61873379617776,-69.7664515511786z" style="fill:rgb(181,179,230)"/><path d="M-41.307040611788366,92.30285506723372L-31.087637619645935,127.32011810078731L-17.53798127802495,104.68757884626788z" style="fill:rgb(103,57,231)"/><path d="M73.4303285437939,-74.23964997395957L81.11633143392959,-101.10882186809664L68.60430201877428,-77.99690267768759z" style="fill:rgb(177,183,230)"/><path d="M-111.6200545373871,-67.32862705642255L-85.87659055865981,-47.56074329525685L-83.44950168145546,-68.91398170670752z" style="fill:rgb(63,163,231)"/><path d="M105.15670650415622,-75.4412902684123L77.61873379617776,-69.7664515511786L81.04675831190464,-64.70826632619328z" style="fill:rgb(185,174,230)"/><path d="M45.934691256800534,-84.00980299137986L48.593462922211,-112.84074542846926L37.247157345485896,-112.98419487833758z" style="fill:rgb(156,190,234)"/><path d="M68.60430201877428,-77.99690267768759L70.84433996885535,-106.80406710230123L63.28152424796822,-80.92734850364083z" style="fill:rgb(172,186,231)"/><path d="M110.15328844236869,-64.83268320781771L81.04675831190464,-64.70826632619328L83.61293819221227,-59.212747932667135z" style="fill:rgb(188,169,231)"/><path d="M-2.008410874771634,-94.53253828566356L-17.245803122617726,-121.39900440956256L-29.31834628054563,-110.9966134066454z" style="fill:rgb(120,195,234)"/><path d="M63.28152424796822,-80.92734850364083L59.90031167466737,-110.75584375401138L57.61737135760755,-82.94318795945215z" style="fill:rgb(167,188,231)"/><path d="M-67.59219783248273,-107.27609882963522L-46.72649166720654,-83.94578997429456L-39.261247609813466,-98.39453349092862z" style="fill:rgb(90,187,233)"/><path d="M-118.38684891063502,48.45440530906315L-81.35082599023359,56.09392062556385L-96.20712307049929,33.52899142777419z" style="fill:rgb(63,93,232)"/><path d="M113.35802877952035,-53.67371952118843L83.61293819221227,-59.212747932667135L85.23989755302598,-53.440455907693526z" style="fill:rgb(190,164,232)"/><path d="M-62.83401006282238,75.91838464313255L-57.49977395853551,113.65861543113287L-41.307040611788366,92.30285506723372z" style="fill:rgb(88,67,232)"/><path d="M59.90031167466737,-110.75584375401138L51.77772362385368,-83.98221584781191L57.61737135760755,-82.94318795945215z" style="fill:rgb(162,189,233)"/><path d="M-84.39560376613879,-25.65253489163438L-114.66779945691101,-42.280745040799964L-113.10515445874336,-16.538356420181728z" style="fill:rgb(63,148,235)"/><path d="M40.26200882861922,-83.02028559927611L37.247157345485896,-112.98419487833758L26.191472578959132,-111.1639987767206z" style="fill:rgb(151,189,236)"/><path d="M-101.94888461000492,73.51821544503396L-62.83401006282238,75.91838464313255L-81.35082599023359,56.09392062556385z" style="fill:rgb(74,79,233)"/><path d="M33.30305922166313,116.05736870017574L18.492089638795825,84.42936066658083L7.626364160396476,112.67774532794503z" style="fill:rgb(143,63,236)"/><path d="M114.66779945691097,-42.28074504080004L85.23989755302598,-53.440455907693526L85.8765905586598,-47.560743295256906z" style="fill:rgb(191,158,233)"/><path d="M-17.245803122617726,-121.39900440956256L-2.008410874771634,-94.53253828566356L6.255692195836246,-101.82041987161263z" style="fill:rgb(120,195,234)"/><path d="M48.593462922211,-112.84074542846926L45.934691256800534,-84.00980299137986L51.77772362385368,-83.98221584781191z" style="fill:rgb(156,190,234)"/><path d="M-51.43470435801488,-68.07619863942412L-77.26360846483558,-89.02538370112089L-83.44950168145546,-68.91398170670752z" style="fill:rgb(86,176,237)"/><path d="M34.93021379547786,-81.03772236087904L26.191472578959132,-111.1639987767206L15.754964383430528,-107.41294548579084z" style="fill:rgb(145,188,238)"/><path d="M-114.66779945691101,-42.280745040799964L-84.39560376613879,-25.65253489163438L-85.87659055865981,-47.56074329525685z" style="fill:rgb(63,148,235)"/><path d="M37.247157345485896,-112.98419487833758L40.26200882861922,-83.02028559927611L45.934691256800534,-84.00980299137986z" style="fill:rgb(151,189,236)"/><path d="M-8.769538740257312,-85.75065264558681L-29.31834628054563,-110.9966134066454L-39.261247609813466,-98.39453349092862z" style="fill:rgb(114,189,238)"/><path d="M18.492089638795825,84.42936066658083L33.30305922166313,116.05736870017574L40.333233244377574,87.45125858769345z" style="fill:rgb(143,63,236)"/><path d="M-78.99599148260778,-3.9192989140961823L-113.10515445874336,-16.538356420181728L-106.90190884192788,9.028444070252192z" style="fill:rgb(66,133,239)"/><path d="M-77.26360846483558,-89.02538370112089L-51.43470435801488,-68.07619863942412L-46.72649166720654,-83.94578997429456z" style="fill:rgb(86,176,237)"/><path d="M7.626364160396476,112.67774532794503L-2.891350754621751,77.51757323910712L-17.53798127802495,104.68757884626788z" style="fill:rgb(128,67,239)"/><path d="M-29.31834628054563,-110.9966134066454L-8.769538740257312,-85.75065264558681L-2.008410874771634,-94.53253828566356z" style="fill:rgb(114,189,238)"/><path d="M26.191472578959132,-111.1639987767206L34.93021379547786,-81.03772236087904L40.26200882861922,-83.02028559927611z" style="fill:rgb(145,188,238)"/><path d="M30.101699448445462,-78.11585092226548L15.754964383430528,-107.41294548579084L6.255692195836246,-101.82041987161263z" style="fill:rgb(141,185,240)"/><path d="M-85.87659055865981,-47.56074329525685L-51.43470435801488,-68.07619863942412L-83.44950168145546,-68.91398170670752z" style="fill:rgb(83,164,241)"/><path d="M53.190067914059256,-51.27352835394767L77.61873379617776,-69.7664515511786L73.4303285437939,-74.23964997395957z" style="fill:rgb(167,166,241)"/><path d="M-113.10515445874336,-16.538356420181728L-78.99599148260778,-3.9192989140961823L-84.39560376613879,-25.65253489163438z" style="fill:rgb(66,133,239)"/><path d="M73.4303285437939,-74.23964997395957L68.60430201877428,-77.99690267768759L53.190067914059256,-51.27352835394767z" style="fill:rgb(166,167,242)"/><path d="M53.190067914059256,-51.27352835394767L81.04675831190464,-64.70826632619328L77.61873379617776,-69.7664515511786z" style="fill:rgb(169,164,242)"/><path d="M-69.81408403715412,16.895942079602598L-106.90190884192788,9.028444070252192L-96.20712307049929,33.52899142777419z" style="fill:rgb(71,118,241)"/><path d="M68.60430201877428,-77.99690267768759L63.28152424796822,-80.92734850364083L53.190067914059256,-51.27352835394767z" style="fill:rgb(164,168,242)"/><path d="M53.190067914059256,-51.27352835394767L83.61293819221227,-59.212747932667135L81.04675831190464,-64.70826632619328z" style="fill:rgb(170,163,242)"/><path d="M15.754964383430528,-107.41294548579084L30.101699448445462,-78.11585092226548L34.93021379547786,-81.03772236087904z" style="fill:rgb(141,185,240)"/><path d="M-17.53798127802495,104.68757884626788L-23.081537161002874,66.907341941584L-41.307040611788366,92.30285506723372z" style="fill:rgb(113,73,242)"/><path d="M-13.800033376363578,-75.72771085226104L-39.261247609813466,-98.39453349092862L-46.72649166720654,-83.94578997429456z" style="fill:rgb(110,181,241)"/><path d="M-2.891350754621751,77.51757323910712L7.626364160396476,112.67774532794503L18.492089638795825,84.42936066658083z" style="fill:rgb(128,67,239)"/><path d="M63.28152424796822,-80.92734850364083L57.61737135760755,-82.94318795945215L53.190067914059256,-51.27352835394767z" style="fill:rgb(163,169,242)"/><path d="M53.190067914059256,-51.27352835394767L85.23989755302598,-53.440455907693526L83.61293819221227,-59.212747932667135z" style="fill:rgb(170,161,242)"/><path d="M25.925769273518625,-74.33723546599575L6.255692195836246,-101.82041987161263L-2.008410874771634,-94.53253828566356z" style="fill:rgb(136,182,242)"/><path d="M57.61737135760755,-82.94318795945215L51.77772362385368,-83.98221584781191L53.190067914059256,-51.27352835394767z" style="fill:rgb(161,169,242)"/><path d="M85.8765905586598,-47.560743295256906L85.23989755302598,-53.440455907693526L53.190067914059256,-51.27352835394767z" style="fill:rgb(171,159,242)"/><path d="M-57.13319800820709,36.07031177832071L-96.20712307049929,33.52899142777419L-81.35082599023359,56.09392062556385z" style="fill:rgb(79,104,243)"/><path d="M-39.261247609813466,-98.39453349092862L-13.800033376363578,-75.72771085226104L-8.769538740257312,-85.75065264558681z" style="fill:rgb(110,181,241)"/><path d="M-41.307040611788366,92.30285506723372L-41.37488838882352,52.93503862689263L-62.83401006282238,75.91838464313255z" style="fill:rgb(100,82,243)"/><path d="M53.190067914059256,-51.27352835394767L51.77772362385368,-83.98221584781191L45.934691256800534,-84.00980299137986z" style="fill:rgb(159,170,243)"/><path d="M-41.37488838882352,52.93503862689263L-81.35082599023359,56.09392062556385L-62.83401006282238,75.91838464313255z" style="fill:rgb(89,92,243)"/><path d="M6.255692195836246,-101.82041987161263L25.925769273518625,-74.33723546599575L30.101699448445462,-78.11585092226548z" style="fill:rgb(136,182,242)"/><path d="M53.190067914059256,-51.27352835394767L45.934691256800534,-84.00980299137986L40.26200882861922,-83.02028559927611z" style="fill:rgb(157,169,243)"/><path d="M-106.90190884192788,9.028444070252192L-69.81408403715412,16.895942079602598L-78.99599148260778,-3.9192989140961823z" style="fill:rgb(71,118,241)"/><path d="M-51.43470435801488,-68.07619863942412L-85.87659055865981,-47.56074329525685L-53.19006791405929,-51.27352835394762z" style="fill:rgb(83,164,241)"/><path d="M-23.081537161002874,66.907341941584L-17.53798127802495,104.68757884626788L-2.891350754621751,77.51757323910712z" style="fill:rgb(113,73,242)"/><path d="M22.533794883968014,-69.81151510421518L-2.008410874771634,-94.53253828566356L-8.769538740257312,-85.75065264558681z" style="fill:rgb(133,178,244)"/><path d="M53.190067914059256,-51.27352835394767L40.26200882861922,-83.02028559927611L34.93021379547786,-81.03772236087904z" style="fill:rgb(155,169,244)"/><path d="M-51.89295213756442,-34.072494235713734L-85.87659055865981,-47.56074329525685L-84.39560376613879,-25.65253489163438z" style="fill:rgb(83,152,244)"/><path d="M-16.92192172687845,-64.76241758534098L-46.72649166720654,-83.94578997429456L-51.43470435801488,-68.07619863942412z" style="fill:rgb(106,173,244)"/><path d="M-2.008410874771634,-94.53253828566356L22.533794883968014,-69.81151510421518L25.925769273518625,-74.33723546599575z" style="fill:rgb(133,178,244)"/><path d="M40.333233244377574,87.45125858769345L28.967015277462504,52.41044240575335L18.492089638795825,84.42936066658083z" style="fill:rgb(148,83,245)"/><path d="M53.190067914059256,-51.27352835394767L34.93021379547786,-81.03772236087904L30.101699448445462,-78.11585092226548z" style="fill:rgb(154,168,245)"/><path d="M-96.20712307049929,33.52899142777419L-57.13319800820709,36.07031177832071L-69.81408403715412,16.895942079602598z" style="fill:rgb(79,104,243)"/><path d="M-41.37488838882352,52.93503862689263L-41.307040611788366,92.30285506723372L-23.081537161002874,66.907341941584z" style="fill:rgb(100,82,243)"/><path d="M-46.72649166720654,-83.94578997429456L-16.92192172687845,-64.76241758534098L-13.800033376363578,-75.72771085226104z" style="fill:rgb(106,173,244)"/><path d="M-85.87659055865981,-47.56074329525685L-51.89295213756442,-34.072494235713734L-53.19006791405929,-51.27352835394762z" style="fill:rgb(83,152,244)"/><path d="M-81.35082599023359,56.09392062556385L-41.37488838882352,52.93503862689263L-57.13319800820709,36.07031177832071z" style="fill:rgb(89,92,243)"/><path d="M53.190067914059256,-51.27352835394767L30.101699448445462,-78.11585092226548L25.925769273518625,-74.33723546599575z" style="fill:rgb(152,167,245)"/><path d="M28.967015277462504,52.41044240575335L40.333233244377574,87.45125858769345L46.10454092297741,54.91204889929739z" style="fill:rgb(148,83,245)"/><path d="M20.034709273179686,-64.6727001055183L-8.769538740257312,-85.75065264558681L-13.800033376363578,-75.72771085226104zM-8.769538740257312,-85.75065264558681L20.034709273179686,-64.6727001055183L22.533794883968014,-69.81151510421518z" style="fill:rgb(130,173,246)"/><path d="M53.190067914059256,-51.27352835394767L25.925769273518625,-74.33723546599575L22.533794883968014,-69.81151510421518z" style="fill:rgb(151,166,246)"/><path d="M-47.54907844945669,-17.03581628542897L-84.39560376613879,-25.65253489163438L-78.99599148260778,-3.9192989140961823z" style="fill:rgb(86,140,247)"/><path d="M-18.01538179477692,-53.191046140786426L-51.43470435801488,-68.07619863942412L-53.19006791405929,-51.27352835394762z" style="fill:rgb(105,164,247)"/><path d="M18.492089638795825,84.42936066658083L12.212047207141083,46.88764036271036L-2.891350754621751,77.51757323910712z" style="fill:rgb(136,86,247)"/><path d="M53.190067914059256,-51.27352835394767L22.533794883968014,-69.81151510421518L20.034709273179686,-64.6727001055183z" style="fill:rgb(150,164,247)"/><path d="M-51.43470435801488,-68.07619863942412L-18.01538179477692,-53.191046140786426L-16.92192172687845,-64.76241758534098z" style="fill:rgb(105,164,247)"/><path d="M-13.800033376363578,-75.72771085226104L18.510994764866627,-59.07554325339062L20.034709273179686,-64.6727001055183z" style="fill:rgb(128,168,248)"/><path d="M-84.39560376613879,-25.65253489163438L-47.54907844945669,-17.03581628542897L-51.89295213756442,-34.072494235713734z" style="fill:rgb(86,140,247)"/><path d="M18.510994764866627,-59.07554325339062L-13.800033376363578,-75.72771085226104L-16.92192172687845,-64.76241758534098z" style="fill:rgb(128,168,248)"/><path d="M53.190067914059256,-51.27352835394767L20.034709273179686,-64.6727001055183L18.510994764866627,-59.07554325339062z" style="fill:rgb(149,162,247)"/><path d="M12.212047207141083,46.88764036271036L18.492089638795825,84.42936066658083L28.967015277462504,52.41044240575335z" style="fill:rgb(136,86,247)"/><path d="M-40.27392824779559,-0.7322514940238811L-78.99599148260778,-3.9192989140961823L-69.81408403715412,16.895942079602598z" style="fill:rgb(90,128,249)"/><path d="M-2.891350754621751,77.51757323910712L-3.598292918875574,38.50059731833965L-23.081537161002874,66.907341941584z" style="fill:rgb(124,91,249)"/><path d="M-51.89295213756442,-34.072494235713734L-18.01538179477692,-53.191046140786426L-53.19006791405929,-51.27352835394762z" style="fill:rgb(105,155,249)"/><path d="M53.190067914059256,-51.27352835394767L18.510994764866627,-59.07554325339062L18.015381794776886,-53.19104614078644z" style="fill:rgb(149,160,248)"/><path d="M50.30285688884148,19.844462025995025L28.967015277462504,52.41044240575335L46.10454092297741,54.91204889929739z" style="fill:rgb(152,104,250)"/><path d="M-16.92192172687845,-64.76241758534098L18.015381794776886,-53.19104614078644L18.510994764866627,-59.07554325339062z" style="fill:rgb(127,163,249)"/><path d="M53.190067914059256,-51.27352835394767L18.015381794776886,-53.19104614078644L18.56845077556299,-47.20114614472393z" style="fill:rgb(149,159,249)"/><path d="M52.70220079706495,-16.12100714221782L53.190067914059256,-51.27352835394767L46.743483471509826,-17.088947904028878z" style="fill:rgb(159,148,249)"/><path d="M-30.291684820379697,14.287179929213321L-69.81408403715412,16.895942079602598L-57.13319800820709,36.07031177832071z" style="fill:rgb(96,116,250)"/><path d="M18.015381794776886,-53.19104614078644L-16.92192172687845,-64.76241758534098L-18.01538179477692,-53.191046140786426z" style="fill:rgb(127,163,249)"/><path d="M-23.081537161002874,66.907341941584L-17.928207651082104,27.51317794902095L-41.37488838882352,52.93503862689263z" style="fill:rgb(113,98,250)"/><path d="M-78.99599148260778,-3.9192989140961823L-40.27392824779559,-0.7322514940238811L-47.54907844945669,-17.03581628542897z" style="fill:rgb(90,128,249)"/><path d="M53.190067914059256,-51.27352835394767L18.56845077556299,-47.20114614472393L20.157327657425128,-41.292839962321004z" style="fill:rgb(149,157,249)"/><path d="M-17.928207651082104,27.51317794902095L-57.13319800820709,36.07031177832071L-41.37488838882352,52.93503862689263z" style="fill:rgb(104,106,251)"/><path d="M46.743483471509826,-17.088947904028878L53.190067914059256,-51.27352835394767L40.93915462640411,-19.081389347730482z" style="fill:rgb(157,149,249)"/><path d="M-3.598292918875574,38.50059731833965L-2.891350754621751,77.51757323910712L12.212047207141083,46.88764036271036z" style="fill:rgb(124,91,249)"/><path d="M53.190067914059256,-51.27352835394767L20.157327657425128,-41.292839962321004L22.735567837926066,-35.65188637020514z" style="fill:rgb(150,155,249)"/><path d="M40.93915462640411,-19.081389347730482L53.190067914059256,-51.27352835394767L35.47201432481347,-22.038946606735884z" style="fill:rgb(155,149,249)"/><path d="M-18.01538179477692,-53.191046140786426L-51.89295213756442,-34.072494235713734L-17.025516319260742,-41.37697167914634z" style="fill:rgb(105,155,249)"/><path d="M53.190067914059256,-51.27352835394767L22.735567837926066,-35.65188637020514L26.224333381101083,-30.456383665938862z" style="fill:rgb(151,153,249)"/><path d="M35.47201432481347,-22.038946606735884L53.190067914059256,-51.27352835394767L30.514842138991128,-25.870557743650267z" style="fill:rgb(154,150,249)"/><path d="M30.514842138991128,-25.870557743650267L53.190067914059256,-51.27352835394767L26.224333381101083,-30.456383665938862z" style="fill:rgb(152,152,250)"/><path d="M-17.025516319260742,-41.37697167914634L18.015381794776886,-53.19104614078644L-18.01538179477692,-53.191046140786426z" style="fill:rgb(127,157,251)"/><path d="M28.967015277462504,52.41044240575335L50.30285688884148,19.844462025995025L38.540980895071634,18.031607007183425z" style="fill:rgb(152,104,250)"/><path d="M-69.81408403715412,16.895942079602598L-30.291684820379697,14.287179929213321L-40.27392824779559,-0.7322514940238811z" style="fill:rgb(96,116,250)"/><path d="M52.70220079706495,-16.12100714221782L38.540980895071634,18.031607007183425L50.30285688884148,19.844462025995025z" style="fill:rgb(156,126,251)"/><path d="M18.015381794776886,-53.19104614078644L-17.025516319260742,-41.37697167914634L18.56845077556299,-47.20114614472393z" style="fill:rgb(127,157,251)"/><path d="M-17.928207651082104,27.51317794902095L-23.081537161002874,66.907341941584L-3.598292918875574,38.50059731833965z" style="fill:rgb(113,98,250)"/><path d="M-13.966798265946597,-29.698319789904794L-51.89295213756442,-34.072494235713734L-47.54907844945669,-17.03581628542897z" style="fill:rgb(106,146,251)"/><path d="M38.540980895071634,18.031607007183425L52.70220079706495,-16.12100714221782L46.743483471509826,-17.088947904028878z" style="fill:rgb(156,126,251)"/><path d="M-51.89295213756442,-34.072494235713734L-13.966798265946597,-29.698319789904794L-17.025516319260742,-41.37697167914634z" style="fill:rgb(106,146,251)"/><path d="M28.967015277462504,52.41044240575335L27.061387631501177,14.169774668086353L12.212047207141083,46.88764036271036z" style="fill:rgb(143,106,252)"/><path d="M-57.13319800820709,36.07031177832071L-17.928207651082104,27.51317794902095L-30.291684820379697,14.287179929213321z" style="fill:rgb(104,106,251)"/><path d="M27.061387631501177,14.169774668086353L28.967015277462504,52.41044240575335L38.540980895071634,18.031607007183425z" style="fill:rgb(143,106,252)"/><path d="M18.56845077556299,-47.20114614472393L-13.966798265946597,-29.698319789904794L20.157327657425128,-41.292839962321004zM-13.966798265946597,-29.698319789904794L18.56845077556299,-47.20114614472393L-17.025516319260742,-41.37697167914634z" style="fill:rgb(128,152,252)"/><path d="M27.061387631501177,14.169774668086353L46.743483471509826,-17.088947904028878L40.93915462640411,-19.081389347730482zM46.743483471509826,-17.088947904028878L27.061387631501177,14.169774668086353L38.540980895071634,18.031607007183425z" style="fill:rgb(151,127,252)"/><path d="M-8.924701262948478,-18.534118301073978L-47.54907844945669,-17.03581628542897L-40.27392824779559,-0.7322514940238811z" style="fill:rgb(110,137,253)"/><path d="M20.157327657425128,-41.292839962321004L-8.924701262948478,-18.534118301073978L22.735567837926066,-35.65188637020514z" style="fill:rgb(130,146,253)"/><path d="M12.212047207141083,46.88764036271036L16.23789509803276,8.371483602218273L-3.598292918875574,38.50059731833965z" style="fill:rgb(135,110,253)"/><path d="M16.23789509803276,8.371483602218273L40.93915462640411,-19.081389347730482L35.47201432481347,-22.038946606735884z" style="fill:rgb(145,130,253)"/><path d="M-47.54907844945669,-17.03581628542897L-8.924701262948478,-18.534118301073978L-13.966798265946597,-29.698319789904794z" style="fill:rgb(110,137,253)"/><path d="M-8.924701262948478,-18.534118301073978L20.157327657425128,-41.292839962321004L-13.966798265946597,-29.698319789904794z" style="fill:rgb(130,146,253)"/><path d="M16.23789509803276,8.371483602218273L12.212047207141083,46.88764036271036L27.061387631501177,14.169774668086353z" style="fill:rgb(135,110,253)"/><path d="M22.735567837926066,-35.65188637020514L-2.0541318532157953,-8.249770889314252L26.224333381101083,-30.456383665938862z" style="fill:rgb(133,141,254)"/><path d="M6.42542169585087,0.8173800558969444L35.47201432481347,-22.038946606735884L30.514842138991128,-25.870557743650267z" style="fill:rgb(141,133,254)"/><path d="M40.93915462640411,-19.081389347730482L16.23789509803276,8.371483602218273L27.061387631501177,14.169774668086353z" style="fill:rgb(145,130,253)"/><path d="M26.224333381101083,-30.456383665938862L6.42542169585087,0.8173800558969444L30.514842138991128,-25.870557743650267z" style="fill:rgb(136,137,254)"/><path d="M-2.0541318532157953,-8.249770889314252L-40.27392824779559,-0.7322514940238811L-30.291684820379697,14.287179929213321z" style="fill:rgb(114,129,254)"/><path d="M-3.598292918875574,38.50059731833965L6.42542169585087,0.8173800558969444L-17.928207651082104,27.51317794902095z" style="fill:rgb(127,115,254)"/><path d="M-2.0541318532157953,-8.249770889314252L22.735567837926066,-35.65188637020514L-8.924701262948478,-18.534118301073978z" style="fill:rgb(133,141,254)"/><path d="M6.42542169585087,0.8173800558969444L-30.291684820379697,14.287179929213321L-17.928207651082104,27.51317794902095z" style="fill:rgb(120,122,254)"/><path d="M35.47201432481347,-22.038946606735884L6.42542169585087,0.8173800558969444L16.23789509803276,8.371483602218273z" style="fill:rgb(141,133,254)"/><path d="M-40.27392824779559,-0.7322514940238811L-2.0541318532157953,-8.249770889314252L-8.924701262948478,-18.534118301073978z" style="fill:rgb(114,129,254)"/><path d="M6.42542169585087,0.8173800558969444L-3.598292918875574,38.50059731833965L16.23789509803276,8.371483602218273z" style="fill:rgb(127,115,254)"/><path d="M6.42542169585087,0.8173800558969444L26.224333381101083,-30.456383665938862L-2.0541318532157953,-8.249770889314252z" style="fill:rgb(136,137,254)"/><path d="M-30.291684820379697,14.287179929213321L6.42542169585087,0.8173800558969444L-2.0541318532157953,-8.249770889314252z" style="fill:rgb(120,122,254)"/></svg>
