<?xml version="1.0" encoding="UTF-8"?>
<!-- Generated by jsxcad -->
<!DOCTYPE svg PUBLIC "-//W3C//DTD SVG 1.1 Tiny//EN" "http://www.w3.org/Graphics/SVG/1.1/DTD/svg11-tiny.dtd">
<svg viewBox="-250 -250 500 500" width="500" height="500" xmlns="http://www.w3.org/2000/svg"><path d="M-21.5835462479685,159.6886660510512L55.85443216137962,25.142990605748253L-20.83932443447607,20.233374382607046zM55.85443216137962,25.142990605748253L-21.5835462479685,159.6886660510512L57.39129457125614,132.7249024733455z" style="fill:rgb(160,159,246)"/><path d="M55.85443216137962,25.142990605748253L2.7626795538240846e-17,0.10413249425226871L-20.83932443447607,20.233374382607046z" style="fill:rgb(127,4,160)"/><path d="M57.39129457125614,132.7249024733455L-21.5835462479685,159.6886660510512L31.015011581796163,150.4178501476256zM-103.43555209029411,126.78794157773297L-20.83932443447607,20.233374382607046L-100.55649266219092,15.130213422599903z" style="fill:rgb(160,159,246)"/><path d="M85.15306782134745,150.00184966130246L55.85443216137962,25.142990605748253L57.39129457125614,132.7249024733455z" style="fill:rgb(4,136,159)"/><path d="M-20.83932443447607,20.233374382607046L-103.43555209029411,126.78794157773297L-21.5835462479685,159.6886660510512z" style="fill:rgb(160,159,246)"/><path d="M2.7626795538240846e-17,0.10413249425226871L55.85443216137962,25.142990605748253L82.10964869164289,5.7984658435332115z" style="fill:rgb(127,4,160)"/><path d="M-21.5835462479685,159.6886660510512L-103.43555209029411,126.78794157773297L-75.46635154672889,146.98491877163573z" style="fill:rgb(160,159,246)"/><path d="M85.15306782134745,150.00184966130246L57.39129457125614,132.7249024733455L63.59510017276976,142.41488561320102zM55.85443216137962,25.142990605748253L85.15306782134745,150.00184966130246L82.10964869164289,5.7984658435332115z" style="fill:rgb(4,136,159)"/><path d="M160.93499592037298,11.265031717890595L85.15306782134745,150.00184966130246L151.54850890280107,73.38752419496959z" style="fill:rgb(160,159,246)"/><path d="M85.15306782134745,150.00184966130246L63.59510017276976,142.41488561320102L73.89953177064987,149.9734336988512z" style="fill:rgb(4,136,159)"/><path d="M85.15306782134745,150.00184966130246L160.93499592037298,11.265031717890595L82.10964869164289,5.7984658435332115z" style="fill:rgb(160,159,246)"/><path d="M175.76260105379143,-5.884832833991194L160.93499592037298,11.265031717890595L171.37815983754004,3.0113738551217883zM-20.83932443447607,20.233374382607046L-68.07124227767463,-30.41137202183308L-100.55649266219092,15.130213422599903z" style="fill:rgb(127,4,160)"/><path d="M151.54850890280107,73.38752419496959L85.15306782134745,150.00184966130246L118.66447474804097,126.9980279695457z" style="fill:rgb(160,159,246)"/><path d="M173.31192484550434,-15.122573527147177L160.93499592037298,11.265031717890595L175.76260105379143,-5.884832833991194z" style="fill:rgb(127,4,160)"/><path d="M-76.25116836281889,-154.5343211570678L-43.71518590536871,-170.06549339708894L-54.5320302537306,-165.7677108548431z" style="fill:rgb(71,239,152)"/><path d="M82.10964869164289,5.7984658435332115L24.35297986146737,-23.41903995191029L2.762679553824216e-17,0.10413249425227568zM160.93499592037298,11.265031717890595L138.12185139819664,-35.47064118999956L82.10964869164289,5.7984658435332115z" style="fill:rgb(127,4,160)"/><path d="M17.534151206208296,-174.81469145677693L81.5581694604383,-155.29300070921377L77.07178944162015,-156.7252359049671z" style="fill:rgb(164,247,148)"/><path d="M160.2479055741297,-71.3153254701639L175.76260105379143,-5.884832833991194L161.68425611844984,-66.42430569277012z" style="fill:rgb(249,156,149)"/><path d="M-163.89506582776667,56.62551320856561L-175.02537775491976,-2.864979893774768L-164.55274842568372,62.42650143722484z" style="fill:rgb(4,108,153)"/><path d="M-110.74404162381205,-136.69420512924938L-69.9700026799584,-156.4721406788082L-76.25116836281889,-154.5343211570678z" style="fill:rgb(71,239,152)"/><path d="M-71.49378578535185,163.37900340602627L-100.55649266219092,15.130213422599903L-104.83685446485956,181.13425903428455z" style="fill:rgb(4,136,159)"/><path d="M58.13811393709676,185.00301715016312L-71.49378578535185,163.37900340602627L-104.83685446485956,181.13425903428455zM163.459427862306,-24.321486880563633L160.93499592037298,11.265031717890595L173.31192484550434,-15.122573527147177z" style="fill:rgb(127,4,160)"/><path d="M-43.71518590536871,-170.06549339708894L-76.25116836281889,-154.5343211570678L-69.9700026799584,-156.4721406788082z" style="fill:rgb(71,239,152)"/><path d="M-128.691297388575,120.18884273792895L-163.89506582776667,56.62551320856561L-164.55274842568372,62.42650143722484z" style="fill:rgb(22,63,160)"/><path d="M-175.02537775491976,-2.864979893774768L-163.89506582776667,56.62551320856561L-174.92895211138773,-12.027252569925086z" style="fill:rgb(4,108,153)"/><path d="M118.09768039539925,168.7382831615604L82.10964869164289,5.7984658435332115L85.73378410304507,177.51736800321746z" style="fill:rgb(4,136,159)"/><path d="M81.5581694604383,-155.29300070921377L17.534151206208296,-174.81469145677693L26.28329378258376,-172.0865286965729z" style="fill:rgb(164,247,148)"/><path d="M-88.91674352725774,144.29435903990097L-128.691297388575,120.18884273792895L-95.05530184310815,144.4482135061692z" style="fill:rgb(56,27,161)"/><path d="M175.76260105379143,-5.884832833991194L160.2479055741297,-71.3153254701639L173.31192484550434,-15.122573527147177z" style="fill:rgb(249,156,149)"/><path d="M-68.07124227767463,-30.41137202183308L-20.83932443447607,20.233374382607046L24.35297986146737,-23.41903995191029zM24.35297986146737,-23.41903995191029L82.10964869164289,5.7984658435332115L112.69389476565424,-16.73563128478127z" style="fill:rgb(127,4,160)"/><path d="M-30.407807033615896,-167.6324177015292L17.534151206208296,-174.81469145677693L-43.71518590536871,-170.06549339708894z" style="fill:rgb(121,250,159)"/><path d="M-69.9700026799584,-156.4721406788082L-110.74404162381205,-136.69420512924938L-98.06694314956414,-141.92502069033648z" style="fill:rgb(71,239,152)"/><path d="M-167.58848159653184,-21.286095368369484L-158.36035581890033,-76.4732226335681L-174.92895211138773,-12.027252569925086z" style="fill:rgb(10,162,163)"/><path d="M17.534151206208296,-174.81469145677693L-30.407807033615896,-167.6324177015292L26.28329378258376,-172.0865286965729z" style="fill:rgb(121,250,159)"/><path d="M-150.97501610848275,-86.29948119727112L-98.06694314956414,-141.92502069033648L-110.74404162381205,-136.69420512924938z" style="fill:rgb(38,208,169)"/><path d="M82.10964869164289,5.7984658435332115L118.09768039539925,168.7382831615604L112.69389476565424,-16.73563128478127z" style="fill:rgb(4,136,159)"/><path d="M-163.89506582776667,56.62551320856561L-128.691297388575,120.18884273792895L-126.10277440109758,117.46162787359664z" style="fill:rgb(22,63,160)"/><path d="M81.5581694604383,-155.29300070921377L123.95535163080095,-116.45649969417342L128.20002860391364,-120.11889939022755z" style="fill:rgb(201,223,166)"/><path d="M123.95535163080095,-116.45649969417342L160.2479055741297,-71.3153254701639L128.20002860391364,-120.11889939022755z" style="fill:rgb(227,195,167)"/><path d="M-158.36035581890033,-76.4732226335681L-167.58848159653184,-21.286095368369484L-150.97501610848275,-86.29948119727112z" style="fill:rgb(10,162,163)"/><path d="M-128.691297388575,120.18884273792895L-88.91674352725774,144.29435903990097L-126.10277440109758,117.46162787359664z" style="fill:rgb(56,27,161)"/><path d="M145.97975467185015,-33.03009132893698L160.93499592037298,11.265031717890595L163.459427862306,-24.321486880563633z" style="fill:rgb(127,4,160)"/><path d="M152.08582383926043,-73.58018580308193L173.31192484550434,-15.122573527147177L160.2479055741297,-71.3153254701639z" style="fill:rgb(242,159,172)"/><path d="M-63.93562488223809,-150.1436951682407L-43.71518590536871,-170.06549339708894L-69.9700026799584,-156.4721406788082z" style="fill:rgb(82,237,174)"/><path d="M34.50358696616659,-161.9929025080569L81.5581694604383,-155.29300070921377L26.28329378258376,-172.0865286965729z" style="fill:rgb(166,240,172)"/><path d="M123.95535163080095,-116.45649969417342L81.5581694604383,-155.29300070921377L82.97452223885297,-147.3397040830924z" style="fill:rgb(201,223,166)"/><path d="M160.2479055741297,-71.3153254701639L123.95535163080095,-116.45649969417342L152.08582383926043,-73.58018580308193z" style="fill:rgb(227,195,167)"/><path d="M-156.3156927729619,48.06815565296874L-174.92895211138773,-12.027252569925086L-163.89506582776667,56.62551320856561z" style="fill:rgb(10,114,176)"/><path d="M-43.71518590536871,-170.06549339708894L-63.93562488223809,-150.1436951682407L-30.407807033615896,-167.6324177015292z" style="fill:rgb(82,237,174)"/><path d="M-98.06694314956414,-141.92502069033648L-150.97501610848275,-86.29948119727112L-136.82038241451022,-93.13487170565382z" style="fill:rgb(38,208,169)"/><path d="M81.5581694604383,-155.29300070921377L34.50358696616659,-161.9929025080569L82.97452223885297,-147.3397040830924z" style="fill:rgb(166,240,172)"/><path d="M-80.48954875021514,-141.5088668591969L-69.9700026799584,-156.4721406788082L-98.06694314956414,-141.92502069033648z" style="fill:rgb(82,237,174)"/><path d="M138.12185139819664,-35.47064118999956L160.93499592037298,11.265031717890595L145.97975467185015,-33.03009132893698z" style="fill:rgb(127,4,160)"/><path d="M-174.92895211138773,-12.027252569925086L-156.3156927729619,48.06815565296874L-167.58848159653184,-21.286095368369484z" style="fill:rgb(10,114,176)"/><path d="M-126.10277440109758,117.46162787359664L-156.3156927729619,48.06815565296874L-163.89506582776667,56.62551320856561z" style="fill:rgb(28,69,183)"/><path d="M173.31192484550434,-15.122573527147177L152.08582383926043,-73.58018580308193L163.459427862306,-24.321486880563633z" style="fill:rgb(242,159,172)"/><path d="M-82.17996487017322,135.50102710360864L-126.10277440109758,117.46162787359664L-88.91674352725774,144.29435903990097z" style="fill:rgb(62,33,183)"/><path d="M-100.55649266219092,15.130213422599903L-71.49378578535185,163.37900340602627L-68.07124227767463,-30.41137202183308z" style="fill:rgb(4,136,159)"/><path d="M-71.49378578535185,163.37900340602627L58.13811393709676,185.00301715016312L118.09768039539925,168.7382831615604z" style="fill:rgb(127,4,160)"/><path d="M-14.995726669364943,-157.9428332078974L26.28329378258376,-172.0865286965729L-30.407807033615896,-167.6324177015292z" style="fill:rgb(129,242,181)"/><path d="M-69.9700026799584,-156.4721406788082L-80.48954875021514,-141.5088668591969L-63.93562488223809,-150.1436951682407z" style="fill:rgb(82,237,174)"/><path d="M-152.64948277611919,-30.2118784814386L-150.97501610848275,-86.29948119727112L-167.58848159653184,-21.286095368369484z" style="fill:rgb(21,167,185)"/><path d="M167.89010308144475,179.63747090984057L156.58249205669676,158.29882270335847L85.73378410304507,177.51736800321746z" style="fill:rgb(127,4,160)"/><path d="M26.28329378258376,-172.0865286965729L-14.995726669364943,-157.9428332078974L34.50358696616659,-161.9929025080569z" style="fill:rgb(129,242,181)"/><path d="M-136.82038241451022,-93.13487170565382L-80.48954875021514,-141.5088668591969L-98.06694314956414,-141.92502069033648z" style="fill:rgb(52,209,189)"/><path d="M-150.97501610848275,-86.29948119727112L-152.64948277611919,-30.2118784814386L-136.82038241451022,-93.13487170565382z" style="fill:rgb(21,167,185)"/><path d="M-156.3156927729619,48.06815565296874L-126.10277440109758,117.46162787359664L-118.02140112037571,109.60130368532893z" style="fill:rgb(28,69,183)"/><path d="M82.97452223885297,-147.3397040830924L114.16230943049639,-107.59837662737928L123.95535163080095,-116.45649969417342z" style="fill:rgb(196,214,189)"/><path d="M114.16230943049639,-107.59837662737928L152.08582383926043,-73.58018580308193L123.95535163080095,-116.45649969417342z" style="fill:rgb(218,191,189)"/><path d="M-126.10277440109758,117.46162787359664L-82.17996487017322,135.50102710360864L-118.02140112037571,109.60130368532893z" style="fill:rgb(62,33,183)"/><path d="M136.91293982978843,-72.84914943406498L163.459427862306,-24.321486880563633L152.08582383926043,-73.58018580308193z" style="fill:rgb(230,161,194)"/><path d="M41.74540685152884,-144.31837546056627L82.97452223885297,-147.3397040830924L34.50358696616659,-161.9929025080569z" style="fill:rgb(168,228,193)"/><path d="M-58.439827240489976,-134.95972146737745L-30.407807033615896,-167.6324177015292L-63.93562488223809,-150.1436951682407z" style="fill:rgb(94,230,194)"/><path d="M114.16230943049639,-107.59837662737928L82.97452223885297,-147.3397040830924L80.94622832376645,-132.58839630901238z" style="fill:rgb(196,214,189)"/><path d="M152.08582383926043,-73.58018580308193L114.16230943049639,-107.59837662737928L136.91293982978843,-72.84914943406498z" style="fill:rgb(218,191,189)"/><path d="M-141.51297023390296,36.906895621728346L-167.58848159653184,-21.286095368369484L-156.3156927729619,48.06815565296874z" style="fill:rgb(21,121,197)"/><path d="M-30.407807033615896,-167.6324177015292L-58.439827240489976,-134.95972146737745L-14.995726669364943,-157.9428332078974z" style="fill:rgb(94,230,194)"/><path d="M-80.48954875021514,-141.5088668591969L-136.82038241451022,-93.13487170565382L-115.95886754590705,-96.37114717817919z" style="fill:rgb(52,209,189)"/><path d="M-58.439827240489976,-134.95972146737745L-63.93562488223809,-150.1436951682407L-80.48954875021514,-141.5088668591969z" style="fill:rgb(94,230,194)"/><path d="M82.97452223885297,-147.3397040830924L41.74540685152884,-144.31837546056627L80.94622832376645,-132.58839630901238z" style="fill:rgb(168,228,193)"/><path d="M-167.58848159653184,-21.286095368369484L-141.51297023390296,36.906895621728346L-152.64948277611919,-30.2118784814386z" style="fill:rgb(21,121,197)"/><path d="M163.459427862306,-24.321486880563633L136.91293982978843,-72.84914943406498L145.97975467185015,-33.03009132893698z" style="fill:rgb(230,161,194)"/><path d="M-104.31400524930758,96.49880466910533L-156.3156927729619,48.06815565296874L-118.02140112037571,109.60130368532893z" style="fill:rgb(38,77,204)"/><path d="M1.9312971067118454,-140.84000543250198L34.50358696616659,-161.9929025080569L-14.995726669364943,-157.9428332078974z" style="fill:rgb(137,230,201)"/><path d="M-82.17996487017322,135.50102710360864L-104.31400524930758,96.49880466910533L-118.02140112037571,109.60130368532893z" style="fill:rgb(71,42,204)"/><path d="M112.69389476565424,-16.73563128478127L53.190067914059256,-51.27352835394767L24.35297986146737,-23.41903995191029z" style="fill:rgb(127,4,160)"/><path d="M-130.18952226997865,-38.31825449408964L-136.82038241451022,-93.13487170565382L-152.64948277611919,-30.2118784814386z" style="fill:rgb(35,171,204)"/><path d="M121.12242887395477,-40.75040651201796L112.69389476565424,-16.73563128478127L138.12185139819664,-35.47064118999956z" style="fill:rgb(127,4,160)"/><path d="M-71.49378578535185,163.37900340602627L112.69389476565424,-16.73563128478127L-68.07124227767463,-30.41137202183308z" style="fill:rgb(160,159,246)"/><path d="M34.50358696616659,-161.9929025080569L1.9312971067118454,-140.84000543250198L41.74540685152884,-144.31837546056627z" style="fill:rgb(137,230,201)"/><path d="M112.69389476565424,-16.73563128478127L-71.49378578535185,163.37900340602627L118.09768039539925,168.7382831615604z" style="fill:rgb(160,159,246)"/><path d="M-136.82038241451022,-93.13487170565382L-130.18952226997865,-38.31825449408964L-115.95886754590705,-96.37114717817919z" style="fill:rgb(35,171,204)"/><path d="M-156.3156927729619,48.06815565296874L-104.31400524930758,96.49880466910533L-141.51297023390296,36.906895621728346z" style="fill:rgb(38,77,204)"/><path d="M-104.31400524930758,96.49880466910533L-82.17996487017322,135.50102710360864L-75.11459083335907,117.64989086468397z" style="fill:rgb(71,42,204)"/><path d="M80.94622832376645,-132.58839630901238L98.78766613489833,-93.49750684379539L114.16230943049639,-107.59837662737928z" style="fill:rgb(189,202,210)"/><path d="M98.78766613489833,-93.49750684379539L136.91293982978843,-72.84914943406498L114.16230943049639,-107.59837662737928z" style="fill:rgb(205,184,210)"/><path d="M-88.91186138743133,-95.5369448768595L-80.48954875021514,-141.5088668591969L-115.95886754590705,-96.37114717817919zM-80.48954875021514,-141.5088668591969L-88.91186138743133,-95.5369448768595L-58.439827240489976,-134.95972146737745z" style="fill:rgb(68,206,208)"/><path d="M114.85177811321142,-68.87982319655362L145.97975467185015,-33.03009132893698L136.91293982978843,-72.84914943406498z" style="fill:rgb(214,162,213)"/><path d="M47.545102765409524,-119.31927335331997L80.94622832376645,-132.58839630901238L41.74540685152884,-144.31837546056627z" style="fill:rgb(167,212,213)"/><path d="M-32.71948932086867,-122.12876770805366L-14.995726669364943,-157.9428332078974L-58.439827240489976,-134.95972146737745z" style="fill:rgb(108,220,212)"/><path d="M89.71410457246294,-46.98079797035181L112.69389476565424,-16.73563128478127L121.12242887395477,-40.75040651201796z" style="fill:rgb(127,4,160)"/><path d="M-14.995726669364943,-157.9428332078974L-32.71948932086867,-122.12876770805366L1.9312971067118454,-140.84000543250198z" style="fill:rgb(108,220,212)"/><path d="M-119.62806532307751,23.500761741937L-152.64948277611919,-30.2118784814386L-141.51297023390296,36.906895621728346z" style="fill:rgb(35,128,216)"/><path d="M98.78766613489833,-93.49750684379539L80.94622832376645,-132.58839630901238L75.25400796284211,-111.15640205897401z" style="fill:rgb(189,202,210)"/><path d="M136.91293982978843,-72.84914943406498L98.78766613489833,-93.49750684379539L114.85177811321142,-68.87982319655362z" style="fill:rgb(205,184,210)"/><path d="M80.94622832376645,-132.58839630901238L47.545102765409524,-119.31927335331997L75.25400796284211,-111.15640205897401z" style="fill:rgb(167,212,213)"/><path d="M-130.18952226997865,-38.31825449408964L-88.91186138743133,-95.5369448768595L-115.95886754590705,-96.37114717817919z" style="fill:rgb(54,172,221)"/><path d="M-152.64948277611919,-30.2118784814386L-119.62806532307751,23.500761741937L-130.18952226997865,-38.31825449408964z" style="fill:rgb(35,128,216)"/><path d="M156.58249205669676,158.29882270335847L167.89010308144475,179.63747090984057L252.1421031339071,161.28493530779068z" style="fill:rgb(127,4,160)"/><path d="M19.583602208877373,-116.65953774457915L41.74540685152884,-144.31837546056627L1.9312971067118454,-140.84000543250198z" style="fill:rgb(144,214,219)"/><path d="M145.97975467185015,-33.03009132893698L114.85177811321142,-68.87982319655362L121.12242887395477,-40.75040651201796z" style="fill:rgb(214,162,213)"/><path d="M-85.21805283865487,78.39306849935193L-141.51297023390296,36.906895621728346L-104.31400524930758,96.49880466910533z" style="fill:rgb(52,87,222)"/><path d="M53.190067914059256,-51.27352835394767L112.69389476565424,-16.73563128478127L89.71410457246294,-46.98079797035181z" style="fill:rgb(127,4,160)"/><path d="M-75.11459083335907,117.64989086468397L-85.21805283865487,78.39306849935193L-104.31400524930758,96.49880466910533z" style="fill:rgb(82,55,222)"/><path d="M41.74540685152884,-144.31837546056627L19.583602208877373,-116.65953774457915L47.545102765409524,-119.31927335331997z" style="fill:rgb(144,214,219)"/><path d="M-32.73248495466714,116.53934619971915L25.375477228201262,138.70380639562808L28.43212502630904,131.44585592897806zM25.375477228201262,138.70380639562808L-32.73248495466714,116.53934619971915L-37.506203664021044,123.47864096840385z" style="fill:rgb(121,36,216)"/><path d="M-56.72427105471687,-90.38570999145226L-58.439827240489976,-134.95972146737745L-88.91186138743133,-95.5369448768595zM-32.71948932086867,-122.12876770805366L-58.439827240489976,-134.95972146737745L-54.042245211299345,-93.93232811325004z" style="fill:rgb(87,200,223)"/><path d="M-141.51297023390296,36.906895621728346L-85.21805283865487,78.39306849935193L-119.62806532307751,23.500761741937z" style="fill:rgb(52,87,222)"/><path d="M75.25400796284211,-111.15640205897401L78.19215286448885,-74.47419769902866L98.78766613489833,-93.49750684379539z" style="fill:rgb(179,186,227)"/><path d="M78.19215286448885,-74.47419769902866L114.85177811321142,-68.87982319655362L98.78766613489833,-93.49750684379539z" style="fill:rgb(189,176,227)"/><path d="M-85.21805283865487,78.39306849935193L-75.11459083335907,117.64989086468397L-68.06162211743806,90.86228197561795z" style="fill:rgb(82,55,222)"/><path d="M-88.91186138743133,-95.5369448768595L-130.18952226997865,-38.31825449408964L-100.8350652479728,-45.09898977723907z" style="fill:rgb(54,172,221)"/><path d="M-4.509320936740894,-103.30507551948803L1.9312971067118454,-140.84000543250198L-32.71948932086867,-122.12876770805366z" style="fill:rgb(123,206,227)"/><path d="M-37.506203664021044,123.47864096840385L-68.06162211743806,90.86228197561795L-70.36775413885154,99.62111250296951z" style="fill:rgb(82,55,222)"/><path d="M-58.439827240489976,-134.95972146737745L-56.72427105471687,-90.38570999145226L-54.042245211299345,-93.93232811325004z" style="fill:rgb(87,200,223)"/><path d="M86.54121255059059,-61.62243190176882L121.12242887395477,-40.75040651201796L114.85177811321142,-68.87982319655362z" style="fill:rgb(194,162,230)"/><path d="M-68.06162211743806,90.86228197561795L-37.506203664021044,123.47864096840385L-32.73248495466714,116.53934619971915z" style="fill:rgb(82,55,222)"/><path d="M51.47280169493572,-87.82567041818848L75.25400796284211,-111.15640205897401L47.545102765409524,-119.31927335331997z" style="fill:rgb(166,193,229)"/><path d="M1.9312971067118454,-140.84000543250198L-4.509320936740894,-103.30507551948803L19.583602208877373,-116.65953774457915z" style="fill:rgb(123,206,227)"/><path d="M-91.3514428346217,8.431508152211622L-130.18952226997865,-38.31825449408964L-119.62806532307751,23.500761741937z" style="fill:rgb(54,135,231)"/><path d="M28.43212502630904,131.44585592897806L-15.989733211850831,89.09050813375045L-32.73248495466714,116.53934619971915z" style="fill:rgb(129,54,232)"/><path d="M78.19215286448885,-74.47419769902866L75.25400796284211,-111.15640205897401L65.90529924363682,-83.6612345960599z" style="fill:rgb(179,186,227)"/><path d="M114.85177811321142,-68.87982319655362L78.19215286448885,-74.47419769902866L86.54121255059059,-61.62243190176882z" style="fill:rgb(189,176,227)"/><path d="M56.054348307085725,155.1574643709967L24.35297986146737,-23.41903995191029L25.548402951174438,166.1221450873014z" style="fill:rgb(4,136,159)"/><path d="M-100.8350652479728,-45.09898977723907L-56.72427105471687,-90.38570999145226L-88.91186138743133,-95.5369448768595z" style="fill:rgb(75,172,234)"/><path d="M75.25400796284211,-111.15640205897401L51.47280169493572,-87.82567041818848L65.90529924363682,-83.6612345960599z" style="fill:rgb(166,193,229)"/><path d="M37.012356951015974,-86.30988233767992L47.545102765409524,-119.31927335331997L19.583602208877373,-116.65953774457915z" style="fill:rgb(151,194,233)"/><path d="M-130.18952226997865,-38.31825449408964L-91.3514428346217,8.431508152211622L-100.8350652479728,-45.09898977723907z" style="fill:rgb(54,135,231)"/><path d="M-53.78411087093852,-89.61186878404814L-32.71948932086867,-122.12876770805366L-54.042245211299345,-93.93232811325004z" style="fill:rgb(107,191,235)"/><path d="M-15.989733211850831,89.09050813375045L28.43212502630904,131.44585592897806L36.953348537318014,102.32171160483531z" style="fill:rgb(129,54,232)"/><path d="M121.12242887395477,-40.75040651201796L86.54121255059059,-61.62243190176882L89.71410457246294,-46.98079797035181z" style="fill:rgb(194,162,230)"/><path d="M47.545102765409524,-119.31927335331997L37.012356951015974,-86.30988233767992L51.47280169493572,-87.82567041818848z" style="fill:rgb(151,194,233)"/><path d="M-32.73248495466714,116.53934619971915L-61.41495696686486,55.93807195654983L-68.06162211743806,90.86228197561795z" style="fill:rgb(94,71,237)"/><path d="M-61.41495696686486,55.93807195654983L-119.62806532307751,23.500761741937L-85.21805283865487,78.39306849935193z" style="fill:rgb(68,99,237)"/><path d="M-32.71948932086867,-122.12876770805366L-53.78411087093852,-89.61186878404814L-20.95697677703645,-80.97186607443173z" style="fill:rgb(107,191,235)"/><path d="M-61.41495696686486,55.93807195654983L-85.21805283865487,78.39306849935193L-68.06162211743806,90.86228197561795z" style="fill:rgb(94,71,237)"/><path d="M-53.78411087093852,-89.61186878404814L-54.042245211299345,-93.93232811325004L-56.72427105471687,-90.38570999145226zM-32.71948932086867,-122.12876770805366L-20.95697677703645,-80.97186607443173L-4.509320936740894,-103.30507551948803z" style="fill:rgb(107,191,235)"/><path d="M118.09768039539925,168.7382831615604L56.054348307085725,155.1574643709967L25.548402951174438,166.1221450873014z" style="fill:rgb(127,4,160)"/><path d="M156.58249205669676,158.29882270335847L239.86385138081317,-35.73854207815184L148.77402200389324,-43.31903276705185z" style="fill:rgb(160,159,246)"/><path d="M24.69056142090419,-79.26943843219851L19.583602208877373,-116.65953774457915L-4.509320936740894,-103.30507551948803z" style="fill:rgb(138,189,238)"/><path d="M-56.72427105471687,-90.38570999145226L-100.8350652479728,-45.09898977723907L-65.8208914468708,-50.08142171257761z" style="fill:rgb(75,172,234)"/><path d="M-119.62806532307751,23.500761741937L-61.41495696686486,55.93807195654983L-91.3514428346217,8.431508152211622z" style="fill:rgb(68,99,237)"/><path d="M-61.41495696686486,55.93807195654983L-32.73248495466714,116.53934619971915L-15.989733211850831,89.09050813375045z" style="fill:rgb(94,71,237)"/><path d="M19.583602208877373,-116.65953774457915L24.69056142090419,-79.26943843219851L37.012356951015974,-86.30988233767992z" style="fill:rgb(138,189,238)"/><path d="M78.19215286448885,-74.47419769902866L65.90529924363682,-83.6612345960599L53.190067914059256,-51.27352835394767z" style="fill:rgb(167,168,241)"/><path d="M53.190067914059256,-51.27352835394767L86.54121255059059,-61.62243190176882L78.19215286448885,-74.47419769902866z" style="fill:rgb(170,165,241)"/><path d="M-56.72427105471687,-90.38570999145226L-53.400476562761156,-50.978552658735175L-53.78411087093852,-89.61186878404814z" style="fill:rgb(98,171,243)"/><path d="M24.35297986146737,-23.41903995191029L56.054348307085725,155.1574643709967L53.190067914059256,-51.27352835394767z" style="fill:rgb(4,136,159)"/><path d="M65.90529924363682,-83.6612345960599L51.47280169493572,-87.82567041818848L53.190067914059256,-51.27352835394767z" style="fill:rgb(162,171,242)"/><path d="M89.71410457246294,-46.98079797035181L86.54121255059059,-61.62243190176882L53.190067914059256,-51.27352835394767z" style="fill:rgb(172,160,242)"/><path d="M53.190067914059256,-51.27352835394767L51.47280169493572,-87.82567041818848L37.012356951015974,-86.30988233767992z" style="fill:rgb(157,171,243)"/><path d="M-57.96315074088757,-7.515941497780499L-100.8350652479728,-45.09898977723907L-91.3514428346217,8.431508152211622z" style="fill:rgb(75,141,242)"/><path d="M-53.400476562761156,-50.978552658735175L-56.72427105471687,-90.38570999145226L-65.8208914468708,-50.08142171257761zM-53.400476562761156,-50.978552658735175L-20.95697677703645,-80.97186607443173L-53.78411087093852,-89.61186878404814z" style="fill:rgb(98,171,243)"/><path d="M36.953348537318014,102.32171160483531L2.0331834668133446,56.67010293303348L-15.989733211850831,89.09050813375045z" style="fill:rgb(137,75,243)"/><path d="M239.86385138081317,-35.73854207815184L156.58249205669676,158.29882270335847L252.1421031339071,161.28493530779068z" style="fill:rgb(160,159,246)"/><path d="M-100.8350652479728,-45.09898977723907L-57.96315074088757,-7.515941497780499L-65.8208914468708,-50.08142171257761z" style="fill:rgb(75,141,242)"/><path d="M16.414229158932386,-67.69217588299395L-4.509320936740894,-103.30507551948803L-20.95697677703645,-80.97186607443173zM-4.509320936740894,-103.30507551948803L16.414229158932386,-67.69217588299395L24.69056142090419,-79.26943843219851z" style="fill:rgb(128,180,243)"/><path d="M2.0331834668133446,56.67010293303348L36.953348537318014,102.32171160483531L44.10935439527916,67.4922370885233z" style="fill:rgb(137,75,243)"/><path d="M53.190067914059256,-51.27352835394767L37.012356951015974,-86.30988233767992L24.69056142090419,-79.26943843219851z" style="fill:rgb(153,169,244)"/><path d="M-55.333352072870106,-3.367660646026834L-91.3514428346217,8.431508152211622L-61.41495696686486,55.93807195654983z" style="fill:rgb(87,112,247)"/><path d="M-15.989733211850831,89.09050813375045L-34.044260817224,30.21403576121396L-61.41495696686486,55.93807195654983z" style="fill:rgb(108,89,247)"/><path d="M53.190067914059256,-51.27352835394767L24.69056142090419,-79.26943843219851L16.414229158932386,-67.69217588299395z" style="fill:rgb(150,166,246)"/><path d="M-20.95697677703645,-80.97186607443173L-53.400476562761156,-50.978552658735175L-26.95564779146014,-52.88867653796419z" style="fill:rgb(98,171,243)"/><path d="M-65.8208914468708,-50.08142171257761L-54.9289346221758,-8.830859425409576L-53.400476562761156,-50.978552658735175z" style="fill:rgb(98,148,249)"/><path d="M-91.3514428346217,8.431508152211622L-55.333352072870106,-3.367660646026834L-57.96315074088757,-7.515941497780499z" style="fill:rgb(87,112,247)"/><path d="M-20.95697677703645,-80.97186607443173L13.523358509972079,-53.297119779120884L16.414229158932386,-67.69217588299395zM13.523358509972079,-53.297119779120884L-20.95697677703645,-80.97186607443173L-26.95564779146014,-52.88867653796419z" style="fill:rgb(123,167,248)"/><path d="M-34.044260817224,30.21403576121396L-15.989733211850831,89.09050813375045L2.0331834668133446,56.67010293303348z" style="fill:rgb(108,89,247)"/><path d="M-54.9289346221758,-8.830859425409576L-65.8208914468708,-50.08142171257761L-57.96315074088757,-7.515941497780499z" style="fill:rgb(98,148,249)"/><path d="M53.190067914059256,-51.27352835394767L16.414229158932386,-67.69217588299395L13.523358509972079,-53.297119779120884z" style="fill:rgb(148,162,248)"/><path d="M-61.41495696686486,55.93807195654983L-34.044260817224,30.21403576121396L-55.333352072870106,-3.367660646026834z" style="fill:rgb(87,112,247)"/><path d="M20.299264933457867,21.040543056769586L44.10935439527916,67.4922370885233L49.414896633895815,28.7618196616356zM44.10935439527916,67.4922370885233L20.299264933457867,21.040543056769586L2.0331834668133446,56.67010293303348z" style="fill:rgb(144,98,250)"/><path d="M-53.400476562761156,-50.978552658735175L-21.27408577340853,-23.41565061339579L-26.95564779146014,-52.88867653796419z" style="fill:rgb(98,148,249)"/><path d="M53.190067914059256,-51.27352835394767L13.523358509972079,-53.297119779120884L16.540625027025374,-38.299574604991484z" style="fill:rgb(148,157,249)"/><path d="M-21.27408577340853,-23.41565061339579L-53.400476562761156,-50.978552658735175L-54.9289346221758,-8.830859425409576z" style="fill:rgb(98,148,249)"/><path d="M52.50568611227524,-11.63481421405743L53.190067914059256,-51.27352835394767L37.70055963213901,-15.68271709031405z" style="fill:rgb(157,147,249)"/><path d="M-55.333352072870106,-3.367660646026834L-54.9289346221758,-8.830859425409576L-57.96315074088757,-7.515941497780499z" style="fill:rgb(107,126,253)"/><path d="M56.054348307085725,155.1574643709967L118.09768039539925,168.7382831615604L156.58249205669676,158.29882270335847z" style="fill:rgb(127,4,160)"/><path d="M53.190067914059256,-51.27352835394767L16.540625027025374,-38.299574604991484L25.042277362764462,-25.060927215943558z" style="fill:rgb(150,153,250)"/><path d="M37.70055963213901,-15.68271709031405L53.190067914059256,-51.27352835394767L25.042277362764462,-25.060927215943558z" style="fill:rgb(153,149,250)"/><path d="M-21.27408577340853,-23.41565061339579L13.523358509972079,-53.297119779120884L-26.95564779146014,-52.88867653796419z" style="fill:rgb(123,153,252)"/><path d="M52.50568611227524,-11.63481421405743L20.299264933457867,21.040543056769586L49.414896633895815,28.7618196616356z" style="fill:rgb(151,122,252)"/><path d="M-4.6356857462869225,2.6616972210680787L-54.9289346221758,-8.830859425409576L-55.333352072870106,-3.367660646026834z" style="fill:rgb(107,126,253)"/><path d="M13.523358509972079,-53.297119779120884L-21.27408577340853,-23.41565061339579L16.540625027025374,-38.299574604991484z" style="fill:rgb(123,153,252)"/><path d="M20.299264933457867,21.040543056769586L52.50568611227524,-11.63481421405743L37.70055963213901,-15.68271709031405z" style="fill:rgb(151,122,252)"/><path d="M-4.6356857462869225,2.6616972210680787L-55.333352072870106,-3.367660646026834L-34.044260817224,30.21403576121396z" style="fill:rgb(107,126,253)"/><path d="M2.0331834668133446,56.67010293303348L-4.6356857462869225,2.6616972210680787L-34.044260817224,30.21403576121396z" style="fill:rgb(123,108,253)"/><path d="M56.054348307085725,155.1574643709967L148.77402200389324,-43.31903276705185L53.190067914059256,-51.27352835394767z" style="fill:rgb(160,159,246)"/><path d="M-54.9289346221758,-8.830859425409576L-4.6356857462869225,2.6616972210680787L-21.27408577340853,-23.41565061339579z" style="fill:rgb(107,126,253)"/><path d="M-4.6356857462869225,2.6616972210680787L2.0331834668133446,56.67010293303348L20.299264933457867,21.040543056769586z" style="fill:rgb(123,108,253)"/><path d="M16.540625027025374,-38.299574604991484L-4.6356857462869225,2.6616972210680787L25.042277362764462,-25.060927215943558z" style="fill:rgb(128,139,254)"/><path d="M-4.6356857462869225,2.6616972210680787L37.70055963213901,-15.68271709031405L25.042277362764462,-25.060927215943558z" style="fill:rgb(138,129,254)"/><path d="M-4.6356857462869225,2.6616972210680787L16.540625027025374,-38.299574604991484L-21.27408577340853,-23.41565061339579z" style="fill:rgb(128,139,254)"/><path d="M37.70055963213901,-15.68271709031405L-4.6356857462869225,2.6616972210680787L20.299264933457867,21.040543056769586z" style="fill:rgb(138,129,254)"/><path d="M148.77402200389324,-43.31903276705185L56.054348307085725,155.1574643709967L156.58249205669676,158.29882270335847z" style="fill:rgb(160,159,246)"/></svg>
