solid JSxCAD
facet normal 0 0 1
outer loop
vertex 0 1 3.5
vertex 0 0 3.5
vertex 1 0 3.5
endloop
endfacet
facet normal 0 0 1
outer loop
vertex 1 1 3.5
vertex 0 1 3.5
vertex 1 0 3.5
endloop
endfacet
facet normal 0 -1 0
outer loop
vertex 0 -1.5 0.5
vertex 1 -1.5 -0.5
vertex 1 -1.5 0.5
endloop
endfacet
facet normal 0 -1 0
outer loop
vertex 0 -1.5 0.5
vertex 0 -1.5 -0.5
vertex 1 -1.5 -0.5
endloop
endfacet
facet normal 0 -0.894427190999916 0.447213595499958
outer loop
vertex 1 0 3.5
vertex 0 -1.5 0.5
vertex 1 -1.5 0.5
endloop
endfacet
facet normal 0 -0.894427190999916 0.447213595499958
outer loop
vertex 1 0 3.5
vertex 0 0 3.5
vertex 0 -1.5 0.5
endloop
endfacet
facet normal -0.7456463532839217 -0.6663418910997485 0
outer loop
vertex 0 -1.5 0.5
vertex -0.76604 -0.64279 0
vertex 0 -1.5 -0.5
endloop
endfacet
facet normal 0 1 0
outer loop
vertex 1 1 2.5
vertex 0 1 0
vertex 0 1 3.5
endloop
endfacet
facet normal 0 1 0
outer loop
vertex 1 1 2.5
vertex 0 1 3.5
vertex 1 1 3.5
endloop
endfacet
facet normal 1 0 0
outer loop
vertex 1 1 3.5
vertex 1 0 3.5
vertex 1 1 2.5
endloop
endfacet
facet normal 1 0 0
outer loop
vertex 1 0 3.5
vertex 1 -1.5 0.5
vertex 1 1 2.5
endloop
endfacet
facet normal 1 0 0
outer loop
vertex 1 1 2.5
vertex 1 -1.5 0.5
vertex 1 -1.5 -0.5
endloop
endfacet
facet normal 1 0 0
outer loop
vertex 1 1 2.5
vertex 1 -1.5 -0.5
vertex 1 -0.5 -0.5
endloop
endfacet
facet normal 1 0 0
outer loop
vertex 1 1 2.5
vertex 1 -0.5 -0.5
vertex 1 0 0
endloop
endfacet
facet normal 0.02913353438835048 -0.3327385783316036 -0.9425689766080285
outer loop
vertex 1 -1.5 -0.5
vertex 0 -0.34202 -0.93969
vertex 0.05939 -0.33682 -0.93969
endloop
endfacet
facet normal 0 -0.35497619792437346 -0.9348753386987785
outer loop
vertex 1 -1.5 -0.5
vertex 0 -1.5 -0.5
vertex 0 -0.34202 -0.93969
endloop
endfacet
facet normal -0.7675251059749447 -0.6350690941713382 0.08713470793286623
outer loop
vertex 0 -1.5 0.5
vertex -0.75441 -0.63302 0.17365
vertex -0.76604 -0.64279 0
endloop
endfacet
facet normal -0.7675251059749447 -0.6350690941713382 -0.08713470793286672
outer loop
vertex -0.76604 -0.64279 0
vertex -0.75441 -0.63302 -0.17365
vertex 0 -1.5 -0.5
endloop
endfacet
facet normal -0.25883823498619507 0.9658819509003931 0.008650146477478632
outer loop
vertex 0 1 3.5
vertex -0.17365 0.98481 0
vertex -0.34202 0.93969 0
endloop
endfacet
facet normal -0.08714204243958792 0.9961958966184599 0
outer loop
vertex 0 1 3.5
vertex 0 1 0
vertex -0.17365 0.98481 0
endloop
endfacet
facet normal -0.9584674282149002 0 0.2852020144583751
outer loop
vertex 0 1 3.5
vertex -0.93969 0 0.34202
vertex 0 0 3.5
endloop
endfacet
facet normal -0.7047070685038476 0.7047070685038473 0.0823158259475509
outer loop
vertex 0 1 3.5
vertex -0.64279 0.76604 0
vertex -0.76604 0.64279 0
endloop
endfacet
facet normal -0.8937956653343849 0.4167944177915525 0.1655648571625794
outer loop
vertex 0 1 3.5
vertex -0.85287 0.4924 0.17365
vertex -0.92542 0.33682 0.17365
endloop
endfacet
facet normal 0.9510952319198501 0.16861327713975433 -0.2588192855865249
outer loop
vertex 0.96985 0.17101 -0.17365
vertex 1 -0.5 -0.5
vertex 0.92542 0.16318 -0.34202
endloop
endfacet
facet normal 0.9619366212073094 0.25775794029455823 -0.09076773102469894
outer loop
vertex 1 1 2.5
vertex 0.96985 0.17101 -0.17365
vertex 0.92542 0.33682 -0.17365
endloop
endfacet
facet normal 0.933248725784023 0.25007080927919995 -0.2578980538293061
outer loop
vertex 0.92542 0.33682 -0.17365
vertex 0.96985 0.17101 -0.17365
vertex 0.92542 0.16318 -0.34202
endloop
endfacet
facet normal 0.9332303291769029 0.25010407658871575 -0.25793236240936346
outer loop
vertex 0.92542 0.33682 -0.17365
vertex 0.92542 0.16318 -0.34202
vertex 0.88302 0.32139 -0.34202
endloop
endfacet
facet normal 0.9924348791411948 0.08681304816674222 -0.08681304816674222
outer loop
vertex 0.98481 0.17365 0
vertex 1 0 0
vertex 1 -0.5 -0.5
endloop
endfacet
facet normal 0.9924340691753367 0.08681698228499607 -0.08681837321103024
outer loop
vertex 0.98481 0.17365 0
vertex 1 -0.5 -0.5
vertex 0.96985 0.17101 -0.17365
endloop
endfacet
facet normal 0.9655714465953914 0.24518993520175295 -0.08691189329110074
outer loop
vertex 1 1 2.5
vertex 0.98481 0.17365 0
vertex 0.96985 0.17101 -0.17365
endloop
endfacet
facet normal 0.9955912596806361 0.08708915194096742 -0.03483566077638677
outer loop
vertex 1 1 2.5
vertex 1 0 0
vertex 0.98481 0.17365 0
endloop
endfacet
facet normal -0.03106558871155066 -0.35480486799600763 -0.9344241193614066
outer loop
vertex 0 -0.34202 -0.93969
vertex 0 -1.5 -0.5
vertex -0.05939 -0.33682 -0.93969
endloop
endfacet
facet normal -0.47044215809522577 0.6718429064563524 -0.5721112522324551
outer loop
vertex -0.43301 0.75 -0.5
vertex -0.4924 0.58682 -0.64279
vertex -0.55667 0.66341 -0.5
endloop
endfacet
facet normal -0.4704379643059718 0.6718436419348112 -0.5721138370389433
outer loop
vertex -0.38302 0.66341 -0.64279
vertex -0.4924 0.58682 -0.64279
vertex -0.43301 0.75 -0.5
endloop
endfacet
facet normal -0.3466571207057845 0.7433105022646019 -0.5721174161718209
outer loop
vertex -0.262 0.71985 -0.64279
vertex -0.38302 0.66341 -0.64279
vertex -0.43301 0.75 -0.5
endloop
endfacet
facet normal -0.3466432674440364 0.7433270441852463 -0.5721043178639252
outer loop
vertex -0.262 0.71985 -0.64279
vertex -0.43301 0.75 -0.5
vertex -0.2962 0.8138 -0.5
endloop
endfacet
facet normal -0.7748247592917279 -0.5769471728764682 0.2584154641238919
outer loop
vertex 0 -1.5 0.5
vertex -0.71985 -0.60402 0.34202
vertex -0.75441 -0.63302 0.17365
endloop
endfacet
facet normal -0.7711921042138633 -0.5693945826213621 0.2846972913106811
outer loop
vertex 0 0 3.5
vertex -0.71985 -0.60402 0.34202
vertex 0 -1.5 0.5
endloop
endfacet
facet normal -0.774824759291728 -0.576947172876468 -0.2584154641238924
outer loop
vertex -0.75441 -0.63302 -0.17365
vertex -0.71985 -0.60402 -0.34202
vertex 0 -1.5 -0.5
endloop
endfacet
facet normal -0.6708453835524039 -0.47178138711002565 -0.5721789878551716
outer loop
vertex -0.58682 -0.4924 -0.64279
vertex 0 -1.5 -0.5
vertex -0.66341 -0.55667 -0.5
endloop
endfacet
facet normal -0.7418091673309121 -0.5216876593546268 -0.4213800485795572
outer loop
vertex -0.71985 -0.60402 -0.34202
vertex -0.66341 -0.55667 -0.5
vertex 0 -1.5 -0.5
endloop
endfacet
facet normal -0.3833105261922627 0.8219547506013092 -0.42126408400687354
outer loop
vertex -0.2962 0.8138 -0.5
vertex -0.43301 0.75 -0.5
vertex -0.32139 0.88302 -0.34202
endloop
endfacet
facet normal -0.38324164587898635 0.821959762311387 -0.4213169709434617
outer loop
vertex -0.32139 0.88302 -0.34202
vertex -0.43301 0.75 -0.5
vertex -0.46985 0.8138 -0.34202
endloop
endfacet
facet normal -0.9439299430159623 0.2529329194149875 0.21218199959962133
outer loop
vertex 0 1 3.5
vertex -0.92542 0.33682 0.17365
vertex -0.96985 0.17101 0.17365
endloop
endfacet
facet normal -0.5728721819385397 0.8180859971897606 0.05052488855021628
outer loop
vertex 0 1 3.5
vertex -0.5 0.86603 0
vertex -0.64279 0.76604 0
endloop
endfacet
facet normal -0.4224446930985875 0.9060251509057127 0.02566918773784462
outer loop
vertex 0 1 3.5
vertex -0.34202 0.93969 0
vertex -0.5 0.86603 0
endloop
endfacet
facet normal -0.813082262737711 0.5693079191377821 0.12159657572617844
outer loop
vertex 0 1 3.5
vertex -0.75441 0.63302 0.17365
vertex -0.85287 0.4924 0.17365
endloop
endfacet
facet normal -0.7188705397144878 0.689684731014462 0.08694894442205965
outer loop
vertex 0 1 3.5
vertex -0.76604 0.64279 0
vertex -0.75441 0.63302 0.17365
endloop
endfacet
facet normal 0.5668837856869601 0.8096201294261666 -0.15217759215199217
outer loop
vertex 1 1 2.5
vertex 0.63302 0.75441 -0.17365
vertex 0.4924 0.85287 -0.17365
endloop
endfacet
facet normal 0.08708915194096681 0.995591259680636 -0.0348356607763866
outer loop
vertex 1 1 2.5
vertex 0.17365 0.98481 0
vertex 0 1 0
endloop
endfacet
facet normal 0.3119427796897907 -0.14543473293329265 -0.9389038505917572
outer loop
vertex 0.32139 -0.11698 -0.93969
vertex 1 -1.5 -0.5
vertex 0.2962 -0.17101 -0.93969
endloop
endfacet
facet normal 0.6460639874568347 0.05654941011873509 -0.7611855807400704
outer loop
vertex 0.63302 0.11162 -0.76604
vertex 1 -0.5 -0.5
vertex 0.64279 0 -0.76604
endloop
endfacet
facet normal 0.5973131608057796 0 -0.8020080971712249
outer loop
vertex 0.64279 0 -0.76604
vertex 1 -0.5 -0.5
vertex 1 -1.5 -0.5
endloop
endfacet
facet normal -0.2569240027596094 -0.3669094730347728 -0.8940735402657466
outer loop
vertex 0 -1.5 -0.5
vertex -0.32139 -0.38302 -0.86603
vertex -0.25 -0.43301 -0.86603
endloop
endfacet
facet normal -0.21813523258663345 -0.3620124219793476 -0.9062913585801323
outer loop
vertex 0 -1.5 -0.5
vertex -0.25 -0.43301 -0.86603
vertex -0.17101 -0.2962 -0.93969
endloop
endfacet
facet normal -0.7044372306064096 0.7044372306064096 -0.08681230483718443
outer loop
vertex -0.76604 0.64279 0
vertex -0.63302 0.75441 -0.17365
vertex -0.75441 0.63302 -0.17365
endloop
endfacet
facet normal -0.7044372306064094 0.7044372306064096 -0.08681230483718448
outer loop
vertex -0.64279 0.76604 0
vertex -0.63302 0.75441 -0.17365
vertex -0.76604 0.64279 0
endloop
endfacet
facet normal -0.5714396653545774 0.8160403021900197 -0.0868039979555673
outer loop
vertex -0.64279 0.76604 0
vertex -0.5 0.86603 0
vertex -0.63302 0.75441 -0.17365
endloop
endfacet
facet normal -0.571396568683935 0.8160652598855886 -0.08685305351046493
outer loop
vertex -0.5 0.86603 0
vertex -0.4924 0.85287 -0.17365
vertex -0.63302 0.75441 -0.17365
endloop
endfacet
facet normal -0.8160403021900206 -0.5714396653545762 0.08680399795556638
outer loop
vertex -0.75441 -0.63302 0.17365
vertex -0.86603 -0.5 0
vertex -0.76604 -0.64279 0
endloop
endfacet
facet normal -0.8160652598855871 -0.5713965686839375 0.08685305351046459
outer loop
vertex -0.75441 -0.63302 0.17365
vertex -0.85287 -0.4924 0.17365
vertex -0.86603 -0.5 0
endloop
endfacet
facet normal -0.8160652598855871 -0.5713965686839375 -0.08685305351046442
outer loop
vertex -0.86603 -0.5 0
vertex -0.85287 -0.4924 -0.17365
vertex -0.75441 -0.63302 -0.17365
endloop
endfacet
facet normal -0.8160403021900206 -0.5714396653545762 -0.08680399795556638
outer loop
vertex -0.86603 -0.5 0
vertex -0.75441 -0.63302 -0.17365
vertex -0.76604 -0.64279 0
endloop
endfacet
facet normal -0.7914551351131712 -0.5541649310428302 0.2578759358786453
outer loop
vertex -0.8138 -0.46985 0.34202
vertex -0.85287 -0.4924 0.17365
vertex -0.75441 -0.63302 0.17365
endloop
endfacet
facet normal -0.7914318881679657 -0.5541851821821594 0.2579037615867889
outer loop
vertex -0.8138 -0.46985 0.34202
vertex -0.75441 -0.63302 0.17365
vertex -0.71985 -0.60402 0.34202
endloop
endfacet
facet normal -0.785364182523607 -0.5499363862867479 0.2842060376679206
outer loop
vertex 0 0 3.5
vertex -0.8138 -0.46985 0.34202
vertex -0.71985 -0.60402 0.34202
endloop
endfacet
facet normal -0.8689527950403645 -0.4051523135706187 0.2842052828501142
outer loop
vertex 0 0 3.5
vertex -0.88302 -0.32139 0.34202
vertex -0.8138 -0.46985 0.34202
endloop
endfacet
facet normal -0.09544526199842066 -0.35623413081587035 -0.9295092500905594
outer loop
vertex 0 -1.5 -0.5
vertex -0.11698 -0.32139 -0.93969
vertex -0.05939 -0.33682 -0.93969
endloop
endfacet
facet normal -0.1674385708590333 -0.35913878457775067 -0.9181414152518665
outer loop
vertex 0 -1.5 -0.5
vertex -0.17101 -0.2962 -0.93969
vertex -0.11698 -0.32139 -0.93969
endloop
endfacet
facet normal -0.2431581512329764 -0.3472469036905919 -0.9057006687456169
outer loop
vertex -0.17101 -0.2962 -0.93969
vertex -0.25 -0.43301 -0.86603
vertex -0.21985 -0.262 -0.93969
endloop
endfacet
facet normal -0.24315591445578766 -0.3472474641528059 -0.9057010543797636
outer loop
vertex -0.21985 -0.262 -0.93969
vertex -0.25 -0.43301 -0.86603
vertex -0.32139 -0.38302 -0.86603
endloop
endfacet
facet normal -0.2997566428030408 -0.2997566428030408 -0.905699679911007
outer loop
vertex -0.21985 -0.262 -0.93969
vertex -0.38302 -0.32139 -0.86603
vertex -0.262 -0.21985 -0.93969
endloop
endfacet
facet normal -0.29975664280304054 -0.2997566428030415 -0.9056996799110066
outer loop
vertex -0.21985 -0.262 -0.93969
vertex -0.32139 -0.38302 -0.86603
vertex -0.38302 -0.32139 -0.86603
endloop
endfacet
facet normal -0.38563258148839724 -0.3856325814883989 -0.8381974851961725
outer loop
vertex 0 -1.5 -0.5
vertex -0.38302 -0.32139 -0.86603
vertex -0.32139 -0.38302 -0.86603
endloop
endfacet
facet normal -0.7914318881679658 -0.5541851821821596 -0.2579037615867888
outer loop
vertex -0.75441 -0.63302 -0.17365
vertex -0.8138 -0.46985 -0.34202
vertex -0.71985 -0.60402 -0.34202
endloop
endfacet
facet normal -0.7914551351131712 -0.5541649310428302 -0.2578759358786451
outer loop
vertex -0.75441 -0.63302 -0.17365
vertex -0.85287 -0.4924 -0.17365
vertex -0.8138 -0.46985 -0.34202
endloop
endfacet
facet normal -0.7428916774648772 -0.5201923851826288 -0.4213215374882093
outer loop
vertex -0.8138 -0.46985 -0.34202
vertex -0.75 -0.43301 -0.5
vertex -0.66341 -0.55667 -0.5
endloop
endfacet
facet normal -0.7428909410283836 -0.5201953037908366 -0.4213192324733373
outer loop
vertex -0.71985 -0.60402 -0.34202
vertex -0.8138 -0.46985 -0.34202
vertex -0.66341 -0.55667 -0.5
endloop
endfacet
facet normal -0.8756596829134601 -0.408279423759059 -0.25793028487339204
outer loop
vertex -0.92542 -0.33682 -0.17365
vertex -0.88302 -0.32139 -0.34202
vertex -0.8138 -0.46985 -0.34202
endloop
endfacet
facet normal -0.8756493255366595 -0.408332424268444 -0.25788154253115664
outer loop
vertex -0.92542 -0.33682 -0.17365
vertex -0.8138 -0.46985 -0.34202
vertex -0.85287 -0.4924 -0.17365
endloop
endfacet
facet normal -0.9028789925119189 -0.42103015109101116 -0.08685123345665698
outer loop
vertex -0.86603 -0.5 0
vertex -0.92542 -0.33682 -0.17365
vertex -0.85287 -0.4924 -0.17365
endloop
endfacet
facet normal -0.9029027674492407 -0.4209888457419359 -0.08680428729835156
outer loop
vertex -0.93969 -0.34202 0
vertex -0.92542 -0.33682 -0.17365
vertex -0.86603 -0.5 0
endloop
endfacet
facet normal -0.6718452093767817 -0.4704390618592758 -0.5721110938571571
outer loop
vertex -0.66341 -0.38302 -0.64279
vertex -0.58682 -0.4924 -0.64279
vertex -0.66341 -0.55667 -0.5
endloop
endfacet
facet normal -0.671841520028457 -0.4704411872817739 -0.5721136786293153
outer loop
vertex -0.66341 -0.38302 -0.64279
vertex -0.66341 -0.55667 -0.5
vertex -0.75 -0.43301 -0.5
endloop
endfacet
facet normal -0.8170722205450455 -0.0714370013903096 -0.5720924236921421
outer loop
vertex -0.76604 0 -0.64279
vertex -0.75441 -0.13302 -0.64279
vertex -0.85287 -0.15038 -0.5
endloop
endfacet
facet normal -0.8170356961580818 -0.07150013141002999 -0.5721366990604843
outer loop
vertex -0.86603 0 -0.5
vertex -0.76604 0 -0.64279
vertex -0.85287 -0.15038 -0.5
endloop
endfacet
facet normal -0.47107128434786594 0.3298620745839732 -0.8180970949795687
outer loop
vertex -0.38302 0.32139 -0.86603
vertex -0.43301 0.25 -0.86603
vertex -0.55667 0.32139 -0.76604
endloop
endfacet
facet normal -0.4710751581811892 0.32983985637111757 -0.8181038225638896
outer loop
vertex -0.4924 0.41318 -0.76604
vertex -0.38302 0.32139 -0.86603
vertex -0.55667 0.32139 -0.76604
endloop
endfacet
facet normal -0.40663355584477934 0.4066335558447786 -0.8181065349464346
outer loop
vertex -0.38302 0.32139 -0.86603
vertex -0.4924 0.41318 -0.76604
vertex -0.41318 0.4924 -0.76604
endloop
endfacet
facet normal -0.40663355584477723 0.40663355584477817 -0.8181065349464358
outer loop
vertex -0.41318 0.4924 -0.76604
vertex -0.32139 0.38302 -0.86603
vertex -0.38302 0.32139 -0.86603
endloop
endfacet
facet normal -0.9029027674492407 0.4209888457419359 0.08680428729835156
outer loop
vertex -0.92542 0.33682 0.17365
vertex -0.86603 0.5 0
vertex -0.93969 0.34202 0
endloop
endfacet
facet normal -0.9028789925119189 0.42103015109101116 0.08685123345665674
outer loop
vertex -0.85287 0.4924 0.17365
vertex -0.86603 0.5 0
vertex -0.92542 0.33682 0.17365
endloop
endfacet
facet normal -0.8160652598855871 0.5713965686839375 0.08685305351046442
outer loop
vertex -0.85287 0.4924 0.17365
vertex -0.75441 0.63302 0.17365
vertex -0.86603 0.5 0
endloop
endfacet
facet normal -0.8160403021900206 0.5714396653545762 0.08680399795556638
outer loop
vertex -0.75441 0.63302 0.17365
vertex -0.76604 0.64279 0
vertex -0.86603 0.5 0
endloop
endfacet
facet normal -0.9622765128263543 0.2578490167352691 0.0868204896980325
outer loop
vertex -0.92542 0.33682 0.17365
vertex -0.98481 0.17365 0
vertex -0.96985 0.17101 0.17365
endloop
endfacet
facet normal -0.9622726063006509 0.2578709983743263 0.08679849860902264
outer loop
vertex -0.92542 0.33682 0.17365
vertex -0.93969 0.34202 0
vertex -0.98481 0.17365 0
endloop
endfacet
facet normal -0.40827942375905824 0.8756596829134604 -0.2579302848733922
outer loop
vertex -0.33682 0.92542 -0.17365
vertex -0.32139 0.88302 -0.34202
vertex -0.46985 0.8138 -0.34202
endloop
endfacet
facet normal -0.40833242426844485 0.8756493255366591 -0.2578815425311566
outer loop
vertex -0.33682 0.92542 -0.17365
vertex -0.46985 0.8138 -0.34202
vertex -0.4924 0.85287 -0.17365
endloop
endfacet
facet normal -0.4210301510910125 0.9028789925119184 -0.08685123345665603
outer loop
vertex -0.5 0.86603 0
vertex -0.33682 0.92542 -0.17365
vertex -0.4924 0.85287 -0.17365
endloop
endfacet
facet normal -0.4209888457419363 0.9029027674492405 -0.08680428729835153
outer loop
vertex -0.34202 0.93969 0
vertex -0.33682 0.92542 -0.17365
vertex -0.5 0.86603 0
endloop
endfacet
facet normal -0.8756493255366595 -0.408332424268444 0.25788154253115664
outer loop
vertex -0.8138 -0.46985 0.34202
vertex -0.92542 -0.33682 0.17365
vertex -0.85287 -0.4924 0.17365
endloop
endfacet
facet normal -0.8756596829134602 -0.4082794237590591 0.257930284873392
outer loop
vertex -0.8138 -0.46985 0.34202
vertex -0.88302 -0.32139 0.34202
vertex -0.92542 -0.33682 0.17365
endloop
endfacet
facet normal -0.9622765128263543 -0.2578490167352691 0.08682048969803247
outer loop
vertex -0.96985 -0.17101 0.17365
vertex -0.98481 -0.17365 0
vertex -0.92542 -0.33682 0.17365
endloop
endfacet
facet normal -0.9622726063006509 -0.2578709983743263 0.08679849860902264
outer loop
vertex -0.92542 -0.33682 0.17365
vertex -0.98481 -0.17365 0
vertex -0.93969 -0.34202 0
endloop
endfacet
facet normal -0.9029027674492407 -0.4209888457419359 0.08680428729835156
outer loop
vertex -0.92542 -0.33682 0.17365
vertex -0.93969 -0.34202 0
vertex -0.86603 -0.5 0
endloop
endfacet
facet normal -0.9028789925119189 -0.42103015109101116 0.0868512334566568
outer loop
vertex -0.92542 -0.33682 0.17365
vertex -0.86603 -0.5 0
vertex -0.85287 -0.4924 0.17365
endloop
endfacet
facet normal -0.9551182736010099 -0.08352456038905738 0.284205438451204
outer loop
vertex -0.93969 0 0.34202
vertex -0.92542 -0.16318 0.34202
vertex 0 0 3.5
endloop
endfacet
facet normal -0.933248725784023 -0.25007080927919995 0.2578980538293061
outer loop
vertex -0.92542 -0.16318 0.34202
vertex -0.96985 -0.17101 0.17365
vertex -0.92542 -0.33682 0.17365
endloop
endfacet
facet normal -0.9332303291769029 -0.25010407658871575 0.25793236240936346
outer loop
vertex -0.92542 -0.16318 0.34202
vertex -0.92542 -0.33682 0.17365
vertex -0.88302 -0.32139 0.34202
endloop
endfacet
facet normal -0.9260829778397066 -0.24818859907972687 0.2842054493537803
outer loop
vertex 0 0 3.5
vertex -0.92542 -0.16318 0.34202
vertex -0.88302 -0.32139 0.34202
endloop
endfacet
facet normal -0.9624952352184967 -0.08419933757598112 0.2579019071923604
outer loop
vertex -0.98481 0 0.17365
vertex -0.96985 -0.17101 0.17365
vertex -0.92542 -0.16318 0.34202
endloop
endfacet
facet normal -0.9624905016289854 -0.08416925761886039 0.25792939023281913
outer loop
vertex -0.98481 0 0.17365
vertex -0.92542 -0.16318 0.34202
vertex -0.93969 0 0.34202
endloop
endfacet
facet normal -0.9924339456317911 0.08681838387609785 0.08681838387609829
outer loop
vertex -0.98481 0.17365 0
vertex -0.98481 0 0.17365
vertex -0.96985 0.17101 0.17365
endloop
endfacet
facet normal -0.9924348791411948 0.08681304816674239 0.08681304816674221
outer loop
vertex -0.98481 0 0.17365
vertex -0.98481 0.17365 0
vertex -1 0 0
endloop
endfacet
facet normal -0.9924348791411948 -0.08681304816674239 0.08681304816674221
outer loop
vertex -1 0 0
vertex -0.98481 -0.17365 0
vertex -0.98481 0 0.17365
endloop
endfacet
facet normal -0.9924339456317911 -0.08681838387609785 0.08681838387609829
outer loop
vertex -0.98481 0 0.17365
vertex -0.98481 -0.17365 0
vertex -0.96985 -0.17101 0.17365
endloop
endfacet
facet normal -0.9619327002111656 0.09004654471501096 0.2580253864435496
outer loop
vertex 0 1 3.5
vertex -0.96985 0.17101 0.17365
vertex -0.92542 0.16318 0.34202
endloop
endfacet
facet normal -0.9624952352184967 0.08419933757598112 0.25790190719236034
outer loop
vertex -0.96985 0.17101 0.17365
vertex -0.98481 0 0.17365
vertex -0.92542 0.16318 0.34202
endloop
endfacet
facet normal -0.9624905016289854 0.08416925761886039 0.25792939023281913
outer loop
vertex -0.92542 0.16318 0.34202
vertex -0.98481 0 0.17365
vertex -0.93969 0 0.34202
endloop
endfacet
facet normal -0.9620381899533179 0.084129703215062 0.2596241785895323
outer loop
vertex 0 1 3.5
vertex -0.92542 0.16318 0.34202
vertex -0.93969 0 0.34202
endloop
endfacet
facet normal 0.5541649310428304 0.7914551351131718 -0.2578759358786432
outer loop
vertex 0.63302 0.75441 -0.17365
vertex 0.46985 0.8138 -0.34202
vertex 0.4924 0.85287 -0.17365
endloop
endfacet
facet normal 0.5541851821821601 0.7914318881679648 -0.25790376158679024
outer loop
vertex 0.63302 0.75441 -0.17365
vertex 0.60402 0.71985 -0.34202
vertex 0.46985 0.8138 -0.34202
endloop
endfacet
facet normal 0.41909464920866724 0.8987284014319025 -0.12902300362463076
outer loop
vertex 1 1 2.5
vertex 0.4924 0.85287 -0.17365
vertex 0.33682 0.92542 -0.17365
endloop
endfacet
facet normal 0.2555883078427141 -0.17897461359993727 -0.9500751047053337
outer loop
vertex 0.2962 -0.17101 -0.93969
vertex 1 -1.5 -0.5
vertex 0.262 -0.21985 -0.93969
endloop
endfacet
facet normal 0.2082089592991006 -0.20820895929909827 -0.9556662903624736
outer loop
vertex 1 -1.5 -0.5
vertex 0.21985 -0.262 -0.93969
vertex 0.262 -0.21985 -0.93969
endloop
endfacet
facet normal 0.6831857568511919 0.6831857568511921 -0.25790394194608224
outer loop
vertex 0.75441 0.63302 -0.17365
vertex 0.71985 0.60402 -0.34202
vertex 0.60402 0.71985 -0.34202
endloop
endfacet
facet normal 0.6831857568511915 0.6831857568511926 -0.2579039419460815
outer loop
vertex 0.75441 0.63302 -0.17365
vertex 0.60402 0.71985 -0.34202
vertex 0.63302 0.75441 -0.17365
endloop
endfacet
facet normal 0.6980059835976744 0.698005983597674 -0.159922774249594
outer loop
vertex 1 1 2.5
vertex 0.75441 0.63302 -0.17365
vertex 0.63302 0.75441 -0.17365
endloop
endfacet
facet normal 0.671842906456353 0.47044215809522416 -0.5721112522324553
outer loop
vertex 0.66341 0.55667 -0.5
vertex 0.75 0.43301 -0.5
vertex 0.58682 0.4924 -0.64279
endloop
endfacet
facet normal 0.6718436419348107 0.47043796430597246 -0.5721138370389431
outer loop
vertex 0.58682 0.4924 -0.64279
vertex 0.75 0.43301 -0.5
vertex 0.66341 0.38302 -0.64279
endloop
endfacet
facet normal 0.580316722406406 0.4063490379329566 -0.7057711818050145
outer loop
vertex 0.58682 0.4924 -0.64279
vertex 0.66341 0.38302 -0.64279
vertex 0.55667 0.32139 -0.76604
endloop
endfacet
facet normal 0.580332687574421 0.4063403620264517 -0.7057630494159223
outer loop
vertex 0.58682 0.4924 -0.64279
vertex 0.55667 0.32139 -0.76604
vertex 0.4924 0.41318 -0.76604
endloop
endfacet
facet normal 0.520192385182628 0.7428916774648786 -0.4213215374882074
outer loop
vertex 0.46985 0.8138 -0.34202
vertex 0.55667 0.66341 -0.5
vertex 0.43301 0.75 -0.5
endloop
endfacet
facet normal 0.5201953037908364 0.7428909410283825 -0.42131923247333936
outer loop
vertex 0.46985 0.8138 -0.34202
vertex 0.60402 0.71985 -0.34202
vertex 0.55667 0.66341 -0.5
endloop
endfacet
facet normal 0.6412858852161254 0.6412858852161264 -0.4213132170311531
outer loop
vertex 0.71985 0.60402 -0.34202
vertex 0.55667 0.66341 -0.5
vertex 0.60402 0.71985 -0.34202
endloop
endfacet
facet normal 0.6412858852161261 0.6412858852161251 -0.4213132170311546
outer loop
vertex 0.71985 0.60402 -0.34202
vertex 0.66341 0.55667 -0.5
vertex 0.55667 0.66341 -0.5
endloop
endfacet
facet normal 0.5799513860376764 0.579951386037678 -0.5721125585633952
outer loop
vertex 0.55667 0.66341 -0.5
vertex 0.66341 0.55667 -0.5
vertex 0.58682 0.4924 -0.64279
endloop
endfacet
facet normal 0.5799513860376774 0.5799513860376767 -0.5721125585633954
outer loop
vertex 0.55667 0.66341 -0.5
vertex 0.58682 0.4924 -0.64279
vertex 0.4924 0.58682 -0.64279
endloop
endfacet
facet normal 0.47043906185927753 0.671845209376781 -0.5721110938571564
outer loop
vertex 0.55667 0.66341 -0.5
vertex 0.4924 0.58682 -0.64279
vertex 0.38302 0.66341 -0.64279
endloop
endfacet
facet normal 0.47044118728177325 0.6718415200284573 -0.5721136786293156
outer loop
vertex 0.55667 0.66341 -0.5
vertex 0.38302 0.66341 -0.64279
vertex 0.43301 0.75 -0.5
endloop
endfacet
facet normal 0.5735831664103626 -0.008682713704297873 -0.8191013134487037
outer loop
vertex 0.64279 0 -0.76604
vertex 1 -1.5 -0.5
vertex 0.5 0 -0.86603
endloop
endfacet
facet normal 0.8760368333092639 0.23471923657518026 -0.42126754760726776
outer loop
vertex 0.88302 0.32139 -0.34202
vertex 0.85287 0.15038 -0.5
vertex 0.8138 0.2962 -0.5
endloop
endfacet
facet normal 0.876002290115122 0.23476706340232326 -0.4213127266704758
outer loop
vertex 0.88302 0.32139 -0.34202
vertex 0.92542 0.16318 -0.34202
vertex 0.85287 0.15038 -0.5
endloop
endfacet
facet normal 0.8841445998316428 0.20001260028480142 -0.42223605520591934
outer loop
vertex 0.92542 0.16318 -0.34202
vertex 1 -0.5 -0.5
vertex 0.85287 0.15038 -0.5
endloop
endfacet
facet normal 0.329855898646592 0.4710624645805209 -0.8181046635922415
outer loop
vertex 0.41318 0.4924 -0.76604
vertex 0.32139 0.38302 -0.86603
vertex 0.25 0.43301 -0.86603
endloop
endfacet
facet normal 0.32984465960428694 0.4710820181278589 -0.8180979359020017
outer loop
vertex 0.41318 0.4924 -0.76604
vertex 0.25 0.43301 -0.86603
vertex 0.32139 0.55667 -0.76604
endloop
endfacet
facet normal 0.4063353088126126 0.5803254706069653 -0.7057718930199494
outer loop
vertex 0.41318 0.4924 -0.76604
vertex 0.32139 0.55667 -0.76604
vertex 0.38302 0.66341 -0.64279
endloop
endfacet
facet normal 0.40635327858252823 0.5803227785788853 -0.7057637605089342
outer loop
vertex 0.4924 0.58682 -0.64279
vertex 0.41318 0.4924 -0.76604
vertex 0.38302 0.66341 -0.64279
endloop
endfacet
facet normal 0.5009501458278851 0.5009501458278857 -0.7057605137651447
outer loop
vertex 0.4924 0.58682 -0.64279
vertex 0.58682 0.4924 -0.64279
vertex 0.41318 0.4924 -0.76604
endloop
endfacet
facet normal 0.5009501458278857 0.5009501458278857 -0.7057605137651439
outer loop
vertex 0.41318 0.4924 -0.76604
vertex 0.58682 0.4924 -0.64279
vertex 0.4924 0.41318 -0.76604
endloop
endfacet
facet normal 0.07143414663994255 0.8170395688774836 -0.5721394109675707
outer loop
vertex 0.13302 0.75441 -0.64279
vertex 0 0.76604 -0.64279
vertex 0 0.86603 -0.5
endloop
endfacet
facet normal 0.07150265891441326 0.8170645780812698 -0.5720951363305282
outer loop
vertex 0.15038 0.85287 -0.5
vertex 0.13302 0.75441 -0.64279
vertex 0 0.86603 -0.5
endloop
endfacet
facet normal -0.18335187013262833 0.6842818242915301 -0.705790674820179
outer loop
vertex -0.11162 0.63302 -0.76604
vertex -0.21985 0.60402 -0.76604
vertex -0.13302 0.75441 -0.64279
endloop
endfacet
facet normal -0.18335232632579598 0.6842819169415825 -0.7057904664825619
outer loop
vertex -0.13302 0.75441 -0.64279
vertex -0.21985 0.60402 -0.76604
vertex -0.262 0.71985 -0.64279
endloop
endfacet
facet normal -0.5541607709560225 0.7914491937013597 -0.25790310917647846
outer loop
vertex -0.4924 0.85287 -0.17365
vertex -0.60402 0.71985 -0.34202
vertex -0.63302 0.75441 -0.17365
endloop
endfacet
facet normal -0.5541895423565251 0.7914381149332085 -0.2578752825953562
outer loop
vertex -0.4924 0.85287 -0.17365
vertex -0.46985 0.8138 -0.34202
vertex -0.60402 0.71985 -0.34202
endloop
endfacet
facet normal -0.5201947146199796 0.7428900996334518 -0.42132144349420214
outer loop
vertex -0.46985 0.8138 -0.34202
vertex -0.43301 0.75 -0.5
vertex -0.60402 0.71985 -0.34202
endloop
endfacet
facet normal -0.5201930244263235 0.7428925903748599 -0.42131913854502856
outer loop
vertex -0.60402 0.71985 -0.34202
vertex -0.43301 0.75 -0.5
vertex -0.55667 0.66341 -0.5
endloop
endfacet
facet normal -0.40634036202645296 0.5803326875744215 -0.705763049415921
outer loop
vertex -0.32139 0.55667 -0.76604
vertex -0.41318 0.4924 -0.76604
vertex -0.4924 0.58682 -0.64279
endloop
endfacet
facet normal -0.406349037932956 0.5803167224064065 -0.7057711818050145
outer loop
vertex -0.32139 0.55667 -0.76604
vertex -0.4924 0.58682 -0.64279
vertex -0.38302 0.66341 -0.64279
endloop
endfacet
facet normal -0.2994319785109381 0.6420492211090305 -0.7057714133615162
outer loop
vertex -0.262 0.71985 -0.64279
vertex -0.32139 0.55667 -0.76604
vertex -0.38302 0.66341 -0.64279
endloop
endfacet
facet normal -0.29939915819583734 0.6420483743021204 -0.7057861072078626
outer loop
vertex -0.21985 0.60402 -0.76604
vertex -0.32139 0.55667 -0.76604
vertex -0.262 0.71985 -0.64279
endloop
endfacet
facet normal 0.0792447877627009 -0.29576845931651385 -0.9519670593492089
outer loop
vertex 1 -1.5 -0.5
vertex 0.05939 -0.33682 -0.93969
vertex 0.11698 -0.32139 -0.93969
endloop
endfacet
facet normal -0.05016358081626086 -0.07166225830894668 -0.9961667209326721
outer loop
vertex 0 0 -1
vertex -0.08682 -0.15038 -0.98481
vertex -0.11162 -0.13302 -0.98481
endloop
endfacet
facet normal -0.14895933453858243 -0.21279904934083607 -0.9656747284947759
outer loop
vertex -0.08682 -0.15038 -0.98481
vertex -0.17101 -0.2962 -0.93969
vertex -0.11162 -0.13302 -0.98481
endloop
endfacet
facet normal -0.14900055635974535 -0.21278325066111495 -0.9656718502900329
outer loop
vertex -0.11162 -0.13302 -0.98481
vertex -0.17101 -0.2962 -0.93969
vertex -0.21985 -0.262 -0.93969
endloop
endfacet
facet normal 0.18335187013262833 0.6842818242915301 -0.705790674820179
outer loop
vertex 0.21985 0.60402 -0.76604
vertex 0.11162 0.63302 -0.76604
vertex 0.13302 0.75441 -0.64279
endloop
endfacet
facet normal 0.18335232632579482 0.6842819169415826 -0.705790466482562
outer loop
vertex 0.262 0.71985 -0.64279
vertex 0.21985 0.60402 -0.76604
vertex 0.13302 0.75441 -0.64279
endloop
endfacet
facet normal 0.2994263331177014 0.6420371161216198 -0.705784820294345
outer loop
vertex 0.38302 0.66341 -0.64279
vertex 0.21985 0.60402 -0.76604
vertex 0.262 0.71985 -0.64279
endloop
endfacet
facet normal 0.29940588616447084 0.6420628021360182 -0.7057701279051928
outer loop
vertex 0.38302 0.66341 -0.64279
vertex 0.32139 0.55667 -0.76604
vertex 0.21985 0.60402 -0.76604
endloop
endfacet
facet normal -0.0617709505074249 0.7057188838934261 -0.705794025612024
outer loop
vertex 0 0.64279 -0.76604
vertex -0.11162 0.63302 -0.76604
vertex -0.13302 0.75441 -0.64279
endloop
endfacet
facet normal -0.06170486540871247 0.705759346231027 -0.7057593462310267
outer loop
vertex 0 0.64279 -0.76604
vertex -0.13302 0.75441 -0.64279
vertex 0 0.76604 -0.64279
endloop
endfacet
facet normal 0.06170486540871247 0.705759346231027 -0.7057593462310267
outer loop
vertex 0.13302 0.75441 -0.64279
vertex 0 0.64279 -0.76604
vertex 0 0.76604 -0.64279
endloop
endfacet
facet normal 0.061770950507424684 0.7057188838934257 -0.7057940256120243
outer loop
vertex 0.13302 0.75441 -0.64279
vertex 0.11162 0.63302 -0.76604
vertex 0 0.64279 -0.76604
endloop
endfacet
facet normal 0.0076301258765472954 0.08713950574918614 -0.9961668975211412
outer loop
vertex 0.03015 0.17101 -0.98481
vertex 0 0 -1
vertex 0 0.17365 -0.98481
endloop
endfacet
facet normal 0.022658084241419487 0.2587814659804086 -0.9656701114166988
outer loop
vertex 0.05939 0.33682 -0.93969
vertex 0 0.17365 -0.98481
vertex 0 0.34202 -0.93969
endloop
endfacet
facet normal 0.022659430975663912 0.2587810014834281 -0.9656702042929008
outer loop
vertex 0.05939 0.33682 -0.93969
vertex 0.03015 0.17101 -0.98481
vertex 0 0.17365 -0.98481
endloop
endfacet
facet normal -0.8219315761348845 -0.3832997190074223 -0.42131913030534907
outer loop
vertex -0.8138 -0.2962 -0.5
vertex -0.75 -0.43301 -0.5
vertex -0.8138 -0.46985 -0.34202
endloop
endfacet
facet normal -0.8219811196412317 -0.3832516038095524 -0.42126624257202605
outer loop
vertex -0.8138 -0.2962 -0.5
vertex -0.8138 -0.46985 -0.34202
vertex -0.88302 -0.32139 -0.34202
endloop
endfacet
facet normal -0.8760217352957703 -0.234772274676321 -0.4212693892661714
outer loop
vertex -0.92542 -0.16318 -0.34202
vertex -0.8138 -0.2962 -0.5
vertex -0.88302 -0.32139 -0.34202
endloop
endfacet
facet normal -0.8760157352275905 -0.23471358370142706 -0.42131456806013384
outer loop
vertex -0.85287 -0.15038 -0.5
vertex -0.8138 -0.2962 -0.5
vertex -0.92542 -0.16318 -0.34202
endloop
endfacet
facet normal -0.4204439065923541 -0.39091703537256456 -0.8187861704162357
outer loop
vertex -0.38302 -0.32139 -0.86603
vertex 0 -1.5 -0.5
vertex -0.4924 -0.41318 -0.76604
endloop
endfacet
facet normal -0.5632385580982695 -0.4281755282511788 -0.7067022312673185
outer loop
vertex -0.4924 -0.41318 -0.76604
vertex 0 -1.5 -0.5
vertex -0.58682 -0.4924 -0.64279
endloop
endfacet
facet normal -0.7057188838934262 -0.06177095050742356 -0.7057940256120239
outer loop
vertex -0.64279 0 -0.76604
vertex -0.63302 -0.11162 -0.76604
vertex -0.75441 -0.13302 -0.64279
endloop
endfacet
facet normal -0.7057593462310272 -0.06170486540871241 -0.7057593462310263
outer loop
vertex -0.76604 0 -0.64279
vertex -0.64279 0 -0.76604
vertex -0.75441 -0.13302 -0.64279
endloop
endfacet
facet normal -0.34724610227623665 -0.2431575900460147 -0.9057011266731291
outer loop
vertex -0.2962 -0.17101 -0.93969
vertex -0.262 -0.21985 -0.93969
vertex -0.38302 -0.32139 -0.86603
endloop
endfacet
facet normal -0.3472480124278535 -0.24315629837888109 -0.9057007410969617
outer loop
vertex -0.2962 -0.17101 -0.93969
vertex -0.38302 -0.32139 -0.86603
vertex -0.43301 -0.25 -0.86603
endloop
endfacet
facet normal -0.07926798528832786 -0.03698979991580606 -0.9961668239860823
outer loop
vertex 0 0 -1
vertex -0.15038 -0.08682 -0.98481
vertex -0.16318 -0.05939 -0.98481
endloop
endfacet
facet normal -0.08449555701641993 0.022626546218829258 -0.9961669238891101
outer loop
vertex -0.16318 0.05939 -0.98481
vertex 0 0 -1
vertex -0.17101 0.03015 -0.98481
endloop
endfacet
facet normal -0.08713950574918544 0.007630125876545644 -0.9961668975211412
outer loop
vertex -0.17101 0.03015 -0.98481
vertex 0 0 -1
vertex -0.17365 0 -0.98481
endloop
endfacet
facet normal -0.8160368267234431 0.5714372316274047 -0.08685267837632446
outer loop
vertex -0.76604 0.64279 0
vertex -0.85287 0.4924 -0.17365
vertex -0.86603 0.5 0
endloop
endfacet
facet normal -0.8160687892304935 0.5713990398779301 -0.08680362014602899
outer loop
vertex -0.76604 0.64279 0
vertex -0.75441 0.63302 -0.17365
vertex -0.85287 0.4924 -0.17365
endloop
endfacet
facet normal -0.9034864696558631 -0.0790655801347995 -0.4212610036387573
outer loop
vertex -0.86603 0 -0.5
vertex -0.85287 -0.15038 -0.5
vertex -0.93969 0 -0.34202
endloop
endfacet
facet normal -0.9034701233656427 -0.07900795845340972 -0.4213068699732946
outer loop
vertex -0.93969 0 -0.34202
vertex -0.85287 -0.15038 -0.5
vertex -0.92542 -0.16318 -0.34202
endloop
endfacet
facet normal -0.08419871320325817 0.9624880979204024 -0.25792874608403266
outer loop
vertex 0 0.93969 -0.34202
vertex -0.17101 0.96985 -0.17365
vertex 0 0.98481 -0.17365
endloop
endfacet
facet normal -0.08416991172433246 0.9624979814419445 -0.2579012634333149
outer loop
vertex 0 0.93969 -0.34202
vertex -0.16318 0.92542 -0.34202
vertex -0.17101 0.96985 -0.17365
endloop
endfacet
facet normal -0.2501065030558458 0.9332393832185235 -0.25789724841317313
outer loop
vertex -0.16318 0.92542 -0.34202
vertex -0.32139 0.88302 -0.34202
vertex -0.17101 0.96985 -0.17365
endloop
endfacet
facet normal -0.2500684943368418 0.9332400865629477 -0.2579315586974323
outer loop
vertex -0.17101 0.96985 -0.17365
vertex -0.32139 0.88302 -0.34202
vertex -0.33682 0.92542 -0.17365
endloop
endfacet
facet normal -0.25784951652689425 0.9622783780176537 -0.08679832963001302
outer loop
vertex -0.34202 0.93969 0
vertex -0.17101 0.96985 -0.17365
vertex -0.33682 0.92542 -0.17365
endloop
endfacet
facet normal -0.257870506143767 0.9622707694908268 -0.08682032161129888
outer loop
vertex -0.17365 0.98481 0
vertex -0.17101 0.96985 -0.17365
vertex -0.34202 0.93969 0
endloop
endfacet
facet normal -0.08681300795818295 0.992434419482451 -0.0868183429684243
outer loop
vertex 0 1 0
vertex -0.17101 0.96985 -0.17365
vertex -0.17365 0.98481 0
endloop
endfacet
facet normal -0.08681842470789417 0.9924344123861636 -0.08681300733743647
outer loop
vertex 0 1 0
vertex 0 0.98481 -0.17365
vertex -0.17101 0.96985 -0.17365
endloop
endfacet
facet normal 0.4083270543959385 0.8756378101022767 -0.2579291417572387
outer loop
vertex 0.33682 0.92542 -0.17365
vertex 0.4924 0.85287 -0.17365
vertex 0.32139 0.88302 -0.34202
endloop
endfacet
facet normal 0.40828505065322795 0.8756717512276523 -0.25788040157210046
outer loop
vertex 0.4924 0.85287 -0.17365
vertex 0.46985 0.8138 -0.34202
vertex 0.32139 0.88302 -0.34202
endloop
endfacet
facet normal 0.8987284014319018 0.4190946492086681 -0.1290230036246312
outer loop
vertex 1 1 2.5
vertex 0.92542 0.33682 -0.17365
vertex 0.85287 0.4924 -0.17365
endloop
endfacet
facet normal 0.8096201294261669 0.5668837856869597 -0.1521775921519919
outer loop
vertex 1 1 2.5
vertex 0.85287 0.4924 -0.17365
vertex 0.75441 0.63302 -0.17365
endloop
endfacet
facet normal 0.5011044736479056 -0.043865399674315554 -0.8642743390853785
outer loop
vertex 0.5 0 -0.86603
vertex 1 -1.5 -0.5
vertex 0.4924 -0.08682 -0.86603
endloop
endfacet
facet normal 0.6982873875974769 0.1114126654722936 -0.7070940123453526
outer loop
vertex 0.75441 0.13302 -0.64279
vertex 1 -0.5 -0.5
vertex 0.63302 0.11162 -0.76604
endloop
endfacet
facet normal 0.7992756678580759 0.18081341525255784 -0.5731185877588799
outer loop
vertex 0.85287 0.15038 -0.5
vertex 1 -0.5 -0.5
vertex 0.75441 0.13302 -0.64279
endloop
endfacet
facet normal -0.07150013141003002 0.817035696158082 -0.5721366990604838
outer loop
vertex 0 0.86603 -0.5
vertex 0 0.76604 -0.64279
vertex -0.15038 0.85287 -0.5
endloop
endfacet
facet normal -0.071437001390309 0.8170722205450455 -0.5720924236921422
outer loop
vertex 0 0.76604 -0.64279
vertex -0.13302 0.75441 -0.64279
vertex -0.15038 0.85287 -0.5
endloop
endfacet
facet normal -0.21227986088342163 0.7922412169196664 -0.5720936242233096
outer loop
vertex -0.13302 0.75441 -0.64279
vertex -0.262 0.71985 -0.64279
vertex -0.15038 0.85287 -0.5
endloop
endfacet
facet normal -0.21226700952424168 0.7922389385417157 -0.5721015477395
outer loop
vertex -0.15038 0.85287 -0.5
vertex -0.262 0.71985 -0.64279
vertex -0.2962 0.8138 -0.5
endloop
endfacet
facet normal -0.234719236575182 0.8760368333092641 -0.42126754760726653
outer loop
vertex -0.15038 0.85287 -0.5
vertex -0.2962 0.8138 -0.5
vertex -0.32139 0.88302 -0.34202
endloop
endfacet
facet normal -0.2347670634023207 0.876002290115122 -0.4213127266704772
outer loop
vertex -0.15038 0.85287 -0.5
vertex -0.32139 0.88302 -0.34202
vertex -0.16318 0.92542 -0.34202
endloop
endfacet
facet normal -0.07900795845341212 0.9034701233656428 -0.42130686997329403
outer loop
vertex 0 0.93969 -0.34202
vertex -0.15038 0.85287 -0.5
vertex -0.16318 0.92542 -0.34202
endloop
endfacet
facet normal -0.079065580134799 0.9034864696558629 -0.42126100363875785
outer loop
vertex 0 0.86603 -0.5
vertex -0.15038 0.85287 -0.5
vertex 0 0.93969 -0.34202
endloop
endfacet
facet normal -0.791438114933208 0.5541895423565262 -0.2578752825953555
outer loop
vertex -0.85287 0.4924 -0.17365
vertex -0.71985 0.60402 -0.34202
vertex -0.8138 0.46985 -0.34202
endloop
endfacet
facet normal -0.7914491937013605 0.5541607709560206 -0.2579031091764798
outer loop
vertex -0.75441 0.63302 -0.17365
vertex -0.71985 0.60402 -0.34202
vertex -0.85287 0.4924 -0.17365
endloop
endfacet
facet normal -0.6831857568511914 0.6831857568511926 -0.25790394194608196
outer loop
vertex -0.63302 0.75441 -0.17365
vertex -0.71985 0.60402 -0.34202
vertex -0.75441 0.63302 -0.17365
endloop
endfacet
facet normal -0.683185756851192 0.683185756851192 -0.2579039419460822
outer loop
vertex -0.63302 0.75441 -0.17365
vertex -0.60402 0.71985 -0.34202
vertex -0.71985 0.60402 -0.34202
endloop
endfacet
facet normal -0.6412858852161254 0.6412858852161264 -0.4213132170311531
outer loop
vertex -0.60402 0.71985 -0.34202
vertex -0.55667 0.66341 -0.5
vertex -0.71985 0.60402 -0.34202
endloop
endfacet
facet normal -0.6412858852161261 0.6412858852161251 -0.4213132170311546
outer loop
vertex -0.71985 0.60402 -0.34202
vertex -0.55667 0.66341 -0.5
vertex -0.66341 0.55667 -0.5
endloop
endfacet
facet normal -0.7428925903748602 0.5201930244263236 -0.42131913854502767
outer loop
vertex -0.71985 0.60402 -0.34202
vertex -0.66341 0.55667 -0.5
vertex -0.75 0.43301 -0.5
endloop
endfacet
facet normal -0.7428900996334511 0.5201947146199803 -0.4213214434942024
outer loop
vertex -0.71985 0.60402 -0.34202
vertex -0.75 0.43301 -0.5
vertex -0.8138 0.46985 -0.34202
endloop
endfacet
facet normal -0.5799513860376764 0.579951386037678 -0.5721125585633952
outer loop
vertex -0.55667 0.66341 -0.5
vertex -0.58682 0.4924 -0.64279
vertex -0.66341 0.55667 -0.5
endloop
endfacet
facet normal -0.5799513860376774 0.5799513860376767 -0.5721125585633954
outer loop
vertex -0.55667 0.66341 -0.5
vertex -0.4924 0.58682 -0.64279
vertex -0.58682 0.4924 -0.64279
endloop
endfacet
facet normal -0.5009501458278851 0.5009501458278857 -0.7057605137651447
outer loop
vertex -0.41318 0.4924 -0.76604
vertex -0.58682 0.4924 -0.64279
vertex -0.4924 0.58682 -0.64279
endloop
endfacet
facet normal -0.5009501458278857 0.5009501458278857 -0.7057605137651439
outer loop
vertex -0.58682 0.4924 -0.64279
vertex -0.41318 0.4924 -0.76604
vertex -0.4924 0.41318 -0.76604
endloop
endfacet
facet normal -0.0369897999158017 -0.07926798528832521 -0.9961668239860826
outer loop
vertex 0 0 -1
vertex -0.05939 -0.16318 -0.98481
vertex -0.08682 -0.15038 -0.98481
endloop
endfacet
facet normal -0.10976877068948634 -0.2354429011652646 -0.9656694347820078
outer loop
vertex -0.05939 -0.16318 -0.98481
vertex -0.11698 -0.32139 -0.93969
vertex -0.17101 -0.2962 -0.93969
endloop
endfacet
facet normal -0.10984049805403383 -0.23538475481421167 -0.9656754538602993
outer loop
vertex -0.05939 -0.16318 -0.98481
vertex -0.17101 -0.2962 -0.93969
vertex -0.08682 -0.15038 -0.98481
endloop
endfacet
facet normal 0.036989799915799725 -0.07926798528832521 -0.9961668239860826
outer loop
vertex 0.08682 -0.15038 -0.98481
vertex 0.05939 -0.16318 -0.98481
vertex 0 0 -1
endloop
endfacet
facet normal 0.16524078928313524 -0.23597544294118117 -0.9576069506252549
outer loop
vertex 1 -1.5 -0.5
vertex 0.17101 -0.2962 -0.93969
vertex 0.21985 -0.262 -0.93969
endloop
endfacet
facet normal 0.12329362352107362 -0.2644523413594105 -0.9564850451254162
outer loop
vertex 1 -1.5 -0.5
vertex 0.11698 -0.32139 -0.93969
vertex 0.17101 -0.2962 -0.93969
endloop
endfacet
facet normal 0.109768770689489 -0.2354429011652645 -0.9656694347820075
outer loop
vertex 0.17101 -0.2962 -0.93969
vertex 0.11698 -0.32139 -0.93969
vertex 0.05939 -0.16318 -0.98481
endloop
endfacet
facet normal 0.10984049805403184 -0.23538475481421167 -0.9656754538602996
outer loop
vertex 0.17101 -0.2962 -0.93969
vertex 0.05939 -0.16318 -0.98481
vertex 0.08682 -0.15038 -0.98481
endloop
endfacet
facet normal -0.07166225830894671 -0.05016358081626266 -0.996166720932672
outer loop
vertex 0 0 -1
vertex -0.13302 -0.11162 -0.98481
vertex -0.15038 -0.08682 -0.98481
endloop
endfacet
facet normal -0.061853229922811837 -0.06185322992280825 -0.9961668313571937
outer loop
vertex 0 0 -1
vertex -0.11162 -0.13302 -0.98481
vertex -0.13302 -0.11162 -0.98481
endloop
endfacet
facet normal -0.18368160766947197 -0.18368160766947197 -0.9656718562782682
outer loop
vertex -0.13302 -0.11162 -0.98481
vertex -0.11162 -0.13302 -0.98481
vertex -0.21985 -0.262 -0.93969
endloop
endfacet
facet normal -0.18368160766947367 -0.18368160766947164 -0.965671856278268
outer loop
vertex -0.13302 -0.11162 -0.98481
vertex -0.21985 -0.262 -0.93969
vertex -0.262 -0.21985 -0.93969
endloop
endfacet
facet normal -0.21278325066111586 -0.14900055635974896 -0.9656718502900321
outer loop
vertex -0.13302 -0.11162 -0.98481
vertex -0.262 -0.21985 -0.93969
vertex -0.2962 -0.17101 -0.93969
endloop
endfacet
facet normal -0.21279904934083513 -0.14895933453858512 -0.9656747284947755
outer loop
vertex -0.15038 -0.08682 -0.98481
vertex -0.13302 -0.11162 -0.98481
vertex -0.2962 -0.17101 -0.93969
endloop
endfacet
facet normal 0.08449555701641992 -0.022626546218829254 -0.9961669238891101
outer loop
vertex 0 0 -1
vertex 0.17101 -0.03015 -0.98481
vertex 0.16318 -0.05939 -0.98481
endloop
endfacet
facet normal 0.08713950574918544 -0.007630125876545644 -0.9961668975211412
outer loop
vertex 0.17365 0 -0.98481
vertex 0.17101 -0.03015 -0.98481
vertex 0 0 -1
endloop
endfacet
facet normal 0.24304846281594358 0.5212067774937883 -0.8180898115838796
outer loop
vertex 0.32139 0.55667 -0.76604
vertex 0.17101 0.46985 -0.86603
vertex 0.21985 0.60402 -0.76604
endloop
endfacet
facet normal 0.24307169913323162 0.521178977050325 -0.8181006190935566
outer loop
vertex 0.32139 0.55667 -0.76604
vertex 0.25 0.43301 -0.86603
vertex 0.17101 0.46985 -0.86603
endloop
endfacet
facet normal -0.24304277643831299 0.5211945833061487 -0.8180992697426678
outer loop
vertex -0.21985 0.60402 -0.76604
vertex -0.25 0.43301 -0.86603
vertex -0.32139 0.55667 -0.76604
endloop
endfacet
facet normal -0.2430790095530428 0.5211946515905281 -0.8180884611508342
outer loop
vertex -0.17101 0.46985 -0.86603
vertex -0.25 0.43301 -0.86603
vertex -0.21985 0.60402 -0.76604
endloop
endfacet
facet normal -0.2431581512329764 0.3472469036905919 -0.9057006687456169
outer loop
vertex -0.17101 0.2962 -0.93969
vertex -0.21985 0.262 -0.93969
vertex -0.25 0.43301 -0.86603
endloop
endfacet
facet normal -0.24315591445578766 0.3472474641528059 -0.9057010543797636
outer loop
vertex -0.21985 0.262 -0.93969
vertex -0.32139 0.38302 -0.86603
vertex -0.25 0.43301 -0.86603
endloop
endfacet
facet normal -0.32985589864659115 0.47106246458052103 -0.8181046635922417
outer loop
vertex -0.25 0.43301 -0.86603
vertex -0.32139 0.38302 -0.86603
vertex -0.41318 0.4924 -0.76604
endloop
endfacet
facet normal -0.32984465960428694 0.4710820181278589 -0.8180979359020017
outer loop
vertex -0.25 0.43301 -0.86603
vertex -0.41318 0.4924 -0.76604
vertex -0.32139 0.55667 -0.76604
endloop
endfacet
facet normal -0.14879261998122015 0.5555144424043792 -0.8180858515579378
outer loop
vertex -0.08682 0.4924 -0.86603
vertex -0.17101 0.46985 -0.86603
vertex -0.21985 0.60402 -0.76604
endloop
endfacet
facet normal -0.14883855408527813 0.5554757485741294 -0.8181037694350358
outer loop
vertex -0.08682 0.4924 -0.86603
vertex -0.21985 0.60402 -0.76604
vertex -0.11162 0.63302 -0.76604
endloop
endfacet
facet normal -0.05014379020249443 0.5728812551077208 -0.8181030912118171
outer loop
vertex 0 0.64279 -0.76604
vertex -0.08682 0.4924 -0.86603
vertex -0.11162 0.63302 -0.76604
endloop
endfacet
facet normal -0.050148712679318114 0.572883057212953 -0.8181015275471302
outer loop
vertex 0 0.64279 -0.76604
vertex 0 0.5 -0.86603
vertex -0.08682 0.4924 -0.86603
endloop
endfacet
facet normal -0.1489674760175538 0.21281068002508055 -0.9656709095526397
outer loop
vertex -0.08682 0.15038 -0.98481
vertex -0.11162 0.13302 -0.98481
vertex -0.21985 0.262 -0.93969
endloop
endfacet
facet normal -0.14899642177911115 0.21277734618981967 -0.9656737892505103
outer loop
vertex -0.08682 0.15038 -0.98481
vertex -0.21985 0.262 -0.93969
vertex -0.17101 0.2962 -0.93969
endloop
endfacet
facet normal -0.0369897999158017 0.07926798528832521 -0.9961668239860826
outer loop
vertex 0 0 -1
vertex -0.08682 0.15038 -0.98481
vertex -0.05939 0.16318 -0.98481
endloop
endfacet
facet normal -0.05016358081626086 0.07166225830894668 -0.9961667209326721
outer loop
vertex 0 0 -1
vertex -0.11162 0.13302 -0.98481
vertex -0.08682 0.15038 -0.98481
endloop
endfacet
facet normal -0.007630125876543994 0.08713950574918614 -0.9961668975211412
outer loop
vertex 0 0 -1
vertex -0.03015 0.17101 -0.98481
vertex 0 0.17365 -0.98481
endloop
endfacet
facet normal -0.022626546218831485 0.08449555701641961 -0.9961669238891101
outer loop
vertex 0 0 -1
vertex -0.05939 0.16318 -0.98481
vertex -0.03015 0.17101 -0.98481
endloop
endfacet
facet normal -0.7433105022646027 -0.34665712070578536 -0.5721174161718192
outer loop
vertex -0.71985 -0.262 -0.64279
vertex -0.66341 -0.38302 -0.64279
vertex -0.75 -0.43301 -0.5
endloop
endfacet
facet normal -0.743327044185246 -0.3466432674440363 -0.5721043178639256
outer loop
vertex -0.71985 -0.262 -0.64279
vertex -0.75 -0.43301 -0.5
vertex -0.8138 -0.2962 -0.5
endloop
endfacet
facet normal -0.7922389385417156 -0.21226700952424074 -0.5721015477395006
outer loop
vertex -0.85287 -0.15038 -0.5
vertex -0.71985 -0.262 -0.64279
vertex -0.8138 -0.2962 -0.5
endloop
endfacet
facet normal -0.7922412169196662 -0.21227986088342127 -0.57209362422331
outer loop
vertex -0.75441 -0.13302 -0.64279
vertex -0.71985 -0.262 -0.64279
vertex -0.85287 -0.15038 -0.5
endloop
endfacet
facet normal -0.817039568877483 0.07143414663994316 -0.5721394109675716
outer loop
vertex -0.75441 0.13302 -0.64279
vertex -0.76604 0 -0.64279
vertex -0.86603 0 -0.5
endloop
endfacet
facet normal -0.8170645780812701 0.07150265891441326 -0.5720951363305278
outer loop
vertex -0.85287 0.15038 -0.5
vertex -0.75441 0.13302 -0.64279
vertex -0.86603 0 -0.5
endloop
endfacet
facet normal -0.7922439500232848 0.21226835226587348 -0.5720941096339254
outer loop
vertex -0.8138 0.2962 -0.5
vertex -0.75441 0.13302 -0.64279
vertex -0.85287 0.15038 -0.5
endloop
endfacet
facet normal -0.7922355511684097 0.21227834275376253 -0.5721020334368703
outer loop
vertex -0.8138 0.2962 -0.5
vertex -0.71985 0.262 -0.64279
vertex -0.75441 0.13302 -0.64279
endloop
endfacet
facet normal -0.6842819169415822 0.1833523263257961 -0.7057904664825617
outer loop
vertex -0.71985 0.262 -0.64279
vertex -0.60402 0.21985 -0.76604
vertex -0.75441 0.13302 -0.64279
endloop
endfacet
facet normal -0.6842818242915296 0.1833518701326298 -0.7057906748201788
outer loop
vertex -0.60402 0.21985 -0.76604
vertex -0.63302 0.11162 -0.76604
vertex -0.75441 0.13302 -0.64279
endloop
endfacet
facet normal -0.7057188838934262 0.06177095050742357 -0.7057940256120241
outer loop
vertex -0.75441 0.13302 -0.64279
vertex -0.63302 0.11162 -0.76604
vertex -0.64279 0 -0.76604
endloop
endfacet
facet normal -0.7057593462310272 0.06170486540871241 -0.7057593462310263
outer loop
vertex -0.75441 0.13302 -0.64279
vertex -0.64279 0 -0.76604
vertex -0.76604 0 -0.64279
endloop
endfacet
facet normal -0.34724690369059313 0.24315815123297077 -0.905700668745618
outer loop
vertex -0.43301 0.25 -0.86603
vertex -0.262 0.21985 -0.93969
vertex -0.2962 0.17101 -0.93969
endloop
endfacet
facet normal -0.34724746415280633 0.24315591445578857 -0.9057010543797631
outer loop
vertex -0.38302 0.32139 -0.86603
vertex -0.262 0.21985 -0.93969
vertex -0.43301 0.25 -0.86603
endloop
endfacet
facet normal -0.2997566428030404 0.2997566428030408 -0.905699679911007
outer loop
vertex -0.262 0.21985 -0.93969
vertex -0.38302 0.32139 -0.86603
vertex -0.32139 0.38302 -0.86603
endloop
endfacet
facet normal -0.2997566428030411 0.29975664280304176 -0.9056996799110065
outer loop
vertex -0.21985 0.262 -0.93969
vertex -0.262 0.21985 -0.93969
vertex -0.32139 0.38302 -0.86603
endloop
endfacet
facet normal -0.5728805643613304 -0.050148494461484665 -0.8181032865600101
outer loop
vertex -0.5 0 -0.86603
vertex -0.4924 -0.08682 -0.86603
vertex -0.63302 -0.11162 -0.76604
endloop
endfacet
facet normal -0.5728831940943767 -0.050143959920282775 -0.8181017230196608
outer loop
vertex -0.64279 0 -0.76604
vertex -0.5 0 -0.86603
vertex -0.63302 -0.11162 -0.76604
endloop
endfacet
facet normal -0.08713950574918544 -0.007630125876545644 -0.9961668975211412
outer loop
vertex -0.17365 0 -0.98481
vertex 0 0 -1
vertex -0.17101 -0.03015 -0.98481
endloop
endfacet
facet normal -0.08449555701641992 -0.022626546218829254 -0.9961669238891101
outer loop
vertex 0 0 -1
vertex -0.16318 -0.05939 -0.98481
vertex -0.17101 -0.03015 -0.98481
endloop
endfacet
facet normal 0.38325160380955214 0.8219811196412317 -0.42126624257202633
outer loop
vertex 0.46985 0.8138 -0.34202
vertex 0.2962 0.8138 -0.5
vertex 0.32139 0.88302 -0.34202
endloop
endfacet
facet normal 0.38329971900742343 0.8219315761348844 -0.42131913030534807
outer loop
vertex 0.46985 0.8138 -0.34202
vertex 0.43301 0.75 -0.5
vertex 0.2962 0.8138 -0.5
endloop
endfacet
facet normal 0.34663964229874883 0.7433192705782439 -0.5721166143139202
outer loop
vertex 0.43301 0.75 -0.5
vertex 0.38302 0.66341 -0.64279
vertex 0.2962 0.8138 -0.5
endloop
endfacet
facet normal 0.34666121900325514 0.7433192899322112 -0.5721035155055861
outer loop
vertex 0.38302 0.66341 -0.64279
vertex 0.262 0.71985 -0.64279
vertex 0.2962 0.8138 -0.5
endloop
endfacet
facet normal 0.21227834275376242 0.7922355511684089 -0.5721020334368718
outer loop
vertex 0.2962 0.8138 -0.5
vertex 0.262 0.71985 -0.64279
vertex 0.13302 0.75441 -0.64279
endloop
endfacet
facet normal 0.2122683522658743 0.792243950023286 -0.5720941096339238
outer loop
vertex 0.2962 0.8138 -0.5
vertex 0.13302 0.75441 -0.64279
vertex 0.15038 0.85287 -0.5
endloop
endfacet
facet normal 0.23477227467632059 0.8760217352957703 -0.42126938926617213
outer loop
vertex 0.32139 0.88302 -0.34202
vertex 0.2962 0.8138 -0.5
vertex 0.16318 0.92542 -0.34202
endloop
endfacet
facet normal 0.2347135837014265 0.8760157352275906 -0.4213145680601342
outer loop
vertex 0.2962 0.8138 -0.5
vertex 0.15038 0.85287 -0.5
vertex 0.16318 0.92542 -0.34202
endloop
endfacet
facet normal 0.07906364685986093 0.903464378023247 -0.4213087435459732
outer loop
vertex 0.16318 0.92542 -0.34202
vertex 0.15038 0.85287 -0.5
vertex 0 0.86603 -0.5
endloop
endfacet
facet normal 0.07900973883337288 0.9034904823286476 -0.42126287459379835
outer loop
vertex 0.16318 0.92542 -0.34202
vertex 0 0.86603 -0.5
vertex 0 0.93969 -0.34202
endloop
endfacet
facet normal 0.7914318881679658 0.5541851821821596 -0.2579037615867888
outer loop
vertex 0.75441 0.63302 -0.17365
vertex 0.8138 0.46985 -0.34202
vertex 0.71985 0.60402 -0.34202
endloop
endfacet
facet normal 0.7914551351131714 0.5541649310428303 -0.25787593587864494
outer loop
vertex 0.85287 0.4924 -0.17365
vertex 0.8138 0.46985 -0.34202
vertex 0.75441 0.63302 -0.17365
endloop
endfacet
facet normal 0.8756493255366595 0.408332424268444 -0.25788154253115664
outer loop
vertex 0.92542 0.33682 -0.17365
vertex 0.8138 0.46985 -0.34202
vertex 0.85287 0.4924 -0.17365
endloop
endfacet
facet normal 0.8756596829134601 0.408279423759059 -0.25793028487339204
outer loop
vertex 0.92542 0.33682 -0.17365
vertex 0.88302 0.32139 -0.34202
vertex 0.8138 0.46985 -0.34202
endloop
endfacet
facet normal 0.8219811196412313 0.3832516038095524 -0.42126624257202605
outer loop
vertex 0.8138 0.46985 -0.34202
vertex 0.88302 0.32139 -0.34202
vertex 0.8138 0.2962 -0.5
endloop
endfacet
facet normal 0.8219315761348845 0.38329971900742216 -0.4213191303053489
outer loop
vertex 0.8138 0.46985 -0.34202
vertex 0.8138 0.2962 -0.5
vertex 0.75 0.43301 -0.5
endloop
endfacet
facet normal 0.7428916774648772 0.5201923851826288 -0.4213215374882093
outer loop
vertex 0.8138 0.46985 -0.34202
vertex 0.75 0.43301 -0.5
vertex 0.66341 0.55667 -0.5
endloop
endfacet
facet normal 0.7428909410283836 0.5201953037908366 -0.4213192324733373
outer loop
vertex 0.8138 0.46985 -0.34202
vertex 0.66341 0.55667 -0.5
vertex 0.71985 0.60402 -0.34202
endloop
endfacet
facet normal 0.40663355584477723 0.40663355584477817 -0.8181065349464358
outer loop
vertex 0.41318 0.4924 -0.76604
vertex 0.38302 0.32139 -0.86603
vertex 0.32139 0.38302 -0.86603
endloop
endfacet
facet normal 0.40663355584477817 0.40663355584477884 -0.8181065349464353
outer loop
vertex 0.4924 0.41318 -0.76604
vertex 0.38302 0.32139 -0.86603
vertex 0.41318 0.4924 -0.76604
endloop
endfacet
facet normal 0.5555144424043799 0.148792619981218 -0.8180858515579376
outer loop
vertex 0.60402 0.21985 -0.76604
vertex 0.4924 0.08682 -0.86603
vertex 0.46985 0.17101 -0.86603
endloop
endfacet
facet normal 0.5554757485741296 0.14883855408528004 -0.8181037694350354
outer loop
vertex 0.60402 0.21985 -0.76604
vertex 0.63302 0.11162 -0.76604
vertex 0.4924 0.08682 -0.86603
endloop
endfacet
facet normal 0.5728812551077207 0.050143790202492995 -0.8181030912118171
outer loop
vertex 0.63302 0.11162 -0.76604
vertex 0.64279 0 -0.76604
vertex 0.4924 0.08682 -0.86603
endloop
endfacet
facet normal 0.5728830572129525 0.05014871267931923 -0.8181015275471303
outer loop
vertex 0.4924 0.08682 -0.86603
vertex 0.64279 0 -0.76604
vertex 0.5 0 -0.86603
endloop
endfacet
facet normal -0.7433192899322115 0.34666121900325564 -0.5721035155055856
outer loop
vertex -0.66341 0.38302 -0.64279
vertex -0.71985 0.262 -0.64279
vertex -0.8138 0.2962 -0.5
endloop
endfacet
facet normal -0.7433192705782442 0.34663964229874905 -0.5721166143139195
outer loop
vertex -0.75 0.43301 -0.5
vertex -0.66341 0.38302 -0.64279
vertex -0.8138 0.2962 -0.5
endloop
endfacet
facet normal -0.671841520028457 0.47044118728177375 -0.5721136786293151
outer loop
vertex -0.66341 0.55667 -0.5
vertex -0.66341 0.38302 -0.64279
vertex -0.75 0.43301 -0.5
endloop
endfacet
facet normal -0.6718452093767817 0.4704390618592758 -0.5721110938571571
outer loop
vertex -0.66341 0.55667 -0.5
vertex -0.58682 0.4924 -0.64279
vertex -0.66341 0.38302 -0.64279
endloop
endfacet
facet normal -0.580322778578885 0.4063532785825271 -0.705763760508935
outer loop
vertex -0.58682 0.4924 -0.64279
vertex -0.4924 0.41318 -0.76604
vertex -0.66341 0.38302 -0.64279
endloop
endfacet
facet normal -0.5803254706069638 0.40633530881261254 -0.7057718930199507
outer loop
vertex -0.4924 0.41318 -0.76604
vertex -0.55667 0.32139 -0.76604
vertex -0.66341 0.38302 -0.64279
endloop
endfacet
facet normal -0.642062802136018 0.2994058861644718 -0.7057701279051928
outer loop
vertex -0.66341 0.38302 -0.64279
vertex -0.55667 0.32139 -0.76604
vertex -0.60402 0.21985 -0.76604
endloop
endfacet
facet normal -0.642037116121619 0.29942633311769995 -0.7057848202943464
outer loop
vertex -0.66341 0.38302 -0.64279
vertex -0.60402 0.21985 -0.76604
vertex -0.71985 0.262 -0.64279
endloop
endfacet
facet normal -0.02265947093568864 -0.2587814578451119 -0.9656700810589885
outer loop
vertex 0 -0.17365 -0.98481
vertex 0 -0.34202 -0.93969
vertex -0.03015 -0.17101 -0.98481
endloop
endfacet
facet normal -0.022658063956486018 -0.2587812343030626 -0.9656701739778066
outer loop
vertex 0 -0.34202 -0.93969
vertex -0.05939 -0.33682 -0.93969
vertex -0.03015 -0.17101 -0.98481
endloop
endfacet
facet normal -0.06722895752894649 -0.25092130033001503 -0.9656701136051925
outer loop
vertex -0.03015 -0.17101 -0.98481
vertex -0.05939 -0.33682 -0.93969
vertex -0.11698 -0.32139 -0.93969
endloop
endfacet
facet normal -0.06719736865793566 -0.25093883263829836 -0.9656677564874876
outer loop
vertex -0.03015 -0.17101 -0.98481
vertex -0.11698 -0.32139 -0.93969
vertex -0.05939 -0.16318 -0.98481
endloop
endfacet
facet normal -0.022626546218831485 -0.08449555701641961 -0.9961669238891101
outer loop
vertex 0 0 -1
vertex -0.03015 -0.17101 -0.98481
vertex -0.05939 -0.16318 -0.98481
endloop
endfacet
facet normal -0.007630125876543994 -0.08713950574918614 -0.9961668975211412
outer loop
vertex 0 0 -1
vertex 0 -0.17365 -0.98481
vertex -0.03015 -0.17101 -0.98481
endloop
endfacet
facet normal 0.0076301258765472954 -0.08713950574918614 -0.9961668975211412
outer loop
vertex 0.03015 -0.17101 -0.98481
vertex 0 -0.17365 -0.98481
vertex 0 0 -1
endloop
endfacet
facet normal 0.022626546218826867 -0.08449555701641963 -0.9961669238891102
outer loop
vertex 0.05939 -0.16318 -0.98481
vertex 0.03015 -0.17101 -0.98481
vertex 0 0 -1
endloop
endfacet
facet normal 0.06719736865793104 -0.25093883263829836 -0.9656677564874879
outer loop
vertex 0.11698 -0.32139 -0.93969
vertex 0.03015 -0.17101 -0.98481
vertex 0.05939 -0.16318 -0.98481
endloop
endfacet
facet normal 0.0672289575289485 -0.250921300330015 -0.9656701136051924
outer loop
vertex 0.11698 -0.32139 -0.93969
vertex 0.05939 -0.33682 -0.93969
vertex 0.03015 -0.17101 -0.98481
endloop
endfacet
facet normal 0.022658063956486018 -0.2587812343030626 -0.9656701739778066
outer loop
vertex 0.05939 -0.33682 -0.93969
vertex 0 -0.34202 -0.93969
vertex 0.03015 -0.17101 -0.98481
endloop
endfacet
facet normal 0.02265947093568864 -0.2587814578451119 -0.9656700810589885
outer loop
vertex 0.03015 -0.17101 -0.98481
vertex 0 -0.34202 -0.93969
vertex 0 -0.17365 -0.98481
endloop
endfacet
facet normal 0.2509269979850375 -0.06723048409288256 -0.965668526820075
outer loop
vertex 0.16318 -0.05939 -0.98481
vertex 0.33682 -0.05939 -0.93969
vertex 0.32139 -0.11698 -0.93969
endloop
endfacet
facet normal 0.2509276099406403 -0.06719436340065749 -0.9656708818726276
outer loop
vertex 0.17101 -0.03015 -0.98481
vertex 0.33682 -0.05939 -0.93969
vertex 0.16318 -0.05939 -0.98481
endloop
endfacet
facet normal 0.2587810014834263 -0.022659430975663274 -0.9656702042929016
outer loop
vertex 0.17365 0 -0.98481
vertex 0.33682 -0.05939 -0.93969
vertex 0.17101 -0.03015 -0.98481
endloop
endfacet
facet normal 0.2587814659804091 -0.022658084241422828 -0.9656701114166985
outer loop
vertex 0.34202 0 -0.93969
vertex 0.33682 -0.05939 -0.93969
vertex 0.17365 0 -0.98481
endloop
endfacet
facet normal 0.42229497409000755 -0.03697480830557381 -0.9057040457064803
outer loop
vertex 0.5 0 -0.86603
vertex 0.33682 -0.05939 -0.93969
vertex 0.34202 0 -0.93969
endloop
endfacet
facet normal 0.42229257635562656 -0.03696640843472409 -0.90570550655407
outer loop
vertex 0.5 0 -0.86603
vertex 0.4924 -0.08682 -0.86603
vertex 0.33682 -0.05939 -0.93969
endloop
endfacet
facet normal 0.41389342102162235 -0.08606240344305452 -0.9062480337902108
outer loop
vertex 0.33682 -0.05939 -0.93969
vertex 0.4924 -0.08682 -0.86603
vertex 1 -1.5 -0.5
endloop
endfacet
facet normal 0.3844609000208622 -0.10300801679669852 -0.917376239517222
outer loop
vertex 0.33682 -0.05939 -0.93969
vertex 1 -1.5 -0.5
vertex 0.32139 -0.11698 -0.93969
endloop
endfacet
facet normal 0.23541166028530577 -0.10985305328661808 -0.9656674670326858
outer loop
vertex 0.16318 -0.05939 -0.98481
vertex 0.32139 -0.11698 -0.93969
vertex 0.15038 -0.08682 -0.98481
endloop
endfacet
facet normal 0.23542923737660196 -0.10976240032420063 -0.9656734901939379
outer loop
vertex 0.15038 -0.08682 -0.98481
vertex 0.32139 -0.11698 -0.93969
vertex 0.2962 -0.17101 -0.93969
endloop
endfacet
facet normal 0.21277734618981806 -0.14899642177911235 -0.9656737892505104
outer loop
vertex 0.15038 -0.08682 -0.98481
vertex 0.2962 -0.17101 -0.93969
vertex 0.262 -0.21985 -0.93969
endloop
endfacet
facet normal 0.2128106800250849 -0.14896747601755625 -0.9656709095526383
outer loop
vertex 0.15038 -0.08682 -0.98481
vertex 0.262 -0.21985 -0.93969
vertex 0.13302 -0.11162 -0.98481
endloop
endfacet
facet normal 0.07166225830894671 -0.05016358081626266 -0.996166720932672
outer loop
vertex 0 0 -1
vertex 0.15038 -0.08682 -0.98481
vertex 0.13302 -0.11162 -0.98481
endloop
endfacet
facet normal 0.07926798528832786 -0.03698979991580606 -0.9961668239860823
outer loop
vertex 0 0 -1
vertex 0.16318 -0.05939 -0.98481
vertex 0.15038 -0.08682 -0.98481
endloop
endfacet
facet normal 0.05016358081626481 -0.07166225830894667 -0.9961667209326718
outer loop
vertex 0.11162 -0.13302 -0.98481
vertex 0.08682 -0.15038 -0.98481
vertex 0 0 -1
endloop
endfacet
facet normal 0.061853229922811837 -0.06185322992280825 -0.9961668313571937
outer loop
vertex 0 0 -1
vertex 0.13302 -0.11162 -0.98481
vertex 0.11162 -0.13302 -0.98481
endloop
endfacet
facet normal 0.18368160766947172 -0.18368160766947172 -0.9656718562782682
outer loop
vertex 0.13302 -0.11162 -0.98481
vertex 0.262 -0.21985 -0.93969
vertex 0.11162 -0.13302 -0.98481
endloop
endfacet
facet normal 0.18368160766947242 -0.18368160766947175 -0.9656718562782682
outer loop
vertex 0.262 -0.21985 -0.93969
vertex 0.21985 -0.262 -0.93969
vertex 0.11162 -0.13302 -0.98481
endloop
endfacet
facet normal 0.14900055635974535 -0.21278325066111495 -0.9656718502900329
outer loop
vertex 0.21985 -0.262 -0.93969
vertex 0.17101 -0.2962 -0.93969
vertex 0.11162 -0.13302 -0.98481
endloop
endfacet
facet normal 0.14895933453858629 -0.2127990493408359 -0.9656747284947753
outer loop
vertex 0.17101 -0.2962 -0.93969
vertex 0.08682 -0.15038 -0.98481
vertex 0.11162 -0.13302 -0.98481
endloop
endfacet
facet normal 0.07926798528832785 0.03698979991580605 -0.9961668239860823
outer loop
vertex 0.15038 0.08682 -0.98481
vertex 0.16318 0.05939 -0.98481
vertex 0 0 -1
endloop
endfacet
facet normal 0.07166225830894672 0.050163580816262675 -0.996166720932672
outer loop
vertex 0.13302 0.11162 -0.98481
vertex 0.15038 0.08682 -0.98481
vertex 0 0 -1
endloop
endfacet
facet normal 0.08449555701641993 0.022626546218829258 -0.9961669238891101
outer loop
vertex 0.16318 0.05939 -0.98481
vertex 0.17101 0.03015 -0.98481
vertex 0 0 -1
endloop
endfacet
facet normal 0.08713950574918544 0.007630125876545644 -0.9961668975211412
outer loop
vertex 0.17101 0.03015 -0.98481
vertex 0.17365 0 -0.98481
vertex 0 0 -1
endloop
endfacet
facet normal 0.17917242914486084 0.3841702002755858 -0.9057099413468673
outer loop
vertex 0.25 0.43301 -0.86603
vertex 0.11698 0.32139 -0.93969
vertex 0.17101 0.46985 -0.86603
endloop
endfacet
facet normal 0.17912947006540514 0.3842145798981303 -0.9056996133088445
outer loop
vertex 0.25 0.43301 -0.86603
vertex 0.17101 0.2962 -0.93969
vertex 0.11698 0.32139 -0.93969
endloop
endfacet
facet normal 0.2431581512329739 0.3472469036905922 -0.9057006687456176
outer loop
vertex 0.25 0.43301 -0.86603
vertex 0.21985 0.262 -0.93969
vertex 0.17101 0.2962 -0.93969
endloop
endfacet
facet normal 0.24315591445578852 0.3472474641528058 -0.9057010543797633
outer loop
vertex 0.32139 0.38302 -0.86603
vertex 0.21985 0.262 -0.93969
vertex 0.25 0.43301 -0.86603
endloop
endfacet
facet normal 0.05014871267931834 0.572883057212953 -0.8181015275471302
outer loop
vertex 0.08682 0.4924 -0.86603
vertex 0 0.5 -0.86603
vertex 0 0.64279 -0.76604
endloop
endfacet
facet normal 0.050143790202494445 0.5728812551077209 -0.8181030912118171
outer loop
vertex 0.11162 0.63302 -0.76604
vertex 0.08682 0.4924 -0.86603
vertex 0 0.64279 -0.76604
endloop
endfacet
facet normal 0.14883855408527782 0.5554757485741295 -0.8181037694350358
outer loop
vertex 0.21985 0.60402 -0.76604
vertex 0.08682 0.4924 -0.86603
vertex 0.11162 0.63302 -0.76604
endloop
endfacet
facet normal 0.14879261998121932 0.5555144424043794 -0.8180858515579377
outer loop
vertex 0.21985 0.60402 -0.76604
vertex 0.17101 0.46985 -0.86603
vertex 0.08682 0.4924 -0.86603
endloop
endfacet
facet normal 0.10967341669274416 0.4094636342067519 -0.9057103697833756
outer loop
vertex 0.17101 0.46985 -0.86603
vertex 0.11698 0.32139 -0.93969
vertex 0.08682 0.4924 -0.86603
endloop
endfacet
facet normal 0.10970792190648276 0.4094672211661977 -0.9057045691953824
outer loop
vertex 0.11698 0.32139 -0.93969
vertex 0.05939 0.33682 -0.93969
vertex 0.08682 0.4924 -0.86603
endloop
endfacet
facet normal 0.03697448503980074 0.42229128202182853 -0.9057057803638012
outer loop
vertex 0.08682 0.4924 -0.86603
vertex 0.05939 0.33682 -0.93969
vertex 0 0.34202 -0.93969
endloop
endfacet
facet normal 0.036966629519342646 0.4222951019564979 -0.9057043199441697
outer loop
vertex 0.08682 0.4924 -0.86603
vertex 0 0.34202 -0.93969
vertex 0 0.5 -0.86603
endloop
endfacet
facet normal -0.036966408434727295 0.4222925763556265 -0.9057055065540698
outer loop
vertex 0 0.5 -0.86603
vertex -0.05939 0.33682 -0.93969
vertex -0.08682 0.4924 -0.86603
endloop
endfacet
facet normal -0.036974808305572954 0.4222949740900073 -0.9057040457064803
outer loop
vertex 0 0.5 -0.86603
vertex 0 0.34202 -0.93969
vertex -0.05939 0.33682 -0.93969
endloop
endfacet
facet normal -0.022658084241419487 0.2587814659804086 -0.9656701114166988
outer loop
vertex 0 0.34202 -0.93969
vertex 0 0.17365 -0.98481
vertex -0.05939 0.33682 -0.93969
endloop
endfacet
facet normal -0.022659430975660613 0.25878100148342814 -0.9656702042929011
outer loop
vertex 0 0.17365 -0.98481
vertex -0.03015 0.17101 -0.98481
vertex -0.05939 0.33682 -0.93969
endloop
endfacet
facet normal -0.47107128434786594 -0.3298620745839732 -0.8180970949795687
outer loop
vertex -0.43301 -0.25 -0.86603
vertex -0.38302 -0.32139 -0.86603
vertex -0.55667 -0.32139 -0.76604
endloop
endfacet
facet normal -0.47107515818118934 -0.3298398563711176 -0.8181038225638895
outer loop
vertex -0.38302 -0.32139 -0.86603
vertex -0.4924 -0.41318 -0.76604
vertex -0.55667 -0.32139 -0.76604
endloop
endfacet
facet normal -0.5803326875744208 -0.4063403620264516 -0.7057630494159225
outer loop
vertex -0.55667 -0.32139 -0.76604
vertex -0.4924 -0.41318 -0.76604
vertex -0.58682 -0.4924 -0.64279
endloop
endfacet
facet normal -0.5803167224064056 -0.40634903793295685 -0.7057711818050149
outer loop
vertex -0.55667 -0.32139 -0.76604
vertex -0.58682 -0.4924 -0.64279
vertex -0.66341 -0.38302 -0.64279
endloop
endfacet
facet normal -0.1836816076694723 0.1836816076694716 -0.9656718562782681
outer loop
vertex -0.21985 0.262 -0.93969
vertex -0.13302 0.11162 -0.98481
vertex -0.262 0.21985 -0.93969
endloop
endfacet
facet normal -0.18368160766947067 0.183681607669472 -0.9656718562782685
outer loop
vertex -0.21985 0.262 -0.93969
vertex -0.11162 0.13302 -0.98481
vertex -0.13302 0.11162 -0.98481
endloop
endfacet
facet normal -0.06185322992281051 0.06185322992280824 -0.996166831357194
outer loop
vertex -0.11162 0.13302 -0.98481
vertex 0 0 -1
vertex -0.13302 0.11162 -0.98481
endloop
endfacet
facet normal -0.3842145798981286 -0.17912947006540567 -0.9056996133088451
outer loop
vertex -0.32139 -0.11698 -0.93969
vertex -0.2962 -0.17101 -0.93969
vertex -0.43301 -0.25 -0.86603
endloop
endfacet
facet normal -0.3841702002755873 -0.17917242914486067 -0.9057099413468669
outer loop
vertex -0.32139 -0.11698 -0.93969
vertex -0.43301 -0.25 -0.86603
vertex -0.46985 -0.17101 -0.86603
endloop
endfacet
facet normal -0.40946363420675186 -0.10967341669274609 -0.9057103697833755
outer loop
vertex -0.4924 -0.08682 -0.86603
vertex -0.32139 -0.11698 -0.93969
vertex -0.46985 -0.17101 -0.86603
endloop
endfacet
facet normal -0.4094672211661976 -0.10970792190648478 -0.9057045691953822
outer loop
vertex -0.33682 -0.05939 -0.93969
vertex -0.32139 -0.11698 -0.93969
vertex -0.4924 -0.08682 -0.86603
endloop
endfacet
facet normal -0.25092130033001714 -0.06722895752894845 -0.965670113605192
outer loop
vertex -0.17101 -0.03015 -0.98481
vertex -0.32139 -0.11698 -0.93969
vertex -0.33682 -0.05939 -0.93969
endloop
endfacet
facet normal -0.2509388326382943 -0.06719736865792982 -0.965667756487489
outer loop
vertex -0.17101 -0.03015 -0.98481
vertex -0.16318 -0.05939 -0.98481
vertex -0.32139 -0.11698 -0.93969
endloop
endfacet
facet normal -0.23541166028530577 -0.10985305328661808 -0.9656674670326858
outer loop
vertex -0.16318 -0.05939 -0.98481
vertex -0.15038 -0.08682 -0.98481
vertex -0.32139 -0.11698 -0.93969
endloop
endfacet
facet normal -0.23542923737660196 -0.10976240032420063 -0.9656734901939379
outer loop
vertex -0.15038 -0.08682 -0.98481
vertex -0.2962 -0.17101 -0.93969
vertex -0.32139 -0.11698 -0.93969
endloop
endfacet
facet normal -0.3841864456544748 0.1791800057970734 -0.9057015515598624
outer loop
vertex -0.43301 0.25 -0.86603
vertex -0.2962 0.17101 -0.93969
vertex -0.46985 0.17101 -0.86603
endloop
endfacet
facet normal -0.38419082669893934 0.1791183957902324 -0.905711879666994
outer loop
vertex -0.2962 0.17101 -0.93969
vertex -0.32139 0.11698 -0.93969
vertex -0.46985 0.17101 -0.86603
endloop
endfacet
facet normal -0.521206777493788 0.24304846281594186 -0.8180898115838804
outer loop
vertex -0.55667 0.32139 -0.76604
vertex -0.46985 0.17101 -0.86603
vertex -0.60402 0.21985 -0.76604
endloop
endfacet
facet normal -0.5211789770503253 0.2430716991332329 -0.8181006190935561
outer loop
vertex -0.55667 0.32139 -0.76604
vertex -0.43301 0.25 -0.86603
vertex -0.46985 0.17101 -0.86603
endloop
endfacet
facet normal -0.422291282021829 -0.03697448503979553 -0.9057057803638012
outer loop
vertex -0.34202 0 -0.93969
vertex -0.33682 -0.05939 -0.93969
vertex -0.4924 -0.08682 -0.86603
endloop
endfacet
facet normal -0.4222951019564978 -0.03696662951934359 -0.9057043199441696
outer loop
vertex -0.5 0 -0.86603
vertex -0.34202 0 -0.93969
vertex -0.4924 -0.08682 -0.86603
endloop
endfacet
facet normal -0.25878145784511114 -0.022659470935690627 -0.9656700810589884
outer loop
vertex -0.34202 0 -0.93969
vertex -0.17365 0 -0.98481
vertex -0.17101 -0.03015 -0.98481
endloop
endfacet
facet normal -0.2587812343030626 -0.022658063956489703 -0.9656701739778065
outer loop
vertex -0.34202 0 -0.93969
vertex -0.17101 -0.03015 -0.98481
vertex -0.33682 -0.05939 -0.93969
endloop
endfacet
facet normal -0.9924344123861636 0.0868184247078937 -0.08681300733743656
outer loop
vertex -1 0 0
vertex -0.96985 0.17101 -0.17365
vertex -0.98481 0 -0.17365
endloop
endfacet
facet normal -0.9924344194824508 0.0868130079581831 -0.08681834296842522
outer loop
vertex -0.98481 0.17365 0
vertex -0.96985 0.17101 -0.17365
vertex -1 0 0
endloop
endfacet
facet normal -0.9622783780176538 -0.25784951652689464 -0.0867983296300131
outer loop
vertex -0.93969 -0.34202 0
vertex -0.96985 -0.17101 -0.17365
vertex -0.92542 -0.33682 -0.17365
endloop
endfacet
facet normal -0.9622707694908268 -0.25787050614376705 -0.08682032161130018
outer loop
vertex -0.93969 -0.34202 0
vertex -0.98481 -0.17365 0
vertex -0.96985 -0.17101 -0.17365
endloop
endfacet
facet normal -0.9924344194824508 -0.0868130079581831 -0.08681834296842522
outer loop
vertex -1 0 0
vertex -0.96985 -0.17101 -0.17365
vertex -0.98481 -0.17365 0
endloop
endfacet
facet normal -0.9924344123861636 -0.0868184247078937 -0.08681300733743656
outer loop
vertex -1 0 0
vertex -0.98481 0 -0.17365
vertex -0.96985 -0.17101 -0.17365
endloop
endfacet
facet normal -0.9624880979204025 -0.08419871320325736 -0.2579287460840322
outer loop
vertex -0.98481 0 -0.17365
vertex -0.93969 0 -0.34202
vertex -0.96985 -0.17101 -0.17365
endloop
endfacet
facet normal -0.9624979814419448 -0.08416991172433246 -0.2579012634333141
outer loop
vertex -0.93969 0 -0.34202
vertex -0.92542 -0.16318 -0.34202
vertex -0.96985 -0.17101 -0.17365
endloop
endfacet
facet normal -0.933239383218523 -0.2501065030558461 -0.25789724841317463
outer loop
vertex -0.92542 -0.16318 -0.34202
vertex -0.88302 -0.32139 -0.34202
vertex -0.96985 -0.17101 -0.17365
endloop
endfacet
facet normal -0.933240086562948 -0.2500684943368421 -0.25793155869743106
outer loop
vertex -0.96985 -0.17101 -0.17365
vertex -0.88302 -0.32139 -0.34202
vertex -0.92542 -0.33682 -0.17365
endloop
endfacet
facet normal 0.250068494336842 0.9332400865629478 -0.2579315586974316
outer loop
vertex 0.33682 0.92542 -0.17365
vertex 0.32139 0.88302 -0.34202
vertex 0.17101 0.96985 -0.17365
endloop
endfacet
facet normal 0.2501065030558458 0.9332393832185235 -0.2578972484131737
outer loop
vertex 0.32139 0.88302 -0.34202
vertex 0.16318 0.92542 -0.34202
vertex 0.17101 0.96985 -0.17365
endloop
endfacet
facet normal 0.08416991172433246 0.9624979814419445 -0.25790126343331543
outer loop
vertex 0.17101 0.96985 -0.17365
vertex 0.16318 0.92542 -0.34202
vertex 0 0.93969 -0.34202
endloop
endfacet
facet normal 0.08419871320325817 0.9624880979204024 -0.25792874608403266
outer loop
vertex 0.17101 0.96985 -0.17365
vertex 0 0.93969 -0.34202
vertex 0 0.98481 -0.17365
endloop
endfacet
facet normal 0.08681842470789417 0.9924344123861636 -0.08681300733743647
outer loop
vertex 0 1 0
vertex 0.17101 0.96985 -0.17365
vertex 0 0.98481 -0.17365
endloop
endfacet
facet normal 0.08681300795818295 0.992434419482451 -0.08681834296842507
outer loop
vertex 0.17365 0.98481 0
vertex 0.17101 0.96985 -0.17365
vertex 0 1 0
endloop
endfacet
facet normal 0.24518993520175375 0.965571446595391 -0.08691189329110152
outer loop
vertex 1 1 2.5
vertex 0.17101 0.96985 -0.17365
vertex 0.17365 0.98481 0
endloop
endfacet
facet normal 0.2577579402945585 0.9619366212073094 -0.09076773102469902
outer loop
vertex 1 1 2.5
vertex 0.33682 0.92542 -0.17365
vertex 0.17101 0.96985 -0.17365
endloop
endfacet
facet normal 0.6842817339971364 0.1833522773061028 -0.7057906565863126
outer loop
vertex 0.71985 0.262 -0.64279
vertex 0.75441 0.13302 -0.64279
vertex 0.63302 0.11162 -0.76604
endloop
endfacet
facet normal 0.6842820423103976 0.18335192855032495 -0.7057904482694476
outer loop
vertex 0.71985 0.262 -0.64279
vertex 0.63302 0.11162 -0.76604
vertex 0.60402 0.21985 -0.76604
endloop
endfacet
facet normal 0.6420483743021198 0.2993991581958362 -0.7057861072078635
outer loop
vertex 0.55667 0.32139 -0.76604
vertex 0.71985 0.262 -0.64279
vertex 0.60402 0.21985 -0.76604
endloop
endfacet
facet normal 0.6420492211090307 0.29943197851093795 -0.7057714133615164
outer loop
vertex 0.66341 0.38302 -0.64279
vertex 0.71985 0.262 -0.64279
vertex 0.55667 0.32139 -0.76604
endloop
endfacet
facet normal 0.7433105022646028 0.3466571207057852 -0.572117416171819
outer loop
vertex 0.75 0.43301 -0.5
vertex 0.71985 0.262 -0.64279
vertex 0.66341 0.38302 -0.64279
endloop
endfacet
facet normal 0.743327044185246 0.3466432674440363 -0.5721043178639256
outer loop
vertex 0.75 0.43301 -0.5
vertex 0.8138 0.2962 -0.5
vertex 0.71985 0.262 -0.64279
endloop
endfacet
facet normal 0.7922389385417156 0.21226700952424074 -0.5721015477395003
outer loop
vertex 0.8138 0.2962 -0.5
vertex 0.85287 0.15038 -0.5
vertex 0.71985 0.262 -0.64279
endloop
endfacet
facet normal 0.7922412169196661 0.21227986088342135 -0.5720936242233101
outer loop
vertex 0.71985 0.262 -0.64279
vertex 0.85287 0.15038 -0.5
vertex 0.75441 0.13302 -0.64279
endloop
endfacet
facet normal 0.4710624645805225 0.32985589864659176 -0.8181046635922408
outer loop
vertex 0.4924 0.41318 -0.76604
vertex 0.43301 0.25 -0.86603
vertex 0.38302 0.32139 -0.86603
endloop
endfacet
facet normal 0.47108201812785916 0.3298446596042871 -0.8180979359020015
outer loop
vertex 0.4924 0.41318 -0.76604
vertex 0.55667 0.32139 -0.76604
vertex 0.43301 0.25 -0.86603
endloop
endfacet
facet normal 0.5211945833061489 0.24304277643831207 -0.8180992697426678
outer loop
vertex 0.55667 0.32139 -0.76604
vertex 0.60402 0.21985 -0.76604
vertex 0.43301 0.25 -0.86603
endloop
endfacet
facet normal 0.5211946515905275 0.24307900955304382 -0.8180884611508341
outer loop
vertex 0.43301 0.25 -0.86603
vertex 0.60402 0.21985 -0.76604
vertex 0.46985 0.17101 -0.86603
endloop
endfacet
facet normal 0.23541166028530575 0.10985305328661807 -0.9656674670326858
outer loop
vertex 0.32139 0.11698 -0.93969
vertex 0.16318 0.05939 -0.98481
vertex 0.15038 0.08682 -0.98481
endloop
endfacet
facet normal 0.23542923737660199 0.10976240032420066 -0.9656734901939379
outer loop
vertex 0.2962 0.17101 -0.93969
vertex 0.32139 0.11698 -0.93969
vertex 0.15038 0.08682 -0.98481
endloop
endfacet
facet normal 0.38421457989812874 0.17912947006540572 -0.9056996133088452
outer loop
vertex 0.43301 0.25 -0.86603
vertex 0.32139 0.11698 -0.93969
vertex 0.2962 0.17101 -0.93969
endloop
endfacet
facet normal 0.38417020027558646 0.17917242914486073 -0.9057099413468672
outer loop
vertex 0.43301 0.25 -0.86603
vertex 0.46985 0.17101 -0.86603
vertex 0.32139 0.11698 -0.93969
endloop
endfacet
facet normal 0.21277734618981806 0.14899642177911235 -0.9656737892505104
outer loop
vertex 0.262 0.21985 -0.93969
vertex 0.2962 0.17101 -0.93969
vertex 0.15038 0.08682 -0.98481
endloop
endfacet
facet normal 0.2128106800250849 0.14896747601755625 -0.9656709095526383
outer loop
vertex 0.262 0.21985 -0.93969
vertex 0.15038 0.08682 -0.98481
vertex 0.13302 0.11162 -0.98481
endloop
endfacet
facet normal 0.29975664280304 0.299756642803042 -0.9056996799110069
outer loop
vertex 0.32139 0.38302 -0.86603
vertex 0.262 0.21985 -0.93969
vertex 0.21985 0.262 -0.93969
endloop
endfacet
facet normal 0.29975664280303943 0.2997566428030408 -0.9056996799110074
outer loop
vertex 0.32139 0.38302 -0.86603
vertex 0.38302 0.32139 -0.86603
vertex 0.262 0.21985 -0.93969
endloop
endfacet
facet normal 0.34724746415280633 0.24315591445578857 -0.9057010543797631
outer loop
vertex 0.38302 0.32139 -0.86603
vertex 0.43301 0.25 -0.86603
vertex 0.262 0.21985 -0.93969
endloop
endfacet
facet normal 0.34724690369059313 0.24315815123297077 -0.905700668745618
outer loop
vertex 0.43301 0.25 -0.86603
vertex 0.2962 0.17101 -0.93969
vertex 0.262 0.21985 -0.93969
endloop
endfacet
facet normal 0.109768770689489 0.2354429011652645 -0.9656694347820075
outer loop
vertex 0.17101 0.2962 -0.93969
vertex 0.05939 0.16318 -0.98481
vertex 0.11698 0.32139 -0.93969
endloop
endfacet
facet normal 0.10984049805403184 0.23538475481421167 -0.9656754538602996
outer loop
vertex 0.17101 0.2962 -0.93969
vertex 0.08682 0.15038 -0.98481
vertex 0.05939 0.16318 -0.98481
endloop
endfacet
facet normal 0.036989799915799725 0.07926798528832521 -0.9961668239860826
outer loop
vertex 0.08682 0.15038 -0.98481
vertex 0 0 -1
vertex 0.05939 0.16318 -0.98481
endloop
endfacet
facet normal 0.022626546218826867 0.08449555701641963 -0.9961669238891102
outer loop
vertex 0.05939 0.16318 -0.98481
vertex 0 0 -1
vertex 0.03015 0.17101 -0.98481
endloop
endfacet
facet normal 0.06719436340065817 0.250927609940641 -0.9656708818726274
outer loop
vertex 0.05939 0.33682 -0.93969
vertex 0.05939 0.16318 -0.98481
vertex 0.03015 0.17101 -0.98481
endloop
endfacet
facet normal 0.0672304840928829 0.2509269979850364 -0.9656685268200751
outer loop
vertex 0.11698 0.32139 -0.93969
vertex 0.05939 0.16318 -0.98481
vertex 0.05939 0.33682 -0.93969
endloop
endfacet
facet normal 0.06185322992281051 0.06185322992280824 -0.996166831357194
outer loop
vertex 0.11162 0.13302 -0.98481
vertex 0.13302 0.11162 -0.98481
vertex 0 0 -1
endloop
endfacet
facet normal 0.05016358081626481 0.07166225830894667 -0.9961667209326718
outer loop
vertex 0.11162 0.13302 -0.98481
vertex 0 0 -1
vertex 0.08682 0.15038 -0.98481
endloop
endfacet
facet normal 0.14895933453858629 0.2127990493408359 -0.9656747284947753
outer loop
vertex 0.17101 0.2962 -0.93969
vertex 0.11162 0.13302 -0.98481
vertex 0.08682 0.15038 -0.98481
endloop
endfacet
facet normal 0.14900055635974535 0.21278325066111495 -0.9656718502900329
outer loop
vertex 0.21985 0.262 -0.93969
vertex 0.11162 0.13302 -0.98481
vertex 0.17101 0.2962 -0.93969
endloop
endfacet
facet normal 0.18368160766947253 0.18368160766947186 -0.9656718562782681
outer loop
vertex 0.21985 0.262 -0.93969
vertex 0.262 0.21985 -0.93969
vertex 0.11162 0.13302 -0.98481
endloop
endfacet
facet normal 0.18368160766947042 0.18368160766947175 -0.9656718562782685
outer loop
vertex 0.262 0.21985 -0.93969
vertex 0.13302 0.11162 -0.98481
vertex 0.11162 0.13302 -0.98481
endloop
endfacet
facet normal -0.17912947006540514 0.3842145798981303 -0.9056996133088445
outer loop
vertex -0.11698 0.32139 -0.93969
vertex -0.17101 0.2962 -0.93969
vertex -0.25 0.43301 -0.86603
endloop
endfacet
facet normal -0.17917242914485995 0.3841702002755859 -0.9057099413468676
outer loop
vertex -0.11698 0.32139 -0.93969
vertex -0.25 0.43301 -0.86603
vertex -0.17101 0.46985 -0.86603
endloop
endfacet
facet normal -0.10967341669274419 0.409463634206752 -0.9057103697833756
outer loop
vertex -0.08682 0.4924 -0.86603
vertex -0.11698 0.32139 -0.93969
vertex -0.17101 0.46985 -0.86603
endloop
endfacet
facet normal -0.10970792190648276 0.4094672211661977 -0.9057045691953824
outer loop
vertex -0.05939 0.33682 -0.93969
vertex -0.11698 0.32139 -0.93969
vertex -0.08682 0.4924 -0.86603
endloop
endfacet
facet normal -0.06722895752894649 0.25092130033001503 -0.9656701136051925
outer loop
vertex -0.03015 0.17101 -0.98481
vertex -0.11698 0.32139 -0.93969
vertex -0.05939 0.33682 -0.93969
endloop
endfacet
facet normal -0.06719736865793566 0.25093883263829836 -0.9656677564874876
outer loop
vertex -0.03015 0.17101 -0.98481
vertex -0.05939 0.16318 -0.98481
vertex -0.11698 0.32139 -0.93969
endloop
endfacet
facet normal -0.10985305328662649 0.23541166028530675 -0.9656674670326847
outer loop
vertex -0.05939 0.16318 -0.98481
vertex -0.08682 0.15038 -0.98481
vertex -0.11698 0.32139 -0.93969
endloop
endfacet
facet normal -0.10976240032419968 0.2354292373766009 -0.9656734901939382
outer loop
vertex -0.08682 0.15038 -0.98481
vertex -0.17101 0.2962 -0.93969
vertex -0.11698 0.32139 -0.93969
endloop
endfacet
facet normal -0.55547574857413 -0.14883855408528004 -0.8181037694350352
outer loop
vertex -0.4924 -0.08682 -0.86603
vertex -0.60402 -0.21985 -0.76604
vertex -0.63302 -0.11162 -0.76604
endloop
endfacet
facet normal -0.5555144424043799 -0.148792619981218 -0.8180858515579373
outer loop
vertex -0.4924 -0.08682 -0.86603
vertex -0.46985 -0.17101 -0.86603
vertex -0.60402 -0.21985 -0.76604
endloop
endfacet
facet normal -0.5211946515905275 -0.24307900955304382 -0.8180884611508341
outer loop
vertex -0.46985 -0.17101 -0.86603
vertex -0.43301 -0.25 -0.86603
vertex -0.60402 -0.21985 -0.76604
endloop
endfacet
facet normal -0.5211945833061489 -0.24304277643831207 -0.8180992697426678
outer loop
vertex -0.60402 -0.21985 -0.76604
vertex -0.43301 -0.25 -0.86603
vertex -0.55667 -0.32139 -0.76604
endloop
endfacet
facet normal -0.6420628021360184 -0.2994058861644716 -0.7057701279051922
outer loop
vertex -0.60402 -0.21985 -0.76604
vertex -0.55667 -0.32139 -0.76604
vertex -0.66341 -0.38302 -0.64279
endloop
endfacet
facet normal -0.6420371161216195 -0.2994263331176999 -0.705784820294346
outer loop
vertex -0.60402 -0.21985 -0.76604
vertex -0.66341 -0.38302 -0.64279
vertex -0.71985 -0.262 -0.64279
endloop
endfacet
facet normal -0.6842819169415821 -0.18335232632579607 -0.7057904664825619
outer loop
vertex -0.75441 -0.13302 -0.64279
vertex -0.60402 -0.21985 -0.76604
vertex -0.71985 -0.262 -0.64279
endloop
endfacet
facet normal -0.6842818242915297 -0.18335187013262977 -0.705790674820179
outer loop
vertex -0.63302 -0.11162 -0.76604
vertex -0.60402 -0.21985 -0.76604
vertex -0.75441 -0.13302 -0.64279
endloop
endfacet
facet normal -0.23541166028530575 0.10985305328661807 -0.9656674670326858
outer loop
vertex -0.32139 0.11698 -0.93969
vertex -0.15038 0.08682 -0.98481
vertex -0.16318 0.05939 -0.98481
endloop
endfacet
facet normal -0.23542923737660199 0.10976240032420066 -0.9656734901939379
outer loop
vertex -0.2962 0.17101 -0.93969
vertex -0.15038 0.08682 -0.98481
vertex -0.32139 0.11698 -0.93969
endloop
endfacet
facet normal -0.21277734618981806 0.14899642177911235 -0.9656737892505104
outer loop
vertex -0.262 0.21985 -0.93969
vertex -0.15038 0.08682 -0.98481
vertex -0.2962 0.17101 -0.93969
endloop
endfacet
facet normal -0.2128106800250849 0.14896747601755625 -0.9656709095526383
outer loop
vertex -0.262 0.21985 -0.93969
vertex -0.13302 0.11162 -0.98481
vertex -0.15038 0.08682 -0.98481
endloop
endfacet
facet normal -0.07166225830894672 0.050163580816262675 -0.996166720932672
outer loop
vertex -0.13302 0.11162 -0.98481
vertex 0 0 -1
vertex -0.15038 0.08682 -0.98481
endloop
endfacet
facet normal -0.07926798528832785 0.03698979991580605 -0.9961668239860823
outer loop
vertex -0.15038 0.08682 -0.98481
vertex 0 0 -1
vertex -0.16318 0.05939 -0.98481
endloop
endfacet
facet normal -0.5728830572129525 0.05014871267931923 -0.8181015275471303
outer loop
vertex -0.4924 0.08682 -0.86603
vertex -0.5 0 -0.86603
vertex -0.64279 0 -0.76604
endloop
endfacet
facet normal -0.5728812551077207 0.050143790202492995 -0.8181030912118171
outer loop
vertex -0.63302 0.11162 -0.76604
vertex -0.4924 0.08682 -0.86603
vertex -0.64279 0 -0.76604
endloop
endfacet
facet normal -0.5554757485741296 0.14883855408528004 -0.8181037694350354
outer loop
vertex -0.60402 0.21985 -0.76604
vertex -0.4924 0.08682 -0.86603
vertex -0.63302 0.11162 -0.76604
endloop
endfacet
facet normal -0.5555144424043799 0.148792619981218 -0.8180858515579376
outer loop
vertex -0.60402 0.21985 -0.76604
vertex -0.46985 0.17101 -0.86603
vertex -0.4924 0.08682 -0.86603
endloop
endfacet
facet normal -0.9034643780232472 0.07906364685985916 -0.4213087435459731
outer loop
vertex -0.92542 0.16318 -0.34202
vertex -0.85287 0.15038 -0.5
vertex -0.86603 0 -0.5
endloop
endfacet
facet normal -0.9034904823286476 0.07900973883337287 -0.421262874593798
outer loop
vertex -0.92542 0.16318 -0.34202
vertex -0.86603 0 -0.5
vertex -0.93969 0 -0.34202
endloop
endfacet
facet normal -0.9624905016289854 0.08416925761886039 -0.25792939023281913
outer loop
vertex -0.92542 0.16318 -0.34202
vertex -0.93969 0 -0.34202
vertex -0.98481 0 -0.17365
endloop
endfacet
facet normal -0.9624952352184967 0.08419933757598112 -0.25790190719236034
outer loop
vertex -0.96985 0.17101 -0.17365
vertex -0.92542 0.16318 -0.34202
vertex -0.98481 0 -0.17365
endloop
endfacet
facet normal -0.9622765128263543 0.2578490167352691 -0.08682048969803247
outer loop
vertex -0.98481 0.17365 0
vertex -0.92542 0.33682 -0.17365
vertex -0.96985 0.17101 -0.17365
endloop
endfacet
facet normal -0.9622726063006509 0.2578709983743263 -0.08679849860902253
outer loop
vertex -0.93969 0.34202 0
vertex -0.92542 0.33682 -0.17365
vertex -0.98481 0.17365 0
endloop
endfacet
facet normal -0.9029027674492407 0.4209888457419359 -0.0868042872983515
outer loop
vertex -0.86603 0.5 0
vertex -0.92542 0.33682 -0.17365
vertex -0.93969 0.34202 0
endloop
endfacet
facet normal -0.9028789925119189 0.42103015109101116 -0.08685123345665698
outer loop
vertex -0.86603 0.5 0
vertex -0.85287 0.4924 -0.17365
vertex -0.92542 0.33682 -0.17365
endloop
endfacet
facet normal 0.2509276099406403 0.06719436340065749 -0.9656708818726276
outer loop
vertex 0.33682 0.05939 -0.93969
vertex 0.17101 0.03015 -0.98481
vertex 0.16318 0.05939 -0.98481
endloop
endfacet
facet normal 0.2509269979850375 0.06723048409288256 -0.965668526820075
outer loop
vertex 0.32139 0.11698 -0.93969
vertex 0.33682 0.05939 -0.93969
vertex 0.16318 0.05939 -0.98481
endloop
endfacet
facet normal 0.4094530030565489 0.1097041124702653 -0.905711458465159
outer loop
vertex 0.46985 0.17101 -0.86603
vertex 0.33682 0.05939 -0.93969
vertex 0.32139 0.11698 -0.93969
endloop
endfacet
facet normal 0.4094733604743802 0.10967602183985393 -0.9057056570957266
outer loop
vertex 0.46985 0.17101 -0.86603
vertex 0.4924 0.08682 -0.86603
vertex 0.33682 0.05939 -0.93969
endloop
endfacet
facet normal 0.42229257635562617 0.036966408434724096 -0.9057055065540702
outer loop
vertex 0.4924 0.08682 -0.86603
vertex 0.5 0 -0.86603
vertex 0.33682 0.05939 -0.93969
endloop
endfacet
facet normal 0.42229497409000755 0.03697480830557381 -0.9057040457064803
outer loop
vertex 0.33682 0.05939 -0.93969
vertex 0.5 0 -0.86603
vertex 0.34202 0 -0.93969
endloop
endfacet
facet normal 0.2587814659804091 0.022658084241422828 -0.9656701114166985
outer loop
vertex 0.33682 0.05939 -0.93969
vertex 0.34202 0 -0.93969
vertex 0.17365 0 -0.98481
endloop
endfacet
facet normal 0.2587810014834263 0.022659430975663277 -0.9656702042929015
outer loop
vertex 0.33682 0.05939 -0.93969
vertex 0.17365 0 -0.98481
vertex 0.17101 0.03015 -0.98481
endloop
endfacet
facet normal -0.42229497409000755 0.03697480830557381 -0.9057040457064803
outer loop
vertex -0.33682 0.05939 -0.93969
vertex -0.34202 0 -0.93969
vertex -0.5 0 -0.86603
endloop
endfacet
facet normal -0.42229257635562617 0.036966408434724096 -0.9057055065540702
outer loop
vertex -0.4924 0.08682 -0.86603
vertex -0.33682 0.05939 -0.93969
vertex -0.5 0 -0.86603
endloop
endfacet
facet normal -0.4094733604743802 0.10967602183985393 -0.9057056570957266
outer loop
vertex -0.46985 0.17101 -0.86603
vertex -0.33682 0.05939 -0.93969
vertex -0.4924 0.08682 -0.86603
endloop
endfacet
facet normal -0.4094530030565489 0.1097041124702653 -0.905711458465159
outer loop
vertex -0.46985 0.17101 -0.86603
vertex -0.32139 0.11698 -0.93969
vertex -0.33682 0.05939 -0.93969
endloop
endfacet
facet normal -0.2509269979850375 0.06723048409288256 -0.965668526820075
outer loop
vertex -0.32139 0.11698 -0.93969
vertex -0.16318 0.05939 -0.98481
vertex -0.33682 0.05939 -0.93969
endloop
endfacet
facet normal -0.2509276099406403 0.06719436340065749 -0.9656708818726276
outer loop
vertex -0.33682 0.05939 -0.93969
vertex -0.16318 0.05939 -0.98481
vertex -0.17101 0.03015 -0.98481
endloop
endfacet
facet normal -0.2587810014834263 0.022659430975663277 -0.9656702042929015
outer loop
vertex -0.33682 0.05939 -0.93969
vertex -0.17101 0.03015 -0.98481
vertex -0.17365 0 -0.98481
endloop
endfacet
facet normal -0.2587814659804091 0.022658084241422828 -0.9656701114166985
outer loop
vertex -0.33682 0.05939 -0.93969
vertex -0.17365 0 -0.98481
vertex -0.34202 0 -0.93969
endloop
endfacet
facet normal -0.9332393832185232 0.25010650305584614 -0.25789724841317463
outer loop
vertex -0.88302 0.32139 -0.34202
vertex -0.92542 0.16318 -0.34202
vertex -0.96985 0.17101 -0.17365
endloop
endfacet
facet normal -0.933240086562948 0.2500684943368421 -0.25793155869743106
outer loop
vertex -0.92542 0.33682 -0.17365
vertex -0.88302 0.32139 -0.34202
vertex -0.96985 0.17101 -0.17365
endloop
endfacet
facet normal -0.8756378101022767 0.4083270543959399 -0.25792914175723647
outer loop
vertex -0.85287 0.4924 -0.17365
vertex -0.88302 0.32139 -0.34202
vertex -0.92542 0.33682 -0.17365
endloop
endfacet
facet normal -0.8756717512276526 0.4082850506532266 -0.2578804015721016
outer loop
vertex -0.85287 0.4924 -0.17365
vertex -0.8138 0.46985 -0.34202
vertex -0.88302 0.32139 -0.34202
endloop
endfacet
facet normal -0.8219597623113869 0.38324164587898507 -0.42131697094346304
outer loop
vertex -0.8138 0.46985 -0.34202
vertex -0.75 0.43301 -0.5
vertex -0.88302 0.32139 -0.34202
endloop
endfacet
facet normal -0.8219547506013095 0.38331052619226325 -0.4212640840068725
outer loop
vertex -0.75 0.43301 -0.5
vertex -0.8138 0.2962 -0.5
vertex -0.88302 0.32139 -0.34202
endloop
endfacet
facet normal -0.8760368333092639 0.23471923657518026 -0.42126754760726776
outer loop
vertex -0.88302 0.32139 -0.34202
vertex -0.8138 0.2962 -0.5
vertex -0.85287 0.15038 -0.5
endloop
endfacet
facet normal -0.876002290115122 0.23476706340232326 -0.4213127266704758
outer loop
vertex -0.88302 0.32139 -0.34202
vertex -0.85287 0.15038 -0.5
vertex -0.92542 0.16318 -0.34202
endloop
endfacet
endsolid JSxCAD
