solid JSxCAD
facet normal 0 -1 0
outer loop
vertex 1 -1.5 0.5
vertex 0 -1.5 0.5
vertex 0 -1.5 -0.5
endloop
endfacet
facet normal 0 -1 0
outer loop
vertex 1 -1.5 0.5
vertex 0 -1.5 -0.5
vertex 1 -1.5 -0.5
endloop
endfacet
facet normal 0 -0.894427190999916 0.447213595499958
outer loop
vertex 0 0 3.5
vertex 0 -1.5 0.5
vertex 1 -1.5 0.5
endloop
endfacet
facet normal 0 -0.894427190999916 0.447213595499958
outer loop
vertex 0 0 3.5
vertex 1 -1.5 0.5
vertex 1 0 3.5
endloop
endfacet
facet normal 0 0 1
outer loop
vertex 0 0 3.5
vertex 1 0 3.5
vertex 1 1 3.5
endloop
endfacet
facet normal 0 0 1
outer loop
vertex 0 0 3.5
vertex 1 1 3.5
vertex 0 1 3.5
endloop
endfacet
facet normal -0.7463244990466236 -0.66558225796877 0
outer loop
vertex -0.70711 -0.70711 0
vertex 0 -1.5 -0.5
vertex 0 -1.5 0.5
endloop
endfacet
facet normal 0.7581853437035483 0.17210387367384894 -0.6289159254300914
outer loop
vertex 0.76818 0.31819 -0.55557
vertex 1 -0.5 -0.5
vertex 0.65328 0.2706 -0.70711
endloop
endfacet
facet normal 1 0 0
outer loop
vertex 1 1 2.5
vertex 1 1 3.5
vertex 1 0 3.5
endloop
endfacet
facet normal 1 0 0
outer loop
vertex 1 1 2.5
vertex 1 0 3.5
vertex 1 -1.5 0.5
endloop
endfacet
facet normal 1 0 0
outer loop
vertex 1 1 2.5
vertex 1 -1.5 0.5
vertex 1 -1.5 -0.5
endloop
endfacet
facet normal 1 0 0
outer loop
vertex 1 1 2.5
vertex 1 -1.5 -0.5
vertex 1 -0.5 -0.5
endloop
endfacet
facet normal 1 0 0
outer loop
vertex 1 1 2.5
vertex 1 -0.5 -0.5
vertex 1 0 0
endloop
endfacet
facet normal 0.11983052626977037 -0.26457790854344315 -0.9568903674322817
outer loop
vertex 0.07466 -0.18024 -0.98079
vertex 1 -1.5 -0.5
vertex 0.14645 -0.35355 -0.92388
endloop
endfacet
facet normal -0.7725253324286274 -0.6274503705257142 0.09752252705494584
outer loop
vertex -0.69352 -0.69352 0.19509
vertex -0.70711 -0.70711 0
vertex 0 -1.5 0.5
endloop
endfacet
facet normal -0.7776023599922235 -0.5623767916509532 0.2811883958254766
outer loop
vertex -0.69352 -0.69352 0.19509
vertex 0 -1.5 0.5
vertex 0 0 3.5
endloop
endfacet
facet normal -0.7983374068028062 -0.533437619222303 0.2794667982029567
outer loop
vertex -0.69352 -0.69352 0.19509
vertex 0 0 3.5
vertex -0.90613 -0.37533 0.19509
endloop
endfacet
facet normal 0.7232350022334548 0.1438719148936689 -0.6754494826774267
outer loop
vertex 0.70711 0 -0.70711
vertex 0.65328 0.2706 -0.70711
vertex 1 -0.5 -0.5
endloop
endfacet
facet normal 0.9904429490135906 0.09752631631837115 -0.09752631631837115
outer loop
vertex 0.98079 0 -0.19509
vertex 1 0 0
vertex 1 -0.5 -0.5
endloop
endfacet
facet normal 0.9496555177110908 0.18890384715399774 -0.24993946109267998
outer loop
vertex 0.98079 0 -0.19509
vertex 1 -0.5 -0.5
vertex 0.90613 0.37533 -0.19509
endloop
endfacet
facet normal 0.8584964671101588 0.21151085159328087 -0.46716910815855633
outer loop
vertex 0.85355 0.35355 -0.38268
vertex 1 -0.5 -0.5
vertex 0.76818 0.31819 -0.55557
endloop
endfacet
facet normal 0.9371360511442749 0.20008870692796069 -0.2859030097876053
outer loop
vertex 0.85355 0.35355 -0.38268
vertex 0.90613 0.37533 -0.19509
vertex 1 -0.5 -0.5
endloop
endfacet
facet normal 0.9560425684008957 0.276577323203925 -0.09740426938676885
outer loop
vertex 0.92388 0.38268 0
vertex 0.90613 0.37533 -0.19509
vertex 1 1 2.5
endloop
endfacet
facet normal 0.9778124160294758 0.19449953252891075 -0.07779981301156441
outer loop
vertex 0.92388 0.38268 0
vertex 1 1 2.5
vertex 1 0 0
endloop
endfacet
facet normal 0.9762431304769144 0.1941873813418588 -0.09612809747532662
outer loop
vertex 0.92388 0.38268 0
vertex 1 0 0
vertex 0.98079 0 -0.19509
endloop
endfacet
facet normal 0.9762411768920937 0.19419222089031976 -0.0961381604048314
outer loop
vertex 0.92388 0.38268 0
vertex 0.98079 0 -0.19509
vertex 0.90613 0.37533 -0.19509
endloop
endfacet
facet normal -0.7725253324286274 -0.6274503705257142 -0.09752252705494584
outer loop
vertex -0.69352 -0.69352 -0.19509
vertex 0 -1.5 -0.5
vertex -0.70711 -0.70711 0
endloop
endfacet
facet normal -0.8276159053531816 -0.5530010925457748 -0.09613378620242158
outer loop
vertex -0.92388 -0.38268 0
vertex -0.90613 -0.37533 -0.19509
vertex -0.69352 -0.69352 -0.19509
endloop
endfacet
facet normal -0.8276239058366229 -0.5529822583244606 -0.09617324194448267
outer loop
vertex -0.92388 -0.38268 0
vertex -0.69352 -0.69352 -0.19509
vertex -0.70711 -0.70711 0
endloop
endfacet
facet normal -0.8276239058366229 -0.5529822583244606 0.09617324194448267
outer loop
vertex -0.92388 -0.38268 0
vertex -0.70711 -0.70711 0
vertex -0.69352 -0.69352 0.19509
endloop
endfacet
facet normal -0.8276159053531816 -0.5530010925457748 0.09613378620242158
outer loop
vertex -0.92388 -0.38268 0
vertex -0.69352 -0.69352 0.19509
vertex -0.90613 -0.37533 0.19509
endloop
endfacet
facet normal -0.7533454411732827 0.6503152083428662 0.09777922101042977
outer loop
vertex -0.69352 0.69352 0.19509
vertex 0 1 3.5
vertex -0.70711 0.70711 0
endloop
endfacet
facet normal -0.8252519133742076 0.5514215069690758 0.12203934252593791
outer loop
vertex -0.69352 0.69352 0.19509
vertex -0.90613 0.37533 0.19509
vertex 0 1 3.5
endloop
endfacet
facet normal -0.8276159053531816 0.5530010925457748 0.09613378620242158
outer loop
vertex -0.92388 0.38268 0
vertex -0.90613 0.37533 0.19509
vertex -0.69352 0.69352 0.19509
endloop
endfacet
facet normal -0.8276239058366229 0.5529822583244606 0.09617324194448267
outer loop
vertex -0.92388 0.38268 0
vertex -0.69352 0.69352 0.19509
vertex -0.70711 0.70711 0
endloop
endfacet
facet normal -0.9417049829992135 -0.18732234042235185 0.2794674681839441
outer loop
vertex -0.98079 0 0.19509
vertex -0.90613 -0.37533 0.19509
vertex 0 0 3.5
endloop
endfacet
facet normal -0.9586749690985501 0 0.2845036091579399
outer loop
vertex -0.98079 0 0.19509
vertex 0 0 3.5
vertex 0 1 3.5
endloop
endfacet
facet normal -0.9554022776893987 0.1900469827945822 0.22602794543282664
outer loop
vertex -0.98079 0 0.19509
vertex 0 1 3.5
vertex -0.90613 0.37533 0.19509
endloop
endfacet
facet normal 0.47067318716425044 -0.05513707103590916 -0.8805831330897882
outer loop
vertex 0.55557 0 -0.83147
vertex 1 -1.5 -0.5
vertex 0.38268 0 -0.92388
endloop
endfacet
facet normal 0.6335395961341763 0.0513347516520128 -0.7720053907862113
outer loop
vertex 0.55557 0 -0.83147
vertex 0.70711 0 -0.70711
vertex 1 -0.5 -0.5
endloop
endfacet
facet normal 0.5978594362650591 0 -0.8016009571281872
outer loop
vertex 0.55557 0 -0.83147
vertex 1 -0.5 -0.5
vertex 1 -1.5 -0.5
endloop
endfacet
facet normal 0.060859678291891144 -0.3059697866751607 -0.950093989666372
outer loop
vertex 0 -0.38268 -0.92388
vertex 0.14645 -0.35355 -0.92388
vertex 1 -1.5 -0.5
endloop
endfacet
facet normal 0 -0.35470468543393574 -0.9349783880556879
outer loop
vertex 0 -0.38268 -0.92388
vertex 1 -1.5 -0.5
vertex 0 -1.5 -0.5
endloop
endfacet
facet normal -0.07037846707356694 -0.35382514599807247 -0.9326599795379973
outer loop
vertex 0 -0.38268 -0.92388
vertex 0 -1.5 -0.5
vertex -0.14645 -0.35355 -0.92388
endloop
endfacet
facet normal -0.7772794125275901 -0.5599580728536425 -0.2868513055692776
outer loop
vertex -0.65328 -0.65328 -0.38268
vertex 0 -1.5 -0.5
vertex -0.69352 -0.69352 -0.19509
endloop
endfacet
facet normal 0.41862674994386917 -0.08326799061703558 -0.9043329508372645
outer loop
vertex 0.35355 -0.14645 -0.92388
vertex 0.38268 0 -0.92388
vertex 1 -1.5 -0.5
endloop
endfacet
facet normal 0.6293943909428821 0.1252043609181646 -0.766933223075329
outer loop
vertex 0.51328 0.21261 -0.83147
vertex 0.65328 0.2706 -0.70711
vertex 0.70711 0 -0.70711
endloop
endfacet
facet normal 0.6293852262832286 0.12519026019245455 -0.7669430459228083
outer loop
vertex 0.51328 0.21261 -0.83147
vertex 0.70711 0 -0.70711
vertex 0.55557 0 -0.83147
endloop
endfacet
facet normal 0.8213128729570015 0.5487894965881652 -0.15580517690251613
outer loop
vertex 0.69352 0.69352 -0.19509
vertex 1 1 2.5
vertex 0.90613 0.37533 -0.19509
endloop
endfacet
facet normal -0.49048240657339925 -0.4050469343469941 -0.7715983345096519
outer loop
vertex -0.5 -0.5 -0.70711
vertex -0.39285 -0.39285 -0.83147
vertex 0 -1.5 -0.5
endloop
endfacet
facet normal 0.05764715287511114 -0.2898273692697527 -0.9553412488674233
outer loop
vertex 0 -0.19509 -0.98079
vertex 0.07466 -0.18024 -0.98079
vertex 0.14645 -0.35355 -0.92388
endloop
endfacet
facet normal 0.057648587396575024 -0.2898261456995696 -0.955341533505223
outer loop
vertex 0 -0.19509 -0.98079
vertex 0.14645 -0.35355 -0.92388
vertex 0 -0.38268 -0.92388
endloop
endfacet
facet normal -0.057648587396575024 -0.2898261456995696 -0.955341533505223
outer loop
vertex 0 -0.19509 -0.98079
vertex 0 -0.38268 -0.92388
vertex -0.14645 -0.35355 -0.92388
endloop
endfacet
facet normal -0.05764715287511114 -0.2898273692697527 -0.9553412488674233
outer loop
vertex 0 -0.19509 -0.98079
vertex -0.14645 -0.35355 -0.92388
vertex -0.07466 -0.18024 -0.98079
endloop
endfacet
facet normal -0.01948736256361344 -0.09797484774406877 -0.994998076334744
outer loop
vertex 0 -0.19509 -0.98079
vertex -0.07466 -0.18024 -0.98079
vertex 0 0 -1
endloop
endfacet
facet normal 0.01948736256361344 -0.09797484774406877 -0.994998076334744
outer loop
vertex 0 -0.19509 -0.98079
vertex 0 0 -1
vertex 0.07466 -0.18024 -0.98079
endloop
endfacet
facet normal -0.7969462173299515 -0.5324939743925183 -0.28517870523435285
outer loop
vertex -0.85355 -0.35355 -0.38268
vertex -0.65328 -0.65328 -0.38268
vertex -0.69352 -0.69352 -0.19509
endloop
endfacet
facet normal -0.7969344495112383 -0.5325001832571242 -0.28519999651709094
outer loop
vertex -0.85355 -0.35355 -0.38268
vertex -0.69352 -0.69352 -0.19509
vertex -0.90613 -0.37533 -0.19509
endloop
endfacet
facet normal -0.7309256133641557 -0.49950805698905004 -0.46501553601063356
outer loop
vertex -0.58794 -0.58794 -0.55557
vertex 0 -1.5 -0.5
vertex -0.65328 -0.65328 -0.38268
endloop
endfacet
facet normal -0.7364271885373851 -0.4920570948799988 -0.46427880778814207
outer loop
vertex -0.58794 -0.58794 -0.55557
vertex -0.65328 -0.65328 -0.38268
vertex -0.85355 -0.35355 -0.38268
endloop
endfacet
facet normal -0.7364276517289803 -0.4920619831237489 -0.4642728923093221
outer loop
vertex -0.58794 -0.58794 -0.55557
vertex -0.85355 -0.35355 -0.38268
vertex -0.76818 -0.31819 -0.55557
endloop
endfacet
facet normal -0.6477168834439924 -0.43278773335290116 -0.6270228199681888
outer loop
vertex -0.58794 -0.58794 -0.55557
vertex -0.76818 -0.31819 -0.55557
vertex -0.65328 -0.2706 -0.70711
endloop
endfacet
facet normal -0.6477142320999966 -0.43278830643542887 -0.6270251632493427
outer loop
vertex -0.58794 -0.58794 -0.55557
vertex -0.65328 -0.2706 -0.70711
vertex -0.5 -0.5 -0.70711
endloop
endfacet
facet normal -0.6355444530859939 -0.4480011468407438 -0.6287910786429808
outer loop
vertex -0.58794 -0.58794 -0.55557
vertex -0.5 -0.5 -0.70711
vertex 0 -1.5 -0.5
endloop
endfacet
facet normal -0.6477154419499773 0.4327867701837404 -0.6270249738355497
outer loop
vertex -0.76818 0.31819 -0.55557
vertex -0.58794 0.58794 -0.55557
vertex -0.5 0.5 -0.70711
endloop
endfacet
facet normal -0.6477159271379656 0.4327894390222632 -0.6270226305346566
outer loop
vertex -0.76818 0.31819 -0.55557
vertex -0.5 0.5 -0.70711
vertex -0.65328 0.2706 -0.70711
endloop
endfacet
facet normal 0.25965785755515447 -0.17348867727909806 -0.9499891977626986
outer loop
vertex 0.2706 -0.2706 -0.92388
vertex 0.35355 -0.14645 -0.92388
vertex 1 -1.5 -0.5
endloop
endfacet
facet normal 0.796939559590688 0.5325035977390118 -0.2851793413878522
outer loop
vertex 0.65328 0.65328 -0.38268
vertex 0.69352 0.69352 -0.19509
vertex 0.90613 0.37533 -0.19509
endloop
endfacet
facet normal 0.796940792438532 0.5324903496535713 -0.28520063266630813
outer loop
vertex 0.65328 0.65328 -0.38268
vertex 0.90613 0.37533 -0.19509
vertex 0.85355 0.35355 -0.38268
endloop
endfacet
facet normal -0.7640267536627248 -0.15198654896402303 -0.627027279009139
outer loop
vertex -0.70711 0 -0.70711
vertex -0.65328 -0.2706 -0.70711
vertex -0.76818 -0.31819 -0.55557
endloop
endfacet
facet normal -0.7640456078948519 -0.15197349547020708 -0.6270074686406482
outer loop
vertex -0.70711 0 -0.70711
vertex -0.76818 -0.31819 -0.55557
vertex -0.83147 0 -0.55557
endloop
endfacet
facet normal -0.7640456078948519 0.15197349547020708 -0.6270074686406482
outer loop
vertex -0.70711 0 -0.70711
vertex -0.83147 0 -0.55557
vertex -0.76818 0.31819 -0.55557
endloop
endfacet
facet normal -0.7640267536627248 0.15198654896402303 -0.627027279009139
outer loop
vertex -0.70711 0 -0.70711
vertex -0.76818 0.31819 -0.55557
vertex -0.65328 0.2706 -0.70711
endloop
endfacet
facet normal -0.055498845108430284 0.08305797840890228 -0.9949981157842747
outer loop
vertex -0.13795 0.13795 -0.98079
vertex -0.07466 0.18024 -0.98079
vertex 0 0 -1
endloop
endfacet
facet normal -0.08305797840890307 0.05549884510842913 -0.9949981157842747
outer loop
vertex -0.13795 0.13795 -0.98079
vertex 0 0 -1
vertex -0.18024 0.07466 -0.98079
endloop
endfacet
facet normal -0.09797484774406777 0.019487362563614004 -0.994998076334744
outer loop
vertex -0.19509 0 -0.98079
vertex -0.18024 0.07466 -0.98079
vertex 0 0 -1
endloop
endfacet
facet normal -0.09797484774406777 -0.019487362563614004 -0.994998076334744
outer loop
vertex -0.19509 0 -0.98079
vertex 0 0 -1
vertex -0.18024 -0.07466 -0.98079
endloop
endfacet
facet normal -0.08305797840890307 -0.05549884510842913 -0.9949981157842747
outer loop
vertex -0.13795 -0.13795 -0.98079
vertex -0.18024 -0.07466 -0.98079
vertex 0 0 -1
endloop
endfacet
facet normal -0.055498845108430284 -0.08305797840890228 -0.9949981157842747
outer loop
vertex -0.13795 -0.13795 -0.98079
vertex 0 0 -1
vertex -0.07466 -0.18024 -0.98079
endloop
endfacet
facet normal 0.19819396788184068 -0.21233348258923515 -0.956887476805282
outer loop
vertex 0.13795 -0.13795 -0.98079
vertex 0.2706 -0.2706 -0.92388
vertex 1 -1.5 -0.5
endloop
endfacet
facet normal 0.1588442167253123 -0.23772169488165137 -0.9582572256943942
outer loop
vertex 0.13795 -0.13795 -0.98079
vertex 1 -1.5 -0.5
vertex 0.07466 -0.18024 -0.98079
endloop
endfacet
facet normal 0.055498845108430284 -0.08305797840890228 -0.9949981157842747
outer loop
vertex 0.13795 -0.13795 -0.98079
vertex 0.07466 -0.18024 -0.98079
vertex 0 0 -1
endloop
endfacet
facet normal 0.4693320943938187 0.09335428376800033 -0.8780730965438329
outer loop
vertex 0.35355 0.14645 -0.92388
vertex 0.51328 0.21261 -0.83147
vertex 0.55557 0 -0.83147
endloop
endfacet
facet normal 0.46933171601475787 0.09335358748726486 -0.8780733728145389
outer loop
vertex 0.35355 0.14645 -0.92388
vertex 0.55557 0 -0.83147
vertex 0.38268 0 -0.92388
endloop
endfacet
facet normal 0.7364271885373851 0.4920570948799988 -0.46427880778814207
outer loop
vertex 0.58794 0.58794 -0.55557
vertex 0.65328 0.65328 -0.38268
vertex 0.85355 0.35355 -0.38268
endloop
endfacet
facet normal 0.7364276517289803 0.4920619831237489 -0.4642728923093221
outer loop
vertex 0.58794 0.58794 -0.55557
vertex 0.85355 0.35355 -0.38268
vertex 0.76818 0.31819 -0.55557
endloop
endfacet
facet normal 0 1 0
outer loop
vertex 0 1 0
vertex 0 1 3.5
vertex 1 1 3.5
endloop
endfacet
facet normal 0 1 0
outer loop
vertex 0 1 0
vertex 1 1 3.5
vertex 1 1 2.5
endloop
endfacet
facet normal 0.1944995325289109 0.9778124160294758 -0.07779981301156436
outer loop
vertex 0 1 0
vertex 1 1 2.5
vertex 0.38268 0.92388 0
endloop
endfacet
facet normal -0.7364249377131843 0.49206016968831967 -0.46427911919494574
outer loop
vertex -0.65328 0.65328 -0.38268
vertex -0.58794 0.58794 -0.55557
vertex -0.76818 0.31819 -0.55557
endloop
endfacet
facet normal -0.7364296311022477 0.4920587269237217 -0.4642732037204103
outer loop
vertex -0.65328 0.65328 -0.38268
vertex -0.76818 0.31819 -0.55557
vertex -0.85355 0.35355 -0.38268
endloop
endfacet
facet normal -0.5550526592295025 0.8307225826167249 0.042620842470046015
outer loop
vertex -0.38268 0.92388 0
vertex -0.70711 0.70711 0
vertex 0 1 3.5
endloop
endfacet
facet normal -0.19509085269459775 0.9807851748445704 0
outer loop
vertex -0.38268 0.92388 0
vertex 0 1 3.5
vertex 0 1 0
endloop
endfacet
facet normal 0.17278208600610165 0.8686606406427776 -0.46430059460812634
outer loop
vertex 0.31819 0.76818 -0.55557
vertex 0 0.83147 -0.55557
vertex 0 0.92388 -0.38268
endloop
endfacet
facet normal 0.17280041195936205 0.8686703490435449 -0.46427561029978837
outer loop
vertex 0.31819 0.76818 -0.55557
vertex 0 0.92388 -0.38268
vertex 0.35355 0.85355 -0.38268
endloop
endfacet
facet normal 0.49205872692372193 0.736429631102248 -0.4642732037204097
outer loop
vertex 0.31819 0.76818 -0.55557
vertex 0.35355 0.85355 -0.38268
vertex 0.65328 0.65328 -0.38268
endloop
endfacet
facet normal 0.49206016968831967 0.7364249377131843 -0.46427911919494574
outer loop
vertex 0.31819 0.76818 -0.55557
vertex 0.65328 0.65328 -0.38268
vertex 0.58794 0.58794 -0.55557
endloop
endfacet
facet normal -0.35651940320902487 0.5335801480893029 -0.7669329440703916
outer loop
vertex -0.2706 0.65328 -0.70711
vertex -0.21261 0.51328 -0.83147
vertex -0.39285 0.39285 -0.83147
endloop
endfacet
facet normal -0.3565274358086183 0.533581639969317 -0.7669281719974731
outer loop
vertex -0.2706 0.65328 -0.70711
vertex -0.39285 0.39285 -0.83147
vertex -0.5 0.5 -0.70711
endloop
endfacet
facet normal -0.8276270442420626 0.552984355270327 -0.09613416908367167
outer loop
vertex -0.90613 0.37533 -0.19509
vertex -0.92388 0.38268 0
vertex -0.70711 0.70711 0
endloop
endfacet
facet normal -0.8276127054870838 0.5529989544410848 -0.09617362478047994
outer loop
vertex -0.90613 0.37533 -0.19509
vertex -0.70711 0.70711 0
vertex -0.69352 0.69352 -0.19509
endloop
endfacet
facet normal -0.796939559590688 0.5325035977390118 -0.2851793413878523
outer loop
vertex -0.90613 0.37533 -0.19509
vertex -0.69352 0.69352 -0.19509
vertex -0.65328 0.65328 -0.38268
endloop
endfacet
facet normal -0.7969407924385318 0.5324903496535711 -0.28520063266630824
outer loop
vertex -0.90613 0.37533 -0.19509
vertex -0.65328 0.65328 -0.38268
vertex -0.85355 0.35355 -0.38268
endloop
endfacet
facet normal -0.9762421865096775 0.19418719357457007 -0.09613806285980783
outer loop
vertex -1 0 0
vertex -0.92388 0.38268 0
vertex -0.90613 0.37533 -0.19509
endloop
endfacet
facet normal -0.9762421393428483 0.1941924123393735 -0.09612799988095787
outer loop
vertex -1 0 0
vertex -0.90613 0.37533 -0.19509
vertex -0.98079 0 -0.19509
endloop
endfacet
facet normal -0.9762421393428483 -0.1941924123393735 -0.09612799988095787
outer loop
vertex -1 0 0
vertex -0.98079 0 -0.19509
vertex -0.90613 -0.37533 -0.19509
endloop
endfacet
facet normal -0.9762421865096775 -0.19418719357457007 -0.09613806285980783
outer loop
vertex -1 0 0
vertex -0.90613 -0.37533 -0.19509
vertex -0.92388 -0.38268 0
endloop
endfacet
facet normal -0.9762421865096775 -0.19418719357457007 0.09613806285980783
outer loop
vertex -1 0 0
vertex -0.92388 -0.38268 0
vertex -0.90613 -0.37533 0.19509
endloop
endfacet
facet normal -0.9762421393428483 -0.1941924123393735 0.09612799988095787
outer loop
vertex -1 0 0
vertex -0.90613 -0.37533 0.19509
vertex -0.98079 0 0.19509
endloop
endfacet
facet normal -0.9762421393428483 0.1941924123393735 0.09612799988095787
outer loop
vertex -1 0 0
vertex -0.98079 0 0.19509
vertex -0.90613 0.37533 0.19509
endloop
endfacet
facet normal -0.9762421865096775 0.19418719357457007 0.09613806285980783
outer loop
vertex -1 0 0
vertex -0.90613 0.37533 0.19509
vertex -0.92388 0.38268 0
endloop
endfacet
facet normal -0.8686606406427773 -0.1727820860061007 -0.4643005946081268
outer loop
vertex -0.92388 0 -0.38268
vertex -0.83147 0 -0.55557
vertex -0.76818 -0.31819 -0.55557
endloop
endfacet
facet normal -0.8686703490435442 -0.17280041195936272 -0.46427561029978875
outer loop
vertex -0.92388 0 -0.38268
vertex -0.76818 -0.31819 -0.55557
vertex -0.85355 -0.35355 -0.38268
endloop
endfacet
facet normal -0.9400490880937897 -0.18699944100024407 -0.2851997914438762
outer loop
vertex -0.92388 0 -0.38268
vertex -0.85355 -0.35355 -0.38268
vertex -0.90613 -0.37533 -0.19509
endloop
endfacet
facet normal -0.9400537090769677 -0.18699387184527286 -0.2851882114375513
outer loop
vertex -0.92388 0 -0.38268
vertex -0.90613 -0.37533 -0.19509
vertex -0.98079 0 -0.19509
endloop
endfacet
facet normal -0.9400537090769677 0.18699387184527286 -0.2851882114375513
outer loop
vertex -0.92388 0 -0.38268
vertex -0.98079 0 -0.19509
vertex -0.90613 0.37533 -0.19509
endloop
endfacet
facet normal -0.9400490880937897 0.18699944100024407 -0.2851997914438762
outer loop
vertex -0.92388 0 -0.38268
vertex -0.90613 0.37533 -0.19509
vertex -0.85355 0.35355 -0.38268
endloop
endfacet
facet normal -0.8686703490435442 0.17280041195936272 -0.46427561029978875
outer loop
vertex -0.92388 0 -0.38268
vertex -0.85355 0.35355 -0.38268
vertex -0.76818 0.31819 -0.55557
endloop
endfacet
facet normal -0.8686606406427773 0.1727820860061007 -0.4643005946081268
outer loop
vertex -0.92388 0 -0.38268
vertex -0.76818 0.31819 -0.55557
vertex -0.83147 0 -0.55557
endloop
endfacet
facet normal -0.2658543916081207 0.39788753253713893 -0.878070016521566
outer loop
vertex -0.2706 0.2706 -0.92388
vertex -0.39285 0.39285 -0.83147
vertex -0.21261 0.51328 -0.83147
endloop
endfacet
facet normal -0.2658452765189045 0.39788657118531656 -0.8780732118809794
outer loop
vertex -0.2706 0.2706 -0.92388
vertex -0.21261 0.51328 -0.83147
vertex -0.14645 0.35355 -0.92388
endloop
endfacet
facet normal -0.16416588131598625 0.24570457101121 -0.9553422565740212
outer loop
vertex -0.2706 0.2706 -0.92388
vertex -0.14645 0.35355 -0.92388
vertex -0.07466 0.18024 -0.98079
endloop
endfacet
facet normal -0.16417127088594155 0.24569401121710008 -0.955344046230334
outer loop
vertex -0.2706 0.2706 -0.92388
vertex -0.07466 0.18024 -0.98079
vertex -0.13795 0.13795 -0.98079
endloop
endfacet
facet normal -0.2456940112170994 0.16417127088594038 -0.9553440462303342
outer loop
vertex -0.2706 0.2706 -0.92388
vertex -0.13795 0.13795 -0.98079
vertex -0.18024 0.07466 -0.98079
endloop
endfacet
facet normal -0.24570457101120982 0.16416588131598756 -0.9553422565740209
outer loop
vertex -0.2706 0.2706 -0.92388
vertex -0.18024 0.07466 -0.98079
vertex -0.35355 0.14645 -0.92388
endloop
endfacet
facet normal -0.5335774670887105 0.35652464758220354 -0.766932371387192
outer loop
vertex -0.51328 0.21261 -0.83147
vertex -0.65328 0.2706 -0.70711
vertex -0.5 0.5 -0.70711
endloop
endfacet
facet normal -0.5335854591771456 0.356522951890279 -0.7669275992752878
outer loop
vertex -0.51328 0.21261 -0.83147
vertex -0.5 0.5 -0.70711
vertex -0.39285 0.39285 -0.83147
endloop
endfacet
facet normal -0.39788753253713877 0.26585439160812024 -0.8780700165215664
outer loop
vertex -0.51328 0.21261 -0.83147
vertex -0.39285 0.39285 -0.83147
vertex -0.2706 0.2706 -0.92388
endloop
endfacet
facet normal -0.39788657118531673 0.26584527651890477 -0.8780732118809792
outer loop
vertex -0.51328 0.21261 -0.83147
vertex -0.2706 0.2706 -0.92388
vertex -0.35355 0.14645 -0.92388
endloop
endfacet
facet normal -0.6293852262832286 0.12519026019245455 -0.7669430459228083
outer loop
vertex -0.51328 0.21261 -0.83147
vertex -0.55557 0 -0.83147
vertex -0.70711 0 -0.70711
endloop
endfacet
facet normal -0.6293943909428821 0.1252043609181646 -0.766933223075329
outer loop
vertex -0.51328 0.21261 -0.83147
vertex -0.70711 0 -0.70711
vertex -0.65328 0.2706 -0.70711
endloop
endfacet
facet normal -0.05764715287511114 0.2898273692697527 -0.9553412488674233
outer loop
vertex 0 0.19509 -0.98079
vertex -0.07466 0.18024 -0.98079
vertex -0.14645 0.35355 -0.92388
endloop
endfacet
facet normal -0.057648587396575024 0.2898261456995696 -0.955341533505223
outer loop
vertex 0 0.19509 -0.98079
vertex -0.14645 0.35355 -0.92388
vertex 0 0.38268 -0.92388
endloop
endfacet
facet normal 0.057648587396575024 0.2898261456995696 -0.955341533505223
outer loop
vertex 0 0.19509 -0.98079
vertex 0 0.38268 -0.92388
vertex 0.14645 0.35355 -0.92388
endloop
endfacet
facet normal 0.05764715287511114 0.2898273692697527 -0.9553412488674233
outer loop
vertex 0 0.19509 -0.98079
vertex 0.14645 0.35355 -0.92388
vertex 0.07466 0.18024 -0.98079
endloop
endfacet
facet normal 0.01948736256361344 0.09797484774406877 -0.994998076334744
outer loop
vertex 0 0.19509 -0.98079
vertex 0.07466 0.18024 -0.98079
vertex 0 0 -1
endloop
endfacet
facet normal -0.01948736256361344 0.09797484774406877 -0.994998076334744
outer loop
vertex 0 0.19509 -0.98079
vertex 0 0 -1
vertex -0.07466 0.18024 -0.98079
endloop
endfacet
facet normal -0.6293943909428821 -0.1252043609181646 -0.766933223075329
outer loop
vertex -0.51328 -0.21261 -0.83147
vertex -0.65328 -0.2706 -0.70711
vertex -0.70711 0 -0.70711
endloop
endfacet
facet normal -0.6293852262832286 -0.12519026019245455 -0.7669430459228083
outer loop
vertex -0.51328 -0.21261 -0.83147
vertex -0.70711 0 -0.70711
vertex -0.55557 0 -0.83147
endloop
endfacet
facet normal -0.5335854591771456 -0.356522951890279 -0.7669275992752878
outer loop
vertex -0.51328 -0.21261 -0.83147
vertex -0.39285 -0.39285 -0.83147
vertex -0.5 -0.5 -0.70711
endloop
endfacet
facet normal -0.5335774670887105 -0.35652464758220354 -0.766932371387192
outer loop
vertex -0.51328 -0.21261 -0.83147
vertex -0.5 -0.5 -0.70711
vertex -0.65328 -0.2706 -0.70711
endloop
endfacet
facet normal -0.24290225167138632 -0.3635480957806254 -0.8993504757252602
outer loop
vertex -0.2706 -0.2706 -0.92388
vertex -0.14645 -0.35355 -0.92388
vertex 0 -1.5 -0.5
endloop
endfacet
facet normal -0.29678222282453304 -0.369001637507885 -0.8807713118238063
outer loop
vertex -0.2706 -0.2706 -0.92388
vertex 0 -1.5 -0.5
vertex -0.39285 -0.39285 -0.83147
endloop
endfacet
facet normal -0.39788753253713877 -0.26585439160812024 -0.8780700165215664
outer loop
vertex -0.2706 -0.2706 -0.92388
vertex -0.39285 -0.39285 -0.83147
vertex -0.51328 -0.21261 -0.83147
endloop
endfacet
facet normal -0.3978865711853164 -0.2658452765189049 -0.8780732118809793
outer loop
vertex -0.2706 -0.2706 -0.92388
vertex -0.51328 -0.21261 -0.83147
vertex -0.35355 -0.14645 -0.92388
endloop
endfacet
facet normal -0.24570457101120982 -0.16416588131598756 -0.9553422565740209
outer loop
vertex -0.2706 -0.2706 -0.92388
vertex -0.35355 -0.14645 -0.92388
vertex -0.18024 -0.07466 -0.98079
endloop
endfacet
facet normal -0.2456940112170994 -0.16417127088594038 -0.9553440462303342
outer loop
vertex -0.2706 -0.2706 -0.92388
vertex -0.18024 -0.07466 -0.98079
vertex -0.13795 -0.13795 -0.98079
endloop
endfacet
facet normal -0.16417127088594155 -0.24569401121710008 -0.955344046230334
outer loop
vertex -0.2706 -0.2706 -0.92388
vertex -0.13795 -0.13795 -0.98079
vertex -0.07466 -0.18024 -0.98079
endloop
endfacet
facet normal -0.16416588131598625 -0.24570457101121 -0.9553422565740212
outer loop
vertex -0.2706 -0.2706 -0.92388
vertex -0.07466 -0.18024 -0.98079
vertex -0.14645 -0.35355 -0.92388
endloop
endfacet
facet normal -0.28982675518089074 0.057648708626967186 -0.9553413412885254
outer loop
vertex -0.38268 0 -0.92388
vertex -0.35355 0.14645 -0.92388
vertex -0.18024 0.07466 -0.98079
endloop
endfacet
facet normal -0.2898261737334926 0.05764691508093193 -0.9553416259122467
outer loop
vertex -0.38268 0 -0.92388
vertex -0.18024 0.07466 -0.98079
vertex -0.19509 0 -0.98079
endloop
endfacet
facet normal -0.2898261737334926 -0.05764691508093193 -0.9553416259122467
outer loop
vertex -0.38268 0 -0.92388
vertex -0.19509 0 -0.98079
vertex -0.18024 -0.07466 -0.98079
endloop
endfacet
facet normal -0.28982675518089074 -0.057648708626967186 -0.9553413412885254
outer loop
vertex -0.38268 0 -0.92388
vertex -0.18024 -0.07466 -0.98079
vertex -0.35355 -0.14645 -0.92388
endloop
endfacet
facet normal -0.46933230483122695 -0.09335370460726254 -0.8780730456390905
outer loop
vertex -0.38268 0 -0.92388
vertex -0.35355 -0.14645 -0.92388
vertex -0.51328 -0.21261 -0.83147
endloop
endfacet
facet normal -0.46933168880552006 -0.09335420309291884 -0.8780733219087371
outer loop
vertex -0.38268 0 -0.92388
vertex -0.51328 -0.21261 -0.83147
vertex -0.55557 0 -0.83147
endloop
endfacet
facet normal -0.46933168880552006 0.09335420309291884 -0.8780733219087371
outer loop
vertex -0.38268 0 -0.92388
vertex -0.55557 0 -0.83147
vertex -0.51328 0.21261 -0.83147
endloop
endfacet
facet normal -0.46933230483122695 0.09335370460726254 -0.8780730456390905
outer loop
vertex -0.38268 0 -0.92388
vertex -0.51328 0.21261 -0.83147
vertex -0.35355 0.14645 -0.92388
endloop
endfacet
facet normal 0.2898261737334926 -0.05764691508093193 -0.9553416259122467
outer loop
vertex 0.18024 -0.07466 -0.98079
vertex 0.19509 0 -0.98079
vertex 0.38268 0 -0.92388
endloop
endfacet
facet normal 0.28982675518088985 -0.0576487086269672 -0.9553413412885257
outer loop
vertex 0.18024 -0.07466 -0.98079
vertex 0.38268 0 -0.92388
vertex 0.35355 -0.14645 -0.92388
endloop
endfacet
facet normal 0.24570457101120982 -0.16416588131598756 -0.9553422565740209
outer loop
vertex 0.18024 -0.07466 -0.98079
vertex 0.35355 -0.14645 -0.92388
vertex 0.2706 -0.2706 -0.92388
endloop
endfacet
facet normal 0.2456940112170994 -0.16417127088594038 -0.9553440462303342
outer loop
vertex 0.18024 -0.07466 -0.98079
vertex 0.2706 -0.2706 -0.92388
vertex 0.13795 -0.13795 -0.98079
endloop
endfacet
facet normal 0.08305797840890307 -0.05549884510842913 -0.9949981157842747
outer loop
vertex 0.18024 -0.07466 -0.98079
vertex 0.13795 -0.13795 -0.98079
vertex 0 0 -1
endloop
endfacet
facet normal 0.09797484774406777 -0.019487362563614004 -0.994998076334744
outer loop
vertex 0.18024 -0.07466 -0.98079
vertex 0 0 -1
vertex 0.19509 0 -0.98079
endloop
endfacet
facet normal 0.055498845108430284 0.08305797840890228 -0.9949981157842747
outer loop
vertex 0.13795 0.13795 -0.98079
vertex 0 0 -1
vertex 0.07466 0.18024 -0.98079
endloop
endfacet
facet normal 0.09335428376800133 0.46933209439381884 -0.8780730965438327
outer loop
vertex 0 0.55557 -0.83147
vertex 0.21261 0.51328 -0.83147
vertex 0.14645 0.35355 -0.92388
endloop
endfacet
facet normal 0.0933535874872644 0.4693317160147582 -0.8780733728145389
outer loop
vertex 0 0.55557 -0.83147
vertex 0.14645 0.35355 -0.92388
vertex 0 0.38268 -0.92388
endloop
endfacet
facet normal -0.0933535874872644 0.4693317160147582 -0.8780733728145389
outer loop
vertex 0 0.55557 -0.83147
vertex 0 0.38268 -0.92388
vertex -0.14645 0.35355 -0.92388
endloop
endfacet
facet normal -0.09335428376800133 0.46933209439381884 -0.8780730965438327
outer loop
vertex 0 0.55557 -0.83147
vertex -0.14645 0.35355 -0.92388
vertex -0.21261 0.51328 -0.83147
endloop
endfacet
facet normal 0.3565229518902787 0.5335854591771471 -0.7669275992752869
outer loop
vertex 0.5 0.5 -0.70711
vertex 0.39285 0.39285 -0.83147
vertex 0.21261 0.51328 -0.83147
endloop
endfacet
facet normal 0.35652464758220304 0.5335774670887093 -0.7669323713871931
outer loop
vertex 0.5 0.5 -0.70711
vertex 0.21261 0.51328 -0.83147
vertex 0.2706 0.65328 -0.70711
endloop
endfacet
facet normal 0.43278943902226336 0.6477159271379659 -0.627022630534656
outer loop
vertex 0.5 0.5 -0.70711
vertex 0.2706 0.65328 -0.70711
vertex 0.31819 0.76818 -0.55557
endloop
endfacet
facet normal 0.4327867701837404 0.647715441949978 -0.6270249738355491
outer loop
vertex 0.5 0.5 -0.70711
vertex 0.31819 0.76818 -0.55557
vertex 0.58794 0.58794 -0.55557
endloop
endfacet
facet normal 0.6477154419499773 0.4327867701837404 -0.6270249738355497
outer loop
vertex 0.5 0.5 -0.70711
vertex 0.58794 0.58794 -0.55557
vertex 0.76818 0.31819 -0.55557
endloop
endfacet
facet normal 0.6477159271379659 0.4327894390222632 -0.6270226305346563
outer loop
vertex 0.5 0.5 -0.70711
vertex 0.76818 0.31819 -0.55557
vertex 0.65328 0.2706 -0.70711
endloop
endfacet
facet normal 0.5335774670887103 0.3565246475822036 -0.7669323713871921
outer loop
vertex 0.5 0.5 -0.70711
vertex 0.65328 0.2706 -0.70711
vertex 0.51328 0.21261 -0.83147
endloop
endfacet
facet normal 0.5335854591771456 0.356522951890279 -0.7669275992752878
outer loop
vertex 0.5 0.5 -0.70711
vertex 0.51328 0.21261 -0.83147
vertex 0.39285 0.39285 -0.83147
endloop
endfacet
facet normal 0.27657732320392636 0.9560425684008953 -0.09740426938676996
outer loop
vertex 0.37533 0.90613 -0.19509
vertex 0.38268 0.92388 0
vertex 1 1 2.5
endloop
endfacet
facet normal 0.5487894965881648 0.821312872957002 -0.1558051769025165
outer loop
vertex 0.37533 0.90613 -0.19509
vertex 1 1 2.5
vertex 0.69352 0.69352 -0.19509
endloop
endfacet
facet normal 0.5325035977390119 0.796939559590688 -0.2851793413878519
outer loop
vertex 0.37533 0.90613 -0.19509
vertex 0.69352 0.69352 -0.19509
vertex 0.65328 0.65328 -0.38268
endloop
endfacet
facet normal 0.532490349653571 0.7969407924385318 -0.28520063266630863
outer loop
vertex 0.37533 0.90613 -0.19509
vertex 0.65328 0.65328 -0.38268
vertex 0.35355 0.85355 -0.38268
endloop
endfacet
facet normal 0.1941873813418592 0.9762431304769144 -0.0961280974753265
outer loop
vertex 0 0.98079 -0.19509
vertex 0 1 0
vertex 0.38268 0.92388 0
endloop
endfacet
facet normal 0.19419222089031984 0.9762411768920934 -0.0961381604048325
outer loop
vertex 0 0.98079 -0.19509
vertex 0.38268 0.92388 0
vertex 0.37533 0.90613 -0.19509
endloop
endfacet
facet normal 0.1869932197009073 0.9400504306233786 -0.2851994454249314
outer loop
vertex 0 0.98079 -0.19509
vertex 0.37533 0.90613 -0.19509
vertex 0.35355 0.85355 -0.38268
endloop
endfacet
facet normal 0.1870001333413315 0.9400525685031671 -0.2851878654166807
outer loop
vertex 0 0.98079 -0.19509
vertex 0.35355 0.85355 -0.38268
vertex 0 0.92388 -0.38268
endloop
endfacet
facet normal -0.43278943902226336 0.6477159271379659 -0.627022630534656
outer loop
vertex -0.31819 0.76818 -0.55557
vertex -0.2706 0.65328 -0.70711
vertex -0.5 0.5 -0.70711
endloop
endfacet
facet normal -0.4327867701837403 0.6477154419499779 -0.6270249738355491
outer loop
vertex -0.31819 0.76818 -0.55557
vertex -0.5 0.5 -0.70711
vertex -0.58794 0.58794 -0.55557
endloop
endfacet
facet normal -0.49206016968831967 0.7364249377131843 -0.46427911919494574
outer loop
vertex -0.31819 0.76818 -0.55557
vertex -0.58794 0.58794 -0.55557
vertex -0.65328 0.65328 -0.38268
endloop
endfacet
facet normal -0.49205872692372193 0.736429631102248 -0.4642732037204097
outer loop
vertex -0.31819 0.76818 -0.55557
vertex -0.65328 0.65328 -0.38268
vertex -0.35355 0.85355 -0.38268
endloop
endfacet
facet normal -0.17280041195936205 0.8686703490435449 -0.46427561029978837
outer loop
vertex -0.31819 0.76818 -0.55557
vertex -0.35355 0.85355 -0.38268
vertex 0 0.92388 -0.38268
endloop
endfacet
facet normal -0.17278208600610165 0.8686606406427776 -0.46430059460812634
outer loop
vertex -0.31819 0.76818 -0.55557
vertex 0 0.92388 -0.38268
vertex 0 0.83147 -0.55557
endloop
endfacet
facet normal 0.09797484774406777 0.019487362563614004 -0.994998076334744
outer loop
vertex 0.18024 0.07466 -0.98079
vertex 0.19509 0 -0.98079
vertex 0 0 -1
endloop
endfacet
facet normal 0.08305797840890307 0.05549884510842913 -0.9949981157842747
outer loop
vertex 0.18024 0.07466 -0.98079
vertex 0 0 -1
vertex 0.13795 0.13795 -0.98079
endloop
endfacet
facet normal 0.28982675518088985 0.0576487086269672 -0.9553413412885257
outer loop
vertex 0.18024 0.07466 -0.98079
vertex 0.35355 0.14645 -0.92388
vertex 0.38268 0 -0.92388
endloop
endfacet
facet normal 0.2898261737334926 0.05764691508093193 -0.9553416259122467
outer loop
vertex 0.18024 0.07466 -0.98079
vertex 0.38268 0 -0.92388
vertex 0.19509 0 -0.98079
endloop
endfacet
facet normal 0.24570457101120982 0.16416588131598756 -0.9553422565740209
outer loop
vertex 0.2706 0.2706 -0.92388
vertex 0.35355 0.14645 -0.92388
vertex 0.18024 0.07466 -0.98079
endloop
endfacet
facet normal 0.2456940112170994 0.16417127088594038 -0.9553440462303342
outer loop
vertex 0.2706 0.2706 -0.92388
vertex 0.18024 0.07466 -0.98079
vertex 0.13795 0.13795 -0.98079
endloop
endfacet
facet normal 0.16417127088594155 0.24569401121710008 -0.955344046230334
outer loop
vertex 0.2706 0.2706 -0.92388
vertex 0.13795 0.13795 -0.98079
vertex 0.07466 0.18024 -0.98079
endloop
endfacet
facet normal 0.16416588131598625 0.24570457101121 -0.9553422565740212
outer loop
vertex 0.2706 0.2706 -0.92388
vertex 0.07466 0.18024 -0.98079
vertex 0.14645 0.35355 -0.92388
endloop
endfacet
facet normal 0.2658452765189045 0.39788657118531656 -0.8780732118809794
outer loop
vertex 0.2706 0.2706 -0.92388
vertex 0.14645 0.35355 -0.92388
vertex 0.21261 0.51328 -0.83147
endloop
endfacet
facet normal 0.2658543916081207 0.39788753253713893 -0.878070016521566
outer loop
vertex 0.2706 0.2706 -0.92388
vertex 0.21261 0.51328 -0.83147
vertex 0.39285 0.39285 -0.83147
endloop
endfacet
facet normal 0.39788753253713877 0.26585439160812024 -0.8780700165215664
outer loop
vertex 0.2706 0.2706 -0.92388
vertex 0.39285 0.39285 -0.83147
vertex 0.51328 0.21261 -0.83147
endloop
endfacet
facet normal 0.3978865711853164 0.2658452765189049 -0.8780732118809793
outer loop
vertex 0.2706 0.2706 -0.92388
vertex 0.51328 0.21261 -0.83147
vertex 0.35355 0.14645 -0.92388
endloop
endfacet
facet normal 0.15197349547020716 0.7640456078948514 -0.6270074686406488
outer loop
vertex 0 0.70711 -0.70711
vertex 0 0.83147 -0.55557
vertex 0.31819 0.76818 -0.55557
endloop
endfacet
facet normal 0.15198654896402308 0.7640267536627253 -0.6270272790091385
outer loop
vertex 0 0.70711 -0.70711
vertex 0.31819 0.76818 -0.55557
vertex 0.2706 0.65328 -0.70711
endloop
endfacet
facet normal 0.1252043609181646 0.6293943909428824 -0.766933223075329
outer loop
vertex 0 0.70711 -0.70711
vertex 0.2706 0.65328 -0.70711
vertex 0.21261 0.51328 -0.83147
endloop
endfacet
facet normal 0.12519026019245483 0.6293852262832283 -0.7669430459228084
outer loop
vertex 0 0.70711 -0.70711
vertex 0.21261 0.51328 -0.83147
vertex 0 0.55557 -0.83147
endloop
endfacet
facet normal -0.12519026019245483 0.6293852262832283 -0.7669430459228084
outer loop
vertex 0 0.70711 -0.70711
vertex 0 0.55557 -0.83147
vertex -0.21261 0.51328 -0.83147
endloop
endfacet
facet normal -0.1252043609181646 0.6293943909428824 -0.766933223075329
outer loop
vertex 0 0.70711 -0.70711
vertex -0.21261 0.51328 -0.83147
vertex -0.2706 0.65328 -0.70711
endloop
endfacet
facet normal -0.15198654896402308 0.7640267536627253 -0.6270272790091385
outer loop
vertex 0 0.70711 -0.70711
vertex -0.2706 0.65328 -0.70711
vertex -0.31819 0.76818 -0.55557
endloop
endfacet
facet normal -0.15197349547020716 0.7640456078948514 -0.6270074686406488
outer loop
vertex 0 0.70711 -0.70711
vertex -0.31819 0.76818 -0.55557
vertex 0 0.83147 -0.55557
endloop
endfacet
facet normal -0.19418719357457043 0.9762421865096776 -0.09613806285980757
outer loop
vertex -0.37533 0.90613 -0.19509
vertex -0.38268 0.92388 0
vertex 0 1 0
endloop
endfacet
facet normal -0.1941924123393736 0.9762421393428482 -0.09612799988095956
outer loop
vertex -0.37533 0.90613 -0.19509
vertex 0 1 0
vertex 0 0.98079 -0.19509
endloop
endfacet
facet normal -0.18699387184527347 0.9400537090769681 -0.2851882114375498
outer loop
vertex -0.37533 0.90613 -0.19509
vertex 0 0.98079 -0.19509
vertex 0 0.92388 -0.38268
endloop
endfacet
facet normal -0.18699944100024404 0.9400490880937897 -0.2851997914438767
outer loop
vertex -0.37533 0.90613 -0.19509
vertex 0 0.92388 -0.38268
vertex -0.35355 0.85355 -0.38268
endloop
endfacet
facet normal -0.532490349653571 0.7969407924385318 -0.28520063266630863
outer loop
vertex -0.37533 0.90613 -0.19509
vertex -0.35355 0.85355 -0.38268
vertex -0.65328 0.65328 -0.38268
endloop
endfacet
facet normal -0.5325035977390119 0.796939559590688 -0.2851793413878519
outer loop
vertex -0.37533 0.90613 -0.19509
vertex -0.65328 0.65328 -0.38268
vertex -0.69352 0.69352 -0.19509
endloop
endfacet
facet normal -0.5529989544410849 0.8276127054870835 -0.09617362478048012
outer loop
vertex -0.37533 0.90613 -0.19509
vertex -0.69352 0.69352 -0.19509
vertex -0.70711 0.70711 0
endloop
endfacet
facet normal -0.5529843552703264 0.8276270442420628 -0.09613416908367278
outer loop
vertex -0.37533 0.90613 -0.19509
vertex -0.70711 0.70711 0
vertex -0.38268 0.92388 0
endloop
endfacet
endsolid JSxCAD
