solid JSxCAD
facet normal 0 -1 0
outer loop
vertex 0 -1.5 -0.5
vertex 1 -1.5 0.5
vertex 0 -1.5 0.5
endloop
endfacet
facet normal 0 -1 0
outer loop
vertex 1 -1.5 0.5
vertex 0 -1.5 -0.5
vertex 1 -1.5 -0.5
endloop
endfacet
facet normal 0 -0.894427190999916 0.447213595499958
outer loop
vertex 1 0 3.5
vertex 0 -1.5 0.5
vertex 1 -1.5 0.5
endloop
endfacet
facet normal 0 -0.894427190999916 0.447213595499958
outer loop
vertex 0 -1.5 0.5
vertex 1 0 3.5
vertex 0 0 3.5
endloop
endfacet
facet normal 0 0 1
outer loop
vertex 0 1 3.5
vertex 1 0 3.5
vertex 1 1 3.5
endloop
endfacet
facet normal 0 0 1
outer loop
vertex 1 0 3.5
vertex 0 1 3.5
vertex 0 0 3.5
endloop
endfacet
facet normal -0.7456463532839217 -0.6663418910997485 0
outer loop
vertex 0 -1.5 0.5
vertex -0.76604 -0.64279 0
vertex 0 -1.5 -0.5
endloop
endfacet
facet normal 1 0 0
outer loop
vertex 1 0 3.5
vertex 1 1 2.5
vertex 1 1 3.5
endloop
endfacet
facet normal 1 0 0
outer loop
vertex 1 -1.5 0.5
vertex 1 1 2.5
vertex 1 0 3.5
endloop
endfacet
facet normal 1 0 0
outer loop
vertex 1 -1.5 0.5
vertex 1 0 0
vertex 1 1 2.5
endloop
endfacet
facet normal 1 0 0
outer loop
vertex 1 -1.5 -0.5
vertex 1 0 0
vertex 1 -1.5 0.5
endloop
endfacet
facet normal 1 0 0
outer loop
vertex 1 0 0
vertex 1 -1.5 -0.5
vertex 1 -0.5 -0.5
endloop
endfacet
facet normal -0.7711921042138633 -0.5693945826213621 0.2846972913106811
outer loop
vertex 0 0 3.5
vertex -0.71985 -0.60402 0.34202
vertex 0 -1.5 0.5
endloop
endfacet
facet normal -0.785364182523607 -0.5499363862867479 0.2842060376679206
outer loop
vertex 0 0 3.5
vertex -0.8138 -0.46985 0.34202
vertex -0.71985 -0.60402 0.34202
endloop
endfacet
facet normal -0.7675251059749447 -0.6350690941713382 0.08713470793286623
outer loop
vertex 0 -1.5 0.5
vertex -0.75441 -0.63302 0.17365
vertex -0.76604 -0.64279 0
endloop
endfacet
facet normal -0.7748247592917279 -0.5769471728764682 0.2584154641238919
outer loop
vertex 0 -1.5 0.5
vertex -0.71985 -0.60402 0.34202
vertex -0.75441 -0.63302 0.17365
endloop
endfacet
facet normal -0.7914318881679657 -0.5541851821821594 0.2579037615867889
outer loop
vertex -0.8138 -0.46985 0.34202
vertex -0.75441 -0.63302 0.17365
vertex -0.71985 -0.60402 0.34202
endloop
endfacet
facet normal -0.7914551351131712 -0.5541649310428302 0.2578759358786451
outer loop
vertex -0.75441 -0.63302 0.17365
vertex -0.8138 -0.46985 0.34202
vertex -0.85287 -0.4924 0.17365
endloop
endfacet
facet normal 0.5973131608057796 0 -0.8020080971712249
outer loop
vertex 0.64279 0 -0.76604
vertex 1 -0.5 -0.5
vertex 1 -1.5 -0.5
endloop
endfacet
facet normal 0.9955912596806361 0.08708915194096742 -0.03483566077638677
outer loop
vertex 1 1 2.5
vertex 1 0 0
vertex 0.98481 0.17365 0
endloop
endfacet
facet normal 0.8096201294261669 0.5668837856869597 -0.1521775921519919
outer loop
vertex 1 1 2.5
vertex 0.85287 0.4924 -0.17365
vertex 0.75441 0.63302 -0.17365
endloop
endfacet
facet normal -0.8160652598855871 -0.5713965686839375 0.08685305351046442
outer loop
vertex -0.86603 -0.5 0
vertex -0.75441 -0.63302 0.17365
vertex -0.85287 -0.4924 0.17365
endloop
endfacet
facet normal -0.8160403021900206 -0.5714396653545762 0.08680399795556638
outer loop
vertex -0.75441 -0.63302 0.17365
vertex -0.86603 -0.5 0
vertex -0.76604 -0.64279 0
endloop
endfacet
facet normal -0.9439299430159623 0.2529329194149875 0.21218199959962133
outer loop
vertex 0 1 3.5
vertex -0.92542 0.33682 0.17365
vertex -0.96985 0.17101 0.17365
endloop
endfacet
facet normal -0.8937956653343849 0.4167944177915525 0.1655648571625794
outer loop
vertex 0 1 3.5
vertex -0.85287 0.4924 0.17365
vertex -0.92542 0.33682 0.17365
endloop
endfacet
facet normal -0.9551182736010099 -0.08352456038905738 0.284205438451204
outer loop
vertex -0.93969 0 0.34202
vertex -0.92542 -0.16318 0.34202
vertex 0 0 3.5
endloop
endfacet
facet normal -0.9584674282149002 0 0.2852020144583751
outer loop
vertex 0 1 3.5
vertex -0.93969 0 0.34202
vertex 0 0 3.5
endloop
endfacet
facet normal -0.9260829778397066 -0.24818859907972687 0.2842054493537803
outer loop
vertex 0 0 3.5
vertex -0.92542 -0.16318 0.34202
vertex -0.88302 -0.32139 0.34202
endloop
endfacet
facet normal -0.8689527950403645 -0.4051523135706187 0.2842052828501142
outer loop
vertex 0 0 3.5
vertex -0.88302 -0.32139 0.34202
vertex -0.8138 -0.46985 0.34202
endloop
endfacet
facet normal 0.6460639874568347 0.05654941011873509 -0.7611855807400704
outer loop
vertex 0.63302 0.11162 -0.76604
vertex 1 -0.5 -0.5
vertex 0.64279 0 -0.76604
endloop
endfacet
facet normal 0.5735831664103626 -0.008682713704297873 -0.8191013134487037
outer loop
vertex 0.64279 0 -0.76604
vertex 1 -1.5 -0.5
vertex 0.5 0 -0.86603
endloop
endfacet
facet normal 0.7914491937013605 0.5541607709560206 -0.2579031091764796
outer loop
vertex 0.85287 0.4924 -0.17365
vertex 0.71985 0.60402 -0.34202
vertex 0.75441 0.63302 -0.17365
endloop
endfacet
facet normal 0.7914381149332079 0.554189542356526 -0.2578752825953557
outer loop
vertex 0.71985 0.60402 -0.34202
vertex 0.85287 0.4924 -0.17365
vertex 0.8138 0.46985 -0.34202
endloop
endfacet
facet normal -0.7675251059749447 -0.6350690941713382 -0.08713470793286672
outer loop
vertex -0.76604 -0.64279 0
vertex -0.75441 -0.63302 -0.17365
vertex 0 -1.5 -0.5
endloop
endfacet
facet normal -0.7047070685038476 0.7047070685038473 0.0823158259475509
outer loop
vertex 0 1 3.5
vertex -0.64279 0.76604 0
vertex -0.76604 0.64279 0
endloop
endfacet
facet normal -0.9620381899533179 0.084129703215062 0.2596241785895323
outer loop
vertex 0 1 3.5
vertex -0.92542 0.16318 0.34202
vertex -0.93969 0 0.34202
endloop
endfacet
facet normal -0.9619327002111656 0.09004654471501096 0.2580253864435496
outer loop
vertex 0 1 3.5
vertex -0.96985 0.17101 0.17365
vertex -0.92542 0.16318 0.34202
endloop
endfacet
facet normal 0.5011044736479056 -0.043865399674315554 -0.8642743390853785
outer loop
vertex 0.5 0 -0.86603
vertex 1 -1.5 -0.5
vertex 0.4924 -0.08682 -0.86603
endloop
endfacet
facet normal 0.41389342102162235 -0.08606240344305452 -0.9062480337902108
outer loop
vertex 0.33682 -0.05939 -0.93969
vertex 0.4924 -0.08682 -0.86603
vertex 1 -1.5 -0.5
endloop
endfacet
facet normal 0.8987284014319018 0.4190946492086681 -0.1290230036246312
outer loop
vertex 1 1 2.5
vertex 0.92542 0.33682 -0.17365
vertex 0.85287 0.4924 -0.17365
endloop
endfacet
facet normal 0.6980059835976744 0.698005983597674 -0.159922774249594
outer loop
vertex 1 1 2.5
vertex 0.75441 0.63302 -0.17365
vertex 0.63302 0.75441 -0.17365
endloop
endfacet
facet normal 0.0792447877627009 -0.29576845931651385 -0.9519670593492089
outer loop
vertex 1 -1.5 -0.5
vertex 0.05939 -0.33682 -0.93969
vertex 0.11698 -0.32139 -0.93969
endloop
endfacet
facet normal -0.2569240027596094 -0.3669094730347728 -0.8940735402657466
outer loop
vertex 0 -1.5 -0.5
vertex -0.32139 -0.38302 -0.86603
vertex -0.25 -0.43301 -0.86603
endloop
endfacet
facet normal -0.21813523258663345 -0.3620124219793476 -0.9062913585801323
outer loop
vertex 0 -1.5 -0.5
vertex -0.25 -0.43301 -0.86603
vertex -0.17101 -0.2962 -0.93969
endloop
endfacet
facet normal -0.5632385580982695 -0.4281755282511788 -0.7067022312673185
outer loop
vertex -0.4924 -0.41318 -0.76604
vertex 0 -1.5 -0.5
vertex -0.58682 -0.4924 -0.64279
endloop
endfacet
facet normal -0.6708453835524039 -0.47178138711002565 -0.5721789878551716
outer loop
vertex -0.58682 -0.4924 -0.64279
vertex 0 -1.5 -0.5
vertex -0.66341 -0.55667 -0.5
endloop
endfacet
facet normal -0.5803254706069638 -0.40633530881261254 -0.7057718930199507
outer loop
vertex -0.4924 -0.41318 -0.76604
vertex -0.66341 -0.38302 -0.64279
vertex -0.55667 -0.32139 -0.76604
endloop
endfacet
facet normal -0.5803227785788856 -0.4063532785825273 -0.7057637605089347
outer loop
vertex -0.66341 -0.38302 -0.64279
vertex -0.4924 -0.41318 -0.76604
vertex -0.58682 -0.4924 -0.64279
endloop
endfacet
facet normal -0.6420483743021198 -0.2993991581958362 -0.7057861072078635
outer loop
vertex -0.55667 -0.32139 -0.76604
vertex -0.71985 -0.262 -0.64279
vertex -0.60402 -0.21985 -0.76604
endloop
endfacet
facet normal -0.6420492211090307 -0.29943197851093795 -0.7057714133615164
outer loop
vertex -0.71985 -0.262 -0.64279
vertex -0.55667 -0.32139 -0.76604
vertex -0.66341 -0.38302 -0.64279
endloop
endfacet
facet normal -0.8160403021900206 -0.5714396653545762 -0.08680399795556638
outer loop
vertex -0.86603 -0.5 0
vertex -0.75441 -0.63302 -0.17365
vertex -0.76604 -0.64279 0
endloop
endfacet
facet normal -0.8160652598855871 -0.5713965686839375 -0.08685305351046459
outer loop
vertex -0.75441 -0.63302 -0.17365
vertex -0.86603 -0.5 0
vertex -0.85287 -0.4924 -0.17365
endloop
endfacet
facet normal -0.9029027674492407 -0.4209888457419359 -0.08680428729835156
outer loop
vertex -0.92542 -0.33682 -0.17365
vertex -0.86603 -0.5 0
vertex -0.93969 -0.34202 0
endloop
endfacet
facet normal -0.9028789925119189 -0.42103015109101116 -0.08685123345665698
outer loop
vertex -0.86603 -0.5 0
vertex -0.92542 -0.33682 -0.17365
vertex -0.85287 -0.4924 -0.17365
endloop
endfacet
facet normal -0.774824759291728 -0.576947172876468 -0.2584154641238924
outer loop
vertex -0.75441 -0.63302 -0.17365
vertex -0.71985 -0.60402 -0.34202
vertex 0 -1.5 -0.5
endloop
endfacet
facet normal -0.7914491937013605 -0.5541607709560206 -0.2579031091764796
outer loop
vertex -0.85287 -0.4924 -0.17365
vertex -0.71985 -0.60402 -0.34202
vertex -0.75441 -0.63302 -0.17365
endloop
endfacet
facet normal -0.7914381149332079 -0.554189542356526 -0.2578752825953557
outer loop
vertex -0.71985 -0.60402 -0.34202
vertex -0.85287 -0.4924 -0.17365
vertex -0.8138 -0.46985 -0.34202
endloop
endfacet
facet normal -0.7418091673309121 -0.5216876593546268 -0.4213800485795572
outer loop
vertex -0.71985 -0.60402 -0.34202
vertex -0.66341 -0.55667 -0.5
vertex 0 -1.5 -0.5
endloop
endfacet
facet normal -0.8756378101022765 -0.40832705439593986 -0.2579291417572365
outer loop
vertex -0.88302 -0.32139 -0.34202
vertex -0.85287 -0.4924 -0.17365
vertex -0.92542 -0.33682 -0.17365
endloop
endfacet
facet normal -0.8756717512276526 -0.4082850506532266 -0.2578804015721016
outer loop
vertex -0.85287 -0.4924 -0.17365
vertex -0.88302 -0.32139 -0.34202
vertex -0.8138 -0.46985 -0.34202
endloop
endfacet
facet normal -0.25883823498619507 0.9658819509003931 0.008650146477478632
outer loop
vertex 0 1 3.5
vertex -0.17365 0.98481 0
vertex -0.34202 0.93969 0
endloop
endfacet
facet normal -0.5728721819385397 0.8180859971897606 0.05052488855021628
outer loop
vertex 0 1 3.5
vertex -0.5 0.86603 0
vertex -0.64279 0.76604 0
endloop
endfacet
facet normal -0.4224446930985875 0.9060251509057127 0.02566918773784462
outer loop
vertex 0 1 3.5
vertex -0.34202 0.93969 0
vertex -0.5 0.86603 0
endloop
endfacet
facet normal -0.7188705397144878 0.689684731014462 0.08694894442205965
outer loop
vertex 0 1 3.5
vertex -0.76604 0.64279 0
vertex -0.75441 0.63302 0.17365
endloop
endfacet
facet normal -0.8160687892304935 0.5713990398779301 0.08680362014602899
outer loop
vertex -0.76604 0.64279 0
vertex -0.85287 0.4924 0.17365
vertex -0.75441 0.63302 0.17365
endloop
endfacet
facet normal -0.8160368267234431 0.5714372316274047 0.0868526783763243
outer loop
vertex -0.85287 0.4924 0.17365
vertex -0.76604 0.64279 0
vertex -0.86603 0.5 0
endloop
endfacet
facet normal -0.813082262737711 0.5693079191377821 0.12159657572617844
outer loop
vertex 0 1 3.5
vertex -0.75441 0.63302 0.17365
vertex -0.85287 0.4924 0.17365
endloop
endfacet
facet normal -0.8160403021900206 0.5714396653545762 -0.08680399795556638
outer loop
vertex -0.75441 0.63302 -0.17365
vertex -0.86603 0.5 0
vertex -0.76604 0.64279 0
endloop
endfacet
facet normal -0.8160652598855871 0.5713965686839375 -0.08685305351046442
outer loop
vertex -0.86603 0.5 0
vertex -0.75441 0.63302 -0.17365
vertex -0.85287 0.4924 -0.17365
endloop
endfacet
facet normal -0.7044372306064094 0.7044372306064096 -0.08681230483718448
outer loop
vertex -0.63302 0.75441 -0.17365
vertex -0.76604 0.64279 0
vertex -0.64279 0.76604 0
endloop
endfacet
facet normal -0.7044372306064096 0.7044372306064096 -0.08681230483718443
outer loop
vertex -0.76604 0.64279 0
vertex -0.63302 0.75441 -0.17365
vertex -0.75441 0.63302 -0.17365
endloop
endfacet
facet normal -0.7914491937013605 0.5541607709560206 -0.2579031091764798
outer loop
vertex -0.71985 0.60402 -0.34202
vertex -0.85287 0.4924 -0.17365
vertex -0.75441 0.63302 -0.17365
endloop
endfacet
facet normal -0.791438114933208 0.5541895423565262 -0.2578752825953555
outer loop
vertex -0.85287 0.4924 -0.17365
vertex -0.71985 0.60402 -0.34202
vertex -0.8138 0.46985 -0.34202
endloop
endfacet
facet normal -0.9624905016289854 -0.08416925761886039 0.25792939023281913
outer loop
vertex -0.98481 0 0.17365
vertex -0.92542 -0.16318 0.34202
vertex -0.93969 0 0.34202
endloop
endfacet
facet normal -0.9624952352184967 -0.08419933757598112 0.2579019071923604
outer loop
vertex -0.92542 -0.16318 0.34202
vertex -0.98481 0 0.17365
vertex -0.96985 -0.17101 0.17365
endloop
endfacet
facet normal -0.9624952352184967 0.08419933757598112 0.2579019071923604
outer loop
vertex -0.98481 0 0.17365
vertex -0.92542 0.16318 0.34202
vertex -0.96985 0.17101 0.17365
endloop
endfacet
facet normal -0.9624905016289854 0.08416925761886039 0.25792939023281913
outer loop
vertex -0.92542 0.16318 0.34202
vertex -0.98481 0 0.17365
vertex -0.93969 0 0.34202
endloop
endfacet
facet normal -0.9622765128263543 -0.2578490167352691 0.08682048969803247
outer loop
vertex -0.98481 -0.17365 0
vertex -0.92542 -0.33682 0.17365
vertex -0.96985 -0.17101 0.17365
endloop
endfacet
facet normal -0.9622726063006509 -0.2578709983743263 0.08679849860902264
outer loop
vertex -0.92542 -0.33682 0.17365
vertex -0.98481 -0.17365 0
vertex -0.93969 -0.34202 0
endloop
endfacet
facet normal -0.9028789925119189 -0.42103015109101116 0.0868512334566568
outer loop
vertex -0.92542 -0.33682 0.17365
vertex -0.86603 -0.5 0
vertex -0.85287 -0.4924 0.17365
endloop
endfacet
facet normal -0.9029027674492407 -0.4209888457419359 0.0868042872983515
outer loop
vertex -0.86603 -0.5 0
vertex -0.92542 -0.33682 0.17365
vertex -0.93969 -0.34202 0
endloop
endfacet
facet normal -0.8756596829134601 -0.408279423759059 0.25793028487339204
outer loop
vertex -0.92542 -0.33682 0.17365
vertex -0.8138 -0.46985 0.34202
vertex -0.88302 -0.32139 0.34202
endloop
endfacet
facet normal -0.8756493255366595 -0.408332424268444 0.25788154253115664
outer loop
vertex -0.8138 -0.46985 0.34202
vertex -0.92542 -0.33682 0.17365
vertex -0.85287 -0.4924 0.17365
endloop
endfacet
facet normal -0.9332393832185232 -0.25010650305584614 0.2578972484131746
outer loop
vertex -0.96985 -0.17101 0.17365
vertex -0.88302 -0.32139 0.34202
vertex -0.92542 -0.16318 0.34202
endloop
endfacet
facet normal -0.933240086562948 -0.2500684943368421 0.25793155869743106
outer loop
vertex -0.88302 -0.32139 0.34202
vertex -0.96985 -0.17101 0.17365
vertex -0.92542 -0.33682 0.17365
endloop
endfacet
facet normal 0.7992756678580759 0.18081341525255784 -0.5731185877588799
outer loop
vertex 0.85287 0.15038 -0.5
vertex 1 -0.5 -0.5
vertex 0.75441 0.13302 -0.64279
endloop
endfacet
facet normal 0.6982873875974769 0.1114126654722936 -0.7070940123453526
outer loop
vertex 0.75441 0.13302 -0.64279
vertex 1 -0.5 -0.5
vertex 0.63302 0.11162 -0.76604
endloop
endfacet
facet normal 0.9619366212073094 0.25775794029455823 -0.09076773102469894
outer loop
vertex 1 1 2.5
vertex 0.96985 0.17101 -0.17365
vertex 0.92542 0.33682 -0.17365
endloop
endfacet
facet normal 0.9655714465953914 0.24518993520175295 -0.08691189329110074
outer loop
vertex 1 1 2.5
vertex 0.98481 0.17365 0
vertex 0.96985 0.17101 -0.17365
endloop
endfacet
facet normal 0.9924344194824508 0.0868130079581831 -0.08681834296842522
outer loop
vertex 1 0 0
vertex 0.96985 0.17101 -0.17365
vertex 0.98481 0.17365 0
endloop
endfacet
facet normal 0.9924344159686562 0.08681569558827508 -0.0868156955882754
outer loop
vertex 0.96985 0.17101 -0.17365
vertex 1 0 0
vertex 1 -0.5 -0.5
endloop
endfacet
facet normal 0.24518993520175375 0.965571446595391 -0.08691189329110152
outer loop
vertex 1 1 2.5
vertex 0.17101 0.96985 -0.17365
vertex 0.17365 0.98481 0
endloop
endfacet
facet normal 0.2577579402945585 0.9619366212073094 -0.09076773102469902
outer loop
vertex 1 1 2.5
vertex 0.33682 0.92542 -0.17365
vertex 0.17101 0.96985 -0.17365
endloop
endfacet
facet normal 0.41909464920866724 0.8987284014319025 -0.12902300362463076
outer loop
vertex 1 1 2.5
vertex 0.4924 0.85287 -0.17365
vertex 0.33682 0.92542 -0.17365
endloop
endfacet
facet normal 0.5668837856869601 0.8096201294261666 -0.15217759215199217
outer loop
vertex 1 1 2.5
vertex 0.63302 0.75441 -0.17365
vertex 0.4924 0.85287 -0.17365
endloop
endfacet
facet normal 0.16524078928313524 -0.23597544294118117 -0.9576069506252549
outer loop
vertex 1 -1.5 -0.5
vertex 0.17101 -0.2962 -0.93969
vertex 0.21985 -0.262 -0.93969
endloop
endfacet
facet normal 0.12329362352107362 -0.2644523413594105 -0.9564850451254162
outer loop
vertex 1 -1.5 -0.5
vertex 0.11698 -0.32139 -0.93969
vertex 0.17101 -0.2962 -0.93969
endloop
endfacet
facet normal -0.2431581512329739 -0.3472469036905922 -0.9057006687456176
outer loop
vertex -0.25 -0.43301 -0.86603
vertex -0.21985 -0.262 -0.93969
vertex -0.17101 -0.2962 -0.93969
endloop
endfacet
facet normal -0.24315591445578766 -0.3472474641528059 -0.9057010543797636
outer loop
vertex -0.21985 -0.262 -0.93969
vertex -0.25 -0.43301 -0.86603
vertex -0.32139 -0.38302 -0.86603
endloop
endfacet
facet normal -0.2997566428030408 -0.2997566428030408 -0.905699679911007
outer loop
vertex -0.21985 -0.262 -0.93969
vertex -0.38302 -0.32139 -0.86603
vertex -0.262 -0.21985 -0.93969
endloop
endfacet
facet normal -0.29975664280303976 -0.2997566428030416 -0.9056996799110071
outer loop
vertex -0.38302 -0.32139 -0.86603
vertex -0.21985 -0.262 -0.93969
vertex -0.32139 -0.38302 -0.86603
endloop
endfacet
facet normal -0.38563258148839724 -0.3856325814883989 -0.8381974851961725
outer loop
vertex 0 -1.5 -0.5
vertex -0.38302 -0.32139 -0.86603
vertex -0.32139 -0.38302 -0.86603
endloop
endfacet
facet normal -0.4204439065923541 -0.39091703537256456 -0.8187861704162357
outer loop
vertex -0.38302 -0.32139 -0.86603
vertex 0 -1.5 -0.5
vertex -0.4924 -0.41318 -0.76604
endloop
endfacet
facet normal -0.47107128434786594 -0.3298620745839732 -0.8180970949795687
outer loop
vertex -0.38302 -0.32139 -0.86603
vertex -0.55667 -0.32139 -0.76604
vertex -0.43301 -0.25 -0.86603
endloop
endfacet
facet normal -0.4710751581811895 -0.3298398563711178 -0.8181038225638895
outer loop
vertex -0.55667 -0.32139 -0.76604
vertex -0.38302 -0.32139 -0.86603
vertex -0.4924 -0.41318 -0.76604
endloop
endfacet
facet normal -0.3472469036905929 -0.24315815123297058 -0.905700668745618
outer loop
vertex -0.262 -0.21985 -0.93969
vertex -0.43301 -0.25 -0.86603
vertex -0.2962 -0.17101 -0.93969
endloop
endfacet
facet normal -0.3472474641528067 -0.24315591445578852 -0.9057010543797629
outer loop
vertex -0.43301 -0.25 -0.86603
vertex -0.262 -0.21985 -0.93969
vertex -0.38302 -0.32139 -0.86603
endloop
endfacet
facet normal 0.0076301258765472954 -0.08713950574918614 -0.9961668975211412
outer loop
vertex 0.03015 -0.17101 -0.98481
vertex 0 -0.17365 -0.98481
vertex 0 0 -1
endloop
endfacet
facet normal -0.0369897999158017 -0.07926798528832521 -0.9961668239860826
outer loop
vertex 0 0 -1
vertex -0.05939 -0.16318 -0.98481
vertex -0.08682 -0.15038 -0.98481
endloop
endfacet
facet normal -0.08449555701641992 -0.022626546218829254 -0.9961669238891101
outer loop
vertex 0 0 -1
vertex -0.16318 -0.05939 -0.98481
vertex -0.17101 -0.03015 -0.98481
endloop
endfacet
facet normal -0.7433192899322115 -0.34666121900325564 -0.5721035155055856
outer loop
vertex -0.66341 -0.38302 -0.64279
vertex -0.8138 -0.2962 -0.5
vertex -0.71985 -0.262 -0.64279
endloop
endfacet
facet normal -0.7433192705782441 -0.3466396422987491 -0.5721166143139199
outer loop
vertex -0.8138 -0.2962 -0.5
vertex -0.66341 -0.38302 -0.64279
vertex -0.75 -0.43301 -0.5
endloop
endfacet
facet normal -0.6718436419348107 -0.47043796430597246 -0.5721138370389431
outer loop
vertex -0.58682 -0.4924 -0.64279
vertex -0.75 -0.43301 -0.5
vertex -0.66341 -0.38302 -0.64279
endloop
endfacet
facet normal -0.671842906456353 -0.47044215809522416 -0.5721112522324553
outer loop
vertex -0.75 -0.43301 -0.5
vertex -0.58682 -0.4924 -0.64279
vertex -0.66341 -0.55667 -0.5
endloop
endfacet
facet normal -0.742890099633451 -0.5201947146199805 -0.4213214434942027
outer loop
vertex -0.75 -0.43301 -0.5
vertex -0.71985 -0.60402 -0.34202
vertex -0.8138 -0.46985 -0.34202
endloop
endfacet
facet normal -0.7428925903748602 -0.5201930244263236 -0.42131913854502767
outer loop
vertex -0.71985 -0.60402 -0.34202
vertex -0.75 -0.43301 -0.5
vertex -0.66341 -0.55667 -0.5
endloop
endfacet
facet normal -0.8219547506013095 -0.38331052619226325 -0.4212640840068725
outer loop
vertex -0.75 -0.43301 -0.5
vertex -0.88302 -0.32139 -0.34202
vertex -0.8138 -0.2962 -0.5
endloop
endfacet
facet normal -0.8219597623113868 -0.3832416458789851 -0.42131697094346315
outer loop
vertex -0.88302 -0.32139 -0.34202
vertex -0.75 -0.43301 -0.5
vertex -0.8138 -0.46985 -0.34202
endloop
endfacet
facet normal -0.8756378101022767 0.4083270543959399 -0.25792914175723647
outer loop
vertex -0.85287 0.4924 -0.17365
vertex -0.88302 0.32139 -0.34202
vertex -0.92542 0.33682 -0.17365
endloop
endfacet
facet normal -0.8756717512276526 0.4082850506532266 -0.25788040157210174
outer loop
vertex -0.88302 0.32139 -0.34202
vertex -0.85287 0.4924 -0.17365
vertex -0.8138 0.46985 -0.34202
endloop
endfacet
facet normal -0.08714204243958792 0.9961958966184599 0
outer loop
vertex 0 1 3.5
vertex 0 1 0
vertex -0.17365 0.98481 0
endloop
endfacet
facet normal 0 1 0
outer loop
vertex 0 1 0
vertex 1 1 3.5
vertex 1 1 2.5
endloop
endfacet
facet normal 0 1 0
outer loop
vertex 1 1 3.5
vertex 0 1 0
vertex 0 1 3.5
endloop
endfacet
facet normal 0.08708915194096681 0.995591259680636 -0.0348356607763866
outer loop
vertex 1 1 2.5
vertex 0.17365 0.98481 0
vertex 0 1 0
endloop
endfacet
facet normal 0.08681300795818295 0.992434419482451 -0.08681834296842507
outer loop
vertex 0.17101 0.96985 -0.17365
vertex 0 1 0
vertex 0.17365 0.98481 0
endloop
endfacet
facet normal 0.08681842470789417 0.9924344123861636 -0.08681300733743647
outer loop
vertex 0 1 0
vertex 0.17101 0.96985 -0.17365
vertex 0 0.98481 -0.17365
endloop
endfacet
facet normal -0.5714396653545774 0.8160403021900197 -0.0868039979555669
outer loop
vertex -0.5 0.86603 0
vertex -0.63302 0.75441 -0.17365
vertex -0.64279 0.76604 0
endloop
endfacet
facet normal -0.571396568683935 0.8160652598855886 -0.08685305351046511
outer loop
vertex -0.63302 0.75441 -0.17365
vertex -0.5 0.86603 0
vertex -0.4924 0.85287 -0.17365
endloop
endfacet
facet normal -0.08681842470789417 0.9924344123861636 -0.08681300733743647
outer loop
vertex -0.17101 0.96985 -0.17365
vertex 0 1 0
vertex 0 0.98481 -0.17365
endloop
endfacet
facet normal -0.08681300795818295 0.992434419482451 -0.0868183429684243
outer loop
vertex 0 1 0
vertex -0.17101 0.96985 -0.17365
vertex -0.17365 0.98481 0
endloop
endfacet
facet normal 0.7433192705782441 0.3466396422987491 -0.5721166143139199
outer loop
vertex 0.8138 0.2962 -0.5
vertex 0.66341 0.38302 -0.64279
vertex 0.75 0.43301 -0.5
endloop
endfacet
facet normal 0.7433192899322115 0.34666121900325564 -0.5721035155055856
outer loop
vertex 0.66341 0.38302 -0.64279
vertex 0.8138 0.2962 -0.5
vertex 0.71985 0.262 -0.64279
endloop
endfacet
facet normal 0.7922389385417156 0.21226700952424074 -0.5721015477395006
outer loop
vertex 0.85287 0.15038 -0.5
vertex 0.71985 0.262 -0.64279
vertex 0.8138 0.2962 -0.5
endloop
endfacet
facet normal 0.7922412169196661 0.21227986088342135 -0.5720936242233101
outer loop
vertex 0.71985 0.262 -0.64279
vertex 0.85287 0.15038 -0.5
vertex 0.75441 0.13302 -0.64279
endloop
endfacet
facet normal 0.6842819169415821 0.18335232632579607 -0.7057904664825619
outer loop
vertex 0.75441 0.13302 -0.64279
vertex 0.60402 0.21985 -0.76604
vertex 0.71985 0.262 -0.64279
endloop
endfacet
facet normal 0.6842818242915296 0.1833518701326298 -0.7057906748201788
outer loop
vertex 0.60402 0.21985 -0.76604
vertex 0.75441 0.13302 -0.64279
vertex 0.63302 0.11162 -0.76604
endloop
endfacet
facet normal 0.9510952319198501 0.16861327713975433 -0.2588192855865249
outer loop
vertex 0.96985 0.17101 -0.17365
vertex 1 -0.5 -0.5
vertex 0.92542 0.16318 -0.34202
endloop
endfacet
facet normal 0.8841445998316428 0.20001260028480142 -0.42223605520591934
outer loop
vertex 0.92542 0.16318 -0.34202
vertex 1 -0.5 -0.5
vertex 0.85287 0.15038 -0.5
endloop
endfacet
facet normal -0.6831857568511917 0.6831857568511926 -0.2579039419460813
outer loop
vertex -0.60402 0.71985 -0.34202
vertex -0.75441 0.63302 -0.17365
vertex -0.63302 0.75441 -0.17365
endloop
endfacet
facet normal -0.6831857568511919 0.6831857568511921 -0.25790394194608224
outer loop
vertex -0.75441 0.63302 -0.17365
vertex -0.60402 0.71985 -0.34202
vertex -0.71985 0.60402 -0.34202
endloop
endfacet
facet normal 0.40833242426844474 0.8756493255366591 -0.2578815425311573
outer loop
vertex 0.46985 0.8138 -0.34202
vertex 0.33682 0.92542 -0.17365
vertex 0.4924 0.85287 -0.17365
endloop
endfacet
facet normal 0.40827942375905824 0.8756596829134604 -0.2579302848733922
outer loop
vertex 0.33682 0.92542 -0.17365
vertex 0.46985 0.8138 -0.34202
vertex 0.32139 0.88302 -0.34202
endloop
endfacet
facet normal 0.3844609000208622 -0.10300801679669852 -0.917376239517222
outer loop
vertex 0.33682 -0.05939 -0.93969
vertex 1 -1.5 -0.5
vertex 0.32139 -0.11698 -0.93969
endloop
endfacet
facet normal 0.3119427796897907 -0.14543473293329265 -0.9389038505917572
outer loop
vertex 0.32139 -0.11698 -0.93969
vertex 1 -1.5 -0.5
vertex 0.2962 -0.17101 -0.93969
endloop
endfacet
facet normal 0.2994319785109377 0.6420492211090308 -0.705771413361516
outer loop
vertex 0.32139 0.55667 -0.76604
vertex 0.262 0.71985 -0.64279
vertex 0.38302 0.66341 -0.64279
endloop
endfacet
facet normal 0.29939915819583734 0.6420483743021204 -0.7057861072078626
outer loop
vertex 0.262 0.71985 -0.64279
vertex 0.32139 0.55667 -0.76604
vertex 0.21985 0.60402 -0.76604
endloop
endfacet
facet normal 0.08713950574918544 0.007630125876545644 -0.9961668975211412
outer loop
vertex 0.17101 0.03015 -0.98481
vertex 0.17365 0 -0.98481
vertex 0 0 -1
endloop
endfacet
facet normal 0.08713950574918544 -0.007630125876545644 -0.9961668975211412
outer loop
vertex 0.17365 0 -0.98481
vertex 0.17101 -0.03015 -0.98481
vertex 0 0 -1
endloop
endfacet
facet normal 0.10976240032420233 -0.23542923737660082 -0.9656734901939379
outer loop
vertex 0.11698 -0.32139 -0.93969
vertex 0.08682 -0.15038 -0.98481
vertex 0.17101 -0.2962 -0.93969
endloop
endfacet
facet normal 0.10985305328662646 -0.2354116602853067 -0.9656674670326847
outer loop
vertex 0.08682 -0.15038 -0.98481
vertex 0.11698 -0.32139 -0.93969
vertex 0.05939 -0.16318 -0.98481
endloop
endfacet
facet normal 0.0672304840928829 -0.2509269979850364 -0.9656685268200751
outer loop
vertex 0.05939 -0.33682 -0.93969
vertex 0.05939 -0.16318 -0.98481
vertex 0.11698 -0.32139 -0.93969
endloop
endfacet
facet normal 0.06719436340066276 -0.2509276099406409 -0.9656708818726271
outer loop
vertex 0.05939 -0.16318 -0.98481
vertex 0.05939 -0.33682 -0.93969
vertex 0.03015 -0.17101 -0.98481
endloop
endfacet
facet normal 0.022626546218826867 -0.08449555701641963 -0.9961669238891102
outer loop
vertex 0.05939 -0.16318 -0.98481
vertex 0.03015 -0.17101 -0.98481
vertex 0 0 -1
endloop
endfacet
facet normal 0.036989799915799725 -0.07926798528832521 -0.9961668239860826
outer loop
vertex 0.08682 -0.15038 -0.98481
vertex 0.05939 -0.16318 -0.98481
vertex 0 0 -1
endloop
endfacet
facet normal -0.07926798528832786 -0.03698979991580606 -0.9961668239860823
outer loop
vertex 0 0 -1
vertex -0.15038 -0.08682 -0.98481
vertex -0.16318 -0.05939 -0.98481
endloop
endfacet
facet normal -0.07166225830894671 -0.05016358081626266 -0.996166720932672
outer loop
vertex 0 0 -1
vertex -0.13302 -0.11162 -0.98481
vertex -0.15038 -0.08682 -0.98481
endloop
endfacet
facet normal -0.21279904934083513 -0.14895933453858512 -0.9656747284947755
outer loop
vertex -0.13302 -0.11162 -0.98481
vertex -0.2962 -0.17101 -0.93969
vertex -0.15038 -0.08682 -0.98481
endloop
endfacet
facet normal -0.21278325066111586 -0.14900055635974896 -0.9656718502900321
outer loop
vertex -0.2962 -0.17101 -0.93969
vertex -0.13302 -0.11162 -0.98481
vertex -0.262 -0.21985 -0.93969
endloop
endfacet
facet normal -0.23541166028530577 -0.10985305328661808 -0.9656674670326858
outer loop
vertex -0.15038 -0.08682 -0.98481
vertex -0.32139 -0.11698 -0.93969
vertex -0.16318 -0.05939 -0.98481
endloop
endfacet
facet normal -0.23542923737660326 -0.10976240032420062 -0.9656734901939377
outer loop
vertex -0.32139 -0.11698 -0.93969
vertex -0.15038 -0.08682 -0.98481
vertex -0.2962 -0.17101 -0.93969
endloop
endfacet
facet normal -0.18368160766947172 -0.18368160766947172 -0.9656718562782682
outer loop
vertex -0.11162 -0.13302 -0.98481
vertex -0.262 -0.21985 -0.93969
vertex -0.13302 -0.11162 -0.98481
endloop
endfacet
facet normal -0.18368160766947242 -0.18368160766947175 -0.9656718562782682
outer loop
vertex -0.262 -0.21985 -0.93969
vertex -0.11162 -0.13302 -0.98481
vertex -0.21985 -0.262 -0.93969
endloop
endfacet
facet normal -0.061853229922811837 -0.06185322992280825 -0.9961668313571937
outer loop
vertex 0 0 -1
vertex -0.11162 -0.13302 -0.98481
vertex -0.13302 -0.11162 -0.98481
endloop
endfacet
facet normal -0.05016358081626086 -0.07166225830894668 -0.9961667209326721
outer loop
vertex 0 0 -1
vertex -0.08682 -0.15038 -0.98481
vertex -0.11162 -0.13302 -0.98481
endloop
endfacet
facet normal -0.14895933453858629 -0.2127990493408359 -0.9656747284947753
outer loop
vertex -0.17101 -0.2962 -0.93969
vertex -0.11162 -0.13302 -0.98481
vertex -0.08682 -0.15038 -0.98481
endloop
endfacet
facet normal -0.14900055635974535 -0.21278325066111495 -0.9656718502900329
outer loop
vertex -0.11162 -0.13302 -0.98481
vertex -0.17101 -0.2962 -0.93969
vertex -0.21985 -0.262 -0.93969
endloop
endfacet
facet normal -0.9029027674492407 0.4209888457419359 -0.0868042872983515
outer loop
vertex -0.86603 0.5 0
vertex -0.92542 0.33682 -0.17365
vertex -0.93969 0.34202 0
endloop
endfacet
facet normal -0.9028789925119189 0.42103015109101116 -0.0868512334566568
outer loop
vertex -0.92542 0.33682 -0.17365
vertex -0.86603 0.5 0
vertex -0.85287 0.4924 -0.17365
endloop
endfacet
facet normal -0.9622783780176538 0.25784951652689464 0.0867983296300131
outer loop
vertex -0.93969 0.34202 0
vertex -0.96985 0.17101 0.17365
vertex -0.92542 0.33682 0.17365
endloop
endfacet
facet normal -0.9622707694908268 0.25787050614376705 0.08682032161130016
outer loop
vertex -0.96985 0.17101 0.17365
vertex -0.93969 0.34202 0
vertex -0.98481 0.17365 0
endloop
endfacet
facet normal -0.9028827290591489 0.4210318935161418 0.08680392968590789
outer loop
vertex -0.85287 0.4924 0.17365
vertex -0.93969 0.34202 0
vertex -0.92542 0.33682 0.17365
endloop
endfacet
facet normal -0.9028990875033567 0.42098712992465454 0.08685087347521774
outer loop
vertex -0.93969 0.34202 0
vertex -0.85287 0.4924 0.17365
vertex -0.86603 0.5 0
endloop
endfacet
facet normal -0.9924344123861636 -0.0868184247078937 0.08681300733743656
outer loop
vertex -1 0 0
vertex -0.96985 -0.17101 0.17365
vertex -0.98481 0 0.17365
endloop
endfacet
facet normal -0.9924344194824508 -0.0868130079581831 0.08681834296842522
outer loop
vertex -0.96985 -0.17101 0.17365
vertex -1 0 0
vertex -0.98481 -0.17365 0
endloop
endfacet
facet normal -0.9924344194824508 0.0868130079581831 0.08681834296842522
outer loop
vertex -1 0 0
vertex -0.96985 0.17101 0.17365
vertex -0.98481 0.17365 0
endloop
endfacet
facet normal -0.9924344123861636 0.0868184247078937 0.08681300733743656
outer loop
vertex -0.96985 0.17101 0.17365
vertex -1 0 0
vertex -0.98481 0 0.17365
endloop
endfacet
facet normal -0.9622726063006509 -0.2578709983743263 -0.08679849860902258
outer loop
vertex -0.98481 -0.17365 0
vertex -0.92542 -0.33682 -0.17365
vertex -0.93969 -0.34202 0
endloop
endfacet
facet normal -0.9622765128263543 -0.2578490167352691 -0.0868204896980325
outer loop
vertex -0.92542 -0.33682 -0.17365
vertex -0.98481 -0.17365 0
vertex -0.96985 -0.17101 -0.17365
endloop
endfacet
facet normal -0.9924344123861636 -0.0868184247078937 -0.08681300733743656
outer loop
vertex -0.96985 -0.17101 -0.17365
vertex -1 0 0
vertex -0.98481 0 -0.17365
endloop
endfacet
facet normal -0.9924344194824508 -0.0868130079581831 -0.08681834296842522
outer loop
vertex -1 0 0
vertex -0.96985 -0.17101 -0.17365
vertex -0.98481 -0.17365 0
endloop
endfacet
facet normal -0.9624905016289854 -0.08416925761886039 -0.25792939023281913
outer loop
vertex -0.92542 -0.16318 -0.34202
vertex -0.98481 0 -0.17365
vertex -0.93969 0 -0.34202
endloop
endfacet
facet normal -0.9624952352184967 -0.08419933757598112 -0.2579019071923604
outer loop
vertex -0.98481 0 -0.17365
vertex -0.92542 -0.16318 -0.34202
vertex -0.96985 -0.17101 -0.17365
endloop
endfacet
facet normal -0.9332393832185232 -0.25010650305584614 -0.25789724841317463
outer loop
vertex -0.88302 -0.32139 -0.34202
vertex -0.96985 -0.17101 -0.17365
vertex -0.92542 -0.16318 -0.34202
endloop
endfacet
facet normal -0.933240086562948 -0.2500684943368421 -0.25793155869743106
outer loop
vertex -0.96985 -0.17101 -0.17365
vertex -0.88302 -0.32139 -0.34202
vertex -0.92542 -0.33682 -0.17365
endloop
endfacet
facet normal -0.933240086562948 0.2500684943368421 -0.25793155869743106
outer loop
vertex -0.88302 0.32139 -0.34202
vertex -0.96985 0.17101 -0.17365
vertex -0.92542 0.33682 -0.17365
endloop
endfacet
facet normal -0.9332393832185232 0.25010650305584614 -0.2578972484131746
outer loop
vertex -0.96985 0.17101 -0.17365
vertex -0.88302 0.32139 -0.34202
vertex -0.92542 0.16318 -0.34202
endloop
endfacet
facet normal -0.9624952352184967 0.08419933757598112 -0.2579019071923604
outer loop
vertex -0.92542 0.16318 -0.34202
vertex -0.98481 0 -0.17365
vertex -0.96985 0.17101 -0.17365
endloop
endfacet
facet normal -0.9624905016289854 0.08416925761886039 -0.25792939023281913
outer loop
vertex -0.98481 0 -0.17365
vertex -0.92542 0.16318 -0.34202
vertex -0.93969 0 -0.34202
endloop
endfacet
facet normal -0.9924348791411948 0.08681304816674239 -0.08681304816674221
outer loop
vertex -0.98481 0.17365 0
vertex -0.98481 0 -0.17365
vertex -1 0 0
endloop
endfacet
facet normal -0.9924339456317911 0.08681838387609785 -0.08681838387609829
outer loop
vertex -0.98481 0 -0.17365
vertex -0.98481 0.17365 0
vertex -0.96985 0.17101 -0.17365
endloop
endfacet
facet normal -0.9622726063006509 0.2578709983743263 -0.08679849860902264
outer loop
vertex -0.92542 0.33682 -0.17365
vertex -0.98481 0.17365 0
vertex -0.93969 0.34202 0
endloop
endfacet
facet normal -0.9622765128263543 0.2578490167352691 -0.08682048969803247
outer loop
vertex -0.98481 0.17365 0
vertex -0.92542 0.33682 -0.17365
vertex -0.96985 0.17101 -0.17365
endloop
endfacet
facet normal -0.6412858852161254 0.6412858852161264 -0.4213132170311531
outer loop
vertex -0.55667 0.66341 -0.5
vertex -0.71985 0.60402 -0.34202
vertex -0.60402 0.71985 -0.34202
endloop
endfacet
facet normal -0.6412858852161261 0.6412858852161251 -0.4213132170311546
outer loop
vertex -0.71985 0.60402 -0.34202
vertex -0.55667 0.66341 -0.5
vertex -0.66341 0.55667 -0.5
endloop
endfacet
facet normal -0.8219597623113867 0.38324164587898524 -0.4213169709434632
outer loop
vertex -0.75 0.43301 -0.5
vertex -0.88302 0.32139 -0.34202
vertex -0.8138 0.46985 -0.34202
endloop
endfacet
facet normal -0.8219547506013094 0.3833105261922633 -0.42126408400687254
outer loop
vertex -0.88302 0.32139 -0.34202
vertex -0.75 0.43301 -0.5
vertex -0.8138 0.2962 -0.5
endloop
endfacet
facet normal -0.7428909410283835 0.5201953037908367 -0.4213192324733374
outer loop
vertex -0.66341 0.55667 -0.5
vertex -0.8138 0.46985 -0.34202
vertex -0.71985 0.60402 -0.34202
endloop
endfacet
facet normal -0.7428916774648772 0.5201923851826288 -0.4213215374882093
outer loop
vertex -0.8138 0.46985 -0.34202
vertex -0.66341 0.55667 -0.5
vertex -0.75 0.43301 -0.5
endloop
endfacet
facet normal -0.4209888457419363 0.9029027674492405 -0.08680428729835153
outer loop
vertex -0.33682 0.92542 -0.17365
vertex -0.5 0.86603 0
vertex -0.34202 0.93969 0
endloop
endfacet
facet normal -0.4210301510910125 0.9028789925119184 -0.08685123345665603
outer loop
vertex -0.5 0.86603 0
vertex -0.33682 0.92542 -0.17365
vertex -0.4924 0.85287 -0.17365
endloop
endfacet
facet normal -0.2578709983743263 0.9622726063006509 -0.0867984986090231
outer loop
vertex -0.17365 0.98481 0
vertex -0.33682 0.92542 -0.17365
vertex -0.34202 0.93969 0
endloop
endfacet
facet normal -0.2578490167352687 0.9622765128263545 -0.08682048969803119
outer loop
vertex -0.33682 0.92542 -0.17365
vertex -0.17365 0.98481 0
vertex -0.17101 0.96985 -0.17365
endloop
endfacet
facet normal 0.8756378101022765 0.40832705439593986 -0.2579291417572365
outer loop
vertex 0.88302 0.32139 -0.34202
vertex 0.85287 0.4924 -0.17365
vertex 0.92542 0.33682 -0.17365
endloop
endfacet
facet normal 0.8756717512276526 0.4082850506532266 -0.2578804015721016
outer loop
vertex 0.85287 0.4924 -0.17365
vertex 0.88302 0.32139 -0.34202
vertex 0.8138 0.46985 -0.34202
endloop
endfacet
facet normal 0.933240086562948 0.2500684943368421 -0.25793155869743106
outer loop
vertex 0.96985 0.17101 -0.17365
vertex 0.88302 0.32139 -0.34202
vertex 0.92542 0.33682 -0.17365
endloop
endfacet
facet normal 0.9332393832185232 0.25010650305584614 -0.25789724841317463
outer loop
vertex 0.88302 0.32139 -0.34202
vertex 0.96985 0.17101 -0.17365
vertex 0.92542 0.16318 -0.34202
endloop
endfacet
facet normal 0.8760217352957703 0.234772274676321 -0.4212693892661714
outer loop
vertex 0.92542 0.16318 -0.34202
vertex 0.8138 0.2962 -0.5
vertex 0.88302 0.32139 -0.34202
endloop
endfacet
facet normal 0.8760157352275904 0.23471358370142711 -0.42131456806013406
outer loop
vertex 0.8138 0.2962 -0.5
vertex 0.92542 0.16318 -0.34202
vertex 0.85287 0.15038 -0.5
endloop
endfacet
facet normal 0.8219597623113868 0.3832416458789851 -0.42131697094346315
outer loop
vertex 0.88302 0.32139 -0.34202
vertex 0.75 0.43301 -0.5
vertex 0.8138 0.46985 -0.34202
endloop
endfacet
facet normal 0.8219547506013095 0.38331052619226325 -0.4212640840068725
outer loop
vertex 0.75 0.43301 -0.5
vertex 0.88302 0.32139 -0.34202
vertex 0.8138 0.2962 -0.5
endloop
endfacet
facet normal 0.3832416458789862 0.8219597623113872 -0.42131697094346154
outer loop
vertex 0.43301 0.75 -0.5
vertex 0.32139 0.88302 -0.34202
vertex 0.46985 0.8138 -0.34202
endloop
endfacet
facet normal 0.38331052619226297 0.8219547506013092 -0.42126408400687354
outer loop
vertex 0.32139 0.88302 -0.34202
vertex 0.43301 0.75 -0.5
vertex 0.2962 0.8138 -0.5
endloop
endfacet
facet normal 0.3466396422987491 0.7433192705782433 -0.5721166143139209
outer loop
vertex 0.38302 0.66341 -0.64279
vertex 0.2962 0.8138 -0.5
vertex 0.43301 0.75 -0.5
endloop
endfacet
facet normal 0.34666121900325525 0.7433192899322114 -0.572103515505586
outer loop
vertex 0.2962 0.8138 -0.5
vertex 0.38302 0.66341 -0.64279
vertex 0.262 0.71985 -0.64279
endloop
endfacet
facet normal 0.4704421580952256 0.671842906456352 -0.5721112522324554
outer loop
vertex 0.4924 0.58682 -0.64279
vertex 0.43301 0.75 -0.5
vertex 0.55667 0.66341 -0.5
endloop
endfacet
facet normal 0.4704379643059718 0.6718436419348112 -0.5721138370389433
outer loop
vertex 0.43301 0.75 -0.5
vertex 0.4924 0.58682 -0.64279
vertex 0.38302 0.66341 -0.64279
endloop
endfacet
facet normal 0.671842906456353 0.47044215809522416 -0.5721112522324553
outer loop
vertex 0.75 0.43301 -0.5
vertex 0.58682 0.4924 -0.64279
vertex 0.66341 0.55667 -0.5
endloop
endfacet
facet normal 0.6718436419348107 0.47043796430597246 -0.5721138370389431
outer loop
vertex 0.58682 0.4924 -0.64279
vertex 0.75 0.43301 -0.5
vertex 0.66341 0.38302 -0.64279
endloop
endfacet
facet normal 0.5799513860376767 0.5799513860376767 -0.572112558563396
outer loop
vertex 0.66341 0.55667 -0.5
vertex 0.4924 0.58682 -0.64279
vertex 0.55667 0.66341 -0.5
endloop
endfacet
facet normal 0.5799513860376774 0.5799513860376779 -0.5721125585633943
outer loop
vertex 0.4924 0.58682 -0.64279
vertex 0.66341 0.55667 -0.5
vertex 0.58682 0.4924 -0.64279
endloop
endfacet
facet normal 0.742890099633451 0.5201947146199805 -0.4213214434942027
outer loop
vertex 0.75 0.43301 -0.5
vertex 0.71985 0.60402 -0.34202
vertex 0.8138 0.46985 -0.34202
endloop
endfacet
facet normal 0.7428925903748602 0.5201930244263236 -0.42131913854502767
outer loop
vertex 0.71985 0.60402 -0.34202
vertex 0.75 0.43301 -0.5
vertex 0.66341 0.55667 -0.5
endloop
endfacet
facet normal 0.6412858852161257 0.6412858852161257 -0.4213132170311533
outer loop
vertex 0.66341 0.55667 -0.5
vertex 0.60402 0.71985 -0.34202
vertex 0.71985 0.60402 -0.34202
endloop
endfacet
facet normal 0.6412858852161255 0.6412858852161255 -0.4213132170311542
outer loop
vertex 0.60402 0.71985 -0.34202
vertex 0.66341 0.55667 -0.5
vertex 0.55667 0.66341 -0.5
endloop
endfacet
facet normal 0.5201947146199796 0.7428900996334518 -0.4213214434942019
outer loop
vertex 0.60402 0.71985 -0.34202
vertex 0.43301 0.75 -0.5
vertex 0.46985 0.8138 -0.34202
endloop
endfacet
facet normal 0.5201930244263235 0.7428925903748599 -0.42131913854502856
outer loop
vertex 0.43301 0.75 -0.5
vertex 0.60402 0.71985 -0.34202
vertex 0.55667 0.66341 -0.5
endloop
endfacet
facet normal 0.5541607709560223 0.7914491937013597 -0.25790310917647874
outer loop
vertex 0.60402 0.71985 -0.34202
vertex 0.4924 0.85287 -0.17365
vertex 0.63302 0.75441 -0.17365
endloop
endfacet
facet normal 0.5541895423565251 0.7914381149332085 -0.2578752825953562
outer loop
vertex 0.4924 0.85287 -0.17365
vertex 0.60402 0.71985 -0.34202
vertex 0.46985 0.8138 -0.34202
endloop
endfacet
facet normal 0.6831857568511915 0.6831857568511926 -0.2579039419460815
outer loop
vertex 0.75441 0.63302 -0.17365
vertex 0.60402 0.71985 -0.34202
vertex 0.63302 0.75441 -0.17365
endloop
endfacet
facet normal 0.6831857568511918 0.683185756851192 -0.25790394194608246
outer loop
vertex 0.60402 0.71985 -0.34202
vertex 0.75441 0.63302 -0.17365
vertex 0.71985 0.60402 -0.34202
endloop
endfacet
facet normal 0.07150265891441326 0.8170645780812698 -0.5720951363305282
outer loop
vertex 0.13302 0.75441 -0.64279
vertex 0 0.86603 -0.5
vertex 0.15038 0.85287 -0.5
endloop
endfacet
facet normal 0.07143414663994255 0.8170395688774836 -0.5721394109675707
outer loop
vertex 0 0.86603 -0.5
vertex 0.13302 0.75441 -0.64279
vertex 0 0.76604 -0.64279
endloop
endfacet
facet normal 0.2122670095242416 0.7922389385417153 -0.5721015477395001
outer loop
vertex 0.262 0.71985 -0.64279
vertex 0.15038 0.85287 -0.5
vertex 0.2962 0.8138 -0.5
endloop
endfacet
facet normal 0.21227986088342107 0.7922412169196665 -0.5720936242233097
outer loop
vertex 0.15038 0.85287 -0.5
vertex 0.262 0.71985 -0.64279
vertex 0.13302 0.75441 -0.64279
endloop
endfacet
facet normal 0.1833523263257954 0.6842819169415826 -0.705790466482562
outer loop
vertex 0.21985 0.60402 -0.76604
vertex 0.13302 0.75441 -0.64279
vertex 0.262 0.71985 -0.64279
endloop
endfacet
facet normal 0.18335187013262788 0.6842818242915296 -0.7057906748201793
outer loop
vertex 0.13302 0.75441 -0.64279
vertex 0.21985 0.60402 -0.76604
vertex 0.11162 0.63302 -0.76604
endloop
endfacet
facet normal 0.06170211942754056 0.7057279386286635 -0.705790992502091
outer loop
vertex 0.11162 0.63302 -0.76604
vertex 0 0.76604 -0.64279
vertex 0.13302 0.75441 -0.64279
endloop
endfacet
facet normal 0.06177422658981665 0.7057563123802825 -0.7057563123802828
outer loop
vertex 0 0.76604 -0.64279
vertex 0.11162 0.63302 -0.76604
vertex 0 0.64279 -0.76604
endloop
endfacet
facet normal -0.38331052619226297 0.8219547506013092 -0.42126408400687354
outer loop
vertex -0.43301 0.75 -0.5
vertex -0.32139 0.88302 -0.34202
vertex -0.2962 0.8138 -0.5
endloop
endfacet
facet normal -0.38324164587898635 0.821959762311387 -0.4213169709434617
outer loop
vertex -0.32139 0.88302 -0.34202
vertex -0.43301 0.75 -0.5
vertex -0.46985 0.8138 -0.34202
endloop
endfacet
facet normal -0.5201947146199799 0.7428900996334518 -0.42132144349420214
outer loop
vertex -0.43301 0.75 -0.5
vertex -0.60402 0.71985 -0.34202
vertex -0.46985 0.8138 -0.34202
endloop
endfacet
facet normal -0.5201930244263235 0.7428925903748599 -0.42131913854502856
outer loop
vertex -0.60402 0.71985 -0.34202
vertex -0.43301 0.75 -0.5
vertex -0.55667 0.66341 -0.5
endloop
endfacet
facet normal -0.5541649310428303 0.7914551351131718 -0.25787593587864344
outer loop
vertex -0.46985 0.8138 -0.34202
vertex -0.63302 0.75441 -0.17365
vertex -0.4924 0.85287 -0.17365
endloop
endfacet
facet normal -0.5541851821821601 0.7914318881679648 -0.25790376158679024
outer loop
vertex -0.63302 0.75441 -0.17365
vertex -0.46985 0.8138 -0.34202
vertex -0.60402 0.71985 -0.34202
endloop
endfacet
facet normal -0.4083270543959385 0.8756378101022767 -0.2579291417572387
outer loop
vertex -0.32139 0.88302 -0.34202
vertex -0.4924 0.85287 -0.17365
vertex -0.33682 0.92542 -0.17365
endloop
endfacet
facet normal -0.40828505065322795 0.8756717512276523 -0.25788040157210046
outer loop
vertex -0.4924 0.85287 -0.17365
vertex -0.32139 0.88302 -0.34202
vertex -0.46985 0.8138 -0.34202
endloop
endfacet
facet normal 0.08416991172433246 0.9624979814419445 -0.2579012634333149
outer loop
vertex 0 0.93969 -0.34202
vertex 0.17101 0.96985 -0.17365
vertex 0.16318 0.92542 -0.34202
endloop
endfacet
facet normal 0.08419871320325817 0.9624880979204024 -0.25792874608403266
outer loop
vertex 0.17101 0.96985 -0.17365
vertex 0 0.93969 -0.34202
vertex 0 0.98481 -0.17365
endloop
endfacet
facet normal 0.25006849433684186 0.9332400865629478 -0.2579315586974316
outer loop
vertex 0.32139 0.88302 -0.34202
vertex 0.17101 0.96985 -0.17365
vertex 0.33682 0.92542 -0.17365
endloop
endfacet
facet normal 0.2501065030558458 0.9332393832185235 -0.25789724841317313
outer loop
vertex 0.17101 0.96985 -0.17365
vertex 0.32139 0.88302 -0.34202
vertex 0.16318 0.92542 -0.34202
endloop
endfacet
facet normal 0.23477227467632036 0.8760217352957699 -0.4212693892661729
outer loop
vertex 0.2962 0.8138 -0.5
vertex 0.16318 0.92542 -0.34202
vertex 0.32139 0.88302 -0.34202
endloop
endfacet
facet normal 0.23471358370142653 0.8760157352275908 -0.42131456806013357
outer loop
vertex 0.16318 0.92542 -0.34202
vertex 0.2962 0.8138 -0.5
vertex 0.15038 0.85287 -0.5
endloop
endfacet
facet normal 0.07906364685986071 0.9034643780232473 -0.4213087435459727
outer loop
vertex 0 0.86603 -0.5
vertex 0.16318 0.92542 -0.34202
vertex 0.15038 0.85287 -0.5
endloop
endfacet
facet normal 0.07900973883337288 0.9034904823286476 -0.42126287459379835
outer loop
vertex 0.16318 0.92542 -0.34202
vertex 0 0.86603 -0.5
vertex 0 0.93969 -0.34202
endloop
endfacet
facet normal 0.061853229922811837 -0.06185322992280825 -0.9961668313571937
outer loop
vertex 0 0 -1
vertex 0.13302 -0.11162 -0.98481
vertex 0.11162 -0.13302 -0.98481
endloop
endfacet
facet normal 0.1490005563597454 -0.212783250661115 -0.9656718502900328
outer loop
vertex 0.17101 -0.2962 -0.93969
vertex 0.11162 -0.13302 -0.98481
vertex 0.21985 -0.262 -0.93969
endloop
endfacet
facet normal 0.14895933453858234 -0.21279904934083593 -0.965674728494776
outer loop
vertex 0.11162 -0.13302 -0.98481
vertex 0.17101 -0.2962 -0.93969
vertex 0.08682 -0.15038 -0.98481
endloop
endfacet
facet normal 0.05016358081626481 -0.07166225830894667 -0.9961667209326718
outer loop
vertex 0.11162 -0.13302 -0.98481
vertex 0.08682 -0.15038 -0.98481
vertex 0 0 -1
endloop
endfacet
facet normal 0.2509276099406403 -0.06719436340065749 -0.9656708818726276
outer loop
vertex 0.33682 -0.05939 -0.93969
vertex 0.16318 -0.05939 -0.98481
vertex 0.17101 -0.03015 -0.98481
endloop
endfacet
facet normal 0.2509269979850375 -0.06723048409288256 -0.965668526820075
outer loop
vertex 0.16318 -0.05939 -0.98481
vertex 0.33682 -0.05939 -0.93969
vertex 0.32139 -0.11698 -0.93969
endloop
endfacet
facet normal 0.08449555701641992 -0.022626546218829254 -0.9961669238891101
outer loop
vertex 0 0 -1
vertex 0.17101 -0.03015 -0.98481
vertex 0.16318 -0.05939 -0.98481
endloop
endfacet
facet normal 0.18368160766947042 -0.18368160766947175 -0.9656718562782685
outer loop
vertex 0.262 -0.21985 -0.93969
vertex 0.11162 -0.13302 -0.98481
vertex 0.13302 -0.11162 -0.98481
endloop
endfacet
facet normal 0.18368160766947378 -0.18368160766947175 -0.9656718562782679
outer loop
vertex 0.11162 -0.13302 -0.98481
vertex 0.262 -0.21985 -0.93969
vertex 0.21985 -0.262 -0.93969
endloop
endfacet
facet normal 0.2555883078427141 -0.17897461359993727 -0.9500751047053337
outer loop
vertex 0.2962 -0.17101 -0.93969
vertex 1 -1.5 -0.5
vertex 0.262 -0.21985 -0.93969
endloop
endfacet
facet normal 0.2082089592991006 -0.20820895929909827 -0.9556662903624736
outer loop
vertex 1 -1.5 -0.5
vertex 0.21985 -0.262 -0.93969
vertex 0.262 -0.21985 -0.93969
endloop
endfacet
facet normal -0.34666121900325514 0.7433192899322112 -0.5721035155055861
outer loop
vertex -0.38302 0.66341 -0.64279
vertex -0.2962 0.8138 -0.5
vertex -0.262 0.71985 -0.64279
endloop
endfacet
facet normal -0.3466396422987492 0.7433192705782435 -0.5721166143139206
outer loop
vertex -0.2962 0.8138 -0.5
vertex -0.38302 0.66341 -0.64279
vertex -0.43301 0.75 -0.5
endloop
endfacet
facet normal -0.29939915819583734 0.6420483743021204 -0.7057861072078626
outer loop
vertex -0.32139 0.55667 -0.76604
vertex -0.262 0.71985 -0.64279
vertex -0.21985 0.60402 -0.76604
endloop
endfacet
facet normal -0.2994319785109381 0.6420492211090305 -0.7057714133615162
outer loop
vertex -0.262 0.71985 -0.64279
vertex -0.32139 0.55667 -0.76604
vertex -0.38302 0.66341 -0.64279
endloop
endfacet
facet normal -0.18335187013262833 0.6842818242915301 -0.705790674820179
outer loop
vertex -0.21985 0.60402 -0.76604
vertex -0.13302 0.75441 -0.64279
vertex -0.11162 0.63302 -0.76604
endloop
endfacet
facet normal -0.18335232632579598 0.6842819169415825 -0.7057904664825619
outer loop
vertex -0.13302 0.75441 -0.64279
vertex -0.21985 0.60402 -0.76604
vertex -0.262 0.71985 -0.64279
endloop
endfacet
facet normal -0.061774226589816815 0.7057563123802824 -0.7057563123802827
outer loop
vertex -0.11162 0.63302 -0.76604
vertex 0 0.76604 -0.64279
vertex 0 0.64279 -0.76604
endloop
endfacet
facet normal -0.06170211942754054 0.7057279386286632 -0.7057909925020913
outer loop
vertex 0 0.76604 -0.64279
vertex -0.11162 0.63302 -0.76604
vertex -0.13302 0.75441 -0.64279
endloop
endfacet
facet normal 0.05016358081626481 0.07166225830894667 -0.9961667209326718
outer loop
vertex 0.11162 0.13302 -0.98481
vertex 0 0 -1
vertex 0.08682 0.15038 -0.98481
endloop
endfacet
facet normal 0.25878145784511114 -0.022659470935690627 -0.9656700810589884
outer loop
vertex 0.34202 0 -0.93969
vertex 0.17101 -0.03015 -0.98481
vertex 0.17365 0 -0.98481
endloop
endfacet
facet normal 0.2587812343030632 -0.022658063956489696 -0.9656701739778064
outer loop
vertex 0.17101 -0.03015 -0.98481
vertex 0.34202 0 -0.93969
vertex 0.33682 -0.05939 -0.93969
endloop
endfacet
facet normal 0.2587810014834263 0.022659430975663277 -0.9656702042929015
outer loop
vertex 0.33682 0.05939 -0.93969
vertex 0.17365 0 -0.98481
vertex 0.17101 0.03015 -0.98481
endloop
endfacet
facet normal 0.2587814659804091 0.022658084241422828 -0.9656701114166985
outer loop
vertex 0.17365 0 -0.98481
vertex 0.33682 0.05939 -0.93969
vertex 0.34202 0 -0.93969
endloop
endfacet
facet normal 0.42229497409000755 -0.03697480830557381 -0.9057040457064803
outer loop
vertex 0.5 0 -0.86603
vertex 0.33682 -0.05939 -0.93969
vertex 0.34202 0 -0.93969
endloop
endfacet
facet normal 0.42229257635562617 -0.036966408434724096 -0.9057055065540702
outer loop
vertex 0.33682 -0.05939 -0.93969
vertex 0.5 0 -0.86603
vertex 0.4924 -0.08682 -0.86603
endloop
endfacet
facet normal 0.050148494461486386 0.5728805643613308 -0.8181032865600099
outer loop
vertex 0 0.5 -0.86603
vertex 0.11162 0.63302 -0.76604
vertex 0.08682 0.4924 -0.86603
endloop
endfacet
facet normal 0.050143959920282186 0.5728831940943765 -0.8181017230196609
outer loop
vertex 0.11162 0.63302 -0.76604
vertex 0 0.5 -0.86603
vertex 0 0.64279 -0.76604
endloop
endfacet
facet normal 0.14884432619121185 0.5554972904715451 -0.8180880923466959
outer loop
vertex 0.17101 0.46985 -0.86603
vertex 0.11162 0.63302 -0.76604
vertex 0.21985 0.60402 -0.76604
endloop
endfacet
facet normal 0.14878520211243015 0.5554867479310667 -0.8181060056651162
outer loop
vertex 0.11162 0.63302 -0.76604
vertex 0.17101 0.46985 -0.86603
vertex 0.08682 0.4924 -0.86603
endloop
endfacet
facet normal 0.1791800057970725 0.3841864456544748 -0.9057015515598624
outer loop
vertex 0.17101 0.2962 -0.93969
vertex 0.17101 0.46985 -0.86603
vertex 0.25 0.43301 -0.86603
endloop
endfacet
facet normal 0.17911839579023195 0.38419082669893984 -0.9057118796669938
outer loop
vertex 0.17101 0.46985 -0.86603
vertex 0.17101 0.2962 -0.93969
vertex 0.11698 0.32139 -0.93969
endloop
endfacet
facet normal 0.24304277643831299 0.5211945833061487 -0.8180992697426678
outer loop
vertex 0.25 0.43301 -0.86603
vertex 0.21985 0.60402 -0.76604
vertex 0.32139 0.55667 -0.76604
endloop
endfacet
facet normal 0.24307900955304354 0.5211946515905278 -0.8180884611508341
outer loop
vertex 0.21985 0.60402 -0.76604
vertex 0.25 0.43301 -0.86603
vertex 0.17101 0.46985 -0.86603
endloop
endfacet
facet normal 0.24315591445578766 0.3472474641528059 -0.9057010543797636
outer loop
vertex 0.21985 0.262 -0.93969
vertex 0.25 0.43301 -0.86603
vertex 0.32139 0.38302 -0.86603
endloop
endfacet
facet normal 0.2431581512329739 0.3472469036905922 -0.9057006687456176
outer loop
vertex 0.25 0.43301 -0.86603
vertex 0.21985 0.262 -0.93969
vertex 0.17101 0.2962 -0.93969
endloop
endfacet
facet normal 0.14900055635974535 0.21278325066111495 -0.9656718502900329
outer loop
vertex 0.11162 0.13302 -0.98481
vertex 0.17101 0.2962 -0.93969
vertex 0.21985 0.262 -0.93969
endloop
endfacet
facet normal 0.14895933453858629 0.2127990493408359 -0.9656747284947753
outer loop
vertex 0.17101 0.2962 -0.93969
vertex 0.11162 0.13302 -0.98481
vertex 0.08682 0.15038 -0.98481
endloop
endfacet
facet normal 0.5554972904715464 0.1488443261912115 -0.8180880923466951
outer loop
vertex 0.63302 0.11162 -0.76604
vertex 0.46985 0.17101 -0.86603
vertex 0.60402 0.21985 -0.76604
endloop
endfacet
facet normal 0.5554867479310662 0.148785202112432 -0.818106005665116
outer loop
vertex 0.46985 0.17101 -0.86603
vertex 0.63302 0.11162 -0.76604
vertex 0.4924 0.08682 -0.86603
endloop
endfacet
facet normal 0.5728805643613301 0.05014849446148467 -0.8181032865600103
outer loop
vertex 0.63302 0.11162 -0.76604
vertex 0.5 0 -0.86603
vertex 0.4924 0.08682 -0.86603
endloop
endfacet
facet normal 0.5728831940943767 0.050143959920282775 -0.8181017230196608
outer loop
vertex 0.5 0 -0.86603
vertex 0.63302 0.11162 -0.76604
vertex 0.64279 0 -0.76604
endloop
endfacet
facet normal 0.42229257635562656 0.03696640843472409 -0.90570550655407
outer loop
vertex 0.5 0 -0.86603
vertex 0.33682 0.05939 -0.93969
vertex 0.4924 0.08682 -0.86603
endloop
endfacet
facet normal 0.42229497409000755 0.03697480830557381 -0.9057040457064803
outer loop
vertex 0.33682 0.05939 -0.93969
vertex 0.5 0 -0.86603
vertex 0.34202 0 -0.93969
endloop
endfacet
facet normal 0.3841864456544748 0.1791800057970734 -0.9057015515598624
outer loop
vertex 0.46985 0.17101 -0.86603
vertex 0.2962 0.17101 -0.93969
vertex 0.43301 0.25 -0.86603
endloop
endfacet
facet normal 0.38419082669893934 0.1791183957902324 -0.905711879666994
outer loop
vertex 0.2962 0.17101 -0.93969
vertex 0.46985 0.17101 -0.86603
vertex 0.32139 0.11698 -0.93969
endloop
endfacet
facet normal 0.40946363420675186 0.10967341669274609 -0.9057103697833755
outer loop
vertex 0.4924 0.08682 -0.86603
vertex 0.32139 0.11698 -0.93969
vertex 0.46985 0.17101 -0.86603
endloop
endfacet
facet normal 0.4094672211661976 0.10970792190648478 -0.9057045691953822
outer loop
vertex 0.32139 0.11698 -0.93969
vertex 0.4924 0.08682 -0.86603
vertex 0.33682 0.05939 -0.93969
endloop
endfacet
facet normal -0.08713950574918544 0.007630125876545644 -0.9961668975211412
outer loop
vertex -0.17101 0.03015 -0.98481
vertex 0 0 -1
vertex -0.17365 0 -0.98481
endloop
endfacet
facet normal -0.08713950574918544 -0.007630125876545644 -0.9961668975211412
outer loop
vertex -0.17365 0 -0.98481
vertex 0 0 -1
vertex -0.17101 -0.03015 -0.98481
endloop
endfacet
facet normal -0.07166225830894672 0.050163580816262675 -0.996166720932672
outer loop
vertex -0.13302 0.11162 -0.98481
vertex 0 0 -1
vertex -0.15038 0.08682 -0.98481
endloop
endfacet
facet normal -0.06185322992281051 0.06185322992280824 -0.996166831357194
outer loop
vertex -0.11162 0.13302 -0.98481
vertex 0 0 -1
vertex -0.13302 0.11162 -0.98481
endloop
endfacet
facet normal -0.022626546218831485 -0.08449555701641961 -0.9961669238891101
outer loop
vertex 0 0 -1
vertex -0.03015 -0.17101 -0.98481
vertex -0.05939 -0.16318 -0.98481
endloop
endfacet
facet normal -0.007630125876543994 -0.08713950574918614 -0.9961668975211412
outer loop
vertex 0 0 -1
vertex 0 -0.17365 -0.98481
vertex -0.03015 -0.17101 -0.98481
endloop
endfacet
facet normal 0.02913353438835048 -0.3327385783316036 -0.9425689766080285
outer loop
vertex 1 -1.5 -0.5
vertex 0 -0.34202 -0.93969
vertex 0.05939 -0.33682 -0.93969
endloop
endfacet
facet normal 0 -0.35497619792437346 -0.9348753386987785
outer loop
vertex 1 -1.5 -0.5
vertex 0 -1.5 -0.5
vertex 0 -0.34202 -0.93969
endloop
endfacet
facet normal -0.03106558871155066 -0.35480486799600763 -0.9344241193614066
outer loop
vertex 0 -0.34202 -0.93969
vertex 0 -1.5 -0.5
vertex -0.05939 -0.33682 -0.93969
endloop
endfacet
facet normal -0.022659470935691935 -0.25878145784511186 -0.9656700810589883
outer loop
vertex 0 -0.34202 -0.93969
vertex -0.03015 -0.17101 -0.98481
vertex 0 -0.17365 -0.98481
endloop
endfacet
facet normal -0.022658063956487524 -0.2587812343030626 -0.9656701739778065
outer loop
vertex -0.03015 -0.17101 -0.98481
vertex 0 -0.34202 -0.93969
vertex -0.05939 -0.33682 -0.93969
endloop
endfacet
facet normal 0.022659430975663912 -0.2587810014834281 -0.9656702042929008
outer loop
vertex 0.05939 -0.33682 -0.93969
vertex 0 -0.17365 -0.98481
vertex 0.03015 -0.17101 -0.98481
endloop
endfacet
facet normal 0.022658084241420996 -0.2587814659804086 -0.9656701114166988
outer loop
vertex 0 -0.17365 -0.98481
vertex 0.05939 -0.33682 -0.93969
vertex 0 -0.34202 -0.93969
endloop
endfacet
facet normal -0.06719436340065817 -0.250927609940641 -0.9656708818726274
outer loop
vertex -0.05939 -0.33682 -0.93969
vertex -0.05939 -0.16318 -0.98481
vertex -0.03015 -0.17101 -0.98481
endloop
endfacet
facet normal -0.0672304840928809 -0.2509269979850365 -0.9656685268200752
outer loop
vertex -0.05939 -0.16318 -0.98481
vertex -0.05939 -0.33682 -0.93969
vertex -0.11698 -0.32139 -0.93969
endloop
endfacet
facet normal -0.09544526199842066 -0.35623413081587035 -0.9295092500905594
outer loop
vertex 0 -1.5 -0.5
vertex -0.11698 -0.32139 -0.93969
vertex -0.05939 -0.33682 -0.93969
endloop
endfacet
facet normal -0.1674385708590333 -0.35913878457775067 -0.9181414152518665
outer loop
vertex 0 -1.5 -0.5
vertex -0.17101 -0.2962 -0.93969
vertex -0.11698 -0.32139 -0.93969
endloop
endfacet
facet normal -0.10985305328662451 -0.23541166028530672 -0.9656674670326848
outer loop
vertex -0.11698 -0.32139 -0.93969
vertex -0.08682 -0.15038 -0.98481
vertex -0.05939 -0.16318 -0.98481
endloop
endfacet
facet normal -0.10976240032419968 -0.2354292373766009 -0.9656734901939382
outer loop
vertex -0.08682 -0.15038 -0.98481
vertex -0.11698 -0.32139 -0.93969
vertex -0.17101 -0.2962 -0.93969
endloop
endfacet
facet normal -0.5799513860376767 0.5799513860376767 -0.572112558563396
outer loop
vertex -0.4924 0.58682 -0.64279
vertex -0.66341 0.55667 -0.5
vertex -0.55667 0.66341 -0.5
endloop
endfacet
facet normal -0.5799513860376774 0.5799513860376779 -0.5721125585633943
outer loop
vertex -0.66341 0.55667 -0.5
vertex -0.4924 0.58682 -0.64279
vertex -0.58682 0.4924 -0.64279
endloop
endfacet
facet normal -0.4704379643059718 0.6718436419348112 -0.5721138370389433
outer loop
vertex -0.4924 0.58682 -0.64279
vertex -0.43301 0.75 -0.5
vertex -0.38302 0.66341 -0.64279
endloop
endfacet
facet normal -0.47044215809522577 0.6718429064563524 -0.5721112522324551
outer loop
vertex -0.43301 0.75 -0.5
vertex -0.4924 0.58682 -0.64279
vertex -0.55667 0.66341 -0.5
endloop
endfacet
facet normal -0.6842818242915296 -0.1833518701326298 -0.7057906748201788
outer loop
vertex -0.60402 -0.21985 -0.76604
vertex -0.75441 -0.13302 -0.64279
vertex -0.63302 -0.11162 -0.76604
endloop
endfacet
facet normal -0.6842819169415821 -0.18335232632579607 -0.7057904664825619
outer loop
vertex -0.75441 -0.13302 -0.64279
vertex -0.60402 -0.21985 -0.76604
vertex -0.71985 -0.262 -0.64279
endloop
endfacet
facet normal -0.07143414663994255 0.8170395688774836 -0.5721394109675707
outer loop
vertex -0.13302 0.75441 -0.64279
vertex 0 0.86603 -0.5
vertex 0 0.76604 -0.64279
endloop
endfacet
facet normal -0.07150265891441326 0.81706457808127 -0.572095136330528
outer loop
vertex 0 0.86603 -0.5
vertex -0.13302 0.75441 -0.64279
vertex -0.15038 0.85287 -0.5
endloop
endfacet
facet normal -0.21227986088342105 0.7922412169196664 -0.5720936242233099
outer loop
vertex -0.262 0.71985 -0.64279
vertex -0.15038 0.85287 -0.5
vertex -0.13302 0.75441 -0.64279
endloop
endfacet
facet normal -0.21226700952424168 0.7922389385417157 -0.5721015477395
outer loop
vertex -0.15038 0.85287 -0.5
vertex -0.262 0.71985 -0.64279
vertex -0.2962 0.8138 -0.5
endloop
endfacet
facet normal 0.07166225830894671 -0.05016358081626266 -0.996166720932672
outer loop
vertex 0 0 -1
vertex 0.15038 -0.08682 -0.98481
vertex 0.13302 -0.11162 -0.98481
endloop
endfacet
facet normal 0.07926798528832786 -0.03698979991580606 -0.9961668239860823
outer loop
vertex 0 0 -1
vertex 0.16318 -0.05939 -0.98481
vertex 0.15038 -0.08682 -0.98481
endloop
endfacet
facet normal 0.23541166028530575 -0.10985305328661807 -0.9656674670326858
outer loop
vertex 0.32139 -0.11698 -0.93969
vertex 0.15038 -0.08682 -0.98481
vertex 0.16318 -0.05939 -0.98481
endloop
endfacet
facet normal 0.23542923737660196 -0.10976240032420063 -0.9656734901939379
outer loop
vertex 0.15038 -0.08682 -0.98481
vertex 0.32139 -0.11698 -0.93969
vertex 0.2962 -0.17101 -0.93969
endloop
endfacet
facet normal 0.21279904934083513 -0.14895933453858512 -0.9656747284947755
outer loop
vertex 0.2962 -0.17101 -0.93969
vertex 0.13302 -0.11162 -0.98481
vertex 0.15038 -0.08682 -0.98481
endloop
endfacet
facet normal 0.21278325066111586 -0.14900055635974896 -0.9656718502900321
outer loop
vertex 0.13302 -0.11162 -0.98481
vertex 0.2962 -0.17101 -0.93969
vertex 0.262 -0.21985 -0.93969
endloop
endfacet
facet normal -0.24307900955304446 0.5211946515905278 -0.8180884611508337
outer loop
vertex -0.25 0.43301 -0.86603
vertex -0.21985 0.60402 -0.76604
vertex -0.17101 0.46985 -0.86603
endloop
endfacet
facet normal -0.24304277643831299 0.5211945833061487 -0.8180992697426678
outer loop
vertex -0.21985 0.60402 -0.76604
vertex -0.25 0.43301 -0.86603
vertex -0.32139 0.55667 -0.76604
endloop
endfacet
facet normal 0.036989799915799725 0.07926798528832521 -0.9961668239860826
outer loop
vertex 0.08682 0.15038 -0.98481
vertex 0 0 -1
vertex 0.05939 0.16318 -0.98481
endloop
endfacet
facet normal 0.022626546218826867 0.08449555701641963 -0.9961669238891102
outer loop
vertex 0.05939 0.16318 -0.98481
vertex 0 0 -1
vertex 0.03015 0.17101 -0.98481
endloop
endfacet
facet normal 0.10976240032419968 0.2354292373766009 -0.9656734901939382
outer loop
vertex 0.08682 0.15038 -0.98481
vertex 0.11698 0.32139 -0.93969
vertex 0.17101 0.2962 -0.93969
endloop
endfacet
facet normal 0.10985305328662451 0.23541166028530672 -0.9656674670326848
outer loop
vertex 0.11698 0.32139 -0.93969
vertex 0.08682 0.15038 -0.98481
vertex 0.05939 0.16318 -0.98481
endloop
endfacet
facet normal 0.0076301258765472954 0.08713950574918614 -0.9961668975211412
outer loop
vertex 0.03015 0.17101 -0.98481
vertex 0 0 -1
vertex 0 0.17365 -0.98481
endloop
endfacet
facet normal 0.0672304840928809 0.2509269979850365 -0.9656685268200752
outer loop
vertex 0.05939 0.16318 -0.98481
vertex 0.05939 0.33682 -0.93969
vertex 0.11698 0.32139 -0.93969
endloop
endfacet
facet normal 0.06719436340065817 0.250927609940641 -0.9656708818726274
outer loop
vertex 0.05939 0.33682 -0.93969
vertex 0.05939 0.16318 -0.98481
vertex 0.03015 0.17101 -0.98481
endloop
endfacet
facet normal 0.022658063956487524 0.2587812343030626 -0.9656701739778065
outer loop
vertex 0.03015 0.17101 -0.98481
vertex 0 0.34202 -0.93969
vertex 0.05939 0.33682 -0.93969
endloop
endfacet
facet normal 0.022659470935691935 0.25878145784511186 -0.9656700810589883
outer loop
vertex 0 0.34202 -0.93969
vertex 0.03015 0.17101 -0.98481
vertex 0 0.17365 -0.98481
endloop
endfacet
facet normal 0.03696640843472569 0.4222925763556265 -0.90570550655407
outer loop
vertex 0.05939 0.33682 -0.93969
vertex 0 0.5 -0.86603
vertex 0.08682 0.4924 -0.86603
endloop
endfacet
facet normal 0.036974808305572954 0.4222949740900073 -0.9057040457064803
outer loop
vertex 0 0.5 -0.86603
vertex 0.05939 0.33682 -0.93969
vertex 0 0.34202 -0.93969
endloop
endfacet
facet normal 0.10967341669274508 0.4094636342067519 -0.9057103697833754
outer loop
vertex 0.11698 0.32139 -0.93969
vertex 0.08682 0.4924 -0.86603
vertex 0.17101 0.46985 -0.86603
endloop
endfacet
facet normal 0.10970792190648473 0.4094672211661976 -0.9057045691953822
outer loop
vertex 0.08682 0.4924 -0.86603
vertex 0.11698 0.32139 -0.93969
vertex 0.05939 0.33682 -0.93969
endloop
endfacet
facet normal 0.5211945833061489 0.24304277643831207 -0.8180992697426678
outer loop
vertex 0.60402 0.21985 -0.76604
vertex 0.43301 0.25 -0.86603
vertex 0.55667 0.32139 -0.76604
endloop
endfacet
facet normal 0.5211946515905275 0.24307900955304382 -0.8180884611508341
outer loop
vertex 0.43301 0.25 -0.86603
vertex 0.60402 0.21985 -0.76604
vertex 0.46985 0.17101 -0.86603
endloop
endfacet
facet normal 0.5803227785788856 0.4063532785825273 -0.7057637605089347
outer loop
vertex 0.66341 0.38302 -0.64279
vertex 0.4924 0.41318 -0.76604
vertex 0.58682 0.4924 -0.64279
endloop
endfacet
facet normal 0.5803254706069638 0.40633530881261254 -0.7057718930199507
outer loop
vertex 0.4924 0.41318 -0.76604
vertex 0.66341 0.38302 -0.64279
vertex 0.55667 0.32139 -0.76604
endloop
endfacet
facet normal 0.6420492211090307 0.29943197851093795 -0.7057714133615164
outer loop
vertex 0.71985 0.262 -0.64279
vertex 0.55667 0.32139 -0.76604
vertex 0.66341 0.38302 -0.64279
endloop
endfacet
facet normal 0.6420483743021198 0.2993991581958362 -0.7057861072078635
outer loop
vertex 0.55667 0.32139 -0.76604
vertex 0.71985 0.262 -0.64279
vertex 0.60402 0.21985 -0.76604
endloop
endfacet
facet normal 0.40635327858252773 0.5803227785788854 -0.7057637605089345
outer loop
vertex 0.41318 0.4924 -0.76604
vertex 0.38302 0.66341 -0.64279
vertex 0.4924 0.58682 -0.64279
endloop
endfacet
facet normal 0.4063353088126126 0.5803254706069653 -0.7057718930199494
outer loop
vertex 0.38302 0.66341 -0.64279
vertex 0.41318 0.4924 -0.76604
vertex 0.32139 0.55667 -0.76604
endloop
endfacet
facet normal 0.5009501458278851 0.5009501458278857 -0.7057605137651447
outer loop
vertex 0.58682 0.4924 -0.64279
vertex 0.41318 0.4924 -0.76604
vertex 0.4924 0.58682 -0.64279
endloop
endfacet
facet normal 0.5009501458278857 0.5009501458278857 -0.7057605137651439
outer loop
vertex 0.41318 0.4924 -0.76604
vertex 0.58682 0.4924 -0.64279
vertex 0.4924 0.41318 -0.76604
endloop
endfacet
facet normal 0.3298398563711171 0.47107515818118817 -0.8181038225638902
outer loop
vertex 0.32139 0.38302 -0.86603
vertex 0.32139 0.55667 -0.76604
vertex 0.41318 0.4924 -0.76604
endloop
endfacet
facet normal 0.32986207458397404 0.4710712843478658 -0.8180970949795685
outer loop
vertex 0.32139 0.55667 -0.76604
vertex 0.32139 0.38302 -0.86603
vertex 0.25 0.43301 -0.86603
endloop
endfacet
facet normal 0.4066335558447795 0.4066335558447781 -0.8181065349464349
outer loop
vertex 0.4924 0.41318 -0.76604
vertex 0.32139 0.38302 -0.86603
vertex 0.41318 0.4924 -0.76604
endloop
endfacet
facet normal 0.4066335558447777 0.4066335558447786 -0.8181065349464355
outer loop
vertex 0.32139 0.38302 -0.86603
vertex 0.4924 0.41318 -0.76604
vertex 0.38302 0.32139 -0.86603
endloop
endfacet
facet normal 0.4710751581811895 0.3298398563711178 -0.8181038225638895
outer loop
vertex 0.55667 0.32139 -0.76604
vertex 0.38302 0.32139 -0.86603
vertex 0.4924 0.41318 -0.76604
endloop
endfacet
facet normal 0.47107128434786594 0.3298620745839732 -0.8180970949795687
outer loop
vertex 0.38302 0.32139 -0.86603
vertex 0.55667 0.32139 -0.76604
vertex 0.43301 0.25 -0.86603
endloop
endfacet
facet normal 0.3472474641528067 0.24315591445578852 -0.9057010543797629
outer loop
vertex 0.43301 0.25 -0.86603
vertex 0.262 0.21985 -0.93969
vertex 0.38302 0.32139 -0.86603
endloop
endfacet
facet normal 0.3472469036905929 0.24315815123297058 -0.905700668745618
outer loop
vertex 0.262 0.21985 -0.93969
vertex 0.43301 0.25 -0.86603
vertex 0.2962 0.17101 -0.93969
endloop
endfacet
facet normal 0.2997566428030404 0.2997566428030408 -0.905699679911007
outer loop
vertex 0.262 0.21985 -0.93969
vertex 0.32139 0.38302 -0.86603
vertex 0.38302 0.32139 -0.86603
endloop
endfacet
facet normal 0.29975664280304 0.299756642803042 -0.9056996799110069
outer loop
vertex 0.32139 0.38302 -0.86603
vertex 0.262 0.21985 -0.93969
vertex 0.21985 0.262 -0.93969
endloop
endfacet
facet normal -0.5211946515905275 -0.24307900955304382 -0.8180884611508341
outer loop
vertex -0.43301 -0.25 -0.86603
vertex -0.60402 -0.21985 -0.76604
vertex -0.46985 -0.17101 -0.86603
endloop
endfacet
facet normal -0.5211945833061489 -0.24304277643831207 -0.8180992697426678
outer loop
vertex -0.60402 -0.21985 -0.76604
vertex -0.43301 -0.25 -0.86603
vertex -0.55667 -0.32139 -0.76604
endloop
endfacet
facet normal -0.38419082669893934 -0.1791183957902324 -0.905711879666994
outer loop
vertex -0.2962 -0.17101 -0.93969
vertex -0.46985 -0.17101 -0.86603
vertex -0.32139 -0.11698 -0.93969
endloop
endfacet
facet normal -0.3841864456544748 -0.1791800057970734 -0.9057015515598624
outer loop
vertex -0.46985 -0.17101 -0.86603
vertex -0.2962 -0.17101 -0.93969
vertex -0.43301 -0.25 -0.86603
endloop
endfacet
facet normal -0.2509276099406403 -0.06719436340065749 -0.9656708818726276
outer loop
vertex -0.16318 -0.05939 -0.98481
vertex -0.33682 -0.05939 -0.93969
vertex -0.17101 -0.03015 -0.98481
endloop
endfacet
facet normal -0.2509269979850375 -0.06723048409288256 -0.965668526820075
outer loop
vertex -0.33682 -0.05939 -0.93969
vertex -0.16318 -0.05939 -0.98481
vertex -0.32139 -0.11698 -0.93969
endloop
endfacet
facet normal -0.07926798528832785 0.03698979991580605 -0.9961668239860823
outer loop
vertex -0.15038 0.08682 -0.98481
vertex 0 0 -1
vertex -0.16318 0.05939 -0.98481
endloop
endfacet
facet normal -0.08449555701641993 0.022626546218829258 -0.9961669238891101
outer loop
vertex -0.16318 0.05939 -0.98481
vertex 0 0 -1
vertex -0.17101 0.03015 -0.98481
endloop
endfacet
facet normal -0.05016358081626086 0.07166225830894668 -0.9961667209326721
outer loop
vertex 0 0 -1
vertex -0.11162 0.13302 -0.98481
vertex -0.08682 0.15038 -0.98481
endloop
endfacet
facet normal -0.0369897999158017 0.07926798528832521 -0.9961668239860826
outer loop
vertex 0 0 -1
vertex -0.08682 0.15038 -0.98481
vertex -0.05939 0.16318 -0.98481
endloop
endfacet
facet normal -0.5009501458278851 0.5009501458278857 -0.7057605137651447
outer loop
vertex -0.41318 0.4924 -0.76604
vertex -0.58682 0.4924 -0.64279
vertex -0.4924 0.58682 -0.64279
endloop
endfacet
facet normal -0.5009501458278857 0.5009501458278857 -0.7057605137651439
outer loop
vertex -0.58682 0.4924 -0.64279
vertex -0.41318 0.4924 -0.76604
vertex -0.4924 0.41318 -0.76604
endloop
endfacet
facet normal -0.4063353088126126 0.5803254706069653 -0.7057718930199494
outer loop
vertex -0.41318 0.4924 -0.76604
vertex -0.38302 0.66341 -0.64279
vertex -0.32139 0.55667 -0.76604
endloop
endfacet
facet normal -0.4063532785825273 0.5803227785788856 -0.7057637605089347
outer loop
vertex -0.38302 0.66341 -0.64279
vertex -0.41318 0.4924 -0.76604
vertex -0.4924 0.58682 -0.64279
endloop
endfacet
facet normal -0.3298620745839732 0.47107128434786594 -0.8180970949795687
outer loop
vertex -0.32139 0.38302 -0.86603
vertex -0.32139 0.55667 -0.76604
vertex -0.25 0.43301 -0.86603
endloop
endfacet
facet normal -0.3298398563711171 0.47107515818118817 -0.8181038225638902
outer loop
vertex -0.32139 0.55667 -0.76604
vertex -0.32139 0.38302 -0.86603
vertex -0.41318 0.4924 -0.76604
endloop
endfacet
facet normal -0.5803227785788856 0.4063532785825273 -0.7057637605089347
outer loop
vertex -0.4924 0.41318 -0.76604
vertex -0.66341 0.38302 -0.64279
vertex -0.58682 0.4924 -0.64279
endloop
endfacet
facet normal -0.5803254706069645 0.4063353088126125 -0.7057718930199502
outer loop
vertex -0.66341 0.38302 -0.64279
vertex -0.4924 0.41318 -0.76604
vertex -0.55667 0.32139 -0.76604
endloop
endfacet
facet normal -0.743319270578244 0.34663964229874916 -0.57211661431392
outer loop
vertex -0.66341 0.38302 -0.64279
vertex -0.8138 0.2962 -0.5
vertex -0.75 0.43301 -0.5
endloop
endfacet
facet normal -0.7433192899322117 0.34666121900325547 -0.5721035155055854
outer loop
vertex -0.8138 0.2962 -0.5
vertex -0.66341 0.38302 -0.64279
vertex -0.71985 0.262 -0.64279
endloop
endfacet
facet normal -0.671842906456353 0.47044215809522416 -0.5721112522324553
outer loop
vertex -0.58682 0.4924 -0.64279
vertex -0.75 0.43301 -0.5
vertex -0.66341 0.55667 -0.5
endloop
endfacet
facet normal -0.6718436419348109 0.47043796430597234 -0.572113837038943
outer loop
vertex -0.75 0.43301 -0.5
vertex -0.58682 0.4924 -0.64279
vertex -0.66341 0.38302 -0.64279
endloop
endfacet
facet normal -0.9034701233656428 0.07900795845340974 -0.42130686997329475
outer loop
vertex -0.85287 0.15038 -0.5
vertex -0.93969 0 -0.34202
vertex -0.92542 0.16318 -0.34202
endloop
endfacet
facet normal -0.9034864696558631 0.0790655801347995 -0.4212610036387573
outer loop
vertex -0.93969 0 -0.34202
vertex -0.85287 0.15038 -0.5
vertex -0.86603 0 -0.5
endloop
endfacet
facet normal -0.8760217352957705 0.234772274676321 -0.4212693892661714
outer loop
vertex -0.8138 0.2962 -0.5
vertex -0.92542 0.16318 -0.34202
vertex -0.88302 0.32139 -0.34202
endloop
endfacet
facet normal -0.8760157352275905 0.2347135837014272 -0.42131456806013406
outer loop
vertex -0.92542 0.16318 -0.34202
vertex -0.8138 0.2962 -0.5
vertex -0.85287 0.15038 -0.5
endloop
endfacet
facet normal -0.817039568877483 -0.07143414663994316 -0.5721394109675716
outer loop
vertex -0.75441 -0.13302 -0.64279
vertex -0.86603 0 -0.5
vertex -0.76604 0 -0.64279
endloop
endfacet
facet normal -0.8170645780812702 -0.07150265891441325 -0.5720951363305276
outer loop
vertex -0.86603 0 -0.5
vertex -0.75441 -0.13302 -0.64279
vertex -0.85287 -0.15038 -0.5
endloop
endfacet
facet normal -0.7922412169196661 -0.21227986088342135 -0.5720936242233101
outer loop
vertex -0.71985 -0.262 -0.64279
vertex -0.85287 -0.15038 -0.5
vertex -0.75441 -0.13302 -0.64279
endloop
endfacet
facet normal -0.7922389385417156 -0.21226700952424074 -0.5721015477395006
outer loop
vertex -0.85287 -0.15038 -0.5
vertex -0.71985 -0.262 -0.64279
vertex -0.8138 -0.2962 -0.5
endloop
endfacet
facet normal -0.8760157352275904 -0.23471358370142711 -0.42131456806013406
outer loop
vertex -0.8138 -0.2962 -0.5
vertex -0.92542 -0.16318 -0.34202
vertex -0.85287 -0.15038 -0.5
endloop
endfacet
facet normal -0.8760217352957703 -0.234772274676321 -0.4212693892661714
outer loop
vertex -0.92542 -0.16318 -0.34202
vertex -0.8138 -0.2962 -0.5
vertex -0.88302 -0.32139 -0.34202
endloop
endfacet
facet normal -0.9034864696558631 -0.0790655801347995 -0.4212610036387573
outer loop
vertex -0.85287 -0.15038 -0.5
vertex -0.93969 0 -0.34202
vertex -0.86603 0 -0.5
endloop
endfacet
facet normal -0.9034701233656427 -0.07900795845340972 -0.4213068699732946
outer loop
vertex -0.93969 0 -0.34202
vertex -0.85287 -0.15038 -0.5
vertex -0.92542 -0.16318 -0.34202
endloop
endfacet
facet normal -0.079065580134799 0.9034864696558629 -0.42126100363875785
outer loop
vertex -0.15038 0.85287 -0.5
vertex 0 0.93969 -0.34202
vertex 0 0.86603 -0.5
endloop
endfacet
facet normal -0.07900795845341212 0.9034701233656428 -0.42130686997329403
outer loop
vertex 0 0.93969 -0.34202
vertex -0.15038 0.85287 -0.5
vertex -0.16318 0.92542 -0.34202
endloop
endfacet
facet normal -0.2347135837014265 0.8760157352275906 -0.4213145680601342
outer loop
vertex -0.2962 0.8138 -0.5
vertex -0.16318 0.92542 -0.34202
vertex -0.15038 0.85287 -0.5
endloop
endfacet
facet normal -0.23477227467632036 0.8760217352957704 -0.4212693892661722
outer loop
vertex -0.16318 0.92542 -0.34202
vertex -0.2962 0.8138 -0.5
vertex -0.32139 0.88302 -0.34202
endloop
endfacet
facet normal -0.2501065030558458 0.9332393832185235 -0.2578972484131737
outer loop
vertex -0.32139 0.88302 -0.34202
vertex -0.17101 0.96985 -0.17365
vertex -0.16318 0.92542 -0.34202
endloop
endfacet
facet normal -0.2500684943368418 0.9332400865629477 -0.2579315586974323
outer loop
vertex -0.17101 0.96985 -0.17365
vertex -0.32139 0.88302 -0.34202
vertex -0.33682 0.92542 -0.17365
endloop
endfacet
facet normal -0.08416925761886031 0.9624905016289856 -0.25792939023281874
outer loop
vertex -0.16318 0.92542 -0.34202
vertex 0 0.98481 -0.17365
vertex 0 0.93969 -0.34202
endloop
endfacet
facet normal -0.084199337575982 0.9624952352184959 -0.2579019071923619
outer loop
vertex 0 0.98481 -0.17365
vertex -0.16318 0.92542 -0.34202
vertex -0.17101 0.96985 -0.17365
endloop
endfacet
facet normal -0.24315815123297382 0.3472469036905921 -0.9057006687456176
outer loop
vertex -0.21985 0.262 -0.93969
vertex -0.25 0.43301 -0.86603
vertex -0.17101 0.2962 -0.93969
endloop
endfacet
facet normal -0.24315591445578844 0.34724746415280566 -0.9057010543797634
outer loop
vertex -0.25 0.43301 -0.86603
vertex -0.21985 0.262 -0.93969
vertex -0.32139 0.38302 -0.86603
endloop
endfacet
facet normal -0.14895933453858234 0.21279904934083593 -0.965674728494776
outer loop
vertex -0.11162 0.13302 -0.98481
vertex -0.17101 0.2962 -0.93969
vertex -0.08682 0.15038 -0.98481
endloop
endfacet
facet normal -0.1490005563597454 0.212783250661115 -0.9656718502900328
outer loop
vertex -0.17101 0.2962 -0.93969
vertex -0.11162 0.13302 -0.98481
vertex -0.21985 0.262 -0.93969
endloop
endfacet
facet normal -0.18368160766947378 0.18368160766947175 -0.9656718562782679
outer loop
vertex -0.11162 0.13302 -0.98481
vertex -0.262 0.21985 -0.93969
vertex -0.21985 0.262 -0.93969
endloop
endfacet
facet normal -0.18368160766947042 0.18368160766947175 -0.9656718562782685
outer loop
vertex -0.262 0.21985 -0.93969
vertex -0.11162 0.13302 -0.98481
vertex -0.13302 0.11162 -0.98481
endloop
endfacet
facet normal -0.14878520211243107 0.5554867479310667 -0.8181060056651158
outer loop
vertex -0.17101 0.46985 -0.86603
vertex -0.11162 0.63302 -0.76604
vertex -0.08682 0.4924 -0.86603
endloop
endfacet
facet normal -0.14884432619121157 0.5554972904715453 -0.8180880923466959
outer loop
vertex -0.11162 0.63302 -0.76604
vertex -0.17101 0.46985 -0.86603
vertex -0.21985 0.60402 -0.76604
endloop
endfacet
facet normal -0.05014871267931834 0.572883057212953 -0.8181015275471302
outer loop
vertex -0.08682 0.4924 -0.86603
vertex 0 0.64279 -0.76604
vertex 0 0.5 -0.86603
endloop
endfacet
facet normal -0.05014379020249443 0.5728812551077208 -0.8181030912118171
outer loop
vertex 0 0.64279 -0.76604
vertex -0.08682 0.4924 -0.86603
vertex -0.11162 0.63302 -0.76604
endloop
endfacet
facet normal -0.007630125876543994 0.08713950574918614 -0.9961668975211412
outer loop
vertex 0 0 -1
vertex -0.03015 0.17101 -0.98481
vertex 0 0.17365 -0.98481
endloop
endfacet
facet normal -0.022626546218831485 0.08449555701641961 -0.9961669238891101
outer loop
vertex 0 0 -1
vertex -0.05939 0.16318 -0.98481
vertex -0.03015 0.17101 -0.98481
endloop
endfacet
facet normal 0.18368160766947367 0.18368160766947164 -0.965671856278268
outer loop
vertex 0.13302 0.11162 -0.98481
vertex 0.21985 0.262 -0.93969
vertex 0.262 0.21985 -0.93969
endloop
endfacet
facet normal 0.18368160766947067 0.183681607669472 -0.9656718562782685
outer loop
vertex 0.21985 0.262 -0.93969
vertex 0.13302 0.11162 -0.98481
vertex 0.11162 0.13302 -0.98481
endloop
endfacet
facet normal 0.21278325066111586 0.14900055635974896 -0.9656718502900321
outer loop
vertex 0.2962 0.17101 -0.93969
vertex 0.13302 0.11162 -0.98481
vertex 0.262 0.21985 -0.93969
endloop
endfacet
facet normal 0.21279904934083513 0.14895933453858512 -0.9656747284947755
outer loop
vertex 0.13302 0.11162 -0.98481
vertex 0.2962 0.17101 -0.93969
vertex 0.15038 0.08682 -0.98481
endloop
endfacet
facet normal 0.07166225830894672 0.050163580816262675 -0.996166720932672
outer loop
vertex 0.13302 0.11162 -0.98481
vertex 0.15038 0.08682 -0.98481
vertex 0 0 -1
endloop
endfacet
facet normal 0.06185322992281051 0.06185322992280824 -0.996166831357194
outer loop
vertex 0.11162 0.13302 -0.98481
vertex 0.13302 0.11162 -0.98481
vertex 0 0 -1
endloop
endfacet
facet normal 0.08449555701641993 0.022626546218829258 -0.9961669238891101
outer loop
vertex 0.16318 0.05939 -0.98481
vertex 0.17101 0.03015 -0.98481
vertex 0 0 -1
endloop
endfacet
facet normal 0.07926798528832785 0.03698979991580605 -0.9961668239860823
outer loop
vertex 0.15038 0.08682 -0.98481
vertex 0.16318 0.05939 -0.98481
vertex 0 0 -1
endloop
endfacet
facet normal 0.23542923737660326 0.10976240032420062 -0.9656734901939377
outer loop
vertex 0.32139 0.11698 -0.93969
vertex 0.15038 0.08682 -0.98481
vertex 0.2962 0.17101 -0.93969
endloop
endfacet
facet normal 0.23541166028530577 0.10985305328661808 -0.9656674670326858
outer loop
vertex 0.15038 0.08682 -0.98481
vertex 0.32139 0.11698 -0.93969
vertex 0.16318 0.05939 -0.98481
endloop
endfacet
facet normal 0.2509269979850375 0.06723048409288256 -0.965668526820075
outer loop
vertex 0.33682 0.05939 -0.93969
vertex 0.16318 0.05939 -0.98481
vertex 0.32139 0.11698 -0.93969
endloop
endfacet
facet normal 0.2509276099406403 0.06719436340065749 -0.9656708818726276
outer loop
vertex 0.16318 0.05939 -0.98481
vertex 0.33682 0.05939 -0.93969
vertex 0.17101 0.03015 -0.98481
endloop
endfacet
facet normal -0.4094672211661976 -0.10970792190648478 -0.9057045691953822
outer loop
vertex -0.32139 -0.11698 -0.93969
vertex -0.4924 -0.08682 -0.86603
vertex -0.33682 -0.05939 -0.93969
endloop
endfacet
facet normal -0.40946363420675186 -0.10967341669274609 -0.9057103697833755
outer loop
vertex -0.4924 -0.08682 -0.86603
vertex -0.32139 -0.11698 -0.93969
vertex -0.46985 -0.17101 -0.86603
endloop
endfacet
facet normal -0.5554867479310662 -0.148785202112432 -0.818106005665116
outer loop
vertex -0.46985 -0.17101 -0.86603
vertex -0.63302 -0.11162 -0.76604
vertex -0.4924 -0.08682 -0.86603
endloop
endfacet
facet normal -0.5554972904715464 -0.1488443261912115 -0.8180880923466951
outer loop
vertex -0.63302 -0.11162 -0.76604
vertex -0.46985 -0.17101 -0.86603
vertex -0.60402 -0.21985 -0.76604
endloop
endfacet
facet normal -0.2587812343030632 0.022658063956489696 -0.9656701739778064
outer loop
vertex -0.17101 0.03015 -0.98481
vertex -0.34202 0 -0.93969
vertex -0.33682 0.05939 -0.93969
endloop
endfacet
facet normal -0.25878145784511114 0.022659470935690627 -0.9656700810589884
outer loop
vertex -0.34202 0 -0.93969
vertex -0.17101 0.03015 -0.98481
vertex -0.17365 0 -0.98481
endloop
endfacet
facet normal -0.25878145784511114 -0.022659470935690627 -0.9656700810589884
outer loop
vertex -0.17101 -0.03015 -0.98481
vertex -0.34202 0 -0.93969
vertex -0.17365 0 -0.98481
endloop
endfacet
facet normal -0.2587812343030626 -0.022658063956489703 -0.9656701739778065
outer loop
vertex -0.34202 0 -0.93969
vertex -0.17101 -0.03015 -0.98481
vertex -0.33682 -0.05939 -0.93969
endloop
endfacet
facet normal -0.42229497409000755 -0.03697480830557381 -0.9057040457064803
outer loop
vertex -0.33682 -0.05939 -0.93969
vertex -0.5 0 -0.86603
vertex -0.34202 0 -0.93969
endloop
endfacet
facet normal -0.42229257635562656 -0.03696640843472409 -0.90570550655407
outer loop
vertex -0.5 0 -0.86603
vertex -0.33682 -0.05939 -0.93969
vertex -0.4924 -0.08682 -0.86603
endloop
endfacet
facet normal -0.7057563123802827 -0.061774226589816815 -0.7057563123802824
outer loop
vertex -0.63302 -0.11162 -0.76604
vertex -0.76604 0 -0.64279
vertex -0.64279 0 -0.76604
endloop
endfacet
facet normal -0.7057279386286633 -0.061702119427539365 -0.7057909925020913
outer loop
vertex -0.76604 0 -0.64279
vertex -0.63302 -0.11162 -0.76604
vertex -0.75441 -0.13302 -0.64279
endloop
endfacet
facet normal -0.5728830572129525 -0.05014871267931923 -0.8181015275471303
outer loop
vertex -0.4924 -0.08682 -0.86603
vertex -0.64279 0 -0.76604
vertex -0.5 0 -0.86603
endloop
endfacet
facet normal -0.5728812551077209 -0.05014379020249299 -0.8181030912118172
outer loop
vertex -0.64279 0 -0.76604
vertex -0.4924 -0.08682 -0.86603
vertex -0.63302 -0.11162 -0.76604
endloop
endfacet
facet normal -0.29975664280304054 0.2997566428030415 -0.9056996799110066
outer loop
vertex -0.21985 0.262 -0.93969
vertex -0.38302 0.32139 -0.86603
vertex -0.32139 0.38302 -0.86603
endloop
endfacet
facet normal -0.2997566428030397 0.29975664280304104 -0.9056996799110073
outer loop
vertex -0.38302 0.32139 -0.86603
vertex -0.21985 0.262 -0.93969
vertex -0.262 0.21985 -0.93969
endloop
endfacet
facet normal -0.4066335558447795 0.4066335558447781 -0.8181065349464349
outer loop
vertex -0.32139 0.38302 -0.86603
vertex -0.4924 0.41318 -0.76604
vertex -0.41318 0.4924 -0.76604
endloop
endfacet
facet normal -0.4066335558447772 0.406633555844779 -0.8181065349464357
outer loop
vertex -0.4924 0.41318 -0.76604
vertex -0.32139 0.38302 -0.86603
vertex -0.38302 0.32139 -0.86603
endloop
endfacet
facet normal -0.6420492211090311 0.2994319785109378 -0.705771413361516
outer loop
vertex -0.55667 0.32139 -0.76604
vertex -0.71985 0.262 -0.64279
vertex -0.66341 0.38302 -0.64279
endloop
endfacet
facet normal -0.6420483743021195 0.29939915819583635 -0.7057861072078637
outer loop
vertex -0.71985 0.262 -0.64279
vertex -0.55667 0.32139 -0.76604
vertex -0.60402 0.21985 -0.76604
endloop
endfacet
facet normal -0.2509269979850375 0.06723048409288256 -0.965668526820075
outer loop
vertex -0.16318 0.05939 -0.98481
vertex -0.33682 0.05939 -0.93969
vertex -0.32139 0.11698 -0.93969
endloop
endfacet
facet normal -0.2509276099406403 0.06719436340065749 -0.9656708818726276
outer loop
vertex -0.33682 0.05939 -0.93969
vertex -0.16318 0.05939 -0.98481
vertex -0.17101 0.03015 -0.98481
endloop
endfacet
facet normal -0.5554972904715463 0.14884432619121146 -0.8180880923466951
outer loop
vertex -0.46985 0.17101 -0.86603
vertex -0.63302 0.11162 -0.76604
vertex -0.60402 0.21985 -0.76604
endloop
endfacet
facet normal -0.5554867479310664 0.14878520211243196 -0.8181060056651159
outer loop
vertex -0.63302 0.11162 -0.76604
vertex -0.46985 0.17101 -0.86603
vertex -0.4924 0.08682 -0.86603
endloop
endfacet
facet normal -0.4094636342067526 0.10967341669274604 -0.905710369783375
outer loop
vertex -0.32139 0.11698 -0.93969
vertex -0.4924 0.08682 -0.86603
vertex -0.46985 0.17101 -0.86603
endloop
endfacet
facet normal -0.4094672211661976 0.10970792190648478 -0.9057045691953822
outer loop
vertex -0.4924 0.08682 -0.86603
vertex -0.32139 0.11698 -0.93969
vertex -0.33682 0.05939 -0.93969
endloop
endfacet
facet normal -0.422291282021829 0.03697448503979553 -0.9057057803638012
outer loop
vertex -0.34202 0 -0.93969
vertex -0.4924 0.08682 -0.86603
vertex -0.33682 0.05939 -0.93969
endloop
endfacet
facet normal -0.4222951019564978 0.03696662951934359 -0.9057043199441696
outer loop
vertex -0.4924 0.08682 -0.86603
vertex -0.34202 0 -0.93969
vertex -0.5 0 -0.86603
endloop
endfacet
facet normal -0.5728812551077206 0.05014379020249299 -0.8181030912118172
outer loop
vertex -0.4924 0.08682 -0.86603
vertex -0.64279 0 -0.76604
vertex -0.63302 0.11162 -0.76604
endloop
endfacet
facet normal -0.5728830572129525 0.05014871267931923 -0.8181015275471303
outer loop
vertex -0.64279 0 -0.76604
vertex -0.4924 0.08682 -0.86603
vertex -0.5 0 -0.86603
endloop
endfacet
facet normal -0.8170722205450455 0.0714370013903096 -0.5720924236921421
outer loop
vertex -0.76604 0 -0.64279
vertex -0.85287 0.15038 -0.5
vertex -0.75441 0.13302 -0.64279
endloop
endfacet
facet normal -0.8170356961580818 0.07150013141002999 -0.5721366990604843
outer loop
vertex -0.85287 0.15038 -0.5
vertex -0.76604 0 -0.64279
vertex -0.86603 0 -0.5
endloop
endfacet
facet normal -0.7922389385417156 0.21226700952424074 -0.5721015477395004
outer loop
vertex -0.71985 0.262 -0.64279
vertex -0.85287 0.15038 -0.5
vertex -0.8138 0.2962 -0.5
endloop
endfacet
facet normal -0.7922412169196662 0.21227986088342127 -0.5720936242233099
outer loop
vertex -0.85287 0.15038 -0.5
vertex -0.71985 0.262 -0.64279
vertex -0.75441 0.13302 -0.64279
endloop
endfacet
facet normal -0.6842819169415821 0.18335232632579607 -0.7057904664825619
outer loop
vertex -0.60402 0.21985 -0.76604
vertex -0.75441 0.13302 -0.64279
vertex -0.71985 0.262 -0.64279
endloop
endfacet
facet normal -0.6842818242915293 0.18335187013262982 -0.7057906748201791
outer loop
vertex -0.75441 0.13302 -0.64279
vertex -0.60402 0.21985 -0.76604
vertex -0.63302 0.11162 -0.76604
endloop
endfacet
facet normal -0.7057188838934262 0.06177095050742356 -0.7057940256120239
outer loop
vertex -0.64279 0 -0.76604
vertex -0.75441 0.13302 -0.64279
vertex -0.63302 0.11162 -0.76604
endloop
endfacet
facet normal -0.7057593462310272 0.06170486540871241 -0.7057593462310263
outer loop
vertex -0.75441 0.13302 -0.64279
vertex -0.64279 0 -0.76604
vertex -0.76604 0 -0.64279
endloop
endfacet
facet normal -0.03697480830557446 0.4222949740900073 -0.9057040457064803
outer loop
vertex -0.05939 0.33682 -0.93969
vertex 0 0.5 -0.86603
vertex 0 0.34202 -0.93969
endloop
endfacet
facet normal -0.036966408434727295 0.4222925763556265 -0.9057055065540698
outer loop
vertex 0 0.5 -0.86603
vertex -0.05939 0.33682 -0.93969
vertex -0.08682 0.4924 -0.86603
endloop
endfacet
facet normal -0.02265947093568864 0.2587814578451119 -0.9656700810589885
outer loop
vertex -0.03015 0.17101 -0.98481
vertex 0 0.34202 -0.93969
vertex 0 0.17365 -0.98481
endloop
endfacet
facet normal -0.022658063956486018 0.2587812343030626 -0.9656701739778066
outer loop
vertex 0 0.34202 -0.93969
vertex -0.03015 0.17101 -0.98481
vertex -0.05939 0.33682 -0.93969
endloop
endfacet
facet normal -0.5211945833061483 0.24304277643831212 -0.8180992697426682
outer loop
vertex -0.43301 0.25 -0.86603
vertex -0.60402 0.21985 -0.76604
vertex -0.55667 0.32139 -0.76604
endloop
endfacet
facet normal -0.521194651590528 0.24307900955304365 -0.8180884611508338
outer loop
vertex -0.60402 0.21985 -0.76604
vertex -0.43301 0.25 -0.86603
vertex -0.46985 0.17101 -0.86603
endloop
endfacet
facet normal -0.47107515818118934 0.3298398563711176 -0.8181038225638895
outer loop
vertex -0.38302 0.32139 -0.86603
vertex -0.55667 0.32139 -0.76604
vertex -0.4924 0.41318 -0.76604
endloop
endfacet
facet normal -0.47107128434786605 0.32986207458397326 -0.8180970949795686
outer loop
vertex -0.55667 0.32139 -0.76604
vertex -0.38302 0.32139 -0.86603
vertex -0.43301 0.25 -0.86603
endloop
endfacet
facet normal -0.17911839579022937 0.38419082669894 -0.9057118796669943
outer loop
vertex -0.17101 0.2962 -0.93969
vertex -0.17101 0.46985 -0.86603
vertex -0.11698 0.32139 -0.93969
endloop
endfacet
facet normal -0.1791800057970716 0.3841864456544749 -0.9057015515598626
outer loop
vertex -0.17101 0.46985 -0.86603
vertex -0.17101 0.2962 -0.93969
vertex -0.25 0.43301 -0.86603
endloop
endfacet
facet normal -0.10970792190648276 0.4094672211661977 -0.9057045691953824
outer loop
vertex -0.11698 0.32139 -0.93969
vertex -0.08682 0.4924 -0.86603
vertex -0.05939 0.33682 -0.93969
endloop
endfacet
facet normal -0.10967341669274419 0.409463634206752 -0.9057103697833756
outer loop
vertex -0.08682 0.4924 -0.86603
vertex -0.11698 0.32139 -0.93969
vertex -0.17101 0.46985 -0.86603
endloop
endfacet
facet normal -0.06719436340066276 0.2509276099406409 -0.9656708818726271
outer loop
vertex -0.05939 0.16318 -0.98481
vertex -0.05939 0.33682 -0.93969
vertex -0.03015 0.17101 -0.98481
endloop
endfacet
facet normal -0.0672304840928829 0.2509269979850364 -0.9656685268200751
outer loop
vertex -0.05939 0.33682 -0.93969
vertex -0.05939 0.16318 -0.98481
vertex -0.11698 0.32139 -0.93969
endloop
endfacet
facet normal -0.10985305328662646 0.2354116602853067 -0.9656674670326847
outer loop
vertex -0.08682 0.15038 -0.98481
vertex -0.11698 0.32139 -0.93969
vertex -0.05939 0.16318 -0.98481
endloop
endfacet
facet normal -0.10976240032420233 0.23542923737660082 -0.9656734901939379
outer loop
vertex -0.11698 0.32139 -0.93969
vertex -0.08682 0.15038 -0.98481
vertex -0.17101 0.2962 -0.93969
endloop
endfacet
facet normal -0.38418644565447474 0.17918000579707338 -0.9057015515598625
outer loop
vertex -0.2962 0.17101 -0.93969
vertex -0.46985 0.17101 -0.86603
vertex -0.43301 0.25 -0.86603
endloop
endfacet
facet normal -0.3841908266989394 0.17911839579023242 -0.905711879666994
outer loop
vertex -0.46985 0.17101 -0.86603
vertex -0.2962 0.17101 -0.93969
vertex -0.32139 0.11698 -0.93969
endloop
endfacet
facet normal -0.3472474641528059 0.24315591445578857 -0.9057010543797633
outer loop
vertex -0.262 0.21985 -0.93969
vertex -0.43301 0.25 -0.86603
vertex -0.38302 0.32139 -0.86603
endloop
endfacet
facet normal -0.34724690369059313 0.24315815123297077 -0.905700668745618
outer loop
vertex -0.43301 0.25 -0.86603
vertex -0.262 0.21985 -0.93969
vertex -0.2962 0.17101 -0.93969
endloop
endfacet
facet normal -0.21278325066111586 0.14900055635974896 -0.9656718502900321
outer loop
vertex -0.13302 0.11162 -0.98481
vertex -0.2962 0.17101 -0.93969
vertex -0.262 0.21985 -0.93969
endloop
endfacet
facet normal -0.21279904934083513 0.14895933453858512 -0.9656747284947755
outer loop
vertex -0.2962 0.17101 -0.93969
vertex -0.13302 0.11162 -0.98481
vertex -0.15038 0.08682 -0.98481
endloop
endfacet
facet normal -0.23542923737660196 0.10976240032420063 -0.9656734901939379
outer loop
vertex -0.15038 0.08682 -0.98481
vertex -0.32139 0.11698 -0.93969
vertex -0.2962 0.17101 -0.93969
endloop
endfacet
facet normal -0.23541166028530575 0.10985305328661807 -0.9656674670326858
outer loop
vertex -0.32139 0.11698 -0.93969
vertex -0.15038 0.08682 -0.98481
vertex -0.16318 0.05939 -0.98481
endloop
endfacet
endsolid JSxCAD
