<?xml version="1.0" encoding="UTF-8"?>
<!-- Generated by jsxcad -->
<!DOCTYPE svg PUBLIC "-//W3C//DTD SVG 1.1 Tiny//EN" "http://www.w3.org/Graphics/SVG/1.1/DTD/svg11-tiny.dtd">
<svg baseProfile="tiny" height="60mm" width="60.000000000000014mm" viewBox="0 0 60.000000000000014 60" version="1.1" stroke="black" stroke-width=".1" fill="none" xmlns="http://www.w3.org/2000/svg">
<path fill="black" d="M15.000000000000007 30.000000000000018 L0.22788370481688602 27.395277334996035 L15.227883704816891 27.395277334996035 z"/>
<path fill="black" d="M0.22788370481688602 27.395277334996035 L15.000000000000007 30.000000000000018 L3.552713678800501e-15 30.000000000000018 z"/>
<path fill="black" d="M15.227883704816893 27.395277334996035 L15.904610688211372 24.869697850114974 L15.904610688211376 24.869697850114974 z"/>
<path fill="black" d="M15.227883704816891 27.395277334996035 L15.904610688211372 24.869697850114974 L15.227883704816893 27.395277334996035 z"/>
<path fill="black" d="M15.227883704816891 27.395277334996035 L0.4488432785776233 24.869697850114974 L15.904610688211372 24.869697850114974 z"/>
<path fill="black" d="M0.4488432785776233 24.869697850114974 L15.227883704816891 27.395277334996035 L0.22788370481688602 27.395277334996035 z"/>
<path fill="black" d="M0.22788370481688602 32.604722665003976 L15.000000000000007 30.000000000000018 L15.227883704816888 32.604722665003976 z"/>
<path fill="black" d="M15.000000000000007 30.000000000000018 L0.22788370481688602 32.604722665003976 L3.552713678800501e-15 30.000000000000018 z"/>
<path fill="black" d="M15.904610688211372 24.869697850114974 L1.069519683677484 22.5 L17.009618943233423 22.5 z"/>
<path fill="black" d="M15.904610688211372 24.869697850114974 L0.45576740963376494 24.790554669992115 L1.069519683677484 22.5 z"/>
<path fill="black" d="M0.45576740963376494 24.790554669992115 L15.904610688211372 24.869697850114974 L0.4488432785776233 24.869697850114974 z"/>
<path fill="black" d="M17.009618943233427 22.5 L18.509333353215325 20.358185854701933 L18.509333353215332 20.358185854701933 z"/>
<path fill="black" d="M17.009618943233423 22.5 L1.643417054247653 20.358185854701933 L18.509333353215325 20.358185854701933 z"/>
<path fill="black" d="M1.643417054247653 20.358185854701933 L17.009618943233423 22.5 L1.069519683677484 22.5 z"/>
<path fill="black" d="M17.009618943233427 37.50000000000001 L15.90461068821138 35.13030214988503 L15.904610688211381 35.13030214988503 z"/>
<path fill="black" d="M1.069519683677477 37.50000000000001 L15.90461068821138 35.13030214988503 L17.009618943233427 37.50000000000001 z"/>
<path fill="black" d="M0.45576740963377205 35.20944533000796 L15.90461068821138 35.13030214988503 L1.069519683677477 37.50000000000001 z"/>
<path fill="black" d="M15.90461068821138 35.13030214988503 L0.45576740963377205 35.20944533000796 L0.44884327857762685 35.13030214988503 z"/>
<path fill="black" d="M18.509333353215325 20.358185854701933 L20.358185854701887 18.509333353215307 L20.358185854701922 18.509333353215307 z"/>
<path fill="black" d="M18.509333353215325 20.358185854701933 L2.3828088688437887 18.509333353215307 L20.358185854701887 18.509333353215307 z"/>
<path fill="black" d="M18.509333353215325 20.358185854701933 L1.8092213764227445 19.739395700229966 L2.3828088688437887 18.509333353215307 z"/>
<path fill="black" d="M1.8092213764227445 19.739395700229966 L18.509333353215325 20.358185854701933 L1.643417054247653 20.358185854701933 z"/>
<path fill="black" d="M2.382808868843785 41.490666646784675 L18.509333353215354 39.64181414529811 L20.35818585470192 41.490666646784675 z"/>
<path fill="black" d="M1.8092213764227303 40.260604299769994 L18.509333353215354 39.64181414529811 L2.382808868843785 41.490666646784675 z"/>
<path fill="black" d="M18.509333353215354 39.64181414529811 L1.8092213764227303 40.260604299769994 L1.64341705424766 39.64181414529811 z"/>
<path fill="black" d="M22.50000000000004 17.00961894323344 L24.869697850114942 15.904610688211369 L24.86969785011501 15.904610688211369 z"/>
<path fill="black" d="M22.499999999999957 17.00961894323344 L24.869697850114942 15.904610688211369 L22.50000000000004 17.00961894323344 z"/>
<path fill="black" d="M22.499999999999957 17.00961894323344 L3.597410994905001 15.904610688211369 L24.869697850114942 15.904610688211369 z"/>
<path fill="black" d="M3.597410994905001 15.904610688211369 L22.499999999999957 17.00961894323344 L3.082137183263729 17.00961894323344 z"/>
<path fill="black" d="M3.9129739697420085 44.772116295183125 L24.869697850115006 44.09538931178864 L27.39527733499604 44.772116295183125 z"/>
<path fill="black" d="M24.869697850115006 44.09538931178864 L3.9129739697420085 44.772116295183125 L3.5974109949050295 44.09538931178864 z"/>
<path fill="black" d="M24.869697850115006 44.09538931178864 L22.499999999999957 42.99038105676655 L22.49999999999996 42.99038105676655 z"/>
<path fill="black" d="M3.5974109949050295 44.09538931178864 L22.499999999999957 42.99038105676655 L24.869697850115006 44.09538931178864 z"/>
<path fill="black" d="M22.499999999999957 42.99038105676655 L3.5974109949050295 44.09538931178864 L3.0821371832637396 42.99038105676655 z"/>
<path fill="black" d="M27.39527733499603 15.227883704816879 L4.019237886466819 15 L29.999999999999975 15 z"/>
<path fill="black" d="M4.019237886466819 15 L27.39527733499603 15.227883704816879 L3.9129739697419765 15.227883704816879 z"/>
<path fill="black" d="M4.0192378864668505 45 L27.39527733499604 44.772116295183125 L29.999999999999993 45 z"/>
<path fill="black" d="M27.39527733499604 44.772116295183125 L4.0192378864668505 45 L3.9129739697420085 44.772116295183125 z"/>
<path fill="black" d="M24.869697850114942 15.904610688211369 L3.9129739697419765 15.227883704816879 L27.39527733499603 15.227883704816879 z"/>
<path fill="black" d="M3.9129739697419765 15.227883704816879 L24.869697850114942 15.904610688211369 L3.597410994905001 15.904610688211369 z"/>
<path fill="black" d="M3.0821371832637396 42.99038105676655 L20.35818585470192 41.490666646784675 L22.499999999999957 42.99038105676655 z"/>
<path fill="black" d="M20.35818585470192 41.490666646784675 L3.0821371832637396 42.99038105676655 L2.382808868843785 41.490666646784675 z"/>
<path fill="black" d="M20.358185854701887 18.509333353215307 L3.082137183263729 17.00961894323344 L22.499999999999957 17.00961894323344 z"/>
<path fill="black" d="M3.082137183263729 17.00961894323344 L20.358185854701887 18.509333353215307 L2.3828088688437887 18.509333353215307 z"/>
<path fill="black" d="M1.64341705424766 39.64181414529811 L17.009618943233427 37.50000000000001 L18.509333353215354 39.64181414529811 z"/>
<path fill="black" d="M17.009618943233427 37.50000000000001 L1.64341705424766 39.64181414529811 L1.069519683677477 37.50000000000001 z"/>
<path fill="black" d="M0.44884327857762685 35.13030214988503 L15.227883704816888 32.604722665003976 L15.90461068821138 35.13030214988503 z"/>
<path fill="black" d="M15.227883704816888 32.604722665003976 L0.44884327857762685 35.13030214988503 L0.22788370481688602 32.604722665003976 z"/>
<path fill="black" d="M55.98076211353323 45 L32.60472266500402 44.772116295183125 L56.087026030258066 44.772116295183125 z"/>
<path fill="black" d="M32.60472266500402 44.772116295183125 L55.98076211353323 45 L30.000000000000057 45 z"/>
<path fill="black" d="M56.087026030258066 44.772116295183125 L35.13030214988502 44.09538931178864 L56.402589005095024 44.09538931178864 z"/>
<path fill="black" d="M32.60472266500402 44.772116295183125 L35.13030214988502 44.09538931178864 L56.087026030258066 44.772116295183125 z"/>
<path fill="black" d="M35.13030214988502 44.09538931178864 L32.60472266500402 44.772116295183125 L32.60472266500399 44.772116295183125 z"/>
<path fill="black" d="M57.61719113115622 41.490666646784675 L58.35658294575232 39.64181414529811 L58.190778623577245 40.260604299769994 z"/>
<path fill="black" d="M57.61719113115622 41.490666646784675 L41.4906666467847 39.64181414529811 L58.35658294575232 39.64181414529811 z"/>
<path fill="black" d="M41.4906666467847 39.64181414529811 L57.61719113115622 41.490666646784675 L39.64181414529812 41.490666646784675 z"/>
<path fill="black" d="M58.93048031632253 37.50000000000001 L59.5511567214224 35.13030214988503 L59.544232590366256 35.20944533000796 z"/>
<path fill="black" d="M58.93048031632253 37.50000000000001 L44.09538931178865 35.13030214988503 L59.5511567214224 35.13030214988503 z"/>
<path fill="black" d="M44.09538931178865 35.13030214988503 L58.93048031632253 37.50000000000001 L42.990381056766594 37.50000000000001 z"/>
<path fill="black" d="M55.98076211353315 15 L49.28362829059623 7.018666706430707 L52.981333293569335 10.716371709403806 z"/>
<path fill="black" d="M55.98076211353315 15 L44.99999999999993 4.019237886466804 L49.28362829059623 7.018666706430707 z"/>
<path fill="black" d="M55.98076211353315 15 L40.26060429977004 1.8092213764227303 L44.99999999999993 4.019237886466804 z"/>
<path fill="black" d="M55.98076211353315 15 L35.209445330007846 0.4557674096337436 L40.26060429977004 1.8092213764227303 z"/>
<path fill="black" d="M55.98076211353315 15 L30.000000000000064 3.552713678800501e-15 L35.209445330007846 0.4557674096337436 z"/>
<path fill="black" d="M29.999999999999982 15 L30.000000000000064 3.552713678800501e-15 L55.98076211353315 15 z"/>
<path fill="black" d="M29.999999999999975 15 L30.000000000000064 3.552713678800501e-15 L29.999999999999982 15 z"/>
<path fill="black" d="M29.999999999999975 15 L24.790554669992133 0.4557674096337436 L30.000000000000064 3.552713678800501e-15 z"/>
<path fill="black" d="M29.999999999999975 15 L19.73939570022985 1.8092213764227303 L24.790554669992133 0.4557674096337436 z"/>
<path fill="black" d="M29.999999999999975 15 L14.999999999999996 4.019237886466804 L19.73939570022985 1.8092213764227303 z"/>
<path fill="black" d="M29.999999999999975 15 L10.716371709403816 7.018666706430707 L14.999999999999996 4.019237886466804 z"/>
<path fill="black" d="M29.999999999999975 15 L7.018666706430626 10.716371709403806 L10.716371709403816 7.018666706430707 z"/>
<path fill="black" d="M7.018666706430626 10.716371709403806 L29.999999999999975 15 L4.019237886466819 15 z"/>
<path fill="black" d="M35.130302149885026 15.904610688211369 L56.087026030258 15.227883704816879 L56.40258900509498 15.904610688211369 z"/>
<path fill="black" d="M56.087026030258 15.227883704816879 L35.130302149885026 15.904610688211369 L32.60472266500396 15.227883704816879 z"/>
<path fill="black" d="M39.64181414529807 18.509333353215307 L56.91786281673627 17.00961894323344 L57.61719113115622 18.509333353215307 z"/>
<path fill="black" d="M56.91786281673627 17.00961894323344 L39.64181414529807 18.509333353215307 L37.50000000000004 17.00961894323344 z"/>
<path fill="black" d="M42.99038105676659 22.5 L58.356582945752365 20.358185854701933 L58.93048031632253 22.5 z"/>
<path fill="black" d="M58.356582945752365 20.358185854701933 L42.99038105676659 22.5 L41.49066664678469 20.358185854701933 z"/>
<path fill="black" d="M59.77211629518314 32.604722665003976 L45.00000000000001 30.000000000000018 L60.000000000000014 30.000000000000018 z"/>
<path fill="black" d="M45.00000000000001 30.000000000000018 L59.77211629518314 32.604722665003976 L44.77211629518312 32.604722665003976 z"/>
<path fill="black" d="M59.5511567214224 35.13030214988503 L44.77211629518312 32.604722665003976 L59.77211629518314 32.604722665003976 z"/>
<path fill="black" d="M44.09538931178865 35.13030214988503 L44.77211629518312 32.604722665003976 L59.5511567214224 35.13030214988503 z"/>
<path fill="black" d="M44.77211629518312 32.604722665003976 L44.09538931178865 35.13030214988503 L44.09538931178864 35.13030214988503 z"/>
<path fill="black" d="M44.772116295183125 27.395277334996035 L59.55115672142239 24.869697850114974 L59.772116295183125 27.395277334996035 z"/>
<path fill="black" d="M59.55115672142239 24.869697850114974 L44.772116295183125 27.395277334996035 L44.09538931178864 24.869697850114974 z"/>
<path fill="black" d="M45.00000000000001 30.000000000000018 L59.772116295183125 27.395277334996035 L60.000000000000014 30.000000000000018 z"/>
<path fill="black" d="M59.772116295183125 27.395277334996035 L45.00000000000001 30.000000000000018 L44.772116295183125 27.395277334996035 z"/>
<path fill="black" d="M59.55115672142239 24.869697850114974 L58.93048031632253 22.5 L59.54423259036625 24.790554669992115 z"/>
<path fill="black" d="M44.09538931178864 24.869697850114974 L58.93048031632253 22.5 L59.55115672142239 24.869697850114974 z"/>
<path fill="black" d="M58.93048031632253 22.5 L44.09538931178864 24.869697850114974 L42.99038105676659 22.5 z"/>
<path fill="black" d="M58.356582945752365 20.358185854701933 L57.61719113115622 18.509333353215307 L58.19077862357727 19.739395700229966 z"/>
<path fill="black" d="M41.49066664678469 20.358185854701933 L57.61719113115622 18.509333353215307 L58.356582945752365 20.358185854701933 z"/>
<path fill="black" d="M57.61719113115622 18.509333353215307 L41.49066664678469 20.358185854701933 L39.64181414529807 18.509333353215307 z"/>
<path fill="black" d="M37.50000000000004 17.00961894323344 L56.40258900509498 15.904610688211369 L56.91786281673627 17.00961894323344 z"/>
<path fill="black" d="M56.40258900509498 15.904610688211369 L37.50000000000004 17.00961894323344 L35.130302149885026 15.904610688211369 z"/>
<path fill="black" d="M32.60472266500396 15.227883704816879 L55.98076211353315 15 L56.087026030258 15.227883704816879 z"/>
<path fill="black" d="M55.98076211353315 15 L32.60472266500396 15.227883704816879 L29.999999999999982 15 z"/>
<path fill="black" d="M58.35658294575232 39.64181414529811 L42.990381056766594 37.50000000000001 L58.93048031632253 37.50000000000001 z"/>
<path fill="black" d="M58.35658294575232 39.64181414529811 L42.99038105676658 37.50000000000001 L42.990381056766594 37.50000000000001 z"/>
<path fill="black" d="M41.4906666467847 39.64181414529811 L42.99038105676658 37.50000000000001 L58.35658294575232 39.64181414529811 z"/>
<path fill="black" d="M42.99038105676658 37.50000000000001 L41.4906666467847 39.64181414529811 L41.49066664678466 39.64181414529811 z"/>
<path fill="black" d="M56.91786281673629 42.99038105676655 L39.64181414529812 41.490666646784675 L57.61719113115622 41.490666646784675 z"/>
<path fill="black" d="M56.91786281673629 42.99038105676655 L39.64181414529809 41.490666646784675 L39.64181414529812 41.490666646784675 z"/>
<path fill="black" d="M39.64181414529809 41.490666646784675 L56.91786281673629 42.99038105676655 L37.50000000000006 42.99038105676655 z"/>
<path fill="black" d="M56.402589005095024 44.09538931178864 L37.50000000000006 42.99038105676655 L56.91786281673629 42.99038105676655 z"/>
<path fill="black" d="M56.402589005095024 44.09538931178864 L37.500000000000014 42.99038105676655 L37.50000000000006 42.99038105676655 z"/>
<path fill="black" d="M35.13030214988502 44.09538931178864 L37.500000000000014 42.99038105676655 L56.402589005095024 44.09538931178864 z"/>
<path fill="black" d="M37.500000000000014 42.99038105676655 L35.13030214988502 44.09538931178864 L35.13030214988497 44.09538931178864 z"/>
<path fill="black" d="M49.28362829059611 52.981333293569364 L55.98076211353323 45 L52.98133329356937 49.28362829059628 z"/>
<path fill="black" d="M44.999999999999986 55.98076211353317 L55.98076211353323 45 L49.28362829059611 52.981333293569364 z"/>
<path fill="black" d="M40.260604299770094 58.19077862357729 L55.98076211353323 45 L44.999999999999986 55.98076211353317 z"/>
<path fill="black" d="M35.20944533000791 59.544232590366235 L55.98076211353323 45 L40.260604299770094 58.19077862357729 z"/>
<path fill="black" d="M35.20944533000791 59.544232590366235 L30.000000000000057 45 L55.98076211353323 45 z"/>
<path fill="black" d="M35.20944533000791 59.544232590366235 L29.999999999999993 45 L30.000000000000057 45 z"/>
<path fill="black" d="M29.99999999999998 60.00000000000001 L29.999999999999993 45 L35.20944533000791 59.544232590366235 z"/>
<path fill="black" d="M24.790554669992137 59.544232590366235 L29.999999999999993 45 L29.99999999999998 60.00000000000001 z"/>
<path fill="black" d="M19.739395700230038 58.19077862357729 L29.999999999999993 45 L24.790554669992137 59.544232590366235 z"/>
<path fill="black" d="M15.00000000000004 55.98076211353317 L29.999999999999993 45 L19.739395700230038 58.19077862357729 z"/>
<path fill="black" d="M10.716371709403859 52.981333293569364 L29.999999999999993 45 L15.00000000000004 55.98076211353317 z"/>
<path fill="black" d="M7.018666706430746 49.28362829059628 L29.999999999999993 45 L10.716371709403859 52.981333293569364 z"/>
<path fill="black" d="M29.999999999999993 45 L7.018666706430746 49.28362829059628 L4.0192378864668505 45 z"/>
</svg>