<?xml version="1.0" encoding="UTF-8"?>
<!-- Generated by jsxcad -->
<!DOCTYPE svg PUBLIC "-//W3C//DTD SVG 1.1 Tiny//EN" "http://www.w3.org/Graphics/SVG/1.1/DTD/svg11-tiny.dtd">
<svg baseProfile="tiny" height="60mm" width="60.000000000000014mm" viewBox="0 0 60.000000000000014 60" version="1.1" stroke="black" stroke-width=".1" fill="none" xmlns="http://www.w3.org/2000/svg">
<path fill="black" d="M15.904610688211374 24.869697850114974 L1.0695196836774876 22.499999999999993 L17.009618943233423 22.499999999999993 z"/>
<path fill="black" d="M15.904610688211374 24.869697850114974 L0.4557674096337685 24.790554669992087 L1.0695196836774876 22.499999999999993 z"/>
<path fill="black" d="M0.4557674096337685 24.790554669992087 L15.904610688211374 24.869697850114974 L0.44884327857762685 24.869697850114974 z"/>
<path fill="black" d="M17.009618943233423 22.499999999999993 L18.50933335321532 20.35818585470193 L18.509333353215325 20.35818585470193 z"/>
<path fill="black" d="M17.009618943233423 22.499999999999993 L1.6434170542476565 20.35818585470193 L18.50933335321532 20.35818585470193 z"/>
<path fill="black" d="M1.6434170542476565 20.35818585470193 L17.009618943233423 22.499999999999993 L1.0695196836774876 22.499999999999993 z"/>
<path fill="black" d="M1.0695196836774734 37.50000000000001 L15.904610688211378 35.13030214988502 L17.009618943233427 37.50000000000001 z"/>
<path fill="black" d="M0.45576740963377205 35.20944533000795 L15.904610688211378 35.13030214988502 L1.0695196836774734 37.50000000000001 z"/>
<path fill="black" d="M15.904610688211378 35.13030214988502 L0.45576740963377205 35.20944533000795 L0.44884327857762685 35.13030214988502 z"/>
<path fill="black" d="M18.50933335321532 20.35818585470193 L20.358185854701897 18.509333353215318 L20.358185854701908 18.509333353215318 z"/>
<path fill="black" d="M18.50933335321532 20.35818585470193 L2.3828088688437887 18.509333353215318 L20.358185854701897 18.509333353215318 z"/>
<path fill="black" d="M18.50933335321532 20.35818585470193 L1.809221376422748 19.739395700229966 L2.3828088688437887 18.509333353215318 z"/>
<path fill="black" d="M1.809221376422748 19.739395700229966 L18.50933335321532 20.35818585470193 L1.6434170542476565 20.35818585470193 z"/>
<path fill="black" d="M3.0821371832637396 42.99038105676655 L20.35818585470192 41.490666646784675 L22.49999999999997 42.99038105676655 z"/>
<path fill="black" d="M20.35818585470192 41.490666646784675 L3.0821371832637396 42.99038105676655 L2.382808868843785 41.490666646784675 z"/>
<path fill="black" d="M20.35818585470192 41.490666646784675 L18.509333353215357 39.64181414529811 L18.50933335321536 39.64181414529811 z"/>
<path fill="black" d="M2.382808868843785 41.490666646784675 L18.509333353215357 39.64181414529811 L20.35818585470192 41.490666646784675 z"/>
<path fill="black" d="M1.8092213764227303 40.26060429977 L18.509333353215357 39.64181414529811 L2.382808868843785 41.490666646784675 z"/>
<path fill="black" d="M18.509333353215357 39.64181414529811 L1.8092213764227303 40.26060429977 L1.64341705424766 39.64181414529811 z"/>
<path fill="black" d="M22.500000000000032 17.00961894323343 L24.869697850114953 15.904610688211363 L24.86969785011501 15.904610688211363 z"/>
<path fill="black" d="M22.499999999999982 17.00961894323343 L24.869697850114953 15.904610688211363 L22.500000000000032 17.00961894323343 z"/>
<path fill="black" d="M22.499999999999982 17.00961894323343 L3.597410994905019 15.904610688211363 L24.869697850114953 15.904610688211363 z"/>
<path fill="black" d="M3.597410994905019 15.904610688211363 L22.499999999999982 17.00961894323343 L3.082137183263743 17.00961894323343 z"/>
<path fill="black" d="M27.39527733499605 44.772116295183125 L24.869697850115024 44.095389311788644 L24.86969785011503 44.095389311788644 z"/>
<path fill="black" d="M3.912973969742005 44.772116295183125 L24.869697850115024 44.095389311788644 L27.39527733499605 44.772116295183125 z"/>
<path fill="black" d="M24.869697850115024 44.095389311788644 L3.912973969742005 44.772116295183125 L3.5974109949050295 44.095389311788644 z"/>
<path fill="black" d="M3.5974109949050295 44.095389311788644 L22.49999999999997 42.99038105676655 L24.869697850115024 44.095389311788644 z"/>
<path fill="black" d="M22.49999999999997 42.99038105676655 L3.5974109949050295 44.095389311788644 L3.0821371832637396 42.99038105676655 z"/>
<path fill="black" d="M24.869697850114953 15.904610688211363 L3.9129739697419943 15.227883704816877 L27.39527733499603 15.227883704816877 z"/>
<path fill="black" d="M3.9129739697419943 15.227883704816877 L24.869697850114953 15.904610688211363 L3.597410994905019 15.904610688211363 z"/>
<path fill="black" d="M20.358185854701897 18.509333353215318 L3.082137183263743 17.00961894323343 L22.499999999999982 17.00961894323343 z"/>
<path fill="black" d="M3.082137183263743 17.00961894323343 L20.358185854701897 18.509333353215318 L2.3828088688437887 18.509333353215318 z"/>
<path fill="black" d="M1.64341705424766 39.64181414529811 L17.009618943233427 37.50000000000001 L18.509333353215357 39.64181414529811 z"/>
<path fill="black" d="M17.009618943233427 37.50000000000001 L1.64341705424766 39.64181414529811 L1.0695196836774734 37.50000000000001 z"/>
<path fill="black" d="M0.44884327857762685 35.13030214988502 L15.227883704816882 32.60472266500396 L15.904610688211378 35.13030214988502 z"/>
<path fill="black" d="M15.227883704816882 32.60472266500396 L0.44884327857762685 35.13030214988502 L0.22788370481688602 32.60472266500396 z"/>
<path fill="black" d="M15.227883704816893 27.39527733499602 L0.44884327857762685 24.869697850114974 L15.904610688211374 24.869697850114974 z"/>
<path fill="black" d="M0.44884327857762685 24.869697850114974 L15.227883704816893 27.39527733499602 L0.22788370481688602 27.39527733499602 z"/>
<path fill="black" d="M15.000000000000007 30.000000000000018 L0.22788370481688602 27.39527733499602 L15.227883704816893 27.39527733499602 z"/>
<path fill="black" d="M0.22788370481688602 27.39527733499602 L15.000000000000007 30.000000000000018 L7.105427357601002e-15 30.000000000000018 z"/>
<path fill="black" d="M15.227883704816882 32.60472266500396 L15.000000000000007 30.000000000000018 L15.227883704816884 32.60472266500396 z"/>
<path fill="black" d="M0.22788370481688602 32.60472266500396 L15.000000000000007 30.000000000000018 L15.227883704816882 32.60472266500396 z"/>
<path fill="black" d="M15.000000000000007 30.000000000000018 L0.22788370481688602 32.60472266500396 L7.105427357601002e-15 30.000000000000018 z"/>
<path fill="black" d="M30.000000000000014 45 L27.39527733499605 44.772116295183125 L27.395277334996052 44.772116295183125 z"/>
<path fill="black" d="M4.019237886466847 45 L27.39527733499605 44.772116295183125 L30.000000000000014 45 z"/>
<path fill="black" d="M27.39527733499605 44.772116295183125 L4.019237886466847 45 L3.912973969742005 44.772116295183125 z"/>
<path fill="black" d="M55.98076211353318 14.999999999999998 L49.28362829059622 7.018666706430697 L52.981333293569335 10.71637170940381 z"/>
<path fill="black" d="M55.98076211353318 14.999999999999998 L44.99999999999994 4.0192378864668115 L49.28362829059622 7.018666706430697 z"/>
<path fill="black" d="M55.98076211353318 14.999999999999998 L40.26060429977005 1.8092213764227374 L44.99999999999994 4.0192378864668115 z"/>
<path fill="black" d="M55.98076211353318 14.999999999999998 L35.209445330007895 0.4557674096337543 L40.26060429977005 1.8092213764227374 z"/>
<path fill="black" d="M55.98076211353318 14.999999999999998 L30.000000000000103 3.552713678800501e-15 L35.209445330007895 0.4557674096337543 z"/>
<path fill="black" d="M29.99999999999999 14.999999999999998 L30.000000000000103 3.552713678800501e-15 L55.98076211353318 14.999999999999998 z"/>
<path fill="black" d="M29.999999999999986 14.999999999999998 L30.000000000000103 3.552713678800501e-15 L29.99999999999999 14.999999999999998 z"/>
<path fill="black" d="M29.999999999999986 14.999999999999998 L24.790554669992126 0.4557674096337543 L30.000000000000103 3.552713678800501e-15 z"/>
<path fill="black" d="M29.999999999999986 14.999999999999998 L19.739395700229885 1.8092213764227374 L24.790554669992126 0.4557674096337543 z"/>
<path fill="black" d="M29.999999999999986 14.999999999999998 L15.000000000000018 4.0192378864668115 L19.739395700229885 1.8092213764227374 z"/>
<path fill="black" d="M29.999999999999986 14.999999999999998 L10.716371709403841 7.018666706430697 L15.000000000000018 4.0192378864668115 z"/>
<path fill="black" d="M29.999999999999986 14.999999999999998 L7.018666706430654 10.71637170940381 L10.716371709403841 7.018666706430697 z"/>
<path fill="black" d="M7.018666706430654 10.71637170940381 L29.999999999999986 14.999999999999998 L4.019237886466836 14.999999999999998 z"/>
<path fill="black" d="M27.395277334996067 15.227883704816877 L29.999999999999986 14.999999999999998 L29.99999999999999 14.999999999999998 z"/>
<path fill="black" d="M27.39527733499603 15.227883704816877 L4.019237886466836 14.999999999999998 L29.999999999999986 14.999999999999998 z"/>
<path fill="black" d="M4.019237886466836 14.999999999999998 L27.39527733499603 15.227883704816877 L3.9129739697419943 15.227883704816877 z"/>
<path fill="black" d="M35.13030214988502 15.904610688211363 L56.08702603025802 15.227883704816877 L56.402589005095 15.904610688211363 z"/>
<path fill="black" d="M56.08702603025802 15.227883704816877 L35.13030214988501 15.904610688211363 L32.60472266500396 15.227883704816877 z"/>
<path fill="black" d="M39.641814145298085 18.509333353215318 L56.91786281673628 17.00961894323343 L57.61719113115623 18.509333353215318 z"/>
<path fill="black" d="M56.91786281673628 17.00961894323343 L39.641814145298085 18.509333353215318 L37.50000000000002 17.00961894323343 z"/>
<path fill="black" d="M42.99038105676659 22.499999999999993 L58.356582945752365 20.35818585470193 L58.930480316322544 22.499999999999993 z"/>
<path fill="black" d="M58.356582945752365 20.35818585470193 L42.99038105676659 22.499999999999993 L41.49066664678469 20.35818585470193 z"/>
<path fill="black" d="M44.772116295183125 27.39527733499602 L59.5511567214224 24.869697850114974 L59.77211629518314 27.39527733499602 z"/>
<path fill="black" d="M59.5511567214224 24.869697850114974 L44.772116295183125 27.39527733499602 L44.09538931178864 24.869697850114974 z"/>
<path fill="black" d="M45.00000000000001 30.000000000000018 L59.77211629518314 27.39527733499602 L60.00000000000002 30.000000000000018 z"/>
<path fill="black" d="M59.77211629518314 27.39527733499602 L45.00000000000001 30.000000000000018 L44.772116295183125 27.39527733499602 z"/>
<path fill="black" d="M59.5511567214224 24.869697850114974 L58.930480316322544 22.499999999999993 L59.54423259036626 24.790554669992087 z"/>
<path fill="black" d="M44.09538931178864 24.869697850114974 L58.930480316322544 22.499999999999993 L59.5511567214224 24.869697850114974 z"/>
<path fill="black" d="M58.930480316322544 22.499999999999993 L44.09538931178864 24.869697850114974 L42.99038105676659 22.499999999999993 z"/>
<path fill="black" d="M58.356582945752365 20.35818585470193 L57.61719113115623 18.509333353215318 L58.19077862357727 19.739395700229966 z"/>
<path fill="black" d="M41.49066664678469 20.35818585470193 L57.61719113115623 18.509333353215318 L58.356582945752365 20.35818585470193 z"/>
<path fill="black" d="M57.61719113115623 18.509333353215318 L41.49066664678469 20.35818585470193 L39.641814145298085 18.509333353215318 z"/>
<path fill="black" d="M37.50000000000002 17.00961894323343 L56.402589005095 15.904610688211363 L56.91786281673628 17.00961894323343 z"/>
<path fill="black" d="M56.402589005095 15.904610688211363 L37.50000000000002 17.00961894323343 L35.13030214988502 15.904610688211363 z"/>
<path fill="black" d="M32.60472266500396 15.227883704816877 L55.98076211353318 14.999999999999998 L56.08702603025802 15.227883704816877 z"/>
<path fill="black" d="M55.98076211353318 14.999999999999998 L32.604722665003955 15.227883704816877 L29.99999999999999 14.999999999999998 z"/>
<path fill="black" d="M59.551156721422394 35.13030214988502 L44.772116295183125 32.60472266500396 L59.77211629518314 32.60472266500396 z"/>
<path fill="black" d="M59.551156721422394 35.13030214988502 L44.77211629518312 32.60472266500396 L44.772116295183125 32.60472266500396 z"/>
<path fill="black" d="M44.09538931178865 35.13030214988502 L44.77211629518312 32.60472266500396 L59.551156721422394 35.13030214988502 z"/>
<path fill="black" d="M44.77211629518312 32.60472266500396 L44.09538931178865 35.13030214988502 L44.09538931178864 35.13030214988502 z"/>
<path fill="black" d="M59.77211629518314 32.60472266500396 L45.00000000000001 30.000000000000018 L60.00000000000002 30.000000000000018 z"/>
<path fill="black" d="M45.00000000000001 30.000000000000018 L59.77211629518314 32.60472266500396 L44.772116295183125 32.60472266500396 z"/>
<path fill="black" d="M58.35658294575232 39.64181414529811 L42.990381056766594 37.50000000000001 L58.930480316322516 37.50000000000001 z"/>
<path fill="black" d="M58.35658294575232 39.64181414529811 L42.99038105676659 37.50000000000001 L42.990381056766594 37.50000000000001 z"/>
<path fill="black" d="M41.490666646784696 39.64181414529811 L42.99038105676659 37.50000000000001 L58.35658294575232 39.64181414529811 z"/>
<path fill="black" d="M42.99038105676659 37.50000000000001 L41.490666646784696 39.64181414529811 L41.49066664678465 39.64181414529811 z"/>
<path fill="black" d="M58.930480316322516 37.50000000000001 L59.551156721422394 35.13030214988502 L59.54423259036625 35.20944533000795 z"/>
<path fill="black" d="M58.930480316322516 37.50000000000001 L44.09538931178865 35.13030214988502 L59.551156721422394 35.13030214988502 z"/>
<path fill="black" d="M44.09538931178865 35.13030214988502 L58.930480316322516 37.50000000000001 L42.990381056766594 37.50000000000001 z"/>
<path fill="black" d="M56.917862816736275 42.99038105676655 L39.64181414529813 41.490666646784675 L57.617191131156204 41.490666646784675 z"/>
<path fill="black" d="M56.917862816736275 42.99038105676655 L39.6418141452981 41.490666646784675 L39.64181414529813 41.490666646784675 z"/>
<path fill="black" d="M39.6418141452981 41.490666646784675 L56.917862816736275 42.99038105676655 L37.50000000000006 42.99038105676655 z"/>
<path fill="black" d="M57.617191131156204 41.490666646784675 L58.35658294575232 39.64181414529811 L58.190778623577245 40.26060429977 z"/>
<path fill="black" d="M57.617191131156204 41.490666646784675 L41.490666646784696 39.64181414529811 L58.35658294575232 39.64181414529811 z"/>
<path fill="black" d="M41.490666646784696 39.64181414529811 L57.617191131156204 41.490666646784675 L39.64181414529813 41.490666646784675 z"/>
<path fill="black" d="M56.40258900509499 44.095389311788644 L37.50000000000006 42.99038105676655 L56.917862816736275 42.99038105676655 z"/>
<path fill="black" d="M56.40258900509499 44.095389311788644 L37.5 42.99038105676655 L37.50000000000006 42.99038105676655 z"/>
<path fill="black" d="M35.130302149885004 44.095389311788644 L37.5 42.99038105676655 L56.40258900509499 44.095389311788644 z"/>
<path fill="black" d="M37.5 42.99038105676655 L35.130302149885004 44.095389311788644 L35.130302149884955 44.095389311788644 z"/>
<path fill="black" d="M49.283628290596205 52.98133329356935 L55.980762113533174 45 L52.98133329356932 49.283628290596205 z"/>
<path fill="black" d="M44.99999999999998 55.98076211353313 L55.980762113533174 45 L49.283628290596205 52.98133329356935 z"/>
<path fill="black" d="M40.260604299770065 58.19077862357723 L55.980762113533174 45 L44.99999999999998 55.98076211353313 z"/>
<path fill="black" d="M35.20944533000797 59.54423259036625 L55.980762113533174 45 L40.260604299770065 58.19077862357723 z"/>
<path fill="black" d="M35.20944533000797 59.54423259036625 L30.000000000000057 45 L55.980762113533174 45 z"/>
<path fill="black" d="M35.20944533000797 59.54423259036625 L30.000000000000014 45 L30.000000000000057 45 z"/>
<path fill="black" d="M29.99999999999989 60.00000000000001 L30.000000000000014 45 L35.20944533000797 59.54423259036625 z"/>
<path fill="black" d="M24.79055466999219 59.54423259036625 L30.000000000000014 45 L29.99999999999989 60.00000000000001 z"/>
<path fill="black" d="M19.739395700229927 58.19077862357723 L30.000000000000014 45 L24.79055466999219 59.54423259036625 z"/>
<path fill="black" d="M14.999999999999984 55.98076211353313 L30.000000000000014 45 L19.739395700229927 58.19077862357723 z"/>
<path fill="black" d="M10.716371709403838 52.98133329356935 L30.000000000000014 45 L14.999999999999984 55.98076211353313 z"/>
<path fill="black" d="M7.018666706430693 49.283628290596205 L30.000000000000014 45 L10.716371709403838 52.98133329356935 z"/>
<path fill="black" d="M30.000000000000014 45 L7.018666706430693 49.283628290596205 L4.019237886466847 45 z"/>
<path fill="black" d="M55.980762113533174 45 L32.604722665004005 44.772116295183125 L56.087026030258016 44.772116295183125 z"/>
<path fill="black" d="M32.604722665004005 44.772116295183125 L55.980762113533174 45 L30.000000000000057 45 z"/>
<path fill="black" d="M56.087026030258016 44.772116295183125 L35.130302149885004 44.095389311788644 L56.40258900509499 44.095389311788644 z"/>
<path fill="black" d="M32.604722665004005 44.772116295183125 L35.130302149885004 44.095389311788644 L56.087026030258016 44.772116295183125 z"/>
<path fill="black" d="M35.130302149885004 44.095389311788644 L32.604722665004005 44.772116295183125 L32.60472266500398 44.772116295183125 z"/>
</svg>