<?xml version="1.0" encoding="UTF-8"?>
<!-- Generated by jsxcad -->
<!DOCTYPE svg PUBLIC "-//W3C//DTD SVG 1.1 Tiny//EN" "http://www.w3.org/Graphics/SVG/1.1/DTD/svg11-tiny.dtd">
<svg baseProfile="tiny" height="60mm" width="60.000000000000014mm" viewBox="0 0 60.000000000000014 60" version="1.1" stroke="black" stroke-width=".1" fill="none" xmlns="http://www.w3.org/2000/svg">
<path fill="black" d="M15.000000000000007 30.000000000000018 L0.22788370481688958 27.39527733499601 L15.227883704816893 27.39527733499601 z"/>
<path fill="black" d="M0.22788370481688958 27.39527733499601 L15.000000000000007 30.000000000000018 L3.552713678800501e-15 30.000000000000018 z"/>
<path fill="black" d="M15.227883704816893 27.39527733499601 L15.904610688211365 24.869697850114974 L15.90461068821137 24.869697850114974 z"/>
<path fill="black" d="M15.227883704816893 27.39527733499601 L0.44884327857762685 24.869697850114974 L15.904610688211365 24.869697850114974 z"/>
<path fill="black" d="M0.44884327857762685 24.869697850114974 L15.227883704816893 27.39527733499601 L0.22788370481688958 27.39527733499601 z"/>
<path fill="black" d="M0.22788370481688958 32.60472266500396 L15.000000000000007 30.000000000000018 L15.227883704816886 32.60472266500396 z"/>
<path fill="black" d="M15.000000000000007 30.000000000000018 L0.22788370481688958 32.60472266500396 L3.552713678800501e-15 30.000000000000018 z"/>
<path fill="black" d="M17.009618943233427 22.49999999999999 L1.64341705424766 20.35818585470193 L18.509333353215325 20.35818585470193 z"/>
<path fill="black" d="M1.64341705424766 20.35818585470193 L17.009618943233427 22.49999999999999 L1.0695196836774876 22.49999999999999 z"/>
<path fill="black" d="M15.904610688211365 24.869697850114974 L1.0695196836774876 22.49999999999999 L17.009618943233427 22.49999999999999 z"/>
<path fill="black" d="M15.904610688211365 24.869697850114974 L0.45576740963377205 24.79055466999207 L1.0695196836774876 22.49999999999999 z"/>
<path fill="black" d="M0.45576740963377205 24.79055466999207 L15.904610688211365 24.869697850114974 L0.44884327857762685 24.869697850114974 z"/>
<path fill="black" d="M1.069519683677477 37.5 L15.904610688211378 35.13030214988502 L17.009618943233427 37.5 z"/>
<path fill="black" d="M0.4557674096337685 35.20944533000795 L15.904610688211378 35.13030214988502 L1.069519683677477 37.5 z"/>
<path fill="black" d="M15.904610688211378 35.13030214988502 L0.4557674096337685 35.20944533000795 L0.4488432785776233 35.13030214988502 z"/>
<path fill="black" d="M18.509333353215325 20.35818585470193 L20.3581858547019 18.50933335321532 L20.358185854701908 18.50933335321532 z"/>
<path fill="black" d="M18.509333353215325 20.35818585470193 L2.382808868843785 18.50933335321532 L20.3581858547019 18.50933335321532 z"/>
<path fill="black" d="M18.509333353215325 20.35818585470193 L1.8092213764227516 19.739395700229966 L2.382808868843785 18.50933335321532 z"/>
<path fill="black" d="M1.8092213764227516 19.739395700229966 L18.509333353215325 20.35818585470193 L1.64341705424766 20.35818585470193 z"/>
<path fill="black" d="M3.0821371832637396 42.99038105676655 L20.35818585470193 41.49066664678468 L22.499999999999968 42.99038105676655 z"/>
<path fill="black" d="M20.35818585470193 41.49066664678468 L3.0821371832637396 42.99038105676655 L2.3828088688437887 41.49066664678468 z"/>
<path fill="black" d="M2.3828088688437887 41.49066664678468 L18.509333353215354 39.64181414529811 L20.35818585470193 41.49066664678468 z"/>
<path fill="black" d="M1.8092213764227267 40.260604299769994 L18.509333353215354 39.64181414529811 L2.3828088688437887 41.49066664678468 z"/>
<path fill="black" d="M18.509333353215354 39.64181414529811 L1.8092213764227267 40.260604299769994 L1.64341705424766 39.64181414529811 z"/>
<path fill="black" d="M22.50000000000002 17.009618943233438 L24.869697850114957 15.904610688211367 L24.869697850115003 15.904610688211367 z"/>
<path fill="black" d="M22.499999999999975 17.009618943233438 L24.869697850114957 15.904610688211367 L22.50000000000002 17.009618943233438 z"/>
<path fill="black" d="M22.499999999999975 17.009618943233438 L3.5974109949050153 15.904610688211367 L24.869697850114957 15.904610688211367 z"/>
<path fill="black" d="M3.5974109949050153 15.904610688211367 L22.499999999999975 17.009618943233438 L3.082137183263736 17.009618943233438 z"/>
<path fill="black" d="M3.912973969742012 44.772116295183125 L24.869697850115013 44.09538931178864 L27.395277334996038 44.772116295183125 z"/>
<path fill="black" d="M24.869697850115013 44.09538931178864 L3.912973969742012 44.772116295183125 L3.597410994905033 44.09538931178864 z"/>
<path fill="black" d="M24.869697850115013 44.09538931178864 L22.499999999999968 42.99038105676655 L22.49999999999997 42.99038105676655 z"/>
<path fill="black" d="M3.597410994905033 44.09538931178864 L22.499999999999968 42.99038105676655 L24.869697850115013 44.09538931178864 z"/>
<path fill="black" d="M22.499999999999968 42.99038105676655 L3.597410994905033 44.09538931178864 L3.0821371832637396 42.99038105676655 z"/>
<path fill="black" d="M27.395277334996035 15.227883704816879 L29.999999999999975 15 L27.395277334996063 15.227883704816879 z"/>
<path fill="black" d="M27.395277334996035 15.227883704816879 L4.019237886466836 15 L29.999999999999975 15 z"/>
<path fill="black" d="M4.019237886466836 15 L27.395277334996035 15.227883704816879 L3.9129739697419943 15.227883704816879 z"/>
<path fill="black" d="M4.019237886466854 45 L27.395277334996038 44.772116295183125 L30 45 z"/>
<path fill="black" d="M27.395277334996038 44.772116295183125 L4.019237886466854 45 L3.912973969742012 44.772116295183125 z"/>
<path fill="black" d="M24.869697850114957 15.904610688211367 L3.9129739697419943 15.227883704816879 L27.395277334996035 15.227883704816879 z"/>
<path fill="black" d="M3.9129739697419943 15.227883704816879 L24.869697850114957 15.904610688211367 L3.5974109949050153 15.904610688211367 z"/>
<path fill="black" d="M20.3581858547019 18.50933335321532 L3.082137183263736 17.009618943233438 L22.499999999999975 17.009618943233438 z"/>
<path fill="black" d="M3.082137183263736 17.009618943233438 L20.3581858547019 18.50933335321532 L2.382808868843785 18.50933335321532 z"/>
<path fill="black" d="M1.64341705424766 39.64181414529811 L17.009618943233427 37.5 L18.509333353215354 39.64181414529811 z"/>
<path fill="black" d="M17.009618943233427 37.5 L1.64341705424766 39.64181414529811 L1.069519683677477 37.5 z"/>
<path fill="black" d="M0.4488432785776233 35.13030214988502 L15.227883704816886 32.60472266500396 L15.904610688211378 35.13030214988502 z"/>
<path fill="black" d="M15.227883704816886 32.60472266500396 L0.4488432785776233 35.13030214988502 L0.22788370481688958 32.60472266500396 z"/>
<path fill="black" d="M58.930480316322516 37.5 L59.55115672142239 35.13030214988502 L59.54423259036625 35.20944533000795 z"/>
<path fill="black" d="M58.930480316322516 37.5 L44.09538931178865 35.13030214988502 L59.55115672142239 35.13030214988502 z"/>
<path fill="black" d="M44.09538931178865 35.13030214988502 L58.930480316322516 37.5 L42.99038105676659 37.5 z"/>
<path fill="black" d="M59.55115672142239 35.13030214988502 L44.772116295183125 32.60472266500396 L59.77211629518314 32.60472266500396 z"/>
<path fill="black" d="M59.55115672142239 35.13030214988502 L44.77211629518312 32.60472266500396 L44.772116295183125 32.60472266500396 z"/>
<path fill="black" d="M44.09538931178865 35.13030214988502 L44.77211629518312 32.60472266500396 L59.55115672142239 35.13030214988502 z"/>
<path fill="black" d="M44.77211629518312 32.60472266500396 L44.09538931178865 35.13030214988502 L44.09538931178864 35.13030214988502 z"/>
<path fill="black" d="M59.77211629518314 32.60472266500396 L45.00000000000001 30.000000000000018 L60.00000000000002 30.000000000000018 z"/>
<path fill="black" d="M45.00000000000001 30.000000000000018 L59.77211629518314 32.60472266500396 L44.772116295183125 32.60472266500396 z"/>
<path fill="black" d="M35.130302149885026 15.904610688211367 L56.08702603025802 15.227883704816879 L56.402589005095 15.904610688211367 z"/>
<path fill="black" d="M35.130302149885026 15.904610688211367 L32.60472266500397 15.227883704816879 L56.08702603025802 15.227883704816879 z"/>
<path fill="black" d="M39.641814145298085 18.50933335321532 L56.91786281673629 17.009618943233438 L57.61719113115625 18.50933335321532 z"/>
<path fill="black" d="M56.91786281673629 17.009618943233438 L39.641814145298085 18.50933335321532 L37.50000000000003 17.009618943233438 z"/>
<path fill="black" d="M42.99038105676658 22.49999999999999 L58.35658294575237 20.35818585470193 L58.930480316322544 22.49999999999999 z"/>
<path fill="black" d="M58.35658294575237 20.35818585470193 L42.99038105676658 22.49999999999999 L41.49066664678469 20.35818585470193 z"/>
<path fill="black" d="M44.772116295183125 27.39527733499601 L59.551156721422416 24.869697850114974 L59.77211629518314 27.39527733499601 z"/>
<path fill="black" d="M59.551156721422416 24.869697850114974 L44.772116295183125 27.39527733499601 L44.09538931178864 24.869697850114974 z"/>
<path fill="black" d="M45.00000000000001 30.000000000000018 L59.77211629518314 27.39527733499601 L60.00000000000002 30.000000000000018 z"/>
<path fill="black" d="M59.77211629518314 27.39527733499601 L45.00000000000001 30.000000000000018 L44.772116295183125 27.39527733499601 z"/>
<path fill="black" d="M59.551156721422416 24.869697850114974 L58.930480316322544 22.49999999999999 L59.54423259036626 24.79055466999207 z"/>
<path fill="black" d="M44.09538931178864 24.869697850114974 L58.930480316322544 22.49999999999999 L59.551156721422416 24.869697850114974 z"/>
<path fill="black" d="M58.930480316322544 22.49999999999999 L44.09538931178864 24.869697850114974 L42.99038105676658 22.49999999999999 z"/>
<path fill="black" d="M58.35658294575237 20.35818585470193 L57.61719113115625 18.50933335321532 L58.19077862357728 19.739395700229966 z"/>
<path fill="black" d="M41.49066664678469 20.35818585470193 L57.61719113115625 18.50933335321532 L58.35658294575237 20.35818585470193 z"/>
<path fill="black" d="M57.61719113115625 18.50933335321532 L41.49066664678469 20.35818585470193 L39.641814145298085 18.50933335321532 z"/>
<path fill="black" d="M37.50000000000003 17.009618943233438 L56.402589005095 15.904610688211367 L56.91786281673629 17.009618943233438 z"/>
<path fill="black" d="M56.402589005095 15.904610688211367 L37.50000000000003 17.009618943233438 L35.130302149885026 15.904610688211367 z"/>
<path fill="black" d="M55.98076211353318 15 L49.283628290596226 7.0186667064307 L52.981333293569314 10.716371709403784 z"/>
<path fill="black" d="M55.98076211353318 15 L44.999999999999936 4.019237886466808 L49.283628290596226 7.0186667064307 z"/>
<path fill="black" d="M55.98076211353318 15 L40.26060429977006 1.809221376422741 L44.999999999999936 4.019237886466808 z"/>
<path fill="black" d="M55.98076211353318 15 L35.20944533000788 0.45576740963375073 L40.26060429977006 1.809221376422741 z"/>
<path fill="black" d="M55.98076211353318 15 L30.00000000000007 3.552713678800501e-15 L35.20944533000788 0.45576740963375073 z"/>
<path fill="black" d="M29.999999999999986 15 L30.00000000000007 3.552713678800501e-15 L55.98076211353318 15 z"/>
<path fill="black" d="M29.999999999999975 15 L30.00000000000007 3.552713678800501e-15 L29.999999999999986 15 z"/>
<path fill="black" d="M29.999999999999975 15 L24.790554669992122 0.45576740963375073 L30.00000000000007 3.552713678800501e-15 z"/>
<path fill="black" d="M29.999999999999975 15 L19.739395700229906 1.809221376422741 L24.790554669992122 0.45576740963375073 z"/>
<path fill="black" d="M29.999999999999975 15 L15.000000000000028 4.019237886466808 L19.739395700229906 1.809221376422741 z"/>
<path fill="black" d="M29.999999999999975 15 L10.716371709403841 7.0186667064307 L15.000000000000028 4.019237886466808 z"/>
<path fill="black" d="M29.999999999999975 15 L7.018666706430643 10.716371709403784 L10.716371709403841 7.0186667064307 z"/>
<path fill="black" d="M7.018666706430643 10.716371709403784 L29.999999999999975 15 L4.019237886466836 15 z"/>
<path fill="black" d="M32.60472266500397 15.227883704816879 L55.98076211353318 15 L56.08702603025802 15.227883704816879 z"/>
<path fill="black" d="M55.98076211353318 15 L32.60472266500397 15.227883704816879 L29.999999999999986 15 z"/>
<path fill="black" d="M58.356582945752315 39.64181414529811 L42.99038105676659 37.5 L58.930480316322516 37.5 z"/>
<path fill="black" d="M58.356582945752315 39.64181414529811 L42.99038105676658 37.5 L42.99038105676659 37.5 z"/>
<path fill="black" d="M41.4906666467847 39.64181414529811 L42.99038105676658 37.5 L58.356582945752315 39.64181414529811 z"/>
<path fill="black" d="M42.99038105676658 37.5 L41.4906666467847 39.64181414529811 L41.49066664678466 39.64181414529811 z"/>
<path fill="black" d="M56.917862816736275 42.99038105676655 L39.64181414529811 41.49066664678468 L57.617191131156204 41.49066664678468 z"/>
<path fill="black" d="M56.917862816736275 42.99038105676655 L39.641814145298106 41.49066664678468 L39.64181414529811 41.49066664678468 z"/>
<path fill="black" d="M39.641814145298106 41.49066664678468 L56.917862816736275 42.99038105676655 L37.500000000000064 42.99038105676655 z"/>
<path fill="black" d="M57.617191131156204 41.49066664678468 L58.356582945752315 39.64181414529811 L58.190778623577245 40.260604299769994 z"/>
<path fill="black" d="M57.617191131156204 41.49066664678468 L41.4906666467847 39.64181414529811 L58.356582945752315 39.64181414529811 z"/>
<path fill="black" d="M41.4906666467847 39.64181414529811 L57.617191131156204 41.49066664678468 L39.64181414529811 41.49066664678468 z"/>
<path fill="black" d="M56.40258900509499 44.09538931178864 L37.500000000000064 42.99038105676655 L56.917862816736275 42.99038105676655 z"/>
<path fill="black" d="M56.40258900509499 44.09538931178864 L37.50000000000001 42.99038105676655 L37.500000000000064 42.99038105676655 z"/>
<path fill="black" d="M35.13030214988501 44.09538931178864 L37.50000000000001 42.99038105676655 L56.40258900509499 44.09538931178864 z"/>
<path fill="black" d="M37.50000000000001 42.99038105676655 L35.13030214988501 44.09538931178864 L35.13030214988497 44.09538931178864 z"/>
<path fill="black" d="M49.2836282905962 52.98133329356935 L55.980762113533174 45 L52.98133329356932 49.28362829059621 z"/>
<path fill="black" d="M44.99999999999996 55.980762113533146 L55.980762113533174 45 L49.2836282905962 52.98133329356935 z"/>
<path fill="black" d="M40.26060429977007 58.19077862357724 L55.980762113533174 45 L44.99999999999996 55.980762113533146 z"/>
<path fill="black" d="M35.20944533000794 59.544232590366256 L55.980762113533174 45 L40.26060429977007 58.19077862357724 z"/>
<path fill="black" d="M35.20944533000794 59.544232590366256 L30.00000000000007 45 L55.980762113533174 45 z"/>
<path fill="black" d="M35.20944533000794 59.544232590366256 L30 45 L30.00000000000007 45 z"/>
<path fill="black" d="M29.99999999999994 60 L30 45 L35.20944533000794 59.544232590366256 z"/>
<path fill="black" d="M24.790554669992193 59.544232590366256 L30 45 L29.99999999999994 60 z"/>
<path fill="black" d="M19.73939570022994 58.19077862357724 L30 45 L24.790554669992193 59.544232590366256 z"/>
<path fill="black" d="M15.000000000000002 55.980762113533146 L30 45 L19.73939570022994 58.19077862357724 z"/>
<path fill="black" d="M10.716371709403848 52.98133329356935 L30 45 L15.000000000000002 55.980762113533146 z"/>
<path fill="black" d="M7.0186667064307 49.28362829059621 L30 45 L10.716371709403848 52.98133329356935 z"/>
<path fill="black" d="M30 45 L7.0186667064307 49.28362829059621 L4.019237886466854 45 z"/>
<path fill="black" d="M55.980762113533174 45 L32.60472266500402 44.772116295183125 L56.087026030258016 44.772116295183125 z"/>
<path fill="black" d="M32.60472266500402 44.772116295183125 L55.980762113533174 45 L30.00000000000007 45 z"/>
<path fill="black" d="M56.087026030258016 44.772116295183125 L35.13030214988501 44.09538931178864 L56.40258900509499 44.09538931178864 z"/>
<path fill="black" d="M32.60472266500402 44.772116295183125 L35.13030214988501 44.09538931178864 L56.087026030258016 44.772116295183125 z"/>
<path fill="black" d="M35.13030214988501 44.09538931178864 L32.60472266500402 44.772116295183125 L32.60472266500399 44.772116295183125 z"/>
</svg>