<?xml version="1.0" encoding="UTF-8"?>
<!-- Generated by jsxcad -->
<!DOCTYPE svg PUBLIC "-//W3C//DTD SVG 1.1 Tiny//EN" "http://www.w3.org/Graphics/SVG/1.1/DTD/svg11-tiny.dtd">
<svg baseProfile="tiny" height="60mm" width="60.000000000000014mm" viewBox="0 0 60.000000000000014 60" version="1.1" stroke="black" stroke-width=".1" fill="none" xmlns="http://www.w3.org/2000/svg">
<path fill="black" d="M42.990381056766594 22.500000000000007 L41.49066664678469 20.35818585470193 L42.99038105676659 22.499999999999993 z"/>
<path fill="black" d="M43.3974559771938 22.26497518511104 L39.641814145298085 18.509333353215318 L41.850745553666215 20.056043776742868 z"/>
<path fill="black" d="M41.85074555366622 39.94395622325712 L41.490666646784696 39.64181414529806 L42.99038105676658 37.500000000000014 z"/>
<path fill="black" d="M41.490666646784696 39.64181414529806 L41.85074555366622 39.94395622325712 L39.943956223257125 41.850745553666215 z"/>
<path fill="black" d="M40.56624039604146 48.301265210930346 L45.79798137008232 39.120968796669665 L41.97814178980664 47.31264121180716 z"/>
<path fill="black" d="M45.79798137008232 39.120968796669665 L40.56624039604146 48.301265210930346 L38.789858304249414 49.12960578414237 z"/>
<path fill="black" d="M38.91037266774352 54.48104770355127 L48.30126521093042 40.56624039604133 L42.61912578230722 52.75162772402402 z"/>
<path fill="black" d="M48.30126521093042 40.56624039604133 L38.91037266774352 54.48104770355127 L38.47663421341915 54.59726757211381 z"/>
<path fill="black" d="M42.50132928258296 2.8540885957276245 L37.597567953986385 1.0956629381552823 L40.26060429977005 1.8092213764227374 z"/>
<path fill="black" d="M30 3.94781318695831 L37.597567953986385 1.0956629381552823 L42.50132928258296 2.8540885957276245 z"/>
<path fill="black" d="M27.697928807525464 4.149218318929439 L37.597567953986385 1.0956629381552823 L30 3.94781318695831 z"/>
<path fill="black" d="M27.697928807525464 4.149218318929439 L25.925302402559595 4.223237066501704 L37.597567953986385 1.0956629381552823 z"/>
<path fill="black" d="M25.925302402559595 4.223237066501704 L27.697928807525464 4.149218318929439 L25.4760852356768 4.343604443594145 z"/>
<path fill="black" d="M47.025244046906074 5.43732903482482 L42.50132928258296 2.8540885957276245 L44.99999999999994 4.0192378864668115 z"/>
<path fill="black" d="M32.89188728472956 4.200820540566914 L42.50132928258296 2.8540885957276245 L47.025244046906074 5.43732903482482 z"/>
<path fill="black" d="M30.44733036098281 3.986949522395264 L42.50132928258296 2.8540885957276245 L32.89188728472956 4.200820540566914 z"/>
<path fill="black" d="M42.50132928258296 2.8540885957276245 L30.44733036098281 3.986949522395264 L30.000000000000007 3.9478131869583106 z"/>
<path fill="black" d="M42.171795421324305 12.822956520783215 L40.11991919749439 11.490611796190239 L40.56624039604132 11.698734789069592 z"/>
<path fill="black" d="M42.171795421324305 12.822956520783215 L39.00411620112706 10.97030431399186 L40.11991919749439 11.490611796190239 z"/>
<path fill="black" d="M33.16767922019724 12.035198428114498 L39.00411620112706 10.97030431399186 L42.171795421324305 12.822956520783215 z"/>
<path fill="black" d="M30.214903565364597 11.776864032381308 L39.00411620112706 10.97030431399186 L33.16767922019724 12.035198428114498 z"/>
<path fill="black" d="M39.00411620112706 10.97030431399186 L30.214903565364597 11.776864032381308 L29.999999999999908 11.758062406660596 z"/>
<path fill="black" d="M41.87823169167244 16.17840530489795 L39.297679930778926 14.325753098106576 L41.72569146167366 16.02586507489917 z"/>
<path fill="black" d="M35.63912158146062 14.506640789377832 L39.297679930778926 14.325753098106576 L41.87823169167244 16.17840530489795 z"/>
<path fill="black" d="M34.31666922614709 14.152290748742935 L39.297679930778926 14.325753098106576 L35.63912158146062 14.506640789377832 z"/>
<path fill="black" d="M39.297679930778926 14.325753098106576 L34.31666922614709 14.152290748742935 L32.86305706073711 13.762796542913275 z"/>
<path fill="black" d="M32.60472266500396 15.227883704816877 L32.68634592662791 14.764975185111009 L35.29106859163188 15.462908519705863 z"/>
<path fill="black" d="M32.68634592662791 14.764975185111009 L32.60472266500396 15.227883704816877 L29.999999999999986 14.999999999999996 z"/>
<path fill="black" d="M35.13030214988499 44.09538931178864 L32.686345926627894 45.23502481488899 L30.00000000000002 45.470049629777975 z"/>
<path fill="black" d="M29.999999999999986 14.999999999999998 L30.00000000000002 14.529950370222027 L32.68634592662791 14.764975185111009 z"/>
<path fill="black" d="M30.00000000000002 14.529950370222027 L29.999999999999986 14.999999999999998 L27.395277334996067 15.227883704816875 z"/>
<path fill="black" d="M25.68333077385296 45.847709251257065 L27.313654073372078 45.23502481488899 L30 45.470049629777975 z"/>
<path fill="black" d="M24.360878418539393 45.49335921062216 L27.313654073372078 45.23502481488899 L25.68333077385296 45.847709251257065 z"/>
<path fill="black" d="M27.313654073372078 45.23502481488899 L24.360878418539393 45.49335921062216 L22.996984847225004 44.85736519340989 z"/>
<path fill="black" d="M18.50933335321532 20.358185854701933 L17.009618943233423 22.500000000000007 L18.149254446333785 20.056043776742886 z"/>
<path fill="black" d="M17.009618943233423 22.500000000000007 L18.50933335321532 20.358185854701933 L18.509333353215325 20.35818585470193 z"/>
<path fill="black" d="M16.602544022806214 22.264975185111044 L17.369697850114967 19.401918124373882 L18.433815809695254 18.33780016479359 z"/>
<path fill="black" d="M16.602544022806214 22.264975185111044 L16.584412387649508 20.523421992317484 L17.369697850114967 19.401918124373882 z"/>
<path fill="black" d="M16.584412387649508 20.523421992317484 L16.602544022806214 22.264975185111044 L15.46290851970588 24.7089314083681 z"/>
<path fill="black" d="M18.149254446333785 20.056043776742886 L15.904610688211374 24.869697850114978 L16.602544022806214 22.264975185111044 z"/>
<path fill="black" d="M8.968144613946912 51.23310619811242 L20.682659708042692 54.29127558375925 L21.08962733225633 54.48104770355121 z"/>
<path fill="black" d="M8.968144613946912 51.23310619811242 L16.973906593479217 52.56185560423211 L20.682659708042692 54.29127558375925 z"/>
<path fill="black" d="M8.968144613946912 51.23310619811242 L8.618125351003734 48.6654908209979 L16.973906593479217 52.56185560423211 z"/>
<path fill="black" d="M8.968144613946905 51.23310619811242 L8.618125351003734 48.6654908209979 L8.968144613946912 51.23310619811242 z"/>
<path fill="black" d="M7.018666706430693 49.283628290596205 L8.618125351003734 48.6654908209979 L8.968144613946905 51.23310619811242 z"/>
<path fill="black" d="M8.618125351003734 48.6654908209979 L7.018666706430693 49.283628290596205 L5.60057555807273 47.25838424369016 z"/>
<path fill="black" d="M20.682659708042696 54.291275583759244 L31.717054474200996 50.982257990933704 L33.66961677912647 50.811430924424684 z"/>
<path fill="black" d="M16.973906593479207 52.5618556042321 L31.717054474200996 50.982257990933704 L20.682659708042696 54.291275583759244 z"/>
<path fill="black" d="M31.717054474200996 50.982257990933704 L16.973906593479207 52.5618556042321 L16.606075304702436 52.30429736304121 z"/>
<path fill="black" d="M20.70232006922107 45.67424690189341 L26.71919853324001 46.12526918085027 L27.13694293926288 46.23720345708672 z"/>
<path fill="black" d="M18.274308538326338 43.97413492510083 L26.71919853324001 46.12526918085027 L20.70232006922107 45.67424690189341 z"/>
<path fill="black" d="M26.71919853324001 46.12526918085027 L18.274308538326338 43.97413492510083 L18.12176830832756 43.82159469510205 z"/>
<path fill="black" d="M27.04722434516735 12.016396802393778 L23.969263719065594 12.80235225542324 L26.832320779802806 12.03519842811448 z"/>
<path fill="black" d="M21.756155753535474 15.72124291543906 L23.969263719065594 12.80235225542324 L27.04722434516735 12.016396802393778 z"/>
<path fill="black" d="M20.63465188559183 16.506528377904548 L23.969263719065594 12.80235225542324 L21.756155753535474 15.72124291543906 z"/>
<path fill="black" d="M23.969263719065594 12.80235225542324 L20.63465188559183 16.506528377904548 L19.40191812437387 17.369697850114974 z"/>
<path fill="black" d="M15.085248898226794 36.87995067515013 L16.602544022806235 37.735024814889 L18.149254446333778 39.9439562232571 z"/>
<path fill="black" d="M14.506640789377824 35.639121581460564 L16.602544022806235 37.735024814889 L15.085248898226794 36.87995067515013 z"/>
<path fill="black" d="M16.602544022806235 37.735024814889 L14.506640789377824 35.639121581460564 L14.117146583548186 34.18550941605066 z"/>
<path fill="black" d="M16.602544022806235 37.735024814889 L16.602544022806217 37.735024814888966 L16.602544022806228 37.73502481488898 z"/>
<path fill="black" d="M15.227883704816886 32.604722665003955 L14.529950370222032 30.000000000000004 L14.76497518511102 27.31365407337209 z"/>
<path fill="black" d="M16.506528377904544 39.36534811440816 L18.149254446333785 39.94395622325712 L20.056043776742857 41.85074555366619 z"/>
<path fill="black" d="M16.506528377904544 39.36534811440816 L18.149254446333778 39.9439562232571 L18.149254446333785 39.94395622325712 z"/>
<path fill="black" d="M15.721242915439072 38.24384424646453 L18.149254446333778 39.9439562232571 L16.506528377904544 39.36534811440816 z"/>
<path fill="black" d="M18.149254446333778 39.9439562232571 L15.721242915439072 38.24384424646453 L15.085248898226794 36.87995067515013 z"/>
<path fill="black" d="M20.35818585470191 41.49066664678467 L18.149254446333785 39.94395622325712 L16.602544022806264 37.73502481488903 z"/>
<path fill="black" d="M19.43375960395852 48.30126521093031 L19.433725189073364 48.30129962581543 L19.433742396515946 48.30128241837287 z"/>
<path fill="black" d="M14.110849532742002 38.92545603683976 L17.369697850114974 40.59808187562613 L19.40191812437388 42.63030214988503 z"/>
<path fill="black" d="M12.858185854701908 36.23911011021183 L17.369697850114974 40.59808187562613 L14.110849532742002 38.92545603683976 z"/>
<path fill="black" d="M17.369697850114974 40.59808187562613 L12.858185854701908 36.23911011021183 L12.802352255423237 36.03073628093439 z"/>
<path fill="black" d="M20.056043776742857 41.85074555366619 L20.35818585470191 41.49066664678467 L22.49999999999997 42.99038105676655 z"/>
<path fill="black" d="M20.35818585470191 41.49066664678467 L20.056043776742857 41.85074555366619 L18.149254446333785 39.94395622325712 z"/>
<path fill="black" d="M22.26497518511099 16.602544022806242 L20.358185854701897 18.509333353215347 L20.056043776742897 18.149254446333778 z"/>
<path fill="black" d="M18.451019672435603 15.902130606710267 L16.178405304897957 18.121768308327553 L18.274308538326363 16.025865074899144 z"/>
<path fill="black" d="M15.721242915439081 21.756155753535445 L16.178405304897957 18.121768308327553 L18.451019672435603 15.902130606710267 z"/>
<path fill="black" d="M15.142634806590113 22.996984847225008 L16.178405304897957 18.121768308327553 L15.721242915439081 21.756155753535445 z"/>
<path fill="black" d="M16.178405304897957 18.121768308327553 L15.142634806590113 22.996984847225008 L14.506640789377823 24.36087841853944 z"/>
<path fill="black" d="M17.369697850114974 40.59808187562613 L22.264975185111048 43.397455977193786 L18.33780016479359 41.566184190304746 z"/>
<path fill="black" d="M22.264975185111048 43.397455977193786 L17.369697850114974 40.59808187562613 L16.506528377904544 39.36534811440816 z"/>
<path fill="black" d="M20.056043776742897 18.149254446333778 L18.50933335321532 20.358185854701933 L18.149254446333785 20.056043776742886 z"/>
<path fill="black" d="M20.358185854701897 18.509333353215347 L18.509333353215325 20.35818585470193 L20.056043776742897 18.149254446333778 z"/>
<path fill="black" d="M22.772265890665043 49.858036259220164 L19.43375960395852 48.30126521093031 L20.092762959025784 48.60857364755188 z"/>
<path fill="black" d="M9.785308819581047 46.378191599885554 L19.43375960395852 48.30126521093031 L22.772265890665043 49.858036259220164 z"/>
<path fill="black" d="M7.438144395767928 43.02609340652085 L19.43375960395852 48.30126521093031 L9.785308819581047 46.378191599885554 z"/>
<path fill="black" d="M19.43375960395852 48.30126521093031 L7.438144395767928 43.02609340652085 L7.2528484348615905 42.6216822037583 z"/>
<path fill="black" d="M27.313654073372085 45.23502481488899 L27.395277334996045 44.772116295183125 L29.999999999999993 45 z"/>
<path fill="black" d="M27.395277334996045 44.772116295183125 L27.313654073372085 45.23502481488899 L24.708931408368176 44.537091480294144 z"/>
<path fill="black" d="M27.395277334996067 15.227883704816877 L24.869697850114953 15.904610688211383 L27.313654073372074 14.764975185111016 z"/>
<path fill="black" d="M28.500836510577297 46.35652868283262 L30.00000000000002 45.470049629777975 L32.686345926627894 45.23502481488899 z"/>
<path fill="black" d="M28.304319425640358 46.339335665711474 L30.00000000000002 45.470049629777975 L28.500836510577297 46.35652868283262 z"/>
<path fill="black" d="M27.136942939262887 46.23720345708672 L30.00000000000002 45.470049629777975 L28.304319425640358 46.339335665711474 z"/>
<path fill="black" d="M26.71919853324001 46.12526918085027 L30.00000000000002 45.470049629777975 L27.136942939262887 46.23720345708672 z"/>
<path fill="black" d="M30.00000000000002 45.470049629777975 L26.71919853324001 46.12526918085027 L25.68333077385296 45.847709251257065 z"/>
<path fill="black" d="M31.499163489422738 13.643471317167382 L28.63610642868558 13.63163673281683 L30.000000000000036 13.51231150707093 z"/>
<path fill="black" d="M27.313654073372074 14.764975185111016 L28.63610642868558 13.63163673281683 L31.499163489422738 13.643471317167382 z"/>
<path fill="black" d="M28.63610642868558 13.63163673281683 L27.313654073372074 14.764975185111016 L24.708931408368155 15.462908519705858 z"/>
<path fill="black" d="M31.952562304925653 9.03834627442626 L28.282945525798972 9.017742009066293 L30.000000000000117 8.867519207917226 z"/>
<path fill="black" d="M28.282945525798972 9.017742009066293 L31.952562304925653 9.03834627442626 L20.879031203330236 14.202018629917749 z"/>
<path fill="black" d="M30.214903565364597 11.776864032381308 L28.91266226470423 11.853192131922917 L29.999999999999908 11.758062406660596 z"/>
<path fill="black" d="M30.214903565364597 11.776864032381308 L27.04722434516735 12.016396802393778 L28.91266226470423 11.853192131922917 z"/>
<path fill="black" d="M27.04722434516735 12.016396802393778 L30.214903565364597 11.776864032381308 L21.756155753535477 15.721242915439058 z"/>
<path fill="black" d="M30.00000000000001 45 L32.604722665004005 44.77211629518311 L30.00000000000001 45.470049629777975 z"/>
<path fill="black" d="M32.604722665004005 44.77211629518311 L30.00000000000001 45 L29.999999999999993 45 z"/>
<path fill="black" d="M42.99038105676659 22.499999999999993 L43.3974559771938 22.26497518511104 L44.53709148029414 24.708931408368116 z"/>
<path fill="black" d="M43.3974559771938 22.26497518511104 L42.99038105676659 22.499999999999993 L41.49066664678469 20.35818585470193 z"/>
<path fill="black" d="M44.09538931178864 24.869697850114974 L44.53709148029414 24.708931408368116 L44.656416706040034 26.072824979682554 z"/>
<path fill="black" d="M44.53709148029414 24.708931408368116 L44.09538931178864 24.869697850114974 L42.990381056766594 22.500000000000007 z"/>
<path fill="black" d="M44.772116295183125 27.39527733499602 L44.09538931178864 24.869697850114974 L44.65641670604004 26.072824979682558 z"/>
<path fill="black" d="M44.53709148029414 24.708931408368116 L44.99263511151818 24.543127086193024 L45.11569958914309 25.949760502057636 z"/>
<path fill="black" d="M44.99263511151818 24.543127086193024 L44.53709148029414 24.708931408368116 L43.3974559771938 22.26497518511104 z"/>
<path fill="black" d="M45.23502481488899 27.313654073372074 L45.11569958914309 25.949760502057636 L45.22930455470802 27.248271200318158 z"/>
<path fill="black" d="M45.11569958914309 25.949760502057636 L45.23502481488899 27.313654073372074 L44.53709148029414 24.708931408368116 z"/>
<path fill="black" d="M45.235024814888995 32.6863459266279 L45.26502283853821 27.656533052662105 L45.47004962977798 30 z"/>
<path fill="black" d="M45.235024814888995 32.6863459266279 L45.23502481488899 27.313654073372078 L45.26502283853821 27.656533052662105 z"/>
<path fill="black" d="M44.656416706040034 26.072824979682554 L45.23502481488899 27.313654073372078 L45.235024814888995 32.6863459266279 z"/>
<path fill="black" d="M45.23502481488899 27.313654073372074 L44.656416706040034 26.072824979682554 L44.53709148029414 24.708931408368116 z"/>
<path fill="black" d="M45.49335921062219 35.63912158146056 L45.47004962977798 30 L45.84770925125708 34.316669226147056 z"/>
<path fill="black" d="M45.49335921062219 35.63912158146056 L45.235024814888995 32.6863459266279 L45.47004962977798 30 z"/>
<path fill="black" d="M45.235024814888995 32.6863459266279 L45.49335921062219 35.63912158146056 L44.85736519340989 37.003015152775006 z"/>
<path fill="black" d="M43.41558761235051 39.47657800768251 L43.39745597719379 37.73502481488897 L44.53709148029413 35.2910685916319 z"/>
<path fill="black" d="M42.630302149885026 40.59808187562615 L43.39745597719379 37.73502481488897 L43.41558761235051 39.47657800768251 z"/>
<path fill="black" d="M43.39745597719379 37.73502481488897 L42.630302149885026 40.59808187562615 L41.56618419030477 41.66219983520641 z"/>
<path fill="black" d="M39.943956223257146 18.1492544463338 L37.73502481488895 16.602544022806207 L37.73502481488896 16.602544022806207 z"/>
<path fill="black" d="M37.73502481488895 16.602544022806207 L39.943956223257146 18.1492544463338 L35.13030214988502 15.904610688211363 z"/>
<path fill="black" d="M39.943956223257125 41.850745553666215 L39.6418141452981 41.49066664678467 L41.490666646784696 39.64181414529806 z"/>
<path fill="black" d="M39.6418141452981 41.49066664678467 L39.943956223257125 41.850745553666215 L37.735024814889 43.39745597719377 z"/>
<path fill="black" d="M35.13030214988502 15.904610688211363 L35.29106859163188 15.462908519705863 L37.73502481488895 16.602544022806207 z"/>
<path fill="black" d="M35.29106859163188 15.462908519705863 L35.13030214988502 15.904610688211363 L32.60472266500396 15.227883704816877 z"/>
<path fill="black" d="M37.227734109335216 49.85803625922007 L33.66961677912651 50.811430924424684 L35.334499422000526 50.36532696477399 z"/>
<path fill="black" d="M25.04234678135245 55.54017568784331 L33.66961677912651 50.811430924424684 L37.227734109335216 49.85803625922007 z"/>
<path fill="black" d="M24.185463544135807 55.310574516423344 L33.66961677912651 50.811430924424684 L25.04234678135245 55.54017568784331 z"/>
<path fill="black" d="M21.08962733225633 54.48104770355121 L33.66961677912651 50.811430924424684 L24.185463544135807 55.310574516423344 z"/>
<path fill="black" d="M33.66961677912651 50.811430924424684 L21.08962733225633 54.48104770355121 L20.682659708042696 54.291275583759244 z"/>
<path fill="black" d="M35.56285146646121 9.695859781129222 L31.952562304925653 9.03834627442626 L33.6696167791265 9.188569075575298 z"/>
<path fill="black" d="M23.969263719065594 12.80235225542324 L31.952562304925653 9.03834627442626 L35.56285146646121 9.695859781129222 z"/>
<path fill="black" d="M31.952562304925653 9.03834627442626 L23.969263719065594 12.80235225542324 L23.760889889788196 12.858185854701901 z"/>
<path fill="black" d="M33.669616779126486 50.811430924424684 L41.72569146167369 43.97413492510081 L35.334499422000526 50.36532696477399 z"/>
<path fill="black" d="M41.72569146167369 43.97413492510081 L33.669616779126486 50.811430924424684 L31.717054474200996 50.982257990933704 z"/>
<path fill="black" d="M35.291068591631884 44.53709148029413 L35.13030214988499 44.09538931178864 L37.5 42.99038105676658 z"/>
<path fill="black" d="M35.13030214988499 44.09538931178864 L35.291068591631884 44.53709148029413 L32.686345926627894 45.23502481488899 z"/>
<path fill="black" d="M30.00000000000001 45.470049629777975 L27.313654073372085 45.23502481488899 L30.00000000000001 45 z"/>
<path fill="black" d="M28.767272643878258 55.94433714416276 L40.566240396041444 48.30126521093035 L29.55266963901722 56.013050477604736 z"/>
<path fill="black" d="M25.47608523567688 55.65639555640586 L40.566240396041444 48.30126521093035 L28.767272643878258 55.94433714416276 z"/>
<path fill="black" d="M40.566240396041444 48.30126521093035 L25.47608523567688 55.65639555640586 L25.04234678135245 55.54017568784331 z"/>
<path fill="black" d="M27.313654073372074 14.764975185111016 L22.50000000000004 17.009618943233402 L24.708931408368155 15.462908519705858 z"/>
<path fill="black" d="M24.869697850115024 44.095389311788644 L22.264975185111048 43.397455977193786 L20.056043776742857 41.85074555366619 z"/>
<path fill="black" d="M22.996984847225004 44.85736519340989 L24.708931408368155 44.537091480294144 L27.313654073372078 45.23502481488899 z"/>
<path fill="black" d="M21.756155753535474 44.27875708456094 L24.708931408368155 44.537091480294144 L22.996984847225004 44.85736519340989 z"/>
<path fill="black" d="M24.708931408368155 44.537091480294144 L21.756155753535474 44.27875708456094 L20.52342199231753 43.41558761235052 z"/>
<path fill="black" d="M24.708931408368176 44.537091480294144 L24.869697850115024 44.095389311788644 L27.395277334996045 44.772116295183125 z"/>
<path fill="black" d="M24.708931408368144 44.53709148029414 L24.869697850115024 44.095389311788644 L24.708931408368176 44.537091480294144 z"/>
<path fill="black" d="M24.869697850115024 44.095389311788644 L24.708931408368144 44.53709148029414 L22.264975185111048 43.397455977193786 z"/>
<path fill="black" d="M12.974755953093936 54.56267096517518 L25.04234678135245 55.54017568784331 L25.47608523567688 55.65639555640586 z"/>
<path fill="black" d="M12.974755953093936 54.56267096517518 L24.185463544135807 55.310574516423344 L25.04234678135245 55.54017568784331 z"/>
<path fill="black" d="M10.716371709403838 52.98133329356935 L24.185463544135807 55.310574516423344 L12.974755953093936 54.56267096517518 z"/>
<path fill="black" d="M24.185463544135807 55.310574516423344 L10.716371709403838 52.98133329356935 L8.968144613946912 51.23310619811242 z"/>
<path fill="black" d="M25.92341559665968 4.3044681081571845 L21.523365786580825 5.402732427886203 L25.4760852356768 4.343604443594145 z"/>
<path fill="black" d="M21.523365786580825 5.402732427886203 L25.92341559665968 4.3044681081571845 L13.811580519906428 16.416303184910454 z"/>
<path fill="black" d="M24.708931408368155 44.537091480294144 L24.708931408368137 44.53709148029414 L24.708931408368144 44.53709148029414 z"/>
<path fill="black" d="M24.665500577999516 9.634673035225976 L21.210141695750615 10.870394215857619 L22.7722658906649 10.141963740779875 z"/>
<path fill="black" d="M18.274308538326352 16.02586507489915 L21.210141695750615 10.870394215857619 L24.665500577999516 9.634673035225976 z"/>
<path fill="black" d="M16.178405304897957 18.121768308327553 L21.210141695750615 10.870394215857619 L18.274308538326352 16.02586507489915 z"/>
<path fill="black" d="M21.210141695750615 10.870394215857619 L16.178405304897957 18.121768308327553 L16.025865074899194 18.274308538326316 z"/>
<path fill="black" d="M22.500000000000032 17.009618943233406 L22.26497518511099 16.602544022806242 L22.264975185110995 16.60254402280624 z"/>
<path fill="black" d="M22.500000000000032 17.009618943233406 L20.358185854701897 18.509333353215347 L22.26497518511099 16.602544022806242 z"/>
<path fill="black" d="M20.358185854701897 18.509333353215347 L22.500000000000032 17.009618943233406 L22.50000000000004 17.009618943233402 z"/>
<path fill="black" d="M13.62180840011446 9.785308819581058 L10.360385646533775 12.936458525575894 L13.25397711133779 10.042867060771876 z"/>
<path fill="black" d="M10.039016673168216 23.15646957748187 L10.360385646533775 12.936458525575894 L13.62180840011446 9.785308819581058 z"/>
<path fill="black" d="M10.360385646533775 12.936458525575894 L10.039016673168216 23.15646957748187 L9.18856907557533 26.330383220873408 z"/>
<path fill="black" d="M27.25351303765494 0.2402864737269539 L22.12751832420842 1.1693258479012307 L24.790554669992126 0.4557674096337614 z"/>
<path fill="black" d="M27.25351303765494 0.2402864737269539 L22.12751832420838 1.1693258479012698 L22.12751832420842 1.1693258479012307 z"/>
<path fill="black" d="M16.973906593479114 7.438144395767978 L22.12751832420838 1.1693258479012698 L27.25351303765494 0.2402864737269539 z"/>
<path fill="black" d="M13.62180840011446 9.785308819581058 L22.12751832420838 1.1693258479012698 L16.973906593479114 7.438144395767978 z"/>
<path fill="black" d="M22.12751832420838 1.1693258479012698 L13.62180840011446 9.785308819581058 L13.25397711133779 10.042867060771876 z"/>
<path fill="black" d="M22.12751832420842 1.1693258479012307 L19.739395700229885 1.8092213764227694 L22.127518324208424 1.1693258479012272 z"/>
<path fill="black" d="M22.12751832420838 1.1693258479012698 L19.739395700229885 1.8092213764227694 L22.12751832420842 1.1693258479012307 z"/>
<path fill="black" d="M22.12751832420838 1.1693258479012698 L17.240724982812885 2.9743706671619634 L19.739395700229885 1.8092213764227694 z"/>
<path fill="black" d="M17.240724982812885 2.9743706671619634 L22.12751832420838 1.1693258479012698 L10.042867060771812 13.253977111337857 z"/>
<path fill="black" d="M13.631636732816844 31.363893571314463 L13.643471317167393 28.50083651057727 L15.462908519705875 35.291068591631884 z"/>
<path fill="black" d="M13.643471317167393 28.50083651057727 L13.631636732816844 31.363893571314463 L13.51231150707094 29.99999999999998 z"/>
<path fill="black" d="M14.76497518511102 32.68634592662791 L13.762796542913286 27.136942939262866 L14.152290748742935 25.683330773852937 z"/>
<path fill="black" d="M14.76497518511102 32.68634592662791 L13.683246392416024 28.046205320139137 L13.762796542913286 27.136942939262866 z"/>
<path fill="black" d="M13.683246392416024 28.046205320139137 L14.76497518511102 32.68634592662791 L13.643471317167393 28.50083651057727 z"/>
<path fill="black" d="M15.1975245016872 15.03035920312968 L12.822956520783205 17.828204578675702 L13.811580519906428 16.416303184910454 z"/>
<path fill="black" d="M12.822956520783205 17.828204578675702 L15.1975245016872 15.03035920312968 L12.035198428114487 26.832320779802814 z"/>
<path fill="black" d="M5.402732427886219 38.47663421341919 L13.811580519906443 43.58369681508958 L16.41630318491041 46.18841948009354 z"/>
<path fill="black" d="M4.546957016578194 35.282836898549476 L13.811580519906443 43.58369681508958 L5.402732427886219 38.47663421341919 z"/>
<path fill="black" d="M4.34360444359411 34.52391476432301 L13.811580519906443 43.58369681508958 L4.546957016578194 35.282836898549476 z"/>
<path fill="black" d="M13.811580519906443 43.58369681508958 L4.34360444359411 34.52391476432301 L4.304468108157165 34.07658440334031 z"/>
<path fill="black" d="M13.631636732816844 31.36389357131446 L12.949354951877638 23.565377129958208 L13.51231150707094 29.99999999999998 z"/>
<path fill="black" d="M13.631636732816844 31.36389357131446 L12.858185854701937 23.760889889788103 L12.949354951877638 23.565377129958208 z"/>
<path fill="black" d="M13.7627965429133 32.86305706073716 L12.858185854701937 23.760889889788103 L13.631636732816844 31.36389357131446 z"/>
<path fill="black" d="M12.858185854701937 23.760889889788103 L13.7627965429133 32.86305706073716 L12.09103202739318 26.6239469505253 z"/>
<path fill="black" d="M12.016396802393796 32.95277565483265 L15.085248898226792 36.87995067515013 L15.721242915439072 38.24384424646453 z"/>
<path fill="black" d="M12.016396802393796 32.95277565483265 L14.506640789377824 35.639121581460564 L15.085248898226792 36.87995067515013 z"/>
<path fill="black" d="M11.885144661287232 31.452556817135175 L14.506640789377824 35.639121581460564 L12.016396802393796 32.95277565483265 z"/>
<path fill="black" d="M11.885144661287232 31.452556817135175 L11.776864032381305 29.78509643463539 L14.506640789377824 35.639121581460564 z"/>
<path fill="black" d="M11.776864032381305 29.78509643463539 L11.885144661287232 31.452556817135175 L11.758062406660603 29.99999999999995 z"/>
<path fill="black" d="M15.902130606710298 41.54898032756442 L20.52342199231751 43.415587612350514 L21.756155753535474 44.27875708456094 z"/>
<path fill="black" d="M15.902130606710298 41.54898032756442 L19.401918124373893 42.63030214988505 L20.52342199231751 43.415587612350514 z"/>
<path fill="black" d="M14.20201862991774 39.12096879666974 L19.401918124373893 42.63030214988505 L15.902130606710298 41.54898032756442 z"/>
<path fill="black" d="M19.401918124373893 42.63030214988505 L14.20201862991774 39.12096879666974 L14.110849532742002 38.92545603683976 z"/>
<path fill="black" d="M20.523421992317516 43.41558761235052 L22.264975185111048 43.397455977193786 L24.708931408368137 44.53709148029414 z"/>
<path fill="black" d="M19.40191812437388 42.63030214988503 L22.264975185111048 43.397455977193786 L20.523421992317516 43.41558761235052 z"/>
<path fill="black" d="M22.264975185111048 43.397455977193786 L19.40191812437388 42.63030214988503 L18.33780016479359 41.566184190304746 z"/>
<path fill="black" d="M23.120049324849894 15.085248898226777 L20.634651885591826 16.50652837790455 L21.756155753535477 15.721242915439058 z"/>
<path fill="black" d="M20.634651885591826 16.50652837790455 L23.120049324849894 15.085248898226777 L18.149254446333785 20.056043776742886 z"/>
<path fill="black" d="M18.12176830832756 43.82159469510205 L22.996984847225004 44.85736519340989 L24.360878418539393 45.49335921062216 z"/>
<path fill="black" d="M16.02586507489917 41.725691461673655 L22.996984847225004 44.85736519340989 L18.12176830832756 43.82159469510205 z"/>
<path fill="black" d="M22.996984847225004 44.85736519340989 L16.02586507489917 41.725691461673655 L15.902130606710298 41.54898032756442 z"/>
<path fill="black" d="M28.500836510577294 46.35652868283261 L27.13694293926291 46.23720345708672 L28.304319425640358 46.339335665711474 z"/>
<path fill="black" d="M30.000000000000014 46.48768849292907 L27.13694293926291 46.23720345708672 L28.500836510577294 46.35652868283261 z"/>
<path fill="black" d="M23.56537712995822 47.05064504812237 L27.13694293926291 46.23720345708672 L30.000000000000014 46.48768849292907 z"/>
<path fill="black" d="M21.731560592783495 46.19552235318651 L27.13694293926291 46.23720345708672 L23.56537712995822 47.05064504812237 z"/>
<path fill="black" d="M20.879031203330307 45.79798137008229 L27.13694293926291 46.23720345708672 L21.731560592783495 46.19552235318651 z"/>
<path fill="black" d="M20.879031203330296 45.79798137008228 L27.13694293926291 46.23720345708672 L20.879031203330307 45.79798137008229 z"/>
<path fill="black" d="M27.13694293926291 46.23720345708672 L20.879031203330296 45.79798137008228 L20.70232006922107 45.67424690189341 z"/>
<path fill="black" d="M45.49335921062219 35.63912158146056 L44.27875708456093 38.24384424646456 L44.85736519340989 37.003015152775006 z"/>
<path fill="black" d="M43.82159469510207 41.87823169167243 L44.27875708456093 38.24384424646456 L45.49335921062219 35.63912158146056 z"/>
<path fill="black" d="M41.72569146167369 43.97413492510081 L44.27875708456093 38.24384424646456 L43.82159469510207 41.87823169167243 z"/>
<path fill="black" d="M44.27875708456093 38.24384424646456 L41.72569146167369 43.97413492510081 L41.548980327564415 44.09786939328971 z"/>
<path fill="black" d="M44.27875708456091 38.24384424646459 L45.235024814888995 32.6863459266279 L44.85736519340989 37.003015152775006 z"/>
<path fill="black" d="M45.235024814888995 32.6863459266279 L44.27875708456091 38.24384424646459 L43.41558761235051 39.47657800768251 z"/>
<path fill="black" d="M44.86366224421606 23.068960467292726 L44.27875708456094 21.756155753535463 L44.85736519340989 22.996984847225 z"/>
<path fill="black" d="M44.86366224421606 23.068960467292726 L43.49347162209545 20.63465188559182 L44.27875708456094 21.756155753535463 z"/>
<path fill="black" d="M41.850745553666215 20.056043776742868 L43.49347162209545 20.63465188559182 L44.86366224421606 23.068960467292726 z"/>
<path fill="black" d="M41.85074555366621 20.05604377674286 L43.49347162209545 20.63465188559182 L41.850745553666215 20.056043776742868 z"/>
<path fill="black" d="M43.49347162209545 20.63465188559182 L41.85074555366621 20.05604377674286 L39.943956223257146 18.1492544463338 z"/>
<path fill="black" d="M45.69491325842965 20.938537605337807 L44.09786939328972 18.45101967243557 L45.67424690189341 20.702320069221038 z"/>
<path fill="black" d="M40.598081875626164 17.369697850114985 L44.09786939328972 18.45101967243557 L45.69491325842965 20.938537605337807 z"/>
<path fill="black" d="M39.4765780076825 16.584412387649486 L44.09786939328972 18.45101967243557 L40.598081875626164 17.369697850114985 z"/>
<path fill="black" d="M44.09786939328972 18.45101967243557 L39.4765780076825 16.584412387649486 L38.24384424646449 15.721242915439031 z"/>
<path fill="black" d="M46.37819159988554 50.21469118041895 L49.02969568600813 39.004116201127104 L49.858036259220114 37.22773410933516 z"/>
<path fill="black" d="M43.02609340652091 52.561855604232036 L49.02969568600813 39.004116201127104 L46.37819159988554 50.21469118041895 z"/>
<path fill="black" d="M49.02969568600813 39.004116201127104 L43.02609340652091 52.561855604232036 L42.61912578230722 52.75162772402402 z"/>
<path fill="black" d="M51.0318553860531 8.766893801887578 L47.02524404690607 5.43732903482482 L49.28362829059622 7.018666706430697 z"/>
<path fill="black" d="M38.91037266774368 5.518952296448773 L47.02524404690607 5.43732903482482 L51.0318553860531 8.766893801887578 z"/>
<path fill="black" d="M38.91037266774367 5.51895229644877 L47.02524404690607 5.43732903482482 L38.91037266774368 5.518952296448773 z"/>
<path fill="black" d="M34.95765321864758 4.459824312156684 L47.02524404690607 5.43732903482482 L38.91037266774367 5.51895229644877 z"/>
<path fill="black" d="M47.02524404690607 5.43732903482482 L34.95765321864758 4.459824312156684 L34.5239147643232 4.343604443594145 z"/>
<path fill="black" d="M46.23720345708672 32.86305706073716 L46.23720345708672 27.13694293926284 L46.487688492929074 30.000000000000007 z"/>
<path fill="black" d="M45.84770925125708 34.316669226147056 L46.23720345708672 27.13694293926284 L46.23720345708672 32.86305706073716 z"/>
<path fill="black" d="M45.84770925125708 34.316669226147056 L45.4933592106222 24.360878418539475 L46.23720345708672 27.13694293926284 z"/>
<path fill="black" d="M45.47004962977798 30 L45.4933592106222 24.360878418539475 L45.84770925125708 34.316669226147056 z"/>
<path fill="black" d="M45.26502283853821 27.656533052662105 L45.4933592106222 24.360878418539475 L45.47004962977798 30 z"/>
<path fill="black" d="M45.23502481488899 27.313654073372074 L45.4933592106222 24.360878418539475 L45.26502283853821 27.656533052662105 z"/>
<path fill="black" d="M45.22930455470802 27.248271200318158 L45.4933592106222 24.360878418539475 L45.23502481488899 27.313654073372074 z"/>
<path fill="black" d="M45.11569958914309 25.949760502057647 L45.4933592106222 24.360878418539475 L45.22930455470802 27.248271200318158 z"/>
<path fill="black" d="M44.99263511151819 24.54312708619303 L45.4933592106222 24.360878418539475 L45.11569958914309 25.949760502057647 z"/>
<path fill="black" d="M44.86366224421607 23.068960467292733 L45.4933592106222 24.360878418539475 L44.99263511151819 24.54312708619303 z"/>
<path fill="black" d="M45.4933592106222 24.360878418539475 L44.86366224421607 23.068960467292733 L44.85736519340989 22.996984847225 z"/>
<path fill="black" d="M47.05064504812238 36.4346228700418 L46.23720345708672 32.86305706073715 L46.487688492929074 30.000000000000007 z"/>
<path fill="black" d="M45.797981370082326 39.12096879666965 L46.23720345708672 32.86305706073715 L47.05064504812238 36.4346228700418 z"/>
<path fill="black" d="M46.23720345708672 32.86305706073715 L45.797981370082326 39.12096879666965 L45.67424690189341 39.29767993077894 z"/>
<path fill="black" d="M46.23720345708672 27.13694293926284 L45.4933592106222 24.360878418539475 L46.110028871449984 25.683330773852926 z"/>
<path fill="black" d="M45.67424690189341 39.29767993077894 L45.84770925125708 34.316669226147056 L46.23720345708672 32.86305706073716 z"/>
<path fill="black" d="M43.97413492510081 41.72569146167369 L45.84770925125708 34.316669226147056 L45.67424690189341 39.29767993077894 z"/>
<path fill="black" d="M45.84770925125708 34.316669226147056 L43.97413492510081 41.72569146167369 L43.82159469510207 41.87823169167243 z"/>
<path fill="black" d="M45.84141220045089 22.613028174939718 L40.59808187562617 17.369697850114992 L45.69491325842966 20.938537605337807 z"/>
<path fill="black" d="M43.49347162209545 20.63465188559182 L41.66219983520644 18.43381580969526 L42.630302149885004 19.40191812437383 z"/>
<path fill="black" d="M41.66219983520644 18.43381580969526 L43.49347162209545 20.63465188559182 L37.73502481488896 16.602544022806207 z"/>
<path fill="black" d="M43.39745597719379 37.73502481488897 L41.85074555366622 39.94395622325712 L42.99038105676659 37.5 z"/>
<path fill="black" d="M41.66219983520644 18.43381580969526 L39.4765780076825 16.584412387649486 L40.59808187562617 17.369697850114992 z"/>
<path fill="black" d="M37.73502481488895 16.602544022806207 L39.4765780076825 16.584412387649486 L41.66219983520644 18.43381580969526 z"/>
<path fill="black" d="M39.4765780076825 16.584412387649486 L37.73502481488895 16.602544022806207 L35.29106859163188 15.462908519705863 z"/>
<path fill="black" d="M38.92545603683976 45.889150467258006 L41.56618419030476 41.66219983520642 L42.630302149885026 40.59808187562615 z"/>
<path fill="black" d="M38.92545603683976 45.889150467258006 L40.59808187562618 42.630302149885004 L41.56618419030476 41.66219983520642 z"/>
<path fill="black" d="M38.90561614104399 45.89840196260457 L40.59808187562618 42.630302149885004 L38.92545603683976 45.889150467258006 z"/>
<path fill="black" d="M36.2391101102118 47.14181414529811 L40.59808187562618 42.630302149885004 L38.90561614104399 45.89840196260457 z"/>
<path fill="black" d="M36.2391101101826 47.14181414530593 L40.59808187562618 42.630302149885004 L36.2391101102118 47.14181414529811 z"/>
<path fill="black" d="M40.59808187562618 42.630302149885004 L36.2391101101826 47.14181414530593 L36.030736280934406 47.19764774457677 z"/>
<path fill="black" d="M40.59808187562615 42.63030214988501 L43.39745597719379 37.73502481488897 L41.56618419030477 41.66219983520641 z"/>
<path fill="black" d="M40.41674453332138 42.75727592392573 L43.39745597719379 37.73502481488897 L40.59808187562615 42.63030214988501 z"/>
<path fill="black" d="M43.39745597719379 37.73502481488897 L40.41674453332138 42.75727592392573 L39.36534811440818 43.493471622095456 z"/>
<path fill="black" d="M41.548980327564415 44.09786939328971 L43.41558761235051 39.47657800768251 L44.27875708456091 38.24384424646459 z"/>
<path fill="black" d="M39.12096879666971 45.79798137008228 L43.41558761235051 39.47657800768251 L41.548980327564415 44.09786939328971 z"/>
<path fill="black" d="M43.41558761235051 39.47657800768251 L39.12096879666971 45.79798137008228 L38.92545603683976 45.889150467258006 z"/>
<path fill="black" d="M45.235024814888995 32.6863459266279 L44.53709148029413 35.2910685916319 L45.00000000000001 29.999999999999986 z"/>
<path fill="black" d="M44.53709148029413 35.2910685916319 L44.09538931178865 35.13030214988499 L44.77211629518312 32.60472266500401 z"/>
<path fill="black" d="M44.09538931178865 35.13030214988499 L44.53709148029413 35.2910685916319 L43.39745597719379 37.73502481488897 z"/>
<path fill="black" d="M31.717054474200996 50.982257990933704 L38.90561614104399 45.89840196260457 L39.12096879666971 45.79798137008228 z"/>
<path fill="black" d="M31.717054474200996 50.982257990933704 L36.239110110211804 47.14181414529811 L38.90561614104399 45.89840196260457 z"/>
<path fill="black" d="M30.000000000000014 51.13248079208276 L36.239110110211804 47.14181414529811 L31.717054474200996 50.982257990933704 z"/>
<path fill="black" d="M36.239110110211804 47.14181414529811 L30.000000000000014 51.13248079208276 L28.047437695074436 50.961653725573726 z"/>
<path fill="black" d="M37.227734109335216 49.85803625922007 L43.97413492510081 41.72569146167369 L38.789858304249414 49.12960578414237 z"/>
<path fill="black" d="M43.97413492510081 41.72569146167369 L37.227734109335216 49.85803625922007 L35.334499422000526 50.36532696477399 z"/>
<path fill="black" d="M27.537041632337115 59.78451906409319 L38.476634213419146 54.597267572113815 L38.91037266774352 54.48104770355127 z"/>
<path fill="black" d="M27.537041632337115 59.78451906409319 L34.523914764323195 55.65639555640587 L38.476634213419146 54.597267572113815 z"/>
<path fill="black" d="M24.79055466999219 59.54423259036625 L34.523914764323195 55.65639555640587 L27.537041632337115 59.78451906409319 z"/>
<path fill="black" d="M24.79055466999219 59.54423259036625 L22.402432046013654 58.904337061844714 L34.523914764323195 55.65639555640587 z"/>
<path fill="black" d="M34.523914764323166 55.65639555640587 L46.18841948009353 43.58369681508961 L38.47663421341915 54.59726757211381 z"/>
<path fill="black" d="M46.18841948009353 43.58369681508961 L34.523914764323166 55.65639555640587 L34.07658440334033 55.695531891842826 z"/>
<path fill="black" d="M39.00411620112706 10.97030431399186 L35.56285146646121 9.695859781129222 L37.2277341093351 10.141963740779875 z"/>
<path fill="black" d="M28.91266226470423 11.853192131922917 L35.56285146646121 9.695859781129222 L39.00411620112706 10.97030431399186 z"/>
<path fill="black" d="M27.047224345167354 12.016396802393778 L35.56285146646121 9.695859781129222 L28.91266226470423 11.853192131922917 z"/>
<path fill="black" d="M35.56285146646121 9.695859781129222 L27.047224345167354 12.016396802393778 L26.832320779802806 12.03519842811448 z"/>
<path fill="black" d="M37.00301515277501 15.142634806590102 L34.31666922614709 14.152290748742935 L35.63912158146063 14.506640789377833 z"/>
<path fill="black" d="M32.68634592662791 14.764975185111009 L34.31666922614709 14.152290748742935 L37.00301515277501 15.142634806590102 z"/>
<path fill="black" d="M34.31666922614709 14.152290748742935 L32.68634592662791 14.764975185111009 L30.00000000000002 14.529950370222027 z"/>
<path fill="black" d="M34.07658440334033 55.695531891842826 L40.566240396041444 48.30126521093035 L43.58369681508954 46.1884194800936 z"/>
<path fill="black" d="M33.9875760102543 55.703319117196514 L40.566240396041444 48.30126521093035 L34.07658440334033 55.695531891842826 z"/>
<path fill="black" d="M30.000000000000057 56.05218681304169 L40.566240396041444 48.30126521093035 L33.9875760102543 55.703319117196514 z"/>
<path fill="black" d="M40.566240396041444 48.30126521093035 L30.000000000000057 56.05218681304169 L29.55266963901722 56.013050477604736 z"/>
<path fill="black" d="M36.030736280934406 47.19764774457677 L40.41674453332138 42.75727592392573 L40.59808187562615 42.63030214988501 z"/>
<path fill="black" d="M36.030736280934406 47.19764774457677 L39.269219211441566 43.560781804592494 L40.41674453332138 42.75727592392573 z"/>
<path fill="black" d="M34.79699425578477 47.52822792388396 L39.269219211441566 43.560781804592494 L36.030736280934406 47.19764774457677 z"/>
<path fill="black" d="M33.16767922019731 47.9648015718855 L39.269219211441566 43.560781804592494 L34.79699425578477 47.52822792388396 z"/>
<path fill="black" d="M33.109745699173764 47.96987009821321 L39.269219211441566 43.560781804592494 L33.1676792201973 47.9648015718855 z"/>
<path fill="black" d="M39.269219211441566 43.560781804592494 L33.109745699173764 47.96987009821321 L32.952775654832664 47.98360319760621 z"/>
<path fill="black" d="M36.239110110211804 47.14181414529811 L36.23911011021177 47.14181414529813 L36.2391101102118 47.14181414529811 z"/>
<path fill="black" d="M34.31666922614709 14.152290748742935 L32.55308124907475 13.735677173425572 L32.86305706073711 13.762796542913275 z"/>
<path fill="black" d="M34.31666922614709 14.152290748742935 L31.499163489422738 13.643471317167382 L32.55308124907475 13.735677173425572 z"/>
<path fill="black" d="M30.00000000000002 14.529950370222027 L31.499163489422738 13.643471317167382 L34.31666922614709 14.152290748742935 z"/>
<path fill="black" d="M31.499163489422738 13.643471317167382 L30.00000000000002 14.529950370222027 L27.313654073372074 14.764975185111016 z"/>
<path fill="black" d="M28.047437695074436 50.961653725573726 L34.79699425578477 47.52822792388396 L36.23911011021177 47.14181414529813 z"/>
<path fill="black" d="M28.047437695074436 50.961653725573726 L33.16767922019732 47.9648015718855 L34.79699425578477 47.52822792388396 z"/>
<path fill="black" d="M27.168630287018765 50.88476803994625 L33.16767922019732 47.9648015718855 L28.047437695074436 50.961653725573726 z"/>
<path fill="black" d="M26.33038322087335 50.81143092442466 L33.16767922019732 47.9648015718855 L27.168630287018765 50.88476803994625 z"/>
<path fill="black" d="M33.16767922019732 47.9648015718855 L26.33038322087335 50.81143092442466 L24.437148533538817 50.304140218870785 z"/>
<path fill="black" d="M34.95765321864758 4.459824312156684 L32.89188728472956 4.200820540566914 L34.5239147643232 4.343604443594145 z"/>
<path fill="black" d="M34.95765321864758 4.459824312156684 L30.447330360982804 3.986949522395266 L32.89188728472956 4.200820540566914 z"/>
<path fill="black" d="M22.7722658906649 10.141963740779875 L30.447330360982804 3.986949522395266 L34.95765321864758 4.459824312156684 z"/>
<path fill="black" d="M21.210141695750618 10.870394215857615 L30.447330360982804 3.986949522395266 L22.7722658906649 10.141963740779875 z"/>
<path fill="black" d="M30.447330360982804 3.986949522395266 L21.210141695750618 10.870394215857615 L19.433759603958656 11.698734789069604 z"/>
<path fill="black" d="M28.63610642868558 13.63163673281683 L25.814490583949333 14.117146583548182 L27.136942939262862 13.762796542913286 z"/>
<path fill="black" d="M24.708931408368155 15.462908519705858 L25.814490583949333 14.117146583548182 L28.63610642868558 13.63163673281683 z"/>
<path fill="black" d="M25.814490583949333 14.117146583548182 L24.708931408368155 15.462908519705858 L22.264975185110995 16.60254402280624 z"/>
<path fill="black" d="M27.13694293926291 46.23720345708672 L27.13694293926288 46.23720345708672 L27.136942939262887 46.23720345708672 z"/>
<path fill="black" d="M20.634651885591826 16.50652837790455 L18.433815809695254 18.33780016479359 L19.40191812437387 17.369697850114974 z"/>
<path fill="black" d="M18.149254446333785 20.056043776742886 L18.433815809695254 18.33780016479359 L20.634651885591826 16.50652837790455 z"/>
<path fill="black" d="M18.433815809695254 18.33780016479359 L18.149254446333785 20.056043776742886 L16.602544022806214 22.264975185111044 z"/>
<path fill="black" d="M32.46295836766288 0.2154809359068146 L27.253513037654944 0.2402864737269539 L30.000000000000103 3.552713678800501e-15 z"/>
<path fill="black" d="M17.380874217692778 7.248372275975999 L27.253513037654944 0.2402864737269539 L32.46295836766288 0.2154809359068146 z"/>
<path fill="black" d="M27.253513037654944 0.2402864737269539 L17.380874217692778 7.248372275975999 L16.973906593479114 7.438144395767978 z"/>
<path fill="black" d="M17.380874217692778 7.248372275975999 L13.62180840011446 9.785308819581058 L16.973906593479114 7.438144395767978 z"/>
<path fill="black" d="M10.970304313991878 20.995883798872875 L13.62180840011446 9.785308819581058 L17.380874217692778 7.248372275975999 z"/>
<path fill="black" d="M13.62180840011446 9.785308819581058 L10.970304313991878 20.995883798872875 L10.14196374077991 22.772265890664794 z"/>
<path fill="black" d="M17.828204578675695 47.17704347921679 L26.623946950525323 47.90896797260684 L26.832320779802792 47.964801571885516 z"/>
<path fill="black" d="M17.828204578675695 47.17704347921679 L26.245594242301678 47.807588669984185 L26.623946950525323 47.90896797260684 z"/>
<path fill="black" d="M16.41630318491041 46.18841948009354 L26.245594242301678 47.807588669984185 L17.828204578675695 47.17704347921679 z"/>
<path fill="black" d="M26.245594242301678 47.807588669984185 L16.41630318491041 46.18841948009354 L15.030359203129684 44.802475498312816 z"/>
<path fill="black" d="M26.623946950525323 47.90896797260684 L31.11591292198454 46.390058762773336 L32.86305706073717 46.237203457086714 z"/>
<path fill="black" d="M26.245594242301678 47.807588669984185 L31.11591292198454 46.390058762773336 L26.623946950525323 47.90896797260684 z"/>
<path fill="black" d="M23.760889889788153 47.141814145298085 L31.11591292198454 46.390058762773336 L26.245594242301678 47.807588669984185 z"/>
<path fill="black" d="M31.11591292198454 46.390058762773336 L23.760889889788153 47.141814145298085 L23.56537712995822 47.05064504812237 z"/>
<path fill="black" d="M12.035198428114505 33.16767922019728 L17.369697850114974 40.59808187562613 L12.802352255423237 36.03073628093439 z"/>
<path fill="black" d="M17.369697850114974 40.59808187562613 L12.035198428114505 33.16767922019728 L12.016396802393796 32.95277565483265 z"/>
<path fill="black" d="M14.76497518511102 32.68634592662791 L15.227883704816884 32.60472266500396 L15.904610688211378 35.13030214988502 z"/>
<path fill="black" d="M15.227883704816884 32.60472266500396 L14.76497518511102 32.68634592662791 L14.529950370222032 30.000000000000004 z"/>
<path fill="black" d="M15.904610688211378 35.13030214988502 L15.227883704816884 32.60472266500396 L15.227883704816886 32.604722665003955 z"/>
<path fill="black" d="M17.00961894323342 37.499999999999986 L15.462908519705875 35.291068591631884 L14.76497518511102 32.68634592662791 z"/>
<path fill="black" d="M15.46290851970588 24.7089314083681 L15.000000000000007 30.000000000000018 L14.76497518511102 27.31365407337209 z"/>
<path fill="black" d="M15.46290851970588 24.7089314083681 L15.721242915439085 21.75615575353544 L16.584412387649508 20.523421992317484 z"/>
<path fill="black" d="M15.46290851970588 24.7089314083681 L15.142634806590113 22.996984847225008 L15.721242915439085 21.75615575353544 z"/>
<path fill="black" d="M15.142634806590113 22.996984847225008 L15.46290851970588 24.7089314083681 L14.76497518511102 27.31365407337209 z"/>
<path fill="black" d="M15.721242915439085 21.756155753535438 L15.721242915439085 21.75615575353544 L15.721242915439081 21.756155753535445 z"/>
<path fill="black" d="M16.602544022806214 22.264975185111044 L15.227883704816893 27.395277334996017 L15.46290851970588 24.7089314083681 z"/>
<path fill="black" d="M14.529950370222032 30.000000000000004 L14.506640789377823 24.36087841853944 L15.142634806590113 22.996984847225008 z"/>
<path fill="black" d="M14.506640789377823 24.36087841853944 L14.529950370222032 30.000000000000004 L14.152290748742935 25.683330773852937 z"/>
<path fill="black" d="M14.506640789377824 35.639121581460564 L12.035198428114487 26.832320779802814 L12.09103202739318 26.6239469505253 z"/>
<path fill="black" d="M12.035198428114487 26.832320779802814 L14.506640789377824 35.639121581460564 L11.776864032381305 29.78509643463539 z"/>
<path fill="black" d="M12.016396802393796 32.95277565483265 L10.970304313991878 20.995883798872875 L11.885144661287232 31.452556817135175 z"/>
<path fill="black" d="M12.016396802393796 32.95277565483265 L10.14196374077991 22.772265890664794 L10.970304313991878 20.995883798872875 z"/>
<path fill="black" d="M12.035198428114505 33.16767922019728 L10.14196374077991 22.772265890664794 L12.016396802393796 32.95277565483265 z"/>
<path fill="black" d="M12.035198428114505 33.16767922019728 L10.039016673168216 23.15646957748187 L10.14196374077991 22.772265890664794 z"/>
<path fill="black" d="M10.039016673168216 23.15646957748187 L12.035198428114505 33.16767922019728 L9.69585978112923 24.437148533538803 z"/>
<path fill="black" d="M14.110849532742 38.92545603683976 L9.038346274426274 28.047437695074425 L12.858185854701908 36.23911011021183 z"/>
<path fill="black" d="M9.017742009066298 31.717054474201035 L14.110849532742 38.92545603683976 L14.20201862991774 39.12096879666974 z"/>
<path fill="black" d="M9.017742009066298 31.717054474201035 L9.038346274426274 28.047437695074425 L14.110849532742 38.92545603683976 z"/>
<path fill="black" d="M9.038346274426274 28.047437695074425 L9.017742009066298 31.717054474201035 L8.86751920791724 29.999999999999986 z"/>
<path fill="black" d="M14.117146583548186 34.18550941605066 L15.730299128775087 35.86448960326007 L16.602544022806217 37.735024814888966 z"/>
<path fill="black" d="M13.7627965429133 32.86305706073716 L15.730299128775087 35.86448960326007 L14.117146583548186 34.18550941605066 z"/>
<path fill="black" d="M15.730299128775087 35.86448960326007 L13.7627965429133 32.86305706073716 L13.631636732816844 31.363893571314463 z"/>
<path fill="black" d="M10.870394215857644 38.78985830424942 L18.121768308327557 43.82159469510205 L18.274308538326338 43.97413492510083 z"/>
<path fill="black" d="M10.870394215857644 38.78985830424942 L16.02586507489917 41.725691461673655 L18.121768308327557 43.82159469510205 z"/>
<path fill="black" d="M10.141963740779907 37.227734109335145 L16.02586507489917 41.725691461673655 L10.870394215857644 38.78985830424942 z"/>
<path fill="black" d="M16.02586507489917 41.725691461673655 L10.141963740779907 37.227734109335145 L9.63467303522599 35.33449942200047 z"/>
<path fill="black" d="M15.030359203129684 44.802475498312816 L23.565377129958215 47.05064504812237 L23.760889889788153 47.141814145298085 z"/>
<path fill="black" d="M15.030359203129684 44.802475498312816 L21.731560592783495 46.19552235318651 L23.565377129958215 47.05064504812237 z"/>
<path fill="black" d="M15.030359203129684 44.802475498312816 L20.879031203330303 45.79798137008228 L21.731560592783495 46.19552235318651 z"/>
<path fill="black" d="M15.030359203129684 44.802475498312816 L20.879031203330292 45.79798137008228 L20.879031203330303 45.79798137008228 z"/>
<path fill="black" d="M13.811580519906443 43.58369681508958 L20.879031203330292 45.79798137008228 L15.030359203129684 44.802475498312816 z"/>
<path fill="black" d="M20.879031203330292 45.79798137008228 L13.811580519906443 43.58369681508958 L12.687358788192853 41.97814178980664 z"/>
<path fill="black" d="M50.648429634743486 24.46726995439962 L48.301265210930424 19.43375960395869 L50.48032043200442 22.545772974516495 z"/>
<path fill="black" d="M47.9648015718855 33.16767922019726 L47.9648015718855 26.83232077980268 L48.24193759333941 30.00000000000002 z"/>
<path fill="black" d="M47.9648015718855 33.16767922019726 L47.14181414529811 23.76088988978817 L47.9648015718855 26.83232077980268 z"/>
<path fill="black" d="M47.14181414529808 36.239110110211904 L47.14181414529811 23.76088988978817 L47.9648015718855 33.16767922019726 z"/>
<path fill="black" d="M47.05064504812238 36.4346228700418 L47.14181414529811 23.76088988978817 L47.14181414529808 36.239110110211904 z"/>
<path fill="black" d="M46.04559949105172 24.946899586066323 L47.14181414529811 23.76088988978817 L47.05064504812238 36.4346228700418 z"/>
<path fill="black" d="M46.04559949105172 24.946899586066323 L45.7979813700823 20.879031203330292 L47.14181414529811 23.76088988978817 z"/>
<path fill="black" d="M45.69491325842965 20.938537605337807 L45.7979813700823 20.879031203330292 L46.04559949105172 24.946899586066323 z"/>
<path fill="black" d="M45.7979813700823 20.879031203330292 L45.69491325842965 20.938537605337807 L45.67424690189341 20.702320069221038 z"/>
<path fill="black" d="M48.30126521093042 40.56624039604133 L48.24193759333941 30.00000000000002 L49.02969568600813 39.004116201127104 z"/>
<path fill="black" d="M48.30126521093042 40.56624039604133 L47.964801571885516 33.16767922019724 L48.24193759333941 30.00000000000002 z"/>
<path fill="black" d="M47.964801571885516 33.16767922019724 L48.30126521093042 40.56624039604133 L47.17704347921679 42.171795421324305 z"/>
<path fill="black" d="M47.141814145298106 23.76088988978816 L47.678981038146105 23.5653771299582 L47.82409592623729 25.224047890749837 z"/>
<path fill="black" d="M47.678981038146105 23.5653771299582 L47.141814145298106 23.76088988978816 L45.7979813700823 20.879031203330292 z"/>
<path fill="black" d="M47.9648015718855 26.83232077980268 L47.14181414529811 23.76088988978817 L47.82409592623729 25.224047890749837 z"/>
<path fill="black" d="M45.79798137008229 20.879031203330275 L47.52689910868477 21.827072721910277 L47.678981038146105 23.5653771299582 z"/>
<path fill="black" d="M45.67424690189341 20.70232006922103 L47.52689910868477 21.827072721910277 L45.79798137008229 20.879031203330275 z"/>
<path fill="black" d="M44.09786939328973 18.451019672435574 L47.52689910868477 21.827072721910277 L45.67424690189341 20.70232006922103 z"/>
<path fill="black" d="M47.52689910868477 21.827072721910277 L44.09786939328973 18.451019672435574 L43.974134925100884 18.27430853832639 z"/>
<path fill="black" d="M44.802475498312816 44.96964079687032 L45.797981370082326 39.12096879666965 L47.14181414529808 36.239110110211904 z"/>
<path fill="black" d="M43.58369681508954 46.1884194800936 L45.797981370082326 39.12096879666965 L44.802475498312816 44.96964079687032 z"/>
<path fill="black" d="M45.797981370082326 39.12096879666965 L43.58369681508954 46.1884194800936 L41.97814178980664 47.31264121180716 z"/>
<path fill="black" d="M44.27875708456094 21.756155753535463 L45.84141220045089 22.613028174939718 L45.97886906135352 24.184167284430185 z"/>
<path fill="black" d="M43.493471622095456 20.634651885591822 L45.84141220045089 22.613028174939718 L44.27875708456094 21.756155753535463 z"/>
<path fill="black" d="M45.84141220045089 22.613028174939718 L43.493471622095456 20.634651885591822 L42.630302149885004 19.40191812437383 z"/>
<path fill="black" d="M46.110028871449984 25.683330773852926 L45.97886906135352 24.184167284430185 L46.04559949105172 24.946899586066323 z"/>
<path fill="black" d="M45.97886906135352 24.184167284430185 L46.110028871449984 25.683330773852926 L44.27875708456094 21.756155753535463 z"/>
<path fill="black" d="M44.09786939328972 18.45101967243557 L41.87823169167244 16.17840530489795 L43.974134925100884 18.27430853832639 z"/>
<path fill="black" d="M37.00301515277501 15.142634806590102 L41.87823169167244 16.17840530489795 L44.09786939328972 18.45101967243557 z"/>
<path fill="black" d="M41.87823169167244 16.17840530489795 L37.00301515277501 15.142634806590102 L35.63912158146063 14.506640789377833 z"/>
<path fill="black" d="M47.52689910868477 21.827072721910277 L41.72569146167366 16.02586507489917 L47.36481304313425 19.974420515118933 z"/>
<path fill="black" d="M39.297679930778926 14.325753098106576 L37.384341126930444 13.392215848154418 L39.120968796669686 14.202018629917692 z"/>
<path fill="black" d="M39.297679930778926 14.325753098106576 L36.4346228700418 12.94935495187763 L37.384341126930444 13.392215848154418 z"/>
<path fill="black" d="M32.55308124907475 13.735677173425572 L36.4346228700418 12.94935495187763 L39.297679930778926 14.325753098106576 z"/>
<path fill="black" d="M36.4346228700418 12.94935495187763 L32.55308124907475 13.735677173425572 L30.000000000000036 13.51231150707093 z"/>
<path fill="black" d="M39.4765780076825 16.584412387649486 L37.00301515277501 15.142634806590102 L38.24384424646449 15.721242915439031 z"/>
<path fill="black" d="M35.29106859163188 15.462908519705863 L37.00301515277501 15.142634806590102 L39.4765780076825 16.584412387649486 z"/>
<path fill="black" d="M37.00301515277501 15.142634806590102 L35.29106859163188 15.462908519705863 L32.68634592662791 14.764975185111009 z"/>
<path fill="black" d="M39.269219211441566 43.560781804592494 L41.85074555366622 39.94395622325712 L39.36534811440818 43.493471622095456 z"/>
<path fill="black" d="M38.243844246464505 44.27875708456096 L41.85074555366622 39.94395622325712 L39.269219211441566 43.560781804592494 z"/>
<path fill="black" d="M41.85074555366622 39.94395622325712 L38.243844246464505 44.27875708456096 L36.87995067515012 44.91475110177323 z"/>
<path fill="black" d="M32.952775654832664 47.98360319760621 L36.87995067515012 44.91475110177323 L38.243844246464505 44.27875708456096 z"/>
<path fill="black" d="M32.952775654832664 47.98360319760621 L35.639121581460586 45.49335921062218 L36.87995067515012 44.91475110177323 z"/>
<path fill="black" d="M29.999999999999968 48.24193759333941 L35.639121581460586 45.49335921062218 L32.952775654832664 47.98360319760621 z"/>
<path fill="black" d="M35.639121581460586 45.49335921062218 L29.999999999999968 48.24193759333941 L29.785096434635395 48.2231359676187 z"/>
<path fill="black" d="M36.4346228700418 12.94935495187763 L33.37605304947469 12.091032027393172 L36.23911011021192 12.858185854701937 z"/>
<path fill="black" d="M30.000000000000036 13.51231150707093 L33.37605304947469 12.091032027393172 L36.4346228700418 12.94935495187763 z"/>
<path fill="black" d="M28.636106428685583 13.63163673281683 L33.37605304947469 12.091032027393172 L30.000000000000036 13.51231150707093 z"/>
<path fill="black" d="M33.37605304947469 12.091032027393172 L28.636106428685583 13.63163673281683 L27.136942939262862 13.762796542913286 z"/>
<path fill="black" d="M36.87995067515012 44.91475110177323 L37.73502481488899 43.39745597719377 L39.943956223257125 41.850745553666215 z"/>
<path fill="black" d="M35.639121581460586 45.49335921062218 L37.73502481488899 43.39745597719377 L36.87995067515012 44.91475110177323 z"/>
<path fill="black" d="M37.73502481488899 43.39745597719377 L35.639121581460586 45.49335921062218 L34.18550941605065 45.88285341645183 z"/>
<path fill="black" d="M39.6418141452981 41.49066664678467 L37.735024814889 43.39745597719377 L35.291068591631884 44.53709148029413 z"/>
<path fill="black" d="M37.597567953986385 1.0956629381552823 L37.597567953986385 1.0956629381552787 L40.26060429977005 1.8092213764227374 z"/>
<path fill="black" d="M41.85074555366621 20.05604377674286 L37.50000000000002 17.00961894323343 L39.943956223257146 18.1492544463338 z"/>
<path fill="black" d="M33.37605304947469 12.091032027393172 L30.214903565364597 11.776864032381308 L33.16767922019724 12.035198428114498 z"/>
<path fill="black" d="M25.814490583949333 14.117146583548182 L30.214903565364597 11.776864032381308 L33.37605304947469 12.091032027393172 z"/>
<path fill="black" d="M30.214903565364597 11.776864032381308 L25.814490583949333 14.117146583548182 L24.36087841853942 14.506640789377824 z"/>
<path fill="black" d="M23.969263719065594 12.80235225542324 L21.07454396316025 14.110849532741993 L23.760889889788196 12.858185854701901 z"/>
<path fill="black" d="M18.433815809695254 18.33780016479359 L21.07454396316025 14.110849532741993 L23.969263719065594 12.80235225542324 z"/>
<path fill="black" d="M21.07454396316025 14.110849532741993 L18.433815809695254 18.33780016479359 L17.369697850114967 19.401918124373882 z"/>
<path fill="black" d="M24.437148533538817 50.304140218870785 L33.109745699173764 47.96987009821321 L33.1676792201973 47.9648015718855 z"/>
<path fill="black" d="M24.437148533538817 50.304140218870785 L29.999999999999968 48.24193759333941 L33.109745699173764 47.96987009821321 z"/>
<path fill="black" d="M22.772265890665043 49.858036259220164 L29.999999999999968 48.24193759333941 L24.437148533538817 50.304140218870785 z"/>
<path fill="black" d="M29.999999999999968 48.24193759333941 L22.772265890665043 49.858036259220164 L20.995883798872974 49.029695686008125 z"/>
<path fill="black" d="M24.708931408368155 15.462908519705858 L22.500000000000032 17.009618943233406 L22.264975185110995 16.60254402280624 z"/>
<path fill="black" d="M25.814490583949333 14.117146583548182 L23.120049324849894 15.085248898226777 L24.36087841853942 14.506640789377824 z"/>
<path fill="black" d="M22.264975185110995 16.60254402280624 L23.120049324849894 15.085248898226777 L25.814490583949333 14.117146583548182 z"/>
<path fill="black" d="M23.120049324849894 15.085248898226777 L22.264975185110995 16.60254402280624 L20.056043776742897 18.149254446333778 z"/>
<path fill="black" d="M21.07454396316025 14.110849532741993 L18.99057779041219 15.52432794520082 L20.879031203330236 14.202018629917749 z"/>
<path fill="black" d="M21.07454396316025 14.110849532741993 L18.451019672435603 15.902130606710267 L18.99057779041219 15.52432794520082 z"/>
<path fill="black" d="M18.451019672435603 15.902130606710267 L21.07454396316025 14.110849532741993 L15.721242915439085 21.756155753535438 z"/>
<path fill="black" d="M20.092762959025784 48.60857364755188 L29.999999999999968 48.24193759333941 L20.995883798872974 49.029695686008125 z"/>
<path fill="black" d="M19.433742396515946 48.30128241837287 L29.999999999999968 48.24193759333941 L20.092762959025784 48.60857364755188 z"/>
<path fill="black" d="M29.999999999999968 48.24193759333941 L19.433742396515946 48.30128241837287 L17.828204578675695 47.17704347921679 z"/>
<path fill="black" d="M30.00000000000002 14.529950370222027 L27.395277334996067 15.227883704816877 L27.313654073372074 14.764975185111016 z"/>
<path fill="black" d="M30.447330360982804 3.986949522395266 L27.697928807525464 4.149218318929439 L30.000000000000007 3.9478131869583106 z"/>
<path fill="black" d="M30.447330360982804 3.986949522395266 L25.92341559665968 4.3044681081571845 L27.697928807525464 4.149218318929439 z"/>
<path fill="black" d="M18.02185821019335 12.687358788192867 L25.92341559665968 4.3044681081571845 L30.447330360982804 3.986949522395266 z"/>
<path fill="black" d="M25.92341559665968 4.3044681081571845 L18.02185821019335 12.687358788192867 L16.41630318491042 13.81158051990646 z"/>
<path fill="black" d="M18.02185821019335 12.687358788192867 L15.1975245016872 15.03035920312968 L16.41630318491042 13.81158051990646 z"/>
<path fill="black" d="M14.202018629917708 20.879031203330314 L15.1975245016872 15.03035920312968 L18.02185821019335 12.687358788192867 z"/>
<path fill="black" d="M14.096531162293282 21.10524980767792 L15.1975245016872 15.03035920312968 L14.202018629917708 20.879031203330314 z"/>
<path fill="black" d="M15.1975245016872 15.03035920312968 L14.096531162293282 21.10524980767792 L12.858185854701937 23.760889889788103 z"/>
<path fill="black" d="M31.11591292198454 46.390058762773336 L35.291068591631884 44.53709148029413 L31.363893571314435 46.36836326718317 z"/>
<path fill="black" d="M30.000000000000014 46.48768849292907 L35.291068591631884 44.53709148029413 L31.11591292198454 46.390058762773336 z"/>
<path fill="black" d="M35.291068591631884 44.53709148029413 L30.000000000000014 46.48768849292907 L28.500836510577297 46.35652868283262 z"/>
<path fill="black" d="M37.597567953986385 1.0956629381552805 L32.46295836766288 0.2154809359068146 L35.209445330007895 0.4557674096337543 z"/>
<path fill="black" d="M25.925302402559595 4.223237066501704 L32.46295836766288 0.2154809359068146 L37.597567953986385 1.0956629381552805 z"/>
<path fill="black" d="M21.523365786580825 5.402732427886203 L32.46295836766288 0.2154809359068146 L25.925302402559595 4.223237066501704 z"/>
<path fill="black" d="M32.46295836766288 0.2154809359068146 L21.523365786580825 5.402732427886203 L21.089627332256512 5.518952296448727 z"/>
<path fill="black" d="M21.210141695750615 10.870394215857619 L18.02185821019335 12.687358788192867 L19.433759603958656 11.698734789069604 z"/>
<path fill="black" d="M18.02185821019335 12.687358788192867 L21.210141695750615 10.870394215857619 L14.202018629917713 20.879031203330303 z"/>
<path fill="black" d="M14.325753098106581 20.70232006922108 L14.096531162293282 21.10524980767792 L14.20201862991771 20.87903120333031 z"/>
<path fill="black" d="M13.762796542913286 27.136942939262873 L14.096531162293282 21.10524980767792 L14.325753098106581 20.70232006922108 z"/>
<path fill="black" d="M13.683246392416024 28.046205320139137 L14.096531162293282 21.10524980767792 L13.762796542913286 27.136942939262873 z"/>
<path fill="black" d="M13.51231150707094 29.99999999999998 L14.096531162293282 21.10524980767792 L13.683246392416024 28.046205320139137 z"/>
<path fill="black" d="M14.096531162293282 21.10524980767792 L13.51231150707094 29.99999999999998 L12.949354951877638 23.565377129958208 z"/>
<path fill="black" d="M14.202018629917713 20.879031203330303 L14.20201862991771 20.87903120333031 L14.202018629917708 20.879031203330314 z"/>
<path fill="black" d="M11.69873478906965 40.56624039604142 L20.879031203330292 45.79798137008228 L12.687358788192853 41.97814178980664 z"/>
<path fill="black" d="M20.879031203330292 45.79798137008228 L11.69873478906965 40.56624039604142 L10.870394215857644 38.78985830424942 z"/>
<path fill="black" d="M11.758062406660603 29.99999999999995 L11.698734789069572 19.433759603958695 L12.822956520783205 17.828204578675702 z"/>
<path fill="black" d="M11.698734789069572 19.433759603958695 L11.758062406660603 29.99999999999995 L10.970304313991878 20.995883798872875 z"/>
<path fill="black" d="M9.038346274426274 28.047437695074425 L10.042867060771812 13.253977111337857 L10.360385646533775 12.936458525575894 z"/>
<path fill="black" d="M9.038346274426274 28.047437695074425 L8.999682872410467 14.743798530611 L10.042867060771812 13.253977111337857 z"/>
<path fill="black" d="M8.86751920791724 29.999999999999986 L8.999682872410467 14.743798530611 L9.038346274426274 28.047437695074425 z"/>
<path fill="black" d="M8.999682872410467 14.743798530611 L8.86751920791724 29.999999999999986 L7.695702636958789 16.60607530470243 z"/>
<path fill="black" d="M9.017742009066296 31.71705447420103 L7.695702636958789 16.60607530470243 L8.86751920791724 29.999999999999986 z"/>
<path fill="black" d="M9.017742009066296 31.71705447420103 L7.438144395767996 16.973906593479064 L7.695702636958789 16.60607530470243 z"/>
<path fill="black" d="M9.18856907557533 33.66961677912656 L7.438144395767996 16.973906593479064 L9.017742009066296 31.71705447420103 z"/>
<path fill="black" d="M7.438144395767996 16.973906593479064 L9.18856907557533 33.66961677912656 L5.708724416240749 20.682659708042742 z"/>
<path fill="black" d="M10.14196374077991 37.22773410933516 L4.343604443594163 25.476085235676823 L4.459824312156703 25.04234678135245 z"/>
<path fill="black" d="M11.69873478906965 40.56624039604142 L4.343604443594163 25.476085235676823 L10.14196374077991 37.22773410933516 z"/>
<path fill="black" d="M11.69873478906965 40.56624039604142 L4.070618763229913 28.596325840145063 L4.343604443594163 25.476085235676823 z"/>
<path fill="black" d="M4.070618763229913 28.596325840145063 L11.69873478906965 40.56624039604142 L3.9869495223952818 29.552669639017218 z"/>
<path fill="black" d="M14.506640789377823 24.360878418539443 L16.025865074899194 18.274308538326316 L16.178405304897957 18.121768308327553 z"/>
<path fill="black" d="M14.506640789377823 24.360878418539443 L14.325753098106581 20.70232006922108 L16.025865074899194 18.274308538326316 z"/>
<path fill="black" d="M14.152290748742935 25.683330773852937 L14.325753098106581 20.70232006922108 L14.506640789377823 24.360878418539443 z"/>
<path fill="black" d="M14.325753098106581 20.70232006922108 L14.152290748742935 25.683330773852937 L13.762796542913286 27.136942939262866 z"/>
<path fill="black" d="M21.523365786580825 5.402732427886203 L17.380874217692778 7.248372275975999 L21.089627332256512 5.518952296448727 z"/>
<path fill="black" d="M17.380874217692778 7.248372275975999 L21.523365786580825 5.402732427886203 L11.698734789069572 19.433759603958695 z"/>
<path fill="black" d="M16.606075304702436 52.30429736304121 L28.047437695074432 50.961653725573726 L30.000000000000014 51.13248079208276 z"/>
<path fill="black" d="M16.606075304702436 52.30429736304121 L27.168630287018765 50.88476803994625 L28.047437695074432 50.961653725573726 z"/>
<path fill="black" d="M13.253977111337779 49.957132939228124 L27.168630287018765 50.88476803994625 L16.606075304702436 52.30429736304121 z"/>
<path fill="black" d="M27.168630287018765 50.88476803994625 L13.253977111337779 49.957132939228124 L12.936458525575883 49.63961435346623 z"/>
<path fill="black" d="M28.282945525798972 9.017742009066293 L24.665500577999516 9.634673035225976 L26.330383220873394 9.188569075575327 z"/>
<path fill="black" d="M20.87903120333023 14.202018629917749 L24.665500577999516 9.634673035225976 L28.282945525798972 9.017742009066293 z"/>
<path fill="black" d="M18.99057779041219 15.52432794520082 L24.665500577999516 9.634673035225976 L20.87903120333023 14.202018629917749 z"/>
<path fill="black" d="M24.665500577999516 9.634673035225976 L18.99057779041219 15.52432794520082 L18.274308538326363 16.025865074899144 z"/>
<path fill="black" d="M46.18841948009353 43.58369681508961 L47.9648015718855 33.16767922019726 L47.17704347921679 42.171795421324305 z"/>
<path fill="black" d="M47.9648015718855 33.16767922019726 L46.18841948009353 43.58369681508961 L44.802475498312816 44.96964079687032 z"/>
<path fill="black" d="M47.18893935736883 17.964175088140777 L46.18841948009348 16.416303184910312 L47.17704347921679 17.828204578675695 z"/>
<path fill="black" d="M47.18893935736883 17.964175088140777 L44.96964079687037 15.197524501687205 L46.18841948009348 16.416303184910312 z"/>
<path fill="black" d="M39.12096879666967 14.202018629917687 L44.96964079687037 15.197524501687205 L47.18893935736883 17.964175088140777 z"/>
<path fill="black" d="M37.384341126930444 13.392215848154418 L44.96964079687037 15.197524501687205 L39.12096879666967 14.202018629917687 z"/>
<path fill="black" d="M44.96964079687037 15.197524501687205 L37.384341126930444 13.392215848154418 L36.23911011021192 12.858185854701937 z"/>
<path fill="black" d="M47.36481304313425 19.974420515118933 L39.120968796669686 14.202018629917692 L47.18893935736883 17.964175088140777 z"/>
<path fill="black" d="M50.64842963474349 24.467269954399637 L50.64842963474348 24.46726995439962 L50.648429634743486 24.46726995439962 z"/>
<path fill="black" d="M55.24820153085996 20.81040617401257 L49.95713293922803 13.253977111337624 L55.03100602643825 18.32785019854782 z"/>
<path fill="black" d="M46.18841948009347 16.4163031849103 L50.11637065495334 18.38580798724442 L50.3041402188708 20.532023923687632 z"/>
<path fill="black" d="M44.96964079687037 15.197524501687205 L50.11637065495334 18.38580798724442 L46.18841948009347 16.4163031849103 z"/>
<path fill="black" d="M50.11637065495334 18.38580798724442 L44.96964079687037 15.197524501687205 L43.583696815089716 13.81158051990655 z"/>
<path fill="black" d="M50.48032043200442 22.545772974516495 L46.18841948009348 16.416303184910312 L50.3041402188708 20.532023923687632 z"/>
<path fill="black" d="M50.11637065495334 18.38580798724442 L40.56624039604132 11.698734789069594 L49.912628740627994 16.057027250240967 z"/>
<path fill="black" d="M40.56624039604132 11.69873478906959 L49.68720919271111 13.480470027486174 L49.912628740627994 16.057027250240967 z"/>
<path fill="black" d="M40.11991919749439 11.490611796190239 L49.68720919271111 13.480470027486174 L40.56624039604132 11.69873478906959 z"/>
<path fill="black" d="M49.68720919271111 13.480470027486174 L40.11991919749439 11.490611796190239 L37.2277341093351 10.141963740779875 z"/>
<path fill="black" d="M4.304468108157163 34.07658440334031 L2.8540885957276068 17.49867071741711 L3.9788266583669065 30.35448560029066 z"/>
<path fill="black" d="M4.304468108157163 34.07658440334031 L1.809221376422748 19.739395700229966 L2.8540885957276068 17.49867071741711 z"/>
<path fill="black" d="M4.34360444359411 34.52391476432301 L1.809221376422748 19.739395700229966 L4.304468108157163 34.07658440334031 z"/>
<path fill="black" d="M1.809221376422748 19.739395700229966 L4.34360444359411 34.52391476432301 L1.0956629381553 22.402432046013594 z"/>
<path fill="black" d="M4.304468108157165 34.07658440334031 L3.9869495223952818 29.552669639017218 L13.811580519906437 43.58369681508957 z"/>
<path fill="black" d="M3.9788266583669065 30.35448560029066 L3.9869495223952818 29.552669639017218 L4.304468108157165 34.07658440334031 z"/>
<path fill="black" d="M3.9869495223952818 29.552669639017218 L3.9788266583669065 30.35448560029066 L3.94781318695831 30.000000000000217 z"/>
<path fill="black" d="M5.518952296448802 38.91037266774372 L5.45121403173415 38.722176006219534 L5.458040457171524 38.715349580782174 z"/>
<path fill="black" d="M4.972405200883033 37.738298638918536 L5.402732427886217 38.47663421341919 L5.45121403173415 38.722176006219534 z"/>
<path fill="black" d="M4.972405200883033 37.738298638918536 L4.546957016578194 35.282836898549476 L5.402732427886217 38.47663421341919 z"/>
<path fill="black" d="M4.972405200883033 37.738298638918536 L1.0956629381553 22.402432046013597 L4.546957016578194 35.282836898549476 z"/>
<path fill="black" d="M4.972405200883033 37.738298638918536 L0.4557674096337685 24.790554669992087 L1.0956629381553 22.402432046013597 z"/>
<path fill="black" d="M0.21548093590681816 27.537041632337214 L0.4557674096337685 24.790554669992087 L4.972405200883033 37.738298638918536 z"/>
<path fill="black" d="M0.21548093590681816 27.537041632337214 L0.2154809359068146 27.537041632337214 L0.4557674096337685 24.790554669992087 z"/>
<path fill="black" d="M0.2154809359068146 27.537041632337214 L0.21548093590681816 27.537041632337214 L0.21548093590681766 27.53704163233722 z"/>
<path fill="black" d="M7.438144395767928 43.02609340652085 L5.518952296448802 38.91037266774372 L7.248372275975935 42.61912578230715 z"/>
<path fill="black" d="M0.2402864737269539 32.74648696234511 L5.518952296448802 38.91037266774372 L7.438144395767928 43.02609340652085 z"/>
<path fill="black" d="M0.2402864737269539 32.74648696234511 L4.972405200883033 37.738298638918536 L5.518952296448802 38.91037266774372 z"/>
<path fill="black" d="M0.2402864737269539 32.74648696234511 L0.21548093590681766 27.53704163233722 L4.972405200883033 37.738298638918536 z"/>
<path fill="black" d="M0.21548093590681766 27.53704163233722 L0.2402864737269539 32.74648696234511 L7.105427357601002e-15 29.999999999999986 z"/>
<path fill="black" d="M5.458040457171524 38.715349580782174 L19.433725189073364 48.30129962581543 L7.2528484348615905 42.6216822037583 z"/>
<path fill="black" d="M19.433725189073364 48.30129962581543 L5.458040457171524 38.715349580782174 L5.402732427886219 38.47663421341919 z"/>
<path fill="black" d="M12.858185854701908 36.23911011021183 L9.18856907557533 26.330383220873408 L9.69585978112923 24.437148533538803 z"/>
<path fill="black" d="M9.18856907557533 26.330383220873408 L12.858185854701908 36.23911011021183 L9.038346274426274 28.047437695074425 z"/>
<path fill="black" d="M9.533051295637492 34.95524192670266 L16.02586507489917 41.725691461673655 L9.63467303522599 35.33449942200047 z"/>
<path fill="black" d="M9.18856907557533 33.66961677912656 L16.02586507489917 41.725691461673655 L9.533051295637492 34.95524192670266 z"/>
<path fill="black" d="M16.02586507489917 41.725691461673655 L9.18856907557533 33.66961677912656 L9.017742009066298 31.717054474201035 z"/>
<path fill="black" d="M5.518952296448777 21.08962733225639 L7.018666706430654 10.716371709403823 L8.766893801887601 8.96814461394689 z"/>
<path fill="black" d="M5.518952296448777 21.08962733225639 L5.437329034824849 12.974755953093872 L7.018666706430654 10.716371709403823 z"/>
<path fill="black" d="M4.459824312156702 25.042346781352446 L5.437329034824849 12.974755953093872 L5.518952296448777 21.08962733225639 z"/>
<path fill="black" d="M5.437329034824849 12.974755953093872 L4.459824312156702 25.042346781352446 L4.343604443594163 25.476085235676823 z"/>
<path fill="black" d="M12.741615756309912 5.600575558072684 L8.766893801887605 8.968144613946887 L10.716371709403841 7.018666706430665 z"/>
<path fill="black" d="M8.766893801887605 8.968144613946887 L12.741615756309912 5.600575558072684 L5.518952296448781 21.089627332256384 z"/>
<path fill="black" d="M17.240724982812885 2.9743706671619634 L12.741615756309912 5.600575558072684 L15.000000000000018 4.019237886466829 z"/>
<path fill="black" d="M8.999682872410467 14.743798530611 L12.741615756309912 5.600575558072684 L17.240724982812885 2.9743706671619634 z"/>
<path fill="black" d="M12.741615756309912 5.600575558072684 L8.999682872410467 14.743798530611 L7.438144395767996 16.973906593479064 z"/>
<path fill="black" d="M10.141963740779907 37.227734109335145 L9.533051295637492 34.95524192670266 L9.63467303522599 35.33449942200047 z"/>
<path fill="black" d="M9.18856907557533 33.669616779126564 L5.518952296448781 21.089627332256384 L5.708724416240749 20.682659708042742 z"/>
<path fill="black" d="M10.141963740779907 37.227734109335145 L5.518952296448781 21.089627332256384 L9.18856907557533 33.669616779126564 z"/>
<path fill="black" d="M5.518952296448781 21.089627332256384 L10.141963740779907 37.227734109335145 L4.459824312156703 25.04234678135245 z"/>
<path fill="black" d="M1.1693258479012272 37.87248167579161 L9.785308819581044 46.378191599885554 L10.042867060771854 46.74602288866221 z"/>
<path fill="black" d="M1.1693258479012272 37.87248167579161 L7.438144395767928 43.02609340652085 L9.785308819581044 46.378191599885554 z"/>
<path fill="black" d="M0.45576740963377205 35.20944533000795 L7.438144395767928 43.02609340652085 L1.1693258479012272 37.87248167579161 z"/>
<path fill="black" d="M7.438144395767928 43.02609340652085 L0.45576740963377205 35.20944533000795 L0.24028647372695744 32.74648696234512 z"/>
<path fill="black" d="M2.9743706671619776 42.759275017187115 L12.93645852557588 49.63961435346623 L13.253977111337779 49.957132939228124 z"/>
<path fill="black" d="M2.9743706671619776 42.759275017187115 L10.042867060771854 46.74602288866221 L12.93645852557588 49.63961435346623 z"/>
<path fill="black" d="M1.8092213764227303 40.26060429977 L10.042867060771854 46.74602288866221 L2.9743706671619776 42.759275017187115 z"/>
<path fill="black" d="M10.042867060771854 46.74602288866221 L1.8092213764227303 40.26060429977 L1.169325847901229 37.87248167579162 z"/>
<path fill="black" d="M10.042867060771854 46.74602288866221 L26.33038322087335 50.81143092442466 L12.936458525575883 49.63961435346623 z"/>
<path fill="black" d="M26.33038322087335 50.81143092442466 L10.042867060771854 46.74602288866221 L9.785308819581047 46.378191599885554 z"/>
<path fill="black" d="M49.68720919271111 13.480470027486174 L49.35234554252196 12.649189714631554 L49.63961435346624 12.936458525575837 z"/>
<path fill="black" d="M49.68720919271111 13.480470027486174 L47.063541474424156 10.36038564653375 L49.35234554252196 12.649189714631554 z"/>
<path fill="black" d="M35.56285146646121 9.695859781129222 L47.063541474424156 10.36038564653375 L49.68720919271111 13.480470027486174 z"/>
<path fill="black" d="M47.063541474424156 10.36038564653375 L35.56285146646121 9.695859781129222 L33.6696167791265 9.188569075575298 z"/>
<path fill="black" d="M50.8114309244247 26.330383220873447 L50.64842963474348 24.46726995439962 L50.78029144668119 25.974457361584435 z"/>
<path fill="black" d="M50.64842963474348 24.46726995439962 L50.8114309244247 26.330383220873447 L49.858036259220135 22.772265890664894 z"/>
<path fill="black" d="M50.81143092442468 33.66961677912665 L51.08624120394217 29.471479089094622 L51.13248079208278 29.999999999999908 z"/>
<path fill="black" d="M50.81143092442468 33.66961677912665 L50.8114309244247 26.330383220873447 L51.08624120394217 29.471479089094622 z"/>
<path fill="black" d="M50.81143092442468 33.66961677912665 L49.858036259220135 22.772265890664894 L50.8114309244247 26.330383220873447 z"/>
<path fill="black" d="M49.85803625922012 37.227734109335145 L49.858036259220135 22.772265890664894 L50.81143092442468 33.66961677912665 z"/>
<path fill="black" d="M49.02969568600813 39.004116201127104 L49.858036259220135 22.772265890664894 L49.85803625922012 37.227734109335145 z"/>
<path fill="black" d="M49.02969568600813 39.004116201127104 L48.301265210930424 19.43375960395869 L49.858036259220135 22.772265890664894 z"/>
<path fill="black" d="M47.18893935736883 17.964175088140777 L48.301265210930424 19.43375960395869 L49.02969568600813 39.004116201127104 z"/>
<path fill="black" d="M48.301265210930424 19.43375960395869 L47.18893935736883 17.964175088140777 L47.17704347921679 17.828204578675695 z"/>
<path fill="black" d="M52.56185560423204 43.0260934065209 L49.95713293922816 46.74602288866221 L52.304297363041236 43.39392469529756 z"/>
<path fill="black" d="M47.25838424369011 54.399424441927316 L49.95713293922816 46.74602288866221 L52.56185560423204 43.0260934065209 z"/>
<path fill="black" d="M44.99999999999998 55.980762113533174 L49.95713293922816 46.74602288866221 L47.25838424369011 54.399424441927316 z"/>
<path fill="black" d="M44.99999999999998 55.980762113533174 L42.75927501718713 57.02562933283802 L49.95713293922816 46.74602288866221 z"/>
<path fill="black" d="M42.75927501718713 57.02562933283802 L44.99999999999998 55.980762113533174 L42.75927501718712 57.02562933283803 z"/>
<path fill="black" d="M52.304297363041236 43.39392469529756 L50.811430924424684 33.66961677912662 L51.13248079208278 29.999999999999908 z"/>
<path fill="black" d="M49.95713293922814 46.746022888662225 L50.811430924424684 33.66961677912662 L52.304297363041236 43.39392469529756 z"/>
<path fill="black" d="M50.811430924424684 33.66961677912662 L49.95713293922814 46.746022888662225 L49.63961435346623 47.06354147442413 z"/>
<path fill="black" d="M49.63961435346623 47.06354147442413 L49.85803625922013 37.22773410933513 L50.81143092442468 33.66961677912665 z"/>
<path fill="black" d="M46.74602288866225 49.95713293922812 L49.85803625922013 37.22773410933513 L49.63961435346623 47.06354147442413 z"/>
<path fill="black" d="M49.85803625922013 37.22773410933513 L46.74602288866225 49.95713293922812 L46.37819159988554 50.21469118041895 z"/>
<path fill="black" d="M55.65639555640585 25.476085235676816 L54.4810477035512 21.089627332256235 L55.45544706903598 23.17923351487847 z"/>
<path fill="black" d="M55.65639555640589 34.523914764322974 L55.65639555640585 25.476085235676816 L56.052186813041686 30.000000000000167 z"/>
<path fill="black" d="M55.65639555640589 34.523914764322974 L54.4810477035512 21.089627332256235 L55.65639555640585 25.476085235676816 z"/>
<path fill="black" d="M54.481047703551184 38.910372667743744 L54.4810477035512 21.089627332256235 L55.65639555640589 34.523914764322974 z"/>
<path fill="black" d="M52.83759777464046 42.43476241380373 L54.4810477035512 21.089627332256235 L54.481047703551184 38.910372667743744 z"/>
<path fill="black" d="M52.83759777464046 42.43476241380373 L52.56185560423214 16.97390659347926 L54.4810477035512 21.089627332256235 z"/>
<path fill="black" d="M52.56185560423204 43.0260934065209 L52.56185560423214 16.97390659347926 L52.83759777464046 42.43476241380373 z"/>
<path fill="black" d="M52.304297363041236 43.39392469529756 L52.56185560423214 16.97390659347926 L52.56185560423204 43.0260934065209 z"/>
<path fill="black" d="M51.13248079208278 29.999999999999908 L52.56185560423214 16.97390659347926 L52.304297363041236 43.39392469529756 z"/>
<path fill="black" d="M51.08624120394217 29.471479089094622 L52.56185560423214 16.97390659347926 L51.13248079208278 29.999999999999908 z"/>
<path fill="black" d="M50.78029144668119 25.974457361584435 L52.56185560423214 16.97390659347926 L51.08624120394217 29.471479089094622 z"/>
<path fill="black" d="M50.64842963474349 24.467269954399637 L52.56185560423214 16.97390659347926 L50.78029144668119 25.974457361584435 z"/>
<path fill="black" d="M50.48032043200442 22.545772974516506 L52.56185560423214 16.97390659347926 L50.64842963474349 24.467269954399637 z"/>
<path fill="black" d="M50.3041402188708 20.532023923687632 L52.56185560423214 16.97390659347926 L50.48032043200442 22.545772974516506 z"/>
<path fill="black" d="M50.11637065495334 18.38580798724442 L52.56185560423214 16.97390659347926 L50.3041402188708 20.532023923687632 z"/>
<path fill="black" d="M50.11637065495334 18.38580798724442 L49.95713293922803 13.253977111337624 L52.56185560423214 16.97390659347926 z"/>
<path fill="black" d="M49.912628740627994 16.057027250240967 L49.95713293922803 13.253977111337624 L50.11637065495334 18.38580798724442 z"/>
<path fill="black" d="M49.68720919271111 13.480470027486174 L49.95713293922803 13.253977111337624 L49.912628740627994 16.057027250240967 z"/>
<path fill="black" d="M49.95713293922803 13.253977111337624 L49.68720919271111 13.480470027486174 L49.63961435346624 12.936458525575837 z"/>
<path fill="black" d="M54.56267096517519 47.02524404690606 L54.4810477035512 38.910372667743715 L55.65639555640589 34.523914764322974 z"/>
<path fill="black" d="M52.98133329356932 49.2836282905962 L54.4810477035512 38.910372667743715 L54.56267096517519 47.02524404690606 z"/>
<path fill="black" d="M54.4810477035512 38.910372667743715 L52.98133329356932 49.2836282905962 L51.233106198112395 51.03185538605314 z"/>
<path fill="black" d="M55.45544706903598 23.17923351487847 L52.56185560423214 16.97390659347926 L55.24820153085996 20.810406174012574 z"/>
<path fill="black" d="M47.063541474424156 10.36038564653375 L43.39392469529753 7.695702636958792 L46.74602288866251 10.04286706077211 z"/>
<path fill="black" d="M43.39392469529753 7.695702636958792 L47.063541474424156 10.36038564653375 L30.000000000000117 8.867519207917226 z"/>
<path fill="black" d="M54.79952313500161 15.681988642232506 L54.39942444192727 12.74161575630983 L54.56267096517517 12.974755953093904 z"/>
<path fill="black" d="M54.79952313500161 15.681988642232506 L53.48936014571424 12.31724580557225 L54.39942444192727 12.74161575630983 z"/>
<path fill="black" d="M43.39392469529753 7.695702636958792 L53.48936014571424 12.31724580557225 L54.79952313500161 15.681988642232506 z"/>
<path fill="black" d="M53.48936014571424 12.31724580557225 L43.39392469529753 7.695702636958792 L43.0260934065206 7.438144395767797 z"/>
<path fill="black" d="M49.95713293922802 13.253977111337605 L54.79952313500161 15.681988642232506 L55.03100602643825 18.32785019854782 z"/>
<path fill="black" d="M49.63961435346624 12.936458525575837 L54.79952313500161 15.681988642232506 L49.95713293922802 13.253977111337605 z"/>
<path fill="black" d="M49.35234554252196 12.649189714631554 L54.79952313500161 15.681988642232506 L49.63961435346624 12.936458525575837 z"/>
<path fill="black" d="M47.063541474424156 10.36038564653375 L54.79952313500161 15.681988642232506 L49.35234554252196 12.649189714631554 z"/>
<path fill="black" d="M54.79952313500161 15.681988642232506 L47.063541474424156 10.36038564653375 L46.74602288866251 10.04286706077211 z"/>
<path fill="black" d="M54.39942444192727 12.74161575630983 L52.981333293569335 10.71637170940381 L54.39942444192728 12.741615756309834 z"/>
<path fill="black" d="M53.48936014571424 12.31724580557225 L52.981333293569335 10.71637170940381 L54.39942444192727 12.74161575630983 z"/>
<path fill="black" d="M53.48936014571424 12.31724580557225 L51.03185538605311 8.76689380188758 L52.981333293569335 10.71637170940381 z"/>
<path fill="black" d="M53.48936014571424 12.31724580557225 L51.0318553860531 8.76689380188758 L51.03185538605311 8.76689380188758 z"/>
<path fill="black" d="M51.0318553860531 8.76689380188758 L53.48936014571424 12.31724580557225 L38.91037266774368 5.518952296448773 z"/>
<path fill="black" d="M43.39392469529753 7.695702636958792 L39.3173402919573 5.708724416240731 L43.0260934065206 7.438144395767797 z"/>
<path fill="black" d="M39.3173402919573 5.708724416240731 L43.39392469529753 7.695702636958792 L26.330383220873394 9.188569075575327 z"/>
<path fill="black" d="M42.99038105676659 37.5 L44.09538931178865 35.13030214988499 L43.39745597719379 37.73502481488897 z"/>
<path fill="black" d="M44.09538931178865 35.13030214988499 L42.99038105676659 37.5 L42.99038105676658 37.500000000000014 z"/>
<path fill="black" d="M43.3974559771938 22.26497518511104 L44.86366224421606 23.068960467292726 L44.99263511151818 24.543127086193024 z"/>
<path fill="black" d="M44.86366224421606 23.068960467292726 L43.3974559771938 22.26497518511104 L41.850745553666215 20.056043776742868 z"/>
<path fill="black" d="M44.96964079687037 15.197524501687205 L42.171795421324305 12.822956520783215 L43.583696815089716 13.81158051990655 z"/>
<path fill="black" d="M42.171795421324305 12.822956520783215 L44.96964079687037 15.197524501687205 L33.16767922019724 12.035198428114498 z"/>
<path fill="black" d="M39.3173402919573 5.708724416240731 L34.95765321864758 4.459824312156684 L38.91037266774367 5.51895229644877 z"/>
<path fill="black" d="M34.95765321864758 4.459824312156684 L39.3173402919573 5.708724416240731 L22.7722658906649 10.141963740779875 z"/>
<path fill="black" d="M4.070618763229913 28.596325840145063 L4.019237886466836 15.000000000000012 L5.437329034824849 12.974755953093872 z"/>
<path fill="black" d="M3.9869495223952818 29.552669639017218 L4.019237886466836 15.000000000000012 L4.070618763229913 28.596325840145063 z"/>
<path fill="black" d="M3.94781318695831 30.000000000000217 L4.019237886466836 15.000000000000012 L3.9869495223952818 29.552669639017218 z"/>
<path fill="black" d="M4.019237886466836 15.000000000000012 L3.94781318695831 30.000000000000217 L2.8540885957276068 17.49867071741711 z"/>
<path fill="black" d="M4.019237886466847 44.99999999999999 L8.618125351003734 48.6654908209979 L5.600575558072734 47.25838424369016 z"/>
<path fill="black" d="M4.019237886466847 44.99999999999999 L16.973906593479192 52.56185560423209 L8.618125351003734 48.6654908209979 z"/>
<path fill="black" d="M16.973906593479192 52.56185560423209 L4.019237886466847 44.99999999999999 L2.974370667161974 42.759275017187115 z"/>
<path fill="black" d="M16.602544022806264 37.73502481488903 L17.009618943233427 37.50000000000001 L18.509333353215357 39.64181414529811 z"/>
<path fill="black" d="M16.602544022806228 37.73502481488898 L17.009618943233427 37.50000000000001 L16.602544022806264 37.73502481488903 z"/>
<path fill="black" d="M15.730299128775087 35.86448960326007 L17.009618943233427 37.50000000000001 L16.602544022806228 37.73502481488898 z"/>
<path fill="black" d="M17.009618943233427 37.50000000000001 L15.730299128775087 35.86448960326007 L15.462908519705875 35.291068591631884 z"/>
<path fill="black" d="M18.509333353215357 39.64181414529811 L17.009618943233427 37.50000000000001 L17.00961894323342 37.499999999999986 z"/>
<path fill="black" d="M17.498670717417095 57.14591140427238 L28.767272643878258 55.94433714416276 L30.000000000000057 56.05218681304169 z"/>
<path fill="black" d="M14.999999999999984 55.98076211353313 L28.767272643878258 55.94433714416276 L17.498670717417095 57.14591140427238 z"/>
<path fill="black" d="M28.767272643878258 55.94433714416276 L14.999999999999984 55.98076211353313 L12.974755953093936 54.56267096517518 z"/>
<path fill="black" d="M34.52391476432315 55.656395556405876 L33.9875760102543 55.703319117196514 L34.07658440334033 55.695531891842826 z"/>
<path fill="black" d="M22.402432046013654 58.904337061844714 L33.9875760102543 55.703319117196514 L34.52391476432315 55.656395556405876 z"/>
<path fill="black" d="M19.739395700229927 58.19077862357723 L33.9875760102543 55.703319117196514 L22.402432046013654 58.904337061844714 z"/>
<path fill="black" d="M33.9875760102543 55.703319117196514 L19.739395700229927 58.19077862357723 L17.4986707174171 57.14591140427238 z"/>
<path fill="black" d="M29.785096434635395 48.2231359676187 L34.18550941605064 45.88285341645184 L35.639121581460586 45.49335921062218 z"/>
<path fill="black" d="M29.785096434635395 48.2231359676187 L32.95668200624609 46.21211672854619 L34.18550941605064 45.88285341645184 z"/>
<path fill="black" d="M26.832320779802792 47.964801571885516 L32.95668200624609 46.21211672854619 L29.785096434635395 48.2231359676187 z"/>
<path fill="black" d="M32.95668200624609 46.21211672854619 L26.832320779802792 47.964801571885516 L26.623946950525323 47.90896797260684 z"/>
<path fill="black" d="M32.95668200624609 46.21211672854619 L37.73502481488899 43.39745597719377 L34.18550941605065 45.88285341645183 z"/>
<path fill="black" d="M32.86305706073717 46.237203457086714 L37.73502481488899 43.39745597719377 L32.95668200624609 46.21211672854619 z"/>
<path fill="black" d="M37.73502481488899 43.39745597719377 L32.86305706073717 46.237203457086714 L31.363893571314435 46.36836326718317 z"/>
<path fill="black" d="M29.99999999999989 60.00000000000001 L43.02609340652091 52.561855604232036 L32.74648696234513 59.759713526273046 z"/>
<path fill="black" d="M43.02609340652091 52.561855604232036 L29.99999999999989 60.00000000000001 L27.53704163233712 59.78451906409319 z"/>
<path fill="black" d="M35.20944533000797 59.544232590366235 L46.746022888662246 49.95713293922812 L37.87248167579159 58.83067415209877 z"/>
<path fill="black" d="M46.746022888662246 49.95713293922812 L35.20944533000797 59.544232590366235 L32.74648696234513 59.759713526273046 z"/>
<path fill="black" d="M49.95713293922814 46.746022888662225 L46.746022888662246 49.95713293922812 L46.74602288866225 49.95713293922812 z"/>
<path fill="black" d="M42.75927501718713 57.02562933283802 L46.746022888662246 49.95713293922812 L49.95713293922814 46.746022888662225 z"/>
<path fill="black" d="M40.260604299770065 58.190778623577245 L46.746022888662246 49.95713293922812 L42.75927501718713 57.02562933283802 z"/>
<path fill="black" d="M46.746022888662246 49.95713293922812 L40.260604299770065 58.190778623577245 L37.8724816757916 58.83067415209878 z"/>
<path fill="black" d="M51.23310619811239 51.031855386053145 L52.83759777464046 42.43476241380373 L54.48104770355117 38.91037266774377 z"/>
<path fill="black" d="M49.283628290596205 52.981333293569335 L52.83759777464046 42.43476241380373 L51.23310619811239 51.031855386053145 z"/>
<path fill="black" d="M52.83759777464046 42.43476241380373 L49.283628290596205 52.981333293569335 L47.25838424369012 54.39942444192731 z"/>
<path fill="black" d="M51.233106198112395 51.03185538605314 L49.283628290596205 52.981333293569335 L51.23310619811239 51.031855386053145 z"/>
<path fill="black" d="M56.0521868130417 30.00000000000011 L56.052186813041686 30.000000000000178 L56.052186813041686 30.000000000000167 z"/>
<path fill="black" d="M59.54423259036625 35.2094453300079 L59.54423259036626 24.790554669992108 L60.00000000000002 29.99999999999998 z"/>
<path fill="black" d="M59.54423259036625 35.2094453300079 L58.19077862357727 19.739395700229984 L59.54423259036626 24.790554669992108 z"/>
<path fill="black" d="M58.190778623577245 40.26060429977008 L58.19077862357727 19.739395700229984 L59.54423259036625 35.2094453300079 z"/>
<path fill="black" d="M57.14591140427237 42.50132928258296 L58.19077862357727 19.739395700229984 L58.190778623577245 40.26060429977008 z"/>
<path fill="black" d="M57.14591140427237 42.50132928258295 L58.19077862357727 19.739395700229984 L57.14591140427237 42.50132928258296 z"/>
<path fill="black" d="M56.0521868130417 30.00000000000011 L58.19077862357727 19.739395700229984 L57.14591140427237 42.50132928258295 z"/>
<path fill="black" d="M56.0521868130417 30.00000000000011 L55.98076211353318 15.00000000000002 L58.19077862357727 19.739395700229984 z"/>
<path fill="black" d="M55.656395556405855 25.476085235676834 L55.98076211353318 15.00000000000002 L56.0521868130417 30.00000000000011 z"/>
<path fill="black" d="M55.455447069036 23.179233514878497 L55.98076211353318 15.00000000000002 L55.656395556405855 25.476085235676834 z"/>
<path fill="black" d="M55.248201530859966 20.810406174012584 L55.98076211353318 15.00000000000002 L55.455447069036 23.179233514878497 z"/>
<path fill="black" d="M55.031006026438256 18.327850198547832 L55.98076211353318 15.00000000000002 L55.248201530859966 20.810406174012584 z"/>
<path fill="black" d="M54.79952313500161 15.681988642232511 L55.98076211353318 15.00000000000002 L55.031006026438256 18.327850198547832 z"/>
<path fill="black" d="M55.98076211353318 15.00000000000002 L54.79952313500161 15.681988642232511 L54.56267096517517 12.974755953093904 z"/>
<path fill="black" d="M55.980762113533174 44.99999999999997 L56.052186813041686 30.000000000000178 L57.14591140427237 42.50132928258295 z"/>
<path fill="black" d="M56.052186813041686 30.000000000000178 L55.980762113533174 44.99999999999997 L54.56267096517519 47.02524404690607 z"/>
</svg>