solid JSxCAD
facet normal 0.4052022833809907 -0.9092620465085497 -0.0951506191357449
outer loop
vertex -8.2222 -12.00411 2.14445
vertex -10.5565 -12.81511 -0.04631
vertex -9.6977 -12.44592 0.08293
endloop
endfacet
facet normal 0.771659156689868 -0.6172021062519258 -0.153634976274506
outer loop
vertex -9.6977 -12.44592 0.08293
vertex -9.58709 -12.3 0.05228
vertex -9.48191 -12.17446 0.07623
endloop
endfacet
facet normal 0.7165413994305102 -0.5791900382370874 -0.3887252532433252
outer loop
vertex -9.6977 -12.44592 0.08293
vertex -9.48191 -12.17446 0.07623
vertex -8.2222 -12.00411 2.14445
endloop
endfacet
facet normal 0.23250334110315027 -0.20827056357648718 -0.950034509227641
outer loop
vertex -9.6977 -12.44592 0.08293
vertex -10.5565 -12.81511 -0.04631
vertex -9.48191 -12.17446 0.07623
endloop
endfacet
facet normal -0.771659156689868 0.6172021062519258 0.153634976274506
outer loop
vertex -9.6977 -12.44592 0.08293
vertex -9.48191 -12.17446 0.07623
vertex -9.58709 -12.3 0.05228
endloop
endfacet
facet normal 0.8543986254431886 -0.01081792558702593 -0.5195054969168115
outer loop
vertex -8.2222 -12.00411 2.14445
vertex -9.48191 -12.17446 0.07623
vertex -9.26037 8.59597 0.00807
endloop
endfacet
facet normal 0.991221515581918 -0.008937654150645844 -0.1319091558072043
outer loop
vertex 26.23697 84.64491 31.38634
vertex 30.32924 71.68177 63.01573
vertex 26.86515 69.36809 37.14185
endloop
endfacet
facet normal -0.764308089394139 -0.19183837987983016 0.6156550824055326
outer loop
vertex -12.19032 -87.02693 75.43828
vertex -5.18538 -103.30694 79.06174
vertex 1.07815 -93.03263 90.03911
endloop
endfacet
facet normal 0.4982182548573484 -0.2757660182315136 0.8220289980989932
outer loop
vertex 14.31414 -29.62045 104.71861
vertex 25.92638 -14.64296 102.70512
vertex 9.84256 -5.91982 115.37961
endloop
endfacet
facet normal -0.0002274614876605104 -0.0022886123930292023 -0.9999973552537957
outer loop
vertex 4.91864 78.97743 0.0029
vertex 26.91421 70.81829 0.01657
vertex 10.17614 62.73799 0.03887
endloop
endfacet
facet normal 0.813621978287371 -0.5122692830712757 -0.2749535562042905
outer loop
vertex 21.30485 -79.13512 89.72494
vertex 12.4364 -85.72881 75.76687
vertex 22.17317 -71.09831 77.32093
endloop
endfacet
facet normal -0.8151064104118715 -0.496870386839072 -0.2978613073023495
outer loop
vertex -17.65311 61.50284 6.57423
vertex -25.66945 78.60233 -0.01293
vertex -14.94571 60.96764 0.05813
endloop
endfacet
facet normal 0.0003776241351410668 -0.0006574146261858234 -0.9999997126029697
outer loop
vertex 4.91864 78.97743 0.0029
vertex 13.53368 87.43974 0.00059
vertex 26.91421 70.81829 0.01657
endloop
endfacet
facet normal 0.8700468150459297 -0.10142551761047601 0.48242243314949695
outer loop
vertex 30.9365 -10.30972 0.37178
vertex 27.92169 8.93872 9.85581
vertex 26.80782 0.40418 10.07035
endloop
endfacet
facet normal 0.8866510996391985 -0.2491258976363171 0.3895973750367159
outer loop
vertex -12.61461 72.51445 18.74154
vertex -7.69346 72.26081 7.37973
vertex -6.6648 86.0626 13.86417
endloop
endfacet
facet normal 0.396466110902504 0.2813568558413906 -0.8738723834616187
outer loop
vertex -5.19777 64.9346 37.67039
vertex 20.22823 48.15622 43.80382
vertex 8.1468 36.71217 34.63802
endloop
endfacet
facet normal -0.5513593234969676 -0.7590515789215398 -0.3461843395211335
outer loop
vertex -15.69229 58.03893 41.17321
vertex -25.91888 68.85542 33.74437
vertex -23.03997 77.27069 10.70769
endloop
endfacet
facet normal -0.4449122588908981 -0.6059018623722341 -0.6594967892738043
outer loop
vertex 19.28204 -16.19734 47.61741
vertex 16.13342 -28.04903 60.63009
vertex 9.8657 -1.44767 40.41888
endloop
endfacet
facet normal 0.6365199311082663 -0.01852348701451298 -0.7710377797039203
outer loop
vertex 25.4478 29.45734 49.09492
vertex 21.69077 19.64195 46.22916
vertex 8.1468 36.71217 34.63802
endloop
endfacet
facet normal -0.32168553546272505 -0.9395845530036138 -0.11704394059950098
outer loop
vertex 20.21087 58.73251 4.61373
vertex 6.11349 63.70806 3.41737
vertex 10.17614 62.73799 0.03887
endloop
endfacet
facet normal -0.09649545784614955 -0.19352272724506228 -0.9763388656889036
outer loop
vertex -5.8031 -82.75336 68.31526
vertex 8.45699 -65.97785 63.58076
vertex 5.57862 -87.33632 68.09876
endloop
endfacet
facet normal -0.8243718599888932 0.31713726362263334 -0.46886564438056344
outer loop
vertex -29.58828 50.82418 60.7255
vertex -28.74732 61.68562 66.5935
vertex -15.69229 58.03893 41.17321
endloop
endfacet
facet normal 0.7487009975014547 -0.23223800114772455 -0.6208963900388182
outer loop
vertex 5.57862 -87.33632 68.09876
vertex 8.45699 -65.97785 63.58076
vertex 12.4364 -85.72881 75.76687
endloop
endfacet
facet normal -0.3050687800892837 -0.6716232842756109 0.6751704995285843
outer loop
vertex 25.90334 -14.48492 7.20677
vertex 13.99057 -3.74441 12.50819
vertex 19.25039 -17.96742 0.7365
endloop
endfacet
facet normal 0.3393285720551025 -0.30705001106775837 -0.8891436390653281
outer loop
vertex 5.57862 -87.33632 68.09876
vertex 7.03434 -103.93603 74.38673
vertex -4.74673 -99.74054 68.44182
endloop
endfacet
facet normal 0.9141181658814559 -0.053958659412789024 0.40184131430192405
outer loop
vertex -12.30179 -1.7694 12.7991
vertex -8.2222 -12.00411 2.14445
vertex -8.3011 6.4102 4.79658
endloop
endfacet
facet normal -0.49392860852011117 -0.8632903819599815 -0.10375088481924337
outer loop
vertex 1.07815 -93.03263 90.03911
vertex -9.6224 -87.80604 97.49199
vertex -21.8512 -79.2679 84.66569
endloop
endfacet
facet normal -0.9434291715680575 0.31343743035565835 0.1081590286867009
outer loop
vertex -37.42283 -9.65425 74.67013
vertex -28.83374 12.0648 86.64911
vertex -30.33271 13.24462 70.15514
endloop
endfacet
facet normal -0.8572084533152947 0.49208370157992787 -0.15181336635552511
outer loop
vertex 6.57395 86.43509 14.82931
vertex 12.7442 94.52173 6.20104
vertex 4.91864 78.97743 0.0029
endloop
endfacet
facet normal 0.5873054434917965 0.8090792689354733 0.02151865757300973
outer loop
vertex -0.085 105.55215 76.62251
vertex 11.30919 96.95481 88.89371
vertex 8.73865 99.27659 71.75454
endloop
endfacet
facet normal -0.9892606354892608 0.06229661393823249 -0.132221507188561
outer loop
vertex -23.03997 77.27069 10.70769
vertex -24.3872 82.99716 23.4855
vertex -21.73024 92.24941 7.96577
endloop
endfacet
facet normal -0.029852392695655827 0.935513223630226 -0.3520281850410946
outer loop
vertex 5.24748 88.62706 43.74952
vertex -3.60661 92.06385 53.63361
vertex 8.73865 99.27659 71.75454
endloop
endfacet
facet normal -0.6734397927215936 -0.03093339693253111 0.7385945914595582
outer loop
vertex -19.21835 53.28639 104.2371
vertex -24.06731 31.19739 98.89077
vertex -9.83201 14.01915 111.15086
endloop
endfacet
facet normal 0.8546512266424175 0.5098000578097919 0.09836250228488325
outer loop
vertex 22.29422 90.25092 36.58885
vertex 30.32924 71.68177 63.01573
vertex 26.23697 84.64491 31.38634
endloop
endfacet
facet normal -0.4387902346502611 -0.8876908286906752 0.13952821447302766
outer loop
vertex -10.84476 -70.38388 108.19532
vertex -23.35886 -64.22104 108.04934
vertex -20.26754 -67.56499 96.49646
endloop
endfacet
facet normal 0.9892627432667773 0.11092290691747962 0.09515951610462597
outer loop
vertex -12.25664 15.80902 34.96197
vertex -10.65881 -0.71758 37.61546
vertex -8.3011 6.4102 4.79658
endloop
endfacet
facet normal -0.7444071082723459 -0.5589340633561695 0.3653091430196695
outer loop
vertex -25.5108 -24.01453 85.98134
vertex -15.77583 -24.26969 105.42833
vertex -26.71573 -11.30035 102.97908
endloop
endfacet
facet normal 0.8662775505585529 0.49672269638381145 0.053195566502009906
outer loop
vertex -13.04069 14.83533 3.30862
vertex -8.3011 6.4102 4.79658
vertex -9.26037 8.59597 0.00807
endloop
endfacet
facet normal -0.5469425823820588 0.7188078526671955 0.42914925436405
outer loop
vertex -25.78204 91.81171 76.23023
vertex -12.09811 86.17699 103.10807
vertex -12.04455 98.8286 81.98539
endloop
endfacet
facet normal -0.7755591696470631 0.2683072429560663 0.5714185836614628
outer loop
vertex -15.51459 65.95346 107.96692
vertex -12.09811 86.17699 103.10807
vertex -31.14306 72.11195 83.86345
endloop
endfacet
facet normal -0.8598622553284224 -0.21141154166650544 0.4646956659058812
outer loop
vertex 13.99057 -3.74441 12.50819
vertex 6.67275 -1.21559 0.11794
vertex 9.34395 -12.41493 -0.03443
endloop
endfacet
facet normal -0.9889712567501235 0.1111972871556261 0.09783157287558317
outer loop
vertex -29.4188 29.60779 60.79508
vertex -30.33271 13.24462 70.15514
vertex -28.83374 12.0648 86.64911
endloop
endfacet
facet normal -0.0035184430439588227 0.0027527717865588786 -0.999990021353232
outer loop
vertex -9.26037 8.59597 0.00807
vertex -10.5565 -12.81511 -0.04631
vertex -21.44407 -13.77329 -0.01064
endloop
endfacet
facet normal -0.320500962796929 0.8696283772744668 0.3755337778219411
outer loop
vertex -12.04455 98.8286 81.98539
vertex 0.19064 95.22956 100.76191
vertex -0.085 105.55215 76.62251
endloop
endfacet
facet normal -0.43093187582818804 0.8997866926921115 -0.06842240897096971
outer loop
vertex -14.29015 94.95298 45.16221
vertex -25.78204 91.81171 76.23023
vertex -12.04455 98.8286 81.98539
endloop
endfacet
facet normal -0.8551798330232766 -0.4184126936633143 0.3059383450496036
outer loop
vertex 4.91864 78.97743 0.0029
vertex 12.79857 72.01554 12.50808
vertex 6.57395 86.43509 14.82931
endloop
endfacet
facet normal 0.9933095602268168 -0.048899942715487366 -0.10461793901826595
outer loop
vertex 27.92169 8.93872 9.85581
vertex 32.11671 12.55581 47.99533
vertex 30.87935 -4.68372 44.30505
endloop
endfacet
facet normal 0.8528861908456042 -0.4434856087097211 -0.2755098189398042
outer loop
vertex 26.79341 -23.00388 85.50872
vertex 20.06082 -37.88645 88.62321
vertex 16.13342 -28.04903 60.63009
endloop
endfacet
facet normal -0.9154908407037039 -0.35990845054789883 0.1798400061494557
outer loop
vertex -17.65311 61.50284 6.57423
vertex -23.03997 77.27069 10.70769
vertex -25.66945 78.60233 -0.01293
endloop
endfacet
facet normal -0.995477849643749 -0.025954466744991436 -0.09137951917492487
outer loop
vertex -28.74732 61.68562 66.5935
vertex -27.12955 85.91541 42.08773
vertex -25.91888 68.85542 33.74437
endloop
endfacet
facet normal -0.9065091071153812 0.046527785694126245 -0.4196145896835283
outer loop
vertex -23.54755 -60.58143 85.45397
vertex -16.49101 -49.40707 71.4485
vertex -15.96527 -67.10003 68.35089
endloop
endfacet
facet normal 0.015078024197709766 0.6259988445342144 -0.7796782027401573
outer loop
vertex -0.085 105.55215 76.62251
vertex 8.73865 99.27659 71.75454
vertex -7.13508 97.8047 70.26579
endloop
endfacet
facet normal 0.04108709217779516 -0.24912992759939206 0.9675981242389297
outer loop
vertex -8.29733 -5.6908 116.20885
vertex 0.47355 -23.84898 111.16118
vertex 9.84256 -5.91982 115.37961
endloop
endfacet
facet normal -0.34572251310693786 0.08194065354589723 0.9347521988353353
outer loop
vertex -19.21835 53.28639 104.2371
vertex -9.83201 14.01915 111.15086
vertex 1.72452 35.46349 113.54528
endloop
endfacet
facet normal 0.21471780029627816 -0.5582845421464308 -0.8013829522995093
outer loop
vertex 16.13342 -28.04903 60.63009
vertex -0.39388 -9.85888 43.52967
vertex 9.8657 -1.44767 40.41888
endloop
endfacet
facet normal 0.46466536959434673 0.8852224146672151 -0.02161876200188541
outer loop
vertex 22.29422 90.25092 36.58885
vertex 23.74041 88.79021 7.86108
vertex 12.7442 94.52173 6.20104
endloop
endfacet
facet normal -0.8174147871924864 0.48256255511744317 0.31458932924939936
outer loop
vertex -31.66138 49.4479 77.79372
vertex -19.21835 53.28639 104.2371
vertex -28.74732 61.68562 66.5935
endloop
endfacet
facet normal -0.4023876555179828 0.1539849207362299 -0.9024260739099896
outer loop
vertex -8.83839 37.67148 34.6417
vertex -15.69229 58.03893 41.17321
vertex -5.19777 64.9346 37.67039
endloop
endfacet
facet normal -0.9633801842501624 0.029977471646443255 -0.26645819895024797
outer loop
vertex -20.26754 -67.56499 96.49646
vertex -23.35886 -64.22104 108.04934
vertex -18.61532 -56.74128 91.74056
endloop
endfacet
facet normal 0.4881494358893022 0.15068871042195214 -0.8596528606317348
outer loop
vertex -3.36884 -39.00996 61.59273
vertex 4.68433 -51.07282 64.05118
vertex 8.45699 -65.97785 63.58076
endloop
endfacet
facet normal 0.0466610153132474 -0.16947883103182715 -0.984428603547267
outer loop
vertex -3.36884 -39.00996 61.59273
vertex 16.13342 -28.04903 60.63009
vertex 4.68433 -51.07282 64.05118
endloop
endfacet
facet normal 0.2567125015860637 -0.5278597359244882 -0.8096065653878771
outer loop
vertex 16.13342 -28.04903 60.63009
vertex -3.36884 -39.00996 61.59273
vertex -0.39388 -9.85888 43.52967
endloop
endfacet
facet normal 0.8645184936380832 0.09978887299732302 0.4925951227769757
outer loop
vertex 30.93028 47.82872 84.29866
vertex 28.67789 60.21284 85.74292
vertex 18.48617 53.85464 104.91771
endloop
endfacet
facet normal 0.9797985869287062 -0.0279353162088276 -0.19802612747014853
outer loop
vertex 32.11671 12.55581 47.99533
vertex 33.78455 -12.83307 59.82909
vertex 30.87935 -4.68372 44.30505
endloop
endfacet
facet normal -0.5054777730085257 -0.27172508446284444 0.8189369325338806
outer loop
vertex -26.71573 -11.30035 102.97908
vertex -15.77583 -24.26969 105.42833
vertex -8.29733 -5.6908 116.20885
endloop
endfacet
facet normal -0.5770887121486977 0.06682083772422809 -0.8139432375518516
outer loop
vertex -22.3575 43.19509 44.68026
vertex -15.69229 58.03893 41.17321
vertex -8.83839 37.67148 34.6417
endloop
endfacet
facet normal -0.5518967978668294 0.8251289275828555 -0.12071527397271122
outer loop
vertex -27.12955 85.91541 42.08773
vertex -25.78204 91.81171 76.23023
vertex -14.29015 94.95298 45.16221
endloop
endfacet
facet normal -0.4290614639232054 0.902616563388733 0.034490573674396716
outer loop
vertex 11.99548 15.44664 35.41116
vertex 21.69077 19.64195 46.22916
vertex 15.28821 17.6247 19.37288
endloop
endfacet
facet normal 0.9584947759696016 -0.08366422014783909 -0.27255836568712577
outer loop
vertex 30.0711 46.87351 60.00744
vertex 32.6272 35.46391 72.49865
vertex 25.4478 29.45734 49.09492
endloop
endfacet
facet normal -0.42543843901673006 0.0030538196218894806 -0.9049822146278484
outer loop
vertex -30.05607 -1.91393 4.07794
vertex -23.28516 15.71913 0.95439
vertex -21.44407 -13.77329 -0.01064
endloop
endfacet
facet normal 0.5581726721819178 -0.6141830470442956 -0.5578731511308658
outer loop
vertex -17.19848 -20.4447 52.79059
vertex -21.90095 -6.98602 33.26844
vertex -10.65881 -0.71758 37.61546
endloop
endfacet
facet normal 0.45916213397506034 0.886871422919374 0.051275861108647826
outer loop
vertex 11.30919 96.95481 88.89371
vertex 25.993 89.81605 80.87654
vertex 8.73865 99.27659 71.75454
endloop
endfacet
facet normal 0.248147897265101 -0.9601838989789258 -0.12833355455428347
outer loop
vertex -12.30179 -1.7694 12.7991
vertex -21.90095 -6.98602 33.26844
vertex -22.52995 -4.27596 11.77569
endloop
endfacet
facet normal -0.8300730004330849 0.25562546817512893 -0.49561520756758665
outer loop
vertex -29.58828 50.82418 60.7255
vertex -15.69229 58.03893 41.17321
vertex -22.3575 43.19509 44.68026
endloop
endfacet
facet normal -0.9691853084218744 -0.0975246008960851 0.2262051948104982
outer loop
vertex -20.26754 -67.56499 96.49646
vertex -23.54755 -60.58143 85.45397
vertex -21.8512 -79.2679 84.66569
endloop
endfacet
facet normal -0.7242990972976593 -0.3234908984745333 0.6088878848014102
outer loop
vertex -21.36507 -16.24424 6.80284
vertex -22.52995 -4.27596 11.77569
vertex -30.05607 -1.91393 4.07794
endloop
endfacet
facet normal -0.9216050665722868 0.019190823673070123 -0.3876542448562118
outer loop
vertex -29.4188 29.60779 60.79508
vertex -33.24652 39.37891 70.37878
vertex -22.3575 43.19509 44.68026
endloop
endfacet
facet normal 0.48555554850012983 0.676845902451668 0.5532769954147068
outer loop
vertex 11.30919 96.95481 88.89371
vertex 0.19064 95.22956 100.76191
vertex 16.35237 83.76496 100.60349
endloop
endfacet
facet normal -0.9655519044794143 0.26012128528040024 -0.006814447904921081
outer loop
vertex -25.78204 91.81171 76.23023
vertex -27.12955 85.91541 42.08773
vertex -31.14306 72.11195 83.86345
endloop
endfacet
facet normal 0.48554250150425954 -0.8741992934201608 0.004906589108302998
outer loop
vertex -12.30179 -1.7694 12.7991
vertex -10.65881 -0.71758 37.61546
vertex -21.90095 -6.98602 33.26844
endloop
endfacet
facet normal -0.8185376459126332 0.5671958313159007 -0.09102203668161363
outer loop
vertex 8.93576 7.34944 12.46944
vertex 11.99548 15.44664 35.41116
vertex 15.28821 17.6247 19.37288
endloop
endfacet
facet normal 0.8737182375671315 0.48505629291274954 -0.03656274125837304
outer loop
vertex -13.04069 14.83533 3.30862
vertex -12.25664 15.80902 34.96197
vertex -8.3011 6.4102 4.79658
endloop
endfacet
facet normal 0.3303723171256928 0.24443425514375267 0.911650166999008
outer loop
vertex 9.84256 -5.91982 115.37961
vertex 14.59887 15.33269 107.95769
vertex 0.20241 6.48262 115.54772
endloop
endfacet
facet normal 0.9461460455083074 0.2976329882367428 -0.1273666552998042
outer loop
vertex 27.89127 16.45877 27.20284
vertex 27.92169 8.93872 9.85581
vertex 25.16681 13.86398 0.90057
endloop
endfacet
facet normal -0.658225372036065 -0.7490569693716895 -0.0751865429693621
outer loop
vertex -21.90095 -6.98602 33.26844
vertex -27.65796 -1.14744 25.50084
vertex -22.52995 -4.27596 11.77569
endloop
endfacet
facet normal -0.36369952527204047 0.7293853308645145 -0.5794132328800881
outer loop
vertex -1.49321 79.63922 36.66647
vertex -3.60661 92.06385 53.63361
vertex 5.24748 88.62706 43.74952
endloop
endfacet
facet normal -0.9690731555559144 0.22582778534485518 -0.09949387190747203
outer loop
vertex -31.66138 49.4479 77.79372
vertex -29.58828 50.82418 60.7255
vertex -33.24652 39.37891 70.37878
endloop
endfacet
facet normal 0.5884326260114747 0.1799058353556259 -0.7882771942979412
outer loop
vertex 0.73652 76.61373 37.64042
vertex -1.49321 79.63922 36.66647
vertex 5.24748 88.62706 43.74952
endloop
endfacet
facet normal 0.7168192607264436 0.054948180381762336 -0.6950905300206068
outer loop
vertex 8.45699 -65.97785 63.58076
vertex 16.98454 -53.92884 73.32738
vertex 22.17317 -71.09831 77.32093
endloop
endfacet
facet normal 0.7518413142393927 -0.17488100684277672 -0.6357289293782684
outer loop
vertex 7.03434 -103.93603 74.38673
vertex 5.57862 -87.33632 68.09876
vertex 12.4364 -85.72881 75.76687
endloop
endfacet
facet normal 0.97651170229917 0.07600398460060856 -0.20161420981073744
outer loop
vertex 21.30485 -79.13512 89.72494
vertex 20.5529 -60.54696 93.09021
vertex 23.59228 -66.17803 105.68856
endloop
endfacet
facet normal -0.608277440156714 -0.7878633374963097 0.0962804093550249
outer loop
vertex -30.05607 -1.91393 4.07794
vertex -27.65796 -1.14744 25.50084
vertex -32.78647 5.03489 43.69015
endloop
endfacet
facet normal -0.6185305003283192 -0.09667695989977343 -0.7797907319198764
outer loop
vertex -23.53705 20.43292 48.43789
vertex -22.3575 43.19509 44.68026
vertex -8.83839 37.67148 34.6417
endloop
endfacet
facet normal -0.9190545274244432 0.16639556733717237 0.35728320810132386
outer loop
vertex -26.71573 -11.30035 102.97908
vertex -28.83374 12.0648 86.64911
vertex -37.42283 -9.65425 74.67013
endloop
endfacet
facet normal -0.33257402110934 -0.8556123195421276 -0.39663847409310243
outer loop
vertex -30.77714 -14.76946 57.50108
vertex -27.65796 -1.14744 25.50084
vertex -21.90095 -6.98602 33.26844
endloop
endfacet
facet normal 0.9591320855798375 0.2706509178308814 -0.08254527902050289
outer loop
vertex 16.98454 -53.92884 73.32738
vertex 20.5529 -60.54696 93.09021
vertex 22.17317 -71.09831 77.32093
endloop
endfacet
facet normal 0.9476528515505642 -0.041317536839762616 0.3166179623735501
outer loop
vertex 28.45668 12.20666 87.05371
vertex 30.93028 47.82872 84.29866
vertex 22.79921 7.87351 103.42133
endloop
endfacet
facet normal 0.5192080895410889 0.4172536338555914 -0.745870206396124
outer loop
vertex 13.53368 87.43974 0.00059
vertex 23.74041 88.79021 7.86108
vertex 26.91421 70.81829 0.01657
endloop
endfacet
facet normal 0.552726303148237 -0.6908342170861403 -0.46609196336244946
outer loop
vertex 33.78455 -12.83307 59.82909
vertex 19.28204 -16.19734 47.61741
vertex 30.87935 -4.68372 44.30505
endloop
endfacet
facet normal -0.5730805725928259 0.8160500185569604 -0.07510675422266262
outer loop
vertex -21.2319 19.41092 25.39962
vertex -23.28516 15.71913 0.95439
vertex -27.86377 14.25763 20.01067
endloop
endfacet
facet normal -0.7329641713406692 0.6720102517491743 0.10566808919866756
outer loop
vertex 6.57395 86.43509 14.82931
vertex 15.08242 92.6373 34.40433
vertex 12.7442 94.52173 6.20104
endloop
endfacet
facet normal 0.08540358118356071 -0.9605704047934729 0.2645954001034909
outer loop
vertex -8.2222 -12.00411 2.14445
vertex -21.44407 -13.77329 -0.01064
vertex -10.5565 -12.81511 -0.04631
endloop
endfacet
facet normal -0.06850200476966542 0.9493183398072084 -0.30676076191100854
outer loop
vertex 4.071 16.3468 39.96644
vertex 21.69077 19.64195 46.22916
vertex 11.99548 15.44664 35.41116
endloop
endfacet
facet normal 0.6232557073676598 0.23077278017666628 0.747192242440438
outer loop
vertex 22.79921 7.87351 103.42133
vertex 30.93028 47.82872 84.29866
vertex 14.59887 15.33269 107.95769
endloop
endfacet
facet normal 0.8453066788631577 -0.28826062567102856 0.449847118871607
outer loop
vertex 14.31414 -29.62045 104.71861
vertex 20.06082 -37.88645 88.62321
vertex 26.79341 -23.00388 85.50872
endloop
endfacet
facet normal 0.835720549834516 0.5471520281568852 -0.04685958459164145
outer loop
vertex -12.4621 94.28087 6.43176
vertex -6.9922 88.49391 36.41412
vertex -6.6648 86.0626 13.86417
endloop
endfacet
facet normal 0.8602321305730084 0.1035913120676235 0.4992689872142378
outer loop
vertex 25.92638 -14.64296 102.70512
vertex 36.74454 -5.8707 82.24549
vertex 22.79921 7.87351 103.42133
endloop
endfacet
facet normal -0.505463252854013 -0.18602488437725545 -0.8425566108023064
outer loop
vertex 9.8657 -1.44767 40.41888
vertex 4.071 16.3468 39.96644
vertex 11.99548 15.44664 35.41116
endloop
endfacet
facet normal -0.6068278641259419 0.15291132205406333 0.7799859427630896
outer loop
vertex -8.29733 -5.6908 116.20885
vertex -9.83201 14.01915 111.15086
vertex -26.71573 -11.30035 102.97908
endloop
endfacet
facet normal -0.3780568406396295 -0.9255599933288012 0.020290983090307083
outer loop
vertex 22.02747 -6.5942 32.25851
vertex 9.8657 -1.44767 40.41888
vertex 13.99057 -3.74441 12.50819
endloop
endfacet
facet normal -0.2663368397329819 0.6010826813095906 0.7535013590105336
outer loop
vertex -23.35886 -64.22104 108.04934
vertex -8.47141 -60.85434 110.62586
vertex -14.38331 -53.44585 102.62631
endloop
endfacet
facet normal -0.11846245783189577 -0.21759810153943707 0.9688228487658924
outer loop
vertex -8.47141 -60.85434 110.62586
vertex -23.35886 -64.22104 108.04934
vertex -10.84476 -70.38388 108.19532
endloop
endfacet
facet normal 0.5593113940034349 -0.8100531799416797 0.17602445910812184
outer loop
vertex 6.04938 -87.21625 101.00981
vertex 1.07815 -93.03263 90.03911
vertex 21.30485 -79.13512 89.72494
endloop
endfacet
facet normal -0.25847328215477594 0.030510383944935025 0.9655364720628995
outer loop
vertex 3.87708 73.60719 112.9162
vertex -15.51459 65.95346 107.96692
vertex 1.72452 35.46349 113.54528
endloop
endfacet
facet normal 0.6855280339659041 -0.65798871960475 0.3116121941127204
outer loop
vertex -7.69346 72.26081 7.37973
vertex -12.61461 72.51445 18.74154
vertex -17.65311 61.50284 6.57423
endloop
endfacet
facet normal 0.051583327857594626 0.21911639512061765 0.9743342166199858
outer loop
vertex 8.03136 -55.42512 108.5312
vertex -8.3689 -45.52254 107.17249
vertex -8.47141 -60.85434 110.62586
endloop
endfacet
facet normal -0.06738183665168482 -0.5942065736423521 -0.8014850191548569
outer loop
vertex -0.39388 -9.85888 43.52967
vertex -17.19848 -20.4447 52.79059
vertex -10.65881 -0.71758 37.61546
endloop
endfacet
facet normal 0.9831154606698779 -0.01460777700758006 -0.18240231315076744
outer loop
vertex 20.5529 -60.54696 93.09021
vertex 16.98454 -53.92884 73.32738
vertex 20.06082 -37.88645 88.62321
endloop
endfacet
facet normal 0.07569191235188867 0.03986027980135324 -0.9963342273046089
outer loop
vertex 12.96862 14.5279 0.00043
vertex 25.16681 13.86398 0.90057
vertex 30.9365 -10.30972 0.37178
endloop
endfacet
facet normal 0.9743887794794434 0.2247127183481242 0.008408367092193057
outer loop
vertex 26.02594 90.55596 57.28533
vertex 25.993 89.81605 80.87654
vertex 30.32924 71.68177 63.01573
endloop
endfacet
facet normal 0.005975990339486417 0.1096215898224708 -0.9939554288720679
outer loop
vertex -8.83839 37.67148 34.6417
vertex -5.19777 64.9346 37.67039
vertex 8.1468 36.71217 34.63802
endloop
endfacet
facet normal 0.6729440477445863 -0.43826413029452044 0.5958782264039519
outer loop
vertex 6.04938 -87.21625 101.00981
vertex 21.30485 -79.13512 89.72494
vertex 10.82176 -68.85516 109.12466
endloop
endfacet
facet normal -0.08752916281337435 -0.3835671565850442 0.9193556885376051
outer loop
vertex 6.04938 -87.21625 101.00981
vertex 10.82176 -68.85516 109.12466
vertex -8.47141 -60.85434 110.62586
endloop
endfacet
facet normal 0.37146365090137 -0.8025056186138838 -0.4669041530680285
outer loop
vertex -5.19777 64.9346 37.67039
vertex -15.69229 58.03893 41.17321
vertex -12.61461 72.51445 18.74154
endloop
endfacet
facet normal -0.9658618866223615 0.08377407259128355 0.2451381666158146
outer loop
vertex -24.06731 31.19739 98.89077
vertex -28.83374 12.0648 86.64911
vertex -26.71573 -11.30035 102.97908
endloop
endfacet
facet normal 0.5663642482279792 -0.8236364456951788 0.029232578602802862
outer loop
vertex 21.30485 -79.13512 89.72494
vertex 1.07815 -93.03263 90.03911
vertex 12.4364 -85.72881 75.76687
endloop
endfacet
facet normal 0.43362268712851487 0.027320230976562918 0.900680281890768
outer loop
vertex 14.59887 15.33269 107.95769
vertex 18.48617 53.85464 104.91771
vertex 1.72452 35.46349 113.54528
endloop
endfacet
facet normal -0.9848613003517471 0.13499941308347213 -0.10873535550401185
outer loop
vertex -28.74732 61.68562 66.5935
vertex -29.58828 50.82418 60.7255
vertex -31.66138 49.4479 77.79372
endloop
endfacet
facet normal 0.045933979454243636 0.02216654509316457 0.9986985099669118
outer loop
vertex 9.84256 -5.91982 115.37961
vertex 0.20241 6.48262 115.54772
vertex -8.29733 -5.6908 116.20885
endloop
endfacet
facet normal -0.7804664679974888 0.2684716156842869 0.5646194150960392
outer loop
vertex -20.48205 -37.67112 86.69535
vertex -14.38331 -53.44585 102.62631
vertex -8.3689 -45.52254 107.17249
endloop
endfacet
facet normal 0.6389613065343118 0.06435892057879612 0.7665418306223721
outer loop
vertex 25.92638 -14.64296 102.70512
vertex 22.79921 7.87351 103.42133
vertex 9.84256 -5.91982 115.37961
endloop
endfacet
facet normal -0.9179047572488594 -0.03961270848328737 -0.3948185531944143
outer loop
vertex -29.58828 50.82418 60.7255
vertex -22.3575 43.19509 44.68026
vertex -33.24652 39.37891 70.37878
endloop
endfacet
facet normal 0.914251748095961 0.39348420886705465 0.09650864456486434
outer loop
vertex 28.45668 12.20666 87.05371
vertex 36.74454 -5.8707 82.24549
vertex 28.72719 16.02338 68.9296
endloop
endfacet
facet normal 0.5566625090352812 0.829645346241784 0.04260810361769052
outer loop
vertex 21.69077 19.64195 46.22916
vertex 32.11671 12.55581 47.99533
vertex 27.89127 16.45877 27.20284
endloop
endfacet
facet normal -0.5337401891065753 -0.8336159546227867 0.14214728534452262
outer loop
vertex -12.19032 -87.02693 75.43828
vertex 1.07815 -93.03263 90.03911
vertex -21.8512 -79.2679 84.66569
endloop
endfacet
facet normal 0.9782140591980589 0.18814706828041958 -0.08773787713832494
outer loop
vertex 28.67789 60.21284 85.74292
vertex 30.93028 47.82872 84.29866
vertex 26.80889 59.67485 63.75124
endloop
endfacet
facet normal -0.9213830779952108 -0.06749665160540312 -0.38274982117060474
outer loop
vertex -21.8512 -79.2679 84.66569
vertex -23.54755 -60.58143 85.45397
vertex -15.96527 -67.10003 68.35089
endloop
endfacet
facet normal -0.8954506292866294 -0.34035947895237917 -0.28692088734953486
outer loop
vertex 8.70755 63.80105 35.02016
vertex 6.57395 86.43509 14.82931
vertex 12.79857 72.01554 12.50808
endloop
endfacet
facet normal -0.5199411250453907 0.5291421093462831 -0.6705742722496141
outer loop
vertex 13.53368 87.43974 0.00059
vertex 4.91864 78.97743 0.0029
vertex 12.7442 94.52173 6.20104
endloop
endfacet
facet normal 0.19351708640195087 -0.7689651695834337 0.6092977147815516
outer loop
vertex -5.18538 -103.30694 79.06174
vertex 7.03434 -103.93603 74.38673
vertex 1.07815 -93.03263 90.03911
endloop
endfacet
facet normal -0.015513393230089004 -0.7240502590113403 0.6895727351455389
outer loop
vertex -8.2222 -12.00411 2.14445
vertex -12.30179 -1.7694 12.7991
vertex -21.44407 -13.77329 -0.01064
endloop
endfacet
facet normal 0.7098243790038118 -0.044243369075233456 -0.7029878201396704
outer loop
vertex -10.65881 -0.71758 37.61546
vertex -12.25664 15.80902 34.96197
vertex -7.73304 17.47868 39.42448
endloop
endfacet
facet normal 0.5223928174948868 0.14566544878810977 0.8401710071521825
outer loop
vertex 17.027 -55.31643 102.91914
vertex 8.03136 -55.42512 108.5312
vertex 10.82176 -68.85516 109.12466
endloop
endfacet
facet normal 0.5026402355152688 0.0051248326227249265 -0.8644804970221965
outer loop
vertex -0.39388 -9.85888 43.52967
vertex -10.65881 -0.71758 37.61546
vertex -7.73304 17.47868 39.42448
endloop
endfacet
facet normal 0.8745022361639332 0.29944587316106763 0.3815468621166815
outer loop
vertex 28.45668 12.20666 87.05371
vertex 22.79921 7.87351 103.42133
vertex 36.74454 -5.8707 82.24549
endloop
endfacet
facet normal 0.9557676571604093 -0.14473123884188868 -0.2560489289752926
outer loop
vertex 32.6272 35.46391 72.49865
vertex 28.72719 16.02338 68.9296
vertex 25.4478 29.45734 49.09492
endloop
endfacet
facet normal 0.8676563995911186 0.15627753053118634 0.4719636698938288
outer loop
vertex 25.993 89.81605 80.87654
vertex 16.35237 83.76496 100.60349
vertex 28.67789 60.21284 85.74292
endloop
endfacet
facet normal -0.6519545785041987 0.11192586515842899 -0.7499518839738651
outer loop
vertex -15.96527 -67.10003 68.35089
vertex -16.49101 -49.40707 71.4485
vertex -3.36884 -39.00996 61.59273
endloop
endfacet
facet normal 0.24641111582678688 -0.12766942279691335 -0.9607195639101458
outer loop
vertex 0.73652 76.61373 37.64042
vertex -5.19777 64.9346 37.67039
vertex -1.49321 79.63922 36.66647
endloop
endfacet
facet normal 0.3690128506064519 -0.30368072456291945 -0.878411938452706
outer loop
vertex 4.071 16.3468 39.96644
vertex 8.1468 36.71217 34.63802
vertex 21.69077 19.64195 46.22916
endloop
endfacet
facet normal 0.8378937090349586 -0.15174075680862215 0.5243175326868125
outer loop
vertex 30.9365 -10.30972 0.37178
vertex 26.80782 0.40418 10.07035
vertex 25.90334 -14.48492 7.20677
endloop
endfacet
facet normal -0.9928568637871928 -0.04533086112799385 -0.11036467306187323
outer loop
vertex -27.12955 85.91541 42.08773
vertex -28.74732 61.68562 66.5935
vertex -31.14306 72.11195 83.86345
endloop
endfacet
facet normal -0.9608787219419692 -0.23880749341682683 -0.14029633925067367
outer loop
vertex -28.83374 12.0648 86.64911
vertex -33.24652 39.37891 70.37878
vertex -29.4188 29.60779 60.79508
endloop
endfacet
facet normal 0.6272483069332454 0.15484103255464524 0.7632717838927289
outer loop
vertex 18.48617 53.85464 104.91771
vertex 16.35237 83.76496 100.60349
vertex 3.87708 73.60719 112.9162
endloop
endfacet
facet normal 0.44787736626389957 0.5191120705008749 0.7279618967011993
outer loop
vertex 17.027 -55.31643 102.91914
vertex 20.06082 -37.88645 88.62321
vertex 8.03136 -55.42512 108.5312
endloop
endfacet
facet normal -0.4702648225532811 -0.7754572144551529 -0.42132778832921325
outer loop
vertex -17.19848 -20.4447 52.79059
vertex -30.77714 -14.76946 57.50108
vertex -21.90095 -6.98602 33.26844
endloop
endfacet
facet normal -0.7554568889853275 -0.4124332181752076 0.5091009029949289
outer loop
vertex -21.8512 -79.2679 84.66569
vertex -10.84476 -70.38388 108.19532
vertex -20.26754 -67.56499 96.49646
endloop
endfacet
facet normal -0.9687872583214225 -0.007551667172105166 -0.2477785713837722
outer loop
vertex -13.67265 -28.93658 59.80513
vertex -16.49101 -49.40707 71.4485
vertex -20.48205 -37.67112 86.69535
endloop
endfacet
facet normal 0.9791486897905504 -0.05282115779535312 0.1961575095952411
outer loop
vertex 32.6272 35.46391 72.49865
vertex 30.93028 47.82872 84.29866
vertex 28.45668 12.20666 87.05371
endloop
endfacet
facet normal 0.43883381292207263 -0.879749311221048 -0.182937240720327
outer loop
vertex 22.02747 -6.5942 32.25851
vertex 26.80782 0.40418 10.07035
vertex 30.87935 -4.68372 44.30505
endloop
endfacet
facet normal -0.8789386929560798 -0.341079867314062 -0.33336361249794494
outer loop
vertex -13.67265 -28.93658 59.80513
vertex -20.48205 -37.67112 86.69535
vertex -25.5108 -24.01453 85.98134
endloop
endfacet
facet normal 0.24446961745871612 -0.1974357044050873 0.9493438517026673
outer loop
vertex 13.99057 -3.74441 12.50819
vertex 25.90334 -14.48492 7.20677
vertex 26.80782 0.40418 10.07035
endloop
endfacet
facet normal -0.9930341232269498 0.023848232880857554 -0.11538843917543692
outer loop
vertex -24.3872 82.99716 23.4855
vertex -23.03997 77.27069 10.70769
vertex -25.91888 68.85542 33.74437
endloop
endfacet
facet normal -0.5668531810571759 0.7655406066339487 -0.30434363919734936
outer loop
vertex -12.04455 98.8286 81.98539
vertex -0.085 105.55215 76.62251
vertex -7.13508 97.8047 70.26579
endloop
endfacet
facet normal -0.9413521203137685 0.33698426207255594 -0.017256671063310604
outer loop
vertex -32.78647 5.03489 43.69015
vertex -30.33271 13.24462 70.15514
vertex -28.36598 17.33114 42.67055
endloop
endfacet
facet normal -0.25147432535392306 0.5415681437130673 -0.8021624582358439
outer loop
vertex -12.4621 94.28087 6.43176
vertex -25.66945 78.60233 -0.01293
vertex -21.73024 92.24941 7.96577
endloop
endfacet
facet normal -0.7830584353227895 -0.3645269247983409 0.5039242085541132
outer loop
vertex -9.6224 -87.80604 97.49199
vertex -10.84476 -70.38388 108.19532
vertex -21.8512 -79.2679 84.66569
endloop
endfacet
facet normal -0.9858330522648351 0.1477899480106323 0.07931786891497548
outer loop
vertex 9.8657 -1.44767 40.41888
vertex 11.99548 15.44664 35.41116
vertex 8.93576 7.34944 12.46944
endloop
endfacet
facet normal 0.852321803584758 0.5222774600882537 0.027817221604395204
outer loop
vertex 17.027 -55.31643 102.91914
vertex 23.59228 -66.17803 105.68856
vertex 20.5529 -60.54696 93.09021
endloop
endfacet
facet normal -0.8272751537672178 0.07807328999871732 0.5563455592958408
outer loop
vertex -15.51459 65.95346 107.96692
vertex -31.14306 72.11195 83.86345
vertex -19.21835 53.28639 104.2371
endloop
endfacet
facet normal -0.9058392194821959 0.09916638116807969 0.41185111058963203
outer loop
vertex -24.06731 31.19739 98.89077
vertex -19.21835 53.28639 104.2371
vertex -31.66138 49.4479 77.79372
endloop
endfacet
facet normal -0.004266090323278549 -0.8772148428875721 -0.4800790767062089
outer loop
vertex 20.5046 75.68691 13.19713
vertex 20.03169 58.03662 45.45247
vertex 8.70755 63.80105 35.02016
endloop
endfacet
facet normal 0.9878673602251717 -0.11996325771732377 0.0986250242058149
outer loop
vertex -6.6648 86.0626 13.86417
vertex -7.69346 72.26081 7.37973
vertex -5.98689 80.23675 -0.01236
endloop
endfacet
facet normal -0.2089587858412786 0.9774047737201024 0.03187685883041648
outer loop
vertex -20.60062 91.57217 36.1361
vertex -12.4621 94.28087 6.43176
vertex -21.73024 92.24941 7.96577
endloop
endfacet
facet normal 0.9912426616086335 0.003589304177437043 -0.1320041768375298
outer loop
vertex 32.11671 12.55581 47.99533
vertex 36.74454 -5.8707 82.24549
vertex 33.78455 -12.83307 59.82909
endloop
endfacet
facet normal 0.9649015856414729 0.2588470525278952 -0.04430726152892316
outer loop
vertex 26.80889 59.67485 63.75124
vertex 30.93028 47.82872 84.29866
vertex 30.0711 46.87351 60.00744
endloop
endfacet
facet normal 0.3033950871552818 0.9520883038347118 0.03846144551600193
outer loop
vertex 15.08242 92.6373 34.40433
vertex 22.29422 90.25092 36.58885
vertex 12.7442 94.52173 6.20104
endloop
endfacet
facet normal -0.9088691358248223 -0.021661636469679786 -0.4165185079327164
outer loop
vertex -22.3575 43.19509 44.68026
vertex -23.53705 20.43292 48.43789
vertex -29.4188 29.60779 60.79508
endloop
endfacet
facet normal 0.03126336173426404 -0.8417753888826679 -0.5389218838426454
outer loop
vertex -15.69229 58.03893 41.17321
vertex -23.03997 77.27069 10.70769
vertex -12.61461 72.51445 18.74154
endloop
endfacet
facet normal 0.9603297826862847 -0.06286916975244984 -0.2716876441436946
outer loop
vertex 26.23697 84.64491 31.38634
vertex 26.86515 69.36809 37.14185
vertex 20.5046 75.68691 13.19713
endloop
endfacet
facet normal -0.9653512470502323 0.23746674144690944 -0.1081966567189023
outer loop
vertex -32.78647 5.03489 43.69015
vertex -27.86377 14.25763 20.01067
vertex -30.05607 -1.91393 4.07794
endloop
endfacet
facet normal 0.13063842627950306 -0.27544794863539823 0.952398041352336
outer loop
vertex -10.84476 -70.38388 108.19532
vertex 6.04938 -87.21625 101.00981
vertex -8.47141 -60.85434 110.62586
endloop
endfacet
facet normal 0.0015937173901933652 -0.3835663797819069 0.9235119340679263
outer loop
vertex -22.52995 -4.27596 11.77569
vertex -21.36507 -16.24424 6.80284
vertex -12.30179 -1.7694 12.7991
endloop
endfacet
facet normal -0.856378351844749 0.5159589973546925 0.02006069640894919
outer loop
vertex 12.96862 14.5279 0.00043
vertex 8.93576 7.34944 12.46944
vertex 15.28821 17.6247 19.37288
endloop
endfacet
facet normal -0.018695431911350962 -0.6413462819225277 -0.7670237463663022
outer loop
vertex -0.39388 -9.85888 43.52967
vertex -13.67265 -28.93658 59.80513
vertex -17.19848 -20.4447 52.79059
endloop
endfacet
facet normal 0.9179874193191783 0.38751527985134565 0.08444528319242132
outer loop
vertex 32.11671 12.55581 47.99533
vertex 28.72719 16.02338 68.9296
vertex 36.74454 -5.8707 82.24549
endloop
endfacet
facet normal -0.03704298978636691 0.9940569562318154 -0.10236495823681892
outer loop
vertex -14.29015 94.95298 45.16221
vertex -12.04455 98.8286 81.98539
vertex -7.13508 97.8047 70.26579
endloop
endfacet
facet normal 0.822292026177569 0.5030844963226228 -0.2659733318297175
outer loop
vertex -6.9922 88.49391 36.41412
vertex -3.60661 92.06385 53.63361
vertex -1.49321 79.63922 36.66647
endloop
endfacet
facet normal -0.5709647996256213 -0.3690020756354975 -0.7333734831347317
outer loop
vertex -5.8031 -82.75336 68.31526
vertex -12.19032 -87.02693 75.43828
vertex -15.96527 -67.10003 68.35089
endloop
endfacet
facet normal 0.12088898788981914 0.9799862487674664 -0.1581543702641333
outer loop
vertex -21.2319 19.41092 25.39962
vertex -13.04069 14.83533 3.30862
vertex -23.28516 15.71913 0.95439
endloop
endfacet
facet normal 0.4239281561718022 0.6228988983674696 -0.6574814680410154
outer loop
vertex 12.7442 94.52173 6.20104
vertex 23.74041 88.79021 7.86108
vertex 13.53368 87.43974 0.00059
endloop
endfacet
facet normal -0.7431175571311803 0.6633376944342476 0.08808745328390455
outer loop
vertex -18.61532 -56.74128 91.74056
vertex -23.35886 -64.22104 108.04934
vertex -14.38331 -53.44585 102.62631
endloop
endfacet
facet normal -0.3471512994155394 0.08277802447034119 0.9341486894380843
outer loop
vertex 1.72452 35.46349 113.54528
vertex -9.83201 14.01915 111.15086
vertex 0.20241 6.48262 115.54772
endloop
endfacet
facet normal -0.601020376168444 0.7956788539900815 0.07529720275928391
outer loop
vertex -30.33271 13.24462 70.15514
vertex -23.53705 20.43292 48.43789
vertex -28.36598 17.33114 42.67055
endloop
endfacet
facet normal 0.9810416049842732 -0.1920714614533936 -0.02580548362342201
outer loop
vertex 28.45668 12.20666 87.05371
vertex 28.72719 16.02338 68.9296
vertex 32.6272 35.46391 72.49865
endloop
endfacet
facet normal 0.815829401230404 -0.2803937479907456 0.5057684590558637
outer loop
vertex 7.03434 -103.93603 74.38673
vertex 12.4364 -85.72881 75.76687
vertex 1.07815 -93.03263 90.03911
endloop
endfacet
facet normal -0.24590479018585143 0.22292647624862116 0.9433104580948021
outer loop
vertex 0.20241 6.48262 115.54772
vertex -9.83201 14.01915 111.15086
vertex -8.29733 -5.6908 116.20885
endloop
endfacet
facet normal 0.8822498855164783 -0.4692026354568245 -0.038523063047105455
outer loop
vertex -12.30179 -1.7694 12.7991
vertex -8.3011 6.4102 4.79658
vertex -10.65881 -0.71758 37.61546
endloop
endfacet
facet normal 0.6447318625166555 -0.7544041938060937 -0.12326855975301342
outer loop
vertex 16.13342 -28.04903 60.63009
vertex 33.78455 -12.83307 59.82909
vertex 26.79341 -23.00388 85.50872
endloop
endfacet
facet normal 0.16022556854801118 0.9807214279097387 -0.11186263014139211
outer loop
vertex 21.69077 19.64195 46.22916
vertex 27.89127 16.45877 27.20284
vertex 15.28821 17.6247 19.37288
endloop
endfacet
facet normal 0.13514604825091867 -0.44939766307677703 0.8830499906932177
outer loop
vertex 12.79857 72.01554 12.50808
vertex 20.21087 58.73251 4.61373
vertex 20.5046 75.68691 13.19713
endloop
endfacet
facet normal -0.7775656272164425 -0.3362787275655354 -0.5313269358487342
outer loop
vertex -15.96527 -67.10003 68.35089
vertex -12.19032 -87.02693 75.43828
vertex -21.8512 -79.2679 84.66569
endloop
endfacet
facet normal 0.8801111138133848 -0.4100668434665913 -0.23926890987236418
outer loop
vertex -7.69346 72.26081 7.37973
vertex -14.94571 60.96764 0.05813
vertex -5.98689 80.23675 -0.01236
endloop
endfacet
facet normal -0.5506198087142126 0.8007425060485921 -0.2358585704581125
outer loop
vertex 5.24748 88.62706 43.74952
vertex 8.73865 99.27659 71.75454
vertex 15.08242 92.6373 34.40433
endloop
endfacet
facet normal 0.5667103920781209 0.822713514782878 -0.04451745842100195
outer loop
vertex 21.69077 19.64195 46.22916
vertex 28.72719 16.02338 68.9296
vertex 32.11671 12.55581 47.99533
endloop
endfacet
facet normal -0.5659141741424338 0.11382176283595341 0.8165695033551051
outer loop
vertex -26.71573 -11.30035 102.97908
vertex -9.83201 14.01915 111.15086
vertex -24.06731 31.19739 98.89077
endloop
endfacet
facet normal -0.830218363782037 0.3255556874566763 0.4524941577564161
outer loop
vertex -20.26754 -67.56499 96.49646
vertex -18.61532 -56.74128 91.74056
vertex -23.54755 -60.58143 85.45397
endloop
endfacet
facet normal -0.5898529383493885 0.7995797295098825 0.11289715354027177
outer loop
vertex -20.60062 91.57217 36.1361
vertex -27.12955 85.91541 42.08773
vertex -14.29015 94.95298 45.16221
endloop
endfacet
facet normal -0.03298391030794952 0.005730513444725243 -0.9994394543325059
outer loop
vertex 12.96862 14.5279 0.00043
vertex 9.34395 -12.41493 -0.03443
vertex 6.67275 -1.21559 0.11794
endloop
endfacet
facet normal -0.8293149931092259 0.05935036103529447 0.5556205331422022
outer loop
vertex 6.11349 63.70806 3.41737
vertex 12.79857 72.01554 12.50808
vertex 4.91864 78.97743 0.0029
endloop
endfacet
facet normal -0.5140912506353417 -0.22423555733024245 -0.827906154614752
outer loop
vertex -7.73304 17.47868 39.42448
vertex -23.53705 20.43292 48.43789
vertex -8.83839 37.67148 34.6417
endloop
endfacet
facet normal -0.7422973688925503 0.6365474775710367 -0.20928909415721492
outer loop
vertex -27.12955 85.91541 42.08773
vertex -20.60062 91.57217 36.1361
vertex -24.3872 82.99716 23.4855
endloop
endfacet
facet normal 0.735769495398817 -0.1575567398315618 0.658649469273467
outer loop
vertex 23.74041 88.79021 7.86108
vertex 20.21087 58.73251 4.61373
vertex 26.91421 70.81829 0.01657
endloop
endfacet
facet normal 0.26427897024475405 0.8878571542023955 0.3766514298632042
outer loop
vertex 0.19064 95.22956 100.76191
vertex 11.30919 96.95481 88.89371
vertex -0.085 105.55215 76.62251
endloop
endfacet
facet normal -0.8293112628893768 -0.3764255116729571 0.4129729572339809
outer loop
vertex 6.67275 -1.21559 0.11794
vertex 13.99057 -3.74441 12.50819
vertex 8.93576 7.34944 12.46944
endloop
endfacet
facet normal 0.9509907831333797 0.0795546566257779 0.29881028597509063
outer loop
vertex 20.06082 -37.88645 88.62321
vertex 17.027 -55.31643 102.91914
vertex 20.5529 -60.54696 93.09021
endloop
endfacet
facet normal 0.3643242112002563 0.5027583890374954 0.7839016975270136
outer loop
vertex 0.19064 95.22956 100.76191
vertex 3.87708 73.60719 112.9162
vertex 16.35237 83.76496 100.60349
endloop
endfacet
facet normal -0.07318644541638727 0.9026213569927761 -0.4241679267788096
outer loop
vertex -28.36598 17.33114 42.67055
vertex -23.53705 20.43292 48.43789
vertex -7.73304 17.47868 39.42448
endloop
endfacet
facet normal 0.1159444379166704 -0.00449610074233378 -0.9932455247290582
outer loop
vertex -10.5565 -12.81511 -0.04631
vertex -9.26037 8.59597 0.00807
vertex -9.48191 -12.17446 0.07623
endloop
endfacet
facet normal -0.2755252489539166 -0.6000796583105438 0.7509928367639621
outer loop
vertex 6.11349 63.70806 3.41737
vertex 20.21087 58.73251 4.61373
vertex 12.79857 72.01554 12.50808
endloop
endfacet
facet normal 0.8655321111439689 -0.4675468574874806 -0.17959426670204756
outer loop
vertex -21.36507 -16.24424 6.80284
vertex -21.44407 -13.77329 -0.01064
vertex -12.30179 -1.7694 12.7991
endloop
endfacet
facet normal 0.7255538270761188 -0.49189079507275857 -0.4812640540679169
outer loop
vertex -5.19777 64.9346 37.67039
vertex -12.61461 72.51445 18.74154
vertex -6.6648 86.0626 13.86417
endloop
endfacet
facet normal 0.16115713608387525 0.9803908684177813 -0.11341129843305738
outer loop
vertex 15.28821 17.6247 19.37288
vertex 27.89127 16.45877 27.20284
vertex 25.16681 13.86398 0.90057
endloop
endfacet
facet normal -0.9542934913472946 -0.22995372725018462 -0.19090630082828197
outer loop
vertex -30.77714 -14.76946 57.50108
vertex -32.78647 5.03489 43.69015
vertex -27.65796 -1.14744 25.50084
endloop
endfacet
facet normal 0.8541847960652162 0.09371241857971789 -0.5114550975158667
outer loop
vertex 25.4478 29.45734 49.09492
vertex 20.22823 48.15622 43.80382
vertex 30.0711 46.87351 60.00744
endloop
endfacet
facet normal -0.9324723046869747 0.00428610828621073 0.3612160437570852
outer loop
vertex -14.38331 -53.44585 102.62631
vertex -20.48205 -37.67112 86.69535
vertex -18.61532 -56.74128 91.74056
endloop
endfacet
facet normal 0.605584805532618 -0.32590958979288903 -0.7259820814517752
outer loop
vertex 22.17317 -71.09831 77.32093
vertex 12.4364 -85.72881 75.76687
vertex 8.45699 -65.97785 63.58076
endloop
endfacet
facet normal 0.10439694140751914 0.06554286337367059 0.9923736250452928
outer loop
vertex 8.03136 -55.42512 108.5312
vertex -8.47141 -60.85434 110.62586
vertex 10.82176 -68.85516 109.12466
endloop
endfacet
facet normal 0.9698300817891535 0.16728043972911993 -0.1773326448820862
outer loop
vertex 26.02594 90.55596 57.28533
vertex 30.32924 71.68177 63.01573
vertex 22.29422 90.25092 36.58885
endloop
endfacet
facet normal 0.5424099380087282 -0.8329605755914903 -0.10939898838499765
outer loop
vertex 30.9365 -10.30972 0.37178
vertex 25.90334 -14.48492 7.20677
vertex 19.25039 -17.96742 0.7365
endloop
endfacet
facet normal 0.9857099634178506 0.11032556807105023 0.12729547143783157
outer loop
vertex 25.993 89.81605 80.87654
vertex 28.67789 60.21284 85.74292
vertex 30.32924 71.68177 63.01573
endloop
endfacet
facet normal 0.17661601693626014 0.34207669240812866 0.9229248718463953
outer loop
vertex 23.59228 -66.17803 105.68856
vertex 17.027 -55.31643 102.91914
vertex 10.82176 -68.85516 109.12466
endloop
endfacet
facet normal 0.00034609103572140693 -0.0038190683955206797 -0.9999926474417626
outer loop
vertex -25.66945 78.60233 -0.01293
vertex -5.98689 80.23675 -0.01236
vertex -14.94571 60.96764 0.05813
endloop
endfacet
facet normal 0.7533867155327971 -0.6183702822175761 -0.2236663830996059
outer loop
vertex 26.80889 59.67485 63.75124
vertex 20.03169 58.03662 45.45247
vertex 26.86515 69.36809 37.14185
endloop
endfacet
facet normal 0.9114847206204754 -0.2545517145478601 -0.32310838536961317
outer loop
vertex 25.4478 29.45734 49.09492
vertex 28.72719 16.02338 68.9296
vertex 21.69077 19.64195 46.22916
endloop
endfacet
facet normal -0.9892793684494834 0.0012129454138809657 -0.14603033905190402
outer loop
vertex -27.12955 85.91541 42.08773
vertex -24.3872 82.99716 23.4855
vertex -25.91888 68.85542 33.74437
endloop
endfacet
facet normal 0.849547067445948 -0.04424664366964015 0.5256538925167034
outer loop
vertex 14.59887 15.33269 107.95769
vertex 30.93028 47.82872 84.29866
vertex 18.48617 53.85464 104.91771
endloop
endfacet
facet normal -0.7338250702900522 -0.674228046903428 -0.08317034917919176
outer loop
vertex -30.77714 -14.76946 57.50108
vertex -25.5108 -24.01453 85.98134
vertex -37.42283 -9.65425 74.67013
endloop
endfacet
facet normal -0.0784167838623619 -0.865646330965297 0.49447673119673025
outer loop
vertex -9.6224 -87.80604 97.49199
vertex 1.07815 -93.03263 90.03911
vertex 6.04938 -87.21625 101.00981
endloop
endfacet
facet normal 0.8537671728874722 0.10217073316146875 -0.5105318362110057
outer loop
vertex 30.0711 46.87351 60.00744
vertex 20.22823 48.15622 43.80382
vertex 20.03169 58.03662 45.45247
endloop
endfacet
facet normal 0.9604339619649066 -0.13886185049770644 0.24142077619944982
outer loop
vertex 20.21087 58.73251 4.61373
vertex 23.74041 88.79021 7.86108
vertex 20.5046 75.68691 13.19713
endloop
endfacet
facet normal -0.8244174569400544 -0.5350702453623989 -0.18448763974943144
outer loop
vertex -21.36507 -16.24424 6.80284
vertex -30.05607 -1.91393 4.07794
vertex -21.44407 -13.77329 -0.01064
endloop
endfacet
facet normal -0.6542895886212642 -0.21343246956158973 -0.7255010097571594
outer loop
vertex 6.11349 63.70806 3.41737
vertex 4.91864 78.97743 0.0029
vertex 10.17614 62.73799 0.03887
endloop
endfacet
facet normal 0.8763584178880507 0.32680410192669374 -0.35382905810665144
outer loop
vertex 26.80889 59.67485 63.75124
vertex 30.0711 46.87351 60.00744
vertex 20.03169 58.03662 45.45247
endloop
endfacet
facet normal 0.27029878787648026 -0.3520814586711762 0.8960899573884769
outer loop
vertex 0.47355 -23.84898 111.16118
vertex 14.31414 -29.62045 104.71861
vertex 9.84256 -5.91982 115.37961
endloop
endfacet
facet normal -0.29792906490819676 -0.3865387462668134 0.8728264832814182
outer loop
vertex -8.29733 -5.6908 116.20885
vertex -15.77583 -24.26969 105.42833
vertex 0.47355 -23.84898 111.16118
endloop
endfacet
facet normal 0.4120687562972331 0.8847019406971638 -0.2179491138094478
outer loop
vertex -14.29015 94.95298 45.16221
vertex -7.13508 97.8047 70.26579
vertex -3.60661 92.06385 53.63361
endloop
endfacet
facet normal -0.9252414412804582 0.3693604400647378 -0.086609125688021
outer loop
vertex 6.67275 -1.21559 0.11794
vertex 8.93576 7.34944 12.46944
vertex 12.96862 14.5279 0.00043
endloop
endfacet
facet normal -0.6305795635026378 -0.7451878577928933 -0.21694347349220186
outer loop
vertex -15.69229 58.03893 41.17321
vertex -28.74732 61.68562 66.5935
vertex -25.91888 68.85542 33.74437
endloop
endfacet
facet normal 0.43501751500068614 -0.8684436449815102 -0.23783481060151124
outer loop
vertex 20.5046 75.68691 13.19713
vertex 8.70755 63.80105 35.02016
vertex 12.79857 72.01554 12.50808
endloop
endfacet
facet normal 0.9258775350630044 -0.25244962047220476 -0.28110492558668365
outer loop
vertex -1.49321 79.63922 36.66647
vertex -5.19777 64.9346 37.67039
vertex -6.6648 86.0626 13.86417
endloop
endfacet
facet normal 0.43146840363725864 0.02817109948396525 0.9016880867664717
outer loop
vertex 14.31414 -29.62045 104.71861
vertex 0.47355 -23.84898 111.16118
vertex 8.03136 -55.42512 108.5312
endloop
endfacet
facet normal -0.9198523044922541 -0.2828571241752371 -0.2717785591683126
outer loop
vertex -37.42283 -9.65425 74.67013
vertex -32.78647 5.03489 43.69015
vertex -30.77714 -14.76946 57.50108
endloop
endfacet
facet normal 0.6186089616623804 0.1807108631694095 -0.7646349040447726
outer loop
vertex 8.45699 -65.97785 63.58076
vertex 4.68433 -51.07282 64.05118
vertex 16.98454 -53.92884 73.32738
endloop
endfacet
facet normal 0.8233584535469721 0.5673818046515341 0.01259939375950722
outer loop
vertex 22.29422 90.25092 36.58885
vertex 26.23697 84.64491 31.38634
vertex 23.74041 88.79021 7.86108
endloop
endfacet
facet normal 0.9818868233802842 -0.13157622877014755 -0.136330341798151
outer loop
vertex 30.87935 -4.68372 44.30505
vertex 26.80782 0.40418 10.07035
vertex 27.92169 8.93872 9.85581
endloop
endfacet
facet normal 0.560396164003468 -0.675322766536234 -0.47947398299391103
outer loop
vertex 16.13342 -28.04903 60.63009
vertex 19.28204 -16.19734 47.61741
vertex 33.78455 -12.83307 59.82909
endloop
endfacet
facet normal -0.16762388977605494 -0.5245638875020913 0.834706510999548
outer loop
vertex -9.6224 -87.80604 97.49199
vertex 6.04938 -87.21625 101.00981
vertex -10.84476 -70.38388 108.19532
endloop
endfacet
facet normal 0.9412078363957037 0.31055567079357577 -0.1329773817055757
outer loop
vertex 27.89127 16.45877 27.20284
vertex 32.11671 12.55581 47.99533
vertex 27.92169 8.93872 9.85581
endloop
endfacet
facet normal -0.8957457171867932 -0.4245096249839809 0.1320272261220293
outer loop
vertex -19.21835 53.28639 104.2371
vertex -31.14306 72.11195 83.86345
vertex -28.74732 61.68562 66.5935
endloop
endfacet
facet normal 0.9837275626431163 0.17476828437999367 -0.041666884586049
outer loop
vertex 30.0711 46.87351 60.00744
vertex 30.93028 47.82872 84.29866
vertex 32.6272 35.46391 72.49865
endloop
endfacet
facet normal -0.17267118010053595 0.46011273426540933 0.8709081095784428
outer loop
vertex 0.19064 95.22956 100.76191
vertex -12.09811 86.17699 103.10807
vertex 3.87708 73.60719 112.9162
endloop
endfacet
facet normal -0.9053139112714164 -0.41284656944393905 -0.09982200236832034
outer loop
vertex 13.99057 -3.74441 12.50819
vertex 9.8657 -1.44767 40.41888
vertex 8.93576 7.34944 12.46944
endloop
endfacet
facet normal 0.44162424126515304 0.8573056408671178 -0.26456580970412313
outer loop
vertex -3.60661 92.06385 53.63361
vertex -6.9922 88.49391 36.41412
vertex -14.29015 94.95298 45.16221
endloop
endfacet
facet normal 0.6785886749056484 -0.653361389760562 0.33561332610601624
outer loop
vertex -7.69346 72.26081 7.37973
vertex -17.65311 61.50284 6.57423
vertex -14.94571 60.96764 0.05813
endloop
endfacet
facet normal -0.3377908389237967 0.27344655311212934 0.9006244121331893
outer loop
vertex 3.87708 73.60719 112.9162
vertex -12.09811 86.17699 103.10807
vertex -15.51459 65.95346 107.96692
endloop
endfacet
facet normal 0.9581920663945943 0.23235031919288218 -0.16697692376320528
outer loop
vertex 27.92169 8.93872 9.85581
vertex 30.9365 -10.30972 0.37178
vertex 25.16681 13.86398 0.90057
endloop
endfacet
facet normal 0.579566994312312 0.1500214738505898 0.8009966644671432
outer loop
vertex 22.79921 7.87351 103.42133
vertex 14.59887 15.33269 107.95769
vertex 9.84256 -5.91982 115.37961
endloop
endfacet
facet normal 0.9826554589827297 0.030553569520486157 -0.18290633756378707
outer loop
vertex -8.3011 6.4102 4.79658
vertex -8.2222 -12.00411 2.14445
vertex -9.26037 8.59597 0.00807
endloop
endfacet
facet normal 0.4069164194218608 0.9126682351845394 -0.03815390006317006
outer loop
vertex -21.2319 19.41092 25.39962
vertex -12.25664 15.80902 34.96197
vertex -13.04069 14.83533 3.30862
endloop
endfacet
facet normal -0.02258061366243029 -0.008852337647894577 -0.9997058327352081
outer loop
vertex -5.8031 -82.75336 68.31526
vertex 5.57862 -87.33632 68.09876
vertex -4.74673 -99.74054 68.44182
endloop
endfacet
facet normal -0.17950173092786195 0.08869258053902185 -0.9797513739471002
outer loop
vertex -5.19777 64.9346 37.67039
vertex 0.73652 76.61373 37.64042
vertex 8.70755 63.80105 35.02016
endloop
endfacet
facet normal 0.582059107394686 0.652880736394883 0.48472047567992904
outer loop
vertex 11.30919 96.95481 88.89371
vertex 16.35237 83.76496 100.60349
vertex 25.993 89.81605 80.87654
endloop
endfacet
facet normal 0.44753869449747125 0.038227670023124584 0.8934471233218575
outer loop
vertex 14.59887 15.33269 107.95769
vertex 1.72452 35.46349 113.54528
vertex 0.20241 6.48262 115.54772
endloop
endfacet
facet normal 0.46901858599419904 0.8827334633911568 0.028340758660551454
outer loop
vertex 25.993 89.81605 80.87654
vertex 26.02594 90.55596 57.28533
vertex 8.73865 99.27659 71.75454
endloop
endfacet
facet normal -0.6670305998334468 -0.3936922515249803 0.6325160788272688
outer loop
vertex -12.61461 72.51445 18.74154
vertex -23.03997 77.27069 10.70769
vertex -17.65311 61.50284 6.57423
endloop
endfacet
facet normal 0.8555770646647851 -0.44729137073937475 0.2606114273812287
outer loop
vertex 25.92638 -14.64296 102.70512
vertex 26.79341 -23.00388 85.50872
vertex 36.74454 -5.8707 82.24549
endloop
endfacet
facet normal -0.5436747227104697 0.8299915540568928 -0.12462670692880232
outer loop
vertex -27.86377 14.25763 20.01067
vertex -28.36598 17.33114 42.67055
vertex -21.2319 19.41092 25.39962
endloop
endfacet
facet normal 0.9872064976135216 -0.042880076261940465 -0.15357288214204357
outer loop
vertex 16.13342 -28.04903 60.63009
vertex 20.06082 -37.88645 88.62321
vertex 16.98454 -53.92884 73.32738
endloop
endfacet
facet normal 0.31277319755353056 -0.7589108723319653 0.5711630369242003
outer loop
vertex 21.30485 -79.13512 89.72494
vertex 23.59228 -66.17803 105.68856
vertex 10.82176 -68.85516 109.12466
endloop
endfacet
facet normal 0.018931308756549997 -0.0012532470296053202 -0.9998200012605504
outer loop
vertex 12.96862 14.5279 0.00043
vertex 30.9365 -10.30972 0.37178
vertex 9.34395 -12.41493 -0.03443
endloop
endfacet
facet normal -0.9407163119944862 0.3327157778233401 -0.06597750779547669
outer loop
vertex -32.78647 5.03489 43.69015
vertex -28.36598 17.33114 42.67055
vertex -27.86377 14.25763 20.01067
endloop
endfacet
facet normal 0.032011043224298284 -0.1400158569191495 -0.9896316753837704
outer loop
vertex -7.73304 17.47868 39.42448
vertex 4.071 16.3468 39.96644
vertex -0.39388 -9.85888 43.52967
endloop
endfacet
facet normal 0.867305449167667 -0.4961992947847322 0.03959188931088747
outer loop
vertex 36.74454 -5.8707 82.24549
vertex 26.79341 -23.00388 85.50872
vertex 33.78455 -12.83307 59.82909
endloop
endfacet
facet normal -0.9304904140012181 -0.14134408102584842 -0.3379488721845361
outer loop
vertex -29.4188 29.60779 60.79508
vertex -23.53705 20.43292 48.43789
vertex -30.33271 13.24462 70.15514
endloop
endfacet
facet normal -0.8148799183338793 -0.4267339879812619 -0.39226116580382875
outer loop
vertex 6.57395 86.43509 14.82931
vertex 8.70755 63.80105 35.02016
vertex 0.73652 76.61373 37.64042
endloop
endfacet
facet normal -0.9370789782095965 0.34608737971614406 0.04589677765237716
outer loop
vertex -24.3872 82.99716 23.4855
vertex -20.60062 91.57217 36.1361
vertex -21.73024 92.24941 7.96577
endloop
endfacet
facet normal -0.01326572398430698 -0.23114617083590716 -0.9728285914152965
outer loop
vertex 8.1468 36.71217 34.63802
vertex -7.73304 17.47868 39.42448
vertex -8.83839 37.67148 34.6417
endloop
endfacet
facet normal 0.8679867380961203 0.4715852021953648 -0.1555841237389412
outer loop
vertex -12.4621 94.28087 6.43176
vertex -6.6648 86.0626 13.86417
vertex -5.98689 80.23675 -0.01236
endloop
endfacet
facet normal -0.6210687897439084 -0.7719137364896224 -0.135730401254349
outer loop
vertex -13.67265 -28.93658 59.80513
vertex -25.5108 -24.01453 85.98134
vertex -30.77714 -14.76946 57.50108
endloop
endfacet
facet normal 0.18281313967316665 0.9642900910334034 0.19163500801688127
outer loop
vertex -28.36598 17.33114 42.67055
vertex -12.25664 15.80902 34.96197
vertex -21.2319 19.41092 25.39962
endloop
endfacet
facet normal -0.47138575773926916 0.7571200633976706 0.45228826759190044
outer loop
vertex -12.04455 98.8286 81.98539
vertex -12.09811 86.17699 103.10807
vertex 0.19064 95.22956 100.76191
endloop
endfacet
facet normal -0.7283545189344076 -0.05038482366694551 -0.6833454940891018
outer loop
vertex -12.19032 -87.02693 75.43828
vertex -5.8031 -82.75336 68.31526
vertex -4.74673 -99.74054 68.44182
endloop
endfacet
facet normal -0.955123681950666 -0.06280782451475068 0.2894718109880945
outer loop
vertex -24.06731 31.19739 98.89077
vertex -31.66138 49.4479 77.79372
vertex -33.24652 39.37891 70.37878
endloop
endfacet
facet normal 0.7712135490025086 -0.5563407207725137 0.3093778664437309
outer loop
vertex 14.31414 -29.62045 104.71861
vertex 26.79341 -23.00388 85.50872
vertex 25.92638 -14.64296 102.70512
endloop
endfacet
facet normal 0.9008643695889437 -0.15969780515668225 0.4036582696207939
outer loop
vertex 20.06082 -37.88645 88.62321
vertex 14.31414 -29.62045 104.71861
vertex 8.03136 -55.42512 108.5312
endloop
endfacet
facet normal 0.7068033358202247 0.13008563960505093 -0.6953465113466432
outer loop
vertex 20.03169 58.03662 45.45247
vertex 20.22823 48.15622 43.80382
vertex 8.70755 63.80105 35.02016
endloop
endfacet
facet normal -0.15269944129245272 -0.11827067282589959 0.981170183290484
outer loop
vertex 0.47355 -23.84898 111.16118
vertex -8.3689 -45.52254 107.17249
vertex 8.03136 -55.42512 108.5312
endloop
endfacet
facet normal -0.5995046617942011 -0.6260787025392861 -0.49861770798252314
outer loop
vertex 22.02747 -6.5942 32.25851
vertex 19.28204 -16.19734 47.61741
vertex 9.8657 -1.44767 40.41888
endloop
endfacet
facet normal -0.2863572558443732 -0.4436119304926145 -0.8492396464778925
outer loop
vertex -3.36884 -39.00996 61.59273
vertex -16.49101 -49.40707 71.4485
vertex -13.67265 -28.93658 59.80513
endloop
endfacet
facet normal -0.8887836947946651 -0.42214851727154873 -0.17847737456769322
outer loop
vertex -4.74673 -99.74054 68.44182
vertex -5.18538 -103.30694 79.06174
vertex -12.19032 -87.02693 75.43828
endloop
endfacet
facet normal -0.9591335426020693 0.12988276174054364 0.25138280700607496
outer loop
vertex -23.03997 77.27069 10.70769
vertex -21.73024 92.24941 7.96577
vertex -25.66945 78.60233 -0.01293
endloop
endfacet
facet normal -0.48311844795813313 -0.11433914412712763 0.8680570979853804
outer loop
vertex -15.51459 65.95346 107.96692
vertex -19.21835 53.28639 104.2371
vertex 1.72452 35.46349 113.54528
endloop
endfacet
facet normal -0.47726948657360696 -0.668908531274108 -0.5698905280617332
outer loop
vertex -30.77714 -14.76946 57.50108
vertex -17.19848 -20.4447 52.79059
vertex -13.67265 -28.93658 59.80513
endloop
endfacet
facet normal -0.1851339595469422 -0.1179686300560236 -0.9756068979589968
outer loop
vertex 8.45699 -65.97785 63.58076
vertex -5.8031 -82.75336 68.31526
vertex -15.96527 -67.10003 68.35089
endloop
endfacet
facet normal -0.3669658562433582 -0.9272659843487697 0.07425533395848594
outer loop
vertex -22.52995 -4.27596 11.77569
vertex -27.65796 -1.14744 25.50084
vertex -30.05607 -1.91393 4.07794
endloop
endfacet
facet normal -0.05563156900280853 0.940111776734351 -0.33629596455453875
outer loop
vertex -7.13508 97.8047 70.26579
vertex 8.73865 99.27659 71.75454
vertex -3.60661 92.06385 53.63361
endloop
endfacet
facet normal 0.8561972304293931 0.13308686823427138 0.49921356963591274
outer loop
vertex 28.67789 60.21284 85.74292
vertex 16.35237 83.76496 100.60349
vertex 18.48617 53.85464 104.91771
endloop
endfacet
facet normal -0.7189650483382051 0.15729899199853895 0.677012766780868
outer loop
vertex -8.3689 -45.52254 107.17249
vertex -14.38331 -53.44585 102.62631
vertex -8.47141 -60.85434 110.62586
endloop
endfacet
facet normal -0.9790431681284637 -0.13595140320356552 -0.15163011214123126
outer loop
vertex -18.61532 -56.74128 91.74056
vertex -20.48205 -37.67112 86.69535
vertex -16.49101 -49.40707 71.4485
endloop
endfacet
facet normal -0.3219794687545871 -0.47470676278411844 -0.8191353435590095
outer loop
vertex -3.36884 -39.00996 61.59273
vertex -13.67265 -28.93658 59.80513
vertex -0.39388 -9.85888 43.52967
endloop
endfacet
facet normal 0.952892009209252 -0.2856320505820233 -0.10203504528084181
outer loop
vertex 26.80889 59.67485 63.75124
vertex 26.86515 69.36809 37.14185
vertex 30.32924 71.68177 63.01573
endloop
endfacet
facet normal 0.6130432712298505 -0.7144957714905262 -0.3371553649609652
outer loop
vertex 19.28204 -16.19734 47.61741
vertex 22.02747 -6.5942 32.25851
vertex 30.87935 -4.68372 44.30505
endloop
endfacet
facet normal -0.836250285158865 -0.46588558216702786 0.28919904028299687
outer loop
vertex -25.5108 -24.01453 85.98134
vertex -26.71573 -11.30035 102.97908
vertex -37.42283 -9.65425 74.67013
endloop
endfacet
facet normal -0.05420167585752522 0.952003203128983 -0.30125085820025854
outer loop
vertex -28.36598 17.33114 42.67055
vertex -7.73304 17.47868 39.42448
vertex -12.25664 15.80902 34.96197
endloop
endfacet
facet normal -0.44664498676771924 0.8903759690645129 -0.08797095831973925
outer loop
vertex 6.57395 86.43509 14.82931
vertex 5.24748 88.62706 43.74952
vertex 15.08242 92.6373 34.40433
endloop
endfacet
facet normal -0.8672145930662173 -0.2984961524937175 0.3985459779240563
outer loop
vertex -8.3689 -45.52254 107.17249
vertex -25.5108 -24.01453 85.98134
vertex -20.48205 -37.67112 86.69535
endloop
endfacet
facet normal 0.23109781033848234 0.5606456431610733 -0.7951542396675411
outer loop
vertex -23.28516 15.71913 0.95439
vertex -13.04069 14.83533 3.30862
vertex -9.26037 8.59597 0.00807
endloop
endfacet
facet normal -0.052426019499698766 0.029389397362696617 -0.9981922539281072
outer loop
vertex -23.28516 15.71913 0.95439
vertex -9.26037 8.59597 0.00807
vertex -21.44407 -13.77329 -0.01064
endloop
endfacet
facet normal -0.727870591648047 0.6657125381334041 0.16441173433153333
outer loop
vertex -18.61532 -56.74128 91.74056
vertex -16.49101 -49.40707 71.4485
vertex -23.54755 -60.58143 85.45397
endloop
endfacet
facet normal -0.4314340987631236 0.9014256290079857 -0.03600630211517011
outer loop
vertex -14.29015 94.95298 45.16221
vertex -12.4621 94.28087 6.43176
vertex -20.60062 91.57217 36.1361
endloop
endfacet
facet normal 0.06574991435558317 0.9840690486499692 -0.16518188838785472
outer loop
vertex 15.28821 17.6247 19.37288
vertex 25.16681 13.86398 0.90057
vertex 12.96862 14.5279 0.00043
endloop
endfacet
facet normal -0.21653860050319698 -0.095219229736912 -0.97161943824752
outer loop
vertex -0.39388 -9.85888 43.52967
vertex 4.071 16.3468 39.96644
vertex 9.8657 -1.44767 40.41888
endloop
endfacet
facet normal 0.9960072784963443 0.02476378002028705 0.08576862119337145
outer loop
vertex 20.5529 -60.54696 93.09021
vertex 21.30485 -79.13512 89.72494
vertex 22.17317 -71.09831 77.32093
endloop
endfacet
facet normal -0.9262900044794308 0.3206172094026623 -0.19796826168945733
outer loop
vertex -23.28516 15.71913 0.95439
vertex -30.05607 -1.91393 4.07794
vertex -27.86377 14.25763 20.01067
endloop
endfacet
facet normal 0.46785061160406594 -0.01182739584545424 0.8837284186497661
outer loop
vertex 18.48617 53.85464 104.91771
vertex 3.87708 73.60719 112.9162
vertex 1.72452 35.46349 113.54528
endloop
endfacet
facet normal 0.9433538743454378 -0.2948857800312479 -0.15207183990737544
outer loop
vertex 26.23697 84.64491 31.38634
vertex 20.5046 75.68691 13.19713
vertex 23.74041 88.79021 7.86108
endloop
endfacet
facet normal 0.9557186129389801 -0.28475919961800095 -0.07425719571130822
outer loop
vertex 28.67789 60.21284 85.74292
vertex 26.80889 59.67485 63.75124
vertex 30.32924 71.68177 63.01573
endloop
endfacet
facet normal 0.019743259669231347 -0.256767726831319 -0.9662714619378503
outer loop
vertex 8.1468 36.71217 34.63802
vertex 4.071 16.3468 39.96644
vertex -7.73304 17.47868 39.42448
endloop
endfacet
facet normal 0.25737462514849896 -0.9360843911221131 -0.23980057345054956
outer loop
vertex 13.99057 -3.74441 12.50819
vertex 26.80782 0.40418 10.07035
vertex 22.02747 -6.5942 32.25851
endloop
endfacet
facet normal 0.2158071340227219 -0.4494295778093214 -0.8668565830026522
outer loop
vertex 20.21087 58.73251 4.61373
vertex 10.17614 62.73799 0.03887
vertex 26.91421 70.81829 0.01657
endloop
endfacet
facet normal -0.1704086720636039 -0.9319620979081664 -0.3200117693900154
outer loop
vertex 7.03434 -103.93603 74.38673
vertex -5.18538 -103.30694 79.06174
vertex -4.74673 -99.74054 68.44182
endloop
endfacet
facet normal 0.5043102213927239 -0.3669297263379578 -0.7816864950402901
outer loop
vertex 16.98454 -53.92884 73.32738
vertex 4.68433 -51.07282 64.05118
vertex 16.13342 -28.04903 60.63009
endloop
endfacet
facet normal -0.9554206104746679 0.2952328806509695 -0.0030005437413111206
outer loop
vertex -30.33271 13.24462 70.15514
vertex -32.78647 5.03489 43.69015
vertex -37.42283 -9.65425 74.67013
endloop
endfacet
facet normal 0.6657432878900413 -0.6586537962830333 -0.35065802610421715
outer loop
vertex 20.5046 75.68691 13.19713
vertex 26.86515 69.36809 37.14185
vertex 20.03169 58.03662 45.45247
endloop
endfacet
facet normal -0.33158271830502767 -0.038200679747537575 0.9426524327599619
outer loop
vertex -15.77583 -24.26969 105.42833
vertex -8.3689 -45.52254 107.17249
vertex 0.47355 -23.84898 111.16118
endloop
endfacet
facet normal 0.33341007809668866 0.9398757066434721 -0.07396874938103133
outer loop
vertex 15.08242 92.6373 34.40433
vertex 26.02594 90.55596 57.28533
vertex 22.29422 90.25092 36.58885
endloop
endfacet
facet normal 0.6753668999429688 0.7372349567105223 0.01908321423288456
outer loop
vertex -14.29015 94.95298 45.16221
vertex -6.9922 88.49391 36.41412
vertex -12.4621 94.28087 6.43176
endloop
endfacet
facet normal 0.38112970795615464 0.9192412964539509 -0.09866906610947372
outer loop
vertex 8.73865 99.27659 71.75454
vertex 26.02594 90.55596 57.28533
vertex 15.08242 92.6373 34.40433
endloop
endfacet
facet normal -0.7806879586599289 0.39886074492864665 0.48107839003467856
outer loop
vertex -12.09811 86.17699 103.10807
vertex -25.78204 91.81171 76.23023
vertex -31.14306 72.11195 83.86345
endloop
endfacet
facet normal 0.027435571635918483 -0.08928797439946087 -0.9956279159588945
outer loop
vertex 9.34395 -12.41493 -0.03443
vertex 30.9365 -10.30972 0.37178
vertex 19.25039 -17.96742 0.7365
endloop
endfacet
facet normal -0.19752104297048206 -0.5864733990039112 -0.7855153657597361
outer loop
vertex -5.19777 64.9346 37.67039
vertex 8.70755 63.80105 35.02016
vertex 20.22823 48.15622 43.80382
endloop
endfacet
facet normal -0.4210431257629521 -0.6656542411094301 0.6161388784525708
outer loop
vertex 13.99057 -3.74441 12.50819
vertex 9.34395 -12.41493 -0.03443
vertex 19.25039 -17.96742 0.7365
endloop
endfacet
facet normal 0.6297580497457602 -0.043666539798072175 -0.7755630419782004
outer loop
vertex 8.1468 36.71217 34.63802
vertex 20.22823 48.15622 43.80382
vertex 25.4478 29.45734 49.09492
endloop
endfacet
facet normal -0.921339153461728 0.3821794102927026 -0.07122543539177893
outer loop
vertex 5.24748 88.62706 43.74952
vertex 6.57395 86.43509 14.82931
vertex 0.73652 76.61373 37.64042
endloop
endfacet
facet normal -0.9483815921395088 0.03456439384342907 0.31524222174253047
outer loop
vertex -28.83374 12.0648 86.64911
vertex -24.06731 31.19739 98.89077
vertex -33.24652 39.37891 70.37878
endloop
endfacet
facet normal -0.03352116449595776 0.4039986014795375 -0.914145208122546
outer loop
vertex -12.4621 94.28087 6.43176
vertex -5.98689 80.23675 -0.01236
vertex -25.66945 78.60233 -0.01293
endloop
endfacet
facet normal -0.1827555108874814 -0.15174941259176178 -0.971376620584576
outer loop
vertex -3.36884 -39.00996 61.59273
vertex 8.45699 -65.97785 63.58076
vertex -15.96527 -67.10003 68.35089
endloop
endfacet
facet normal 0.8492411507247031 0.5261352957263616 -0.04439728039774771
outer loop
vertex -6.6648 86.0626 13.86417
vertex -6.9922 88.49391 36.41412
vertex -1.49321 79.63922 36.66647
endloop
endfacet
facet normal -0.863455297621593 -0.2657405299011198 0.42875041664945146
outer loop
vertex -8.3689 -45.52254 107.17249
vertex -15.77583 -24.26969 105.42833
vertex -25.5108 -24.01453 85.98134
endloop
endfacet
endsolid JSxCAD
