solid JSxCAD
facet normal 0 -1 0
outer loop
vertex 1 -1.5 0.5
vertex 0 -1.5 0.5
vertex 0 -1.5 -0.5
endloop
endfacet
facet normal 0 -1 0
outer loop
vertex 0 -1.5 -0.5
vertex 1 -1.5 -0.5
vertex 1 -1.5 0.5
endloop
endfacet
facet normal 0 -0.894427190999916 0.447213595499958
outer loop
vertex 0 0 3.5
vertex 0 -1.5 0.5
vertex 1 -1.5 0.5
endloop
endfacet
facet normal 0 -0.894427190999916 0.447213595499958
outer loop
vertex 1 -1.5 0.5
vertex 1 0 3.5
vertex 0 0 3.5
endloop
endfacet
facet normal 0 0 1
outer loop
vertex 0 0 3.5
vertex 1 0 3.5
vertex 1 1 3.5
endloop
endfacet
facet normal 0 0 1
outer loop
vertex 1 1 3.5
vertex 0 1 3.5
vertex 0 0 3.5
endloop
endfacet
facet normal -0.7456463532839217 -0.6663418910997485 0
outer loop
vertex -0.76604 -0.64279 0
vertex 0 -1.5 -0.5
vertex 0 -1.5 0.5
endloop
endfacet
facet normal 1 0 0
outer loop
vertex 1 1 2.5
vertex 1 1 3.5
vertex 1 0 3.5
endloop
endfacet
facet normal 1 0 0
outer loop
vertex 1 0 3.5
vertex 1 -1.5 0.5
vertex 1 -1.5 -0.5
endloop
endfacet
facet normal 1 0 0
outer loop
vertex 1 -1.5 -0.5
vertex 1 -0.5 -0.5
vertex 1 0 0
endloop
endfacet
facet normal 1 0 0
outer loop
vertex 1 0 0
vertex 1 1 2.5
vertex 1 0 3.5
endloop
endfacet
facet normal 1 0 0
outer loop
vertex 1 0 3.5
vertex 1 -1.5 -0.5
vertex 1 0 0
endloop
endfacet
facet normal -0.7711921042138633 -0.5693945826213621 0.2846972913106811
outer loop
vertex -0.71985 -0.60402 0.34202
vertex 0 -1.5 0.5
vertex 0 0 3.5
endloop
endfacet
facet normal -0.7853641825236067 -0.5499363862867479 0.2842060376679205
outer loop
vertex -0.71985 -0.60402 0.34202
vertex 0 0 3.5
vertex -0.8138 -0.46985 0.34202
endloop
endfacet
facet normal -0.7675251059749447 -0.6350690941713382 0.08713470793286672
outer loop
vertex -0.75441 -0.63302 0.17365
vertex -0.76604 -0.64279 0
vertex 0 -1.5 0.5
endloop
endfacet
facet normal -0.774824759291728 -0.576947172876468 0.2584154641238924
outer loop
vertex -0.75441 -0.63302 0.17365
vertex 0 -1.5 0.5
vertex -0.71985 -0.60402 0.34202
endloop
endfacet
facet normal -0.7914551351131712 -0.5541649310428302 0.2578759358786453
outer loop
vertex -0.8138 -0.46985 0.34202
vertex -0.85287 -0.4924 0.17365
vertex -0.75441 -0.63302 0.17365
endloop
endfacet
facet normal -0.7914318881679658 -0.5541851821821596 0.2579037615867888
outer loop
vertex -0.75441 -0.63302 0.17365
vertex -0.71985 -0.60402 0.34202
vertex -0.8138 -0.46985 0.34202
endloop
endfacet
facet normal 0.5973131608057796 0 -0.8020080971712249
outer loop
vertex 0.64279 0 -0.76604
vertex 1 -0.5 -0.5
vertex 1 -1.5 -0.5
endloop
endfacet
facet normal 0.9955912596806361 0.08708915194096742 -0.03483566077638677
outer loop
vertex 0.98481 0.17365 0
vertex 1 1 2.5
vertex 1 0 0
endloop
endfacet
facet normal 0.8096201294261669 0.5668837856869597 -0.1521775921519919
outer loop
vertex 0.75441 0.63302 -0.17365
vertex 1 1 2.5
vertex 0.85287 0.4924 -0.17365
endloop
endfacet
facet normal -0.8160403021900206 -0.5714396653545762 0.08680399795556638
outer loop
vertex -0.86603 -0.5 0
vertex -0.76604 -0.64279 0
vertex -0.75441 -0.63302 0.17365
endloop
endfacet
facet normal -0.8160652598855871 -0.5713965686839375 0.08685305351046459
outer loop
vertex -0.75441 -0.63302 0.17365
vertex -0.85287 -0.4924 0.17365
vertex -0.86603 -0.5 0
endloop
endfacet
facet normal -0.9439299430159623 0.25293291941498763 0.21218199959962158
outer loop
vertex -0.92542 0.33682 0.17365
vertex -0.96985 0.17101 0.17365
vertex 0 1 3.5
endloop
endfacet
facet normal -0.8937956653343848 0.4167944177915524 0.16556485716257927
outer loop
vertex -0.92542 0.33682 0.17365
vertex 0 1 3.5
vertex -0.85287 0.4924 0.17365
endloop
endfacet
facet normal -0.9551182736010099 -0.08352456038905738 0.284205438451204
outer loop
vertex -0.93969 0 0.34202
vertex -0.92542 -0.16318 0.34202
vertex 0 0 3.5
endloop
endfacet
facet normal -0.9584674282149002 0 0.2852020144583751
outer loop
vertex -0.93969 0 0.34202
vertex 0 0 3.5
vertex 0 1 3.5
endloop
endfacet
facet normal -0.9260829778397065 -0.2481885990797269 0.2842054493537804
outer loop
vertex -0.88302 -0.32139 0.34202
vertex 0 0 3.5
vertex -0.92542 -0.16318 0.34202
endloop
endfacet
facet normal -0.8689527950403645 -0.4051523135706187 0.2842052828501142
outer loop
vertex -0.88302 -0.32139 0.34202
vertex -0.8138 -0.46985 0.34202
vertex 0 0 3.5
endloop
endfacet
facet normal 0.6460639874568347 0.05654941011873509 -0.7611855807400704
outer loop
vertex 0.63302 0.11162 -0.76604
vertex 1 -0.5 -0.5
vertex 0.64279 0 -0.76604
endloop
endfacet
facet normal 0.5735831664103626 -0.008682713704297873 -0.8191013134487037
outer loop
vertex 0.5 0 -0.86603
vertex 0.64279 0 -0.76604
vertex 1 -1.5 -0.5
endloop
endfacet
facet normal 0.7914318881679657 0.5541851821821594 -0.2579037615867889
outer loop
vertex 0.8138 0.46985 -0.34202
vertex 0.71985 0.60402 -0.34202
vertex 0.75441 0.63302 -0.17365
endloop
endfacet
facet normal 0.7914551351131712 0.5541649310428302 -0.2578759358786451
outer loop
vertex 0.75441 0.63302 -0.17365
vertex 0.85287 0.4924 -0.17365
vertex 0.8138 0.46985 -0.34202
endloop
endfacet
facet normal -0.7675251059749447 -0.6350690941713382 -0.08713470793286672
outer loop
vertex -0.75441 -0.63302 -0.17365
vertex 0 -1.5 -0.5
vertex -0.76604 -0.64279 0
endloop
endfacet
facet normal -0.7047070685038476 0.7047070685038473 0.08231582594755094
outer loop
vertex -0.76604 0.64279 0
vertex 0 1 3.5
vertex -0.64279 0.76604 0
endloop
endfacet
facet normal -0.9620381899533178 0.08412970321506194 0.25962417858953224
outer loop
vertex -0.92542 0.16318 0.34202
vertex -0.93969 0 0.34202
vertex 0 1 3.5
endloop
endfacet
facet normal -0.9619327002111656 0.09004654471501071 0.25802538644355
outer loop
vertex -0.92542 0.16318 0.34202
vertex 0 1 3.5
vertex -0.96985 0.17101 0.17365
endloop
endfacet
facet normal 0.5011044736479056 -0.043865399674315554 -0.8642743390853785
outer loop
vertex 0.4924 -0.08682 -0.86603
vertex 0.5 0 -0.86603
vertex 1 -1.5 -0.5
endloop
endfacet
facet normal 0.41389342102162296 -0.08606240344305445 -0.9062480337902106
outer loop
vertex 0.4924 -0.08682 -0.86603
vertex 1 -1.5 -0.5
vertex 0.33682 -0.05939 -0.93969
endloop
endfacet
facet normal 0.898728401431902 0.4190946492086681 -0.1290230036246312
outer loop
vertex 0.92542 0.33682 -0.17365
vertex 0.85287 0.4924 -0.17365
vertex 1 1 2.5
endloop
endfacet
facet normal 0.6980059835976744 0.698005983597674 -0.15992277424959395
outer loop
vertex 0.63302 0.75441 -0.17365
vertex 1 1 2.5
vertex 0.75441 0.63302 -0.17365
endloop
endfacet
facet normal 0.07924478776270064 -0.29576845931651385 -0.9519670593492089
outer loop
vertex 0.11698 -0.32139 -0.93969
vertex 1 -1.5 -0.5
vertex 0.05939 -0.33682 -0.93969
endloop
endfacet
facet normal -0.2569240027596093 -0.3669094730347729 -0.8940735402657467
outer loop
vertex -0.25 -0.43301 -0.86603
vertex 0 -1.5 -0.5
vertex -0.32139 -0.38302 -0.86603
endloop
endfacet
facet normal -0.21813523258663362 -0.36201242197934747 -0.9062913585801323
outer loop
vertex -0.25 -0.43301 -0.86603
vertex -0.17101 -0.2962 -0.93969
vertex 0 -1.5 -0.5
endloop
endfacet
facet normal -0.5632385580982692 -0.42817552825117855 -0.7067022312673187
outer loop
vertex -0.58682 -0.4924 -0.64279
vertex -0.4924 -0.41318 -0.76604
vertex 0 -1.5 -0.5
endloop
endfacet
facet normal -0.6708453835524039 -0.47178138711002565 -0.5721789878551716
outer loop
vertex -0.66341 -0.55667 -0.5
vertex -0.58682 -0.4924 -0.64279
vertex 0 -1.5 -0.5
endloop
endfacet
facet normal -0.5803326875744208 -0.4063403620264516 -0.7057630494159225
outer loop
vertex -0.55667 -0.32139 -0.76604
vertex -0.4924 -0.41318 -0.76604
vertex -0.58682 -0.4924 -0.64279
endloop
endfacet
facet normal -0.580316722406406 -0.4063490379329566 -0.7057711818050145
outer loop
vertex -0.58682 -0.4924 -0.64279
vertex -0.66341 -0.38302 -0.64279
vertex -0.55667 -0.32139 -0.76604
endloop
endfacet
facet normal -0.6420492211090311 -0.2994319785109378 -0.705771413361516
outer loop
vertex -0.55667 -0.32139 -0.76604
vertex -0.66341 -0.38302 -0.64279
vertex -0.71985 -0.262 -0.64279
endloop
endfacet
facet normal -0.6420483743021195 -0.29939915819583635 -0.7057861072078637
outer loop
vertex -0.71985 -0.262 -0.64279
vertex -0.60402 -0.21985 -0.76604
vertex -0.55667 -0.32139 -0.76604
endloop
endfacet
facet normal -0.8160687892304935 -0.5713990398779301 -0.08680362014602899
outer loop
vertex -0.85287 -0.4924 -0.17365
vertex -0.75441 -0.63302 -0.17365
vertex -0.76604 -0.64279 0
endloop
endfacet
facet normal -0.8160368267234431 -0.5714372316274047 -0.08685267837632446
outer loop
vertex -0.76604 -0.64279 0
vertex -0.86603 -0.5 0
vertex -0.85287 -0.4924 -0.17365
endloop
endfacet
facet normal -0.9028827290591487 -0.42103189351614173 -0.08680392968590793
outer loop
vertex -0.93969 -0.34202 0
vertex -0.92542 -0.33682 -0.17365
vertex -0.85287 -0.4924 -0.17365
endloop
endfacet
facet normal -0.9028990875033567 -0.42098712992465454 -0.08685087347521767
outer loop
vertex -0.85287 -0.4924 -0.17365
vertex -0.86603 -0.5 0
vertex -0.93969 -0.34202 0
endloop
endfacet
facet normal -0.774824759291728 -0.5769471728764681 -0.2584154641238924
outer loop
vertex -0.71985 -0.60402 -0.34202
vertex 0 -1.5 -0.5
vertex -0.75441 -0.63302 -0.17365
endloop
endfacet
facet normal -0.791438114933208 -0.5541895423565262 -0.2578752825953555
outer loop
vertex -0.85287 -0.4924 -0.17365
vertex -0.8138 -0.46985 -0.34202
vertex -0.71985 -0.60402 -0.34202
endloop
endfacet
facet normal -0.7914491937013605 -0.5541607709560206 -0.2579031091764798
outer loop
vertex -0.71985 -0.60402 -0.34202
vertex -0.75441 -0.63302 -0.17365
vertex -0.85287 -0.4924 -0.17365
endloop
endfacet
facet normal -0.7418091673309121 -0.5216876593546268 -0.4213800485795572
outer loop
vertex -0.71985 -0.60402 -0.34202
vertex -0.66341 -0.55667 -0.5
vertex 0 -1.5 -0.5
endloop
endfacet
facet normal -0.8756717512276526 -0.4082850506532266 -0.25788040157210174
outer loop
vertex -0.88302 -0.32139 -0.34202
vertex -0.8138 -0.46985 -0.34202
vertex -0.85287 -0.4924 -0.17365
endloop
endfacet
facet normal -0.8756378101022767 -0.4083270543959399 -0.25792914175723647
outer loop
vertex -0.85287 -0.4924 -0.17365
vertex -0.92542 -0.33682 -0.17365
vertex -0.88302 -0.32139 -0.34202
endloop
endfacet
facet normal -0.25883823498619507 0.9658819509003931 0.008650146477478632
outer loop
vertex -0.17365 0.98481 0
vertex -0.34202 0.93969 0
vertex 0 1 3.5
endloop
endfacet
facet normal -0.5728721819385397 0.8180859971897605 0.05052488855021636
outer loop
vertex -0.5 0.86603 0
vertex -0.64279 0.76604 0
vertex 0 1 3.5
endloop
endfacet
facet normal -0.4224446930985875 0.9060251509057127 0.02566918773784471
outer loop
vertex -0.5 0.86603 0
vertex 0 1 3.5
vertex -0.34202 0.93969 0
endloop
endfacet
facet normal -0.7188705397144876 0.6896847310144619 0.08694894442206026
outer loop
vertex -0.75441 0.63302 0.17365
vertex 0 1 3.5
vertex -0.76604 0.64279 0
endloop
endfacet
facet normal -0.8160403021900206 0.5714396653545762 0.08680399795556638
outer loop
vertex -0.75441 0.63302 0.17365
vertex -0.76604 0.64279 0
vertex -0.86603 0.5 0
endloop
endfacet
facet normal -0.8160652598855871 0.5713965686839375 0.08685305351046442
outer loop
vertex -0.86603 0.5 0
vertex -0.85287 0.4924 0.17365
vertex -0.75441 0.63302 0.17365
endloop
endfacet
facet normal -0.8130822627377112 0.5693079191377821 0.12159657572617844
outer loop
vertex -0.75441 0.63302 0.17365
vertex -0.85287 0.4924 0.17365
vertex 0 1 3.5
endloop
endfacet
facet normal -0.8160652598855871 0.5713965686839375 -0.08685305351046459
outer loop
vertex -0.75441 0.63302 -0.17365
vertex -0.85287 0.4924 -0.17365
vertex -0.86603 0.5 0
endloop
endfacet
facet normal -0.8160403021900206 0.5714396653545762 -0.08680399795556638
outer loop
vertex -0.86603 0.5 0
vertex -0.76604 0.64279 0
vertex -0.75441 0.63302 -0.17365
endloop
endfacet
facet normal -0.7044372306064092 0.7044372306064102 -0.08681230483718437
outer loop
vertex -0.64279 0.76604 0
vertex -0.63302 0.75441 -0.17365
vertex -0.75441 0.63302 -0.17365
endloop
endfacet
facet normal -0.70443723060641 0.7044372306064092 -0.08681230483718545
outer loop
vertex -0.75441 0.63302 -0.17365
vertex -0.76604 0.64279 0
vertex -0.64279 0.76604 0
endloop
endfacet
facet normal -0.7914318881679658 0.5541851821821596 -0.2579037615867888
outer loop
vertex -0.75441 0.63302 -0.17365
vertex -0.71985 0.60402 -0.34202
vertex -0.8138 0.46985 -0.34202
endloop
endfacet
facet normal -0.7914551351131712 0.5541649310428302 -0.2578759358786453
outer loop
vertex -0.8138 0.46985 -0.34202
vertex -0.85287 0.4924 -0.17365
vertex -0.75441 0.63302 -0.17365
endloop
endfacet
facet normal -0.9624952352184967 -0.08419933757598112 0.2579019071923604
outer loop
vertex -0.98481 0 0.17365
vertex -0.96985 -0.17101 0.17365
vertex -0.92542 -0.16318 0.34202
endloop
endfacet
facet normal -0.9624905016289854 -0.08416925761886039 0.25792939023281913
outer loop
vertex -0.92542 -0.16318 0.34202
vertex -0.93969 0 0.34202
vertex -0.98481 0 0.17365
endloop
endfacet
facet normal -0.9624905016289854 0.08416925761886039 0.25792939023281913
outer loop
vertex -0.98481 0 0.17365
vertex -0.93969 0 0.34202
vertex -0.92542 0.16318 0.34202
endloop
endfacet
facet normal -0.9624952352184967 0.08419933757598112 0.2579019071923604
outer loop
vertex -0.92542 0.16318 0.34202
vertex -0.96985 0.17101 0.17365
vertex -0.98481 0 0.17365
endloop
endfacet
facet normal -0.9622726063006509 -0.2578709983743263 0.08679849860902258
outer loop
vertex -0.98481 -0.17365 0
vertex -0.93969 -0.34202 0
vertex -0.92542 -0.33682 0.17365
endloop
endfacet
facet normal -0.9622765128263543 -0.2578490167352691 0.0868204896980325
outer loop
vertex -0.92542 -0.33682 0.17365
vertex -0.96985 -0.17101 0.17365
vertex -0.98481 -0.17365 0
endloop
endfacet
facet normal -0.9029027674492407 -0.4209888457419359 0.08680428729835156
outer loop
vertex -0.92542 -0.33682 0.17365
vertex -0.93969 -0.34202 0
vertex -0.86603 -0.5 0
endloop
endfacet
facet normal -0.9028789925119189 -0.42103015109101116 0.08685123345665698
outer loop
vertex -0.86603 -0.5 0
vertex -0.85287 -0.4924 0.17365
vertex -0.92542 -0.33682 0.17365
endloop
endfacet
facet normal -0.8756493255366595 -0.408332424268444 0.25788154253115664
outer loop
vertex -0.92542 -0.33682 0.17365
vertex -0.85287 -0.4924 0.17365
vertex -0.8138 -0.46985 0.34202
endloop
endfacet
facet normal -0.8756596829134602 -0.4082794237590591 0.257930284873392
outer loop
vertex -0.8138 -0.46985 0.34202
vertex -0.88302 -0.32139 0.34202
vertex -0.92542 -0.33682 0.17365
endloop
endfacet
facet normal -0.9332303291769029 -0.25010407658871575 0.25793236240936346
outer loop
vertex -0.92542 -0.33682 0.17365
vertex -0.88302 -0.32139 0.34202
vertex -0.92542 -0.16318 0.34202
endloop
endfacet
facet normal -0.933248725784023 -0.25007080927919995 0.2578980538293061
outer loop
vertex -0.92542 -0.16318 0.34202
vertex -0.96985 -0.17101 0.17365
vertex -0.92542 -0.33682 0.17365
endloop
endfacet
facet normal 0.7992756678580759 0.18081341525255784 -0.5731185877588798
outer loop
vertex 0.75441 0.13302 -0.64279
vertex 0.85287 0.15038 -0.5
vertex 1 -0.5 -0.5
endloop
endfacet
facet normal 0.6982873875974769 0.1114126654722936 -0.7070940123453526
outer loop
vertex 0.75441 0.13302 -0.64279
vertex 1 -0.5 -0.5
vertex 0.63302 0.11162 -0.76604
endloop
endfacet
facet normal 0.9619366212073094 0.25775794029455823 -0.09076773102469894
outer loop
vertex 0.96985 0.17101 -0.17365
vertex 0.92542 0.33682 -0.17365
vertex 1 1 2.5
endloop
endfacet
facet normal 0.9655714465953917 0.2451899352017502 -0.08691189329110074
outer loop
vertex 0.96985 0.17101 -0.17365
vertex 1 1 2.5
vertex 0.98481 0.17365 0
endloop
endfacet
facet normal 0.9924344159686564 0.08681569558827446 -0.08681569558827541
outer loop
vertex 1 0 0
vertex 1 -0.5 -0.5
vertex 0.96985 0.17101 -0.17365
endloop
endfacet
facet normal 0.9924344194824508 0.0868130079581831 -0.08681834296842522
outer loop
vertex 0.96985 0.17101 -0.17365
vertex 0.98481 0.17365 0
vertex 1 0 0
endloop
endfacet
facet normal 0.24518993520175367 0.965571446595391 -0.08691189329110131
outer loop
vertex 0.17101 0.96985 -0.17365
vertex 0.17365 0.98481 0
vertex 1 1 2.5
endloop
endfacet
facet normal 0.2577579402945585 0.9619366212073094 -0.09076773102469915
outer loop
vertex 0.17101 0.96985 -0.17365
vertex 1 1 2.5
vertex 0.33682 0.92542 -0.17365
endloop
endfacet
facet normal 0.4190946492086672 0.8987284014319025 -0.12902300362463065
outer loop
vertex 0.4924 0.85287 -0.17365
vertex 0.33682 0.92542 -0.17365
vertex 1 1 2.5
endloop
endfacet
facet normal 0.5668837856869601 0.8096201294261666 -0.1521775921519921
outer loop
vertex 0.4924 0.85287 -0.17365
vertex 1 1 2.5
vertex 0.63302 0.75441 -0.17365
endloop
endfacet
facet normal 0.16524078928313599 -0.23597544294118142 -0.957606950625255
outer loop
vertex 0.17101 -0.2962 -0.93969
vertex 0.21985 -0.262 -0.93969
vertex 1 -1.5 -0.5
endloop
endfacet
facet normal 0.12329362352107447 -0.2644523413594103 -0.9564850451254162
outer loop
vertex 0.17101 -0.2962 -0.93969
vertex 1 -1.5 -0.5
vertex 0.11698 -0.32139 -0.93969
endloop
endfacet
facet normal -0.24315591445578844 -0.34724746415280566 -0.9057010543797634
outer loop
vertex -0.25 -0.43301 -0.86603
vertex -0.32139 -0.38302 -0.86603
vertex -0.21985 -0.262 -0.93969
endloop
endfacet
facet normal -0.24315815123297382 -0.3472469036905921 -0.9057006687456176
outer loop
vertex -0.21985 -0.262 -0.93969
vertex -0.17101 -0.2962 -0.93969
vertex -0.25 -0.43301 -0.86603
endloop
endfacet
facet normal -0.2997566428030397 -0.29975664280304104 -0.9056996799110073
outer loop
vertex -0.38302 -0.32139 -0.86603
vertex -0.262 -0.21985 -0.93969
vertex -0.21985 -0.262 -0.93969
endloop
endfacet
facet normal -0.29975664280304054 -0.2997566428030415 -0.9056996799110066
outer loop
vertex -0.21985 -0.262 -0.93969
vertex -0.32139 -0.38302 -0.86603
vertex -0.38302 -0.32139 -0.86603
endloop
endfacet
facet normal -0.38563258148839613 -0.38563258148839946 -0.838197485196173
outer loop
vertex -0.38302 -0.32139 -0.86603
vertex -0.32139 -0.38302 -0.86603
vertex 0 -1.5 -0.5
endloop
endfacet
facet normal -0.4204439065923541 -0.39091703537256456 -0.8187861704162357
outer loop
vertex -0.38302 -0.32139 -0.86603
vertex 0 -1.5 -0.5
vertex -0.4924 -0.41318 -0.76604
endloop
endfacet
facet normal -0.47107515818118934 -0.3298398563711176 -0.8181038225638895
outer loop
vertex -0.38302 -0.32139 -0.86603
vertex -0.4924 -0.41318 -0.76604
vertex -0.55667 -0.32139 -0.76604
endloop
endfacet
facet normal -0.47107128434786605 -0.32986207458397326 -0.8180970949795686
outer loop
vertex -0.55667 -0.32139 -0.76604
vertex -0.43301 -0.25 -0.86603
vertex -0.38302 -0.32139 -0.86603
endloop
endfacet
facet normal -0.34724610227623665 -0.2431575900460147 -0.9057011266731291
outer loop
vertex -0.2962 -0.17101 -0.93969
vertex -0.262 -0.21985 -0.93969
vertex -0.38302 -0.32139 -0.86603
endloop
endfacet
facet normal -0.3472480124278544 -0.24315629837888109 -0.9057007410969615
outer loop
vertex -0.38302 -0.32139 -0.86603
vertex -0.43301 -0.25 -0.86603
vertex -0.2962 -0.17101 -0.93969
endloop
endfacet
facet normal 0.0076301258765472954 -0.08713950574918614 -0.9961668975211412
outer loop
vertex 0.03015 -0.17101 -0.98481
vertex 0 -0.17365 -0.98481
vertex 0 0 -1
endloop
endfacet
facet normal -0.03698979991579974 -0.07926798528832525 -0.9961668239860827
outer loop
vertex -0.05939 -0.16318 -0.98481
vertex -0.08682 -0.15038 -0.98481
vertex 0 0 -1
endloop
endfacet
facet normal -0.08449555701641862 -0.022626546218829258 -0.9961669238891102
outer loop
vertex -0.17101 -0.03015 -0.98481
vertex 0 0 -1
vertex -0.16318 -0.05939 -0.98481
endloop
endfacet
facet normal -0.7433105022646027 -0.34665712070578536 -0.5721174161718192
outer loop
vertex -0.71985 -0.262 -0.64279
vertex -0.66341 -0.38302 -0.64279
vertex -0.75 -0.43301 -0.5
endloop
endfacet
facet normal -0.743327044185246 -0.3466432674440363 -0.5721043178639256
outer loop
vertex -0.75 -0.43301 -0.5
vertex -0.8138 -0.2962 -0.5
vertex -0.71985 -0.262 -0.64279
endloop
endfacet
facet normal -0.671842906456353 -0.47044215809522416 -0.5721112522324553
outer loop
vertex -0.58682 -0.4924 -0.64279
vertex -0.66341 -0.55667 -0.5
vertex -0.75 -0.43301 -0.5
endloop
endfacet
facet normal -0.6718436419348109 -0.47043796430597234 -0.572113837038943
outer loop
vertex -0.75 -0.43301 -0.5
vertex -0.66341 -0.38302 -0.64279
vertex -0.58682 -0.4924 -0.64279
endloop
endfacet
facet normal -0.7428925903748602 -0.5201930244263238 -0.42131913854502784
outer loop
vertex -0.75 -0.43301 -0.5
vertex -0.66341 -0.55667 -0.5
vertex -0.71985 -0.60402 -0.34202
endloop
endfacet
facet normal -0.7428900996334511 -0.5201947146199803 -0.4213214434942024
outer loop
vertex -0.71985 -0.60402 -0.34202
vertex -0.8138 -0.46985 -0.34202
vertex -0.75 -0.43301 -0.5
endloop
endfacet
facet normal -0.8219597623113867 -0.38324164587898524 -0.4213169709434632
outer loop
vertex -0.75 -0.43301 -0.5
vertex -0.8138 -0.46985 -0.34202
vertex -0.88302 -0.32139 -0.34202
endloop
endfacet
facet normal -0.8219547506013094 -0.3833105261922633 -0.42126408400687254
outer loop
vertex -0.88302 -0.32139 -0.34202
vertex -0.8138 -0.2962 -0.5
vertex -0.75 -0.43301 -0.5
endloop
endfacet
facet normal -0.8756596829134602 0.4082794237590591 -0.257930284873392
outer loop
vertex -0.8138 0.46985 -0.34202
vertex -0.88302 0.32139 -0.34202
vertex -0.92542 0.33682 -0.17365
endloop
endfacet
facet normal -0.8756493255366595 0.408332424268444 -0.25788154253115664
outer loop
vertex -0.92542 0.33682 -0.17365
vertex -0.85287 0.4924 -0.17365
vertex -0.8138 0.46985 -0.34202
endloop
endfacet
facet normal -0.08714204243958792 0.9961958966184599 0
outer loop
vertex 0 1 0
vertex -0.17365 0.98481 0
vertex 0 1 3.5
endloop
endfacet
facet normal 0 1 0
outer loop
vertex 0 1 0
vertex 0 1 3.5
vertex 1 1 3.5
endloop
endfacet
facet normal 0 1 0
outer loop
vertex 1 1 3.5
vertex 1 1 2.5
vertex 0 1 0
endloop
endfacet
facet normal 0.08708915194096681 0.995591259680636 -0.03483566077638672
outer loop
vertex 0 1 0
vertex 1 1 2.5
vertex 0.17365 0.98481 0
endloop
endfacet
facet normal 0.08681842470789417 0.9924344123861636 -0.08681300733743647
outer loop
vertex 0.17101 0.96985 -0.17365
vertex 0 0.98481 -0.17365
vertex 0 1 0
endloop
endfacet
facet normal 0.08681300795818295 0.992434419482451 -0.0868183429684243
outer loop
vertex 0 1 0
vertex 0.17365 0.98481 0
vertex 0.17101 0.96985 -0.17365
endloop
endfacet
facet normal -0.5713990398779292 0.816068789230494 -0.08680362014603
outer loop
vertex -0.4924 0.85287 -0.17365
vertex -0.63302 0.75441 -0.17365
vertex -0.64279 0.76604 0
endloop
endfacet
facet normal -0.5714372316274042 0.8160368267234432 -0.08685267837632447
outer loop
vertex -0.64279 0.76604 0
vertex -0.5 0.86603 0
vertex -0.4924 0.85287 -0.17365
endloop
endfacet
facet normal -0.08681300795818295 0.992434419482451 -0.08681834296842507
outer loop
vertex -0.17101 0.96985 -0.17365
vertex -0.17365 0.98481 0
vertex 0 1 0
endloop
endfacet
facet normal -0.08681842470789417 0.9924344123861636 -0.08681300733743647
outer loop
vertex 0 1 0
vertex 0 0.98481 -0.17365
vertex -0.17101 0.96985 -0.17365
endloop
endfacet
facet normal 0.743327044185246 0.3466432674440363 -0.5721043178639256
outer loop
vertex 0.75 0.43301 -0.5
vertex 0.8138 0.2962 -0.5
vertex 0.71985 0.262 -0.64279
endloop
endfacet
facet normal 0.7433105022646027 0.34665712070578536 -0.5721174161718192
outer loop
vertex 0.71985 0.262 -0.64279
vertex 0.66341 0.38302 -0.64279
vertex 0.75 0.43301 -0.5
endloop
endfacet
facet normal 0.7922412169196662 0.21227986088342127 -0.5720936242233099
outer loop
vertex 0.85287 0.15038 -0.5
vertex 0.75441 0.13302 -0.64279
vertex 0.71985 0.262 -0.64279
endloop
endfacet
facet normal 0.7922389385417156 0.21226700952424074 -0.5721015477395004
outer loop
vertex 0.71985 0.262 -0.64279
vertex 0.8138 0.2962 -0.5
vertex 0.85287 0.15038 -0.5
endloop
endfacet
facet normal 0.6842817339971364 0.1833522773061028 -0.7057906565863126
outer loop
vertex 0.71985 0.262 -0.64279
vertex 0.75441 0.13302 -0.64279
vertex 0.63302 0.11162 -0.76604
endloop
endfacet
facet normal 0.6842820423103971 0.183351928550325 -0.705790448269448
outer loop
vertex 0.63302 0.11162 -0.76604
vertex 0.60402 0.21985 -0.76604
vertex 0.71985 0.262 -0.64279
endloop
endfacet
facet normal 0.95109523191985 0.1686132771397547 -0.2588192855865248
outer loop
vertex 0.92542 0.16318 -0.34202
vertex 0.96985 0.17101 -0.17365
vertex 1 -0.5 -0.5
endloop
endfacet
facet normal 0.8841445998316428 0.20001260028480142 -0.42223605520591934
outer loop
vertex 0.92542 0.16318 -0.34202
vertex 1 -0.5 -0.5
vertex 0.85287 0.15038 -0.5
endloop
endfacet
facet normal -0.6831857568511918 0.683185756851192 -0.25790394194608246
outer loop
vertex -0.60402 0.71985 -0.34202
vertex -0.71985 0.60402 -0.34202
vertex -0.75441 0.63302 -0.17365
endloop
endfacet
facet normal -0.6831857568511915 0.6831857568511926 -0.2579039419460815
outer loop
vertex -0.75441 0.63302 -0.17365
vertex -0.63302 0.75441 -0.17365
vertex -0.60402 0.71985 -0.34202
endloop
endfacet
facet normal 0.40828505065322795 0.8756717512276523 -0.25788040157210046
outer loop
vertex 0.4924 0.85287 -0.17365
vertex 0.46985 0.8138 -0.34202
vertex 0.32139 0.88302 -0.34202
endloop
endfacet
facet normal 0.4083270543959385 0.8756378101022767 -0.2579291417572387
outer loop
vertex 0.32139 0.88302 -0.34202
vertex 0.33682 0.92542 -0.17365
vertex 0.4924 0.85287 -0.17365
endloop
endfacet
facet normal 0.3844609000208622 -0.10300801679669852 -0.917376239517222
outer loop
vertex 0.32139 -0.11698 -0.93969
vertex 0.33682 -0.05939 -0.93969
vertex 1 -1.5 -0.5
endloop
endfacet
facet normal 0.3119427796897907 -0.14543473293329265 -0.9389038505917572
outer loop
vertex 0.32139 -0.11698 -0.93969
vertex 1 -1.5 -0.5
vertex 0.2962 -0.17101 -0.93969
endloop
endfacet
facet normal 0.2994263331177014 0.6420371161216198 -0.705784820294345
outer loop
vertex 0.21985 0.60402 -0.76604
vertex 0.262 0.71985 -0.64279
vertex 0.38302 0.66341 -0.64279
endloop
endfacet
facet normal 0.29940588616447084 0.6420628021360182 -0.7057701279051928
outer loop
vertex 0.38302 0.66341 -0.64279
vertex 0.32139 0.55667 -0.76604
vertex 0.21985 0.60402 -0.76604
endloop
endfacet
facet normal 0.08713950574918544 0.007630125876545644 -0.9961668975211412
outer loop
vertex 0.17365 0 -0.98481
vertex 0 0 -1
vertex 0.17101 0.03015 -0.98481
endloop
endfacet
facet normal 0.08713950574918544 -0.007630125876545644 -0.9961668975211412
outer loop
vertex 0.17365 0 -0.98481
vertex 0.17101 -0.03015 -0.98481
vertex 0 0 -1
endloop
endfacet
facet normal 0.109768770689489 -0.2354429011652645 -0.9656694347820075
outer loop
vertex 0.17101 -0.2962 -0.93969
vertex 0.11698 -0.32139 -0.93969
vertex 0.05939 -0.16318 -0.98481
endloop
endfacet
facet normal 0.10984049805403383 -0.23538475481421167 -0.9656754538602993
outer loop
vertex 0.05939 -0.16318 -0.98481
vertex 0.08682 -0.15038 -0.98481
vertex 0.17101 -0.2962 -0.93969
endloop
endfacet
facet normal 0.06719436340065817 -0.250927609940641 -0.9656708818726274
outer loop
vertex 0.05939 -0.33682 -0.93969
vertex 0.03015 -0.17101 -0.98481
vertex 0.05939 -0.16318 -0.98481
endloop
endfacet
facet normal 0.0672304840928809 -0.2509269979850365 -0.9656685268200752
outer loop
vertex 0.05939 -0.16318 -0.98481
vertex 0.11698 -0.32139 -0.93969
vertex 0.05939 -0.33682 -0.93969
endloop
endfacet
facet normal 0.022626546218826867 -0.08449555701641963 -0.9961669238891102
outer loop
vertex 0.05939 -0.16318 -0.98481
vertex 0.03015 -0.17101 -0.98481
vertex 0 0 -1
endloop
endfacet
facet normal 0.03698979991579974 -0.07926798528832525 -0.9961668239860827
outer loop
vertex 0.05939 -0.16318 -0.98481
vertex 0 0 -1
vertex 0.08682 -0.15038 -0.98481
endloop
endfacet
facet normal -0.07926798528832785 -0.03698979991580605 -0.9961668239860823
outer loop
vertex -0.15038 -0.08682 -0.98481
vertex -0.16318 -0.05939 -0.98481
vertex 0 0 -1
endloop
endfacet
facet normal -0.07166225830894671 -0.05016358081626266 -0.996166720932672
outer loop
vertex -0.15038 -0.08682 -0.98481
vertex 0 0 -1
vertex -0.13302 -0.11162 -0.98481
endloop
endfacet
facet normal -0.2128106800250849 -0.14896747601755625 -0.9656709095526383
outer loop
vertex -0.15038 -0.08682 -0.98481
vertex -0.13302 -0.11162 -0.98481
vertex -0.262 -0.21985 -0.93969
endloop
endfacet
facet normal -0.21277734618981806 -0.14899642177911235 -0.9656737892505104
outer loop
vertex -0.262 -0.21985 -0.93969
vertex -0.2962 -0.17101 -0.93969
vertex -0.15038 -0.08682 -0.98481
endloop
endfacet
facet normal -0.23542923737660196 -0.10976240032420063 -0.9656734901939379
outer loop
vertex -0.15038 -0.08682 -0.98481
vertex -0.2962 -0.17101 -0.93969
vertex -0.32139 -0.11698 -0.93969
endloop
endfacet
facet normal -0.23541166028530575 -0.10985305328661807 -0.9656674670326858
outer loop
vertex -0.32139 -0.11698 -0.93969
vertex -0.16318 -0.05939 -0.98481
vertex -0.15038 -0.08682 -0.98481
endloop
endfacet
facet normal -0.18368160766947378 -0.18368160766947175 -0.9656718562782679
outer loop
vertex -0.11162 -0.13302 -0.98481
vertex -0.21985 -0.262 -0.93969
vertex -0.262 -0.21985 -0.93969
endloop
endfacet
facet normal -0.18368160766947042 -0.18368160766947175 -0.9656718562782685
outer loop
vertex -0.262 -0.21985 -0.93969
vertex -0.13302 -0.11162 -0.98481
vertex -0.11162 -0.13302 -0.98481
endloop
endfacet
facet normal -0.06185322992281051 -0.06185322992280824 -0.996166831357194
outer loop
vertex -0.11162 -0.13302 -0.98481
vertex -0.13302 -0.11162 -0.98481
vertex 0 0 -1
endloop
endfacet
facet normal -0.05016358081626481 -0.07166225830894667 -0.9961667209326718
outer loop
vertex -0.11162 -0.13302 -0.98481
vertex 0 0 -1
vertex -0.08682 -0.15038 -0.98481
endloop
endfacet
facet normal -0.1490005563597454 -0.212783250661115 -0.9656718502900328
outer loop
vertex -0.17101 -0.2962 -0.93969
vertex -0.21985 -0.262 -0.93969
vertex -0.11162 -0.13302 -0.98481
endloop
endfacet
facet normal -0.14895933453858234 -0.21279904934083593 -0.965674728494776
outer loop
vertex -0.11162 -0.13302 -0.98481
vertex -0.08682 -0.15038 -0.98481
vertex -0.17101 -0.2962 -0.93969
endloop
endfacet
facet normal -0.9028827290591489 0.4210318935161418 -0.08680392968590789
outer loop
vertex -0.85287 0.4924 -0.17365
vertex -0.92542 0.33682 -0.17365
vertex -0.93969 0.34202 0
endloop
endfacet
facet normal -0.9028990875033567 0.42098712992465454 -0.08685087347521774
outer loop
vertex -0.93969 0.34202 0
vertex -0.86603 0.5 0
vertex -0.85287 0.4924 -0.17365
endloop
endfacet
facet normal -0.9622707694908268 0.25787050614376705 0.08682032161130018
outer loop
vertex -0.93969 0.34202 0
vertex -0.98481 0.17365 0
vertex -0.96985 0.17101 0.17365
endloop
endfacet
facet normal -0.9622783780176538 0.25784951652689464 0.08679832963001305
outer loop
vertex -0.96985 0.17101 0.17365
vertex -0.92542 0.33682 0.17365
vertex -0.93969 0.34202 0
endloop
endfacet
facet normal -0.9028990875033567 0.42098712992465454 0.08685087347521767
outer loop
vertex -0.85287 0.4924 0.17365
vertex -0.86603 0.5 0
vertex -0.93969 0.34202 0
endloop
endfacet
facet normal -0.9028827290591487 0.42103189351614173 0.08680392968590793
outer loop
vertex -0.93969 0.34202 0
vertex -0.92542 0.33682 0.17365
vertex -0.85287 0.4924 0.17365
endloop
endfacet
facet normal -0.9924344194824508 -0.0868130079581831 0.08681834296842522
outer loop
vertex -1 0 0
vertex -0.98481 -0.17365 0
vertex -0.96985 -0.17101 0.17365
endloop
endfacet
facet normal -0.9924344123861636 -0.0868184247078937 0.08681300733743656
outer loop
vertex -0.96985 -0.17101 0.17365
vertex -0.98481 0 0.17365
vertex -1 0 0
endloop
endfacet
facet normal -0.9924344194824508 0.0868130079581831 0.08681834296842522
outer loop
vertex -0.96985 0.17101 0.17365
vertex -0.98481 0.17365 0
vertex -1 0 0
endloop
endfacet
facet normal -0.9924344123861636 0.0868184247078937 0.08681300733743656
outer loop
vertex -1 0 0
vertex -0.98481 0 0.17365
vertex -0.96985 0.17101 0.17365
endloop
endfacet
facet normal -0.9622783780176538 -0.25784951652689464 -0.08679832963001305
outer loop
vertex -0.96985 -0.17101 -0.17365
vertex -0.92542 -0.33682 -0.17365
vertex -0.93969 -0.34202 0
endloop
endfacet
facet normal -0.9622707694908268 -0.25787050614376705 -0.08682032161130018
outer loop
vertex -0.93969 -0.34202 0
vertex -0.98481 -0.17365 0
vertex -0.96985 -0.17101 -0.17365
endloop
endfacet
facet normal -0.9924344194824508 -0.0868130079581831 -0.08681834296842522
outer loop
vertex -0.96985 -0.17101 -0.17365
vertex -0.98481 -0.17365 0
vertex -1 0 0
endloop
endfacet
facet normal -0.9924344123861636 -0.0868184247078937 -0.08681300733743656
outer loop
vertex -1 0 0
vertex -0.98481 0 -0.17365
vertex -0.96985 -0.17101 -0.17365
endloop
endfacet
facet normal -0.9624979814419448 -0.08416991172433246 -0.2579012634333141
outer loop
vertex -0.93969 0 -0.34202
vertex -0.92542 -0.16318 -0.34202
vertex -0.96985 -0.17101 -0.17365
endloop
endfacet
facet normal -0.9624880979204025 -0.08419871320325736 -0.2579287460840322
outer loop
vertex -0.96985 -0.17101 -0.17365
vertex -0.98481 0 -0.17365
vertex -0.93969 0 -0.34202
endloop
endfacet
facet normal -0.933240086562948 -0.2500684943368421 -0.25793155869743106
outer loop
vertex -0.88302 -0.32139 -0.34202
vertex -0.92542 -0.33682 -0.17365
vertex -0.96985 -0.17101 -0.17365
endloop
endfacet
facet normal -0.9332393832185232 -0.25010650305584614 -0.2578972484131746
outer loop
vertex -0.96985 -0.17101 -0.17365
vertex -0.92542 -0.16318 -0.34202
vertex -0.88302 -0.32139 -0.34202
endloop
endfacet
facet normal -0.9332393832185232 0.25010650305584614 -0.25789724841317463
outer loop
vertex -0.88302 0.32139 -0.34202
vertex -0.92542 0.16318 -0.34202
vertex -0.96985 0.17101 -0.17365
endloop
endfacet
facet normal -0.933240086562948 0.2500684943368421 -0.25793155869743106
outer loop
vertex -0.96985 0.17101 -0.17365
vertex -0.92542 0.33682 -0.17365
vertex -0.88302 0.32139 -0.34202
endloop
endfacet
facet normal -0.9624880979204025 0.08419871320325736 -0.2579287460840322
outer loop
vertex -0.93969 0 -0.34202
vertex -0.98481 0 -0.17365
vertex -0.96985 0.17101 -0.17365
endloop
endfacet
facet normal -0.9624979814419448 0.08416991172433246 -0.25790126343331415
outer loop
vertex -0.96985 0.17101 -0.17365
vertex -0.92542 0.16318 -0.34202
vertex -0.93969 0 -0.34202
endloop
endfacet
facet normal -0.9924344123861636 0.0868184247078937 -0.08681300733743656
outer loop
vertex -0.96985 0.17101 -0.17365
vertex -0.98481 0 -0.17365
vertex -1 0 0
endloop
endfacet
facet normal -0.9924344194824508 0.0868130079581831 -0.08681834296842522
outer loop
vertex -1 0 0
vertex -0.98481 0.17365 0
vertex -0.96985 0.17101 -0.17365
endloop
endfacet
facet normal -0.9622783780176538 0.25784951652689464 -0.0867983296300131
outer loop
vertex -0.93969 0.34202 0
vertex -0.92542 0.33682 -0.17365
vertex -0.96985 0.17101 -0.17365
endloop
endfacet
facet normal -0.9622707694908268 0.25787050614376705 -0.08682032161130016
outer loop
vertex -0.96985 0.17101 -0.17365
vertex -0.98481 0.17365 0
vertex -0.93969 0.34202 0
endloop
endfacet
facet normal -0.6412858852161262 0.6412858852161252 -0.42131321703115415
outer loop
vertex -0.55667 0.66341 -0.5
vertex -0.66341 0.55667 -0.5
vertex -0.71985 0.60402 -0.34202
endloop
endfacet
facet normal -0.6412858852161254 0.6412858852161264 -0.4213132170311531
outer loop
vertex -0.71985 0.60402 -0.34202
vertex -0.60402 0.71985 -0.34202
vertex -0.55667 0.66341 -0.5
endloop
endfacet
facet normal -0.8219547506013095 0.38331052619226325 -0.4212640840068725
outer loop
vertex -0.75 0.43301 -0.5
vertex -0.8138 0.2962 -0.5
vertex -0.88302 0.32139 -0.34202
endloop
endfacet
facet normal -0.8219597623113868 0.3832416458789851 -0.42131697094346315
outer loop
vertex -0.88302 0.32139 -0.34202
vertex -0.8138 0.46985 -0.34202
vertex -0.75 0.43301 -0.5
endloop
endfacet
facet normal -0.7428925903748602 0.5201930244263236 -0.42131913854502767
outer loop
vertex -0.71985 0.60402 -0.34202
vertex -0.66341 0.55667 -0.5
vertex -0.75 0.43301 -0.5
endloop
endfacet
facet normal -0.742890099633451 0.5201947146199805 -0.4213214434942027
outer loop
vertex -0.75 0.43301 -0.5
vertex -0.8138 0.46985 -0.34202
vertex -0.71985 0.60402 -0.34202
endloop
endfacet
facet normal -0.4210301510910125 0.9028789925119184 -0.08685123345665585
outer loop
vertex -0.33682 0.92542 -0.17365
vertex -0.4924 0.85287 -0.17365
vertex -0.5 0.86603 0
endloop
endfacet
facet normal -0.4209888457419363 0.9029027674492405 -0.08680428729835175
outer loop
vertex -0.5 0.86603 0
vertex -0.34202 0.93969 0
vertex -0.33682 0.92542 -0.17365
endloop
endfacet
facet normal -0.2578490167352687 0.9622765128263545 -0.08682048969803041
outer loop
vertex -0.17365 0.98481 0
vertex -0.17101 0.96985 -0.17365
vertex -0.33682 0.92542 -0.17365
endloop
endfacet
facet normal -0.2578709983743263 0.9622726063006509 -0.08679849860902333
outer loop
vertex -0.33682 0.92542 -0.17365
vertex -0.34202 0.93969 0
vertex -0.17365 0.98481 0
endloop
endfacet
facet normal 0.8756717512276526 0.4082850506532266 -0.25788040157210174
outer loop
vertex 0.88302 0.32139 -0.34202
vertex 0.8138 0.46985 -0.34202
vertex 0.85287 0.4924 -0.17365
endloop
endfacet
facet normal 0.8756378101022767 0.4083270543959399 -0.25792914175723647
outer loop
vertex 0.85287 0.4924 -0.17365
vertex 0.92542 0.33682 -0.17365
vertex 0.88302 0.32139 -0.34202
endloop
endfacet
facet normal 0.9332393832185232 0.25010650305584614 -0.2578972484131746
outer loop
vertex 0.96985 0.17101 -0.17365
vertex 0.92542 0.16318 -0.34202
vertex 0.88302 0.32139 -0.34202
endloop
endfacet
facet normal 0.933240086562948 0.2500684943368421 -0.25793155869743106
outer loop
vertex 0.88302 0.32139 -0.34202
vertex 0.92542 0.33682 -0.17365
vertex 0.96985 0.17101 -0.17365
endloop
endfacet
facet normal 0.876002290115122 0.23476706340232326 -0.4213127266704758
outer loop
vertex 0.88302 0.32139 -0.34202
vertex 0.92542 0.16318 -0.34202
vertex 0.85287 0.15038 -0.5
endloop
endfacet
facet normal 0.876036833309264 0.2347192365751802 -0.4212675476072677
outer loop
vertex 0.85287 0.15038 -0.5
vertex 0.8138 0.2962 -0.5
vertex 0.88302 0.32139 -0.34202
endloop
endfacet
facet normal 0.8219547506013094 0.3833105261922633 -0.42126408400687254
outer loop
vertex 0.88302 0.32139 -0.34202
vertex 0.8138 0.2962 -0.5
vertex 0.75 0.43301 -0.5
endloop
endfacet
facet normal 0.8219597623113867 0.38324164587898524 -0.4213169709434632
outer loop
vertex 0.75 0.43301 -0.5
vertex 0.8138 0.46985 -0.34202
vertex 0.88302 0.32139 -0.34202
endloop
endfacet
facet normal 0.38331052619226297 0.8219547506013092 -0.42126408400687354
outer loop
vertex 0.43301 0.75 -0.5
vertex 0.2962 0.8138 -0.5
vertex 0.32139 0.88302 -0.34202
endloop
endfacet
facet normal 0.38324164587898635 0.821959762311387 -0.4213169709434617
outer loop
vertex 0.32139 0.88302 -0.34202
vertex 0.46985 0.8138 -0.34202
vertex 0.43301 0.75 -0.5
endloop
endfacet
facet normal 0.3466432674440364 0.7433270441852463 -0.5721043178639252
outer loop
vertex 0.262 0.71985 -0.64279
vertex 0.2962 0.8138 -0.5
vertex 0.43301 0.75 -0.5
endloop
endfacet
facet normal 0.3466571207057844 0.7433105022646017 -0.5721174161718213
outer loop
vertex 0.43301 0.75 -0.5
vertex 0.38302 0.66341 -0.64279
vertex 0.262 0.71985 -0.64279
endloop
endfacet
facet normal 0.4704379643059718 0.6718436419348112 -0.5721138370389433
outer loop
vertex 0.4924 0.58682 -0.64279
vertex 0.38302 0.66341 -0.64279
vertex 0.43301 0.75 -0.5
endloop
endfacet
facet normal 0.47044215809522577 0.6718429064563524 -0.5721112522324551
outer loop
vertex 0.43301 0.75 -0.5
vertex 0.55667 0.66341 -0.5
vertex 0.4924 0.58682 -0.64279
endloop
endfacet
facet normal 0.671841520028457 0.47044118728177375 -0.5721136786293151
outer loop
vertex 0.66341 0.55667 -0.5
vertex 0.75 0.43301 -0.5
vertex 0.66341 0.38302 -0.64279
endloop
endfacet
facet normal 0.6718452093767817 0.4704390618592758 -0.5721110938571571
outer loop
vertex 0.66341 0.38302 -0.64279
vertex 0.58682 0.4924 -0.64279
vertex 0.66341 0.55667 -0.5
endloop
endfacet
facet normal 0.5799513860376774 0.5799513860376779 -0.5721125585633943
outer loop
vertex 0.66341 0.55667 -0.5
vertex 0.58682 0.4924 -0.64279
vertex 0.4924 0.58682 -0.64279
endloop
endfacet
facet normal 0.5799513860376767 0.5799513860376767 -0.572112558563396
outer loop
vertex 0.4924 0.58682 -0.64279
vertex 0.55667 0.66341 -0.5
vertex 0.66341 0.55667 -0.5
endloop
endfacet
facet normal 0.7428916774648772 0.5201923851826288 -0.4213215374882093
outer loop
vertex 0.8138 0.46985 -0.34202
vertex 0.75 0.43301 -0.5
vertex 0.66341 0.55667 -0.5
endloop
endfacet
facet normal 0.7428909410283835 0.5201953037908367 -0.4213192324733374
outer loop
vertex 0.66341 0.55667 -0.5
vertex 0.71985 0.60402 -0.34202
vertex 0.8138 0.46985 -0.34202
endloop
endfacet
facet normal 0.6412858852161255 0.6412858852161257 -0.4213132170311538
outer loop
vertex 0.66341 0.55667 -0.5
vertex 0.55667 0.66341 -0.5
vertex 0.60402 0.71985 -0.34202
endloop
endfacet
facet normal 0.6412858852161261 0.6412858852161257 -0.4213132170311533
outer loop
vertex 0.60402 0.71985 -0.34202
vertex 0.71985 0.60402 -0.34202
vertex 0.66341 0.55667 -0.5
endloop
endfacet
facet normal 0.5201930244263235 0.7428925903748599 -0.42131913854502856
outer loop
vertex 0.60402 0.71985 -0.34202
vertex 0.55667 0.66341 -0.5
vertex 0.43301 0.75 -0.5
endloop
endfacet
facet normal 0.5201947146199799 0.7428900996334518 -0.42132144349420214
outer loop
vertex 0.43301 0.75 -0.5
vertex 0.46985 0.8138 -0.34202
vertex 0.60402 0.71985 -0.34202
endloop
endfacet
facet normal 0.5541895423565251 0.7914381149332085 -0.25787528259535597
outer loop
vertex 0.60402 0.71985 -0.34202
vertex 0.46985 0.8138 -0.34202
vertex 0.4924 0.85287 -0.17365
endloop
endfacet
facet normal 0.5541607709560225 0.7914491937013597 -0.25790310917647846
outer loop
vertex 0.4924 0.85287 -0.17365
vertex 0.63302 0.75441 -0.17365
vertex 0.60402 0.71985 -0.34202
endloop
endfacet
facet normal 0.6831857568511919 0.6831857568511921 -0.25790394194608224
outer loop
vertex 0.75441 0.63302 -0.17365
vertex 0.71985 0.60402 -0.34202
vertex 0.60402 0.71985 -0.34202
endloop
endfacet
facet normal 0.6831857568511917 0.6831857568511926 -0.2579039419460813
outer loop
vertex 0.60402 0.71985 -0.34202
vertex 0.63302 0.75441 -0.17365
vertex 0.75441 0.63302 -0.17365
endloop
endfacet
facet normal 0.07143414663994255 0.8170395688774836 -0.5721394109675707
outer loop
vertex 0.13302 0.75441 -0.64279
vertex 0 0.76604 -0.64279
vertex 0 0.86603 -0.5
endloop
endfacet
facet normal 0.07150265891441326 0.81706457808127 -0.572095136330528
outer loop
vertex 0 0.86603 -0.5
vertex 0.15038 0.85287 -0.5
vertex 0.13302 0.75441 -0.64279
endloop
endfacet
facet normal 0.21226835226587432 0.7922439500232861 -0.5720941096339237
outer loop
vertex 0.13302 0.75441 -0.64279
vertex 0.15038 0.85287 -0.5
vertex 0.2962 0.8138 -0.5
endloop
endfacet
facet normal 0.21227834275376242 0.7922355511684089 -0.5721020334368718
outer loop
vertex 0.2962 0.8138 -0.5
vertex 0.262 0.71985 -0.64279
vertex 0.13302 0.75441 -0.64279
endloop
endfacet
facet normal 0.18335187013262833 0.6842818242915301 -0.705790674820179
outer loop
vertex 0.21985 0.60402 -0.76604
vertex 0.11162 0.63302 -0.76604
vertex 0.13302 0.75441 -0.64279
endloop
endfacet
facet normal 0.18335232632579598 0.6842819169415825 -0.7057904664825619
outer loop
vertex 0.13302 0.75441 -0.64279
vertex 0.262 0.71985 -0.64279
vertex 0.21985 0.60402 -0.76604
endloop
endfacet
facet normal 0.06170486540871247 0.705759346231027 -0.7057593462310267
outer loop
vertex 0 0.64279 -0.76604
vertex 0 0.76604 -0.64279
vertex 0.13302 0.75441 -0.64279
endloop
endfacet
facet normal 0.061770950507424684 0.7057188838934257 -0.7057940256120243
outer loop
vertex 0.13302 0.75441 -0.64279
vertex 0.11162 0.63302 -0.76604
vertex 0 0.64279 -0.76604
endloop
endfacet
facet normal -0.3832997190074234 0.8219315761348843 -0.4213191303053483
outer loop
vertex -0.2962 0.8138 -0.5
vertex -0.43301 0.75 -0.5
vertex -0.46985 0.8138 -0.34202
endloop
endfacet
facet normal -0.38325160380955214 0.8219811196412317 -0.42126624257202633
outer loop
vertex -0.46985 0.8138 -0.34202
vertex -0.32139 0.88302 -0.34202
vertex -0.2962 0.8138 -0.5
endloop
endfacet
facet normal -0.520192385182628 0.7428916774648786 -0.4213215374882074
outer loop
vertex -0.46985 0.8138 -0.34202
vertex -0.43301 0.75 -0.5
vertex -0.55667 0.66341 -0.5
endloop
endfacet
facet normal -0.5201953037908362 0.7428909410283825 -0.42131923247333936
outer loop
vertex -0.55667 0.66341 -0.5
vertex -0.60402 0.71985 -0.34202
vertex -0.46985 0.8138 -0.34202
endloop
endfacet
facet normal -0.5541851821821602 0.7914318881679648 -0.25790376158679
outer loop
vertex -0.46985 0.8138 -0.34202
vertex -0.60402 0.71985 -0.34202
vertex -0.63302 0.75441 -0.17365
endloop
endfacet
facet normal -0.5541649310428304 0.7914551351131718 -0.2578759358786432
outer loop
vertex -0.63302 0.75441 -0.17365
vertex -0.4924 0.85287 -0.17365
vertex -0.46985 0.8138 -0.34202
endloop
endfacet
facet normal -0.40827942375905824 0.8756596829134604 -0.2579302848733922
outer loop
vertex -0.33682 0.92542 -0.17365
vertex -0.32139 0.88302 -0.34202
vertex -0.46985 0.8138 -0.34202
endloop
endfacet
facet normal -0.40833242426844474 0.8756493255366591 -0.2578815425311573
outer loop
vertex -0.46985 0.8138 -0.34202
vertex -0.4924 0.85287 -0.17365
vertex -0.33682 0.92542 -0.17365
endloop
endfacet
facet normal 0.08416925761886031 0.9624905016289856 -0.25792939023281874
outer loop
vertex 0.16318 0.92542 -0.34202
vertex 0 0.93969 -0.34202
vertex 0 0.98481 -0.17365
endloop
endfacet
facet normal 0.084199337575982 0.9624952352184959 -0.2579019071923619
outer loop
vertex 0 0.98481 -0.17365
vertex 0.17101 0.96985 -0.17365
vertex 0.16318 0.92542 -0.34202
endloop
endfacet
facet normal 0.2500708092791996 0.933248725784023 -0.25789805382930603
outer loop
vertex 0.16318 0.92542 -0.34202
vertex 0.17101 0.96985 -0.17365
vertex 0.33682 0.92542 -0.17365
endloop
endfacet
facet normal 0.2501040765887156 0.9332303291769032 -0.25793236240936274
outer loop
vertex 0.33682 0.92542 -0.17365
vertex 0.32139 0.88302 -0.34202
vertex 0.16318 0.92542 -0.34202
endloop
endfacet
facet normal 0.2347135837014265 0.8760157352275906 -0.4213145680601342
outer loop
vertex 0.2962 0.8138 -0.5
vertex 0.15038 0.85287 -0.5
vertex 0.16318 0.92542 -0.34202
endloop
endfacet
facet normal 0.23477227467632036 0.8760217352957704 -0.4212693892661722
outer loop
vertex 0.16318 0.92542 -0.34202
vertex 0.32139 0.88302 -0.34202
vertex 0.2962 0.8138 -0.5
endloop
endfacet
facet normal 0.07900973883337288 0.9034904823286476 -0.42126287459379835
outer loop
vertex 0 0.86603 -0.5
vertex 0 0.93969 -0.34202
vertex 0.16318 0.92542 -0.34202
endloop
endfacet
facet normal 0.07906364685986093 0.903464378023247 -0.4213087435459732
outer loop
vertex 0.16318 0.92542 -0.34202
vertex 0.15038 0.85287 -0.5
vertex 0 0.86603 -0.5
endloop
endfacet
facet normal 0.06185322992281051 -0.06185322992280824 -0.996166831357194
outer loop
vertex 0.11162 -0.13302 -0.98481
vertex 0 0 -1
vertex 0.13302 -0.11162 -0.98481
endloop
endfacet
facet normal 0.14895933453858629 -0.2127990493408359 -0.9656747284947753
outer loop
vertex 0.17101 -0.2962 -0.93969
vertex 0.08682 -0.15038 -0.98481
vertex 0.11162 -0.13302 -0.98481
endloop
endfacet
facet normal 0.14900055635974535 -0.21278325066111495 -0.9656718502900329
outer loop
vertex 0.11162 -0.13302 -0.98481
vertex 0.21985 -0.262 -0.93969
vertex 0.17101 -0.2962 -0.93969
endloop
endfacet
facet normal 0.05016358081626481 -0.07166225830894667 -0.9961667209326718
outer loop
vertex 0.11162 -0.13302 -0.98481
vertex 0.08682 -0.15038 -0.98481
vertex 0 0 -1
endloop
endfacet
facet normal 0.2509269979850375 -0.06723048409288256 -0.965668526820075
outer loop
vertex 0.33682 -0.05939 -0.93969
vertex 0.32139 -0.11698 -0.93969
vertex 0.16318 -0.05939 -0.98481
endloop
endfacet
facet normal 0.2509276099406403 -0.06719436340065749 -0.9656708818726276
outer loop
vertex 0.16318 -0.05939 -0.98481
vertex 0.17101 -0.03015 -0.98481
vertex 0.33682 -0.05939 -0.93969
endloop
endfacet
facet normal 0.08449555701641993 -0.022626546218829258 -0.9961669238891101
outer loop
vertex 0.16318 -0.05939 -0.98481
vertex 0 0 -1
vertex 0.17101 -0.03015 -0.98481
endloop
endfacet
facet normal 0.18368160766947242 -0.18368160766947175 -0.9656718562782682
outer loop
vertex 0.262 -0.21985 -0.93969
vertex 0.21985 -0.262 -0.93969
vertex 0.11162 -0.13302 -0.98481
endloop
endfacet
facet normal 0.18368160766947172 -0.18368160766947172 -0.9656718562782682
outer loop
vertex 0.11162 -0.13302 -0.98481
vertex 0.13302 -0.11162 -0.98481
vertex 0.262 -0.21985 -0.93969
endloop
endfacet
facet normal 0.2555883078427165 -0.17897461359993716 -0.9500751047053332
outer loop
vertex 0.262 -0.21985 -0.93969
vertex 0.2962 -0.17101 -0.93969
vertex 1 -1.5 -0.5
endloop
endfacet
facet normal 0.2082089592991007 -0.2082089592990982 -0.9556662903624737
outer loop
vertex 0.262 -0.21985 -0.93969
vertex 1 -1.5 -0.5
vertex 0.21985 -0.262 -0.93969
endloop
endfacet
facet normal -0.3466571207057845 0.7433105022646019 -0.5721174161718209
outer loop
vertex -0.262 0.71985 -0.64279
vertex -0.38302 0.66341 -0.64279
vertex -0.43301 0.75 -0.5
endloop
endfacet
facet normal -0.34664326744403634 0.7433270441852461 -0.5721043178639255
outer loop
vertex -0.43301 0.75 -0.5
vertex -0.2962 0.8138 -0.5
vertex -0.262 0.71985 -0.64279
endloop
endfacet
facet normal -0.2994319785109377 0.6420492211090308 -0.705771413361516
outer loop
vertex -0.32139 0.55667 -0.76604
vertex -0.38302 0.66341 -0.64279
vertex -0.262 0.71985 -0.64279
endloop
endfacet
facet normal -0.29939915819583734 0.6420483743021204 -0.7057861072078626
outer loop
vertex -0.262 0.71985 -0.64279
vertex -0.21985 0.60402 -0.76604
vertex -0.32139 0.55667 -0.76604
endloop
endfacet
facet normal -0.18335192855032353 0.6842820423103974 -0.7057904482694483
outer loop
vertex -0.11162 0.63302 -0.76604
vertex -0.21985 0.60402 -0.76604
vertex -0.262 0.71985 -0.64279
endloop
endfacet
facet normal -0.1833522773061027 0.6842817339971369 -0.7057906565863122
outer loop
vertex -0.262 0.71985 -0.64279
vertex -0.13302 0.75441 -0.64279
vertex -0.11162 0.63302 -0.76604
endloop
endfacet
facet normal -0.06170211942754056 0.7057279386286635 -0.705790992502091
outer loop
vertex -0.11162 0.63302 -0.76604
vertex -0.13302 0.75441 -0.64279
vertex 0 0.76604 -0.64279
endloop
endfacet
facet normal -0.06177422658981665 0.7057563123802825 -0.7057563123802828
outer loop
vertex 0 0.76604 -0.64279
vertex 0 0.64279 -0.76604
vertex -0.11162 0.63302 -0.76604
endloop
endfacet
facet normal 0.05016358081626481 0.07166225830894667 -0.9961667209326718
outer loop
vertex 0.11162 0.13302 -0.98481
vertex 0 0 -1
vertex 0.08682 0.15038 -0.98481
endloop
endfacet
facet normal 0.2587812343030626 -0.022658063956489703 -0.9656701739778065
outer loop
vertex 0.34202 0 -0.93969
vertex 0.33682 -0.05939 -0.93969
vertex 0.17101 -0.03015 -0.98481
endloop
endfacet
facet normal 0.25878145784511114 -0.022659470935690627 -0.9656700810589884
outer loop
vertex 0.17101 -0.03015 -0.98481
vertex 0.17365 0 -0.98481
vertex 0.34202 0 -0.93969
endloop
endfacet
facet normal 0.25878145784511114 0.022659470935690627 -0.9656700810589884
outer loop
vertex 0.34202 0 -0.93969
vertex 0.17365 0 -0.98481
vertex 0.17101 0.03015 -0.98481
endloop
endfacet
facet normal 0.2587812343030632 0.022658063956489696 -0.9656701739778064
outer loop
vertex 0.17101 0.03015 -0.98481
vertex 0.33682 0.05939 -0.93969
vertex 0.34202 0 -0.93969
endloop
endfacet
facet normal 0.42229128202182836 -0.03697448503979553 -0.9057057803638013
outer loop
vertex 0.4924 -0.08682 -0.86603
vertex 0.33682 -0.05939 -0.93969
vertex 0.34202 0 -0.93969
endloop
endfacet
facet normal 0.4222951019564978 -0.03696662951934359 -0.9057043199441696
outer loop
vertex 0.34202 0 -0.93969
vertex 0.5 0 -0.86603
vertex 0.4924 -0.08682 -0.86603
endloop
endfacet
facet normal 0.05014871267931834 0.572883057212953 -0.8181015275471302
outer loop
vertex 0.08682 0.4924 -0.86603
vertex 0 0.5 -0.86603
vertex 0 0.64279 -0.76604
endloop
endfacet
facet normal 0.05014379020249443 0.5728812551077208 -0.8181030912118171
outer loop
vertex 0 0.64279 -0.76604
vertex 0.11162 0.63302 -0.76604
vertex 0.08682 0.4924 -0.86603
endloop
endfacet
facet normal 0.14883855408527813 0.5554757485741294 -0.8181037694350358
outer loop
vertex 0.08682 0.4924 -0.86603
vertex 0.11162 0.63302 -0.76604
vertex 0.21985 0.60402 -0.76604
endloop
endfacet
facet normal 0.14879261998121932 0.5555144424043794 -0.8180858515579377
outer loop
vertex 0.21985 0.60402 -0.76604
vertex 0.17101 0.46985 -0.86603
vertex 0.08682 0.4924 -0.86603
endloop
endfacet
facet normal 0.17917242914485995 0.3841702002755859 -0.9057099413468676
outer loop
vertex 0.11698 0.32139 -0.93969
vertex 0.17101 0.46985 -0.86603
vertex 0.25 0.43301 -0.86603
endloop
endfacet
facet normal 0.17912947006540514 0.3842145798981303 -0.9056996133088445
outer loop
vertex 0.25 0.43301 -0.86603
vertex 0.17101 0.2962 -0.93969
vertex 0.11698 0.32139 -0.93969
endloop
endfacet
facet normal 0.24307900955304446 0.5211946515905278 -0.8180884611508337
outer loop
vertex 0.25 0.43301 -0.86603
vertex 0.17101 0.46985 -0.86603
vertex 0.21985 0.60402 -0.76604
endloop
endfacet
facet normal 0.24304277643831299 0.5211945833061487 -0.8180992697426678
outer loop
vertex 0.21985 0.60402 -0.76604
vertex 0.32139 0.55667 -0.76604
vertex 0.25 0.43301 -0.86603
endloop
endfacet
facet normal 0.24315815123297382 0.3472469036905921 -0.9057006687456176
outer loop
vertex 0.21985 0.262 -0.93969
vertex 0.17101 0.2962 -0.93969
vertex 0.25 0.43301 -0.86603
endloop
endfacet
facet normal 0.24315591445578844 0.34724746415280566 -0.9057010543797634
outer loop
vertex 0.25 0.43301 -0.86603
vertex 0.32139 0.38302 -0.86603
vertex 0.21985 0.262 -0.93969
endloop
endfacet
facet normal 0.14899642177911115 0.21277734618981967 -0.9656737892505103
outer loop
vertex 0.08682 0.15038 -0.98481
vertex 0.17101 0.2962 -0.93969
vertex 0.21985 0.262 -0.93969
endloop
endfacet
facet normal 0.14896747601755259 0.2128106800250807 -0.9656709095526398
outer loop
vertex 0.21985 0.262 -0.93969
vertex 0.11162 0.13302 -0.98481
vertex 0.08682 0.15038 -0.98481
endloop
endfacet
facet normal 0.5554757485741296 0.14883855408528004 -0.8181037694350354
outer loop
vertex 0.60402 0.21985 -0.76604
vertex 0.63302 0.11162 -0.76604
vertex 0.4924 0.08682 -0.86603
endloop
endfacet
facet normal 0.5555144424043799 0.148792619981218 -0.8180858515579373
outer loop
vertex 0.4924 0.08682 -0.86603
vertex 0.46985 0.17101 -0.86603
vertex 0.60402 0.21985 -0.76604
endloop
endfacet
facet normal 0.5728830572129525 0.05014871267931923 -0.8181015275471303
outer loop
vertex 0.64279 0 -0.76604
vertex 0.5 0 -0.86603
vertex 0.4924 0.08682 -0.86603
endloop
endfacet
facet normal 0.5728812551077206 0.05014379020249299 -0.8181030912118172
outer loop
vertex 0.4924 0.08682 -0.86603
vertex 0.63302 0.11162 -0.76604
vertex 0.64279 0 -0.76604
endloop
endfacet
facet normal 0.4222951019564978 0.03696662951934359 -0.9057043199441696
outer loop
vertex 0.4924 0.08682 -0.86603
vertex 0.5 0 -0.86603
vertex 0.34202 0 -0.93969
endloop
endfacet
facet normal 0.422291282021829 0.03697448503979553 -0.9057057803638012
outer loop
vertex 0.34202 0 -0.93969
vertex 0.33682 0.05939 -0.93969
vertex 0.4924 0.08682 -0.86603
endloop
endfacet
facet normal 0.38417020027558646 0.17917242914486073 -0.9057099413468672
outer loop
vertex 0.43301 0.25 -0.86603
vertex 0.46985 0.17101 -0.86603
vertex 0.32139 0.11698 -0.93969
endloop
endfacet
facet normal 0.3842145798981286 0.17912947006540567 -0.9056996133088451
outer loop
vertex 0.32139 0.11698 -0.93969
vertex 0.2962 0.17101 -0.93969
vertex 0.43301 0.25 -0.86603
endloop
endfacet
facet normal 0.4094672211661976 0.10970792190648478 -0.9057045691953822
outer loop
vertex 0.4924 0.08682 -0.86603
vertex 0.33682 0.05939 -0.93969
vertex 0.32139 0.11698 -0.93969
endloop
endfacet
facet normal 0.4094636342067526 0.10967341669274604 -0.905710369783375
outer loop
vertex 0.32139 0.11698 -0.93969
vertex 0.46985 0.17101 -0.86603
vertex 0.4924 0.08682 -0.86603
endloop
endfacet
facet normal -0.08713950574918544 0.007630125876545644 -0.9961668975211412
outer loop
vertex -0.17365 0 -0.98481
vertex -0.17101 0.03015 -0.98481
vertex 0 0 -1
endloop
endfacet
facet normal -0.08713950574918544 -0.007630125876545644 -0.9961668975211412
outer loop
vertex -0.17365 0 -0.98481
vertex 0 0 -1
vertex -0.17101 -0.03015 -0.98481
endloop
endfacet
facet normal -0.07166225830894671 0.05016358081626266 -0.996166720932672
outer loop
vertex -0.15038 0.08682 -0.98481
vertex -0.13302 0.11162 -0.98481
vertex 0 0 -1
endloop
endfacet
facet normal -0.06185322992281051 0.06185322992280824 -0.996166831357194
outer loop
vertex -0.11162 0.13302 -0.98481
vertex 0 0 -1
vertex -0.13302 0.11162 -0.98481
endloop
endfacet
facet normal -0.022626546218826864 -0.08449555701641961 -0.9961669238891102
outer loop
vertex -0.03015 -0.17101 -0.98481
vertex -0.05939 -0.16318 -0.98481
vertex 0 0 -1
endloop
endfacet
facet normal -0.0076301258765472954 -0.08713950574918614 -0.9961668975211412
outer loop
vertex -0.03015 -0.17101 -0.98481
vertex 0 0 -1
vertex 0 -0.17365 -0.98481
endloop
endfacet
facet normal 0.029133534388349945 -0.3327385783316033 -0.9425689766080285
outer loop
vertex 0 -0.34202 -0.93969
vertex 0.05939 -0.33682 -0.93969
vertex 1 -1.5 -0.5
endloop
endfacet
facet normal 0 -0.35497619792437346 -0.9348753386987785
outer loop
vertex 0 -0.34202 -0.93969
vertex 1 -1.5 -0.5
vertex 0 -1.5 -0.5
endloop
endfacet
facet normal -0.03106558871155066 -0.35480486799600763 -0.9344241193614066
outer loop
vertex 0 -0.34202 -0.93969
vertex 0 -1.5 -0.5
vertex -0.05939 -0.33682 -0.93969
endloop
endfacet
facet normal -0.022658063956486018 -0.2587812343030626 -0.9656701739778066
outer loop
vertex 0 -0.34202 -0.93969
vertex -0.05939 -0.33682 -0.93969
vertex -0.03015 -0.17101 -0.98481
endloop
endfacet
facet normal -0.02265947093568864 -0.2587814578451119 -0.9656700810589885
outer loop
vertex -0.03015 -0.17101 -0.98481
vertex 0 -0.17365 -0.98481
vertex 0 -0.34202 -0.93969
endloop
endfacet
facet normal 0.022659470935691935 -0.25878145784511186 -0.9656700810589883
outer loop
vertex 0 -0.34202 -0.93969
vertex 0 -0.17365 -0.98481
vertex 0.03015 -0.17101 -0.98481
endloop
endfacet
facet normal 0.022658063956487524 -0.2587812343030626 -0.9656701739778065
outer loop
vertex 0.03015 -0.17101 -0.98481
vertex 0.05939 -0.33682 -0.93969
vertex 0 -0.34202 -0.93969
endloop
endfacet
facet normal -0.06719736865793104 -0.25093883263829836 -0.9656677564874879
outer loop
vertex -0.11698 -0.32139 -0.93969
vertex -0.05939 -0.16318 -0.98481
vertex -0.03015 -0.17101 -0.98481
endloop
endfacet
facet normal -0.06722895752894649 -0.25092130033001503 -0.9656701136051925
outer loop
vertex -0.03015 -0.17101 -0.98481
vertex -0.05939 -0.33682 -0.93969
vertex -0.11698 -0.32139 -0.93969
endloop
endfacet
facet normal -0.09544526199842035 -0.3562341308158703 -0.9295092500905595
outer loop
vertex -0.11698 -0.32139 -0.93969
vertex -0.05939 -0.33682 -0.93969
vertex 0 -1.5 -0.5
endloop
endfacet
facet normal -0.16743857085903457 -0.35913878457775067 -0.9181414152518665
outer loop
vertex -0.11698 -0.32139 -0.93969
vertex 0 -1.5 -0.5
vertex -0.17101 -0.2962 -0.93969
endloop
endfacet
facet normal -0.10976240032420233 -0.23542923737660082 -0.9656734901939379
outer loop
vertex -0.11698 -0.32139 -0.93969
vertex -0.17101 -0.2962 -0.93969
vertex -0.08682 -0.15038 -0.98481
endloop
endfacet
facet normal -0.10985305328662646 -0.2354116602853067 -0.9656674670326847
outer loop
vertex -0.08682 -0.15038 -0.98481
vertex -0.05939 -0.16318 -0.98481
vertex -0.11698 -0.32139 -0.93969
endloop
endfacet
facet normal -0.5799513860376774 0.5799513860376779 -0.5721125585633943
outer loop
vertex -0.4924 0.58682 -0.64279
vertex -0.58682 0.4924 -0.64279
vertex -0.66341 0.55667 -0.5
endloop
endfacet
facet normal -0.5799513860376767 0.5799513860376767 -0.572112558563396
outer loop
vertex -0.66341 0.55667 -0.5
vertex -0.55667 0.66341 -0.5
vertex -0.4924 0.58682 -0.64279
endloop
endfacet
facet normal -0.4704421580952256 0.671842906456352 -0.5721112522324554
outer loop
vertex -0.4924 0.58682 -0.64279
vertex -0.55667 0.66341 -0.5
vertex -0.43301 0.75 -0.5
endloop
endfacet
facet normal -0.4704379643059718 0.6718436419348112 -0.5721138370389433
outer loop
vertex -0.43301 0.75 -0.5
vertex -0.38302 0.66341 -0.64279
vertex -0.4924 0.58682 -0.64279
endloop
endfacet
facet normal -0.6842819169415821 -0.18335232632579607 -0.7057904664825619
outer loop
vertex -0.60402 -0.21985 -0.76604
vertex -0.71985 -0.262 -0.64279
vertex -0.75441 -0.13302 -0.64279
endloop
endfacet
facet normal -0.6842818242915293 -0.18335187013262982 -0.7057906748201791
outer loop
vertex -0.75441 -0.13302 -0.64279
vertex -0.63302 -0.11162 -0.76604
vertex -0.60402 -0.21985 -0.76604
endloop
endfacet
facet normal -0.071437001390309 0.8170722205450455 -0.5720924236921422
outer loop
vertex 0 0.76604 -0.64279
vertex -0.13302 0.75441 -0.64279
vertex -0.15038 0.85287 -0.5
endloop
endfacet
facet normal -0.07150013141003002 0.817035696158082 -0.5721366990604838
outer loop
vertex -0.15038 0.85287 -0.5
vertex 0 0.86603 -0.5
vertex 0 0.76604 -0.64279
endloop
endfacet
facet normal -0.2122670095242416 0.7922389385417153 -0.5721015477395001
outer loop
vertex -0.262 0.71985 -0.64279
vertex -0.2962 0.8138 -0.5
vertex -0.15038 0.85287 -0.5
endloop
endfacet
facet normal -0.21227986088342107 0.7922412169196665 -0.5720936242233097
outer loop
vertex -0.15038 0.85287 -0.5
vertex -0.13302 0.75441 -0.64279
vertex -0.262 0.71985 -0.64279
endloop
endfacet
facet normal 0.07166225830894671 -0.05016358081626266 -0.996166720932672
outer loop
vertex 0.15038 -0.08682 -0.98481
vertex 0.13302 -0.11162 -0.98481
vertex 0 0 -1
endloop
endfacet
facet normal 0.07926798528832785 -0.03698979991580605 -0.9961668239860823
outer loop
vertex 0.15038 -0.08682 -0.98481
vertex 0 0 -1
vertex 0.16318 -0.05939 -0.98481
endloop
endfacet
facet normal 0.23542923737660326 -0.10976240032420062 -0.9656734901939377
outer loop
vertex 0.32139 -0.11698 -0.93969
vertex 0.2962 -0.17101 -0.93969
vertex 0.15038 -0.08682 -0.98481
endloop
endfacet
facet normal 0.23541166028530577 -0.10985305328661808 -0.9656674670326858
outer loop
vertex 0.15038 -0.08682 -0.98481
vertex 0.16318 -0.05939 -0.98481
vertex 0.32139 -0.11698 -0.93969
endloop
endfacet
facet normal 0.2128106800250849 -0.14896747601755625 -0.9656709095526383
outer loop
vertex 0.262 -0.21985 -0.93969
vertex 0.13302 -0.11162 -0.98481
vertex 0.15038 -0.08682 -0.98481
endloop
endfacet
facet normal 0.21277734618981806 -0.14899642177911235 -0.9656737892505104
outer loop
vertex 0.15038 -0.08682 -0.98481
vertex 0.2962 -0.17101 -0.93969
vertex 0.262 -0.21985 -0.93969
endloop
endfacet
facet normal -0.24307169913323076 0.5211789770503251 -0.8181006190935567
outer loop
vertex -0.17101 0.46985 -0.86603
vertex -0.25 0.43301 -0.86603
vertex -0.32139 0.55667 -0.76604
endloop
endfacet
facet normal -0.24304846281594358 0.5212067774937883 -0.8180898115838796
outer loop
vertex -0.32139 0.55667 -0.76604
vertex -0.21985 0.60402 -0.76604
vertex -0.17101 0.46985 -0.86603
endloop
endfacet
facet normal 0.03698979991579974 0.07926798528832525 -0.9961668239860827
outer loop
vertex 0.05939 0.16318 -0.98481
vertex 0.08682 0.15038 -0.98481
vertex 0 0 -1
endloop
endfacet
facet normal 0.022626546218826867 0.08449555701641963 -0.9961669238891102
outer loop
vertex 0.05939 0.16318 -0.98481
vertex 0 0 -1
vertex 0.03015 0.17101 -0.98481
endloop
endfacet
facet normal 0.10976877068948634 0.2354429011652646 -0.9656694347820078
outer loop
vertex 0.05939 0.16318 -0.98481
vertex 0.11698 0.32139 -0.93969
vertex 0.17101 0.2962 -0.93969
endloop
endfacet
facet normal 0.10984049805403184 0.23538475481421167 -0.9656754538602996
outer loop
vertex 0.17101 0.2962 -0.93969
vertex 0.08682 0.15038 -0.98481
vertex 0.05939 0.16318 -0.98481
endloop
endfacet
facet normal 0.0076301258765472954 0.08713950574918614 -0.9961668975211412
outer loop
vertex 0 0.17365 -0.98481
vertex 0.03015 0.17101 -0.98481
vertex 0 0 -1
endloop
endfacet
facet normal 0.06719436340066276 0.2509276099406409 -0.9656708818726271
outer loop
vertex 0.05939 0.16318 -0.98481
vertex 0.03015 0.17101 -0.98481
vertex 0.05939 0.33682 -0.93969
endloop
endfacet
facet normal 0.0672304840928829 0.2509269979850364 -0.9656685268200751
outer loop
vertex 0.05939 0.33682 -0.93969
vertex 0.11698 0.32139 -0.93969
vertex 0.05939 0.16318 -0.98481
endloop
endfacet
facet normal 0.022658084241420996 0.2587814659804086 -0.9656701114166988
outer loop
vertex 0 0.17365 -0.98481
vertex 0 0.34202 -0.93969
vertex 0.05939 0.33682 -0.93969
endloop
endfacet
facet normal 0.022659430975663912 0.2587810014834281 -0.9656702042929008
outer loop
vertex 0.05939 0.33682 -0.93969
vertex 0.03015 0.17101 -0.98481
vertex 0 0.17365 -0.98481
endloop
endfacet
facet normal 0.03697480830557446 0.4222949740900073 -0.9057040457064803
outer loop
vertex 0.05939 0.33682 -0.93969
vertex 0 0.34202 -0.93969
vertex 0 0.5 -0.86603
endloop
endfacet
facet normal 0.036966408434727295 0.4222925763556265 -0.9057055065540698
outer loop
vertex 0 0.5 -0.86603
vertex 0.08682 0.4924 -0.86603
vertex 0.05939 0.33682 -0.93969
endloop
endfacet
facet normal 0.109676021839853 0.40947336047438027 -0.9057056570957267
outer loop
vertex 0.05939 0.33682 -0.93969
vertex 0.08682 0.4924 -0.86603
vertex 0.17101 0.46985 -0.86603
endloop
endfacet
facet normal 0.10970411247026522 0.4094530030565486 -0.905711458465159
outer loop
vertex 0.17101 0.46985 -0.86603
vertex 0.11698 0.32139 -0.93969
vertex 0.05939 0.33682 -0.93969
endloop
endfacet
facet normal 0.521206777493788 0.24304846281594186 -0.8180898115838804
outer loop
vertex 0.55667 0.32139 -0.76604
vertex 0.60402 0.21985 -0.76604
vertex 0.46985 0.17101 -0.86603
endloop
endfacet
facet normal 0.5211789770503253 0.2430716991332329 -0.8181006190935559
outer loop
vertex 0.46985 0.17101 -0.86603
vertex 0.43301 0.25 -0.86603
vertex 0.55667 0.32139 -0.76604
endloop
endfacet
facet normal 0.580316722406406 0.4063490379329566 -0.7057711818050145
outer loop
vertex 0.58682 0.4924 -0.64279
vertex 0.66341 0.38302 -0.64279
vertex 0.55667 0.32139 -0.76604
endloop
endfacet
facet normal 0.5803326875744208 0.4063403620264516 -0.7057630494159225
outer loop
vertex 0.55667 0.32139 -0.76604
vertex 0.4924 0.41318 -0.76604
vertex 0.58682 0.4924 -0.64279
endloop
endfacet
facet normal 0.6420483743021195 0.29939915819583635 -0.7057861072078637
outer loop
vertex 0.71985 0.262 -0.64279
vertex 0.60402 0.21985 -0.76604
vertex 0.55667 0.32139 -0.76604
endloop
endfacet
facet normal 0.6420492211090311 0.2994319785109378 -0.705771413361516
outer loop
vertex 0.55667 0.32139 -0.76604
vertex 0.66341 0.38302 -0.64279
vertex 0.71985 0.262 -0.64279
endloop
endfacet
facet normal 0.4063353088126126 0.5803254706069653 -0.7057718930199494
outer loop
vertex 0.41318 0.4924 -0.76604
vertex 0.32139 0.55667 -0.76604
vertex 0.38302 0.66341 -0.64279
endloop
endfacet
facet normal 0.4063532785825273 0.5803227785788856 -0.7057637605089347
outer loop
vertex 0.38302 0.66341 -0.64279
vertex 0.4924 0.58682 -0.64279
vertex 0.41318 0.4924 -0.76604
endloop
endfacet
facet normal 0.5009501458278857 0.5009501458278857 -0.7057605137651439
outer loop
vertex 0.58682 0.4924 -0.64279
vertex 0.4924 0.41318 -0.76604
vertex 0.41318 0.4924 -0.76604
endloop
endfacet
facet normal 0.5009501458278851 0.5009501458278857 -0.7057605137651447
outer loop
vertex 0.41318 0.4924 -0.76604
vertex 0.4924 0.58682 -0.64279
vertex 0.58682 0.4924 -0.64279
endloop
endfacet
facet normal 0.32984465960428694 0.4710820181278589 -0.8180979359020017
outer loop
vertex 0.25 0.43301 -0.86603
vertex 0.32139 0.55667 -0.76604
vertex 0.41318 0.4924 -0.76604
endloop
endfacet
facet normal 0.329855898646592 0.4710624645805209 -0.8181046635922415
outer loop
vertex 0.41318 0.4924 -0.76604
vertex 0.32139 0.38302 -0.86603
vertex 0.25 0.43301 -0.86603
endloop
endfacet
facet normal 0.40663355584477934 0.4066335558447786 -0.8181065349464346
outer loop
vertex 0.41318 0.4924 -0.76604
vertex 0.4924 0.41318 -0.76604
vertex 0.38302 0.32139 -0.86603
endloop
endfacet
facet normal 0.4066335558447782 0.4066335558447782 -0.8181065349464356
outer loop
vertex 0.38302 0.32139 -0.86603
vertex 0.32139 0.38302 -0.86603
vertex 0.41318 0.4924 -0.76604
endloop
endfacet
facet normal 0.47107128434786605 0.32986207458397326 -0.8180970949795686
outer loop
vertex 0.55667 0.32139 -0.76604
vertex 0.43301 0.25 -0.86603
vertex 0.38302 0.32139 -0.86603
endloop
endfacet
facet normal 0.47107515818118934 0.3298398563711176 -0.8181038225638895
outer loop
vertex 0.38302 0.32139 -0.86603
vertex 0.4924 0.41318 -0.76604
vertex 0.55667 0.32139 -0.76604
endloop
endfacet
facet normal 0.3472480124278544 0.24315629837888109 -0.9057007410969615
outer loop
vertex 0.38302 0.32139 -0.86603
vertex 0.43301 0.25 -0.86603
vertex 0.2962 0.17101 -0.93969
endloop
endfacet
facet normal 0.34724610227623665 0.2431575900460147 -0.9057011266731291
outer loop
vertex 0.2962 0.17101 -0.93969
vertex 0.262 0.21985 -0.93969
vertex 0.38302 0.32139 -0.86603
endloop
endfacet
facet normal 0.2997566428030397 0.29975664280304104 -0.9056996799110073
outer loop
vertex 0.38302 0.32139 -0.86603
vertex 0.262 0.21985 -0.93969
vertex 0.21985 0.262 -0.93969
endloop
endfacet
facet normal 0.29975664280304054 0.2997566428030415 -0.9056996799110066
outer loop
vertex 0.21985 0.262 -0.93969
vertex 0.32139 0.38302 -0.86603
vertex 0.38302 0.32139 -0.86603
endloop
endfacet
facet normal -0.5211789770503253 -0.2430716991332329 -0.8181006190935559
outer loop
vertex -0.46985 -0.17101 -0.86603
vertex -0.43301 -0.25 -0.86603
vertex -0.55667 -0.32139 -0.76604
endloop
endfacet
facet normal -0.521206777493788 -0.24304846281594186 -0.8180898115838804
outer loop
vertex -0.55667 -0.32139 -0.76604
vertex -0.60402 -0.21985 -0.76604
vertex -0.46985 -0.17101 -0.86603
endloop
endfacet
facet normal -0.38418644565447474 -0.17918000579707338 -0.9057015515598625
outer loop
vertex -0.2962 -0.17101 -0.93969
vertex -0.43301 -0.25 -0.86603
vertex -0.46985 -0.17101 -0.86603
endloop
endfacet
facet normal -0.3841908266989394 -0.17911839579023242 -0.905711879666994
outer loop
vertex -0.46985 -0.17101 -0.86603
vertex -0.32139 -0.11698 -0.93969
vertex -0.2962 -0.17101 -0.93969
endloop
endfacet
facet normal -0.2509269979850375 -0.06723048409288256 -0.965668526820075
outer loop
vertex -0.16318 -0.05939 -0.98481
vertex -0.32139 -0.11698 -0.93969
vertex -0.33682 -0.05939 -0.93969
endloop
endfacet
facet normal -0.2509276099406403 -0.06719436340065749 -0.9656708818726276
outer loop
vertex -0.33682 -0.05939 -0.93969
vertex -0.17101 -0.03015 -0.98481
vertex -0.16318 -0.05939 -0.98481
endloop
endfacet
facet normal -0.07926798528832785 0.03698979991580605 -0.9961668239860823
outer loop
vertex -0.16318 0.05939 -0.98481
vertex -0.15038 0.08682 -0.98481
vertex 0 0 -1
endloop
endfacet
facet normal -0.08449555701641993 0.022626546218829258 -0.9961669238891101
outer loop
vertex -0.16318 0.05939 -0.98481
vertex 0 0 -1
vertex -0.17101 0.03015 -0.98481
endloop
endfacet
facet normal -0.0501635808162648 0.07166225830894665 -0.9961667209326719
outer loop
vertex -0.08682 0.15038 -0.98481
vertex 0 0 -1
vertex -0.11162 0.13302 -0.98481
endloop
endfacet
facet normal -0.036989799915799725 0.07926798528832521 -0.9961668239860826
outer loop
vertex -0.08682 0.15038 -0.98481
vertex -0.05939 0.16318 -0.98481
vertex 0 0 -1
endloop
endfacet
facet normal -0.5009501458278857 0.5009501458278857 -0.7057605137651439
outer loop
vertex -0.41318 0.4924 -0.76604
vertex -0.4924 0.41318 -0.76604
vertex -0.58682 0.4924 -0.64279
endloop
endfacet
facet normal -0.5009501458278851 0.5009501458278857 -0.7057605137651447
outer loop
vertex -0.58682 0.4924 -0.64279
vertex -0.4924 0.58682 -0.64279
vertex -0.41318 0.4924 -0.76604
endloop
endfacet
facet normal -0.40635327858252773 0.5803227785788854 -0.7057637605089345
outer loop
vertex -0.41318 0.4924 -0.76604
vertex -0.4924 0.58682 -0.64279
vertex -0.38302 0.66341 -0.64279
endloop
endfacet
facet normal -0.4063353088126126 0.5803254706069653 -0.7057718930199494
outer loop
vertex -0.38302 0.66341 -0.64279
vertex -0.32139 0.55667 -0.76604
vertex -0.41318 0.4924 -0.76604
endloop
endfacet
facet normal -0.32985589864659115 0.47106246458052103 -0.8181046635922417
outer loop
vertex -0.25 0.43301 -0.86603
vertex -0.32139 0.38302 -0.86603
vertex -0.41318 0.4924 -0.76604
endloop
endfacet
facet normal -0.32984465960428694 0.4710820181278589 -0.8180979359020017
outer loop
vertex -0.41318 0.4924 -0.76604
vertex -0.32139 0.55667 -0.76604
vertex -0.25 0.43301 -0.86603
endloop
endfacet
facet normal -0.5803254706069638 0.40633530881261254 -0.7057718930199507
outer loop
vertex -0.4924 0.41318 -0.76604
vertex -0.55667 0.32139 -0.76604
vertex -0.66341 0.38302 -0.64279
endloop
endfacet
facet normal -0.5803227785788856 0.4063532785825273 -0.7057637605089347
outer loop
vertex -0.66341 0.38302 -0.64279
vertex -0.58682 0.4924 -0.64279
vertex -0.4924 0.41318 -0.76604
endloop
endfacet
facet normal -0.7433192899322115 0.34666121900325564 -0.5721035155055856
outer loop
vertex -0.66341 0.38302 -0.64279
vertex -0.71985 0.262 -0.64279
vertex -0.8138 0.2962 -0.5
endloop
endfacet
facet normal -0.7433192705782441 0.3466396422987491 -0.5721166143139199
outer loop
vertex -0.8138 0.2962 -0.5
vertex -0.75 0.43301 -0.5
vertex -0.66341 0.38302 -0.64279
endloop
endfacet
facet normal -0.671841520028457 0.4704411872817739 -0.5721136786293153
outer loop
vertex -0.66341 0.38302 -0.64279
vertex -0.75 0.43301 -0.5
vertex -0.66341 0.55667 -0.5
endloop
endfacet
facet normal -0.6718452093767817 0.4704390618592758 -0.5721110938571571
outer loop
vertex -0.66341 0.55667 -0.5
vertex -0.58682 0.4924 -0.64279
vertex -0.66341 0.38302 -0.64279
endloop
endfacet
facet normal -0.9034864696558631 0.0790655801347995 -0.4212610036387573
outer loop
vertex -0.85287 0.15038 -0.5
vertex -0.86603 0 -0.5
vertex -0.93969 0 -0.34202
endloop
endfacet
facet normal -0.9034701233656427 0.07900795845340972 -0.4213068699732946
outer loop
vertex -0.93969 0 -0.34202
vertex -0.92542 0.16318 -0.34202
vertex -0.85287 0.15038 -0.5
endloop
endfacet
facet normal -0.876002290115122 0.23476706340232323 -0.42131272667047576
outer loop
vertex -0.85287 0.15038 -0.5
vertex -0.92542 0.16318 -0.34202
vertex -0.88302 0.32139 -0.34202
endloop
endfacet
facet normal -0.8760368333092639 0.23471923657518026 -0.42126754760726776
outer loop
vertex -0.88302 0.32139 -0.34202
vertex -0.8138 0.2962 -0.5
vertex -0.85287 0.15038 -0.5
endloop
endfacet
facet normal -0.8170722205450455 -0.0714370013903096 -0.5720924236921421
outer loop
vertex -0.76604 0 -0.64279
vertex -0.75441 -0.13302 -0.64279
vertex -0.85287 -0.15038 -0.5
endloop
endfacet
facet normal -0.8170356961580818 -0.07150013141002999 -0.5721366990604843
outer loop
vertex -0.85287 -0.15038 -0.5
vertex -0.86603 0 -0.5
vertex -0.76604 0 -0.64279
endloop
endfacet
facet normal -0.7922389385417156 -0.21226700952424074 -0.5721015477395004
outer loop
vertex -0.71985 -0.262 -0.64279
vertex -0.8138 -0.2962 -0.5
vertex -0.85287 -0.15038 -0.5
endloop
endfacet
facet normal -0.7922412169196662 -0.21227986088342127 -0.5720936242233099
outer loop
vertex -0.85287 -0.15038 -0.5
vertex -0.75441 -0.13302 -0.64279
vertex -0.71985 -0.262 -0.64279
endloop
endfacet
facet normal -0.876036833309264 -0.2347192365751802 -0.4212675476072677
outer loop
vertex -0.85287 -0.15038 -0.5
vertex -0.8138 -0.2962 -0.5
vertex -0.88302 -0.32139 -0.34202
endloop
endfacet
facet normal -0.876002290115122 -0.23476706340232326 -0.4213127266704758
outer loop
vertex -0.88302 -0.32139 -0.34202
vertex -0.92542 -0.16318 -0.34202
vertex -0.85287 -0.15038 -0.5
endloop
endfacet
facet normal -0.9034701233656428 -0.07900795845340974 -0.42130686997329475
outer loop
vertex -0.85287 -0.15038 -0.5
vertex -0.92542 -0.16318 -0.34202
vertex -0.93969 0 -0.34202
endloop
endfacet
facet normal -0.9034864696558631 -0.0790655801347995 -0.4212610036387573
outer loop
vertex -0.93969 0 -0.34202
vertex -0.86603 0 -0.5
vertex -0.85287 -0.15038 -0.5
endloop
endfacet
facet normal -0.07906364685986071 0.9034643780232473 -0.4213087435459727
outer loop
vertex 0 0.86603 -0.5
vertex -0.15038 0.85287 -0.5
vertex -0.16318 0.92542 -0.34202
endloop
endfacet
facet normal -0.07900973883337288 0.9034904823286476 -0.42126287459379835
outer loop
vertex -0.16318 0.92542 -0.34202
vertex 0 0.93969 -0.34202
vertex 0 0.86603 -0.5
endloop
endfacet
facet normal -0.23477227467632036 0.8760217352957699 -0.4212693892661729
outer loop
vertex -0.2962 0.8138 -0.5
vertex -0.32139 0.88302 -0.34202
vertex -0.16318 0.92542 -0.34202
endloop
endfacet
facet normal -0.23471358370142653 0.8760157352275908 -0.42131456806013357
outer loop
vertex -0.16318 0.92542 -0.34202
vertex -0.15038 0.85287 -0.5
vertex -0.2962 0.8138 -0.5
endloop
endfacet
facet normal -0.2501040765887156 0.933230329176903 -0.2579323624093634
outer loop
vertex -0.16318 0.92542 -0.34202
vertex -0.32139 0.88302 -0.34202
vertex -0.33682 0.92542 -0.17365
endloop
endfacet
facet normal -0.25007080927919956 0.9332487257840227 -0.25789805382930653
outer loop
vertex -0.33682 0.92542 -0.17365
vertex -0.17101 0.96985 -0.17365
vertex -0.16318 0.92542 -0.34202
endloop
endfacet
facet normal -0.084199337575982 0.9624952352184959 -0.25790190719236245
outer loop
vertex -0.16318 0.92542 -0.34202
vertex -0.17101 0.96985 -0.17365
vertex 0 0.98481 -0.17365
endloop
endfacet
facet normal -0.08416925761886031 0.9624905016289856 -0.25792939023281874
outer loop
vertex 0 0.98481 -0.17365
vertex 0 0.93969 -0.34202
vertex -0.16318 0.92542 -0.34202
endloop
endfacet
facet normal -0.24315591445578766 0.3472474641528059 -0.9057010543797636
outer loop
vertex -0.21985 0.262 -0.93969
vertex -0.32139 0.38302 -0.86603
vertex -0.25 0.43301 -0.86603
endloop
endfacet
facet normal -0.2431581512329739 0.3472469036905922 -0.9057006687456176
outer loop
vertex -0.25 0.43301 -0.86603
vertex -0.17101 0.2962 -0.93969
vertex -0.21985 0.262 -0.93969
endloop
endfacet
facet normal -0.1489674760175538 0.21281068002508055 -0.9656709095526397
outer loop
vertex -0.08682 0.15038 -0.98481
vertex -0.11162 0.13302 -0.98481
vertex -0.21985 0.262 -0.93969
endloop
endfacet
facet normal -0.14899642177911376 0.21277734618981956 -0.9656737892505098
outer loop
vertex -0.21985 0.262 -0.93969
vertex -0.17101 0.2962 -0.93969
vertex -0.08682 0.15038 -0.98481
endloop
endfacet
facet normal -0.18368160766947367 0.18368160766947164 -0.965671856278268
outer loop
vertex -0.13302 0.11162 -0.98481
vertex -0.262 0.21985 -0.93969
vertex -0.21985 0.262 -0.93969
endloop
endfacet
facet normal -0.18368160766947067 0.183681607669472 -0.9656718562782685
outer loop
vertex -0.21985 0.262 -0.93969
vertex -0.11162 0.13302 -0.98481
vertex -0.13302 0.11162 -0.98481
endloop
endfacet
facet normal -0.14879261998122015 0.5555144424043792 -0.8180858515579378
outer loop
vertex -0.08682 0.4924 -0.86603
vertex -0.17101 0.46985 -0.86603
vertex -0.21985 0.60402 -0.76604
endloop
endfacet
facet normal -0.14883855408527782 0.5554757485741295 -0.8181037694350358
outer loop
vertex -0.21985 0.60402 -0.76604
vertex -0.11162 0.63302 -0.76604
vertex -0.08682 0.4924 -0.86603
endloop
endfacet
facet normal -0.05014379020249462 0.5728812551077209 -0.8181030912118171
outer loop
vertex -0.08682 0.4924 -0.86603
vertex -0.11162 0.63302 -0.76604
vertex 0 0.64279 -0.76604
endloop
endfacet
facet normal -0.050148712679318114 0.572883057212953 -0.8181015275471302
outer loop
vertex 0 0.64279 -0.76604
vertex 0 0.5 -0.86603
vertex -0.08682 0.4924 -0.86603
endloop
endfacet
facet normal -0.0076301258765472954 0.08713950574918614 -0.9961668975211412
outer loop
vertex -0.03015 0.17101 -0.98481
vertex 0 0.17365 -0.98481
vertex 0 0 -1
endloop
endfacet
facet normal -0.022626546218826864 0.08449555701641961 -0.9961669238891102
outer loop
vertex -0.03015 0.17101 -0.98481
vertex 0 0 -1
vertex -0.05939 0.16318 -0.98481
endloop
endfacet
facet normal 0.1836816076694723 0.1836816076694716 -0.9656718562782681
outer loop
vertex 0.21985 0.262 -0.93969
vertex 0.262 0.21985 -0.93969
vertex 0.13302 0.11162 -0.98481
endloop
endfacet
facet normal 0.18368160766947197 0.18368160766947197 -0.9656718562782682
outer loop
vertex 0.13302 0.11162 -0.98481
vertex 0.11162 0.13302 -0.98481
vertex 0.21985 0.262 -0.93969
endloop
endfacet
facet normal 0.21279904934083513 0.14895933453858512 -0.9656747284947755
outer loop
vertex 0.2962 0.17101 -0.93969
vertex 0.15038 0.08682 -0.98481
vertex 0.13302 0.11162 -0.98481
endloop
endfacet
facet normal 0.21278325066111586 0.14900055635974896 -0.9656718502900321
outer loop
vertex 0.13302 0.11162 -0.98481
vertex 0.262 0.21985 -0.93969
vertex 0.2962 0.17101 -0.93969
endloop
endfacet
facet normal 0.07166225830894672 0.050163580816262675 -0.996166720932672
outer loop
vertex 0.13302 0.11162 -0.98481
vertex 0.15038 0.08682 -0.98481
vertex 0 0 -1
endloop
endfacet
facet normal 0.06185322992281579 0.06185322992280824 -0.9961668313571936
outer loop
vertex 0.13302 0.11162 -0.98481
vertex 0 0 -1
vertex 0.11162 0.13302 -0.98481
endloop
endfacet
facet normal 0.08449555701641993 0.022626546218829258 -0.9961669238891101
outer loop
vertex 0.16318 0.05939 -0.98481
vertex 0.17101 0.03015 -0.98481
vertex 0 0 -1
endloop
endfacet
facet normal 0.07926798528832785 0.03698979991580605 -0.9961668239860823
outer loop
vertex 0.16318 0.05939 -0.98481
vertex 0 0 -1
vertex 0.15038 0.08682 -0.98481
endloop
endfacet
facet normal 0.23544290116526456 0.10976877068948775 -0.9656694347820077
outer loop
vertex 0.2962 0.17101 -0.93969
vertex 0.32139 0.11698 -0.93969
vertex 0.16318 0.05939 -0.98481
endloop
endfacet
facet normal 0.2353847548142129 0.10984049805402454 -0.9656754538603002
outer loop
vertex 0.16318 0.05939 -0.98481
vertex 0.15038 0.08682 -0.98481
vertex 0.2962 0.17101 -0.93969
endloop
endfacet
facet normal 0.2509276099406403 0.06719436340065749 -0.9656708818726276
outer loop
vertex 0.33682 0.05939 -0.93969
vertex 0.17101 0.03015 -0.98481
vertex 0.16318 0.05939 -0.98481
endloop
endfacet
facet normal 0.2509269979850375 0.06723048409288256 -0.965668526820075
outer loop
vertex 0.16318 0.05939 -0.98481
vertex 0.32139 0.11698 -0.93969
vertex 0.33682 0.05939 -0.93969
endloop
endfacet
facet normal -0.4094636342067526 -0.10967341669274604 -0.905710369783375
outer loop
vertex -0.32139 -0.11698 -0.93969
vertex -0.46985 -0.17101 -0.86603
vertex -0.4924 -0.08682 -0.86603
endloop
endfacet
facet normal -0.4094672211661976 -0.10970792190648478 -0.9057045691953822
outer loop
vertex -0.4924 -0.08682 -0.86603
vertex -0.33682 -0.05939 -0.93969
vertex -0.32139 -0.11698 -0.93969
endloop
endfacet
facet normal -0.5555144424043799 -0.148792619981218 -0.8180858515579373
outer loop
vertex -0.4924 -0.08682 -0.86603
vertex -0.46985 -0.17101 -0.86603
vertex -0.60402 -0.21985 -0.76604
endloop
endfacet
facet normal -0.5554757485741296 -0.14883855408528004 -0.8181037694350354
outer loop
vertex -0.60402 -0.21985 -0.76604
vertex -0.63302 -0.11162 -0.76604
vertex -0.4924 -0.08682 -0.86603
endloop
endfacet
facet normal -0.25878145784511114 0.022659470935690627 -0.9656700810589884
outer loop
vertex -0.17101 0.03015 -0.98481
vertex -0.17365 0 -0.98481
vertex -0.34202 0 -0.93969
endloop
endfacet
facet normal -0.2587812343030626 0.022658063956489703 -0.9656701739778065
outer loop
vertex -0.34202 0 -0.93969
vertex -0.33682 0.05939 -0.93969
vertex -0.17101 0.03015 -0.98481
endloop
endfacet
facet normal -0.2587812343030632 -0.022658063956489696 -0.9656701739778064
outer loop
vertex -0.17101 -0.03015 -0.98481
vertex -0.33682 -0.05939 -0.93969
vertex -0.34202 0 -0.93969
endloop
endfacet
facet normal -0.25878145784511114 -0.022659470935690627 -0.9656700810589884
outer loop
vertex -0.34202 0 -0.93969
vertex -0.17365 0 -0.98481
vertex -0.17101 -0.03015 -0.98481
endloop
endfacet
facet normal -0.422291282021829 -0.03697448503979553 -0.9057057803638012
outer loop
vertex -0.34202 0 -0.93969
vertex -0.33682 -0.05939 -0.93969
vertex -0.4924 -0.08682 -0.86603
endloop
endfacet
facet normal -0.4222951019564978 -0.03696662951934359 -0.9057043199441696
outer loop
vertex -0.4924 -0.08682 -0.86603
vertex -0.5 0 -0.86603
vertex -0.34202 0 -0.93969
endloop
endfacet
facet normal -0.7057188838934262 -0.06177095050742356 -0.7057940256120239
outer loop
vertex -0.64279 0 -0.76604
vertex -0.63302 -0.11162 -0.76604
vertex -0.75441 -0.13302 -0.64279
endloop
endfacet
facet normal -0.7057593462310272 -0.06170486540871241 -0.7057593462310263
outer loop
vertex -0.75441 -0.13302 -0.64279
vertex -0.76604 0 -0.64279
vertex -0.64279 0 -0.76604
endloop
endfacet
facet normal -0.5728812551077206 -0.05014379020249299 -0.8181030912118172
outer loop
vertex -0.4924 -0.08682 -0.86603
vertex -0.63302 -0.11162 -0.76604
vertex -0.64279 0 -0.76604
endloop
endfacet
facet normal -0.5728830572129525 -0.05014871267931923 -0.8181015275471303
outer loop
vertex -0.64279 0 -0.76604
vertex -0.5 0 -0.86603
vertex -0.4924 -0.08682 -0.86603
endloop
endfacet
facet normal -0.2997566428030408 0.2997566428030408 -0.905699679911007
outer loop
vertex -0.21985 0.262 -0.93969
vertex -0.262 0.21985 -0.93969
vertex -0.38302 0.32139 -0.86603
endloop
endfacet
facet normal -0.29975664280303976 0.2997566428030416 -0.9056996799110071
outer loop
vertex -0.38302 0.32139 -0.86603
vertex -0.32139 0.38302 -0.86603
vertex -0.21985 0.262 -0.93969
endloop
endfacet
facet normal -0.40663355584477934 0.4066335558447786 -0.8181065349464346
outer loop
vertex -0.38302 0.32139 -0.86603
vertex -0.4924 0.41318 -0.76604
vertex -0.41318 0.4924 -0.76604
endloop
endfacet
facet normal -0.40663355584477723 0.40663355584477817 -0.8181065349464358
outer loop
vertex -0.41318 0.4924 -0.76604
vertex -0.32139 0.38302 -0.86603
vertex -0.38302 0.32139 -0.86603
endloop
endfacet
facet normal -0.6420371161216195 0.2994263331176999 -0.705784820294346
outer loop
vertex -0.60402 0.21985 -0.76604
vertex -0.71985 0.262 -0.64279
vertex -0.66341 0.38302 -0.64279
endloop
endfacet
facet normal -0.642062802136018 0.2994058861644718 -0.7057701279051928
outer loop
vertex -0.66341 0.38302 -0.64279
vertex -0.55667 0.32139 -0.76604
vertex -0.60402 0.21985 -0.76604
endloop
endfacet
facet normal -0.25092130033001714 0.06722895752894845 -0.965670113605192
outer loop
vertex -0.17101 0.03015 -0.98481
vertex -0.33682 0.05939 -0.93969
vertex -0.32139 0.11698 -0.93969
endloop
endfacet
facet normal -0.25093883263829553 0.06719736865792979 -0.9656677564874886
outer loop
vertex -0.32139 0.11698 -0.93969
vertex -0.16318 0.05939 -0.98481
vertex -0.17101 0.03015 -0.98481
endloop
endfacet
facet normal -0.55547574857413 0.14883855408528004 -0.8181037694350352
outer loop
vertex -0.4924 0.08682 -0.86603
vertex -0.63302 0.11162 -0.76604
vertex -0.60402 0.21985 -0.76604
endloop
endfacet
facet normal -0.5555144424043799 0.148792619981218 -0.8180858515579376
outer loop
vertex -0.60402 0.21985 -0.76604
vertex -0.46985 0.17101 -0.86603
vertex -0.4924 0.08682 -0.86603
endloop
endfacet
facet normal -0.4094672211661976 0.10970792190648478 -0.9057045691953822
outer loop
vertex -0.32139 0.11698 -0.93969
vertex -0.33682 0.05939 -0.93969
vertex -0.4924 0.08682 -0.86603
endloop
endfacet
facet normal -0.40946363420675186 0.10967341669274609 -0.9057103697833755
outer loop
vertex -0.4924 0.08682 -0.86603
vertex -0.46985 0.17101 -0.86603
vertex -0.32139 0.11698 -0.93969
endloop
endfacet
facet normal -0.4222951019564978 0.03696662951934359 -0.9057043199441696
outer loop
vertex -0.34202 0 -0.93969
vertex -0.5 0 -0.86603
vertex -0.4924 0.08682 -0.86603
endloop
endfacet
facet normal -0.42229128202182836 0.03697448503979553 -0.9057057803638013
outer loop
vertex -0.4924 0.08682 -0.86603
vertex -0.33682 0.05939 -0.93969
vertex -0.34202 0 -0.93969
endloop
endfacet
facet normal -0.5728830572129525 0.05014871267931923 -0.8181015275471303
outer loop
vertex -0.4924 0.08682 -0.86603
vertex -0.5 0 -0.86603
vertex -0.64279 0 -0.76604
endloop
endfacet
facet normal -0.5728812551077209 0.05014379020249299 -0.8181030912118172
outer loop
vertex -0.64279 0 -0.76604
vertex -0.63302 0.11162 -0.76604
vertex -0.4924 0.08682 -0.86603
endloop
endfacet
facet normal -0.817039568877483 0.07143414663994316 -0.5721394109675716
outer loop
vertex -0.75441 0.13302 -0.64279
vertex -0.76604 0 -0.64279
vertex -0.86603 0 -0.5
endloop
endfacet
facet normal -0.8170645780812702 0.07150265891441325 -0.5720951363305276
outer loop
vertex -0.86603 0 -0.5
vertex -0.85287 0.15038 -0.5
vertex -0.75441 0.13302 -0.64279
endloop
endfacet
facet normal -0.7922439500232848 0.2122683522658734 -0.5720941096339253
outer loop
vertex -0.75441 0.13302 -0.64279
vertex -0.85287 0.15038 -0.5
vertex -0.8138 0.2962 -0.5
endloop
endfacet
facet normal -0.7922355511684097 0.21227834275376253 -0.5721020334368703
outer loop
vertex -0.8138 0.2962 -0.5
vertex -0.71985 0.262 -0.64279
vertex -0.75441 0.13302 -0.64279
endloop
endfacet
facet normal -0.6842818242915296 0.1833518701326298 -0.7057906748201788
outer loop
vertex -0.60402 0.21985 -0.76604
vertex -0.63302 0.11162 -0.76604
vertex -0.75441 0.13302 -0.64279
endloop
endfacet
facet normal -0.6842819169415821 0.18335232632579607 -0.7057904664825619
outer loop
vertex -0.75441 0.13302 -0.64279
vertex -0.71985 0.262 -0.64279
vertex -0.60402 0.21985 -0.76604
endloop
endfacet
facet normal -0.7057593462310272 0.06170486540871241 -0.7057593462310263
outer loop
vertex -0.64279 0 -0.76604
vertex -0.76604 0 -0.64279
vertex -0.75441 0.13302 -0.64279
endloop
endfacet
facet normal -0.7057188838934262 0.06177095050742357 -0.7057940256120241
outer loop
vertex -0.75441 0.13302 -0.64279
vertex -0.63302 0.11162 -0.76604
vertex -0.64279 0 -0.76604
endloop
endfacet
facet normal -0.03696640843472569 0.4222925763556265 -0.90570550655407
outer loop
vertex -0.05939 0.33682 -0.93969
vertex -0.08682 0.4924 -0.86603
vertex 0 0.5 -0.86603
endloop
endfacet
facet normal -0.036974808305572954 0.4222949740900073 -0.9057040457064803
outer loop
vertex 0 0.5 -0.86603
vertex 0 0.34202 -0.93969
vertex -0.05939 0.33682 -0.93969
endloop
endfacet
facet normal -0.022659430975660613 0.25878100148342814 -0.9656702042929011
outer loop
vertex 0 0.17365 -0.98481
vertex -0.03015 0.17101 -0.98481
vertex -0.05939 0.33682 -0.93969
endloop
endfacet
facet normal -0.022658084241419487 0.2587814659804086 -0.9656701114166988
outer loop
vertex -0.05939 0.33682 -0.93969
vertex 0 0.34202 -0.93969
vertex 0 0.17365 -0.98481
endloop
endfacet
facet normal -0.5211946515905275 0.24307900955304382 -0.8180884611508341
outer loop
vertex -0.43301 0.25 -0.86603
vertex -0.46985 0.17101 -0.86603
vertex -0.60402 0.21985 -0.76604
endloop
endfacet
facet normal -0.5211945833061489 0.24304277643831207 -0.8180992697426678
outer loop
vertex -0.60402 0.21985 -0.76604
vertex -0.55667 0.32139 -0.76604
vertex -0.43301 0.25 -0.86603
endloop
endfacet
facet normal -0.471082018127859 0.32984465960428705 -0.8180979359020016
outer loop
vertex -0.43301 0.25 -0.86603
vertex -0.55667 0.32139 -0.76604
vertex -0.4924 0.41318 -0.76604
endloop
endfacet
facet normal -0.4710624645805225 0.32985589864659176 -0.8181046635922408
outer loop
vertex -0.4924 0.41318 -0.76604
vertex -0.38302 0.32139 -0.86603
vertex -0.43301 0.25 -0.86603
endloop
endfacet
facet normal -0.17912947006540514 0.3842145798981303 -0.9056996133088445
outer loop
vertex -0.11698 0.32139 -0.93969
vertex -0.17101 0.2962 -0.93969
vertex -0.25 0.43301 -0.86603
endloop
endfacet
facet normal -0.17917242914486084 0.3841702002755858 -0.9057099413468673
outer loop
vertex -0.25 0.43301 -0.86603
vertex -0.17101 0.46985 -0.86603
vertex -0.11698 0.32139 -0.93969
endloop
endfacet
facet normal -0.10967341669274508 0.4094636342067519 -0.9057103697833754
outer loop
vertex -0.11698 0.32139 -0.93969
vertex -0.17101 0.46985 -0.86603
vertex -0.08682 0.4924 -0.86603
endloop
endfacet
facet normal -0.10970792190648473 0.4094672211661976 -0.9057045691953822
outer loop
vertex -0.08682 0.4924 -0.86603
vertex -0.05939 0.33682 -0.93969
vertex -0.11698 0.32139 -0.93969
endloop
endfacet
facet normal -0.06719736865793566 0.25093883263829836 -0.9656677564874876
outer loop
vertex -0.03015 0.17101 -0.98481
vertex -0.05939 0.16318 -0.98481
vertex -0.11698 0.32139 -0.93969
endloop
endfacet
facet normal -0.0672289575289485 0.250921300330015 -0.9656701136051924
outer loop
vertex -0.11698 0.32139 -0.93969
vertex -0.05939 0.33682 -0.93969
vertex -0.03015 0.17101 -0.98481
endloop
endfacet
facet normal -0.10976240032419968 0.2354292373766009 -0.9656734901939382
outer loop
vertex -0.08682 0.15038 -0.98481
vertex -0.17101 0.2962 -0.93969
vertex -0.11698 0.32139 -0.93969
endloop
endfacet
facet normal -0.10985305328662451 0.23541166028530672 -0.9656674670326848
outer loop
vertex -0.11698 0.32139 -0.93969
vertex -0.05939 0.16318 -0.98481
vertex -0.08682 0.15038 -0.98481
endloop
endfacet
facet normal -0.38419082669893934 0.1791183957902324 -0.905711879666994
outer loop
vertex -0.2962 0.17101 -0.93969
vertex -0.32139 0.11698 -0.93969
vertex -0.46985 0.17101 -0.86603
endloop
endfacet
facet normal -0.3841864456544748 0.1791800057970734 -0.9057015515598624
outer loop
vertex -0.46985 0.17101 -0.86603
vertex -0.43301 0.25 -0.86603
vertex -0.2962 0.17101 -0.93969
endloop
endfacet
facet normal -0.3472480124278535 0.24315629837888109 -0.9057007410969617
outer loop
vertex -0.2962 0.17101 -0.93969
vertex -0.43301 0.25 -0.86603
vertex -0.38302 0.32139 -0.86603
endloop
endfacet
facet normal -0.34724610227623665 0.2431575900460147 -0.9057011266731291
outer loop
vertex -0.38302 0.32139 -0.86603
vertex -0.262 0.21985 -0.93969
vertex -0.2962 0.17101 -0.93969
endloop
endfacet
facet normal -0.21279904934083513 0.14895933453858512 -0.9656747284947755
outer loop
vertex -0.13302 0.11162 -0.98481
vertex -0.15038 0.08682 -0.98481
vertex -0.2962 0.17101 -0.93969
endloop
endfacet
facet normal -0.21278325066111586 0.14900055635974896 -0.9656718502900321
outer loop
vertex -0.2962 0.17101 -0.93969
vertex -0.262 0.21985 -0.93969
vertex -0.13302 0.11162 -0.98481
endloop
endfacet
facet normal -0.23544290116526448 0.10976877068948772 -0.9656694347820076
outer loop
vertex -0.16318 0.05939 -0.98481
vertex -0.32139 0.11698 -0.93969
vertex -0.2962 0.17101 -0.93969
endloop
endfacet
facet normal -0.23538475481421287 0.10984049805402453 -0.9656754538603002
outer loop
vertex -0.2962 0.17101 -0.93969
vertex -0.15038 0.08682 -0.98481
vertex -0.16318 0.05939 -0.98481
endloop
endfacet
endsolid JSxCAD
