solid JSxCAD
facet normal 0 -1 0
outer loop
vertex 1 -1.5 0.5
vertex 0 -1.5 0.5
vertex 0 -1.5 -0.5
endloop
endfacet
facet normal 0 -1 0
outer loop
vertex 0 -1.5 -0.5
vertex 1 -1.5 -0.5
vertex 1 -1.5 0.5
endloop
endfacet
facet normal 0 -0.894427190999916 0.447213595499958
outer loop
vertex 0 0 3.5
vertex 0 -1.5 0.5
vertex 1 -1.5 0.5
endloop
endfacet
facet normal 0 -0.894427190999916 0.447213595499958
outer loop
vertex 1 -1.5 0.5
vertex 1 0 3.5
vertex 0 0 3.5
endloop
endfacet
facet normal 0 0 1
outer loop
vertex 0 0 3.5
vertex 1 0 3.5
vertex 1 1 3.5
endloop
endfacet
facet normal 0 0 1
outer loop
vertex 1 1 3.5
vertex 0 1 3.5
vertex 0 0 3.5
endloop
endfacet
facet normal -0.7456463532839217 -0.6663418910997485 0
outer loop
vertex -0.76604 -0.64279 0
vertex 0 -1.5 -0.5
vertex 0 -1.5 0.5
endloop
endfacet
facet normal 1 0 0
outer loop
vertex 1 1 2.5
vertex 1 1 3.5
vertex 1 0 3.5
endloop
endfacet
facet normal 1 0 0
outer loop
vertex 1 0 3.5
vertex 1 -1.5 0.5
vertex 1 -1.5 -0.5
endloop
endfacet
facet normal 1 0 0
outer loop
vertex 1 -1.5 -0.5
vertex 1 -0.5 -0.5
vertex 1 0 0
endloop
endfacet
facet normal 1 0 0
outer loop
vertex 1 0 0
vertex 1 1 2.5
vertex 1 0 3.5
endloop
endfacet
facet normal 1 0 0
outer loop
vertex 1 0 3.5
vertex 1 -1.5 -0.5
vertex 1 0 0
endloop
endfacet
facet normal -0.7711921042138633 -0.5693945826213621 0.2846972913106811
outer loop
vertex -0.71985 -0.60402 0.34202
vertex 0 -1.5 0.5
vertex 0 0 3.5
endloop
endfacet
facet normal -0.7853641825236067 -0.5499363862867479 0.2842060376679205
outer loop
vertex -0.71985 -0.60402 0.34202
vertex 0 0 3.5
vertex -0.8138 -0.46985 0.34202
endloop
endfacet
facet normal -0.7675251059749447 -0.6350690941713382 0.08713470793286672
outer loop
vertex -0.75441 -0.63302 0.17365
vertex -0.76604 -0.64279 0
vertex 0 -1.5 0.5
endloop
endfacet
facet normal -0.774824759291728 -0.576947172876468 0.2584154641238924
outer loop
vertex -0.75441 -0.63302 0.17365
vertex 0 -1.5 0.5
vertex -0.71985 -0.60402 0.34202
endloop
endfacet
facet normal -0.7914300540169625 -0.5541867798770364 0.2579059569072208
outer loop
vertex -0.8138 -0.46985 0.34202
vertex -0.85287 -0.49241 0.17365
vertex -0.75441 -0.63302 0.17365
endloop
endfacet
facet normal -0.7914318881679658 -0.5541851821821596 0.2579037615867888
outer loop
vertex -0.75441 -0.63302 0.17365
vertex -0.71985 -0.60402 0.34202
vertex -0.8138 -0.46985 0.34202
endloop
endfacet
facet normal 0.5973131608057796 0 -0.8020080971712249
outer loop
vertex 0.64279 0 -0.76604
vertex 1 -0.5 -0.5
vertex 1 -1.5 -0.5
endloop
endfacet
facet normal 0.9955912596806361 0.08708915194096742 -0.03483566077638677
outer loop
vertex 0.98481 0.17365 0
vertex 1 1 2.5
vertex 1 0 0
endloop
endfacet
facet normal 0.8096201294261669 0.5668837856869597 -0.1521775921519919
outer loop
vertex 0.75441 0.63302 -0.17365
vertex 1 1 2.5
vertex 0.85287 0.4924 -0.17365
endloop
endfacet
facet normal -0.8160403021900206 -0.5714396653545762 0.08680399795556638
outer loop
vertex -0.86603 -0.5 0
vertex -0.76604 -0.64279 0
vertex -0.75441 -0.63302 0.17365
endloop
endfacet
facet normal -0.8160485167802324 -0.5714254815602167 0.08682014331050855
outer loop
vertex -0.75441 -0.63302 0.17365
vertex -0.85287 -0.49241 0.17365
vertex -0.86603 -0.5 0
endloop
endfacet
facet normal -0.9439299430159623 0.25293291941498763 0.21218199959962158
outer loop
vertex -0.92542 0.33682 0.17365
vertex -0.96985 0.17101 0.17365
vertex 0 1 3.5
endloop
endfacet
facet normal -0.8937956653343848 0.4167944177915524 0.16556485716257927
outer loop
vertex -0.92542 0.33682 0.17365
vertex 0 1 3.5
vertex -0.85287 0.4924 0.17365
endloop
endfacet
facet normal -0.9551182736010099 -0.08352456038905738 0.284205438451204
outer loop
vertex -0.93969 0 0.34202
vertex -0.92542 -0.16318 0.34202
vertex 0 0 3.5
endloop
endfacet
facet normal -0.9584674282149002 0 0.2852020144583751
outer loop
vertex -0.93969 0 0.34202
vertex 0 0 3.5
vertex 0 1 3.5
endloop
endfacet
facet normal -0.9260829778397065 -0.2481885990797269 0.2842054493537804
outer loop
vertex -0.88302 -0.32139 0.34202
vertex 0 0 3.5
vertex -0.92542 -0.16318 0.34202
endloop
endfacet
facet normal -0.8689527950403645 -0.4051523135706187 0.2842052828501142
outer loop
vertex -0.88302 -0.32139 0.34202
vertex -0.8138 -0.46985 0.34202
vertex 0 0 3.5
endloop
endfacet
facet normal 0.6460639874568347 0.05654941011873509 -0.7611855807400704
outer loop
vertex 0.63302 0.11162 -0.76604
vertex 1 -0.5 -0.5
vertex 0.64279 0 -0.76604
endloop
endfacet
facet normal 0.5735831664103626 -0.008682713704297873 -0.8191013134487037
outer loop
vertex 0.5 0 -0.86603
vertex 0.64279 0 -0.76604
vertex 1 -1.5 -0.5
endloop
endfacet
facet normal 0.7914318881679657 0.5541851821821594 -0.2579037615867889
outer loop
vertex 0.8138 0.46985 -0.34202
vertex 0.71985 0.60402 -0.34202
vertex 0.75441 0.63302 -0.17365
endloop
endfacet
facet normal 0.7914300540169625 0.5541867798770364 -0.2579059569072208
outer loop
vertex 0.75441 0.63302 -0.17365
vertex 0.85287 0.49241 -0.17365
vertex 0.8138 0.46985 -0.34202
endloop
endfacet
facet normal -0.7675251059749447 -0.6350690941713382 -0.08713470793286672
outer loop
vertex -0.75441 -0.63302 -0.17365
vertex 0 -1.5 -0.5
vertex -0.76604 -0.64279 0
endloop
endfacet
facet normal -0.7047070685038476 0.7047070685038473 0.08231582594755094
outer loop
vertex -0.76604 0.64279 0
vertex 0 1 3.5
vertex -0.64279 0.76604 0
endloop
endfacet
facet normal -0.9620381899533178 0.08412970321506194 0.25962417858953224
outer loop
vertex -0.92542 0.16318 0.34202
vertex -0.93969 0 0.34202
vertex 0 1 3.5
endloop
endfacet
facet normal -0.9619327002111656 0.09004654471501071 0.25802538644355
outer loop
vertex -0.92542 0.16318 0.34202
vertex 0 1 3.5
vertex -0.96985 0.17101 0.17365
endloop
endfacet
facet normal 0.5011044736479056 -0.043865399674315554 -0.8642743390853785
outer loop
vertex 0.4924 -0.08682 -0.86603
vertex 0.5 0 -0.86603
vertex 1 -1.5 -0.5
endloop
endfacet
facet normal 0.41389342102162296 -0.08606240344305445 -0.9062480337902106
outer loop
vertex 0.4924 -0.08682 -0.86603
vertex 1 -1.5 -0.5
vertex 0.33682 -0.05939 -0.93969
endloop
endfacet
facet normal 0.898728401431902 0.4190946492086681 -0.1290230036246312
outer loop
vertex 0.92542 0.33682 -0.17365
vertex 0.85287 0.4924 -0.17365
vertex 1 1 2.5
endloop
endfacet
facet normal 0.6980059835976744 0.698005983597674 -0.15992277424959395
outer loop
vertex 0.63302 0.75441 -0.17365
vertex 1 1 2.5
vertex 0.75441 0.63302 -0.17365
endloop
endfacet
facet normal 0.07924478776270064 -0.29576845931651385 -0.9519670593492089
outer loop
vertex 0.11698 -0.32139 -0.93969
vertex 1 -1.5 -0.5
vertex 0.05939 -0.33682 -0.93969
endloop
endfacet
facet normal -0.2569240027596093 -0.3669094730347729 -0.8940735402657467
outer loop
vertex -0.25 -0.43301 -0.86603
vertex 0 -1.5 -0.5
vertex -0.32139 -0.38302 -0.86603
endloop
endfacet
facet normal -0.21813523258663362 -0.36201242197934747 -0.9062913585801323
outer loop
vertex -0.25 -0.43301 -0.86603
vertex -0.17101 -0.2962 -0.93969
vertex 0 -1.5 -0.5
endloop
endfacet
facet normal -0.5632385580982692 -0.42817552825117855 -0.7067022312673187
outer loop
vertex -0.58682 -0.4924 -0.64279
vertex -0.4924 -0.41318 -0.76604
vertex 0 -1.5 -0.5
endloop
endfacet
facet normal -0.6708453835524039 -0.47178138711002565 -0.5721789878551716
outer loop
vertex -0.66341 -0.55667 -0.5
vertex -0.58682 -0.4924 -0.64279
vertex 0 -1.5 -0.5
endloop
endfacet
facet normal -0.5803205407288816 -0.40637612935983036 -0.7057524434918104
outer loop
vertex -0.55667 -0.3214 -0.76605
vertex -0.4924 -0.41318 -0.76605
vertex -0.58682 -0.49241 -0.64279
endloop
endfacet
facet normal -0.5803273866711166 -0.4063724089862656 -0.7057489564244298
outer loop
vertex -0.58682 -0.49241 -0.64279
vertex -0.66342 -0.38302 -0.64279
vertex -0.55667 -0.3214 -0.76605
endloop
endfacet
facet normal -0.6420602300954028 -0.29943711276305224 -0.7057592198689052
outer loop
vertex -0.55667 -0.3214 -0.76604
vertex -0.66341 -0.38302 -0.64279
vertex -0.71985 -0.262 -0.64279
endloop
endfacet
facet normal -0.6420586107123598 -0.2993744482248156 -0.7057872768477778
outer loop
vertex -0.71985 -0.262 -0.64279
vertex -0.60402 -0.21985 -0.76604
vertex -0.55667 -0.3214 -0.76604
endloop
endfacet
facet normal -0.8160496781229417 -0.5714262947726689 -0.08680387363373841
outer loop
vertex -0.85287 -0.49241 -0.17365
vertex -0.75441 -0.63302 -0.17365
vertex -0.76604 -0.64279 0
endloop
endfacet
facet normal -0.8160391586039876 -0.5714388645480268 -0.08682001905642364
outer loop
vertex -0.76604 -0.64279 0
vertex -0.86603 -0.5 0
vertex -0.85287 -0.49241 -0.17365
endloop
endfacet
facet normal -0.902874277348146 -0.4210550158874338 -0.08677968022006224
outer loop
vertex -0.93969 -0.34202 0
vertex -0.92542 -0.33683 -0.17365
vertex -0.85287 -0.4924 -0.17365
endloop
endfacet
facet normal -0.9028812423826121 -0.4210359610477706 -0.08679966392913598
outer loop
vertex -0.85287 -0.4924 -0.17365
vertex -0.86602 -0.5 0
vertex -0.93969 -0.34202 0
endloop
endfacet
facet normal -0.774824759291728 -0.5769471728764681 -0.2584154641238924
outer loop
vertex -0.71985 -0.60402 -0.34202
vertex 0 -1.5 -0.5
vertex -0.75441 -0.63302 -0.17365
endloop
endfacet
facet normal -0.7914313968948552 -0.554184838177475 -0.25790600835045335
outer loop
vertex -0.85287 -0.49241 -0.17365
vertex -0.8138 -0.46985 -0.34202
vertex -0.71985 -0.60402 -0.34202
endloop
endfacet
facet normal -0.7914305227879439 -0.5541871081267381 -0.2579038130499911
outer loop
vertex -0.71985 -0.60402 -0.34202
vertex -0.75441 -0.63302 -0.17365
vertex -0.85287 -0.49241 -0.17365
endloop
endfacet
facet normal -0.7418091673309121 -0.5216876593546268 -0.4213800485795572
outer loop
vertex -0.71985 -0.60402 -0.34202
vertex -0.66341 -0.55667 -0.5
vertex 0 -1.5 -0.5
endloop
endfacet
facet normal -0.8756717512276526 -0.4082850506532266 -0.25788040157210174
outer loop
vertex -0.88302 -0.32139 -0.34202
vertex -0.8138 -0.46985 -0.34202
vertex -0.85287 -0.4924 -0.17365
endloop
endfacet
facet normal -0.8756224043772718 -0.40834611710208407 -0.2579512620636244
outer loop
vertex -0.85287 -0.4924 -0.17365
vertex -0.92542 -0.33683 -0.17365
vertex -0.88302 -0.32139 -0.34202
endloop
endfacet
facet normal -0.25883823498619507 0.9658819509003931 0.008650146477478632
outer loop
vertex -0.17365 0.98481 0
vertex -0.34202 0.93969 0
vertex 0 1 3.5
endloop
endfacet
facet normal -0.5728721819385397 0.8180859971897605 0.05052488855021636
outer loop
vertex -0.5 0.86603 0
vertex -0.64279 0.76604 0
vertex 0 1 3.5
endloop
endfacet
facet normal -0.4224446930985875 0.9060251509057127 0.02566918773784471
outer loop
vertex -0.5 0.86603 0
vertex 0 1 3.5
vertex -0.34202 0.93969 0
endloop
endfacet
facet normal -0.7188705397144876 0.6896847310144619 0.08694894442206026
outer loop
vertex -0.75441 0.63302 0.17365
vertex 0 1 3.5
vertex -0.76604 0.64279 0
endloop
endfacet
facet normal -0.8160403021900206 0.5714396653545762 0.08680399795556638
outer loop
vertex -0.75441 0.63302 0.17365
vertex -0.76604 0.64279 0
vertex -0.86603 0.5 0
endloop
endfacet
facet normal -0.8160485167802324 0.5714254815602167 0.08682014331050855
outer loop
vertex -0.86603 0.5 0
vertex -0.85287 0.49241 0.17365
vertex -0.75441 0.63302 0.17365
endloop
endfacet
facet normal -0.8130822627377112 0.5693079191377821 0.12159657572617844
outer loop
vertex -0.75441 0.63302 0.17365
vertex -0.85287 0.4924 0.17365
vertex 0 1 3.5
endloop
endfacet
facet normal -0.8160485167802324 0.5714254815602167 -0.08682014331050855
outer loop
vertex -0.75441 0.63302 -0.17365
vertex -0.85287 0.49241 -0.17365
vertex -0.86603 0.5 0
endloop
endfacet
facet normal -0.8160403021900206 0.5714396653545762 -0.08680399795556638
outer loop
vertex -0.86603 0.5 0
vertex -0.76604 0.64279 0
vertex -0.75441 0.63302 -0.17365
endloop
endfacet
facet normal -0.7044372306064092 0.7044372306064102 -0.08681230483718437
outer loop
vertex -0.64278 0.76605 0
vertex -0.63302 0.75441 -0.17365
vertex -0.75441 0.63302 -0.17365
endloop
endfacet
facet normal -0.7044372306064105 0.7044372306064087 -0.0868123048371855
outer loop
vertex -0.75441 0.63302 -0.17365
vertex -0.76605 0.64278 0
vertex -0.64278 0.76605 0
endloop
endfacet
facet normal -0.7914318881679658 0.5541851821821596 -0.2579037615867888
outer loop
vertex -0.75441 0.63302 -0.17365
vertex -0.71985 0.60402 -0.34202
vertex -0.8138 0.46985 -0.34202
endloop
endfacet
facet normal -0.7914300540169625 0.5541867798770364 -0.2579059569072208
outer loop
vertex -0.8138 0.46985 -0.34202
vertex -0.85287 0.49241 -0.17365
vertex -0.75441 0.63302 -0.17365
endloop
endfacet
facet normal -0.9624966313962773 -0.0841843786321763 0.2579015799585824
outer loop
vertex -0.98481 0 0.17364
vertex -0.96985 -0.17101 0.17365
vertex -0.92542 -0.16318 0.34202
endloop
endfacet
facet normal -0.9624943043747155 -0.08416959016685518 0.2579150909454039
outer loop
vertex -0.92542 -0.16318 0.34202
vertex -0.93969 0 0.34202
vertex -0.98481 0 0.17364
endloop
endfacet
facet normal -0.9624943043747155 0.08416959016685518 0.2579150909454039
outer loop
vertex -0.98481 0 0.17364
vertex -0.93969 0 0.34202
vertex -0.92542 0.16318 0.34202
endloop
endfacet
facet normal -0.9624966313962773 0.08418437863217669 0.2579015799585824
outer loop
vertex -0.92542 0.16318 0.34202
vertex -0.96985 0.17101 0.17365
vertex -0.98481 0 0.17364
endloop
endfacet
facet normal -0.9622764447692305 -0.2578567121272575 0.0867983862362145
outer loop
vertex -0.98481 -0.17364 0
vertex -0.93969 -0.34202 0
vertex -0.92542 -0.33682 0.17365
endloop
endfacet
facet normal -0.9622777532684859 -0.25784934912079416 0.08680575281937353
outer loop
vertex -0.92542 -0.33682 0.17365
vertex -0.96985 -0.17101 0.17365
vertex -0.98481 -0.17364 0
endloop
endfacet
facet normal -0.9028828081014655 -0.42103669118138193 0.08677983356659562
outer loop
vertex -0.92542 -0.33683 0.17365
vertex -0.93969 -0.34202 0
vertex -0.86602 -0.5 0
endloop
endfacet
facet normal -0.9028726874041711 -0.4210542744177715 0.08679981759251289
outer loop
vertex -0.86602 -0.5 0
vertex -0.85287 -0.4924 0.17365
vertex -0.92542 -0.33683 0.17365
endloop
endfacet
facet normal -0.8756391466372747 -0.4083539248475552 0.257882060132035
outer loop
vertex -0.92542 -0.33683 0.17365
vertex -0.85287 -0.4924 0.17365
vertex -0.8138 -0.46985 0.34202
endloop
endfacet
facet normal -0.8756542058621045 -0.40827687006449587 0.2579529203679342
outer loop
vertex -0.8138 -0.46985 0.34202
vertex -0.88302 -0.32139 0.34202
vertex -0.92542 -0.33683 0.17365
endloop
endfacet
facet normal -0.9332379426337296 -0.25009030949102623 0.2579181643999628
outer loop
vertex -0.92542 -0.33682 0.17365
vertex -0.88302 -0.3214 0.34202
vertex -0.92542 -0.16318 0.34202
endloop
endfacet
facet normal -0.9332562158174543 -0.2500572633009523 0.2578840838604107
outer loop
vertex -0.92542 -0.16318 0.34202
vertex -0.96985 -0.17101 0.17364
vertex -0.92542 -0.33682 0.17365
endloop
endfacet
facet normal 0.7992756678580759 0.18081341525255784 -0.5731185877588798
outer loop
vertex 0.75441 0.13302 -0.64279
vertex 0.85287 0.15038 -0.5
vertex 1 -0.5 -0.5
endloop
endfacet
facet normal 0.6982873875974769 0.1114126654722936 -0.7070940123453526
outer loop
vertex 0.75441 0.13302 -0.64279
vertex 1 -0.5 -0.5
vertex 0.63302 0.11162 -0.76604
endloop
endfacet
facet normal 0.9619366212073094 0.25775794029455823 -0.09076773102469894
outer loop
vertex 0.96985 0.17101 -0.17365
vertex 0.92542 0.33682 -0.17365
vertex 1 1 2.5
endloop
endfacet
facet normal 0.9655714465953917 0.2451899352017502 -0.08691189329110074
outer loop
vertex 0.96985 0.17101 -0.17365
vertex 1 1 2.5
vertex 0.98481 0.17365 0
endloop
endfacet
facet normal 0.9924344159686564 0.08681569558827446 -0.08681569558827541
outer loop
vertex 1 0 0
vertex 1 -0.5 -0.5
vertex 0.96985 0.17101 -0.17365
endloop
endfacet
facet normal 0.9924344194824508 0.0868130079581831 -0.08681834296842522
outer loop
vertex 0.96985 0.17101 -0.17365
vertex 0.98481 0.17365 0
vertex 1 0 0
endloop
endfacet
facet normal 0.24518993520175367 0.965571446595391 -0.08691189329110131
outer loop
vertex 0.17101 0.96985 -0.17365
vertex 0.17365 0.98481 0
vertex 1 1 2.5
endloop
endfacet
facet normal 0.2577579402945585 0.9619366212073094 -0.09076773102469915
outer loop
vertex 0.17101 0.96985 -0.17365
vertex 1 1 2.5
vertex 0.33682 0.92542 -0.17365
endloop
endfacet
facet normal 0.4190946492086672 0.8987284014319025 -0.12902300362463065
outer loop
vertex 0.4924 0.85287 -0.17365
vertex 0.33682 0.92542 -0.17365
vertex 1 1 2.5
endloop
endfacet
facet normal 0.5668837856869601 0.8096201294261666 -0.1521775921519921
outer loop
vertex 0.4924 0.85287 -0.17365
vertex 1 1 2.5
vertex 0.63302 0.75441 -0.17365
endloop
endfacet
facet normal 0.16524078928313599 -0.23597544294118142 -0.957606950625255
outer loop
vertex 0.17101 -0.2962 -0.93969
vertex 0.21985 -0.262 -0.93969
vertex 1 -1.5 -0.5
endloop
endfacet
facet normal 0.12329362352107447 -0.2644523413594103 -0.9564850451254162
outer loop
vertex 0.17101 -0.2962 -0.93969
vertex 1 -1.5 -0.5
vertex 0.11698 -0.32139 -0.93969
endloop
endfacet
facet normal -0.2431850129519114 -0.3472681984953316 -0.9056852918036076
outer loop
vertex -0.25 -0.43302 -0.86602
vertex -0.3214 -0.38302 -0.86602
vertex -0.21985 -0.262 -0.93969
endloop
endfacet
facet normal -0.24317484662518465 -0.34727074588228146 -0.9056870447473463
outer loop
vertex -0.21985 -0.262 -0.93969
vertex -0.17101 -0.2962 -0.93969
vertex -0.25 -0.43302 -0.86602
endloop
endfacet
facet normal -0.2997566428030397 -0.29975664280304104 -0.9056996799110073
outer loop
vertex -0.38302 -0.32139 -0.86603
vertex -0.262 -0.21985 -0.93969
vertex -0.21985 -0.262 -0.93969
endloop
endfacet
facet normal -0.2997262899873578 -0.29982459643482107 -0.9056872321409368
outer loop
vertex -0.21985 -0.262 -0.93969
vertex -0.32139 -0.38303 -0.86602
vertex -0.38302 -0.32139 -0.86603
endloop
endfacet
facet normal -0.38563258148839613 -0.38563258148839946 -0.838197485196173
outer loop
vertex -0.38302 -0.32139 -0.86603
vertex -0.32139 -0.38302 -0.86603
vertex 0 -1.5 -0.5
endloop
endfacet
facet normal -0.4204439065923541 -0.39091703537256456 -0.8187861704162357
outer loop
vertex -0.38302 -0.32139 -0.86603
vertex 0 -1.5 -0.5
vertex -0.4924 -0.41318 -0.76604
endloop
endfacet
facet normal -0.4710834238188261 -0.32979244352868947 -0.8181181772791194
outer loop
vertex -0.38302 -0.32139 -0.86603
vertex -0.4924 -0.41317 -0.76605
vertex -0.55667 -0.32139 -0.76604
endloop
endfacet
facet normal -0.47107883738912026 -0.32981875286923334 -0.8181102121474211
outer loop
vertex -0.55667 -0.32139 -0.76604
vertex -0.43302 -0.25 -0.86602
vertex -0.38302 -0.32139 -0.86603
endloop
endfacet
facet normal -0.3472743886672206 -0.2431773974696775 -0.9056849630725259
outer loop
vertex -0.2962 -0.17101 -0.93969
vertex -0.262 -0.21985 -0.93969
vertex -0.38302 -0.3214 -0.86602
endloop
endfacet
facet normal -0.34726570678855945 -0.24318326805921375 -0.9056867157161369
outer loop
vertex -0.38302 -0.3214 -0.86602
vertex -0.43302 -0.25 -0.86602
vertex -0.2962 -0.17101 -0.93969
endloop
endfacet
facet normal 0.0076301258765472954 -0.08713950574918614 -0.9961668975211412
outer loop
vertex 0.03015 -0.17101 -0.98481
vertex 0 -0.17365 -0.98481
vertex 0 0 -1
endloop
endfacet
facet normal -0.03698979991579974 -0.07926798528832525 -0.9961668239860827
outer loop
vertex -0.05939 -0.16318 -0.98481
vertex -0.08682 -0.15038 -0.98481
vertex 0 0 -1
endloop
endfacet
facet normal -0.08449555701641862 -0.022626546218829258 -0.9961669238891102
outer loop
vertex -0.17101 -0.03015 -0.98481
vertex 0 0 -1
vertex -0.16318 -0.05939 -0.98481
endloop
endfacet
facet normal -0.7433346804922333 -0.3466214672293022 -0.5721076045931529
outer loop
vertex -0.71984 -0.26201 -0.64279
vertex -0.66342 -0.38302 -0.64278
vertex -0.75 -0.43301 -0.5
endloop
endfacet
facet normal -0.743315230048437 -0.34663775803735325 -0.5721230055511461
outer loop
vertex -0.75 -0.43301 -0.5
vertex -0.8138 -0.2962 -0.5
vertex -0.71984 -0.26201 -0.64279
endloop
endfacet
facet normal -0.671842906456353 -0.47044215809522416 -0.5721112522324553
outer loop
vertex -0.58682 -0.4924 -0.64279
vertex -0.66341 -0.55667 -0.5
vertex -0.75 -0.43301 -0.5
endloop
endfacet
facet normal -0.6718436419348109 -0.47043796430597234 -0.572113837038943
outer loop
vertex -0.75 -0.43301 -0.5
vertex -0.66341 -0.38302 -0.64279
vertex -0.58682 -0.4924 -0.64279
endloop
endfacet
facet normal -0.7428925903748602 -0.5201930244263238 -0.42131913854502784
outer loop
vertex -0.75 -0.43301 -0.5
vertex -0.66341 -0.55667 -0.5
vertex -0.71985 -0.60402 -0.34202
endloop
endfacet
facet normal -0.7428900996334511 -0.5201947146199803 -0.4213214434942024
outer loop
vertex -0.71985 -0.60402 -0.34202
vertex -0.8138 -0.46985 -0.34202
vertex -0.75 -0.43301 -0.5
endloop
endfacet
facet normal -0.8219477278192229 -0.38328766989791535 -0.4212985815749246
outer loop
vertex -0.75 -0.43301 -0.5
vertex -0.8138 -0.46984 -0.34202
vertex -0.88302 -0.3214 -0.34202
endloop
endfacet
facet normal -0.8219463491013841 -0.38330660823527724 -0.42128404109587797
outer loop
vertex -0.88302 -0.3214 -0.34202
vertex -0.8138 -0.2962 -0.5
vertex -0.75 -0.43301 -0.5
endloop
endfacet
facet normal -0.8756542058621045 0.40827687006449587 -0.2579529203679342
outer loop
vertex -0.8138 0.46985 -0.34202
vertex -0.88302 0.32139 -0.34202
vertex -0.92542 0.33683 -0.17365
endloop
endfacet
facet normal -0.8756391466372747 0.4083539248475552 -0.257882060132035
outer loop
vertex -0.92542 0.33683 -0.17365
vertex -0.85287 0.4924 -0.17365
vertex -0.8138 0.46985 -0.34202
endloop
endfacet
facet normal -0.08714204243958792 0.9961958966184599 0
outer loop
vertex 0 1 0
vertex -0.17365 0.98481 0
vertex 0 1 3.5
endloop
endfacet
facet normal 0 1 0
outer loop
vertex 0 1 0
vertex 0 1 3.5
vertex 1 1 3.5
endloop
endfacet
facet normal 0 1 0
outer loop
vertex 1 1 3.5
vertex 1 1 2.5
vertex 0 1 0
endloop
endfacet
facet normal 0.08708915194096681 0.995591259680636 -0.03483566077638672
outer loop
vertex 0 1 0
vertex 1 1 2.5
vertex 0.17365 0.98481 0
endloop
endfacet
facet normal 0.08681842470789417 0.9924344123861636 -0.08681300733743647
outer loop
vertex 0.17101 0.96985 -0.17365
vertex 0 0.98481 -0.17365
vertex 0 1 0
endloop
endfacet
facet normal 0.08681300795818295 0.992434419482451 -0.0868183429684243
outer loop
vertex 0 1 0
vertex 0.17365 0.98481 0
vertex 0.17101 0.96985 -0.17365
endloop
endfacet
facet normal -0.5714262947726684 0.8160496781229422 -0.08680387363373901
outer loop
vertex -0.49241 0.85287 -0.17365
vertex -0.63302 0.75441 -0.17365
vertex -0.64279 0.76604 0
endloop
endfacet
facet normal -0.5714388645480266 0.816039158603988 -0.08682001905642336
outer loop
vertex -0.64279 0.76604 0
vertex -0.5 0.86603 0
vertex -0.49241 0.85287 -0.17365
endloop
endfacet
facet normal -0.08681300795818295 0.992434419482451 -0.08681834296842507
outer loop
vertex -0.17101 0.96985 -0.17365
vertex -0.17365 0.98481 0
vertex 0 1 0
endloop
endfacet
facet normal -0.08681842470789417 0.9924344123861636 -0.08681300733743647
outer loop
vertex 0 1 0
vertex 0 0.98481 -0.17365
vertex -0.17101 0.96985 -0.17365
endloop
endfacet
facet normal 0.743315230048437 0.34663775803735325 -0.5721230055511461
outer loop
vertex 0.75 0.43301 -0.5
vertex 0.8138 0.2962 -0.5
vertex 0.71984 0.26201 -0.64279
endloop
endfacet
facet normal 0.7433346804922333 0.3466214672293022 -0.5721076045931529
outer loop
vertex 0.71984 0.26201 -0.64279
vertex 0.66342 0.38302 -0.64278
vertex 0.75 0.43301 -0.5
endloop
endfacet
facet normal 0.7922360235587043 0.21225056879389323 -0.5721116840465336
outer loop
vertex 0.85287 0.15038 -0.5
vertex 0.75441 0.13303 -0.64278
vertex 0.71985 0.262 -0.64279
endloop
endfacet
facet normal 0.7922389385417156 0.21226700952424074 -0.5721015477395004
outer loop
vertex 0.71985 0.262 -0.64279
vertex 0.8138 0.2962 -0.5
vertex 0.85287 0.15038 -0.5
endloop
endfacet
facet normal 0.6842923920438562 0.18336768418819047 -0.7057763205055533
outer loop
vertex 0.71984 0.262 -0.64279
vertex 0.75441 0.13303 -0.64278
vertex 0.63302 0.11161 -0.76604
endloop
endfacet
facet normal 0.6843137800887824 0.18334349244803108 -0.7057618678829002
outer loop
vertex 0.63302 0.11161 -0.76604
vertex 0.60402 0.21985 -0.76604
vertex 0.71984 0.262 -0.64279
endloop
endfacet
facet normal 0.95109523191985 0.1686132771397547 -0.2588192855865248
outer loop
vertex 0.92542 0.16318 -0.34202
vertex 0.96985 0.17101 -0.17365
vertex 1 -0.5 -0.5
endloop
endfacet
facet normal 0.8841445998316428 0.20001260028480142 -0.42223605520591934
outer loop
vertex 0.92542 0.16318 -0.34202
vertex 1 -0.5 -0.5
vertex 0.85287 0.15038 -0.5
endloop
endfacet
facet normal -0.6831857568511918 0.683185756851192 -0.25790394194608246
outer loop
vertex -0.60402 0.71985 -0.34202
vertex -0.71985 0.60402 -0.34202
vertex -0.75441 0.63302 -0.17365
endloop
endfacet
facet normal -0.6831857568511915 0.6831857568511926 -0.2579039419460815
outer loop
vertex -0.75441 0.63302 -0.17365
vertex -0.63302 0.75441 -0.17365
vertex -0.60402 0.71985 -0.34202
endloop
endfacet
facet normal 0.40828505065322795 0.8756717512276523 -0.25788040157210046
outer loop
vertex 0.4924 0.85287 -0.17365
vertex 0.46985 0.8138 -0.34202
vertex 0.32139 0.88302 -0.34202
endloop
endfacet
facet normal 0.40834611710208285 0.8756224043772719 -0.25795126206362606
outer loop
vertex 0.32139 0.88302 -0.34202
vertex 0.33683 0.92542 -0.17365
vertex 0.4924 0.85287 -0.17365
endloop
endfacet
facet normal 0.3844609000208622 -0.10300801679669852 -0.917376239517222
outer loop
vertex 0.32139 -0.11698 -0.93969
vertex 0.33682 -0.05939 -0.93969
vertex 1 -1.5 -0.5
endloop
endfacet
facet normal 0.3119427796897907 -0.14543473293329265 -0.9389038505917572
outer loop
vertex 0.32139 -0.11698 -0.93969
vertex 1 -1.5 -0.5
vertex 0.2962 -0.17101 -0.93969
endloop
endfacet
facet normal 0.2994263331177014 0.6420371161216198 -0.705784820294345
outer loop
vertex 0.21985 0.60402 -0.76604
vertex 0.262 0.71985 -0.64279
vertex 0.38302 0.66341 -0.64279
endloop
endfacet
facet normal 0.29938729292498545 0.6420861583216975 -0.7057567669719735
outer loop
vertex 0.38302 0.66341 -0.64279
vertex 0.3214 0.55667 -0.76604
vertex 0.21985 0.60402 -0.76604
endloop
endfacet
facet normal 0.08713950574918544 0.007630125876545644 -0.9961668975211412
outer loop
vertex 0.17365 0 -0.98481
vertex 0 0 -1
vertex 0.17101 0.03015 -0.98481
endloop
endfacet
facet normal 0.08713950574918544 -0.007630125876545644 -0.9961668975211412
outer loop
vertex 0.17365 0 -0.98481
vertex 0.17101 -0.03015 -0.98481
vertex 0 0 -1
endloop
endfacet
facet normal 0.10979485946649038 -0.23540540702278756 -0.9656756097050238
outer loop
vertex 0.17101 -0.2962 -0.93969
vertex 0.11698 -0.3214 -0.93969
vertex 0.05939 -0.16317 -0.98481
endloop
endfacet
facet normal 0.1097103936762867 -0.23547387312524318 -0.9656685169325917
outer loop
vertex 0.05939 -0.16317 -0.98481
vertex 0.08682 -0.15039 -0.98481
vertex 0.17101 -0.2962 -0.93969
endloop
endfacet
facet normal 0.06729547685639072 -0.2508988250653673 -0.9656713200543388
outer loop
vertex 0.05939 -0.33683 -0.93969
vertex 0.03016 -0.17101 -0.98481
vertex 0.05939 -0.16317 -0.98481
endloop
endfacet
facet normal 0.0672666332861583 -0.25089931418068256 -0.9656732025846055
outer loop
vertex 0.05939 -0.16317 -0.98481
vertex 0.11698 -0.32139 -0.93969
vertex 0.05939 -0.33683 -0.93969
endloop
endfacet
facet normal 0.022626546218826867 -0.08449555701641963 -0.9961669238891102
outer loop
vertex 0.05939 -0.16318 -0.98481
vertex 0.03015 -0.17101 -0.98481
vertex 0 0 -1
endloop
endfacet
facet normal 0.03698979991579974 -0.07926798528832525 -0.9961668239860827
outer loop
vertex 0.05939 -0.16318 -0.98481
vertex 0 0 -1
vertex 0.08682 -0.15038 -0.98481
endloop
endfacet
facet normal -0.07926798528832785 -0.03698979991580605 -0.9961668239860823
outer loop
vertex -0.15038 -0.08682 -0.98481
vertex -0.16318 -0.05939 -0.98481
vertex 0 0 -1
endloop
endfacet
facet normal -0.07166225830894671 -0.05016358081626266 -0.996166720932672
outer loop
vertex -0.15038 -0.08682 -0.98481
vertex 0 0 -1
vertex -0.13302 -0.11162 -0.98481
endloop
endfacet
facet normal -0.21286540688699832 -0.14891995199553842 -0.9656661775419492
outer loop
vertex -0.15038 -0.08682 -0.98481
vertex -0.13303 -0.11162 -0.98481
vertex -0.262 -0.21985 -0.93969
endloop
endfacet
facet normal -0.21277734618981806 -0.14899642177911235 -0.9656737892505104
outer loop
vertex -0.262 -0.21985 -0.93969
vertex -0.2962 -0.17101 -0.93969
vertex -0.15038 -0.08682 -0.98481
endloop
endfacet
facet normal -0.23542148959766915 -0.1098023605008559 -0.9656708361880121
outer loop
vertex -0.15039 -0.08682 -0.98481
vertex -0.2962 -0.17101 -0.93969
vertex -0.3214 -0.11698 -0.93969
endloop
endfacet
facet normal -0.23544218261690555 -0.10969562864907256 -0.9656779213070332
outer loop
vertex -0.3214 -0.11698 -0.93969
vertex -0.16317 -0.05939 -0.98481
vertex -0.15039 -0.08682 -0.98481
endloop
endfacet
facet normal -0.18368160766947378 -0.18368160766947175 -0.9656718562782679
outer loop
vertex -0.11162 -0.13302 -0.98481
vertex -0.21985 -0.262 -0.93969
vertex -0.262 -0.21985 -0.93969
endloop
endfacet
facet normal -0.1836494183861695 -0.1837352358713976 -0.9656677763214963
outer loop
vertex -0.262 -0.21985 -0.93969
vertex -0.13303 -0.11162 -0.98481
vertex -0.11162 -0.13302 -0.98481
endloop
endfacet
facet normal -0.06185322992281051 -0.06185322992280824 -0.996166831357194
outer loop
vertex -0.11162 -0.13302 -0.98481
vertex -0.13302 -0.11162 -0.98481
vertex 0 0 -1
endloop
endfacet
facet normal -0.05016358081626481 -0.07166225830894667 -0.9961667209326718
outer loop
vertex -0.11162 -0.13302 -0.98481
vertex 0 0 -1
vertex -0.08682 -0.15038 -0.98481
endloop
endfacet
facet normal -0.14900734221939585 -0.2127929413448927 -0.9656686678558547
outer loop
vertex -0.17101 -0.2962 -0.93969
vertex -0.21985 -0.262 -0.93969
vertex -0.11162 -0.13303 -0.98481
endloop
endfacet
facet normal -0.14889845259567092 -0.21283467575634485 -0.9656762664632005
outer loop
vertex -0.11162 -0.13303 -0.98481
vertex -0.08682 -0.15038 -0.98481
vertex -0.17101 -0.2962 -0.93969
endloop
endfacet
facet normal -0.902874277348146 0.4210550158874338 -0.08677968022006212
outer loop
vertex -0.85287 0.4924 -0.17365
vertex -0.92542 0.33683 -0.17365
vertex -0.93969 0.34202 0
endloop
endfacet
facet normal -0.9028812423826121 0.4210359610477706 -0.08679966392913592
outer loop
vertex -0.93969 0.34202 0
vertex -0.86602 0.5 0
vertex -0.85287 0.4924 -0.17365
endloop
endfacet
facet normal -0.9622758295581348 0.25785654727202156 0.08680569611007821
outer loop
vertex -0.93969 0.34202 0
vertex -0.98481 0.17364 0
vertex -0.96985 0.17101 0.17365
endloop
endfacet
facet normal -0.9622783780176538 0.25784951652689464 0.08679832963001305
outer loop
vertex -0.96985 0.17101 0.17365
vertex -0.92542 0.33682 0.17365
vertex -0.93969 0.34202 0
endloop
endfacet
facet normal -0.9028812423826121 0.4210359610477706 0.08679966392913598
outer loop
vertex -0.85287 0.4924 0.17365
vertex -0.86602 0.5 0
vertex -0.93969 0.34202 0
endloop
endfacet
facet normal -0.902874277348146 0.4210550158874338 0.08677968022006224
outer loop
vertex -0.93969 0.34202 0
vertex -0.92542 0.33683 0.17365
vertex -0.85287 0.4924 0.17365
endloop
endfacet
facet normal -0.9924344194824508 -0.0868130079581831 0.08681834296842522
outer loop
vertex -1 0 0
vertex -0.98481 -0.17365 0
vertex -0.96985 -0.17101 0.17365
endloop
endfacet
facet normal -0.9924344123861636 -0.0868184247078937 0.08681300733743656
outer loop
vertex -0.96985 -0.17101 0.17365
vertex -0.98481 0 0.17365
vertex -1 0 0
endloop
endfacet
facet normal -0.9924344194824508 0.0868130079581831 0.08681834296842522
outer loop
vertex -0.96985 0.17101 0.17365
vertex -0.98481 0.17365 0
vertex -1 0 0
endloop
endfacet
facet normal -0.9924344123861636 0.0868184247078937 0.08681300733743656
outer loop
vertex -1 0 0
vertex -0.98481 0 0.17365
vertex -0.96985 0.17101 0.17365
endloop
endfacet
facet normal -0.9622783780176538 -0.25784951652689464 -0.08679832963001305
outer loop
vertex -0.96985 -0.17101 -0.17365
vertex -0.92542 -0.33682 -0.17365
vertex -0.93969 -0.34202 0
endloop
endfacet
facet normal -0.9622758295581348 -0.25785654727202156 -0.08680569611007821
outer loop
vertex -0.93969 -0.34202 0
vertex -0.98481 -0.17364 0
vertex -0.96985 -0.17101 -0.17365
endloop
endfacet
facet normal -0.9924344194824508 -0.0868130079581831 -0.08681834296842522
outer loop
vertex -0.96985 -0.17101 -0.17365
vertex -0.98481 -0.17365 0
vertex -1 0 0
endloop
endfacet
facet normal -0.9924344123861636 -0.0868184247078937 -0.08681300733743656
outer loop
vertex -1 0 0
vertex -0.98481 0 -0.17365
vertex -0.96985 -0.17101 -0.17365
endloop
endfacet
facet normal -0.9624979814419448 -0.08416991172433246 -0.2579012634333141
outer loop
vertex -0.93969 0 -0.34202
vertex -0.92542 -0.16318 -0.34202
vertex -0.96985 -0.17101 -0.17365
endloop
endfacet
facet normal -0.9624931227759179 -0.08418407092558636 -0.2579147743179081
outer loop
vertex -0.96985 -0.17101 -0.17365
vertex -0.98481 0 -0.17364
vertex -0.93969 0 -0.34202
endloop
endfacet
facet normal -0.9332476345644872 -0.2500549618842174 -0.25791736780773816
outer loop
vertex -0.88302 -0.3214 -0.34202
vertex -0.92542 -0.33682 -0.17365
vertex -0.96985 -0.17101 -0.17364
endloop
endfacet
facet normal -0.9332469359574328 -0.2500927195335305 -0.257883283991782
outer loop
vertex -0.96985 -0.17101 -0.17364
vertex -0.92542 -0.16318 -0.34202
vertex -0.88302 -0.3214 -0.34202
endloop
endfacet
facet normal -0.9332469359574328 0.2500927195335305 -0.25788328399178206
outer loop
vertex -0.88302 0.3214 -0.34202
vertex -0.92542 0.16318 -0.34202
vertex -0.96985 0.17101 -0.17364
endloop
endfacet
facet normal -0.9332476345644872 0.2500549618842174 -0.25791736780773816
outer loop
vertex -0.96985 0.17101 -0.17364
vertex -0.92542 0.33682 -0.17365
vertex -0.88302 0.3214 -0.34202
endloop
endfacet
facet normal -0.9624931227759179 0.08418407092558675 -0.2579147743179081
outer loop
vertex -0.93969 0 -0.34202
vertex -0.98481 0 -0.17364
vertex -0.96985 0.17101 -0.17365
endloop
endfacet
facet normal -0.9624979814419448 0.08416991172433246 -0.25790126343331415
outer loop
vertex -0.96985 0.17101 -0.17365
vertex -0.92542 0.16318 -0.34202
vertex -0.93969 0 -0.34202
endloop
endfacet
facet normal -0.9924344123861636 0.0868184247078937 -0.08681300733743656
outer loop
vertex -0.96985 0.17101 -0.17365
vertex -0.98481 0 -0.17365
vertex -1 0 0
endloop
endfacet
facet normal -0.9924344194824508 0.0868130079581831 -0.08681834296842522
outer loop
vertex -1 0 0
vertex -0.98481 0.17365 0
vertex -0.96985 0.17101 -0.17365
endloop
endfacet
facet normal -0.9622783780176538 0.25784951652689464 -0.0867983296300131
outer loop
vertex -0.93969 0.34202 0
vertex -0.92542 0.33682 -0.17365
vertex -0.96985 0.17101 -0.17365
endloop
endfacet
facet normal -0.9622758295581348 0.25785654727202156 -0.08680569611007818
outer loop
vertex -0.96985 0.17101 -0.17365
vertex -0.98481 0.17364 0
vertex -0.93969 0.34202 0
endloop
endfacet
facet normal -0.6412858852161262 0.6412858852161252 -0.42131321703115415
outer loop
vertex -0.55667 0.66341 -0.5
vertex -0.66341 0.55667 -0.5
vertex -0.71985 0.60402 -0.34202
endloop
endfacet
facet normal -0.6412858852161254 0.6412858852161264 -0.4213132170311531
outer loop
vertex -0.71985 0.60402 -0.34202
vertex -0.60402 0.71985 -0.34202
vertex -0.55667 0.66341 -0.5
endloop
endfacet
facet normal -0.821946349101384 0.38330660823527724 -0.42128404109587797
outer loop
vertex -0.75 0.43301 -0.5
vertex -0.8138 0.2962 -0.5
vertex -0.88302 0.3214 -0.34202
endloop
endfacet
facet normal -0.8219477278192228 0.38328766989791535 -0.4212985815749246
outer loop
vertex -0.88302 0.3214 -0.34202
vertex -0.8138 0.46984 -0.34202
vertex -0.75 0.43301 -0.5
endloop
endfacet
facet normal -0.7428925903748602 0.5201930244263236 -0.42131913854502767
outer loop
vertex -0.71985 0.60402 -0.34202
vertex -0.66341 0.55667 -0.5
vertex -0.75 0.43301 -0.5
endloop
endfacet
facet normal -0.742890099633451 0.5201947146199805 -0.4213214434942027
outer loop
vertex -0.75 0.43301 -0.5
vertex -0.8138 0.46985 -0.34202
vertex -0.71985 0.60402 -0.34202
endloop
endfacet
facet normal -0.42105427441777116 0.9028726874041715 -0.08679981759251314
outer loop
vertex -0.33683 0.92542 -0.17365
vertex -0.4924 0.85287 -0.17365
vertex -0.5 0.86602 0
endloop
endfacet
facet normal -0.42103669118138337 0.9028828081014647 -0.08677983356659552
outer loop
vertex -0.5 0.86602 0
vertex -0.34202 0.93969 0
vertex -0.33683 0.92542 -0.17365
endloop
endfacet
facet normal -0.2578493491207936 0.9622777532684859 -0.08680575281937279
outer loop
vertex -0.17364 0.98481 0
vertex -0.17101 0.96985 -0.17365
vertex -0.33682 0.92542 -0.17365
endloop
endfacet
facet normal -0.2578567121272576 0.9622764447692302 -0.08679838623621651
outer loop
vertex -0.33682 0.92542 -0.17365
vertex -0.34202 0.93969 0
vertex -0.17364 0.98481 0
endloop
endfacet
facet normal 0.8756717512276526 0.4082850506532266 -0.25788040157210174
outer loop
vertex 0.88302 0.32139 -0.34202
vertex 0.8138 0.46985 -0.34202
vertex 0.85287 0.4924 -0.17365
endloop
endfacet
facet normal 0.8756224043772718 0.40834611710208407 -0.2579512620636244
outer loop
vertex 0.85287 0.4924 -0.17365
vertex 0.92542 0.33683 -0.17365
vertex 0.88302 0.32139 -0.34202
endloop
endfacet
facet normal 0.9332469359574328 0.2500927195335305 -0.257883283991782
outer loop
vertex 0.96985 0.17101 -0.17364
vertex 0.92542 0.16318 -0.34202
vertex 0.88302 0.3214 -0.34202
endloop
endfacet
facet normal 0.9332476345644872 0.2500549618842174 -0.25791736780773816
outer loop
vertex 0.88302 0.3214 -0.34202
vertex 0.92542 0.33682 -0.17365
vertex 0.96985 0.17101 -0.17364
endloop
endfacet
facet normal 0.8760147638052815 0.2347407317534245 -0.4213014626737528
outer loop
vertex 0.88302 0.3214 -0.34202
vertex 0.92542 0.16317 -0.34202
vertex 0.85287 0.15038 -0.5
endloop
endfacet
facet normal 0.8760313501542171 0.23471776745662518 -0.4212797683097983
outer loop
vertex 0.85287 0.15038 -0.5
vertex 0.8138 0.2962 -0.5
vertex 0.88302 0.3214 -0.34202
endloop
endfacet
facet normal 0.8219463491013841 0.38330660823527724 -0.42128404109587797
outer loop
vertex 0.88302 0.3214 -0.34202
vertex 0.8138 0.2962 -0.5
vertex 0.75 0.43301 -0.5
endloop
endfacet
facet normal 0.8219477278192229 0.38328766989791535 -0.4212985815749246
outer loop
vertex 0.75 0.43301 -0.5
vertex 0.8138 0.46984 -0.34202
vertex 0.88302 0.3214 -0.34202
endloop
endfacet
facet normal 0.38330660823527696 0.8219463491013841 -0.42128404109587825
outer loop
vertex 0.43301 0.75 -0.5
vertex 0.2962 0.8138 -0.5
vertex 0.3214 0.88302 -0.34202
endloop
endfacet
facet normal 0.38328766989791674 0.8219477278192228 -0.42129858157492356
outer loop
vertex 0.3214 0.88302 -0.34202
vertex 0.46984 0.8138 -0.34202
vertex 0.43301 0.75 -0.5
endloop
endfacet
facet normal 0.3466377580373534 0.7433152300484362 -0.5721230055511466
outer loop
vertex 0.26201 0.71984 -0.64279
vertex 0.2962 0.8138 -0.5
vertex 0.43301 0.75 -0.5
endloop
endfacet
facet normal 0.3466214672292999 0.7433346804922334 -0.572107604593154
outer loop
vertex 0.43301 0.75 -0.5
vertex 0.38302 0.66342 -0.64278
vertex 0.26201 0.71984 -0.64279
endloop
endfacet
facet normal 0.4704379643059718 0.6718436419348112 -0.5721138370389433
outer loop
vertex 0.4924 0.58682 -0.64279
vertex 0.38302 0.66341 -0.64279
vertex 0.43301 0.75 -0.5
endloop
endfacet
facet normal 0.47044215809522577 0.6718429064563524 -0.5721112522324551
outer loop
vertex 0.43301 0.75 -0.5
vertex 0.55667 0.66341 -0.5
vertex 0.4924 0.58682 -0.64279
endloop
endfacet
facet normal 0.671841520028457 0.47044118728177375 -0.5721136786293151
outer loop
vertex 0.66341 0.55667 -0.5
vertex 0.75 0.43301 -0.5
vertex 0.66341 0.38302 -0.64279
endloop
endfacet
facet normal 0.6718452093767817 0.4704390618592758 -0.5721110938571571
outer loop
vertex 0.66341 0.38302 -0.64279
vertex 0.58682 0.4924 -0.64279
vertex 0.66341 0.55667 -0.5
endloop
endfacet
facet normal 0.5799513860376772 0.5799513860376765 -0.5721125585633957
outer loop
vertex 0.66342 0.55667 -0.5
vertex 0.58683 0.4924 -0.64279
vertex 0.4924 0.58683 -0.64279
endloop
endfacet
facet normal 0.5799513860376775 0.5799513860376775 -0.5721125585633946
outer loop
vertex 0.4924 0.58683 -0.64279
vertex 0.55667 0.66342 -0.5
vertex 0.66342 0.55667 -0.5
endloop
endfacet
facet normal 0.7428916774648772 0.5201923851826288 -0.4213215374882093
outer loop
vertex 0.8138 0.46985 -0.34202
vertex 0.75 0.43301 -0.5
vertex 0.66341 0.55667 -0.5
endloop
endfacet
facet normal 0.7428909410283835 0.5201953037908367 -0.4213192324733374
outer loop
vertex 0.66341 0.55667 -0.5
vertex 0.71985 0.60402 -0.34202
vertex 0.8138 0.46985 -0.34202
endloop
endfacet
facet normal 0.6412858852161255 0.6412858852161257 -0.4213132170311538
outer loop
vertex 0.66341 0.55667 -0.5
vertex 0.55667 0.66341 -0.5
vertex 0.60402 0.71985 -0.34202
endloop
endfacet
facet normal 0.6412858852161261 0.6412858852161257 -0.4213132170311533
outer loop
vertex 0.60402 0.71985 -0.34202
vertex 0.71985 0.60402 -0.34202
vertex 0.66341 0.55667 -0.5
endloop
endfacet
facet normal 0.5201930244263235 0.7428925903748599 -0.42131913854502856
outer loop
vertex 0.60402 0.71985 -0.34202
vertex 0.55667 0.66341 -0.5
vertex 0.43301 0.75 -0.5
endloop
endfacet
facet normal 0.5201947146199799 0.7428900996334518 -0.42132144349420214
outer loop
vertex 0.43301 0.75 -0.5
vertex 0.46985 0.8138 -0.34202
vertex 0.60402 0.71985 -0.34202
endloop
endfacet
facet normal 0.5541848381774742 0.7914313968948556 -0.2579060083504537
outer loop
vertex 0.60402 0.71985 -0.34202
vertex 0.46985 0.8138 -0.34202
vertex 0.49241 0.85287 -0.17365
endloop
endfacet
facet normal 0.5541871081267398 0.791430522787943 -0.25790381304999066
outer loop
vertex 0.49241 0.85287 -0.17365
vertex 0.63302 0.75441 -0.17365
vertex 0.60402 0.71985 -0.34202
endloop
endfacet
facet normal 0.6831857568511919 0.6831857568511921 -0.25790394194608224
outer loop
vertex 0.75441 0.63302 -0.17365
vertex 0.71985 0.60402 -0.34202
vertex 0.60402 0.71985 -0.34202
endloop
endfacet
facet normal 0.6831857568511917 0.6831857568511926 -0.2579039419460813
outer loop
vertex 0.60402 0.71985 -0.34202
vertex 0.63302 0.75441 -0.17365
vertex 0.75441 0.63302 -0.17365
endloop
endfacet
facet normal 0.07143414663994255 0.8170395688774836 -0.5721394109675707
outer loop
vertex 0.13302 0.75441 -0.64279
vertex 0 0.76604 -0.64279
vertex 0 0.86603 -0.5
endloop
endfacet
facet normal 0.07149774756841316 0.8170627854721658 -0.5720983103358277
outer loop
vertex 0 0.86603 -0.5
vertex 0.15039 0.85287 -0.5
vertex 0.13302 0.75441 -0.64279
endloop
endfacet
facet normal 0.2122652918688668 0.7922325277788095 -0.5721110624669151
outer loop
vertex 0.13303 0.75441 -0.64278
vertex 0.15038 0.85287 -0.5
vertex 0.2962 0.8138 -0.5
endloop
endfacet
facet normal 0.21225251186753086 0.7922432715514617 -0.5721009263122729
outer loop
vertex 0.2962 0.8138 -0.5
vertex 0.262 0.71985 -0.64279
vertex 0.13303 0.75441 -0.64278
endloop
endfacet
facet normal 0.18333944079654046 0.6842986576488778 -0.7057775829454743
outer loop
vertex 0.21985 0.60402 -0.76604
vertex 0.11161 0.63302 -0.76604
vertex 0.13303 0.75441 -0.64278
endloop
endfacet
facet normal 0.18337108691087176 0.6843050827368601 -0.705763131812384
outer loop
vertex 0.13303 0.75441 -0.64278
vertex 0.262 0.71984 -0.64279
vertex 0.21985 0.60402 -0.76604
endloop
endfacet
facet normal 0.061753095084254986 0.7057572370325067 -0.7057572370325063
outer loop
vertex 0 0.64278 -0.76605
vertex 0 0.76605 -0.64278
vertex 0.13303 0.75441 -0.64278
endloop
endfacet
facet normal 0.06177323051284399 0.7057449089975466 -0.70576780276239
outer loop
vertex 0.13303 0.75441 -0.64278
vertex 0.11162 0.63302 -0.76604
vertex 0 0.64278 -0.76605
endloop
endfacet
facet normal -0.3833036371499095 0.8219399780325874 -0.42129917429237873
outer loop
vertex -0.2962 0.8138 -0.5
vertex -0.43301 0.75 -0.5
vertex -0.46984 0.8138 -0.34202
endloop
endfacet
facet normal -0.38329040811431525 0.8219535998337032 -0.421284633909164
outer loop
vertex -0.46984 0.8138 -0.34202
vertex -0.3214 0.88302 -0.34202
vertex -0.2962 0.8138 -0.5
endloop
endfacet
facet normal -0.520192385182628 0.7428916774648786 -0.4213215374882074
outer loop
vertex -0.46985 0.8138 -0.34202
vertex -0.43301 0.75 -0.5
vertex -0.55667 0.66341 -0.5
endloop
endfacet
facet normal -0.5201953037908362 0.7428909410283825 -0.42131923247333936
outer loop
vertex -0.55667 0.66341 -0.5
vertex -0.60402 0.71985 -0.34202
vertex -0.46985 0.8138 -0.34202
endloop
endfacet
facet normal -0.5541851821821602 0.7914318881679648 -0.25790376158679
outer loop
vertex -0.46985 0.8138 -0.34202
vertex -0.60402 0.71985 -0.34202
vertex -0.63302 0.75441 -0.17365
endloop
endfacet
facet normal -0.5541867798770364 0.7914300540169628 -0.2579059569072197
outer loop
vertex -0.63302 0.75441 -0.17365
vertex -0.49241 0.85287 -0.17365
vertex -0.46985 0.8138 -0.34202
endloop
endfacet
facet normal -0.4082768700644952 0.8756542058621049 -0.2579529203679339
outer loop
vertex -0.33683 0.92542 -0.17365
vertex -0.32139 0.88302 -0.34202
vertex -0.46985 0.8138 -0.34202
endloop
endfacet
facet normal -0.40835392484755595 0.8756391466372743 -0.2578820601320357
outer loop
vertex -0.46985 0.8138 -0.34202
vertex -0.4924 0.85287 -0.17365
vertex -0.33683 0.92542 -0.17365
endloop
endfacet
facet normal 0.08416959016685377 0.962494304374716 -0.2579150909454035
outer loop
vertex 0.16318 0.92542 -0.34202
vertex 0 0.93969 -0.34202
vertex 0 0.98481 -0.17364
endloop
endfacet
facet normal 0.08418437863217765 0.9624966313962767 -0.257901579958584
outer loop
vertex 0 0.98481 -0.17364
vertex 0.17101 0.96985 -0.17365
vertex 0.16318 0.92542 -0.34202
endloop
endfacet
facet normal 0.25005726330095207 0.9332562158174543 -0.25788408386041056
outer loop
vertex 0.16318 0.92542 -0.34202
vertex 0.17101 0.96985 -0.17364
vertex 0.33682 0.92542 -0.17365
endloop
endfacet
facet normal 0.25009030949102595 0.9332379426337295 -0.25791816439996373
outer loop
vertex 0.33682 0.92542 -0.17365
vertex 0.3214 0.88302 -0.34202
vertex 0.16318 0.92542 -0.34202
endloop
endfacet
facet normal 0.2347150528889645 0.8760212186401012 -0.42130234801107247
outer loop
vertex 0.2962 0.8138 -0.5
vertex 0.15038 0.85287 -0.5
vertex 0.16317 0.92542 -0.34202
endloop
endfacet
facet normal 0.2347432336701698 0.8760241005573345 -0.4212806540642296
outer loop
vertex 0.16317 0.92542 -0.34202
vertex 0.3214 0.88302 -0.34202
vertex 0.2962 0.8138 -0.5
endloop
endfacet
facet normal 0.07900783526242112 0.9034687146546498 -0.4213099139676409
outer loop
vertex 0 0.86602 -0.5
vertex 0 0.93969 -0.34202
vertex 0.16318 0.92542 -0.34202
endloop
endfacet
facet normal 0.0790041052561242 0.9034705207920906 -0.42130674028829396
outer loop
vertex 0.16318 0.92542 -0.34202
vertex 0.15038 0.85287 -0.5
vertex 0 0.86602 -0.5
endloop
endfacet
facet normal 0.06185322992281051 -0.06185322992280824 -0.996166831357194
outer loop
vertex 0.11162 -0.13302 -0.98481
vertex 0 0 -1
vertex 0.13302 -0.11162 -0.98481
endloop
endfacet
facet normal 0.14889845259566695 -0.21283467575634485 -0.9656762664632011
outer loop
vertex 0.17101 -0.2962 -0.93969
vertex 0.08682 -0.15038 -0.98481
vertex 0.11162 -0.13303 -0.98481
endloop
endfacet
facet normal 0.1490073422193958 -0.21279294134489263 -0.9656686678558546
outer loop
vertex 0.11162 -0.13303 -0.98481
vertex 0.21985 -0.262 -0.93969
vertex 0.17101 -0.2962 -0.93969
endloop
endfacet
facet normal 0.05016358081626481 -0.07166225830894667 -0.9961667209326718
outer loop
vertex 0.11162 -0.13302 -0.98481
vertex 0.08682 -0.15038 -0.98481
vertex 0 0 -1
endloop
endfacet
facet normal 0.2508993141806836 -0.06726663328615627 -0.9656732025846054
outer loop
vertex 0.33683 -0.05939 -0.93969
vertex 0.32139 -0.11698 -0.93969
vertex 0.16317 -0.05939 -0.98481
endloop
endfacet
facet normal 0.2508988250653664 -0.0672954768563973 -0.9656713200543384
outer loop
vertex 0.16317 -0.05939 -0.98481
vertex 0.17101 -0.03016 -0.98481
vertex 0.33683 -0.05939 -0.93969
endloop
endfacet
facet normal 0.08449555701641993 -0.022626546218829258 -0.9961669238891101
outer loop
vertex 0.16318 -0.05939 -0.98481
vertex 0 0 -1
vertex 0.17101 -0.03015 -0.98481
endloop
endfacet
facet normal 0.18368882885134044 -0.18368882885133708 -0.965669109120949
outer loop
vertex 0.262 -0.21985 -0.93969
vertex 0.21985 -0.262 -0.93969
vertex 0.11162 -0.13303 -0.98481
endloop
endfacet
facet normal 0.1837210128435972 -0.18363520200154018 -0.9656731859307144
outer loop
vertex 0.11162 -0.13303 -0.98481
vertex 0.13302 -0.11162 -0.98481
vertex 0.262 -0.21985 -0.93969
endloop
endfacet
facet normal 0.2555883078427165 -0.17897461359993716 -0.9500751047053332
outer loop
vertex 0.262 -0.21985 -0.93969
vertex 0.2962 -0.17101 -0.93969
vertex 1 -1.5 -0.5
endloop
endfacet
facet normal 0.2082089592991007 -0.2082089592990982 -0.9556662903624737
outer loop
vertex 0.262 -0.21985 -0.93969
vertex 1 -1.5 -0.5
vertex 0.21985 -0.262 -0.93969
endloop
endfacet
facet normal -0.3466214672292999 0.7433346804922335 -0.572107604593154
outer loop
vertex -0.26201 0.71984 -0.64279
vertex -0.38302 0.66342 -0.64278
vertex -0.43301 0.75 -0.5
endloop
endfacet
facet normal -0.3466377580373531 0.7433152300484367 -0.5721230055511466
outer loop
vertex -0.43301 0.75 -0.5
vertex -0.2962 0.8138 -0.5
vertex -0.26201 0.71984 -0.64279
endloop
endfacet
facet normal -0.2994371127630518 0.6420602300954037 -0.7057592198689043
outer loop
vertex -0.3214 0.55667 -0.76604
vertex -0.38302 0.66341 -0.64279
vertex -0.262 0.71985 -0.64279
endloop
endfacet
facet normal -0.29937444822481696 0.6420586107123593 -0.7057872768477774
outer loop
vertex -0.262 0.71985 -0.64279
vertex -0.21985 0.60402 -0.76604
vertex -0.3214 0.55667 -0.76604
endloop
endfacet
facet normal -0.18334349244802928 0.6843137800887824 -0.7057618678829009
outer loop
vertex -0.11161 0.63302 -0.76604
vertex -0.21985 0.60402 -0.76604
vertex -0.262 0.71984 -0.64279
endloop
endfacet
facet normal -0.183367684188191 0.6842923920438563 -0.7057763205055532
outer loop
vertex -0.262 0.71984 -0.64279
vertex -0.13303 0.75441 -0.64278
vertex -0.11161 0.63302 -0.76604
endloop
endfacet
facet normal -0.06175225789890208 0.7057476690971686 -0.7057668780895723
outer loop
vertex -0.11162 0.63302 -0.76604
vertex -0.13303 0.75441 -0.64278
vertex 0 0.76605 -0.64278
endloop
endfacet
facet normal -0.06177422658981799 0.7057563123802821 -0.7057563123802828
outer loop
vertex 0 0.76605 -0.64278
vertex 0 0.64278 -0.76605
vertex -0.11162 0.63302 -0.76604
endloop
endfacet
facet normal 0.05016358081626481 0.07166225830894667 -0.9961667209326718
outer loop
vertex 0.11162 0.13302 -0.98481
vertex 0 0 -1
vertex 0.08682 0.15038 -0.98481
endloop
endfacet
facet normal 0.2587742136137165 -0.02261387722941875 -0.9656730911262132
outer loop
vertex 0.34202 0 -0.93969
vertex 0.33683 -0.05939 -0.93969
vertex 0.17101 -0.03015 -0.98481
endloop
endfacet
facet normal 0.25876762824357386 -0.02257243324313735 -0.9656758254355754
outer loop
vertex 0.17101 -0.03015 -0.98481
vertex 0.17364 0 -0.98481
vertex 0.34202 0 -0.93969
endloop
endfacet
facet normal 0.25876762824357386 0.02257243324313735 -0.9656758254355754
outer loop
vertex 0.34202 0 -0.93969
vertex 0.17364 0 -0.98481
vertex 0.17101 0.03015 -0.98481
endloop
endfacet
facet normal 0.25877421361371705 0.022613877229418742 -0.9656730911262129
outer loop
vertex 0.17101 0.03015 -0.98481
vertex 0.33683 0.05939 -0.93969
vertex 0.34202 0 -0.93969
endloop
endfacet
facet normal 0.42232444789459556 -0.036906278575061915 -0.9056930977501512
outer loop
vertex 0.4924 -0.08682 -0.86603
vertex 0.33683 -0.05939 -0.93969
vertex 0.34202 0 -0.93969
endloop
endfacet
facet normal 0.42234375486357656 -0.036866570834422754 -0.9056857118684415
outer loop
vertex 0.34202 0 -0.93969
vertex 0.5 0 -0.86602
vertex 0.4924 -0.08682 -0.86603
endloop
endfacet
facet normal 0.050142951696277305 0.5728832231299714 -0.8181017644837346
outer loop
vertex 0.08683 0.4924 -0.86603
vertex 0 0.5 -0.86603
vertex 0 0.64279 -0.76604
endloop
endfacet
facet normal 0.050090973861823034 0.5728641908254762 -0.8181182758057949
outer loop
vertex 0 0.64279 -0.76604
vertex 0.11162 0.63303 -0.76604
vertex 0.08683 0.4924 -0.86603
endloop
endfacet
facet normal 0.14883855408527813 0.5554757485741294 -0.8181037694350358
outer loop
vertex 0.08682 0.4924 -0.86603
vertex 0.11162 0.63302 -0.76604
vertex 0.21985 0.60402 -0.76604
endloop
endfacet
facet normal 0.14879261998121932 0.5555144424043794 -0.8180858515579377
outer loop
vertex 0.21985 0.60402 -0.76604
vertex 0.17101 0.46985 -0.86603
vertex 0.08682 0.4924 -0.86603
endloop
endfacet
facet normal 0.17919565154483025 0.38418271361037915 -0.9057000392129776
outer loop
vertex 0.11698 0.32139 -0.93969
vertex 0.17101 0.46984 -0.86603
vertex 0.25 0.43302 -0.86602
endloop
endfacet
facet normal 0.1791409549648245 0.3842392138447554 -0.9056868911485112
outer loop
vertex 0.25 0.43302 -0.86602
vertex 0.17101 0.2962 -0.93969
vertex 0.11698 0.32139 -0.93969
endloop
endfacet
facet normal 0.24296390293941697 0.5211699260921822 -0.8181384051647463
outer loop
vertex 0.25 0.43301 -0.86603
vertex 0.17101 0.46985 -0.86602
vertex 0.21984 0.60402 -0.76605
endloop
endfacet
facet normal 0.24300738638602984 0.5211700124076322 -0.8181254355713795
outer loop
vertex 0.21984 0.60402 -0.76605
vertex 0.32139 0.55667 -0.76605
vertex 0.25 0.43301 -0.86603
endloop
endfacet
facet normal 0.24317484662518465 0.34727074588228146 -0.9056870447473463
outer loop
vertex 0.21985 0.262 -0.93969
vertex 0.17101 0.2962 -0.93969
vertex 0.25 0.43302 -0.86602
endloop
endfacet
facet normal 0.2431850129519114 0.3472681984953316 -0.9056852918036076
outer loop
vertex 0.25 0.43302 -0.86602
vertex 0.3214 0.38302 -0.86602
vertex 0.21985 0.262 -0.93969
endloop
endfacet
facet normal 0.14899642177911115 0.21277734618981967 -0.9656737892505103
outer loop
vertex 0.08682 0.15038 -0.98481
vertex 0.17101 0.2962 -0.93969
vertex 0.21985 0.262 -0.93969
endloop
endfacet
facet normal 0.14891995199553673 0.2128654068869941 -0.9656661775419504
outer loop
vertex 0.21985 0.262 -0.93969
vertex 0.11162 0.13303 -0.98481
vertex 0.08682 0.15038 -0.98481
endloop
endfacet
facet normal 0.5554757485741296 0.14883855408528004 -0.8181037694350354
outer loop
vertex 0.60402 0.21985 -0.76604
vertex 0.63302 0.11162 -0.76604
vertex 0.4924 0.08682 -0.86603
endloop
endfacet
facet normal 0.5555144424043799 0.148792619981218 -0.8180858515579373
outer loop
vertex 0.4924 0.08682 -0.86603
vertex 0.46985 0.17101 -0.86603
vertex 0.60402 0.21985 -0.76604
endloop
endfacet
facet normal 0.5728832231299709 0.05014295169627822 -0.8181017644837351
outer loop
vertex 0.64279 0 -0.76604
vertex 0.5 0 -0.86603
vertex 0.4924 0.08683 -0.86603
endloop
endfacet
facet normal 0.5728641908254766 0.05009097386182235 -0.8181182758057947
outer loop
vertex 0.4924 0.08683 -0.86603
vertex 0.63303 0.11162 -0.76604
vertex 0.64279 0 -0.76604
endloop
endfacet
facet normal 0.42234375486357656 0.036866570834422886 -0.9056857118684415
outer loop
vertex 0.4924 0.08682 -0.86603
vertex 0.5 0 -0.86602
vertex 0.34202 0 -0.93969
endloop
endfacet
facet normal 0.4223244478945961 0.0369062785750619 -0.9056930977501509
outer loop
vertex 0.34202 0 -0.93969
vertex 0.33683 0.05939 -0.93969
vertex 0.4924 0.08682 -0.86603
endloop
endfacet
facet normal 0.3841827136103785 0.17919565154483152 -0.9057000392129776
outer loop
vertex 0.43302 0.25 -0.86602
vertex 0.46984 0.17101 -0.86603
vertex 0.32139 0.11698 -0.93969
endloop
endfacet
facet normal 0.38423921384475607 0.17914095496482313 -0.9056868911485112
outer loop
vertex 0.32139 0.11698 -0.93969
vertex 0.2962 0.17101 -0.93969
vertex 0.43302 0.25 -0.86602
endloop
endfacet
facet normal 0.40946373395098357 0.10972604054990792 -0.9057039508604111
outer loop
vertex 0.4924 0.08683 -0.86603
vertex 0.33682 0.0594 -0.93969
vertex 0.32139 0.11698 -0.93969
endloop
endfacet
facet normal 0.40945950508954815 0.10968533903266055 -0.9057107927440814
outer loop
vertex 0.32139 0.11698 -0.93969
vertex 0.46985 0.17101 -0.86603
vertex 0.4924 0.08683 -0.86603
endloop
endfacet
facet normal -0.08713950574918544 0.007630125876545644 -0.9961668975211412
outer loop
vertex -0.17365 0 -0.98481
vertex -0.17101 0.03015 -0.98481
vertex 0 0 -1
endloop
endfacet
facet normal -0.08713950574918544 -0.007630125876545644 -0.9961668975211412
outer loop
vertex -0.17365 0 -0.98481
vertex 0 0 -1
vertex -0.17101 -0.03015 -0.98481
endloop
endfacet
facet normal -0.07166225830894671 0.05016358081626266 -0.996166720932672
outer loop
vertex -0.15038 0.08682 -0.98481
vertex -0.13302 0.11162 -0.98481
vertex 0 0 -1
endloop
endfacet
facet normal -0.06185322992281051 0.06185322992280824 -0.996166831357194
outer loop
vertex -0.11162 0.13302 -0.98481
vertex 0 0 -1
vertex -0.13302 0.11162 -0.98481
endloop
endfacet
facet normal -0.022626546218826864 -0.08449555701641961 -0.9961669238891102
outer loop
vertex -0.03015 -0.17101 -0.98481
vertex -0.05939 -0.16318 -0.98481
vertex 0 0 -1
endloop
endfacet
facet normal -0.0076301258765472954 -0.08713950574918614 -0.9961668975211412
outer loop
vertex -0.03015 -0.17101 -0.98481
vertex 0 0 -1
vertex 0 -0.17365 -0.98481
endloop
endfacet
facet normal 0.029133534388349945 -0.3327385783316033 -0.9425689766080285
outer loop
vertex 0 -0.34202 -0.93969
vertex 0.05939 -0.33682 -0.93969
vertex 1 -1.5 -0.5
endloop
endfacet
facet normal 0 -0.35497619792437346 -0.9348753386987785
outer loop
vertex 0 -0.34202 -0.93969
vertex 1 -1.5 -0.5
vertex 0 -1.5 -0.5
endloop
endfacet
facet normal -0.03106558871155066 -0.35480486799600763 -0.9344241193614066
outer loop
vertex 0 -0.34202 -0.93969
vertex 0 -1.5 -0.5
vertex -0.05939 -0.33682 -0.93969
endloop
endfacet
facet normal -0.022613877229417753 -0.2587742136137166 -0.9656730911262131
outer loop
vertex 0 -0.34202 -0.93969
vertex -0.05939 -0.33683 -0.93969
vertex -0.03015 -0.17101 -0.98481
endloop
endfacet
facet normal -0.022572433243139987 -0.25876762824357463 -0.9656758254355751
outer loop
vertex -0.03015 -0.17101 -0.98481
vertex 0 -0.17364 -0.98481
vertex 0 -0.34202 -0.93969
endloop
endfacet
facet normal 0.022572433243145264 -0.25876762824357463 -0.965675825435575
outer loop
vertex 0 -0.34202 -0.93969
vertex 0 -0.17364 -0.98481
vertex 0.03015 -0.17101 -0.98481
endloop
endfacet
facet normal 0.022613877229418423 -0.2587742136137166 -0.9656730911262129
outer loop
vertex 0.03015 -0.17101 -0.98481
vertex 0.05939 -0.33683 -0.93969
vertex 0 -0.34202 -0.93969
endloop
endfacet
facet normal -0.06729307361586137 -0.25088986502442584 -0.9656738154632525
outer loop
vertex -0.11698 -0.32139 -0.93969
vertex -0.05939 -0.16317 -0.98481
vertex -0.03016 -0.17101 -0.98481
endloop
endfacet
facet normal -0.06726785260426306 -0.2509038621424677 -0.9656719359948308
outer loop
vertex -0.03016 -0.17101 -0.98481
vertex -0.05939 -0.33683 -0.93969
vertex -0.11698 -0.32139 -0.93969
endloop
endfacet
facet normal -0.09544526199842035 -0.3562341308158703 -0.9295092500905595
outer loop
vertex -0.11698 -0.32139 -0.93969
vertex -0.05939 -0.33682 -0.93969
vertex 0 -1.5 -0.5
endloop
endfacet
facet normal -0.16743857085903457 -0.35913878457775067 -0.9181414152518665
outer loop
vertex -0.11698 -0.32139 -0.93969
vertex 0 -1.5 -0.5
vertex -0.17101 -0.2962 -0.93969
endloop
endfacet
facet normal -0.10980236050085473 -0.23542148959766837 -0.9656708361880126
outer loop
vertex -0.11698 -0.3214 -0.93969
vertex -0.17101 -0.2962 -0.93969
vertex -0.08682 -0.15039 -0.98481
endloop
endfacet
facet normal -0.10969562864908096 -0.2354421826169065 -0.9656779213070319
outer loop
vertex -0.08682 -0.15039 -0.98481
vertex -0.05939 -0.16317 -0.98481
vertex -0.11698 -0.3214 -0.93969
endloop
endfacet
facet normal -0.5799513860376772 0.5799513860376765 -0.5721125585633957
outer loop
vertex -0.4924 0.58683 -0.64279
vertex -0.58683 0.4924 -0.64279
vertex -0.66342 0.55667 -0.5
endloop
endfacet
facet normal -0.5799513860376775 0.5799513860376775 -0.5721125585633946
outer loop
vertex -0.66342 0.55667 -0.5
vertex -0.55667 0.66342 -0.5
vertex -0.4924 0.58683 -0.64279
endloop
endfacet
facet normal -0.4704421580952256 0.671842906456352 -0.5721112522324554
outer loop
vertex -0.4924 0.58682 -0.64279
vertex -0.55667 0.66341 -0.5
vertex -0.43301 0.75 -0.5
endloop
endfacet
facet normal -0.4704379643059718 0.6718436419348112 -0.5721138370389433
outer loop
vertex -0.43301 0.75 -0.5
vertex -0.38302 0.66341 -0.64279
vertex -0.4924 0.58682 -0.64279
endloop
endfacet
facet normal -0.6843050827368605 -0.183371086910872 -0.7057631318123837
outer loop
vertex -0.60402 -0.21985 -0.76604
vertex -0.71984 -0.262 -0.64279
vertex -0.75441 -0.13303 -0.64278
endloop
endfacet
facet normal -0.6842986576488782 -0.18333944079654044 -0.705777582945474
outer loop
vertex -0.75441 -0.13303 -0.64278
vertex -0.63302 -0.11161 -0.76604
vertex -0.60402 -0.21985 -0.76604
endloop
endfacet
facet normal -0.07143679692724242 0.8170698819657578 -0.5720957892077501
outer loop
vertex 0 0.76604 -0.64279
vertex -0.13302 0.75441 -0.64279
vertex -0.15039 0.85287 -0.5
endloop
endfacet
facet normal -0.07149540139873997 0.8170359738872759 -0.572136893542886
outer loop
vertex -0.15039 0.85287 -0.5
vertex 0 0.86603 -0.5
vertex 0 0.76604 -0.64279
endloop
endfacet
facet normal -0.2122670095242416 0.7922389385417153 -0.5721015477395001
outer loop
vertex -0.262 0.71985 -0.64279
vertex -0.2962 0.8138 -0.5
vertex -0.15038 0.85287 -0.5
endloop
endfacet
facet normal -0.21225056879389337 0.7922360235587051 -0.5721116840465327
outer loop
vertex -0.15038 0.85287 -0.5
vertex -0.13303 0.75441 -0.64278
vertex -0.262 0.71985 -0.64279
endloop
endfacet
facet normal 0.07166225830894671 -0.05016358081626266 -0.996166720932672
outer loop
vertex 0.15038 -0.08682 -0.98481
vertex 0.13302 -0.11162 -0.98481
vertex 0 0 -1
endloop
endfacet
facet normal 0.07926798528832785 -0.03698979991580605 -0.9961668239860823
outer loop
vertex 0.15038 -0.08682 -0.98481
vertex 0 0 -1
vertex 0.16318 -0.05939 -0.98481
endloop
endfacet
facet normal 0.23542148959767042 -0.10980236050085586 -0.9656708361880117
outer loop
vertex 0.3214 -0.11698 -0.93969
vertex 0.2962 -0.17101 -0.93969
vertex 0.15039 -0.08682 -0.98481
endloop
endfacet
facet normal 0.23544218261690547 -0.10969562864907254 -0.9656779213070332
outer loop
vertex 0.15039 -0.08682 -0.98481
vertex 0.16317 -0.05939 -0.98481
vertex 0.3214 -0.11698 -0.93969
endloop
endfacet
facet normal 0.2128654068869983 -0.1489199519955384 -0.9656661775419492
outer loop
vertex 0.262 -0.21985 -0.93969
vertex 0.13303 -0.11162 -0.98481
vertex 0.15038 -0.08682 -0.98481
endloop
endfacet
facet normal 0.21277734618981806 -0.14899642177911235 -0.9656737892505104
outer loop
vertex 0.15038 -0.08682 -0.98481
vertex 0.2962 -0.17101 -0.93969
vertex 0.262 -0.21985 -0.93969
endloop
endfacet
facet normal -0.242972678803261 0.521188738784338 -0.8181238145412701
outer loop
vertex -0.17101 0.46985 -0.86602
vertex -0.25 0.43301 -0.86603
vertex -0.32139 0.55667 -0.76605
endloop
endfacet
facet normal -0.24300056240356188 0.5211553772350939 -0.8181367852935716
outer loop
vertex -0.32139 0.55667 -0.76605
vertex -0.21984 0.60402 -0.76605
vertex -0.17101 0.46985 -0.86602
endloop
endfacet
facet normal 0.03698979991579974 0.07926798528832525 -0.9961668239860827
outer loop
vertex 0.05939 0.16318 -0.98481
vertex 0.08682 0.15038 -0.98481
vertex 0 0 -1
endloop
endfacet
facet normal 0.022626546218826867 0.08449555701641963 -0.9961669238891102
outer loop
vertex 0.05939 0.16318 -0.98481
vertex 0 0 -1
vertex 0.03015 0.17101 -0.98481
endloop
endfacet
facet normal 0.1097948594664884 0.23540540702278764 -0.965675609705024
outer loop
vertex 0.05939 0.16317 -0.98481
vertex 0.11698 0.3214 -0.93969
vertex 0.17101 0.2962 -0.93969
endloop
endfacet
facet normal 0.10971039367628795 0.235473873125243 -0.9656685169325915
outer loop
vertex 0.17101 0.2962 -0.93969
vertex 0.08682 0.15039 -0.98481
vertex 0.05939 0.16317 -0.98481
endloop
endfacet
facet normal 0.0076301258765472954 0.08713950574918614 -0.9961668975211412
outer loop
vertex 0 0.17365 -0.98481
vertex 0.03015 0.17101 -0.98481
vertex 0 0 -1
endloop
endfacet
facet normal 0.06729547685638677 0.25089882506536737 -0.965671320054339
outer loop
vertex 0.05939 0.16317 -0.98481
vertex 0.03016 0.17101 -0.98481
vertex 0.05939 0.33683 -0.93969
endloop
endfacet
facet normal 0.06726663328615928 0.2508993141806825 -0.9656732025846054
outer loop
vertex 0.05939 0.33683 -0.93969
vertex 0.11698 0.32139 -0.93969
vertex 0.05939 0.16317 -0.98481
endloop
endfacet
facet normal 0.022613280864473232 0.25876738931427634 -0.96567493379295
outer loop
vertex 0 0.17364 -0.98481
vertex 0 0.34202 -0.93969
vertex 0.05939 0.33683 -0.93969
endloop
endfacet
facet normal 0.022573605882389873 0.2587810712371962 -0.9656721956682794
outer loop
vertex 0.05939 0.33683 -0.93969
vertex 0.03015 0.17101 -0.98481
vertex 0 0.17364 -0.98481
endloop
endfacet
facet normal 0.036907909424783655 0.42234310996873414 -0.9056843289379748
outer loop
vertex 0.05939 0.33683 -0.93969
vertex 0 0.34202 -0.93969
vertex 0 0.5 -0.86602
endloop
endfacet
facet normal 0.036865452678372 0.42233098929451574 -0.9056917101753413
outer loop
vertex 0 0.5 -0.86602
vertex 0.08682 0.4924 -0.86603
vertex 0.05939 0.33683 -0.93969
endloop
endfacet
facet normal 0.10968841184590729 0.40947097601722954 -0.9057052346686641
outer loop
vertex 0.0594 0.33682 -0.93969
vertex 0.08683 0.4924 -0.86603
vertex 0.17101 0.46985 -0.86603
endloop
endfacet
facet normal 0.10972154679806663 0.40944696465538877 -0.9057120763811911
outer loop
vertex 0.17101 0.46985 -0.86603
vertex 0.11698 0.32139 -0.93969
vertex 0.0594 0.33682 -0.93969
endloop
endfacet
facet normal 0.5211553772350941 0.24300056240356005 -0.8181367852935719
outer loop
vertex 0.55667 0.32139 -0.76605
vertex 0.60402 0.21984 -0.76605
vertex 0.46985 0.17101 -0.86602
endloop
endfacet
facet normal 0.5211887387843381 0.24297267880326223 -0.8181238145412694
outer loop
vertex 0.46985 0.17101 -0.86602
vertex 0.43301 0.25 -0.86603
vertex 0.55667 0.32139 -0.76605
endloop
endfacet
facet normal 0.5803273866711166 0.4063724089862656 -0.7057489564244298
outer loop
vertex 0.58682 0.49241 -0.64279
vertex 0.66342 0.38302 -0.64279
vertex 0.55667 0.3214 -0.76605
endloop
endfacet
facet normal 0.5803205407288816 0.40637612935983036 -0.7057524434918104
outer loop
vertex 0.55667 0.3214 -0.76605
vertex 0.4924 0.41318 -0.76605
vertex 0.58682 0.49241 -0.64279
endloop
endfacet
facet normal 0.6420586107123598 0.2993744482248156 -0.7057872768477778
outer loop
vertex 0.71985 0.262 -0.64279
vertex 0.60402 0.21985 -0.76604
vertex 0.55667 0.3214 -0.76604
endloop
endfacet
facet normal 0.6420602300954028 0.29943711276305224 -0.7057592198689052
outer loop
vertex 0.55667 0.3214 -0.76604
vertex 0.66341 0.38302 -0.64279
vertex 0.71985 0.262 -0.64279
endloop
endfacet
facet normal 0.4063782964760483 0.5803236354531136 -0.705748650928719
outer loop
vertex 0.41318 0.4924 -0.76605
vertex 0.3214 0.55667 -0.76605
vertex 0.38302 0.66342 -0.64279
endloop
endfacet
facet normal 0.40637059075332477 0.5803247901110479 -0.705752138468855
outer loop
vertex 0.38302 0.66342 -0.64279
vertex 0.49241 0.58682 -0.64279
vertex 0.41318 0.4924 -0.76605
endloop
endfacet
facet normal 0.5009595244122601 0.5009221512014951 -0.7057737267257181
outer loop
vertex 0.58682 0.49241 -0.64279
vertex 0.4924 0.41317 -0.76605
vertex 0.41318 0.49241 -0.76604
endloop
endfacet
facet normal 0.5009501458278861 0.5009501458278856 -0.7057605137651437
outer loop
vertex 0.41318 0.49241 -0.76604
vertex 0.49241 0.58682 -0.64279
vertex 0.58682 0.49241 -0.64279
endloop
endfacet
facet normal 0.32979813248037126 0.47109154677321463 -0.8181112066041388
outer loop
vertex 0.25 0.43302 -0.86602
vertex 0.32139 0.55667 -0.76604
vertex 0.41317 0.4924 -0.76605
endloop
endfacet
facet normal 0.32981143846818595 0.4710683956795238 -0.8181191732550127
outer loop
vertex 0.41317 0.4924 -0.76605
vertex 0.32139 0.38302 -0.86603
vertex 0.25 0.43302 -0.86602
endloop
endfacet
facet normal 0.4066443144210234 0.4065923733277067 -0.8181216556850202
outer loop
vertex 0.41317 0.4924 -0.76605
vertex 0.4924 0.41318 -0.76604
vertex 0.38302 0.3214 -0.86602
endloop
endfacet
facet normal 0.4066552068434283 0.4065884325829304 -0.818118200040119
outer loop
vertex 0.38302 0.3214 -0.86602
vertex 0.32139 0.38302 -0.86603
vertex 0.41317 0.4924 -0.76605
endloop
endfacet
facet normal 0.47107883738912026 0.32981875286923334 -0.8181102121474211
outer loop
vertex 0.55667 0.32139 -0.76604
vertex 0.43302 0.25 -0.86602
vertex 0.38302 0.32139 -0.86603
endloop
endfacet
facet normal 0.4710834238188261 0.32979244352868947 -0.8181181772791194
outer loop
vertex 0.38302 0.32139 -0.86603
vertex 0.4924 0.41317 -0.76605
vertex 0.55667 0.32139 -0.76604
endloop
endfacet
facet normal 0.34726570678855945 0.24318326805921375 -0.9056867157161369
outer loop
vertex 0.38302 0.3214 -0.86602
vertex 0.43302 0.25 -0.86602
vertex 0.2962 0.17101 -0.93969
endloop
endfacet
facet normal 0.3472743886672206 0.2431773974696775 -0.9056849630725259
outer loop
vertex 0.2962 0.17101 -0.93969
vertex 0.262 0.21985 -0.93969
vertex 0.38302 0.3214 -0.86602
endloop
endfacet
facet normal 0.29977897456393965 0.299778974563939 -0.905684897091028
outer loop
vertex 0.38303 0.32139 -0.86602
vertex 0.262 0.21985 -0.93969
vertex 0.21985 0.262 -0.93969
endloop
endfacet
facet normal 0.299809326591041 0.29971101602557065 -0.9056973415893118
outer loop
vertex 0.21985 0.262 -0.93969
vertex 0.32139 0.38302 -0.86603
vertex 0.38303 0.32139 -0.86602
endloop
endfacet
facet normal -0.5211887387843381 -0.24297267880326223 -0.8181238145412694
outer loop
vertex -0.46985 -0.17101 -0.86602
vertex -0.43301 -0.25 -0.86603
vertex -0.55667 -0.32139 -0.76605
endloop
endfacet
facet normal -0.5211553772350941 -0.24300056240356005 -0.8181367852935719
outer loop
vertex -0.55667 -0.32139 -0.76605
vertex -0.60402 -0.21984 -0.76605
vertex -0.46985 -0.17101 -0.86602
endloop
endfacet
facet normal -0.38420339821670885 -0.17920529201054866 -0.9056893574036008
outer loop
vertex -0.2962 -0.17101 -0.93969
vertex -0.43302 -0.25 -0.86602
vertex -0.46984 -0.17101 -0.86603
endloop
endfacet
facet normal -0.3842089764469979 -0.17912685761058397 -0.9057025070629472
outer loop
vertex -0.46984 -0.17101 -0.86603
vertex -0.32139 -0.11698 -0.93969
vertex -0.2962 -0.17101 -0.93969
endloop
endfacet
facet normal -0.2508993141806837 -0.06726663328615629 -0.9656732025846054
outer loop
vertex -0.16317 -0.05939 -0.98481
vertex -0.32139 -0.11698 -0.93969
vertex -0.33683 -0.05939 -0.93969
endloop
endfacet
facet normal -0.2508988250653665 -0.06729547685639731 -0.9656713200543385
outer loop
vertex -0.33683 -0.05939 -0.93969
vertex -0.17101 -0.03016 -0.98481
vertex -0.16317 -0.05939 -0.98481
endloop
endfacet
facet normal -0.07926798528832785 0.03698979991580605 -0.9961668239860823
outer loop
vertex -0.16318 0.05939 -0.98481
vertex -0.15038 0.08682 -0.98481
vertex 0 0 -1
endloop
endfacet
facet normal -0.08449555701641993 0.022626546218829258 -0.9961669238891101
outer loop
vertex -0.16318 0.05939 -0.98481
vertex 0 0 -1
vertex -0.17101 0.03015 -0.98481
endloop
endfacet
facet normal -0.0501635808162648 0.07166225830894665 -0.9961667209326719
outer loop
vertex -0.08682 0.15038 -0.98481
vertex 0 0 -1
vertex -0.11162 0.13302 -0.98481
endloop
endfacet
facet normal -0.036989799915799725 0.07926798528832521 -0.9961668239860826
outer loop
vertex -0.08682 0.15038 -0.98481
vertex -0.05939 0.16318 -0.98481
vertex 0 0 -1
endloop
endfacet
facet normal -0.5009595244122602 0.500922151201495 -0.7057737267257183
outer loop
vertex -0.41318 0.49241 -0.76604
vertex -0.4924 0.41317 -0.76605
vertex -0.58682 0.49241 -0.64279
endloop
endfacet
facet normal -0.5009501458278861 0.5009501458278856 -0.7057605137651437
outer loop
vertex -0.58682 0.49241 -0.64279
vertex -0.49241 0.58682 -0.64279
vertex -0.41318 0.49241 -0.76604
endloop
endfacet
facet normal -0.40637059075332477 0.5803247901110479 -0.705752138468855
outer loop
vertex -0.41318 0.4924 -0.76605
vertex -0.49241 0.58682 -0.64279
vertex -0.38302 0.66342 -0.64279
endloop
endfacet
facet normal -0.4063782964760483 0.5803236354531136 -0.705748650928719
outer loop
vertex -0.38302 0.66342 -0.64279
vertex -0.3214 0.55667 -0.76605
vertex -0.41318 0.4924 -0.76605
endloop
endfacet
facet normal -0.32981143846818506 0.4710683956795242 -0.8181191732550127
outer loop
vertex -0.25 0.43302 -0.86602
vertex -0.32139 0.38302 -0.86603
vertex -0.41317 0.4924 -0.76605
endloop
endfacet
facet normal -0.3297981324803712 0.4710915467732148 -0.8181112066041387
outer loop
vertex -0.41317 0.4924 -0.76605
vertex -0.32139 0.55667 -0.76604
vertex -0.25 0.43302 -0.86602
endloop
endfacet
facet normal -0.580323635453113 0.4063782964760474 -0.7057486509287199
outer loop
vertex -0.4924 0.41318 -0.76605
vertex -0.55667 0.3214 -0.76605
vertex -0.66342 0.38302 -0.64279
endloop
endfacet
facet normal -0.5803247901110481 0.4063705907533257 -0.7057521384688545
outer loop
vertex -0.66342 0.38302 -0.64279
vertex -0.58682 0.49241 -0.64279
vertex -0.4924 0.41318 -0.76605
endloop
endfacet
facet normal -0.7433243461052819 0.3466166502500699 -0.5721239500812529
outer loop
vertex -0.66342 0.38302 -0.64278
vertex -0.71984 0.26201 -0.64279
vertex -0.8138 0.2962 -0.5
endloop
endfacet
facet normal -0.7433243697893352 0.34664202026576707 -0.5721085483222177
outer loop
vertex -0.8138 0.2962 -0.5
vertex -0.75 0.43301 -0.5
vertex -0.66342 0.38302 -0.64278
endloop
endfacet
facet normal -0.671841520028457 0.4704411872817739 -0.5721136786293153
outer loop
vertex -0.66341 0.38302 -0.64279
vertex -0.75 0.43301 -0.5
vertex -0.66341 0.55667 -0.5
endloop
endfacet
facet normal -0.6718452093767817 0.4704390618592758 -0.5721110938571571
outer loop
vertex -0.66341 0.55667 -0.5
vertex -0.58682 0.4924 -0.64279
vertex -0.66341 0.38302 -0.64279
endloop
endfacet
facet normal -0.9034689921737139 0.07900397158587855 -0.4213100433816779
outer loop
vertex -0.85287 0.15038 -0.5
vertex -0.86602 0 -0.5
vertex -0.93969 0 -0.34202
endloop
endfacet
facet normal -0.9034701233656427 0.07900795845340972 -0.4213068699732946
outer loop
vertex -0.93969 0 -0.34202
vertex -0.92542 0.16318 -0.34202
vertex -0.85287 0.15038 -0.5
endloop
endfacet
facet normal -0.8760147638052815 0.23474073175342453 -0.42130146267375296
outer loop
vertex -0.85287 0.15038 -0.5
vertex -0.92542 0.16317 -0.34202
vertex -0.88302 0.3214 -0.34202
endloop
endfacet
facet normal -0.876031350154217 0.23471776745662518 -0.4212797683097983
outer loop
vertex -0.88302 0.3214 -0.34202
vertex -0.8138 0.2962 -0.5
vertex -0.85287 0.15038 -0.5
endloop
endfacet
facet normal -0.8170698819657575 -0.07143679692724299 -0.5720957892077506
outer loop
vertex -0.76604 0 -0.64279
vertex -0.75441 -0.13302 -0.64279
vertex -0.85287 -0.15039 -0.5
endloop
endfacet
facet normal -0.8170359738872758 -0.07149540139874 -0.572136893542886
outer loop
vertex -0.85287 -0.15039 -0.5
vertex -0.86603 0 -0.5
vertex -0.76604 0 -0.64279
endloop
endfacet
facet normal -0.7922389385417156 -0.21226700952424074 -0.5721015477395004
outer loop
vertex -0.71985 -0.262 -0.64279
vertex -0.8138 -0.2962 -0.5
vertex -0.85287 -0.15038 -0.5
endloop
endfacet
facet normal -0.7922360235587043 -0.21225056879389323 -0.5721116840465336
outer loop
vertex -0.85287 -0.15038 -0.5
vertex -0.75441 -0.13303 -0.64278
vertex -0.71985 -0.262 -0.64279
endloop
endfacet
facet normal -0.8760313501542171 -0.23471776745662518 -0.4212797683097983
outer loop
vertex -0.85287 -0.15038 -0.5
vertex -0.8138 -0.2962 -0.5
vertex -0.88302 -0.3214 -0.34202
endloop
endfacet
facet normal -0.8760147638052815 -0.2347407317534245 -0.4213014626737528
outer loop
vertex -0.88302 -0.3214 -0.34202
vertex -0.92542 -0.16317 -0.34202
vertex -0.85287 -0.15038 -0.5
endloop
endfacet
facet normal -0.9034701233656428 -0.07900795845340974 -0.42130686997329475
outer loop
vertex -0.85287 -0.15038 -0.5
vertex -0.92542 -0.16318 -0.34202
vertex -0.93969 0 -0.34202
endloop
endfacet
facet normal -0.9034689921737139 -0.07900397158587855 -0.4213100433816779
outer loop
vertex -0.93969 0 -0.34202
vertex -0.86602 0 -0.5
vertex -0.85287 -0.15038 -0.5
endloop
endfacet
facet normal -0.07900410525612447 0.9034705207920907 -0.4213067402882934
outer loop
vertex 0 0.86602 -0.5
vertex -0.15038 0.85287 -0.5
vertex -0.16318 0.92542 -0.34202
endloop
endfacet
facet normal -0.07900783526242112 0.9034687146546498 -0.4213099139676409
outer loop
vertex -0.16318 0.92542 -0.34202
vertex 0 0.93969 -0.34202
vertex 0 0.86602 -0.5
endloop
endfacet
facet normal -0.23474323367016983 0.8760241005573342 -0.42128065406423015
outer loop
vertex -0.2962 0.8138 -0.5
vertex -0.3214 0.88302 -0.34202
vertex -0.16317 0.92542 -0.34202
endloop
endfacet
facet normal -0.23471505288896435 0.8760212186401007 -0.421302348011073
outer loop
vertex -0.16317 0.92542 -0.34202
vertex -0.15038 0.85287 -0.5
vertex -0.2962 0.8138 -0.5
endloop
endfacet
facet normal -0.250090309491026 0.9332379426337297 -0.25791816439996296
outer loop
vertex -0.16318 0.92542 -0.34202
vertex -0.3214 0.88302 -0.34202
vertex -0.33682 0.92542 -0.17365
endloop
endfacet
facet normal -0.25005726330095207 0.9332562158174542 -0.25788408386041106
outer loop
vertex -0.33682 0.92542 -0.17365
vertex -0.17101 0.96985 -0.17364
vertex -0.16318 0.92542 -0.34202
endloop
endfacet
facet normal -0.08418437863217768 0.9624966313962767 -0.2579015799585845
outer loop
vertex -0.16318 0.92542 -0.34202
vertex -0.17101 0.96985 -0.17365
vertex 0 0.98481 -0.17364
endloop
endfacet
facet normal -0.08416959016685377 0.962494304374716 -0.2579150909454035
outer loop
vertex 0 0.98481 -0.17364
vertex 0 0.93969 -0.34202
vertex -0.16318 0.92542 -0.34202
endloop
endfacet
facet normal -0.24318501295191122 0.34726819849533136 -0.9056852918036075
outer loop
vertex -0.21985 0.262 -0.93969
vertex -0.3214 0.38302 -0.86602
vertex -0.25 0.43302 -0.86602
endloop
endfacet
facet normal -0.24317484662518457 0.34727074588228135 -0.9056870447473464
outer loop
vertex -0.25 0.43302 -0.86602
vertex -0.17101 0.2962 -0.93969
vertex -0.21985 0.262 -0.93969
endloop
endfacet
facet normal -0.1489199519955355 0.21286540688699424 -0.9656661775419504
outer loop
vertex -0.08682 0.15038 -0.98481
vertex -0.11162 0.13303 -0.98481
vertex -0.21985 0.262 -0.93969
endloop
endfacet
facet normal -0.14899642177911376 0.21277734618981956 -0.9656737892505098
outer loop
vertex -0.21985 0.262 -0.93969
vertex -0.17101 0.2962 -0.93969
vertex -0.08682 0.15038 -0.98481
endloop
endfacet
facet normal -0.18368882885133916 0.18368882885133717 -0.9656691091209492
outer loop
vertex -0.13303 0.11162 -0.98481
vertex -0.262 0.21985 -0.93969
vertex -0.21985 0.262 -0.93969
endloop
endfacet
facet normal -0.1836352020015387 0.1837210128435964 -0.9656731859307148
outer loop
vertex -0.21985 0.262 -0.93969
vertex -0.11162 0.13302 -0.98481
vertex -0.13303 0.11162 -0.98481
endloop
endfacet
facet normal -0.14879261998122015 0.5555144424043792 -0.8180858515579378
outer loop
vertex -0.08682 0.4924 -0.86603
vertex -0.17101 0.46985 -0.86603
vertex -0.21985 0.60402 -0.76604
endloop
endfacet
facet normal -0.14883855408527782 0.5554757485741295 -0.8181037694350358
outer loop
vertex -0.21985 0.60402 -0.76604
vertex -0.11162 0.63302 -0.76604
vertex -0.08682 0.4924 -0.86603
endloop
endfacet
facet normal -0.0500909738618227 0.5728641908254766 -0.8181182758057947
outer loop
vertex -0.08683 0.4924 -0.86603
vertex -0.11162 0.63303 -0.76604
vertex 0 0.64279 -0.76604
endloop
endfacet
facet normal -0.050142951696277076 0.5728832231299714 -0.8181017644837346
outer loop
vertex 0 0.64279 -0.76604
vertex 0 0.5 -0.86603
vertex -0.08683 0.4924 -0.86603
endloop
endfacet
facet normal -0.0076301258765472954 0.08713950574918614 -0.9961668975211412
outer loop
vertex -0.03015 0.17101 -0.98481
vertex 0 0.17365 -0.98481
vertex 0 0 -1
endloop
endfacet
facet normal -0.022626546218826864 0.08449555701641961 -0.9961669238891102
outer loop
vertex -0.03015 0.17101 -0.98481
vertex 0 0 -1
vertex -0.05939 0.16318 -0.98481
endloop
endfacet
facet normal 0.18368882885133783 0.18368882885133717 -0.9656691091209495
outer loop
vertex 0.21985 0.262 -0.93969
vertex 0.262 0.21985 -0.93969
vertex 0.13303 0.11162 -0.98481
endloop
endfacet
facet normal 0.18363520200154 0.18372101284359635 -0.9656731859307147
outer loop
vertex 0.13303 0.11162 -0.98481
vertex 0.11162 0.13302 -0.98481
vertex 0.21985 0.262 -0.93969
endloop
endfacet
facet normal 0.2128346757563442 0.14889845259566917 -0.9656762664632009
outer loop
vertex 0.2962 0.17101 -0.93969
vertex 0.15038 0.08682 -0.98481
vertex 0.13303 0.11162 -0.98481
endloop
endfacet
facet normal 0.2127929413448935 0.1490073422193967 -0.9656686678558544
outer loop
vertex 0.13303 0.11162 -0.98481
vertex 0.262 0.21985 -0.93969
vertex 0.2962 0.17101 -0.93969
endloop
endfacet
facet normal 0.07166225830894672 0.050163580816262675 -0.996166720932672
outer loop
vertex 0.13302 0.11162 -0.98481
vertex 0.15038 0.08682 -0.98481
vertex 0 0 -1
endloop
endfacet
facet normal 0.06185322992281579 0.06185322992280824 -0.9961668313571936
outer loop
vertex 0.13302 0.11162 -0.98481
vertex 0 0 -1
vertex 0.11162 0.13302 -0.98481
endloop
endfacet
facet normal 0.08449555701641993 0.022626546218829258 -0.9961669238891101
outer loop
vertex 0.16318 0.05939 -0.98481
vertex 0.17101 0.03015 -0.98481
vertex 0 0 -1
endloop
endfacet
facet normal 0.07926798528832785 0.03698979991580605 -0.9961668239860823
outer loop
vertex 0.16318 0.05939 -0.98481
vertex 0 0 -1
vertex 0.15038 0.08682 -0.98481
endloop
endfacet
facet normal 0.23540540702278753 0.10979485946648608 -0.9656756097050243
outer loop
vertex 0.2962 0.17101 -0.93969
vertex 0.3214 0.11698 -0.93969
vertex 0.16317 0.05939 -0.98481
endloop
endfacet
facet normal 0.23547387312524404 0.10971039367628911 -0.9656685169325911
outer loop
vertex 0.16317 0.05939 -0.98481
vertex 0.15039 0.08682 -0.98481
vertex 0.2962 0.17101 -0.93969
endloop
endfacet
facet normal 0.2508988250653665 0.06729547685639731 -0.9656713200543385
outer loop
vertex 0.33683 0.05939 -0.93969
vertex 0.17101 0.03016 -0.98481
vertex 0.16317 0.05939 -0.98481
endloop
endfacet
facet normal 0.2508993141806837 0.06726663328615629 -0.9656732025846054
outer loop
vertex 0.16317 0.05939 -0.98481
vertex 0.32139 0.11698 -0.93969
vertex 0.33683 0.05939 -0.93969
endloop
endfacet
facet normal -0.40945950508954815 -0.10968533903266055 -0.9057107927440814
outer loop
vertex -0.32139 -0.11698 -0.93969
vertex -0.46985 -0.17101 -0.86603
vertex -0.4924 -0.08683 -0.86603
endloop
endfacet
facet normal -0.40946373395098357 -0.10972604054990792 -0.9057039508604111
outer loop
vertex -0.4924 -0.08683 -0.86603
vertex -0.33682 -0.0594 -0.93969
vertex -0.32139 -0.11698 -0.93969
endloop
endfacet
facet normal -0.5555144424043799 -0.148792619981218 -0.8180858515579373
outer loop
vertex -0.4924 -0.08682 -0.86603
vertex -0.46985 -0.17101 -0.86603
vertex -0.60402 -0.21985 -0.76604
endloop
endfacet
facet normal -0.5554757485741296 -0.14883855408528004 -0.8181037694350354
outer loop
vertex -0.60402 -0.21985 -0.76604
vertex -0.63302 -0.11162 -0.76604
vertex -0.4924 -0.08682 -0.86603
endloop
endfacet
facet normal -0.25876762824357386 0.02257243324313735 -0.9656758254355754
outer loop
vertex -0.17101 0.03015 -0.98481
vertex -0.17364 0 -0.98481
vertex -0.34202 0 -0.93969
endloop
endfacet
facet normal -0.2587742136137165 0.02261387722941875 -0.9656730911262132
outer loop
vertex -0.34202 0 -0.93969
vertex -0.33683 0.05939 -0.93969
vertex -0.17101 0.03015 -0.98481
endloop
endfacet
facet normal -0.25877421361371705 -0.022613877229418742 -0.9656730911262129
outer loop
vertex -0.17101 -0.03015 -0.98481
vertex -0.33683 -0.05939 -0.93969
vertex -0.34202 0 -0.93969
endloop
endfacet
facet normal -0.25876762824357386 -0.02257243324313735 -0.9656758254355754
outer loop
vertex -0.34202 0 -0.93969
vertex -0.17364 0 -0.98481
vertex -0.17101 -0.03015 -0.98481
endloop
endfacet
facet normal -0.4223244478945961 -0.0369062785750619 -0.9056930977501509
outer loop
vertex -0.34202 0 -0.93969
vertex -0.33683 -0.05939 -0.93969
vertex -0.4924 -0.08682 -0.86603
endloop
endfacet
facet normal -0.42234375486357656 -0.036866570834422886 -0.9056857118684415
outer loop
vertex -0.4924 -0.08682 -0.86603
vertex -0.5 0 -0.86602
vertex -0.34202 0 -0.93969
endloop
endfacet
facet normal -0.7057449089975473 -0.061773230512843516 -0.7057678027623894
outer loop
vertex -0.64278 0 -0.76605
vertex -0.63302 -0.11162 -0.76604
vertex -0.75441 -0.13303 -0.64278
endloop
endfacet
facet normal -0.7057572370325063 -0.06175309508425416 -0.7057572370325067
outer loop
vertex -0.75441 -0.13303 -0.64278
vertex -0.76605 0 -0.64278
vertex -0.64278 0 -0.76605
endloop
endfacet
facet normal -0.5728641908254766 -0.05009097386182235 -0.8181182758057947
outer loop
vertex -0.4924 -0.08683 -0.86603
vertex -0.63303 -0.11162 -0.76604
vertex -0.64279 0 -0.76604
endloop
endfacet
facet normal -0.5728832231299709 -0.05014295169627822 -0.8181017644837351
outer loop
vertex -0.64279 0 -0.76604
vertex -0.5 0 -0.86603
vertex -0.4924 -0.08683 -0.86603
endloop
endfacet
facet normal -0.2997566428030408 0.2997566428030408 -0.905699679911007
outer loop
vertex -0.21985 0.262 -0.93969
vertex -0.262 0.21985 -0.93969
vertex -0.38302 0.32139 -0.86603
endloop
endfacet
facet normal -0.29972628998735684 0.2998245964348213 -0.9056872321409368
outer loop
vertex -0.38302 0.32139 -0.86603
vertex -0.32139 0.38303 -0.86602
vertex -0.21985 0.262 -0.93969
endloop
endfacet
facet normal -0.40659541538754135 0.406647355715291 -0.8181186321528157
outer loop
vertex -0.38302 0.32139 -0.86603
vertex -0.4924 0.41317 -0.76605
vertex -0.41318 0.4924 -0.76604
endloop
endfacet
facet normal -0.40658452157519187 0.4066512971009938 -0.8181220870881994
outer loop
vertex -0.41318 0.4924 -0.76604
vertex -0.3214 0.38302 -0.86602
vertex -0.38302 0.32139 -0.86603
endloop
endfacet
facet normal -0.6420371161216195 0.2994263331176999 -0.705784820294346
outer loop
vertex -0.60402 0.21985 -0.76604
vertex -0.71985 0.262 -0.64279
vertex -0.66341 0.38302 -0.64279
endloop
endfacet
facet normal -0.6420861583216982 0.29938729292498617 -0.7057567669719729
outer loop
vertex -0.66341 0.38302 -0.64279
vertex -0.55667 0.3214 -0.76604
vertex -0.60402 0.21985 -0.76604
endloop
endfacet
facet normal -0.2509038621424687 0.06726785260426672 -0.9656719359948304
outer loop
vertex -0.17101 0.03016 -0.98481
vertex -0.33683 0.05939 -0.93969
vertex -0.32139 0.11698 -0.93969
endloop
endfacet
facet normal -0.2508898650244241 0.06729307361585686 -0.9656738154632533
outer loop
vertex -0.32139 0.11698 -0.93969
vertex -0.16317 0.05939 -0.98481
vertex -0.17101 0.03016 -0.98481
endloop
endfacet
facet normal -0.55547574857413 0.14883855408528004 -0.8181037694350352
outer loop
vertex -0.4924 0.08682 -0.86603
vertex -0.63302 0.11162 -0.76604
vertex -0.60402 0.21985 -0.76604
endloop
endfacet
facet normal -0.5555144424043799 0.148792619981218 -0.8180858515579376
outer loop
vertex -0.60402 0.21985 -0.76604
vertex -0.46985 0.17101 -0.86603
vertex -0.4924 0.08682 -0.86603
endloop
endfacet
facet normal -0.4094637339509835 0.10972604054990791 -0.9057039508604112
outer loop
vertex -0.32139 0.11698 -0.93969
vertex -0.33682 0.0594 -0.93969
vertex -0.4924 0.08683 -0.86603
endloop
endfacet
facet normal -0.4094595050895489 0.10968533903266049 -0.9057107927440812
outer loop
vertex -0.4924 0.08683 -0.86603
vertex -0.46985 0.17101 -0.86603
vertex -0.32139 0.11698 -0.93969
endloop
endfacet
facet normal -0.42234375486357656 0.036866570834422754 -0.9056857118684415
outer loop
vertex -0.34202 0 -0.93969
vertex -0.5 0 -0.86602
vertex -0.4924 0.08682 -0.86603
endloop
endfacet
facet normal -0.42232444789459556 0.036906278575061915 -0.9056930977501512
outer loop
vertex -0.4924 0.08682 -0.86603
vertex -0.33683 0.05939 -0.93969
vertex -0.34202 0 -0.93969
endloop
endfacet
facet normal -0.5728832231299709 0.05014295169627822 -0.8181017644837351
outer loop
vertex -0.4924 0.08683 -0.86603
vertex -0.5 0 -0.86603
vertex -0.64279 0 -0.76604
endloop
endfacet
facet normal -0.5728641908254768 0.05009097386182233 -0.8181182758057944
outer loop
vertex -0.64279 0 -0.76604
vertex -0.63303 0.11162 -0.76604
vertex -0.4924 0.08683 -0.86603
endloop
endfacet
facet normal -0.817039568877483 0.07143414663994316 -0.5721394109675716
outer loop
vertex -0.75441 0.13302 -0.64279
vertex -0.76604 0 -0.64279
vertex -0.86603 0 -0.5
endloop
endfacet
facet normal -0.8170627854721659 0.07149774756841315 -0.5720983103358274
outer loop
vertex -0.86603 0 -0.5
vertex -0.85287 0.15039 -0.5
vertex -0.75441 0.13302 -0.64279
endloop
endfacet
facet normal -0.7922325277788093 0.21226529186886495 -0.5721110624669162
outer loop
vertex -0.75441 0.13303 -0.64278
vertex -0.85287 0.15038 -0.5
vertex -0.8138 0.2962 -0.5
endloop
endfacet
facet normal -0.7922432715514613 0.21225251186753188 -0.572100926312273
outer loop
vertex -0.8138 0.2962 -0.5
vertex -0.71985 0.262 -0.64279
vertex -0.75441 0.13303 -0.64278
endloop
endfacet
facet normal -0.6842986576488778 0.18333944079654046 -0.7057775829454743
outer loop
vertex -0.60402 0.21985 -0.76604
vertex -0.63302 0.11161 -0.76604
vertex -0.75441 0.13303 -0.64278
endloop
endfacet
facet normal -0.6843050827368602 0.18337108691087164 -0.7057631318123839
outer loop
vertex -0.75441 0.13303 -0.64278
vertex -0.71984 0.262 -0.64279
vertex -0.60402 0.21985 -0.76604
endloop
endfacet
facet normal -0.7057572370325063 0.06175309508425416 -0.7057572370325067
outer loop
vertex -0.64278 0 -0.76605
vertex -0.76605 0 -0.64278
vertex -0.75441 0.13303 -0.64278
endloop
endfacet
facet normal -0.7057449089975473 0.06177323051284373 -0.7057678027623894
outer loop
vertex -0.75441 0.13303 -0.64278
vertex -0.63302 0.11162 -0.76604
vertex -0.64278 0 -0.76605
endloop
endfacet
facet normal -0.036865452678373024 0.4223309892945156 -0.9056917101753413
outer loop
vertex -0.05939 0.33683 -0.93969
vertex -0.08682 0.4924 -0.86603
vertex 0 0.5 -0.86602
endloop
endfacet
facet normal -0.03690790942478299 0.42234310996873414 -0.9056843289379748
outer loop
vertex 0 0.5 -0.86602
vertex 0 0.34202 -0.93969
vertex -0.05939 0.33683 -0.93969
endloop
endfacet
facet normal -0.022573605882395154 0.2587810712371962 -0.9656721956682794
outer loop
vertex 0 0.17364 -0.98481
vertex -0.03015 0.17101 -0.98481
vertex -0.05939 0.33683 -0.93969
endloop
endfacet
facet normal -0.02261328086447256 0.25876738931427634 -0.96567493379295
outer loop
vertex -0.05939 0.33683 -0.93969
vertex 0 0.34202 -0.93969
vertex 0 0.17364 -0.98481
endloop
endfacet
facet normal -0.521169926092182 0.24296390293941367 -0.8181384051647476
outer loop
vertex -0.43301 0.25 -0.86603
vertex -0.46985 0.17101 -0.86602
vertex -0.60402 0.21984 -0.76605
endloop
endfacet
facet normal -0.5211700124076332 0.24300738638603034 -0.8181254355713785
outer loop
vertex -0.60402 0.21984 -0.76605
vertex -0.55667 0.32139 -0.76605
vertex -0.43301 0.25 -0.86603
endloop
endfacet
facet normal -0.47109154677321396 0.3297981324803719 -0.8181112066041386
outer loop
vertex -0.43302 0.25 -0.86602
vertex -0.55667 0.32139 -0.76604
vertex -0.4924 0.41317 -0.76605
endloop
endfacet
facet normal -0.47106839567952574 0.3298114384681834 -0.8181191732550127
outer loop
vertex -0.4924 0.41317 -0.76605
vertex -0.38302 0.32139 -0.86603
vertex -0.43302 0.25 -0.86602
endloop
endfacet
facet normal -0.1791409549648245 0.3842392138447554 -0.9056868911485112
outer loop
vertex -0.11698 0.32139 -0.93969
vertex -0.17101 0.2962 -0.93969
vertex -0.25 0.43302 -0.86602
endloop
endfacet
facet normal -0.17919565154483116 0.3841827136103791 -0.9057000392129776
outer loop
vertex -0.25 0.43302 -0.86602
vertex -0.17101 0.46984 -0.86603
vertex -0.11698 0.32139 -0.93969
endloop
endfacet
facet normal -0.10968533903265955 0.4094595050895489 -0.9057107927440814
outer loop
vertex -0.11698 0.32139 -0.93969
vertex -0.17101 0.46985 -0.86603
vertex -0.08683 0.4924 -0.86603
endloop
endfacet
facet normal -0.1097260405499079 0.40946373395098323 -0.9057039508604113
outer loop
vertex -0.08683 0.4924 -0.86603
vertex -0.0594 0.33682 -0.93969
vertex -0.11698 0.32139 -0.93969
endloop
endfacet
facet normal -0.06729307361585747 0.25088986502442606 -0.9656738154632527
outer loop
vertex -0.03016 0.17101 -0.98481
vertex -0.05939 0.16317 -0.98481
vertex -0.11698 0.32139 -0.93969
endloop
endfacet
facet normal -0.06726785260426407 0.2509038621424677 -0.9656719359948307
outer loop
vertex -0.11698 0.32139 -0.93969
vertex -0.05939 0.33683 -0.93969
vertex -0.03016 0.17101 -0.98481
endloop
endfacet
facet normal -0.10980236050085274 0.2354214895976684 -0.9656708361880127
outer loop
vertex -0.08682 0.15039 -0.98481
vertex -0.17101 0.2962 -0.93969
vertex -0.11698 0.3214 -0.93969
endloop
endfacet
facet normal -0.10969562864908226 0.23544218261690644 -0.9656779213070318
outer loop
vertex -0.11698 0.3214 -0.93969
vertex -0.05939 0.16317 -0.98481
vertex -0.08682 0.15039 -0.98481
endloop
endfacet
facet normal -0.3842089764469978 0.17912685761058392 -0.9057025070629472
outer loop
vertex -0.2962 0.17101 -0.93969
vertex -0.32139 0.11698 -0.93969
vertex -0.46984 0.17101 -0.86603
endloop
endfacet
facet normal -0.38420339821670874 0.17920529201054874 -0.9056893574036007
outer loop
vertex -0.46984 0.17101 -0.86603
vertex -0.43302 0.25 -0.86602
vertex -0.2962 0.17101 -0.93969
endloop
endfacet
facet normal -0.3472657067885586 0.2431832680592138 -0.9056867157161373
outer loop
vertex -0.2962 0.17101 -0.93969
vertex -0.43302 0.25 -0.86602
vertex -0.38302 0.3214 -0.86602
endloop
endfacet
facet normal -0.3472743886672206 0.2431773974696775 -0.9056849630725259
outer loop
vertex -0.38302 0.3214 -0.86602
vertex -0.262 0.21985 -0.93969
vertex -0.2962 0.17101 -0.93969
endloop
endfacet
facet normal -0.21283467575634424 0.1488984525956692 -0.9656762664632009
outer loop
vertex -0.13303 0.11162 -0.98481
vertex -0.15038 0.08682 -0.98481
vertex -0.2962 0.17101 -0.93969
endloop
endfacet
facet normal -0.2127929413448935 0.1490073422193967 -0.9656686678558544
outer loop
vertex -0.2962 0.17101 -0.93969
vertex -0.262 0.21985 -0.93969
vertex -0.13303 0.11162 -0.98481
endloop
endfacet
facet normal -0.23540540702278748 0.10979485946648605 -0.9656756097050243
outer loop
vertex -0.16317 0.05939 -0.98481
vertex -0.3214 0.11698 -0.93969
vertex -0.2962 0.17101 -0.93969
endloop
endfacet
facet normal -0.23547387312524412 0.10971039367628917 -0.9656685169325913
outer loop
vertex -0.2962 0.17101 -0.93969
vertex -0.15039 0.08682 -0.98481
vertex -0.16317 0.05939 -0.98481
endloop
endfacet
endsolid JSxCAD
