solid JSxCAD
facet normal 0 -1 0
outer loop
vertex 0 -1.5 0.5
vertex 0 -1.5 -0.5
vertex 1 -1.5 0.5
endloop
endfacet
facet normal 0 -1 0
outer loop
vertex 1 -1.5 -0.5
vertex 1 -1.5 0.5
vertex 0 -1.5 -0.5
endloop
endfacet
facet normal 0 -0.894427190999916 0.447213595499958
outer loop
vertex 0 -1.5 0.5
vertex 1 -1.5 0.5
vertex 0 0 3.5
endloop
endfacet
facet normal 0 -0.894427190999916 0.447213595499958
outer loop
vertex 1 0 3.5
vertex 0 0 3.5
vertex 1 -1.5 0.5
endloop
endfacet
facet normal 0 0 1
outer loop
vertex 1 0 3.5
vertex 1 1 3.5
vertex 0 0 3.5
endloop
endfacet
facet normal 0 0 1
outer loop
vertex 0 1 3.5
vertex 0 0 3.5
vertex 1 1 3.5
endloop
endfacet
facet normal -0.7456463532839217 -0.6663418910997485 0
outer loop
vertex 0 -1.5 0.5
vertex -0.76604 -0.64279 0
vertex 0 -1.5 -0.5
endloop
endfacet
facet normal 1 0 0
outer loop
vertex 1 1 3.5
vertex 1 0 3.5
vertex 1 1 2.5
endloop
endfacet
facet normal 1 0 0
outer loop
vertex 1 -1.5 0.5
vertex 1 -1.5 -0.5
vertex 1 0 3.5
endloop
endfacet
facet normal 1 0 0
outer loop
vertex 1 -0.5 -0.5
vertex 1 0 0
vertex 1 -1.5 -0.5
endloop
endfacet
facet normal 1 0 0
outer loop
vertex 1 1 2.5
vertex 1 0 3.5
vertex 1 0 0
endloop
endfacet
facet normal 1 0 0
outer loop
vertex 1 -1.5 -0.5
vertex 1 0 0
vertex 1 0 3.5
endloop
endfacet
facet normal -0.7711921042138633 -0.5693945826213621 0.2846972913106811
outer loop
vertex 0 -1.5 0.5
vertex 0 0 3.5
vertex -0.71985 -0.60402 0.34202
endloop
endfacet
facet normal -0.7853641825236067 -0.5499363862867479 0.2842060376679205
outer loop
vertex -0.71985 -0.60402 0.34202
vertex 0 0 3.5
vertex -0.8138 -0.46985 0.34202
endloop
endfacet
facet normal -0.7675251059749447 -0.6350690941713382 0.08713470793286623
outer loop
vertex 0 -1.5 0.5
vertex -0.75441 -0.63302 0.17365
vertex -0.76604 -0.64279 0
endloop
endfacet
facet normal -0.7748247592917279 -0.5769471728764682 0.2584154641238919
outer loop
vertex 0 -1.5 0.5
vertex -0.71985 -0.60402 0.34202
vertex -0.75441 -0.63302 0.17365
endloop
endfacet
facet normal -0.7914551351131714 -0.5541649310428303 0.25787593587864494
outer loop
vertex -0.85287 -0.4924 0.17365
vertex -0.75441 -0.63302 0.17365
vertex -0.8138 -0.46985 0.34202
endloop
endfacet
facet normal -0.7914318881679658 -0.5541851821821593 0.25790376158678885
outer loop
vertex -0.71985 -0.60402 0.34202
vertex -0.8138 -0.46985 0.34202
vertex -0.75441 -0.63302 0.17365
endloop
endfacet
facet normal 0.5973131608057796 0 -0.8020080971712249
outer loop
vertex 0.64279 0 -0.76604
vertex 1 -0.5 -0.5
vertex 1 -1.5 -0.5
endloop
endfacet
facet normal 0.9955912596806361 0.08708915194096742 -0.03483566077638677
outer loop
vertex 1 1 2.5
vertex 1 0 0
vertex 0.98481 0.17365 0
endloop
endfacet
facet normal 0.8096201294261669 0.5668837856869597 -0.1521775921519919
outer loop
vertex 1 1 2.5
vertex 0.85287 0.4924 -0.17365
vertex 0.75441 0.63302 -0.17365
endloop
endfacet
facet normal -0.8160403021900206 -0.5714396653545762 0.08680399795556638
outer loop
vertex -0.76604 -0.64279 0
vertex -0.75441 -0.63302 0.17365
vertex -0.86603 -0.5 0
endloop
endfacet
facet normal -0.8160652598855871 -0.5713965686839375 0.08685305351046442
outer loop
vertex -0.85287 -0.4924 0.17365
vertex -0.86603 -0.5 0
vertex -0.75441 -0.63302 0.17365
endloop
endfacet
facet normal -0.9439299430159623 0.25293291941498763 0.21218199959962158
outer loop
vertex -0.96985 0.17101 0.17365
vertex 0 1 3.5
vertex -0.92542 0.33682 0.17365
endloop
endfacet
facet normal -0.8937956653343848 0.4167944177915524 0.16556485716257927
outer loop
vertex -0.92542 0.33682 0.17365
vertex 0 1 3.5
vertex -0.85287 0.4924 0.17365
endloop
endfacet
facet normal -0.9551182736010099 -0.08352456038905738 0.284205438451204
outer loop
vertex 0 0 3.5
vertex -0.93969 0 0.34202
vertex -0.92542 -0.16318 0.34202
endloop
endfacet
facet normal -0.9584674282149002 0 0.2852020144583751
outer loop
vertex 0 1 3.5
vertex -0.93969 0 0.34202
vertex 0 0 3.5
endloop
endfacet
facet normal -0.9260829778397066 -0.24818859907972687 0.2842054493537803
outer loop
vertex 0 0 3.5
vertex -0.92542 -0.16318 0.34202
vertex -0.88302 -0.32139 0.34202
endloop
endfacet
facet normal -0.8689527950403645 -0.4051523135706187 0.28420528285011415
outer loop
vertex -0.8138 -0.46985 0.34202
vertex 0 0 3.5
vertex -0.88302 -0.32139 0.34202
endloop
endfacet
facet normal 0.6460639874568347 0.05654941011873509 -0.7611855807400704
outer loop
vertex 0.63302 0.11162 -0.76604
vertex 1 -0.5 -0.5
vertex 0.64279 0 -0.76604
endloop
endfacet
facet normal 0.5735831664103626 -0.008682713704297873 -0.8191013134487037
outer loop
vertex 0.5 0 -0.86603
vertex 0.64279 0 -0.76604
vertex 1 -1.5 -0.5
endloop
endfacet
facet normal 0.7914318881679658 0.5541851821821593 -0.25790376158678885
outer loop
vertex 0.71985 0.60402 -0.34202
vertex 0.75441 0.63302 -0.17365
vertex 0.8138 0.46985 -0.34202
endloop
endfacet
facet normal 0.7914551351131714 0.5541649310428303 -0.25787593587864494
outer loop
vertex 0.85287 0.4924 -0.17365
vertex 0.8138 0.46985 -0.34202
vertex 0.75441 0.63302 -0.17365
endloop
endfacet
facet normal -0.7675251059749447 -0.6350690941713382 -0.08713470793286623
outer loop
vertex 0 -1.5 -0.5
vertex -0.76604 -0.64279 0
vertex -0.75441 -0.63302 -0.17365
endloop
endfacet
facet normal -0.7047070685038476 0.7047070685038473 0.08231582594755094
outer loop
vertex -0.76604 0.64279 0
vertex 0 1 3.5
vertex -0.64279 0.76604 0
endloop
endfacet
facet normal -0.9620381899533179 0.084129703215062 0.2596241785895323
outer loop
vertex 0 1 3.5
vertex -0.92542 0.16318 0.34202
vertex -0.93969 0 0.34202
endloop
endfacet
facet normal -0.9619327002111656 0.09004654471501096 0.2580253864435496
outer loop
vertex 0 1 3.5
vertex -0.96985 0.17101 0.17365
vertex -0.92542 0.16318 0.34202
endloop
endfacet
facet normal 0.5011044736479056 -0.043865399674315554 -0.8642743390853785
outer loop
vertex 0.4924 -0.08682 -0.86603
vertex 0.5 0 -0.86603
vertex 1 -1.5 -0.5
endloop
endfacet
facet normal 0.41389342102162235 -0.08606240344305452 -0.9062480337902108
outer loop
vertex 0.33682 -0.05939 -0.93969
vertex 0.4924 -0.08682 -0.86603
vertex 1 -1.5 -0.5
endloop
endfacet
facet normal 0.8987284014319018 0.4190946492086681 -0.1290230036246312
outer loop
vertex 1 1 2.5
vertex 0.92542 0.33682 -0.17365
vertex 0.85287 0.4924 -0.17365
endloop
endfacet
facet normal 0.6980059835976744 0.698005983597674 -0.15992277424959395
outer loop
vertex 0.63302 0.75441 -0.17365
vertex 1 1 2.5
vertex 0.75441 0.63302 -0.17365
endloop
endfacet
facet normal 0.07924478776270064 -0.29576845931651385 -0.9519670593492089
outer loop
vertex 0.11698 -0.32139 -0.93969
vertex 1 -1.5 -0.5
vertex 0.05939 -0.33682 -0.93969
endloop
endfacet
facet normal -0.2569240027596093 -0.3669094730347729 -0.8940735402657467
outer loop
vertex -0.32139 -0.38302 -0.86603
vertex -0.25 -0.43301 -0.86603
vertex 0 -1.5 -0.5
endloop
endfacet
facet normal -0.21813523258663362 -0.36201242197934747 -0.9062913585801323
outer loop
vertex -0.17101 -0.2962 -0.93969
vertex 0 -1.5 -0.5
vertex -0.25 -0.43301 -0.86603
endloop
endfacet
facet normal -0.5632385580982692 -0.42817552825117855 -0.7067022312673187
outer loop
vertex -0.58682 -0.4924 -0.64279
vertex -0.4924 -0.41318 -0.76604
vertex 0 -1.5 -0.5
endloop
endfacet
facet normal -0.6708453835524039 -0.47178138711002565 -0.5721789878551716
outer loop
vertex -0.66341 -0.55667 -0.5
vertex -0.58682 -0.4924 -0.64279
vertex 0 -1.5 -0.5
endloop
endfacet
facet normal -0.5803326875744199 -0.40634036202645196 -0.7057630494159229
outer loop
vertex -0.4924 -0.41318 -0.76604
vertex -0.58682 -0.4924 -0.64279
vertex -0.55667 -0.32139 -0.76604
endloop
endfacet
facet normal -0.5803167224064064 -0.40634903793295657 -0.7057711818050142
outer loop
vertex -0.66341 -0.38302 -0.64279
vertex -0.55667 -0.32139 -0.76604
vertex -0.58682 -0.4924 -0.64279
endloop
endfacet
facet normal -0.6420492211090307 -0.29943197851093795 -0.7057714133615164
outer loop
vertex -0.66341 -0.38302 -0.64279
vertex -0.71985 -0.262 -0.64279
vertex -0.55667 -0.32139 -0.76604
endloop
endfacet
facet normal -0.6420483743021199 -0.29939915819583623 -0.7057861072078633
outer loop
vertex -0.60402 -0.21985 -0.76604
vertex -0.55667 -0.32139 -0.76604
vertex -0.71985 -0.262 -0.64279
endloop
endfacet
facet normal -0.8160687892304936 -0.5713990398779301 -0.08680362014602899
outer loop
vertex -0.75441 -0.63302 -0.17365
vertex -0.76604 -0.64279 0
vertex -0.85287 -0.4924 -0.17365
endloop
endfacet
facet normal -0.8160368267234431 -0.5714372316274047 -0.0868526783763243
outer loop
vertex -0.86603 -0.5 0
vertex -0.85287 -0.4924 -0.17365
vertex -0.76604 -0.64279 0
endloop
endfacet
facet normal -0.9028827290591487 -0.42103189351614173 -0.08680392968590793
outer loop
vertex -0.92542 -0.33682 -0.17365
vertex -0.85287 -0.4924 -0.17365
vertex -0.93969 -0.34202 0
endloop
endfacet
facet normal -0.9028990875033567 -0.42098712992465454 -0.0868508734752179
outer loop
vertex -0.86603 -0.5 0
vertex -0.93969 -0.34202 0
vertex -0.85287 -0.4924 -0.17365
endloop
endfacet
facet normal -0.7748247592917279 -0.5769471728764682 -0.2584154641238919
outer loop
vertex 0 -1.5 -0.5
vertex -0.75441 -0.63302 -0.17365
vertex -0.71985 -0.60402 -0.34202
endloop
endfacet
facet normal -0.7914381149332079 -0.554189542356526 -0.2578752825953559
outer loop
vertex -0.8138 -0.46985 -0.34202
vertex -0.71985 -0.60402 -0.34202
vertex -0.85287 -0.4924 -0.17365
endloop
endfacet
facet normal -0.7914491937013605 -0.5541607709560206 -0.2579031091764798
outer loop
vertex -0.75441 -0.63302 -0.17365
vertex -0.85287 -0.4924 -0.17365
vertex -0.71985 -0.60402 -0.34202
endloop
endfacet
facet normal -0.7418091673309121 -0.521687659354627 -0.42138004857955685
outer loop
vertex 0 -1.5 -0.5
vertex -0.71985 -0.60402 -0.34202
vertex -0.66341 -0.55667 -0.5
endloop
endfacet
facet normal -0.8756717512276526 -0.4082850506532266 -0.25788040157210174
outer loop
vertex -0.8138 -0.46985 -0.34202
vertex -0.85287 -0.4924 -0.17365
vertex -0.88302 -0.32139 -0.34202
endloop
endfacet
facet normal -0.8756378101022765 -0.40832705439593986 -0.25792914175723664
outer loop
vertex -0.92542 -0.33682 -0.17365
vertex -0.88302 -0.32139 -0.34202
vertex -0.85287 -0.4924 -0.17365
endloop
endfacet
facet normal -0.25883823498619507 0.9658819509003931 0.008650146477478632
outer loop
vertex -0.34202 0.93969 0
vertex 0 1 3.5
vertex -0.17365 0.98481 0
endloop
endfacet
facet normal -0.5728721819385397 0.8180859971897605 0.05052488855021636
outer loop
vertex -0.64279 0.76604 0
vertex 0 1 3.5
vertex -0.5 0.86603 0
endloop
endfacet
facet normal -0.4224446930985875 0.9060251509057127 0.02566918773784471
outer loop
vertex -0.5 0.86603 0
vertex 0 1 3.5
vertex -0.34202 0.93969 0
endloop
endfacet
facet normal -0.7188705397144876 0.6896847310144619 0.08694894442206026
outer loop
vertex -0.76604 0.64279 0
vertex -0.75441 0.63302 0.17365
vertex 0 1 3.5
endloop
endfacet
facet normal -0.8160403021900206 0.5714396653545762 0.08680399795556638
outer loop
vertex -0.76604 0.64279 0
vertex -0.86603 0.5 0
vertex -0.75441 0.63302 0.17365
endloop
endfacet
facet normal -0.8160652598855871 0.5713965686839375 0.08685305351046442
outer loop
vertex -0.85287 0.4924 0.17365
vertex -0.75441 0.63302 0.17365
vertex -0.86603 0.5 0
endloop
endfacet
facet normal -0.8130822627377112 0.5693079191377821 0.12159657572617844
outer loop
vertex -0.85287 0.4924 0.17365
vertex 0 1 3.5
vertex -0.75441 0.63302 0.17365
endloop
endfacet
facet normal -0.8160652598855871 0.5713965686839375 -0.08685305351046442
outer loop
vertex -0.85287 0.4924 -0.17365
vertex -0.86603 0.5 0
vertex -0.75441 0.63302 -0.17365
endloop
endfacet
facet normal -0.8160403021900206 0.5714396653545762 -0.08680399795556638
outer loop
vertex -0.76604 0.64279 0
vertex -0.75441 0.63302 -0.17365
vertex -0.86603 0.5 0
endloop
endfacet
facet normal -0.7044372306064091 0.7044372306064102 -0.08681230483718437
outer loop
vertex -0.63302 0.75441 -0.17365
vertex -0.75441 0.63302 -0.17365
vertex -0.64279 0.76604 0
endloop
endfacet
facet normal -0.70443723060641 0.7044372306064092 -0.08681230483718545
outer loop
vertex -0.76604 0.64279 0
vertex -0.64279 0.76604 0
vertex -0.75441 0.63302 -0.17365
endloop
endfacet
facet normal -0.7914318881679658 0.5541851821821593 -0.25790376158678885
outer loop
vertex -0.71985 0.60402 -0.34202
vertex -0.8138 0.46985 -0.34202
vertex -0.75441 0.63302 -0.17365
endloop
endfacet
facet normal -0.7914551351131714 0.5541649310428303 -0.25787593587864494
outer loop
vertex -0.85287 0.4924 -0.17365
vertex -0.75441 0.63302 -0.17365
vertex -0.8138 0.46985 -0.34202
endloop
endfacet
facet normal -0.9624952352184967 -0.08419933757598112 0.25790190719236034
outer loop
vertex -0.96985 -0.17101 0.17365
vertex -0.92542 -0.16318 0.34202
vertex -0.98481 0 0.17365
endloop
endfacet
facet normal -0.9624905016289854 -0.08416925761886039 0.25792939023281913
outer loop
vertex -0.93969 0 0.34202
vertex -0.98481 0 0.17365
vertex -0.92542 -0.16318 0.34202
endloop
endfacet
facet normal -0.9624905016289854 0.08416925761886039 0.25792939023281913
outer loop
vertex -0.93969 0 0.34202
vertex -0.92542 0.16318 0.34202
vertex -0.98481 0 0.17365
endloop
endfacet
facet normal -0.9624952352184967 0.08419933757598112 0.25790190719236034
outer loop
vertex -0.96985 0.17101 0.17365
vertex -0.98481 0 0.17365
vertex -0.92542 0.16318 0.34202
endloop
endfacet
facet normal -0.9622726063006509 -0.2578709983743263 0.08679849860902253
outer loop
vertex -0.93969 -0.34202 0
vertex -0.92542 -0.33682 0.17365
vertex -0.98481 -0.17365 0
endloop
endfacet
facet normal -0.9622765128263543 -0.2578490167352691 0.08682048969803247
outer loop
vertex -0.96985 -0.17101 0.17365
vertex -0.98481 -0.17365 0
vertex -0.92542 -0.33682 0.17365
endloop
endfacet
facet normal -0.9029027674492407 -0.4209888457419359 0.08680428729835156
outer loop
vertex -0.93969 -0.34202 0
vertex -0.86603 -0.5 0
vertex -0.92542 -0.33682 0.17365
endloop
endfacet
facet normal -0.9028789925119189 -0.42103015109101116 0.08685123345665674
outer loop
vertex -0.85287 -0.4924 0.17365
vertex -0.92542 -0.33682 0.17365
vertex -0.86603 -0.5 0
endloop
endfacet
facet normal -0.8756493255366593 -0.4083324242684439 0.25788154253115686
outer loop
vertex -0.85287 -0.4924 0.17365
vertex -0.8138 -0.46985 0.34202
vertex -0.92542 -0.33682 0.17365
endloop
endfacet
facet normal -0.8756596829134602 -0.4082794237590591 0.25793028487339187
outer loop
vertex -0.88302 -0.32139 0.34202
vertex -0.92542 -0.33682 0.17365
vertex -0.8138 -0.46985 0.34202
endloop
endfacet
facet normal -0.9332303291769029 -0.25010407658871575 0.25793236240936346
outer loop
vertex -0.88302 -0.32139 0.34202
vertex -0.92542 -0.16318 0.34202
vertex -0.92542 -0.33682 0.17365
endloop
endfacet
facet normal -0.933248725784023 -0.25007080927919995 0.2578980538293061
outer loop
vertex -0.96985 -0.17101 0.17365
vertex -0.92542 -0.33682 0.17365
vertex -0.92542 -0.16318 0.34202
endloop
endfacet
facet normal 0.7992756678580759 0.18081341525255784 -0.5731185877588798
outer loop
vertex 0.75441 0.13302 -0.64279
vertex 0.85287 0.15038 -0.5
vertex 1 -0.5 -0.5
endloop
endfacet
facet normal 0.6982873875974769 0.1114126654722936 -0.7070940123453526
outer loop
vertex 0.63302 0.11162 -0.76604
vertex 0.75441 0.13302 -0.64279
vertex 1 -0.5 -0.5
endloop
endfacet
facet normal 0.9619366212073094 0.25775794029455823 -0.09076773102469894
outer loop
vertex 1 1 2.5
vertex 0.96985 0.17101 -0.17365
vertex 0.92542 0.33682 -0.17365
endloop
endfacet
facet normal 0.9655714465953914 0.24518993520175295 -0.08691189329110074
outer loop
vertex 1 1 2.5
vertex 0.98481 0.17365 0
vertex 0.96985 0.17101 -0.17365
endloop
endfacet
facet normal 0.9924344159686564 0.08681569558827477 -0.08681569558827541
outer loop
vertex 1 -0.5 -0.5
vertex 0.96985 0.17101 -0.17365
vertex 1 0 0
endloop
endfacet
facet normal 0.9924344194824508 0.0868130079581831 -0.08681834296842522
outer loop
vertex 0.98481 0.17365 0
vertex 1 0 0
vertex 0.96985 0.17101 -0.17365
endloop
endfacet
facet normal 0.24518993520175367 0.965571446595391 -0.08691189329110131
outer loop
vertex 0.17365 0.98481 0
vertex 1 1 2.5
vertex 0.17101 0.96985 -0.17365
endloop
endfacet
facet normal 0.2577579402945585 0.9619366212073094 -0.09076773102469915
outer loop
vertex 0.17101 0.96985 -0.17365
vertex 1 1 2.5
vertex 0.33682 0.92542 -0.17365
endloop
endfacet
facet normal 0.41909464920866724 0.8987284014319025 -0.1290230036246309
outer loop
vertex 0.33682 0.92542 -0.17365
vertex 1 1 2.5
vertex 0.4924 0.85287 -0.17365
endloop
endfacet
facet normal 0.5668837856869601 0.8096201294261666 -0.1521775921519921
outer loop
vertex 0.4924 0.85287 -0.17365
vertex 1 1 2.5
vertex 0.63302 0.75441 -0.17365
endloop
endfacet
facet normal 0.16524078928313599 -0.23597544294118142 -0.957606950625255
outer loop
vertex 0.21985 -0.262 -0.93969
vertex 1 -1.5 -0.5
vertex 0.17101 -0.2962 -0.93969
endloop
endfacet
facet normal 0.12329362352107447 -0.2644523413594103 -0.9564850451254162
outer loop
vertex 0.17101 -0.2962 -0.93969
vertex 1 -1.5 -0.5
vertex 0.11698 -0.32139 -0.93969
endloop
endfacet
facet normal -0.24315591445578852 -0.3472474641528058 -0.9057010543797633
outer loop
vertex -0.32139 -0.38302 -0.86603
vertex -0.21985 -0.262 -0.93969
vertex -0.25 -0.43301 -0.86603
endloop
endfacet
facet normal -0.2431581512329764 -0.3472469036905919 -0.9057006687456169
outer loop
vertex -0.17101 -0.2962 -0.93969
vertex -0.25 -0.43301 -0.86603
vertex -0.21985 -0.262 -0.93969
endloop
endfacet
facet normal -0.2997566428030396 -0.29975664280304093 -0.9056996799110073
outer loop
vertex -0.262 -0.21985 -0.93969
vertex -0.21985 -0.262 -0.93969
vertex -0.38302 -0.32139 -0.86603
endloop
endfacet
facet normal -0.29975664280304043 -0.2997566428030413 -0.9056996799110067
outer loop
vertex -0.32139 -0.38302 -0.86603
vertex -0.38302 -0.32139 -0.86603
vertex -0.21985 -0.262 -0.93969
endloop
endfacet
facet normal -0.38563258148839613 -0.38563258148839946 -0.838197485196173
outer loop
vertex -0.38302 -0.32139 -0.86603
vertex -0.32139 -0.38302 -0.86603
vertex 0 -1.5 -0.5
endloop
endfacet
facet normal -0.4204439065923541 -0.39091703537256456 -0.8187861704162357
outer loop
vertex -0.4924 -0.41318 -0.76604
vertex -0.38302 -0.32139 -0.86603
vertex 0 -1.5 -0.5
endloop
endfacet
facet normal -0.4710751581811892 -0.32983985637111757 -0.8181038225638896
outer loop
vertex -0.4924 -0.41318 -0.76604
vertex -0.55667 -0.32139 -0.76604
vertex -0.38302 -0.32139 -0.86603
endloop
endfacet
facet normal -0.47107128434786594 -0.3298620745839732 -0.8180970949795687
outer loop
vertex -0.43301 -0.25 -0.86603
vertex -0.38302 -0.32139 -0.86603
vertex -0.55667 -0.32139 -0.76604
endloop
endfacet
facet normal -0.34724610227623665 -0.2431575900460147 -0.9057011266731291
outer loop
vertex -0.262 -0.21985 -0.93969
vertex -0.38302 -0.32139 -0.86603
vertex -0.2962 -0.17101 -0.93969
endloop
endfacet
facet normal -0.34724801242785275 -0.24315629837888117 -0.9057007410969621
outer loop
vertex -0.43301 -0.25 -0.86603
vertex -0.2962 -0.17101 -0.93969
vertex -0.38302 -0.32139 -0.86603
endloop
endfacet
facet normal 0.007630125876543994 -0.08713950574918614 -0.9961668975211412
outer loop
vertex 0 0 -1
vertex 0.03015 -0.17101 -0.98481
vertex 0 -0.17365 -0.98481
endloop
endfacet
facet normal -0.0369897999158017 -0.07926798528832521 -0.9961668239860826
outer loop
vertex 0 0 -1
vertex -0.05939 -0.16318 -0.98481
vertex -0.08682 -0.15038 -0.98481
endloop
endfacet
facet normal -0.08449555701641862 -0.022626546218829258 -0.9961669238891102
outer loop
vertex -0.17101 -0.03015 -0.98481
vertex 0 0 -1
vertex -0.16318 -0.05939 -0.98481
endloop
endfacet
facet normal -0.7433105022646028 -0.3466571207057852 -0.572117416171819
outer loop
vertex -0.66341 -0.38302 -0.64279
vertex -0.75 -0.43301 -0.5
vertex -0.71985 -0.262 -0.64279
endloop
endfacet
facet normal -0.743327044185246 -0.3466432674440363 -0.5721043178639256
outer loop
vertex -0.8138 -0.2962 -0.5
vertex -0.71985 -0.262 -0.64279
vertex -0.75 -0.43301 -0.5
endloop
endfacet
facet normal -0.671842906456353 -0.47044215809522416 -0.5721112522324553
outer loop
vertex -0.66341 -0.55667 -0.5
vertex -0.75 -0.43301 -0.5
vertex -0.58682 -0.4924 -0.64279
endloop
endfacet
facet normal -0.6718436419348103 -0.47043796430597234 -0.5721138370389437
outer loop
vertex -0.66341 -0.38302 -0.64279
vertex -0.58682 -0.4924 -0.64279
vertex -0.75 -0.43301 -0.5
endloop
endfacet
facet normal -0.7428925903748602 -0.5201930244263236 -0.42131913854502767
outer loop
vertex -0.66341 -0.55667 -0.5
vertex -0.71985 -0.60402 -0.34202
vertex -0.75 -0.43301 -0.5
endloop
endfacet
facet normal -0.742890099633451 -0.5201947146199805 -0.4213214434942025
outer loop
vertex -0.8138 -0.46985 -0.34202
vertex -0.75 -0.43301 -0.5
vertex -0.71985 -0.60402 -0.34202
endloop
endfacet
facet normal -0.8219597623113869 -0.38324164587898507 -0.42131697094346304
outer loop
vertex -0.8138 -0.46985 -0.34202
vertex -0.88302 -0.32139 -0.34202
vertex -0.75 -0.43301 -0.5
endloop
endfacet
facet normal -0.8219547506013096 -0.3833105261922632 -0.4212640840068724
outer loop
vertex -0.8138 -0.2962 -0.5
vertex -0.75 -0.43301 -0.5
vertex -0.88302 -0.32139 -0.34202
endloop
endfacet
facet normal -0.8756596829134602 0.4082794237590591 -0.25793028487339187
outer loop
vertex -0.88302 0.32139 -0.34202
vertex -0.92542 0.33682 -0.17365
vertex -0.8138 0.46985 -0.34202
endloop
endfacet
facet normal -0.8756493255366593 0.4083324242684439 -0.25788154253115686
outer loop
vertex -0.85287 0.4924 -0.17365
vertex -0.8138 0.46985 -0.34202
vertex -0.92542 0.33682 -0.17365
endloop
endfacet
facet normal -0.08714204243958792 0.9961958966184599 0
outer loop
vertex -0.17365 0.98481 0
vertex 0 1 3.5
vertex 0 1 0
endloop
endfacet
facet normal 0 1 0
outer loop
vertex 0 1 3.5
vertex 1 1 3.5
vertex 0 1 0
endloop
endfacet
facet normal 0 1 0
outer loop
vertex 1 1 2.5
vertex 0 1 0
vertex 1 1 3.5
endloop
endfacet
facet normal 0.08708915194096681 0.995591259680636 -0.03483566077638672
outer loop
vertex 0 1 0
vertex 1 1 2.5
vertex 0.17365 0.98481 0
endloop
endfacet
facet normal 0.08681842470789417 0.9924344123861636 -0.08681300733743647
outer loop
vertex 0 0.98481 -0.17365
vertex 0 1 0
vertex 0.17101 0.96985 -0.17365
endloop
endfacet
facet normal 0.08681300795818295 0.992434419482451 -0.08681834296842507
outer loop
vertex 0.17365 0.98481 0
vertex 0.17101 0.96985 -0.17365
vertex 0 1 0
endloop
endfacet
facet normal -0.5713990398779293 0.816068789230494 -0.08680362014603041
outer loop
vertex -0.63302 0.75441 -0.17365
vertex -0.64279 0.76604 0
vertex -0.4924 0.85287 -0.17365
endloop
endfacet
facet normal -0.5714372316274042 0.8160368267234432 -0.08685267837632431
outer loop
vertex -0.5 0.86603 0
vertex -0.4924 0.85287 -0.17365
vertex -0.64279 0.76604 0
endloop
endfacet
facet normal -0.08681300795818295 0.992434419482451 -0.08681834296842507
outer loop
vertex -0.17365 0.98481 0
vertex 0 1 0
vertex -0.17101 0.96985 -0.17365
endloop
endfacet
facet normal -0.08681842470789417 0.9924344123861636 -0.08681300733743647
outer loop
vertex 0 0.98481 -0.17365
vertex -0.17101 0.96985 -0.17365
vertex 0 1 0
endloop
endfacet
facet normal 0.743327044185246 0.3466432674440363 -0.5721043178639256
outer loop
vertex 0.8138 0.2962 -0.5
vertex 0.71985 0.262 -0.64279
vertex 0.75 0.43301 -0.5
endloop
endfacet
facet normal 0.7433105022646028 0.3466571207057852 -0.572117416171819
outer loop
vertex 0.66341 0.38302 -0.64279
vertex 0.75 0.43301 -0.5
vertex 0.71985 0.262 -0.64279
endloop
endfacet
facet normal 0.7922412169196662 0.21227986088342127 -0.57209362422331
outer loop
vertex 0.75441 0.13302 -0.64279
vertex 0.71985 0.262 -0.64279
vertex 0.85287 0.15038 -0.5
endloop
endfacet
facet normal 0.7922389385417156 0.21226700952424074 -0.5721015477395003
outer loop
vertex 0.8138 0.2962 -0.5
vertex 0.85287 0.15038 -0.5
vertex 0.71985 0.262 -0.64279
endloop
endfacet
facet normal 0.6842817339971365 0.18335227730610276 -0.7057906565863125
outer loop
vertex 0.75441 0.13302 -0.64279
vertex 0.63302 0.11162 -0.76604
vertex 0.71985 0.262 -0.64279
endloop
endfacet
facet normal 0.6842820423103968 0.18335192855032512 -0.7057904482694485
outer loop
vertex 0.60402 0.21985 -0.76604
vertex 0.71985 0.262 -0.64279
vertex 0.63302 0.11162 -0.76604
endloop
endfacet
facet normal 0.9510952319198501 0.1686132771397543 -0.25881928558652484
outer loop
vertex 1 -0.5 -0.5
vertex 0.92542 0.16318 -0.34202
vertex 0.96985 0.17101 -0.17365
endloop
endfacet
facet normal 0.8841445998316428 0.20001260028480142 -0.42223605520591934
outer loop
vertex 0.85287 0.15038 -0.5
vertex 0.92542 0.16318 -0.34202
vertex 1 -0.5 -0.5
endloop
endfacet
facet normal -0.6831857568511917 0.6831857568511921 -0.25790394194608224
outer loop
vertex -0.71985 0.60402 -0.34202
vertex -0.75441 0.63302 -0.17365
vertex -0.60402 0.71985 -0.34202
endloop
endfacet
facet normal -0.6831857568511915 0.6831857568511926 -0.2579039419460813
outer loop
vertex -0.63302 0.75441 -0.17365
vertex -0.60402 0.71985 -0.34202
vertex -0.75441 0.63302 -0.17365
endloop
endfacet
facet normal 0.40828505065322795 0.8756717512276523 -0.25788040157210046
outer loop
vertex 0.46985 0.8138 -0.34202
vertex 0.32139 0.88302 -0.34202
vertex 0.4924 0.85287 -0.17365
endloop
endfacet
facet normal 0.4083270543959385 0.8756378101022767 -0.2579291417572387
outer loop
vertex 0.33682 0.92542 -0.17365
vertex 0.4924 0.85287 -0.17365
vertex 0.32139 0.88302 -0.34202
endloop
endfacet
facet normal 0.3844609000208622 -0.10300801679669852 -0.917376239517222
outer loop
vertex 0.32139 -0.11698 -0.93969
vertex 0.33682 -0.05939 -0.93969
vertex 1 -1.5 -0.5
endloop
endfacet
facet normal 0.31194277968978806 -0.1454347329332928 -0.9389038505917581
outer loop
vertex 0.2962 -0.17101 -0.93969
vertex 0.32139 -0.11698 -0.93969
vertex 1 -1.5 -0.5
endloop
endfacet
facet normal 0.2994263331177014 0.6420371161216198 -0.705784820294345
outer loop
vertex 0.262 0.71985 -0.64279
vertex 0.38302 0.66341 -0.64279
vertex 0.21985 0.60402 -0.76604
endloop
endfacet
facet normal 0.29940588616447056 0.6420628021360176 -0.7057701279051936
outer loop
vertex 0.32139 0.55667 -0.76604
vertex 0.21985 0.60402 -0.76604
vertex 0.38302 0.66341 -0.64279
endloop
endfacet
facet normal 0.08713950574918544 0.007630125876545644 -0.9961668975211412
outer loop
vertex 0 0 -1
vertex 0.17101 0.03015 -0.98481
vertex 0.17365 0 -0.98481
endloop
endfacet
facet normal 0.08713950574918544 -0.007630125876545644 -0.9961668975211412
outer loop
vertex 0 0 -1
vertex 0.17365 0 -0.98481
vertex 0.17101 -0.03015 -0.98481
endloop
endfacet
facet normal 0.109768770689489 -0.2354429011652645 -0.9656694347820075
outer loop
vertex 0.11698 -0.32139 -0.93969
vertex 0.05939 -0.16318 -0.98481
vertex 0.17101 -0.2962 -0.93969
endloop
endfacet
facet normal 0.10984049805403383 -0.23538475481421167 -0.9656754538602993
outer loop
vertex 0.08682 -0.15038 -0.98481
vertex 0.17101 -0.2962 -0.93969
vertex 0.05939 -0.16318 -0.98481
endloop
endfacet
facet normal 0.06719436340066276 -0.2509276099406409 -0.9656708818726271
outer loop
vertex 0.03015 -0.17101 -0.98481
vertex 0.05939 -0.16318 -0.98481
vertex 0.05939 -0.33682 -0.93969
endloop
endfacet
facet normal 0.0672304840928829 -0.2509269979850364 -0.9656685268200751
outer loop
vertex 0.11698 -0.32139 -0.93969
vertex 0.05939 -0.33682 -0.93969
vertex 0.05939 -0.16318 -0.98481
endloop
endfacet
facet normal 0.022626546218831485 -0.08449555701641961 -0.9961669238891101
outer loop
vertex 0 0 -1
vertex 0.05939 -0.16318 -0.98481
vertex 0.03015 -0.17101 -0.98481
endloop
endfacet
facet normal 0.0369897999158017 -0.07926798528832521 -0.9961668239860826
outer loop
vertex 0 0 -1
vertex 0.08682 -0.15038 -0.98481
vertex 0.05939 -0.16318 -0.98481
endloop
endfacet
facet normal -0.07926798528832785 -0.03698979991580605 -0.9961668239860823
outer loop
vertex -0.16318 -0.05939 -0.98481
vertex 0 0 -1
vertex -0.15038 -0.08682 -0.98481
endloop
endfacet
facet normal -0.07166225830894671 -0.05016358081626266 -0.996166720932672
outer loop
vertex -0.15038 -0.08682 -0.98481
vertex 0 0 -1
vertex -0.13302 -0.11162 -0.98481
endloop
endfacet
facet normal -0.21281068002508993 -0.14896747601755608 -0.9656709095526372
outer loop
vertex -0.13302 -0.11162 -0.98481
vertex -0.262 -0.21985 -0.93969
vertex -0.15038 -0.08682 -0.98481
endloop
endfacet
facet normal -0.21277734618981553 -0.14899642177911246 -0.9656737892505111
outer loop
vertex -0.2962 -0.17101 -0.93969
vertex -0.15038 -0.08682 -0.98481
vertex -0.262 -0.21985 -0.93969
endloop
endfacet
facet normal -0.23542923737660199 -0.10976240032420066 -0.9656734901939379
outer loop
vertex -0.2962 -0.17101 -0.93969
vertex -0.32139 -0.11698 -0.93969
vertex -0.15038 -0.08682 -0.98481
endloop
endfacet
facet normal -0.23541166028530577 -0.10985305328661808 -0.9656674670326858
outer loop
vertex -0.16318 -0.05939 -0.98481
vertex -0.15038 -0.08682 -0.98481
vertex -0.32139 -0.11698 -0.93969
endloop
endfacet
facet normal -0.18368160766947253 -0.18368160766947186 -0.9656718562782681
outer loop
vertex -0.21985 -0.262 -0.93969
vertex -0.262 -0.21985 -0.93969
vertex -0.11162 -0.13302 -0.98481
endloop
endfacet
facet normal -0.18368160766947172 -0.18368160766947172 -0.9656718562782682
outer loop
vertex -0.13302 -0.11162 -0.98481
vertex -0.11162 -0.13302 -0.98481
vertex -0.262 -0.21985 -0.93969
endloop
endfacet
facet normal -0.06185322992281579 -0.06185322992280824 -0.9961668313571936
outer loop
vertex -0.13302 -0.11162 -0.98481
vertex 0 0 -1
vertex -0.11162 -0.13302 -0.98481
endloop
endfacet
facet normal -0.05016358081626086 -0.07166225830894668 -0.9961667209326721
outer loop
vertex 0 0 -1
vertex -0.08682 -0.15038 -0.98481
vertex -0.11162 -0.13302 -0.98481
endloop
endfacet
facet normal -0.14900055635974535 -0.21278325066111495 -0.9656718502900329
outer loop
vertex -0.21985 -0.262 -0.93969
vertex -0.11162 -0.13302 -0.98481
vertex -0.17101 -0.2962 -0.93969
endloop
endfacet
facet normal -0.14895933453858243 -0.21279904934083607 -0.9656747284947759
outer loop
vertex -0.08682 -0.15038 -0.98481
vertex -0.17101 -0.2962 -0.93969
vertex -0.11162 -0.13302 -0.98481
endloop
endfacet
facet normal -0.9028827290591487 0.42103189351614173 -0.08680392968590793
outer loop
vertex -0.92542 0.33682 -0.17365
vertex -0.93969 0.34202 0
vertex -0.85287 0.4924 -0.17365
endloop
endfacet
facet normal -0.9028990875033567 0.42098712992465454 -0.0868508734752179
outer loop
vertex -0.86603 0.5 0
vertex -0.85287 0.4924 -0.17365
vertex -0.93969 0.34202 0
endloop
endfacet
facet normal -0.9622707694908268 0.25787050614376705 0.08682032161130016
outer loop
vertex -0.98481 0.17365 0
vertex -0.96985 0.17101 0.17365
vertex -0.93969 0.34202 0
endloop
endfacet
facet normal -0.9622783780176538 0.25784951652689464 0.08679832963001305
outer loop
vertex -0.92542 0.33682 0.17365
vertex -0.93969 0.34202 0
vertex -0.96985 0.17101 0.17365
endloop
endfacet
facet normal -0.9028990875033567 0.42098712992465454 0.0868508734752179
outer loop
vertex -0.86603 0.5 0
vertex -0.93969 0.34202 0
vertex -0.85287 0.4924 0.17365
endloop
endfacet
facet normal -0.9028827290591487 0.42103189351614173 0.08680392968590793
outer loop
vertex -0.92542 0.33682 0.17365
vertex -0.85287 0.4924 0.17365
vertex -0.93969 0.34202 0
endloop
endfacet
facet normal -0.9924344194824508 -0.0868130079581831 0.08681834296842522
outer loop
vertex -0.98481 -0.17365 0
vertex -0.96985 -0.17101 0.17365
vertex -1 0 0
endloop
endfacet
facet normal -0.9924344123861636 -0.0868184247078937 0.08681300733743656
outer loop
vertex -0.98481 0 0.17365
vertex -1 0 0
vertex -0.96985 -0.17101 0.17365
endloop
endfacet
facet normal -0.9924344194824508 0.0868130079581831 0.08681834296842522
outer loop
vertex -0.98481 0.17365 0
vertex -1 0 0
vertex -0.96985 0.17101 0.17365
endloop
endfacet
facet normal -0.9924344123861636 0.0868184247078937 0.08681300733743656
outer loop
vertex -0.98481 0 0.17365
vertex -0.96985 0.17101 0.17365
vertex -1 0 0
endloop
endfacet
facet normal -0.9622783780176538 -0.25784951652689464 -0.08679832963001305
outer loop
vertex -0.92542 -0.33682 -0.17365
vertex -0.93969 -0.34202 0
vertex -0.96985 -0.17101 -0.17365
endloop
endfacet
facet normal -0.9622707694908268 -0.25787050614376705 -0.08682032161130016
outer loop
vertex -0.98481 -0.17365 0
vertex -0.96985 -0.17101 -0.17365
vertex -0.93969 -0.34202 0
endloop
endfacet
facet normal -0.9924344194824508 -0.0868130079581831 -0.08681834296842522
outer loop
vertex -0.98481 -0.17365 0
vertex -1 0 0
vertex -0.96985 -0.17101 -0.17365
endloop
endfacet
facet normal -0.9924344123861636 -0.0868184247078937 -0.08681300733743656
outer loop
vertex -0.98481 0 -0.17365
vertex -0.96985 -0.17101 -0.17365
vertex -1 0 0
endloop
endfacet
facet normal -0.9624979814419448 -0.08416991172433246 -0.2579012634333141
outer loop
vertex -0.92542 -0.16318 -0.34202
vertex -0.96985 -0.17101 -0.17365
vertex -0.93969 0 -0.34202
endloop
endfacet
facet normal -0.9624880979204025 -0.08419871320325736 -0.2579287460840322
outer loop
vertex -0.98481 0 -0.17365
vertex -0.93969 0 -0.34202
vertex -0.96985 -0.17101 -0.17365
endloop
endfacet
facet normal -0.933240086562948 -0.2500684943368421 -0.25793155869743106
outer loop
vertex -0.92542 -0.33682 -0.17365
vertex -0.96985 -0.17101 -0.17365
vertex -0.88302 -0.32139 -0.34202
endloop
endfacet
facet normal -0.933239383218523 -0.2501065030558461 -0.25789724841317463
outer loop
vertex -0.92542 -0.16318 -0.34202
vertex -0.88302 -0.32139 -0.34202
vertex -0.96985 -0.17101 -0.17365
endloop
endfacet
facet normal -0.933239383218523 0.2501065030558461 -0.25789724841317463
outer loop
vertex -0.92542 0.16318 -0.34202
vertex -0.96985 0.17101 -0.17365
vertex -0.88302 0.32139 -0.34202
endloop
endfacet
facet normal -0.933240086562948 0.2500684943368421 -0.25793155869743106
outer loop
vertex -0.92542 0.33682 -0.17365
vertex -0.88302 0.32139 -0.34202
vertex -0.96985 0.17101 -0.17365
endloop
endfacet
facet normal -0.9624880979204025 0.08419871320325736 -0.2579287460840322
outer loop
vertex -0.98481 0 -0.17365
vertex -0.96985 0.17101 -0.17365
vertex -0.93969 0 -0.34202
endloop
endfacet
facet normal -0.9624979814419448 0.08416991172433246 -0.2579012634333141
outer loop
vertex -0.92542 0.16318 -0.34202
vertex -0.93969 0 -0.34202
vertex -0.96985 0.17101 -0.17365
endloop
endfacet
facet normal -0.9924344123861636 0.0868184247078937 -0.08681300733743656
outer loop
vertex -0.98481 0 -0.17365
vertex -1 0 0
vertex -0.96985 0.17101 -0.17365
endloop
endfacet
facet normal -0.9924344194824508 0.0868130079581831 -0.08681834296842522
outer loop
vertex -0.98481 0.17365 0
vertex -0.96985 0.17101 -0.17365
vertex -1 0 0
endloop
endfacet
facet normal -0.9622783780176538 0.25784951652689464 -0.08679832963001305
outer loop
vertex -0.92542 0.33682 -0.17365
vertex -0.96985 0.17101 -0.17365
vertex -0.93969 0.34202 0
endloop
endfacet
facet normal -0.9622707694908268 0.25787050614376705 -0.08682032161130016
outer loop
vertex -0.98481 0.17365 0
vertex -0.93969 0.34202 0
vertex -0.96985 0.17101 -0.17365
endloop
endfacet
facet normal -0.6412858852161261 0.6412858852161253 -0.4213132170311537
outer loop
vertex -0.66341 0.55667 -0.5
vertex -0.71985 0.60402 -0.34202
vertex -0.55667 0.66341 -0.5
endloop
endfacet
facet normal -0.6412858852161254 0.6412858852161264 -0.4213132170311531
outer loop
vertex -0.60402 0.71985 -0.34202
vertex -0.55667 0.66341 -0.5
vertex -0.71985 0.60402 -0.34202
endloop
endfacet
facet normal -0.8219547506013096 0.3833105261922632 -0.4212640840068724
outer loop
vertex -0.8138 0.2962 -0.5
vertex -0.88302 0.32139 -0.34202
vertex -0.75 0.43301 -0.5
endloop
endfacet
facet normal -0.8219597623113869 0.38324164587898507 -0.42131697094346304
outer loop
vertex -0.8138 0.46985 -0.34202
vertex -0.75 0.43301 -0.5
vertex -0.88302 0.32139 -0.34202
endloop
endfacet
facet normal -0.7428925903748602 0.5201930244263236 -0.42131913854502767
outer loop
vertex -0.66341 0.55667 -0.5
vertex -0.75 0.43301 -0.5
vertex -0.71985 0.60402 -0.34202
endloop
endfacet
facet normal -0.742890099633451 0.5201947146199805 -0.4213214434942025
outer loop
vertex -0.8138 0.46985 -0.34202
vertex -0.71985 0.60402 -0.34202
vertex -0.75 0.43301 -0.5
endloop
endfacet
facet normal -0.4210301510910125 0.9028789925119184 -0.08685123345665603
outer loop
vertex -0.4924 0.85287 -0.17365
vertex -0.5 0.86603 0
vertex -0.33682 0.92542 -0.17365
endloop
endfacet
facet normal -0.4209888457419363 0.9029027674492405 -0.08680428729835153
outer loop
vertex -0.34202 0.93969 0
vertex -0.33682 0.92542 -0.17365
vertex -0.5 0.86603 0
endloop
endfacet
facet normal -0.2578490167352687 0.9622765128263545 -0.08682048969803041
outer loop
vertex -0.17101 0.96985 -0.17365
vertex -0.33682 0.92542 -0.17365
vertex -0.17365 0.98481 0
endloop
endfacet
facet normal -0.2578709983743263 0.9622726063006509 -0.08679849860902333
outer loop
vertex -0.34202 0.93969 0
vertex -0.17365 0.98481 0
vertex -0.33682 0.92542 -0.17365
endloop
endfacet
facet normal 0.8756717512276526 0.4082850506532266 -0.25788040157210174
outer loop
vertex 0.8138 0.46985 -0.34202
vertex 0.85287 0.4924 -0.17365
vertex 0.88302 0.32139 -0.34202
endloop
endfacet
facet normal 0.8756378101022765 0.40832705439593986 -0.25792914175723664
outer loop
vertex 0.92542 0.33682 -0.17365
vertex 0.88302 0.32139 -0.34202
vertex 0.85287 0.4924 -0.17365
endloop
endfacet
facet normal 0.933239383218523 0.2501065030558461 -0.25789724841317463
outer loop
vertex 0.92542 0.16318 -0.34202
vertex 0.88302 0.32139 -0.34202
vertex 0.96985 0.17101 -0.17365
endloop
endfacet
facet normal 0.933240086562948 0.2500684943368421 -0.25793155869743106
outer loop
vertex 0.92542 0.33682 -0.17365
vertex 0.96985 0.17101 -0.17365
vertex 0.88302 0.32139 -0.34202
endloop
endfacet
facet normal 0.876002290115122 0.23476706340232323 -0.42131272667047576
outer loop
vertex 0.92542 0.16318 -0.34202
vertex 0.85287 0.15038 -0.5
vertex 0.88302 0.32139 -0.34202
endloop
endfacet
facet normal 0.8760368333092639 0.23471923657518026 -0.42126754760726776
outer loop
vertex 0.8138 0.2962 -0.5
vertex 0.88302 0.32139 -0.34202
vertex 0.85287 0.15038 -0.5
endloop
endfacet
facet normal 0.8219547506013096 0.3833105261922632 -0.4212640840068724
outer loop
vertex 0.8138 0.2962 -0.5
vertex 0.75 0.43301 -0.5
vertex 0.88302 0.32139 -0.34202
endloop
endfacet
facet normal 0.8219597623113869 0.38324164587898507 -0.42131697094346304
outer loop
vertex 0.8138 0.46985 -0.34202
vertex 0.88302 0.32139 -0.34202
vertex 0.75 0.43301 -0.5
endloop
endfacet
facet normal 0.3833105261922627 0.8219547506013092 -0.42126408400687354
outer loop
vertex 0.2962 0.8138 -0.5
vertex 0.32139 0.88302 -0.34202
vertex 0.43301 0.75 -0.5
endloop
endfacet
facet normal 0.38324164587898596 0.8219597623113872 -0.42131697094346154
outer loop
vertex 0.46985 0.8138 -0.34202
vertex 0.43301 0.75 -0.5
vertex 0.32139 0.88302 -0.34202
endloop
endfacet
facet normal 0.34664326744403645 0.7433270441852459 -0.572104317863926
outer loop
vertex 0.2962 0.8138 -0.5
vertex 0.43301 0.75 -0.5
vertex 0.262 0.71985 -0.64279
endloop
endfacet
facet normal 0.34665712070578486 0.743310502264602 -0.5721174161718204
outer loop
vertex 0.38302 0.66341 -0.64279
vertex 0.262 0.71985 -0.64279
vertex 0.43301 0.75 -0.5
endloop
endfacet
facet normal 0.4704379643059718 0.6718436419348112 -0.5721138370389433
outer loop
vertex 0.38302 0.66341 -0.64279
vertex 0.43301 0.75 -0.5
vertex 0.4924 0.58682 -0.64279
endloop
endfacet
facet normal 0.47044215809522577 0.6718429064563524 -0.5721112522324551
outer loop
vertex 0.55667 0.66341 -0.5
vertex 0.4924 0.58682 -0.64279
vertex 0.43301 0.75 -0.5
endloop
endfacet
facet normal 0.671841520028457 0.4704411872817739 -0.5721136786293153
outer loop
vertex 0.75 0.43301 -0.5
vertex 0.66341 0.38302 -0.64279
vertex 0.66341 0.55667 -0.5
endloop
endfacet
facet normal 0.6718452093767819 0.4704390618592756 -0.5721110938571569
outer loop
vertex 0.58682 0.4924 -0.64279
vertex 0.66341 0.55667 -0.5
vertex 0.66341 0.38302 -0.64279
endloop
endfacet
facet normal 0.5799513860376769 0.5799513860376778 -0.5721125585633947
outer loop
vertex 0.58682 0.4924 -0.64279
vertex 0.4924 0.58682 -0.64279
vertex 0.66341 0.55667 -0.5
endloop
endfacet
facet normal 0.5799513860376766 0.5799513860376768 -0.5721125585633962
outer loop
vertex 0.55667 0.66341 -0.5
vertex 0.66341 0.55667 -0.5
vertex 0.4924 0.58682 -0.64279
endloop
endfacet
facet normal 0.7428916774648769 0.520192385182629 -0.42132153748820944
outer loop
vertex 0.75 0.43301 -0.5
vertex 0.66341 0.55667 -0.5
vertex 0.8138 0.46985 -0.34202
endloop
endfacet
facet normal 0.7428909410283836 0.5201953037908366 -0.4213192324733373
outer loop
vertex 0.71985 0.60402 -0.34202
vertex 0.8138 0.46985 -0.34202
vertex 0.66341 0.55667 -0.5
endloop
endfacet
facet normal 0.6412858852161257 0.6412858852161257 -0.4213132170311538
outer loop
vertex 0.55667 0.66341 -0.5
vertex 0.60402 0.71985 -0.34202
vertex 0.66341 0.55667 -0.5
endloop
endfacet
facet normal 0.6412858852161257 0.6412858852161257 -0.4213132170311533
outer loop
vertex 0.71985 0.60402 -0.34202
vertex 0.66341 0.55667 -0.5
vertex 0.60402 0.71985 -0.34202
endloop
endfacet
facet normal 0.5201930244263235 0.7428925903748599 -0.42131913854502856
outer loop
vertex 0.55667 0.66341 -0.5
vertex 0.43301 0.75 -0.5
vertex 0.60402 0.71985 -0.34202
endloop
endfacet
facet normal 0.5201947146199796 0.7428900996334518 -0.42132144349420214
outer loop
vertex 0.46985 0.8138 -0.34202
vertex 0.60402 0.71985 -0.34202
vertex 0.43301 0.75 -0.5
endloop
endfacet
facet normal 0.5541895423565251 0.7914381149332085 -0.2578752825953562
outer loop
vertex 0.46985 0.8138 -0.34202
vertex 0.4924 0.85287 -0.17365
vertex 0.60402 0.71985 -0.34202
endloop
endfacet
facet normal 0.5541607709560225 0.7914491937013595 -0.2579031091764787
outer loop
vertex 0.63302 0.75441 -0.17365
vertex 0.60402 0.71985 -0.34202
vertex 0.4924 0.85287 -0.17365
endloop
endfacet
facet normal 0.6831857568511917 0.6831857568511921 -0.25790394194608224
outer loop
vertex 0.71985 0.60402 -0.34202
vertex 0.60402 0.71985 -0.34202
vertex 0.75441 0.63302 -0.17365
endloop
endfacet
facet normal 0.6831857568511915 0.6831857568511926 -0.2579039419460813
outer loop
vertex 0.63302 0.75441 -0.17365
vertex 0.75441 0.63302 -0.17365
vertex 0.60402 0.71985 -0.34202
endloop
endfacet
facet normal 0.07143414663994314 0.8170395688774836 -0.5721394109675707
outer loop
vertex 0 0.76604 -0.64279
vertex 0 0.86603 -0.5
vertex 0.13302 0.75441 -0.64279
endloop
endfacet
facet normal 0.07150265891441326 0.8170645780812698 -0.5720951363305282
outer loop
vertex 0.15038 0.85287 -0.5
vertex 0.13302 0.75441 -0.64279
vertex 0 0.86603 -0.5
endloop
endfacet
facet normal 0.21226835226587418 0.7922439500232855 -0.5720941096339244
outer loop
vertex 0.15038 0.85287 -0.5
vertex 0.2962 0.8138 -0.5
vertex 0.13302 0.75441 -0.64279
endloop
endfacet
facet normal 0.21227834275376242 0.7922355511684089 -0.5721020334368718
outer loop
vertex 0.262 0.71985 -0.64279
vertex 0.13302 0.75441 -0.64279
vertex 0.2962 0.8138 -0.5
endloop
endfacet
facet normal 0.18335187013262833 0.6842818242915301 -0.705790674820179
outer loop
vertex 0.11162 0.63302 -0.76604
vertex 0.13302 0.75441 -0.64279
vertex 0.21985 0.60402 -0.76604
endloop
endfacet
facet normal 0.18335232632579482 0.6842819169415826 -0.705790466482562
outer loop
vertex 0.262 0.71985 -0.64279
vertex 0.21985 0.60402 -0.76604
vertex 0.13302 0.75441 -0.64279
endloop
endfacet
facet normal 0.06170486540871247 0.705759346231027 -0.7057593462310267
outer loop
vertex 0 0.76604 -0.64279
vertex 0.13302 0.75441 -0.64279
vertex 0 0.64279 -0.76604
endloop
endfacet
facet normal 0.061770950507424933 0.7057188838934265 -0.7057940256120236
outer loop
vertex 0.11162 0.63302 -0.76604
vertex 0 0.64279 -0.76604
vertex 0.13302 0.75441 -0.64279
endloop
endfacet
facet normal -0.38329971900742343 0.8219315761348844 -0.42131913030534807
outer loop
vertex -0.43301 0.75 -0.5
vertex -0.46985 0.8138 -0.34202
vertex -0.2962 0.8138 -0.5
endloop
endfacet
facet normal -0.3832516038095523 0.821981119641232 -0.4212662425720255
outer loop
vertex -0.32139 0.88302 -0.34202
vertex -0.2962 0.8138 -0.5
vertex -0.46985 0.8138 -0.34202
endloop
endfacet
facet normal -0.520192385182628 0.7428916774648786 -0.4213215374882074
outer loop
vertex -0.43301 0.75 -0.5
vertex -0.55667 0.66341 -0.5
vertex -0.46985 0.8138 -0.34202
endloop
endfacet
facet normal -0.5201953037908366 0.7428909410283824 -0.42131923247333924
outer loop
vertex -0.60402 0.71985 -0.34202
vertex -0.46985 0.8138 -0.34202
vertex -0.55667 0.66341 -0.5
endloop
endfacet
facet normal -0.55418518218216 0.7914318881679648 -0.25790376158679024
outer loop
vertex -0.60402 0.71985 -0.34202
vertex -0.63302 0.75441 -0.17365
vertex -0.46985 0.8138 -0.34202
endloop
endfacet
facet normal -0.5541649310428305 0.7914551351131719 -0.25787593587864255
outer loop
vertex -0.4924 0.85287 -0.17365
vertex -0.46985 0.8138 -0.34202
vertex -0.63302 0.75441 -0.17365
endloop
endfacet
facet normal -0.40827942375905824 0.8756596829134604 -0.2579302848733922
outer loop
vertex -0.32139 0.88302 -0.34202
vertex -0.46985 0.8138 -0.34202
vertex -0.33682 0.92542 -0.17365
endloop
endfacet
facet normal -0.4083324242684447 0.8756493255366593 -0.2578815425311564
outer loop
vertex -0.4924 0.85287 -0.17365
vertex -0.33682 0.92542 -0.17365
vertex -0.46985 0.8138 -0.34202
endloop
endfacet
facet normal 0.08416925761886031 0.9624905016289856 -0.25792939023281874
outer loop
vertex 0 0.93969 -0.34202
vertex 0 0.98481 -0.17365
vertex 0.16318 0.92542 -0.34202
endloop
endfacet
facet normal 0.084199337575982 0.9624952352184959 -0.25790190719236245
outer loop
vertex 0.17101 0.96985 -0.17365
vertex 0.16318 0.92542 -0.34202
vertex 0 0.98481 -0.17365
endloop
endfacet
facet normal 0.2500708092791996 0.933248725784023 -0.25789805382930603
outer loop
vertex 0.17101 0.96985 -0.17365
vertex 0.33682 0.92542 -0.17365
vertex 0.16318 0.92542 -0.34202
endloop
endfacet
facet normal 0.2501040765887156 0.9332303291769032 -0.25793236240936274
outer loop
vertex 0.32139 0.88302 -0.34202
vertex 0.16318 0.92542 -0.34202
vertex 0.33682 0.92542 -0.17365
endloop
endfacet
facet normal 0.23471358370142645 0.8760157352275905 -0.4213145680601345
outer loop
vertex 0.15038 0.85287 -0.5
vertex 0.16318 0.92542 -0.34202
vertex 0.2962 0.8138 -0.5
endloop
endfacet
facet normal 0.23477227467632059 0.8760217352957703 -0.42126938926617213
outer loop
vertex 0.32139 0.88302 -0.34202
vertex 0.2962 0.8138 -0.5
vertex 0.16318 0.92542 -0.34202
endloop
endfacet
facet normal 0.07900973883337288 0.9034904823286476 -0.42126287459379835
outer loop
vertex 0 0.93969 -0.34202
vertex 0.16318 0.92542 -0.34202
vertex 0 0.86603 -0.5
endloop
endfacet
facet normal 0.07906364685986093 0.903464378023247 -0.4213087435459732
outer loop
vertex 0.15038 0.85287 -0.5
vertex 0 0.86603 -0.5
vertex 0.16318 0.92542 -0.34202
endloop
endfacet
facet normal 0.061853229922811837 -0.06185322992280825 -0.9961668313571937
outer loop
vertex 0 0 -1
vertex 0.13302 -0.11162 -0.98481
vertex 0.11162 -0.13302 -0.98481
endloop
endfacet
facet normal 0.14895933453858243 -0.21279904934083607 -0.9656747284947759
outer loop
vertex 0.08682 -0.15038 -0.98481
vertex 0.11162 -0.13302 -0.98481
vertex 0.17101 -0.2962 -0.93969
endloop
endfacet
facet normal 0.14900055635974535 -0.21278325066111495 -0.9656718502900329
outer loop
vertex 0.21985 -0.262 -0.93969
vertex 0.17101 -0.2962 -0.93969
vertex 0.11162 -0.13302 -0.98481
endloop
endfacet
facet normal 0.05016358081626086 -0.07166225830894668 -0.9961667209326721
outer loop
vertex 0 0 -1
vertex 0.11162 -0.13302 -0.98481
vertex 0.08682 -0.15038 -0.98481
endloop
endfacet
facet normal 0.2509269979850375 -0.06723048409288256 -0.965668526820075
outer loop
vertex 0.32139 -0.11698 -0.93969
vertex 0.16318 -0.05939 -0.98481
vertex 0.33682 -0.05939 -0.93969
endloop
endfacet
facet normal 0.2509276099406403 -0.06719436340065749 -0.9656708818726276
outer loop
vertex 0.17101 -0.03015 -0.98481
vertex 0.33682 -0.05939 -0.93969
vertex 0.16318 -0.05939 -0.98481
endloop
endfacet
facet normal 0.08449555701641992 -0.022626546218829254 -0.9961669238891101
outer loop
vertex 0 0 -1
vertex 0.17101 -0.03015 -0.98481
vertex 0.16318 -0.05939 -0.98481
endloop
endfacet
facet normal 0.18368160766947253 -0.18368160766947186 -0.9656718562782681
outer loop
vertex 0.21985 -0.262 -0.93969
vertex 0.11162 -0.13302 -0.98481
vertex 0.262 -0.21985 -0.93969
endloop
endfacet
facet normal 0.18368160766947172 -0.18368160766947172 -0.9656718562782682
outer loop
vertex 0.13302 -0.11162 -0.98481
vertex 0.262 -0.21985 -0.93969
vertex 0.11162 -0.13302 -0.98481
endloop
endfacet
facet normal 0.2555883078427165 -0.17897461359993716 -0.9500751047053332
outer loop
vertex 0.262 -0.21985 -0.93969
vertex 0.2962 -0.17101 -0.93969
vertex 1 -1.5 -0.5
endloop
endfacet
facet normal 0.2082089592991007 -0.2082089592990982 -0.9556662903624737
outer loop
vertex 0.21985 -0.262 -0.93969
vertex 0.262 -0.21985 -0.93969
vertex 1 -1.5 -0.5
endloop
endfacet
facet normal -0.34665712070578486 0.743310502264602 -0.5721174161718204
outer loop
vertex -0.38302 0.66341 -0.64279
vertex -0.43301 0.75 -0.5
vertex -0.262 0.71985 -0.64279
endloop
endfacet
facet normal -0.34664326744403645 0.7433270441852459 -0.572104317863926
outer loop
vertex -0.2962 0.8138 -0.5
vertex -0.262 0.71985 -0.64279
vertex -0.43301 0.75 -0.5
endloop
endfacet
facet normal -0.29943197851093706 0.6420492211090307 -0.7057714133615165
outer loop
vertex -0.38302 0.66341 -0.64279
vertex -0.262 0.71985 -0.64279
vertex -0.32139 0.55667 -0.76604
endloop
endfacet
facet normal -0.29939915819583734 0.6420483743021204 -0.7057861072078626
outer loop
vertex -0.21985 0.60402 -0.76604
vertex -0.32139 0.55667 -0.76604
vertex -0.262 0.71985 -0.64279
endloop
endfacet
facet normal -0.18335192855032353 0.6842820423103974 -0.7057904482694483
outer loop
vertex -0.21985 0.60402 -0.76604
vertex -0.262 0.71985 -0.64279
vertex -0.11162 0.63302 -0.76604
endloop
endfacet
facet normal -0.18335227730610146 0.6842817339971367 -0.7057906565863126
outer loop
vertex -0.13302 0.75441 -0.64279
vertex -0.11162 0.63302 -0.76604
vertex -0.262 0.71985 -0.64279
endloop
endfacet
facet normal -0.06170211942754051 0.7057279386286629 -0.7057909925020917
outer loop
vertex -0.13302 0.75441 -0.64279
vertex 0 0.76604 -0.64279
vertex -0.11162 0.63302 -0.76604
endloop
endfacet
facet normal -0.061774226589816815 0.7057563123802824 -0.7057563123802827
outer loop
vertex 0 0.64279 -0.76604
vertex -0.11162 0.63302 -0.76604
vertex 0 0.76604 -0.64279
endloop
endfacet
facet normal 0.0501635808162648 0.07166225830894665 -0.9961667209326719
outer loop
vertex 0.08682 0.15038 -0.98481
vertex 0.11162 0.13302 -0.98481
vertex 0 0 -1
endloop
endfacet
facet normal 0.2587812343030626 -0.022658063956489703 -0.9656701739778065
outer loop
vertex 0.33682 -0.05939 -0.93969
vertex 0.17101 -0.03015 -0.98481
vertex 0.34202 0 -0.93969
endloop
endfacet
facet normal 0.25878145784511114 -0.022659470935690627 -0.9656700810589884
outer loop
vertex 0.17365 0 -0.98481
vertex 0.34202 0 -0.93969
vertex 0.17101 -0.03015 -0.98481
endloop
endfacet
facet normal 0.25878145784511114 0.022659470935690627 -0.9656700810589884
outer loop
vertex 0.17365 0 -0.98481
vertex 0.17101 0.03015 -0.98481
vertex 0.34202 0 -0.93969
endloop
endfacet
facet normal 0.2587812343030626 0.022658063956489703 -0.9656701739778065
outer loop
vertex 0.33682 0.05939 -0.93969
vertex 0.34202 0 -0.93969
vertex 0.17101 0.03015 -0.98481
endloop
endfacet
facet normal 0.4222912820218284 -0.036974485039795536 -0.9057057803638013
outer loop
vertex 0.33682 -0.05939 -0.93969
vertex 0.34202 0 -0.93969
vertex 0.4924 -0.08682 -0.86603
endloop
endfacet
facet normal 0.4222951019564978 -0.03696662951934359 -0.9057043199441696
outer loop
vertex 0.5 0 -0.86603
vertex 0.4924 -0.08682 -0.86603
vertex 0.34202 0 -0.93969
endloop
endfacet
facet normal 0.05014871267931834 0.572883057212953 -0.8181015275471302
outer loop
vertex 0 0.5 -0.86603
vertex 0 0.64279 -0.76604
vertex 0.08682 0.4924 -0.86603
endloop
endfacet
facet normal 0.050143790202494445 0.5728812551077209 -0.8181030912118171
outer loop
vertex 0.11162 0.63302 -0.76604
vertex 0.08682 0.4924 -0.86603
vertex 0 0.64279 -0.76604
endloop
endfacet
facet normal 0.14883855408527785 0.5554757485741297 -0.8181037694350355
outer loop
vertex 0.11162 0.63302 -0.76604
vertex 0.21985 0.60402 -0.76604
vertex 0.08682 0.4924 -0.86603
endloop
endfacet
facet normal 0.1487926199812183 0.5555144424043791 -0.818085851557938
outer loop
vertex 0.17101 0.46985 -0.86603
vertex 0.08682 0.4924 -0.86603
vertex 0.21985 0.60402 -0.76604
endloop
endfacet
facet normal 0.1791724291448591 0.38417020027558596 -0.9057099413468678
outer loop
vertex 0.17101 0.46985 -0.86603
vertex 0.25 0.43301 -0.86603
vertex 0.11698 0.32139 -0.93969
endloop
endfacet
facet normal 0.17912947006540522 0.38421457989813046 -0.9056996133088443
outer loop
vertex 0.17101 0.2962 -0.93969
vertex 0.11698 0.32139 -0.93969
vertex 0.25 0.43301 -0.86603
endloop
endfacet
facet normal 0.2430790095530428 0.5211946515905281 -0.8180884611508342
outer loop
vertex 0.17101 0.46985 -0.86603
vertex 0.21985 0.60402 -0.76604
vertex 0.25 0.43301 -0.86603
endloop
endfacet
facet normal 0.24304277643831165 0.5211945833061489 -0.8180992697426681
outer loop
vertex 0.32139 0.55667 -0.76604
vertex 0.25 0.43301 -0.86603
vertex 0.21985 0.60402 -0.76604
endloop
endfacet
facet normal 0.2431581512329764 0.3472469036905919 -0.9057006687456169
outer loop
vertex 0.17101 0.2962 -0.93969
vertex 0.25 0.43301 -0.86603
vertex 0.21985 0.262 -0.93969
endloop
endfacet
facet normal 0.24315591445578852 0.3472474641528058 -0.9057010543797633
outer loop
vertex 0.32139 0.38302 -0.86603
vertex 0.21985 0.262 -0.93969
vertex 0.25 0.43301 -0.86603
endloop
endfacet
facet normal 0.1489964217791112 0.21277734618981972 -0.9656737892505102
outer loop
vertex 0.17101 0.2962 -0.93969
vertex 0.21985 0.262 -0.93969
vertex 0.08682 0.15038 -0.98481
endloop
endfacet
facet normal 0.1489674760175538 0.21281068002508055 -0.9656709095526397
outer loop
vertex 0.11162 0.13302 -0.98481
vertex 0.08682 0.15038 -0.98481
vertex 0.21985 0.262 -0.93969
endloop
endfacet
facet normal 0.55547574857413 0.14883855408528004 -0.8181037694350352
outer loop
vertex 0.63302 0.11162 -0.76604
vertex 0.4924 0.08682 -0.86603
vertex 0.60402 0.21985 -0.76604
endloop
endfacet
facet normal 0.5555144424043799 0.148792619981218 -0.8180858515579373
outer loop
vertex 0.46985 0.17101 -0.86603
vertex 0.60402 0.21985 -0.76604
vertex 0.4924 0.08682 -0.86603
endloop
endfacet
facet normal 0.5728830572129525 0.05014871267931923 -0.8181015275471303
outer loop
vertex 0.5 0 -0.86603
vertex 0.4924 0.08682 -0.86603
vertex 0.64279 0 -0.76604
endloop
endfacet
facet normal 0.5728812551077207 0.050143790202492995 -0.8181030912118171
outer loop
vertex 0.63302 0.11162 -0.76604
vertex 0.64279 0 -0.76604
vertex 0.4924 0.08682 -0.86603
endloop
endfacet
facet normal 0.4222951019564978 0.03696662951934359 -0.9057043199441696
outer loop
vertex 0.5 0 -0.86603
vertex 0.34202 0 -0.93969
vertex 0.4924 0.08682 -0.86603
endloop
endfacet
facet normal 0.4222912820218284 0.036974485039795536 -0.9057057803638013
outer loop
vertex 0.33682 0.05939 -0.93969
vertex 0.4924 0.08682 -0.86603
vertex 0.34202 0 -0.93969
endloop
endfacet
facet normal 0.3841702002755873 0.17917242914486067 -0.9057099413468669
outer loop
vertex 0.46985 0.17101 -0.86603
vertex 0.32139 0.11698 -0.93969
vertex 0.43301 0.25 -0.86603
endloop
endfacet
facet normal 0.3842145798981286 0.17912947006540567 -0.9056996133088451
outer loop
vertex 0.2962 0.17101 -0.93969
vertex 0.43301 0.25 -0.86603
vertex 0.32139 0.11698 -0.93969
endloop
endfacet
facet normal 0.4094672211661976 0.10970792190648478 -0.9057045691953822
outer loop
vertex 0.33682 0.05939 -0.93969
vertex 0.32139 0.11698 -0.93969
vertex 0.4924 0.08682 -0.86603
endloop
endfacet
facet normal 0.40946363420675214 0.10967341669274604 -0.9057103697833753
outer loop
vertex 0.46985 0.17101 -0.86603
vertex 0.4924 0.08682 -0.86603
vertex 0.32139 0.11698 -0.93969
endloop
endfacet
facet normal -0.08713950574918544 0.007630125876545644 -0.9961668975211412
outer loop
vertex -0.17365 0 -0.98481
vertex -0.17101 0.03015 -0.98481
vertex 0 0 -1
endloop
endfacet
facet normal -0.08713950574918544 -0.007630125876545644 -0.9961668975211412
outer loop
vertex -0.17365 0 -0.98481
vertex 0 0 -1
vertex -0.17101 -0.03015 -0.98481
endloop
endfacet
facet normal -0.07166225830894671 0.05016358081626266 -0.996166720932672
outer loop
vertex -0.15038 0.08682 -0.98481
vertex -0.13302 0.11162 -0.98481
vertex 0 0 -1
endloop
endfacet
facet normal -0.06185322992281579 0.06185322992280824 -0.9961668313571936
outer loop
vertex -0.13302 0.11162 -0.98481
vertex -0.11162 0.13302 -0.98481
vertex 0 0 -1
endloop
endfacet
facet normal -0.022626546218831485 -0.08449555701641961 -0.9961669238891101
outer loop
vertex 0 0 -1
vertex -0.03015 -0.17101 -0.98481
vertex -0.05939 -0.16318 -0.98481
endloop
endfacet
facet normal -0.007630125876543994 -0.08713950574918614 -0.9961668975211412
outer loop
vertex 0 0 -1
vertex 0 -0.17365 -0.98481
vertex -0.03015 -0.17101 -0.98481
endloop
endfacet
facet normal 0.029133534388349945 -0.3327385783316033 -0.9425689766080285
outer loop
vertex 0.05939 -0.33682 -0.93969
vertex 1 -1.5 -0.5
vertex 0 -0.34202 -0.93969
endloop
endfacet
facet normal 0 -0.35497619792437346 -0.9348753386987785
outer loop
vertex 0 -0.34202 -0.93969
vertex 1 -1.5 -0.5
vertex 0 -1.5 -0.5
endloop
endfacet
facet normal -0.03106558871155066 -0.35480486799600763 -0.9344241193614066
outer loop
vertex -0.05939 -0.33682 -0.93969
vertex 0 -0.34202 -0.93969
vertex 0 -1.5 -0.5
endloop
endfacet
facet normal -0.022658063956486018 -0.2587812343030626 -0.9656701739778066
outer loop
vertex -0.05939 -0.33682 -0.93969
vertex -0.03015 -0.17101 -0.98481
vertex 0 -0.34202 -0.93969
endloop
endfacet
facet normal -0.02265947093568864 -0.2587814578451119 -0.9656700810589885
outer loop
vertex 0 -0.17365 -0.98481
vertex 0 -0.34202 -0.93969
vertex -0.03015 -0.17101 -0.98481
endloop
endfacet
facet normal 0.02265947093568864 -0.2587814578451119 -0.9656700810589885
outer loop
vertex 0 -0.17365 -0.98481
vertex 0.03015 -0.17101 -0.98481
vertex 0 -0.34202 -0.93969
endloop
endfacet
facet normal 0.022658063956486018 -0.2587812343030626 -0.9656701739778066
outer loop
vertex 0.05939 -0.33682 -0.93969
vertex 0 -0.34202 -0.93969
vertex 0.03015 -0.17101 -0.98481
endloop
endfacet
facet normal -0.06719736865793566 -0.25093883263829836 -0.9656677564874876
outer loop
vertex -0.05939 -0.16318 -0.98481
vertex -0.03015 -0.17101 -0.98481
vertex -0.11698 -0.32139 -0.93969
endloop
endfacet
facet normal -0.06722895752894847 -0.2509213003300149 -0.9656701136051924
outer loop
vertex -0.05939 -0.33682 -0.93969
vertex -0.11698 -0.32139 -0.93969
vertex -0.03015 -0.17101 -0.98481
endloop
endfacet
facet normal -0.09544526199842035 -0.3562341308158703 -0.9295092500905595
outer loop
vertex -0.11698 -0.32139 -0.93969
vertex -0.05939 -0.33682 -0.93969
vertex 0 -1.5 -0.5
endloop
endfacet
facet normal -0.16743857085903457 -0.35913878457775067 -0.9181414152518665
outer loop
vertex -0.17101 -0.2962 -0.93969
vertex -0.11698 -0.32139 -0.93969
vertex 0 -1.5 -0.5
endloop
endfacet
facet normal -0.10976240032420237 -0.2354292373766009 -0.965673490193938
outer loop
vertex -0.17101 -0.2962 -0.93969
vertex -0.08682 -0.15038 -0.98481
vertex -0.11698 -0.32139 -0.93969
endloop
endfacet
facet normal -0.10985305328662649 -0.23541166028530675 -0.9656674670326847
outer loop
vertex -0.05939 -0.16318 -0.98481
vertex -0.11698 -0.32139 -0.93969
vertex -0.08682 -0.15038 -0.98481
endloop
endfacet
facet normal -0.5799513860376769 0.5799513860376778 -0.5721125585633947
outer loop
vertex -0.58682 0.4924 -0.64279
vertex -0.66341 0.55667 -0.5
vertex -0.4924 0.58682 -0.64279
endloop
endfacet
facet normal -0.5799513860376766 0.5799513860376768 -0.5721125585633962
outer loop
vertex -0.55667 0.66341 -0.5
vertex -0.4924 0.58682 -0.64279
vertex -0.66341 0.55667 -0.5
endloop
endfacet
facet normal -0.47044215809522577 0.6718429064563524 -0.5721112522324551
outer loop
vertex -0.55667 0.66341 -0.5
vertex -0.43301 0.75 -0.5
vertex -0.4924 0.58682 -0.64279
endloop
endfacet
facet normal -0.4704379643059718 0.6718436419348112 -0.5721138370389433
outer loop
vertex -0.38302 0.66341 -0.64279
vertex -0.4924 0.58682 -0.64279
vertex -0.43301 0.75 -0.5
endloop
endfacet
facet normal -0.6842819169415822 -0.1833523263257961 -0.7057904664825617
outer loop
vertex -0.71985 -0.262 -0.64279
vertex -0.75441 -0.13302 -0.64279
vertex -0.60402 -0.21985 -0.76604
endloop
endfacet
facet normal -0.6842818242915297 -0.18335187013262977 -0.705790674820179
outer loop
vertex -0.63302 -0.11162 -0.76604
vertex -0.60402 -0.21985 -0.76604
vertex -0.75441 -0.13302 -0.64279
endloop
endfacet
facet normal -0.071437001390309 0.8170722205450455 -0.5720924236921425
outer loop
vertex -0.13302 0.75441 -0.64279
vertex -0.15038 0.85287 -0.5
vertex 0 0.76604 -0.64279
endloop
endfacet
facet normal -0.07150013141003002 0.817035696158082 -0.5721366990604838
outer loop
vertex 0 0.86603 -0.5
vertex 0 0.76604 -0.64279
vertex -0.15038 0.85287 -0.5
endloop
endfacet
facet normal -0.2122670095242416 0.7922389385417153 -0.5721015477395001
outer loop
vertex -0.2962 0.8138 -0.5
vertex -0.15038 0.85287 -0.5
vertex -0.262 0.71985 -0.64279
endloop
endfacet
facet normal -0.21227986088342163 0.7922412169196664 -0.5720936242233096
outer loop
vertex -0.13302 0.75441 -0.64279
vertex -0.262 0.71985 -0.64279
vertex -0.15038 0.85287 -0.5
endloop
endfacet
facet normal 0.07166225830894671 -0.05016358081626266 -0.996166720932672
outer loop
vertex 0 0 -1
vertex 0.15038 -0.08682 -0.98481
vertex 0.13302 -0.11162 -0.98481
endloop
endfacet
facet normal 0.07926798528832786 -0.03698979991580606 -0.9961668239860823
outer loop
vertex 0 0 -1
vertex 0.16318 -0.05939 -0.98481
vertex 0.15038 -0.08682 -0.98481
endloop
endfacet
facet normal 0.23542923737660199 -0.10976240032420066 -0.9656734901939379
outer loop
vertex 0.2962 -0.17101 -0.93969
vertex 0.15038 -0.08682 -0.98481
vertex 0.32139 -0.11698 -0.93969
endloop
endfacet
facet normal 0.23541166028530577 -0.10985305328661808 -0.9656674670326858
outer loop
vertex 0.16318 -0.05939 -0.98481
vertex 0.32139 -0.11698 -0.93969
vertex 0.15038 -0.08682 -0.98481
endloop
endfacet
facet normal 0.21281068002508993 -0.14896747601755608 -0.9656709095526372
outer loop
vertex 0.13302 -0.11162 -0.98481
vertex 0.15038 -0.08682 -0.98481
vertex 0.262 -0.21985 -0.93969
endloop
endfacet
facet normal 0.21277734618981553 -0.14899642177911246 -0.9656737892505111
outer loop
vertex 0.2962 -0.17101 -0.93969
vertex 0.262 -0.21985 -0.93969
vertex 0.15038 -0.08682 -0.98481
endloop
endfacet
facet normal -0.2430716991332306 0.5211789770503248 -0.8181006190935571
outer loop
vertex -0.25 0.43301 -0.86603
vertex -0.32139 0.55667 -0.76604
vertex -0.17101 0.46985 -0.86603
endloop
endfacet
facet normal -0.2430484628159435 0.5212067774937882 -0.8180898115838797
outer loop
vertex -0.21985 0.60402 -0.76604
vertex -0.17101 0.46985 -0.86603
vertex -0.32139 0.55667 -0.76604
endloop
endfacet
facet normal 0.03698979991579974 0.07926798528832525 -0.9961668239860827
outer loop
vertex 0.05939 0.16318 -0.98481
vertex 0.08682 0.15038 -0.98481
vertex 0 0 -1
endloop
endfacet
facet normal 0.022626546218826864 0.08449555701641961 -0.9961669238891102
outer loop
vertex 0.03015 0.17101 -0.98481
vertex 0.05939 0.16318 -0.98481
vertex 0 0 -1
endloop
endfacet
facet normal 0.109768770689489 0.2354429011652645 -0.9656694347820075
outer loop
vertex 0.11698 0.32139 -0.93969
vertex 0.17101 0.2962 -0.93969
vertex 0.05939 0.16318 -0.98481
endloop
endfacet
facet normal 0.10984049805403383 0.23538475481421167 -0.9656754538602993
outer loop
vertex 0.08682 0.15038 -0.98481
vertex 0.05939 0.16318 -0.98481
vertex 0.17101 0.2962 -0.93969
endloop
endfacet
facet normal 0.0076301258765472954 0.08713950574918614 -0.9961668975211412
outer loop
vertex 0 0.17365 -0.98481
vertex 0.03015 0.17101 -0.98481
vertex 0 0 -1
endloop
endfacet
facet normal 0.06719436340066276 0.2509276099406409 -0.9656708818726271
outer loop
vertex 0.03015 0.17101 -0.98481
vertex 0.05939 0.33682 -0.93969
vertex 0.05939 0.16318 -0.98481
endloop
endfacet
facet normal 0.0672304840928829 0.2509269979850364 -0.9656685268200751
outer loop
vertex 0.11698 0.32139 -0.93969
vertex 0.05939 0.16318 -0.98481
vertex 0.05939 0.33682 -0.93969
endloop
endfacet
facet normal 0.022658084241419487 0.2587814659804086 -0.9656701114166988
outer loop
vertex 0 0.34202 -0.93969
vertex 0.05939 0.33682 -0.93969
vertex 0 0.17365 -0.98481
endloop
endfacet
facet normal 0.022659430975660613 0.25878100148342814 -0.9656702042929011
outer loop
vertex 0.03015 0.17101 -0.98481
vertex 0 0.17365 -0.98481
vertex 0.05939 0.33682 -0.93969
endloop
endfacet
facet normal 0.03697480830557446 0.4222949740900073 -0.9057040457064803
outer loop
vertex 0 0.34202 -0.93969
vertex 0 0.5 -0.86603
vertex 0.05939 0.33682 -0.93969
endloop
endfacet
facet normal 0.036966408434727295 0.4222925763556265 -0.90570550655407
outer loop
vertex 0.08682 0.4924 -0.86603
vertex 0.05939 0.33682 -0.93969
vertex 0 0.5 -0.86603
endloop
endfacet
facet normal 0.1096760218398521 0.4094733604743803 -0.9057056570957268
outer loop
vertex 0.08682 0.4924 -0.86603
vertex 0.17101 0.46985 -0.86603
vertex 0.05939 0.33682 -0.93969
endloop
endfacet
facet normal 0.10970411247026587 0.4094530030565485 -0.9057114584651589
outer loop
vertex 0.11698 0.32139 -0.93969
vertex 0.05939 0.33682 -0.93969
vertex 0.17101 0.46985 -0.86603
endloop
endfacet
facet normal 0.5212067774937879 0.24304846281594178 -0.8180898115838803
outer loop
vertex 0.60402 0.21985 -0.76604
vertex 0.46985 0.17101 -0.86603
vertex 0.55667 0.32139 -0.76604
endloop
endfacet
facet normal 0.5211789770503253 0.2430716991332329 -0.8181006190935559
outer loop
vertex 0.43301 0.25 -0.86603
vertex 0.55667 0.32139 -0.76604
vertex 0.46985 0.17101 -0.86603
endloop
endfacet
facet normal 0.5803167224064064 0.40634903793295657 -0.7057711818050142
outer loop
vertex 0.66341 0.38302 -0.64279
vertex 0.55667 0.32139 -0.76604
vertex 0.58682 0.4924 -0.64279
endloop
endfacet
facet normal 0.5803326875744199 0.40634036202645196 -0.7057630494159229
outer loop
vertex 0.4924 0.41318 -0.76604
vertex 0.58682 0.4924 -0.64279
vertex 0.55667 0.32139 -0.76604
endloop
endfacet
facet normal 0.6420483743021199 0.29939915819583623 -0.7057861072078633
outer loop
vertex 0.60402 0.21985 -0.76604
vertex 0.55667 0.32139 -0.76604
vertex 0.71985 0.262 -0.64279
endloop
endfacet
facet normal 0.6420492211090307 0.29943197851093795 -0.7057714133615164
outer loop
vertex 0.66341 0.38302 -0.64279
vertex 0.71985 0.262 -0.64279
vertex 0.55667 0.32139 -0.76604
endloop
endfacet
facet normal 0.4063353088126126 0.5803254706069653 -0.7057718930199494
outer loop
vertex 0.32139 0.55667 -0.76604
vertex 0.38302 0.66341 -0.64279
vertex 0.41318 0.4924 -0.76604
endloop
endfacet
facet normal 0.40635327858252823 0.5803227785788853 -0.7057637605089342
outer loop
vertex 0.4924 0.58682 -0.64279
vertex 0.41318 0.4924 -0.76604
vertex 0.38302 0.66341 -0.64279
endloop
endfacet
facet normal 0.5009501458278854 0.5009501458278854 -0.7057605137651443
outer loop
vertex 0.4924 0.41318 -0.76604
vertex 0.41318 0.4924 -0.76604
vertex 0.58682 0.4924 -0.64279
endloop
endfacet
facet normal 0.5009501458278851 0.5009501458278857 -0.7057605137651447
outer loop
vertex 0.4924 0.58682 -0.64279
vertex 0.58682 0.4924 -0.64279
vertex 0.41318 0.4924 -0.76604
endloop
endfacet
facet normal 0.32984465960428694 0.4710820181278589 -0.8180979359020017
outer loop
vertex 0.32139 0.55667 -0.76604
vertex 0.41318 0.4924 -0.76604
vertex 0.25 0.43301 -0.86603
endloop
endfacet
facet normal 0.32985589864659226 0.4710624645805213 -0.8181046635922413
outer loop
vertex 0.32139 0.38302 -0.86603
vertex 0.25 0.43301 -0.86603
vertex 0.41318 0.4924 -0.76604
endloop
endfacet
facet normal 0.40663355584477817 0.40663355584477884 -0.8181065349464353
outer loop
vertex 0.4924 0.41318 -0.76604
vertex 0.38302 0.32139 -0.86603
vertex 0.41318 0.4924 -0.76604
endloop
endfacet
facet normal 0.40663355584477817 0.40663355584477817 -0.8181065349464356
outer loop
vertex 0.32139 0.38302 -0.86603
vertex 0.41318 0.4924 -0.76604
vertex 0.38302 0.32139 -0.86603
endloop
endfacet
facet normal 0.47107128434786594 0.3298620745839732 -0.8180970949795687
outer loop
vertex 0.43301 0.25 -0.86603
vertex 0.38302 0.32139 -0.86603
vertex 0.55667 0.32139 -0.76604
endloop
endfacet
facet normal 0.4710751581811892 0.32983985637111757 -0.8181038225638896
outer loop
vertex 0.4924 0.41318 -0.76604
vertex 0.55667 0.32139 -0.76604
vertex 0.38302 0.32139 -0.86603
endloop
endfacet
facet normal 0.34724801242785275 0.24315629837888117 -0.9057007410969621
outer loop
vertex 0.43301 0.25 -0.86603
vertex 0.2962 0.17101 -0.93969
vertex 0.38302 0.32139 -0.86603
endloop
endfacet
facet normal 0.34724610227623665 0.2431575900460147 -0.9057011266731291
outer loop
vertex 0.262 0.21985 -0.93969
vertex 0.38302 0.32139 -0.86603
vertex 0.2962 0.17101 -0.93969
endloop
endfacet
facet normal 0.2997566428030396 0.29975664280304093 -0.9056996799110073
outer loop
vertex 0.262 0.21985 -0.93969
vertex 0.21985 0.262 -0.93969
vertex 0.38302 0.32139 -0.86603
endloop
endfacet
facet normal 0.29975664280304043 0.2997566428030413 -0.9056996799110067
outer loop
vertex 0.32139 0.38302 -0.86603
vertex 0.38302 0.32139 -0.86603
vertex 0.21985 0.262 -0.93969
endloop
endfacet
facet normal -0.5211789770503253 -0.2430716991332329 -0.8181006190935559
outer loop
vertex -0.43301 -0.25 -0.86603
vertex -0.55667 -0.32139 -0.76604
vertex -0.46985 -0.17101 -0.86603
endloop
endfacet
facet normal -0.5212067774937879 -0.24304846281594178 -0.8180898115838803
outer loop
vertex -0.60402 -0.21985 -0.76604
vertex -0.46985 -0.17101 -0.86603
vertex -0.55667 -0.32139 -0.76604
endloop
endfacet
facet normal -0.3841864456544748 -0.1791800057970734 -0.9057015515598624
outer loop
vertex -0.43301 -0.25 -0.86603
vertex -0.46985 -0.17101 -0.86603
vertex -0.2962 -0.17101 -0.93969
endloop
endfacet
facet normal -0.38419082669893934 -0.1791183957902324 -0.905711879666994
outer loop
vertex -0.32139 -0.11698 -0.93969
vertex -0.2962 -0.17101 -0.93969
vertex -0.46985 -0.17101 -0.86603
endloop
endfacet
facet normal -0.2509269979850375 -0.06723048409288256 -0.965668526820075
outer loop
vertex -0.32139 -0.11698 -0.93969
vertex -0.33682 -0.05939 -0.93969
vertex -0.16318 -0.05939 -0.98481
endloop
endfacet
facet normal -0.2509276099406403 -0.06719436340065749 -0.9656708818726276
outer loop
vertex -0.17101 -0.03015 -0.98481
vertex -0.16318 -0.05939 -0.98481
vertex -0.33682 -0.05939 -0.93969
endloop
endfacet
facet normal -0.07926798528832785 0.03698979991580605 -0.9961668239860823
outer loop
vertex -0.16318 0.05939 -0.98481
vertex -0.15038 0.08682 -0.98481
vertex 0 0 -1
endloop
endfacet
facet normal -0.08449555701641862 0.022626546218829258 -0.9961669238891102
outer loop
vertex -0.17101 0.03015 -0.98481
vertex -0.16318 0.05939 -0.98481
vertex 0 0 -1
endloop
endfacet
facet normal -0.0501635808162648 0.07166225830894665 -0.9961667209326719
outer loop
vertex -0.08682 0.15038 -0.98481
vertex 0 0 -1
vertex -0.11162 0.13302 -0.98481
endloop
endfacet
facet normal -0.03698979991579974 0.07926798528832525 -0.9961668239860827
outer loop
vertex -0.05939 0.16318 -0.98481
vertex 0 0 -1
vertex -0.08682 0.15038 -0.98481
endloop
endfacet
facet normal -0.5009501458278854 0.5009501458278854 -0.7057605137651443
outer loop
vertex -0.4924 0.41318 -0.76604
vertex -0.58682 0.4924 -0.64279
vertex -0.41318 0.4924 -0.76604
endloop
endfacet
facet normal -0.5009501458278851 0.5009501458278857 -0.7057605137651447
outer loop
vertex -0.4924 0.58682 -0.64279
vertex -0.41318 0.4924 -0.76604
vertex -0.58682 0.4924 -0.64279
endloop
endfacet
facet normal -0.40635327858252823 0.5803227785788853 -0.7057637605089342
outer loop
vertex -0.4924 0.58682 -0.64279
vertex -0.38302 0.66341 -0.64279
vertex -0.41318 0.4924 -0.76604
endloop
endfacet
facet normal -0.4063353088126126 0.5803254706069653 -0.7057718930199494
outer loop
vertex -0.32139 0.55667 -0.76604
vertex -0.41318 0.4924 -0.76604
vertex -0.38302 0.66341 -0.64279
endloop
endfacet
facet normal -0.32985589864659226 0.4710624645805213 -0.8181046635922413
outer loop
vertex -0.32139 0.38302 -0.86603
vertex -0.41318 0.4924 -0.76604
vertex -0.25 0.43301 -0.86603
endloop
endfacet
facet normal -0.32984465960428694 0.4710820181278589 -0.8180979359020017
outer loop
vertex -0.32139 0.55667 -0.76604
vertex -0.25 0.43301 -0.86603
vertex -0.41318 0.4924 -0.76604
endloop
endfacet
facet normal -0.5803254706069644 0.4063353088126127 -0.7057718930199502
outer loop
vertex -0.55667 0.32139 -0.76604
vertex -0.66341 0.38302 -0.64279
vertex -0.4924 0.41318 -0.76604
endloop
endfacet
facet normal -0.580322778578885 0.4063532785825271 -0.705763760508935
outer loop
vertex -0.58682 0.4924 -0.64279
vertex -0.4924 0.41318 -0.76604
vertex -0.66341 0.38302 -0.64279
endloop
endfacet
facet normal -0.7433192899322115 0.34666121900325564 -0.5721035155055856
outer loop
vertex -0.71985 0.262 -0.64279
vertex -0.8138 0.2962 -0.5
vertex -0.66341 0.38302 -0.64279
endloop
endfacet
facet normal -0.7433192705782442 0.34663964229874905 -0.5721166143139195
outer loop
vertex -0.75 0.43301 -0.5
vertex -0.66341 0.38302 -0.64279
vertex -0.8138 0.2962 -0.5
endloop
endfacet
facet normal -0.671841520028457 0.4704411872817739 -0.5721136786293153
outer loop
vertex -0.75 0.43301 -0.5
vertex -0.66341 0.55667 -0.5
vertex -0.66341 0.38302 -0.64279
endloop
endfacet
facet normal -0.6718452093767819 0.4704390618592756 -0.5721110938571569
outer loop
vertex -0.58682 0.4924 -0.64279
vertex -0.66341 0.38302 -0.64279
vertex -0.66341 0.55667 -0.5
endloop
endfacet
facet normal -0.9034864696558631 0.0790655801347995 -0.4212610036387573
outer loop
vertex -0.86603 0 -0.5
vertex -0.93969 0 -0.34202
vertex -0.85287 0.15038 -0.5
endloop
endfacet
facet normal -0.9034701233656427 0.07900795845340969 -0.42130686997329453
outer loop
vertex -0.92542 0.16318 -0.34202
vertex -0.85287 0.15038 -0.5
vertex -0.93969 0 -0.34202
endloop
endfacet
facet normal -0.876002290115122 0.23476706340232323 -0.42131272667047576
outer loop
vertex -0.92542 0.16318 -0.34202
vertex -0.88302 0.32139 -0.34202
vertex -0.85287 0.15038 -0.5
endloop
endfacet
facet normal -0.8760368333092639 0.23471923657518026 -0.42126754760726776
outer loop
vertex -0.8138 0.2962 -0.5
vertex -0.85287 0.15038 -0.5
vertex -0.88302 0.32139 -0.34202
endloop
endfacet
facet normal -0.8170722205450452 -0.07143700139030963 -0.5720924236921422
outer loop
vertex -0.75441 -0.13302 -0.64279
vertex -0.85287 -0.15038 -0.5
vertex -0.76604 0 -0.64279
endloop
endfacet
facet normal -0.8170356961580818 -0.07150013141002999 -0.5721366990604843
outer loop
vertex -0.86603 0 -0.5
vertex -0.76604 0 -0.64279
vertex -0.85287 -0.15038 -0.5
endloop
endfacet
facet normal -0.7922389385417156 -0.21226700952424074 -0.5721015477395003
outer loop
vertex -0.8138 -0.2962 -0.5
vertex -0.85287 -0.15038 -0.5
vertex -0.71985 -0.262 -0.64279
endloop
endfacet
facet normal -0.7922412169196662 -0.21227986088342127 -0.57209362422331
outer loop
vertex -0.75441 -0.13302 -0.64279
vertex -0.71985 -0.262 -0.64279
vertex -0.85287 -0.15038 -0.5
endloop
endfacet
facet normal -0.8760368333092639 -0.23471923657518026 -0.42126754760726776
outer loop
vertex -0.8138 -0.2962 -0.5
vertex -0.88302 -0.32139 -0.34202
vertex -0.85287 -0.15038 -0.5
endloop
endfacet
facet normal -0.876002290115122 -0.23476706340232323 -0.42131272667047576
outer loop
vertex -0.92542 -0.16318 -0.34202
vertex -0.85287 -0.15038 -0.5
vertex -0.88302 -0.32139 -0.34202
endloop
endfacet
facet normal -0.9034701233656427 -0.07900795845340969 -0.42130686997329453
outer loop
vertex -0.92542 -0.16318 -0.34202
vertex -0.93969 0 -0.34202
vertex -0.85287 -0.15038 -0.5
endloop
endfacet
facet normal -0.9034864696558631 -0.0790655801347995 -0.4212610036387573
outer loop
vertex -0.86603 0 -0.5
vertex -0.85287 -0.15038 -0.5
vertex -0.93969 0 -0.34202
endloop
endfacet
facet normal -0.07906364685986093 0.903464378023247 -0.4213087435459732
outer loop
vertex -0.15038 0.85287 -0.5
vertex -0.16318 0.92542 -0.34202
vertex 0 0.86603 -0.5
endloop
endfacet
facet normal -0.07900973883337288 0.9034904823286476 -0.42126287459379835
outer loop
vertex 0 0.93969 -0.34202
vertex 0 0.86603 -0.5
vertex -0.16318 0.92542 -0.34202
endloop
endfacet
facet normal -0.23477227467632059 0.8760217352957703 -0.42126938926617213
outer loop
vertex -0.32139 0.88302 -0.34202
vertex -0.16318 0.92542 -0.34202
vertex -0.2962 0.8138 -0.5
endloop
endfacet
facet normal -0.23471358370142645 0.8760157352275905 -0.4213145680601345
outer loop
vertex -0.15038 0.85287 -0.5
vertex -0.2962 0.8138 -0.5
vertex -0.16318 0.92542 -0.34202
endloop
endfacet
facet normal -0.2501040765887156 0.9332303291769032 -0.25793236240936274
outer loop
vertex -0.32139 0.88302 -0.34202
vertex -0.33682 0.92542 -0.17365
vertex -0.16318 0.92542 -0.34202
endloop
endfacet
facet normal -0.2500708092791996 0.933248725784023 -0.25789805382930603
outer loop
vertex -0.17101 0.96985 -0.17365
vertex -0.16318 0.92542 -0.34202
vertex -0.33682 0.92542 -0.17365
endloop
endfacet
facet normal -0.084199337575982 0.9624952352184959 -0.25790190719236245
outer loop
vertex -0.17101 0.96985 -0.17365
vertex 0 0.98481 -0.17365
vertex -0.16318 0.92542 -0.34202
endloop
endfacet
facet normal -0.08416925761886031 0.9624905016289856 -0.25792939023281874
outer loop
vertex 0 0.93969 -0.34202
vertex -0.16318 0.92542 -0.34202
vertex 0 0.98481 -0.17365
endloop
endfacet
facet normal -0.24315591445578852 0.3472474641528058 -0.9057010543797633
outer loop
vertex -0.32139 0.38302 -0.86603
vertex -0.25 0.43301 -0.86603
vertex -0.21985 0.262 -0.93969
endloop
endfacet
facet normal -0.2431581512329764 0.3472469036905919 -0.9057006687456169
outer loop
vertex -0.17101 0.2962 -0.93969
vertex -0.21985 0.262 -0.93969
vertex -0.25 0.43301 -0.86603
endloop
endfacet
facet normal -0.1489674760175538 0.21281068002508055 -0.9656709095526397
outer loop
vertex -0.11162 0.13302 -0.98481
vertex -0.21985 0.262 -0.93969
vertex -0.08682 0.15038 -0.98481
endloop
endfacet
facet normal -0.1489964217791112 0.21277734618981972 -0.9656737892505102
outer loop
vertex -0.17101 0.2962 -0.93969
vertex -0.08682 0.15038 -0.98481
vertex -0.21985 0.262 -0.93969
endloop
endfacet
facet normal -0.18368160766947236 0.18368160766947167 -0.9656718562782681
outer loop
vertex -0.262 0.21985 -0.93969
vertex -0.21985 0.262 -0.93969
vertex -0.13302 0.11162 -0.98481
endloop
endfacet
facet normal -0.18368160766946687 0.18368160766947217 -0.9656718562782692
outer loop
vertex -0.11162 0.13302 -0.98481
vertex -0.13302 0.11162 -0.98481
vertex -0.21985 0.262 -0.93969
endloop
endfacet
facet normal -0.1487926199812183 0.5555144424043791 -0.818085851557938
outer loop
vertex -0.17101 0.46985 -0.86603
vertex -0.21985 0.60402 -0.76604
vertex -0.08682 0.4924 -0.86603
endloop
endfacet
facet normal -0.14883855408527785 0.5554757485741297 -0.8181037694350355
outer loop
vertex -0.11162 0.63302 -0.76604
vertex -0.08682 0.4924 -0.86603
vertex -0.21985 0.60402 -0.76604
endloop
endfacet
facet normal -0.050143790202494445 0.5728812551077209 -0.8181030912118171
outer loop
vertex -0.11162 0.63302 -0.76604
vertex 0 0.64279 -0.76604
vertex -0.08682 0.4924 -0.86603
endloop
endfacet
facet normal -0.05014871267931834 0.572883057212953 -0.8181015275471302
outer loop
vertex 0 0.5 -0.86603
vertex -0.08682 0.4924 -0.86603
vertex 0 0.64279 -0.76604
endloop
endfacet
facet normal -0.0076301258765472954 0.08713950574918614 -0.9961668975211412
outer loop
vertex 0 0.17365 -0.98481
vertex 0 0 -1
vertex -0.03015 0.17101 -0.98481
endloop
endfacet
facet normal -0.022626546218826864 0.08449555701641961 -0.9961669238891102
outer loop
vertex -0.03015 0.17101 -0.98481
vertex 0 0 -1
vertex -0.05939 0.16318 -0.98481
endloop
endfacet
facet normal 0.18368160766947236 0.18368160766947167 -0.9656718562782681
outer loop
vertex 0.262 0.21985 -0.93969
vertex 0.13302 0.11162 -0.98481
vertex 0.21985 0.262 -0.93969
endloop
endfacet
facet normal 0.18368160766946687 0.18368160766947217 -0.9656718562782692
outer loop
vertex 0.11162 0.13302 -0.98481
vertex 0.21985 0.262 -0.93969
vertex 0.13302 0.11162 -0.98481
endloop
endfacet
facet normal 0.21279904934083513 0.14895933453858512 -0.9656747284947755
outer loop
vertex 0.15038 0.08682 -0.98481
vertex 0.13302 0.11162 -0.98481
vertex 0.2962 0.17101 -0.93969
endloop
endfacet
facet normal 0.21278325066111586 0.14900055635974896 -0.9656718502900321
outer loop
vertex 0.262 0.21985 -0.93969
vertex 0.2962 0.17101 -0.93969
vertex 0.13302 0.11162 -0.98481
endloop
endfacet
facet normal 0.07166225830894671 0.05016358081626266 -0.996166720932672
outer loop
vertex 0 0 -1
vertex 0.13302 0.11162 -0.98481
vertex 0.15038 0.08682 -0.98481
endloop
endfacet
facet normal 0.061853229922811837 0.06185322992280825 -0.9961668313571937
outer loop
vertex 0 0 -1
vertex 0.11162 0.13302 -0.98481
vertex 0.13302 0.11162 -0.98481
endloop
endfacet
facet normal 0.08449555701641992 0.022626546218829254 -0.9961669238891101
outer loop
vertex 0 0 -1
vertex 0.16318 0.05939 -0.98481
vertex 0.17101 0.03015 -0.98481
endloop
endfacet
facet normal 0.07926798528832786 0.03698979991580606 -0.9961668239860823
outer loop
vertex 0 0 -1
vertex 0.15038 0.08682 -0.98481
vertex 0.16318 0.05939 -0.98481
endloop
endfacet
facet normal 0.23544290116526456 0.10976877068948775 -0.9656694347820077
outer loop
vertex 0.32139 0.11698 -0.93969
vertex 0.16318 0.05939 -0.98481
vertex 0.2962 0.17101 -0.93969
endloop
endfacet
facet normal 0.2353847548142129 0.10984049805402454 -0.9656754538603002
outer loop
vertex 0.15038 0.08682 -0.98481
vertex 0.2962 0.17101 -0.93969
vertex 0.16318 0.05939 -0.98481
endloop
endfacet
facet normal 0.2509276099406403 0.06719436340065749 -0.9656708818726276
outer loop
vertex 0.17101 0.03015 -0.98481
vertex 0.16318 0.05939 -0.98481
vertex 0.33682 0.05939 -0.93969
endloop
endfacet
facet normal 0.2509269979850375 0.06723048409288256 -0.965668526820075
outer loop
vertex 0.32139 0.11698 -0.93969
vertex 0.33682 0.05939 -0.93969
vertex 0.16318 0.05939 -0.98481
endloop
endfacet
facet normal -0.40946363420675214 -0.10967341669274604 -0.9057103697833753
outer loop
vertex -0.46985 -0.17101 -0.86603
vertex -0.4924 -0.08682 -0.86603
vertex -0.32139 -0.11698 -0.93969
endloop
endfacet
facet normal -0.4094672211661976 -0.10970792190648478 -0.9057045691953822
outer loop
vertex -0.33682 -0.05939 -0.93969
vertex -0.32139 -0.11698 -0.93969
vertex -0.4924 -0.08682 -0.86603
endloop
endfacet
facet normal -0.5555144424043799 -0.148792619981218 -0.8180858515579373
outer loop
vertex -0.46985 -0.17101 -0.86603
vertex -0.60402 -0.21985 -0.76604
vertex -0.4924 -0.08682 -0.86603
endloop
endfacet
facet normal -0.55547574857413 -0.14883855408528004 -0.8181037694350352
outer loop
vertex -0.63302 -0.11162 -0.76604
vertex -0.4924 -0.08682 -0.86603
vertex -0.60402 -0.21985 -0.76604
endloop
endfacet
facet normal -0.25878145784511114 0.022659470935690627 -0.9656700810589884
outer loop
vertex -0.17365 0 -0.98481
vertex -0.34202 0 -0.93969
vertex -0.17101 0.03015 -0.98481
endloop
endfacet
facet normal -0.2587812343030626 0.022658063956489703 -0.9656701739778065
outer loop
vertex -0.33682 0.05939 -0.93969
vertex -0.17101 0.03015 -0.98481
vertex -0.34202 0 -0.93969
endloop
endfacet
facet normal -0.2587812343030626 -0.022658063956489703 -0.9656701739778065
outer loop
vertex -0.33682 -0.05939 -0.93969
vertex -0.34202 0 -0.93969
vertex -0.17101 -0.03015 -0.98481
endloop
endfacet
facet normal -0.25878145784511114 -0.022659470935690627 -0.9656700810589884
outer loop
vertex -0.17365 0 -0.98481
vertex -0.17101 -0.03015 -0.98481
vertex -0.34202 0 -0.93969
endloop
endfacet
facet normal -0.4222912820218284 -0.036974485039795536 -0.9057057803638013
outer loop
vertex -0.33682 -0.05939 -0.93969
vertex -0.4924 -0.08682 -0.86603
vertex -0.34202 0 -0.93969
endloop
endfacet
facet normal -0.4222951019564978 -0.03696662951934359 -0.9057043199441696
outer loop
vertex -0.5 0 -0.86603
vertex -0.34202 0 -0.93969
vertex -0.4924 -0.08682 -0.86603
endloop
endfacet
facet normal -0.705718883893426 -0.06177095050742356 -0.705794025612024
outer loop
vertex -0.63302 -0.11162 -0.76604
vertex -0.75441 -0.13302 -0.64279
vertex -0.64279 0 -0.76604
endloop
endfacet
facet normal -0.7057593462310272 -0.06170486540871241 -0.7057593462310263
outer loop
vertex -0.76604 0 -0.64279
vertex -0.64279 0 -0.76604
vertex -0.75441 -0.13302 -0.64279
endloop
endfacet
facet normal -0.5728812551077207 -0.050143790202492995 -0.8181030912118171
outer loop
vertex -0.63302 -0.11162 -0.76604
vertex -0.64279 0 -0.76604
vertex -0.4924 -0.08682 -0.86603
endloop
endfacet
facet normal -0.5728830572129525 -0.05014871267931923 -0.8181015275471303
outer loop
vertex -0.5 0 -0.86603
vertex -0.4924 -0.08682 -0.86603
vertex -0.64279 0 -0.76604
endloop
endfacet
facet normal -0.2997566428030396 0.29975664280304093 -0.9056996799110073
outer loop
vertex -0.262 0.21985 -0.93969
vertex -0.38302 0.32139 -0.86603
vertex -0.21985 0.262 -0.93969
endloop
endfacet
facet normal -0.29975664280304043 0.2997566428030413 -0.9056996799110067
outer loop
vertex -0.32139 0.38302 -0.86603
vertex -0.21985 0.262 -0.93969
vertex -0.38302 0.32139 -0.86603
endloop
endfacet
facet normal -0.40663355584477817 0.40663355584477884 -0.8181065349464353
outer loop
vertex -0.4924 0.41318 -0.76604
vertex -0.41318 0.4924 -0.76604
vertex -0.38302 0.32139 -0.86603
endloop
endfacet
facet normal -0.40663355584477817 0.40663355584477817 -0.8181065349464356
outer loop
vertex -0.32139 0.38302 -0.86603
vertex -0.38302 0.32139 -0.86603
vertex -0.41318 0.4924 -0.76604
endloop
endfacet
facet normal -0.6420371161216195 0.2994263331176999 -0.705784820294346
outer loop
vertex -0.71985 0.262 -0.64279
vertex -0.66341 0.38302 -0.64279
vertex -0.60402 0.21985 -0.76604
endloop
endfacet
facet normal -0.6420628021360179 0.2994058861644717 -0.7057701279051928
outer loop
vertex -0.55667 0.32139 -0.76604
vertex -0.60402 0.21985 -0.76604
vertex -0.66341 0.38302 -0.64279
endloop
endfacet
facet normal -0.25092130033001586 0.06722895752894846 -0.9656701136051923
outer loop
vertex -0.33682 0.05939 -0.93969
vertex -0.32139 0.11698 -0.93969
vertex -0.17101 0.03015 -0.98481
endloop
endfacet
facet normal -0.2509388326382943 0.06719736865792982 -0.965667756487489
outer loop
vertex -0.16318 0.05939 -0.98481
vertex -0.17101 0.03015 -0.98481
vertex -0.32139 0.11698 -0.93969
endloop
endfacet
facet normal -0.55547574857413 0.14883855408528004 -0.8181037694350352
outer loop
vertex -0.63302 0.11162 -0.76604
vertex -0.60402 0.21985 -0.76604
vertex -0.4924 0.08682 -0.86603
endloop
endfacet
facet normal -0.5555144424043799 0.148792619981218 -0.8180858515579373
outer loop
vertex -0.46985 0.17101 -0.86603
vertex -0.4924 0.08682 -0.86603
vertex -0.60402 0.21985 -0.76604
endloop
endfacet
facet normal -0.4094672211661976 0.10970792190648478 -0.9057045691953822
outer loop
vertex -0.33682 0.05939 -0.93969
vertex -0.4924 0.08682 -0.86603
vertex -0.32139 0.11698 -0.93969
endloop
endfacet
facet normal -0.40946363420675214 0.10967341669274604 -0.9057103697833753
outer loop
vertex -0.46985 0.17101 -0.86603
vertex -0.32139 0.11698 -0.93969
vertex -0.4924 0.08682 -0.86603
endloop
endfacet
facet normal -0.4222951019564978 0.03696662951934359 -0.9057043199441696
outer loop
vertex -0.5 0 -0.86603
vertex -0.4924 0.08682 -0.86603
vertex -0.34202 0 -0.93969
endloop
endfacet
facet normal -0.4222912820218284 0.036974485039795536 -0.9057057803638013
outer loop
vertex -0.33682 0.05939 -0.93969
vertex -0.34202 0 -0.93969
vertex -0.4924 0.08682 -0.86603
endloop
endfacet
facet normal -0.5728830572129525 0.05014871267931923 -0.8181015275471303
outer loop
vertex -0.5 0 -0.86603
vertex -0.64279 0 -0.76604
vertex -0.4924 0.08682 -0.86603
endloop
endfacet
facet normal -0.5728812551077207 0.050143790202492995 -0.8181030912118171
outer loop
vertex -0.63302 0.11162 -0.76604
vertex -0.4924 0.08682 -0.86603
vertex -0.64279 0 -0.76604
endloop
endfacet
facet normal -0.817039568877483 0.07143414663994316 -0.5721394109675716
outer loop
vertex -0.76604 0 -0.64279
vertex -0.86603 0 -0.5
vertex -0.75441 0.13302 -0.64279
endloop
endfacet
facet normal -0.8170645780812701 0.07150265891441326 -0.5720951363305278
outer loop
vertex -0.85287 0.15038 -0.5
vertex -0.75441 0.13302 -0.64279
vertex -0.86603 0 -0.5
endloop
endfacet
facet normal -0.7922439500232848 0.2122683522658734 -0.5720941096339253
outer loop
vertex -0.85287 0.15038 -0.5
vertex -0.8138 0.2962 -0.5
vertex -0.75441 0.13302 -0.64279
endloop
endfacet
facet normal -0.7922355511684097 0.21227834275376253 -0.5721020334368703
outer loop
vertex -0.71985 0.262 -0.64279
vertex -0.75441 0.13302 -0.64279
vertex -0.8138 0.2962 -0.5
endloop
endfacet
facet normal -0.6842818242915297 0.18335187013262977 -0.705790674820179
outer loop
vertex -0.63302 0.11162 -0.76604
vertex -0.75441 0.13302 -0.64279
vertex -0.60402 0.21985 -0.76604
endloop
endfacet
facet normal -0.6842819169415822 0.1833523263257961 -0.7057904664825617
outer loop
vertex -0.71985 0.262 -0.64279
vertex -0.60402 0.21985 -0.76604
vertex -0.75441 0.13302 -0.64279
endloop
endfacet
facet normal -0.7057593462310272 0.06170486540871241 -0.7057593462310263
outer loop
vertex -0.76604 0 -0.64279
vertex -0.75441 0.13302 -0.64279
vertex -0.64279 0 -0.76604
endloop
endfacet
facet normal -0.705718883893426 0.06177095050742356 -0.705794025612024
outer loop
vertex -0.63302 0.11162 -0.76604
vertex -0.64279 0 -0.76604
vertex -0.75441 0.13302 -0.64279
endloop
endfacet
facet normal -0.036966408434727295 0.4222925763556265 -0.90570550655407
outer loop
vertex -0.08682 0.4924 -0.86603
vertex 0 0.5 -0.86603
vertex -0.05939 0.33682 -0.93969
endloop
endfacet
facet normal -0.03697480830557446 0.4222949740900073 -0.9057040457064803
outer loop
vertex 0 0.34202 -0.93969
vertex -0.05939 0.33682 -0.93969
vertex 0 0.5 -0.86603
endloop
endfacet
facet normal -0.022659430975660613 0.25878100148342814 -0.9656702042929011
outer loop
vertex -0.03015 0.17101 -0.98481
vertex -0.05939 0.33682 -0.93969
vertex 0 0.17365 -0.98481
endloop
endfacet
facet normal -0.022658084241419487 0.2587814659804086 -0.9656701114166988
outer loop
vertex 0 0.34202 -0.93969
vertex 0 0.17365 -0.98481
vertex -0.05939 0.33682 -0.93969
endloop
endfacet
facet normal -0.5211946515905275 0.24307900955304382 -0.8180884611508341
outer loop
vertex -0.46985 0.17101 -0.86603
vertex -0.60402 0.21985 -0.76604
vertex -0.43301 0.25 -0.86603
endloop
endfacet
facet normal -0.5211945833061489 0.24304277643831207 -0.8180992697426678
outer loop
vertex -0.55667 0.32139 -0.76604
vertex -0.43301 0.25 -0.86603
vertex -0.60402 0.21985 -0.76604
endloop
endfacet
facet normal -0.471082018127859 0.32984465960428705 -0.8180979359020016
outer loop
vertex -0.55667 0.32139 -0.76604
vertex -0.4924 0.41318 -0.76604
vertex -0.43301 0.25 -0.86603
endloop
endfacet
facet normal -0.47106246458052164 0.32985589864659187 -0.8181046635922412
outer loop
vertex -0.38302 0.32139 -0.86603
vertex -0.43301 0.25 -0.86603
vertex -0.4924 0.41318 -0.76604
endloop
endfacet
facet normal -0.17912947006540522 0.38421457989813046 -0.9056996133088443
outer loop
vertex -0.17101 0.2962 -0.93969
vertex -0.25 0.43301 -0.86603
vertex -0.11698 0.32139 -0.93969
endloop
endfacet
facet normal -0.1791724291448591 0.38417020027558596 -0.9057099413468678
outer loop
vertex -0.17101 0.46985 -0.86603
vertex -0.11698 0.32139 -0.93969
vertex -0.25 0.43301 -0.86603
endloop
endfacet
facet normal -0.10967341669274416 0.4094636342067519 -0.9057103697833756
outer loop
vertex -0.17101 0.46985 -0.86603
vertex -0.08682 0.4924 -0.86603
vertex -0.11698 0.32139 -0.93969
endloop
endfacet
facet normal -0.10970792190648276 0.4094672211661977 -0.9057045691953824
outer loop
vertex -0.05939 0.33682 -0.93969
vertex -0.11698 0.32139 -0.93969
vertex -0.08682 0.4924 -0.86603
endloop
endfacet
facet normal -0.06719736865793566 0.25093883263829836 -0.9656677564874876
outer loop
vertex -0.05939 0.16318 -0.98481
vertex -0.11698 0.32139 -0.93969
vertex -0.03015 0.17101 -0.98481
endloop
endfacet
facet normal -0.06722895752894847 0.2509213003300149 -0.9656701136051924
outer loop
vertex -0.05939 0.33682 -0.93969
vertex -0.03015 0.17101 -0.98481
vertex -0.11698 0.32139 -0.93969
endloop
endfacet
facet normal -0.10976240032420237 0.2354292373766009 -0.965673490193938
outer loop
vertex -0.17101 0.2962 -0.93969
vertex -0.11698 0.32139 -0.93969
vertex -0.08682 0.15038 -0.98481
endloop
endfacet
facet normal -0.10985305328662649 0.23541166028530675 -0.9656674670326847
outer loop
vertex -0.05939 0.16318 -0.98481
vertex -0.08682 0.15038 -0.98481
vertex -0.11698 0.32139 -0.93969
endloop
endfacet
facet normal -0.38419082669893934 0.1791183957902324 -0.905711879666994
outer loop
vertex -0.32139 0.11698 -0.93969
vertex -0.46985 0.17101 -0.86603
vertex -0.2962 0.17101 -0.93969
endloop
endfacet
facet normal -0.3841864456544748 0.1791800057970734 -0.9057015515598624
outer loop
vertex -0.43301 0.25 -0.86603
vertex -0.2962 0.17101 -0.93969
vertex -0.46985 0.17101 -0.86603
endloop
endfacet
facet normal -0.34724801242785275 0.24315629837888117 -0.9057007410969621
outer loop
vertex -0.43301 0.25 -0.86603
vertex -0.38302 0.32139 -0.86603
vertex -0.2962 0.17101 -0.93969
endloop
endfacet
facet normal -0.34724610227623665 0.2431575900460147 -0.9057011266731291
outer loop
vertex -0.262 0.21985 -0.93969
vertex -0.2962 0.17101 -0.93969
vertex -0.38302 0.32139 -0.86603
endloop
endfacet
facet normal -0.21279904934083513 0.14895933453858512 -0.9656747284947755
outer loop
vertex -0.15038 0.08682 -0.98481
vertex -0.2962 0.17101 -0.93969
vertex -0.13302 0.11162 -0.98481
endloop
endfacet
facet normal -0.21278325066111586 0.14900055635974896 -0.9656718502900321
outer loop
vertex -0.262 0.21985 -0.93969
vertex -0.13302 0.11162 -0.98481
vertex -0.2962 0.17101 -0.93969
endloop
endfacet
facet normal -0.23544290116526456 0.10976877068948775 -0.9656694347820077
outer loop
vertex -0.32139 0.11698 -0.93969
vertex -0.2962 0.17101 -0.93969
vertex -0.16318 0.05939 -0.98481
endloop
endfacet
facet normal -0.2353847548142129 0.10984049805402454 -0.9656754538603002
outer loop
vertex -0.15038 0.08682 -0.98481
vertex -0.16318 0.05939 -0.98481
vertex -0.2962 0.17101 -0.93969
endloop
endfacet
endsolid JSxCAD
