solid JSxCAD
facet normal 0 -1 0
outer loop
vertex -2.37541 -15 -15
vertex 15 -15 -15
vertex 15 -15 15
endloop
endfacet
facet normal 0 -1 0
outer loop
vertex -2.37541 -15 -15
vertex 15 -15 15
vertex -15 -15 -15
endloop
endfacet
facet normal 0 -1 0
outer loop
vertex -15 -15 15
vertex -15 -15 -15
vertex 15 -15 15
endloop
endfacet
facet normal 0 1 0
outer loop
vertex -15 15 -15
vertex -15 15 15
vertex 15 15 -15
endloop
endfacet
facet normal 0 0 -1
outer loop
vertex -13.65964 15 15
vertex -3.52299 15 15
vertex 2.37541 15 15
endloop
endfacet
facet normal 0 0 1
outer loop
vertex -13.65964 15 15
vertex 2.37541 15 15
vertex 15 15 15
endloop
endfacet
facet normal 0 1 0
outer loop
vertex -13.65964 15 15
vertex 15 15 15
vertex 15 15 -15
endloop
endfacet
facet normal 0 1 0
outer loop
vertex -13.65964 15 15
vertex 15 15 -15
vertex -15 15 15
endloop
endfacet
facet normal 1 0 0
outer loop
vertex 15 -15 -15
vertex 15 15 -15
vertex 15 -15 15
endloop
endfacet
facet normal 1 0 0
outer loop
vertex 15 15 15
vertex 15 -15 15
vertex 15 15 -15
endloop
endfacet
facet normal -2.108893593201291e-14 0 1
outer loop
vertex -4.90395 0.97545 15
vertex -4.6194 1.9134 15
vertex -3.52299 15 15
endloop
endfacet
facet normal 0 0 1
outer loop
vertex -4.15735 2.77785 15
vertex 2.37541 15 15
vertex -3.52299 15 15
endloop
endfacet
facet normal 1.1148234337774364e-14 0 1
outer loop
vertex -4.15735 2.77785 15
vertex -3.52299 15 15
vertex -4.6194 1.9134 15
endloop
endfacet
facet normal -1.5503095311135912e-14 0 1
outer loop
vertex -4.6194 -1.9134 15
vertex -4.90395 -0.97545 15
vertex -13.65964 15 15
endloop
endfacet
facet normal 0 0 1
outer loop
vertex -4.90395 0.97545 15
vertex -3.52299 15 15
vertex -13.65964 15 15
endloop
endfacet
facet normal 0 0 1
outer loop
vertex -4.90395 0.97545 15
vertex -13.65964 15 15
vertex -5 0 15
endloop
endfacet
facet normal 0 0 1
outer loop
vertex -4.90395 -0.97545 15
vertex -5 0 15
vertex -13.65964 15 15
endloop
endfacet
facet normal 0 0 1
outer loop
vertex -4.6194 -1.9134 15
vertex -13.65964 15 15
vertex -15 15 15
endloop
endfacet
facet normal 0 0 1
outer loop
vertex -4.6194 -1.9134 15
vertex -15 15 15
vertex -4.15735 -2.77785 15
endloop
endfacet
facet normal 0 0 1
outer loop
vertex 15 15 15
vertex 2.37541 15 15
vertex 15 -15 15
endloop
endfacet
facet normal 0 0 0.9999999999999999
outer loop
vertex -4.15735 2.77785 15
vertex -3.53555 3.53555 15
vertex 2.37541 15 15
endloop
endfacet
facet normal 0 0 1
outer loop
vertex -15 15 15
vertex -15 -15 15
vertex -4.15735 -2.77785 15
endloop
endfacet
facet normal 0 0 1
outer loop
vertex -3.53555 3.53555 15
vertex -2.77785 4.15735 15
vertex 2.37541 15 15
endloop
endfacet
facet normal 0 0 0.9999999999999999
outer loop
vertex -4.15735 -2.77785 15
vertex -15 -15 15
vertex -3.53555 -3.53555 15
endloop
endfacet
facet normal 0 0 1
outer loop
vertex -2.77785 4.15735 15
vertex -1.9134 4.6194 15
vertex 2.37541 15 15
endloop
endfacet
facet normal 0 0 0.9999999999999999
outer loop
vertex -3.53555 -3.53555 15
vertex -15 -15 15
vertex -2.77785 -4.15735 15
endloop
endfacet
facet normal 0 0 1
outer loop
vertex -1.9134 4.6194 15
vertex -0.97545 4.90395 15
vertex 2.37541 15 15
endloop
endfacet
facet normal 0 0 1
outer loop
vertex -2.77785 -4.15735 15
vertex -15 -15 15
vertex -1.9134 -4.6194 15
endloop
endfacet
facet normal 0 0 1
outer loop
vertex -0.97545 4.90395 15
vertex 0 5 15
vertex 2.37541 15 15
endloop
endfacet
facet normal 0 0 0.9999999999999999
outer loop
vertex -1.9134 -4.6194 15
vertex -15 -15 15
vertex -0.97545 -4.90395 15
endloop
endfacet
facet normal 0 0 1
outer loop
vertex 0 5 15
vertex 0.97545 4.90395 15
vertex 2.37541 15 15
endloop
endfacet
facet normal 0 0 1
outer loop
vertex -0.97545 -4.90395 15
vertex -15 -15 15
vertex 0 -5 15
endloop
endfacet
facet normal 0 0 1
outer loop
vertex 0.97545 4.90395 15
vertex 1.9134 4.6194 15
vertex 2.37541 15 15
endloop
endfacet
facet normal 0 0 1
outer loop
vertex 0 -5 15
vertex -15 -15 15
vertex 0.97545 -4.90395 15
endloop
endfacet
facet normal 0 0 1
outer loop
vertex 1.9134 4.6194 15
vertex 2.77785 4.15735 15
vertex 2.37541 15 15
endloop
endfacet
facet normal 0 0 1
outer loop
vertex 0.97545 -4.90395 15
vertex -15 -15 15
vertex 1.9134 -4.6194 15
endloop
endfacet
facet normal 0 0 0.9999999999999999
outer loop
vertex 2.77785 4.15735 15
vertex 3.53555 3.53555 15
vertex 2.37541 15 15
endloop
endfacet
facet normal 0 0 0.9999999999999999
outer loop
vertex 1.9134 -4.6194 15
vertex -15 -15 15
vertex 2.77785 -4.15735 15
endloop
endfacet
facet normal 0 0 1
outer loop
vertex 3.53555 3.53555 15
vertex 4.15735 2.77785 15
vertex 2.37541 15 15
endloop
endfacet
facet normal 0 0 1
outer loop
vertex -15 -15 15
vertex 15 -15 15
vertex 2.77785 -4.15735 15
endloop
endfacet
facet normal 0 0 1
outer loop
vertex 2.37541 15 15
vertex 4.15735 2.77785 15
vertex 15 -15 15
endloop
endfacet
facet normal 0 0 0.9999999999999999
outer loop
vertex 2.77785 -4.15735 15
vertex 15 -15 15
vertex 3.53555 -3.53555 15
endloop
endfacet
facet normal -4.9059060709099116e-14 0 1
outer loop
vertex 4.15735 2.77785 15
vertex 4.6194 1.9134 15
vertex 15 -15 15
endloop
endfacet
facet normal 0 0 0.9999999999999999
outer loop
vertex 3.53555 -3.53555 15
vertex 15 -15 15
vertex 4.15735 -2.77785 15
endloop
endfacet
facet normal 1.1544680580461882e-14 0 1
outer loop
vertex 4.6194 1.9134 15
vertex 4.90395 0.97545 15
vertex 15 -15 15
endloop
endfacet
facet normal -3.784471597225535e-15 0 1
outer loop
vertex 4.15735 -2.77785 15
vertex 15 -15 15
vertex 4.6194 -1.9134 15
endloop
endfacet
facet normal 0 0 1
outer loop
vertex 4.90395 0.97545 15
vertex 5 0 15
vertex 15 -15 15
endloop
endfacet
facet normal 4.22305008496244e-15 0 1
outer loop
vertex 4.6194 -1.9134 15
vertex 15 -15 15
vertex 4.90395 -0.97545 15
endloop
endfacet
facet normal 0 0 1
outer loop
vertex 5 0 15
vertex 4.90395 -0.97545 15
vertex 15 -15 15
endloop
endfacet
facet normal 0 0 -0.9999999999999999
outer loop
vertex 4.15735 -2.77785 -15
vertex -2.37541 -15 -15
vertex 3.53555 -3.53555 -15
endloop
endfacet
facet normal 0 0 -1
outer loop
vertex -15 -15 -15
vertex -15 15 -15
vertex -2.37541 -15 -15
endloop
endfacet
facet normal 0 0 -1
outer loop
vertex 15 -15 -15
vertex -2.37541 -15 -15
vertex 15 15 -15
endloop
endfacet
facet normal 0 0 -1
outer loop
vertex 3.53555 -3.53555 -15
vertex -2.37541 -15 -15
vertex 2.77785 -4.15735 -15
endloop
endfacet
facet normal -0.0000015325443899287635 0 -0.9999999999988256
outer loop
vertex -2.37541 -15 -15
vertex 4.15735 -2.77785 -15
vertex 4.6194 -1.9134 -15
endloop
endfacet
facet normal 0 0 -1
outer loop
vertex -2.37541 -15 -15
vertex 4.6194 -1.9134 -15
vertex 15 15 -15
endloop
endfacet
facet normal 0 0 -1
outer loop
vertex 2.77785 -4.15735 -15
vertex -2.37541 -15 -15
vertex 1.9134 -4.6194 -15
endloop
endfacet
facet normal 1.1544680580461882e-14 0 -1
outer loop
vertex 4.6194 -1.9134 -15
vertex 4.90395 -0.97545 -15
vertex 15 15 -15
endloop
endfacet
facet normal 0 0 -1
outer loop
vertex 1.9134 -4.6194 -15
vertex -2.37541 -15 -15
vertex 0.97545 -4.90395 -15
endloop
endfacet
facet normal 0 0 -1
outer loop
vertex 4.90395 -0.97545 -15
vertex 5 0 -15
vertex 15 15 -15
endloop
endfacet
facet normal 0 0 -1
outer loop
vertex 0.97545 -4.90395 -15
vertex -2.37541 -15 -15
vertex 0 -5 -15
endloop
endfacet
facet normal 0 0 -1
outer loop
vertex 5 0 -15
vertex 4.90395 0.97545 -15
vertex 15 15 -15
endloop
endfacet
facet normal 0 0 -1
outer loop
vertex 0 -5 -15
vertex -2.37541 -15 -15
vertex -0.97545 -4.90395 -15
endloop
endfacet
facet normal 4.22305008496244e-15 0 -1
outer loop
vertex 4.90395 0.97545 -15
vertex 4.6194 1.9134 -15
vertex 15 15 -15
endloop
endfacet
facet normal 0 0 -1
outer loop
vertex -0.97545 -4.90395 -15
vertex -2.37541 -15 -15
vertex -1.9134 -4.6194 -15
endloop
endfacet
facet normal -3.784471597225535e-15 0 -1
outer loop
vertex 4.6194 1.9134 -15
vertex 4.15735 2.77785 -15
vertex 15 15 -15
endloop
endfacet
facet normal 0 0 -1
outer loop
vertex -1.9134 -4.6194 -15
vertex -2.37541 -15 -15
vertex -2.77785 -4.15735 -15
endloop
endfacet
facet normal 0 0 -0.9999999999999999
outer loop
vertex 4.15735 2.77785 -15
vertex 3.53555 3.53555 -15
vertex 15 15 -15
endloop
endfacet
facet normal 0 0 -0.9999999999999999
outer loop
vertex -2.77785 -4.15735 -15
vertex -2.37541 -15 -15
vertex -3.53555 -3.53555 -15
endloop
endfacet
facet normal 0 0 -0.9999999999999999
outer loop
vertex 3.53555 3.53555 -15
vertex 2.77785 4.15735 -15
vertex 15 15 -15
endloop
endfacet
facet normal 0 0 -1
outer loop
vertex -3.53555 -3.53555 -15
vertex -2.37541 -15 -15
vertex -4.15735 -2.77785 -15
endloop
endfacet
facet normal 0 0 -1
outer loop
vertex 15 15 -15
vertex 2.77785 4.15735 -15
vertex -15 15 -15
endloop
endfacet
facet normal 1.3841135917271475e-14 0 -1
outer loop
vertex -4.15735 -2.77785 -15
vertex -2.37541 -15 -15
vertex -4.6194 -1.9134 -15
endloop
endfacet
facet normal 0 0 -0.9999999999999999
outer loop
vertex 2.77785 4.15735 -15
vertex 1.9134 4.6194 -15
vertex -15 15 -15
endloop
endfacet
facet normal -3.510930079083181e-14 0 -1
outer loop
vertex -4.6194 -1.9134 -15
vertex -2.37541 -15 -15
vertex -4.90395 -0.97545 -15
endloop
endfacet
facet normal 0 0 -1
outer loop
vertex 1.9134 4.6194 -15
vertex 0.97545 4.90395 -15
vertex -15 15 -15
endloop
endfacet
facet normal 0 0 -1
outer loop
vertex -2.37541 -15 -15
vertex -15 15 -15
vertex -4.90395 -0.97545 -15
endloop
endfacet
facet normal 0 0 -1
outer loop
vertex 0.97545 4.90395 -15
vertex 0 5 -15
vertex -15 15 -15
endloop
endfacet
facet normal 0 0 -1
outer loop
vertex -4.90395 -0.97545 -15
vertex -15 15 -15
vertex -5 0 -15
endloop
endfacet
facet normal 0 0 -1
outer loop
vertex 0 5 -15
vertex -0.97545 4.90395 -15
vertex -15 15 -15
endloop
endfacet
facet normal 0 0 -1
outer loop
vertex -5 0 -15
vertex -15 15 -15
vertex -4.90395 0.97545 -15
endloop
endfacet
facet normal 0 0 -0.9999999999999999
outer loop
vertex -0.97545 4.90395 -15
vertex -1.9134 4.6194 -15
vertex -15 15 -15
endloop
endfacet
facet normal -4.22305008496244e-15 0 -1
outer loop
vertex -4.90395 0.97545 -15
vertex -15 15 -15
vertex -4.6194 1.9134 -15
endloop
endfacet
facet normal 0 0 -1
outer loop
vertex -1.9134 4.6194 -15
vertex -2.77785 4.15735 -15
vertex -15 15 -15
endloop
endfacet
facet normal 3.784471597225535e-15 0 -1
outer loop
vertex -4.6194 1.9134 -15
vertex -15 15 -15
vertex -4.15735 2.77785 -15
endloop
endfacet
facet normal 0 0 -0.9999999999999999
outer loop
vertex -2.77785 4.15735 -15
vertex -3.53555 3.53555 -15
vertex -15 15 -15
endloop
endfacet
facet normal 0 0 -0.9999999999999999
outer loop
vertex -4.15735 2.77785 -15
vertex -15 15 -15
vertex -3.53555 3.53555 -15
endloop
endfacet
facet normal -1 0 0
outer loop
vertex -15 -15 -15
vertex -15 -15 15
vertex -15 15 -15
endloop
endfacet
facet normal -1 0 0
outer loop
vertex -15 15 15
vertex -15 15 -15
vertex -15 -15 15
endloop
endfacet
facet normal -0.9569329730421394 0.29030894768286397 0
outer loop
vertex 4.6194 -1.9134 -15
vertex 4.6194 -1.9134 15
vertex 4.90395 -0.97545 -15
endloop
endfacet
facet normal -0.95693297304214 0.29030894768286225 0
outer loop
vertex 4.90395 -0.97545 15
vertex 4.90395 -0.97545 -15
vertex 4.6194 -1.9134 15
endloop
endfacet
facet normal -0.8819247216806334 0.47139026855519334 0
outer loop
vertex 4.15735 -2.77785 -15
vertex 4.15735 -2.77785 15
vertex 4.6194 -1.9134 -15
endloop
endfacet
facet normal -0.8819247216806337 0.47139026855519256 0
outer loop
vertex 4.6194 -1.9134 15
vertex 4.6194 -1.9134 -15
vertex 4.15735 -2.77785 15
endloop
endfacet
facet normal -0.7730246218806185 0.6343760193815077 0
outer loop
vertex 3.53555 -3.53555 -15
vertex 3.53555 -3.53555 15
vertex 4.15735 -2.77785 -15
endloop
endfacet
facet normal -0.7730246218806185 0.6343760193815077 0
outer loop
vertex 4.15735 -2.77785 15
vertex 4.15735 -2.77785 -15
vertex 3.53555 -3.53555 15
endloop
endfacet
facet normal -0.6343760193815079 0.7730246218806184 0
outer loop
vertex 2.77785 -4.15735 -15
vertex 2.77785 -4.15735 15
vertex 3.53555 -3.53555 -15
endloop
endfacet
facet normal -0.6343760193815073 0.7730246218806187 0
outer loop
vertex 3.53555 -3.53555 15
vertex 3.53555 -3.53555 -15
vertex 2.77785 -4.15735 15
endloop
endfacet
facet normal -0.4713902685551927 0.8819247216806337 0
outer loop
vertex 1.9134 -4.6194 -15
vertex 1.9134 -4.6194 15
vertex 2.77785 -4.15735 -15
endloop
endfacet
facet normal -0.4713902685551931 0.8819247216806335 0
outer loop
vertex 2.77785 -4.15735 15
vertex 2.77785 -4.15735 -15
vertex 1.9134 -4.6194 15
endloop
endfacet
facet normal -0.2903089476828628 0.95693297304214 0
outer loop
vertex 0.97545 -4.90395 -15
vertex 0.97545 -4.90395 15
vertex 1.9134 -4.6194 -15
endloop
endfacet
facet normal -0.2903089476828629 0.9569329730421399 0
outer loop
vertex 1.9134 -4.6194 15
vertex 1.9134 -4.6194 -15
vertex 0.97545 -4.90395 15
endloop
endfacet
facet normal -0.09799345637611785 0.9951870590534534 0
outer loop
vertex 0 -5 -15
vertex 0 -5 15
vertex 0.97545 -4.90395 -15
endloop
endfacet
facet normal -0.09799345637611785 0.9951870590534534 0
outer loop
vertex 0.97545 -4.90395 15
vertex 0.97545 -4.90395 -15
vertex 0 -5 15
endloop
endfacet
facet normal 0.09799345637611785 0.9951870590534534 0
outer loop
vertex -0.97545 -4.90395 -15
vertex -0.97545 -4.90395 15
vertex 0 -5 -15
endloop
endfacet
facet normal 0.09799345637611785 0.9951870590534534 0
outer loop
vertex 0 -5 15
vertex 0 -5 -15
vertex -0.97545 -4.90395 15
endloop
endfacet
facet normal 0.2903089476828629 0.9569329730421399 0
outer loop
vertex -1.9134 -4.6194 -15
vertex -1.9134 -4.6194 15
vertex -0.97545 -4.90395 -15
endloop
endfacet
facet normal 0.2903089476828628 0.95693297304214 0
outer loop
vertex -0.97545 -4.90395 15
vertex -0.97545 -4.90395 -15
vertex -1.9134 -4.6194 15
endloop
endfacet
facet normal 0.4713902685551931 0.8819247216806335 0
outer loop
vertex -2.77785 -4.15735 -15
vertex -2.77785 -4.15735 15
vertex -1.9134 -4.6194 -15
endloop
endfacet
facet normal 0.4713902685551927 0.8819247216806337 0
outer loop
vertex -1.9134 -4.6194 15
vertex -1.9134 -4.6194 -15
vertex -2.77785 -4.15735 15
endloop
endfacet
facet normal 0.6343760193815073 0.7730246218806187 0
outer loop
vertex -3.53555 -3.53555 -15
vertex -3.53555 -3.53555 15
vertex -2.77785 -4.15735 -15
endloop
endfacet
facet normal 0.6343760193815079 0.7730246218806184 0
outer loop
vertex -2.77785 -4.15735 15
vertex -2.77785 -4.15735 -15
vertex -3.53555 -3.53555 15
endloop
endfacet
facet normal 0.7730246218806185 0.6343760193815077 0
outer loop
vertex -4.15735 -2.77785 -15
vertex -4.15735 -2.77785 15
vertex -3.53555 -3.53555 -15
endloop
endfacet
facet normal 0.7730246218806185 0.6343760193815077 0
outer loop
vertex -3.53555 -3.53555 15
vertex -3.53555 -3.53555 -15
vertex -4.15735 -2.77785 15
endloop
endfacet
facet normal 0.8819247216806337 0.47139026855519256 0
outer loop
vertex -4.6194 -1.9134 -15
vertex -4.6194 -1.9134 15
vertex -4.15735 -2.77785 -15
endloop
endfacet
facet normal 0.8819247216806334 0.47139026855519334 0
outer loop
vertex -4.15735 -2.77785 15
vertex -4.15735 -2.77785 -15
vertex -4.6194 -1.9134 15
endloop
endfacet
facet normal 0.95693297304214 0.29030894768286225 0
outer loop
vertex -4.90395 -0.97545 -15
vertex -4.90395 -0.97545 15
vertex -4.6194 -1.9134 -15
endloop
endfacet
facet normal 0.9569329730421394 0.29030894768286397 0
outer loop
vertex -4.6194 -1.9134 15
vertex -4.6194 -1.9134 -15
vertex -4.90395 -0.97545 15
endloop
endfacet
facet normal 0.9951870590534534 0.09799345637611846 0
outer loop
vertex -5 0 -15
vertex -5 0 15
vertex -4.90395 -0.97545 -15
endloop
endfacet
facet normal 0.9951870590534536 0.09799345637611655 0
outer loop
vertex -4.90395 -0.97545 15
vertex -4.90395 -0.97545 -15
vertex -5 0 15
endloop
endfacet
facet normal 0.9951870590534536 -0.09799345637611655 0
outer loop
vertex -4.90395 0.97545 -15
vertex -4.90395 0.97545 15
vertex -5 0 -15
endloop
endfacet
facet normal 0.9951870590534534 -0.09799345637611846 0
outer loop
vertex -5 0 15
vertex -5 0 -15
vertex -4.90395 0.97545 15
endloop
endfacet
facet normal 0.9569329730421394 -0.29030894768286397 0
outer loop
vertex -4.6194 1.9134 -15
vertex -4.6194 1.9134 15
vertex -4.90395 0.97545 -15
endloop
endfacet
facet normal 0.95693297304214 -0.29030894768286225 0
outer loop
vertex -4.90395 0.97545 15
vertex -4.90395 0.97545 -15
vertex -4.6194 1.9134 15
endloop
endfacet
facet normal 0.8819247216806334 -0.47139026855519334 0
outer loop
vertex -4.15735 2.77785 -15
vertex -4.15735 2.77785 15
vertex -4.6194 1.9134 -15
endloop
endfacet
facet normal 0.8819247216806337 -0.47139026855519256 0
outer loop
vertex -4.6194 1.9134 15
vertex -4.6194 1.9134 -15
vertex -4.15735 2.77785 15
endloop
endfacet
facet normal 0.7730246218806185 -0.6343760193815077 0
outer loop
vertex -3.53555 3.53555 -15
vertex -3.53555 3.53555 15
vertex -4.15735 2.77785 -15
endloop
endfacet
facet normal 0.7730246218806185 -0.6343760193815077 0
outer loop
vertex -4.15735 2.77785 15
vertex -4.15735 2.77785 -15
vertex -3.53555 3.53555 15
endloop
endfacet
facet normal 0.6343760193815079 -0.7730246218806184 0
outer loop
vertex -2.77785 4.15735 -15
vertex -2.77785 4.15735 15
vertex -3.53555 3.53555 -15
endloop
endfacet
facet normal 0.6343760193815073 -0.7730246218806187 0
outer loop
vertex -3.53555 3.53555 15
vertex -3.53555 3.53555 -15
vertex -2.77785 4.15735 15
endloop
endfacet
facet normal 0.4713902685551927 -0.8819247216806337 0
outer loop
vertex -1.9134 4.6194 -15
vertex -1.9134 4.6194 15
vertex -2.77785 4.15735 -15
endloop
endfacet
facet normal 0.4713902685551931 -0.8819247216806335 0
outer loop
vertex -2.77785 4.15735 15
vertex -2.77785 4.15735 -15
vertex -1.9134 4.6194 15
endloop
endfacet
facet normal 0.2903089476828628 -0.95693297304214 0
outer loop
vertex -0.97545 4.90395 -15
vertex -0.97545 4.90395 15
vertex -1.9134 4.6194 -15
endloop
endfacet
facet normal 0.2903089476828629 -0.9569329730421399 0
outer loop
vertex -1.9134 4.6194 15
vertex -1.9134 4.6194 -15
vertex -0.97545 4.90395 15
endloop
endfacet
facet normal 0.09799345637611785 -0.9951870590534534 0
outer loop
vertex 0 5 -15
vertex 0 5 15
vertex -0.97545 4.90395 -15
endloop
endfacet
facet normal 0.09799345637611785 -0.9951870590534534 0
outer loop
vertex -0.97545 4.90395 15
vertex -0.97545 4.90395 -15
vertex 0 5 15
endloop
endfacet
facet normal -0.09799345637611785 -0.9951870590534534 0
outer loop
vertex 0.97545 4.90395 -15
vertex 0.97545 4.90395 15
vertex 0 5 -15
endloop
endfacet
facet normal -0.09799345637611785 -0.9951870590534534 0
outer loop
vertex 0 5 15
vertex 0 5 -15
vertex 0.97545 4.90395 15
endloop
endfacet
facet normal -0.2903089476828629 -0.9569329730421399 0
outer loop
vertex 1.9134 4.6194 -15
vertex 1.9134 4.6194 15
vertex 0.97545 4.90395 -15
endloop
endfacet
facet normal -0.2903089476828628 -0.95693297304214 0
outer loop
vertex 0.97545 4.90395 15
vertex 0.97545 4.90395 -15
vertex 1.9134 4.6194 15
endloop
endfacet
facet normal -0.4713902685551931 -0.8819247216806335 0
outer loop
vertex 2.77785 4.15735 -15
vertex 2.77785 4.15735 15
vertex 1.9134 4.6194 -15
endloop
endfacet
facet normal -0.4713902685551927 -0.8819247216806337 0
outer loop
vertex 1.9134 4.6194 15
vertex 1.9134 4.6194 -15
vertex 2.77785 4.15735 15
endloop
endfacet
facet normal -0.6343760193815073 -0.7730246218806187 0
outer loop
vertex 3.53555 3.53555 -15
vertex 3.53555 3.53555 15
vertex 2.77785 4.15735 -15
endloop
endfacet
facet normal -0.6343760193815079 -0.7730246218806184 0
outer loop
vertex 2.77785 4.15735 15
vertex 2.77785 4.15735 -15
vertex 3.53555 3.53555 15
endloop
endfacet
facet normal -0.7730246218806185 -0.6343760193815077 0
outer loop
vertex 4.15735 2.77785 -15
vertex 4.15735 2.77785 15
vertex 3.53555 3.53555 -15
endloop
endfacet
facet normal -0.7730246218806185 -0.6343760193815077 0
outer loop
vertex 3.53555 3.53555 15
vertex 3.53555 3.53555 -15
vertex 4.15735 2.77785 15
endloop
endfacet
facet normal -0.8819247216806337 -0.47139026855519256 0
outer loop
vertex 4.6194 1.9134 -15
vertex 4.6194 1.9134 15
vertex 4.15735 2.77785 -15
endloop
endfacet
facet normal -0.8819247216806334 -0.47139026855519334 0
outer loop
vertex 4.15735 2.77785 15
vertex 4.15735 2.77785 -15
vertex 4.6194 1.9134 15
endloop
endfacet
facet normal -0.95693297304214 -0.29030894768286225 0
outer loop
vertex 4.90395 0.97545 -15
vertex 4.90395 0.97545 15
vertex 4.6194 1.9134 -15
endloop
endfacet
facet normal -0.9569329730421394 -0.29030894768286397 0
outer loop
vertex 4.6194 1.9134 15
vertex 4.6194 1.9134 -15
vertex 4.90395 0.97545 15
endloop
endfacet
facet normal -0.9951870590534534 -0.09799345637611846 0
outer loop
vertex 5 0 -15
vertex 5 0 15
vertex 4.90395 0.97545 -15
endloop
endfacet
facet normal -0.9951870590534536 -0.09799345637611655 0
outer loop
vertex 4.90395 0.97545 15
vertex 4.90395 0.97545 -15
vertex 5 0 15
endloop
endfacet
facet normal -0.9951870590534536 0.09799345637611655 0
outer loop
vertex 4.90395 -0.97545 -15
vertex 4.90395 -0.97545 15
vertex 5 0 -15
endloop
endfacet
facet normal -0.9951870590534534 0.09799345637611846 0
outer loop
vertex 5 0 15
vertex 5 0 -15
vertex 4.90395 -0.97545 15
endloop
endfacet
facet normal 0.95693297304214 -0.29030894768286225 0
outer loop
vertex 4.90395 -0.97545 15
vertex 4.6194 -1.9134 15
vertex 4.90395 -0.97545 -15
endloop
endfacet
facet normal 0.9569329730421394 -0.29030894768286397 0
outer loop
vertex 4.6194 -1.9134 15
vertex 4.6194 -1.9134 -15
vertex 4.90395 -0.97545 -15
endloop
endfacet
facet normal 0.8819247216806337 -0.47139026855519256 0
outer loop
vertex 4.6194 -1.9134 15
vertex 4.15735 -2.77785 15
vertex 4.6194 -1.9134 -15
endloop
endfacet
facet normal 0.8819247216806334 -0.47139026855519334 0
outer loop
vertex 4.15735 -2.77785 15
vertex 4.15735 -2.77785 -15
vertex 4.6194 -1.9134 -15
endloop
endfacet
facet normal 0.7730246218806185 -0.6343760193815077 0
outer loop
vertex 4.15735 -2.77785 15
vertex 3.53555 -3.53555 15
vertex 4.15735 -2.77785 -15
endloop
endfacet
facet normal 0.7730246218806185 -0.6343760193815077 0
outer loop
vertex 3.53555 -3.53555 15
vertex 3.53555 -3.53555 -15
vertex 4.15735 -2.77785 -15
endloop
endfacet
facet normal 0.6343760193815073 -0.7730246218806187 0
outer loop
vertex 3.53555 -3.53555 15
vertex 2.77785 -4.15735 15
vertex 3.53555 -3.53555 -15
endloop
endfacet
facet normal 0.6343760193815079 -0.7730246218806184 0
outer loop
vertex 2.77785 -4.15735 15
vertex 2.77785 -4.15735 -15
vertex 3.53555 -3.53555 -15
endloop
endfacet
facet normal 0.4713902685551931 -0.8819247216806335 0
outer loop
vertex 2.77785 -4.15735 15
vertex 1.9134 -4.6194 15
vertex 2.77785 -4.15735 -15
endloop
endfacet
facet normal 0.4713902685551927 -0.8819247216806337 0
outer loop
vertex 1.9134 -4.6194 15
vertex 1.9134 -4.6194 -15
vertex 2.77785 -4.15735 -15
endloop
endfacet
facet normal 0.2903089476828629 -0.9569329730421399 0
outer loop
vertex 1.9134 -4.6194 15
vertex 0.97545 -4.90395 15
vertex 1.9134 -4.6194 -15
endloop
endfacet
facet normal 0.2903089476828628 -0.95693297304214 0
outer loop
vertex 0.97545 -4.90395 15
vertex 0.97545 -4.90395 -15
vertex 1.9134 -4.6194 -15
endloop
endfacet
facet normal 0.09799345637611785 -0.9951870590534534 0
outer loop
vertex 0.97545 -4.90395 15
vertex 0 -5 15
vertex 0.97545 -4.90395 -15
endloop
endfacet
facet normal 0.09799345637611785 -0.9951870590534534 0
outer loop
vertex 0 -5 15
vertex 0 -5 -15
vertex 0.97545 -4.90395 -15
endloop
endfacet
facet normal -0.09799345637611785 -0.9951870590534534 0
outer loop
vertex 0 -5 15
vertex -0.97545 -4.90395 15
vertex 0 -5 -15
endloop
endfacet
facet normal -0.09799345637611785 -0.9951870590534534 0
outer loop
vertex -0.97545 -4.90395 15
vertex -0.97545 -4.90395 -15
vertex 0 -5 -15
endloop
endfacet
facet normal -0.2903089476828628 -0.95693297304214 0
outer loop
vertex -0.97545 -4.90395 15
vertex -1.9134 -4.6194 15
vertex -0.97545 -4.90395 -15
endloop
endfacet
facet normal -0.2903089476828629 -0.9569329730421399 0
outer loop
vertex -1.9134 -4.6194 15
vertex -1.9134 -4.6194 -15
vertex -0.97545 -4.90395 -15
endloop
endfacet
facet normal -0.4713902685551927 -0.8819247216806337 0
outer loop
vertex -1.9134 -4.6194 15
vertex -2.77785 -4.15735 15
vertex -1.9134 -4.6194 -15
endloop
endfacet
facet normal -0.4713902685551931 -0.8819247216806335 0
outer loop
vertex -2.77785 -4.15735 15
vertex -2.77785 -4.15735 -15
vertex -1.9134 -4.6194 -15
endloop
endfacet
facet normal -0.6343760193815079 -0.7730246218806184 0
outer loop
vertex -2.77785 -4.15735 15
vertex -3.53555 -3.53555 15
vertex -2.77785 -4.15735 -15
endloop
endfacet
facet normal -0.6343760193815073 -0.7730246218806187 0
outer loop
vertex -3.53555 -3.53555 15
vertex -3.53555 -3.53555 -15
vertex -2.77785 -4.15735 -15
endloop
endfacet
facet normal -0.7730246218806185 -0.6343760193815077 0
outer loop
vertex -3.53555 -3.53555 15
vertex -4.15735 -2.77785 15
vertex -3.53555 -3.53555 -15
endloop
endfacet
facet normal -0.7730246218806185 -0.6343760193815077 0
outer loop
vertex -4.15735 -2.77785 15
vertex -4.15735 -2.77785 -15
vertex -3.53555 -3.53555 -15
endloop
endfacet
facet normal -0.8819247216806334 -0.47139026855519334 0
outer loop
vertex -4.15735 -2.77785 15
vertex -4.6194 -1.9134 15
vertex -4.15735 -2.77785 -15
endloop
endfacet
facet normal -0.8819247216806337 -0.47139026855519256 0
outer loop
vertex -4.6194 -1.9134 15
vertex -4.6194 -1.9134 -15
vertex -4.15735 -2.77785 -15
endloop
endfacet
facet normal -0.9569329730421394 -0.29030894768286397 0
outer loop
vertex -4.6194 -1.9134 15
vertex -4.90395 -0.97545 15
vertex -4.6194 -1.9134 -15
endloop
endfacet
facet normal -0.95693297304214 -0.29030894768286225 0
outer loop
vertex -4.90395 -0.97545 15
vertex -4.90395 -0.97545 -15
vertex -4.6194 -1.9134 -15
endloop
endfacet
facet normal -0.9951870590534536 -0.09799345637611655 0
outer loop
vertex -4.90395 -0.97545 15
vertex -5 0 15
vertex -4.90395 -0.97545 -15
endloop
endfacet
facet normal -0.9951870590534534 -0.09799345637611846 0
outer loop
vertex -5 0 15
vertex -5 0 -15
vertex -4.90395 -0.97545 -15
endloop
endfacet
facet normal -0.9951870590534534 0.09799345637611846 0
outer loop
vertex -5 0 15
vertex -4.90395 0.97545 15
vertex -5 0 -15
endloop
endfacet
facet normal -0.9951870590534536 0.09799345637611655 0
outer loop
vertex -4.90395 0.97545 15
vertex -4.90395 0.97545 -15
vertex -5 0 -15
endloop
endfacet
facet normal -0.95693297304214 0.29030894768286225 0
outer loop
vertex -4.90395 0.97545 15
vertex -4.6194 1.9134 15
vertex -4.90395 0.97545 -15
endloop
endfacet
facet normal -0.9569329730421394 0.29030894768286397 0
outer loop
vertex -4.6194 1.9134 15
vertex -4.6194 1.9134 -15
vertex -4.90395 0.97545 -15
endloop
endfacet
facet normal -0.8819247216806337 0.47139026855519256 0
outer loop
vertex -4.6194 1.9134 15
vertex -4.15735 2.77785 15
vertex -4.6194 1.9134 -15
endloop
endfacet
facet normal -0.8819247216806334 0.47139026855519334 0
outer loop
vertex -4.15735 2.77785 15
vertex -4.15735 2.77785 -15
vertex -4.6194 1.9134 -15
endloop
endfacet
facet normal -0.7730246218806185 0.6343760193815077 0
outer loop
vertex -4.15735 2.77785 15
vertex -3.53555 3.53555 15
vertex -4.15735 2.77785 -15
endloop
endfacet
facet normal -0.7730246218806185 0.6343760193815077 0
outer loop
vertex -3.53555 3.53555 15
vertex -3.53555 3.53555 -15
vertex -4.15735 2.77785 -15
endloop
endfacet
facet normal -0.6343760193815073 0.7730246218806187 0
outer loop
vertex -3.53555 3.53555 15
vertex -2.77785 4.15735 15
vertex -3.53555 3.53555 -15
endloop
endfacet
facet normal -0.6343760193815079 0.7730246218806184 0
outer loop
vertex -2.77785 4.15735 15
vertex -2.77785 4.15735 -15
vertex -3.53555 3.53555 -15
endloop
endfacet
facet normal -0.4713902685551931 0.8819247216806335 0
outer loop
vertex -2.77785 4.15735 15
vertex -1.9134 4.6194 15
vertex -2.77785 4.15735 -15
endloop
endfacet
facet normal -0.4713902685551927 0.8819247216806337 0
outer loop
vertex -1.9134 4.6194 15
vertex -1.9134 4.6194 -15
vertex -2.77785 4.15735 -15
endloop
endfacet
facet normal -0.2903089476828629 0.9569329730421399 0
outer loop
vertex -1.9134 4.6194 15
vertex -0.97545 4.90395 15
vertex -1.9134 4.6194 -15
endloop
endfacet
facet normal -0.2903089476828628 0.95693297304214 0
outer loop
vertex -0.97545 4.90395 15
vertex -0.97545 4.90395 -15
vertex -1.9134 4.6194 -15
endloop
endfacet
facet normal -0.09799345637611785 0.9951870590534534 0
outer loop
vertex -0.97545 4.90395 15
vertex 0 5 15
vertex -0.97545 4.90395 -15
endloop
endfacet
facet normal -0.09799345637611785 0.9951870590534534 0
outer loop
vertex 0 5 15
vertex 0 5 -15
vertex -0.97545 4.90395 -15
endloop
endfacet
facet normal 0.09799345637611785 0.9951870590534534 0
outer loop
vertex 0 5 15
vertex 0.97545 4.90395 15
vertex 0 5 -15
endloop
endfacet
facet normal 0.09799345637611785 0.9951870590534534 0
outer loop
vertex 0.97545 4.90395 15
vertex 0.97545 4.90395 -15
vertex 0 5 -15
endloop
endfacet
facet normal 0.2903089476828628 0.95693297304214 0
outer loop
vertex 0.97545 4.90395 15
vertex 1.9134 4.6194 15
vertex 0.97545 4.90395 -15
endloop
endfacet
facet normal 0.2903089476828629 0.9569329730421399 0
outer loop
vertex 1.9134 4.6194 15
vertex 1.9134 4.6194 -15
vertex 0.97545 4.90395 -15
endloop
endfacet
facet normal 0.4713902685551927 0.8819247216806337 0
outer loop
vertex 1.9134 4.6194 15
vertex 2.77785 4.15735 15
vertex 1.9134 4.6194 -15
endloop
endfacet
facet normal 0.4713902685551931 0.8819247216806335 0
outer loop
vertex 2.77785 4.15735 15
vertex 2.77785 4.15735 -15
vertex 1.9134 4.6194 -15
endloop
endfacet
facet normal 0.6343760193815079 0.7730246218806184 0
outer loop
vertex 2.77785 4.15735 15
vertex 3.53555 3.53555 15
vertex 2.77785 4.15735 -15
endloop
endfacet
facet normal 0.6343760193815073 0.7730246218806187 0
outer loop
vertex 3.53555 3.53555 15
vertex 3.53555 3.53555 -15
vertex 2.77785 4.15735 -15
endloop
endfacet
facet normal 0.7730246218806185 0.6343760193815077 0
outer loop
vertex 3.53555 3.53555 15
vertex 4.15735 2.77785 15
vertex 3.53555 3.53555 -15
endloop
endfacet
facet normal 0.7730246218806185 0.6343760193815077 0
outer loop
vertex 4.15735 2.77785 15
vertex 4.15735 2.77785 -15
vertex 3.53555 3.53555 -15
endloop
endfacet
facet normal 0.8819247216806334 0.47139026855519334 0
outer loop
vertex 4.15735 2.77785 15
vertex 4.6194 1.9134 15
vertex 4.15735 2.77785 -15
endloop
endfacet
facet normal 0.8819247216806337 0.47139026855519256 0
outer loop
vertex 4.6194 1.9134 15
vertex 4.6194 1.9134 -15
vertex 4.15735 2.77785 -15
endloop
endfacet
facet normal 0.9569329730421394 0.29030894768286397 0
outer loop
vertex 4.6194 1.9134 15
vertex 4.90395 0.97545 15
vertex 4.6194 1.9134 -15
endloop
endfacet
facet normal 0.95693297304214 0.29030894768286225 0
outer loop
vertex 4.90395 0.97545 15
vertex 4.90395 0.97545 -15
vertex 4.6194 1.9134 -15
endloop
endfacet
facet normal 0.9951870590534536 0.09799345637611655 0
outer loop
vertex 4.90395 0.97545 15
vertex 5 0 15
vertex 4.90395 0.97545 -15
endloop
endfacet
facet normal 0.9951870590534534 0.09799345637611846 0
outer loop
vertex 5 0 15
vertex 5 0 -15
vertex 4.90395 0.97545 -15
endloop
endfacet
facet normal 0.9951870590534534 -0.09799345637611846 0
outer loop
vertex 5 0 15
vertex 4.90395 -0.97545 15
vertex 5 0 -15
endloop
endfacet
facet normal 0.9951870590534536 -0.09799345637611655 0
outer loop
vertex 4.90395 -0.97545 15
vertex 4.90395 -0.97545 -15
vertex 5 0 -15
endloop
endfacet
facet normal 0 0 1
outer loop
vertex 4.15735 2.77785 15
vertex 3.53555 3.53555 15
vertex 4.6194 1.9134 15
endloop
endfacet
facet normal 0 0 1
outer loop
vertex 2.77785 4.15735 15
vertex 1.9134 4.6194 15
vertex 3.53555 3.53555 15
endloop
endfacet
facet normal 0 0 1
outer loop
vertex 0.97545 4.90395 15
vertex 0 5 15
vertex 1.9134 4.6194 15
endloop
endfacet
facet normal 0 0 1
outer loop
vertex -0.97545 4.90395 15
vertex -1.9134 4.6194 15
vertex 0 5 15
endloop
endfacet
facet normal 0 0 1
outer loop
vertex -2.77785 4.15735 15
vertex -3.53555 3.53555 15
vertex -1.9134 4.6194 15
endloop
endfacet
facet normal 0 0 1
outer loop
vertex -4.15735 2.77785 15
vertex -4.6194 1.9134 15
vertex -3.53555 3.53555 15
endloop
endfacet
facet normal 0 0 0.9999999999999999
outer loop
vertex -4.90395 0.97545 15
vertex -5 0 15
vertex -4.6194 1.9134 15
endloop
endfacet
facet normal 0 0 0.9999999999999999
outer loop
vertex -4.90395 -0.97545 15
vertex -4.6194 -1.9134 15
vertex -5 0 15
endloop
endfacet
facet normal 0 0 1
outer loop
vertex -4.15735 -2.77785 15
vertex -3.53555 -3.53555 15
vertex -4.6194 -1.9134 15
endloop
endfacet
facet normal 0 0 1
outer loop
vertex -2.77785 -4.15735 15
vertex -1.9134 -4.6194 15
vertex -3.53555 -3.53555 15
endloop
endfacet
facet normal 0 0 1
outer loop
vertex -0.97545 -4.90395 15
vertex 0 -5 15
vertex -1.9134 -4.6194 15
endloop
endfacet
facet normal 0 0 1
outer loop
vertex 0.97545 -4.90395 15
vertex 1.9134 -4.6194 15
vertex 0 -5 15
endloop
endfacet
facet normal 0 0 1
outer loop
vertex 2.77785 -4.15735 15
vertex 3.53555 -3.53555 15
vertex 1.9134 -4.6194 15
endloop
endfacet
facet normal 0 0 1
outer loop
vertex 4.15735 -2.77785 15
vertex 4.6194 -1.9134 15
vertex 3.53555 -3.53555 15
endloop
endfacet
facet normal 0 0 0.9999999999999999
outer loop
vertex 4.90395 -0.97545 15
vertex 5 0 15
vertex 4.6194 -1.9134 15
endloop
endfacet
facet normal 0 0 0.9999999999999999
outer loop
vertex 4.90395 0.97545 15
vertex 4.6194 1.9134 15
vertex 5 0 15
endloop
endfacet
facet normal -9.755915439906276e-15 0 1
outer loop
vertex 3.53555 3.53555 15
vertex 1.9134 4.6194 15
vertex 4.6194 1.9134 15
endloop
endfacet
facet normal 0 0 0.9999999999999999
outer loop
vertex 0 5 15
vertex -1.9134 4.6194 15
vertex 1.9134 4.6194 15
endloop
endfacet
facet normal 9.755915439906276e-15 0 1
outer loop
vertex -3.53555 3.53555 15
vertex -4.6194 1.9134 15
vertex -1.9134 4.6194 15
endloop
endfacet
facet normal 0 0 1
outer loop
vertex -5 0 15
vertex -4.6194 -1.9134 15
vertex -4.6194 1.9134 15
endloop
endfacet
facet normal 9.755915439906276e-15 0 1
outer loop
vertex -3.53555 -3.53555 15
vertex -1.9134 -4.6194 15
vertex -4.6194 -1.9134 15
endloop
endfacet
facet normal 0 0 0.9999999999999999
outer loop
vertex 0 -5 15
vertex 1.9134 -4.6194 15
vertex -1.9134 -4.6194 15
endloop
endfacet
facet normal -9.755915439906276e-15 0 1
outer loop
vertex 3.53555 -3.53555 15
vertex 4.6194 -1.9134 15
vertex 1.9134 -4.6194 15
endloop
endfacet
facet normal 0 0 1
outer loop
vertex 5 0 15
vertex 4.6194 1.9134 15
vertex 4.6194 -1.9134 15
endloop
endfacet
facet normal 0 0 1
outer loop
vertex 1.9134 4.6194 15
vertex -1.9134 4.6194 15
vertex 4.6194 1.9134 15
endloop
endfacet
facet normal -2.74464789448184e-15 0 1
outer loop
vertex -4.6194 1.9134 15
vertex -4.6194 -1.9134 15
vertex -1.9134 4.6194 15
endloop
endfacet
facet normal 0 0 1
outer loop
vertex -1.9134 -4.6194 15
vertex 1.9134 -4.6194 15
vertex -4.6194 -1.9134 15
endloop
endfacet
facet normal 2.74464789448184e-15 0 1
outer loop
vertex 4.6194 -1.9134 15
vertex 4.6194 1.9134 15
vertex 1.9134 -4.6194 15
endloop
endfacet
facet normal 5.684351908730087e-16 0 0.9999999999999999
outer loop
vertex -1.9134 4.6194 15
vertex -4.6194 -1.9134 15
vertex 4.6194 1.9134 15
endloop
endfacet
facet normal -5.684351908730087e-16 0 0.9999999999999999
outer loop
vertex 1.9134 -4.6194 15
vertex 4.6194 1.9134 15
vertex -4.6194 -1.9134 15
endloop
endfacet
facet normal 0 0 -0.9999999999999999
outer loop
vertex 4.90395 -0.97545 -15
vertex 4.6194 -1.9134 -15
vertex 5 0 -15
endloop
endfacet
facet normal 0 0 -1
outer loop
vertex 4.15735 -2.77785 -15
vertex 3.53555 -3.53555 -15
vertex 4.6194 -1.9134 -15
endloop
endfacet
facet normal 0 0 -1
outer loop
vertex 2.77785 -4.15735 -15
vertex 1.9134 -4.6194 -15
vertex 3.53555 -3.53555 -15
endloop
endfacet
facet normal 0 0 -1
outer loop
vertex 0.97545 -4.90395 -15
vertex 0 -5 -15
vertex 1.9134 -4.6194 -15
endloop
endfacet
facet normal 0 0 -1
outer loop
vertex -0.97545 -4.90395 -15
vertex -1.9134 -4.6194 -15
vertex 0 -5 -15
endloop
endfacet
facet normal 0 0 -1
outer loop
vertex -2.77785 -4.15735 -15
vertex -3.53555 -3.53555 -15
vertex -1.9134 -4.6194 -15
endloop
endfacet
facet normal 0 0 -1
outer loop
vertex -4.15735 -2.77785 -15
vertex -4.6194 -1.9134 -15
vertex -3.53555 -3.53555 -15
endloop
endfacet
facet normal 0 0 -0.9999999999999999
outer loop
vertex -4.90395 -0.97545 -15
vertex -5 0 -15
vertex -4.6194 -1.9134 -15
endloop
endfacet
facet normal 0 0 -0.9999999999999999
outer loop
vertex -4.90395 0.97545 -15
vertex -4.6194 1.9134 -15
vertex -5 0 -15
endloop
endfacet
facet normal 0 0 -1
outer loop
vertex -4.15735 2.77785 -15
vertex -3.53555 3.53555 -15
vertex -4.6194 1.9134 -15
endloop
endfacet
facet normal 0 0 -1
outer loop
vertex -2.77785 4.15735 -15
vertex -1.9134 4.6194 -15
vertex -3.53555 3.53555 -15
endloop
endfacet
facet normal 0 0 -1
outer loop
vertex -0.97545 4.90395 -15
vertex 0 5 -15
vertex -1.9134 4.6194 -15
endloop
endfacet
facet normal 0 0 -1
outer loop
vertex 0.97545 4.90395 -15
vertex 1.9134 4.6194 -15
vertex 0 5 -15
endloop
endfacet
facet normal 0 0 -1
outer loop
vertex 2.77785 4.15735 -15
vertex 3.53555 3.53555 -15
vertex 1.9134 4.6194 -15
endloop
endfacet
facet normal 0 0 -1
outer loop
vertex 4.15735 2.77785 -15
vertex 4.6194 1.9134 -15
vertex 3.53555 3.53555 -15
endloop
endfacet
facet normal 0 0 -0.9999999999999999
outer loop
vertex 4.90395 0.97545 -15
vertex 5 0 -15
vertex 4.6194 1.9134 -15
endloop
endfacet
facet normal 0 0 -1
outer loop
vertex 4.6194 -1.9134 -15
vertex 3.53555 -3.53555 -15
vertex 5 0 -15
endloop
endfacet
facet normal 0 0 -1
outer loop
vertex 1.9134 -4.6194 -15
vertex 0 -5 -15
vertex 3.53555 -3.53555 -15
endloop
endfacet
facet normal 0 0 -1
outer loop
vertex -1.9134 -4.6194 -15
vertex -3.53555 -3.53555 -15
vertex 0 -5 -15
endloop
endfacet
facet normal 0 0 -1
outer loop
vertex -4.6194 -1.9134 -15
vertex -5 0 -15
vertex -3.53555 -3.53555 -15
endloop
endfacet
facet normal 0 0 -1
outer loop
vertex -4.6194 1.9134 -15
vertex -3.53555 3.53555 -15
vertex -5 0 -15
endloop
endfacet
facet normal 0 0 -1
outer loop
vertex -1.9134 4.6194 -15
vertex 0 5 -15
vertex -3.53555 3.53555 -15
endloop
endfacet
facet normal 0 0 -1
outer loop
vertex 1.9134 4.6194 -15
vertex 3.53555 3.53555 -15
vertex 0 5 -15
endloop
endfacet
facet normal 0 0 -1
outer loop
vertex 4.6194 1.9134 -15
vertex 5 0 -15
vertex 3.53555 3.53555 -15
endloop
endfacet
facet normal 0 0 -1
outer loop
vertex 3.53555 -3.53555 -15
vertex 0 -5 -15
vertex 5 0 -15
endloop
endfacet
facet normal 0 0 -1
outer loop
vertex -3.53555 -3.53555 -15
vertex -5 0 -15
vertex 0 -5 -15
endloop
endfacet
facet normal 0 0 -1
outer loop
vertex -3.53555 3.53555 -15
vertex 0 5 -15
vertex -5 0 -15
endloop
endfacet
facet normal 0 0 -1
outer loop
vertex 3.53555 3.53555 -15
vertex 5 0 -15
vertex 0 5 -15
endloop
endfacet
facet normal 0 0 -1
outer loop
vertex 0 -5 -15
vertex -5 0 -15
vertex 5 0 -15
endloop
endfacet
facet normal 0 0 -1
outer loop
vertex 0 5 -15
vertex 5 0 -15
vertex -5 0 -15
endloop
endfacet
endsolid JSxCAD
