solid JSxCAD
facet normal 0 -1 0
outer loop
vertex -15 -15 -15
vertex 15 -15 -15
vertex 15 -15 15
endloop
endfacet
facet normal 0 -1 0
outer loop
vertex 15 -15 15
vertex -15 -15 15
vertex -15 -15 -15
endloop
endfacet
facet normal -1 0 0
outer loop
vertex -15 15 15
vertex -15 15 -15
vertex -15 -15 -15
endloop
endfacet
facet normal -1 0 0
outer loop
vertex -15 -15 -15
vertex -15 -15 15
vertex -15 15 15
endloop
endfacet
facet normal 0 1 0
outer loop
vertex 15 15 -15
vertex -15 15 -15
vertex -15 15 15
endloop
endfacet
facet normal 0 1 0
outer loop
vertex -15 15 15
vertex 15 15 15
vertex 15 15 -15
endloop
endfacet
facet normal -2.0674805903767086e-14 0 1
outer loop
vertex 4.6194 1.9134 15
vertex 4.90395 0.97545 15
vertex 4.5518 4.5518 15
endloop
endfacet
facet normal 0 0 1
outer loop
vertex 4.5518 4.5518 15
vertex 0.97545 4.90395 15
vertex 1.9134 4.6194 15
endloop
endfacet
facet normal 0 0 1
outer loop
vertex 4.15735 2.77785 15
vertex 4.6194 1.9134 15
vertex 4.5518 4.5518 15
endloop
endfacet
facet normal 0 0 1
outer loop
vertex 4.5518 4.5518 15
vertex 1.9134 4.6194 15
vertex 2.77785 4.15735 15
endloop
endfacet
facet normal 0 0 1
outer loop
vertex 3.53555 3.53555 15
vertex 4.15735 2.77785 15
vertex 4.5518 4.5518 15
endloop
endfacet
facet normal 0 0 1
outer loop
vertex 4.5518 4.5518 15
vertex 2.77785 4.15735 15
vertex 3.53555 3.53555 15
endloop
endfacet
facet normal 0 0 1
outer loop
vertex -15 15 15
vertex -15 -15 15
vertex -5 0 15
endloop
endfacet
facet normal 0 0 1
outer loop
vertex -4.90395 -0.97545 15
vertex -5 0 15
vertex -15 -15 15
endloop
endfacet
facet normal 1.9040469907150807e-15 0 1
outer loop
vertex -15 15 15
vertex -5 0 15
vertex -4.90395 0.97545 15
endloop
endfacet
facet normal -4.22305008496244e-15 0 1
outer loop
vertex -4.6194 -1.9134 15
vertex -4.90395 -0.97545 15
vertex -15 -15 15
endloop
endfacet
facet normal -2.3754656727913748e-15 0 1
outer loop
vertex -15 15 15
vertex -4.90395 0.97545 15
vertex -4.6194 1.9134 15
endloop
endfacet
facet normal 3.784471597225535e-15 0 1
outer loop
vertex -4.15735 -2.77785 15
vertex -4.6194 -1.9134 15
vertex -15 -15 15
endloop
endfacet
facet normal 2.601824223092554e-15 0 1
outer loop
vertex -15 15 15
vertex -4.6194 1.9134 15
vertex -4.15735 2.77785 15
endloop
endfacet
facet normal 0 0 0.9999999999999999
outer loop
vertex -3.53555 -3.53555 15
vertex -4.15735 -2.77785 15
vertex -15 -15 15
endloop
endfacet
facet normal -8.985562516042094e-16 0 1
outer loop
vertex -15 15 15
vertex -4.15735 2.77785 15
vertex -3.53555 3.53555 15
endloop
endfacet
facet normal 0 0 0.9999999999999999
outer loop
vertex -2.77785 -4.15735 15
vertex -3.53555 -3.53555 15
vertex -15 -15 15
endloop
endfacet
facet normal 0 0 0.9999999999999999
outer loop
vertex -15 15 15
vertex -3.53555 3.53555 15
vertex -2.77785 4.15735 15
endloop
endfacet
facet normal 0 0 1
outer loop
vertex -1.9134 -4.6194 15
vertex -2.77785 -4.15735 15
vertex -15 -15 15
endloop
endfacet
facet normal 0 0 1
outer loop
vertex 15 15 15
vertex -15 15 15
vertex -2.77785 4.15735 15
endloop
endfacet
facet normal 0 0 0.9999999999999999
outer loop
vertex -0.97545 -4.90395 15
vertex -1.9134 -4.6194 15
vertex -15 -15 15
endloop
endfacet
facet normal -9.19857388295581e-15 0 1
outer loop
vertex 15 15 15
vertex -2.77785 4.15735 15
vertex -1.9134 4.6194 15
endloop
endfacet
facet normal 0 0 1
outer loop
vertex 0 -5 15
vertex -0.97545 -4.90395 15
vertex -15 -15 15
endloop
endfacet
facet normal -3.96848394953383e-15 0 1
outer loop
vertex 15 15 15
vertex -1.9134 4.6194 15
vertex -0.97545 4.90395 15
endloop
endfacet
facet normal 0 0 1
outer loop
vertex 0.97545 -4.90395 15
vertex 0 -5 15
vertex -15 -15 15
endloop
endfacet
facet normal 2.1366493332133384e-15 0 1
outer loop
vertex 15 15 15
vertex -0.97545 4.90395 15
vertex 0 5 15
endloop
endfacet
facet normal 0 0 1
outer loop
vertex 1.9134 -4.6194 15
vertex 0.97545 -4.90395 15
vertex -15 -15 15
endloop
endfacet
facet normal -1.586705825595907e-15 0 1
outer loop
vertex 15 15 15
vertex 0 5 15
vertex 0.97545 4.90395 15
endloop
endfacet
facet normal -2.5966488797601225e-16 0 0.9999999999999999
outer loop
vertex 15 15 15
vertex 0.97545 4.90395 15
vertex 4.5518 4.5518 15
endloop
endfacet
facet normal 0 0 0.9999999999999999
outer loop
vertex 2.77785 -4.15735 15
vertex 1.9134 -4.6194 15
vertex -15 -15 15
endloop
endfacet
facet normal 0 0 1
outer loop
vertex 15 -15 15
vertex 15 15 15
vertex 4.5518 4.5518 15
endloop
endfacet
facet normal 0 0 1
outer loop
vertex 2.77785 -4.15735 15
vertex -15 -15 15
vertex 15 -15 15
endloop
endfacet
facet normal 1.8648648582590297e-15 0 1
outer loop
vertex 15 -15 15
vertex 4.5518 4.5518 15
vertex 4.90395 0.97545 15
endloop
endfacet
facet normal -2.5639791998560195e-15 0 1
outer loop
vertex 15 -15 15
vertex 4.90395 0.97545 15
vertex 5 0 15
endloop
endfacet
facet normal 0 0 0.9999999999999999
outer loop
vertex 3.53555 -3.53555 15
vertex 2.77785 -4.15735 15
vertex 15 -15 15
endloop
endfacet
facet normal -1.9040469907150807e-15 0 1
outer loop
vertex 15 -15 15
vertex 5 0 15
vertex 4.90395 -0.97545 15
endloop
endfacet
facet normal 0 0 0.9999999999999999
outer loop
vertex 4.15735 -2.77785 15
vertex 3.53555 -3.53555 15
vertex 15 -15 15
endloop
endfacet
facet normal 2.3754656727913748e-15 0 1
outer loop
vertex 15 -15 15
vertex 4.90395 -0.97545 15
vertex 4.6194 -1.9134 15
endloop
endfacet
facet normal -3.784471597225535e-15 0 1
outer loop
vertex 4.6194 -1.9134 15
vertex 4.15735 -2.77785 15
vertex 15 -15 15
endloop
endfacet
facet normal 0 0 -1
outer loop
vertex 4.6194 1.9134 -15
vertex 4.15735 2.77785 -15
vertex 4.80407 1.98978 -15
endloop
endfacet
facet normal -1.82241701246097e-14 0 -1
outer loop
vertex 4.80407 1.98978 -15
vertex 4.90395 0.97545 -15
vertex 4.6194 1.9134 -15
endloop
endfacet
facet normal 0 0 -0.9999999999999999
outer loop
vertex 1.9134 4.6194 -15
vertex 0.97545 4.90395 -15
vertex 4.5518 4.5518 -15
endloop
endfacet
facet normal -2.4365310954849664e-15 0 -1
outer loop
vertex 4.5518 4.5518 -15
vertex 4.80407 1.98978 -15
vertex 4.15735 2.77785 -15
endloop
endfacet
facet normal 0 0 -1
outer loop
vertex 4.5518 4.5518 -15
vertex 4.15735 2.77785 -15
vertex 3.53555 3.53555 -15
endloop
endfacet
facet normal 0 0 -1
outer loop
vertex 2.77785 4.15735 -15
vertex 1.9134 4.6194 -15
vertex 4.5518 4.5518 -15
endloop
endfacet
facet normal 0 0 -1
outer loop
vertex 4.5518 4.5518 -15
vertex 3.53555 3.53555 -15
vertex 2.77785 4.15735 -15
endloop
endfacet
facet normal -2.1366493332133384e-15 0 -1
outer loop
vertex -15 -15 -15
vertex 0 -5 -15
vertex 0.97545 -4.90395 -15
endloop
endfacet
facet normal 0 0 -1
outer loop
vertex -0.97545 -4.90395 -15
vertex 0 -5 -15
vertex -15 -15 -15
endloop
endfacet
facet normal 0 0 -1
outer loop
vertex 15 -15 -15
vertex -15 -15 -15
vertex 0.97545 -4.90395 -15
endloop
endfacet
facet normal 0 0 -0.9999999999999999
outer loop
vertex -1.9134 -4.6194 -15
vertex -0.97545 -4.90395 -15
vertex -15 -15 -15
endloop
endfacet
facet normal 1.4516734667058343e-15 0 -1
outer loop
vertex 15 -15 -15
vertex 0.97545 -4.90395 -15
vertex 1.9134 -4.6194 -15
endloop
endfacet
facet normal 0 0 -1
outer loop
vertex -2.77785 -4.15735 -15
vertex -1.9134 -4.6194 -15
vertex -15 -15 -15
endloop
endfacet
facet normal 7.095884244797875e-16 0 -1
outer loop
vertex 15 -15 -15
vertex 1.9134 -4.6194 -15
vertex 2.77785 -4.15735 -15
endloop
endfacet
facet normal 0 0 -0.9999999999999999
outer loop
vertex -3.53555 -3.53555 -15
vertex -2.77785 -4.15735 -15
vertex -15 -15 -15
endloop
endfacet
facet normal 0 0 -0.9999999999999999
outer loop
vertex 15 -15 -15
vertex 2.77785 -4.15735 -15
vertex 3.53555 -3.53555 -15
endloop
endfacet
facet normal 0 0 -0.9999999999999999
outer loop
vertex -4.15735 -2.77785 -15
vertex -3.53555 -3.53555 -15
vertex -15 -15 -15
endloop
endfacet
facet normal 8.985562516042094e-16 0 -1
outer loop
vertex 15 -15 -15
vertex 3.53555 -3.53555 -15
vertex 4.15735 -2.77785 -15
endloop
endfacet
facet normal 3.784471597225535e-15 0 -1
outer loop
vertex -4.6194 -1.9134 -15
vertex -4.15735 -2.77785 -15
vertex -15 -15 -15
endloop
endfacet
facet normal 0 0 -1
outer loop
vertex 15 15 -15
vertex 15 -15 -15
vertex 4.15735 -2.77785 -15
endloop
endfacet
facet normal -4.22305008496244e-15 0 -1
outer loop
vertex -4.90395 -0.97545 -15
vertex -4.6194 -1.9134 -15
vertex -15 -15 -15
endloop
endfacet
facet normal -3.3728104237505425e-14 0 -1
outer loop
vertex 15 15 -15
vertex 4.15735 -2.77785 -15
vertex 4.6194 -1.9134 -15
endloop
endfacet
facet normal 0 0 -1
outer loop
vertex -5 0 -15
vertex -4.90395 -0.97545 -15
vertex -15 -15 -15
endloop
endfacet
facet normal 6.4938828265098246e-15 0 -1
outer loop
vertex 15 15 -15
vertex 4.6194 -1.9134 -15
vertex 4.90395 -0.97545 -15
endloop
endfacet
facet normal 0 0 -1
outer loop
vertex -4.90395 0.97545 -15
vertex -5 0 -15
vertex -15 -15 -15
endloop
endfacet
facet normal -2.5639791998560195e-15 0 -1
outer loop
vertex 15 15 -15
vertex 4.90395 -0.97545 -15
vertex 5 0 -15
endloop
endfacet
facet normal -1.1544680580461882e-14 0 -1
outer loop
vertex -4.6194 1.9134 -15
vertex -4.90395 0.97545 -15
vertex -15 -15 -15
endloop
endfacet
facet normal -1.9040469907150807e-15 0 -1
outer loop
vertex 15 15 -15
vertex 5 0 -15
vertex 4.90395 0.97545 -15
endloop
endfacet
facet normal 2.4414133241742004e-15 0 -1
outer loop
vertex 15 15 -15
vertex 4.90395 0.97545 -15
vertex 4.80407 1.98978 -15
endloop
endfacet
facet normal 9.665845973359913e-16 0 -0.9999999999999999
outer loop
vertex 15 15 -15
vertex 4.80407 1.98978 -15
vertex 4.5518 4.5518 -15
endloop
endfacet
facet normal 4.9059060709099116e-14 0 -1
outer loop
vertex -4.15735 2.77785 -15
vertex -4.6194 1.9134 -15
vertex -15 -15 -15
endloop
endfacet
facet normal 0 0 -1
outer loop
vertex -15 15 -15
vertex 15 15 -15
vertex 4.5518 4.5518 -15
endloop
endfacet
facet normal 0 0 -1
outer loop
vertex -4.15735 2.77785 -15
vertex -15 -15 -15
vertex -15 15 -15
endloop
endfacet
facet normal -3.496621609235686e-16 0 -0.9999999999999999
outer loop
vertex -15 15 -15
vertex 4.5518 4.5518 -15
vertex 0.97545 4.90395 -15
endloop
endfacet
facet normal -2.1366493332133384e-15 0 -1
outer loop
vertex -15 15 -15
vertex 0.97545 4.90395 -15
vertex 0 5 -15
endloop
endfacet
facet normal 0 0 -0.9999999999999999
outer loop
vertex -3.53555 3.53555 -15
vertex -4.15735 2.77785 -15
vertex -15 15 -15
endloop
endfacet
facet normal 1.586705825595907e-15 0 -1
outer loop
vertex -15 15 -15
vertex 0 5 -15
vertex -0.97545 4.90395 -15
endloop
endfacet
facet normal 0 0 -0.9999999999999999
outer loop
vertex -2.77785 4.15735 -15
vertex -3.53555 3.53555 -15
vertex -15 15 -15
endloop
endfacet
facet normal -1.4516734667058343e-15 0 -1
outer loop
vertex -15 15 -15
vertex -0.97545 4.90395 -15
vertex -1.9134 4.6194 -15
endloop
endfacet
facet normal 0 0 -1
outer loop
vertex -1.9134 4.6194 -15
vertex -2.77785 4.15735 -15
vertex -15 15 -15
endloop
endfacet
facet normal 1 0 0
outer loop
vertex 15 -15 15
vertex 15 -15 -15
vertex 15 15 -15
endloop
endfacet
facet normal 1 0 0
outer loop
vertex 15 15 -15
vertex 15 15 15
vertex 15 -15 15
endloop
endfacet
facet normal -0.9569329730421394 0.29030894768286397 0
outer loop
vertex 4.90395 -0.97545 -15
vertex 4.6194 -1.9134 -15
vertex 4.6194 -1.9134 15
endloop
endfacet
facet normal -0.95693297304214 0.29030894768286225 0
outer loop
vertex 4.6194 -1.9134 15
vertex 4.90395 -0.97545 15
vertex 4.90395 -0.97545 -15
endloop
endfacet
facet normal -0.8819247216806334 0.47139026855519334 0
outer loop
vertex 4.6194 -1.9134 -15
vertex 4.15735 -2.77785 -15
vertex 4.15735 -2.77785 15
endloop
endfacet
facet normal -0.8819247216806337 0.47139026855519256 0
outer loop
vertex 4.15735 -2.77785 15
vertex 4.6194 -1.9134 15
vertex 4.6194 -1.9134 -15
endloop
endfacet
facet normal -0.7730246218806185 0.6343760193815077 0
outer loop
vertex 4.15735 -2.77785 -15
vertex 3.53555 -3.53555 -15
vertex 3.53555 -3.53555 15
endloop
endfacet
facet normal -0.7730246218806185 0.6343760193815077 0
outer loop
vertex 3.53555 -3.53555 15
vertex 4.15735 -2.77785 15
vertex 4.15735 -2.77785 -15
endloop
endfacet
facet normal -0.6343760193815079 0.7730246218806184 0
outer loop
vertex 3.53555 -3.53555 -15
vertex 2.77785 -4.15735 -15
vertex 2.77785 -4.15735 15
endloop
endfacet
facet normal -0.6343760193815073 0.7730246218806187 0
outer loop
vertex 2.77785 -4.15735 15
vertex 3.53555 -3.53555 15
vertex 3.53555 -3.53555 -15
endloop
endfacet
facet normal -0.4713902685551927 0.8819247216806337 0
outer loop
vertex 2.77785 -4.15735 -15
vertex 1.9134 -4.6194 -15
vertex 1.9134 -4.6194 15
endloop
endfacet
facet normal -0.4713902685551931 0.8819247216806335 0
outer loop
vertex 1.9134 -4.6194 15
vertex 2.77785 -4.15735 15
vertex 2.77785 -4.15735 -15
endloop
endfacet
facet normal -0.2903089476828628 0.95693297304214 0
outer loop
vertex 1.9134 -4.6194 -15
vertex 0.97545 -4.90395 -15
vertex 0.97545 -4.90395 15
endloop
endfacet
facet normal -0.2903089476828629 0.9569329730421399 0
outer loop
vertex 0.97545 -4.90395 15
vertex 1.9134 -4.6194 15
vertex 1.9134 -4.6194 -15
endloop
endfacet
facet normal -0.09799345637611785 0.9951870590534534 0
outer loop
vertex 0.97545 -4.90395 -15
vertex 0 -5 -15
vertex 0 -5 15
endloop
endfacet
facet normal -0.09799345637611785 0.9951870590534534 0
outer loop
vertex 0 -5 15
vertex 0.97545 -4.90395 15
vertex 0.97545 -4.90395 -15
endloop
endfacet
facet normal 0.09799345637611785 0.9951870590534534 0
outer loop
vertex 0 -5 -15
vertex -0.97545 -4.90395 -15
vertex -0.97545 -4.90395 15
endloop
endfacet
facet normal 0.09799345637611785 0.9951870590534534 0
outer loop
vertex -0.97545 -4.90395 15
vertex 0 -5 15
vertex 0 -5 -15
endloop
endfacet
facet normal 0.2903089476828629 0.9569329730421399 0
outer loop
vertex -0.97545 -4.90395 -15
vertex -1.9134 -4.6194 -15
vertex -1.9134 -4.6194 15
endloop
endfacet
facet normal 0.2903089476828628 0.95693297304214 0
outer loop
vertex -1.9134 -4.6194 15
vertex -0.97545 -4.90395 15
vertex -0.97545 -4.90395 -15
endloop
endfacet
facet normal 0.4713902685551931 0.8819247216806335 0
outer loop
vertex -1.9134 -4.6194 -15
vertex -2.77785 -4.15735 -15
vertex -2.77785 -4.15735 15
endloop
endfacet
facet normal 0.4713902685551927 0.8819247216806337 0
outer loop
vertex -2.77785 -4.15735 15
vertex -1.9134 -4.6194 15
vertex -1.9134 -4.6194 -15
endloop
endfacet
facet normal 0.6343760193815073 0.7730246218806187 0
outer loop
vertex -2.77785 -4.15735 -15
vertex -3.53555 -3.53555 -15
vertex -3.53555 -3.53555 15
endloop
endfacet
facet normal 0.6343760193815079 0.7730246218806184 0
outer loop
vertex -3.53555 -3.53555 15
vertex -2.77785 -4.15735 15
vertex -2.77785 -4.15735 -15
endloop
endfacet
facet normal 0.7730246218806185 0.6343760193815077 0
outer loop
vertex -3.53555 -3.53555 -15
vertex -4.15735 -2.77785 -15
vertex -4.15735 -2.77785 15
endloop
endfacet
facet normal 0.7730246218806185 0.6343760193815077 0
outer loop
vertex -4.15735 -2.77785 15
vertex -3.53555 -3.53555 15
vertex -3.53555 -3.53555 -15
endloop
endfacet
facet normal 0.8819247216806337 0.47139026855519256 0
outer loop
vertex -4.15735 -2.77785 -15
vertex -4.6194 -1.9134 -15
vertex -4.6194 -1.9134 15
endloop
endfacet
facet normal 0.8819247216806334 0.47139026855519334 0
outer loop
vertex -4.6194 -1.9134 15
vertex -4.15735 -2.77785 15
vertex -4.15735 -2.77785 -15
endloop
endfacet
facet normal 0.95693297304214 0.29030894768286225 0
outer loop
vertex -4.6194 -1.9134 -15
vertex -4.90395 -0.97545 -15
vertex -4.90395 -0.97545 15
endloop
endfacet
facet normal 0.9569329730421394 0.29030894768286397 0
outer loop
vertex -4.90395 -0.97545 15
vertex -4.6194 -1.9134 15
vertex -4.6194 -1.9134 -15
endloop
endfacet
facet normal 0.9951870590534534 0.09799345637611846 0
outer loop
vertex -4.90395 -0.97545 -15
vertex -5 0 -15
vertex -5 0 15
endloop
endfacet
facet normal 0.9951870590534536 0.09799345637611655 0
outer loop
vertex -5 0 15
vertex -4.90395 -0.97545 15
vertex -4.90395 -0.97545 -15
endloop
endfacet
facet normal 0.9951870590534536 -0.09799345637611655 0
outer loop
vertex -5 0 -15
vertex -4.90395 0.97545 -15
vertex -4.90395 0.97545 15
endloop
endfacet
facet normal 0.9951870590534534 -0.09799345637611846 0
outer loop
vertex -4.90395 0.97545 15
vertex -5 0 15
vertex -5 0 -15
endloop
endfacet
facet normal 0.9569329730421394 -0.29030894768286397 0
outer loop
vertex -4.90395 0.97545 -15
vertex -4.6194 1.9134 -15
vertex -4.6194 1.9134 15
endloop
endfacet
facet normal 0.95693297304214 -0.29030894768286225 0
outer loop
vertex -4.6194 1.9134 15
vertex -4.90395 0.97545 15
vertex -4.90395 0.97545 -15
endloop
endfacet
facet normal 0.8819247216806334 -0.47139026855519334 0
outer loop
vertex -4.6194 1.9134 -15
vertex -4.15735 2.77785 -15
vertex -4.15735 2.77785 15
endloop
endfacet
facet normal 0.8819247216806337 -0.47139026855519256 0
outer loop
vertex -4.15735 2.77785 15
vertex -4.6194 1.9134 15
vertex -4.6194 1.9134 -15
endloop
endfacet
facet normal 0.7730246218806185 -0.6343760193815077 0
outer loop
vertex -4.15735 2.77785 -15
vertex -3.53555 3.53555 -15
vertex -3.53555 3.53555 15
endloop
endfacet
facet normal 0.7730246218806185 -0.6343760193815077 0
outer loop
vertex -3.53555 3.53555 15
vertex -4.15735 2.77785 15
vertex -4.15735 2.77785 -15
endloop
endfacet
facet normal 0.6343760193815079 -0.7730246218806184 0
outer loop
vertex -3.53555 3.53555 -15
vertex -2.77785 4.15735 -15
vertex -2.77785 4.15735 15
endloop
endfacet
facet normal 0.6343760193815073 -0.7730246218806187 0
outer loop
vertex -2.77785 4.15735 15
vertex -3.53555 3.53555 15
vertex -3.53555 3.53555 -15
endloop
endfacet
facet normal 0.4713902685551927 -0.8819247216806337 0
outer loop
vertex -2.77785 4.15735 -15
vertex -1.9134 4.6194 -15
vertex -1.9134 4.6194 15
endloop
endfacet
facet normal 0.4713902685551931 -0.8819247216806335 0
outer loop
vertex -1.9134 4.6194 15
vertex -2.77785 4.15735 15
vertex -2.77785 4.15735 -15
endloop
endfacet
facet normal 0.2903089476828628 -0.95693297304214 0
outer loop
vertex -1.9134 4.6194 -15
vertex -0.97545 4.90395 -15
vertex -0.97545 4.90395 15
endloop
endfacet
facet normal 0.2903089476828629 -0.9569329730421399 0
outer loop
vertex -0.97545 4.90395 15
vertex -1.9134 4.6194 15
vertex -1.9134 4.6194 -15
endloop
endfacet
facet normal 0.09799345637611785 -0.9951870590534534 0
outer loop
vertex -0.97545 4.90395 -15
vertex 0 5 -15
vertex 0 5 15
endloop
endfacet
facet normal 0.09799345637611785 -0.9951870590534534 0
outer loop
vertex 0 5 15
vertex -0.97545 4.90395 15
vertex -0.97545 4.90395 -15
endloop
endfacet
facet normal -0.09799345637611785 -0.9951870590534534 0
outer loop
vertex 0 5 -15
vertex 0.97545 4.90395 -15
vertex 0.97545 4.90395 15
endloop
endfacet
facet normal -0.09799345637611785 -0.9951870590534534 0
outer loop
vertex 0.97545 4.90395 15
vertex 0 5 15
vertex 0 5 -15
endloop
endfacet
facet normal -0.2903089476828629 -0.9569329730421399 0
outer loop
vertex 0.97545 4.90395 -15
vertex 1.9134 4.6194 -15
vertex 1.9134 4.6194 15
endloop
endfacet
facet normal -0.2903089476828628 -0.95693297304214 0
outer loop
vertex 1.9134 4.6194 15
vertex 0.97545 4.90395 15
vertex 0.97545 4.90395 -15
endloop
endfacet
facet normal -0.4713902685551931 -0.8819247216806335 0
outer loop
vertex 1.9134 4.6194 -15
vertex 2.77785 4.15735 -15
vertex 2.77785 4.15735 15
endloop
endfacet
facet normal -0.4713902685551927 -0.8819247216806337 0
outer loop
vertex 2.77785 4.15735 15
vertex 1.9134 4.6194 15
vertex 1.9134 4.6194 -15
endloop
endfacet
facet normal -0.6343760193815073 -0.7730246218806187 0
outer loop
vertex 2.77785 4.15735 -15
vertex 3.53555 3.53555 -15
vertex 3.53555 3.53555 15
endloop
endfacet
facet normal -0.6343760193815079 -0.7730246218806184 0
outer loop
vertex 3.53555 3.53555 15
vertex 2.77785 4.15735 15
vertex 2.77785 4.15735 -15
endloop
endfacet
facet normal -0.7730246218806185 -0.6343760193815077 0
outer loop
vertex 3.53555 3.53555 -15
vertex 4.15735 2.77785 -15
vertex 4.15735 2.77785 15
endloop
endfacet
facet normal -0.7730246218806185 -0.6343760193815077 0
outer loop
vertex 4.15735 2.77785 15
vertex 3.53555 3.53555 15
vertex 3.53555 3.53555 -15
endloop
endfacet
facet normal -0.8819247216806337 -0.47139026855519256 0
outer loop
vertex 4.15735 2.77785 -15
vertex 4.6194 1.9134 -15
vertex 4.6194 1.9134 15
endloop
endfacet
facet normal -0.8819247216806334 -0.47139026855519334 0
outer loop
vertex 4.6194 1.9134 15
vertex 4.15735 2.77785 15
vertex 4.15735 2.77785 -15
endloop
endfacet
facet normal -0.95693297304214 -0.29030894768286225 0
outer loop
vertex 4.6194 1.9134 -15
vertex 4.90395 0.97545 -15
vertex 4.90395 0.97545 15
endloop
endfacet
facet normal -0.9569329730421394 -0.29030894768286397 0
outer loop
vertex 4.90395 0.97545 15
vertex 4.6194 1.9134 15
vertex 4.6194 1.9134 -15
endloop
endfacet
facet normal -0.9951870590534534 -0.09799345637611846 0
outer loop
vertex 4.90395 0.97545 -15
vertex 5 0 -15
vertex 5 0 15
endloop
endfacet
facet normal -0.9951870590534536 -0.09799345637611655 0
outer loop
vertex 5 0 15
vertex 4.90395 0.97545 15
vertex 4.90395 0.97545 -15
endloop
endfacet
facet normal -0.9951870590534536 0.09799345637611655 0
outer loop
vertex 5 0 -15
vertex 4.90395 -0.97545 -15
vertex 4.90395 -0.97545 15
endloop
endfacet
facet normal -0.9951870590534534 0.09799345637611846 0
outer loop
vertex 4.90395 -0.97545 15
vertex 5 0 15
vertex 5 0 -15
endloop
endfacet
endsolid JSxCAD
