solid JSxCAD
facet normal 0.95693297304214 -0.29030894768286225 0
outer loop
vertex 4.90395 -0.97545 -15
vertex 4.90395 -0.97545 15
vertex 4.6194 -1.9134 15
endloop
endfacet
facet normal 0.9569329730421394 -0.29030894768286397 0
outer loop
vertex 4.90395 -0.97545 -15
vertex 4.6194 -1.9134 15
vertex 4.6194 -1.9134 -15
endloop
endfacet
facet normal 0.8819247216806337 -0.47139026855519256 0
outer loop
vertex 4.6194 -1.9134 -15
vertex 4.6194 -1.9134 15
vertex 4.15735 -2.77785 15
endloop
endfacet
facet normal 0.8819247216806334 -0.47139026855519334 0
outer loop
vertex 4.6194 -1.9134 -15
vertex 4.15735 -2.77785 15
vertex 4.15735 -2.77785 -15
endloop
endfacet
facet normal 0.7730246218806185 -0.6343760193815077 0
outer loop
vertex 4.15735 -2.77785 -15
vertex 4.15735 -2.77785 15
vertex 3.53555 -3.53555 15
endloop
endfacet
facet normal 0.7730246218806185 -0.6343760193815077 0
outer loop
vertex 4.15735 -2.77785 -15
vertex 3.53555 -3.53555 15
vertex 3.53555 -3.53555 -15
endloop
endfacet
facet normal 0.6343760193815073 -0.7730246218806187 0
outer loop
vertex 3.53555 -3.53555 -15
vertex 3.53555 -3.53555 15
vertex 2.77785 -4.15735 15
endloop
endfacet
facet normal 0.6343760193815079 -0.7730246218806184 0
outer loop
vertex 3.53555 -3.53555 -15
vertex 2.77785 -4.15735 15
vertex 2.77785 -4.15735 -15
endloop
endfacet
facet normal 0.4713902685551931 -0.8819247216806335 0
outer loop
vertex 2.77785 -4.15735 -15
vertex 2.77785 -4.15735 15
vertex 1.9134 -4.6194 15
endloop
endfacet
facet normal 0.4713902685551927 -0.8819247216806337 0
outer loop
vertex 2.77785 -4.15735 -15
vertex 1.9134 -4.6194 15
vertex 1.9134 -4.6194 -15
endloop
endfacet
facet normal 0.2903089476828629 -0.9569329730421399 0
outer loop
vertex 1.9134 -4.6194 -15
vertex 1.9134 -4.6194 15
vertex 0.97545 -4.90395 15
endloop
endfacet
facet normal 0.2903089476828628 -0.95693297304214 0
outer loop
vertex 1.9134 -4.6194 -15
vertex 0.97545 -4.90395 15
vertex 0.97545 -4.90395 -15
endloop
endfacet
facet normal 0.09799345637611785 -0.9951870590534534 0
outer loop
vertex 0.97545 -4.90395 -15
vertex 0.97545 -4.90395 15
vertex 0 -5 15
endloop
endfacet
facet normal 0.09799345637611785 -0.9951870590534534 0
outer loop
vertex 0.97545 -4.90395 -15
vertex 0 -5 15
vertex 0 -5 -15
endloop
endfacet
facet normal -0.09799345637611785 -0.9951870590534534 0
outer loop
vertex 0 -5 -15
vertex 0 -5 15
vertex -0.97545 -4.90395 15
endloop
endfacet
facet normal -0.09799345637611785 -0.9951870590534534 0
outer loop
vertex 0 -5 -15
vertex -0.97545 -4.90395 15
vertex -0.97545 -4.90395 -15
endloop
endfacet
facet normal -0.2903089476828628 -0.95693297304214 0
outer loop
vertex -0.97545 -4.90395 -15
vertex -0.97545 -4.90395 15
vertex -1.9134 -4.6194 15
endloop
endfacet
facet normal -0.2903089476828629 -0.9569329730421399 0
outer loop
vertex -0.97545 -4.90395 -15
vertex -1.9134 -4.6194 15
vertex -1.9134 -4.6194 -15
endloop
endfacet
facet normal -0.4713902685551927 -0.8819247216806337 0
outer loop
vertex -1.9134 -4.6194 -15
vertex -1.9134 -4.6194 15
vertex -2.77785 -4.15735 15
endloop
endfacet
facet normal -0.4713902685551931 -0.8819247216806335 0
outer loop
vertex -1.9134 -4.6194 -15
vertex -2.77785 -4.15735 15
vertex -2.77785 -4.15735 -15
endloop
endfacet
facet normal -0.6343760193815079 -0.7730246218806184 0
outer loop
vertex -2.77785 -4.15735 -15
vertex -2.77785 -4.15735 15
vertex -3.53555 -3.53555 15
endloop
endfacet
facet normal -0.6343760193815073 -0.7730246218806187 0
outer loop
vertex -2.77785 -4.15735 -15
vertex -3.53555 -3.53555 15
vertex -3.53555 -3.53555 -15
endloop
endfacet
facet normal -0.7730246218806185 -0.6343760193815077 0
outer loop
vertex -3.53555 -3.53555 -15
vertex -3.53555 -3.53555 15
vertex -4.15735 -2.77785 15
endloop
endfacet
facet normal -0.7730246218806185 -0.6343760193815077 0
outer loop
vertex -3.53555 -3.53555 -15
vertex -4.15735 -2.77785 15
vertex -4.15735 -2.77785 -15
endloop
endfacet
facet normal -0.8819247216806334 -0.47139026855519334 0
outer loop
vertex -4.15735 -2.77785 -15
vertex -4.15735 -2.77785 15
vertex -4.6194 -1.9134 15
endloop
endfacet
facet normal -0.8819247216806337 -0.47139026855519256 0
outer loop
vertex -4.15735 -2.77785 -15
vertex -4.6194 -1.9134 15
vertex -4.6194 -1.9134 -15
endloop
endfacet
facet normal -0.9569329730421394 -0.29030894768286397 0
outer loop
vertex -4.6194 -1.9134 -15
vertex -4.6194 -1.9134 15
vertex -4.90395 -0.97545 15
endloop
endfacet
facet normal -0.95693297304214 -0.29030894768286225 0
outer loop
vertex -4.6194 -1.9134 -15
vertex -4.90395 -0.97545 15
vertex -4.90395 -0.97545 -15
endloop
endfacet
facet normal -0.9951870590534536 -0.09799345637611655 0
outer loop
vertex -4.90395 -0.97545 -15
vertex -4.90395 -0.97545 15
vertex -5 0 15
endloop
endfacet
facet normal -0.9951870590534534 -0.09799345637611846 0
outer loop
vertex -4.90395 -0.97545 -15
vertex -5 0 15
vertex -5 0 -15
endloop
endfacet
facet normal -0.9951870590534534 0.09799345637611846 0
outer loop
vertex -5 0 -15
vertex -5 0 15
vertex -4.90395 0.97545 15
endloop
endfacet
facet normal -0.9951870590534536 0.09799345637611655 0
outer loop
vertex -5 0 -15
vertex -4.90395 0.97545 15
vertex -4.90395 0.97545 -15
endloop
endfacet
facet normal -0.95693297304214 0.29030894768286225 0
outer loop
vertex -4.90395 0.97545 -15
vertex -4.90395 0.97545 15
vertex -4.6194 1.9134 15
endloop
endfacet
facet normal -0.9569329730421394 0.29030894768286397 0
outer loop
vertex -4.90395 0.97545 -15
vertex -4.6194 1.9134 15
vertex -4.6194 1.9134 -15
endloop
endfacet
facet normal -0.8819247216806337 0.47139026855519256 0
outer loop
vertex -4.6194 1.9134 -15
vertex -4.6194 1.9134 15
vertex -4.15735 2.77785 15
endloop
endfacet
facet normal -0.8819247216806334 0.47139026855519334 0
outer loop
vertex -4.6194 1.9134 -15
vertex -4.15735 2.77785 15
vertex -4.15735 2.77785 -15
endloop
endfacet
facet normal -0.7730246218806185 0.6343760193815077 0
outer loop
vertex -4.15735 2.77785 -15
vertex -4.15735 2.77785 15
vertex -3.53555 3.53555 15
endloop
endfacet
facet normal -0.7730246218806185 0.6343760193815077 0
outer loop
vertex -4.15735 2.77785 -15
vertex -3.53555 3.53555 15
vertex -3.53555 3.53555 -15
endloop
endfacet
facet normal -0.6343760193815073 0.7730246218806187 0
outer loop
vertex -3.53555 3.53555 -15
vertex -3.53555 3.53555 15
vertex -2.77785 4.15735 15
endloop
endfacet
facet normal -0.6343760193815079 0.7730246218806184 0
outer loop
vertex -3.53555 3.53555 -15
vertex -2.77785 4.15735 15
vertex -2.77785 4.15735 -15
endloop
endfacet
facet normal -0.4713902685551931 0.8819247216806335 0
outer loop
vertex -2.77785 4.15735 -15
vertex -2.77785 4.15735 15
vertex -1.9134 4.6194 15
endloop
endfacet
facet normal -0.4713902685551927 0.8819247216806337 0
outer loop
vertex -2.77785 4.15735 -15
vertex -1.9134 4.6194 15
vertex -1.9134 4.6194 -15
endloop
endfacet
facet normal -0.2903089476828629 0.9569329730421399 0
outer loop
vertex -1.9134 4.6194 -15
vertex -1.9134 4.6194 15
vertex -0.97545 4.90395 15
endloop
endfacet
facet normal -0.2903089476828628 0.95693297304214 0
outer loop
vertex -1.9134 4.6194 -15
vertex -0.97545 4.90395 15
vertex -0.97545 4.90395 -15
endloop
endfacet
facet normal -0.09799345637611785 0.9951870590534534 0
outer loop
vertex -0.97545 4.90395 -15
vertex -0.97545 4.90395 15
vertex 0 5 15
endloop
endfacet
facet normal -0.09799345637611785 0.9951870590534534 0
outer loop
vertex -0.97545 4.90395 -15
vertex 0 5 15
vertex 0 5 -15
endloop
endfacet
facet normal 0.09799345637611785 0.9951870590534534 0
outer loop
vertex 0 5 -15
vertex 0 5 15
vertex 0.97545 4.90395 15
endloop
endfacet
facet normal 0.09799345637611785 0.9951870590534534 0
outer loop
vertex 0 5 -15
vertex 0.97545 4.90395 15
vertex 0.97545 4.90395 -15
endloop
endfacet
facet normal 0.2903089476828628 0.95693297304214 0
outer loop
vertex 0.97545 4.90395 -15
vertex 0.97545 4.90395 15
vertex 1.9134 4.6194 15
endloop
endfacet
facet normal 0.2903089476828629 0.9569329730421399 0
outer loop
vertex 0.97545 4.90395 -15
vertex 1.9134 4.6194 15
vertex 1.9134 4.6194 -15
endloop
endfacet
facet normal 0.4713902685551927 0.8819247216806337 0
outer loop
vertex 1.9134 4.6194 -15
vertex 1.9134 4.6194 15
vertex 2.77785 4.15735 15
endloop
endfacet
facet normal 0.4713902685551931 0.8819247216806335 0
outer loop
vertex 1.9134 4.6194 -15
vertex 2.77785 4.15735 15
vertex 2.77785 4.15735 -15
endloop
endfacet
facet normal 0.6343760193815079 0.7730246218806184 0
outer loop
vertex 2.77785 4.15735 -15
vertex 2.77785 4.15735 15
vertex 3.53555 3.53555 15
endloop
endfacet
facet normal 0.6343760193815073 0.7730246218806187 0
outer loop
vertex 2.77785 4.15735 -15
vertex 3.53555 3.53555 15
vertex 3.53555 3.53555 -15
endloop
endfacet
facet normal 0.7730246218806185 0.6343760193815077 0
outer loop
vertex 3.53555 3.53555 -15
vertex 3.53555 3.53555 15
vertex 4.15735 2.77785 15
endloop
endfacet
facet normal 0.7730246218806185 0.6343760193815077 0
outer loop
vertex 3.53555 3.53555 -15
vertex 4.15735 2.77785 15
vertex 4.15735 2.77785 -15
endloop
endfacet
facet normal 0.8819247216806334 0.47139026855519334 0
outer loop
vertex 4.15735 2.77785 -15
vertex 4.15735 2.77785 15
vertex 4.6194 1.9134 15
endloop
endfacet
facet normal 0.8819247216806337 0.47139026855519256 0
outer loop
vertex 4.15735 2.77785 -15
vertex 4.6194 1.9134 15
vertex 4.6194 1.9134 -15
endloop
endfacet
facet normal 0.9569329730421394 0.29030894768286397 0
outer loop
vertex 4.6194 1.9134 -15
vertex 4.6194 1.9134 15
vertex 4.90395 0.97545 15
endloop
endfacet
facet normal 0.95693297304214 0.29030894768286225 0
outer loop
vertex 4.6194 1.9134 -15
vertex 4.90395 0.97545 15
vertex 4.90395 0.97545 -15
endloop
endfacet
facet normal 0.9951870590534536 0.09799345637611655 0
outer loop
vertex 4.90395 0.97545 -15
vertex 4.90395 0.97545 15
vertex 5 0 15
endloop
endfacet
facet normal 0.9951870590534534 0.09799345637611846 0
outer loop
vertex 4.90395 0.97545 -15
vertex 5 0 15
vertex 5 0 -15
endloop
endfacet
facet normal 0.9951870590534534 -0.09799345637611846 0
outer loop
vertex 5 0 -15
vertex 5 0 15
vertex 4.90395 -0.97545 15
endloop
endfacet
facet normal 0.9951870590534536 -0.09799345637611655 0
outer loop
vertex 5 0 -15
vertex 4.90395 -0.97545 15
vertex 4.90395 -0.97545 -15
endloop
endfacet
facet normal 1.8950413863883637e-14 0 0.9999999999999999
outer loop
vertex 5 0 15
vertex 4.90395 0.97545 15
vertex 4.6194 1.9134 15
endloop
endfacet
facet normal -1.895592194898636e-14 0 1
outer loop
vertex 4.6194 1.9134 15
vertex 4.15735 2.77785 15
vertex 3.53555 3.53555 15
endloop
endfacet
facet normal 1.895592194898645e-14 0 1
outer loop
vertex 3.53555 3.53555 15
vertex 2.77785 4.15735 15
vertex 1.9134 4.6194 15
endloop
endfacet
facet normal 0 0 1
outer loop
vertex 1.9134 4.6194 15
vertex 0.97545 4.90395 15
vertex 0 5 15
endloop
endfacet
facet normal 0 0 1
outer loop
vertex 0 5 15
vertex -0.97545 4.90395 15
vertex -1.9134 4.6194 15
endloop
endfacet
facet normal -1.895592194898645e-14 0 1
outer loop
vertex -1.9134 4.6194 15
vertex -2.77785 4.15735 15
vertex -3.53555 3.53555 15
endloop
endfacet
facet normal 1.895592194898636e-14 0 1
outer loop
vertex -3.53555 3.53555 15
vertex -4.15735 2.77785 15
vertex -4.6194 1.9134 15
endloop
endfacet
facet normal -1.8950413863883637e-14 0 1
outer loop
vertex -4.6194 1.9134 15
vertex -4.90395 0.97545 15
vertex -5 0 15
endloop
endfacet
facet normal -1.8950413863883637e-14 0 0.9999999999999999
outer loop
vertex -5 0 15
vertex -4.90395 -0.97545 15
vertex -4.6194 -1.9134 15
endloop
endfacet
facet normal 1.895592194898636e-14 0 1
outer loop
vertex -4.6194 -1.9134 15
vertex -4.15735 -2.77785 15
vertex -3.53555 -3.53555 15
endloop
endfacet
facet normal -1.895592194898645e-14 0 1
outer loop
vertex -3.53555 -3.53555 15
vertex -2.77785 -4.15735 15
vertex -1.9134 -4.6194 15
endloop
endfacet
facet normal 0 0 1
outer loop
vertex -1.9134 -4.6194 15
vertex -0.97545 -4.90395 15
vertex 0 -5 15
endloop
endfacet
facet normal 0 0 1
outer loop
vertex 0 -5 15
vertex 0.97545 -4.90395 15
vertex 1.9134 -4.6194 15
endloop
endfacet
facet normal 1.895592194898645e-14 0 1
outer loop
vertex 1.9134 -4.6194 15
vertex 2.77785 -4.15735 15
vertex 3.53555 -3.53555 15
endloop
endfacet
facet normal -1.895592194898636e-14 0 1
outer loop
vertex 3.53555 -3.53555 15
vertex 4.15735 -2.77785 15
vertex 4.6194 -1.9134 15
endloop
endfacet
facet normal 1.8950413863883637e-14 0 1
outer loop
vertex 4.6194 -1.9134 15
vertex 4.90395 -0.97545 15
vertex 5 0 15
endloop
endfacet
facet normal 0 0 1
outer loop
vertex 5 0 15
vertex 4.6194 1.9134 15
vertex 3.53555 3.53555 15
endloop
endfacet
facet normal -1.2196497736309986e-15 0 1
outer loop
vertex 3.53555 3.53555 15
vertex 1.9134 4.6194 15
vertex 0 5 15
endloop
endfacet
facet normal 0 0 0.9999999999999999
outer loop
vertex 0 5 15
vertex -1.9134 4.6194 15
vertex -3.53555 3.53555 15
endloop
endfacet
facet normal 0 0 1
outer loop
vertex -3.53555 3.53555 15
vertex -4.6194 1.9134 15
vertex -5 0 15
endloop
endfacet
facet normal 0 0 1
outer loop
vertex -5 0 15
vertex -4.6194 -1.9134 15
vertex -3.53555 -3.53555 15
endloop
endfacet
facet normal 1.2196497736309986e-15 0 1
outer loop
vertex -3.53555 -3.53555 15
vertex -1.9134 -4.6194 15
vertex 0 -5 15
endloop
endfacet
facet normal 0 0 0.9999999999999999
outer loop
vertex 0 -5 15
vertex 1.9134 -4.6194 15
vertex 3.53555 -3.53555 15
endloop
endfacet
facet normal 0 0 1
outer loop
vertex 3.53555 -3.53555 15
vertex 4.6194 -1.9134 15
vertex 5 0 15
endloop
endfacet
facet normal 0 0 1
outer loop
vertex 5 0 15
vertex 3.53555 3.53555 15
vertex 0 5 15
endloop
endfacet
facet normal 0 0 1
outer loop
vertex 0 5 15
vertex -3.53555 3.53555 15
vertex -5 0 15
endloop
endfacet
facet normal 0 0 1
outer loop
vertex -5 0 15
vertex -3.53555 -3.53555 15
vertex 0 -5 15
endloop
endfacet
facet normal 0 0 1
outer loop
vertex 0 -5 15
vertex 3.53555 -3.53555 15
vertex 5 0 15
endloop
endfacet
facet normal 0 0 1
outer loop
vertex 5 0 15
vertex 0 5 15
vertex -5 0 15
endloop
endfacet
facet normal 0 0 1
outer loop
vertex -5 0 15
vertex 0 -5 15
vertex 5 0 15
endloop
endfacet
facet normal -1.895592194898636e-14 0 -1
outer loop
vertex 4.6194 -1.9134 -15
vertex 4.15735 -2.77785 -15
vertex 3.53555 -3.53555 -15
endloop
endfacet
facet normal 1.895592194898645e-14 0 -1
outer loop
vertex 3.53555 -3.53555 -15
vertex 2.77785 -4.15735 -15
vertex 1.9134 -4.6194 -15
endloop
endfacet
facet normal 0 0 -1
outer loop
vertex 1.9134 -4.6194 -15
vertex 0.97545 -4.90395 -15
vertex 0 -5 -15
endloop
endfacet
facet normal 0 0 -1
outer loop
vertex 0 -5 -15
vertex -0.97545 -4.90395 -15
vertex -1.9134 -4.6194 -15
endloop
endfacet
facet normal -1.895592194898645e-14 0 -1
outer loop
vertex -1.9134 -4.6194 -15
vertex -2.77785 -4.15735 -15
vertex -3.53555 -3.53555 -15
endloop
endfacet
facet normal 1.895592194898636e-14 0 -1
outer loop
vertex -3.53555 -3.53555 -15
vertex -4.15735 -2.77785 -15
vertex -4.6194 -1.9134 -15
endloop
endfacet
facet normal -1.8950413863883637e-14 0 -1
outer loop
vertex -4.6194 -1.9134 -15
vertex -4.90395 -0.97545 -15
vertex -5 0 -15
endloop
endfacet
facet normal -1.8950413863883637e-14 0 -0.9999999999999999
outer loop
vertex -5 0 -15
vertex -4.90395 0.97545 -15
vertex -4.6194 1.9134 -15
endloop
endfacet
facet normal 1.895592194898636e-14 0 -1
outer loop
vertex -4.6194 1.9134 -15
vertex -4.15735 2.77785 -15
vertex -3.53555 3.53555 -15
endloop
endfacet
facet normal -1.895592194898645e-14 0 -1
outer loop
vertex -3.53555 3.53555 -15
vertex -2.77785 4.15735 -15
vertex -1.9134 4.6194 -15
endloop
endfacet
facet normal 0 0 -1
outer loop
vertex -1.9134 4.6194 -15
vertex -0.97545 4.90395 -15
vertex 0 5 -15
endloop
endfacet
facet normal 0 0 -1
outer loop
vertex 0 5 -15
vertex 0.97545 4.90395 -15
vertex 1.9134 4.6194 -15
endloop
endfacet
facet normal 1.895592194898645e-14 0 -1
outer loop
vertex 1.9134 4.6194 -15
vertex 2.77785 4.15735 -15
vertex 3.53555 3.53555 -15
endloop
endfacet
facet normal -1.895592194898636e-14 0 -1
outer loop
vertex 3.53555 3.53555 -15
vertex 4.15735 2.77785 -15
vertex 4.6194 1.9134 -15
endloop
endfacet
facet normal 1.8950413863883637e-14 0 -1
outer loop
vertex 4.6194 1.9134 -15
vertex 4.90395 0.97545 -15
vertex 5 0 -15
endloop
endfacet
facet normal 1.8950413863883637e-14 0 -0.9999999999999999
outer loop
vertex 5 0 -15
vertex 4.90395 -0.97545 -15
vertex 4.6194 -1.9134 -15
endloop
endfacet
facet normal -9.755915439906276e-15 0 -1
outer loop
vertex 4.6194 -1.9134 -15
vertex 3.53555 -3.53555 -15
vertex 1.9134 -4.6194 -15
endloop
endfacet
facet normal 0 0 -0.9999999999999999
outer loop
vertex 1.9134 -4.6194 -15
vertex 0 -5 -15
vertex -1.9134 -4.6194 -15
endloop
endfacet
facet normal 9.755915439906276e-15 0 -1
outer loop
vertex -1.9134 -4.6194 -15
vertex -3.53555 -3.53555 -15
vertex -4.6194 -1.9134 -15
endloop
endfacet
facet normal 0 0 -1
outer loop
vertex -4.6194 -1.9134 -15
vertex -5 0 -15
vertex -4.6194 1.9134 -15
endloop
endfacet
facet normal 9.755915439906276e-15 0 -1
outer loop
vertex -4.6194 1.9134 -15
vertex -3.53555 3.53555 -15
vertex -1.9134 4.6194 -15
endloop
endfacet
facet normal 0 0 -0.9999999999999999
outer loop
vertex -1.9134 4.6194 -15
vertex 0 5 -15
vertex 1.9134 4.6194 -15
endloop
endfacet
facet normal -9.755915439906276e-15 0 -1
outer loop
vertex 1.9134 4.6194 -15
vertex 3.53555 3.53555 -15
vertex 4.6194 1.9134 -15
endloop
endfacet
facet normal 0 0 -1
outer loop
vertex 4.6194 1.9134 -15
vertex 5 0 -15
vertex 4.6194 -1.9134 -15
endloop
endfacet
facet normal 0 0 -1
outer loop
vertex 4.6194 -1.9134 -15
vertex 1.9134 -4.6194 -15
vertex -1.9134 -4.6194 -15
endloop
endfacet
facet normal -2.74464789448184e-15 0 -1
outer loop
vertex -1.9134 -4.6194 -15
vertex -4.6194 -1.9134 -15
vertex -4.6194 1.9134 -15
endloop
endfacet
facet normal 0 0 -1
outer loop
vertex -4.6194 1.9134 -15
vertex -1.9134 4.6194 -15
vertex 1.9134 4.6194 -15
endloop
endfacet
facet normal 2.74464789448184e-15 0 -1
outer loop
vertex 1.9134 4.6194 -15
vertex 4.6194 1.9134 -15
vertex 4.6194 -1.9134 -15
endloop
endfacet
facet normal 5.684351908730087e-16 0 -0.9999999999999999
outer loop
vertex 4.6194 -1.9134 -15
vertex -1.9134 -4.6194 -15
vertex -4.6194 1.9134 -15
endloop
endfacet
facet normal -5.684351908730087e-16 0 -0.9999999999999999
outer loop
vertex -4.6194 1.9134 -15
vertex 1.9134 4.6194 -15
vertex 4.6194 -1.9134 -15
endloop
endfacet
endsolid JSxCAD
