solid JSxCAD
facet normal 1.0939521950244722e-15 0 1
outer loop
vertex -24 -27.71281 3
vertex -23 -25.98076 3
vertex -23 25.98076 3
endloop
endfacet
facet normal 0 0 1
outer loop
vertex 22 0 3
vertex -23 -25.98076 3
vertex -24 -27.71281 3
endloop
endfacet
facet normal 0 0 1
outer loop
vertex -24 27.71281 3
vertex -24 -27.71281 3
vertex -23 25.98076 3
endloop
endfacet
facet normal 0 0 1
outer loop
vertex 22 0 3
vertex -24 -27.71281 3
vertex 24 0 3
endloop
endfacet
facet normal 0 0 0.9999999999999999
outer loop
vertex 24 0 3
vertex -24 27.71281 3
vertex -23 25.98076 3
endloop
endfacet
facet normal 0 0 0.9999999999999999
outer loop
vertex -23 25.98076 3
vertex 22 0 3
vertex 24 0 3
endloop
endfacet
facet normal 0.499999960472677 0.8660254266055479 0
outer loop
vertex 24 0 3
vertex 24 0 -3
vertex -24 27.71281 -3
endloop
endfacet
facet normal 0.499999960472677 0.8660254266055479 0
outer loop
vertex -24 27.71281 -3
vertex -24 27.71281 3
vertex 24 0 3
endloop
endfacet
facet normal 0 0 -1
outer loop
vertex -23 -25.98076 -3
vertex -24 -27.71281 -3
vertex -24 27.71281 -3
endloop
endfacet
facet normal 0 0 -0.9999999999999999
outer loop
vertex -24 -27.71281 -3
vertex -23 -25.98076 -3
vertex 22 0 -3
endloop
endfacet
facet normal 0 0 -1
outer loop
vertex -23 25.98076 -3
vertex -23 -25.98076 -3
vertex -24 27.71281 -3
endloop
endfacet
facet normal 0 0 -1
outer loop
vertex 24 0 -3
vertex -24 -27.71281 -3
vertex 22 0 -3
endloop
endfacet
facet normal 0 0 -1
outer loop
vertex -23 25.98076 -3
vertex -24 27.71281 -3
vertex 24 0 -3
endloop
endfacet
facet normal 0 0 -0.9999999999999999
outer loop
vertex 24 0 -3
vertex 22 0 -3
vertex -23 25.98076 -3
endloop
endfacet
facet normal 0.499999960472677 -0.8660254266055479 0
outer loop
vertex 24 0 -3
vertex 24 0 3
vertex -24 -27.71281 3
endloop
endfacet
facet normal 0.499999960472677 -0.8660254266055479 0
outer loop
vertex -24 -27.71281 3
vertex -24 -27.71281 -3
vertex 24 0 -3
endloop
endfacet
facet normal -1 0 0
outer loop
vertex -24 27.71281 -3
vertex -24 -27.71281 -3
vertex -24 -27.71281 3
endloop
endfacet
facet normal -1 0 0
outer loop
vertex -24 -27.71281 3
vertex -24 27.71281 3
vertex -24 27.71281 -3
endloop
endfacet
facet normal 1 0 0
outer loop
vertex -23 25.98076 -3
vertex -23 25.98076 3
vertex -23 -25.98076 3
endloop
endfacet
facet normal 1 0 0
outer loop
vertex -23 -25.98076 3
vertex -23 -25.98076 -3
vertex -23 25.98076 -3
endloop
endfacet
facet normal -0.49999996949377556 0.8660254213972147 0
outer loop
vertex -23 -25.98076 3
vertex 22 0 3
vertex 22 0 -3
endloop
endfacet
facet normal -0.49999996949377556 0.8660254213972147 0
outer loop
vertex 22 0 -3
vertex -23 -25.98076 -3
vertex -23 -25.98076 3
endloop
endfacet
facet normal -0.49999996949377556 -0.8660254213972147 0
outer loop
vertex -23 25.98076 3
vertex -23 25.98076 -3
vertex 22 0 -3
endloop
endfacet
facet normal -0.49999996949377556 -0.8660254213972147 0
outer loop
vertex 22 0 -3
vertex 22 0 3
vertex -23 25.98076 3
endloop
endfacet
endsolid JSxCAD
