<?xml version="1.0" encoding="UTF-8"?>
<!-- Generated by jsxcad -->
<!DOCTYPE svg PUBLIC "-//W3C//DTD SVG 1.1 Tiny//EN" "http://www.w3.org/Graphics/SVG/1.1/DTD/svg11-tiny.dtd">
<svg baseProfile="tiny" height="40mm" width="40mm" viewBox="0 0 40 40" version="1.1" stroke="black" stroke-width=".1" fill="none" xmlns="http://www.w3.org/2000/svg">
<path fill="green" stroke="none" d="M23.90181 0.38429 L27.65367 1.52241 L31.1114 3.37061 L34.14214 5.85786 L36.62939 8.8886 L38.47759 12.34633 L39.61571 16.09819 L40 20 L39.61571 23.90181 L38.47759 27.65367 L36.62939 31.1114 L34.14214 34.14214 L31.1114 36.62939 L27.65367 38.47759 L23.90181 39.61571 L20 40 L16.09819 39.61571 L12.34633 38.47759 L8.8886 36.62939 L5.85786 34.14214 L3.37061 31.1114 L1.52241 27.65367 L0.38429 23.90181 L0 20 L0.38429 16.09819 L1.52241 12.34633 L3.37061 8.8886 L5.85786 5.85786 L8.8886 3.37061 L12.34633 1.52241 L16.09819 0.38429 L20 0 z M18.0491 10.19215 L16.17317 10.7612 L14.4443 11.6853 L12.92893 12.92893 L11.6853 14.4443 L10.7612 16.17317 L10.19215 18.0491 L10 20 L10.19215 21.9509 L10.7612 23.82683 L11.6853 25.5557 L12.92893 27.07107 L14.4443 28.3147 L16.17317 29.2388 L18.0491 29.80785 L20 30 L21.9509 29.80785 L23.82683 29.2388 L25.5557 28.3147 L27.07107 27.07107 L28.3147 25.5557 L29.2388 23.82683 L29.80785 21.9509 L30 20 L29.80785 18.0491 L29.2388 16.17317 L28.3147 14.4443 L27.07107 12.92893 L25.5557 11.6853 L23.82683 10.7612 L21.9509 10.19215 L20 10 z"/>
</svg>