<?xml version="1.0" encoding="UTF-8"?>
<!-- Generated by jsxcad -->
<!DOCTYPE svg PUBLIC "-//W3C//DTD SVG 1.1 Tiny//EN" "http://www.w3.org/Graphics/SVG/1.1/DTD/svg11-tiny.dtd">
<svg baseProfile="tiny" height="42mm" width="42mm" viewBox="0 0 42 42" version="1.1" stroke="black" stroke-width=".1" fill="none" xmlns="http://www.w3.org/2000/svg">
<path fill="green" stroke="none" d="M6.45813 7.34494 L6.85786 6.85786 L9.40152 4.77034 L9.8886 4.37061 L12.79063 2.81944 L13.34633 2.52241 L16.49522 1.5672 L17.09819 1.38429 L20.37293 1.06176 L21 1 L24.27474 1.32253 L24.90181 1.38429 L28.0507 2.3395 L28.65367 2.52241 L31.5557 4.07358 L32.1114 4.37061 L34.65506 6.45813 L35.14214 6.85786 L37.22966 9.40152 L37.62939 9.8886 L39.18056 12.79063 L39.47759 13.34633 L40.4328 16.49522 L40.61571 17.09819 L40.67747 17.72526 L41 21 L40.93824 21.62707 L40.61571 24.90181 L40.4328 25.50478 L39.47759 28.65367 L39.18056 29.20937 L37.62939 32.1114 L37.22966 32.59848 L35.14214 35.14214 L34.65506 35.54187 L32.1114 37.62939 L31.5557 37.92642 L28.65367 39.47759 L28.0507 39.6605 L24.90181 40.61571 L24.27474 40.67747 L21 41 L20.37293 40.93824 L17.09819 40.61571 L16.49522 40.4328 L13.34633 39.47759 L9.8886 37.62939 L6.85786 35.14214 L4.37061 32.1114 L2.52241 28.65367 L1.38429 24.90181 L1 21 L1.38429 17.09819 L2.52241 13.34633 L4.37061 9.8886 z M11.19215 22.9509 L11.7612 24.82683 L12.6853 26.5557 L13.92893 28.07107 L15.4443 29.3147 L17.17317 30.2388 L19.0491 30.80785 L21 31 L22.9509 30.80785 L24.82683 30.2388 L26.5557 29.3147 L28.07107 28.07107 L29.3147 26.5557 L30.2388 24.82683 L30.80785 22.9509 L31 21 L30.80785 19.0491 L30.2388 17.17317 L29.3147 15.4443 L28.07107 13.92893 L26.5557 12.6853 L24.82683 11.7612 L22.9509 11.19215 L21 11 L19.0491 11.19215 L17.17317 11.7612 L15.4443 12.6853 L13.92893 13.92893 L12.6853 15.4443 L11.7612 17.17317 L11.19215 19.0491 L11 21 z"/>
</svg>