<?xml version="1.0" encoding="UTF-8" standalone="no"?>
<svg
   xmlns:dc="http://purl.org/dc/elements/1.1/"
   xmlns:cc="http://creativecommons.org/ns#"
   xmlns:rdf="http://www.w3.org/1999/02/22-rdf-syntax-ns#"
   xmlns:svg="http://www.w3.org/2000/svg"
   xmlns="http://www.w3.org/2000/svg"
   xmlns:sodipodi="http://sodipodi.sourceforge.net/DTD/sodipodi-0.dtd"
   xmlns:inkscape="http://www.inkscape.org/namespaces/inkscape"
   inkscape:version="1.0rc1 (09960d6f05, 2020-04-09)"
   height="384.2937"
   width="275.98923"
   sodipodi:docname="download.svg"
   id="svg8"
   version="1.1"
   viewBox="0 0 275.98923 384.29371">
  <metadata
     id="metadata14">
    <rdf:RDF>
      <cc:Work
         rdf:about="">
        <dc:format>image/svg+xml</dc:format>
        <dc:type
           rdf:resource="http://purl.org/dc/dcmitype/StillImage" />
        <dc:title />
      </cc:Work>
    </rdf:RDF>
  </metadata>
  <defs
     id="defs12" />
  <sodipodi:namedview
     inkscape:document-rotation="0"
     inkscape:current-layer="g4"
     inkscape:window-maximized="1"
     inkscape:window-y="0"
     inkscape:window-x="0"
     inkscape:cy="337.91314"
     inkscape:cx="160.33634"
     inkscape:zoom="3.0186815"
     inkscape:showpageshadow="false"
     fit-margin-bottom="10"
     fit-margin-right="10"
     fit-margin-left="10"
     fit-margin-top="10"
     showgrid="false"
     id="namedview10"
     inkscape:window-height="1005"
     inkscape:window-width="1920"
     inkscape:pageshadow="2"
     inkscape:pageopacity="0"
     guidetolerance="10"
     gridtolerance="10"
     objecttolerance="10"
     borderopacity="1"
     bordercolor="#666666"
     pagecolor="#ffffff" />
  <g
     id="g6"
     transform="matrix(1.25,0,0,-1.25,98.279489,305.85882)">
    <g
       id="g4"
       transform="scale(0.24)">
      <path
         sodipodi:nodetypes="ccccccccccccccccccccccccccccccccccccccc"
         inkscape:connector-curvature="0"
         style="fill:#dddddd;fill-opacity:1;stroke:#000000;stroke-width:3.49873805;stroke-miterlimit:4;stroke-dasharray:none;stroke-opacity:1"
         id="path2"
         d="m -129.93613,938.52466 c 32.928974,-43.42221 53.371856,-157.3964 55.087637,-212.04499 3.254204,-60.33487 -24.542214,-325.78442 13.436015,-359.67137 23.822047,-23.01359 107.325488,67.11897 204.227338,40.26172 86.91888,-23.08204 125.93168,-152.95428 197.50932,-205.33478 15.79806,-12.07851 31.33277,-23.88996 47.02603,-34.89349 9.98295,-6.63111 30.0577,-10.95655 41.65163,-16.10469 48.90035,-21.23671 90.94028,-49.19445 110.17527,-100.654296 16.98811,-48.5087965 22.67391,-82.15281 14.3032,-125.91644 -1.87836,-17.425276 -19.64669,-58.695624 -35.80081,-68.681874 -63.34809,-36.67037 -125.55816,-63.69002 -198.85293,-75.15522 -10.88586,-1.5255 -76.82173,-16.4818 -76.58525,4.02617 1.51692,47.67928 329.5584,45.49843 247.22255,225.4656462 C 480.4416,31.084599 449.07658,55.676459 427.65824,64.8454 406.38098,73.82107 337.43812,85.284925 313.45217,84.976256 244.05787,86.444464 250.58643,2.8436876 246.27212,-43.861255 c -3.16418,-38.138576 -56.43123,-49.179698 -84.64686,-34.893489 -18.47988,9.069632 -9.57852,87.2283631 -10.7488,107.364595 l -4.0308,1.34206 C 126.52369,17.543237 101.10545,19.23692 79.66561,9.8210462 77.162483,-23.504925 75.719458,-142.24747 40.701183,-155.25201 c -5.017005,-2.20702 -10.107904,-0.87018 -14.779607,-2.68412 -16.7842627,-0.69197 -44.732502,1.49935 -53.744036,17.44675 -13.945233,23.63765 5.442934,116.742882 -6.718002,138.2319074 C -39.526569,5.737165 -49.661343,5.2553608 -58.725279,5.7948732 -76.827603,-25.947471 -63.406388,-123.4721 -99.033304,-143.17349 c -13.015456,-6.86234 -44.024426,-3.11922 -55.087636,5.36823 -47.63468,35.23436 7.24873,149.599133 2.6872,201.3086 -2.78126,25.567531 -45.41505,110.71973 -52.40044,163.73099 -22.44753,165.18042 26.31578,329.43482 44.33885,492.53505 l 0.66704,11.39538 c 4.59244,25.99163 4.81215,77.60988 -11.41586,98.65327 -3.81031,6.02321 -8.41323,4.45032 -13.43601,1.34211 -18.08083,-8.24156 -39.26405,-19.33908 -60.46203,-17.44681 -13.23139,0.27787 -48.79422,13.12671 -48.36964,30.86741 -0.0997,46.31168 25.73802,57.35685 48.36964,91.2599 11.02168,14.6418 11.61475,40.63343 32.24641,46.97196 22.26347,6.56937 53.69413,-8.05851 66.31911,-21.32663 6.15043,-7.4048 11.35849,-16.80122 15.64054,-22.96131 z" />
    </g>
  </g>
</svg>
