solid JSxCAD
facet normal -0.9239186481023433 0.3825889853207204 0
  outer loop
    vertex -6 0 -4
    vertex -6 0 0
    vertex -4.243 4.243 0
  endloop
endfacet
facet normal -0.9239186481023433 0.3825889853207204 0
  outer loop
    vertex -6 0 -4
    vertex -4.243 4.243 0
    vertex -4.243 4.243 -4
  endloop
endfacet
facet normal 0 0 1
  outer loop
    vertex -6 0 0
    vertex -4.243 -4.243 0
    vertex -4.243 4.243 0
  endloop
endfacet
facet normal -0.9239186481023433 -0.3825889853207204 0
  outer loop
    vertex -6 0 0
    vertex -4.243 -4.243 -4
    vertex -4.243 -4.243 0
  endloop
endfacet
facet normal 0 0 -1
  outer loop
    vertex -6 0 0
    vertex -4.243 4.243 0
    vertex -4.243 -4.243 0
  endloop
endfacet
facet normal -0.9239186481023433 0.3825889853207204 0
  outer loop
    vertex -6 0 0
    vertex -4.243 4.243 4
    vertex -4.243 4.243 0
  endloop
endfacet
facet normal -0.9239186481023433 0.3825889853207204 0
  outer loop
    vertex -6 0 0
    vertex -6 0 4
    vertex -4.243 4.243 4
  endloop
endfacet
facet normal -0.9239186481023433 -0.3825889853207204 0
  outer loop
    vertex -6 0 4
    vertex -4.243 -4.243 0
    vertex -4.243 -4.243 4
  endloop
endfacet
facet normal -7.917087130187855e-15 0 -0.9999999999999999
  outer loop
    vertex -4.243 -4.243 -4
    vertex -3.998 0.14 -4
    vertex -3.978 -0.418 -4
  endloop
endfacet
facet normal 0 0 -1
  outer loop
    vertex -4.243 -4.243 -4
    vertex -6 0 -4
    vertex -4.243 4.243 -4
  endloop
endfacet
facet normal 0 0 -1
  outer loop
    vertex -4.243 -4.243 -4
    vertex -1.8780000000000001 -3.532 -4
    vertex 0 -6 -4
  endloop
endfacet
facet normal 0 0 -1
  outer loop
    vertex -4.243 -4.243 -4
    vertex -2.351 -3.236 -4
    vertex -1.8780000000000001 -3.532 -4
  endloop
endfacet
facet normal 0 0 -1
  outer loop
    vertex -4.243 -4.243 -4
    vertex -2.779 -2.8770000000000002 -4
    vertex -2.351 -3.236 -4
  endloop
endfacet
facet normal 0 0 -1
  outer loop
    vertex -4.243 -4.243 -4
    vertex -3.152 -2.463 -4
    vertex -2.779 -2.8770000000000002 -4
  endloop
endfacet
facet normal 0 0 -1
  outer loop
    vertex -4.243 -4.243 -4
    vertex -3.464 -2 -4
    vertex -3.152 -2.463 -4
  endloop
endfacet
facet normal -1.8885499247817596e-15 0 -1
  outer loop
    vertex -4.243 -4.243 -4
    vertex -3.709 -1.498 -4
    vertex -3.464 -2 -4
  endloop
endfacet
facet normal 2.3522920167914726e-15 0 -1
  outer loop
    vertex -4.243 -4.243 -4
    vertex -3.8810000000000002 -0.968 -4
    vertex -3.709 -1.498 -4
  endloop
endfacet
facet normal -3.437389268831214e-15 0 -1
  outer loop
    vertex -4.243 -4.243 -4
    vertex -3.978 -0.418 -4
    vertex -3.8810000000000002 -0.968 -4
  endloop
endfacet
facet normal 0 0 -1
  outer loop
    vertex -4.243 -4.243 -4
    vertex -4.243 4.243 -4
    vertex -3.998 0.14 -4
  endloop
endfacet
facet normal -0.9239186481023433 -0.3825889853207204 0
  outer loop
    vertex -4.243 -4.243 -4
    vertex -6 0 0
    vertex -6 0 -4
  endloop
endfacet
facet normal 0 0 0.9999999999999999
  outer loop
    vertex -4.243 -4.243 0
    vertex -3.978 -0.418 0
    vertex -3.998 0.14 0
  endloop
endfacet
facet normal 0 0 1
  outer loop
    vertex -4.243 -4.243 0
    vertex -1.8780000000000001 -3.532 0
    vertex -2.351 -3.236 0
  endloop
endfacet
facet normal 0 0 1
  outer loop
    vertex -4.243 -4.243 0
    vertex -2.351 -3.236 0
    vertex -2.779 -2.8770000000000002 0
  endloop
endfacet
facet normal 0 0 1
  outer loop
    vertex -4.243 -4.243 0
    vertex -2.779 -2.8770000000000002 0
    vertex -3.152 -2.463 0
  endloop
endfacet
facet normal 0 0 1
  outer loop
    vertex -4.243 -4.243 0
    vertex -3.152 -2.463 0
    vertex -3.464 -2 0
  endloop
endfacet
facet normal 0 0 1
  outer loop
    vertex -4.243 -4.243 0
    vertex -3.464 -2 0
    vertex -3.709 -1.498 0
  endloop
endfacet
facet normal 0 0 1
  outer loop
    vertex -4.243 -4.243 0
    vertex -3.709 -1.498 0
    vertex -3.8810000000000002 -0.968 0
  endloop
endfacet
facet normal 0 0 1
  outer loop
    vertex -4.243 -4.243 0
    vertex -3.8810000000000002 -0.968 0
    vertex -3.978 -0.418 0
  endloop
endfacet
facet normal 0 0 1
  outer loop
    vertex -4.243 -4.243 0
    vertex -3.998 0.14 0
    vertex -4.243 4.243 0
  endloop
endfacet
facet normal -0.3825889853207204 -0.9239186481023433 0
  outer loop
    vertex -4.243 -4.243 0
    vertex 0 -6 -4
    vertex 0 -6 0
  endloop
endfacet
facet normal 0 0 -1
  outer loop
    vertex -4.243 -4.243 0
    vertex -2.973 -2.677 0
    vertex -2.571 -3.064 0
  endloop
endfacet
facet normal 0 0 -1
  outer loop
    vertex -4.243 -4.243 0
    vertex -2.571 -3.064 0
    vertex -2.12 -3.392 0
  endloop
endfacet
facet normal 0 0 -1
  outer loop
    vertex -4.243 -4.243 0
    vertex -3.939 -0.6950000000000001 0
    vertex -3.8040000000000003 -1.236 0
  endloop
endfacet
facet normal 0 0 -1
  outer loop
    vertex -4.243 -4.243 0
    vertex -3.998 -0.14 0
    vertex -3.939 -0.6950000000000001 0
  endloop
endfacet
facet normal 0 0 -1
  outer loop
    vertex -4.243 -4.243 0
    vertex -4.243 4.243 0
    vertex -3.998 -0.14 0
  endloop
endfacet
facet normal 0 0 -1
  outer loop
    vertex -4.243 -4.243 0
    vertex -3.8040000000000003 -1.236 0
    vertex -3.595 -1.7530000000000001 0
  endloop
endfacet
facet normal 0 0 -1
  outer loop
    vertex -4.243 -4.243 0
    vertex -3.595 -1.7530000000000001 0
    vertex -3.3160000000000003 -2.237 0
  endloop
endfacet
facet normal 0 0 -1
  outer loop
    vertex -4.243 -4.243 0
    vertex -3.3160000000000003 -2.237 0
    vertex -2.973 -2.677 0
  endloop
endfacet
facet normal -0.9239186481023433 -0.3825889853207204 0
  outer loop
    vertex -4.243 -4.243 0
    vertex -6 0 4
    vertex -6 0 0
  endloop
endfacet
facet normal 0 0 1
  outer loop
    vertex -4.243 -4.243 4
    vertex -2.571 -3.064 4
    vertex -2.973 -2.677 4
  endloop
endfacet
facet normal 0 0 1
  outer loop
    vertex -4.243 -4.243 4
    vertex -4.243 4.243 4
    vertex -6 0 4
  endloop
endfacet
facet normal 0 0 1
  outer loop
    vertex -4.243 -4.243 4
    vertex 0 -6 4
    vertex -2.12 -3.392 4
  endloop
endfacet
facet normal 0 0 1
  outer loop
    vertex -4.243 -4.243 4
    vertex -2.12 -3.392 4
    vertex -2.571 -3.064 4
  endloop
endfacet
facet normal -5.5214030728400685e-15 0 1
  outer loop
    vertex -4.243 -4.243 4
    vertex -3.8040000000000003 -1.236 4
    vertex -3.939 -0.6950000000000001 4
  endloop
endfacet
facet normal 1.1746775836394505e-14 0 1
  outer loop
    vertex -4.243 -4.243 4
    vertex -3.939 -0.6950000000000001 4
    vertex -3.998 -0.14 4
  endloop
endfacet
facet normal 0 0 1
  outer loop
    vertex -4.243 -4.243 4
    vertex -3.998 -0.14 4
    vertex -4.243 4.243 4
  endloop
endfacet
facet normal 2.0765756937482027e-15 0 1
  outer loop
    vertex -4.243 -4.243 4
    vertex -3.595 -1.7530000000000001 4
    vertex -3.8040000000000003 -1.236 4
  endloop
endfacet
facet normal 0 0 1
  outer loop
    vertex -4.243 -4.243 4
    vertex -3.3160000000000003 -2.237 4
    vertex -3.595 -1.7530000000000001 4
  endloop
endfacet
facet normal 0 0 1
  outer loop
    vertex -4.243 -4.243 4
    vertex -2.973 -2.677 4
    vertex -3.3160000000000003 -2.237 4
  endloop
endfacet
facet normal -0.3825889853207204 -0.9239186481023433 0
  outer loop
    vertex -4.243 -4.243 4
    vertex 0 -6 0
    vertex 0 -6 4
  endloop
endfacet
facet normal 0 0 -1
  outer loop
    vertex -4.243 4.243 -4
    vertex -2.571 3.064 -4
    vertex -2.973 2.677 -4
  endloop
endfacet
facet normal 0 0 -1
  outer loop
    vertex -4.243 4.243 -4
    vertex 0 6 -4
    vertex -2.12 3.392 -4
  endloop
endfacet
facet normal 0 0 -1
  outer loop
    vertex -4.243 4.243 -4
    vertex -2.12 3.392 -4
    vertex -2.571 3.064 -4
  endloop
endfacet
facet normal 2.0765756937482027e-15 0 -1
  outer loop
    vertex -4.243 4.243 -4
    vertex -3.595 1.7530000000000001 -4
    vertex -3.8040000000000003 1.236 -4
  endloop
endfacet
facet normal 0 0 -1
  outer loop
    vertex -4.243 4.243 -4
    vertex -3.3160000000000003 2.237 -4
    vertex -3.595 1.7530000000000001 -4
  endloop
endfacet
facet normal 0 0 -1
  outer loop
    vertex -4.243 4.243 -4
    vertex -2.973 2.677 -4
    vertex -3.3160000000000003 2.237 -4
  endloop
endfacet
facet normal -0.3825889853207204 0.9239186481023433 0
  outer loop
    vertex -4.243 4.243 -4
    vertex -4.243 4.243 0
    vertex 0 6 0
  endloop
endfacet
facet normal -0.3825889853207204 0.9239186481023433 0
  outer loop
    vertex -4.243 4.243 -4
    vertex 0 6 0
    vertex 0 6 -4
  endloop
endfacet
facet normal 0 0 1
  outer loop
    vertex -4.243 4.243 0
    vertex -3.939 0.6950000000000001 0
    vertex -3.8040000000000003 1.236 0
  endloop
endfacet
facet normal 0 0 1
  outer loop
    vertex -4.243 4.243 0
    vertex -3.998 0.14 0
    vertex -3.939 0.6950000000000001 0
  endloop
endfacet
facet normal -0.3825889853207204 0.9239186481023433 0
  outer loop
    vertex -4.243 4.243 0
    vertex 0 6 4
    vertex 0 6 0
  endloop
endfacet
facet normal -0.3825889853207204 0.9239186481023433 0
  outer loop
    vertex -4.243 4.243 0
    vertex -4.243 4.243 4
    vertex 0 6 4
  endloop
endfacet
facet normal -7.917087130187855e-15 0 0.9999999999999999
  outer loop
    vertex -4.243 4.243 4
    vertex -3.998 -0.14 4
    vertex -3.978 0.418 4
  endloop
endfacet
facet normal 0 0 1
  outer loop
    vertex -4.243 4.243 4
    vertex -1.8780000000000001 3.532 4
    vertex 0 6 4
  endloop
endfacet
facet normal 0 0 1
  outer loop
    vertex -4.243 4.243 4
    vertex -2.351 3.236 4
    vertex -1.8780000000000001 3.532 4
  endloop
endfacet
facet normal 0 0 1
  outer loop
    vertex -4.243 4.243 4
    vertex -2.779 2.8770000000000002 4
    vertex -2.351 3.236 4
  endloop
endfacet
facet normal 0 0 1
  outer loop
    vertex -4.243 4.243 4
    vertex -3.152 2.463 4
    vertex -2.779 2.8770000000000002 4
  endloop
endfacet
facet normal 0 0 1
  outer loop
    vertex -4.243 4.243 4
    vertex -3.464 2 4
    vertex -3.152 2.463 4
  endloop
endfacet
facet normal -1.8885499247817596e-15 0 1
  outer loop
    vertex -4.243 4.243 4
    vertex -3.709 1.498 4
    vertex -3.464 2 4
  endloop
endfacet
facet normal 2.3522920167914726e-15 0 1
  outer loop
    vertex -4.243 4.243 4
    vertex -3.8810000000000002 0.968 4
    vertex -3.709 1.498 4
  endloop
endfacet
facet normal -3.437389268831214e-15 0 1
  outer loop
    vertex -4.243 4.243 4
    vertex -3.978 0.418 4
    vertex -3.8810000000000002 0.968 4
  endloop
endfacet
facet normal 0 0 -0.9999999999999999
  outer loop
    vertex -3.998 -0.14 0
    vertex -4.243 4.243 0
    vertex -3.978 0.418 0
  endloop
endfacet
facet normal 0.9993582832133432 -0.03581929330513698 0
  outer loop
    vertex -3.998 -0.14 0
    vertex -3.978 0.418 0
    vertex -3.998 -0.14 4
  endloop
endfacet
facet normal 0.9943969304921895 0.10571066468295376 0
  outer loop
    vertex -3.998 -0.14 0
    vertex -3.939 -0.6950000000000001 4
    vertex -3.939 -0.6950000000000001 0
  endloop
endfacet
facet normal 0.999358283213343 -0.03581929330513856 0
  outer loop
    vertex -3.998 -0.14 4
    vertex -3.978 0.418 0
    vertex -3.978 0.418 4
  endloop
endfacet
facet normal 9.397420669115604e-15 0 -1
  outer loop
    vertex -3.998 0.14 -4
    vertex -4.243 4.243 -4
    vertex -3.939 0.6950000000000001 -4
  endloop
endfacet
facet normal 0.999358283213343 0.03581929330513856 0
  outer loop
    vertex -3.998 0.14 -4
    vertex -3.978 -0.418 0
    vertex -3.978 -0.418 -4
  endloop
endfacet
facet normal 0.9943969304921895 -0.10571066468295376 0
  outer loop
    vertex -3.998 0.14 -4
    vertex -3.939 0.6950000000000001 -4
    vertex -3.998 0.14 0
  endloop
endfacet
facet normal 0.9943969304921895 -0.10571066468295376 0
  outer loop
    vertex -3.998 0.14 0
    vertex -3.939 0.6950000000000001 -4
    vertex -3.939 0.6950000000000001 0
  endloop
endfacet
facet normal 0.9848015791747762 0.17368318759991422 0
  outer loop
    vertex -3.978 -0.418 -4
    vertex -3.8810000000000002 -0.968 0
    vertex -3.8810000000000002 -0.968 -4
  endloop
endfacet
facet normal 0.9993582832133432 0.03581929330513698 0
  outer loop
    vertex -3.978 -0.418 0
    vertex -3.998 0.14 -4
    vertex -3.998 0.14 0
  endloop
endfacet
facet normal 0 0 -1
  outer loop
    vertex -3.978 0.418 0
    vertex -4.243 4.243 0
    vertex -3.8810000000000002 0.968 0
  endloop
endfacet
facet normal 0.9848015791747758 -0.17368318759991574 0
  outer loop
    vertex -3.978 0.418 0
    vertex -3.8810000000000002 0.968 0
    vertex -3.978 0.418 4
  endloop
endfacet
facet normal 0.9848015791747762 -0.17368318759991422 0
  outer loop
    vertex -3.978 0.418 4
    vertex -3.8810000000000002 0.968 0
    vertex -3.8810000000000002 0.968 4
  endloop
endfacet
facet normal 0.9702479044993307 0.24211361757376978 0
  outer loop
    vertex -3.939 -0.6950000000000001 0
    vertex -3.8040000000000003 -1.236 4
    vertex -3.8040000000000003 -1.236 0
  endloop
endfacet
facet normal 0.9943969304921895 0.10571066468295376 0
  outer loop
    vertex -3.939 -0.6950000000000001 4
    vertex -3.998 -0.14 0
    vertex -3.998 -0.14 4
  endloop
endfacet
facet normal -5.5214030728400685e-15 0 -1
  outer loop
    vertex -3.939 0.6950000000000001 -4
    vertex -4.243 4.243 -4
    vertex -3.8040000000000003 1.236 -4
  endloop
endfacet
facet normal 0.9702479044993307 -0.24211361757376978 0
  outer loop
    vertex -3.939 0.6950000000000001 -4
    vertex -3.8040000000000003 1.236 -4
    vertex -3.939 0.6950000000000001 0
  endloop
endfacet
facet normal 0.9702479044993307 -0.24211361757376978 0
  outer loop
    vertex -3.939 0.6950000000000001 0
    vertex -3.8040000000000003 1.236 -4
    vertex -3.8040000000000003 1.236 0
  endloop
endfacet
facet normal 0.9511658673074863 0.30868024372997616 0
  outer loop
    vertex -3.8810000000000002 -0.968 -4
    vertex -3.709 -1.498 0
    vertex -3.709 -1.498 -4
  endloop
endfacet
facet normal 0.9848015791747758 0.17368318759991574 0
  outer loop
    vertex -3.8810000000000002 -0.968 0
    vertex -3.978 -0.418 -4
    vertex -3.978 -0.418 0
  endloop
endfacet
facet normal 0 0 -0.9999999999999999
  outer loop
    vertex -3.8810000000000002 0.968 0
    vertex -4.243 4.243 0
    vertex -3.709 1.498 0
  endloop
endfacet
facet normal 0.9511658673074858 -0.30868024372997754 0
  outer loop
    vertex -3.8810000000000002 0.968 0
    vertex -3.709 1.498 0
    vertex -3.8810000000000002 0.968 4
  endloop
endfacet
facet normal 0.9511658673074863 -0.30868024372997616 0
  outer loop
    vertex -3.8810000000000002 0.968 4
    vertex -3.709 1.498 0
    vertex -3.709 1.498 4
  endloop
endfacet
facet normal 0.927110065704154 0.3747891754974248 0
  outer loop
    vertex -3.8040000000000003 -1.236 0
    vertex -3.595 -1.7530000000000001 4
    vertex -3.595 -1.7530000000000001 0
  endloop
endfacet
facet normal 0.9702479044993307 0.24211361757376978 0
  outer loop
    vertex -3.8040000000000003 -1.236 4
    vertex -3.939 -0.6950000000000001 0
    vertex -3.939 -0.6950000000000001 4
  endloop
endfacet
facet normal 0.9271100657041546 -0.3747891754974234 0
  outer loop
    vertex -3.8040000000000003 1.236 -4
    vertex -3.595 1.7530000000000001 -4
    vertex -3.8040000000000003 1.236 0
  endloop
endfacet
facet normal 0 0 0.9999999999999999
  outer loop
    vertex -3.8040000000000003 1.236 0
    vertex -3.595 1.7530000000000001 0
    vertex -4.243 4.243 0
  endloop
endfacet
facet normal 0.927110065704154 -0.3747891754974248 0
  outer loop
    vertex -3.8040000000000003 1.236 0
    vertex -3.595 1.7530000000000001 -4
    vertex -3.595 1.7530000000000001 0
  endloop
endfacet
facet normal 0.898682402201396 0.4385999771700042 0
  outer loop
    vertex -3.709 -1.498 -4
    vertex -3.464 -2 0
    vertex -3.464 -2 -4
  endloop
endfacet
facet normal 0.9511658673074858 0.30868024372997754 0
  outer loop
    vertex -3.709 -1.498 0
    vertex -3.8810000000000002 -0.968 -4
    vertex -3.8810000000000002 -0.968 0
  endloop
endfacet
facet normal 0 0 -1
  outer loop
    vertex -3.709 1.498 0
    vertex -4.243 4.243 0
    vertex -3.464 2 0
  endloop
endfacet
facet normal 0.898682402201396 -0.4385999771700042 0
  outer loop
    vertex -3.709 1.498 0
    vertex -3.464 2 0
    vertex -3.709 1.498 4
  endloop
endfacet
facet normal 0.898682402201396 -0.4385999771700042 0
  outer loop
    vertex -3.709 1.498 4
    vertex -3.464 2 0
    vertex -3.464 2 4
  endloop
endfacet
facet normal 0.8663643328288176 0.49941249764305795 0
  outer loop
    vertex -3.595 -1.7530000000000001 0
    vertex -3.3160000000000003 -2.237 4
    vertex -3.3160000000000003 -2.237 0
  endloop
endfacet
facet normal 0.9271100657041546 0.3747891754974234 0
  outer loop
    vertex -3.595 -1.7530000000000001 4
    vertex -3.8040000000000003 -1.236 0
    vertex -3.8040000000000003 -1.236 4
  endloop
endfacet
facet normal 0.8663643328288176 -0.49941249764305795 0
  outer loop
    vertex -3.595 1.7530000000000001 -4
    vertex -3.3160000000000003 2.237 -4
    vertex -3.595 1.7530000000000001 0
  endloop
endfacet
facet normal 0 0 1
  outer loop
    vertex -3.595 1.7530000000000001 0
    vertex -3.3160000000000003 2.237 0
    vertex -4.243 4.243 0
  endloop
endfacet
facet normal 0.8663643328288176 -0.49941249764305795 0
  outer loop
    vertex -3.595 1.7530000000000001 0
    vertex -3.3160000000000003 2.237 -4
    vertex -3.3160000000000003 2.237 0
  endloop
endfacet
facet normal 0.8292844721527849 0.5588266853383765 0
  outer loop
    vertex -3.464 -2 -4
    vertex -3.152 -2.463 0
    vertex -3.152 -2.463 -4
  endloop
endfacet
facet normal 0.898682402201396 0.4385999771700042 0
  outer loop
    vertex -3.464 -2 0
    vertex -3.709 -1.498 -4
    vertex -3.709 -1.498 0
  endloop
endfacet
facet normal 0 0 -1
  outer loop
    vertex -3.464 2 0
    vertex -4.243 4.243 0
    vertex -3.152 2.463 0
  endloop
endfacet
facet normal 0.8292844721527841 -0.5588266853383776 0
  outer loop
    vertex -3.464 2 0
    vertex -3.152 2.463 0
    vertex -3.464 2 4
  endloop
endfacet
facet normal 0.8292844721527849 -0.5588266853383765 0
  outer loop
    vertex -3.464 2 4
    vertex -3.152 2.463 0
    vertex -3.152 2.463 4
  endloop
endfacet
facet normal 0.7886761252594849 0.6148088885545531 0
  outer loop
    vertex -3.3160000000000003 -2.237 0
    vertex -2.973 -2.677 4
    vertex -2.973 -2.677 0
  endloop
endfacet
facet normal 0.8663643328288176 0.49941249764305795 0
  outer loop
    vertex -3.3160000000000003 -2.237 4
    vertex -3.595 -1.7530000000000001 0
    vertex -3.595 -1.7530000000000001 4
  endloop
endfacet
facet normal 0.7886761252594844 -0.6148088885545542 0
  outer loop
    vertex -3.3160000000000003 2.237 -4
    vertex -2.973 2.677 -4
    vertex -3.3160000000000003 2.237 0
  endloop
endfacet
facet normal 0 0 1
  outer loop
    vertex -3.3160000000000003 2.237 0
    vertex -2.973 2.677 0
    vertex -4.243 4.243 0
  endloop
endfacet
facet normal 0.7886761252594849 -0.6148088885545531 0
  outer loop
    vertex -3.3160000000000003 2.237 0
    vertex -2.973 2.677 -4
    vertex -2.973 2.677 0
  endloop
endfacet
facet normal 0.742937116540643 0.6693612185257486 0
  outer loop
    vertex -3.152 -2.463 -4
    vertex -2.779 -2.8770000000000002 0
    vertex -2.779 -2.8770000000000002 -4
  endloop
endfacet
facet normal 0.8292844721527841 0.5588266853383776 0
  outer loop
    vertex -3.152 -2.463 0
    vertex -3.464 -2 -4
    vertex -3.464 -2 0
  endloop
endfacet
facet normal 0 0 -1
  outer loop
    vertex -3.152 2.463 0
    vertex -4.243 4.243 0
    vertex -2.779 2.8770000000000002 0
  endloop
endfacet
facet normal 0.742937116540643 -0.6693612185257486 0
  outer loop
    vertex -3.152 2.463 0
    vertex -2.779 2.8770000000000002 0
    vertex -3.152 2.463 4
  endloop
endfacet
facet normal 0.742937116540643 -0.6693612185257486 0
  outer loop
    vertex -3.152 2.463 4
    vertex -2.779 2.8770000000000002 0
    vertex -2.779 2.8770000000000002 4
  endloop
endfacet
facet normal 0.6935383637797409 0.7204196957091884 0
  outer loop
    vertex -2.973 -2.677 0
    vertex -2.571 -3.064 4
    vertex -2.571 -3.064 0
  endloop
endfacet
facet normal 0.7886761252594844 0.6148088885545542 0
  outer loop
    vertex -2.973 -2.677 4
    vertex -3.3160000000000003 -2.237 0
    vertex -3.3160000000000003 -2.237 4
  endloop
endfacet
facet normal 0.6935383637797417 -0.7204196957091876 0
  outer loop
    vertex -2.973 2.677 -4
    vertex -2.571 3.064 -4
    vertex -2.973 2.677 0
  endloop
endfacet
facet normal 0 0 1
  outer loop
    vertex -2.973 2.677 0
    vertex -2.571 3.064 0
    vertex -4.243 4.243 0
  endloop
endfacet
facet normal 0.6935383637797409 -0.7204196957091884 0
  outer loop
    vertex -2.973 2.677 0
    vertex -2.571 3.064 -4
    vertex -2.571 3.064 0
  endloop
endfacet
facet normal 0.6426461606282078 0.7661631107210944 0
  outer loop
    vertex -2.779 -2.8770000000000002 -4
    vertex -2.351 -3.236 0
    vertex -2.351 -3.236 -4
  endloop
endfacet
facet normal 0.742937116540643 0.6693612185257486 0
  outer loop
    vertex -2.779 -2.8770000000000002 0
    vertex -3.152 -2.463 -4
    vertex -3.152 -2.463 0
  endloop
endfacet
facet normal 0 0 -1
  outer loop
    vertex -2.779 2.8770000000000002 0
    vertex -4.243 4.243 0
    vertex -2.351 3.236 0
  endloop
endfacet
facet normal 0.6426461606282078 -0.7661631107210944 0
  outer loop
    vertex -2.779 2.8770000000000002 0
    vertex -2.351 3.236 0
    vertex -2.779 2.8770000000000002 4
  endloop
endfacet
facet normal 0.6426461606282078 -0.7661631107210944 0
  outer loop
    vertex -2.779 2.8770000000000002 4
    vertex -2.351 3.236 0
    vertex -2.351 3.236 4
  endloop
endfacet
facet normal 0.5881716976750456 0.808736084303189 0
  outer loop
    vertex -2.571 -3.064 0
    vertex -2.12 -3.392 4
    vertex -2.12 -3.392 0
  endloop
endfacet
facet normal 0.6935383637797417 0.7204196957091876 0
  outer loop
    vertex -2.571 -3.064 4
    vertex -2.973 -2.677 0
    vertex -2.973 -2.677 4
  endloop
endfacet
facet normal 0.5881716976750463 -0.8087360843031883 0
  outer loop
    vertex -2.571 3.064 -4
    vertex -2.12 3.392 -4
    vertex -2.571 3.064 0
  endloop
endfacet
facet normal 0 0 1
  outer loop
    vertex -2.571 3.064 0
    vertex -2.12 3.392 0
    vertex -4.243 4.243 0
  endloop
endfacet
facet normal 0.5881716976750456 -0.808736084303189 0
  outer loop
    vertex -2.571 3.064 0
    vertex -2.12 3.392 -4
    vertex -2.12 3.392 0
  endloop
endfacet
facet normal 0.5304821355621435 0.8476961152732904 0
  outer loop
    vertex -2.351 -3.236 -4
    vertex -1.8780000000000001 -3.532 0
    vertex -1.8780000000000001 -3.532 -4
  endloop
endfacet
facet normal 0.6426461606282078 0.7661631107210944 0
  outer loop
    vertex -2.351 -3.236 0
    vertex -2.779 -2.8770000000000002 -4
    vertex -2.779 -2.8770000000000002 0
  endloop
endfacet
facet normal 0 0 -1
  outer loop
    vertex -2.351 3.236 0
    vertex -4.243 4.243 0
    vertex -1.8780000000000001 3.532 0
  endloop
endfacet
facet normal 0.5304821355621435 -0.8476961152732904 0
  outer loop
    vertex -2.351 3.236 0
    vertex -1.8780000000000001 3.532 0
    vertex -2.351 3.236 4
  endloop
endfacet
facet normal 0.5304821355621435 -0.8476961152732904 0
  outer loop
    vertex -2.351 3.236 4
    vertex -1.8780000000000001 3.532 0
    vertex -1.8780000000000001 3.532 4
  endloop
endfacet
facet normal 0.4692861821045796 0.8830461365555637 0
  outer loop
    vertex -2.12 -3.392 0
    vertex -1.627 -3.654 4
    vertex -1.627 -3.654 0
  endloop
endfacet
facet normal 0 0 1
  outer loop
    vertex -2.12 -3.392 4
    vertex 0 -6 4
    vertex -1.627 -3.654 4
  endloop
endfacet
facet normal 0.5881716976750463 0.8087360843031883 0
  outer loop
    vertex -2.12 -3.392 4
    vertex -2.571 -3.064 0
    vertex -2.571 -3.064 4
  endloop
endfacet
facet normal 0 0 -1
  outer loop
    vertex -2.12 3.392 -4
    vertex 0 6 -4
    vertex -1.627 3.654 -4
  endloop
endfacet
facet normal 0.4692861821045793 -0.8830461365555639 0
  outer loop
    vertex -2.12 3.392 -4
    vertex -1.627 3.654 -4
    vertex -2.12 3.392 0
  endloop
endfacet
facet normal 0 0 1
  outer loop
    vertex -2.12 3.392 0
    vertex 0 6 0
    vertex -4.243 4.243 0
  endloop
endfacet
facet normal 0 0 1
  outer loop
    vertex -2.12 3.392 0
    vertex -1.627 3.654 0
    vertex 0 6 0
  endloop
endfacet
facet normal 0.4692861821045796 -0.8830461365555637 0
  outer loop
    vertex -2.12 3.392 0
    vertex -1.627 3.654 -4
    vertex -1.627 3.654 0
  endloop
endfacet
facet normal 0 0 -1
  outer loop
    vertex -1.8780000000000001 -3.532 -4
    vertex -1.368 -3.759 -4
    vertex 0 -6 -4
  endloop
endfacet
facet normal 0.40663702949867 0.9135898019573652 0
  outer loop
    vertex -1.8780000000000001 -3.532 -4
    vertex -1.368 -3.759 0
    vertex -1.368 -3.759 -4
  endloop
endfacet
facet normal 0 0 1
  outer loop
    vertex -1.8780000000000001 -3.532 0
    vertex -4.243 -4.243 0
    vertex 0 -6 0
  endloop
endfacet
facet normal 0.5304821355621435 0.8476961152732904 0
  outer loop
    vertex -1.8780000000000001 -3.532 0
    vertex -2.351 -3.236 -4
    vertex -2.351 -3.236 0
  endloop
endfacet
facet normal 0 0 -1
  outer loop
    vertex -1.8780000000000001 3.532 0
    vertex 0 6 0
    vertex -1.368 3.759 0
  endloop
endfacet
facet normal 0 0 -1
  outer loop
    vertex -1.8780000000000001 3.532 0
    vertex -4.243 4.243 0
    vertex 0 6 0
  endloop
endfacet
facet normal 0.4066370294986703 -0.9135898019573652 0
  outer loop
    vertex -1.8780000000000001 3.532 0
    vertex -1.368 3.759 0
    vertex -1.8780000000000001 3.532 4
  endloop
endfacet
facet normal 0 0 1
  outer loop
    vertex -1.8780000000000001 3.532 4
    vertex -1.368 3.759 4
    vertex 0 6 4
  endloop
endfacet
facet normal 0.40663702949867 -0.9135898019573652 0
  outer loop
    vertex -1.8780000000000001 3.532 4
    vertex -1.368 3.759 0
    vertex -1.368 3.759 4
  endloop
endfacet
facet normal 0.34246277990044116 0.9395313961666539 0
  outer loop
    vertex -1.627 -3.654 0
    vertex -1.103 -3.845 4
    vertex -1.103 -3.845 0
  endloop
endfacet
facet normal 0 0 1
  outer loop
    vertex -1.627 -3.654 4
    vertex 0 -6 4
    vertex -1.103 -3.845 4
  endloop
endfacet
facet normal 0.4692861821045793 0.8830461365555639 0
  outer loop
    vertex -1.627 -3.654 4
    vertex -2.12 -3.392 0
    vertex -2.12 -3.392 4
  endloop
endfacet
facet normal 0 0 -1
  outer loop
    vertex -1.627 3.654 -4
    vertex 0 6 -4
    vertex -1.103 3.845 -4
  endloop
endfacet
facet normal 0.34246277990044116 -0.9395313961666539 0
  outer loop
    vertex -1.627 3.654 -4
    vertex -1.103 3.845 -4
    vertex -1.627 3.654 0
  endloop
endfacet
facet normal 0 0 1
  outer loop
    vertex -1.627 3.654 0
    vertex -1.103 3.845 0
    vertex 0 6 0
  endloop
endfacet
facet normal 0.34246277990044116 -0.9395313961666539 0
  outer loop
    vertex -1.627 3.654 0
    vertex -1.103 3.845 -4
    vertex -1.103 3.845 0
  endloop
endfacet
facet normal 0 0 -0.9999999999999999
  outer loop
    vertex -1.368 -3.759 -4
    vertex -0.8320000000000001 -3.9130000000000003 -4
    vertex 0 -6 -4
  endloop
endfacet
facet normal 0.27614179770342134 0.9611169062924254 0
  outer loop
    vertex -1.368 -3.759 -4
    vertex -0.8320000000000001 -3.9130000000000003 0
    vertex -0.8320000000000001 -3.9130000000000003 -4
  endloop
endfacet
facet normal 0 0 1
  outer loop
    vertex -1.368 -3.759 0
    vertex -1.8780000000000001 -3.532 0
    vertex 0 -6 0
  endloop
endfacet
facet normal 0.4066370294986703 0.9135898019573652 0
  outer loop
    vertex -1.368 -3.759 0
    vertex -1.8780000000000001 -3.532 -4
    vertex -1.8780000000000001 -3.532 0
  endloop
endfacet
facet normal 0 0 -0.9999999999999999
  outer loop
    vertex -1.368 3.759 0
    vertex 0 6 0
    vertex -0.8320000000000001 3.9130000000000003 0
  endloop
endfacet
facet normal 0.27614179770342134 -0.9611169062924254 0
  outer loop
    vertex -1.368 3.759 0
    vertex -0.8320000000000001 3.9130000000000003 0
    vertex -1.368 3.759 4
  endloop
endfacet
facet normal 0 0 0.9999999999999999
  outer loop
    vertex -1.368 3.759 4
    vertex -0.8320000000000001 3.9130000000000003 4
    vertex 0 6 4
  endloop
endfacet
facet normal 0.27614179770342134 -0.9611169062924254 0
  outer loop
    vertex -1.368 3.759 4
    vertex -0.8320000000000001 3.9130000000000003 0
    vertex -0.8320000000000001 3.9130000000000003 4
  endloop
endfacet
facet normal 0.20781590278389775 0.9781679562069662 0
  outer loop
    vertex -1.103 -3.845 0
    vertex -0.557 -3.9610000000000003 4
    vertex -0.557 -3.9610000000000003 0
  endloop
endfacet
facet normal 0 0 1
  outer loop
    vertex -1.103 -3.845 4
    vertex 0 -6 4
    vertex -0.557 -3.9610000000000003 4
  endloop
endfacet
facet normal 0.34246277990044116 0.9395313961666539 0
  outer loop
    vertex -1.103 -3.845 4
    vertex -1.627 -3.654 0
    vertex -1.627 -3.654 4
  endloop
endfacet
facet normal 0 0 -1
  outer loop
    vertex -1.103 3.845 -4
    vertex 0 6 -4
    vertex -0.557 3.9610000000000003 -4
  endloop
endfacet
facet normal 0.20781590278389786 -0.9781679562069663 0
  outer loop
    vertex -1.103 3.845 -4
    vertex -0.557 3.9610000000000003 -4
    vertex -1.103 3.845 0
  endloop
endfacet
facet normal 0 0 1
  outer loop
    vertex -1.103 3.845 0
    vertex -0.557 3.9610000000000003 0
    vertex 0 6 0
  endloop
endfacet
facet normal 0.20781590278389775 -0.9781679562069662 0
  outer loop
    vertex -1.103 3.845 0
    vertex -0.557 3.9610000000000003 -4
    vertex -0.557 3.9610000000000003 0
  endloop
endfacet
facet normal 0 0 -1
  outer loop
    vertex -0.8320000000000001 -3.9130000000000003 -4
    vertex -0.279 -3.99 -4
    vertex 0 -6 -4
  endloop
endfacet
facet normal 0.13791002994574145 0.9904447605194168 0
  outer loop
    vertex -0.8320000000000001 -3.9130000000000003 -4
    vertex -0.279 -3.99 0
    vertex -0.279 -3.99 -4
  endloop
endfacet
facet normal 0 0 0.9999999999999999
  outer loop
    vertex -0.8320000000000001 -3.9130000000000003 0
    vertex -1.368 -3.759 0
    vertex 0 -6 0
  endloop
endfacet
facet normal 0.27614179770342134 0.9611169062924254 0
  outer loop
    vertex -0.8320000000000001 -3.9130000000000003 0
    vertex -1.368 -3.759 -4
    vertex -1.368 -3.759 0
  endloop
endfacet
facet normal 0 0 -1
  outer loop
    vertex -0.8320000000000001 3.9130000000000003 0
    vertex 0 6 0
    vertex -0.279 3.99 0
  endloop
endfacet
facet normal 0.1379100299457415 -0.9904447605194167 0
  outer loop
    vertex -0.8320000000000001 3.9130000000000003 0
    vertex -0.279 3.99 0
    vertex -0.8320000000000001 3.9130000000000003 4
  endloop
endfacet
facet normal 0 0 1
  outer loop
    vertex -0.8320000000000001 3.9130000000000003 4
    vertex -0.279 3.99 4
    vertex 0 6 4
  endloop
endfacet
facet normal 0.13791002994574145 -0.9904447605194168 0
  outer loop
    vertex -0.8320000000000001 3.9130000000000003 4
    vertex -0.279 3.99 0
    vertex -0.279 3.99 4
  endloop
endfacet
facet normal 0.06984694983457124 0.9975577194322175 0
  outer loop
    vertex -0.557 -3.9610000000000003 0
    vertex 0 -4 4
    vertex 0 -4 0
  endloop
endfacet
facet normal 0.20781590278389786 0.9781679562069663 0
  outer loop
    vertex -0.557 -3.9610000000000003 4
    vertex -1.103 -3.845 0
    vertex -1.103 -3.845 4
  endloop
endfacet
facet normal 0 0 -1
  outer loop
    vertex -0.557 3.9610000000000003 -4
    vertex 0 6 -4
    vertex 0 4 -4
  endloop
endfacet
facet normal 0.06984694983457124 -0.9975577194322175 0
  outer loop
    vertex -0.557 3.9610000000000003 -4
    vertex 0 4 -4
    vertex -0.557 3.9610000000000003 0
  endloop
endfacet
facet normal 0 0 1
  outer loop
    vertex -0.557 3.9610000000000003 0
    vertex 0 4 0
    vertex 0 6 0
  endloop
endfacet
facet normal 0.06984694983457124 -0.9975577194322175 0
  outer loop
    vertex -0.557 3.9610000000000003 0
    vertex 0 4 -4
    vertex 0 4 0
  endloop
endfacet
facet normal 0 0 -1
  outer loop
    vertex -0.279 -3.99 -4
    vertex 0.279 -3.99 -4
    vertex 0 -6 -4
  endloop
endfacet
facet normal 0 1 0
  outer loop
    vertex -0.279 -3.99 -4
    vertex -0.279 -3.99 0
    vertex 0.279 -3.99 0
  endloop
endfacet
facet normal 0 1 0
  outer loop
    vertex -0.279 -3.99 -4
    vertex 0.279 -3.99 0
    vertex 0.279 -3.99 -4
  endloop
endfacet
facet normal 0 0 1
  outer loop
    vertex -0.279 -3.99 0
    vertex -0.8320000000000001 -3.9130000000000003 0
    vertex 0 -6 0
  endloop
endfacet
facet normal 0.1379100299457415 0.9904447605194167 0
  outer loop
    vertex -0.279 -3.99 0
    vertex -0.8320000000000001 -3.9130000000000003 -4
    vertex -0.8320000000000001 -3.9130000000000003 0
  endloop
endfacet
facet normal 0 0 -1
  outer loop
    vertex -0.279 3.99 0
    vertex 0 6 0
    vertex 0.279 3.99 0
  endloop
endfacet
facet normal 0 -1 0
  outer loop
    vertex -0.279 3.99 0
    vertex 0.279 3.99 0
    vertex -0.279 3.99 4
  endloop
endfacet
facet normal 0 0 1
  outer loop
    vertex -0.279 3.99 4
    vertex 0.279 3.99 4
    vertex 0 6 4
  endloop
endfacet
facet normal 0 -1 0
  outer loop
    vertex -0.279 3.99 4
    vertex 0.279 3.99 0
    vertex 0.279 3.99 4
  endloop
endfacet
facet normal 0 0 -1
  outer loop
    vertex 0 -6 -4
    vertex 1.8780000000000001 -3.532 -4
    vertex 4.243 -4.243 -4
  endloop
endfacet
facet normal 0 0 -1
  outer loop
    vertex 0 -6 -4
    vertex 1.368 -3.759 -4
    vertex 1.8780000000000001 -3.532 -4
  endloop
endfacet
facet normal 0 0 -0.9999999999999999
  outer loop
    vertex 0 -6 -4
    vertex 0.8320000000000001 -3.9130000000000003 -4
    vertex 1.368 -3.759 -4
  endloop
endfacet
facet normal 0 0 -1
  outer loop
    vertex 0 -6 -4
    vertex 0.279 -3.99 -4
    vertex 0.8320000000000001 -3.9130000000000003 -4
  endloop
endfacet
facet normal 0.3825889853207204 -0.9239186481023433 0
  outer loop
    vertex 0 -6 -4
    vertex 4.243 -4.243 -4
    vertex 0 -6 0
  endloop
endfacet
facet normal -0.3825889853207204 -0.9239186481023433 0
  outer loop
    vertex 0 -6 -4
    vertex -4.243 -4.243 0
    vertex -4.243 -4.243 -4
  endloop
endfacet
facet normal 0 0 1
  outer loop
    vertex 0 -6 0
    vertex 4.243 -4.243 0
    vertex 1.8780000000000001 -3.532 0
  endloop
endfacet
facet normal 0 0 1
  outer loop
    vertex 0 -6 0
    vertex 1.8780000000000001 -3.532 0
    vertex 1.368 -3.759 0
  endloop
endfacet
facet normal 0 0 0.9999999999999999
  outer loop
    vertex 0 -6 0
    vertex 1.368 -3.759 0
    vertex 0.8320000000000001 -3.9130000000000003 0
  endloop
endfacet
facet normal 0 0 1
  outer loop
    vertex 0 -6 0
    vertex 0.8320000000000001 -3.9130000000000003 0
    vertex 0.279 -3.99 0
  endloop
endfacet
facet normal 0 0 1
  outer loop
    vertex 0 -6 0
    vertex 0.279 -3.99 0
    vertex -0.279 -3.99 0
  endloop
endfacet
facet normal 0.3825889853207204 -0.9239186481023433 0
  outer loop
    vertex 0 -6 0
    vertex 4.243 -4.243 -4
    vertex 4.243 -4.243 0
  endloop
endfacet
facet normal 0 0 -1
  outer loop
    vertex 0 -6 0
    vertex 0.557 -3.9610000000000003 0
    vertex 1.103 -3.845 0
  endloop
endfacet
facet normal 0 0 -1
  outer loop
    vertex 0 -6 0
    vertex -1.103 -3.845 0
    vertex -0.557 -3.9610000000000003 0
  endloop
endfacet
facet normal 0 0 -1
  outer loop
    vertex 0 -6 0
    vertex -1.627 -3.654 0
    vertex -1.103 -3.845 0
  endloop
endfacet
facet normal 0 0 -1
  outer loop
    vertex 0 -6 0
    vertex -4.243 -4.243 0
    vertex -2.12 -3.392 0
  endloop
endfacet
facet normal 0 0 -1
  outer loop
    vertex 0 -6 0
    vertex -2.12 -3.392 0
    vertex -1.627 -3.654 0
  endloop
endfacet
facet normal 0 0 -1
  outer loop
    vertex 0 -6 0
    vertex 0 -4 0
    vertex 0.557 -3.9610000000000003 0
  endloop
endfacet
facet normal 0 0 -1
  outer loop
    vertex 0 -6 0
    vertex 1.103 -3.845 0
    vertex 1.627 -3.654 0
  endloop
endfacet
facet normal 0 0 -1
  outer loop
    vertex 0 -6 0
    vertex 1.627 -3.654 0
    vertex 2.12 -3.392 0
  endloop
endfacet
facet normal 0 0 -1
  outer loop
    vertex 0 -6 0
    vertex 2.12 -3.392 0
    vertex 4.243 -4.243 0
  endloop
endfacet
facet normal -0.3825889853207204 -0.9239186481023433 0
  outer loop
    vertex 0 -6 0
    vertex -4.243 -4.243 4
    vertex -4.243 -4.243 0
  endloop
endfacet
facet normal 0.3825889853207204 -0.9239186481023433 0
  outer loop
    vertex 0 -6 0
    vertex 4.243 -4.243 0
    vertex 0 -6 4
  endloop
endfacet
facet normal 0 0 1
  outer loop
    vertex 0 -6 4
    vertex 1.103 -3.845 4
    vertex 0.557 -3.9610000000000003 4
  endloop
endfacet
facet normal 0 0 1
  outer loop
    vertex 0 -6 4
    vertex 0 -4 4
    vertex -0.557 -3.9610000000000003 4
  endloop
endfacet
facet normal 0 0 1
  outer loop
    vertex 0 -6 4
    vertex 0.557 -3.9610000000000003 4
    vertex 0 -4 4
  endloop
endfacet
facet normal 0 0 1
  outer loop
    vertex 0 -6 4
    vertex 1.627 -3.654 4
    vertex 1.103 -3.845 4
  endloop
endfacet
facet normal 0 0 1
  outer loop
    vertex 0 -6 4
    vertex 2.12 -3.392 4
    vertex 1.627 -3.654 4
  endloop
endfacet
facet normal 0 0 1
  outer loop
    vertex 0 -6 4
    vertex 4.243 -4.243 4
    vertex 2.12 -3.392 4
  endloop
endfacet
facet normal 0.3825889853207204 -0.9239186481023433 0
  outer loop
    vertex 0 -6 4
    vertex 4.243 -4.243 0
    vertex 4.243 -4.243 4
  endloop
endfacet
facet normal 0 0 -1
  outer loop
    vertex 0 -4 0
    vertex 0 -6 0
    vertex -0.557 -3.9610000000000003 0
  endloop
endfacet
facet normal -0.06984694983457124 0.9975577194322175 0
  outer loop
    vertex 0 -4 0
    vertex 0.557 -3.9610000000000003 4
    vertex 0.557 -3.9610000000000003 0
  endloop
endfacet
facet normal -0.06984694983457124 0.9975577194322175 0
  outer loop
    vertex 0 -4 0
    vertex 0 -4 4
    vertex 0.557 -3.9610000000000003 4
  endloop
endfacet
facet normal 0.06984694983457124 0.9975577194322175 0
  outer loop
    vertex 0 -4 4
    vertex -0.557 -3.9610000000000003 0
    vertex -0.557 -3.9610000000000003 4
  endloop
endfacet
facet normal 0 0 -1
  outer loop
    vertex 0 4 -4
    vertex 0 6 -4
    vertex 0.557 3.9610000000000003 -4
  endloop
endfacet
facet normal -0.06984694983457124 -0.9975577194322175 0
  outer loop
    vertex 0 4 0
    vertex 0.557 3.9610000000000003 -4
    vertex 0.557 3.9610000000000003 0
  endloop
endfacet
facet normal 0 0 -1
  outer loop
    vertex 0 6 -4
    vertex 1.103 3.845 -4
    vertex 0.557 3.9610000000000003 -4
  endloop
endfacet
facet normal 0.3825889853207204 0.9239186481023433 0
  outer loop
    vertex 0 6 -4
    vertex 4.243 4.243 0
    vertex 4.243 4.243 -4
  endloop
endfacet
facet normal 0.3825889853207204 0.9239186481023433 0
  outer loop
    vertex 0 6 0
    vertex 4.243 4.243 4
    vertex 4.243 4.243 0
  endloop
endfacet
facet normal -0.13791002994574145 0.9904447605194168 0
  outer loop
    vertex 0.279 -3.99 -4
    vertex 0.279 -3.99 0
    vertex 0.8320000000000001 -3.9130000000000003 0
  endloop
endfacet
facet normal -0.1379100299457415 0.9904447605194167 0
  outer loop
    vertex 0.279 -3.99 -4
    vertex 0.8320000000000001 -3.9130000000000003 0
    vertex 0.8320000000000001 -3.9130000000000003 -4
  endloop
endfacet
facet normal 0 0 1
  outer loop
    vertex 0.279 3.99 4
    vertex 0.8320000000000001 3.9130000000000003 4
    vertex 0 6 4
  endloop
endfacet
facet normal -0.1379100299457415 -0.9904447605194167 0
  outer loop
    vertex 0.279 3.99 4
    vertex 0.8320000000000001 3.9130000000000003 0
    vertex 0.8320000000000001 3.9130000000000003 4
  endloop
endfacet
facet normal -0.20781590278389786 0.9781679562069663 0
  outer loop
    vertex 0.557 -3.9610000000000003 0
    vertex 1.103 -3.845 4
    vertex 1.103 -3.845 0
  endloop
endfacet
facet normal -0.20781590278389775 0.9781679562069662 0
  outer loop
    vertex 0.557 -3.9610000000000003 0
    vertex 0.557 -3.9610000000000003 4
    vertex 1.103 -3.845 4
  endloop
endfacet
facet normal -0.06984694983457124 -0.9975577194322175 0
  outer loop
    vertex 0.557 3.9610000000000003 -4
    vertex 0 4 0
    vertex 0 4 -4
  endloop
endfacet
facet normal 0 0 1
  outer loop
    vertex 0.557 3.9610000000000003 0
    vertex 0 6 0
    vertex 0 4 0
  endloop
endfacet
facet normal -0.20781590278389786 -0.9781679562069663 0
  outer loop
    vertex 0.557 3.9610000000000003 0
    vertex 1.103 3.845 -4
    vertex 1.103 3.845 0
  endloop
endfacet
facet normal -0.27614179770342134 0.9611169062924254 0
  outer loop
    vertex 0.8320000000000001 -3.9130000000000003 -4
    vertex 0.8320000000000001 -3.9130000000000003 0
    vertex 1.368 -3.759 0
  endloop
endfacet
facet normal -0.27614179770342134 0.9611169062924254 0
  outer loop
    vertex 0.8320000000000001 -3.9130000000000003 -4
    vertex 1.368 -3.759 0
    vertex 1.368 -3.759 -4
  endloop
endfacet
facet normal 0 0 -1
  outer loop
    vertex 0.8320000000000001 3.9130000000000003 0
    vertex 0.279 3.99 0
    vertex 0 6 0
  endloop
endfacet
facet normal -0.13791002994574145 -0.9904447605194168 0
  outer loop
    vertex 0.8320000000000001 3.9130000000000003 0
    vertex 0.279 3.99 4
    vertex 0.279 3.99 0
  endloop
endfacet
facet normal 0 0 0.9999999999999999
  outer loop
    vertex 0.8320000000000001 3.9130000000000003 4
    vertex 1.368 3.759 4
    vertex 0 6 4
  endloop
endfacet
facet normal -0.27614179770342134 -0.9611169062924254 0
  outer loop
    vertex 0.8320000000000001 3.9130000000000003 4
    vertex 1.368 3.759 0
    vertex 1.368 3.759 4
  endloop
endfacet
facet normal -0.34246277990044116 0.9395313961666539 0
  outer loop
    vertex 1.103 -3.845 0
    vertex 1.627 -3.654 4
    vertex 1.627 -3.654 0
  endloop
endfacet
facet normal -0.34246277990044116 0.9395313961666539 0
  outer loop
    vertex 1.103 -3.845 0
    vertex 1.103 -3.845 4
    vertex 1.627 -3.654 4
  endloop
endfacet
facet normal -0.20781590278389775 -0.9781679562069662 0
  outer loop
    vertex 1.103 3.845 -4
    vertex 0.557 3.9610000000000003 0
    vertex 0.557 3.9610000000000003 -4
  endloop
endfacet
facet normal 0 0 1
  outer loop
    vertex 1.103 3.845 0
    vertex 0 6 0
    vertex 0.557 3.9610000000000003 0
  endloop
endfacet
facet normal 0 0 1
  outer loop
    vertex 1.103 3.845 0
    vertex 1.627 3.654 0
    vertex 0 6 0
  endloop
endfacet
facet normal -0.34246277990044116 -0.9395313961666539 0
  outer loop
    vertex 1.103 3.845 0
    vertex 1.627 3.654 -4
    vertex 1.627 3.654 0
  endloop
endfacet
facet normal -0.40663702949867 0.9135898019573652 0
  outer loop
    vertex 1.368 -3.759 -4
    vertex 1.368 -3.759 0
    vertex 1.8780000000000001 -3.532 0
  endloop
endfacet
facet normal -0.4066370294986703 0.9135898019573652 0
  outer loop
    vertex 1.368 -3.759 -4
    vertex 1.8780000000000001 -3.532 0
    vertex 1.8780000000000001 -3.532 -4
  endloop
endfacet
facet normal 0 0 -0.9999999999999999
  outer loop
    vertex 1.368 3.759 0
    vertex 0.8320000000000001 3.9130000000000003 0
    vertex 0 6 0
  endloop
endfacet
facet normal -0.27614179770342134 -0.9611169062924254 0
  outer loop
    vertex 1.368 3.759 0
    vertex 0.8320000000000001 3.9130000000000003 4
    vertex 0.8320000000000001 3.9130000000000003 0
  endloop
endfacet
facet normal 0 0 1
  outer loop
    vertex 1.368 3.759 4
    vertex 1.8780000000000001 3.532 4
    vertex 0 6 4
  endloop
endfacet
facet normal -0.4066370294986703 -0.9135898019573652 0
  outer loop
    vertex 1.368 3.759 4
    vertex 1.8780000000000001 3.532 0
    vertex 1.8780000000000001 3.532 4
  endloop
endfacet
facet normal -0.4692861821045793 0.8830461365555639 0
  outer loop
    vertex 1.627 -3.654 0
    vertex 2.12 -3.392 4
    vertex 2.12 -3.392 0
  endloop
endfacet
facet normal -0.4692861821045796 0.8830461365555637 0
  outer loop
    vertex 1.627 -3.654 0
    vertex 1.627 -3.654 4
    vertex 2.12 -3.392 4
  endloop
endfacet
facet normal 0 0 -1
  outer loop
    vertex 1.627 3.654 -4
    vertex 1.103 3.845 -4
    vertex 0 6 -4
  endloop
endfacet
facet normal -0.34246277990044116 -0.9395313961666539 0
  outer loop
    vertex 1.627 3.654 -4
    vertex 1.103 3.845 0
    vertex 1.103 3.845 -4
  endloop
endfacet
facet normal 0 0 1
  outer loop
    vertex 1.627 3.654 0
    vertex 2.12 3.392 0
    vertex 0 6 0
  endloop
endfacet
facet normal -0.4692861821045793 -0.8830461365555639 0
  outer loop
    vertex 1.627 3.654 0
    vertex 2.12 3.392 -4
    vertex 2.12 3.392 0
  endloop
endfacet
facet normal 0 0 -1
  outer loop
    vertex 1.8780000000000001 -3.532 -4
    vertex 2.351 -3.236 -4
    vertex 4.243 -4.243 -4
  endloop
endfacet
facet normal -0.5304821355621435 0.8476961152732904 0
  outer loop
    vertex 1.8780000000000001 -3.532 -4
    vertex 1.8780000000000001 -3.532 0
    vertex 2.351 -3.236 0
  endloop
endfacet
facet normal -0.5304821355621435 0.8476961152732904 0
  outer loop
    vertex 1.8780000000000001 -3.532 -4
    vertex 2.351 -3.236 0
    vertex 2.351 -3.236 -4
  endloop
endfacet
facet normal 0 0 -1
  outer loop
    vertex 1.8780000000000001 3.532 0
    vertex 4.243 4.243 0
    vertex 2.351 3.236 0
  endloop
endfacet
facet normal 0 0 -1
  outer loop
    vertex 1.8780000000000001 3.532 0
    vertex 1.368 3.759 0
    vertex 0 6 0
  endloop
endfacet
facet normal -0.40663702949867 -0.9135898019573652 0
  outer loop
    vertex 1.8780000000000001 3.532 0
    vertex 1.368 3.759 4
    vertex 1.368 3.759 0
  endloop
endfacet
facet normal 0 0 1
  outer loop
    vertex 1.8780000000000001 3.532 4
    vertex 4.243 4.243 4
    vertex 0 6 4
  endloop
endfacet
facet normal -0.5304821355621435 -0.8476961152732904 0
  outer loop
    vertex 1.8780000000000001 3.532 4
    vertex 2.351 3.236 0
    vertex 2.351 3.236 4
  endloop
endfacet
facet normal 0 0 -1
  outer loop
    vertex 2.12 -3.392 0
    vertex 2.571 -3.064 0
    vertex 4.243 -4.243 0
  endloop
endfacet
facet normal -0.5881716976750463 0.8087360843031883 0
  outer loop
    vertex 2.12 -3.392 0
    vertex 2.571 -3.064 4
    vertex 2.571 -3.064 0
  endloop
endfacet
facet normal -0.5881716976750456 0.808736084303189 0
  outer loop
    vertex 2.12 -3.392 0
    vertex 2.12 -3.392 4
    vertex 2.571 -3.064 4
  endloop
endfacet
facet normal 0 0 -1
  outer loop
    vertex 2.12 3.392 -4
    vertex 1.627 3.654 -4
    vertex 0 6 -4
  endloop
endfacet
facet normal 0 0 -1
  outer loop
    vertex 2.12 3.392 -4
    vertex 4.243 4.243 -4
    vertex 2.571 3.064 -4
  endloop
endfacet
facet normal -0.4692861821045796 -0.8830461365555637 0
  outer loop
    vertex 2.12 3.392 -4
    vertex 1.627 3.654 0
    vertex 1.627 3.654 -4
  endloop
endfacet
facet normal 0 0 1
  outer loop
    vertex 2.12 3.392 0
    vertex 4.243 4.243 0
    vertex 0 6 0
  endloop
endfacet
facet normal -0.5881716976750463 -0.8087360843031883 0
  outer loop
    vertex 2.12 3.392 0
    vertex 2.571 3.064 -4
    vertex 2.571 3.064 0
  endloop
endfacet
facet normal 0 0 -1
  outer loop
    vertex 2.351 -3.236 -4
    vertex 2.779 -2.8770000000000002 -4
    vertex 4.243 -4.243 -4
  endloop
endfacet
facet normal -0.6426461606282078 0.7661631107210944 0
  outer loop
    vertex 2.351 -3.236 -4
    vertex 2.351 -3.236 0
    vertex 2.779 -2.8770000000000002 0
  endloop
endfacet
facet normal -0.6426461606282078 0.7661631107210944 0
  outer loop
    vertex 2.351 -3.236 -4
    vertex 2.779 -2.8770000000000002 0
    vertex 2.779 -2.8770000000000002 -4
  endloop
endfacet
facet normal 0 0 -1
  outer loop
    vertex 2.351 3.236 0
    vertex 4.243 4.243 0
    vertex 2.779 2.8770000000000002 0
  endloop
endfacet
facet normal -0.5304821355621435 -0.8476961152732904 0
  outer loop
    vertex 2.351 3.236 0
    vertex 1.8780000000000001 3.532 4
    vertex 1.8780000000000001 3.532 0
  endloop
endfacet
facet normal 0 0 1
  outer loop
    vertex 2.351 3.236 4
    vertex 4.243 4.243 4
    vertex 1.8780000000000001 3.532 4
  endloop
endfacet
facet normal -0.6426461606282078 -0.7661631107210944 0
  outer loop
    vertex 2.351 3.236 4
    vertex 2.779 2.8770000000000002 0
    vertex 2.779 2.8770000000000002 4
  endloop
endfacet
facet normal 0 0 -1
  outer loop
    vertex 2.571 -3.064 0
    vertex 2.973 -2.677 0
    vertex 4.243 -4.243 0
  endloop
endfacet
facet normal -0.6935383637797417 0.7204196957091876 0
  outer loop
    vertex 2.571 -3.064 0
    vertex 2.973 -2.677 4
    vertex 2.973 -2.677 0
  endloop
endfacet
facet normal -0.6935383637797409 0.7204196957091884 0
  outer loop
    vertex 2.571 -3.064 0
    vertex 2.571 -3.064 4
    vertex 2.973 -2.677 4
  endloop
endfacet
facet normal 0 0 -1
  outer loop
    vertex 2.571 3.064 -4
    vertex 4.243 4.243 -4
    vertex 2.973 2.677 -4
  endloop
endfacet
facet normal -0.5881716976750456 -0.808736084303189 0
  outer loop
    vertex 2.571 3.064 -4
    vertex 2.12 3.392 0
    vertex 2.12 3.392 -4
  endloop
endfacet
facet normal 0 0 1
  outer loop
    vertex 2.571 3.064 0
    vertex 4.243 4.243 0
    vertex 2.12 3.392 0
  endloop
endfacet
facet normal -0.6935383637797417 -0.7204196957091876 0
  outer loop
    vertex 2.571 3.064 0
    vertex 2.973 2.677 -4
    vertex 2.973 2.677 0
  endloop
endfacet
facet normal 0 0 -1
  outer loop
    vertex 2.779 -2.8770000000000002 -4
    vertex 3.152 -2.463 -4
    vertex 4.243 -4.243 -4
  endloop
endfacet
facet normal -0.742937116540643 0.6693612185257486 0
  outer loop
    vertex 2.779 -2.8770000000000002 -4
    vertex 2.779 -2.8770000000000002 0
    vertex 3.152 -2.463 0
  endloop
endfacet
facet normal -0.742937116540643 0.6693612185257486 0
  outer loop
    vertex 2.779 -2.8770000000000002 -4
    vertex 3.152 -2.463 0
    vertex 3.152 -2.463 -4
  endloop
endfacet
facet normal -0.6426461606282078 -0.7661631107210944 0
  outer loop
    vertex 2.779 2.8770000000000002 0
    vertex 2.351 3.236 4
    vertex 2.351 3.236 0
  endloop
endfacet
facet normal 0 0 1
  outer loop
    vertex 2.779 2.8770000000000002 4
    vertex 3.152 2.463 4
    vertex 4.243 4.243 4
  endloop
endfacet
facet normal 0 0 1
  outer loop
    vertex 2.779 2.8770000000000002 4
    vertex 4.243 4.243 4
    vertex 2.351 3.236 4
  endloop
endfacet
facet normal -0.742937116540643 -0.6693612185257486 0
  outer loop
    vertex 2.779 2.8770000000000002 4
    vertex 3.152 2.463 0
    vertex 3.152 2.463 4
  endloop
endfacet
facet normal 0 0 -1
  outer loop
    vertex 2.973 -2.677 0
    vertex 3.3160000000000003 -2.237 0
    vertex 4.243 -4.243 0
  endloop
endfacet
facet normal -0.7886761252594844 0.6148088885545542 0
  outer loop
    vertex 2.973 -2.677 0
    vertex 3.3160000000000003 -2.237 4
    vertex 3.3160000000000003 -2.237 0
  endloop
endfacet
facet normal -0.7886761252594849 0.6148088885545531 0
  outer loop
    vertex 2.973 -2.677 0
    vertex 2.973 -2.677 4
    vertex 3.3160000000000003 -2.237 4
  endloop
endfacet
facet normal 0 0 -1
  outer loop
    vertex 2.973 2.677 -4
    vertex 4.243 4.243 -4
    vertex 3.3160000000000003 2.237 -4
  endloop
endfacet
facet normal -0.6935383637797409 -0.7204196957091884 0
  outer loop
    vertex 2.973 2.677 -4
    vertex 2.571 3.064 0
    vertex 2.571 3.064 -4
  endloop
endfacet
facet normal 0 0 1
  outer loop
    vertex 2.973 2.677 0
    vertex 4.243 4.243 0
    vertex 2.571 3.064 0
  endloop
endfacet
facet normal -0.7886761252594844 -0.6148088885545542 0
  outer loop
    vertex 2.973 2.677 0
    vertex 3.3160000000000003 2.237 -4
    vertex 3.3160000000000003 2.237 0
  endloop
endfacet
facet normal 0 0 -1
  outer loop
    vertex 3.152 -2.463 -4
    vertex 3.464 -2 -4
    vertex 4.243 -4.243 -4
  endloop
endfacet
facet normal -0.8292844721527849 0.5588266853383765 0
  outer loop
    vertex 3.152 -2.463 -4
    vertex 3.152 -2.463 0
    vertex 3.464 -2 0
  endloop
endfacet
facet normal -0.8292844721527841 0.5588266853383776 0
  outer loop
    vertex 3.152 -2.463 -4
    vertex 3.464 -2 0
    vertex 3.464 -2 -4
  endloop
endfacet
facet normal 0 0 1
  outer loop
    vertex 3.152 -2.463 0
    vertex 2.779 -2.8770000000000002 0
    vertex 4.243 -4.243 0
  endloop
endfacet
facet normal 0 0 -1
  outer loop
    vertex 3.152 2.463 0
    vertex 2.779 2.8770000000000002 0
    vertex 4.243 4.243 0
  endloop
endfacet
facet normal -0.742937116540643 -0.6693612185257486 0
  outer loop
    vertex 3.152 2.463 0
    vertex 2.779 2.8770000000000002 4
    vertex 2.779 2.8770000000000002 0
  endloop
endfacet
facet normal 0 0 1
  outer loop
    vertex 3.152 2.463 4
    vertex 3.464 2 4
    vertex 4.243 4.243 4
  endloop
endfacet
facet normal -0.8292844721527841 -0.5588266853383776 0
  outer loop
    vertex 3.152 2.463 4
    vertex 3.464 2 0
    vertex 3.464 2 4
  endloop
endfacet
facet normal 0 0 -1
  outer loop
    vertex 3.3160000000000003 -2.237 0
    vertex 3.595 -1.7530000000000001 0
    vertex 4.243 -4.243 0
  endloop
endfacet
facet normal -0.8663643328288176 0.49941249764305795 0
  outer loop
    vertex 3.3160000000000003 -2.237 0
    vertex 3.595 -1.7530000000000001 4
    vertex 3.595 -1.7530000000000001 0
  endloop
endfacet
facet normal -0.8663643328288176 0.49941249764305795 0
  outer loop
    vertex 3.3160000000000003 -2.237 0
    vertex 3.3160000000000003 -2.237 4
    vertex 3.595 -1.7530000000000001 4
  endloop
endfacet
facet normal 0 0 -1
  outer loop
    vertex 3.3160000000000003 2.237 -4
    vertex 4.243 4.243 -4
    vertex 3.595 1.7530000000000001 -4
  endloop
endfacet
facet normal -0.7886761252594849 -0.6148088885545531 0
  outer loop
    vertex 3.3160000000000003 2.237 -4
    vertex 2.973 2.677 0
    vertex 2.973 2.677 -4
  endloop
endfacet
facet normal 0 0 1
  outer loop
    vertex 3.3160000000000003 2.237 0
    vertex 4.243 4.243 0
    vertex 2.973 2.677 0
  endloop
endfacet
facet normal -0.8663643328288176 -0.49941249764305795 0
  outer loop
    vertex 3.3160000000000003 2.237 0
    vertex 3.595 1.7530000000000001 -4
    vertex 3.595 1.7530000000000001 0
  endloop
endfacet
facet normal 0 0 -1
  outer loop
    vertex 3.464 -2 -4
    vertex 3.709 -1.498 -4
    vertex 4.243 -4.243 -4
  endloop
endfacet
facet normal -0.898682402201396 0.4385999771700042 0
  outer loop
    vertex 3.464 -2 -4
    vertex 3.464 -2 0
    vertex 3.709 -1.498 0
  endloop
endfacet
facet normal -0.898682402201396 0.4385999771700042 0
  outer loop
    vertex 3.464 -2 -4
    vertex 3.709 -1.498 0
    vertex 3.709 -1.498 -4
  endloop
endfacet
facet normal 0 0 1
  outer loop
    vertex 3.464 -2 0
    vertex 3.152 -2.463 0
    vertex 4.243 -4.243 0
  endloop
endfacet
facet normal 0 0 -1
  outer loop
    vertex 3.464 2 0
    vertex 3.152 2.463 0
    vertex 4.243 4.243 0
  endloop
endfacet
facet normal -0.8292844721527849 -0.5588266853383765 0
  outer loop
    vertex 3.464 2 0
    vertex 3.152 2.463 4
    vertex 3.152 2.463 0
  endloop
endfacet
facet normal 0 0 1
  outer loop
    vertex 3.464 2 4
    vertex 3.709 1.498 4
    vertex 4.243 4.243 4
  endloop
endfacet
facet normal -0.898682402201396 -0.4385999771700042 0
  outer loop
    vertex 3.464 2 4
    vertex 3.709 1.498 0
    vertex 3.709 1.498 4
  endloop
endfacet
facet normal 0 0 -0.9999999999999999
  outer loop
    vertex 3.595 -1.7530000000000001 0
    vertex 3.8040000000000003 -1.236 0
    vertex 4.243 -4.243 0
  endloop
endfacet
facet normal -0.9271100657041546 0.3747891754974234 0
  outer loop
    vertex 3.595 -1.7530000000000001 0
    vertex 3.8040000000000003 -1.236 4
    vertex 3.8040000000000003 -1.236 0
  endloop
endfacet
facet normal -0.927110065704154 0.3747891754974248 0
  outer loop
    vertex 3.595 -1.7530000000000001 0
    vertex 3.595 -1.7530000000000001 4
    vertex 3.8040000000000003 -1.236 4
  endloop
endfacet
facet normal 0 0 -0.9999999999999999
  outer loop
    vertex 3.595 1.7530000000000001 -4
    vertex 4.243 4.243 -4
    vertex 3.8040000000000003 1.236 -4
  endloop
endfacet
facet normal -0.8663643328288176 -0.49941249764305795 0
  outer loop
    vertex 3.595 1.7530000000000001 -4
    vertex 3.3160000000000003 2.237 0
    vertex 3.3160000000000003 2.237 -4
  endloop
endfacet
facet normal 0 0 1
  outer loop
    vertex 3.595 1.7530000000000001 0
    vertex 4.243 4.243 0
    vertex 3.3160000000000003 2.237 0
  endloop
endfacet
facet normal -0.9271100657041546 -0.3747891754974234 0
  outer loop
    vertex 3.595 1.7530000000000001 0
    vertex 3.8040000000000003 1.236 -4
    vertex 3.8040000000000003 1.236 0
  endloop
endfacet
facet normal 0 0 -0.9999999999999999
  outer loop
    vertex 3.709 -1.498 -4
    vertex 3.8810000000000002 -0.968 -4
    vertex 4.243 -4.243 -4
  endloop
endfacet
facet normal -0.9511658673074863 0.30868024372997616 0
  outer loop
    vertex 3.709 -1.498 -4
    vertex 3.709 -1.498 0
    vertex 3.8810000000000002 -0.968 0
  endloop
endfacet
facet normal -0.9511658673074858 0.30868024372997754 0
  outer loop
    vertex 3.709 -1.498 -4
    vertex 3.8810000000000002 -0.968 0
    vertex 3.8810000000000002 -0.968 -4
  endloop
endfacet
facet normal 0 0 1
  outer loop
    vertex 3.709 -1.498 0
    vertex 3.464 -2 0
    vertex 4.243 -4.243 0
  endloop
endfacet
facet normal 0 0 -1
  outer loop
    vertex 3.709 1.498 0
    vertex 3.464 2 0
    vertex 4.243 4.243 0
  endloop
endfacet
facet normal -0.898682402201396 -0.4385999771700042 0
  outer loop
    vertex 3.709 1.498 0
    vertex 3.464 2 4
    vertex 3.464 2 0
  endloop
endfacet
facet normal 0 0 0.9999999999999999
  outer loop
    vertex 3.709 1.498 4
    vertex 3.8810000000000002 0.968 4
    vertex 4.243 4.243 4
  endloop
endfacet
facet normal -0.9511658673074858 -0.30868024372997754 0
  outer loop
    vertex 3.709 1.498 4
    vertex 3.8810000000000002 0.968 0
    vertex 3.8810000000000002 0.968 4
  endloop
endfacet
facet normal 0 0 -1
  outer loop
    vertex 3.8040000000000003 -1.236 0
    vertex 3.939 -0.6950000000000001 0
    vertex 4.243 -4.243 0
  endloop
endfacet
facet normal -0.9702479044993307 0.24211361757376978 0
  outer loop
    vertex 3.8040000000000003 -1.236 0
    vertex 3.939 -0.6950000000000001 4
    vertex 3.939 -0.6950000000000001 0
  endloop
endfacet
facet normal -0.9702479044993307 0.24211361757376978 0
  outer loop
    vertex 3.8040000000000003 -1.236 0
    vertex 3.8040000000000003 -1.236 4
    vertex 3.939 -0.6950000000000001 4
  endloop
endfacet
facet normal 5.5214030728400685e-15 0 -1
  outer loop
    vertex 3.8040000000000003 1.236 -4
    vertex 4.243 4.243 -4
    vertex 3.939 0.6950000000000001 -4
  endloop
endfacet
facet normal -0.927110065704154 -0.3747891754974248 0
  outer loop
    vertex 3.8040000000000003 1.236 -4
    vertex 3.595 1.7530000000000001 0
    vertex 3.595 1.7530000000000001 -4
  endloop
endfacet
facet normal 0 0 0.9999999999999999
  outer loop
    vertex 3.8040000000000003 1.236 0
    vertex 4.243 4.243 0
    vertex 3.595 1.7530000000000001 0
  endloop
endfacet
facet normal -0.9702479044993307 -0.24211361757376978 0
  outer loop
    vertex 3.8040000000000003 1.236 0
    vertex 3.939 0.6950000000000001 -4
    vertex 3.939 0.6950000000000001 0
  endloop
endfacet
facet normal 0 0 -1
  outer loop
    vertex 3.8810000000000002 -0.968 -4
    vertex 3.978 -0.418 -4
    vertex 4.243 -4.243 -4
  endloop
endfacet
facet normal -0.9848015791747762 0.17368318759991422 0
  outer loop
    vertex 3.8810000000000002 -0.968 -4
    vertex 3.8810000000000002 -0.968 0
    vertex 3.978 -0.418 0
  endloop
endfacet
facet normal -0.9848015791747758 0.17368318759991574 0
  outer loop
    vertex 3.8810000000000002 -0.968 -4
    vertex 3.978 -0.418 0
    vertex 3.978 -0.418 -4
  endloop
endfacet
facet normal 0 0 0.9999999999999999
  outer loop
    vertex 3.8810000000000002 -0.968 0
    vertex 3.709 -1.498 0
    vertex 4.243 -4.243 0
  endloop
endfacet
facet normal 0 0 -0.9999999999999999
  outer loop
    vertex 3.8810000000000002 0.968 0
    vertex 3.709 1.498 0
    vertex 4.243 4.243 0
  endloop
endfacet
facet normal -0.9511658673074863 -0.30868024372997616 0
  outer loop
    vertex 3.8810000000000002 0.968 0
    vertex 3.709 1.498 4
    vertex 3.709 1.498 0
  endloop
endfacet
facet normal 0 0 1
  outer loop
    vertex 3.8810000000000002 0.968 4
    vertex 3.978 0.418 4
    vertex 4.243 4.243 4
  endloop
endfacet
facet normal -0.9848015791747758 -0.17368318759991574 0
  outer loop
    vertex 3.8810000000000002 0.968 4
    vertex 3.978 0.418 0
    vertex 3.978 0.418 4
  endloop
endfacet
facet normal 0 0 -1
  outer loop
    vertex 3.939 -0.6950000000000001 0
    vertex 3.998 -0.14 0
    vertex 4.243 -4.243 0
  endloop
endfacet
facet normal -0.9943969304921895 0.10571066468295376 0
  outer loop
    vertex 3.939 -0.6950000000000001 0
    vertex 3.998 -0.14 4
    vertex 3.998 -0.14 0
  endloop
endfacet
facet normal -0.9943969304921895 0.10571066468295376 0
  outer loop
    vertex 3.939 -0.6950000000000001 0
    vertex 3.939 -0.6950000000000001 4
    vertex 3.998 -0.14 4
  endloop
endfacet
facet normal -1.8794841338231207e-14 0 -1
  outer loop
    vertex 3.939 0.6950000000000001 -4
    vertex 4.243 4.243 -4
    vertex 3.998 0.14 -4
  endloop
endfacet
facet normal -0.9702479044993307 -0.24211361757376978 0
  outer loop
    vertex 3.939 0.6950000000000001 -4
    vertex 3.8040000000000003 1.236 0
    vertex 3.8040000000000003 1.236 -4
  endloop
endfacet
facet normal 0 0 1
  outer loop
    vertex 3.939 0.6950000000000001 0
    vertex 4.243 4.243 0
    vertex 3.8040000000000003 1.236 0
  endloop
endfacet
facet normal -0.9943969304921895 -0.10571066468295376 0
  outer loop
    vertex 3.939 0.6950000000000001 0
    vertex 3.998 0.14 -4
    vertex 3.998 0.14 0
  endloop
endfacet
facet normal 0 0 -0.9999999999999999
  outer loop
    vertex 3.978 -0.418 -4
    vertex 3.998 0.14 -4
    vertex 4.243 -4.243 -4
  endloop
endfacet
facet normal -0.999358283213343 0.03581929330513856 0
  outer loop
    vertex 3.978 -0.418 -4
    vertex 3.978 -0.418 0
    vertex 3.998 0.14 0
  endloop
endfacet
facet normal -0.9993582832133432 0.03581929330513698 0
  outer loop
    vertex 3.978 -0.418 -4
    vertex 3.998 0.14 0
    vertex 3.998 0.14 -4
  endloop
endfacet
facet normal 0 0 1
  outer loop
    vertex 3.978 -0.418 0
    vertex 3.8810000000000002 -0.968 0
    vertex 4.243 -4.243 0
  endloop
endfacet
facet normal 0 0 -1
  outer loop
    vertex 3.978 0.418 0
    vertex 3.8810000000000002 0.968 0
    vertex 4.243 4.243 0
  endloop
endfacet
facet normal -0.9848015791747762 -0.17368318759991422 0
  outer loop
    vertex 3.978 0.418 0
    vertex 3.8810000000000002 0.968 4
    vertex 3.8810000000000002 0.968 0
  endloop
endfacet
facet normal 0 0 0.9999999999999999
  outer loop
    vertex 3.978 0.418 4
    vertex 3.998 -0.14 4
    vertex 4.243 4.243 4
  endloop
endfacet
facet normal -0.9993582832133432 -0.03581929330513698 0
  outer loop
    vertex 3.978 0.418 4
    vertex 3.998 -0.14 0
    vertex 3.998 -0.14 4
  endloop
endfacet
facet normal 0 0 -0.9999999999999999
  outer loop
    vertex 3.998 -0.14 0
    vertex 3.978 0.418 0
    vertex 4.243 4.243 0
  endloop
endfacet
facet normal -0.999358283213343 -0.03581929330513856 0
  outer loop
    vertex 3.998 -0.14 0
    vertex 3.978 0.418 4
    vertex 3.978 0.418 0
  endloop
endfacet
facet normal 0 0 1
  outer loop
    vertex 3.998 -0.14 4
    vertex 4.243 -4.243 4
    vertex 4.243 4.243 4
  endloop
endfacet
facet normal 0 0 -1
  outer loop
    vertex 3.998 0.14 -4
    vertex 4.243 4.243 -4
    vertex 4.243 -4.243 -4
  endloop
endfacet
facet normal -0.9943969304921895 -0.10571066468295376 0
  outer loop
    vertex 3.998 0.14 -4
    vertex 3.939 0.6950000000000001 0
    vertex 3.939 0.6950000000000001 -4
  endloop
endfacet
facet normal 0 0 1
  outer loop
    vertex 3.998 0.14 0
    vertex 4.243 4.243 0
    vertex 3.939 0.6950000000000001 0
  endloop
endfacet
facet normal 0 0 0.9999999999999999
  outer loop
    vertex 3.998 0.14 0
    vertex 3.978 -0.418 0
    vertex 4.243 -4.243 0
  endloop
endfacet
facet normal 0 0 -1
  outer loop
    vertex 4.243 -4.243 -4
    vertex 4.243 4.243 -4
    vertex 6 0 -4
  endloop
endfacet
facet normal 0.9239186481023433 -0.3825889853207204 0
  outer loop
    vertex 4.243 -4.243 -4
    vertex 6 0 -4
    vertex 4.243 -4.243 0
  endloop
endfacet
facet normal 0 0 1
  outer loop
    vertex 4.243 -4.243 0
    vertex 6 0 0
    vertex 4.243 4.243 0
  endloop
endfacet
facet normal 0 0 1
  outer loop
    vertex 4.243 -4.243 0
    vertex 4.243 4.243 0
    vertex 3.998 0.14 0
  endloop
endfacet
facet normal 0 0 1
  outer loop
    vertex 4.243 -4.243 0
    vertex 2.779 -2.8770000000000002 0
    vertex 2.351 -3.236 0
  endloop
endfacet
facet normal 0 0 1
  outer loop
    vertex 4.243 -4.243 0
    vertex 2.351 -3.236 0
    vertex 1.8780000000000001 -3.532 0
  endloop
endfacet
facet normal 0.9239186481023433 -0.3825889853207204 0
  outer loop
    vertex 4.243 -4.243 0
    vertex 6 0 -4
    vertex 6 0 0
  endloop
endfacet
facet normal 0 0 -1
  outer loop
    vertex 4.243 -4.243 0
    vertex 4.243 4.243 0
    vertex 6 0 0
  endloop
endfacet
facet normal 0 0 -1
  outer loop
    vertex 4.243 -4.243 0
    vertex 3.998 -0.14 0
    vertex 4.243 4.243 0
  endloop
endfacet
facet normal 0.9239186481023433 -0.3825889853207204 0
  outer loop
    vertex 4.243 -4.243 0
    vertex 6 0 0
    vertex 4.243 -4.243 4
  endloop
endfacet
facet normal -1.1746775836394505e-14 0 1
  outer loop
    vertex 4.243 -4.243 4
    vertex 3.998 -0.14 4
    vertex 3.939 -0.6950000000000001 4
  endloop
endfacet
facet normal 0 0 1
  outer loop
    vertex 4.243 -4.243 4
    vertex 6 0 4
    vertex 4.243 4.243 4
  endloop
endfacet
facet normal 0 0 1
  outer loop
    vertex 4.243 -4.243 4
    vertex 2.571 -3.064 4
    vertex 2.12 -3.392 4
  endloop
endfacet
facet normal 0 0 1
  outer loop
    vertex 4.243 -4.243 4
    vertex 2.973 -2.677 4
    vertex 2.571 -3.064 4
  endloop
endfacet
facet normal 0 0 1
  outer loop
    vertex 4.243 -4.243 4
    vertex 3.3160000000000003 -2.237 4
    vertex 2.973 -2.677 4
  endloop
endfacet
facet normal 0 0 1
  outer loop
    vertex 4.243 -4.243 4
    vertex 3.595 -1.7530000000000001 4
    vertex 3.3160000000000003 -2.237 4
  endloop
endfacet
facet normal -2.0765756937482027e-15 0 1
  outer loop
    vertex 4.243 -4.243 4
    vertex 3.8040000000000003 -1.236 4
    vertex 3.595 -1.7530000000000001 4
  endloop
endfacet
facet normal 5.5214030728400685e-15 0 1
  outer loop
    vertex 4.243 -4.243 4
    vertex 3.939 -0.6950000000000001 4
    vertex 3.8040000000000003 -1.236 4
  endloop
endfacet
facet normal 0.9239186481023433 -0.3825889853207204 0
  outer loop
    vertex 4.243 -4.243 4
    vertex 6 0 0
    vertex 6 0 4
  endloop
endfacet
facet normal 0 0 -1
  outer loop
    vertex 4.243 4.243 -4
    vertex 2.12 3.392 -4
    vertex 0 6 -4
  endloop
endfacet
facet normal 0.9239186481023433 0.3825889853207204 0
  outer loop
    vertex 4.243 4.243 -4
    vertex 6 0 0
    vertex 6 0 -4
  endloop
endfacet
facet normal 0.3825889853207204 0.9239186481023433 0
  outer loop
    vertex 4.243 4.243 0
    vertex 0 6 -4
    vertex 0 6 0
  endloop
endfacet
facet normal 0 0 -1
  outer loop
    vertex 4.243 4.243 0
    vertex 1.8780000000000001 3.532 0
    vertex 0 6 0
  endloop
endfacet
facet normal 0.9239186481023433 0.3825889853207204 0
  outer loop
    vertex 4.243 4.243 0
    vertex 6 0 4
    vertex 6 0 0
  endloop
endfacet
facet normal 0.3825889853207204 0.9239186481023433 0
  outer loop
    vertex 4.243 4.243 4
    vertex 0 6 0
    vertex 0 6 4
  endloop
endfacet
facet normal 0.9239186481023433 0.3825889853207204 0
  outer loop
    vertex 6 0 0
    vertex 4.243 4.243 -4
    vertex 4.243 4.243 0
  endloop
endfacet
facet normal 0.9239186481023433 0.3825889853207204 0
  outer loop
    vertex 6 0 4
    vertex 4.243 4.243 0
    vertex 4.243 4.243 4
  endloop
endfacet
endsolid JSxCAD
