<?xml version="1.0" encoding="UTF-8"?>
<!-- Generated by jsxcad -->
<!DOCTYPE svg PUBLIC "-//W3C//DTD SVG 1.1 Tiny//EN" "http://www.w3.org/Graphics/SVG/1.1/DTD/svg11-tiny.dtd">
<svg baseProfile="tiny" height="27.75000mm" width="22.12500mm" viewBox="-0.00000 3.75000 22.12500 27.75000" version="1.1" stroke="black" stroke-width=".1" fill="none" xmlns="http://www.w3.org/2000/svg">
<path fill="#000000" stroke="#000000" d="M5.00067 12.24612 L17.12054 12.24612 L11.06061 22.75000 z"/>
<path stroke="#000000" d="M 0.00000 3.75000 L 22.12500 3.75000 L 22.12500 27.75000 L 0.00000 27.75000 z"/>
<path stroke="#000000" d="M 0.42857 30.96429 L 0.42857 31.07143 L 0.53571 31.28571 L 0.64286 31.39286 L 0.85714 31.50000 L 1.28571 31.50000 L 1.50000 31.39286 L 1.60714 31.28571 L 1.71429 31.07143 L 1.71429 30.85714 L 1.60714 30.64286 L 1.39286 30.32143 L 0.32143 29.25000 L 1.82143 29.25000"/>
<path stroke="#000000" d="M 2.57143 30.96429 L 2.57143 31.07143 L 2.67857 31.28571 L 2.78571 31.39286 L 3.00000 31.50000 L 3.42857 31.50000 L 3.64286 31.39286 L 3.75000 31.28571 L 3.85714 31.07143 L 3.85714 30.85714 L 3.75000 30.64286 L 3.53571 30.32143 L 2.46429 29.25000 L 3.96429 29.25000"/>
<path stroke="#000000" d="M 4.82143 29.46429 L 4.71429 29.35714 L 4.82143 29.25000 L 4.92857 29.35714 z"/>
<path stroke="#000000" d="M 6.00000 31.07143 L 6.21429 31.17857 L 6.53571 31.50000 L 6.53571 29.25000"/>
<path stroke="#000000" d="M 8.14286 31.07143 L 8.35714 31.17857 L 8.67857 31.50000 L 8.67857 29.25000"/>
<path stroke="#000000" d=""/>
<path stroke="#000000" d="M 11.67857 30.75000 L 12.85714 29.25000 M 12.85714 30.75000 L 11.67857 29.25000"/>
<path stroke="#000000" d=""/>
<path stroke="#000000" d="M 15.32143 30.96429 L 15.32143 31.07143 L 15.42857 31.28571 L 15.53571 31.39286 L 15.75000 31.50000 L 16.17857 31.50000 L 16.39286 31.39286 L 16.50000 31.28571 L 16.60714 31.07143 L 16.60714 30.85714 L 16.50000 30.64286 L 16.28571 30.32143 L 15.21429 29.25000 L 16.71429 29.25000"/>
<path stroke="#000000" d="M 18.42857 31.50000 L 17.35714 30.00000 L 18.96429 30.00000 M 18.42857 31.50000 L 18.42857 29.25000"/>
</svg>