<?xml version="1.0" encoding="UTF-8"?>
<!-- Generated by jsxcad -->
<!DOCTYPE svg PUBLIC "-//W3C//DTD SVG 1.1 Tiny//EN" "http://www.w3.org/Graphics/SVG/1.1/DTD/svg11-tiny.dtd">
<svg baseProfile="tiny" height="60 mm" width="60 mm" viewBox="0 0 60 60" version="1.1" stroke="black" stroke-width=".1" fill="none" xmlns="http://www.w3.org/2000/svg">
<path d="M19.7394 1.80922 L22.26498 1.13249 L24.79055 0.45577 L27.39528 0.22788 L30 0 L32.60472 0.22788 L35.20945 0.45577 L37.73502 1.13249 L40.2606 1.80922 L42.6303 2.91423 L45 4.01924 L49.28363 7.01867 L52.98133 10.71637 L55.98076 15 L58.19078 19.7394 L59.54423 24.79055 L60 30 L59.54423 35.20945 L58.19078 40.2606 L55.98076 45 L52.98133 49.28363 L49.28363 52.98133 L47.14181 54.48105 L45 55.98076 L42.6303 57.08577 L40.2606 58.19078 L37.73502 58.86751 L35.20945 59.54423 L32.60472 59.77212 L30 60 L27.39528 59.77212 L24.79055 59.54423 L22.26498 58.86751 L19.7394 58.19078 L17.3697 57.08577 L15 55.98076 L12.85819 54.48105 L10.71637 52.98133 L8.86752 51.13248 L7.01867 49.28363 L5.51895 47.14181 L4.01924 45 L2.91423 42.6303 L1.80922 40.2606 L1.13249 37.73502 L0.45577 35.20945 L0.22788 32.60472 L0 30 L0.22788 27.39528 L0.45577 24.79055 L1.13249 22.26498 L1.80922 19.7394 L2.91423 17.3697 L4.01924 15 L5.51895 12.85819 L7.01867 10.71637 L8.86752 8.86752 L10.71637 7.01867 L12.85819 5.51895 L15 4.01924 L17.3697 2.91423 z"/>
<path d="M18.50933 20.35819 L17.00962 22.5 L15.90461 24.8697 L15.22788 27.39528 L15 30 L15.22788 32.60472 L15.90461 35.1303 L17.00962 37.5 L18.50933 39.64181 L20.35819 41.49067 L22.5 42.99038 L24.8697 44.09539 L27.39528 44.77212 L30 45 L32.60472 44.77212 L35.1303 44.09539 L37.5 42.99038 L39.64181 41.49067 L41.49067 39.64181 L42.99038 37.5 L44.09539 35.1303 L44.77212 32.60472 L45 30 L44.77212 27.39528 L44.09539 24.8697 L42.99038 22.5 L41.49067 20.35819 L39.64181 18.50933 L37.5 17.00962 L35.1303 15.90461 L32.60472 15.22788 L30 15 L27.39528 15.22788 L24.8697 15.90461 L22.5 17.00962 L20.35819 18.50933 z"/>
</svg>