<?xml version="1.0" encoding="UTF-8"?>
<!-- Generated by jsxcad -->
<!DOCTYPE svg PUBLIC "-//W3C//DTD SVG 1.1 Tiny//EN" "http://www.w3.org/Graphics/SVG/1.1/DTD/svg11-tiny.dtd">
<svg baseProfile="tiny" height="60 mm" width="60 mm" viewBox="0 0 60 60" version="1.1" stroke="black" stroke-width=".1" fill="none" xmlns="http://www.w3.org/2000/svg">
<path fill="black" d="M15 25.98076 L14.77212 2.60472 L15 0 z"/>
<path fill="black" d="M15 25.98076 L14.09539 5.1303 L14.77212 2.60472 z"/>
<path fill="black" d="M15 25.98076 L12.99038 7.5 L14.09539 5.1303 z"/>
<path fill="black" d="M15 25.98076 L11.49067 9.64181 L12.99038 7.5 z"/>
<path fill="black" d="M10.2606 28.19078 L11.49067 9.64181 L15 25.98076 z"/>
<path fill="black" d="M10.2606 28.19078 L9.64181 11.49067 L11.49067 9.64181 z"/>
<path fill="black" d="M10.2606 28.19078 L7.5 12.99038 L9.64181 11.49067 z"/>
<path fill="black" d="M5.20945 29.54423 L7.5 12.99038 L10.2606 28.19078 z"/>
<path fill="black" d="M5.20945 29.54423 L5.1303 14.09539 L7.5 12.99038 z"/>
<path fill="black" d="M5.20945 29.54423 L2.60472 14.77212 L5.1303 14.09539 z"/>
<path fill="black" d="M0 30 L2.60472 14.77212 L5.20945 29.54423 z"/>
<path fill="black" d="M0 30 L0 15 L2.60472 14.77212 z"/>
<path fill="black" d="M0 30 L-2.60472 14.77212 L0 15 z"/>
<path fill="black" d="M0 30 L-5.1303 14.09539 L-2.60472 14.77212 z"/>
<path fill="black" d="M-5.20945 29.54423 L-5.1303 14.09539 L0 30 z"/>
<path fill="black" d="M-5.20945 29.54423 L-7.5 12.99038 L-5.1303 14.09539 z"/>
<path fill="black" d="M-5.20945 29.54423 L-9.64181 11.49067 L-7.5 12.99038 z"/>
<path fill="black" d="M-10.2606 28.19078 L-9.64181 11.49067 L-5.20945 29.54423 z"/>
<path fill="black" d="M-10.2606 28.19078 L-11.49067 9.64181 L-9.64181 11.49067 z"/>
<path fill="black" d="M-10.2606 28.19078 L-12.99038 7.5 L-11.49067 9.64181 z"/>
<path fill="black" d="M-10.2606 28.19078 L-14.09539 5.1303 L-12.99038 7.5 z"/>
<path fill="black" d="M-10.2606 28.19078 L-14.77212 2.60472 L-14.09539 5.1303 z"/>
<path fill="black" d="M-15 25.98076 L-14.77212 2.60472 L-10.2606 28.19078 z"/>
<path fill="black" d="M-15 25.98076 L-15 0 L-14.77212 2.60472 z"/>
<path fill="black" d="M-19.28363 22.98133 L-15 -25.98076 L-15 25.98076 z"/>
<path fill="black" d="M-19.28363 22.98133 L-19.28363 -22.98133 L-15 -25.98076 z"/>
<path fill="black" d="M-22.98133 19.28363 L-19.28363 -22.98133 L-19.28363 22.98133 z"/>
<path fill="black" d="M-22.98133 19.28363 L-22.98133 -19.28363 L-19.28363 -22.98133 z"/>
<path fill="black" d="M-25.98076 15 L-22.98133 -19.28363 L-22.98133 19.28363 z"/>
<path fill="black" d="M-25.98076 15 L-25.98076 -15 L-22.98133 -19.28363 z"/>
<path fill="black" d="M-28.19078 10.2606 L-25.98076 -15 L-25.98076 15 z"/>
<path fill="black" d="M-28.19078 10.2606 L-28.19078 -10.2606 L-25.98076 -15 z"/>
<path fill="black" d="M-29.54423 5.20945 L-28.19078 -10.2606 L-28.19078 10.2606 z"/>
<path fill="black" d="M-29.54423 5.20945 L-29.54423 -5.20945 L-28.19078 -10.2606 z"/>
<path fill="black" d="M-29.54423 -5.20945 L-29.54423 5.20945 L-30 0 z"/>
<path fill="black" d="M29.54423 5.20945 L29.54423 -5.20945 L30 0 z"/>
<path fill="black" d="M28.19078 10.2606 L29.54423 -5.20945 L29.54423 5.20945 z"/>
<path fill="black" d="M28.19078 10.2606 L28.19078 -10.2606 L29.54423 -5.20945 z"/>
<path fill="black" d="M25.98076 15 L28.19078 -10.2606 L28.19078 10.2606 z"/>
<path fill="black" d="M25.98076 15 L25.98076 -15 L28.19078 -10.2606 z"/>
<path fill="black" d="M22.98133 19.28363 L25.98076 -15 L25.98076 15 z"/>
<path fill="black" d="M22.98133 19.28363 L22.98133 -19.28363 L25.98076 -15 z"/>
<path fill="black" d="M19.28363 22.98133 L22.98133 -19.28363 L22.98133 19.28363 z"/>
<path fill="black" d="M19.28363 22.98133 L19.28363 -22.98133 L22.98133 -19.28363 z"/>
<path fill="black" d="M15 25.98076 L19.28363 -22.98133 L19.28363 22.98133 z"/>
<path fill="black" d="M15 0 L19.28363 -22.98133 L15 25.98076 z"/>
<path fill="black" d="M15 0 L15 -25.98076 L19.28363 -22.98133 z"/>
<path fill="black" d="M14.77212 -2.60472 L15 -25.98076 L15 0 z"/>
<path fill="black" d="M14.09539 -5.1303 L15 -25.98076 L14.77212 -2.60472 z"/>
<path fill="black" d="M12.99038 -7.5 L15 -25.98076 L14.09539 -5.1303 z"/>
<path fill="black" d="M11.49067 -9.64181 L15 -25.98076 L12.99038 -7.5 z"/>
<path fill="black" d="M11.49067 -9.64181 L10.2606 -28.19078 L15 -25.98076 z"/>
<path fill="black" d="M9.64181 -11.49067 L10.2606 -28.19078 L11.49067 -9.64181 z"/>
<path fill="black" d="M7.5 -12.99038 L10.2606 -28.19078 L9.64181 -11.49067 z"/>
<path fill="black" d="M7.5 -12.99038 L5.20945 -29.54423 L10.2606 -28.19078 z"/>
<path fill="black" d="M5.1303 -14.09539 L5.20945 -29.54423 L7.5 -12.99038 z"/>
<path fill="black" d="M2.60472 -14.77212 L5.20945 -29.54423 L5.1303 -14.09539 z"/>
<path fill="black" d="M0 -15 L5.20945 -29.54423 L2.60472 -14.77212 z"/>
<path fill="black" d="M0 -15 L0 -30 L5.20945 -29.54423 z"/>
<path fill="black" d="M-2.60472 -14.77212 L0 -30 L0 -15 z"/>
<path fill="black" d="M-5.1303 -14.09539 L0 -30 L-2.60472 -14.77212 z"/>
<path fill="black" d="M-5.1303 -14.09539 L-5.20945 -29.54423 L0 -30 z"/>
<path fill="black" d="M-7.5 -12.99038 L-5.20945 -29.54423 L-5.1303 -14.09539 z"/>
<path fill="black" d="M-9.64181 -11.49067 L-5.20945 -29.54423 L-7.5 -12.99038 z"/>
<path fill="black" d="M-9.64181 -11.49067 L-10.2606 -28.19078 L-5.20945 -29.54423 z"/>
<path fill="black" d="M-11.49067 -9.64181 L-10.2606 -28.19078 L-9.64181 -11.49067 z"/>
<path fill="black" d="M-12.99038 -7.5 L-10.2606 -28.19078 L-11.49067 -9.64181 z"/>
<path fill="black" d="M-14.09539 -5.1303 L-10.2606 -28.19078 L-12.99038 -7.5 z"/>
<path fill="black" d="M-14.77212 -2.60472 L-10.2606 -28.19078 L-14.09539 -5.1303 z"/>
<path fill="black" d="M-14.77212 -2.60472 L-15 -25.98076 L-10.2606 -28.19078 z"/>
<path fill="black" d="M-15 -25.98076 L-14.77212 -2.60472 L-15 0 z"/>
</svg>