<?xml version="1.0" encoding="UTF-8"?>
<!-- Generated by jsxcad -->
<!DOCTYPE svg PUBLIC "-//W3C//DTD SVG 1.1 Tiny//EN" "http://www.w3.org/Graphics/SVG/1.1/DTD/svg11-tiny.dtd">
<svg baseProfile="tiny" height="60mm" width="60mm" viewBox="0 0 60 60" version="1.1" stroke="black" stroke-width=".1" fill="none" xmlns="http://www.w3.org/2000/svg">
<path fill="black" d="M44.999999999999986 55.980760000000004 L44.77211999999999 32.60472 L44.999999999999986 30 z"/>
<path fill="black" d="M44.999999999999986 55.980760000000004 L44.09538999999999 35.1303 L44.77211999999999 32.60472 z"/>
<path fill="black" d="M44.999999999999986 55.980760000000004 L42.99037999999999 37.5 L44.09538999999999 35.1303 z"/>
<path fill="black" d="M44.999999999999986 55.980760000000004 L41.49066999999999 39.64181 L42.99037999999999 37.5 z"/>
<path fill="black" d="M40.26059999999998 58.190780000000004 L41.49066999999999 39.64181 L44.999999999999986 55.980760000000004 z"/>
<path fill="black" d="M40.26059999999998 58.190780000000004 L39.641809999999985 41.49067 L41.49066999999999 39.64181 z"/>
<path fill="black" d="M40.26059999999998 58.190780000000004 L37.499999999999986 42.99038 L39.641809999999985 41.49067 z"/>
<path fill="black" d="M35.20944999999999 59.54423 L37.499999999999986 42.99038 L40.26059999999998 58.190780000000004 z"/>
<path fill="black" d="M35.20944999999999 59.54423 L35.130299999999984 44.09539 L37.499999999999986 42.99038 z"/>
<path fill="black" d="M35.20944999999999 59.54423 L32.604719999999986 44.77212 L35.130299999999984 44.09539 z"/>
<path fill="black" d="M29.999999999999993 60 L32.604719999999986 44.77212 L35.20944999999999 59.54423 z"/>
<path fill="black" d="M29.999999999999993 60 L29.999999999999993 45 L32.604719999999986 44.77212 z"/>
<path fill="black" d="M29.999999999999993 60 L27.395279999999993 44.77212 L29.999999999999993 45 z"/>
<path fill="black" d="M29.999999999999993 60 L24.869699999999995 44.09539 L27.395279999999993 44.77212 z"/>
<path fill="black" d="M24.790549999999993 59.54423 L24.869699999999995 44.09539 L29.999999999999993 60 z"/>
<path fill="black" d="M24.790549999999993 59.54423 L22.499999999999993 42.99038 L24.869699999999995 44.09539 z"/>
<path fill="black" d="M24.790549999999993 59.54423 L20.358189999999993 41.49067 L22.499999999999993 42.99038 z"/>
<path fill="black" d="M19.739399999999993 58.190780000000004 L20.358189999999993 41.49067 L24.790549999999993 59.54423 z"/>
<path fill="black" d="M19.739399999999993 58.190780000000004 L18.50932999999999 39.64181 L20.358189999999993 41.49067 z"/>
<path fill="black" d="M19.739399999999993 58.190780000000004 L17.00961999999999 37.5 L18.50932999999999 39.64181 z"/>
<path fill="black" d="M19.739399999999993 58.190780000000004 L15.904609999999996 35.1303 L17.00961999999999 37.5 z"/>
<path fill="black" d="M19.739399999999993 58.190780000000004 L15.227879999999997 32.60472 L15.904609999999996 35.1303 z"/>
<path fill="black" d="M14.999999999999996 55.980760000000004 L15.227879999999997 32.60472 L19.739399999999993 58.190780000000004 z"/>
<path fill="black" d="M14.999999999999996 55.980760000000004 L14.999999999999996 30 L15.227879999999997 32.60472 z"/>
<path fill="black" d="M10.716369999999998 52.98133 L14.999999999999996 4.01924 L14.999999999999996 55.980760000000004 z"/>
<path fill="black" d="M10.716369999999998 52.98133 L10.716369999999998 7.01867 L14.999999999999996 4.01924 z"/>
<path fill="black" d="M7.018669999999998 49.28363 L10.716369999999998 7.01867 L10.716369999999998 52.98133 z"/>
<path fill="black" d="M7.018669999999998 49.28363 L7.018669999999998 10.716370000000001 L10.716369999999998 7.01867 z"/>
<path fill="black" d="M4.019239999999998 45 L7.018669999999998 10.716370000000001 L7.018669999999998 49.28363 z"/>
<path fill="black" d="M4.019239999999998 45 L4.019239999999998 15 L7.018669999999998 10.716370000000001 z"/>
<path fill="black" d="M1.8092199999999994 40.2606 L4.019239999999998 15 L4.019239999999998 45 z"/>
<path fill="black" d="M1.8092199999999994 40.2606 L1.8092199999999994 19.7394 L4.019239999999998 15 z"/>
<path fill="black" d="M0.455770000000001 35.209450000000004 L1.8092199999999994 19.7394 L1.8092199999999994 40.2606 z"/>
<path fill="black" d="M0.455770000000001 35.209450000000004 L0.455770000000001 24.79055 L1.8092199999999994 19.7394 z"/>
<path fill="black" d="M0.455770000000001 24.79055 L0.455770000000001 35.209450000000004 L0 30 z"/>
<path fill="black" d="M59.544229999999985 35.209450000000004 L59.544229999999985 24.79055 L59.999999999999986 30 z"/>
<path fill="black" d="M58.19077999999999 40.2606 L59.544229999999985 24.79055 L59.544229999999985 35.209450000000004 z"/>
<path fill="black" d="M58.19077999999999 40.2606 L58.19077999999999 19.7394 L59.544229999999985 24.79055 z"/>
<path fill="black" d="M55.98075999999999 45 L58.19077999999999 19.7394 L58.19077999999999 40.2606 z"/>
<path fill="black" d="M55.98075999999999 45 L55.98075999999999 15 L58.19077999999999 19.7394 z"/>
<path fill="black" d="M52.981329999999986 49.28363 L55.98075999999999 15 L55.98075999999999 45 z"/>
<path fill="black" d="M52.981329999999986 49.28363 L52.981329999999986 10.716370000000001 L55.98075999999999 15 z"/>
<path fill="black" d="M49.28362999999999 52.98133 L52.981329999999986 10.716370000000001 L52.981329999999986 49.28363 z"/>
<path fill="black" d="M49.28362999999999 52.98133 L49.28362999999999 7.01867 L52.981329999999986 10.716370000000001 z"/>
<path fill="black" d="M44.999999999999986 55.980760000000004 L49.28362999999999 7.01867 L49.28362999999999 52.98133 z"/>
<path fill="black" d="M44.999999999999986 30 L49.28362999999999 7.01867 L44.999999999999986 55.980760000000004 z"/>
<path fill="black" d="M44.999999999999986 30 L44.999999999999986 4.01924 L49.28362999999999 7.01867 z"/>
<path fill="black" d="M44.77211999999999 27.39528 L44.999999999999986 4.01924 L44.999999999999986 30 z"/>
<path fill="black" d="M44.09538999999999 24.8697 L44.999999999999986 4.01924 L44.77211999999999 27.39528 z"/>
<path fill="black" d="M42.99037999999999 22.5 L44.999999999999986 4.01924 L44.09538999999999 24.8697 z"/>
<path fill="black" d="M41.49066999999999 20.35819 L44.999999999999986 4.01924 L42.99037999999999 22.5 z"/>
<path fill="black" d="M41.49066999999999 20.35819 L40.26059999999998 1.8092199999999998 L44.999999999999986 4.01924 z"/>
<path fill="black" d="M39.641809999999985 18.50933 L40.26059999999998 1.8092199999999998 L41.49066999999999 20.35819 z"/>
<path fill="black" d="M37.499999999999986 17.009619999999998 L40.26059999999998 1.8092199999999998 L39.641809999999985 18.50933 z"/>
<path fill="black" d="M37.499999999999986 17.009619999999998 L35.20944999999999 0.4557700000000011 L40.26059999999998 1.8092199999999998 z"/>
<path fill="black" d="M35.130299999999984 15.90461 L35.20944999999999 0.4557700000000011 L37.499999999999986 17.009619999999998 z"/>
<path fill="black" d="M32.604719999999986 15.22788 L35.20944999999999 0.4557700000000011 L35.130299999999984 15.90461 z"/>
<path fill="black" d="M29.999999999999993 15 L35.20944999999999 0.4557700000000011 L32.604719999999986 15.22788 z"/>
<path fill="black" d="M29.999999999999993 15 L29.999999999999993 0 L35.20944999999999 0.4557700000000011 z"/>
<path fill="black" d="M27.395279999999993 15.22788 L29.999999999999993 0 L29.999999999999993 15 z"/>
<path fill="black" d="M24.869699999999995 15.90461 L29.999999999999993 0 L27.395279999999993 15.22788 z"/>
<path fill="black" d="M24.869699999999995 15.90461 L24.790549999999993 0.4557700000000011 L29.999999999999993 0 z"/>
<path fill="black" d="M22.499999999999993 17.009619999999998 L24.790549999999993 0.4557700000000011 L24.869699999999995 15.90461 z"/>
<path fill="black" d="M20.358189999999993 18.50933 L24.790549999999993 0.4557700000000011 L22.499999999999993 17.009619999999998 z"/>
<path fill="black" d="M20.358189999999993 18.50933 L19.739399999999993 1.8092199999999998 L24.790549999999993 0.4557700000000011 z"/>
<path fill="black" d="M18.50932999999999 20.35819 L19.739399999999993 1.8092199999999998 L20.358189999999993 18.50933 z"/>
<path fill="black" d="M17.00961999999999 22.5 L19.739399999999993 1.8092199999999998 L18.50932999999999 20.35819 z"/>
<path fill="black" d="M15.904609999999996 24.8697 L19.739399999999993 1.8092199999999998 L17.00961999999999 22.5 z"/>
<path fill="black" d="M15.227879999999997 27.39528 L19.739399999999993 1.8092199999999998 L15.904609999999996 24.8697 z"/>
<path fill="black" d="M15.227879999999997 27.39528 L14.999999999999996 4.01924 L19.739399999999993 1.8092199999999998 z"/>
<path fill="black" d="M14.999999999999996 4.01924 L15.227879999999997 27.39528 L14.999999999999996 30 z"/>
</svg>