solid JSxCAD
facet normal -0.9931628579317162 0.11673704478401638 0
  outer loop
    vertex -4 0.14300000000000002 0
    vertex -4 0.14300000000000002 16
    vertex -3.935 0.6960000000000001 16
  endloop
endfacet
facet normal -0.9989391182909367 -0.04605038488575205 0
  outer loop
    vertex -4 0.14300000000000002 0
    vertex -3.974 -0.421 0
    vertex -4 0.14300000000000002 16
  endloop
endfacet
facet normal 0 0 -1
  outer loop
    vertex -4 0.14300000000000002 0
    vertex -3.935 0.6960000000000001 0
    vertex -3.974 -0.421 0
  endloop
endfacet
facet normal -0.9931628579317162 0.11673704478401797 0
  outer loop
    vertex -4 0.14300000000000002 0
    vertex -3.935 0.6960000000000001 16
    vertex -3.935 0.6960000000000001 0
  endloop
endfacet
facet normal -0.9989391182909367 -0.04605038488575205 0
  outer loop
    vertex -4 0.14300000000000002 16
    vertex -3.974 -0.421 0
    vertex -3.974 -0.421 16
  endloop
endfacet
facet normal 0 0 1
  outer loop
    vertex -4 0.14300000000000002 16
    vertex -3.974 -0.421 16
    vertex -3.935 0.6960000000000001 16
  endloop
endfacet
facet normal 0 0 -1
  outer loop
    vertex -3.974 -0.421 0
    vertex -3.935 0.6960000000000001 0
    vertex -3.592 1.75 0
  endloop
endfacet
facet normal -0.9851453468163281 -0.17172258339000335 0
  outer loop
    vertex -3.974 -0.421 0
    vertex -3.879 -0.966 0
    vertex -3.974 -0.421 16
  endloop
endfacet
facet normal 0 0 -1
  outer loop
    vertex -3.974 -0.421 0
    vertex -3.592 1.75 0
    vertex -0.276 -3.986 0
  endloop
endfacet
facet normal 0 0 -1
  outer loop
    vertex -3.974 -0.421 0
    vertex -1.875 -3.529 0
    vertex -3.879 -0.966 0
  endloop
endfacet
facet normal 0 0 -1
  outer loop
    vertex -3.974 -0.421 0
    vertex -0.276 -3.986 0
    vertex -1.875 -3.529 0
  endloop
endfacet
facet normal -0.9851453468163284 -0.17172258339000177 0
  outer loop
    vertex -3.974 -0.421 16
    vertex -3.879 -0.966 0
    vertex -3.879 -0.966 16
  endloop
endfacet
facet normal -1.6744360123721733e-14 0 1
  outer loop
    vertex -3.974 -0.421 16
    vertex -3.879 -0.966 16
    vertex -1.875 -3.529 16
  endloop
endfacet
facet normal 0 0 1
  outer loop
    vertex -3.974 -0.421 16
    vertex -3.592 1.75 16
    vertex -3.935 0.6960000000000001 16
  endloop
endfacet
facet normal 0 0 1
  outer loop
    vertex -3.974 -0.421 16
    vertex -1.875 -3.529 16
    vertex -0.276 -3.986 16
  endloop
endfacet
facet normal 0 0 1
  outer loop
    vertex -3.974 -0.421 16
    vertex -0.276 -3.986 16
    vertex -3.592 1.75 16
  endloop
endfacet
facet normal -0.9724198637521083 0.23323723669330995 0
  outer loop
    vertex -3.935 0.6960000000000001 0
    vertex -3.935 0.6960000000000001 16
    vertex -3.805 1.238 16
  endloop
endfacet
facet normal 0 0 -1
  outer loop
    vertex -3.935 0.6960000000000001 0
    vertex -3.805 1.238 0
    vertex -3.592 1.75 0
  endloop
endfacet
facet normal -0.9724198637521083 0.23323723669330995 0
  outer loop
    vertex -3.935 0.6960000000000001 0
    vertex -3.805 1.238 16
    vertex -3.805 1.238 0
  endloop
endfacet
facet normal 7.267343776951483e-14 0 1
  outer loop
    vertex -3.935 0.6960000000000001 16
    vertex -3.592 1.75 16
    vertex -3.805 1.238 16
  endloop
endfacet
facet normal -0.9518429263654844 -0.3065861111139757 0
  outer loop
    vertex -3.879 -0.966 0
    vertex -3.7070000000000003 -1.5 0
    vertex -3.879 -0.966 16
  endloop
endfacet
facet normal 0 0 -1
  outer loop
    vertex -3.879 -0.966 0
    vertex -3.152 -2.462 0
    vertex -3.7070000000000003 -1.5 0
  endloop
endfacet
facet normal 0 0 -1
  outer loop
    vertex -3.879 -0.966 0
    vertex -1.875 -3.529 0
    vertex -3.152 -2.462 0
  endloop
endfacet
facet normal -0.9518429263654844 -0.3065861111139757 0
  outer loop
    vertex -3.879 -0.966 16
    vertex -3.7070000000000003 -1.5 0
    vertex -3.7070000000000003 -1.5 16
  endloop
endfacet
facet normal 0 0 1
  outer loop
    vertex -3.879 -0.966 16
    vertex -3.7070000000000003 -1.5 16
    vertex -3.152 -2.462 16
  endloop
endfacet
facet normal 6.262037377488693e-15 0 1
  outer loop
    vertex -3.879 -0.966 16
    vertex -3.152 -2.462 16
    vertex -1.875 -3.529 16
  endloop
endfacet
facet normal -0.9232901894025298 0.38410314520066197 0
  outer loop
    vertex -3.805 1.238 0
    vertex -3.805 1.238 16
    vertex -3.592 1.75 16
  endloop
endfacet
facet normal -0.9232901894025298 0.38410314520066197 0
  outer loop
    vertex -3.805 1.238 0
    vertex -3.592 1.75 16
    vertex -3.592 1.75 0
  endloop
endfacet
facet normal -0.9015230574682734 -0.43273106758477164 0
  outer loop
    vertex -3.7070000000000003 -1.5 0
    vertex -3.467 -2 0
    vertex -3.7070000000000003 -1.5 16
  endloop
endfacet
facet normal 0 0 -0.9999999999999999
  outer loop
    vertex -3.7070000000000003 -1.5 0
    vertex -3.152 -2.462 0
    vertex -3.467 -2 0
  endloop
endfacet
facet normal -0.9015230574682734 -0.43273106758477164 0
  outer loop
    vertex -3.7070000000000003 -1.5 16
    vertex -3.467 -2 0
    vertex -3.467 -2 16
  endloop
endfacet
facet normal 0 0 0.9999999999999999
  outer loop
    vertex -3.7070000000000003 -1.5 16
    vertex -3.467 -2 16
    vertex -3.152 -2.462 16
  endloop
endfacet
facet normal -0.8697682805469445 0.49346037141234717 0
  outer loop
    vertex -3.592 1.75 0
    vertex -3.592 1.75 16
    vertex -3.314 2.24 16
  endloop
endfacet
facet normal 0 0 -1
  outer loop
    vertex -3.592 1.75 0
    vertex -3.314 2.24 0
    vertex -2.971 2.68 0
  endloop
endfacet
facet normal -0.8697682805469438 0.49346037141234833 0
  outer loop
    vertex -3.592 1.75 0
    vertex -3.314 2.24 16
    vertex -3.314 2.24 0
  endloop
endfacet
facet normal 0 0 -1
  outer loop
    vertex -3.592 1.75 0
    vertex -2.971 2.68 0
    vertex -2.118 3.394 0
  endloop
endfacet
facet normal 0 0 -1
  outer loop
    vertex -3.592 1.75 0
    vertex -2.118 3.394 0
    vertex -1.6300000000000001 3.652 0
  endloop
endfacet
facet normal 0 0 -1
  outer loop
    vertex -3.592 1.75 0
    vertex -1.6300000000000001 3.652 0
    vertex -0.556 3.9570000000000003 0
  endloop
endfacet
facet normal 0 0 -1
  outer loop
    vertex -3.592 1.75 0
    vertex -0.556 3.9570000000000003 0
    vertex 0.556 3.9570000000000003 0
  endloop
endfacet
facet normal 0 0 -1
  outer loop
    vertex -3.592 1.75 0
    vertex 0.276 -3.986 0
    vertex -0.276 -3.986 0
  endloop
endfacet
facet normal 0 0 -1
  outer loop
    vertex -3.592 1.75 0
    vertex 0.556 3.9570000000000003 0
    vertex 3.592 1.75 0
  endloop
endfacet
facet normal 0 0 -1
  outer loop
    vertex -3.592 1.75 0
    vertex 3.592 1.75 0
    vertex 0.276 -3.986 0
  endloop
endfacet
facet normal 0 0 1
  outer loop
    vertex -3.592 1.75 16
    vertex -2.971 2.68 16
    vertex -3.314 2.24 16
  endloop
endfacet
facet normal 0 0 1
  outer loop
    vertex -3.592 1.75 16
    vertex -2.118 3.394 16
    vertex -2.971 2.68 16
  endloop
endfacet
facet normal 0 0 1
  outer loop
    vertex -3.592 1.75 16
    vertex -1.6300000000000001 3.652 16
    vertex -2.118 3.394 16
  endloop
endfacet
facet normal 0 0 1
  outer loop
    vertex -3.592 1.75 16
    vertex -0.556 3.9570000000000003 16
    vertex -1.6300000000000001 3.652 16
  endloop
endfacet
facet normal 0 0 1
  outer loop
    vertex -3.592 1.75 16
    vertex -0.276 -3.986 16
    vertex 0.276 -3.986 16
  endloop
endfacet
facet normal 0 0 1
  outer loop
    vertex -3.592 1.75 16
    vertex 0.276 -3.986 16
    vertex 3.592 1.75 16
  endloop
endfacet
facet normal 0 0 1
  outer loop
    vertex -3.592 1.75 16
    vertex 0.556 3.9570000000000003 16
    vertex -0.556 3.9570000000000003 16
  endloop
endfacet
facet normal 0 0 1
  outer loop
    vertex -3.592 1.75 16
    vertex 3.592 1.75 16
    vertex 0.556 3.9570000000000003 16
  endloop
endfacet
facet normal -0.8262273428075475 -0.5633368246415101 0
  outer loop
    vertex -3.467 -2 0
    vertex -3.152 -2.462 0
    vertex -3.467 -2 16
  endloop
endfacet
facet normal -0.8262273428075482 -0.5633368246415089 0
  outer loop
    vertex -3.467 -2 16
    vertex -3.152 -2.462 0
    vertex -3.152 -2.462 16
  endloop
endfacet
facet normal -0.7886761252594849 0.6148088885545531 0
  outer loop
    vertex -3.314 2.24 0
    vertex -3.314 2.24 16
    vertex -2.971 2.68 16
  endloop
endfacet
facet normal -0.7886761252594849 0.6148088885545531 0
  outer loop
    vertex -3.314 2.24 0
    vertex -2.971 2.68 16
    vertex -2.971 2.68 0
  endloop
endfacet
facet normal -0.7496808162237268 -0.6617995722166393 0
  outer loop
    vertex -3.152 -2.462 0
    vertex -2.783 -2.88 0
    vertex -3.152 -2.462 16
  endloop
endfacet
facet normal 0 0 -1
  outer loop
    vertex -3.152 -2.462 0
    vertex -2.353 -3.238 0
    vertex -2.783 -2.88 0
  endloop
endfacet
facet normal 0 0 -1
  outer loop
    vertex -3.152 -2.462 0
    vertex -1.875 -3.529 0
    vertex -2.353 -3.238 0
  endloop
endfacet
facet normal -0.7496808162237262 -0.6617995722166403 0
  outer loop
    vertex -3.152 -2.462 16
    vertex -2.783 -2.88 0
    vertex -2.783 -2.88 16
  endloop
endfacet
facet normal 0 0 1
  outer loop
    vertex -3.152 -2.462 16
    vertex -2.783 -2.88 16
    vertex -2.353 -3.238 16
  endloop
endfacet
facet normal 0 0 1
  outer loop
    vertex -3.152 -2.462 16
    vertex -2.353 -3.238 16
    vertex -1.875 -3.529 16
  endloop
endfacet
facet normal -0.6953316342321869 0.718689027630168 0
  outer loop
    vertex -2.971 2.68 0
    vertex -2.971 2.68 16
    vertex -2.571 3.067 16
  endloop
endfacet
facet normal 0 0 -0.9999999999999999
  outer loop
    vertex -2.971 2.68 0
    vertex -2.571 3.067 0
    vertex -2.118 3.394 0
  endloop
endfacet
facet normal -0.6953316342321876 0.7186890276301671 0
  outer loop
    vertex -2.971 2.68 0
    vertex -2.571 3.067 16
    vertex -2.571 3.067 0
  endloop
endfacet
facet normal 0 0 0.9999999999999999
  outer loop
    vertex -2.971 2.68 16
    vertex -2.118 3.394 16
    vertex -2.571 3.067 16
  endloop
endfacet
facet normal -0.6398327439691003 -0.7685141896835554 0
  outer loop
    vertex -2.783 -2.88 0
    vertex -2.353 -3.238 0
    vertex -2.783 -2.88 16
  endloop
endfacet
facet normal -0.6398327439691003 -0.7685141896835554 0
  outer loop
    vertex -2.783 -2.88 16
    vertex -2.353 -3.238 0
    vertex -2.353 -3.238 16
  endloop
endfacet
facet normal -0.5852944837109572 0.8108207985353633 0
  outer loop
    vertex -2.571 3.067 0
    vertex -2.571 3.067 16
    vertex -2.118 3.394 16
  endloop
endfacet
facet normal -0.5852944837109572 0.8108207985353633 0
  outer loop
    vertex -2.571 3.067 0
    vertex -2.118 3.394 16
    vertex -2.118 3.394 0
  endloop
endfacet
facet normal -0.5200036353282097 -0.8541640470339679 0
  outer loop
    vertex -2.353 -3.238 0
    vertex -1.875 -3.529 0
    vertex -2.353 -3.238 16
  endloop
endfacet
facet normal -0.5200036353282104 -0.8541640470339674 0
  outer loop
    vertex -2.353 -3.238 16
    vertex -1.875 -3.529 0
    vertex -1.875 -3.529 16
  endloop
endfacet
facet normal -0.4673882365397068 0.8840521683386694 0
  outer loop
    vertex -2.118 3.394 0
    vertex -2.118 3.394 16
    vertex -1.6300000000000001 3.652 16
  endloop
endfacet
facet normal -0.4673882365397065 0.8840521683386696 0
  outer loop
    vertex -2.118 3.394 0
    vertex -1.6300000000000001 3.652 16
    vertex -1.6300000000000001 3.652 0
  endloop
endfacet
facet normal -0.41366684063862036 -0.9104283304884917 0
  outer loop
    vertex -1.875 -3.529 0
    vertex -1.371 -3.758 0
    vertex -1.875 -3.529 16
  endloop
endfacet
facet normal 0 0 -1
  outer loop
    vertex -1.875 -3.529 0
    vertex -0.833 -3.9090000000000003 0
    vertex -1.371 -3.758 0
  endloop
endfacet
facet normal 0 0 -1
  outer loop
    vertex -1.875 -3.529 0
    vertex -0.276 -3.986 0
    vertex -0.833 -3.9090000000000003 0
  endloop
endfacet
facet normal -0.41366684063862036 -0.9104283304884917 0
  outer loop
    vertex -1.875 -3.529 16
    vertex -1.371 -3.758 0
    vertex -1.371 -3.758 16
  endloop
endfacet
facet normal 0 0 1
  outer loop
    vertex -1.875 -3.529 16
    vertex -1.371 -3.758 16
    vertex -0.833 -3.9090000000000003 16
  endloop
endfacet
facet normal 0 0 1
  outer loop
    vertex -1.875 -3.529 16
    vertex -0.833 -3.9090000000000003 16
    vertex -0.276 -3.986 16
  endloop
endfacet
facet normal -0.34545778464187193 0.9384342912694155 0
  outer loop
    vertex -1.6300000000000001 3.652 0
    vertex -1.6300000000000001 3.652 16
    vertex -1.103 3.846 16
  endloop
endfacet
facet normal 0 0 -1
  outer loop
    vertex -1.6300000000000001 3.652 0
    vertex -1.103 3.846 0
    vertex -0.556 3.9570000000000003 0
  endloop
endfacet
facet normal -0.34545778464187193 0.9384342912694155 0
  outer loop
    vertex -1.6300000000000001 3.652 0
    vertex -1.103 3.846 16
    vertex -1.103 3.846 0
  endloop
endfacet
facet normal 0 0 1
  outer loop
    vertex -1.6300000000000001 3.652 16
    vertex -0.556 3.9570000000000003 16
    vertex -1.103 3.846 16
  endloop
endfacet
facet normal -0.2702272869157753 -0.962796558680046 0
  outer loop
    vertex -1.371 -3.758 0
    vertex -0.833 -3.9090000000000003 0
    vertex -1.371 -3.758 16
  endloop
endfacet
facet normal -0.2702272869157755 -0.9627965586800459 0
  outer loop
    vertex -1.371 -3.758 16
    vertex -0.833 -3.9090000000000003 0
    vertex -0.833 -3.9090000000000003 16
  endloop
endfacet
facet normal -0.1988717252035022 0.9800255287055448 0
  outer loop
    vertex -1.103 3.846 0
    vertex -1.103 3.846 16
    vertex -0.556 3.9570000000000003 16
  endloop
endfacet
facet normal -0.1988717252035022 0.9800255287055448 0
  outer loop
    vertex -1.103 3.846 0
    vertex -0.556 3.9570000000000003 16
    vertex -0.556 3.9570000000000003 0
  endloop
endfacet
facet normal -0.1369382902576982 -0.9905795801758172 0
  outer loop
    vertex -0.833 -3.9090000000000003 0
    vertex -0.276 -3.986 0
    vertex -0.833 -3.9090000000000003 16
  endloop
endfacet
facet normal -0.1369382902576982 -0.9905795801758172 0
  outer loop
    vertex -0.833 -3.9090000000000003 16
    vertex -0.276 -3.986 0
    vertex -0.276 -3.986 16
  endloop
endfacet
facet normal -0.07710787500008173 0.9970227558150172 0
  outer loop
    vertex -0.556 3.9570000000000003 0
    vertex -0.556 3.9570000000000003 16
    vertex 0 4 16
  endloop
endfacet
facet normal 0 0 -1
  outer loop
    vertex -0.556 3.9570000000000003 0
    vertex 0 4 0
    vertex 0.556 3.9570000000000003 0
  endloop
endfacet
facet normal -0.07710787500008173 0.9970227558150172 0
  outer loop
    vertex -0.556 3.9570000000000003 0
    vertex 0 4 16
    vertex 0 4 0
  endloop
endfacet
facet normal 0 0 1
  outer loop
    vertex -0.556 3.9570000000000003 16
    vertex 0.556 3.9570000000000003 16
    vertex 0 4 16
  endloop
endfacet
facet normal 0 -1 0
  outer loop
    vertex -0.276 -3.986 0
    vertex 0.276 -3.986 0
    vertex -0.276 -3.986 16
  endloop
endfacet
facet normal 0 -1 0
  outer loop
    vertex -0.276 -3.986 16
    vertex 0.276 -3.986 0
    vertex 0.276 -3.986 16
  endloop
endfacet
facet normal 0.07710787500008173 0.9970227558150172 0
  outer loop
    vertex 0 4 0
    vertex 0 4 16
    vertex 0.556 3.9570000000000003 16
  endloop
endfacet
facet normal 0.07710787500008173 0.9970227558150172 0
  outer loop
    vertex 0 4 0
    vertex 0.556 3.9570000000000003 16
    vertex 0.556 3.9570000000000003 0
  endloop
endfacet
facet normal 0.1369382902576982 -0.9905795801758172 0
  outer loop
    vertex 0.276 -3.986 0
    vertex 0.833 -3.9090000000000003 0
    vertex 0.276 -3.986 16
  endloop
endfacet
facet normal 0 0 -1
  outer loop
    vertex 0.276 -3.986 0
    vertex 1.875 -3.529 0
    vertex 0.833 -3.9090000000000003 0
  endloop
endfacet
facet normal 0 0 -1
  outer loop
    vertex 0.276 -3.986 0
    vertex 3.592 1.75 0
    vertex 3.974 -0.421 0
  endloop
endfacet
facet normal 0 0 -1
  outer loop
    vertex 0.276 -3.986 0
    vertex 3.974 -0.421 0
    vertex 1.875 -3.529 0
  endloop
endfacet
facet normal 0.1369382902576982 -0.9905795801758172 0
  outer loop
    vertex 0.276 -3.986 16
    vertex 0.833 -3.9090000000000003 0
    vertex 0.833 -3.9090000000000003 16
  endloop
endfacet
facet normal 0 0 1
  outer loop
    vertex 0.276 -3.986 16
    vertex 0.833 -3.9090000000000003 16
    vertex 1.875 -3.529 16
  endloop
endfacet
facet normal 0 0 1
  outer loop
    vertex 0.276 -3.986 16
    vertex 1.875 -3.529 16
    vertex 3.974 -0.421 16
  endloop
endfacet
facet normal 1.5133727583731023e-15 0 1
  outer loop
    vertex 0.276 -3.986 16
    vertex 3.974 -0.421 16
    vertex 3.592 1.75 16
  endloop
endfacet
facet normal 0.1988717252035022 0.9800255287055448 0
  outer loop
    vertex 0.556 3.9570000000000003 0
    vertex 0.556 3.9570000000000003 16
    vertex 1.103 3.846 16
  endloop
endfacet
facet normal 0 0 -1
  outer loop
    vertex 0.556 3.9570000000000003 0
    vertex 1.103 3.846 0
    vertex 1.6300000000000001 3.652 0
  endloop
endfacet
facet normal 0.1988717252035022 0.9800255287055448 0
  outer loop
    vertex 0.556 3.9570000000000003 0
    vertex 1.103 3.846 16
    vertex 1.103 3.846 0
  endloop
endfacet
facet normal 0 0 -1
  outer loop
    vertex 0.556 3.9570000000000003 0
    vertex 1.6300000000000001 3.652 0
    vertex 3.592 1.75 0
  endloop
endfacet
facet normal 0 0 1
  outer loop
    vertex 0.556 3.9570000000000003 16
    vertex 1.6300000000000001 3.652 16
    vertex 1.103 3.846 16
  endloop
endfacet
facet normal 0 0 1
  outer loop
    vertex 0.556 3.9570000000000003 16
    vertex 3.592 1.75 16
    vertex 1.6300000000000001 3.652 16
  endloop
endfacet
facet normal 0.2702272869157755 -0.9627965586800459 0
  outer loop
    vertex 0.833 -3.9090000000000003 0
    vertex 1.371 -3.758 0
    vertex 0.833 -3.9090000000000003 16
  endloop
endfacet
facet normal 0 0 -1
  outer loop
    vertex 0.833 -3.9090000000000003 0
    vertex 1.875 -3.529 0
    vertex 1.371 -3.758 0
  endloop
endfacet
facet normal 0.2702272869157753 -0.962796558680046 0
  outer loop
    vertex 0.833 -3.9090000000000003 16
    vertex 1.371 -3.758 0
    vertex 1.371 -3.758 16
  endloop
endfacet
facet normal 0 0 1
  outer loop
    vertex 0.833 -3.9090000000000003 16
    vertex 1.371 -3.758 16
    vertex 1.875 -3.529 16
  endloop
endfacet
facet normal 0.34545778464187193 0.9384342912694155 0
  outer loop
    vertex 1.103 3.846 0
    vertex 1.103 3.846 16
    vertex 1.6300000000000001 3.652 16
  endloop
endfacet
facet normal 0.34545778464187193 0.9384342912694155 0
  outer loop
    vertex 1.103 3.846 0
    vertex 1.6300000000000001 3.652 16
    vertex 1.6300000000000001 3.652 0
  endloop
endfacet
facet normal 0.41366684063862036 -0.9104283304884917 0
  outer loop
    vertex 1.371 -3.758 0
    vertex 1.875 -3.529 0
    vertex 1.371 -3.758 16
  endloop
endfacet
facet normal 0.41366684063862036 -0.9104283304884917 0
  outer loop
    vertex 1.371 -3.758 16
    vertex 1.875 -3.529 0
    vertex 1.875 -3.529 16
  endloop
endfacet
facet normal 0.4673882365397065 0.8840521683386696 0
  outer loop
    vertex 1.6300000000000001 3.652 0
    vertex 1.6300000000000001 3.652 16
    vertex 2.118 3.394 16
  endloop
endfacet
facet normal 0 0 -1
  outer loop
    vertex 1.6300000000000001 3.652 0
    vertex 2.118 3.394 0
    vertex 3.592 1.75 0
  endloop
endfacet
facet normal 0.4673882365397068 0.8840521683386694 0
  outer loop
    vertex 1.6300000000000001 3.652 0
    vertex 2.118 3.394 16
    vertex 2.118 3.394 0
  endloop
endfacet
facet normal 0 0 1
  outer loop
    vertex 1.6300000000000001 3.652 16
    vertex 3.592 1.75 16
    vertex 2.118 3.394 16
  endloop
endfacet
facet normal 0.5200036353282104 -0.8541640470339674 0
  outer loop
    vertex 1.875 -3.529 0
    vertex 2.353 -3.238 0
    vertex 1.875 -3.529 16
  endloop
endfacet
facet normal 0 0 -1
  outer loop
    vertex 1.875 -3.529 0
    vertex 3.152 -2.462 0
    vertex 2.353 -3.238 0
  endloop
endfacet
facet normal 0 0 -1
  outer loop
    vertex 1.875 -3.529 0
    vertex 3.879 -0.966 0
    vertex 3.152 -2.462 0
  endloop
endfacet
facet normal 0 0 -1
  outer loop
    vertex 1.875 -3.529 0
    vertex 3.974 -0.421 0
    vertex 3.879 -0.966 0
  endloop
endfacet
facet normal 0.5200036353282097 -0.8541640470339679 0
  outer loop
    vertex 1.875 -3.529 16
    vertex 2.353 -3.238 0
    vertex 2.353 -3.238 16
  endloop
endfacet
facet normal 0 0 1
  outer loop
    vertex 1.875 -3.529 16
    vertex 2.353 -3.238 16
    vertex 3.152 -2.462 16
  endloop
endfacet
facet normal -6.262037377488693e-15 0 1
  outer loop
    vertex 1.875 -3.529 16
    vertex 3.152 -2.462 16
    vertex 3.879 -0.966 16
  endloop
endfacet
facet normal 1.674436012372172e-14 0 1
  outer loop
    vertex 1.875 -3.529 16
    vertex 3.879 -0.966 16
    vertex 3.974 -0.421 16
  endloop
endfacet
facet normal 0.5852944837109572 0.8108207985353633 0
  outer loop
    vertex 2.118 3.394 0
    vertex 2.118 3.394 16
    vertex 2.571 3.067 16
  endloop
endfacet
facet normal 0 0 -0.9999999999999999
  outer loop
    vertex 2.118 3.394 0
    vertex 2.571 3.067 0
    vertex 2.971 2.68 0
  endloop
endfacet
facet normal 0.5852944837109572 0.8108207985353633 0
  outer loop
    vertex 2.118 3.394 0
    vertex 2.571 3.067 16
    vertex 2.571 3.067 0
  endloop
endfacet
facet normal 0 0 -1
  outer loop
    vertex 2.118 3.394 0
    vertex 2.971 2.68 0
    vertex 3.592 1.75 0
  endloop
endfacet
facet normal 0 0 0.9999999999999999
  outer loop
    vertex 2.118 3.394 16
    vertex 2.971 2.68 16
    vertex 2.571 3.067 16
  endloop
endfacet
facet normal 0 0 1
  outer loop
    vertex 2.118 3.394 16
    vertex 3.592 1.75 16
    vertex 2.971 2.68 16
  endloop
endfacet
facet normal 0.6398327439691003 -0.7685141896835554 0
  outer loop
    vertex 2.353 -3.238 0
    vertex 2.783 -2.88 0
    vertex 2.353 -3.238 16
  endloop
endfacet
facet normal 0 0 -1
  outer loop
    vertex 2.353 -3.238 0
    vertex 3.152 -2.462 0
    vertex 2.783 -2.88 0
  endloop
endfacet
facet normal 0.6398327439691003 -0.7685141896835554 0
  outer loop
    vertex 2.353 -3.238 16
    vertex 2.783 -2.88 0
    vertex 2.783 -2.88 16
  endloop
endfacet
facet normal 0 0 1
  outer loop
    vertex 2.353 -3.238 16
    vertex 2.783 -2.88 16
    vertex 3.152 -2.462 16
  endloop
endfacet
facet normal 0.6953316342321876 0.7186890276301671 0
  outer loop
    vertex 2.571 3.067 0
    vertex 2.571 3.067 16
    vertex 2.971 2.68 16
  endloop
endfacet
facet normal 0.6953316342321869 0.718689027630168 0
  outer loop
    vertex 2.571 3.067 0
    vertex 2.971 2.68 16
    vertex 2.971 2.68 0
  endloop
endfacet
facet normal 0.7496808162237262 -0.6617995722166403 0
  outer loop
    vertex 2.783 -2.88 0
    vertex 3.152 -2.462 0
    vertex 2.783 -2.88 16
  endloop
endfacet
facet normal 0.7496808162237268 -0.6617995722166393 0
  outer loop
    vertex 2.783 -2.88 16
    vertex 3.152 -2.462 0
    vertex 3.152 -2.462 16
  endloop
endfacet
facet normal 0.7886761252594849 0.6148088885545531 0
  outer loop
    vertex 2.971 2.68 0
    vertex 2.971 2.68 16
    vertex 3.314 2.24 16
  endloop
endfacet
facet normal 0 0 -1
  outer loop
    vertex 2.971 2.68 0
    vertex 3.314 2.24 0
    vertex 3.592 1.75 0
  endloop
endfacet
facet normal 0.7886761252594849 0.6148088885545531 0
  outer loop
    vertex 2.971 2.68 0
    vertex 3.314 2.24 16
    vertex 3.314 2.24 0
  endloop
endfacet
facet normal 0 0 1
  outer loop
    vertex 2.971 2.68 16
    vertex 3.592 1.75 16
    vertex 3.314 2.24 16
  endloop
endfacet
facet normal 0.8262273428075482 -0.5633368246415089 0
  outer loop
    vertex 3.152 -2.462 0
    vertex 3.467 -2 0
    vertex 3.152 -2.462 16
  endloop
endfacet
facet normal 0 0 -0.9999999999999999
  outer loop
    vertex 3.152 -2.462 0
    vertex 3.7070000000000003 -1.5 0
    vertex 3.467 -2 0
  endloop
endfacet
facet normal 0 0 -1
  outer loop
    vertex 3.152 -2.462 0
    vertex 3.879 -0.966 0
    vertex 3.7070000000000003 -1.5 0
  endloop
endfacet
facet normal 0.8262273428075475 -0.5633368246415101 0
  outer loop
    vertex 3.152 -2.462 16
    vertex 3.467 -2 0
    vertex 3.467 -2 16
  endloop
endfacet
facet normal 0 0 0.9999999999999999
  outer loop
    vertex 3.152 -2.462 16
    vertex 3.467 -2 16
    vertex 3.7070000000000003 -1.5 16
  endloop
endfacet
facet normal 0 0 1
  outer loop
    vertex 3.152 -2.462 16
    vertex 3.7070000000000003 -1.5 16
    vertex 3.879 -0.966 16
  endloop
endfacet
facet normal 0.8697682805469438 0.49346037141234833 0
  outer loop
    vertex 3.314 2.24 0
    vertex 3.314 2.24 16
    vertex 3.592 1.75 16
  endloop
endfacet
facet normal 0.8697682805469445 0.49346037141234717 0
  outer loop
    vertex 3.314 2.24 0
    vertex 3.592 1.75 16
    vertex 3.592 1.75 0
  endloop
endfacet
facet normal 0.9015230574682734 -0.43273106758477164 0
  outer loop
    vertex 3.467 -2 0
    vertex 3.7070000000000003 -1.5 0
    vertex 3.467 -2 16
  endloop
endfacet
facet normal 0.9015230574682734 -0.43273106758477164 0
  outer loop
    vertex 3.467 -2 16
    vertex 3.7070000000000003 -1.5 0
    vertex 3.7070000000000003 -1.5 16
  endloop
endfacet
facet normal 0.9232901894025298 0.38410314520066197 0
  outer loop
    vertex 3.592 1.75 0
    vertex 3.592 1.75 16
    vertex 3.805 1.238 16
  endloop
endfacet
facet normal 0 0 -0.9999999999999999
  outer loop
    vertex 3.592 1.75 0
    vertex 3.805 1.238 0
    vertex 3.935 0.6960000000000001 0
  endloop
endfacet
facet normal 0.9232901894025298 0.38410314520066197 0
  outer loop
    vertex 3.592 1.75 0
    vertex 3.805 1.238 16
    vertex 3.805 1.238 0
  endloop
endfacet
facet normal 0 0 -1
  outer loop
    vertex 3.592 1.75 0
    vertex 3.935 0.6960000000000001 0
    vertex 3.974 -0.421 0
  endloop
endfacet
facet normal -7.267343776951474e-14 0 0.9999999999999999
  outer loop
    vertex 3.592 1.75 16
    vertex 3.935 0.6960000000000001 16
    vertex 3.805 1.238 16
  endloop
endfacet
facet normal 0 0 1
  outer loop
    vertex 3.592 1.75 16
    vertex 3.974 -0.421 16
    vertex 3.935 0.6960000000000001 16
  endloop
endfacet
facet normal 0.9518429263654844 -0.3065861111139757 0
  outer loop
    vertex 3.7070000000000003 -1.5 0
    vertex 3.879 -0.966 0
    vertex 3.7070000000000003 -1.5 16
  endloop
endfacet
facet normal 0.9518429263654844 -0.3065861111139757 0
  outer loop
    vertex 3.7070000000000003 -1.5 16
    vertex 3.879 -0.966 0
    vertex 3.879 -0.966 16
  endloop
endfacet
facet normal 0.9724198637521083 0.23323723669330995 0
  outer loop
    vertex 3.805 1.238 0
    vertex 3.805 1.238 16
    vertex 3.935 0.6960000000000001 16
  endloop
endfacet
facet normal 0.9724198637521083 0.23323723669330995 0
  outer loop
    vertex 3.805 1.238 0
    vertex 3.935 0.6960000000000001 16
    vertex 3.935 0.6960000000000001 0
  endloop
endfacet
facet normal 0.9851453468163284 -0.17172258339000177 0
  outer loop
    vertex 3.879 -0.966 0
    vertex 3.974 -0.421 0
    vertex 3.879 -0.966 16
  endloop
endfacet
facet normal 0.9851453468163281 -0.17172258339000335 0
  outer loop
    vertex 3.879 -0.966 16
    vertex 3.974 -0.421 0
    vertex 3.974 -0.421 16
  endloop
endfacet
facet normal 0.9931628579317162 0.11673704478401797 0
  outer loop
    vertex 3.935 0.6960000000000001 0
    vertex 3.935 0.6960000000000001 16
    vertex 4 0.14300000000000002 16
  endloop
endfacet
facet normal 0 0 -1
  outer loop
    vertex 3.935 0.6960000000000001 0
    vertex 4 0.14300000000000002 0
    vertex 3.974 -0.421 0
  endloop
endfacet
facet normal 0.9931628579317162 0.11673704478401638 0
  outer loop
    vertex 3.935 0.6960000000000001 0
    vertex 4 0.14300000000000002 16
    vertex 4 0.14300000000000002 0
  endloop
endfacet
facet normal -6.960918685686176e-14 0 1
  outer loop
    vertex 3.935 0.6960000000000001 16
    vertex 3.974 -0.421 16
    vertex 4 0.14300000000000002 16
  endloop
endfacet
facet normal 0.9989391182909367 -0.04605038488575205 0
  outer loop
    vertex 3.974 -0.421 0
    vertex 4 0.14300000000000002 0
    vertex 3.974 -0.421 16
  endloop
endfacet
facet normal 0.9989391182909367 -0.04605038488575205 0
  outer loop
    vertex 3.974 -0.421 16
    vertex 4 0.14300000000000002 0
    vertex 4 0.14300000000000002 16
  endloop
endfacet
endsolid JSxCAD
