solid JSxCAD
facet normal -0.9925243958570444 0.12204639949055811 0
  outer loop
    vertex -4 0.14300000000000002 0
    vertex -4 0.14300000000000002 16
    vertex -3.932 0.6960000000000001 16
  endloop
endfacet
facet normal -0.9985883275945727 -0.053116400403965494 0
  outer loop
    vertex -4 0.14300000000000002 0
    vertex -3.97 -0.421 0
    vertex -4 0.14300000000000002 16
  endloop
endfacet
facet normal 0 0 -1
  outer loop
    vertex -4 0.14300000000000002 0
    vertex -3.932 0.6960000000000001 0
    vertex -3.97 -0.421 0
  endloop
endfacet
facet normal -0.9925243958570442 0.12204639949055968 0
  outer loop
    vertex -4 0.14300000000000002 0
    vertex -3.932 0.6960000000000001 16
    vertex -3.932 0.6960000000000001 0
  endloop
endfacet
facet normal -0.9985883275945727 -0.05311640040396707 0
  outer loop
    vertex -4 0.14300000000000002 16
    vertex -3.97 -0.421 0
    vertex -3.97 -0.421 16
  endloop
endfacet
facet normal 0 0 1
  outer loop
    vertex -4 0.14300000000000002 16
    vertex -3.97 -0.421 16
    vertex -3.932 0.6960000000000001 16
  endloop
endfacet
facet normal 0 0 -0.9999999999999999
  outer loop
    vertex -3.97 -0.421 0
    vertex -3.932 0.6960000000000001 0
    vertex -3.59 1.75 0
  endloop
endfacet
facet normal -0.9851453468163284 -0.17172258339000177 0
  outer loop
    vertex -3.97 -0.421 0
    vertex -3.875 -0.966 0
    vertex -3.97 -0.421 16
  endloop
endfacet
facet normal 0 0 -1
  outer loop
    vertex -3.97 -0.421 0
    vertex -3.59 1.75 0
    vertex -0.276 -3.982 0
  endloop
endfacet
facet normal 0 0 -0.9999999999999999
  outer loop
    vertex -3.97 -0.421 0
    vertex -1.875 -3.529 0
    vertex -3.875 -0.966 0
  endloop
endfacet
facet normal 0 0 -1
  outer loop
    vertex -3.97 -0.421 0
    vertex -0.276 -3.982 0
    vertex -1.875 -3.529 0
  endloop
endfacet
facet normal -0.9851453468163281 -0.17172258339000335 0
  outer loop
    vertex -3.97 -0.421 16
    vertex -3.875 -0.966 0
    vertex -3.875 -0.966 16
  endloop
endfacet
facet normal -1.67874812793654e-14 0 0.9999999999999999
  outer loop
    vertex -3.97 -0.421 16
    vertex -3.875 -0.966 16
    vertex -1.875 -3.529 16
  endloop
endfacet
facet normal 0 0 0.9999999999999999
  outer loop
    vertex -3.97 -0.421 16
    vertex -3.59 1.75 16
    vertex -3.932 0.6960000000000001 16
  endloop
endfacet
facet normal 0 0 1
  outer loop
    vertex -3.97 -0.421 16
    vertex -1.875 -3.529 16
    vertex -0.276 -3.982 16
  endloop
endfacet
facet normal 0 0 1
  outer loop
    vertex -3.97 -0.421 16
    vertex -0.276 -3.982 16
    vertex -3.59 1.75 16
  endloop
endfacet
facet normal -0.9739070744612067 0.22694715313132666 0
  outer loop
    vertex -3.932 0.6960000000000001 0
    vertex -3.932 0.6960000000000001 16
    vertex -3.805 1.241 16
  endloop
endfacet
facet normal 0 0 -1
  outer loop
    vertex -3.932 0.6960000000000001 0
    vertex -3.805 1.241 0
    vertex -3.59 1.75 0
  endloop
endfacet
facet normal -0.9739070744612067 0.22694715313132666 0
  outer loop
    vertex -3.932 0.6960000000000001 0
    vertex -3.805 1.241 16
    vertex -3.805 1.241 0
  endloop
endfacet
facet normal 6.76295149394747e-14 0 1
  outer loop
    vertex -3.932 0.6960000000000001 16
    vertex -3.59 1.75 16
    vertex -3.805 1.241 16
  endloop
endfacet
facet normal -0.9523620043562653 -0.30496985532756693 0
  outer loop
    vertex -3.875 -0.966 0
    vertex -3.704 -1.5 0
    vertex -3.875 -0.966 16
  endloop
endfacet
facet normal 0 0 -1
  outer loop
    vertex -3.875 -0.966 0
    vertex -3.152 -2.462 0
    vertex -3.704 -1.5 0
  endloop
endfacet
facet normal 0 0 -1
  outer loop
    vertex -3.875 -0.966 0
    vertex -1.875 -3.529 0
    vertex -3.152 -2.462 0
  endloop
endfacet
facet normal -0.952362004356265 -0.30496985532756843 0
  outer loop
    vertex -3.875 -0.966 16
    vertex -3.704 -1.5 0
    vertex -3.704 -1.5 16
  endloop
endfacet
facet normal 0 0 1
  outer loop
    vertex -3.875 -0.966 16
    vertex -3.704 -1.5 16
    vertex -3.152 -2.462 16
  endloop
endfacet
facet normal 6.2385715957938525e-15 0 1
  outer loop
    vertex -3.875 -0.966 16
    vertex -3.152 -2.462 16
    vertex -1.875 -3.529 16
  endloop
endfacet
facet normal -0.9211919044571416 0.3891085647510534 0
  outer loop
    vertex -3.805 1.241 0
    vertex -3.805 1.241 16
    vertex -3.59 1.75 16
  endloop
endfacet
facet normal -0.9211919044571422 0.389108564751052 0
  outer loop
    vertex -3.805 1.241 0
    vertex -3.59 1.75 16
    vertex -3.59 1.75 0
  endloop
endfacet
facet normal -0.9036274109226872 -0.4283193927773539 0
  outer loop
    vertex -3.704 -1.5 0
    vertex -3.467 -2 0
    vertex -3.704 -1.5 16
  endloop
endfacet
facet normal 0 0 -1
  outer loop
    vertex -3.704 -1.5 0
    vertex -3.152 -2.462 0
    vertex -3.467 -2 0
  endloop
endfacet
facet normal -0.9036274109226872 -0.4283193927773539 0
  outer loop
    vertex -3.704 -1.5 16
    vertex -3.467 -2 0
    vertex -3.467 -2 16
  endloop
endfacet
facet normal 0 0 1
  outer loop
    vertex -3.704 -1.5 16
    vertex -3.467 -2 16
    vertex -3.152 -2.462 16
  endloop
endfacet
facet normal -0.8682431421244597 0.4961389383568328 0
  outer loop
    vertex -3.59 1.75 0
    vertex -3.59 1.75 16
    vertex -3.31 2.24 16
  endloop
endfacet
facet normal 0 0 -1
  outer loop
    vertex -3.59 1.75 0
    vertex -3.31 2.24 0
    vertex -2.968 2.684 0
  endloop
endfacet
facet normal -0.868243142124459 0.4961389383568339 0
  outer loop
    vertex -3.59 1.75 0
    vertex -3.31 2.24 16
    vertex -3.31 2.24 0
  endloop
endfacet
facet normal 0 0 -0.9999999999999999
  outer loop
    vertex -3.59 1.75 0
    vertex -2.968 2.684 0
    vertex -2.118 3.394 0
  endloop
endfacet
facet normal 0 0 -0.9999999999999999
  outer loop
    vertex -3.59 1.75 0
    vertex -2.118 3.394 0
    vertex -1.6300000000000001 3.652 0
  endloop
endfacet
facet normal 0 0 -1
  outer loop
    vertex -3.59 1.75 0
    vertex -1.6300000000000001 3.652 0
    vertex -0.552 3.9530000000000003 0
  endloop
endfacet
facet normal 0 0 -1
  outer loop
    vertex -3.59 1.75 0
    vertex -0.552 3.9530000000000003 0
    vertex 0.552 3.9530000000000003 0
  endloop
endfacet
facet normal 0 0 -0.9999999999999999
  outer loop
    vertex -3.59 1.75 0
    vertex 0.276 -3.982 0
    vertex -0.276 -3.982 0
  endloop
endfacet
facet normal 0 0 -0.9999999999999999
  outer loop
    vertex -3.59 1.75 0
    vertex 0.552 3.9530000000000003 0
    vertex 3.59 1.75 0
  endloop
endfacet
facet normal 0 0 -0.9999999999999999
  outer loop
    vertex -3.59 1.75 0
    vertex 3.59 1.75 0
    vertex 0.276 -3.982 0
  endloop
endfacet
facet normal 0 0 1
  outer loop
    vertex -3.59 1.75 16
    vertex -2.968 2.684 16
    vertex -3.31 2.24 16
  endloop
endfacet
facet normal 0 0 0.9999999999999999
  outer loop
    vertex -3.59 1.75 16
    vertex -2.118 3.394 16
    vertex -2.968 2.684 16
  endloop
endfacet
facet normal 0 0 0.9999999999999999
  outer loop
    vertex -3.59 1.75 16
    vertex -1.6300000000000001 3.652 16
    vertex -2.118 3.394 16
  endloop
endfacet
facet normal 0 0 1
  outer loop
    vertex -3.59 1.75 16
    vertex -0.552 3.9530000000000003 16
    vertex -1.6300000000000001 3.652 16
  endloop
endfacet
facet normal 0 0 0.9999999999999999
  outer loop
    vertex -3.59 1.75 16
    vertex -0.276 -3.982 16
    vertex 0.276 -3.982 16
  endloop
endfacet
facet normal 0 0 0.9999999999999999
  outer loop
    vertex -3.59 1.75 16
    vertex 0.276 -3.982 16
    vertex 3.59 1.75 16
  endloop
endfacet
facet normal 0 0 1
  outer loop
    vertex -3.59 1.75 16
    vertex 0.552 3.9530000000000003 16
    vertex -0.552 3.9530000000000003 16
  endloop
endfacet
facet normal 0 0 0.9999999999999999
  outer loop
    vertex -3.59 1.75 16
    vertex 3.59 1.75 16
    vertex 0.552 3.9530000000000003 16
  endloop
endfacet
facet normal -0.8262273428075475 -0.5633368246415101 0
  outer loop
    vertex -3.467 -2 0
    vertex -3.152 -2.462 0
    vertex -3.467 -2 16
  endloop
endfacet
facet normal -0.8262273428075482 -0.5633368246415089 0
  outer loop
    vertex -3.467 -2 16
    vertex -3.152 -2.462 0
    vertex -3.152 -2.462 16
  endloop
endfacet
facet normal -0.7922258368068403 0.6102280094322954 0
  outer loop
    vertex -3.31 2.24 0
    vertex -3.31 2.24 16
    vertex -2.968 2.684 16
  endloop
endfacet
facet normal -0.7922258368068396 0.6102280094322964 0
  outer loop
    vertex -3.31 2.24 0
    vertex -2.968 2.684 16
    vertex -2.968 2.684 0
  endloop
endfacet
facet normal -0.7496808162237268 -0.6617995722166393 0
  outer loop
    vertex -3.152 -2.462 0
    vertex -2.783 -2.88 0
    vertex -3.152 -2.462 16
  endloop
endfacet
facet normal 0 0 -1
  outer loop
    vertex -3.152 -2.462 0
    vertex -2.353 -3.238 0
    vertex -2.783 -2.88 0
  endloop
endfacet
facet normal 0 0 -1
  outer loop
    vertex -3.152 -2.462 0
    vertex -1.875 -3.529 0
    vertex -2.353 -3.238 0
  endloop
endfacet
facet normal -0.7496808162237262 -0.6617995722166403 0
  outer loop
    vertex -3.152 -2.462 16
    vertex -2.783 -2.88 0
    vertex -2.783 -2.88 16
  endloop
endfacet
facet normal 0 0 1
  outer loop
    vertex -3.152 -2.462 16
    vertex -2.783 -2.88 16
    vertex -2.353 -3.238 16
  endloop
endfacet
facet normal 0 0 1
  outer loop
    vertex -3.152 -2.462 16
    vertex -2.353 -3.238 16
    vertex -1.875 -3.529 16
  endloop
endfacet
facet normal -0.6943032928661658 0.7196825255035717 0
  outer loop
    vertex -2.968 2.684 0
    vertex -2.968 2.684 16
    vertex -2.571 3.067 16
  endloop
endfacet
facet normal 0 0 -1
  outer loop
    vertex -2.968 2.684 0
    vertex -2.571 3.067 0
    vertex -2.118 3.394 0
  endloop
endfacet
facet normal -0.6943032928661667 0.719682525503571 0
  outer loop
    vertex -2.968 2.684 0
    vertex -2.571 3.067 16
    vertex -2.571 3.067 0
  endloop
endfacet
facet normal 0 0 1
  outer loop
    vertex -2.968 2.684 16
    vertex -2.118 3.394 16
    vertex -2.571 3.067 16
  endloop
endfacet
facet normal -0.6398327439691003 -0.7685141896835554 0
  outer loop
    vertex -2.783 -2.88 0
    vertex -2.353 -3.238 0
    vertex -2.783 -2.88 16
  endloop
endfacet
facet normal -0.6398327439691003 -0.7685141896835554 0
  outer loop
    vertex -2.783 -2.88 16
    vertex -2.353 -3.238 0
    vertex -2.353 -3.238 16
  endloop
endfacet
facet normal -0.5852944837109572 0.8108207985353633 0
  outer loop
    vertex -2.571 3.067 0
    vertex -2.571 3.067 16
    vertex -2.118 3.394 16
  endloop
endfacet
facet normal -0.5852944837109572 0.8108207985353633 0
  outer loop
    vertex -2.571 3.067 0
    vertex -2.118 3.394 16
    vertex -2.118 3.394 0
  endloop
endfacet
facet normal -0.5200036353282097 -0.8541640470339679 0
  outer loop
    vertex -2.353 -3.238 0
    vertex -1.875 -3.529 0
    vertex -2.353 -3.238 16
  endloop
endfacet
facet normal -0.5200036353282104 -0.8541640470339674 0
  outer loop
    vertex -2.353 -3.238 16
    vertex -1.875 -3.529 0
    vertex -1.875 -3.529 16
  endloop
endfacet
facet normal -0.4673882365397068 0.8840521683386694 0
  outer loop
    vertex -2.118 3.394 0
    vertex -2.118 3.394 16
    vertex -1.6300000000000001 3.652 16
  endloop
endfacet
facet normal -0.4673882365397065 0.8840521683386696 0
  outer loop
    vertex -2.118 3.394 0
    vertex -1.6300000000000001 3.652 16
    vertex -1.6300000000000001 3.652 0
  endloop
endfacet
facet normal -0.41640424636130374 -0.9091795772080864 0
  outer loop
    vertex -1.875 -3.529 0
    vertex -1.375 -3.758 0
    vertex -1.875 -3.529 16
  endloop
endfacet
facet normal 0 0 -1
  outer loop
    vertex -1.875 -3.529 0
    vertex -0.833 -3.907 0
    vertex -1.375 -3.758 0
  endloop
endfacet
facet normal 0 0 -1
  outer loop
    vertex -1.875 -3.529 0
    vertex -0.276 -3.982 0
    vertex -0.833 -3.907 0
  endloop
endfacet
facet normal -0.41640424636130374 -0.9091795772080864 0
  outer loop
    vertex -1.875 -3.529 16
    vertex -1.375 -3.758 0
    vertex -1.375 -3.758 16
  endloop
endfacet
facet normal 0 0 1
  outer loop
    vertex -1.875 -3.529 16
    vertex -1.375 -3.758 16
    vertex -0.833 -3.907 16
  endloop
endfacet
facet normal 0 0 1
  outer loop
    vertex -1.875 -3.529 16
    vertex -0.833 -3.907 16
    vertex -0.276 -3.982 16
  endloop
endfacet
facet normal -0.34545778464187193 0.9384342912694155 0
  outer loop
    vertex -1.6300000000000001 3.652 0
    vertex -1.6300000000000001 3.652 16
    vertex -1.103 3.846 16
  endloop
endfacet
facet normal 0 0 -1
  outer loop
    vertex -1.6300000000000001 3.652 0
    vertex -1.103 3.846 0
    vertex -0.552 3.9530000000000003 0
  endloop
endfacet
facet normal -0.34545778464187193 0.9384342912694155 0
  outer loop
    vertex -1.6300000000000001 3.652 0
    vertex -1.103 3.846 16
    vertex -1.103 3.846 0
  endloop
endfacet
facet normal 0 0 1
  outer loop
    vertex -1.6300000000000001 3.652 16
    vertex -0.552 3.9530000000000003 16
    vertex -1.103 3.846 16
  endloop
endfacet
facet normal -0.26507378507000756 -0.964228130925799 0
  outer loop
    vertex -1.375 -3.758 0
    vertex -0.833 -3.907 0
    vertex -1.375 -3.758 16
  endloop
endfacet
facet normal -0.2650737850700073 -0.9642281309257987 0
  outer loop
    vertex -1.375 -3.758 16
    vertex -0.833 -3.907 0
    vertex -0.833 -3.907 16
  endloop
endfacet
facet normal -0.1906312237023257 0.9816617220558994 0
  outer loop
    vertex -1.103 3.846 0
    vertex -1.103 3.846 16
    vertex -0.552 3.9530000000000003 16
  endloop
endfacet
facet normal -0.1906312237023257 0.9816617220558994 0
  outer loop
    vertex -1.103 3.846 0
    vertex -0.552 3.9530000000000003 16
    vertex -0.552 3.9530000000000003 0
  endloop
endfacet
facet normal -0.13344561987320178 -0.9910561369249761 0
  outer loop
    vertex -0.833 -3.907 0
    vertex -0.276 -3.982 0
    vertex -0.833 -3.907 16
  endloop
endfacet
facet normal -0.13344561987320178 -0.9910561369249761 0
  outer loop
    vertex -0.833 -3.907 16
    vertex -0.276 -3.982 0
    vertex -0.276 -3.982 16
  endloop
endfacet
facet normal -0.08483795975853475 0.9963947614193931 0
  outer loop
    vertex -0.552 3.9530000000000003 0
    vertex -0.552 3.9530000000000003 16
    vertex 0 4 16
  endloop
endfacet
facet normal 0 0 -1
  outer loop
    vertex -0.552 3.9530000000000003 0
    vertex 0 4 0
    vertex 0.552 3.9530000000000003 0
  endloop
endfacet
facet normal -0.08483795975853475 0.9963947614193931 0
  outer loop
    vertex -0.552 3.9530000000000003 0
    vertex 0 4 16
    vertex 0 4 0
  endloop
endfacet
facet normal 0 0 1
  outer loop
    vertex -0.552 3.9530000000000003 16
    vertex 0.552 3.9530000000000003 16
    vertex 0 4 16
  endloop
endfacet
facet normal 0 -1 0
  outer loop
    vertex -0.276 -3.982 0
    vertex 0.276 -3.982 0
    vertex -0.276 -3.982 16
  endloop
endfacet
facet normal 0 -1 0
  outer loop
    vertex -0.276 -3.982 16
    vertex 0.276 -3.982 0
    vertex 0.276 -3.982 16
  endloop
endfacet
facet normal 0.08483795975853475 0.9963947614193931 0
  outer loop
    vertex 0 4 0
    vertex 0 4 16
    vertex 0.552 3.9530000000000003 16
  endloop
endfacet
facet normal 0.08483795975853475 0.9963947614193931 0
  outer loop
    vertex 0 4 0
    vertex 0.552 3.9530000000000003 16
    vertex 0.552 3.9530000000000003 0
  endloop
endfacet
facet normal 0.13344561987320178 -0.9910561369249761 0
  outer loop
    vertex 0.276 -3.982 0
    vertex 0.833 -3.907 0
    vertex 0.276 -3.982 16
  endloop
endfacet
facet normal 0 0 -1
  outer loop
    vertex 0.276 -3.982 0
    vertex 1.875 -3.529 0
    vertex 0.833 -3.907 0
  endloop
endfacet
facet normal 0 0 -1
  outer loop
    vertex 0.276 -3.982 0
    vertex 3.59 1.75 0
    vertex 3.97 -0.421 0
  endloop
endfacet
facet normal 0 0 -1
  outer loop
    vertex 0.276 -3.982 0
    vertex 3.97 -0.421 0
    vertex 1.875 -3.529 0
  endloop
endfacet
facet normal 0.13344561987320178 -0.9910561369249761 0
  outer loop
    vertex 0.276 -3.982 16
    vertex 0.833 -3.907 0
    vertex 0.833 -3.907 16
  endloop
endfacet
facet normal 0 0 1
  outer loop
    vertex 0.276 -3.982 16
    vertex 0.833 -3.907 16
    vertex 1.875 -3.529 16
  endloop
endfacet
facet normal 0 0 1
  outer loop
    vertex 0.276 -3.982 16
    vertex 1.875 -3.529 16
    vertex 3.97 -0.421 16
  endloop
endfacet
facet normal 0 0 1
  outer loop
    vertex 0.276 -3.982 16
    vertex 3.97 -0.421 16
    vertex 3.59 1.75 16
  endloop
endfacet
facet normal 0.1906312237023257 0.9816617220558994 0
  outer loop
    vertex 0.552 3.9530000000000003 0
    vertex 0.552 3.9530000000000003 16
    vertex 1.103 3.846 16
  endloop
endfacet
facet normal 0 0 -1
  outer loop
    vertex 0.552 3.9530000000000003 0
    vertex 1.103 3.846 0
    vertex 1.6300000000000001 3.652 0
  endloop
endfacet
facet normal 0.1906312237023257 0.9816617220558994 0
  outer loop
    vertex 0.552 3.9530000000000003 0
    vertex 1.103 3.846 16
    vertex 1.103 3.846 0
  endloop
endfacet
facet normal 0 0 -1
  outer loop
    vertex 0.552 3.9530000000000003 0
    vertex 1.6300000000000001 3.652 0
    vertex 3.59 1.75 0
  endloop
endfacet
facet normal 0 0 1
  outer loop
    vertex 0.552 3.9530000000000003 16
    vertex 1.6300000000000001 3.652 16
    vertex 1.103 3.846 16
  endloop
endfacet
facet normal 0 0 1
  outer loop
    vertex 0.552 3.9530000000000003 16
    vertex 3.59 1.75 16
    vertex 1.6300000000000001 3.652 16
  endloop
endfacet
facet normal 0.2650737850700073 -0.9642281309257987 0
  outer loop
    vertex 0.833 -3.907 0
    vertex 1.375 -3.758 0
    vertex 0.833 -3.907 16
  endloop
endfacet
facet normal 0 0 -1
  outer loop
    vertex 0.833 -3.907 0
    vertex 1.875 -3.529 0
    vertex 1.375 -3.758 0
  endloop
endfacet
facet normal 0.26507378507000756 -0.964228130925799 0
  outer loop
    vertex 0.833 -3.907 16
    vertex 1.375 -3.758 0
    vertex 1.375 -3.758 16
  endloop
endfacet
facet normal 0 0 1
  outer loop
    vertex 0.833 -3.907 16
    vertex 1.375 -3.758 16
    vertex 1.875 -3.529 16
  endloop
endfacet
facet normal 0.34545778464187193 0.9384342912694155 0
  outer loop
    vertex 1.103 3.846 0
    vertex 1.103 3.846 16
    vertex 1.6300000000000001 3.652 16
  endloop
endfacet
facet normal 0.34545778464187193 0.9384342912694155 0
  outer loop
    vertex 1.103 3.846 0
    vertex 1.6300000000000001 3.652 16
    vertex 1.6300000000000001 3.652 0
  endloop
endfacet
facet normal 0.41640424636130374 -0.9091795772080864 0
  outer loop
    vertex 1.375 -3.758 0
    vertex 1.875 -3.529 0
    vertex 1.375 -3.758 16
  endloop
endfacet
facet normal 0.41640424636130374 -0.9091795772080864 0
  outer loop
    vertex 1.375 -3.758 16
    vertex 1.875 -3.529 0
    vertex 1.875 -3.529 16
  endloop
endfacet
facet normal 0.4673882365397065 0.8840521683386696 0
  outer loop
    vertex 1.6300000000000001 3.652 0
    vertex 1.6300000000000001 3.652 16
    vertex 2.118 3.394 16
  endloop
endfacet
facet normal 0 0 -0.9999999999999999
  outer loop
    vertex 1.6300000000000001 3.652 0
    vertex 2.118 3.394 0
    vertex 3.59 1.75 0
  endloop
endfacet
facet normal 0.4673882365397068 0.8840521683386694 0
  outer loop
    vertex 1.6300000000000001 3.652 0
    vertex 2.118 3.394 16
    vertex 2.118 3.394 0
  endloop
endfacet
facet normal 0 0 0.9999999999999999
  outer loop
    vertex 1.6300000000000001 3.652 16
    vertex 3.59 1.75 16
    vertex 2.118 3.394 16
  endloop
endfacet
facet normal 0.5200036353282104 -0.8541640470339674 0
  outer loop
    vertex 1.875 -3.529 0
    vertex 2.353 -3.238 0
    vertex 1.875 -3.529 16
  endloop
endfacet
facet normal 0 0 -1
  outer loop
    vertex 1.875 -3.529 0
    vertex 3.152 -2.462 0
    vertex 2.353 -3.238 0
  endloop
endfacet
facet normal 0 0 -1
  outer loop
    vertex 1.875 -3.529 0
    vertex 3.875 -0.966 0
    vertex 3.152 -2.462 0
  endloop
endfacet
facet normal 0 0 -1
  outer loop
    vertex 1.875 -3.529 0
    vertex 3.97 -0.421 0
    vertex 3.875 -0.966 0
  endloop
endfacet
facet normal 0.5200036353282097 -0.8541640470339679 0
  outer loop
    vertex 1.875 -3.529 16
    vertex 2.353 -3.238 0
    vertex 2.353 -3.238 16
  endloop
endfacet
facet normal 0 0 1
  outer loop
    vertex 1.875 -3.529 16
    vertex 2.353 -3.238 16
    vertex 3.152 -2.462 16
  endloop
endfacet
facet normal -6.2385715957938525e-15 0 1
  outer loop
    vertex 1.875 -3.529 16
    vertex 3.152 -2.462 16
    vertex 3.875 -0.966 16
  endloop
endfacet
facet normal 1.678748127936539e-14 0 1
  outer loop
    vertex 1.875 -3.529 16
    vertex 3.875 -0.966 16
    vertex 3.97 -0.421 16
  endloop
endfacet
facet normal 0.5852944837109572 0.8108207985353633 0
  outer loop
    vertex 2.118 3.394 0
    vertex 2.118 3.394 16
    vertex 2.571 3.067 16
  endloop
endfacet
facet normal 0 0 -1
  outer loop
    vertex 2.118 3.394 0
    vertex 2.571 3.067 0
    vertex 2.968 2.684 0
  endloop
endfacet
facet normal 0.5852944837109572 0.8108207985353633 0
  outer loop
    vertex 2.118 3.394 0
    vertex 2.571 3.067 16
    vertex 2.571 3.067 0
  endloop
endfacet
facet normal 0 0 -0.9999999999999999
  outer loop
    vertex 2.118 3.394 0
    vertex 2.968 2.684 0
    vertex 3.59 1.75 0
  endloop
endfacet
facet normal 0 0 1
  outer loop
    vertex 2.118 3.394 16
    vertex 2.968 2.684 16
    vertex 2.571 3.067 16
  endloop
endfacet
facet normal 0 0 0.9999999999999999
  outer loop
    vertex 2.118 3.394 16
    vertex 3.59 1.75 16
    vertex 2.968 2.684 16
  endloop
endfacet
facet normal 0.6398327439691003 -0.7685141896835554 0
  outer loop
    vertex 2.353 -3.238 0
    vertex 2.783 -2.88 0
    vertex 2.353 -3.238 16
  endloop
endfacet
facet normal 0 0 -1
  outer loop
    vertex 2.353 -3.238 0
    vertex 3.152 -2.462 0
    vertex 2.783 -2.88 0
  endloop
endfacet
facet normal 0.6398327439691003 -0.7685141896835554 0
  outer loop
    vertex 2.353 -3.238 16
    vertex 2.783 -2.88 0
    vertex 2.783 -2.88 16
  endloop
endfacet
facet normal 0 0 1
  outer loop
    vertex 2.353 -3.238 16
    vertex 2.783 -2.88 16
    vertex 3.152 -2.462 16
  endloop
endfacet
facet normal 0.6943032928661667 0.719682525503571 0
  outer loop
    vertex 2.571 3.067 0
    vertex 2.571 3.067 16
    vertex 2.968 2.684 16
  endloop
endfacet
facet normal 0.6943032928661658 0.7196825255035717 0
  outer loop
    vertex 2.571 3.067 0
    vertex 2.968 2.684 16
    vertex 2.968 2.684 0
  endloop
endfacet
facet normal 0.7496808162237262 -0.6617995722166403 0
  outer loop
    vertex 2.783 -2.88 0
    vertex 3.152 -2.462 0
    vertex 2.783 -2.88 16
  endloop
endfacet
facet normal 0.7496808162237268 -0.6617995722166393 0
  outer loop
    vertex 2.783 -2.88 16
    vertex 3.152 -2.462 0
    vertex 3.152 -2.462 16
  endloop
endfacet
facet normal 0.7922258368068396 0.6102280094322964 0
  outer loop
    vertex 2.968 2.684 0
    vertex 2.968 2.684 16
    vertex 3.31 2.24 16
  endloop
endfacet
facet normal 0 0 -1
  outer loop
    vertex 2.968 2.684 0
    vertex 3.31 2.24 0
    vertex 3.59 1.75 0
  endloop
endfacet
facet normal 0.7922258368068403 0.6102280094322954 0
  outer loop
    vertex 2.968 2.684 0
    vertex 3.31 2.24 16
    vertex 3.31 2.24 0
  endloop
endfacet
facet normal 0 0 1
  outer loop
    vertex 2.968 2.684 16
    vertex 3.59 1.75 16
    vertex 3.31 2.24 16
  endloop
endfacet
facet normal 0.8262273428075482 -0.5633368246415089 0
  outer loop
    vertex 3.152 -2.462 0
    vertex 3.467 -2 0
    vertex 3.152 -2.462 16
  endloop
endfacet
facet normal 0 0 -1
  outer loop
    vertex 3.152 -2.462 0
    vertex 3.704 -1.5 0
    vertex 3.467 -2 0
  endloop
endfacet
facet normal 0 0 -1
  outer loop
    vertex 3.152 -2.462 0
    vertex 3.875 -0.966 0
    vertex 3.704 -1.5 0
  endloop
endfacet
facet normal 0.8262273428075475 -0.5633368246415101 0
  outer loop
    vertex 3.152 -2.462 16
    vertex 3.467 -2 0
    vertex 3.467 -2 16
  endloop
endfacet
facet normal 0 0 1
  outer loop
    vertex 3.152 -2.462 16
    vertex 3.467 -2 16
    vertex 3.704 -1.5 16
  endloop
endfacet
facet normal 0 0 1
  outer loop
    vertex 3.152 -2.462 16
    vertex 3.704 -1.5 16
    vertex 3.875 -0.966 16
  endloop
endfacet
facet normal 0.868243142124459 0.4961389383568339 0
  outer loop
    vertex 3.31 2.24 0
    vertex 3.31 2.24 16
    vertex 3.59 1.75 16
  endloop
endfacet
facet normal 0.8682431421244597 0.4961389383568328 0
  outer loop
    vertex 3.31 2.24 0
    vertex 3.59 1.75 16
    vertex 3.59 1.75 0
  endloop
endfacet
facet normal 0.9036274109226872 -0.4283193927773539 0
  outer loop
    vertex 3.467 -2 0
    vertex 3.704 -1.5 0
    vertex 3.467 -2 16
  endloop
endfacet
facet normal 0.9036274109226872 -0.4283193927773539 0
  outer loop
    vertex 3.467 -2 16
    vertex 3.704 -1.5 0
    vertex 3.704 -1.5 16
  endloop
endfacet
facet normal 0.9211919044571422 0.389108564751052 0
  outer loop
    vertex 3.59 1.75 0
    vertex 3.59 1.75 16
    vertex 3.805 1.241 16
  endloop
endfacet
facet normal 0 0 -0.9999999999999999
  outer loop
    vertex 3.59 1.75 0
    vertex 3.805 1.241 0
    vertex 3.932 0.6960000000000001 0
  endloop
endfacet
facet normal 0.9211919044571416 0.3891085647510534 0
  outer loop
    vertex 3.59 1.75 0
    vertex 3.805 1.241 16
    vertex 3.805 1.241 0
  endloop
endfacet
facet normal 0 0 -0.9999999999999999
  outer loop
    vertex 3.59 1.75 0
    vertex 3.932 0.6960000000000001 0
    vertex 3.97 -0.421 0
  endloop
endfacet
facet normal -6.762951493947472e-14 0 0.9999999999999999
  outer loop
    vertex 3.59 1.75 16
    vertex 3.932 0.6960000000000001 16
    vertex 3.805 1.241 16
  endloop
endfacet
facet normal 0 0 0.9999999999999999
  outer loop
    vertex 3.59 1.75 16
    vertex 3.97 -0.421 16
    vertex 3.932 0.6960000000000001 16
  endloop
endfacet
facet normal 0.952362004356265 -0.30496985532756843 0
  outer loop
    vertex 3.704 -1.5 0
    vertex 3.875 -0.966 0
    vertex 3.704 -1.5 16
  endloop
endfacet
facet normal 0.9523620043562653 -0.30496985532756693 0
  outer loop
    vertex 3.704 -1.5 16
    vertex 3.875 -0.966 0
    vertex 3.875 -0.966 16
  endloop
endfacet
facet normal 0.9739070744612067 0.22694715313132666 0
  outer loop
    vertex 3.805 1.241 0
    vertex 3.805 1.241 16
    vertex 3.932 0.6960000000000001 16
  endloop
endfacet
facet normal 0.9739070744612067 0.22694715313132666 0
  outer loop
    vertex 3.805 1.241 0
    vertex 3.932 0.6960000000000001 16
    vertex 3.932 0.6960000000000001 0
  endloop
endfacet
facet normal 0.9851453468163281 -0.17172258339000335 0
  outer loop
    vertex 3.875 -0.966 0
    vertex 3.97 -0.421 0
    vertex 3.875 -0.966 16
  endloop
endfacet
facet normal 0.9851453468163284 -0.17172258339000177 0
  outer loop
    vertex 3.875 -0.966 16
    vertex 3.97 -0.421 0
    vertex 3.97 -0.421 16
  endloop
endfacet
facet normal 0.9925243958570442 0.12204639949055968 0
  outer loop
    vertex 3.932 0.6960000000000001 0
    vertex 3.932 0.6960000000000001 16
    vertex 4 0.14300000000000002 16
  endloop
endfacet
facet normal 0 0 -1
  outer loop
    vertex 3.932 0.6960000000000001 0
    vertex 4 0.14300000000000002 0
    vertex 3.97 -0.421 0
  endloop
endfacet
facet normal 0.9925243958570444 0.12204639949055811 0
  outer loop
    vertex 3.932 0.6960000000000001 0
    vertex 4 0.14300000000000002 16
    vertex 4 0.14300000000000002 0
  endloop
endfacet
facet normal -6.466298421609162e-14 0 1
  outer loop
    vertex 3.932 0.6960000000000001 16
    vertex 3.97 -0.421 16
    vertex 4 0.14300000000000002 16
  endloop
endfacet
facet normal 0.9985883275945727 -0.05311640040396707 0
  outer loop
    vertex 3.97 -0.421 0
    vertex 4 0.14300000000000002 0
    vertex 3.97 -0.421 16
  endloop
endfacet
facet normal 0.9985883275945727 -0.053116400403965494 0
  outer loop
    vertex 3.97 -0.421 16
    vertex 4 0.14300000000000002 0
    vertex 4 0.14300000000000002 16
  endloop
endfacet
endsolid JSxCAD
