solid JSxCAD
facet normal -1 0 0
  outer loop
    vertex -4 0 0
    vertex -4 0 0.8
    vertex -4 12.8 0.8
  endloop
endfacet
facet normal 0 0 -1
  outer loop
    vertex -4 0 0
    vertex -4 12.8 0
    vertex -3.2 5.6000000000000005 0
  endloop
endfacet
facet normal -1 0 0
  outer loop
    vertex -4 0 0
    vertex -4 12.8 0.8
    vertex -4 12.8 0
  endloop
endfacet
facet normal 0 0 -1
  outer loop
    vertex -4 0 0
    vertex -3.2 5.6000000000000005 0
    vertex -3.156 5.1000000000000005 0
  endloop
endfacet
facet normal 0 0 -1
  outer loop
    vertex -4 0 0
    vertex -3.156 5.1000000000000005 0
    vertex -3.043 4.607 0
  endloop
endfacet
facet normal 0 0 -1
  outer loop
    vertex -4 0 0
    vertex -3.043 4.607 0
    vertex -2.857 4.146 0
  endloop
endfacet
facet normal 0 0 -0.9999999999999999
  outer loop
    vertex -4 0 0
    vertex -2.857 4.146 0
    vertex -2.591 3.718 0
  endloop
endfacet
facet normal 0 0 -1
  outer loop
    vertex -4 0 0
    vertex -2.591 3.718 0
    vertex -2.263 3.338 0
  endloop
endfacet
facet normal 0 0 -1
  outer loop
    vertex -4 0 0
    vertex -2.263 3.338 0
    vertex -1.8820000000000001 3.0100000000000002 0
  endloop
endfacet
facet normal 0 0 -1
  outer loop
    vertex -4 0 0
    vertex -1.8820000000000001 3.0100000000000002 0
    vertex -1.455 2.742 0
  endloop
endfacet
facet normal 0 0 -1
  outer loop
    vertex -4 0 0
    vertex -1.455 2.742 0
    vertex -0.992 2.556 0
  endloop
endfacet
facet normal 0 0 -1
  outer loop
    vertex -4 0 0
    vertex -0.992 2.556 0
    vertex -0.5 2.444 0
  endloop
endfacet
facet normal 0 0 -1
  outer loop
    vertex -4 0 0
    vertex -0.5 2.444 0
    vertex 0 2.4 0
  endloop
endfacet
facet normal 0 0 -1
  outer loop
    vertex -4 0 0
    vertex 0 2.4 0
    vertex 4 0 0
  endloop
endfacet
facet normal 0 -1 0
  outer loop
    vertex -4 0 0
    vertex 4 0 0
    vertex -4 0 0.8
  endloop
endfacet
facet normal -1 0 0
  outer loop
    vertex -4 0 0.8
    vertex -4 0 7.2
    vertex -4 12.8 7.2
  endloop
endfacet
facet normal -9.25185853854297e-17 0 -1
  outer loop
    vertex -4 0 0.8
    vertex -4 12.8 0.8
    vertex -2.5 5.6000000000000005 0.8
  endloop
endfacet
facet normal -1 0 0
  outer loop
    vertex -4 0 0.8
    vertex -4 12.8 7.2
    vertex -4 12.8 0.8
  endloop
endfacet
facet normal 1.7347234759768073e-16 0 1
  outer loop
    vertex -4 0 0.8
    vertex -3.2 5.6000000000000005 0.8
    vertex -4 12.8 0.8
  endloop
endfacet
facet normal -1.717547996016639e-15 0 1
  outer loop
    vertex -4 0 0.8
    vertex -3.156 5.1000000000000005 0.8
    vertex -3.2 5.6000000000000005 0.8
  endloop
endfacet
facet normal 4.474937422410327e-16 0 1
  outer loop
    vertex -4 0 0.8
    vertex -3.043 4.607 0.8
    vertex -3.156 5.1000000000000005 0.8
  endloop
endfacet
facet normal 0 0 1
  outer loop
    vertex -4 0 0.8
    vertex -2.857 4.146 0.8
    vertex -3.043 4.607 0.8
  endloop
endfacet
facet normal 6.973587501728327e-17 0 0.9999999999999999
  outer loop
    vertex -4 0 0.8
    vertex -2.591 3.718 0.8
    vertex -2.857 4.146 0.8
  endloop
endfacet
facet normal 0 0 -1
  outer loop
    vertex -4 0 0.8
    vertex -2.5 5.6000000000000005 0.8
    vertex -2.458 5.164 0.8
  endloop
endfacet
facet normal 0 0 -1
  outer loop
    vertex -4 0 0.8
    vertex -2.458 5.164 0.8
    vertex -2.348 4.741 0.8
  endloop
endfacet
facet normal 0 0 -1
  outer loop
    vertex -4 0 0.8
    vertex -2.348 4.741 0.8
    vertex -2.1670000000000003 4.3500000000000005 0.8
  endloop
endfacet
facet normal -1.2652662162294849e-16 0 1
  outer loop
    vertex -4 0 0.8
    vertex -2.263 3.338 0.8
    vertex -2.591 3.718 0.8
  endloop
endfacet
facet normal 0 0 -0.9999999999999999
  outer loop
    vertex -4 0 0.8
    vertex -2.1670000000000003 4.3500000000000005 0.8
    vertex -1.917 3.992 0.8
  endloop
endfacet
facet normal 3.840408230852645e-16 0 -1
  outer loop
    vertex -4 0 0.8
    vertex -1.917 3.992 0.8
    vertex -1.607 3.684 0.8
  endloop
endfacet
facet normal 6.028860082655668e-17 0 1
  outer loop
    vertex -4 0 0.8
    vertex -1.8820000000000001 3.0100000000000002 0.8
    vertex -2.263 3.338 0.8
  endloop
endfacet
facet normal -1.7384983716598558e-16 0 -1
  outer loop
    vertex -4 0 0.8
    vertex -1.607 3.684 0.8
    vertex -1.25 3.4330000000000003 0.8
  endloop
endfacet
facet normal 1.7975497108174933e-16 0 1
  outer loop
    vertex -4 0 0.8
    vertex -1.455 2.742 0.8
    vertex -1.8820000000000001 3.0100000000000002 0.8
  endloop
endfacet
facet normal 0 0 -0.9999999999999999
  outer loop
    vertex -4 0 0.8
    vertex -1.25 3.4330000000000003 0.8
    vertex -0.86 3.2520000000000002 0.8
  endloop
endfacet
facet normal 9.554875489913078e-17 0 1
  outer loop
    vertex -4 0 0.8
    vertex -0.992 2.556 0.8
    vertex -1.455 2.742 0.8
  endloop
endfacet
facet normal -1.9315392805884324e-16 0 -0.9999999999999999
  outer loop
    vertex -4 0 0.8
    vertex -0.86 3.2520000000000002 0.8
    vertex -0.435 3.1430000000000002 0.8
  endloop
endfacet
facet normal -2.262993104843657e-16 0 1
  outer loop
    vertex -4 0 0.8
    vertex -0.5 2.444 0.8
    vertex -0.992 2.556 0.8
  endloop
endfacet
facet normal 4.654831819786498e-16 0 -1
  outer loop
    vertex -4 0 0.8
    vertex -0.435 3.1430000000000002 0.8
    vertex 0 3.1 0.8
  endloop
endfacet
facet normal 1.3111282085871213e-16 0 1
  outer loop
    vertex -4 0 0.8
    vertex 0 2.4 0.8
    vertex -0.5 2.444 0.8
  endloop
endfacet
facet normal 0 0 -1
  outer loop
    vertex -4 0 0.8
    vertex 0 3.1 0.8
    vertex 4 0 0.8
  endloop
endfacet
facet normal 0 -1 0
  outer loop
    vertex -4 0 0.8
    vertex 4 0 0
    vertex 4 0 0.8
  endloop
endfacet
facet normal 0 -1 0
  outer loop
    vertex -4 0 0.8
    vertex 4 0 0.8
    vertex -4 0 7.2
  endloop
endfacet
facet normal 0 0 1
  outer loop
    vertex -4 0 0.8
    vertex 4 0 0.8
    vertex 0 2.4 0.8
  endloop
endfacet
facet normal -1 0 0
  outer loop
    vertex -4 0 7.2
    vertex -4 0 8
    vertex -4 12.8 8
  endloop
endfacet
facet normal 0 0 -1
  outer loop
    vertex -4 0 7.2
    vertex -4 12.8 7.2
    vertex -3.2 5.6000000000000005 7.2
  endloop
endfacet
facet normal -1 0 0
  outer loop
    vertex -4 0 7.2
    vertex -4 12.8 8
    vertex -4 12.8 7.2
  endloop
endfacet
facet normal -4.122115190439934e-15 0 -1
  outer loop
    vertex -4 0 7.2
    vertex -3.2 5.6000000000000005 7.2
    vertex -3.156 5.1000000000000005 7.2
  endloop
endfacet
facet normal -5.369924906892392e-15 0 -1
  outer loop
    vertex -4 0 7.2
    vertex -3.156 5.1000000000000005 7.2
    vertex -3.043 4.607 7.2
  endloop
endfacet
facet normal 0 0 -1
  outer loop
    vertex -4 0 7.2
    vertex -3.043 4.607 7.2
    vertex -2.857 4.146 7.2
  endloop
endfacet
facet normal 1.6736610004147983e-15 0 -0.9999999999999999
  outer loop
    vertex -4 0 7.2
    vertex -2.857 4.146 7.2
    vertex -2.591 3.718 7.2
  endloop
endfacet
facet normal -1.5183194594753817e-15 0 -1
  outer loop
    vertex -4 0 7.2
    vertex -2.591 3.718 7.2
    vertex -2.263 3.338 7.2
  endloop
endfacet
facet normal 0 0 1
  outer loop
    vertex -4 0 7.2
    vertex -2.5 5.6000000000000005 7.2
    vertex -4 12.8 7.2
  endloop
endfacet
facet normal 7.990808994153176e-15 0 1
  outer loop
    vertex -4 0 7.2
    vertex -2.458 5.164 7.2
    vertex -2.5 5.6000000000000005 7.2
  endloop
endfacet
facet normal 0 0 1
  outer loop
    vertex -4 0 7.2
    vertex -2.348 4.741 7.2
    vertex -2.458 5.164 7.2
  endloop
endfacet
facet normal -4.823088066124534e-16 0 -1
  outer loop
    vertex -4 0 7.2
    vertex -2.263 3.338 7.2
    vertex -1.8820000000000001 3.0100000000000002 7.2
  endloop
endfacet
facet normal 0 0 1
  outer loop
    vertex -4 0 7.2
    vertex -2.1670000000000003 4.3500000000000005 7.2
    vertex -2.348 4.741 7.2
  endloop
endfacet
facet normal 0 0 0.9999999999999999
  outer loop
    vertex -4 0 7.2
    vertex -1.917 3.992 7.2
    vertex -2.1670000000000003 4.3500000000000005 7.2
  endloop
endfacet
facet normal 1.1983664738783288e-15 0 -1
  outer loop
    vertex -4 0 7.2
    vertex -1.8820000000000001 3.0100000000000002 7.2
    vertex -1.455 2.742 7.2
  endloop
endfacet
facet normal -1.4179968852378997e-15 0 1
  outer loop
    vertex -4 0 7.2
    vertex -1.607 3.684 7.2
    vertex -1.917 3.992 7.2
  endloop
endfacet
facet normal 1.783576758117108e-15 0 -1
  outer loop
    vertex -4 0 7.2
    vertex -1.455 2.742 7.2
    vertex -0.992 2.556 7.2
  endloop
endfacet
facet normal 2.549797611767788e-15 0 1
  outer loop
    vertex -4 0 7.2
    vertex -1.25 3.4330000000000003 7.2
    vertex -1.607 3.684 7.2
  endloop
endfacet
facet normal 9.748277990095754e-16 0 -1
  outer loop
    vertex -4 0 7.2
    vertex -0.992 2.556 7.2
    vertex -0.5 2.444 7.2
  endloop
endfacet
facet normal 0 0 0.9999999999999999
  outer loop
    vertex -4 0 7.2
    vertex -0.86 3.2520000000000002 7.2
    vertex -1.25 3.4330000000000003 7.2
  endloop
endfacet
facet normal -4.841088770167832e-16 0 -1
  outer loop
    vertex -4 0 7.2
    vertex -0.5 2.444 7.2
    vertex 0 2.4 7.2
  endloop
endfacet
facet normal -3.3480014196866164e-15 0 0.9999999999999999
  outer loop
    vertex -4 0 7.2
    vertex -0.435 3.1430000000000002 7.2
    vertex -0.86 3.2520000000000002 7.2
  endloop
endfacet
facet normal 0 0 -1
  outer loop
    vertex -4 0 7.2
    vertex 0 2.4 7.2
    vertex 4 0 7.2
  endloop
endfacet
facet normal 2.7746448494413634e-15 0 1
  outer loop
    vertex -4 0 7.2
    vertex 0 3.1 7.2
    vertex -0.435 3.1430000000000002 7.2
  endloop
endfacet
facet normal 0 -1 0
  outer loop
    vertex -4 0 7.2
    vertex 4 0 0.8
    vertex 4 0 7.2
  endloop
endfacet
facet normal 0 -1 0
  outer loop
    vertex -4 0 7.2
    vertex 4 0 7.2
    vertex -4 0 8
  endloop
endfacet
facet normal 0 0 1
  outer loop
    vertex -4 0 7.2
    vertex 4 0 7.2
    vertex 0 3.1 7.2
  endloop
endfacet
facet normal 0 0 1
  outer loop
    vertex -4 0 8
    vertex -3.2 5.6000000000000005 8
    vertex -4 12.8 8
  endloop
endfacet
facet normal 0 0 1
  outer loop
    vertex -4 0 8
    vertex -3.156 5.1000000000000005 8
    vertex -3.2 5.6000000000000005 8
  endloop
endfacet
facet normal 0 0 1
  outer loop
    vertex -4 0 8
    vertex -3.043 4.607 8
    vertex -3.156 5.1000000000000005 8
  endloop
endfacet
facet normal 0 0 1
  outer loop
    vertex -4 0 8
    vertex -2.857 4.146 8
    vertex -3.043 4.607 8
  endloop
endfacet
facet normal 0 0 0.9999999999999999
  outer loop
    vertex -4 0 8
    vertex -2.591 3.718 8
    vertex -2.857 4.146 8
  endloop
endfacet
facet normal 0 0 1
  outer loop
    vertex -4 0 8
    vertex -2.263 3.338 8
    vertex -2.591 3.718 8
  endloop
endfacet
facet normal 0 0 1
  outer loop
    vertex -4 0 8
    vertex -1.8820000000000001 3.0100000000000002 8
    vertex -2.263 3.338 8
  endloop
endfacet
facet normal 0 0 1
  outer loop
    vertex -4 0 8
    vertex -1.455 2.742 8
    vertex -1.8820000000000001 3.0100000000000002 8
  endloop
endfacet
facet normal 0 0 1
  outer loop
    vertex -4 0 8
    vertex -0.992 2.556 8
    vertex -1.455 2.742 8
  endloop
endfacet
facet normal 0 0 1
  outer loop
    vertex -4 0 8
    vertex -0.5 2.444 8
    vertex -0.992 2.556 8
  endloop
endfacet
facet normal 0 0 1
  outer loop
    vertex -4 0 8
    vertex 0 2.4 8
    vertex -0.5 2.444 8
  endloop
endfacet
facet normal 0 -1 0
  outer loop
    vertex -4 0 8
    vertex 4 0 7.2
    vertex 4 0 8
  endloop
endfacet
facet normal 0 0 1
  outer loop
    vertex -4 0 8
    vertex 4 0 8
    vertex 0 2.4 8
  endloop
endfacet
facet normal 0 1 0
  outer loop
    vertex -4 12.8 0
    vertex -4 12.8 0.8
    vertex 4 12.8 0.8
  endloop
endfacet
facet normal 0 0 -1
  outer loop
    vertex -4 12.8 0
    vertex -3.156 6.1000000000000005 0
    vertex -3.2 5.6000000000000005 0
  endloop
endfacet
facet normal 0 0 -1
  outer loop
    vertex -4 12.8 0
    vertex -3.043 6.593 0
    vertex -3.156 6.1000000000000005 0
  endloop
endfacet
facet normal 0 0 -0.9999999999999999
  outer loop
    vertex -4 12.8 0
    vertex -2.857 7.054 0
    vertex -3.043 6.593 0
  endloop
endfacet
facet normal 0 0 -1
  outer loop
    vertex -4 12.8 0
    vertex -2.591 7.481 0
    vertex -2.857 7.054 0
  endloop
endfacet
facet normal 0 0 -1
  outer loop
    vertex -4 12.8 0
    vertex -2.263 7.864 0
    vertex -2.591 7.481 0
  endloop
endfacet
facet normal 0 0 -1
  outer loop
    vertex -4 12.8 0
    vertex -1.8820000000000001 8.19 0
    vertex -2.263 7.864 0
  endloop
endfacet
facet normal 0 0 -1
  outer loop
    vertex -4 12.8 0
    vertex -1.455 8.457 0
    vertex -1.8820000000000001 8.19 0
  endloop
endfacet
facet normal 0 0 -1
  outer loop
    vertex -4 12.8 0
    vertex -0.992 8.644 0
    vertex -1.455 8.457 0
  endloop
endfacet
facet normal 0 0 -1
  outer loop
    vertex -4 12.8 0
    vertex -0.5 8.756 0
    vertex -0.992 8.644 0
  endloop
endfacet
facet normal 0 0 -1
  outer loop
    vertex -4 12.8 0
    vertex 0 8.8 0
    vertex -0.5 8.756 0
  endloop
endfacet
facet normal 0 0 -1
  outer loop
    vertex -4 12.8 0
    vertex 4 12.8 0
    vertex 0 8.8 0
  endloop
endfacet
facet normal 0 1 0
  outer loop
    vertex -4 12.8 0
    vertex 4 12.8 0.8
    vertex 4 12.8 0
  endloop
endfacet
facet normal 0 1 0
  outer loop
    vertex -4 12.8 0.8
    vertex -4 12.8 7.2
    vertex 4 12.8 7.2
  endloop
endfacet
facet normal 9.293161478447184e-16 0 1
  outer loop
    vertex -4 12.8 0.8
    vertex -3.2 5.6000000000000005 0.8
    vertex -3.156 6.1000000000000005 0.8
  endloop
endfacet
facet normal -6.624287561094946e-16 0 1
  outer loop
    vertex -4 12.8 0.8
    vertex -3.156 6.1000000000000005 0.8
    vertex -3.043 6.593 0.8
  endloop
endfacet
facet normal 0 0 0.9999999999999999
  outer loop
    vertex -4 12.8 0.8
    vertex -3.043 6.593 0.8
    vertex -2.857 7.054 0.8
  endloop
endfacet
facet normal 0 0 1
  outer loop
    vertex -4 12.8 0.8
    vertex -2.857 7.054 0.8
    vertex -2.591 7.481 0.8
  endloop
endfacet
facet normal 3.8882221466822746e-16 0 1
  outer loop
    vertex -4 12.8 0.8
    vertex -2.591 7.481 0.8
    vertex -2.263 7.864 0.8
  endloop
endfacet
facet normal 4.643341801025329e-16 0 -1
  outer loop
    vertex -4 12.8 0.8
    vertex -2.458 6.0360000000000005 0.8
    vertex -2.5 5.6000000000000005 0.8
  endloop
endfacet
facet normal 0 0 -1
  outer loop
    vertex -4 12.8 0.8
    vertex -2.348 6.4590000000000005 0.8
    vertex -2.458 6.0360000000000005 0.8
  endloop
endfacet
facet normal 0 0 1
  outer loop
    vertex -4 12.8 0.8
    vertex -2.263 7.864 0.8
    vertex -1.8820000000000001 8.19 0.8
  endloop
endfacet
facet normal -1.8569194118792543e-16 0 -0.9999999999999999
  outer loop
    vertex -4 12.8 0.8
    vertex -2.1670000000000003 6.8500000000000005 0.8
    vertex -2.348 6.4590000000000005 0.8
  endloop
endfacet
facet normal -1.5550205981917162e-16 0 -1
  outer loop
    vertex -4 12.8 0.8
    vertex -1.917 7.207 0.8
    vertex -2.1670000000000003 6.8500000000000005 0.8
  endloop
endfacet
facet normal -8.762695657931689e-17 0 1
  outer loop
    vertex -4 12.8 0.8
    vertex -1.8820000000000001 8.19 0.8
    vertex -1.455 8.457 0.8
  endloop
endfacet
facet normal 1.6329828145489323e-16 0 -1
  outer loop
    vertex -4 12.8 0.8
    vertex -1.607 7.517 0.8
    vertex -1.917 7.207 0.8
  endloop
endfacet
facet normal 0 0 1
  outer loop
    vertex -4 12.8 0.8
    vertex -1.455 8.457 0.8
    vertex -0.992 8.644 0.8
  endloop
endfacet
facet normal -1.3406973985130785e-16 0 -1
  outer loop
    vertex -4 12.8 0.8
    vertex -1.25 7.767 0.8
    vertex -1.607 7.517 0.8
  endloop
endfacet
facet normal -1.5150118027650517e-16 0 1
  outer loop
    vertex -4 12.8 0.8
    vertex -0.992 8.644 0.8
    vertex -0.5 8.756 0.8
  endloop
endfacet
facet normal -2.929502941118661e-16 0 -1
  outer loop
    vertex -4 12.8 0.8
    vertex -0.86 7.949 0.8
    vertex -1.25 7.767 0.8
  endloop
endfacet
facet normal 1.5944149595375013e-16 0 1
  outer loop
    vertex -4 12.8 0.8
    vertex -0.5 8.756 0.8
    vertex 0 8.8 0.8
  endloop
endfacet
facet normal 1.5029291672265988e-16 0 -1
  outer loop
    vertex -4 12.8 0.8
    vertex -0.435 8.057 0.8
    vertex -0.86 7.949 0.8
  endloop
endfacet
facet normal 8.139464989920516e-17 0 -1
  outer loop
    vertex -4 12.8 0.8
    vertex 0 8.1 0.8
    vertex -0.435 8.057 0.8
  endloop
endfacet
facet normal 0 0 1
  outer loop
    vertex -4 12.8 0.8
    vertex 0 8.8 0.8
    vertex 4 12.8 0.8
  endloop
endfacet
facet normal 0 0 -1
  outer loop
    vertex -4 12.8 0.8
    vertex 4 12.8 0.8
    vertex 0 8.1 0.8
  endloop
endfacet
facet normal 0 1 0
  outer loop
    vertex -4 12.8 0.8
    vertex 4 12.8 7.2
    vertex 4 12.8 0.8
  endloop
endfacet
facet normal 0 1 0
  outer loop
    vertex -4 12.8 7.2
    vertex -4 12.8 8
    vertex 4 12.8 8
  endloop
endfacet
facet normal -3.7172645913788736e-15 0 -1
  outer loop
    vertex -4 12.8 7.2
    vertex -3.156 6.1000000000000005 7.2
    vertex -3.2 5.6000000000000005 7.2
  endloop
endfacet
facet normal -3.785307177768541e-15 0 -1
  outer loop
    vertex -4 12.8 7.2
    vertex -3.043 6.593 7.2
    vertex -3.156 6.1000000000000005 7.2
  endloop
endfacet
facet normal 0 0 -0.9999999999999999
  outer loop
    vertex -4 12.8 7.2
    vertex -2.857 7.054 7.2
    vertex -3.043 6.593 7.2
  endloop
endfacet
facet normal 0 0 -1
  outer loop
    vertex -4 12.8 7.2
    vertex -2.591 7.481 7.2
    vertex -2.857 7.054 7.2
  endloop
endfacet
facet normal 5.572010161230395e-15 0 1
  outer loop
    vertex -4 12.8 7.2
    vertex -2.5 5.6000000000000005 7.2
    vertex -2.458 6.0360000000000005 7.2
  endloop
endfacet
facet normal 0 0 1
  outer loop
    vertex -4 12.8 7.2
    vertex -2.458 6.0360000000000005 7.2
    vertex -2.348 6.4590000000000005 7.2
  endloop
endfacet
facet normal -3.466249568841275e-15 0 0.9999999999999999
  outer loop
    vertex -4 12.8 7.2
    vertex -2.348 6.4590000000000005 7.2
    vertex -2.1670000000000003 6.8500000000000005 7.2
  endloop
endfacet
facet normal 3.1105777173458197e-15 0 -1
  outer loop
    vertex -4 12.8 7.2
    vertex -2.263 7.864 7.2
    vertex -2.591 7.481 7.2
  endloop
endfacet
facet normal 3.732049435660119e-15 0 1
  outer loop
    vertex -4 12.8 7.2
    vertex -2.1670000000000003 6.8500000000000005 7.2
    vertex -1.917 7.207 7.2
  endloop
endfacet
facet normal -3.7325321475404164e-15 0 1
  outer loop
    vertex -4 12.8 7.2
    vertex -1.917 7.207 7.2
    vertex -1.607 7.517 7.2
  endloop
endfacet
facet normal -2.9038747978448434e-15 0 -1
  outer loop
    vertex -4 12.8 7.2
    vertex -1.8820000000000001 8.19 7.2
    vertex -2.263 7.864 7.2
  endloop
endfacet
facet normal 3.3964334095664657e-15 0 1
  outer loop
    vertex -4 12.8 7.2
    vertex -1.607 7.517 7.2
    vertex -1.25 7.767 7.2
  endloop
endfacet
facet normal 1.7525391315863378e-15 0 -1
  outer loop
    vertex -4 12.8 7.2
    vertex -1.455 8.457 7.2
    vertex -1.8820000000000001 8.19 7.2
  endloop
endfacet
facet normal -1.8027710406884067e-15 0 1
  outer loop
    vertex -4 12.8 7.2
    vertex -1.25 7.767 7.2
    vertex -0.86 7.949 7.2
  endloop
endfacet
facet normal 0 0 -1
  outer loop
    vertex -4 12.8 7.2
    vertex -0.992 8.644 7.2
    vertex -1.455 8.457 7.2
  endloop
endfacet
facet normal -3.607030001343837e-15 0 1
  outer loop
    vertex -4 12.8 7.2
    vertex -0.86 7.949 7.2
    vertex -0.435 8.057 7.2
  endloop
endfacet
facet normal 6.526204688834069e-16 0 -1
  outer loop
    vertex -4 12.8 7.2
    vertex -0.5 8.756 7.2
    vertex -0.992 8.644 7.2
  endloop
endfacet
facet normal 1.2522253830646947e-15 0 1
  outer loop
    vertex -4 12.8 7.2
    vertex -0.435 8.057 7.2
    vertex 0 8.1 7.2
  endloop
endfacet
facet normal 0 0 1
  outer loop
    vertex -4 12.8 7.2
    vertex 0 8.1 7.2
    vertex 4 12.8 7.2
  endloop
endfacet
facet normal -6.632766231676005e-16 0 -1
  outer loop
    vertex -4 12.8 7.2
    vertex 0 8.8 7.2
    vertex -0.5 8.756 7.2
  endloop
endfacet
facet normal 0 0 -1
  outer loop
    vertex -4 12.8 7.2
    vertex 4 12.8 7.2
    vertex 0 8.8 7.2
  endloop
endfacet
facet normal 0 1 0
  outer loop
    vertex -4 12.8 7.2
    vertex 4 12.8 8
    vertex 4 12.8 7.2
  endloop
endfacet
facet normal 0 0 1
  outer loop
    vertex -4 12.8 8
    vertex -3.2 5.6000000000000005 8
    vertex -3.156 6.1000000000000005 8
  endloop
endfacet
facet normal 0 0 1
  outer loop
    vertex -4 12.8 8
    vertex -3.156 6.1000000000000005 8
    vertex -3.043 6.593 8
  endloop
endfacet
facet normal 0 0 0.9999999999999999
  outer loop
    vertex -4 12.8 8
    vertex -3.043 6.593 8
    vertex -2.857 7.054 8
  endloop
endfacet
facet normal 0 0 1
  outer loop
    vertex -4 12.8 8
    vertex -2.857 7.054 8
    vertex -2.591 7.481 8
  endloop
endfacet
facet normal 0 0 1
  outer loop
    vertex -4 12.8 8
    vertex -2.591 7.481 8
    vertex -2.263 7.864 8
  endloop
endfacet
facet normal 0 0 1
  outer loop
    vertex -4 12.8 8
    vertex -2.263 7.864 8
    vertex -1.8820000000000001 8.19 8
  endloop
endfacet
facet normal 0 0 1
  outer loop
    vertex -4 12.8 8
    vertex -1.8820000000000001 8.19 8
    vertex -1.455 8.457 8
  endloop
endfacet
facet normal 0 0 1
  outer loop
    vertex -4 12.8 8
    vertex -1.455 8.457 8
    vertex -0.992 8.644 8
  endloop
endfacet
facet normal 0 0 1
  outer loop
    vertex -4 12.8 8
    vertex -0.992 8.644 8
    vertex -0.5 8.756 8
  endloop
endfacet
facet normal 0 0 1
  outer loop
    vertex -4 12.8 8
    vertex -0.5 8.756 8
    vertex 0 8.8 8
  endloop
endfacet
facet normal 0 0 1
  outer loop
    vertex -4 12.8 8
    vertex 0 8.8 8
    vertex 4 12.8 8
  endloop
endfacet
facet normal 0.9961503444262929 0.08766123030951518 0
  outer loop
    vertex -3.2 5.6000000000000005 0
    vertex -3.2 5.6000000000000005 0.8
    vertex -3.156 5.1000000000000005 0.8
  endloop
endfacet
facet normal 0.9961503444262931 0.08766123030951299 0
  outer loop
    vertex -3.2 5.6000000000000005 0
    vertex -3.156 5.1000000000000005 0.8
    vertex -3.156 5.1000000000000005 0
  endloop
endfacet
facet normal 0.9961503444262929 -0.08766123030951518 0
  outer loop
    vertex -3.2 5.6000000000000005 0
    vertex -3.156 6.1000000000000005 0
    vertex -3.2 5.6000000000000005 0.8
  endloop
endfacet
facet normal 0.9961503444262931 -0.08766123030951299 0
  outer loop
    vertex -3.2 5.6000000000000005 0.8
    vertex -3.156 6.1000000000000005 0
    vertex -3.156 6.1000000000000005 0.8
  endloop
endfacet
facet normal 0.9961503444262929 0.0876612303095151 0
  outer loop
    vertex -3.2 5.6000000000000005 7.2
    vertex -3.2 5.6000000000000005 8
    vertex -3.156 5.1000000000000005 8
  endloop
endfacet
facet normal 0.9961503444262931 0.08766123030951312 0
  outer loop
    vertex -3.2 5.6000000000000005 7.2
    vertex -3.156 5.1000000000000005 8
    vertex -3.156 5.1000000000000005 7.2
  endloop
endfacet
facet normal 0.996150344426293 -0.08766123030951531 0
  outer loop
    vertex -3.2 5.6000000000000005 7.2
    vertex -3.156 6.1000000000000005 7.2
    vertex -3.2 5.6000000000000005 8
  endloop
endfacet
facet normal 0.9961503444262932 -0.08766123030951292 0
  outer loop
    vertex -3.2 5.6000000000000005 8
    vertex -3.156 6.1000000000000005 7.2
    vertex -3.156 6.1000000000000005 8
  endloop
endfacet
facet normal 0.9747233493339273 0.22341529102380236 0
  outer loop
    vertex -3.156 5.1000000000000005 0
    vertex -3.156 5.1000000000000005 0.8
    vertex -3.043 4.607 0.8
  endloop
endfacet
facet normal 0.9747233493339279 0.22341529102380028 0
  outer loop
    vertex -3.156 5.1000000000000005 0
    vertex -3.043 4.607 0.8
    vertex -3.043 4.607 0
  endloop
endfacet
facet normal 0.974723349333928 0.22341529102379992 0
  outer loop
    vertex -3.156 5.1000000000000005 7.2
    vertex -3.156 5.1000000000000005 8
    vertex -3.043 4.607 8
  endloop
endfacet
facet normal 0.974723349333928 0.22341529102380092 0
  outer loop
    vertex -3.156 5.1000000000000005 7.2
    vertex -3.043 4.607 8
    vertex -3.043 4.607 7.2
  endloop
endfacet
facet normal 0.9747233493339273 -0.22341529102380275 0
  outer loop
    vertex -3.156 6.1000000000000005 0
    vertex -3.043 6.593 0
    vertex -3.156 6.1000000000000005 0.8
  endloop
endfacet
facet normal 0.9747233493339279 -0.2234152910238007 0
  outer loop
    vertex -3.156 6.1000000000000005 0.8
    vertex -3.043 6.593 0
    vertex -3.043 6.593 0.8
  endloop
endfacet
facet normal 0.974723349333928 -0.22341529102380092 0
  outer loop
    vertex -3.156 6.1000000000000005 7.2
    vertex -3.043 6.593 7.2
    vertex -3.156 6.1000000000000005 8
  endloop
endfacet
facet normal 0.9747233493339281 -0.22341529102380045 0
  outer loop
    vertex -3.156 6.1000000000000005 8
    vertex -3.043 6.593 7.2
    vertex -3.043 6.593 8
  endloop
endfacet
facet normal 0.9273626786393442 0.37416368378940873 0
  outer loop
    vertex -3.043 4.607 0
    vertex -3.043 4.607 0.8
    vertex -2.857 4.146 0.8
  endloop
endfacet
facet normal 0.9273626786393433 0.3741636837894107 0
  outer loop
    vertex -3.043 4.607 0
    vertex -2.857 4.146 0.8
    vertex -2.857 4.146 0
  endloop
endfacet
facet normal 0.9273626786393433 0.3741636837894107 0
  outer loop
    vertex -3.043 4.607 7.2
    vertex -3.043 4.607 8
    vertex -2.857 4.146 8
  endloop
endfacet
facet normal 0.9273626786393442 0.37416368378940873 0
  outer loop
    vertex -3.043 4.607 7.2
    vertex -2.857 4.146 8
    vertex -2.857 4.146 7.2
  endloop
endfacet
facet normal 0.9273626786393442 -0.37416368378940873 0
  outer loop
    vertex -3.043 6.593 0
    vertex -2.857 7.054 0
    vertex -3.043 6.593 0.8
  endloop
endfacet
facet normal 0.9273626786393433 -0.3741636837894107 0
  outer loop
    vertex -3.043 6.593 0.8
    vertex -2.857 7.054 0
    vertex -2.857 7.054 0.8
  endloop
endfacet
facet normal 0.9273626786393433 -0.3741636837894107 0
  outer loop
    vertex -3.043 6.593 7.2
    vertex -2.857 7.054 7.2
    vertex -3.043 6.593 8
  endloop
endfacet
facet normal 0.9273626786393442 -0.37416368378940873 0
  outer loop
    vertex -3.043 6.593 8
    vertex -2.857 7.054 7.2
    vertex -2.857 7.054 8
  endloop
endfacet
facet normal 0.8493334163370694 0.5278567494057479 0
  outer loop
    vertex -2.857 4.146 0
    vertex -2.857 4.146 0.8
    vertex -2.591 3.718 0.8
  endloop
endfacet
facet normal 0.8493334163370694 0.5278567494057479 0
  outer loop
    vertex -2.857 4.146 0
    vertex -2.591 3.718 0.8
    vertex -2.591 3.718 0
  endloop
endfacet
facet normal 0.8493334163370697 0.5278567494057473 0
  outer loop
    vertex -2.857 4.146 7.2
    vertex -2.857 4.146 8
    vertex -2.591 3.718 8
  endloop
endfacet
facet normal 0.849333416337068 0.5278567494057499 0
  outer loop
    vertex -2.857 4.146 7.2
    vertex -2.591 3.718 8
    vertex -2.591 3.718 7.2
  endloop
endfacet
facet normal 0.8487790901364478 -0.5287476299210655 0
  outer loop
    vertex -2.857 7.054 0
    vertex -2.591 7.481 0
    vertex -2.857 7.054 0.8
  endloop
endfacet
facet normal 0.8487790901364478 -0.5287476299210655 0
  outer loop
    vertex -2.857 7.054 0.8
    vertex -2.591 7.481 0
    vertex -2.591 7.481 0.8
  endloop
endfacet
facet normal 0.8487790901364478 -0.5287476299210655 0
  outer loop
    vertex -2.857 7.054 7.2
    vertex -2.591 7.481 7.2
    vertex -2.857 7.054 8
  endloop
endfacet
facet normal 0.8487790901364467 -0.528747629921067 0
  outer loop
    vertex -2.857 7.054 8
    vertex -2.591 7.481 7.2
    vertex -2.591 7.481 8
  endloop
endfacet
facet normal 0.7570021514409163 0.6534123833490025 0
  outer loop
    vertex -2.591 3.718 0
    vertex -2.591 3.718 0.8
    vertex -2.263 3.338 0.8
  endloop
endfacet
facet normal 0.7570021514409163 0.6534123833490025 0
  outer loop
    vertex -2.591 3.718 0
    vertex -2.263 3.338 0.8
    vertex -2.263 3.338 0
  endloop
endfacet
facet normal 0.7570021514409172 0.6534123833490016 0
  outer loop
    vertex -2.591 3.718 7.2
    vertex -2.591 3.718 8
    vertex -2.263 3.338 8
  endloop
endfacet
facet normal 0.7570021514409163 0.6534123833490026 0
  outer loop
    vertex -2.591 3.718 7.2
    vertex -2.263 3.338 8
    vertex -2.263 3.338 7.2
  endloop
endfacet
facet normal 0.7595365025576581 -0.6504646810415464 0
  outer loop
    vertex -2.591 7.481 0
    vertex -2.263 7.864 0
    vertex -2.591 7.481 0.8
  endloop
endfacet
facet normal 0.7595365025576581 -0.6504646810415464 0
  outer loop
    vertex -2.591 7.481 0.8
    vertex -2.263 7.864 0
    vertex -2.263 7.864 0.8
  endloop
endfacet
facet normal 0.7595365025576587 -0.6504646810415458 0
  outer loop
    vertex -2.591 7.481 7.2
    vertex -2.263 7.864 7.2
    vertex -2.591 7.481 8
  endloop
endfacet
facet normal 0.7595365025576587 -0.6504646810415458 0
  outer loop
    vertex -2.591 7.481 8
    vertex -2.263 7.864 7.2
    vertex -2.263 7.864 8
  endloop
endfacet
facet normal 0.9953922824157512 0.09588641252628735 0
  outer loop
    vertex -2.5 5.6000000000000005 0.8
    vertex -2.5 5.6000000000000005 7.2
    vertex -2.458 5.164 7.2
  endloop
endfacet
facet normal 0.9953922824157512 0.09588641252628735 0
  outer loop
    vertex -2.5 5.6000000000000005 0.8
    vertex -2.458 5.164 7.2
    vertex -2.458 5.164 0.8
  endloop
endfacet
facet normal 0.9953922824157512 -0.09588641252628755 0
  outer loop
    vertex -2.5 5.6000000000000005 0.8
    vertex -2.458 6.0360000000000005 0.8
    vertex -2.5 5.6000000000000005 7.2
  endloop
endfacet
facet normal 0.9953922824157512 -0.09588641252628753 0
  outer loop
    vertex -2.5 5.6000000000000005 7.2
    vertex -2.458 6.0360000000000005 0.8
    vertex -2.458 6.0360000000000005 7.2
  endloop
endfacet
facet normal 0.9678113617359032 0.2516767134537812 0
  outer loop
    vertex -2.458 5.164 0.8
    vertex -2.458 5.164 7.2
    vertex -2.348 4.741 7.2
  endloop
endfacet
facet normal 0.9678113617359032 0.2516767134537812 0
  outer loop
    vertex -2.458 5.164 0.8
    vertex -2.348 4.741 7.2
    vertex -2.348 4.741 0.8
  endloop
endfacet
facet normal 0.9678113617359032 -0.2516767134537812 0
  outer loop
    vertex -2.458 6.0360000000000005 0.8
    vertex -2.348 6.4590000000000005 0.8
    vertex -2.458 6.0360000000000005 7.2
  endloop
endfacet
facet normal 0.9678113617359032 -0.2516767134537812 0
  outer loop
    vertex -2.458 6.0360000000000005 7.2
    vertex -2.348 6.4590000000000005 0.8
    vertex -2.348 6.4590000000000005 7.2
  endloop
endfacet
facet normal 0.9074832925432503 0.4200881737860057 0
  outer loop
    vertex -2.348 4.741 0.8
    vertex -2.348 4.741 7.2
    vertex -2.1670000000000003 4.3500000000000005 7.2
  endloop
endfacet
facet normal 0.90748329254325 0.42008817378600677 0
  outer loop
    vertex -2.348 4.741 0.8
    vertex -2.1670000000000003 4.3500000000000005 7.2
    vertex -2.1670000000000003 4.3500000000000005 0.8
  endloop
endfacet
facet normal 0.9074832925432508 -0.42008817378600494 0
  outer loop
    vertex -2.348 6.4590000000000005 0.8
    vertex -2.1670000000000003 6.8500000000000005 0.8
    vertex -2.348 6.4590000000000005 7.2
  endloop
endfacet
facet normal 0.9074832925432503 -0.4200881737860059 0
  outer loop
    vertex -2.348 6.4590000000000005 7.2
    vertex -2.1670000000000003 6.8500000000000005 0.8
    vertex -2.1670000000000003 6.8500000000000005 7.2
  endloop
endfacet
facet normal 0.6524279490706694 0.7578507579144063 0
  outer loop
    vertex -2.263 3.338 0
    vertex -2.263 3.338 0.8
    vertex -1.8820000000000001 3.0100000000000002 0.8
  endloop
endfacet
facet normal 0.6524279490706705 0.7578507579144054 0
  outer loop
    vertex -2.263 3.338 0
    vertex -1.8820000000000001 3.0100000000000002 0.8
    vertex -1.8820000000000001 3.0100000000000002 0
  endloop
endfacet
facet normal 0.6524279490706699 0.7578507579144056 0
  outer loop
    vertex -2.263 3.338 7.2
    vertex -2.263 3.338 8
    vertex -1.8820000000000001 3.0100000000000002 8
  endloop
endfacet
facet normal 0.6524279490706698 0.7578507579144058 0
  outer loop
    vertex -2.263 3.338 7.2
    vertex -1.8820000000000001 3.0100000000000002 8
    vertex -1.8820000000000001 3.0100000000000002 7.2
  endloop
endfacet
facet normal 0.6501341916579589 -0.7598194080419718 0
  outer loop
    vertex -2.263 7.864 0
    vertex -1.8820000000000001 8.19 0
    vertex -2.263 7.864 0.8
  endloop
endfacet
facet normal 0.6501341916579602 -0.7598194080419709 0
  outer loop
    vertex -2.263 7.864 0.8
    vertex -1.8820000000000001 8.19 0
    vertex -1.8820000000000001 8.19 0.8
  endloop
endfacet
facet normal 0.6501341916579589 -0.7598194080419718 0
  outer loop
    vertex -2.263 7.864 7.2
    vertex -1.8820000000000001 8.19 7.2
    vertex -2.263 7.864 8
  endloop
endfacet
facet normal 0.6501341916579602 -0.7598194080419709 0
  outer loop
    vertex -2.263 7.864 8
    vertex -1.8820000000000001 8.19 7.2
    vertex -1.8820000000000001 8.19 8
  endloop
endfacet
facet normal 0.8198769496469667 0.5725397693065393 0
  outer loop
    vertex -2.1670000000000003 4.3500000000000005 0.8
    vertex -2.1670000000000003 4.3500000000000005 7.2
    vertex -1.917 3.992 7.2
  endloop
endfacet
facet normal 0.8198769496469654 0.572539769306541 0
  outer loop
    vertex -2.1670000000000003 4.3500000000000005 0.8
    vertex -1.917 3.992 7.2
    vertex -1.917 3.992 0.8
  endloop
endfacet
facet normal 0.8191241123743577 -0.5736163251921276 0
  outer loop
    vertex -2.1670000000000003 6.8500000000000005 0.8
    vertex -1.917 7.207 0.8
    vertex -2.1670000000000003 6.8500000000000005 7.2
  endloop
endfacet
facet normal 0.8191241123743565 -0.5736163251921291 0
  outer loop
    vertex -2.1670000000000003 6.8500000000000005 7.2
    vertex -1.917 7.207 0.8
    vertex -1.917 7.207 7.2
  endloop
endfacet
facet normal 0.7048147188723347 0.709391437826051 0
  outer loop
    vertex -1.917 3.992 0.8
    vertex -1.917 3.992 7.2
    vertex -1.607 3.684 7.2
  endloop
endfacet
facet normal 0.7048147188723339 0.7093914378260514 0
  outer loop
    vertex -1.917 3.992 0.8
    vertex -1.607 3.684 7.2
    vertex -1.607 3.684 0.8
  endloop
endfacet
facet normal 0.7071067811865483 -0.7071067811865466 0
  outer loop
    vertex -1.917 7.207 0.8
    vertex -1.607 7.517 0.8
    vertex -1.917 7.207 7.2
  endloop
endfacet
facet normal 0.7071067811865478 -0.7071067811865472 0
  outer loop
    vertex -1.917 7.207 7.2
    vertex -1.607 7.517 0.8
    vertex -1.607 7.517 7.2
  endloop
endfacet
facet normal 0.531602694806761 0.8469938458301747 0
  outer loop
    vertex -1.8820000000000001 3.0100000000000002 0
    vertex -1.8820000000000001 3.0100000000000002 0.8
    vertex -1.455 2.742 0.8
  endloop
endfacet
facet normal 0.531602694806761 0.8469938458301747 0
  outer loop
    vertex -1.8820000000000001 3.0100000000000002 0
    vertex -1.455 2.742 0.8
    vertex -1.455 2.742 0
  endloop
endfacet
facet normal 0.5316026948067613 0.8469938458301746 0
  outer loop
    vertex -1.8820000000000001 3.0100000000000002 7.2
    vertex -1.8820000000000001 3.0100000000000002 8
    vertex -1.455 2.742 8
  endloop
endfacet
facet normal 0.5316026948067605 0.846993845830175 0
  outer loop
    vertex -1.8820000000000001 3.0100000000000002 7.2
    vertex -1.455 2.742 8
    vertex -1.455 2.742 7.2
  endloop
endfacet
facet normal 0.5301774166412796 -0.8478867299843648 0
  outer loop
    vertex -1.8820000000000001 8.19 0
    vertex -1.455 8.457 0
    vertex -1.8820000000000001 8.19 0.8
  endloop
endfacet
facet normal 0.5301774166412796 -0.8478867299843648 0
  outer loop
    vertex -1.8820000000000001 8.19 0.8
    vertex -1.455 8.457 0
    vertex -1.455 8.457 0.8
  endloop
endfacet
facet normal 0.5301774166412786 -0.8478867299843654 0
  outer loop
    vertex -1.8820000000000001 8.19 7.2
    vertex -1.455 8.457 7.2
    vertex -1.8820000000000001 8.19 8
  endloop
endfacet
facet normal 0.5301774166412803 -0.8478867299843644 0
  outer loop
    vertex -1.8820000000000001 8.19 8
    vertex -1.455 8.457 7.2
    vertex -1.455 8.457 8
  endloop
endfacet
facet normal 0.575152792830806 0.8180460041458083 0
  outer loop
    vertex -1.607 3.684 0.8
    vertex -1.607 3.684 7.2
    vertex -1.25 3.4330000000000003 7.2
  endloop
endfacet
facet normal 0.575152792830806 0.8180460041458083 0
  outer loop
    vertex -1.607 3.684 0.8
    vertex -1.25 3.4330000000000003 7.2
    vertex -1.25 3.4330000000000003 0.8
  endloop
endfacet
facet normal 0.5736163251921272 -0.8191241123743578 0
  outer loop
    vertex -1.607 7.517 0.8
    vertex -1.25 7.767 0.8
    vertex -1.607 7.517 7.2
  endloop
endfacet
facet normal 0.5736163251921272 -0.8191241123743578 0
  outer loop
    vertex -1.607 7.517 7.2
    vertex -1.25 7.767 0.8
    vertex -1.25 7.767 7.2
  endloop
endfacet
facet normal 0.37277243925305414 0.9279227923342157 0
  outer loop
    vertex -1.455 2.742 0
    vertex -1.455 2.742 0.8
    vertex -0.992 2.556 0.8
  endloop
endfacet
facet normal 0.37277243925305414 0.9279227923342157 0
  outer loop
    vertex -1.455 2.742 0
    vertex -0.992 2.556 0.8
    vertex -0.992 2.556 0
  endloop
endfacet
facet normal 0.37277243925305453 0.9279227923342157 0
  outer loop
    vertex -1.455 2.742 7.2
    vertex -1.455 2.742 8
    vertex -0.992 2.556 8
  endloop
endfacet
facet normal 0.37277243925305353 0.927922792334216 0
  outer loop
    vertex -1.455 2.742 7.2
    vertex -0.992 2.556 8
    vertex -0.992 2.556 7.2
  endloop
endfacet
facet normal 0.3744961615946541 -0.92722846426912 0
  outer loop
    vertex -1.455 8.457 0
    vertex -0.992 8.644 0
    vertex -1.455 8.457 0.8
  endloop
endfacet
facet normal 0.3744961615946541 -0.92722846426912 0
  outer loop
    vertex -1.455 8.457 0.8
    vertex -0.992 8.644 0
    vertex -0.992 8.644 0.8
  endloop
endfacet
facet normal 0.37449616159465426 -0.92722846426912 0
  outer loop
    vertex -1.455 8.457 7.2
    vertex -0.992 8.644 7.2
    vertex -1.455 8.457 8
  endloop
endfacet
facet normal 0.37449616159465426 -0.92722846426912 0
  outer loop
    vertex -1.455 8.457 8
    vertex -0.992 8.644 7.2
    vertex -0.992 8.644 8
  endloop
endfacet
facet normal 0.42097463189961304 0.9070724112754093 0
  outer loop
    vertex -1.25 3.4330000000000003 0.8
    vertex -1.25 3.4330000000000003 7.2
    vertex -0.86 3.2520000000000002 7.2
  endloop
endfacet
facet normal 0.4209746318996133 0.9070724112754092 0
  outer loop
    vertex -1.25 3.4330000000000003 0.8
    vertex -0.86 3.2520000000000002 7.2
    vertex -0.86 3.2520000000000002 0.8
  endloop
endfacet
facet normal 0.42288546533112287 -0.906183139995266 0
  outer loop
    vertex -1.25 7.767 0.8
    vertex -0.86 7.949 0.8
    vertex -1.25 7.767 7.2
  endloop
endfacet
facet normal 0.42288546533112314 -0.9061831399952658 0
  outer loop
    vertex -1.25 7.767 7.2
    vertex -0.86 7.949 0.8
    vertex -0.86 7.949 7.2
  endloop
endfacet
facet normal 0.22196372265434344 0.9750549245172939 0
  outer loop
    vertex -0.992 2.556 0
    vertex -0.992 2.556 0.8
    vertex -0.5 2.444 0.8
  endloop
endfacet
facet normal 0.22196372265434353 0.9750549245172938 0
  outer loop
    vertex -0.992 2.556 0
    vertex -0.5 2.444 0.8
    vertex -0.5 2.444 0
  endloop
endfacet
facet normal 0.22196372265434364 0.9750549245172938 0
  outer loop
    vertex -0.992 2.556 7.2
    vertex -0.992 2.556 8
    vertex -0.5 2.444 8
  endloop
endfacet
facet normal 0.2219637226543431 0.9750549245172939 0
  outer loop
    vertex -0.992 2.556 7.2
    vertex -0.5 2.444 8
    vertex -0.5 2.444 7.2
  endloop
endfacet
facet normal 0.22196372265434344 -0.9750549245172939 0
  outer loop
    vertex -0.992 8.644 0
    vertex -0.5 8.756 0
    vertex -0.992 8.644 0.8
  endloop
endfacet
facet normal 0.22196372265434353 -0.9750549245172938 0
  outer loop
    vertex -0.992 8.644 0.8
    vertex -0.5 8.756 0
    vertex -0.5 8.756 0.8
  endloop
endfacet
facet normal 0.2219637226543431 -0.9750549245172939 0
  outer loop
    vertex -0.992 8.644 7.2
    vertex -0.5 8.756 7.2
    vertex -0.992 8.644 8
  endloop
endfacet
facet normal 0.22196372265434364 -0.9750549245172938 0
  outer loop
    vertex -0.992 8.644 8
    vertex -0.5 8.756 7.2
    vertex -0.5 8.756 8
  endloop
endfacet
facet normal 0.24843018507293096 0.9686498041834466 0
  outer loop
    vertex -0.86 3.2520000000000002 0.8
    vertex -0.86 3.2520000000000002 7.2
    vertex -0.435 3.1430000000000002 7.2
  endloop
endfacet
facet normal 0.24843018507293096 0.9686498041834465 0
  outer loop
    vertex -0.86 3.2520000000000002 0.8
    vertex -0.435 3.1430000000000002 7.2
    vertex -0.435 3.1430000000000002 0.8
  endloop
endfacet
facet normal 0.24628986179957588 -0.969196215414993 0
  outer loop
    vertex -0.86 7.949 0.8
    vertex -0.435 8.057 0.8
    vertex -0.86 7.949 7.2
  endloop
endfacet
facet normal 0.24628986179957602 -0.969196215414993 0
  outer loop
    vertex -0.86 7.949 7.2
    vertex -0.435 8.057 0.8
    vertex -0.435 8.057 7.2
  endloop
endfacet
facet normal 0.08766123030951387 0.9961503444262931 0
  outer loop
    vertex -0.5 2.444 0
    vertex -0.5 2.444 0.8
    vertex 0 2.4 0.8
  endloop
endfacet
facet normal 0.08766123030951387 0.9961503444262931 0
  outer loop
    vertex -0.5 2.444 0
    vertex 0 2.4 0.8
    vertex 0 2.4 0
  endloop
endfacet
facet normal 0.08766123030951382 0.996150344426293 0
  outer loop
    vertex -0.5 2.444 7.2
    vertex -0.5 2.444 8
    vertex 0 2.4 8
  endloop
endfacet
facet normal 0.08766123030951382 0.996150344426293 0
  outer loop
    vertex -0.5 2.444 7.2
    vertex 0 2.4 8
    vertex 0 2.4 7.2
  endloop
endfacet
facet normal 0.08766123030951475 -0.9961503444262929 0
  outer loop
    vertex -0.5 8.756 0
    vertex 0 8.8 0
    vertex -0.5 8.756 0.8
  endloop
endfacet
facet normal 0.08766123030951475 -0.9961503444262929 0
  outer loop
    vertex -0.5 8.756 0.8
    vertex 0 8.8 0
    vertex 0 8.8 0.8
  endloop
endfacet
facet normal 0.08766123030951466 -0.996150344426293 0
  outer loop
    vertex -0.5 8.756 7.2
    vertex 0 8.8 7.2
    vertex -0.5 8.756 8
  endloop
endfacet
facet normal 0.08766123030951493 -0.996150344426293 0
  outer loop
    vertex -0.5 8.756 8
    vertex 0 8.8 7.2
    vertex 0 8.8 8
  endloop
endfacet
facet normal 0.09837112947861258 0.9951497982138678 0
  outer loop
    vertex -0.435 3.1430000000000002 0.8
    vertex -0.435 3.1430000000000002 7.2
    vertex 0 3.1 7.2
  endloop
endfacet
facet normal 0.09837112947861255 0.9951497982138678 0
  outer loop
    vertex -0.435 3.1430000000000002 0.8
    vertex 0 3.1 7.2
    vertex 0 3.1 0.8
  endloop
endfacet
facet normal 0.09837112947861056 -0.9951497982138682 0
  outer loop
    vertex -0.435 8.057 0.8
    vertex 0 8.1 0.8
    vertex -0.435 8.057 7.2
  endloop
endfacet
facet normal 0.09837112947861057 -0.9951497982138681 0
  outer loop
    vertex -0.435 8.057 7.2
    vertex 0 8.1 0.8
    vertex 0 8.1 7.2
  endloop
endfacet
facet normal -0.08766123030951387 0.9961503444262931 0
  outer loop
    vertex 0 2.4 0
    vertex 0 2.4 0.8
    vertex 0.5 2.444 0.8
  endloop
endfacet
facet normal 0 0 -1
  outer loop
    vertex 0 2.4 0
    vertex 0.5 2.444 0
    vertex 4 0 0
  endloop
endfacet
facet normal -0.08766123030951387 0.9961503444262931 0
  outer loop
    vertex 0 2.4 0
    vertex 0.5 2.444 0.8
    vertex 0.5 2.444 0
  endloop
endfacet
facet normal 0 0 1
  outer loop
    vertex 0 2.4 0.8
    vertex 4 0 0.8
    vertex 0.5 2.444 0.8
  endloop
endfacet
facet normal -0.08766123030951382 0.996150344426293 0
  outer loop
    vertex 0 2.4 7.2
    vertex 0 2.4 8
    vertex 0.5 2.444 8
  endloop
endfacet
facet normal 0 0 -1
  outer loop
    vertex 0 2.4 7.2
    vertex 0.5 2.444 7.2
    vertex 4 0 7.2
  endloop
endfacet
facet normal -0.08766123030951382 0.996150344426293 0
  outer loop
    vertex 0 2.4 7.2
    vertex 0.5 2.444 8
    vertex 0.5 2.444 7.2
  endloop
endfacet
facet normal 0 0 1
  outer loop
    vertex 0 2.4 8
    vertex 4 0 8
    vertex 0.5 2.444 8
  endloop
endfacet
facet normal -0.09837112947861258 0.9951497982138678 0
  outer loop
    vertex 0 3.1 0.8
    vertex 0 3.1 7.2
    vertex 0.435 3.1430000000000002 7.2
  endloop
endfacet
facet normal -5.841357577771293e-16 0 -1
  outer loop
    vertex 0 3.1 0.8
    vertex 0.435 3.1430000000000002 0.8
    vertex 4 0 0.8
  endloop
endfacet
facet normal -0.09837112947861255 0.9951497982138678 0
  outer loop
    vertex 0 3.1 0.8
    vertex 0.435 3.1430000000000002 7.2
    vertex 0.435 3.1430000000000002 0.8
  endloop
endfacet
facet normal -4.673086062217035e-15 0 1
  outer loop
    vertex 0 3.1 7.2
    vertex 4 0 7.2
    vertex 0.435 3.1430000000000002 7.2
  endloop
endfacet
facet normal -0.09837112947861056 -0.9951497982138682 0
  outer loop
    vertex 0 8.1 0.8
    vertex 0.435 8.057 0.8
    vertex 0 8.1 7.2
  endloop
endfacet
facet normal 0 0 -1
  outer loop
    vertex 0 8.1 0.8
    vertex 4 12.8 0.8
    vertex 0.435 8.057 0.8
  endloop
endfacet
facet normal -0.09837112947861057 -0.9951497982138681 0
  outer loop
    vertex 0 8.1 7.2
    vertex 0.435 8.057 0.8
    vertex 0.435 8.057 7.2
  endloop
endfacet
facet normal 0 0 1
  outer loop
    vertex 0 8.1 7.2
    vertex 0.435 8.057 7.2
    vertex 4 12.8 7.2
  endloop
endfacet
facet normal -0.08766123030951475 -0.9961503444262929 0
  outer loop
    vertex 0 8.8 0
    vertex 0.5 8.756 0
    vertex 0 8.8 0.8
  endloop
endfacet
facet normal 0 0 -1
  outer loop
    vertex 0 8.8 0
    vertex 4 12.8 0
    vertex 0.5 8.756 0
  endloop
endfacet
facet normal -0.08766123030951475 -0.9961503444262929 0
  outer loop
    vertex 0 8.8 0.8
    vertex 0.5 8.756 0
    vertex 0.5 8.756 0.8
  endloop
endfacet
facet normal 0 0 1
  outer loop
    vertex 0 8.8 0.8
    vertex 0.5 8.756 0.8
    vertex 4 12.8 0.8
  endloop
endfacet
facet normal -0.08766123030951466 -0.996150344426293 0
  outer loop
    vertex 0 8.8 7.2
    vertex 0.5 8.756 7.2
    vertex 0 8.8 8
  endloop
endfacet
facet normal 0 0 -1
  outer loop
    vertex 0 8.8 7.2
    vertex 4 12.8 7.2
    vertex 0.5 8.756 7.2
  endloop
endfacet
facet normal -0.08766123030951493 -0.996150344426293 0
  outer loop
    vertex 0 8.8 8
    vertex 0.5 8.756 7.2
    vertex 0.5 8.756 8
  endloop
endfacet
facet normal 0 0 1
  outer loop
    vertex 0 8.8 8
    vertex 0.5 8.756 8
    vertex 4 12.8 8
  endloop
endfacet
facet normal -0.248430185072931 0.9686498041834465 0
  outer loop
    vertex 0.435 3.1430000000000002 0.8
    vertex 0.435 3.1430000000000002 7.2
    vertex 0.86 3.2520000000000002 7.2
  endloop
endfacet
facet normal 0 0 -1
  outer loop
    vertex 0.435 3.1430000000000002 0.8
    vertex 0.86 3.2520000000000002 0.8
    vertex 4 0 0.8
  endloop
endfacet
facet normal -0.2484301850729309 0.9686498041834466 0
  outer loop
    vertex 0.435 3.1430000000000002 0.8
    vertex 0.86 3.2520000000000002 7.2
    vertex 0.86 3.2520000000000002 0.8
  endloop
endfacet
facet normal 4.120617131921992e-15 0 1
  outer loop
    vertex 0.435 3.1430000000000002 7.2
    vertex 4 0 7.2
    vertex 0.86 3.2520000000000002 7.2
  endloop
endfacet
facet normal -0.24628986179957596 -0.969196215414993 0
  outer loop
    vertex 0.435 8.057 0.8
    vertex 0.86 7.949 0.8
    vertex 0.435 8.057 7.2
  endloop
endfacet
facet normal 0 0 -1
  outer loop
    vertex 0.435 8.057 0.8
    vertex 4 12.8 0.8
    vertex 0.86 7.949 0.8
  endloop
endfacet
facet normal -0.24628986179957593 -0.969196215414993 0
  outer loop
    vertex 0.435 8.057 7.2
    vertex 0.86 7.949 0.8
    vertex 0.86 7.949 7.2
  endloop
endfacet
facet normal 5.91922872015398e-15 0 1
  outer loop
    vertex 0.435 8.057 7.2
    vertex 0.86 7.949 7.2
    vertex 4 12.8 7.2
  endloop
endfacet
facet normal -0.22196372265434353 0.9750549245172938 0
  outer loop
    vertex 0.5 2.444 0
    vertex 0.5 2.444 0.8
    vertex 0.992 2.556 0.8
  endloop
endfacet
facet normal 0 0 -1
  outer loop
    vertex 0.5 2.444 0
    vertex 0.992 2.556 0
    vertex 4 0 0
  endloop
endfacet
facet normal -0.22196372265434344 0.9750549245172939 0
  outer loop
    vertex 0.5 2.444 0
    vertex 0.992 2.556 0.8
    vertex 0.992 2.556 0
  endloop
endfacet
facet normal 0 0 1
  outer loop
    vertex 0.5 2.444 0.8
    vertex 4 0 0.8
    vertex 0.992 2.556 0.8
  endloop
endfacet
facet normal -0.22196372265434364 0.9750549245172938 0
  outer loop
    vertex 0.5 2.444 7.2
    vertex 0.5 2.444 8
    vertex 0.992 2.556 8
  endloop
endfacet
facet normal 0 0 -1
  outer loop
    vertex 0.5 2.444 7.2
    vertex 0.992 2.556 7.2
    vertex 4 0 7.2
  endloop
endfacet
facet normal -0.2219637226543431 0.9750549245172939 0
  outer loop
    vertex 0.5 2.444 7.2
    vertex 0.992 2.556 8
    vertex 0.992 2.556 7.2
  endloop
endfacet
facet normal 0 0 1
  outer loop
    vertex 0.5 2.444 8
    vertex 4 0 8
    vertex 0.992 2.556 8
  endloop
endfacet
facet normal -0.22196372265434353 -0.9750549245172938 0
  outer loop
    vertex 0.5 8.756 0
    vertex 0.992 8.644 0
    vertex 0.5 8.756 0.8
  endloop
endfacet
facet normal 0 0 -1
  outer loop
    vertex 0.5 8.756 0
    vertex 4 12.8 0
    vertex 0.992 8.644 0
  endloop
endfacet
facet normal -0.22196372265434344 -0.9750549245172939 0
  outer loop
    vertex 0.5 8.756 0.8
    vertex 0.992 8.644 0
    vertex 0.992 8.644 0.8
  endloop
endfacet
facet normal 0 0 1
  outer loop
    vertex 0.5 8.756 0.8
    vertex 0.992 8.644 0.8
    vertex 4 12.8 0.8
  endloop
endfacet
facet normal -0.2219637226543431 -0.9750549245172939 0
  outer loop
    vertex 0.5 8.756 7.2
    vertex 0.992 8.644 7.2
    vertex 0.5 8.756 8
  endloop
endfacet
facet normal 0 0 -1
  outer loop
    vertex 0.5 8.756 7.2
    vertex 4 12.8 7.2
    vertex 0.992 8.644 7.2
  endloop
endfacet
facet normal -0.22196372265434364 -0.9750549245172938 0
  outer loop
    vertex 0.5 8.756 8
    vertex 0.992 8.644 7.2
    vertex 0.992 8.644 8
  endloop
endfacet
facet normal 0 0 1
  outer loop
    vertex 0.5 8.756 8
    vertex 0.992 8.644 8
    vertex 4 12.8 8
  endloop
endfacet
facet normal -0.4209746318996133 0.9070724112754092 0
  outer loop
    vertex 0.86 3.2520000000000002 0.8
    vertex 0.86 3.2520000000000002 7.2
    vertex 1.25 3.4330000000000003 7.2
  endloop
endfacet
facet normal 0 0 -1
  outer loop
    vertex 0.86 3.2520000000000002 0.8
    vertex 1.25 3.4330000000000003 0.8
    vertex 4 0 0.8
  endloop
endfacet
facet normal -0.42097463189961304 0.9070724112754093 0
  outer loop
    vertex 0.86 3.2520000000000002 0.8
    vertex 1.25 3.4330000000000003 7.2
    vertex 1.25 3.4330000000000003 0.8
  endloop
endfacet
facet normal 0 0 1
  outer loop
    vertex 0.86 3.2520000000000002 7.2
    vertex 4 0 7.2
    vertex 1.25 3.4330000000000003 7.2
  endloop
endfacet
facet normal -0.4228854653311231 -0.9061831399952659 0
  outer loop
    vertex 0.86 7.949 0.8
    vertex 1.25 7.767 0.8
    vertex 0.86 7.949 7.2
  endloop
endfacet
facet normal 0 0 -1
  outer loop
    vertex 0.86 7.949 0.8
    vertex 4 12.8 0.8
    vertex 1.25 7.767 0.8
  endloop
endfacet
facet normal -0.4228854653311229 -0.906183139995266 0
  outer loop
    vertex 0.86 7.949 7.2
    vertex 1.25 7.767 0.8
    vertex 1.25 7.767 7.2
  endloop
endfacet
facet normal 0 0 1
  outer loop
    vertex 0.86 7.949 7.2
    vertex 1.25 7.767 7.2
    vertex 4 12.8 7.2
  endloop
endfacet
facet normal -0.37277243925305414 0.9279227923342157 0
  outer loop
    vertex 0.992 2.556 0
    vertex 0.992 2.556 0.8
    vertex 1.455 2.742 0.8
  endloop
endfacet
facet normal 0 0 -0.9999999999999999
  outer loop
    vertex 0.992 2.556 0
    vertex 1.455 2.742 0
    vertex 4 0 0
  endloop
endfacet
facet normal -0.37277243925305414 0.9279227923342157 0
  outer loop
    vertex 0.992 2.556 0
    vertex 1.455 2.742 0.8
    vertex 1.455 2.742 0
  endloop
endfacet
facet normal 0 0 0.9999999999999999
  outer loop
    vertex 0.992 2.556 0.8
    vertex 4 0 0.8
    vertex 1.455 2.742 0.8
  endloop
endfacet
facet normal -0.37277243925305453 0.9279227923342157 0
  outer loop
    vertex 0.992 2.556 7.2
    vertex 0.992 2.556 8
    vertex 1.455 2.742 8
  endloop
endfacet
facet normal 0 0 -0.9999999999999999
  outer loop
    vertex 0.992 2.556 7.2
    vertex 1.455 2.742 7.2
    vertex 4 0 7.2
  endloop
endfacet
facet normal -0.37277243925305353 0.927922792334216 0
  outer loop
    vertex 0.992 2.556 7.2
    vertex 1.455 2.742 8
    vertex 1.455 2.742 7.2
  endloop
endfacet
facet normal 0 0 0.9999999999999999
  outer loop
    vertex 0.992 2.556 8
    vertex 4 0 8
    vertex 1.455 2.742 8
  endloop
endfacet
facet normal -0.3744961615946541 -0.92722846426912 0
  outer loop
    vertex 0.992 8.644 0
    vertex 1.455 8.457 0
    vertex 0.992 8.644 0.8
  endloop
endfacet
facet normal 0 0 -1
  outer loop
    vertex 0.992 8.644 0
    vertex 4 12.8 0
    vertex 1.455 8.457 0
  endloop
endfacet
facet normal -0.3744961615946541 -0.92722846426912 0
  outer loop
    vertex 0.992 8.644 0.8
    vertex 1.455 8.457 0
    vertex 1.455 8.457 0.8
  endloop
endfacet
facet normal 0 0 1
  outer loop
    vertex 0.992 8.644 0.8
    vertex 1.455 8.457 0.8
    vertex 4 12.8 0.8
  endloop
endfacet
facet normal -0.37449616159465426 -0.92722846426912 0
  outer loop
    vertex 0.992 8.644 7.2
    vertex 1.455 8.457 7.2
    vertex 0.992 8.644 8
  endloop
endfacet
facet normal 0 0 -1
  outer loop
    vertex 0.992 8.644 7.2
    vertex 4 12.8 7.2
    vertex 1.455 8.457 7.2
  endloop
endfacet
facet normal -0.37449616159465426 -0.92722846426912 0
  outer loop
    vertex 0.992 8.644 8
    vertex 1.455 8.457 7.2
    vertex 1.455 8.457 8
  endloop
endfacet
facet normal 0 0 1
  outer loop
    vertex 0.992 8.644 8
    vertex 1.455 8.457 8
    vertex 4 12.8 8
  endloop
endfacet
facet normal -0.575152792830806 0.8180460041458083 0
  outer loop
    vertex 1.25 3.4330000000000003 0.8
    vertex 1.25 3.4330000000000003 7.2
    vertex 1.607 3.684 7.2
  endloop
endfacet
facet normal 0 0 -1
  outer loop
    vertex 1.25 3.4330000000000003 0.8
    vertex 1.607 3.684 0.8
    vertex 4 0 0.8
  endloop
endfacet
facet normal -0.575152792830806 0.8180460041458083 0
  outer loop
    vertex 1.25 3.4330000000000003 0.8
    vertex 1.607 3.684 7.2
    vertex 1.607 3.684 0.8
  endloop
endfacet
facet normal -3.708796526207692e-15 0 1
  outer loop
    vertex 1.25 3.4330000000000003 7.2
    vertex 4 0 7.2
    vertex 1.607 3.684 7.2
  endloop
endfacet
facet normal -0.5736163251921272 -0.8191241123743578 0
  outer loop
    vertex 1.25 7.767 0.8
    vertex 1.607 7.517 0.8
    vertex 1.25 7.767 7.2
  endloop
endfacet
facet normal 0 0 -0.9999999999999999
  outer loop
    vertex 1.25 7.767 0.8
    vertex 4 12.8 0.8
    vertex 1.607 7.517 0.8
  endloop
endfacet
facet normal -0.5736163251921272 -0.8191241123743578 0
  outer loop
    vertex 1.25 7.767 7.2
    vertex 1.607 7.517 0.8
    vertex 1.607 7.517 7.2
  endloop
endfacet
facet normal -5.720308900322462e-15 0 0.9999999999999999
  outer loop
    vertex 1.25 7.767 7.2
    vertex 1.607 7.517 7.2
    vertex 4 12.8 7.2
  endloop
endfacet
facet normal -0.531602694806761 0.8469938458301747 0
  outer loop
    vertex 1.455 2.742 0
    vertex 1.455 2.742 0.8
    vertex 1.8820000000000001 3.0100000000000002 0.8
  endloop
endfacet
facet normal 0 0 -1
  outer loop
    vertex 1.455 2.742 0
    vertex 1.8820000000000001 3.0100000000000002 0
    vertex 4 0 0
  endloop
endfacet
facet normal -0.531602694806761 0.8469938458301747 0
  outer loop
    vertex 1.455 2.742 0
    vertex 1.8820000000000001 3.0100000000000002 0.8
    vertex 1.8820000000000001 3.0100000000000002 0
  endloop
endfacet
facet normal 0 0 1
  outer loop
    vertex 1.455 2.742 0.8
    vertex 4 0 0.8
    vertex 1.8820000000000001 3.0100000000000002 0.8
  endloop
endfacet
facet normal -0.5316026948067613 0.8469938458301746 0
  outer loop
    vertex 1.455 2.742 7.2
    vertex 1.455 2.742 8
    vertex 1.8820000000000001 3.0100000000000002 8
  endloop
endfacet
facet normal 0 0 -1
  outer loop
    vertex 1.455 2.742 7.2
    vertex 1.8820000000000001 3.0100000000000002 7.2
    vertex 4 0 7.2
  endloop
endfacet
facet normal -0.5316026948067605 0.846993845830175 0
  outer loop
    vertex 1.455 2.742 7.2
    vertex 1.8820000000000001 3.0100000000000002 8
    vertex 1.8820000000000001 3.0100000000000002 7.2
  endloop
endfacet
facet normal 0 0 1
  outer loop
    vertex 1.455 2.742 8
    vertex 4 0 8
    vertex 1.8820000000000001 3.0100000000000002 8
  endloop
endfacet
facet normal -0.5301774166412796 -0.8478867299843648 0
  outer loop
    vertex 1.455 8.457 0
    vertex 1.8820000000000001 8.19 0
    vertex 1.455 8.457 0.8
  endloop
endfacet
facet normal 0 0 -1
  outer loop
    vertex 1.455 8.457 0
    vertex 4 12.8 0
    vertex 1.8820000000000001 8.19 0
  endloop
endfacet
facet normal -0.5301774166412796 -0.8478867299843648 0
  outer loop
    vertex 1.455 8.457 0.8
    vertex 1.8820000000000001 8.19 0
    vertex 1.8820000000000001 8.19 0.8
  endloop
endfacet
facet normal 0 0 1
  outer loop
    vertex 1.455 8.457 0.8
    vertex 1.8820000000000001 8.19 0.8
    vertex 4 12.8 0.8
  endloop
endfacet
facet normal -0.5301774166412786 -0.8478867299843654 0
  outer loop
    vertex 1.455 8.457 7.2
    vertex 1.8820000000000001 8.19 7.2
    vertex 1.455 8.457 8
  endloop
endfacet
facet normal 0 0 -1
  outer loop
    vertex 1.455 8.457 7.2
    vertex 4 12.8 7.2
    vertex 1.8820000000000001 8.19 7.2
  endloop
endfacet
facet normal -0.5301774166412803 -0.8478867299843644 0
  outer loop
    vertex 1.455 8.457 8
    vertex 1.8820000000000001 8.19 7.2
    vertex 1.8820000000000001 8.19 8
  endloop
endfacet
facet normal 0 0 1
  outer loop
    vertex 1.455 8.457 8
    vertex 1.8820000000000001 8.19 8
    vertex 4 12.8 8
  endloop
endfacet
facet normal -0.704814718872334 0.7093914378260515 0
  outer loop
    vertex 1.607 3.684 0.8
    vertex 1.607 3.684 7.2
    vertex 1.917 3.992 7.2
  endloop
endfacet
facet normal -4.726656284126332e-16 0 -1
  outer loop
    vertex 1.607 3.684 0.8
    vertex 1.917 3.992 0.8
    vertex 4 0 0.8
  endloop
endfacet
facet normal -0.7048147188723347 0.709391437826051 0
  outer loop
    vertex 1.607 3.684 0.8
    vertex 1.917 3.992 7.2
    vertex 1.917 3.992 0.8
  endloop
endfacet
facet normal 0 0 1
  outer loop
    vertex 1.607 3.684 7.2
    vertex 4 0 7.2
    vertex 1.917 3.992 7.2
  endloop
endfacet
facet normal -0.7071067811865478 -0.7071067811865474 0
  outer loop
    vertex 1.607 7.517 0.8
    vertex 1.917 7.207 0.8
    vertex 1.607 7.517 7.2
  endloop
endfacet
facet normal 0 0 -1
  outer loop
    vertex 1.607 7.517 0.8
    vertex 4 12.8 0.8
    vertex 1.917 7.207 0.8
  endloop
endfacet
facet normal -0.7071067811865485 -0.7071067811865466 0
  outer loop
    vertex 1.607 7.517 7.2
    vertex 1.917 7.207 0.8
    vertex 1.917 7.207 7.2
  endloop
endfacet
facet normal 5.972051436064657e-15 0 1
  outer loop
    vertex 1.607 7.517 7.2
    vertex 1.917 7.207 7.2
    vertex 4 12.8 7.2
  endloop
endfacet
facet normal -0.6524279490706705 0.7578507579144054 0
  outer loop
    vertex 1.8820000000000001 3.0100000000000002 0
    vertex 1.8820000000000001 3.0100000000000002 0.8
    vertex 2.263 3.338 0.8
  endloop
endfacet
facet normal 0 0 -1
  outer loop
    vertex 1.8820000000000001 3.0100000000000002 0
    vertex 2.263 3.338 0
    vertex 4 0 0
  endloop
endfacet
facet normal -0.6524279490706694 0.7578507579144063 0
  outer loop
    vertex 1.8820000000000001 3.0100000000000002 0
    vertex 2.263 3.338 0.8
    vertex 2.263 3.338 0
  endloop
endfacet
facet normal 0 0 1
  outer loop
    vertex 1.8820000000000001 3.0100000000000002 0.8
    vertex 4 0 0.8
    vertex 2.263 3.338 0.8
  endloop
endfacet
facet normal -0.6524279490706711 0.7578507579144047 0
  outer loop
    vertex 1.8820000000000001 3.0100000000000002 7.2
    vertex 1.8820000000000001 3.0100000000000002 8
    vertex 2.263 3.338 8
  endloop
endfacet
facet normal 0 0 -1
  outer loop
    vertex 1.8820000000000001 3.0100000000000002 7.2
    vertex 2.263 3.338 7.2
    vertex 4 0 7.2
  endloop
endfacet
facet normal -0.6524279490706688 0.7578507579144068 0
  outer loop
    vertex 1.8820000000000001 3.0100000000000002 7.2
    vertex 2.263 3.338 8
    vertex 2.263 3.338 7.2
  endloop
endfacet
facet normal 0 0 1
  outer loop
    vertex 1.8820000000000001 3.0100000000000002 8
    vertex 4 0 8
    vertex 2.263 3.338 8
  endloop
endfacet
facet normal -0.6501341916579602 -0.7598194080419709 0
  outer loop
    vertex 1.8820000000000001 8.19 0
    vertex 2.263 7.864 0
    vertex 1.8820000000000001 8.19 0.8
  endloop
endfacet
facet normal 0 0 -1
  outer loop
    vertex 1.8820000000000001 8.19 0
    vertex 4 12.8 0
    vertex 2.263 7.864 0
  endloop
endfacet
facet normal -0.6501341916579589 -0.7598194080419718 0
  outer loop
    vertex 1.8820000000000001 8.19 0.8
    vertex 2.263 7.864 0
    vertex 2.263 7.864 0.8
  endloop
endfacet
facet normal 0 0 1
  outer loop
    vertex 1.8820000000000001 8.19 0.8
    vertex 2.263 7.864 0.8
    vertex 4 12.8 0.8
  endloop
endfacet
facet normal -0.6501341916579602 -0.7598194080419709 0
  outer loop
    vertex 1.8820000000000001 8.19 7.2
    vertex 2.263 7.864 7.2
    vertex 1.8820000000000001 8.19 8
  endloop
endfacet
facet normal 0 0 -1
  outer loop
    vertex 1.8820000000000001 8.19 7.2
    vertex 4 12.8 7.2
    vertex 2.263 7.864 7.2
  endloop
endfacet
facet normal -0.6501341916579589 -0.7598194080419718 0
  outer loop
    vertex 1.8820000000000001 8.19 8
    vertex 2.263 7.864 7.2
    vertex 2.263 7.864 8
  endloop
endfacet
facet normal 0 0 1
  outer loop
    vertex 1.8820000000000001 8.19 8
    vertex 2.263 7.864 8
    vertex 4 12.8 8
  endloop
endfacet
facet normal -0.8198769496469654 0.572539769306541 0
  outer loop
    vertex 1.917 3.992 0.8
    vertex 1.917 3.992 7.2
    vertex 2.1670000000000003 4.3500000000000005 7.2
  endloop
endfacet
facet normal 0 0 -1
  outer loop
    vertex 1.917 3.992 0.8
    vertex 2.1670000000000003 4.3500000000000005 0.8
    vertex 4 0 0.8
  endloop
endfacet
facet normal -0.8198769496469667 0.5725397693065393 0
  outer loop
    vertex 1.917 3.992 0.8
    vertex 2.1670000000000003 4.3500000000000005 7.2
    vertex 2.1670000000000003 4.3500000000000005 0.8
  endloop
endfacet
facet normal 0 0 1
  outer loop
    vertex 1.917 3.992 7.2
    vertex 4 0 7.2
    vertex 2.1670000000000003 4.3500000000000005 7.2
  endloop
endfacet
facet normal -0.8191241123743565 -0.5736163251921292 0
  outer loop
    vertex 1.917 7.207 0.8
    vertex 2.1670000000000003 6.8500000000000005 0.8
    vertex 1.917 7.207 7.2
  endloop
endfacet
facet normal 0 0 -1
  outer loop
    vertex 1.917 7.207 0.8
    vertex 4 12.8 0.8
    vertex 2.1670000000000003 6.8500000000000005 0.8
  endloop
endfacet
facet normal -0.8191241123743578 -0.5736163251921275 0
  outer loop
    vertex 1.917 7.207 7.2
    vertex 2.1670000000000003 6.8500000000000005 0.8
    vertex 2.1670000000000003 6.8500000000000005 7.2
  endloop
endfacet
facet normal -6.634754552284659e-15 0 1
  outer loop
    vertex 1.917 7.207 7.2
    vertex 2.1670000000000003 6.8500000000000005 7.2
    vertex 4 12.8 7.2
  endloop
endfacet
facet normal -0.90748329254325 0.42008817378600677 0
  outer loop
    vertex 2.1670000000000003 4.3500000000000005 0.8
    vertex 2.1670000000000003 4.3500000000000005 7.2
    vertex 2.348 4.741 7.2
  endloop
endfacet
facet normal 0 0 -1
  outer loop
    vertex 2.1670000000000003 4.3500000000000005 0.8
    vertex 2.348 4.741 0.8
    vertex 4 0 0.8
  endloop
endfacet
facet normal -0.9074832925432503 0.4200881737860057 0
  outer loop
    vertex 2.1670000000000003 4.3500000000000005 0.8
    vertex 2.348 4.741 7.2
    vertex 2.348 4.741 0.8
  endloop
endfacet
facet normal 0 0 1
  outer loop
    vertex 2.1670000000000003 4.3500000000000005 7.2
    vertex 4 0 7.2
    vertex 2.348 4.741 7.2
  endloop
endfacet
facet normal -0.9074832925432502 -0.42008817378600594 0
  outer loop
    vertex 2.1670000000000003 6.8500000000000005 0.8
    vertex 2.348 6.4590000000000005 0.8
    vertex 2.1670000000000003 6.8500000000000005 7.2
  endloop
endfacet
facet normal 0 0 -1
  outer loop
    vertex 2.1670000000000003 6.8500000000000005 0.8
    vertex 4 12.8 0.8
    vertex 2.348 6.4590000000000005 0.8
  endloop
endfacet
facet normal -0.9074832925432509 -0.4200881737860049 0
  outer loop
    vertex 2.1670000000000003 6.8500000000000005 7.2
    vertex 2.348 6.4590000000000005 0.8
    vertex 2.348 6.4590000000000005 7.2
  endloop
endfacet
facet normal 0 0 1
  outer loop
    vertex 2.1670000000000003 6.8500000000000005 7.2
    vertex 2.348 6.4590000000000005 7.2
    vertex 4 12.8 7.2
  endloop
endfacet
facet normal -0.7570021514409163 0.6534123833490025 0
  outer loop
    vertex 2.263 3.338 0
    vertex 2.263 3.338 0.8
    vertex 2.591 3.718 0.8
  endloop
endfacet
facet normal 0 0 -1
  outer loop
    vertex 2.263 3.338 0
    vertex 2.591 3.718 0
    vertex 4 0 0
  endloop
endfacet
facet normal -0.7570021514409163 0.6534123833490025 0
  outer loop
    vertex 2.263 3.338 0
    vertex 2.591 3.718 0.8
    vertex 2.591 3.718 0
  endloop
endfacet
facet normal 0 0 1
  outer loop
    vertex 2.263 3.338 0.8
    vertex 4 0 0.8
    vertex 2.591 3.718 0.8
  endloop
endfacet
facet normal -0.7570021514409172 0.6534123833490016 0
  outer loop
    vertex 2.263 3.338 7.2
    vertex 2.263 3.338 8
    vertex 2.591 3.718 8
  endloop
endfacet
facet normal 0 0 -1
  outer loop
    vertex 2.263 3.338 7.2
    vertex 2.591 3.718 7.2
    vertex 4 0 7.2
  endloop
endfacet
facet normal -0.7570021514409163 0.6534123833490026 0
  outer loop
    vertex 2.263 3.338 7.2
    vertex 2.591 3.718 8
    vertex 2.591 3.718 7.2
  endloop
endfacet
facet normal 0 0 1
  outer loop
    vertex 2.263 3.338 8
    vertex 4 0 8
    vertex 2.591 3.718 8
  endloop
endfacet
facet normal -0.7595365025576581 -0.6504646810415464 0
  outer loop
    vertex 2.263 7.864 0
    vertex 2.591 7.481 0
    vertex 2.263 7.864 0.8
  endloop
endfacet
facet normal 0 0 -1
  outer loop
    vertex 2.263 7.864 0
    vertex 4 12.8 0
    vertex 2.591 7.481 0
  endloop
endfacet
facet normal -0.7595365025576581 -0.6504646810415464 0
  outer loop
    vertex 2.263 7.864 0.8
    vertex 2.591 7.481 0
    vertex 2.591 7.481 0.8
  endloop
endfacet
facet normal -7.776444293364543e-16 0 1
  outer loop
    vertex 2.263 7.864 0.8
    vertex 2.591 7.481 0.8
    vertex 4 12.8 0.8
  endloop
endfacet
facet normal -0.7595365025576587 -0.6504646810415458 0
  outer loop
    vertex 2.263 7.864 7.2
    vertex 2.591 7.481 7.2
    vertex 2.263 7.864 8
  endloop
endfacet
facet normal 0 0 -1
  outer loop
    vertex 2.263 7.864 7.2
    vertex 4 12.8 7.2
    vertex 2.591 7.481 7.2
  endloop
endfacet
facet normal -0.7595365025576587 -0.6504646810415458 0
  outer loop
    vertex 2.263 7.864 8
    vertex 2.591 7.481 7.2
    vertex 2.591 7.481 8
  endloop
endfacet
facet normal 0 0 1
  outer loop
    vertex 2.263 7.864 8
    vertex 2.591 7.481 8
    vertex 4 12.8 8
  endloop
endfacet
facet normal -0.9678113617359032 0.2516767134537812 0
  outer loop
    vertex 2.348 4.741 0.8
    vertex 2.348 4.741 7.2
    vertex 2.458 5.164 7.2
  endloop
endfacet
facet normal 0 0 -1
  outer loop
    vertex 2.348 4.741 0.8
    vertex 2.458 5.164 0.8
    vertex 4 0 0.8
  endloop
endfacet
facet normal -0.9678113617359032 0.2516767134537812 0
  outer loop
    vertex 2.348 4.741 0.8
    vertex 2.458 5.164 7.2
    vertex 2.458 5.164 0.8
  endloop
endfacet
facet normal 0 0 1
  outer loop
    vertex 2.348 4.741 7.2
    vertex 4 0 7.2
    vertex 2.458 5.164 7.2
  endloop
endfacet
facet normal -0.9678113617359032 -0.2516767134537812 0
  outer loop
    vertex 2.348 6.4590000000000005 0.8
    vertex 2.458 6.0360000000000005 0.8
    vertex 2.348 6.4590000000000005 7.2
  endloop
endfacet
facet normal 0 0 -1
  outer loop
    vertex 2.348 6.4590000000000005 0.8
    vertex 4 12.8 0.8
    vertex 2.458 6.0360000000000005 0.8
  endloop
endfacet
facet normal -0.9678113617359032 -0.2516767134537812 0
  outer loop
    vertex 2.348 6.4590000000000005 7.2
    vertex 2.458 6.0360000000000005 0.8
    vertex 2.458 6.0360000000000005 7.2
  endloop
endfacet
facet normal 0 0 1
  outer loop
    vertex 2.348 6.4590000000000005 7.2
    vertex 2.458 6.0360000000000005 7.2
    vertex 4 12.8 7.2
  endloop
endfacet
facet normal -0.9953922824157512 0.09588641252628735 0
  outer loop
    vertex 2.458 5.164 0.8
    vertex 2.458 5.164 7.2
    vertex 2.5 5.6000000000000005 7.2
  endloop
endfacet
facet normal 0 0 -1
  outer loop
    vertex 2.458 5.164 0.8
    vertex 2.5 5.6000000000000005 0.8
    vertex 4 0 0.8
  endloop
endfacet
facet normal -0.9953922824157512 0.09588641252628735 0
  outer loop
    vertex 2.458 5.164 0.8
    vertex 2.5 5.6000000000000005 7.2
    vertex 2.5 5.6000000000000005 0.8
  endloop
endfacet
facet normal 0 0 1
  outer loop
    vertex 2.458 5.164 7.2
    vertex 4 0 7.2
    vertex 2.5 5.6000000000000005 7.2
  endloop
endfacet
facet normal -0.9953922824157512 -0.09588641252628755 0
  outer loop
    vertex 2.458 6.0360000000000005 0.8
    vertex 2.5 5.6000000000000005 0.8
    vertex 2.458 6.0360000000000005 7.2
  endloop
endfacet
facet normal 0 0 -0.9999999999999999
  outer loop
    vertex 2.458 6.0360000000000005 0.8
    vertex 4 12.8 0.8
    vertex 2.5 5.6000000000000005 0.8
  endloop
endfacet
facet normal -0.9953922824157512 -0.09588641252628753 0
  outer loop
    vertex 2.458 6.0360000000000005 7.2
    vertex 2.5 5.6000000000000005 0.8
    vertex 2.5 5.6000000000000005 7.2
  endloop
endfacet
facet normal 0 0 0.9999999999999999
  outer loop
    vertex 2.458 6.0360000000000005 7.2
    vertex 2.5 5.6000000000000005 7.2
    vertex 4 12.8 7.2
  endloop
endfacet
facet normal 0 0 -1
  outer loop
    vertex 2.5 5.6000000000000005 0.8
    vertex 4 12.8 0.8
    vertex 4 0 0.8
  endloop
endfacet
facet normal 0 0 1
  outer loop
    vertex 2.5 5.6000000000000005 7.2
    vertex 4 0 7.2
    vertex 4 12.8 7.2
  endloop
endfacet
facet normal -0.8493334163370694 0.5278567494057479 0
  outer loop
    vertex 2.591 3.718 0
    vertex 2.591 3.718 0.8
    vertex 2.857 4.146 0.8
  endloop
endfacet
facet normal 0 0 -0.9999999999999999
  outer loop
    vertex 2.591 3.718 0
    vertex 2.857 4.146 0
    vertex 4 0 0
  endloop
endfacet
facet normal -0.8493334163370694 0.5278567494057479 0
  outer loop
    vertex 2.591 3.718 0
    vertex 2.857 4.146 0.8
    vertex 2.857 4.146 0
  endloop
endfacet
facet normal 0 0 0.9999999999999999
  outer loop
    vertex 2.591 3.718 0.8
    vertex 4 0 0.8
    vertex 2.857 4.146 0.8
  endloop
endfacet
facet normal -0.8493334163370686 0.5278567494057489 0
  outer loop
    vertex 2.591 3.718 7.2
    vertex 2.591 3.718 8
    vertex 2.857 4.146 8
  endloop
endfacet
facet normal 0 0 -0.9999999999999999
  outer loop
    vertex 2.591 3.718 7.2
    vertex 2.857 4.146 7.2
    vertex 4 0 7.2
  endloop
endfacet
facet normal -0.8493334163370692 0.5278567494057483 0
  outer loop
    vertex 2.591 3.718 7.2
    vertex 2.857 4.146 8
    vertex 2.857 4.146 7.2
  endloop
endfacet
facet normal 0 0 0.9999999999999999
  outer loop
    vertex 2.591 3.718 8
    vertex 4 0 8
    vertex 2.857 4.146 8
  endloop
endfacet
facet normal -0.8487790901364478 -0.5287476299210655 0
  outer loop
    vertex 2.591 7.481 0
    vertex 2.857 7.054 0
    vertex 2.591 7.481 0.8
  endloop
endfacet
facet normal 0 0 -1
  outer loop
    vertex 2.591 7.481 0
    vertex 4 12.8 0
    vertex 2.857 7.054 0
  endloop
endfacet
facet normal -0.8487790901364478 -0.5287476299210655 0
  outer loop
    vertex 2.591 7.481 0.8
    vertex 2.857 7.054 0
    vertex 2.857 7.054 0.8
  endloop
endfacet
facet normal 0 0 1
  outer loop
    vertex 2.591 7.481 0.8
    vertex 2.857 7.054 0.8
    vertex 4 12.8 0.8
  endloop
endfacet
facet normal -0.8487790901364467 -0.528747629921067 0
  outer loop
    vertex 2.591 7.481 7.2
    vertex 2.857 7.054 7.2
    vertex 2.591 7.481 8
  endloop
endfacet
facet normal 0 0 -1
  outer loop
    vertex 2.591 7.481 7.2
    vertex 4 12.8 7.2
    vertex 2.857 7.054 7.2
  endloop
endfacet
facet normal -0.8487790901364478 -0.5287476299210655 0
  outer loop
    vertex 2.591 7.481 8
    vertex 2.857 7.054 7.2
    vertex 2.857 7.054 8
  endloop
endfacet
facet normal 0 0 1
  outer loop
    vertex 2.591 7.481 8
    vertex 2.857 7.054 8
    vertex 4 12.8 8
  endloop
endfacet
facet normal -0.9273626786393433 0.3741636837894107 0
  outer loop
    vertex 2.857 4.146 0
    vertex 2.857 4.146 0.8
    vertex 3.043 4.607 0.8
  endloop
endfacet
facet normal 0 0 -1
  outer loop
    vertex 2.857 4.146 0
    vertex 3.043 4.607 0
    vertex 4 0 0
  endloop
endfacet
facet normal -0.9273626786393442 0.37416368378940873 0
  outer loop
    vertex 2.857 4.146 0
    vertex 3.043 4.607 0.8
    vertex 3.043 4.607 0
  endloop
endfacet
facet normal 0 0 1
  outer loop
    vertex 2.857 4.146 0.8
    vertex 4 0 0.8
    vertex 3.043 4.607 0.8
  endloop
endfacet
facet normal -0.9273626786393442 0.37416368378940873 0
  outer loop
    vertex 2.857 4.146 7.2
    vertex 2.857 4.146 8
    vertex 3.043 4.607 8
  endloop
endfacet
facet normal 0 0 -1
  outer loop
    vertex 2.857 4.146 7.2
    vertex 3.043 4.607 7.2
    vertex 4 0 7.2
  endloop
endfacet
facet normal -0.9273626786393433 0.3741636837894107 0
  outer loop
    vertex 2.857 4.146 7.2
    vertex 3.043 4.607 8
    vertex 3.043 4.607 7.2
  endloop
endfacet
facet normal 0 0 1
  outer loop
    vertex 2.857 4.146 8
    vertex 4 0 8
    vertex 3.043 4.607 8
  endloop
endfacet
facet normal -0.9273626786393433 -0.3741636837894107 0
  outer loop
    vertex 2.857 7.054 0
    vertex 3.043 6.593 0
    vertex 2.857 7.054 0.8
  endloop
endfacet
facet normal 0 0 -0.9999999999999999
  outer loop
    vertex 2.857 7.054 0
    vertex 4 12.8 0
    vertex 3.043 6.593 0
  endloop
endfacet
facet normal -0.9273626786393442 -0.37416368378940873 0
  outer loop
    vertex 2.857 7.054 0.8
    vertex 3.043 6.593 0
    vertex 3.043 6.593 0.8
  endloop
endfacet
facet normal 0 0 0.9999999999999999
  outer loop
    vertex 2.857 7.054 0.8
    vertex 3.043 6.593 0.8
    vertex 4 12.8 0.8
  endloop
endfacet
facet normal -0.9273626786393442 -0.37416368378940873 0
  outer loop
    vertex 2.857 7.054 7.2
    vertex 3.043 6.593 7.2
    vertex 2.857 7.054 8
  endloop
endfacet
facet normal 0 0 -0.9999999999999999
  outer loop
    vertex 2.857 7.054 7.2
    vertex 4 12.8 7.2
    vertex 3.043 6.593 7.2
  endloop
endfacet
facet normal -0.9273626786393433 -0.3741636837894107 0
  outer loop
    vertex 2.857 7.054 8
    vertex 3.043 6.593 7.2
    vertex 3.043 6.593 8
  endloop
endfacet
facet normal 0 0 0.9999999999999999
  outer loop
    vertex 2.857 7.054 8
    vertex 3.043 6.593 8
    vertex 4 12.8 8
  endloop
endfacet
facet normal -0.9747233493339279 0.22341529102380028 0
  outer loop
    vertex 3.043 4.607 0
    vertex 3.043 4.607 0.8
    vertex 3.156 5.1000000000000005 0.8
  endloop
endfacet
facet normal 0 0 -1
  outer loop
    vertex 3.043 4.607 0
    vertex 3.156 5.1000000000000005 0
    vertex 4 0 0
  endloop
endfacet
facet normal -0.9747233493339273 0.22341529102380236 0
  outer loop
    vertex 3.043 4.607 0
    vertex 3.156 5.1000000000000005 0.8
    vertex 3.156 5.1000000000000005 0
  endloop
endfacet
facet normal 0 0 1
  outer loop
    vertex 3.043 4.607 0.8
    vertex 4 0 0.8
    vertex 3.156 5.1000000000000005 0.8
  endloop
endfacet
facet normal -0.974723349333928 0.22341529102379992 0
  outer loop
    vertex 3.043 4.607 7.2
    vertex 3.043 4.607 8
    vertex 3.156 5.1000000000000005 8
  endloop
endfacet
facet normal 0 0 -1
  outer loop
    vertex 3.043 4.607 7.2
    vertex 3.156 5.1000000000000005 7.2
    vertex 4 0 7.2
  endloop
endfacet
facet normal -0.974723349333928 0.22341529102380092 0
  outer loop
    vertex 3.043 4.607 7.2
    vertex 3.156 5.1000000000000005 8
    vertex 3.156 5.1000000000000005 7.2
  endloop
endfacet
facet normal 0 0 1
  outer loop
    vertex 3.043 4.607 8
    vertex 4 0 8
    vertex 3.156 5.1000000000000005 8
  endloop
endfacet
facet normal -0.9747233493339279 -0.2234152910238007 0
  outer loop
    vertex 3.043 6.593 0
    vertex 3.156 6.1000000000000005 0
    vertex 3.043 6.593 0.8
  endloop
endfacet
facet normal 0 0 -1
  outer loop
    vertex 3.043 6.593 0
    vertex 4 12.8 0
    vertex 3.156 6.1000000000000005 0
  endloop
endfacet
facet normal -0.9747233493339273 -0.22341529102380275 0
  outer loop
    vertex 3.043 6.593 0.8
    vertex 3.156 6.1000000000000005 0
    vertex 3.156 6.1000000000000005 0.8
  endloop
endfacet
facet normal 0 0 1
  outer loop
    vertex 3.043 6.593 0.8
    vertex 3.156 6.1000000000000005 0.8
    vertex 4 12.8 0.8
  endloop
endfacet
facet normal -0.974723349333928 -0.22341529102380092 0
  outer loop
    vertex 3.043 6.593 7.2
    vertex 3.156 6.1000000000000005 7.2
    vertex 3.043 6.593 8
  endloop
endfacet
facet normal 0 0 -1
  outer loop
    vertex 3.043 6.593 7.2
    vertex 4 12.8 7.2
    vertex 3.156 6.1000000000000005 7.2
  endloop
endfacet
facet normal -0.9747233493339281 -0.22341529102380045 0
  outer loop
    vertex 3.043 6.593 8
    vertex 3.156 6.1000000000000005 7.2
    vertex 3.156 6.1000000000000005 8
  endloop
endfacet
facet normal 0 0 1
  outer loop
    vertex 3.043 6.593 8
    vertex 3.156 6.1000000000000005 8
    vertex 4 12.8 8
  endloop
endfacet
facet normal -0.9961503444262931 0.08766123030951299 0
  outer loop
    vertex 3.156 5.1000000000000005 0
    vertex 3.156 5.1000000000000005 0.8
    vertex 3.2 5.6000000000000005 0.8
  endloop
endfacet
facet normal 0 0 -1
  outer loop
    vertex 3.156 5.1000000000000005 0
    vertex 3.2 5.6000000000000005 0
    vertex 4 0 0
  endloop
endfacet
facet normal -0.9961503444262929 0.08766123030951518 0
  outer loop
    vertex 3.156 5.1000000000000005 0
    vertex 3.2 5.6000000000000005 0.8
    vertex 3.2 5.6000000000000005 0
  endloop
endfacet
facet normal 2.748076793626622e-15 0 1
  outer loop
    vertex 3.156 5.1000000000000005 0.8
    vertex 4 0 0.8
    vertex 3.2 5.6000000000000005 0.8
  endloop
endfacet
facet normal -0.9961503444262932 0.08766123030951292 0
  outer loop
    vertex 3.156 5.1000000000000005 7.2
    vertex 3.156 5.1000000000000005 8
    vertex 3.2 5.6000000000000005 8
  endloop
endfacet
facet normal 0 0 -1
  outer loop
    vertex 3.156 5.1000000000000005 7.2
    vertex 3.2 5.6000000000000005 7.2
    vertex 4 0 7.2
  endloop
endfacet
facet normal -0.996150344426293 0.08766123030951531 0
  outer loop
    vertex 3.156 5.1000000000000005 7.2
    vertex 3.2 5.6000000000000005 8
    vertex 3.2 5.6000000000000005 7.2
  endloop
endfacet
facet normal 0 0 1
  outer loop
    vertex 3.156 5.1000000000000005 8
    vertex 4 0 8
    vertex 3.2 5.6000000000000005 8
  endloop
endfacet
facet normal -0.9961503444262931 -0.08766123030951299 0
  outer loop
    vertex 3.156 6.1000000000000005 0
    vertex 3.2 5.6000000000000005 0
    vertex 3.156 6.1000000000000005 0.8
  endloop
endfacet
facet normal 0 0 -0.9999999999999999
  outer loop
    vertex 3.156 6.1000000000000005 0
    vertex 4 12.8 0
    vertex 3.2 5.6000000000000005 0
  endloop
endfacet
facet normal -0.9961503444262929 -0.08766123030951518 0
  outer loop
    vertex 3.156 6.1000000000000005 0.8
    vertex 3.2 5.6000000000000005 0
    vertex 3.2 5.6000000000000005 0.8
  endloop
endfacet
facet normal 0 0 0.9999999999999999
  outer loop
    vertex 3.156 6.1000000000000005 0.8
    vertex 3.2 5.6000000000000005 0.8
    vertex 4 12.8 0.8
  endloop
endfacet
facet normal -0.9961503444262931 -0.08766123030951312 0
  outer loop
    vertex 3.156 6.1000000000000005 7.2
    vertex 3.2 5.6000000000000005 7.2
    vertex 3.156 6.1000000000000005 8
  endloop
endfacet
facet normal 0 0 -0.9999999999999999
  outer loop
    vertex 3.156 6.1000000000000005 7.2
    vertex 4 12.8 7.2
    vertex 3.2 5.6000000000000005 7.2
  endloop
endfacet
facet normal -0.9961503444262929 -0.0876612303095151 0
  outer loop
    vertex 3.156 6.1000000000000005 8
    vertex 3.2 5.6000000000000005 7.2
    vertex 3.2 5.6000000000000005 8
  endloop
endfacet
facet normal 0 0 0.9999999999999999
  outer loop
    vertex 3.156 6.1000000000000005 8
    vertex 3.2 5.6000000000000005 8
    vertex 4 12.8 8
  endloop
endfacet
facet normal 0 0 -1
  outer loop
    vertex 3.2 5.6000000000000005 0
    vertex 4 12.8 0
    vertex 4 0 0
  endloop
endfacet
facet normal 0 0 1
  outer loop
    vertex 3.2 5.6000000000000005 0.8
    vertex 4 0 0.8
    vertex 4 12.8 0.8
  endloop
endfacet
facet normal 0 0 -1
  outer loop
    vertex 3.2 5.6000000000000005 7.2
    vertex 4 12.8 7.2
    vertex 4 0 7.2
  endloop
endfacet
facet normal 0 0 1
  outer loop
    vertex 3.2 5.6000000000000005 8
    vertex 4 0 8
    vertex 4 12.8 8
  endloop
endfacet
facet normal 1 0 0
  outer loop
    vertex 4 0 0
    vertex 4 12.8 0
    vertex 4 0 0.8
  endloop
endfacet
facet normal 1 0 0
  outer loop
    vertex 4 0 0.8
    vertex 4 12.8 0
    vertex 4 12.8 0.8
  endloop
endfacet
facet normal 1 0 0
  outer loop
    vertex 4 0 0.8
    vertex 4 12.8 0.8
    vertex 4 0 7.2
  endloop
endfacet
facet normal 1 0 0
  outer loop
    vertex 4 0 7.2
    vertex 4 12.8 0.8
    vertex 4 12.8 7.2
  endloop
endfacet
facet normal 1 0 0
  outer loop
    vertex 4 0 7.2
    vertex 4 12.8 7.2
    vertex 4 0 8
  endloop
endfacet
facet normal 1 0 0
  outer loop
    vertex 4 0 8
    vertex 4 12.8 7.2
    vertex 4 12.8 8
  endloop
endfacet
endsolid JSxCAD
