solid JSxCAD
facet normal -1 0 0
  outer loop
    vertex -4 0 0
    vertex -4 0 0.8
    vertex -4 12.8 0.8
  endloop
endfacet
facet normal 0 0 -1
  outer loop
    vertex -4 0 0
    vertex -4 12.8 0
    vertex -3.2 5.6000000000000005 0
  endloop
endfacet
facet normal -1 0 0
  outer loop
    vertex -4 0 0
    vertex -4 12.8 0.8
    vertex -4 12.8 0
  endloop
endfacet
facet normal 0 0 -1
  outer loop
    vertex -4 0 0
    vertex -3.2 5.6000000000000005 0
    vertex -3.158 5.1000000000000005 0
  endloop
endfacet
facet normal 0 0 -1
  outer loop
    vertex -4 0 0
    vertex -3.158 5.1000000000000005 0
    vertex -3.044 4.61 0
  endloop
endfacet
facet normal 0 0 -0.9999999999999999
  outer loop
    vertex -4 0 0
    vertex -3.044 4.61 0
    vertex -2.854 4.1450000000000005 0
  endloop
endfacet
facet normal 0 0 -1
  outer loop
    vertex -4 0 0
    vertex -2.854 4.1450000000000005 0
    vertex -2.59 3.718 0
  endloop
endfacet
facet normal 0 0 -1
  outer loop
    vertex -4 0 0
    vertex -2.59 3.718 0
    vertex -2.263 3.337 0
  endloop
endfacet
facet normal 0 0 -1
  outer loop
    vertex -4 0 0
    vertex -2.263 3.337 0
    vertex -1.8820000000000001 3.0100000000000002 0
  endloop
endfacet
facet normal 0 0 -1
  outer loop
    vertex -4 0 0
    vertex -1.8820000000000001 3.0100000000000002 0
    vertex -1.455 2.746 0
  endloop
endfacet
facet normal 0 0 -0.9999999999999999
  outer loop
    vertex -4 0 0
    vertex -1.455 2.746 0
    vertex -0.99 2.556 0
  endloop
endfacet
facet normal 0 0 -0.9999999999999999
  outer loop
    vertex -4 0 0
    vertex -0.99 2.556 0
    vertex -0.5 2.442 0
  endloop
endfacet
facet normal 0 0 -1
  outer loop
    vertex -4 0 0
    vertex -0.5 2.442 0
    vertex 0 2.4 0
  endloop
endfacet
facet normal 0 0 -1
  outer loop
    vertex -4 0 0
    vertex 0 2.4 0
    vertex 4 0 0
  endloop
endfacet
facet normal 0 -1 0
  outer loop
    vertex -4 0 0
    vertex 4 0 0
    vertex -4 0 0.8
  endloop
endfacet
facet normal -1 0 0
  outer loop
    vertex -4 0 0.8
    vertex -4 0 7.2
    vertex -4 12.8 7.2
  endloop
endfacet
facet normal -9.25185853854297e-17 0 -1
  outer loop
    vertex -4 0 0.8
    vertex -4 12.8 0.8
    vertex -2.5 5.6000000000000005 0.8
  endloop
endfacet
facet normal -1 0 0
  outer loop
    vertex -4 0 0.8
    vertex -4 12.8 7.2
    vertex -4 12.8 0.8
  endloop
endfacet
facet normal 1.7347234759768073e-16 0 1
  outer loop
    vertex -4 0 0.8
    vertex -3.2 5.6000000000000005 0.8
    vertex -4 12.8 0.8
  endloop
endfacet
facet normal -1.7478322176088697e-15 0 1
  outer loop
    vertex -4 0 0.8
    vertex -3.158 5.1000000000000005 0.8
    vertex -3.2 5.6000000000000005 0.8
  endloop
endfacet
facet normal 3.3508411375233617e-16 0 1
  outer loop
    vertex -4 0 0.8
    vertex -3.044 4.61 0.8
    vertex -3.158 5.1000000000000005 0.8
  endloop
endfacet
facet normal 0 0 0.9999999999999999
  outer loop
    vertex -4 0 0.8
    vertex -2.854 4.1450000000000005 0.8
    vertex -3.044 4.61 0.8
  endloop
endfacet
facet normal 2.1031970216853945e-16 0 1
  outer loop
    vertex -4 0 0.8
    vertex -2.59 3.718 0.8
    vertex -2.854 4.1450000000000005 0.8
  endloop
endfacet
facet normal 1.2666549054479818e-15 0 -1
  outer loop
    vertex -4 0 0.8
    vertex -2.5 5.6000000000000005 0.8
    vertex -2.46 5.165 0.8
  endloop
endfacet
facet normal -5.422952674908772e-16 0 -1
  outer loop
    vertex -4 0 0.8
    vertex -2.46 5.165 0.8
    vertex -2.348 4.743 0.8
  endloop
endfacet
facet normal -2.2090781331769868e-16 0 -1
  outer loop
    vertex -4 0 0.8
    vertex -2.348 4.743 0.8
    vertex -2.1670000000000003 4.3500000000000005 0.8
  endloop
endfacet
facet normal -1.2666577957110645e-16 0 1
  outer loop
    vertex -4 0 0.8
    vertex -2.263 3.337 0.8
    vertex -2.59 3.718 0.8
  endloop
endfacet
facet normal 0 0 -1
  outer loop
    vertex -4 0 0.8
    vertex -2.1670000000000003 4.3500000000000005 0.8
    vertex -1.917 3.993 0.8
  endloop
endfacet
facet normal 3.8312820722798903e-16 0 -1
  outer loop
    vertex -4 0 0.8
    vertex -1.917 3.993 0.8
    vertex -1.607 3.6830000000000003 0.8
  endloop
endfacet
facet normal 6.035802103653358e-17 0 1
  outer loop
    vertex -4 0 0.8
    vertex -1.8820000000000001 3.0100000000000002 0.8
    vertex -2.263 3.337 0.8
  endloop
endfacet
facet normal -1.740997414053808e-16 0 -1
  outer loop
    vertex -4 0 0.8
    vertex -1.607 3.6830000000000003 0.8
    vertex -1.25 3.4330000000000003 0.8
  endloop
endfacet
facet normal 9.02903205957061e-17 0 1
  outer loop
    vertex -4 0 0.8
    vertex -1.455 2.746 0.8
    vertex -1.8820000000000001 3.0100000000000002 0.8
  endloop
endfacet
facet normal 0 0 -1
  outer loop
    vertex -4 0 0.8
    vertex -1.25 3.4330000000000003 0.8
    vertex -0.857 3.2520000000000002 0.8
  endloop
endfacet
facet normal 1.8919526220010155e-16 0 0.9999999999999999
  outer loop
    vertex -4 0 0.8
    vertex -0.99 2.556 0.8
    vertex -1.455 2.746 0.8
  endloop
endfacet
facet normal 2.092500887304136e-16 0 -1
  outer loop
    vertex -4 0 0.8
    vertex -0.857 3.2520000000000002 0.8
    vertex -0.435 3.14 0.8
  endloop
endfacet
facet normal -2.261387602020432e-16 0 0.9999999999999999
  outer loop
    vertex -4 0 0.8
    vertex -0.5 2.442 0.8
    vertex -0.99 2.556 0.8
  endloop
endfacet
facet normal 0 0 -1
  outer loop
    vertex -4 0 0.8
    vertex -0.435 3.14 0.8
    vertex 0 3.1 0.8
  endloop
endfacet
facet normal 1.3187956250116065e-16 0 1
  outer loop
    vertex -4 0 0.8
    vertex 0 2.4 0.8
    vertex -0.5 2.442 0.8
  endloop
endfacet
facet normal 0 0 -1
  outer loop
    vertex -4 0 0.8
    vertex 0 3.1 0.8
    vertex 4 0 0.8
  endloop
endfacet
facet normal 0 -1 0
  outer loop
    vertex -4 0 0.8
    vertex 4 0 0
    vertex 4 0 0.8
  endloop
endfacet
facet normal 0 -1 0
  outer loop
    vertex -4 0 0.8
    vertex 4 0 0.8
    vertex -4 0 7.2
  endloop
endfacet
facet normal 0 0 1
  outer loop
    vertex -4 0 0.8
    vertex 4 0 0.8
    vertex 0 2.4 0.8
  endloop
endfacet
facet normal -1 0 0
  outer loop
    vertex -4 0 7.2
    vertex -4 0 8
    vertex -4 12.8 8
  endloop
endfacet
facet normal 0 0 -1
  outer loop
    vertex -4 0 7.2
    vertex -4 12.8 7.2
    vertex -3.2 5.6000000000000005 7.2
  endloop
endfacet
facet normal -1 0 0
  outer loop
    vertex -4 0 7.2
    vertex -4 12.8 8
    vertex -4 12.8 7.2
  endloop
endfacet
facet normal -4.194797322261287e-15 0 -1
  outer loop
    vertex -4 0 7.2
    vertex -3.2 5.6000000000000005 7.2
    vertex -3.158 5.1000000000000005 7.2
  endloop
endfacet
facet normal -8.042018730056068e-15 0 -1
  outer loop
    vertex -4 0 7.2
    vertex -3.158 5.1000000000000005 7.2
    vertex -3.044 4.61 7.2
  endloop
endfacet
facet normal 5.3811058113969594e-15 0 -0.9999999999999999
  outer loop
    vertex -4 0 7.2
    vertex -3.044 4.61 7.2
    vertex -2.854 4.1450000000000005 7.2
  endloop
endfacet
facet normal -5.608525391161052e-16 0 -1
  outer loop
    vertex -4 0 7.2
    vertex -2.854 4.1450000000000005 7.2
    vertex -2.59 3.718 7.2
  endloop
endfacet
facet normal 5.066631182844258e-16 0 -1
  outer loop
    vertex -4 0 7.2
    vertex -2.59 3.718 7.2
    vertex -2.263 3.337 7.2
  endloop
endfacet
facet normal 0 0 1
  outer loop
    vertex -4 0 7.2
    vertex -2.5 5.6000000000000005 7.2
    vertex -4 12.8 7.2
  endloop
endfacet
facet normal 3.0399717730751566e-15 0 1
  outer loop
    vertex -4 0 7.2
    vertex -2.46 5.165 7.2
    vertex -2.5 5.6000000000000005 7.2
  endloop
endfacet
facet normal -3.6153017832725144e-15 0 1
  outer loop
    vertex -4 0 7.2
    vertex -2.348 4.743 7.2
    vertex -2.46 5.165 7.2
  endloop
endfacet
facet normal -2.414320841461343e-15 0 -1
  outer loop
    vertex -4 0 7.2
    vertex -2.263 3.337 7.2
    vertex -1.8820000000000001 3.0100000000000002 7.2
  endloop
endfacet
facet normal 5.301787519624768e-15 0 1
  outer loop
    vertex -4 0 7.2
    vertex -2.1670000000000003 4.3500000000000005 7.2
    vertex -2.348 4.743 7.2
  endloop
endfacet
facet normal -2.0395846092818627e-15 0 1
  outer loop
    vertex -4 0 7.2
    vertex -1.917 3.993 7.2
    vertex -2.1670000000000003 4.3500000000000005 7.2
  endloop
endfacet
facet normal 1.6854193177865137e-15 0 -1
  outer loop
    vertex -4 0 7.2
    vertex -1.8820000000000001 3.0100000000000002 7.2
    vertex -1.455 2.746 7.2
  endloop
endfacet
facet normal 2.3577120444799326e-15 0 1
  outer loop
    vertex -4 0 7.2
    vertex -1.607 3.6830000000000003 7.2
    vertex -1.917 3.993 7.2
  endloop
endfacet
facet normal 1.2613017480006769e-15 0 -0.9999999999999999
  outer loop
    vertex -4 0 7.2
    vertex -1.455 2.746 7.2
    vertex -0.99 2.556 7.2
  endloop
endfacet
facet normal 6.963989656215232e-16 0 1
  outer loop
    vertex -4 0 7.2
    vertex -1.25 3.4330000000000003 7.2
    vertex -1.607 3.6830000000000003 7.2
  endloop
endfacet
facet normal 9.741361977934168e-16 0 -0.9999999999999999
  outer loop
    vertex -4 0 7.2
    vertex -0.99 2.556 7.2
    vertex -0.5 2.442 7.2
  endloop
endfacet
facet normal 0 0 1
  outer loop
    vertex -4 0 7.2
    vertex -0.857 3.2520000000000002 7.2
    vertex -1.25 3.4330000000000003 7.2
  endloop
endfacet
facet normal -4.8693992308120855e-16 0 -1
  outer loop
    vertex -4 0 7.2
    vertex -0.5 2.442 7.2
    vertex 0 2.4 7.2
  endloop
endfacet
facet normal -9.013849976079355e-16 0 1
  outer loop
    vertex -4 0 7.2
    vertex -0.435 3.14 7.2
    vertex -0.857 3.2520000000000002 7.2
  endloop
endfacet
facet normal 0 0 -1
  outer loop
    vertex -4 0 7.2
    vertex 0 2.4 7.2
    vertex 4 0 7.2
  endloop
endfacet
facet normal 0 0 1
  outer loop
    vertex -4 0 7.2
    vertex 0 3.1 7.2
    vertex -0.435 3.14 7.2
  endloop
endfacet
facet normal 0 -1 0
  outer loop
    vertex -4 0 7.2
    vertex 4 0 0.8
    vertex 4 0 7.2
  endloop
endfacet
facet normal 0 -1 0
  outer loop
    vertex -4 0 7.2
    vertex 4 0 7.2
    vertex -4 0 8
  endloop
endfacet
facet normal 0 0 1
  outer loop
    vertex -4 0 7.2
    vertex 4 0 7.2
    vertex 0 3.1 7.2
  endloop
endfacet
facet normal 0 0 1
  outer loop
    vertex -4 0 8
    vertex -3.2 5.6000000000000005 8
    vertex -4 12.8 8
  endloop
endfacet
facet normal 0 0 1
  outer loop
    vertex -4 0 8
    vertex -3.158 5.1000000000000005 8
    vertex -3.2 5.6000000000000005 8
  endloop
endfacet
facet normal 0 0 1
  outer loop
    vertex -4 0 8
    vertex -3.044 4.61 8
    vertex -3.158 5.1000000000000005 8
  endloop
endfacet
facet normal 0 0 0.9999999999999999
  outer loop
    vertex -4 0 8
    vertex -2.854 4.1450000000000005 8
    vertex -3.044 4.61 8
  endloop
endfacet
facet normal 0 0 1
  outer loop
    vertex -4 0 8
    vertex -2.59 3.718 8
    vertex -2.854 4.1450000000000005 8
  endloop
endfacet
facet normal 0 0 1
  outer loop
    vertex -4 0 8
    vertex -2.263 3.337 8
    vertex -2.59 3.718 8
  endloop
endfacet
facet normal 0 0 1
  outer loop
    vertex -4 0 8
    vertex -1.8820000000000001 3.0100000000000002 8
    vertex -2.263 3.337 8
  endloop
endfacet
facet normal 0 0 1
  outer loop
    vertex -4 0 8
    vertex -1.455 2.746 8
    vertex -1.8820000000000001 3.0100000000000002 8
  endloop
endfacet
facet normal 0 0 0.9999999999999999
  outer loop
    vertex -4 0 8
    vertex -0.99 2.556 8
    vertex -1.455 2.746 8
  endloop
endfacet
facet normal 0 0 0.9999999999999999
  outer loop
    vertex -4 0 8
    vertex -0.5 2.442 8
    vertex -0.99 2.556 8
  endloop
endfacet
facet normal 0 0 1
  outer loop
    vertex -4 0 8
    vertex 0 2.4 8
    vertex -0.5 2.442 8
  endloop
endfacet
facet normal 0 -1 0
  outer loop
    vertex -4 0 8
    vertex 4 0 7.2
    vertex 4 0 8
  endloop
endfacet
facet normal 0 0 1
  outer loop
    vertex -4 0 8
    vertex 4 0 8
    vertex 0 2.4 8
  endloop
endfacet
facet normal 0 1 0
  outer loop
    vertex -4 12.8 0
    vertex -4 12.8 0.8
    vertex 4 12.8 0.8
  endloop
endfacet
facet normal 0 0 -0.9999999999999999
  outer loop
    vertex -4 12.8 0
    vertex -3.158 6.1000000000000005 0
    vertex -3.2 5.6000000000000005 0
  endloop
endfacet
facet normal 0 0 -1
  outer loop
    vertex -4 12.8 0
    vertex -3.044 6.59 0
    vertex -3.158 6.1000000000000005 0
  endloop
endfacet
facet normal 0 0 -1
  outer loop
    vertex -4 12.8 0
    vertex -2.854 7.055 0
    vertex -3.044 6.59 0
  endloop
endfacet
facet normal 0 0 -1
  outer loop
    vertex -4 12.8 0
    vertex -2.59 7.482 0
    vertex -2.854 7.055 0
  endloop
endfacet
facet normal 0 0 -1
  outer loop
    vertex -4 12.8 0
    vertex -2.263 7.863 0
    vertex -2.59 7.482 0
  endloop
endfacet
facet normal 0 0 -1
  outer loop
    vertex -4 12.8 0
    vertex -1.8820000000000001 8.19 0
    vertex -2.263 7.863 0
  endloop
endfacet
facet normal 0 0 -0.9999999999999999
  outer loop
    vertex -4 12.8 0
    vertex -1.455 8.454 0
    vertex -1.8820000000000001 8.19 0
  endloop
endfacet
facet normal 0 0 -1
  outer loop
    vertex -4 12.8 0
    vertex -0.99 8.644 0
    vertex -1.455 8.454 0
  endloop
endfacet
facet normal 0 0 -1
  outer loop
    vertex -4 12.8 0
    vertex -0.5 8.758000000000001 0
    vertex -0.99 8.644 0
  endloop
endfacet
facet normal 0 0 -1
  outer loop
    vertex -4 12.8 0
    vertex 0 8.8 0
    vertex -0.5 8.758000000000001 0
  endloop
endfacet
facet normal 0 0 -1
  outer loop
    vertex -4 12.8 0
    vertex 4 12.8 0
    vertex 0 8.8 0
  endloop
endfacet
facet normal 0 1 0
  outer loop
    vertex -4 12.8 0
    vertex 4 12.8 0.8
    vertex 4 12.8 0
  endloop
endfacet
facet normal 0 1 0
  outer loop
    vertex -4 12.8 0.8
    vertex -4 12.8 7.2
    vertex 4 12.8 7.2
  endloop
endfacet
facet normal 9.483681873221698e-16 0 0.9999999999999999
  outer loop
    vertex -4 12.8 0.8
    vertex -3.2 5.6000000000000005 0.8
    vertex -3.158 6.1000000000000005 0.8
  endloop
endfacet
facet normal 0 0 1
  outer loop
    vertex -4 12.8 0.8
    vertex -3.158 6.1000000000000005 0.8
    vertex -3.044 6.59 0.8
  endloop
endfacet
facet normal 0 0 1
  outer loop
    vertex -4 12.8 0.8
    vertex -3.044 6.59 0.8
    vertex -2.854 7.055 0.8
  endloop
endfacet
facet normal 1.6603352674474485e-16 0 1
  outer loop
    vertex -4 12.8 0.8
    vertex -2.854 7.055 0.8
    vertex -2.59 7.482 0.8
  endloop
endfacet
facet normal 0 0 1
  outer loop
    vertex -4 12.8 0.8
    vertex -2.59 7.482 0.8
    vertex -2.263 7.863 0.8
  endloop
endfacet
facet normal -3.541381258772434e-16 0 -1
  outer loop
    vertex -4 12.8 0.8
    vertex -2.46 6.035 0.8
    vertex -2.5 5.6000000000000005 0.8
  endloop
endfacet
facet normal -4.732542945061612e-16 0 -1
  outer loop
    vertex -4 12.8 0.8
    vertex -2.348 6.457 0.8
    vertex -2.46 6.035 0.8
  endloop
endfacet
facet normal -9.066760620475954e-17 0 1
  outer loop
    vertex -4 12.8 0.8
    vertex -2.263 7.863 0.8
    vertex -1.8820000000000001 8.19 0.8
  endloop
endfacet
facet normal 6.177106148798047e-16 0 -1
  outer loop
    vertex -4 12.8 0.8
    vertex -2.1670000000000003 6.8500000000000005 0.8
    vertex -2.348 6.457 0.8
  endloop
endfacet
facet normal -1.5550205981917162e-16 0 -1
  outer loop
    vertex -4 12.8 0.8
    vertex -1.917 7.207 0.8
    vertex -2.1670000000000003 6.8500000000000005 0.8
  endloop
endfacet
facet normal -1.5373266201148926e-16 0 0.9999999999999999
  outer loop
    vertex -4 12.8 0.8
    vertex -1.8820000000000001 8.19 0.8
    vertex -1.455 8.454 0.8
  endloop
endfacet
facet normal 1.6329828145489323e-16 0 -1
  outer loop
    vertex -4 12.8 0.8
    vertex -1.607 7.517 0.8
    vertex -1.917 7.207 0.8
  endloop
endfacet
facet normal 6.649528584984006e-17 0 1
  outer loop
    vertex -4 12.8 0.8
    vertex -1.455 8.454 0.8
    vertex -0.99 8.644 0.8
  endloop
endfacet
facet normal -1.3406973985130785e-16 0 -1
  outer loop
    vertex -4 12.8 0.8
    vertex -1.25 7.767 0.8
    vertex -1.607 7.517 0.8
  endloop
endfacet
facet normal 0 0 1
  outer loop
    vertex -4 12.8 0.8
    vertex -0.99 8.644 0.8
    vertex -0.5 8.758000000000001 0.8
  endloop
endfacet
facet normal 0 0 -1
  outer loop
    vertex -4 12.8 0.8
    vertex -0.857 7.948 0.8
    vertex -1.25 7.767 0.8
  endloop
endfacet
facet normal 0 0 1
  outer loop
    vertex -4 12.8 0.8
    vertex -0.5 8.758000000000001 0.8
    vertex 0 8.8 0.8
  endloop
endfacet
facet normal -2.1977193181122843e-16 0 -1
  outer loop
    vertex -4 12.8 0.8
    vertex -0.435 8.06 0.8
    vertex -0.857 7.948 0.8
  endloop
endfacet
facet normal 1.6367542889688195e-16 0 -1
  outer loop
    vertex -4 12.8 0.8
    vertex 0 8.1 0.8
    vertex -0.435 8.06 0.8
  endloop
endfacet
facet normal 0 0 1
  outer loop
    vertex -4 12.8 0.8
    vertex 0 8.8 0.8
    vertex 4 12.8 0.8
  endloop
endfacet
facet normal 0 0 -1
  outer loop
    vertex -4 12.8 0.8
    vertex 4 12.8 0.8
    vertex 0 8.1 0.8
  endloop
endfacet
facet normal 0 1 0
  outer loop
    vertex -4 12.8 0.8
    vertex 4 12.8 7.2
    vertex 4 12.8 0.8
  endloop
endfacet
facet normal 0 1 0
  outer loop
    vertex -4 12.8 7.2
    vertex -4 12.8 8
    vertex 4 12.8 8
  endloop
endfacet
facet normal -3.793472749288679e-15 0 -0.9999999999999999
  outer loop
    vertex -4 12.8 7.2
    vertex -3.158 6.1000000000000005 7.2
    vertex -3.2 5.6000000000000005 7.2
  endloop
endfacet
facet normal 6.040078339993035e-15 0 -1
  outer loop
    vertex -4 12.8 7.2
    vertex -3.044 6.59 7.2
    vertex -3.158 6.1000000000000005 7.2
  endloop
endfacet
facet normal 0 0 -1
  outer loop
    vertex -4 12.8 7.2
    vertex -2.854 7.055 7.2
    vertex -3.044 6.59 7.2
  endloop
endfacet
facet normal -4.427560713193196e-16 0 -1
  outer loop
    vertex -4 12.8 7.2
    vertex -2.59 7.482 7.2
    vertex -2.854 7.055 7.2
  endloop
endfacet
facet normal 9.443683356726492e-16 0 1
  outer loop
    vertex -4 12.8 7.2
    vertex -2.5 5.6000000000000005 7.2
    vertex -2.46 6.035 7.2
  endloop
endfacet
facet normal -3.155028630041074e-15 0 1
  outer loop
    vertex -4 12.8 7.2
    vertex -2.46 6.035 7.2
    vertex -2.348 6.457 7.2
  endloop
endfacet
facet normal 1.4825054757115314e-15 0 1
  outer loop
    vertex -4 12.8 7.2
    vertex -2.348 6.457 7.2
    vertex -2.1670000000000003 6.8500000000000005 7.2
  endloop
endfacet
facet normal 0 0 -1
  outer loop
    vertex -4 12.8 7.2
    vertex -2.263 7.863 7.2
    vertex -2.59 7.482 7.2
  endloop
endfacet
facet normal 3.732049435660119e-15 0 1
  outer loop
    vertex -4 12.8 7.2
    vertex -2.1670000000000003 6.8500000000000005 7.2
    vertex -1.917 7.207 7.2
  endloop
endfacet
facet normal -3.7325321475404164e-15 0 1
  outer loop
    vertex -4 12.8 7.2
    vertex -1.917 7.207 7.2
    vertex -1.607 7.517 7.2
  endloop
endfacet
facet normal -3.98937467300942e-15 0 -1
  outer loop
    vertex -4 12.8 7.2
    vertex -1.8820000000000001 8.19 7.2
    vertex -2.263 7.863 7.2
  endloop
endfacet
facet normal 3.3964334095664657e-15 0 1
  outer loop
    vertex -4 12.8 7.2
    vertex -1.607 7.517 7.2
    vertex -1.25 7.767 7.2
  endloop
endfacet
facet normal 5.270834126108203e-16 0 -0.9999999999999999
  outer loop
    vertex -4 12.8 7.2
    vertex -1.455 8.454 7.2
    vertex -1.8820000000000001 8.19 7.2
  endloop
endfacet
facet normal -2.870045977593171e-15 0 1
  outer loop
    vertex -4 12.8 7.2
    vertex -1.25 7.767 7.2
    vertex -0.857 7.948 7.2
  endloop
endfacet
facet normal 1.241245335863681e-15 0 -1
  outer loop
    vertex -4 12.8 7.2
    vertex -0.99 8.644 7.2
    vertex -1.455 8.454 7.2
  endloop
endfacet
facet normal 2.313388755907668e-15 0 1
  outer loop
    vertex -4 12.8 7.2
    vertex -0.857 7.948 7.2
    vertex -0.435 8.06 7.2
  endloop
endfacet
facet normal 0 0 -1
  outer loop
    vertex -4 12.8 7.2
    vertex -0.5 8.758000000000001 7.2
    vertex -0.99 8.644 7.2
  endloop
endfacet
facet normal -3.877848623095357e-15 0 1
  outer loop
    vertex -4 12.8 7.2
    vertex -0.435 8.06 7.2
    vertex 0 8.1 7.2
  endloop
endfacet
facet normal 0 0 1
  outer loop
    vertex -4 12.8 7.2
    vertex 0 8.1 7.2
    vertex 4 12.8 7.2
  endloop
endfacet
facet normal 0 0 -1
  outer loop
    vertex -4 12.8 7.2
    vertex 0 8.8 7.2
    vertex -0.5 8.758000000000001 7.2
  endloop
endfacet
facet normal 0 0 -1
  outer loop
    vertex -4 12.8 7.2
    vertex 4 12.8 7.2
    vertex 0 8.8 7.2
  endloop
endfacet
facet normal 0 1 0
  outer loop
    vertex -4 12.8 7.2
    vertex 4 12.8 8
    vertex 4 12.8 7.2
  endloop
endfacet
facet normal 0 0 0.9999999999999999
  outer loop
    vertex -4 12.8 8
    vertex -3.2 5.6000000000000005 8
    vertex -3.158 6.1000000000000005 8
  endloop
endfacet
facet normal 0 0 1
  outer loop
    vertex -4 12.8 8
    vertex -3.158 6.1000000000000005 8
    vertex -3.044 6.59 8
  endloop
endfacet
facet normal 0 0 1
  outer loop
    vertex -4 12.8 8
    vertex -3.044 6.59 8
    vertex -2.854 7.055 8
  endloop
endfacet
facet normal 0 0 1
  outer loop
    vertex -4 12.8 8
    vertex -2.854 7.055 8
    vertex -2.59 7.482 8
  endloop
endfacet
facet normal 0 0 1
  outer loop
    vertex -4 12.8 8
    vertex -2.59 7.482 8
    vertex -2.263 7.863 8
  endloop
endfacet
facet normal 0 0 1
  outer loop
    vertex -4 12.8 8
    vertex -2.263 7.863 8
    vertex -1.8820000000000001 8.19 8
  endloop
endfacet
facet normal 0 0 0.9999999999999999
  outer loop
    vertex -4 12.8 8
    vertex -1.8820000000000001 8.19 8
    vertex -1.455 8.454 8
  endloop
endfacet
facet normal 0 0 1
  outer loop
    vertex -4 12.8 8
    vertex -1.455 8.454 8
    vertex -0.99 8.644 8
  endloop
endfacet
facet normal 0 0 1
  outer loop
    vertex -4 12.8 8
    vertex -0.99 8.644 8
    vertex -0.5 8.758000000000001 8
  endloop
endfacet
facet normal 0 0 1
  outer loop
    vertex -4 12.8 8
    vertex -0.5 8.758000000000001 8
    vertex 0 8.8 8
  endloop
endfacet
facet normal 0 0 1
  outer loop
    vertex -4 12.8 8
    vertex 0 8.8 8
    vertex 4 12.8 8
  endloop
endfacet
facet normal 0.9964905610688742 0.08370520712978506 0
  outer loop
    vertex -3.2 5.6000000000000005 0
    vertex -3.2 5.6000000000000005 0.8
    vertex -3.158 5.1000000000000005 0.8
  endloop
endfacet
facet normal 0.9964905610688741 0.08370520712978727 0
  outer loop
    vertex -3.2 5.6000000000000005 0
    vertex -3.158 5.1000000000000005 0.8
    vertex -3.158 5.1000000000000005 0
  endloop
endfacet
facet normal 0.9964905610688742 -0.08370520712978506 0
  outer loop
    vertex -3.2 5.6000000000000005 0
    vertex -3.158 6.1000000000000005 0
    vertex -3.2 5.6000000000000005 0.8
  endloop
endfacet
facet normal 0.9964905610688741 -0.08370520712978727 0
  outer loop
    vertex -3.2 5.6000000000000005 0.8
    vertex -3.158 6.1000000000000005 0
    vertex -3.158 6.1000000000000005 0.8
  endloop
endfacet
facet normal 0.9964905610688742 0.08370520712978499 0
  outer loop
    vertex -3.2 5.6000000000000005 7.2
    vertex -3.2 5.6000000000000005 8
    vertex -3.158 5.1000000000000005 8
  endloop
endfacet
facet normal 0.9964905610688739 0.08370520712978737 0
  outer loop
    vertex -3.2 5.6000000000000005 7.2
    vertex -3.158 5.1000000000000005 8
    vertex -3.158 5.1000000000000005 7.2
  endloop
endfacet
facet normal 0.9964905610688743 -0.08370520712978519 0
  outer loop
    vertex -3.2 5.6000000000000005 7.2
    vertex -3.158 6.1000000000000005 7.2
    vertex -3.2 5.6000000000000005 8
  endloop
endfacet
facet normal 0.996490561068874 -0.08370520712978718 0
  outer loop
    vertex -3.2 5.6000000000000005 8
    vertex -3.158 6.1000000000000005 7.2
    vertex -3.158 6.1000000000000005 8
  endloop
endfacet
facet normal 0.9739876256570964 0.2266012027038951 0
  outer loop
    vertex -3.158 5.1000000000000005 0
    vertex -3.158 5.1000000000000005 0.8
    vertex -3.044 4.61 0.8
  endloop
endfacet
facet normal 0.9739876256570961 0.22660120270389722 0
  outer loop
    vertex -3.158 5.1000000000000005 0
    vertex -3.044 4.61 0.8
    vertex -3.044 4.61 0
  endloop
endfacet
facet normal 0.9739876256570964 0.22660120270389503 0
  outer loop
    vertex -3.158 5.1000000000000005 7.2
    vertex -3.158 5.1000000000000005 8
    vertex -3.044 4.61 8
  endloop
endfacet
facet normal 0.9739876256570963 0.2266012027038955 0
  outer loop
    vertex -3.158 5.1000000000000005 7.2
    vertex -3.044 4.61 8
    vertex -3.044 4.61 7.2
  endloop
endfacet
facet normal 0.9739876256570963 -0.2266012027038955 0
  outer loop
    vertex -3.158 6.1000000000000005 0
    vertex -3.044 6.59 0
    vertex -3.158 6.1000000000000005 0.8
  endloop
endfacet
facet normal 0.9739876256570958 -0.2266012027038976 0
  outer loop
    vertex -3.158 6.1000000000000005 0.8
    vertex -3.044 6.59 0
    vertex -3.044 6.59 0.8
  endloop
endfacet
facet normal 0.9739876256570963 -0.2266012027038955 0
  outer loop
    vertex -3.158 6.1000000000000005 7.2
    vertex -3.044 6.59 7.2
    vertex -3.158 6.1000000000000005 8
  endloop
endfacet
facet normal 0.9739876256570963 -0.2266012027038955 0
  outer loop
    vertex -3.158 6.1000000000000005 8
    vertex -3.044 6.59 7.2
    vertex -3.044 6.59 8
  endloop
endfacet
facet normal 0.9257054315077322 0.37824523007842864 0
  outer loop
    vertex -3.044 4.61 0
    vertex -3.044 4.61 0.8
    vertex -2.854 4.1450000000000005 0.8
  endloop
endfacet
facet normal 0.9257054315077329 0.3782452300784267 0
  outer loop
    vertex -3.044 4.61 0
    vertex -2.854 4.1450000000000005 0.8
    vertex -2.854 4.1450000000000005 0
  endloop
endfacet
facet normal 0.9257054315077322 0.37824523007842864 0
  outer loop
    vertex -3.044 4.61 7.2
    vertex -3.044 4.61 8
    vertex -2.854 4.1450000000000005 8
  endloop
endfacet
facet normal 0.9257054315077322 0.37824523007842864 0
  outer loop
    vertex -3.044 4.61 7.2
    vertex -2.854 4.1450000000000005 8
    vertex -2.854 4.1450000000000005 7.2
  endloop
endfacet
facet normal 0.9257054315077322 -0.37824523007842864 0
  outer loop
    vertex -3.044 6.59 0
    vertex -2.854 7.055 0
    vertex -3.044 6.59 0.8
  endloop
endfacet
facet normal 0.9257054315077329 -0.3782452300784267 0
  outer loop
    vertex -3.044 6.59 0.8
    vertex -2.854 7.055 0
    vertex -2.854 7.055 0.8
  endloop
endfacet
facet normal 0.9257054315077322 -0.37824523007842864 0
  outer loop
    vertex -3.044 6.59 7.2
    vertex -2.854 7.055 7.2
    vertex -3.044 6.59 8
  endloop
endfacet
facet normal 0.9257054315077322 -0.37824523007842864 0
  outer loop
    vertex -3.044 6.59 8
    vertex -2.854 7.055 7.2
    vertex -2.854 7.055 8
  endloop
endfacet
facet normal 0.8505621707721168 0.5258745037092256 0
  outer loop
    vertex -2.854 4.1450000000000005 0
    vertex -2.854 4.1450000000000005 0.8
    vertex -2.59 3.718 0.8
  endloop
endfacet
facet normal 0.8505621707721178 0.525874503709224 0
  outer loop
    vertex -2.854 4.1450000000000005 0
    vertex -2.59 3.718 0.8
    vertex -2.59 3.718 0
  endloop
endfacet
facet normal 0.8505621707721179 0.5258745037092238 0
  outer loop
    vertex -2.854 4.1450000000000005 7.2
    vertex -2.854 4.1450000000000005 8
    vertex -2.59 3.718 8
  endloop
endfacet
facet normal 0.8505621707721174 0.5258745037092248 0
  outer loop
    vertex -2.854 4.1450000000000005 7.2
    vertex -2.59 3.718 8
    vertex -2.59 3.718 7.2
  endloop
endfacet
facet normal 0.8505621707721168 -0.5258745037092256 0
  outer loop
    vertex -2.854 7.055 0
    vertex -2.59 7.482 0
    vertex -2.854 7.055 0.8
  endloop
endfacet
facet normal 0.8505621707721178 -0.525874503709224 0
  outer loop
    vertex -2.854 7.055 0.8
    vertex -2.59 7.482 0
    vertex -2.59 7.482 0.8
  endloop
endfacet
facet normal 0.8505621707721174 -0.5258745037092248 0
  outer loop
    vertex -2.854 7.055 7.2
    vertex -2.59 7.482 7.2
    vertex -2.854 7.055 8
  endloop
endfacet
facet normal 0.8505621707721179 -0.5258745037092238 0
  outer loop
    vertex -2.854 7.055 8
    vertex -2.59 7.482 7.2
    vertex -2.59 7.482 8
  endloop
endfacet
facet normal 0.7588346728323697 0.6512833018797508 0
  outer loop
    vertex -2.59 3.718 0
    vertex -2.59 3.718 0.8
    vertex -2.263 3.337 0.8
  endloop
endfacet
facet normal 0.7588346728323697 0.6512833018797508 0
  outer loop
    vertex -2.59 3.718 0
    vertex -2.263 3.337 0.8
    vertex -2.263 3.337 0
  endloop
endfacet
facet normal 0.7588346728323694 0.651283301879751 0
  outer loop
    vertex -2.59 3.718 7.2
    vertex -2.59 3.718 8
    vertex -2.263 3.337 8
  endloop
endfacet
facet normal 0.7588346728323696 0.6512833018797509 0
  outer loop
    vertex -2.59 3.718 7.2
    vertex -2.263 3.337 8
    vertex -2.263 3.337 7.2
  endloop
endfacet
facet normal 0.7588346728323699 -0.6512833018797504 0
  outer loop
    vertex -2.59 7.482 0
    vertex -2.263 7.863 0
    vertex -2.59 7.482 0.8
  endloop
endfacet
facet normal 0.7588346728323699 -0.6512833018797504 0
  outer loop
    vertex -2.59 7.482 0.8
    vertex -2.263 7.863 0
    vertex -2.263 7.863 0.8
  endloop
endfacet
facet normal 0.7588346728323694 -0.651283301879751 0
  outer loop
    vertex -2.59 7.482 7.2
    vertex -2.263 7.863 7.2
    vertex -2.59 7.482 8
  endloop
endfacet
facet normal 0.7588346728323705 -0.6512833018797497 0
  outer loop
    vertex -2.59 7.482 8
    vertex -2.263 7.863 7.2
    vertex -2.263 7.863 8
  endloop
endfacet
facet normal 0.9957988523704411 0.09156771056279915 0
  outer loop
    vertex -2.5 5.6000000000000005 0.8
    vertex -2.5 5.6000000000000005 7.2
    vertex -2.46 5.165 7.2
  endloop
endfacet
facet normal 0.9957988523704411 0.09156771056279915 0
  outer loop
    vertex -2.5 5.6000000000000005 0.8
    vertex -2.46 5.165 7.2
    vertex -2.46 5.165 0.8
  endloop
endfacet
facet normal 0.9957988523704411 -0.09156771056279935 0
  outer loop
    vertex -2.5 5.6000000000000005 0.8
    vertex -2.46 6.035 0.8
    vertex -2.5 5.6000000000000005 7.2
  endloop
endfacet
facet normal 0.9957988523704411 -0.09156771056279933 0
  outer loop
    vertex -2.5 5.6000000000000005 7.2
    vertex -2.46 6.035 0.8
    vertex -2.46 6.035 7.2
  endloop
endfacet
facet normal 0.9665383828038027 0.25652203524650674 0
  outer loop
    vertex -2.46 5.165 0.8
    vertex -2.46 5.165 7.2
    vertex -2.348 4.743 7.2
  endloop
endfacet
facet normal 0.9665383828038027 0.25652203524650674 0
  outer loop
    vertex -2.46 5.165 0.8
    vertex -2.348 4.743 7.2
    vertex -2.348 4.743 0.8
  endloop
endfacet
facet normal 0.9665383828038027 -0.25652203524650674 0
  outer loop
    vertex -2.46 6.035 0.8
    vertex -2.348 6.457 0.8
    vertex -2.46 6.035 7.2
  endloop
endfacet
facet normal 0.9665383828038027 -0.25652203524650674 0
  outer loop
    vertex -2.46 6.035 7.2
    vertex -2.348 6.457 0.8
    vertex -2.348 6.457 7.2
  endloop
endfacet
facet normal 0.9082973115650245 0.4183252249192596 0
  outer loop
    vertex -2.348 4.743 0.8
    vertex -2.348 4.743 7.2
    vertex -2.1670000000000003 4.3500000000000005 7.2
  endloop
endfacet
facet normal 0.9082973115650237 0.4183252249192606 0
  outer loop
    vertex -2.348 4.743 0.8
    vertex -2.1670000000000003 4.3500000000000005 7.2
    vertex -2.1670000000000003 4.3500000000000005 0.8
  endloop
endfacet
facet normal 0.9082973115650247 -0.41832522491925883 0
  outer loop
    vertex -2.348 6.457 0.8
    vertex -2.1670000000000003 6.8500000000000005 0.8
    vertex -2.348 6.457 7.2
  endloop
endfacet
facet normal 0.9082973115650241 -0.41832522491925983 0
  outer loop
    vertex -2.348 6.457 7.2
    vertex -2.1670000000000003 6.8500000000000005 0.8
    vertex -2.1670000000000003 6.8500000000000005 7.2
  endloop
endfacet
facet normal 0.6512833018797503 0.7588346728323699 0
  outer loop
    vertex -2.263 3.337 0
    vertex -2.263 3.337 0.8
    vertex -1.8820000000000001 3.0100000000000002 0.8
  endloop
endfacet
facet normal 0.6512833018797514 0.758834672832369 0
  outer loop
    vertex -2.263 3.337 0
    vertex -1.8820000000000001 3.0100000000000002 0.8
    vertex -1.8820000000000001 3.0100000000000002 0
  endloop
endfacet
facet normal 0.651283301879751 0.7588346728323694 0
  outer loop
    vertex -2.263 3.337 7.2
    vertex -2.263 3.337 8
    vertex -1.8820000000000001 3.0100000000000002 8
  endloop
endfacet
facet normal 0.6512833018797509 0.7588346728323696 0
  outer loop
    vertex -2.263 3.337 7.2
    vertex -1.8820000000000001 3.0100000000000002 8
    vertex -1.8820000000000001 3.0100000000000002 7.2
  endloop
endfacet
facet normal 0.6512833018797493 -0.7588346728323709 0
  outer loop
    vertex -2.263 7.863 0
    vertex -1.8820000000000001 8.19 0
    vertex -2.263 7.863 0.8
  endloop
endfacet
facet normal 0.6512833018797504 -0.75883467283237 0
  outer loop
    vertex -2.263 7.863 0.8
    vertex -1.8820000000000001 8.19 0
    vertex -1.8820000000000001 8.19 0.8
  endloop
endfacet
facet normal 0.6512833018797484 -0.7588346728323716 0
  outer loop
    vertex -2.263 7.863 7.2
    vertex -1.8820000000000001 8.19 7.2
    vertex -2.263 7.863 8
  endloop
endfacet
facet normal 0.6512833018797509 -0.7588346728323696 0
  outer loop
    vertex -2.263 7.863 8
    vertex -1.8820000000000001 8.19 7.2
    vertex -1.8820000000000001 8.19 8
  endloop
endfacet
facet normal 0.8191241123743586 0.573616325192126 0
  outer loop
    vertex -2.1670000000000003 4.3500000000000005 0.8
    vertex -2.1670000000000003 4.3500000000000005 7.2
    vertex -1.917 3.993 7.2
  endloop
endfacet
facet normal 0.8191241123743574 0.5736163251921278 0
  outer loop
    vertex -2.1670000000000003 4.3500000000000005 0.8
    vertex -1.917 3.993 7.2
    vertex -1.917 3.993 0.8
  endloop
endfacet
facet normal 0.8191241123743577 -0.5736163251921276 0
  outer loop
    vertex -2.1670000000000003 6.8500000000000005 0.8
    vertex -1.917 7.207 0.8
    vertex -2.1670000000000003 6.8500000000000005 7.2
  endloop
endfacet
facet normal 0.8191241123743565 -0.5736163251921291 0
  outer loop
    vertex -2.1670000000000003 6.8500000000000005 7.2
    vertex -1.917 7.207 0.8
    vertex -1.917 7.207 7.2
  endloop
endfacet
facet normal 0.7071067811865474 0.7071067811865477 0
  outer loop
    vertex -1.917 3.993 0.8
    vertex -1.917 3.993 7.2
    vertex -1.607 3.6830000000000003 7.2
  endloop
endfacet
facet normal 0.7071067811865468 0.7071067811865483 0
  outer loop
    vertex -1.917 3.993 0.8
    vertex -1.607 3.6830000000000003 7.2
    vertex -1.607 3.6830000000000003 0.8
  endloop
endfacet
facet normal 0.7071067811865483 -0.7071067811865466 0
  outer loop
    vertex -1.917 7.207 0.8
    vertex -1.607 7.517 0.8
    vertex -1.917 7.207 7.2
  endloop
endfacet
facet normal 0.7071067811865478 -0.7071067811865472 0
  outer loop
    vertex -1.917 7.207 7.2
    vertex -1.607 7.517 0.8
    vertex -1.607 7.517 7.2
  endloop
endfacet
facet normal 0.525874503709225 0.8505621707721173 0
  outer loop
    vertex -1.8820000000000001 3.0100000000000002 0
    vertex -1.8820000000000001 3.0100000000000002 0.8
    vertex -1.455 2.746 0.8
  endloop
endfacet
facet normal 0.525874503709225 0.8505621707721173 0
  outer loop
    vertex -1.8820000000000001 3.0100000000000002 0
    vertex -1.455 2.746 0.8
    vertex -1.455 2.746 0
  endloop
endfacet
facet normal 0.525874503709226 0.8505621707721166 0
  outer loop
    vertex -1.8820000000000001 3.0100000000000002 7.2
    vertex -1.8820000000000001 3.0100000000000002 8
    vertex -1.455 2.746 8
  endloop
endfacet
facet normal 0.5258745037092235 0.8505621707721182 0
  outer loop
    vertex -1.8820000000000001 3.0100000000000002 7.2
    vertex -1.455 2.746 8
    vertex -1.455 2.746 7.2
  endloop
endfacet
facet normal 0.5258745037092263 -0.8505621707721164 0
  outer loop
    vertex -1.8820000000000001 8.19 0
    vertex -1.455 8.454 0
    vertex -1.8820000000000001 8.19 0.8
  endloop
endfacet
facet normal 0.5258745037092263 -0.8505621707721164 0
  outer loop
    vertex -1.8820000000000001 8.19 0.8
    vertex -1.455 8.454 0
    vertex -1.455 8.454 0.8
  endloop
endfacet
facet normal 0.5258745037092267 -0.8505621707721162 0
  outer loop
    vertex -1.8820000000000001 8.19 7.2
    vertex -1.455 8.454 7.2
    vertex -1.8820000000000001 8.19 8
  endloop
endfacet
facet normal 0.525874503709226 -0.8505621707721166 0
  outer loop
    vertex -1.8820000000000001 8.19 8
    vertex -1.455 8.454 7.2
    vertex -1.455 8.454 8
  endloop
endfacet
facet normal 0.5736163251921272 0.8191241123743578 0
  outer loop
    vertex -1.607 3.6830000000000003 0.8
    vertex -1.607 3.6830000000000003 7.2
    vertex -1.25 3.4330000000000003 7.2
  endloop
endfacet
facet normal 0.5736163251921272 0.8191241123743578 0
  outer loop
    vertex -1.607 3.6830000000000003 0.8
    vertex -1.25 3.4330000000000003 7.2
    vertex -1.25 3.4330000000000003 0.8
  endloop
endfacet
facet normal 0.5736163251921272 -0.8191241123743578 0
  outer loop
    vertex -1.607 7.517 0.8
    vertex -1.25 7.767 0.8
    vertex -1.607 7.517 7.2
  endloop
endfacet
facet normal 0.5736163251921272 -0.8191241123743578 0
  outer loop
    vertex -1.607 7.517 7.2
    vertex -1.25 7.767 0.8
    vertex -1.25 7.767 7.2
  endloop
endfacet
facet normal 0.37824523007842825 0.9257054315077322 0
  outer loop
    vertex -1.455 2.746 0
    vertex -1.455 2.746 0.8
    vertex -0.99 2.556 0.8
  endloop
endfacet
facet normal 0.3782452300784279 0.9257054315077324 0
  outer loop
    vertex -1.455 2.746 0
    vertex -0.99 2.556 0.8
    vertex -0.99 2.556 0
  endloop
endfacet
facet normal 0.37824523007842886 0.9257054315077321 0
  outer loop
    vertex -1.455 2.746 7.2
    vertex -1.455 2.746 8
    vertex -0.99 2.556 8
  endloop
endfacet
facet normal 0.37824523007842753 0.9257054315077328 0
  outer loop
    vertex -1.455 2.746 7.2
    vertex -0.99 2.556 8
    vertex -0.99 2.556 7.2
  endloop
endfacet
facet normal 0.37824523007842753 -0.9257054315077327 0
  outer loop
    vertex -1.455 8.454 0
    vertex -0.99 8.644 0
    vertex -1.455 8.454 0.8
  endloop
endfacet
facet normal 0.3782452300784271 -0.9257054315077327 0
  outer loop
    vertex -1.455 8.454 0.8
    vertex -0.99 8.644 0
    vertex -0.99 8.644 0.8
  endloop
endfacet
facet normal 0.3782452300784269 -0.9257054315077328 0
  outer loop
    vertex -1.455 8.454 7.2
    vertex -0.99 8.644 7.2
    vertex -1.455 8.454 8
  endloop
endfacet
facet normal 0.37824523007842753 -0.9257054315077328 0
  outer loop
    vertex -1.455 8.454 8
    vertex -0.99 8.644 7.2
    vertex -0.99 8.644 8
  endloop
endfacet
facet normal 0.4183252249192608 0.9082973115650239 0
  outer loop
    vertex -1.25 3.4330000000000003 0.8
    vertex -1.25 3.4330000000000003 7.2
    vertex -0.857 3.2520000000000002 7.2
  endloop
endfacet
facet normal 0.4183252249192602 0.908297311565024 0
  outer loop
    vertex -1.25 3.4330000000000003 0.8
    vertex -0.857 3.2520000000000002 7.2
    vertex -0.857 3.2520000000000002 0.8
  endloop
endfacet
facet normal 0.4183252249192608 -0.9082973115650239 0
  outer loop
    vertex -1.25 7.767 0.8
    vertex -0.857 7.948 0.8
    vertex -1.25 7.767 7.2
  endloop
endfacet
facet normal 0.4183252249192602 -0.908297311565024 0
  outer loop
    vertex -1.25 7.767 7.2
    vertex -0.857 7.948 0.8
    vertex -0.857 7.948 7.2
  endloop
endfacet
facet normal 0.22660120270389555 0.9739876256570963 0
  outer loop
    vertex -0.99 2.556 0
    vertex -0.99 2.556 0.8
    vertex -0.5 2.442 0.8
  endloop
endfacet
facet normal 0.22660120270389572 0.9739876256570964 0
  outer loop
    vertex -0.99 2.556 0
    vertex -0.5 2.442 0.8
    vertex -0.5 2.442 0
  endloop
endfacet
facet normal 0.22660120270389583 0.9739876256570964 0
  outer loop
    vertex -0.99 2.556 7.2
    vertex -0.99 2.556 8
    vertex -0.5 2.442 8
  endloop
endfacet
facet normal 0.22660120270389528 0.9739876256570964 0
  outer loop
    vertex -0.99 2.556 7.2
    vertex -0.5 2.442 8
    vertex -0.5 2.442 7.2
  endloop
endfacet
facet normal 0.22660120270389722 -0.9739876256570958 0
  outer loop
    vertex -0.99 8.644 0
    vertex -0.5 8.758000000000001 0
    vertex -0.99 8.644 0.8
  endloop
endfacet
facet normal 0.22660120270389736 -0.9739876256570958 0
  outer loop
    vertex -0.99 8.644 0.8
    vertex -0.5 8.758000000000001 0
    vertex -0.5 8.758000000000001 0.8
  endloop
endfacet
facet normal 0.22660120270389736 -0.9739876256570958 0
  outer loop
    vertex -0.99 8.644 7.2
    vertex -0.5 8.758000000000001 7.2
    vertex -0.99 8.644 8
  endloop
endfacet
facet normal 0.22660120270389736 -0.9739876256570958 0
  outer loop
    vertex -0.99 8.644 8
    vertex -0.5 8.758000000000001 7.2
    vertex -0.5 8.758000000000001 8
  endloop
endfacet
facet normal 0.25652203524650713 0.9665383828038024 0
  outer loop
    vertex -0.857 3.2520000000000002 0.8
    vertex -0.857 3.2520000000000002 7.2
    vertex -0.435 3.14 7.2
  endloop
endfacet
facet normal 0.2565220352465071 0.9665383828038026 0
  outer loop
    vertex -0.857 3.2520000000000002 0.8
    vertex -0.435 3.14 7.2
    vertex -0.435 3.14 0.8
  endloop
endfacet
facet normal 0.25652203524650713 -0.9665383828038024 0
  outer loop
    vertex -0.857 7.948 0.8
    vertex -0.435 8.06 0.8
    vertex -0.857 7.948 7.2
  endloop
endfacet
facet normal 0.25652203524650713 -0.9665383828038026 0
  outer loop
    vertex -0.857 7.948 7.2
    vertex -0.435 8.06 0.8
    vertex -0.435 8.06 7.2
  endloop
endfacet
facet normal 0.08370520712978594 0.9964905610688741 0
  outer loop
    vertex -0.5 2.442 0
    vertex -0.5 2.442 0.8
    vertex 0 2.4 0.8
  endloop
endfacet
facet normal 0.08370520712978594 0.9964905610688741 0
  outer loop
    vertex -0.5 2.442 0
    vertex 0 2.4 0.8
    vertex 0 2.4 0
  endloop
endfacet
facet normal 0.08370520712978591 0.9964905610688741 0
  outer loop
    vertex -0.5 2.442 7.2
    vertex -0.5 2.442 8
    vertex 0 2.4 8
  endloop
endfacet
facet normal 0.08370520712978591 0.9964905610688741 0
  outer loop
    vertex -0.5 2.442 7.2
    vertex 0 2.4 8
    vertex 0 2.4 7.2
  endloop
endfacet
facet normal 0.08370520712978506 -0.9964905610688742 0
  outer loop
    vertex -0.5 8.758000000000001 0
    vertex 0 8.8 0
    vertex -0.5 8.758000000000001 0.8
  endloop
endfacet
facet normal 0.08370520712978506 -0.9964905610688742 0
  outer loop
    vertex -0.5 8.758000000000001 0.8
    vertex 0 8.8 0
    vertex 0 8.8 0.8
  endloop
endfacet
facet normal 0.08370520712978508 -0.9964905610688741 0
  outer loop
    vertex -0.5 8.758000000000001 7.2
    vertex 0 8.8 7.2
    vertex -0.5 8.758000000000001 8
  endloop
endfacet
facet normal 0.08370520712978508 -0.9964905610688741 0
  outer loop
    vertex -0.5 8.758000000000001 8
    vertex 0 8.8 7.2
    vertex 0 8.8 8
  endloop
endfacet
facet normal 0.09156771056279926 0.9957988523704412 0
  outer loop
    vertex -0.435 3.14 0.8
    vertex -0.435 3.14 7.2
    vertex 0 3.1 7.2
  endloop
endfacet
facet normal 0.09156771056279926 0.9957988523704412 0
  outer loop
    vertex -0.435 3.14 0.8
    vertex 0 3.1 7.2
    vertex 0 3.1 0.8
  endloop
endfacet
facet normal 0.09156771056279725 -0.9957988523704413 0
  outer loop
    vertex -0.435 8.06 0.8
    vertex 0 8.1 0.8
    vertex -0.435 8.06 7.2
  endloop
endfacet
facet normal 0.09156771056279725 -0.9957988523704413 0
  outer loop
    vertex -0.435 8.06 7.2
    vertex 0 8.1 0.8
    vertex 0 8.1 7.2
  endloop
endfacet
facet normal -0.08370520712978594 0.9964905610688741 0
  outer loop
    vertex 0 2.4 0
    vertex 0 2.4 0.8
    vertex 0.5 2.442 0.8
  endloop
endfacet
facet normal 0 0 -1
  outer loop
    vertex 0 2.4 0
    vertex 0.5 2.442 0
    vertex 4 0 0
  endloop
endfacet
facet normal -0.08370520712978594 0.9964905610688741 0
  outer loop
    vertex 0 2.4 0
    vertex 0.5 2.442 0.8
    vertex 0.5 2.442 0
  endloop
endfacet
facet normal 0 0 1
  outer loop
    vertex 0 2.4 0.8
    vertex 4 0 0.8
    vertex 0.5 2.442 0.8
  endloop
endfacet
facet normal -0.08370520712978591 0.9964905610688741 0
  outer loop
    vertex 0 2.4 7.2
    vertex 0 2.4 8
    vertex 0.5 2.442 8
  endloop
endfacet
facet normal 0 0 -1
  outer loop
    vertex 0 2.4 7.2
    vertex 0.5 2.442 7.2
    vertex 4 0 7.2
  endloop
endfacet
facet normal -0.08370520712978591 0.9964905610688741 0
  outer loop
    vertex 0 2.4 7.2
    vertex 0.5 2.442 8
    vertex 0.5 2.442 7.2
  endloop
endfacet
facet normal 0 0 1
  outer loop
    vertex 0 2.4 8
    vertex 4 0 8
    vertex 0.5 2.442 8
  endloop
endfacet
facet normal -0.09156771056279926 0.9957988523704412 0
  outer loop
    vertex 0 3.1 0.8
    vertex 0 3.1 7.2
    vertex 0.435 3.14 7.2
  endloop
endfacet
facet normal 0 0 -1
  outer loop
    vertex 0 3.1 0.8
    vertex 0.435 3.14 0.8
    vertex 4 0 0.8
  endloop
endfacet
facet normal -0.09156771056279926 0.9957988523704412 0
  outer loop
    vertex 0 3.1 0.8
    vertex 0.435 3.14 7.2
    vertex 0.435 3.14 0.8
  endloop
endfacet
facet normal 0 0 1
  outer loop
    vertex 0 3.1 7.2
    vertex 4 0 7.2
    vertex 0.435 3.14 7.2
  endloop
endfacet
facet normal -0.09156771056279725 -0.9957988523704413 0
  outer loop
    vertex 0 8.1 0.8
    vertex 0.435 8.06 0.8
    vertex 0 8.1 7.2
  endloop
endfacet
facet normal 0 0 -1
  outer loop
    vertex 0 8.1 0.8
    vertex 4 12.8 0.8
    vertex 0.435 8.06 0.8
  endloop
endfacet
facet normal -0.09156771056279725 -0.9957988523704413 0
  outer loop
    vertex 0 8.1 7.2
    vertex 0.435 8.06 0.8
    vertex 0.435 8.06 7.2
  endloop
endfacet
facet normal 6.446293815015664e-15 0 1
  outer loop
    vertex 0 8.1 7.2
    vertex 0.435 8.06 7.2
    vertex 4 12.8 7.2
  endloop
endfacet
facet normal -0.08370520712978506 -0.9964905610688742 0
  outer loop
    vertex 0 8.8 0
    vertex 0.5 8.758000000000001 0
    vertex 0 8.8 0.8
  endloop
endfacet
facet normal 0 0 -1
  outer loop
    vertex 0 8.8 0
    vertex 4 12.8 0
    vertex 0.5 8.758000000000001 0
  endloop
endfacet
facet normal -0.08370520712978506 -0.9964905610688742 0
  outer loop
    vertex 0 8.8 0.8
    vertex 0.5 8.758000000000001 0
    vertex 0.5 8.758000000000001 0.8
  endloop
endfacet
facet normal 0 0 1
  outer loop
    vertex 0 8.8 0.8
    vertex 0.5 8.758000000000001 0.8
    vertex 4 12.8 0.8
  endloop
endfacet
facet normal -0.08370520712978508 -0.9964905610688741 0
  outer loop
    vertex 0 8.8 7.2
    vertex 0.5 8.758000000000001 7.2
    vertex 0 8.8 8
  endloop
endfacet
facet normal 0 0 -1
  outer loop
    vertex 0 8.8 7.2
    vertex 4 12.8 7.2
    vertex 0.5 8.758000000000001 7.2
  endloop
endfacet
facet normal -0.08370520712978508 -0.9964905610688741 0
  outer loop
    vertex 0 8.8 8
    vertex 0.5 8.758000000000001 7.2
    vertex 0.5 8.758000000000001 8
  endloop
endfacet
facet normal 0 0 1
  outer loop
    vertex 0 8.8 8
    vertex 0.5 8.758000000000001 8
    vertex 4 12.8 8
  endloop
endfacet
facet normal -0.25652203524650713 0.9665383828038026 0
  outer loop
    vertex 0.435 3.14 0.8
    vertex 0.435 3.14 7.2
    vertex 0.857 3.2520000000000002 7.2
  endloop
endfacet
facet normal 0 0 -1
  outer loop
    vertex 0.435 3.14 0.8
    vertex 0.857 3.2520000000000002 0.8
    vertex 4 0 0.8
  endloop
endfacet
facet normal -0.25652203524650713 0.9665383828038024 0
  outer loop
    vertex 0.435 3.14 0.8
    vertex 0.857 3.2520000000000002 7.2
    vertex 0.857 3.2520000000000002 0.8
  endloop
endfacet
facet normal 0 0 1
  outer loop
    vertex 0.435 3.14 7.2
    vertex 4 0 7.2
    vertex 0.857 3.2520000000000002 7.2
  endloop
endfacet
facet normal -0.2565220352465071 -0.9665383828038026 0
  outer loop
    vertex 0.435 8.06 0.8
    vertex 0.857 7.948 0.8
    vertex 0.435 8.06 7.2
  endloop
endfacet
facet normal 3.7014220094522643e-16 0 -1
  outer loop
    vertex 0.435 8.06 0.8
    vertex 4 12.8 0.8
    vertex 0.857 7.948 0.8
  endloop
endfacet
facet normal -0.25652203524650713 -0.9665383828038024 0
  outer loop
    vertex 0.435 8.06 7.2
    vertex 0.857 7.948 0.8
    vertex 0.857 7.948 7.2
  endloop
endfacet
facet normal 0 0 1
  outer loop
    vertex 0.435 8.06 7.2
    vertex 0.857 7.948 7.2
    vertex 4 12.8 7.2
  endloop
endfacet
facet normal -0.22660120270389572 0.9739876256570964 0
  outer loop
    vertex 0.5 2.442 0
    vertex 0.5 2.442 0.8
    vertex 0.99 2.556 0.8
  endloop
endfacet
facet normal 0 0 -0.9999999999999999
  outer loop
    vertex 0.5 2.442 0
    vertex 0.99 2.556 0
    vertex 4 0 0
  endloop
endfacet
facet normal -0.22660120270389555 0.9739876256570963 0
  outer loop
    vertex 0.5 2.442 0
    vertex 0.99 2.556 0.8
    vertex 0.99 2.556 0
  endloop
endfacet
facet normal 0 0 0.9999999999999999
  outer loop
    vertex 0.5 2.442 0.8
    vertex 4 0 0.8
    vertex 0.99 2.556 0.8
  endloop
endfacet
facet normal -0.22660120270389583 0.9739876256570964 0
  outer loop
    vertex 0.5 2.442 7.2
    vertex 0.5 2.442 8
    vertex 0.99 2.556 8
  endloop
endfacet
facet normal 0 0 -0.9999999999999999
  outer loop
    vertex 0.5 2.442 7.2
    vertex 0.99 2.556 7.2
    vertex 4 0 7.2
  endloop
endfacet
facet normal -0.22660120270389528 0.9739876256570964 0
  outer loop
    vertex 0.5 2.442 7.2
    vertex 0.99 2.556 8
    vertex 0.99 2.556 7.2
  endloop
endfacet
facet normal 0 0 0.9999999999999999
  outer loop
    vertex 0.5 2.442 8
    vertex 4 0 8
    vertex 0.99 2.556 8
  endloop
endfacet
facet normal -0.22660120270389736 -0.9739876256570958 0
  outer loop
    vertex 0.5 8.758000000000001 0
    vertex 0.99 8.644 0
    vertex 0.5 8.758000000000001 0.8
  endloop
endfacet
facet normal 0 0 -1
  outer loop
    vertex 0.5 8.758000000000001 0
    vertex 4 12.8 0
    vertex 0.99 8.644 0
  endloop
endfacet
facet normal -0.22660120270389722 -0.9739876256570958 0
  outer loop
    vertex 0.5 8.758000000000001 0.8
    vertex 0.99 8.644 0
    vertex 0.99 8.644 0.8
  endloop
endfacet
facet normal 0 0 1
  outer loop
    vertex 0.5 8.758000000000001 0.8
    vertex 0.99 8.644 0.8
    vertex 4 12.8 0.8
  endloop
endfacet
facet normal -0.22660120270389736 -0.9739876256570958 0
  outer loop
    vertex 0.5 8.758000000000001 7.2
    vertex 0.99 8.644 7.2
    vertex 0.5 8.758000000000001 8
  endloop
endfacet
facet normal 0 0 -1
  outer loop
    vertex 0.5 8.758000000000001 7.2
    vertex 4 12.8 7.2
    vertex 0.99 8.644 7.2
  endloop
endfacet
facet normal -0.22660120270389736 -0.9739876256570958 0
  outer loop
    vertex 0.5 8.758000000000001 8
    vertex 0.99 8.644 7.2
    vertex 0.99 8.644 8
  endloop
endfacet
facet normal 0 0 1
  outer loop
    vertex 0.5 8.758000000000001 8
    vertex 0.99 8.644 8
    vertex 4 12.8 8
  endloop
endfacet
facet normal -0.4183252249192602 0.908297311565024 0
  outer loop
    vertex 0.857 3.2520000000000002 0.8
    vertex 0.857 3.2520000000000002 7.2
    vertex 1.25 3.4330000000000003 7.2
  endloop
endfacet
facet normal 0 0 -0.9999999999999999
  outer loop
    vertex 0.857 3.2520000000000002 0.8
    vertex 1.25 3.4330000000000003 0.8
    vertex 4 0 0.8
  endloop
endfacet
facet normal -0.4183252249192608 0.9082973115650239 0
  outer loop
    vertex 0.857 3.2520000000000002 0.8
    vertex 1.25 3.4330000000000003 7.2
    vertex 1.25 3.4330000000000003 0.8
  endloop
endfacet
facet normal 0 0 0.9999999999999999
  outer loop
    vertex 0.857 3.2520000000000002 7.2
    vertex 4 0 7.2
    vertex 1.25 3.4330000000000003 7.2
  endloop
endfacet
facet normal -0.4183252249192602 -0.908297311565024 0
  outer loop
    vertex 0.857 7.948 0.8
    vertex 1.25 7.767 0.8
    vertex 0.857 7.948 7.2
  endloop
endfacet
facet normal 0 0 -1
  outer loop
    vertex 0.857 7.948 0.8
    vertex 4 12.8 0.8
    vertex 1.25 7.767 0.8
  endloop
endfacet
facet normal -0.4183252249192608 -0.9082973115650239 0
  outer loop
    vertex 0.857 7.948 7.2
    vertex 1.25 7.767 0.8
    vertex 1.25 7.767 7.2
  endloop
endfacet
facet normal 0 0 1
  outer loop
    vertex 0.857 7.948 7.2
    vertex 1.25 7.767 7.2
    vertex 4 12.8 7.2
  endloop
endfacet
facet normal -0.3782452300784279 0.9257054315077324 0
  outer loop
    vertex 0.99 2.556 0
    vertex 0.99 2.556 0.8
    vertex 1.455 2.746 0.8
  endloop
endfacet
facet normal 0 0 -0.9999999999999999
  outer loop
    vertex 0.99 2.556 0
    vertex 1.455 2.746 0
    vertex 4 0 0
  endloop
endfacet
facet normal -0.37824523007842825 0.9257054315077322 0
  outer loop
    vertex 0.99 2.556 0
    vertex 1.455 2.746 0.8
    vertex 1.455 2.746 0
  endloop
endfacet
facet normal 0 0 0.9999999999999999
  outer loop
    vertex 0.99 2.556 0.8
    vertex 4 0 0.8
    vertex 1.455 2.746 0.8
  endloop
endfacet
facet normal -0.37824523007842836 0.9257054315077321 0
  outer loop
    vertex 0.99 2.556 7.2
    vertex 0.99 2.556 8
    vertex 1.455 2.746 8
  endloop
endfacet
facet normal 0 0 -0.9999999999999999
  outer loop
    vertex 0.99 2.556 7.2
    vertex 1.455 2.746 7.2
    vertex 4 0 7.2
  endloop
endfacet
facet normal -0.37824523007842786 0.9257054315077324 0
  outer loop
    vertex 0.99 2.556 7.2
    vertex 1.455 2.746 8
    vertex 1.455 2.746 7.2
  endloop
endfacet
facet normal 0 0 0.9999999999999999
  outer loop
    vertex 0.99 2.556 8
    vertex 4 0 8
    vertex 1.455 2.746 8
  endloop
endfacet
facet normal -0.3782452300784271 -0.9257054315077327 0
  outer loop
    vertex 0.99 8.644 0
    vertex 1.455 8.454 0
    vertex 0.99 8.644 0.8
  endloop
endfacet
facet normal 0 0 -1
  outer loop
    vertex 0.99 8.644 0
    vertex 4 12.8 0
    vertex 1.455 8.454 0
  endloop
endfacet
facet normal -0.37824523007842753 -0.9257054315077327 0
  outer loop
    vertex 0.99 8.644 0.8
    vertex 1.455 8.454 0
    vertex 1.455 8.454 0.8
  endloop
endfacet
facet normal 0 0 1
  outer loop
    vertex 0.99 8.644 0.8
    vertex 1.455 8.454 0.8
    vertex 4 12.8 0.8
  endloop
endfacet
facet normal -0.3782452300784266 -0.9257054315077331 0
  outer loop
    vertex 0.99 8.644 7.2
    vertex 1.455 8.454 7.2
    vertex 0.99 8.644 8
  endloop
endfacet
facet normal 0 0 -1
  outer loop
    vertex 0.99 8.644 7.2
    vertex 4 12.8 7.2
    vertex 1.455 8.454 7.2
  endloop
endfacet
facet normal -0.37824523007842786 -0.9257054315077324 0
  outer loop
    vertex 0.99 8.644 8
    vertex 1.455 8.454 7.2
    vertex 1.455 8.454 8
  endloop
endfacet
facet normal 0 0 1
  outer loop
    vertex 0.99 8.644 8
    vertex 1.455 8.454 8
    vertex 4 12.8 8
  endloop
endfacet
facet normal -0.5736163251921272 0.8191241123743578 0
  outer loop
    vertex 1.25 3.4330000000000003 0.8
    vertex 1.25 3.4330000000000003 7.2
    vertex 1.607 3.6830000000000003 7.2
  endloop
endfacet
facet normal 0 0 -1
  outer loop
    vertex 1.25 3.4330000000000003 0.8
    vertex 1.607 3.6830000000000003 0.8
    vertex 4 0 0.8
  endloop
endfacet
facet normal -0.5736163251921272 0.8191241123743578 0
  outer loop
    vertex 1.25 3.4330000000000003 0.8
    vertex 1.607 3.6830000000000003 7.2
    vertex 1.607 3.6830000000000003 0.8
  endloop
endfacet
facet normal 0 0 1
  outer loop
    vertex 1.25 3.4330000000000003 7.2
    vertex 4 0 7.2
    vertex 1.607 3.6830000000000003 7.2
  endloop
endfacet
facet normal -0.5736163251921272 -0.8191241123743578 0
  outer loop
    vertex 1.25 7.767 0.8
    vertex 1.607 7.517 0.8
    vertex 1.25 7.767 7.2
  endloop
endfacet
facet normal 0 0 -0.9999999999999999
  outer loop
    vertex 1.25 7.767 0.8
    vertex 4 12.8 0.8
    vertex 1.607 7.517 0.8
  endloop
endfacet
facet normal -0.5736163251921272 -0.8191241123743578 0
  outer loop
    vertex 1.25 7.767 7.2
    vertex 1.607 7.517 0.8
    vertex 1.607 7.517 7.2
  endloop
endfacet
facet normal -5.720308900322462e-15 0 0.9999999999999999
  outer loop
    vertex 1.25 7.767 7.2
    vertex 1.607 7.517 7.2
    vertex 4 12.8 7.2
  endloop
endfacet
facet normal -0.525874503709225 0.8505621707721173 0
  outer loop
    vertex 1.455 2.746 0
    vertex 1.455 2.746 0.8
    vertex 1.8820000000000001 3.0100000000000002 0.8
  endloop
endfacet
facet normal 0 0 -1
  outer loop
    vertex 1.455 2.746 0
    vertex 1.8820000000000001 3.0100000000000002 0
    vertex 4 0 0
  endloop
endfacet
facet normal -0.525874503709225 0.8505621707721173 0
  outer loop
    vertex 1.455 2.746 0
    vertex 1.8820000000000001 3.0100000000000002 0.8
    vertex 1.8820000000000001 3.0100000000000002 0
  endloop
endfacet
facet normal 0 0 1
  outer loop
    vertex 1.455 2.746 0.8
    vertex 4 0 0.8
    vertex 1.8820000000000001 3.0100000000000002 0.8
  endloop
endfacet
facet normal -0.525874503709226 0.8505621707721166 0
  outer loop
    vertex 1.455 2.746 7.2
    vertex 1.455 2.746 8
    vertex 1.8820000000000001 3.0100000000000002 8
  endloop
endfacet
facet normal 0 0 -1
  outer loop
    vertex 1.455 2.746 7.2
    vertex 1.8820000000000001 3.0100000000000002 7.2
    vertex 4 0 7.2
  endloop
endfacet
facet normal -0.5258745037092235 0.8505621707721182 0
  outer loop
    vertex 1.455 2.746 7.2
    vertex 1.8820000000000001 3.0100000000000002 8
    vertex 1.8820000000000001 3.0100000000000002 7.2
  endloop
endfacet
facet normal 0 0 1
  outer loop
    vertex 1.455 2.746 8
    vertex 4 0 8
    vertex 1.8820000000000001 3.0100000000000002 8
  endloop
endfacet
facet normal -0.5258745037092263 -0.8505621707721164 0
  outer loop
    vertex 1.455 8.454 0
    vertex 1.8820000000000001 8.19 0
    vertex 1.455 8.454 0.8
  endloop
endfacet
facet normal 0 0 -1
  outer loop
    vertex 1.455 8.454 0
    vertex 4 12.8 0
    vertex 1.8820000000000001 8.19 0
  endloop
endfacet
facet normal -0.5258745037092263 -0.8505621707721164 0
  outer loop
    vertex 1.455 8.454 0.8
    vertex 1.8820000000000001 8.19 0
    vertex 1.8820000000000001 8.19 0.8
  endloop
endfacet
facet normal 0 0 1
  outer loop
    vertex 1.455 8.454 0.8
    vertex 1.8820000000000001 8.19 0.8
    vertex 4 12.8 0.8
  endloop
endfacet
facet normal -0.5258745037092267 -0.8505621707721162 0
  outer loop
    vertex 1.455 8.454 7.2
    vertex 1.8820000000000001 8.19 7.2
    vertex 1.455 8.454 8
  endloop
endfacet
facet normal 0 0 -1
  outer loop
    vertex 1.455 8.454 7.2
    vertex 4 12.8 7.2
    vertex 1.8820000000000001 8.19 7.2
  endloop
endfacet
facet normal -0.525874503709226 -0.8505621707721166 0
  outer loop
    vertex 1.455 8.454 8
    vertex 1.8820000000000001 8.19 7.2
    vertex 1.8820000000000001 8.19 8
  endloop
endfacet
facet normal 0 0 1
  outer loop
    vertex 1.455 8.454 8
    vertex 1.8820000000000001 8.19 8
    vertex 4 12.8 8
  endloop
endfacet
facet normal -0.7071067811865467 0.7071067811865483 0
  outer loop
    vertex 1.607 3.6830000000000003 0.8
    vertex 1.607 3.6830000000000003 7.2
    vertex 1.917 3.993 7.2
  endloop
endfacet
facet normal -4.715424088959865e-16 0 -1
  outer loop
    vertex 1.607 3.6830000000000003 0.8
    vertex 1.917 3.993 0.8
    vertex 4 0 0.8
  endloop
endfacet
facet normal -0.7071067811865474 0.7071067811865476 0
  outer loop
    vertex 1.607 3.6830000000000003 0.8
    vertex 1.917 3.993 7.2
    vertex 1.917 3.993 0.8
  endloop
endfacet
facet normal -3.772339271167892e-15 0 1
  outer loop
    vertex 1.607 3.6830000000000003 7.2
    vertex 4 0 7.2
    vertex 1.917 3.993 7.2
  endloop
endfacet
facet normal -0.7071067811865478 -0.7071067811865474 0
  outer loop
    vertex 1.607 7.517 0.8
    vertex 1.917 7.207 0.8
    vertex 1.607 7.517 7.2
  endloop
endfacet
facet normal 0 0 -1
  outer loop
    vertex 1.607 7.517 0.8
    vertex 4 12.8 0.8
    vertex 1.917 7.207 0.8
  endloop
endfacet
facet normal -0.7071067811865485 -0.7071067811865466 0
  outer loop
    vertex 1.607 7.517 7.2
    vertex 1.917 7.207 0.8
    vertex 1.917 7.207 7.2
  endloop
endfacet
facet normal 5.972051436064657e-15 0 1
  outer loop
    vertex 1.607 7.517 7.2
    vertex 1.917 7.207 7.2
    vertex 4 12.8 7.2
  endloop
endfacet
facet normal -0.6512833018797514 0.758834672832369 0
  outer loop
    vertex 1.8820000000000001 3.0100000000000002 0
    vertex 1.8820000000000001 3.0100000000000002 0.8
    vertex 2.263 3.337 0.8
  endloop
endfacet
facet normal 0 0 -1
  outer loop
    vertex 1.8820000000000001 3.0100000000000002 0
    vertex 2.263 3.337 0
    vertex 4 0 0
  endloop
endfacet
facet normal -0.6512833018797503 0.7588346728323699 0
  outer loop
    vertex 1.8820000000000001 3.0100000000000002 0
    vertex 2.263 3.337 0.8
    vertex 2.263 3.337 0
  endloop
endfacet
facet normal 0 0 1
  outer loop
    vertex 1.8820000000000001 3.0100000000000002 0.8
    vertex 4 0 0.8
    vertex 2.263 3.337 0.8
  endloop
endfacet
facet normal -0.651283301879752 0.7588346728323684 0
  outer loop
    vertex 1.8820000000000001 3.0100000000000002 7.2
    vertex 1.8820000000000001 3.0100000000000002 8
    vertex 2.263 3.337 8
  endloop
endfacet
facet normal 3.862913346338149e-15 0 -1
  outer loop
    vertex 1.8820000000000001 3.0100000000000002 7.2
    vertex 2.263 3.337 7.2
    vertex 4 0 7.2
  endloop
endfacet
facet normal -0.6512833018797497 0.7588346728323705 0
  outer loop
    vertex 1.8820000000000001 3.0100000000000002 7.2
    vertex 2.263 3.337 8
    vertex 2.263 3.337 7.2
  endloop
endfacet
facet normal 0 0 1
  outer loop
    vertex 1.8820000000000001 3.0100000000000002 8
    vertex 4 0 8
    vertex 2.263 3.337 8
  endloop
endfacet
facet normal -0.6512833018797504 -0.75883467283237 0
  outer loop
    vertex 1.8820000000000001 8.19 0
    vertex 2.263 7.863 0
    vertex 1.8820000000000001 8.19 0.8
  endloop
endfacet
facet normal 0 0 -1
  outer loop
    vertex 1.8820000000000001 8.19 0
    vertex 4 12.8 0
    vertex 2.263 7.863 0
  endloop
endfacet
facet normal -0.6512833018797493 -0.7588346728323709 0
  outer loop
    vertex 1.8820000000000001 8.19 0.8
    vertex 2.263 7.863 0
    vertex 2.263 7.863 0.8
  endloop
endfacet
facet normal 0 0 1
  outer loop
    vertex 1.8820000000000001 8.19 0.8
    vertex 2.263 7.863 0.8
    vertex 4 12.8 0.8
  endloop
endfacet
facet normal -0.6512833018797496 -0.7588346728323707 0
  outer loop
    vertex 1.8820000000000001 8.19 7.2
    vertex 2.263 7.863 7.2
    vertex 1.8820000000000001 8.19 8
  endloop
endfacet
facet normal 5.8027267971046084e-15 0 -1
  outer loop
    vertex 1.8820000000000001 8.19 7.2
    vertex 4 12.8 7.2
    vertex 2.263 7.863 7.2
  endloop
endfacet
facet normal -0.6512833018797497 -0.7588346728323705 0
  outer loop
    vertex 1.8820000000000001 8.19 8
    vertex 2.263 7.863 7.2
    vertex 2.263 7.863 8
  endloop
endfacet
facet normal 0 0 1
  outer loop
    vertex 1.8820000000000001 8.19 8
    vertex 2.263 7.863 8
    vertex 4 12.8 8
  endloop
endfacet
facet normal -0.8191241123743574 0.5736163251921278 0
  outer loop
    vertex 1.917 3.993 0.8
    vertex 1.917 3.993 7.2
    vertex 2.1670000000000003 4.3500000000000005 7.2
  endloop
endfacet
facet normal 0 0 -1
  outer loop
    vertex 1.917 3.993 0.8
    vertex 2.1670000000000003 4.3500000000000005 0.8
    vertex 4 0 0.8
  endloop
endfacet
facet normal -0.8191241123743586 0.573616325192126 0
  outer loop
    vertex 1.917 3.993 0.8
    vertex 2.1670000000000003 4.3500000000000005 7.2
    vertex 2.1670000000000003 4.3500000000000005 0.8
  endloop
endfacet
facet normal 4.0791692185637254e-15 0 1
  outer loop
    vertex 1.917 3.993 7.2
    vertex 4 0 7.2
    vertex 2.1670000000000003 4.3500000000000005 7.2
  endloop
endfacet
facet normal -0.8191241123743565 -0.5736163251921292 0
  outer loop
    vertex 1.917 7.207 0.8
    vertex 2.1670000000000003 6.8500000000000005 0.8
    vertex 1.917 7.207 7.2
  endloop
endfacet
facet normal 0 0 -1
  outer loop
    vertex 1.917 7.207 0.8
    vertex 4 12.8 0.8
    vertex 2.1670000000000003 6.8500000000000005 0.8
  endloop
endfacet
facet normal -0.8191241123743578 -0.5736163251921275 0
  outer loop
    vertex 1.917 7.207 7.2
    vertex 2.1670000000000003 6.8500000000000005 0.8
    vertex 2.1670000000000003 6.8500000000000005 7.2
  endloop
endfacet
facet normal -6.634754552284659e-15 0 1
  outer loop
    vertex 1.917 7.207 7.2
    vertex 2.1670000000000003 6.8500000000000005 7.2
    vertex 4 12.8 7.2
  endloop
endfacet
facet normal -0.9082973115650238 0.41832522491926055 0
  outer loop
    vertex 2.1670000000000003 4.3500000000000005 0.8
    vertex 2.1670000000000003 4.3500000000000005 7.2
    vertex 2.348 4.743 7.2
  endloop
endfacet
facet normal 0 0 -1
  outer loop
    vertex 2.1670000000000003 4.3500000000000005 0.8
    vertex 2.348 4.743 0.8
    vertex 4 0 0.8
  endloop
endfacet
facet normal -0.9082973115650245 0.41832522491925966 0
  outer loop
    vertex 2.1670000000000003 4.3500000000000005 0.8
    vertex 2.348 4.743 7.2
    vertex 2.348 4.743 0.8
  endloop
endfacet
facet normal -9.425400034888478e-15 0 1
  outer loop
    vertex 2.1670000000000003 4.3500000000000005 7.2
    vertex 4 0 7.2
    vertex 2.348 4.743 7.2
  endloop
endfacet
facet normal -0.9082973115650241 -0.41832522491925983 0
  outer loop
    vertex 2.1670000000000003 6.8500000000000005 0.8
    vertex 2.348 6.457 0.8
    vertex 2.1670000000000003 6.8500000000000005 7.2
  endloop
endfacet
facet normal -9.883369838076894e-16 0 -1
  outer loop
    vertex 2.1670000000000003 6.8500000000000005 0.8
    vertex 4 12.8 0.8
    vertex 2.348 6.457 0.8
  endloop
endfacet
facet normal -0.9082973115650247 -0.41832522491925883 0
  outer loop
    vertex 2.1670000000000003 6.8500000000000005 7.2
    vertex 2.348 6.457 0.8
    vertex 2.348 6.457 7.2
  endloop
endfacet
facet normal 0 0 1
  outer loop
    vertex 2.1670000000000003 6.8500000000000005 7.2
    vertex 2.348 6.457 7.2
    vertex 4 12.8 7.2
  endloop
endfacet
facet normal -0.7588346728323697 0.6512833018797508 0
  outer loop
    vertex 2.263 3.337 0
    vertex 2.263 3.337 0.8
    vertex 2.59 3.718 0.8
  endloop
endfacet
facet normal 0 0 -1
  outer loop
    vertex 2.263 3.337 0
    vertex 2.59 3.718 0
    vertex 4 0 0
  endloop
endfacet
facet normal -0.7588346728323697 0.6512833018797508 0
  outer loop
    vertex 2.263 3.337 0
    vertex 2.59 3.718 0.8
    vertex 2.59 3.718 0
  endloop
endfacet
facet normal 0 0 1
  outer loop
    vertex 2.263 3.337 0.8
    vertex 4 0 0.8
    vertex 2.59 3.718 0.8
  endloop
endfacet
facet normal -0.7588346728323705 0.6512833018797497 0
  outer loop
    vertex 2.263 3.337 7.2
    vertex 2.263 3.337 8
    vertex 2.59 3.718 8
  endloop
endfacet
facet normal 0 0 -1
  outer loop
    vertex 2.263 3.337 7.2
    vertex 2.59 3.718 7.2
    vertex 4 0 7.2
  endloop
endfacet
facet normal -0.7588346728323684 0.651283301879752 0
  outer loop
    vertex 2.263 3.337 7.2
    vertex 2.59 3.718 8
    vertex 2.59 3.718 7.2
  endloop
endfacet
facet normal 0 0 1
  outer loop
    vertex 2.263 3.337 8
    vertex 4 0 8
    vertex 2.59 3.718 8
  endloop
endfacet
facet normal -0.7588346728323699 -0.6512833018797504 0
  outer loop
    vertex 2.263 7.863 0
    vertex 2.59 7.482 0
    vertex 2.263 7.863 0.8
  endloop
endfacet
facet normal 0 0 -1
  outer loop
    vertex 2.263 7.863 0
    vertex 4 12.8 0
    vertex 2.59 7.482 0
  endloop
endfacet
facet normal -0.7588346728323699 -0.6512833018797504 0
  outer loop
    vertex 2.263 7.863 0.8
    vertex 2.59 7.482 0
    vertex 2.59 7.482 0.8
  endloop
endfacet
facet normal 0 0 1
  outer loop
    vertex 2.263 7.863 0.8
    vertex 2.59 7.482 0.8
    vertex 4 12.8 0.8
  endloop
endfacet
facet normal -0.7588346728323705 -0.6512833018797497 0
  outer loop
    vertex 2.263 7.863 7.2
    vertex 2.59 7.482 7.2
    vertex 2.263 7.863 8
  endloop
endfacet
facet normal 0 0 -1
  outer loop
    vertex 2.263 7.863 7.2
    vertex 4 12.8 7.2
    vertex 2.59 7.482 7.2
  endloop
endfacet
facet normal -0.7588346728323694 -0.651283301879751 0
  outer loop
    vertex 2.263 7.863 8
    vertex 2.59 7.482 7.2
    vertex 2.59 7.482 8
  endloop
endfacet
facet normal 0 0 1
  outer loop
    vertex 2.263 7.863 8
    vertex 2.59 7.482 8
    vertex 4 12.8 8
  endloop
endfacet
facet normal -0.9665383828038027 0.25652203524650674 0
  outer loop
    vertex 2.348 4.743 0.8
    vertex 2.348 4.743 7.2
    vertex 2.46 5.165 7.2
  endloop
endfacet
facet normal 0 0 -1
  outer loop
    vertex 2.348 4.743 0.8
    vertex 2.46 5.165 0.8
    vertex 4 0 0.8
  endloop
endfacet
facet normal -0.9665383828038027 0.25652203524650674 0
  outer loop
    vertex 2.348 4.743 0.8
    vertex 2.46 5.165 7.2
    vertex 2.46 5.165 0.8
  endloop
endfacet
facet normal 0 0 1
  outer loop
    vertex 2.348 4.743 7.2
    vertex 4 0 7.2
    vertex 2.46 5.165 7.2
  endloop
endfacet
facet normal -0.9665383828038027 -0.25652203524650674 0
  outer loop
    vertex 2.348 6.457 0.8
    vertex 2.46 6.035 0.8
    vertex 2.348 6.457 7.2
  endloop
endfacet
facet normal 0 0 -1
  outer loop
    vertex 2.348 6.457 0.8
    vertex 4 12.8 0.8
    vertex 2.46 6.035 0.8
  endloop
endfacet
facet normal -0.9665383828038027 -0.25652203524650674 0
  outer loop
    vertex 2.348 6.457 7.2
    vertex 2.46 6.035 0.8
    vertex 2.46 6.035 7.2
  endloop
endfacet
facet normal 0 0 1
  outer loop
    vertex 2.348 6.457 7.2
    vertex 2.46 6.035 7.2
    vertex 4 12.8 7.2
  endloop
endfacet
facet normal -0.9957988523704411 0.09156771056279915 0
  outer loop
    vertex 2.46 5.165 0.8
    vertex 2.46 5.165 7.2
    vertex 2.5 5.6000000000000005 7.2
  endloop
endfacet
facet normal -2.0266478487167717e-15 0 -1
  outer loop
    vertex 2.46 5.165 0.8
    vertex 2.5 5.6000000000000005 0.8
    vertex 4 0 0.8
  endloop
endfacet
facet normal -0.9957988523704411 0.09156771056279915 0
  outer loop
    vertex 2.46 5.165 0.8
    vertex 2.5 5.6000000000000005 7.2
    vertex 2.5 5.6000000000000005 0.8
  endloop
endfacet
facet normal 0 0 1
  outer loop
    vertex 2.46 5.165 7.2
    vertex 4 0 7.2
    vertex 2.5 5.6000000000000005 7.2
  endloop
endfacet
facet normal -0.9957988523704411 -0.09156771056279935 0
  outer loop
    vertex 2.46 6.035 0.8
    vertex 2.5 5.6000000000000005 0.8
    vertex 2.46 6.035 7.2
  endloop
endfacet
facet normal 0 0 -0.9999999999999999
  outer loop
    vertex 2.46 6.035 0.8
    vertex 4 12.8 0.8
    vertex 2.5 5.6000000000000005 0.8
  endloop
endfacet
facet normal -0.9957988523704411 -0.09156771056279933 0
  outer loop
    vertex 2.46 6.035 7.2
    vertex 2.5 5.6000000000000005 0.8
    vertex 2.5 5.6000000000000005 7.2
  endloop
endfacet
facet normal 0 0 0.9999999999999999
  outer loop
    vertex 2.46 6.035 7.2
    vertex 2.5 5.6000000000000005 7.2
    vertex 4 12.8 7.2
  endloop
endfacet
facet normal 0 0 -1
  outer loop
    vertex 2.5 5.6000000000000005 0.8
    vertex 4 12.8 0.8
    vertex 4 0 0.8
  endloop
endfacet
facet normal 0 0 1
  outer loop
    vertex 2.5 5.6000000000000005 7.2
    vertex 4 0 7.2
    vertex 4 12.8 7.2
  endloop
endfacet
facet normal -0.8505621707721178 0.525874503709224 0
  outer loop
    vertex 2.59 3.718 0
    vertex 2.59 3.718 0.8
    vertex 2.854 4.1450000000000005 0.8
  endloop
endfacet
facet normal 0 0 -1
  outer loop
    vertex 2.59 3.718 0
    vertex 2.854 4.1450000000000005 0
    vertex 4 0 0
  endloop
endfacet
facet normal -0.8505621707721168 0.5258745037092256 0
  outer loop
    vertex 2.59 3.718 0
    vertex 2.854 4.1450000000000005 0.8
    vertex 2.854 4.1450000000000005 0
  endloop
endfacet
facet normal 0 0 1
  outer loop
    vertex 2.59 3.718 0.8
    vertex 4 0 0.8
    vertex 2.854 4.1450000000000005 0.8
  endloop
endfacet
facet normal -0.8505621707721179 0.5258745037092238 0
  outer loop
    vertex 2.59 3.718 7.2
    vertex 2.59 3.718 8
    vertex 2.854 4.1450000000000005 8
  endloop
endfacet
facet normal 0 0 -1
  outer loop
    vertex 2.59 3.718 7.2
    vertex 2.854 4.1450000000000005 7.2
    vertex 4 0 7.2
  endloop
endfacet
facet normal -0.8505621707721174 0.5258745037092248 0
  outer loop
    vertex 2.59 3.718 7.2
    vertex 2.854 4.1450000000000005 8
    vertex 2.854 4.1450000000000005 7.2
  endloop
endfacet
facet normal 0 0 1
  outer loop
    vertex 2.59 3.718 8
    vertex 4 0 8
    vertex 2.854 4.1450000000000005 8
  endloop
endfacet
facet normal -0.8505621707721178 -0.525874503709224 0
  outer loop
    vertex 2.59 7.482 0
    vertex 2.854 7.055 0
    vertex 2.59 7.482 0.8
  endloop
endfacet
facet normal 0 0 -1
  outer loop
    vertex 2.59 7.482 0
    vertex 4 12.8 0
    vertex 2.854 7.055 0
  endloop
endfacet
facet normal -0.8505621707721168 -0.5258745037092256 0
  outer loop
    vertex 2.59 7.482 0.8
    vertex 2.854 7.055 0
    vertex 2.854 7.055 0.8
  endloop
endfacet
facet normal 0 0 1
  outer loop
    vertex 2.59 7.482 0.8
    vertex 2.854 7.055 0.8
    vertex 4 12.8 0.8
  endloop
endfacet
facet normal -0.8505621707721174 -0.5258745037092248 0
  outer loop
    vertex 2.59 7.482 7.2
    vertex 2.854 7.055 7.2
    vertex 2.59 7.482 8
  endloop
endfacet
facet normal 0 0 -1
  outer loop
    vertex 2.59 7.482 7.2
    vertex 4 12.8 7.2
    vertex 2.854 7.055 7.2
  endloop
endfacet
facet normal -0.8505621707721179 -0.5258745037092238 0
  outer loop
    vertex 2.59 7.482 8
    vertex 2.854 7.055 7.2
    vertex 2.854 7.055 8
  endloop
endfacet
facet normal 0 0 1
  outer loop
    vertex 2.59 7.482 8
    vertex 2.854 7.055 8
    vertex 4 12.8 8
  endloop
endfacet
facet normal -0.9257054315077329 0.3782452300784267 0
  outer loop
    vertex 2.854 4.1450000000000005 0
    vertex 2.854 4.1450000000000005 0.8
    vertex 3.044 4.61 0.8
  endloop
endfacet
facet normal 0 0 -0.9999999999999999
  outer loop
    vertex 2.854 4.1450000000000005 0
    vertex 3.044 4.61 0
    vertex 4 0 0
  endloop
endfacet
facet normal -0.9257054315077322 0.37824523007842864 0
  outer loop
    vertex 2.854 4.1450000000000005 0
    vertex 3.044 4.61 0.8
    vertex 3.044 4.61 0
  endloop
endfacet
facet normal 0 0 0.9999999999999999
  outer loop
    vertex 2.854 4.1450000000000005 0.8
    vertex 4 0 0.8
    vertex 3.044 4.61 0.8
  endloop
endfacet
facet normal -0.9257054315077322 0.37824523007842864 0
  outer loop
    vertex 2.854 4.1450000000000005 7.2
    vertex 2.854 4.1450000000000005 8
    vertex 3.044 4.61 8
  endloop
endfacet
facet normal -1.0762211622793919e-14 0 -0.9999999999999999
  outer loop
    vertex 2.854 4.1450000000000005 7.2
    vertex 3.044 4.61 7.2
    vertex 4 0 7.2
  endloop
endfacet
facet normal -0.9257054315077322 0.37824523007842864 0
  outer loop
    vertex 2.854 4.1450000000000005 7.2
    vertex 3.044 4.61 8
    vertex 3.044 4.61 7.2
  endloop
endfacet
facet normal 0 0 0.9999999999999999
  outer loop
    vertex 2.854 4.1450000000000005 8
    vertex 4 0 8
    vertex 3.044 4.61 8
  endloop
endfacet
facet normal -0.9257054315077329 -0.3782452300784267 0
  outer loop
    vertex 2.854 7.055 0
    vertex 3.044 6.59 0
    vertex 2.854 7.055 0.8
  endloop
endfacet
facet normal 0 0 -1
  outer loop
    vertex 2.854 7.055 0
    vertex 4 12.8 0
    vertex 3.044 6.59 0
  endloop
endfacet
facet normal -0.9257054315077322 -0.37824523007842864 0
  outer loop
    vertex 2.854 7.055 0.8
    vertex 3.044 6.59 0
    vertex 3.044 6.59 0.8
  endloop
endfacet
facet normal 0 0 1
  outer loop
    vertex 2.854 7.055 0.8
    vertex 3.044 6.59 0.8
    vertex 4 12.8 0.8
  endloop
endfacet
facet normal -0.9257054315077322 -0.37824523007842864 0
  outer loop
    vertex 2.854 7.055 7.2
    vertex 3.044 6.59 7.2
    vertex 2.854 7.055 8
  endloop
endfacet
facet normal 0 0 -1
  outer loop
    vertex 2.854 7.055 7.2
    vertex 4 12.8 7.2
    vertex 3.044 6.59 7.2
  endloop
endfacet
facet normal -0.9257054315077322 -0.37824523007842864 0
  outer loop
    vertex 2.854 7.055 8
    vertex 3.044 6.59 7.2
    vertex 3.044 6.59 8
  endloop
endfacet
facet normal 0 0 1
  outer loop
    vertex 2.854 7.055 8
    vertex 3.044 6.59 8
    vertex 4 12.8 8
  endloop
endfacet
facet normal -0.9739876256570961 0.22660120270389722 0
  outer loop
    vertex 3.044 4.61 0
    vertex 3.044 4.61 0.8
    vertex 3.158 5.1000000000000005 0.8
  endloop
endfacet
facet normal 0 0 -1
  outer loop
    vertex 3.044 4.61 0
    vertex 3.158 5.1000000000000005 0
    vertex 4 0 0
  endloop
endfacet
facet normal -0.9739876256570964 0.2266012027038951 0
  outer loop
    vertex 3.044 4.61 0
    vertex 3.158 5.1000000000000005 0.8
    vertex 3.158 5.1000000000000005 0
  endloop
endfacet
facet normal 0 0 1
  outer loop
    vertex 3.044 4.61 0.8
    vertex 4 0 0.8
    vertex 3.158 5.1000000000000005 0.8
  endloop
endfacet
facet normal -0.9739876256570964 0.22660120270389503 0
  outer loop
    vertex 3.044 4.61 7.2
    vertex 3.044 4.61 8
    vertex 3.158 5.1000000000000005 8
  endloop
endfacet
facet normal 1.4296922186766342e-14 0 -1
  outer loop
    vertex 3.044 4.61 7.2
    vertex 3.158 5.1000000000000005 7.2
    vertex 4 0 7.2
  endloop
endfacet
facet normal -0.9739876256570963 0.2266012027038955 0
  outer loop
    vertex 3.044 4.61 7.2
    vertex 3.158 5.1000000000000005 8
    vertex 3.158 5.1000000000000005 7.2
  endloop
endfacet
facet normal 0 0 1
  outer loop
    vertex 3.044 4.61 8
    vertex 4 0 8
    vertex 3.158 5.1000000000000005 8
  endloop
endfacet
facet normal -0.9739876256570958 -0.2266012027038976 0
  outer loop
    vertex 3.044 6.59 0
    vertex 3.158 6.1000000000000005 0
    vertex 3.044 6.59 0.8
  endloop
endfacet
facet normal 0 0 -1
  outer loop
    vertex 3.044 6.59 0
    vertex 4 12.8 0
    vertex 3.158 6.1000000000000005 0
  endloop
endfacet
facet normal -0.9739876256570963 -0.2266012027038955 0
  outer loop
    vertex 3.044 6.59 0.8
    vertex 3.158 6.1000000000000005 0
    vertex 3.158 6.1000000000000005 0.8
  endloop
endfacet
facet normal 0 0 1
  outer loop
    vertex 3.044 6.59 0.8
    vertex 3.158 6.1000000000000005 0.8
    vertex 4 12.8 0.8
  endloop
endfacet
facet normal -0.9739876256570963 -0.2266012027038955 0
  outer loop
    vertex 3.044 6.59 7.2
    vertex 3.158 6.1000000000000005 7.2
    vertex 3.044 6.59 8
  endloop
endfacet
facet normal -1.2080156679986062e-14 0 -1
  outer loop
    vertex 3.044 6.59 7.2
    vertex 4 12.8 7.2
    vertex 3.158 6.1000000000000005 7.2
  endloop
endfacet
facet normal -0.9739876256570963 -0.2266012027038955 0
  outer loop
    vertex 3.044 6.59 8
    vertex 3.158 6.1000000000000005 7.2
    vertex 3.158 6.1000000000000005 8
  endloop
endfacet
facet normal 0 0 1
  outer loop
    vertex 3.044 6.59 8
    vertex 3.158 6.1000000000000005 8
    vertex 4 12.8 8
  endloop
endfacet
facet normal -0.9964905610688741 0.08370520712978727 0
  outer loop
    vertex 3.158 5.1000000000000005 0
    vertex 3.158 5.1000000000000005 0.8
    vertex 3.2 5.6000000000000005 0.8
  endloop
endfacet
facet normal 0 0 -1
  outer loop
    vertex 3.158 5.1000000000000005 0
    vertex 3.2 5.6000000000000005 0
    vertex 4 0 0
  endloop
endfacet
facet normal -0.9964905610688742 0.08370520712978506 0
  outer loop
    vertex 3.158 5.1000000000000005 0
    vertex 3.2 5.6000000000000005 0.8
    vertex 3.2 5.6000000000000005 0
  endloop
endfacet
facet normal 2.796531548174191e-15 0 1
  outer loop
    vertex 3.158 5.1000000000000005 0.8
    vertex 4 0 0.8
    vertex 3.2 5.6000000000000005 0.8
  endloop
endfacet
facet normal -0.996490561068874 0.08370520712978718 0
  outer loop
    vertex 3.158 5.1000000000000005 7.2
    vertex 3.158 5.1000000000000005 8
    vertex 3.2 5.6000000000000005 8
  endloop
endfacet
facet normal 0 0 -1
  outer loop
    vertex 3.158 5.1000000000000005 7.2
    vertex 3.2 5.6000000000000005 7.2
    vertex 4 0 7.2
  endloop
endfacet
facet normal -0.9964905610688743 0.08370520712978519 0
  outer loop
    vertex 3.158 5.1000000000000005 7.2
    vertex 3.2 5.6000000000000005 8
    vertex 3.2 5.6000000000000005 7.2
  endloop
endfacet
facet normal 0 0 1
  outer loop
    vertex 3.158 5.1000000000000005 8
    vertex 4 0 8
    vertex 3.2 5.6000000000000005 8
  endloop
endfacet
facet normal -0.9964905610688741 -0.08370520712978727 0
  outer loop
    vertex 3.158 6.1000000000000005 0
    vertex 3.2 5.6000000000000005 0
    vertex 3.158 6.1000000000000005 0.8
  endloop
endfacet
facet normal 0 0 -0.9999999999999999
  outer loop
    vertex 3.158 6.1000000000000005 0
    vertex 4 12.8 0
    vertex 3.2 5.6000000000000005 0
  endloop
endfacet
facet normal -0.9964905610688742 -0.08370520712978506 0
  outer loop
    vertex 3.158 6.1000000000000005 0.8
    vertex 3.2 5.6000000000000005 0
    vertex 3.2 5.6000000000000005 0.8
  endloop
endfacet
facet normal 0 0 0.9999999999999999
  outer loop
    vertex 3.158 6.1000000000000005 0.8
    vertex 3.2 5.6000000000000005 0.8
    vertex 4 12.8 0.8
  endloop
endfacet
facet normal -0.9964905610688739 -0.08370520712978737 0
  outer loop
    vertex 3.158 6.1000000000000005 7.2
    vertex 3.2 5.6000000000000005 7.2
    vertex 3.158 6.1000000000000005 8
  endloop
endfacet
facet normal 0 0 -0.9999999999999999
  outer loop
    vertex 3.158 6.1000000000000005 7.2
    vertex 4 12.8 7.2
    vertex 3.2 5.6000000000000005 7.2
  endloop
endfacet
facet normal -0.9964905610688742 -0.08370520712978499 0
  outer loop
    vertex 3.158 6.1000000000000005 8
    vertex 3.2 5.6000000000000005 7.2
    vertex 3.2 5.6000000000000005 8
  endloop
endfacet
facet normal 0 0 0.9999999999999999
  outer loop
    vertex 3.158 6.1000000000000005 8
    vertex 3.2 5.6000000000000005 8
    vertex 4 12.8 8
  endloop
endfacet
facet normal 0 0 -1
  outer loop
    vertex 3.2 5.6000000000000005 0
    vertex 4 12.8 0
    vertex 4 0 0
  endloop
endfacet
facet normal 0 0 1
  outer loop
    vertex 3.2 5.6000000000000005 0.8
    vertex 4 0 0.8
    vertex 4 12.8 0.8
  endloop
endfacet
facet normal 0 0 -1
  outer loop
    vertex 3.2 5.6000000000000005 7.2
    vertex 4 12.8 7.2
    vertex 4 0 7.2
  endloop
endfacet
facet normal 0 0 1
  outer loop
    vertex 3.2 5.6000000000000005 8
    vertex 4 0 8
    vertex 4 12.8 8
  endloop
endfacet
facet normal 1 0 0
  outer loop
    vertex 4 0 0
    vertex 4 12.8 0
    vertex 4 0 0.8
  endloop
endfacet
facet normal 1 0 0
  outer loop
    vertex 4 0 0.8
    vertex 4 12.8 0
    vertex 4 12.8 0.8
  endloop
endfacet
facet normal 1 0 0
  outer loop
    vertex 4 0 0.8
    vertex 4 12.8 0.8
    vertex 4 0 7.2
  endloop
endfacet
facet normal 1 0 0
  outer loop
    vertex 4 0 7.2
    vertex 4 12.8 0.8
    vertex 4 12.8 7.2
  endloop
endfacet
facet normal 1 0 0
  outer loop
    vertex 4 0 7.2
    vertex 4 12.8 7.2
    vertex 4 0 8
  endloop
endfacet
facet normal 1 0 0
  outer loop
    vertex 4 0 8
    vertex 4 12.8 7.2
    vertex 4 12.8 8
  endloop
endfacet
endsolid JSxCAD
