solid JSxCAD
facet normal 0 0 -1
  outer loop
    vertex -4 0 0
    vertex 0 2.4 0
    vertex 4 0 0
  endloop
endfacet
facet normal 0 0 -1
  outer loop
    vertex -4 0 0
    vertex -0.501 2.439 0
    vertex 0 2.4 0
  endloop
endfacet
facet normal 0 0 -1
  outer loop
    vertex -4 0 0
    vertex -0.989 2.557 0
    vertex -0.501 2.439 0
  endloop
endfacet
facet normal 0 0 -0.9999999999999999
  outer loop
    vertex -4 0 0
    vertex -1.453 2.749 0
    vertex -0.989 2.557 0
  endloop
endfacet
facet normal 0 0 -1
  outer loop
    vertex -4 0 0
    vertex -1.881 3.011 0
    vertex -1.453 2.749 0
  endloop
endfacet
facet normal 0 0 -0.9999999999999999
  outer loop
    vertex -4 0 0
    vertex -2.263 3.337 0
    vertex -1.881 3.011 0
  endloop
endfacet
facet normal 0 0 -1
  outer loop
    vertex -4 0 0
    vertex -2.589 3.719 0
    vertex -2.263 3.337 0
  endloop
endfacet
facet normal 0 0 -0.9999999999999999
  outer loop
    vertex -4 0 0
    vertex -2.851 4.147 0
    vertex -2.589 3.719 0
  endloop
endfacet
facet normal 0 0 -1
  outer loop
    vertex -4 0 0
    vertex -3.043 4.611 0
    vertex -2.851 4.147 0
  endloop
endfacet
facet normal 0 0 -1
  outer loop
    vertex -4 0 0
    vertex -3.2 5.6000000000000005 0
    vertex -3.161 5.099 0
  endloop
endfacet
facet normal 0 0 -1
  outer loop
    vertex -4 0 0
    vertex -3.161 5.099 0
    vertex -3.043 4.611 0
  endloop
endfacet
facet normal 0 0 -1
  outer loop
    vertex -4 0 0
    vertex -4 12.8 0
    vertex -3.2 5.6000000000000005 0
  endloop
endfacet
facet normal 0 -1 0
  outer loop
    vertex -4 0 0
    vertex 4 0 0
    vertex -4 0 0.8
  endloop
endfacet
facet normal -1 0 0
  outer loop
    vertex -4 0 0
    vertex -4 0 0.8
    vertex -4 12.8 0.8
  endloop
endfacet
facet normal -1 0 0
  outer loop
    vertex -4 0 0
    vertex -4 12.8 0.8
    vertex -4 12.8 0
  endloop
endfacet
facet normal 0 0 -1
  outer loop
    vertex -4 0 0.8
    vertex 0 3.1 0.8
    vertex 4 0 0.8
  endloop
endfacet
facet normal 1.2048299819793519e-16 0 -0.9999999999999999
  outer loop
    vertex -4 0 0.8
    vertex -0.434 3.138 0.8
    vertex 0 3.1 0.8
  endloop
endfacet
facet normal 2.0928698545939097e-16 0 -1
  outer loop
    vertex -4 0 0.8
    vertex -0.855 3.251 0.8
    vertex -0.434 3.138 0.8
  endloop
endfacet
facet normal -8.939833515964909e-17 0 -1
  outer loop
    vertex -4 0 0.8
    vertex -1.25 3.435 0.8
    vertex -0.855 3.251 0.8
  endloop
endfacet
facet normal -1.7403478815000942e-16 0 -1
  outer loop
    vertex -4 0 0.8
    vertex -1.607 3.685 0.8
    vertex -1.25 3.435 0.8
  endloop
endfacet
facet normal 3.8548916360385936e-16 0 -1
  outer loop
    vertex -4 0 0.8
    vertex -1.915 3.993 0.8
    vertex -1.607 3.685 0.8
  endloop
endfacet
facet normal 0 0 -1
  outer loop
    vertex -4 0 0.8
    vertex -2.165 4.3500000000000005 0.8
    vertex -1.915 3.993 0.8
  endloop
endfacet
facet normal -2.1837231056896323e-16 0 -0.9999999999999999
  outer loop
    vertex -4 0 0.8
    vertex -2.349 4.745 0.8
    vertex -2.165 4.3500000000000005 0.8
  endloop
endfacet
facet normal 5.141111482404068e-16 0 -1
  outer loop
    vertex -4 0 0.8
    vertex -2.5 5.6000000000000005 0.8
    vertex -2.462 5.166 0.8
  endloop
endfacet
facet normal 0 0 -1
  outer loop
    vertex -4 0 0.8
    vertex -2.462 5.166 0.8
    vertex -2.349 4.745 0.8
  endloop
endfacet
facet normal -9.25185853854297e-17 0 -1
  outer loop
    vertex -4 0 0.8
    vertex -4 12.8 0.8
    vertex -2.5 5.6000000000000005 0.8
  endloop
endfacet
facet normal 0 -1 0
  outer loop
    vertex -4 0 0.8
    vertex 4 0 0.8
    vertex -4 0 7.2
  endloop
endfacet
facet normal -1 0 0
  outer loop
    vertex -4 0 0.8
    vertex -4 0 7.2
    vertex -4 12.8 7.2
  endloop
endfacet
facet normal -1 0 0
  outer loop
    vertex -4 0 0.8
    vertex -4 12.8 7.2
    vertex -4 12.8 0.8
  endloop
endfacet
facet normal 0 0 1
  outer loop
    vertex -4 0 0.8
    vertex 4 0 0.8
    vertex 0 2.4 0.8
  endloop
endfacet
facet normal 0 0 1
  outer loop
    vertex -4 0 0.8
    vertex 0 2.4 0.8
    vertex -0.501 2.439 0.8
  endloop
endfacet
facet normal -1.2119476800115434e-16 0 1
  outer loop
    vertex -4 0 0.8
    vertex -0.501 2.439 0.8
    vertex -0.989 2.557 0.8
  endloop
endfacet
facet normal 2.831302767156234e-16 0 0.9999999999999999
  outer loop
    vertex -4 0 0.8
    vertex -0.989 2.557 0.8
    vertex -1.453 2.749 0.8
  endloop
endfacet
facet normal 0 0 1
  outer loop
    vertex -4 0 0.8
    vertex -1.453 2.749 0.8
    vertex -1.881 3.011 0.8
  endloop
endfacet
facet normal 6.030556419596545e-17 0 0.9999999999999999
  outer loop
    vertex -4 0 0.8
    vertex -1.881 3.011 0.8
    vertex -2.263 3.337 0.8
  endloop
endfacet
facet normal -1.267814959752285e-16 0 1
  outer loop
    vertex -4 0 0.8
    vertex -2.263 3.337 0.8
    vertex -2.589 3.719 0.8
  endloop
endfacet
facet normal 2.1103076843331747e-16 0 0.9999999999999999
  outer loop
    vertex -4 0 0.8
    vertex -2.589 3.719 0.8
    vertex -2.851 4.147 0.8
  endloop
endfacet
facet normal -1.6703120668970878e-16 0 1
  outer loop
    vertex -4 0 0.8
    vertex -2.851 4.147 0.8
    vertex -3.043 4.611 0.8
  endloop
endfacet
facet normal 0 0 1
  outer loop
    vertex -4 0 0.8
    vertex -3.161 5.099 0.8
    vertex -3.2 5.6000000000000005 0.8
  endloop
endfacet
facet normal -5.490098172041713e-16 0 1
  outer loop
    vertex -4 0 0.8
    vertex -3.043 4.611 0.8
    vertex -3.161 5.099 0.8
  endloop
endfacet
facet normal 1.7347234759768073e-16 0 1
  outer loop
    vertex -4 0 0.8
    vertex -3.2 5.6000000000000005 0.8
    vertex -4 12.8 0.8
  endloop
endfacet
facet normal 0 -1 0
  outer loop
    vertex -4 0 0.8
    vertex 4 0 0
    vertex 4 0 0.8
  endloop
endfacet
facet normal 0 0 1
  outer loop
    vertex -4 0 7.2
    vertex 4 0 7.2
    vertex 0 3.1 7.2
  endloop
endfacet
facet normal -5.190036845449516e-16 0 0.9999999999999999
  outer loop
    vertex -4 0 7.2
    vertex 0 3.1 7.2
    vertex -0.434 3.138 7.2
  endloop
endfacet
facet normal 1.1591279194673962e-15 0 1
  outer loop
    vertex -4 0 7.2
    vertex -0.434 3.138 7.2
    vertex -0.855 3.251 7.2
  endloop
endfacet
facet normal -1.6687689229801164e-15 0 1
  outer loop
    vertex -4 0 7.2
    vertex -0.855 3.251 7.2
    vertex -1.25 3.435 7.2
  endloop
endfacet
facet normal 6.961391526000377e-16 0 1
  outer loop
    vertex -4 0 7.2
    vertex -1.25 3.435 7.2
    vertex -1.607 3.685 7.2
  endloop
endfacet
facet normal 2.3722410067929805e-15 0 1
  outer loop
    vertex -4 0 7.2
    vertex -1.607 3.685 7.2
    vertex -1.915 3.993 7.2
  endloop
endfacet
facet normal -2.0387489226128273e-15 0 1
  outer loop
    vertex -4 0 7.2
    vertex -1.915 3.993 7.2
    vertex -2.165 4.3500000000000005 7.2
  endloop
endfacet
facet normal 5.823261615172352e-16 0 0.9999999999999999
  outer loop
    vertex -4 0 7.2
    vertex -2.165 4.3500000000000005 7.2
    vertex -2.349 4.745 7.2
  endloop
endfacet
facet normal -2.056444592961627e-15 0 1
  outer loop
    vertex -4 0 7.2
    vertex -2.462 5.166 7.2
    vertex -2.5 5.6000000000000005 7.2
  endloop
endfacet
facet normal 5.770877346060442e-15 0 1
  outer loop
    vertex -4 0 7.2
    vertex -2.349 4.745 7.2
    vertex -2.462 5.166 7.2
  endloop
endfacet
facet normal 0 0 1
  outer loop
    vertex -4 0 7.2
    vertex -2.5 5.6000000000000005 7.2
    vertex -4 12.8 7.2
  endloop
endfacet
facet normal 0 -1 0
  outer loop
    vertex -4 0 7.2
    vertex 4 0 0.8
    vertex 4 0 7.2
  endloop
endfacet
facet normal 0 0 -1
  outer loop
    vertex -4 0 7.2
    vertex 0 2.4 7.2
    vertex 4 0 7.2
  endloop
endfacet
facet normal 2.6153663713195643e-15 0 -1
  outer loop
    vertex -4 0 7.2
    vertex -0.501 2.439 7.2
    vertex 0 2.4 7.2
  endloop
endfacet
facet normal 4.155249188611006e-16 0 -1
  outer loop
    vertex -4 0 7.2
    vertex -0.989 2.557 7.2
    vertex -0.501 2.439 7.2
  endloop
endfacet
facet normal 7.550140712416624e-16 0 -0.9999999999999999
  outer loop
    vertex -4 0 7.2
    vertex -1.453 2.749 7.2
    vertex -0.989 2.557 7.2
  endloop
endfacet
facet normal -1.92675343204542e-15 0 -1
  outer loop
    vertex -4 0 7.2
    vertex -1.881 3.011 7.2
    vertex -1.453 2.749 7.2
  endloop
endfacet
facet normal -4.824445135677236e-16 0 -0.9999999999999999
  outer loop
    vertex -4 0 7.2
    vertex -2.263 3.337 7.2
    vertex -1.881 3.011 7.2
  endloop
endfacet
facet normal 2.53562991950457e-15 0 -1
  outer loop
    vertex -4 0 7.2
    vertex -2.589 3.719 7.2
    vertex -2.263 3.337 7.2
  endloop
endfacet
facet normal -2.8137435791108993e-15 0 -0.9999999999999999
  outer loop
    vertex -4 0 7.2
    vertex -2.851 4.147 7.2
    vertex -2.589 3.719 7.2
  endloop
endfacet
facet normal 3.3406241337941755e-15 0 -1
  outer loop
    vertex -4 0 7.2
    vertex -3.043 4.611 7.2
    vertex -2.851 4.147 7.2
  endloop
endfacet
facet normal -1.1475173381138549e-14 0 -1
  outer loop
    vertex -4 0 7.2
    vertex -3.2 5.6000000000000005 7.2
    vertex -3.161 5.099 7.2
  endloop
endfacet
facet normal -8.784157075266741e-16 0 -1
  outer loop
    vertex -4 0 7.2
    vertex -3.161 5.099 7.2
    vertex -3.043 4.611 7.2
  endloop
endfacet
facet normal 0 0 -1
  outer loop
    vertex -4 0 7.2
    vertex -4 12.8 7.2
    vertex -3.2 5.6000000000000005 7.2
  endloop
endfacet
facet normal 0 -1 0
  outer loop
    vertex -4 0 7.2
    vertex 4 0 7.2
    vertex -4 0 8
  endloop
endfacet
facet normal -1 0 0
  outer loop
    vertex -4 0 7.2
    vertex -4 0 8
    vertex -4 12.8 8
  endloop
endfacet
facet normal -1 0 0
  outer loop
    vertex -4 0 7.2
    vertex -4 12.8 8
    vertex -4 12.8 7.2
  endloop
endfacet
facet normal 0 0 1
  outer loop
    vertex -4 0 8
    vertex 4 0 8
    vertex 0 2.4 8
  endloop
endfacet
facet normal 0 0 1
  outer loop
    vertex -4 0 8
    vertex 0 2.4 8
    vertex -0.501 2.439 8
  endloop
endfacet
facet normal 0 0 1
  outer loop
    vertex -4 0 8
    vertex -0.501 2.439 8
    vertex -0.989 2.557 8
  endloop
endfacet
facet normal 0 0 0.9999999999999999
  outer loop
    vertex -4 0 8
    vertex -0.989 2.557 8
    vertex -1.453 2.749 8
  endloop
endfacet
facet normal 0 0 1
  outer loop
    vertex -4 0 8
    vertex -1.453 2.749 8
    vertex -1.881 3.011 8
  endloop
endfacet
facet normal 0 0 0.9999999999999999
  outer loop
    vertex -4 0 8
    vertex -1.881 3.011 8
    vertex -2.263 3.337 8
  endloop
endfacet
facet normal 0 0 1
  outer loop
    vertex -4 0 8
    vertex -2.263 3.337 8
    vertex -2.589 3.719 8
  endloop
endfacet
facet normal 0 0 0.9999999999999999
  outer loop
    vertex -4 0 8
    vertex -2.589 3.719 8
    vertex -2.851 4.147 8
  endloop
endfacet
facet normal 0 0 1
  outer loop
    vertex -4 0 8
    vertex -2.851 4.147 8
    vertex -3.043 4.611 8
  endloop
endfacet
facet normal 0 0 1
  outer loop
    vertex -4 0 8
    vertex -3.161 5.099 8
    vertex -3.2 5.6000000000000005 8
  endloop
endfacet
facet normal 0 0 1
  outer loop
    vertex -4 0 8
    vertex -3.043 4.611 8
    vertex -3.161 5.099 8
  endloop
endfacet
facet normal 0 0 1
  outer loop
    vertex -4 0 8
    vertex -3.2 5.6000000000000005 8
    vertex -4 12.8 8
  endloop
endfacet
facet normal 0 -1 0
  outer loop
    vertex -4 0 8
    vertex 4 0 7.2
    vertex 4 0 8
  endloop
endfacet
facet normal 0 0 -1
  outer loop
    vertex -4 12.8 0
    vertex 4 12.8 0
    vertex 0 8.8 0
  endloop
endfacet
facet normal 0 1 0
  outer loop
    vertex -4 12.8 0
    vertex -4 12.8 0.8
    vertex 4 12.8 0.8
  endloop
endfacet
facet normal 0 1 0
  outer loop
    vertex -4 12.8 0
    vertex 4 12.8 0.8
    vertex 4 12.8 0
  endloop
endfacet
facet normal 0 0 -1
  outer loop
    vertex -4 12.8 0.8
    vertex 4 12.8 0.8
    vertex 0 8.1 0.8
  endloop
endfacet
facet normal 0 1 0
  outer loop
    vertex -4 12.8 0.8
    vertex -4 12.8 7.2
    vertex 4 12.8 7.2
  endloop
endfacet
facet normal 0 1 0
  outer loop
    vertex -4 12.8 0.8
    vertex 4 12.8 7.2
    vertex 4 12.8 0.8
  endloop
endfacet
facet normal 0 0 -1
  outer loop
    vertex -4 12.8 7.2
    vertex 4 12.8 7.2
    vertex 0 8.8 7.2
  endloop
endfacet
facet normal 0 1 0
  outer loop
    vertex -4 12.8 7.2
    vertex -4 12.8 8
    vertex 4 12.8 8
  endloop
endfacet
facet normal 0 1 0
  outer loop
    vertex -4 12.8 7.2
    vertex 4 12.8 8
    vertex 4 12.8 7.2
  endloop
endfacet
facet normal 0.9969838325773893 0.07760951990123413 0
  outer loop
    vertex -3.2 5.6000000000000005 0
    vertex -3.161 5.099 0.8
    vertex -3.161 5.099 0
  endloop
endfacet
facet normal 0.9969838325773894 -0.07760951990123427 0
  outer loop
    vertex -3.2 5.6000000000000005 0
    vertex -3.161 6.101 0
    vertex -3.2 5.6000000000000005 0.8
  endloop
endfacet
facet normal 0 0 1
  outer loop
    vertex -3.2 5.6000000000000005 0.8
    vertex -3.161 6.101 0.8
    vertex -4 12.8 0.8
  endloop
endfacet
facet normal 0.9969838325773894 -0.07760951990123427 0
  outer loop
    vertex -3.2 5.6000000000000005 0.8
    vertex -3.161 6.101 0
    vertex -3.161 6.101 0.8
  endloop
endfacet
facet normal 0.9969838325773893 0.07760951990123413 0
  outer loop
    vertex -3.2 5.6000000000000005 7.2
    vertex -3.161 5.099 8
    vertex -3.161 5.099 7.2
  endloop
endfacet
facet normal 0.9969838325773893 -0.07760951990123448 0
  outer loop
    vertex -3.2 5.6000000000000005 7.2
    vertex -3.161 6.101 7.2
    vertex -3.2 5.6000000000000005 8
  endloop
endfacet
facet normal 0 0 1
  outer loop
    vertex -3.2 5.6000000000000005 8
    vertex -3.161 6.101 8
    vertex -4 12.8 8
  endloop
endfacet
facet normal 0.9969838325773893 -0.07760951990123413 0
  outer loop
    vertex -3.2 5.6000000000000005 8
    vertex -3.161 6.101 7.2
    vertex -3.161 6.101 8
  endloop
endfacet
facet normal 0.9719881365144303 0.2350299182555389 0
  outer loop
    vertex -3.161 5.099 0
    vertex -3.043 4.611 0.8
    vertex -3.043 4.611 0
  endloop
endfacet
facet normal 0.9969838325773893 0.07760951990123413 0
  outer loop
    vertex -3.161 5.099 0.8
    vertex -3.2 5.6000000000000005 0
    vertex -3.2 5.6000000000000005 0.8
  endloop
endfacet
facet normal 0.9719881365144302 0.23502991825553932 0
  outer loop
    vertex -3.161 5.099 7.2
    vertex -3.043 4.611 8
    vertex -3.043 4.611 7.2
  endloop
endfacet
facet normal 0.9969838325773893 0.07760951990123413 0
  outer loop
    vertex -3.161 5.099 8
    vertex -3.2 5.6000000000000005 7.2
    vertex -3.2 5.6000000000000005 8
  endloop
endfacet
facet normal 0 0 -1
  outer loop
    vertex -3.161 6.101 0
    vertex -3.2 5.6000000000000005 0
    vertex -4 12.8 0
  endloop
endfacet
facet normal 0.9719881365144303 -0.2350299182555389 0
  outer loop
    vertex -3.161 6.101 0
    vertex -3.043 6.589 0
    vertex -3.161 6.101 0.8
  endloop
endfacet
facet normal 0 0 1
  outer loop
    vertex -3.161 6.101 0.8
    vertex -3.043 6.589 0.8
    vertex -4 12.8 0.8
  endloop
endfacet
facet normal 0.9719881365144303 -0.2350299182555389 0
  outer loop
    vertex -3.161 6.101 0.8
    vertex -3.043 6.589 0
    vertex -3.043 6.589 0.8
  endloop
endfacet
facet normal 0 0 -1
  outer loop
    vertex -3.161 6.101 7.2
    vertex -3.2 5.6000000000000005 7.2
    vertex -4 12.8 7.2
  endloop
endfacet
facet normal 0.9719881365144306 -0.2350299182555372 0
  outer loop
    vertex -3.161 6.101 7.2
    vertex -3.043 6.589 7.2
    vertex -3.161 6.101 8
  endloop
endfacet
facet normal 0 0 1
  outer loop
    vertex -3.161 6.101 8
    vertex -3.043 6.589 8
    vertex -4 12.8 8
  endloop
endfacet
facet normal 0.9719881365144304 -0.23502991825553882 0
  outer loop
    vertex -3.161 6.101 8
    vertex -3.043 6.589 7.2
    vertex -3.043 6.589 8
  endloop
endfacet
facet normal 0.9240168324218908 0.3823517927262999 0
  outer loop
    vertex -3.043 4.611 0
    vertex -2.851 4.147 0.8
    vertex -2.851 4.147 0
  endloop
endfacet
facet normal 0.9719881365144303 0.2350299182555389 0
  outer loop
    vertex -3.043 4.611 0.8
    vertex -3.161 5.099 0
    vertex -3.161 5.099 0.8
  endloop
endfacet
facet normal 0.9240168324218897 0.38235179272630226 0
  outer loop
    vertex -3.043 4.611 7.2
    vertex -2.851 4.147 8
    vertex -2.851 4.147 7.2
  endloop
endfacet
facet normal 0.9719881365144308 0.23502991825553673 0
  outer loop
    vertex -3.043 4.611 8
    vertex -3.161 5.099 7.2
    vertex -3.161 5.099 8
  endloop
endfacet
facet normal 0 0 -1
  outer loop
    vertex -3.043 6.589 0
    vertex -3.161 6.101 0
    vertex -4 12.8 0
  endloop
endfacet
facet normal 0.9240168324218908 -0.3823517927262999 0
  outer loop
    vertex -3.043 6.589 0
    vertex -2.851 7.053 0
    vertex -3.043 6.589 0.8
  endloop
endfacet
facet normal 0 0 1
  outer loop
    vertex -3.043 6.589 0.8
    vertex -2.851 7.053 0.8
    vertex -4 12.8 0.8
  endloop
endfacet
facet normal 0.9240168324218908 -0.3823517927262999 0
  outer loop
    vertex -3.043 6.589 0.8
    vertex -2.851 7.053 0
    vertex -2.851 7.053 0.8
  endloop
endfacet
facet normal 0 0 -1
  outer loop
    vertex -3.043 6.589 7.2
    vertex -3.161 6.101 7.2
    vertex -4 12.8 7.2
  endloop
endfacet
facet normal 0.9240168324218906 -0.3823517927263004 0
  outer loop
    vertex -3.043 6.589 7.2
    vertex -2.851 7.053 7.2
    vertex -3.043 6.589 8
  endloop
endfacet
facet normal 0 0 1
  outer loop
    vertex -3.043 6.589 8
    vertex -2.851 7.053 8
    vertex -4 12.8 8
  endloop
endfacet
facet normal 0.9240168324218901 -0.3823517927263015 0
  outer loop
    vertex -3.043 6.589 8
    vertex -2.851 7.053 7.2
    vertex -2.851 7.053 8
  endloop
endfacet
facet normal 0.852887522464055 0.5220946983307974 0
  outer loop
    vertex -2.851 4.147 0
    vertex -2.589 3.719 0.8
    vertex -2.589 3.719 0
  endloop
endfacet
facet normal 0.9240168324218908 0.3823517927262999 0
  outer loop
    vertex -2.851 4.147 0.8
    vertex -3.043 4.611 0
    vertex -3.043 4.611 0.8
  endloop
endfacet
facet normal 0.8528875224640544 0.5220946983307981 0
  outer loop
    vertex -2.851 4.147 7.2
    vertex -2.589 3.719 8
    vertex -2.589 3.719 7.2
  endloop
endfacet
facet normal 0.9240168324218908 0.38235179272629954 0
  outer loop
    vertex -2.851 4.147 8
    vertex -3.043 4.611 7.2
    vertex -3.043 4.611 8
  endloop
endfacet
facet normal 0 0 -1
  outer loop
    vertex -2.851 7.053 0
    vertex -3.043 6.589 0
    vertex -4 12.8 0
  endloop
endfacet
facet normal 0.8528875224640526 -0.5220946983308008 0
  outer loop
    vertex -2.851 7.053 0
    vertex -2.589 7.481 0
    vertex -2.851 7.053 0.8
  endloop
endfacet
facet normal 0 0 1
  outer loop
    vertex -2.851 7.053 0.8
    vertex -2.589 7.481 0.8
    vertex -4 12.8 0.8
  endloop
endfacet
facet normal 0.8528875224640546 -0.5220946983307977 0
  outer loop
    vertex -2.851 7.053 0.8
    vertex -2.589 7.481 0
    vertex -2.589 7.481 0.8
  endloop
endfacet
facet normal 0 0 -1
  outer loop
    vertex -2.851 7.053 7.2
    vertex -3.043 6.589 7.2
    vertex -4 12.8 7.2
  endloop
endfacet
facet normal 0.8528875224640535 -0.5220946983307998 0
  outer loop
    vertex -2.851 7.053 7.2
    vertex -2.589 7.481 7.2
    vertex -2.851 7.053 8
  endloop
endfacet
facet normal 0 0 1
  outer loop
    vertex -2.851 7.053 8
    vertex -2.589 7.481 8
    vertex -4 12.8 8
  endloop
endfacet
facet normal 0.852887522464055 -0.522094698330797 0
  outer loop
    vertex -2.851 7.053 8
    vertex -2.589 7.481 7.2
    vertex -2.589 7.481 8
  endloop
endfacet
facet normal 0.7606604251015173 0.6491499962908256 0
  outer loop
    vertex -2.589 3.719 0
    vertex -2.263 3.337 0.8
    vertex -2.263 3.337 0
  endloop
endfacet
facet normal 0.8528875224640529 0.5220946983308005 0
  outer loop
    vertex -2.589 3.719 0.8
    vertex -2.851 4.147 0
    vertex -2.851 4.147 0.8
  endloop
endfacet
facet normal 0.7606604251015172 0.6491499962908257 0
  outer loop
    vertex -2.589 3.719 7.2
    vertex -2.263 3.337 8
    vertex -2.263 3.337 7.2
  endloop
endfacet
facet normal 0.8528875224640541 0.5220946983307987 0
  outer loop
    vertex -2.589 3.719 8
    vertex -2.851 4.147 7.2
    vertex -2.851 4.147 8
  endloop
endfacet
facet normal 0 0 -1
  outer loop
    vertex -2.589 7.481 0
    vertex -2.851 7.053 0
    vertex -4 12.8 0
  endloop
endfacet
facet normal 0.7606604251015192 -0.6491499962908235 0
  outer loop
    vertex -2.589 7.481 0
    vertex -2.263 7.863 0
    vertex -2.589 7.481 0.8
  endloop
endfacet
facet normal 3.9075230211585187e-16 0 1
  outer loop
    vertex -2.589 7.481 0.8
    vertex -2.263 7.863 0.8
    vertex -4 12.8 0.8
  endloop
endfacet
facet normal 0.760660425101518 -0.6491499962908247 0
  outer loop
    vertex -2.589 7.481 0.8
    vertex -2.263 7.863 0
    vertex -2.263 7.863 0.8
  endloop
endfacet
facet normal 0 0 -1
  outer loop
    vertex -2.589 7.481 7.2
    vertex -2.851 7.053 7.2
    vertex -4 12.8 7.2
  endloop
endfacet
facet normal 0.7606604251015182 -0.6491499962908246 0
  outer loop
    vertex -2.589 7.481 7.2
    vertex -2.263 7.863 7.2
    vertex -2.589 7.481 8
  endloop
endfacet
facet normal 0 0 1
  outer loop
    vertex -2.589 7.481 8
    vertex -2.263 7.863 8
    vertex -4 12.8 8
  endloop
endfacet
facet normal 0.7606604251015192 -0.6491499962908236 0
  outer loop
    vertex -2.589 7.481 8
    vertex -2.263 7.863 7.2
    vertex -2.263 7.863 8
  endloop
endfacet
facet normal 0.9961887329066084 0.08722389827292686 0
  outer loop
    vertex -2.5 5.6000000000000005 0.8
    vertex -2.462 5.166 7.2
    vertex -2.462 5.166 0.8
  endloop
endfacet
facet normal 0.9961887329066083 -0.08722389827292958 0
  outer loop
    vertex -2.5 5.6000000000000005 0.8
    vertex -2.462 6.034 0.8
    vertex -2.5 5.6000000000000005 7.2
  endloop
endfacet
facet normal 0 0 0.9999999999999999
  outer loop
    vertex -2.5 5.6000000000000005 7.2
    vertex -2.462 6.034 7.2
    vertex -4 12.8 7.2
  endloop
endfacet
facet normal 0.9961887329066085 -0.08722389827292704 0
  outer loop
    vertex -2.5 5.6000000000000005 7.2
    vertex -2.462 6.034 0.8
    vertex -2.462 6.034 7.2
  endloop
endfacet
facet normal 0.9658148237499075 0.2592329574435612 0
  outer loop
    vertex -2.462 5.166 0.8
    vertex -2.349 4.745 7.2
    vertex -2.349 4.745 0.8
  endloop
endfacet
facet normal 0.9961887329066081 0.08722389827292937 0
  outer loop
    vertex -2.462 5.166 7.2
    vertex -2.5 5.6000000000000005 0.8
    vertex -2.5 5.6000000000000005 7.2
  endloop
endfacet
facet normal -1.9212165686786295e-15 0 -0.9999999999999999
  outer loop
    vertex -2.462 6.034 0.8
    vertex -2.5 5.6000000000000005 0.8
    vertex -4 12.8 0.8
  endloop
endfacet
facet normal 0.965814823749907 -0.25923295744356234 0
  outer loop
    vertex -2.462 6.034 0.8
    vertex -2.349 6.455 0.8
    vertex -2.462 6.034 7.2
  endloop
endfacet
facet normal 1.0063945562500307e-14 0 0.9999999999999999
  outer loop
    vertex -2.462 6.034 7.2
    vertex -2.349 6.455 7.2
    vertex -4 12.8 7.2
  endloop
endfacet
facet normal 0.9658148237499075 -0.2592329574435612 0
  outer loop
    vertex -2.462 6.034 7.2
    vertex -2.349 6.455 0.8
    vertex -2.349 6.455 7.2
  endloop
endfacet
facet normal 0.9064760633863701 0.42225720421035956 0
  outer loop
    vertex -2.349 4.745 0.8
    vertex -2.165 4.3500000000000005 7.2
    vertex -2.165 4.3500000000000005 0.8
  endloop
endfacet
facet normal 0.965814823749907 0.25923295744356234 0
  outer loop
    vertex -2.349 4.745 7.2
    vertex -2.462 5.166 0.8
    vertex -2.462 5.166 7.2
  endloop
endfacet
facet normal 0 0 -0.9999999999999999
  outer loop
    vertex -2.349 6.455 0.8
    vertex -2.462 6.034 0.8
    vertex -4 12.8 0.8
  endloop
endfacet
facet normal 0.9064760633863701 -0.42225720421035984 0
  outer loop
    vertex -2.349 6.455 0.8
    vertex -2.165 6.8500000000000005 0.8
    vertex -2.349 6.455 7.2
  endloop
endfacet
facet normal 0 0 1
  outer loop
    vertex -2.349 6.455 7.2
    vertex -2.165 6.8500000000000005 7.2
    vertex -4 12.8 7.2
  endloop
endfacet
facet normal 0.9064760633863705 -0.4222572042103588 0
  outer loop
    vertex -2.349 6.455 7.2
    vertex -2.165 6.8500000000000005 0.8
    vertex -2.165 6.8500000000000005 7.2
  endloop
endfacet
facet normal 0.6491499962908245 0.7606604251015182 0
  outer loop
    vertex -2.263 3.337 0
    vertex -1.881 3.011 0.8
    vertex -1.881 3.011 0
  endloop
endfacet
facet normal 0.7606604251015185 0.6491499962908245 0
  outer loop
    vertex -2.263 3.337 0.8
    vertex -2.589 3.719 0
    vertex -2.589 3.719 0.8
  endloop
endfacet
facet normal 0.6491499962908239 0.7606604251015188 0
  outer loop
    vertex -2.263 3.337 7.2
    vertex -1.881 3.011 8
    vertex -1.881 3.011 7.2
  endloop
endfacet
facet normal 0.7606604251015182 0.6491499962908246 0
  outer loop
    vertex -2.263 3.337 8
    vertex -2.589 3.719 7.2
    vertex -2.589 3.719 8
  endloop
endfacet
facet normal 0 0 -1
  outer loop
    vertex -2.263 7.863 0
    vertex -2.589 7.481 0
    vertex -4 12.8 0
  endloop
endfacet
facet normal 0.6491499962908246 -0.7606604251015183 0
  outer loop
    vertex -2.263 7.863 0
    vertex -1.881 8.189 0
    vertex -2.263 7.863 0.8
  endloop
endfacet
facet normal 0 0 1
  outer loop
    vertex -2.263 7.863 0.8
    vertex -1.881 8.189 0.8
    vertex -4 12.8 0.8
  endloop
endfacet
facet normal 0.6491499962908239 -0.7606604251015188 0
  outer loop
    vertex -2.263 7.863 0.8
    vertex -1.881 8.189 0
    vertex -1.881 8.189 0.8
  endloop
endfacet
facet normal 6.2520368338536395e-15 0 -1
  outer loop
    vertex -2.263 7.863 7.2
    vertex -2.589 7.481 7.2
    vertex -4 12.8 7.2
  endloop
endfacet
facet normal 0.6491499962908246 -0.7606604251015183 0
  outer loop
    vertex -2.263 7.863 7.2
    vertex -1.881 8.189 7.2
    vertex -2.263 7.863 8
  endloop
endfacet
facet normal 0 0 1
  outer loop
    vertex -2.263 7.863 8
    vertex -1.881 8.189 8
    vertex -4 12.8 8
  endloop
endfacet
facet normal 0.6491499962908239 -0.7606604251015188 0
  outer loop
    vertex -2.263 7.863 8
    vertex -1.881 8.189 7.2
    vertex -1.881 8.189 8
  endloop
endfacet
facet normal 0.8191241123743581 0.573616325192127 0
  outer loop
    vertex -2.165 4.3500000000000005 0.8
    vertex -1.915 3.993 7.2
    vertex -1.915 3.993 0.8
  endloop
endfacet
facet normal 0.9064760633863698 0.42225720421036056 0
  outer loop
    vertex -2.165 4.3500000000000005 7.2
    vertex -2.349 4.745 0.8
    vertex -2.349 4.745 7.2
  endloop
endfacet
facet normal 9.762213859450428e-16 0 -1
  outer loop
    vertex -2.165 6.8500000000000005 0.8
    vertex -2.349 6.455 0.8
    vertex -4 12.8 0.8
  endloop
endfacet
facet normal 0.8191241123743572 -0.5736163251921285 0
  outer loop
    vertex -2.165 6.8500000000000005 0.8
    vertex -1.915 7.207 0.8
    vertex -2.165 6.8500000000000005 7.2
  endloop
endfacet
facet normal 6.632543581592416e-15 0 1
  outer loop
    vertex -2.165 6.8500000000000005 7.2
    vertex -1.915 7.207 7.2
    vertex -4 12.8 7.2
  endloop
endfacet
facet normal 0.8191241123743572 -0.5736163251921284 0
  outer loop
    vertex -2.165 6.8500000000000005 7.2
    vertex -1.915 7.207 0.8
    vertex -1.915 7.207 7.2
  endloop
endfacet
facet normal 0.7071067811865468 0.7071067811865482 0
  outer loop
    vertex -1.915 3.993 0.8
    vertex -1.607 3.685 7.2
    vertex -1.607 3.685 0.8
  endloop
endfacet
facet normal 0.8191241123743581 0.573616325192127 0
  outer loop
    vertex -1.915 3.993 7.2
    vertex -2.165 4.3500000000000005 0.8
    vertex -2.165 4.3500000000000005 7.2
  endloop
endfacet
facet normal 0 0 -1
  outer loop
    vertex -1.915 7.207 0.8
    vertex -2.165 6.8500000000000005 0.8
    vertex -4 12.8 0.8
  endloop
endfacet
facet normal 0.7071067811865489 -0.7071067811865459 0
  outer loop
    vertex -1.915 7.207 0.8
    vertex -1.607 7.515000000000001 0.8
    vertex -1.915 7.207 7.2
  endloop
endfacet
facet normal 0 0 1
  outer loop
    vertex -1.915 7.207 7.2
    vertex -1.607 7.515000000000001 7.2
    vertex -4 12.8 7.2
  endloop
endfacet
facet normal 0.7071067811865479 -0.7071067811865472 0
  outer loop
    vertex -1.915 7.207 7.2
    vertex -1.607 7.515000000000001 0.8
    vertex -1.607 7.515000000000001 7.2
  endloop
endfacet
facet normal 0.5220946983307992 0.8528875224640537 0
  outer loop
    vertex -1.881 3.011 0
    vertex -1.453 2.749 0.8
    vertex -1.453 2.749 0
  endloop
endfacet
facet normal 0.649149996290825 0.7606604251015178 0
  outer loop
    vertex -1.881 3.011 0.8
    vertex -2.263 3.337 0
    vertex -2.263 3.337 0.8
  endloop
endfacet
facet normal 0.5220946983307998 0.8528875224640535 0
  outer loop
    vertex -1.881 3.011 7.2
    vertex -1.453 2.749 8
    vertex -1.453 2.749 7.2
  endloop
endfacet
facet normal 0.6491499962908257 0.7606604251015171 0
  outer loop
    vertex -1.881 3.011 8
    vertex -2.263 3.337 7.2
    vertex -2.263 3.337 8
  endloop
endfacet
facet normal 0 0 -1
  outer loop
    vertex -1.881 8.189 0
    vertex -2.263 7.863 0
    vertex -4 12.8 0
  endloop
endfacet
facet normal 0.5220946983307998 -0.8528875224640533 0
  outer loop
    vertex -1.881 8.189 0
    vertex -1.453 8.451 0
    vertex -1.881 8.189 0.8
  endloop
endfacet
facet normal -3.5124108714966097e-16 0 1
  outer loop
    vertex -1.881 8.189 0.8
    vertex -1.453 8.451 0.8
    vertex -4 12.8 0.8
  endloop
endfacet
facet normal 0.5220946983307998 -0.8528875224640533 0
  outer loop
    vertex -1.881 8.189 0.8
    vertex -1.453 8.451 0
    vertex -1.453 8.451 0.8
  endloop
endfacet
facet normal 0 0 -1
  outer loop
    vertex -1.881 8.189 7.2
    vertex -2.263 7.863 7.2
    vertex -4 12.8 7.2
  endloop
endfacet
facet normal 0.5220946983307992 -0.8528875224640537 0
  outer loop
    vertex -1.881 8.189 7.2
    vertex -1.453 8.451 7.2
    vertex -1.881 8.189 8
  endloop
endfacet
facet normal 0 0 1
  outer loop
    vertex -1.881 8.189 8
    vertex -1.453 8.451 8
    vertex -4 12.8 8
  endloop
endfacet
facet normal 0.5220946983308005 -0.8528875224640529 0
  outer loop
    vertex -1.881 8.189 8
    vertex -1.453 8.451 7.2
    vertex -1.453 8.451 8
  endloop
endfacet
facet normal 0.5736163251921272 0.8191241123743578 0
  outer loop
    vertex -1.607 3.685 0.8
    vertex -1.25 3.435 7.2
    vertex -1.25 3.435 0.8
  endloop
endfacet
facet normal 0.707106781186548 0.707106781186547 0
  outer loop
    vertex -1.607 3.685 7.2
    vertex -1.915 3.993 0.8
    vertex -1.915 3.993 7.2
  endloop
endfacet
facet normal 0 0 -1
  outer loop
    vertex -1.607 7.515000000000001 0.8
    vertex -1.915 7.207 0.8
    vertex -4 12.8 0.8
  endloop
endfacet
facet normal 0.5736163251921272 -0.8191241123743578 0
  outer loop
    vertex -1.607 7.515000000000001 0.8
    vertex -1.25 7.765000000000001 0.8
    vertex -1.607 7.515000000000001 7.2
  endloop
endfacet
facet normal 0 0 1
  outer loop
    vertex -1.607 7.515000000000001 7.2
    vertex -1.25 7.765000000000001 7.2
    vertex -4 12.8 7.2
  endloop
endfacet
facet normal 0.5736163251921272 -0.8191241123743578 0
  outer loop
    vertex -1.607 7.515000000000001 7.2
    vertex -1.25 7.765000000000001 0.8
    vertex -1.25 7.765000000000001 7.2
  endloop
endfacet
facet normal 0.38235179272629977 0.9240168324218907 0
  outer loop
    vertex -1.453 2.749 0
    vertex -0.989 2.557 0.8
    vertex -0.989 2.557 0
  endloop
endfacet
facet normal 0.5220946983307992 0.8528875224640537 0
  outer loop
    vertex -1.453 2.749 0.8
    vertex -1.881 3.011 0
    vertex -1.881 3.011 0.8
  endloop
endfacet
facet normal 0.38235179272629943 0.924016832421891 0
  outer loop
    vertex -1.453 2.749 7.2
    vertex -0.989 2.557 8
    vertex -0.989 2.557 7.2
  endloop
endfacet
facet normal 0.5220946983307992 0.8528875224640537 0
  outer loop
    vertex -1.453 2.749 8
    vertex -1.881 3.011 7.2
    vertex -1.881 3.011 8
  endloop
endfacet
facet normal 0 0 -1
  outer loop
    vertex -1.453 8.451 0
    vertex -1.881 8.189 0
    vertex -4 12.8 0
  endloop
endfacet
facet normal 0.3823517927263 -0.9240168324218906 0
  outer loop
    vertex -1.453 8.451 0
    vertex -0.989 8.643 0
    vertex -1.453 8.451 0.8
  endloop
endfacet
facet normal 3.542850383333292e-16 0 1
  outer loop
    vertex -1.453 8.451 0.8
    vertex -0.989 8.643 0.8
    vertex -4 12.8 0.8
  endloop
endfacet
facet normal 0.38235179272629977 -0.9240168324218907 0
  outer loop
    vertex -1.453 8.451 0.8
    vertex -0.989 8.643 0
    vertex -0.989 8.643 0.8
  endloop
endfacet
facet normal 0 0 -1
  outer loop
    vertex -1.453 8.451 7.2
    vertex -1.881 8.189 7.2
    vertex -4 12.8 7.2
  endloop
endfacet
facet normal 0.38235179272629954 -0.9240168324218908 0
  outer loop
    vertex -1.453 8.451 7.2
    vertex -0.989 8.643 7.2
    vertex -1.453 8.451 8
  endloop
endfacet
facet normal 0 0 1
  outer loop
    vertex -1.453 8.451 8
    vertex -0.989 8.643 8
    vertex -4 12.8 8
  endloop
endfacet
facet normal 0.3823517927263003 -0.9240168324218905 0
  outer loop
    vertex -1.453 8.451 8
    vertex -0.989 8.643 7.2
    vertex -0.989 8.643 8
  endloop
endfacet
facet normal 0.42225720421036 0.90647606338637 0
  outer loop
    vertex -1.25 3.435 0.8
    vertex -0.855 3.251 7.2
    vertex -0.855 3.251 0.8
  endloop
endfacet
facet normal 0.5736163251921272 0.8191241123743578 0
  outer loop
    vertex -1.25 3.435 7.2
    vertex -1.607 3.685 0.8
    vertex -1.607 3.685 7.2
  endloop
endfacet
facet normal 0 0 -1
  outer loop
    vertex -1.25 7.765000000000001 0.8
    vertex -1.607 7.515000000000001 0.8
    vertex -4 12.8 0.8
  endloop
endfacet
facet normal 0.4222572042103585 -0.9064760633863707 0
  outer loop
    vertex -1.25 7.765000000000001 0.8
    vertex -0.855 7.949 0.8
    vertex -1.25 7.765000000000001 7.2
  endloop
endfacet
facet normal 0 0 1
  outer loop
    vertex -1.25 7.765000000000001 7.2
    vertex -0.855 7.949 7.2
    vertex -4 12.8 7.2
  endloop
endfacet
facet normal 0.42225720421035834 -0.9064760633863707 0
  outer loop
    vertex -1.25 7.765000000000001 7.2
    vertex -0.855 7.949 0.8
    vertex -0.855 7.949 7.2
  endloop
endfacet
facet normal 0.23502991825553837 0.9719881365144304 0
  outer loop
    vertex -0.989 2.557 0
    vertex -0.501 2.439 0.8
    vertex -0.501 2.439 0
  endloop
endfacet
facet normal 0.3823517927263 0.9240168324218906 0
  outer loop
    vertex -0.989 2.557 0.8
    vertex -1.453 2.749 0
    vertex -1.453 2.749 0.8
  endloop
endfacet
facet normal 0.23502991825553812 0.9719881365144304 0
  outer loop
    vertex -0.989 2.557 7.2
    vertex -0.501 2.439 8
    vertex -0.501 2.439 7.2
  endloop
endfacet
facet normal 0.38235179272630054 0.9240168324218905 0
  outer loop
    vertex -0.989 2.557 8
    vertex -1.453 2.749 7.2
    vertex -1.453 2.749 8
  endloop
endfacet
facet normal 0 0 -1
  outer loop
    vertex -0.989 8.643 0
    vertex -1.453 8.451 0
    vertex -4 12.8 0
  endloop
endfacet
facet normal 0.23502991825553904 -0.9719881365144301 0
  outer loop
    vertex -0.989 8.643 0
    vertex -0.501 8.761000000000001 0
    vertex -0.989 8.643 0.8
  endloop
endfacet
facet normal 0 0 1
  outer loop
    vertex -0.989 8.643 0.8
    vertex -0.501 8.761000000000001 0.8
    vertex -4 12.8 0.8
  endloop
endfacet
facet normal 0.2350299182555392 -0.9719881365144303 0
  outer loop
    vertex -0.989 8.643 0.8
    vertex -0.501 8.761000000000001 0
    vertex -0.501 8.761000000000001 0.8
  endloop
endfacet
facet normal 0 0 -1
  outer loop
    vertex -0.989 8.643 7.2
    vertex -1.453 8.451 7.2
    vertex -4 12.8 7.2
  endloop
endfacet
facet normal 0.2350299182555392 -0.9719881365144303 0
  outer loop
    vertex -0.989 8.643 7.2
    vertex -0.501 8.761000000000001 7.2
    vertex -0.989 8.643 8
  endloop
endfacet
facet normal 0 0 1
  outer loop
    vertex -0.989 8.643 8
    vertex -0.501 8.761000000000001 8
    vertex -4 12.8 8
  endloop
endfacet
facet normal 0.2350299182555392 -0.9719881365144303 0
  outer loop
    vertex -0.989 8.643 8
    vertex -0.501 8.761000000000001 7.2
    vertex -0.501 8.761000000000001 8
  endloop
endfacet
facet normal 0.2592329574435619 0.9658148237499072 0
  outer loop
    vertex -0.855 3.251 0.8
    vertex -0.434 3.138 7.2
    vertex -0.434 3.138 0.8
  endloop
endfacet
facet normal 0.4222572042103603 0.9064760633863698 0
  outer loop
    vertex -0.855 3.251 7.2
    vertex -1.25 3.435 0.8
    vertex -1.25 3.435 7.2
  endloop
endfacet
facet normal 0 0 -1
  outer loop
    vertex -0.855 7.949 0.8
    vertex -1.25 7.765000000000001 0.8
    vertex -4 12.8 0.8
  endloop
endfacet
facet normal 0.2592329574435607 -0.9658148237499076 0
  outer loop
    vertex -0.855 7.949 0.8
    vertex -0.434 8.062 0.8
    vertex -0.855 7.949 7.2
  endloop
endfacet
facet normal 0 0 1
  outer loop
    vertex -0.855 7.949 7.2
    vertex -0.434 8.062 7.2
    vertex -4 12.8 7.2
  endloop
endfacet
facet normal 0.25923295744356095 -0.9658148237499073 0
  outer loop
    vertex -0.855 7.949 7.2
    vertex -0.434 8.062 0.8
    vertex -0.434 8.062 7.2
  endloop
endfacet
facet normal 0.07760951990123417 0.9969838325773893 0
  outer loop
    vertex -0.501 2.439 0
    vertex 0 2.4 0.8
    vertex 0 2.4 0
  endloop
endfacet
facet normal 0.2350299182555382 0.9719881365144303 0
  outer loop
    vertex -0.501 2.439 0.8
    vertex -0.989 2.557 0
    vertex -0.989 2.557 0.8
  endloop
endfacet
facet normal 0.0776095199012342 0.9969838325773893 0
  outer loop
    vertex -0.501 2.439 7.2
    vertex 0 2.4 8
    vertex 0 2.4 7.2
  endloop
endfacet
facet normal 0.23502991825553865 0.9719881365144303 0
  outer loop
    vertex -0.501 2.439 8
    vertex -0.989 2.557 7.2
    vertex -0.989 2.557 8
  endloop
endfacet
facet normal 0 0 -1
  outer loop
    vertex -0.501 8.761000000000001 0
    vertex -0.989 8.643 0
    vertex -4 12.8 0
  endloop
endfacet
facet normal 0.07760951990123331 -0.9969838325773894 0
  outer loop
    vertex -0.501 8.761000000000001 0
    vertex 0 8.8 0
    vertex -0.501 8.761000000000001 0.8
  endloop
endfacet
facet normal 0 0 1
  outer loop
    vertex -0.501 8.761000000000001 0.8
    vertex 0 8.8 0.8
    vertex -4 12.8 0.8
  endloop
endfacet
facet normal 0.07760951990123331 -0.9969838325773894 0
  outer loop
    vertex -0.501 8.761000000000001 0.8
    vertex 0 8.8 0
    vertex 0 8.8 0.8
  endloop
endfacet
facet normal 0 0 -1
  outer loop
    vertex -0.501 8.761000000000001 7.2
    vertex -0.989 8.643 7.2
    vertex -4 12.8 7.2
  endloop
endfacet
facet normal 0.0776095199012331 -0.9969838325773893 0
  outer loop
    vertex -0.501 8.761000000000001 7.2
    vertex 0 8.8 7.2
    vertex -0.501 8.761000000000001 8
  endloop
endfacet
facet normal 0 0 1
  outer loop
    vertex -0.501 8.761000000000001 8
    vertex 0 8.8 8
    vertex -4 12.8 8
  endloop
endfacet
facet normal 0.07760951990123338 -0.9969838325773893 0
  outer loop
    vertex -0.501 8.761000000000001 8
    vertex 0 8.8 7.2
    vertex 0 8.8 8
  endloop
endfacet
facet normal 0.08722389827292842 0.9961887329066085 0
  outer loop
    vertex -0.434 3.138 0.8
    vertex 0 3.1 7.2
    vertex 0 3.1 0.8
  endloop
endfacet
facet normal 0.2592329574435617 0.9658148237499073 0
  outer loop
    vertex -0.434 3.138 7.2
    vertex -0.855 3.251 0.8
    vertex -0.855 3.251 7.2
  endloop
endfacet
facet normal 3.704361341660859e-16 0 -1
  outer loop
    vertex -0.434 8.062 0.8
    vertex -0.855 7.949 0.8
    vertex -4 12.8 0.8
  endloop
endfacet
facet normal 0.08722389827292942 -0.9961887329066084 0
  outer loop
    vertex -0.434 8.062 0.8
    vertex 0 8.1 0.8
    vertex -0.434 8.062 7.2
  endloop
endfacet
facet normal 0 0 1
  outer loop
    vertex -0.434 8.062 7.2
    vertex 0 8.1 7.2
    vertex -4 12.8 7.2
  endloop
endfacet
facet normal 0.08722389827292942 -0.9961887329066084 0
  outer loop
    vertex -0.434 8.062 7.2
    vertex 0 8.1 0.8
    vertex 0 8.1 7.2
  endloop
endfacet
facet normal 0 0 -1
  outer loop
    vertex 0 2.4 0
    vertex 0.501 2.439 0
    vertex 4 0 0
  endloop
endfacet
facet normal -0.07760951990123417 0.9969838325773893 0
  outer loop
    vertex 0 2.4 0
    vertex 0 2.4 0.8
    vertex 0.501 2.439 0.8
  endloop
endfacet
facet normal -0.07760951990123417 0.9969838325773893 0
  outer loop
    vertex 0 2.4 0
    vertex 0.501 2.439 0.8
    vertex 0.501 2.439 0
  endloop
endfacet
facet normal 0.07760951990123417 0.9969838325773893 0
  outer loop
    vertex 0 2.4 0.8
    vertex -0.501 2.439 0
    vertex -0.501 2.439 0.8
  endloop
endfacet
facet normal 0 0 -1
  outer loop
    vertex 0 2.4 7.2
    vertex 0.501 2.439 7.2
    vertex 4 0 7.2
  endloop
endfacet
facet normal -0.0776095199012342 0.9969838325773893 0
  outer loop
    vertex 0 2.4 7.2
    vertex 0 2.4 8
    vertex 0.501 2.439 8
  endloop
endfacet
facet normal -0.0776095199012342 0.9969838325773893 0
  outer loop
    vertex 0 2.4 7.2
    vertex 0.501 2.439 8
    vertex 0.501 2.439 7.2
  endloop
endfacet
facet normal 0.0776095199012342 0.9969838325773893 0
  outer loop
    vertex 0 2.4 8
    vertex -0.501 2.439 7.2
    vertex -0.501 2.439 8
  endloop
endfacet
facet normal 0 0 -1
  outer loop
    vertex 0 3.1 0.8
    vertex 0.434 3.138 0.8
    vertex 4 0 0.8
  endloop
endfacet
facet normal -0.08722389827292844 0.9961887329066085 0
  outer loop
    vertex 0 3.1 0.8
    vertex 0 3.1 7.2
    vertex 0.434 3.138 7.2
  endloop
endfacet
facet normal -0.08722389827292842 0.9961887329066085 0
  outer loop
    vertex 0 3.1 0.8
    vertex 0.434 3.138 7.2
    vertex 0.434 3.138 0.8
  endloop
endfacet
facet normal 0.08722389827292844 0.9961887329066085 0
  outer loop
    vertex 0 3.1 7.2
    vertex -0.434 3.138 0.8
    vertex -0.434 3.138 7.2
  endloop
endfacet
facet normal 0 0 -1
  outer loop
    vertex 0 8.1 0.8
    vertex 4 12.8 0.8
    vertex 0.434 8.062 0.8
  endloop
endfacet
facet normal 0 0 -1
  outer loop
    vertex 0 8.1 0.8
    vertex -0.434 8.062 0.8
    vertex -4 12.8 0.8
  endloop
endfacet
facet normal 0 0 1
  outer loop
    vertex 0 8.1 7.2
    vertex 4 12.8 7.2
    vertex -4 12.8 7.2
  endloop
endfacet
facet normal -0.08722389827292942 -0.9961887329066084 0
  outer loop
    vertex 0 8.1 7.2
    vertex 0.434 8.062 0.8
    vertex 0.434 8.062 7.2
  endloop
endfacet
facet normal 0 0 -1
  outer loop
    vertex 0 8.8 0
    vertex 4 12.8 0
    vertex 0.501 8.761000000000001 0
  endloop
endfacet
facet normal 0 0 -1
  outer loop
    vertex 0 8.8 0
    vertex -0.501 8.761000000000001 0
    vertex -4 12.8 0
  endloop
endfacet
facet normal 0 0 1
  outer loop
    vertex 0 8.8 0.8
    vertex 4 12.8 0.8
    vertex -4 12.8 0.8
  endloop
endfacet
facet normal -0.07760951990123331 -0.9969838325773894 0
  outer loop
    vertex 0 8.8 0.8
    vertex 0.501 8.761000000000001 0
    vertex 0.501 8.761000000000001 0.8
  endloop
endfacet
facet normal 0 0 -1
  outer loop
    vertex 0 8.8 7.2
    vertex 4 12.8 7.2
    vertex 0.501 8.761000000000001 7.2
  endloop
endfacet
facet normal 0 0 -1
  outer loop
    vertex 0 8.8 7.2
    vertex -0.501 8.761000000000001 7.2
    vertex -4 12.8 7.2
  endloop
endfacet
facet normal 0 0 1
  outer loop
    vertex 0 8.8 8
    vertex 4 12.8 8
    vertex -4 12.8 8
  endloop
endfacet
facet normal -0.07760951990123338 -0.9969838325773893 0
  outer loop
    vertex 0 8.8 8
    vertex 0.501 8.761000000000001 7.2
    vertex 0.501 8.761000000000001 8
  endloop
endfacet
facet normal 0 0 -1
  outer loop
    vertex 0.434 3.138 0.8
    vertex 0.855 3.251 0.8
    vertex 4 0 0.8
  endloop
endfacet
facet normal -0.2592329574435619 0.9658148237499072 0
  outer loop
    vertex 0.434 3.138 0.8
    vertex 0.434 3.138 7.2
    vertex 0.855 3.251 7.2
  endloop
endfacet
facet normal -0.2592329574435616 0.9658148237499073 0
  outer loop
    vertex 0.434 3.138 0.8
    vertex 0.855 3.251 7.2
    vertex 0.855 3.251 0.8
  endloop
endfacet
facet normal -3.704361341660859e-16 0 -1
  outer loop
    vertex 0.434 8.062 0.8
    vertex 4 12.8 0.8
    vertex 0.855 7.949 0.8
  endloop
endfacet
facet normal -0.08722389827292942 -0.9961887329066084 0
  outer loop
    vertex 0.434 8.062 0.8
    vertex 0 8.1 7.2
    vertex 0 8.1 0.8
  endloop
endfacet
facet normal 0 0 1
  outer loop
    vertex 0.434 8.062 7.2
    vertex 4 12.8 7.2
    vertex 0 8.1 7.2
  endloop
endfacet
facet normal -0.2592329574435607 -0.9658148237499075 0
  outer loop
    vertex 0.434 8.062 7.2
    vertex 0.855 7.949 0.8
    vertex 0.855 7.949 7.2
  endloop
endfacet
facet normal 0 0 -1
  outer loop
    vertex 0.501 2.439 0
    vertex 0.989 2.557 0
    vertex 4 0 0
  endloop
endfacet
facet normal -0.23502991825553837 0.9719881365144304 0
  outer loop
    vertex 0.501 2.439 0
    vertex 0.501 2.439 0.8
    vertex 0.989 2.557 0.8
  endloop
endfacet
facet normal -0.2350299182555382 0.9719881365144303 0
  outer loop
    vertex 0.501 2.439 0
    vertex 0.989 2.557 0.8
    vertex 0.989 2.557 0
  endloop
endfacet
facet normal 0 0 -1
  outer loop
    vertex 0.501 2.439 7.2
    vertex 0.989 2.557 7.2
    vertex 4 0 7.2
  endloop
endfacet
facet normal -0.23502991825553865 0.9719881365144303 0
  outer loop
    vertex 0.501 2.439 7.2
    vertex 0.501 2.439 8
    vertex 0.989 2.557 8
  endloop
endfacet
facet normal -0.23502991825553812 0.9719881365144304 0
  outer loop
    vertex 0.501 2.439 7.2
    vertex 0.989 2.557 8
    vertex 0.989 2.557 7.2
  endloop
endfacet
facet normal 0 0 -1
  outer loop
    vertex 0.501 8.761000000000001 0
    vertex 4 12.8 0
    vertex 0.989 8.643 0
  endloop
endfacet
facet normal -0.07760951990123331 -0.9969838325773894 0
  outer loop
    vertex 0.501 8.761000000000001 0
    vertex 0 8.8 0.8
    vertex 0 8.8 0
  endloop
endfacet
facet normal 0 0 1
  outer loop
    vertex 0.501 8.761000000000001 0.8
    vertex 4 12.8 0.8
    vertex 0 8.8 0.8
  endloop
endfacet
facet normal -0.23502991825553904 -0.9719881365144301 0
  outer loop
    vertex 0.501 8.761000000000001 0.8
    vertex 0.989 8.643 0
    vertex 0.989 8.643 0.8
  endloop
endfacet
facet normal 0 0 -1
  outer loop
    vertex 0.501 8.761000000000001 7.2
    vertex 4 12.8 7.2
    vertex 0.989 8.643 7.2
  endloop
endfacet
facet normal -0.0776095199012331 -0.9969838325773893 0
  outer loop
    vertex 0.501 8.761000000000001 7.2
    vertex 0 8.8 8
    vertex 0 8.8 7.2
  endloop
endfacet
facet normal 0 0 1
  outer loop
    vertex 0.501 8.761000000000001 8
    vertex 4 12.8 8
    vertex 0 8.8 8
  endloop
endfacet
facet normal -0.2350299182555392 -0.9719881365144303 0
  outer loop
    vertex 0.501 8.761000000000001 8
    vertex 0.989 8.643 7.2
    vertex 0.989 8.643 8
  endloop
endfacet
facet normal 0 0 -1
  outer loop
    vertex 0.855 3.251 0.8
    vertex 1.25 3.435 0.8
    vertex 4 0 0.8
  endloop
endfacet
facet normal -0.42225720421036006 0.90647606338637 0
  outer loop
    vertex 0.855 3.251 0.8
    vertex 0.855 3.251 7.2
    vertex 1.25 3.435 7.2
  endloop
endfacet
facet normal -0.4222572042103603 0.9064760633863699 0
  outer loop
    vertex 0.855 3.251 0.8
    vertex 1.25 3.435 7.2
    vertex 1.25 3.435 0.8
  endloop
endfacet
facet normal 0 0 -1
  outer loop
    vertex 0.855 7.949 0.8
    vertex 4 12.8 0.8
    vertex 1.25 7.765000000000001 0.8
  endloop
endfacet
facet normal -0.2592329574435609 -0.9658148237499073 0
  outer loop
    vertex 0.855 7.949 0.8
    vertex 0.434 8.062 7.2
    vertex 0.434 8.062 0.8
  endloop
endfacet
facet normal 0 0 1
  outer loop
    vertex 0.855 7.949 7.2
    vertex 4 12.8 7.2
    vertex 0.434 8.062 7.2
  endloop
endfacet
facet normal -0.4222572042103586 -0.9064760633863707 0
  outer loop
    vertex 0.855 7.949 7.2
    vertex 1.25 7.765000000000001 0.8
    vertex 1.25 7.765000000000001 7.2
  endloop
endfacet
facet normal 0 0 -1
  outer loop
    vertex 0.989 2.557 0
    vertex 1.453 2.749 0
    vertex 4 0 0
  endloop
endfacet
facet normal -0.38235179272629977 0.9240168324218907 0
  outer loop
    vertex 0.989 2.557 0
    vertex 0.989 2.557 0.8
    vertex 1.453 2.749 0.8
  endloop
endfacet
facet normal -0.3823517927263 0.9240168324218906 0
  outer loop
    vertex 0.989 2.557 0
    vertex 1.453 2.749 0.8
    vertex 1.453 2.749 0
  endloop
endfacet
facet normal 0 0 -1
  outer loop
    vertex 0.989 2.557 7.2
    vertex 1.453 2.749 7.2
    vertex 4 0 7.2
  endloop
endfacet
facet normal -0.3823517927263003 0.9240168324218905 0
  outer loop
    vertex 0.989 2.557 7.2
    vertex 0.989 2.557 8
    vertex 1.453 2.749 8
  endloop
endfacet
facet normal -0.38235179272629954 0.9240168324218908 0
  outer loop
    vertex 0.989 2.557 7.2
    vertex 1.453 2.749 8
    vertex 1.453 2.749 7.2
  endloop
endfacet
facet normal 0 0 -1
  outer loop
    vertex 0.989 8.643 0
    vertex 4 12.8 0
    vertex 1.453 8.451 0
  endloop
endfacet
facet normal -0.2350299182555392 -0.9719881365144303 0
  outer loop
    vertex 0.989 8.643 0
    vertex 0.501 8.761000000000001 0.8
    vertex 0.501 8.761000000000001 0
  endloop
endfacet
facet normal 0 0 1
  outer loop
    vertex 0.989 8.643 0.8
    vertex 4 12.8 0.8
    vertex 0.501 8.761000000000001 0.8
  endloop
endfacet
facet normal -0.3823517927263 -0.9240168324218906 0
  outer loop
    vertex 0.989 8.643 0.8
    vertex 1.453 8.451 0
    vertex 1.453 8.451 0.8
  endloop
endfacet
facet normal 0 0 -1
  outer loop
    vertex 0.989 8.643 7.2
    vertex 4 12.8 7.2
    vertex 1.453 8.451 7.2
  endloop
endfacet
facet normal -0.2350299182555392 -0.9719881365144303 0
  outer loop
    vertex 0.989 8.643 7.2
    vertex 0.501 8.761000000000001 8
    vertex 0.501 8.761000000000001 7.2
  endloop
endfacet
facet normal 0 0 1
  outer loop
    vertex 0.989 8.643 8
    vertex 4 12.8 8
    vertex 0.501 8.761000000000001 8
  endloop
endfacet
facet normal -0.38235179272630054 -0.9240168324218905 0
  outer loop
    vertex 0.989 8.643 8
    vertex 1.453 8.451 7.2
    vertex 1.453 8.451 8
  endloop
endfacet
facet normal 0 0 -1
  outer loop
    vertex 1.25 3.435 0.8
    vertex 1.607 3.685 0.8
    vertex 4 0 0.8
  endloop
endfacet
facet normal -0.5736163251921272 0.8191241123743578 0
  outer loop
    vertex 1.25 3.435 0.8
    vertex 1.25 3.435 7.2
    vertex 1.607 3.685 7.2
  endloop
endfacet
facet normal -0.5736163251921272 0.8191241123743578 0
  outer loop
    vertex 1.25 3.435 0.8
    vertex 1.607 3.685 7.2
    vertex 1.607 3.685 0.8
  endloop
endfacet
facet normal 0 0 1
  outer loop
    vertex 1.25 3.435 7.2
    vertex 0.855 3.251 7.2
    vertex 4 0 7.2
  endloop
endfacet
facet normal 0 0 -1
  outer loop
    vertex 1.25 7.765000000000001 0.8
    vertex 4 12.8 0.8
    vertex 1.607 7.515000000000001 0.8
  endloop
endfacet
facet normal -0.4222572042103583 -0.9064760633863707 0
  outer loop
    vertex 1.25 7.765000000000001 0.8
    vertex 0.855 7.949 7.2
    vertex 0.855 7.949 0.8
  endloop
endfacet
facet normal 0 0 1
  outer loop
    vertex 1.25 7.765000000000001 7.2
    vertex 4 12.8 7.2
    vertex 0.855 7.949 7.2
  endloop
endfacet
facet normal -0.5736163251921272 -0.8191241123743578 0
  outer loop
    vertex 1.25 7.765000000000001 7.2
    vertex 1.607 7.515000000000001 0.8
    vertex 1.607 7.515000000000001 7.2
  endloop
endfacet
facet normal 0 0 -1
  outer loop
    vertex 1.453 2.749 0
    vertex 1.881 3.011 0
    vertex 4 0 0
  endloop
endfacet
facet normal -0.5220946983307992 0.8528875224640537 0
  outer loop
    vertex 1.453 2.749 0
    vertex 1.453 2.749 0.8
    vertex 1.881 3.011 0.8
  endloop
endfacet
facet normal -0.5220946983307992 0.8528875224640537 0
  outer loop
    vertex 1.453 2.749 0
    vertex 1.881 3.011 0.8
    vertex 1.881 3.011 0
  endloop
endfacet
facet normal -5.033427141611082e-16 0 1
  outer loop
    vertex 1.453 2.749 0.8
    vertex 0.989 2.557 0.8
    vertex 4 0 0.8
  endloop
endfacet
facet normal 0 0 -1
  outer loop
    vertex 1.453 2.749 7.2
    vertex 1.881 3.011 7.2
    vertex 4 0 7.2
  endloop
endfacet
facet normal -0.5220946983307998 0.8528875224640535 0
  outer loop
    vertex 1.453 2.749 7.2
    vertex 1.453 2.749 8
    vertex 1.881 3.011 8
  endloop
endfacet
facet normal -0.5220946983307992 0.8528875224640537 0
  outer loop
    vertex 1.453 2.749 7.2
    vertex 1.881 3.011 8
    vertex 1.881 3.011 7.2
  endloop
endfacet
facet normal 0 0 1
  outer loop
    vertex 1.453 2.749 8
    vertex 0.989 2.557 8
    vertex 4 0 8
  endloop
endfacet
facet normal 0 0 -1
  outer loop
    vertex 1.453 8.451 0
    vertex 4 12.8 0
    vertex 1.881 8.189 0
  endloop
endfacet
facet normal -0.38235179272629977 -0.9240168324218907 0
  outer loop
    vertex 1.453 8.451 0
    vertex 0.989 8.643 0.8
    vertex 0.989 8.643 0
  endloop
endfacet
facet normal -3.542850383333292e-16 0 1
  outer loop
    vertex 1.453 8.451 0.8
    vertex 4 12.8 0.8
    vertex 0.989 8.643 0.8
  endloop
endfacet
facet normal -0.5220946983307998 -0.8528875224640533 0
  outer loop
    vertex 1.453 8.451 0.8
    vertex 1.881 8.189 0
    vertex 1.881 8.189 0.8
  endloop
endfacet
facet normal 0 0 -1
  outer loop
    vertex 1.453 8.451 7.2
    vertex 4 12.8 7.2
    vertex 1.881 8.189 7.2
  endloop
endfacet
facet normal -0.38235179272629943 -0.924016832421891 0
  outer loop
    vertex 1.453 8.451 7.2
    vertex 0.989 8.643 8
    vertex 0.989 8.643 7.2
  endloop
endfacet
facet normal 0 0 1
  outer loop
    vertex 1.453 8.451 8
    vertex 4 12.8 8
    vertex 0.989 8.643 8
  endloop
endfacet
facet normal -0.5220946983308 -0.8528875224640533 0
  outer loop
    vertex 1.453 8.451 8
    vertex 1.881 8.189 7.2
    vertex 1.881 8.189 8
  endloop
endfacet
facet normal -4.744482013585961e-16 0 -1
  outer loop
    vertex 1.607 3.685 0.8
    vertex 1.915 3.993 0.8
    vertex 4 0 0.8
  endloop
endfacet
facet normal -0.7071067811865468 0.7071067811865483 0
  outer loop
    vertex 1.607 3.685 0.8
    vertex 1.607 3.685 7.2
    vertex 1.915 3.993 7.2
  endloop
endfacet
facet normal -0.707106781186548 0.707106781186547 0
  outer loop
    vertex 1.607 3.685 0.8
    vertex 1.915 3.993 7.2
    vertex 1.915 3.993 0.8
  endloop
endfacet
facet normal 0 0 1
  outer loop
    vertex 1.607 3.685 7.2
    vertex 1.25 3.435 7.2
    vertex 4 0 7.2
  endloop
endfacet
facet normal 0 0 -1
  outer loop
    vertex 1.607 7.515000000000001 0.8
    vertex 4 12.8 0.8
    vertex 1.915 7.207 0.8
  endloop
endfacet
facet normal -0.5736163251921272 -0.8191241123743578 0
  outer loop
    vertex 1.607 7.515000000000001 0.8
    vertex 1.25 7.765000000000001 7.2
    vertex 1.25 7.765000000000001 0.8
  endloop
endfacet
facet normal 0 0 1
  outer loop
    vertex 1.607 7.515000000000001 7.2
    vertex 4 12.8 7.2
    vertex 1.25 7.765000000000001 7.2
  endloop
endfacet
facet normal -0.7071067811865491 -0.7071067811865459 0
  outer loop
    vertex 1.607 7.515000000000001 7.2
    vertex 1.915 7.207 0.8
    vertex 1.915 7.207 7.2
  endloop
endfacet
facet normal 0 0 -0.9999999999999999
  outer loop
    vertex 1.881 3.011 0
    vertex 2.263 3.337 0
    vertex 4 0 0
  endloop
endfacet
facet normal -0.6491499962908245 0.7606604251015182 0
  outer loop
    vertex 1.881 3.011 0
    vertex 1.881 3.011 0.8
    vertex 2.263 3.337 0.8
  endloop
endfacet
facet normal -0.649149996290825 0.7606604251015178 0
  outer loop
    vertex 1.881 3.011 0
    vertex 2.263 3.337 0.8
    vertex 2.263 3.337 0
  endloop
endfacet
facet normal 0 0 1
  outer loop
    vertex 1.881 3.011 0.8
    vertex 1.453 2.749 0.8
    vertex 4 0 0.8
  endloop
endfacet
facet normal 0 0 -0.9999999999999999
  outer loop
    vertex 1.881 3.011 7.2
    vertex 2.263 3.337 7.2
    vertex 4 0 7.2
  endloop
endfacet
facet normal -0.6491499962908251 0.7606604251015175 0
  outer loop
    vertex 1.881 3.011 7.2
    vertex 1.881 3.011 8
    vertex 2.263 3.337 8
  endloop
endfacet
facet normal -0.6491499962908246 0.7606604251015183 0
  outer loop
    vertex 1.881 3.011 7.2
    vertex 2.263 3.337 8
    vertex 2.263 3.337 7.2
  endloop
endfacet
facet normal 0 0 1
  outer loop
    vertex 1.881 3.011 8
    vertex 1.453 2.749 8
    vertex 4 0 8
  endloop
endfacet
facet normal 0 0 -1
  outer loop
    vertex 1.881 8.189 0
    vertex 4 12.8 0
    vertex 2.263 7.863 0
  endloop
endfacet
facet normal -0.5220946983307998 -0.8528875224640533 0
  outer loop
    vertex 1.881 8.189 0
    vertex 1.453 8.451 0.8
    vertex 1.453 8.451 0
  endloop
endfacet
facet normal 3.5124108714966097e-16 0 1
  outer loop
    vertex 1.881 8.189 0.8
    vertex 4 12.8 0.8
    vertex 1.453 8.451 0.8
  endloop
endfacet
facet normal -0.6491499962908246 -0.7606604251015183 0
  outer loop
    vertex 1.881 8.189 0.8
    vertex 2.263 7.863 0
    vertex 2.263 7.863 0.8
  endloop
endfacet
facet normal 0 0 -1
  outer loop
    vertex 1.881 8.189 7.2
    vertex 4 12.8 7.2
    vertex 2.263 7.863 7.2
  endloop
endfacet
facet normal -0.5220946983307998 -0.8528875224640535 0
  outer loop
    vertex 1.881 8.189 7.2
    vertex 1.453 8.451 8
    vertex 1.453 8.451 7.2
  endloop
endfacet
facet normal 0 0 1
  outer loop
    vertex 1.881 8.189 8
    vertex 4 12.8 8
    vertex 1.453 8.451 8
  endloop
endfacet
facet normal -0.6491499962908246 -0.7606604251015183 0
  outer loop
    vertex 1.881 8.189 8
    vertex 2.263 7.863 7.2
    vertex 2.263 7.863 8
  endloop
endfacet
facet normal 0 0 -1
  outer loop
    vertex 1.915 3.993 0.8
    vertex 2.165 4.3500000000000005 0.8
    vertex 4 0 0.8
  endloop
endfacet
facet normal -0.8191241123743581 0.573616325192127 0
  outer loop
    vertex 1.915 3.993 0.8
    vertex 1.915 3.993 7.2
    vertex 2.165 4.3500000000000005 7.2
  endloop
endfacet
facet normal -0.8191241123743581 0.573616325192127 0
  outer loop
    vertex 1.915 3.993 0.8
    vertex 2.165 4.3500000000000005 7.2
    vertex 2.165 4.3500000000000005 0.8
  endloop
endfacet
facet normal -3.795585610868769e-15 0 1
  outer loop
    vertex 1.915 3.993 7.2
    vertex 1.607 3.685 7.2
    vertex 4 0 7.2
  endloop
endfacet
facet normal 0 0 -1
  outer loop
    vertex 1.915 7.207 0.8
    vertex 4 12.8 0.8
    vertex 2.165 6.8500000000000005 0.8
  endloop
endfacet
facet normal -0.7071067811865478 -0.7071067811865472 0
  outer loop
    vertex 1.915 7.207 0.8
    vertex 1.607 7.515000000000001 7.2
    vertex 1.607 7.515000000000001 0.8
  endloop
endfacet
facet normal 0 0 1
  outer loop
    vertex 1.915 7.207 7.2
    vertex 4 12.8 7.2
    vertex 1.607 7.515000000000001 7.2
  endloop
endfacet
facet normal -0.8191241123743572 -0.5736163251921284 0
  outer loop
    vertex 1.915 7.207 7.2
    vertex 2.165 6.8500000000000005 0.8
    vertex 2.165 6.8500000000000005 7.2
  endloop
endfacet
facet normal 0 0 -1
  outer loop
    vertex 2.165 4.3500000000000005 0.8
    vertex 2.349 4.745 0.8
    vertex 4 0 0.8
  endloop
endfacet
facet normal -0.9064760633863702 0.4222572042103595 0
  outer loop
    vertex 2.165 4.3500000000000005 0.8
    vertex 2.165 4.3500000000000005 7.2
    vertex 2.349 4.745 7.2
  endloop
endfacet
facet normal -0.9064760633863698 0.4222572042103606 0
  outer loop
    vertex 2.165 4.3500000000000005 0.8
    vertex 2.349 4.745 7.2
    vertex 2.349 4.745 0.8
  endloop
endfacet
facet normal 0 0 0.9999999999999999
  outer loop
    vertex 2.165 4.3500000000000005 7.2
    vertex 1.915 3.993 7.2
    vertex 4 0 7.2
  endloop
endfacet
facet normal -9.762213859450428e-16 0 -1
  outer loop
    vertex 2.165 6.8500000000000005 0.8
    vertex 4 12.8 0.8
    vertex 2.349 6.455 0.8
  endloop
endfacet
facet normal -0.8191241123743572 -0.5736163251921285 0
  outer loop
    vertex 2.165 6.8500000000000005 0.8
    vertex 1.915 7.207 7.2
    vertex 1.915 7.207 0.8
  endloop
endfacet
facet normal -6.632543581592416e-15 0 1
  outer loop
    vertex 2.165 6.8500000000000005 7.2
    vertex 4 12.8 7.2
    vertex 1.915 7.207 7.2
  endloop
endfacet
facet normal -0.9064760633863701 -0.42225720421035984 0
  outer loop
    vertex 2.165 6.8500000000000005 7.2
    vertex 2.349 6.455 0.8
    vertex 2.349 6.455 7.2
  endloop
endfacet
facet normal 0 0 -1
  outer loop
    vertex 2.263 3.337 0
    vertex 2.589 3.719 0
    vertex 4 0 0
  endloop
endfacet
facet normal -0.7606604251015173 0.6491499962908256 0
  outer loop
    vertex 2.263 3.337 0
    vertex 2.263 3.337 0.8
    vertex 2.589 3.719 0.8
  endloop
endfacet
facet normal -0.7606604251015185 0.6491499962908245 0
  outer loop
    vertex 2.263 3.337 0
    vertex 2.589 3.719 0.8
    vertex 2.589 3.719 0
  endloop
endfacet
facet normal 0 0 1
  outer loop
    vertex 2.263 3.337 0.8
    vertex 1.881 3.011 0.8
    vertex 4 0 0.8
  endloop
endfacet
facet normal -4.057007871207312e-15 0 -1
  outer loop
    vertex 2.263 3.337 7.2
    vertex 2.589 3.719 7.2
    vertex 4 0 7.2
  endloop
endfacet
facet normal -0.7606604251015182 0.6491499962908246 0
  outer loop
    vertex 2.263 3.337 7.2
    vertex 2.263 3.337 8
    vertex 2.589 3.719 8
  endloop
endfacet
facet normal -0.7606604251015172 0.6491499962908257 0
  outer loop
    vertex 2.263 3.337 7.2
    vertex 2.589 3.719 8
    vertex 2.589 3.719 7.2
  endloop
endfacet
facet normal 0 0 1
  outer loop
    vertex 2.263 3.337 8
    vertex 1.881 3.011 8
    vertex 4 0 8
  endloop
endfacet
facet normal 0 0 -1
  outer loop
    vertex 2.263 7.863 0
    vertex 4 12.8 0
    vertex 2.589 7.481 0
  endloop
endfacet
facet normal -0.6491499962908239 -0.7606604251015188 0
  outer loop
    vertex 2.263 7.863 0
    vertex 1.881 8.189 0.8
    vertex 1.881 8.189 0
  endloop
endfacet
facet normal 0 0 1
  outer loop
    vertex 2.263 7.863 0.8
    vertex 4 12.8 0.8
    vertex 1.881 8.189 0.8
  endloop
endfacet
facet normal -0.7606604251015192 -0.6491499962908235 0
  outer loop
    vertex 2.263 7.863 0.8
    vertex 2.589 7.481 0
    vertex 2.589 7.481 0.8
  endloop
endfacet
facet normal -6.2520368338536395e-15 0 -1
  outer loop
    vertex 2.263 7.863 7.2
    vertex 4 12.8 7.2
    vertex 2.589 7.481 7.2
  endloop
endfacet
facet normal -0.6491499962908239 -0.7606604251015188 0
  outer loop
    vertex 2.263 7.863 7.2
    vertex 1.881 8.189 8
    vertex 1.881 8.189 7.2
  endloop
endfacet
facet normal 0 0 1
  outer loop
    vertex 2.263 7.863 8
    vertex 4 12.8 8
    vertex 1.881 8.189 8
  endloop
endfacet
facet normal -0.7606604251015192 -0.6491499962908236 0
  outer loop
    vertex 2.263 7.863 8
    vertex 2.589 7.481 7.2
    vertex 2.589 7.481 8
  endloop
endfacet
facet normal 0 0 -1
  outer loop
    vertex 2.349 4.745 0.8
    vertex 2.462 5.166 0.8
    vertex 4 0 0.8
  endloop
endfacet
facet normal -0.9658148237499075 0.2592329574435612 0
  outer loop
    vertex 2.349 4.745 0.8
    vertex 2.349 4.745 7.2
    vertex 2.462 5.166 7.2
  endloop
endfacet
facet normal -0.965814823749907 0.25923295744356234 0
  outer loop
    vertex 2.349 4.745 0.8
    vertex 2.462 5.166 7.2
    vertex 2.462 5.166 0.8
  endloop
endfacet
facet normal 0 0 1
  outer loop
    vertex 2.349 4.745 7.2
    vertex 2.165 4.3500000000000005 7.2
    vertex 4 0 7.2
  endloop
endfacet
facet normal 0 0 -0.9999999999999999
  outer loop
    vertex 2.349 6.455 0.8
    vertex 4 12.8 0.8
    vertex 2.462 6.034 0.8
  endloop
endfacet
facet normal -0.9064760633863705 -0.4222572042103588 0
  outer loop
    vertex 2.349 6.455 0.8
    vertex 2.165 6.8500000000000005 7.2
    vertex 2.165 6.8500000000000005 0.8
  endloop
endfacet
facet normal 0 0 1
  outer loop
    vertex 2.349 6.455 7.2
    vertex 4 12.8 7.2
    vertex 2.165 6.8500000000000005 7.2
  endloop
endfacet
facet normal -0.965814823749907 -0.25923295744356234 0
  outer loop
    vertex 2.349 6.455 7.2
    vertex 2.462 6.034 0.8
    vertex 2.462 6.034 7.2
  endloop
endfacet
facet normal 0 0 -1
  outer loop
    vertex 2.462 5.166 0.8
    vertex 2.5 5.6000000000000005 0.8
    vertex 4 0 0.8
  endloop
endfacet
facet normal -0.9961887329066084 0.08722389827292684 0
  outer loop
    vertex 2.462 5.166 0.8
    vertex 2.462 5.166 7.2
    vertex 2.5 5.6000000000000005 7.2
  endloop
endfacet
facet normal -0.9961887329066081 0.08722389827292938 0
  outer loop
    vertex 2.462 5.166 0.8
    vertex 2.5 5.6000000000000005 7.2
    vertex 2.5 5.6000000000000005 0.8
  endloop
endfacet
facet normal 0 0 1
  outer loop
    vertex 2.462 5.166 7.2
    vertex 2.349 4.745 7.2
    vertex 4 0 7.2
  endloop
endfacet
facet normal 1.9212165686786295e-15 0 -0.9999999999999999
  outer loop
    vertex 2.462 6.034 0.8
    vertex 4 12.8 0.8
    vertex 2.5 5.6000000000000005 0.8
  endloop
endfacet
facet normal -0.9658148237499075 -0.2592329574435612 0
  outer loop
    vertex 2.462 6.034 0.8
    vertex 2.349 6.455 7.2
    vertex 2.349 6.455 0.8
  endloop
endfacet
facet normal -1.0063945562500307e-14 0 0.9999999999999999
  outer loop
    vertex 2.462 6.034 7.2
    vertex 4 12.8 7.2
    vertex 2.349 6.455 7.2
  endloop
endfacet
facet normal -0.9961887329066083 -0.08722389827292958 0
  outer loop
    vertex 2.462 6.034 7.2
    vertex 2.5 5.6000000000000005 0.8
    vertex 2.5 5.6000000000000005 7.2
  endloop
endfacet
facet normal 0 0 -1
  outer loop
    vertex 2.5 5.6000000000000005 0.8
    vertex 4 12.8 0.8
    vertex 4 0 0.8
  endloop
endfacet
facet normal -0.9961887329066085 -0.08722389827292704 0
  outer loop
    vertex 2.5 5.6000000000000005 0.8
    vertex 2.462 6.034 7.2
    vertex 2.462 6.034 0.8
  endloop
endfacet
facet normal 0 0 0.9999999999999999
  outer loop
    vertex 2.5 5.6000000000000005 7.2
    vertex 4 12.8 7.2
    vertex 2.462 6.034 7.2
  endloop
endfacet
facet normal 0 0 1
  outer loop
    vertex 2.5 5.6000000000000005 7.2
    vertex 2.462 5.166 7.2
    vertex 4 0 7.2
  endloop
endfacet
facet normal 0 0 -0.9999999999999999
  outer loop
    vertex 2.589 3.719 0
    vertex 2.851 4.147 0
    vertex 4 0 0
  endloop
endfacet
facet normal -0.852887522464055 0.5220946983307974 0
  outer loop
    vertex 2.589 3.719 0
    vertex 2.589 3.719 0.8
    vertex 2.851 4.147 0.8
  endloop
endfacet
facet normal -0.8528875224640529 0.5220946983308005 0
  outer loop
    vertex 2.589 3.719 0
    vertex 2.851 4.147 0.8
    vertex 2.851 4.147 0
  endloop
endfacet
facet normal 0 0 0.9999999999999999
  outer loop
    vertex 2.589 3.719 0.8
    vertex 2.263 3.337 0.8
    vertex 4 0 0.8
  endloop
endfacet
facet normal 4.501989726577439e-15 0 -0.9999999999999999
  outer loop
    vertex 2.589 3.719 7.2
    vertex 2.851 4.147 7.2
    vertex 4 0 7.2
  endloop
endfacet
facet normal -0.852887522464055 0.522094698330797 0
  outer loop
    vertex 2.589 3.719 7.2
    vertex 2.589 3.719 8
    vertex 2.851 4.147 8
  endloop
endfacet
facet normal -0.8528875224640535 0.5220946983307998 0
  outer loop
    vertex 2.589 3.719 7.2
    vertex 2.851 4.147 8
    vertex 2.851 4.147 7.2
  endloop
endfacet
facet normal 0 0 0.9999999999999999
  outer loop
    vertex 2.589 3.719 8
    vertex 2.263 3.337 8
    vertex 4 0 8
  endloop
endfacet
facet normal 0 0 -1
  outer loop
    vertex 2.589 7.481 0
    vertex 4 12.8 0
    vertex 2.851 7.053 0
  endloop
endfacet
facet normal -0.760660425101518 -0.6491499962908247 0
  outer loop
    vertex 2.589 7.481 0
    vertex 2.263 7.863 0.8
    vertex 2.263 7.863 0
  endloop
endfacet
facet normal -3.9075230211585187e-16 0 1
  outer loop
    vertex 2.589 7.481 0.8
    vertex 4 12.8 0.8
    vertex 2.263 7.863 0.8
  endloop
endfacet
facet normal -0.8528875224640526 -0.5220946983308008 0
  outer loop
    vertex 2.589 7.481 0.8
    vertex 2.851 7.053 0
    vertex 2.851 7.053 0.8
  endloop
endfacet
facet normal 0 0 -1
  outer loop
    vertex 2.589 7.481 7.2
    vertex 4 12.8 7.2
    vertex 2.851 7.053 7.2
  endloop
endfacet
facet normal -0.7606604251015182 -0.6491499962908246 0
  outer loop
    vertex 2.589 7.481 7.2
    vertex 2.263 7.863 8
    vertex 2.263 7.863 7.2
  endloop
endfacet
facet normal 0 0 1
  outer loop
    vertex 2.589 7.481 8
    vertex 4 12.8 8
    vertex 2.263 7.863 8
  endloop
endfacet
facet normal -0.8528875224640541 -0.5220946983307987 0
  outer loop
    vertex 2.589 7.481 8
    vertex 2.851 7.053 7.2
    vertex 2.851 7.053 8
  endloop
endfacet
facet normal 0 0 -1
  outer loop
    vertex 2.851 4.147 0
    vertex 3.043 4.611 0
    vertex 4 0 0
  endloop
endfacet
facet normal -0.9240168324218908 0.3823517927262999 0
  outer loop
    vertex 2.851 4.147 0
    vertex 2.851 4.147 0.8
    vertex 3.043 4.611 0.8
  endloop
endfacet
facet normal -0.9240168324218908 0.3823517927262999 0
  outer loop
    vertex 2.851 4.147 0
    vertex 3.043 4.611 0.8
    vertex 3.043 4.611 0
  endloop
endfacet
facet normal 0 0 0.9999999999999999
  outer loop
    vertex 2.851 4.147 0.8
    vertex 2.589 3.719 0.8
    vertex 4 0 0.8
  endloop
endfacet
facet normal 0 0 -1
  outer loop
    vertex 2.851 4.147 7.2
    vertex 3.043 4.611 7.2
    vertex 4 0 7.2
  endloop
endfacet
facet normal -0.9240168324218901 0.3823517927263015 0
  outer loop
    vertex 2.851 4.147 7.2
    vertex 2.851 4.147 8
    vertex 3.043 4.611 8
  endloop
endfacet
facet normal -0.9240168324218906 0.3823517927263004 0
  outer loop
    vertex 2.851 4.147 7.2
    vertex 3.043 4.611 8
    vertex 3.043 4.611 7.2
  endloop
endfacet
facet normal 0 0 0.9999999999999999
  outer loop
    vertex 2.851 4.147 8
    vertex 2.589 3.719 8
    vertex 4 0 8
  endloop
endfacet
facet normal 0 0 -1
  outer loop
    vertex 2.851 7.053 0
    vertex 4 12.8 0
    vertex 3.043 6.589 0
  endloop
endfacet
facet normal -0.8528875224640546 -0.5220946983307977 0
  outer loop
    vertex 2.851 7.053 0
    vertex 2.589 7.481 0.8
    vertex 2.589 7.481 0
  endloop
endfacet
facet normal 0 0 1
  outer loop
    vertex 2.851 7.053 0.8
    vertex 4 12.8 0.8
    vertex 2.589 7.481 0.8
  endloop
endfacet
facet normal -0.9240168324218908 -0.3823517927262999 0
  outer loop
    vertex 2.851 7.053 0.8
    vertex 3.043 6.589 0
    vertex 3.043 6.589 0.8
  endloop
endfacet
facet normal 0 0 -1
  outer loop
    vertex 2.851 7.053 7.2
    vertex 4 12.8 7.2
    vertex 3.043 6.589 7.2
  endloop
endfacet
facet normal -0.8528875224640544 -0.5220946983307981 0
  outer loop
    vertex 2.851 7.053 7.2
    vertex 2.589 7.481 8
    vertex 2.589 7.481 7.2
  endloop
endfacet
facet normal 0 0 1
  outer loop
    vertex 2.851 7.053 8
    vertex 4 12.8 8
    vertex 2.589 7.481 8
  endloop
endfacet
facet normal -0.9240168324218908 -0.38235179272629954 0
  outer loop
    vertex 2.851 7.053 8
    vertex 3.043 6.589 7.2
    vertex 3.043 6.589 8
  endloop
endfacet
facet normal 0 0 -1
  outer loop
    vertex 3.043 4.611 0
    vertex 3.161 5.099 0
    vertex 4 0 0
  endloop
endfacet
facet normal -0.9719881365144303 0.2350299182555389 0
  outer loop
    vertex 3.043 4.611 0
    vertex 3.043 4.611 0.8
    vertex 3.161 5.099 0.8
  endloop
endfacet
facet normal -0.9719881365144303 0.2350299182555389 0
  outer loop
    vertex 3.043 4.611 0
    vertex 3.161 5.099 0.8
    vertex 3.161 5.099 0
  endloop
endfacet
facet normal 0 0 1
  outer loop
    vertex 3.043 4.611 0.8
    vertex 2.851 4.147 0.8
    vertex 4 0 0.8
  endloop
endfacet
facet normal 0 0 -1
  outer loop
    vertex 3.043 4.611 7.2
    vertex 3.161 5.099 7.2
    vertex 4 0 7.2
  endloop
endfacet
facet normal -0.9719881365144304 0.23502991825553882 0
  outer loop
    vertex 3.043 4.611 7.2
    vertex 3.043 4.611 8
    vertex 3.161 5.099 8
  endloop
endfacet
facet normal -0.9719881365144306 0.2350299182555372 0
  outer loop
    vertex 3.043 4.611 7.2
    vertex 3.161 5.099 8
    vertex 3.161 5.099 7.2
  endloop
endfacet
facet normal 0 0 1
  outer loop
    vertex 3.043 4.611 8
    vertex 2.851 4.147 8
    vertex 4 0 8
  endloop
endfacet
facet normal 0 0 -1
  outer loop
    vertex 3.043 6.589 0
    vertex 4 12.8 0
    vertex 3.161 6.101 0
  endloop
endfacet
facet normal -0.9240168324218908 -0.3823517927262999 0
  outer loop
    vertex 3.043 6.589 0
    vertex 2.851 7.053 0.8
    vertex 2.851 7.053 0
  endloop
endfacet
facet normal 0 0 1
  outer loop
    vertex 3.043 6.589 0.8
    vertex 4 12.8 0.8
    vertex 2.851 7.053 0.8
  endloop
endfacet
facet normal -0.9719881365144303 -0.2350299182555389 0
  outer loop
    vertex 3.043 6.589 0.8
    vertex 3.161 6.101 0
    vertex 3.161 6.101 0.8
  endloop
endfacet
facet normal 0 0 -1
  outer loop
    vertex 3.043 6.589 7.2
    vertex 4 12.8 7.2
    vertex 3.161 6.101 7.2
  endloop
endfacet
facet normal -0.9240168324218897 -0.38235179272630226 0
  outer loop
    vertex 3.043 6.589 7.2
    vertex 2.851 7.053 8
    vertex 2.851 7.053 7.2
  endloop
endfacet
facet normal 0 0 1
  outer loop
    vertex 3.043 6.589 8
    vertex 4 12.8 8
    vertex 2.851 7.053 8
  endloop
endfacet
facet normal -0.9719881365144308 -0.23502991825553673 0
  outer loop
    vertex 3.043 6.589 8
    vertex 3.161 6.101 7.2
    vertex 3.161 6.101 8
  endloop
endfacet
facet normal 0 0 -1
  outer loop
    vertex 3.161 5.099 0
    vertex 3.2 5.6000000000000005 0
    vertex 4 0 0
  endloop
endfacet
facet normal -0.9969838325773893 0.07760951990123413 0
  outer loop
    vertex 3.161 5.099 0
    vertex 3.161 5.099 0.8
    vertex 3.2 5.6000000000000005 0.8
  endloop
endfacet
facet normal -0.9969838325773893 0.07760951990123413 0
  outer loop
    vertex 3.161 5.099 0
    vertex 3.2 5.6000000000000005 0.8
    vertex 3.2 5.6000000000000005 0
  endloop
endfacet
facet normal 8.784157075266737e-16 0 1
  outer loop
    vertex 3.161 5.099 0.8
    vertex 3.043 4.611 0.8
    vertex 4 0 0.8
  endloop
endfacet
facet normal 0 0 -1
  outer loop
    vertex 3.161 5.099 7.2
    vertex 3.2 5.6000000000000005 7.2
    vertex 4 0 7.2
  endloop
endfacet
facet normal -0.9969838325773893 0.07760951990123413 0
  outer loop
    vertex 3.161 5.099 7.2
    vertex 3.161 5.099 8
    vertex 3.2 5.6000000000000005 8
  endloop
endfacet
facet normal -0.9969838325773893 0.07760951990123413 0
  outer loop
    vertex 3.161 5.099 7.2
    vertex 3.2 5.6000000000000005 8
    vertex 3.2 5.6000000000000005 7.2
  endloop
endfacet
facet normal 0 0 1
  outer loop
    vertex 3.161 5.099 8
    vertex 3.043 4.611 8
    vertex 4 0 8
  endloop
endfacet
facet normal 0 0 -1
  outer loop
    vertex 3.161 6.101 0
    vertex 4 12.8 0
    vertex 3.2 5.6000000000000005 0
  endloop
endfacet
facet normal -0.9719881365144303 -0.2350299182555389 0
  outer loop
    vertex 3.161 6.101 0
    vertex 3.043 6.589 0.8
    vertex 3.043 6.589 0
  endloop
endfacet
facet normal 0 0 1
  outer loop
    vertex 3.161 6.101 0.8
    vertex 4 12.8 0.8
    vertex 3.043 6.589 0.8
  endloop
endfacet
facet normal -0.9969838325773894 -0.07760951990123427 0
  outer loop
    vertex 3.161 6.101 0.8
    vertex 3.2 5.6000000000000005 0
    vertex 3.2 5.6000000000000005 0.8
  endloop
endfacet
facet normal 0 0 -1
  outer loop
    vertex 3.161 6.101 7.2
    vertex 4 12.8 7.2
    vertex 3.2 5.6000000000000005 7.2
  endloop
endfacet
facet normal -0.9719881365144302 -0.23502991825553932 0
  outer loop
    vertex 3.161 6.101 7.2
    vertex 3.043 6.589 8
    vertex 3.043 6.589 7.2
  endloop
endfacet
facet normal 0 0 1
  outer loop
    vertex 3.161 6.101 8
    vertex 4 12.8 8
    vertex 3.043 6.589 8
  endloop
endfacet
facet normal -0.9969838325773893 -0.07760951990123413 0
  outer loop
    vertex 3.161 6.101 8
    vertex 3.2 5.6000000000000005 7.2
    vertex 3.2 5.6000000000000005 8
  endloop
endfacet
facet normal 0 0 -1
  outer loop
    vertex 3.2 5.6000000000000005 0
    vertex 4 12.8 0
    vertex 4 0 0
  endloop
endfacet
facet normal -0.9969838325773894 -0.07760951990123427 0
  outer loop
    vertex 3.2 5.6000000000000005 0
    vertex 3.161 6.101 0.8
    vertex 3.161 6.101 0
  endloop
endfacet
facet normal 0 0 1
  outer loop
    vertex 3.2 5.6000000000000005 0.8
    vertex 4 12.8 0.8
    vertex 3.161 6.101 0.8
  endloop
endfacet
facet normal 0 0 1
  outer loop
    vertex 3.2 5.6000000000000005 0.8
    vertex 3.161 5.099 0.8
    vertex 4 0 0.8
  endloop
endfacet
facet normal 0 0 -1
  outer loop
    vertex 3.2 5.6000000000000005 7.2
    vertex 4 12.8 7.2
    vertex 4 0 7.2
  endloop
endfacet
facet normal -0.9969838325773893 -0.07760951990123448 0
  outer loop
    vertex 3.2 5.6000000000000005 7.2
    vertex 3.161 6.101 8
    vertex 3.161 6.101 7.2
  endloop
endfacet
facet normal 0 0 1
  outer loop
    vertex 3.2 5.6000000000000005 8
    vertex 4 12.8 8
    vertex 3.161 6.101 8
  endloop
endfacet
facet normal 0 0 1
  outer loop
    vertex 3.2 5.6000000000000005 8
    vertex 3.161 5.099 8
    vertex 4 0 8
  endloop
endfacet
facet normal 1 0 0
  outer loop
    vertex 4 0 0
    vertex 4 12.8 0
    vertex 4 0 0.8
  endloop
endfacet
facet normal 1 0 0
  outer loop
    vertex 4 0 0.8
    vertex 4 12.8 0.8
    vertex 4 0 7.2
  endloop
endfacet
facet normal -1.7347234759768073e-16 0 1
  outer loop
    vertex 4 0 0.8
    vertex 4 12.8 0.8
    vertex 3.2 5.6000000000000005 0.8
  endloop
endfacet
facet normal 1.2119476800115434e-16 0 1
  outer loop
    vertex 4 0 0.8
    vertex 0.989 2.557 0.8
    vertex 0.501 2.439 0.8
  endloop
endfacet
facet normal 0 0 1
  outer loop
    vertex 4 0 0.8
    vertex 0.501 2.439 0.8
    vertex 0 2.4 0.8
  endloop
endfacet
facet normal 1 0 0
  outer loop
    vertex 4 0 0.8
    vertex 4 12.8 0
    vertex 4 12.8 0.8
  endloop
endfacet
facet normal 0 0 1
  outer loop
    vertex 4 0 7.2
    vertex 4 12.8 7.2
    vertex 2.5 5.6000000000000005 7.2
  endloop
endfacet
facet normal -1.1591279194673962e-15 0 1
  outer loop
    vertex 4 0 7.2
    vertex 0.855 3.251 7.2
    vertex 0.434 3.138 7.2
  endloop
endfacet
facet normal 5.190036845449516e-16 0 0.9999999999999999
  outer loop
    vertex 4 0 7.2
    vertex 0.434 3.138 7.2
    vertex 0 3.1 7.2
  endloop
endfacet
facet normal 1 0 0
  outer loop
    vertex 4 0 7.2
    vertex 4 12.8 0.8
    vertex 4 12.8 7.2
  endloop
endfacet
facet normal 1 0 0
  outer loop
    vertex 4 0 7.2
    vertex 4 12.8 7.2
    vertex 4 0 8
  endloop
endfacet
facet normal 0 0 1
  outer loop
    vertex 4 0 8
    vertex 4 12.8 8
    vertex 3.2 5.6000000000000005 8
  endloop
endfacet
facet normal 0 0 1
  outer loop
    vertex 4 0 8
    vertex 0.989 2.557 8
    vertex 0.501 2.439 8
  endloop
endfacet
facet normal 0 0 1
  outer loop
    vertex 4 0 8
    vertex 0.501 2.439 8
    vertex 0 2.4 8
  endloop
endfacet
facet normal 1 0 0
  outer loop
    vertex 4 0 8
    vertex 4 12.8 7.2
    vertex 4 12.8 8
  endloop
endfacet
endsolid JSxCAD
