solid JSxCAD
facet normal 0 -1 0
outer loop
vertex 20 6 -0.25
vertex 20 6 1.25
vertex -20 6 1.25
endloop
endfacet
facet normal 0 -1 0
outer loop
vertex 20 6 -0.25
vertex -20 6 1.25
vertex -20 6 -0.25
endloop
endfacet
facet normal 0 0 1
outer loop
vertex 20 6 -0.25
vertex -20 6 -0.25
vertex 9.9 5.99 -0.25
endloop
endfacet
facet normal 0 0 -1
outer loop
vertex 20 6 -0.25
vertex 9.9 5.99 -0.25
vertex 10 6 -0.25
endloop
endfacet
facet normal -1 0 0
outer loop
vertex -20 6 -0.25
vertex -20 6 1.25
vertex -20 7 1.25
endloop
endfacet
facet normal -1 0 0
outer loop
vertex -20 6 -0.25
vertex -20 7 1.25
vertex -20 7 -0.25
endloop
endfacet
facet normal -1 0 0
outer loop
vertex -20 -3 -1.25
vertex -20 -7 -1.25
vertex -20 -7 -0.26
endloop
endfacet
facet normal -0.9999999999999999 0 0
outer loop
vertex -20 -3 -1.25
vertex -20 -7 -0.26
vertex -20 -6.01 -0.26
endloop
endfacet
facet normal -1 0 0
outer loop
vertex -20 -3 -1.25
vertex -20 -6.01 -0.26
vertex -20 -4 -0.26
endloop
endfacet
facet normal -1 0 0
outer loop
vertex -20 -3 -1.25
vertex -20 -4 -0.26
vertex -20 -3.99 -0.26
endloop
endfacet
facet normal -0.9999999999999999 0 0
outer loop
vertex -20 -3 -1.25
vertex -20 -3.99 -0.26
vertex -20 -3 -0.26
endloop
endfacet
facet normal -1 0 0
outer loop
vertex -20 -6.01 -0.26
vertex -20 -7 -0.26
vertex -20 -7 -0.25
endloop
endfacet
facet normal -1 0 0
outer loop
vertex -20 -6.01 -0.26
vertex -20 -7 -0.25
vertex -20 -6.01 -0.25
endloop
endfacet
facet normal -1 0 0
outer loop
vertex -20 -3 -0.25
vertex -20 -3 -0.26
vertex -20 -3.99 -0.26
endloop
endfacet
facet normal -1 0 0
outer loop
vertex -20 -3 -0.25
vertex -20 -3.99 -0.26
vertex -20 -3.99 -0.25
endloop
endfacet
facet normal -1 0 0
outer loop
vertex -20 -4 -0.25
vertex -20 -6 -0.25
vertex -20 -6 -0.24
endloop
endfacet
facet normal -1 0 0
outer loop
vertex -20 -4 -0.25
vertex -20 -6 -0.24
vertex -20 -4 -0.24
endloop
endfacet
facet normal -1 0 0
outer loop
vertex -20 -6 -0.24
vertex -20 -6 1.25
vertex -20 -4 1.25
endloop
endfacet
facet normal -1 0 0
outer loop
vertex -20 -6 -0.24
vertex -20 -4 1.25
vertex -20 -4 -0.24
endloop
endfacet
facet normal -1 0 0
outer loop
vertex -20 -3.99 -0.25
vertex -20 -3.99 -0.26
vertex -20 -4 -0.26
endloop
endfacet
facet normal -1 0 0
outer loop
vertex -20 -3.99 -0.25
vertex -20 -4 -0.26
vertex -20 -4 -0.25
endloop
endfacet
facet normal -1 0 0
outer loop
vertex -20 -4 -0.26
vertex -20 -6.01 -0.26
vertex -20 -6.01 -0.25
endloop
endfacet
facet normal -1 0 0
outer loop
vertex -20 -4 -0.26
vertex -20 -6.01 -0.25
vertex -20 -4 -0.25
endloop
endfacet
facet normal -1 0 0
outer loop
vertex -20 7 -1.25
vertex -20 3 -1.25
vertex -20 3 -0.26
endloop
endfacet
facet normal -1 0 0
outer loop
vertex -20 7 -1.25
vertex -20 3 -0.26
vertex -20 4 -0.26
endloop
endfacet
facet normal -1 0 0
outer loop
vertex -20 7 -1.25
vertex -20 4 -0.26
vertex -20 4.01 -0.26
endloop
endfacet
facet normal -0.9999999999999999 0 0
outer loop
vertex -20 7 -1.25
vertex -20 4.01 -0.26
vertex -20 5.99 -0.26
endloop
endfacet
facet normal -0.9999999999999999 0 0
outer loop
vertex -20 7 -1.25
vertex -20 5.99 -0.26
vertex -20 7 -0.26
endloop
endfacet
facet normal -1 0 0
outer loop
vertex -20 5.99 -0.26
vertex -20 4.01 -0.26
vertex -20 4.01 -0.25
endloop
endfacet
facet normal -1 0 0
outer loop
vertex -20 5.99 -0.26
vertex -20 4.01 -0.25
vertex -20 5.99 -0.25
endloop
endfacet
facet normal -1 0 0
outer loop
vertex -20 7 -0.25
vertex -20 7 -0.26
vertex -20 5.99 -0.26
endloop
endfacet
facet normal -1 0 0
outer loop
vertex -20 7 -0.25
vertex -20 5.99 -0.26
vertex -20 5.99 -0.25
endloop
endfacet
facet normal -1 0 0
outer loop
vertex -20 4.01 -0.25
vertex -20 4.01 -0.26
vertex -20 4 -0.26
endloop
endfacet
facet normal -1 0 0
outer loop
vertex -20 4.01 -0.25
vertex -20 4 -0.26
vertex -20 4 -0.25
endloop
endfacet
facet normal -1 0 0
outer loop
vertex -20 4 -0.26
vertex -20 3 -0.26
vertex -20 3 -0.25
endloop
endfacet
facet normal -1 0 0
outer loop
vertex -20 4 -0.26
vertex -20 3 -0.25
vertex -20 4 -0.25
endloop
endfacet
facet normal -1 0 0
outer loop
vertex -20 4 -0.25
vertex -20 3 -0.25
vertex -20 3 -0.24
endloop
endfacet
facet normal -1 0 0
outer loop
vertex -20 4 -0.25
vertex -20 3 -0.24
vertex -20 4 -0.24
endloop
endfacet
facet normal -1 0 0
outer loop
vertex -20 3 -0.24
vertex -20 3 1.25
vertex -20 4 1.25
endloop
endfacet
facet normal -1 0 0
outer loop
vertex -20 3 -0.24
vertex -20 4 1.25
vertex -20 4 -0.24
endloop
endfacet
facet normal 0 1 0
outer loop
vertex -20 7 -0.25
vertex -20 7 1.25
vertex 20 7 1.25
endloop
endfacet
facet normal 0 1 0
outer loop
vertex -20 7 -0.25
vertex 20 7 1.25
vertex 20 7 -0.25
endloop
endfacet
facet normal 0 1 0
outer loop
vertex 20 7 -1.25
vertex -20 7 -1.25
vertex -20 7 -0.26
endloop
endfacet
facet normal 0 1 0
outer loop
vertex 20 7 -1.25
vertex -20 7 -0.26
vertex 20 7 -0.26
endloop
endfacet
facet normal 0 1 0
outer loop
vertex -20 7 -0.26
vertex -20 7 -0.25
vertex 20 7 -0.25
endloop
endfacet
facet normal 0 1 0
outer loop
vertex -20 7 -0.26
vertex 20 7 -0.25
vertex 20 7 -0.26
endloop
endfacet
facet normal 1 0 0
outer loop
vertex 20 7 -0.25
vertex 20 7 1.25
vertex 20 6 1.25
endloop
endfacet
facet normal 1 0 0
outer loop
vertex 20 7 -0.25
vertex 20 6 1.25
vertex 20 6 -0.25
endloop
endfacet
facet normal 1 0 0
outer loop
vertex 20 -7 -1.25
vertex 20 -3 -1.25
vertex 20 -3 -0.26
endloop
endfacet
facet normal 0.9999999999999999 0 0
outer loop
vertex 20 -7 -1.25
vertex 20 -3 -0.26
vertex 20 -3.99 -0.26
endloop
endfacet
facet normal 1 0 0
outer loop
vertex 20 -7 -1.25
vertex 20 -3.99 -0.26
vertex 20 -4 -0.26
endloop
endfacet
facet normal 1 0 0
outer loop
vertex 20 -7 -1.25
vertex 20 -4 -0.26
vertex 20 -6.01 -0.26
endloop
endfacet
facet normal 0.9999999999999999 0 0
outer loop
vertex 20 -7 -1.25
vertex 20 -6.01 -0.26
vertex 20 -7 -0.26
endloop
endfacet
facet normal 1 0 0
outer loop
vertex 20 -7 -0.26
vertex 20 -6.01 -0.26
vertex 20 -6.01 -0.25
endloop
endfacet
facet normal 1 0 0
outer loop
vertex 20 -7 -0.26
vertex 20 -6.01 -0.25
vertex 20 -7 -0.25
endloop
endfacet
facet normal 1 0 0
outer loop
vertex 20 -3.99 -0.26
vertex 20 -3 -0.26
vertex 20 -3 -0.25
endloop
endfacet
facet normal 1 0 0
outer loop
vertex 20 -3.99 -0.26
vertex 20 -3 -0.25
vertex 20 -3.99 -0.25
endloop
endfacet
facet normal 1 0 0
outer loop
vertex 20 -6 -0.25
vertex 20 -4 -0.25
vertex 20 -4 -0.24
endloop
endfacet
facet normal 1 0 0
outer loop
vertex 20 -6 -0.25
vertex 20 -4 -0.24
vertex 20 -6 -0.24
endloop
endfacet
facet normal 1 0 0
outer loop
vertex 20 -4 -0.24
vertex 20 -4 1.25
vertex 20 -6 1.25
endloop
endfacet
facet normal 1 0 0
outer loop
vertex 20 -4 -0.24
vertex 20 -6 1.25
vertex 20 -6 -0.24
endloop
endfacet
facet normal 1 0 0
outer loop
vertex 20 -3.99 -0.25
vertex 20 -4 -0.25
vertex 20 -4 -0.26
endloop
endfacet
facet normal 1 0 0
outer loop
vertex 20 -3.99 -0.25
vertex 20 -4 -0.26
vertex 20 -3.99 -0.26
endloop
endfacet
facet normal 1 0 0
outer loop
vertex 20 -4 -0.25
vertex 20 -6.01 -0.25
vertex 20 -6.01 -0.26
endloop
endfacet
facet normal 1 0 0
outer loop
vertex 20 -4 -0.25
vertex 20 -6.01 -0.26
vertex 20 -4 -0.26
endloop
endfacet
facet normal 1 0 0
outer loop
vertex 20 3 -1.25
vertex 20 7 -1.25
vertex 20 7 -0.26
endloop
endfacet
facet normal 0.9999999999999999 0 0
outer loop
vertex 20 3 -1.25
vertex 20 7 -0.26
vertex 20 5.99 -0.26
endloop
endfacet
facet normal 0.9999999999999999 0 0
outer loop
vertex 20 3 -1.25
vertex 20 5.99 -0.26
vertex 20 4.01 -0.26
endloop
endfacet
facet normal 1 0 0
outer loop
vertex 20 3 -1.25
vertex 20 4.01 -0.26
vertex 20 4 -0.26
endloop
endfacet
facet normal 1 0 0
outer loop
vertex 20 3 -1.25
vertex 20 4 -0.26
vertex 20 3 -0.26
endloop
endfacet
facet normal 1 0 0
outer loop
vertex 20 4.01 -0.25
vertex 20 4.01 -0.26
vertex 20 5.99 -0.26
endloop
endfacet
facet normal 1 0 0
outer loop
vertex 20 4.01 -0.25
vertex 20 5.99 -0.26
vertex 20 5.99 -0.25
endloop
endfacet
facet normal 1 0 0
outer loop
vertex 20 5.99 -0.26
vertex 20 7 -0.26
vertex 20 7 -0.25
endloop
endfacet
facet normal 1 0 0
outer loop
vertex 20 5.99 -0.26
vertex 20 7 -0.25
vertex 20 6 -0.25
endloop
endfacet
facet normal 1 0 0
outer loop
vertex 20 5.99 -0.26
vertex 20 6 -0.25
vertex 20 5.99 -0.25
endloop
endfacet
facet normal 1 0 0
outer loop
vertex 20 3 -0.25
vertex 20 4 -0.25
vertex 20 4 -0.24
endloop
endfacet
facet normal 1 0 0
outer loop
vertex 20 3 -0.25
vertex 20 4 -0.24
vertex 20 3 -0.24
endloop
endfacet
facet normal 1 0 0
outer loop
vertex 20 4 -0.24
vertex 20 4 1.25
vertex 20 3 1.25
endloop
endfacet
facet normal 1 0 0
outer loop
vertex 20 4 -0.24
vertex 20 3 1.25
vertex 20 3 -0.24
endloop
endfacet
facet normal 1 0 0
outer loop
vertex 20 4 -0.26
vertex 20 4.01 -0.26
vertex 20 4.01 -0.25
endloop
endfacet
facet normal 1 0 0
outer loop
vertex 20 4 -0.26
vertex 20 4.01 -0.25
vertex 20 4 -0.25
endloop
endfacet
facet normal 1 0 0
outer loop
vertex 20 3 -0.25
vertex 20 3 -0.26
vertex 20 4 -0.26
endloop
endfacet
facet normal 1 0 0
outer loop
vertex 20 3 -0.25
vertex 20 4 -0.26
vertex 20 4 -0.25
endloop
endfacet
facet normal 0 0 1
outer loop
vertex -20 6 1.25
vertex 20 6 1.25
vertex 20 7 1.25
endloop
endfacet
facet normal 0 0 1
outer loop
vertex 20 7 1.25
vertex -20 7 1.25
vertex -20 6 1.25
endloop
endfacet
facet normal 0 0 1
outer loop
vertex -20 -6 1.25
vertex 20 -6 1.25
vertex 20 -4 1.25
endloop
endfacet
facet normal 0 0 1
outer loop
vertex 20 -4 1.25
vertex -20 -4 1.25
vertex -20 -6 1.25
endloop
endfacet
facet normal 0 0 1
outer loop
vertex -20 3 1.25
vertex 20 3 1.25
vertex 20 4 1.25
endloop
endfacet
facet normal 0 0 1
outer loop
vertex 20 4 1.25
vertex -20 4 1.25
vertex -20 3 1.25
endloop
endfacet
facet normal 0 -1 0
outer loop
vertex -20 -7 -1.25
vertex 20 -7 -1.25
vertex 20 -7 -0.26
endloop
endfacet
facet normal 0 -1 0
outer loop
vertex -20 -7 -1.25
vertex 20 -7 -0.26
vertex -20 -7 -0.26
endloop
endfacet
facet normal 0 -1 0
outer loop
vertex 20 -7 -0.26
vertex 20 -7 -0.25
vertex -20 -7 -0.25
endloop
endfacet
facet normal 0 -1 0
outer loop
vertex 20 -7 -0.26
vertex -20 -7 -0.25
vertex -20 -7 -0.26
endloop
endfacet
facet normal 0 1 0
outer loop
vertex 20 -3 -1.25
vertex -20 -3 -1.25
vertex -20 -3 -0.26
endloop
endfacet
facet normal 0 1 0
outer loop
vertex 20 -3 -1.25
vertex -20 -3 -0.26
vertex 20 -3 -0.26
endloop
endfacet
facet normal 0 1 0
outer loop
vertex -20 -3 -0.26
vertex -20 -3 -0.25
vertex 20 -3 -0.25
endloop
endfacet
facet normal 0 1 0
outer loop
vertex -20 -3 -0.26
vertex 20 -3 -0.25
vertex 20 -3 -0.26
endloop
endfacet
facet normal 0 0 -1
outer loop
vertex 20 -3 -1.25
vertex 20 -7 -1.25
vertex -20 -7 -1.25
endloop
endfacet
facet normal 0 0 -1
outer loop
vertex -20 -7 -1.25
vertex -20 -3 -1.25
vertex 20 -3 -1.25
endloop
endfacet
facet normal 0 0 -1
outer loop
vertex 20 7 -1.25
vertex 20 3 -1.25
vertex -20 3 -1.25
endloop
endfacet
facet normal 0 0 -1
outer loop
vertex -20 3 -1.25
vertex -20 7 -1.25
vertex 20 7 -1.25
endloop
endfacet
facet normal 0 0 1
outer loop
vertex -10.1 -6.01 -0.25
vertex -20 -7 -0.25
vertex 20 -7 -0.25
endloop
endfacet
facet normal 0 0 1
outer loop
vertex -10.1 -6.01 -0.25
vertex 20 -7 -0.25
vertex 20 -6.01 -0.25
endloop
endfacet
facet normal 0 0 1
outer loop
vertex -20 -7 -0.25
vertex -10.1 -6.01 -0.25
vertex -20 -6.01 -0.25
endloop
endfacet
facet normal 0 0 1
outer loop
vertex 20 -3.99 -0.25
vertex 20 -3 -0.25
vertex 10.1 -3.99 -0.25
endloop
endfacet
facet normal 0 0 1
outer loop
vertex 10.1 -3.99 -0.25
vertex 20 -3 -0.25
vertex -20 -3 -0.25
endloop
endfacet
facet normal 0 0 1
outer loop
vertex 10.1 -3.99 -0.25
vertex -20 -3 -0.25
vertex -20 -3.99 -0.25
endloop
endfacet
facet normal 0 0 1
outer loop
vertex 20 -4 -0.25
vertex 20 -3.99 -0.25
vertex 10.1 -3.99 -0.25
endloop
endfacet
facet normal 0 0 1
outer loop
vertex 20 -4 -0.25
vertex 10.1 -3.99 -0.25
vertex 10 -4 -0.25
endloop
endfacet
facet normal 0 0 1
outer loop
vertex -20 -3.99 -0.25
vertex -20 -4 -0.25
vertex 10 -4 -0.25
endloop
endfacet
facet normal 0 0 1
outer loop
vertex -20 -3.99 -0.25
vertex 10 -4 -0.25
vertex 10.1 -3.99 -0.25
endloop
endfacet
facet normal 0 0 1
outer loop
vertex -10 -6 -0.25
vertex -10.1 -6.01 -0.25
vertex 20 -6.01 -0.25
endloop
endfacet
facet normal 0 0 1
outer loop
vertex -10 -6 -0.25
vertex 20 -6.01 -0.25
vertex 20 -6 -0.25
endloop
endfacet
facet normal 0 0 1
outer loop
vertex -20 -6 -0.25
vertex -20 -6.01 -0.25
vertex -10.1 -6.01 -0.25
endloop
endfacet
facet normal 0 0 1
outer loop
vertex -20 -6 -0.25
vertex -10.1 -6.01 -0.25
vertex -10 -6 -0.25
endloop
endfacet
facet normal 0 0 1
outer loop
vertex 20 4.01 -0.25
vertex 20 5.99 -0.25
vertex 9.9 5.99 -0.25
endloop
endfacet
facet normal 0 0 0.9999999999999999
outer loop
vertex 20 4.01 -0.25
vertex 9.9 5.99 -0.25
vertex -9.9 4.01 -0.25
endloop
endfacet
facet normal 0 0 1
outer loop
vertex -20 4.01 -0.25
vertex -9.9 4.01 -0.25
vertex 9.9 5.99 -0.25
endloop
endfacet
facet normal 0 0 1
outer loop
vertex -20 4.01 -0.25
vertex 9.9 5.99 -0.25
vertex -20 5.99 -0.25
endloop
endfacet
facet normal 0 0 1
outer loop
vertex 9.9 5.99 -0.25
vertex 20 5.99 -0.25
vertex 20 6 -0.25
endloop
endfacet
facet normal 0 0 1
outer loop
vertex 9.9 5.99 -0.25
vertex 20 6 -0.25
vertex 10 6 -0.25
endloop
endfacet
facet normal 0 0 1
outer loop
vertex -20 5.99 -0.25
vertex 9.9 5.99 -0.25
vertex 10 6 -0.25
endloop
endfacet
facet normal 0 0 1
outer loop
vertex -20 5.99 -0.25
vertex 10 6 -0.25
vertex -20 6 -0.25
endloop
endfacet
facet normal 0 0 1
outer loop
vertex 20 4.01 -0.25
vertex -9.9 4.01 -0.25
vertex -10 4 -0.25
endloop
endfacet
facet normal 0 0 1
outer loop
vertex 20 4.01 -0.25
vertex -10 4 -0.25
vertex 20 4 -0.25
endloop
endfacet
facet normal 0 0 1
outer loop
vertex -20 4.01 -0.25
vertex -20 4 -0.25
vertex -10 4 -0.25
endloop
endfacet
facet normal 0 0 1
outer loop
vertex -20 4.01 -0.25
vertex -10 4 -0.25
vertex -9.9 4.01 -0.25
endloop
endfacet
facet normal 0 0 1
outer loop
vertex -20 -6 -0.25
vertex -10.1 -6.01 -0.25
vertex -10 -6 -0.25
endloop
endfacet
facet normal 0 -1 0
outer loop
vertex -20 -6 -0.25
vertex 20 -6 -0.25
vertex 20 -6 -0.24
endloop
endfacet
facet normal 0 1 0
outer loop
vertex -20 -6 -0.25
vertex 20 -6 -0.24
vertex -10 -6 -0.25
endloop
endfacet
facet normal 0 -1 0
outer loop
vertex -20 -6 -0.25
vertex -10 -6 -0.25
vertex -20 -6 -0.24
endloop
endfacet
facet normal 0 -1 0
outer loop
vertex 20 -6 -0.24
vertex 20 -6 1.25
vertex -20 -6 1.25
endloop
endfacet
facet normal 0 -1 0
outer loop
vertex 20 -6 -0.24
vertex -20 -6 1.25
vertex -20 -6 -0.24
endloop
endfacet
facet normal 0 -1 0
outer loop
vertex 20 -6 -0.24
vertex -20 -6 -0.24
vertex -10 -6 -0.25
endloop
endfacet
facet normal 0 0 1
outer loop
vertex 20 -4 -0.25
vertex 10.1 -3.99 -0.25
vertex 10 -4 -0.25
endloop
endfacet
facet normal 0 1 0
outer loop
vertex 20 -4 -0.25
vertex -20 -4 -0.25
vertex -20 -4 -0.24
endloop
endfacet
facet normal 0 -1 0
outer loop
vertex 20 -4 -0.25
vertex -20 -4 -0.24
vertex 10 -4 -0.25
endloop
endfacet
facet normal 0 1 0
outer loop
vertex 20 -4 -0.25
vertex 10 -4 -0.25
vertex 20 -4 -0.24
endloop
endfacet
facet normal 0 1 0
outer loop
vertex -20 -4 -0.24
vertex -20 -4 1.25
vertex 20 -4 1.25
endloop
endfacet
facet normal 0 1 0
outer loop
vertex -20 -4 -0.24
vertex 20 -4 1.25
vertex 20 -4 -0.24
endloop
endfacet
facet normal 0 1 0
outer loop
vertex -20 -4 -0.24
vertex 20 -4 -0.24
vertex 10 -4 -0.25
endloop
endfacet
facet normal 0 -1 0
outer loop
vertex -20 3 -1.25
vertex 20 3 -1.25
vertex 20 3 -0.26
endloop
endfacet
facet normal 0 -1 0
outer loop
vertex -20 3 -1.25
vertex 20 3 -0.26
vertex -20 3 -0.26
endloop
endfacet
facet normal 0 -1 0
outer loop
vertex 20 3 -0.26
vertex 20 3 -0.25
vertex -20 3 -0.25
endloop
endfacet
facet normal 0 -1 0
outer loop
vertex 20 3 -0.26
vertex -20 3 -0.25
vertex -20 3 -0.26
endloop
endfacet
facet normal 0 -1 0
outer loop
vertex -20 3 -0.25
vertex 20 3 -0.25
vertex 20 3 -0.24
endloop
endfacet
facet normal 0 -1 0
outer loop
vertex -20 3 -0.25
vertex 20 3 -0.24
vertex -20 3 -0.24
endloop
endfacet
facet normal 0 -1 0
outer loop
vertex 20 3 -0.24
vertex 20 3 1.25
vertex -20 3 1.25
endloop
endfacet
facet normal 0 -1 0
outer loop
vertex 20 3 -0.24
vertex -20 3 1.25
vertex -20 3 -0.24
endloop
endfacet
facet normal 0 0 1
outer loop
vertex 20 4 -0.25
vertex -9.9 4.01 -0.25
vertex -10 4 -0.25
endloop
endfacet
facet normal 0 1 0
outer loop
vertex 20 4 -0.25
vertex -20 4 -0.25
vertex -20 4 -0.24
endloop
endfacet
facet normal 0 -1 0
outer loop
vertex 20 4 -0.25
vertex -20 4 -0.24
vertex -10 4 -0.25
endloop
endfacet
facet normal 0 1 0
outer loop
vertex 20 4 -0.25
vertex -10 4 -0.25
vertex 20 4 -0.24
endloop
endfacet
facet normal 0 1 0
outer loop
vertex -20 4 -0.24
vertex -20 4 1.25
vertex 20 4 1.25
endloop
endfacet
facet normal 0 1 0
outer loop
vertex -20 4 -0.24
vertex 20 4 1.25
vertex 20 4 -0.24
endloop
endfacet
facet normal 0 1 0
outer loop
vertex -20 4 -0.24
vertex 20 4 -0.24
vertex -10 4 -0.25
endloop
endfacet
endsolid JSxCAD
