solid JSxCAD
facet normal 0 -1 0
outer loop
vertex -20 6 1.25
vertex -20 6 -0.25
vertex 20 6 -0.25
endloop
endfacet
facet normal 0 -1 0
outer loop
vertex 20 6 -0.25
vertex 20 6 1.25
vertex -20 6 1.25
endloop
endfacet
facet normal -1 0 0
outer loop
vertex -20 -6 -0.25
vertex -20 -6 1.25
vertex -20 -4 1.25
endloop
endfacet
facet normal -1 0 0
outer loop
vertex -20 -4 -0.25
vertex -20 -3 -0.25
vertex -20 -3 -1.25
endloop
endfacet
facet normal -1 0 0
outer loop
vertex -20 -3 -1.25
vertex -20 -7 -1.25
vertex -20 -7 -0.25
endloop
endfacet
facet normal -1 0 0
outer loop
vertex -20 -6 -0.25
vertex -20 -4 1.25
vertex -20 -4 -0.25
endloop
endfacet
facet normal -1 0 0
outer loop
vertex -20 -3 -1.25
vertex -20 -7 -0.25
vertex -20 -6 -0.25
endloop
endfacet
facet normal -1 0 0
outer loop
vertex -20 -6 -0.25
vertex -20 -4 -0.25
vertex -20 -3 -1.25
endloop
endfacet
facet normal -1 0 0
outer loop
vertex -20 3 -1.25
vertex -20 3 1.25
vertex -20 4 1.25
endloop
endfacet
facet normal -1 0 0
outer loop
vertex -20 6 -0.25
vertex -20 6 1.25
vertex -20 7 1.25
endloop
endfacet
facet normal -1 0 0
outer loop
vertex -20 3 -1.25
vertex -20 4 1.25
vertex -20 4 -0.25
endloop
endfacet
facet normal -1 0 0
outer loop
vertex -20 6 -0.25
vertex -20 7 1.25
vertex -20 7 -1.25
endloop
endfacet
facet normal -1 0 0
outer loop
vertex -20 7 -1.25
vertex -20 3 -1.25
vertex -20 4 -0.25
endloop
endfacet
facet normal -1 0 0
outer loop
vertex -20 4 -0.25
vertex -20 6 -0.25
vertex -20 7 -1.25
endloop
endfacet
facet normal 0 1 0
outer loop
vertex -20 7 -1.25
vertex -20 7 1.25
vertex 20 7 1.25
endloop
endfacet
facet normal 0 1 0
outer loop
vertex 20 7 1.25
vertex 20 7 -1.25
vertex -20 7 -1.25
endloop
endfacet
facet normal 1 0 0
outer loop
vertex 20 -6 -0.25
vertex 20 -7 -0.25
vertex 20 -7 -1.25
endloop
endfacet
facet normal 1 0 0
outer loop
vertex 20 -7 -1.25
vertex 20 -3 -1.25
vertex 20 -3 -0.25
endloop
endfacet
facet normal 1 0 0
outer loop
vertex 20 -4 -0.25
vertex 20 -4 1.25
vertex 20 -6 1.25
endloop
endfacet
facet normal 1 0 0
outer loop
vertex 20 -7 -1.25
vertex 20 -3 -0.25
vertex 20 -4 -0.25
endloop
endfacet
facet normal 1 0 0
outer loop
vertex 20 -4 -0.25
vertex 20 -6 1.25
vertex 20 -6 -0.25
endloop
endfacet
facet normal 1 0 0
outer loop
vertex 20 -6 -0.25
vertex 20 -7 -1.25
vertex 20 -4 -0.25
endloop
endfacet
facet normal 1 0 0
outer loop
vertex 20 7 -1.25
vertex 20 7 1.25
vertex 20 6 1.25
endloop
endfacet
facet normal 1 0 0
outer loop
vertex 20 4 -0.25
vertex 20 4 1.25
vertex 20 3 1.25
endloop
endfacet
facet normal 1 0 0
outer loop
vertex 20 7 -1.25
vertex 20 6 1.25
vertex 20 6 -0.25
endloop
endfacet
facet normal 1 0 0
outer loop
vertex 20 4 -0.25
vertex 20 3 1.25
vertex 20 3 -1.25
endloop
endfacet
facet normal 1 0 0
outer loop
vertex 20 3 -1.25
vertex 20 7 -1.25
vertex 20 6 -0.25
endloop
endfacet
facet normal 1 0 0
outer loop
vertex 20 6 -0.25
vertex 20 4 -0.25
vertex 20 3 -1.25
endloop
endfacet
facet normal 0 0 1
outer loop
vertex 20 7 1.25
vertex -20 7 1.25
vertex -20 6 1.25
endloop
endfacet
facet normal 0 0 1
outer loop
vertex -20 6 1.25
vertex 20 6 1.25
vertex 20 7 1.25
endloop
endfacet
facet normal 0 0 1
outer loop
vertex 20 4 1.25
vertex -20 4 1.25
vertex -20 3 1.25
endloop
endfacet
facet normal 0 0 1
outer loop
vertex -20 3 1.25
vertex 20 3 1.25
vertex 20 4 1.25
endloop
endfacet
facet normal 0 0 1
outer loop
vertex 20 -4 1.25
vertex -20 -4 1.25
vertex -20 -6 1.25
endloop
endfacet
facet normal 0 0 1
outer loop
vertex -20 -6 1.25
vertex 20 -6 1.25
vertex 20 -4 1.25
endloop
endfacet
facet normal 0 -1 0
outer loop
vertex -20 -7 -0.25
vertex -20 -7 -1.25
vertex 20 -7 -1.25
endloop
endfacet
facet normal 0 -1 0
outer loop
vertex 20 -7 -1.25
vertex 20 -7 -0.25
vertex -20 -7 -0.25
endloop
endfacet
facet normal 0 1 0
outer loop
vertex -20 -3 -1.25
vertex -20 -3 -0.25
vertex 20 -3 -0.25
endloop
endfacet
facet normal 0 1 0
outer loop
vertex 20 -3 -0.25
vertex 20 -3 -1.25
vertex -20 -3 -1.25
endloop
endfacet
facet normal 0 0 -1
outer loop
vertex -20 -7 -1.25
vertex -20 -3 -1.25
vertex 20 -3 -1.25
endloop
endfacet
facet normal 0 0 -1
outer loop
vertex 20 -3 -1.25
vertex 20 -7 -1.25
vertex -20 -7 -1.25
endloop
endfacet
facet normal 0 0 -1
outer loop
vertex -20 3 -1.25
vertex -20 7 -1.25
vertex 20 7 -1.25
endloop
endfacet
facet normal 0 0 -1
outer loop
vertex 20 7 -1.25
vertex 20 3 -1.25
vertex -20 3 -1.25
endloop
endfacet
facet normal 0 0 1
outer loop
vertex -20 4 -0.25
vertex 20 4 -0.25
vertex 20 6 -0.25
endloop
endfacet
facet normal 0 0 1
outer loop
vertex 20 6 -0.25
vertex -20 6 -0.25
vertex -20 4 -0.25
endloop
endfacet
facet normal 0 0 1
outer loop
vertex -20 -3 -0.25
vertex -20 -4 -0.25
vertex 20 -4 -0.25
endloop
endfacet
facet normal 0 0 1
outer loop
vertex 20 -4 -0.25
vertex 20 -3 -0.25
vertex -20 -3 -0.25
endloop
endfacet
facet normal 0 0 1
outer loop
vertex 20 -7 -0.25
vertex 20 -6 -0.25
vertex -20 -6 -0.25
endloop
endfacet
facet normal 0 0 1
outer loop
vertex -20 -6 -0.25
vertex -20 -7 -0.25
vertex 20 -7 -0.25
endloop
endfacet
facet normal 0 -1 0
outer loop
vertex -20 -6 1.25
vertex -20 -6 -0.25
vertex 20 -6 -0.25
endloop
endfacet
facet normal 0 -1 0
outer loop
vertex 20 -6 -0.25
vertex 20 -6 1.25
vertex -20 -6 1.25
endloop
endfacet
facet normal 0 1 0
outer loop
vertex -20 -4 -0.25
vertex -20 -4 1.25
vertex 20 -4 1.25
endloop
endfacet
facet normal 0 1 0
outer loop
vertex 20 -4 1.25
vertex 20 -4 -0.25
vertex -20 -4 -0.25
endloop
endfacet
facet normal 0 -1 0
outer loop
vertex -20 3 1.25
vertex -20 3 -1.25
vertex 20 3 -1.25
endloop
endfacet
facet normal 0 -1 0
outer loop
vertex 20 3 -1.25
vertex 20 3 1.25
vertex -20 3 1.25
endloop
endfacet
facet normal 0 1 0
outer loop
vertex -20 4 -0.25
vertex -20 4 1.25
vertex 20 4 1.25
endloop
endfacet
facet normal 0 1 0
outer loop
vertex 20 4 1.25
vertex 20 4 -0.25
vertex -20 4 -0.25
endloop
endfacet
endsolid JSxCAD
