solid JSxCAD
facet normal 0 -1 0
outer loop
vertex -15 -15 -15
vertex 15 -15 -15
vertex 15 -15 15
endloop
endfacet
facet normal 0 -1 0
outer loop
vertex 15 -15 15
vertex -15 -15 15
vertex -15 -15 -15
endloop
endfacet
facet normal -1 0 0
outer loop
vertex -15 -15 -15
vertex -15 -15 15
vertex -15 15 15
endloop
endfacet
facet normal -1 0 0
outer loop
vertex -15 -15 -15
vertex -15 15 15
vertex -15 15 -15
endloop
endfacet
facet normal 0 1 0
outer loop
vertex 15 15 15
vertex -15 15 -15
vertex -15 15 15
endloop
endfacet
facet normal 0 1 0
outer loop
vertex 15 15 -15
vertex -15 15 -15
vertex 15 15 15
endloop
endfacet
facet normal 0 0 1
outer loop
vertex -15 15 15
vertex -15 -15 15
vertex -5 0 15
endloop
endfacet
facet normal 0 0 1
outer loop
vertex -4.90393 -0.97545 15
vertex -5 0 15
vertex -15 -15 15
endloop
endfacet
facet normal 1.903995969184452e-15 0 1
outer loop
vertex -15 15 15
vertex -5 0 15
vertex -4.90393 0.97545 15
endloop
endfacet
facet normal 0 0 0.9999999999999999
outer loop
vertex -4.6194 -1.91342 15
vertex -4.90393 -0.97545 15
vertex -15 -15 15
endloop
endfacet
facet normal -7.918254093986935e-16 0 1
outer loop
vertex -15 15 15
vertex -4.90393 0.97545 15
vertex -4.6194 1.91342 15
endloop
endfacet
facet normal 0 0 0.9999999999999999
outer loop
vertex -4.15735 -2.77785 15
vertex -4.6194 -1.91342 15
vertex -15 -15 15
endloop
endfacet
facet normal 1.1826644487918589e-15 0 1
outer loop
vertex -15 15 15
vertex -4.6194 1.91342 15
vertex -4.15735 2.77785 15
endloop
endfacet
facet normal 0 0 1
outer loop
vertex -3.53553 -3.53553 15
vertex -4.15735 -2.77785 15
vertex -15 -15 15
endloop
endfacet
facet normal -1.7971093681092726e-15 0 1
outer loop
vertex -15 15 15
vertex -4.15735 2.77785 15
vertex -3.53553 3.53553 15
endloop
endfacet
facet normal 0 0 1
outer loop
vertex -2.77785 -4.15735 15
vertex -3.53553 -3.53553 15
vertex -15 -15 15
endloop
endfacet
facet normal 8.985546840546397e-16 0 1
outer loop
vertex -15 15 15
vertex -3.53553 3.53553 15
vertex -2.77785 4.15735 15
endloop
endfacet
facet normal 0 0 0.9999999999999999
outer loop
vertex -1.91342 -4.6194 15
vertex -2.77785 -4.15735 15
vertex -15 -15 15
endloop
endfacet
facet normal 0 0 1
outer loop
vertex 15 15 15
vertex -15 15 15
vertex -2.77785 4.15735 15
endloop
endfacet
facet normal -4.223068850126382e-15 0 1
outer loop
vertex -0.97545 -4.90393 15
vertex -1.91342 -4.6194 15
vertex -15 -15 15
endloop
endfacet
facet normal -9.20029577635913e-15 0 1
outer loop
vertex 15 15 15
vertex -2.77785 4.15735 15
vertex -1.91342 4.6194 15
endloop
endfacet
facet normal 5.077322584491864e-15 0 1
outer loop
vertex 0 -5 15
vertex -0.97545 -4.90393 15
vertex -15 -15 15
endloop
endfacet
facet normal -7.214633842442383e-15 0 1
outer loop
vertex 15 15 15
vertex -1.91342 4.6194 15
vertex -0.97545 4.90393 15
endloop
endfacet
facet normal -6.837524596985378e-15 0 1
outer loop
vertex 0.97545 -4.90393 15
vertex 0 -5 15
vertex -15 -15 15
endloop
endfacet
facet normal 4.059780229460068e-15 0 1
outer loop
vertex 15 15 15
vertex -0.97545 4.90393 15
vertex 0 5 15
endloop
endfacet
facet normal 1.1543414147907857e-14 0 1
outer loop
vertex 1.91342 -4.6194 15
vertex 0.97545 -4.90393 15
vertex -15 -15 15
endloop
endfacet
facet normal -3.014660284542044e-15 0 1
outer loop
vertex 15 15 15
vertex 0 5 15
vertex 0.97545 4.90393 15
endloop
endfacet
facet normal 0 0 1
outer loop
vertex 2.77785 -4.15735 15
vertex 1.91342 -4.6194 15
vertex -15 -15 15
endloop
endfacet
facet normal 2.6394180313289854e-15 0 1
outer loop
vertex 15 15 15
vertex 0.97545 4.90393 15
vertex 1.91342 4.6194 15
endloop
endfacet
facet normal 0 0 1
outer loop
vertex 2.77785 -4.15735 15
vertex -15 -15 15
vertex 15 -15 15
endloop
endfacet
facet normal 7.095986692751141e-16 0 1
outer loop
vertex 15 15 15
vertex 1.91342 4.6194 15
vertex 2.77785 4.15735 15
endloop
endfacet
facet normal 0 0 1
outer loop
vertex 3.53553 -3.53553 15
vertex 2.77785 -4.15735 15
vertex 15 -15 15
endloop
endfacet
facet normal -8.985546840546397e-16 0 1
outer loop
vertex 15 15 15
vertex 2.77785 4.15735 15
vertex 3.53553 3.53553 15
endloop
endfacet
facet normal 3.594218736218547e-15 0 1
outer loop
vertex 4.15735 -2.77785 15
vertex 3.53553 -3.53553 15
vertex 15 -15 15
endloop
endfacet
facet normal 1.7971093681092726e-15 0 1
outer loop
vertex 15 15 15
vertex 3.53553 3.53553 15
vertex 4.15735 2.77785 15
endloop
endfacet
facet normal 0 0 0.9999999999999999
outer loop
vertex 4.6194 -1.91342 15
vertex 4.15735 -2.77785 15
vertex 15 -15 15
endloop
endfacet
facet normal 0 0 1
outer loop
vertex 15 -15 15
vertex 15 15 15
vertex 4.15735 2.77785 15
endloop
endfacet
facet normal 0 0 0.9999999999999999
outer loop
vertex 4.90393 -0.97545 15
vertex 4.6194 -1.91342 15
vertex 15 -15 15
endloop
endfacet
facet normal -6.440207043451707e-14 0 1
outer loop
vertex 15 -15 15
vertex 4.15735 2.77785 15
vertex 4.6194 1.91342 15
endloop
endfacet
facet normal 0 0 1
outer loop
vertex 5 0 15
vertex 4.90393 -0.97545 15
vertex 15 -15 15
endloop
endfacet
facet normal 1.3707804300640424e-14 0 1
outer loop
vertex 15 -15 15
vertex 4.6194 1.91342 15
vertex 4.90393 0.97545 15
endloop
endfacet
facet normal 0 0 1
outer loop
vertex 4.90393 0.97545 15
vertex 5 0 15
vertex 15 -15 15
endloop
endfacet
facet normal 0 0 -1
outer loop
vertex -3.67683 -3.67683 -15
vertex -4.15735 -2.77785 -15
vertex -3.53553 -3.53553 -15
endloop
endfacet
facet normal 5.1700708866167206e-15 0 -1
outer loop
vertex -4.5517 -4.5517 -15
vertex -4.90393 -0.97545 -15
vertex -4.6194 -1.91342 -15
endloop
endfacet
facet normal 0 0 0.9999999999999999
outer loop
vertex -4.6194 -1.91342 -15
vertex -4.15735 -2.77785 -15
vertex -3.67683 -3.67683 -15
endloop
endfacet
facet normal 0 0 -1
outer loop
vertex -4.6194 -1.91342 -15
vertex -3.67683 -3.67683 -15
vertex -4.5517 -4.5517 -15
endloop
endfacet
facet normal -0.6493829240776724 0 -0.7604615821435899
outer loop
vertex 15 15 -15
vertex 3.67683 3.67683 -15
vertex 3.53553 3.53553 -15
endloop
endfacet
facet normal -8.985546840546397e-16 0 -1
outer loop
vertex 15 15 -15
vertex 3.53553 3.53553 -15
vertex 2.77785 4.15735 -15
endloop
endfacet
facet normal 1.1445598192714436e-9 0 1
outer loop
vertex -5 0 -15
vertex -4.90393 -0.97545 -15
vertex -4.5517 -4.5517 -15
endloop
endfacet
facet normal -1.0880893324427518e-15 0 -1
outer loop
vertex -5 0 -15
vertex -4.5517 -4.5517 -15
vertex -15 -15 -15
endloop
endfacet
facet normal 0 0 -1
outer loop
vertex -15 15 -15
vertex 15 15 -15
vertex 2.77785 4.15735 -15
endloop
endfacet
facet normal 0 0 -1
outer loop
vertex -4.90393 0.97545 -15
vertex -5 0 -15
vertex -15 -15 -15
endloop
endfacet
facet normal 9.20029577635913e-15 0 -1
outer loop
vertex -15 15 -15
vertex 2.77785 4.15735 -15
vertex 1.91342 4.6194 -15
endloop
endfacet
facet normal -1.1543414147907723e-14 0 -1
outer loop
vertex -4.6194 1.91342 -15
vertex -4.90393 0.97545 -15
vertex -15 -15 -15
endloop
endfacet
facet normal 7.214633842442383e-15 0 -1
outer loop
vertex -15 15 -15
vertex 1.91342 4.6194 -15
vertex 0.97545 4.90393 -15
endloop
endfacet
facet normal 4.906824414058421e-14 0 -1
outer loop
vertex -4.15735 2.77785 -15
vertex -4.6194 1.91342 -15
vertex -15 -15 -15
endloop
endfacet
facet normal -4.059780229460068e-15 0 -1
outer loop
vertex -15 15 -15
vertex 0.97545 4.90393 -15
vertex 0 5 -15
endloop
endfacet
facet normal 0 0 -1
outer loop
vertex -4.15735 2.77785 -15
vertex -15 -15 -15
vertex -15 15 -15
endloop
endfacet
facet normal 3.014660284542044e-15 0 -1
outer loop
vertex -15 15 -15
vertex 0 5 -15
vertex -0.97545 4.90393 -15
endloop
endfacet
facet normal 0 0 -1
outer loop
vertex -3.53553 3.53553 -15
vertex -4.15735 2.77785 -15
vertex -15 15 -15
endloop
endfacet
facet normal -2.6394180313289854e-15 0 -1
outer loop
vertex -15 15 -15
vertex -0.97545 4.90393 -15
vertex -1.91342 4.6194 -15
endloop
endfacet
facet normal 0 0 -1
outer loop
vertex -2.77785 4.15735 -15
vertex -3.53553 3.53553 -15
vertex -15 15 -15
endloop
endfacet
facet normal -7.095986692751141e-16 0 -1
outer loop
vertex -15 15 -15
vertex -1.91342 4.6194 -15
vertex -2.77785 4.15735 -15
endloop
endfacet
facet normal 0 0 0.9999999999999999
outer loop
vertex 5.0001 -0.00102 -15
vertex 5 0 -15
vertex 4.90393 0.97545 -15
endloop
endfacet
facet normal 0 0 -1
outer loop
vertex 5.0001 -0.00102 -15
vertex 4.90393 0.97545 -15
vertex 5.0001 0.65841 -15
endloop
endfacet
facet normal 0 0 1
outer loop
vertex 5.0001 -0.00102 -15
vertex 5.0001 0.65841 -15
vertex 5 0 -15
endloop
endfacet
facet normal 1.3883051702444121e-14 0 -1
outer loop
vertex 5.0001 -3.68306 -15
vertex 4.62608 -3.79652 -15
vertex 4.90393 -0.97545 -15
endloop
endfacet
facet normal -2.0075848445761336e-14 0 -1
outer loop
vertex 5.0001 -3.68306 -15
vertex 4.90393 -0.97545 -15
vertex 5 0 -15
endloop
endfacet
facet normal 1.858140973283417e-11 0 -1
outer loop
vertex 5.0001 -3.68306 -15
vertex 5 0 -15
vertex 5.0001 -0.00102 -15
endloop
endfacet
facet normal -4.556552202186793e-15 0 -1
outer loop
vertex 4.15735 2.77785 -15
vertex 3.53553 3.53553 -15
vertex 3.67683 3.67683 -15
endloop
endfacet
facet normal 0 0 -1
outer loop
vertex 4.90393 -0.97545 -15
vertex 4.62608 -3.79652 -15
vertex 4.6194 -1.91342 -15
endloop
endfacet
facet normal 0 0 0.9999999999999999
outer loop
vertex 4.6194 1.91342 -15
vertex 4.15735 2.77785 -15
vertex 3.67683 3.67683 -15
endloop
endfacet
facet normal 0 0 -1
outer loop
vertex 4.6194 1.91342 -15
vertex 3.67683 3.67683 -15
vertex 15 15 -15
endloop
endfacet
facet normal 0 0 -1
outer loop
vertex -15 -15 -15
vertex -4.5517 -4.5517 -15
vertex -3.67683 -3.67683 -15
endloop
endfacet
facet normal 0.6493829240776724 0 -0.7604615821435899
outer loop
vertex -15 -15 -15
vertex -3.67683 -3.67683 -15
vertex -3.53553 -3.53553 -15
endloop
endfacet
facet normal 8.985546840546397e-16 0 -1
outer loop
vertex -15 -15 -15
vertex -3.53553 -3.53553 -15
vertex -2.77785 -4.15735 -15
endloop
endfacet
facet normal 0 0 -0.9999999999999999
outer loop
vertex 4.15735 -2.77785 -15
vertex 4.6194 -1.91342 -15
vertex 4.62608 -3.79652 -15
endloop
endfacet
facet normal -2.522965364867514e-9 0 1
outer loop
vertex 5.0001 0.65841 -15
vertex 4.90393 0.97545 -15
vertex 4.6194 1.91342 -15
endloop
endfacet
facet normal 0 0 -1
outer loop
vertex 5.0001 0.65841 -15
vertex 4.6194 1.91342 -15
vertex 15 15 -15
endloop
endfacet
facet normal 0 0 -1
outer loop
vertex 15 -15 -15
vertex -15 -15 -15
vertex -2.77785 -4.15735 -15
endloop
endfacet
facet normal 0 0 -1
outer loop
vertex 3.53553 -3.53553 -15
vertex 4.15735 -2.77785 -15
vertex 4.62608 -3.79652 -15
endloop
endfacet
facet normal -1.858140973283417e-11 0 1
outer loop
vertex 5.0001 -3.68306 -15
vertex 5.0001 -0.00102 -15
vertex 5 0 -15
endloop
endfacet
facet normal -8.183204487901058e-12 0 -1
outer loop
vertex 5.0001 -3.68306 -15
vertex 5 0 -15
vertex 5.0001 0.65841 -15
endloop
endfacet
facet normal 0 0 -1
outer loop
vertex 5.0001 -3.68306 -15
vertex 5.0001 0.65841 -15
vertex 15 15 -15
endloop
endfacet
facet normal -9.20029577635913e-15 0 -1
outer loop
vertex 15 -15 -15
vertex -2.77785 -4.15735 -15
vertex -1.91342 -4.6194 -15
endloop
endfacet
facet normal 1.0140496620583287e-15 0 -1
outer loop
vertex 2.77785 -4.15735 -15
vertex 3.53553 -3.53553 -15
vertex 4.62608 -3.79652 -15
endloop
endfacet
facet normal 0 0 -1
outer loop
vertex 5.0001 -3.68306 -15
vertex 15 15 -15
vertex 15 -15 -15
endloop
endfacet
facet normal -7.214633842442383e-15 0 -1
outer loop
vertex 15 -15 -15
vertex -1.91342 -4.6194 -15
vertex -0.97545 -4.90393 -15
endloop
endfacet
facet normal 0 0 -1
outer loop
vertex 1.91342 -4.6194 -15
vertex 2.77785 -4.15735 -15
vertex 4.62608 -3.79652 -15
endloop
endfacet
facet normal -2.1181183640466506e-14 0 -1
outer loop
vertex 4.62608 -3.79652 -15
vertex 5.0001 -3.68306 -15
vertex 15 -15 -15
endloop
endfacet
facet normal 4.059780229460068e-15 0 -1
outer loop
vertex 15 -15 -15
vertex -0.97545 -4.90393 -15
vertex 0 -5 -15
endloop
endfacet
facet normal 1.4602297276669493e-15 0 -1
outer loop
vertex 1.91342 -4.6194 -15
vertex 4.62608 -3.79652 -15
vertex 15 -15 -15
endloop
endfacet
facet normal -3.014660284542044e-15 0 -1
outer loop
vertex 15 -15 -15
vertex 0 -5 -15
vertex 0.97545 -4.90393 -15
endloop
endfacet
facet normal 4.223068850126382e-15 0 -1
outer loop
vertex 0.97545 -4.90393 -15
vertex 1.91342 -4.6194 -15
vertex 15 -15 -15
endloop
endfacet
facet normal 1 0 0
outer loop
vertex 15 -15 15
vertex 15 -15 -15
vertex 15 15 -15
endloop
endfacet
facet normal 1 0 0
outer loop
vertex 15 15 -15
vertex 15 15 15
vertex 15 -15 15
endloop
endfacet
facet normal 0.09801366505113956 0.9951850689511189 0
outer loop
vertex -0.97545 -4.90393 15
vertex 0 -5 15
vertex 0 -5 -15
endloop
endfacet
facet normal 0.09801366505113956 0.9951850689511189 0
outer loop
vertex -0.97545 -4.90393 -15
vertex -0.97545 -4.90393 15
vertex 0 -5 -15
endloop
endfacet
facet normal 0.29028459427092135 0.9569403609049869 0
outer loop
vertex -1.91342 -4.6194 15
vertex -0.97545 -4.90393 15
vertex -0.97545 -4.90393 -15
endloop
endfacet
facet normal 0.29028459427092135 0.9569403609049869 0
outer loop
vertex -1.91342 -4.6194 -15
vertex -1.91342 -4.6194 15
vertex -0.97545 -4.90393 -15
endloop
endfacet
facet normal 0.4713987513792993 0.8819201875442232 0
outer loop
vertex -1.91342 -4.6194 -15
vertex -2.77785 -4.15735 -15
vertex -2.77785 -4.15735 15
endloop
endfacet
facet normal 0.47139875137929976 0.8819201875442226 0
outer loop
vertex -2.77785 -4.15735 15
vertex -1.91342 -4.6194 15
vertex -1.91342 -4.6194 -15
endloop
endfacet
facet normal 0.6343982183716327 0.773006403936538 0
outer loop
vertex -2.77785 -4.15735 -15
vertex -3.53553 -3.53553 -15
vertex -3.53553 -3.53553 15
endloop
endfacet
facet normal 0.6343982183716318 0.7730064039365389 0
outer loop
vertex -3.53553 -3.53553 15
vertex -2.77785 -4.15735 15
vertex -2.77785 -4.15735 -15
endloop
endfacet
facet normal 0.7730064039365382 0.6343982183716325 0
outer loop
vertex -4.15735 -2.77785 15
vertex -3.53553 -3.53553 15
vertex -3.53553 -3.53553 -15
endloop
endfacet
facet normal 0.7730064039365386 0.6343982183716319 0
outer loop
vertex -4.15735 -2.77785 -15
vertex -4.15735 -2.77785 15
vertex -3.53553 -3.53553 -15
endloop
endfacet
facet normal 0.8819201875442227 0.4713987513793 0
outer loop
vertex -4.6194 -1.91342 15
vertex -4.15735 -2.77785 15
vertex -4.15735 -2.77785 -15
endloop
endfacet
facet normal 0.8819201875442231 0.4713987513792992 0
outer loop
vertex -4.6194 -1.91342 -15
vertex -4.6194 -1.91342 15
vertex -4.15735 -2.77785 -15
endloop
endfacet
facet normal 0.9569403609049872 0.2902845942709203 0
outer loop
vertex -4.6194 -1.91342 -15
vertex -4.90393 -0.97545 -15
vertex -4.90393 -0.97545 15
endloop
endfacet
facet normal 0.9569403609049866 0.290284594270922 0
outer loop
vertex -4.90393 -0.97545 15
vertex -4.6194 -1.91342 15
vertex -4.6194 -1.91342 -15
endloop
endfacet
facet normal 0.9951850689511189 0.09801366505113877 0
outer loop
vertex -5 0 15
vertex -4.90393 -0.97545 15
vertex -4.90393 -0.97545 -15
endloop
endfacet
facet normal 0.9951850689511187 0.09801366505114069 0
outer loop
vertex -5 0 -15
vertex -5 0 15
vertex -4.90393 -0.97545 -15
endloop
endfacet
facet normal 0.9951850689511187 -0.09801366505114069 0
outer loop
vertex -4.90393 0.97545 15
vertex -5 0 15
vertex -5 0 -15
endloop
endfacet
facet normal 0.9951850689511189 -0.09801366505113877 0
outer loop
vertex -4.90393 0.97545 -15
vertex -4.90393 0.97545 15
vertex -5 0 -15
endloop
endfacet
facet normal 0.9569403609049866 -0.290284594270922 0
outer loop
vertex -4.90393 0.97545 -15
vertex -4.6194 1.91342 -15
vertex -4.6194 1.91342 15
endloop
endfacet
facet normal 0.9569403609049872 -0.2902845942709203 0
outer loop
vertex -4.6194 1.91342 15
vertex -4.90393 0.97545 15
vertex -4.90393 0.97545 -15
endloop
endfacet
facet normal 0.8819201875442231 -0.4713987513792992 0
outer loop
vertex -4.15735 2.77785 15
vertex -4.6194 1.91342 15
vertex -4.6194 1.91342 -15
endloop
endfacet
facet normal 0.8819201875442227 -0.4713987513793 0
outer loop
vertex -4.15735 2.77785 -15
vertex -4.15735 2.77785 15
vertex -4.6194 1.91342 -15
endloop
endfacet
facet normal 0.7730064039365386 -0.6343982183716319 0
outer loop
vertex -3.53553 3.53553 15
vertex -4.15735 2.77785 15
vertex -4.15735 2.77785 -15
endloop
endfacet
facet normal 0.7730064039365382 -0.6343982183716325 0
outer loop
vertex -3.53553 3.53553 -15
vertex -3.53553 3.53553 15
vertex -4.15735 2.77785 -15
endloop
endfacet
facet normal 0.6343982183716327 -0.773006403936538 0
outer loop
vertex -2.77785 4.15735 15
vertex -3.53553 3.53553 15
vertex -3.53553 3.53553 -15
endloop
endfacet
facet normal 0.6343982183716318 -0.7730064039365389 0
outer loop
vertex -2.77785 4.15735 -15
vertex -2.77785 4.15735 15
vertex -3.53553 3.53553 -15
endloop
endfacet
facet normal 0.4713987513792993 -0.8819201875442232 0
outer loop
vertex -1.91342 4.6194 15
vertex -2.77785 4.15735 15
vertex -2.77785 4.15735 -15
endloop
endfacet
facet normal 0.47139875137929976 -0.8819201875442226 0
outer loop
vertex -1.91342 4.6194 -15
vertex -1.91342 4.6194 15
vertex -2.77785 4.15735 -15
endloop
endfacet
facet normal 0.29028459427092135 -0.9569403609049869 0
outer loop
vertex -0.97545 4.90393 15
vertex -1.91342 4.6194 15
vertex -1.91342 4.6194 -15
endloop
endfacet
facet normal 0.29028459427092135 -0.9569403609049869 0
outer loop
vertex -0.97545 4.90393 -15
vertex -0.97545 4.90393 15
vertex -1.91342 4.6194 -15
endloop
endfacet
facet normal 0.09801366505113956 -0.9951850689511189 0
outer loop
vertex 0 5 15
vertex -0.97545 4.90393 15
vertex -0.97545 4.90393 -15
endloop
endfacet
facet normal 0.09801366505113956 -0.9951850689511189 0
outer loop
vertex 0 5 -15
vertex 0 5 15
vertex -0.97545 4.90393 -15
endloop
endfacet
facet normal -0.09801366505113956 -0.9951850689511189 0
outer loop
vertex 0.97545 4.90393 15
vertex 0 5 15
vertex 0 5 -15
endloop
endfacet
facet normal -0.09801366505113956 -0.9951850689511189 0
outer loop
vertex 0.97545 4.90393 -15
vertex 0.97545 4.90393 15
vertex 0 5 -15
endloop
endfacet
facet normal -0.29028459427092135 -0.9569403609049869 0
outer loop
vertex 1.91342 4.6194 15
vertex 0.97545 4.90393 15
vertex 0.97545 4.90393 -15
endloop
endfacet
facet normal -0.29028459427092135 -0.9569403609049869 0
outer loop
vertex 1.91342 4.6194 -15
vertex 1.91342 4.6194 15
vertex 0.97545 4.90393 -15
endloop
endfacet
facet normal -0.47139875137929976 -0.8819201875442226 0
outer loop
vertex 2.77785 4.15735 15
vertex 1.91342 4.6194 15
vertex 1.91342 4.6194 -15
endloop
endfacet
facet normal -0.4713987513792993 -0.8819201875442232 0
outer loop
vertex 2.77785 4.15735 -15
vertex 2.77785 4.15735 15
vertex 1.91342 4.6194 -15
endloop
endfacet
facet normal -0.6343982183716318 -0.7730064039365389 0
outer loop
vertex 3.53553 3.53553 15
vertex 2.77785 4.15735 15
vertex 2.77785 4.15735 -15
endloop
endfacet
facet normal -0.6343982183716327 -0.773006403936538 0
outer loop
vertex 3.53553 3.53553 -15
vertex 3.53553 3.53553 15
vertex 2.77785 4.15735 -15
endloop
endfacet
facet normal -0.7730064039365382 -0.6343982183716325 0
outer loop
vertex 4.15735 2.77785 15
vertex 3.53553 3.53553 15
vertex 3.53553 3.53553 -15
endloop
endfacet
facet normal -0.7730064039365386 -0.6343982183716319 0
outer loop
vertex 4.15735 2.77785 -15
vertex 4.15735 2.77785 15
vertex 3.53553 3.53553 -15
endloop
endfacet
facet normal -0.8819201875442227 -0.4713987513793 0
outer loop
vertex 4.6194 1.91342 15
vertex 4.15735 2.77785 15
vertex 4.15735 2.77785 -15
endloop
endfacet
facet normal -0.8819201875442231 -0.4713987513792992 0
outer loop
vertex 4.6194 1.91342 -15
vertex 4.6194 1.91342 15
vertex 4.15735 2.77785 -15
endloop
endfacet
facet normal -0.9569403609049866 -0.290284594270922 0
outer loop
vertex 4.90393 0.97545 15
vertex 4.6194 1.91342 15
vertex 4.6194 1.91342 -15
endloop
endfacet
facet normal -0.9569403609049872 -0.2902845942709203 0
outer loop
vertex 4.90393 0.97545 -15
vertex 4.90393 0.97545 15
vertex 4.6194 1.91342 -15
endloop
endfacet
facet normal -0.9951850689511189 -0.09801366505113877 0
outer loop
vertex 5 0 15
vertex 4.90393 0.97545 15
vertex 4.90393 0.97545 -15
endloop
endfacet
facet normal -0.9951850689511187 -0.09801366505114069 0
outer loop
vertex 5 0 -15
vertex 5 0 15
vertex 4.90393 0.97545 -15
endloop
endfacet
facet normal -0.9951850689511189 0.09801366505113877 0
outer loop
vertex 5 0 -15
vertex 4.90393 -0.97545 -15
vertex 4.90393 -0.97545 15
endloop
endfacet
facet normal -0.9951850689511187 0.09801366505114069 0
outer loop
vertex 4.90393 -0.97545 15
vertex 5 0 15
vertex 5 0 -15
endloop
endfacet
facet normal -0.9569403609049872 0.2902845942709203 0
outer loop
vertex 4.6194 -1.91342 15
vertex 4.90393 -0.97545 15
vertex 4.90393 -0.97545 -15
endloop
endfacet
facet normal -0.9569403609049866 0.290284594270922 0
outer loop
vertex 4.6194 -1.91342 15
vertex 4.90393 -0.97545 -15
vertex 4.6194 -1.91342 -15
endloop
endfacet
facet normal -0.8819201875442231 0.4713987513792992 0
outer loop
vertex 4.15735 -2.77785 15
vertex 4.6194 -1.91342 15
vertex 4.6194 -1.91342 -15
endloop
endfacet
facet normal -0.8819201875442227 0.4713987513793 0
outer loop
vertex 4.15735 -2.77785 -15
vertex 4.15735 -2.77785 15
vertex 4.6194 -1.91342 -15
endloop
endfacet
facet normal -0.7730064039365386 0.6343982183716319 0
outer loop
vertex 3.53553 -3.53553 15
vertex 4.15735 -2.77785 15
vertex 4.15735 -2.77785 -15
endloop
endfacet
facet normal -0.7730064039365382 0.6343982183716325 0
outer loop
vertex 3.53553 -3.53553 -15
vertex 3.53553 -3.53553 15
vertex 4.15735 -2.77785 -15
endloop
endfacet
facet normal -0.6343982183716327 0.773006403936538 0
outer loop
vertex 2.77785 -4.15735 15
vertex 3.53553 -3.53553 15
vertex 3.53553 -3.53553 -15
endloop
endfacet
facet normal -0.6343982183716318 0.7730064039365389 0
outer loop
vertex 2.77785 -4.15735 -15
vertex 2.77785 -4.15735 15
vertex 3.53553 -3.53553 -15
endloop
endfacet
facet normal -0.4713987513792993 0.8819201875442232 0
outer loop
vertex 1.91342 -4.6194 15
vertex 2.77785 -4.15735 15
vertex 2.77785 -4.15735 -15
endloop
endfacet
facet normal -0.47139875137929976 0.8819201875442226 0
outer loop
vertex 1.91342 -4.6194 -15
vertex 1.91342 -4.6194 15
vertex 2.77785 -4.15735 -15
endloop
endfacet
facet normal -0.29028459427092135 0.9569403609049869 0
outer loop
vertex 0.97545 -4.90393 15
vertex 1.91342 -4.6194 15
vertex 1.91342 -4.6194 -15
endloop
endfacet
facet normal -0.29028459427092135 0.9569403609049869 0
outer loop
vertex 0.97545 -4.90393 -15
vertex 0.97545 -4.90393 15
vertex 1.91342 -4.6194 -15
endloop
endfacet
facet normal -0.09801366505113956 0.9951850689511189 0
outer loop
vertex 0 -5 15
vertex 0.97545 -4.90393 15
vertex 0.97545 -4.90393 -15
endloop
endfacet
facet normal -0.09801366505113956 0.9951850689511189 0
outer loop
vertex 0 -5 -15
vertex 0 -5 15
vertex 0.97545 -4.90393 -15
endloop
endfacet
facet normal -0.09801366505113956 -0.9951850689511189 0
outer loop
vertex 0 -5 -15
vertex 0 -5 15
vertex -0.97545 -4.90393 15
endloop
endfacet
facet normal -0.09801366505113956 -0.9951850689511189 0
outer loop
vertex 0 -5 -15
vertex -0.97545 -4.90393 15
vertex -0.97545 -4.90393 -15
endloop
endfacet
facet normal -0.29028459427092135 -0.9569403609049869 0
outer loop
vertex -0.97545 -4.90393 -15
vertex -0.97545 -4.90393 15
vertex -1.91342 -4.6194 15
endloop
endfacet
facet normal -0.29028459427092135 -0.9569403609049869 0
outer loop
vertex -0.97545 -4.90393 -15
vertex -1.91342 -4.6194 15
vertex -1.91342 -4.6194 -15
endloop
endfacet
facet normal -0.47139875137929976 -0.8819201875442226 0
outer loop
vertex -1.91342 -4.6194 -15
vertex -1.91342 -4.6194 15
vertex -2.77785 -4.15735 15
endloop
endfacet
facet normal -0.4713987513792993 -0.8819201875442232 0
outer loop
vertex -1.91342 -4.6194 -15
vertex -2.77785 -4.15735 15
vertex -2.77785 -4.15735 -15
endloop
endfacet
facet normal -0.6343982183716318 -0.7730064039365389 0
outer loop
vertex -2.77785 -4.15735 -15
vertex -2.77785 -4.15735 15
vertex -3.53553 -3.53553 15
endloop
endfacet
facet normal -0.6343982183716327 -0.773006403936538 0
outer loop
vertex -2.77785 -4.15735 -15
vertex -3.53553 -3.53553 15
vertex -3.53553 -3.53553 -15
endloop
endfacet
facet normal -0.7730064039365382 -0.6343982183716325 0
outer loop
vertex -3.53553 -3.53553 -15
vertex -3.53553 -3.53553 15
vertex -4.15735 -2.77785 15
endloop
endfacet
facet normal -0.7730064039365386 -0.6343982183716319 0
outer loop
vertex -3.53553 -3.53553 -15
vertex -4.15735 -2.77785 15
vertex -4.15735 -2.77785 -15
endloop
endfacet
facet normal -0.8819201875442227 -0.4713987513793 0
outer loop
vertex -4.15735 -2.77785 -15
vertex -4.15735 -2.77785 15
vertex -4.6194 -1.91342 15
endloop
endfacet
facet normal -0.8819201875442231 -0.4713987513792992 0
outer loop
vertex -4.15735 -2.77785 -15
vertex -4.6194 -1.91342 15
vertex -4.6194 -1.91342 -15
endloop
endfacet
facet normal -0.9569403609049866 -0.290284594270922 0
outer loop
vertex -4.6194 -1.91342 -15
vertex -4.6194 -1.91342 15
vertex -4.90393 -0.97545 15
endloop
endfacet
facet normal -0.9569403609049872 -0.2902845942709203 0
outer loop
vertex -4.6194 -1.91342 -15
vertex -4.90393 -0.97545 15
vertex -4.90393 -0.97545 -15
endloop
endfacet
facet normal -0.9951850689511189 -0.09801366505113877 0
outer loop
vertex -4.90393 -0.97545 -15
vertex -4.90393 -0.97545 15
vertex -5 0 15
endloop
endfacet
facet normal -0.9951850689511187 -0.09801366505114069 0
outer loop
vertex -4.90393 -0.97545 -15
vertex -5 0 15
vertex -5 0 -15
endloop
endfacet
facet normal -0.9951850689511187 0.09801366505114069 0
outer loop
vertex -5 0 -15
vertex -5 0 15
vertex -4.90393 0.97545 15
endloop
endfacet
facet normal -0.9951850689511189 0.09801366505113877 0
outer loop
vertex -5 0 -15
vertex -4.90393 0.97545 15
vertex -4.90393 0.97545 -15
endloop
endfacet
facet normal -0.9569403609049872 0.2902845942709203 0
outer loop
vertex -4.90393 0.97545 -15
vertex -4.90393 0.97545 15
vertex -4.6194 1.91342 15
endloop
endfacet
facet normal -0.9569403609049866 0.290284594270922 0
outer loop
vertex -4.90393 0.97545 -15
vertex -4.6194 1.91342 15
vertex -4.6194 1.91342 -15
endloop
endfacet
facet normal -0.8819201875442231 0.4713987513792992 0
outer loop
vertex -4.6194 1.91342 -15
vertex -4.6194 1.91342 15
vertex -4.15735 2.77785 15
endloop
endfacet
facet normal -0.8819201875442227 0.4713987513793 0
outer loop
vertex -4.6194 1.91342 -15
vertex -4.15735 2.77785 15
vertex -4.15735 2.77785 -15
endloop
endfacet
facet normal -0.7730064039365386 0.6343982183716319 0
outer loop
vertex -4.15735 2.77785 -15
vertex -4.15735 2.77785 15
vertex -3.53553 3.53553 15
endloop
endfacet
facet normal -0.7730064039365382 0.6343982183716325 0
outer loop
vertex -4.15735 2.77785 -15
vertex -3.53553 3.53553 15
vertex -3.53553 3.53553 -15
endloop
endfacet
facet normal -0.6343982183716327 0.773006403936538 0
outer loop
vertex -3.53553 3.53553 -15
vertex -3.53553 3.53553 15
vertex -2.77785 4.15735 15
endloop
endfacet
facet normal -0.6343982183716318 0.7730064039365389 0
outer loop
vertex -3.53553 3.53553 -15
vertex -2.77785 4.15735 15
vertex -2.77785 4.15735 -15
endloop
endfacet
facet normal -0.4713987513792993 0.8819201875442232 0
outer loop
vertex -2.77785 4.15735 -15
vertex -2.77785 4.15735 15
vertex -1.91342 4.6194 15
endloop
endfacet
facet normal -0.47139875137929976 0.8819201875442226 0
outer loop
vertex -2.77785 4.15735 -15
vertex -1.91342 4.6194 15
vertex -1.91342 4.6194 -15
endloop
endfacet
facet normal -0.29028459427092135 0.9569403609049869 0
outer loop
vertex -1.91342 4.6194 -15
vertex -1.91342 4.6194 15
vertex -0.97545 4.90393 15
endloop
endfacet
facet normal -0.29028459427092135 0.9569403609049869 0
outer loop
vertex -1.91342 4.6194 -15
vertex -0.97545 4.90393 15
vertex -0.97545 4.90393 -15
endloop
endfacet
facet normal -0.09801366505113956 0.9951850689511189 0
outer loop
vertex -0.97545 4.90393 -15
vertex -0.97545 4.90393 15
vertex 0 5 15
endloop
endfacet
facet normal -0.09801366505113956 0.9951850689511189 0
outer loop
vertex -0.97545 4.90393 -15
vertex 0 5 15
vertex 0 5 -15
endloop
endfacet
facet normal 0.09801366505113956 0.9951850689511189 0
outer loop
vertex 0 5 -15
vertex 0 5 15
vertex 0.97545 4.90393 15
endloop
endfacet
facet normal 0.09801366505113956 0.9951850689511189 0
outer loop
vertex 0 5 -15
vertex 0.97545 4.90393 15
vertex 0.97545 4.90393 -15
endloop
endfacet
facet normal 0.29028459427092135 0.9569403609049869 0
outer loop
vertex 0.97545 4.90393 -15
vertex 0.97545 4.90393 15
vertex 1.91342 4.6194 15
endloop
endfacet
facet normal 0.29028459427092135 0.9569403609049869 0
outer loop
vertex 0.97545 4.90393 -15
vertex 1.91342 4.6194 15
vertex 1.91342 4.6194 -15
endloop
endfacet
facet normal 0.47139875137929976 0.8819201875442226 0
outer loop
vertex 1.91342 4.6194 -15
vertex 1.91342 4.6194 15
vertex 2.77785 4.15735 15
endloop
endfacet
facet normal 0.4713987513792993 0.8819201875442232 0
outer loop
vertex 1.91342 4.6194 -15
vertex 2.77785 4.15735 15
vertex 2.77785 4.15735 -15
endloop
endfacet
facet normal 0.6343982183716318 0.7730064039365389 0
outer loop
vertex 2.77785 4.15735 -15
vertex 2.77785 4.15735 15
vertex 3.53553 3.53553 15
endloop
endfacet
facet normal 0.6343982183716327 0.773006403936538 0
outer loop
vertex 2.77785 4.15735 -15
vertex 3.53553 3.53553 15
vertex 3.53553 3.53553 -15
endloop
endfacet
facet normal 0.7730064039365382 0.6343982183716325 0
outer loop
vertex 3.53553 3.53553 -15
vertex 3.53553 3.53553 15
vertex 4.15735 2.77785 15
endloop
endfacet
facet normal 0.7730064039365386 0.6343982183716319 0
outer loop
vertex 3.53553 3.53553 -15
vertex 4.15735 2.77785 15
vertex 4.15735 2.77785 -15
endloop
endfacet
facet normal 0.8819201875442227 0.4713987513793 0
outer loop
vertex 4.15735 2.77785 -15
vertex 4.15735 2.77785 15
vertex 4.6194 1.91342 15
endloop
endfacet
facet normal 0.8819201875442231 0.4713987513792992 0
outer loop
vertex 4.15735 2.77785 -15
vertex 4.6194 1.91342 15
vertex 4.6194 1.91342 -15
endloop
endfacet
facet normal 0.9569403609049866 0.290284594270922 0
outer loop
vertex 4.6194 1.91342 -15
vertex 4.6194 1.91342 15
vertex 4.90393 0.97545 15
endloop
endfacet
facet normal 0.9569403609049872 0.2902845942709203 0
outer loop
vertex 4.6194 1.91342 -15
vertex 4.90393 0.97545 15
vertex 4.90393 0.97545 -15
endloop
endfacet
facet normal 0.9951850689511189 0.09801366505113877 0
outer loop
vertex 4.90393 0.97545 -15
vertex 4.90393 0.97545 15
vertex 5 0 15
endloop
endfacet
facet normal 0.9951850689511187 0.09801366505114069 0
outer loop
vertex 4.90393 0.97545 -15
vertex 5 0 15
vertex 5 0 -15
endloop
endfacet
facet normal 0.9951850689511187 -0.09801366505114069 0
outer loop
vertex 5 0 -15
vertex 5 0 15
vertex 4.90393 -0.97545 15
endloop
endfacet
facet normal 0.9951850689511189 -0.09801366505113877 0
outer loop
vertex 5 0 -15
vertex 4.90393 -0.97545 15
vertex 4.90393 -0.97545 -15
endloop
endfacet
facet normal 0.9569403609049872 -0.2902845942709203 0
outer loop
vertex 4.90393 -0.97545 -15
vertex 4.90393 -0.97545 15
vertex 4.6194 -1.91342 15
endloop
endfacet
facet normal 0.9569403609049866 -0.290284594270922 0
outer loop
vertex 4.90393 -0.97545 -15
vertex 4.6194 -1.91342 15
vertex 4.6194 -1.91342 -15
endloop
endfacet
facet normal 0.8819201875442231 -0.4713987513792992 0
outer loop
vertex 4.6194 -1.91342 -15
vertex 4.6194 -1.91342 15
vertex 4.15735 -2.77785 15
endloop
endfacet
facet normal 0.8819201875442227 -0.4713987513793 0
outer loop
vertex 4.6194 -1.91342 -15
vertex 4.15735 -2.77785 15
vertex 4.15735 -2.77785 -15
endloop
endfacet
facet normal 0.7730064039365386 -0.6343982183716319 0
outer loop
vertex 4.15735 -2.77785 -15
vertex 4.15735 -2.77785 15
vertex 3.53553 -3.53553 15
endloop
endfacet
facet normal 0.7730064039365382 -0.6343982183716325 0
outer loop
vertex 4.15735 -2.77785 -15
vertex 3.53553 -3.53553 15
vertex 3.53553 -3.53553 -15
endloop
endfacet
facet normal 0.6343982183716327 -0.773006403936538 0
outer loop
vertex 3.53553 -3.53553 -15
vertex 3.53553 -3.53553 15
vertex 2.77785 -4.15735 15
endloop
endfacet
facet normal 0.6343982183716318 -0.7730064039365389 0
outer loop
vertex 3.53553 -3.53553 -15
vertex 2.77785 -4.15735 15
vertex 2.77785 -4.15735 -15
endloop
endfacet
facet normal 0.4713987513792993 -0.8819201875442232 0
outer loop
vertex 2.77785 -4.15735 -15
vertex 2.77785 -4.15735 15
vertex 1.91342 -4.6194 15
endloop
endfacet
facet normal 0.47139875137929976 -0.8819201875442226 0
outer loop
vertex 2.77785 -4.15735 -15
vertex 1.91342 -4.6194 15
vertex 1.91342 -4.6194 -15
endloop
endfacet
facet normal 0.29028459427092135 -0.9569403609049869 0
outer loop
vertex 1.91342 -4.6194 -15
vertex 1.91342 -4.6194 15
vertex 0.97545 -4.90393 15
endloop
endfacet
facet normal 0.29028459427092135 -0.9569403609049869 0
outer loop
vertex 1.91342 -4.6194 -15
vertex 0.97545 -4.90393 15
vertex 0.97545 -4.90393 -15
endloop
endfacet
facet normal 0.09801366505113956 -0.9951850689511189 0
outer loop
vertex 0.97545 -4.90393 -15
vertex 0.97545 -4.90393 15
vertex 0 -5 15
endloop
endfacet
facet normal 0.09801366505113956 -0.9951850689511189 0
outer loop
vertex 0.97545 -4.90393 -15
vertex 0 -5 15
vertex 0 -5 -15
endloop
endfacet
facet normal 0 0 1
outer loop
vertex -0.97545 4.90393 15
vertex 0.97545 4.90393 15
vertex 0 5 15
endloop
endfacet
facet normal 0 0 1
outer loop
vertex -1.91342 4.6194 15
vertex -2.77785 4.15735 15
vertex -0.97545 4.90393 15
endloop
endfacet
facet normal 0 0 1
outer loop
vertex -2.77785 4.15735 15
vertex -4.90393 0.97545 15
vertex 0.97545 4.90393 15
endloop
endfacet
facet normal 0 0 1
outer loop
vertex 2.77785 4.15735 15
vertex 1.91342 4.6194 15
vertex 0.97545 4.90393 15
endloop
endfacet
facet normal 0 0 1
outer loop
vertex 0.97545 4.90393 15
vertex 4.15735 2.77785 15
vertex 3.53553 3.53553 15
endloop
endfacet
facet normal -6.400136955162488e-15 0 1
outer loop
vertex 3.53553 3.53553 15
vertex 2.77785 4.15735 15
vertex 0.97545 4.90393 15
endloop
endfacet
facet normal 0 0 1
outer loop
vertex -3.53553 3.53553 15
vertex -4.15735 2.77785 15
vertex -2.77785 4.15735 15
endloop
endfacet
facet normal 3.7909205177171e-14 0 1
outer loop
vertex 4.15735 2.77785 15
vertex 4.90393 0.97545 15
vertex 4.6194 1.91342 15
endloop
endfacet
facet normal 0 0 1
outer loop
vertex 4.15735 -2.77785 15
vertex 4.90393 -0.97545 15
vertex 2.77785 -4.15735 15
endloop
endfacet
facet normal 0 0 1
outer loop
vertex 2.77785 -4.15735 15
vertex 3.53553 -3.53553 15
vertex 4.15735 -2.77785 15
endloop
endfacet
facet normal 0 0 0.9999999999999999
outer loop
vertex -4.15735 -2.77785 15
vertex -3.53553 -3.53553 15
vertex -2.77785 -4.15735 15
endloop
endfacet
facet normal 0 0 0.9999999999999999
outer loop
vertex -2.77785 -4.15735 15
vertex -0.97545 -4.90393 15
vertex -4.15735 -2.77785 15
endloop
endfacet
facet normal -1.6314348622070203e-15 0 1
outer loop
vertex 2.77785 -4.15735 15
vertex -0.97545 -4.90393 15
vertex 0 -5 15
endloop
endfacet
facet normal 0 0 0.9999999999999999
outer loop
vertex 0 -5 15
vertex 0.97545 -4.90393 15
vertex 1.91342 -4.6194 15
endloop
endfacet
facet normal 0 0 1
outer loop
vertex 1.91342 -4.6194 15
vertex 2.77785 -4.15735 15
vertex 0 -5 15
endloop
endfacet
facet normal 3.7909205177171e-14 0 1
outer loop
vertex 4.15735 -2.77785 15
vertex 4.6194 -1.91342 15
vertex 4.90393 -0.97545 15
endloop
endfacet
facet normal 0 0 1
outer loop
vertex 4.90393 -0.97545 15
vertex 5 0 15
vertex 4.90393 0.97545 15
endloop
endfacet
facet normal -3.7909205177171e-14 0 1
outer loop
vertex -4.15735 2.77785 15
vertex -4.6194 1.91342 15
vertex -4.90393 0.97545 15
endloop
endfacet
facet normal 0 0 1
outer loop
vertex -4.90393 0.97545 15
vertex -5 0 15
vertex -4.90393 -0.97545 15
endloop
endfacet
facet normal -3.7909205177171044e-14 0 1
outer loop
vertex -4.6194 -1.91342 15
vertex -4.15735 -2.77785 15
vertex -4.90393 -0.97545 15
endloop
endfacet
facet normal -3.430804678620179e-16 0 1
outer loop
vertex 4.90393 -0.97545 15
vertex -0.97545 -4.90393 15
vertex 2.77785 -4.15735 15
endloop
endfacet
facet normal 0 0 1
outer loop
vertex -1.91342 -4.6194 15
vertex -0.97545 -4.90393 15
vertex -2.77785 -4.15735 15
endloop
endfacet
facet normal -9.756832273078001e-15 0 0.9999999999999999
outer loop
vertex 4.90393 -0.97545 15
vertex 4.90393 0.97545 15
vertex 4.15735 2.77785 15
endloop
endfacet
facet normal 0 0 1
outer loop
vertex -0.97545 4.90393 15
vertex -2.77785 4.15735 15
vertex 0.97545 4.90393 15
endloop
endfacet
facet normal 0 0 1
outer loop
vertex -4.15735 2.77785 15
vertex -4.90393 0.97545 15
vertex -2.77785 4.15735 15
endloop
endfacet
facet normal 9.756832273078001e-15 0 0.9999999999999999
outer loop
vertex -4.90393 0.97545 15
vertex -4.90393 -0.97545 15
vertex -4.15735 -2.77785 15
endloop
endfacet
facet normal 2.7446437428961428e-15 0 1
outer loop
vertex 4.90393 -0.97545 15
vertex 4.15735 2.77785 15
vertex 0.97545 4.90393 15
endloop
endfacet
facet normal -2.7446437428961428e-15 0 1
outer loop
vertex -4.90393 0.97545 15
vertex -4.15735 -2.77785 15
vertex -0.97545 -4.90393 15
endloop
endfacet
facet normal -5.684334576617706e-16 0 1
outer loop
vertex -0.97545 -4.90393 15
vertex 4.90393 -0.97545 15
vertex 0.97545 4.90393 15
endloop
endfacet
facet normal 5.684334576617706e-16 0 1
outer loop
vertex 0.97545 4.90393 15
vertex -4.90393 0.97545 15
vertex -0.97545 -4.90393 15
endloop
endfacet
facet normal 0 0 -1
outer loop
vertex -0.97545 -4.90393 -15
vertex 2.77785 -4.15735 -15
vertex 1.91342 -4.6194 -15
endloop
endfacet
facet normal 0 0 -0.9999999999999999
outer loop
vertex 1.91342 -4.6194 -15
vertex 0.97545 -4.90393 -15
vertex 0 -5 -15
endloop
endfacet
facet normal 0 0 -1
outer loop
vertex 0 -5 -15
vertex -0.97545 -4.90393 -15
vertex 1.91342 -4.6194 -15
endloop
endfacet
facet normal 0 0 -1
outer loop
vertex -2.77785 -4.15735 -15
vertex -3.53553 -3.53553 -15
vertex -4.15735 -2.77785 -15
endloop
endfacet
facet normal 2.4392067820991934e-15 0 -1
outer loop
vertex -4.15735 -2.77785 -15
vertex -0.97545 -4.90393 -15
vertex -2.77785 -4.15735 -15
endloop
endfacet
facet normal 0 0 -0.9999999999999999
outer loop
vertex 4.15735 -2.77785 -15
vertex 3.53553 -3.53553 -15
vertex 2.77785 -4.15735 -15
endloop
endfacet
facet normal 3.262803024046471e-15 0 -1
outer loop
vertex 2.77785 -4.15735 -15
vertex 4.90393 -0.97545 -15
vertex 4.6194 -1.91342 -15
endloop
endfacet
facet normal 0 0 -1
outer loop
vertex 4.6194 -1.91342 -15
vertex 4.15735 -2.77785 -15
vertex 2.77785 -4.15735 -15
endloop
endfacet
facet normal 9.756832273078001e-15 0 -0.9999999999999999
outer loop
vertex -4.90393 -0.97545 -15
vertex -4.90393 0.97545 -15
vertex -4.15735 -2.77785 -15
endloop
endfacet
facet normal 0 0 -1
outer loop
vertex 2.77785 4.15735 -15
vertex 3.53553 3.53553 -15
vertex 4.15735 2.77785 -15
endloop
endfacet
facet normal 3.7909205177171e-14 0 -1
outer loop
vertex 4.15735 2.77785 -15
vertex 4.6194 1.91342 -15
vertex 4.90393 0.97545 -15
endloop
endfacet
facet normal 1.2389496576908738e-15 0 -1
outer loop
vertex 4.90393 0.97545 -15
vertex 4.90393 -0.97545 -15
vertex -0.97545 -4.90393 -15
endloop
endfacet
facet normal 7.294206219453015e-15 0 -1
outer loop
vertex -0.97545 -4.90393 -15
vertex -4.90393 0.97545 -15
vertex -4.6194 1.91342 -15
endloop
endfacet
facet normal -1.895449660758551e-14 0 -1
outer loop
vertex -4.6194 1.91342 -15
vertex -4.15735 2.77785 -15
vertex -3.53553 3.53553 -15
endloop
endfacet
facet normal 1.8954496607585553e-14 0 -1
outer loop
vertex -3.53553 3.53553 -15
vertex -2.77785 4.15735 -15
vertex -1.91342 4.6194 -15
endloop
endfacet
facet normal 0 0 -0.9999999999999999
outer loop
vertex -1.91342 4.6194 -15
vertex -0.97545 4.90393 -15
vertex 0 5 -15
endloop
endfacet
facet normal 0 0 -0.9999999999999999
outer loop
vertex 0 5 -15
vertex 0.97545 4.90393 -15
vertex 1.91342 4.6194 -15
endloop
endfacet
facet normal 0 0 -1
outer loop
vertex 1.91342 4.6194 -15
vertex 2.77785 4.15735 -15
vertex 4.15735 2.77785 -15
endloop
endfacet
facet normal -1.8964973339838884e-15 0 -1
outer loop
vertex 4.15735 2.77785 -15
vertex 4.90393 0.97545 -15
vertex -0.97545 -4.90393 -15
endloop
endfacet
facet normal -3.2054538108557612e-15 0 -0.9999999999999999
outer loop
vertex -0.97545 -4.90393 -15
vertex -4.6194 1.91342 -15
vertex -3.53553 3.53553 -15
endloop
endfacet
facet normal -3.6587604869807e-15 0 -1
outer loop
vertex -3.53553 3.53553 -15
vertex -1.91342 4.6194 -15
vertex 0 5 -15
endloop
endfacet
facet normal 0 0 -1
outer loop
vertex 0 5 -15
vertex 1.91342 4.6194 -15
vertex 4.15735 2.77785 -15
endloop
endfacet
facet normal 4.512526222072759e-16 0 -1
outer loop
vertex 4.15735 2.77785 -15
vertex -0.97545 -4.90393 -15
vertex -3.53553 3.53553 -15
endloop
endfacet
facet normal 0 0 -1
outer loop
vertex -3.53553 3.53553 -15
vertex 0 5 -15
vertex 4.15735 2.77785 -15
endloop
endfacet
facet normal 0 0 -1
outer loop
vertex -1.91342 -4.6194 -15
vertex -2.77785 -4.15735 -15
vertex -0.97545 -4.90393 -15
endloop
endfacet
facet normal 0 0 -1
outer loop
vertex -0.97545 -4.90393 -15
vertex 4.90393 -0.97545 -15
vertex 2.77785 -4.15735 -15
endloop
endfacet
facet normal -2.7446437428961428e-15 0 -1
outer loop
vertex -4.15735 -2.77785 -15
vertex -4.90393 0.97545 -15
vertex -0.97545 -4.90393 -15
endloop
endfacet
facet normal -3.7909205177171044e-14 0 -1
outer loop
vertex -4.6194 -1.91342 -15
vertex -4.90393 -0.97545 -15
vertex -4.15735 -2.77785 -15
endloop
endfacet
facet normal 0 0 -1
outer loop
vertex 4.90393 -0.97545 -15
vertex 4.90393 0.97545 -15
vertex 5 0 -15
endloop
endfacet
facet normal 0 0 -1
outer loop
vertex -5 0 -15
vertex -4.90393 0.97545 -15
vertex -4.90393 -0.97545 -15
endloop
endfacet
endsolid JSxCAD
