<?xml version="1.0" encoding="UTF-8"?>
<!-- Generated by jsxcad -->
<!DOCTYPE svg PUBLIC "-//W3C//DTD SVG 1.1 Tiny//EN" "http://www.w3.org/Graphics/SVG/1.1/DTD/svg11-tiny.dtd">
<svg baseProfile="tiny" height="60mm" width="60.0000000000005mm" viewBox="0 0 60.0000000000005 60" version="1.1" stroke="black" stroke-width=".1" fill="none" xmlns="http://www.w3.org/2000/svg">
<path fill="black" d="M52.98133 10.71637 L55.98076 15 L58.19078 19.7394 z"/>
<path fill="black" d="M58.19078 19.7394 L59.54423 24.79055 L60 30 z"/>
<path fill="black" d="M60 30 L59.54423 35.20945 L58.19078 40.2606 z"/>
<path fill="black" d="M58.19078 40.2606 L55.98076 45 L52.98133 49.28363 z"/>
<path fill="black" d="M52.98133 49.28363 L49.28363 52.98133 L45 55.98076 z"/>
<path fill="black" d="M45 55.98076 L40.2606 58.19078 L35.20945 59.54423 z"/>
<path fill="black" d="M35.20945 59.54423 L30 60 L24.79055 59.54423 z"/>
<path fill="black" d="M24.79055 59.54423 L19.7394 58.19078 L15 55.98076 z"/>
<path fill="black" d="M15 55.98076 L10.71637 52.98133 L7.01867 49.28363 z"/>
<path fill="black" d="M7.01867 49.28363 L4.01924 45 L1.80922 40.2606 z"/>
<path fill="black" d="M1.80922 40.2606 L0.45577 35.20945 L0 30 z"/>
<path fill="black" d="M0 30 L15 30 L15.22788 32.60472 z"/>
<path fill="black" d="M18.50933 39.64181 L20.35819 41.49067 L18.14925 39.94396 z"/>
<path fill="black" d="M41.49067 20.35819 L39.64181 18.50933 L41.85075 20.05604 z"/>
<path fill="black" d="M35.1303 15.90461 L35.1302916 15.9046078 L32.60472 15.22788 z"/>
<path fill="black" d="M15.22788 27.39528 L15 30 L0 30 z"/>
<path fill="black" d="M0 30 L0.45577 24.79055 L1.80922 19.7394 z"/>
<path fill="black" d="M1.80922 19.7394 L4.01924 15 L7.01867 10.71637 z"/>
<path fill="black" d="M7.01867 10.71637 L10.71637 7.01867 L15 4.01924 z"/>
<path fill="black" d="M15 4.01924 L19.7394 1.80922 L24.79055 0.45577 z"/>
<path fill="black" d="M24.79055 0.45577 L30 0 L35.20945 0.45577 z"/>
<path fill="black" d="M35.20945 0.45577 L40.2606 1.80922 L45 4.01924 z"/>
<path fill="black" d="M45 4.01924 L49.28363 7.01867 L52.98133 10.71637 z"/>
<path fill="black" d="M52.98133 10.71637 L58.19078 19.7394 L60 30 z"/>
<path fill="black" d="M60 30 L58.19078 40.2606 L52.98133 49.28363 z"/>
<path fill="black" d="M52.98133 49.28363 L45 55.98076 L35.20945 59.54423 z"/>
<path fill="black" d="M35.20945 59.54423 L24.79055 59.54423 L15 55.98076 z"/>
<path fill="black" d="M15 55.98076 L7.01867 49.28363 L1.80922 40.2606 z"/>
<path fill="black" d="M1.80922 40.2606 L0 30 L15.22788 32.60472 z"/>
<path fill="black" d="M17.00962 37.5 L18.50933 39.64181 L18.14925 39.94396 z"/>
<path fill="black" d="M42.99038 22.5 L41.49067 20.35819 L41.85075 20.05604 z"/>
<path fill="black" d="M15.90461 24.8697 L15.22788 27.39528 L0 30 z"/>
<path fill="black" d="M0 30 L1.80922 19.7394 L7.01867 10.71637 z"/>
<path fill="black" d="M7.01867 10.71637 L15 4.01924 L24.79055 0.45577 z"/>
<path fill="black" d="M24.79055 0.45577 L35.20945 0.45577 L45 4.01924 z"/>
<path fill="black" d="M45 4.01924 L52.98133 10.71637 L60 30 z"/>
<path fill="black" d="M60 30 L52.98133 49.28363 L35.20945 59.54423 z"/>
<path fill="black" d="M35.20945 59.54423 L15 55.98076 L1.80922 40.2606 z"/>
<path fill="black" d="M1.80922 40.2606 L15.22788 32.60472 L15.90461 35.1303 z"/>
<path fill="black" d="M15.90461 35.1303 L17.00962 37.5 L18.14925 39.94396 z"/>
<path fill="black" d="M44.09539 24.8697 L42.99038 22.5 L41.85075 20.05604 z"/>
<path fill="black" d="M17.00962 22.5 L15.90461 24.8697 L0 30 z"/>
<path fill="black" d="M0 30 L7.01867 10.71637 L24.79055 0.45577 z"/>
<path fill="black" d="M24.79055 0.45577 L45 4.01924 L60 30 z"/>
<path fill="black" d="M1.80922 40.2606 L15.90461 35.1303 L18.14925 39.94396 z"/>
<path fill="black" d="M18.50933 20.35819 L17.00962 22.5 L0 30 z"/>
<path fill="black" d="M35.20945 59.54423 L1.80922 40.2606 L18.14925 39.94396 z"/>
<path fill="black" d="M20.35819 18.50933 L18.50933 20.35819 L0 30 z"/>
<path fill="black" d="M35.20945 59.54423 L18.14925 39.94396 L22.5 42.99038 z"/>
<path fill="black" d="M22.5 17.00962 L20.35819 18.50933 L0 30 z"/>
<path fill="black" d="M35.20945 59.54423 L22.5 42.99038 L24.8697 44.09539 z"/>
<path fill="black" d="M22.5 17.00962 L0 30 L24.79055 0.45577 z"/>
<path fill="black" d="M35.20945 59.54423 L24.8697 44.09539 L27.39528 44.77212 z"/>
<path fill="black" d="M24.8697 15.90461 L22.5 17.00962 L24.79055 0.45577 z"/>
<path fill="black" d="M35.20945 59.54423 L27.39528 44.77212 L30 45 z"/>
<path fill="black" d="M27.39528 15.22788 L24.8697 15.90461 L24.79055 0.45577 z"/>
<path fill="black" d="M35.20945 59.54423 L30 45 L32.60472 44.77212 z"/>
<path fill="black" d="M30 15 L27.39528 15.22788 L24.79055 0.45577 z"/>
<path fill="black" d="M35.20945 59.54423 L32.60472 44.77212 L35.1303 44.09539 z"/>
<path fill="black" d="M32.60472 15.22788 L30 15 L24.79055 0.45577 z"/>
<path fill="black" d="M35.20945 59.54423 L35.1303 44.09539 L37.5 42.99038 z"/>
<path fill="black" d="M35.1303 15.90461 L32.60472 15.22788 L24.79055 0.45577 z"/>
<path fill="black" d="M60 30 L35.20945 59.54423 L37.5 42.99038 z"/>
<path fill="black" d="M37.5 17.00962 L35.1303 15.90461 L24.79055 0.45577 z"/>
<path fill="black" d="M60 30 L37.5 42.99038 L39.64181 41.49067 z"/>
<path fill="black" d="M41.85075 20.05604 L37.5 17.00962 L24.79055 0.45577 z"/>
<path fill="black" d="M60 30 L39.64181 41.49067 L41.49067 39.64181 z"/>
<path fill="black" d="M41.85075 20.05604 L24.79055 0.45577 L60 30 z"/>
<path fill="black" d="M60 30 L41.49067 39.64181 L42.99038 37.5 z"/>
<path fill="black" d="M44.09539 24.8697 L41.85075 20.05604 L60 30 z"/>
<path fill="black" d="M60 30 L42.99038 37.5 L44.09539 35.1303 z"/>
<path fill="black" d="M44.77212 27.39528 L44.09539 24.8697 L60 30 z"/>
<path fill="black" d="M60 30 L44.09539 35.1303 L44.77212 32.60472 z"/>
<path fill="black" d="M45 30 L44.77212 27.39528 L60 30 z"/>
<path fill="black" d="M60 30 L44.77212 32.60472 L45 30 z"/>
</svg>