<?xml version="1.0" encoding="UTF-8"?>
<!-- Generated by jsxcad -->
<!DOCTYPE svg PUBLIC "-//W3C//DTD SVG 1.1 Tiny//EN" "http://www.w3.org/Graphics/SVG/1.1/DTD/svg11-tiny.dtd">
<svg baseProfile="tiny" height="62mm" width="62mm" viewBox="0 0 62 62" version="1.1" stroke="black" stroke-width=".1" fill="none" xmlns="http://www.w3.org/2000/svg">
<path fill="black" stroke="none" d="M1.01833 30.79045 L1.45577 25.79055 L2.80922 20.7394 L5.01924 16 L8.01867 11.71637 L11.71637 8.01867 L16 5.01924 L20.7394 2.80922 L25.79055 1.45577 L31 1 L35.99989 1.43743 L36.20945 1.45577 L41.2606 2.80922 L46 5.01924 L50.28363 8.01867 L53.98133 11.71637 L56.98076 16 L59.19078 20.7394 L60.54423 25.79055 L61 31 L60.54423 36.20945 L59.19078 41.2606 L56.98076 46 L53.98133 50.28363 L50.28363 53.98133 L46 56.98076 L41.2606 59.19078 L41.05742 59.24522 L36.20945 60.54423 L31.20955 60.98167 L31 61 L25.79055 60.54423 L20.7394 59.19078 L16 56.98076 L11.71637 53.98133 L8.01867 50.28363 L5.01924 46 L2.80922 41.2606 L1.45577 36.20945 L1 31 z M16.22788 33.60472 L16.90461 36.1303 L18.00962 38.5 L19.50933 40.64181 L21.35819 42.49067 L23.5 43.99038 L25.8697 45.09539 L28.39528 45.77212 L31 46 L33.60472 45.77212 L36.1303 45.09539 L38.5 43.99038 L40.64181 42.49067 L42.49067 40.64181 L43.99038 38.5 L45.09539 36.1303 L45.77212 33.60472 L46 31 L45.77212 28.39528 L45.09539 25.8697 L43.99038 23.5 L42.49067 21.35819 L40.64181 19.50933 L38.5 18.00962 L36.1303 16.90461 L33.60472 16.22788 L31 16 L28.39528 16.22788 L25.8697 16.90461 L23.5 18.00962 L21.35819 19.50933 L19.50933 21.35819 L18.00962 23.5 L16.90461 25.8697 L16.22788 28.39528 L16 31 z"/>
</svg>