<?xml version="1.0" encoding="UTF-8"?>
<!-- Generated by jsxcad -->
<!DOCTYPE svg PUBLIC "-//W3C//DTD SVG 1.1 Tiny//EN" "http://www.w3.org/Graphics/SVG/1.1/DTD/svg11-tiny.dtd">
<svg baseProfile="tiny" height="59.99999999999999mm" width="60mm" viewBox="0 0 60 59.99999999999999" version="1.1" stroke="black" stroke-width=".1" fill="none" xmlns="http://www.w3.org/2000/svg">
<path fill="black" d="M15.904610688211358 24.869697850114967 L17.00961894323342 22.499999999999982 L17.009618943233423 22.499999999999982 z"/>
<path fill="black" d="M15.904610688211358 24.869697850114967 L1.0695196836774734 22.499999999999982 L17.00961894323342 22.499999999999982 z"/>
<path fill="black" d="M15.904610688211358 24.869697850114967 L0.45576740963377205 24.79055466999202 L1.0695196836774734 22.499999999999982 z"/>
<path fill="black" d="M0.45576740963377205 24.79055466999202 L15.904610688211358 24.869697850114967 L0.4488432785776233 24.869697850114967 z"/>
<path fill="black" d="M1.069519683677477 37.5 L15.90461068821137 35.13030214988502 L17.00961894323342 37.5 z"/>
<path fill="black" d="M0.4557674096337543 35.20944533000788 L15.90461068821137 35.13030214988502 L1.069519683677477 37.5 z"/>
<path fill="black" d="M15.90461068821137 35.13030214988502 L0.4557674096337543 35.20944533000788 L0.44884327857761264 35.13030214988502 z"/>
<path fill="black" d="M18.50933335321531 20.358185854701937 L20.358185854701894 18.509333353215318 L20.358185854701905 18.509333353215318 z"/>
<path fill="black" d="M18.50933335321531 20.358185854701937 L2.382808868843771 18.509333353215318 L20.358185854701894 18.509333353215318 z"/>
<path fill="black" d="M18.50933335321531 20.358185854701937 L1.8092213764227196 19.739395700229984 L2.382808868843771 18.509333353215318 z"/>
<path fill="black" d="M1.8092213764227196 19.739395700229984 L18.50933335321531 20.358185854701937 L1.6434170542476316 20.358185854701937 z"/>
<path fill="black" d="M3.0821371832637254 42.99038105676655 L20.358185854701915 41.490666646784675 L22.499999999999964 42.99038105676655 z"/>
<path fill="black" d="M20.358185854701915 41.490666646784675 L3.0821371832637254 42.99038105676655 L2.382808868843771 41.490666646784675 z"/>
<path fill="black" d="M2.382808868843771 41.490666646784675 L18.509333353215347 39.641814145298106 L20.358185854701915 41.490666646784675 z"/>
<path fill="black" d="M1.8092213764227516 40.260604299770065 L18.509333353215347 39.641814145298106 L2.382808868843771 41.490666646784675 z"/>
<path fill="black" d="M18.509333353215347 39.641814145298106 L1.8092213764227516 40.260604299770065 L1.64341705424766 39.641814145298106 z"/>
<path fill="black" d="M22.500000000000014 17.009618943233427 L24.869697850114946 15.904610688211362 L24.869697850114996 15.904610688211362 z"/>
<path fill="black" d="M22.49999999999998 17.009618943233427 L24.869697850114946 15.904610688211362 L22.500000000000014 17.009618943233427 z"/>
<path fill="black" d="M22.49999999999998 17.009618943233427 L3.5974109949050153 15.904610688211362 L24.869697850114946 15.904610688211362 z"/>
<path fill="black" d="M3.5974109949050153 15.904610688211362 L22.49999999999998 17.009618943233427 L3.0821371832637325 17.009618943233427 z"/>
<path fill="black" d="M3.9129739697419943 44.77211629518312 L24.869697850115003 44.09538931178864 L27.395277334996027 44.77211629518312 z"/>
<path fill="black" d="M24.869697850115003 44.09538931178864 L3.9129739697419943 44.77211629518312 L3.5974109949050153 44.09538931178864 z"/>
<path fill="black" d="M3.5974109949050153 44.09538931178864 L22.499999999999964 42.99038105676655 L24.869697850115003 44.09538931178864 z"/>
<path fill="black" d="M22.499999999999964 42.99038105676655 L3.5974109949050153 44.09538931178864 L3.0821371832637254 42.99038105676655 z"/>
<path fill="black" d="M24.869697850114946 15.904610688211362 L3.9129739697419943 15.227883704816875 L27.395277334996024 15.227883704816875 z"/>
<path fill="black" d="M3.9129739697419943 15.227883704816875 L24.869697850114946 15.904610688211362 L3.5974109949050153 15.904610688211362 z"/>
<path fill="black" d="M20.358185854701894 18.509333353215318 L3.0821371832637325 17.009618943233427 L22.49999999999998 17.009618943233427 z"/>
<path fill="black" d="M3.0821371832637325 17.009618943233427 L20.358185854701894 18.509333353215318 L2.382808868843771 18.509333353215318 z"/>
<path fill="black" d="M1.64341705424766 39.641814145298106 L17.00961894323342 37.5 L18.509333353215347 39.641814145298106 z"/>
<path fill="black" d="M17.00961894323342 37.5 L1.64341705424766 39.641814145298106 L1.069519683677477 37.5 z"/>
<path fill="black" d="M17.00961894323342 22.499999999999982 L1.6434170542476316 20.358185854701937 L18.50933335321531 20.358185854701937 z"/>
<path fill="black" d="M1.6434170542476316 20.358185854701937 L17.00961894323342 22.499999999999982 L1.0695196836774734 22.499999999999982 z"/>
<path fill="black" d="M0.44884327857761264 35.13030214988502 L15.227883704816877 32.60472266500397 L15.90461068821137 35.13030214988502 z"/>
<path fill="black" d="M15.227883704816877 32.60472266500397 L0.44884327857761264 35.13030214988502 L0.22788370481687892 32.60472266500397 z"/>
<path fill="black" d="M14.999999999999998 30.000000000000014 L15.227883704816886 27.395277334996003 L15.227883704816888 27.395277334996003 z"/>
<path fill="black" d="M14.999999999999998 30.000000000000014 L0.22788370481688958 27.395277334996003 L15.227883704816886 27.395277334996003 z"/>
<path fill="black" d="M0.22788370481688958 27.395277334996003 L14.999999999999998 30.000000000000014 L3.552713678800501e-15 30.000000000000014 z"/>
<path fill="black" d="M15.227883704816886 27.395277334996003 L15.904610688211358 24.869697850114967 L15.904610688211365 24.869697850114967 z"/>
<path fill="black" d="M15.227883704816886 27.395277334996003 L0.4488432785776233 24.869697850114967 L15.904610688211358 24.869697850114967 z"/>
<path fill="black" d="M0.4488432785776233 24.869697850114967 L15.227883704816886 27.395277334996003 L0.22788370481688958 27.395277334996003 z"/>
<path fill="black" d="M15.227883704816877 32.60472266500397 L14.999999999999998 30.000000000000014 L15.227883704816879 32.60472266500397 z"/>
<path fill="black" d="M0.22788370481687892 32.60472266500397 L14.999999999999998 30.000000000000014 L15.227883704816877 32.60472266500397 z"/>
<path fill="black" d="M14.999999999999998 30.000000000000014 L0.22788370481687892 32.60472266500397 L3.552713678800501e-15 30.000000000000014 z"/>
<path fill="black" d="M27.39527733499606 15.227883704816875 L29.99999999999998 14.999999999999995 L29.999999999999986 14.999999999999996 z"/>
<path fill="black" d="M27.395277334996024 15.227883704816875 L4.01923788646684 14.999999999999995 L29.99999999999998 14.999999999999995 z"/>
<path fill="black" d="M4.01923788646684 14.999999999999995 L27.395277334996024 15.227883704816875 L3.9129739697419943 15.227883704816875 z"/>
<path fill="black" d="M4.019237886466836 44.99999999999999 L27.395277334996027 44.77211629518312 L29.999999999999993 44.99999999999999 z"/>
<path fill="black" d="M27.395277334996027 44.77211629518312 L4.019237886466836 44.99999999999999 L3.9129739697419943 44.77211629518312 z"/>
<path fill="black" d="M57.61719113115624 41.490666646784675 L58.356582945752365 39.641814145298106 L58.19077862357727 40.260604299770065 z"/>
<path fill="black" d="M57.61719113115624 41.490666646784675 L41.49066664678469 39.641814145298106 L58.356582945752365 39.641814145298106 z"/>
<path fill="black" d="M41.49066664678469 39.641814145298106 L57.61719113115624 41.490666646784675 L39.641814145298106 41.490666646784675 z"/>
<path fill="black" d="M58.93048031632252 37.5 L59.551156721422366 35.13030214988502 L59.54423259036622 35.20944533000788 z"/>
<path fill="black" d="M58.93048031632252 37.5 L44.095389311788644 35.13030214988502 L59.551156721422366 35.13030214988502 z"/>
<path fill="black" d="M44.095389311788644 35.13030214988502 L58.93048031632252 37.5 L42.99038105676659 37.5 z"/>
<path fill="black" d="M35.13030214988501 15.904610688211362 L56.087026030257995 15.227883704816875 L56.402589005094974 15.904610688211362 z"/>
<path fill="black" d="M35.13030214988501 15.904610688211362 L32.60472266500396 15.227883704816875 L56.087026030257995 15.227883704816875 z"/>
<path fill="black" d="M39.64181414529808 18.509333353215318 L56.91786281673626 17.009618943233427 L57.61719113115622 18.509333353215318 z"/>
<path fill="black" d="M56.91786281673626 17.009618943233427 L39.64181414529808 18.509333353215318 L37.500000000000014 17.009618943233427 z"/>
<path fill="black" d="M42.99038105676657 22.499999999999982 L58.35658294575236 20.358185854701937 L58.93048031632253 22.499999999999982 z"/>
<path fill="black" d="M58.35658294575236 20.358185854701937 L42.99038105676657 22.499999999999982 L41.49066664678469 20.358185854701937 z"/>
<path fill="black" d="M59.77211629518311 32.60472266500397 L45 30.000000000000014 L60 30.000000000000014 z"/>
<path fill="black" d="M45 30.000000000000014 L59.77211629518311 32.60472266500397 L44.77211629518311 32.60472266500397 z"/>
<path fill="black" d="M59.551156721422366 35.13030214988502 L44.77211629518311 32.60472266500397 L59.77211629518311 32.60472266500397 z"/>
<path fill="black" d="M44.095389311788644 35.13030214988502 L44.77211629518311 32.60472266500397 L59.551156721422366 35.13030214988502 z"/>
<path fill="black" d="M44.77211629518311 32.60472266500397 L44.095389311788644 35.13030214988502 L44.09538931178863 35.13030214988502 z"/>
<path fill="black" d="M44.77211629518311 27.395277334996003 L59.55115672142239 24.869697850114967 L59.772116295183125 27.395277334996003 z"/>
<path fill="black" d="M59.55115672142239 24.869697850114967 L44.77211629518311 27.395277334996003 L44.09538931178862 24.869697850114967 z"/>
<path fill="black" d="M45 30.000000000000014 L59.772116295183125 27.395277334996003 L60 30.000000000000014 z"/>
<path fill="black" d="M59.772116295183125 27.395277334996003 L45 30.000000000000014 L44.77211629518311 27.395277334996003 z"/>
<path fill="black" d="M59.55115672142239 24.869697850114967 L58.93048031632253 22.499999999999982 L59.54423259036624 24.79055466999202 z"/>
<path fill="black" d="M44.09538931178862 24.869697850114967 L58.93048031632253 22.499999999999982 L59.55115672142239 24.869697850114967 z"/>
<path fill="black" d="M58.93048031632253 22.499999999999982 L44.09538931178862 24.869697850114967 L42.99038105676657 22.499999999999982 z"/>
<path fill="black" d="M58.35658294575236 20.358185854701937 L57.61719113115622 18.509333353215318 L58.190778623577266 19.739395700229984 z"/>
<path fill="black" d="M41.49066664678469 20.358185854701937 L57.61719113115622 18.509333353215318 L58.35658294575236 20.358185854701937 z"/>
<path fill="black" d="M57.61719113115622 18.509333353215318 L41.49066664678469 20.358185854701937 L39.64181414529808 18.509333353215318 z"/>
<path fill="black" d="M37.500000000000014 17.009618943233427 L56.402589005094974 15.904610688211362 L56.91786281673626 17.009618943233427 z"/>
<path fill="black" d="M56.402589005094974 15.904610688211362 L37.500000000000014 17.009618943233427 L35.13030214988501 15.904610688211362 z"/>
<path fill="black" d="M55.980762113533146 14.999999999999995 L49.283628290596084 7.018666706430583 L52.98133329356939 10.716371709403884 z"/>
<path fill="black" d="M55.980762113533146 14.999999999999995 L45.000000000000014 4.019237886466843 L49.283628290596084 7.018666706430583 z"/>
<path fill="black" d="M55.980762113533146 14.999999999999995 L40.26060429977002 1.8092213764227303 L45.000000000000014 4.019237886466843 z"/>
<path fill="black" d="M55.980762113533146 14.999999999999995 L35.20944533000788 0.4557674096337472 L40.26060429977002 1.8092213764227303 z"/>
<path fill="black" d="M29.99999999999999 14.999999999999995 L35.20944533000788 0.4557674096337472 L55.980762113533146 14.999999999999995 z"/>
<path fill="black" d="M29.999999999999986 14.999999999999996 L35.20944533000788 0.4557674096337472 L29.99999999999999 14.999999999999995 z"/>
<path fill="black" d="M29.99999999999998 14.999999999999995 L35.20944533000788 0.4557674096337472 L29.999999999999986 14.999999999999996 z"/>
<path fill="black" d="M29.99999999999998 14.999999999999995 L29.99999999999998 -3.552713678800501e-15 L35.20944533000788 0.4557674096337472 z"/>
<path fill="black" d="M29.99999999999998 14.999999999999995 L24.79055466999214 0.4557674096337472 L29.99999999999998 -3.552713678800501e-15 z"/>
<path fill="black" d="M29.99999999999998 14.999999999999995 L19.73939570022988 1.8092213764227303 L24.79055466999214 0.4557674096337472 z"/>
<path fill="black" d="M29.99999999999998 14.999999999999995 L14.999999999999998 4.019237886466843 L19.73939570022988 1.8092213764227303 z"/>
<path fill="black" d="M29.99999999999998 14.999999999999995 L10.71637170940383 7.018666706430583 L14.999999999999998 4.019237886466843 z"/>
<path fill="black" d="M29.99999999999998 14.999999999999995 L7.0186667064306185 10.716371709403884 L10.71637170940383 7.018666706430583 z"/>
<path fill="black" d="M7.0186667064306185 10.716371709403884 L29.99999999999998 14.999999999999995 L4.01923788646684 14.999999999999995 z"/>
<path fill="black" d="M32.60472266500396 15.227883704816875 L55.980762113533146 14.999999999999995 L56.087026030257995 15.227883704816875 z"/>
<path fill="black" d="M32.60472266500396 15.227883704816875 L29.99999999999999 14.999999999999995 L55.980762113533146 14.999999999999995 z"/>
<path fill="black" d="M29.99999999999999 14.999999999999995 L32.60472266500396 15.227883704816875 L29.999999999999986 14.999999999999996 z"/>
<path fill="black" d="M58.356582945752365 39.641814145298106 L42.99038105676659 37.5 L58.93048031632252 37.5 z"/>
<path fill="black" d="M58.356582945752365 39.641814145298106 L42.990381056766566 37.5 L42.99038105676659 37.5 z"/>
<path fill="black" d="M41.49066664678469 39.641814145298106 L42.990381056766566 37.5 L58.356582945752365 39.641814145298106 z"/>
<path fill="black" d="M42.990381056766566 37.5 L41.49066664678469 39.641814145298106 L41.490666646784646 39.641814145298106 z"/>
<path fill="black" d="M56.917862816736275 42.99038105676655 L39.641814145298106 41.490666646784675 L57.61719113115624 41.490666646784675 z"/>
<path fill="black" d="M56.917862816736275 42.99038105676655 L39.64181414529809 41.490666646784675 L39.641814145298106 41.490666646784675 z"/>
<path fill="black" d="M39.64181414529809 41.490666646784675 L56.917862816736275 42.99038105676655 L37.50000000000005 42.99038105676655 z"/>
<path fill="black" d="M56.40258900509498 44.09538931178864 L37.50000000000005 42.99038105676655 L56.917862816736275 42.99038105676655 z"/>
<path fill="black" d="M56.40258900509498 44.09538931178864 L37.5 42.99038105676655 L37.50000000000005 42.99038105676655 z"/>
<path fill="black" d="M35.130302149885004 44.09538931178864 L37.5 42.99038105676655 L56.40258900509498 44.09538931178864 z"/>
<path fill="black" d="M37.5 42.99038105676655 L35.130302149885004 44.09538931178864 L35.13030214988497 44.09538931178864 z"/>
<path fill="black" d="M49.28362829059617 52.98133329356935 L55.98076211353316 44.99999999999999 L52.98133329356938 49.2836282905962 z"/>
<path fill="black" d="M45.000000000000036 55.98076211353313 L55.98076211353316 44.99999999999999 L49.28362829059617 52.98133329356935 z"/>
<path fill="black" d="M40.260604299770016 58.19077862357729 L55.98076211353316 44.99999999999999 L45.000000000000036 55.98076211353313 z"/>
<path fill="black" d="M35.20944533000797 59.54423259036624 L55.98076211353316 44.99999999999999 L40.260604299770016 58.19077862357729 z"/>
<path fill="black" d="M35.20944533000797 59.54423259036624 L30.000000000000057 44.99999999999999 L55.98076211353316 44.99999999999999 z"/>
<path fill="black" d="M35.20944533000797 59.54423259036624 L29.999999999999993 44.99999999999999 L30.000000000000057 44.99999999999999 z"/>
<path fill="black" d="M29.999999999999986 59.999999999999986 L29.999999999999993 44.99999999999999 L35.20944533000797 59.54423259036624 z"/>
<path fill="black" d="M24.790554669992094 59.54423259036624 L29.999999999999993 44.99999999999999 L29.999999999999986 59.999999999999986 z"/>
<path fill="black" d="M19.739395700230027 58.19077862357729 L29.999999999999993 44.99999999999999 L24.790554669992094 59.54423259036624 z"/>
<path fill="black" d="M14.999999999999975 55.98076211353313 L29.999999999999993 44.99999999999999 L19.739395700230027 58.19077862357729 z"/>
<path fill="black" d="M10.716371709403838 52.98133329356935 L29.999999999999993 44.99999999999999 L14.999999999999975 55.98076211353313 z"/>
<path fill="black" d="M7.018666706430686 49.2836282905962 L29.999999999999993 44.99999999999999 L10.716371709403838 52.98133329356935 z"/>
<path fill="black" d="M29.999999999999993 44.99999999999999 L7.018666706430686 49.2836282905962 L4.019237886466836 44.99999999999999 z"/>
<path fill="black" d="M55.98076211353316 44.99999999999999 L32.60472266500401 44.77211629518312 L56.087026030258 44.77211629518312 z"/>
<path fill="black" d="M32.60472266500401 44.77211629518312 L55.98076211353316 44.99999999999999 L30.000000000000057 44.99999999999999 z"/>
<path fill="black" d="M56.087026030258 44.77211629518312 L35.130302149885004 44.09538931178864 L56.40258900509498 44.09538931178864 z"/>
<path fill="black" d="M32.60472266500401 44.77211629518312 L35.130302149885004 44.09538931178864 L56.087026030258 44.77211629518312 z"/>
<path fill="black" d="M35.130302149885004 44.09538931178864 L32.60472266500401 44.77211629518312 L32.60472266500398 44.77211629518312 z"/>
</svg>