<?xml version="1.0" encoding="UTF-8"?>
<!-- Generated by jsxcad -->
<!DOCTYPE svg PUBLIC "-//W3C//DTD SVG 1.1 Tiny//EN" "http://www.w3.org/Graphics/SVG/1.1/DTD/svg11-tiny.dtd">
<svg baseProfile="tiny" height="60.000002128431774mm" width="60.00000238249011mm" viewBox="0 0 60.00000238249011 60.000002128431774" version="1.1" stroke="black" stroke-width=".1" fill="none" xmlns="http://www.w3.org/2000/svg">
<path fill="black" d="M15.000000660274045 30.000002680285043 L0.22788374574634673 27.395280977655627 L15.227884102728364 27.395280977655627 z"/>
<path fill="black" d="M0.22788374574634673 27.395280977655627 L15.000000660274045 30.000002680285043 L2.477032801095902e-7 30.000002680285043 z"/>
<path fill="black" d="M15.227884234086304 27.395280977655627 L15.904609679519986 24.869704266330057 L15.904609883776558 24.869704266330057 z"/>
<path fill="black" d="M15.227884102728364 27.395280977655627 L15.904609679519986 24.869704266330057 L15.227884234086304 27.395280977655627 z"/>
<path fill="black" d="M15.227884102728364 27.395280977655627 L0.44884295799999663 24.869704266330057 L15.904609679519986 24.869704266330057 z"/>
<path fill="black" d="M0.44884295799999663 24.869704266330057 L15.227884102728364 27.395280977655627 L0.22788374574634673 27.395280977655627 z"/>
<path fill="black" d="M0.2278839543096396 32.60472440042459 L15.000000660274045 30.000002680285043 L15.227884610242755 32.60472440042459 z"/>
<path fill="black" d="M0.2278839543096396 32.60472440042459 L2.477032801095902e-7 30.000002680285043 L15.000000660274045 30.000002680285043 z"/>
<path fill="black" d="M2.477032801095902e-7 30.000002680285043 L0.2278839543096396 32.60472440042459 L1.1945225608656074e-7 30.00000414620174 z"/>
<path fill="black" d="M17.00962031992172 22.50000109137998 L1.643416411430735 20.358188259464242 L18.509334055768768 20.358188259464242 z"/>
<path fill="black" d="M1.643416411430735 20.358188259464242 L17.00962031992172 22.50000109137998 L1.0695197348693313 22.50000109137998 z"/>
<path fill="black" d="M15.904609679519986 24.869704266330057 L1.0695197348693313 22.50000109137998 L17.00962031992172 22.50000109137998 z"/>
<path fill="black" d="M15.904609679519986 24.869704266330057 L0.45576741764054063 24.790557287897695 L1.0695197348693313 22.50000109137998 z"/>
<path fill="black" d="M0.45576741764054063 24.790557287897695 L15.904609679519986 24.869704266330057 L0.44884295799999663 24.869704266330057 z"/>
<path fill="black" d="M1.0695207957046904 37.500002449075026 L15.904612222287561 35.13030425196408 L17.009621156108587 37.500002449075026 z"/>
<path fill="black" d="M0.45576807313997847 35.20944790046838 L15.904612222287561 35.13030425196408 L1.0695207957046904 37.500002449075026 z"/>
<path fill="black" d="M15.904612222287561 35.13030425196408 L0.45576807313997847 35.20944790046838 L0.44884389074590914 35.13030425196408 z"/>
<path fill="black" d="M18.509334195374947 20.358188259464242 L20.358188386493417 18.509334068345783 L20.358188498971224 18.509334068345783 z"/>
<path fill="black" d="M18.509334055768768 20.358188259464242 L20.358188386493417 18.509334068345783 L18.509334195374947 20.358188259464242 z"/>
<path fill="black" d="M18.509334055768768 20.358188259464242 L2.3828107534285117 18.509334068345783 L20.358188386493417 18.509334068345783 z"/>
<path fill="black" d="M18.509334055768768 20.358188259464242 L1.8092180850462753 19.739407620707787 L2.3828107534285117 18.509334068345783 z"/>
<path fill="black" d="M1.8092180850462753 19.739407620707787 L18.509334055768768 20.358188259464242 L1.643416411430735 20.358188259464242 z"/>
<path fill="black" d="M20.358188386493417 18.509334068345783 L22.4999998063859 17.009620192892555 L22.500000992426216 17.009620192892555 z"/>
<path fill="black" d="M20.358188386493417 18.509334068345783 L3.0821387028910543 17.009620192892555 L22.4999998063859 17.009620192892555 z"/>
<path fill="black" d="M3.0821387028910543 17.009620192892555 L20.358188386493417 18.509334068345783 L2.3828107534285117 18.509334068345783 z"/>
<path fill="black" d="M22.4999998063859 17.009620192892555 L3.597412271004 15.904612095258386 L24.869697093060907 15.904612095258386 z"/>
<path fill="black" d="M3.597412271004 15.904612095258386 L22.4999998063859 17.009620192892555 L3.0821387028910543 17.009620192892555 z"/>
<path fill="black" d="M24.869698003496886 15.904612095258386 L27.395277855036323 15.227884107057124 L27.395279258870282 15.227884107057124 z"/>
<path fill="black" d="M24.869697093060907 15.904612095258386 L27.395277855036323 15.227884107057124 L24.869698003496886 15.904612095258386 z"/>
<path fill="black" d="M24.869697093060907 15.904612095258386 L3.912975610194845 15.227884107057124 L27.395277855036323 15.227884107057124 z"/>
<path fill="black" d="M3.912975610194845 15.227884107057124 L24.869697093060907 15.904612095258386 L3.597412271004 15.904612095258386 z"/>
<path fill="black" d="M3.5974137703113236 44.09539257594096 L22.500001218409135 42.99038193553922 L24.869704393359235 44.09539257594096 z"/>
<path fill="black" d="M22.500001218409135 42.99038193553922 L3.5974137703113236 44.09539257594096 L3.0821386100986494 42.99038193553922 z"/>
<path fill="black" d="M27.395277855036323 15.227884107057124 L4.019239430744186 15.000000533244881 L29.999997392269147 15.000000533244881 z"/>
<path fill="black" d="M4.019239430744186 15.000000533244881 L27.395277855036323 15.227884107057124 L3.912975610194845 15.227884107057124 z"/>
<path fill="black" d="M30.000002807314207 45.000001595186895 L27.395279603255545 44.77211802137465 L27.395279603255553 44.77211802137465 z"/>
<path fill="black" d="M4.019240077026623 45.000001595186895 L27.395279603255545 44.77211802137465 L30.000002807314207 45.000001595186895 z"/>
<path fill="black" d="M27.395279603255545 44.77211802137465 L4.019240077026623 45.000001595186895 L3.912976172668877 44.77211802137465 z"/>
<path fill="black" d="M3.912976172668877 44.77211802137465 L24.869704393359235 44.09539257594096 L27.395279603255545 44.77211802137465 z"/>
<path fill="black" d="M24.869704393359235 44.09539257594096 L3.912976172668877 44.77211802137465 L3.5974137703113236 44.09539257594096 z"/>
<path fill="black" d="M2.3828102242956213 41.490668060086 L18.509334206625752 39.64181386896753 L20.358188187115168 41.490668060086 z"/>
<path fill="black" d="M1.8092232253621283 40.26060733533456 L18.509334206625752 39.64181386896753 L2.3828102242956213 41.490668060086 z"/>
<path fill="black" d="M18.509334206625752 39.64181386896753 L1.8092232253621283 40.26060733533456 L1.6434178858127844 39.64181386896753 z"/>
<path fill="black" d="M3.0821386100986494 42.99038193553922 L20.358188187115168 41.490668060086 L22.500001218409135 42.99038193553922 z"/>
<path fill="black" d="M20.358188187115168 41.490668060086 L3.0821386100986494 42.99038193553922 L2.3828102242956213 41.490668060086 z"/>
<path fill="black" d="M1.6434178858127844 39.64181386896753 L17.009621156108587 37.500002449075026 L18.509334206625752 39.64181386896753 z"/>
<path fill="black" d="M17.009621156108587 37.500002449075026 L1.6434178858127844 39.64181386896753 L1.0695207957046904 37.500002449075026 z"/>
<path fill="black" d="M0.44884389074590914 35.13030425196408 L15.227884610242755 32.60472440042459 L15.904612222287561 35.13030425196408 z"/>
<path fill="black" d="M15.227884610242755 32.60472440042459 L0.44884389074590914 35.13030425196408 L0.2278839543096396 32.60472440042459 z"/>
<path fill="black" d="M55.98076293389174 45.000001595186895 L32.60472452745378 44.77211802137465 L56.08702675524743 44.77211802137465 z"/>
<path fill="black" d="M32.60472452745378 44.77211802137465 L55.98076293389174 45.000001595186895 L30.000004990220944 45.000001595186895 z"/>
<path fill="black" d="M56.40259009683284 44.09539003317339 L37.5000025761042 42.99038193553922 L56.91786366885579 42.99038193553922 z"/>
<path fill="black" d="M37.5000025761042 42.99038193553922 L56.40259009683284 44.09539003317339 L35.130305289429195 44.09539003317339 z"/>
<path fill="black" d="M56.91786366885579 42.99038193553922 L39.64181399599671 41.490668060086 L57.617191618815525 41.490668060086 z"/>
<path fill="black" d="M37.5000025761042 42.99038193553922 L39.64181399599671 41.490668060086 L56.91786366885579 42.99038193553922 z"/>
<path fill="black" d="M39.64181399599671 41.490668060086 L37.5000025761042 42.99038193553922 L37.500001390063915 42.99038193553922 z"/>
<path fill="black" d="M58.930482627418556 37.50000103705179 L59.55115950589641 35.1302978621017 L59.544235101153575 35.20944423145817 z"/>
<path fill="black" d="M58.930482627418556 37.50000103705179 L44.09539270297013 35.1302978621017 L59.55115950589641 35.1302978621017 z"/>
<path fill="black" d="M44.09539270297013 35.1302978621017 L58.930482627418556 37.50000103705179 L42.9903820625684 37.50000103705179 z"/>
<path fill="black" d="M55.98076229371614 15.000000533244881 L52.9813362120607 10.716376956519856 L55.98076121867061 14.9999982278025 z"/>
<path fill="black" d="M55.98076229371614 15.000000533244881 L49.28362524793212 7.018666007683372 L52.9813362120607 10.716376956519856 z"/>
<path fill="black" d="M55.98076229371614 15.000000533244881 L45.00000265679332 4.019240385798444 L49.28362524793212 7.018666007683372 z"/>
<path fill="black" d="M55.98076229371614 15.000000533244881 L40.26059463670059 1.80921797067219 L45.00000265679332 4.019240385798444 z"/>
<path fill="black" d="M55.98076229371614 15.000000533244881 L35.209444293814606 0.4557671369783485 L40.26059463670059 1.80921797067219 z"/>
<path fill="black" d="M29.99999957517591 15.000000533244881 L35.209444293814606 0.4557671369783485 L55.98076229371614 15.000000533244881 z"/>
<path fill="black" d="M29.99999957517591 15.000000533244881 L29.99999815078536 -3.943839033127006e-9 L35.209444293814606 0.4557671369783485 z"/>
<path fill="black" d="M29.999997392269147 15.000000533244881 L29.99999815078536 -3.943839033127006e-9 L29.99999957517591 15.000000533244881 z"/>
<path fill="black" d="M29.999997392269147 15.000000533244881 L24.79055440365886 0.4557671369783485 L29.99999815078536 -3.943839033127006e-9 z"/>
<path fill="black" d="M29.999997392269147 15.000000533244881 L19.73939508317664 1.8092230546437449 L24.79055440365886 0.4557671369783485 z"/>
<path fill="black" d="M29.999997392269147 15.000000533244881 L14.999998161986186 4.019240385798444 L19.73939508317664 1.8092230546437449 z"/>
<path fill="black" d="M29.999997392269147 15.000000533244881 L10.716375581741712 7.018667094977321 L14.999998161986186 4.019240385798444 z"/>
<path fill="black" d="M29.999997392269147 15.000000533244881 L7.018667199504826 10.71637505595611 L10.716375581741712 7.018667094977321 z"/>
<path fill="black" d="M7.018667199504826 10.71637505595611 L29.999997392269147 15.000000533244881 L4.019239430744186 15.000000533244881 z"/>
<path fill="black" d="M35.13029798913087 15.904609552490813 L56.08702615818673 15.227884107057124 L56.402588442095016 15.904609552490813 z"/>
<path fill="black" d="M56.08702615818673 15.227884107057124 L35.13029798913087 15.904609552490813 L32.60472277923456 15.227884107057124 z"/>
<path fill="black" d="M39.64181419537495 18.509334068345783 L56.91786340889438 17.009620192892555 L57.61719153219801 18.509334068345783 z"/>
<path fill="black" d="M56.91786340889438 17.009620192892555 L39.64181419537495 18.509334068345783 L37.50000116408096 17.009620192892555 z"/>
<path fill="black" d="M42.99038122638152 22.49999967935674 L58.356584482369584 20.358188259464242 L58.9304814999461 22.49999967935674 z"/>
<path fill="black" d="M58.356584482369584 20.358188259464242 L42.99038122638152 22.49999967935674 L41.49066817586436 20.358188259464242 z"/>
<path fill="black" d="M59.772118535400665 32.6047226522051 L45.00000184766088 29.9999980143062 L60.000002237244374 29.9999980143062 z"/>
<path fill="black" d="M45.00000184766088 29.9999980143062 L59.772118535400665 32.6047226522051 L44.7721181484039 32.6047226522051 z"/>
<path fill="black" d="M59.55115950589641 35.1302978621017 L44.7721181484039 32.6047226522051 L59.772118535400665 32.6047226522051 z"/>
<path fill="black" d="M44.7721181484039 32.6047226522051 L59.55115950589641 35.1302978621017 L44.09539270297013 35.1302978621017 z"/>
<path fill="black" d="M44.772118550710836 27.395280977655627 L59.55115968617588 24.86970007891819 L59.77211946762112 27.395280977655627 z"/>
<path fill="black" d="M59.55115968617588 24.86970007891819 L44.772118550710836 27.395280977655627 L44.09539075034776 24.86970007891819 z"/>
<path fill="black" d="M60.000002237244374 29.9999980143062 L59.77211946762112 27.395280977655627 L60.00000250194236 29.999994988792082 z"/>
<path fill="black" d="M45.00000184766088 29.9999980143062 L59.77211946762112 27.395280977655627 L60.000002237244374 29.9999980143062 z"/>
<path fill="black" d="M59.77211946762112 27.395280977655627 L45.00000184766088 29.9999980143062 L44.772118550710836 27.395280977655627 z"/>
<path fill="black" d="M59.55115968617588 24.86970007891819 L58.9304814999461 22.49999967935674 L59.54423588792521 24.790560732860623 z"/>
<path fill="black" d="M44.09539075034776 24.86970007891819 L58.9304814999461 22.49999967935674 L59.55115968617588 24.86970007891819 z"/>
<path fill="black" d="M58.9304814999461 22.49999967935674 L44.09539075034776 24.86970007891819 L42.99038122638152 22.49999967935674 z"/>
<path fill="black" d="M58.356584482369584 20.358188259464242 L57.61719153219801 18.509334068345783 L58.1907803092094 19.739399067912153 z"/>
<path fill="black" d="M41.49066817586436 20.358188259464242 L57.61719153219801 18.509334068345783 L58.356584482369584 20.358188259464242 z"/>
<path fill="black" d="M57.61719153219801 18.509334068345783 L41.49066817586436 20.358188259464242 L39.64181419537495 18.509334068345783 z"/>
<path fill="black" d="M37.50000116408096 17.009620192892555 L56.402588442095016 15.904609552490813 L56.91786340889438 17.009620192892555 z"/>
<path fill="black" d="M56.402588442095016 15.904609552490813 L37.50000116408096 17.009620192892555 L35.13029798913087 15.904609552490813 z"/>
<path fill="black" d="M32.60472277923456 15.227884107057124 L55.98076229371614 15.000000533244881 L56.08702615818673 15.227884107057124 z"/>
<path fill="black" d="M32.60472277923455 15.227884107057124 L55.98076229371614 15.000000533244881 L32.60472277923456 15.227884107057124 z"/>
<path fill="black" d="M55.98076229371614 15.000000533244881 L32.60472277923455 15.227884107057124 L29.99999957517591 15.000000533244881 z"/>
<path fill="black" d="M58.35658595711745 39.64181386896753 L42.9903820625684 37.50000103705179 L58.930482627418556 37.50000103705179 z"/>
<path fill="black" d="M58.35658595711745 39.64181386896753 L42.99038206256839 37.50000103705179 L42.9903820625684 37.50000103705179 z"/>
<path fill="black" d="M42.99038206256839 37.50000103705179 L58.35658595711745 39.64181386896753 L41.490668326721334 39.64181386896753 z"/>
<path fill="black" d="M57.617191618815525 41.490668060086 L58.35658595711745 39.64181386896753 L58.1907842847887 40.26059450967155 z"/>
<path fill="black" d="M57.617191618815525 41.490668060086 L41.490668326721334 39.64181386896753 L58.35658595711745 39.64181386896753 z"/>
<path fill="black" d="M57.617191618815525 41.490668060086 L41.49066818711516 39.64181386896753 L41.490668326721334 39.64181386896753 z"/>
<path fill="black" d="M39.64181399599671 41.490668060086 L41.49066818711516 39.64181386896753 L57.617191618815525 41.490668060086 z"/>
<path fill="black" d="M41.49066818711516 39.64181386896753 L39.64181399599671 41.490668060086 L39.64181388351888 41.490668060086 z"/>
<path fill="black" d="M56.08702675524743 44.77211802137465 L35.130305289429195 44.09539003317339 L56.40259009683284 44.09539003317339 z"/>
<path fill="black" d="M56.08702675524743 44.77211802137465 L35.13030437899322 44.09539003317339 L35.130305289429195 44.09539003317339 z"/>
<path fill="black" d="M32.60472452745378 44.77211802137465 L35.13030437899322 44.09539003317339 L56.08702675524743 44.77211802137465 z"/>
<path fill="black" d="M35.13030437899322 44.09539003317339 L32.60472452745378 44.77211802137465 L32.604723123619834 44.77211802137465 z"/>
<path fill="black" d="M49.283626800748365 52.98133505595611 L55.98076293389174 45.000001595186895 L52.98133518298528 49.283626673719226 z"/>
<path fill="black" d="M45.00000404632347 55.98076282471676 L55.98076293389174 45.000001595186895 L49.283626800748365 52.98133505595611 z"/>
<path fill="black" d="M40.26060746236373 58.19077903009881 L55.98076293389174 45.000001595186895 L45.00000404632347 55.98076282471676 z"/>
<path fill="black" d="M35.20944790011584 59.5442349289616 L55.98076293389174 45.000001595186895 L40.26060746236373 58.19077903009881 z"/>
<path fill="black" d="M35.20944790011584 59.5442349289616 L30.000004990220944 45.000001595186895 L55.98076293389174 45.000001595186895 z"/>
<path fill="black" d="M30.000004404295648 60.000002124487935 L30.000004990220944 45.000001595186895 L35.20944790011584 59.5442349289616 z"/>
<path fill="black" d="M30.000004404295648 60.000002124487935 L30.000002807314207 45.000001595186895 L30.000004990220944 45.000001595186895 z"/>
<path fill="black" d="M24.790557755070235 59.5442349289616 L30.000002807314207 45.000001595186895 L30.000004404295648 60.000002124487935 z"/>
<path fill="black" d="M19.739407747737232 58.190784170414794 L30.000002807314207 45.000001595186895 L24.790557755070235 59.5442349289616 z"/>
<path fill="black" d="M15.000001271071678 55.98076282471676 L30.000002807314207 45.000001595186895 L19.739407747737232 58.190784170414794 z"/>
<path fill="black" d="M10.716375182985267 52.98133505595611 L30.000002807314207 45.000001595186895 L15.000001271071678 55.98076282471676 z"/>
<path fill="black" d="M7.018667222006492 49.283626673719226 L30.000002807314207 45.000001595186895 L10.716375182985267 52.98133505595611 z"/>
<path fill="black" d="M4.0192411607762075 45.000003919294315 L30.000002807314207 45.000001595186895 L7.018667222006492 49.283626673719226 z"/>
<path fill="black" d="M30.000002807314207 45.000001595186895 L4.0192411607762075 45.000003919294315 L4.019240077026623 45.000001595186895 z"/>
</svg>