solid JSxCAD
facet normal -0.7071063764734961 0.49999943262139146 -0.5000011397275103
outer loop
vertex 10 1.2132 7.07107
vertex 8.28427 1.71573 10
vertex 10 4.14214 10
endloop
endfacet
facet normal -0.7071069970694649 0.49999837319664203 -0.5000013214943689
outer loop
vertex 10 1.2132 7.07107
vertex 7.07107 0 10
vertex 8.28427 1.71573 10
endloop
endfacet
facet normal -0.7071059617441969 0.5000026400882281 -0.49999851876842183
outer loop
vertex 7.07107 0 10
vertex 10 1.2132 7.07107
vertex 10 0 5.85786
endloop
endfacet
facet normal 0.7071061435149278 -0.5000022544970282 0.4999986472995058
outer loop
vertex 0 7.07107 7.07107
vertex 7.07107 10 0
vertex 4.14214 10 4.14214
endloop
endfacet
facet normal 0.7071068905928537 -0.49999917556242096 0.5000006697125566
outer loop
vertex 0 7.07107 7.07107
vertex 4.14214 5.85786 0
vertex 7.07107 10 0
endloop
endfacet
facet normal 0.7071061435172277 -0.5000004508998934 0.5000004508998935
outer loop
vertex 4.14214 5.85786 0
vertex 0 7.07107 7.07107
vertex 0 0 0
endloop
endfacet
facet normal 0.7071061435053579 0.4999963536809572 -0.5000045481020422
outer loop
vertex 5.85786 1.71573 10
vertex 0 7.07107 7.07107
vertex 4.14214 4.14214 10
endloop
endfacet
facet normal 0.7071069920790464 0.4999998508764396 -0.4999998508764396
outer loop
vertex 5.85786 1.71573 10
vertex 0 0 0
vertex 0 7.07107 7.07107
endloop
endfacet
facet normal 0.7071058985095481 0.5000017177124428 -0.49999953057739105
outer loop
vertex 0 0 0
vertex 5.85786 1.71573 10
vertex 7.07107 0 10
endloop
endfacet
facet normal 0 -0.7071067811865475 -0.7071067811865476
outer loop
vertex 7.07107 4.14214 10
vertex 10 10 4.14214
vertex 10 4.14214 10
endloop
endfacet
facet normal 0 -0.7071067811865474 -0.7071067811865477
outer loop
vertex 7.07107 4.14214 10
vertex 7.07107 10 4.14214
vertex 10 10 4.14214
endloop
endfacet
facet normal 0 -0.7071067811865477 -0.7071067811865474
outer loop
vertex 7.07107 4.14214 10
vertex 5.85786 10 4.14214
vertex 7.07107 10 4.14214
endloop
endfacet
facet normal 0 -0.7071067811865476 -0.7071067811865474
outer loop
vertex 7.07107 4.14214 10
vertex 4.14214 10 4.14214
vertex 5.85786 10 4.14214
endloop
endfacet
facet normal 0 -0.7071067811865475 -0.7071067811865476
outer loop
vertex 4.14214 4.14214 10
vertex 4.14214 10 4.14214
vertex 7.07107 4.14214 10
endloop
endfacet
facet normal 4.141345272863847e-16 -0.7071067811865477 -0.7071067811865475
outer loop
vertex 4.14214 10 4.14214
vertex 4.14214 4.14214 10
vertex 0 7.07107 7.07107
endloop
endfacet
facet normal 0 -1 0
outer loop
vertex 7.07107 10 0
vertex 10 10 4.14214
vertex 8.28427 10 1.71573
endloop
endfacet
facet normal -0.7071074188552919 -0.49999954909970024 0.49999954909969996
outer loop
vertex 10 10 4.14214
vertex 7.07107 10 0
vertex 10 5.85786 0
endloop
endfacet
facet normal 0 0 0.9999999999999999
outer loop
vertex 8.28427 1.71573 10
vertex 10 0 10
vertex 10 4.14214 10
endloop
endfacet
facet normal 0 0 1
outer loop
vertex 10 0 10
vertex 8.28427 1.71573 10
vertex 7.07107 0 10
endloop
endfacet
facet normal 0 0 1
outer loop
vertex 0 10 10
vertex 10 4.14214 10
vertex 10 10 10
endloop
endfacet
facet normal 0 0 1
outer loop
vertex 0 10 10
vertex 7.07107 4.14214 10
vertex 10 4.14214 10
endloop
endfacet
facet normal 0 0 1
outer loop
vertex 0 10 10
vertex 4.14214 4.14214 10
vertex 7.07107 4.14214 10
endloop
endfacet
facet normal 0 0 1
outer loop
vertex 0 0 10
vertex 4.14214 4.14214 10
vertex 0 10 10
endloop
endfacet
facet normal 0 0 1
outer loop
vertex 0 0 10
vertex 5.85786 1.71573 10
vertex 4.14214 4.14214 10
endloop
endfacet
facet normal 0 0 1
outer loop
vertex 5.85786 1.71573 10
vertex 0 0 10
vertex 7.07107 0 10
endloop
endfacet
facet normal 0 -1 0
outer loop
vertex 7.07107 0 10
vertex 0 0 10
vertex 0 0 0
endloop
endfacet
facet normal 0 -0.9999999999999999 0
outer loop
vertex 8.28427 0 8.28427
vertex 10 0 10
vertex 7.07107 0 10
endloop
endfacet
facet normal 0 -1 0
outer loop
vertex 10 0 10
vertex 8.28427 0 8.28427
vertex 10 0 5.85786
endloop
endfacet
facet normal 1 0 0
outer loop
vertex 10 10 4.14214
vertex 10 5.85786 0
vertex 10 10 0
endloop
endfacet
facet normal 1 0 0
outer loop
vertex 10 7.07107 7.07107
vertex 10 10 10
vertex 10 4.14214 10
endloop
endfacet
facet normal 1 4.1413527422025204e-16 0
outer loop
vertex 10 10 10
vertex 10 7.07107 7.07107
vertex 10 10 4.14214
endloop
endfacet
facet normal 1 0 0
outer loop
vertex 10 0 10
vertex 10 0 5.85786
vertex 10 4.14214 10
endloop
endfacet
facet normal 0 0 -0.9999999999999999
outer loop
vertex 4.14214 5.85786 0
vertex 0 10 0
vertex 7.07107 10 0
endloop
endfacet
facet normal 0 0 -1
outer loop
vertex 0 10 0
vertex 4.14214 5.85786 0
vertex 0 0 0
endloop
endfacet
facet normal 0 0 -1
outer loop
vertex 10 10 0
vertex 10 5.85786 0
vertex 7.07107 10 0
endloop
endfacet
facet normal -1 0 0
outer loop
vertex 0 10 10
vertex 0 0 0
vertex 0 0 10
endloop
endfacet
facet normal -1 0 0
outer loop
vertex 0 0 0
vertex 0 10 10
vertex 0 10 0
endloop
endfacet
facet normal 0 1 0
outer loop
vertex 7.07107 10 0
vertex 0 10 10
vertex 4.14214 10 4.14214
endloop
endfacet
facet normal 0 1 0
outer loop
vertex 0 10 10
vertex 7.07107 10 0
vertex 0 10 0
endloop
endfacet
facet normal 0 1 0
outer loop
vertex 7.07107 10 4.14214
vertex 10 10 10
vertex 10 10 4.14214
endloop
endfacet
facet normal 0 0.9999999999999999 0
outer loop
vertex 5.85786 10 4.14214
vertex 10 10 10
vertex 7.07107 10 4.14214
endloop
endfacet
facet normal 0 1 0
outer loop
vertex 4.14214 10 4.14214
vertex 10 10 10
vertex 5.85786 10 4.14214
endloop
endfacet
facet normal 0 1 0
outer loop
vertex 10 10 10
vertex 4.14214 10 4.14214
vertex 0 10 10
endloop
endfacet
facet normal 0 1 0
outer loop
vertex 10 10 0
vertex 8.28427 10 1.71573
vertex 10 10 4.14214
endloop
endfacet
facet normal 0 0.9999999999999999 0
outer loop
vertex 8.28427 10 1.71573
vertex 10 10 0
vertex 7.07107 10 0
endloop
endfacet
endsolid JSxCAD
