<svg viewBox="-250 -250 500 500" width="500" height="500" xmlns="http://www.w3.org/2000/svg"><path d="M19.520951864298087,34.909729693491364L-42.95992437867973,-81.72285136985094L7.211596137086314,40.08380409775185z" style="fill:rgb(147,87,246)"/><path d="M32.07297502786729,30.736198012284618L-30.03669479293861,-87.10727076874987L19.520951864298087,34.909729693491364z" style="fill:rgb(124,78,245)"/><path d="M7.211596137086314,40.08380409775185L-55.34671080471814,-75.75741076373724L-4.467238785462087,46.09651455886618z" style="fill:rgb(170,97,243)"/><path d="M44.471763560130505,27.70160245974788L-16.980183748067322,-91.74361522096095L32.07297502786729,30.736198012284618z" style="fill:rgb(101,71,238)"/><path d="M-4.467238785462087,46.09651455886618L-66.80339469167764,-69.39341466896668L-15.139249081392776,52.763339821704044z" style="fill:rgb(191,108,236)"/><path d="M56.31683900921781,25.917848700941345L-4.198574507871249,-95.48179626463184L44.471763560130505,27.70160245974788z" style="fill:rgb(78,66,228)"/><path d="M-26.469116960034444,-95.49208093039125L-31.191754422525147,-95.04770829086132L-30.84457158740357,-92.66093360555331z" style="fill:rgb(82,237,172)"/><path d="M-15.139249081392776,52.763339821704044L-76.94900459606309,-62.828655181764006L-24.445449935081164,59.87881651288399z" style="fill:rgb(209,121,224)"/><path d="M67.2088594165847,25.467986410092983L7.89785310350514,-98.19059708973674L56.31683900921781,25.917848700941345z" style="fill:rgb(58,64,214)"/><path d="M-30.03669479293861,-87.10727076874987L-42.95992437867973,-81.72285136985094L19.520951864298087,34.909729693491364z" style="fill:rgb(147,87,246)"/><path d="M-42.95992437867973,-81.72285136985094L-55.34671080471814,-75.75741076373724L7.211596137086314,40.08380409775185z" style="fill:rgb(170,97,243)"/><path d="M-16.980183748067322,-91.74361522096095L-30.03669479293861,-87.10727076874987L32.07297502786729,30.736198012284618z" style="fill:rgb(124,78,245)"/><path d="M-30.03669479293861,-87.10727076874987L-26.469116960034444,-95.49208093039125L-30.84457158740357,-92.66093360555331z" style="fill:rgb(82,237,172)"/><path d="M-55.34671080471814,-75.75741076373724L-66.80339469167764,-69.39341466896668L-4.467238785462087,46.09651455886618z" style="fill:rgb(191,108,236)"/><path d="M-4.198574507871249,-95.48179626463184L-16.980183748067322,-91.74361522096095L44.471763560130505,27.70160245974788z" style="fill:rgb(101,71,238)"/><path d="M-24.445449935081164,59.87881651288399L-85.42241193645484,-56.27351502209157L-32.049349871303036,67.21704054094208z" style="fill:rgb(224,133,209)"/><path d="M-76.94900459606309,-62.828655181764006L-30.84457158740357,-92.66093360555331L-31.191754422525147,-95.04770829086132zM-30.03669479293861,-87.10727076874987L-5.082979901694706,-97.50439306251559L-26.469116960034444,-95.49208093039125z" style="fill:rgb(82,237,172)"/><path d="M76.75642175874754,26.400474291663105L18.901685487457563,-99.76119804388068L67.2088594165847,25.467986410092983z" style="fill:rgb(40,64,196)"/><path d="M-30.03669479293861,-87.10727076874987L-30.84457158740357,-92.66093360555331L-56.40868676943202,-76.11942548947061z" style="fill:rgb(82,237,172)"/><path d="M-66.80339469167764,-69.39341466896668L-76.94900459606309,-62.828655181764006L-15.139249081392776,52.763339821704044z" style="fill:rgb(209,121,224)"/><path d="M7.89785310350514,-98.19059708973674L-4.198574507871249,-95.48179626463184L56.31683900921781,25.917848700941345z" style="fill:rgb(78,66,228)"/><path d="M-32.049349871303036,67.21704054094208L-91.89025569097771,-49.94995355333692L-37.647174848187454,74.53473758556379z" style="fill:rgb(236,146,191)"/><path d="M-10.302570745773917,-94.11480328341518L-16.606207643418788,-92.70322527884082L-30.03669479293861,-87.10727076874987zM-42.95992437867973,-81.72285136985094L-49.551268530724236,-78.97652031183713L-55.34671080471814,-75.75741076373724z" style="fill:rgb(82,237,172)"/><path d="M-76.94900459606309,-62.828655181764006L-85.42241193645484,-56.27351502209157L-24.445449935081164,59.87881651288399z" style="fill:rgb(224,133,209)"/><path d="M-49.551268530724236,-78.97652031183713L-56.40868676943202,-76.11942548947061L-66.80339469167764,-69.39341466896668z" style="fill:rgb(82,237,172)"/><path d="M18.901685487457563,-99.76119804388068L7.89785310350514,-98.19059708973674L67.2088594165847,25.467986410092983z" style="fill:rgb(58,64,214)"/><path d="M-4.198574507871249,-95.48179626463184L-10.302570745773917,-94.11480328341518L-16.980183748067322,-91.74361522096095z" style="fill:rgb(82,237,172)"/><path d="M84.58646898734587,28.72503678802437L28.415144950576764,-100.11068989131009L76.75642175874754,26.400474291663105z" style="fill:rgb(26,66,176)"/><path d="M12.019659583847158,-99.11365301703914L-5.082979901694706,-97.50439306251559L-16.606207643418788,-92.70322527884082z" style="fill:rgb(82,237,172)"/><path d="M-37.647174848187454,74.53473758556379L-96.06004925161103,-44.086769940018264L-40.97897278592071,81.57354649847653z" style="fill:rgb(243,157,170)"/><path d="M-85.42241193645484,-56.27351502209157L-91.89025569097771,-49.94995355333692L-32.049349871303036,67.21704054094208z" style="fill:rgb(236,146,191)"/><path d="M28.415144950576764,-100.11068989131009L18.901685487457563,-99.76119804388068L76.75642175874754,26.400474291663105z" style="fill:rgb(40,64,196)"/><path d="M-66.80339469167764,-69.39341466896668L-91.89025569097771,-49.94995355333692L-55.34671080471814,-75.75741076373724z" style="fill:rgb(82,237,172)"/><path d="M90.35713714538217,32.40513505653764L36.06154559679886,-99.18829597766306L84.58646898734587,28.72503678802437z" style="fill:rgb(16,71,153)"/><path d="M-85.42241193645484,-56.27351502209157L-66.80339469167764,-69.39341466896668L-76.94900459606309,-62.828655181764006zM18.901685487457563,-99.76119804388068L12.019659583847158,-99.11365301703914L7.89785310350514,-98.19059708973674zM-55.34671080471814,-75.75741076373724L-96.06004925161103,-44.086769940018264L-42.95992437867973,-81.72285136985094zM-42.95992437867973,-81.72285136985094L-97.69494903506776,-38.914387586381025L-30.03669479293861,-87.10727076874987zM-66.80339469167764,-69.39341466896668L-85.42241193645484,-56.27351502209157L-91.89025569097771,-49.94995355333692z" style="fill:rgb(82,237,172)"/><path d="M-40.97897278592071,81.57354649847653L-97.69494903506776,-38.914387586381025L-41.843519886804366,88.06722702866188z" style="fill:rgb(246,167,147)"/><path d="M-91.89025569097771,-49.94995355333692L-96.06004925161103,-44.086769940018264L-37.647174848187454,74.53473758556379z" style="fill:rgb(243,157,170)"/><path d="M36.06154559679886,-99.18829597766306L28.415144950576764,-100.11068989131009L84.58646898734587,28.72503678802437z" style="fill:rgb(26,66,176)"/><path d="M-30.03669479293861,-87.10727076874987L-96.63297958918612,-34.65586508639463L-16.980183748067322,-91.74361522096095zM-93.91100339860893,-50.88517448870884L-94.40418364445163,-49.325026184371666L-76.94900459606309,-62.828655181764006zM28.415144950576764,-100.11068989131009L25.874082983267893,-100.41727436831899L18.901685487457563,-99.76119804388068z" style="fill:rgb(82,237,172)"/><path d="M93.77573565555855,37.35326503101527L41.49813872188939,-96.98112209498386L90.35713714538217,32.40513505653764z" style="fill:rgb(9,78,130)"/><path d="M-55.34671080471814,-75.75741076373724L-91.89025569097771,-49.94995355333692L-96.06004925161103,-44.086769940018264zM-16.980183748067322,-91.74361522096095L-92.80626567621727,-31.516428426718196L-4.198574507871249,-95.48179626463184zM-85.42241193645484,-56.27351502209157L-94.40418364445163,-49.325026184371666L-95.24274169346785,-46.672166944230376z" style="fill:rgb(82,237,172)"/><path d="M-96.06004925161103,-44.086769940018264L-97.69494903506776,-38.914387586381025L-40.97897278592071,81.57354649847653z" style="fill:rgb(246,167,147)"/><path d="M-41.843519886804366,88.06722702866188L-96.63297958918612,-34.65586508639463L-40.1151892571088,93.74917013217608z" style="fill:rgb(245,176,124)"/><path d="M41.49813872188939,-96.98112209498386L36.06154559679886,-99.18829597766306L90.35713714538217,32.40513505653764z" style="fill:rgb(16,71,153)"/><path d="M-42.95992437867973,-81.72285136985094L-96.06004925161103,-44.086769940018264L-97.69494903506776,-38.914387586381025zM-4.198574507871249,-95.48179626463184L-86.26041987846341,-29.669387201858505L7.89785310350514,-98.19059708973674z" style="fill:rgb(82,237,172)"/><path d="M93.77573565555855,37.35326503101527L44.43520966097951,-93.52190513288421L94.61862735378668,43.42522920491582z" style="fill:rgb(246,167,147)"/><path d="M-91.89025569097771,-49.94995355333692L-95.24274169346785,-46.672166944230376L-96.06004925161103,-44.086769940018264zM-93.91100339860893,-50.88517448870884L-99.66911702540436,-46.830738554063004L-97.69494903506776,-38.914387586381025z" style="fill:rgb(82,237,172)"/><path d="M69.33324087411845,-77.71123042933081L111.66627200325745,36.76417139971915L122.18191601376303,26.73096365733663z" style="fill:rgb(217,127,217)"/><path d="M-30.03669479293861,-87.10727076874987L-97.69494903506776,-38.914387586381025L-96.63297958918612,-34.65586508639463z" style="fill:rgb(82,237,172)"/><path d="M-97.69494903506776,-38.914387586381025L-96.63297958918612,-34.65586508639463L-41.843519886804366,88.06722702866188z" style="fill:rgb(245,176,124)"/><path d="M-35.76196969954606,98.36430404185643L-92.80626567621727,-31.516428426718196L-40.1151892571088,93.74917013217608z" style="fill:rgb(16,71,153)"/><path d="M44.43520966097951,-93.52190513288421L41.49813872188939,-96.98112209498386L93.77573565555855,37.35326503101527z" style="fill:rgb(9,78,130)"/><path d="M7.89785310350514,-98.19059708973674L-77.17025495096425,-29.242737064952866L18.901685487457563,-99.76119804388068zM41.49813872188939,-96.98112209498386L40.030709460465275,-98.70937552053886L36.06154559679886,-99.18829597766306z" style="fill:rgb(82,237,172)"/><path d="M-47.6319073186946,38.89131606576068L-69.61674728512963,98.45297696694435L-19.61372541643638,103.51927329156915z" style="fill:rgb(49,63,205)"/><path d="M94.61862735378668,43.42522920491582L44.656886225438,-88.89487308572846L92.75259054511824,50.41870386410542z" style="fill:rgb(243,157,170)"/><path d="M-99.66911702540436,-46.830738554063004L-113.2330491587716,-37.280005436775625L-96.0804264946722,-32.44018787400292zM-16.980183748067322,-91.74361522096095L-96.63297958918612,-34.65586508639463L-92.80626567621727,-31.516428426718196z" style="fill:rgb(82,237,172)"/><path d="M69.33324087411845,-77.71123042933081L122.18191601376303,26.73096365733663L74.22256435646248,-104.96658783963665zM69.33324087411845,-77.71123042933081L80.936215506694,66.08420216065L111.66627200325745,36.76417139971915z" style="fill:rgb(217,127,217)"/><path d="M18.901685487457563,-99.76119804388068L-65.84652335906908,-30.303551476389153L28.415144950576764,-100.11068989131009z" style="fill:rgb(82,237,172)"/><path d="M-77.17025495096425,-29.242737064952866L-126.78459564562256,-27.737938060584174L-69.61674728512963,98.45297696694435z" style="fill:rgb(49,63,205)"/><path d="M-28.861501854241833,101.68327020513152L-86.26041987846341,-29.669387201858505L-35.76196969954606,98.36430404185643z" style="fill:rgb(26,66,176)"/><path d="M-40.1151892571088,93.74917013217608L-92.80626567621727,-31.516428426718196L-96.63297958918612,-34.65586508639463z" style="fill:rgb(16,71,153)"/><path d="M62.57379323912514,-95.98969920717803L74.22256435646248,-104.96658783963665L25.874082983267893,-100.41727436831899z" style="fill:rgb(82,237,172)"/><path d="M94.61862735378668,43.42522920491582L44.43520966097951,-93.52190513288421L44.656886225438,-88.89487308572846z" style="fill:rgb(246,167,147)"/><path d="M-4.198574507871249,-95.48179626463184L-92.80626567621727,-31.516428426718196L-86.26041987846341,-29.669387201858505z" style="fill:rgb(82,237,172)"/><path d="M92.75259054511824,50.41870386410542L42.04438417592319,-83.24043315696352L88.15625095172389,58.07447951614222z" style="fill:rgb(236,146,191)"/><path d="M-113.2330491587716,-37.280005436775625L-121.67997717491558,-31.332339006511674L-86.26041987846341,-29.669387201858505z" style="fill:rgb(82,237,172)"/><path d="M-77.17025495096425,-29.242737064952866L-69.61674728512963,98.45297696694435L-47.6319073186946,38.89131606576068z" style="fill:rgb(49,63,205)"/><path d="M28.415144950576764,-100.11068989131009L-52.733594297253305,-32.84792300896673L36.06154559679886,-99.18829597766306z" style="fill:rgb(82,237,172)"/><path d="M-19.61372541643638,103.51927329156915L-77.17025495096425,-29.242737064952866L-28.861501854241833,101.68327020513152z" style="fill:rgb(40,64,196)"/><path d="M49.3117740932635,-87.77862370985727L59.24639200112254,-96.39121137354444L40.030709460465275,-98.70937552053886z" style="fill:rgb(82,237,172)"/><path d="M-35.76196969954606,98.36430404185643L-86.26041987846341,-29.669387201858505L-92.80626567621727,-31.516428426718196z" style="fill:rgb(26,66,176)"/><path d="M-121.67997717491558,-31.332339006511674L-126.78459564562256,-27.737938060584174L-77.17025495096425,-29.242737064952866z" style="fill:rgb(82,237,172)"/><path d="M92.75259054511824,50.41870386410542L44.656886225438,-88.89487308572846L42.04438417592319,-83.24043315696352z" style="fill:rgb(243,157,170)"/><path d="M7.89785310350514,-98.19059708973674L-86.26041987846341,-29.669387201858505L-77.17025495096425,-29.242737064952866z" style="fill:rgb(82,237,172)"/><path d="M88.15625095172389,58.07447951614222L36.59773933920849,-76.75636912289075L80.936215506694,66.08420216065z" style="fill:rgb(224,133,209)"/><path d="M44.656886225438,-88.89487308572846L45.963273937685365,-91.72223882264845L44.43520966097951,-93.52190513288421zM36.06154559679886,-99.18829597766306L-52.733594297253305,-32.84792300896673L41.49813872188939,-96.98112209498386z" style="fill:rgb(82,237,172)"/><path d="M69.33324087411845,-77.71123042933081L74.22256435646248,-104.96658783963665L62.57379323912514,-95.98969920717803zM69.33324087411845,-77.71123042933081L55.39253789439171,0L80.936215506694,66.08420216065z" style="fill:rgb(217,127,217)"/><path d="M-92.80626567621727,-31.516428426718196L-96.63297958918612,-34.65586508639463L-96.0804264946722,-32.44018787400292z" style="fill:rgb(82,237,172)"/><path d="M-8.344520695401032,103.74382237439384L-65.84652335906908,-30.303551476389153L-19.61372541643638,103.51927329156915z" style="fill:rgb(58,64,214)"/><path d="M18.901685487457563,-99.76119804388068L-77.17025495096425,-29.242737064952866L-65.84652335906908,-30.303551476389153z" style="fill:rgb(82,237,172)"/><path d="M80.936215506694,66.08420216065L28.453121179461053,-69.69555589479253L71.3366985113119,74.10247823120332z" style="fill:rgb(209,121,224)"/><path d="M-28.861501854241833,101.68327020513152L-77.17025495096425,-29.242737064952866L-86.26041987846341,-29.669387201858505z" style="fill:rgb(40,64,196)"/><path d="M88.15625095172389,58.07447951614222L42.04438417592319,-83.24043315696352L36.59773933920849,-76.75636912289075z" style="fill:rgb(236,146,191)"/><path d="M-19.61372541643638,103.51927329156915L5.529341746646819,106.06674066570199L-36.13263946133475,7.7373780066254385z" style="fill:rgb(49,63,205)"/><path d="M41.49813872188939,-96.98112209498386L-23.471889485226786,-41.975274721278666L44.43520966097951,-93.52190513288421z" style="fill:rgb(82,237,172)"/><path d="M-19.61372541643638,103.51927329156915L-36.13263946133475,7.7373780066254385L-47.6319073186946,38.89131606576068z" style="fill:rgb(49,63,205)"/><path d="M55.39253789439171,0L35.81485628604721,109.13525307499374L80.936215506694,66.08420216065z" style="fill:rgb(217,127,217)"/><path d="M4.498501892245809,102.30258873963676L-52.733594297253305,-32.84792300896673L-8.344520695401032,103.74382237439384z" style="fill:rgb(78,66,228)"/><path d="M40.686417478112304,-80.30094148310887L49.3117740932635,-87.77862370985727L45.963273937685365,-91.72223882264845z" style="fill:rgb(82,237,172)"/><path d="M71.3366985113119,74.10247823120332L17.891518844673875,-62.355555658847905L59.73692134938209,81.76663838965507z" style="fill:rgb(191,108,236)"/><path d="M69.33324087411845,-77.71123042933081L62.57379323912514,-95.98969920717803L28.453121179461053,-69.69555589479253z" style="fill:rgb(217,127,217)"/><path d="M28.453121179461053,-69.69555589479253L62.57379323912514,-95.98969920717803L59.24639200112254,-96.39121137354444zM28.415144950576764,-100.11068989131009L-65.84652335906908,-30.303551476389153L-52.733594297253305,-32.84792300896673z" style="fill:rgb(82,237,172)"/><path d="M69.33324087411845,-77.71123042933081L28.453121179461053,-69.69555589479253L55.39253789439171,0z" style="fill:rgb(217,127,217)"/><path d="M18.36486126204794,99.22500193223334L-38.39257760251459,-36.79240439552574L4.498501892245809,102.30258873963676z" style="fill:rgb(101,71,238)"/><path d="M44.43520966097951,-93.52190513288421L-8.665118371005308,-48.16283395031307L44.656886225438,-88.89487308572846z" style="fill:rgb(82,237,172)"/><path d="M-19.61372541643638,103.51927329156915L-65.84652335906908,-30.303551476389153L-77.17025495096425,-29.242737064952866z" style="fill:rgb(58,64,214)"/><path d="M80.936215506694,66.08420216065L36.59773933920849,-76.75636912289075L28.453121179461053,-69.69555589479253z" style="fill:rgb(224,133,209)"/><path d="M59.73692134938209,81.76663838965507L5.336386186902825,-55.065067118603466L46.63724821418757,88.71824052833746z" style="fill:rgb(170,97,243)"/><path d="M32.63048955764905,94.62934949431306L-23.471889485226786,-41.975274721278666L18.36486126204794,99.22500193223334z" style="fill:rgb(124,78,245)"/><path d="M46.63724821418757,88.71824052833746L-8.665118371005308,-48.16283395031307L32.63048955764905,94.62934949431306z" style="fill:rgb(147,87,246)"/><path d="M36.59773933920849,-76.75636912289075L40.686417478112304,-80.30094148310887L42.04438417592319,-83.24043315696352zM44.656886225438,-88.89487308572846L5.336386186902825,-55.065067118603466L42.04438417592319,-83.24043315696352z" style="fill:rgb(82,237,172)"/><path d="M-8.344520695401032,103.74382237439384L-52.733594297253305,-32.84792300896673L-65.84652335906908,-30.303551476389153z" style="fill:rgb(78,66,228)"/><path d="M71.3366985113119,74.10247823120332L28.453121179461053,-69.69555589479253L17.891518844673875,-62.355555658847905z" style="fill:rgb(209,121,224)"/><path d="M41.49813872188939,-96.98112209498386L-52.733594297253305,-32.84792300896673L-38.39257760251459,-36.79240439552574zM41.49813872188939,-96.98112209498386L-38.39257760251459,-36.79240439552574L-23.471889485226786,-41.975274721278666zM42.04438417592319,-83.24043315696352L17.891518844673875,-62.355555658847905L36.59773933920849,-76.75636912289075z" style="fill:rgb(82,237,172)"/><path d="M-52.12296198035989,-30.00241975961026L-77.17025495096425,-29.242737064952866L-47.6319073186946,38.89131606576068z" style="fill:rgb(49,63,205)"/><path d="M4.498501892245809,102.30258873963676L-38.39257760251459,-36.79240439552574L-52.733594297253305,-32.84792300896673z" style="fill:rgb(101,71,238)"/><path d="M59.73692134938209,81.76663838965507L17.891518844673875,-62.355555658847905L5.336386186902825,-55.065067118603466z" style="fill:rgb(191,108,236)"/><path d="M44.43520966097951,-93.52190513288421L-23.471889485226786,-41.975274721278666L-8.665118371005308,-48.16283395031307z" style="fill:rgb(82,237,172)"/><path d="M-52.12296198035989,-30.00241975961026L-47.6319073186946,38.89131606576068L-36.13263946133475,7.7373780066254385zM5.529341746646819,106.06674066570199L30.090042446578003,108.55521825099056L-24.597060636565157,-23.51548191627546z" style="fill:rgb(49,63,205)"/><path d="M18.36486126204794,99.22500193223334L-23.471889485226786,-41.975274721278666L-38.39257760251459,-36.79240439552574z" style="fill:rgb(124,78,245)"/><path d="M46.63724821418757,88.71824052833746L5.336386186902825,-55.065067118603466L-8.665118371005308,-48.16283395031307z" style="fill:rgb(170,97,243)"/><path d="M44.656886225438,-88.89487308572846L-8.665118371005308,-48.16283395031307L5.336386186902825,-55.065067118603466zM36.59773933920849,-76.75636912289075L17.891518844673875,-62.355555658847905L28.453121179461053,-69.69555589479253z" style="fill:rgb(82,237,172)"/><path d="M32.63048955764905,94.62934949431306L-8.665118371005308,-48.16283395031307L-23.471889485226786,-41.975274721278666z" style="fill:rgb(147,87,246)"/><path d="M42.04438417592319,-83.24043315696352L5.336386186902825,-55.065067118603466L17.891518844673875,-62.355555658847905z" style="fill:rgb(82,237,172)"/><path d="M5.529341746646819,106.06674066570199L-24.597060636565157,-23.51548191627546L-36.13263946133475,7.7373780066254385z" style="fill:rgb(49,63,205)"/><path d="M55.39253789439171,0L-21.863910994662444,-30.92017431955361L35.81485628604721,109.13525307499374zM55.39253789439171,0L28.453121179461053,-69.69555589479253L-21.863910994662444,-30.92017431955361z" style="fill:rgb(217,127,217)"/><path d="M-52.12296198035989,-30.00241975961026L-47.227772217763835,-32.04806573717763L-77.17025495096425,-29.242737064952866z" style="fill:rgb(82,237,172)"/><path d="M-21.863910994662444,-30.92017431955361L30.090042446578003,108.55521825099056L35.81485628604721,109.13525307499374z" style="fill:rgb(49,63,205)"/><path d="M-65.84652335906908,-30.303551476389153L-47.227772217763835,-32.04806573717763L-38.88250885007491,-35.53542144970849zM-1.1209937796437344,-51.31538497313622L6.721490509247106,-54.592654419127975L17.891518844673875,-62.355555658847905zM-52.733594297253305,-32.84792300896673L-38.88250885007491,-35.53542144970849L-31.024725480349392,-38.81908373551532zM-8.665118371005308,-48.16283395031307L-1.1209937796437344,-51.31538497313622L5.336386186902825,-55.065067118603466zM-38.39257760251459,-36.79240439552574L-31.024725480349392,-38.81908373551532L-23.471889485226786,-41.975274721278666z" style="fill:rgb(82,237,172)"/><path d="M-52.12296198035989,-30.00241975961026L-36.13263946133475,7.7373780066254385L-24.597060636565157,-23.51548191627546z" style="fill:rgb(49,63,205)"/><path d="M-23.471889485226786,-41.975274721278666L-22.366618905933887,-34.377280829086L6.721490509247106,-54.592654419127975zM-52.12296198035989,-30.00241975961026L-22.366618905933887,-34.377280829086L-23.471889485226786,-41.975274721278666z" style="fill:rgb(82,237,172)"/><path d="M-21.863910994662444,-30.92017431955361L-24.597060636565157,-23.51548191627546L30.090042446578003,108.55521825099056z" style="fill:rgb(49,63,205)"/><path d="M-22.366618905933887,-34.377280829086L-21.863910994662444,-30.92017431955361L28.453121179461053,-69.69555589479253zM-52.12296198035989,-30.00241975961026L-27.59106107136691,-30.74646525857364L-22.366618905933887,-34.377280829086z" style="fill:rgb(82,237,172)"/><path d="M-52.12296198035989,-30.00241975961026L-24.597060636565157,-23.51548191627546L-27.59106107136691,-30.74646525857364z" style="fill:rgb(49,63,205)"/><path d="M-22.366618905933887,-34.377280829086L-27.59106107136691,-30.74646525857364L-21.863910994662444,-30.92017431955361z" style="fill:rgb(82,237,172)"/><path d="M-24.597060636565157,-23.51548191627546L-21.863910994662444,-30.92017431955361L-27.59106107136691,-30.74646525857364z" style="fill:rgb(49,63,205)"/></svg>