<svg viewBox="-250 -250 500 500" width="500" height="500" xmlns="http://www.w3.org/2000/svg"><path d="M55.392600839983835,2.8968622776048044e-15L-4.671230631781617,-24.654366270641905L-17.28003404011095,-19.37711587797617zM55.392600839983835,2.8968622776048044e-15L8.128334183651926,-29.05076850965622L-4.671230631781617,-24.654366270641905zM55.392600839983835,2.8968622776048044e-15L-17.28003404011095,-19.37711587797617L-29.302805446124403,-13.38352428449207zM55.392600839983835,2.8968622776048044e-15L20.71652845678399,-32.422340341403306L8.128334183651926,-29.05076850965622zM55.392600839983835,2.8968622776048044e-15L-29.302805446124403,-13.38352428449207L-40.354766371038565,-6.857239581485712zM55.392600839983835,2.8968622776048044e-15L32.68810170228573,-34.647770076409536L20.71652845678399,-32.422340341403306zM55.392600839983835,2.8968622776048044e-15L-40.354766371038565,-6.857239581485712L-50.066130548479684,-3.0395655970402517e-15zM55.392600839983835,2.8968622776048044e-15L43.63964199174081,-35.63161787610226L32.68810170228573,-34.647770076409536zM55.392600839983835,2.8968622776048044e-15L-50.066130548479684,-3.0395655970402517e-15L-58.08848342297715,6.969661350606075zM55.392600839983835,2.8968622776048044e-15L53.17670090124996,-35.3087343710711L43.63964199174081,-35.63161787610226zM55.392600839983835,2.8968622776048044e-15L-58.08848342297715,6.969661350606075L-64.10371245290008,13.81855764219385zM55.392600839983835,2.8968622776048044e-15L60.9240338672126,-33.64980787475073L53.17670090124996,-35.3087343710711zM55.392600839983835,2.8968622776048044e-15L-64.10371245290008,13.81855764219385L-67.83608005586926,20.302513343195447zM55.392600839983835,2.8968622776048044e-15L66.53945366468517,-30.66769414903209L60.9240338672126,-33.64980787475073zM55.392600839983835,2.8968622776048044e-15L-67.83608005586926,20.302513343195447L-69.06733835346805,26.17219708773404zM55.392600839983835,2.8968622776048044e-15L69.73146385288322,-26.423859072632453L66.53945366468517,-30.66769414903209zM55.392600839983835,2.8968622776048044e-15L-69.06733835346805,26.17219708773404L-67.65442833579075,31.181580276947987zM55.392600839983835,2.8968622776048044e-15L70.27996364247171,-21.033937963918643L69.73146385288322,-26.423859072632453zM55.392600839983835,2.8968622776048044e-15L-67.65442833579075,31.181580276947987L-63.548268457518695,35.099235697841706zM55.392600839983835,2.8968622776048044e-15L68.05854219684466,-14.671083037223264L70.27996364247171,-21.033937963918643zM55.392600839983835,2.8968622776048044e-15L-63.548268457518695,35.099235697841706L-56.81146541052289,37.72217733357534zM55.392600839983835,2.8968622776048044e-15L63.05585110363547,-7.565663664628266L68.05854219684466,-14.671083037223264zM55.392600839983835,2.8968622776048044e-15L-56.81146541052289,37.72217733357534L-47.63194222626719,38.8913173124597zM55.392600839983835,2.8968622776048044e-15L-47.63194222626719,38.8913173124597L-36.32902933498974,38.50697317825114zM55.392600839983835,2.8968622776048044e-15L-36.32902933498974,38.50697317825114L-23.34899143884485,36.5422685870343zM55.392600839983835,2.8968622776048044e-15L33.270041329437646,15.195487234055099L45.33056172312861,7.7027461698279405zM55.392600839983835,2.8968622776048044e-15L-23.34899143884485,36.5422685870343L-9.247879331409434,33.05203693548266zM55.392600839983835,2.8968622776048044e-15L19.733937990012368,22.12882233181125L33.270041329437646,15.195487234055099zM55.392600839983835,2.8968622776048044e-15L-9.247879331409434,33.05203693548266L5.3383036586549295,28.17512215494894zM55.392600839983835,2.8968622776048044e-15L5.3383036586549295,28.17512215494894L19.733937990012368,22.12882233181125z" style="fill:rgb(82,237,172)"/></svg>