<svg viewBox="-250 -250 500 500" width="500" height="500" xmlns="http://www.w3.org/2000/svg"><path d="M-44.757772755640445,-4.1354279258424675L-47.63194222626719,38.8913173124597L-12.91451912546837,-28.942623960328202zM-9.666976453332383,-31.4725922853239L7.779588843495264,41.06002258320021L-6.439464237044916,-33.98695642094897zM-12.91451912546837,-28.942623960328202L7.779588843495264,41.06002258320021L-9.666976453332383,-31.4725922853239zM-50.066130548479684,6.288676322378583e-15L-47.63194222626719,38.8913173124597L-44.757772755640445,-4.1354279258424675zM-6.439464237044916,-33.98695642094897L7.779588843495264,41.06002258320021L35.782004486019034,-35.373563059374646zM-84.95294908886302,27.178256340125238L-47.63194222626719,38.8913173124597L-50.066130548479684,6.288676322378583e-15zM-91.1837035476517,32.03226917383235L-47.63194222626719,38.8913173124597L-84.95294908886302,27.178256340125238zM88.61203060337064,-37.10856835804123L92.02331005964979,-31.589214153656723L98.81196195057628,-37.443547232337615zM-47.63194222626719,38.8913173124597L-91.1837035476517,32.03226917383235L-97.48368055872771,36.94021174489538zM88.61203060337064,-37.10856835804123L91.20479213956916,-30.8833545956105L92.02331005964979,-31.589214153656723zM88.61203060337064,-37.10856835804123L90.22580532616112,-30.039100862485167L91.20479213956916,-30.8833545956105z" style="fill:rgb(82,237,172)"/><path d="M95.42981628674886,-34.526884629027144L92.02331005964979,-31.589214153656723L98.81196195057628,-37.443547232337615z" style="fill:rgb(46,226,127)"/><path d="M35.782004486019034,-35.373563059374646L44.09552009532923,42.4813615639056L43.63964199174081,-35.63161787610226zM-12.91451912546837,-28.942623960328202L-47.63194222626719,38.8913173124597L7.779588843495264,41.06002258320021zM43.63964199174081,-35.63161787610226L57.40678938089731,42.098548543045915L81.5951291307198,-36.878124353835766zM35.782004486019034,-35.373563059374646L16.774976261438425,33.30267218962598L17.910926907397375,32.323062483019086zM35.782004486019034,-35.373563059374646L17.910926907397375,32.323062483019086L18.31887077614047,33.13377299460882zM35.782004486019034,-35.373563059374646L15.821493602525408,34.12492610931449L16.774976261438425,33.30267218962598zM35.782004486019034,-35.373563059374646L18.31887077614047,33.13377299460882L18.728553350584313,33.94799287670928zM35.782004486019034,-35.373563059374646L13.19974650126407,36.38584421432504L15.821493602525408,34.12492610931449zM35.782004486019034,-35.373563059374646L10.720715806446291,38.5236814192881L13.19974650126407,36.38584421432504zM35.782004486019034,-35.373563059374646L9.297088749701347,39.75137811195772L10.720715806446291,38.5236814192881zM35.782004486019034,-35.373563059374646L18.728553350584313,33.94799287670928L21.560650715251445,36.08749594067638zM35.782004486019034,-35.373563059374646L7.779588843495264,41.06002258320021L9.297088749701347,39.75137811195772zM81.5951291307198,-36.878124353835766L96.42932279043474,33.51481413952279L88.61203060337064,-37.10856835804123zM35.782004486019034,-35.373563059374646L21.560650715251445,36.08749594067638L24.43281078284574,38.25751251233841zM88.61203060337064,-37.10856835804123L96.42932279043474,33.51481413952279L90.22580532616112,-30.039100862485167zM35.782004486019034,-35.373563059374646L24.43281078284574,38.25751251233841L28.67382190825342,39.70013111925584zM35.782004486019034,-35.373563059374646L28.67382190825342,39.70013111925584L32.971871596984386,41.16231038535726zM90.22580532616112,-30.039100862485167L104.55094949112762,30.845791468109937L91.43179003606248,-30.4480639591185zM91.43179003606248,-30.4480639591185L112.41220924763752,27.53499010504348L94.34951181893784,-31.43754028114301zM94.34951181893784,-31.43754028114301L112.41220924763752,27.53499010504348L101.3529557108493,-33.263799812306914zM101.3529557108493,-33.263799812306914L120.27026423209678,24.2255382172993L108.38991850619016,-35.09887847538276zM35.782004486019034,-35.373563059374646L32.971871596984386,41.16231038535726L38.49991745752391,41.8177850974932zM108.38991850619016,-35.09887847538276L127.51960690564754,20.421503471299246L115.16417481731459,-36.30934994976747zM115.16417481731459,-36.30934994976747L134.74448122573466,16.6304278450795L121.98708413463214,-37.52859129118149zM121.98708413463214,-37.52859129118149L141.0460396309749,12.515231842432689L128.3105910476115,-38.07268166092144zM35.782004486019034,-35.373563059374646L38.49991745752391,41.8177850974932L44.09552009532923,42.4813615639056zM128.3105910476115,-38.07268166092144L147.30863985286305,8.425602545871158L134.69350981024198,-38.62194278675567zM134.69350981024198,-38.62194278675567L152.3857157769214,4.194425257077552L140.34628823604316,-38.46445435803136zM140.34628823604316,-38.46445435803136L157.41883674907425,-9.642738950972043e-15L146.06252196932303,-38.30526792303116zM43.63964199174081,-35.63161787610226L44.09552009532923,42.4813615639056L50.71682816722567,42.29090269790015zM146.06252196932303,-38.30526792303116L161.07072574238475,-4.1534453744701985L150.82963489722044,-37.42910962228452zM150.82963489722044,-37.42910962228452L164.68314696028,-8.26185755500203L155.65763274021364,-36.541882664301575zM43.63964199174081,-35.63161787610226L50.71682816722567,42.29090269790015L57.40678938089731,42.098548543045915zM155.65763274021364,-36.541882664301575L166.79173110620977,-12.157327978728475L159.33686973280243,-34.95173413586121zM159.33686973280243,-34.95173413586121L168.8742706929616,-16.004346625227793L163.06701282057566,-33.33976599150531zM165.47785221187672,-31.06570909358878L168.91804859820184,-25.860034351224126L167.92322839115147,-28.75908953749458zM163.06701282057566,-33.33976599150531L169.40418233208177,-19.48547697952206L165.47785221187672,-31.06570909358878zM165.47785221187672,-31.06570909358878L169.92712938501072,-22.91946561068064L168.91804859820184,-25.860034351224126zM81.5951291307198,-36.878124353835766L57.40678938089731,42.098548543045915L64.85774456541266,41.04266185564223zM165.47785221187672,-31.06570909358878L169.40418233208177,-19.48547697952206L169.92712938501072,-22.91946561068064zM81.5951291307198,-36.878124353835766L64.85774456541266,41.04266185564223L72.36929083093561,39.97828907078943zM163.06701282057566,-33.33976599150531L168.8742706929616,-16.004346625227793L169.40418233208177,-19.48547697952206zM81.5951291307198,-36.878124353835766L72.36929083093561,39.97828907078943L80.32715819692088,38.08275882536554zM159.33686973280243,-34.95173413586121L166.79173110620977,-12.157327978728475L168.8742706929616,-16.004346625227793zM81.5951291307198,-36.878124353835766L80.32715819692088,38.08275882536554L88.32873363163459,36.17692425048337zM81.5951291307198,-36.878124353835766L88.32873363163459,36.17692425048337L96.42932279043474,33.51481413952279zM155.65763274021364,-36.541882664301575L164.68314696028,-8.26185755500203L166.79173110620977,-12.157327978728475zM150.82963489722044,-37.42910962228452L161.07072574238475,-4.1534453744701985L164.68314696028,-8.26185755500203zM146.06252196932303,-38.30526792303116L157.41883674907425,-9.642738950972043e-15L161.07072574238475,-4.1534453744701985zM140.34628823604316,-38.46445435803136L152.3857157769214,4.194425257077552L157.41883674907425,-9.642738950972043e-15zM134.69350981024198,-38.62194278675567L147.30863985286305,8.425602545871158L152.3857157769214,4.194425257077552zM128.3105910476115,-38.07268166092144L141.0460396309749,12.515231842432689L147.30863985286305,8.425602545871158zM104.55094949112762,30.845791468109937L90.22580532616112,-30.039100862485167L96.42932279043474,33.51481413952279zM91.43179003606248,-30.4480639591185L104.55094949112762,30.845791468109937L112.41220924763752,27.53499010504348zM121.98708413463214,-37.52859129118149L134.74448122573466,16.6304278450795L141.0460396309749,12.515231842432689zM115.16417481731459,-36.30934994976747L127.51960690564754,20.421503471299246L134.74448122573466,16.6304278450795zM101.3529557108493,-33.263799812306914L112.41220924763752,27.53499010504348L120.27026423209678,24.2255382172993zM108.38991850619016,-35.09887847538276L120.27026423209678,24.2255382172993L127.51960690564754,20.421503471299246z" style="fill:rgb(82,237,172)"/></svg>