<svg viewBox="-250 -250 500 500" width="500" height="500" xmlns="http://www.w3.org/2000/svg"><path d="M-66.80339469167764,-69.39341466896668L-91.89025569097771,-49.94995355333692L-55.34671080471814,-75.75741076373724zM-85.42241193645484,-56.27351502209157L-66.80339469167764,-69.39341466896668L-76.94900459606309,-62.828655181764006zM-55.34671080471814,-75.75741076373724L-96.06004925161103,-44.086769940018264L-42.95992437867973,-81.72285136985094zM-42.95992437867973,-81.72285136985094L-97.69494903506776,-38.914387586381025L-30.03669479293861,-87.10727076874987zM-66.80339469167764,-69.39341466896668L-85.42241193645484,-56.27351502209157L-91.89025569097771,-49.94995355333692zM-30.03669479293861,-87.10727076874987L-96.63297958918612,-34.65586508639463L-16.980183748067322,-91.74361522096095zM-55.34671080471814,-75.75741076373724L-91.89025569097771,-49.94995355333692L-96.06004925161103,-44.086769940018264zM-16.980183748067322,-91.74361522096095L-92.80626567621727,-31.516428426718196L-4.198574507871249,-95.48179626463184zM-42.95992437867973,-81.72285136985094L-96.06004925161103,-44.086769940018264L-97.69494903506776,-38.914387586381025zM-4.198574507871249,-95.48179626463184L-86.26041987846341,-29.669387201858505L7.89785310350514,-98.19059708973674z" style="fill:rgb(82,237,172)"/><path d="M93.77573565555855,37.35326503101527L44.43520966097951,-93.52190513288421L94.61862735378668,43.42522920491582z" style="fill:rgb(246,167,147)"/><path d="M-30.03669479293861,-87.10727076874987L-97.69494903506776,-38.914387586381025L-96.63297958918612,-34.65586508639463z" style="fill:rgb(82,237,172)"/><path d="M-35.76196969954606,98.36430404185643L-92.80626567621727,-31.516428426718196L-40.1151892571088,93.74917013217608z" style="fill:rgb(16,71,153)"/><path d="M7.89785310350514,-98.19059708973674L-77.17025495096425,-29.242737064952866L18.901685487457563,-99.76119804388068z" style="fill:rgb(82,237,172)"/><path d="M94.61862735378668,43.42522920491582L44.656886225438,-88.89487308572846L92.75259054511824,50.41870386410542z" style="fill:rgb(243,157,170)"/><path d="M-16.980183748067322,-91.74361522096095L-96.63297958918612,-34.65586508639463L-92.80626567621727,-31.516428426718196zM18.901685487457563,-99.76119804388068L-65.84652335906908,-30.303551476389153L28.415144950576764,-100.11068989131009z" style="fill:rgb(82,237,172)"/><path d="M-28.861501854241833,101.68327020513152L-86.26041987846341,-29.669387201858505L-35.76196969954606,98.36430404185643z" style="fill:rgb(26,66,176)"/><path d="M-40.1151892571088,93.74917013217608L-92.80626567621727,-31.516428426718196L-96.63297958918612,-34.65586508639463z" style="fill:rgb(16,71,153)"/><path d="M94.61862735378668,43.42522920491582L44.43520966097951,-93.52190513288421L44.656886225438,-88.89487308572846z" style="fill:rgb(246,167,147)"/><path d="M-4.198574507871249,-95.48179626463184L-92.80626567621727,-31.516428426718196L-86.26041987846341,-29.669387201858505z" style="fill:rgb(82,237,172)"/><path d="M92.75259054511824,50.41870386410542L42.04438417592319,-83.24043315696352L88.15625095172389,58.07447951614222z" style="fill:rgb(236,146,191)"/><path d="M28.415144950576764,-100.11068989131009L-52.733594297253305,-32.84792300896673L36.06154559679886,-99.18829597766306z" style="fill:rgb(82,237,172)"/><path d="M-19.61372541643638,103.51927329156915L-77.17025495096425,-29.242737064952866L-28.861501854241833,101.68327020513152z" style="fill:rgb(40,64,196)"/><path d="M-35.76196969954606,98.36430404185643L-86.26041987846341,-29.669387201858505L-92.80626567621727,-31.516428426718196z" style="fill:rgb(26,66,176)"/><path d="M92.75259054511824,50.41870386410542L44.656886225438,-88.89487308572846L42.04438417592319,-83.24043315696352z" style="fill:rgb(243,157,170)"/><path d="M7.89785310350514,-98.19059708973674L-86.26041987846341,-29.669387201858505L-77.17025495096425,-29.242737064952866z" style="fill:rgb(82,237,172)"/><path d="M88.15625095172389,58.07447951614222L36.59773933920849,-76.75636912289075L80.936215506694,66.08420216065z" style="fill:rgb(224,133,209)"/><path d="M36.06154559679886,-99.18829597766306L-52.733594297253305,-32.84792300896673L41.49813872188939,-96.98112209498386z" style="fill:rgb(82,237,172)"/><path d="M-8.344520695401032,103.74382237439384L-65.84652335906908,-30.303551476389153L-19.61372541643638,103.51927329156915z" style="fill:rgb(58,64,214)"/><path d="M18.901685487457563,-99.76119804388068L-77.17025495096425,-29.242737064952866L-65.84652335906908,-30.303551476389153z" style="fill:rgb(82,237,172)"/><path d="M80.936215506694,66.08420216065L28.453121179461053,-69.69555589479253L71.3366985113119,74.10247823120332z" style="fill:rgb(209,121,224)"/><path d="M-28.861501854241833,101.68327020513152L-77.17025495096425,-29.242737064952866L-86.26041987846341,-29.669387201858505z" style="fill:rgb(40,64,196)"/><path d="M88.15625095172389,58.07447951614222L42.04438417592319,-83.24043315696352L36.59773933920849,-76.75636912289075z" style="fill:rgb(236,146,191)"/><path d="M41.49813872188939,-96.98112209498386L-23.471889485226786,-41.975274721278666L44.43520966097951,-93.52190513288421z" style="fill:rgb(82,237,172)"/><path d="M4.498501892245809,102.30258873963676L-52.733594297253305,-32.84792300896673L-8.344520695401032,103.74382237439384z" style="fill:rgb(78,66,228)"/><path d="M71.3366985113119,74.10247823120332L17.891518844673875,-62.355555658847905L59.73692134938209,81.76663838965507z" style="fill:rgb(191,108,236)"/><path d="M28.415144950576764,-100.11068989131009L-65.84652335906908,-30.303551476389153L-52.733594297253305,-32.84792300896673z" style="fill:rgb(82,237,172)"/><path d="M18.36486126204794,99.22500193223334L-38.39257760251459,-36.79240439552574L4.498501892245809,102.30258873963676z" style="fill:rgb(101,71,238)"/><path d="M44.43520966097951,-93.52190513288421L-8.665118371005308,-48.16283395031307L44.656886225438,-88.89487308572846z" style="fill:rgb(82,237,172)"/><path d="M-19.61372541643638,103.51927329156915L-65.84652335906908,-30.303551476389153L-77.17025495096425,-29.242737064952866z" style="fill:rgb(58,64,214)"/><path d="M80.936215506694,66.08420216065L36.59773933920849,-76.75636912289075L28.453121179461053,-69.69555589479253z" style="fill:rgb(224,133,209)"/><path d="M59.73692134938209,81.76663838965507L5.336386186902825,-55.065067118603466L46.63724821418757,88.71824052833746z" style="fill:rgb(170,97,243)"/><path d="M32.63048955764905,94.62934949431306L-23.471889485226786,-41.975274721278666L18.36486126204794,99.22500193223334z" style="fill:rgb(124,78,245)"/><path d="M46.63724821418757,88.71824052833746L-8.665118371005308,-48.16283395031307L32.63048955764905,94.62934949431306z" style="fill:rgb(147,87,246)"/><path d="M44.656886225438,-88.89487308572846L5.336386186902825,-55.065067118603466L42.04438417592319,-83.24043315696352z" style="fill:rgb(82,237,172)"/><path d="M-8.344520695401032,103.74382237439384L-52.733594297253305,-32.84792300896673L-65.84652335906908,-30.303551476389153z" style="fill:rgb(78,66,228)"/><path d="M71.3366985113119,74.10247823120332L28.453121179461053,-69.69555589479253L17.891518844673875,-62.355555658847905z" style="fill:rgb(209,121,224)"/><path d="M41.49813872188939,-96.98112209498386L-52.733594297253305,-32.84792300896673L-38.39257760251459,-36.79240439552574zM41.49813872188939,-96.98112209498386L-38.39257760251459,-36.79240439552574L-23.471889485226786,-41.975274721278666zM42.04438417592319,-83.24043315696352L17.891518844673875,-62.355555658847905L36.59773933920849,-76.75636912289075z" style="fill:rgb(82,237,172)"/><path d="M4.498501892245809,102.30258873963676L-38.39257760251459,-36.79240439552574L-52.733594297253305,-32.84792300896673z" style="fill:rgb(101,71,238)"/><path d="M59.73692134938209,81.76663838965507L17.891518844673875,-62.355555658847905L5.336386186902825,-55.065067118603466z" style="fill:rgb(191,108,236)"/><path d="M44.43520966097951,-93.52190513288421L-23.471889485226786,-41.975274721278666L-8.665118371005308,-48.16283395031307z" style="fill:rgb(82,237,172)"/><path d="M18.36486126204794,99.22500193223334L-23.471889485226786,-41.975274721278666L-38.39257760251459,-36.79240439552574z" style="fill:rgb(124,78,245)"/><path d="M46.63724821418757,88.71824052833746L5.336386186902825,-55.065067118603466L-8.665118371005308,-48.16283395031307z" style="fill:rgb(170,97,243)"/><path d="M44.656886225438,-88.89487308572846L-8.665118371005308,-48.16283395031307L5.336386186902825,-55.065067118603466zM36.59773933920849,-76.75636912289075L17.891518844673875,-62.355555658847905L28.453121179461053,-69.69555589479253z" style="fill:rgb(82,237,172)"/><path d="M32.63048955764905,94.62934949431306L-8.665118371005308,-48.16283395031307L-23.471889485226786,-41.975274721278666z" style="fill:rgb(147,87,246)"/><path d="M42.04438417592319,-83.24043315696352L5.336386186902825,-55.065067118603466L17.891518844673875,-62.355555658847905z" style="fill:rgb(82,237,172)"/></svg>