<svg viewBox="-250 -250 500 500" width="500" height="500" xmlns="http://www.w3.org/2000/svg"><path d="M-31.191754422525147,-95.04770829086132L-37.977270336615284,-90.26969750291012L-27.63119194345476,-70.56943904071113zM-27.63119194345476,-70.56943904071113L-37.977270336615284,-90.26969750291012L-113.60455252488723,-37.018370395902735zM56.944383341283256,-103.34079621128076L-31.191754422525147,-95.04770829086132L-27.63119194345476,-70.56943904071113z" style="fill:rgb(82,237,172)"/><path d="M100.21300336517233,-2.939136721938172L104.31025924129085,37.699929130943985L114.01808185381022,34.520178188518976z" style="fill:rgb(124,78,245)"/><path d="M115.72700782580236,32.88980497916L122.18191601376303,26.73096365733663L74.22256435646248,-104.96658783963665zM114.01808185381022,34.520178188518976L115.72700782580236,32.88980497916L71.21395755549554,-88.19527510980627z" style="fill:rgb(217,127,217)"/><path d="M104.31025924129085,37.699929130943985L41.061723485821844,-88.60057197883707L91.04584350890865,43.288653200919796z" style="fill:rgb(147,87,246)"/><path d="M91.04584350890865,43.288653200919796L27.883235081165083,-82.15236480648545L78.67150705832312,49.792688698705z" style="fill:rgb(170,97,243)"/><path d="M100.21300336517233,-2.939136721938172L55.041655873511324,-94.43550428966932L104.31025924129085,37.699929130943985z" style="fill:rgb(124,78,245)"/><path d="M78.67150705832312,49.792688698705L15.920287140510094,-75.2839645307554L67.58120598797943,57.01658100310266z" style="fill:rgb(191,108,236)"/><path d="M115.72700782580236,32.88980497916L74.22256435646248,-104.96658783963665L71.21395755549554,-88.19527510980627z" style="fill:rgb(217,127,217)"/><path d="M67.58120598797943,57.01658100310266L5.568830020843929,-68.20466518963018L58.14806761407298,64.7423160393942z" style="fill:rgb(209,121,224)"/><path d="M114.01808185381022,34.520178188518976L71.21395755549554,-88.19527510980627L70.4214055017986,-83.7771444013044z" style="fill:rgb(217,127,217)"/><path d="M55.041655873511324,-94.43550428966932L41.061723485821844,-88.60057197883707L104.31025924129085,37.699929130943985z" style="fill:rgb(147,87,246)"/><path d="M41.061723485821844,-88.60057197883707L27.883235081165083,-82.15236480648545L91.04584350890865,43.288653200919796z" style="fill:rgb(170,97,243)"/><path d="M27.883235081165083,-82.15236480648545L15.920287140510094,-75.2839645307554L78.67150705832312,49.792688698705z" style="fill:rgb(191,108,236)"/><path d="M65.18036074892944,-97.99832774004182L55.041655873511324,-94.43550428966932L100.21300336517233,-2.939136721938172z" style="fill:rgb(124,78,245)"/><path d="M58.14806761407298,64.7423160393942L-2.7980014408922993,-61.13756441048578L50.71700747775433,72.72923158127452z" style="fill:rgb(224,133,209)"/><path d="M26.512291351624746,-82.5279875346881L74.22256435646248,-104.96658783963665L56.944383341283256,-103.34079621128076z" style="fill:rgb(82,237,172)"/><path d="M15.920287140510094,-75.2839645307554L5.568830020843929,-68.20466518963018L67.58120598797943,57.01658100310266z" style="fill:rgb(209,121,224)"/><path d="M56.944383341283256,-103.34079621128076L-27.63119194345476,-70.56943904071113L-17.943947119241084,-52.12391078629289z" style="fill:rgb(82,237,172)"/><path d="M71.21395755549554,-88.19527510980627L74.22256435646248,-104.96658783963665L67.0736755088769,-99.45751148940245zM67.0736755088769,-99.45751148940245L70.4214055017986,-83.7771444013044L71.21395755549554,-88.19527510980627z" style="fill:rgb(217,127,217)"/><path d="M26.512291351624746,-82.5279875346881L67.0736755088769,-99.45751148940245L74.22256435646248,-104.96658783963665z" style="fill:rgb(82,237,172)"/><path d="M67.0736755088769,-99.45751148940245L65.18036074892944,-97.99832774004182L70.4214055017986,-83.7771444013044z" style="fill:rgb(217,127,217)"/><path d="M50.71700747775433,72.72923158127452L-8.840707204636526,-54.31920705058555L45.59605865518382,80.71651473901643z" style="fill:rgb(236,146,191)"/><path d="M-69.61674728512963,98.45297696694435L-21.863910994662444,-30.92017431955361L-126.78459564562256,-27.737938060584174z" style="fill:rgb(49,63,205)"/><path d="M65.18036074892944,-97.99832774004182L67.0736755088769,-99.45751148940245L55.041655873511324,-94.43550428966932zM41.061723485821844,-88.60057197883707L33.93088362718816,-85.62434966296327L27.883235081165083,-82.15236480648545z" style="fill:rgb(82,237,172)"/><path d="M5.568830020843929,-68.20466518963018L-2.7980014408922993,-61.13756441048578L58.14806761407298,64.7423160393942z" style="fill:rgb(224,133,209)"/><path d="M33.93088362718816,-85.62434966296327L26.512291351624746,-82.5279875346881L15.920287140510094,-75.2839645307554zM-27.63119194345476,-70.56943904071113L-113.60455252488723,-37.018370395902735L-22.23234033368597,-33.45403935650755zM-22.23234033368597,-33.45403935650755L-113.60455252488723,-37.018370395902735L-126.78459564562256,-27.737938060584174z" style="fill:rgb(82,237,172)"/><path d="M45.59605865518382,80.71651473901643L-12.266011709521676,-47.99488222009536L43.04251010766907,88.42511933364965z" style="fill:rgb(243,157,170)"/><path d="M-2.7980014408922993,-61.13756441048578L-8.840707204636526,-54.31920705058555L50.71700747775433,72.72923158127452z" style="fill:rgb(236,146,191)"/><path d="M35.81485628604721,109.13525307499374L-21.863910994662444,-30.92017431955361L-69.61674728512963,98.45297696694435z" style="fill:rgb(49,63,205)"/><path d="M39.891253985162464,86.4115244552192L38.59883898633048,106.47896160456077L45.40661011993985,99.98347884467488z" style="fill:rgb(217,127,217)"/><path d="M43.04251010766907,88.42511933364965L-12.844431993867918,-42.413541025963895L43.247227261951515,95.5648074308848z" style="fill:rgb(246,167,147)"/><path d="M-8.840707204636526,-54.31920705058555L-12.266011709521676,-47.99488222009536L45.59605865518382,80.71651473901643z" style="fill:rgb(243,157,170)"/><path d="M39.891253985162464,86.4115244552192L36.99331770305764,102.56548138104871L38.59883898633048,106.47896160456077zM36.99331770305764,102.56548138104871L35.81485628604721,109.13525307499374L38.59883898633048,106.47896160456077z" style="fill:rgb(217,127,217)"/><path d="M5.568830020843929,-68.20466518963018L-17.943947119241084,-52.12391078629289L-16.56917279863168,-49.50598010989623zM-2.7980014408922993,-61.13756441048578L-11.681777507667856,-53.63402991765162L-11.977524298326548,-50.779809962172344z" style="fill:rgb(82,237,172)"/><path d="M-12.266011709521676,-47.99488222009536L-12.844431993867918,-42.413541025963895L43.04251010766907,88.42511933364965z" style="fill:rgb(246,167,147)"/><path d="M-8.840707204636526,-54.31920705058555L-11.977524298326548,-50.779809962172344L-12.266011709521676,-47.99488222009536zM-18.75169845391268,-33.31827138814322L-11.14604468673246,-39.17957211112373L-27.63119194345476,-70.56943904071113zM-18.75169845391268,-33.31827138814322L-27.63119194345476,-70.56943904071113L-22.23234033368597,-33.45403935650755z" style="fill:rgb(82,237,172)"/><path d="M39.891253985162464,86.4115244552192L-18.75169845391268,-33.31827138814322L36.99331770305764,102.56548138104871z" style="fill:rgb(217,127,217)"/><path d="M-11.681777507667856,-53.63402991765162L-16.56917279863168,-49.50598010989623L-12.844431993867918,-42.413541025963895zM-22.23234033368597,-33.45403935650755L-126.78459564562256,-27.737938060584174L-21.863910994662444,-30.92017431955361z" style="fill:rgb(82,237,172)"/><path d="M36.99331770305764,102.56548138104871L-21.863910994662444,-30.92017431955361L35.81485628604721,109.13525307499374zM39.891253985162464,86.4115244552192L-11.14604468673246,-39.17957211112373L-18.75169845391268,-33.31827138814322zM36.99331770305764,102.56548138104871L-18.75169845391268,-33.31827138814322L-21.863910994662444,-30.92017431955361z" style="fill:rgb(217,127,217)"/><path d="M-22.23234033368597,-33.45403935650755L-21.863910994662444,-30.92017431955361L-18.75169845391268,-33.31827138814322z" style="fill:rgb(82,237,172)"/></svg>