<svg viewBox="-250 -250 500 500" width="500" height="500" xmlns="http://www.w3.org/2000/svg"><path d="M27.812422712146102,-10.539188607296387L-26.209702491831056,-147.05855055313077L27.811440207605553,-8.323610781841701z" style="fill:rgb(246,167,147)"/><path d="M-25.094980755500995,13.860592182993214L-82.33094007408648,-122.29493906750989L-26.926364637479203,12.41025119948738z" style="fill:rgb(16,71,153)"/><path d="M27.811440207605553,-8.323610781841701L-26.50674604315106,-145.47227733925968L26.728674500994142,-5.7617402448860435z" style="fill:rgb(243,157,170)"/><path d="M-22.267946705714134,14.785750184771524L-79.64396040662213,-122.01598116756642L-25.094980755500995,13.860592182993214z" style="fill:rgb(26,66,176)"/><path d="M26.728674500994142,-5.7617402448860435L-27.931109779297188,-143.48816773131824L24.59152980347645,-2.950566052372351z" style="fill:rgb(236,146,191)"/><path d="M-18.543766176756534,15.140981552848011L-75.9812955237098,-122.26921884059064L-22.267946705714134,14.785750184771524z" style="fill:rgb(40,64,196)"/><path d="M24.59152980347645,-2.950566052372351L-30.44371151475426,-141.17881677885507L21.471679577693298,0z" style="fill:rgb(224,133,209)"/><path d="M-14.06170112336749,14.904816633099273L-71.47843577103933,-123.05200508681494L-18.543766176756534,15.140981552848011z" style="fill:rgb(58,64,214)"/><path d="M21.471679577693298,0L-33.95810830660226,-138.6333492058796L17.485372165015693,2.971188161598382z" style="fill:rgb(209,121,224)"/><path d="M-26.926364637479203,12.41025119948738L-82.33094007408648,-122.29493906750989L-83.95099910819896,-123.08742311277247z" style="fill:rgb(16,71,153)"/><path d="M27.811440207605553,-8.323610781841701L-26.209702491831056,-147.05855055313077L-26.50674604315106,-145.47227733925968z" style="fill:rgb(246,167,147)"/><path d="M-33.95810830660226,-138.6333492058796L-55.92162698198953,-142.75421900794154L-61.439005005057645,-140.46480380220413zM-33.95810830660226,-138.6333492058796L-50.38021643665741,-144.78075533450618L-55.92162698198953,-142.75421900794154z" style="fill:rgb(82,237,172)"/><path d="M-8.996623900806915,14.080161343098675L-66.3101510005113,-124.33797731234134L-14.06170112336749,14.904816633099273z" style="fill:rgb(78,66,228)"/><path d="M-33.95810830660226,-138.6333492058796L-61.439005005057645,-140.46480380220413L-66.73739505320559,-137.99351936214623zM-33.95810830660226,-138.6333492058796L-45.01097072800642,-146.47207185126337L-50.38021643665741,-144.78075533450618z" style="fill:rgb(82,237,172)"/><path d="M17.485372165015693,2.971188161598382L-38.34281701861651,-135.95292910641885L12.788539802956926,5.8409041819517995z" style="fill:rgb(191,108,236)"/><path d="M-33.95810830660226,-138.6333492058796L-66.73739505320559,-137.99351936214623L-71.6281339147746,-135.42703521856384z" style="fill:rgb(82,237,172)"/><path d="M-3.552318891335172,12.696211556276056L-60.68471418712368,-126.07871724192876L-8.996623900806915,14.080161343098675z" style="fill:rgb(101,71,238)"/><path d="M-33.95810830660226,-138.6333492058796L-40.006239813503086,-147.76599627906725L-45.01097072800642,-146.47207185126337z" style="fill:rgb(82,237,172)"/><path d="M12.788539802956926,5.8409041819517995L-43.425180415685084,-133.24694912912713L7.570972985369814,8.489838237929558z" style="fill:rgb(170,97,243)"/><path d="M-33.95810830660226,-138.6333492058796L-71.6281339147746,-135.42703521856384L-75.93397631391034,-132.85665002339562z" style="fill:rgb(82,237,172)"/><path d="M2.0475294497936867,10.807109391925248L-54.83304756424082,-128.20453917888037L-3.552318891335172,12.696211556276056z" style="fill:rgb(124,78,245)"/><path d="M7.570972985369814,8.489838237929558L-48.99878948938964,-130.62754761268124L2.0475294497936867,10.807109391925248z" style="fill:rgb(147,87,246)"/><path d="M-25.094980755500995,13.860592182993214L-79.64396040662213,-122.01598116756642L-82.33094007408648,-122.29493906750989z" style="fill:rgb(26,66,176)"/><path d="M26.728674500994142,-5.7617402448860435L-26.50674604315106,-145.47227733925968L-27.931109779297188,-143.48816773131824z" style="fill:rgb(243,157,170)"/><path d="M-33.95810830660226,-138.6333492058796L-35.54899415497515,-148.61244477979332L-40.006239813503086,-147.76599627906725zM-33.95810830660226,-138.6333492058796L-75.93397631391034,-132.85665002339562L-79.49422852320241,-130.37490853292084zM-33.95810830660226,-138.6333492058796L-31.807256638388516,-148.97593165136007L-35.54899415497515,-148.61244477979332zM-33.95810830660226,-138.6333492058796L-79.49422852320241,-130.37490853292084L-82.17036961107496,-128.0734052024142z" style="fill:rgb(82,237,172)"/><path d="M-22.267946705714134,14.785750184771524L-75.9812955237098,-122.26921884059064L-79.64396040662213,-122.01598116756642z" style="fill:rgb(40,64,196)"/><path d="M24.59152980347645,-2.950566052372351L-27.931109779297188,-143.48816773131824L-30.44371151475426,-141.17881677885507z" style="fill:rgb(236,146,191)"/><path d="M-33.95810830660226,-138.6333492058796L-28.928596440605464,-148.83640553406826L-31.807256638388516,-148.97593165136007zM-33.95810830660226,-138.6333492058796L-82.17036961107496,-128.0734052024142L-83.85103064562256,-126.03967821396748z" style="fill:rgb(82,237,172)"/><path d="M-18.543766176756534,15.140981552848011L-71.47843577103933,-123.05200508681494L-75.9812955237098,-122.26921884059064z" style="fill:rgb(58,64,214)"/><path d="M21.471679577693298,0L-30.44371151475426,-141.17881677885507L-33.95810830660226,-138.6333492058796z" style="fill:rgb(224,133,209)"/><path d="M-33.95810830660226,-138.6333492058796L-27.033467723692585,-148.19180322071773L-28.928596440605464,-148.83640553406826zM-33.95810830660226,-138.6333492058796L-83.85103064562256,-126.03967821396748L-84.45811921362332,-124.35446329041024z" style="fill:rgb(82,237,172)"/><path d="M-14.06170112336749,14.904816633099273L-66.3101510005113,-124.33797731234134L-71.47843577103933,-123.05200508681494z" style="fill:rgb(78,66,228)"/><path d="M17.485372165015693,2.971188161598382L-33.95810830660226,-138.6333492058796L-38.34281701861651,-135.95292910641885z" style="fill:rgb(209,121,224)"/><path d="M-33.95810830660226,-138.6333492058796L-26.209702491831056,-147.05855055313077L-27.033467723692585,-148.19180322071773zM-33.95810830660226,-138.6333492058796L-84.45811921362332,-124.35446329041024L-83.95099910819896,-123.08742311277247z" style="fill:rgb(82,237,172)"/><path d="M-8.996623900806915,14.080161343098675L-60.68471418712368,-126.07871724192876L-66.3101510005113,-124.33797731234134z" style="fill:rgb(101,71,238)"/><path d="M12.788539802956926,5.8409041819517995L-38.34281701861651,-135.95292910641885L-43.425180415685084,-133.24694912912713z" style="fill:rgb(191,108,236)"/><path d="M-33.95810830660226,-138.6333492058796L-26.50674604315106,-145.47227733925968L-26.209702491831056,-147.05855055313077z" style="fill:rgb(82,237,172)"/><path d="M-3.552318891335172,12.696211556276056L-54.83304756424082,-128.20453917888037L-60.68471418712368,-126.07871724192876z" style="fill:rgb(124,78,245)"/><path d="M7.570972985369814,8.489838237929558L-43.425180415685084,-133.24694912912713L-48.99878948938964,-130.62754761268124z" style="fill:rgb(170,97,243)"/><path d="M2.0475294497936867,10.807109391925248L-48.99878948938964,-130.62754761268124L-54.83304756424082,-128.20453917888037z" style="fill:rgb(147,87,246)"/><path d="M-33.95810830660226,-138.6333492058796L-83.95099910819896,-123.08742311277247L-82.33094007408648,-122.29493906750989zM-33.95810830660226,-138.6333492058796L-27.931109779297188,-143.48816773131824L-26.50674604315106,-145.47227733925968zM-33.95810830660226,-138.6333492058796L-82.33094007408648,-122.29493906750989L-79.64396040662213,-122.01598116756642zM-33.95810830660226,-138.6333492058796L-30.44371151475426,-141.17881677885507L-27.931109779297188,-143.48816773131824zM-33.95810830660226,-138.6333492058796L-79.64396040662213,-122.01598116756642L-75.9812955237098,-122.26921884059064zM-33.95810830660226,-138.6333492058796L-75.9812955237098,-122.26921884059064L-71.47843577103933,-123.05200508681494zM-33.95810830660226,-138.6333492058796L-71.47843577103933,-123.05200508681494L-66.3101510005113,-124.33797731234134zM-33.95810830660226,-138.6333492058796L-43.425180415685084,-133.24694912912713L-38.34281701861651,-135.95292910641885zM-33.95810830660226,-138.6333492058796L-66.3101510005113,-124.33797731234134L-60.68471418712368,-126.07871724192876zM-33.95810830660226,-138.6333492058796L-48.99878948938964,-130.62754761268124L-43.425180415685084,-133.24694912912713zM-33.95810830660226,-138.6333492058796L-60.68471418712368,-126.07871724192876L-54.83304756424082,-128.20453917888037zM-33.95810830660226,-138.6333492058796L-54.83304756424082,-128.20453917888037L-48.99878948938964,-130.62754761268124z" style="fill:rgb(82,237,172)"/></svg>