<svg viewBox="-250 -250 500 500" width="500" height="500" xmlns="http://www.w3.org/2000/svg"><path d="M-225.22378172341539,10.083211827249658L-163.64206753045394,133.61317455667165L-69.09948987003258,148.0057698746886z" style="fill:rgb(49,63,205)"/><path d="M138.72729606777162,-84.02876477982139L-122.22696943465743,-59.87881651288399L-225.22378172341539,10.083211827249658zM138.72729606777162,-84.02876477982139L97.4628350510293,-106.57244237765198L-122.22696943465743,-59.87881651288399z" style="fill:rgb(82,237,172)"/><path d="M-225.22378172341539,10.083211827249658L-69.09948987003258,148.0057698746886L-132.31045713787526,11.231188106022461z" style="fill:rgb(49,63,205)"/><path d="M138.72729606777162,-84.02876477982139L110.27577893826438,-108.35898708299648L97.4628350510293,-106.57244237765198zM138.72729606777162,-84.02876477982139L-225.22378172341539,10.083211827249658L-132.31045713787526,11.231188106022461zM138.72729606777162,-84.02876477982139L121.67288444327622,-108.8381186980202L110.27577893826438,-108.35898708299648z" style="fill:rgb(82,237,172)"/><path d="M143.37370294142843,-91.02603576856595L192.96633833326453,54.87399651382149L193.67266364252706,47.211906046642916z" style="fill:rgb(243,157,170)"/><path d="M138.72729606777162,-84.02876477982139L131.21379918085788,-107.94837382441976L121.67288444327622,-108.8381186980202z" style="fill:rgb(82,237,172)"/><path d="M138.72729606777162,-84.02876477982139L189.1878958492778,63.269226755472346L192.96633833326453,54.87399651382149z" style="fill:rgb(236,146,191)"/><path d="M138.72729606777162,-84.02876477982139L138.48451500038294,-105.66753444890382L131.21379918085788,-107.94837382441976z" style="fill:rgb(82,237,172)"/><path d="M143.37370294142843,-91.02603576856595L193.67266364252706,47.211906046642916L144.8128991765976,-97.09329876087628z" style="fill:rgb(243,157,170)"/><path d="M138.72729606777162,-84.02876477982139L182.38943615942884,72.0582518024938L189.1878958492778,63.269226755472346z" style="fill:rgb(224,133,209)"/><path d="M59.31531435188833,-40.3768017505687L-132.31045713787526,11.231188106022461L-69.09948987003258,148.0057698746886z" style="fill:rgb(101,71,239)"/><path d="M138.72729606777162,-84.02876477982139L143.11674828877287,-102.02185043807498L138.48451500038294,-105.66753444890382z" style="fill:rgb(82,237,172)"/><path d="M59.31531435188833,-40.3768017505687L-69.09948987003258,148.0057698746886L115.67696299718855,108.33690736744583z" style="fill:rgb(101,71,239)"/><path d="M138.72729606777162,-84.02876477982139L192.96633833326453,54.87399651382149L143.37370294142843,-91.02603576856595z" style="fill:rgb(236,146,191)"/><path d="M138.72729606777162,-84.02876477982139L144.8128991765976,-97.09329876087628L143.11674828877287,-102.02185043807498z" style="fill:rgb(82,237,172)"/><path d="M120.29784054320075,-68.38415580048093L172.7802021695476,80.85855527602487L182.38943615942884,72.0582518024938z" style="fill:rgb(209,121,224)"/><path d="M120.29784054320075,-68.38415580048093L160.7303092106251,89.26658270091639L172.7802021695476,80.85855527602487z" style="fill:rgb(191,108,236)"/><path d="M138.72729606777162,-84.02876477982139L143.37370294142843,-91.02603576856595L144.8128991765976,-97.09329876087628z" style="fill:rgb(82,237,172)"/><path d="M138.72729606777162,-84.02876477982139L130.9529664372921,-76.37338612819245L182.38943615942884,72.0582518024938z" style="fill:rgb(224,133,209)"/><path d="M160.7303092106251,89.26658270091639L92.16600784639675,-52.86554824871128L146.7580414597625,96.88263758545374z" style="fill:rgb(170,97,243)"/><path d="M75.95498292438,-46.0755426151944L115.67696299718855,108.33690736744583L131.50153240123336,103.34115015688384z" style="fill:rgb(124,78,245)"/><path d="M75.95498292438,-46.0755426151944L131.50153240123336,103.34115015688384L146.7580414597625,96.88263758545374z" style="fill:rgb(147,87,246)"/><path d="M120.29784054320075,-68.38415580048093L182.38943615942884,72.0582518024938L130.9529664372921,-76.37338612819245z" style="fill:rgb(209,121,224)"/><path d="M138.72729606777162,-84.02876477982139L-132.31045713787526,11.231188106022461L59.31531435188833,-40.3768017505687z" style="fill:rgb(82,237,172)"/><path d="M120.29784054320075,-68.38415580048093L107.17825226156374,-60.42298854711886L160.7303092106251,89.26658270091639z" style="fill:rgb(191,108,236)"/><path d="M160.7303092106251,89.26658270091639L107.17825226156374,-60.42298854711886L92.16600784639675,-52.86554824871128z" style="fill:rgb(170,97,243)"/><path d="M75.95498292438,-46.0755426151944L59.31531435188833,-40.3768017505687L115.67696299718855,108.33690736744583z" style="fill:rgb(124,78,245)"/><path d="M138.72729606777162,-84.02876477982139L120.29784054320075,-68.38415580048093L130.9529664372921,-76.37338612819245z" style="fill:rgb(82,237,172)"/><path d="M75.95498292438,-46.0755426151944L146.7580414597625,96.88263758545374L92.16600784639675,-52.86554824871128z" style="fill:rgb(147,87,246)"/><path d="M138.72729606777162,-84.02876477982139L107.17825226156374,-60.42298854711886L120.29784054320075,-68.38415580048093zM138.72729606777162,-84.02876477982139L92.16600784639675,-52.86554824871128L107.17825226156374,-60.42298854711886zM138.72729606777162,-84.02876477982139L59.31531435188833,-40.3768017505687L75.95498292438,-46.0755426151944zM138.72729606777162,-84.02876477982139L75.95498292438,-46.0755426151944L92.16600784639675,-52.86554824871128z" style="fill:rgb(82,237,172)"/></svg>