<svg viewBox="-250 -250 500 500" width="500" height="500" xmlns="http://www.w3.org/2000/svg"><path d="M114.01808185381022,34.520178188518976L70.4214055017986,-83.7771444013044L39.891253985162464,86.4115244552192zM114.01808185381022,34.520178188518976L39.891253985162464,86.4115244552192L45.40661011993985,99.98347884467488z" style="fill:rgb(217,127,217)"/><path d="M65.18036074892944,-97.99832774004182L55.041655873511324,-94.43550428966932L41.061723485821844,-88.60057197883707zM65.18036074892944,-97.99832774004182L41.061723485821844,-88.60057197883707L27.883235081165083,-82.15236480648545zM65.18036074892944,-97.99832774004182L27.883235081165083,-82.15236480648545L15.920287140510094,-75.2839645307554z" style="fill:rgb(82,237,172)"/><path d="M65.18036074892944,-97.99832774004182L39.891253985162464,86.4115244552192L70.4214055017986,-83.7771444013044z" style="fill:rgb(217,127,217)"/><path d="M65.18036074892944,-97.99832774004182L15.920287140510094,-75.2839645307554L5.568830020843929,-68.20466518963018zM65.18036074892944,-97.99832774004182L5.568830020843929,-68.20466518963018L-2.7980014408922993,-61.13756441048578zM65.18036074892944,-97.99832774004182L-2.7980014408922993,-61.13756441048578L-8.840707204636526,-54.31920705058555zM65.18036074892944,-97.99832774004182L-8.840707204636526,-54.31920705058555L-12.266011709521676,-47.99488222009536z" style="fill:rgb(82,237,172)"/><path d="M43.247227261951515,95.5648074308848L45.40661011993985,99.98347884467488L6.08961662247453,3.2330884729023834z" style="fill:rgb(9,78,130)"/><path d="M65.18036074892944,-97.99832774004182L-11.14604468673246,-39.17957211112373L39.891253985162464,86.4115244552192z" style="fill:rgb(217,127,217)"/><path d="M65.18036074892944,-97.99832774004182L-12.266011709521676,-47.99488222009536L-12.844431993867918,-42.413541025963895z" style="fill:rgb(82,237,172)"/><path d="M-12.844431993867918,-42.413541025963895L43.247227261951515,95.5648074308848L6.08961662247453,3.2330884729023834z" style="fill:rgb(9,78,130)"/><path d="M65.18036074892944,-97.99832774004182L-12.844431993867918,-42.413541025963895L-11.14604468673246,-39.17957211112373z" style="fill:rgb(82,237,172)"/><path d="M-12.844431993867918,-42.413541025963895L6.08961662247453,3.2330884729023834L-11.14604468673246,-39.17957211112373z" style="fill:rgb(9,78,130)"/></svg>