<svg viewBox="-250 -250 500 500" width="500" height="500" xmlns="http://www.w3.org/2000/svg"><path d="M-147.764117824004,-74.78666514863959L-140.3422029556002,-78.02320336685622L-152.6907630761909,-92.74513033303904z" style="fill:rgb(202,192,207)"/><path d="M-159.4401630869251,-89.06605247684092L-152.6907630761909,-92.74513033303904L-160.5000132368086,-105.99588236928979z" style="fill:rgb(225,164,200)"/><path d="M-157.89808931076294,-59.48292972496291L-173.8619202558335,-77.98583574963148L-173.67721411101417,-76.794368560942z" style="fill:rgb(33,43,147)"/><path d="M-147.764117824004,-74.78666514863959L-152.6907630761909,-92.74513033303904L-159.4401630869251,-89.06605247684092z" style="fill:rgb(206,192,203)"/><path d="M-132.22904404508836,-60.80946289978572L-123.9061624442207,-63.81810689753589L-140.3422029556002,-78.02320336685622z" style="fill:rgb(176,213,207)"/><path d="M-132.22904404508836,-60.80946289978572L-140.3422029556002,-78.02320336685622L-147.764117824004,-74.78666514863959z" style="fill:rgb(183,214,202)"/><path d="M-173.67721411101417,-76.794368560942L-183.39334546215548,-93.89122220477604L-184.70172270142893,-95.12470833125093z" style="fill:rgb(20,61,148)"/><path d="M-159.4401630869251,-89.06605247684092L-160.5000132368086,-105.99588236928979L-166.63080164726742,-101.25925918598931z" style="fill:rgb(225,164,200)"/><path d="M-166.63080164726742,-101.25925918598931L-160.5000132368086,-105.99588236928979L-161.53331125003,-115.44423478030424z" style="fill:rgb(244,94,166)"/><path d="M-157.89808931076294,-59.48292972496291L-159.6806158016592,-61.827964733172216L-173.8619202558335,-77.98583574963148z" style="fill:rgb(32,44,140)"/><path d="M-173.67721411101417,-76.794368560942L-173.8619202558335,-77.98583574963148L-183.39334546215548,-93.89122220477604z" style="fill:rgb(20,61,148)"/><path d="M-137.0838888318701,-43.453017294260626L-159.6806158016592,-61.827964733172216L-157.89808931076294,-59.48292972496291z" style="fill:rgb(47,30,146)"/><path d="M-156.13038619139806,-67.7057170098857L-147.764117824004,-74.78666514863959L-159.4401630869251,-89.06605247684092z" style="fill:rgb(167,160,243)"/><path d="M-168.63843536964674,-82.62776623881575L-159.4401630869251,-89.06605247684092L-166.63080164726742,-101.25925918598931z" style="fill:rgb(184,130,241)"/><path d="M-159.6806158016592,-61.827964733172216L-168.63843536964674,-82.62776623881575L-173.8619202558335,-77.98583574963148z" style="fill:rgb(85,98,244)"/><path d="M-156.13038619139806,-67.7057170098857L-159.4401630869251,-89.06605247684092L-168.63843536964674,-82.62776623881575z" style="fill:rgb(163,160,245)"/><path d="M-159.6806158016592,-61.827964733172216L-156.13038619139806,-67.7057170098857L-168.63843536964674,-82.62776623881575z" style="fill:rgb(92,100,247)"/><path d="M-173.8619202558335,-77.98583574963148L-168.63843536964674,-82.62776623881575L-176.6027598459773,-96.02405895184498z" style="fill:rgb(98,82,243)"/><path d="M-166.63080164726742,-101.25925918598931L-161.53331125003,-115.44423478030424L-167.2825794237318,-109.50782059987455z" style="fill:rgb(245,92,160)"/><path d="M-173.8619202558335,-77.98583574963148L-176.6027598459773,-96.02405895184498L-183.39334546215548,-93.89122220477604z" style="fill:rgb(98,82,242)"/><path d="M-139.5538775183823,-53.25736665584508L-132.22904404508836,-60.80946289978572L-147.764117824004,-74.78666514863959z" style="fill:rgb(149,187,237)"/><path d="M-139.5538775183823,-53.25736665584508L-147.764117824004,-74.78666514863959L-156.13038619139806,-67.7057170098857z" style="fill:rgb(142,185,240)"/><path d="M-168.63843536964674,-82.62776623881575L-166.63080164726742,-101.25925918598931L-176.6027598459773,-96.02405895184498z" style="fill:rgb(184,130,241)"/><path d="M-113.29233956202042,-49.480215748015446L-123.9061624442207,-63.81810689753589L-132.22904404508836,-60.80946289978572z" style="fill:rgb(154,232,195)"/><path d="M-140.9535598767165,-46.547171203947435L-156.13038619139806,-67.7057170098857L-159.6806158016592,-61.827964733172216z" style="fill:rgb(75,113,243)"/><path d="M-184.70172270142893,-95.12470833125093L-183.39334546215548,-93.89122220477604L-185.57814449100857,-106.11117162292861z" style="fill:rgb(8,94,161)"/><path d="M-113.29233956202042,-49.480215748015446L-103.65415798563052,-52.08801665936054L-123.9061624442207,-63.81810689753589z" style="fill:rgb(150,231,197)"/><path d="M-184.70172270142893,-95.12470833125093L-185.57814449100857,-106.11117162292861L-187.85978459626395,-110.01210584804734z" style="fill:rgb(11,89,164)"/><path d="M-176.6027598459773,-96.02405895184498L-166.63080164726742,-101.25925918598931L-167.2825794237318,-109.50782059987455z" style="fill:rgb(206,59,200)"/><path d="M-140.9535598767165,-46.547171203947435L-139.5538775183823,-53.25736665584508L-156.13038619139806,-67.7057170098857z" style="fill:rgb(87,123,248)"/><path d="M-183.39334546215548,-93.89122220477604L-176.6027598459773,-96.02405895184498L-177.76270503161473,-105.53008405544601z" style="fill:rgb(113,46,225)"/><path d="M-176.6027598459773,-96.02405895184498L-167.2825794237318,-109.50782059987455L-177.76270503161473,-105.53008405544601z" style="fill:rgb(203,61,206)"/><path d="M-110.71357285484888,-28.99189538478932L-140.9535598767165,-46.547171203947435L-137.0838888318701,-43.453017294260626z" style="fill:rgb(60,20,145)"/><path d="M-183.39334546215548,-93.89122220477604L-177.76270503161473,-105.53008405544601L-185.57814449100857,-106.11117162292861z" style="fill:rgb(105,50,226)"/><path d="M-119.20148507575021,-41.25021052267981L-132.22904404508836,-60.80946289978572L-139.5538775183823,-53.25736665584508z" style="fill:rgb(119,205,227)"/><path d="M-119.20148507575021,-41.25021052267981L-113.29233956202042,-49.480215748015446L-132.22904404508836,-60.80946289978572z" style="fill:rgb(123,207,226)"/><path d="M-117.57472885292776,-33.26864632639927L-139.5538775183823,-53.25736665584508L-140.9535598767165,-46.547171203947435z" style="fill:rgb(66,128,239)"/><path d="M-177.76270503161473,-105.53008405544601L-167.2825794237318,-109.50782059987455L-160.46341561295606,-114.71646893883963z" style="fill:rgb(181,11,126)"/><path d="M-187.85978459626395,-110.01210584804734L-185.57814449100857,-106.11117162292861L-178.53487398708938,-113.5422368126648z" style="fill:rgb(19,136,195)"/><path d="M-110.71357285484888,-28.99189538478932L-117.57472885292776,-33.26864632639927L-140.9535598767165,-46.547171203947435z" style="fill:rgb(62,18,137)"/><path d="M-117.57472885292776,-33.26864632639927L-119.20148507575021,-41.25021052267981L-139.5538775183823,-53.25736665584508z" style="fill:rgb(72,136,241)"/><path d="M-185.57814449100857,-106.11117162292861L-177.76270503161473,-105.53008405544601L-170.895800627641,-111.41969798172983z" style="fill:rgb(109,13,181)"/><path d="M-187.85978459626395,-110.01210584804734L-178.53487398708938,-113.5422368126648L-180.61238434283297,-118.9986550180984z" style="fill:rgb(19,125,196)"/><path d="M-177.76270503161473,-105.53008405544601L-160.46341561295606,-114.71646893883963L-170.895800627641,-111.41969798172983z" style="fill:rgb(179,11,132)"/><path d="M-185.57814449100857,-106.11117162292861L-170.895800627641,-111.41969798172983L-178.53487398708938,-113.5422368126648z" style="fill:rgb(101,19,189)"/><path d="M-174.5447631384623,-125.63929499043577L-180.61238434283297,-118.9986550180984L-163.51138501238043,-124.41718886336085z" style="fill:rgb(59,222,177)"/><path d="M-180.61238434283297,-118.9986550180984L-178.53487398708938,-113.5422368126648L-162.85466162139022,-118.0845831148055z" style="fill:rgb(33,143,211)"/><path d="M-178.53487398708938,-113.5422368126648L-170.895800627641,-111.41969798172983L-156.61734693793522,-115.14968287820578z" style="fill:rgb(97,9,166)"/><path d="M-174.5447631384623,-125.63929499043577L-163.51138501238043,-124.41718886336085L-156.74330352998322,-131.52602058372514z" style="fill:rgb(58,221,178)"/><path d="M-180.61238434283297,-118.9986550180984L-162.85466162139022,-118.0845831148055L-163.51138501238043,-124.41718886336085z" style="fill:rgb(32,139,211)"/><path d="M-178.53487398708938,-113.5422368126648L-156.61734693793522,-115.14968287820578L-162.85466162139022,-118.0845831148055z" style="fill:rgb(95,11,169)"/><path d="M-146.977435897851,-134.37757823722163L-156.74330352998322,-131.52602058372514L-128.61679975001542,-136.19688584137313z" style="fill:rgb(98,248,155)"/><path d="M-156.74330352998322,-131.52602058372514L-163.51138501238043,-124.41718886336085L-136.70428141209652,-128.66750183664368z" style="fill:rgb(66,222,186)"/><path d="M-162.85466162139022,-118.0845831148055L-156.61734693793522,-115.14968287820578L-135.32226595988007,-118.20020026823238z" style="fill:rgb(92,10,163)"/><path d="M-146.977435897851,-134.37757823722163L-128.61679975001542,-136.19688584137313L-120.04552448286383,-138.87141919714455z" style="fill:rgb(98,248,154)"/><path d="M-163.51138501238043,-124.41718886336085L-162.85466162139022,-118.0845831148055L-138.82213206832716,-121.6796827741448z" style="fill:rgb(37,141,216)"/><path d="M-64.0799805277954,-183.43950327321681L-96.80356819981574,-163.89662168586472L-62.178468642115746,-178.96575066129176z" style="fill:rgb(169,64,230)"/><path d="M-64.73517169794704,-185.32769263485162L-98.33056580408432,-168.55553375630254L-64.0799805277954,-183.43950327321681z" style="fill:rgb(119,176,244)"/><path d="M-64.0799805277954,-183.43950327321681L-98.33056580408432,-168.55553375630254L-96.80356819981574,-163.89662168586472z" style="fill:rgb(169,64,230)"/><path d="M-156.74330352998322,-131.52602058372514L-136.70428141209652,-128.66750183664368L-128.61679975001542,-136.19688584137313z" style="fill:rgb(66,222,186)"/><path d="M-29.524852802914808,-195.61170717982546L-64.0799805277954,-183.43950327321681L-62.178468642115746,-178.96575066129176z" style="fill:rgb(124,47,226)"/><path d="M-64.73517169794704,-185.32769263485162L-99.5226303776305,-170.21957629665553L-98.33056580408432,-168.55553375630254z" style="fill:rgb(119,176,244)"/><path d="M-29.6446155187064,-197.7078585769515L-64.73517169794704,-185.32769263485162L-64.0799805277954,-183.43950327321681z" style="fill:rgb(86,163,242)"/><path d="M-162.85466162139022,-118.0845831148055L-135.32226595988007,-118.20020026823238L-138.82213206832716,-121.6796827741448z" style="fill:rgb(91,10,164)"/><path d="M-29.524852802914808,-195.61170717982546L-62.178468642115746,-178.96575066129176L-27.21842068375544,-191.23381606760296z" style="fill:rgb(124,47,226)"/><path d="M-163.51138501238043,-124.41718886336085L-138.82213206832716,-121.6796827741448L-136.70428141209652,-128.66750183664368z" style="fill:rgb(37,141,216)"/><path d="M-29.6446155187064,-197.7078585769515L-64.0799805277954,-183.43950327321681L-29.524852802914808,-195.61170717982546z" style="fill:rgb(86,163,242)"/><path d="M-98.33056580408432,-168.55553375630254L-128.51072430237537,-146.94268131182682L-96.80356819981574,-163.89662168586472z" style="fill:rgb(209,87,215)"/><path d="M-99.5226303776305,-170.21957629665553L-129.70837914370205,-151.87558320463688L-98.33056580408432,-168.55553375630254z" style="fill:rgb(150,193,234)"/><path d="M-98.33056580408432,-168.55553375630254L-129.70837914370205,-151.87558320463688L-128.51072430237537,-146.94268131182682z" style="fill:rgb(209,87,215)"/><path d="M2.728997106017292,-203.9133784342801L-29.524852802914808,-195.61170717982546L-27.21842068375544,-191.23381606760296z" style="fill:rgb(81,38,206)"/><path d="M-99.5226303776305,-170.21957629665553L-131.42026171202806,-153.30505012292875L-129.70837914370205,-151.87558320463688z" style="fill:rgb(150,193,234)"/><path d="M3.1236282028213234,-206.19027092290304L-29.6446155187064,-197.7078585769515L-29.524852802914808,-195.61170717982546z" style="fill:rgb(53,156,227)"/><path d="M2.728997106017292,-203.9133784342801L-27.21842068375544,-191.23381606760296L5.458097300580903,-199.53172333508584z" style="fill:rgb(81,38,206)"/><path d="M3.1236282028213234,-206.19027092290304L-29.524852802914808,-195.61170717982546L2.728997106017292,-203.9133784342801z" style="fill:rgb(53,156,227)"/><path d="M-35.0157153300347,-191.7330381885582L-64.34917648661109,-181.41493708534395L-65.79621960356376,-180.86349808744998z" style="fill:rgb(85,245,150)"/><path d="M-129.70837914370205,-151.87558320463688L-151.70767950979334,-130.78704838061097L-128.51072430237537,-146.94268131182682z" style="fill:rgb(239,111,186)"/><path d="M-131.42026171202806,-153.30505012292875L-152.67174687178576,-136.0514315701316L-129.70837914370205,-151.87558320463688z" style="fill:rgb(172,211,211)"/><path d="M-93.44798371341224,-168.76299175929853L-119.95983815358203,-154.63346117868608L-106.22433549463005,-161.39573557252334z" style="fill:rgb(69,238,152)"/><path d="M-35.0157153300347,-191.7330381885582L-65.79621960356376,-180.86349808744998L-44.42583244558348,-188.38026781634582z" style="fill:rgb(85,245,150)"/><path d="M-7.829884951422248,-198.6835828116498L-35.0157153300347,-191.7330381885582L-44.42583244558348,-188.38026781634582z" style="fill:rgb(93,247,154)"/><path d="M-93.44798371341224,-168.76299175929853L-106.22433549463005,-161.39573557252334L-87.03070814772428,-171.63098864988706z" style="fill:rgb(69,238,152)"/><path d="M-129.70837914370205,-151.87558320463688L-152.67174687178576,-136.0514315701316L-151.70767950979334,-130.78704838061097z" style="fill:rgb(239,111,186)"/><path d="M26.88042434337174,-206.51656112193055L2.728997106017292,-203.9133784342801L5.458097300580903,-199.53172333508584z" style="fill:rgb(48,38,173)"/><path d="M-131.42026171202806,-153.30505012292875L-154.81005246730805,-137.2647392211048L-152.67174687178576,-136.0514315701316z" style="fill:rgb(172,211,211)"/><path d="M27.68798786736027,-208.9120960252658L3.1236282028213234,-206.19027092290304L2.728997106017292,-203.9133784342801z" style="fill:rgb(27,156,201)"/><path d="M-7.829884951422248,-198.6835828116498L-44.42583244558348,-188.38026781634582L-24.84308150621379,-193.3738975330806z" style="fill:rgb(93,247,154)"/><path d="M-65.79621960356376,-180.86349808744998L-87.03070814772428,-171.63098864988706L-79.36619010812146,-174.56318269348787z" style="fill:rgb(77,242,152)"/><path d="M-44.42583244558348,-188.38026781634582L-65.79621960356376,-180.86349808744998L-67.32001849698209,-179.8013156815296z" style="fill:rgb(85,245,152)"/><path d="M26.88042434337174,-206.51656112193055L5.458097300580903,-199.53172333508584L29.986073273784307,-202.0210789834161z" style="fill:rgb(48,38,173)"/><path d="M-119.95983815358203,-154.63346117868608L-119.78608053298532,-151.93147066357113L-106.22433549463005,-161.39573557252334z" style="fill:rgb(64,233,158)"/><path d="M27.68798786736027,-208.9120960252658L2.728997106017292,-203.9133784342801L26.88042434337174,-206.51656112193055z" style="fill:rgb(27,156,201)"/><path d="M-119.95983815358203,-154.63346117868608L-139.08902751034745,-141.35372458148652L-119.78608053298532,-151.93147066357113z" style="fill:rgb(64,233,158)"/><path d="M-87.03070814772428,-171.63098864988706L-106.22433549463005,-161.39573557252334L-90.15320056101203,-168.80369489717742z" style="fill:rgb(70,238,154)"/><path d="M12.212146398970939,-200.73140650075695L-7.829884951422248,-198.6835828116498L-24.84308150621379,-193.3738975330806z" style="fill:rgb(100,247,161)"/><path d="M-24.84308150621379,-193.3738975330806L-44.42583244558348,-188.38026781634582L-55.219658868468635,-184.05582108490708z" style="fill:rgb(92,246,156)"/><path d="M-65.79621960356376,-180.86349808744998L-79.36619010812146,-174.56318269348787L-67.32001849698209,-179.8013156815296z" style="fill:rgb(77,242,152)"/><path d="M-44.42583244558348,-188.38026781634582L-67.32001849698209,-179.8013156815296L-55.219658868468635,-184.05582108490708z" style="fill:rgb(85,245,152)"/><path d="M-87.03070814772428,-171.63098864988706L-90.15320056101203,-168.80369489717742L-79.36619010812146,-174.56318269348787z" style="fill:rgb(70,238,154)"/><path d="M-152.67174687178576,-136.0514315701316L-161.9242444075659,-118.28941434111255L-151.70767950979334,-130.78704838061097z" style="fill:rgb(253,133,146)"/><path d="M-156.94414208555057,-134.76765698160017L-165.1867581688807,-124.9409351147994L-154.81005246730805,-137.2647392211048z" style="fill:rgb(32,208,152)"/><path d="M-154.81005246730805,-137.2647392211048L-162.79996109211706,-123.88999427220119L-152.67174687178576,-136.0514315701316z" style="fill:rgb(183,228,181)"/><path d="M-157.698343586291,-1.3269239330353129L-159.4897522127817,-10.052917380671268L-165.35784594377068,-25.114755458805103z" style="fill:rgb(7,88,147)"/><path d="M-24.84308150621379,-193.3738975330806L-55.219658868468635,-184.05582108490708L-44.27560323741872,-186.83440830040618z" style="fill:rgb(92,246,156)"/><path d="M12.212146398970939,-200.73140650075695L-24.84308150621379,-193.3738975330806L-10.756281735165501,-194.74267574756695z" style="fill:rgb(100,247,161)"/><path d="M-106.22433549463005,-161.39573557252334L-119.78608053298532,-151.93147066357113L-97.58942610973445,-163.5762409147213zM-106.22433549463005,-161.39573557252334L-97.58942610973445,-163.5762409147213L-90.15320056101203,-168.80369489717742z" style="fill:rgb(65,234,159)"/><path d="M-10.756281735165501,-194.74267574756695L-24.84308150621379,-193.3738975330806L-44.27560323741872,-186.83440830040618z" style="fill:rgb(98,246,162)"/><path d="M-139.08902751034745,-141.35372458148652L-125.16915132523535,-144.96609879543627L-119.78608053298532,-151.93147066357113z" style="fill:rgb(61,229,166)"/><path d="M123.55928211030003,-66.75833387437139L124.0307654466506,-86.46122226351883L122.60533193841832,-108.73792967592442z" style="fill:rgb(253,134,146)"/><path d="M-152.67174687178576,-136.0514315701316L-162.79996109211706,-123.88999427220119L-161.9242444075659,-118.28941434111255z" style="fill:rgb(253,133,146)"/><path d="M-156.94414208555057,-134.76765698160017L-167.73164416137197,-121.95734486965618L-165.1867581688807,-124.9409351147994z" style="fill:rgb(32,208,152)"/><path d="M-154.81005246730805,-137.2647392211048L-165.1867581688807,-124.9409351147994L-162.79996109211706,-123.88999427220119z" style="fill:rgb(183,228,181)"/><path d="M-165.35784594377068,-25.114755458805103L-163.51790407240367,-39.76183992744817L-168.9108513784382,-52.684418870537925z" style="fill:rgb(4,108,154)"/><path d="M38.10737468787545,-202.62118075488183L26.88042434337174,-206.51656112193055L29.986073273784307,-202.0210789834161z" style="fill:rgb(28,47,130)"/><path d="M43.18213726016693,-204.60991449187367L31.223422001574733,-208.6190737738875L27.68798786736027,-208.9120960252658z" style="fill:rgb(141,249,160)"/><path d="M39.13830670807915,-205.03978869308756L27.68798786736027,-208.9120960252658L26.88042434337174,-206.51656112193055z" style="fill:rgb(12,163,168)"/><path d="M34.10454190409106,-195.02749421976972L23.667513091957186,-198.94969562143677L12.212146398970939,-200.73140650075695z" style="fill:rgb(149,249,158)"/><path d="M-139.08902751034745,-141.35372458148652L-147.18178350134943,-131.30942498920223L-125.16915132523535,-144.96609879543627z" style="fill:rgb(61,229,166)"/><path d="M-94.75705494570431,46.626934684195135L-77.7321863309881,50.421594253199785L-102.44546643103537,43.8792857370142z" style="fill:rgb(87,7,141)"/><path d="M-10.756281735165501,-194.74267574756695L-44.27560323741872,-186.83440830040618L-36.625629761951004,-187.52636880720794z" style="fill:rgb(98,246,162)"/><path d="M-157.698343586291,-1.3269239330353129L-151.3437827208121,15.203181559173252L-159.4897522127817,-10.052917380671268z" style="fill:rgb(7,88,147)"/><path d="M21.155516098272777,-197.29232997423802L12.212146398970939,-200.73140650075695L-10.756281735165501,-194.74267574756695z" style="fill:rgb(104,245,169)"/><path d="M122.0345904869218,-89.19289008642696L122.60533193841832,-108.73792967592442L111.19860066541003,-131.6053095796237z" style="fill:rgb(239,175,164)"/><path d="M-119.78608053298532,-151.93147066357113L-100.31475853363635,-159.84819189146233L-97.58942610973445,-163.5762409147213z" style="fill:rgb(63,230,166)"/><path d="M-168.9108513784382,-52.684418870537925L-164.77027103597948,-72.64387471393654L-169.69299539924552,-83.1307430790365z" style="fill:rgb(3,120,158)"/><path d="M-119.78608053298532,-151.93147066357113L-125.16915132523535,-144.96609879543627L-100.31475853363635,-159.84819189146233z" style="fill:rgb(63,230,166)"/><path d="M38.10737468787545,-202.62118075488183L29.986073273784307,-202.0210789834161L41.46781930901063,-197.90994091587967z" style="fill:rgb(28,47,130)"/><path d="M-4.881908754088618,-192.1570412866671L-10.756281735165501,-194.74267574756695L-36.625629761951004,-187.52636880720794z" style="fill:rgb(102,245,169)"/><path d="M39.13830670807915,-205.03978869308756L26.88042434337174,-206.51656112193055L38.10737468787545,-202.62118075488183z" style="fill:rgb(12,163,168)"/><path d="M43.18213726016693,-204.60991449187367L27.68798786736027,-208.9120960252658L39.13830670807915,-205.03978869308756z" style="fill:rgb(141,249,160)"/><path d="M-165.35784594377068,-25.114755458805103L-159.4897522127817,-10.052917380671268L-163.51790407240367,-39.76183992744817z" style="fill:rgb(4,108,154)"/><path d="M34.10454190409106,-195.02749421976972L12.212146398970939,-200.73140650075695L21.155516098272777,-197.29232997423802z" style="fill:rgb(149,249,158)"/><path d="M-94.75705494570431,46.626934684195135L-71.12323654401676,52.90980401780818L-77.7321863309881,50.421594253199785z" style="fill:rgb(87,7,141)"/><path d="M85.31952468951633,-6.09077025961096L103.91842264581163,-28.510687771975892L107.4358782230095,-35.578762326548784z" style="fill:rgb(234,63,152)"/><path d="M110.0425900471869,-113.51323518129986L111.19860066541003,-131.6053095796237L93.95100191992564,-154.4324112801339z" style="fill:rgb(227,193,170)"/><path d="M-97.58942610973445,-163.5762409147213L-84.36958227626363,-173.70904450125337L-83.24498679726108,-175.2884670696272zM-97.58942610973445,-163.5762409147213L-100.31475853363635,-159.84819189146233L-84.36958227626363,-173.70904450125337z" style="fill:rgb(45,219,159)"/><path d="M21.155516098272777,-197.29232997423802L-10.756281735165501,-194.74267574756695L-4.881908754088618,-192.1570412866671z" style="fill:rgb(104,245,169)"/><path d="M123.55928211030003,-66.75833387437139L122.60533193841832,-108.73792967592442L122.0345904869218,-89.19289008642696z" style="fill:rgb(253,134,146)"/><path d="M-169.69299539924552,-83.1307430790365L-164.64275109891358,-107.41102065500479L-169.08307920777565,-115.4869985207664z" style="fill:rgb(4,125,159)"/><path d="M-33.69316450103408,-186.00883316071548L-36.625629761951004,-187.52636880720794L-56.28276559980713,-185.8922033245005z" style="fill:rgb(123,249,164)"/><path d="M-81.52811365681187,-213.21836033060853L-90.71009985388004,-209.2682088498356L-83.18173938782472,-212.4619444168361z" style="fill:rgb(78,241,154)"/><path d="M-4.881908754088618,-192.1570412866671L-36.625629761951004,-187.52636880720794L-33.69316450103408,-186.00883316071548z" style="fill:rgb(102,245,169)"/><path d="M-72.35836405195091,-216.53264559025277L-81.52811365681187,-213.21836033060853L-83.18173938782472,-212.4619444168361z" style="fill:rgb(85,244,155)"/><path d="M-90.71009985388004,-209.2682088498356L-98.98313420045226,-205.04128777215809L-83.18173938782472,-212.4619444168361z" style="fill:rgb(72,238,157)"/><path d="M-168.9108513784382,-52.684418870537925L-163.51790407240367,-39.76183992744817L-164.77027103597948,-72.64387471393654z" style="fill:rgb(3,120,158)"/><path d="M-154.75822937989284,-121.09462197702302L-143.08692678738106,-125.61509383690903L-147.18178350134943,-131.30942498920223z" style="fill:rgb(28,193,173)"/><path d="M-147.18178350134943,-131.30942498920223L-121.77130879999821,-141.2316074973439L-125.16915132523535,-144.96609879543627z" style="fill:rgb(62,226,174)"/><path d="M-125.16915132523535,-144.96609879543627L-98.14244253285251,-157.97900619493487L-100.31475853363635,-159.84819189146233z" style="fill:rgb(63,227,174)"/><path d="M87.86526663501999,-12.088769783012742L107.4358782230095,-35.578762326548784L116.27903001158795,-48.584215107567125z" style="fill:rgb(229,52,142)"/><path d="M-64.12698491676925,-218.8365109846995L-72.35836405195091,-216.53264559025277L-83.18173938782472,-212.4619444168361z" style="fill:rgb(91,245,158)"/><path d="M-118.35134211723482,40.39852296728524L-107.44633496113656,39.819980956103464L-136.67571221790732,32.209171342038935z" style="fill:rgb(80,10,146)"/><path d="M-33.69316450103408,-186.00883316071548L-56.28276559980713,-185.8922033245005L-55.10095294970281,-185.21750052028386z" style="fill:rgb(123,249,164)"/><path d="M-169.08307920777565,-115.4869985207664L-163.38427295714408,-114.40550570248728L-167.73164416137197,-121.95734486965618z" style="fill:rgb(7,147,165)"/><path d="M-100.31475853363635,-159.84819189146233L-83.33463059107316,-172.96668346309465L-84.36958227626363,-173.70904450125337z" style="fill:rgb(46,213,174)"/><path d="M-165.1867581688807,-124.9409351147994L-158.47878652206668,-116.78022011870729L-162.79996109211706,-123.88999427220119z" style="fill:rgb(181,241,147)"/><path d="M-167.73164416137197,-121.95734486965618L-160.88135758741922,-117.7466252595985L-165.1867581688807,-124.9409351147994z" style="fill:rgb(33,200,174)"/><path d="M92.00428715226933,-138.4012596480014L93.95100191992564,-154.4324112801339L72.57246734385637,-177.42601409736739z" style="fill:rgb(219,202,173)"/><path d="M-98.98313420045226,-205.04128777215809L-104.718737710318,-201.33635592585452L-83.18173938782472,-212.4619444168361z" style="fill:rgb(67,234,161)"/><path d="M-100.31475853363635,-159.84819189146233L-98.14244253285251,-157.97900619493487L-83.33463059107316,-172.96668346309465z" style="fill:rgb(46,213,174)"/><path d="M122.0345904869218,-89.19289008642696L111.19860066541003,-131.6053095796237L110.0425900471869,-113.51323518129986z" style="fill:rgb(239,175,164)"/><path d="M-84.36958227626363,-173.70904450125337L-87.13588705143964,-182.77033677819432L-88.14103032722707,-183.45000810172016z" style="fill:rgb(11,76,143)"/><path d="M-58.46808213856025,-219.63667369352135L-64.12698491676925,-218.8365109846995L-83.18173938782472,-212.4619444168361z" style="fill:rgb(96,245,163)"/><path d="M-84.36958227626363,-173.70904450125337L-83.33463059107316,-172.96668346309465L-87.13588705143964,-182.77033677819432z" style="fill:rgb(11,77,143)"/><path d="M-56.08658119733177,-183.67843143997925L-55.10095294970281,-185.21750052028386L-59.21332473556155,-194.8469733000941z" style="fill:rgb(244,165,159)"/><path d="M-35.69756738913282,-182.48758612379103L-33.69316450103408,-186.00883316071548L-55.10095294970281,-185.21750052028386z" style="fill:rgb(124,243,180)"/><path d="M-125.16915132523535,-144.96609879543627L-121.77130879999821,-141.2316074973439L-98.14244253285251,-157.97900619493487z" style="fill:rgb(63,227,174)"/><path d="M85.31952468951633,-6.09077025961096L107.4358782230095,-35.578762326548784L87.86526663501999,-12.088769783012742z" style="fill:rgb(234,63,152)"/><path d="M-169.69299539924552,-83.1307430790365L-164.77027103597948,-72.64387471393654L-164.64275109891358,-107.41102065500479z" style="fill:rgb(4,125,159)"/><path d="M-35.69756738913282,-182.48758612379103L-55.10095294970281,-185.21750052028386L-56.08658119733177,-183.67843143997925z" style="fill:rgb(124,243,180)"/><path d="M-56.08658119733177,-183.67843143997925L-59.21332473556155,-194.8469733000941L-60.211182086653785,-193.3761283790199z" style="fill:rgb(244,165,160)"/><path d="M-104.718737710318,-201.33635592585452L-106.85308699843918,-198.85096009094147L-83.18173938782472,-212.4619444168361z" style="fill:rgb(65,231,167)"/><path d="M-98.14244253285251,-157.97900619493487L-80.10156858234956,-173.20800542097416L-83.33463059107316,-172.96668346309465z" style="fill:rgb(53,210,189)"/><path d="M-7.911600419410759,-185.86065687730988L-4.881908754088618,-192.1570412866671L-33.69316450103408,-186.00883316071548z" style="fill:rgb(102,242,177)"/><path d="M-147.18178350134943,-131.30942498920223L-143.08692678738106,-125.61509383690903L-121.77130879999821,-141.2316074973439z" style="fill:rgb(62,226,174)"/><path d="M-60.211182086653785,-193.3761283790199L-59.21332473556155,-194.8469733000941L-54.08057211027129,-209.44589032261484z" style="fill:rgb(246,82,122)"/><path d="M69.81746252800944,-163.7478769872029L72.57246734385637,-177.42601409736739L48.83855953751589,-200.7953851625893z" style="fill:rgb(216,205,174)"/><path d="M-83.33463059107316,-172.96668346309465L-83.9527541280206,-183.0589520587171L-87.13588705143964,-182.77033677819432z" style="fill:rgb(32,67,187)"/><path d="M-154.75822937989284,-121.09462197702302L-150.4191824332949,-114.32514516305575L-143.08692678738106,-125.61509383690903z" style="fill:rgb(28,193,173)"/><path d="M-83.33463059107316,-172.96668346309465L-80.10156858234956,-173.20800542097416L-83.9527541280206,-183.0589520587171z" style="fill:rgb(32,67,187)"/><path d="M-59.282758054836336,-181.39080046404914L-56.08658119733177,-183.67843143997925L-60.211182086653785,-193.3761283790199z" style="fill:rgb(230,142,201)"/><path d="M-136.67571221790732,32.209171342038935L-121.31115921131449,22.347278965580184L-151.3437827208121,15.203181559173252z" style="fill:rgb(47,39,173)"/><path d="M-56.44445950089377,-218.79068089822815L-58.46808213856025,-219.63667369352135L-83.18173938782472,-212.4619444168361z" style="fill:rgb(99,244,169)"/><path d="M94.63798731868555,-22.70550726481729L116.27903001158795,-48.584215107567125L123.55928211030003,-66.75833387437139z" style="fill:rgb(237,70,158)"/><path d="M-118.35134211723482,40.39852296728524L-91.30901260141457,47.58918973109276L-107.44633496113656,39.819980956103464z" style="fill:rgb(80,10,146)"/><path d="M17.677802907113502,-188.54816178273785L21.155516098272777,-197.29232997423802L-4.881908754088618,-192.1570412866671z" style="fill:rgb(104,242,177)"/><path d="M30.637425168848072,-185.0954444650832L34.10454190409106,-195.02749421976972L21.155516098272777,-197.29232997423802z" style="fill:rgb(151,240,182)"/><path d="M110.0425900471869,-113.51323518129986L93.95100191992564,-154.4324112801339L92.00428715226933,-138.4012596480014z" style="fill:rgb(227,193,170)"/><path d="M-102.03045337792003,-190.5128201561663L-105.26589015281596,-197.80767194826367L-106.85308699843918,-198.85096009094147z" style="fill:rgb(19,60,136)"/><path d="M-7.911600419410759,-185.86065687730988L-33.69316450103408,-186.00883316071548L-35.69756738913282,-182.48758612379103z" style="fill:rgb(102,242,177)"/><path d="M-59.282758054836336,-181.39080046404914L-60.211182086653785,-193.3761283790199L-63.39454266368814,-191.15555302075012z" style="fill:rgb(229,142,201)"/><path d="M-169.08307920777565,-115.4869985207664L-164.64275109891358,-107.41102065500479L-163.38427295714408,-114.40550570248728z" style="fill:rgb(7,147,165)"/><path d="M-98.14244253285251,-157.97900619493487L-90.86474040692022,-158.3641041887955L-80.10156858234956,-173.20800542097416z" style="fill:rgb(53,210,189)"/><path d="M-60.211182086653785,-193.3761283790199L-54.08057211027129,-209.44589032261484L-55.69977008878169,-207.12328792613118z" style="fill:rgb(246,82,122)"/><path d="M-165.1867581688807,-124.9409351147994L-160.88135758741922,-117.7466252595985L-158.47878652206668,-116.78022011870729z" style="fill:rgb(181,241,147)"/><path d="M-167.73164416137197,-121.95734486965618L-163.38427295714408,-114.40550570248728L-160.88135758741922,-117.7466252595985z" style="fill:rgb(33,200,174)"/><path d="M-80.10156858234956,-173.20800542097416L-79.13643480764836,-184.30259348587253L-83.9527541280206,-183.0589520587171zM-80.10156858234956,-173.20800542097416L-75.21591603881284,-174.43253036425662L-79.13643480764836,-184.30259348587253z" style="fill:rgb(67,67,222)"/><path d="M-64.14695521009095,-178.7826062184083L-59.282758054836336,-181.39080046404914L-63.39454266368814,-191.15555302075012z" style="fill:rgb(199,117,232)"/><path d="M-102.03045337792003,-190.5128201561663L-100.47955163052806,-189.44718125739482L-105.26589015281596,-197.80767194826367z" style="fill:rgb(19,60,136)"/><path d="M-106.85308699843918,-198.85096009094147L-105.26589015281596,-197.80767194826367L-83.18173938782472,-212.4619444168361z" style="fill:rgb(66,229,174)"/><path d="M-42.86128681793408,-177.19655402414045L-56.08658119733177,-183.67843143997925L-59.282758054836336,-181.39080046404914z" style="fill:rgb(120,235,194)"/><path d="M-55.69977008878169,-207.12328792613118L-54.08057211027129,-209.44589032261484L-56.44445950089377,-218.79068089822815z" style="fill:rgb(250,148,153)"/><path d="M-42.86128681793408,-177.19655402414045L-35.69756738913282,-182.48758612379103L-56.08658119733177,-183.67843143997925z" style="fill:rgb(120,235,194)"/><path d="M-121.77130879999821,-141.2316074973439L-90.86474040692022,-158.3641041887955L-98.14244253285251,-157.97900619493487z" style="fill:rgb(67,225,181)"/><path d="M45.409513932134786,-189.4950106527385L48.83855953751589,-200.7953851625893L43.18213726016693,-204.60991449187367z" style="fill:rgb(198,219,179)"/><path d="M-90.86474040692022,-158.3641041887955L-75.21591603881284,-174.43253036425662L-80.10156858234956,-173.20800542097416z" style="fill:rgb(65,210,201)"/><path d="M-63.39454266368814,-191.15555302075012L-60.211182086653785,-193.3761283790199L-55.69977008878169,-207.12328792613118z" style="fill:rgb(235,65,153)"/><path d="M35.564545280943356,-194.63499412978712L39.13830670807915,-205.03978869308756L38.10737468787545,-202.62118075488183z" style="fill:rgb(10,176,135)"/><path d="M39.646497053162236,-193.8376354258826L43.18213726016693,-204.60991449187367L39.13830670807915,-205.03978869308756z" style="fill:rgb(142,241,182)"/><path d="M-87.13588705143964,-182.77033677819432L-83.9527541280206,-183.0589520587171L-95.27237564860954,-189.98543670569998z" style="fill:rgb(85,8,143)"/><path d="M87.86526663501999,-12.088769783012742L116.27903001158795,-48.584215107567125L94.63798731868555,-22.70550726481729z" style="fill:rgb(229,52,142)"/><path d="M-71.12323654401676,52.90980401780818L-38.24402606525251,46.87979157218841L-77.7321863309881,50.421594253199785z" style="fill:rgb(113,7,167)"/><path d="M-64.14695521009095,-178.7826062184083L-63.39454266368814,-191.15555302075012L-68.21473454664954,-188.60344575627107z" style="fill:rgb(199,117,232)"/><path d="M-75.21591603881284,-174.43253036425662L-69.67818116989304,-176.37586752831112L-73.67637526318991,-186.23387914143856z" style="fill:rgb(111,76,243)"/><path d="M-69.67818116989304,-176.37586752831112L-64.14695521009095,-178.7826062184083L-68.21473454664954,-188.60344575627107z" style="fill:rgb(157,94,246)"/><path d="M-87.13588705143964,-182.77033677819432L-95.27237564860954,-189.98543670569998L-100.47955163052806,-189.44718125739482z" style="fill:rgb(85,8,143)"/><path d="M-58.169710903245594,-216.43164433508048L-56.44445950089377,-218.79068089822815L-83.18173938782472,-212.4619444168361z" style="fill:rgb(100,241,176)"/><path d="M-75.21591603881284,-174.43253036425662L-73.67637526318991,-186.23387914143856L-79.13643480764836,-184.30259348587253z" style="fill:rgb(111,76,243)"/><path d="M-69.67818116989304,-176.37586752831112L-68.21473454664954,-188.60344575627107L-73.67637526318991,-186.23387914143856z" style="fill:rgb(158,94,246)"/><path d="M-55.69977008878169,-207.12328792613118L-56.44445950089377,-218.79068089822815L-58.169710903245594,-216.43164433508048z" style="fill:rgb(250,148,153)"/><path d="M17.677802907113502,-188.54816178273785L-4.881908754088618,-192.1570412866671L-7.911600419410759,-185.86065687730988z" style="fill:rgb(104,242,177)"/><path d="M-54.01917868917509,-171.12820491709235L-59.282758054836336,-181.39080046404914L-64.14695521009095,-178.7826062184083z" style="fill:rgb(109,227,204)"/><path d="M-151.3437827208121,15.203181559173252L-130.28722793522144,-4.284899956828983L-159.4897522127817,-10.052917380671268z" style="fill:rgb(28,78,191)"/><path d="M92.00428715226933,-138.4012596480014L72.57246734385637,-177.42601409736739L69.81746252800944,-163.7478769872029z" style="fill:rgb(219,202,173)"/><path d="M-79.64795679315661,-161.07675158482806L-69.67818116989304,-176.37586752831112L-75.21591603881284,-174.43253036425662z" style="fill:rgb(80,213,208)"/><path d="M-68.21473454664954,-188.60344575627107L-63.39454266368814,-191.15555302075012L-60.98791709075845,-203.51504713712396z" style="fill:rgb(212,46,176)"/><path d="M-63.39454266368814,-191.15555302075012L-55.69977008878169,-207.12328792613118L-60.98791709075845,-203.51504713712396z" style="fill:rgb(235,65,154)"/><path d="M-105.26589015281596,-197.80767194826367L-99.82592089980396,-198.44629617409956L-83.18173938782472,-212.4619444168361z" style="fill:rgb(69,227,180)"/><path d="M-83.9527541280206,-183.0589520587171L-79.13643480764836,-184.30259348587253L-87.28452647574196,-192.104111233769z" style="fill:rgb(111,8,169)"/><path d="M-66.82573282950251,-165.53691635936525L-64.14695521009095,-178.7826062184083L-69.67818116989304,-176.37586752831112z" style="fill:rgb(95,219,209)"/><path d="M-90.86474040692022,-158.3641041887955L-79.64795679315661,-161.07675158482806L-75.21591603881284,-174.43253036425662z" style="fill:rgb(65,210,201)"/><path d="M-100.47955163052806,-189.44718125739482L-99.82592089980396,-198.44629617409956L-105.26589015281596,-197.80767194826367z" style="fill:rgb(40,51,180)"/><path d="M-54.01917868917509,-171.12820491709235L-42.86128681793408,-177.19655402414045L-59.282758054836336,-181.39080046404914z" style="fill:rgb(109,227,204)"/><path d="M-63.75606921667501,-212.70623769257796L-58.169710903245594,-216.43164433508048L-83.18173938782472,-212.4619444168361z" style="fill:rgb(97,238,182)"/><path d="M-83.9527541280206,-183.0589520587171L-87.28452647574196,-192.104111233769L-95.27237564860954,-189.98543670569998z" style="fill:rgb(111,8,169)"/><path d="M-100.47955163052806,-189.44718125739482L-95.27237564860954,-189.98543670569998L-99.82592089980396,-198.44629617409956z" style="fill:rgb(40,51,180)"/><path d="M30.637425168848072,-185.0954444650832L21.155516098272777,-197.29232997423802L17.677802907113502,-188.54816178273785z" style="fill:rgb(151,240,182)"/><path d="M51.23995681146781,17.667015296488763L85.31952468951633,-6.09077025961096L87.86526663501999,-12.088769783012742z" style="fill:rgb(212,44,174)"/><path d="M-60.98791709075845,-203.51504713712396L-55.69977008878169,-207.12328792613118L-58.169710903245594,-216.43164433508048z" style="fill:rgb(235,125,194)"/><path d="M-71.12323654401676,52.90980401780818L-33.692957962148476,49.634887239834086L-38.24402606525251,46.87979157218841z" style="fill:rgb(113,7,167)"/><path d="M-73.67637526318991,-186.23387914143856L-68.21473454664954,-188.60344575627107L-69.0406177516293,-199.30242516627564z" style="fill:rgb(180,28,187)"/><path d="M-79.13643480764836,-184.30259348587253L-73.67637526318991,-186.23387914143856L-78.17424191827027,-195.3514683889831z" style="fill:rgb(145,15,185)"/><path d="M-136.67571221790732,32.209171342038935L-107.44633496113656,39.819980956103464L-121.31115921131449,22.347278965580184z" style="fill:rgb(47,39,173)"/><path d="M99.74550380924359,-38.70559467021411L123.55928211030003,-66.75833387437139L122.0345904869218,-89.19289008642696z" style="fill:rgb(239,111,187)"/><path d="M-121.77130879999821,-141.2316074973439L-108.89638949384275,-141.58876364920732L-90.86474040692022,-158.3641041887955z" style="fill:rgb(67,225,181)"/><path d="M-143.08692678738106,-125.61509383690903L-108.89638949384275,-141.58876364920732L-121.77130879999821,-141.2316074973439z" style="fill:rgb(65,224,182)"/><path d="M-79.64795679315661,-161.07675158482806L-66.82573282950251,-165.53691635936525L-69.67818116989304,-176.37586752831112z" style="fill:rgb(80,213,208)"/><path d="M-99.82592089980396,-198.44629617409956L-91.44499211951255,-200.72829929253305L-83.18173938782472,-212.4619444168361z" style="fill:rgb(74,227,185)"/><path d="M-68.21473454664954,-188.60344575627107L-60.98791709075845,-203.51504713712396L-69.0406177516293,-199.30242516627564z" style="fill:rgb(212,46,176)"/><path d="M-66.82573282950251,-165.53691635936525L-54.01917868917509,-171.12820491709235L-64.14695521009095,-178.7826062184083z" style="fill:rgb(95,219,209)"/><path d="M69.81746252800944,-163.7478769872029L48.83855953751589,-200.7953851625893L45.409513932134786,-189.4950106527385z" style="fill:rgb(216,205,174)"/><path d="M-159.4897522127817,-10.052917380671268L-136.06295262456138,-35.72272604123586L-163.51790407240367,-39.76183992744817z" style="fill:rgb(24,99,197)"/><path d="M-20.577010151779728,-176.17820771010528L-7.911600419410759,-185.86065687730988L-35.69756738913282,-182.48758612379103zM-20.577010151779728,-176.17820771010528L-35.69756738913282,-182.48758612379103L-42.86128681793408,-177.19655402414045z" style="fill:rgb(100,238,184)"/><path d="M-72.24745996111854,-208.31651959349364L-63.75606921667501,-212.70623769257796L-83.18173938782472,-212.4619444168361z" style="fill:rgb(93,234,187)"/><path d="M-79.13643480764836,-184.30259348587253L-78.17424191827027,-195.3514683889831L-87.28452647574196,-192.104111233769z" style="fill:rgb(145,15,185)"/><path d="M-60.98791709075845,-203.51504713712396L-58.169710903245594,-216.43164433508048L-63.75606921667501,-212.70623769257796z" style="fill:rgb(235,125,194)"/><path d="M-77.7321863309881,50.421594253199785L-47.26799305392115,43.50983855272124L-91.30901260141457,47.58918973109276z" style="fill:rgb(122,3,155)"/><path d="M35.564545280943356,-194.63499412978712L38.10737468787545,-202.62118075488183L34.55821944073766,-192.3087398696895z" style="fill:rgb(10,176,135)"/><path d="M-73.67637526318991,-186.23387914143856L-69.0406177516293,-199.30242516627564L-78.17424191827027,-195.3514683889831z" style="fill:rgb(180,28,187)"/><path d="M-91.44499211951255,-200.72829929253305L-81.86566873260614,-204.16815833825277L-83.18173938782472,-212.4619444168361z" style="fill:rgb(80,229,188)"/><path d="M-108.89638949384275,-141.58876364920732L-79.64795679315661,-161.07675158482806L-90.86474040692022,-158.3641041887955z" style="fill:rgb(73,225,187)"/><path d="M39.646497053162236,-193.8376354258826L39.13830670807915,-205.03978869308756L35.564545280943356,-194.63499412978712z" style="fill:rgb(142,241,182)"/><path d="M45.409513932134786,-189.4950106527385L43.18213726016693,-204.60991449187367L39.646497053162236,-193.8376354258826z" style="fill:rgb(198,219,179)"/><path d="M-81.86566873260614,-204.16815833825277L-72.24745996111854,-208.31651959349364L-83.18173938782472,-212.4619444168361z" style="fill:rgb(87,231,189)"/><path d="M-95.27237564860954,-189.98543670569998L-91.44499211951255,-200.72829929253305L-99.82592089980396,-198.44629617409956z" style="fill:rgb(74,51,214)"/><path d="M94.63798731868555,-22.70550726481729L123.55928211030003,-66.75833387437139L99.74550380924359,-38.70559467021411z" style="fill:rgb(237,70,158)"/><path d="M-95.27237564860954,-189.98543670569998L-87.28452647574196,-192.104111233769L-91.44499211951255,-200.72829929253305z" style="fill:rgb(74,51,214)"/><path d="M-69.0406177516293,-199.30242516627564L-60.98791709075845,-203.51504713712396L-63.75606921667501,-212.70623769257796z" style="fill:rgb(206,101,224)"/><path d="M-150.4191824332949,-114.32514516305575L-125.41737190099026,-125.6584814504064L-143.08692678738106,-125.61509383690903z" style="fill:rgb(39,188,196)"/><path d="M-163.51790407240367,-39.76183992744817L-139.67787052169868,-70.38584006291164L-164.77027103597948,-72.64387471393654z" style="fill:rgb(23,111,199)"/><path d="M51.787330435213086,12.965185576627087L87.86526663501999,-12.088769783012742L94.63798731868555,-22.70550726481729z" style="fill:rgb(209,36,162)"/><path d="M-69.0406177516293,-199.30242516627564L-63.75606921667501,-212.70623769257796L-72.24745996111854,-208.31651959349364z" style="fill:rgb(206,101,224)"/><path d="M-77.7321863309881,50.421594253199785L-38.24402606525251,46.87979157218841L-47.26799305392115,43.50983855272124z" style="fill:rgb(122,3,155)"/><path d="M51.23995681146781,17.667015296488763L87.86526663501999,-12.088769783012742L51.787330435213086,12.965185576627087z" style="fill:rgb(212,44,174)"/><path d="M-151.3437827208121,15.203181559173252L-121.31115921131449,22.347278965580184L-130.28722793522144,-4.284899956828983z" style="fill:rgb(28,78,191)"/><path d="M-87.28452647574196,-192.104111233769L-78.17424191827027,-195.3514683889831L-81.86566873260614,-204.16815833825277z" style="fill:rgb(118,60,235)"/><path d="M-78.17424191827027,-195.3514683889831L-69.0406177516293,-199.30242516627564L-72.24745996111854,-208.31651959349364z" style="fill:rgb(164,78,239)"/><path d="M-87.28452647574196,-192.104111233769L-81.86566873260614,-204.16815833825277L-91.44499211951255,-200.72829929253305z" style="fill:rgb(118,60,235)"/><path d="M96.86218030882807,-60.685092980552625L122.0345904869218,-89.19289008642696L110.0425900471869,-113.51323518129986z" style="fill:rgb(224,152,205)"/><path d="M-78.17424191827027,-195.3514683889831L-72.24745996111854,-208.31651959349364L-81.86566873260614,-204.16815833825277z" style="fill:rgb(164,78,239)"/><path d="M-143.08692678738106,-125.61509383690903L-125.41737190099026,-125.6584814504064L-108.89638949384275,-141.58876364920732z" style="fill:rgb(65,224,182)"/><path d="M-40.9751350743795,-164.9248066602997L-42.86128681793408,-177.19655402414045L-54.01917868917509,-171.12820491709235z" style="fill:rgb(95,234,189)"/><path d="M-164.77027103597948,-72.64387471393654L-142.23340937977483,-106.75546424707062L-164.64275109891358,-107.41102065500479z" style="fill:rgb(23,116,200)"/><path d="M-88.42138770512186,-146.3537263095673L-66.82573282950251,-165.53691635936525L-79.64795679315661,-161.07675158482806z" style="fill:rgb(80,227,191)"/><path d="M-33.692957962148476,49.634887239834086L7.334770137994642,33.64096924072682L-38.24402606525251,46.87979157218841z" style="fill:rgb(146,14,183)"/><path d="M0.3226611259100225,-174.8205727051593L17.677802907113502,-188.54816178273785L-7.911600419410759,-185.86065687730988z" style="fill:rgb(102,238,185)"/><path d="M-108.89638949384275,-141.58876364920732L-88.42138770512186,-146.3537263095673L-79.64795679315661,-161.07675158482806z" style="fill:rgb(73,225,187)"/><path d="M-163.38427295714408,-114.40550570248728L-139.824332229393,-117.51243166099962L-160.88135758741922,-117.7466252595985z" style="fill:rgb(43,195,195)"/><path d="M-33.692957962148476,49.634887239834086L9.328283238290291,37.184218695845004L7.334770137994642,33.64096924072682z" style="fill:rgb(146,14,183)"/><path d="M9.328283238290291,37.184218695845004L51.23995681146781,17.667015296488763L51.787330435213086,12.965185576627087z" style="fill:rgb(181,27,185)"/><path d="M-164.64275109891358,-107.41102065500479L-141.69583575899063,-114.03681850612153L-163.38427295714408,-114.40550570248728z" style="fill:rgb(24,138,201)"/><path d="M-64.69180058611997,-154.53561272130972L-54.01917868917509,-171.12820491709235L-66.82573282950251,-165.53691635936525z" style="fill:rgb(88,230,191)"/><path d="M-159.4897522127817,-10.052917380671268L-130.28722793522144,-4.284899956828983L-136.06295262456138,-35.72272604123586z" style="fill:rgb(24,99,197)"/><path d="M-40.9751350743795,-164.9248066602997L-20.577010151779728,-176.17820771010528L-42.86128681793408,-177.19655402414045z" style="fill:rgb(95,234,189)"/><path d="M84.66740623700701,-86.54161956291084L110.0425900471869,-113.51323518129986L92.00428715226933,-138.4012596480014z" style="fill:rgb(213,171,210)"/><path d="M0.3226611259100225,-174.8205727051593L-7.911600419410759,-185.86065687730988L-20.577010151779728,-176.17820771010528z" style="fill:rgb(102,238,185)"/><path d="M-91.30901260141457,47.58918973109276L-58.7876317905361,34.98230230445366L-107.44633496113656,39.819980956103464z" style="fill:rgb(108,10,174)"/><path d="M99.74550380924359,-38.70559467021411L122.0345904869218,-89.19289008642696L96.86218030882807,-60.685092980552625z" style="fill:rgb(239,111,187)"/><path d="M-150.4191824332949,-114.32514516305575L-130.70912258755556,-113.99477862230168L-125.41737190099026,-125.6584814504064z" style="fill:rgb(39,188,196)"/><path d="M9.328283238290291,37.184218695845004L51.787330435213086,12.965185576627087L7.334770137994642,33.64096924072682z" style="fill:rgb(181,27,185)"/><path d="M11.413451191335781,-169.46734429668481L30.637425168848072,-185.0954444650832L17.677802907113502,-188.54816178273785z" style="fill:rgb(143,227,204)"/><path d="M-163.51790407240367,-39.76183992744817L-136.06295262456138,-35.72272604123586L-139.67787052169868,-70.38584006291164z" style="fill:rgb(23,111,199)"/><path d="M51.787330435213086,12.965185576627087L94.63798731868555,-22.70550726481729L54.14798229044917,5.2591383936573965z" style="fill:rgb(209,36,162)"/><path d="M-125.41737190099026,-125.6584814504064L-88.42138770512186,-146.3537263095673L-108.89638949384275,-141.58876364920732z" style="fill:rgb(72,224,189)"/><path d="M-88.42138770512186,-146.3537263095673L-64.69180058611997,-154.53561272130972L-66.82573282950251,-165.53691635936525z" style="fill:rgb(80,227,191)"/><path d="M67.20404896074106,-113.98303179988437L92.00428715226933,-138.4012596480014L69.81746252800944,-163.7478769872029z" style="fill:rgb(206,180,212)"/><path d="M-64.69180058611997,-154.53561272130972L-40.9751350743795,-164.9248066602997L-54.01917868917509,-171.12820491709235z" style="fill:rgb(88,230,191)"/><path d="M54.14798229044917,5.2591383936573965L94.63798731868555,-22.70550726481729L99.74550380924359,-38.70559467021411z" style="fill:rgb(213,50,182)"/><path d="M-91.30901260141457,47.58918973109276L-47.26799305392115,43.50983855272124L-58.7876317905361,34.98230230445366z" style="fill:rgb(108,10,174)"/><path d="M-164.77027103597948,-72.64387471393654L-139.67787052169868,-70.38584006291164L-142.23340937977483,-106.75546424707062z" style="fill:rgb(23,116,200)"/><path d="M7.334770137994642,33.64096924072682L51.787330435213086,12.965185576627087L54.14798229044917,5.2591383936573965z" style="fill:rgb(182,21,171)"/><path d="M-38.24402606525251,46.87979157218841L7.334770137994642,33.64096924072682L4.022625282502428,28.532344276969418z" style="fill:rgb(151,9,169)"/><path d="M46.23398544977631,-142.43080599320612L69.81746252800944,-163.7478769872029L45.409513932134786,-189.4950106527385z" style="fill:rgb(202,184,212)"/><path d="M-38.24402606525251,46.87979157218841L4.022625282502428,28.532344276969418L-47.26799305392115,43.50983855272124z" style="fill:rgb(151,9,169)"/><path d="M-163.38427295714408,-114.40550570248728L-141.69583575899063,-114.03681850612153L-139.824332229393,-117.51243166099962z" style="fill:rgb(43,195,195)"/><path d="M-164.64275109891358,-107.41102065500479L-142.23340937977483,-106.75546424707062L-141.69583575899063,-114.03681850612153z" style="fill:rgb(24,138,201)"/><path d="M96.86218030882807,-60.685092980552625L110.0425900471869,-113.51323518129986L84.66740623700701,-86.54161956291084z" style="fill:rgb(224,152,205)"/><path d="M11.413451191335781,-169.46734429668481L17.677802907113502,-188.54816178273785L0.3226611259100225,-174.8205727051593z" style="fill:rgb(143,227,204)"/><path d="M18.3005795027259,-176.53391853656535L39.646497053162236,-193.8376354258826L35.564545280943356,-194.63499412978712z" style="fill:rgb(136,230,201)"/><path d="M23.50429381625062,-171.41370095376234L45.409513932134786,-189.4950106527385L39.646497053162236,-193.8376354258826z" style="fill:rgb(186,200,213)"/><path d="M-107.44633496113656,39.819980956103464L-70.48794867980908,16.584410020636543L-121.31115921131449,22.347278965580184z" style="fill:rgb(81,39,207)"/><path d="M7.334770137994642,33.64096924072682L54.14798229044917,5.2591383936573965L4.022625282502428,28.532344276969418z" style="fill:rgb(182,21,171)"/><path d="M-28.53852655795279,-158.67373763732706L-20.577010151779728,-176.17820771010528L-40.9751350743795,-164.9248066602997z" style="fill:rgb(96,233,190)"/><path d="M-125.41737190099026,-125.6584814504064L-96.47870399976148,-132.13307370723535L-88.42138770512186,-146.3537263095673z" style="fill:rgb(72,224,189)"/><path d="M84.66740623700701,-86.54161956291084L92.00428715226933,-138.4012596480014L67.20404896074106,-113.98303179988437z" style="fill:rgb(213,171,210)"/><path d="M-130.70912258755556,-113.99477862230168L-96.47870399976148,-132.13307370723535L-125.41737190099026,-125.6584814504064z" style="fill:rgb(58,188,215)"/><path d="M-28.53852655795279,-158.67373763732706L0.3226611259100225,-174.8205727051593L-20.577010151779728,-176.17820771010528z" style="fill:rgb(96,233,190)"/><path d="M-96.47870399976148,-132.13307370723535L-64.69180058611997,-154.53561272130972L-88.42138770512186,-146.3537263095673z" style="fill:rgb(80,226,192)"/><path d="M123.5755444012568,-63.876455669563235L65.03200086517704,-32.73151440383679L85.82750103340192,-38.069056424809276z" style="fill:rgb(178,12,147)"/><path d="M67.20404896074106,-113.98303179988437L69.81746252800944,-163.7478769872029L46.23398544977631,-142.43080599320612z" style="fill:rgb(206,180,212)"/><path d="M54.14798229044917,5.2591383936573965L99.74550380924359,-38.70559467021411L54.59113276012468,-7.88157607138179z" style="fill:rgb(213,50,182)"/><path d="M54.59113276012468,-7.88157607138179L99.74550380924359,-38.70559467021411L96.86218030882807,-60.685092980552625z" style="fill:rgb(209,87,216)"/><path d="M-107.44633496113656,39.819980956103464L-58.7876317905361,34.98230230445366L-70.48794867980908,16.584410020636543z" style="fill:rgb(81,39,207)"/><path d="M18.3005795027259,-176.53391853656535L35.564545280943356,-194.63499412978712L14.800906561985672,-177.94108612210184z" style="fill:rgb(136,230,201)"/><path d="M-62.50885328542995,-143.74407173207086L-40.9751350743795,-164.9248066602997L-64.69180058611997,-154.53561272130972z" style="fill:rgb(88,229,193)"/><path d="M46.23398544977631,-142.43080599320612L45.409513932134786,-189.4950106527385L23.50429381625062,-171.41370095376234z" style="fill:rgb(202,184,212)"/><path d="M-121.31115921131449,22.347278965580184L-80.53117861703272,-10.953043640934204L-130.28722793522144,-4.284899956828983z" style="fill:rgb(63,78,226)"/><path d="M23.50429381625062,-171.41370095376234L39.646497053162236,-193.8376354258826L18.3005795027259,-176.53391853656535z" style="fill:rgb(186,200,213)"/><path d="M4.022625282502428,28.532344276969418L54.14798229044917,5.2591383936573965L54.59113276012468,-7.88157607138179z" style="fill:rgb(179,31,193)"/><path d="M-47.26799305392115,43.50983855272124L4.022625282502428,28.532344276969418L-1.529784377447424,18.085670158602177z" style="fill:rgb(143,18,191)"/><path d="M-130.70912258755556,-113.99477862230168L-98.06271117304247,-121.043769562177L-96.47870399976148,-132.13307370723535z" style="fill:rgb(58,188,215)"/><path d="M-47.26799305392115,43.50983855272124L-1.529784377447424,18.085670158602177L-58.7876317905361,34.98230230445366z" style="fill:rgb(143,18,191)"/><path d="M-21.075518656702428,-151.06260160495447L11.413451191335781,-169.46734429668481L0.3226611259100225,-174.8205727051593z" style="fill:rgb(127,214,220)"/><path d="M-130.28722793522144,-4.284899956828983L-89.25139592278833,-43.12587387510899L-136.06295262456138,-35.72272604123586z" style="fill:rgb(57,99,230)"/><path d="M-96.47870399976148,-132.13307370723535L-62.50885328542995,-143.74407173207086L-64.69180058611997,-154.53561272130972z" style="fill:rgb(80,226,192)"/><path d="M-62.50885328542995,-143.74407173207086L-28.53852655795279,-158.67373763732706L-40.9751350743795,-164.9248066602997z" style="fill:rgb(88,229,193)"/><path d="M-141.69583575899063,-114.03681850612153L-104.48017254647577,-125.28946992658774L-139.824332229393,-117.51243166099962z" style="fill:rgb(59,195,211)"/><path d="M-136.06295262456138,-35.72272604123586L-97.0432588620795,-78.25670428430344L-139.67787052169868,-70.38584006291164z" style="fill:rgb(55,111,231)"/><path d="M-21.075518656702428,-151.06260160495447L0.3226611259100225,-174.8205727051593L-28.53852655795279,-158.67373763732706z" style="fill:rgb(127,214,220)"/><path d="M-139.67787052169868,-70.38584006291164L-104.36879346008651,-114.7957803458448L-142.23340937977483,-106.75546424707062z" style="fill:rgb(54,116,231)"/><path d="M-142.23340937977483,-106.75546424707062L-105.15053153466138,-121.99401357556194L-141.69583575899063,-114.03681850612153z" style="fill:rgb(53,138,230)"/><path d="M-121.31115921131449,22.347278965580184L-70.48794867980908,16.584410020636543L-80.53117861703272,-10.953043640934204z" style="fill:rgb(63,78,226)"/><path d="M49.10593202465178,-28.81810609377677L96.86218030882807,-60.685092980552625L84.66740623700701,-86.54161956291084z" style="fill:rgb(194,128,235)"/><path d="M4.022625282502428,28.532344276969418L54.59113276012468,-7.88157607138179L-1.529784377447424,18.085670158602177z" style="fill:rgb(179,31,193)"/><path d="M-98.06271117304247,-121.043769562177L-62.50885328542995,-143.74407173207086L-96.47870399976148,-132.13307370723535z" style="fill:rgb(81,193,226)"/><path d="M54.59113276012468,-7.88157607138179L96.86218030882807,-60.685092980552625L49.10593202465178,-28.81810609377677z" style="fill:rgb(209,87,216)"/><path d="M102.73834709826063,-57.628129039389634L51.142889392868526,-48.6319896258184L65.03200086517704,-32.73151440383679z" style="fill:rgb(94,27,199)"/><path d="M-130.28722793522144,-4.284899956828983L-80.53117861703272,-10.953043640934204L-89.25139592278833,-43.12587387510899z" style="fill:rgb(57,99,230)"/><path d="M80.15091066710507,-89.51643465703901L63.60964497196278,-98.26504985599156L49.194811993194634,-74.63978348035232z" style="fill:rgb(40,208,172)"/><path d="M37.238525922440296,-55.918941828094525L84.66740623700701,-86.54161956291084L67.20404896074106,-113.98303179988437z" style="fill:rgb(184,147,239)"/><path d="M-141.69583575899063,-114.03681850612153L-105.15053153466138,-121.99401357556194L-104.48017254647577,-125.28946992658774z" style="fill:rgb(59,195,211)"/><path d="M-59.55971115399935,-134.09762492436516L-28.53852655795279,-158.67373763732706L-62.50885328542995,-143.74407173207086z" style="fill:rgb(105,202,228)"/><path d="M-18.24046770095816,-155.90421947778015L18.3005795027259,-176.53391853656535L14.800906561985672,-177.94108612210184z" style="fill:rgb(122,219,215)"/><path d="M-136.06295262456138,-35.72272604123586L-89.25139592278833,-43.12587387510899L-97.0432588620795,-78.25670428430344z" style="fill:rgb(55,111,231)"/><path d="M-98.06271117304247,-121.043769562177L-59.55971115399935,-134.09762492436516L-62.50885328542995,-143.74407173207086z" style="fill:rgb(81,193,226)"/><path d="M123.5755444012568,-63.876455669563235L102.73834709826063,-57.628129039389634L65.03200086517704,-32.73151440383679z" style="fill:rgb(179,12,145)"/><path d="M-142.23340937977483,-106.75546424707062L-104.36879346008651,-114.7957803458448L-105.15053153466138,-121.99401357556194z" style="fill:rgb(53,138,230)"/><path d="M-139.67787052169868,-70.38584006291164L-97.0432588620795,-78.25670428430344L-104.36879346008651,-114.7957803458448z" style="fill:rgb(54,116,231)"/><path d="M-59.55971115399935,-134.09762492436516L-21.075518656702428,-151.06260160495447L-28.53852655795279,-158.67373763732706z" style="fill:rgb(105,202,228)"/><path d="M-14.259389066880876,-149.90746911608474L23.50429381625062,-171.41370095376234L18.3005795027259,-176.53391853656535z" style="fill:rgb(162,180,238)"/><path d="M21.911379639445897,-85.8429573785535L67.20404896074106,-113.98303179988437L46.23398544977631,-142.43080599320612z" style="fill:rgb(178,157,240)"/><path d="M4.3529902464298225,-117.48918486210238L46.23398544977631,-142.43080599320612L23.50429381625062,-171.41370095376234z" style="fill:rgb(175,162,240)"/><path d="M-58.7876317905361,34.98230230445366L-10.202629786169545,-1.5484152295360312L-70.48794867980908,16.584410020636543zM-58.7876317905361,34.98230230445366L-1.529784377447424,18.085670158602177L-10.202629786169545,-1.5484152295360312z" style="fill:rgb(124,48,227)"/><path d="M-1.529784377447424,18.085670158602177L54.59113276012468,-7.88157607138179L49.10593202465178,-28.81810609377677z" style="fill:rgb(169,65,230)"/><path d="M80.15091066710507,-89.51643465703901L91.33876987693382,-109.53053284781409L63.60964497196278,-98.26504985599156z" style="fill:rgb(43,212,172)"/><path d="M85.99476535944193,-69.07967361355172L49.194811993194634,-74.63978348035232L51.142889392868526,-48.6319896258184z" style="fill:rgb(31,113,210)"/><path d="M135.56328579746787,-119.43405807389033L123.5755444012568,-63.876455669563235L133.84752459427867,-83.89900476434741z" style="fill:rgb(243,92,168)"/><path d="M49.10593202465178,-28.81810609377677L84.66740623700701,-86.54161956291084L37.238525922440296,-55.918941828094525z" style="fill:rgb(194,128,235)"/><path d="M-18.24046770095816,-155.90421947778015L14.800906561985672,-177.94108612210184L-20.557572109641576,-158.05191924814568z" style="fill:rgb(122,219,215)"/><path d="M-14.259389066880876,-149.90746911608474L18.3005795027259,-176.53391853656535L-18.24046770095816,-155.90421947778015z" style="fill:rgb(162,180,238)"/><path d="M37.238525922440296,-55.918941828094525L67.20404896074106,-113.98303179988437L21.911379639445897,-85.8429573785535z" style="fill:rgb(184,147,239)"/><path d="M-1.529784377447424,18.085670158602177L49.10593202465178,-28.81810609377677L-10.202629786169545,-1.5484152295360312z" style="fill:rgb(169,65,230)"/><path d="M4.3529902464298225,-117.48918486210238L23.50429381625062,-171.41370095376234L-14.259389066880876,-149.90746911608474z" style="fill:rgb(175,162,240)"/><path d="M21.911379639445897,-85.8429573785535L46.23398544977631,-142.43080599320612L4.3529902464298225,-117.48918486210238z" style="fill:rgb(178,157,240)"/><path d="M-105.15053153466138,-121.99401357556194L-62.54284162656885,-139.57838348838268L-104.48017254647577,-125.28946992658774z" style="fill:rgb(80,200,221)"/><path d="M-70.48794867980908,16.584410020636543L-21.285715945063217,-29.245431213572168L-80.53117861703272,-10.953043640934204z" style="fill:rgb(107,88,247)"/><path d="M-104.36879346008651,-114.7957803458448L-61.718079392410196,-136.75728882049526L-105.15053153466138,-121.99401357556194z" style="fill:rgb(89,147,247)"/><path d="M102.73834709826063,-57.628129039389634L85.99476535944193,-69.07967361355172L51.142889392868526,-48.6319896258184z" style="fill:rgb(94,27,198)"/><path d="M-70.48794867980908,16.584410020636543L-10.202629786169545,-1.5484152295360312L-21.285715945063217,-29.245431213572168z" style="fill:rgb(107,88,247)"/><path d="M-10.202629786169545,-1.5484152295360312L49.10593202465178,-28.81810609377677L37.238525922440296,-55.918941828094525z" style="fill:rgb(153,105,250)"/><path d="M-97.0432588620795,-78.25670428430344L-59.321755965215345,-130.0196720779839L-104.36879346008651,-114.7957803458448z" style="fill:rgb(95,125,250)"/><path d="M85.99476535944193,-69.07967361355172L80.15091066710507,-89.51643465703901L49.194811993194634,-74.63978348035232z" style="fill:rgb(31,120,211)"/><path d="M-80.53117861703272,-10.953043640934204L-33.44551962203014,-60.865066900014334L-89.25139592278833,-43.12587387510899z" style="fill:rgb(100,108,250)"/><path d="M-105.15053153466138,-121.99401357556194L-61.718079392410196,-136.75728882049526L-62.54284162656885,-139.57838348838268z" style="fill:rgb(80,200,221)"/><path d="M-61.718079392410196,-136.75728882049526L-18.24046770095816,-155.90421947778015L-20.557572109641576,-158.05191924814568z" style="fill:rgb(102,208,222)"/><path d="M-89.25139592278833,-43.12587387510899L-46.24695137971341,-94.9042469153641L-97.0432588620795,-78.25670428430344z" style="fill:rgb(96,120,251)"/><path d="M-61.718079392410196,-136.75728882049526L-20.557572109641576,-158.05191924814568L-62.54284162656885,-139.57838348838268z" style="fill:rgb(102,208,222)"/><path d="M-104.36879346008651,-114.7957803458448L-59.321755965215345,-130.0196720779839L-61.718079392410196,-136.75728882049526z" style="fill:rgb(89,147,247)"/><path d="M-59.321755965215345,-130.0196720779839L-14.259389066880876,-149.90746911608474L-18.24046770095816,-155.90421947778015zM-59.321755965215345,-130.0196720779839L-18.24046770095816,-155.90421947778015L-61.718079392410196,-136.75728882049526z" style="fill:rgb(127,161,250)"/><path d="M-10.202629786169545,-1.5484152295360312L37.238525922440296,-55.918941828094525L-21.285715945063217,-29.245431213572168z" style="fill:rgb(153,105,250)"/><path d="M-80.53117861703272,-10.953043640934204L-21.285715945063217,-29.245431213572168L-33.44551962203014,-60.865066900014334z" style="fill:rgb(100,108,250)"/><path d="M-97.0432588620795,-78.25670428430344L-46.24695137971341,-94.9042469153641L-59.321755965215345,-130.0196720779839z" style="fill:rgb(95,125,250)"/><path d="M-21.285715945063217,-29.245431213572168L37.238525922440296,-55.918941828094525L21.911379639445897,-85.8429573785535z" style="fill:rgb(144,125,253)"/><path d="M-46.24695137971341,-94.9042469153641L4.3529902464298225,-117.48918486210238L-14.259389066880876,-149.90746911608474z" style="fill:rgb(137,141,253)"/><path d="M135.56328579746787,-119.43405807389033L128.35728927284407,-105.62275487236181L123.5755444012568,-63.876455669563235z" style="fill:rgb(244,94,164)"/><path d="M128.35728927284407,-105.62275487236181L102.73834709826063,-57.628129039389634L123.5755444012568,-63.876455669563235z" style="fill:rgb(208,63,202)"/><path d="M-89.25139592278833,-43.12587387510899L-33.44551962203014,-60.865066900014334L-46.24695137971341,-94.9042469153641z" style="fill:rgb(96,120,251)"/><path d="M-46.24695137971341,-94.9042469153641L-14.259389066880876,-149.90746911608474L-59.321755965215345,-130.0196720779839z" style="fill:rgb(137,141,253)"/><path d="M-33.44551962203014,-60.865066900014334L21.911379639445897,-85.8429573785535L4.3529902464298225,-117.48918486210238z" style="fill:rgb(139,136,254)"/><path d="M-21.285715945063217,-29.245431213572168L21.911379639445897,-85.8429573785535L-33.44551962203014,-60.865066900014334z" style="fill:rgb(144,125,253)"/><path d="M-33.44551962203014,-60.865066900014334L4.3529902464298225,-117.48918486210238L-46.24695137971341,-94.9042469153641z" style="fill:rgb(139,136,254)"/><path d="M111.23176511834777,-99.80247956736743L85.99476535944193,-69.07967361355172L102.73834709826063,-57.628129039389634z" style="fill:rgb(127,56,233)"/><path d="M96.38202342195366,-105.66682656191804L80.15091066710507,-89.51643465703901L85.99476535944193,-69.07967361355172z" style="fill:rgb(19,113,193)"/><path d="M128.35728927284407,-105.62275487236181L111.23176511834777,-99.80247956736743L102.73834709826063,-57.628129039389634z" style="fill:rgb(205,63,205)"/><path d="M129.77451701196009,-159.2608827080817L128.35728927284407,-105.62275487236181L135.56328579746787,-119.43405807389033z" style="fill:rgb(241,112,181)"/><path d="M96.38202342195366,-105.66682656191804L90.0287551493292,-118.13500058868844L80.15091066710507,-89.51643465703901z" style="fill:rgb(18,116,192)"/><path d="M111.23176511834777,-99.80247956736743L96.38202342195366,-105.66682656191804L85.99476535944193,-69.07967361355172z" style="fill:rgb(117,62,236)"/><path d="M125.8787143488474,-151.63094160367254L111.23176511834777,-99.80247956736743L128.35728927284407,-105.62275487236181z" style="fill:rgb(206,79,215)"/><path d="M129.77451701196009,-159.2608827080817L125.8787143488474,-151.63094160367254L128.35728927284407,-105.62275487236181z" style="fill:rgb(247,115,169)"/><path d="M99.3465663722996,-146.51492445051358L90.0287551493292,-118.13500058868844L96.38202342195366,-105.66682656191804z" style="fill:rgb(13,107,180)"/><path d="M99.3465663722996,-146.51492445051358L92.23686179047198,-151.24974134122073L90.0287551493292,-118.13500058868844z" style="fill:rgb(15,104,183)"/><path d="M112.498388532033,-146.16515471928852L96.38202342195366,-105.66682656191804L111.23176511834777,-99.80247956736743z" style="fill:rgb(120,68,240)"/><path d="M125.8787143488474,-151.63094160367254L112.498388532033,-146.16515471928852L111.23176511834777,-99.80247956736743z" style="fill:rgb(195,79,223)"/><path d="M112.498388532033,-146.16515471928852L99.3465663722996,-146.51492445051358L96.38202342195366,-105.66682656191804z" style="fill:rgb(94,77,240)"/><path d="M101.86765686597414,-180.10820849701494L102.31333132421989,-184.10019443511902L96.51817826168882,-158.83811198219806z" style="fill:rgb(2,153,123)"/><path d="M146.1125259275493,-195.11295481358252L125.8787143488474,-151.63094160367254L129.77451701196009,-159.2608827080817z" style="fill:rgb(242,72,135)"/><path d="M109.41059855068825,-185.24270863861682L118.095630621606,-188.97451483183326L121.47403279609571,-193.70331377549857z" style="fill:rgb(177,23,182)"/><path d="M114.41472461515453,-180.73939360172326L92.23686179047198,-151.24974134122073L99.3465663722996,-146.51492445051358z" style="fill:rgb(16,113,188)"/><path d="M106.69617356945386,-184.99342889837075L106.2284965253042,-188.36906624738822L102.31333132421989,-184.10019443511902z" style="fill:rgb(22,196,149)"/><path d="M109.41059855068825,-185.24270863861682L121.47403279609571,-193.70331377549857L111.1438700827122,-189.17589943851976z" style="fill:rgb(170,27,194)"/><path d="M111.1438700827122,-189.17589943851976L121.93158445156672,-195.56435961670417L109.62935809143785,-190.1472398713167z" style="fill:rgb(110,168,247)"/><path d="M111.1438700827122,-189.17589943851976L121.47403279609571,-193.70331377549857L121.93158445156672,-195.56435961670417z" style="fill:rgb(105,175,243)"/><path d="M106.69617356945386,-184.99342889837075L102.31333132421989,-184.10019443511902L101.86765686597414,-180.10820849701494z" style="fill:rgb(27,203,149)"/><path d="M114.41472461515453,-180.73939360172326L101.86765686597414,-180.10820849701494L92.23686179047198,-151.24974134122073z" style="fill:rgb(22,98,194)"/><path d="M118.095630621606,-188.97451483183326L135.70932675274673,-197.54086787029078L121.47403279609571,-193.70331377549857z" style="fill:rgb(68,60,218)"/><path d="M110.64177213985128,-187.52523180019722L109.62935809143785,-190.1472398713167L106.2284965253042,-188.36906624738822z" style="fill:rgb(48,221,162)"/><path d="M118.095630621606,-188.97451483183326L129.45538693125903,-191.60304279126174L135.70932675274673,-197.54086787029078z" style="fill:rgb(76,48,213)"/><path d="M112.13322356567633,-187.03629453547512L111.1438700827122,-189.17589943851976L109.62935809143785,-190.1472398713167z" style="fill:rgb(188,231,168)"/><path d="M121.47403279609571,-193.70331377549857L138.77161679031926,-200.118895077803L121.93158445156672,-195.56435961670417z" style="fill:rgb(52,180,216)"/><path d="M146.26050270301582,-191.17470505237085L112.498388532033,-146.16515471928852L125.8787143488474,-151.63094160367254z" style="fill:rgb(195,32,178)"/><path d="M132.12239628332333,-184.8747939931133L99.3465663722996,-146.51492445051358L112.498388532033,-146.16515471928852z" style="fill:rgb(98,41,216)"/><path d="M110.64177213985128,-187.52523180019722L106.2284965253042,-188.36906624738822L106.69617356945386,-184.99342889837075z" style="fill:rgb(50,222,162)"/><path d="M121.47403279609571,-193.70331377549857L135.70932675274673,-197.54086787029078L138.77161679031926,-200.118895077803z" style="fill:rgb(52,183,214)"/><path d="M112.13322356567633,-187.03629453547512L109.62935809143785,-190.1472398713167L110.64177213985128,-187.52523180019722z" style="fill:rgb(180,235,170)"/><path d="M129.45538693125903,-191.60304279126174L147.1660786904728,-199.229512724875L135.70932675274673,-197.54086787029078z" style="fill:rgb(23,131,201)"/><path d="M129.45538693125903,-191.60304279126174L138.20956539041774,-192.25289322906852L147.1660786904728,-199.229512724875z" style="fill:rgb(23,132,200)"/><path d="M120.4885822017197,-186.40396707710616L106.69617356945386,-184.99342889837075L101.86765686597414,-180.10820849701494z" style="fill:rgb(22,129,200)"/><path d="M132.12239628332333,-184.8747939931133L114.41472461515453,-180.73939360172326L99.3465663722996,-146.51492445051358z" style="fill:rgb(74,58,220)"/><path d="M135.70932675274673,-197.54086787029078L152.31822329284867,-202.09695712152575L138.77161679031926,-200.118895077803z" style="fill:rgb(45,202,190)"/><path d="M123.76394983259924,-189.30863657077973L110.64177213985128,-187.52523180019722L106.69617356945386,-184.99342889837075z" style="fill:rgb(43,199,191)"/><path d="M120.4885822017197,-186.40396707710616L101.86765686597414,-180.10820849701494L114.41472461515453,-180.73939360172326z" style="fill:rgb(22,137,199)"/><path d="M146.26050270301582,-191.17470505237085L132.12239628332333,-184.8747939931133L112.498388532033,-146.16515471928852z" style="fill:rgb(180,30,191)"/><path d="M135.70932675274673,-197.54086787029078L147.1660786904728,-199.229512724875L152.31822329284867,-202.09695712152575z" style="fill:rgb(45,201,190)"/><path d="M123.76394983259924,-189.30863657077973L106.69617356945386,-184.99342889837075L120.4885822017197,-186.40396707710616z" style="fill:rgb(41,195,193)"/><path d="M138.20956539041774,-192.25289322906852L138.70291896328618,-189.95810304014515L148.55449494568512,-197.14536384094743z" style="fill:rgb(34,209,156)"/><path d="M138.20956539041774,-192.25289322906852L148.55449494568512,-197.14536384094743L147.1660786904728,-199.229512724875z" style="fill:rgb(33,208,157)"/><path d="M139.21315113854683,-191.12351386576435L120.4885822017197,-186.40396707710616L114.41472461515453,-180.73939360172326z" style="fill:rgb(75,49,214)"/><path d="M139.21315113854683,-191.12351386576435L114.41472461515453,-180.73939360172326L132.12239628332333,-184.8747939931133z" style="fill:rgb(86,36,207)"/><path d="M147.1660786904728,-199.229512724875L153.8929811683032,-199.55279934297712L152.31822329284867,-202.09695712152575z" style="fill:rgb(54,225,163)"/><path d="M141.10315767018508,-193.92041875265375L123.76394983259924,-189.30863657077973L120.4885822017197,-186.40396707710616z" style="fill:rgb(51,171,219)"/><path d="M153.4675631557806,-197.41959115016508L132.12239628332333,-184.8747939931133L146.26050270301582,-191.17470505237085z" style="fill:rgb(182,14,147)"/><path d="M147.1660786904728,-199.229512724875L148.55449494568512,-197.14536384094743L153.8929811683032,-199.55279934297712z" style="fill:rgb(53,224,163)"/><path d="M141.10315767018508,-193.92041875265375L120.4885822017197,-186.40396707710616L139.21315113854683,-191.12351386576435z" style="fill:rgb(51,143,228)"/><path d="M153.4675631557806,-197.41959115016508L139.21315113854683,-191.12351386576435L132.12239628332333,-184.8747939931133z" style="fill:rgb(179,14,153)"/><path d="M153.8929811683032,-199.55279934297712L139.21315113854683,-191.12351386576435L153.4675631557806,-197.41959115016508z" style="fill:rgb(170,44,214)"/><path d="M153.8929811683032,-199.55279934297712L141.10315767018508,-193.92041875265375L139.21315113854683,-191.12351386576435z" style="fill:rgb(152,71,239)"/></svg>