<svg viewBox="-250 -250 500 500" width="500" height="500" xmlns="http://www.w3.org/2000/svg"><path d="M-65.95765749914995,-29.94180698317172L9.621714930719651,-94.75795418896607L2.99863578375829,-91.9969194403611zM-65.95765749914995,-29.94180698317172L16.357555834380207,-97.14278983910111L9.621714930719651,-94.75795418896607zM-65.95765749914995,-29.94180698317172L2.99863578375829,-91.9969194403611L-3.28181889655807,-88.95525176017519zM-65.95765749914995,-29.94180698317172L22.971962532774537,-99.06711370284633L16.357555834380207,-97.14278983910111zM-65.95765749914995,-29.94180698317172L-3.28181889655807,-88.95525176017519L-8.999326606069998,-85.7378675316214zM-65.95765749914995,-29.94180698317172L29.2323169486425,-100.46042543597343L22.971962532774537,-99.06711370284633zM-65.95765749914995,-29.94180698317172L-8.999326606069998,-85.7378675316214L-13.948484417725778,-82.45637760856982zM-65.95765749914995,-29.94180698317172L34.91307290498432,-101.2677134700456L29.2323169486425,-100.46042543597343z" style="fill:rgb(82,237,172)"/><path d="M-12.07192883110663,102.47624318795911L-71.5955296280071,-32.519216703270295L-14.474996266437493,100.06499026014139z" style="fill:rgb(16,71,153)"/><path d="M-65.95765749914995,-29.94180698317172L-13.948484417725778,-82.45637760856982L-61.88166540515064,-47.58176438916631zM-65.95765749914995,-29.94180698317172L91.96250054341188,-106.6357316502804L34.91307290498432,-101.2677134700456z" style="fill:rgb(82,237,172)"/><path d="M155.39602998705598,33.36986186881106L107.76191220598372,-101.2257697484172L156.24148774817345,36.48847890825396z" style="fill:rgb(246,167,147)"/><path d="M-65.95765749914995,-29.94180698317172L-12.07192883110663,102.47624318795911L-8.403145600065967,104.19612559185467z" style="fill:rgb(26,66,176)"/><path d="M155.67059630824818,40.04562449374772L156.24148774817345,36.48847890825396L107.76191220598372,-101.2257697484172z" style="fill:rgb(243,157,170)"/><path d="M-65.95765749914995,-29.94180698317172L-8.403145600065967,104.19612559185467L-3.5934778984325084,105.14234022197547z" style="fill:rgb(40,64,196)"/><path d="M-65.95765749914995,-29.94180698317172L-61.88166540515064,-47.58176438916631L-66.2979909384753,-44.03189979301211z" style="fill:rgb(82,237,172)"/><path d="M-12.07192883110663,102.47624318795911L-69.45504427632426,-30.889944849628876L-71.5955296280071,-32.519216703270295z" style="fill:rgb(16,71,153)"/><path d="M155.67059630824818,40.04562449374772L104.4371535414657,-95.1591214375505L153.67936010959133,43.90647887132635z" style="fill:rgb(236,146,191)"/><path d="M-65.95765749914995,-29.94180698317172L-66.2979909384753,-44.03189979301211L-69.59716623982101,-40.62640568210707z" style="fill:rgb(82,237,172)"/><path d="M155.39602998705598,33.36986186881106L107.20746689393098,-103.55671373810037L107.76191220598372,-101.2257697484172z" style="fill:rgb(246,167,147)"/><path d="M-65.95765749914995,-29.94180698317172L-69.45504427632426,-30.889944849628876L-12.07192883110663,102.47624318795911z" style="fill:rgb(26,66,176)"/><path d="M-65.95765749914995,-29.94180698317172L97.43434167944805,-106.8604679190515L91.96250054341188,-106.6357316502804z" style="fill:rgb(82,237,172)"/><path d="M153.67936010959133,43.90647887132635L100.63734781986426,-91.65293436877174L150.32506650767897,47.918484820283375z" style="fill:rgb(224,133,209)"/><path d="M-65.95765749914995,-29.94180698317172L-69.59716623982101,-40.62640568210707L-71.6390066320385,-37.49252145556504zM-65.95765749914995,-29.94180698317172L101.91669237853732,-106.41546378337749L97.43434167944805,-106.8604679190515zM-65.95765749914995,-29.94180698317172L-71.6390066320385,-37.49252145556504L-72.3231303426538,-34.75262613309821z" style="fill:rgb(82,237,172)"/><path d="M155.67059630824818,40.04562449374772L107.76191220598372,-101.2257697484172L106.83589374553154,-98.39180495316269z" style="fill:rgb(243,157,170)"/><path d="M-65.95765749914995,-29.94180698317172L-3.5934778984325084,105.14234022197547L-61.218846077331285,-29.7264607371403z" style="fill:rgb(40,64,196)"/><path d="M-65.95765749914995,-29.94180698317172L105.22416311693752,-105.30473832199812L101.91669237853732,-106.41546378337749z" style="fill:rgb(82,237,172)"/><path d="M53.635541666040105,110.94075059889005L-61.218846077331285,-29.7264607371403L-3.5934778984325084,105.14234022197547z" style="fill:rgb(49,63,205)"/><path d="M-65.95765749914995,-29.94180698317172L-72.3231303426538,-34.75262613309821L-71.5955296280071,-32.519216703270295z" style="fill:rgb(82,237,172)"/><path d="M155.67059630824818,40.04562449374772L106.83589374553154,-98.39180495316269L104.4371535414657,-95.1591214375505z" style="fill:rgb(236,146,191)"/><path d="M-65.95765749914995,-29.94180698317172L107.20746689393098,-103.55671373810037L105.22416311693752,-105.30473832199812zM-65.95765749914995,-29.94180698317172L-71.5955296280071,-32.519216703270295L-69.45504427632426,-30.889944849628876z" style="fill:rgb(82,237,172)"/><path d="M153.67936010959133,43.90647887132635L104.4371535414657,-95.1591214375505L100.63734781986426,-91.65293436877174z" style="fill:rgb(224,133,209)"/><path d="M100.63734781986426,-91.65293436877174L107.6133215324464,90.97325233146412L150.32506650767897,47.918484820283375z" style="fill:rgb(217,127,217)"/><path d="M-65.95765749914995,-29.94180698317172L107.76191220598372,-101.2257697484172L107.20746689393098,-103.55671373810037zM-65.95765749914995,-29.94180698317172L106.83589374553154,-98.39180495316269L107.76191220598372,-101.2257697484172zM-65.95765749914995,-29.94180698317172L104.4371535414657,-95.1591214375505L106.83589374553154,-98.39180495316269zM-65.95765749914995,-29.94180698317172L100.63734781986426,-91.65293436877174L104.4371535414657,-95.1591214375505zM-65.95765749914995,-29.94180698317172L-61.218846077331285,-29.7264607371403L-4.0129592122301485,-31.461506283253435z" style="fill:rgb(82,237,172)"/><path d="M53.635541666040105,110.94075059889005L-4.0129592122301485,-31.461506283253435L-61.218846077331285,-29.7264607371403z" style="fill:rgb(49,63,205)"/><path d="M-65.95765749914995,-29.94180698317172L52.901517020122846,-53.157979238775724L100.63734781986426,-91.65293436877174z" style="fill:rgb(82,237,172)"/><path d="M2.4341012090790586,-32.04129584763597L53.635541666040105,110.94075059889005L60.01036532995808,111.097339883372z" style="fill:rgb(58,64,214)"/><path d="M102.61561068643512,95.34413443460755L107.6133215324464,90.97325233146412L52.901517020122846,-53.157979238775724z" style="fill:rgb(209,121,224)"/><path d="M100.63734781986426,-91.65293436877174L52.901517020122846,-53.157979238775724L107.6133215324464,90.97325233146412z" style="fill:rgb(217,127,217)"/><path d="M2.4341012090790586,-32.04129584763597L60.01036532995808,111.097339883372L67.10271853495694,110.35916469524282z" style="fill:rgb(78,66,228)"/><path d="M102.61561068643512,95.34413443460755L40.77311575242373,-45.24081309219288L96.55036304952534,99.47476245962636z" style="fill:rgb(191,108,236)"/><path d="M17.515293069651968,-35.50749035292588L67.10271853495694,110.35916469524282L74.62155536230112,108.74731595089271z" style="fill:rgb(101,71,238)"/><path d="M17.515293069651968,-35.50749035292588L74.62155536230112,108.74731595089271L82.25084536743903,106.3234168335003z" style="fill:rgb(124,78,245)"/><path d="M33.386649625800615,-41.55329640701472L89.66565049001673,103.18793830295638L96.55036304952534,99.47476245962636z" style="fill:rgb(170,97,243)"/><path d="M82.25084536743903,106.3234168335003L89.66565049001673,103.18793830295638L33.386649625800615,-41.55329640701472z" style="fill:rgb(147,87,246)"/><path d="M-65.95765749914995,-29.94180698317172L-4.0129592122301485,-31.461506283253435L2.4341012090790586,-32.04129584763597z" style="fill:rgb(82,237,172)"/><path d="M2.4341012090790586,-32.04129584763597L-4.0129592122301485,-31.461506283253435L53.635541666040105,110.94075059889005z" style="fill:rgb(58,64,214)"/><path d="M-65.95765749914995,-29.94180698317172L47.36849519444809,-49.165036832602055L52.901517020122846,-53.157979238775724zM-65.95765749914995,-29.94180698317172L2.4341012090790586,-32.04129584763597L9.709703193062387,-33.40611959286882zM-65.95765749914995,-29.94180698317172L40.77311575242373,-45.24081309219288L47.36849519444809,-49.165036832602055zM-65.95765749914995,-29.94180698317172L9.709703193062387,-33.40611959286882L17.515293069651968,-35.50749035292588zM-65.95765749914995,-29.94180698317172L33.386649625800615,-41.55329640701472L40.77311575242373,-45.24081309219288z" style="fill:rgb(82,237,172)"/><path d="M102.61561068643512,95.34413443460755L52.901517020122846,-53.157979238775724L47.36849519444809,-49.165036832602055z" style="fill:rgb(209,121,224)"/><path d="M-65.95765749914995,-29.94180698317172L17.515293069651968,-35.50749035292588L25.521814478083545,-38.26177201028159zM-65.95765749914995,-29.94180698317172L25.521814478083545,-38.26177201028159L33.386649625800615,-41.55329640701472z" style="fill:rgb(82,237,172)"/><path d="M2.4341012090790586,-32.04129584763597L67.10271853495694,110.35916469524282L9.709703193062387,-33.40611959286882z" style="fill:rgb(78,66,228)"/><path d="M102.61561068643512,95.34413443460755L47.36849519444809,-49.165036832602055L40.77311575242373,-45.24081309219288z" style="fill:rgb(191,108,236)"/><path d="M17.515293069651968,-35.50749035292588L9.709703193062387,-33.40611959286882L67.10271853495694,110.35916469524282z" style="fill:rgb(101,71,238)"/><path d="M33.386649625800615,-41.55329640701472L96.55036304952534,99.47476245962636L40.77311575242373,-45.24081309219288z" style="fill:rgb(170,97,243)"/><path d="M17.515293069651968,-35.50749035292588L82.25084536743903,106.3234168335003L25.521814478083545,-38.26177201028159z" style="fill:rgb(124,78,245)"/><path d="M82.25084536743903,106.3234168335003L33.386649625800615,-41.55329640701472L25.521814478083545,-38.26177201028159z" style="fill:rgb(147,87,246)"/></svg>