<svg viewBox="-250 -250 500 500" width="500" height="500" xmlns="http://www.w3.org/2000/svg"><path d="M-31.191754422525147,-95.04770829086132L-37.977270336615284,-90.26969750291012L-27.63119194345476,-70.56943904071113zM-27.63119194345476,-70.56943904071113L-37.977270336615284,-90.26969750291012L-126.78459564562256,-27.737938060584174z" style="fill:rgb(82,237,172)"/><path d="M100.21300336517233,-2.939136721938172L104.31025924129085,37.699929130943985L114.01808185381022,34.520178188518976z" style="fill:rgb(124,78,245)"/><path d="M73.12973983267369,-98.87511712334769L119.8432743877434,28.96222321230861L122.18191601376303,26.73096365733663zM71.21395755549554,-88.19527510980627L115.72700782580236,32.88980497916L119.8432743877434,28.96222321230861zM70.4214055017986,-83.7771444013044L114.01808185381022,34.520178188518976L115.72700782580236,32.88980497916z" style="fill:rgb(217,127,217)"/><path d="M104.31025924129085,37.699929130943985L41.061723485821844,-88.60057197883707L91.04584350890865,43.288653200919796z" style="fill:rgb(147,87,246)"/><path d="M91.04584350890865,43.288653200919796L27.883235081165083,-82.15236480648545L78.67150705832312,49.792688698705z" style="fill:rgb(170,97,243)"/><path d="M-16.56917279863168,-49.50598010989623L45.942265871849415,-102.30557465630046L-31.191754422525147,-95.04770829086132zM-16.56917279863168,-49.50598010989623L-31.191754422525147,-95.04770829086132L-27.63119194345476,-70.56943904071113z" style="fill:rgb(82,237,172)"/><path d="M100.21300336517233,-2.939136721938172L55.041655873511324,-94.43550428966932L104.31025924129085,37.699929130943985z" style="fill:rgb(124,78,245)"/><path d="M78.67150705832312,49.792688698705L15.920287140510094,-75.2839645307554L67.58120598797943,57.01658100310266z" style="fill:rgb(191,108,236)"/><path d="M73.12973983267369,-98.87511712334769L122.18191601376303,26.73096365733663L74.22256435646248,-104.96658783963665zM71.21395755549554,-88.19527510980627L119.8432743877434,28.96222321230861L73.12973983267369,-98.87511712334769z" style="fill:rgb(217,127,217)"/><path d="M67.58120598797943,57.01658100310266L5.568830020843929,-68.20466518963018L58.14806761407298,64.7423160393942z" style="fill:rgb(209,121,224)"/><path d="M70.4214055017986,-83.7771444013044L115.72700782580236,32.88980497916L71.21395755549554,-88.19527510980627z" style="fill:rgb(217,127,217)"/><path d="M55.041655873511324,-94.43550428966932L41.061723485821844,-88.60057197883707L104.31025924129085,37.699929130943985z" style="fill:rgb(147,87,246)"/><path d="M71.6331394607243,-102.97106647802359L56.944383341283256,-103.34079621128076L52.50395907217428,-100.30397032268341z" style="fill:rgb(82,237,172)"/><path d="M41.061723485821844,-88.60057197883707L27.883235081165083,-82.15236480648545L91.04584350890865,43.288653200919796z" style="fill:rgb(170,97,243)"/><path d="M56.944383341283256,-103.34079621128076L45.942265871849415,-102.30557465630046L5.568830020843929,-68.20466518963018zM71.6331394607243,-102.97106647802359L74.22256435646248,-104.96658783963665L56.944383341283256,-103.34079621128076z" style="fill:rgb(82,237,172)"/><path d="M27.883235081165083,-82.15236480648545L15.920287140510094,-75.2839645307554L78.67150705832312,49.792688698705z" style="fill:rgb(191,108,236)"/><path d="M65.18036074892944,-97.99832774004182L55.041655873511324,-94.43550428966932L100.21300336517233,-2.939136721938172z" style="fill:rgb(124,78,245)"/><path d="M58.14806761407298,64.7423160393942L-2.7980014408922993,-61.13756441048578L50.71700747775433,72.72923158127452z" style="fill:rgb(224,133,209)"/><path d="M52.50395907217428,-100.30397032268341L67.0736755088769,-99.45751148940245L71.6331394607243,-102.97106647802359z" style="fill:rgb(82,237,172)"/><path d="M73.12973983267369,-98.87511712334769L74.22256435646248,-104.96658783963665L71.6331394607243,-102.97106647802359z" style="fill:rgb(217,127,217)"/><path d="M52.50395907217428,-100.30397032268341L26.512291351624746,-82.5279875346881L67.0736755088769,-99.45751148940245z" style="fill:rgb(82,237,172)"/><path d="M71.6331394607243,-102.97106647802359L71.21395755549554,-88.19527510980627L73.12973983267369,-98.87511712334769z" style="fill:rgb(217,127,217)"/><path d="M15.920287140510094,-75.2839645307554L5.568830020843929,-68.20466518963018L67.58120598797943,57.01658100310266z" style="fill:rgb(209,121,224)"/><path d="M71.6331394607243,-102.97106647802359L67.0736755088769,-99.45751148940245L71.21395755549554,-88.19527510980627zM65.18036074892944,-97.99832774004182L70.4214055017986,-83.7771444013044L71.21395755549554,-88.19527510980627zM65.18036074892944,-97.99832774004182L71.21395755549554,-88.19527510980627L67.0736755088769,-99.45751148940245z" style="fill:rgb(217,127,217)"/><path d="M50.71700747775433,72.72923158127452L-8.840707204636526,-54.31920705058555L45.59605865518382,80.71651473901643z" style="fill:rgb(236,146,191)"/><path d="M-69.61674728512963,98.45297696694435L-21.863910994662444,-30.92017431955361L-126.78459564562256,-27.737938060584174z" style="fill:rgb(49,63,205)"/><path d="M65.18036074892944,-97.99832774004182L67.0736755088769,-99.45751148940245L55.041655873511324,-94.43550428966932zM41.061723485821844,-88.60057197883707L33.93088362718816,-85.62434966296327L27.883235081165083,-82.15236480648545z" style="fill:rgb(82,237,172)"/><path d="M5.568830020843929,-68.20466518963018L-2.7980014408922993,-61.13756441048578L58.14806761407298,64.7423160393942z" style="fill:rgb(224,133,209)"/><path d="M15.920287140510094,-75.2839645307554L33.93088362718816,-85.62434966296327L26.512291351624746,-82.5279875346881z" style="fill:rgb(82,237,172)"/><path d="M45.59605865518382,80.71651473901643L-12.266011709521676,-47.99488222009536L43.04251010766907,88.42511933364965z" style="fill:rgb(243,157,170)"/><path d="M-27.63119194345476,-70.56943904071113L-126.78459564562256,-27.737938060584174L-21.863910994662444,-30.92017431955361z" style="fill:rgb(82,237,172)"/><path d="M-2.7980014408922993,-61.13756441048578L-8.840707204636526,-54.31920705058555L50.71700747775433,72.72923158127452z" style="fill:rgb(236,146,191)"/><path d="M15.920287140510094,-75.2839645307554L-8.840707204636526,-54.31920705058555L27.883235081165083,-82.15236480648545z" style="fill:rgb(82,237,172)"/><path d="M35.81485628604721,109.13525307499374L-21.863910994662444,-30.92017431955361L-69.61674728512963,98.45297696694435z" style="fill:rgb(49,63,205)"/><path d="M-2.7980014408922993,-61.13756441048578L15.920287140510094,-75.2839645307554L5.568830020843929,-68.20466518963018zM27.883235081165083,-82.15236480648545L-12.266011709521676,-47.99488222009536L41.061723485821844,-88.60057197883707zM41.061723485821844,-88.60057197883707L-12.844431993867918,-42.413541025963895L55.041655873511324,-94.43550428966932zM15.920287140510094,-75.2839645307554L-2.7980014408922993,-61.13756441048578L-8.840707204636526,-54.31920705058555z" style="fill:rgb(82,237,172)"/><path d="M43.04251010766907,88.42511933364965L-12.844431993867918,-42.413541025963895L43.247227261951515,95.5648074308848z" style="fill:rgb(246,167,147)"/><path d="M-8.840707204636526,-54.31920705058555L-12.266011709521676,-47.99488222009536L45.59605865518382,80.71651473901643z" style="fill:rgb(243,157,170)"/><path d="M39.891253985162464,86.4115244552192L35.81485628604721,109.13525307499374L45.40661011993985,99.98347884467488z" style="fill:rgb(217,127,217)"/><path d="M55.041655873511324,-94.43550428966932L-10.431093068886552,-37.81817301309048L69.39583037094144,-99.47972969322598zM27.883235081165083,-82.15236480648545L-8.840707204636526,-54.31920705058555L-12.266011709521676,-47.99488222009536zM69.39583037094144,-99.47972969322598L-4.988338833341853,-34.43434884179758L83.68531372301901,-103.57272112181022zM-2.7980014408922993,-61.13756441048578L-11.681777507667856,-53.63402991765162L-11.977524298326548,-50.779809962172344z" style="fill:rgb(82,237,172)"/><path d="M-12.266011709521676,-47.99488222009536L-12.844431993867918,-42.413541025963895L43.04251010766907,88.42511933364965z" style="fill:rgb(246,167,147)"/><path d="M46.31490406125473,101.84212863945552L-10.431093068886552,-37.81817301309048L43.247227261951515,95.5648074308848z" style="fill:rgb(9,78,130)"/><path d="M41.061723485821844,-88.60057197883707L-12.266011709521676,-47.99488222009536L-12.844431993867918,-42.413541025963895zM83.68531372301901,-103.57272112181022L3.3922232596636053,-32.45447547892043L97.4628350510293,-106.57244237765198zM-12.266011709521676,-47.99488222009536L-8.840707204636526,-54.31920705058555L-11.977524298326548,-50.779809962172344zM-27.63119194345476,-70.56943904071113L-21.863910994662444,-30.92017431955361L-11.14604468673246,-39.17957211112373z" style="fill:rgb(82,237,172)"/><path d="M39.891253985162464,86.4115244552192L-21.863910994662444,-30.92017431955361L35.81485628604721,109.13525307499374z" style="fill:rgb(217,127,217)"/><path d="M-12.844431993867918,-42.413541025963895L-11.681777507667856,-53.63402991765162L-16.56917279863168,-49.50598010989623zM55.041655873511324,-94.43550428966932L-12.844431993867918,-42.413541025963895L-10.431093068886552,-37.81817301309048z" style="fill:rgb(82,237,172)"/><path d="M43.247227261951515,95.5648074308848L-10.431093068886552,-37.81817301309048L-12.844431993867918,-42.413541025963895z" style="fill:rgb(9,78,130)"/><path d="M52.2448284770513,106.97314077068891L-4.988338833341853,-34.43434884179758L46.31490406125473,101.84212863945552z" style="fill:rgb(16,71,153)"/><path d="M97.4628350510293,-106.57244237765198L14.474277515547504,-32.02230332882206L110.27577893826438,-108.35898708299648z" style="fill:rgb(82,237,172)"/><path d="M193.67266364252706,47.211906046642916L144.8128991765976,-97.09329876087628L192.96633833326453,54.87399651382149z" style="fill:rgb(243,157,170)"/><path d="M69.39583037094144,-99.47972969322598L-10.431093068886552,-37.81817301309048L-4.988338833341853,-34.43434884179758z" style="fill:rgb(82,237,172)"/><path d="M39.891253985162464,86.4115244552192L-11.14604468673246,-39.17957211112373L-21.863910994662444,-30.92017431955361z" style="fill:rgb(217,127,217)"/><path d="M110.27577893826438,-108.35898708299648L27.867828801013538,-33.214818291227616L121.67288444327622,-108.8381186980202z" style="fill:rgb(82,237,172)"/><path d="M60.91226232983851,110.69940517694688L3.3922232596636053,-32.45447547892043L52.2448284770513,106.97314077068891z" style="fill:rgb(26,66,176)"/><path d="M46.31490406125473,101.84212863945552L-4.988338833341853,-34.43434884179758L-10.431093068886552,-37.81817301309048z" style="fill:rgb(16,71,153)"/><path d="M83.68531372301901,-103.57272112181022L-4.988338833341853,-34.43434884179758L3.3922232596636053,-32.45447547892043z" style="fill:rgb(82,237,172)"/><path d="M192.96633833326453,54.87399651382149L143.37370294142843,-91.02603576856595L189.1878958492778,63.269226755472346z" style="fill:rgb(236,146,191)"/><path d="M121.67288444327622,-108.8381186980202L43.035864809925194,-36.030048303056866L131.21379918085788,-107.94837382441976z" style="fill:rgb(82,237,172)"/><path d="M72.05581823190475,112.80716918817045L14.474277515547504,-32.02230332882206L60.91226232983851,110.69940517694688z" style="fill:rgb(40,64,196)"/><path d="M52.2448284770513,106.97314077068891L3.3922232596636053,-32.45447547892043L-4.988338833341853,-34.43434884179758z" style="fill:rgb(26,66,176)"/><path d="M192.96633833326453,54.87399651382149L144.8128991765976,-97.09329876087628L143.37370294142843,-91.02603576856595z" style="fill:rgb(243,157,170)"/><path d="M97.4628350510293,-106.57244237765198L3.3922232596636053,-32.45447547892043L14.474277515547504,-32.02230332882206z" style="fill:rgb(82,237,172)"/><path d="M189.1878958492778,63.269226755472346L138.72729606777162,-84.02876477982139L182.38943615942884,72.0582518024938z" style="fill:rgb(224,133,209)"/><path d="M131.21379918085788,-107.94837382441976L43.035864809925194,-36.030048303056866L138.48451500038294,-105.66753444890382z" style="fill:rgb(82,237,172)"/><path d="M85.27275466728109,113.14596709609485L27.867828801013538,-33.214818291227616L72.05581823190475,112.80716918817045z" style="fill:rgb(58,64,214)"/><path d="M110.27577893826438,-108.35898708299648L14.474277515547504,-32.02230332882206L27.867828801013538,-33.214818291227616z" style="fill:rgb(82,237,172)"/><path d="M182.38943615942884,72.0582518024938L130.9529664372921,-76.37338612819245L172.7802021695476,80.85855527602487z" style="fill:rgb(209,121,224)"/><path d="M60.91226232983851,110.69940517694688L14.474277515547504,-32.02230332882206L3.3922232596636053,-32.45447547892043z" style="fill:rgb(40,64,196)"/><path d="M189.1878958492778,63.269226755472346L143.37370294142843,-91.02603576856595L138.72729606777162,-84.02876477982139z" style="fill:rgb(236,146,191)"/><path d="M138.48451500038294,-105.66753444890382L75.95498292438,-46.0755426151944L143.11674828877287,-102.02185043807498z" style="fill:rgb(82,237,172)"/><path d="M100.02812575258945,111.64730967179338L43.035864809925194,-36.030048303056866L85.27275466728109,113.14596709609485z" style="fill:rgb(78,66,228)"/><path d="M172.7802021695476,80.85855527602487L120.29784054320075,-68.38415580048093L160.7303092106251,89.26658270091639z" style="fill:rgb(191,108,236)"/><path d="M121.67288444327622,-108.8381186980202L27.867828801013538,-33.214818291227616L43.035864809925194,-36.030048303056866z" style="fill:rgb(82,237,172)"/><path d="M115.67696299718855,108.33690736744583L59.31531435188833,-40.3768017505687L100.02812575258945,111.64730967179338z" style="fill:rgb(101,71,238)"/><path d="M143.11674828877287,-102.02185043807498L92.16600784639675,-52.86554824871128L144.8128991765976,-97.09329876087628z" style="fill:rgb(82,237,172)"/><path d="M72.05581823190475,112.80716918817045L27.867828801013538,-33.214818291227616L14.474277515547504,-32.02230332882206z" style="fill:rgb(58,64,214)"/><path d="M182.38943615942884,72.0582518024938L138.72729606777162,-84.02876477982139L130.9529664372921,-76.37338612819245z" style="fill:rgb(224,133,209)"/><path d="M160.7303092106251,89.26658270091639L107.17825226156374,-60.42298854711886L146.7580414597625,96.88263758545374z" style="fill:rgb(170,97,243)"/><path d="M131.50153240123336,103.34115015688384L75.95498292438,-46.0755426151944L115.67696299718855,108.33690736744583z" style="fill:rgb(124,78,245)"/><path d="M146.7580414597625,96.88263758545374L92.16600784639675,-52.86554824871128L131.50153240123336,103.34115015688384z" style="fill:rgb(147,87,246)"/><path d="M144.8128991765976,-97.09329876087628L107.17825226156374,-60.42298854711886L143.37370294142843,-91.02603576856595z" style="fill:rgb(82,237,172)"/><path d="M85.27275466728109,113.14596709609485L43.035864809925194,-36.030048303056866L27.867828801013538,-33.214818291227616z" style="fill:rgb(78,66,228)"/><path d="M172.7802021695476,80.85855527602487L130.9529664372921,-76.37338612819245L120.29784054320075,-68.38415580048093z" style="fill:rgb(209,121,224)"/><path d="M138.48451500038294,-105.66753444890382L43.035864809925194,-36.030048303056866L59.31531435188833,-40.3768017505687zM138.48451500038294,-105.66753444890382L59.31531435188833,-40.3768017505687L75.95498292438,-46.0755426151944zM143.37370294142843,-91.02603576856595L120.29784054320075,-68.38415580048093L138.72729606777162,-84.02876477982139z" style="fill:rgb(82,237,172)"/><path d="M100.02812575258945,111.64730967179338L59.31531435188833,-40.3768017505687L43.035864809925194,-36.030048303056866z" style="fill:rgb(101,71,238)"/><path d="M160.7303092106251,89.26658270091639L120.29784054320075,-68.38415580048093L107.17825226156374,-60.42298854711886z" style="fill:rgb(191,108,236)"/><path d="M143.11674828877287,-102.02185043807498L75.95498292438,-46.0755426151944L92.16600784639675,-52.86554824871128z" style="fill:rgb(82,237,172)"/><path d="M115.67696299718855,108.33690736744583L75.95498292438,-46.0755426151944L59.31531435188833,-40.3768017505687z" style="fill:rgb(124,78,245)"/><path d="M146.7580414597625,96.88263758545374L107.17825226156374,-60.42298854711886L92.16600784639675,-52.86554824871128z" style="fill:rgb(170,97,243)"/><path d="M144.8128991765976,-97.09329876087628L92.16600784639675,-52.86554824871128L107.17825226156374,-60.42298854711886zM138.72729606777162,-84.02876477982139L120.29784054320075,-68.38415580048093L130.9529664372921,-76.37338612819245z" style="fill:rgb(82,237,172)"/><path d="M131.50153240123336,103.34115015688384L92.16600784639675,-52.86554824871128L75.95498292438,-46.0755426151944z" style="fill:rgb(147,87,246)"/><path d="M143.37370294142843,-91.02603576856595L107.17825226156374,-60.42298854711886L120.29784054320075,-68.38415580048093z" style="fill:rgb(82,237,172)"/></svg>