<svg viewBox="-250 -250 500 500" width="500" height="500" xmlns="http://www.w3.org/2000/svg"><path d="M239.82377049338834,-195.27640768298653L229.11470003567518,-207.4742220962359L185.74879377577201,-248.51245316944136z" style="fill:rgb(211,215,166)"/><path d="M-171.68046849063708,-258.6399118016673L-217.2497325483287,-221.06354950493844L-222.5519751539085,-216.40458521454912z" style="fill:rgb(49,221,164)"/><path d="M-263.5634926959883,-162.12998246844208L-222.5519751539085,-216.40458521454912L-260.81645865393585,-168.13082152157872z" style="fill:rgb(32,201,168)"/><path d="M-171.68046849063708,-258.6399118016673L-222.5519751539085,-216.40458521454912L-173.90389318148831,-256.65863027012034z" style="fill:rgb(49,221,164)"/><path d="M133.2253665821679,-280.3974066474435L193.40198248837314,-239.39020496216995L185.74879377577201,-248.51245316944136z" style="fill:rgb(191,228,171)"/><path d="M-238.56144022402955,197.50711581450534L-253.20683041447683,168.1264747715711L-271.7511853060435,150.09477002368928z" style="fill:rgb(31,56,171)"/><path d="M143.10906560874153,272.23730694346034L166.16550742513797,260.7003361971779L182.17220827497235,249.35324888659557z" style="fill:rgb(189,23,166)"/><path d="M-173.87902889822726,-255.55535988335564L-173.90389318148831,-256.65863027012034L-222.5519751539085,-216.40458521454912z" style="fill:rgb(50,218,171)"/><path d="M239.82377049338834,-195.27640768298653L185.74879377577201,-248.51245316944136L193.40198248837314,-239.39020496216995z" style="fill:rgb(211,215,166)"/><path d="M-263.5634926959883,-162.12998246844208L-223.59392685543818,-213.33692155415062L-222.5519751539085,-216.40458521454912z" style="fill:rgb(32,201,168)"/><path d="M-173.87902889822726,-255.55535988335564L-222.5519751539085,-216.40458521454912L-223.59392685543818,-213.33692155415062z" style="fill:rgb(50,218,171)"/><path d="M240.30575596675487,196.20884672316518L232.27420393756344,193.83829455767432L215.11607327281243,223.45665661027272z" style="fill:rgb(219,52,174)"/><path d="M-238.56144022402955,197.50711581450534L-219.07793061857873,217.25063333880263L-253.20683041447683,168.1264747715711z" style="fill:rgb(31,56,171)"/><path d="M133.2253665821679,-280.3974066474435L137.59912395781873,-273.90729710397346L193.40198248837314,-239.39020496216995z" style="fill:rgb(191,228,171)"/><path d="M240.30575596675487,196.20884672316518L262.75659512997856,161.17846095488557L232.27420393756344,193.83829455767432z" style="fill:rgb(219,52,174)"/><path d="M276.38534653387035,-122.95985862733971L274.810460734546,-144.17573602266174L239.82377049338834,-195.27640768298653z" style="fill:rgb(225,188,181)"/><path d="M-263.5634926959883,-162.12998246844208L-220.04440879196443,-212.09124507473175L-223.59392685543818,-213.33692155415062z" style="fill:rgb(35,198,179)"/><path d="M-173.87902889822726,-255.55535988335564L-223.59392685543818,-213.33692155415062L-220.04440879196443,-212.09124507473175z" style="fill:rgb(51,216,178)"/><path d="M182.17220827497235,249.35324888659557L215.11607327281243,223.45665661027272L232.27420393756344,193.83829455767432z" style="fill:rgb(205,43,183)"/><path d="M-173.87902889822726,-255.55535988335564L-220.04440879196443,-212.09124507473175L-171.52985685602238,-255.40348045614124z" style="fill:rgb(51,216,178)"/><path d="M-177.57748528241743,254.6544683060099L-186.49993036164588,231.3032653796127L-219.07793061857873,217.25063333880263z" style="fill:rgb(57,34,180)"/><path d="M-263.5634926959883,-162.12998246844208L-259.68470030168425,-158.63826221387785L-220.04440879196443,-212.09124507473175z" style="fill:rgb(35,198,179)"/><path d="M-177.57748528241743,254.6544683060099L-146.0310471013069,269.14086910640725L-186.49993036164588,231.3032653796127z" style="fill:rgb(57,34,180)"/><path d="M239.82377049338834,-195.27640768298653L193.40198248837314,-239.39020496216995L190.84471170930948,-225.59585804809618z" style="fill:rgb(209,205,186)"/><path d="M143.10906560874153,272.23730694346034L182.17220827497235,249.35324888659557L191.74927163375858,225.35591717126135z" style="fill:rgb(189,34,189)"/><path d="M-211.74444129198235,-212.84422917875378L-166.87313325418492,-256.24099607762645L-171.52985685602238,-255.40348045614124zM-211.74444129198235,-212.84422917875378L-171.52985685602238,-255.40348045614124L-220.04440879196443,-212.09124507473175z" style="fill:rgb(54,215,184)"/><path d="M276.38534653387035,-122.95985862733971L239.82377049338834,-195.27640768298653L239.4698030123443,-177.72092898141008z" style="fill:rgb(225,188,181)"/><path d="M190.84471170930948,-225.59585804809618L193.40198248837314,-239.39020496216995L137.59912395781873,-273.90729710397346z" style="fill:rgb(189,220,189)"/><path d="M-186.49993036164588,231.3032653796127L-253.20683041447683,168.1264747715711L-219.07793061857873,217.25063333880263z" style="fill:rgb(45,53,191)"/><path d="M232.27420393756344,193.83829455767432L262.75659512997856,161.17846095488557L275.3734854569397,115.73008864998341z" style="fill:rgb(221,70,192)"/><path d="M-211.74444129198235,-212.84422917875378L-220.04440879196443,-212.09124507473175L-259.68470030168425,-158.63826221387785z" style="fill:rgb(40,195,190)"/><path d="M182.17220827497235,249.35324888659557L232.27420393756344,193.83829455767432L191.74927163375858,225.35591717126135z" style="fill:rgb(205,43,183)"/><path d="M-160.03010616419158,-258.06480082914914L-166.87313325418492,-256.24099607762645L-211.74444129198235,-212.84422917875378z" style="fill:rgb(59,214,190)"/><path d="M239.82377049338834,-195.27640768298653L190.84471170930948,-225.59585804809618L239.4698030123443,-177.72092898141008z" style="fill:rgb(209,205,186)"/><path d="M-248.69274356676377,-158.06230538257188L-259.68470030168425,-158.63826221387785L-288.0895963284015,-97.83326966780729z" style="fill:rgb(28,173,193)"/><path d="M-103.01930866947698,276.63609344896446L-186.49993036164588,231.3032653796127L-146.0310471013069,269.14086910640725z" style="fill:rgb(74,34,197)"/><path d="M-211.74444129198235,-212.84422917875378L-259.68470030168425,-158.63826221387785L-248.69274356676377,-158.06230538257188z" style="fill:rgb(40,195,190)"/><path d="M190.84471170930948,-225.59585804809618L137.59912395781873,-273.90729710397346L133.13599608992254,-263.585105847561z" style="fill:rgb(189,220,189)"/><path d="M143.10906560874153,272.23730694346034L191.74927163375858,225.35591717126135L143.27185377926114,253.54321455394913z" style="fill:rgb(189,34,189)"/><path d="M-160.03010616419158,-258.06480082914914L-211.74444129198235,-212.84422917875378L-198.76329812164224,-215.69085118121873z" style="fill:rgb(59,214,190)"/><path d="M-160.03010616419158,-258.06480082914914L-181.44452639456193,-220.6182330529486L-151.23159108318285,-260.8244440202192z" style="fill:rgb(64,214,195)"/><path d="M-248.69274356676377,-158.06230538257188L-288.0895963284015,-97.83326966780729L-275.1251242107469,-94.6297929558279z" style="fill:rgb(28,173,193)"/><path d="M-277.4781083212956,109.13077216156834L-253.20683041447683,168.1264747715711L-220.83137470769444,180.30804531861412z" style="fill:rgb(36,75,200)"/><path d="M-186.49993036164588,231.3032653796127L-220.83137470769444,180.30804531861412L-253.20683041447683,168.1264747715711z" style="fill:rgb(45,53,191)"/><path d="M-140.81667968794955,-264.42198662369486L-151.23159108318285,-260.8244440202192L-181.44452639456193,-220.6182330529486z" style="fill:rgb(70,215,200)"/><path d="M-198.76329812164224,-215.69085118121873L-211.74444129198235,-212.84422917875378L-248.69274356676377,-158.06230538257188z" style="fill:rgb(46,194,199)"/><path d="M232.27420393756344,193.83829455767432L275.3734854569397,115.73008864998341L240.33113760933122,152.19261698982382z" style="fill:rgb(221,70,192)"/><path d="M-160.03010616419158,-258.06480082914914L-198.76329812164224,-215.69085118121873L-181.44452639456193,-220.6182330529486z" style="fill:rgb(64,214,195)"/><path d="M226.24339720321242,-154.86935439619197L276.38534653387035,-122.95985862733971L239.4698030123443,-177.72092898141008z" style="fill:rgb(218,177,201)"/><path d="M-140.81667968794955,-264.42198662369486L-136.65819879201965,-236.01748550828506L-129.21945487303185,-268.7123686754776z" style="fill:rgb(76,216,203)"/><path d="M232.27420393756344,193.83829455767432L193.20982935949806,187.97386007475026L191.74927163375858,225.35591717126135z" style="fill:rgb(204,59,202)"/><path d="M-136.65819879201965,-236.01748550828506L-116.94908497685593,-273.51081880324625L-129.21945487303185,-268.7123686754776z" style="fill:rgb(83,218,204)"/><path d="M226.24339720321242,-154.86935439619197L239.4698030123443,-177.72092898141008L190.84471170930948,-225.59585804809618z" style="fill:rgb(202,195,204)"/><path d="M-103.01930866947698,276.63609344896446L-140.8604024055817,237.9169383498967L-186.49993036164588,231.3032653796127z" style="fill:rgb(74,34,197)"/><path d="M-198.76329812164224,-215.69085118121873L-248.69274356676377,-158.06230538257188L-230.4379849144311,-160.71031715462522z" style="fill:rgb(46,194,199)"/><path d="M-289.87000017210784,43.12763478544306L-277.4781083212956,109.13077216156834L-246.34188856067647,118.25913951525997z" style="fill:rgb(31,98,206)"/><path d="M240.33113760933122,152.19261698982382L275.3734854569397,115.73008864998341L276.1319706014374,61.18509060184225z" style="fill:rgb(219,89,207)"/><path d="M176.68817541047963,-207.15600191156432L190.84471170930948,-225.59585804809618L133.13599608992254,-263.585105847561z" style="fill:rgb(183,211,205)"/><path d="M-140.81667968794955,-264.42198662369486L-181.44452639456193,-220.6182330529486L-160.43169622700648,-227.48590489060746z" style="fill:rgb(70,215,200)"/><path d="M226.24339720321242,-154.86935439619197L264.4669848951767,-96.08062544935676L276.38534653387035,-122.95985862733971z" style="fill:rgb(218,177,201)"/><path d="M232.27420393756344,193.83829455767432L240.33113760933122,152.19261698982382L193.20982935949806,187.97386007475026z" style="fill:rgb(204,59,202)"/><path d="M-140.8604024055817,237.9169383498967L-220.83137470769444,180.30804531861412L-186.49993036164588,231.3032653796127z" style="fill:rgb(63,53,209)"/><path d="M-277.4781083212956,109.13077216156834L-220.83137470769444,180.30804531861412L-246.34188856067647,118.25913951525997z" style="fill:rgb(36,75,200)"/><path d="M-252.48174993672956,-95.67478986356137L-248.69274356676377,-158.06230538257188L-275.1251242107469,-94.6297929558279z" style="fill:rgb(37,172,206)"/><path d="M56.880529873565074,-279.26367373579274L118.94662184880478,-249.46667040105388L133.13599608992254,-263.585105847561z" style="fill:rgb(162,224,202)"/><path d="M-140.81667968794955,-264.42198662369486L-160.43169622700648,-227.48590489060746L-136.65819879201965,-236.01748550828506z" style="fill:rgb(76,216,203)"/><path d="M136.51575445045714,220.44620026937162L143.27185377926114,253.54321455394913L191.74927163375858,225.35591717126135z" style="fill:rgb(186,49,209)"/><path d="M35.23808105974047,292.2107336671041L89.89102495454543,276.35550293187833L74.04001709800531,247.0871172880018z" style="fill:rgb(145,32,210)"/><path d="M-252.48174993672956,-95.67478986356137L-230.4379849144311,-160.71031715462522L-248.69274356676377,-158.06230538257188z" style="fill:rgb(37,172,206)"/><path d="M-198.76329812164224,-215.69085118121873L-205.2348080715336,-166.72844521463017L-181.44452639456193,-220.6182330529486z" style="fill:rgb(55,194,208)"/><path d="M176.68817541047963,-207.15600191156432L133.13599608992254,-263.585105847561L118.94662184880478,-249.46667040105388z" style="fill:rgb(183,211,205)"/><path d="M89.89102495454543,276.35550293187833L143.27185377926114,253.54321455394913L136.51575445045714,220.44620026937162z" style="fill:rgb(166,39,211)"/><path d="M226.24339720321242,-154.86935439619197L190.84471170930948,-225.59585804809618L176.68817541047963,-207.15600191156432z" style="fill:rgb(202,195,204)"/><path d="M-136.65819879201965,-236.01748550828506L-111.29632544007268,-245.80984612157687L-116.94908497685593,-273.51081880324625z" style="fill:rgb(83,218,204)"/><path d="M-116.94908497685593,-273.51081880324625L-111.29632544007268,-245.80984612157687L-85.66634626152637,-256.3616510330113z" style="fill:rgb(90,221,205)"/><path d="M-198.76329812164224,-215.69085118121873L-230.4379849144311,-160.71031715462522L-205.2348080715336,-166.72844521463017z" style="fill:rgb(55,194,208)"/><path d="M-289.87000017210784,43.12763478544306L-246.34188856067647,118.25913951525997L-260.8230205332354,48.56118788705141z" style="fill:rgb(31,98,206)"/><path d="M-103.01930866947698,276.63609344896446L-49.97937298004472,275.80551966430806L-83.54045931440474,235.64754788762133z" style="fill:rgb(94,37,211)"/><path d="M136.51575445045714,220.44620026937162L191.74927163375858,225.35591717126135L193.20982935949806,187.97386007475026z" style="fill:rgb(186,49,209)"/><path d="M-103.01930866947698,276.63609344896446L-83.54045931440474,235.64754788762133L-140.8604024055817,237.9169383498967z" style="fill:rgb(94,37,211)"/><path d="M-205.2348080715336,-166.72844521463017L-160.43169622700648,-227.48590489060746L-181.44452639456193,-220.6182330529486z" style="fill:rgb(64,195,214)"/><path d="M240.33113760933122,152.19261698982382L276.1319706014374,61.18509060184225L237.4482933480576,99.42225664098247z" style="fill:rgb(219,89,207)"/><path d="M35.23808105974047,292.2107336671041L74.04001709800531,247.0871172880018L10.343587236397463,265.9119771191338z" style="fill:rgb(145,32,210)"/><path d="M-140.8604024055817,237.9169383498967L-174.46494070169186,184.92420614060487L-220.83137470769444,180.30804531861412z" style="fill:rgb(63,53,209)"/><path d="M94.66590386569129,-231.8831824910134L118.94662184880478,-249.46667040105388L56.880529873565074,-279.26367373579274z" style="fill:rgb(154,216,214)"/><path d="M-252.48174993672956,-95.67478986356137L-205.2348080715336,-166.72844521463017L-230.4379849144311,-160.71031715462522z" style="fill:rgb(48,172,217)"/><path d="M89.89102495454543,276.35550293187833L136.51575445045714,220.44620026937162L74.04001709800531,247.0871172880018z" style="fill:rgb(166,39,211)"/><path d="M94.66590386569129,-231.8831824910134L56.880529873565074,-279.26367373579274L36.600759016177136,-266.5418031103417z" style="fill:rgb(154,216,214)"/><path d="M226.24339720321242,-154.86935439619197L237.57190824500594,-64.26836631851207L264.4669848951767,-96.08062544935676z" style="fill:rgb(207,165,219)"/><path d="M-136.65819879201965,-236.01748550828506L-160.43169622700648,-227.48590489060746L-173.9548805610636,-176.03760898358678z" style="fill:rgb(75,198,219)"/><path d="M176.68817541047963,-207.15600191156432L118.94662184880478,-249.46667040105388L94.66590386569129,-231.8831824910134z" style="fill:rgb(174,202,219)"/><path d="M-201.1124864930272,120.0411260487207L-246.34188856067647,118.25913951525997L-220.83137470769444,180.30804531861412z" style="fill:rgb(54,75,218)"/><path d="M10.343587236397463,265.9119771191338L-83.54045931440474,235.64754788762133L-49.97937298004472,275.80551966430806z" style="fill:rgb(115,41,221)"/><path d="M264.4669848951767,-96.08062544935676L237.57190824500594,-64.26836631851207L263.64353431392146,0z" style="fill:rgb(220,144,213)"/><path d="M240.33113760933122,152.19261698982382L185.18068016272923,137.6205101898382L193.20982935949806,187.97386007475026z" style="fill:rgb(201,77,218)"/><path d="M-205.2348080715336,-166.72844521463017L-173.9548805610636,-176.03760898358678L-160.43169622700648,-227.48590489060746z" style="fill:rgb(64,195,214)"/><path d="M226.24339720321242,-154.86935439619197L176.68817541047963,-207.15600191156432L150.12796635945548,-184.49472998314272z" style="fill:rgb(192,184,221)"/><path d="M-201.1124864930272,120.0411260487207L-220.83137470769444,180.30804531861412L-174.46494070169186,184.92420614060487z" style="fill:rgb(54,75,218)"/><path d="M276.1319706014374,61.18509060184225L263.64353431392146,0L222.4681783606374,37.80259975762816z" style="fill:rgb(213,110,220)"/><path d="M240.33113760933122,152.19261698982382L237.4482933480576,99.42225664098247L185.18068016272923,137.6205101898382z" style="fill:rgb(201,77,218)"/><path d="M-252.48174993672956,-95.67478986356137L-220.3263915288787,-101.39773077569346L-205.2348080715336,-166.72844521463017z" style="fill:rgb(48,172,217)"/><path d="M-60.513029234404996,-218.9745041907975L-61.11971691647055,-267.1149843939719L-85.66634626152637,-256.3616510330113z" style="fill:rgb(107,210,222)"/><path d="M-260.8230205332354,48.56118788705141L-246.34188856067647,118.25913951525997L-201.1124864930272,120.0411260487207z" style="fill:rgb(48,98,223)"/><path d="M-136.65819879201965,-236.01748550828506L-99.47746477927583,-202.88516198583423L-111.29632544007268,-245.80984612157687z" style="fill:rgb(86,201,222)"/><path d="M276.1319706014374,61.18509060184225L222.4681783606374,37.80259975762816L237.4482933480576,99.42225664098247z" style="fill:rgb(213,110,220)"/><path d="M-60.513029234404996,-218.9745041907975L-85.66634626152637,-256.3616510330113L-111.29632544007268,-245.80984612157687z" style="fill:rgb(97,205,223)"/><path d="M9.435541119617353,-251.7456731552458L94.66590386569129,-231.8831824910134L36.600759016177136,-266.5418031103417z" style="fill:rgb(144,208,224)"/><path d="M9.435541119617353,-251.7456731552458L-61.11971691647055,-267.1149843939719L-23.49887273669136,-235.59135572318897z" style="fill:rgb(117,216,218)"/><path d="M-252.48174993672956,-95.67478986356137L-262.93650428175283,-24.37217561905587L-224.99536769402462,-28.41594340229554z" style="fill:rgb(45,148,223)"/><path d="M176.68817541047963,-207.15600191156432L94.66590386569129,-231.8831824910134L150.12796635945548,-184.49472998314272z" style="fill:rgb(174,202,219)"/><path d="M136.51575445045714,220.44620026937162L193.20982935949806,187.97386007475026L185.18068016272923,137.6205101898382z" style="fill:rgb(181,66,225)"/><path d="M226.24339720321242,-154.86935439619197L198.93199183318825,-127.27988172369184L237.57190824500594,-64.26836631851207z" style="fill:rgb(207,165,219)"/><path d="M-262.93650428175283,-24.37217561905587L-260.8230205332354,48.56118788705141L-218.46121802554654,47.22594022376662z" style="fill:rgb(45,123,225)"/><path d="M-136.65819879201965,-236.01748550828506L-173.9548805610636,-176.03760898358678L-138.0504688118093,-188.29407734154168z" style="fill:rgb(75,198,219)"/><path d="M-140.8604024055817,237.9169383498967L-115.39006789930525,180.59085404128297L-174.46494070169186,184.92420614060487z" style="fill:rgb(83,56,223)"/><path d="M226.24339720321242,-154.86935439619197L150.12796635945548,-184.49472998314272L198.93199183318825,-127.27988172369184z" style="fill:rgb(192,184,221)"/><path d="M-140.8604024055817,237.9169383498967L-83.54045931440474,235.64754788762133L-115.39006789930525,180.59085404128297z" style="fill:rgb(83,56,223)"/><path d="M-60.513029234404996,-218.9745041907975L-23.49887273669136,-235.59135572318897L-61.11971691647055,-267.1149843939719z" style="fill:rgb(107,210,222)"/><path d="M10.343587236397463,265.9119771191338L-17.500241249526177,223.72098474891115L-83.54045931440474,235.64754788762133z" style="fill:rgb(115,41,221)"/><path d="M-252.48174993672956,-95.67478986356137L-224.99536769402462,-28.41594340229554L-220.3263915288787,-101.39773077569346z" style="fill:rgb(45,148,223)"/><path d="M10.343587236397463,265.9119771191338L74.04001709800531,247.0871172880018L52.843360905188554,202.35386310585966z" style="fill:rgb(137,48,227)"/><path d="M-136.65819879201965,-236.01748550828506L-138.0504688118093,-188.29407734154168L-99.47746477927583,-202.88516198583423z" style="fill:rgb(86,201,222)"/><path d="M136.51575445045714,220.44620026937162L52.843360905188554,202.35386310585966L74.04001709800531,247.0871172880018z" style="fill:rgb(159,56,228)"/><path d="M-179.66786816732028,-111.91552459998348L-173.9548805610636,-176.03760898358678L-205.2348080715336,-166.72844521463017z" style="fill:rgb(61,173,226)"/><path d="M-60.513029234404996,-218.9745041907975L-111.29632544007268,-245.80984612157687L-99.47746477927583,-202.88516198583423z" style="fill:rgb(97,205,223)"/><path d="M-260.8230205332354,48.56118788705141L-201.1124864930272,120.0411260487207L-218.46121802554654,47.22594022376662z" style="fill:rgb(48,98,223)"/><path d="M-179.66786816732028,-111.91552459998348L-205.2348080715336,-166.72844521463017L-220.3263915288787,-101.39773077569346z" style="fill:rgb(61,173,226)"/><path d="M9.435541119617353,-251.7456731552458L60.692062187395884,-211.5236173343573L94.66590386569129,-231.8831824910134z" style="fill:rgb(144,208,224)"/><path d="M-262.93650428175283,-24.37217561905587L-218.46121802554654,47.22594022376662L-224.99536769402462,-28.41594340229554z" style="fill:rgb(45,123,225)"/><path d="M195.3417596744586,-28.975242239664038L263.64353431392146,0L237.57190824500594,-64.26836631851207z" style="fill:rgb(204,132,228)"/><path d="M185.18068016272923,137.6205101898382L237.4482933480576,99.42225664098247L222.4681783606374,37.80259975762816z" style="fill:rgb(195,98,231)"/><path d="M10.343587236397463,265.9119771191338L52.843360905188554,202.35386310585966L-17.500241249526177,223.72098474891115z" style="fill:rgb(137,48,227)"/><path d="M136.51575445045714,220.44620026937162L185.18068016272923,137.6205101898382L122.1774625072907,172.8848803162262z" style="fill:rgb(181,66,225)"/><path d="M195.3417596744586,-28.975242239664038L222.4681783606374,37.80259975762816L263.64353431392146,0z" style="fill:rgb(204,132,228)"/><path d="M-179.66786816732028,-111.91552459998348L-138.0504688118093,-188.29407734154168L-173.9548805610636,-176.03760898358678z" style="fill:rgb(75,176,233)"/><path d="M94.66590386569129,-231.8831824910134L111.31462402900743,-158.53366293949742L150.12796635945548,-184.49472998314272z" style="fill:rgb(162,192,231)"/><path d="M136.51575445045714,220.44620026937162L122.1774625072907,172.8848803162262L52.843360905188554,202.35386310585966z" style="fill:rgb(159,56,228)"/><path d="M9.435541119617353,-251.7456731552458L-23.49887273669136,-235.59135572318897L18.358920045865865,-189.44376517697356z" style="fill:rgb(133,200,231)"/><path d="M198.93199183318825,-127.27988172369184L195.3417596744586,-28.975242239664038L237.57190824500594,-64.26836631851207z" style="fill:rgb(193,153,233)"/><path d="M-179.66786816732028,-111.91552459998348L-220.3263915288787,-101.39773077569346L-224.99536769402462,-28.41594340229554z" style="fill:rgb(61,150,234)"/><path d="M-142.97751700620896,113.32091942957915L-201.1124864930272,120.0411260487207L-174.46494070169186,184.92420614060487z" style="fill:rgb(74,77,232)"/><path d="M198.93199183318825,-127.27988172369184L150.12796635945548,-184.49472998314272L111.31462402900743,-158.53366293949742z" style="fill:rgb(178,173,234)"/><path d="M94.66590386569129,-231.8831824910134L60.692062187395884,-211.5236173343573L111.31462402900743,-158.53366293949742z" style="fill:rgb(162,192,231)"/><path d="M9.435541119617353,-251.7456731552458L18.358920045865865,-189.44376517697356L60.692062187395884,-211.5236173343573z" style="fill:rgb(133,200,231)"/><path d="M-142.97751700620896,113.32091942957915L-174.46494070169186,184.92420614060487L-115.39006789930525,180.59085404128297z" style="fill:rgb(74,77,232)"/><path d="M-83.54045931440474,235.64754788762133L-17.500241249526177,223.72098474891115L-46.62403962735038,166.63509947721332z" style="fill:rgb(105,60,233)"/><path d="M-60.513029234404996,-218.9745041907975L18.358920045865865,-189.44376517697356L-23.49887273669136,-235.59135572318897z" style="fill:rgb(119,193,236)"/><path d="M-83.54045931440474,235.64754788762133L-46.62403962735038,166.63509947721332L-115.39006789930525,180.59085404128297z" style="fill:rgb(105,60,233)"/><path d="M-99.47746477927583,-202.88516198583423L-138.0504688118093,-188.29407734154168L-132.44973788147306,-126.9291403016257z" style="fill:rgb(90,181,237)"/><path d="M-142.97751700620896,113.32091942957915L-218.46121802554654,47.22594022376662L-201.1124864930272,120.0411260487207z" style="fill:rgb(67,101,237)"/><path d="M185.18068016272923,137.6205101898382L222.4681783606374,37.80259975762816L166.99335308652115,76.27112606788748z" style="fill:rgb(195,98,231)"/><path d="M-179.66786816732028,-111.91552459998348L-132.44973788147306,-126.9291403016257L-138.0504688118093,-188.29407734154168z" style="fill:rgb(75,176,233)"/><path d="M-60.513029234404996,-218.9745041907975L-99.47746477927583,-202.88516198583423L-81.46161207028761,-145.6793690799518z" style="fill:rgb(105,186,238)"/><path d="M-224.99536769402462,-28.41594340229554L-218.46121802554654,47.22594022376662L-163.90830929554184,38.31155168126222z" style="fill:rgb(63,125,237)"/><path d="M198.93199183318825,-127.27988172369184L157.4005189937379,-96.13756411308498L195.3417596744586,-28.975242239664038z" style="fill:rgb(193,153,233)"/><path d="M-179.66786816732028,-111.91552459998348L-224.99536769402462,-28.41594340229554L-176.40693705259417,-38.74727699900596z" style="fill:rgb(61,150,234)"/><path d="M198.93199183318825,-127.27988172369184L111.31462402900743,-158.53366293949742L157.4005189937379,-96.13756411308498z" style="fill:rgb(178,173,234)"/><path d="M52.843360905188554,202.35386310585966L-46.62403962735038,166.63509947721332L-17.500241249526177,223.72098474891115z" style="fill:rgb(128,67,240)"/><path d="M195.3417596744586,-28.975242239664038L166.99335308652115,76.27112606788748L222.4681783606374,37.80259975762816z" style="fill:rgb(186,119,240)"/><path d="M185.18068016272923,137.6205101898382L100.30112799807065,112.47344728138773L122.1774625072907,172.8848803162262z" style="fill:rgb(174,86,238)"/><path d="M-60.513029234404996,-218.9745041907975L-30.044581629854164,-166.99625936827405L18.358920045865865,-189.44376517697356z" style="fill:rgb(119,193,236)"/><path d="M-99.47746477927583,-202.88516198583423L-132.44973788147306,-126.9291403016257L-81.46161207028761,-145.6793690799518z" style="fill:rgb(90,181,237)"/><path d="M-224.99536769402462,-28.41594340229554L-163.90830929554184,38.31155168126222L-176.40693705259417,-38.74727699900596z" style="fill:rgb(63,125,237)"/><path d="M-142.97751700620896,113.32091942957915L-163.90830929554184,38.31155168126222L-218.46121802554654,47.22594022376662z" style="fill:rgb(67,101,237)"/><path d="M52.843360905188554,202.35386310585966L122.1774625072907,172.8848803162262L100.30112799807065,112.47344728138773z" style="fill:rgb(151,76,241)"/><path d="M185.18068016272923,137.6205101898382L166.99335308652115,76.27112606788748L100.30112799807065,112.47344728138773z" style="fill:rgb(174,86,238)"/><path d="M-60.513029234404996,-218.9745041907975L-81.46161207028761,-145.6793690799518L-30.044581629854164,-166.99625936827405z" style="fill:rgb(105,186,238)"/><path d="M-142.97751700620896,113.32091942957915L-115.39006789930525,180.59085404128297L-46.62403962735038,166.63509947721332z" style="fill:rgb(96,82,242)"/><path d="M60.692062187395884,-211.5236173343573L61.65837224819126,-130.71366354795177L111.31462402900743,-158.53366293949742zM60.692062187395884,-211.5236173343573L18.358920045865865,-189.44376517697356L61.65837224819126,-130.71366354795177z" style="fill:rgb(148,183,240)"/><path d="M-179.66786816732028,-111.91552459998348L-119.54037771320542,-55.24218328351514L-132.44973788147306,-126.9291403016257zM-179.66786816732028,-111.91552459998348L-176.40693705259417,-38.74727699900596L-119.54037771320542,-55.24218328351514z" style="fill:rgb(78,153,242)"/><path d="M52.843360905188554,202.35386310585966L27.174170842144484,143.42262519810046L-46.62403962735038,166.63509947721332z" style="fill:rgb(128,67,240)"/><path d="M195.3417596744586,-28.975242239664038L139.0540259138787,7.6100837450071115L166.99335308652115,76.27112606788748z" style="fill:rgb(186,119,240)"/><path d="M52.843360905188554,202.35386310585966L100.30112799807065,112.47344728138773L27.174170842144484,143.42262519810046z" style="fill:rgb(151,76,241)"/><path d="M103.0209994304488,-63.28097640095796L195.3417596744586,-28.975242239664038L157.4005189937379,-96.13756411308498z" style="fill:rgb(175,141,244)"/><path d="M111.31462402900743,-158.53366293949742L103.0209994304488,-63.28097640095796L157.4005189937379,-96.13756411308498z" style="fill:rgb(162,163,244)"/><path d="M-81.46161207028761,-145.6793690799518L-132.44973788147306,-126.9291403016257L-119.54037771320542,-55.24218328351514z" style="fill:rgb(96,159,247)"/><path d="M-142.97751700620896,113.32091942957915L-46.62403962735038,166.63509947721332L-74.86293097459327,97.65450576095459z" style="fill:rgb(96,82,242)"/><path d="M3.9276237178008766,-102.8918503530096L18.358920045865865,-189.44376517697356L-30.044581629854164,-166.99625936827405z" style="fill:rgb(132,174,246)"/><path d="M103.0209994304488,-63.28097640095796L139.0540259138787,7.6100837450071115L195.3417596744586,-28.975242239664038z" style="fill:rgb(175,141,244)"/><path d="M111.31462402900743,-158.53366293949742L61.65837224819126,-130.71366354795177L103.0209994304488,-63.28097640095796z" style="fill:rgb(162,163,244)"/><path d="M-99.86712155224214,21.669221966713955L-163.90830929554184,38.31155168126222L-142.97751700620896,113.32091942957915z" style="fill:rgb(89,105,247)"/><path d="M-99.86712155224214,21.669221966713955L-176.40693705259417,-38.74727699900596L-163.90830929554184,38.31155168126222z" style="fill:rgb(83,129,246)"/><path d="M3.9276237178008766,-102.8918503530096L61.65837224819126,-130.71366354795177L18.358920045865865,-189.44376517697356z" style="fill:rgb(132,174,246)"/><path d="M3.9276237178008766,-102.8918503530096L-30.044581629854164,-166.99625936827405L-81.46161207028761,-145.6793690799518z" style="fill:rgb(114,166,248)"/><path d="M-74.86293097459327,97.65450576095459L-46.62403962735038,166.63509947721332L27.174170842144484,143.42262519810046z" style="fill:rgb(119,89,248)"/><path d="M166.99335308652115,76.27112606788748L71.87551149355038,42.75446101541622L100.30112799807065,112.47344728138773zM166.99335308652115,76.27112606788748L139.0540259138787,7.6100837450071115L71.87551149355038,42.75446101541622z" style="fill:rgb(165,108,247)"/><path d="M-99.86712155224214,21.669221966713955L-119.54037771320542,-55.24218328351514L-176.40693705259417,-38.74727699900596z" style="fill:rgb(83,129,246)"/><path d="M-99.86712155224214,21.669221966713955L-142.97751700620896,113.32091942957915L-74.86293097459327,97.65450576095459z" style="fill:rgb(89,105,247)"/><path d="M-81.46161207028761,-145.6793690799518L-119.54037771320542,-55.24218328351514L-57.971844525037525,-77.10396674507477z" style="fill:rgb(96,159,247)"/><path d="M100.30112799807065,112.47344728138773L-1.3552861052110234,73.59271737154488L27.174170842144484,143.42262519810046z" style="fill:rgb(143,98,250)"/><path d="M3.9276237178008766,-102.8918503530096L-81.46161207028761,-145.6793690799518L-57.971844525037525,-77.10396674507477z" style="fill:rgb(114,166,248)"/><path d="M-74.86293097459327,97.65450576095459L27.174170842144484,143.42262519810046L-1.3552861052110234,73.59271737154488z" style="fill:rgb(119,89,248)"/><path d="M38.86113946349186,-31.055976408702165L103.0209994304488,-63.28097640095796L61.65837224819126,-130.71366354795177z" style="fill:rgb(144,152,251)"/><path d="M-99.86712155224214,21.669221966713955L-57.971844525037525,-77.10396674507477L-119.54037771320542,-55.24218328351514z" style="fill:rgb(103,135,252)"/><path d="M38.86113946349186,-31.055976408702165L139.0540259138787,7.6100837450071115L103.0209994304488,-63.28097640095796z" style="fill:rgb(155,130,251)"/><path d="M100.30112799807065,112.47344728138773L71.87551149355038,42.75446101541622L-1.3552861052110234,73.59271737154488z" style="fill:rgb(143,98,250)"/><path d="M38.86113946349186,-31.055976408702165L61.65837224819126,-130.71366354795177L3.9276237178008766,-102.8918503530096z" style="fill:rgb(144,152,251)"/><path d="M-99.86712155224214,21.669221966713955L-74.86293097459327,97.65450576095459L-1.3552861052110234,73.59271737154488z" style="fill:rgb(111,112,253)"/><path d="M38.86113946349186,-31.055976408702165L71.87551149355038,42.75446101541622L139.0540259138787,7.6100837450071115z" style="fill:rgb(155,130,251)"/><path d="M38.86113946349186,-31.055976408702165L3.9276237178008766,-102.8918503530096L-57.971844525037525,-77.10396674507477z" style="fill:rgb(124,143,253)"/><path d="M-99.86712155224214,21.669221966713955L-30.544777812530945,-1.9859451766522656L-57.971844525037525,-77.10396674507477z" style="fill:rgb(103,135,252)"/><path d="M-99.86712155224214,21.669221966713955L-1.3552861052110234,73.59271737154488L-30.544777812530945,-1.9859451766522656z" style="fill:rgb(111,112,253)"/><path d="M38.86113946349186,-31.055976408702165L-1.3552861052110234,73.59271737154488L71.87551149355038,42.75446101541622z" style="fill:rgb(133,120,254)"/><path d="M38.86113946349186,-31.055976408702165L-57.971844525037525,-77.10396674507477L-30.544777812530945,-1.9859451766522656z" style="fill:rgb(124,143,253)"/><path d="M38.86113946349186,-31.055976408702165L-30.544777812530945,-1.9859451766522656L-1.3552861052110234,73.59271737154488z" style="fill:rgb(133,120,254)"/></svg>