<svg viewBox="-250 -250 500 500" width="500" height="500" xmlns="http://www.w3.org/2000/svg"><path d="M115.72700782580236,32.88980497916L122.18191601376303,26.73096365733663L74.22256435646248,-104.96658783963665zM71.21395755549554,-88.19527510980627L114.01808185381022,34.520178188518976L115.72700782580236,32.88980497916zM115.72700782580236,32.88980497916L74.22256435646248,-104.96658783963665L71.21395755549554,-88.19527510980627zM71.21395755549554,-88.19527510980627L70.4214055017986,-83.7771444013044L114.01808185381022,34.520178188518976z" style="fill:rgb(217,127,217)"/><path d="M-21.863910994662444,-30.92017431955361L-31.191754422525147,-95.04770829086132L-126.78459564562256,-27.737938060584174zM-31.191754422525147,-95.04770829086132L-21.863910994662444,-30.92017431955361L74.22256435646248,-104.96658783963665z" style="fill:rgb(82,237,172)"/><path d="M71.21395755549554,-88.19527510980627L74.22256435646248,-104.96658783963665L67.0736755088769,-99.45751148940245zM67.0736755088769,-99.45751148940245L70.4214055017986,-83.7771444013044L71.21395755549554,-88.19527510980627zM67.0736755088769,-99.45751148940245L65.18036074892944,-97.99832774004182L70.4214055017986,-83.7771444013044z" style="fill:rgb(217,127,217)"/><path d="M-69.61674728512963,98.45297696694435L-21.863910994662444,-30.92017431955361L-126.78459564562256,-27.737938060584174zM35.81485628604721,109.13525307499374L-21.863910994662444,-30.92017431955361L-69.61674728512963,98.45297696694435z" style="fill:rgb(49,63,205)"/><path d="M9.885790288863516,-55.38707687690712L69.39583037094144,-99.47972969322598L65.18036074892944,-97.99832774004182z" style="fill:rgb(82,237,172)"/><path d="M36.99331770305764,102.56548138104871L45.40661011993985,99.98347884467488L39.891253985162464,86.4115244552192zM36.99331770305764,102.56548138104871L38.59883898633048,106.47896160456077L45.40661011993985,99.98347884467488zM35.81485628604721,109.13525307499374L38.59883898633048,106.47896160456077L36.99331770305764,102.56548138104871z" style="fill:rgb(217,127,217)"/><path d="M69.39583037094144,-99.47972969322598L-4.988338833341853,-34.43434884179758L83.68531372301901,-103.57272112181022z" style="fill:rgb(82,237,172)"/><path d="M45.40661011993985,99.98347884467488L46.31490406125473,101.84212863945552L-10.431093068886552,-37.81817301309048z" style="fill:rgb(9,78,130)"/><path d="M83.68531372301901,-103.57272112181022L3.3922232596636053,-32.45447547892043L97.4628350510293,-106.57244237765198zM9.885790288863516,-55.38707687690712L-10.431093068886552,-37.81817301309048L69.39583037094144,-99.47972969322598z" style="fill:rgb(82,237,172)"/><path d="M-18.75169845391268,-33.31827138814322L36.99331770305764,102.56548138104871L39.891253985162464,86.4115244552192zM-21.863910994662444,-30.92017431955361L35.81485628604721,109.13525307499374L36.99331770305764,102.56548138104871z" style="fill:rgb(217,127,217)"/><path d="M52.2448284770513,106.97314077068891L-4.988338833341853,-34.43434884179758L46.31490406125473,101.84212863945552z" style="fill:rgb(16,71,153)"/><path d="M45.40661011993985,99.98347884467488L-10.431093068886552,-37.81817301309048L6.08961662247453,3.2330884729023834z" style="fill:rgb(9,78,130)"/><path d="M97.4628350510293,-106.57244237765198L14.474277515547504,-32.02230332882206L110.27577893826438,-108.35898708299648z" style="fill:rgb(82,237,172)"/><path d="M193.67266364252706,47.211906046642916L144.8128991765976,-97.09329876087628L192.96633833326453,54.87399651382149z" style="fill:rgb(243,157,170)"/><path d="M69.39583037094144,-99.47972969322598L-10.431093068886552,-37.81817301309048L-4.988338833341853,-34.43434884179758z" style="fill:rgb(82,237,172)"/><path d="M-18.75169845391268,-33.31827138814322L39.891253985162464,86.4115244552192L-11.14604468673246,-39.17957211112373z" style="fill:rgb(217,127,217)"/><path d="M110.27577893826438,-108.35898708299648L27.867828801013538,-33.214818291227616L121.67288444327622,-108.8381186980202z" style="fill:rgb(82,237,172)"/><path d="M-21.863910994662444,-30.92017431955361L36.99331770305764,102.56548138104871L-18.75169845391268,-33.31827138814322z" style="fill:rgb(217,127,217)"/><path d="M60.91226232983851,110.69940517694688L3.3922232596636053,-32.45447547892043L52.2448284770513,106.97314077068891z" style="fill:rgb(26,66,176)"/><path d="M46.31490406125473,101.84212863945552L-4.988338833341853,-34.43434884179758L-10.431093068886552,-37.81817301309048z" style="fill:rgb(16,71,153)"/><path d="M-11.14604468673246,-39.17957211112373L-10.431093068886552,-37.81817301309048L9.885790288863516,-55.38707687690712zM83.68531372301901,-103.57272112181022L-4.988338833341853,-34.43434884179758L3.3922232596636053,-32.45447547892043z" style="fill:rgb(82,237,172)"/><path d="M192.96633833326453,54.87399651382149L143.37370294142843,-91.02603576856595L189.1878958492778,63.269226755472346z" style="fill:rgb(236,146,191)"/><path d="M6.08961662247453,3.2330884729023834L-10.431093068886552,-37.81817301309048L-11.14604468673246,-39.17957211112373z" style="fill:rgb(9,78,130)"/><path d="M121.67288444327622,-108.8381186980202L43.035864809925194,-36.030048303056866L131.21379918085788,-107.94837382441976z" style="fill:rgb(82,237,172)"/><path d="M72.05581823190475,112.80716918817045L14.474277515547504,-32.02230332882206L60.91226232983851,110.69940517694688z" style="fill:rgb(40,64,196)"/><path d="M52.2448284770513,106.97314077068891L3.3922232596636053,-32.45447547892043L-4.988338833341853,-34.43434884179758z" style="fill:rgb(26,66,176)"/><path d="M192.96633833326453,54.87399651382149L144.8128991765976,-97.09329876087628L143.37370294142843,-91.02603576856595z" style="fill:rgb(243,157,170)"/><path d="M97.4628350510293,-106.57244237765198L3.3922232596636053,-32.45447547892043L14.474277515547504,-32.02230332882206z" style="fill:rgb(82,237,172)"/><path d="M189.1878958492778,63.269226755472346L138.72729606777162,-84.02876477982139L182.38943615942884,72.0582518024938z" style="fill:rgb(224,133,209)"/><path d="M131.21379918085788,-107.94837382441976L43.035864809925194,-36.030048303056866L138.48451500038294,-105.66753444890382z" style="fill:rgb(82,237,172)"/><path d="M85.27275466728109,113.14596709609485L27.867828801013538,-33.214818291227616L72.05581823190475,112.80716918817045z" style="fill:rgb(58,64,214)"/><path d="M110.27577893826438,-108.35898708299648L14.474277515547504,-32.02230332882206L27.867828801013538,-33.214818291227616z" style="fill:rgb(82,237,172)"/><path d="M182.38943615942884,72.0582518024938L130.9529664372921,-76.37338612819245L172.7802021695476,80.85855527602487z" style="fill:rgb(209,121,224)"/><path d="M60.91226232983851,110.69940517694688L14.474277515547504,-32.02230332882206L3.3922232596636053,-32.45447547892043z" style="fill:rgb(40,64,196)"/><path d="M189.1878958492778,63.269226755472346L143.37370294142843,-91.02603576856595L138.72729606777162,-84.02876477982139z" style="fill:rgb(236,146,191)"/><path d="M138.48451500038294,-105.66753444890382L75.95498292438,-46.0755426151944L143.11674828877287,-102.02185043807498z" style="fill:rgb(82,237,172)"/><path d="M100.02812575258945,111.64730967179338L43.035864809925194,-36.030048303056866L85.27275466728109,113.14596709609485z" style="fill:rgb(78,66,228)"/><path d="M172.7802021695476,80.85855527602487L120.29784054320075,-68.38415580048093L160.7303092106251,89.26658270091639z" style="fill:rgb(191,108,236)"/><path d="M121.67288444327622,-108.8381186980202L27.867828801013538,-33.214818291227616L43.035864809925194,-36.030048303056866z" style="fill:rgb(82,237,172)"/><path d="M115.67696299718855,108.33690736744583L59.31531435188833,-40.3768017505687L100.02812575258945,111.64730967179338z" style="fill:rgb(101,71,238)"/><path d="M143.11674828877287,-102.02185043807498L92.16600784639675,-52.86554824871128L144.8128991765976,-97.09329876087628z" style="fill:rgb(82,237,172)"/><path d="M72.05581823190475,112.80716918817045L27.867828801013538,-33.214818291227616L14.474277515547504,-32.02230332882206z" style="fill:rgb(58,64,214)"/><path d="M182.38943615942884,72.0582518024938L138.72729606777162,-84.02876477982139L130.9529664372921,-76.37338612819245z" style="fill:rgb(224,133,209)"/><path d="M160.7303092106251,89.26658270091639L107.17825226156374,-60.42298854711886L146.7580414597625,96.88263758545374z" style="fill:rgb(170,97,243)"/><path d="M131.50153240123336,103.34115015688384L75.95498292438,-46.0755426151944L115.67696299718855,108.33690736744583z" style="fill:rgb(124,78,245)"/><path d="M146.7580414597625,96.88263758545374L92.16600784639675,-52.86554824871128L131.50153240123336,103.34115015688384z" style="fill:rgb(147,87,246)"/><path d="M144.8128991765976,-97.09329876087628L107.17825226156374,-60.42298854711886L143.37370294142843,-91.02603576856595z" style="fill:rgb(82,237,172)"/><path d="M85.27275466728109,113.14596709609485L43.035864809925194,-36.030048303056866L27.867828801013538,-33.214818291227616z" style="fill:rgb(78,66,228)"/><path d="M172.7802021695476,80.85855527602487L130.9529664372921,-76.37338612819245L120.29784054320075,-68.38415580048093z" style="fill:rgb(209,121,224)"/><path d="M138.48451500038294,-105.66753444890382L43.035864809925194,-36.030048303056866L59.31531435188833,-40.3768017505687zM138.48451500038294,-105.66753444890382L59.31531435188833,-40.3768017505687L75.95498292438,-46.0755426151944zM143.37370294142843,-91.02603576856595L120.29784054320075,-68.38415580048093L138.72729606777162,-84.02876477982139z" style="fill:rgb(82,237,172)"/><path d="M100.02812575258945,111.64730967179338L59.31531435188833,-40.3768017505687L43.035864809925194,-36.030048303056866z" style="fill:rgb(101,71,238)"/><path d="M160.7303092106251,89.26658270091639L120.29784054320075,-68.38415580048093L107.17825226156374,-60.42298854711886z" style="fill:rgb(191,108,236)"/><path d="M143.11674828877287,-102.02185043807498L75.95498292438,-46.0755426151944L92.16600784639675,-52.86554824871128z" style="fill:rgb(82,237,172)"/><path d="M115.67696299718855,108.33690736744583L75.95498292438,-46.0755426151944L59.31531435188833,-40.3768017505687z" style="fill:rgb(124,78,245)"/><path d="M146.7580414597625,96.88263758545374L107.17825226156374,-60.42298854711886L92.16600784639675,-52.86554824871128z" style="fill:rgb(170,97,243)"/><path d="M144.8128991765976,-97.09329876087628L92.16600784639675,-52.86554824871128L107.17825226156374,-60.42298854711886zM138.72729606777162,-84.02876477982139L120.29784054320075,-68.38415580048093L130.9529664372921,-76.37338612819245z" style="fill:rgb(82,237,172)"/><path d="M131.50153240123336,103.34115015688384L92.16600784639675,-52.86554824871128L75.95498292438,-46.0755426151944z" style="fill:rgb(147,87,246)"/><path d="M143.37370294142843,-91.02603576856595L107.17825226156374,-60.42298854711886L120.29784054320075,-68.38415580048093z" style="fill:rgb(82,237,172)"/></svg>