solid JSxCAD
facet normal 0.9569403609049868 -0.29028459427092135 0
outer loop
vertex 8.90393 -0.97545 -5
vertex 8.90393 -0.97545 5
vertex 8.6194 -1.91342 -5
endloop
endfacet
facet normal 0.9569403609049868 -0.29028459427092135 0
outer loop
vertex 8.6194 -1.91342 -5
vertex 8.90393 -0.97545 5
vertex 8.6194 -1.91342 5
endloop
endfacet
facet normal 0.8819201875442222 -0.4713987513793009 0
outer loop
vertex 8.6194 -1.91342 -5
vertex 8.6194 -1.91342 5
vertex 8.15735 -2.77785 -5
endloop
endfacet
facet normal 0.8819201875442222 -0.4713987513793009 0
outer loop
vertex 8.15735 -2.77785 -5
vertex 8.6194 -1.91342 5
vertex 8.15735 -2.77785 5
endloop
endfacet
facet normal 0.7730064039365387 -0.634398218371632 0
outer loop
vertex 8.15735 -2.77785 -5
vertex 8.15735 -2.77785 5
vertex 7.53553 -3.53553 -5
endloop
endfacet
facet normal 0.7730064039365387 -0.634398218371632 0
outer loop
vertex 7.53553 -3.53553 -5
vertex 8.15735 -2.77785 5
vertex 7.53553 -3.53553 5
endloop
endfacet
facet normal 0.6343982183716325 -0.7730064039365383 0
outer loop
vertex 7.53553 -3.53553 -5
vertex 7.53553 -3.53553 5
vertex 6.77785 -4.15735 -5
endloop
endfacet
facet normal 0.6343982183716325 -0.7730064039365383 0
outer loop
vertex 6.77785 -4.15735 -5
vertex 7.53553 -3.53553 5
vertex 6.77785 -4.15735 5
endloop
endfacet
facet normal 0.47139875137929965 -0.8819201875442227 0
outer loop
vertex 6.77785 -4.15735 -5
vertex 6.77785 -4.15735 5
vertex 5.91342 -4.6194 -5
endloop
endfacet
facet normal 0.47139875137929965 -0.8819201875442227 0
outer loop
vertex 5.91342 -4.6194 -5
vertex 6.77785 -4.15735 5
vertex 5.91342 -4.6194 5
endloop
endfacet
facet normal 0.29028459427092135 -0.956940360904987 0
outer loop
vertex 5.91342 -4.6194 -5
vertex 5.91342 -4.6194 5
vertex 4.97545 -4.90393 -5
endloop
endfacet
facet normal 0.29028459427092135 -0.956940360904987 0
outer loop
vertex 4.97545 -4.90393 -5
vertex 5.91342 -4.6194 5
vertex 4.97545 -4.90393 5
endloop
endfacet
facet normal 0.09801366505113952 -0.9951850689511188 0
outer loop
vertex 4.97545 -4.90393 -5
vertex 4.97545 -4.90393 5
vertex 4 -5 -5
endloop
endfacet
facet normal 0.09801366505113952 -0.9951850689511188 0
outer loop
vertex 4 -5 -5
vertex 4.97545 -4.90393 5
vertex 4 -5 5
endloop
endfacet
facet normal -0.09801366505113955 -0.9951850689511188 0
outer loop
vertex 4 -5 -5
vertex 4 -5 5
vertex 3.02455 -4.90393 -5
endloop
endfacet
facet normal -0.09801366505113955 -0.9951850689511188 0
outer loop
vertex 3.02455 -4.90393 -5
vertex 4 -5 5
vertex 3.02455 -4.90393 5
endloop
endfacet
facet normal -0.29028459427092135 -0.956940360904987 0
outer loop
vertex 3.02455 -4.90393 -5
vertex 3.02455 -4.90393 5
vertex 2.08658 -4.6194 -5
endloop
endfacet
facet normal -0.29028459427092135 -0.956940360904987 0
outer loop
vertex 2.08658 -4.6194 -5
vertex 3.02455 -4.90393 5
vertex 2.08658 -4.6194 5
endloop
endfacet
facet normal -0.4713987513792995 -0.881920187544223 0
outer loop
vertex 2.08658 -4.6194 -5
vertex 2.08658 -4.6194 5
vertex 1.22215 -4.15735 -5
endloop
endfacet
facet normal -0.4713987513792995 -0.881920187544223 0
outer loop
vertex 1.22215 -4.15735 -5
vertex 2.08658 -4.6194 5
vertex 1.22215 -4.15735 5
endloop
endfacet
facet normal -0.6343982183716322 -0.7730064039365384 0
outer loop
vertex 1.22215 -4.15735 -5
vertex 1.22215 -4.15735 5
vertex 0.46447 -3.53553 -5
endloop
endfacet
facet normal -0.6343982183716322 -0.7730064039365384 0
outer loop
vertex 0.46447 -3.53553 -5
vertex 1.22215 -4.15735 5
vertex 0.46447 -3.53553 5
endloop
endfacet
facet normal -0.7730064039365384 -0.6343982183716322 0
outer loop
vertex 0.46447 -3.53553 -5
vertex 0.46447 -3.53553 5
vertex -0.15735 -2.77785 -5
endloop
endfacet
facet normal -0.7730064039365384 -0.6343982183716322 0
outer loop
vertex -0.15735 -2.77785 -5
vertex 0.46447 -3.53553 5
vertex -0.15735 -2.77785 5
endloop
endfacet
facet normal -0.8819201875442229 -0.47139875137929976 0
outer loop
vertex -0.15735 -2.77785 -5
vertex -0.15735 -2.77785 5
vertex -0.6194 -1.91342 -5
endloop
endfacet
facet normal -0.8819201875442229 -0.47139875137929976 0
outer loop
vertex -0.6194 -1.91342 -5
vertex -0.15735 -2.77785 5
vertex -0.6194 -1.91342 5
endloop
endfacet
facet normal -0.9569403609049869 -0.29028459427092135 0
outer loop
vertex -0.6194 -1.91342 -5
vertex -0.6194 -1.91342 5
vertex -0.90393 -0.97545 -5
endloop
endfacet
facet normal -0.9569403609049869 -0.29028459427092135 0
outer loop
vertex -0.90393 -0.97545 -5
vertex -0.6194 -1.91342 5
vertex -0.90393 -0.97545 5
endloop
endfacet
facet normal -0.9951850689511188 -0.09801366505113944 0
outer loop
vertex -0.90393 -0.97545 -5
vertex -0.90393 -0.97545 5
vertex -1 0 -5
endloop
endfacet
facet normal -0.9951850689511188 -0.09801366505113944 0
outer loop
vertex -1 0 -5
vertex -0.90393 -0.97545 5
vertex -1 0 5
endloop
endfacet
facet normal -0.9951850689511188 0.09801366505113944 0
outer loop
vertex -1 0 -5
vertex -1 0 5
vertex -0.90393 0.97545 -5
endloop
endfacet
facet normal -0.9951850689511188 0.09801366505113944 0
outer loop
vertex -0.90393 0.97545 -5
vertex -1 0 5
vertex -0.90393 0.97545 5
endloop
endfacet
facet normal -0.9569403609049869 0.29028459427092135 0
outer loop
vertex -0.90393 0.97545 -5
vertex -0.90393 0.97545 5
vertex -0.6194 1.91342 -5
endloop
endfacet
facet normal -0.9569403609049869 0.29028459427092135 0
outer loop
vertex -0.6194 1.91342 -5
vertex -0.90393 0.97545 5
vertex -0.6194 1.91342 5
endloop
endfacet
facet normal -0.8819201875442229 0.47139875137929976 0
outer loop
vertex -0.6194 1.91342 -5
vertex -0.6194 1.91342 5
vertex -0.15735 2.77785 -5
endloop
endfacet
facet normal -0.8819201875442229 0.47139875137929976 0
outer loop
vertex -0.15735 2.77785 -5
vertex -0.6194 1.91342 5
vertex -0.15735 2.77785 5
endloop
endfacet
facet normal -0.7730064039365384 0.6343982183716322 0
outer loop
vertex -0.15735 2.77785 -5
vertex -0.15735 2.77785 5
vertex 0.46447 3.53553 -5
endloop
endfacet
facet normal -0.7730064039365384 0.6343982183716322 0
outer loop
vertex 0.46447 3.53553 -5
vertex -0.15735 2.77785 5
vertex 0.46447 3.53553 5
endloop
endfacet
facet normal -0.6343982183716322 0.7730064039365384 0
outer loop
vertex 0.46447 3.53553 -5
vertex 0.46447 3.53553 5
vertex 1.22215 4.15735 -5
endloop
endfacet
facet normal -0.6343982183716322 0.7730064039365384 0
outer loop
vertex 1.22215 4.15735 -5
vertex 0.46447 3.53553 5
vertex 1.22215 4.15735 5
endloop
endfacet
facet normal -0.4713987513792995 0.881920187544223 0
outer loop
vertex 1.22215 4.15735 -5
vertex 1.22215 4.15735 5
vertex 2.08658 4.6194 -5
endloop
endfacet
facet normal -0.4713987513792995 0.881920187544223 0
outer loop
vertex 2.08658 4.6194 -5
vertex 1.22215 4.15735 5
vertex 2.08658 4.6194 5
endloop
endfacet
facet normal -0.29028459427092135 0.956940360904987 0
outer loop
vertex 2.08658 4.6194 -5
vertex 2.08658 4.6194 5
vertex 3.02455 4.90393 -5
endloop
endfacet
facet normal -0.29028459427092135 0.956940360904987 0
outer loop
vertex 3.02455 4.90393 -5
vertex 2.08658 4.6194 5
vertex 3.02455 4.90393 5
endloop
endfacet
facet normal -0.09801366505113955 0.9951850689511188 0
outer loop
vertex 3.02455 4.90393 -5
vertex 3.02455 4.90393 5
vertex 4 5 -5
endloop
endfacet
facet normal -0.09801366505113955 0.9951850689511188 0
outer loop
vertex 4 5 -5
vertex 3.02455 4.90393 5
vertex 4 5 5
endloop
endfacet
facet normal 0.09801366505113952 0.9951850689511188 0
outer loop
vertex 4 5 -5
vertex 4 5 5
vertex 4.97545 4.90393 -5
endloop
endfacet
facet normal 0.09801366505113952 0.9951850689511188 0
outer loop
vertex 4.97545 4.90393 -5
vertex 4 5 5
vertex 4.97545 4.90393 5
endloop
endfacet
facet normal 0.29028459427092135 0.956940360904987 0
outer loop
vertex 4.97545 4.90393 -5
vertex 4.97545 4.90393 5
vertex 5.91342 4.6194 -5
endloop
endfacet
facet normal 0.29028459427092135 0.956940360904987 0
outer loop
vertex 5.91342 4.6194 -5
vertex 4.97545 4.90393 5
vertex 5.91342 4.6194 5
endloop
endfacet
facet normal 0.47139875137929965 0.8819201875442227 0
outer loop
vertex 5.91342 4.6194 -5
vertex 5.91342 4.6194 5
vertex 6.77785 4.15735 -5
endloop
endfacet
facet normal 0.47139875137929965 0.8819201875442227 0
outer loop
vertex 6.77785 4.15735 -5
vertex 5.91342 4.6194 5
vertex 6.77785 4.15735 5
endloop
endfacet
facet normal 0.6343982183716325 0.7730064039365383 0
outer loop
vertex 6.77785 4.15735 -5
vertex 6.77785 4.15735 5
vertex 7.53553 3.53553 -5
endloop
endfacet
facet normal 0.6343982183716325 0.7730064039365383 0
outer loop
vertex 7.53553 3.53553 -5
vertex 6.77785 4.15735 5
vertex 7.53553 3.53553 5
endloop
endfacet
facet normal 0.7730064039365387 0.634398218371632 0
outer loop
vertex 7.53553 3.53553 -5
vertex 7.53553 3.53553 5
vertex 8.15735 2.77785 -5
endloop
endfacet
facet normal 0.7730064039365387 0.634398218371632 0
outer loop
vertex 8.15735 2.77785 -5
vertex 7.53553 3.53553 5
vertex 8.15735 2.77785 5
endloop
endfacet
facet normal 0.8819201875442222 0.4713987513793009 0
outer loop
vertex 8.15735 2.77785 -5
vertex 8.15735 2.77785 5
vertex 8.6194 1.91342 -5
endloop
endfacet
facet normal 0.8819201875442222 0.4713987513793009 0
outer loop
vertex 8.6194 1.91342 -5
vertex 8.15735 2.77785 5
vertex 8.6194 1.91342 5
endloop
endfacet
facet normal 0.9569403609049868 0.29028459427092135 0
outer loop
vertex 8.6194 1.91342 -5
vertex 8.6194 1.91342 5
vertex 8.90393 0.97545 -5
endloop
endfacet
facet normal 0.9569403609049868 0.29028459427092135 0
outer loop
vertex 8.90393 0.97545 -5
vertex 8.6194 1.91342 5
vertex 8.90393 0.97545 5
endloop
endfacet
facet normal 0.9951850689511188 0.09801366505113865 0
outer loop
vertex 8.90393 0.97545 -5
vertex 8.90393 0.97545 5
vertex 9 0 -5
endloop
endfacet
facet normal 0.9951850689511188 0.09801366505113865 0
outer loop
vertex 9 0 -5
vertex 8.90393 0.97545 5
vertex 9 0 5
endloop
endfacet
facet normal 0.9951850689511188 -0.09801366505113865 0
outer loop
vertex 9 0 -5
vertex 9 0 5
vertex 8.90393 -0.97545 -5
endloop
endfacet
facet normal 0.9951850689511188 -0.09801366505113865 0
outer loop
vertex 8.90393 -0.97545 -5
vertex 9 0 5
vertex 8.90393 -0.97545 5
endloop
endfacet
facet normal 0 0 1
outer loop
vertex 8.90393 0.97545 5
vertex 8.90393 -0.97545 5
vertex 9 0 5
endloop
endfacet
facet normal 0 0 1
outer loop
vertex 8.6194 1.91342 5
vertex 8.90393 -0.97545 5
vertex 8.90393 0.97545 5
endloop
endfacet
facet normal 0 0 1
outer loop
vertex 8.6194 1.91342 5
vertex 8.6194 -1.91342 5
vertex 8.90393 -0.97545 5
endloop
endfacet
facet normal 0 0 1
outer loop
vertex 8.15735 2.77785 5
vertex 8.6194 -1.91342 5
vertex 8.6194 1.91342 5
endloop
endfacet
facet normal 0 0 1
outer loop
vertex 8.15735 2.77785 5
vertex 8.15735 -2.77785 5
vertex 8.6194 -1.91342 5
endloop
endfacet
facet normal 0 0 1
outer loop
vertex 7.53553 3.53553 5
vertex 8.15735 -2.77785 5
vertex 8.15735 2.77785 5
endloop
endfacet
facet normal 0 0 1
outer loop
vertex 7.53553 3.53553 5
vertex 7.53553 -3.53553 5
vertex 8.15735 -2.77785 5
endloop
endfacet
facet normal 0 0 1
outer loop
vertex 6.77785 4.15735 5
vertex 7.53553 -3.53553 5
vertex 7.53553 3.53553 5
endloop
endfacet
facet normal 0 0 1
outer loop
vertex 6.77785 4.15735 5
vertex 6.77785 -4.15735 5
vertex 7.53553 -3.53553 5
endloop
endfacet
facet normal 0 0 1
outer loop
vertex 6.77785 4.15735 5
vertex 5.91342 -4.6194 5
vertex 6.77785 -4.15735 5
endloop
endfacet
facet normal 0 0 1
outer loop
vertex 5.91342 4.6194 5
vertex 5.91342 -4.6194 5
vertex 6.77785 4.15735 5
endloop
endfacet
facet normal 0 0 1
outer loop
vertex 4.97545 4.90393 5
vertex 5.91342 -4.6194 5
vertex 5.91342 4.6194 5
endloop
endfacet
facet normal 0 0 1
outer loop
vertex 4.97545 4.90393 5
vertex 4.97545 -4.90393 5
vertex 5.91342 -4.6194 5
endloop
endfacet
facet normal 0 0 1
outer loop
vertex 4 5 5
vertex 4.97545 -4.90393 5
vertex 4.97545 4.90393 5
endloop
endfacet
facet normal 0 0 1
outer loop
vertex 4 5 5
vertex 4 -5 5
vertex 4.97545 -4.90393 5
endloop
endfacet
facet normal 0 0 1
outer loop
vertex 3.02455 4.90393 5
vertex 4 -5 5
vertex 4 5 5
endloop
endfacet
facet normal 0 0 1
outer loop
vertex 3.02455 4.90393 5
vertex 3.02455 -4.90393 5
vertex 4 -5 5
endloop
endfacet
facet normal 0 0 1
outer loop
vertex 2.08658 4.6194 5
vertex 3.02455 -4.90393 5
vertex 3.02455 4.90393 5
endloop
endfacet
facet normal 0 0 1
outer loop
vertex 2.08658 4.6194 5
vertex 2.08658 -4.6194 5
vertex 3.02455 -4.90393 5
endloop
endfacet
facet normal 0 0 1
outer loop
vertex 1.22215 4.15735 5
vertex 2.08658 -4.6194 5
vertex 2.08658 4.6194 5
endloop
endfacet
facet normal 0 0 1
outer loop
vertex 1.22215 4.15735 5
vertex 1.22215 -4.15735 5
vertex 2.08658 -4.6194 5
endloop
endfacet
facet normal 0 0 1
outer loop
vertex 0.46447 3.53553 5
vertex 1.22215 -4.15735 5
vertex 1.22215 4.15735 5
endloop
endfacet
facet normal 0 0 1
outer loop
vertex 0.46447 3.53553 5
vertex 0.46447 -3.53553 5
vertex 1.22215 -4.15735 5
endloop
endfacet
facet normal 0 0 1
outer loop
vertex -0.15735 2.77785 5
vertex 0.46447 -3.53553 5
vertex 0.46447 3.53553 5
endloop
endfacet
facet normal 0 0 1
outer loop
vertex -0.15735 2.77785 5
vertex -0.15735 -2.77785 5
vertex 0.46447 -3.53553 5
endloop
endfacet
facet normal 0 0 1
outer loop
vertex -0.6194 1.91342 5
vertex -0.15735 -2.77785 5
vertex -0.15735 2.77785 5
endloop
endfacet
facet normal 0 0 1
outer loop
vertex -0.6194 1.91342 5
vertex -0.6194 -1.91342 5
vertex -0.15735 -2.77785 5
endloop
endfacet
facet normal 0 0 1
outer loop
vertex -0.90393 0.97545 5
vertex -0.6194 -1.91342 5
vertex -0.6194 1.91342 5
endloop
endfacet
facet normal 0 0 1
outer loop
vertex -0.90393 0.97545 5
vertex -0.90393 -0.97545 5
vertex -0.6194 -1.91342 5
endloop
endfacet
facet normal 0 0 1
outer loop
vertex -0.90393 -0.97545 5
vertex -0.90393 0.97545 5
vertex -1 0 5
endloop
endfacet
facet normal 0 0 -1
outer loop
vertex 9 0 -5
vertex 8.90393 -0.97545 -5
vertex 8.90393 0.97545 -5
endloop
endfacet
facet normal 0 0 -1
outer loop
vertex 8.90393 0.97545 -5
vertex 8.90393 -0.97545 -5
vertex 8.6194 1.91342 -5
endloop
endfacet
facet normal 0 0 -1
outer loop
vertex 8.90393 -0.97545 -5
vertex 8.6194 -1.91342 -5
vertex 8.6194 1.91342 -5
endloop
endfacet
facet normal 0 0 -1
outer loop
vertex 8.6194 1.91342 -5
vertex 8.6194 -1.91342 -5
vertex 8.15735 2.77785 -5
endloop
endfacet
facet normal 0 0 -1
outer loop
vertex 8.6194 -1.91342 -5
vertex 8.15735 -2.77785 -5
vertex 8.15735 2.77785 -5
endloop
endfacet
facet normal 0 0 -1
outer loop
vertex 8.15735 2.77785 -5
vertex 8.15735 -2.77785 -5
vertex 7.53553 3.53553 -5
endloop
endfacet
facet normal 0 0 -1
outer loop
vertex 8.15735 -2.77785 -5
vertex 7.53553 -3.53553 -5
vertex 7.53553 3.53553 -5
endloop
endfacet
facet normal 0 0 -1
outer loop
vertex 7.53553 3.53553 -5
vertex 7.53553 -3.53553 -5
vertex 6.77785 4.15735 -5
endloop
endfacet
facet normal 0 0 -1
outer loop
vertex 7.53553 -3.53553 -5
vertex 6.77785 -4.15735 -5
vertex 6.77785 4.15735 -5
endloop
endfacet
facet normal 0 0 -1
outer loop
vertex 6.77785 -4.15735 -5
vertex 5.91342 -4.6194 -5
vertex 6.77785 4.15735 -5
endloop
endfacet
facet normal 0 0 -1
outer loop
vertex 6.77785 4.15735 -5
vertex 5.91342 -4.6194 -5
vertex 5.91342 4.6194 -5
endloop
endfacet
facet normal 0 0 -1
outer loop
vertex 5.91342 4.6194 -5
vertex 5.91342 -4.6194 -5
vertex 4.97545 4.90393 -5
endloop
endfacet
facet normal 0 0 -1
outer loop
vertex 5.91342 -4.6194 -5
vertex 4.97545 -4.90393 -5
vertex 4.97545 4.90393 -5
endloop
endfacet
facet normal 0 0 -1
outer loop
vertex 4.97545 4.90393 -5
vertex 4.97545 -4.90393 -5
vertex 4 5 -5
endloop
endfacet
facet normal 0 0 -1
outer loop
vertex 4.97545 -4.90393 -5
vertex 4 -5 -5
vertex 4 5 -5
endloop
endfacet
facet normal 0 0 -1
outer loop
vertex 4 5 -5
vertex 4 -5 -5
vertex 3.02455 4.90393 -5
endloop
endfacet
facet normal 0 0 -1
outer loop
vertex 4 -5 -5
vertex 3.02455 -4.90393 -5
vertex 3.02455 4.90393 -5
endloop
endfacet
facet normal 0 0 -1
outer loop
vertex 3.02455 4.90393 -5
vertex 3.02455 -4.90393 -5
vertex 2.08658 4.6194 -5
endloop
endfacet
facet normal 0 0 -1
outer loop
vertex 3.02455 -4.90393 -5
vertex 2.08658 -4.6194 -5
vertex 2.08658 4.6194 -5
endloop
endfacet
facet normal 0 0 -1
outer loop
vertex 2.08658 4.6194 -5
vertex 2.08658 -4.6194 -5
vertex 1.22215 4.15735 -5
endloop
endfacet
facet normal 0 0 -1
outer loop
vertex 2.08658 -4.6194 -5
vertex 1.22215 -4.15735 -5
vertex 1.22215 4.15735 -5
endloop
endfacet
facet normal 0 0 -1
outer loop
vertex 1.22215 4.15735 -5
vertex 1.22215 -4.15735 -5
vertex 0.46447 3.53553 -5
endloop
endfacet
facet normal 0 0 -1
outer loop
vertex 1.22215 -4.15735 -5
vertex 0.46447 -3.53553 -5
vertex 0.46447 3.53553 -5
endloop
endfacet
facet normal 0 0 -1
outer loop
vertex 0.46447 3.53553 -5
vertex 0.46447 -3.53553 -5
vertex -0.15735 2.77785 -5
endloop
endfacet
facet normal 0 0 -1
outer loop
vertex 0.46447 -3.53553 -5
vertex -0.15735 -2.77785 -5
vertex -0.15735 2.77785 -5
endloop
endfacet
facet normal 0 0 -1
outer loop
vertex -0.15735 2.77785 -5
vertex -0.15735 -2.77785 -5
vertex -0.6194 1.91342 -5
endloop
endfacet
facet normal 0 0 -1
outer loop
vertex -0.15735 -2.77785 -5
vertex -0.6194 -1.91342 -5
vertex -0.6194 1.91342 -5
endloop
endfacet
facet normal 0 0 -1
outer loop
vertex -0.6194 1.91342 -5
vertex -0.6194 -1.91342 -5
vertex -0.90393 0.97545 -5
endloop
endfacet
facet normal 0 0 -1
outer loop
vertex -0.6194 -1.91342 -5
vertex -0.90393 -0.97545 -5
vertex -0.90393 0.97545 -5
endloop
endfacet
facet normal 0 0 -1
outer loop
vertex -1 0 -5
vertex -0.90393 0.97545 -5
vertex -0.90393 -0.97545 -5
endloop
endfacet
facet normal -1 0 0
outer loop
vertex -9 -5 5
vertex -9 -3.71961 3.71961
vertex -9 -3.71961 -5
endloop
endfacet
facet normal -1 0 0
outer loop
vertex -9 -5 5
vertex -9 -3.71961 -5
vertex -9 -5 -5
endloop
endfacet
facet normal -1 0 0
outer loop
vertex -9 -3.71961 3.71961
vertex -9 -5 5
vertex -9 -3.71961 5
endloop
endfacet
facet normal -1 0 0
outer loop
vertex -9 4.23175 -4.23175
vertex -9 4.23175 -5
vertex -9 -3.71961 -5
endloop
endfacet
facet normal -1 0 0
outer loop
vertex -9 4.23175 -4.23175
vertex -9 -3.71961 -5
vertex -9 -3.71961 3.71961
endloop
endfacet
facet normal -1 0 0
outer loop
vertex -9 -3.71961 5
vertex -9 4.23175 5
vertex -9 4.23175 -4.23175
endloop
endfacet
facet normal -1 0 0
outer loop
vertex -9 -3.71961 5
vertex -9 4.23175 -4.23175
vertex -9 -3.71961 3.71961
endloop
endfacet
facet normal -1 0 0
outer loop
vertex -9 4.23175 -4.23175
vertex -9 5 -5
vertex -9 4.23175 -5
endloop
endfacet
facet normal -1 0 0
outer loop
vertex -9 4.23175 5
vertex -9 5 5
vertex -9 5 -5
endloop
endfacet
facet normal -1 0 0
outer loop
vertex -9 4.23175 5
vertex -9 5 -5
vertex -9 4.23175 -4.23175
endloop
endfacet
facet normal 0 0 1
outer loop
vertex 0.67224 -4.67224 5
vertex 1 -5 5
vertex 1 -4.70453 5
endloop
endfacet
facet normal 0 0 1
outer loop
vertex 0.67224 -4.67224 5
vertex -9 -3.71961 5
vertex -9 -5 5
endloop
endfacet
facet normal 0 0 1
outer loop
vertex 0.67224 -4.67224 5
vertex -9 -5 5
vertex 1 -5 5
endloop
endfacet
facet normal 0 0 1
outer loop
vertex 1 -4.70453 5
vertex 1 -3.97504 5
vertex -4.7158 0.7158 5
endloop
endfacet
facet normal 0 0 1
outer loop
vertex 1 -4.70453 5
vertex -4.7158 0.7158 5
vertex 0.67224 -4.67224 5
endloop
endfacet
facet normal 0 0 1
outer loop
vertex -4.7158 0.7158 5
vertex -9 4.23175 5
vertex -9 -3.71961 5
endloop
endfacet
facet normal 0 0 1
outer loop
vertex -4.7158 0.7158 5
vertex -9 -3.71961 5
vertex 0.67224 -4.67224 5
endloop
endfacet
facet normal 0 0 1
outer loop
vertex -0.50754 5 5
vertex -9 5 5
vertex -4.7158 0.7158 5
endloop
endfacet
facet normal 0 0 1
outer loop
vertex -0.50754 5 5
vertex -4.7158 0.7158 5
vertex -1.21266 -2.15915 5
endloop
endfacet
facet normal 0 0 1
outer loop
vertex -9 5 5
vertex -9 4.23175 5
vertex -4.7158 0.7158 5
endloop
endfacet
facet normal 0 0 1
outer loop
vertex -1 0 5
vertex -1.21266 -2.15915 5
vertex -0.74994 -2.5389 5
endloop
endfacet
facet normal 0 0 1
outer loop
vertex -0.80401 1.98989 5
vertex 1 4.18808 5
vertex 1 5 5
endloop
endfacet
facet normal 0 0 1
outer loop
vertex -0.80401 1.98989 5
vertex 1 5 5
vertex -0.50754 5 5
endloop
endfacet
facet normal 0 0 1
outer loop
vertex -0.80401 -1.98989 5
vertex -0.74994 -2.5389 5
vertex 0.46447 -3.53553 5
endloop
endfacet
facet normal 0 0 1
outer loop
vertex -0.90393 -0.97545 5
vertex -0.80401 -1.98989 5
vertex -0.47435 -2.39159 5
endloop
endfacet
facet normal 0 0 1
outer loop
vertex -0.47435 2.39159 5
vertex -0.80401 1.98989 5
vertex -0.90393 0.97545 5
endloop
endfacet
facet normal 0 0 1
outer loop
vertex 1 3.97504 5
vertex 1 4.18808 5
vertex 0.46447 3.53553 5
endloop
endfacet
facet normal 0 0 1
outer loop
vertex -0.15735 2.77785 5
vertex -0.47435 2.39159 5
vertex -0.6194 1.91342 5
endloop
endfacet
facet normal 0 0 1
outer loop
vertex -0.6194 -1.91342 5
vertex -0.47435 -2.39159 5
vertex -0.15735 -2.77785 5
endloop
endfacet
facet normal 0 0 -1
outer loop
vertex 1 -4.70453 -5
vertex 1 -5 -5
vertex 0.67224 -4.67224 -5
endloop
endfacet
facet normal 0 0 -1
outer loop
vertex -9 -3.71961 -5
vertex 0.67224 -4.67224 -5
vertex 1 -5 -5
endloop
endfacet
facet normal 0 0 -1
outer loop
vertex -9 -3.71961 -5
vertex 1 -5 -5
vertex -9 -5 -5
endloop
endfacet
facet normal 0 0 -1
outer loop
vertex 0.67224 -4.67224 -5
vertex -4.7158 0.7158 -5
vertex 1 -3.97504 -5
endloop
endfacet
facet normal 0 0 -1
outer loop
vertex 0.67224 -4.67224 -5
vertex 1 -3.97504 -5
vertex 1 -4.70453 -5
endloop
endfacet
facet normal 0 0 -1
outer loop
vertex -9 4.23175 -5
vertex -4.7158 0.7158 -5
vertex 0.67224 -4.67224 -5
endloop
endfacet
facet normal 0 0 -1
outer loop
vertex -9 4.23175 -5
vertex 0.67224 -4.67224 -5
vertex -9 -3.71961 -5
endloop
endfacet
facet normal 0 0 -1
outer loop
vertex -9 5 -5
vertex -0.50754 5 -5
vertex -1.21266 -2.15915 -5
endloop
endfacet
facet normal 0 0 -1
outer loop
vertex -9 5 -5
vertex -1.21266 -2.15915 -5
vertex -4.7158 0.7158 -5
endloop
endfacet
facet normal 0 0 -1
outer loop
vertex -9 5 -5
vertex -4.7158 0.7158 -5
vertex -9 4.23175 -5
endloop
endfacet
facet normal 0 0 -1
outer loop
vertex -0.74994 -2.5389 -5
vertex -1.21266 -2.15915 -5
vertex -1 0 -5
endloop
endfacet
facet normal 0 0 -1
outer loop
vertex 1 4.18808 -5
vertex -0.80401 1.98989 -5
vertex -0.50754 5 -5
endloop
endfacet
facet normal 0 0 -1
outer loop
vertex 1 4.18808 -5
vertex -0.50754 5 -5
vertex 1 5 -5
endloop
endfacet
facet normal 0 0 -1
outer loop
vertex 0.46447 -3.53553 -5
vertex -0.74994 -2.5389 -5
vertex -0.80401 -1.98989 -5
endloop
endfacet
facet normal 0 0 -1
outer loop
vertex -0.47435 -2.39159 -5
vertex -0.80401 -1.98989 -5
vertex -0.90393 -0.97545 -5
endloop
endfacet
facet normal 0 0 -1
outer loop
vertex -0.90393 0.97545 -5
vertex -0.80401 1.98989 -5
vertex -0.47435 2.39159 -5
endloop
endfacet
facet normal 0 0 -1
outer loop
vertex 0.46447 3.53553 -5
vertex 1 4.18808 -5
vertex 1 3.97504 -5
endloop
endfacet
facet normal 0 0 -1
outer loop
vertex -0.6194 1.91342 -5
vertex -0.47435 2.39159 -5
vertex -0.15735 2.77785 -5
endloop
endfacet
facet normal 0 0 -1
outer loop
vertex -0.15735 -2.77785 -5
vertex -0.47435 -2.39159 -5
vertex -0.6194 -1.91342 -5
endloop
endfacet
facet normal 0 1 0
outer loop
vertex -9 5 5
vertex -0.50754 5 -3.49246
vertex -0.50754 5 -5
endloop
endfacet
facet normal 0 1 0
outer loop
vertex -9 5 5
vertex -0.50754 5 -5
vertex -9 5 -5
endloop
endfacet
facet normal 0 1 0
outer loop
vertex -0.50754 5 -3.49246
vertex -9 5 5
vertex -0.50754 5 5
endloop
endfacet
facet normal 0 1 0
outer loop
vertex -0.50754 5 -3.49246
vertex 1 5 -5
vertex -0.50754 5 -5
endloop
endfacet
facet normal 0 1 0
outer loop
vertex -0.50754 5 -3.49246
vertex -0.50754 5 5
vertex 1 5 5
endloop
endfacet
facet normal 0 1 0
outer loop
vertex -0.50754 5 -3.49246
vertex 1 5 5
vertex 1 5 -5
endloop
endfacet
facet normal 0 -1 0
outer loop
vertex 1 -5 -5
vertex 1 -5 5
vertex -9 -5 -5
endloop
endfacet
facet normal 0 -1 0
outer loop
vertex -9 -5 -5
vertex 1 -5 5
vertex -9 -5 5
endloop
endfacet
facet normal 1 0 0
outer loop
vertex 1 -4.70453 -4.70453
vertex 1 -5 -5
vertex 1 -4.70453 -5
endloop
endfacet
facet normal 1 0 0
outer loop
vertex 1 -4.70453 -4.70453
vertex 1 -4.70453 5
vertex 1 -5 5
endloop
endfacet
facet normal 1 0 0
outer loop
vertex 1 -4.70453 -4.70453
vertex 1 -5 5
vertex 1 -5 -5
endloop
endfacet
facet normal 1 0 0
outer loop
vertex 1 -3.97504 -3.97504
vertex 1 -4.70453 -4.70453
vertex 1 -4.70453 -5
endloop
endfacet
facet normal 1 0 0
outer loop
vertex 1 -3.97504 -3.97504
vertex 1 -4.70453 -5
vertex 1 -3.97504 -5
endloop
endfacet
facet normal 1 0 0
outer loop
vertex 1 -3.97504 -3.97504
vertex 1 -3.97504 5
vertex 1 -4.70453 5
endloop
endfacet
facet normal 1 0 0
outer loop
vertex 1 -3.97504 -3.97504
vertex 1 -4.70453 5
vertex 1 -4.70453 -4.70453
endloop
endfacet
facet normal 1 0 0
outer loop
vertex 1 4.18808 -5
vertex 1 5 -5
vertex 1 5 5
endloop
endfacet
facet normal 1 0 0
outer loop
vertex 1 4.18808 -5
vertex 1 5 5
vertex 1 4.18808 4.18808
endloop
endfacet
facet normal 1 0 0
outer loop
vertex 1 4.18808 4.18808
vertex 1 5 5
vertex 1 4.18808 5
endloop
endfacet
facet normal 1 0 0
outer loop
vertex 1 3.97504 -5
vertex 1 4.18808 -5
vertex 1 4.18808 4.18808
endloop
endfacet
facet normal 1 0 0
outer loop
vertex 1 3.97504 -5
vertex 1 4.18808 4.18808
vertex 1 3.97504 3.97504
endloop
endfacet
facet normal 1 0 0
outer loop
vertex 1 4.18808 5
vertex 1 3.97504 5
vertex 1 3.97504 3.97504
endloop
endfacet
facet normal 1 0 0
outer loop
vertex 1 4.18808 5
vertex 1 3.97504 3.97504
vertex 1 4.18808 4.18808
endloop
endfacet
facet normal 0.9951850689511188 -0.09801366505113944 0
outer loop
vertex -0.90393 0.97545 -5
vertex -1 0 5
vertex -1 0 -5
endloop
endfacet
facet normal 0.9951850689511188 -0.09801366505113944 0
outer loop
vertex -0.90393 0.97545 5
vertex -1 0 5
vertex -0.90393 0.97545 -5
endloop
endfacet
facet normal 0.9951850689511188 0.09801366505113944 0
outer loop
vertex -1 0 -5
vertex -0.90393 -0.97545 5
vertex -0.90393 -0.97545 -5
endloop
endfacet
facet normal 0.9951850689511188 0.09801366505113944 0
outer loop
vertex -1 0 5
vertex -0.90393 -0.97545 5
vertex -1 0 -5
endloop
endfacet
facet normal 0.7730064039365384 -0.6343982183716322 0
outer loop
vertex 0.46447 3.53553 -5
vertex -0.15735 2.77785 5
vertex -0.15735 2.77785 -5
endloop
endfacet
facet normal 0.7730064039365384 -0.6343982183716322 0
outer loop
vertex 0.46447 3.53553 5
vertex -0.15735 2.77785 5
vertex 0.46447 3.53553 -5
endloop
endfacet
facet normal 0.7730064039365384 0.6343982183716322 0
outer loop
vertex -0.15735 -2.77785 -5
vertex 0.46447 -3.53553 5
vertex 0.46447 -3.53553 -5
endloop
endfacet
facet normal 0.7730064039365384 0.6343982183716322 0
outer loop
vertex -0.15735 -2.77785 5
vertex 0.46447 -3.53553 5
vertex -0.15735 -2.77785 -5
endloop
endfacet
facet normal 0.9569403609049869 0.29028459427092135 0
outer loop
vertex -0.90393 -0.97545 -5
vertex -0.6194 -1.91342 5
vertex -0.6194 -1.91342 -5
endloop
endfacet
facet normal 0.9569403609049869 0.29028459427092135 0
outer loop
vertex -0.90393 -0.97545 5
vertex -0.6194 -1.91342 5
vertex -0.90393 -0.97545 -5
endloop
endfacet
facet normal 0.9569403609049869 -0.29028459427092135 0
outer loop
vertex -0.6194 1.91342 -5
vertex -0.90393 0.97545 5
vertex -0.90393 0.97545 -5
endloop
endfacet
facet normal 0.9569403609049869 -0.29028459427092135 0
outer loop
vertex -0.6194 1.91342 5
vertex -0.90393 0.97545 5
vertex -0.6194 1.91342 -5
endloop
endfacet
facet normal 0.634403536972422 0.7730020389862376 0
outer loop
vertex 1 -3.97504 2.06805
vertex 1 -3.97504 -5
vertex 0.46447 -3.53553 -5
endloop
endfacet
facet normal 0.634403536972422 0.7730020389862376 0
outer loop
vertex 1 -3.97504 5
vertex 1 -3.97504 2.06805
vertex 0.46447 -3.53553 -5
endloop
endfacet
facet normal 0.634403536972422 0.7730020389862376 0
outer loop
vertex 1 -3.97504 5
vertex 0.46447 -3.53553 -5
vertex 0.46447 -3.53553 5
endloop
endfacet
facet normal 0.8819201875442229 -0.47139875137929976 0
outer loop
vertex -0.15735 2.77785 -5
vertex -0.6194 1.91342 5
vertex -0.6194 1.91342 -5
endloop
endfacet
facet normal 0.8819201875442229 -0.47139875137929976 0
outer loop
vertex -0.15735 2.77785 5
vertex -0.6194 1.91342 5
vertex -0.15735 2.77785 -5
endloop
endfacet
facet normal 0.8819201875442229 0.47139875137929976 0
outer loop
vertex -0.6194 -1.91342 -5
vertex -0.15735 -2.77785 5
vertex -0.15735 -2.77785 -5
endloop
endfacet
facet normal 0.8819201875442229 0.47139875137929976 0
outer loop
vertex -0.6194 -1.91342 5
vertex -0.15735 -2.77785 5
vertex -0.6194 -1.91342 -5
endloop
endfacet
facet normal 0.634403536972422 -0.7730020389862376 0
outer loop
vertex 1 3.97504 -2.06805
vertex 0.46447 3.53553 5
vertex 0.46447 3.53553 -5
endloop
endfacet
facet normal 0.634403536972422 -0.7730020389862376 0
outer loop
vertex 1 3.97504 -2.06805
vertex 0.46447 3.53553 -5
vertex 1 3.97504 -5
endloop
endfacet
facet normal 0.634403536972422 -0.7730020389862376 0
outer loop
vertex 1 3.97504 5
vertex 0.46447 3.53553 5
vertex 1 3.97504 -2.06805
endloop
endfacet
endsolid JSxCAD
