<?xml version="1.0" encoding="UTF-8"?>
<!-- Generated by jsxcad -->
<!DOCTYPE svg PUBLIC "-//W3C//DTD SVG 1.1 Tiny//EN" "http://www.w3.org/Graphics/SVG/1.1/DTD/svg11-tiny.dtd">
<svg baseProfile="tiny" height="10 mm" width="18 mm" viewBox="0 0 18 10" version="1.1" stroke="black" stroke-width=".1" fill="none" xmlns="http://www.w3.org/2000/svg">
<path d="M8.49246 10 L5 10 L4.24623 10 L0 10 L0 9.61588 L0 9.23175 L0 5.58692 L0 5 L0 1.28039 L0 0.64019 L0 0 L5 0 L10 0 L10 0.15224 L10 0.29547 L10 0.54583 L10 0.81192 L10 0.90903 L10 1.02496 L10.11107 0.93381 L10.22215 0.84265 L10.65437 0.61163 L11.08658 0.3806 L11.55557 0.23834 L12.02455 0.09607 L12.51227 0.04804 L13 0 L13.48773 0.04804 L13.97545 0.09607 L14.44443 0.23834 L14.91342 0.3806 L15.34563 0.61163 L15.77785 0.84265 L16.15669 1.15356 L16.53553 1.46447 L16.84644 1.84331 L17.15735 2.22215 L17.38837 2.65437 L17.6194 3.08658 L17.76166 3.55557 L17.90393 4.02455 L17.95196 4.51227 L18 5 L17.95196 5.48773 L17.90393 5.97545 L17.76166 6.44443 L17.6194 6.91342 L17.38837 7.34563 L17.15735 7.77785 L16.84644 8.15669 L16.53553 8.53553 L16.15669 8.84644 L15.77785 9.15735 L15.34563 9.38837 L14.91342 9.6194 L14.44443 9.76166 L13.97545 9.90393 L13.48773 9.95196 L13 10 L12.51227 9.95196 L12.02455 9.90393 L11.55557 9.76166 L11.08658 9.6194 L10.65437 9.38837 L10.22215 9.15735 L10.065 9.02838 L10 8.97504 L10 9.09097 L10 9.18808 L10 9.59404 L10 10 L9.11242 10 z"/>
</svg>